<svg id="Capa_1" data-name="Capa 1" xmlns="http://www.w3.org/2000/svg" viewBox="0 0 31.68 19.44"><defs><style>.cls-1{fill:#9aca3c;}.cls-2{fill:#f05050;}.cls-3{fill:#fbc9b7;}.cls-4{fill:#231f20;}.cls-5{fill:#0079aa;}</style></defs><title>2-9meses</title><path class="cls-1" d="M22.58,16.29s-4.26-2-4.25-4.36a49.36,49.36,0,0,1,1.23-7.49,5.4,5.4,0,0,0-3.2,1A63.47,63.47,0,0,0,9.64,10.6a14.16,14.16,0,0,1-6.05,2.5c-1.85.15-2.87.8-1.69,1.14s3.72.37,4.56,1,3,.2,3.53.25,1.66.1,1.79.58,2,1.22,2.91,1.17,4.19-.81,5.49-.75a11.16,11.16,0,0,0,2.4-.16"/><path class="cls-2" d="M18.75,13.21l1.11-.39a.76.76,0,0,1,0,.52c-.09.31.62.26.62.26s1.13-.12,1.12,0-.12.68-.12.68l-.08.67-.76.26a8.31,8.31,0,0,1-1.89-2"/><path class="cls-3" d="M20.06,5.61a.51.51,0,0,0-.33.54,1.94,1.94,0,0,1,0,.64l.59-.74a1.35,1.35,0,0,1-.09-.44,4.19,4.19,0,0,1,.57-1.06,1.36,1.36,0,0,1,.74-.06c.23,0,5.23.31,5.61,1.33a5.07,5.07,0,0,1,.35,2,6.43,6.43,0,0,1-.94.63l-.37.31s.26.24.26.29a.38.38,0,0,1-.34.31c-.29.06-.72.1-.72.1A4.29,4.29,0,0,1,25,11.05a5.51,5.51,0,0,1-.47.47,5.46,5.46,0,0,1,1.59-.45,3.33,3.33,0,0,1,1.42,1.35c.24.57.45.5.45.5a4,4,0,0,0,.79-.55.43.43,0,0,1,.37-.23,4.56,4.56,0,0,1,1,.57c.15.16.31.24.34.33s-.1.31-.26.36-.32.2-.3.22-.56.28-.67.5-.51.94-.85,1-.87,0-1.05-.36-.35-.49-.47-.53-1.21-.14-1.35-.37a1.22,1.22,0,0,1-.15-.32,11.37,11.37,0,0,1-2.23.49c-.68,0-1.69-.08-1.69-.08l-.12-.24-.06-.18-.53.11h-.68s0-.84-.13-.89-.64.19-.65.12a4.22,4.22,0,0,1,.1-.62S19,12,19,12l-.65-.05L19,6.13l.22-1L19,5l-.65-.3a3,3,0,0,1-.82.38c-.19,0-.71-.19-.55-.36a.76.76,0,0,1,.53-.15.24.24,0,0,1,0-.27c.08-.16.52-.15.52-.15s.37-.48.58-.38.18,0,.18,0a.64.64,0,0,1,.37-.17.92.92,0,0,1,.74.21,1,1,0,0,1,.2.64c0,.22.11.26.11.26s.26.11.31.23-.39.73-.39.73"/><path class="cls-4" d="M30.64,13.06a.17.17,0,0,1,0-.1.2.2,0,0,0,0-.11.27.27,0,0,0-.1-.06l-.12,0a.12.12,0,0,0,0-.1.14.14,0,0,0-.1-.07.39.39,0,0,0-.28,0s0,0,0,0a.44.44,0,0,0,.09.15s0,0,0,0l.07,0s0,.05,0,.06a.2.2,0,0,1-.11,0,1.16,1.16,0,0,0-.44,0,.86.86,0,0,0-.19.12s0,0,0,0a.61.61,0,0,0,.24.08.59.59,0,0,0,.26,0l.13-.05A.31.31,0,0,0,30.2,13l.09-.09h0l0,0,.05,0,.09,0s.07,0,.07.06,0,0-.06,0a1.28,1.28,0,0,0-.28.1,1.17,1.17,0,0,0-.05-.11h0l0,0a.45.45,0,0,1-.07.25l0,0h0a.88.88,0,0,1-.28.22c-.12.06-.23.09-.41.16a.78.78,0,0,0-.32.36c-.12.22-.19.43-.29.62a.58.58,0,0,1-.21.23.88.88,0,0,1-.39.05.71.71,0,0,1-.64-.38c-.05-.09,0-.21-.1-.35a1,1,0,0,0-.42-.27,4.26,4.26,0,0,0-.47-.15,1.94,1.94,0,0,1-.4-.12.26.26,0,0,1-.15-.17.65.65,0,0,1,0-.24.15.15,0,0,0-.08-.18.37.37,0,0,0-.39,0h0l-.14.08-.19.09-.41.16c-.28.09-.58.17-.89.24a9,9,0,0,1-1.95.15h0s0,0,0,0a7,7,0,0,0,2,.06,7.1,7.1,0,0,0,1-.17,4,4,0,0,0,.49-.15h0a.67.67,0,0,0,.4.37,3.31,3.31,0,0,0,.51.12c.16,0,.31.05.45.09a.8.8,0,0,1,.35.14c.08.05.08.18.15.29a.81.81,0,0,0,.31.3,1.37,1.37,0,0,0,.47.16l.27,0a.82.82,0,0,0,.3,0,1,1,0,0,0,.41-.28,1.85,1.85,0,0,0,.37-.64,1.07,1.07,0,0,1,.14-.23,2.73,2.73,0,0,0,.4-.22.7.7,0,0,0,.26-.34v0h.06a.47.47,0,0,0,.22-.07l.09-.08a.24.24,0,0,0,.06-.11v-.12"/><path class="cls-4" d="M22.24,6.26c.05.41.33.73.37.51s.08-.88-1.38-1.16c0,0,1,.25,1,.65"/><path class="cls-4" d="M23.93,7.94a2.77,2.77,0,0,1,.28.75,1.11,1.11,0,0,0-.45-1.14c-.36-.2-.7-.18-.6-.07s.61.23.77.46"/><path class="cls-4" d="M21.47,6c-.49.85.65.74.65.74l-.38-.21A.63.63,0,0,1,21.47,6"/><path class="cls-4" d="M23.94,8.41c-.7-.12-.73-.64-.73-.64-.37.77.73.64.73.64"/><path class="cls-4" d="M21.35,7.87c.26.11.23.15.45.17A.41.41,0,0,0,22.12,8a.28.28,0,0,1-.29,0c-.17-.09-.48-.12-.48-.31s-.1-.21-.07-.29-.09,0-.05.18-.14.23.12.34"/><path class="cls-4" d="M20.64,7.57c0,.59,1,1,1,1a2,2,0,0,0-.2-.19c-.08-.07-.16-.22-.26-.27S21,8,21,7.86s-.32-.29-.32-.29"/><path class="cls-4" d="M20.55,8.06c-.12.26.09.4.21.31s-.15-.43-.21-.31"/><path class="cls-4" d="M17.44,4.73h0"/><path class="cls-4" d="M19.75,16.4h0c-.45,0-.91.07-1.36.12-.22,0-.45.07-.67.12l-.63.18a10.6,10.6,0,0,1-2.65.27,4.07,4.07,0,0,1-2.37-.68,1,1,0,0,1-.29-.38,1.58,1.58,0,0,0-.11-.23.61.61,0,0,0-.28-.21,5.73,5.73,0,0,0-1.4-.14,21.24,21.24,0,0,1-2.67-.19A4.87,4.87,0,0,1,6.11,15a1.26,1.26,0,0,1-.26-.13l-.16-.07-.18-.06a5.28,5.28,0,0,0-.66-.16c-.89-.18-1.79-.29-2.63-.47a2.83,2.83,0,0,1-.53-.15l.14-.06A9.76,9.76,0,0,1,3,13.48c.84-.23,1.69-.45,2.53-.7A16.56,16.56,0,0,0,8,11.9a12.31,12.31,0,0,0,2-1.33c1.21-.93,2.34-1.9,3.49-2.87.57-.48,1.15-1,1.75-1.42A16.35,16.35,0,0,1,17.12,5l0,0,.07,0-.07,0s-.1-.08-.08-.13.35-.1.39-.08h0s0,0,0,0,0,0,.05,0a.15.15,0,0,1,0,.18.19.19,0,0,1-.18.07h-.09l.09,0h.11l-.27.16c-.19.11-.45.29-.76.5s-.65.46-1,.74l-1.05.92c-1.44,1.24-2.85,2.5-2.85,2.5l0,0s1.58-1.16,3.12-2.34c.4-.29.79-.58,1.15-.86s.66-.56.91-.8.46-.45.59-.6L17.51,5h0l.09,0a.53.53,0,0,0,.31-.2.21.21,0,0,0,0-.22.47.47,0,0,0-.31-.18h-.12a.78.78,0,0,1,.21-.12.29.29,0,0,1,.18,0,.58.58,0,0,1,.14.05l.12.07c.09,0,.12.11.13.08s0,0,0,0l-.12.09a1.2,1.2,0,0,0-.24.21,2,2,0,0,0,.4,0l.17,0,0,0,.08.08,0,0a7,7,0,0,0-.68.61,8.31,8.31,0,0,0-.62.67c-.2.25-.38.53-.58.81-.82,1.1-1.59,2.21-1.59,2.21l0,0s1-1,1.9-2.09c.24-.27.49-.53.7-.78a6.28,6.28,0,0,0,.5-.71,4.49,4.49,0,0,0,.38-.7.83.83,0,0,0,.17.11l-.12.19c-.11.17-.23.42-.39.71s-.3.65-.45,1-.26.79-.4,1.19c-.55,1.63-1.06,3.26-1.06,3.26h.05s.73-1.59,1.41-3.2c.18-.4.36-.79.51-1.17s.26-.74.34-1,.14-.56.17-.75,0-.13,0-.18h0l.09,0h0s0,0,0,.07a.32.32,0,0,0,.11.24l-.38,1.42c-.14.49-.26,1-.36,1.49a14,14,0,0,0-.37,3,4.9,4.9,0,0,0,.07.77,2.7,2.7,0,0,0,.08.39,2.59,2.59,0,0,0,.15.37,4.9,4.9,0,0,0,.42.73c.08.12.18.23.27.34s.19.22.3.33.43.42.66.62l.73.58c.42.29.86.57,1.32.83-.77,0-1.53.06-2.29.12M18.34,3.86h.19A.56.56,0,0,1,18.7,4a.84.84,0,0,1,.3.32.52.52,0,0,1,.06.2,1.38,1.38,0,0,1,0,.2.29.29,0,0,1,0,.14l0,0h0s0,0,0,0h0a2.38,2.38,0,0,1-.38-.09l-.13,0a.3.3,0,0,0,.18-.15.26.26,0,0,0,0-.26.74.74,0,0,0-.19-.16,1.23,1.23,0,0,0-.23-.11L18,4h0A.77.77,0,0,1,18.34,3.86Zm.8-.22h0a1,1,0,0,1,.38,0s0,0,0,0l.08.06.11.15a.75.75,0,0,1,.12.32.53.53,0,0,1,0,.13l0,0h0l0,0a.12.12,0,0,1-.05.05s0,0-.05,0h0l-.11,0V4.44a1.09,1.09,0,0,0-.08-.28,1.16,1.16,0,0,0-.5-.45l-.13,0Zm.31,1.59h0S19.4,5.24,19.45,5.23Zm.84-.44h0l0,0a1.08,1.08,0,0,0-.21.43.68.68,0,0,0,0,.4.61.61,0,0,0,.22.32l-.09.07a1.69,1.69,0,0,0-.58.92,1.61,1.61,0,0,0,0,.62,2.09,2.09,0,0,0,.08.34,1.48,1.48,0,0,0,.15.35,2.1,2.1,0,0,0,.62.65,3.14,3.14,0,0,0,1,.46,6.92,6.92,0,0,0,1.22.22,3.57,3.57,0,0,0,1.37-.09,1.35,1.35,0,0,0,.24-.08.39.39,0,0,0,.18.14.71.71,0,0,0,.26.07,1.45,1.45,0,0,0,.29,0h.29a3.52,3.52,0,0,1-.21.7,2.68,2.68,0,0,1-.19.42,2.24,2.24,0,0,1-.27.39,2.92,2.92,0,0,1-.89.58,4.5,4.5,0,0,1-.55.22,5.4,5.4,0,0,1-.57.18h0c-.09,0-.15.08-.15.14s0,.35,0,.52a2.34,2.34,0,0,1,0,.26.51.51,0,0,1-.09.22.41.41,0,0,1-.16.16l0,0h0v0a.38.38,0,0,1,0-.23,1.83,1.83,0,0,1,.08-.25h0a.08.08,0,0,0-.07-.09.12.12,0,0,0-.13,0h0a2.1,2.1,0,0,0-.13.26,1.21,1.21,0,0,0-.05.18h0a.55.55,0,0,1-.14.19.41.41,0,0,1-.24.08s-.05,0-.05,0,0,0,0-.09l.08-.17h0l.21-.49h0s0-.07-.05-.08a.12.12,0,0,0-.13,0h0l-.26.46a.54.54,0,0,1-.43.24H20.8l0-.08,0-.07.05-.07c.09-.14.17-.28.25-.43h0c0-.07,0-.15-.12-.18a.25.25,0,0,0-.27.08h0l-.27.4-.15.19a.6.6,0,0,1-.08.08s-.07.06,0,0-.08,0-.09-.05v0h0l0,0a.41.41,0,0,1,.05-.09l.13-.2a1.5,1.5,0,0,0,.25-.49s0,0,0-.11a.59.59,0,0,0,0-.08l0,0a.33.33,0,0,0-.17-.1.54.54,0,0,0-.31,0,.7.7,0,0,0-.23.15l-.09.1-.14.14h0s0,0,0-.06a1.45,1.45,0,0,1,.6-.67,2.42,2.42,0,0,1,.48-.25l.28-.12.29-.13a3.09,3.09,0,0,0,.9-.7,3.42,3.42,0,0,0,.52-.84h0a4.3,4.3,0,0,1-.67.76,3.4,3.4,0,0,1-.91.59l-.26.09-.3.11a3.15,3.15,0,0,0-.59.27,2.27,2.27,0,0,0-.4.29h0a.49.49,0,0,0-.19-.1H19c-.18,0-.37,0-.5,0,0-.17,0-.33-.05-.5a12.54,12.54,0,0,1,.06-1.5c0-.5.11-1,.19-1.5L19,6.83l.14-.75.07-.38,0-.19V5.44l.05,0a.49.49,0,0,0,.19,0,.56.56,0,0,0,.23-.07.48.48,0,0,0,.14-.16A.58.58,0,0,0,19.92,5l-.34.21,0,0v0a.41.41,0,0,1,.06-.11.35.35,0,0,1,.1-.12l.13-.12s0,0,.05,0l.06,0,.12,0A.45.45,0,0,1,20.29,4.79Zm.43.21h0a1.22,1.22,0,0,1,.15-.17A1,1,0,0,1,21,4.68a.91.91,0,0,1,.13-.1c.05,0,0,0,.06,0h0l-.43.66.24,0-.1.17a.76.76,0,0,1-.16.19c-.1.1-.27.23-.47.39,0-.06,0-.17.05-.3A2,2,0,0,1,20.72,5ZM23.1,5h0l-.64.41h1.07l-1.36.34h2.34c.06,0-1.11.35-1.11.35h1.24l-1.73.67h2.2l-1.94.56,2.62-.25L25,7.41H26.3l-1.47,1.1L26,8l-.88.76h-.06l-.33.07L24.42,9l-.54.19a3,3,0,0,1-1.09.05,7,7,0,0,1-1.1-.19,2.51,2.51,0,0,1-1.46-.89,2.28,2.28,0,0,1-.17-.3,1.94,1.94,0,0,1-.13-.3A1.51,1.51,0,0,1,19.85,7a1.35,1.35,0,0,1,.43-.89c.21-.22.43-.38.55-.5a.84.84,0,0,0,.15-.2l.12-.2Zm3.2,4h0s0,.06,0,.09a.07.07,0,0,1,0,.06l-.11,0-.2,0-.49.08L25,9.36l-.21,0h-.17a.2.2,0,0,1-.11,0l.18-.07.25-.1a1.74,1.74,0,0,1,.29-.07l1-.21Zm-4.17,4.49h0s0,0,0,0Zm-.76,1.26Zm-.61-1.23Zm-1.68-1h0a.81.81,0,0,0,0,.27.37.37,0,0,0,.07.19l0,0A.76.76,0,0,0,19,13s0,0,0,0a2.54,2.54,0,0,1-.16-.28c0-.12-.12-.25-.14-.35a2.37,2.37,0,0,1-.09-.36.31.31,0,0,1,0-.1l.35.16.21.1h.15A1.08,1.08,0,0,0,19.08,12.51ZM20.92,15h0l-.14.09-.45-.37a7,7,0,0,1-.62-.6,6.32,6.32,0,0,1-.54-.64l-.06-.09.13,0a1.5,1.5,0,0,0,.13-.11l.17-.13h0l.27-.1-.1.15-.06.12a.69.69,0,0,0,0,.08v.09a.44.44,0,0,0,.3.32.68.68,0,0,0,.56,0l.08-.06h0l.08,0a.7.7,0,0,0,.25,0,.8.8,0,0,0,.34-.11h0a.11.11,0,0,0,.09.1,1,1,0,0,0-.12.25.88.88,0,0,0-.05.29c0,.1.05.21.07.32a1,1,0,0,1,0,.16v0h0C21.12,14.83,21,14.9,20.92,15Zm1.66,1.33a13.83,13.83,0,0,1-1.54-1l-.18-.14.17,0,.37-.12h.06l0,0a.17.17,0,0,0,.08-.06l0-.11a1.16,1.16,0,0,0,0-.18,2,2,0,0,0,.05-.33.65.65,0,0,0-.07-.29,1.17,1.17,0,0,0-.15-.22.68.68,0,0,0,.33-.1l.05-.06h0l.06,0H22a.53.53,0,0,0,.34,0,.75.75,0,0,0,.32-.24.85.85,0,0,0,.15-.28c0-.09.06-.19.08-.28a3.29,3.29,0,0,0,.05-.44A6.89,6.89,0,0,0,24,12a2.71,2.71,0,0,0,.37-.21c.32-.15.63-.29.94-.41l.29-.08.29-.06s.12,0,.11,0l.17,0,.11,0,.14.05a1.68,1.68,0,0,1,.76.78c.08.15.14.3.22.46l.21.45a.28.28,0,0,0,.3.11h0a4,4,0,0,0,.41-.12,1.85,1.85,0,0,0,.37-.19.61.61,0,0,0,.15-.13L29,12.6l0-.06.15-.24s0,0,0,0h.1a0,0,0,0,1,0,.05.26.26,0,0,1-.05.2.65.65,0,0,1-.23.2s0,0,0,0,0,0,0,0a.71.71,0,0,0,.56-.39l0,.06.05,0,.09,0s.07,0,.07,0,0,0-.06.05a.75.75,0,0,0-.35.13.55.55,0,0,0-.12.15s0,0,0,0a.7.7,0,0,0,.26,0,.49.49,0,0,0,.22-.08l.09-.07a.3.3,0,0,0,.06-.11v-.12a.21.21,0,0,1,0-.11s0-.08,0-.1a.31.31,0,0,0-.09-.07.34.34,0,0,0-.22,0,.25.25,0,0,0-.06-.13.41.41,0,0,0-.12-.09l-.14,0A.89.89,0,0,0,29,12a.53.53,0,0,0-.25.15l-.2.24-.05.06,0,0-.1.08a1.46,1.46,0,0,1-.25.13l-.1,0a4.52,4.52,0,0,0-.56-.7c-.27-.27-.5-.55-.81-.83l-.13-.1-.2-.09-.17,0-.25,0a2.57,2.57,0,0,0-.4.06l-.35.12a.05.05,0,0,1,0,0,1.59,1.59,0,0,0,.15-.29,4,4,0,0,0,.15-.45,2.72,2.72,0,0,0,.06-.75l.17,0a2.46,2.46,0,0,0,.55-.14.8.8,0,0,0,.25-.11.32.32,0,0,0,.17-.19A.18.18,0,0,0,26.51,9l-.14-.07-.06,0,.18,0a5.22,5.22,0,0,0,1.25-.48A2.39,2.39,0,0,0,29,7.59c.56-1,.77-2.74-.27-3.7a5.51,5.51,0,0,0-3.88-1.23c-1.3,0-3.42,1.67-3.42,1.67l0,0a.54.54,0,0,0-.37,0,.88.88,0,0,0-.31.13,1.24,1.24,0,0,0-.23.17l-.08.08a.35.35,0,0,0-.21-.18l0,0a.42.42,0,0,0,.13-.23.66.66,0,0,0-.1-.49A1.24,1.24,0,0,0,20,3.58l-.13-.09a.64.64,0,0,0-.19-.08.84.84,0,0,0-.38,0,.9.9,0,0,0-.27.06,1.3,1.3,0,0,0-.36.18l-.13,0h-.19l-.18.06A.48.48,0,0,0,18,4V4a.65.65,0,0,0-.28,0,.36.36,0,0,0-.21.12.23.23,0,0,0-.07.21.09.09,0,0,0,0,0,.62.62,0,0,0-.34.13c-.11.09-.15.22-.09.3a.41.41,0,0,0,.1.09,18.1,18.1,0,0,0-2,1.25c-.64.44-1.24.91-1.85,1.38-1.21.93-2.36,1.89-3.59,2.79A15,15,0,0,1,7.7,11.61a17.21,17.21,0,0,1-2.36.84c-.83.24-1.68.45-2.52.69a9.93,9.93,0,0,0-1.27.42l-.14.07a.63.63,0,0,0-.2.13s-.05.08-.07.12,0,.12,0,.15a.31.31,0,0,0,.1.1.53.53,0,0,0,.1.06,2.91,2.91,0,0,0,.7.21c.9.18,1.79.27,2.65.44a5.45,5.45,0,0,1,.61.14l.14,0,.12.06c.08,0,.2.1.3.13a5.21,5.21,0,0,0,1.35.32,21,21,0,0,0,2.74.13,5.15,5.15,0,0,1,1.28.09c.17.05.22.17.29.33a1.31,1.31,0,0,0,.36.43,3.16,3.16,0,0,0,1.16.53,6.26,6.26,0,0,0,1.37.16,11.65,11.65,0,0,0,2.71-.27,9.42,9.42,0,0,1,2.62-.37c.9,0,1.81-.06,2.71-.06a.18.18,0,0,0,.13,0,.09.09,0,0,0,0-.16Z"/><path class="cls-4" d="M16.25,13.29H16.2a.28.28,0,0,1,0,.08.36.36,0,0,1-.06.22.74.74,0,0,1-.26.28,2.1,2.1,0,0,1-.52.25,4.38,4.38,0,0,1-.72.21l-.42.09-.44.07q-.45.08-1,.12l-1,.11-.51,0H10.8a7.53,7.53,0,0,1-1-.11l-.89-.18-.79-.14c-1-.17-1.66-.31-1.66-.31l0,0a3.76,3.76,0,0,0,.4.2A7.46,7.46,0,0,0,8,14.61c.25.05.53.11.82.15a9.49,9.49,0,0,0,.95.06l1,0,1,.06c.35,0,.7,0,1.05,0s.68,0,1-.07a8.3,8.3,0,0,0,.94-.17,4.83,4.83,0,0,0,.79-.29,1.17,1.17,0,0,0,.73-.77.38.38,0,0,0,0-.26.21.21,0,0,0-.06-.08"/><path class="cls-5" d="M19.5,12.13l-1.1-.23s.1,1.19.35,1.26.53-.23.53-.23Z"/><path class="cls-4" d="M28,3.37a1,1,0,0,1,1.31-.17c.82.47.67,1.88.67,1.88a1.41,1.41,0,0,0-1.4-.35c-.78.3-1-.68-.58-1.36"/></svg>