<svg id="Capa_1" data-name="Capa 1" xmlns="http://www.w3.org/2000/svg" viewBox="0 0 32.34 28.81"><defs><style>.cls-1{fill:#b0d240;}.cls-2{fill:#f5a4c7;}.cls-3{fill:#fbc9b7;}.cls-4{fill:#231f20;}</style></defs><title>1-10meses</title><polygon class="cls-1" points="6.87 15.5 15.27 16.76 21 15.43 21 16.59 14.68 17.82 7.03 16.25 6.87 15.5"/><polygon class="cls-1" points="8.76 16.18 8.66 25.27 10.2 25.59 10.2 16.53 8.76 16.18"/><polygon class="cls-1" points="11.13 16.53 11.13 25.94 12.66 26.27 12.53 16.53 11.13 16.53"/><polygon class="cls-1" points="13.52 16.76 13.52 19.07 13.52 26.42 14.61 26.68 15.47 26.27 15.47 17.1 13.52 16.76"/><polygon class="cls-1" points="16.59 16.93 16.59 26.09 17.97 25.72 17.97 16.44 16.59 16.93"/><polygon class="cls-1" points="19.09 16.29 18.79 18.94 19.02 25.54 20.47 24.98 20.34 16.29 19.09 16.29"/><polygon class="cls-1" points="5.59 24.49 14.36 26.09 20.78 24.49 20.78 25.72 14.5 27.6 6.1 25.43 5.59 24.49"/><path class="cls-2" d="M3.62,16.76s-2.17,1.31-2.3,1.84-.3,1.33.19,1.74a17.86,17.86,0,0,0,1.83,1.18L5,21.71l2.43-1.08A4.3,4.3,0,0,0,7,18.45c-.49-.64-3.37-1.69-3.37-1.69"/><path class="cls-3" d="M2.39,17.48s.87-1.76,1-1.82.39-2,.79-2.44,1.32-.88,1.27-1-.32-.68-.35-.76A40.61,40.61,0,0,1,9,9c.44-.19.91-.05.94.06a1.3,1.3,0,0,1,.05.42c0,.1-.35.46-.17.8a2.32,2.32,0,0,1,.25.77c0,.15-.09,1.16-.47,1.39a2.41,2.41,0,0,1-1.28.31,2.86,2.86,0,0,1-.75-.09s.13.4.45.48,1.14.49,1.25,1a7.51,7.51,0,0,0,.43,1.28,4.15,4.15,0,0,1,1.49.48c.33.31.45.44.45.44l.11,0s1.12-.35,1.37-.22a2.23,2.23,0,0,1,.39.22s-1.06.54-1.2.67a1.87,1.87,0,0,1-1.43.25c-.41-.23-1.44-.58-1.69-.7S8,15.91,8,15.91a6.35,6.35,0,0,0,.09,1.22,2.14,2.14,0,0,1-.34,1.31,2.42,2.42,0,0,1-.52.5A8.25,8.25,0,0,0,5,17.75a13.91,13.91,0,0,0-2.59-.27"/><path class="cls-3" d="M4.85,19.92A7.65,7.65,0,0,1,4,21.24a12,12,0,0,1-1.48-.35A1.75,1.75,0,0,0,2,20.75s.1,0,.17.34.55,1.46.55,1.46-.94.9-.92,1.25A10.37,10.37,0,0,0,2,25a1.33,1.33,0,0,1-.05.84c-.12.21-.17.47,0,.57a2.53,2.53,0,0,0,1.48-.07,4.53,4.53,0,0,1,.7-.52c.14-.05.56-.27.38-.37s-.68-.15-.71-.29A3.18,3.18,0,0,1,4.08,24c.16-.26.39-.67.39-.67l.1-.92s.29.06.32.28a1.09,1.09,0,0,1-.15.62c-.08.1-.48,1.59-.28,1.9s.43.22.43.55-.13,1.41,0,1.51a19.89,19.89,0,0,0,2.89,0,.84.84,0,0,0,.4-.12,1.76,1.76,0,0,0,0-.23s.19,0,.17-.11a.53.53,0,0,0-.09-.19,1.75,1.75,0,0,0,.09-.36c0-.15-.08-.17-.08-.17s-.22.18-.79,0a5.45,5.45,0,0,1-1-.35s.25-1.29.29-1.37a10.42,10.42,0,0,0,.78-2c0-.38-.37-1.86-.37-2s-.24-1.26-.82-1.25a1.7,1.7,0,0,0-1.47.74"/><path class="cls-4" d="M10.34,25.6h0v-.06c.05-.72.07-1.43.08-2.15s0-1.44,0-2.16,0-1.43-.07-2.15-.09-1.28-.15-1.92l.57.14.26.07c-.08.69-.12,1.38-.16,2.07s-.05,1.43,0,2.15.08,1.43.12,2.15,0,1.32,0,2l-.16,0ZM9,16.72H9l.26.13a4.72,4.72,0,0,0,.53.18l.39.11c-.07.65-.11,1.29-.15,1.94s-.07,1.44-.08,2.15,0,1.44,0,2.16,0,1.33.07,2l-1.1-.22c0-.34,0-.69,0-1s0-.72,0-1.09c0-.72.1-1.45.13-2.18s0-1.45,0-2.17-.07-1.38-.15-2.07ZM8.4,11.66Zm-.12,4.16h0a5.81,5.81,0,0,1-.73-.55c-.11-.1-.22-.19-.32-.3S7,14.76,7,14.65h0a3.69,3.69,0,0,0,1,1.29.07.07,0,0,1,0,.05c0,.07,0,.14,0,.21s0,.28,0,.42a5.7,5.7,0,0,1,0,.82,1.61,1.61,0,0,1-.26.78,1.83,1.83,0,0,1-.26.36l-.24.22a2.27,2.27,0,0,0-.32-.3,3.11,3.11,0,0,0-.52-.34,4.62,4.62,0,0,0-.59-.29l-.64-.23-.33-.09-.33-.08c-.23-.05-.47-.09-.71-.12a4.49,4.49,0,0,0-.74,0l-.33,0,.19-.3c.12-.19.28-.38.39-.59a5,5,0,0,0,.48-1.24c.06-.21.1-.43.14-.64s0-.44.07-.63a1.89,1.89,0,0,1,.69-1.1,5.37,5.37,0,0,1,.63-.45h0l0,.1,0-.14a.28.28,0,0,0,.1-.09.2.2,0,0,0,0-.21.57.57,0,0,0-.08-.13l0-.15.2.5.29-.5.1.5.37-.58,0,.45.28-.37,0,.42.43-.74,0,.74.14-.52.27.41s.08-1,.13-1.28.81-.91.87-.55c0,0,0,0-.06,0a.35.35,0,0,0-.29,0,.65.65,0,0,0-.27.24.84.84,0,0,0-.08.31c0,.1,0,.2,0,.31a1.82,1.82,0,0,0,0,.33.49.49,0,0,0,.21.35.66.66,0,0,0,.29.09h.12a.62.62,0,0,0,.18,0,.27.27,0,0,0,.13-.05s.07-.09.06-.11a.18.18,0,0,0-.05-.13.36.36,0,0,0-.11-.13.81.81,0,0,1-.14-.19s0-.14,0-.2,0-.12-.05-.17l-.05-.15h0a1.26,1.26,0,0,0-.06.15.71.71,0,0,0,0,.17.68.68,0,0,0,0,.23.56.56,0,0,0,.14.29l.05.06h0a.27.27,0,0,1-.13,0,.62.62,0,0,1-.22-.21.55.55,0,0,1,0-.59,1.37,1.37,0,0,1,.18-.24.88.88,0,0,1,.16-.17l0,0,0,0a.51.51,0,0,1,.09.13.73.73,0,0,1,.07.14h0a.41.41,0,0,0,0-.09A1.67,1.67,0,0,0,9.2,11,.5.5,0,0,1,9,10.66c-.08-.42.48-1.33.48-1.33l-.25.92.64-.93c0,.1-.06.2-.1.31a1,1,0,0,0-.09.67l.09.17.1.14a.88.88,0,0,1,.12.28,1.35,1.35,0,0,1,0,.6,2,2,0,0,1-.23.59,1.79,1.79,0,0,1-.2.28.86.86,0,0,1-.31.19,3.8,3.8,0,0,1-1.62.09.84.84,0,0,1-.07-.35h0a.64.64,0,0,0,0,.36h0s0,.07,0,.11a.51.51,0,0,0,.17.23,1,1,0,0,0,.32.16,1.18,1.18,0,0,1,.25.1,1.1,1.1,0,0,1,.21.14,1.74,1.74,0,0,1,.31.36,5.38,5.38,0,0,1,.4.84c.11.29.23.59.35.88l0,.1H9.7a2.88,2.88,0,0,1,.58,0,2,2,0,0,1,.55.15,2.6,2.6,0,0,1,.45.28,1.51,1.51,0,0,1,.37.34l0,0,.07,0a3.32,3.32,0,0,1,1.07-.24H13l.13,0a2,2,0,0,1,.22.09,1.18,1.18,0,0,1,.19.11,5.84,5.84,0,0,0-.82.22,1.91,1.91,0,0,0-.28.15l-.18.12a1.5,1.5,0,0,1-.38.19.76.76,0,0,1-.36,0L11,17l-1-.25-.47-.15a1.44,1.44,0,0,1-.38-.21C8.81,16.16,8.54,16,8.28,15.82Zm-1,5.76h0a4.3,4.3,0,0,1,0,.88,3,3,0,0,1-.08.43,1.52,1.52,0,0,1-.16.4c-.14.29-.28.58-.39.87a5.54,5.54,0,0,0-.26.88,3.41,3.41,0,0,0,0,.46,1,1,0,0,0,0,.24.38.38,0,0,0,0,.13s0,0,0,.07a.34.34,0,0,0,.11.07,3.94,3.94,0,0,0,.65.13,6.17,6.17,0,0,1,.62.11,1.09,1.09,0,0,0,.37,0l.14,0s0,0,0,0a.34.34,0,0,1-.14.34L8,26.63l.13.05a.23.23,0,0,1,.13.07s0,0,0,.06l-.09.06-.08-.13L8,26.87a.08.08,0,0,0,0,.05s0,0,0,.1h0a.43.43,0,0,1,0,0l-.26,0a0,0,0,0,0,0,0c0,.06-.15.11-.33.09a5.28,5.28,0,0,0-.67-.05l-.17,0-.13,0-.3,0-.59,0a2.6,2.6,0,0,1-.49-.06s0,0,0,0h0l0-.05a1,1,0,0,1,0-.17c0-.27.07-.56.09-.85a1.79,1.79,0,0,0,0-.46A.57.57,0,0,0,5,25.32a.79.79,0,0,1-.13-.14,1.59,1.59,0,0,1-.22-.76,1.23,1.23,0,0,1,0-.39c0-.11.12-.27.16-.41a3.36,3.36,0,0,0,.18-.88v0c-.34-.47-.68-1-1-1.41,0,0,0,0,0,0A6,6,0,0,1,5,20a2.52,2.52,0,0,1,.3-.27,2.62,2.62,0,0,1,.34-.24l.18-.09.18,0h.25c.15.24.3.48.43.72a3.73,3.73,0,0,1,.2.4,1.71,1.71,0,0,1,.07.21l0,.05,0,.05a.26.26,0,0,0,.13.06H7.2C7.22,21.1,7.24,21.34,7.24,21.58Zm.87,5.33Zm0,.19Zm0,0h0v0s0,0,0,0Zm-3.47-4h0a2.2,2.2,0,0,0,0-.49v0l.06.12C4.67,22.88,4.64,23,4.6,23.15Zm-.53,2Zm.21,0H4.16A.28.28,0,0,0,4,25.05a.51.51,0,0,0-.2,0v0a.32.32,0,0,1,0-.09c.09-.22.22-.46.33-.69l0,.19a2,2,0,0,0,.13.72ZM4,25.67H4a.47.47,0,0,0-.09.06.23.23,0,0,0,0,.05c-.05.06-.06.09-.09.13a.82.82,0,0,1-.19.18,2.4,2.4,0,0,1-.66.24,1.79,1.79,0,0,1-.72.09c-.23,0-.36-.15-.27-.33a1.91,1.91,0,0,0,.19-.57A5.63,5.63,0,0,0,2,24.41a1.68,1.68,0,0,1,.26-.95,3,3,0,0,1,.28-.39c.11-.11.31-.29.32-.47a1.39,1.39,0,0,0-.27-.82,5.81,5.81,0,0,1-.28-.56,2.76,2.76,0,0,1-.15-.34l.1,0c.29.1.56.16.84.24l.42.11.23,0H4c.17.35.35.69.53,1a1.38,1.38,0,0,1,0,.31,2.24,2.24,0,0,1-.19.57c-.11.22-.24.46-.4.72a7.06,7.06,0,0,0-.52.88.66.66,0,0,0,0,.15.59.59,0,0,0,0,.14.32.32,0,0,0,0,.12.22.22,0,0,0,.13.12.62.62,0,0,0,.18,0h.15l.07.07a.47.47,0,0,0,.31.06h.11a.27.27,0,0,1,0,.09v0H4.18A.77.77,0,0,0,4,25.67ZM1.83,20.36h0a1.7,1.7,0,0,1-.31-.51,1.56,1.56,0,0,1-.12-.56,2.62,2.62,0,0,1,0-.28,1.2,1.2,0,0,1,.08-.27l0-.08,0-.06.08-.13.19-.27a3.65,3.65,0,0,1,.26-.32l0,.09.46-.27.24-.08.3,0a3.5,3.5,0,0,1,.65,0,5,5,0,0,1,.66.11l.32.07.32.08c.21.07.41.13.61.21l.56.25c.18.1.34.2.5.31a2.28,2.28,0,0,1,.39.36l.09.12h0a1.64,1.64,0,0,1,.09.58c0,.12,0,.23,0,.35l0-.09a5.9,5.9,0,0,0-.5-.83L6.62,19H6.54L6.19,19a1.86,1.86,0,0,0-.34,0,2.64,2.64,0,0,0-.3.1l-.24.12a2.3,2.3,0,0,0-.37.3,4.11,4.11,0,0,0-.29.31,5.13,5.13,0,0,0-.44.67c-.13.23-.24.46-.35.69H3.77l-.21,0-.41-.11a5.22,5.22,0,0,1-.76-.29,1.61,1.61,0,0,1-.31-.19A1.31,1.31,0,0,1,1.83,20.36Zm10.67-3h0c-.08.72-.12,1.44-.16,2.16s-.07,1.49-.08,2.24,0,1.5,0,2.24,0,1.34.07,2l-1.18-.24c0-.68,0-1.35,0-2s.11-1.43.13-2.15,0-1.44,0-2.15-.07-1.37-.15-2.05l.2.05a1.43,1.43,0,0,0,.72-.06,1.21,1.21,0,0,0,.2-.09Zm.12,0h0l.66.19.33.08c-.09.73-.12,1.47-.16,2.2s0,1.48,0,2.22.09,1.48.12,2.22,0,1.3,0,1.95l-.84-.18c0-.7.06-1.39.08-2.08s0-1.49,0-2.24,0-1.5-.07-2.24-.09-1.43-.16-2.14Zm2.05.54h.08l.73-.13c-.07.67-.11,1.33-.15,2s-.07,1.43-.08,2.15,0,1.43,0,2.15,0,1.38.07,2.07l-.77.32c-.27-.07-.54-.12-.81-.18,0-.67,0-1.34,0-2s.1-1.48.12-2.22,0-1.48,0-2.22-.07-1.46-.16-2.19l.95.25Zm1.74-.31h0l.18,0c-.08.67-.12,1.35-.15,2s-.05,1.42,0,2.13.09,1.42.13,2.13,0,1.39,0,2.09l-.81.21q0-1,.06-2.07c0-.72,0-1.43,0-2.15s0-1.43-.07-2.15-.08-1.34-.16-2Zm.32,6.24h0c0-.71.1-1.42.12-2.13s0-1.42,0-2.13-.08-1.36-.16-2l1.2-.25c-.07.69-.12,1.37-.16,2.05s-.07,1.41-.07,2.11,0,1.41,0,2.11,0,1.35.07,2l-1,.25A19.25,19.25,0,0,1,16.73,23.88Zm2.21-6.77h0c-.09.68-.12,1.36-.16,2s-.05,1.41,0,2.11.09,1.4.13,2.1c0,.35,0,.71,0,1.06s0,.63,0,.95l-.78.19c0-.65.06-1.3.07-1.95s0-1.41,0-2.11,0-1.41-.07-2.11S18,18,17.94,17.33l.11,0Zm.75-.17h0l.57-.16c-.08.66-.12,1.32-.16,2s-.07,1.4-.07,2.1,0,1.4,0,2.1,0,1.35.08,2l-.73.26h0l-.27.07c0-.3,0-.6,0-.89s0-.71,0-1.06c0-.7.1-1.4.12-2.1s0-1.4,0-2.11-.08-1.37-.17-2.06ZM19,25.54l1.35-.39.09,0v-.07l.53-.19-.53.12c0-.68.06-1.35.07-2s0-1.4,0-2.1,0-1.4-.07-2.1-.09-1.32-.16-2l1-.26c-.57.06-1.14.13-1.7.22s-1.12.17-1.67.27-1.11.2-1.66.31-1.06.21-1.59.33l-1.31-.23-.7-.1-.11,0h-.05l-.19,0,.23-.14c.06-.05.14-.1.19-.15l.16-.09a5.15,5.15,0,0,1,1-.3l.2,0c.37.08.75.16,1.13.22h.08c1-.15,1.95-.34,2.91-.56s1.9-.46,2.82-.77a28.3,28.3,0,0,0-3,.45c-1,.19-1.91.41-2.84.67-.36,0-.72,0-1.08,0L14,16.39a2.32,2.32,0,0,0-.49-.28,2.8,2.8,0,0,0-.31-.09H13a.48.48,0,0,0-.17,0,2.78,2.78,0,0,0-.6.11,3.71,3.71,0,0,0-.47.16c-.11-.11-.22-.22-.34-.32a5.33,5.33,0,0,0-.46-.32,2.32,2.32,0,0,0-.59-.22,3.86,3.86,0,0,0-.51-.09,5.08,5.08,0,0,0-.24-.82,4,4,0,0,0-.47-.88,2,2,0,0,0-.41-.41,1.4,1.4,0,0,0-.3-.15A2.24,2.24,0,0,0,8.09,13a.59.59,0,0,1-.4-.24.08.08,0,0,1,0,0,3.93,3.93,0,0,0,1.67,0,1.12,1.12,0,0,0,.39-.21,1.94,1.94,0,0,0,.23-.29,2,2,0,0,0,.28-.62,1.47,1.47,0,0,0,0-.66,1.51,1.51,0,0,0-.13-.33l-.1-.15a.33.33,0,0,1-.07-.13A.72.72,0,0,1,10,9.76l0,0a1.08,1.08,0,0,0-.11-1.39,5.07,5.07,0,0,0-3.31-1A3.29,3.29,0,0,0,3.8,8.73a1.61,1.61,0,0,0-.23,1.88,1.65,1.65,0,0,0,.23.33,2.72,2.72,0,0,0,.63.47l0,0a2.08,2.08,0,0,1,.55.77L5.16,12l.07.24-.12.09a6.11,6.11,0,0,0-.67.46,2.13,2.13,0,0,0-.8,1.18c0,.23-.05.43-.09.63a6.21,6.21,0,0,1-.14.62,5.41,5.41,0,0,1-.49,1.2c-.11.19-.25.37-.38.57a3.38,3.38,0,0,0-.34.62l-.05.13a3.51,3.51,0,0,0-.53.4,3.07,3.07,0,0,0-.26.25l-.11.14-.06.08-.05.07A1.2,1.2,0,0,0,1,19a1.26,1.26,0,0,0-.05.33,1.33,1.33,0,0,0,.12.64,1.09,1.09,0,0,0,.18.31,1.33,1.33,0,0,0,.26.27,1.56,1.56,0,0,0,.34.23.56.56,0,0,0,.17.09,3.73,3.73,0,0,0,.06.42,4.3,4.3,0,0,0,.16.61,1.27,1.27,0,0,1,.17.7c0,.12-.1.18-.26.33a2,2,0,0,0-.33.46,1.55,1.55,0,0,0-.12,1.08A2.49,2.49,0,0,1,2,25.51a1.29,1.29,0,0,1-.21.54.32.32,0,0,0,0,.33.64.64,0,0,0,.4.23,2.57,2.57,0,0,0,.92,0,2.89,2.89,0,0,0,.82-.26.92.92,0,0,0,.32-.26L4.26,26a.49.49,0,0,0,.31-.06l.07-.06a.81.81,0,0,1,0,.22c0,.28-.06.57-.06.87,0,.13,0,.37.31.53a2.17,2.17,0,0,0,.73.09,4.62,4.62,0,0,0,.65-.05l.32,0,.17,0,.13,0c.11,0,.36,0,.58,0a.87.87,0,0,0,.41-.07l.08,0a.38.38,0,0,0,.12,0h0l.05,0,.07,0a.21.21,0,0,0,.07-.22s0,0,0-.06a.54.54,0,0,0,.16-.1.15.15,0,0,0,.06-.1.13.13,0,0,0-.05-.11l-.1-.07a.35.35,0,0,0,.1-.16.42.42,0,0,0,0-.25s-.05-.06-.1-.08l.32.09,1.93.52c1.29.34,2.58.66,3.89,1l.09,0,.09,0c1-.31,2.07-.64,3.09-1,.51-.17,1-.34,1.53-.52s1-.35,1.52-.54l-1.61.4-1.59.43c-1,.27-2,.57-3.05.87-1.27-.31-2.54-.61-3.82-.89l-2-.42c-.66-.13-1.32-.27-2-.39.51.16,1,.31,1.54.45H8.27l-.18,0a.9.9,0,0,1-.27,0c-.2-.06-.43-.1-.63-.14a3.16,3.16,0,0,1-.57-.16.25.25,0,0,1,0-.12,1.49,1.49,0,0,1,0-.21,3.31,3.31,0,0,1,.12-.42c.09-.29.2-.57.31-.85a9,9,0,0,1,.36-.85,1.53,1.53,0,0,0,.14-.46,1.79,1.79,0,0,0,0-.46,4.79,4.79,0,0,0-.3-1.62l.07,0,.07,0,0-.05a1.47,1.47,0,0,0,.06-.14,1.87,1.87,0,0,0,0-.91A1.48,1.48,0,0,0,7.28,19a2.08,2.08,0,0,0,.37-.35,1.7,1.7,0,0,0,.27-.39,1.81,1.81,0,0,0,.22-.83A4.71,4.71,0,0,0,8,16.62a2.71,2.71,0,0,1,0-.41A.67.67,0,0,1,8,16v0H8c.24.2.51.39.75.56h0c-.09.71-.13,1.42-.16,2.13s-.05,1.45,0,2.17.09,1.46.13,2.18c0,.37,0,.73,0,1.09s0,.73,0,1.09v.05h0c-.58-.1-1.15-.21-1.73-.3.61.18,1.24.35,1.87.51l1.89.48c1.26.31,2.53.61,3.81.89l.09,0,.09,0c1.06-.31,2.13-.62,3.18-.95l1-.31h0Z"/><path class="cls-4" d="M9.37,11.05,9.2,11a.25.25,0,0,0,.17.06"/><path class="cls-4" d="M20.57,3.85a1.54,1.54,0,0,1-.49.06,1.06,1.06,0,0,1-1.16-1.17,1.14,1.14,0,0,1,1.22-1.23,1,1,0,0,1,.43.06l-.09.22a1.1,1.1,0,0,0-.34-.05c-.37,0-.8.25-.8,1s.39,1,.81,1a1.12,1.12,0,0,0,.36-.06Z"/><path class="cls-4" d="M21.81,3h0c-.2,0-.68,0-.68.4a.29.29,0,0,0,.31.3.35.35,0,0,0,.36-.26.28.28,0,0,0,0-.09Zm.06.88,0-.18h0a.62.62,0,0,1-.49.21c-.33,0-.59-.19-.59-.48s.5-.62,1.05-.62v0c0-.23-.08-.39-.39-.39a1.07,1.07,0,0,0-.41.09l-.09-.19a1.56,1.56,0,0,1,.58-.11c.5,0,.71.22.71.6v.74a1.54,1.54,0,0,0,0,.38Z"/><path class="cls-4" d="M22.76,2.63c0-.2,0-.3,0-.44h.35l0,.21h0a.71.71,0,0,1,.56-.23.51.51,0,0,1,.51.26h0a.67.67,0,0,1,.25-.2.9.9,0,0,1,.34-.06.54.54,0,0,1,.6.6V3.89H25V2.83c0-.22,0-.44-.35-.44a.38.38,0,0,0-.36.26.68.68,0,0,0,0,.15V3.89h-.39V2.78c0-.19-.05-.39-.34-.39a.38.38,0,0,0-.37.28.61.61,0,0,0,0,.15V3.89h-.38Z"/><path class="cls-4" d="M25.93,3.89h0V2.19h.39v1.7Zm.42-2.14c0,.11-.09.18-.24.18s-.22-.07-.22-.18.1-.17.23-.17S26.35,1.65,26.35,1.75Z"/><path class="cls-4" d="M26.87,2.63c0-.2,0-.3,0-.44h.34l0,.21h0a.71.71,0,0,1,.57-.23.54.54,0,0,1,.6.58V3.89H28V2.8c0-.2-.06-.41-.35-.41a.38.38,0,0,0-.37.28.68.68,0,0,0,0,.15V3.89h-.39Z"/><path class="cls-4" d="M29.86,3h0c-.2,0-.68,0-.68.4a.29.29,0,0,0,.3.3.35.35,0,0,0,.37-.26.28.28,0,0,0,0-.09Zm.06.88,0-.18h0a.62.62,0,0,1-.49.21c-.34,0-.59-.19-.59-.48s.49-.62,1.05-.62v0c0-.23-.08-.39-.39-.39a1,1,0,0,0-.41.09L29,2.28a1.48,1.48,0,0,1,.58-.11c.5,0,.71.22.71.6v.74a1.54,1.54,0,0,0,0,.38Z"/><path class="cls-4" d="M12.9,6.17h0c-.2,0-.68,0-.68.4a.28.28,0,0,0,.3.3.36.36,0,0,0,.37-.26.31.31,0,0,0,0-.09Zm.06.88,0-.18h0a.65.65,0,0,1-.5.21.52.52,0,0,1-.58-.49c0-.42.49-.61,1.05-.61V5.92c0-.23-.08-.38-.39-.38a1,1,0,0,0-.41.08L12,5.44a1.29,1.29,0,0,1,.58-.12c.49,0,.71.23.71.61v.73a1.63,1.63,0,0,0,0,.39Z"/><path class="cls-4" d="M14.23,6.42h0a.34.34,0,0,0,0,.15.36.36,0,0,0,.36.28c.33,0,.43-.31.43-.65s-.12-.65-.44-.65a.41.41,0,0,0-.36.31.62.62,0,0,0,0,.13Zm-.39-.54c0-.26,0-.41,0-.53h.35l0,.22h0a.62.62,0,0,1,.52-.25c.43,0,.72.32.72.88a.77.77,0,0,1-.77.88.49.49,0,0,1-.43-.2h0v.84h-.39Z"/><path class="cls-4" d="M16.17,6.2h0c0,.28.07.66.43.66s.4-.4.4-.66-.06-.66-.41-.66-.42.4-.42.66m1.23,0a.79.79,0,0,1-.82.88.77.77,0,0,1-.8-.88.79.79,0,0,1,.82-.88A.78.78,0,0,1,17.4,6.2Z"/><path class="cls-4" d="M18,5.35l.33,1a3.21,3.21,0,0,1,.1.35h0l.11-.35.29-1h.39l-.4,1.09a2.73,2.73,0,0,1-.62,1.1,1.46,1.46,0,0,1-.44.26l-.15-.23A1.2,1.2,0,0,0,18,7.35a1.35,1.35,0,0,0,.23-.28.16.16,0,0,0,0-.09.13.13,0,0,0,0-.06L17.6,5.35Z"/><path class="cls-4" d="M20.45,6.17h0c-.2,0-.68,0-.68.4a.29.29,0,0,0,.3.3.35.35,0,0,0,.37-.26.31.31,0,0,0,0-.09Zm.06.88h0l0-.18h0a.62.62,0,0,1-.49.21.53.53,0,0,1-.59-.49c0-.42.5-.61,1.05-.61V5.92c0-.23-.08-.38-.39-.38a1,1,0,0,0-.41.08l-.09-.18a1.33,1.33,0,0,1,.58-.12c.5,0,.71.23.71.61v.73a1.63,1.63,0,0,0,0,.39Zm.27-2.39-.54.47H20l.39-.47Z"/><path class="cls-4" d="M21.39,5.79c0-.2,0-.3,0-.44h.35l0,.2h0a.71.71,0,0,1,.57-.23.54.54,0,0,1,.59.59V7.05h-.39V6c0-.2-.06-.4-.34-.4a.38.38,0,0,0-.38.28.66.66,0,0,0,0,.15V7.05h-.4Z"/><path class="cls-4" d="M24.57,6h0a.49.49,0,0,0,0-.12.39.39,0,0,0-.37-.33c-.32,0-.44.32-.44.66s.14.64.42.64a.37.37,0,0,0,.38-.29.36.36,0,0,0,0-.11ZM25,4.62v2c0,.12,0,.31,0,.41h-.34l0-.21h0a.62.62,0,0,1-.52.24c-.42,0-.72-.31-.72-.87s.36-.89.75-.89a.52.52,0,0,1,.45.21h0V4.62Z"/><path class="cls-4" d="M25.79,6.2h0c0,.28.08.66.43.66s.41-.4.41-.66-.07-.66-.42-.66-.42.4-.42.66M27,6.2a.8.8,0,0,1-.83.88.78.78,0,0,1-.8-.88.8.8,0,0,1,.83-.88A.78.78,0,0,1,27,6.2Z"/><path class="cls-4" d="M27.4,6.77a1,1,0,0,0,.4.09c.22,0,.36-.1.36-.25s-.06-.22-.31-.33-.5-.29-.5-.49.3-.47.68-.47a1.27,1.27,0,0,1,.45.09l-.11.2A.81.81,0,0,0,28,5.54c-.21,0-.32.11-.32.21s.06.18.3.3.52.28.52.52-.34.5-.74.5a1.17,1.17,0,0,1-.5-.1Z"/><path class="cls-4" d="M30,6h0c0-.34-.18-.49-.37-.49s-.39.26-.4.49Zm-.78.21c0,.51.3.63.59.63a1.12,1.12,0,0,0,.41-.07l.06.2a1.75,1.75,0,0,1-.54.08.8.8,0,0,1-.9-.85.82.82,0,0,1,.83-.9.68.68,0,0,1,.71.75.76.76,0,0,1,0,.16Z"/><path class="cls-4" d="M13.71,9.18h0c0-.34-.18-.49-.37-.49s-.39.26-.4.49Zm-.78.2c0,.52.3.63.59.63a1.15,1.15,0,0,0,.41-.06l.06.2a1.75,1.75,0,0,1-.54.08.8.8,0,0,1-.9-.86.8.8,0,0,1,.83-.89.68.68,0,0,1,.71.75.66.66,0,0,1,0,.15Z"/><path class="cls-4" d="M14.51,9c0-.2,0-.3,0-.44h.34l0,.2h0a.71.71,0,0,1,.57-.23.54.54,0,0,1,.6.59v1.14h-.39V9.11c0-.2-.06-.4-.35-.4a.37.37,0,0,0-.37.28.66.66,0,0,0,0,.15v1.07h-.4Z"/><rect class="cls-4" x="17.39" y="7.78" width="0.39" height="2.43"/><path class="cls-4" d="M19.29,9.33h0c-.21,0-.68,0-.68.39a.28.28,0,0,0,.3.3.36.36,0,0,0,.37-.25.34.34,0,0,0,0-.1Zm.05.88,0-.18h0a.62.62,0,0,1-.49.2c-.33,0-.59-.19-.59-.48s.5-.61,1.06-.62V9.08c0-.23-.09-.39-.4-.39a1.07,1.07,0,0,0-.41.09l-.09-.19A1.56,1.56,0,0,1,19,8.48c.5,0,.72.22.72.61v.73a2.42,2.42,0,0,0,0,.39Z"/><path class="cls-4" d="M20.16,9.93a1.28,1.28,0,0,0,.4.08c.22,0,.36-.09.36-.24s-.06-.22-.31-.34-.5-.28-.5-.48.3-.47.68-.47a1.27,1.27,0,0,1,.45.09l-.11.2a.81.81,0,0,0-.33-.07c-.22,0-.32.1-.32.21s.06.18.3.3.52.28.52.51-.34.51-.75.51a1.15,1.15,0,0,1-.49-.1Z"/><path class="cls-4" d="M23.72,10.16a1.08,1.08,0,0,1-.41.07.82.82,0,0,1-.91-.86.89.89,0,0,1,1-.89,1.05,1.05,0,0,1,.35.06l-.08.22a.77.77,0,0,0-.28,0c-.4,0-.57.32-.57.66a.56.56,0,0,0,.58.63.92.92,0,0,0,.29,0Z"/><path class="cls-4" d="M24.31,9.36h0c0,.28.07.66.43.66s.4-.4.4-.66-.06-.66-.41-.66-.42.4-.42.66m1.23,0a.79.79,0,0,1-.82.87.77.77,0,0,1-.8-.87.79.79,0,0,1,.82-.88A.78.78,0,0,1,25.54,9.36Z"/><path class="cls-4" d="M25.92,9.93a1.21,1.21,0,0,0,.39.08c.23,0,.37-.09.37-.24s-.07-.22-.32-.34-.5-.28-.5-.48.3-.47.69-.47a1.16,1.16,0,0,1,.44.09l-.11.2a.79.79,0,0,0-.32-.07c-.22,0-.33.1-.33.21s.07.18.31.3.51.28.51.51-.34.51-.74.51a1.15,1.15,0,0,1-.49-.1Z"/><path class="cls-4" d="M28.38,9.33h0c-.2,0-.68,0-.68.39a.29.29,0,0,0,.3.3.34.34,0,0,0,.37-.25.34.34,0,0,0,0-.1Zm.06.88,0-.18h0a.62.62,0,0,1-.49.2c-.34,0-.59-.19-.59-.48s.49-.61,1.05-.62V9.08c0-.23-.08-.39-.39-.39a1,1,0,0,0-.41.09l-.09-.19a1.48,1.48,0,0,1,.58-.11c.5,0,.71.22.71.61v.73a1.63,1.63,0,0,0,0,.39Z"/><path class="cls-4" d="M29.26,9.93a1.22,1.22,0,0,0,.4.08c.22,0,.36-.09.36-.24s-.07-.22-.32-.34-.49-.28-.49-.48.29-.47.68-.47a1.16,1.16,0,0,1,.44.09l-.11.2a.79.79,0,0,0-.32-.07c-.22,0-.33.1-.33.21s.07.18.31.3.51.28.51.51-.33.51-.74.51a1.15,1.15,0,0,1-.49-.1Z"/><path class="cls-4" d="M4.64,8.38s.24-.9-1.16-.77A1.63,1.63,0,0,0,2.09,9.26s2.31.05,2.55-.88"/></svg>