<svg id="Capa_1" data-name="Capa 1" xmlns="http://www.w3.org/2000/svg" viewBox="0 0 27.6 27.27"><defs><style>.cls-1{fill:#fc5;}.cls-2{fill:#b3d335;}.cls-3{fill:#f5a4c7;}.cls-4{fill:#fbc9b7;}.cls-5{fill:#231f20;}</style></defs><title>3-10meses</title><polygon class="cls-1" points="13.59 18.04 17.58 18.59 20.57 16.39 16.66 16.09 17.9 13.5 17.31 12.81 12.74 13.11 12.8 13.63 10.66 16.95 13.59 18.04"/><polygon class="cls-2" points="10.32 18.23 10.99 19.5 14.57 22.68 14.97 22.95 21.82 24.43 24.62 22.54 19.27 17.67 17.58 18.45 13.82 17.97 10.32 18.23"/><path class="cls-3" d="M8.34,23.2a1.06,1.06,0,0,0-.68-1.54,10,10,0,0,0-3.42-.58,26.47,26.47,0,0,0-2.92,1.08V23.5s0,2.07.66,2.36a10.9,10.9,0,0,0,2.63.32Z"/><path class="cls-4" d="M1.65,22.18a18.5,18.5,0,0,1,1.66-3.09c.67-.8,3-2.27,2.62-2.83s-1-1.08-.68-1.65a19.56,19.56,0,0,1,4.15-3c.24,0,2.32.43,2.35,1.24s.14.73-.15,1.2-.54.71-.2,1,.35.33.35.33-.38.31-.28.52a1.27,1.27,0,0,1,0,.67s3.37-.3,3.64-.22a.63.63,0,0,1,.37.37s-2,1.31-2.25,1.4-3.44,1.1-3.6,1.26a2.05,2.05,0,0,1-.52.31s.64,1.27.48,1.66-.39,1.14-.39,1.14a11.88,11.88,0,0,1,3,.16l1.22.73s.8-.32.85-.51.39-.65.63-.54.28.14.24.36-.07.29.05.45a1.14,1.14,0,0,1,.14.49L16.45,23a.26.26,0,0,1,.37-.12.78.78,0,0,1,.38.28s.22-.07.19.08l0,.16s.28.11.21.19,0,.2-.1.3-.18.11-.14.26a.72.72,0,0,1,.05.27,3.71,3.71,0,0,1-1.51,1.23c-.9.4-1.12.6-1.54.38a2.74,2.74,0,0,0-.86-.4,8.15,8.15,0,0,1-2,.05,1.71,1.71,0,0,1-.7-.35,8.94,8.94,0,0,1-3.4,1,17.79,17.79,0,0,1-3.48-.29c-.43-.14-1.37-1.13-1-1.63a2.6,2.6,0,0,1,1.69-1.3,16.16,16.16,0,0,1,1.71-.19l.36-.16.92-.12L5.4,22.42c-1.09-.11-3.75-.24-3.75-.24"/><polygon class="cls-5" points="12.16 13.83 12.14 13.75 12.13 13.76 12.16 13.83"/><path class="cls-5" d="M11.24,14.16s.09-.35-.4-.32a5.33,5.33,0,0,0-1.44.51,7.46,7.46,0,0,0,1-.32.68.68,0,0,1,.8.13"/><path class="cls-5" d="M10.6,14.49a2.85,2.85,0,0,0-.77.21l.46-.08s-.18.2.08.23a.31.31,0,0,0,.32-.25s.1,0,.12,0,.08-.17-.21-.15"/><path class="cls-5" d="M12.16,18.29h0c-.48.18-1,.36-1.44.51l-.37.11L10,19a4.46,4.46,0,0,0-.69.35,1.74,1.74,0,0,0-.53.47.82.82,0,0,0-.14.28.7.7,0,0,0,0,.29h0s0,0,0,0a1.22,1.22,0,0,1,.09-.27,1.37,1.37,0,0,1,.19-.23,2.11,2.11,0,0,1,.23-.19c0,.08,0,.2,0,.34l0,.45a4.52,4.52,0,0,1,0,.52,7.38,7.38,0,0,1,0,1c0,.14,0,.25,0,.33v0l-.64.08-1.12.18,0,0a3.58,3.58,0,0,0-.45-.09L6,22.36c-.6-.1-1.2-.19-1.81-.25A14.34,14.34,0,0,0,2.31,22l-.55,0A8.1,8.1,0,0,1,2.28,21c.23-.41.48-.81.75-1.21A10.64,10.64,0,0,1,5,17.53c.2-.16.41-.33.62-.48l.18-.12c.05-.06.12-.11.16-.17a.74.74,0,0,0,.18-.38A.71.71,0,0,0,6,15.89l-.1-.39A.48.48,0,0,1,6.08,15a.57.57,0,0,0,0,.22,1.09,1.09,0,0,0,.33.47,2.07,2.07,0,0,0,.24.17A1,1,0,0,0,7,16a1.14,1.14,0,0,0,.46.05l.16,0v0H7.41a.94.94,0,0,1-.36-.09,1,1,0,0,1-.53-.7.38.38,0,0,1,0-.19l0,0s0,0,0,0h0c.39,0,.49.1.94.4L7.42,15h0v0l.37.25s-.4-.39-.36-.75a1,1,0,0,0,.24-.55s0-.18,0,.26l-.1.55.5-.58-.1.49.48-.49.72-.87,0,.71.57-.93-.17,1,.39-.58.78-1-.21.86.43-.66,0,1.08.69-1.1a2.56,2.56,0,0,1,.11.24,1.09,1.09,0,0,1,0,.62,2.56,2.56,0,0,1-.32.61,3.07,3.07,0,0,0-.17.31.41.41,0,0,0-.06.36,1.28,1.28,0,0,0,.29.28.39.39,0,0,1,.16.19l-.1.13-.23.12s-.08,0-.1.11a.29.29,0,0,0,.06.1.25.25,0,0,1,.06.13.06.06,0,0,1-.05.08l-.09,0h-.1a2.22,2.22,0,0,1-.45-.05h0c-.05,0-.08,0-.06.08a.68.68,0,0,0,.14.22.43.43,0,0,0,.32.13c.06,0,.1.05.07.06l-.09,0h0l-.06,0a.36.36,0,0,0,0,.09c0,.1,0,.15,0,.2s-.07.09-.16.12a1.7,1.7,0,0,1-.28.06l-.3,0c-.41,0-.83,0-1.25,0l-.31,0L8.2,17H8.07a.29.29,0,0,0-.13,0,.24.24,0,0,0-.11.15.46.46,0,0,0,0,.26h0a.15.15,0,0,0,.11.08l-.41.1a2.07,2.07,0,0,0-.84.46.68.68,0,0,0-.18.7s0,0,0,0a0,0,0,0,0,0,0,.74.74,0,0,1,.33-.59,1.86,1.86,0,0,1,.77-.33l.47-.08.49-.07,1-.13c.33-.05.66-.09,1-.17a1.32,1.32,0,0,0,.5-.22c.13-.11.19-.2.29-.28a1.6,1.6,0,0,1,.78-.34,6.12,6.12,0,0,1,1-.12h0a6.22,6.22,0,0,1,1.22,0l.3,0,.27.06.23.1.07.05c-.56.35-1.11.7-1.65,1.06ZM10.88,22.5h.27l.27,0a2.32,2.32,0,0,1,.47.15,6.06,6.06,0,0,1,.86.48l.84.57a4.17,4.17,0,0,0,1,.5h0a.2.2,0,0,0,.2,0c.19-.17.38-.35.59-.51a3.92,3.92,0,0,1,.67-.45l.2-.07a.67.67,0,0,0,.23-.1.7.7,0,0,0,.15-.15s0,0,.11,0l.2.07c.06,0,.1.06.11.09a.1.1,0,0,1-.05.1l-.19.11a0,0,0,0,0,0,.07s.07,0,.11,0h0l.05,0,.07-.05.12-.05.11,0h0v0a0,0,0,0,1,0,0,.08.08,0,0,1,0,0l-.09.06a.2.2,0,0,1-.08,0l-.18.07s-.06.05,0,.08a.1.1,0,0,0,.12,0h0l.27-.08h.13v0s0,0,0,0a.13.13,0,0,1-.06.07l0,0-.11,0a.25.25,0,0,0-.1.08h0a.07.07,0,0,0,0,.1.19.19,0,0,0,.18,0l.12-.07h0s0,0-.07.05l-.17.07a.13.13,0,0,0-.07.06c0,.05,0,.12.08.14h0l0,0-.13.21a2.87,2.87,0,0,1-.31.4l-.09.08-.09.08-.23.16c-.16.1-.33.19-.51.28s-.36.17-.54.25l-.29.12-.27.1-.11,0h-.1a.73.73,0,0,1-.2,0,.75.75,0,0,1-.18-.13,1.06,1.06,0,0,1-.15-.15.28.28,0,0,0-.26-.11h0a12.35,12.35,0,0,1-1.49,0,5.09,5.09,0,0,1-.71-.09,1.27,1.27,0,0,1-.31-.08l-.12-.05-.08-.06,0,0a.34.34,0,0,0-.36,0,6.54,6.54,0,0,1-.65.35l-.73.29L8.49,26c-.26.06-.54.1-.82.14a2.84,2.84,0,0,1-.42.05l-.42,0a8.22,8.22,0,0,1-.86,0l-.43,0-.43,0-.11,0-.07,0h0a3.43,3.43,0,0,1-1.64-.82A.62.62,0,0,1,3.12,25a.55.55,0,0,1,0-.3A2.52,2.52,0,0,1,3.53,24a2.05,2.05,0,0,1,.6-.57A2.64,2.64,0,0,1,5,23.09,6.25,6.25,0,0,1,6.1,23l.56-.05a5.48,5.48,0,0,0,.57,0,.64.64,0,0,0,.19-.08l1.14-.12C9.34,22.58,10.12,22.51,10.88,22.5Zm3.32.58h0l.16-.09a.2.2,0,0,0,.07-.06.3.3,0,0,0,.08-.07.29.29,0,0,0,.07-.18v-.14a.21.21,0,0,1,0-.12.13.13,0,0,1,.1,0,.39.39,0,0,1,.13.05.13.13,0,0,1,.07.05s0,0,0,0,0,.09-.06.15a1.49,1.49,0,0,1-.18.17l.14.29,0,0h0l.07,0a.36.36,0,0,1,.1.14.72.72,0,0,1,0,.22v.08l-.47.35a3.51,3.51,0,0,1-.75-.44l-.34-.25A2.68,2.68,0,0,0,14.2,23.08Zm3.21.77Zm0,0Zm-.15.37ZM7.31,22.78h0l-.1,0a4.93,4.93,0,0,1-.55,0h0Zm-5,3h0a1.45,1.45,0,0,1-.55-.45,2.55,2.55,0,0,1-.33-1.21,10.6,10.6,0,0,1,0-1.26l0-.31c0-.13,0-.15.11-.19a2.46,2.46,0,0,1,.8-.06c.59,0,1.2.09,1.81.13s1.22.07,1.83.11l.92.07.42.06-1,.2H6.1a7.41,7.41,0,0,0-1.15,0,5.78,5.78,0,0,0-.57.12,2.44,2.44,0,0,0-.53.21,2.23,2.23,0,0,0-.44.29,2.73,2.73,0,0,0-.34.34,4.11,4.11,0,0,0-.43.75.89.89,0,0,0-.06.46,1,1,0,0,0,.22.43,2.21,2.21,0,0,0,.77.53L3.05,26A2.71,2.71,0,0,1,2.27,25.76Zm10-11h0c.23-.32.48-.63.73-.94.79,0,1.59.06,2.38.07s1.41,0,2.11,0c-.14.32-.29.64-.42,1A11.54,11.54,0,0,0,16.63,16h-.08c-.82-.12-1.64-.21-2.47-.28l-1.29-.09-1.08,0A8.16,8.16,0,0,1,12.27,14.71Zm3.35,2h0l.31-.2-.3.23A0,0,0,0,0,15.62,16.68Zm-7.48.77h0a.28.28,0,0,1,0-.18.06.06,0,0,1,0-.05h0l.32,0h.05l.78.09-.82.13-.4.07A.07.07,0,0,0,8.14,17.45Zm2.51-.35h0l.11,0,.06,0A.3.3,0,0,1,10.65,17.1Zm6.82,1.23h0l-3.36-.45.84-.61h0a0,0,0,0,0,0,0l1.67-1.19c1.17.14,2.35.26,3.52.38Zm7.16,4.1-5.32-4.75h0a0,0,0,0,0,0,0l5.1,4.77L22,24.2l-7.48-5.91,3,.4h0a.31.31,0,0,0,.23-.05c1-.72,2-1.45,3-2.17h0a.16.16,0,0,0,.06-.08c0-.07-.07-.14-.18-.14-1.31-.1-2.61-.19-3.92-.27.25-.36.48-.72.71-1.08s.46-.77.68-1.16a.08.08,0,0,0,0-.05c0-.09-.09-.16-.21-.18a6.23,6.23,0,0,0-.32-.63.13.13,0,0,0-.11,0h0a24,24,0,0,0-2.68,0c-.44,0-.89.07-1.33.13l-.33,0a1.71,1.71,0,0,0-.36.1.19.19,0,0,0-.1.27.44.44,0,0,0,.24.18.33.33,0,0,1-.12-.2.11.11,0,0,1,.1-.12.39.39,0,0,1,.14,0h.47l1.32,0c.86,0,1.72-.06,2.58-.14.15.16.31.31.49.47h0c-.82,0-1.65,0-2.47,0s-1.64,0-2.46.08h0a.12.12,0,0,0-.1.05c-.21.35-.43.69-.67,1a5,5,0,0,1-.41.53l-.14-.14a1,1,0,0,1-.26-.25c0-.08,0-.18.07-.28s.12-.2.18-.3a3.2,3.2,0,0,0,.34-.63,1.12,1.12,0,0,0,.05-.36l.18.52a2.11,2.11,0,0,0-1.37-2.28h0a2.2,2.2,0,0,0-.46-.23l-.17-.05a7.39,7.39,0,0,0-3.59-.38C5.41,10.94,3.1,12,3.2,13.89s1.71,1.65,2.31,2.16a.52.52,0,0,1,.09.3.64.64,0,0,1-.11.24l-.1.11-.15.12a5.45,5.45,0,0,0-.63.52,9.17,9.17,0,0,0-1.87,2.33,11.45,11.45,0,0,0-.65,1.25,7.75,7.75,0,0,0-.41,1.14,2,2,0,0,0-.36.1.37.37,0,0,0-.19.18.41.41,0,0,0,0,.18l0,.32.11,1.27q0,.32.06.63a1.78,1.78,0,0,0,.21.64,1.57,1.57,0,0,0,.57.54,2.83,2.83,0,0,0,.89.3c.31.06.6.09.91.13a9.29,9.29,0,0,0,1,.09.22.22,0,0,0,.23-.1.07.07,0,0,0,0-.06c.29,0,.57.1.87.12a6.55,6.55,0,0,0,.89.05,3.38,3.38,0,0,0,.45,0c.14,0,.3,0,.44,0a8.66,8.66,0,0,0,.89-.12c.29-.06.57-.13.85-.21a7.81,7.81,0,0,0,.81-.29,4.43,4.43,0,0,0,.54-.26,1.51,1.51,0,0,0,.18.09l.41.12a5.92,5.92,0,0,0,.82.1,13.43,13.43,0,0,0,1.42,0l.13.12a1.35,1.35,0,0,0,.31.19,1.05,1.05,0,0,0,.44.1,1,1,0,0,0,.24,0,.64.64,0,0,0,.21-.05,2.76,2.76,0,0,0,.32-.12l.3-.13c.19-.09.38-.18.56-.28a4.66,4.66,0,0,0,.53-.32l.25-.18a.57.57,0,0,0,.11-.11l.1-.11a3,3,0,0,0,.3-.43,2.25,2.25,0,0,1,.11-.22.19.19,0,0,0,0-.12.18.18,0,0,0-.07-.1h0c.06-.05.15-.1.16-.21s0-.08,0-.09l0,0,0,0h0l.07-.08s0-.05,0-.08a.25.25,0,0,0,0-.08l0,0c.1,0,.26.12.49.2a12.19,12.19,0,0,0,1.34.41,14,14,0,0,0,1.41.26c.4.05.68.06.68.06a5.59,5.59,0,0,0-.58-.25,12.36,12.36,0,0,0-1.34-.4,13.72,13.72,0,0,0-1.41-.27,5.22,5.22,0,0,0-.63-.05.21.21,0,0,0-.15-.05l0-.07a.17.17,0,0,0,0-.08.14.14,0,0,0-.06-.08.28.28,0,0,0-.13,0H17.2s0,0,0,0a.27.27,0,0,0-.17-.16,1.23,1.23,0,0,0-.23-.09.48.48,0,0,0-.17,0,.3.3,0,0,0-.14.07.71.71,0,0,1-.13.12.61.61,0,0,1-.18.07,1.13,1.13,0,0,0-.24.08,4.53,4.53,0,0,0-.44.23s0,0,0,0A.4.4,0,0,0,15.4,23a.44.44,0,0,0-.15-.12l.06-.11a.31.31,0,0,0,0-.19.28.28,0,0,0-.14-.19l-.12-.06-.1,0a1,1,0,0,0-.25,0,.29.29,0,0,0-.23.09,1.34,1.34,0,0,0-.11.14l-.09.12s-.08.07-.1.07-.06,0-.06,0l-.07,0-.14.08a2.8,2.8,0,0,0-.45.39L13.07,23a5.11,5.11,0,0,0-1-.53,3.38,3.38,0,0,0-.61-.17l-.32,0h-.31a14.17,14.17,0,0,0-1.61.13,1.36,1.36,0,0,0,.21-.28,1.85,1.85,0,0,0,.2-.47,1.93,1.93,0,0,0,0-1.1,1.85,1.85,0,0,0-.2-.47,1.81,1.81,0,0,0-.23-.33l.24-.15a7,7,0,0,1,.69-.26l.36-.1.21-.05a5.15,5.15,0,0,0,.36.46,16.6,16.6,0,0,0,1.2,1.25A17.46,17.46,0,0,0,13.66,22a7.26,7.26,0,0,0,.7.48,7.57,7.57,0,0,0-.47-.6,14.84,14.84,0,0,0-1.2-1.24,15.5,15.5,0,0,0-1.37-1.15c-.21-.16-.39-.29-.52-.37l.1,0c.53-.14,1-.31,1.51-.48s.81-.31,1.2-.47l8.22,6.27h0a.2.2,0,0,0,.21,0l2.57-1.89A.07.07,0,0,0,24.63,22.43Z"/><path class="cls-5" d="M2.52,4h0l.2,0c.41,0,.68-.17.68-.47s-.34-.48-.71-.49H2.52Zm0-1.14H2.7c.32,0,.6-.17.6-.42s-.15-.39-.57-.39l-.21,0Zm-.39-1a3.1,3.1,0,0,1,.57,0A1.44,1.44,0,0,1,3.47,2a.44.44,0,0,1,.22.4c0,.24-.19.44-.53.53h0c.4.08.64.3.64.61A.57.57,0,0,1,3.55,4a1.51,1.51,0,0,1-.91.21l-.51,0Z"/><path class="cls-5" d="M5.67,3.75c0,.19,0,.34,0,.47H5.35l0-.18h0a.78.78,0,0,1-.54.21c-.43,0-.6-.24-.6-.66V2.52h.39v1c0,.27.06.47.34.47a.34.34,0,0,0,.35-.23.61.61,0,0,0,0-.15V2.52h.39Z"/><path class="cls-5" d="M6.11,3.94a1,1,0,0,0,.4.09c.22,0,.36-.1.36-.25s-.07-.22-.32-.33S6.06,3.16,6.06,3s.29-.47.68-.47a1.16,1.16,0,0,1,.44.09l-.11.2a.79.79,0,0,0-.32-.07c-.22,0-.33.1-.33.21s.07.18.31.3.51.28.51.51-.33.51-.74.51A1.15,1.15,0,0,1,6,4.14Z"/><path class="cls-5" d="M8.81,4.18a1.37,1.37,0,0,1-.41.06.82.82,0,0,1-.91-.86.89.89,0,0,1,1-.89,1.05,1.05,0,0,1,.35.06l-.08.22a.77.77,0,0,0-.28,0,.59.59,0,0,0-.57.66A.56.56,0,0,0,8.47,4a.88.88,0,0,0,.29,0Z"/><path class="cls-5" d="M10,3.34h0c-.2,0-.68,0-.68.39a.3.3,0,0,0,.3.31A.35.35,0,0,0,10,3.78a.34.34,0,0,0,0-.1Zm.06.88,0-.18h0a.62.62,0,0,1-.49.21A.53.53,0,0,1,9,3.76c0-.42.49-.61,1-.62V3.09c0-.23-.08-.38-.39-.38a1,1,0,0,0-.41.08L9.13,2.6a1.48,1.48,0,0,1,.58-.11c.5,0,.71.23.71.61v.73a1.63,1.63,0,0,0,0,.39Z"/><path class="cls-5" d="M12.73,3.19h0c0-.34-.18-.49-.37-.49S12,3,12,3.19Zm-.78.2c0,.52.3.64.59.64A1.12,1.12,0,0,0,13,4l.06.2a1.75,1.75,0,0,1-.54.08.79.79,0,0,1-.9-.85.81.81,0,0,1,.83-.9.68.68,0,0,1,.71.75.62.62,0,0,1,0,.15Z"/><rect class="cls-5" x="13.48" y="1.79" width="0.39" height="2.43"/><path class="cls-5" d="M14.74,4.71h0a.65.65,0,0,0,.33-.14c.09-.09.12-.22.12-.54V2.52h.39V4.11c0,.36-.07.52-.25.65a1.12,1.12,0,0,1-.54.16Zm.88-2.63c0,.11-.09.18-.24.18s-.23-.07-.23-.18.1-.17.24-.17S15.62,2,15.62,2.08Z"/><path class="cls-5" d="M17.55,3.75c0,.19,0,.34,0,.47h-.34l0-.18h0a.78.78,0,0,1-.54.21c-.43,0-.6-.24-.6-.66V2.52h.39v1c0,.27.06.47.34.47a.34.34,0,0,0,.35-.23.61.61,0,0,0,0-.15V2.52h.39Z"/><path class="cls-5" d="M19.16,3.11h0a.27.27,0,0,0,0-.13.37.37,0,0,0-.36-.26c-.28,0-.44.27-.44.64s.2.63.44.63a.37.37,0,0,0,.36-.24.39.39,0,0,0,0-.15Zm.41-.59c0,.12,0,.27,0,.53V4c0,.45-.08.61-.25.74a1.1,1.1,0,0,1-.66.18,1.93,1.93,0,0,1-.54-.08l.09-.21a1.59,1.59,0,0,0,.46.07c.32,0,.51-.13.51-.52V4h0a.57.57,0,0,1-.48.2A.74.74,0,0,1,18,3.38a.79.79,0,0,1,.78-.89.53.53,0,0,1,.46.22h0l0-.19Z"/><path class="cls-5" d="M21.53,3.75c0,.19,0,.34,0,.47h-.34l0-.18h0a.73.73,0,0,1-.53.21C20.2,4.25,20,4,20,3.59V2.52h.4v1c0,.27.06.47.33.47a.33.33,0,0,0,.35-.23.33.33,0,0,0,0-.15V2.52h.39Z"/><path class="cls-5" d="M23.09,3.19h0c0-.34-.18-.49-.37-.49s-.39.26-.41.49Zm-.78.2c0,.52.3.64.59.64A1.16,1.16,0,0,0,23.31,4l.06.2a1.77,1.77,0,0,1-.55.08.8.8,0,0,1-.9-.85.82.82,0,0,1,.84-.9.68.68,0,0,1,.7.75v.15Z"/><path class="cls-5" d="M24.32,2.07v.45h.47v.21h-.47v1c0,.22.12.28.26.28h.16v.21a1.07,1.07,0,0,1-.29,0,.69.69,0,0,1-.39-.1.49.49,0,0,1-.15-.43v-1h-.3V2.52h.3V2.15Z"/><path class="cls-5" d="M26.1,3.19h0c0-.34-.18-.49-.37-.49s-.38.26-.4.49Zm-.77.2c0,.52.3.64.58.64A1.08,1.08,0,0,0,26.32,4l.07.2a1.77,1.77,0,0,1-.55.08.8.8,0,0,1-.9-.85.82.82,0,0,1,.84-.9.68.68,0,0,1,.7.75v.15Z"/><path class="cls-5" d="M13.8,6.35h0c0-.34-.18-.49-.37-.49s-.39.26-.4.49Zm-.78.2c0,.52.3.63.59.63A1.43,1.43,0,0,0,14,7.12l.06.2a1.75,1.75,0,0,1-.54.08.8.8,0,0,1-.9-.86.8.8,0,0,1,.83-.89.68.68,0,0,1,.71.75.66.66,0,0,1,0,.15Z"/><path class="cls-5" d="M14.55,6.12c0-.21,0-.31,0-.44h.34l0,.2h0a.71.71,0,0,1,.57-.23.53.53,0,0,1,.6.58V7.38h-.39V6.28c0-.2-.06-.4-.35-.4a.37.37,0,0,0-.37.27.77.77,0,0,0,0,.15V7.38h-.39Z"/><rect class="cls-5" x="17.32" y="4.95" width="0.39" height="2.43"/><path class="cls-5" d="M19.17,6.5h0c-.2,0-.68,0-.68.39a.28.28,0,0,0,.3.3.34.34,0,0,0,.37-.25.38.38,0,0,0,0-.1Zm.06.88,0-.18h0a.62.62,0,0,1-.49.2c-.34,0-.59-.19-.59-.48s.49-.62,1.05-.62v0c0-.23-.08-.39-.39-.39a1,1,0,0,0-.41.09l-.09-.19a1.48,1.48,0,0,1,.58-.11c.5,0,.71.22.71.61V7a1.63,1.63,0,0,0,0,.39Z"/><path class="cls-5" d="M22,7.33a1,1,0,0,1-.41.07.81.81,0,0,1-.9-.86.88.88,0,0,1,1-.89,1.38,1.38,0,0,1,.35,0L22,5.93a.77.77,0,0,0-.28,0,.59.59,0,0,0-.57.66.56.56,0,0,0,.58.63,1.27,1.27,0,0,0,.29,0Z"/><path class="cls-5" d="M23.24,6.5h0c-.2,0-.68,0-.68.39a.29.29,0,0,0,.31.3.34.34,0,0,0,.36-.25.38.38,0,0,0,0-.1Zm.06.88,0-.18h0a.62.62,0,0,1-.49.2c-.34,0-.59-.19-.59-.48s.5-.62,1.05-.62v0c0-.23-.08-.39-.39-.39a1.07,1.07,0,0,0-.41.09l-.09-.19a1.52,1.52,0,0,1,.58-.11c.5,0,.71.22.71.61V7a1.63,1.63,0,0,0,0,.39Z"/><path class="cls-5" d="M23.71,7.86h0a.67.67,0,0,0,.34-.13c.08-.09.11-.22.11-.54V5.68h.4V7.27a.71.71,0,0,1-.25.65,1.24,1.24,0,0,1-.55.16Zm.88-2.62c0,.1-.09.17-.24.17s-.23-.07-.22-.17.1-.18.23-.18S24.59,5.13,24.59,5.24Z"/><path class="cls-5" d="M26,6.5h0c-.21,0-.68,0-.68.39a.28.28,0,0,0,.3.3A.36.36,0,0,0,26,6.94a.38.38,0,0,0,0-.1Zm.05.88,0-.18h0a.62.62,0,0,1-.49.2c-.33,0-.59-.19-.59-.48S25.4,6.3,26,6.3v0c0-.23-.09-.39-.4-.39a1.07,1.07,0,0,0-.41.09l-.08-.19a1.46,1.46,0,0,1,.57-.11c.5,0,.72.22.72.61V7a2.42,2.42,0,0,0,0,.39Z"/><path class="cls-5" d="M4.89,12A1.4,1.4,0,0,0,3,11.29c-1.51.5-1,2.46-1,2.46A16.67,16.67,0,0,0,4.89,12"/></svg>