<svg id="Capa_1" data-name="Capa 1" xmlns="http://www.w3.org/2000/svg" viewBox="0 0 20.4 18.24"><defs><style>.cls-1{fill:#0070a2;}.cls-2{fill:#f5a4c7;}.cls-3{fill:#fbcabb;}.cls-4,.cls-5{fill:#231f20;}.cls-5{fill-rule:evenodd;}</style></defs><title>2-24meses</title><path class="cls-1" d="M7,15a6.89,6.89,0,0,1-2.63-.63c-.83-.54-.81-1.18-1.66-1S.12,14.18.43,15,3,16.67,3.93,17s1.23.59,2,.36S7,15,7,15"/><path class="cls-2" d="M11.93,13a18.88,18.88,0,0,1,4-.88c1.1,0,3.21.63,3.14,1.51s.18,3.12-1.5,3.59-5-.76-5-.76Z"/><path class="cls-3" d="M13.79,13.91l-1.24-.09s.21-.28,1-.28,4.13-.42,4.13-.42l1.18.12a7.13,7.13,0,0,0-1-2.49c-.81-1.26-2.08-2.91-3.06-3.31s-1.59-.63-1.62-1,.07-1.43-.66-1.88A27.16,27.16,0,0,0,7.22,3.21C7,3.26,5.5,4.47,5.6,4.8A2.88,2.88,0,0,0,6.75,6c.39.15.75.52.66.74s-.24.51,0,.6a2,2,0,0,0,.39.13s.07.26.29.28a1.63,1.63,0,0,0,.39,0s-.26.2-.17.3a1.14,1.14,0,0,0,.48.16.2.2,0,0,0,.11.3,1.1,1.1,0,0,0,.84.11c.34-.12,1.61-.44,1.61-.44L11.82,8l.09.31a3.1,3.1,0,0,0-.78.36A14,14,0,0,0,9.5,10,6.31,6.31,0,0,1,8,11.36c-.26.05-.66,0-1.18,0a8.51,8.51,0,0,0-2.2.74,5.38,5.38,0,0,1-1.77.53,2.42,2.42,0,0,0-.71.24.76.76,0,0,0-.55,0,.51.51,0,0,0-.28.39s0,.47,0,.47a3.61,3.61,0,0,1,1.23-.35c.37,0,.94.16,1.1.39s.24.24.24.24l1,.54s.58-.23,1.15-.52,1.8-.58,2.3-.79,1.89-.94,2.27-1,.24,0,.24,0l.36,1.44s-2.29-.49-2.6-.25a18.43,18.43,0,0,1-3,1.61c-.27,0,.08.32-.31.61s-.85.59-.85.59.65.87,1,.91a24.49,24.49,0,0,0,3.71-.37,4.51,4.51,0,0,0,1-.5s1.76.83,2.35,1a12,12,0,0,0,3.22,0,6.9,6.9,0,0,0,1.69-1.16s-.3-1.37-1.13-1.74a5.18,5.18,0,0,0-2.41-.53"/><polygon class="cls-4" points="5.99 5.95 5.97 5.87 5.98 5.87 5.99 5.95"/><path class="cls-4" d="M7.3,6.22S7,5.91,7.5,5.8a6.58,6.58,0,0,1,1.65.11A8.58,8.58,0,0,1,8,5.88c-.61-.06-.69.34-.69.34"/><path class="cls-4" d="M7.83,6.39s-.16-.13.13-.2a3.69,3.69,0,0,1,.84,0l-.48,0s.28.15,0,.24-.44-.14-.44-.14-.11,0-.1.06"/><path class="cls-4" d="M8.2,7.31c-.22.06-.25,0-.13-.06s.13,0,.2,0,0-.17,0-.17c.16,0,.16.19-.05.25"/><path class="cls-4" d="M.66,14.84h0a.64.64,0,0,1,0-.43A.9.9,0,0,1,1,14.05a3.56,3.56,0,0,1,1.13-.42,2.18,2.18,0,0,1,.56,0,1,1,0,0,1,.42.14,1.56,1.56,0,0,1,.3.27,1.52,1.52,0,0,0,.18.18l.21.14a4.35,4.35,0,0,0,.85.33,4.84,4.84,0,0,0,.7.16l.42.08-.09,0L5.46,15l-.07,0a.51.51,0,0,0-.17,0,1.32,1.32,0,0,0-.71,0,.75.75,0,0,0-.48.39.64.64,0,0,0,0,.07.94.94,0,0,0-.12-.18A.8.8,0,0,0,3.56,15h0a2.07,2.07,0,0,0,.51,0s0,0,0,0h0a1.59,1.59,0,0,0-.52-.35,3.07,3.07,0,0,0-.63-.18l-.07,0a.22.22,0,0,0-.24.08.11.11,0,0,0,.07.15l.06,0h0l.33.15h0a.64.64,0,0,1,.24.28.71.71,0,0,0,.28.26,1.79,1.79,0,0,0,.37.15,1.69,1.69,0,0,0,0,.23V16c0,.09,0,.15,0,.22a2,2,0,0,0,.2.42,1.45,1.45,0,0,0,.41.36,1.72,1.72,0,0,0,.41.19H5A5,5,0,0,1,4.19,17c-.59-.21-1.23-.53-1.95-.85a4.29,4.29,0,0,1-1-.55,1.63,1.63,0,0,1-.62-.75m4.57.37h0a.11.11,0,0,1,0,.12.41.41,0,0,1,0,.17l0,.09-.06.08L5,15.85,4.85,16a.89.89,0,0,1-.34.16l0-.17,0-.19a.78.78,0,0,1,0-.34.35.35,0,0,1,.21-.22.79.79,0,0,1,.41,0h.12ZM6.4,17h0a5,5,0,0,1-.55,0,1.91,1.91,0,0,1-.91-.25,1.19,1.19,0,0,1-.27-.28,1.64,1.64,0,0,1-.14-.3A1.2,1.2,0,0,0,5,16.08a1.07,1.07,0,0,0,.22-.15,1.37,1.37,0,0,0,.17-.17l.08-.09.07-.09a1,1,0,0,0,.11-.21.28.28,0,0,0,0-.27h0l.23,0a5.9,5.9,0,0,0,1.09-.41l.65-.33c.23-.11.46-.24.71-.35A3.09,3.09,0,0,1,9,13.71c.28,0,.63,0,1,0s.66,0,1,0,.64.07.95.12.6.11.88.14l.8.07c.55,0,1,.05,1.3.05l.17,0a2.87,2.87,0,0,1,.93.37,2.3,2.3,0,0,1,.62.58,3,3,0,0,1,.37.71.59.59,0,0,1,0,.32.53.53,0,0,1-.15.3,3.64,3.64,0,0,1-1.69.85h0a.18.18,0,0,0-.13.12h-.49c-.23,0-.46,0-.69,0l-.69-.07-.34-.05-.33-.06a4.58,4.58,0,0,1-.64-.15l-.31-.1-.29-.1L11,16.69a2.24,2.24,0,0,1-.27-.13,2.39,2.39,0,0,1-.46-.34h0a.17.17,0,0,0-.16,0l0,0a.8.8,0,0,1-.31.29,2.09,2.09,0,0,1-.48.19,3.25,3.25,0,0,1-.54.12,5.21,5.21,0,0,1-.57.08C7.74,17,7.36,17,7,17A5.66,5.66,0,0,1,6.4,17Zm10.68.05h0l-.62.07a2.7,2.7,0,0,0,.85-.57,1,1,0,0,0,.22-.44.8.8,0,0,0-.06-.46,3.47,3.47,0,0,0-.44-.76,2.23,2.23,0,0,0-.34-.35,2.52,2.52,0,0,0-.45-.3,2.79,2.79,0,0,0-.53-.21,5.41,5.41,0,0,0-.58-.12c-.2,0-.41,0-.61,0s-.53-.09-.87-.13l-.8-.08h-.06l.39,0,.93-.08c.63,0,1.25-.07,1.87-.12s1.24-.11,1.85-.13a2.41,2.41,0,0,1,.83.07c.09,0,.11.07.12.2l0,.32a9.26,9.26,0,0,1,0,1.29,2.5,2.5,0,0,1-.33,1.24,1.41,1.41,0,0,1-.56.45A2.25,2.25,0,0,1,17.08,17.09ZM2.2,13.3h0L2,13.48A.3.3,0,0,1,2,13.35a1,1,0,0,1,.17-.2,1.6,1.6,0,0,1,.28-.22.74.74,0,0,1,.33-.13,3,3,0,0,0,.66,0,2.37,2.37,0,0,0,.68-.23,3.49,3.49,0,0,0,.51-.35,2.33,2.33,0,0,1,1.14-.45l.24,0a2,2,0,0,0-.26.09,3.17,3.17,0,0,0-.68.43A2.6,2.6,0,0,1,4,13l-.26,0H3.43a2.59,2.59,0,0,0-.68.09,1.43,1.43,0,0,0-.31.12A1.66,1.66,0,0,0,2.2,13.3ZM7,11.53H7l-.17,0,.09,0,.29-.08ZM.4,14.87a1.49,1.49,0,0,0,.56.91,5,5,0,0,0,1,.64A11.6,11.6,0,0,0,4,17.25a4.2,4.2,0,0,0,1,.16,3.42,3.42,0,0,0,.75,0l.19,0a4.58,4.58,0,0,0,.53,0L7,17.22c.38-.06.76-.11,1.14-.18a8.7,8.7,0,0,0,1.13-.23,2.09,2.09,0,0,0,.83-.41,2.1,2.1,0,0,0,.35.31,3.48,3.48,0,0,0,.56.34c.21.09.43.17.65.24l.35.09.36.07c.23,0,.48.06.72.08s.48,0,.73,0,.48,0,.72,0l.48-.07v0a.25.25,0,0,0,.22.09,9.49,9.49,0,0,0,1-.09l.94-.13a3.11,3.11,0,0,0,.89-.3,1.58,1.58,0,0,0,.59-.55,2.08,2.08,0,0,0,.22-.65c0-.22,0-.43.06-.65l.1-1.29,0-.33a.41.41,0,0,0,0-.18.37.37,0,0,0-.19-.18,2.78,2.78,0,0,0-1-.16,16.87,16.87,0,0,0-1.9.11c-.62.06-1.24.16-1.85.26-.31,0-.62.09-.92.15-.15,0-.31,0-.46.09l-.06,0-.7,0c-.31,0-.64,0-1-.05s-.66-.07-1-.11a5.73,5.73,0,0,0-1-.08,3.77,3.77,0,0,0-1,.25c-.29.12-.53.25-.76.37l-.61.37-.5.31-.21.12-.45-.15-.29-.11,1.12-.42.61-.2.33-.08.2,0,.21-.06a6.42,6.42,0,0,0,1.44-.7c.23-.13.44-.27.67-.39a2.84,2.84,0,0,1,.7-.3,2.61,2.61,0,0,1,.27-.06l0,0a.72.72,0,0,0-.14.53.86.86,0,0,0,.11.28.74.74,0,0,0,.21.22,1.16,1.16,0,0,0,.2.12l.09,0a.42.42,0,0,0,0-.07l0-.16c0-.14-.06-.3-.08-.46a2,2,0,0,1,0-.24l0-.22a.52.52,0,0,1,0-.11l.25,0,.67-.12,1-.2.39-.09s0,0,0,0h0a7.31,7.31,0,0,0-1.48,0,6.31,6.31,0,0,0-.7.11,4.07,4.07,0,0,0-.74.26c-.25.12-.43.26-.67.38a7,7,0,0,1-.73.33l-.76.28a5.62,5.62,0,0,1-.72.25l-.18,0-.18,0a2.85,2.85,0,0,0-.39.11,4.25,4.25,0,0,0-.63.27,6,6,0,0,0-.82.49l-.18.13-.24-.08a6.06,6.06,0,0,1-.73-.35L3.92,14l-.12-.14a1.27,1.27,0,0,0-.4-.35,1.44,1.44,0,0,0-.67-.16,2.13,2.13,0,0,0-.45.06l0,0,.25-.12a1.07,1.07,0,0,1,.27-.07,2.77,2.77,0,0,1,.58,0l.3,0,.28,0h.12a2,2,0,0,0,.82-.33,5.51,5.51,0,0,0,.56-.46,2.94,2.94,0,0,1,.55-.37A1.75,1.75,0,0,1,6.37,12l.17-.05.2,0,.44-.1a1.76,1.76,0,0,0,.4-.16,3,3,0,0,0,.65-.41c.38-.3.7-.63,1-.94a10.53,10.53,0,0,1,1.06-.91c.19-.14.38-.28.58-.4s.2-.13.31-.2l.08,0,.07,0,.15-.08a2.72,2.72,0,0,1,.7-.22A3.34,3.34,0,0,1,13,8.35a6.11,6.11,0,0,1,1.58.29h0s0,0,0,0a3.43,3.43,0,0,0-.73-.32A3.8,3.8,0,0,0,13,8.12a3.08,3.08,0,0,0-.91,0h-.07A.35.35,0,0,0,12,8a.34.34,0,0,0-.19-.11.26.26,0,0,0-.15,0h-.08l0,0-.28.11-.29.1a9.88,9.88,0,0,1-1.22.3,2.13,2.13,0,0,1-.61,0,.29.29,0,0,1-.21-.09c-.05,0,0-.12-.13-.22a.38.38,0,0,0-.2,0,.29.29,0,0,1-.1,0c-.06,0-.1-.11-.08-.15h.07l.15-.09a.69.69,0,0,0,.17-.22.06.06,0,0,0-.06-.07.09.09,0,0,0-.09,0h0a.65.65,0,0,1-.37.15c-.15,0-.32,0-.33-.1s0-.09,0-.18a.16.16,0,0,0-.09-.07l-.07,0-.13,0c-.16,0-.33-.06-.34-.14a.72.72,0,0,1,.11-.32.33.33,0,0,0,0-.38A4.43,4.43,0,0,0,6.73,6a2,2,0,0,1-.6-.54,1.34,1.34,0,0,1-.23-.65v0l1.28.87-.64-1,.77.51-.67-.75L7.92,5l.69.45-.72-.9,1,.73-.43-.66,1.17.63.73.34L10,5.18l.79.42-.4-.5c-.26-.41-.14-.24-.14-.24a1.46,1.46,0,0,0,.53.46,1,1,0,0,1,.08.81l.21-.35v0h0l.07.36c.27-.42.29-.53.7-.64h0l0,0,0,0a.51.51,0,0,1,.14.18.74.74,0,0,1-.13.8.76.76,0,0,1-.3.19l-.15,0v0h.17a1,1,0,0,0,.4-.16.81.81,0,0,0,.19-.18.76.76,0,0,0,.13-.23.86.86,0,0,0,.05-.53,1,1,0,0,0-.09-.22.7.7,0,0,1,.48.39l.14.47a.7.7,0,0,0,.15.42,1.06,1.06,0,0,0,.39.33l.26.11.23.08a4.66,4.66,0,0,1,1.49.85,12.76,12.76,0,0,1,1.19,1.12,8.83,8.83,0,0,1,.91,1.25,13.66,13.66,0,0,1,1.25,2.66s0,0,0,0,0,0,0,0a11.83,11.83,0,0,0-1.07-2.72A8.85,8.85,0,0,0,17,9.16,10.71,10.71,0,0,0,15.84,8a4.87,4.87,0,0,0-1.59-1L14,6.92l-.18-.08a.8.8,0,0,1-.26-.21.49.49,0,0,1-.08-.24c.18-.69,1.92-1,1-2.73s-3.73-2.21-4.87-2A6,6,0,0,0,6.37,3L6.3,3a1.56,1.56,0,0,0-.22.23L6,3.34A1.88,1.88,0,0,0,6,5.87l-.14-.61A1.19,1.19,0,0,0,6,5.48,2.37,2.37,0,0,0,6.61,6a4.82,4.82,0,0,1,.68.51c.08.08,0,.18,0,.29a.8.8,0,0,0-.11.37c0,.07.1.14.19.17l.26.06.12,0h0a.86.86,0,0,0,0,.17A.28.28,0,0,0,8,7.81a1,1,0,0,0,.29,0l.12,0H8.3c-.05,0-.08.06-.08.08a.25.25,0,0,0,.13.27c.08.07.33.07.29.08s0,.11.1.2a.46.46,0,0,0,.33.14,1.46,1.46,0,0,0,.36,0l.34,0A8.69,8.69,0,0,0,11,8.31l.31-.09.29-.11h0l.05,0,0,.06a2.8,2.8,0,0,0-.51.18l-.18.09L11,8.53l-.08.05a2.77,2.77,0,0,0-.29.22c-.19.15-.35.31-.52.47-.31.33-.63.65-1,1A7.42,7.42,0,0,1,8,11.08l-.18.1a6,6,0,0,0-1,.1c-.17,0-.36.06-.54.11s-.38.13-.57.21-.39.16-.6.23-.42.14-.63.24a3.52,3.52,0,0,1-1.11.39H3.11a1.67,1.67,0,0,0-.33,0,1,1,0,0,0-.61.27.91.91,0,0,0-.33.59.66.66,0,0,0,0,.18l0,0a6,6,0,0,0-.58.25l.07-.13.08-.19a.29.29,0,0,1,0-.1.19.19,0,0,1,0-.08A.74.74,0,0,1,1.77,13L2,12.86a.81.81,0,0,0-.34,0,.89.89,0,0,0-.33.1.72.72,0,0,0-.25.24.44.44,0,0,0,0,.27.65.65,0,0,0,.06.21.37.37,0,0,0,.11.15h0L.93,14A1,1,0,0,0,.4,14.87Z"/><path class="cls-4" d="M3.93,14h.91a1.63,1.63,0,0,1-.91,0"/><path class="cls-5" d="M12.05,5s.67,1.55.07,2.1S10.42,9,10.42,9s1.85-.71,2.15-.79,2.56-2.38,2.21-3.65-2.52-.48-2.73.42"/></svg>