<svg id="Capa_1" data-name="Capa 1" xmlns="http://www.w3.org/2000/svg" viewBox="0 0 21.12 20.25"><defs><style>.cls-1{fill:#fcb560;}.cls-2{fill:#f5a4c7;}.cls-3{fill:#fbc8ba;}.cls-4,.cls-5{fill:#231f20;}.cls-5{fill-rule:evenodd;}</style></defs><title>3-24meses</title><polygon class="cls-1" points="1.36 17.34 9.19 17.34 9.19 3.2 17.15 3.2 17.15 17.61 20.75 17.61 20.75 0.9 3.99 0.9 1.29 0.9 1.36 17.34"/><path class="cls-2" d="M14.12,12.45a1,1,0,0,0-.16.75.85.85,0,0,0,.56.48s.93,1.16,1.53,1.33.47.11.47.11.57-1.45,1.31-1.42,1.16.05,1.24-.17-.38-.71-.38-.71a3.54,3.54,0,0,1-1.38.52c-.81.11-2.55.34-3.19-.89"/><path class="cls-3" d="M1.36,12.07l1.87-.66s1.27.73,1.6.54a2.11,2.11,0,0,0,.59-.54s.64,0,.66-.27a.92.92,0,0,0,0-.3s.73.27.9,0a2,2,0,0,1,.34-.43s.84-.07.71-.32A1.47,1.47,0,0,1,7.68,9c.08-.55,1.67-1.68,1.49-2.23S8.3,5,7.32,5.06s-5.8,3-6,3.46a26,26,0,0,0,0,3.55"/><path class="cls-3" d="M14,11.84s-.06,1.22,1.53,1.54a6.61,6.61,0,0,0,3-.4c.12.12.18-.48.31-.61s1.55-.58,1.45-1.08a5.9,5.9,0,0,0-1.13-1.78,4.36,4.36,0,0,0-1.3-.59S19.75,8.45,20,7.36s-2-2-2.13-2a13.47,13.47,0,0,0-1.64.16c-.26.11-1,.12-1.22.37s.31,1.16,0,1.76-.1.81,0,.85a2,2,0,0,1,.26.21A5.69,5.69,0,0,1,14.16,9a10.43,10.43,0,0,1-2.38-.61c-.53-.2-.54-.28-.6,0s.32.41.19.54-.44.42-.2.51.76.14.88.28a1.85,1.85,0,0,0,1.28.39,2.71,2.71,0,0,1,1,.12l.34.19A3.68,3.68,0,0,0,14,11.84"/><path class="cls-3" d="M14,13.34a5.07,5.07,0,0,0-.62,1.59c0,.6-.11,1,.19,1.35s.78,1,.43,1.48-.7.75-.5,1a1.23,1.23,0,0,0,1.16.35A4.23,4.23,0,0,0,16.05,18c0-.19-.43-.41-.54-.7s.17-.76.08-1-.29-.45-.27-.49.86-.72.73-.82-1.43-1.66-2.1-1.67"/><path class="cls-3" d="M17.83,13.61a3,3,0,0,0-1.43,1.85c-.19,1.16.58,3.05.55,3.32s-.3.94-.05,1,.62-.32.54-.18.16.15.29.06,0,0,.29,0a2.12,2.12,0,0,0,.64-.13,2.51,2.51,0,0,1-.24-1.32c.13-.53-.27-1.11-.27-1.46a2.53,2.53,0,0,1,.35-1,5.9,5.9,0,0,0,.57-1.64c0-.39-.25-.63-1.24-.48"/><path class="cls-4" d="M17.22,7.12c-.54,0-.49.14-.49.14l.12-.06c.34-.14,1.38.4,1.38.4a1.88,1.88,0,0,0-1-.48"/><path class="cls-4" d="M16.93,7.46h.12a.23.23,0,0,1,0,.09c0,.06.15.14.32.1s.09-.12.09-.12l.4.06a6.68,6.68,0,0,0-.68-.2c-.23,0-.22.06-.22.06"/><path class="cls-4" d="M15.81,7.41s0,0-.16-.1-.45-.09-.42.05a.56.56,0,0,1,.2-.05c.06,0-.06,0,0,.1a.19.19,0,0,0,.24.1c.13,0-.05-.16.16-.1"/><path class="cls-4" d="M15.81,8.26c.12.05.08.13.19.23a1.44,1.44,0,0,0,.8,0,.79.79,0,0,0,.51-.23s-.31,0-.69.06a2.79,2.79,0,0,1-.81-.11"/><path class="cls-4" d="M16.62,8.69c-.33.08.23.16.38.07s-.06-.15-.38-.07"/><path class="cls-4" d="M18.44,8.17l0,0,0,0"/><path class="cls-4" d="M18.91,13.24h0a.51.51,0,0,1,0,.24h0l-.27-.05a1.83,1.83,0,0,0-.57,0,1.36,1.36,0,0,0-.49.19,1.17,1.17,0,0,0-.33.29.79.79,0,0,0-.12.15l-.12.15-.22.3a2,2,0,0,0-.2.31l-.09.17,0,.06-.06,0a.83.83,0,0,1-.16-.09,2.28,2.28,0,0,1-.3-.21,3.43,3.43,0,0,1-.48-.53l-.24-.28a2,2,0,0,0-.29-.29,1.85,1.85,0,0,0-.37-.26,1.26,1.26,0,0,0-.28-.11l-.15,0a.19.19,0,0,1,0-.07A.85.85,0,0,1,14,13a2.87,2.87,0,0,1,0-.39,1.84,1.84,0,0,0,.17.22,2.56,2.56,0,0,0,.58.48,2.73,2.73,0,0,0,.83.3c.15,0,.31,0,.46.06h.45l.43,0,.38-.06a4.35,4.35,0,0,0,.71-.17,2.26,2.26,0,0,0,.54-.27,1.1,1.1,0,0,0,.15-.16.68.68,0,0,1,.14.3m0,1h0a1.59,1.59,0,0,1-.1.39,2.71,2.71,0,0,1-.17.39c-.13.25-.28.5-.44.76s-.15.26-.22.39l-.09.23a.57.57,0,0,0,0,.14.14.14,0,0,0,0,.1s0,0,0,.06v0a1.56,1.56,0,0,1,.18.34c0,.13.07.25.1.38a1.21,1.21,0,0,1,0,.38.85.85,0,0,1,0,.17l0,.09-.05.1a1,1,0,0,0,.17.91l.13.19a.16.16,0,0,0,0,.06h0a.17.17,0,0,1-.12-.08l0,0a.21.21,0,0,0-.18-.05c-.08,0-.13.08-.1.14v0a.13.13,0,0,0,0-.05.12.12,0,0,0-.11,0c-.06,0-.1,0-.09.08a.12.12,0,0,0,0,.07l0,0,.08.06h0l-.06,0a.15.15,0,0,1-.07,0,.22.22,0,0,1-.09-.11h0a.08.08,0,0,0-.09,0c-.05,0-.08,0-.07.06h0a.27.27,0,0,1,0,.15.13.13,0,0,1,0,.06s0,0,0,0h0l0,0,0-.06a1,1,0,0,1-.06-.16.12.12,0,0,0-.08-.05s-.08,0-.08.06h0a.42.42,0,0,1-.05.2s-.05.05-.05,0h0s0,0,0,0a.57.57,0,0,1-.13-.37,2.33,2.33,0,0,0,.15-.76v0h0c-.07-.28-.14-.55-.23-.83s-.07-.27-.1-.4-.05-.28-.07-.42-.09-.55-.11-.83a6.27,6.27,0,0,1,0-.75c.07,0,.12,0,.11-.09a.81.81,0,0,1,0-.15,1,1,0,0,1,.05-.16,1.53,1.53,0,0,1,.16-.31,1.49,1.49,0,0,1,.23-.28l.14-.14.15-.12a1.68,1.68,0,0,1,.34-.2,1.24,1.24,0,0,1,.38-.09,1.28,1.28,0,0,1,.39,0l.2,0,.18.05h0A1.14,1.14,0,0,1,18.92,14.27Zm-3.37,1.17h0a2.75,2.75,0,0,1-.53.36.27.27,0,0,0-.08.07c0,.08,0,.17.14.2h0a.65.65,0,0,1,.19.09.45.45,0,0,1,.15.19.55.55,0,0,1,0,.25c0,.09,0,.18-.05.28a2.33,2.33,0,0,0-.05.28.56.56,0,0,0,.06.3,2.46,2.46,0,0,0,.17.27c.06.08.15.17.17.21s0,0,0,0l-.07.05-.3.15a2.27,2.27,0,0,0-.59.44.58.58,0,0,0-.11.15l0,.08,0,.06s-.07.08-.15.12a.3.3,0,0,1-.18,0c-.05,0,0-.14,0-.22s0,0,0,0h0a.38.38,0,0,0-.16.22.06.06,0,0,1,0-.06s0-.06,0-.09a.36.36,0,0,0-.06-.13L14,18.67l-.13,0-.05.05h0a.24.24,0,0,0,0-.12l-.06-.09a.44.44,0,0,0-.14.05s0,0,0,0v-.11a.27.27,0,0,1,.17-.16,2.06,2.06,0,0,0,.41-.29,1.06,1.06,0,0,0,.29-.45.61.61,0,0,0-.18-.54c-.13-.16-.26-.31-.37-.47a1.82,1.82,0,0,1-.24-.51,2,2,0,0,1,0-1c.06-.32.12-.63.19-.88A4.17,4.17,0,0,1,14,13.6a.19.19,0,0,1,0-.09h.07c-.06,0,0,0,0,0a.42.42,0,0,1,.13.07,1.78,1.78,0,0,1,.26.22l.24.26.24.29a3.29,3.29,0,0,0,.62.54,1.93,1.93,0,0,0,.32.19ZM17.46,9h0A3.42,3.42,0,0,1,17,9a3.19,3.19,0,0,1-.45,0,2.67,2.67,0,0,1-.82-.2,1.77,1.77,0,0,1-.61-.41A1.1,1.1,0,0,1,15,8.14l0-.07a.08.08,0,0,1,0-.05L15,7.86a2.7,2.7,0,0,0,.12-.68s0-.1,0-.15a.79.79,0,0,1,.57.08c.17.16.35.34.16.55s-.27.24-.12.33a.39.39,0,0,0,.37.08s-.35-.06-.28-.22.26-.26.18-.54A.69.69,0,0,0,15.12,7V6.84a.84.84,0,0,0-.1-.33L15,6.35l.65.47-.29-.55.74.59-.24-.25.71.3-.19-.57.6.57-.15-.33.39.36L17,6.41l.71.63-.44-.79,1,.69-.19-.47a1.42,1.42,0,0,1,.6.92,1.07,1.07,0,0,1-.25.78l.33-.35-.05.25a.56.56,0,0,0,.3-.34s.37-.26.58-.16.06.24-.06.42a2.08,2.08,0,0,1-.48.34h0A3.37,3.37,0,0,1,17.46,9Zm-6.17-.23Zm8.49,1.16a2.2,2.2,0,0,0-.28-.34l-.19-.18-.12-.07h0l0,0h0l-.06,0c-.29-.11-.59-.2-.91-.29l.29-.13a3.77,3.77,0,0,0,.48-.28l-.05.23L19,8.57V8.8l.33-.43v.25l.48-.72a2.76,2.76,0,0,0,.23-.27c.05-.09.1-.17.14-.26a1.47,1.47,0,0,0,.17-1A2.84,2.84,0,0,0,17.83,4.5a3.7,3.7,0,0,0-2.31.36c-.54.29-1,.82-.8,1.3a2.2,2.2,0,0,0,.31.53,1.16,1.16,0,0,1,0,.49,2.27,2.27,0,0,1-.26.63l-.1.15a.81.81,0,0,0,0,.11v.1a.83.83,0,0,0,.16.36,1.19,1.19,0,0,0,.22.23,3,3,0,0,1-.77.13,2.42,2.42,0,0,1-.47,0,2.34,2.34,0,0,1-.46-.09c-.33-.08-.66-.14-1-.23a3.94,3.94,0,0,1-.93-.33h-.05l-.19,0a.2.2,0,0,0-.16.12c0,.12.07.19.13.26l.12.11a.77.77,0,0,0-.13.12.83.83,0,0,0-.14.23.55.55,0,0,0,0,.29.35.35,0,0,0,.16.19.7.7,0,0,0,.26.08c.16,0,.31,0,.35,0s0,0,0,0l0,0a1.33,1.33,0,0,0,.21.19,2.46,2.46,0,0,0,.27.17,2,2,0,0,0,.29.14,2.05,2.05,0,0,0,.72.14,1.55,1.55,0,0,0,.64-.15l.54.15h0s0,0,0,0L14,10a.11.11,0,0,0-.11,0h0a1.34,1.34,0,0,1-1-.1l-.22-.13-.2-.14a.9.9,0,0,1-.18-.16A1.12,1.12,0,0,0,12,9.33a.89.89,0,0,0-.3-.06l-.3,0h0a.21.21,0,0,1,0-.14A.76.76,0,0,1,11.46,9a.43.43,0,0,1,0-.07l.06-.05,0,0a.09.09,0,0,0,0-.07.14.14,0,0,0,0-.07c-.1-.08-.18-.11-.25-.17s-.14-.1-.14-.12.06,0,.15,0c.29.13.58.25.87.39a7.17,7.17,0,0,0,1,.36,4.85,4.85,0,0,0,.57.09,3.75,3.75,0,0,0,.58,0,2.05,2.05,0,0,0,.8-.3,2.33,2.33,0,0,0,.41.24,2.81,2.81,0,0,0,1,.22,3,3,0,0,0,.52,0l.51-.08A4.72,4.72,0,0,0,18.08,9a6.8,6.8,0,0,0,.79.46l.05,0h0l0,0A.22.22,0,0,1,19,9.6a.87.87,0,0,1,.12.14,3.71,3.71,0,0,1,.23.32l.44.66a1.59,1.59,0,0,1,.3.7c0,.12-.05.22-.18.29a2.37,2.37,0,0,1-.42.22c-.31.12-.64.22-1,.31a4.94,4.94,0,0,1-1,.19h-.24l-.24,0-.23,0-.1,0s-.07,0,0,0l-.41.22a.42.42,0,0,1,.08.12v0h-.09a.24.24,0,0,1-.14-.05.1.1,0,0,1-.06,0s0-.06,0-.07V12.5a.3.3,0,0,1,0-.08,1.21,1.21,0,0,1,.31-.34s0,0,0,0h0a1.42,1.42,0,0,0-.49.29.39.39,0,0,0-.08.1.34.34,0,0,1,0-.1.71.71,0,0,1,.05-.22L16,12a.52.52,0,0,0-.17.06l-.11.11a.2.2,0,0,0-.05.09v0a.44.44,0,0,1,0-.2,2.13,2.13,0,0,1,.13-.32.52.52,0,0,0-.17.06.36.36,0,0,0-.21.24.29.29,0,0,0,.14.27.45.45,0,0,0,.12.06.33.33,0,0,0,.08.26.32.32,0,0,0,.12.1h0a.5.5,0,0,0,.08.14.69.69,0,0,0,.34.19,1,1,0,0,0,.24,0l.14,0,0,0h0l.05,0a.36.36,0,0,0,.18-.16.25.25,0,0,0,0-.07l.12,0,.3,0h.31a4.48,4.48,0,0,0,1.05-.26.28.28,0,0,1-.05.2.53.53,0,0,1-.25.2,2.27,2.27,0,0,1-.48.15l-.64.11-.38,0-.37,0-.38,0-.39,0A3.39,3.39,0,0,1,15,13.1a1.55,1.55,0,0,1-.61-.38.73.73,0,0,1-.22-.52,2.55,2.55,0,0,1,.13-.51c.05-.16.08-.32.12-.46a3.07,3.07,0,0,1,.25-.67,1.28,1.28,0,0,1,.12-.19l0-.07h0s0,0,0,0h0a2,2,0,0,0-.3.2,1.88,1.88,0,0,0-.5.68,2,2,0,0,0-.13.49,1.22,1.22,0,0,0,0,.27v.14l0,.16a1.51,1.51,0,0,0,.15.28,1.34,1.34,0,0,0-.25.43,2.38,2.38,0,0,0,0,.26.49.49,0,0,0,0,.12.34.34,0,0,0,0,.14l.1,0-.07.06a1.94,1.94,0,0,0-.22.25,2.38,2.38,0,0,0-.24.35,2.53,2.53,0,0,0-.18.44,1.59,1.59,0,0,0-.1.5,2.07,2.07,0,0,0,0,.55,1.39,1.39,0,0,0,.26.55c.12.16.26.32.37.48a2.07,2.07,0,0,1,.25.49.55.55,0,0,1,0,.42,1.46,1.46,0,0,1-.22.35,2.47,2.47,0,0,1-.28.28.3.3,0,0,0-.14.34.42.42,0,0,0,.13.19h0s0,0,0,.06a.25.25,0,0,0,.21.18.2.2,0,0,0,.12,0,.27.27,0,0,0,.18.11c.09,0,.13,0,.14,0v.05a.33.33,0,0,0,.26.14,1.14,1.14,0,0,0,.27,0,.72.72,0,0,0,.43-.24s0,0,0,0v0l0-.05.09-.09a5.24,5.24,0,0,1,.52-.34c.09-.06.19-.11.31-.2a.6.6,0,0,0,.16-.16.24.24,0,0,0,0-.26,1.11,1.11,0,0,0-.26-.24l-.24-.2a.51.51,0,0,1-.12-.49,3.74,3.74,0,0,0,.16-.56.46.46,0,0,0-.1-.32.68.68,0,0,0-.12-.12,1.59,1.59,0,0,0,.35-.33,1.2,1.2,0,0,0,.18-.38l.18.05a.93.93,0,0,0,.24,0c0,.11-.07.21-.1.32a3.41,3.41,0,0,0-.06.43,8,8,0,0,0,0,.85c0,.14,0,.29,0,.43a3,3,0,0,0,.09.43c.07.27.15.55.24.82a2.12,2.12,0,0,1,0,.71h0v0a1.13,1.13,0,0,0,.08.24.57.57,0,0,0,.19.24l.11,0a.37.37,0,0,0,.15,0,.22.22,0,0,0,.17-.13h0l0,0,.07,0,.1,0,.1,0,.07-.06a.08.08,0,0,0,0-.05l.05,0,.14,0H18l.08,0h0c.08,0,.17-.05.17-.08h0a.52.52,0,0,0,.46-.05.21.21,0,0,0,.07-.13v-.08a.33.33,0,0,0-.05-.12L18.68,19a.79.79,0,0,1-.09-.7l.05-.09a1.87,1.87,0,0,0,.12-.35,1.31,1.31,0,0,0,0-.44,1.76,1.76,0,0,0-.33-.87s0-.14,0-.26l.18-.38c.12-.27.26-.53.36-.8a2.38,2.38,0,0,0,.11-.42,1.59,1.59,0,0,0,0-.43,1.27,1.27,0,0,0-.09-.43l0,0a.2.2,0,0,0,.14-.08.56.56,0,0,0,0-.56.84.84,0,0,0-.41-.35s0-.05,0-.08a.28.28,0,0,0-.06-.22l0,0a5.36,5.36,0,0,0,.9-.44,2.8,2.8,0,0,0,.4-.27.72.72,0,0,0,.17-.18.36.36,0,0,0,0-.2,3.93,3.93,0,0,0-.15-.76A2.2,2.2,0,0,0,19.78,9.93Z"/><path class="cls-4" d="M17.11,11.49l-.19-.05a3.58,3.58,0,0,0-.35-.09l-.36-.07a2.38,2.38,0,0,0-.39,0l-.19,0h0l-.06,0-.09,0a1.14,1.14,0,0,0-.35.17.33.33,0,0,0-.11.16.22.22,0,0,0,0,.18.5.5,0,0,0,.31.19h0s0,0,0,0a.29.29,0,0,1-.06-.2.06.06,0,0,1,0-.06l.07,0a1,1,0,0,1,.24-.08l.29-.08a1.27,1.27,0,0,1,.62-.07.83.83,0,0,1,.29.11.58.58,0,0,1,.21.16.15.15,0,0,0,.16,0l.07,0a6.46,6.46,0,0,0,.6-.27,3.6,3.6,0,0,0,.54-.31l0,0c.06,0,.09-.1.05-.16a2.61,2.61,0,0,0-.54-.68h0s0,0,0,0A1.78,1.78,0,0,0,18,11a3,3,0,0,0-.43.24l-.42.3"/><path class="cls-4" d="M7.32,8.13c-.39,0-1.09.14-1.09.14l-.72.23a5.44,5.44,0,0,0,1-.06s-.21.5,0,.47S7,8.53,7,8.53l.27,0c-.18-.35.08-.42.08-.42"/><path class="cls-4" d="M1.36,10v0"/><path class="cls-4" d="M7.93,10.2h0m-2.18,1h0S5.74,11.18,5.75,11.17ZM6,3.82a6.22,6.22,0,0,0-4.6-.37V5.1a1.84,1.84,0,0,0-.17.22s0,0,0,0h0l.12-.12V9.88A1.92,1.92,0,0,1,2.58,8.26,6.66,6.66,0,0,1,3.42,8a2.06,2.06,0,0,0-.68.7c-.64,1.19.88,1.81.88,1.81C2.19,9.28,3.3,8.29,4.39,7.7c1.44-.37,3-.78,3.1-1.63,0,0,1.34.57,1.08,1.51-.19.19-.41.39-.59.6a2.78,2.78,0,0,0-.45.72,1.13,1.13,0,0,0,0,.81.89.89,0,0,0,.29.4l.07,0h0a1.43,1.43,0,0,1-.39.07h-.2c-.06,0-.1,0-.07,0l-.46.12a1.29,1.29,0,0,1,0,.34v0h0a9.65,9.65,0,0,1-1-.24.39.39,0,0,0-.3.05.15.15,0,0,0,0,.26h0l.12.1a.52.52,0,0,1,.11.1.31.31,0,0,1,.1.17s0,0,0,0,0,0,0,0H5.6l-.15,0h0c-.14,0-.27,0-.29.13a1.15,1.15,0,0,1-.18.37.36.36,0,0,1-.14.11.16.16,0,0,1-.12,0l-.59-.14a4.87,4.87,0,0,1-.53-.21,2.77,2.77,0,0,1-.88-.59,3,3,0,0,1-.59-.77l0,0,0,0a2.62,2.62,0,0,0,.18.43,2.07,2.07,0,0,0,.27.41,2.75,2.75,0,0,0,.86.7,4.7,4.7,0,0,0,1.19.44A.82.82,0,0,0,5,12a.76.76,0,0,0,.31-.21,1.32,1.32,0,0,0,.19-.29h0a1.55,1.55,0,0,0,.3,0,.61.61,0,0,0,.18,0,.39.39,0,0,0,.16-.1.41.41,0,0,0,.08-.1.58.58,0,0,0,0-.13.47.47,0,0,0,0-.17l.34.07.18,0A.76.76,0,0,0,7.12,11a.32.32,0,0,0,.13-.17l0-.12v-.15h.25a1.63,1.63,0,0,0,.63-.14.38.38,0,0,0,.16-.11.18.18,0,0,0,0-.24A.38.38,0,0,0,8.22,10l-.09-.06a.51.51,0,0,1-.22-.26,1.45,1.45,0,0,1,.3-1.36c.13-.18.29-.36.45-.55C9.05,7.55,9.94,7.07,10,6.2,10,5.09,9,3.81,6,3.82Z"/><path class="cls-4" d="M8,7.83a4.77,4.77,0,0,0-3.2.06s2.37-.28,2.64,0S8,7.83,8,7.83"/><path class="cls-5" d="M20.38,7a4.81,4.81,0,0,1-1,2.14c-.68.59-1.55,1-1.74,1.44s-.07.33-.07.33.17,0,.07.15a2.36,2.36,0,0,1-.45.41s-.26-.15-.24-.35a.23.23,0,0,1,.21-.21,1.75,1.75,0,0,1,.24-.69,7.49,7.49,0,0,1,1.41-1.63A4.06,4.06,0,0,0,20.38,7"/><path class="cls-5" d="M15.81,9.05a5.43,5.43,0,0,1,0,1.15c-.08.21-.22.48-.22.48s.14.05,0,.17a2.21,2.21,0,0,1-.62.22s.1-.63.36-.51c0,0,.3-.09.19-.6s-.29-1.11-.29-1.11Z"/></svg>