<svg id="Capa_1" data-name="Capa 1" xmlns="http://www.w3.org/2000/svg" viewBox="0 0 29.52 21.78"><defs><style>.cls-1{fill:#ffcc64;}.cls-2{fill:#b3d335;}.cls-3{fill:#fbc8ba;}.cls-4{fill:#f05050;}.cls-5,.cls-6{fill:#231f20;}.cls-6{fill-rule:evenodd;}</style></defs><title>4-24meses</title><path class="cls-1" d="M1.69,15a23.15,23.15,0,0,0,15.17,5.74c9.32,0,12.52-5.74,12.52-5.74Z"/><path class="cls-2" d="M20.05,8.9s.29,2.57,1.66,2.89,1.89-.39,1.89-1.25,0-2.64-1.15-2.89-2.65-.3-2.4,1.25"/><path class="cls-3" d="M8.91,5.21s.53,2.94.87,3.06a5.49,5.49,0,0,1,1,.56l-.29.64s-3.66.76-4.09,1-2,.68-1.41,1.76S7,14.45,7,14.69s-.49.91-.08,1.05a1,1,0,0,0,.84-.24s0,.49.41.47.92-.72.92-.72-.11.51.13.38.41-.71.41-.71l.84,0,5.94-2.41a5.28,5.28,0,0,0,2.07.37,8.41,8.41,0,0,0,1.84-.63l.86-.7a3.81,3.81,0,0,1-1-1.49,11.66,11.66,0,0,1-.12-1.21s1.11.33,1.09,0-.44-.67-.84-.8-1,0-1.12.2.48,1.68.2,2a2.75,2.75,0,0,1-1,.49,11.52,11.52,0,0,0-1.84-1.15A5.51,5.51,0,0,0,15,9.52l-.1-.27a7.14,7.14,0,0,0,1.27-1.18c.23-.39.43-.42.43-.42S18,7.23,17.78,6.6s-1-1.65-1-2-7-1.72-7-1.72L8.68,5.46s.24.82.08.84-.82.06-.57.53.94,1.06,1.14,1,.83-2.25-.42-2.64"/><path class="cls-4" d="M11.52,12.38l0,.79s-.35-.14-.62.35a12.76,12.76,0,0,0-.53,3.9c.15.42-.22,1.69,2,2s5.2,0,5.37-.66a52.16,52.16,0,0,0,0-5.33,3.34,3.34,0,0,0-.81-.37c-.29,0-.19-.19-.19-.19a.93.93,0,0,0-.7-.79A12.56,12.56,0,0,0,13,12c-1.06.1-1.37.21-1.49.42"/><path class="cls-5" d="M14.67,6.81a2.55,2.55,0,0,1,1.51.11A2.18,2.18,0,0,0,13.8,7c-.25.18.35.11.87-.14"/><path class="cls-5" d="M12.55,7.14c.21,0,0-.24-.51-.3a2.69,2.69,0,0,0-1.7.54A8,8,0,0,1,11.45,7a5.71,5.71,0,0,1,1.1.13"/><path class="cls-5" d="M14.7,7.28a5.09,5.09,0,0,1-.52-.07.84.84,0,0,0,1.35-.15,1.52,1.52,0,0,1-.83.22"/><path class="cls-5" d="M10.87,7.34a.81.81,0,0,0,1.29,0,1.56,1.56,0,0,1-1.29,0"/><path class="cls-5" d="M13.34,8.44c.32.07.29-.08.5-.16s.18-.16.18-.16-.16,0-.39.16-.49,0-.72-.06-.23-.15-.23-.15,0,.12.14.23.21.07.52.14"/><path class="cls-5" d="M22,10.81v.09S22,11,22,11a.29.29,0,0,1-.18.16.62.62,0,0,1-.27,0,1,1,0,0,1-.28-.05,1,1,0,0,0,.24.13.86.86,0,0,0,.37.06.66.66,0,0,0,.43-.21,1.07,1.07,0,0,0,.13-.19l0-.08v0h0v-.05a1.4,1.4,0,0,0,.06-.41,2.9,2.9,0,0,0-.13-.86A4.36,4.36,0,0,0,22,8.68a3.17,3.17,0,0,0-.23-.36A1.24,1.24,0,0,0,21.52,8a.76.76,0,0,0-.45-.18.8.8,0,0,0-.37.09.55.55,0,0,0-.19.16A1.12,1.12,0,0,1,20.76,8,.61.61,0,0,1,21,8a.4.4,0,0,1,.21.16,1.92,1.92,0,0,1,.15.29c0,.12.09.24.14.37s.2.52.28.79a4.71,4.71,0,0,1,.2.78,2.3,2.3,0,0,1,0,.36v0h0Z"/><path class="cls-5" d="M11.52,12.39h0s0,0,0,0m6,6.11h0c0,.27-.32.46-.74.59a6.51,6.51,0,0,1-1.38.24,12.13,12.13,0,0,1-1.48.06,10.41,10.41,0,0,1-1.48-.08,3,3,0,0,1-1.28-.44.93.93,0,0,1-.4-.89l.07-1c0-.69,0-1.37,0-2.06,0-.33,0-.68,0-1a.5.5,0,0,0,.19,0,.24.24,0,0,0,.15-.19.35.35,0,0,0,0-.12.28.28,0,0,0-.05-.08l0,0h0a.71.71,0,0,1,.48-.16h0c.06,0,.09,0,.08-.08l-.18-.59h-.07c0,.17,0,.34,0,.51a1.07,1.07,0,0,0-.6.15l-.09,0-.2-.08A3.28,3.28,0,0,0,9.68,13c-.21,0-.43,0-.64,0-.08-.35-.16-.71-.25-1.06l.81-.11v0l-.92,0c-.05,0-.09,0-.08.06h0c0,.41.07.83.12,1.24,0,.06.08.11.17.11h0a4.64,4.64,0,0,1,1.39.18l.13.06.09,0h0l-.23-.06a.44.44,0,0,0-.2,0c-.13,0-.2.13-.15.23h0a2.26,2.26,0,0,1,.21.6.94.94,0,0,1,0,.29.31.31,0,0,1,0,.13l0,.08s0,0-.05.05h0a.38.38,0,0,1-.06-.13,2.71,2.71,0,0,1-.13-.63h0c0-.08-.1-.14-.22-.15s-.22.07-.22.16h0a2.35,2.35,0,0,0,.06.64v0c0,.11,0,.23,0,.34a.94.94,0,0,1-.06.15.31.31,0,0,1-.09.14l0,0a.16.16,0,0,1-.05-.08,1,1,0,0,1-.1-.31A3.53,3.53,0,0,0,9,14.33a.09.09,0,0,0-.09-.06c-.06,0-.1,0-.1.07h0a5.65,5.65,0,0,0,.05.71s0,.07,0,.1a1.26,1.26,0,0,1-.1.38.56.56,0,0,1-.12.16.18.18,0,0,1-.07.05l-.1,0-.07,0s0,0,0,0H8.27a.24.24,0,0,1-.13-.1A.75.75,0,0,1,8,15.34v-.07a1.19,1.19,0,0,0,.06-.37A1.24,1.24,0,0,0,8,14.52H8a.2.2,0,0,0-.19-.11c-.12,0-.21.06-.21.13a2.41,2.41,0,0,0,0,.38.89.89,0,0,1-.07.28.63.63,0,0,1-.19.24.42.42,0,0,1-.12.08l-.09,0-.06,0h0v0a1.38,1.38,0,0,1,0-.28,3.28,3.28,0,0,1,.23-.64,0,0,0,0,1,0,0c0-.11-.09-.21-.25-.23h0a.6.6,0,0,1-.36-.21,2.55,2.55,0,0,1-.32-.4l-.62-.9-.32-.44A1.38,1.38,0,0,1,5.24,12c-.1-.28,0-.52.3-.75L6,10.88l.12-.09.1-.06a2.21,2.21,0,0,1,.27-.12,12.15,12.15,0,0,1,1.29-.4c.9-.23,1.82-.43,2.75-.63h0s0,0,0,0l.12-.39a4.88,4.88,0,0,0,.66.29,4.42,4.42,0,0,0,2.53.16,4.26,4.26,0,0,0,.54-.16l.32-.13.11.32h0a.11.11,0,0,0,.11,0h0a3.4,3.4,0,0,1,1-.1,1.56,1.56,0,0,1,.45.09.82.82,0,0,1,.19.09l.19.12c.51.33,1,.7,1.47,1.06h0a.34.34,0,0,0,.34,0,2.7,2.7,0,0,0,.8-.52,1.14,1.14,0,0,0,.27-.35.64.64,0,0,0,.06-.4,1.43,1.43,0,0,0-.09-.37L19.56,9a1.39,1.39,0,0,1-.14-.63.26.26,0,0,1,.19-.2,1,1,0,0,1,.43,0,1.56,1.56,0,0,1,.8.32A.54.54,0,0,1,21,8.7s0,0,0,.07,0,.06,0,.07a.15.15,0,0,1-.1.09.77.77,0,0,1-.4,0,1.09,1.09,0,0,1-.36-.17.15.15,0,0,0-.1,0c-.07,0-.13,0-.13.09h0a6.18,6.18,0,0,0,.13,1.28,2.79,2.79,0,0,0,.57,1.26,2.08,2.08,0,0,0,.35.29l.06,0a7.14,7.14,0,0,1-.81.47l-.57.26-.29.13-.14.05-.06,0h.11a.29.29,0,0,1,.18.07.17.17,0,0,1,.06.12l-.46-.16-.15,0-.18,0a1.71,1.71,0,0,1-.39,0,3.19,3.19,0,0,1-.8-.1,7.08,7.08,0,0,1-.78-.25l-.18-.08h0L16,12l.06.06a3.61,3.61,0,0,0-.62-.13c-.5-.05-.92-.06-1.21-.06h0a6.82,6.82,0,0,1,1.18.14,2.81,2.81,0,0,1,.67.25c.1,0,.16.15.14.15s0,.08,0,0,0,0,0,0H16c-.29,0-.61,0-.93,0l-1,0-1.94,0-.44,0-.15,0h0a.94.94,0,0,1,.25-.13l.34-.11a4.39,4.39,0,0,1,.65-.13l.52-.06.45,0-.46,0a11.72,11.72,0,0,0-1.2.11l-.39.07a1,1,0,0,0-.41.18.14.14,0,0,0,0,.15l.05.07.07,0a.81.81,0,0,0,.25.08,4.2,4.2,0,0,0,.47.08,15.37,15.37,0,0,0,2,.17,10.34,10.34,0,0,0,2-.1l.26-.06a.44.44,0,0,0,.17-.1l0,0c0,.13,0,.26,0,.39s0,.06.09.07h0a1.59,1.59,0,0,1,.56.13,1.34,1.34,0,0,1,.24.12l.14.12c0,.67,0,1.35-.06,2s0,1.37,0,2.06C17.5,17.83,17.51,18.17,17.48,18.5ZM10,7.91h0a1.81,1.81,0,0,1-.15-.43l-.07-.25a.76.76,0,0,0-.07-.13L9.63,7l0-.06.29-1,.25,1,.3-1.61.9.73-.15-.66L12.72,7,12,5.53l1.54,1.26-.39-1.46.87.7a9.31,9.31,0,0,1-.35-.87l1.64,1.33-.55-1,.75.61.05-.65L16.76,6.7l-.14.21a.8.8,0,0,0-.14.23c-.07.15-.11.38-.23.66a1.84,1.84,0,0,1-.78.87,4.13,4.13,0,0,1-.76.35l-.46.14-.48.1a3.93,3.93,0,0,1-2.08-.2,6.56,6.56,0,0,1-1-.5A1.71,1.71,0,0,1,10,7.91Zm-.79-.27h0a.36.36,0,0,1-.1-.11A.85.85,0,0,1,9,7.39c-.08-.12-.17-.23-.26-.35L8.5,6.71l-.09-.13a.79.79,0,0,0,0-.09.07.07,0,0,1,0-.06.93.93,0,0,1,.13,0l.08,0c.15.27.32.53.46.75a.33.33,0,0,1,.06.1l0,.09.06.24,0,.12Zm8.28-1.43h0s0,0,0,0a.63.63,0,0,1,0,.14,1.34,1.34,0,0,1-.07.18l-.11.2a2.52,2.52,0,0,1-.53.66,2.67,2.67,0,0,1-.31.24c.06-.22.09-.41.14-.53a.85.85,0,0,1,.12-.22l.13-.19L17,6.9l.49-.7ZM27,14.94H18.08c0-.53-.07-1-.13-1.58h0a.09.09,0,0,0,0-.06,1.81,1.81,0,0,0-.27-.18,1.43,1.43,0,0,0-.31-.12,2,2,0,0,0-.6-.1l-.07-.25a2,2,0,0,0,.25.14,2.65,2.65,0,0,0,.42.18,3.11,3.11,0,0,0,1,.19,3.2,3.2,0,0,0,.53,0l.26,0L19.3,13h.07l.06,0,.09,0,.16-.07A2.69,2.69,0,0,0,20,12.7a4.13,4.13,0,0,0,.54-.34,2.59,2.59,0,0,0,.64-.64l.08,0,.22.07a3,3,0,0,0,1.06.1,1.51,1.51,0,0,0,1-.4,1.34,1.34,0,0,0,.39-.67c0-.12,0-.22.06-.34s0-.21,0-.33a3.57,3.57,0,0,0-.06-.65,3.43,3.43,0,0,0-.51-1.27,2.12,2.12,0,0,0-.56-.56l-.21-.11-.21-.09a2.88,2.88,0,0,0-.49-.11,2.84,2.84,0,0,0-1,.07,1.16,1.16,0,0,0-.71.43l.05,0A1.26,1.26,0,0,1,21,7.61a2.37,2.37,0,0,1,.84,0,1.34,1.34,0,0,1,.37.11l.17.09.14.09a2,2,0,0,1,.41.5,3.12,3.12,0,0,1,.36,1.17c0,.2,0,.41,0,.61s0,.2,0,.31a2.8,2.8,0,0,1-.06.28,1,1,0,0,1-.26.49.8.8,0,0,1-.54.24,2.14,2.14,0,0,1-.75-.06l-.2,0-.14-.06a1.06,1.06,0,0,1-.24-.19A2.89,2.89,0,0,1,20.47,10a6,6,0,0,1-.25-1l.22.07a1,1,0,0,0,.58,0,.28.28,0,0,0,.18-.19.16.16,0,0,0,0-.09.33.33,0,0,0,0-.1A.67.67,0,0,0,21,8.34a1.8,1.8,0,0,0-.9-.38,1.51,1.51,0,0,0-.56,0,.5.5,0,0,0-.39.31,1.32,1.32,0,0,0,0,.74l.07.34a1.76,1.76,0,0,1,0,.31.66.66,0,0,1-.27.53,2.56,2.56,0,0,1-.48.34,13.13,13.13,0,0,0-1.41-.91l-.23-.12a1.39,1.39,0,0,0-.27-.1A2,2,0,0,0,16,9.33a3.24,3.24,0,0,0-1,.19l-.15-.25.05,0a3.54,3.54,0,0,0,.75-.45,2,2,0,0,0,.71-1s0-.06,0-.1a1.57,1.57,0,0,0,.55-.09,1.74,1.74,0,0,0,.5-.27,1.4,1.4,0,0,0,.38-.43,1,1,0,0,0,.1-.24.56.56,0,0,0,0-.25.45.45,0,0,0-.06-.27A.42.42,0,0,0,17.59,6l0,0s.49-2.35-.37-3.12A5.83,5.83,0,0,0,13,1.46a6.79,6.79,0,0,0-4.64,2,1.52,1.52,0,0,0-.13,1.31,2.26,2.26,0,0,0,.25,1.46l.07.11h0a.69.69,0,0,0-.18,0,.5.5,0,0,0-.3.09A.33.33,0,0,0,8,6.6a.46.46,0,0,0,0,.23,1.49,1.49,0,0,0,.22.41,2.81,2.81,0,0,0,.34.35l.22.16a1.16,1.16,0,0,0,.28.1.66.66,0,0,0,.28,0,.8.8,0,0,0,.07.2,2.07,2.07,0,0,0,.86.85l.37.2-.18.37c-.95.12-1.88.27-2.8.46a12,12,0,0,0-1.4.36l-.35.14-.17.1-.13.09c-.16.11-.35.23-.52.37a1.44,1.44,0,0,0-.43.49.84.84,0,0,0,0,.6,1.58,1.58,0,0,0,.24.53c.12.16.23.3.33.45l.64.89a3.18,3.18,0,0,0,.39.46,1.31,1.31,0,0,0,.47.29c0,.08,0,.16-.08.24H2.4v.42H6.52a1.32,1.32,0,0,0,0,.27.43.43,0,0,0,.24.26.77.77,0,0,0,.47,0l.11,0,0,0,.12,0a.92.92,0,0,0,.24-.17l0,0a.54.54,0,0,0,.1.18.66.66,0,0,0,.3.17.67.67,0,0,0,.2,0l.11,0,.07,0a.76.76,0,0,0,.26-.16A.64.64,0,0,0,9,15.57s0,0,0-.05a.37.37,0,0,0,.11.1.34.34,0,0,0,.27,0,.59.59,0,0,0,.11-.09.86.86,0,0,0,.14-.18c0-.05.05-.11.08-.17h0a.55.55,0,0,0,.28.07.67.67,0,0,0,.24-.05l0,0c0,.59,0,1.19,0,1.78l.08,1a1.25,1.25,0,0,0,.6,1,3.93,3.93,0,0,0,1.39.46,15.13,15.13,0,0,0,1.51.14c.5,0,1,.05,1.53,0a7.37,7.37,0,0,0,1.54-.19,2.51,2.51,0,0,0,.73-.31.87.87,0,0,0,.39-.58,9.3,9.3,0,0,0,.09-1.05c0-.69,0-1.38,0-2.06v-.07H27Z"/><path class="cls-5" d="M12.56,8.9a1.82,1.82,0,0,0,.33.11,2.47,2.47,0,0,0,.39,0,1.91,1.91,0,0,0,.7-.15,1,1,0,0,0,.26-.17,1.79,1.79,0,0,0-.34-.07l-.3,0h-.34a5.37,5.37,0,0,0-.61.05l-.34.05a.62.62,0,0,0,.25.18"/><path class="cls-6" d="M14.86,12s0-2.24,0-2.41a3.29,3.29,0,0,1-.1-.36,4.34,4.34,0,0,0,1.18-.8,6.2,6.2,0,0,1,.46-.67s.29-.11.27,0a21.45,21.45,0,0,1-1.28,4.36Z"/><path class="cls-6" d="M10.87,9.1A15.16,15.16,0,0,0,11.15,11c.16.56.37,1.24.37,1.24l-.19.23,0,.34,0,.31-.58.21a6.39,6.39,0,0,0-.55-1.55,33.19,33.19,0,0,1-1.13-4,.35.35,0,0,1,.49.1A15.71,15.71,0,0,0,10.87,9.1"/></svg>