<svg id="Capa_1" data-name="Capa 1" xmlns="http://www.w3.org/2000/svg" viewBox="0 0 29.97 26.89"><defs><style>.cls-1{fill:#f8992f;}.cls-2{fill:#f5a4c7;}.cls-3{fill:#fbc9b5;}.cls-4{fill:#231f20;}</style></defs><title>1-4meses</title><path class="cls-1" d="M14.27,17.62s-.59-.59-.16-1.15a3.86,3.86,0,0,1,3.1-.87,1.71,1.71,0,0,1,1.18,1.19l-1.1,1.89s-2.08-.29-2.3-.39-.19-.19-.19-.19l-2.07,1.56s-.77-.14-.38-.46,2-1.37,2-1.37Z"/><path class="cls-2" d="M15.12,21.41a15.07,15.07,0,0,0-2.46-.72,5.74,5.74,0,0,0-1.94.15,21.29,21.29,0,0,0-2.49,1.37s.25,1.16.25,1.28-.2,1.53.3,2a6.2,6.2,0,0,0,4.37.54c1.73-.44,2-1.16,2-1.16Z"/><path class="cls-3" d="M17.51,20.22a1.16,1.16,0,0,0-.27-.72c-.29-.37-.8-.86-.81-.91s.33-.15.35-.19-.18-.61-.21-.7a.15.15,0,0,1,.21-.17,2.93,2.93,0,0,1,.46.29s-.24-1-.13-1,.9.83.9.83-.46-1.3.21-.92,1.31,2.41,1.31,2.41-.15-.37,1-.62a3.27,3.27,0,0,0,1.37-.21,7.06,7.06,0,0,1,1.47-.83,3.94,3.94,0,0,1,2.94.43A3.65,3.65,0,0,1,28,20.22a4,4,0,0,1-1.31,2.46A8.88,8.88,0,0,1,23.61,24a1.92,1.92,0,0,1-1.17,0c-.39-.11-1.81-.44-1.81-.44s.21,1-1.58,1.57a8.83,8.83,0,0,1-3.46.32,4.7,4.7,0,0,1-1.35,0c-.31-.09-.4-2.49-.66-3S13,21.28,12.93,21a.39.39,0,0,1,.21-.54,3.69,3.69,0,0,0,.5-.12s.49-1,.55-1.05.75-1.13.75-1.13a1.7,1.7,0,0,0,.93.27l.58.35s.14.11.08.2a3.32,3.32,0,0,0-.19,1v.23l-.16.31-.1.3,1.18.24Z"/><path class="cls-3" d="M11.13,20.77a5.4,5.4,0,0,0-1.1-.31c-.45-.05-3-.46-3.11-.37s-1.84.45-2.22.51-.53.13-.75-.13-.22-.59-.63-.64a1.51,1.51,0,0,0-.73.09c-.2,0-.61.06-.75.12s-.44.3-.2.48.19.27.45.52.69.77.66,1,.36.64.7.64,1-.2,1.3-.17a3.18,3.18,0,0,1,.54.1S4.13,23.84,4.1,24A2.12,2.12,0,0,1,3,24.42c-.28,0-1.16-.34-1.33-.38s-.53-.16-.64,0-.29.25-.09.46.1.34.39.69a2.42,2.42,0,0,0,1.35.8c.41,0,2.9.44,3,.14s0-.65.54-.87a2.49,2.49,0,0,0,1-.86A1.25,1.25,0,0,1,7.64,24a4.59,4.59,0,0,0,2.22,1.43c1.15.17,2.21,0,2.59-.72s.79-1.8-.11-2.17a10.53,10.53,0,0,0-1.7-.52s-.27-.12-.1-.45a4.64,4.64,0,0,1,.59-.78"/><path class="cls-4" d="M22.74,23.93h0l-.21-.08a9.84,9.84,0,0,0-1.72-.43h0a.24.24,0,0,0-.25.12v0a1.14,1.14,0,0,1-.07.19,1.74,1.74,0,0,1-.11.18,2.45,2.45,0,0,1-.31.34,3.58,3.58,0,0,1-.39.29l-.24.13-.24.11a6.11,6.11,0,0,1-1.12.31,9.6,9.6,0,0,1-1.2.15c-.41,0-.81,0-1.22,0-.21,0-.44,0-.62.06a2.61,2.61,0,0,1-.55,0c-.17,0-.31-.07-.35-.17a1.49,1.49,0,0,1-.08-.4l-.13-.83c-.09-.56-.14-1.12-.27-1.68a3.31,3.31,0,0,0-.12-.42,3.11,3.11,0,0,0-.2-.41c-.07-.13-.15-.26-.21-.39a.76.76,0,0,1-.09-.18l0-.05.15-.05a1,1,0,0,1,.25-.06,3.19,3.19,0,0,1,.54-.07,5.38,5.38,0,0,1,1.13.05l.56.09.28.07.28.06.57.13.24.05a1.33,1.33,0,0,0,0,.28.89.89,0,0,0,.05.32.55.55,0,0,0,.08.15l.06.08v0l0,.14v.28a2.5,2.5,0,0,1-.07.54,2.59,2.59,0,0,1-.54,1l0,0a2.61,2.61,0,0,0,.73-1,2.87,2.87,0,0,0,.14-.56l.05-.27,0-.09a.12.12,0,0,0,.06-.1.15.15,0,0,0,0-.06l0,0,0,0,0,0,0,0a.49.49,0,0,1,0-.11.72.72,0,0,1,0-.25,2.16,2.16,0,0,1,.15-.52,5.13,5.13,0,0,0,.3-1.15.14.14,0,0,0-.08-.13h0l-.13-.1-.14-.12a1.71,1.71,0,0,1-.22-.25l-.11-.15L17,18.77a1.79,1.79,0,0,0-.28-.2l.32.11h0a.31.31,0,0,0,.25,0c.12-.05.16-.15.09-.23l-.49-.58-.12-.14-.08-.09.15.11.59.52h0a.25.25,0,0,0,.21,0c.08,0,.12-.09.09-.15-.14-.22-.26-.44-.38-.66s-.11-.22-.15-.33a.84.84,0,0,1-.1-.32s0,0,0,0h0s0,0,0,0a.83.83,0,0,1,.16.12,2,2,0,0,1,.3.28,7.05,7.05,0,0,1,.51.6.08.08,0,0,0,.09,0c.05,0,.07,0,.06-.06a4,4,0,0,1-.24-1s0-.08,0-.12v0a.39.39,0,0,1,.1.08,2.79,2.79,0,0,1,.34.43,4.31,4.31,0,0,1,.5.91c.1.32.19.65.27,1l.13.5c0,.17.1.33.15.49l.3,1a1.63,1.63,0,0,1,.09.48,4.18,4.18,0,0,0,.07.51c.08.34.16.67.27,1h.05l0-.3.08,0a1.67,1.67,0,0,0,.32.08,2.83,2.83,0,0,0,.59.09h.27v0l-.23-.08c-.13-.06-.3-.13-.45-.21l-.2-.14a.9.9,0,0,0-.22-.06l-.2,0c0-.12,0-.24,0-.36a2.79,2.79,0,0,1,0-.5,2.85,2.85,0,0,0,0-.51,2,2,0,0,1-.05-.24,1,1,0,0,0,.46.14,3.7,3.7,0,0,0,.6-.08c-.95-.26-1.06-.87-1.06-.87a1.23,1.23,0,0,0-.14.24,1.8,1.8,0,0,1-.05-.19c-.05-.17-.1-.33-.13-.49l-.11-.5a1.21,1.21,0,0,0-.05-.18l.11-.05a2.32,2.32,0,0,1,.58-.25,6.41,6.41,0,0,1,1.08,0,1.54,1.54,0,0,0,.3,0h0s.35-.09.45.05-.09.33-.09.33L22,18.82a.63.63,0,0,0,.08-.18c0-.1-.1-.06-.25,0a.19.19,0,0,0-.15.15l-.11,0a1.15,1.15,0,0,0,.57.22s.29-.3.12-.46a.35.35,0,0,0-.28-.07l.2-.08c.23-.12.38-.25.57-.37l.1-.06a.79.79,0,0,1,.12.23c.18.6-.66,1.08-.66,1.08s.94-.4.91-1a.49.49,0,0,0-.23-.42,3.3,3.3,0,0,1,1.11-.37,3.92,3.92,0,0,1,.6,0l.58.25-1,0a7.58,7.58,0,0,0,2,.72H24.35a14.13,14.13,0,0,0,2,.53L25.13,19l1.23.41h-.81l1.15.35H25.36l1.4.56-.72.08.52.23-.71.12a5.31,5.31,0,0,0,.71.17s-1,.06-1.28.45-.48.78-.48.78l.85-.58s-.65.83-1.14.9a5.73,5.73,0,0,1-.74.07l1.13.07a7.11,7.11,0,0,1-1.1.12,3.27,3.27,0,0,1,.83.1l.07,0h-.08l0,0,.13.09c.07.05.18.15.17.19s0,0,0,.09v0h0l0,0s0,0,0,0l-.05,0a1.62,1.62,0,0,1-.41.17,1,1,0,0,1-.24,0l-.37,0-.33,0-.26,0-.1,0-.08,0a.2.2,0,0,1-.09-.06.15.15,0,0,1,0-.1.62.62,0,0,1,.05-.11l0,0a.6.6,0,0,0-.19.07.3.3,0,0,0-.15.16.27.27,0,0,0,.08.27l.13.11.05,0-.38.06.69.12-.35.05Zm-8.47,1.64h0a3.1,3.1,0,0,1-.71.23,7.37,7.37,0,0,1-1.07.16l-.62,0c-.21,0-.43,0-.64,0s-.42,0-.63,0l-.29,0L10,25.84a5.26,5.26,0,0,1-.53-.15A3,3,0,0,1,9,25.52a1,1,0,0,1-.45-.4s0,0,0-.05l.11.06a2.72,2.72,0,0,0,.35.16,5,5,0,0,0,.76.19,3.87,3.87,0,0,0,1.59,0,2.06,2.06,0,0,0,.35-.12,2.29,2.29,0,0,0,.31-.18,2.56,2.56,0,0,0,.26-.2l.2-.24a2.37,2.37,0,0,0,.35-.78,1.74,1.74,0,0,0,0-.82,1.27,1.27,0,0,0-.56-.74l-.25-.14-.26-.1-.54-.19c-.27-.08-.54-.16-.82-.22l.17-.21a2.64,2.64,0,0,1,.29-.29,1.47,1.47,0,0,1,.38-.25,1.86,1.86,0,0,1,.47-.16l.25,0,.24,0,.28,0v0a.19.19,0,0,0,0,.08.34.34,0,0,0,0,.12.7.7,0,0,0,.11.21,2.65,2.65,0,0,0,.26.39,2.49,2.49,0,0,1,.23.37,3.39,3.39,0,0,1,.18.39,6.39,6.39,0,0,1,.39,1.65c0,.28.06.55.07.83a1.72,1.72,0,0,0,0,.44c.05.17.28.28.49.32ZM7.83,23.91h0a.18.18,0,0,0-.11-.07.27.27,0,0,0-.29.07h0l-.27.41-.06.1L7,24.5a1.4,1.4,0,0,1-.18.13,5.23,5.23,0,0,1-1,.46h0l-.1.06a2.39,2.39,0,0,0-.16.22,1.59,1.59,0,0,0-.13.22l-.09.22a.23.23,0,0,1-.07.11.5.5,0,0,1-.35.06c-.19,0-.37,0-.57-.07-.44-.07-.86-.1-1.28-.13l-.51,0h0s0-.06,0-.1h0c0-.06,0-.12-.09-.16a.17.17,0,0,0-.1,0,.13.13,0,0,0,0-.14c0-.08-.16-.12-.28-.1h0a2.3,2.3,0,0,0-.35.1H1.78l-.05,0-.05,0,0,0,.09,0,.1,0c.09,0,.15-.09.13-.16a.22.22,0,0,0-.24-.1h0l-.14,0H1.4a.13.13,0,0,1-.09-.05.1.1,0,0,1,0-.05l0-.06a.08.08,0,0,1,0,0h0a.15.15,0,0,1,.1,0h.17l.24.05a.18.18,0,0,0,.18-.06c0-.05,0-.11-.08-.13h0a2.47,2.47,0,0,0-.5-.09h-.1c-.18,0-.29-.08-.3-.19A.37.37,0,0,1,1.12,24a.47.47,0,0,1,.21,0l.27.06a5.52,5.52,0,0,1,.54.16,3.17,3.17,0,0,0,.57.14,1.85,1.85,0,0,0,1.19-.16,2.38,2.38,0,0,0,.36-.34l.31-.35c.21-.23.43-.45.66-.67a8.62,8.62,0,0,1,.71-.63,4.15,4.15,0,0,1,.82-.54,2.06,2.06,0,0,1,1-.09c.38,0,.76.07,1.14.12a20.75,20.75,0,0,1,2.25.41l.53.14.27.09.22.11a1.23,1.23,0,0,1,.58.64,1.55,1.55,0,0,1,0,.8,2.07,2.07,0,0,1-.33.77l-.2.22a1.57,1.57,0,0,1-.25.2,1.51,1.51,0,0,1-.31.16,1.69,1.69,0,0,1-.34.11,3.45,3.45,0,0,1-1.5,0,3.38,3.38,0,0,1-.68-.21L8.88,25a1.64,1.64,0,0,1-.25-.19A5.45,5.45,0,0,1,7.83,23.91Zm5.08-3.08h0a.34.34,0,0,1-.16,0ZM14,20h0a2.19,2.19,0,0,0,.21-.34c0-.13.08-.28.14-.41a3,3,0,0,1,.21-.4l.21-.35.15-.28a2.83,2.83,0,0,0,.52.17,1.7,1.7,0,0,0,.34,0l0,0a.17.17,0,0,0,.06.06,3.21,3.21,0,0,0,.39.24l.2.13a1.51,1.51,0,0,0-.14.21,4.21,4.21,0,0,0-.28.63,2.37,2.37,0,0,0-.13.34.6.6,0,0,0,0,.3.74.74,0,0,0,.1.26h0l-.28-.08c-.18-.05-.37-.1-.58-.14a5.56,5.56,0,0,0-1.24-.11h-.17A1.64,1.64,0,0,0,14,20Zm0-1.47h0l-.79.5-.42.29-.1.07h0l-.13,0h0a.25.25,0,0,1,.08-.1c.14-.1.27-.21.39-.31s.48-.4.67-.57a6.88,6.88,0,0,0,.59-.57.8.8,0,0,0,.17.15,2,2,0,0,0,.27.17C14.6,18.24,14.34,18.38,14,18.57Zm-1.32.87Zm4.53.78h0a4.75,4.75,0,0,1-.14.54c0,.07-.05.15-.07.23l-.2-.07-.54-.18-.14,0a1.15,1.15,0,0,0,.19-.26.83.83,0,0,0,.11-.29c0-.11,0-.23,0-.34s0-.47.06-.64,0-.13,0-.18h0s.06.06.1.12l.1.14a2.68,2.68,0,0,0,.28.3l.17.14.09.07C17.28,19.91,17.25,20.07,17.23,20.22Zm-2.47-4.09h0a2.22,2.22,0,0,0,1.36,1.24.35.35,0,0,0,0,.18.64.64,0,0,0,.1.18l.11.16.12.15.08.09-.21,0h-.19a.49.49,0,0,0-.15,0l-.09,0a.36.36,0,0,0-.13.1.21.21,0,0,0,0,.15.17.17,0,0,1,0,.05,1.3,1.3,0,0,1-.29-.08,2,2,0,0,1-.78-.48,2.65,2.65,0,0,1-.33-.42,1,1,0,0,1-.14-.5A1.1,1.1,0,0,1,14.76,16.13Zm.86-.37h0a3.42,3.42,0,0,1,.79-.07,2.68,2.68,0,0,1,.4,0l.35,0a2.19,2.19,0,0,1,.58.22,1.3,1.3,0,0,1,.53.61s0,0,0,.05l-.08-.06-.12,0h-.17a.24.24,0,0,0-.09,0l0,.05s0,.05,0,.08a.66.66,0,0,0,0,.14,3.33,3.33,0,0,0,.16.6l-.23-.27a2.65,2.65,0,0,0-.29-.29,1,1,0,0,0-.2-.14l-.11,0H17c-.11,0-.1.1-.12.13a.9.9,0,0,0,.07.37c0,.1.07.2.11.3l-.23-.2-.2-.14a.48.48,0,0,0-.18-.05H16.4s.09,0-.08,0h0a.28.28,0,0,0-.15.13l-1.33-1.19.1-.07A2.49,2.49,0,0,1,15.62,15.76ZM28.93,19.4a4.16,4.16,0,0,0-1.28-1.18,8.2,8.2,0,0,0-1.72-.8A4.88,4.88,0,0,0,24,17.16a3.32,3.32,0,0,0-1.58.61c-.19.13-.36.28-.5.37a1.57,1.57,0,0,1-.53.17,4.78,4.78,0,0,0-1.12.13,2.24,2.24,0,0,0-.57.34l-.05,0a7.24,7.24,0,0,0-.24-.75,2.39,2.39,0,0,0-.28-.49c-.11-.16-.22-.31-.34-.46a3.08,3.08,0,0,0-.4-.41v-.13a1.11,1.11,0,0,0-.42-.74,1.93,1.93,0,0,0-.66-.32l-.42-.1a3.13,3.13,0,0,0-.44,0,3.8,3.8,0,0,0-.95.06,2.9,2.9,0,0,0-.9.31,1.39,1.39,0,0,0-.8,1.22,1.08,1.08,0,0,0,.24.59,3.84,3.84,0,0,0,.27.29,8.64,8.64,0,0,0-.79.44l-.79.49-.43.3a.53.53,0,0,0-.21.27c-.05.13.08.3.24.35a1,1,0,0,0,.46.07l.17,0a.37.37,0,0,0,.12-.07l.1-.08.4-.31c.25-.2.48-.4.67-.57a7.41,7.41,0,0,0,.54-.52l.09,0-.25.25-.31.32a3.75,3.75,0,0,0-.6.79,1.26,1.26,0,0,0-.1.38,1.18,1.18,0,0,0,0,.37l-.36.05-.31.07a1.71,1.71,0,0,0-.27.09l-.12.06a1.41,1.41,0,0,0-.3-.08,2.79,2.79,0,0,0-.6,0c-.12,0-.24,0-.35.06a1.63,1.63,0,0,0-.31.11l-.72-.22a7.35,7.35,0,0,0-.84-.19,8.11,8.11,0,0,0-.86-.14c-.3,0-.59-.05-.89-.06a3.53,3.53,0,0,0-.46,0l-.25,0-.22,0c-.28.07-.56.14-.84.19-.54.1-1.11.11-1.64.24l0,0-.11-.08A.77.77,0,0,1,4,20.23l-.1-.14L3.72,20a.82.82,0,0,0-.39-.17v0l0,0a.38.38,0,0,0-.21-.05.5.5,0,0,0-.16.05.2.2,0,0,0-.07.09H3l.09,0a.05.05,0,0,1,0,0,2.06,2.06,0,0,0,.23.17A.15.15,0,0,0,3.37,20a.27.27,0,0,0,0-.16.79.79,0,0,1,.2.21l.06.13,0,.13a.77.77,0,0,0,.17.3l.16.13.11.06a.64.64,0,0,0,.14.06.28.28,0,0,0,.13,0h0a8.19,8.19,0,0,0,.81-.23c.26-.08.53-.17.81-.23a8.08,8.08,0,0,1,.86-.11h.21l.19,0,.42.05c.27,0,.56.07.84.12l.85.11.87.08.7,0-.2.12a1.7,1.7,0,0,0-.19.2,1.07,1.07,0,0,0-.19.39.72.72,0,0,0,0,.25c-.44-.11-.89-.19-1.34-.26a11.61,11.61,0,0,0-1.2-.12,2.65,2.65,0,0,0-1.28.17,4,4,0,0,0-.84.61q-.24.23-.45.45a1.67,1.67,0,0,0-.52-.17,2.1,2.1,0,0,0-.36,0H4l-.62.07a.52.52,0,0,1-.46-.13,1.49,1.49,0,0,1-.11-.45,1.52,1.52,0,0,0-.18-.47,1.24,1.24,0,0,0-.18-.22L2.33,21,2.27,21l0,0s0-.05,0-.09a.8.8,0,0,1,.08-.16s0,0,0-.05-.07-.2-.22-.22H2l-.06,0-.07,0a.08.08,0,0,1,0-.09s0-.05,0-.06a.07.07,0,0,1,0-.05.28.28,0,0,1,.05-.08.15.15,0,0,1,.11,0,1.09,1.09,0,0,1,.38.18h0A.61.61,0,0,0,2.26,20h.28l.09,0,.09,0,.11.06a.14.14,0,0,0,0-.1.23.23,0,0,0-.07-.11.33.33,0,0,0-.19-.08.5.5,0,0,0-.34.08l0,.06,0,0a.55.55,0,0,0-.37,0,.51.51,0,0,0-.3.17.41.41,0,0,0-.07.11.36.36,0,0,0,0,.11.32.32,0,0,0,0,.26.56.56,0,0,0,.28.21h0a.14.14,0,0,0,0,.07.35.35,0,0,0,.12.34.23.23,0,0,0,.07.07l.06,0,.11.07.2.16a1.22,1.22,0,0,1,.32.37.63.63,0,0,1,.07.22c0,.07,0,.16.06.24a.55.55,0,0,0,.22.24,1.27,1.27,0,0,0,.38.11,2.74,2.74,0,0,0,.71,0,4.63,4.63,0,0,1,.62-.06,3.92,3.92,0,0,1,.48,0L5,22.77c-.21.23-.41.46-.61.7l-.29.35a1.62,1.62,0,0,1-.32.32,1.55,1.55,0,0,1-1,.15c-.35-.07-.7-.23-1.07-.32-.1,0-.19,0-.29-.06a.76.76,0,0,0-.37,0,.7.7,0,0,0-.22.19.46.46,0,0,0-.09.23.3.3,0,0,0,.15.24l.1,0a.3.3,0,0,0-.06.11.37.37,0,0,0,0,.11.63.63,0,0,0,0,.09A.21.21,0,0,0,1,25a.47.47,0,0,0,.24.15.2.2,0,0,0,0,.07.27.27,0,0,0,.06.12l.08.07.08.06.1.05.05,0a.11.11,0,0,0,0,.08.36.36,0,0,0,.08.12l.1.06.08,0,.13,0v0a.29.29,0,0,0,.18.12l.09,0H2.4l.64.05c.41,0,.82.07,1.2.14a4.41,4.41,0,0,0,.66.08,1.38,1.38,0,0,0,.4,0,.94.94,0,0,0,.4-.16.75.75,0,0,0,.2-.27A1.18,1.18,0,0,1,6,25.7l.1-.18.1-.13a5.1,5.1,0,0,0,1-.51,1.11,1.11,0,0,0,.24-.2,1,1,0,0,0,.09-.13l.06-.1.07-.12a4.2,4.2,0,0,0,.7.61.57.57,0,0,0,.13.08.36.36,0,0,0,0,.11.71.71,0,0,0,.35.54,1.9,1.9,0,0,0,.45.25,3.41,3.41,0,0,0,.57.21,4.73,4.73,0,0,0,.64.14,5.35,5.35,0,0,0,.7.07,6.7,6.7,0,0,0,1.36-.07A5.49,5.49,0,0,0,13.68,26a2.16,2.16,0,0,0,.4-.18,1.17,1.17,0,0,0,.26-.18.35.35,0,0,0,.09-.07,2.75,2.75,0,0,0,.64,0c.22,0,.39,0,.59,0,.39,0,.79,0,1.18,0h0a9.52,9.52,0,0,0,1.32-.13,6,6,0,0,0,1.26-.34l.29-.13.26-.15a3.33,3.33,0,0,0,.46-.36,1.85,1.85,0,0,0,.33-.42,1.13,1.13,0,0,0,.11-.22l0-.08c.44.07.87.14,1.29.24h0l.58.18h-.44v0l.15,0-.57.1s.4,0,1-.05l.37,0a9.21,9.21,0,0,0,1.14,0A8.54,8.54,0,0,0,25.87,24a6.79,6.79,0,0,0,1.48-.68,6.57,6.57,0,0,0,.65-.5l.29-.27.07-.07.07-.08.12-.16a3,3,0,0,0,.7-1.37A2,2,0,0,0,28.93,19.4Z"/><path class="cls-4" d="M20.85,19.36a.55.55,0,0,0-.09.38c.22-.58.85-.27.85-.27a.54.54,0,0,0-.76-.11"/><path class="cls-4" d="M21.45,20.13c-.14,0-.19,0-.2-.23s-.15-.09-.15-.09c-.22.16.11.36.25.4s.26-.12.26-.12,0,0-.16,0"/><path class="cls-4" d="M23.4,20.3l-.12-.18s.42-.11.31-.32-.37-.15-.37-.15.34-.09.47.07a3.4,3.4,0,0,1,.26.84s.34-1.11-.63-1l-.34.07s-.27.4.42.69"/><path class="cls-4" d="M24.53,19.34a2.21,2.21,0,0,1,.14,1.13s.25-.75,0-1.1-.6-.39-.74-.2a.47.47,0,0,1,.58.17"/><path class="cls-4" d="M23.77,22.68h0"/><path class="cls-4" d="M1.54,1V2.61c0,.43.2.57.47.57s.48-.15.48-.57V1h.39V2.57A.77.77,0,0,1,2,3.42c-.52,0-.86-.23-.86-.82V1Z"/><path class="cls-4" d="M3.33,2.13c0-.2,0-.3,0-.44h.34l0,.21h0a.71.71,0,0,1,.57-.23.54.54,0,0,1,.6.58V3.39h-.4V2.3c0-.2,0-.41-.34-.41a.38.38,0,0,0-.37.28.68.68,0,0,0,0,.15V3.39H3.33Z"/><path class="cls-4" d="M6.33,2.37h0c0-.34-.18-.49-.37-.49s-.39.26-.41.49Zm-.78.2c0,.52.3.63.59.63a1.12,1.12,0,0,0,.41-.07l.06.2a1.5,1.5,0,0,1-.54.08.8.8,0,0,1-.91-.85A.81.81,0,0,1,6,1.67a.68.68,0,0,1,.71.75.66.66,0,0,1,0,.15Z"/><path class="cls-4" d="M7.61,3.11A1,1,0,0,0,8,3.2c.22,0,.36-.09.36-.25s-.06-.21-.31-.33-.5-.29-.5-.48.3-.47.68-.47a1.3,1.3,0,0,1,.45.08L8.58,2a.8.8,0,0,0-.33-.08c-.22,0-.32.11-.32.22s.06.18.3.29.52.28.52.52-.34.5-.75.5a1.16,1.16,0,0,1-.49-.09Z"/><path class="cls-4" d="M10.51,2.93c0,.19,0,.34,0,.46h-.34l0-.18h0a.69.69,0,0,1-.53.21c-.43,0-.6-.23-.6-.65V1.69h.39v1c0,.27.06.46.33.46A.35.35,0,0,0,10.1,3a.78.78,0,0,0,0-.16V1.69h.39Z"/><path class="cls-4" d="M10.87,3.11a1,1,0,0,0,.4.09c.22,0,.36-.09.36-.25s-.06-.21-.32-.33-.49-.29-.49-.48.3-.47.68-.47a1.19,1.19,0,0,1,.44.08l-.1.21a.8.8,0,0,0-.33-.08c-.22,0-.32.11-.32.22s.06.18.3.29.52.28.52.52-.34.5-.75.5a1.16,1.16,0,0,1-.49-.09Z"/><path class="cls-4" d="M13.35,2.79h0a.2.2,0,0,0,0,.11.39.39,0,0,0,.36.3c.32,0,.43-.3.43-.66s-.11-.64-.43-.64a.41.41,0,0,0-.37.3.49.49,0,0,0,0,.12Zm-.41.6c0-.1,0-.29,0-.4V1h.39v.93h0a.63.63,0,0,1,.52-.22c.39,0,.68.3.68.86s-.37.89-.75.89a.51.51,0,0,1-.49-.25h0l0,.22Z"/><path class="cls-4" d="M14.87,2.13c0-.14,0-.31,0-.44h.35l0,.27h0a.62.62,0,0,1,.53-.29h.08V2h-.08a.47.47,0,0,0-.48.36.71.71,0,0,0,0,.15v.94h-.4Z"/><path class="cls-4" d="M16.91,2.52h0c-.21,0-.68,0-.68.39a.28.28,0,0,0,.3.3A.37.37,0,0,0,16.9,3a.28.28,0,0,0,0-.09Zm.05.87,0-.18h0a.61.61,0,0,1-.49.21c-.33,0-.59-.19-.59-.48s.5-.62,1.06-.62v0c0-.23-.08-.39-.4-.39a1.07,1.07,0,0,0-.41.09L16,1.78a1.48,1.48,0,0,1,.58-.11c.49,0,.71.22.71.6V3a2.3,2.3,0,0,0,0,.38Z"/><path class="cls-4" d="M17.53,3.23l.78-1,.2-.25h-.89V1.69h1.32v.18l-.77,1c-.06.09-.14.17-.2.25h1v.22H17.53Z"/><path class="cls-4" d="M19.42,2.54h0c0,.28.07.67.43.67s.4-.4.4-.67-.06-.66-.41-.66-.42.4-.42.66m1.23,0a.79.79,0,0,1-.82.88.77.77,0,0,1-.8-.87.79.79,0,0,1,.82-.88A.77.77,0,0,1,20.65,2.54Z"/><path class="cls-4" d="M20.9,3.11a1,1,0,0,0,.4.09c.22,0,.36-.09.36-.25s-.07-.21-.32-.33-.49-.29-.49-.48.29-.47.68-.47a1.19,1.19,0,0,1,.44.08l-.1.21a.84.84,0,0,0-.33-.08c-.22,0-.32.11-.32.22s.06.18.3.29.51.28.51.52-.33.5-.74.5a1.16,1.16,0,0,1-.49-.09Z"/><path class="cls-4" d="M24.05,2.37h0c0-.34-.18-.49-.37-.49s-.39.26-.41.49Zm-.78.2c0,.52.3.63.59.63a1.16,1.16,0,0,0,.41-.07l.06.2a1.52,1.52,0,0,1-.55.08.8.8,0,0,1-.9-.85.81.81,0,0,1,.84-.89.67.67,0,0,1,.7.75v.15Z"/><path class="cls-4" d="M24.72,2.13c0-.2,0-.3,0-.44H25l0,.21h0a.71.71,0,0,1,.57-.23.54.54,0,0,1,.6.58V3.39h-.39V2.3c0-.2-.06-.41-.35-.41a.38.38,0,0,0-.37.28.68.68,0,0,0,0,.15V3.39h-.39Z"/><rect class="cls-4" x="1.12" y="4.12" width="0.39" height="2.43"/><path class="cls-4" d="M2,6.55H2V4.85h.39v1.7Zm.42-2.14c0,.11-.09.18-.24.18s-.22-.07-.22-.18.1-.17.23-.17S2.39,4.31,2.39,4.41Z"/><path class="cls-4" d="M2.78,5.29c0-.2,0-.3,0-.44H3.1l0,.2h0a.74.74,0,0,1,.57-.23.54.54,0,0,1,.6.59V6.55H3.91V5.45c0-.2-.06-.4-.35-.4a.38.38,0,0,0-.37.28.66.66,0,0,0,0,.15V6.55h-.4Z"/><path class="cls-4" d="M5.78,5.52h0c0-.34-.18-.49-.37-.49S5,5.29,5,5.52ZM5,5.73c0,.51.3.63.59.63A1.12,1.12,0,0,0,6,6.29l.06.2a1.75,1.75,0,0,1-.54.08.79.79,0,0,1-.9-.85.81.81,0,0,1,.83-.9.68.68,0,0,1,.71.75.76.76,0,0,1,0,.16Z"/><path class="cls-4" d="M7.38,5.67h0c-.21,0-.69,0-.69.4a.29.29,0,0,0,.31.3.37.37,0,0,0,.37-.26.31.31,0,0,0,0-.09Zm0,.88,0-.18h0a.62.62,0,0,1-.49.21.53.53,0,0,1-.59-.49c0-.42.5-.61,1.06-.61V5.42C7.37,5.2,7.28,5,7,5a1.07,1.07,0,0,0-.41.08l-.09-.18a1.36,1.36,0,0,1,.58-.12c.5,0,.72.23.72.61v.73a2.42,2.42,0,0,0,0,.39Z"/><path class="cls-4" d="M8.86,5.29c0-.2,0-.3,0-.44h.35l0,.21h0a.69.69,0,0,1,.56-.24.53.53,0,0,1,.51.26h0a.76.76,0,0,1,.25-.19.74.74,0,0,1,.34-.07.55.55,0,0,1,.6.6V6.55H11.1V5.49c0-.22,0-.44-.35-.44a.39.39,0,0,0-.37.25.81.81,0,0,0,0,.16V6.55H10V5.44c0-.19-.05-.39-.34-.39a.37.37,0,0,0-.37.28.59.59,0,0,0,0,.14V6.55H8.86Z"/><path class="cls-4" d="M13,5.52h0c0-.34-.18-.49-.37-.49s-.38.26-.4.49Zm-.78.21c0,.51.31.63.59.63a1.08,1.08,0,0,0,.41-.07l.06.2a1.66,1.66,0,0,1-.54.08.8.8,0,0,1-.9-.85.82.82,0,0,1,.84-.9.68.68,0,0,1,.7.75v.16Z"/><path class="cls-4" d="M14.74,5.5h0a.49.49,0,0,0,0-.12.39.39,0,0,0-.37-.33c-.32,0-.44.32-.44.66s.14.64.42.64a.37.37,0,0,0,.38-.29.36.36,0,0,0,0-.11Zm.39-1.38v2c0,.12,0,.31,0,.41h-.34l0-.21h0a.62.62,0,0,1-.52.24c-.42,0-.72-.31-.72-.87s.36-.89.75-.89a.52.52,0,0,1,.45.21h0V4.12Z"/><path class="cls-4" d="M15.55,6.55h0V4.85H16v1.7ZM16,4.41c0,.11-.1.18-.24.18s-.23-.07-.23-.18.1-.17.23-.17S16,4.31,16,4.41Z"/><path class="cls-4" d="M17.29,5.67h0c-.21,0-.68,0-.68.4a.28.28,0,0,0,.3.3.37.37,0,0,0,.37-.26.31.31,0,0,0,0-.09Zm.05.88,0-.18h0a.62.62,0,0,1-.49.21.53.53,0,0,1-.59-.49c0-.42.5-.61,1.06-.61V5.42c0-.22-.09-.38-.4-.38a1.07,1.07,0,0,0-.41.08l-.09-.18A1.36,1.36,0,0,1,17,4.82c.5,0,.72.23.72.61v.73a2.42,2.42,0,0,0,0,.39Z"/><path class="cls-4" d="M19,4.85l.33,1c0,.13.07.24.1.35h0l.11-.35.29-1h.39L19.8,5.94A2.61,2.61,0,0,1,19.19,7a1.37,1.37,0,0,1-.45.26l-.14-.23A1.35,1.35,0,0,0,19,6.85a1,1,0,0,0,.22-.28.19.19,0,0,0,0-.09.13.13,0,0,0,0-.06l-.63-1.57Z"/><path class="cls-4" d="M21.57,4.4v.45h.48v.21h-.48v1c0,.22.12.28.26.28H22l0,.2a1.07,1.07,0,0,1-.29,0,.67.67,0,0,1-.39-.1c-.1-.08-.15-.19-.15-.43v-1h-.3V4.85h.3V4.48Z"/><path class="cls-4" d="M22.52,5.7h0c0,.28.07.66.43.66s.4-.4.4-.66S23.28,5,22.94,5s-.42.4-.42.66m1.23,0a.8.8,0,0,1-.82.88.78.78,0,0,1-.81-.88A.8.8,0,0,1,23,4.82.78.78,0,0,1,23.75,5.7Z"/><path class="cls-4" d="M24.06,5.29c0-.2,0-.3,0-.44h.34l0,.21h0A.72.72,0,0,1,25,4.82a.54.54,0,0,1,.52.26h0a.67.67,0,0,1,.25-.19.71.71,0,0,1,.34-.07.54.54,0,0,1,.59.6V6.55h-.39V5.49c0-.22,0-.44-.35-.44a.39.39,0,0,0-.36.25.81.81,0,0,0,0,.16V6.55h-.39V5.44c0-.19-.05-.39-.35-.39a.36.36,0,0,0-.36.28.59.59,0,0,0,0,.14V6.55h-.39Z"/><path class="cls-4" d="M28,5.67h0c-.21,0-.68,0-.68.4a.28.28,0,0,0,.3.3A.37.37,0,0,0,28,6.11.31.31,0,0,0,28,6Zm0,.88,0-.18h0a.62.62,0,0,1-.49.21A.53.53,0,0,1,27,6.09c0-.42.5-.61,1.06-.61V5.42c0-.22-.09-.38-.4-.38a1.07,1.07,0,0,0-.41.08l-.08-.18a1.28,1.28,0,0,1,.57-.12c.5,0,.72.23.72.61v.73a2.42,2.42,0,0,0,0,.39Z"/><path class="cls-4" d="M2.6,9.24c0,.19,0,.34,0,.47H2.28l0-.18h0a.73.73,0,0,1-.53.21c-.43,0-.6-.24-.6-.66V8H1.5V9c0,.27.06.47.33.47a.36.36,0,0,0,.36-.23.68.68,0,0,0,0-.15V8H2.6Z"/><path class="cls-4" d="M3,8.45c0-.2,0-.3,0-.44h.34l0,.2h0A.74.74,0,0,1,4,8a.54.54,0,0,1,.6.59V9.71h-.4V8.61c0-.2-.05-.4-.34-.4a.37.37,0,0,0-.37.28.61.61,0,0,0,0,.15V9.71H3Z"/><path class="cls-4" d="M5.93,8.86h0c0,.28.07.66.43.66s.41-.4.41-.66S6.7,8.2,6.35,8.2s-.42.4-.42.66m1.24,0a.8.8,0,0,1-.83.88.78.78,0,0,1-.8-.88A.8.8,0,0,1,6.37,8,.78.78,0,0,1,7.17,8.86Z"/><path class="cls-4" d="M7.87,9.11h0a.31.31,0,0,0,0,.1.39.39,0,0,0,.37.3c.32,0,.43-.29.43-.66s-.12-.64-.43-.64a.4.4,0,0,0-.37.3.49.49,0,0,0,0,.12Zm-.42.6c0-.1,0-.29,0-.41v-2h.4v.93h0A.61.61,0,0,1,8.4,8c.38,0,.67.31.67.86s-.36.9-.75.9a.54.54,0,0,1-.49-.25h0l0,.22Z"/><path class="cls-4" d="M9,10.19H9a.57.57,0,0,0,.33-.13c.09-.09.12-.22.12-.54V8h.4V9.6a.68.68,0,0,1-.26.65,1.06,1.06,0,0,1-.54.16Zm.88-2.62c0,.1-.09.18-.24.18s-.23-.08-.22-.18.09-.18.23-.18S9.85,7.46,9.85,7.57Z"/><path class="cls-4" d="M11.28,8.68h0c0-.34-.18-.49-.37-.49s-.39.26-.4.49Zm-.78.2c0,.52.3.63.59.63a1.15,1.15,0,0,0,.41-.06l.06.2a1.75,1.75,0,0,1-.54.08.8.8,0,0,1-.9-.85A.81.81,0,0,1,11,8a.68.68,0,0,1,.71.75.66.66,0,0,1,0,.15Z"/><path class="cls-4" d="M12.44,7.56V8h.47v.2h-.47v1c0,.22.11.28.26.28h.16V9.7a1.07,1.07,0,0,1-.29,0,.69.69,0,0,1-.39-.1A.49.49,0,0,1,12,9.2v-1h-.3V8H12V7.64Z"/><path class="cls-4" d="M13.38,8.86h0c0,.28.07.66.43.66s.4-.4.4-.66-.06-.66-.41-.66-.42.4-.42.66m1.23,0a.8.8,0,0,1-.82.88A.78.78,0,0,1,13,8.86.8.8,0,0,1,13.81,8,.78.78,0,0,1,14.61,8.86Z"/><path class="cls-4" d="M16.81,9.66a1.08,1.08,0,0,1-.41.07.81.81,0,0,1-.91-.86.89.89,0,0,1,1-.89,1.05,1.05,0,0,1,.35.06l-.08.22a.77.77,0,0,0-.28,0,.59.59,0,0,0-.58.66.57.57,0,0,0,.59.63.92.92,0,0,0,.29,0Z"/><path class="cls-4" d="M17.27,8.86h0c0,.28.07.66.43.66s.41-.4.41-.66S18,8.2,17.69,8.2s-.42.4-.42.66m1.24,0a.8.8,0,0,1-.83.88.78.78,0,0,1-.8-.88A.8.8,0,0,1,17.71,8,.78.78,0,0,1,18.51,8.86Z"/><path class="cls-4" d="M18.82,8.45c0-.2,0-.3,0-.44h.34l0,.2h0A.74.74,0,0,1,19.74,8a.54.54,0,0,1,.6.59V9.71h-.4V8.61c0-.2-.05-.4-.34-.4a.37.37,0,0,0-.37.28.61.61,0,0,0,0,.15V9.71h-.39Z"/><path class="cls-4" d="M2,12H2c-.21,0-.68,0-.68.39a.28.28,0,0,0,.3.3A.37.37,0,0,0,2,12.43a.38.38,0,0,0,0-.1Zm.06.87,0-.17h0a.68.68,0,0,1-.5.2c-.33,0-.59-.19-.59-.48s.5-.62,1.06-.62v0c0-.23-.08-.39-.4-.39a1,1,0,0,0-.4.09l-.09-.19a1.48,1.48,0,0,1,.58-.11c.49,0,.71.22.71.6v.74a2.24,2.24,0,0,0,0,.38Z"/><path class="cls-4" d="M2.85,11.6c0-.2,0-.3,0-.43h.35l0,.21h0a.65.65,0,0,1,.55-.24.53.53,0,0,1,.52.26h0a.69.69,0,0,1,.25-.2.86.86,0,0,1,.34-.06.54.54,0,0,1,.59.6v1.12H5.08V11.8c0-.22,0-.43-.34-.43a.38.38,0,0,0-.37.25.71.71,0,0,0,0,.15v1.09H4V11.75c0-.19-.05-.38-.35-.38a.36.36,0,0,0-.36.27.61.61,0,0,0,0,.15v1.07H2.85Z"/><path class="cls-4" d="M6.29,12.26h0a.37.37,0,0,0,0,.11.39.39,0,0,0,.37.3c.32,0,.43-.3.43-.66s-.12-.64-.44-.64a.4.4,0,0,0-.36.3.49.49,0,0,0,0,.12Zm-.42.6c0-.09,0-.29,0-.4v-2h.4v.94h0a.6.6,0,0,1,.52-.23c.38,0,.67.3.67.86s-.36.89-.75.89a.52.52,0,0,1-.49-.25h0l0,.22Z"/><path class="cls-4" d="M8.73,12h0c-.2,0-.68,0-.68.39a.28.28,0,0,0,.3.3.35.35,0,0,0,.37-.25.38.38,0,0,0,0-.1Zm.06.87,0-.17h0a.66.66,0,0,1-.5.2.52.52,0,0,1-.58-.48c0-.43.49-.62,1.05-.62v0c0-.23-.08-.39-.39-.39a1,1,0,0,0-.41.09l-.09-.19a1.48,1.48,0,0,1,.58-.11c.5,0,.71.22.71.6v.74a1.5,1.5,0,0,0,0,.38Z"/><path class="cls-4" d="M9.48,12.58a1,1,0,0,0,.4.09c.22,0,.36-.09.36-.24s-.07-.22-.32-.34-.49-.29-.49-.48.29-.47.68-.47a1,1,0,0,1,.44.09l-.1.2a.84.84,0,0,0-.33-.08c-.22,0-.32.11-.32.22s.06.18.3.29.51.28.51.52-.33.51-.74.51a1.15,1.15,0,0,1-.49-.1Z"/><path class="cls-4" d="M11.57,11.6c0-.2,0-.3,0-.43h.34l0,.21h0a.69.69,0,0,1,.56-.24.53.53,0,0,1,.52.26h0a.76.76,0,0,1,.24-.2,1,1,0,0,1,.35-.06.54.54,0,0,1,.59.6v1.12H13.8V11.8c0-.22,0-.43-.35-.43a.38.38,0,0,0-.36.25.71.71,0,0,0,0,.15v1.09h-.39V11.75c0-.19,0-.38-.35-.38a.37.37,0,0,0-.37.27.66.66,0,0,0,0,.15v1.07h-.39Z"/><path class="cls-4" d="M15.54,12h0c-.21,0-.68,0-.68.39a.28.28,0,0,0,.3.3.37.37,0,0,0,.37-.25.38.38,0,0,0,0-.1Zm.05.87,0-.17h0a.65.65,0,0,1-.49.2c-.33,0-.59-.19-.59-.48s.5-.62,1.06-.62v0c0-.23-.09-.39-.4-.39a1.07,1.07,0,0,0-.41.09l-.09-.19a1.56,1.56,0,0,1,.58-.11c.5,0,.72.22.72.6v.74a2.24,2.24,0,0,0,0,.38Z"/><path class="cls-4" d="M16.35,11.6c0-.2,0-.3,0-.43h.34l0,.2h0a.71.71,0,0,1,.57-.23.54.54,0,0,1,.6.58v1.14h-.39V11.77c0-.2-.06-.4-.35-.4a.37.37,0,0,0-.37.27.68.68,0,0,0,0,.15v1.07h-.39Z"/><path class="cls-4" d="M18.58,12h0c0,.29.07.67.43.67s.41-.4.41-.67-.07-.66-.42-.66-.42.4-.42.66m1.24,0a.8.8,0,0,1-.83.88.78.78,0,0,1-.8-.87.8.8,0,0,1,.83-.88A.78.78,0,0,1,19.82,12Z"/><path class="cls-4" d="M20.06,12.58a1,1,0,0,0,.4.09c.22,0,.36-.09.36-.24s-.06-.22-.32-.34S20,11.8,20,11.61s.3-.47.68-.47a1,1,0,0,1,.44.09l-.1.2a.8.8,0,0,0-.33-.08c-.22,0-.32.11-.32.22s.06.18.3.29.52.28.52.52-.34.51-.75.51a1.15,1.15,0,0,1-.49-.1Z"/></svg>