<svg id="Capa_1" data-name="Capa 1" xmlns="http://www.w3.org/2000/svg" viewBox="0 0 29.06 28.35"><defs><style>.cls-1{fill:#fff;}.cls-2{fill:#f5a4c7;}.cls-3{fill:#fbc9b5;}.cls-4{fill:#231f20;}</style></defs><title>2-4meses</title><path class="cls-1" d="M19.68,17a3.71,3.71,0,0,1-1.07.07c-.4-.07-.66-.28-.55-.4a1.45,1.45,0,0,1,.54-.21Z"/><path class="cls-2" d="M11.62,24.29a11.6,11.6,0,0,0-2.85-1.36A20.32,20.32,0,0,0,4.31,23s-.75.14-.79.37-.06,2.74.45,3.12.77.61,2.4.7a8.73,8.73,0,0,0,3.52-.7c.08-.07,1.73-2.18,1.73-2.18"/><path class="cls-3" d="M29,18.21s-.68-1.41-1.1-1.58a4.36,4.36,0,0,0-1.44-.48,3.06,3.06,0,0,1-1.58-.33c-.55-.3-.86-.39-1.17-.21s-.05-.07-.43,0a9.78,9.78,0,0,0-1.16.27.65.65,0,0,0-.32.23,14,14,0,0,1,1.76.09.76.76,0,0,1,.52.38,6.73,6.73,0,0,1-1.27,0l-.37,0c-.57,0-1,.12-1,.21s0,.47.43.4.81-.53,1-.52.19.21.33.35-.17,0-.2.41.15.66.32.72a3.92,3.92,0,0,0,.64.13s-.59.43,0,.79a1.46,1.46,0,0,0,1.1.21,1.23,1.23,0,0,0,.55.53,5.12,5.12,0,0,0,1.36.34c.41,0,.35.09.38.14s1.28,1.1,1.28,1.1l.36.41Z"/><path class="cls-3" d="M10.06,24.27A11.73,11.73,0,0,0,7.71,24c-.47.11-2.29.57-2.42,1.33s-.08,1.34,1.1,1.74a12.36,12.36,0,0,0,3.67.29,25.28,25.28,0,0,0,4.22-.7c.36-.21,1.69-.9,1.69-.9a6.09,6.09,0,0,0,1.76.18c.3-.15.61-.29.43-.49S18,25,18,24.89s.27-.41-.1-.45a10.16,10.16,0,0,0-1.14,0s.44-.3.37-.46,0-.27-.17-.35a1.55,1.55,0,0,0-.81,0c-.38.05-1.31.23-1.42-.05s-.4-.52-1-.54S12,23,12,23a15.56,15.56,0,0,0,1.82-.92,2.19,2.19,0,0,1,0-.33,1,1,0,0,0-.12-.7c-.14-.14-.42-.49-.61-.44a1.07,1.07,0,0,0-.57.27c-.28.21-.25.57-.66.59a3.28,3.28,0,0,1-.71,0s.34-.82.41-1.07a1.22,1.22,0,0,0-.11-.64,20.42,20.42,0,0,0,2.48.14,8,8,0,0,0,1.77-.39A3.7,3.7,0,0,1,17,19.24a5.15,5.15,0,0,0,1.59.05c.17-.07,0-.27-.3-.44s-.5-.5-.2-.63,1.05-.36,1-.55-1,0-1.55.27a8.42,8.42,0,0,1-2.51.45,11,11,0,0,1-1.6.05c-.35-.05-.78-.21-.84-.21a5,5,0,0,1-.49-.15s1.08-.08,1.08-.22-.07-.33,0-.35.3.08.31-.1-.16-.14-.32-.19a.43.43,0,0,1-.23-.17,1.93,1.93,0,0,0,.69-.07c.19-.09.06,0,0-.16s-.25-.22,0-.33.65,0,.51-.24-.69-.53-.47-.75a3,3,0,0,0,.64-1.17,1,1,0,0,0-.23-.94,2.11,2.11,0,0,0-2-.4c-1,.26-4.63,1.23-4.24,2.07A4.27,4.27,0,0,1,8.06,17c0,.34.16.43-.73,1.08a13.48,13.48,0,0,0-2.61,3.09c-.13.37-.75,2-.75,2l6.32.48s.32.25.32.41.07.41-.55.21"/><path class="cls-4" d="M12.77,15.87a.57.57,0,0,0,.31-.3s.15,0,.14.07.23-.28-.28-.16a1,1,0,0,0-.68.45l.33-.16s-.05.19.18.1"/><polygon class="cls-4" points="14.53 14.72 14.51 14.64 14.5 14.65 14.53 14.72"/><path class="cls-4" d="M24.39,16.76h0l.22.27a1.88,1.88,0,0,1,.12.18.47.47,0,0,1,0,.09v0h0l-.06,0-.11,0a.53.53,0,0,1-.25,0,1.71,1.71,0,0,1-.56-.2l-.13-.08-.12-.08a1.57,1.57,0,0,1-.19-.15.4.4,0,0,1-.17-.26.08.08,0,0,1,0-.07l.46.05H24l.11,0,0,0,.27.13m.75.27h0l.06.21a1.88,1.88,0,0,0,.12.3l-.21,0,0-.05a.22.22,0,0,0,0-.22.48.48,0,0,0-.09-.14,1,1,0,0,0-.17-.14Zm-.38.3h0S24.77,17.32,24.76,17.33Zm.23.81h0l-.51.06a2.88,2.88,0,0,1-.51,0,1.21,1.21,0,0,1-.43-.15l-.1-.06s0,0-.05-.05a.41.41,0,0,1-.09-.1.53.53,0,0,1-.11-.21,1.31,1.31,0,0,1-.06-.41v-.14a1.67,1.67,0,0,0,.12.16l.11.11.12.1a1.76,1.76,0,0,0,.78.32,1.3,1.3,0,0,0,.52-.05l.15-.07h0l.22.09a.83.83,0,0,1,.22.14.24.24,0,0,1,.11.17v0h0A2.89,2.89,0,0,1,25,18.14Zm-2-1.57h.16l0,0Zm-.6.05h0a1.46,1.46,0,0,0-.38.17l-.12.08-.09.05a.2.2,0,0,1-.16,0l-.13-.06a2.21,2.21,0,0,1,.34-.18,2.29,2.29,0,0,1,.88-.13A1,1,0,0,0,22.35,16.62ZM20.6,17h0a4.6,4.6,0,0,1-.52.19,2.78,2.78,0,0,1-.53.14,1.56,1.56,0,0,1-.9-.07,1,1,0,0,1-.24-.14,5,5,0,0,0,.53,0,3.34,3.34,0,0,0,.69-.06,2.42,2.42,0,0,0,.42-.11l.13-.06s.17-.09.49-.22c.16-.07.36-.14.59-.22a5.19,5.19,0,0,1,.8-.2l.46-.07a1.76,1.76,0,0,1,.46,0,3,3,0,0,1,.79.19l.14.11a1.85,1.85,0,0,1-.27,0c-.2,0-.4,0-.62,0a3.68,3.68,0,0,0-1.32,0A7.69,7.69,0,0,0,20.6,17Zm-2.54,1h0l0,0h0a1.1,1.1,0,0,0-.32.36.33.33,0,0,0-.05.26c0,.11.15.22.25.26l.25.1.18.06s0,0,0,0a.06.06,0,0,1,0,0,.62.62,0,0,1-.32,0l-.27,0h-.27a2,2,0,0,1-.95-.13,0,0,0,0,0,0,0s0,0,0,0a.56.56,0,0,0,.17.11l-.13,0a5.52,5.52,0,0,0-.62.11,2,2,0,0,0-.39.1l-.42.15a1.65,1.65,0,0,1-.46.14,3,3,0,0,1-.52,0c-.17,0-.35,0-.52,0s-.33,0-.49,0h-.85c-.35,0-.63,0-.76,0a.76.76,0,0,1-.06-.25.82.82,0,0,1,0-.31,1.59,1.59,0,0,0,.06-.3,1.09,1.09,0,0,0,0-.26,1.2,1.2,0,0,0-.21-.44l.85,0a3.17,3.17,0,0,0,.91.33,5,5,0,0,0,1.15.09,10.36,10.36,0,0,0,1.11-.08c.37-.05.73-.11,1.09-.18l.54-.11a5.14,5.14,0,0,0,.51-.16,8.51,8.51,0,0,1,1-.28l.34-.06A6.34,6.34,0,0,1,18.06,18ZM11.25,19.8h0a1.67,1.67,0,0,0-.08.32c0,.1,0,.2-.05.3a3.61,3.61,0,0,0,0,.53v.39a.31.31,0,0,0,0,.11H11a.82.82,0,0,0,0-.26,2.33,2.33,0,0,0-.19-.39,5.32,5.32,0,0,0-.45-.7L10,19.78h0s0,0,0,0l.12.33c.07.2.16.46.23.73s.05.27.08.39a2.52,2.52,0,0,0,.14.33,1.72,1.72,0,0,0,.24.32h0s0,0,0,0a.41.41,0,0,0,0-.09.91.91,0,0,0,.06-.26v0a4.46,4.46,0,0,0,.76.13,1.14,1.14,0,0,0,.26,0,.37.37,0,0,0,.15,0,.28.28,0,0,0,.11-.08,1.32,1.32,0,0,0,.2-.31.39.39,0,0,1,.08-.1l.13-.07a.78.78,0,0,0,.2-.11l.17-.12h0a.59.59,0,0,1,0,.2h0s0,0,0,.05a.23.23,0,0,0,.27.09h.14v.19a.51.51,0,0,0,.16.33l.06.07a.29.29,0,0,1,0,.11.21.21,0,0,0,0,.2l0,0s0,0,0,0a.83.83,0,0,1-.24.19,5.13,5.13,0,0,1-.66.34,14.17,14.17,0,0,1-1.52.47l-.78.17a1.93,1.93,0,0,1-.35.05H10l-.08,0-.17,0a2,2,0,0,1-1.06-.7,5.8,5.8,0,0,1-.58-1c-.19-.36-.39-.71-.56-1.07a1.46,1.46,0,0,1-.14-1.1,0,0,0,0,0,0,0h0a1.33,1.33,0,0,0-.13,1.16,10.9,10.9,0,0,0,.42,1.13l.24.55a2.35,2.35,0,0,0,1.63,1.34l-.25-.05c-.65-.11-1.31-.2-2-.28S6,23,5.34,23c-.34,0-.68,0-1,0L4,23a8.52,8.52,0,0,1,.53-1.1c.24-.42.49-.83.76-1.24a10.8,10.8,0,0,1,2-2.26c.21-.18.41-.33.65-.5a.91.91,0,0,0,.45-.71.71.71,0,0,0-.12-.37l-.11-.43a.47.47,0,0,1,.22-.48.78.78,0,0,0,0,.22,1.33,1.33,0,0,0,.33.48,1.38,1.38,0,0,0,.25.17,1.11,1.11,0,0,0,.27.12,1.07,1.07,0,0,0,.45,0l.17,0v0H9.74a1,1,0,0,1-.37-.1.94.94,0,0,1-.54-.7.34.34,0,0,1,0-.2l0,0a0,0,0,0,0,0,0h0c.42,0,.51.1,1,.41l-.12-.35h0v0l.38.26a1.16,1.16,0,0,1-.36-.76A1,1,0,0,0,10,14.8s0-.18,0,.26l-.11.56.51-.58-.1.5.49-.5.73-.88,0,.72.57-.94-.17,1,.4-.58.79-1-.21.86.43-.67,0,1.09a2.87,2.87,0,0,0-1.35.77s1-.83,1.8-.58c0,0-.08-.23-.45-.19l.7-1.11a1.56,1.56,0,0,1,.15.41,1,1,0,0,1-.07.63c-.1.21-.24.41-.36.62a1,1,0,0,0-.15.34c0,.13.07.26.18.34a1.79,1.79,0,0,1,.28.26c.06.08,0,.15-.17.21a.93.93,0,0,1-.2.09l-.11.06a.09.09,0,0,0,0,.13.57.57,0,0,0,.11.16c0,.05.08.11.06.1s-.23.07-.38.07h-.48a.06.06,0,0,0-.08,0s0,.06.05.07a3.39,3.39,0,0,1,.56.17l0,0v0a.11.11,0,0,1,0,.08s-.09.07-.19.1-.08,0-.1.08a.08.08,0,0,0,0,.1.35.35,0,0,1,.06.09s0,0-.12.09l-.29.06-.3,0c-.42,0-.84,0-1.26,0l-.32,0-.32,0H10.4a.29.29,0,0,0-.13.05.29.29,0,0,0-.11.15.57.57,0,0,0,0,.26h0a.15.15,0,0,0,.18.08c.08,0,.14-.06.12-.12h0a.28.28,0,0,1,0-.18.08.08,0,0,1,0-.05h0s0,0,0,0l.32,0h.3s0,.05,0,.07a2.06,2.06,0,0,0,0,.4,1.14,1.14,0,0,0,0,.25,2.12,2.12,0,0,0,.11.29.68.68,0,0,1,.08.31A.91.91,0,0,1,11.25,19.8Zm1.08,3.4h.46l.45,0a3.29,3.29,0,0,1,.89,0l.2.07.15.1a1.48,1.48,0,0,1,.08.13v.14a.1.1,0,0,0,.08.07h0a2.87,2.87,0,0,0,.73.16,2.63,2.63,0,0,0,.79,0l.2,0,.17,0,.24-.05h0a.41.41,0,0,1-.06.11l0,0c0,.05,0,.11,0,.15l.14.09.05.05h0s0,0,0,0l0,0a.25.25,0,0,0-.09.09v0l-.65-.1a3.68,3.68,0,0,0-.49,0,1.37,1.37,0,0,0-.28,0,1,1,0,0,0-.3.08l-.05,0h0l0,0h0l-.09.05a.8.8,0,0,1-.16.08,1.13,1.13,0,0,1-.34.11,4.44,4.44,0,0,1-.83,0c-.3,0-.63,0-.94,0a7.46,7.46,0,0,0-.81.1,3.87,3.87,0,0,0-.65-.23c-.21-.06-.42-.1-.63-.14h0a.59.59,0,0,0,.06-.35.25.25,0,0,0-.12-.18.63.63,0,0,0-.25-.09L10,23.58H10a.2.2,0,0,0,.11,0,2.53,2.53,0,0,0,.47-.08c.27-.07.52-.16.77-.25l.16-.06Zm4.49.48h0v0S16.81,23.68,16.82,23.68Zm.46.92h.24a.49.49,0,0,1,.3.06c.08.05.1.11,0,.16s-.3.08-.34.14a0,0,0,0,0,0,0h-.06s0,0,0,0h.22a.79.79,0,0,0,.24,0h0a.16.16,0,0,1,0,.08s-.07,0-.13.06l-.22.1a.43.43,0,0,0-.12.08.71.71,0,0,0,.15.05.72.72,0,0,0,.29,0l-.12.07h0c-.05,0,0,0,0,0h0a.31.31,0,0,0-.1.05.39.39,0,0,0-.09.08l.15.05.14,0h0s0,0,0,0h.07l-.05,0h0l-.08,0-.14.06-.13.09a.63.63,0,0,0,.17,0h.11a1,1,0,0,1-.3,0l-.24,0-.26-.06-1.05-.2a.27.27,0,0,0-.2,0h0c-.28.18-.58.35-.87.52a6.58,6.58,0,0,1-.92.46l-.49.17c-.15,0-.35.07-.54.1-.39.07-.77.15-1.15.2a9.23,9.23,0,0,1-1.18.09l-.58,0-.58,0c-.39,0-.77,0-1.16.05-.19,0-.39,0-.58,0a2.26,2.26,0,0,1-.26,0,.18.18,0,0,0-.13-.11h0a5.07,5.07,0,0,1-1-.38,2.48,2.48,0,0,1-.42-.26,1.17,1.17,0,0,1-.29-.3A1,1,0,0,1,5.4,26a1,1,0,0,1,0-.17l0-.09a.06.06,0,0,0,0,0l0-.05a.56.56,0,0,1,.09-.19,2,2,0,0,1,.23-.36,3.43,3.43,0,0,1,.33-.33,2.8,2.8,0,0,1,.4-.27A2.41,2.41,0,0,1,7,24.32a3,3,0,0,1,.54-.13,3.79,3.79,0,0,1,.58-.05c.2,0,.39,0,.6,0l.62.06H9.4l1,.27.65.19a4.37,4.37,0,0,1,.58.21c.26.17.55.32.82.48h0a.17.17,0,0,0,.18,0s0-.09,0-.12h0c-.21-.17-.41-.35-.63-.52a5.1,5.1,0,0,1,.68,0,8.78,8.78,0,0,1,.88.1,3.61,3.61,0,0,0,1,0,2,2,0,0,0,.5-.13l.21-.1.1-.05h0l.05,0a.24.24,0,0,1,.12,0h.18a2.84,2.84,0,0,1,.41,0l.91.08ZM4.38,26.67h0a1.29,1.29,0,0,1-.5-.54,1.91,1.91,0,0,1-.18-.66c0-.23-.05-.46-.06-.68a7.82,7.82,0,0,1,0-1.37c0-.15.35-.18.66-.19s.64,0,1,.05c.66,0,1.31.11,2,.18l2,.2,1,.11c.34,0,.34.27.31.48-.18,0-.39,0-.58-.07l-.61-.09-.6-.1a6.27,6.27,0,0,0-.64-.07,3.64,3.64,0,0,0-.66,0,3.44,3.44,0,0,0-.64.12,4.37,4.37,0,0,0-.58.22,4.75,4.75,0,0,0-.5.31,2.37,2.37,0,0,0-.4.37,2.34,2.34,0,0,0-.29.41,1.31,1.31,0,0,0-.1.21l0,.05,0,.07,0,.12a1.13,1.13,0,0,0,0,.26,1,1,0,0,0,.1.24,1.38,1.38,0,0,0,.39.41,3.35,3.35,0,0,0,.52.3h0L5.2,27A2.35,2.35,0,0,1,4.38,26.67ZM17.94,17Zm0,0Zm.4-.31h0a1.57,1.57,0,0,1,.27,0s.07,0,0,0l.12.06c.2.09.43.18.61.24l.22.05A2.25,2.25,0,0,1,19,17a3.61,3.61,0,0,1-.77-.19h0l0,0Zm4-.86h0a1.68,1.68,0,0,1,.32-.09l.17,0H23l.28,0,.2,0a.27.27,0,0,0,0,.14.53.53,0,0,0,.06.19,2.59,2.59,0,0,0-.4-.09,1.77,1.77,0,0,0-.61,0,2.41,2.41,0,0,0-.37.07Zm6.35,1.65a1.27,1.27,0,0,0-.25-.43,3.46,3.46,0,0,0-.39-.37c-.14-.11-.29-.21-.44-.31a1.83,1.83,0,0,0-.58-.27A5.74,5.74,0,0,0,25.7,16a2.81,2.81,0,0,1-.6-.08.46.46,0,0,1-.22-.11,1.53,1.53,0,0,0-.23-.17,1.55,1.55,0,0,0-.64-.19.82.82,0,0,0-.4,0l-.08,0a.82.82,0,0,0-.25-.12,1,1,0,0,0-.4,0,1.52,1.52,0,0,0-.43.12,1.33,1.33,0,0,0-.55.41l-.1.13a6,6,0,0,0-.65.28l-.53.3c-.29.16-.47.24-.47.24l-.13.06a2.79,2.79,0,0,1-.34.07.73.73,0,0,0-.14-.19,1.68,1.68,0,0,0-.51-.37l-.22-.08a.7.7,0,0,0-.34,0,.94.94,0,0,0-.31.17.73.73,0,0,0-.14.19.31.31,0,0,0-.16,0,.17.17,0,0,0-.07.09.32.32,0,0,0,0,.16.76.76,0,0,0,.12.19,1.34,1.34,0,0,0,.43.32h0l-1,.37a2.16,2.16,0,0,1-.49.16,3.07,3.07,0,0,1-.53.07c-.36,0-.73,0-1.1.05s-.72,0-1.08.06a6.23,6.23,0,0,1-1.06,0,4.22,4.22,0,0,1-.79-.14h.14a2.5,2.5,0,0,0,.65-.13.55.55,0,0,0,.15-.08.12.12,0,0,0,.06-.16.52.52,0,0,0-.08-.11h0c.09,0,.24-.07.28-.18a.31.31,0,0,0,0-.13.16.16,0,0,0,0-.09l-.07-.05-.21-.07h.06l.26,0a.36.36,0,0,0,.26-.11.1.1,0,0,0,0-.13l-.06-.07a.94.94,0,0,1-.1-.14s0,0,0,0l.09,0,.2-.09a1.37,1.37,0,0,0,.2-.13.15.15,0,0,0,0-.21,1.38,1.38,0,0,0-.3-.29c-.1-.08-.17-.16-.14-.26a1.4,1.4,0,0,1,.15-.3c.13-.21.26-.41.38-.63a1.11,1.11,0,0,0,.12-.56l.19.55a2.14,2.14,0,0,0-1.38-2.31l-.07,0-.22-.12-.32-.11a7.19,7.19,0,0,0-3.67-.41c-1.13.14-3.46,1.24-3.36,3.11S7.29,16.44,7.85,17a.51.51,0,0,1,.07.22.65.65,0,0,1-.32.49,7.67,7.67,0,0,0-.64.52A9.4,9.4,0,0,0,5,20.59c-.24.42-.47.84-.67,1.27A9.58,9.58,0,0,0,4,23l-.18,0a.93.93,0,0,0-.27.12.33.33,0,0,0-.12.23c0,.47.08.92.1,1.38a5.08,5.08,0,0,0,.21,1.38,1.43,1.43,0,0,0,.5.64,2.57,2.57,0,0,0,.91.38c.35.07.67.1,1,.15s.66.08,1,.1a.28.28,0,0,0,.21-.09,7.82,7.82,0,0,0,2.05.15,7.76,7.76,0,0,0,1.18-.14c.38-.07.77-.14,1.15-.19s.79-.08,1.17-.11c.19,0,.39,0,.61,0a5.26,5.26,0,0,0,.6-.15,7.36,7.36,0,0,0,1.83-1l.95.08.28,0a1.51,1.51,0,0,0,.3,0,.83.83,0,0,0,.46-.18.35.35,0,0,0,.11,0c.17-.09.17-.21.15-.28a.17.17,0,0,0-.07-.11.17.17,0,0,0,0-.1.32.32,0,0,0-.06-.08.26.26,0,0,0,.09-.09.14.14,0,0,0,0-.16.24.24,0,0,0-.13-.07.2.2,0,0,0,.13-.14.25.25,0,0,0-.09-.21.87.87,0,0,0-.5-.19h-.22l-.21,0H17l0,0h.05a.24.24,0,0,0,.09-.06.13.13,0,0,0,0-.14.31.31,0,0,0-.05-.1l0-.06a.38.38,0,0,0,.13-.24.27.27,0,0,0-.17-.23.72.72,0,0,0-.3-.07,1.6,1.6,0,0,0-.46.06l-.16.05-.14,0a3,3,0,0,1-.62.06c-.2,0-.42,0-.62,0l-.05-.1c0-.05-.1-.1-.15-.15l-.19-.12-.22-.08L14,23a2.1,2.1,0,0,0-.24-.06l-.23,0-.25,0a5.11,5.11,0,0,0-1,.05l-.16,0,.72-.27c.25-.1.46-.22.7-.33a1.72,1.72,0,0,0,.33-.22.31.31,0,0,0,0-.1.16.16,0,0,0,0-.11s0,0,0-.07A.34.34,0,0,0,14,21.7a.22.22,0,0,0,0-.11s0,0,0-.05l0,0a.27.27,0,0,1-.05-.22v-.21a.22.22,0,0,0,0-.14.5.5,0,0,0-.37-.13h0a.5.5,0,0,0-.1-.19.53.53,0,0,0-.12-.1.51.51,0,0,0-.25-.06.43.43,0,0,0-.23.08.35.35,0,0,0-.09.07l-.14.11-.13.08a1,1,0,0,0-.21.14.44.44,0,0,0-.11.18,1.42,1.42,0,0,1-.12.27s0,0,0,0l0,0-.18,0a4.73,4.73,0,0,1-.53,0l.08-.08A1.47,1.47,0,0,0,11.5,21a1.14,1.14,0,0,0,.09-.26,1.54,1.54,0,0,0,0-.3c0-.11,0-.21,0-.32a1.53,1.53,0,0,0-.07-.29s0,0,.05,0a2.2,2.2,0,0,0,.61.19,3.11,3.11,0,0,0,.44.06,2.78,2.78,0,0,0,.5,0,4.57,4.57,0,0,0,.52-.05,3,3,0,0,0,.52-.11l.51-.12a4.26,4.26,0,0,1,.5-.06,3.65,3.65,0,0,0,.49-.06,3.26,3.26,0,0,0,.4-.11,2.9,2.9,0,0,0,.7-.34.94.94,0,0,0,.15.06,3.46,3.46,0,0,0,.53.09l.25,0,.24,0a2.51,2.51,0,0,0,.31,0,.91.91,0,0,0,.37-.09.34.34,0,0,0,.18-.28v-.06s0,0,0-.06a.46.46,0,0,0-.13-.16,2.31,2.31,0,0,0-.27-.12,1.19,1.19,0,0,1-.2-.08l0,0a.13.13,0,0,1,0-.08,1,1,0,0,1,.2-.24,6,6,0,0,0,.86-.47.9.9,0,0,0,.11-.1v0a1.86,1.86,0,0,0,.33,0c.21-.05.42-.12.6-.18l.56-.25a5.55,5.55,0,0,0,.48-.29.41.41,0,0,0,.06.11.38.38,0,0,0,.17.11.73.73,0,0,0,.3,0,1,1,0,0,0,.45-.18l.26-.16.25-.13.25-.1h0a.34.34,0,0,0,0,.36v0h0a.85.85,0,0,0-.15.15.7.7,0,0,0-.16.47.52.52,0,0,0,.17.34.62.62,0,0,0,.21.13l.14.05.12,0,.45.07-.09.06a.33.33,0,0,0-.09.42.66.66,0,0,0,.08.13l.06.06.06,0a1.48,1.48,0,0,0,.37.21,2.57,2.57,0,0,0,.75.16.9.9,0,0,0,.24.31,1.27,1.27,0,0,0,.6.31c.12,0,.25,0,.37.06l.35,0c.12,0,.24,0,.36.06l.23,0c.08.11.17.21.26.32a3.47,3.47,0,0,0,.34.32,3.87,3.87,0,0,0,.86.56h0s0,0,0,0a2.72,2.72,0,0,0-.49-.74,3.59,3.59,0,0,0-.35-.32c-.13-.1-.25-.21-.39-.3l-.05,0a.16.16,0,0,0-.12,0,1.64,1.64,0,0,1-.32.05,1.29,1.29,0,0,1-.34,0,1.31,1.31,0,0,1-.57-.22c-.16-.1-.33-.18-.5-.27l-.2-.12a2.56,2.56,0,0,0,.39,0,1.31,1.31,0,0,0,.46-.15c.15-.07.3-.2.27-.36s-.2-.22-.3-.27a2.15,2.15,0,0,0-.57-.11h-.21l.18.07a2,2,0,0,1,.43.2c.07,0,.12.1.1.13s-.05.06-.14.09a1.44,1.44,0,0,1-.33.09,2.47,2.47,0,0,1-.39,0,3,3,0,0,1-.76-.1,1.44,1.44,0,0,1-.3-.12l-.07,0,0,0-.1-.08a.26.26,0,0,1-.07-.31l0-.08h0l.52.1a3.75,3.75,0,0,0,1.11,0,.88.88,0,0,0,.31-.12,2.2,2.2,0,0,0,.48.35,2.27,2.27,0,0,0,.86.26h0s0,0,0,0a2.48,2.48,0,0,1-.71-.35,2.21,2.21,0,0,1-.47-.5,2.66,2.66,0,0,1-.28-.56l-.09-.29c0-.1,0-.2-.05-.29a.22.22,0,0,0-.18-.16h0a5.34,5.34,0,0,1-.53-.16,3.26,3.26,0,0,1-.5-.2,1.75,1.75,0,0,1-.4-.27.64.64,0,0,1-.24-.31.08.08,0,0,1,0-.09.5.5,0,0,1,.2,0,1.23,1.23,0,0,1,.53.11.85.85,0,0,1,.22.13A1,1,0,0,0,25,16a4.92,4.92,0,0,0,.64.09,4.05,4.05,0,0,1,1.16.22,1.64,1.64,0,0,1,.42.26l.43.31a3.87,3.87,0,0,1,.37.32,1.54,1.54,0,0,1,.28.35,3.7,3.7,0,0,0,.68.75h0s0,0,0,0C28.92,18,28.76,17.77,28.65,17.51Z"/><polygon class="cls-4" points="4.51 1.43 3.88 1.43 3.88 1.19 5.53 1.19 5.53 1.43 4.9 1.43 4.9 3.55 4.51 3.55 4.51 1.43"/><path class="cls-4" d="M5.81,2.7h0c0,.28.07.67.43.67s.4-.4.4-.67S6.58,2,6.23,2s-.42.4-.42.66M7,2.7a.79.79,0,0,1-.82.88.77.77,0,0,1-.8-.87.79.79,0,0,1,.82-.88A.78.78,0,0,1,7,2.7Z"/><path class="cls-4" d="M7.43,2.29c0-.2,0-.3,0-.44h.34l0,.21h0a.71.71,0,0,1,.56-.23.54.54,0,0,1,.52.25h0a.72.72,0,0,1,.24-.19,1,1,0,0,1,.35-.06.53.53,0,0,1,.59.6V3.55H9.66V2.49c0-.22,0-.44-.35-.44A.38.38,0,0,0,9,2.31a.66.66,0,0,0,0,.15V3.55H8.55V2.44c0-.19-.05-.39-.35-.39a.38.38,0,0,0-.37.28.61.61,0,0,0,0,.14V3.55H7.43Z"/><path class="cls-4" d="M11.47,2.67h0c-.2,0-.68,0-.68.4a.29.29,0,0,0,.3.3.35.35,0,0,0,.37-.26.28.28,0,0,0,0-.09Zm.06.88,0-.18h0a.62.62,0,0,1-.49.21c-.33,0-.59-.19-.59-.48s.5-.62,1.05-.62v0c0-.23-.08-.39-.39-.39a.91.91,0,0,0-.41.09l-.09-.19a1.52,1.52,0,0,1,.58-.11c.5,0,.71.22.71.6v.74a1.54,1.54,0,0,0,0,.38Z"/><path class="cls-4" d="M14,2.67h0c-.21,0-.68,0-.68.4a.28.28,0,0,0,.3.3A.37.37,0,0,0,14,3.11.28.28,0,0,0,14,3Zm.05.88,0-.18h0a.62.62,0,0,1-.49.21c-.33,0-.59-.19-.59-.48s.5-.62,1.06-.62v0c0-.23-.09-.39-.4-.39a.91.91,0,0,0-.41.09l-.08-.19a1.46,1.46,0,0,1,.57-.11c.5,0,.72.22.72.6v.74a2.3,2.3,0,0,0,0,.38Z"/><rect class="cls-4" x="14.93" y="1.12" width="0.39" height="2.43"/><path class="cls-4" d="M17,2.44h0a.43.43,0,0,0,0-.12.36.36,0,0,0-.36-.26c-.29,0-.44.26-.44.64s.2.63.44.63a.35.35,0,0,0,.35-.24.5.5,0,0,0,0-.16Zm.41-.59c0,.12,0,.27,0,.53v1c0,.45-.08.62-.25.74a1.06,1.06,0,0,1-.66.18,1.62,1.62,0,0,1-.54-.08L16,4a1.59,1.59,0,0,0,.46.07c.31,0,.51-.13.51-.52V3.34h0a.58.58,0,0,1-.48.21.74.74,0,0,1-.72-.84.78.78,0,0,1,.77-.88.51.51,0,0,1,.46.22h0l0-.2Z"/><path class="cls-4" d="M18.13,2.7h0c0,.28.07.67.43.67S19,3,19,2.7,18.9,2,18.55,2s-.42.4-.42.66m1.23,0a.79.79,0,0,1-.82.88.77.77,0,0,1-.8-.87.79.79,0,0,1,.83-.88A.77.77,0,0,1,19.36,2.7Z"/><path class="cls-4" d="M21.6,2.49h0a.37.37,0,0,0,0-.11.37.37,0,0,0-.35-.32c-.33,0-.45.29-.45.65s.13.65.44.65a.36.36,0,0,0,.35-.29.34.34,0,0,0,0-.14Zm0,.89h0a.59.59,0,0,1-.48.2c-.4,0-.71-.3-.71-.86a.78.78,0,0,1,.77-.89.5.5,0,0,1,.46.22h0l0-.2H22c0,.12,0,.27,0,.53V4.23h-.4Z"/><path class="cls-4" d="M24,3.09c0,.19,0,.34,0,.46h-.34l0-.18h0a.73.73,0,0,1-.53.21c-.44,0-.61-.23-.61-.65V1.85h.4v1c0,.27.06.46.33.46a.35.35,0,0,0,.35-.22.41.41,0,0,0,0-.16V1.85H24Z"/><path class="cls-4" d="M25.54,2.53h0c0-.34-.18-.49-.37-.49s-.39.26-.41.49Zm-.78.2c0,.52.3.63.59.63a1.16,1.16,0,0,0,.41-.07l.06.2a1.52,1.52,0,0,1-.55.08.8.8,0,0,1-.9-.85.81.81,0,0,1,.84-.89.67.67,0,0,1,.7.75v.15Z"/><path class="cls-4" d="M1.71,6.43a1,1,0,0,0,.4.09c.22,0,.36-.1.36-.25s-.06-.22-.31-.33-.5-.29-.5-.49S2,5,2.34,5a1.27,1.27,0,0,1,.45.09l-.11.2a.81.81,0,0,0-.33-.07c-.22,0-.32.11-.32.21s.06.18.3.3.52.28.52.51-.34.51-.75.51a1.15,1.15,0,0,1-.49-.1Z"/><path class="cls-4" d="M4.26,5.68h0c0-.34-.18-.49-.37-.49s-.39.26-.4.49Zm-.78.2c0,.52.3.64.59.64a1.12,1.12,0,0,0,.41-.07l.06.2A1.75,1.75,0,0,1,4,6.73a.79.79,0,0,1-.9-.85A.81.81,0,0,1,3.93,5a.68.68,0,0,1,.71.75.62.62,0,0,1,0,.15Z"/><rect class="cls-4" x="5.76" y="4.28" width="0.39" height="2.43"/><path class="cls-4" d="M7.74,5.68h0c0-.34-.18-.49-.37-.49S7,5.45,7,5.68ZM7,5.88c0,.52.3.64.58.64A1.08,1.08,0,0,0,8,6.45l.07.2a1.77,1.77,0,0,1-.55.08.8.8,0,0,1-.9-.85A.82.82,0,0,1,7.42,5a.68.68,0,0,1,.7.75v.15Z"/><path class="cls-4" d="M9.64,6.08h0a.53.53,0,0,0,0,.14.37.37,0,0,0,.37.29c.32,0,.42-.31.42-.65s-.12-.65-.43-.65a.39.39,0,0,0-.36.31.62.62,0,0,0,0,.13Zm-.4-.54c0-.26,0-.41,0-.53h.35l0,.22h0A.64.64,0,0,1,10.13,5c.43,0,.71.32.71.88s-.37.88-.76.88a.48.48,0,0,1-.43-.2h0v.84h-.4Z"/><path class="cls-4" d="M11.52,5.86h0c0,.28.07.66.43.66s.41-.4.41-.66-.07-.66-.42-.66-.42.4-.42.66m1.24,0a.8.8,0,0,1-.83.88.78.78,0,0,1-.8-.88A.8.8,0,0,1,12,5,.78.78,0,0,1,12.76,5.86Z"/><path class="cls-4" d="M13.15,5.45c0-.2,0-.3,0-.44h.35l0,.2h0A.74.74,0,0,1,14.07,5a.54.54,0,0,1,.6.59V6.71h-.4V5.61c0-.2-.06-.4-.34-.4a.39.39,0,0,0-.38.28.66.66,0,0,0,0,.15V6.71h-.39Z"/><path class="cls-4" d="M16.27,5.6h0a.27.27,0,0,0,0-.13.36.36,0,0,0-.36-.26c-.28,0-.44.27-.44.64s.2.64.44.64a.36.36,0,0,0,.36-.25.39.39,0,0,0,0-.15ZM16.68,5c0,.12,0,.27,0,.53v1c0,.45-.08.62-.24.74a1.15,1.15,0,0,1-.66.18,1.68,1.68,0,0,1-.55-.08l.09-.21a1.67,1.67,0,0,0,.47.07c.31,0,.5-.13.5-.52V6.5h0a.54.54,0,0,1-.47.21.75.75,0,0,1-.73-.84A.79.79,0,0,1,15.84,5a.52.52,0,0,1,.46.22h0l0-.19Z"/><path class="cls-4" d="M18.08,5.83h0c-.21,0-.68,0-.68.39a.28.28,0,0,0,.3.31.37.37,0,0,0,.37-.26.31.31,0,0,0,0-.09Zm.05.88,0-.18h0a.61.61,0,0,1-.49.21A.53.53,0,0,1,17,6.25c0-.42.5-.61,1.06-.62v0c0-.23-.08-.38-.4-.38a1.07,1.07,0,0,0-.41.08l-.08-.18A1.29,1.29,0,0,1,17.76,5c.49,0,.71.23.71.61v.73a2.42,2.42,0,0,0,0,.39Z"/><path class="cls-4" d="M20.78,5.68h0c0-.34-.18-.49-.37-.49s-.39.26-.41.49Zm-.78.2c0,.52.3.64.59.64A1.16,1.16,0,0,0,21,6.45l.06.2a1.77,1.77,0,0,1-.55.08.8.8,0,0,1-.9-.85.82.82,0,0,1,.84-.9.68.68,0,0,1,.7.75v.15Z"/><path class="cls-4" d="M21.53,5.45c0-.2,0-.3,0-.44h.34l0,.2h0A.74.74,0,0,1,22.45,5a.54.54,0,0,1,.6.59V6.71h-.4V5.61c0-.2,0-.4-.34-.4a.38.38,0,0,0-.37.28.61.61,0,0,0,0,.15V6.71h-.39Z"/><rect class="cls-4" x="24.3" y="4.28" width="0.39" height="2.43"/><path class="cls-4" d="M26.15,5.83h0c-.21,0-.68,0-.68.39a.28.28,0,0,0,.3.31.37.37,0,0,0,.37-.26.31.31,0,0,0,0-.09Zm.05.88,0-.18h0a.62.62,0,0,1-.49.21.53.53,0,0,1-.59-.49c0-.42.5-.61,1.06-.62v0c0-.23-.09-.38-.4-.38a1.07,1.07,0,0,0-.41.08l-.08-.18A1.28,1.28,0,0,1,25.82,5c.5,0,.72.23.72.61v.73a2.42,2.42,0,0,0,0,.39Z"/><path class="cls-4" d="M16.42,9.82a1,1,0,0,1-.41.07.81.81,0,0,1-.9-.86.88.88,0,0,1,1-.89,1,1,0,0,1,.35.06l-.07.22a.89.89,0,0,0-.29-.05A.59.59,0,0,0,15.5,9a.56.56,0,0,0,.58.63.88.88,0,0,0,.29,0Z"/><path class="cls-4" d="M18.21,9.4c0,.19,0,.34,0,.47h-.34l0-.18h0a.78.78,0,0,1-.54.2c-.43,0-.6-.23-.6-.65V8.17h.39v1c0,.27.06.47.34.47a.34.34,0,0,0,.35-.23.68.68,0,0,0,0-.15V8.17h.39Z"/><path class="cls-4" d="M19.92,9.82a1,1,0,0,1-.41.07.81.81,0,0,1-.9-.86.88.88,0,0,1,1-.89,1,1,0,0,1,.35.06l-.08.22a.77.77,0,0,0-.28-.05A.59.59,0,0,0,19,9a.56.56,0,0,0,.58.63.88.88,0,0,0,.29,0Z"/><path class="cls-4" d="M20.21,7.44h.39v.91h0a.66.66,0,0,1,.21-.15.78.78,0,0,1,.33-.06.54.54,0,0,1,.58.6V9.87h-.4V8.77c0-.21-.06-.4-.33-.4a.38.38,0,0,0-.38.27.59.59,0,0,0,0,.13v1.1h-.39Z"/><path class="cls-4" d="M23.15,9h0c-.2,0-.68,0-.68.39a.28.28,0,0,0,.3.3.35.35,0,0,0,.37-.25.34.34,0,0,0,0-.1Zm.06.88,0-.18h0a.64.64,0,0,1-.5.2.52.52,0,0,1-.58-.48c0-.42.49-.61,1.05-.62v0c0-.23-.08-.39-.39-.39a1,1,0,0,0-.41.09l-.09-.19a1.48,1.48,0,0,1,.58-.11c.5,0,.71.22.71.61v.73a1.63,1.63,0,0,0,0,.39Z"/><path class="cls-4" d="M24,8.61c0-.15,0-.32,0-.44h.36l0,.27h0a.58.58,0,0,1,.52-.3H25v.28h-.08a.47.47,0,0,0-.48.35.81.81,0,0,0,0,.16v.94H24Z"/><path class="cls-4" d="M26.15,9h0c-.21,0-.68,0-.68.39a.28.28,0,0,0,.3.3.36.36,0,0,0,.37-.25.34.34,0,0,0,0-.1Zm.05.88,0-.18h0a.6.6,0,0,1-.49.2c-.33,0-.59-.19-.59-.48s.5-.61,1.06-.62v0c0-.23-.08-.39-.4-.39a1.07,1.07,0,0,0-.41.09l-.08-.19a1.48,1.48,0,0,1,.58-.11c.49,0,.71.22.71.61v.73a2.42,2.42,0,0,0,0,.39Z"/></svg>