<svg id="Capa_1" data-name="Capa 1" xmlns="http://www.w3.org/2000/svg" viewBox="0 0 29.88 26.46"><defs><style>.cls-1{fill:#f8992f;}.cls-2{fill:#f5a4c7;}.cls-3{fill:#fbc9b5;}.cls-4{fill:#231f20;}</style></defs><title>3-4meses</title><path class="cls-1" d="M14.46,17.22s.13-1.66.7-1.84,1.68-.52,1.68-.52,1.79.12,2.21.56A5.4,5.4,0,0,1,20,17.86a5.15,5.15,0,0,1-1.5,1.23c-.29,0-4-.62-4-1.87"/><path class="cls-2" d="M10.79,22.88s-.91.87-.64,1.22,2.07.54,3.42.32a5.78,5.78,0,0,0,2.72-.92.86.86,0,0,0,.18-1.14c-.13-.25-4.3-4.51-4.3-4.51a2.52,2.52,0,0,0-1.28.11A3.26,3.26,0,0,0,9.43,19Z"/><path class="cls-3" d="M9.6,18.92c.05-.05.45-.72.45-.72a4.24,4.24,0,0,0-.8-.85c-.31-.17-1.41-.66-1.77-.82a11.17,11.17,0,0,1-1.27-.85,4.29,4.29,0,0,0,.47-.94A2.56,2.56,0,0,0,6.73,14c0-.19-.34-.45-.34-.45s0-.13-.23-.26a1,1,0,0,1-.37-.41.53.53,0,0,0-.57-.08.78.78,0,0,0-.37.51c-.07.17-.38.29-.53.32s-.28.17-.42.43a11.17,11.17,0,0,1-1.38,1.38c-.37.32.1.81.47.94a7.1,7.1,0,0,0,1,.25,7,7,0,0,0,1,1.47,5.07,5.07,0,0,0,1.38.57s-.31,0-.33.59a2.37,2.37,0,0,0,0,.72,9,9,0,0,0-1,1.11c-.14.28-.49,1.14-.88,1.19A3.68,3.68,0,0,1,3,22.06a2.94,2.94,0,0,0-1-.57c-.3,0-.13-.22-.38-.07s-.44.43-.27.53a.9.9,0,0,0,.37.09s-.25.19-.1.42.18.29.18.29-.17.24,0,.35.28-.06.19.16-.44.28-.06.37.47.14,1.12.3.4.39,1,.5a4,4,0,0,0,1.93-.05c.39-.2.5-.59.78-.84a8.15,8.15,0,0,1,1-.68,6.22,6.22,0,0,0,1.33.46c.92.22,1.28.29,1.28.29s1.87.22,2-.51a4.69,4.69,0,0,0-.6-2.88,6,6,0,0,0-2-1Z"/><path class="cls-3" d="M15.16,17.41a2,2,0,0,0,.09.42c.06.13.51.19.51.19s1.52.12,1.73.15.42,0,.56,0,1.27-1,1.29-1.43a2.29,2.29,0,0,0-.1-1,1.29,1.29,0,0,0-.19-.29,1.28,1.28,0,0,1,.86-.49,2.48,2.48,0,0,0,1.14-.42c.11-.12,1.12-1.5,2-1.48a5.88,5.88,0,0,1,2.29.71c.16.11,2,2.06,1.94,4s-.62,2.09-.73,2.2-1.57.55-1.6.58-.9.39-.9.39h-.89l-.09.16a.19.19,0,0,0-.07.18,1.78,1.78,0,0,1-.26.65,3.39,3.39,0,0,1-1.16.92,2,2,0,0,1-1.9-.23c-.8-.57-.93-.53-.93-.53a9.28,9.28,0,0,0-1.15.1,7.62,7.62,0,0,0-1.46.4,1.77,1.77,0,0,1-1-.26A11,11,0,0,1,12.7,19.9c-.57-.95-.83-1.47-.72-1.82a1.91,1.91,0,0,1,1.29-1.47c.92-.23,1.12-.21,1.38,0a4,4,0,0,1,1.11.77c.19.29.08.43-.17.28a2.6,2.6,0,0,0-.43-.22"/><path class="cls-4" d="M16.11,15.16h0l.21-.05a3.7,3.7,0,0,1,1-.13,2.8,2.8,0,0,1,1.11.24,1.38,1.38,0,0,1,.7.64,1.23,1.23,0,0,1,.08.8,1.34,1.34,0,0,1-.36.71,2.1,2.1,0,0,1-.71.49l0-.06a.78.78,0,0,0,.07-.23.92.92,0,0,0,0-.29,1.87,1.87,0,0,0,0-.32,1.19,1.19,0,0,0-.13-.34,2.19,2.19,0,0,0-.23-.33,2.76,2.76,0,0,0-.3-.29,3.75,3.75,0,0,0-.36-.24,3.66,3.66,0,0,0-.75-.33,4.68,4.68,0,0,0-.69-.15l.06,0,.23-.09m-2.95,1.53a3.05,3.05,0,0,1,.8-.14,1.77,1.77,0,0,1,.4,0,.34.34,0,0,1,.15.06l.17.09c.23.13.48.22.68.34a1.37,1.37,0,0,1,.44.46.25.25,0,0,1,0,.07l-.16,0-.15-.08A2,2,0,0,1,15,17a.15.15,0,0,0-.16,0c-.08,0-.11.07-.08.12a5.11,5.11,0,0,1,.22.48.71.71,0,0,1,.06.23v0l-.1-.05-.1-.08a.83.83,0,0,1-.16-.21,1.51,1.51,0,0,1-.11-.22,2.33,2.33,0,0,0-.07-.25c0-.06-.09-.09-.16-.09s-.15.06-.14.12h0v0a1.21,1.21,0,0,0,.08.25l.06.31a1.31,1.31,0,0,1,0,.28.23.23,0,0,1,0,.1h0l-.09,0s0,0,0,0a.52.52,0,0,1-.1-.11,2.1,2.1,0,0,1-.13-.26,1.89,1.89,0,0,1-.05-.23c0-.12,0-.24-.05-.37a.14.14,0,0,0-.14-.08c-.07,0-.13.05-.13.1a2.78,2.78,0,0,0,.08.49.13.13,0,0,0,0,.06v.27a.51.51,0,0,1,0,.13.34.34,0,0,1,0,.1s0,0,0,0h0a.27.27,0,0,1-.12-.07.51.51,0,0,1-.15-.23,1.63,1.63,0,0,1-.12-.53h0s0-.05-.08-.05-.08,0-.08.06h0v0a2.11,2.11,0,0,0,0,.26.62.62,0,0,1,0,.19A.82.82,0,0,1,13,18a.36.36,0,0,1,0,.11.16.16,0,0,1-.08.06.28.28,0,0,1-.12,0L12.68,18a.59.59,0,0,1-.16-.2.45.45,0,0,1,0-.46.47.47,0,0,0-.06.47.51.51,0,0,0,.15.21l.12.1a.56.56,0,0,0,.17.06.23.23,0,0,0,.17-.09.67.67,0,0,0,.06-.12.17.17,0,0,1,0-.07.52.52,0,0,0,.14.2.41.41,0,0,0,.17.12h.16a.27.27,0,0,0,.16-.07.24.24,0,0,0,.09-.16h0a.32.32,0,0,0,.08.09l.11.08.1,0a.52.52,0,0,0,.21,0,.23.23,0,0,0,.17-.08.36.36,0,0,0,.09-.19V17.9l.1.07.19.09a.34.34,0,0,0,.16,0,.26.26,0,0,0,.19-.08.27.27,0,0,0,0-.18,1.2,1.2,0,0,0-.08-.27s0,0,0,0l.13.09.2.09.22.07a.53.53,0,0,0,.18,0c.1,0,.14-.1.13-.14a.32.32,0,0,0-.06-.18,1.6,1.6,0,0,0-.53-.5c-.23-.13-.49-.22-.71-.33l-.08,0a.06.06,0,0,1,0,0,.94.94,0,0,1,.07-.28,1.65,1.65,0,0,1,.74-.82l.24-.13.59.3c.18.11.39.24.59.38a3.11,3.11,0,0,1,.53.49,1.37,1.37,0,0,1,.21.28,1.51,1.51,0,0,1,.15.28,1.71,1.71,0,0,1,.09.27,1.38,1.38,0,0,1,.06.26,2.08,2.08,0,0,1,0,.23v.13a2.93,2.93,0,0,1-.69.18A4.11,4.11,0,0,1,15.93,18a3.6,3.6,0,0,1-.39-.11l-.14,0,0,0,.11.06a1.69,1.69,0,0,0,.36.18,3,3,0,0,0,.64.2,3.7,3.7,0,0,0,.92.07,4.65,4.65,0,0,0,.61-.08l0,0,.22.14a6.88,6.88,0,0,0,.71.34,6.64,6.64,0,0,0,1.13.31,6,6,0,0,1-1-.46,3.42,3.42,0,0,1-.55-.4l-.11-.1h0a2.24,2.24,0,0,0,.88-.61l.11-.16a.1.1,0,0,0,.05,0,1.55,1.55,0,0,0,1.45.17c-.39-.15-1.23-1.33-1.23-1.33a.28.28,0,0,1,0,.2,1.24,1.24,0,0,0-.27-.69,2.13,2.13,0,0,0-.88-.66,4,4,0,0,0-1.16-.33,3.56,3.56,0,0,0-1.22,0l-.29.07-.22.09a3.35,3.35,0,0,0-.43.23,1.32,1.32,0,0,0-.65,1,1.15,1.15,0,0,0,0,.3.86.86,0,0,0-.21-.07,2.37,2.37,0,0,0-.46,0,3.71,3.71,0,0,0-.83.18,1.26,1.26,0,0,0-.61.42,1.91,1.91,0,0,0-.33.54,2,2,0,0,1,.37-.53A1.31,1.31,0,0,1,13.16,16.69Z"/><path class="cls-4" d="M23,21.24h0a.63.63,0,0,0,.24-.18.41.41,0,0,0,.05-.09l.52.1-.05,0h-.12l-.26,0v0h.16l-.48.18L23,21.24m.46-.8h0l.07,0a.34.34,0,0,0,.14.05l-.26.1v-.06a1,1,0,0,0,0-.17Zm-.07.29h0a.17.17,0,0,0,0-.07l.62,0-.68.22A.48.48,0,0,0,23.42,20.73ZM8,22.93H8a3.41,3.41,0,0,0,.45-.39,1,1,0,0,0,.22-.35.84.84,0,0,0,0-.38,1,1,0,0,0-.11-.37,1.72,1.72,0,0,0-.22-.33H8.33a1.68,1.68,0,0,1,.15.34.85.85,0,0,1,0,.35.64.64,0,0,1-.08.33.93.93,0,0,1-.23.3,4.42,4.42,0,0,1-.71.49c-.13.08-.28.17-.4.26a2.06,2.06,0,0,0-.34.31c-.2.23-.29.48-.46.64a.92.92,0,0,1-.31.17l-.22.06-.2,0a2.53,2.53,0,0,1-.9-.09l-.44-.14A3.89,3.89,0,0,1,3.83,24L3.7,24a3.26,3.26,0,0,1-.53-.09l-.12,0,.16,0a.19.19,0,0,0,.15-.13c0-.1-.08-.18-.22-.19h0a3.45,3.45,0,0,0-.65,0l-.19,0-.07,0H2.17a.52.52,0,0,1,.13-.11,2.27,2.27,0,0,1,.41-.22h0c.1,0,.14-.13.08-.2a.25.25,0,0,0-.28,0h0a.63.63,0,0,1-.18.06.57.57,0,0,1-.18,0,.29.29,0,0,1-.14,0s0,0,0,0l0,0,.16-.09h0l.15-.05.28-.13a.09.09,0,0,0,0-.12.16.16,0,0,0-.19,0h0L2,22.6l0,0a.17.17,0,0,1-.11-.06s0,0-.05-.08a.31.31,0,0,1,0-.25.24.24,0,0,1,.18-.05h0l.54.11a.11.11,0,0,0,.1,0s0-.07,0-.08a2.35,2.35,0,0,0-.62-.13H1.85L1.55,22h0c-.05,0-.08-.07-.06-.15a.77.77,0,0,1,.1-.23c.05-.09.11-.15.18-.15a.51.51,0,0,1,.26.08,6,6,0,0,0,1.19.7l.22.05.21,0,.35.05a1.06,1.06,0,0,0,.5,0,.72.72,0,0,0,.33-.26,5.52,5.52,0,0,0,.55-1,3.42,3.42,0,0,1,.26-.46A1.91,1.91,0,0,1,6,20.25a1.45,1.45,0,0,1,.26-.17c.1,0,.19-.11.29-.15a6.05,6.05,0,0,1,.64-.24,5.38,5.38,0,0,1,.69-.18,5.86,5.86,0,0,1,.73-.13c.23,0,.46-.07.7-.09l.51,0c0,.05,0,.05,0,.06l.13,0,.2.08.21.1a4.58,4.58,0,0,1,.75.56,4,4,0,0,1,1,1.37,2.72,2.72,0,0,1,.11.38,2.52,2.52,0,0,1,0,.37,2.64,2.64,0,0,1,0,.4,1.18,1.18,0,0,1-.09.37,1,1,0,0,1-.22.33,1.12,1.12,0,0,1-.41.2,2.07,2.07,0,0,1-1.07-.09h0a.12.12,0,0,0-.13,0l0,0ZM6.14,19.31h0A1,1,0,0,1,6.27,19a.85.85,0,0,1,.23-.26.08.08,0,0,0,0-.05c0-.05,0-.1-.12-.11h0A3.12,3.12,0,0,1,6,18.48a2.4,2.4,0,0,1-.4-.17A1.66,1.66,0,0,1,5,17.79a2.38,2.38,0,0,1-.17-.31,2.24,2.24,0,0,1-.11-.34.87.87,0,0,0-.25-.39,1.16,1.16,0,0,0-.21-.16A2.09,2.09,0,0,0,4,16.46H3.92a4,4,0,0,1-.52-.12A1.48,1.48,0,0,1,3,16.14a.44.44,0,0,1-.19-.58A.67.67,0,0,1,3,15.3l.11-.06.14-.07L3.54,15a1.65,1.65,0,0,0,.5-.85,1.45,1.45,0,0,1,.11-.35s.17-.05.39-.06A.83.83,0,0,0,5,13.6.23.23,0,0,0,5,13.42a.51.51,0,0,0,0-.13c0-.12,0-.25,0-.3s.23-.09.42-.09h.22a.15.15,0,0,1,.09.12.83.83,0,0,1,0,.38,2.09,2.09,0,0,1-.13.35l0,.06s0,.06.06.07a.1.1,0,0,0,.12,0A3,3,0,0,0,6,13.45.83.83,0,0,0,6,13.24a.34.34,0,0,1,.15.06.19.19,0,0,1,.08.17.64.64,0,0,1-.15.4s0,.06,0,.08a.11.11,0,0,0,.12,0h0l.24-.28a.19.19,0,0,1,.08.07.25.25,0,0,1,0,.17.14.14,0,0,1,0,.06l0,.05-.13.28h0c0,.05,0,.11.08.13a.19.19,0,0,0,.17,0v.06a1,1,0,0,1-.15.39,3.94,3.94,0,0,1-.59.73h0a.12.12,0,0,0,0,.2c.35.23.71.44,1.09.64A9.85,9.85,0,0,0,8.17,17l.31.12a1.39,1.39,0,0,1,.28.12,3.11,3.11,0,0,1,.51.3,2.25,2.25,0,0,1,.59.65l-.17.15a2.21,2.21,0,0,0-.25.3,2.41,2.41,0,0,0-.15.33,1.22,1.22,0,0,0-.06.26,9.12,9.12,0,0,0-2.15.28,5.93,5.93,0,0,0-.71.24l-.25.11A1.46,1.46,0,0,1,6.14,19.31Zm14.31.61h0v0A0,0,0,0,1,20.45,19.92Zm0,0h0v0ZM29,16.79v-.15a2.63,2.63,0,0,0-.61-1.47A5.07,5.07,0,0,0,27,14a8.78,8.78,0,0,0-1.83-.75,5.78,5.78,0,0,0-2-.23,2.69,2.69,0,0,0-1.61.66,2.54,2.54,0,0,0-.42.47,2.43,2.43,0,0,1-.31.41,1.81,1.81,0,0,1-.89.36,1.49,1.49,0,0,0-.66.26.8.8,0,0,0-.15.15l0,0a.54.54,0,0,1,.18-.12,1.69,1.69,0,0,1,.65-.17,2.17,2.17,0,0,0,1.09-.35l.09-.08c1.12-.07,1,.74,1,.74a.83.83,0,0,0-.15-.72c-.16-.25-.49-.19-.72-.12a2.32,2.32,0,0,0,.21-.25,3.33,3.33,0,0,1,.42-.42,2.45,2.45,0,0,1,1.33-.54h0l.68.19-1,.11a8,8,0,0,0,2.17.51l-1.78.27a14.18,14.18,0,0,0,2.13.29L24.29,15l1.34.27-.79.12,1.26.22-1.31.19,1.56.41-.68.2.6.18-.66.23a5.55,5.55,0,0,0,.76.08s-1,.21-1.09.69-.2.93-.2.93l.63-.76s-.34,1-.79,1.16a5.47,5.47,0,0,1-.71.18L25.34,19a6.24,6.24,0,0,1-1,.29,3,3,0,0,1,.84,0l.1,0-.1,0v0l.15.08c.09.05.22.12.23.19s0,.06,0,.11,0,0,0,0l0,.06h0a.2.2,0,0,1-.06.07,1.21,1.21,0,0,1-.38.27l-.19,0-.38,0h-.62l-.09,0-.06,0h0a.18.18,0,0,1-.16-.17.45.45,0,0,1,0-.13l0,0a.81.81,0,0,0-.16.1l-.06.1a.93.93,0,0,0-.29-.31l-.17-.06a.43.43,0,0,0-.16,0,.22.22,0,0,0-.12.06.33.33,0,0,0-.07.13s0,0,0,0a1.29,1.29,0,0,0-.16-.18l-.11-.07-.14-.06a.27.27,0,0,0-.18,0l0,0-.17-.09a.74.74,0,0,0-.46-.05l-.06,0-.11-.05a.65.65,0,0,0-.31,0,.4.4,0,0,0-.2.12.33.33,0,0,0-.07.13h-.17a.48.48,0,0,0-.25.09.31.31,0,0,0-.07.09.11.11,0,0,0,0,.05v.08l0,0a.7.7,0,0,0,.23.28,1,1,0,0,1,.24.22.3.3,0,0,1,.06.25v0l-.18,0a2.39,2.39,0,0,0-.73.19,1.16,1.16,0,0,0-.29.22.44.44,0,0,0-.11.23.92.92,0,0,0,0,.22,1,1,0,0,1,.09-.21.52.52,0,0,1,.16-.18,1.18,1.18,0,0,1,.28-.12,2.09,2.09,0,0,1,.64-.06h.06v.1a1.26,1.26,0,0,0,.07.33.52.52,0,0,0,.07.13h.05a.8.8,0,0,0,.1-.13,1,1,0,0,0,.14-.32.85.85,0,0,0,0-.22.61.61,0,0,0,0-.13.53.53,0,0,0-.08-.15l-.19-.26a.91.91,0,0,1-.13-.26.4.4,0,0,1,0-.15l.1.05a1.37,1.37,0,0,1,.2.13c.12.08.22.17.3.23l.11.11h.05a.59.59,0,0,0,0-.14.63.63,0,0,0-.11-.37.91.91,0,0,0-.22-.22.9.9,0,0,0-.31-.14.41.41,0,0,1,.11-.07.22.22,0,0,1,.1,0,.14.14,0,0,1,.09,0l0,0h0l.17.17a5.41,5.41,0,0,1,.33.51c0,.07.09.13.12.18l.05.06a.73.73,0,0,0,0-.27,1,1,0,0,0-.22-.6l-.08-.09.17.07.11.09a1.14,1.14,0,0,1,.11.11,2.06,2.06,0,0,1,.32.47c.08.13.13.23.13.23a.55.55,0,0,0,.08-.26.78.78,0,0,0-.23-.57l-.1-.1a.09.09,0,0,1,.1,0l.08.05a.23.23,0,0,1,.07.07.46.46,0,0,1,.09.15,2.55,2.55,0,0,1,.14.71v.24l.24-.14a.38.38,0,0,0,.19-.21.72.72,0,0,0,0-.19,1.09,1.09,0,0,0,0-.18l0-.16h0a.62.62,0,0,1,.18.18,1,1,0,0,1,.13.28.75.75,0,0,1,0,.16c0,.05,0,.1,0,.15a.59.59,0,0,1-.31.57l.07,0a.76.76,0,0,1-.07.19,2.32,2.32,0,0,1-.33.49,1.82,1.82,0,0,1-.27.29c-.11.1-.23.19-.36.29a3.06,3.06,0,0,1-1,.44,1.18,1.18,0,0,1-.62,0,1.57,1.57,0,0,1-.49-.28l-.38-.32-.38-.27c-.24-.16-.45-.29-.61-.38l-.25-.13-.05,0a2,2,0,0,0,.42.54h-.26a8.9,8.9,0,0,0-1.33.19,2.3,2.3,0,0,0-.42.14l-.1.05h0l-.05,0c-.09,0-.1,0-.13,0a2.64,2.64,0,0,1-.77-.27,7.26,7.26,0,0,1-1.43-1,6.9,6.9,0,0,1-.6-.61c-.17-.2-.34-.41-.49-.62a12.39,12.39,0,0,1-.73-1.17c-.18-.35-.28-.66-.17-.86a.79.79,0,0,1,.27-.28l-.11.05A.84.84,0,0,0,12,18a1,1,0,0,0,0,.94,6.33,6.33,0,0,0,.6,1.24,4.88,4.88,0,0,0,.48.67c.19.22.39.44.61.65a6.89,6.89,0,0,0,1.58,1.08,2.89,2.89,0,0,0,1,.28,1,1,0,0,0,.32-.07.31.31,0,0,1,0,.23,1,1,0,0,1-.27.3,2.6,2.6,0,0,1-.77.49,6.24,6.24,0,0,1-2,.47,4.93,4.93,0,0,1-.54.05,5.09,5.09,0,0,1-.55,0l-.56,0h-.55c-.17,0-.36,0-.52-.05a1.09,1.09,0,0,1-.45-.14.23.23,0,0,1-.12-.28.68.68,0,0,1,.2-.26,4.21,4.21,0,0,0,.51.12,2.43,2.43,0,0,0,.66,0,1.56,1.56,0,0,0,.6-.23,1.42,1.42,0,0,0,.36-.38,2.07,2.07,0,0,0,.2-.43,2.17,2.17,0,0,0,.08-.43,2.14,2.14,0,0,0,0-.44,2.29,2.29,0,0,0-.09-.44,3.69,3.69,0,0,0-1-1.58,4.18,4.18,0,0,0-.91-.63l-.28-.13a1.91,1.91,0,0,0-.34-.1l-.27,0a.76.76,0,0,1,.06-.2,1.57,1.57,0,0,1,.14-.25,1.19,1.19,0,0,1,.22-.23.5.5,0,0,1,.14-.1l.16-.09a1.91,1.91,0,0,1,.36-.13c.13,0,.28-.05.42-.08a1.5,1.5,0,0,1,.22,0l.22,0v0l-.47,0a3.83,3.83,0,0,0-.47,0,1.88,1.88,0,0,0-.47.1,1.45,1.45,0,0,0-.22.09L10,18l-.09.06a2.13,2.13,0,0,0-.49-.7A2.88,2.88,0,0,0,8.94,17a2.64,2.64,0,0,0-.29-.15l-.3-.13a15.28,15.28,0,0,1-2-1.12,3.08,3.08,0,0,0,.25-.27,1.86,1.86,0,0,0,.28-.43A1,1,0,0,0,7,14.47a.53.53,0,0,0,0-.13.33.33,0,0,0,0-.13A.79.79,0,0,0,6.83,14s0,0,0-.06a.38.38,0,0,0,0-.25.44.44,0,0,0-.3-.18h0a.11.11,0,0,0-.08,0s0,0,0,0a.31.31,0,0,0-.13-.24.67.67,0,0,0-.26-.1s0-.07,0-.11a.36.36,0,0,0-.19-.25.8.8,0,0,0-.21,0H5.47a1,1,0,0,0-.71.14.46.46,0,0,0-.12.5s0,.09,0,.08v0H4.5a1.89,1.89,0,0,0-.32,0,.66.66,0,0,0-.41.16,1.38,1.38,0,0,0-.2.45,1.3,1.3,0,0,1-.42.69.76.76,0,0,1-.19.12L2.72,15a1.15,1.15,0,0,0-.45.42.68.68,0,0,0,0,.52,1,1,0,0,0,.36.45,2,2,0,0,0,.59.27,4.25,4.25,0,0,0,.6.12.91.91,0,0,1,.14.07l.15.1a.53.53,0,0,1,.18.25,3.47,3.47,0,0,0,.15.36,1.86,1.86,0,0,0,.22.35,2,2,0,0,0,.72.59,2.7,2.7,0,0,0,.5.18l.33,0,0,0a.81.81,0,0,0-.1.18A1,1,0,0,0,6,19.3a1.53,1.53,0,0,0,.09.56H6a1.49,1.49,0,0,0-.3.18,3.67,3.67,0,0,0-.51.44,4.79,4.79,0,0,0-.3.51,9.83,9.83,0,0,1-.5,1,.52.52,0,0,1-.14.15.66.66,0,0,1-.24,0l-.4,0a.57.57,0,0,1-.18,0l-.14,0a2.69,2.69,0,0,1-.6-.27c-.2-.11-.38-.23-.6-.34a.71.71,0,0,0-.42-.1.4.4,0,0,0-.29.23.9.9,0,0,0-.11.27.2.2,0,0,0,0,.15.21.21,0,0,0,.22.11h0l.1,0-.06.05a.28.28,0,0,0,0,.25.35.35,0,0,0,0,.11s.05.08.07.12a.53.53,0,0,0,.11.09l-.08.05a.3.3,0,0,0-.07.15.42.42,0,0,0,0,.1l.09.07a.4.4,0,0,0,.13.06h0a.68.68,0,0,0-.12.12.32.32,0,0,0-.05.18.26.26,0,0,0,.13.18l.09.05.06,0h.07l0,0,0,0a.7.7,0,0,0,.17.14l.13.06a3.25,3.25,0,0,0,.6.2l.31.07.25,0,.42.18.52.16a3.74,3.74,0,0,0,1.17.09L6,24.7l.26-.09a1.39,1.39,0,0,0,.47-.29c.23-.26.27-.49.43-.68a1.72,1.72,0,0,1,.27-.27l.35-.26L8,23a4.57,4.57,0,0,0,2.32.58.88.88,0,0,0-.25.33.37.37,0,0,0,.14.44,1.3,1.3,0,0,0,.26.14,1.52,1.52,0,0,0,.28.09,3.84,3.84,0,0,0,.59.11l.58.06.59,0a9.16,9.16,0,0,0,1.17-.05,5.4,5.4,0,0,0,.58-.09c.2,0,.39-.08.58-.12a5.12,5.12,0,0,0,1-.42,2.54,2.54,0,0,0,.75-.65.78.78,0,0,0,.19-.4.38.38,0,0,0-.11-.3h0l.07,0a1.75,1.75,0,0,1,.34-.15,10.68,10.68,0,0,1,1.23-.3l.27-.05.14.12a3.14,3.14,0,0,0,.38.29,4.38,4.38,0,0,0,.53.25l.6.23a2.3,2.3,0,0,0,.71.11,2.48,2.48,0,0,0,.73-.1,3.11,3.11,0,0,0,.61-.26,1.85,1.85,0,0,0,.45-.35,1.13,1.13,0,0,0,.25-.38,1.08,1.08,0,0,0,.11-.59.31.31,0,0,0,0-.11c.12,0,.48-.08,1-.2l.36,0a7.3,7.3,0,0,0,1.12-.22,5.87,5.87,0,0,0,1.31-.56,4.65,4.65,0,0,0,1.17-1,5.12,5.12,0,0,0,.45-.62c.05-.11.11-.21.17-.32l0-.08,0-.05,0,0,.06-.17a2.91,2.91,0,0,0,.21-.82A2.07,2.07,0,0,0,29,16.79Z"/><path class="cls-4" d="M24.28,19.26h0c-.13,0-.17,0,0,0"/><path class="cls-4" d="M24.27,16.25a3.5,3.5,0,0,1,.22,1s.51-1.92-1.31-1.38c0,0,.9-.12,1.09.41"/><path class="cls-4" d="M22.82,16.43c.21-.07.25,0,.25,0-.19,0-.23.29.12.43s.47-.06.47-.06a1,1,0,0,1,.14.41.69.69,0,0,0-.41-.89.43.43,0,0,0-.57.13"/><path class="cls-4" d="M21.62,14.88a.3.3,0,0,0-.46,0c.21,0,.22.07.22.07-.18.06-.19.19-.1.28s.29-.12.29-.12a.29.29,0,0,1-.08.3s.4-.36.13-.58"/><path class="cls-4" d="M20.57,16c-.22.1-.17.45-.17.45.14-.47,1.09-.44,1.09-.44a3,3,0,0,0-.92,0"/><polygon class="cls-4" points="0.88 0.8 1.27 0.8 1.27 2.94 2.25 2.94 2.25 3.16 0.88 3.16 0.88 0.8"/><rect class="cls-4" x="2.56" y="0.74" width="0.39" height="2.43"/><path class="cls-4" d="M4.54,2.14h0c0-.34-.18-.49-.37-.49s-.39.26-.41.49Zm-.78.2c0,.52.3.63.59.63a1.12,1.12,0,0,0,.41-.07l.06.2a1.5,1.5,0,0,1-.54.08.79.79,0,0,1-.9-.85.8.8,0,0,1,.83-.89.68.68,0,0,1,.71.75.66.66,0,0,1,0,.15Z"/><path class="cls-4" d="M5.49,1.47l.31,1a4,4,0,0,1,.11.41h0c0-.14.07-.28.11-.41l.3-.95h.39L6.08,3.16H5.72L5.08,1.47Z"/><path class="cls-4" d="M7.89,2.29h0c-.21,0-.68,0-.68.39a.28.28,0,0,0,.3.3.37.37,0,0,0,.37-.25.38.38,0,0,0,0-.1ZM8,3.16l0-.18h0a.61.61,0,0,1-.49.21c-.33,0-.59-.19-.59-.48s.5-.62,1.06-.62V2c0-.23-.08-.39-.4-.39a1.07,1.07,0,0,0-.41.09L7,1.55a1.48,1.48,0,0,1,.58-.11c.49,0,.71.22.71.6v.74a2.24,2.24,0,0,0,0,.38Z"/><rect class="cls-4" x="9.53" y="0.74" width="0.39" height="2.43"/><path class="cls-4" d="M10.74,2.31h0c0,.29.07.67.43.67s.41-.4.41-.67-.07-.66-.42-.66-.42.41-.42.66m1.24,0a.8.8,0,0,1-.83.88.77.77,0,0,1-.8-.87.8.8,0,0,1,.83-.88A.78.78,0,0,1,12,2.31Z"/><path class="cls-4" d="M12.3,2.88a1,1,0,0,0,.4.09c.22,0,.36-.09.36-.24s-.07-.22-.32-.34-.49-.29-.49-.48.29-.47.68-.47a1.19,1.19,0,0,1,.44.08l-.1.21a.84.84,0,0,0-.33-.08c-.22,0-.32.11-.32.22s.06.18.3.29.51.28.51.52-.33.5-.74.5a1.16,1.16,0,0,1-.49-.09Z"/><path class="cls-4" d="M14.12,3.65h0a.64.64,0,0,0,.34-.13c.08-.09.11-.22.11-.54V1.47H15V3.06c0,.35-.08.52-.25.64a1.14,1.14,0,0,1-.54.17ZM15,1c0,.1-.1.17-.25.17s-.23-.07-.22-.17.1-.18.23-.18S15,.92,15,1Z"/><path class="cls-4" d="M16.94,2.7c0,.19,0,.34,0,.46h-.34l0-.18h0a.69.69,0,0,1-.53.21c-.44,0-.6-.23-.6-.65V1.47h.39v1c0,.27.06.46.33.46a.35.35,0,0,0,.36-.22.78.78,0,0,0,0-.16V1.47h.39Z"/><path class="cls-4" d="M18.55,2.05h0a.43.43,0,0,0,0-.12.37.37,0,0,0-.36-.26c-.29,0-.44.26-.44.64s.2.63.44.63a.35.35,0,0,0,.35-.24.5.5,0,0,0,0-.16ZM19,1.47c0,.11,0,.27,0,.53V3c0,.44-.09.61-.25.73a1.06,1.06,0,0,1-.66.19,1.6,1.6,0,0,1-.54-.09l.09-.21a1.27,1.27,0,0,0,.46.08.45.45,0,0,0,.51-.52V3h0a.55.55,0,0,1-.48.21.75.75,0,0,1-.73-.84.8.8,0,0,1,.78-.88.51.51,0,0,1,.46.22h0l0-.19Z"/><path class="cls-4" d="M20.92,2.7c0,.19,0,.34,0,.46h-.35l0-.18h0a.73.73,0,0,1-.53.21c-.44,0-.61-.23-.61-.65V1.47h.4v1c0,.27.06.46.33.46a.34.34,0,0,0,.35-.22.41.41,0,0,0,0-.16V1.47h.4Z"/><path class="cls-4" d="M22.47,2.14h0c0-.34-.18-.49-.37-.49s-.39.26-.4.49Zm-.78.2c0,.52.31.63.59.63a1.12,1.12,0,0,0,.41-.07l.06.2a1.46,1.46,0,0,1-.54.08.8.8,0,0,1-.9-.85.81.81,0,0,1,.83-.89.68.68,0,0,1,.71.75v.15Z"/><path class="cls-4" d="M23.7,1v.45h.48v.2H23.7v1c0,.22.12.28.26.28h.16l0,.21-.29,0a.6.6,0,0,1-.39-.1c-.1-.07-.15-.19-.15-.43v-1H23v-.2h.3V1.09Z"/><path class="cls-4" d="M25.49,2.14h0c0-.34-.18-.49-.37-.49s-.39.26-.4.49Zm-.78.2c0,.52.3.63.59.63a1.12,1.12,0,0,0,.41-.07l.06.2a1.5,1.5,0,0,1-.54.08.8.8,0,0,1-.9-.85.81.81,0,0,1,.83-.89.68.68,0,0,1,.71.75.66.66,0,0,1,0,.15Z"/><path class="cls-4" d="M26.18,2.88a1,1,0,0,0,.39.09c.23,0,.37-.09.37-.24s-.07-.22-.32-.34-.5-.29-.5-.48.3-.47.69-.47a1.19,1.19,0,0,1,.44.08l-.11.21a.79.79,0,0,0-.32-.08c-.22,0-.33.11-.33.22s.06.18.31.29.51.28.51.52-.34.5-.74.5a1.16,1.16,0,0,1-.49-.09Z"/><path class="cls-4" d="M1.77,5.44h0c-.21,0-.68,0-.68.4a.28.28,0,0,0,.3.3.37.37,0,0,0,.37-.26.28.28,0,0,0,0-.09Zm.06.88,0-.18h0a.65.65,0,0,1-.5.21C1,6.35.7,6.16.7,5.87s.5-.62,1.06-.62V5.19c0-.22-.08-.38-.4-.38A.84.84,0,0,0,1,4.9L.87,4.71a1.29,1.29,0,0,1,.58-.12c.49,0,.71.23.71.61v.74a2.36,2.36,0,0,0,0,.38Z"/><rect class="cls-4" x="3.41" y="3.89" width="0.39" height="2.43"/><path class="cls-4" d="M5.26,5.44h0c-.21,0-.68,0-.68.4a.28.28,0,0,0,.3.3.37.37,0,0,0,.37-.26.28.28,0,0,0,0-.09Zm.06.88,0-.18h0a.61.61,0,0,1-.49.21c-.33,0-.59-.19-.59-.48s.5-.62,1.06-.62V5.19c0-.22-.08-.38-.4-.38a.84.84,0,0,0-.4.09l-.09-.19a1.29,1.29,0,0,1,.58-.12c.49,0,.71.23.71.61v.74a2.36,2.36,0,0,0,0,.38Z"/><path class="cls-4" d="M7.29,5.72h0a.2.2,0,0,0,0,.11.38.38,0,0,0,.36.29c.32,0,.43-.29.43-.65S8,4.83,7.67,4.83a.39.39,0,0,0-.37.3.49.49,0,0,0,0,.12Zm-.42.6c0-.1,0-.29,0-.41v-2h.39v.93h0a.61.61,0,0,1,.52-.23c.39,0,.68.31.68.86s-.37.9-.75.9a.55.55,0,0,1-.5-.25h0l0,.22Z"/><path class="cls-4" d="M9.18,5.47h0c0,.28.07.67.43.67s.4-.4.4-.67S10,4.81,9.6,4.81s-.42.4-.42.66m1.23,0a.79.79,0,0,1-.82.88.78.78,0,0,1-.81-.87.8.8,0,0,1,.83-.89A.78.78,0,0,1,10.41,5.47Z"/><path class="cls-4" d="M12,6.28a1.37,1.37,0,0,1-.41.06.82.82,0,0,1-.91-.86.89.89,0,0,1,1-.88,1.08,1.08,0,0,1,.35.05l-.08.22a.83.83,0,0,0-.28,0,.58.58,0,0,0-.57.65.56.56,0,0,0,.58.64.93.93,0,0,0,.29,0Z"/><path class="cls-4" d="M13.23,5.44h0c-.2,0-.68,0-.68.4a.28.28,0,0,0,.3.3.36.36,0,0,0,.37-.26.28.28,0,0,0,0-.09Zm.06.88,0-.18h0a.65.65,0,0,1-.5.21.52.52,0,0,1-.58-.48c0-.43.49-.62,1.05-.62V5.19c0-.22-.08-.38-.39-.38a.86.86,0,0,0-.41.09l-.09-.19a1.29,1.29,0,0,1,.58-.12c.49,0,.71.23.71.61v.74a1.58,1.58,0,0,0,0,.38Z"/></svg>