<svg xmlns="http://www.w3.org/2000/svg" width="23.228" height="21.498" viewBox="0 0 23.228 21.498">
  <path id="Trazado_8" data-name="Trazado 8" d="M1023.319,45.721l-.588-1.316a23.11,23.11,0,0,0,1.245-3.021l-1.806-1.666a25.522,25.522,0,0,0-3.2,1.212l-1.421-.544a23.014,23.014,0,0,0-1.428-2.948h-2.547a21.774,21.774,0,0,0-1.34,2.956l-1.417.544a27.343,27.343,0,0,0-3.265-1.151l-1.8,1.67a22.106,22.106,0,0,0,1.313,2.965l-.588,1.316a27.263,27.263,0,0,0-3.187,1.317v2.362a25.571,25.571,0,0,0,3.2,1.241l.586,1.312a23.213,23.213,0,0,0-1.245,3.019l1.8,1.671a26.057,26.057,0,0,0,3.2-1.216l1.421.545a22.982,22.982,0,0,0,1.428,2.946h2.549a21.777,21.777,0,0,0,1.338-2.956l1.422-.545a27.485,27.485,0,0,0,3.258,1.154l1.808-1.669a21.825,21.825,0,0,0-1.316-2.966l.586-1.316a26.843,26.843,0,0,0,3.188-1.321V46.958A25.723,25.723,0,0,0,1023.319,45.721Zm-4.7,2.466a3.735,3.735,0,1,1-3.724-3.443A3.6,3.6,0,0,1,1018.621,48.186Z" transform="translate(-1003.283 -37.438)" fill="#bf0d21"/>
</svg>
