<?xml version="1.0" encoding="utf-8"?>
<!-- Generator: Adobe Illustrator 21.0.0, SVG Export Plug-In . SVG Version: 6.00 Build 0)  -->
<svg version="1.1" id="Layer_1" xmlns="http://www.w3.org/2000/svg" xmlns:xlink="http://www.w3.org/1999/xlink" x="0px" y="0px"
	 viewBox="0 0 672 373.5" style="enable-background:new 0 0 672 373.5;" xml:space="preserve">
<style type="text/css">
	.st0{fill:#003E87;}
	.st1{fill:none;stroke:#FFFFFF;stroke-width:8;stroke-miterlimit:10;}
	.st2{fill:none;stroke:#000000;stroke-width:3;stroke-miterlimit:10;}
	.st3{fill:#FFFFFF;}
	.st4{fill:#6A8C91;stroke:#000000;stroke-width:3;stroke-miterlimit:10;}
	.st5{fill:#CDD9DA;stroke:#000000;stroke-width:3;stroke-miterlimit:10;}
	.st6{fill:#66B3BF;stroke:#000000;stroke-width:3;stroke-miterlimit:10;}
	.st7{fill:#CCE6EA;stroke:#000000;stroke-width:3;stroke-miterlimit:10;}
	.st8{fill:none;stroke:#1D1D1B;}
	.st9{fill:#8CC63F;}
	.st10{fill:none;stroke:#000000;stroke-width:3;}
	.st11{fill:#C0E28A;}
	.st12{fill:none;stroke:#666666;stroke-width:14;stroke-miterlimit:10;}
	.st13{fill:#FFFFFF;stroke:#050505;stroke-width:2;stroke-miterlimit:10;}
	.st14{fill:#65C8D0;stroke:#050505;stroke-width:2;stroke-miterlimit:10;}
	.st15{fill:#95A0A0;}
	.st16{fill:none;stroke:#050505;stroke-width:2;stroke-miterlimit:10;}
	.st17{fill:#95A0A0;stroke:#050505;stroke-width:2;stroke-miterlimit:10;}
	.st18{fill:#95A0A0;stroke:#050505;stroke-width:10;stroke-miterlimit:10;}
	.st19{fill:#FF0000;stroke:#050505;stroke-width:2;stroke-miterlimit:10;}
	.st20{fill:#FF0000;stroke:#000000;stroke-width:2;stroke-miterlimit:10;}
</style>
<g>
	<g>
		<path class="st0" d="M58.1,86V26.8c0-6.6,3.4-12,7.6-12h73c4.2,0,7.6,5.4,7.6,12V86H58.1z"/>
		<path class="st1" d="M66.6,77.5V26.8c0-1.6,0.4-2.8,0.7-3.5h69.9c0.3,0.7,0.7,1.9,0.7,3.5v50.7H66.6z"/>
		<path class="st2" d="M58.1,86V26.8c0-6.6,3.4-12,7.6-12h73c4.2,0,7.6,5.4,7.6,12V86H58.1z"/>
	</g>
	<g>
		<path class="st3" d="M120,31.6v37.8h-10.6V53.8H95.1v15.6H84.5V31.6h10.6v14.7h14.3V31.6H120z"/>
	</g>
</g>
<g>
	<polygon class="st4" points="585.5,192.4 585.5,207.7 576.4,207.7 576.4,338.5 569.4,338.5 569.4,207.7 426.7,207.7 426.7,192.4 	
		"/>
	<rect x="50.2" y="125.4" class="st5" width="379.8" height="203.4"/>
	<rect x="39.2" y="84.2" class="st4" width="401.7" height="40.5"/>
	<g>
		<g>
			<rect x="64.9" y="138.1" class="st6" width="52.9" height="52.9"/>
			<rect x="72.8" y="146.3" class="st7" width="37.1" height="36.5"/>
		</g>
		<g>
			<rect x="139.3" y="138.1" class="st6" width="52.9" height="52.9"/>
			<rect x="147.2" y="146.3" class="st7" width="37.1" height="36.5"/>
		</g>
		<g>
			<rect x="213.6" y="138.1" class="st6" width="52.9" height="52.9"/>
			<rect x="221.5" y="146.3" class="st7" width="37.1" height="36.5"/>
		</g>
		<g>
			<rect x="288" y="138.1" class="st6" width="52.9" height="52.9"/>
			<rect x="295.9" y="146.3" class="st7" width="37.1" height="36.5"/>
		</g>
		<g>
			<rect x="362.3" y="138.1" class="st6" width="52.9" height="52.9"/>
			<rect x="370.2" y="146.3" class="st7" width="37.1" height="36.5"/>
		</g>
	</g>
	<g>
		<g>
			<rect x="64.9" y="204.3" class="st6" width="52.9" height="52.9"/>
			<rect x="72.8" y="212.5" class="st7" width="37.1" height="36.5"/>
		</g>
		<g>
			<rect x="139.3" y="204.3" class="st6" width="52.9" height="52.9"/>
			<rect x="147.2" y="212.5" class="st7" width="37.1" height="36.5"/>
		</g>
		<g>
			<rect x="213.6" y="204.3" class="st6" width="52.9" height="52.9"/>
			<rect x="221.5" y="212.5" class="st7" width="37.1" height="36.5"/>
		</g>
		<g>
			<rect x="288" y="204.3" class="st6" width="52.9" height="52.9"/>
			<rect x="295.9" y="212.5" class="st7" width="37.1" height="36.5"/>
		</g>
		<g>
			<rect x="362.3" y="204.3" class="st6" width="52.9" height="52.9"/>
			<rect x="370.2" y="212.5" class="st7" width="37.1" height="36.5"/>
		</g>
	</g>
	<g>
		<g>
			<path class="st8" d="M242.4,332.9h-193c0,0,1.5-53.5,47.7-58.6c8.3-0.9,16.1,2.4,22.9,6.6c6.7-10.3,17.7-16.9,30-16.9
				c18.6,0,33.9,15,36.7,34.7c5.6-4,12.2-6.4,19.4-6.2C242.4,293.2,242.4,332.9,242.4,332.9z"/>
			<path class="st9" d="M242.4,332.9h-193c0,0,1.5-53.5,47.7-58.6c8.3-0.9,16.1,2.4,22.9,6.6c6.7-10.3,17.7-16.9,30-16.9
				c18.6,0,33.9,15,36.7,34.7c5.6-4,12.2-6.4,19.4-6.2C242.4,293.2,242.4,332.9,242.4,332.9z"/>
			<path class="st10" d="M242.4,332.9h-193c0,0,1.5-53.5,47.7-58.6c8.3-0.9,16.1,2.4,22.9,6.6c6.7-10.3,17.7-16.9,30-16.9
				c18.6,0,33.9,15,36.7,34.7c5.6-4,12.2-6.4,19.4-6.2C242.4,293.2,242.4,332.9,242.4,332.9z"/>
		</g>
		<g>
			<path class="st11" d="M224.4,332.9h-157c0,0,1.2-29.4,38.8-32.3c6.7-0.5,13.1,1.3,18.7,3.6c5.5-5.7,14.4-9.3,24.4-9.3
				c15.1,0,27.6,8.3,29.8,19.1c4.6-2.2,10-3.5,15.7-3.4C224.4,311,224.4,332.9,224.4,332.9z"/>
		</g>
	</g>
	<g>
		<g>
			<path class="st8" d="M280.4,329.9h130c0,0-1-39.5-32.1-43.4c-5.6-0.7-10.9,1.8-15.5,4.9c-4.5-7.6-11.9-12.5-20.2-12.5
				c-12.5,0-22.8,11.1-24.7,25.6c-3.8-2.9-8.2-4.7-13-4.6C280.4,300.6,280.4,329.9,280.4,329.9z"/>
			<path class="st9" d="M280.4,329.9h130c0,0-1-39.5-32.1-43.4c-5.6-0.7-10.9,1.8-15.5,4.9c-4.5-7.6-11.9-12.5-20.2-12.5
				c-12.5,0-22.8,11.1-24.7,25.6c-3.8-2.9-8.2-4.7-13-4.6C280.4,300.6,280.4,329.9,280.4,329.9z"/>
			<path class="st10" d="M280.4,329.9h130c0,0-1-39.5-32.1-43.4c-5.6-0.7-10.9,1.8-15.5,4.9c-4.5-7.6-11.9-12.5-20.2-12.5
				c-12.5,0-22.8,11.1-24.7,25.6c-3.8-2.9-8.2-4.7-13-4.6C280.4,300.6,280.4,329.9,280.4,329.9z"/>
		</g>
		<g>
			<path class="st11" d="M292.5,329.9h105.8c0,0-0.8-21.8-26.1-23.9c-4.5-0.4-8.8,1-12.6,2.7c-3.7-4.2-9.7-6.9-16.5-6.9
				c-10.2,0-18.6,6.1-20.1,14.1c-3.1-1.6-6.7-2.6-10.6-2.5C292.5,313.7,292.5,329.9,292.5,329.9z"/>
		</g>
	</g>
	<line class="st12" x1="15.4" y1="334.9" x2="655.4" y2="334.9"/>
</g>
<g>
	<path class="st13" d="M447,320.5v-70.8c0-5.5,3.8-10,8.5-10h94.3c4.7,0,8.5,4.5,8.5,10v70.8H447z"/>
	<path class="st13" d="M599.9,295.3v25.2h-41.5v-55.1c0-3.6,1.9-6.5,4.2-6.5h20.3c2.3,0,4.2,2.9,4.2,6.5v23.4h6
		C596.9,288.8,599.9,291.7,599.9,295.3z"/>
	<path class="st14" d="M570.2,288.4h13.6c1.8,0,3.3-1.5,3.3-3.3v-17.7c0-1.8-1.5-3.3-3.3-3.3h-13.6c-1.8,0-3.3,1.5-3.3,3.3v17.7
		C566.9,286.9,568.4,288.4,570.2,288.4z"/>
	<g>
		<path class="st15" d="M574.1,294.8c-3.4,0.7-7,0.7-10.4,0c-0.7-0.1-1.1-0.7-0.9-1.3c0-0.2,0.1-0.3,0.1-0.5
			c0.1-0.6,0.7-0.9,1.3-0.8c3.1,0.6,6.3,0.6,9.4,0c0.6-0.1,1.2,0.2,1.3,0.8c0,0.2,0.1,0.3,0.1,0.5
			C575.2,294.1,574.8,294.7,574.1,294.8z"/>
		<path class="st16" d="M574.1,294.8c-3.4,0.7-7,0.7-10.4,0c-0.7-0.1-1.1-0.7-0.9-1.3c0-0.2,0.1-0.3,0.1-0.5
			c0.1-0.6,0.7-0.9,1.3-0.8c3.1,0.6,6.3,0.6,9.4,0c0.6-0.1,1.2,0.2,1.3,0.8c0,0.2,0.1,0.3,0.1,0.5
			C575.2,294.1,574.8,294.7,574.1,294.8z"/>
	</g>
	<path class="st17" d="M590.2,283.6c2.7,8.5-4.7,8.5-4.7,8.5v-10.4C585.5,281.7,589.6,281.7,590.2,283.6z"/>
	<rect x="591" y="313.8" class="st17" width="11.9" height="8.3"/>
	<ellipse class="st18" cx="578.1" cy="317.2" rx="11.4" ry="11.9"/>
	<rect x="442.3" y="314.6" class="st17" width="20.9" height="8.3"/>
	<ellipse class="st18" cx="474.8" cy="317.2" rx="11.4" ry="11.9"/>
	<path class="st19" d="M549.8,239.8c0,0,0.2-8.9-5.4-8.9c-5.3,0.1-5.4,8.9-5.4,8.9H549.8z"/>
	<g>
		<path d="M463.3,247.6l3.3,9.8h-2.6l-0.6-2h-3.4l-0.7,2h-2.2l3.4-9.8H463.3z M460.5,253.6h2.2l-1.1-3.4L460.5,253.6z"/>
		<path d="M472.4,257.4l-2.6-8v8h-2.1v-9.8h3.8l1.8,5.9l1.9-5.9h3.8v9.8h-2.5v-8l-2.6,8H472.4z"/>
		<path d="M481.3,247.6h4.9c0.9,0,1.5,0.1,2,0.3c0.4,0.2,0.8,0.5,1.1,0.9c0.3,0.4,0.4,0.8,0.4,1.4c0,1.1-0.6,1.8-1.9,2.2
			c0.7,0.2,1.3,0.5,1.6,0.9c0.4,0.5,0.5,0.9,0.5,1.5c0,0.7-0.3,1.4-0.9,1.9c-0.6,0.5-1.6,0.8-2.9,0.8h-4.9V247.6z M483.7,249.3v2.1
			h1.9c0.7,0,1.1-0.1,1.3-0.4c0.2-0.3,0.3-0.5,0.3-0.7c0-0.2-0.1-0.5-0.2-0.6s-0.3-0.3-0.5-0.3c-0.2,0-0.5-0.1-1-0.1H483.7z
			 M483.7,253.2v2.4h1.9c0.6,0,1.1-0.1,1.4-0.3c0.3-0.2,0.4-0.5,0.4-0.9c0-0.3-0.1-0.6-0.4-0.8s-0.7-0.3-1.3-0.3H483.7z"/>
		<path d="M499.8,247.6v6.1c0,1-0.1,1.7-0.4,2.2c-0.2,0.5-0.7,0.9-1.3,1.2c-0.6,0.3-1.5,0.5-2.5,0.5s-1.8-0.1-2.4-0.4
			c-0.6-0.3-1-0.7-1.3-1.2c-0.3-0.5-0.4-1.3-0.4-2.2v-6.1h2.7v6.1c0,0.5,0,0.9,0.1,1.2c0.1,0.2,0.3,0.4,0.6,0.6s0.6,0.2,1.1,0.2
			c0.5,0,0.8-0.1,1.1-0.2c0.3-0.1,0.5-0.3,0.6-0.6c0.1-0.2,0.1-0.6,0.1-1.2v-6.1H499.8z"/>
		<path d="M504.3,255.5h4.2v1.9h-6.7v-9.8h2.5V255.5z"/>
		<path d="M514.9,247.6l3.3,9.8h-2.6l-0.6-2h-3.4l-0.7,2h-2.2l3.4-9.8H514.9z M512.1,253.6h2.2l-1.1-3.4L512.1,253.6z"/>
		<path d="M527.4,247.6v9.8h-2.1l-4.1-6.6c0,0.2,0,0.3,0,0.3c0,0.2,0,0.3,0,0.4v5.9h-1.9v-9.8h2.7l3.6,5.8c0-0.3,0-0.5,0-0.7v-5.1
			H527.4z"/>
		<path d="M538,251.3l-2.6,0.2c0-1.4-0.6-2.1-1.7-2.1c-1.3,0-1.9,1.1-1.9,3.2c0,1.2,0.2,2.1,0.5,2.5c0.3,0.4,0.8,0.7,1.5,0.7
			c1,0,1.6-0.6,1.9-1.9l2.4,0.1c-0.2,1.2-0.6,2.1-1.4,2.7c-0.8,0.6-1.7,0.9-2.9,0.9c-1.4,0-2.5-0.4-3.4-1.3
			c-0.9-0.9-1.3-2.1-1.3-3.7c0-1.5,0.4-2.7,1.3-3.6c0.8-0.9,2-1.4,3.5-1.4C536.3,247.5,537.7,248.7,538,251.3z"/>
		<path d="M546.9,249.5h-5v2h3.9v1.8h-3.9v2.1h5v1.9h-7.5v-9.8h7.5V249.5z"/>
	</g>
	<polygon class="st20" points="510.6,274.3 510.6,280.2 503.9,280.2 503.9,287.3 498.2,287.3 498.2,280.2 491.4,280.2 491.4,274.3 
		498.2,274.3 498.2,267.1 503.9,267.1 503.9,274.3 	"/>
</g>
</svg>
