<svg xmlns="http://www.w3.org/2000/svg" width="92.123" height="92.123" viewBox="0 0 92.123 92.123">
  <g id="icono_user" data-name="icono user" transform="translate(0 0)">
    <g id="Grupo_695" data-name="Grupo 695">
      <g id="Grupo_694" data-name="Grupo 694">
        <path id="Trazado_3" data-name="Trazado 3" d="M1244.191,15.949a46.062,46.062,0,1,0,46.062,46.062A46.061,46.061,0,0,0,1244.191,15.949Zm21.47,68.532h-42.939V76.476a12.519,12.519,0,0,1,4.706-9.835,26.05,26.05,0,0,1,8.886-4.527,12.669,12.669,0,1,1,15.749,0,26.035,26.035,0,0,1,8.89,4.527h0a12.525,12.525,0,0,1,4.706,9.835Z" transform="translate(-1198.129 -15.949)" fill="#e4e5e7"/>
        <path id="Trazado_4" data-name="Trazado 4" d="M1246.112,46.867A23.27,23.27,0,0,0,1236.9,42.5h-5.445l-.033,0-.033,0h-5.444a23.271,23.271,0,0,0-9.209,4.363,9.223,9.223,0,0,0-3.458,7.237v4.678h36.289V54.1A9.216,9.216,0,0,0,1246.112,46.867Z" transform="translate(-1185.364 6.423)" fill="#bf0d21"/>
        <path id="Trazado_5" data-name="Trazado 5" d="M1227.366,49.239h.066a9.339,9.339,0,1,0-.066,0Z" transform="translate(-1181.338 -3.64)" fill="#bf0d21"/>
      </g>
    </g>
  </g>
</svg>
