<?xml version="1.0" standalone="no"?>
<!DOCTYPE svg PUBLIC "-//W3C//DTD SVG 20010904//EN"
 "http://www.w3.org/TR/2001/REC-SVG-20010904/DTD/svg10.dtd">
<svg version="1.0" xmlns="http://www.w3.org/2000/svg"
 width="512.000000pt" height="512.000000pt" viewBox="0 0 512.000000 512.000000"
 preserveAspectRatio="xMidYMid meet">

<g transform="translate(0.000000,512.000000) scale(0.100000,-0.100000)"
fill="#000000" stroke="none">
<path d="M3158 5105 c-30 -17 -190 -287 -207 -351 -8 -31 -8 -53 3 -94 l14
-54 -58 -101 -58 -100 -73 -5 c-80 -6 -155 -39 -202 -89 -27 -28 -564 -952
-605 -1040 -38 -81 -35 -170 7 -256 l32 -64 -63 -113 c-58 -104 -63 -117 -63
-173 0 -67 26 -120 73 -154 42 -29 602 -352 647 -372 76 -35 163 -20 219 37
16 16 54 73 85 127 l57 98 64 3 c108 4 202 60 257 153 22 38 29 44 49 39 13
-4 44 -9 68 -12 51 -7 56 -16 56 -112 0 -101 -26 -208 -77 -312 -39 -79 -61
-109 -132 -181 -72 -71 -102 -93 -181 -132 -134 -66 -203 -77 -464 -77 -233 0
-257 -5 -282 -51 -18 -35 -18 -63 0 -98 24 -46 50 -51 261 -51 211 0 237 -5
261 -51 26 -52 10 -110 -37 -135 -42 -21 -1656 -21 -1698 0 -66 35 -66 137 0
172 22 11 74 14 223 14 212 0 238 5 262 51 18 35 18 63 -1 98 -24 48 -52 53
-291 49 -198 -3 -223 -5 -265 -24 -66 -31 -114 -78 -146 -142 -23 -47 -28 -70
-28 -132 1 -124 56 -214 163 -267 54 -27 65 -28 220 -31 l162 -4 0 -183 0
-184 -262 -3 -263 -3 -57 -28 c-64 -32 -111 -80 -142 -146 -19 -42 -21 -67
-24 -290 -4 -266 0 -291 49 -316 42 -22 3656 -22 3698 0 49 25 53 50 49 316
-3 223 -5 248 -24 290 -31 66 -78 114 -142 146 -56 27 -61 28 -258 31 l-201 3
-6 162 c-3 104 -11 184 -22 222 -22 80 -85 208 -133 270 l-39 50 73 78 c129
137 232 309 287 480 49 150 61 230 61 407 0 180 -12 262 -63 413 -24 71 -28
95 -23 155 9 133 -29 253 -112 356 l-48 58 31 67 c47 102 42 213 -13 294 l-25
36 60 105 c56 96 63 105 97 111 46 9 81 27 109 57 35 37 193 321 193 346 0 13
-6 35 -14 50 -14 26 -73 62 -851 509 -88 51 -171 93 -185 92 -14 0 -37 -6 -52
-14z m477 -447 c212 -123 385 -225 385 -228 0 -3 -22 -42 -48 -87 l-48 -83
-387 223 c-212 122 -387 226 -387 230 0 10 90 167 96 167 3 0 178 -100 389
-222z m-211 -340 c155 -88 287 -167 295 -174 12 -11 8 -25 -31 -91 -26 -44
-52 -78 -60 -77 -12 1 -521 289 -580 329 -15 10 -11 19 30 93 26 45 51 82 56
82 5 0 135 -73 290 -162z m-581 -129 c133 -69 779 -448 800 -470 33 -35 35
-74 8 -128 l-20 -38 -73 15 c-207 42 -433 -71 -531 -266 -94 -189 -63 -414 80
-563 l35 -37 -25 -39 c-28 -44 -74 -68 -111 -59 -43 11 -820 465 -840 491 -11
14 -20 39 -19 58 1 23 80 169 280 516 154 266 290 494 302 507 25 26 77 32
114 13z m751 -839 c142 -69 207 -217 160 -366 -24 -80 -106 -163 -183 -189
-144 -48 -302 18 -368 153 -37 76 -39 183 -4 252 61 118 173 185 295 175 33
-3 78 -14 100 -25z m-1081 -700 c147 -85 267 -158 267 -163 0 -4 -21 -44 -46
-87 -42 -74 -47 -79 -67 -68 -66 34 -564 323 -573 332 -9 8 1 32 38 94 l49 83
32 -18 c18 -11 152 -88 300 -173z m1321 55 c16 -41 28 -201 23 -295 -18 -318
-178 -622 -427 -809 -101 -76 -187 -124 -289 -161 l-81 -30 0 49 c0 26 -7 70
-15 97 -8 27 -11 51 -7 54 4 4 38 19 77 35 193 80 370 253 461 450 59 128 77
211 79 373 l2 144 54 29 c30 17 65 41 79 54 28 29 36 31 44 10z m-323 -1367
c85 -118 119 -235 119 -415 l0 -123 -99 0 -99 0 -4 138 c-3 128 -5 141 -35
203 -17 37 -48 85 -68 108 -21 23 -31 41 -24 41 8 0 48 20 89 45 41 24 78 44
82 45 5 0 22 -19 39 -42z m-1201 -353 l0 -185 -350 0 -350 0 0 185 0 185 350
0 350 0 0 -185z m818 164 c26 -13 54 -38 70 -62 25 -37 27 -50 30 -164 l4
-123 -361 0 -361 0 0 185 0 185 287 0 c272 0 289 -1 331 -21z m1081 -563 c44
-23 51 -52 51 -226 l0 -160 -1700 0 -1700 0 0 163 c1 173 6 198 51 223 37 21
3258 20 3298 0z"/>
<path d="M1911 1756 c-87 -48 -50 -186 49 -186 51 0 100 49 100 99 0 75 -83
124 -149 87z"/>
</g>
</svg>
