<svg xmlns="http://www.w3.org/2000/svg" width="17.439" height="24.388" viewBox="0 0 17.439 24.388">
  <g id="Notificaciones" transform="translate(0 0)">
    <path id="Trazado_6" data-name="Trazado 6" d="M992.642,52.251V46.556c0-4.012-2.207-7.365-5.166-8.245a1.57,1.57,0,1,0-3.07,0c-2.96.88-5.169,4.233-5.169,8.245v5.695a2.329,2.329,0,0,0-2.016,2.551v1.8H994.66V54.8A2.33,2.33,0,0,0,992.642,52.251Z" transform="translate(-977.221 -36.41)" fill="#bf0d21"/>
    <path id="Trazado_7" data-name="Trazado 7" d="M984.236,54.535a3.121,3.121,0,0,0,2.806-2.689h-5.616A3.126,3.126,0,0,0,984.236,54.535Z" transform="translate(-975.515 -30.147)" fill="#bf0d21"/>
  </g>
</svg>
