<svg id="Capa_1" data-name="Capa 1" xmlns="http://www.w3.org/2000/svg" viewBox="0 0 29.4 28.8"><defs><style>.cls-1{fill:#ffcc64;}.cls-2{fill:#0070a2;}.cls-3{fill:#f05050;}.cls-4{fill:#acd03d;}.cls-5{fill:#fbc8ba;}.cls-6{fill:#231f20;}</style></defs><title>1-21meses</title><path class="cls-1" d="M2.53,24.6a27.91,27.91,0,0,0,14,3.44C25.09,28,28,24.6,28,24.6Z"/><polygon class="cls-2" points="16.35 19.26 16.35 20.69 16.44 22.01 16.79 22.23 18.64 21.88 18.72 20.45 18.47 19.14 16.35 19.26"/><polygon class="cls-2" points="14 22.04 16.84 22.41 16.76 23.97 14.03 23.57 14 22.04"/><polygon class="cls-2" points="14 25.47 14.03 27.01 17.25 27.64 17.27 25.59 14 25.47"/><polygon class="cls-3" points="14.2 19.15 17.03 19.3 18.47 19.02 16.18 18.66 14.2 19.15"/><polygon class="cls-3" points="16.33 20.58 16.57 22.36 14 22.04 14 20.54 16.33 20.58"/><path class="cls-3" d="M16.77,23.88l1.87-.23.08,1.25-1.45.69s-.39.28-.35-.85-.15-.86-.15-.86"/><polygon class="cls-4" points="14.05 19.14 14 20.47 16.57 20.68 16.35 19.26 14.05 19.14"/><polygon class="cls-4" points="16.57 22.18 16.75 24.1 18.64 23.65 18.64 21.88 16.57 22.18"/><polygon class="cls-4" points="14.03 23.57 16.98 24.05 16.98 25.68 14.03 25.59 14.03 23.57"/><path class="cls-4" d="M17,25.68s0,1.95,0,2.07a21,21,0,0,0,1.95-1.05l-.29-1.51-.66.22Z"/><path class="cls-5" d="M23.39,13c.06.25.53.26.69.64s-.72,1.17-.94,1.28-.87.05-1.1.81S20.22,17,20.22,17a.67.67,0,0,0-.1.42c0,.23.51.57.51.57s1.25.38,2.14.62.94.79,1.51,1.53,1.38,2,1.68,2.31a9.74,9.74,0,0,1,.83,2.13l-3.28.05-2-2.09v2l-2.83,0-.05-2L18.53,21l.07-1.86-2.42-.45-2,.34,0,.1-.07.26L14,20.47l.17,0-.07.77,0,.69v2.63l-.4.05s-.57-.44-.65,0-1.58,1.33-2.57,1.61A1.73,1.73,0,0,1,8.13,25c-.57-1.23,0-2.11.36-3.07a12.17,12.17,0,0,1,3-3.35,14.29,14.29,0,0,1,2.7-.69.61.61,0,0,0,.41-.56,13.57,13.57,0,0,1-1.85-.82,3.85,3.85,0,0,1-1.43-2.06,2.13,2.13,0,0,1-.47-.19c-.23-.13-1-.88-1-1.39s1.18-.62,1.18-.62a2.67,2.67,0,0,1-.14-1c0-.66.59-1.38,1.61-2s4.95-1.17,5.36-1.22a9.62,9.62,0,0,1,3.55,1.63,9.38,9.38,0,0,1,2,3.31"/><path class="cls-6" d="M21.33,12.66c-2-2.13-3.51.05-3.51.05,1.42-1.29,3.51-.05,3.51-.05"/><path class="cls-6" d="M12.71,12.82s1.76-1.15,3.2-.08c0,0-1.21-2-3.2.08"/><path class="cls-6" d="M19.35,13a2.07,2.07,0,0,0-1.37.77l.85-.35c-.14.35.44.65.92.44s.39-.52.39-.52l.24.21c.19.16-.42.44-.42.44L21,13.68A2.17,2.17,0,0,0,19.35,13"/><path class="cls-6" d="M14,13c-1.12.34-1.15.73-1.15.73l1.08.29s-.59-.29-.47-.43a.86.86,0,0,1,.29-.21.45.45,0,0,0,.39.55c.48.08,1.15,0,1-.4,0,0,.28-.25.74.09A1.76,1.76,0,0,0,14,13"/><path class="cls-6" d="M17.5,14.72s-.74-.11-.45.1.7,0,.45-.1"/><path class="cls-6" d="M16.75,14.86c.18-.17-.4,0-.4,0,0,.29.23.16.4,0"/><path class="cls-6" d="M11.93,13.26h0"/><path class="cls-6" d="M21.64,11.67a.65.65,0,0,0-.09-.19c.09.25.15.39.09.19"/><path class="cls-6" d="M17,16.4s-.71-.37.11-.24.35.17.35.17.57.06.33-.31-1.48-.1-1.62.1.83.28.83.28"/><path class="cls-6" d="M16.79,17c.25.2,1.07.2.95-.23,0,0-1.21,0-.95.23"/><path class="cls-6" d="M21.79,23.82h0a3,3,0,0,0,0-.67s0,0,0-.07.13.21.21.32.22.23.33.35l.2.16.19.14.42.34H21.6a2.54,2.54,0,0,0,.19-.57m-8.51-3.93Zm-.59.33h0a.4.4,0,0,0-.23-.18l.5-.11.24,0h0v0a.65.65,0,0,1-.05.15c0,.12-.14.25-.21.38l-.11.17-.11.17a.89.89,0,0,0-.09.16.31.31,0,0,0-.13-.06h0a1.32,1.32,0,0,0,.16-.25,1.27,1.27,0,0,0,.06-.18A.4.4,0,0,0,12.69,20.22ZM19,23.61h0l0,0h0c0-.58,0-1.16,0-1.74a.13.13,0,0,0,0-.06.35.35,0,0,0-.39-.15h0a9,9,0,0,0,.19-1.12v0c0-.07-.1-.13-.21-.14a10.38,10.38,0,0,0,.21-1.22v0a.18.18,0,0,0-.06-.09h.08l-.12,0a.28.28,0,0,0-.13,0h0c-.35-.08-.7-.14-1-.19s-.89-.13-1.34-.18h-.06c-.64.1-1.27.22-1.89.37H14c-.12,0-.21.07-.2.16a8.62,8.62,0,0,0,.2,1.22c-.12,0-.21.08-.2.16A7.94,7.94,0,0,0,14,21.86h0c-.09,0-.17.06-.16.13l.06.62a.17.17,0,0,0-.24,0l0,0-.13-.14a2.15,2.15,0,0,0-.64-.4c-.11-.05-.17-.09-.19-.13l0,0s0,0,0-.06v-.1c0-.16.09-.33.11-.54a.45.45,0,0,0,0-.11L13,21s0,0,0,0a.24.24,0,0,0,0,.17.36.36,0,0,0,.18.2.52.52,0,0,0,.24.07.49.49,0,0,0,.25,0c.12-.05.17-.11.18-.16a.19.19,0,0,0,0-.18,1.82,1.82,0,0,0-.25,0h-.12a.06.06,0,0,1,.05,0h0s-.12-.05-.21-.1l-.16-.07.09-.06.22-.17a1.64,1.64,0,0,0,.33-.44.68.68,0,0,0,0-.29.32.32,0,0,0-.07-.19.44.44,0,0,0-.28-.17.84.84,0,0,0-.47.05,1.42,1.42,0,0,0-.25.13,1.27,1.27,0,0,0-.35.31l-.09,0A1,1,0,0,0,12,20l-.15,0h0l0,0-.05,0-.11,0-.13.08a.94.94,0,0,0-.22.15c-.05.06-.11.11-.15.17a1.24,1.24,0,0,0-.18,1.09v0c0,.23,0,.45,0,.67s0,.22,0,.33a1.09,1.09,0,0,0,0,.18,2.77,2.77,0,0,0-1,.28,1.83,1.83,0,0,0-.47.34.71.71,0,0,0-.2.43l.06,0a3.49,3.49,0,0,1,.43-.28,2.67,2.67,0,0,1,.46-.2l.5-.16.52-.16.27-.09-.12-.1a.56.56,0,0,1-.15-.27.85.85,0,0,1,0-.32,1.82,1.82,0,0,1,.21-.62v0a2.59,2.59,0,0,1,.18-.6,1.56,1.56,0,0,1,.17-.25,1.14,1.14,0,0,1,.11-.11l.11-.09.05,0,.09-.05.05,0s0,0,0,0h0l.08,0s.09,0,.09,0,0,0,0,0,.05.05.07.09,0,.1,0,.15a2.28,2.28,0,0,1,0,.27h0a1.22,1.22,0,0,0-.42.15.62.62,0,0,0-.34.55,1,1,0,0,0,.16.55h.06a1.06,1.06,0,0,1,0-.53.54.54,0,0,1,.33-.39,1.29,1.29,0,0,1,.26-.08.09.09,0,0,1,0,.05c0,.15-.13.32-.18.52a.5.5,0,0,0,0,.18v.07a.37.37,0,0,0,.05.11.84.84,0,0,0,.33.27,2.05,2.05,0,0,1,.51.34l.08.09,0,.06,0,0a.25.25,0,0,1,0,.17.44.44,0,0,1-.11.18,1,1,0,0,1-.19.16l-.14.08,0,.11a1.63,1.63,0,0,1-.63,1.59,4.11,4.11,0,0,1-.91.64,4.24,4.24,0,0,1-1.15.41A1.5,1.5,0,0,1,9,25.93a2.74,2.74,0,0,1-.64-.77A2.86,2.86,0,0,1,8,24.31a1.76,1.76,0,0,1,.05-.85,5.56,5.56,0,0,1,.84-1.69,16.89,16.89,0,0,1,1.27-1.58c.23-.26.47-.52.72-.77l.38-.36a2.39,2.39,0,0,1,.39-.31,7.36,7.36,0,0,1,1.15-.39l1.25-.31h0a.6.6,0,0,0,.16-.05l.12-.06a.93.93,0,0,0,.18-.16,1.05,1.05,0,0,0,.17-.31,12,12,0,0,0,1.24.4A6.53,6.53,0,0,0,17.8,18a5.07,5.07,0,0,0,.95-.14,4,4,0,0,0,.45-.15,2.72,2.72,0,0,0,.35-.16l.36-.06.07.11a2.69,2.69,0,0,0,1.2.71l.88.3A10.23,10.23,0,0,1,23,19a2.15,2.15,0,0,1,.81.55,1.63,1.63,0,0,1,.22.38l.11.42a7.72,7.72,0,0,0,.95,1.57c.34.47.68.9.92,1.28.13.19.24.36.33.52s.14.3.2.42a2.51,2.51,0,0,1,.1.27h-3.2a1,1,0,0,0,0-.16,2.26,2.26,0,0,0-.25-.38.86.86,0,0,0-.14-.18l-.14-.16c-.1-.11-.17-.22-.27-.34l-.54-.68c-.17-.23-.39-.45-.57-.69h0a.13.13,0,0,0-.14-.05c-.06,0-.1.06-.08.11a1.19,1.19,0,0,1,.09.65c0,.22-.1.44-.11.66a3.67,3.67,0,0,0,0,.66,2.44,2.44,0,0,0,.16.57H19.05C19,24.13,19,23.87,19,23.61Zm-.34,3.21h0l0,0Zm-.27-.06h0L18,27l-.8.37c-1-.13-2-.26-3-.37,0-.2,0-.4-.07-.6s-.05-.42-.09-.64c1,.09,1.91.15,2.86.21,0,.16,0,.32.05.49s.06.46.1.69c0-.23.07-.46.1-.69l.06-.51,1.3-.44,0,.45,0,.38,0,.19,0,.1v0h0Zm-1.59-5.28h0c0-.21,0-.41-.07-.62.54,0,1.08-.09,1.61-.16a7.89,7.89,0,0,0,.17.95L16.85,22C16.84,21.83,16.84,21.66,16.83,21.48Zm1.54-2.16h0a9.68,9.68,0,0,0,.18,1c-.62,0-1.24,0-1.86.09,0-.16-.07-.32-.11-.45s-.1-.36-.14-.48C17.08,19.46,17.73,19.4,18.37,19.32Zm-4.3,1h0a9.68,9.68,0,0,0,.18-1c.68.08,1.37.14,2.05.2,0,.12-.06.28-.08.48s0,.29,0,.45C15.48,20.41,14.78,20.36,14.07,20.35Zm2.09-1.53h0c.44.05.88.1,1.32.13L18,19c-.56,0-1.12.05-1.67.09L14.53,19C15.08,19,15.62,18.89,16.16,18.82Zm-2.09,3h0a9.42,9.42,0,0,0,.21-1.16c.64.08,1.28.13,1.92.19,0,.2,0,.41,0,.62s0,.4.07.59C15.53,22,14.8,21.93,14.07,21.86Zm-2.23-6.35h0a4.14,4.14,0,0,1-.52-1.16v0l0,0a3.82,3.82,0,0,1-.7-.54,1.35,1.35,0,0,1-.41-.61s0-.06,0-.08V13a.74.74,0,0,1,0-.14.59.59,0,0,1,.21-.24.74.74,0,0,1,.33-.13,13.6,13.6,0,0,1,1.2.78,7.38,7.38,0,0,1-.32-1.57,1.12,1.12,0,0,1,.16-.69l.17.95.56-1.8-.06.63.45-.75.29.46.92-1.28.28,1.09.31-1.14.37.94.32-1.16.5,1.17.19-.71.81.77-.32-1L18,10.58l-.18-.66.75.32L17.94,9l1.57,1.42-.26-.7.76.71-.17-.85a14.15,14.15,0,0,1,1.71,1.87l-.36-1s.78,1.7.92,2.18a.7.7,0,0,0,.09.17l0,.32,0,.25.36-.07a2.51,2.51,0,0,1,1,0c.12,0,.16.07.18.15a.52.52,0,0,1-.05.31c0,.06,0,.11-.08.18l-.11.18a1.92,1.92,0,0,1-.26.32,1,1,0,0,1-.34.24l-.19.08-.16,0-.33.16-.21.37-.25.36a4.92,4.92,0,0,1-.63.67,3.47,3.47,0,0,1-1.79.87h-.08l0,0-.32.16a2,2,0,0,1-.37.15,4.94,4.94,0,0,1-.82.18A6.13,6.13,0,0,1,16,17.71a9.28,9.28,0,0,1-3.17-1.2A3,3,0,0,1,11.84,15.51Zm16.59,8.88H26.79a1.77,1.77,0,0,0,0-.31,2.15,2.15,0,0,0-.06-.46,2.18,2.18,0,0,0-.18-.59,5.49,5.49,0,0,0-.36-.66,6.11,6.11,0,0,0-.51-.69L25.1,21c-.19-.24-.43-.48-.59-.72a4.24,4.24,0,0,0-.51-.79,3.84,3.84,0,0,0-.76-.68,5.32,5.32,0,0,0-.91-.49,8.87,8.87,0,0,0-.92-.3,4.43,4.43,0,0,1-1.22-.48s0,0-.07-.05a4.19,4.19,0,0,0,1.57-.83,4.37,4.37,0,0,0,.7-.73,2.82,2.82,0,0,0,.29-.39c.06-.09.11-.18.16-.27l.17,0a1.71,1.71,0,0,0,.34-.13,1.93,1.93,0,0,0,.5-.35,2,2,0,0,0,.32-.41l.12-.21c0-.06.06-.14.09-.22a.79.79,0,0,0,0-.51.57.57,0,0,0-.2-.28.94.94,0,0,0-.36-.18,1.86,1.86,0,0,0-.38-.06,1,1,0,0,0,.05-.32,3.25,3.25,0,0,0-1.16-4,10.37,10.37,0,0,0-6-1.64c-1.46,0-5.31,1.51-6,2.69a3.27,3.27,0,0,0,0,2.56,1.21,1.21,0,0,0-.41.2.74.74,0,0,0-.29.4.86.86,0,0,0,0,.23v.09a.81.81,0,0,0,0,.11,1.82,1.82,0,0,0,.57.7,5,5,0,0,0,.78.51,5.93,5.93,0,0,0,.63,1.12,3.44,3.44,0,0,0,1,1,13,13,0,0,0,1.83.9,1,1,0,0,1-.23.28.66.66,0,0,1-.17.12l-.1,0-.09,0h0c-.45.05-.89.13-1.32.21a6.86,6.86,0,0,0-1.31.35,3.21,3.21,0,0,0-.53.36c-.15.12-.3.24-.44.37s-.54.49-.79.75A11.16,11.16,0,0,0,8.3,21.58a5.42,5.42,0,0,0-.79,1.82,2,2,0,0,0,0,1H2.68v.44H7.77c.09.15.19.29.29.43a3.09,3.09,0,0,0,.79.78,1.76,1.76,0,0,0,1.33.28,6,6,0,0,0,1.24-.41,5.61,5.61,0,0,0,1-.62,2.85,2.85,0,0,0,.64-.66v.2h.7v-.44h-.54a1.24,1.24,0,0,0,.13-.8,1.93,1.93,0,0,0,.21-.17.79.79,0,0,0,.19-.33.34.34,0,0,0,0-.1.22.22,0,0,0,.15-.08c0,.22.05.44.08.66.08-.48.13-.95.17-1.43.7.13,1.39.25,2.09.36h0c0,.18.07.35.11.5a5.09,5.09,0,0,0,.23.68A4.11,4.11,0,0,0,16.8,23c0-.17,0-.37,0-.57l1.6-.31c0,.45,0,.89,0,1.33l-1.59.37h0a.15.15,0,0,0-.11.12.06.06,0,0,1,0,0h0l-1.3-.21-1.4-.2c.44.13.88.24,1.33.36l1.33.34a.17.17,0,0,0,.1,0c0,.12,0,.24,0,.36s.06.48.1.71c.05-.23.07-.47.1-.71s0-.28,0-.42l1.4-.36c0,.4,0,.79,0,1.19L17,25.53c-.92,0-1.84-.05-2.77-.06,0-.24,0-.47-.07-.71a8.27,8.27,0,0,0-.12-.85c0,.28-.08.57-.11.85s-.06.56-.09.84c0,.07.07.13.17.14h0c0,.22-.07.43-.09.64s-.07.47-.08.7c0,.05,0,.1.12.11h0c1.05.21,2.11.4,3.18.58a.37.37,0,0,0,.23,0h0l.93-.42.45-.22L19,27l.13-.08.05,0,0-.05s0,0,0-.09a.15.15,0,0,0,0-.11l0,0c.07.08,0,0,0,0h0s0,0,0,0,0,0,0-.05v-.09l0-.19-.06-.37-.1-.66s0-.05,0-.08,0-.23,0-.34h9.37Z"/><polygon class="cls-6" points="1.31 0.98 1.31 2 2.28 2 2.28 0.98 2.67 0.98 2.67 3.35 2.28 3.35 2.28 2.24 1.31 2.24 1.31 3.35 0.92 3.35 0.92 0.98 1.31 0.98"/><path class="cls-6" d="M4.18,2.47h0c-.21,0-.68,0-.68.39a.28.28,0,0,0,.3.31.37.37,0,0,0,.37-.26.31.31,0,0,0,0-.09Zm.05.88,0-.18h0a.62.62,0,0,1-.49.21.53.53,0,0,1-.59-.49c0-.42.5-.61,1.06-.62v0c0-.23-.09-.38-.4-.38a1.07,1.07,0,0,0-.41.08l-.08-.19a1.46,1.46,0,0,1,.57-.11c.5,0,.72.23.72.61V3a2.42,2.42,0,0,0,0,.39Z"/><path class="cls-6" d="M6.33,3.31a1.37,1.37,0,0,1-.41.06A.81.81,0,0,1,5,2.51a.89.89,0,0,1,1-.88,1.13,1.13,0,0,1,.35.05l-.08.22a.77.77,0,0,0-.28,0,.59.59,0,0,0-.58.66A.56.56,0,0,0,6,3.14a.82.82,0,0,0,.28,0Z"/><path class="cls-6" d="M7.69,2.32h0c0-.34-.18-.49-.37-.49s-.39.26-.41.49Zm-.78.2c0,.52.3.64.59.64a1.12,1.12,0,0,0,.41-.07l.06.2a1.75,1.75,0,0,1-.54.08.8.8,0,0,1-.91-.85.82.82,0,0,1,.84-.9.68.68,0,0,1,.71.75.62.62,0,0,1,0,.15Z"/><path class="cls-6" d="M9.77,1.2v.45h.48v.21H9.77v1c0,.23.12.28.27.28h.15l0,.21a1.07,1.07,0,0,1-.29,0,.67.67,0,0,1-.39-.1.49.49,0,0,1-.15-.43v-1h-.3V1.65h.3V1.28Z"/><path class="cls-6" d="M10.84,2.5h0c0,.28.07.66.43.66s.41-.4.41-.66-.07-.66-.42-.66-.42.4-.42.66m1.24,0a.8.8,0,0,1-.83.88.78.78,0,0,1-.8-.88.8.8,0,0,1,.83-.88A.78.78,0,0,1,12.08,2.5Z"/><path class="cls-6" d="M12.51,2.09c0-.15,0-.31,0-.44h.35l0,.27h0a.61.61,0,0,1,.53-.3h.08V1.9H13.4a.47.47,0,0,0-.48.35.81.81,0,0,0,0,.16v.94h-.4Z"/><path class="cls-6" d="M13.78,2.09c0-.15,0-.31,0-.44h.35l0,.27h0a.61.61,0,0,1,.53-.3h.08V1.9h-.08a.47.47,0,0,0-.48.35.78.78,0,0,0,0,.16v.94h-.39Z"/><path class="cls-6" d="M16,2.32h0c0-.34-.18-.49-.37-.49s-.39.26-.41.49Zm-.78.2c0,.52.3.64.59.64a1.12,1.12,0,0,0,.41-.07l.06.2a1.75,1.75,0,0,1-.54.08.8.8,0,0,1-.91-.85.82.82,0,0,1,.84-.9.68.68,0,0,1,.71.75.62.62,0,0,1,0,.15Z"/><path class="cls-6" d="M16.77,3.07a1,1,0,0,0,.4.09c.23,0,.37-.1.37-.25s-.07-.22-.32-.33-.5-.29-.5-.49.3-.47.68-.47a1.18,1.18,0,0,1,.45.09l-.11.2a.81.81,0,0,0-.33-.07c-.21,0-.32.1-.32.21s.06.18.31.3.51.28.51.51-.34.51-.74.51a1.09,1.09,0,0,1-.49-.1Z"/><path class="cls-6" d="M20.22,2.3h0V2.18a.39.39,0,0,0-.37-.33c-.33,0-.44.32-.44.66s.13.64.42.64a.38.38,0,0,0,.38-.29.37.37,0,0,0,0-.11ZM20.61.92v2c0,.12,0,.31,0,.41h-.34l0-.22h0a.58.58,0,0,1-.51.25c-.42,0-.73-.32-.73-.87s.37-.89.75-.89a.52.52,0,0,1,.45.2h0V.92Z"/><path class="cls-6" d="M22.22,2.32h0c0-.34-.18-.49-.37-.49s-.39.26-.4.49Zm-.78.2c0,.52.3.64.59.64a1.12,1.12,0,0,0,.41-.07l.06.2a1.75,1.75,0,0,1-.54.08.79.79,0,0,1-.9-.85.81.81,0,0,1,.83-.9.68.68,0,0,1,.71.75.62.62,0,0,1,0,.15Z"/><path class="cls-6" d="M25.25,1.31h-.89l-.14.6h.12a1.28,1.28,0,0,1,.64.17.61.61,0,0,1,.27.52c0,.45-.41.78-1,.78a1.52,1.52,0,0,1-.56-.1l.09-.22a1.33,1.33,0,0,0,.46.09c.34,0,.63-.18.63-.52s-.32-.52-.75-.52h-.26l.21-1h1.19Z"/><path class="cls-6" d="M2.09,6.46a1,1,0,0,1-.41.07.81.81,0,0,1-.9-.86.89.89,0,0,1,1-.89,1,1,0,0,1,.34.06L2,5.06a.82.82,0,0,0-.28,0,.59.59,0,0,0-.58.66.56.56,0,0,0,.59.63,1.26,1.26,0,0,0,.28,0Z"/><path class="cls-6" d="M3.94,6c0,.19,0,.34,0,.47H3.61l0-.18h0a.77.77,0,0,1-.53.2c-.44,0-.61-.23-.61-.65V4.81h.4v1c0,.27.06.47.33.47a.34.34,0,0,0,.35-.23.39.39,0,0,0,0-.15V4.81h.4Z"/><path class="cls-6" d="M4.88,5.91h0a.34.34,0,0,0,0,.1.39.39,0,0,0,.37.3c.32,0,.43-.3.43-.66S5.57,5,5.26,5a.4.4,0,0,0-.37.3.49.49,0,0,0,0,.12Zm-.42.6c0-.1,0-.3,0-.41v-2h.4V5h0a.61.61,0,0,1,.52-.23c.38,0,.68.3.68.86a.78.78,0,0,1-.76.89.52.52,0,0,1-.49-.25h0l0,.23Z"/><path class="cls-6" d="M6.82,5.66h0c0,.28.07.66.43.66s.4-.4.4-.66S7.58,5,7.24,5s-.42.4-.42.66m1.23,0a.79.79,0,0,1-.82.87.77.77,0,0,1-.81-.87.8.8,0,0,1,.83-.88A.78.78,0,0,1,8.05,5.66Z"/><path class="cls-6" d="M8.42,6.22a1,1,0,0,0,.4.09c.23,0,.37-.09.37-.24s-.07-.22-.32-.34-.5-.28-.5-.48.3-.47.68-.47a1,1,0,0,1,.45.09l-.11.2A.81.81,0,0,0,9.06,5c-.21,0-.32.1-.32.21s.06.18.31.3.51.28.51.51-.34.51-.74.51a1.09,1.09,0,0,1-.49-.1Z"/><path class="cls-6" d="M21.66,16.12l-.78,3.58s1,.17.67.91a3.58,3.58,0,0,1-1.05,1.27,7.42,7.42,0,0,0-.67-.77c-.34-.34-.81-.95-.26-1.2l.55-.25-.32-2.3a12.67,12.67,0,0,0,1.86-1.24"/><path class="cls-6" d="M14.63,17.36v1.52l-.58.26,0,1,0,.93s-.85.24-.85,0,.53-1.3.32-1.35a15.63,15.63,0,0,1-.27-3s.93.44,1.43.6"/></svg>