<svg id="Capa_1" data-name="Capa 1" xmlns="http://www.w3.org/2000/svg" viewBox="0 0 31.41 28.48"><defs><style>.cls-1{fill:#0070a2;}.cls-2{fill:#f05050;}.cls-3{fill:#acd03d;}.cls-4{fill:#f5a4c7;}.cls-5{fill:#fcd2be;}.cls-6{fill:#231f20;}</style></defs><title>2-21meses</title><path class="cls-1" d="M14.36,19l2.45.33,1.9-1.09A.79.79,0,0,0,18,18c-.54,0-2.06,0-2.06,0s-1.52.78-1.55,1"/><polygon class="cls-2" points="16.7 19.32 14.59 18.96 14.37 19.02 15.32 20.78 17.45 21.33 16.7 19.32"/><path class="cls-3" d="M17.39,20.78c-.05,0-.71-1.24-.71-1.24l1.91-1.28.43,1.6Z"/><path class="cls-4" d="M23.31,23s-1.66.67-1.32,1.24a7.36,7.36,0,0,0,2.13,1.39l4.27-.16s1-.79,1.11-1.22a1.41,1.41,0,0,0-.45-1.47,10.64,10.64,0,0,1-1.15-1Z"/><path class="cls-5" d="M20.2,20a2.34,2.34,0,0,1-.75-.41c-.28-.25-.26-.74-.58-.7s-.28.32-.25.48.07.14-.1.29S17,19.77,17,20s.85.36.85.36-1.07,0-1.12.19.82.35.82.35-.45.24-.35.37a3.65,3.65,0,0,0,.76.43l1.23-.2,3.36.35s-.31.22-.25,1-.39.94.7,1.14a9.57,9.57,0,0,0,3.84-.32c.93-.32,1.57-.75,1.45-1.82a5.48,5.48,0,0,0-.54-2.35c-.26-.23-.84-.56-1-1.06s-.47-.83-.22-1a1.77,1.77,0,0,0,1-1.4c.08-.9-.68-2.53-1.7-2.63s-2.93-.45-3.45-.22S20,14.63,20,15s.58.66.69,1.21a6.67,6.67,0,0,1,.11,1.27,1.93,1.93,0,0,0,1.39,1.19,8.78,8.78,0,0,0,1.78.1,1.76,1.76,0,0,1-.24.12l0,.26a2.64,2.64,0,0,0-1.3,0c-.67.21-2.21.89-2.21.89"/><path class="cls-5" d="M28.09,24.28a3.19,3.19,0,0,0-3.68.53l-.32.54A5.2,5.2,0,0,1,23,24.91c-.27-.19-.66-.53-.66-.53a6.77,6.77,0,0,0-1.79.74c-.51.41-1.17,1.46,0,1.94a5.89,5.89,0,0,0,2.38.39l1.28-.11a1.63,1.63,0,0,0,1.36.48,6,6,0,0,0,2.1-.71s-.11.41.3.33a3.44,3.44,0,0,1,1.07-.13c.36,0,.63.17,1,0s.48-.74.55-1.21-.13-1.74-.52-1.77a2.5,2.5,0,0,0-.78.08l-.48.6s.53-.59-.73-.73"/><path class="cls-6" d="M23.18,16c.4-.26,2.08.24,2.08.24a3.24,3.24,0,0,0-1.61-.42c-.76.07-.61.29-.61.29Z"/><path class="cls-6" d="M23.68,16.21c-.33,0-.26.14-.26.14l.16,0a.6.6,0,0,1,0,.13c0,.09.27.16.48.07s.06-.19.06-.19h.59a9.13,9.13,0,0,0-1-.12"/><path class="cls-6" d="M21.59,16.43c-.26,0-.65,0-.54.16a.55.55,0,0,1,.25-.1c.09,0-.07,0,0,.13a.32.32,0,0,0,.38.09c.17-.08-.14-.21.17-.18,0,0,0-.07-.27-.1"/><path class="cls-6" d="M24.34,17.43s-.4.12-.91.23a4.62,4.62,0,0,1-1.16,0c.18,0,.18.15.38.26a1.77,1.77,0,0,0,1.11-.11c.48-.14.58-.41.58-.41"/><path class="cls-6" d="M25.81,17v0"/><path class="cls-6" d="M30.4,26.41h0a1.72,1.72,0,0,1,0,.24v.05l0,.07a.93.93,0,0,0,0,.1,1.22,1.22,0,0,1-.34.34.43.43,0,0,1,0-.07h0s0-.08,0-.11a.15.15,0,0,0-.16,0h0a.92.92,0,0,0-.19.24.31.31,0,0,1-.12.05h-.06v0a1.15,1.15,0,0,0,.1-.23h0s0-.05-.05-.06a.09.09,0,0,0-.11,0s0,0,0,0a.57.57,0,0,1-.11.16c0,.06-.13.11-.15.1h0a.69.69,0,0,0,.11-.13l0,0a.11.11,0,0,0-.06-.17.26.26,0,0,0-.28,0l0,0h0a.12.12,0,0,0,0,0,.09.09,0,0,1,0,0v0c0-.06,0-.13-.14-.16a.25.25,0,0,0-.27.09,1,1,0,0,1-.17.24.51.51,0,0,1-.18.15h0l-.06,0a.14.14,0,0,1-.07-.08s0,0,0-.06c.61-.37,1.08-.71,1.41-1s.54-.44.54-.44l0,0-.65.35c-.41.23-1,.56-1.72.92l-.57.27a3.47,3.47,0,0,1-.61.23,2.52,2.52,0,0,1-1.36,0,1.36,1.36,0,0,1-.93-.78,1.75,1.75,0,0,1,.18-1.14,3.37,3.37,0,0,1,.79-1.08,1.87,1.87,0,0,1,.62-.39,2.05,2.05,0,0,1,.79-.06,6.76,6.76,0,0,1,1.5.3c.42.13.88.34.87.5s-.11.21-.23.31a3.37,3.37,0,0,1-.38.28c-.26.17-.51.3-.71.42l-.66.35,0,0s.28-.08.75-.26c.23-.09.51-.21.81-.36a3.78,3.78,0,0,0,.46-.28.89.89,0,0,0,.37-.47s0,0,0,0a1.23,1.23,0,0,0,.29-.21.85.85,0,0,0,.2-.22h0a.69.69,0,0,1,.43.13.45.45,0,0,1,.15.19,1.23,1.23,0,0,1,.09.23,1.68,1.68,0,0,1,.06.24,1.9,1.9,0,0,1,0,.25,4,4,0,0,1,0,.49,4,4,0,0,1,0,.49m-.52.93Zm-7-.05h0l-.68,0-.72-.05-.18,0h0s0,0,0,0l-.09,0L20.79,27a2,2,0,0,1-.58-.35.69.69,0,0,1-.23-.52,1,1,0,0,1,.22-.53,2.72,2.72,0,0,1,.43-.4,4,4,0,0,1,.46-.3,5.62,5.62,0,0,1,.84-.38l.25-.1.14.14.22.19a3.51,3.51,0,0,0,.52.33,2.55,2.55,0,0,0,.54.2,1.8,1.8,0,0,0,.35.07l-.09.12a2.75,2.75,0,0,0-.36.78c-.07.05-.23.13-.4.22l-.34.13-.18,0a.76.76,0,0,0,.19,0l.43,0,.28,0a1,1,0,0,0,0,.16,1.16,1.16,0,0,0,.3.52ZM22.66,24h0a3,3,0,0,0,.74.13,7.89,7.89,0,0,0,1.53-.12l.71-.11a.76.76,0,0,0-.2.06,2.37,2.37,0,0,0-.65.43,5.35,5.35,0,0,0-.78.88l-.26-.16a9.51,9.51,0,0,1-.83-.59l-.21-.16-.2-.17-.17-.15-.12-.14a.22.22,0,0,1,0-.23A1,1,0,0,0,22.66,24Zm-3.48-2.75H19l-.65.11.09,0h0c.1,0,.14-.14.08-.21a.3.3,0,0,0-.33-.09,2.81,2.81,0,0,1-.59.13,1.27,1.27,0,0,1-.27,0h0l.24-.14c.17-.08.37-.16.56-.23h0c.08,0,.12-.1.09-.16a.24.24,0,0,0-.25-.09,3.4,3.4,0,0,1-.64.09l-.3,0-.11,0-.06,0h0l.09,0a3,3,0,0,1,.32-.06c.23,0,.46-.05.7-.06h0a.1.1,0,0,0,.1-.05s0-.08-.08-.09a4.18,4.18,0,0,1-.51-.1,1.13,1.13,0,0,1-.33-.14s0,0,0-.06l.1,0,.25,0h.83l.15,0h.07a.2.2,0,0,0,.09-.06c.1-.17,0-.28,0-.41a1,1,0,0,1,0-.17s0-.08,0-.09a.5.5,0,0,1,.33.13,1.16,1.16,0,0,1,.22.31,1.11,1.11,0,0,1,.07.16.45.45,0,0,0,.15.23,1.61,1.61,0,0,0,.59.21,5.87,5.87,0,0,0,.59.05l.58,0,.28,0,.23,0a1.68,1.68,0,0,1,.45,0,1.21,1.21,0,0,1,.38.16h0a.31.31,0,0,0,.28,0l1.78-.94a4.74,4.74,0,0,1,.93-.4,1.49,1.49,0,0,1,1,.08l0,0a1.58,1.58,0,0,0-1.11-.2A3,3,0,0,0,25,19l-.49.21c-.51.22-1,.45-1.49.69a3.91,3.91,0,0,1,.41-.3l.06,0,.09,0a.63.63,0,0,0,.23-.16.32.32,0,0,0,.09-.34.35.35,0,0,0-.07-.15l.11,0,.17,0a2.29,2.29,0,0,0,.34-.07,4,4,0,0,0,.64-.22,4.5,4.5,0,0,0,1.05-.63l.31-.28a1.66,1.66,0,0,0,0,.37,1.07,1.07,0,0,0,.17.63l.1.09a.63.63,0,0,0,.11.08l.18.12a1.76,1.76,0,0,1,.31.3,3,3,0,0,1,.45.81A5.74,5.74,0,0,1,28,21a4.88,4.88,0,0,1,.12,1.07,1.5,1.5,0,0,1-.35,1,2.1,2.1,0,0,1-.56.37,4.13,4.13,0,0,1-.73.22,10.25,10.25,0,0,1-1.55.19,9.79,9.79,0,0,1-1.44,0c-.44,0-.81-.13-.9-.34a.41.41,0,0,1-.07-.15v-.12h0v-.41c0-.23,0-.43,0-.6s0-.23,0-.31l.38,0a5.74,5.74,0,0,0,.95-.12c.32-.07.61-.14.9-.23a7.74,7.74,0,0,0,1.6-.7l0,0a10.89,10.89,0,0,1-1.67.55,8.55,8.55,0,0,1-.88.17l-.45.05-.45,0A13.93,13.93,0,0,1,21,21.53C20.38,21.47,19.77,21.39,19.18,21.29ZM17.07,21h0a.65.65,0,0,0-.15.1l-.05.07L16.48,21a.19.19,0,0,0-.05-.1.37.37,0,0,0-.38,0l-.52-.13c0-.1-.09-.21-.14-.31h0l0-.06v0c-.09-.15-.19-.3-.29-.44a4.46,4.46,0,0,1-.48-.8l1,.22c.37.09.75.15,1.13.23h0a.33.33,0,0,0-.05.12.5.5,0,0,0,0,.32.79.79,0,0,0,.23.28l.06,0h-.07a1,1,0,0,0-.2.08.21.21,0,0,0-.09.1.14.14,0,0,0,0,.13l0,0h.05l.07.05a.9.9,0,0,0,.21.08l.24,0Zm-.76.42h0a.53.53,0,0,1-.2.05h-.17l.05-.05.36-.2h0s0,0,0,0l.31,0A1.53,1.53,0,0,1,16.31,21.37Zm-.4,0Zm0,0h0s0,0,0,0Zm-.61-.25h0a.63.63,0,0,1-.21,0H15l0,0a2,2,0,0,1,.33-.16l.25,0-.08,0Zm-.29.06Zm-.44-.43h0s0,0,0,0h0v0l0,0,.15-.05.15,0H15l.12.24H15a.9.9,0,0,1-.24,0A.36.36,0,0,1,14.57,20.78Zm-.14-.86h0a.31.31,0,0,1,.17-.05h.11a1,1,0,0,0,0,.1c0,.11.07.22.11.33H14.7a.42.42,0,0,1-.24-.12l0-.07s0-.05,0-.07A.15.15,0,0,1,14.43,19.92Zm3,.32h-.29l0-.06v-.06Zm-.55-.74h0a15.36,15.36,0,0,0,1.67-1c0,.14.08.29.13.43h-.06c-.21.08-.17.18-.18.24a1.2,1.2,0,0,0,0,.2c0,.12.07.26,0,.33a1.54,1.54,0,0,1-.45.05l-.55,0-.28,0-.11,0a.77.77,0,0,0-.19-.21l-.13-.08.07,0Zm5,0h0l.29-.14.26-.1a4.07,4.07,0,0,1,.53-.13,5.4,5.4,0,0,1,.54-.08.41.41,0,0,1-.12.11l-.11,0-.11,0-.13.07a1,1,0,0,0-.46.56.09.09,0,0,0,0,.05,1,1,0,0,0-.24-.09,2.51,2.51,0,0,0-.62-.08l-.31,0-.26,0H21A5.71,5.71,0,0,0,21.92,19.54ZM23,18.6h0a3.1,3.1,0,0,1-.61-.09,3.45,3.45,0,0,1-.57-.18,3.8,3.8,0,0,1-.49-.26,2,2,0,0,1-.37-.34l-.06-.09s0,0,0-.09,0-.16,0-.23a3.29,3.29,0,0,0-.14-.94,1.41,1.41,0,0,0-.06-.22,1.22,1.22,0,0,1,.83,0c.3.18.63.39.47.71s-.25.39,0,.47.3.14.55,0c0,0-.51,0-.5-.23s.24-.41,0-.77a1.1,1.1,0,0,0-1.36-.26l-.08-.18a1.48,1.48,0,0,0-.29-.43l-.19-.22,1.13.51-.66-.69,1.3.64-.45-.29,1.11.25L22.05,15l1.1.64-.36-.41.7.4-.42-.69,1.26.7-1-1,1.65.72-.48-.6a2.57,2.57,0,0,1,1.26,1.12,1.41,1.41,0,0,1,0,1.12l.28-.56.06.35a.63.63,0,0,0,.25-.52s.37-.44.71-.36.2.39.08.7l-.2.25s0-.05,0-.06a.19.19,0,0,0-.05-.09l-.08,0h0v.06s0,0,0,.05,0,0,0,0h-.07s0,0,0,0,0,0,0,0a2.48,2.48,0,0,1,0-.27c0-.05,0-.11,0-.13s0,0,0,0l.07,0,.13-.1.06-.07s0,0,0,0,0,0,0,0l.05,0,.05,0h0a.31.31,0,0,0,0-.07.18.18,0,0,0,0-.09A.19.19,0,0,0,27,16l-.14,0a.56.56,0,0,0-.14.09l-.1.08-.06.05s-.09.08-.07.12a.74.74,0,0,0,.08.13.15.15,0,0,1,0,.23.06.06,0,0,0,0,.11.37.37,0,0,0,.12.07.45.45,0,0,0,.23,0l.06,0a2,2,0,0,1-.21.2h0a3.44,3.44,0,0,1-.77.75,4.57,4.57,0,0,1-1.06.53,3.13,3.13,0,0,1-.6.16,2.8,2.8,0,0,1-.64.08A3.32,3.32,0,0,1,23,18.6Zm5.33,4.07h0a1.77,1.77,0,0,0,.12-.37h0c.06.08.15.19.24.32l.15.2c.06.08.09.16.15.24a1.19,1.19,0,0,1,.13.25,1.3,1.3,0,0,1,.1.25,1.38,1.38,0,0,1,.06.26,2.17,2.17,0,0,1,0,.26.86.86,0,0,1-.06.23,1,1,0,0,1-.09.21.85.85,0,0,1-.09.14,1,1,0,0,0-.37-.31,3,3,0,0,0-.71-.28,6.24,6.24,0,0,0-1.66-.21l-.41,0,.57-.11A3.55,3.55,0,0,0,28,23.21,1.62,1.62,0,0,0,28.37,22.67Zm2.51,2.71a2.58,2.58,0,0,0-.08-.26,2,2,0,0,0-.11-.26,1,1,0,0,0-.18-.26,1,1,0,0,0-.29-.22,1,1,0,0,0-.54-.08.51.51,0,0,0,.07-.17.93.93,0,0,0,0-.63,1.2,1.2,0,0,0-.13-.31,1.05,1.05,0,0,0-.2-.27,1.61,1.61,0,0,0-.22-.23L29,22.5a2.78,2.78,0,0,0-.4-.24l-.07,0,0-.13a5.09,5.09,0,0,0,0-1.11,4,4,0,0,0-.28-1,2.65,2.65,0,0,0-.58-.87,2,2,0,0,0-.42-.34L27,18.61l-.08-.05-.05,0a1.21,1.21,0,0,1-.26-.52,3.56,3.56,0,0,1-.07-.44l.15-.17,0,.38.14-.39.11.32.23-.66.12.34s.27-.88.35-1.23a2.13,2.13,0,0,0-.05-2.1,4.89,4.89,0,0,0-4.36-1.93,4.53,4.53,0,0,0-3,1c-.59.52-1,1.34-.47,2a3.75,3.75,0,0,0,.7.66,1.73,1.73,0,0,1,.22.65,2.84,2.84,0,0,1,0,.92c0,.08,0,.13-.06.23a.25.25,0,0,0,0,.14.5.5,0,0,0,.05.13,1.44,1.44,0,0,0,.38.44,2.44,2.44,0,0,0,.54.33,3.68,3.68,0,0,0,.66.23,4.44,4.44,0,0,0,1.36.09,1.39,1.39,0,0,1-.06.13l0,0A1.87,1.87,0,0,0,23,19a2.27,2.27,0,0,0-.67,0l-.35.1-.32.14c-.38.16-.79.33-1.08.48a2.29,2.29,0,0,0-.27.13l-.13,0a1,1,0,0,1-.4-.1c-.05,0-.1-.18-.19-.3a1.42,1.42,0,0,0-.31-.35.91.91,0,0,0-.47-.17c0-.22.06-.45.08-.67a.09.09,0,0,0,0-.07.19.19,0,0,0-.13-.05c-.4-.09-.81-.15-1.22-.2s-.85-.08-1.28-.1h0a.32.32,0,0,0-.16,0,9.43,9.43,0,0,0-.83.47,7.06,7.06,0,0,0-.77.54,9.57,9.57,0,0,0,1-.33c.29-.11.56-.24.83-.37.4,0,.8,0,1.2,0s.75,0,1.13-.07h0a17.1,17.1,0,0,0-1.9,1c-.35,0-.69-.09-1-.12S14.85,19,14.46,19h-.05s-.06,0-.05.07a3.26,3.26,0,0,1,.32.75l-.07,0a.64.64,0,0,0-.33,0,.3.3,0,0,0-.2.22.41.41,0,0,0,0,.11c0,.06,0,.07,0,.11a.56.56,0,0,0,.18.23.8.8,0,0,0,.16.08.3.3,0,0,0-.08.08.15.15,0,0,0,0,.13v0s0,0,0,0l.05.05a.51.51,0,0,0,.15.07l.14,0h.12a.5.5,0,0,0-.17.1.2.2,0,0,0,0,.23.18.18,0,0,0,.08.09l0,0,0,0,0,0a.61.61,0,0,0,.25.06,1.71,1.71,0,0,0,.41,0h0a.31.31,0,0,0,.15.15l.11,0,.06,0H16a.86.86,0,0,0,.17,0,.9.9,0,0,0,.56-.47h.08a.12.12,0,0,0,0,.13.21.21,0,0,0,.13.13l0,0h0l0,0a1.57,1.57,0,0,0,.23,0h.11l0,.06a.2.2,0,0,0,.08.17.46.46,0,0,0,.16.07H18c.41,0,.78-.1,1.16-.17.6.1,1.2.16,1.81.21s.93.05,1.4,0a2.82,2.82,0,0,0-.09.3,5.27,5.27,0,0,0-.11.59l-.05.37v.21a.63.63,0,0,0,.07.25s0,0,0,0l0,0a.33.33,0,0,0-.18.31.56.56,0,0,0,.06.21,1,1,0,0,0,.14.2l-.28,0a3.72,3.72,0,0,0-1,.28,2.38,2.38,0,0,0-.56.35,1.42,1.42,0,0,0-.34.53,2.8,2.8,0,0,0-.11.59,1.05,1.05,0,0,0,.14.61,1.32,1.32,0,0,0,.57.52,2.78,2.78,0,0,0,.4.16l.1,0,.06,0h0l.21,0a4.2,4.2,0,0,0,.84.06c.25,0,.49,0,.71,0a9.39,9.39,0,0,0,1-.15,2.25,2.25,0,0,0,.68.38,3.08,3.08,0,0,0,1.8,0,3.28,3.28,0,0,0,.7-.29l.53-.29a.23.23,0,0,0,.08.14c.05,0,0,0,.11.07a.47.47,0,0,0,.17,0,.68.68,0,0,0,.3-.08h0a.23.23,0,0,0,.07.07h0l0,0h.07a.47.47,0,0,0,.25,0l.09-.06h0a.35.35,0,0,0,.12,0,.25.25,0,0,0,.15,0,.45.45,0,0,0,.17-.08l.05,0,.11,0,.14,0a0,0,0,0,0,0,0l.1.05h.17l.23-.06A1.38,1.38,0,0,0,30.7,27l.09-.14,0-.06,0-.08a2.68,2.68,0,0,0,.07-.27,2,2,0,0,0,0-.54A2.52,2.52,0,0,0,30.88,25.38Z"/><path class="cls-6" d="M2.81,3.5a1.5,1.5,0,0,1-.49.07A1.07,1.07,0,0,1,1.16,2.39,1.14,1.14,0,0,1,2.38,1.16a1.27,1.27,0,0,1,.43.06l-.09.23a.92.92,0,0,0-.35-.05c-.37,0-.8.24-.8,1s.39,1,.81,1a1.47,1.47,0,0,0,.36-.05Z"/><path class="cls-6" d="M3.32,2.7h0c0,.28.07.66.43.66s.41-.4.41-.66S4.09,2,3.74,2s-.42.4-.42.66m1.24,0a.79.79,0,0,1-.83.87.77.77,0,0,1-.8-.87.8.8,0,0,1,.83-.88A.78.78,0,0,1,4.56,2.7Z"/><path class="cls-6" d="M4.94,2.29c0-.2,0-.31,0-.44h.35l0,.21h0a.66.66,0,0,1,.56-.24.53.53,0,0,1,.51.26h0a.64.64,0,0,1,.25-.19A.74.74,0,0,1,7,1.82a.55.55,0,0,1,.6.6V3.55H7.18V2.48c0-.22,0-.43-.35-.43a.38.38,0,0,0-.37.25.76.76,0,0,0,0,.15v1.1H6.06V2.43c0-.19,0-.38-.34-.38a.36.36,0,0,0-.37.27.77.77,0,0,0,0,.15V3.55H4.94Z"/><path class="cls-6" d="M8.45,2.92h0a.32.32,0,0,0,0,.14.38.38,0,0,0,.36.29c.33,0,.43-.31.43-.65s-.12-.65-.43-.65a.41.41,0,0,0-.37.31.53.53,0,0,0,0,.13Zm-.39-.54c0-.26,0-.41,0-.53h.35l0,.21h0A.63.63,0,0,1,9,1.82c.43,0,.71.32.71.87s-.38.88-.76.88a.52.52,0,0,1-.44-.19h0v.84H8.06Z"/><path class="cls-6" d="M10.05,2.29c0-.15,0-.32,0-.44h.35l0,.26h0a.62.62,0,0,1,.53-.29H11V2.1h-.08a.46.46,0,0,0-.48.35.81.81,0,0,0,0,.16v.94h-.4Z"/><path class="cls-6" d="M12.26,2.52h0c0-.34-.18-.49-.37-.49s-.39.26-.41.49Zm-.78.2c0,.52.3.63.59.63a1.43,1.43,0,0,0,.41-.06l.06.2a1.75,1.75,0,0,1-.54.08.81.81,0,0,1-.91-.86.81.81,0,0,1,.84-.89.68.68,0,0,1,.71.75.66.66,0,0,1,0,.15Z"/><path class="cls-6" d="M13,2.29c0-.2,0-.31,0-.44h.34l0,.2h0a.71.71,0,0,1,.57-.23.54.54,0,0,1,.6.59V3.55h-.4V2.45c0-.2-.05-.4-.34-.4a.37.37,0,0,0-.37.27.78.78,0,0,0,0,.16V3.55H13Z"/><path class="cls-6" d="M16.13,2.49h0V2.38a.39.39,0,0,0-.37-.33c-.33,0-.44.31-.44.65s.13.65.42.65a.39.39,0,0,0,.38-.29.37.37,0,0,0,0-.11Zm.39-1.37v2c0,.11,0,.31,0,.41H16.2l0-.22h0a.62.62,0,0,1-.52.24c-.42,0-.72-.31-.72-.87a.78.78,0,0,1,.75-.88.53.53,0,0,1,.45.2h0v-.9Z"/><path class="cls-6" d="M18.07,2.52h0c0-.34-.17-.49-.36-.49s-.39.26-.41.49Zm-.77.2c0,.52.3.63.59.63a1.35,1.35,0,0,0,.4-.06l.07.2a1.77,1.77,0,0,1-.55.08.81.81,0,0,1-.9-.86.81.81,0,0,1,.84-.89.67.67,0,0,1,.7.75v.15Z"/><path class="cls-6" d="M20.68,2.49h0a.45.45,0,0,0,0-.11.38.38,0,0,0-.36-.33c-.33,0-.44.31-.44.65s.13.65.42.65a.38.38,0,0,0,.37-.29.36.36,0,0,0,0-.11Zm.39-1.37v2c0,.11,0,.31,0,.41h-.34l0-.22h0a.62.62,0,0,1-.52.24c-.42,0-.72-.31-.72-.87s.36-.88.75-.88a.53.53,0,0,1,.45.2h0v-.9Z"/><path class="cls-6" d="M21.86,2.7h0c0,.28.07.66.43.66s.4-.4.4-.66S22.62,2,22.28,2s-.42.4-.42.66m1.23,0a.79.79,0,0,1-.82.87.77.77,0,0,1-.81-.87.8.8,0,0,1,.83-.88A.78.78,0,0,1,23.09,2.7Z"/><path class="cls-6" d="M23.41,3.26a1,1,0,0,0,.4.09c.23,0,.36-.09.36-.24s-.06-.22-.31-.34-.5-.28-.5-.48.3-.47.68-.47a1,1,0,0,1,.45.09l-.11.2A.81.81,0,0,0,24.05,2c-.21,0-.32.1-.32.21s.06.18.31.3.51.28.51.51-.34.51-.74.51a1.17,1.17,0,0,1-.5-.1Z"/><path class="cls-6" d="M1.35,6.7V5.21H1V5h.31V4.9a.6.6,0,0,1,.22-.51.87.87,0,0,1,.5-.14.9.9,0,0,1,.31,0l-.07.21a.57.57,0,0,0-.22,0c-.28,0-.34.21-.34.43V5H2.2v.21H1.75V6.7Z"/><path class="cls-6" d="M2.38,5.44c0-.14,0-.31,0-.44h.35l0,.27h0A.62.62,0,0,1,3.27,5h.08v.28H3.27a.47.47,0,0,0-.48.36.71.71,0,0,0,0,.15V6.7h-.4Z"/><path class="cls-6" d="M4.49,5.83h0c-.2,0-.68,0-.68.39a.29.29,0,0,0,.31.3.35.35,0,0,0,.36-.26.28.28,0,0,0,0-.09Zm.06.87,0-.18h0A.62.62,0,0,1,4,6.73c-.33,0-.59-.19-.59-.48s.5-.62,1.05-.62v0c0-.23-.08-.39-.39-.39a1.07,1.07,0,0,0-.41.09l-.09-.19A1.56,1.56,0,0,1,4.17,5c.5,0,.71.22.71.6v.74a1.54,1.54,0,0,0,0,.38Z"/><path class="cls-6" d="M5.32,6.42a1,1,0,0,0,.4.09c.22,0,.36-.09.36-.25S6,6.05,5.76,5.93s-.49-.29-.49-.48S5.56,5,6,5a1.19,1.19,0,0,1,.44.08l-.1.21A.84.84,0,0,0,6,5.19c-.22,0-.32.11-.32.22s.06.18.3.29.51.28.51.52-.33.5-.74.5a1.16,1.16,0,0,1-.49-.09Z"/><path class="cls-6" d="M7.87,5.68h0c0-.34-.18-.49-.37-.49s-.39.26-.41.49Zm-.78.2c0,.52.3.63.59.63a1.12,1.12,0,0,0,.41-.07l.06.2a1.52,1.52,0,0,1-.55.08.8.8,0,0,1-.9-.85A.81.81,0,0,1,7.54,5a.67.67,0,0,1,.7.75v.15Z"/><path class="cls-6" d="M8.55,6.42a1,1,0,0,0,.4.09c.23,0,.36-.09.36-.25S9.25,6.05,9,5.93s-.5-.29-.5-.48S8.8,5,9.18,5a1.25,1.25,0,0,1,.45.08l-.11.21a.8.8,0,0,0-.33-.08c-.21,0-.32.11-.32.22s.06.18.31.29.51.28.51.52-.34.5-.74.5a1.18,1.18,0,0,1-.5-.09Z"/><path class="cls-6" d="M10.73,6.42a1,1,0,0,0,.4.09c.23,0,.36-.09.36-.25s-.06-.21-.31-.33-.5-.29-.5-.48S11,5,11.36,5a1.25,1.25,0,0,1,.45.08l-.11.21a.8.8,0,0,0-.33-.08c-.21,0-.32.11-.32.22s.06.18.31.29.51.28.51.52-.34.5-.74.5a1.18,1.18,0,0,1-.5-.09Z"/><path class="cls-6" d="M13.28,5.68h0c0-.34-.18-.49-.37-.49s-.39.26-.4.49Zm-.78.2c0,.52.3.63.59.63a1.12,1.12,0,0,0,.41-.07l.06.2a1.5,1.5,0,0,1-.54.08.79.79,0,0,1-.9-.85A.81.81,0,0,1,13,5a.68.68,0,0,1,.71.75.66.66,0,0,1,0,.15Z"/><path class="cls-6" d="M14,5.44c0-.2,0-.3,0-.44h.34l0,.21h0A.71.71,0,0,1,15,5a.53.53,0,0,1,.6.58V6.7h-.39V5.61c0-.2-.06-.41-.35-.41a.38.38,0,0,0-.37.28.71.71,0,0,0,0,.15V6.7H14Z"/><path class="cls-6" d="M17.26,6.66a1.07,1.07,0,0,1-.41.06.81.81,0,0,1-.91-.86.89.89,0,0,1,1-.88,1,1,0,0,1,.35,0l-.08.22a1.21,1.21,0,0,0-.28,0,.58.58,0,0,0-.57.65.56.56,0,0,0,.58.64.88.88,0,0,0,.29,0Z"/><path class="cls-6" d="M17.55,6.7h0V5h.39V6.7ZM18,4.57c0,.1-.09.17-.24.17s-.22-.07-.22-.17.1-.18.23-.18S18,4.46,18,4.57Z"/><rect class="cls-6" x="18.44" y="4.27" width="0.39" height="2.43"/><rect class="cls-6" x="19.36" y="4.27" width="0.39" height="2.43"/><path class="cls-6" d="M21.21,5.83h0c-.2,0-.68,0-.68.39a.28.28,0,0,0,.3.3.36.36,0,0,0,.37-.26.28.28,0,0,0,0-.09Zm.06.87,0-.18h0a.65.65,0,0,1-.5.21c-.33,0-.59-.19-.59-.48s.5-.62,1.06-.62v0c0-.23-.08-.39-.39-.39a1,1,0,0,0-.41.09l-.09-.19A1.48,1.48,0,0,1,20.89,5c.49,0,.71.22.71.6v.74a2.3,2.3,0,0,0,0,.38Z"/><path class="cls-6" d="M22,6.42a1,1,0,0,0,.4.09c.23,0,.37-.09.37-.25s-.07-.21-.32-.33-.5-.29-.5-.48.3-.47.68-.47a1.21,1.21,0,0,1,.45.08L23,5.27a.8.8,0,0,0-.33-.08c-.21,0-.32.11-.32.22s.06.18.31.29.51.28.51.52-.34.5-.74.5a1.1,1.1,0,0,1-.49-.09Z"/><path class="cls-6" d="M2.48,9.82a1.37,1.37,0,0,1-.41.06A.82.82,0,0,1,1.16,9a.89.89,0,0,1,1-.88,1.08,1.08,0,0,1,.35,0l-.08.22a.77.77,0,0,0-.28-.05A.59.59,0,0,0,1.56,9a.56.56,0,0,0,.58.64.88.88,0,0,0,.29-.05Z"/><path class="cls-6" d="M3,9H3c0,.28.07.66.43.66s.4-.4.4-.66-.06-.66-.41-.66S3,8.75,3,9M4.25,9a.79.79,0,0,1-.82.88A.77.77,0,0,1,2.63,9a.8.8,0,0,1,.83-.88A.78.78,0,0,1,4.25,9Z"/><path class="cls-6" d="M4.64,8.6c0-.2,0-.3,0-.44H5l0,.2H5a.7.7,0,0,1,.56-.23.54.54,0,0,1,.6.59V9.86H5.77V8.76c0-.2-.06-.4-.34-.4a.38.38,0,0,0-.38.28.66.66,0,0,0,0,.15V9.86h-.4Z"/><path class="cls-6" d="M6.6,9.58a1,1,0,0,0,.4.09c.22,0,.36-.1.36-.25S7.29,9.2,7,9.09s-.49-.29-.49-.49.29-.47.68-.47a1.16,1.16,0,0,1,.44.09l-.11.2a.79.79,0,0,0-.32-.07c-.22,0-.33.11-.33.21s.07.18.31.3.51.28.51.52-.33.5-.74.5a1.15,1.15,0,0,1-.49-.1Z"/><path class="cls-6" d="M9.15,8.84h0c0-.35-.18-.5-.37-.5s-.39.26-.41.5ZM8.37,9c0,.52.3.64.59.64a1.16,1.16,0,0,0,.41-.07l.06.2a1.77,1.77,0,0,1-.55.08A.8.8,0,0,1,8,9a.82.82,0,0,1,.84-.9.68.68,0,0,1,.7.75V9Z"/><path class="cls-6" d="M11.11,9.82a1.37,1.37,0,0,1-.41.06A.81.81,0,0,1,9.79,9a.89.89,0,0,1,1-.88,1.13,1.13,0,0,1,.35,0L11,8.41a.82.82,0,0,0-.28-.05.59.59,0,0,0-.58.66.57.57,0,0,0,.59.64.87.87,0,0,0,.28-.05Z"/><path class="cls-6" d="M12.9,9.4c0,.19,0,.33,0,.46h-.35l0-.18h0a.77.77,0,0,1-.53.21c-.44,0-.61-.23-.61-.65V8.16h.4v1c0,.26.06.46.33.46a.35.35,0,0,0,.35-.22.41.41,0,0,0,0-.16V8.16h.4Z"/><path class="cls-6" d="M13.88,7.71v.45h.47v.21h-.47v1c0,.22.12.28.26.28h.16v.2a1.07,1.07,0,0,1-.29,0,.69.69,0,0,1-.39-.1c-.1-.08-.15-.19-.15-.43v-1h-.3V8.16h.3V7.79Z"/><path class="cls-6" d="M14.65,9.86h0V8.16H15v1.7Zm.43-2.14c0,.11-.1.18-.25.18a.2.2,0,0,1-.22-.18c0-.1.1-.17.23-.17S15.08,7.62,15.08,7.72Z"/><path class="cls-6" d="M15.74,8.16l.31,1a3,3,0,0,1,.11.41h0a2.73,2.73,0,0,1,.1-.41l.31-1H17l-.64,1.7H16l-.65-1.7Z"/><path class="cls-6" d="M18.14,9h0c-.2,0-.68,0-.68.4a.28.28,0,0,0,.3.3.36.36,0,0,0,.37-.26.31.31,0,0,0,0-.09Zm.06.88,0-.18h0a.65.65,0,0,1-.5.21.52.52,0,0,1-.58-.49c0-.42.49-.61,1.05-.61V8.73c0-.23-.08-.38-.39-.38a.86.86,0,0,0-.41.09l-.09-.19a1.29,1.29,0,0,1,.58-.12c.49,0,.71.23.71.61v.73a1.63,1.63,0,0,0,0,.39Z"/><path class="cls-6" d="M19,9.58a1,1,0,0,0,.4.09c.23,0,.37-.1.37-.25s-.07-.22-.32-.33-.5-.29-.5-.49.3-.47.68-.47a1.18,1.18,0,0,1,.45.09l-.11.2a.81.81,0,0,0-.33-.07c-.21,0-.32.11-.32.21s.06.18.31.3.51.28.51.52-.34.5-.74.5a1.09,1.09,0,0,1-.49-.1Z"/><path class="cls-6" d="M20.44,9.69h0a.23.23,0,0,1,.25-.2c.16,0,.26.08.26.2s-.09.2-.26.2-.25-.08-.25-.2m0-1.29a.23.23,0,0,1,.25-.2c.16,0,.26.08.26.2s-.09.2-.26.2S20.44,8.52,20.44,8.4Z"/><path class="cls-6" d="M1.1,11.46h0a3.28,3.28,0,0,1,.46-.82l.23,0a4.23,4.23,0,0,0-.29.8Zm.68,0a3.28,3.28,0,0,1,.46-.82l.23,0a4.23,4.23,0,0,0-.29.8Z"/><path class="cls-6" d="M3.21,11.78h.17c.38,0,.63-.19.63-.48s-.17-.44-.59-.44H3.21Zm-.39-1.09a3.36,3.36,0,0,1,.57,0,1.41,1.41,0,0,1,.78.17.54.54,0,0,1,.24.46c0,.3-.21.5-.56.61h0c.26,0,.39.22.47.53a2.6,2.6,0,0,0,.2.6h-.4a2.08,2.08,0,0,1-.19-.59A.49.49,0,0,0,3.37,12H3.21v1H2.82Z"/><path class="cls-6" d="M5.89,12h0c0-.34-.18-.49-.37-.49s-.39.26-.41.49Zm-.78.2c0,.52.3.63.59.63a1.15,1.15,0,0,0,.41-.06l.06.2a1.75,1.75,0,0,1-.54.08.81.81,0,0,1-.91-.85.82.82,0,0,1,.84-.9.68.68,0,0,1,.71.75.66.66,0,0,1,0,.15Z"/><path class="cls-6" d="M7.85,13a1.37,1.37,0,0,1-.41.06.81.81,0,0,1-.91-.86.89.89,0,0,1,1-.89,1.1,1.1,0,0,1,.35.06l-.08.22a.77.77,0,0,0-.28-.05.59.59,0,0,0-.58.66.56.56,0,0,0,.59.63.82.82,0,0,0,.28,0Z"/><path class="cls-6" d="M8.39,12.17h0c0,.28.07.66.43.66s.4-.4.4-.66-.06-.66-.41-.66-.42.4-.42.66m1.23,0a.8.8,0,0,1-.82.88A.78.78,0,0,1,8,12.17a.8.8,0,0,1,.83-.88A.78.78,0,0,1,9.62,12.17Z"/><path class="cls-6" d="M11.12,11.9h0a.27.27,0,0,0,0-.12.36.36,0,0,0-.35-.26c-.29,0-.44.27-.44.64s.2.63.44.63a.36.36,0,0,0,.35-.24.4.4,0,0,0,0-.15Zm.4-.58c0,.12,0,.27,0,.53v1c0,.45-.08.61-.24.74a1.15,1.15,0,0,1-.66.18,1.87,1.87,0,0,1-.54-.08l.09-.22a1.23,1.23,0,0,0,.46.08.45.45,0,0,0,.51-.52v-.17h0a.54.54,0,0,1-.47.2.75.75,0,0,1-.73-.84.8.8,0,0,1,.78-.88.51.51,0,0,1,.46.22h0l0-.19Z"/><path class="cls-6" d="M13.05,12h0c0-.34-.17-.49-.36-.49s-.39.26-.41.49Zm-.77.2c0,.52.3.63.59.63a1.09,1.09,0,0,0,.4-.06l.07.2a1.77,1.77,0,0,1-.55.08.8.8,0,0,1-.9-.85.82.82,0,0,1,.84-.9.67.67,0,0,1,.7.75v.15Z"/><path class="cls-6" d="M2.32,15.15h0c0-.34-.17-.49-.36-.49s-.39.26-.41.49Zm-.77.2c0,.52.3.63.59.63a1.06,1.06,0,0,0,.4-.07l.07.2a1.52,1.52,0,0,1-.55.08.8.8,0,0,1-.9-.85A.81.81,0,0,1,2,14.45a.67.67,0,0,1,.7.75v.15Z"/><rect class="cls-6" x="3.08" y="13.75" width="0.39" height="2.43"/><path class="cls-6" d="M6,16.13a1,1,0,0,1-.41.06.8.8,0,0,1-.9-.85.89.89,0,0,1,1-.89A1.37,1.37,0,0,1,6,14.5l-.07.22a1.32,1.32,0,0,0-.29,0,.59.59,0,0,0-.57.66.56.56,0,0,0,.59.63.87.87,0,0,0,.28-.05Z"/><path class="cls-6" d="M7.75,15.71c0,.19,0,.34,0,.46H7.43l0-.18h0a.74.74,0,0,1-.54.21c-.43,0-.6-.23-.6-.65V14.48h.39v1c0,.27.06.46.34.46a.34.34,0,0,0,.35-.22.78.78,0,0,0,0-.16V14.48h.39Z"/><path class="cls-6" d="M8.64,15.57h0a.2.2,0,0,0,0,.11A.39.39,0,0,0,9,16c.31,0,.43-.3.43-.66s-.12-.64-.44-.64a.41.41,0,0,0-.37.3.49.49,0,0,0,0,.12Zm-.41.6c0-.09,0-.29,0-.4v-2h.39v.92h0a.65.65,0,0,1,.53-.22c.38,0,.67.3.67.86s-.37.89-.75.89A.51.51,0,0,1,8.61,16h0l0,.22Z"/><path class="cls-6" d="M10.53,15.32h0c0,.29.07.67.43.67s.41-.4.41-.67-.07-.65-.42-.65-.42.4-.42.65m1.24,0a.8.8,0,0,1-.83.88.78.78,0,0,1-.8-.87.8.8,0,0,1,.83-.88A.78.78,0,0,1,11.77,15.32Z"/><path class="cls-6" d="M13.11,14.48l.33,1c0,.13.07.25.1.35h0l.11-.35.29-1h.39l-.41,1.09a2.57,2.57,0,0,1-.61,1.09,1.46,1.46,0,0,1-.44.26l-.15-.23a1.3,1.3,0,0,0,.35-.21,1.06,1.06,0,0,0,.22-.29.11.11,0,0,0,0-.08.17.17,0,0,0,0-.07l-.62-1.56Z"/><path class="cls-6" d="M2.37,18.28h0v-.11A.39.39,0,0,0,2,17.84c-.33,0-.44.31-.44.65s.13.64.42.64a.38.38,0,0,0,.38-.29.37.37,0,0,0,0-.11Zm.39-1.38v2c0,.12,0,.31,0,.41H2.44l0-.21h0a.6.6,0,0,1-.52.24c-.41,0-.72-.31-.72-.87s.37-.89.75-.89a.52.52,0,0,1,.45.21h0V16.9Z"/><path class="cls-6" d="M4.18,18.45h0c-.2,0-.68,0-.68.4a.28.28,0,0,0,.3.3.35.35,0,0,0,.37-.26.28.28,0,0,0,0-.09Zm.06.88h0l0-.18h0a.62.62,0,0,1-.49.21c-.34,0-.59-.19-.59-.49s.49-.61,1-.61V18.2c0-.22-.08-.38-.39-.38a.88.88,0,0,0-.41.09l-.09-.19a1.29,1.29,0,0,1,.58-.12c.5,0,.71.23.71.61V19a1.58,1.58,0,0,0,0,.38Zm.27-2.39L4,17.41H3.71l.39-.47Z"/><path class="cls-6" d="M5.07,18.07c0-.2,0-.3,0-.44H5.4l0,.21h0A.68.68,0,0,1,6,17.6a.54.54,0,0,1,.52.26h0a.67.67,0,0,1,.25-.19.86.86,0,0,1,.34-.07.54.54,0,0,1,.59.6v1.13H7.3V18.27c0-.22,0-.44-.34-.44a.39.39,0,0,0-.37.26.66.66,0,0,0,0,.15v1.09H6.19V18.22c0-.19-.05-.39-.34-.39a.37.37,0,0,0-.37.28.59.59,0,0,0,0,.14v1.08H5.07Z"/><path class="cls-6" d="M9.25,18.31h0c0-.34-.18-.5-.37-.5s-.39.26-.4.5Zm-.78.2c0,.52.3.63.59.63a1.12,1.12,0,0,0,.41-.07l.06.2a1.75,1.75,0,0,1-.54.08.79.79,0,0,1-.9-.85.81.81,0,0,1,.83-.9.68.68,0,0,1,.71.76.71.71,0,0,1,0,.15Z"/><rect class="cls-6" x="10" y="16.9" width="0.39" height="2.43"/><path class="cls-6" d="M11.21,18.48h0c0,.28.07.66.43.66s.41-.4.41-.66-.07-.66-.42-.66-.42.4-.42.66m1.24,0a.8.8,0,0,1-.83.88.78.78,0,0,1-.8-.87.8.8,0,0,1,.83-.89A.78.78,0,0,1,12.45,18.48Z"/><path class="cls-6" d="M13.24,16.94h0a3.45,3.45,0,0,1-.46.8l-.23,0a4,4,0,0,0,.29-.8Zm.68,0a3.45,3.45,0,0,1-.46.8l-.24,0a3.48,3.48,0,0,0,.3-.8Z"/><path class="cls-6" d="M27.72,14.31a3.94,3.94,0,0,1,.56,2.43c-.27,1.07-.62,1.87-1.34,2.11s-.71-.25-1.19,0,.52-.81.76-1.29,1-1.14,1.1-1.75.11-1.5.11-1.5"/><path class="cls-6" d="M25,21.27a.75.75,0,0,1,0,.78,1.66,1.66,0,0,0-.25.52s-1.65-.89.25-1.3"/></svg>