<svg id="Capa_1" data-name="Capa 1" xmlns="http://www.w3.org/2000/svg" viewBox="0 0 28.17 26.9"><defs><style>.cls-1{fill:#0070a2;}.cls-2{fill:#fcd2be;}.cls-3{fill:#231f20;}</style></defs><title>3-21meses</title><path class="cls-1" d="M3.74,25a2.16,2.16,0,0,1,1.82,0c.81.48,1.08.41,1.08.41s1.09-.58.77-.73a.61.61,0,0,1-.36-.45s-.11-1-.13-1.25a14.8,14.8,0,0,1,.39-1.81h.78s.77,2.13.49,2.59-.26.58-.23.82-.69.39-.38.71a1.64,1.64,0,0,0,.87.4s.14-1,.64-.89,2.36.35,2.36.35a11.28,11.28,0,0,1-.2-2.14,5,5,0,0,0,0-1.92,3,3,0,0,1-.35-1,4.55,4.55,0,0,0-.54-1.16s-.42.11-.38-.2.67-2.2-1.27-2.36S3.41,18.52,3.55,18.9a4.19,4.19,0,0,1,.19,2A16.88,16.88,0,0,0,3.54,23a2.73,2.73,0,0,0,.39,1.1.63.63,0,0,0-.19.89"/><path class="cls-2" d="M4.29,24.87s-1.06.63-1.12.86,0,.51.1.58.4-.16.49,0,.16-.09.34,0-.12.28.19.28a.94.94,0,0,0,.55-.19s.1.34.32.25a1.07,1.07,0,0,0,.35-.23s-.06.42.49.31.53-.45.53-.45l.11-.83a3.24,3.24,0,0,0-2.35-.53"/><path class="cls-2" d="M9.25,24.85a2.23,2.23,0,0,0-.38,1c-.07.54,0,.73.38.82a1,1,0,0,0,.59,0l.24-.16s.13.22.33.2.21-.3.21-.3.44.39.63.22a.6.6,0,0,0,.18-.4.24.24,0,0,0,.34.15c.25-.12.08-.18.08-.18s.12.17.26.1a.33.33,0,0,0,.09-.51c-.16-.18-.2-.49-.67-.64s-1.64-.74-2.28-.27"/><path class="cls-2" d="M4,16.57s-1-.35-.87-.81A1.93,1.93,0,0,1,4,15s-.25,1.53.06,1.89a3.48,3.48,0,0,0,1,.65,7.73,7.73,0,0,1,.85.67.61.61,0,0,0,.55.3,12.23,12.23,0,0,0,3.46-.74,6.15,6.15,0,0,1,.62.56c0,.06-.28.75,0,.75s1-.37,1-.69-.27-1.69-.27-1.86.23-1.74.27-2.38-.67-1.34-1-1.63A3.37,3.37,0,0,0,9.34,12s.68-.33.78-.59.2-.53.2-.53.16.21.66-.25.7-.86.65-1-.09-.25-.23-.34-.21-.77-.79-1A19.64,19.64,0,0,0,8,7.68c-.38,0-3.71.07-4.15.77s-.45.83-.46,1-.21.23-.39.3-.28.1-.22.36a1.21,1.21,0,0,0,.46.67c.15.09.47.34.64.28s.35.34.44.43.33.38.33.38a7.18,7.18,0,0,0-.87.51A30.76,30.76,0,0,0,1,14.7a2,2,0,0,0,0,1.82C1.17,16.86,3,17.66,3,18s-.2.5-.05.67.17.17.24.26a1.14,1.14,0,0,0,.93.21c.49-.09,1-.15,1.21-.23s0-.41.09-.45-.12-.1.34,0,.35,0,.36-.18-.28-1-.63-1.12S4,16.57,4,16.57"/><path class="cls-3" d="M8.81,10.12a2.33,2.33,0,0,1,1.39.11,2,2,0,0,0-2.2,0c-.23.17.32.11.81-.13"/><path class="cls-3" d="M6.84,10.43c.19,0,0-.22-.47-.28a2.54,2.54,0,0,0-1.57.5,6.59,6.59,0,0,1,1-.34c.35-.06.82.15,1,.12"/><path class="cls-3" d="M8.83,10.56a4.36,4.36,0,0,1-.48-.07.77.77,0,0,0,1.25-.13,1.4,1.4,0,0,1-.77.2"/><path class="cls-3" d="M5.29,10.61a.75.75,0,0,0,1.19,0,1.39,1.39,0,0,1-1.19,0"/><path class="cls-3" d="M7.58,11.64c.29.06.26-.07.45-.16s.17-.14.17-.14-.14,0-.36.14-.45,0-.67-.05S7,11.29,7,11.29s0,.11.13.22.19.06.49.13"/><path class="cls-3" d="M8.37,11.82a1.4,1.4,0,0,0-.53,0,.76.76,0,0,1-.42,0c-.12,0-.34,0-.47,0l-.34,0a2.68,2.68,0,0,0,1.76-.09"/><path class="cls-3" d="M7.4,12.27c0,.12.27.14.48-.09s-.46,0-.48.09"/><path class="cls-3" d="M4,16.87l.09.13.12.12a1.2,1.2,0,0,0,.1.11l.08.11.17.22.05.07.12,0a1.66,1.66,0,0,1,1.13.6H6a.65.65,0,0,0-.27-.59A1.68,1.68,0,0,0,5,17.34a.77.77,0,0,0-.18-.18.83.83,0,0,0-.15-.11L4.51,17l-.14-.08-.14-.1A2.52,2.52,0,0,1,4,16.57a5.8,5.8,0,0,1-.65-.85l.28-.22a3.62,3.62,0,0,0,.22.89h0A4.54,4.54,0,0,0,4.16,15l0-.64-.58.51c-.27.25-.51.51-.76.77l-.1.1.09.09c.32.29.72.54,1,.85.07.07.13.15.2.23"/><path class="cls-3" d="M12.13,26h0l-.06.2v0h0a0,0,0,0,0,0,0l0-.05a.9.9,0,0,0,0-.23.14.14,0,0,0-.13-.08c-.08,0-.15,0-.15.09a.5.5,0,0,0,0,.24h0v0a.62.62,0,0,1,0,.1h0s0-.07,0-.11a1.22,1.22,0,0,1,0-.26.12.12,0,0,0-.13-.1c-.08,0-.15,0-.15.09a1.66,1.66,0,0,1-.09.37.4.4,0,0,1-.1.15c0,.05-.07.06-.1.06h0l-.07,0,0,0a.42.42,0,0,1-.09-.14.5.5,0,0,1,0-.12,2.26,2.26,0,0,0,0-.26h0c0-.05,0-.09-.12-.09a.14.14,0,0,0-.16.08,1.22,1.22,0,0,0,0,.27s0,.09,0,.13a.47.47,0,0,1,0,.17l0,.07h0a.38.38,0,0,1-.08-.05.33.33,0,0,1-.1-.14.32.32,0,0,1,0-.14V26s0-.09-.12-.1-.15,0-.16.09v0h0v0a1,1,0,0,0,0,.17,1,1,0,0,1-.08.36l-.05.05H9.59a.9.9,0,0,1-.35-.08.52.52,0,0,1-.2-.19A.64.64,0,0,1,9,26l0-.22v-.1a.88.88,0,0,1,.22-.44.84.84,0,0,1,.48-.23,4.63,4.63,0,0,1,.74,0,2,2,0,0,1,.63.14c.1.05,0,0,.23.2a.48.48,0,0,0,.31.09.42.42,0,0,0,.29-.1,2.11,2.11,0,0,1,.19.23.66.66,0,0,1,.09.19.54.54,0,0,1,0,.18m-.42.33Zm0,0Zm-3.37-1.2h0l0-.08a.06.06,0,0,1,0,0c0-.07,0-.09.09-.15a.87.87,0,0,0,.36-.29.31.31,0,0,0,0-.27l0-.08-.05-.06a.29.29,0,0,1-.06-.2.72.72,0,0,1,.1-.26,1,1,0,0,0,.1-.34v-.17l0-.16c0-.2-.08-.4-.13-.61s-.19-.7-.3-1.05a.23.23,0,0,0,.18-.07l0,0q.15-.2.33-.39c.11-.12.21-.26.31-.38a4.51,4.51,0,0,1,.7-.76l0,0a2.28,2.28,0,0,0-1.15.58,2.33,2.33,0,0,0-.37.41c-.08.12-.14.24-.21.36l-.55.07-.23,0H7.18v0L7,20.91l-.1-.1-.11-.11a1.84,1.84,0,0,0-.53-.36,4.62,4.62,0,0,0-.66-.21,2.87,2.87,0,0,0-.73-.07l0,0c.38.22.77.38,1.14.55.19.08.4.13.6.21a1.26,1.26,0,0,1,.26.14.64.64,0,0,1,.18.19s0,0,.07,0a9,9,0,0,0-.21,1,6.29,6.29,0,0,0,0,1.15,3.76,3.76,0,0,1-.1.55.44.44,0,0,0,0,.32c.07.13.2.17.23.24a.36.36,0,0,1,.06.24A.46.46,0,0,1,7,25a1.48,1.48,0,0,1-.45.3L6.06,25l-.34-.14-.36-.12a2.06,2.06,0,0,0-.86-.07,2.59,2.59,0,0,0-.42.09l0,0c0-.05,0-.09,0-.13a.4.4,0,0,1,0-.24l0,0H4l0,0H3.87c0-.13.1-.38.07-.34h0c0-.08,0-.12,0,0l.09,0h0v0A.85.85,0,0,1,4,24l-.09-.37a6.46,6.46,0,0,1-.25-1.48,1.27,1.27,0,0,1,0-.34.77.77,0,0,1,.07-.17,1,1,0,0,0,.07-.2,3,3,0,0,0,.07-.77,9,9,0,0,0-.18-1.46l.23,0H4a.76.76,0,0,0,.34,0A.39.39,0,0,0,4.56,19l.09,0a.59.59,0,0,0,.21,0h0A.2.2,0,0,0,5,19h.14l.15,0a.45.45,0,0,0,.19-.15.56.56,0,0,0,0-.27.67.67,0,0,0,0-.24,9.91,9.91,0,0,0,1.44.18,7.28,7.28,0,0,0,1.69-.11,3.72,3.72,0,0,0,.9-.32,2.8,2.8,0,0,0,.36-.25l0,0a.82.82,0,0,0,.16.22l.08.07.1.07a.11.11,0,0,1,.05.09.48.48,0,0,1-.05.28l-.08.14a.26.26,0,0,0,.05.32.63.63,0,0,0,.44.11h.12a1.25,1.25,0,0,1,.24.34,1.13,1.13,0,0,1,0,.55,2.75,2.75,0,0,0,.26,1.15,4.27,4.27,0,0,1,.18.54,2,2,0,0,1,0,.54c0,.36-.22.71-.31,1.12a1.37,1.37,0,0,0,0,.61l.1.56c0,.11,0,.21,0,.31h0a2.58,2.58,0,0,0-.93-.22,4.69,4.69,0,0,0-.92,0,1.37,1.37,0,0,0-.85.41,1.06,1.06,0,0,0-.18.27.64.64,0,0,1-.14-.15A.31.31,0,0,1,8.31,25.08ZM6.43,26.32h0a.61.61,0,0,1-.2.19,1,1,0,0,1-.36.08H5.7s0,0,0-.05a.83.83,0,0,1-.09-.36,1,1,0,0,0,0-.17v0h0v0c0-.05-.06-.09-.14-.09s-.14.05-.14.1a1.7,1.7,0,0,0,0,.22l0,.14a.71.71,0,0,1-.1.14l-.08.05H5a.43.43,0,0,1,0-.07.85.85,0,0,1,0-.17v-.13a.82.82,0,0,0,0-.27.13.13,0,0,0-.13-.08c-.08,0-.15,0-.15.09h0a2.26,2.26,0,0,0,0,.26s0,.08,0,.12a.42.42,0,0,1-.09.14l-.05,0-.07,0h0a.14.14,0,0,1-.11-.06.38.38,0,0,1-.09-.15,1.25,1.25,0,0,1-.09-.37A.14.14,0,0,0,4,25.78c-.08,0-.14,0-.14.1a2.6,2.6,0,0,1,0,.26.37.37,0,0,1-.05.11h0a.15.15,0,0,1,0-.1v0h0a1,1,0,0,0,0-.24q0-.07-.12-.09a.14.14,0,0,0-.16.08,1.81,1.81,0,0,0,0,.23.08.08,0,0,1,0,.05s0,0,0,0,0,0,0,0v0L3.34,26a.28.28,0,0,1,0-.18.66.66,0,0,1,.09-.19,1.48,1.48,0,0,1,.26-.3l0,.08L4,25.19l.12-.06.14-.05a1.59,1.59,0,0,1,.92,0l.33.09c.11,0,.22.07.33.12a3.73,3.73,0,0,1,.61.26l.09.05L6.5,26A1.15,1.15,0,0,1,6.43,26.32Zm-2.64,0Zm0,0ZM3.5,19h0a.61.61,0,0,1-.21-.12l-.1-.09-.06-.08a.54.54,0,0,1,0-.37.64.64,0,0,1,.08-.19A.74.74,0,0,1,3.28,18l.16-.16-.27-.11c-.17-.07-.37-.16-.54-.25s-.36-.18-.52-.28a4.39,4.39,0,0,1-.88-.66,3.27,3.27,0,0,1-.29-.39,1,1,0,0,1-.1-.21.42.42,0,0,1,0-.22,1.09,1.09,0,0,1,0-.44,1.73,1.73,0,0,1,.25-.44,3.41,3.41,0,0,1,.36-.41c.12-.13.28-.24.42-.37l.92-.7C3.34,12.87,4,12.42,4.57,12l.15.11a6.23,6.23,0,0,0,1,.5,4,4,0,0,0,2.34.15,3.65,3.65,0,0,0,.5-.15L9,12.39a5.15,5.15,0,0,0,.48-.27,3.25,3.25,0,0,1,1,.71,2.21,2.21,0,0,1,.36.46,1.92,1.92,0,0,1,.12.25c0,.07.06.16.09.25a3.31,3.31,0,0,1,.16,1.09A2.87,2.87,0,0,1,11,16h0v0c0,.33,0,.67,0,1a7.85,7.85,0,0,1,0,1V18a.93.93,0,0,1,0,.29.51.51,0,0,1-.06.25.27.27,0,0,1-.09.1.19.19,0,0,1-.1.06.34.34,0,0,1-.12,0h0a.85.85,0,0,0,0-.17.63.63,0,0,0,0-.38A.4.4,0,0,0,10.4,18l-.09,0L10.22,18,10,17.76a1.12,1.12,0,0,0,.21-.23,1.85,1.85,0,0,0,.31-.67,2.12,2.12,0,0,0,.07-.66,2.86,2.86,0,0,0-.27-1.14,3.57,3.57,0,0,0-.45-.74,1.77,1.77,0,0,0-.18-.19l-.06-.07.13.29a2.85,2.85,0,0,1,.13.33,3.83,3.83,0,0,1,.11.43,3.76,3.76,0,0,1,.09,1.09,2.51,2.51,0,0,1-.1.59,1.81,1.81,0,0,1-.29.57,2.31,2.31,0,0,1-.2.24,2.37,2.37,0,0,1-.3.21,3,3,0,0,1-.71.29,8.88,8.88,0,0,1-1.53.21c-.47,0-.87,0-1.15,0h-.3a1.07,1.07,0,0,0-.07-.19v0h0c-.14-.13-.29-.26-.46-.39a2.06,2.06,0,0,0,.21.48l0,0a2,2,0,0,1,0,.42.43.43,0,0,1,0,.17s0,0,0,0,.05,0,0,0h0c-.07,0-.22-.11-.31-.23l-.28-.4a1,1,0,0,0,0,.46.93.93,0,0,0,.11.19l-.21-.17-.35-.27-.21-.11a.41.41,0,0,0,0,.19.72.72,0,0,0,.25.36.75.75,0,0,0,.24.15l.11,0-.15,0A.77.77,0,0,1,4,18.82c-.12-.08-.25-.19-.35-.27l-.2-.13a.42.42,0,0,0,0,.2.63.63,0,0,0,.28.39l.11.06A.82.82,0,0,1,3.5,19Zm1-7.85h0a2.19,2.19,0,0,1-.14-.41l-.06-.22-.06-.13-.08-.11,0-.06.27-.93.24.92.27-1.49.83.68-.13-.62L7,10.33,6.36,8.94l1.43,1.17L7.42,8.76l.81.65s-.37-.85-.33-.81L9.42,9.84l-.5-.94.69.56,0-.6L10.74,10l-.14.2a.67.67,0,0,0-.12.21c-.06.14-.1.36-.21.62a1.78,1.78,0,0,1-.73.8,3.78,3.78,0,0,1-.7.32l-.43.13a2.85,2.85,0,0,1-.44.09A3.57,3.57,0,0,1,6,12.21a6.47,6.47,0,0,1-.91-.46A1.66,1.66,0,0,1,4.48,11.15Zm-.73-.26h0l-.09-.09s-.05-.08-.1-.13l-.23-.33c-.09-.1-.17-.21-.24-.3L3,9.91l0-.08s0,0,0-.06l.12,0,.07,0c.14.25.3.49.44.69a.41.41,0,0,0,0,.09l0,.09.06.22a.43.43,0,0,0,0,.11Zm7.66-1.32h0s0,0,0,0a.45.45,0,0,1,0,.13,1.11,1.11,0,0,1-.07.16,1.74,1.74,0,0,1-.1.19,2.31,2.31,0,0,1-.49.61l-.29.22c.05-.2.09-.37.13-.49a.57.57,0,0,1,.11-.2l.13-.18.13.15.45-.65Zm.27,15.5Zm.46.47a2,2,0,0,0-.27-.22l0,0a.46.46,0,0,0,.08-.21,1.8,1.8,0,0,0-.05-.62c0-.19-.08-.38-.13-.57a1.19,1.19,0,0,1-.07-.51A11.41,11.41,0,0,0,12,22.25a2.07,2.07,0,0,0-.32-1.17A3.13,3.13,0,0,1,11.28,20l0-.29a.77.77,0,0,0-.1-.29,1.4,1.4,0,0,0-.28-.32l.13,0a1,1,0,0,0,.28-.14.81.81,0,0,0,.18-.19.92.92,0,0,0,.14-.39,1.55,1.55,0,0,0,0-.37,8.28,8.28,0,0,0-.09-1,8.57,8.57,0,0,0-.21-1l.18-1.11c0-.19.07-.38.1-.57a2.64,2.64,0,0,0,0-.29,1.43,1.43,0,0,0,0-.29.84.84,0,0,0-.08-.3,1.11,1.11,0,0,0-.14-.29,2.47,2.47,0,0,0-.47-.51,3.2,3.2,0,0,0-.65-.39,3.26,3.26,0,0,0-.63-.18l.14-.1a1.81,1.81,0,0,0,.65-.9l0-.1a1.32,1.32,0,0,0,.5-.09,1.43,1.43,0,0,0,.47-.25,1.61,1.61,0,0,0,.35-.39,2,2,0,0,0,.09-.22.69.69,0,0,0,0-.24.57.57,0,0,0-.06-.24.36.36,0,0,0-.29-.18l0,0s.46-2.17-.34-2.89A5.43,5.43,0,0,0,7.3,5.18,6.26,6.26,0,0,0,3,7a1.41,1.41,0,0,0-.12,1.21,2.12,2.12,0,0,0,.23,1.35.53.53,0,0,1,.06.1h0a.65.65,0,0,0-.17,0,.41.41,0,0,0-.27.08.33.33,0,0,0-.11.22.66.66,0,0,0,0,.21,1.19,1.19,0,0,0,.21.38,2.42,2.42,0,0,0,.31.33,1.27,1.27,0,0,0,.21.14.67.67,0,0,0,.26.1.53.53,0,0,0,.25,0l.06.18a1.66,1.66,0,0,0,.59.65,8.17,8.17,0,0,0-2.14,1.19,5.3,5.3,0,0,0-.43.38c-.14.14-.25.28-.38.42l-.65.85A1.19,1.19,0,0,0,.75,15l-.14.21a1.57,1.57,0,0,0-.14.5.57.57,0,0,0,0,.26.85.85,0,0,0,.05.26,2.56,2.56,0,0,0,.11.24l.16.24a4.16,4.16,0,0,0,.42.42,5,5,0,0,0,.5.37,5.66,5.66,0,0,0,1,.47.3.3,0,0,0,0,.08.76.76,0,0,0-.06.26.65.65,0,0,0,.2.53.75.75,0,0,0,.13.11l.13.09a1.26,1.26,0,0,0,.34.13,1.42,1.42,0,0,0,.29,0c0,.49,0,1,0,1.45a2.94,2.94,0,0,1-.13.73.77.77,0,0,1-.07.16,1.14,1.14,0,0,0-.1.19,2.12,2.12,0,0,0-.08.41,6.06,6.06,0,0,0,.2,1.53l.08.37a1.94,1.94,0,0,0,.05.2h0a.49.49,0,0,0-.11.49,1.79,1.79,0,0,0,.13.39l.07.15a1.72,1.72,0,0,0-.37.28.9.9,0,0,0-.15.19.5.5,0,0,0-.06.24.55.55,0,0,0,0,.22.22.22,0,0,0,.09.15.36.36,0,0,0,.2,0l.11,0h0l.07.07a.15.15,0,0,0,.08,0s0,0,.07,0h0s.07,0,.12,0L4,26.41l0,0a.83.83,0,0,0,.08.12.56.56,0,0,0,.14.1.51.51,0,0,0,.22,0l.12,0,.06,0a.91.91,0,0,0,.14-.07l0,.06s0,0,.07.06a.22.22,0,0,0,.12.05.37.37,0,0,0,.25,0,.31.31,0,0,0,.13-.08h0s0,0,0,0a.36.36,0,0,0,.24.16H5.9a1.45,1.45,0,0,0,.49-.11.47.47,0,0,0,.28-.31.86.86,0,0,0,0-.32l-.07-.47.08,0a1.88,1.88,0,0,0,.6-.46.47.47,0,0,0,0-.63c-.08-.11-.22-.17-.25-.22A.51.51,0,0,1,7,24a2.71,2.71,0,0,0,.09-.57c0-.2,0-.39,0-.57a2.73,2.73,0,0,1,0-.57,7.77,7.77,0,0,1,.26-1L8,21.3q.12.56.21,1.11c0,.2.06.4.09.6v.28a.63.63,0,0,1-.09.25,1.19,1.19,0,0,0-.15.32.53.53,0,0,0,.09.39l.09.14a0,0,0,0,1,0,0L8,24.56a.48.48,0,0,0-.26.39s0,.07,0,.11l0,.08a.75.75,0,0,0,.08.18,1,1,0,0,0,.28.31,1.52,1.52,0,0,0,.4.25L8.8,26v0a.86.86,0,0,0,0,.32.45.45,0,0,0,.28.31,1.4,1.4,0,0,0,.49.11h.27a.36.36,0,0,0,.24-.16s0,0,0,0h0l.13.08a.39.39,0,0,0,.25,0,.29.29,0,0,0,.13-.05.17.17,0,0,0,.06-.06l0-.06.13.07.07,0,.12,0a.51.51,0,0,0,.22,0,.49.49,0,0,0,.13-.1.47.47,0,0,0,.09-.12l0,0,.09.05c.05,0,.12,0,.12,0h0c.08,0,0,0,.08,0a.19.19,0,0,0,.08,0l.06-.07h0l.12,0a.33.33,0,0,0,.19,0,.25.25,0,0,0,.1-.15,1.7,1.7,0,0,0,0-.22.5.5,0,0,0-.06-.24A1,1,0,0,0,12.14,25.54Z"/><path class="cls-3" d="M3,22.37A2.29,2.29,0,0,1,3,21.79a1.19,1.19,0,0,1,.1-.28,1.75,1.75,0,0,0,.12-.32,2,2,0,0,0,.08-.57,1.56,1.56,0,0,0-.11-.55L3,20.6c-.06.15-.14.32-.23.51l-.15.28a1.11,1.11,0,0,0-.15.33A1.85,1.85,0,0,0,2.68,23a2,2,0,0,0,.35.49s0-.22,0-.54q0-.24,0-.54"/><path class="cls-3" d="M12.53,21.11a2.77,2.77,0,0,0-.42-.85l-.16-.2a1.74,1.74,0,0,1-.11-.18,1,1,0,0,1-.1-.36,1.63,1.63,0,0,1,0-.39.84.84,0,0,0-.33.36.78.78,0,0,0-.07.46.82.82,0,0,0,.1.26,2.22,2.22,0,0,1,.15.23,9.09,9.09,0,0,0,.63.76c.2.2.36.33.36.33a1.08,1.08,0,0,0-.06-.42"/><path class="cls-3" d="M2.76,20.66a2,2,0,0,0,.13-.43,1.79,1.79,0,0,0-.09-.82,1.12,1.12,0,0,0-.2-.35,2.69,2.69,0,0,0-.13.36,7,7,0,0,0-.15.77c0,.28-.07.55-.1.76s0,.2,0,.26,0,.11,0,.11l.12-.07A1.64,1.64,0,0,0,2.53,21a2,2,0,0,0,.23-.36"/><rect class="cls-3" x="3.65" y="1.19" width="0.39" height="2.37"/><path class="cls-3" d="M4.58,2.29c0-.2,0-.3,0-.44h.35l0,.21h0a.7.7,0,0,1,.57-.24.54.54,0,0,1,.59.59V3.55H5.71V2.46c0-.2-.06-.41-.34-.41A.39.39,0,0,0,5,2.33a.66.66,0,0,0,0,.15V3.55h-.4Z"/><path class="cls-3" d="M7.06,1.4v.45h.47v.21H7.06v1c0,.22.11.28.26.28h.16v.2a1.07,1.07,0,0,1-.29,0,.69.69,0,0,1-.39-.1c-.1-.08-.15-.19-.15-.43v-1h-.3V1.85h.3V1.48Z"/><path class="cls-3" d="M8.84,2.53h0c0-.34-.18-.49-.37-.49s-.39.25-.4.49Zm-.78.2c0,.52.31.63.59.63a1.08,1.08,0,0,0,.41-.07l.06.2a1.66,1.66,0,0,1-.54.08.8.8,0,0,1-.9-.85.82.82,0,0,1,.83-.9.68.68,0,0,1,.71.76v.15Z"/><path class="cls-3" d="M9.59,2.29c0-.2,0-.3,0-.44h.35l0,.21h0a.68.68,0,0,1,.57-.24.54.54,0,0,1,.59.59V3.55h-.39V2.46c0-.2-.06-.41-.34-.41a.38.38,0,0,0-.38.28.66.66,0,0,0,0,.15V3.55h-.4Z"/><path class="cls-3" d="M12.07,1.4v.45h.47v.21h-.47v1c0,.22.11.28.26.28h.16v.2a1.07,1.07,0,0,1-.29,0,.69.69,0,0,1-.39-.1c-.1-.08-.15-.19-.15-.43v-1h-.3V1.85h.3V1.48Z"/><path class="cls-3" d="M13.76,2.67h0c-.2,0-.68,0-.68.4a.28.28,0,0,0,.3.3.36.36,0,0,0,.37-.26.28.28,0,0,0,0-.09Zm.06.88,0-.18h0a.65.65,0,0,1-.5.21c-.33,0-.59-.19-.59-.48s.5-.62,1.06-.62V2.42c0-.22-.08-.38-.39-.38a.86.86,0,0,0-.41.09l-.09-.19a1.29,1.29,0,0,1,.58-.12c.49,0,.71.23.71.61v.74a2.36,2.36,0,0,0,0,.38Z"/><path class="cls-3" d="M16.5,2.49h0a.37.37,0,0,0,0-.11.37.37,0,0,0-.36-.32c-.32,0-.44.29-.44.65s.13.64.43.64a.35.35,0,0,0,.36-.28.34.34,0,0,0,0-.14Zm0,.89h0a.6.6,0,0,1-.48.2c-.4,0-.72-.3-.72-.86a.8.8,0,0,1,.78-.9.51.51,0,0,1,.46.23h0l0-.2h.36c0,.12,0,.27,0,.53V4.23h-.4Z"/><path class="cls-3" d="M18.88,3.09c0,.19,0,.33,0,.46h-.35l0-.18h0a.73.73,0,0,1-.53.21c-.44,0-.61-.23-.61-.65V1.85h.4v1c0,.27.06.46.33.46a.35.35,0,0,0,.35-.22.41.41,0,0,0,0-.16V1.85h.4Z"/><path class="cls-3" d="M19.38,3.55h0V1.85h.39v1.7Zm.42-2.14c0,.11-.09.18-.24.18s-.22-.07-.22-.18.1-.17.23-.17S19.8,1.31,19.8,1.41Z"/><path class="cls-3" d="M20.75,1.4v.45h.48v.21h-.48v1c0,.22.12.28.26.28h.16v.2a1.07,1.07,0,0,1-.29,0,.69.69,0,0,1-.39-.1A.51.51,0,0,1,20.35,3v-1h-.3V1.85h.3V1.48Z"/><path class="cls-3" d="M22.44,2.67h0c-.2,0-.68,0-.68.4a.29.29,0,0,0,.3.3.35.35,0,0,0,.37-.26.28.28,0,0,0,0-.09Zm.06.88,0-.18h0a.62.62,0,0,1-.49.21c-.34,0-.59-.19-.59-.48s.49-.62,1.05-.62V2.42c0-.22-.08-.38-.39-.38a.88.88,0,0,0-.41.09l-.09-.19a1.29,1.29,0,0,1,.58-.12c.5,0,.71.23.71.61v.74a1.58,1.58,0,0,0,0,.38Z"/><path class="cls-3" d="M23.33,2.29c0-.14,0-.31,0-.44h.35l0,.27h0a.6.6,0,0,1,.52-.3h.09v.28h-.09a.46.46,0,0,0-.47.36.61.61,0,0,0,0,.15v.94h-.39Z"/><path class="cls-3" d="M24.48,3.27a1,1,0,0,0,.4.09c.23,0,.37-.1.37-.25s-.07-.22-.32-.33-.5-.29-.5-.49.3-.47.68-.47a1.18,1.18,0,0,1,.45.09l-.11.21A.67.67,0,0,0,25.12,2c-.21,0-.32.11-.32.22s.06.18.31.29.51.28.51.52-.34.5-.74.5a1.09,1.09,0,0,1-.49-.1Z"/><path class="cls-3" d="M27,2.53h0c0-.34-.18-.49-.37-.49s-.39.25-.4.49Zm-.78.2c0,.52.31.63.59.63a1.08,1.08,0,0,0,.41-.07l.06.2a1.66,1.66,0,0,1-.54.08.8.8,0,0,1-.9-.85.82.82,0,0,1,.83-.9.68.68,0,0,1,.71.76v.15Z"/><path class="cls-3" d="M16,6.08h0a.53.53,0,0,0,0,.14.37.37,0,0,0,.37.29c.33,0,.43-.31.43-.65s-.12-.65-.44-.65a.4.4,0,0,0-.36.31.57.57,0,0,0,0,.13Zm-.39-.54c0-.26,0-.41,0-.53h.35l0,.22h0A.6.6,0,0,1,16.47,5c.43,0,.72.32.72.88a.77.77,0,0,1-.77.88.49.49,0,0,1-.43-.2h0v.84h-.39Z"/><path class="cls-3" d="M17.58,5.45c0-.15,0-.31,0-.44h.35l0,.27h0a.58.58,0,0,1,.52-.3h.08v.28h-.08a.46.46,0,0,0-.47.35.78.78,0,0,0,0,.16v.94h-.39Z"/><path class="cls-3" d="M19.78,5.68h0c0-.34-.18-.49-.37-.49s-.39.26-.4.49Zm-.78.2c0,.52.31.64.59.64A1.12,1.12,0,0,0,20,6.45l.06.2a1.66,1.66,0,0,1-.54.08.8.8,0,0,1-.9-.85.82.82,0,0,1,.83-.9.68.68,0,0,1,.71.75v.15Z"/><path class="cls-3" d="M20.53,5.45c0-.2,0-.3,0-.44h.35l0,.2h0A.71.71,0,0,1,21.46,5a.54.54,0,0,1,.59.59V6.71h-.39V5.61c0-.2-.06-.4-.34-.4a.37.37,0,0,0-.38.28.66.66,0,0,0,0,.15V6.71h-.4Z"/><path class="cls-3" d="M23.66,5.66h0a.49.49,0,0,0,0-.12.39.39,0,0,0-.37-.33c-.33,0-.44.32-.44.66s.13.64.42.64a.38.38,0,0,0,.38-.29.36.36,0,0,0,0-.11ZM24,4.28v2c0,.12,0,.31,0,.41h-.33l0-.22h0a.61.61,0,0,1-.52.25c-.42,0-.72-.32-.72-.87s.36-.89.74-.89a.53.53,0,0,1,.46.21h0V4.28Z"/><path class="cls-3" d="M25.47,5.83h0c-.21,0-.68,0-.68.39a.28.28,0,0,0,.3.31.37.37,0,0,0,.37-.26.31.31,0,0,0,0-.09Zm.05.88,0-.18h0a.62.62,0,0,1-.49.21.53.53,0,0,1-.59-.49c0-.42.5-.61,1.06-.62v0c0-.23-.09-.38-.4-.38a1.07,1.07,0,0,0-.41.08l-.08-.19A1.46,1.46,0,0,1,25.14,5c.5,0,.72.23.72.61v.73a2.42,2.42,0,0,0,0,.39Z"/><path class="cls-3" d="M26.29,6.43a1,1,0,0,0,.4.09c.22,0,.36-.1.36-.25s-.06-.22-.31-.33-.5-.29-.5-.49.3-.47.68-.47a1.27,1.27,0,0,1,.45.09l-.11.2a.81.81,0,0,0-.33-.07c-.21,0-.32.1-.32.21s.06.18.3.3.52.28.52.51-.34.51-.75.51a1.15,1.15,0,0,1-.49-.1Z"/><path class="cls-3" d="M13.57,9.87h0V8.17H14v1.7ZM14,7.73c0,.1-.09.17-.24.17s-.22-.07-.22-.17.1-.18.23-.18S14,7.62,14,7.73Z"/><path class="cls-3" d="M14.46,8.61c0-.2,0-.31,0-.44h.34l0,.2h0a.71.71,0,0,1,.57-.23.54.54,0,0,1,.6.59V9.87h-.39V8.77c0-.2-.06-.4-.35-.4a.37.37,0,0,0-.37.27.78.78,0,0,0,0,.16V9.87h-.39Z"/><path class="cls-3" d="M16.56,9.87V8.37h-.31v-.2h.31V8.06a.6.6,0,0,1,.22-.51.87.87,0,0,1,.5-.14,1.17,1.17,0,0,1,.31,0l-.07.21a.86.86,0,0,0-.21,0c-.29,0-.35.21-.35.43v.11h.45v.2H17v1.5Z"/><path class="cls-3" d="M18.64,8.84h0c0-.34-.18-.49-.37-.49s-.39.26-.41.49Zm-.78.2c0,.52.3.63.59.63a1.43,1.43,0,0,0,.41-.06l.06.2a1.77,1.77,0,0,1-.55.08.81.81,0,0,1-.9-.86.81.81,0,0,1,.84-.89.67.67,0,0,1,.7.75V9Z"/><path class="cls-3" d="M19.38,8.61c0-.15,0-.32,0-.44h.35l0,.26h0a.59.59,0,0,1,.52-.29h.08v.28h-.08a.46.46,0,0,0-.48.35.76.76,0,0,0,0,.15v.95h-.4Z"/><path class="cls-3" d="M20.6,9.87h0V8.17H21v1.7ZM21,7.73c0,.1-.09.17-.24.17s-.23-.07-.23-.17a.21.21,0,0,1,.23-.18C20.94,7.55,21,7.62,21,7.73Z"/><path class="cls-3" d="M21.78,9h0c0,.28.07.66.43.66s.41-.4.41-.66-.07-.66-.42-.66-.42.4-.42.66M23,9a.79.79,0,0,1-.83.87.77.77,0,0,1-.8-.87.8.8,0,0,1,.83-.88A.78.78,0,0,1,23,9Z"/><path class="cls-3" d="M23.4,8.61c0-.15,0-.32,0-.44h.35l0,.26h0a.59.59,0,0,1,.52-.29h.09v.28h-.09a.45.45,0,0,0-.47.35.77.77,0,0,0,0,.15v.95H23.4Z"/><path class="cls-3" d="M25.6,8.84h0c0-.34-.18-.49-.36-.49s-.39.26-.41.49Zm-.77.2c0,.52.3.63.59.63a1.35,1.35,0,0,0,.4-.06l.07.2a1.77,1.77,0,0,1-.55.08.81.81,0,0,1-.9-.86.81.81,0,0,1,.84-.89.67.67,0,0,1,.7.75V9Z"/><path class="cls-3" d="M26.29,9.59a1.28,1.28,0,0,0,.4.08c.22,0,.36-.09.36-.24s-.06-.22-.32-.34-.49-.28-.49-.48.3-.47.68-.47a1,1,0,0,1,.44.09l-.1.2a.84.84,0,0,0-.33-.07c-.22,0-.32.1-.32.21s.06.18.3.3.52.28.52.51-.34.51-.75.51a1.15,1.15,0,0,1-.49-.1Z"/><path class="cls-3" d="M5.38,12.13l.23,1.44s.8.2.56.44-.64.68-.64.68-.87-.64-.73-.86.29-.22.29-.22l-.31-1.7Z"/><path class="cls-3" d="M9.5,12.12,9,13.89s.25.24.1.43a9,9,0,0,1-.7.67s-.56-.72-.43-.9a1.06,1.06,0,0,1,.55-.24l.06-1.49Z"/></svg>