<svg id="Capa_1" data-name="Capa 1" xmlns="http://www.w3.org/2000/svg" viewBox="0 0 31.23 27.57"><defs><style>.cls-1{fill:#b0d240;}.cls-2{fill:#ffc965;}.cls-3{fill:#f5a4c7;}.cls-4{fill:#fcd2be;}.cls-5{fill:#fbcabb;}.cls-6{fill:#dea496;}.cls-7{fill:#f2ac9e;}.cls-8{fill:#231f20;}</style></defs><title>4-21meses</title><path class="cls-1" d="M5,21.12c-1.4.19-.9,1.11-2.67,1.65S.78,24.55.78,24.55a3.05,3.05,0,0,0,1.78.61c1.14.05,7.76-.25,7.76-.25a1.14,1.14,0,0,0,.7-1.15c0-.88,0-1.84-.7-2S5,21.12,5,21.12"/><path class="cls-2" d="M3.37,25.28s-.39.43.9.56,1.36-.35,1.22-.68-.24-.79-.34-.72a2.84,2.84,0,0,1-.72.07s-.49.84-1.06.77"/><path class="cls-2" d="M9.06,24.34s.71.93.27,1.24-1.8.08-1.8.08-.62-.42-.28-.51a3.51,3.51,0,0,1,.68-.1s-.33-.73.31-.73l.82,0"/><path class="cls-3" d="M8.65,21.33l2.28.62s-.28-.83-.94-.9a2.75,2.75,0,0,0-1.34.28"/><path class="cls-3" d="M15.43,19.42s-.76.84-.22,1.2,2.11,1.86,2.11,1.86,4.45-1.32,4.57-1.33.62-1.06.33-1.37-6.79-.36-6.79-.36"/><path class="cls-3" d="M24.79,22.39l-2,1.48.4,1.53,4.59,1.29s1.48-.17,1.75-.49A8.85,8.85,0,0,0,30,23.37c0-.42-.8-.55-.8-.55Z"/><path class="cls-4" d="M15.83,20.74s-.85.09-.56,1.26a6.44,6.44,0,0,0,1.61,2.41,8.68,8.68,0,0,1,2-.25c.62.09,3.9-2.33,3.9-2.33s-.24-1.64-.67-1.45-2.56.92-3.14,1.2a2.66,2.66,0,0,1-1.09.29Z"/><path class="cls-4" d="M10.93,16s4.1-.24,4-.44a1,1,0,0,1-.27-.92c.08-.62-.79-1.92-.41-2.27s6-1.07,6.11-1.07,2.19,1.73,2.35,1.79,2.43,4.72.2,5.85-2.81,1.26-3.76,1.32-3.28,0-3.69-.49a4.48,4.48,0,0,1-.61-1L13,17.7s-3.42-.25-3.44-.54S10.93,16,10.93,16"/><path class="cls-5" d="M20.62,13.41s-.6.77-.46,1.2a11.72,11.72,0,0,0,.46,1.32c.12.15.07.34-.11.48s-.34.3-.1.4a1.25,1.25,0,0,1,.38.22s-.27.24-.15.3a3.55,3.55,0,0,0,.48.11s-.28.07-.29.23.31.17.29.33-.13.15.17.23a3.52,3.52,0,0,0,.67.09s0,.17-1.07.3a11.62,11.62,0,0,1-4.21-.54c-.84-.36-1-.3-.76-.08s.64.57.64.57.47.17.17.37-.8.2-.57.42.83.12.83.12l.92-.09s1,.45,1.09.45,1.94.18,2.66.22a2,2,0,0,0,1.05-.17s.19,1,.19,1,.15.66.15.66-.56.21-.82,0-.38-.63-.78-.7-.5-.11-.48,0-.38.15-.34.35-.29.77-.14.87a5.79,5.79,0,0,0,1.32.65,2.57,2.57,0,0,1,.55.1,11.68,11.68,0,0,0-1.64.16c-.35.11-.69,0-.92.34s-.73.29-1.12.29-1.13-.34-1.14-.18,0,.36,0,.52a.19.19,0,0,0,.08.21s-.89.1-.91.26a2.29,2.29,0,0,0,0,.64c0,.17,0,.57.4.6s1-.15,1.39-.14,1.6.83,2.23.87a40.87,40.87,0,0,0,4.13.64,7.69,7.69,0,0,0,2.67-.46c.31-.22,1-.83,1-1.08A2.39,2.39,0,0,0,27,24.05a8.28,8.28,0,0,0-3.51.11s-.32-.52,0-.62a4.07,4.07,0,0,1,.71-.14s3.68-.52,4.19-.47,1,.05,1.08.05.1-.05-.13-.57a16.37,16.37,0,0,0-2.11-3.23c-.67-.65-1.64-.88-1.42-1.58s.9-.62.57-1.79a4.53,4.53,0,0,0-1.71-2.4c-.43-.19-3-1.27-4.09,0"/><path class="cls-6" d="M5.63,22.14A3.12,3.12,0,0,0,4.54,22c-.51,0-2.71-.44-2.64-1s-.44-.32.69-1.52,1.27-1.17,1.68-1.13A7.19,7.19,0,0,0,6,17.85s.31-.55,0-.56a1.61,1.61,0,0,1-1.35-1.44,2.58,2.58,0,0,1,.62-2.34c.26,0,5.18-.77,5.47-.17a6.61,6.61,0,0,1-.24,2.59s.53.91.07,1.21a10.44,10.44,0,0,1-2.21.66s-.34.29.29.48a16.07,16.07,0,0,0,3.09,0,5.94,5.94,0,0,1,.94-.69,21.89,21.89,0,0,1,2.24-.46s.63-.71.91-.71a.87.87,0,0,1,.5.17l-.37.54s1.08.18.82.46a2,2,0,0,1-.88.42s.4.42,0,.57a18.67,18.67,0,0,1-2.19.37,6.71,6.71,0,0,1-2.2.76,16.38,16.38,0,0,0-1.71.19A5.15,5.15,0,0,0,10,21.05c.12.18-1,.29-1,.29s.53-.05.46.35-.57.38-.57.38-.44.38-.68.35a6.29,6.29,0,0,0-.85.06s-1.67,0-1.72-.34"/><path class="cls-7" d="M10.63,21.61s-.43.08-.24.33.49.48.49.61S11,24,11,24.11s.26.22.41.22.67-.27.91-.17a8,8,0,0,0,1.08.24,5.94,5.94,0,0,1,1.7.13,6.82,6.82,0,0,0,1.3.27l.38-.5a2.84,2.84,0,0,0-.63-.81c-.46-.43-1.14-1.14-1.14-1.14a8.68,8.68,0,0,0-4.42-.74"/><path class="cls-8" d="M21.34,16c-.47-.11-.26.15-.26.15s.13-.07.13-.07a.53.53,0,0,0,.29.28c.21.08.16-.09.16-.09l.3.14a.88.88,0,0,0-.62-.41"/><path class="cls-8" d="M29.87,24.51h0q0,.31-.06.63a1.64,1.64,0,0,1-.17.61,1.24,1.24,0,0,1-.46.48,1.91,1.91,0,0,1-.74.25l-.43.05a1.69,1.69,0,0,0,.7-.59.76.76,0,0,0,.11-.48l0-.12,0-.06,0-.05-.1-.19a2.7,2.7,0,0,0-.27-.39,2.49,2.49,0,0,0-.38-.34,2.93,2.93,0,0,0-1-.49,2.9,2.9,0,0,0-.6-.12,4.14,4.14,0,0,0-.61,0,5.3,5.3,0,0,0-.59.07l-.56.09-.54.09-.52.07h0c0-.2,0-.44.29-.42l.9-.1,1.82-.17,1.82-.17c.29,0,.59,0,.88,0s.59,0,.58.14a7.43,7.43,0,0,1,0,1.25m-4.18,2.24h0l-1.05-.05-.54,0h-.54a7.59,7.59,0,0,1-1.07-.07c-.36,0-.7-.12-1.06-.19-.18,0-.36-.07-.49-.11a2.32,2.32,0,0,1-.44-.16,5.39,5.39,0,0,1-.83-.42l-.8-.47,0,0a.31.31,0,0,0-.22,0l-1,.19-.23.06-.22,0H17l.16,0a.51.51,0,0,0-.12-.1.45.45,0,0,0-.12-.06l0,0H17a.67.67,0,0,0,.15-.06.38.38,0,0,0-.08-.09A.19.19,0,0,0,17,25h-.05L17,25a.49.49,0,0,0,.15-.06l-.11-.09a.7.7,0,0,0-.19-.1s0,0-.05,0a.08.08,0,0,1-.06,0,.05.05,0,0,1,0,0l.21,0h.21s0,0,0,0l0,0h0s0,0,0,0-.25-.08-.3-.13,0-.09,0-.13a.51.51,0,0,1,.25,0h.45l.83-.08h.53l.09,0,0,0h0l.09,0,.2.09a1.78,1.78,0,0,0,.48.12,3.49,3.49,0,0,0,.92,0,7.5,7.5,0,0,1,.81-.11,5,5,0,0,1,.55,0l-.53.45h0a.09.09,0,0,0,0,.15.2.2,0,0,0,.21,0h0c.27-.15.54-.29.79-.45l0,0a4.61,4.61,0,0,1,.53-.19l.58-.18c.3-.08.6-.17.89-.27h.08l.57-.05a5.15,5.15,0,0,1,.55,0,3,3,0,0,1,.52.05,2.07,2.07,0,0,1,.49.12,2.16,2.16,0,0,1,.79.44,1.9,1.9,0,0,1,.5.61,1,1,0,0,1,.08.18l0,0v0l0,.07a.44.44,0,0,1-.06.29,1,1,0,0,1-.25.26,2,2,0,0,1-.38.24,5.42,5.42,0,0,1-.93.35h0a.21.21,0,0,0-.15.12h-.73Zm-8-2.84h0s0,0,0,0l.05,0a.57.57,0,0,1,.13-.08c.07,0,.09-.1,0-.16l0,0s0,0,0,0l.15,0,.15,0,.19.05a2.7,2.7,0,0,0,.75,0,2.5,2.5,0,0,0,.68-.16h0a.09.09,0,0,0,.08-.08v-.12a.67.67,0,0,1,.06-.12l.14-.09a.85.85,0,0,1,.17-.06,1.39,1.39,0,0,1,.41,0l.4,0h.83c.23,0,.46,0,.71,0l.17.07a7.37,7.37,0,0,0,.71.23,2.45,2.45,0,0,0,.36.08h-.07a.65.65,0,0,0-.24.09.24.24,0,0,0-.11.18.56.56,0,0,0,.06.31,4.75,4.75,0,0,0-1.19.35c-.23,0-.46-.07-.7-.09a8.42,8.42,0,0,0-.87,0,3.52,3.52,0,0,1-.74,0,.91.91,0,0,1-.29-.1l-.15-.08-.07,0h0l0,0h0l-.05,0-.3-.08-.26,0a3.43,3.43,0,0,0-.47,0c-.21,0-.4.06-.58.09a.19.19,0,0,0-.08-.07l0,0Zm.18-.41h0s0,0,0,0Zm-.06-1.85h0l-.19-.06c-.51-.29-1-.57-1.55-.83l-.41-.2a1.71,1.71,0,0,1-.36-.2.33.33,0,0,1,0-.55l.13.1a2.19,2.19,0,0,0,.58.19l.64.11.63.13c.22,0,.42.09.64.11l.65,0a5.1,5.1,0,0,0,1.14-.08,3.16,3.16,0,0,0,.76-.23l.05,0,.22.05a3.91,3.91,0,0,0,.48.05,2.35,2.35,0,0,0,.46,0L22,20.2a.06.06,0,0,1,0,0s0,0,0,0l0,0h0l-.11.06-.34.17-.16,0a.44.44,0,0,0-.27.07.39.39,0,0,0-.21.26h-.05a.31.31,0,0,0-.13,0,8.5,8.5,0,0,0-1.35.43,2.69,2.69,0,0,0-.48.24,1,1,0,0,1-.18.09.66.66,0,0,1-.2.06,1.17,1.17,0,0,1-.42,0ZM15.46,21h0a1.43,1.43,0,0,0-.26.34.9.9,0,0,0-.12.24,2.29,2.29,0,0,0-.07.28c0,.1,0,.21,0,.31s0,.15.05.22l-.44-.23a7.28,7.28,0,0,0-1.34-.48l-.38-.07a2.56,2.56,0,0,0-.39,0c-.26,0-.52,0-.77,0s-.49,0-.74,0h-.15v-.06a.62.62,0,0,0-.31-.38L10.41,21a.53.53,0,0,0-.18-.05A.54.54,0,0,0,10,21a1.32,1.32,0,0,1,0-.52,1.88,1.88,0,0,1,.17-.47c.31,0,.62,0,.94,0a8.42,8.42,0,0,0,1.08-.11,2.74,2.74,0,0,0,.53-.15,5.11,5.11,0,0,0,.47-.2c.29-.13.56-.27.85-.38a4,4,0,0,1,.41-.14,1.06,1.06,0,0,1,.2,0h.28v0a.64.64,0,0,0,.1.59,1.25,1.25,0,0,0,.23.23.63.63,0,0,0-.28.28.4.4,0,0,0,.09.38,2.26,2.26,0,0,0,.35.28l.17.11A.84.84,0,0,0,15.46,21Zm-5.21.54h0l0,.18a1,1,0,0,0-.57,0l0-.23a.59.59,0,0,0-.07-.2,1.59,1.59,0,0,1,.37,0,.28.28,0,0,1,.15,0s0,0,0,0l.06.05a.51.51,0,0,1,.12.18l-.08,0Zm.09,0h0s0,0,0,0Zm.31.85h0a.81.81,0,0,1,.07.22,2.23,2.23,0,0,1,.08.45,5.84,5.84,0,0,1,0,.93,1.74,1.74,0,0,1-.06.45.68.68,0,0,1-.07.2.22.22,0,0,1-.05.08h0l-.89,0a.47.47,0,0,0,0-.16.65.65,0,0,0-.24-.32A1.21,1.21,0,0,0,9.05,24l-.23,0H8.58a1.69,1.69,0,0,0-.24,0,1,1,0,0,0-.21.1.78.78,0,0,0-.25.27,1.11,1.11,0,0,0-.13.55l-1,0H5.91A.79.79,0,0,0,6,24.83a.56.56,0,0,0-.07-.39.75.75,0,0,0-.44-.31,1.47,1.47,0,0,0-.29-.05h-.3a1.28,1.28,0,0,0-.92.5,1.73,1.73,0,0,0-.21.34,1.54,1.54,0,0,0-.08.19,8.06,8.06,0,0,1-.85,0A3.31,3.31,0,0,1,2.33,25l-.12,0-.1,0-.22-.09A6.11,6.11,0,0,1,1,24.44L1,24.39a.37.37,0,0,1,0-.09A2.44,2.44,0,0,1,1.13,24a1.76,1.76,0,0,1,.47-.62,1,1,0,0,1,.34-.2l.09,0,.15,0,.29-.1a3,3,0,0,0,.81-.57,3.5,3.5,0,0,0,.44-.51L4,22c.41.08.82.14,1.24.19l0,.05a.6.6,0,0,0,.2.23l.16.08h0a4.69,4.69,0,0,0-.48.19l-.29.15a2.43,2.43,0,0,0-.28.2,1.05,1.05,0,0,1-.36.15l-.24,0-.26.05a1.41,1.41,0,0,0-.45.18,2.3,2.3,0,0,0-.34.25,1.45,1.45,0,0,0-.37.51,1.08,1.08,0,0,0-.1.56h.06a3.68,3.68,0,0,0,.5-.42c.06-.06.14-.13.2-.2a2.41,2.41,0,0,0,.21-.24,2.25,2.25,0,0,1,.21-.24,2.84,2.84,0,0,1,.25-.23.84.84,0,0,1,.37-.14,3.73,3.73,0,0,1,.46-.09,2.24,2.24,0,0,0,.43-.11A1.31,1.31,0,0,0,5.48,23a1.15,1.15,0,0,0,.39-.4h0l.31,0a2.8,2.8,0,0,1,.87-.06h0l.09,0a.59.59,0,0,0,.2,0,1.13,1.13,0,0,0,.6-.18.21.21,0,0,0,.08-.27.46.46,0,0,0-.22-.17l-.26-.08a4,4,0,0,0-.5-.08l0,0a4.5,4.5,0,0,1,.44.16.85.85,0,0,1,.19.1s.09.07.09.09,0,0,0,.05a.43.43,0,0,1-.16.05.48.48,0,0,1-.17,0s0,0,0,0l0,0-.08,0a1.73,1.73,0,0,0-.62-.06c-.18,0-.36,0-.52,0H5.91l0-.08,0-.11,0-.17-.24,0a22.53,22.53,0,0,1-2.77-.43,3.63,3.63,0,0,1-.61-.2A1.45,1.45,0,0,1,2,21a.67.67,0,0,0-.07-.11s0-.07,0-.1a1.2,1.2,0,0,1,.37-.91c.24-.29.56-.54.84-.83a2.24,2.24,0,0,1,.41-.35A2.51,2.51,0,0,1,4,18.47a9.46,9.46,0,0,1,1.33-.27l.18,0a.79.79,0,0,0,.22-.06A.48.48,0,0,0,6,17.85a.7.7,0,0,0,0-.43l.12.06a5.33,5.33,0,0,0,2.14.39.25.25,0,0,0,.08.34,1.07,1.07,0,0,0,.21.13l.12,0,.07,0h.06l.25,0,.24,0,.48,0a10.87,10.87,0,0,0,1.89-.15h.07l0,0a.69.69,0,0,1,.17-.18l.24-.15a3.23,3.23,0,0,1,.57-.23l.16,0,.39-.07a2.64,2.64,0,0,0,.47-.13l.24-.05.36,0-.1,0-.2.07.06.12,0,.09s0,.07,0,.1a.45.45,0,0,1,0,.2.41.41,0,0,1-.16.16,1.1,1.1,0,0,1-.29.11v0a1.63,1.63,0,0,0,.38,0,.85.85,0,0,0,.34-.18.58.58,0,0,0,.18-.42h0l.27-.06a.28.28,0,0,0-.16.31.42.42,0,0,0,.18.26A1.86,1.86,0,0,1,15,18a.29.29,0,0,1,.14-.08h.07l.14,0h0a.23.23,0,0,0,.06.09c0,.05.07.06.1.1h-.19a1.13,1.13,0,0,0-.53.15c-.07,0-.15.1-.12.18s.12.1.2.12-.14-.08-.13-.12.06-.09.13-.11a1.12,1.12,0,0,1,.45-.06.9.9,0,0,1,.4.1c.06,0,.08.07.08.08s0,0-.05,0a1.93,1.93,0,0,1-.41.09l-.48,0h-.27l-.31,0a3.33,3.33,0,0,0-.53.16c-.33.12-.62.26-.9.39l-.42.19a2.92,2.92,0,0,1-.42.13,9.11,9.11,0,0,1-1,.13c-.34,0-.68.06-1,.08H9.88l0,.07a1.3,1.3,0,0,0-.07.64A1.13,1.13,0,0,0,10,21H9.91a1.15,1.15,0,0,0-.37.17l0-.05a1.25,1.25,0,0,0-.3-.21,2.6,2.6,0,0,0-.71-.2c-.43-.05-.84-.12-1.27-.18l-2.39-.35c.2-.32.4-.65.58-1-.32.33-.62.67-.92,1l-.09.11.19,0c.82.19,1.66.37,2.51.52.41.08.85.15,1.27.21l.21.05L7.69,21h0l-.07.31,1.72.29h.06s.06,0,.07.07a.21.21,0,0,1,0,.11c0,.13-.23.2-.43.23v-.16c0-.05,0,0,0-.06l-.06-.07a1,1,0,0,0-.3-.19,3.15,3.15,0,0,0-1.7-.13,4.58,4.58,0,0,0,.47.16l.46.14a3.67,3.67,0,0,1,.47.16.35.35,0,0,1,.15.08h0s0,0,0,0v0a.17.17,0,0,1,0,.05h0a.12.12,0,0,1,0,.07l-.13.1a3.71,3.71,0,0,1-.41.2,1.4,1.4,0,0,0,.56,0,1.13,1.13,0,0,0,.28-.09A.47.47,0,0,0,9,22.05a1.18,1.18,0,0,0,.26,0,.46.46,0,0,0,.32-.19.31.31,0,0,0,0-.13,1,1,0,0,1,.54.07.69.69,0,0,1,.22.16,1.3,1.3,0,0,1,.15.18A1.13,1.13,0,0,1,10.65,22.34Zm-2.44,2h0l.06,0a.44.44,0,0,1,.16-.06.9.9,0,0,1,.16,0h.2a1,1,0,0,1,.18,0h0a2.36,2.36,0,0,0-.69.08Zm.94,1.08h0c-.05.05-.1.07-.3.1l-.46.07a2.35,2.35,0,0,1-.78,0,.63.63,0,0,1-.23-.13.7.7,0,0,1-.1-.16l0-.1.59,0h.09v-.06a.91.91,0,0,1,.12-.55.39.39,0,0,1,.08-.1h.14a2.82,2.82,0,0,1,.6.06.28.28,0,0,1,.2.11l0,.13c0,.05,0,.11,0,.17S9.26,25.34,9.15,25.41Zm-4-1h0a1.09,1.09,0,0,0-.3,0l.07,0h.2a1,1,0,0,1,.18,0l.15.05a.28.28,0,0,1,.1.09.48.48,0,0,1,.08.34s0,0,0-.05l0-.07,0-.09A.64.64,0,0,0,5.15,24.44Zm-.1,1.11h0a.4.4,0,0,1-.21.13,1.59,1.59,0,0,1-.34,0H4.1l-.33-.05a.56.56,0,0,1-.32-.15h.69l0-.16a1.06,1.06,0,0,1,.1-.3,1.59,1.59,0,0,1,.15-.29,1.14,1.14,0,0,1,.19-.19,1.16,1.16,0,0,1,.41.09.22.22,0,0,1,.13.14V25A.83.83,0,0,1,5.05,25.55Zm.11-8.79h0C5.61,16,5,14.85,5,14.85l.8-.11-.21.11c1.92-.43,2.33,0,2.33,0s-.11-.27-.63-.38a4.88,4.88,0,0,0,2.62-1.2,2.9,2.9,0,0,1,.43.51c.12.18.22.28.28.4a5.74,5.74,0,0,0-.39,1.15,1,1,0,0,0,.05.46.53.53,0,0,0,.06.13l.08.1.08.13a.68.68,0,0,1-.19.65,3.06,3.06,0,0,1-1.82.81,4.5,4.5,0,0,1-1.16,0,4.34,4.34,0,0,1-1.1-.29A4.07,4.07,0,0,1,5.16,16.76Zm5.41.38h0l.21.22h-.17l-.38,0A1.72,1.72,0,0,0,10.57,17.14Zm.44-.4h0s.27.36.48.62H11A2.75,2.75,0,0,0,11,16.74Zm.58,1.46h0l-.9,0q-.46,0-.93,0H8.67l-.17-.05a.27.27,0,0,1-.18-.22h.19a4.25,4.25,0,0,0,1.6-.41,3.93,3.93,0,0,0,.45.13,6.31,6.31,0,0,0,1.35.18h.36a1.71,1.71,0,0,0-.23.13,2.26,2.26,0,0,0-.26.16A1.39,1.39,0,0,0,11.59,18.2Zm1.54-2.07h0a4,4,0,0,0,1.23-.24,1.67,1.67,0,0,0,.39-.2,3.21,3.21,0,0,0,.46.22,4.3,4.3,0,0,0,.64.26l.43.13a1.13,1.13,0,0,0-.4,0,2.09,2.09,0,0,0-.81.41,1.3,1.3,0,0,0-.21.22,1.86,1.86,0,0,0-.34,0c-.24,0-.47.08-.69.13l-.65.2-.19.09-1.06-.05h-.27l-.05-1,1,.77s.22-.23-.51-1.1l.32.05A5,5,0,0,0,13.13,16.13Zm1.5-2.34h0a2.4,2.4,0,0,0-.11-.23h1c.11,0,.23,0,.35,0a.76.76,0,0,1,.37.05.73.73,0,0,1,.13.09l0,.07,0,0a.23.23,0,0,1,0,.19,1,1,0,0,1-.18.16,1.57,1.57,0,0,0-.24.21.77.77,0,0,0-.16.27.37.37,0,0,0,0,.3.38.38,0,0,0,.31.12.5.5,0,0,0,.23,0v0a.62.62,0,0,1-.16-.07s0-.05,0-.06l.09-.1a.73.73,0,0,1,.16-.14,2.08,2.08,0,0,0,.22-.21.68.68,0,0,0,.2-.33.39.39,0,0,0-.2-.37l-.09-.06-.09,0-.2-.1-.39-.15a1.64,1.64,0,0,0-.38-.1,8.25,8.25,0,0,1,1.17-1c.1,0,1.76,1.52,1.76,1.52l2.15-.36a1.85,1.85,0,0,0-.72,1.78l.15-.46a1.2,1.2,0,0,0,.11.48c.11.2.24.38.35.57l0,.05a10.62,10.62,0,0,1-1.22.26,7.29,7.29,0,0,1-1.32.05c-.22,0-.44,0-.65-.06L16.71,16l-.61-.16c-.19-.06-.4-.14-.56-.21h0a4.28,4.28,0,0,1-.52-.22c-.15-.08-.25-.15-.27-.25a1.28,1.28,0,0,1,0-.41,1.23,1.23,0,0,0,0-.47A2.35,2.35,0,0,0,14.63,13.79Zm-.29-.65h0l.56.16a1.26,1.26,0,0,0-.28.11c-.08.05-.11.09-.13.1l-.07-.15A1,1,0,0,1,14.34,13.14Zm11.86,4.3h0a.31.31,0,0,1,.12.21s0,.06,0,.07,0,.05,0,.07a.57.57,0,0,1,0,.13s0,0,0,.07l0,0a.58.58,0,0,1-.28-.42.56.56,0,0,1,.07-.19Zm-5.3,3.67Zm1.23-.44h0a.74.74,0,0,0,.19-.16.41.41,0,0,0,.07-.11.19.19,0,0,0,0-.13.27.27,0,0,0-.11-.15,1.46,1.46,0,0,0,.3-.11.86.86,0,0,0-.07.21l0,.3a.86.86,0,0,0,0,.28.63.63,0,0,0,.09.24,1.26,1.26,0,0,0,.32.41h-.46a.38.38,0,0,1-.16,0h0s0,0,0,0a1.13,1.13,0,0,1-.09-.25,1.2,1.2,0,0,0-.11-.17.76.76,0,0,0-.2-.13l-.06,0A2,2,0,0,0,22.13,20.67Zm-1.87-.8h0a1.91,1.91,0,0,1-.48,0,1.47,1.47,0,0,1-.42-.13L19,19.55l-.36-.09c-.23,0-.43-.07-.58-.08H18a.54.54,0,0,0,.12-.09s0,0,0,0h0a1.81,1.81,0,0,1-.87.11h-.5a.44.44,0,0,1-.25,0s0,0,0,0h0l.15-.05.23-.09c.1,0,.25-.15.27-.27a.36.36,0,0,0-.05-.26,1,1,0,0,0-.31-.34h0l-.06,0a4,4,0,0,1-.47-.21h.06a7.19,7.19,0,0,1,.94.24,4.49,4.49,0,0,0,.48.16l.49.1c.33.07.67.13,1,.18a7,7,0,0,0,1,.07,4.22,4.22,0,0,0,1.06-.09,2.53,2.53,0,0,0,.81-.31c.26,0,.51,0,.77,0l0,0a1.62,1.62,0,0,0-.18.35,1,1,0,0,0,0,.24.36.36,0,0,0,0,.14l.05.14a.7.7,0,0,1,0,.29.66.66,0,0,1-.06.22H22c-.23,0-.49,0-.78,0S20.59,19.85,20.26,19.87Zm-4.85-2.39h0l.1-.05.1-.07,0-.06h0l.12,0,.38.1.2,0,.11,0h.05a1.86,1.86,0,0,1-.19.22l-.07.08L16,17.75l-.14-.08a1.34,1.34,0,0,0-.47-.11h-.22Zm.66-.79h0l0,.16a1.73,1.73,0,0,0,0,.24l-.2,0-.15,0s0-.05,0-.06a.29.29,0,0,0-.14-.08l-.16,0h-.17l.13,0C15.5,16.87,15.82,16.76,16.07,16.69Zm0-.07h0s0,0,0,0Zm.44.85h0s0,0,0,0Zm-.79.54Zm.83-1.54h0a.39.39,0,0,0-.15-.13h0l.16,0a6.38,6.38,0,0,0,1.45.15,6.25,6.25,0,0,0,1.44-.19,5.08,5.08,0,0,0,1.15-.44,1.42,1.42,0,0,1,.08.18c0,.08,0,.15-.13.23a1.69,1.69,0,0,0-.28.26.15.15,0,0,0,0,.2.75.75,0,0,0,.18.13l.19.09.08,0a0,0,0,0,0,0,0l-.08.13-.06.07a.1.1,0,0,0,0,.13.38.38,0,0,0,.25.11l.22,0-.12,0-.08,0s-.05.08,0,.09a.16.16,0,0,0,0,.12c0,.11.18.15.25.17A.29.29,0,0,0,21,18a.13.13,0,0,0,.05.16.34.34,0,0,0,.15.07,1.22,1.22,0,0,0,.3.08l.31,0h0c-.21,0-.42.07-.64.09a6.15,6.15,0,0,1-1,0c-.32,0-.66,0-1,0s-.68,0-1,0a3.86,3.86,0,0,1-.49-.06,2.28,2.28,0,0,1-.44-.15c-.26-.09-.5-.2-.77-.29h0a1.08,1.08,0,0,0,.38-.2.3.3,0,0,0,.15-.25c0-.14-.2-.27-.3-.29l-.09,0h-.06l-.13,0a1.1,1.1,0,0,0-.25,0h-.11a1.86,1.86,0,0,0,.2-.14.66.66,0,0,0,.25-.31A.27.27,0,0,0,16.56,16.47Zm-1.32,2.72h0c0-.07-.07-.14-.1-.2l0,0,.32,0a2.08,2.08,0,0,0,.55-.18.29.29,0,0,0,.17-.2l.14.06a1.42,1.42,0,0,1,.17.21.11.11,0,0,1,0,.05l-.17.07a1.62,1.62,0,0,0-.26.12.27.27,0,0,0-.13.16.19.19,0,0,0,0,.07v0a.3.3,0,0,0,.18.29.81.81,0,0,0,.38.09,2.36,2.36,0,0,0,.29,0l.21,0,.23,0a2.38,2.38,0,0,0,.64-.15,2.26,2.26,0,0,0,.61.33l.37.11a3.33,3.33,0,0,0,.46,0,4,4,0,0,1,.47.05,2.25,2.25,0,0,1,.35.09l-.52,0h-.5l-.56,0c-.4,0-.81,0-1.25,0a2.64,2.64,0,0,1-.63,0,1.72,1.72,0,0,1-.54-.18c-.15-.08-.27-.18-.38-.25a2.45,2.45,0,0,1-.28-.24A1.28,1.28,0,0,1,15.24,19.19Zm4.41,4.09h0l0,.08h-.55a2.34,2.34,0,0,1-.39,0s0-.07,0-.11a4.06,4.06,0,0,0-.11-.52,2.58,2.58,0,0,0-.2-.51.41.41,0,0,0-.07-.11l.3,0a1.15,1.15,0,0,0,.31-.11,1.86,1.86,0,0,0,.25-.14,4.11,4.11,0,0,1,.39-.24c.28-.15.58-.29.88-.43v.06l0,.12a.25.25,0,0,1,0,.19l0,0,0,0a.27.27,0,0,0,0,.12.46.46,0,0,0,.08.16s0,0,0,.05a.14.14,0,0,0,0,.11.31.31,0,0,0,.05.1,1.22,1.22,0,0,0,.32.2c.22.1.41.21.64.31l.43.16a3,3,0,0,0-.79,0,4.1,4.1,0,0,0-.87.21L20,23l-.19.11Zm8.66-2.54h0a13.11,13.11,0,0,1,1.2,2.11l-.23,0a7.73,7.73,0,0,0-1,0c-.62,0-1.24.11-1.84.18s-1.1.15-1.64.25a2.47,2.47,0,0,0,.84-.61,2.67,2.67,0,0,0,.33-.52l.21-.51a9,9,0,0,0,.37-1,1.23,1.23,0,0,0-.16-1.08s0,0,0,0a0,0,0,0,0,0,0,1.36,1.36,0,0,1-.17,1c-.16.33-.34.65-.53,1a4.7,4.7,0,0,1-.53.94,1.72,1.72,0,0,1-.94.63l-.15,0h-.13a1.38,1.38,0,0,1-.31,0q-.36-.06-.72-.15a10.34,10.34,0,0,1-1.4-.42,3.77,3.77,0,0,1-.6-.31.7.7,0,0,1-.22-.17,0,0,0,0,1,0,0s0,0,0,0a.19.19,0,0,0,0-.2q0-.07,0-.09l.05-.05a.49.49,0,0,0,.16-.32s0-.1,0-.14H21c.14,0,.25-.08.25-.18h0a.17.17,0,0,1,0-.1l.09.07a1.24,1.24,0,0,0,.2.1l.11.06.07.08a1.07,1.07,0,0,0,.19.29.23.23,0,0,0,.11.07.38.38,0,0,0,.15.05,1.07,1.07,0,0,0,.25,0,3.4,3.4,0,0,0,.65-.12h0a.72.72,0,0,0,.14.33h0a0,0,0,0,0,0,0,1.37,1.37,0,0,0,.26-.29,1.4,1.4,0,0,0,.15-.3c0-.11,0-.24.06-.36s.13-.49.18-.67a2.62,2.62,0,0,1,.1-.31s0,0,0,0,0,0,0,0l-.24.28a4.43,4.43,0,0,0-.43.64,2.16,2.16,0,0,0-.2.36.74.74,0,0,0,0,.25h-.05a.87.87,0,0,0,0-.1c0-.09,0-.21,0-.35a2.86,2.86,0,0,0,0-.49L23,20.22c0-.09-.06-.19-.09-.29a.65.65,0,0,1-.06-.3.76.76,0,0,1,.09-.28.83.83,0,0,0,.07-.13s0-.09.06-.12,0-.17,0-.24a1.52,1.52,0,0,0-.07-.37l0,0h.25l.3,0h0a0,0,0,0,1,0,0,.19.19,0,0,1,0,.08v.06h0l.15,0h.05l.15,0h0v-.11a.49.49,0,0,0,0-.12.27.27,0,0,0-.12-.15.39.39,0,0,0-.13-.06h-.13l-.29,0H23a9,9,0,0,1-1.16,0l-.27,0-.26-.06c-.08,0-.12-.05-.1-.07s0,0,.05-.07a.1.1,0,0,0,0-.11l-.06-.06h0c-.11,0-.16-.06-.17-.09v-.07h0l0,0a3.07,3.07,0,0,1,.51-.16s.07,0,.07-.07a.11.11,0,0,0-.11-.06h-.44a.73.73,0,0,1-.33-.06.8.8,0,0,1,.06-.08l.1-.15a.11.11,0,0,0,0-.14l-.11-.05-.18-.08c-.12-.06-.2-.11-.15-.18a1.23,1.23,0,0,1,.26-.24c.1-.07.21-.2.17-.32a1.46,1.46,0,0,0-.14-.31c-.11-.19-.24-.38-.33-.57a.89.89,0,0,1-.06-.58,1.25,1.25,0,0,1,.13-.35l.62,1c-.33,0-.41.18-.41.18.71-.23,1.66.53,1.66.53a2.72,2.72,0,0,0-1.24-.71l0-1,.39.61-.19-.79.73.89.36.54-.16-.94.53.87,0-.66.67.8.45.46-.1-.46.47.54-.1-.51c0-.41,0-.24,0-.24a.94.94,0,0,0,.22.51,1.05,1.05,0,0,1-.33.7l.34-.23h0l-.11.32c.39-.27.49-.37.81-.37l0,0h0l0,0a.32.32,0,0,1,0,.17.87.87,0,0,1-.46.64.77.77,0,0,1-.33.1h-.14l0,0,.16,0a1,1,0,0,0,.43,0,1.23,1.23,0,0,0,.81-.7.58.58,0,0,0,0-.19.44.44,0,0,1,.15.41l-.06.23a1,1,0,0,0-.21.51.88.88,0,0,0,.43.68c.23.16.41.3.6.45A10.17,10.17,0,0,1,28.31,20.74Zm-1.37-2.36h0a.67.67,0,0,0,.22-.28l.18.12a.5.5,0,0,1,.12.14s0,.05,0,.13-.12.22-.18.32c-.12-.12-.23-.24-.36-.36l0,0ZM30,23a.88.88,0,0,0-.26-.12l-.18,0a7.65,7.65,0,0,0-.36-1.05,13,13,0,0,0-.61-1.17,7.91,7.91,0,0,0-.91-1.31l.05,0a.34.34,0,0,0,.08-.21.32.32,0,0,0-.08-.21.52.52,0,0,0-.12-.09.38.38,0,0,0-.11.09.3.3,0,0,0-.08.16L27.4,19a1.09,1.09,0,0,0,.4-.4.46.46,0,0,0,0-.15.24.24,0,0,0-.07-.18.67.67,0,0,0-.32-.15,1,1,0,0,0-.28,0h0a.44.44,0,0,0,0-.2.25.25,0,0,0-.16-.19.37.37,0,0,0-.23,0,.11.11,0,0,0-.05,0l.06,0s.07,0,.06.06a.2.2,0,0,1,0,.08s0,.09,0,.15a.87.87,0,0,0-.05.31l-.34-.28a.43.43,0,0,0,.13-.05.49.49,0,0,0,.16-.16.35.35,0,0,0,0-.11.45.45,0,0,0,0-.11.37.37,0,0,0-.15-.22.64.64,0,0,0-.27-.1h-.2a.18.18,0,0,0,0-.07c.62-.39,2-.4,2-1.93.09-1.72-2.05-2.73-3.09-2.86a7.54,7.54,0,0,0-2,0,3.49,3.49,0,0,0-3.06-1.94c-2.52-.11-2.87.12-2.87.12a3.79,3.79,0,0,0-2.11-.09,3,3,0,0,0-2.35,2.14l1.39.4a1.63,1.63,0,0,0,.11.31,1.68,1.68,0,0,1,.26.86,1.07,1.07,0,0,1-.1.42,1.13,1.13,0,0,0-.14.48.69.69,0,0,0,.39.49h0l-.42,0-.55,0-.61,0-1.17,0h0c-.66-.95,0-2.07.12-2.8s-2-1.55-4.51-1.8-2.88,1.1-2.88,1.1a2.29,2.29,0,0,0-1.3.75c-.6.67-.16,2-.21,2.9s-1.73,1.45-1.73,1.45A5,5,0,0,0,2.85,17l-.53.84c.75-.27,1.37-.47,1.37-.47l-.62.47a3.82,3.82,0,0,0,1.79-1l-.23.45a1.28,1.28,0,0,0,.42-.31,6.59,6.59,0,0,0,.83.46.68.68,0,0,1-.11.42.38.38,0,0,1-.18.13H5.47l-.18,0a5.81,5.81,0,0,0-1.48.21,2.08,2.08,0,0,0-.67.32,1.45,1.45,0,0,0-.41.46c-.2.29-.43.59-.64.9a1.79,1.79,0,0,0-.44,1,.27.27,0,0,0,0,.15.31.31,0,0,0,.05.12.77.77,0,0,0,.27.24,3,3,0,0,0,.65.3,8,8,0,0,0,1,.26,4.4,4.4,0,0,1-.52.43,3.4,3.4,0,0,1-.81.46,1.19,1.19,0,0,1-.22.05l-.12,0-.17,0a1.64,1.64,0,0,0-.53.26,2.52,2.52,0,0,0-.62.7,2.69,2.69,0,0,0-.19.38s0,.07,0,.11a.26.26,0,0,1,0,.07v.13h0l0,.05h0l0,0,.07.05.11.08a6.25,6.25,0,0,0,.93.48l.26.1.16.05.14,0a4.39,4.39,0,0,0,.61.07l.55,0c0,.11.11.26.32.35A1.37,1.37,0,0,0,4,26l.2.05.25,0A1.6,1.6,0,0,0,5,26a.91.91,0,0,0,.51-.28.77.77,0,0,0,.16-.49h0l1.06-.08.42,0a.18.18,0,0,0,0,.11.38.38,0,0,0,0,.21.55.55,0,0,0,.25.26,2,2,0,0,0,1,.19,5.66,5.66,0,0,0,.57,0,1.16,1.16,0,0,0,.62-.24.55.55,0,0,0,.15-.48c0-.06,0-.11,0-.16l1.06,0h.08l0,0a.5.5,0,0,0,.21-.16.55.55,0,0,0,.09-.14,1.34,1.34,0,0,0,.09-.26h0a1.28,1.28,0,0,0,.55,0,.77.77,0,0,0,.34-.16l.14-.11,0,0,.1.09a1.29,1.29,0,0,0,.17.15l.22.1.24.08a1.53,1.53,0,0,0,.52,0,1.45,1.45,0,0,0,.51-.11v0a3,3,0,0,0-.43-.18,3.48,3.48,0,0,0-.41-.1l-.42-.07-.22,0a.69.69,0,0,1-.19-.07l-.1-.07,0,.07a.35.35,0,0,1-.26.1,1.71,1.71,0,0,0-.32,0,2.13,2.13,0,0,0-.4.1,2.53,2.53,0,0,0,0-.28,5.13,5.13,0,0,0-.11-1,4.5,4.5,0,0,0-.16-.48,1.28,1.28,0,0,0-.11-.24c0-.07-.11-.15-.16-.22a.93.93,0,0,0-.23-.21l0,0,.11,0h0L11,21.7a4.42,4.42,0,0,1,.73,0,3.94,3.94,0,0,1,.7.12l.32.08.31.11c.41.15.83.32,1.27.46l.87.25s0,0,0,.06a1.35,1.35,0,0,0,.2.27,2.23,2.23,0,0,0,.52.42,2.16,2.16,0,0,0,.64.27,3.86,3.86,0,0,1-.39-.42,3,3,0,0,1-.32-.43,2,2,0,0,1-.25-.51,2.58,2.58,0,0,1-.08-.26,2.51,2.51,0,0,0,0-.27v-.25a1.69,1.69,0,0,1,0-.23,2.6,2.6,0,0,1,0-.36.75.75,0,0,0,0-.12l.18.12c.48.31,1,.61,1.49.91h0a1.81,1.81,0,0,0,.31.09,1.65,1.65,0,0,0,.32.06h.19a.34.34,0,0,0-.06.12.91.91,0,0,0,.11.87.79.79,0,0,0,.14.17h-.05a1.42,1.42,0,0,0-.44-.06.65.65,0,0,0-.31.07.27.27,0,0,0-.17.25.33.33,0,0,0,.12.23s0,0,0,0a.31.31,0,0,0-.05.1.18.18,0,0,0,0,.15l.09.05-.16,0h-.2a.83.83,0,0,0-.49.19.28.28,0,0,0-.08.21.2.2,0,0,0,.11.13.27.27,0,0,0-.1.06.12.12,0,0,0,0,.16.16.16,0,0,0,.09.09s0,0-.05.06a.14.14,0,0,0,0,.11.17.17,0,0,0-.06.08c0,.07,0,.19.14.28l.15,0h0a.8.8,0,0,0,.39.15,1.42,1.42,0,0,0,.29,0h.26l.84-.07a5.94,5.94,0,0,0,1.68.88,3.06,3.06,0,0,0,.56.14c.21,0,.39,0,.57,0,.35,0,.72,0,1.07.09s.71.11,1.06.18a6.65,6.65,0,0,0,1.09.15,7,7,0,0,0,1.83-.15.36.36,0,0,0,.25.09c.35,0,.64-.06.95-.1s.6-.07.92-.14a2.3,2.3,0,0,0,.86-.36,1.3,1.3,0,0,0,.46-.6,5.12,5.12,0,0,0,.18-1.27c0-.43.09-.84.11-1.27A.33.33,0,0,0,30,23Z"/><polygon class="cls-8" points="19.9 15.2 19.9 15.19 19.88 15.26 19.9 15.2"/><path class="cls-8" d="M4.76,25.09h-.1s-.07,0-.07,0,0,0,.08,0l.09,0s0,0,0,0,0,0,0-.09a.35.35,0,0,0,0-.07l0,0-.07-.05a.26.26,0,0,0-.18,0s-.07,0-.08.05,0,.07,0,.1,0,.06,0,.08,0,0-.07.07a.14.14,0,0,0-.07.18.16.16,0,0,0,.15.09.45.45,0,0,0,.26-.05l0,0,.08-.16s0,0,0,0Z"/><path class="cls-8" d="M8.48,25s-.07,0-.07,0h.08s.09,0,.1,0,0,0,0,0a1.44,1.44,0,0,0-.07-.16l0,0a.49.49,0,0,0-.25-.05s0,0,0,0,0,.05,0,.09,0,.05,0,.07-.05,0-.09.06-.08.06-.08.1a.16.16,0,0,0,0,.1.18.18,0,0,0,.16.09.51.51,0,0,0,.25-.07l0,0A1.27,1.27,0,0,1,8.6,25s0,0,0,0a.13.13,0,0,1-.13,0"/><path class="cls-8" d="M6.82,15.64c.59,0,.43-.36.43-.36l.24.05s.27-.24-.24-.25a3.52,3.52,0,0,0-1.17.25l.46,0s-.31.3.28.28"/><path class="cls-8" d="M9.55,15c-.45,0-.56.25-.56.25v.06c.06-.09.3-.12.3-.12-.26.2.15.35.39.2s.05-.23.05-.23H10S10,15,9.55,15"/><path class="cls-8" d="M9.1,16.06c.32.06-.11.25-.11.25s.42-.12.35-.28-.56-.32-.49-.8.61-.64,1.47-.56a1.66,1.66,0,0,0-1.4.08.81.81,0,0,0,.18,1.31"/><path class="cls-8" d="M8.34,17.16c.66,0,.62-.52.72-.54a13.07,13.07,0,0,0-1.64.07c-.28.07.26.47.92.47"/><path class="cls-8" d="M7.78,17.47c.3,0,.61-.11.31-.15s-.61.13-.31.15"/><path class="cls-8" d="M15,14.14c-.06.17.14.15.39.06s1,0,.55-.24a1.36,1.36,0,0,0-1.1,0s.21,0,.16.18"/><path class="cls-8" d="M17.56,14.27c.34.1,1.2.24,1.5.36s.07-.16,0-.34.68-.31-.82-.33c-.71,0-1,.2-.68.31"/><path class="cls-8" d="M18.05,15.92c.59-.15.48-.89,0-.68a2.69,2.69,0,0,1-1.37,0,1.17,1.17,0,0,0,1.37.68"/><path class="cls-8" d="M6.72.71h.39v1.7c0,.53-.31.69-.81.69a.94.94,0,0,1-.25,0l0-.23h.19c.28,0,.45-.07.45-.45Z"/><path class="cls-8" d="M9.11,2.61c0,.19,0,.34,0,.46H8.79l0-.17h0a.73.73,0,0,1-.53.2c-.43,0-.6-.23-.6-.65V1.38H8v1c0,.27.06.46.34.46a.34.34,0,0,0,.35-.22.77.77,0,0,0,0-.15V1.38h.39Z"/><path class="cls-8" d="M10.67,2.05h0c0-.34-.18-.49-.37-.49s-.39.26-.4.49Zm-.78.2c0,.52.3.63.59.63a1.43,1.43,0,0,0,.41-.06L11,3a1.49,1.49,0,0,1-.54.09.8.8,0,0,1-.9-.86.8.8,0,0,1,.83-.89.68.68,0,0,1,.71.75.66.66,0,0,1,0,.15Z"/><path class="cls-8" d="M12.53,2h0a.43.43,0,0,0,0-.12.37.37,0,0,0-.36-.26c-.29,0-.44.26-.44.64s.2.63.44.63a.35.35,0,0,0,.35-.24.45.45,0,0,0,0-.16Zm.41-.58a5,5,0,0,0,0,.53v1c0,.44-.08.61-.24.73a1.06,1.06,0,0,1-.66.19,1.55,1.55,0,0,1-.54-.09l.09-.21a1.27,1.27,0,0,0,.46.08A.45.45,0,0,0,12.53,3V2.86h0a.55.55,0,0,1-.48.21.75.75,0,0,1-.73-.84.8.8,0,0,1,.78-.88.51.51,0,0,1,.46.22h0l0-.19Z"/><path class="cls-8" d="M14.33,2.2h0c-.2,0-.68,0-.68.39a.28.28,0,0,0,.3.3.35.35,0,0,0,.37-.25.38.38,0,0,0,0-.1Zm.06.87,0-.17h0a.62.62,0,0,1-.49.2c-.34,0-.59-.19-.59-.48S13.76,2,14.32,2V2c0-.23-.08-.39-.39-.39a1,1,0,0,0-.41.09l-.09-.19A1.48,1.48,0,0,1,14,1.35c.5,0,.71.22.71.61v.73a1.5,1.5,0,0,0,0,.38Z"/><path class="cls-8" d="M17.18,3a1,1,0,0,1-.41.07.81.81,0,0,1-.9-.86.89.89,0,0,1,1-.89,1.38,1.38,0,0,1,.35,0l-.07.23a.89.89,0,0,0-.29,0,.59.59,0,0,0-.57.66.56.56,0,0,0,.58.63,1.27,1.27,0,0,0,.29,0Z"/><path class="cls-8" d="M17.72,2.23h0c0,.28.08.66.43.66s.41-.4.41-.66-.07-.66-.42-.66-.42.4-.42.66m1.24,0a.79.79,0,0,1-.83.87.77.77,0,0,1-.8-.87.8.8,0,0,1,.83-.88A.78.78,0,0,1,19,2.23Z"/><path class="cls-8" d="M19.35,1.82c0-.21,0-.31,0-.44h.34l0,.2h0a.71.71,0,0,1,.57-.23.54.54,0,0,1,.6.58V3.07h-.4V2c0-.2,0-.4-.34-.4a.37.37,0,0,0-.37.27.39.39,0,0,0,0,.15V3.07h-.39Z"/><path class="cls-8" d="M22.41,2.23h0c0,.28.07.66.43.66s.4-.4.4-.66-.07-.66-.41-.66-.42.4-.42.66m1.23,0a.79.79,0,0,1-.82.87A.77.77,0,0,1,22,2.23a.8.8,0,0,1,.83-.88A.78.78,0,0,1,23.64,2.23Z"/><path class="cls-8" d="M24.51.93v.45H25v.2h-.47v1c0,.22.12.28.26.28h.16v.21a1.07,1.07,0,0,1-.29,0A.62.62,0,0,1,24.26,3a.49.49,0,0,1-.15-.42v-1h-.3v-.2h.3V1Z"/><path class="cls-8" d="M25.28,1.82c0-.15,0-.32,0-.44h.35l0,.26h0a.59.59,0,0,1,.52-.29h.08v.28h-.08a.45.45,0,0,0-.47.35.77.77,0,0,0,0,.15v.94h-.39Z"/><path class="cls-8" d="M26.71,2.23h0c0,.28.08.66.43.66s.41-.4.41-.66-.07-.66-.42-.66-.42.4-.42.66m1.24,0a.79.79,0,0,1-.83.87.77.77,0,0,1-.8-.87.8.8,0,0,1,.83-.88A.78.78,0,0,1,28,2.23Z"/><path class="cls-8" d="M28.27,2.79a1,1,0,0,0,.4.09c.22,0,.36-.09.36-.24s-.06-.22-.32-.34-.49-.28-.49-.48.3-.47.68-.47a1,1,0,0,1,.44.09l-.1.2a.84.84,0,0,0-.33-.07c-.22,0-.32.1-.32.21s.06.18.3.29.52.29.52.52-.34.51-.75.51a1.15,1.15,0,0,1-.49-.1Z"/><path class="cls-8" d="M21.5,5c0-.2,0-.3,0-.44h.35l0,.21h0a.71.71,0,0,1,.57-.23.54.54,0,0,1,.6.58V6.23h-.4V5.14c0-.2-.05-.41-.34-.41A.39.39,0,0,0,21.9,5a.71.71,0,0,0,0,.15V6.23H21.5Z"/><path class="cls-8" d="M23.52,6.23h0V4.53h.39v1.7Zm.42-2.14c0,.11-.09.18-.24.18s-.22-.07-.22-.18.1-.17.23-.17S23.94,4,23.94,4.09Z"/><path class="cls-8" d="M24.41,5h0c0-.2,0-.3,0-.44h.34l0,.21h0a.71.71,0,0,1,.57-.23.54.54,0,0,1,.6.58V6.23h-.4V5.14c0-.2-.05-.41-.34-.41a.38.38,0,0,0-.37.28.68.68,0,0,0,0,.15V6.23h-.39Zm.21-.71a.3.3,0,0,1,.31-.33.66.66,0,0,1,.26.06.51.51,0,0,0,.2.06c.08,0,.12,0,.13-.12h.21a.28.28,0,0,1-.32.31.71.71,0,0,1-.26-.06A.48.48,0,0,0,25,4.12c-.08,0-.12,0-.13.14Z"/><path class="cls-8" d="M26.71,5.38h0c0,.28.08.67.44.67s.4-.4.4-.67-.07-.66-.42-.66-.42.4-.42.66m1.24,0a.8.8,0,0,1-.83.88.78.78,0,0,1-.8-.87.79.79,0,0,1,.83-.88A.78.78,0,0,1,28,5.38Z"/><path class="cls-8" d="M28.27,6a1,1,0,0,0,.4.09c.22,0,.36-.1.36-.25s-.06-.21-.31-.33-.5-.29-.5-.48.3-.47.68-.47a1.3,1.3,0,0,1,.45.08l-.11.21a.67.67,0,0,0-.33-.08c-.22,0-.32.11-.32.22s.06.18.3.29.52.28.52.52-.34.5-.75.5a1.34,1.34,0,0,1-.49-.09Z"/><path class="cls-8" d="M28.11,15.81s-1.42,2.61-2.38,3.24a22.31,22.31,0,0,1-2,1.14A3.83,3.83,0,0,0,25.49,18c.47-1.55,2.62-2.19,2.62-2.19"/></svg>