<svg id="Capa_1" data-name="Capa 1" xmlns="http://www.w3.org/2000/svg" viewBox="0 0 26.94 19.08"><defs><style>.cls-1{fill:#fccdb5;}.cls-2{fill:#231f20;}.cls-3{fill:#f5a4c7;}</style></defs><title>1-3meses</title><path class="cls-1" d="M1.09,3.27l5.48.45a13.19,13.19,0,0,1,3,.36c.37.28,2.72,1.13,3,1.31s.65.61.59.88a.71.71,0,0,0,0,.44s.66.32.37.8l1.1,1.27c.33.38.73.76.73.76a1.45,1.45,0,0,1,.32-.42L16,8.89l.14,0s-.26-.23-.18-.39.18-.13.13-.28-.19-.3,0-.35.75-.06.89-.34a3.36,3.36,0,0,1,.5-1,3.89,3.89,0,0,1,2.44-.6,7.81,7.81,0,0,1,3.48.76,2.21,2.21,0,0,1,1.13,2.63c-.29,1.37-1.24,1.42-1.86,1.57a14.56,14.56,0,0,0-2.4.42,3,3,0,0,0-1,1.23A2.71,2.71,0,0,1,18,14.2a12.65,12.65,0,0,1-5.55,2.6c-2.25.27-4.2.36-5.08-.44a1.08,1.08,0,0,1-.19-1.57s-.53-.49-.34-.94.65-1.69.65-1.69S5.26,11.88,5,11.53a1.47,1.47,0,0,0-.33-.42s-.61.11-.8-.13a3.3,3.3,0,0,1-.32-1.26c0-.28-.26-.59-.16-.68s.28-.26.28-.26-.34-.35-.15-.45a.67.67,0,0,1,.49-.13c.32,0,.63-.11.79-.08s.28.08.31.15l.27.48a3.12,3.12,0,0,1,.89-.18c.39,0,.51,0,.52.12s.16,1,.16,1a13.46,13.46,0,0,1,1.82.51,1.57,1.57,0,0,1,.31.26s1.89-.08,2.33,0a2.92,2.92,0,0,1,1.2.52.46.46,0,0,1,.15.35l.79-.47a2.12,2.12,0,0,0-.2-.24,3.86,3.86,0,0,1-1.61-1.38,2.14,2.14,0,0,1-1.2.31c-.64,0-2.42-1.16-3.5-1.58a7.82,7.82,0,0,0-3-.37c-1.11,0-2.85-.09-2.85-.09Z"/><path class="cls-2" d="M20.57,10.37h0a2.81,2.81,0,0,1-1.27.09c-.17,0-.28-.11-.28-.18a.19.19,0,0,1,0-.11h0a.16.16,0,0,0-.05.11.17.17,0,0,0,.07.14.76.76,0,0,0,.22.1,3.23,3.23,0,0,0,.91.06,2.75,2.75,0,0,0-.82.53l.83-.4a1.61,1.61,0,0,0-.6.45c-.12.23-.08.29-.08.29l.75-.56s-.39.36-.4.39h.05a2.65,2.65,0,0,0-.68.87c-.14.31-.21.63-.33.93a2.84,2.84,0,0,1-.69.8,13.2,13.2,0,0,1-1.91,1.39A12.26,12.26,0,0,1,14,16.35a12.77,12.77,0,0,1-2.66.5,9.88,9.88,0,0,1-2.72-.08,3.39,3.39,0,0,1-1.16-.41A.77.77,0,0,1,7,15.61,2.78,2.78,0,0,1,8.13,14a10.25,10.25,0,0,1,1.95-1.32.14.14,0,0,0,.09-.16.27.27,0,0,0-.3-.13h0a2.33,2.33,0,0,1-.47,0,4.38,4.38,0,0,1-.51,0,6.48,6.48,0,0,1-1-.23L7.42,12c-.16-.06-.3-.13-.45-.2a1.86,1.86,0,0,0-.59-.19,3.16,3.16,0,0,0-.62,0,1,1,0,0,1-.37-.05.39.39,0,0,1-.2-.2,1.41,1.41,0,0,1-.07-.69V9.85c0-.09,0-.2,0-.3h0a.34.34,0,0,0,.2,0c.14,0,.2-.14.15-.23h0a.42.42,0,0,1,0-.1h0l.15,0h0c.14,0,.22-.13.18-.22h0a.08.08,0,0,1,0-.05s0,0,0-.06v0s0,0,0,0l.5,0a.27.27,0,0,1,.06-.12.25.25,0,0,1,.08.1,1.42,1.42,0,0,1,.2.63,5.51,5.51,0,0,1,0,.71.3.3,0,0,0,.18.27,1,1,0,0,0,.31.11c.19,0,.37.06.55.08.35,0,.7.06,1.06.07H9.8l1,0a8.11,8.11,0,0,1,1,0,1,1,0,0,1,.39.12l.06,0a.46.46,0,0,1,.07.07.58.58,0,0,1,.11.15,3.09,3.09,0,0,1,.34.65,3.52,3.52,0,0,1,.26,1.38,2.9,2.9,0,0,1-.38,1.38,3.8,3.8,0,0,1-1.08,1.2l0,0a4.27,4.27,0,0,0,1.18-1.18,3,3,0,0,0,.47-1.41,3.56,3.56,0,0,0-.19-1.44,3.29,3.29,0,0,0-.17-.39l.65-.3.24.24a7.31,7.31,0,0,0,1.07.78l.57.3.53.24c.35.13.63.24.85.31l.33.09,0,0-.26-.17-.71-.43-1-.59a8.78,8.78,0,0,1-1.1-.68,2.05,2.05,0,0,1-.42-.41,3.47,3.47,0,0,1-.27-.46c-.15-.31-.3-.61-.41-.86l-.23-.52a.9.9,0,0,0,.34-.28.31.31,0,0,0,0-.1.19.19,0,0,0,0-.1A.29.29,0,0,0,13.15,8a1.27,1.27,0,0,0-.37-.25c-.24-.13-.46-.23-.63-.33l-.27-.17.17,0a4.19,4.19,0,0,1,.87.23,2.45,2.45,0,0,1,.9.6,1.71,1.71,0,0,1,.18.2l.2.24a4.87,4.87,0,0,0,.43.49,6.81,6.81,0,0,0,2.1,1.49c.34.16.64.28.85.36l.33.12,0,0-.32-.14c-.15-.07-.35-.16-.58-.29h.08l.21,0c.3,0,.59-.06.59-.06v0s-.29,0-.59-.06l-.21,0-.19,0-.11,0a8.14,8.14,0,0,1-1-.65,3.8,3.8,0,0,1-.37-.33.34.34,0,0,1,.14-.24L15.91,9,16,8.94h0l.19.07h.07s0-.05,0-.07h0c-.14-.1-.29-.25-.27-.37s0,0,.05-.07a.15.15,0,0,0,.07-.05.25.25,0,0,0,0-.08.57.57,0,0,0,0-.27c-.07-.18,0-.17.25-.19A1.11,1.11,0,0,0,17,7.62a.83.83,0,0,0,.22-.49,1.22,1.22,0,0,1,.1-.34A11.6,11.6,0,0,0,18.9,6.5c-.26.1-1,.4-1.1.42l1.11-.11-.82.35.74-.09-.6.22A6.51,6.51,0,0,0,20,7.12l-1.25.48.86-.09L19,7.94l.55-.19-.44.43L19.79,8,19,8.38h.87L19,8.62l1.24-.07s-.81.11-.94.38a2.17,2.17,0,0,1-.5.55l.56-.09-.78.27A2.25,2.25,0,0,0,19.7,9.6a1.62,1.62,0,0,1,.58-.07h0v0l.16,0a1,1,0,0,1,.32.17,1.14,1.14,0,0,1,.14.16c0,.06.07.11.06.17s-.16.23-.37.3M7.1,14.48h0c0-.13,0-.27.05-.42s0-.32,0-.49c0-.33.12-.67.17-.93l.08-.3a1.52,1.52,0,0,0,.28.09,6.52,6.52,0,0,0,1.1.25l.44,0a9.37,9.37,0,0,0-1.45,1.07,5.09,5.09,0,0,0-.67.73ZM4.92,9.05h0a.23.23,0,0,0,0,.11l-.12,0a.3.3,0,0,0-.18.13s0,.08,0,.09v.08a2.23,2.23,0,0,1,0,.37l0,.75c0,.13,0,.27,0,.41H4.32a.42.42,0,0,1-.3-.17s0,0,0-.07H4v0l0,0a1.42,1.42,0,0,1-.05-.16,1.88,1.88,0,0,1,0-.34c0-.12,0-.24,0-.38a.5.5,0,0,0,0-.23,1.78,1.78,0,0,0-.13-.18c-.13-.19-.22-.45,0-.57l.1-.05-.07,0c-.12-.09-.23-.24-.18-.33s0,0,.07-.06l.06,0h.13s0,0,0,0l.26,0a.42.42,0,0,1,.18,0h0l0,0a.34.34,0,0,0,.14,0,.41.41,0,0,0,.19-.06l.08-.06h.08s.07,0,.07,0,.05,0,.09.09.06.12.1.18l.14.25v0h0l-.13,0A.39.39,0,0,0,4.92,9.05Zm-.42-1Zm1.27.74Zm1.35,1.29h0c0-.11,0-.22,0-.34l.13,0c.23.06.54.14.82.24a2.84,2.84,0,0,1,.63.31l-1-.08C7.44,10.25,7,10.17,7.12,10.12Zm5.44-.1h0a2.18,2.18,0,0,1-.35-.4A1.92,1.92,0,0,1,12,9.23a.91.91,0,0,0,.28-.12.53.53,0,0,0,.2-.2.08.08,0,0,0,0,0,.57.57,0,0,0,.24,0c0,.14.08.31.14.51s.18.56.31.89c.05.11.08.22.14.34A3.07,3.07,0,0,1,12.56,10ZM23.7,6.65a5.94,5.94,0,0,0-2.62-.82,9.16,9.16,0,0,0-2.86.09,2.39,2.39,0,0,0-.66.26,1.3,1.3,0,0,0-.44.43c-.2.33-.09.69-.3.91a.77.77,0,0,1-.51.19.89.89,0,0,0-.39.1c-.13.12,0,.23,0,.3a.46.46,0,0,1,0,.21s0,0,0,.06a.22.22,0,0,0-.1.15.41.41,0,0,0,.17.31h-.06l0,0L15.81,9c-.08.08-.17.14-.26.23a.42.42,0,0,0-.13.22c-.16-.16-.3-.32-.44-.49s-.24-.32-.35-.48l-.17-.25a1.64,1.64,0,0,0-.2-.26,2.17,2.17,0,0,0-.54-.4l-.15-.07a.37.37,0,0,0,.07-.25.79.79,0,0,0-.3-.44l-.13-.12h0a1.84,1.84,0,0,0,0-.34,1.28,1.28,0,0,0-.06-.49A.58.58,0,0,0,13,5.49a2.9,2.9,0,0,0-.36-.25,11.16,11.16,0,0,0-1.86-.9c-.36-.14-.74-.28-1.14-.4A4.62,4.62,0,0,0,8.3,3.71a16.23,16.23,0,0,1-2.54-.14c-.41,0-.8-.11-1.17-.14s-.72-.06-1-.07c-1.31-.07-2.19,0-2.19,0v0s.85.17,2.15.29l1.06.08c.37,0,.77,0,1.18,0s.83,0,1.26,0,.86.07,1.3.11A2.3,2.3,0,0,1,8.87,4a5.27,5.27,0,0,1,.56.19c.37.13.73.28,1.07.43l1,.43c.31.14.61.27.87.4a3.27,3.27,0,0,1,.33.18.72.72,0,0,1,.19.2A2.07,2.07,0,0,1,13,6.3a2.23,2.23,0,0,1,.06.26l-.06,0-.44-.16c-.31-.08-.66-.15-1-.22L10.69,6l0-.07a2,2,0,0,1-.17-.26.45.45,0,0,1-.08-.27.13.13,0,0,1,.06-.08l0,0h-.05a.19.19,0,0,0-.12.07.55.55,0,0,0-.11.31v.18a9.15,9.15,0,0,0-.88-.27,5.58,5.58,0,0,0-.69-.13,4,4,0,0,1-.36-.21A1.69,1.69,0,0,1,8,5l-.11-.1a.67.67,0,0,0,0,.12,1.4,1.4,0,0,0,.14.27.05.05,0,0,0,0,0H8c-.45,0-.89,0-1.29-.07L5.51,5.16c-.8-.1-1.54-.2-2.17-.3L1.22,4.54l.55.15c.36.09.87.23,1.49.36s1.36.29,2.16.41c.4.06.81.13,1.25.16s.88,0,1.29.09a8,8,0,0,1,1.21.18c.39.09.74.21,1.15.32s.81.12,1.18.18a8.74,8.74,0,0,1,1,.16,2.83,2.83,0,0,1,.4.11,1.09,1.09,0,0,1,.15.08l.14.1c.18.13.32.25.35.37a.4.4,0,0,1,0,.22,2.28,2.28,0,0,0-.44-.15,3.26,3.26,0,0,0-.57-.1h-.45l-.29,0-.18-.13a1.3,1.3,0,0,0,.33.51,3.63,3.63,0,0,0,.55.43,1.14,1.14,0,0,1,.25.2l0,0,0,0,0,.06a.5.5,0,0,1-.19.17s-.09,0-.06,0h-.07l-.07,0c-.24-.08-.48-.18-.68-.26-.41-.16-.7-.25-.7-.25a4.34,4.34,0,0,0,.52.42,4.1,4.1,0,0,0,.65.36l.14.05.09,0h.07l-.27.07a2,2,0,0,1-.36,0h-.07l-.11,0-.16,0c-.26-.09-.54-.22-.76-.31l-.4-.14a1.09,1.09,0,0,0,.19.29,2,2,0,0,0,.74.47,1.42,1.42,0,0,0,.28.07l-.3.09-.15,0h-.15a1,1,0,0,1-.29,0,7.09,7.09,0,0,1-1.22-.43c-.8-.34-1.5-.77-2.35-1.13a3.73,3.73,0,0,0-.73-.22l-.75,0c-.48,0-1,0-1.44,0-.95,0-1.91,0-2.87,0,.47,0,1,.08,1.43.12s1,.07,1.42.1l1.43.1.69,0a3.09,3.09,0,0,1,.56.19c.39.17.77.37,1.15.57s.79.38,1.2.56a7.73,7.73,0,0,0,1.36.43,1.73,1.73,0,0,0,.41,0l.21,0,.2,0a1.68,1.68,0,0,0,.47-.21,3.3,3.3,0,0,0,.22.3,2.75,2.75,0,0,0,.43.4,3.43,3.43,0,0,0,.93.49l.07.13a1.09,1.09,0,0,0,.17.22,2,2,0,0,0-.65.29,2.54,2.54,0,0,0-.16-.28.88.88,0,0,0-.12-.17l-.07-.08a.44.44,0,0,0-.11-.09,1.42,1.42,0,0,0-.55-.18,6.6,6.6,0,0,0-1.08-.07H9.31a1,1,0,0,0-.26-.19,3.41,3.41,0,0,0-.87-.29c-.32-.07-.65-.11-.9-.14H7.13c0-.12,0-.23,0-.35a1.62,1.62,0,0,0-.23-.75.66.66,0,0,0-.18-.19.59.59,0,0,0-.17-.1.75.75,0,0,0-.29,0,.53.53,0,0,0-.34.17H5.66l-.1,0-.11.05,0,0V8.52a1.55,1.55,0,0,0,0-.21.31.31,0,0,0,0-.12.33.33,0,0,0-.15-.13A.76.76,0,0,0,5,8L4.8,8A.6.6,0,0,0,4.5,8l-.08.05H4.24A.75.75,0,0,0,4,8.16l-.07,0a.46.46,0,0,0-.24,0l-.09,0-.06.05a.19.19,0,0,0-.1.12.28.28,0,0,0,0,.25,1.34,1.34,0,0,0,.11.14.77.77,0,0,0-.18.1.69.69,0,0,0-.15.21.61.61,0,0,0,0,.44c0,.08.09.15.09.17a.53.53,0,0,1,0,.14,3.69,3.69,0,0,0,0,.37,1,1,0,0,0,.07.42.54.54,0,0,0,.1.2l0,0h0v0l0,0,.1.1a.91.91,0,0,0,.63.19,1.14,1.14,0,0,0,.29-.06,1.29,1.29,0,0,0,.08.28.77.77,0,0,0,.43.4,1.69,1.69,0,0,0,.69.11,3,3,0,0,1,.49,0,1.33,1.33,0,0,1,.39.14l.49.21.16.06-.17.29a6.18,6.18,0,0,0-.4.92,3.55,3.55,0,0,0-.14.51,1.4,1.4,0,0,0,.08.47.88.88,0,0,0,.21.3,1.85,1.85,0,0,0-.26.79,1,1,0,0,0,.6,1A4.1,4.1,0,0,0,8.56,17a10.4,10.4,0,0,0,2.84,0,14.86,14.86,0,0,0,2.7-.56,12.32,12.32,0,0,0,2.31-1.1A14.84,14.84,0,0,0,18.36,14l.41-.39a1.34,1.34,0,0,0,.32-.45c.14-.31.22-.63.38-.92a2.48,2.48,0,0,1,.67-.79,2.84,2.84,0,0,1,1.2-.27A9.93,9.93,0,0,0,22.75,11,3.14,3.14,0,0,0,24,10.39a2.31,2.31,0,0,0,.63-.91,3.15,3.15,0,0,0,.18-1A2.2,2.2,0,0,0,23.7,6.65Z"/><path class="cls-2" d="M17.78,7.82s-.4.11-.35.24-.39-.1-.35.12.7.37.7.37a1.2,1.2,0,0,0-.17-.41c-.12-.19.17-.32.17-.32"/><path class="cls-3" d="M11.6,15.67a8.09,8.09,0,0,1-3.71,1s-.47.48,1.86.61,2.43-.75,1.85-1.58"/><path class="cls-2" d="M11.62,15.66h0A1.06,1.06,0,0,1,12,16.74a.94.94,0,0,1-.21.28,1.15,1.15,0,0,1-.36.2,2.54,2.54,0,0,1-.82.16A7.79,7.79,0,0,1,9,17.28a4.69,4.69,0,0,1-.76-.19,1.09,1.09,0,0,1-.34-.17.2.2,0,0,1,0-.3v0h0a6.1,6.1,0,0,0,1-.13c.32-.06.63-.15.94-.22a13.4,13.4,0,0,0,1.79-.59h0Zm0,0a5,5,0,0,1-1.67.77,9.21,9.21,0,0,1-2,.22l.05,0c-.06.06,0,.15,0,.2a.91.91,0,0,0,.3.13A4.52,4.52,0,0,0,9,17.1a11.06,11.06,0,0,0,1.52,0c.48,0,1-.15,1.12-.45A1.12,1.12,0,0,0,11.59,15.69Z"/></svg>