<svg id="Capa_1" data-name="Capa 1" xmlns="http://www.w3.org/2000/svg" viewBox="0 0 30.06 18"><defs><style>.cls-1{fill:#f5a4c7;}.cls-2{fill:#fccdb5;}.cls-3{fill:#231f20;}</style></defs><title>2-3meses</title><path class="cls-1" d="M9.53,11.4A1.9,1.9,0,0,1,10,9.18a3.05,3.05,0,0,1,3.35-.57,9.8,9.8,0,0,0,1.79.87V13.9a5.26,5.26,0,0,1-2.45,0c-1.13-.34-3.16-2.5-3.16-2.5"/><path class="cls-2" d="M9.81,10s-.27.08-.28,0a2,2,0,0,1,0-.27s-1.36-.79-1.36-.81.08-.71-.26-.88S7.31,8,7,8s-1.47.16-2.44.16-.93-.16-1.29,0-.72.19-.71.42.63.38.87.4,1,0,1,0A12.92,12.92,0,0,1,6,10c.24.26.3.31.3.34a2,2,0,0,1,.14.39c0,.14-.14.07-.19,0s-.66-.32-.74-.25S4.28,12.1,4.22,12.17s-1,1.13-.71,1.34a2.51,2.51,0,0,0,.73.37c.26.1.47.4.75.46s.26.23.39,0a1.29,1.29,0,0,1,.4-.55,1.62,1.62,0,0,1,.31-.19,1.39,1.39,0,0,1,.62.23,4.34,4.34,0,0,0,2.73,1.41A2.58,2.58,0,0,0,12,14a3.61,3.61,0,0,0,.7-1.77c0-.25.07-1.51-.3-1.84a2.55,2.55,0,0,0-1.1-.64,4.75,4.75,0,0,0-1.23.1L9.81,10"/><path class="cls-2" d="M14.37,9.51s-.51,0-.64,1-.49,3.36,1,3.57a8.52,8.52,0,0,0,3.14-.27l1-.52,3.58.15,1.22.14s.92.53,1.08.42.08-.21.08-.21a1.49,1.49,0,0,1,.39-.17c.3-.1.16-.25.16-.25a.48.48,0,0,0,.37-.18c.11-.18.06-.21-.11-.3l-.5-.27s.92-.19.34-.36l-1.16-.36a7.53,7.53,0,0,1-2-.11c-.86-.21-1.54-.38-1.81-.43s-.21-.09-.21-.09l.41-.2.34-.09s2-.22,2.44-.18a11.09,11.09,0,0,0,2.43.29,4.1,4.1,0,0,0,.84-.21h.36s.33-.14.36-.42a.51.51,0,0,0-.33-.55c-.19,0-.31-.22-.54-.28a3,3,0,0,0-.74-.07l-1.28.17.11-.23s.3,0,.37-.09-.06-.29.47-.33.71.22.77,0-.35-.69-.07-.9,1.84-1.32,2-2S28.57,5,28.2,4.63s0-.39-.88-.38S20,5.35,20.43,6.38s-.49,1.16-.49,1.16.08.77-.32,1-.57.55-3,.77l-2.22.2"/><path class="cls-3" d="M28.15,5.78h0a2.56,2.56,0,0,1-.36.72,5.13,5.13,0,0,1-.56.69c-.11.11-.2.22-.32.33l-.35.3c-.13.1-.27.18-.41.3a.28.28,0,0,0-.12.26.64.64,0,0,0,.1.22.58.58,0,0,1,.15.34s0,.06-.09.08H26a2,2,0,0,0-.31,0,1.13,1.13,0,0,0-.32,0,.68.68,0,0,0-.26.16.28.28,0,0,0,0,.13.14.14,0,0,0,0,.06h0a.53.53,0,0,1-.21.06h-.29a5.61,5.61,0,0,1-.58,0l0,0a0,0,0,0,0,0,0l.59,0h.15a.85.85,0,0,1-.07.15.21.21,0,0,1-.19.09,3.31,3.31,0,0,1-.41,0H24l-.08,0-.09,0h0l0,0,0,.09a.21.21,0,0,1-.08.1,1.25,1.25,0,0,1-.43.07,2,2,0,0,1-1-.37c-.08,0-.16-.1-.26-.14l-.08,0h-.13a.69.69,0,0,0-.12.1,1.5,1.5,0,0,0-.28.41,2.79,2.79,0,0,0-.12.39.7.7,0,0,1-.2.27c-.13.11-.26.2-.37.28a1.62,1.62,0,0,0,.11-.28,2.65,2.65,0,0,0,0-.84h0a3,3,0,0,1-.16.82.92.92,0,0,1-.23.36.44.44,0,0,1-.18.12.2.2,0,0,1-.11,0H20c-.07,0-.13,0-.14.06s0,.1.1.11h0c.35.05.69.1,1,.17a7.93,7.93,0,0,1,1,.23,4.41,4.41,0,0,0,1.08.16,9.73,9.73,0,0,0,1.08,0,10.08,10.08,0,0,1,1.12.22,1.84,1.84,0,0,1,.25.09c.08,0,.15.09.13.14s-.11.1-.19.13l-.21.06-.41-.11-.38-.08h0s0,0,0,0a3.42,3.42,0,0,1,.35.12,4.71,4.71,0,0,1,.73.3.68.68,0,0,1,.25.2s0,0,0,.07a.29.29,0,0,1-.08.07l-.23.12a1.23,1.23,0,0,0-.33-.19,7.94,7.94,0,0,0-.81-.25L24,12.77h0s0,0,0,0l.36.12a6.79,6.79,0,0,1,.72.31.84.84,0,0,1,.26.2s0,0,0,.06a.19.19,0,0,1-.08.07,1.57,1.57,0,0,1-.29.15l-.17-.16a2.44,2.44,0,0,0-1-.41h0l0,0a2.13,2.13,0,0,1,.88.43.64.64,0,0,1,.14.15.13.13,0,0,1,0,.14s-.09,0-.17,0a.46.46,0,0,1-.22-.06,3,3,0,0,1-.42-.24,1.26,1.26,0,0,0-.59-.15,2.82,2.82,0,0,1-.52,0,1.91,1.91,0,0,1-.46-.15l-.09,0h0A27.33,27.33,0,0,1,18.31,13L17.83,13a.42.42,0,0,1-.23-.15.38.38,0,0,1-.09-.12.76.76,0,0,1-.06-.16,1.13,1.13,0,0,1-.06-.32,4.08,4.08,0,0,1,0-.7,5.88,5.88,0,0,1,.07-.71h0a0,0,0,0,0,0,0,3.48,3.48,0,0,0-.29.69,2.87,2.87,0,0,0-.14.72,1.67,1.67,0,0,0,0,.38.67.67,0,0,0,.05.19,1,1,0,0,0,.11.2.87.87,0,0,0,.52.32l.52.09.36,0a4.66,4.66,0,0,1-.56.22c-.36.1-.73.18-1.1.25a8.6,8.6,0,0,1-1.12.15,3.09,3.09,0,0,1-1.07-.12,1.21,1.21,0,0,1-.68-.51,2.14,2.14,0,0,1-.2-.75,7.68,7.68,0,0,1,0-1.59,3.37,3.37,0,0,1,.14-.77,1,1,0,0,1,.41-.62.37.37,0,0,1,.17,0l.29,0,.59,0c.39,0,.78-.06,1.17-.11A11.39,11.39,0,0,0,18.86,9a2.4,2.4,0,0,0,.93-.52A.77.77,0,0,0,20,8.13a.53.53,0,0,1,0,.33l.28-.85a4.36,4.36,0,0,1,.16,1l.26-.84.29.71,0-.5.28.31.15-.52s-.72-.19-.23-.94A.69.69,0,0,1,22.52,7c-.05.31.33.24.33.24s.1-.51.9-1a10,10,0,0,0,1-.6l-.89.73A5.18,5.18,0,0,0,25,6a1.65,1.65,0,0,1,.63-.28l-.47.4a2.85,2.85,0,0,0,.9-.22,6.05,6.05,0,0,1,.69-.34l-.31.35a1.13,1.13,0,0,0,.94-.35,2.48,2.48,0,0,0,.39-.76v.84a4.16,4.16,0,0,0,.37-.72l0,.13a.14.14,0,0,0,0,.06h0a.68.68,0,0,1,.07.31,1.15,1.15,0,0,1-.07.36M24,9.94Zm-10.18,4h0a.65.65,0,0,1-.24,0,.9.9,0,0,1-.23-.08,2.85,2.85,0,0,0-.41-.18,1.86,1.86,0,0,0-.37-.1l-.15,0a4.14,4.14,0,0,0,.37-.87,4.18,4.18,0,0,0,.19-.92,2.4,2.4,0,0,0-.13-.95,1.91,1.91,0,0,0-.66-.87,2.2,2.2,0,0,0-1.35-.4,3.51,3.51,0,0,0-.7.09l-.36.12-.12.07a.43.43,0,0,0-.07-.07l.12-.16a2.86,2.86,0,0,1,.3-.32A3.65,3.65,0,0,1,10.44,9,3.14,3.14,0,0,1,11,8.71a2.63,2.63,0,0,1,.3-.09l.31-.06a2.57,2.57,0,0,1,.62,0l.3,0,.29.06.54.16L13.8,9l.87.38H14.5a1.08,1.08,0,0,0-.38.08,1,1,0,0,0-.42.38,2.12,2.12,0,0,0-.19.41,4.09,4.09,0,0,0-.16.82,8.06,8.06,0,0,0,.07,1.63,2.08,2.08,0,0,0,.25.83,1.39,1.39,0,0,0,.36.37Zm-1.65-.41h0s0,0,0,0a.15.15,0,0,0,0,.06A2.62,2.62,0,0,1,10.73,15a2.49,2.49,0,0,1-1.22.19,3.57,3.57,0,0,1-1.19-.34,4.92,4.92,0,0,1-1-.59,11.7,11.7,0,0,1-1.6-1.43.3.3,0,0,0-.28,0c-.11,0-.15.13-.09.2h0l.42.56-.14.08-.25.22a.74.74,0,0,0-.16.27l0,.13a.25.25,0,0,1,0,.07c0,.05-.07.07-.08.08l0,0L5,14.27,5,14.17l-.06-.08.09,0,.2-.11.18-.13a.14.14,0,0,0,0-.23.37.37,0,0,0-.38,0H5l-.36.21-.18,0H4.29l0,0,0,0a.13.13,0,0,0,0-.09c0-.1-.13-.18-.28-.18H3.84a.43.43,0,0,1,0,0l.24-.59c0-.1.08-.18.13-.28l.14-.28a6.32,6.32,0,0,1,.33-.56l.17-.28.19-.26a1.67,1.67,0,0,1,.47-.45.42.42,0,0,1,.27,0,1.07,1.07,0,0,1,.33.13l.32.19a1.86,1.86,0,0,1,.25.22h0s0,0,.07,0a4.11,4.11,0,0,1,.92.29,2.89,2.89,0,0,1,.78.47h0s0,0,0,0a3,3,0,0,0-.73-.54,4.46,4.46,0,0,0-.89-.35,1.42,1.42,0,0,0-.25-.24.71.71,0,0,0-.14-.1v-.08a1.83,1.83,0,0,0-.09-.32,1.59,1.59,0,0,0-.32-.48,3.18,3.18,0,0,0-.72-.46c-.25-.15-.53-.32-.8-.5a1.28,1.28,0,0,0-.27-.17,1.1,1.1,0,0,0-.41-.07H3.25a.48.48,0,0,1-.37-.12l0,0s.08,0,.12,0H3l.07,0a.15.15,0,0,0,.07,0,.24.24,0,0,0,.09-.08l.08-.07a.62.62,0,0,1,.2-.1,2.27,2.27,0,0,1,.6,0,7.16,7.16,0,0,0,1.39,0l1.33-.1a2.42,2.42,0,0,1,1,0s.08.16.08.27,0,.25,0,.37a.53.53,0,0,0,0,.2.44.44,0,0,0,.09.13l.08.06.05,0,.06,0h0l0,0,.09,0,.17.08.56.3.29.16a1.62,1.62,0,0,0-.12.35,2.63,2.63,0,0,0-.47.67,3.85,3.85,0,0,0-.29.91,4.7,4.7,0,0,0-.1.91s0,0,0,0h0a5.87,5.87,0,0,1,.62-1.76,2.16,2.16,0,0,1,.64-.74c.07,0,.16-.08.23-.13l.24-.08a3.46,3.46,0,0,1,.61-.07,1.6,1.6,0,0,1,1,.32,2,2,0,0,1,.56.75,2.25,2.25,0,0,1,.14.86,4.41,4.41,0,0,1-.1.89A4.54,4.54,0,0,1,12.19,13.52ZM3,8.16ZM9.58,9.81h0l.06,0-.11.07,0,0ZM28.63,5a2.33,2.33,0,0,0-.27-.82,3.47,3.47,0,0,0-.6-.75A6.41,6.41,0,0,0,25.93,2.3a8.13,8.13,0,0,0-1.12-.36,6,6,0,0,0-1.25-.13,9.64,9.64,0,0,0-2.41.29,5,5,0,0,0-2,.95,2.14,2.14,0,0,0-.57.76,1,1,0,0,0-.07.2,2.09,2.09,0,0,0,0,.21,3,3,0,0,0-.05.42,3.25,3.25,0,0,0,.07.82,4,4,0,0,0,.27.8,5.19,5.19,0,0,0,1,1.49h0c.25.18.16.47-.07.66a2.33,2.33,0,0,1-.88.48,11.41,11.41,0,0,1-2.23.37c-.39,0-.77.06-1.16.07l-.58,0h0a2.9,2.9,0,0,0-.75-.6,3.57,3.57,0,0,0-.48-.25,4.22,4.22,0,0,0-.6-.2l-.36-.06a2.31,2.31,0,0,0-.37,0h-.39c-.13,0-.28,0-.39.06a2.9,2.9,0,0,0-.34.09,1.89,1.89,0,0,0-.33.13,2.91,2.91,0,0,0-.55.31,2.36,2.36,0,0,0-.4.36,2,2,0,0,0-.26.36.6.6,0,0,0-.06.11l-.19-.17a3.41,3.41,0,0,0-.5-.37L8.65,9,8.55,9l-.06,0,0,0h0l-.05,0s0,0,0,0v0a.59.59,0,0,1,0-.14c0-.12,0-.24,0-.37a.89.89,0,0,0,0-.22.43.43,0,0,0-.19-.25.76.76,0,0,0-.38-.12,2.16,2.16,0,0,0-.37,0c-.22,0-.43.06-.64.1a9.1,9.1,0,0,1-1.29.18,3.75,3.75,0,0,1-.67,0c-.22,0-.43-.07-.66-.11a2.45,2.45,0,0,0-.77,0A1.26,1.26,0,0,0,3,8.07l-.13.1a.82.82,0,0,0-.44.16.27.27,0,0,0-.09.23.4.4,0,0,0,.1.17.42.42,0,0,0,.14.12.57.57,0,0,0,.18.1,1.57,1.57,0,0,0,.4.08c.26,0,.48,0,.65,0a.54.54,0,0,1,.18,0l.17.1a6.71,6.71,0,0,0,.91.48,4.71,4.71,0,0,1,.72.37,1.77,1.77,0,0,1,.39.38,2.66,2.66,0,0,1,.17.27l-.07,0a1.43,1.43,0,0,0-.41-.19,1,1,0,0,0-.58.05A1.71,1.71,0,0,0,4.7,11a1.86,1.86,0,0,0-.22.27l-.2.28q-.19.29-.36.57l-.17.29a2.1,2.1,0,0,0-.15.3l-.26.58c0,.06,0,.1-.06.17v.06h0v0h0a.07.07,0,0,0,0,0,.28.28,0,0,0,.06.08.5.5,0,0,0,.22.09l.16,0a.28.28,0,0,0,.12.22.83.83,0,0,0,.16.09l.08,0,0,0h.23l.11.14.08.11a.51.51,0,0,0,.15.14.62.62,0,0,0,.26.11.72.72,0,0,0,.33,0,.59.59,0,0,0,.36-.27,1,1,0,0,0,.06-.16l0-.11A.33.33,0,0,1,5.83,14,1.29,1.29,0,0,1,6,13.8l.21-.12a11.06,11.06,0,0,0,.93.67,6,6,0,0,0,1.06.58,4.08,4.08,0,0,0,1.29.33A2.75,2.75,0,0,0,10.81,15a2.92,2.92,0,0,0,1-.64,3.45,3.45,0,0,0,.49-.61l.06.05a1.06,1.06,0,0,0,.41.17l.26,0h.28a1.22,1.22,0,0,1,.27,0,1.09,1.09,0,0,1,.24.07,1,1,0,0,0,.22.08h.22a1.45,1.45,0,0,0,.29-.06h0a3.42,3.42,0,0,0,1.23.1A7.15,7.15,0,0,0,17,14.06a9.78,9.78,0,0,0,1.09-.32,5.22,5.22,0,0,0,.63-.29c.54,0,1.08.05,1.62.06s1.37,0,2.05,0a2.05,2.05,0,0,0,.5.14,3.06,3.06,0,0,0,.6,0,1,1,0,0,1,.45.1c.14.07.29.16.46.23a1.41,1.41,0,0,0,.31.07c.1,0,.26,0,.32-.11a.18.18,0,0,0,0-.21h.09a.93.93,0,0,0,.3-.05.47.47,0,0,0,.19-.11.18.18,0,0,0,0-.22h0a1.35,1.35,0,0,0,.29-.05.67.67,0,0,0,.19-.12.17.17,0,0,0,0-.21.8.8,0,0,0-.39-.24l-.36-.13.19-.05c.09,0,.19-.06.23-.14s-.07-.15-.14-.19l-.26-.1a8.09,8.09,0,0,0-1.13-.26h0c-.35,0-.71,0-1.06,0a4.63,4.63,0,0,1-1-.17,8.48,8.48,0,0,0-1-.27l-.67-.12.1-.06.1,0c.1,0,.24-.09.38-.16h.75l1,0,.54,0a1.29,1.29,0,0,1,.48,0c.36.06.73.14,1.08.18a4.25,4.25,0,0,0,1,0,2.94,2.94,0,0,0,.67-.15l.18-.09.06,0a1.26,1.26,0,0,0,.44.05l.12-.05s.06-.07.06-.1a.31.31,0,0,0,0-.11l-.08-.12-.16-.2a.64.64,0,0,0-.23-.2.88.88,0,0,0-.29-.09,1.93,1.93,0,0,0-.45,0l-.16,0,.16,0a2.63,2.63,0,0,1,.37.1,1.18,1.18,0,0,1,.19.11.47.47,0,0,1,.13.15,2.39,2.39,0,0,0,.13.21v0l-.11,0-.3-.08a2.09,2.09,0,0,0-.64-.06c-.18,0-.32,0-.42.05l-.16,0s.24,0,.57.05a2,2,0,0,1,.52.12l.24.08-.19,0a3.51,3.51,0,0,1-.65.06l-.44,0-.48-.07-1.06-.21a1.84,1.84,0,0,0-.62,0l-.54.06c-.35,0-.67.07-.95.11l-.62.1.18-.12a.71.71,0,0,0,.28-.36c0-.16,0-.27,0-.41a.61.61,0,0,1,.18-.39l.09-.07s0,0,0,0h0l.05,0,.2.17a2.31,2.31,0,0,0,.45.34,1.43,1.43,0,0,0,.68.18,1.26,1.26,0,0,0,.67-.13.38.38,0,0,0,.17-.23v0a2,2,0,0,0,.42,0,.32.32,0,0,0,.27-.2h.34c.24,0,.56,0,.87,0l.44,0h.17l.18,0,.1,0a2.9,2.9,0,0,0-1,.12l.39.05.39,0c.13,0,.28,0,.4.06a.5.5,0,0,1,.16.05l.05,0,.06.05a.53.53,0,0,1,.06.1.23.23,0,0,1,0,.11.6.6,0,0,1,0,.19v.07a.54.54,0,0,0,.22-.24.4.4,0,0,0,0-.15.32.32,0,0,0-.06-.18.42.42,0,0,0-.06-.08.28.28,0,0,0-.11-.08.8.8,0,0,0-.26-.09l-.11,0a.59.59,0,0,0-.18-.17l-.18-.09a1,1,0,0,0-.25,0,2.1,2.1,0,0,0-.5,0,4.76,4.76,0,0,0-.89.14l-.28.1a.51.51,0,0,0,0-.16h.1a.58.58,0,0,0,.32-.09.08.08,0,0,0,0,0V9.32a.15.15,0,0,1,0-.07.35.35,0,0,1,.19-.1,1,1,0,0,1,.25,0l.26.05a1,1,0,0,0,.35,0c.13,0,.26-.12.27-.22a.69.69,0,0,0-.13-.43.52.52,0,0,1-.07-.16s0-.07.07-.11L26.81,8a4.86,4.86,0,0,0,.41-.31l.36-.33a6.85,6.85,0,0,0,.62-.71,3,3,0,0,0,.45-.78,1.32,1.32,0,0,0,.08-.44A.73.73,0,0,0,28.63,5Z"/><path class="cls-3" d="M24.19,8h.49s0,.22.27.13a.7.7,0,0,0,.36-.25s.21,0,.18.07.22-.06,0-.21a5,5,0,0,0-1.3.26"/><path class="cls-3" d="M23.84,7.36s2.24-.31,2.54-.05c0,0,.29-.65-2.54.05"/></svg>