<svg id="Capa_1" data-name="Capa 1" xmlns="http://www.w3.org/2000/svg" viewBox="0 0 32.31 23.04"><defs><style>.cls-1{fill:#f8992f;}.cls-2{fill:#ef3b3d;}.cls-3{fill:#f5a4c7;}.cls-4{fill:#fccdb5;}.cls-5{fill:#231f20;}</style></defs><title>3-3meses</title><path class="cls-1" d="M20.13,7s-1.59.16-2-.14a1.23,1.23,0,0,1-.52-1.56,1.89,1.89,0,0,1,1.88-.84A5.74,5.74,0,0,1,21.13,5s.42.68.19,1.13-.4.49-.4.49l.84,1.07s.86.64.86.8-.35.69-.63.62-1.06-.42-1.06-.42Z"/><path class="cls-2" d="M6.93,14.84A13.45,13.45,0,0,0,3.75,15s-1.66,2.46-2.16,3.09-2.23,1.29.52,1.46a56.94,56.94,0,0,0,10.4.31c4.59-.4,5.45-1.52,5.45-1.52Z"/><path class="cls-3" d="M22,18.35s-1.08,1.5-.45,1.89a10.21,10.21,0,0,0,4.45.28c1.18-.24,1.9-.5,2-.95a14.18,14.18,0,0,0-.15-2.36,21.93,21.93,0,0,0-3.19-1.6,3.87,3.87,0,0,0-1.14.37Z"/><path class="cls-4" d="M31.83,17.84V13.58a15,15,0,0,0-4-.83,2.5,2.5,0,0,0-2.49,1.31,4.75,4.75,0,0,0-.77,1.62l.46.06s-.31,2.36.51,2.68a2.92,2.92,0,0,0,1.93.31A2.21,2.21,0,0,0,29,17.82s.51-1,.51-1a3.53,3.53,0,0,0,1.18.74c.64.2,1.19.31,1.19.31"/><path class="cls-4" d="M22.72,20.24c-.57.06-.72-.68-3.15-1a9.23,9.23,0,0,1-3.73-1,2,2,0,0,1-.78-.83,18.7,18.7,0,0,0-1.91-.4,18.49,18.49,0,0,1-2.27-.65c-.16,0-3.29-2.2-3.29-2.76s2-2.27,2.79-2.21a6.18,6.18,0,0,1,2.39.73c.19.21,1.07.9,1.51.7s.59-.16.71,0a.83.83,0,0,1,.16.36s.35,0,.45.07a1.6,1.6,0,0,1,.14.5l-.07.2s.56-.32.68-.2a1.31,1.31,0,0,1,.27.5c0,.06.32.19.32.19l-.07.47-.11.35.64-.35s.14-.55.18-.69a7.75,7.75,0,0,1,.52-1.69c.26-.38.62-.64.48-1.11s-.49-.59-.62-.83,0-.48.15-.39.65.23.65.23,0-.36.1-.59.24-.78.35-.75.28.6.28.6l.05.21S20,9,20.17,9a.55.55,0,0,1,.41.29s0,.31,0,.31A.43.43,0,0,1,21,9.44a.49.49,0,0,1,.3.42,2.78,2.78,0,0,1-.42.8,10.42,10.42,0,0,0-.56,2.22,4.9,4.9,0,0,0,.42-.46s.37-.45.24-.7,0-.63-.05-1-.34-.78-.13-.86.58.37.63.51a.82.82,0,0,0,.26.27,8.17,8.17,0,0,1,.57-.79c.19-.21.49-.55.71-.43s.14.35.07.46a.76.76,0,0,0-.07.25s.46-.54.65-.43,0,.4-.1.63l-.18.34s.67-.42.74-.3-.05.33-.3.6,0,.19,0,.19,1-.26,1-.11-.55.59-.56.61-1.25.58-1.25.58a6.69,6.69,0,0,1-.3,1.7c-.22.49-.37.75-.37.75l-.2.3s.7.21,1.19.32,1.22.33,1.11.78a13.3,13.3,0,0,0-.83,2.69c.07.5-.4,1.4-.81,1.44"/><path class="cls-4" d="M22.59,7.55c-.18-.22-1.19.09-1.49.2s-.39.09-.42,0-.4-.49-.47-.63.58-.45.58-.45a8.77,8.77,0,0,1,1.38-.6c.37-.07,1,.27,1,.6s-.4.43-.79.68a3.15,3.15,0,0,0-.29.22c-.43.37.23.6.23.6L23.59,8s.29-.31,1.46.07a2.23,2.23,0,0,0,2.09-.54l4.68-1.27V3.5L26.1,5.77l-.86-.2-.93-.25a8.29,8.29,0,0,1-1.6-.51c-.35-.23-1.52.55-1.52.55s.24.27,0,.91-2.11.79-2.11.79a3.45,3.45,0,0,0,.45.58c.22.22.18.69.38.77s.28-.15.28-.15l.78.11s2.2-.07,1.6-.82"/><path class="cls-5" d="M25.31,18.43h0a1.31,1.31,0,0,0,.4.23,1.9,1.9,0,0,0,.48.14,4.1,4.1,0,0,0,1,0,8,8,0,0,0,.83-.15,1.14,1.14,0,0,1-.65,1.3l-.22.08-.26.08-.54.1a10.94,10.94,0,0,1-1.15.14c-.38,0-.77.06-1.16.07a11.22,11.22,0,0,1-1.16,0l-.56-.05a2.05,2.05,0,0,1-.5-.14.89.89,0,0,1-.35-.27.32.32,0,0,1,0-.3,2.55,2.55,0,0,1,.33.17c.11.06.19.15.3.22a.92.92,0,0,0,.45.16,1.1,1.1,0,0,0,.87-.34,1.62,1.62,0,0,0,.37-.59,2.73,2.73,0,0,0,.09-.61c0-.17.06-.36.1-.54a17.72,17.72,0,0,0,.48-2,1.06,1.06,0,0,0,0-.26s0-.06-.05-.11l0,0h.25c.14,0,.26.06.29.13a.68.68,0,0,1,0,.28l-.06.32a4.76,4.76,0,0,0-.07.66,2,2,0,0,0,0,.34,2.05,2.05,0,0,0,.07.34,2.6,2.6,0,0,0,.16.34,1.63,1.63,0,0,0,.29.3m-8.69.64h0a7,7,0,0,1-.69.2,7.18,7.18,0,0,1-.7.16l-.72.13c-.49.06-1,.14-1.46.17s-1,.07-1.49.09-1,0-1.49,0-1,0-1.5,0l-1.5,0-1.51-.05-1.5-.07c-.5,0-1-.07-1.5-.1a9.4,9.4,0,0,1-1.46-.18c-.22-.06-.37-.18-.35-.31a.85.85,0,0,1,.34-.38l.27-.16.16-.11.12-.11a4.32,4.32,0,0,0,.42-.44c.25-.31.48-.62.7-.93.44-.61.83-1.24,1.2-1.87l1.09-.29c-.08.84.14,1.24.38,1.44l0,0H5.29a6.25,6.25,0,0,0-.69.09l-.25.05.26,0,.68,0,1,.08,1.07.12c.36,0,.72.1,1.06.15l.93.16.78.14-.72.23a13.12,13.12,0,0,0-1.42.65,3.66,3.66,0,0,0-.58.36s.3-.06.73-.19,1-.31,1.52-.51l.77-.3.35-.12.32-.09a1.38,1.38,0,0,1,.5,0l.06,0a5.77,5.77,0,0,0-1.54.93,3.87,3.87,0,0,0-.58.61l.79-.47c.24-.13.52-.29.82-.44s.32-.15.48-.22a4.5,4.5,0,0,1,.51-.2l.25-.08.28-.06a3,3,0,0,1,.53,0,5,5,0,0,1,1,.09,7.57,7.57,0,0,1,.82.2.35.35,0,0,0,.05.08,2.35,2.35,0,0,0,.55.54,4.13,4.13,0,0,0,1,.51l.6.17Zm-5-1.86h0l0,0h.09ZM23,9.52Zm-2.18.12h0l-.06,0,0-.05.06-.06.06-.05s0,0,0,0H21a.74.74,0,0,1,.22.14l-.08,0A.69.69,0,0,0,20.81,9.64Zm-.28,2.68h0a3.43,3.43,0,0,1,.06-.34c0-.11.05-.21.08-.29s0,0,0,0a1.21,1.21,0,0,0,.21.24c-.14.15-.27.31-.4.46C20.52,12.39,20.52,12.36,20.53,12.32ZM20.32,9.2h0s0,0,0,0ZM31,14.46a3.92,3.92,0,0,0-1.61-.89l-.26-.07-.29,0a2.53,2.53,0,0,0-.55,0,4.35,4.35,0,0,0-1.05.19,6.48,6.48,0,0,0-.88.39,2.62,2.62,0,0,0-.37.24,2,2,0,0,0-.31.26,3.13,3.13,0,0,0-.4.54,3,3,0,0,0-.25.59.74.74,0,0,0-.32-.07l.11-.17c.12-.17.26-.43.43-.73s.18-.31.26-.48.16-.36.26-.55a1.38,1.38,0,0,1,.45-.52,1,1,0,0,1,.17-.1.87.87,0,0,1,.19-.05L27,13a6.32,6.32,0,0,1,1.75,0l.8.15.72.15,1.1.22c.26.06.42.08.42.08l0,0-.36-.17a9.5,9.5,0,0,0-1-.39,9,9,0,0,0-1.58-.37,7.55,7.55,0,0,0-1,0,4.28,4.28,0,0,0-1,.16l-.45.11a1.49,1.49,0,0,0-.42.2,7.31,7.31,0,0,0-.57.51,3.43,3.43,0,0,0-.44.53,3.33,3.33,0,0,0-.25.5,3.29,3.29,0,0,0-.25,1,2.3,2.3,0,0,0-.26,0l0,0a1.54,1.54,0,0,0-.51-.26,6.1,6.1,0,0,0-.9-.22l-.58-.07.11-.17a3,3,0,0,0,.18-.36,5,5,0,0,0,.25-.74,8.46,8.46,0,0,0,.23-1.41,11.7,11.7,0,0,0,1.31-.84l.16-.12.16-.16a.23.23,0,0,0,.05-.1c0-.05,0-.14-.09-.18a.59.59,0,0,0-.34,0,3,3,0,0,0-.45.09L24,11a1.07,1.07,0,0,0,.18-.19.4.4,0,0,0,.12-.23.15.15,0,0,0,0-.08l0,0s0,0,0,0a.36.36,0,0,0-.23,0,1.44,1.44,0,0,0-.3.12l-.08.06c0-.05.07-.09.09-.13a1.11,1.11,0,0,0,.2-.52.2.2,0,0,0,0-.07.25.25,0,0,0,0-.09l0,0h0l0,0h0a.32.32,0,0,0-.14,0,.73.73,0,0,0-.34.13.65.65,0,0,0,0-.21.26.26,0,0,0,0-.12.25.25,0,0,0,0-.07.29.29,0,0,0-.14-.08h0s-.08,0-.05,0h0l-.12,0-.15.08a2.88,2.88,0,0,0-.36.31c-.2.21-.37.43-.55.64,0-.06-.05-.12-.08-.17a2.36,2.36,0,0,0-.25-.36l-.07-.06a.53.53,0,0,0-.22-.37L21,9.32a.42.42,0,0,0-.27,0l-.09,0a.38.38,0,0,0,0-.15.54.54,0,0,0,0-.12A.15.15,0,0,0,20.57,9l0,0a.38.38,0,0,0-.33-.06.34.34,0,0,0-.16.08,1.84,1.84,0,0,0-.14.14c-.06.1-.12.19-.17.29s-.1.18-.15.27c0-.1,0-.21,0-.32a.69.69,0,0,0-.08-.32.3.3,0,0,0-.07-.1.47.47,0,0,0-.15-.08l-.1,0a.34.34,0,0,0-.29.11.26.26,0,0,0-.07.1.71.71,0,0,0-.07.16,1.1,1.1,0,0,0,0,.16,1.63,1.63,0,0,0,0,.31,2.08,2.08,0,0,0,.09.6h0c.08-.19.15-.39.21-.58l.09-.28.05-.14a.54.54,0,0,1,.07.13,2.25,2.25,0,0,1,.19.57h0s0,0,0,.05a.12.12,0,0,0,.11,0A1.8,1.8,0,0,1,20,9.51a2.5,2.5,0,0,1,.23-.23h0a.15.15,0,0,1,0,.07,2.76,2.76,0,0,1-.08.27l-.24.53h0c0,.1,0,.2.16.23a.32.32,0,0,0,.35-.11l.09-.15a.4.4,0,0,0,0,.11,1.85,1.85,0,0,0,.13.38c0,.07,0,.17,0,.3a1.09,1.09,0,0,0,0,.42.88.88,0,0,0,.05.15l-.15.11a1.25,1.25,0,0,0-.26.3,1.63,1.63,0,0,0-.09.19,1.46,1.46,0,0,0-.05.2,1.18,1.18,0,0,0,.12.71,2.49,2.49,0,0,0-.24.56,5.16,5.16,0,0,0-.12.92,1.06,1.06,0,0,1-.09.4,1.12,1.12,0,0,1-.29.34,5,5,0,0,1-.95.55c-.36.18-.72.34-1.07.53a3.86,3.86,0,0,0-1,.63.77.77,0,0,0-.27.88h.05a.48.48,0,0,1,0-.42,1.24,1.24,0,0,1,.32-.37,4.48,4.48,0,0,1,1-.56L18.65,16a5.76,5.76,0,0,0,1.07-.57,1.7,1.7,0,0,0,.39-.42,1.21,1.21,0,0,0,.15-.48,4.9,4.9,0,0,1,.15-.88,4.31,4.31,0,0,1,1.05-1.55.15.15,0,0,0,0-.23h0a1.29,1.29,0,0,1-.25-.27.71.71,0,0,1-.14-.29.75.75,0,0,1,0-.32c0-.06,0-.12,0-.19a.5.5,0,0,0,0-.24,2.23,2.23,0,0,1-.13-.34A.33.33,0,0,1,21,10l0,0a1.66,1.66,0,0,1,.22.3,1.17,1.17,0,0,1,.15.34.34.34,0,0,0,.1.11.22.22,0,0,0,.13,0h.16s.19-.1.18-.12l.15-.17c.17-.22.33-.44.51-.64a1.24,1.24,0,0,1,.28-.28l0,0s0,0,0,0a1.88,1.88,0,0,1-.21.69h0s0,.09.07.11a.15.15,0,0,0,.16,0,2.42,2.42,0,0,1,.36-.43.57.57,0,0,1,.23-.12h0l0,0s0,0,0,.08a1.22,1.22,0,0,1-.17.47,3.37,3.37,0,0,1-.31.46s0,.05,0,.07a.09.09,0,0,0,.1,0,2.78,2.78,0,0,1,.43-.31A.78.78,0,0,1,24,10.5h.06s0,0,0,0v0s0,0,0,0a.53.53,0,0,1-.1.17,1.49,1.49,0,0,1-.18.17,4.73,4.73,0,0,1-.43.31.07.07,0,0,0,0,.08.16.16,0,0,0,.15.05h0a4.36,4.36,0,0,1,.86-.17h.05l-.13.1a.91.91,0,0,1-.16.11c-.43.29-.93.55-1.4.82a.13.13,0,0,0-.08.11h0a14.56,14.56,0,0,1-.23,1.45,6.2,6.2,0,0,1-.21.7,3.54,3.54,0,0,1-.16.34,1.06,1.06,0,0,1-.22.29,2.36,2.36,0,0,0-.31.32,1.77,1.77,0,0,0-.24.34,5.93,5.93,0,0,0-.36.71,8.61,8.61,0,0,0-.44,1.45h.05a13.64,13.64,0,0,1,.64-1.4,6.71,6.71,0,0,1,.4-.68,2.34,2.34,0,0,1,.25-.3,3,3,0,0,1,.31-.29.8.8,0,0,0,.13-.13l.57.16a5.86,5.86,0,0,1,.79.28,1.23,1.23,0,0,1,.36.22l0,.05s0,.06,0,.09a.82.82,0,0,1,0,.18c-.07.28-.18.6-.28.93a8.52,8.52,0,0,0-.28,1.08,5.4,5.4,0,0,0-.08.58,2.06,2.06,0,0,1,0,.56,1.26,1.26,0,0,1-.24.51.68.68,0,0,1-.53.29c-.22,0-.4-.16-.64-.29a3.76,3.76,0,0,0-.77-.31c-.53-.15-1.08-.27-1.6-.39L18,18.72a10.78,10.78,0,0,1-1.29-.3,4.71,4.71,0,0,1-1-.41,3.21,3.21,0,0,1-.59-.44,1.49,1.49,0,0,1-.29-.35.65.65,0,0,1-.08-.13h-.05a.85.85,0,0,0,.13.37,4.39,4.39,0,0,0-.66-.3,2.89,2.89,0,0,0-.49-.13,1.86,1.86,0,0,0-.34-.06l-.53-.22h.79A2.46,2.46,0,0,1,12.56,16c-.19.41-.81.26-1.44,0s-.5-1,.61-.61,1.34,0,1.34,0-.47.26-.62-.12-1.13-.38-1.13-.38a4,4,0,0,1,1,.1,1.2,1.2,0,0,0-.56-.31,2.94,2.94,0,0,0-.88,0l.88-.42-1.15.06,1.06-.56-1.46.09.8-.29-.57-.16.78-.26H9.74L11,12.48l-.91.13.91-.37-1.83.1,1.36-.76a5.38,5.38,0,0,1,.7.12,5.7,5.7,0,0,1,.92.26,4,4,0,0,1,.81.39,6.24,6.24,0,0,0,.71.52.88.88,0,0,0,.26.08.71.71,0,0,0,.3,0,1.23,1.23,0,0,1,.42-.16c.14,0,.25.06.26.15a.65.65,0,0,0,0,.18.29.29,0,0,0,.27.18h0c.1,0,.25,0,.25,0v0a.15.15,0,0,1,0,.06.24.24,0,0,1,0,.12.51.51,0,0,1,0,.13l0,.07,0,.05-.11.27a.11.11,0,0,0,0,.11.24.24,0,0,0,.26,0h0A2.37,2.37,0,0,1,16,14l.16-.05h0a.49.49,0,0,1,0,.12.29.29,0,0,1,0,.13v.14a.1.1,0,0,0,0,.09.31.31,0,0,0,.3.07h.09a.34.34,0,0,1,0,.11.77.77,0,0,1,0,.15,2.36,2.36,0,0,1-.2.62h0s0,.12.08.15a.25.25,0,0,0,.27,0l.09-.08.12-.08a1.73,1.73,0,0,1,.27-.15,5.17,5.17,0,0,1,.63-.21l.7-.13.72-.07v0a6.06,6.06,0,0,0-.74,0,4.88,4.88,0,0,0-.76.07l-.28.06a.35.35,0,0,0,.06-.09,1.88,1.88,0,0,0,.32-.75,3.71,3.71,0,0,1,0-.48A3.64,3.64,0,0,1,18,13a2,2,0,0,1,.3-.56,5.93,5.93,0,0,0,.43-.56.86.86,0,0,0,.14-.68,2,2,0,0,0-.47-.58l-.2-.18h.05l.14,0,.07,0a.23.23,0,0,0,.11,0,1.44,1.44,0,0,0,.35,0c.18,0,.27,0,.33,0a.4.4,0,0,1,.11.18l0,.07h.05l0-.08a.32.32,0,0,0,0-.23c0-.13-.3-.21-.49-.22l-.23,0s-.06,0,0,0l-.07,0-.14-.07a3.58,3.58,0,0,0-.36-.13.69.69,0,0,0-.27,0h-.11l-.15.05,0,0h0l0,0h0l0,0,0,.08s0,0,0,.05a.71.71,0,0,0,.11.2l.13.12.27.23a2.43,2.43,0,0,1,.46.43.89.89,0,0,1,0,.54,1.71,1.71,0,0,1-.29.57l-.42.54a1.79,1.79,0,0,0-.31.55,1.63,1.63,0,0,0-.05.52,4.13,4.13,0,0,1-.08.72c0,.07,0,.13,0,.18L17,15l-.1,0a.84.84,0,0,0,.07-.24.55.55,0,0,0,0-.17.35.35,0,0,0,0-.22.39.39,0,0,0-.3-.22h-.05V14s0-.11,0-.16a.4.4,0,0,0-.07-.12.34.34,0,0,0-.2-.12h-.2l-.14,0-.23.06s0,0,0,0v-.07a2.26,2.26,0,0,0,0-.3l0-.08a.21.21,0,0,0-.08-.11.46.46,0,0,0-.29-.06.69.69,0,0,0-.2,0,.15.15,0,0,1-.07-.06,1.57,1.57,0,0,1,0-.16.43.43,0,0,0-.47-.24,1.33,1.33,0,0,0-.47.17.42.42,0,0,1-.39,0,4.49,4.49,0,0,1-.67-.52,4.5,4.5,0,0,0-.81-.46,6.38,6.38,0,0,0-.93-.34,6.94,6.94,0,0,0-1-.19l-.54,0H9.25l-.54.07-.52.12-.49.17a3.88,3.88,0,0,0-.46.22,2.37,2.37,0,0,0-.39.24l-.19.12,0,0-.05,0,0,0a3.3,3.3,0,0,0-1.42,2.08c0,.16,0,.3-.07.43L3.82,15l-.07,0h0L2.36,16.87l-.69.91-.36.44-.1.1-.09.08-.28.2a.84.84,0,0,0-.35.52.36.36,0,0,0,.17.3,1.22,1.22,0,0,0,.36.14,13.34,13.34,0,0,0,1.52.17c.5,0,1,.08,1.49.14l1.5.15c1,.09,2,.16,3,.19.51,0,1,0,1.53,0s1,0,1.52,0l.76-.05.76-.09c.5-.05,1-.15,1.49-.23.25-.05.48-.12.73-.18a4.37,4.37,0,0,0,.7-.22,6.54,6.54,0,0,0,1.2-.54,7,7,0,0,0,.69.14c.48.08,1,.14,1.54.22a9.74,9.74,0,0,1,1.61.31l.3.11a.39.39,0,0,0-.09.37.77.77,0,0,0,.36.38,1.87,1.87,0,0,0,.56.22,4.34,4.34,0,0,0,.61.11,12.54,12.54,0,0,0,2.45,0c.4,0,.8-.1,1.2-.17l.59-.14a2.52,2.52,0,0,0,.57-.23,1.33,1.33,0,0,0,.42-.35,1.12,1.12,0,0,0,.2-.43,1.57,1.57,0,0,0-.07-.83,1.09,1.09,0,0,0,.24-.07,1.93,1.93,0,0,0,.43-.22c.07,0,.12-.09.18-.13s.11-.1.15-.15a1.91,1.91,0,0,0,.24-.34,1.42,1.42,0,0,0,.11-.35,1.46,1.46,0,0,0,0-.36,1.29,1.29,0,0,0,.19.21,1.31,1.31,0,0,0,.32.25,2.86,2.86,0,0,0,.83.32,3.58,3.58,0,0,0,.93.09v0l-.78-.31c-.13,0-.25-.1-.37-.15l-.36-.16L30,17a1.32,1.32,0,0,1-.32-.2l-.12-.12,0,0a2.07,2.07,0,0,0-.13-.4v0h0a.13.13,0,0,0-.15,0c-.07,0-.1.06-.07.1h0a1.15,1.15,0,0,1,0,.32,3.06,3.06,0,0,1-.05.32,2.25,2.25,0,0,1-.2.62,1.91,1.91,0,0,1-.15.28l-.1.14a1.27,1.27,0,0,1-.11.13l-.13.13-.15.12a1.25,1.25,0,0,1-.22.16,3.33,3.33,0,0,1-1.77.11,1,1,0,0,1-.37-.15,1.27,1.27,0,0,1-.29-.21,1.16,1.16,0,0,1-.18-.27,1.62,1.62,0,0,1-.11-.28,4.1,4.1,0,0,1-.09-1.27v-.33a1,1,0,0,0,0-.17v0c.12-.19.27-.43.47-.71a5.28,5.28,0,0,1,.39-.5,3.29,3.29,0,0,1,.48-.52,2.22,2.22,0,0,1,.76-.43,3.39,3.39,0,0,1,.48-.1,2.67,2.67,0,0,1,.49,0,2,2,0,0,1,.5.07l.21,0,.22.07a4.15,4.15,0,0,1,.76.38l.31.22.29.23.49.46c.29.29.51.54.67.72l.24.29h0A3.24,3.24,0,0,0,31.44,15,4.06,4.06,0,0,0,31,14.46Z"/><path class="cls-5" d="M22.08,4.91a.77.77,0,0,1,.36,0,.59.59,0,0,1,.14.06l.05,0,0,0s0,0,0,0l.06,0h0c.58.15,1.13.26,1.69.38l1.65.39h.07l1.5-.49,1.45-.53c.48-.19.94-.39,1.4-.6s.91-.44,1.34-.68l0,0c-.52.13-1,.29-1.52.45s-1,.34-1.46.54-.94.39-1.4.6-.88.43-1.33.63c-.55-.11-1.08-.25-1.61-.39l-.79-.25A6.55,6.55,0,0,1,23,4.81l-.07,0L22.8,4.7a1.45,1.45,0,0,0-.3-.06,1.15,1.15,0,0,0-.55.12,2,2,0,0,0-.62.51l0,0a2.55,2.55,0,0,1,.71-.38"/><path class="cls-5" d="M17.62,5.78h0A1.1,1.1,0,0,1,18,5.14a1.72,1.72,0,0,1,.74-.4,2.59,2.59,0,0,1,.88-.09,3.56,3.56,0,0,1,.75.15,1.5,1.5,0,0,1,.86.64.64.64,0,0,1,.08.25v.18a.68.68,0,0,1-.08.26,1.17,1.17,0,0,1-.4.41h0l0,0a3,3,0,0,1-.4.2,3.48,3.48,0,0,1-.77.17L19.4,7h-.24a2.59,2.59,0,0,1-.47,0,1.62,1.62,0,0,1-.82-.43.84.84,0,0,1-.25-.7m4.61.6h0a.7.7,0,0,1,.47.08.44.44,0,0,1,.15.3,4.35,4.35,0,0,1-.59.4,5.43,5.43,0,0,1-.64.31c-.17-.27-.34-.53-.53-.79A4.18,4.18,0,0,1,22.23,6.38ZM21.09,7.66h0l-.28.13a.45.45,0,0,0,0-.11.76.76,0,0,0-.17-.23,2,2,0,0,0-.4-.3A1.76,1.76,0,0,0,20.6,7a1.52,1.52,0,0,0,.28-.19c.21.23.44.46.68.69l0,0Zm-.88.25h0a1.19,1.19,0,0,1-.12.22L20,8.3s0,0,0,0a.31.31,0,0,1-.06-.13,1.35,1.35,0,0,1,0-.28.6.6,0,0,0-.07-.27.92.92,0,0,0-.17-.22l-.17-.14h.25a2.7,2.7,0,0,0,.41-.06s0,0,0,.06l.12.33a1.59,1.59,0,0,1,.07.2S20.25,7.85,20.21,7.91Zm1.49.43h0l.59-.09a.44.44,0,0,1,0,.26.56.56,0,0,1-.09.21l-.11.1-.09,0L22,8.9h0s0,0,0,0h0a.42.42,0,0,1-.25,0,.27.27,0,0,1-.17-.14s-.05-.12-.09-.16a1.5,1.5,0,0,0-.11-.13l-.12-.1ZM18.58,7.08A3,3,0,0,0,19,7.2v0a1.45,1.45,0,0,0,.17.32,1.86,1.86,0,0,0,.14.2c0,.06.13.12.21.2a.43.43,0,0,1,.14.24c0,.05,0,.09,0,.15a.25.25,0,0,0,.25.16.79.79,0,0,0,.44-.16l0,0a1.32,1.32,0,0,0,.26.05h.12a.36.36,0,0,0,.05.23A.61.61,0,0,0,21,8.8a1,1,0,0,0,.26.13l.3.1a2.44,2.44,0,0,0,.34.08h.19l.2,0a.92.92,0,0,0,.33-.16.44.44,0,0,0,.15-.25.33.33,0,0,0,0-.22.5.5,0,0,0-.25-.23l.14,0,.94-.14L24.05,8l.35-.06.26.13a2.23,2.23,0,0,0,1.3.22,1.57,1.57,0,0,0,.45-.13L26.75,8a3.3,3.3,0,0,0,.32-.18l.16-.1a.83.83,0,0,0,.12-.08c.8-.22,1.6-.46,2.4-.71.41-.12.81-.26,1.22-.39s.8-.27,1.2-.42l0,0-1.28.28c-.43.1-.86.19-1.28.3-.84.2-1.69.41-2.52.64l-.13.09-.09.06-.13.08-.29.16-.31.16a1.22,1.22,0,0,1-.27.09,1.7,1.7,0,0,1-.63,0l-.33-.11-.29-.13h0a.27.27,0,0,0-.2,0l-.43.1-.46.1-.91.2c-.3.06-.61.13-.92.18s-.43.06-.64.07l-.1-.06h-.05l0,.05h-.11a.78.78,0,0,1-.19,0l0,0,.19-.19V8l.09,0a7.24,7.24,0,0,1,.85-.25,5.73,5.73,0,0,0,.88-.33l.38-.23a2.78,2.78,0,0,0,.34-.26h0a.13.13,0,0,0,0-.1A.74.74,0,0,0,23,6.26a.94.94,0,0,0-.43-.16,1.55,1.55,0,0,0-.43,0,3.32,3.32,0,0,0-.94.26,1.28,1.28,0,0,0,.09-.22,1.32,1.32,0,0,0,0-.72A1.31,1.31,0,0,0,21.13,5a1.7,1.7,0,0,0-.52-.45,2.48,2.48,0,0,0-1-.28,2.91,2.91,0,0,0-1.12.13,2.12,2.12,0,0,0-.91.55,1.06,1.06,0,0,0-.28.82A1.83,1.83,0,0,0,18.58,7.08Z"/><path class="cls-5" d="M12.37,12.23c-1.14.16.32,1.89.32,1.89s-.16-.42-.4-1.14,0-.73.08-.75"/><path class="cls-5" d="M12.37,12.23h0"/><path class="cls-5" d="M13.49,13.17c-.08-.22-.6-.2-.6-.2s.2-.13.2-.13h-.4c-.56.37.4,1,.4,1a.81.81,0,0,0-.13-.32c-.13-.23,0-.35,0-.35s.63.23.55,0"/></svg>