<svg id="Capa_1" data-name="Capa 1" xmlns="http://www.w3.org/2000/svg" viewBox="0 0 30.78 22.32"><defs><style>.cls-1{fill:#f05050;}.cls-2{fill:#ffd82c;}.cls-3{fill:#b3d335;}.cls-4{fill:#f5a4c7;}.cls-5{fill:#fccdb5;}.cls-6{fill:#231f20;}</style></defs><title>4-3meses</title><path class="cls-1" d="M11.2,20a7.5,7.5,0,0,1,2.58-3.17A82.94,82.94,0,0,1,22,13.86a11.48,11.48,0,0,1,3,.59,28.45,28.45,0,0,1,2.51,2.38,1.42,1.42,0,0,0,.79.8c.62.26,1.2.55.95.77a34.39,34.39,0,0,1-4.32,1.13c-1,.22-5.93.34-7.08.44a19,19,0,0,1-6.65,0"/><path class="cls-2" d="M11.29,6.49a1.49,1.49,0,0,1,1.26-.1,2.74,2.74,0,0,1,1.16.91v.62l-.34.91Z"/><path class="cls-3" d="M8.6,7.92l2-.56L11.34,6a7.92,7.92,0,0,1,1.78,2.18,1.74,1.74,0,0,1,0,1.18L11.5,8.8l-1.45.41L5.67,10.86s-.53.19-.8,0-1-.93-.64-1.22S8.6,7.92,8.6,7.92"/><path class="cls-4" d="M12.9,18.86s-.19.51-1.4.95-3.72.61-4.53,0-.92-1.75,0-2.08,6,1.18,6,1.18"/><path class="cls-5" d="M5.7,14.18s.35-.54.21-.73a.48.48,0,0,0-.48-.21.52.52,0,0,0-.24.07l-.45.19H4.2c-.08,0-.34.11-.34.34A14.45,14.45,0,0,1,4,15.61c-.05.38.57,1.17,1.13,1.11s.69-.39.91-.4,1-.1,1-.1a1.78,1.78,0,0,0-.44,1.17A3.94,3.94,0,0,0,8.4,19.67a2.44,2.44,0,0,0,2.37-1.1c.37-.75.22-.18.22-.18a3.81,3.81,0,0,0,1.74.71A5.31,5.31,0,0,0,15,18.68s2.81-.87,3.26-1.58l.45-.72,1-.33a2,2,0,0,0,.84,0c.61-.09.7,0,.7,0s1.11.29,1.45-.09-.18-.64-.18-.64.82-.54.93-.66a1.85,1.85,0,0,0,.4-1.77c-.33-.84-.54-1.34-1.21-1.51a2.59,2.59,0,0,0-1.48-.22,4.65,4.65,0,0,0-1.66.57s.06-.25-.55-.24-1,.2-1,.45a2.33,2.33,0,0,1-.32.77l-.44.72a14.42,14.42,0,0,1-.09-1.59c0-.45.06-1.08-.39-1.24s-1.07-.26-1.08-.13a.31.31,0,0,1-.31.28c-.17,0-.4-.28-.59,0a.75.75,0,0,0-.11.58s0,0,.25.33a1.09,1.09,0,0,1,.07,1.2,4.39,4.39,0,0,0-.48,1.48c.11,0,0,.41,0,.41l-1.68.09h-.17s0-1-.52-1.2a5.92,5.92,0,0,0-1.83-.43c-.19.05-.9.4-.9.4a2.94,2.94,0,0,0-1.19-.23,17.22,17.22,0,0,0-2.17,1.29s-.24.06-.22-.46"/><path class="cls-5" d="M2.29,3.66l5.16,3.4a19.55,19.55,0,0,0,2.39,1.8c.58.26,1,.67.93,1S9.62,11,9.62,11s.27.47-.06.53a7.38,7.38,0,0,1-1.08,0L8,11.66l-.9,0s0,.31-.43.15a6.27,6.27,0,0,1-1-.59s-.26-.22,0-.33.73-.21.73-.21l0-.63a1.63,1.63,0,0,1-1.33-.54C4.35,8.81,4.35,8.29,4,8a16.81,16.81,0,0,0-2-.9V3.39Z"/><path class="cls-6" d="M22.66,14.45c.68-1.22-1.08-1-1.08-1,1.21,0,1.08,1,1.08,1"/><path class="cls-6" d="M20.63,12.84s.82-.93-1-.88c0,0,1.21.15,1,.88"/><path class="cls-6" d="M21.62,14.33a.49.49,0,0,0,.42-.05,1.29,1.29,0,0,1-.05.14c0,.09-.39,0-.39,0l.51.2s.26-.45-.09-.67a1.59,1.59,0,0,0-.88-.16l.46.14c-.25.06-.25.32,0,.39"/><path class="cls-6" d="M19.49,12.47a.58.58,0,0,1,.21,0s-.31.11-.21.27.34.33.52.15a.17.17,0,0,1,.17.24s.36-.49-.18-.7a1.08,1.08,0,0,0-.78-.11l.15.39s0-.25.12-.26"/><path class="cls-6" d="M20.24,14.06c0,.15.21.21.2.1s-.16-.26-.2-.1"/><path class="cls-6" d="M20,13.86c-.19.09,0,.12.13.12s-.13-.12-.13-.12"/><path class="cls-6" d="M23.12,14.63l.1-.09c-.13.11-.21.17-.1.09"/><path class="cls-6" d="M19.22,14.36c.21.33,0,.18,0,.18a.21.21,0,0,0,.36,0c.19-.23-.48-.56-.68-.53s.1.4.1.4,0-.39.22-.05"/><path class="cls-6" d="M19,14.79s-.48-.41-.53-.25.25.45.53.25"/><path class="cls-6" d="M4.84,9.37h0L5,9.53l.27.21.33.17a1.78,1.78,0,0,0,.37.14.79.79,0,0,0,.22.06.57.57,0,0,0,0,.18,1.45,1.45,0,0,0,0,.29v0l-.12,0-.45.08-.26,0H5.14a1.42,1.42,0,0,1-.51-.24.78.78,0,0,1-.23-.21A.33.33,0,0,1,4.35,10a.62.62,0,0,1,0-.1l0,0v0h0a1.1,1.1,0,0,1,.11-.14l.24-.26.07-.08M10.33,9h0c-.24-.2-.56-.38-.83-.56a4.6,4.6,0,0,1-.62-.55c.66-.08,1.3-.18,1.94-.31l.11,0,0-.08a4.9,4.9,0,0,0,.25-.7l.14-.6a2.7,2.7,0,0,1,.33.22,2.9,2.9,0,0,1,.91,1.18l.09.22a1.31,1.31,0,0,1,.08.21,4.43,4.43,0,0,1,.15.43A2.26,2.26,0,0,1,13,8.9a.52.52,0,0,1,0,.18h0c-.47-.13-1-.25-1.43-.36l-.08,0h0c-.36.11-.71.22-1.05.35Zm2-2.49h0l.32.15c.11,0,.2.12.31.18a2,2,0,0,1,.27.22,1.21,1.21,0,0,1,.2.26,1.62,1.62,0,0,1,.11.28c0,.1,0,.2,0,.3l0,.28c0,.09,0,.18-.07.26l0,0,0-.11a3.53,3.53,0,0,0-.46-.88,6,6,0,0,0-.72-.8l-.43-.37Zm-8.16,2a5.85,5.85,0,0,0,.38.49,1.7,1.7,0,0,0,.22.24,1.47,1.47,0,0,0-.58.22.5.5,0,0,0-.2.25v.08a.31.31,0,0,0,0,.08.64.64,0,0,0,.08.14,3,3,0,0,1,.18.25c0,.09.08.18.13.27a.66.66,0,0,0,.2.28,1.07,1.07,0,0,0,.4.21,1.56,1.56,0,0,0,.48,0h0a.1.1,0,0,0,0,.07.63.63,0,0,0,.19.23,2.24,2.24,0,0,0,.64.36,2.69,2.69,0,0,0,.45.11.34.34,0,0,0,.14,0H7a.3.3,0,0,0,.22-.15v0l.53.05.31,0h.13l.14-.05a.54.54,0,0,0,.13-.14l0-.08a4,4,0,0,0,.46,0h.35l.2,0a.6.6,0,0,0,.21-.11A.39.39,0,0,0,9.88,11l0-.18c.08,0,.16-.1.27-.17s.29-.21.46-.35a1.24,1.24,0,0,0,.25-.26.48.48,0,0,0,.05-.37,1.4,1.4,0,0,0-.46-.59l1-.16c.51.19,1,.36,1.55.52l.11,0,.09,0a.58.58,0,0,0,.19-.1l.07-.09a.47.47,0,0,0,.06-.15.84.84,0,0,0,0-.27.24.24,0,0,0,0-.08,1.07,1.07,0,0,0,.22-.25,1.78,1.78,0,0,0,.17-.27A1.33,1.33,0,0,0,14,8a1,1,0,0,0,0-.35,1.16,1.16,0,0,0-.13-.37,1.23,1.23,0,0,0-.27-.34,2.4,2.4,0,0,0-.37-.25,3.26,3.26,0,0,0-.81-.28,3.68,3.68,0,0,0-.74-.08L11.34,6l-.11-.08-.07.12-.35.68a5.5,5.5,0,0,0-.25.63c-.59.15-1.17.31-1.73.51a.34.34,0,0,1-.06-.06,4.42,4.42,0,0,0-.9-.65c-.34-.19-.68-.37-1-.57A10.57,10.57,0,0,1,6,6l-.81-.58c-.27-.18-.53-.34-.77-.48-.47-.3-.89-.54-1.18-.71L2.77,4l0,0,.39.31c.25.19.62.46,1.08.77.23.16.47.33.75.5l.89.51c.32.18.64.36,1,.56s.64.39.94.6a5.18,5.18,0,0,1,.77.68,3.77,3.77,0,0,0,.72.72c.29.22.58.38.82.56a1.55,1.55,0,0,1,.52.55c.09.18,0,.34-.17.49s-.28.27-.39.38l-.17.15v0a3.87,3.87,0,0,0-.38-1,4,4,0,0,0-.28-.44s0,.19.08.47.15.65.23,1c0,.09,0,.18,0,.26a.34.34,0,0,1,0,.19l0,0,0,0-.14,0-.3.05-.41,0a1.6,1.6,0,0,0,.1-.42,3.23,3.23,0,0,0-.06-1,3.41,3.41,0,0,0-.13-.45s0,.19-.07.46-.06.63-.1,1a1.53,1.53,0,0,1-.1.49l-.05.07H8.11l-.31,0-.51.05c0-.09.07-.17.11-.25a2.59,2.59,0,0,1,.14-.29,1.31,1.31,0,0,0,.12-.28,1.23,1.23,0,0,0,0-.25A1.16,1.16,0,0,0,7.63,10h0a2.13,2.13,0,0,0-.2.5c0,.08,0,.16-.05.25a2.61,2.61,0,0,0,0,.28.69.69,0,0,1-.25.56s-.1.06-.12,0H6.91l-.08,0a2,2,0,0,1-.34-.12l-.6-.3c-.08,0-.17-.1-.19-.1s0,0,0,0V11l.13,0a1.64,1.64,0,0,0,.39-.25l0,0c0,.14.09.27.14.41h0a3.27,3.27,0,0,1,0-.54,2,2,0,0,1,0-.26.34.34,0,0,1,.12-.21h0l.12-.21-.26,0a1.42,1.42,0,0,1-.35,0,1.9,1.9,0,0,1-.36-.09,2,2,0,0,1-.6-.34A1.44,1.44,0,0,1,4.73,9l-.26-.52A3.4,3.4,0,0,0,4.15,8a1,1,0,0,0-.31-.23,1.65,1.65,0,0,0-.36-.16C3,7.41,2.51,7.25,2,7.13l0,0c.42.24.88.43,1.32.63a1.65,1.65,0,0,1,.53.32A3.33,3.33,0,0,1,4.17,8.57Z"/><path class="cls-6" d="M18,17.58h0l.24-.21.19-.21c.08-.1.14-.19.2-.28l2.55,1.34-2.36-1.68h0a1.52,1.52,0,0,0,.32-.11l4.81.84-4.47-1.11,0-.06a2.3,2.3,0,0,0,.45,0,6,6,0,0,0,1.28-.08l.1.06a.58.58,0,0,0,.17.06,1.57,1.57,0,0,0,.37,0l.36,0,.34-.06a1,1,0,0,0,.36-.14.27.27,0,0,0,.12-.14l1.84.08L23,15.55l-.12-.12-.07,0,.1-.06.15-.06a2.9,2.9,0,0,0,1.37-1,3.76,3.76,0,0,1,.54.34,13.46,13.46,0,0,1,1.74,1.63c.15.17.31.37.44.55a1.3,1.3,0,0,1,.1.15l.1.17a1.65,1.65,0,0,0,.31.34,8.49,8.49,0,0,0,.8.53,1,1,0,0,1,.28.26l0,0-.11.09a4.17,4.17,0,0,1-.92.39c-.35.11-.72.21-1.09.3-.75.19-1.53.35-2.32.48-.4.06-.79.11-1.19.14l-1.22.06c-.8,0-1.6,0-2.37,0s-1.52,0-2.22.05-1.39.12-2,.17a23,23,0,0,1-2.94,0l-.76,0a.91.91,0,0,1,.14-.07,4.64,4.64,0,0,0,.46-.3l.31-.23a.74.74,0,0,1,.12-.09,1.34,1.34,0,0,0,.4,0l.37-.07a18.74,18.74,0,0,0,2.72-.72,7.09,7.09,0,0,0,1.25-.56l.06,0,.59,1.15-.13-1.31ZM10.21,20h0q-.39.08-.81.12c-.27,0-.56.06-.84.07A1.8,1.8,0,0,1,7.75,20a1.42,1.42,0,0,1-.56-.4,3.24,3.24,0,0,1-.34-.47,3.18,3.18,0,0,1-.25-.43.8.8,0,0,1-.07-.64.72.72,0,0,1,.1-.18,2.34,2.34,0,0,0,.26.72,2.79,2.79,0,0,0,.89,1l.37.21a1.8,1.8,0,0,0,.52.15,2,2,0,0,0,1-.19,2.82,2.82,0,0,0,1.25-1.09c.05-.08.09-.17.13-.25A6,6,0,0,0,12,19a2.45,2.45,0,0,0,.52.2l-.07,0a4,4,0,0,0-.4.17l-.5.21A8.14,8.14,0,0,1,10.21,20ZM6.73,16.16H6.44a3.29,3.29,0,0,0-.72.08,1.11,1.11,0,0,0-.36.18.71.71,0,0,0-.12.13v0h0l0,0s0,0,0,0a.34.34,0,0,1-.27,0,.68.68,0,0,1-.31-.14A.58.58,0,0,1,4.35,16a3,3,0,0,1,.09-.55,1.83,1.83,0,0,0,0-.57,2.35,2.35,0,0,0-.16-.49,1.38,1.38,0,0,1,0-.2,1.64,1.64,0,0,0,0-.23l0-.15a.19.19,0,0,1,.1.05l.07.07a.28.28,0,0,0,.11.05l.12,0h.09a.27.27,0,0,0,0-.14.2.2,0,0,0-.07-.11l-.06,0a.43.43,0,0,0-.07-.17l.11,0a.21.21,0,0,1,.1.06,1,1,0,0,1,.08.11l.12.09a.86.86,0,0,0,.18.08h0a.31.31,0,0,0,0-.16.37.37,0,0,0-.07-.14.69.69,0,0,0-.21-.13h0l.08,0a.48.48,0,0,1,.15,0s0,0,.07.05a.73.73,0,0,1,0,.12.44.44,0,0,0,.09.11,1.13,1.13,0,0,0,.16.11h0a.34.34,0,0,0,.08-.15.31.31,0,0,0,0-.16l-.08-.08a.38.38,0,0,1,.17.06l0,0a.36.36,0,0,1,.12.09.18.18,0,0,1,0,.17.38.38,0,0,1-.1.17.79.79,0,0,0-.26.35.29.29,0,0,0,0,.24.87.87,0,0,0,.12.14l.18.16-.11.11,0,0,.14-.08,0,0h.05a.42.42,0,0,0,.07-.1s0,0,0,0l.37-.23L7.17,14a2.51,2.51,0,0,1,1.08-.38,2,2,0,0,1,1.29.2,5.5,5.5,0,0,1,1,1,2.82,2.82,0,0,1,.57,2.54,3.68,3.68,0,0,1-.55,1.25,2.59,2.59,0,0,1-1.12.91,1.35,1.35,0,0,1-.69.13l-.27-.09a2.11,2.11,0,0,1-.3-.16,2.91,2.91,0,0,1-.84-.84,2.83,2.83,0,0,1-.38-.85A2.67,2.67,0,0,1,6.84,17a2.52,2.52,0,0,1,0-.46,1.05,1.05,0,0,0,0-.13l.18-.06a.71.71,0,0,0,.31-.27.5.5,0,0,0,.09-.27H7.43a1.19,1.19,0,0,1-.22.2,1.05,1.05,0,0,1-.3.15ZM4.16,13.67h0s0,0,0,0h.1l.05,0a.46.46,0,0,0-.2,0Zm5.9-.24h0a3.56,3.56,0,0,1,.73,0l.19,0h0s0,0,0,0l.1,0,.16,0,.16.07A1.85,1.85,0,0,1,12,14a3.19,3.19,0,0,1,.32.46l.11.22-.38.07a3.42,3.42,0,0,0-.58.16,1.89,1.89,0,0,0-.51.22,4,4,0,0,0-.2-.42,4.42,4.42,0,0,0-.39-.57l-.23-.27a3.71,3.71,0,0,0-.28-.26,1.71,1.71,0,0,0-.23-.13ZM12.82,15h0l.68-.07.59-.07.24,0,0,.07a2.26,2.26,0,0,0,.23.31c.09.09.17.19.27.28s.4.35.61.52a14,14,0,0,0,1.4.9l0,0c-.44-.32-.86-.64-1.25-1a4.39,4.39,0,0,1-.93-1.09.84.84,0,0,1-.1-.29.8.8,0,0,1,0-.29c.06-.2.13-.41.21-.62.16-.42.34-.84.54-1.24a.14.14,0,0,0,0-.15l0,0,0,0,0-.05a.61.61,0,0,1-.05-.12.67.67,0,0,1,0-.24c0-.09,0-.2,0-.31a.92.92,0,0,0,0-.16v-.08a.93.93,0,0,0,0-.1.26.26,0,0,0-.25-.14H14.8c0-.06.07-.12.11-.13s0,0,.11,0a1,1,0,0,0,.55,0,.46.46,0,0,0,.23-.17l0-.08h.08l.3.08a2.53,2.53,0,0,0,.4.1h.07l0,0a.49.49,0,0,1,.08.21,3.46,3.46,0,0,1,.07.48l0,1a8.36,8.36,0,0,0,.12,1,2.23,2.23,0,0,0,.37,1c.27.3.65.5.89.78a1,1,0,0,1,.29.89,2,2,0,0,1-.51.86l-.21.2-.22.17c-.16.11-.33.22-.51.32a7.83,7.83,0,0,1-1.17.53,22.68,22.68,0,0,1-2.61.78l-.33.08a1,1,0,0,1-.29,0,2.74,2.74,0,0,1-.62-.18,8,8,0,0,1-1-.51,3.36,3.36,0,0,0,.26-1.06,4.15,4.15,0,0,0-.1-1.36,4,4,0,0,0-.3-.86l.59,0Zm3.9-4.2Zm2.22,5.43h0l-.1.07a.5.5,0,0,0,0-.12.88.88,0,0,0,0-.28A.52.52,0,0,0,19,16a1.54,1.54,0,0,0,.3.11l.1,0H19.3l-.06,0ZM17.69,13h0c.17-.18.36-.36.54-.53l0,0v-.05c0-.11.06-.24.09-.36a.89.89,0,0,1,.16-.34l0,0,.05,0,.1,0a.59.59,0,0,1,.23,0,.38.38,0,0,1,.29.13,4.3,4.3,0,0,1-.22.57,6.88,6.88,0,0,1,.9-.6,1.44,1.44,0,0,1,.49-.17l-.55.35,1.33-.4-.42.18.63-.11-.21.24,1.12-.13-.61.43.83-.27-.48.41.84-.27-.59.52.52-.17-.24.49.52-.4-.42.87.36-.26,0,.33.57-.58-.4.92.36-.3-.21.46.49-.32a6.51,6.51,0,0,1-.65,1.11l.49-.4h0c-.14.13-.56.52-.85.77l0,0-.5.31-.2.13.22.11a.77.77,0,0,1,.33.26s0,.06,0,.09a.62.62,0,0,1-.2.1l-.29.07-.29,0a1.37,1.37,0,0,1-.29,0l-.13,0-.1-.05-.06,0-.05,0a6,6,0,0,1-1.28.14,4.48,4.48,0,0,1-.64-.07l-.3-.09-.18-.08c0-.06,0-.12-.05-.18a1.66,1.66,0,0,0-.34-.46c-.28-.28-.68-.5-.92-.76a2.1,2.1,0,0,1-.31-.93A5.86,5.86,0,0,1,17.69,13ZM29.25,18.1l0,0a2.16,2.16,0,0,0-.38-.36c-.29-.19-.58-.33-.78-.49a1.22,1.22,0,0,1-.25-.26l-.1-.15-.11-.16a7.62,7.62,0,0,0-.53-.58,11.42,11.42,0,0,0-2-1.56,4.49,4.49,0,0,0-.64-.31,1.81,1.81,0,0,0,.2-.52,2.33,2.33,0,0,0-.92-2.28,4.05,4.05,0,0,0-2.83-.5,4.57,4.57,0,0,0-1.6.63l0,0a.71.71,0,0,0-.32-.1,1,1,0,0,0-.34,0,.76.76,0,0,0-.16.06l-.13.07a1,1,0,0,0-.38.38.87.87,0,0,0-.1.39,3.21,3.21,0,0,0-.43.56,2,2,0,0,0-.17.32s0,.08,0,.13a7.31,7.31,0,0,1,0-.81c0-.33,0-.65.06-1a2.2,2.2,0,0,0,0-.51,1,1,0,0,0-.09-.27.37.37,0,0,0-.15-.16s-.19-.07-.18-.07h-.1c-.1,0-.39-.15-.63-.19a1.32,1.32,0,0,0-.26,0,.5.5,0,0,0-.33.13l-.11.14-.14,0a.89.89,0,0,0-.58,0,.69.69,0,0,0-.4.57.76.76,0,0,0,0,.3l0,.08.06.09,0,0h0l0,0h0l.07,0a.32.32,0,0,0,.13.05h0a1,1,0,0,0,.06.32.65.65,0,0,0,.09.16l.06.09h0a9.05,9.05,0,0,0-.45,1.19q-.11.33-.18.66a1.37,1.37,0,0,0,0,.36c0,.05,0,.09,0,.14l-.18,0a3.87,3.87,0,0,0-.62,0l-.71,0-.14,0a.72.72,0,0,0,0-.25,1.37,1.37,0,0,0-.2-.55,1.72,1.72,0,0,0-.61-.54l-.23-.1-.27-.06-.11,0h-.37a3.19,3.19,0,0,0-.82.11,2.83,2.83,0,0,0-.49.2,2.81,2.81,0,0,0-1.34-.09,3,3,0,0,0-.71.2,1.41,1.41,0,0,0-.28.15,1.52,1.52,0,0,0-.23.16,8.8,8.8,0,0,0-.7.54l-.2.17s0,0,0-.06l0-.14a.37.37,0,0,1,0-.09,1.25,1.25,0,0,1,0-.15.5.5,0,0,0,0-.21.49.49,0,0,1,.06-.38.21.21,0,0,0,0-.23.46.46,0,0,0-.28-.16.64.64,0,0,0-.42.06l-.09.06-.08,0a.39.39,0,0,0-.19,0,.46.46,0,0,0-.18.11.28.28,0,0,1-.06.08.69.69,0,0,0-.2,0,.33.33,0,0,0-.17.08.34.34,0,0,0-.16,0,.42.42,0,0,0-.34.09c-.15.16-.12.3-.15.44a1.49,1.49,0,0,1,0,.21.62.62,0,0,0,0,.27c0,.18.11.34.16.5a1.71,1.71,0,0,1,.1.5l0,.27a1.16,1.16,0,0,0,.07.31,1.36,1.36,0,0,0,.42.52,1.56,1.56,0,0,0,.34.18.84.84,0,0,0,.48,0l.13-.06,0,0s0,0,0,0h0a.41.41,0,0,1,.11-.07,1.49,1.49,0,0,1,.25-.07,3.54,3.54,0,0,1,.58-.07l.3,0,.07,0,0,.11a1.9,1.9,0,0,0-.15.46,2.38,2.38,0,0,0,0,.73.59.59,0,0,0,0,.13.92.92,0,0,0-.29.2.77.77,0,0,0-.15.79,1.69,1.69,0,0,0,.27.48,2.59,2.59,0,0,0,.52.45,6.6,6.6,0,0,0,.7.37,2.92,2.92,0,0,0,.87.22,7,7,0,0,0,1.78,0,5,5,0,0,0,1.2-.3l.87.13c.36.05.79.08,1.3.11a13.73,13.73,0,0,0,1.7,0c.64-.05,1.27-.12,2-.16l2.2-.17c.76-.05,1.55-.09,2.36-.12s1.63,0,2.45-.11a23.48,23.48,0,0,0,2.42-.37c.39-.09.77-.18,1.14-.3A4.35,4.35,0,0,0,29,18.61a.6.6,0,0,0,.24-.21.25.25,0,0,0,.05-.19A.54.54,0,0,0,29.25,18.1Z"/></svg>