<svg id="Capa_1" data-name="Capa 1" xmlns="http://www.w3.org/2000/svg" viewBox="0 0 33.48 18.78"><defs><style>.cls-1{fill:#f05050;}.cls-2{fill:#ffd82c;}.cls-3{fill:#f5a4c7;}.cls-4{fill:#fbc9b5;}.cls-5{fill:#fccdb5;}.cls-6{fill:#231f20;}</style></defs><title>5-3meses</title><path class="cls-1" d="M14.2,11A32.57,32.57,0,0,0,11,12.05c-.9.43-3.71,2.51-2.56,2.73s1.65,0,1.92.27a3.37,3.37,0,0,0,1.23.41,37,37,0,0,0,8.73,1.11c3.92-.13,6.53-.58,6.81-.84s.21-1.24.21-1.24l-1.53-2.7Z"/><path class="cls-2" d="M8.67,7s.93-.64.74-1.12,0-1.22.43-1.23a2.4,2.4,0,0,1,1.41.4A1.75,1.75,0,0,0,12.52,6.1s.43.17.3.32a8.67,8.67,0,0,1-2.92.86c-1,0-1.23-.32-1.23-.32"/><path class="cls-3" d="M20.67,13.26s0,.54,1.43.89a3.65,3.65,0,0,0,3.07-.38c.27-.36,0-3,0-3s-.93-1-1-1.18a4.92,4.92,0,0,0-1.28-.13Z"/><path class="cls-4" d="M.9,5.65A12.85,12.85,0,0,0,2.52,5C2.79,4.7,3.75,3.68,4.23,3.3s2.21-.43,3.19-.66a13.28,13.28,0,0,1,3.17-.42,2.63,2.63,0,0,1-1.26.91,12.46,12.46,0,0,0-2.46.58c-.63.31-.8.61-.53.88s.67.24,1.26.15a1.93,1.93,0,0,1,1.31.13c.21.19.4.28.26.4a4.87,4.87,0,0,1-1,.25,9.46,9.46,0,0,1-2.05.54,6.94,6.94,0,0,1-1.6-.13S2.15,7.41.9,8.13Z"/><path class="cls-5" d="M23.78,10.89s-.85,0-1,.17a2.27,2.27,0,0,0-.57,1.41,1.53,1.53,0,0,0,1.46,1.34,4.19,4.19,0,0,0,1.77-.4S26,13,26,13a1,1,0,0,1,.47.49c.13.33.52.58.52.71s.13.61.31.67.13.06,1,.08a5,5,0,0,0,2.39-.48c.13-.23.52-.35.53-.57s-.07-.41-.17-.42a9.87,9.87,0,0,1-1.25.2c-.44,0-.8-.08-.94-.38,0,0-.26,0,.37-.21s1.45-.28,1.58-.46a.9.9,0,0,1,.56-.25c.17,0,.43-.22.32-.36a.39.39,0,0,0-.32-.16s-.68.25-.71.25S30.26,12,30,12a1.78,1.78,0,0,1-.56-.18A9.72,9.72,0,0,1,28,10.32a1.41,1.41,0,0,0-1.11-.87,20.77,20.77,0,0,0-2.5.3l.29.73,0,.22Z"/><path class="cls-5" d="M17.64,9.53a6.5,6.5,0,0,0-.52-1c-.19-.24-.43-.33-.49-.57s.07-.55-.32-.62a.79.79,0,0,0-.68.23l-.35-.16a6.38,6.38,0,0,0-2.59-.21c-.75.27-1,.62-1,.7s-.24.57-.21.69-.56,1,.25,1.49,1.21.73,1.21.73-.39,0-.31.32a.44.44,0,0,0,.54.32c.22,0,.13.14.37,0a1.46,1.46,0,0,1,.47-.09,2.68,2.68,0,0,1,.37.25,15.64,15.64,0,0,1,1.31,1.43c.28.46.82,1.09,1.22.88s1.33-.58,1.38-.61l.61-.31a1.79,1.79,0,0,1,1,0,1.94,1.94,0,0,0,1,.18.69.69,0,0,0,.33-.43,11.36,11.36,0,0,1,1.15-2.37,6,6,0,0,0,1-1,2.35,2.35,0,0,0-1.06-.26L21,9.2h-.65a6.93,6.93,0,0,1-.63-1c-.22-.47-.29-.95-.42-1.23s-.29-.66-.38-.68-.22-.23-.47-.38a1.07,1.07,0,0,0-.59-.09,1.61,1.61,0,0,0-.39-.09c-.06,0-.55.34-.55.46s0,.36,0,.5-.07.34.1.44.81.59.89,1,.14,1,.14,1V9.6a1.4,1.4,0,0,1-.38-.07"/><path class="cls-6" d="M4.48,5.93.9,8v.31A23,23,0,0,0,4.48,5.93"/><path class="cls-6" d="M8.86,4.71h0a1.78,1.78,0,0,0-.75-.11c-.25,0-.47,0-.69.06a2.57,2.57,0,0,1-.61,0,.54.54,0,0,1-.21-.05.26.26,0,0,1-.1-.07l0,0h0l0,0c-.16-.21.18-.49.54-.68a5.94,5.94,0,0,1,1.29-.47h.05a.41.41,0,0,0,.11.12,1.52,1.52,0,0,0,.34.22,1.72,1.72,0,0,1,.61.46,1.4,1.4,0,0,1,.17.28.53.53,0,0,1,.06.14v0a.7.7,0,0,0-.25.18A.59.59,0,0,0,9.23,5l-.08-.09a1.19,1.19,0,0,0-.29-.18M9,2.51H9c.47-.11.95-.18,1.4-.32v0a.31.31,0,0,1-.05.1,1.24,1.24,0,0,1-.18.22,2,2,0,0,1-.54.35A2.45,2.45,0,0,1,9,3.1l-.3,0L8.53,3a1.51,1.51,0,0,1-.21-.23.46.46,0,0,1-.07-.14ZM9.56,4.1h0l0,0a3.45,3.45,0,0,1-.28-.26A3.45,3.45,0,0,1,9,3.53a2.85,2.85,0,0,0-.23-.26l0,0,.23,0A3.26,3.26,0,0,0,9.69,3a2.87,2.87,0,0,0-.14.8A1.63,1.63,0,0,0,9.56,4.1Zm.25.78h0a.26.26,0,0,0,.22-.1h.1l.22,0a1.79,1.79,0,0,1,.39.13,1.81,1.81,0,0,1,.61.49c.09.09.17.19.28.29s.23.17.35.25.43.25.65.36a5.7,5.7,0,0,1-.75.34A7.35,7.35,0,0,1,11,7l-.48.1a4,4,0,0,1-.49,0,4,4,0,0,1-.49,0l-.24,0H9.16L9,7.05,9,7,9.15,7A7.37,7.37,0,0,1,10,6.74a.45.45,0,0,0,.43.16c.36,0,.57-.21.51-.37l1.21-.22v0c-.37,0-.73,0-1.09.05L10,6.44l-.75.14.09-.06a1.64,1.64,0,0,0,.27-.32.46.46,0,0,0,.07-.4,1.15,1.15,0,0,1-.09-.31,1.06,1.06,0,0,1,0-.31.75.75,0,0,1,.13-.25ZM8,5.69a2.24,2.24,0,0,1,.46-.12,3.1,3.1,0,0,1,.53,0h.21a1.83,1.83,0,0,0,.12.31c.08.14,0,.36-.19.55a2.4,2.4,0,0,1-.22.24l-.23.08a.61.61,0,0,0-.14.07l-.08,0a.6.6,0,0,1-.08.08.21.21,0,0,0,0,.26.64.64,0,0,0,.19.13,1.41,1.41,0,0,0,.32.09l.13,0,.15,0,.29,0a3.72,3.72,0,0,0,.58,0,5.22,5.22,0,0,0,.57-.07l.54-.13A5.92,5.92,0,0,0,13,6.39h0l0,0s0-.09-.05-.11a4.89,4.89,0,0,1-.8-.37,2.16,2.16,0,0,1-.33-.24,1.74,1.74,0,0,1-.25-.29A2.42,2.42,0,0,0,11,4.77a1.56,1.56,0,0,0-.47-.21l-.26,0h-.15c0-.1,0-.19,0-.29a2.25,2.25,0,0,0,0-.44,3.09,3.09,0,0,0-.27-.83,2.3,2.3,0,0,0,.52-.33,1.21,1.21,0,0,0,.21-.24.52.52,0,0,0,.07-.15.19.19,0,0,0,0-.08v0s0-.07-.12-.07h0c-.47.13-1,.19-1.5.28-1,.16-2,.33-3,.4-.26,0-.46,0-.77,0A1.93,1.93,0,0,0,4.31,3a4.34,4.34,0,0,0-1,.85c-.27.28-.5.56-.78.81l-.2.15L2.1,5c-.17.1-.36.18-.53.27l-.67.3v.41l1-.4A5.41,5.41,0,0,0,3,4.89,10.34,10.34,0,0,0,3.79,4a3.66,3.66,0,0,1,.84-.78,1.29,1.29,0,0,1,.54-.19c.2,0,.52,0,.77,0A20.42,20.42,0,0,0,8,2.7a.78.78,0,0,0,0,.14.79.79,0,0,0,.14.34l.05,0h0a7.52,7.52,0,0,0-1.39.44A2.42,2.42,0,0,0,6.24,4a.49.49,0,0,0-.16.58l0,.07v0l0,0h0l0,0a.85.85,0,0,0,.13.1.64.64,0,0,0,.21.09A.8.8,0,0,0,6.74,5a3.63,3.63,0,0,0,.75,0A2.6,2.6,0,0,1,8.62,5l.09,0,.08.06A1.21,1.21,0,0,1,9,5.24a.08.08,0,0,1,0,0,4.46,4.46,0,0,0-.62,0,2.86,2.86,0,0,0-.55.15c-.32.11-.62.22-.91.29A5.49,5.49,0,0,1,5.36,6a3.81,3.81,0,0,1-1-.16L4,5.68l0,0,.31.16a3.62,3.62,0,0,0,1,.24A5.72,5.72,0,0,0,7,6Q7.49,5.86,8,5.69Z"/><path class="cls-6" d="M8.06,6.83l0-.18-.06,0a.48.48,0,0,0-.12.1A.64.64,0,0,0,7.8,7,.33.33,0,0,0,8,7.42a.62.62,0,0,0,.27.09,1,1,0,0,0,.28,0,1.54,1.54,0,0,1-.22-.09A.38.38,0,0,1,8,7.17.48.48,0,0,1,8,7c0-.06,0-.12,0-.17"/><path class="cls-6" d="M7.28,7.2a.41.41,0,0,1,0-.18.53.53,0,0,1,0-.18.76.76,0,0,1,.07-.13.12.12,0,0,0,0-.06l-.06,0a.36.36,0,0,0-.15.11A.47.47,0,0,0,7,7s0,.09,0,.14a.22.22,0,0,0,0,.13.58.58,0,0,0,.23.21,1.08,1.08,0,0,0,.28.11,1.4,1.4,0,0,0,.29,0l-.22-.13a.89.89,0,0,1-.34-.29"/><path class="cls-6" d="M28.93,13.18h0c-.06-.14-.12-.29-.17-.43s-.16-.42-.26-.63a3.64,3.64,0,0,0-.3-.63,2.36,2.36,0,0,0-.47-.62,1.63,1.63,0,0,0-1-.31c-.33,0-.65,0-1,0s-.67,0-1,.05a.49.49,0,0,0,.06-.16.62.62,0,0,0,0-.33.71.71,0,0,0-.19-.33l.41,0,.63,0c.24,0,.53,0,.8,0a1.55,1.55,0,0,1,.76.17,1.63,1.63,0,0,1,.55.53,8.86,8.86,0,0,0,.57.71,4.94,4.94,0,0,0,.75.68,1.51,1.51,0,0,0,.54.27,2.07,2.07,0,0,1,.29,0l.27.07a1.26,1.26,0,0,0,.64,0c.19,0,.39-.11.55-.16h.07l0,0h0l0,0s0,0,0,0v.05a.31.31,0,0,1-.15.2l-.1,0h-.14a.63.63,0,0,0-.26.07.55.55,0,0,0-.15.18l-.1.06a5.75,5.75,0,0,1-.72.19,2.39,2.39,0,0,0-.58.23l-.37.18m.8.57h0a2.43,2.43,0,0,0,.49-.06l.46-.06.23,0a.26.26,0,0,1,.15,0,.3.3,0,0,1,.05.25c0,.08-.11.1-.24.11h-.08a1.45,1.45,0,0,0-.42,0h0c-.07,0-.12.06-.11.11s.08.09.16.09h.34v0a.2.2,0,0,1-.08.08l-.06,0-.1,0-.11-.05h0a.25.25,0,0,0-.25.05c-.06.06,0,.14.06.18l0,0,.06,0h-.1a1.27,1.27,0,0,0-.23-.12h0a.3.3,0,0,0-.23,0,.14.14,0,0,0-.1.16c-.1,0-.18.08-.18.15h0v.07l-.34,0a8.87,8.87,0,0,0-1,0,2.82,2.82,0,0,1-.43,0c-.13,0-.16,0-.18-.07a.28.28,0,0,1,0-.11c0-.06,0-.13,0-.18a1.06,1.06,0,0,0,0-.19.89.89,0,0,0-.07-.19.18.18,0,0,0-.07-.08h0a2.7,2.7,0,0,1-.63-.49l-.1-.13s0,0,0-.06l0-.09-.09-.36h0a.16.16,0,0,0-.09-.09.29.29,0,0,0-.31,0,5.5,5.5,0,0,1-.8.62,1.71,1.71,0,0,1-.23.13l-.25.1a3.39,3.39,0,0,1-.57.1A2.4,2.4,0,0,1,23,13.55a1.28,1.28,0,0,1-.23-.14.74.74,0,0,1-.18-.17.94.94,0,0,1-.14-.19l-.09-.2a1.67,1.67,0,0,1,.18-1.27,1.21,1.21,0,0,1,.56-.48,3,3,0,0,1,.85-.18,16.43,16.43,0,0,1,1.86-.09c.31,0,.62,0,.92,0s.63.06.72.19a2.6,2.6,0,0,1,.47.52,6,6,0,0,1,.36.6c.12.2.22.4.32.61s.18.41.3.63A1.15,1.15,0,0,0,29.73,13.75Zm-2.59,1.79h0c-.14.22-.61.3-1.11.39s-1.1.15-1.75.2c-1.31.09-2.84.14-4.48.17-.83,0-1.66,0-2.52,0s-1.72-.12-2.59-.22a23.2,23.2,0,0,1-2.54-.43A10.91,10.91,0,0,1,11,15.29l-.27-.1a1.19,1.19,0,0,1-.22-.12l0,0h0l0,0-.06,0-.17-.08a1.91,1.91,0,0,0-.33-.06c-.43-.06-.84-.05-1.2-.1l-.24-.05-.07,0-.09-.06s0,0,0-.06a.55.55,0,0,1,.08-.15,6.83,6.83,0,0,1,1.19-1.15,12.52,12.52,0,0,1,2.27-1.49,3.3,3.3,0,0,1,.78-.27h0l.17,0,.31.05.32,0a1.26,1.26,0,0,0,.33-.05l.15,0h0l.1,0,.1,0a.29.29,0,0,0,0,.09.59.59,0,0,0,0,.13.7.7,0,0,0,.06.09l-2.67,1,2.93-.69h0a2.9,2.9,0,0,0,.41.27,1.8,1.8,0,0,1,.2.19l-1.31.85,1.53-.6v0c0,.08.1.19.16.29a1.29,1.29,0,0,0,.22.3,1.41,1.41,0,0,0,.78.43,1.2,1.2,0,0,0,.5,0h.11l.12,0,.22-.07a7.83,7.83,0,0,0,1-.48l-.12,1.63L18.94,13l.61.14.95,1.71-.41-1.55.09,0a1.43,1.43,0,0,0,.43.07v0a1,1,0,0,0,.14.18,1.36,1.36,0,0,0,.25.2,3,3,0,0,0,.78.39,4.75,4.75,0,0,0,1.05.23l.57,0,.29,0,.26,0a2.39,2.39,0,0,0,.89-.29.64.64,0,0,0,.36-.41.09.09,0,0,0,0-.05l.17-.08a5,5,0,0,0,.6-.36v0l0,.09a.3.3,0,0,0,0,.12.82.82,0,0,0,.12.2,2.05,2.05,0,0,0,.34.32,2.8,2.8,0,0,0,.33.24.36.36,0,0,1,0,.1,1.32,1.32,0,0,1,0,.31.53.53,0,0,0,0,.23.54.54,0,0,0,.26.23h0A.46.46,0,0,1,27.14,15.54ZM12.44,10.3h0l-.53-.47,0,0,.35.28a5.37,5.37,0,0,1-.57-1l.43.28L11.91,9l.32.27-.35-.82.5.51,0-.29.33.23-.38-.77.46.36L12.61,8l.46.15-.52-.46.74.24-.43-.37.74.24-.54-.38,1,.12-.18-.21.56.09L14,7.3l1.17.36-.48-.31a1.29,1.29,0,0,1,.43.15A5.26,5.26,0,0,1,16,8a3.87,3.87,0,0,1-.19-.48A.26.26,0,0,1,16,7.42a.64.64,0,0,1,.2,0l.08,0s.06,0,.07,0a.88.88,0,0,1,.23.61v.07l.12,0a1.11,1.11,0,0,1,.18.12.57.57,0,0,1,.15.16,1,1,0,0,1,.1.18l.09.22a2.26,2.26,0,0,1,.21.86,1.59,1.59,0,0,1-.06.43.87.87,0,0,1-.25.37l-.2.17s0,0,0,0l-.11-.06H16.7a.53.53,0,0,0-.25,0l-.21.07-.12.1,0-.09a.54.54,0,0,0-.07-.13.33.33,0,0,0-.14-.11.39.39,0,0,0-.24,0,.48.48,0,0,0-.16.08.38.38,0,0,0-.08.11l-.06-.1a.41.41,0,0,0-.42-.13.37.37,0,0,0-.25.16,1.19,1.19,0,0,0-.09.15.57.57,0,0,0,0,.14.33.33,0,0,0,0,.17l-.07,0a1.11,1.11,0,0,0-.19.18,1,1,0,0,0-.08.14l-.09,0,0,0h0l-.18,0-.08,0-.11,0h-.25l-.25,0-.25-.06-.17-.08s0,0,0-.07a.68.68,0,0,1,.28-.22l.22-.1-.2-.14-.44-.28Zm4,1.77ZM16.57,11Zm0,0Zm0,0Zm-.12.09Zm-2,.38h0a.43.43,0,0,1,0-.11.69.69,0,0,1,.05-.13.9.9,0,0,0,.12.24Zm3.23-1.17h0a1.2,1.2,0,0,0,.14-.48V9.61H18l1.07-.1,1.41-.14.68-.06q.33,0,.66,0a3.88,3.88,0,0,1,.61.1,1.31,1.31,0,0,1,.28.09l.17.08,0,0-.1.14-.25.29a3.33,3.33,0,0,0-.24.32c-.07.11-.13.22-.19.33l-.35.66-.38.64a7.16,7.16,0,0,0-.37.65l-.15.33a.16.16,0,0,1-.16.13,1.08,1.08,0,0,1-.39,0L20,13v0H20l-.15,0a5.92,5.92,0,0,0-.84-.05,4.06,4.06,0,0,0,.89-1l0,0a13.82,13.82,0,0,0-1.29.87,5.4,5.4,0,0,0-.58.47l-.29.23a2.27,2.27,0,0,1-.34.19.62.62,0,0,1-.19.07l-.09,0h-.11a.83.83,0,0,1-.39,0,.93.93,0,0,1-.49-.42,1.74,1.74,0,0,1-.14-.27c-.05-.1-.07-.19-.12-.3a1.07,1.07,0,0,0-.22-.32,2,2,0,0,0-.3-.28h0l-.41-.23a1,1,0,0,1-.31-.26l0-.05a.16.16,0,0,1,0-.07h0l.23,0h0l.17.21h.05a1.82,1.82,0,0,1-.06-.51A.71.71,0,0,1,14.9,11a.6.6,0,0,1,.06-.11l0,0a.54.54,0,0,0,.07.13c.08.16.18.33.27.49v0a.23.23,0,0,0,.2.07c.09,0,.14-.08.11-.14h0a3.31,3.31,0,0,0-.12-.42h0a.82.82,0,0,1,0-.22.22.22,0,0,1,.05-.08l.11-.05c.07,0,.11,0,.15.08a.24.24,0,0,1,0,.09v.58c0,.05,0,.1.13.12a.36.36,0,0,0,.18,0,.19.19,0,0,0,.1.12h0l0,0,0,0,.08.07a.17.17,0,0,1,.07.13.11.11,0,0,1,0,.08s0,.07,0,.11l0,.06,0,0v0a.23.23,0,0,0,0,.07.24.24,0,0,0,.15.08.29.29,0,0,0,.17,0l.05,0h0a1.28,1.28,0,0,1,.25.15.61.61,0,0,1,.28.34h.05a.47.47,0,0,0-.13-.45l-.19-.19L17,12h0a.48.48,0,0,0,.05-.17.39.39,0,0,0,0-.21h0l.19-.11s0-.09.07-.14a.32.32,0,0,1,.06-.11.22.22,0,0,0-.18-.07.44.44,0,0,0-.2,0h0A.57.57,0,0,0,17,11h0a2.66,2.66,0,0,0,.33-.21A1.12,1.12,0,0,0,17.72,10.3Zm.16-2.85h0c-.09,0,0,0,0,0l-.21-.1a1.69,1.69,0,0,1-.36-.27.69.69,0,0,1-.12-.14s0,0,0-.06V6.81a.3.3,0,0,1,.19-.19.68.68,0,0,1,.35,0,.38.38,0,0,1,.23.1s0,.1,0,.13a.91.91,0,0,1-.25.07.86.86,0,0,0,.3,0c.1,0,.26-.11.22-.24s0,0,0,0a.32.32,0,0,0,.14,0l.07,0-.09,0s-.13,0-.14-.06v0h0v0s0,0,0,0a.56.56,0,0,1,.1-.15l.06-.09,0,0,0,0h0l.24.06c-.16.06-.26.17-.26.25a.55.55,0,0,0,0,.3.23.23,0,0,0,.06.12l.06.06a.16.16,0,0,0,.12,0c.1-.06.08-.11.1-.14v0l0,0a.24.24,0,0,1-.11.09s0-.07,0-.14a.64.64,0,0,1,.05-.24.16.16,0,0,1,.18-.08.18.18,0,0,1,.09,0l0,0s0,0,0,0l0,0a2.55,2.55,0,0,1,.14.35.78.78,0,0,1,0,.34,1.48,1.48,0,0,0,.22.83,7.49,7.49,0,0,0,.45.61l.34.49L19,9.29l-1,.22c0-.12,0-.34.07-.62s0-.46,0-.73a3.17,3.17,0,0,0,0-.43,1,1,0,0,0,0-.12v0l0,0,0,0A.31.31,0,0,0,17.88,7.45Zm-.7-1.12h0Zm.39-.14h0V6.12s0,0,0,0A.52.52,0,0,1,17.71,6s.08,0,.07-.06,0,0,0,0,.07,0,.11,0,0,0,0,0a.68.68,0,0,0-.12.12.58.58,0,0,0-.08.22h-.1s-.06,0,0,0ZM18.26,6h0S18.23,6,18.26,6Zm4.88,3.63h0A.38.38,0,0,1,23,9.61Zm.15.07h0a.36.36,0,0,0,.07-.1l0-.06.16,0a1.49,1.49,0,0,1,.63.31.68.68,0,0,1,.12.12s.07.08.09.13.1.18.15.26l.07.16c-.26,0-.52.06-.77.11a3.16,3.16,0,0,0-.92.27,1.3,1.3,0,0,0-.55.57,2,2,0,0,0-.1,1.32,1.89,1.89,0,0,0,.09.21,1.67,1.67,0,0,0,.13.2,1.53,1.53,0,0,0,.18.18,1.94,1.94,0,0,0,.24.15,2.64,2.64,0,0,0,1.24.22,3.69,3.69,0,0,0,.65-.07l.3-.09a1.07,1.07,0,0,1-.41.25,3.35,3.35,0,0,1-.37.09c-.14,0-.29,0-.44.06H23.4l-.48,0a6.17,6.17,0,0,1-1.73-.42,2.56,2.56,0,0,1-.46-.25h.05a.78.78,0,0,0,.34-.13.47.47,0,0,0,.17-.21c.05-.11.1-.22.14-.33s.14-.45.21-.68a4,4,0,0,1,.65-1.3,3.47,3.47,0,0,1,.25-.29,2.5,2.5,0,0,1,.29-.27l.32-.28A1.07,1.07,0,0,0,23.29,9.73ZM30,13a5.29,5.29,0,0,0,.85-.16,1.2,1.2,0,0,0,.24-.15l.08-.1h.09a.79.79,0,0,0,.38-.09.47.47,0,0,0,.26-.45.43.43,0,0,0-.05-.13.23.23,0,0,0-.07-.07l0,0-.06,0a.5.5,0,0,0-.42,0,1.32,1.32,0,0,1-1,.2L30,11.93a2.16,2.16,0,0,0-.29,0,1.14,1.14,0,0,1-.37-.26,7.52,7.52,0,0,1-.58-.71c-.17-.24-.33-.47-.48-.71a1.67,1.67,0,0,0-.71-.68,2.26,2.26,0,0,0-1.09-.18,5.75,5.75,0,0,0-.84.11L25,9.58l-.42.12a1.64,1.64,0,0,0-.22-.14,1.17,1.17,0,0,0-.26-.1,1.41,1.41,0,0,0-.27-.05h-.24a.69.69,0,0,0-.22,0,.07.07,0,0,0-.05,0h0A1.94,1.94,0,0,0,23,9.2a1.81,1.81,0,0,0-.35-.13,3.19,3.19,0,0,0-.76-.14,5,5,0,0,0-.77,0l-.71.11-.21,0a2.28,2.28,0,0,0-.14-.55c-.07-.2-.2-.42-.29-.64a1.64,1.64,0,0,1-.15-.7,1.08,1.08,0,0,0,0-.44,1.76,1.76,0,0,0-.19-.39l0,0,0-.05a.63.63,0,0,0-.12-.11.76.76,0,0,0-.37-.1.47.47,0,0,0-.17,0,.43.43,0,0,0-.1-.19.32.32,0,0,0-.14-.1.44.44,0,0,0-.35,0L18,5.8s0-.08-.12-.12a.49.49,0,0,0-.27,0l-.19,0-.15.08a.46.46,0,0,0-.23,0,.47.47,0,0,0-.29.18.16.16,0,0,1,0,.07.14.14,0,0,0,0,.06.31.31,0,0,0,0,.13.37.37,0,0,0,.11.31h0a.66.66,0,0,0-.14.2.76.76,0,0,0,0,.15.47.47,0,0,0,0,.14.92.92,0,0,0,.17.22,1.91,1.91,0,0,0,.48.35,1.19,1.19,0,0,0,.32.12s0,0,0,0,.05.27.08.4.09.52.12.73.1.5.13.62l-.14,0a2.61,2.61,0,0,0-.17-.68l-.09-.23a1.05,1.05,0,0,0-.15-.24,1.17,1.17,0,0,0-.23-.21A1.36,1.36,0,0,0,17,8.06a1.82,1.82,0,0,0-.11-.3.91.91,0,0,0-.29-.34l-.12-.06-.14-.05a.81.81,0,0,0-.31,0,.74.74,0,0,0-.29.08l0,0a4.34,4.34,0,0,0-1.41-.54,3.52,3.52,0,0,0-2.48.43,2,2,0,0,0-.82,2,2.11,2.11,0,0,0,1.38,1.39l.22.12,0,0a.72.72,0,0,0-.18.24.26.26,0,0,0,.13.3l0,0a3.84,3.84,0,0,0-.8.2,8.57,8.57,0,0,0-1.16.56,11,11,0,0,0-1.31.87A5.45,5.45,0,0,0,8,14.26a.88.88,0,0,0-.1.22A.28.28,0,0,0,8,14.8l.12.08.19.06a1.91,1.91,0,0,0,.33.06c.43,0,.83,0,1.22,0l.27,0,.11,0,0,0h0l0,0,0,0a2.43,2.43,0,0,0,.28.14l.3.09c.39.12.8.22,1.21.31.83.2,1.68.36,2.54.52s1.73.27,2.6.34,1.74.09,2.57.09a38.65,38.65,0,0,0,4.53-.23,17.62,17.62,0,0,0,1.78-.28,5.7,5.7,0,0,0,.72-.2,2.1,2.1,0,0,0,.3-.15l.12-.11.06-.09a.57.57,0,0,0,.05-.5l.15,0a3.7,3.7,0,0,0,.56,0,7.93,7.93,0,0,1,1,0l.51,0h.13l.1,0a.26.26,0,0,0,.14-.09l.11,0,.07,0,.1-.05a.25.25,0,0,0,.1-.08.11.11,0,0,0,0-.07h0l.08,0h.05l0,0,.08-.06a.25.25,0,0,0,.08-.14.5.5,0,0,0,.22-.11.69.69,0,0,0,.12-.14.39.39,0,0,0,0-.09.18.18,0,0,0,0-.1l.09,0a.29.29,0,0,0,.16-.19.37.37,0,0,0-.13-.38.49.49,0,0,0-.3,0l-.25,0a8.24,8.24,0,0,1-.92.14.9.9,0,0,1-.72-.27L29,13.23l.45-.1A3.86,3.86,0,0,1,30,13Z"/><path class="cls-6" d="M13.37,9.06s-1.55-.21-1,.86c0,0-.1-.85,1-.86"/><path class="cls-6" d="M15.09,7.73c-1.6,0-.89.77-.89.77-.18-.64.89-.77.89-.77"/><path class="cls-6" d="M12.9,10.08l.45-.18S13,10,13,9.89l0-.11a.46.46,0,0,0,.38,0c.23-.06.23-.28,0-.34l.41-.12a1.35,1.35,0,0,0-.78.14c-.3.19-.08.59-.08.59"/><path class="cls-6" d="M14.6,8.78a.15.15,0,0,1,.15-.21c.16.15.38,0,.46-.14S15,8.19,15,8.19a.67.67,0,0,1,.19,0c.11,0,.11.23.11.23l.12-.35a1,1,0,0,0-.68.1c-.48.18-.16.62-.16.62"/><path class="cls-6" d="M14.68,9.75c0,.09.22,0,.18-.1s-.18.1-.18.1"/><path class="cls-6" d="M15,9.58c.15,0,.28,0,.12-.1,0,0-.27.1-.12.1"/><path class="cls-6" d="M12.24,10.08l.08.08c.1.07,0,0-.08-.08"/><path class="cls-6" d="M15.44,10.08a.19.19,0,0,0,.32,0s-.18.13,0-.16.2,0,.2,0,.26-.33.09-.35-.77.27-.61.47"/><path class="cls-6" d="M16.43,10.08c-.05-.14-.47.22-.47.22.24.18.52-.08.47-.22"/></svg>