<svg id="Capa_1" data-name="Capa 1" xmlns="http://www.w3.org/2000/svg" viewBox="0 0 30.54 23.7"><defs><style>.cls-1{fill:#f05050;}.cls-2{fill:#f5a4c7;}.cls-3{fill:#fabcab;}.cls-4{fill:#fbc0ac;}.cls-5{fill:#231f20;}</style></defs><title>6-3meses</title><path class="cls-1" d="M15.07,19.67a13.38,13.38,0,0,0,4.41,1.38A78,78,0,0,0,28,20.9c.59-.16,1.81-.25,1.37-.6A11.38,11.38,0,0,1,28.14,19C27.94,18.79,27,17.2,27,17.2s-2.34-.34-3.11-.48-8.78,3-8.78,3"/><path class="cls-2" d="M11.41,17.83a3.65,3.65,0,0,0-1.15-.1C9.94,17.82,7,19.34,7,19.34a2.85,2.85,0,0,0-.08,1.36c.18.47.44.67,2.21.79s3.58.27,3.82-.07a.89.89,0,0,0,0-.83Z"/><path class="cls-3" d="M1,15.79,4.92,14.3l1.68.32s.07.3.66.33a1.59,1.59,0,0,0,1.08-.47,2.72,2.72,0,0,1,.5-.6,2.25,2.25,0,0,0,.51-.68c.15-.23-.36-.61-.51-.64a2.7,2.7,0,0,1-.5-.26,22.61,22.61,0,0,0,2.33-.81c.13-.13-.21-.41-.21-.41s-4.85,1-5.89,1.32-3.43.89-3.43.89Z"/><path class="cls-4" d="M10.94,17.76a11.56,11.56,0,0,1,.36,1.33c0,.36.11.82.11,1s.24,1.24.67,1.18,1.17-.58,1.46-.62a19,19,0,0,0,3.82-.84l.81-.61a13.07,13.07,0,0,1,2-.44,4.68,4.68,0,0,0,2.2-.93c.07-.25,1.73-2.34,1.21-2.71a4.79,4.79,0,0,0-1.84-.55,4.41,4.41,0,0,0-1.39.2,3.82,3.82,0,0,0-1.06.73c-.14.18-.58.07-.71,0s-.4-.06-.45.07-.07.2-.15.23-.33,0-.37.07-.12.27-.12.27l0,.21s-.36-.18-.47-.13-.14.34-.14.36.19,0-.12.07-.08.69-.08.69l-.49-.1v-.31a9.48,9.48,0,0,0-.83-2c-.48-.77.08-.8.2-1s.31-.44,0-.37l-.66.16s.31.06.17-.54-.3-.55-.42-.46-.16.59-.16.59-.57-.73-.67-.64a1.1,1.1,0,0,0-.2.35s-.14-.23-.25-.11a1.72,1.72,0,0,0-.21.38s-.23.08-.27.21a.89.89,0,0,1-.15.26,3,3,0,0,0-.61-.67c-.22-.12-.4-.24-.4-.1a3.29,3.29,0,0,0,.06.44s-.29-.29-.45-.28-.14.21-.06.4a1.15,1.15,0,0,1,.09.33s-.53-.23-.49-.09a1.92,1.92,0,0,0,.32.42l.06.11a4.62,4.62,0,0,0-.65-.07s.13.16.26.24,1.13.8,1.14,1,.24,1.5.24,1.5l.23.38s-1,.18-1.22.27-.38.08-.38.25"/><path class="cls-4" d="M10.61,17.71A14.75,14.75,0,0,0,10,16.25a2.54,2.54,0,0,0-1.23-.82H7.56a16.54,16.54,0,0,0-2.07.5,2.61,2.61,0,0,1-1.1.13c-.26,0-.66-.09-.7-.29s-.47-.61-.35-.72-.21.3-.24.59A7.88,7.88,0,0,0,3.28,17c0,.25.55.22.76.16A8.52,8.52,0,0,1,5,17.12l.64,0a9.64,9.64,0,0,0-.68.78c-.1.17-.08.19-.55.08s-.89-.38-1.1-.3-.45-.33-.41.13-.13.73-.06.85,0,.6.41.59a4.26,4.26,0,0,1,1.45,0,2,2,0,0,0,1.48-.2,7.16,7.16,0,0,0,.63-.73,2.11,2.11,0,0,0,.23.54A2.42,2.42,0,0,0,8,20c.48.23,1.34.56,1.69,0a4,4,0,0,0,.59-1.47c0-.2,0-.81,0-.81Z"/><path class="cls-4" d="M12.92,4.12c.46.69,1.88,2.38,1.9,2.51a4.19,4.19,0,0,1-1.41,1.28c-.66.37-1.34.34-1.71,1.09s-.22,1.32-.37,1.43a.64.64,0,0,1-.67.14,7.75,7.75,0,0,1-.81-.34l-.39.2H9.27s0,.2-.5.28-.52.24-.61.4-.59.09-.81.09a3.28,3.28,0,0,1-1.16-.87c-.31-.34-.72-.76-.72-.76s-.3,0-.23.07a1.61,1.61,0,0,1,.17.51A1,1,0,0,1,5,11a11.26,11.26,0,0,1-1,.66l-.55.28s-.78-.69-.78-.71S1.28,9.3,1.28,9.3l-.12-.23V6.65S3,7.21,3.35,7s1.27-.71,1.5-1.18A4.38,4.38,0,0,1,8.67,3.35a6,6,0,0,1,4.25.77"/><path class="cls-5" d="M29,20.66h0a5.73,5.73,0,0,1-1.13.14c-.4,0-.79.07-1.18.08l-1.18.05-1.18,0-1.17,0c-.39,0-.79,0-1.18,0s-.78,0-1.16,0l-1.16-.07c-.39,0-.77-.08-1.15-.12s-.76-.12-1.11-.22a4.26,4.26,0,0,1-.54-.16l-.39-.14.45-.13a2.37,2.37,0,0,0,1.22-.83l0-.07c.14,0,.36-.09.64-.14a4.47,4.47,0,0,1,.76-.07c.14,0,.28,0,.4,0l.22,0,.19.06a2.74,2.74,0,0,1,.4.15l.37.17.65.34.64.35a2.88,2.88,0,0,0-.44-.48,4.38,4.38,0,0,0-1.17-.73h0a1,1,0,0,1,.38,0l.24.07.27.1.6.24c.42.16.86.3,1.2.39s.59.13.59.13a3.53,3.53,0,0,0-.45-.3,8.28,8.28,0,0,0-1.1-.51l-.52-.17.56-.09.72-.11.83-.12c.57-.07,1.14-.13,1.57-.16l.54,0,.2,0-.2,0a3.79,3.79,0,0,0-.53-.08h-.12l0,0a1.13,1.13,0,0,0,.3-1h0v-.13l.82.24c.29.49.58,1,.92,1.46a7.47,7.47,0,0,0,.56.73,2.69,2.69,0,0,0,.33.35l.1.09.13.09a1.32,1.32,0,0,1,.2.12.59.59,0,0,1,.27.28c0,.09-.08.18-.26.23m-13.27-.57h0c-.38.07-.77.17-1.17.27s-.83.19-1.26.31a2.91,2.91,0,0,0-.6.25c-.2.1-.34.23-.5.22a.55.55,0,0,1-.38-.23.93.93,0,0,1-.18-.39,1.51,1.51,0,0,1,0-.43,3.35,3.35,0,0,0-.06-.47,5.44,5.44,0,0,0-.22-.84c-.07-.26-.17-.51-.22-.73l0-.13s0-.07,0-.07,0,0,0,0a1.14,1.14,0,0,1,.27-.17,3.91,3.91,0,0,1,.61-.23l.42-.12.09.1a3.09,3.09,0,0,1,.25.23,2.2,2.2,0,0,1,.2.23,5.74,5.74,0,0,1,.32.53c.19.35.36.72.52,1.09h0a5.82,5.82,0,0,0-.33-1.13,4.11,4.11,0,0,0-.27-.56,2.31,2.31,0,0,0-.19-.28c-.08-.1-.17-.17-.24-.25a.72.72,0,0,1-.17-.22,1.51,1.51,0,0,1-.12-.26c-.07-.18-.12-.37-.17-.55-.07-.38-.13-.76-.17-1.14h0a.13.13,0,0,0-.08-.1c-.38-.21-.76-.41-1.11-.63l-.12-.09-.07,0a3.74,3.74,0,0,1,.65.13h0a.16.16,0,0,0,.12,0,.06.06,0,0,0,0-.11,2.52,2.52,0,0,1-.33-.24.86.86,0,0,1-.14-.13s-.08-.09-.08-.12,0,0,0,0h.06a.55.55,0,0,1,.18.08,2,2,0,0,1,.33.24.09.09,0,0,0,.09,0s.05,0,0-.07-.16-.23-.23-.35a.83.83,0,0,1-.13-.37.11.11,0,0,1,0-.06l0,0h0a0,0,0,0,1,0,0,.29.29,0,0,1,.16.09,1.26,1.26,0,0,1,.28.33.17.17,0,0,0,.14,0c.07,0,.1-.06.08-.1h0a1.33,1.33,0,0,1-.15-.52,1,1,0,0,1,.2.21c.14.16.26.33.4.51l.11.13a.54.54,0,0,0,.16.1h.14a.22.22,0,0,0,.13,0,.18.18,0,0,0,.08-.1,1.57,1.57,0,0,1,.12-.26,1.59,1.59,0,0,1,.15-.21.22.22,0,0,1,0,.11,2.51,2.51,0,0,1-.1.27.32.32,0,0,0,0,.19.76.76,0,0,0,0,.16.69.69,0,0,1,0,.24.9.9,0,0,1-.11.22,1.21,1.21,0,0,1-.19.2.14.14,0,0,0,0,.21,3.47,3.47,0,0,1,.82,1.21,4.58,4.58,0,0,1,.12.68,1,1,0,0,0,.12.38,1.29,1.29,0,0,0,.32.34,3.84,3.84,0,0,0,.85.45c.29.13.59.24.87.37a3.34,3.34,0,0,1,.77.43.82.82,0,0,1,.25.28.39.39,0,0,1,.05.33h0c.14-.24,0-.5-.2-.69a2.89,2.89,0,0,0-.76-.51c-.27-.15-.56-.28-.83-.42a4,4,0,0,1-.74-.43.87.87,0,0,1-.22-.26.71.71,0,0,1-.07-.31,3.59,3.59,0,0,0-.08-.71,2.37,2.37,0,0,0-.2-.46.88.88,0,0,0,.1-.54c0-.05,0-.11,0-.16l-.07-.15a1,1,0,0,0-.22-.23l-.1-.07s0-.08,0-.13a.73.73,0,0,0,0-.34.45.45,0,0,1,0-.22c0-.07.06-.15.09-.26a.28.28,0,0,0,.31.11c.13,0,.21-.13.17-.22h0L14.17,13a1.09,1.09,0,0,1-.05-.17l.11.11a1.57,1.57,0,0,1,.29.4.09.09,0,0,0,.06,0,.09.09,0,0,0,.09-.05h0a1.42,1.42,0,0,1,.16-.45l0,0v0l.08.22a2.72,2.72,0,0,0,.18.44l-.1,0c-.15,0-.36.08-.39.18a.25.25,0,0,0,0,.19l0,.06h0l0-.06a.31.31,0,0,1,.09-.13s.11,0,.24,0a1.35,1.35,0,0,0,.29,0l.09,0,.06,0h0l-.06.06a1.46,1.46,0,0,0-.37.46.64.64,0,0,0,.12.54,5.2,5.2,0,0,0,.35.44,1.4,1.4,0,0,1,.22.44,2.27,2.27,0,0,1,.08.41c0,.13,0,.24,0,.38a1.3,1.3,0,0,0,.26.59l0,0L16,17c-.2,0-.4,0-.59-.05a5.72,5.72,0,0,0-.59,0v0l.57.06a5.17,5.17,0,0,1,.54.11,3,3,0,0,1,.48.16l.21.12.09.06s.06,0,.06.06a.28.28,0,0,0,.22.06c.1,0,.15-.1.12-.16h0a2.4,2.4,0,0,1-.15-.48s0-.08,0-.12a.15.15,0,0,1,0-.07h0l.3-.18v-.18a.15.15,0,0,0,0-.07l.11,0,.26.1h0a.25.25,0,0,0,.15,0c.09,0,.15-.08.12-.15l-.09-.21,0,0v-.05s0-.07,0-.1V15.9a.09.09,0,0,1,0-.05h0a.36.36,0,0,1,.16,0h0c.3-.05.23-.24.25-.29s.08-.11.19-.11.18.07.32.12a.54.54,0,0,0,.45,0,5.89,5.89,0,0,0,.56-.4,3.8,3.8,0,0,1,.64-.31,4.38,4.38,0,0,1,.71-.19,3.69,3.69,0,0,1,.58-.09l1,.57L21.26,15l.72.29-.72-.1,1,.49H21.11l.62.21-.45.12.62.23-1.14-.07.84.44-.91-.05.69.33a2.4,2.4,0,0,0-.69,0,1,1,0,0,0-.44.24,3.31,3.31,0,0,1,.76-.08s-.77,0-.88.3-.49.09-.49.09.19.3,1.05,0,1,.27.48.48-1,.32-1.13,0a2,2,0,0,1-.87.59h.62l-.34.14a2,2,0,0,0-.35.06,2.9,2.9,0,0,0-.38.11,2.55,2.55,0,0,0-.49.23.53.53,0,0,0,.08-.27h0a.29.29,0,0,1-.06.1,1.17,1.17,0,0,1-.23.27,3.18,3.18,0,0,1-1.23.65C16.45,19.94,16.12,20,15.74,20.09ZM13,21.17h0a.86.86,0,0,1-.19.11,1,1,0,0,1-.22.09,4.32,4.32,0,0,1-.54.05,5.56,5.56,0,0,1-.58,0c-.77,0-1.55-.05-2.32-.12A10.26,10.26,0,0,1,8,21.17l-.26-.05-.22-.07a.73.73,0,0,1-.29-.26A1.48,1.48,0,0,1,7,20.05a3,3,0,0,1,0-.42,1.73,1.73,0,0,0,.21.17A1.77,1.77,0,0,0,7.6,20a1.83,1.83,0,0,0,.39.09l0,0a1.4,1.4,0,0,0,.3.15,1.66,1.66,0,0,0,1,.16,1.15,1.15,0,0,0,.47-.17L9.93,20l.14-.14a1.24,1.24,0,0,0,.33-.64,1.29,1.29,0,0,0,0-.33,1.82,1.82,0,0,0,0-.33c0-.22,0-.44-.06-.63s0-.14.14-.18l.23,0,0,0a.23.23,0,0,0,0,.09.49.49,0,0,0,0,.21,12.76,12.76,0,0,0,.37,1.59c0,.14.06.29.08.43a1.78,1.78,0,0,0,.08.48,1.4,1.4,0,0,0,.29.47,1,1,0,0,0,.71.27.74.74,0,0,0,.37-.14l.23-.17a1.46,1.46,0,0,1,.25-.13A.27.27,0,0,1,13,21.17ZM9.69,16.74h0a2.72,2.72,0,0,0-.35-.32,3.82,3.82,0,0,0-.45-.27l-.27-.1L8.33,16a1.45,1.45,0,0,0-.3,0H7.72l-.27,0-.3.05a1.84,1.84,0,0,0-.28.09,1.33,1.33,0,0,0-.24.1,3.63,3.63,0,0,0-.44.25c-.13.1-.26.19-.37.29s-.23.21-.33.31l0,.05a4.07,4.07,0,0,0-.86,0l-.48.06a1.31,1.31,0,0,1-.39,0l-.13,0v0a.81.81,0,0,0,0-.36,1.05,1.05,0,0,0-.19-.34,1,1,0,0,1-.1-.27.5.5,0,0,1,0-.27.22.22,0,0,1,0-.09l0,0,0,0,0-.07a.27.27,0,0,0,0,.09.32.32,0,0,0,.08.14c.15.12.22.16.36.26a1.15,1.15,0,0,0,.54.15,2.42,2.42,0,0,0,.54,0H5a10.71,10.71,0,0,1,1.8-.54,5.21,5.21,0,0,1,1-.1,4,4,0,0,1,.92.11c.15,0,.37.07.42.1a.82.82,0,0,1,.28.19,3.51,3.51,0,0,1,.46.56c.25.38.47.77.69,1.17h0a.62.62,0,0,0-.23.07c0-.09-.06-.19-.1-.28a3.24,3.24,0,0,0-.2-.36A2.19,2.19,0,0,0,9.69,16.74Zm3.76-3.82h.05l0,0h0a.54.54,0,0,0-.18,0Zm.49-.26h0S13.94,12.66,13.94,12.66Zm-.26,2h0a1.24,1.24,0,0,0,0,.16,1.62,1.62,0,0,0,0,.2c-.06-.08-.13-.15-.19-.22Zm1.29-2Zm5.79,6.26ZM29.24,20,29,19.84,29,19.78l-.08-.08-.27-.34-.55-.71c-.35-.48-.73-1-1.09-1.44h0a.08.08,0,0,0-.07,0l-1-.15a1.72,1.72,0,0,0,0-.39,2,2,0,0,0-.21-.56,2.79,2.79,0,0,0-.35-.52l-.23-.25-.26-.22L24.78,15l-.05,0,0,0-.14-.09a1.82,1.82,0,0,0-.31-.19,5,5,0,0,0-.76-.31l-.41-.09-.43-.06h-.43l-.42,0a4.41,4.41,0,0,0-.82.16,4.22,4.22,0,0,0-.73.27,3.93,3.93,0,0,0-.64.36,3.67,3.67,0,0,1-.51.41.28.28,0,0,1-.29,0,1.19,1.19,0,0,0-.38-.13c-.17,0-.36.07-.38.19s0,.1,0,.13a.08.08,0,0,1,0,0l-.15,0a.36.36,0,0,0-.24.05.32.32,0,0,0-.08.09l0,.06a.57.57,0,0,0,0,.12v.17l-.12,0-.13,0a.52.52,0,0,0-.17,0,.35.35,0,0,0-.18.1.21.21,0,0,0-.05.11.43.43,0,0,0,0,.12v.09h0a.34.34,0,0,0-.26.18.34.34,0,0,0,0,.19s0,.09,0,.14,0,.09.05.14h0l-.21-.06a.69.69,0,0,0,0-.13,4.1,4.1,0,0,1,0-.57,1.18,1.18,0,0,0,0-.4,1.34,1.34,0,0,0-.25-.43c-.12-.14-.24-.28-.34-.42a1.17,1.17,0,0,1-.22-.45.62.62,0,0,1,0-.41,1.69,1.69,0,0,1,.36-.33l.21-.18a.94.94,0,0,0,.1-.1.38.38,0,0,0,.09-.17s0,0,0,0a.11.11,0,0,0,0-.07s0,0,0,0h0l0,0h0L16,13.28H15.9a.74.74,0,0,0-.24,0l-.28.1-.18.1h0a1.19,1.19,0,0,0,.08-.45,1.07,1.07,0,0,0,0-.25.5.5,0,0,0,0-.12,1.39,1.39,0,0,0-.06-.13.2.2,0,0,0-.06-.09.32.32,0,0,0-.26-.09s0,0-.09,0l-.13.07a.24.24,0,0,0-.06.09.52.52,0,0,0-.06.26V13a1.09,1.09,0,0,0-.08-.15l-.13-.23-.1-.12a.48.48,0,0,0-.14-.06.37.37,0,0,0-.3.05l0,0s0,0-.05.05a.93.93,0,0,0,0,.1.22.22,0,0,0,0,.08h0a.37.37,0,0,0-.23,0l-.11.06a.34.34,0,0,0-.15.25l-.09.08a1.61,1.61,0,0,0-.21.29l0,.08c-.13-.15-.25-.3-.4-.45a1.87,1.87,0,0,0-.29-.25L12,12.73l-.11,0h0s-.05,0-.05,0h0a.24.24,0,0,0-.13.07l0,.06a.38.38,0,0,0,0,.1l0,.13a.44.44,0,0,0-.23-.08.21.21,0,0,0-.12,0h-.05l0,0s0,0,0,.07a.13.13,0,0,0,0,.06,1,1,0,0,0,.16.41l0,.05h0a.75.75,0,0,0-.24-.1.25.25,0,0,0-.19,0l0,0v0a.11.11,0,0,0,0,.06.31.31,0,0,0,.09.19.67.67,0,0,0,.14.15l0,0a1.45,1.45,0,0,0-.3-.06.57.57,0,0,0-.28,0c-.08,0-.11.12-.09.16l0,.08.13.13.12.1a9.65,9.65,0,0,0,1,.65,5.89,5.89,0,0,0,.19,1.1,3.93,3.93,0,0,0,.19.58c0,.09.09.19.15.28a.83.83,0,0,0,.08.12L12,17.3a4.07,4.07,0,0,0-.71.16,1.33,1.33,0,0,0-.41.21l0,0a1.13,1.13,0,0,0-.18,0,4.28,4.28,0,0,0-.43-1.26,2.46,2.46,0,0,0-.46-.64,1.06,1.06,0,0,0-.42-.28l-.16-.05-.13,0-.24,0a4.51,4.51,0,0,0-1,0c-.34,0-.66.11-1,.18l-.94.22L4.91,16a1.23,1.23,0,0,1-.73-.13l-.27-.23s0-.11,0-.23a.29.29,0,0,0-.08-.26.43.43,0,0,0-.23-.1H3.56l.49-.23a5.2,5.2,0,0,1,.9-.39l.26.1a2.8,2.8,0,0,0,.31.09,1.92,1.92,0,0,0,.68.06l.28,0h0a.83.83,0,0,0,.13.14,1.13,1.13,0,0,0,.61.28,1.12,1.12,0,0,0,.48,0,1.88,1.88,0,0,0,.74-.41l.06-.07a.39.39,0,0,0,.08-.1.29.29,0,0,0,0-.24h0a1.2,1.2,0,0,0,.25-.13A1.07,1.07,0,0,0,9,13.94l.1-.07,0,0,0,0,0,0a.27.27,0,0,0,0-.19l0-.08a.69.69,0,0,0,.3-.26.25.25,0,0,0,0-.26.87.87,0,0,0-.17-.21,1.44,1.44,0,0,0-.22-.19,1.51,1.51,0,0,0-.28-.15l-.1,0c.36-.09.73-.19,1.09-.3a8.19,8.19,0,0,0,.79-.27l.19-.09a.94.94,0,0,0,.22-.15h0l0,0,0,0a.29.29,0,0,0,0-.1.25.25,0,0,0-.15-.28,1.36,1.36,0,0,0-.55-.09L10,11a6.82,6.82,0,0,0-.87.15c-.55.12-1.08.27-1.62.4s-1.08.25-1.63.36c-.27.06-.54.12-.82.2s-.26.09-.4.14l-.36.12c-.5.15-1,.29-1.56.43s-1.06.28-1.59.43v0c.57-.06,1.13-.14,1.68-.25a15,15,0,0,0,1.64-.38,2.74,2.74,0,0,0,.4-.15l.35-.14c.24-.1.5-.19.75-.27a13.6,13.6,0,0,1,1.58-.43c.54-.12,1.1-.21,1.65-.29.28,0,.56-.07.81-.08h.41a1.42,1.42,0,0,1,.25,0l0,0h0s0,0-.1,0l-.16.07-.74.25-1.55.47-.65.2.68.08.28.05.27.08a1.45,1.45,0,0,1,.25.1,1.35,1.35,0,0,1,.22.14c.14.11.26.21.24.32a.46.46,0,0,1-.16.22h0a1,1,0,0,0-.24-.21,3.71,3.71,0,0,0-1.66-.45l.44.23c.25.13.61.29.89.46l.17.13,0,.05s0,0,0,0,0,0,0,0l0,0v0h0l0,0h0v0l-.07.09L8.61,14a1.47,1.47,0,0,1-.1.13,1,1,0,0,0-.18-.17,3.14,3.14,0,0,0-.62-.33,4,4,0,0,0-.68-.2l.51.35a5.19,5.19,0,0,1,.46.36.46.46,0,0,1,.13.19s0,0,0,.06,0,0,0,0l-.06.06a1.86,1.86,0,0,1-.52.34.86.86,0,0,1-.55,0,1.77,1.77,0,0,1-.38-.15l.26-.07a1.52,1.52,0,0,0,.54-.27l0,0a6.19,6.19,0,0,1-1.19.13H5.6A3.93,3.93,0,0,1,5,14.3H4.92a6.39,6.39,0,0,1-1,.32c-.36.09-.7.2-1,.31a9.31,9.31,0,0,0-1,.38,7.66,7.66,0,0,0-.9.48l0,0a10.75,10.75,0,0,0,1.08-.24c.34-.1.67-.21,1-.34l0,0L3,15.42l-.1.11a.64.64,0,0,0-.11.22.81.81,0,0,0,0,.38,1.14,1.14,0,0,0,.16.36,2.55,2.55,0,0,1,.19.26.85.85,0,0,1,0,.29.29.29,0,0,0,.16.25.87.87,0,0,0,.32.09,1.52,1.52,0,0,0,.54-.06l.45-.1a4.56,4.56,0,0,1,.75-.06l-.19.21a4.75,4.75,0,0,0-.44.59c-.37-.08-.74-.18-1.09-.29l-.14-.05-.17-.05a1,1,0,0,0-.24,0,.58.58,0,0,0-.28,0,.31.31,0,0,0-.2.19.25.25,0,0,0,0,.21l0,0,0,0,0,.06v0h0a.16.16,0,0,0,0,.07.14.14,0,0,0,0,.07l0,.05a.24.24,0,0,0-.09.2.41.41,0,0,0,0,.07v0l.07.08a.16.16,0,0,0,0,.1l0,0h0v0h0a.23.23,0,0,0,0,.05l.06.05s0,0,0,0a.12.12,0,0,0,0,.14.26.26,0,0,0,.09.09h.1l.12,0H3.3l.32,0a3,3,0,0,1,.58,0,1.63,1.63,0,0,0,.28.07,1.54,1.54,0,0,0,.31.05v0a2.14,2.14,0,0,1-.27-.09l-.28-.11a2.44,2.44,0,0,0-.65,0H3.12l.09,0H3.3c.1,0,.14-.11.1-.18a.16.16,0,0,0-.08-.06c.07,0,.12-.07.13-.13s-.09-.17-.22-.18a.85.85,0,0,0-.16,0l0,0,.1,0h0c.13,0,.21-.13.17-.23a.16.16,0,0,0-.07-.07h0a.14.14,0,0,0,0-.24l-.1,0h0l.14,0,.16.05a9.06,9.06,0,0,0,1.3.25h0A.17.17,0,0,0,5,18.12a3.94,3.94,0,0,1,.38-.69,4,4,0,0,1,.26-.32,3,3,0,0,1,.32-.3,3.67,3.67,0,0,1,.38-.27,4.48,4.48,0,0,1,.44-.2L7,16.27l.24-.05.23,0H8l.24,0,.23.06.21.08a2.46,2.46,0,0,1,.39.22,2.88,2.88,0,0,1,.34.27,4.07,4.07,0,0,1,.75,1l0,.08c0,.12,0,.22,0,.33v.32a4.07,4.07,0,0,1-.08.61,1.74,1.74,0,0,1-.2.58l-.11.13a1.27,1.27,0,0,1-.12.1.88.88,0,0,1-.32.16,1.46,1.46,0,0,1-.82-.1,3.56,3.56,0,0,1-.91-.53v0a.26.26,0,0,1-.07-.11,1.55,1.55,0,0,1-.12-.22,1.86,1.86,0,0,1-.16-.47l0-.25a1.07,1.07,0,0,1,0-.25h0s0-.08-.07-.1a.13.13,0,0,0-.14.05v0a1.21,1.21,0,0,0-.12.35l-.09.09-.25.15-.28.11L5.82,19l-.28.12-.6.25v0a2.29,2.29,0,0,0,.74-.05,2.37,2.37,0,0,0,.66-.25,1.21,1.21,0,0,0,.24-.2l.1-.11a1.48,1.48,0,0,0,0,.21,1.66,1.66,0,0,0,.1.29s.06.08.09.13a3.22,3.22,0,0,0-.13.6,1.5,1.5,0,0,0,.13.85,1,1,0,0,0,.39.39,1.22,1.22,0,0,0,.31.12l.3.08c.4.08.79.13,1.19.18a16.14,16.14,0,0,0,2.41.07,5.27,5.27,0,0,0,1.22-.17,1,1,0,0,0,.26-.14.53.53,0,0,0,.2-.19.3.3,0,0,0,0-.38l.23-.08a6.83,6.83,0,0,1,1.26-.24c.42-.06.84-.1,1.22-.16l.55-.11a5.37,5.37,0,0,0,.91.41,8,8,0,0,0,1.12.32c.39.07.77.15,1.17.19s.79.08,1.19.11.8,0,1.2,0l1.19,0c.8,0,1.59-.08,2.37-.15L26.72,21l1.17-.11c.39-.05.79,0,1.19-.13a.93.93,0,0,0,.29-.12.27.27,0,0,0,.15-.24A.7.7,0,0,0,29.24,20Z"/><path class="cls-5" d="M20.25,15.61c-.18.57-.31.9-.31.9s1.14-1.36.25-1.49c0,0,.22.1.06.59"/><path class="cls-5" d="M20.19,15h0"/><path class="cls-5" d="M19.74,15.76s.09.09,0,.27a.64.64,0,0,0-.1.25s.75-.48.31-.78h-.31s.16.07.16.1-.41,0-.47.16.42,0,.42,0"/><path class="cls-5" d="M8.06,10.08h0l.11.07a2.53,2.53,0,0,0,.6.28.45.45,0,0,1-.3.11l-.11,0-.09,0,0,0,0,0-.07-.07a.51.51,0,0,1-.06-.27m5.66-2.49h0a2.87,2.87,0,0,1-.84.42,3.43,3.43,0,0,0-.52.23,2.16,2.16,0,0,0-.4.32,3.29,3.29,0,0,0-.62,1.54.65.65,0,0,1-.16.32c-.07.06-.12.05-.27,0a2.3,2.3,0,0,1-.76-.47l-.09,0a.28.28,0,0,0-.33.08h0a2.09,2.09,0,0,1-.14.17l-.1.08h0l-.14,0L9,10.14a3.81,3.81,0,0,1-.54-.23c-.16-.08-.28-.18-.28-.26v0c0-.06,0-.11-.14-.13a.23.23,0,0,0-.25.09,1,1,0,0,0-.06.21,1.5,1.5,0,0,0,0,.22.68.68,0,0,0,.18.42l.11.09.07,0,.06,0a.75.75,0,0,0,.16,0,.37.37,0,0,0,.18,0,.55.55,0,0,0,.28-.11l.08-.08.28.09.06,0a.6.6,0,0,1-.28.07,1.23,1.23,0,0,0-.55.15.59.59,0,0,0-.2.18.47.47,0,0,0-.05.1h0v0s0,0,0,0a1.25,1.25,0,0,1-.36,0,2,2,0,0,1-.81-.3,1.82,1.82,0,0,1-.29-.27l-.3-.3c-.2-.21-.42-.41-.6-.62A2.62,2.62,0,0,1,5.29,9a1.38,1.38,0,0,1-.11-.71.85.85,0,0,1,.4-.57L6,7.45H5.42a.65.65,0,0,1-.21-.06.28.28,0,0,1-.13-.15.8.8,0,0,1,0-.46c0-.09,0-.15.09-.25a1.73,1.73,0,0,1,.1-.24,3.2,3.2,0,0,1,.3-.45A1.49,1.49,0,0,1,6,5.49a.74.74,0,0,1,.23,0,.82.82,0,0,1,.2.12.68.68,0,0,1,.08.19,1.09,1.09,0,0,1,0,.26,2.36,2.36,0,0,1,0,.53h0a2.36,2.36,0,0,1-.2.41L7,7.4a2.92,2.92,0,0,1,.41-.66c.31-.37.73-.18,2.05-.26s.85-.48.85-.48a6.09,6.09,0,0,1,2.87.59H10.68l3.06.48-1.22.1c.46.18.85.31,1.21.42ZM3,7.13A2.06,2.06,0,0,0,3.67,7h0l.13.21.55-.06L4,7.42l.66-.06a.71.71,0,0,0,.28.26l.16,0A.83.83,0,0,0,5,7.83a1.19,1.19,0,0,0-.08.41A1.84,1.84,0,0,0,5.14,9a4.77,4.77,0,0,0,.25.43l-.29.11a4.23,4.23,0,0,0-.71.39,1.54,1.54,0,0,0-.49.51.51.51,0,0,0-.08.27A.56.56,0,0,1,4,10.44a1.72,1.72,0,0,1,.58-.4,4.84,4.84,0,0,1,.74-.27h0a.29.29,0,0,1,0,.09,1.09,1.09,0,0,1,0,.18v.17a1,1,0,0,1,0,.17c0,.05,0,.12,0,.15l-.08.13a1.49,1.49,0,0,1-.12.14L5,10.92l-.29.28-.34.27a3.52,3.52,0,0,1-.75.38c-.23-.2-.42-.43-.62-.64s-.41-.46-.61-.69l-.3-.36c-.1-.11-.19-.23-.28-.35s-.19-.24-.27-.37l-.25-.37H1.23a1.59,1.59,0,0,0,.06.43,2,2,0,0,0,.14.41,3.11,3.11,0,0,0,.22.4,3.37,3.37,0,0,0,.28.38,5.23,5.23,0,0,0,.71.7,7,7,0,0,0,.87.6l.06,0,.06,0,.85-.43a4.11,4.11,0,0,0,.85-.47,1.18,1.18,0,0,0,.3-.33.46.46,0,0,0,.09-.2.35.35,0,0,0,0-.2.74.74,0,0,0-.05-.19L5.61,10a1.74,1.74,0,0,0-.11-.18l-.07-.08h0l.15,0,.44.63.24.34a1.29,1.29,0,0,0,.33.33,2.13,2.13,0,0,0,1.06.37,1.71,1.71,0,0,0,.32,0,.88.88,0,0,0,.35-.11.31.31,0,0,0,.08-.07v0h0v0h0s0,0,0-.07a.34.34,0,0,1,.09-.12,1.05,1.05,0,0,1,.4-.17,1,1,0,0,0,.27-.09s0-.05.07-.08h0l.11,0h.21a1,1,0,0,0,.25-.11.77.77,0,0,0,.13-.12l0,0,.18.11a2.33,2.33,0,0,0,.55.24,1,1,0,0,0,.4,0,.73.73,0,0,0,.21-.06l.08-.06.06,0a.66.66,0,0,0,.13-.44,4,4,0,0,1,.07-.78,1.23,1.23,0,0,1,.43-.69,1.52,1.52,0,0,1,.41-.24A3.51,3.51,0,0,1,13,8.26a2.43,2.43,0,0,0,1-.48l.09-.09c1.76.46,2.23,0,2.38-.63.18-.78-.93-3.45-1.86-4.39a3.73,3.73,0,0,0-3-1c-1,0-1.19.29-1.19.29l.08-.44-.45.37-.58-.57.35.6A1.52,1.52,0,0,0,9,1.68a8.17,8.17,0,0,0-4,1C4.31,3.15,4.23,4.77,4,5.44a1.4,1.4,0,0,1-.6.85l.1.4,0,0A1.57,1.57,0,0,1,3,6.91a3.12,3.12,0,0,1-1-.07,3.64,3.64,0,0,1-.61-.16l-.21-.07,0,0A3.37,3.37,0,0,0,1.93,7,3.64,3.64,0,0,0,3,7.13Z"/><path class="cls-5" d="M11,8.25c-.23-.11-1.08-.34-1.08-.34l.64.36s-.5.28-.08.42A.34.34,0,0,0,11,8.44l.12.13.09-.07s.07-.14-.17-.25"/><path class="cls-5" d="M9.47,7.08a3.41,3.41,0,0,1,1.17.61c.29.34.53.82,1.2.62,0,0-.43-1-2.37-1.23"/></svg>