<svg id="Capa_1" data-name="Capa 1" xmlns="http://www.w3.org/2000/svg" viewBox="0 0 27.54 23.22"><defs><style>.cls-1{fill:#b3d335;}.cls-2{fill:#f5a4c7;}.cls-3{fill:#fbc9b5;}.cls-4{fill:#231f20;}</style></defs><title>8-3meses</title><path class="cls-1" d="M16,19.74a44.43,44.43,0,0,1-4.23-4c-.57-.88-1.84-3.88.06-4.89a27.46,27.46,0,0,1,6-1.73l3.07-.26L24,9.74a5.56,5.56,0,0,1,.89,2.54,12.84,12.84,0,0,1-1.38,4.79l-.54.84Z"/><path class="cls-2" d="M13.84,19.16,17,18.58H18.1a7.93,7.93,0,0,1-.28,1.82c-.21.54-.81,1.55-1.45,1.67a6.71,6.71,0,0,1-3.16-.92,3.89,3.89,0,0,1-.73-1.65Z"/><path class="cls-3" d="M12,18.85a3.48,3.48,0,0,0,1.14.83,5.2,5.2,0,0,0,2-.13,15.43,15.43,0,0,0,1.67-1Z"/><path class="cls-3" d="M14.11,20.06s-.55.43.18,1a2.58,2.58,0,0,0,2.31.52,9.41,9.41,0,0,0,1.82-.69,2.52,2.52,0,0,0,1,.59,1.65,1.65,0,0,1,.93.42c.11.14.7.51,1.08.28a5.43,5.43,0,0,1,1.24-.72,6.08,6.08,0,0,0,1-.41c.27-.1.39-.15.36-.28s0-.1.08-.36a.42.42,0,0,0-.41-.53c-.24,0-.05.18-.47.33a2.52,2.52,0,0,1-1,.15c-.08,0-.19.35-.43-.12s-.31-1.22-.65-1.5a5.14,5.14,0,0,0-.78-.5l-.29-.05-2.56.3s.43.26.43.38-.21.2-.24.21,0,.05-.48.07-2.6.23-3.21.9"/><path class="cls-3" d="M19,16a4.34,4.34,0,0,1-2.23-1.14C16,14,15.13,13,14.86,12.76a3,3,0,0,0-1.63-.65c-.81-.06-.73,0-.8,0a2.14,2.14,0,0,1-.4.22s-.39-.76-2-.75a2.34,2.34,0,0,0-2.53,1.91,4.86,4.86,0,0,0-.11,1.56c0,.15.51.21.51.21a7.82,7.82,0,0,0-.67,1.36c0,.23.26.35.32.41s.52.53.69.68.7.28.72.34.09.2.43.21.17.08.17.08a.64.64,0,0,0,.73.78,1.56,1.56,0,0,0,1.19-.4,14.52,14.52,0,0,1,1.8.09,4,4,0,0,0,1.41-.1,1.63,1.63,0,0,1-.5-.94c0-.45,0-.64,0-.64s3.14-.62,3.52-.77A10.91,10.91,0,0,1,19,16"/><path class="cls-3" d="M11.42,8a4,4,0,0,1-.93-1.17A2,2,0,0,1,10.41,6c0-.09-.43-1.12.1-1.25a14.87,14.87,0,0,1,2.73.15c.22,0,4.85.34,5.06.7A5.11,5.11,0,0,1,19,6.94,13.28,13.28,0,0,0,20.51,9a6.54,6.54,0,0,1-1,1.44,5.53,5.53,0,0,1-3.61,1.22c-1.91-.09-.25-1-.32-1.12a2.39,2.39,0,0,0-.53-.46,8.88,8.88,0,0,1-1.55-.44A4.4,4.4,0,0,1,12,8.33Z"/><path class="cls-4" d="M11.83,7.88l.54.42c.55-.12.54-.54.54-.54a1.66,1.66,0,0,1-1.08.12"/><path class="cls-4" d="M14.38,7.55s1.27,0,1.27-.68a3.88,3.88,0,0,1-1.58.31s.34.17.31.37"/><path class="cls-4" d="M13.87,8.61c0-.35,0-1.1-1.18-1.4s-1.53,0-1.38.55A.61.61,0,0,1,12,7.35c.57,0,1.54.27,1.66.68s-.51,1.2.91.89c0,0-.7,0-.67-.31"/><path class="cls-4" d="M15.89,8.87a7,7,0,0,1-1,.38c.91.45,1-.38,1-.38"/><path class="cls-4" d="M16.39,9.39a5.2,5.2,0,0,0-1,.17,1.43,1.43,0,0,0,1-.17"/><path class="cls-4" d="M24.75,13.29h0c0,.22-.06.44-.12.66a4.84,4.84,0,0,1-.19.65c-.06.22-.17.43-.25.64a12.51,12.51,0,0,1-.65,1.26c-.23.39-.49.77-.75,1.15-.93.17-1.89.31-2.85.43s-2,.24-3,.35l-.76.07-.28-.21a2.84,2.84,0,0,1-.26-.24,1.05,1.05,0,0,1-.24-.28.88.88,0,0,1-.09-.29,2.17,2.17,0,0,1-.07-.24s0-.11,0-.15a8.92,8.92,0,0,0,1.55-.23h.12a.23.23,0,0,0,.13-.07l.23-.1.38-.17a4.68,4.68,0,0,1,.8-.25,9.55,9.55,0,0,1,1.77-.16h.17V16c0-.4.08-.81.13-1.2l.17-1.2A9.46,9.46,0,0,1,21,12.39a2.7,2.7,0,0,1,.52-1.13l0,0a2.71,2.71,0,0,0-.85,1.09,8,8,0,0,0-.39,1.2A7.39,7.39,0,0,0,20,14.74a10.51,10.51,0,0,0,0,1.12c-.34.05-.68.11-1,.18a3.26,3.26,0,0,1-.44-.15l-.28-.11L18,15.65l-.25-.14-.24-.15c-.15-.11-.3-.22-.43-.33a4.85,4.85,0,0,1-.7-.74,4.56,4.56,0,0,1-.27-.39,3.19,3.19,0,0,1-.21-.41h0a1.49,1.49,0,0,0-.15-.2l-.17-.18c-.13-.11-.26-.22-.4-.32a5.56,5.56,0,0,0-1-.51L14,12.17l-.28-.09a2.51,2.51,0,0,0-.62-.1,1.73,1.73,0,0,0-.64.07.71.71,0,0,0-.31.21,2.14,2.14,0,0,0-.45-.32,5.13,5.13,0,0,0-.72-.28l.41-.3c.15-.1.33-.22.53-.33l.31-.17a3.36,3.36,0,0,1,.33-.16c.23-.11.47-.19.7-.28l.33-.11.32-.1.48-.14.08,0,.35.08.34.07h0a.63.63,0,0,1,.18.16.18.18,0,0,1,0,.24c0,.08-.19.17-.32.35a.7.7,0,0,0-.13.29.41.41,0,0,0,.16.36,1.47,1.47,0,0,0,1,.17c.31,0,.61-.07.92-.11l.93-.12a4.54,4.54,0,0,0,.91-.26,4.41,4.41,0,0,0,.75-.4,3.2,3.2,0,0,0,.94-.94,2.64,2.64,0,0,0,.23-.43l.12-.33,1.68.32a4.47,4.47,0,0,1,.88.19,1.66,1.66,0,0,1,.59.44,3.06,3.06,0,0,1,.6,1.21c.07.21.12.43.17.64a4.91,4.91,0,0,1,.06.65,4.85,4.85,0,0,1,0,.66M20.68,18.6h0a2,2,0,0,1,.33.27c0,.05.1.11.17.17a1.54,1.54,0,0,1,.17.19,1.21,1.21,0,0,1,.26.43,2.77,2.77,0,0,1,.1.5.64.64,0,0,0,.07.28l.07.08a.37.37,0,0,0,.14.08.42.42,0,0,0-.18.07,1.18,1.18,0,0,0-.27,0l-.19.05A2.88,2.88,0,0,0,21,20a5.24,5.24,0,0,0-.65-.7h0a2.64,2.64,0,0,0-.82-.23,5.69,5.69,0,0,0-.83-.06h-.52a.31.31,0,0,0,.06-.21.43.43,0,0,0-.09-.16c.64-.06,1.28-.14,1.91-.24l.2,0A1.39,1.39,0,0,1,20.68,18.6Zm1.45,1.72h0s0,0,0,0l0,0Zm1.57-.12h0l.11-.13h0a.12.12,0,0,1,.05.05.64.64,0,0,1,.08.14,1.27,1.27,0,0,1,.07.24.13.13,0,0,1,0,.06l-.09,0a.8.8,0,0,0-.26,0l-.33.05a.4.4,0,0,0-.13-.07A1,1,0,0,0,23.7,20.2Zm.09-.14h0s0,0,0,0Zm.16.77h0a.14.14,0,0,1-.08.09.85.85,0,0,1-.34.1.14.14,0,0,0-.11,0h0c-.09.09-.13.13-.22.14a1.73,1.73,0,0,1-.37,0l-.25,0a1,1,0,0,0-.21.1,1.61,1.61,0,0,0-.32.21,3.3,3.3,0,0,1-.53.38,1.2,1.2,0,0,1-.29.09.76.76,0,0,1-.3,0,1.58,1.58,0,0,1-.28-.08s0,0,0,0h0l0,0-.1-.14a.77.77,0,0,0-.34-.26,1.52,1.52,0,0,0-.46-.1l-.2,0-.16,0a1.61,1.61,0,0,1-.33-.12,1.53,1.53,0,0,1-.5-.39h-.18s0,0,0,0l-.07,0a.8.8,0,0,1-.16.08l-.34.14a7.39,7.39,0,0,1-.71.24,3.56,3.56,0,0,1-.73.19,3.05,3.05,0,0,1-.74,0A1.9,1.9,0,0,1,14.42,21a.78.78,0,0,1-.15-.22,1.78,1.78,0,0,1-.09-.23.37.37,0,0,1,.17-.38,1.89,1.89,0,0,1,.57-.27,4.91,4.91,0,0,1,.71-.19,7.3,7.3,0,0,1,.73-.15l.77-.09.78-.06.78,0a4,4,0,0,1,1.43.17,4.44,4.44,0,0,1,.69.6,2.59,2.59,0,0,1,.46.6l0,0a.2.2,0,0,0-.08.08.22.22,0,0,0,0,.25.58.58,0,0,0,.2.17v-.06a.64.64,0,0,1,0-.14.2.2,0,0,1,.06-.12h.16A.5.5,0,0,1,22,21a.69.69,0,0,1,.12.1l.05,0a.27.27,0,0,0,0-.21.31.31,0,0,0-.08-.13h.11l.1,0,.12.06.11.05.05,0a.11.11,0,0,0,0,0,.28.28,0,0,0,0-.1.23.23,0,0,0-.08-.13h0c.08,0,.35.1.36.1a.1.1,0,0,0,0,0s0-.05,0-.09v0h.21l.09,0,.12.09a.22.22,0,0,0,.07-.13.06.06,0,0,0,0-.06v0h.28c.15,0,.27.06.29.13a.17.17,0,0,1,0,.07S24,20.81,24,20.83Zm-7.51.92h0l-.27.06-.27,0a3.06,3.06,0,0,1-.66-.06c-.23,0-.47-.08-.7-.14a2.64,2.64,0,0,1-.65-.24,1.61,1.61,0,0,1-.47-.37,2.39,2.39,0,0,1-.26-.39L13,20.25c-.13-.24-.23-.44-.3-.58l-.05-.1a1.33,1.33,0,0,0,.24.1,2.82,2.82,0,0,0,.52.1l.29,0H14l.24,0a1.43,1.43,0,0,0-.24.16.63.63,0,0,0-.25.65,1.22,1.22,0,0,0,.14.28,1.09,1.09,0,0,0,.21.27,2.36,2.36,0,0,0,1.43.62,3.33,3.33,0,0,0,.84-.05,5.24,5.24,0,0,0,.76-.21l-.17.08A4.81,4.81,0,0,1,16.44,21.75Zm.5-3h.11l.69-.07a.47.47,0,0,0,0,.16.32.32,0,0,0,.09.17l-.75.05-.64.07.07,0A3.53,3.53,0,0,0,16.94,18.79Zm-4.78.12h0l.33,0,.75,0H14c.51,0,1,0,1.52-.06l.76-.05-.06,0-.4.14-.42.18c-.29.13-.6.25-.92.38l-.26.07-.26,0h-.25l-.24-.07-.4-.2-.36-.15A2.56,2.56,0,0,1,12.16,18.91Zm2.57-.27h0l-.13-.13a2.12,2.12,0,0,1-.21-.27,1,1,0,0,1-.13-.33,1.22,1.22,0,0,1,0-.33,2.81,2.81,0,0,0,0-.3,1.11,1.11,0,0,1,0-.17c.24,0,.48,0,.72,0l-.08.09a.44.44,0,0,0-.06.16.45.45,0,0,0,0,.2,1,1,0,0,0,.27.36,2.48,2.48,0,0,0,.36.28,2.61,2.61,0,0,0,.37.19l.32.13Zm.79-5.07h0a3.87,3.87,0,0,0,.27.43,3,3,0,0,0,.32.41,5.7,5.7,0,0,0,.8.74c.15.11.32.21.49.31a1.3,1.3,0,0,0,.26.14l.28.14.28.12.3.1.39.1-.48.1-.88.2c-.15,0-.28.08-.42.12l-.15,0-.06-.07a1.54,1.54,0,0,0-.19-.17,4.27,4.27,0,0,0-.44-.3l-.45-.27a5.11,5.11,0,0,0-.46-.28,1.43,1.43,0,0,0,.28-.13,1.53,1.53,0,0,0,.43-.3,1.11,1.11,0,0,0,.13-.17l0,0a1.24,1.24,0,0,1-.22.1,2.42,2.42,0,0,1-.49.14c-.09,0-.19,0-.27,0a1,1,0,0,0-.21.09l-.12.07-.06,0a3.43,3.43,0,0,0-.64,0,3.19,3.19,0,0,0-.54.07l.07-.05a1.28,1.28,0,0,0,.43-.79,1.25,1.25,0,0,0-.21-.81,1.43,1.43,0,0,0-.81-.6c-.18-.07-.42-.08-.51-.13s-.17-.19-.24-.31a1.37,1.37,0,0,0-.19-.23.81.81,0,0,1,.33-.14,1.75,1.75,0,0,1,.51,0,4.5,4.5,0,0,1,.49.14l.23.1.24.11.44.22.43.25a2.6,2.6,0,0,1,.38.27l.17.14.14.15Zm-3,4.61h0a.43.43,0,0,0,.1-.09l0,0a1.3,1.3,0,0,0,.44,0,.44.44,0,0,0,.15-.05l.12-.07a.24.24,0,0,0,.12-.21.1.1,0,0,0,0-.07.66.66,0,0,0,.13-.08.24.24,0,0,0,.12-.18.17.17,0,0,0-.07-.13.55.55,0,0,0-.15-.08,1.53,1.53,0,0,0-.55,0,1,1,0,0,0-.23.06l.23,0c.13,0,.31.05.44.09l.07,0,0,0a.13.13,0,0,1,0,.12.31.31,0,0,1-.05.1v0l-.15,0a1.32,1.32,0,0,0-.28,0,4.9,4.9,0,0,0-.54,0v0H13l.24,0c.07,0,.12.06.11.09a.18.18,0,0,1-.09.11l-.08,0-.1,0a1.46,1.46,0,0,1-.46,0l-.11.17c-.09-.05-.05-.06-.07-.07s0,0,0,0h0l0,0L12.3,18l-.2.14-.42.25a9.44,9.44,0,0,1-.9.45,2,2,0,0,1-.46.14.46.46,0,0,1-.2,0S10,19,10,19a.47.47,0,0,1-.2-.27,1.56,1.56,0,0,1-.1-.37c0-.12,0-.25,0-.38a.42.42,0,0,1,.1-.32,5.31,5.31,0,0,1,.73-.57.53.53,0,0,0,.16-.2s0-.13-.09-.14a.36.36,0,0,0-.17,0,2.8,2.8,0,0,0-.59.07l-.19.07.18-.07.28-.07a1.53,1.53,0,0,0,.35-.08.26.26,0,0,0,.18-.17.19.19,0,0,0,0-.08.16.16,0,0,0-.05-.11.61.61,0,0,0-.42-.14,2.64,2.64,0,0,0-.49,0A1.67,1.67,0,0,0,9.78,16a.48.48,0,0,0,.18-.25.21.21,0,0,0-.06-.21.55.55,0,0,0-.3-.11H9.52s0-.1-.14,0a2.3,2.3,0,0,1-1.08-.1c-.44-.1-.59-.53-.29-.64s.48.14.77.22a1.43,1.43,0,0,0,.68-.05,1.79,1.79,0,0,1-.71-.21h.41A.54.54,0,0,1,8.64,14c.08-.18-.34-.9-.34-.9l.37.5-.22-.7.78.87-.25-1,.46.45-.27-.76.64.26-.47-.42,1.08.37-.66-.5,1.21.29-.35-.35.7.24-.46-.41.91.41-.45-.38.23.1a1.86,1.86,0,0,1,.48.33h0a1.46,1.46,0,0,1,.16.21l.06.11a.39.39,0,0,0-.36,0,.67.67,0,0,0-.3.43s.11-.46.73-.37a.48.48,0,0,0,.14.15l.14.06.14,0a.9.9,0,0,1,.23.08,1,1,0,0,1,.57.54,1.33,1.33,0,0,1,.11.7,1.09,1.09,0,0,1-.32.64,2.52,2.52,0,0,1-.73.49,7.57,7.57,0,0,1-.85.23l-.44.1a3.57,3.57,0,0,1-.46,0v0a2.63,2.63,0,0,0,.49,0l.48,0a7.42,7.42,0,0,0,.94-.18h0a4,4,0,0,0,.51-.24h.87a4.71,4.71,0,0,1,.54,0,3.4,3.4,0,0,1,.53.08,2.05,2.05,0,0,1,.49.18,2.14,2.14,0,0,1,.41.29,1.86,1.86,0,0,1,.23.26l-.08,0a7.15,7.15,0,0,0-.7-.2c-.23-.06-.48-.11-.73-.15a3.29,3.29,0,0,0-.77,0v0c.45.15.87.33,1.31.49l.67.22.1,0c-.87.14-1.78.22-2.69.33a.11.11,0,0,0,0-.06.24.24,0,0,0-.1-.19.31.31,0,0,0-.15-.08.47.47,0,0,0-.2,0,1.1,1.1,0,0,0-.53.17.61.61,0,0,0-.18.13l.25-.05a3.7,3.7,0,0,1,.48-.08h.09l.08,0a.24.24,0,0,1,.12.1l0,.05-.14,0v0h.17a.18.18,0,0,1,0,.05.07.07,0,0,0,0,0l.5,0-.09.12a.67.67,0,0,0-.12.35.53.53,0,0,0,0,.2,1.19,1.19,0,0,0,.08.2,1.49,1.49,0,0,0,.61.61.33.33,0,0,0,.1.06L14,18.7l-.37,0h-.38l-.75,0-.85,0,.28-.18.42-.28Zm-3-2.42h0S9.54,15.75,9.55,15.76ZM9.28,18h0a1.82,1.82,0,0,0,0,.33v0a.8.8,0,0,1-.39-.16s0,0,0-.1a.3.3,0,0,0,0-.12.37.37,0,0,0-.07-.12.81.81,0,0,0-.28-.17l-.14,0-.1,0H8.19s0-.06,0-.1l0-.18-.17,0a.72.72,0,0,1-.25,0,.22.22,0,0,1-.16-.13.25.25,0,0,1,0-.19.59.59,0,0,1,.13-.19,3.56,3.56,0,0,1,.42-.32l.45-.28a2.82,2.82,0,0,1,.46-.23l.09,0,.15,0,.23,0a1.12,1.12,0,0,1-.05.13l-.12.2-.06.08a2.81,2.81,0,0,0-.54.17,1,1,0,0,0-.39.39,1.6,1.6,0,0,0-.17.44h0a2.63,2.63,0,0,1,.28-.4,1,1,0,0,1,.39-.3,2.21,2.21,0,0,1,.56-.12,3,3,0,0,1,.59,0l.15,0s0,0,0,0h0l-.26,0-.34.08a2.09,2.09,0,0,0-.3.14,1,1,0,0,0-.23.21.87.87,0,0,0-.17.47v.72l.23-.7a.77.77,0,0,1,.24-.32,1.38,1.38,0,0,1,.44-.21,3.29,3.29,0,0,1,.54-.05l.11,0s0,0,0,0a.67.67,0,0,1-.15.13,4.08,4.08,0,0,0-.86.56A.63.63,0,0,0,9.28,18ZM7.46,16.88h0s0,.08,0,.12h0l-.07-.07,0,0v-.05s0-.07,0-.11l.05-.13a3,3,0,0,1,.16-.3c.05-.11.13-.22.18-.32l.15-.3c0-.09.07-.17.09-.23a6.91,6.91,0,0,0,.79.16,2.23,2.23,0,0,0-.46.27,2.12,2.12,0,0,0-.71.79A1.07,1.07,0,0,0,7.46,16.88Zm1.37-1.33h0a3,3,0,0,1-.32-.09,3,3,0,0,0,.5,0Zm9.28-8.29h0a.08.08,0,0,1,0,0s0,0,0,0Zm.11,0h0s0,0,0,0ZM13,9.22h0a2.64,2.64,0,0,1-.64-.5,2.13,2.13,0,0,0-.6-.6c-.23-.15-.43-.28-.61-.42l-.26-.2a1.66,1.66,0,0,1-.19-.18A.81.81,0,0,1,10.52,7a.46.46,0,0,1,0-.23v0a1.19,1.19,0,0,0,0-1.36,19,19,0,0,0,5.12.84s.15.06.34.16c-.62,0-1.81,0-2.33,0-.72,0-.45.6-.45.6a2.91,2.91,0,0,1,1.65-.52L16,6.37c.33.18.8.49.88.84l-.12-.56.42.9S17.34,5.37,18,6s.82,1.1.53,1.47c0,0,0,0,0,0a.28.28,0,0,0-.1-.27l-.1-.07h-.05l-.05.09,0,0A.38.38,0,0,0,18.08,7c0-.08-.18-.12-.2-.15a.09.09,0,0,1,0-.13A.5.5,0,0,0,18,6.61a.45.45,0,0,0,0-.11c0-.07,0-.13,0-.17a.09.09,0,0,1,0-.07v0a.27.27,0,0,0-.18,0,.4.4,0,0,0-.23.21.27.27,0,0,0,0,.15.38.38,0,0,0,.1.17l.14.17c.08.06.09.09.06.13s-.07.07-.09.14a.26.26,0,0,0,0,.24.42.42,0,0,0,.46.17.46.46,0,0,0,.21-.08h0c-.42.36-.45.21-.45.21s0,.25.87.76,1.05.82,1.68.72a5.81,5.81,0,0,1-.46.55,7.87,7.87,0,0,1-.92.84,3.77,3.77,0,0,1-.63.39,5.67,5.67,0,0,1-.74.33l-.43.13-.44.08a3.26,3.26,0,0,1-.88,0,1.17,1.17,0,0,1-.61-.17c-.08-.07-.07-.21,0-.34s.23-.24.27-.42a.39.39,0,0,0-.2-.39l-.06,0a3.69,3.69,0,0,0,.47,0,1.71,1.71,0,0,0,.54-.13,2.48,2.48,0,0,0,.43-.22,2.89,2.89,0,0,0,.57-.51,2.76,2.76,0,0,0,.49-.88A1.59,1.59,0,0,0,18,8.15h0a3.75,3.75,0,0,1-.22.32,6.48,6.48,0,0,1-.65.77,4.85,4.85,0,0,1-.52.46,2,2,0,0,1-.7.37,2.27,2.27,0,0,1-1,0,4.37,4.37,0,0,1-1-.34A9.62,9.62,0,0,1,13,9.22ZM10.32,7h0V7a.74.74,0,0,0,.1.43l.06.09C10.32,7.31,10.25,7.12,10.32,7Zm14.82,5a4.82,4.82,0,0,0-.15-.68A3.11,3.11,0,0,0,24.3,10a2,2,0,0,0-.77-.51A3.1,3.1,0,0,0,23,9.36l-.37,0-.26-.19a1.54,1.54,0,0,0-.48-.26,1.62,1.62,0,0,0,0-.19.52.52,0,0,0-.58-.39,6.89,6.89,0,0,0-1.65-3.23,7.24,7.24,0,0,0-5.57-2.4c-2.67,0-4.51,1-4.61,2.11,0,0-.77,0-.73,1.38s.11,2.46,3.07,2.6l.14.16a2.9,2.9,0,0,0,.81.55,5.27,5.27,0,0,0,1,.39,5.08,5.08,0,0,0,.52.15,4.12,4.12,0,0,0-.46,0,2.47,2.47,0,0,0-.36,0,3,3,0,0,0-.39.08,4.71,4.71,0,0,0-.8.27,3.3,3.3,0,0,0-.67.4,2,2,0,0,0-.26.22,1.8,1.8,0,0,0-.19.21,1.09,1.09,0,0,0-.23.41,5.39,5.39,0,0,0-1.41-.2,4.52,4.52,0,0,0-1.16.17,3.82,3.82,0,0,0-1,.46,3,3,0,0,0-.72.65,2.9,2.9,0,0,0-.25.36,1.7,1.7,0,0,0-.18.39,1.14,1.14,0,0,0,0,.85,1,1,0,0,0,.12.19l0,.05,0,0,.07.08a2.55,2.55,0,0,0,.4.32,4.84,4.84,0,0,0,1,.4,1.17,1.17,0,0,0-.25.15,2.12,2.12,0,0,0-.56.59,1.08,1.08,0,0,0-.08.19,1.33,1.33,0,0,0,0,.19,1.23,1.23,0,0,0,0,.2.42.42,0,0,0,.11.18l.08.06.1,0a.34.34,0,0,0,.16,0h.07a.22.22,0,0,0,0,.08.38.38,0,0,0,.19.23l.15.07a.22.22,0,0,0,0,.14.29.29,0,0,0,.1.15.33.33,0,0,0,.1.06l.07,0,.14,0,.11,0a.4.4,0,0,1,.13.06.08.08,0,0,1,0,0l0,.06a.35.35,0,0,0,.18.22.9.9,0,0,0,.6,0v.08a2.17,2.17,0,0,0,.09.41.79.79,0,0,0,.3.42.9.9,0,0,0,.38.12,1.4,1.4,0,0,0,.36,0,2,2,0,0,0,.59-.18,4.52,4.52,0,0,0,.49-.25l.52,0a.29.29,0,0,0,0,.14,1,1,0,0,0,.4.43l0,0a1.52,1.52,0,0,0,0,.19,1.66,1.66,0,0,0,.1.64c0,.07,0,.14.07.21l0,.05,0,.06.06.1a1.84,1.84,0,0,0,.47.4l.58.33c.2.11.4.23.62.33a3.54,3.54,0,0,0,.69.27,3.85,3.85,0,0,0,.78.12,2,2,0,0,0,.42,0,1.72,1.72,0,0,0,.36-.09,3.16,3.16,0,0,0,.55-.26,2.53,2.53,0,0,0,.37-.28,1.81,1.81,0,0,0,.24-.23l.09-.11.26-.1.17-.08.07,0a1.76,1.76,0,0,0,.45.4,1.8,1.8,0,0,0,.37.17,1.16,1.16,0,0,0,.22.06l.2,0a.65.65,0,0,1,.49.26.67.67,0,0,1,.06.12.56.56,0,0,1,.05.08l.05.05.07.05a1.49,1.49,0,0,0,.45.15,1.74,1.74,0,0,0,.51,0,1.58,1.58,0,0,0,.45-.15,3,3,0,0,0,.59-.44c.09-.07.17-.14.25-.19a.38.38,0,0,1,.13-.06.37.37,0,0,1,.14,0,3.22,3.22,0,0,0,.44-.08.57.57,0,0,0,.22-.11l.1-.1.18-.05a.7.7,0,0,0,.23-.11.3.3,0,0,0,.13-.19.31.31,0,0,0,0-.1.21.21,0,0,0,0-.1h0l.08-.15a.81.81,0,0,0,0-.29.62.62,0,0,0,0-.18.36.36,0,0,0-.18-.23.47.47,0,0,0-.28-.07.73.73,0,0,0-.28.06,1,1,0,0,0-.25.2,1.18,1.18,0,0,1-.41.17,3.65,3.65,0,0,1-.61.13l-.09,0h0a1,1,0,0,1-.14-.2,5.11,5.11,0,0,1-.22-.48c-.06-.16-.1-.32-.15-.48a2.34,2.34,0,0,0-.09-.24.8.8,0,0,0-.13-.21,1.3,1.3,0,0,0-.43-.34.75.75,0,0,0-.13-.06c.73-.11,1.45-.24,2.17-.4l.09,0,0-.06a22,22,0,0,0,1.23-2.55c.16-.44.34-.87.47-1.31.08-.21.14-.44.2-.66a4.83,4.83,0,0,0,.11-.68A3.76,3.76,0,0,0,25.14,12Z"/><path class="cls-4" d="M12.8,16.52l.16,0a.37.37,0,0,1,.12,0,.34.34,0,0,1,.15,0,.19.19,0,0,1,.1.1.34.34,0,0,1,.05.15h0a.48.48,0,0,0,.11-.16.22.22,0,0,0,0-.22.57.57,0,0,0-.39-.21h-.25l-.23,0a2.32,2.32,0,0,0-.45.13,3,3,0,0,0-.4.21,1.05,1.05,0,0,0-.31.28c-.1.1-.14.22-.22.31a.74.74,0,0,1-.36.14l-.42.07a3,3,0,0,0-.36.14.71.71,0,0,0-.38.37.43.43,0,0,0,0,.17h0l.16-.1a1.69,1.69,0,0,1,.42-.19,3.07,3.07,0,0,0,.32-.11A1.57,1.57,0,0,0,11,17.4a2,2,0,0,0,.36-.25.86.86,0,0,1,.3-.23c.12-.07.25-.11.38-.17l.37-.13.35-.1"/><path class="cls-4" d="M20.65,22h0"/><path class="cls-4" d="M10.78,13.35c-1.07-.57-1.27.71-1.27.71a3,3,0,0,1,.42-.59c.28-.31.85-.12.85-.12"/><path class="cls-4" d="M10.69,13.72s0,0,.17,0,0-.2-.35-.15-.56.34-.53.5a.81.81,0,0,1,.21-.24s0,.15.3.1.32-.21.2-.26"/><path class="cls-4" d="M12.05,13.12s.09.16.17.11.11-.13,0-.18,0-.07.17,0-.06-.2-.3-.09-.07.38-.07.38a.16.16,0,0,1,0-.2"/><path class="cls-4" d="M12.49,14.05s.13-.21,0-.3a2,2,0,0,0-.62-.11s.65.1.61.41"/><path class="cls-4" d="M12.8,14.82c.63-.22,0-.49.18-.76a5.38,5.38,0,0,1-1.21.68,1.14,1.14,0,0,0,1,.08"/><path class="cls-4" d="M13,14.89c.11.12.14,0,.23-.21,0,0-.34.1-.23.21"/></svg>