<svg id="Capa_1" data-name="Capa 1" xmlns="http://www.w3.org/2000/svg" viewBox="0 0 33.12 23.4"><defs><style>.cls-1{fill:#fbcabb;}.cls-2{fill:#231f20;}.cls-3{fill:#6d6f71;}</style></defs><title>2-12meses</title><path class="cls-1" d="M29.36,22s-.08-.78-1.4-1.29-3.41-1.24-1.88-2.49,1.13-.7,2-1.18,1.75-2.9,1.48-3.57-3.58-3.85-6.6-4.07a19.27,19.27,0,0,0-6.82,1.24,5.43,5.43,0,0,0-.25,2.12c.15.91.6,1.75.28,2.47a1.82,1.82,0,0,0,0,1.91A12.1,12.1,0,0,0,19,18.86a3.73,3.73,0,0,1-1.42.41c-.95.12-2.28.26-2.36,1.27A3.37,3.37,0,0,0,15.39,22Z"/><path class="cls-2" d="M2.33,7.06h0a5,5,0,0,1,3-1.64,12.33,12.33,0,0,1,3.43-.14,16.5,16.5,0,0,1,1.72.22,9.86,9.86,0,0,1,1.64.42,4.17,4.17,0,0,1,1.4.8A1.35,1.35,0,0,1,13.89,8a3.5,3.5,0,0,1-.83,1.38,8.89,8.89,0,0,1-1.31,1.12l0,0h0a3.23,3.23,0,0,0-.25.29c-.07.1-.13.2-.19.3a2.87,2.87,0,0,0-.3.67,3.24,3.24,0,0,0-.1,1.45,4.13,4.13,0,0,0,1.21,2.12,6.56,6.56,0,0,1-1.85-1.49,2.69,2.69,0,0,1-.55-1.14,2.34,2.34,0,0,1,.07-1.23l.14-.42-.43.06a13.5,13.5,0,0,1-3.42,0,10.57,10.57,0,0,1-1.67-.36A6.18,6.18,0,0,1,2.85,10a2.18,2.18,0,0,1-1-1.35,2,2,0,0,1,.43-1.62M1.66,8.73a2.62,2.62,0,0,0,1,1.6A7.13,7.13,0,0,0,6,11.74a10.9,10.9,0,0,0,1.8.13,13.55,13.55,0,0,0,1.41-.1,2.64,2.64,0,0,0,.05,1.12A3.09,3.09,0,0,0,10,14.17a4.79,4.79,0,0,0,1.1.87,6.41,6.41,0,0,0,1.25.57l.1,0-.07-.09a6.56,6.56,0,0,1-.73-1.1,3.62,3.62,0,0,1-.36-1.23A2.71,2.71,0,0,1,11.43,12a3.14,3.14,0,0,1,.29-.54,1.44,1.44,0,0,1,.18-.25,1.71,1.71,0,0,1,.18-.2,8.85,8.85,0,0,0,1.43-1.11,3.77,3.77,0,0,0,1.05-1.68,2,2,0,0,0,0-1.11A2.35,2.35,0,0,0,14,6.18a4.37,4.37,0,0,0-1.67-.94,10.79,10.79,0,0,0-1.77-.4,13.23,13.23,0,0,0-1.78-.16,11.16,11.16,0,0,0-3.54.38,7.36,7.36,0,0,0-1.67.69A4.36,4.36,0,0,0,2.17,6.93,2.39,2.39,0,0,0,1.66,8.73Z"/><path class="cls-2" d="M22.23,13.75A5.12,5.12,0,0,1,25,15S22.14,13.58,21.21,14l-.33.17s-.12-.47,1.35-.37"/><path class="cls-2" d="M19.2,16.31a1,1,0,0,1-1-.22c-.39-.23-.18-.33.33-.88s0-1.05-.42-1.48-1.63-.22-1.63-.22V13.4a1.9,1.9,0,0,1,2.47.88c.21.75-.33,1-.51,1.44s.78.59.78.59"/><path class="cls-2" d="M22.53,15.22c-.45.1-.93-.12-.86-.28a.63.63,0,0,0,.08-.25l-.32,0s0-.27.59-.17a15.6,15.6,0,0,1,1.85.54l-1.09-.16s.19.23-.25.34"/><path class="cls-2" d="M17.37,14.27a1.41,1.41,0,0,0-.52.12c-.09-.37.64-.28,1.11-.14s.45.28.45.28c-.57-.15-.08.19-.45.28a.52.52,0,0,1-.65-.28c-.09-.2.23-.23.06-.26"/><path class="cls-2" d="M25.51,16.59l-.05.05Z"/><path class="cls-2" d="M27.31,16.55a.51.51,0,0,0,.2,0,.12.12,0,0,0,.1,0,.3.3,0,0,0,0-.11.94.94,0,0,0,0-.12h0l.09.11a.26.26,0,0,1,0,.16c0,.07-.1.16-.24.18a.7.7,0,0,1-.38,0,.42.42,0,0,1-.15-.12c-.05-.1.06-.16.08-.17a.46.46,0,0,0,.21-.44,1.12,1.12,0,0,1,0-.27.16.16,0,0,1,.06-.1l.1-.06.15-.06.25-.13a1.58,1.58,0,0,1,.29-.12.54.54,0,0,1,.22,0,.18.18,0,0,1,.13.1.23.23,0,0,1,0,.16.52.52,0,0,1-.06.12h0l0-.12s0-.08-.06-.1,0,0-.07,0l-.2.12a1.57,1.57,0,0,1-.29.14l-.16.05c-.06,0,0,0-.05,0a1.61,1.61,0,0,1-.07.25,3.17,3.17,0,0,1-.24.49c0,.05,0,.06,0,0l.08,0"/><path class="cls-2" d="M17.65,18.46h0Z"/><path class="cls-2" d="M15.24,20.19a3.68,3.68,0,0,1,.31-.38.86.86,0,0,1,.2-.18.79.79,0,0,1,.25-.17,1.57,1.57,0,0,1,.28-.12l.07,0h.1l.14,0,.56-.12c.36-.08.7-.13,1-.17l.43,0-.14-.06a7.24,7.24,0,0,1-.79-.39,10,10,0,0,1-1.13-.74,3.13,3.13,0,0,1-.45-.44A1.05,1.05,0,0,1,15.9,17a.91.91,0,0,1-.13-.26,1.25,1.25,0,0,1,0-.54,3.16,3.16,0,0,1,.13-.53,2.35,2.35,0,0,0,.13-1l0-.24-.08-.26c0-.15-.12-.33-.16-.5a5.47,5.47,0,0,1-.17-1,7.36,7.36,0,0,1,0-1.05,1.11,1.11,0,0,1,0-.19c0-.07-.08-.16-.12-.25-.59-1.31.72-2.73,2.17-3.51s2.87-1.21,6.25-1,6.51,2.67,6.89,5a4.56,4.56,0,0,1-1.28,4C29.09,16.23,28,17.8,28,17.8v-.68l-.87,1.17v-.63l-.51.69.17-.7-.21.21c-.1.09-.17.18-.26.27l-.24.26-.12.14-.12.13a1.22,1.22,0,0,0-.17.29.8.8,0,0,0,0,.15.41.41,0,0,0,0,.16.51.51,0,0,0,.07.15l.11.14h0l.17.13.21.12.46.19.49.17.25.07.27.09a3,3,0,0,1,.95.54,1.76,1.76,0,0,1,.53.75l-.06,0a7.16,7.16,0,0,0-.82-.53c-.15-.07-.29-.15-.44-.21s-.3-.12-.44-.18l-.25-.09-.27-.1a3.22,3.22,0,0,1-.5-.23A1.55,1.55,0,0,1,26,20a1.45,1.45,0,0,1-.18-.17,1.49,1.49,0,0,1-.15-.2h0a1.47,1.47,0,0,1-.15-.34.47.47,0,0,1,0-.17,1.13,1.13,0,0,1,0-.18,1.47,1.47,0,0,1,0-.36.64.64,0,0,1,.06-.18,1.4,1.4,0,0,1,.09-.17,2.28,2.28,0,0,1,.63-.56,3.48,3.48,0,0,1,.85-.38l0,0L27.6,17c.78-.51,1.61-1.74,1-2s-1.56.45-1.56.45a1.58,1.58,0,0,1-.81.9l.12-.68-.88,1a3,3,0,0,0,.67-2.11A3.8,3.8,0,0,0,24.56,12l.51,1.26-2.62-1.86,1.18,2.12-1.89-1.69.34,1.42-1-1,.4.89L19.8,11.64l.51,1.54-1.9-.8.64.67-2-1.6.79,1.5-1.9-1.37.53,1.17a2,2,0,0,1-.47-.59c0,.16,0,.31.06.46,0,.34.11.68.18,1,0,.18.07.33.09.52l0,.26c0,.09,0,.19,0,.28a4.6,4.6,0,0,1-.3,1,1.89,1.89,0,0,0-.12.51.81.81,0,0,0,.09.48.83.83,0,0,0,.15.23,1.19,1.19,0,0,0,.19.2,4.05,4.05,0,0,0,.5.37l.55.33.6.3h0a7.39,7.39,0,0,0,.75.34c.26.1.53.18.8.26a8.39,8.39,0,0,0,.84.18l.43,0h.43l.42,0a3.39,3.39,0,0,0,.44-.08c.28-.05.57-.13.85-.21a15.31,15.31,0,0,0,1.64-.61l0,0a7.62,7.62,0,0,1-1.5.81,5.56,5.56,0,0,1-.87.3l-.48.11-.5.07h-.24a2.42,2.42,0,0,1-.27,0,4.38,4.38,0,0,1-.51,0,6,6,0,0,1-1-.19L19,19.06a3.89,3.89,0,0,1-.64.25,3.22,3.22,0,0,1-.47.13,3.15,3.15,0,0,1-.55.1l-.59.07h-.19s0,0,0,0h-.07a2,2,0,0,0-.29,0,.74.74,0,0,0-.43.22.46.46,0,0,0-.16.36c0,.13,0,.25,0,.36v.32c0,.2,0,.37,0,.49a1.81,1.81,0,0,1,0,.2l-.05,0a1.3,1.3,0,0,1-.39-.69,1.07,1.07,0,0,1,0-.36.94.94,0,0,1,.19-.39"/><path class="cls-2" d="M20.67,18.35c.23.11.36.28.28.3s-1.07-.07-1-.3a1.5,1.5,0,0,1,.72,0"/><path class="cls-2" d="M21.67,17.43s-1.6.72-2.32.29a3.3,3.3,0,0,1-.94-.72A2.14,2.14,0,0,1,20,17c1,.29,1.72.43,1.72.43"/><polygon class="cls-3" points="5.7 6.55 5.26 6.55 5.26 6.24 6.63 6.24 6.63 6.55 6.18 6.55 6.18 7.96 5.7 7.96 5.7 6.55"/><polygon class="cls-3" points="7.91 7.21 7.34 7.21 7.34 7.67 7.98 7.67 7.98 7.96 6.85 7.96 6.85 6.24 7.94 6.24 7.94 6.53 7.34 6.53 7.34 6.93 7.91 6.93 7.91 7.21"/><polygon class="cls-3" points="8.55 6.55 8.11 6.55 8.11 6.24 9.48 6.24 9.48 6.55 9.04 6.55 9.04 7.96 8.55 7.96 8.55 6.55"/><path class="cls-3" d="M10.38,7.31h0L10.3,7c0-.11-.06-.28-.08-.39h0c0,.11-.06.29-.09.39L10,7.31ZM10,7.57,9.86,8H9.39l.54-1.72h.59L11,8h-.47l-.11-.39Z"/><path class="cls-3" d="M6.3,9.6h.07c.25,0,.36-.12.36-.28s-.09-.27-.32-.27l-.11,0Zm-.49-.78a3.64,3.64,0,0,1,.51,0A1.23,1.23,0,0,1,7,8.92a.42.42,0,0,1,.21.37A.5.5,0,0,1,7,9.71a1.13,1.13,0,0,1-.61.16H6.3v.64H5.81Z"/><path class="cls-3" d="M8.12,9.86h0L8,9.5C8,9.39,8,9.22,8,9.11h0c0,.11-.06.29-.09.39l-.09.36Zm-.41.26-.11.39H7.13l.54-1.72h.58l.49,1.72H8.27l-.11-.39Z"/><path class="cls-3" d="M9,10.51V8.79h.45l.38.67c.08.14.2.36.27.51h0a7.52,7.52,0,0,1-.05-.8V8.79h.43v1.72H10l-.38-.65a4.11,4.11,0,0,1-.25-.52h0c0,.17,0,.44,0,.78v.39Z"/><path class="cls-2" d="M27,8.23S27.11,6,29,5.88a6,6,0,0,1,2.8.32l-.26,7.53-.68,1.91a6.31,6.31,0,0,0-.11-2.38c-.31-.69.1,1-.28,2.18s-.92.92-.92.92a2.56,2.56,0,0,0-.15-1.71C29,13.72,27,8.23,27,8.23"/></svg>