<svg id="Capa_1" data-name="Capa 1" xmlns="http://www.w3.org/2000/svg" viewBox="0 0 33.57 20.64"><defs><style>.cls-1{fill:#0070a2;}.cls-2{fill:#f05050;}.cls-3{fill:#fbcabb;}.cls-4{fill:#b3d335;}.cls-5,.cls-6{fill:#231f20;}.cls-6{fill-rule:evenodd;}</style></defs><title>3-12meses</title><polygon class="cls-1" points="15.71 10.76 20.03 10.94 19.91 14.94 17.37 16.2 15.62 15.56 15.71 10.76"/><path class="cls-2" d="M13.75,11.24v3.91l3.08,1V11.89s-2.73-.93-3.08-.65"/><path class="cls-3" d="M.87,5.38v7.55A14,14,0,0,1,3,14.54a8.19,8.19,0,0,0,2.5,2.05,2.25,2.25,0,0,0,1.2.2l.64-.25a9.94,9.94,0,0,0,2.28-.17c.35-.19.72-.34.72-.34s2,.32,2.08,0-.51-.66-.51-.66.73.15.61-.08-.26-.49-.26-.49.54.17.54-.2-.44-.64-.44-.64l-.29-.2s1.54.49,1.55.29A2.11,2.11,0,0,0,12.88,13c-.29-.15-2-1.12-2.37-1.38s-1-.76-1-.76l.11-.3s3-.13,3.39-.67.53-.7.16-.7-2.36.27-2.36.27a3.74,3.74,0,0,0-1.94-.34,6,6,0,0,1-2,.25A23.61,23.61,0,0,1,3,7C2.1,6.33.87,5.38.87,5.38"/><polygon class="cls-4" points="13.74 11.05 15.8 11.72 17.02 12.04 19.91 11.16 16.99 10.24 13.74 11.05"/><path class="cls-3" d="M24.71,14.35a2.08,2.08,0,0,1-.55.34,11.33,11.33,0,0,1-3.19,0l-3-1.23s-.44-1-.52-1.07S17.31,12,17.1,12s-.2.63-.2.63l-.12.35a7.84,7.84,0,0,0-1.34-.4c-.1.06,0,.32,0,.32l.58.52a4.17,4.17,0,0,0-1.1-.17c-.13.08.24.55.47.62s-.06.14-.06.14-.62,0-.49.25.66.21.71.21-.57.43-.25.53a14.56,14.56,0,0,0,2,.07l.63.35a6.56,6.56,0,0,0,2.29,1.05c.65-.05.94-.1.94-.1l2.51.56a14.56,14.56,0,0,0-.38,1.7,7.55,7.55,0,0,0,.29,1.14H32a9.6,9.6,0,0,0-1.11-2.8c-.69-.93-1-2-1.58-2.41s-1.51-1.47-1.3-2,1-2.31.35-2.94a27.59,27.59,0,0,0-4.62-2.24,16.06,16.06,0,0,0-2,.88,1.33,1.33,0,0,0-.23,1.54c.36.66.58,1,.42,1.18s-.78.47-.62.62a2.05,2.05,0,0,0,.52.31s-.24.17-.19.33.54.18.54.18h.4s-.1.36-.35.35-.45,0-.33.13a.58.58,0,0,0,.32.17s-.23.17-.05.35a2.59,2.59,0,0,0,1.39.35c.53,0,1.59.06,1.59.06a.22.22,0,0,1,.14.36c-.18.28-.12.2-.12.2Z"/><path class="cls-5" d="M19,13.68h0l-.43-.14-.37-.14a.65.65,0,0,1-.25-.21,4.16,4.16,0,0,1-.25-.6,2.11,2.11,0,0,0-.32-.61l.23,0,.75-.16a7.24,7.24,0,0,0,1.36-.53c0,.46,0,.91.07,1.37s.08.93.14,1.4l-.5-.19ZM16.8,12.35h0a1.48,1.48,0,0,1-.06.55l-.6-.22-.38-.11-.2-.05h-.11a.24.24,0,0,0-.17,0c-.06.11,0,.14,0,.19a1.47,1.47,0,0,0,.1.13l.23.23.15.13-.22-.07a1.76,1.76,0,0,0-.43-.07.68.68,0,0,0-.27,0,.29.29,0,0,0-.17.19.19.19,0,0,0,0,.08.3.3,0,0,0,0,.1.44.44,0,0,0,.12.15,2.23,2.23,0,0,0,.33.2l-.27,0a.54.54,0,0,0-.22.08.26.26,0,0,0-.15.23h0v0h0l0,0a.29.29,0,0,0,.11.11,1.24,1.24,0,0,0,.2.1l.33.07a.61.61,0,0,0-.16.13.26.26,0,0,0,0,.21.33.33,0,0,0,.15.18.61.61,0,0,0,.17.09l.19.05a2.3,2.3,0,0,0,.36,0l.33,0,.23,0,.91.13a4.91,4.91,0,0,0,.68.49h0l-.72.23-.82-.24-.87-.25L14,15.13c0-.65-.09-1.29-.13-1.94,0-.34,0-.69,0-1s0-.64,0-1c1-.24,2-.49,3-.76.9.27,1.8.53,2.71.77a8,8,0,0,0-1.5.22l-.72.21c-.23.07-.45.16-.67.25a2.65,2.65,0,0,1-.63-.16c-.22-.08-.42-.19-.63-.27a5.35,5.35,0,0,0-.69-.17,4.53,4.53,0,0,0-.75-.08h0a0,0,0,0,0,0,0,4,4,0,0,0,.62.3,5.16,5.16,0,0,0,.67.2c.24,0,.49.06.73.11a3.49,3.49,0,0,1,.67.21h.11A.71.71,0,0,0,16.8,12.35ZM15,14.2Zm-2.31.26h0l0,.07a.36.36,0,0,1,0,.1.25.25,0,0,1,0,.17.19.19,0,0,1-.14.07,1.24,1.24,0,0,0-.26-.25,3,3,0,0,0-1-.41,18.46,18.46,0,0,0-2-.38,5.25,5.25,0,0,1-.91-.21,8,8,0,0,1-.85-.35c-.35-.15-.68-.33-1-.51l.74.09a8.51,8.51,0,0,0,1.52.07c.25,0,.51-.05.75-.09l.17,0-.07.07h0l1.93,1a5,5,0,0,1,.46.25,3.5,3.5,0,0,1,.43.26A.85.85,0,0,1,12.68,14.46Zm19,3.93c-.17-.49-.38-1-.6-1.46a9.87,9.87,0,0,0-1.87-2.75,6.6,6.6,0,0,0-.66-.63l-.15-.14a1.27,1.27,0,0,1-.11-.13.51.51,0,0,1-.1-.29.38.38,0,0,1,.07-.25c.65-.66,2.65-.35,3-2.43s-2.18-3.48-3.44-3.7a8.3,8.3,0,0,0-4.29.3h0a3.35,3.35,0,0,0-.38.14l-.21.09a2.56,2.56,0,0,0-1.82,2.53L21.39,9a1.36,1.36,0,0,0,0,.45,3.25,3.25,0,0,0,.32.74,3.78,3.78,0,0,1,.17.35.4.4,0,0,1,0,.33,1.61,1.61,0,0,1-.33.28.65.65,0,0,0-.18.15.19.19,0,0,0-.06.22.94.94,0,0,0,.39.3l0,0-.05.06a.41.41,0,0,0-.12.19.18.18,0,0,0,.13.22.44.44,0,0,0,.15.05l.15,0a2.77,2.77,0,0,0,.41,0l-.09.1a.36.36,0,0,1-.24.09.35.35,0,0,0-.23.07.12.12,0,0,0,0,.19A.41.41,0,0,0,22,13l0,0h0a0,0,0,0,1,0,0,.49.49,0,0,0,0,.26.4.4,0,0,0,.26.23l.35.12.37.07a14.09,14.09,0,0,0,1.47.13h.78a.16.16,0,0,1,0,.06.41.41,0,0,1,0,.21h0s0,.07,0,.1l-.17,0c-.15,0-.29.08-.43.12l-.39.11a7.18,7.18,0,0,1-.81.12,8,8,0,0,1-.85,0,8.06,8.06,0,0,1-.85,0c-.27,0-.54-.06-.8-.1s-.69-.29-1-.42c.07-.48.11-1,.14-1.43s.06-1,.08-1.51a.16.16,0,0,0-.14-.16h0c-1-.3-2-.58-3-.84h0a.31.31,0,0,0-.19,0c-1,.3-2.06.62-3.08,1h0s-.07,0-.07.08c0,.35.05.69.05,1s0,.69,0,1,0,.48,0,.72v0a1.19,1.19,0,0,0-.21-.44,3.41,3.41,0,0,0-.81-.74,3.72,3.72,0,0,0-.52-.3l-.51-.26c-.66-.36-1.28-.77-1.93-1.17l0,0a6.59,6.59,0,0,0,.76.73,7.05,7.05,0,0,0,.93.66,5.28,5.28,0,0,0,.53.27l.51.26a4.2,4.2,0,0,1,.89.6.93.93,0,0,1,.25.39.34.34,0,0,1,0,.1s0,.05,0,0h0a.65.65,0,0,1-.27,0,7.08,7.08,0,0,1-1.11-.43l-.93-.46L11,13c-.27-.15-.54-.27-.82-.4l.12-.1s0-.14,0-.17l0,0,0,0h0l-.08-.05a2.42,2.42,0,0,0-.35-.12L9.05,12c-.23-.06-.44-.13-.66-.21a1.87,1.87,0,0,0,.34-.08,1.64,1.64,0,0,0,.52-.24,1.05,1.05,0,0,0,.33-.37,1.43,1.43,0,0,0,.08-.22s0-.06,0-.09c.37,0,.73-.05,1.1-.09A9.7,9.7,0,0,0,12,10.47,3.75,3.75,0,0,0,13.21,10a1.45,1.45,0,0,0,.46-.39.42.42,0,0,0,.08-.32.34.34,0,0,0,0-.08v0h0s0,0,0,0A.5.5,0,0,0,13.37,9a3.19,3.19,0,0,0-.73,0L12,9.16a10.46,10.46,0,0,1-1.19.15h-.26a.69.69,0,0,1-.2-.07,1.58,1.58,0,0,0-.66-.17,6.1,6.1,0,0,0-1.29.06c-.42.05-.82.13-1.23.22a.58.58,0,0,1-.26,0,1.14,1.14,0,0,1-.26-.09A3.75,3.75,0,0,1,6.19,9C5.56,8.64,5,8.21,4.42,7.8L2.67,6.58c-.6-.4-1.18-.81-1.8-1.2l0,0c.49.47,1,.92,1.56,1.36S3.5,7.62,4.1,8a14.12,14.12,0,0,0,2,1.11,4.41,4.41,0,0,0,.54.24l.31.09a1,1,0,0,0,.35,0,9.53,9.53,0,0,1,1.21-.19,5.44,5.44,0,0,1,1.21,0,1.18,1.18,0,0,1,.48.16l.06,0,.08,0,.19.06a2.47,2.47,0,0,0,.36,0,8.7,8.7,0,0,0,1.29-.12l.61-.08a2.23,2.23,0,0,1,.49,0h0s0,.06-.05.1a1,1,0,0,1-.33.27,3.87,3.87,0,0,1-1,.4c-.36.08-.77.15-1.17.21s-.81.1-1.22.15l-.2,0,0,.12a1,1,0,0,1,0,.17,1.16,1.16,0,0,1,0,.18.77.77,0,0,1-.22.33,1.29,1.29,0,0,1-.41.25,3.82,3.82,0,0,1-.36.13c-.18-.08-.36-.15-.52-.24a5.69,5.69,0,0,1-.55-.32c-.18-.12-.33-.25-.53-.37a2.83,2.83,0,0,0-.65-.33,2.53,2.53,0,0,0-.8-.16,2.49,2.49,0,0,0-.83.1,2.57,2.57,0,0,0-.53.23l-1.48-1c-.55-.35-1.1-.69-1.67-1l0,0c.49.39,1,.78,1.49,1.15s1,.76,1.54,1.12l.14.1L4,10.9a2.14,2.14,0,0,1,.55-.25,2.28,2.28,0,0,1,.64-.06,2.21,2.21,0,0,1,.62.13,3,3,0,0,1,.57.27l.55.34a6.19,6.19,0,0,0,.63.32A7.54,7.54,0,0,0,9,12.1l.71.15a2,2,0,0,1,.32.1c.09.05.15.11.12.15a.27.27,0,0,1-.1.08l0,0h0l-.07.06a1.56,1.56,0,0,1-.37.1,5.82,5.82,0,0,1-.73.07,5.93,5.93,0,0,1-.73,0c-.24,0-.49-.06-.73-.1-.48-.07-1-.17-1.42-.28l-.71-.18.53.38a12,12,0,0,0,1.57.93,7.94,7.94,0,0,0,.89.38l.49.16.51.11c.66.12,1.33.21,1.92.37a3.08,3.08,0,0,1,.77.32.88.88,0,0,1,.24.23l0,.06L11,15.05c-.52,0-1-.08-1.57-.09l-.79,0H7.86c-.51,0-1-.06-1.54-.11v0a15.23,15.23,0,0,0,1.53.22c.26,0,.52,0,.79,0s.52,0,.77,0c.85,0,1.7.15,2.55.27l.08,0a1.29,1.29,0,0,1,.21.2c.06.09.06.16,0,.2h0l-.07,0h-.36c-.19,0-.41,0-.62,0l-1.4-.08-.72,0H8.35c-.41,0-.82-.12-1.17-.17l-.84-.15-.33,0s.41.18,1.08.39l.54.15a5.33,5.33,0,0,0,.65.13l.22,0H9l.7.05h0L9,16.32a6.4,6.4,0,0,1-.86.08h-.2l-.21,0-.43-.07-.77-.13c-.45-.09-.77-.13-.77-.13a4.15,4.15,0,0,0,.66.31,6,6,0,0,0,.75.25h0a1.5,1.5,0,0,1-.68.13,1.59,1.59,0,0,1-.38-.07l-.2-.05-.18-.07-.36-.15L5,16.22a3.43,3.43,0,0,1-.67-.41,6.94,6.94,0,0,1-.9-1.09L3,14.17c-.15-.19-.32-.36-.49-.54l0,0h0A13.59,13.59,0,0,0,1,12.93l0,0a11.38,11.38,0,0,0,1.17.86c.14.19.28.36.44.54l.51.52c.34.36.8.66,1.18,1,.2.16.38.34.58.51a2.61,2.61,0,0,0,.73.43l.23.08.24.05a1.78,1.78,0,0,0,.52,0,1.11,1.11,0,0,0,.77-.34l.3.06.25,0,.27,0a4.65,4.65,0,0,0,1-.13,7.54,7.54,0,0,0,.77-.21l.42-.16.84,0c.23,0,.45,0,.67,0l.33,0,.17-.05.06,0,0,0,0,0a.22.22,0,0,0,.09-.24.33.33,0,0,0-.13-.17,1.53,1.53,0,0,0-.26-.16l.32.05.34,0,0-.22,0-.21c0-.06-.05-.13-.09-.2l0,0a.3.3,0,0,0,.21-.07.44.44,0,0,0,.12-.22s0-.07,0-.1a.74.74,0,0,0,0-.14,1.56,1.56,0,0,0-.16-.2,3.61,3.61,0,0,0-.3-.25c.23.08.47.14.71.2a1,1,0,0,0,.38,0,.18.18,0,0,0,.09-.06c0,.38-.06.77-.06,1.15a.18.18,0,0,0,.15.15l1.76.43.9.19c.3.07.59.14.89.19h.1l.72-.35a6.13,6.13,0,0,0,.81.41l.51.17.25.06.28.05a3.45,3.45,0,0,0,.57.05,1.67,1.67,0,0,0,.31,0,1,1,0,0,0,.22-.05c.46.13.92.22,1.38.31s.77.11,1.16.16a1.44,1.44,0,0,0-.3.35,1.78,1.78,0,0,0-.21.46,2.43,2.43,0,0,0-.1.55,2.57,2.57,0,0,0,.06.55,1.93,1.93,0,0,0,.19.46,1.19,1.19,0,0,0,.2.31l.1.11v-.13c0-.08,0-.19,0-.33s0-.62,0-1c0-.17,0-.35,0-.51s0-.32.06-.45.05-.33.06-.4L24,17a12.33,12.33,0,0,0,3.1-.1s0,0,0,0,0,0,0,0a14,14,0,0,1-3-.08c-.5-.07-1-.16-1.48-.25s-1-.22-1.42-.36l-.24,0-.14,0h-.21a2.4,2.4,0,0,1-.46-.05l-.23-.05-.23-.06a3.12,3.12,0,0,1-.43-.15,5.41,5.41,0,0,1-.79-.42,7.09,7.09,0,0,1-.69-.49h0a.34.34,0,0,0-.15-.06l-1.05-.15h-.14l-.25,0-.24,0h-.22a.15.15,0,0,1-.08,0l0,0s.05,0,.1-.07a3.68,3.68,0,0,1,.44-.17h0c.09,0,.15-.09.15-.16s-.12-.16-.25-.16-.43,0-.63,0l-.27,0-.06,0h0l.28,0c.21,0,.43,0,.64,0h0a.2.2,0,0,0,.2-.09c0-.07,0-.15-.13-.17a6.75,6.75,0,0,1-.68-.21,1.71,1.71,0,0,1-.27-.14L15,13.42s0,0,0,0,0,0,0-.06v0h0l.11,0a1.47,1.47,0,0,1,.34.05,5.49,5.49,0,0,1,.69.21h0a.15.15,0,0,0,.13,0,.06.06,0,0,0,0-.11c-.18-.13-.36-.27-.52-.41a2.39,2.39,0,0,1-.23-.22.52.52,0,0,1-.1-.11s0,0,0-.06h.09l.18,0a2.24,2.24,0,0,1,.37.1,7,7,0,0,1,.69.25h0a.09.09,0,0,0,.1,0,1.67,1.67,0,0,0,.09-.66.59.59,0,0,1,0-.3h.11v0a1.83,1.83,0,0,1,.26.59,2.78,2.78,0,0,0,.21.66.85.85,0,0,0,.32.3,2.27,2.27,0,0,0,.43.19l.42.15.41.16c.55.21,1.08.44,1.62.65h.06c.3.05.59.08.89.1a6.77,6.77,0,0,0,.9,0c.3,0,.6,0,.9-.05a7,7,0,0,0,.89-.17l.4-.13c.13,0,.25-.09.38-.12A3.69,3.69,0,0,1,26,14.3a3.88,3.88,0,0,1,1.63.3h0a0,0,0,0,0,0,0,4.08,4.08,0,0,0-2.13-.41h0a.58.58,0,0,0,0-.29.22.22,0,0,0-.11-.17.4.4,0,0,0-.13-.07h-.14l-.37,0h-.36a13.36,13.36,0,0,1-1.42-.09l-.34-.06-.32-.09c-.09,0-.16-.09-.17-.15s0-.13,0-.23a.14.14,0,0,0,0-.1l-.06,0,0,0A.27.27,0,0,1,22,12.8s0-.06.1-.07a.44.44,0,0,0,.22,0,.49.49,0,0,0,.16-.1.94.94,0,0,0,.18-.24s0,0,0,0a.08.08,0,0,0-.1,0h0a2.91,2.91,0,0,1-.51,0H22l-.1,0c-.06,0-.07-.06-.06-.11a.4.4,0,0,1,.09-.15A.38.38,0,0,0,22,11.9c0-.09-.08-.09-.1-.12s-.31-.16-.35-.25.09-.18.2-.27a1.74,1.74,0,0,0,.37-.3.45.45,0,0,0,0-.41c-.05-.12-.11-.24-.17-.36a3.22,3.22,0,0,1-.29-.71,1.29,1.29,0,0,1,.11-.72c0-.09.1-.19.15-.28l.67,1.32.09-1.25.4.78-.13-1,.78,1.13.38.69L24,9l.53,1.1,0-.82.72,1,.5.59-.06-.57.5.69-.05-.64c0-.5,0-.29,0-.29a1,1,0,0,0,.21.65c0,.41-.5.83-.5.83l.46-.28a.1.1,0,0,0,0,0h0l-.18.39c.56-.33.67-.44,1.16-.41h0l0,0,0,.05a.45.45,0,0,1,0,.23,1.21,1.21,0,0,1-.7.77,1.08,1.08,0,0,1-.44.08l-.18,0v0l.18,0a1.38,1.38,0,0,0,.52,0,2.08,2.08,0,0,0,.32-.12,1.53,1.53,0,0,0,.29-.18,1.4,1.4,0,0,0,.42-.52.71.71,0,0,0,.07-.26.51.51,0,0,1,.21.57l-.21.56a.8.8,0,0,0-.13.43.76.76,0,0,0,.16.43c0,.07.11.13.16.2l.18.15c.23.19.45.38.66.59A11.38,11.38,0,0,1,30.82,17c.26.46.49.94.7,1.41A8.22,8.22,0,0,1,32,19.88l0,0s0,0,0,0A8.57,8.57,0,0,0,31.72,18.39Z"/><polygon class="cls-5" points="21.11 9.68 21.11 9.67 21.07 9.76 21.11 9.68"/><path class="cls-5" d="M22.58,9.84c-.56-.06-.5.35-.5.35a.81.81,0,0,1,.94-.11,9.6,9.6,0,0,0,1.14.42,5.78,5.78,0,0,0-1.58-.66"/><path class="cls-5" d="M22.76,10.38c-.34,0-.27.16-.27.16s.15,0,.15,0,0,.31.33.29.13-.25.13-.25l.51.11a3.8,3.8,0,0,0-.85-.28"/><path class="cls-5" d="M29.26,8s3.54-.58,3.72.23a43.42,43.42,0,0,1-.27,5.27s-.39.44-.84-.89.16-3-.73-3.52S28.4,8.36,29.26,8"/><path class="cls-6" d="M32.51,7.59c.41.5,0,6.06,0,6.06a2.4,2.4,0,0,1-.74-1.52c0-.86.42-3-.62-3.35Z"/></svg>