<svg id="Capa_1" data-name="Capa 1" xmlns="http://www.w3.org/2000/svg" viewBox="0 0 23.34 21.6"><defs><style>.cls-1{fill:#0070a2;}.cls-2{fill:#f5a4c7;}.cls-3{fill:#fbcabb;}.cls-4{fill:#231f20;}</style></defs><title>4-12meses</title><path class="cls-1" d="M14.55,16.5a7.33,7.33,0,0,0,2.82-.67c.89-.58.87-1.27,1.78-1.12s2.8.89,2.47,1.79-2.78,1.78-3.76,2.11-1.32.63-2.12.38-1.19-2.49-1.19-2.49"/><path class="cls-2" d="M9.27,14.35A20.69,20.69,0,0,0,5,13.41c-1.18,0-3.45.68-3.38,1.62s-.18,3.36,1.62,3.86,5.41-.81,5.41-.81Z"/><path class="cls-3" d="M7.27,15.32l1.33-.1s-.23-.31-1.12-.31-4.43-.45-4.43-.45l-1.28.14a7.73,7.73,0,0,1,1.09-2.68c.88-1.36,2.23-3.13,3.29-3.56s1.71-.67,1.74-1.1-.08-1.54.71-2a28.83,28.83,0,0,1,5.73-1.42c.26.05,1.85,1.35,1.73,1.71a3,3,0,0,1-1.23,1.28c-.41.17-.81.56-.71.8s.26.54,0,.65a2.12,2.12,0,0,1-.42.13s-.07.28-.3.31a1.65,1.65,0,0,1-.43,0s.28.22.18.33a1.3,1.3,0,0,1-.51.17.21.21,0,0,1-.12.32,1.25,1.25,0,0,1-.9.12c-.37-.13-1.73-.48-1.73-.48L9.39,9l-.1.34a3,3,0,0,1,.83.39,14.76,14.76,0,0,1,1.76,1.4,6.94,6.94,0,0,0,1.65,1.47c.28.06.71-.05,1.27,0a9.2,9.2,0,0,1,2.37.8,5.83,5.83,0,0,0,1.9.57,2.61,2.61,0,0,1,.76.25.84.84,0,0,1,.59,0,.55.55,0,0,1,.3.42s0,.51,0,.51a3.91,3.91,0,0,0-1.32-.38c-.4.05-1,.17-1.18.42s-.26.26-.26.26l-1.12.57s-.62-.24-1.24-.55-1.93-.63-2.47-.85-2-1-2.43-1.11-.26,0-.26,0l-.39,1.55s2.47-.53,2.79-.27a19.25,19.25,0,0,0,3.24,1.72c.29,0-.09.35.33.67s.92.63.92.63-.7.93-1,1a25.73,25.73,0,0,1-4-.41,4.94,4.94,0,0,1-1.08-.53s-1.89.9-2.52,1.09a12.93,12.93,0,0,1-3.46,0,7.45,7.45,0,0,1-1.82-1.25s.33-1.47,1.21-1.86a5.42,5.42,0,0,1,2.6-.57"/><polygon class="cls-4" points="15.64 6.75 15.66 6.67 15.66 6.68 15.64 6.75"/><path class="cls-4" d="M14.24,7.05s.3-.34-.22-.45a6.84,6.84,0,0,0-1.76.12,11.15,11.15,0,0,0,1.24,0c.66-.06.74.37.74.37"/><path class="cls-4" d="M13.67,7.23s.17-.14-.14-.21a3.63,3.63,0,0,0-.9,0l.51,0s-.29.17-.05.26a.47.47,0,0,0,.47-.15s.12,0,.11.06"/><path class="cls-4" d="M13.27,8.22c.23.07.27,0,.15-.07s-.14,0-.22,0,0-.17,0-.17c-.17,0-.17.2,0,.26"/><path class="cls-4" d="M20.71,17.12h0a5.51,5.51,0,0,1-1,.59c-.77.34-1.46.68-2.08.91a6.17,6.17,0,0,1-.89.23h0a2,2,0,0,0,.45-.19,1.55,1.55,0,0,0,.44-.4,1.61,1.61,0,0,0,.21-.44,1.69,1.69,0,0,0,.05-.24l0-.21a1.14,1.14,0,0,0,0-.26,1.68,1.68,0,0,0,.4-.15.68.68,0,0,0,.3-.28.71.71,0,0,1,.27-.3h0l.36-.16h0l.07,0a.13.13,0,0,0,.07-.16.23.23,0,0,0-.26-.08H19a4.18,4.18,0,0,0-.68.2,1.79,1.79,0,0,0-.56.38h0s0,0,0,0a2.39,2.39,0,0,0,.55,0h0a1,1,0,0,0-.36.25,1.18,1.18,0,0,0-.13.18.19.19,0,0,0,0-.07.82.82,0,0,0-.51-.42,1.51,1.51,0,0,0-.76,0,.58.58,0,0,0-.19,0l-.08,0L16,16.41l-.1-.05.46-.08c.21,0,.46-.09.75-.17a4.63,4.63,0,0,0,.91-.36,1.14,1.14,0,0,0,.23-.15l.19-.19a1.28,1.28,0,0,1,.32-.29,1,1,0,0,1,.45-.15,2.14,2.14,0,0,1,.61,0,3.68,3.68,0,0,1,1.2.45.91.91,0,0,1,.37.39.75.75,0,0,1,0,.47,1.86,1.86,0,0,1-.67.8m-4.2-.41h.08a.91.91,0,0,1,.44,0,.39.39,0,0,1,.23.24.87.87,0,0,1,0,.36l0,.21,0,.18a1.05,1.05,0,0,1-.37-.17.85.85,0,0,1-.16-.17.75.75,0,0,1-.14-.17.53.53,0,0,1-.06-.1L16.46,17a.7.7,0,0,1-.05-.18.13.13,0,0,1,0-.13h.08Zm-1.92,1.93h0l-1.24-.1q-.3,0-.6-.09a5.6,5.6,0,0,1-.59-.12,3.39,3.39,0,0,1-.51-.21,1,1,0,0,1-.34-.32l0,0a.15.15,0,0,0-.17,0h0a2.27,2.27,0,0,1-.49.35,1.59,1.59,0,0,1-.29.15l-.31.13a3,3,0,0,1-.32.12l-.33.1a5,5,0,0,1-.69.17l-.35.06-.37.05c-.24,0-.49.05-.73.07l-.75,0H5.93a.19.19,0,0,0-.14-.13h0A4,4,0,0,1,4,18a.66.66,0,0,1-.17-.33.59.59,0,0,1,0-.34,3.68,3.68,0,0,1,.4-.76,2.39,2.39,0,0,1,.67-.63,3.15,3.15,0,0,1,1-.39l.19,0c.32,0,.8,0,1.39-.06l.86-.07.95-.15a8.36,8.36,0,0,1,1-.13c.35,0,.71,0,1.07,0s.72,0,1,0a3.13,3.13,0,0,1,.83.28c.27.12.51.25.76.37l.7.35a6.24,6.24,0,0,0,1.18.45l.24,0s0,0,0,0a.27.27,0,0,0,0,.29.82.82,0,0,0,.11.23l.08.1.08.09c.06.06.12.13.19.19a1.4,1.4,0,0,0,.24.15,1.13,1.13,0,0,0,.45.14,1.15,1.15,0,0,1-.14.32,1.07,1.07,0,0,1-.3.3,2,2,0,0,1-1,.28,5.61,5.61,0,0,1-.58,0ZM2.87,18.5h0a1.58,1.58,0,0,1-.6-.5,2.68,2.68,0,0,1-.36-1.33,10.59,10.59,0,0,1,0-1.38l0-.34c0-.14,0-.17.13-.22a2.73,2.73,0,0,1,.89-.07c.65,0,1.31.09,2,.14l2,.13,1,.08c.15,0,.28,0,.42.06H8.28c-.31,0-.6.06-.86.09l-.94.14c-.22,0-.44,0-.65,0a6.39,6.39,0,0,0-.63.13,3.57,3.57,0,0,0-.57.23,3.34,3.34,0,0,0-.48.32,2.14,2.14,0,0,0-.36.38,3.26,3.26,0,0,0-.47.82.81.81,0,0,0-.07.49.92.92,0,0,0,.24.47,2.8,2.8,0,0,0,.91.61l-.66-.07A2.85,2.85,0,0,1,2.87,18.5Zm16.59-4h0a1.62,1.62,0,0,0-.33-.13,3.06,3.06,0,0,0-.74-.09H18l-.28,0a2.78,2.78,0,0,1-1.14-.78,3,3,0,0,0-.72-.46L15.59,13l.26,0a2.7,2.7,0,0,1,1.23.48,2.54,2.54,0,0,0,.55.38,2.62,2.62,0,0,0,.73.25,3.34,3.34,0,0,0,.7,0,.75.75,0,0,1,.36.14,1.92,1.92,0,0,1,.31.23,1.59,1.59,0,0,1,.18.22.53.53,0,0,1,.06.14l-.25-.19A1.46,1.46,0,0,0,19.46,14.48Zm-5.14-1.8h0l.31.09.09,0-.18,0Zm6.77,2.7-.33-.17h0A.67.67,0,0,0,20.9,15a.62.62,0,0,0,.07-.23.52.52,0,0,0,0-.29.68.68,0,0,0-.27-.26.83.83,0,0,0-.35-.11.92.92,0,0,0-.36,0l.23.15a1,1,0,0,1,.27.3.32.32,0,0,1,0,.09s0,.07,0,.11a.61.61,0,0,0,.09.2l.07.14a4.39,4.39,0,0,0-.63-.26l0,0a.69.69,0,0,0,0-.19,1,1,0,0,0-.36-.63,1.06,1.06,0,0,0-.65-.3h-.64a3.75,3.75,0,0,1-1.19-.41c-.22-.11-.46-.17-.68-.26L16,12.83a5.65,5.65,0,0,0-.61-.22c-.2-.06-.4-.09-.58-.13a7.11,7.11,0,0,0-1.09-.1l-.19-.11a8.6,8.6,0,0,1-1.22-.91c-.37-.33-.7-.68-1-1-.18-.18-.36-.34-.56-.51s-.21-.16-.31-.24l-.08-.05-.1-.06-.2-.1a3.13,3.13,0,0,0-.54-.19l0-.06a.09.09,0,0,1,.06,0h.05l.31.12.33.1a12.38,12.38,0,0,0,1.37.31l.37,0a1.65,1.65,0,0,0,.38,0,.5.5,0,0,0,.35-.16c.07-.08.08-.19.11-.21s.22,0,.31-.09.18-.16.14-.28a.12.12,0,0,0-.08-.09h-.1l.13,0a1.09,1.09,0,0,0,.31,0,.32.32,0,0,0,.22-.18.56.56,0,0,0,0-.19h0l.13,0a1.64,1.64,0,0,0,.28-.07.26.26,0,0,0,.2-.18.75.75,0,0,0-.12-.39c0-.12-.09-.23,0-.32A5.53,5.53,0,0,1,15,6.86a2.61,2.61,0,0,0,.7-.61A1,1,0,0,0,15.81,6l-.15.65a2,2,0,0,0,0-2.72l-.09-.08a1.73,1.73,0,0,0-.23-.24l-.08-.06a6.47,6.47,0,0,0-3.52-1.48c-1.23-.17-4.23.29-5.23,2.21s.88,2.19,1.08,2.93a.58.58,0,0,1-.09.26,1.11,1.11,0,0,1-.28.23L7,7.8l-.24.09a5.22,5.22,0,0,0-1.7,1,11.57,11.57,0,0,0-1.25,1.28,9.2,9.2,0,0,0-.92,1.38,12.33,12.33,0,0,0-1.16,2.93l0,0,0,0a14.27,14.27,0,0,1,1.34-2.86,8.82,8.82,0,0,1,1-1.34,11.32,11.32,0,0,1,1.28-1.2A5,5,0,0,1,7,8.19l.26-.08L7.51,8a1.47,1.47,0,0,0,.43-.34.84.84,0,0,0,.15-.46l.15-.5a.76.76,0,0,1,.52-.43.82.82,0,0,0-.1.24,1,1,0,0,0,.06.57.89.89,0,0,0,.14.25.9.9,0,0,0,.2.19,1,1,0,0,0,.43.17l.19,0v0l-.16,0a.81.81,0,0,1-.32-.2.84.84,0,0,1-.14-.87.55.55,0,0,1,.15-.19l0,0h0c.43.11.46.24.75.68l.07-.38h0v0l.23.37a1.05,1.05,0,0,1,.09-.86,1.69,1.69,0,0,0,.57-.5s.13-.18-.16.26l-.43.53.86-.45-.4.48L11.69,6l1.25-.68-.47.71,1.13-.79-.77,1,.74-.48L14.94,5l-.71.81.82-.56-.69,1.1,1.38-.94s0,0,0,.06a1.54,1.54,0,0,1-.24.7,2.06,2.06,0,0,1-.65.58,4.61,4.61,0,0,0-.74.58.33.33,0,0,0,0,.4.77.77,0,0,1,.12.35c0,.09-.2.12-.37.15l-.14,0h-.08s-.08,0-.08.08,0,.13,0,.19-.19.12-.35.11a.63.63,0,0,1-.39-.16h0a.14.14,0,0,0-.09,0c-.05,0-.08,0-.07.08a.69.69,0,0,0,.18.24.51.51,0,0,0,.16.09l0,0h0c0,.05,0,.12-.09.16a.17.17,0,0,1-.1,0s-.15,0-.22.06-.09.18-.14.24a.32.32,0,0,1-.22.09,2.48,2.48,0,0,1-.66,0,11.41,11.41,0,0,1-1.31-.33L10,9a2.45,2.45,0,0,1-.31-.12h0l-.08,0H9.42a.46.46,0,0,0-.2.12l-.09.11H9.06a3.51,3.51,0,0,0-1,0,4.32,4.32,0,0,0-.91.19,4.27,4.27,0,0,0-.78.34v0s0,0,0,0a6.54,6.54,0,0,1,1.7-.31A3.78,3.78,0,0,1,9,9.39a2.86,2.86,0,0,1,.75.23l.17.09.08,0L10,9.8l.33.21a7.07,7.07,0,0,1,.63.44,11.89,11.89,0,0,1,1.14,1,13.45,13.45,0,0,0,1.1,1,3.24,3.24,0,0,0,.7.45,2.75,2.75,0,0,0,.43.17l.47.1.22,0,.18.05a2,2,0,0,1,.34.13,3,3,0,0,1,.6.4c.18.15.36.32.59.49a2.31,2.31,0,0,0,.89.36h0a.4.4,0,0,0,.11,0,1.45,1.45,0,0,1,.3-.06,1.73,1.73,0,0,1,.32,0,2.66,2.66,0,0,1,.63,0,1.28,1.28,0,0,1,.28.07,1.74,1.74,0,0,1,.27.14l.05,0a1.93,1.93,0,0,0-.49-.07,1.4,1.4,0,0,0-.72.18,1.15,1.15,0,0,0-.43.37l-.13.14a.66.66,0,0,1-.17.12,4.75,4.75,0,0,1-.79.38l-.25.09-.2-.15a9,9,0,0,0-.87-.52,5.56,5.56,0,0,0-.68-.29,3,3,0,0,0-.43-.11l-.19,0-.19,0c-.25-.07-.51-.16-.78-.26l-.81-.31a7.07,7.07,0,0,1-.79-.36c-.25-.12-.45-.27-.71-.4a4.24,4.24,0,0,0-.8-.28c-.26-.06-.52-.09-.75-.13a9,9,0,0,0-1.6,0h0s0,0,0,0l.41.09,1.1.22.72.13.26,0a.5.5,0,0,1,0,.12l0,.24c0,.08,0,.17,0,.26s-.06.34-.1.48a1.27,1.27,0,0,1,0,.18.45.45,0,0,0,0,.08l.1,0a.66.66,0,0,0,.22-.13.81.81,0,0,0,.22-.23.84.84,0,0,0,.12-.31.78.78,0,0,0-.15-.57l0,0,.29.06a3.5,3.5,0,0,1,.75.33c.25.13.48.28.71.42a7,7,0,0,0,1.55.75l.23.07.22,0,.35.08.65.22,1.21.45-.31.12-.48.16-.23-.13L15,15.85c-.2-.12-.42-.26-.66-.39a5.56,5.56,0,0,0-.81-.4,3.49,3.49,0,0,0-1.07-.27,6.47,6.47,0,0,0-1.1.08c-.36,0-.71.1-1.06.12s-.7,0-1,0l-.75,0-.06,0a2.84,2.84,0,0,0-.49-.1c-.33-.07-.66-.12-1-.17-.66-.1-1.32-.21-2-.27a17.07,17.07,0,0,0-2-.12,3,3,0,0,0-1.08.17.41.41,0,0,0-.2.19.5.5,0,0,0,0,.2l0,.35.11,1.39c0,.23,0,.46.06.7a2,2,0,0,0,.24.69,1.68,1.68,0,0,0,.62.59,3.47,3.47,0,0,0,1,.33l1,.14c.34,0,.65.08,1,.09a.22.22,0,0,0,.23-.1h0l.51.07.78,0c.26,0,.52,0,.78,0a6.48,6.48,0,0,0,.77-.09L9.16,19a2.54,2.54,0,0,0,.37-.1,4.19,4.19,0,0,0,.7-.26,4,4,0,0,0,.61-.35,3,3,0,0,0,.37-.34,2.18,2.18,0,0,0,.89.43,10.45,10.45,0,0,0,1.21.26l1.23.19c.2,0,.4.07.62.09a5.49,5.49,0,0,0,.58,0l.19,0a3.4,3.4,0,0,0,.82,0,5.77,5.77,0,0,0,1-.18A12.53,12.53,0,0,0,20,18a5.3,5.3,0,0,0,1.09-.69,1.66,1.66,0,0,0,.6-1A1.06,1.06,0,0,0,21.09,15.38Z"/><path class="cls-4" d="M17.86,15.37h-1a1.88,1.88,0,0,0,1,0"/><path class="cls-4" d="M8.1,3a3,3,0,0,0-1.33-.64C5.84,2.08,4.21,2.09,4,3.57S3.63,5.5,3.63,5.5A2.19,2.19,0,0,0,5,4.7a1.11,1.11,0,0,1-.44.8A3,3,0,0,0,5.87,3.57C6,2.38,7.9,3.69,8.1,3"/></svg>