<svg id="Capa_1" data-name="Capa 1" xmlns="http://www.w3.org/2000/svg" viewBox="0 0 32.04 25.74"><defs><style>.cls-1{fill:#f5a4c7;}.cls-2{fill:#fbc9b7;}.cls-3{fill:#fccdb5;}.cls-4{fill:#231f20;}</style></defs><title>1-9meses</title><path class="cls-1" d="M7.88,20.15S6.24,21.41,6.5,22.06s.29,2.57,3.88,1S12,19.54,12,19.54Z"/><path class="cls-2" d="M30.22,15.87s-6.26-1.67-7.89-2-3.16-.59-3.23-.35,0,.47.19.57,2.69.8,2.69.8-1.2.52-1.25.79.47.53.47.53a.74.74,0,0,0,.25.41,4,4,0,0,1,.36.35,2.22,2.22,0,0,0,.77.73,1.14,1.14,0,0,0,.82.14l.91-.37a3.11,3.11,0,0,0,1,.63A6.08,6.08,0,0,0,27.39,18c.7-.21.94,0,.94,0l1.89.63Z"/><path class="cls-2" d="M15.34,9A5.68,5.68,0,0,0,17,9.93,1.54,1.54,0,0,1,18.15,11c.27.59-.09,1.35.53,1.47a2.77,2.77,0,0,0,1.41-.26l.74.42a1.38,1.38,0,0,0,.62.32.87.87,0,0,1,.63.4c.08.12.54.18.58.18a2.67,2.67,0,0,0,1.75-.88c.54-.74.84-1.11.84-1.11l.35.08a2.64,2.64,0,0,0-.27.63c-.12.4.58,1,.68,1.17a15.6,15.6,0,0,0,1.63,1s2.53-2.86,2.58-3.43V8.2a4.53,4.53,0,0,1-1.93.32A2,2,0,0,1,26.94,8a8.91,8.91,0,0,0-3.18-1.83c-1.16-.22-5.72-.82-7-.32S15.34,9,15.34,9"/><path class="cls-2" d="M4,14.21a3.07,3.07,0,0,0,1.48,1.2c1,.33,1,.47,1,.47L5.18,20l-.24.71S3,20.72,2.79,21a1.18,1.18,0,0,0-.27,1.47,5.42,5.42,0,0,0,.69,1s-1-.24-1.06.07.17.33,0,.62.29.76.29.76a.61.61,0,0,0,.57.51c.5.05,3.37,0,3.62-.35s.2-.38,0-.76A3.39,3.39,0,0,0,6,23.6s1.26,0,1.49-.22.83-.41.56-.92a6.83,6.83,0,0,0-1-1.21s2.19.31,2.21.35a8.93,8.93,0,0,0,2.5-.59c.29-.28.52-.48.52-.48a1.62,1.62,0,0,1-.49,1.31A6.94,6.94,0,0,1,10.38,23,3.29,3.29,0,0,0,12,22.92c1-.28,1.68-.43,1.68-.43a2.31,2.31,0,0,0,1.18.75c.72.18.77.17.9.39s.34.81.88.8a1.05,1.05,0,0,0,1.06-.76c.17-.48.23-.64.71-.85s.53-.43.53-.43.44-.14.38-.38a.32.32,0,0,0-.31-.25l-.21-.15-.26-.2s-.21-.27-.42-.29-.46-.25-.63-.12-.49.74-.81.84-.4,0-.44-.14a2.19,2.19,0,0,1-.1-.26.68.68,0,0,0,.45-.1,3.71,3.71,0,0,1,.33-.21s.23-.2.12-.27a1.47,1.47,0,0,1-.26-.26s0-.22-.12-.28-.53-.11-.71-.21a8.46,8.46,0,0,0-1.72-1.23,2.38,2.38,0,0,1-1.31-1.09,5.67,5.67,0,0,0-1.24-1.38,4.29,4.29,0,0,0-1-.3,5.13,5.13,0,0,1,.56-.5c.23-.16,1.56-1.47,1.27-1.93s-1-.86-1.4-1.76.16-.83-.29-1.41a13.81,13.81,0,0,0-3.55.05c-1.7.3-3.56,3.08-3.27,3.65"/><path class="cls-3" d="M7.65,17.74c-.51.14-1,1.51-2.26,1.59s-1.54-.24-1.21-1.09S6,16.94,6.24,16.5s-.07-.65.45-.76.35,0,.35,0a2.68,2.68,0,0,0,.33-1c0-.26.63-.21.63.12a3.55,3.55,0,0,1-.1,1c-.07.15.53-.39.62-.14a.61.61,0,0,1-.1.5s.35-.28.35,0a.47.47,0,0,1-.14.39s.38.09.31.33-.78.61-1.29.76"/><path class="cls-4" d="M7.64,17.72h0a3.29,3.29,0,0,0,.94-.46,1.29,1.29,0,0,0,.17-.16L8.8,17s0,0,0-.05v0a.13.13,0,0,0-.07-.12.36.36,0,0,0-.17-.07l-.07-.2h0v0a.19.19,0,0,0,0-.07.49.49,0,0,0,0-.17v0a0,0,0,0,0,0,0s0,0,.05,0a.17.17,0,0,0,.11,0s0,0,0,0l-.07.05a.34.34,0,0,1-.36,0,.15.15,0,0,1-.06-.19h0A.56.56,0,0,0,8.27,16a.92.92,0,0,0,0-.16c0-.05,0-.05.06,0s.12,0,.09,0A1.74,1.74,0,0,0,8.2,16l-.07,0,0,0s0,0-.17,0a.3.3,0,0,1-.15,0A.36.36,0,0,1,7.68,16c0-.07,0-.07,0-.09s0,0,0,0l0,0,0,0a1.42,1.42,0,0,0,0-.22c0-.15,0-.3.07-.46a.82.82,0,0,0,0-.21.15.15,0,0,0-.1-.14.34.34,0,0,0-.22,0c-.07,0-.08,0-.07.13a1.63,1.63,0,0,1-.13.48,4.43,4.43,0,0,1-.2.45L7,15.68s0,0,0,0,0,.08,0,.07H7l-.15,0a1.13,1.13,0,0,0-.25.09c-.08,0,0,.23-.05.41a.68.68,0,0,1-.09.25,1,1,0,0,1-.21.25,5.74,5.74,0,0,1-.5.36,6,6,0,0,0-.9.65,1.76,1.76,0,0,0-.29.36l0,.11v0s0,0,0,0l0,.05a1.87,1.87,0,0,0-.07.22.61.61,0,0,0,0,.36c0,.08.12.13.29.16a2.79,2.79,0,0,0,.6,0,1.73,1.73,0,0,0,.56-.08,2.52,2.52,0,0,0,.94-.6c.14-.13.26-.26.39-.39a1.3,1.3,0,0,1,.46-.36Zm0,0a1,1,0,0,0-.41.36l-.32.42a2.43,2.43,0,0,1-.87.8,2.07,2.07,0,0,1-.75.19,3.9,3.9,0,0,1-.76,0,1,1,0,0,1-.73-.41.86.86,0,0,1,0-.58,2.41,2.41,0,0,1,.08-.25l0-.06,0,0v0L4,18a2,2,0,0,1,.4-.47,6.33,6.33,0,0,1,1-.68,3.88,3.88,0,0,0,.5-.29,1.38,1.38,0,0,0,.17-.15,1.36,1.36,0,0,0,.11-.2,1.24,1.24,0,0,0,0-.22.35.35,0,0,1,.17-.28,1.23,1.23,0,0,1,.38-.11l.18,0a.37.37,0,0,1,.14,0s.12.08.08.11,0,0,0,.06a.14.14,0,0,1-.15,0,.05.05,0,0,1,0-.08,3.61,3.61,0,0,0,.22-.44,1.21,1.21,0,0,0,.12-.44v-.06a.17.17,0,0,1,0-.08.27.27,0,0,1,.17-.12.66.66,0,0,1,.42,0,.39.39,0,0,1,.25.25,2.42,2.42,0,0,1,0,.25,3.69,3.69,0,0,1,0,.47,2,2,0,0,1,0,.25l0,.07v0s0,0,0,0,0,0,0-.09A.23.23,0,0,0,8,15.77a.29.29,0,0,0-.14,0c-.14,0-.07,0-.09,0h0l.06,0a2.7,2.7,0,0,1,.31-.17.51.51,0,0,1,.41,0c.21.11.17.2.19.22a.6.6,0,0,1,0,.3,1,1,0,0,1-.14.27l-.41-.2L8.37,16A.67.67,0,0,1,8.6,16a.49.49,0,0,1,.25,0,.23.23,0,0,1,.12.12.31.31,0,0,1,0,.08v.07a.6.6,0,0,1-.06.22.34.34,0,0,1-.06.12l0,.05a.19.19,0,0,1-.08.07l-.06-.2A1,1,0,0,1,9,16.7a.26.26,0,0,1,.08.27A.14.14,0,0,1,9,17l0,0a.47.47,0,0,1-.1.1,1.7,1.7,0,0,1-.22.15,5.09,5.09,0,0,1-1,.42Z"/><path class="cls-4" d="M22.24,12.26h0l.11-.09a.48.48,0,0,1-.07.31.27.27,0,0,1-.07.08l0,0-.06,0-.1,0-.12,0a.61.61,0,0,1-.34-.12,4.37,4.37,0,0,0,.69-.33M25.8,8.83h0a.33.33,0,0,1-.14.17.48.48,0,0,1-.24.06l-.63,0,.43.27a1,1,0,0,1,.47.66,1.53,1.53,0,0,1-.13.83,3.22,3.22,0,0,1-.48.78c-.21.24-.47.48-.7.72L24,12.7a2.3,2.3,0,0,1-.33.3,2.18,2.18,0,0,1-.94.36,1.24,1.24,0,0,1-.41,0s0,0,0,0v0h0a.34.34,0,0,0-.06-.12A.59.59,0,0,0,22,13a1.38,1.38,0,0,0-.65-.18.68.68,0,0,1-.32-.08l.08,0,.31-.1.1.09a.59.59,0,0,0,.32.13.72.72,0,0,0,.21,0l.19-.05.07,0,.08,0a.63.63,0,0,0,.12-.11.74.74,0,0,0,.21-.5,1,1,0,0,0,0-.25,1.44,1.44,0,0,0-.08-.25.24.24,0,0,0-.23-.12c-.13,0-.24.08-.23.17v0c0,.09-.14.21-.32.31a4.59,4.59,0,0,1-.63.26l-.34.1-.17,0h0a.29.29,0,0,1-.11-.09c-.06-.06-.12-.14-.17-.2v0l0,0A.4.4,0,0,0,20,12a2.47,2.47,0,0,1-1,.32.42.42,0,0,1-.34-.09.69.69,0,0,1-.18-.35,7.48,7.48,0,0,0-.23-.87,1.88,1.88,0,0,0-.6-.8,2.57,2.57,0,0,0-.51-.31c-.2-.09-.39-.16-.56-.22a3.17,3.17,0,0,1-.79-.44c.41-.12.87-.28,1.39-.49l-1.41-.12,3.54-.56-2.93,0a6.93,6.93,0,0,1,3.33-.7s-.54.47,1,.57,2-.13,2.37.31a3.22,3.22,0,0,1,.48.76l.74-.52A3,3,0,0,1,24.06,8h0a3.32,3.32,0,0,1,0-.63,1.54,1.54,0,0,1,0-.3.9.9,0,0,1,.11-.24.88.88,0,0,1,.21-.12.69.69,0,0,1,.26.06,1.58,1.58,0,0,1,.52.4,2.5,2.5,0,0,1,.35.52,2,2,0,0,1,.12.29c0,.11.06.18.1.29A.91.91,0,0,1,25.8,8.83Zm-10.49.54h0a2.46,2.46,0,0,0,1.05.6c.21.07.42.1.59.15a2.5,2.5,0,0,1,.5.21,1.21,1.21,0,0,1,.62.69,2.76,2.76,0,0,1,.08.86.82.82,0,0,0,.14.49.77.77,0,0,0,.31.22,2,2,0,0,0,.41.07,2.64,2.64,0,0,0,.72-.12l.3-.1s0,.05.06.07a.76.76,0,0,0,.16.14.72.72,0,0,0,.29.13.7.7,0,0,0,.25,0l.13,0h0a.13.13,0,0,0,.07.09,1,1,0,0,0,.31.1,1.32,1.32,0,0,1,.46.2.42.42,0,0,1,.12.15.19.19,0,0,1,0,.08h0l0,0h0v0l.09.09a1,1,0,0,0,.41.12h.37a2.49,2.49,0,0,0,1.24-.43,1.54,1.54,0,0,0,.38-.39l.27-.39c.17-.25.35-.49.51-.74l.17,0a.39.39,0,0,0-.08.1.82.82,0,0,0-.12.2,1.89,1.89,0,0,0-.09.21,1.09,1.09,0,0,0-.06.23.46.46,0,0,0,0,.23.59.59,0,0,0,.11.24,1.44,1.44,0,0,0,.35.39,4.45,4.45,0,0,0,1,.54c.34.16.66.33,1,.51l.07,0,.08-.05a9.54,9.54,0,0,0,1-.71,8,8,0,0,0,.83-.81,4.25,4.25,0,0,0,.57-.92,2.81,2.81,0,0,0,.16-.49,2.76,2.76,0,0,0,.07-.49h-.06l-.3.44c-.09.15-.21.28-.31.43l-.33.41-.34.41c-.23.28-.45.56-.71.82s-.45.51-.71.75a3.76,3.76,0,0,1-.87-.45c-.14-.1-.27-.21-.39-.31l-.34-.33c-.05-.05-.11-.1-.16-.16s-.11-.1-.13-.15a.59.59,0,0,1-.1-.16.39.39,0,0,1-.05-.18,1.19,1.19,0,0,1,0-.19v-.2c0-.07,0-.14,0-.21a.36.36,0,0,1,0-.1h.05a5.6,5.6,0,0,1,.85.31,1.77,1.77,0,0,1,.68.48.57.57,0,0,1,.17.28.65.65,0,0,0-.08-.31,1.92,1.92,0,0,0-.58-.61,4.21,4.21,0,0,0-.82-.45l-.33-.14.29-.49A2.31,2.31,0,0,0,26,10a1,1,0,0,0-.09-.47,1.07,1.07,0,0,0-.13-.19L26,9.29A.76.76,0,0,0,26.3,9l.76.08-.42-.34.63.07.15-.24a2.14,2.14,0,0,0,.81.17,3.69,3.69,0,0,0,1.23-.19,4.22,4.22,0,0,0,.9-.38l0,0-.25.08a5.54,5.54,0,0,1-.71.19,3.79,3.79,0,0,1-1.1.07,1.69,1.69,0,0,1-.66-.2l0-.05.11-.47a1.66,1.66,0,0,1-.69-1C26.8,6,26.71,4,25.84,3.42a9.48,9.48,0,0,0-4.62-1.1,1.77,1.77,0,0,0-.9.32l.41-.7-.68.67-.52-.44.09.52s-.16-.32-1.38-.34a4.33,4.33,0,0,0-3.52,1.12c-1.08,1.11-2.37,4.24-2.15,5.15C12.73,9.35,13.28,9.9,15.31,9.37Z"/><path class="cls-4" d="M18.6,9.76l.06.11.2-.12s-.15.44.39.41.14-.48.14-.48l.91-.23s-1.06,0-1.37.08-.33.23-.33.23"/><path class="cls-4" d="M17.66,9.3c.48.48,1.15.09,1.73-.12a5.08,5.08,0,0,1,1.7-.12,4.59,4.59,0,0,0-3.43.24"/><path class="cls-4" d="M2.73,18.35s0,0,0,0h0v0"/><path class="cls-4" d="M2.41,18.44h0s0,0,0,0h0s0,0,0,0h0Z"/><path class="cls-4" d="M8.66,23.38h0l-.48.08-.49,0h-.3a1.66,1.66,0,0,0,.66-.31.68.68,0,0,0,.18-.77,2.3,2.3,0,0,0-.53-.75,3.17,3.17,0,0,0-.34-.28c.43.1.87.2,1.31.28l.13,0H9a1.28,1.28,0,0,0,.29,0,3.32,3.32,0,0,0,.57-.06,6.22,6.22,0,0,0,1-.27,5.93,5.93,0,0,0,.94-.37l.3-.17a1.55,1.55,0,0,1-.07.23,3,3,0,0,1-.34.64,2.31,2.31,0,0,1-.55.53l-.37.22-.4.23a5.26,5.26,0,0,1-1.67.69m-2.07.15h0l-.37,0c0-.13,0-.28,0-.42a1.07,1.07,0,0,0-.08-.63,1.56,1.56,0,0,0-.86-.7,2.35,2.35,0,0,0-.45-.14h0a0,0,0,0,0,0,0,1.88,1.88,0,0,1,.33.23,1.67,1.67,0,0,1,.54.67,1.37,1.37,0,0,1,0,.52,1.91,1.91,0,0,0,0,.32.76.76,0,0,0,.16.36c.21.21.49.34.67.53s.23.43,0,.56a1.53,1.53,0,0,1-.8.19l-1,.11a9,9,0,0,1-1.62.11l-.14,0H3.07l-.08,0s-.05,0-.06,0,.17-.14.27-.16a.23.23,0,0,1,.23,0,.21.21,0,0,1,0,.07h0s0,0,0,0a.62.62,0,0,0,0-.09c0-.07-.15-.17-.35-.17a1.31,1.31,0,0,0-.27,0l-.1-.14-.07-.06-.05,0s0,.05,0,.07-.06,0,0-.06a.08.08,0,0,1,.07-.08.18.18,0,0,1,.14,0,1,1,0,0,1,.09.07s0,0,.06,0l.14,0,.1,0h.06s.06,0,.08-.08a.2.2,0,0,0-.11-.23.67.67,0,0,0-.18-.07.23.23,0,0,0,.14-.21v0a.25.25,0,0,0,0-.07.31.31,0,0,0-.11-.09.53.53,0,0,0-.25,0l-.21,0-.14,0s0,0,0,0a.6.6,0,0,1-.1-.11c0-.07-.07-.15,0-.19l0,0c0-.05,0,0,.05,0l.12-.05a.9.9,0,0,1,.25,0,.65.65,0,0,1,.14,0l.15,0a4.18,4.18,0,0,0,.41.09c.14,0,.29,0,.42,0s.21,0,.32,0a1.38,1.38,0,0,0,.29,0A3.54,3.54,0,0,0,5,23.69a.91.91,0,0,0,.19-.05h0a0,0,0,0,0,0,0,1.44,1.44,0,0,0-.63-.19,1.82,1.82,0,0,0-.33,0,1.48,1.48,0,0,0-.36.1.57.57,0,0,1-.31.07.42.42,0,0,1-.25-.16.62.62,0,0,0-.17-.12h0L3,23.12a3.51,3.51,0,0,1-.46-1,.94.94,0,0,1,0-.62,1,1,0,0,1,.65-.43A4.38,4.38,0,0,1,4.31,21,4.76,4.76,0,0,1,5.45,21a3.87,3.87,0,0,1,1.86.85c.45.38.78.87.49,1.19a1.52,1.52,0,0,1-.6.33l-.31.08H6.63a0,0,0,0,0,0,0h.05Zm-4.17,1h0s0-.14,0-.21,0,0,0,0l0,0h0a.23.23,0,0,1,0-.09.2.2,0,0,1,.13-.06.16.16,0,0,1,.12.06.16.16,0,0,1,0,.08l.11.09.07.05-.09,0-.19.07C2.59,24.57,2.52,24.56,2.42,24.58ZM16.75,21h0s0,0,0,0S16.73,21,16.75,21Zm2.61,1a.18.18,0,0,0,0-.12.36.36,0,0,0-.1-.07.32.32,0,0,0-.13,0,.16.16,0,0,0,0-.12.21.21,0,0,0-.11-.08.47.47,0,0,0-.31,0s0,0,0,0a1,1,0,0,0,.09.17l.05,0s.05,0,.08,0,0,.05,0,.07a.16.16,0,0,1-.12,0,1.34,1.34,0,0,0-.48.06,1.24,1.24,0,0,0-.22.13,0,0,0,0,0,0,0,.72.72,0,0,0,.28.09.63.63,0,0,0,.27,0l.15-.06a.29.29,0,0,0,.12-.1l.1-.1,0,.05.05,0,.11,0s.08,0,.07.07,0,0-.07.05a.81.81,0,0,0-.3.1.67.67,0,0,0-.06-.12h0s0,0,0,0a.57.57,0,0,1-.08.29l0,0h0v0a.89.89,0,0,1-.3.23,4.2,4.2,0,0,1-.45.18,1,1,0,0,0-.36.4c-.13.25-.21.48-.32.7a.54.54,0,0,1-.22.25.81.81,0,0,1-.43.05.75.75,0,0,1-.7-.41c0-.1,0-.23-.11-.39a1.14,1.14,0,0,0-.46-.31,5.16,5.16,0,0,0-.52-.16,2.89,2.89,0,0,1-.44-.14.25.25,0,0,1-.15-.18.46.46,0,0,1,0-.26.19.19,0,0,0-.09-.21.41.41,0,0,0-.44,0h0l-.16.09-.2.1-.44.17a7.15,7.15,0,0,1-1,.27,9.89,9.89,0,0,1-1.11.15l.36-.21a3.93,3.93,0,0,0,.41-.26,2.37,2.37,0,0,0,.61-.66,1.92,1.92,0,0,0,.3-.73,2.73,2.73,0,0,0,.06-.49c.35-.17.69-.33,1-.46l.32-.09.31-.06s.14,0,.12,0h.19l.12,0,.15.07a1.79,1.79,0,0,1,.84.86c.09.16.15.34.23.51l.24.5a.3.3,0,0,0,.34.12h0a2,2,0,0,0,.45-.13,2,2,0,0,0,.41-.2,1.22,1.22,0,0,0,.17-.15l.07-.08.05-.07.16-.27s0,0,0,0,0,0,.05,0h0s0,0,0,0,0,0,.05,0-.1.32-.31.45c0,0,0,0,0,0l0,0a.85.85,0,0,0,.62-.43l0,.06.05,0,.11,0s.08,0,.07.06,0,0-.07.05a.78.78,0,0,0-.38.15.87.87,0,0,0-.13.17s0,0,0,0a.81.81,0,0,0,.28,0,.53.53,0,0,0,.24-.08.48.48,0,0,0,.11-.09.27.27,0,0,0,.06-.12v-.14a.21.21,0,0,1,0-.11.18.18,0,0,0-.13-.19.45.45,0,0,0-.25,0,.27.27,0,0,0-.05-.14.39.39,0,0,0-.14-.1l-.15-.06a.9.9,0,0,0-.37,0,.49.49,0,0,0-.28.17,3.32,3.32,0,0,0-.22.27l-.05.06,0,0-.1.08a1.73,1.73,0,0,1-.27.15l-.1,0-.14-.2a.69.69,0,0,0,.45-.23h.11l.07,0a.23.23,0,0,0,.15-.16.22.22,0,0,0-.09-.19.47.47,0,0,0-.2-.11s0,.07,0,.16,0,0,0,.06h-.41a.3.3,0,0,1-.14,0l-.05,0s-.05.08.06.18a.68.68,0,0,0,.21.11l.13,0h.12l-.41.17a5.18,5.18,0,0,0-.44-.51c-.3-.31-.55-.61-.89-.92l-.15-.11a1.51,1.51,0,0,0-.22-.11l-.19-.05-.27,0a3.11,3.11,0,0,0-.44.07,2.58,2.58,0,0,0-.39.14,2.91,2.91,0,0,0-.62.37.86.86,0,0,0-.14.13q0-.11.09-.24a2.29,2.29,0,0,0,.11-.62,2.48,2.48,0,0,0-.07-.71,2.8,2.8,0,0,0-.29-.69,2.66,2.66,0,0,0-.42-.55,2.55,2.55,0,0,0-.59-.46s.13.23.29.56c.08.16.16.35.24.56s.07.21.11.32.06.22.09.33.09.44.13.66,0,.21,0,.3,0,.19,0,.28,0,.1,0,.14-.12,0-.13.1a.48.48,0,0,1-.17.27,1.64,1.64,0,0,1-.36.25,4.39,4.39,0,0,1-.88.37,4.18,4.18,0,0,1-1,.16,3.84,3.84,0,0,1-.48,0L9,21.4l-.1,0-.13,0c-.66-.17-1.33-.31-2-.43l-.47-.08a5.44,5.44,0,0,0-.72-.2l-.43-.05a.08.08,0,0,1,0-.07.41.41,0,0,1,.08-.14.44.44,0,0,0,.08-.1.71.71,0,0,0,.1-.14.86.86,0,0,0,.08-.55.58.58,0,0,0-.12-.25,1.76,1.76,0,0,0-.21.21,3.52,3.52,0,0,0-.3.45.43.43,0,0,1,0,.12.59.59,0,0,0-.07.16.37.37,0,0,0,0,.18.34.34,0,0,0,.07.11H4.28A4.82,4.82,0,0,0,3,20.77a1.26,1.26,0,0,0-.84.67,1,1,0,0,0,0,.76,3.61,3.61,0,0,0,.69,1l.08.08-.07,0a1.55,1.55,0,0,0-.49,0,.78.78,0,0,0-.46.2.4.4,0,0,0-.11.15.31.31,0,0,0,0,.16A.36.36,0,0,0,2,24a.47.47,0,0,0,.2.08l-.1,0-.07,0,0,0H2l-.05,0a.22.22,0,0,0-.07.22.32.32,0,0,0,.14.18.6.6,0,0,0,.27.06l-.07.06a.23.23,0,0,0,0,.29.56.56,0,0,0,.35.16h0c-.1.12,0,.31.17.38l.07,0h0s0,0,0,0h0l.05,0,.21.06A5.56,5.56,0,0,0,5,25.63l1-.17a1.56,1.56,0,0,0,1-.42A.4.4,0,0,0,7,24.63a.86.86,0,0,0-.23-.34,2.24,2.24,0,0,1-.53-.55.35.35,0,0,1,0-.13h.39l.33,0a5.85,5.85,0,0,0,.73.12,4.89,4.89,0,0,0,.54,0,5.07,5.07,0,0,0,.55,0,5,5,0,0,0,1.05-.25,4.76,4.76,0,0,0,.65-.29,8.36,8.36,0,0,0,1.5,0,7.28,7.28,0,0,0,1.12-.19,3.16,3.16,0,0,0,.52-.17h0a.8.8,0,0,0,.45.41,4.25,4.25,0,0,0,.57.14l.49.1a.89.89,0,0,1,.38.15c.08.05.09.2.17.33a1,1,0,0,0,.34.33,1.68,1.68,0,0,0,.52.18l.29,0a1,1,0,0,0,.33,0,1,1,0,0,0,.46-.32,2,2,0,0,0,.41-.71,1.53,1.53,0,0,1,.15-.25,3.42,3.42,0,0,0,.44-.25.73.73,0,0,0,.28-.38H19a.53.53,0,0,0,.24-.08l.11-.09a.21.21,0,0,0,.05-.13.28.28,0,0,0,0-.13A.53.53,0,0,1,19.36,22Z"/><path class="cls-4" d="M8,13a2.15,2.15,0,0,0-1.15,1.1S8,12.93,8.65,13l.23.05s-.07-.28-.85,0"/><path class="cls-4" d="M8.36,13.43a6.63,6.63,0,0,0-.88.55L8,13.74s0,.16.24.16.48-.19.39-.27a.42.42,0,0,1-.11-.13l.17-.05s-.06-.16-.37,0"/><path class="cls-4" d="M11.19,12.67c0-.22-.44-.07-.66.07s-.16.22-.16.22c.27-.16.09.1.32.1s.29-.13.28-.25-.19-.09-.1-.13a.89.89,0,0,1,.32,0"/><path class="cls-4" d="M11.09,12.06h0c-.67-.07-1.18.38-1.09.83s.47.52.69.74-.26.44-.26.44c.33,0,.35-.09.5-.27s0-.2-.43-.45-.31-.58-.18-.88.66-.33.8-.34a1.67,1.67,0,0,0,.12.23,4.58,4.58,0,0,0,.71,1c.07.08.18.17.23.22a.21.21,0,0,1,.05.09.45.45,0,0,1,0,.11,1.17,1.17,0,0,1,0,.49,2.2,2.2,0,0,1-.23.46,2.49,2.49,0,0,1-.38.42,2.31,2.31,0,0,1-.5.34,3.2,3.2,0,0,1-.56.26h0a4.73,4.73,0,0,1-.67.2,5.21,5.21,0,0,1-.72.1A6.68,6.68,0,0,1,7.63,16a6.86,6.86,0,0,1-1.4-.38h0l-.37-.11.09,0a.37.37,0,0,0,.23-.09.12.12,0,0,0,.06-.11c0-.08-.11-.1-.12-.1A.29.29,0,0,1,5.86,15a.37.37,0,0,0,0-.16c0-.05-.14-.09-.17-.09l-.1,0-.16,0-.22,0a.34.34,0,0,0-.15,0,.09.09,0,0,0,0,.1.15.15,0,0,0,0,.09l.09.06h0v-.07s0-.05,0-.06,0,0,0,0,0,0,0,0l.12,0a.71.71,0,0,0,.21,0H5.6s0,0,0,0a.67.67,0,0,0,.12.12c.11.09.18.17.28.26s0,0,0,0,0,0,0,0l-.07,0h0l-.06-.05-.06-.06h0a.24.24,0,0,0,0,.08.15.15,0,0,0,.09.16l-.41-.16c-.39-.25-.7-.55-.54-.7s1,0,1,0a1.28,1.28,0,0,0,.7.39l-.26-.36.76.42A2.5,2.5,0,0,1,6,14a1.79,1.79,0,0,1,.2-1.6l.07.78.93-1.4,0,1.35.57-1.2.21.84.31-.68,0,.55.47-1.09.15.94.83-.71-.17.47.66-1.17V12l.62-1,0,.29a1.23,1.23,0,0,0,.11.53,2,2,0,0,0,.1.21m-6.55,3c.39.29,1.43,1,1.43,1l-.19-.38.81.54-.18-.36.48.32-.31-.37c.32.1.65.2,1,.27a7.31,7.31,0,0,0,1.56.16,5.52,5.52,0,0,0,.81-.06l.39-.08h.08a.49.49,0,0,0,0,.12.54.54,0,0,0,.2.32c.08.07.16.09.15.1s0,0-.07-.13a.31.31,0,0,1,0-.28.16.16,0,0,1,.06-.08,1.19,1.19,0,0,1,.34.07,1.71,1.71,0,0,1,.41.2.73.73,0,0,1,.09.08l.08.09.16.21c.21.31.44.69.72,1.09a4.58,4.58,0,0,0,.51.61,1.55,1.55,0,0,0,.41.3l.45.19a2.44,2.44,0,0,1,.72.38,4.54,4.54,0,0,1,.53.54,1.18,1.18,0,0,0,.37.27,1.34,1.34,0,0,0,.51.14l.4,0a.24.24,0,0,1,.16.09c.06.09,0,.2-.23.25a1.32,1.32,0,0,1-.47.05.29.29,0,0,1-.14,0s0-.06,0-.08l.08-.06-.1.05s-.08,0-.08.1.11.09.18.11a1.77,1.77,0,0,0,.57,0,.84.84,0,0,0,.35-.13.29.29,0,0,0,.13-.33.51.51,0,0,0-.37-.28c-.16,0-.31-.05-.43-.07a.89.89,0,0,1-.54-.32,3.72,3.72,0,0,0-.52-.59,3.16,3.16,0,0,0-.86-.48l-.43-.17a1.1,1.1,0,0,1-.27-.2,6.42,6.42,0,0,1-.51-.54c-.31-.38-.59-.74-.88-1a1.61,1.61,0,0,0-.23-.22l-.12-.09-.14-.07a1.65,1.65,0,0,0-.51-.16,1.19,1.19,0,0,0-.36,0A.77.77,0,0,1,10.9,16l.11-.08h0a3.5,3.5,0,0,0,1-.59,2.19,2.19,0,0,0,.42-.5,1.63,1.63,0,0,0,.22-.55,1.27,1.27,0,0,0,0-.58.94.94,0,0,0-.06-.15c0-.05-.08-.12-.12-.14l-.26-.2a5.34,5.34,0,0,1-.84-.88,2.21,2.21,0,0,1-.36-.72,2.57,2.57,0,0,0,.07-.93C11,9.86,9.88,9.24,8.86,9a6,6,0,0,0-3.74.3c-1.8.59-2.85,2.37-2.41,3.71A3.75,3.75,0,0,0,4.54,15.06Z"/><path class="cls-4" d="M7,15.07l0,0Z"/><path class="cls-4" d="M11.06,14.34a2.61,2.61,0,0,1-1.56.5s1.63.17,1.56-.5"/><path class="cls-4" d="M10.28,15.05s-.59.13-.29.21,1.09-.19.29-.21"/><path class="cls-4" d="M18.88,14.6a9.27,9.27,0,0,0,2.16.34l-2.63-.71c0,.1.13.23.47.37"/><path class="cls-4" d="M21.34,15h0"/><path class="cls-4" d="M27.53,17.66h0s0,0,0,0"/><path class="cls-4" d="M29.42,18.06c-.25-.09-.5-.19-.76-.27l-.79-.23-.35.25c0-.07,0-.07,0-.1s0,0,0,0h0l-.1,0a1.28,1.28,0,0,1-.26.1,4.91,4.91,0,0,1-.58.18,2.7,2.7,0,0,1-.62.08,1.35,1.35,0,0,1-.29,0,1.17,1.17,0,0,1-.26-.1,3.18,3.18,0,0,1-.43-.28l-.4-.31c-.26-.22-.5-.46-.78-.7h-.05a1.57,1.57,0,0,0,.37.81h0a3.06,3.06,0,0,1-.49.2,1,1,0,0,1-.64,0,2,2,0,0,1-.59-.4l-.08-.07s0,0,0,0,0,0,0-.06a.42.42,0,0,1,.16-.22,6.57,6.57,0,0,1,.52-.43l.59-.41a3.88,3.88,0,0,0-.79.23,3.6,3.6,0,0,0-.72.38,1.31,1.31,0,0,0-.21.2l-.11-.14-.14-.18a.36.36,0,0,0-.07-.1l0,0h0l0,0h0v0l0,0s0,0,0,0h0s0,0,0-.06l.19-.14c.33-.2.74-.39,1-.55s.5-.27.5-.27a2.85,2.85,0,0,0-.64.07,3.84,3.84,0,0,0-1.29.45,1.32,1.32,0,0,0-.28.25.49.49,0,0,1-.18-.25c0-.13.11-.25.28-.38a1.75,1.75,0,0,1,.25-.16l.28-.12.32-.09.32-.06.82-.1-.78-.24-1.79-.55c-.3-.09-.59-.19-.86-.29l-.19-.08c-.06,0-.05,0-.12-.06v0h0l0,0a1,1,0,0,1,.28,0h.47c.28,0,.62.06.93.1.65.09,1.29.19,1.92.33a13.72,13.72,0,0,1,1.83.51c.29.1.6.2.86.31l.41.18a3.75,3.75,0,0,0,.47.17,17,17,0,0,0,1.9.45c.64.12,1.29.21,1.95.28v0c-.61-.18-1.22-.36-1.84-.52s-1.23-.32-1.81-.5l-.42-.14-.46-.16c-.32-.09-.63-.16-.95-.23L23,13.91l-1.88-.47a7.17,7.17,0,0,0-1-.17,4.28,4.28,0,0,0-.52,0,1.53,1.53,0,0,0-.64.11.31.31,0,0,0-.18.33.42.42,0,0,0,0,.12l0,0,0,0h0l0,0a.84.84,0,0,0,.25.17l.22.11a8.23,8.23,0,0,0,.91.32c.42.13.84.24,1.26.35l-.1,0a2.57,2.57,0,0,0-.33.18,2,2,0,0,0-.26.23,1.59,1.59,0,0,0-.2.24.33.33,0,0,0,0,.32.83.83,0,0,0,.35.29.69.69,0,0,0,0,.1.35.35,0,0,0,0,.22l0,.06.05.05,0,0,.12.09a1.43,1.43,0,0,0,.22.15,1.53,1.53,0,0,0,.29.14s0,0,0,0a.31.31,0,0,0,0,.28.6.6,0,0,0,.09.13l.07.07a2.23,2.23,0,0,0,.86.49,1.57,1.57,0,0,0,.57,0,1.14,1.14,0,0,0,.43-.14,1.26,1.26,0,0,0,.27-.19,1.79,1.79,0,0,0,.14-.15h0a2,2,0,0,0,.44.37,1.55,1.55,0,0,0,.29.14,1.33,1.33,0,0,0,.34.1,2.76,2.76,0,0,0,.7.06l.34,0,.32,0,.67-.07.34-.06.18-.07.58.22a6.91,6.91,0,0,0,.77.25,12.52,12.52,0,0,0,1.66.36l0,0a10.93,10.93,0,0,0-1.42-.68"/><path class="cls-4" d="M4.19,10.16c.24-.67-.65-1.31-1.78-.63a3,3,0,0,0-1,2.43s2.4-.63,2.83-1.8"/></svg>