<svg id="Capa_1" data-name="Capa 1" xmlns="http://www.w3.org/2000/svg" viewBox="0 0 31.18 27.64"><defs><style>.cls-1{fill:#f5a4c7;}.cls-2{fill:#fccdb5;}.cls-3{fill:#231f20;}</style></defs><title>1-2meses</title><path class="cls-1" d="M21.57,18.15s-1.09,1.1-.59,1.68a1.38,1.38,0,0,0,.92.58l4.94,1s2.29.2,2.7-.73a4.67,4.67,0,0,0-.38-3.48,4.79,4.79,0,0,0-2.43-1.35c-.85-.08-5.16,2.28-5.16,2.28"/><path class="cls-2" d="M22.23,20.11c-.69.86-1.74,1.52-1,2.66a13.13,13.13,0,0,0,1.62,2s.6.17,0,.33A2.71,2.71,0,0,0,21.5,26c0,.16.53.1.53.1s-.45.12-.24.33.35.19.35.19a.34.34,0,0,0,.15.33c.19.13.55.52.83.5a24.6,24.6,0,0,0,2.33-.88c.43-.16,1.22-.54,1.25-.79s-.3-.5-.56-.64-.82-.16-.81-.75.05-1.52-.25-1.81a4.86,4.86,0,0,0-.57-.49A10.83,10.83,0,0,0,27,21.3c.21-.28.74-1.37.5-1.87a1.37,1.37,0,0,0-1.53-.91,7,7,0,0,0-3.69,1.59"/><path class="cls-2" d="M31.18,10.23v3.94l-2.9.18a16.7,16.7,0,0,0-1.72.17l-.12.67a1.31,1.31,0,0,1,.64.62c.24.47-1.12,2.15-2.88,2.6a7.41,7.41,0,0,1-2.55.32.81.81,0,0,1-.77,0,3.43,3.43,0,0,0-.62-.33,1,1,0,0,1-.73,0,2.68,2.68,0,0,1-.34-.22l-1-.4-.34.35a.71.71,0,0,1-.26.87c-.49.43-1,1-.89,1s.07.3-.3.54a5.06,5.06,0,0,1-.58.35l-.16-.13s-.28.32-.55.26-.95-.71-.7-1.11.48-.95.7-1.23a14.28,14.28,0,0,0,.62-2.28l-.89-.79s-.66.59-1.82-.18-1.11-1.12-1-1.2,1.43-1.8,1.53-1.95a6.31,6.31,0,0,1,2.37-1c.41.1,2.16.39,2.16.39a9.86,9.86,0,0,1,3,.16c1,.35.45.22.45.22s-.16-.28,1.32-1a11.15,11.15,0,0,1,4.4-.49,24.71,24.71,0,0,0,3.95-.41"/><path class="cls-3" d="M29.5,20h0a1.66,1.66,0,0,1-.14.43,1.28,1.28,0,0,1-.29.37.64.64,0,0,1-.2.16,1.36,1.36,0,0,1-.24.13,2.46,2.46,0,0,1-.58.17,4.28,4.28,0,0,1-1,.06,2.71,2.71,0,0,0,.42-.62,1.46,1.46,0,0,0,.16-.44,1.18,1.18,0,0,0,0-.46,1,1,0,0,0-.13-.44,1,1,0,0,0-.13-.22,1,1,0,0,0-.17-.19,1.51,1.51,0,0,0-.48-.34,1.85,1.85,0,0,0-.67-.12,4.23,4.23,0,0,0-1.31.21,7.86,7.86,0,0,0-1.15.45,11,11,0,0,0-1.79,1.11,3.61,3.61,0,0,1-.39-.22l-.21-.18a1,1,0,0,1-.15-.2s0-.07-.05-.1a.52.52,0,0,1,0-.11.37.37,0,0,1,0-.23.7.7,0,0,1,.09-.17l.12,0a.46.46,0,0,0,.15,0h.11l.08,0a1.27,1.27,0,0,0,.22-.13,4.67,4.67,0,0,0,.75.09,5.38,5.38,0,0,0,1.53-.19,7.3,7.3,0,0,0,.79-.26c.24-.12.5-.23.72-.37l.17-.1.05,0,0,0,.08-.05.3-.21a4.26,4.26,0,0,0,.53-.5,1.79,1.79,0,0,0,.33-.53,1.17,1.17,0,0,0,.07-.51s0,0,0-.07a5.16,5.16,0,0,1,1,.48,2.67,2.67,0,0,1,.78.75,2.14,2.14,0,0,1,.26.43,3.57,3.57,0,0,1,.19.45c0,.15.08.31.11.46s.06.3.07.47a3.77,3.77,0,0,1,0,.47,2.32,2.32,0,0,1,0,.46m-4.4,3.94h0l0,.5a.74.74,0,0,0,.26.58,2.25,2.25,0,0,0,.6.38,5.4,5.4,0,0,1,.54.27c.05,0,.1.07.1.1s0,0,0,0a.34.34,0,0,1,0,.11,1.07,1.07,0,0,1-.35.29,6.43,6.43,0,0,1-1.2.43,2.35,2.35,0,0,0-.35.11l-.19.07a1.4,1.4,0,0,0-.16.1,3.07,3.07,0,0,1-.51.28,1.52,1.52,0,0,1-.57.13c-.22,0-.35-.06-.33-.16l0-.08-.09,0-.26-.08-.25-.08-.1-.05s0,0,0,0,.08-.06.14-.08l.5-.14H22c-.08,0-.16-.08-.17-.13s0-.12.08-.17a1,1,0,0,1,.27-.12,1.52,1.52,0,0,1,.32-.06,1.8,1.8,0,0,0,.38-.07,1.66,1.66,0,0,0,.33-.15,1.29,1.29,0,0,0,.25-.2.92.92,0,0,0,.19-.25l0,0-.05-.05c-.36-.4-.68-.82-1-1.22a15.15,15.15,0,0,1-.95-1.24c-.06-.1-.13-.21-.18-.31a.59.59,0,0,1-.07-.16.49.49,0,0,1-.05-.16,1.13,1.13,0,0,1,0-.32,1.43,1.43,0,0,1,.06-.34,3.73,3.73,0,0,1,.28-.66l.2-.31h0l.15-.1a19.92,19.92,0,0,1,1.91-1.12c.34-.17.68-.34,1-.48a3.66,3.66,0,0,1,1.13-.27,1.52,1.52,0,0,1,.57.06,1.39,1.39,0,0,1,.43.28.86.86,0,0,1,.16.18.59.59,0,0,1,.12.2.86.86,0,0,1,.1.41,1,1,0,0,1-.06.42,1.36,1.36,0,0,1-.2.4,2.93,2.93,0,0,1-.65.72l-.19.16c-.63.16-1.25.32-1.87.5l-.23.06.18.14A1.64,1.64,0,0,1,25,23,2.63,2.63,0,0,1,25.1,23.92Zm-3.32,2h0s0,0,.06-.07.18-.19.27-.32a.75.75,0,0,1,.17-.14h0l0,0,0,0,0,0h0a.32.32,0,0,0,.11.06.22.22,0,0,0,.18,0c.05,0,.06,0,.06-.09s0,0,0,0h0l0,0,0,0-.05,0h0a.38.38,0,0,1,.11,0h0v0h0s0,0,0,0,0,0,0,0l.24-.14.27.25a1,1,0,0,1-.29.34.84.84,0,0,1-.25.13,1,1,0,0,1-.31.07l-.37.08-.08,0-.07,0c-.07,0-.17-.1-.18-.14S21.78,25.9,21.78,25.91Zm.6-.48h0a.06.06,0,0,1,0,0v0A0,0,0,0,1,22.38,25.43ZM22,17.82h0a.52.52,0,0,1,.19-.28l.4-.3c.13-.11.26-.22.38-.34a1.88,1.88,0,0,0,.28-.34c.38-.07.73-.17,1.09-.27l1.11-.35a2.64,2.64,0,0,0,1-.53l.1-.12s.05.07.08.12a1,1,0,0,1,.13.29,1.46,1.46,0,0,1,0,.37,1.26,1.26,0,0,1-.16.43,2.25,2.25,0,0,1-.35.44,5.06,5.06,0,0,1-.49.41l-.31.21-.08.05,0,0,0,0-.16.09a6.71,6.71,0,0,1-.65.35c-.23.09-.46.2-.69.27a5.79,5.79,0,0,1-1.34.27c-.23,0-.43,0-.61,0a.61.61,0,0,0,.12-.46A.94.94,0,0,1,22,17.82Zm-4.18.32h0v.14s0,.08,0,.12a1.66,1.66,0,0,1-.11.24,6.39,6.39,0,0,1-.76.94,2.4,2.4,0,0,0-.39.5c-.09.19-.06.38-.18.51s-.36.3-.5.24a.28.28,0,0,1-.13-.11h0a.67.67,0,0,0-.14-.34L15.37,20l.08.38a1,1,0,0,0,.1.28h0a.3.3,0,0,1-.14.26c-.17.14-.42,0-.57-.21a.75.75,0,0,1-.26-.56,1.23,1.23,0,0,1,.3-.56,7,7,0,0,0,.48-.58,2.51,2.51,0,0,0,.29-.66,10,10,0,0,0,.35-1.3c.09-.44.17-.87.23-1.31l.17-1.3a3.83,3.83,0,0,1,.2-.63A3.92,3.92,0,0,1,18,12.21l0,0a4.1,4.1,0,0,0-1.29,1,4.74,4.74,0,0,0-.42.61,4,4,0,0,0-.26.65c-.12.45-.16.88-.25,1.31,0,.17-.07.34-.11.51l-.54-.62-.07-.07-.14,0a2.05,2.05,0,0,1-1,.11,2,2,0,0,1-.74-.23L13,14.19l.75.82-.32-1.27,1.18.6c-1.16.79-.16,1.14-.16,1.14-.44-.49.41-1.29.41-1.29l-.23.14-.74-.66,1.44.63-.58-.73s-1.21-1.2-.14-1.23a1.35,1.35,0,0,1,1.36.81h.78l-1.1-.64,1.39.23-.46-.3-.29-.59,1.32.42-.68-.66.61.16.13.1a1.14,1.14,0,0,0,.81.14h0a3.8,3.8,0,0,1,.5-.06c.17,0,.34,0,.51,0q.52,0,1,0a6.78,6.78,0,0,1,1,.17,4.6,4.6,0,0,1,.5.13l.17.06c-.37.18-.75.33-1.15.48s-.89.3-1.34.41l-.21,0v.16a3,3,0,0,1,0,.52,4.71,4.71,0,0,1-.09.52,8.54,8.54,0,0,1-.34,1c-.29.69-.64,1.37-1,2.07A3.63,3.63,0,0,0,17.85,18.14ZM12.44,14.9h0v-.25l.4.61A2.77,2.77,0,0,1,12.44,14.9ZM30,18.52c-.05-.16-.11-.33-.17-.49a3.67,3.67,0,0,0-.25-.48,2.31,2.31,0,0,0-.33-.46,3.32,3.32,0,0,0-1-.75,4.26,4.26,0,0,0-.62-.26,5.36,5.36,0,0,0-.54-.14,1.3,1.3,0,0,0-.35-.57l-.15-.11a1.07,1.07,0,0,0,.16-.27.62.62,0,0,0,.07-.23.13.13,0,0,1,0-.06c.69,0,1.37-.11,2.06-.18s1.52-.18,2.27-.31v0c-.77,0-1.54,0-2.31.05s-1.53.09-2.29.16l-.27,0,.06.17a.79.79,0,0,1,0,.17.55.55,0,0,1,0,.18.76.76,0,0,1-.17.35,1.14,1.14,0,0,1-.34.31,2.28,2.28,0,0,1-.47.23,7.7,7.7,0,0,1-1.09.35,9.07,9.07,0,0,1-1.16.2h-.06l0,.06a1.94,1.94,0,0,1-.33.3l-.41.29c-.14.1-.28.17-.44.28a.85.85,0,0,0-.35.45,1.17,1.17,0,0,0,0,.45.27.27,0,0,1-.09.26.48.48,0,0,1-.16.08l0,0h-.07l.05,0h0l-.12,0s0,0-.1-.08a.91.91,0,0,1-.11-.33,2.34,2.34,0,0,1,0-.38,2.68,2.68,0,0,1,0-.4c0-.06,0-.14,0-.19a.6.6,0,0,1,.06-.19,9,9,0,0,1,.87-1.51l-.05,0a8.89,8.89,0,0,0-.69.68,4,4,0,0,0-.56.76l-.1.21-.06.22a3.07,3.07,0,0,0-.07.42,2.16,2.16,0,0,0,0,.44l0,.17a.5.5,0,0,1-.49,0,.66.66,0,0,1-.14-.57,1.9,1.9,0,0,1,.08-.37,3.43,3.43,0,0,1,.13-.38,14.84,14.84,0,0,1,.64-1.41c.19-.39.31-.66.31-.66a3.82,3.82,0,0,0-.61.56A4.67,4.67,0,0,0,19.29,17c-.05.14-.09.28-.13.42a1.49,1.49,0,0,0,0,.42.78.78,0,0,0,0,.16H19l-.1,0-.05,0s0,0,0,0a1.47,1.47,0,0,1-.23-.29l0,0a20.78,20.78,0,0,0,1-2A7.8,7.8,0,0,0,20,14.53a3.69,3.69,0,0,0,.11-.56,2,2,0,0,0,0-.42c.42-.12.82-.24,1.22-.38a9.73,9.73,0,0,0,1.32-.57l.31-.17.13-.08.15-.08A2.74,2.74,0,0,1,23.8,12a6.5,6.5,0,0,1,1.38-.25c.48,0,1,0,1.5-.08.26,0,.52,0,.76-.08l.74-.08,3-.23v0c-1,0-2,0-3,.05l-.76,0c-.27,0-.5.05-.74.05-.49,0-1,0-1.52,0a6.75,6.75,0,0,0-1.55.23,3.87,3.87,0,0,0-.72.29l-.15.08-.15.08c-.09.06-.19.1-.28.15A4.21,4.21,0,0,0,21.6,12l-.05,0,.24-.13c.23-.12.56-.29,1-.46.2-.09.43-.17.67-.25A3.61,3.61,0,0,1,24.2,11l.91-.05,1,0c1.29-.05,2.6-.13,3.57-.27a7.43,7.43,0,0,0,1.15-.23,1.2,1.2,0,0,0,.29-.12l.09,0-.11,0a.93.93,0,0,1-.31.06,9.44,9.44,0,0,1-1.16.09l-3.56.1-1,.05c-.33,0-.63,0-1,.08a3.65,3.65,0,0,0-.88.22,4.65,4.65,0,0,0-.67.33,7.1,7.1,0,0,0-.84.58l-.21.18a5.85,5.85,0,0,0-1-.23,8,8,0,0,0-1.1-.11h-.57a3.73,3.73,0,0,0-.57,0h0a.68.68,0,0,1-.5-.34,5.1,5.1,0,0,0-.42-.76l-.2-.19,0-.09c-.32-1-2.25-1-2.93-1a3.77,3.77,0,0,0-3.76,2.4c-.82,2.33,1.68,4.07,2,4.48v-.72l.29.2a2.91,2.91,0,0,0,.51.22l0,0v0a3.19,3.19,0,0,0,.63.12,2.5,2.5,0,0,0,1.1-.19l.67.54c-.05.23-.09.45-.15.68-.1.43-.19.86-.32,1.28a4,4,0,0,1-.23.61c-.11.19-.27.37-.41.58a1.32,1.32,0,0,0-.28.68.92.92,0,0,0,.36.66,1.6,1.6,0,0,0,.37.26.67.67,0,0,0,.3.05.44.44,0,0,0,.27-.1.43.43,0,0,0,.15-.15v0l.09.05a.54.54,0,0,0,.46-.06,1.24,1.24,0,0,0,.28-.22c.16-.19.13-.39.22-.54a1.77,1.77,0,0,1,.39-.45,7.6,7.6,0,0,0,.85-1,1.25,1.25,0,0,0,.15-.28.8.8,0,0,0,0-.15v-.05s0,0,0,0v-.07l0-.09a.28.28,0,0,0,.07.09.5.5,0,0,0,.23.12.67.67,0,0,0,.28,0,.8.8,0,0,0,.35-.11h0a.17.17,0,0,0,0,.05.72.72,0,0,0,.33.34.77.77,0,0,0,.51.05.65.65,0,0,0,.22-.1,1.13,1.13,0,0,0,.09.2l.11.13a.78.78,0,0,0,.19.12A1.07,1.07,0,0,0,21,19a.45.45,0,0,0-.11.13.72.72,0,0,0-.09.27.65.65,0,0,0,0,.14s0,.09,0,.13a1.35,1.35,0,0,0,.15.26,2.28,2.28,0,0,0,.22.22,3.53,3.53,0,0,0,.55.37h0a4.12,4.12,0,0,0-.28.31,2.74,2.74,0,0,0-.41.67,2.53,2.53,0,0,0-.12.36,1.28,1.28,0,0,0,0,.39,1.62,1.62,0,0,0,0,.19l.07.18a3.78,3.78,0,0,0,.17.35,8.3,8.3,0,0,0,1,1.28c.21.24.44.47.68.7a.86.86,0,0,0-.27,0,.46.46,0,0,0-.3.21s0,0,0,0h-.05l-.29.09a1.41,1.41,0,0,0-.31.08,2.07,2.07,0,0,0-.25.15.37.37,0,0,0-.17.25.29.29,0,0,0,.2.31.66.66,0,0,0,.34.05.29.29,0,0,0-.12.28c0,.11.17.17.28.22H22l0,.05c0,.06,0,.12.07.15l.14.08.25.1.17.06a.3.3,0,0,0,.15.25,1,1,0,0,0,.41.12,2.21,2.21,0,0,0,.8-.12,2.83,2.83,0,0,0,.63-.3.67.67,0,0,1,.12-.06l.13,0,.32-.09a6,6,0,0,0,1.36-.44,1.54,1.54,0,0,0,.56-.46.67.67,0,0,0,.06-.12c0-.07,0-.16,0-.22a.63.63,0,0,0-.26-.32,5,5,0,0,0-.61-.31,1.46,1.46,0,0,1-.45-.29.43.43,0,0,1-.17-.33v-.49a2.82,2.82,0,0,0-.18-1,1.85,1.85,0,0,0-.63-.78l1.63-.61.17,0a4.88,4.88,0,0,0,.76.07,6.45,6.45,0,0,0,.76,0,3.11,3.11,0,0,0,.74-.2,1.07,1.07,0,0,0,.32-.16,1,1,0,0,0,.28-.2,1.57,1.57,0,0,0,.4-.47A1.52,1.52,0,0,0,30.1,20a1.87,1.87,0,0,0,0-.52,2.07,2.07,0,0,0,0-.5A4.8,4.8,0,0,0,30,18.52Z"/><path class="cls-3" d="M14.84,15.48a1.64,1.64,0,0,1,.54,0l-.33-.59Z"/><path class="cls-3" d="M1.46,2h.15c.39,0,.65-.18.65-.51S2.12,1,1.68,1H1.46ZM1.07.84a3,3,0,0,1,.57,0A1.38,1.38,0,0,1,2.4,1a.57.57,0,0,1,.26.49.6.6,0,0,1-.21.48,1.23,1.23,0,0,1-.82.27H1.46v1H1.07Z"/><path class="cls-3" d="M3.87,2.29h0c-.21,0-.68,0-.68.4a.28.28,0,0,0,.3.3.37.37,0,0,0,.37-.26.28.28,0,0,0,0-.09Zm.06.88L3.9,3h0a.65.65,0,0,1-.5.21.52.52,0,0,1-.58-.48c0-.43.49-.62,1-.62V2.05c0-.23-.08-.39-.39-.39a1,1,0,0,0-.41.09L3,1.56a1.31,1.31,0,0,1,.58-.11c.49,0,.71.22.71.6v.74a2.3,2.3,0,0,0,0,.38Z"/><path class="cls-3" d="M4.81,1.91c0-.14,0-.31,0-.44h.36l0,.27h0a.59.59,0,0,1,.52-.29h.08v.28H5.69a.46.46,0,0,0-.47.36.68.68,0,0,0,0,.15v.94H4.81Z"/><path class="cls-3" d="M7,2.29H7c-.2,0-.68,0-.68.4a.28.28,0,0,0,.3.3A.36.36,0,0,0,7,2.73a.28.28,0,0,0,0-.09ZM7,3.17,7,3H7a.65.65,0,0,1-.5.21.52.52,0,0,1-.58-.48c0-.43.49-.62,1-.62V2.05c0-.23-.08-.39-.39-.39a1,1,0,0,0-.41.09l-.09-.19a1.31,1.31,0,0,1,.58-.11c.49,0,.71.22.71.6v.74a1.54,1.54,0,0,0,0,.38Z"/><path class="cls-3" d="M9,2.12H9V2a.39.39,0,0,0-.37-.33c-.33,0-.44.31-.44.65s.13.65.42.65A.39.39,0,0,0,9,2.68a.37.37,0,0,0,0-.11ZM9.4.74v2c0,.11,0,.3,0,.4H9.08l0-.21H9a.6.6,0,0,1-.51.24c-.42,0-.73-.31-.73-.87a.78.78,0,0,1,.75-.88.51.51,0,0,1,.45.2H9V.74Z"/><path class="cls-3" d="M10.24,2.32h0c0,.28.07.67.43.67s.4-.4.4-.67-.06-.66-.41-.66-.42.4-.42.66m1.23,0a.79.79,0,0,1-.82.88.77.77,0,0,1-.8-.87.79.79,0,0,1,.82-.88A.78.78,0,0,1,11.47,2.32Z"/><path class="cls-3" d="M12.72,1.91c0-.2,0-.3,0-.44H13l0,.21h0a.71.71,0,0,1,.57-.23.54.54,0,0,1,.6.58V3.17h-.4V2.08c0-.2-.05-.41-.34-.41a.38.38,0,0,0-.37.28.68.68,0,0,0,0,.15V3.17h-.39Z"/><path class="cls-3" d="M15.07,2.32h0c0,.28.08.67.43.67s.41-.4.41-.67-.07-.66-.42-.66-.42.4-.42.66m1.24,0a.8.8,0,0,1-.83.88.78.78,0,0,1-.8-.87.8.8,0,0,1,.83-.88A.78.78,0,0,1,16.31,2.32Z"/><path class="cls-3" d="M17.48,2.89a1,1,0,0,0,.4.09c.23,0,.37-.1.37-.25s-.07-.21-.32-.33-.5-.29-.5-.48.3-.47.68-.47a1.21,1.21,0,0,1,.45.08l-.11.21a.8.8,0,0,0-.33-.08c-.21,0-.32.11-.32.22s.06.18.31.29.51.28.51.52-.34.5-.74.5a1.3,1.3,0,0,1-.49-.09Z"/><path class="cls-3" d="M19.32,2.32h0c0,.28.07.67.43.67s.4-.4.4-.67-.07-.66-.41-.66-.42.4-.42.66m1.23,0a.8.8,0,0,1-.82.88.78.78,0,0,1-.81-.87.8.8,0,0,1,.83-.88A.78.78,0,0,1,20.55,2.32Z"/><path class="cls-3" d="M20.92,2.89a1,1,0,0,0,.4.09c.23,0,.37-.1.37-.25s-.07-.21-.32-.33-.5-.29-.5-.48.3-.47.68-.47a1.21,1.21,0,0,1,.45.08l-.11.21a.8.8,0,0,0-.33-.08c-.21,0-.32.11-.32.22s.06.18.31.29.51.28.51.52-.34.5-.74.5a1.26,1.26,0,0,1-.49-.09Z"/><path class="cls-3" d="M23,1v.45h.47v.21H23v1c0,.22.12.28.26.28h.16v.2a1.07,1.07,0,0,1-.29,0,.69.69,0,0,1-.39-.1.51.51,0,0,1-.15-.43v-1h-.3V1.47h.3V1.1Z"/><path class="cls-3" d="M23.77,3.17h0V1.47h.4v1.7ZM24.2,1c0,.11-.09.18-.24.18s-.23-.07-.23-.18.1-.17.23-.17S24.2.93,24.2,1Z"/><path class="cls-3" d="M25.77,2.15h0c0-.34-.18-.49-.37-.49s-.39.26-.4.49Zm-.78.2c0,.52.3.63.59.63A1.12,1.12,0,0,0,26,2.91l.06.2a1.75,1.75,0,0,1-.54.08.79.79,0,0,1-.9-.85.8.8,0,0,1,.83-.89.68.68,0,0,1,.71.75.66.66,0,0,1,0,.15Z"/><path class="cls-3" d="M26.57,1.91c0-.2,0-.3,0-.44h.34l0,.21h0a.71.71,0,0,1,.57-.23.53.53,0,0,1,.6.58V3.17H27.7V2.08c0-.2-.06-.41-.34-.41A.38.38,0,0,0,27,2a.71.71,0,0,0,0,.15V3.17h-.4Z"/><path class="cls-3" d="M29.7,2.15h0c0-.34-.18-.49-.37-.49s-.39.26-.4.49Zm-.78.2c0,.52.3.63.59.63a1.12,1.12,0,0,0,.41-.07l.06.2a1.75,1.75,0,0,1-.54.08.79.79,0,0,1-.9-.85.8.8,0,0,1,.83-.89.68.68,0,0,1,.71.75.66.66,0,0,1,0,.15Z"/><path class="cls-3" d="M2.09,5.3h0c0-.34-.18-.49-.37-.49s-.39.26-.4.49Zm-.78.2c0,.52.3.64.59.64a1.12,1.12,0,0,0,.41-.07l.06.2a1.75,1.75,0,0,1-.54.08.8.8,0,0,1-.9-.85.82.82,0,0,1,.83-.9.68.68,0,0,1,.71.75.62.62,0,0,1,0,.15Z"/><rect class="cls-3" x="2.89" y="3.9" width="0.39" height="2.43"/><path class="cls-3" d="M5.06,5.7h0a.34.34,0,0,0,0,.15.36.36,0,0,0,.36.28c.33,0,.43-.31.43-.65s-.12-.65-.43-.65a.41.41,0,0,0-.37.31.62.62,0,0,0,0,.13Zm-.39-.54c0-.26,0-.41,0-.53H5l0,.22H5a.62.62,0,0,1,.52-.25c.43,0,.72.32.72.88a.77.77,0,0,1-.77.88.49.49,0,0,1-.43-.2h0V7H4.67Z"/><path class="cls-3" d="M7.77,5.3h0c0-.34-.18-.49-.37-.49S7,5.07,7,5.3ZM7,5.5c0,.52.3.64.59.64A1.12,1.12,0,0,0,8,6.07l.06.2a1.75,1.75,0,0,1-.54.08.79.79,0,0,1-.9-.85.81.81,0,0,1,.83-.9.68.68,0,0,1,.71.75.62.62,0,0,1,0,.15Z"/><path class="cls-3" d="M8.5,6.05a1.07,1.07,0,0,0,.4.09c.23,0,.37-.1.37-.25S9.2,5.67,9,5.56s-.5-.29-.5-.49.3-.47.68-.47a1.18,1.18,0,0,1,.45.09l-.11.2a.81.81,0,0,0-.33-.07c-.21,0-.32.11-.32.21s.06.18.31.3.51.28.51.52-.34.5-.74.5a1.15,1.15,0,0,1-.49-.1Z"/><path class="cls-3" d="M10.34,5.48h0c0,.28.07.66.43.66s.4-.4.4-.66-.06-.66-.41-.66-.42.4-.42.66m1.23,0a.79.79,0,0,1-.82.88.78.78,0,0,1-.81-.88.8.8,0,0,1,.83-.88A.78.78,0,0,1,11.57,5.48Z"/><path class="cls-3" d="M13.91,5.28h0V5.16a.39.39,0,0,0-.37-.33c-.33,0-.44.32-.44.66s.13.64.42.64a.38.38,0,0,0,.38-.29.37.37,0,0,0,0-.11ZM14.3,3.9v2c0,.12,0,.31,0,.41H14l0-.21h0a.6.6,0,0,1-.51.24c-.42,0-.72-.31-.72-.87s.36-.89.74-.89a.5.5,0,0,1,.45.21h0V3.9Z"/><path class="cls-3" d="M15.91,5.3h0c0-.34-.18-.49-.37-.49s-.39.26-.4.49Zm-.78.2c0,.52.3.64.59.64a1.12,1.12,0,0,0,.41-.07l.06.2a1.75,1.75,0,0,1-.54.08.79.79,0,0,1-.9-.85.81.81,0,0,1,.83-.9.68.68,0,0,1,.71.75.62.62,0,0,1,0,.15Z"/><path class="cls-3" d="M17.45,6.05a1,1,0,0,0,.4.09c.22,0,.36-.1.36-.25s-.07-.22-.32-.33-.49-.29-.49-.49.29-.47.68-.47a1.16,1.16,0,0,1,.44.09l-.1.2a.84.84,0,0,0-.33-.07c-.22,0-.32.11-.32.21s.06.18.3.3.51.28.51.52-.33.5-.74.5a1.15,1.15,0,0,1-.49-.1Z"/><path class="cls-3" d="M20.48,5.87c0,.19,0,.33,0,.46h-.34l0-.18h0a.73.73,0,0,1-.53.21c-.44,0-.61-.23-.61-.66V4.63h.4v1c0,.26.06.46.33.46a.35.35,0,0,0,.35-.22.41.41,0,0,0,0-.16V4.63h.4Z"/><path class="cls-3" d="M2.24,9.44a1,1,0,0,1-.41.07.81.81,0,0,1-.9-.86.89.89,0,0,1,1-.89,1,1,0,0,1,.34.06L2.18,8a.84.84,0,0,0-.29,0,.59.59,0,0,0-.57.66.56.56,0,0,0,.59.63.86.86,0,0,0,.28,0Z"/><path class="cls-3" d="M4.09,9c0,.19,0,.34,0,.47H3.76l0-.18h0a.78.78,0,0,1-.54.2c-.43,0-.6-.23-.6-.65V7.79H3v1c0,.27.07.47.34.47a.34.34,0,0,0,.35-.23.36.36,0,0,0,0-.15V7.79h.4Z"/><path class="cls-3" d="M5.69,8.46h0c0-.34-.18-.49-.37-.49s-.39.26-.4.49Zm-.78.2c0,.52.31.63.59.63a1.11,1.11,0,0,0,.41-.06l.06.2a1.66,1.66,0,0,1-.54.08.81.81,0,0,1-.9-.86.81.81,0,0,1,.83-.89.68.68,0,0,1,.71.75v.15Z"/><path class="cls-3" d="M6.49,8.23c0-.15,0-.32,0-.44h.35l0,.26h0a.61.61,0,0,1,.53-.29h.08V8H7.38a.47.47,0,0,0-.48.35.78.78,0,0,0,0,.16v.94H6.49Z"/><path class="cls-3" d="M8.15,8.86h0a.32.32,0,0,0,0,.14.37.37,0,0,0,.36.29C8.86,9.29,9,9,9,8.64S8.84,8,8.53,8a.41.41,0,0,0-.37.31.53.53,0,0,0,0,.13Zm-.39-.54c0-.26,0-.41,0-.53h.35l0,.22h0a.61.61,0,0,1,.52-.25c.43,0,.72.32.72.87a.77.77,0,0,1-.77.88.51.51,0,0,1-.43-.19h0v.84H7.76Z"/><path class="cls-3" d="M10.09,8.64h0c0,.28.07.66.43.66s.41-.4.41-.66S10.86,8,10.51,8s-.42.4-.42.66m1.24,0a.79.79,0,0,1-.83.87.77.77,0,0,1-.8-.87.8.8,0,0,1,.83-.88A.78.78,0,0,1,11.33,8.64Z"/></svg>