<svg id="Capa_1" data-name="Capa 1" xmlns="http://www.w3.org/2000/svg" viewBox="0 0 31.82 26.75"><defs><style>.cls-1{fill:#f05050;}.cls-2{fill:#ffd82c;}.cls-3{fill:#b3d335;}.cls-4{fill:#f5a4c7;}.cls-5{fill:#fccdb5;}.cls-6{fill:#231f20;}</style></defs><title>2-2meses</title><path class="cls-1" d="M9.23,19.77a11.58,11.58,0,0,0-3-1c-.81,0-2,0-2,0L1.72,22.64.23,24.21A52.76,52.76,0,0,0,7,25.87a56.69,56.69,0,0,0,7.76.32,7.07,7.07,0,0,0,2.94-.58s-1.17-5.46-8.42-5.84"/><path class="cls-2" d="M20.35,12.65s0-1.22.63-1.54a8.11,8.11,0,0,1,2.21-.44l1.35.13Z"/><path class="cls-3" d="M23.32,13.61,22.68,13l-2.33-.33,4.34-2-.17,1.52,3.77,4.15a5.9,5.9,0,0,0-.62.61,3.11,3.11,0,0,1-.73.13Z"/><path class="cls-4" d="M22.23,23.73a1.18,1.18,0,0,0,.53,1.59,10.3,10.3,0,0,0,4.41.55c.8-.22,2.22-.37,2.24-.67s-.43-.52-.51-.6-.1-3.65-.6-4.3-.73-.81-1.27-.86-1.5-.16-1.82.11-3,4.18-3,4.18"/><path class="cls-5" d="M24.64,12.83a6.44,6.44,0,0,1-1.83.94c-.67.11-.94.32-.64.47a1.36,1.36,0,0,0,.55.15s.07.3.15.53l.09.23s-.37.56-.1.56a2.53,2.53,0,0,1,.7.17.5.5,0,0,0,.55.46c.53,0,.66.08.79.05s-.22.12,0,0,1.59,1.22,2.3-1c.05-.17-1,.18-1,.11A.36.36,0,0,0,26,15.2s-.26-.6-.38-.59a1.31,1.31,0,0,1-.46-.17s.23-.09-.15-.36.21-.42.28-.4.21-.1.21-.1l1.79,1.91s2.64-.66,2.64-1a1.84,1.84,0,0,1,.15-.7l1.7-.63v-2s-2.19,1.14-2.85,1a11,11,0,0,0-2-.32c-.86,0-.82-.07-2.3,1"/><path class="cls-5" d="M31.73,18.83v5.09l-1.18-.59a15.82,15.82,0,0,1-2,1.47c-.27.05-2.18.2-2.38-1.26a3.45,3.45,0,0,1,1.21-2.76l.81-.49.09-.15a11.15,11.15,0,0,1,2-1l1.46-.3"/><path class="cls-5" d="M14.81,23.86s-2.05-.21-2.88-.37a8.55,8.55,0,0,1-3.41-2.42c-.48-.77.87-3,1.75-3.69a3.53,3.53,0,0,1,3.06-.51C14.28,17.12,15.2,18,16,18a4,4,0,0,1,2.42,1.15,1.36,1.36,0,0,1,.13,1.31,1.31,1.31,0,0,1-.31.59l3-1.13a1,1,0,0,1,.64-1,2.41,2.41,0,0,1,1.76-.32,2.7,2.7,0,0,1,1.6.84,1.12,1.12,0,0,1,.32,1.05,17.89,17.89,0,0,1-1.51,3.28,3.78,3.78,0,0,1-1.61.91c-.33,0-2.35-.49-2.7-.23s-1,1.09-1.43,1.19A3.28,3.28,0,0,1,16,25.18c-.73-.54-.67-.74-.72-.87a1.27,1.27,0,0,0-.49-.45"/><path class="cls-6" d="M31.73,23.65l-.29-.14-.3-.15a1.93,1.93,0,0,1-.24-.14l-.19-.13-.14.09-.89.62-.86.65c.36-.16.7-.34,1-.51s.55-.29.82-.44l.16.1.31.18.58.28Z"/><path class="cls-6" d="M15.77,26h0c-.37,0-.75.06-1.12.08l-1.13,0c-.75,0-1.5,0-2.25-.08L9,25.89a32.5,32.5,0,0,1-4.39-.65c-1.42-.29-2.84-.61-4.19-1,.33-.43.67-.85,1-1.26s.75-.86,1.11-1.31A26.67,26.67,0,0,0,4.4,19l.83,0H5.7l.47,0a7.15,7.15,0,0,1,.93.1,1.94,1.94,0,0,1,.43.11l.08,0a2.55,2.55,0,0,0-.21.81,1.77,1.77,0,0,0,0,.23l-1.29-.37,1.24.74.08-.09a2.87,2.87,0,0,0,.25.73,5.05,5.05,0,0,0,.36.58l.2.24L7,22.34l1.49.05v0l.41.37L7,23.6l2.22-.54L9.19,23a3.24,3.24,0,0,0,.53.35,6.2,6.2,0,0,0,1.53.66l.42.11.24,1,.22-.95c.27,0,.53.07.8.09l0,0,.54.29-.06-.29q.35,0,.69,0a10.64,10.64,0,0,0,1.12.06.45.45,0,0,0,0,.11,1.34,1.34,0,0,0,.34.56.6.6,0,0,0,.08.08l.08.08.24.16a2.42,2.42,0,0,0,.56.25,4.54,4.54,0,0,0,.68.14h.25a5.17,5.17,0,0,1-.54.11c-.37.07-.73.12-1.1.16m-1.3-2.49h0l0-.05a0,0,0,0,1,0,0,.85.85,0,0,0,0,.17.05.05,0,0,1,0,0l-.29-.05.06,0Zm.25.44h0l-.77-.1.63-.11a.59.59,0,0,0,0,.08A1.13,1.13,0,0,0,14.72,23.94Zm.47.27h0a.5.5,0,0,0,0,.11l-.59-.1.18,0v0c-.13,0-.26,0-.39,0H14.3l.49-.16A1,1,0,0,0,15.19,24.21Zm2.22-1.58h0a.05.05,0,0,1,0,0Zm0,0h0Zm14.32-3.79L31,18.9a7.68,7.68,0,0,0-.93.18,4.38,4.38,0,0,0-.78.3,3.57,3.57,0,0,0-.9.63,1.7,1.7,0,0,0-.19-.19,1.91,1.91,0,0,0-.36-.25,2.39,2.39,0,0,0-.44-.18,2,2,0,0,0-.49-.1l-.24,0h-.25a3.88,3.88,0,0,0-.48,0l-.45.1,0,.05.46,0a3.2,3.2,0,0,1,.44,0l.41.07a2,2,0,0,1,.37.13,1.69,1.69,0,0,1,.56.39l.13.17-.21.06a1.46,1.46,0,0,0-.31.14l-.12.06-.13.09a3,3,0,0,0-.74.72,2.92,2.92,0,0,0-.44.81,3.39,3.39,0,0,0-.11.43,3.15,3.15,0,0,0,0,.44,2.1,2.1,0,0,0,.05.43,2.86,2.86,0,0,0,.15.44l.11.19.06.1.08.1a2.08,2.08,0,0,0,.36.37,1.9,1.9,0,0,0,.53.28,2.07,2.07,0,0,0,.66.09,2.7,2.7,0,0,0,1.09-.29.91.91,0,0,1,.3.23.18.18,0,0,1-.05.28,1,1,0,0,1-.44.19,4.13,4.13,0,0,1-.53.11l-.55.07-.57,0c-.19,0-.38,0-.56,0l-.56,0h-.56l-.55,0a4.89,4.89,0,0,1-.55,0,4.34,4.34,0,0,1-.52-.09,2.63,2.63,0,0,1-.5-.14,3.29,3.29,0,0,1-.47-.19l-.22-.12a.59.59,0,0,1-.17-.13.31.31,0,0,1-.09-.22l.1,0a1.78,1.78,0,0,0,.35,0,1.6,1.6,0,0,0,.26-.08,2.69,2.69,0,0,0,.45-.22,5.05,5.05,0,0,0,1.78-1.91,4.62,4.62,0,0,0,.29-.71c.07-.24.12-.46.17-.68a4.57,4.57,0,0,0,.07-.61,1,1,0,0,0-.34-.9.81.81,0,0,0-.31-.14l-.13,0a1.1,1.1,0,0,1,.37.21.91.91,0,0,1,.12.84,9.09,9.09,0,0,1-.39,1.24,4,4,0,0,1-.32.66,5.31,5.31,0,0,1-.43.66,4.92,4.92,0,0,1-1.18,1.14,1.82,1.82,0,0,1-.36.2,2,2,0,0,1-.29.1l-.11,0h0l-.06,0-.24-.06a3.75,3.75,0,0,0-.45,0,9,9,0,0,0-1.34,0l-.25,0a1.56,1.56,0,0,0,.26-.56h0L20,24c-.13.11-.31.26-.51.45l-.3.3c-.11.11-.2.24-.31.36a1,1,0,0,1-.41.32,1.42,1.42,0,0,1-.62.09,4.48,4.48,0,0,1-1.16-.27L16.25,25a1.14,1.14,0,0,1-.19-.1l-.1-.07s-.05,0-.08-.05a3.79,3.79,0,0,1-.51-.42.63.63,0,0,1-.13-.17l.08,0a.73.73,0,0,1-.5-.48.74.74,0,0,1,0-.14.81.81,0,0,1,0-.15.92.92,0,0,1,0-.29.62.62,0,0,1,.13-.21s0,0,0,0l0,.15a.64.64,0,0,0,.16.35.47.47,0,0,0,.25.16l.28.09-.06-.22a1.63,1.63,0,0,1-.09-.69.37.37,0,0,1,0-.15l0-.07.07-.05a.11.11,0,0,1,.11,0l0,.07a.64.64,0,0,0-.06.59.77.77,0,0,0,.15.24l0-.25a1.67,1.67,0,0,1,.18-.48l.09-.12s.05-.07.09-.09a.39.39,0,0,1,.14-.08l0,.07a.85.85,0,0,0,0,.6,1,1,0,0,0,.12.26l0-.08,0-.18a4.63,4.63,0,0,1,.18-.52.43.43,0,0,1,.12-.17h0l0,0,.05,0,0,0,.12,0,.12,0a.84.84,0,0,0-.25.17.6.6,0,0,0-.15.23.53.53,0,0,0,0,.37l.07.13h.05a.56.56,0,0,0,.08-.11l.22-.26.16-.13.12-.08a.59.59,0,0,1,0,.13.88.88,0,0,1-.06.27c0,.09-.07.17-.11.27a.4.4,0,0,0,0,.15v.07l0,.06a.78.78,0,0,0,.11.2,1.17,1.17,0,0,0,.25.28.56.56,0,0,0,.13.1h.05a.38.38,0,0,0,0-.13.82.82,0,0,0,0-.33l0-.07.06,0a2.72,2.72,0,0,1,.66,0,1.21,1.21,0,0,1,.34.07.57.57,0,0,1,.24.14.84.84,0,0,1,.16.19s0-.09-.1-.22a.58.58,0,0,0-.21-.2,1,1,0,0,0-.37-.15,2.89,2.89,0,0,0-1-.07l0,0a.25.25,0,0,1,0-.24.71.71,0,0,1,.17-.24.46.46,0,0,0,.13-.31V22.5a.29.29,0,0,0-.2-.15.68.68,0,0,0-.38,0,.37.37,0,0,0-.11-.11.68.68,0,0,0-.22-.08.39.39,0,0,0-.15,0,.22.22,0,0,0-.14,0,.41.41,0,0,0-.13.08l-.06,0a.75.75,0,0,0-.43.09.59.59,0,0,0-.17.13h0l0,0a.33.33,0,0,0-.17,0,.46.46,0,0,0-.14.07.35.35,0,0,0-.09.07.66.66,0,0,0-.11.2s0,0,0,.06a.31.31,0,0,0-.14-.14.26.26,0,0,0-.14,0,.32.32,0,0,0-.14,0l-.15.08a.64.64,0,0,0-.2.35h0a.52.52,0,0,0-.11-.1A.6.6,0,0,0,14.2,23l0,0a.55.55,0,0,1,.05.12.14.14,0,0,1,0,.11.22.22,0,0,1-.09.07h0l-.05,0-.1,0-.29.05-.35,0-.39,0h-.22a2,2,0,0,1-.46-.18l-.08-.06h0l0-.05,0,0h0s0,0,0,0h0v0c0-.05,0-.07,0-.1s.11-.15.18-.2l.14-.1,0,0h-.09s.06,0,.07-.05a3.81,3.81,0,0,1,.88-.1,7.26,7.26,0,0,1-1.15-.13l1.19-.07a5.69,5.69,0,0,1-.79-.08c-.51-.07-1.19-1-1.19-1l.89.61s-.23-.41-.51-.83-1.34-.49-1.34-.49a6,6,0,0,0,.75-.17l-.75-.13.55-.25L10.1,20l1.47-.6H10.16L11.37,19h-.85l1.29-.44-1.27-.06a14.07,14.07,0,0,0,2.09-.57H10.71a7.57,7.57,0,0,0,2.06-.78l-1.08.05.71-.31a7.72,7.72,0,0,0-1.27.19,5.28,5.28,0,0,1,1-.22,3.3,3.3,0,0,1,1.63.19,3.21,3.21,0,0,1,.49.25.49.49,0,0,0-.37.51c0,.61.94,1.05.94,1.05s-.87-.52-.68-1.16c.06-.21.14-.3.23-.32l.06,0c.21.13.37.3.61.44a2.08,2.08,0,0,0,.87.23,5.18,5.18,0,0,1,.84.07,2,2,0,0,1,.63.33,3.49,3.49,0,0,1,.54.42A1.86,1.86,0,0,1,18.33,20a1.29,1.29,0,0,1,0,.55A.89.89,0,0,1,18,21l-.7.56.93-.34c.64-.23,1.21-.51,1.79-.78A9.2,9.2,0,0,1,21.21,20l0,0a.38.38,0,0,0,.2,0,.75.75,0,0,0,.2-.09l.07,0,.15,0v0h0l.14-.12a.09.09,0,0,0,0,.05A.83.83,0,0,0,22,20a.35.35,0,0,0,.12.17.39.39,0,0,0,.21,0,1,1,0,0,0,.13,0,.74.74,0,0,0,.16-.1l.1-.1a.42.42,0,0,0,0,.1.48.48,0,0,0,.16.16.33.33,0,0,0,.19,0,.5.5,0,0,0,.19,0l.08-.05.09-.09a.75.75,0,0,0,.07-.12l0,0a.34.34,0,0,0,.15.14.32.32,0,0,0,.31,0,.43.43,0,0,0,.14-.13.49.49,0,0,0,.08-.22.56.56,0,0,1,.05.08.37.37,0,0,0,.29.15.27.27,0,0,0,.15-.08.47.47,0,0,0,.1-.1.51.51,0,0,0,.09-.22.54.54,0,0,0-.22-.43.47.47,0,0,1,.17.42.41.41,0,0,1-.1.21l-.09.09a.18.18,0,0,1-.11,0,.22.22,0,0,1-.18-.13,1,1,0,0,1-.11-.21,3.17,3.17,0,0,1-.12-.44h0a.08.08,0,0,0-.09,0,.07.07,0,0,0-.07.06h0a1.53,1.53,0,0,1,.05.52.45.45,0,0,1-.08.23.29.29,0,0,1-.1.08h0s0,0,0,0a.19.19,0,0,1-.07-.08.24.24,0,0,1-.06-.11,1.25,1.25,0,0,1-.09-.25.22.22,0,0,1,0-.08,2.66,2.66,0,0,0-.09-.46s-.08-.07-.14-.07-.13,0-.12.1,0,.24.07.35a1.64,1.64,0,0,1,0,.22,1.28,1.28,0,0,1-.05.27l-.06.11,0,0-.08.05s0,0,0,0,0,0,0,0A.19.19,0,0,1,23,20a.79.79,0,0,1-.08-.26c0-.1,0-.2,0-.3a1.93,1.93,0,0,0,0-.24v0h0a.14.14,0,0,0-.15-.09c-.09,0-.16,0-.16.1a.45.45,0,0,1,0,.11,1.08,1.08,0,0,1,0,.36.51.51,0,0,1-.1.21l-.07.08a.3.3,0,0,1-.1.07,0,0,0,0,1,0,0,.78.78,0,0,1,0-.22,4,4,0,0,1,.07-.48.09.09,0,0,0-.08-.1c-.08,0-.16,0-.18.05a1.55,1.55,0,0,1-.42.47l-.14.09-.13.06a.25.25,0,0,1,0-.08.91.91,0,0,1,.13-.26.87.87,0,0,1,.2-.23c.18-.14.41-.27.6-.42a.72.72,0,0,1,.29-.17,2.57,2.57,0,0,1,.4-.06,4.61,4.61,0,0,1,.83,0,1.76,1.76,0,0,1,.74.25,2.8,2.8,0,0,1,.56.44,2.63,2.63,0,0,0-.52-.47,1.79,1.79,0,0,0-.75-.29,4.29,4.29,0,0,0-.88-.06l-.44.06a1,1,0,0,0-.37.19c-.19.14-.42.26-.62.41a1.28,1.28,0,0,0-.26.26,1.14,1.14,0,0,0-.15.29.27.27,0,0,0,0,.18s0,0,0,0l-.29.07a6.12,6.12,0,0,0-1,.32c-.4.17-.81.33-1.22.48a1.75,1.75,0,0,0,.15-.8,1.83,1.83,0,0,0-.51-1.22,2.67,2.67,0,0,0-.64-.46,2.38,2.38,0,0,0-.8-.35,5.72,5.72,0,0,0-.91,0,1.84,1.84,0,0,1-.76-.16A7.66,7.66,0,0,0,13.83,17a3.62,3.62,0,0,0-1.74-.23,6.59,6.59,0,0,0-1.7.37,6.48,6.48,0,0,0-1.47.72,3.89,3.89,0,0,0-1.08,1,2.37,2.37,0,0,0-.19.35l-.06,0A1.91,1.91,0,0,0,7.15,19a6.08,6.08,0,0,0-1-.16l-.48,0H5.23l-1,0a.22.22,0,0,0-.18.08h0c-.62.91-1.28,1.8-1.88,2.71s-1.27,1.81-2,2.69h0s0,.06,0,.08c.69.22,1.39.42,2.09.63s1.4.41,2.12.58,1.45.34,2.2.46c.37.07.75.13,1.13.18s.76.09,1.14.12c1.52.1,3,.17,4.58.13a19.29,19.29,0,0,0,2.29-.21,11.23,11.23,0,0,0,1.88-.46l.2,0a2.34,2.34,0,0,0,.68-.19,5.44,5.44,0,0,0,.54-.29,2.61,2.61,0,0,0,.46-.3,3,3,0,0,0,.31-.32l.12-.16h.28c.31,0,.77,0,1.29.1l.39.08.18.05h0a.31.31,0,0,0,0,.32.75.75,0,0,0,.17.19l.19.16a3.39,3.39,0,0,0,1,.49,7.73,7.73,0,0,0,2.4.26A11.22,11.22,0,0,0,27.13,26l.58-.11c.18,0,.38-.08.57-.13a4.42,4.42,0,0,0,.55-.17,1.62,1.62,0,0,0,.5-.28.32.32,0,0,0,.05-.46,1.2,1.2,0,0,0-.44-.31.13.13,0,0,0-.12,0h0a2.07,2.07,0,0,1-1,.23,1.25,1.25,0,0,1-.48-.11A1.28,1.28,0,0,1,27,24.4a1.46,1.46,0,0,1-.24-.33l0-.09,0-.09-.08-.19a2.33,2.33,0,0,1-.08-.36,2.42,2.42,0,0,1,0-.38c0-.12,0-.25.06-.37a1.63,1.63,0,0,1,.13-.37,2.92,2.92,0,0,1,.17-.36l.23-.34a2.85,2.85,0,0,1,.59-.61l.08-.06.11-.07a.91.91,0,0,1,.17-.09.34.34,0,0,1,.13,0s0,0-.05,0l.56-.14h.48a13.57,13.57,0,0,1,1.51.06,5.66,5.66,0,0,1,.81.12l.29.07v-.36l-.15,0a5.67,5.67,0,0,0-.9-.11,10,10,0,0,0-1.59.05l-.47.06,0,0a.64.64,0,0,0-.1-.13l0,0a10.55,10.55,0,0,1,1-.5c.21-.09.44-.17.71-.26s.53-.19.83-.28a4.69,4.69,0,0,1,.65-.14Z"/><path class="cls-6" d="M16.41,19.4a.6.6,0,0,0-.1-.41.54.54,0,0,0-.79.11s.65-.33.89.3"/><path class="cls-6" d="M15.89,19.57c0,.22-.06.23-.2.24s-.17,0-.17,0,.12.18.27.13.5-.26.26-.43c0,0-.14-.12-.16.1"/><path class="cls-6" d="M16.75,19.67c0,.14-.1.08-.17.17a2,2,0,0,0-.07.6s.14-.54.37-.65a.42.42,0,0,0,.2-.39s-.29.14-.33.27"/><path class="cls-6" d="M17.42,19.85a.49.49,0,0,1-.18.17c-.14.09-.23.24,0,.19s.57-.05.21-.36"/><path class="cls-6" d="M14.08,19.26l-.36-.09c-1-.08-.67,1.1-.67,1.1a3.56,3.56,0,0,1,.28-.89c.14-.18.49-.08.49-.08a.34.34,0,0,0-.39.15c-.12.23.32.35.32.35l-.12.2c.72-.32.45-.74.45-.74"/><path class="cls-6" d="M15.43,18.06s-.37-.17-.56,0,.12.49.12.49a1.07,1.07,0,0,0,.6-.23l-.11,0a.21.21,0,0,0-.16-.16c-.15-.05-.29-.1-.26,0a.63.63,0,0,0,.09.2l-.1.06s-.2-.21-.1-.36.48-.05.48-.05"/><path class="cls-6" d="M13.05,18.78c-.14-.2-.53-.17-.77.21s0,1.19,0,1.19A2.48,2.48,0,0,1,12.44,19a.49.49,0,0,1,.61-.18"/><path class="cls-6" d="M13.21,22.55h0"/><path class="cls-6" d="M21.48,12.12h0c.35-.14.73-.26,1.1-.38l1.09-.38.61-.23a8.42,8.42,0,0,0-.08,1v0l0,0c.17.16.35.33.54.49a4.37,4.37,0,0,1-1.44.69h-.05a6.4,6.4,0,0,0-.4-.51l0,0-.06,0c-.38-.1-.77-.18-1.16-.26a8.1,8.1,0,0,0-.86-.13c.24-.12.47-.23.72-.33m1.93,2.37h0a5.11,5.11,0,0,0,1-.2c.22-.07.44-.16.65-.25a.7.7,0,0,1,.15.19.2.2,0,0,1,0,.17.4.4,0,0,1-.17.17,2,2,0,0,1-.69.25,4.52,4.52,0,0,1-.8.11,1.94,1.94,0,0,1-.35,0,.53.53,0,0,1-.23-.09.45.45,0,0,1-.17-.31h0A3.2,3.2,0,0,0,23.41,14.49Zm2.22-.77h0a3.29,3.29,0,0,0,.41.59,3.73,3.73,0,0,0,.34.35,4.12,4.12,0,0,0,.41.32,2.66,2.66,0,0,1,.31.26h0a.69.69,0,0,0-.24,0,1.56,1.56,0,0,0-.52.15l-.06,0s0,0,0-.05a.36.36,0,0,0-.11-.13L26,15.15a.35.35,0,0,0,.08-.27.16.16,0,0,0-.06-.14s0-.09-.1-.11a.72.72,0,0,0-.24-.11l-.16,0h0a.34.34,0,0,0-.11-.32.89.89,0,0,0-.24-.17l.06,0C25.4,13.87,25.52,13.8,25.63,13.72Zm1.86,2h0a7.25,7.25,0,0,0,.54.7,0,0,0,0,1,0,0,.08.08,0,0,1,0,0,.28.28,0,0,1-.07.09.83.83,0,0,1-.25.16,2.34,2.34,0,0,1-.35.13L27,16.9l-.42-.3.06,0a1.46,1.46,0,0,0,.28-.27,2.31,2.31,0,0,0,.19-.28,1.14,1.14,0,0,0,.15-.29.58.58,0,0,0,0-.19l0,0C27.4,15.58,27.45,15.63,27.49,15.68Zm-1.42.78h0a.86.86,0,0,1-.28,0,1.39,1.39,0,0,1-.3,0c-.2,0-.36-.09-.47-.12l-.05,0,.27,0a2.38,2.38,0,0,0,.67-.29.69.69,0,0,0,.36-.45.4.4,0,0,0,0-.11h.08a2.39,2.39,0,0,1,.48,0l.08,0s0,0,0,0a.53.53,0,0,1-.07.18,6,6,0,0,1-.36.49.62.62,0,0,1-.09.12s-.06.07-.1.09A.57.57,0,0,1,26.07,16.46Zm-1.66-.37h0a1.89,1.89,0,0,1-.52,0,.48.48,0,0,1-.31-.18h.15a3,3,0,0,0,.53,0l.51-.1a3.68,3.68,0,0,0,.47-.15,3.45,3.45,0,0,0,.43-.2,1.46,1.46,0,0,0,.33-.26v0l0,.05s0,.08,0,.12a.42.42,0,0,1-.06.14,1.82,1.82,0,0,1-.93.45l-.32.08Zm-.93-.46h-.11a.85.85,0,0,1-.29-.08.27.27,0,0,1-.14-.31.43.43,0,0,1,0-.11l.07,0a1.45,1.45,0,0,0,.47.08,3.25,3.25,0,0,0,1-.08,2.09,2.09,0,0,0,.86-.37.57.57,0,0,0,.2-.29l.1.08c.06,0,.09.09.14.14s0,0,0,.08a.1.1,0,0,1,0,.09.14.14,0,0,1,0,.09l-.09.09a2,2,0,0,1-.3.16,3.34,3.34,0,0,1-.38.15,4.21,4.21,0,0,1-.42.12,3.29,3.29,0,0,1-.43.09,2.17,2.17,0,0,1-.41.05h-.27Zm-2-2.75c.38.07.76.13,1.15.18a5.49,5.49,0,0,0,.53.37,6.12,6.12,0,0,0-.76.25A1,1,0,0,0,22,14a.24.24,0,0,0,0,.32.88.88,0,0,0,.31.15,2.25,2.25,0,0,0,.36.06h0a.42.42,0,0,0,0,.43.62.62,0,0,0,.25.18.47.47,0,0,0-.11.1.32.32,0,0,0-.1.18.32.32,0,0,0,.11.28,1,1,0,0,0,.38.2l.12,0h.15a.09.09,0,0,0,0,.05.38.38,0,0,0,.26.31,1.06,1.06,0,0,0,.33.1,1.6,1.6,0,0,0,.38,0,2.34,2.34,0,0,0,.38,0h0l.05,0a1.64,1.64,0,0,0,.42.25,1.17,1.17,0,0,0,.36.11,1.54,1.54,0,0,0,.48,0,1.22,1.22,0,0,0,.27-.09c.1.16.2.32.31.47l.05.07H27A3,3,0,0,0,28,17a1.24,1.24,0,0,0,.42-.28.49.49,0,0,0,.11-.2.36.36,0,0,0,0-.1.2.2,0,0,0,0-.13v0l0,0c-.24-.23-.52-.44-.79-.66l-.14-.12.5-.11a9.6,9.6,0,0,0,1.05-.29,4.7,4.7,0,0,0,.5-.21,2.31,2.31,0,0,0,.45-.29.8.8,0,0,0,.27-.42.43.43,0,0,0,0-.25.36.36,0,0,0,0-.09l.7-.31c.26-.12.52-.24.76-.38v0l-.9.23c-.32.1-.64.19-.95.3l-.19.06.11.16a.73.73,0,0,1,.05.12.57.57,0,0,1,0,.13.64.64,0,0,1-.19.26l-.16.12-.18.11c-.16.08-.29.15-.44.21s-.61.25-.94.37a4.25,4.25,0,0,0-.49.21,2.73,2.73,0,0,1-.42-.49c-.09-.13-.17-.26-.27-.38a4,4,0,0,0-.35-.36,5,5,0,0,0-.66-.51l.12-.11a5,5,0,0,0,1,.34,2.53,2.53,0,0,0,.68.07h.18l.17,0a1.2,1.2,0,0,0,.28-.13l0,0a.9.9,0,0,1-.28.08.77.77,0,0,1-.15,0h-.15a1.57,1.57,0,0,1-.3-.05L27,13.68a5.41,5.41,0,0,1-1-.48l-.2-.11-.14.18a1.83,1.83,0,0,1-.6.38,4.42,4.42,0,0,1-.8.29,5,5,0,0,1-.85.19,2.78,2.78,0,0,1-.82,0l-.08,0a.74.74,0,0,1,.24-.17c.23-.12.52-.2.81-.32A5.31,5.31,0,0,0,25,12.72c.2-.17.39-.35.6-.51a1.58,1.58,0,0,1,.75-.32,5.65,5.65,0,0,1,.92,0l.93.11a6.4,6.4,0,0,0,1,.06,3.34,3.34,0,0,0,1-.24,10.38,10.38,0,0,0,1.57-.76v0c-.58.2-1.14.41-1.72.57a3.58,3.58,0,0,1-.84.17,7.25,7.25,0,0,1-.91-.07,6.42,6.42,0,0,0-1-.06,5.7,5.7,0,0,0-1,.08,2.06,2.06,0,0,0-.81.42c-.21.18-.4.35-.62.51v0c-.1-.18-.19-.35-.3-.52a10.88,10.88,0,0,0,.35-1.33l.07-.38-.49.19-.14.07-.12,0a3.87,3.87,0,0,0-.6-.11,3.8,3.8,0,0,0-.91,0,2.22,2.22,0,0,0-.51.06,3,3,0,0,0-.52.13c-.15.07-.32.13-.46.21a2.11,2.11,0,0,0-.36.27,1.37,1.37,0,0,0-.25.3,1.22,1.22,0,0,0-.14.28,1,1,0,0,0-.07.43.59.59,0,0,0,0,.17.91.91,0,0,1,.08-.16,3.6,3.6,0,0,1,.24-.37c.06-.08.13-.15.2-.23s.17-.15.27-.22l.15-.11.18-.09a2.19,2.19,0,0,1,.38-.17,2.9,2.9,0,0,1,.42-.12c.15,0,.29-.07.44-.08l.42-.05.4,0c.25,0,.46,0,.61,0h0l-.79.34c-.35.15-.68.31-1,.48s-.66.33-1,.48-.71.27-1.09.39l-.31.09.35.09A11.33,11.33,0,0,0,21.5,12.88Z"/><path class="cls-6" d="M17.33,16.57l-.54-.07.29,1.18,1.66-.92-.64-.11s1.77-2.42-1.59-1.6c0,0,2.23-.35.82,1.52"/><path class="cls-6" d="M1.54,3a1.12,1.12,0,0,0,.47.1c.35,0,.55-.16.55-.4s-.17-.35-.43-.49-.63-.35-.63-.66S1.85,1,2.38,1a1,1,0,0,1,.46.09l-.09.23a.91.91,0,0,0-.39-.08c-.33,0-.48.17-.48.33s.17.33.49.49.57.42.57.68-.4.67-.93.67a1.49,1.49,0,0,1-.56-.11Z"/><path class="cls-6" d="M3.37,3.34h0V1.65h.37V3.34Zm.4-2.13c0,.1-.09.17-.23.17s-.21-.07-.21-.17S3.42,1,3.55,1,3.77,1.1,3.77,1.21Z"/><path class="cls-6" d="M5.33,2.23h0a.43.43,0,0,0,0-.12A.35.35,0,0,0,5,1.85c-.27,0-.42.26-.42.64s.19.63.42.63a.34.34,0,0,0,.34-.24.45.45,0,0,0,0-.16Zm.39-.58c0,.12,0,.27,0,.53v.95c0,.44-.08.61-.24.73a1,1,0,0,1-.63.19A1.47,1.47,0,0,1,4.31,4l.09-.21a1.15,1.15,0,0,0,.44.08c.3,0,.49-.14.49-.52V3.13h0a.52.52,0,0,1-.46.21c-.42,0-.7-.34-.7-.84a.78.78,0,0,1,.75-.88.49.49,0,0,1,.44.22h0l0-.19Z"/><path class="cls-6" d="M7.65,2.88c0,.19,0,.34,0,.46H7.34l0-.17h0a.7.7,0,0,1-.51.2c-.42,0-.58-.23-.58-.65V1.65h.38v1c0,.27.06.47.32.47a.34.34,0,0,0,.34-.23.77.77,0,0,0,0-.15V1.65h.38Z"/><path class="cls-6" d="M9.18,2.32h0c0-.34-.17-.49-.35-.49s-.37.26-.39.49Zm-.74.2c0,.52.29.63.56.63a1.28,1.28,0,0,0,.39-.06l.06.19a1.35,1.35,0,0,1-.52.09.78.78,0,0,1-.86-.86.79.79,0,0,1,.8-.89.67.67,0,0,1,.68.75.66.66,0,0,1,0,.15Z"/><path class="cls-6" d="M11.88,3.3a1,1,0,0,1-.39.07.8.8,0,0,1-.87-.86.87.87,0,0,1,.94-.89,1.35,1.35,0,0,1,.33,0l-.07.23a.76.76,0,0,0-.27,0c-.38,0-.55.32-.55.66s.21.63.56.63a1.17,1.17,0,0,0,.27,0Z"/><path class="cls-6" d="M12.45,2.5h0c0,.28.06.66.41.66s.39-.4.39-.66-.07-.66-.4-.66-.4.4-.4.66m1.18,0a.78.78,0,0,1-.79.87c-.43,0-.77-.27-.77-.87a.78.78,0,0,1,.79-.88C13.29,1.62,13.63,1.9,13.63,2.5Z"/><path class="cls-6" d="M14.05,2.08c0-.19,0-.3,0-.43h.33l0,.2h0a.64.64,0,0,1,.54-.23.53.53,0,0,1,.58.58V3.34h-.38V2.25c0-.2-.06-.4-.33-.4a.36.36,0,0,0-.36.27.76.76,0,0,0,0,.15V3.34h-.38Z"/><rect class="cls-6" x="16.8" y="0.92" width="0.38" height="2.43"/><path class="cls-6" d="M18.62,2.47h0c-.19,0-.65,0-.65.39a.28.28,0,0,0,.29.3.34.34,0,0,0,.35-.25.38.38,0,0,0,0-.1Zm.06.87,0-.17h0a.59.59,0,0,1-.47.2.51.51,0,0,1-.57-.48c0-.43.48-.62,1-.62v0c0-.23-.08-.39-.38-.39a1,1,0,0,0-.39.09l-.08-.19a1.39,1.39,0,0,1,.55-.11c.48,0,.69.22.69.61V3a2.24,2.24,0,0,0,0,.38Z"/><path class="cls-6" d="M20.29,2.08c0-.19,0-.3,0-.43h.33l0,.21h0a.65.65,0,0,1,.54-.24.51.51,0,0,1,.49.26h0a.66.66,0,0,1,.24-.2.81.81,0,0,1,.33-.06.53.53,0,0,1,.56.6V3.34h-.37V2.28c0-.22,0-.43-.33-.43a.35.35,0,0,0-.35.25.68.68,0,0,0,0,.15V3.34h-.37V2.23c0-.19-.05-.38-.33-.38a.35.35,0,0,0-.35.27.71.71,0,0,0,0,.15V3.34h-.38Z"/><path class="cls-6" d="M23.33,3.34h0V1.65h.38V3.34Zm.41-2.13c0,.1-.09.17-.23.17s-.22-.07-.22-.17A.2.2,0,0,1,23.51,1C23.65,1,23.74,1.1,23.74,1.21Z"/><path class="cls-6" d="M24.23,2.08c0-.14,0-.31,0-.43h.34l0,.26h0a.58.58,0,0,1,.51-.29h.07V1.9h-.07a.45.45,0,0,0-.46.35.77.77,0,0,0,0,.15v.94h-.37Z"/><path class="cls-6" d="M26.3,2.47h0c-.2,0-.65,0-.65.39a.27.27,0,0,0,.29.3.35.35,0,0,0,.35-.25.38.38,0,0,0,0-.1Zm.05.87,0-.17h0a.56.56,0,0,1-.47.2.51.51,0,0,1-.56-.48c0-.43.48-.62,1-.62v0c0-.23-.08-.39-.38-.39a1,1,0,0,0-.39.09l-.08-.19A1.39,1.39,0,0,1,26,1.62c.48,0,.68.22.68.61V3a1.5,1.5,0,0,0,0,.38Z"/><path class="cls-6" d="M28.26,2.29h0a.45.45,0,0,0,0-.11.37.37,0,0,0-.35-.33c-.32,0-.42.31-.42.65s.12.65.4.65a.37.37,0,0,0,.36-.29.37.37,0,0,0,0-.12ZM28.63.92v2c0,.11,0,.31,0,.4h-.33l0-.21h0a.59.59,0,0,1-.5.24c-.4,0-.69-.31-.69-.87s.35-.88.71-.88a.51.51,0,0,1,.44.2h0V.92Z"/><path class="cls-6" d="M30,2.47h0c-.2,0-.65,0-.65.39a.27.27,0,0,0,.29.3A.35.35,0,0,0,30,2.91a.38.38,0,0,0,0-.1Zm.05.87,0-.17h0a.58.58,0,0,1-.47.2A.5.5,0,0,1,29,2.89c0-.43.47-.62,1-.62v0c0-.23-.08-.39-.38-.39a.93.93,0,0,0-.39.09l-.08-.19a1.31,1.31,0,0,1,.55-.11c.48,0,.68.22.68.61V3a1.5,1.5,0,0,0,0,.38Z"/><path class="cls-6" d="M1.86,5.65h0c0,.28.07.67.41.67s.39-.4.39-.67S2.59,5,2.26,5s-.4.4-.4.66M3,5.65a.78.78,0,0,1-.79.88.76.76,0,0,1-.77-.87.78.78,0,0,1,.79-.88A.76.76,0,0,1,3,5.65Z"/><path class="cls-6" d="M3.83,5.9h0a.2.2,0,0,0,0,.11.37.37,0,0,0,.35.3c.3,0,.41-.3.41-.66S4.5,5,4.2,5a.39.39,0,0,0-.36.3.49.49,0,0,0,0,.12Zm-.4.6c0-.1,0-.29,0-.41v-2h.38V5h0a.59.59,0,0,1,.5-.22c.37,0,.65.3.65.86s-.35.89-.72.89a.51.51,0,0,1-.47-.25h0l0,.22Z"/><path class="cls-6" d="M5,7H5a.61.61,0,0,0,.32-.13c.08-.09.11-.22.11-.54V4.8h.38V6.39c0,.36-.07.53-.24.65a.93.93,0,0,1-.52.16Zm.85-2.63c0,.11-.09.18-.24.18s-.22-.07-.21-.18.09-.17.22-.17S5.86,4.26,5.86,4.36Z"/><path class="cls-6" d="M7.35,5.48h0C7.36,5.14,7.17,5,7,5s-.37.26-.39.49Zm-.75.2c0,.52.29.63.56.63a1.06,1.06,0,0,0,.4-.07l.06.2a1.42,1.42,0,0,1-.52.08.78.78,0,0,1-.87-.85A.8.8,0,0,1,7,4.78a.66.66,0,0,1,.68.75.66.66,0,0,1,0,.15Z"/><path class="cls-6" d="M8.58,4.35V4.8H9V5H8.58V6c0,.22.11.28.25.28H9V6.5l-.28,0a.56.56,0,0,1-.37-.1A.51.51,0,0,1,8.2,6V5H7.91V4.8H8.2V4.43Z"/><path class="cls-6" d="M9.6,5.65h0c0,.28.07.67.41.67s.39-.4.39-.67S10.34,5,10,5s-.4.4-.4.66m1.18,0a.77.77,0,0,1-.79.88.77.77,0,0,1-.77-.87.78.78,0,0,1,.8-.88C10.44,4.78,10.78,5.06,10.78,5.65Z"/><path class="cls-6" d="M11.14,6.22a.92.92,0,0,0,.38.09c.22,0,.35-.1.35-.25s-.06-.21-.3-.33-.48-.29-.48-.48.28-.47.65-.47a1.13,1.13,0,0,1,.43.08l-.1.21A.66.66,0,0,0,11.75,5c-.2,0-.31.11-.31.22s.06.18.3.29.49.28.49.52-.33.5-.71.5a1,1,0,0,1-.47-.1Z"/><path class="cls-6" d="M13.32,6.22a1,1,0,0,0,.39.09c.21,0,.34-.1.34-.25s-.06-.21-.3-.33-.47-.29-.47-.48.28-.47.65-.47a1.07,1.07,0,0,1,.42.08l-.1.21A.62.62,0,0,0,13.94,5c-.21,0-.31.11-.31.22s.06.18.29.29.49.28.49.52-.32.5-.71.5a1,1,0,0,1-.47-.1Z"/><path class="cls-6" d="M14.8,6.5h0V4.8h.38V6.5Zm.41-2.14c0,.11-.09.18-.23.18a.2.2,0,0,1-.22-.18c0-.1.1-.17.23-.17S15.21,4.26,15.21,4.36Z"/><path class="cls-6" d="M15.71,5.24c0-.2,0-.3,0-.44H16L16,5h0a.68.68,0,0,1,.55-.23.52.52,0,0,1,.57.58V6.5h-.38V5.41c0-.2-.05-.41-.32-.41a.37.37,0,0,0-.36.28.68.68,0,0,0,0,.15V6.5h-.37Z"/><path class="cls-6" d="M18.4,6.22a.92.92,0,0,0,.38.09c.21,0,.35-.1.35-.25s-.07-.21-.31-.33-.47-.29-.47-.48.28-.47.65-.47a1.13,1.13,0,0,1,.43.08l-.11.21A.62.62,0,0,0,19,5c-.21,0-.31.11-.31.22s.06.18.29.29.5.28.5.52-.33.5-.72.5a1.09,1.09,0,0,1-.47-.1Z"/><path class="cls-6" d="M20.15,5.65h0c0,.28.07.67.41.67s.39-.4.39-.67S20.89,5,20.55,5s-.4.4-.4.66m1.18,0a.77.77,0,0,1-.79.88.77.77,0,0,1-.77-.87.78.78,0,0,1,.8-.88C21,4.78,21.33,5.06,21.33,5.65Z"/><path class="cls-6" d="M21.75,5.24c0-.2,0-.3,0-.44h.33l0,.21h0a.66.66,0,0,1,.55-.23.52.52,0,0,1,.57.58V6.5h-.38V5.41c0-.2,0-.41-.33-.41a.38.38,0,0,0-.36.28s0,.1,0,.15V6.5h-.38Z"/><path class="cls-6" d="M23.74,6.5h0V4.8h.38V6.5Zm.41-2.14c0,.11-.09.18-.24.18a.19.19,0,0,1-.21-.18c0-.1.1-.17.22-.17S24.15,4.26,24.15,4.36Z"/><path class="cls-6" d="M25.69,5.45h0V5.34A.37.37,0,0,0,25.34,5c-.32,0-.43.31-.43.65s.13.65.41.65a.39.39,0,0,0,.37-.41Zm.38-1.38v2c0,.12,0,.31,0,.41h-.33l0-.21h0a.57.57,0,0,1-.49.24c-.4,0-.69-.31-.69-.87s.34-.88.71-.88a.5.5,0,0,1,.43.2h0V4.07Z"/><path class="cls-6" d="M26.87,5.65h0c0,.28.07.67.41.67s.39-.4.39-.67S27.61,5,27.27,5s-.4.4-.4.66m1.18,0a.78.78,0,0,1-.79.88.76.76,0,0,1-.77-.87.78.78,0,0,1,.8-.88C27.71,4.78,28.05,5.06,28.05,5.65Z"/><path class="cls-6" d="M2.59,8.63h0c0-.34-.17-.49-.35-.49s-.37.26-.39.49Zm-.74.2c0,.52.29.64.56.64A1,1,0,0,0,2.8,9.4l.06.2a1.58,1.58,0,0,1-.52.08.78.78,0,0,1-.86-.85.8.8,0,0,1,.8-.9A.67.67,0,0,1,3,8.68a.62.62,0,0,1,0,.15Z"/><path class="cls-6" d="M3.36,8.4c0-.2,0-.3,0-.44h.33l0,.2h0a.67.67,0,0,1,.54-.23.53.53,0,0,1,.58.59V9.66H4.44V8.56c0-.2-.05-.4-.33-.4a.36.36,0,0,0-.36.28.66.66,0,0,0,0,.15V9.66H3.36Z"/><path class="cls-6" d="M7,8.78H7c-.2,0-.65,0-.65.39a.28.28,0,0,0,.29.31A.34.34,0,0,0,7,9.22a.31.31,0,0,0,0-.09Zm0,.88h0l0-.18H7a.58.58,0,0,1-.47.21A.51.51,0,0,1,6,9.2c0-.42.47-.61,1-.61V8.53c0-.23-.08-.38-.38-.38a.93.93,0,0,0-.39.08L6.14,8a1.31,1.31,0,0,1,.55-.11c.48,0,.68.23.68.61v.73a1.63,1.63,0,0,0,0,.39Zm.26-2.39-.52.47H6.54l.38-.47Z"/><path class="cls-6" d="M7.9,8.4c0-.2,0-.3,0-.44h.33l0,.2h0a.67.67,0,0,1,.54-.23.53.53,0,0,1,.58.59V9.66H9V8.56c0-.2-.06-.4-.33-.4a.36.36,0,0,0-.36.28.66.66,0,0,0,0,.15V9.66H7.9Z"/><path class="cls-6" d="M10.94,8.55h0a.27.27,0,0,0,0-.13.34.34,0,0,0-.34-.26c-.27,0-.42.27-.42.64s.19.63.42.63a.33.33,0,0,0,.34-.24.39.39,0,0,0,0-.15Zm.4-.59c0,.12,0,.27,0,.53v.95c0,.45-.08.62-.24.74a1,1,0,0,1-.63.18,1.49,1.49,0,0,1-.52-.08l.09-.21a1.43,1.43,0,0,0,.44.07c.3,0,.48-.13.48-.52V9.45h0a.52.52,0,0,1-.45.21c-.42,0-.7-.34-.7-.84a.78.78,0,0,1,.75-.89.49.49,0,0,1,.44.22h0L11,8Z"/><path class="cls-6" d="M13.26,9.2c0,.19,0,.33,0,.46H13l0-.18h0a.74.74,0,0,1-.51.21c-.42,0-.58-.23-.58-.66V8h.38V9c0,.26.06.46.32.46a.32.32,0,0,0,.33-.23.34.34,0,0,0,0-.15V8h.38Z"/><rect class="cls-6" x="13.79" y="7.23" width="0.38" height="2.43"/><path class="cls-6" d="M15,8.81h0c0,.28.07.66.41.66s.39-.4.39-.66-.06-.66-.4-.66-.4.4-.4.66m1.18,0a.77.77,0,0,1-.79.88c-.42,0-.77-.28-.77-.88a.78.78,0,0,1,.8-.88C15.84,7.93,16.18,8.22,16.18,8.81Z"/><path class="cls-6" d="M2.64,11.76h0a.45.45,0,0,0,0-.11.37.37,0,0,0-.35-.33c-.32,0-.42.31-.42.65s.12.65.4.65a.37.37,0,0,0,.36-.29.36.36,0,0,0,0-.11ZM3,10.39v2c0,.12,0,.31,0,.41H2.71l0-.22h0a.59.59,0,0,1-.5.24c-.4,0-.69-.31-.69-.87s.35-.88.72-.88a.51.51,0,0,1,.43.2h0v-.9Z"/><path class="cls-6" d="M4.55,11.79h0c0-.34-.17-.49-.36-.49s-.37.26-.38.49ZM3.8,12c0,.52.29.63.57.63a1.28,1.28,0,0,0,.39-.06l.06.2a1.62,1.62,0,0,1-.52.08A.79.79,0,0,1,3.43,12a.8.8,0,0,1,.8-.89.66.66,0,0,1,.68.75V12Z"/><path class="cls-6" d="M6.34,11.25h0c0,.34.18.5.43.5a.44.44,0,0,0,.39-.2.28.28,0,0,0,0-.15c0-.48-.19-.68-.44-.68s-.41.15-.41.53m-.19,1.36a.9.9,0,0,0,.23,0,1,1,0,0,0,.44-.18,1,1,0,0,0,.37-.65h0a.73.73,0,0,1-.52.2A.66.66,0,0,1,6,11.28a.76.76,0,0,1,.8-.77c.55,0,.8.41.8.91a1.39,1.39,0,0,1-.42,1.06,1.46,1.46,0,0,1-.74.35H6.15Z"/><path class="cls-6" d="M8.22,11.68h0c0,.55.13.93.44.93s.43-.39.43-.93-.13-.94-.43-.94-.44.39-.44.94m1.24,0c0,.83-.36,1.17-.82,1.17s-.8-.42-.8-1.16.32-1.17.84-1.17S9.46,11,9.46,11.67Z"/><path class="cls-6" d="M10,10.88h0c0,.17.16.3.38.3a.33.33,0,0,0,.36-.3.33.33,0,0,0-.36-.31.34.34,0,0,0-.38.31m1,0c0,.27-.29.45-.6.45s-.6-.19-.6-.44.28-.46.61-.46S10.93,10.62,10.93,10.87Z"/></svg>