<svg id="Capa_1" data-name="Capa 1" xmlns="http://www.w3.org/2000/svg" viewBox="0 0 32.88 23.76"><defs><style>.cls-1{fill:#f05050;}.cls-2{fill:#ffd82c;}.cls-3{fill:#b3d335;}.cls-4{fill:#f5a4c7;}.cls-5{fill:#fccdb5;}.cls-6{fill:#231f20;}</style></defs><title>2-2meses</title><path class="cls-1" d="M10.71,14.17a11.51,11.51,0,0,0-3-1c-.81.05-2,0-2,0L3.2,17,1.71,18.61a53,53,0,0,0,6.71,1.65,56.82,56.82,0,0,0,7.77.33A7.14,7.14,0,0,0,19.13,20S18,14.55,10.71,14.17"/><path class="cls-2" d="M21.83,7s0-1.21.62-1.53a8,8,0,0,1,2.22-.45L26,5.19Z"/><path class="cls-3" d="M24.8,8l-.64-.63L21.83,7l4.33-2L26,6.58l3.77,4.15a6,6,0,0,0-.62.62,3.19,3.19,0,0,1-.74.13Z"/><path class="cls-4" d="M23.71,18.13a1.17,1.17,0,0,0,.52,1.59,10.34,10.34,0,0,0,4.42.55c.8-.22,2.22-.38,2.24-.68s-.43-.52-.52-.59-.09-3.65-.59-4.3-.73-.81-1.28-.87-1.5-.16-1.81.11-3,4.19-3,4.19"/><path class="cls-5" d="M26.11,7.22a6.34,6.34,0,0,1-1.82.94c-.68.11-.94.33-.64.48a1.36,1.36,0,0,0,.55.15s.07.3.15.53l.08.22s-.36.57-.09.57a2.54,2.54,0,0,1,.69.16.5.5,0,0,0,.56.46c.53,0,.66.08.78.06h0c.2-.12,1.59,1.22,2.31-1,.05-.17-1,.17-1,.11a.37.37,0,0,0-.16-.27S27.26,9,27.14,9a1.54,1.54,0,0,1-.46-.17s.23-.09-.15-.36.21-.42.27-.41S27,8,27,8l1.79,1.92s2.64-.66,2.64-1a1.84,1.84,0,0,1,.15-.7l1.7-.64v-2s-2.19,1.14-2.85,1a10.93,10.93,0,0,0-2-.32c-.85,0-.81-.06-2.3,1"/><path class="cls-5" d="M33.21,13.23v5.09L32,17.72a16.82,16.82,0,0,1-2,1.48c-.28,0-2.18.19-2.39-1.26a3.48,3.48,0,0,1,1.22-2.76l.81-.5.08-.15a10.48,10.48,0,0,1,2-1l1.46-.3"/><path class="cls-5" d="M16.29,18.26s-2-.21-2.88-.38A8.46,8.46,0,0,1,10,15.46c-.48-.77.86-3,1.74-3.68a3.58,3.58,0,0,1,3.07-.52c.95.26,1.87,1.14,2.69,1.09a3.91,3.91,0,0,1,2.41,1.14A1.34,1.34,0,0,1,20,14.8a1.35,1.35,0,0,1-.3.6l3-1.13a1.06,1.06,0,0,1,.64-1,2.4,2.4,0,0,1,1.76-.31,2.59,2.59,0,0,1,1.6.84,1.1,1.1,0,0,1,.32,1,17.89,17.89,0,0,1-1.51,3.28A3.67,3.67,0,0,1,24,19c-.33,0-2.36-.48-2.7-.23s-1,1.09-1.44,1.2a3.28,3.28,0,0,1-2.34-.39c-.73-.53-.67-.74-.72-.86a1.43,1.43,0,0,0-.49-.45"/><path class="cls-6" d="M33.21,18l-.29-.14a2.09,2.09,0,0,1-.3-.14l-.24-.14-.19-.13-.14.09-.89.62c-.29.21-.58.42-.86.64.36-.16.7-.33,1-.5l.82-.45.16.11.31.18.58.27Z"/><path class="cls-6" d="M17.24,20.38h0a10.36,10.36,0,0,1-1.11.08c-.38,0-.75,0-1.13,0-.75,0-1.5,0-2.26-.07l-2.26-.13a32.25,32.25,0,0,1-4.39-.64c-1.42-.29-2.84-.62-4.2-1,.34-.42.68-.84,1-1.26S3.68,16.48,4,16a25.67,25.67,0,0,0,1.84-2.65h1.3a3.77,3.77,0,0,1,.47,0,7.32,7.32,0,0,1,.93.09A1.86,1.86,0,0,1,9,13.6l.09,0a2.56,2.56,0,0,0-.21.8,1.93,1.93,0,0,0,0,.24L7.6,14.3,8.84,15,8.92,15a2.94,2.94,0,0,0,.25.74,3.41,3.41,0,0,0,.36.57l.2.25-1.23.23,1.48,0,0,0a3.7,3.7,0,0,0,.41.37L8.5,18l2.22-.55-.06-.08a5.07,5.07,0,0,0,.54.36,6.42,6.42,0,0,0,1.53.66l.42.1.24,1,.22-1a5.29,5.29,0,0,0,.8.09l-.05,0,.53.29-.05-.29c.23,0,.46,0,.69,0,.57,0,1,0,1.11,0a.6.6,0,0,0,0,.12,1.17,1.17,0,0,0,.34.55l.08.09.08.07a1.88,1.88,0,0,0,.23.16A2.72,2.72,0,0,0,18,20a4.52,4.52,0,0,0,.68.15h.25l-.54.11c-.37.06-.73.12-1.11.15M16,17.89h0s0,0,0,0v0A1,1,0,0,0,16,18l0,0-.29,0,.06,0A.49.49,0,0,0,16,17.89Zm.25.45h0l-.77-.11.63-.11a.2.2,0,0,0,0,.08A.71.71,0,0,0,16.2,18.34Zm.46.26h0a.35.35,0,0,0,0,.12l-.58-.11.18,0v0l-.39,0h-.07l.5-.16A.85.85,0,0,0,16.66,18.6ZM18.89,17h0a.05.05,0,0,1,0,0Zm0,0h0v0h0S18.88,17,18.89,17Zm14.32-3.78c-.25,0-.49,0-.73.06s-.65.11-.94.18a4.27,4.27,0,0,0-.77.3,4.19,4.19,0,0,0-.91.63c-.06-.06-.11-.13-.18-.19a2.65,2.65,0,0,0-.37-.25,2.53,2.53,0,0,0-.44-.18,2.56,2.56,0,0,0-.48-.1l-.25,0H27.9a3.71,3.71,0,0,0-.48.05,3.63,3.63,0,0,0-.45.1l0,0,.45,0c.15,0,.3,0,.45,0a2.7,2.7,0,0,1,.41.07,2,2,0,0,1,.37.12,1.67,1.67,0,0,1,.56.4,1,1,0,0,1,.12.17l-.2.05a1.8,1.8,0,0,0-.31.14l-.12.07-.13.08a3,3,0,0,0-.74.73,2.47,2.47,0,0,0-.44.81,2.42,2.42,0,0,0-.14.86,2.2,2.2,0,0,0,.05.44,2.45,2.45,0,0,0,.15.43l.11.19.06.11.07.09a2.16,2.16,0,0,0,.37.37,1.67,1.67,0,0,0,.53.28,1.82,1.82,0,0,0,.66.09,2.92,2.92,0,0,0,1.09-.28.8.8,0,0,1,.3.23.18.18,0,0,1-.05.28,1.39,1.39,0,0,1-.44.19,4.51,4.51,0,0,1-.53.1,4.86,4.86,0,0,1-.55.07l-.57,0c-.19,0-.38,0-.57,0s-.37,0-.56,0a5,5,0,0,1-.55,0c-.19,0-.37,0-.56,0s-.36,0-.54-.05a4.89,4.89,0,0,1-.53-.09l-.5-.14a3.76,3.76,0,0,1-.46-.2L24,19.45l-.17-.12a.3.3,0,0,1-.08-.22l.1,0a1.27,1.27,0,0,0,.35,0l.26-.07a2.69,2.69,0,0,0,.45-.22,5,5,0,0,0,1.33-1.21,5.39,5.39,0,0,0,.44-.7,3.67,3.67,0,0,0,.3-.72,5.89,5.89,0,0,0,.16-.67,3.51,3.51,0,0,0,.08-.62.89.89,0,0,0-.66-1l-.12,0a1,1,0,0,1,.37.22c.18.17.18.48.11.84a8,8,0,0,1-.38,1.23,4.51,4.51,0,0,1-.32.67,5.21,5.21,0,0,1-.43.65,5.36,5.36,0,0,1-1.18,1.15,3.24,3.24,0,0,1-.36.2,2,2,0,0,1-.29.09l-.11,0h0l-.07,0-.23-.05a3.87,3.87,0,0,0-.45-.05,10.63,10.63,0,0,0-1.34,0l-.25,0a1.83,1.83,0,0,0,.26-.55l-.05,0-.21.17c-.13.1-.31.26-.51.44s-.2.19-.31.31-.19.23-.3.35a1,1,0,0,1-.42.33,1.24,1.24,0,0,1-.61.08,4.11,4.11,0,0,1-1.16-.26l-.47-.21-.19-.11-.1-.06-.08-.06a3.87,3.87,0,0,1-.51-.41.45.45,0,0,1-.13-.18l.07,0a.7.7,0,0,1-.49-.47.83.83,0,0,1,0-.15.76.76,0,0,1,0-.15.66.66,0,0,1,0-.28.42.42,0,0,1,.13-.21h0l0,.16a1.09,1.09,0,0,0,.05.17.62.62,0,0,0,.11.17.43.43,0,0,0,.25.17l.28.09-.06-.22a1.67,1.67,0,0,1-.09-.69.33.33,0,0,1,0-.15.56.56,0,0,1,0-.08l.07-.05a.14.14,0,0,1,.11,0l-.05.07a.65.65,0,0,0-.07.59.74.74,0,0,0,.16.24,1.51,1.51,0,0,1,.05-.25,1.37,1.37,0,0,1,.18-.47.62.62,0,0,1,.08-.12l.1-.1a.37.37,0,0,1,.14-.07.21.21,0,0,0,0,.06.8.8,0,0,0,0,.6,1,1,0,0,0,.12.26l0-.07L18,17.5a3.23,3.23,0,0,1,.18-.52.52.52,0,0,1,.12-.17h0l0,0,.05,0h.16l.12.05a.71.71,0,0,0-.41.4.54.54,0,0,0,0,.36.73.73,0,0,0,.07.13h.05l.08-.12a2.18,2.18,0,0,1,.22-.25l.16-.14.12-.07a.53.53,0,0,1,0,.13.65.65,0,0,1-.05.27l-.11.26a.41.41,0,0,0,0,.16V18l0,.07a1.24,1.24,0,0,0,.1.2,1.81,1.81,0,0,0,.26.28l.13.1h.05a.49.49,0,0,0,0-.14.84.84,0,0,0,0-.33l0-.07h.06A2.24,2.24,0,0,1,20,18a1.07,1.07,0,0,1,.33.07.76.76,0,0,1,.24.14.57.57,0,0,1,.16.2.6.6,0,0,0-.09-.23.68.68,0,0,0-.21-.2,1.58,1.58,0,0,0-.37-.15,3.53,3.53,0,0,0-1-.07l0,0a.29.29,0,0,1,0-.24,1.54,1.54,0,0,1,.17-.24.43.43,0,0,0,.14-.3v-.1a.35.35,0,0,0-.2-.15.66.66,0,0,0-.38,0,.57.57,0,0,0-.11-.11.51.51,0,0,0-.22-.08h-.16l-.14,0a.36.36,0,0,0-.12.08h-.06a.77.77,0,0,0-.44.08,1.09,1.09,0,0,0-.17.13v0s0,0,0,0a.25.25,0,0,0-.17,0,.45.45,0,0,0-.14.06l-.09.08a.77.77,0,0,0-.11.19.13.13,0,0,0,0,.06.3.3,0,0,0-.14-.13.47.47,0,0,0-.14,0l-.14,0a.42.42,0,0,0-.15.08.61.61,0,0,0-.2.34h0a.44.44,0,0,0-.11-.09.6.6,0,0,0-.19-.07l0,0a.27.27,0,0,1,.06.12.12.12,0,0,1,0,.1.2.2,0,0,1-.1.07l0,0-.06,0-.1,0-.28.06c-.11,0-.23,0-.35,0l-.39,0h-.22a1.54,1.54,0,0,1-.46-.19.28.28,0,0,1-.08-.06h0l0-.06h0v0h0v0c0-.05,0-.07,0-.1s.1-.15.18-.21l.13-.09v0h-.09l.07-.05a3.74,3.74,0,0,1,.88-.1,9,9,0,0,1-1.16-.13l1.19-.08a6.42,6.42,0,0,1-.78-.07c-.51-.08-1.19-1-1.19-1l.89.62s-.23-.41-.51-.84S11.79,15,11.79,15a5.36,5.36,0,0,0,.74-.18c-.06,0-.74-.12-.74-.12l.55-.25-.77-.09,1.47-.6h-1.4l1.21-.38H12l1.28-.44L12,12.88a14.44,14.44,0,0,0,2.09-.57H12.19a7.66,7.66,0,0,0,2.06-.77l-1.08,0,.71-.3a6.81,6.81,0,0,0-1.27.18,6.08,6.08,0,0,1,1-.22,3.46,3.46,0,0,1,1.64.19,3.24,3.24,0,0,1,.49.26.48.48,0,0,0-.38.5c0,.62.95,1.06.95,1.06s-.87-.53-.68-1.17c.06-.2.14-.29.23-.32l.06,0c.21.14.37.3.61.44a1.94,1.94,0,0,0,.87.23,6.61,6.61,0,0,1,.83.07,1.82,1.82,0,0,1,.63.33,3.19,3.19,0,0,1,.55.43,1.93,1.93,0,0,1,.42,1.07,1.32,1.32,0,0,1,0,.56,1.06,1.06,0,0,1-.3.47l-.71.55.93-.33a18.44,18.44,0,0,0,1.8-.79,8.69,8.69,0,0,1,1.21-.47l0,0a.36.36,0,0,0,.19,0l.21-.09.07,0,.15,0v0h0a1.59,1.59,0,0,0,.13-.13.07.07,0,0,1,0,.05,1.23,1.23,0,0,0,0,.27.28.28,0,0,0,.12.17.29.29,0,0,0,.2,0,.38.38,0,0,0,.14-.05.44.44,0,0,0,.15-.1.31.31,0,0,0,.1-.1l.05.11a.35.35,0,0,0,.16.16.43.43,0,0,0,.19.05l.18-.05.08-.05a.39.39,0,0,0,.1-.08.83.83,0,0,0,.07-.13v0a.45.45,0,0,0,.16.13.35.35,0,0,0,.16,0l.15,0a.57.57,0,0,0,.14-.13.53.53,0,0,0,.08-.23l.05.08a.33.33,0,0,0,.29.15.26.26,0,0,0,.15-.07l.09-.1a.35.35,0,0,0,.09-.23.49.49,0,0,0-.21-.42.46.46,0,0,1,.17.42.5.5,0,0,1-.1.21l-.09.08L26,14.3c-.07,0-.13-.07-.18-.13a2,2,0,0,1-.1-.21,3.17,3.17,0,0,1-.12-.44h0a.11.11,0,0,0-.09,0c-.05,0-.08,0-.07.06h0a1.3,1.3,0,0,1,.06.51.49.49,0,0,1-.08.24l-.1.08h-.05a.29.29,0,0,1-.07-.08.75.75,0,0,1-.07-.12,1.83,1.83,0,0,1-.08-.25s0-.05,0-.07a2.33,2.33,0,0,0-.08-.46.13.13,0,0,0-.15-.07c-.07,0-.12,0-.11.09a2.29,2.29,0,0,0,.07.36,1.55,1.55,0,0,1,0,.22.75.75,0,0,1,0,.26.41.41,0,0,1-.07.11l0,0-.08,0s0,0,0,0h0a.23.23,0,0,1-.07-.09.88.88,0,0,1-.09-.26,1.36,1.36,0,0,1,0-.29,2.09,2.09,0,0,0,0-.25v0h0v0s-.08-.09-.16-.09-.15.05-.15.11,0,.07,0,.11A1.1,1.1,0,0,1,24,14a1,1,0,0,1-.1.21l-.08.08-.09.07,0,0a1.69,1.69,0,0,1,0-.23,2.65,2.65,0,0,1,.07-.48s0-.08-.09-.1a.15.15,0,0,0-.17.06,1.64,1.64,0,0,1-.42.46.55.55,0,0,1-.14.09l-.13.07a.28.28,0,0,1,0-.09,1.19,1.19,0,0,1,.12-.26,1.51,1.51,0,0,1,.21-.23c.18-.14.4-.26.6-.42a.64.64,0,0,1,.29-.16,2.4,2.4,0,0,1,.4-.06,3.86,3.86,0,0,1,.83,0,1.75,1.75,0,0,1,.74.24,3.11,3.11,0,0,1,.56.44,2.59,2.59,0,0,0-.52-.46,1.92,1.92,0,0,0-.76-.3,5,5,0,0,0-.87-.05,2.32,2.32,0,0,0-.44.06.72.72,0,0,0-.37.19c-.19.13-.42.25-.62.4a1.28,1.28,0,0,0-.26.26,1.73,1.73,0,0,0-.16.3.34.34,0,0,0,0,.18v0l-.29.06a7.35,7.35,0,0,0-1,.32c-.4.17-.81.33-1.23.49a1.68,1.68,0,0,0,.16-.81,1.9,1.9,0,0,0-.51-1.22,3.25,3.25,0,0,0-.64-.46,2.47,2.47,0,0,0-.8-.34,5.79,5.79,0,0,0-.91,0,1.55,1.55,0,0,1-.76-.16,8.34,8.34,0,0,0-1.33-.79,3.62,3.62,0,0,0-1.74-.23,6.5,6.5,0,0,0-1.7.38,6.09,6.09,0,0,0-1.47.72,3.89,3.89,0,0,0-1.08,1,3.79,3.79,0,0,0-.2.34l0,0a2.09,2.09,0,0,0-.44-.16,6.1,6.1,0,0,0-1-.17l-.48,0H5.75a.2.2,0,0,0-.18.07h0c-.62.9-1.28,1.8-1.88,2.71s-1.27,1.81-2,2.69h0s0,.06,0,.07l2.08.64c.71.2,1.41.4,2.13.58s1.45.33,2.2.46c.37.06.74.13,1.12.17s.76.09,1.15.12c1.52.1,3,.17,4.58.13a17.4,17.4,0,0,0,2.29-.2,10.34,10.34,0,0,0,1.88-.47h.2a3.11,3.11,0,0,0,.67-.19c.21-.09.38-.2.55-.29a3.35,3.35,0,0,0,.46-.31,2.3,2.3,0,0,0,.31-.32l.12-.16h.28a12.61,12.61,0,0,1,1.29.1l.39.07a1,1,0,0,1,.18.06h0a.31.31,0,0,0,0,.31.79.79,0,0,0,.17.2l.19.15a3.17,3.17,0,0,0,1,.49,7.17,7.17,0,0,0,2.4.26,7.61,7.61,0,0,0,1.18-.12c.2,0,.4-.07.58-.1s.38-.08.57-.13a5.05,5.05,0,0,0,.55-.18,1.37,1.37,0,0,0,.5-.28.31.31,0,0,0,.05-.45,1.32,1.32,0,0,0-.44-.32.13.13,0,0,0-.12,0h0a2.18,2.18,0,0,1-1,.22,1.17,1.17,0,0,1-.48-.1,1.05,1.05,0,0,1-.36-.25,1.5,1.5,0,0,1-.23-.33l-.05-.09,0-.08-.07-.2a2.09,2.09,0,0,1-.08-.36,1.53,1.53,0,0,1,0-.37A1.67,1.67,0,0,1,28,17a2.53,2.53,0,0,1,.12-.36c.05-.13.12-.24.18-.36a3.5,3.5,0,0,1,.23-.35,3.1,3.1,0,0,1,.59-.61l.08-.06.1-.06.18-.1.13,0s0,0-.05,0l.56-.14.47,0c.45,0,1,0,1.52.06a7.58,7.58,0,0,1,.81.13l.29.07v-.36l-.15,0a5.63,5.63,0,0,0-.9-.1,10.07,10.07,0,0,0-1.59,0l-.47.07,0,0-.1-.14,0,0c.24-.12.58-.31,1-.49a5.46,5.46,0,0,1,.72-.26c.26-.09.53-.2.83-.28a2.68,2.68,0,0,1,.65-.14Z"/><path class="cls-6" d="M17.88,13.79a.57.57,0,0,0-.09-.41.54.54,0,0,0-.79.12s.65-.33.88.29"/><path class="cls-6" d="M17.37,14c0,.22-.06.24-.21.24s-.16,0-.16,0,.12.17.26.13.5-.26.27-.44c0,0-.14-.12-.16.1"/><path class="cls-6" d="M18.23,14.07c0,.13-.1.08-.17.17a2,2,0,0,0-.07.6s.14-.55.36-.65a.41.41,0,0,0,.2-.4s-.28.14-.32.28"/><path class="cls-6" d="M18.9,14.25a.44.44,0,0,1-.18.16c-.14.1-.23.24,0,.19s.58,0,.22-.35"/><path class="cls-6" d="M15.55,13.65l-.36-.08c-1-.09-.66,1.1-.66,1.1a3.6,3.6,0,0,1,.28-.9c.13-.18.49-.08.49-.08a.36.36,0,0,0-.4.16c-.11.23.33.34.33.34l-.12.2c.72-.31.44-.74.44-.74"/><path class="cls-6" d="M16.9,12.46s-.36-.17-.55,0,.12.49.12.49a1.17,1.17,0,0,0,.6-.23l-.11,0a.21.21,0,0,0-.16-.16c-.15-.05-.29-.09-.26,0a.6.6,0,0,0,.08.2l-.09.07s-.2-.22-.1-.36.47,0,.47,0"/><path class="cls-6" d="M14.53,13.18c-.15-.2-.54-.18-.78.21s0,1.18,0,1.18a2.49,2.49,0,0,1,.15-1.22.48.48,0,0,1,.61-.17"/><path class="cls-6" d="M14.69,17h0"/><path class="cls-6" d="M23,6.52h0c.35-.15.72-.26,1.09-.38s.74-.25,1.1-.39l.61-.23a7,7,0,0,0-.08,1v0l0,0c.17.17.35.33.54.49a4.39,4.39,0,0,1-1.44.7h-.05c-.13-.18-.26-.35-.41-.52l0,0-.07,0c-.38-.1-.76-.19-1.15-.27s-.57-.09-.86-.13A5.83,5.83,0,0,1,23,6.52m1.93,2.37h0a5.11,5.11,0,0,0,1-.21c.22-.07.44-.15.65-.24a.65.65,0,0,1,.15.18.28.28,0,0,1,0,.18A.5.5,0,0,1,26.5,9a2.43,2.43,0,0,1-.68.25,4.6,4.6,0,0,1-.8.1,2,2,0,0,1-.35,0,.61.61,0,0,1-.23-.09.53.53,0,0,1-.18-.32h0C24.48,8.91,24.68,8.9,24.89,8.89Zm2.21-.77h0a4.56,4.56,0,0,0,.42.59,2.79,2.79,0,0,0,.34.35c.12.11.27.21.41.32a3.88,3.88,0,0,1,.31.26h0a.52.52,0,0,0-.24,0,1.61,1.61,0,0,0-.52.14l-.06,0s0,0,0-.06a.75.75,0,0,0-.11-.13l-.08,0a.35.35,0,0,0,.08-.27.17.17,0,0,0-.06-.15A.57.57,0,0,0,27.43,9a.8.8,0,0,0-.23-.11l-.16,0v0a.36.36,0,0,0-.11-.32.79.79,0,0,0-.25-.17l.07,0Zm1.87,2h0a8.73,8.73,0,0,0,.54.7s0,0,0,0,0,0,0,0a.28.28,0,0,1-.07.09,1,1,0,0,1-.25.16,2.86,2.86,0,0,1-.35.12l-.32.08-.41-.3.06,0a1.84,1.84,0,0,0,.28-.28l.19-.27a1.14,1.14,0,0,0,.15-.29.64.64,0,0,0,0-.2h.05C28.88,10,28.93,10,29,10.08Zm-1.42.78h0a.92.92,0,0,1-.29,0,1.53,1.53,0,0,1-.3,0,2.88,2.88,0,0,1-.47-.12h0a2,2,0,0,0,.26-.06,2.33,2.33,0,0,0,.68-.29.71.71,0,0,0,.36-.44V9.83h.07a2.6,2.6,0,0,1,.49,0l.08,0s0,0,0,0a.62.62,0,0,1-.08.18,3.41,3.41,0,0,1-.35.48l-.1.12-.09.09A.76.76,0,0,1,27.55,10.86Zm-1.66-.38h0a1.56,1.56,0,0,1-.52,0,.53.53,0,0,1-.31-.17h.15a4.45,4.45,0,0,0,.53,0l.51-.09.47-.16a1.81,1.81,0,0,0,.42-.2,1,1,0,0,0,.33-.26l0,0,0,.05a.53.53,0,0,1,0,.13.38.38,0,0,1-.06.13,1.86,1.86,0,0,1-.93.46l-.32.07ZM25,10h0l-.09,0a1,1,0,0,1-.3-.08.26.26,0,0,1-.13-.3.34.34,0,0,1,0-.12l.07,0a2.31,2.31,0,0,0,.47.08,3.64,3.64,0,0,0,1-.08,2.23,2.23,0,0,0,.86-.37A.53.53,0,0,0,27,8.89l.11.08c.06,0,.08.08.13.13s0,.06,0,.09a.08.08,0,0,1,0,.08s0,.06,0,.09a.45.45,0,0,1-.1.09,1.31,1.31,0,0,1-.29.17l-.38.14-.42.13-.43.09a3.5,3.5,0,0,1-.41,0H25ZM23,7.28c.38.06.76.13,1.15.18l.52.37c-.24.07-.5.14-.75.24a1.17,1.17,0,0,0-.43.29.24.24,0,0,0,0,.32.64.64,0,0,0,.31.15l.36.06h0a.43.43,0,0,0,0,.42.66.66,0,0,0,.24.18l-.11.1a.48.48,0,0,0-.09.19.27.27,0,0,0,.11.27.86.86,0,0,0,.38.2l.11,0H25v0c0,.08.06.21.25.31a1.13,1.13,0,0,0,.34.09,1.59,1.59,0,0,0,.38,0l.38,0h0a.34.34,0,0,1,.06.06,2.36,2.36,0,0,0,.41.25,1.51,1.51,0,0,0,.37.1,1.11,1.11,0,0,0,.48,0,1.22,1.22,0,0,0,.27-.09c.09.16.2.32.31.48l0,.06h.16a3.1,3.1,0,0,0,1-.19,1,1,0,0,0,.41-.27.59.59,0,0,0,.12-.2.43.43,0,0,0,0-.11.26.26,0,0,0,0-.12v0l0,0a7.4,7.4,0,0,0-.79-.65L29,9.86l.5-.11a6.55,6.55,0,0,0,1-.29,3.83,3.83,0,0,0,.49-.2,2.15,2.15,0,0,0,.46-.3.87.87,0,0,0,.27-.42.39.39,0,0,0,0-.24.36.36,0,0,0,0-.09l.7-.31.76-.38v0l-.9.23-1,.29-.19.07.12.16a.28.28,0,0,1,0,.11.33.33,0,0,1,0,.14.5.5,0,0,1-.19.26L31,8.87,30.78,9l-.43.21c-.3.13-.62.24-.94.36-.16.07-.34.13-.5.21a2.61,2.61,0,0,1-.41-.48c-.09-.13-.17-.27-.27-.39a3.85,3.85,0,0,0-.35-.35A5.76,5.76,0,0,0,27.22,8l.12-.11a5,5,0,0,0,1,.34,2.53,2.53,0,0,0,.68.07.55.55,0,0,0,.18,0,.9.9,0,0,0,.16,0,.92.92,0,0,0,.28-.14l0,0a1.31,1.31,0,0,1-.28.09h-.15a.43.43,0,0,1-.16,0,1.45,1.45,0,0,1-.29,0l-.29-.08a6.1,6.1,0,0,1-1-.48l-.2-.12-.14.18a1.94,1.94,0,0,1-.6.39,6.29,6.29,0,0,1-.8.29,4.3,4.3,0,0,1-.85.18,2.81,2.81,0,0,1-.82,0l-.08,0a.57.57,0,0,1,.24-.16A8,8,0,0,1,25,8a5.09,5.09,0,0,0,1.48-.88c.21-.18.4-.36.61-.51a1.48,1.48,0,0,1,.75-.32,4.71,4.71,0,0,1,.92,0c.31,0,.61.06.93.1a6.36,6.36,0,0,0,1,.07,3.61,3.61,0,0,0,1-.24,10.08,10.08,0,0,0,1.58-.77v0h0c-.58.19-1.15.4-1.73.57a4,4,0,0,1-.83.17c-.3,0-.59,0-.92-.08s-.65-.06-1-.06a5.55,5.55,0,0,0-1,.09,1.83,1.83,0,0,0-.81.42c-.21.17-.4.35-.62.51h0c-.09-.17-.19-.34-.29-.51a9.07,9.07,0,0,0,.34-1.34l.08-.38-.49.2-.15.06-.11,0a4,4,0,0,0-.61-.11,5.12,5.12,0,0,0-.9,0,4.88,4.88,0,0,0-.52.06c-.17,0-.34.09-.51.13a3.25,3.25,0,0,0-.46.22,1.69,1.69,0,0,0-.36.27,1.61,1.61,0,0,0-.25.29,1.46,1.46,0,0,0-.14.28,1.17,1.17,0,0,0-.08.44.81.81,0,0,0,0,.16,1,1,0,0,1,.07-.15c.06-.1.14-.23.25-.38l.2-.22a2,2,0,0,1,.27-.23l.15-.1.17-.1c.12-.07.26-.11.38-.17s.28-.09.43-.11a2.17,2.17,0,0,1,.43-.08l.43,0,.4,0c.25,0,.46,0,.61,0h0l-.79.35c-.35.15-.69.3-1,.47s-.66.34-1,.48a10.07,10.07,0,0,1-1.09.39l-.31.1.35.09C22.2,7.1,22.58,7.21,23,7.28Z"/><path class="cls-6" d="M18.81,11l-.54-.08.29,1.19,1.65-.93L19.57,11S21.35,8.63,18,9.45c0,0,2.23-.35.82,1.52"/></svg>