<svg id="Capa_1" data-name="Capa 1" xmlns="http://www.w3.org/2000/svg" viewBox="0 0 35.28 22.38"><defs><style>.cls-1{fill:#6d6f71;}.cls-2{fill:#f5a4c7;}.cls-3{fill:#fbc1b1;}.cls-4{fill:#231f20;}</style></defs><title>3-2meses</title><path class="cls-1" d="M25.26,6.66h0l-.06-.3c0-.09-.05-.23-.07-.32h0c0,.09-.05.24-.07.32l-.08.3Zm-.33.21-.09.32h-.39l.45-1.41h.48l.4,1.41h-.39l-.09-.32Z"/><path class="cls-1" d="M27.07,7.16a2.31,2.31,0,0,1-.43,0,.92.92,0,0,1-.55-.15.61.61,0,0,1-.26-.57c0-.51.43-.72.87-.72a1.19,1.19,0,0,1,.34,0L27,6a.78.78,0,0,0-.24,0,.44.44,0,0,0-.49.5c0,.34.2.46.38.46h.08V6.62h-.18V6.4h.55Z"/><path class="cls-1" d="M27.73,5.78V6.7c0,.21.1.27.2.27s.2-.06.2-.27V5.78h.4v.87c0,.36-.2.56-.6.56s-.6-.2-.6-.56V5.78Z"/><polygon class="cls-1" points="8.33 7.76 8.33 8.33 8.75 8.33 8.75 7.76 9.15 7.76 9.15 9.18 8.75 9.18 8.75 8.58 8.33 8.58 8.33 9.18 7.93 9.18 7.93 7.76 8.33 7.76"/><path class="cls-1" d="M9.79,8.47h0c0,.32.09.48.26.48s.23-.21.23-.49S10.22,8,10,8s-.25.18-.25.49m.91,0c0,.54-.28.75-.67.75s-.65-.34-.65-.73a.66.66,0,0,1,.68-.72A.62.62,0,0,1,10.7,8.44Z"/><polygon class="cls-1" points="10.93 7.76 11.33 7.76 11.33 8.94 11.86 8.94 11.86 9.18 10.93 9.18 10.93 7.76"/><path class="cls-1" d="M12.75,8.64h0l-.07-.3c0-.08,0-.22-.07-.32h0l-.07.33-.08.29Zm-.34.21-.09.33h-.39l.45-1.42h.48l.4,1.42h-.39l-.09-.33Z"/><path class="cls-2" d="M13.37,16.89s-.76.9-.13,1.47,2.83.7,3.83.48a5.93,5.93,0,0,0,1.36-.42S19,18.36,19,18s-.39-4.52-.84-4.77a2.9,2.9,0,0,0-1.71-.35,3.19,3.19,0,0,0-1.39.74Z"/><path class="cls-3" d="M15.63,13s-2.24-.58-3.13-.74-2.34.93-2.37,1A10.48,10.48,0,0,1,8,14.84a3.45,3.45,0,0,1-1.3,0,4.47,4.47,0,0,0-.84-.61c-.19,0-.78.66-.18.78s.53.44.72.53a7.38,7.38,0,0,0,.9.53c.26.07,1.32.5,1.32.5A1.63,1.63,0,0,1,7.37,17c-.75-.05-1.47-.6-1.67-.56s-.47.48-.25.68.42.38.32.56.62.88,1,1.08.88,0,1,0,2,.52,2.09.24.13-.66.4-.82a4.91,4.91,0,0,0,1.13-.67c.33-.33.68-.73.68-.73a7.59,7.59,0,0,0,1.56,1.09c.48.14,2.19.53,2.86-.1a2.36,2.36,0,0,0,.71-2.26A1.7,1.7,0,0,0,16,14.46a6.64,6.64,0,0,1-1.1-.28A1.1,1.1,0,0,1,15.63,13"/><path class="cls-3" d="M17.4,12.82s.44,1.3.53,1.47.37,1.66.47,2.16.05,1.4.45,1.61a1.84,1.84,0,0,0,1.1,0l1.85,0s.48,1.46,1.28,1.52a2.2,2.2,0,0,0,2.3-1.06c.08-.12,1.83-1.32,2.34-1.23a9.69,9.69,0,0,0,2.19.26c.13-.12,1.87-1.57,2-2.06s.51-2.41,0-2.88a5.75,5.75,0,0,0-2.62-.85,7.16,7.16,0,0,0-1.63.58c-.39.16-2.52,0-2.77.13a1.63,1.63,0,0,0-.42.46,1.94,1.94,0,0,1,0-1c.16-.39,1.78-.5,1.94-1s-.11-.85-.15-1.11-.27-.65-.46-.65h-.64a4.59,4.59,0,0,0-.62.16c-.25.09-.76,0-.83.06s-.33.62-.37.64-1.43,2.15-1.65,2.37l-.51.53A16.81,16.81,0,0,0,19,12.69a7.42,7.42,0,0,0-1.55.13"/><path class="cls-4" d="M24.5,17.5h0s0,0,0,0m.4-1.44Zm1.24,1.82h-.05a3.15,3.15,0,0,0-.48.27,2.29,2.29,0,0,0-.4.36c-.11.12-.18.24-.27.35l-.31.31a2.07,2.07,0,0,1-.37.27,1.29,1.29,0,0,1-1,.13l-.14,0-.1-.06a1.05,1.05,0,0,1-.21-.12,2.17,2.17,0,0,1-.36-.31c-.1-.11-.19-.23-.28-.34s-.36-.47-.56-.7c-.39-.46-.77-.92-1.21-1.37h-.05a5.25,5.25,0,0,0,.81,1.43A7.49,7.49,0,0,0,20,18c-.22,0-.47,0-.66,0a1.76,1.76,0,0,1-.53,0,.24.24,0,0,1-.18-.24l-.05-.44c0-.3-.11-.6-.17-.89s-.15-.59-.2-.89L18,14.63a3.15,3.15,0,0,0-.11-.44,2.49,2.49,0,0,0-.18-.45c-.07-.14-.15-.27-.21-.41a1.72,1.72,0,0,1-.07-.21s0,0,0-.06l.24-.08a2,2,0,0,1,.35-.06,2,2,0,0,1,.36,0h.36a6,6,0,0,1,.74.08c.25,0,.48.1.73.16.5.13,1,.28,1.47.42s1,.31,1.43.49l0,0a10,10,0,0,0-1.31-.66c-.23-.1-.47-.2-.71-.28l.12-.12c.12-.13.31-.3.54-.5s.52-.41.79-.69a2.2,2.2,0,0,0,.61-1,1.05,1.05,0,0,1,.18-.44,2.94,2.94,0,0,1,.31-.41l0,0,0,0,.07-.05a.29.29,0,0,1,.16,0c.12,0,.21.06.22.17a.85.85,0,0,1,0,.32.38.38,0,0,1-.11.18s-.08-.11-.1-.14l0-.06v.06c0,.05,0,.1.06.19a.14.14,0,0,0,.14,0,.26.26,0,0,0,.09-.05l.12-.14a.79.79,0,0,0,.16-.37.31.31,0,0,0-.09-.25.5.5,0,0,0-.16-.11l.38-.06h.14c.05,0,0,0,0,0h0l0,0,0,.05a.69.69,0,0,1,.05.13.74.74,0,0,1,.05.23s0,.07,0,.08l0,0h0s0,0,0,0a.54.54,0,0,1-.22,0h-.11s0,0,.07.07a.47.47,0,0,0,.19.09.22.22,0,0,0-.09.19c0,.13.15.2.25.22a.79.79,0,0,0,.23,0h.08l-.07,0a.71.71,0,0,1-.19-.08c-.07,0-.13-.1-.11-.16s.12-.11.24-.14a1,1,0,0,1,.41,0,.73.73,0,0,1,.34.21.28.28,0,0,1,0,.29.87.87,0,0,1-.33.28,2.54,2.54,0,0,1-.5.23l-.26.08-.09,0h-.17l-.05,0a.23.23,0,0,0-.07.06l0,0a1.58,1.58,0,0,0-.19.43c0,.13-.07.25-.1.37a3.62,3.62,0,0,0-.11.63,1.16,1.16,0,0,0-.2.25,1.38,1.38,0,0,0-.13.28,1.84,1.84,0,0,0-.07.3,1.35,1.35,0,0,0,0,.53,2.32,2.32,0,0,0,.31.83,2.71,2.71,0,0,0,.54.63l0,0a.91.91,0,0,1-.12-.17,2.36,2.36,0,0,1-.26-.49,2.29,2.29,0,0,1-.19-.79,1.69,1.69,0,0,1,.06-.49,1,1,0,0,1,.08-.24.92.92,0,0,1,.14-.26,1,1,0,0,1,.47-.4,2.61,2.61,0,0,1,.81-.12,6.67,6.67,0,0,0,1.05-.09c.27-.07.55-.1.84-.19.77.18.38.75.38.75A.76.76,0,0,0,28,12.7a.31.31,0,0,0-.3-.23,5.46,5.46,0,0,1,.81-.39l.95.08-1.13.16h1.05l-.67.14,1.59.14-1.07.29.66.08-.89.17,2.28.36a3.21,3.21,0,0,0-1,.27s1.15.19,1.23.19-1,.22-1,.22l1,0-1,.16a1.67,1.67,0,0,0,1.15.59,6.4,6.4,0,0,0-1.22,0l.84.13a1.52,1.52,0,0,0-1.26.33c-.43.49-.34.79-.34.79l.51-.53s-.11.65-.41.72a10.15,10.15,0,0,1-1.19.14s-.15,0,.32.13.81,0,.92.23-.51.69-1.06.48-1-.15-.91-.48-.11-.18-.21-.12l-.07-.11-.1-.08a1.6,1.6,0,0,0,.05-.21.53.53,0,0,0,0-.18.71.71,0,0,0,0-.2.4.4,0,0,0-.23-.22.46.46,0,0,0-.49.07,1.69,1.69,0,0,0-.19.19V16a.32.32,0,0,0-.06-.17.56.56,0,0,0-.16-.13.44.44,0,0,0-.28,0,.58.58,0,0,0-.21.11.55.55,0,0,0-.13.14.85.85,0,0,1-.1.14l0,.07a.8.8,0,0,0-.14-.22.76.76,0,0,0-.2-.12.92.92,0,0,0-.29,0h-.13l-.15,0a.43.43,0,0,0-.19.19.45.45,0,0,0,0,.3,1.36,1.36,0,0,0,.13.3h0s0,0-.06,0a.25.25,0,0,0,0-.14.48.48,0,0,0-.37-.21.35.35,0,0,0-.23,0,.74.74,0,0,1,.06.14c0,.06,0,.12.07.19a1,1,0,0,0,.17.19l0,0a.52.52,0,0,0-.14.25.45.45,0,0,0,0,.2,0,0,0,0,0,0,0l-.22.1a1.81,1.81,0,0,0-.33.2.75.75,0,0,0-.36.51h.05a1,1,0,0,1,.48-.39,2.2,2.2,0,0,1,.45-.17h0l0,.05,0,0a.27.27,0,0,0,.16,0,.24.24,0,0,0,.17-.06.08.08,0,0,0,0-.06s0,0,0,0V17.4a.89.89,0,0,1,0-.15.15.15,0,0,1,0-.11.39.39,0,0,1,.16-.18.61.61,0,0,1,.14-.07l.08,0,.07,0h0c.13,0,.19-.16.12-.26a1.44,1.44,0,0,1-.19-.37.37.37,0,0,1,0-.13h0l0,0a.44.44,0,0,1,.1.15,1,1,0,0,1,.11.39v0a.15.15,0,0,0,.14.12c.1,0,.21,0,.23-.09l.22-.58.06-.14a.83.83,0,0,1,.08-.12.22.22,0,0,1,.25-.07.53.53,0,0,1,.12.1.21.21,0,0,1,0,.12.53.53,0,0,1-.06.27l-.1.2c-.08.11-.15.22-.22.33h0a.1.1,0,0,0,.06.14.21.21,0,0,0,.23,0h0c.18-.19.37-.38.53-.57l.22-.23h0a.59.59,0,0,1,.06.14.77.77,0,0,1,0,.15.53.53,0,0,1,0,.3,2.68,2.68,0,0,1-.32.63l.05,0a2.09,2.09,0,0,0,.56-.59l0,0a.64.64,0,0,1,.05.24,2,2,0,0,1,0,.25c0,.05,0,.06,0,.09l-.07.08a1.68,1.68,0,0,1-.5.28C26.56,17.74,26.34,17.82,26.14,17.88Zm-7.41.41h0a2.23,2.23,0,0,1-.3.13l-.41.13a8.17,8.17,0,0,1-2.37.22c-.22,0-.43,0-.64-.06l-.3-.05-.3-.07a5.52,5.52,0,0,1-.53-.17,2.14,2.14,0,0,1-.43-.2.89.89,0,0,1-.41-.43s0,0,0-.06l.07.05a2.16,2.16,0,0,0,.34.17,4.12,4.12,0,0,0,.78.23,3.63,3.63,0,0,0,1.64,0A2.83,2.83,0,0,0,16.2,18a1.35,1.35,0,0,0,.31-.19,1.7,1.7,0,0,0,.24-.22l.2-.25a2.56,2.56,0,0,0,.4-1.66,1.26,1.26,0,0,0-.46-.81,3.36,3.36,0,0,0-1-.51c-.31-.11-.63-.21-.95-.29l.16-.23a3.73,3.73,0,0,1,.28-.31c.05-.06.12-.1.17-.16a2.26,2.26,0,0,1,.2-.13,1.58,1.58,0,0,1,.47-.18,2,2,0,0,1,.26-.05l.24,0H17v0s0,.06,0,.08,0,.09,0,.13l.12.22c.08.14.17.29.26.42a2.92,2.92,0,0,1,.25.4c.07.14.13.28.19.42a5.1,5.1,0,0,1,.29,1.77c0,.29,0,.59,0,.89,0,.14,0,.3,0,.45a.49.49,0,0,0,.12.27.7.7,0,0,0,.34.21l.13,0Zm-6.44-1.81h0a.24.24,0,0,0-.12-.07.24.24,0,0,0-.29.08h0l-.25.44-.07.11a.55.55,0,0,1-.06.08.86.86,0,0,1-.17.15,4.88,4.88,0,0,1-1,.52h0l-.1.07a1.43,1.43,0,0,0-.15.22,2.39,2.39,0,0,0-.12.22,2.18,2.18,0,0,0-.09.23.27.27,0,0,1-.08.15c-.05.06-.14.09-.32.08a3.15,3.15,0,0,1-.57-.07c-.44-.08-.88-.11-1.31-.15L7,18.5l0,0a.25.25,0,0,0,0-.09A.17.17,0,0,0,7,18.2l-.12,0h0a.13.13,0,0,0,0-.16.25.25,0,0,0-.28-.09h0a1.26,1.26,0,0,0-.33.1H6.23l-.05,0h0l0,0,0,0h0s0,0,0,0l.07,0,.09,0c.09,0,.14-.09.12-.16a.22.22,0,0,0-.24-.1l-.14,0a.66.66,0,0,1-.19,0,.15.15,0,0,1-.09-.07.27.27,0,0,1-.07-.12s0,0,0-.05h0s0,0,0,0h.07l.17,0,.25.05a.21.21,0,0,0,.18-.05c0-.06,0-.11-.08-.14h0a1.92,1.92,0,0,0-.51-.1H5.66c-.17,0-.28-.1-.28-.21a.43.43,0,0,1,.19-.32s.13,0,.21,0l.28.07.55.17A2.7,2.7,0,0,0,7.2,17a1.65,1.65,0,0,0,1.21-.24A8.53,8.53,0,0,0,9,16c.21-.24.42-.48.65-.71a7.49,7.49,0,0,1,.7-.68,3.66,3.66,0,0,1,.81-.59,1.69,1.69,0,0,1,1-.11c.39,0,.79.08,1.18.13a18.9,18.9,0,0,1,2.31.49,3.56,3.56,0,0,1,1,.41,1.24,1.24,0,0,1,.49.72,1.79,1.79,0,0,1,0,.83,2.33,2.33,0,0,1-.32.81l-.19.24a2.52,2.52,0,0,1-.25.21,1.49,1.49,0,0,1-.3.18,1.81,1.81,0,0,1-.35.13,3.21,3.21,0,0,1-1.54,0,4.68,4.68,0,0,1-.69-.25,1.89,1.89,0,0,1-.28-.17,2.43,2.43,0,0,1-.25-.2A5.2,5.2,0,0,1,12.29,16.48ZM6.55,18.31h0l0,0ZM8,16.18H8a3.31,3.31,0,0,0-.64-.39,5,5,0,0,1-.84-.37.45.45,0,0,1-.12-.12s0-.09-.12-.24A.51.51,0,0,0,6.06,15l-.18,0a.27.27,0,0,1-.15-.05.32.32,0,0,1-.11-.32.11.11,0,0,1,0-.08s0,0,0,0l0,0h0l.07,0,.11,0c.17.09.39.21.6.3a1.51,1.51,0,0,0,.79.11c.14,0,.26,0,.38,0s.2,0,.38,0a2,2,0,0,0,.76-.24,6.66,6.66,0,0,0,1.2-.71,12,12,0,0,0,1-.79,2.82,2.82,0,0,1,.94-.58A2.61,2.61,0,0,1,13,12.46c.35,0,.69.14,1,.2s.56.13.77.18l.58.16-.23.16a1.63,1.63,0,0,0-.17.22,1.09,1.09,0,0,0-.17.41,1,1,0,0,0,0,.24c-.42-.1-.85-.19-1.28-.26s-.82-.11-1.24-.14a2.36,2.36,0,0,0-1.32.19,4.19,4.19,0,0,0-.84.67c-.23.24-.45.48-.65.73L8.86,16l-.4.51ZM17.44,13Zm-.07.07h0a.26.26,0,0,1-.18,0Zm8.1-3.69h0s0,0,0,0l.09.09c.07.08.13.15.13.19a.11.11,0,0,1,0,.08l0,.1s0,0,0,0l-.1,0-.18,0a.7.7,0,0,0,0-.29l-.09-.17,0,0h0A.4.4,0,0,1,25.47,9.39Zm.58.67h0a.75.75,0,0,0,.12-.14l0,.11a.84.84,0,0,1-.05.18l-.17-.07A.41.41,0,0,0,26.05,10.06Zm-.7,0Zm.77.18Zm-1.26,1.48Zm-.14,0ZM32.8,14a3.47,3.47,0,0,0-.26-.45,2.57,2.57,0,0,0-1.1-1.06,3.73,3.73,0,0,0-1.85-.65,3.6,3.6,0,0,0-1.14.11,8,8,0,0,0-1,.38,8.46,8.46,0,0,1-1,.17,7.46,7.46,0,0,1-1,0,2.64,2.64,0,0,0-1,.17,1.58,1.58,0,0,0-.29.17c.06-.12.15-.27.24-.45l.19-.35a1.69,1.69,0,0,1,.19-.32l.17,0,.35-.09a3.05,3.05,0,0,0,.61-.27,1.24,1.24,0,0,0,.47-.44.49.49,0,0,0-.06-.48l0,0a.55.55,0,0,0,.24-.34.86.86,0,0,0,0-.16.22.22,0,0,0,0-.08s0-.06,0-.09a.44.44,0,0,0-.25-.27.64.64,0,0,0-.3-.07h0l-.13-.1a1.23,1.23,0,0,0-.2-.1.48.48,0,0,0-.31,0c-.16,0-.2.11-.22.16h0l-.07-.06a.54.54,0,0,0-.4,0,.63.63,0,0,0-.2.09c-.19.11-.24.22-.24.23a.66.66,0,0,0-.2-.06,1,1,0,0,0-.46,0,.86.86,0,0,0-.19.11l-.06.06-.05,0a2.86,2.86,0,0,0-.4.45,1.55,1.55,0,0,0-.23.53,2.36,2.36,0,0,1-.48.87c-.22.27-.48.51-.66.74a4.61,4.61,0,0,0-.45.71l-.67-.23a5.75,5.75,0,0,0-1.64-.3,4.1,4.1,0,0,0-.86.05,3,3,0,0,0-.43.1,2.57,2.57,0,0,0-.41.15h0s-.06,0-.07,0a1.41,1.41,0,0,0-.32-.09,1.36,1.36,0,0,0-.29,0,1.29,1.29,0,0,0-.34,0,1.72,1.72,0,0,0-.67.2c-.09,0-.27-.13-.55-.24s-.45-.17-.73-.27a9.4,9.4,0,0,0-1-.29,2.9,2.9,0,0,0-1.4,0,2.68,2.68,0,0,0-1.14.69c-.28.27-.59.54-.91.8a10,10,0,0,1-1,.77,1.59,1.59,0,0,1-.6.26c-.07,0-.26,0-.39,0l-.38.05a1.57,1.57,0,0,1-1.2-.45.77.77,0,0,0-.2-.09.64.64,0,0,0-.28,0l-.08,0,0,0a.34.34,0,0,0-.11.07.94.94,0,0,0-.1.14.49.49,0,0,0,.14.58.73.73,0,0,0,.41.17l.14,0H6a.64.64,0,0,0,.07.16.77.77,0,0,0,.22.22,2.3,2.3,0,0,0,.53.22l.46.15a5.37,5.37,0,0,1,.67.29l.52.24c-.05.06-.09.12-.14.17a1.37,1.37,0,0,1-1,.2,2.66,2.66,0,0,1-.55-.16l-.56-.19-.3-.07a.69.69,0,0,0-.38,0,.64.64,0,0,0-.3.44.31.31,0,0,0,.12.25l.13.07a.3.3,0,0,0-.06.13.37.37,0,0,0,0,.11.65.65,0,0,0,.09.19.48.48,0,0,0,.23.17s0,0,0,0a.21.21,0,0,0,0,.19l.07.08,0,0h0l0,0h0l.09,0,.07,0a.12.12,0,0,0,0,.1.18.18,0,0,0,.08.11l.09.07.08,0,.14.05a.24.24,0,0,0,.13.13l.1,0h.15l.66.06a11.79,11.79,0,0,1,1.23.16,3.64,3.64,0,0,0,.7.08,1.25,1.25,0,0,0,.42,0,.72.72,0,0,0,.37-.22.67.67,0,0,0,.14-.26,1.67,1.67,0,0,1,.08-.2,1.14,1.14,0,0,1,.1-.19,1.19,1.19,0,0,1,.09-.15l.53-.23a3.81,3.81,0,0,0,.55-.33,1.67,1.67,0,0,0,.23-.23.66.66,0,0,0,.08-.13l.06-.11.06-.12a4.07,4.07,0,0,0,.66.65l.17.12a.3.3,0,0,0,0,.1.69.69,0,0,0,.3.57,2.13,2.13,0,0,0,.43.28,4.09,4.09,0,0,0,.56.23l.32.09.34.08a5.87,5.87,0,0,0,.72.08A6.44,6.44,0,0,0,17,19a5,5,0,0,0,1.14-.31,2.36,2.36,0,0,0,.39-.2,1.17,1.17,0,0,0,.26-.19l.06-.05a3.12,3.12,0,0,0,.53,0L20,18.2c.38,0,.79,0,1.19-.05l0,0a4.15,4.15,0,0,0,.65.68l.4.31c.14.1.27.2.42.29a1.36,1.36,0,0,0,.24.13l.13.06.13.05a1.79,1.79,0,0,0,.62.09,2.18,2.18,0,0,0,1.12-.4,3.09,3.09,0,0,0,.39-.33c.11-.11.21-.24.31-.34a3.39,3.39,0,0,1,.75-.51,5.93,5.93,0,0,0,.63-.26l.16-.09.27.09a3,3,0,0,0,.43.11,5.06,5.06,0,0,0,1.24.09,5.17,5.17,0,0,0,1.58-.3A4,4,0,0,0,32.19,17,2.59,2.59,0,0,0,33,15.58,2.56,2.56,0,0,0,32.8,14Z"/><path class="cls-4" d="M29.25,14.41a3.3,3.3,0,0,1-.2.83s1.16-1.49-.55-1.37c0,0,.79.06.75.54"/><path class="cls-4" d="M28.2,14.32c-.18,0-.31.2-.08.38a.33.33,0,0,0,.42,0,.93.93,0,0,1,0,.37.54.54,0,0,0,0-.81.43.43,0,0,0-.52,0c.2,0,.22,0,.22,0"/><path class="cls-4" d="M27.15,13.07c0,.08.29-.05.29-.05,0,.15-.19.23-.19.23s.47-.22.33-.45-.4,0-.4,0c.19,0,.16.1.16.1-.17,0-.23.12-.19.21"/><path class="cls-4" d="M27.06,13.67a2.23,2.23,0,0,0-.75-.16c-.22,0-.31.33-.31.33.29-.36,1.06-.17,1.06-.17"/><path class="cls-4" d="M26,14.93c-.27-.19-.51-1.31-.51-1.31-.08.38-1,.38-.63.91a1.23,1.23,0,0,0,1.14.4"/><path class="cls-4" d="M24.57,14.18c-.16.3-.23.41,0,.34s0-.34,0-.34"/><path class="cls-4" d="M27.41,11.12h0a2,2,0,0,0,.3-.27c.12-.11.21-.23.31-.34a3.68,3.68,0,0,0,.42-.74A3.29,3.29,0,0,0,28.67,9a3.07,3.07,0,0,0,.08-.79V8.09l.15,0a8.19,8.19,0,0,0,1.47-.5,2.33,2.33,0,0,0,.56-.35A.67.67,0,0,0,31.09,7l0-.07v0h0s0,0,0,0l0-.13a1.19,1.19,0,0,0-.47-.95,2.94,2.94,0,0,0-1.29-.57,6.66,6.66,0,0,0-.78-.11c-.26,0-.58,0-.83,0-.57,0-1.13,0-1.69,0s-1.12.06-1.68.13a7.36,7.36,0,0,0-1.59.35,2.36,2.36,0,0,0-1.18.76c-.05.09-.07.18-.12.26s0,.2,0,.29a.75.75,0,0,0,.23.5,2.61,2.61,0,0,0,1.36.51,14.89,14.89,0,0,0,1.65.13c.56,0,1.12,0,1.69,0h.68l.13,0a.48.48,0,0,1,.16.07.59.59,0,0,1,.23.33,1.09,1.09,0,0,1,.07.3,5.88,5.88,0,0,1,0,1.19,10.76,10.76,0,0,1-.23,1.1m-.06.06c0-.39,0-.78,0-1.17a5.47,5.47,0,0,0-.08-1.15,2.68,2.68,0,0,0-.07-.27.42.42,0,0,0-.13-.19l-.09,0h-.61c-.56,0-1.14,0-1.71,0A11.17,11.17,0,0,1,23,8.19a2.89,2.89,0,0,1-1.49-.67.81.81,0,0,1-.2-.61,2.47,2.47,0,0,1,.06-.29c.05-.1.09-.2.15-.3a2.72,2.72,0,0,1,1.25-.81,9.61,9.61,0,0,1,1.62-.41c.56-.1,1.13-.16,1.7-.21s1.14-.07,1.71-.09c.31,0,.57,0,.87,0a6.37,6.37,0,0,1,.89.11,3.59,3.59,0,0,1,1.56.65,1.48,1.48,0,0,1,.6,1.21l0,.16s0,0,0,0V7l0,.07a1.25,1.25,0,0,1-.11.18,1.92,1.92,0,0,1-.15.14,2.61,2.61,0,0,1-.7.42A8.46,8.46,0,0,1,29,8.34l.15-.14a4,4,0,0,1-.13.83,4.22,4.22,0,0,1-.33.8c-.08.13-.15.26-.24.38a1.19,1.19,0,0,1-.15.18c0,.06-.09.12-.15.18a2.91,2.91,0,0,1-.37.33,3.13,3.13,0,0,1-.42.29l-.05,0Z"/><path class="cls-4" d="M4.18,8.35h0a2.51,2.51,0,0,1,.92-1,8.88,8.88,0,0,1,1.43-.81h0a2,2,0,0,0,.26-.2l.22-.22a2.11,2.11,0,0,0,.32-.48,1.48,1.48,0,0,0,.11-1A2.93,2.93,0,0,0,6.12,3.05,7.24,7.24,0,0,1,8.21,4.14,1.83,1.83,0,0,1,8.83,5a1.15,1.15,0,0,1-.08.89l-.13.27.43,0a23.35,23.35,0,0,1,3.74,0,18.33,18.33,0,0,1,1.83.27,8.9,8.9,0,0,1,1.68.53,1.77,1.77,0,0,1,1,1,1.13,1.13,0,0,1-.48,1.17,4.57,4.57,0,0,1-1.47.78,10.35,10.35,0,0,1-1.79.4,20.48,20.48,0,0,1-3.76.11c-.62,0-1.27-.08-1.88-.15a15.19,15.19,0,0,1-1.81-.31,5.19,5.19,0,0,1-1.53-.58c-.41-.26-.58-.6-.44-1m0,1.32a6,6,0,0,0,1.81.66,15.48,15.48,0,0,0,1.93.29c.65.07,1.28.11,1.94.12a18.49,18.49,0,0,0,3.87-.27A10.56,10.56,0,0,0,15.5,10,4.66,4.66,0,0,0,17,9.14a1.35,1.35,0,0,0,.56-1.28,1.92,1.92,0,0,0-1.06-1.14,10.34,10.34,0,0,0-3.64-1,16.07,16.07,0,0,0-2-.09c-.53,0-1.05,0-1.57.07a1.28,1.28,0,0,0,0-.82A2.26,2.26,0,0,0,8.49,4,4.83,4.83,0,0,0,7.3,3.34a8.27,8.27,0,0,0-1.36-.41l-.11,0L5.91,3a4.56,4.56,0,0,1,.8.78,2.06,2.06,0,0,1,.41.89,1.34,1.34,0,0,1-.2.88,1.88,1.88,0,0,1-.31.4l-.2.17a1.3,1.3,0,0,1-.2.15A10,10,0,0,0,4.65,7,3,3,0,0,0,3.51,8.23a1,1,0,0,0,0,.79A1.74,1.74,0,0,0,4.13,9.67Z"/></svg>