<svg id="Capa_1" data-name="Capa 1" xmlns="http://www.w3.org/2000/svg" viewBox="0 0 30.36 27.36"><defs><style>.cls-1{fill:#6d6f71;}.cls-2{fill:#231f20;}.cls-3{fill:#f5a4c7;}.cls-4{fill:#fbc1b1;}</style></defs><title>3-2meses</title><path class="cls-1" d="M22.59,14.18h0l-.07-.3c0-.08-.05-.22-.07-.32h0l-.07.33-.08.29Zm-.34.21-.09.33h-.39l.45-1.42h.48l.4,1.42h-.39l-.08-.33Z"/><path class="cls-1" d="M24.4,14.68a1.69,1.69,0,0,1-.43.05,1,1,0,0,1-.55-.14.66.66,0,0,1-.27-.57c0-.52.44-.73.88-.73a1.31,1.31,0,0,1,.34,0l-.08.24a.67.67,0,0,0-.23,0,.44.44,0,0,0-.49.5c0,.34.19.46.38.46H24v-.34h-.19v-.23h.56Z"/><path class="cls-1" d="M25.06,13.3v.92c0,.21.09.27.2.27s.2-.05.2-.27V13.3h.4v.87c0,.37-.2.57-.6.57s-.6-.21-.6-.56V13.3Z"/><polygon class="cls-1" points="5.66 15.29 5.66 15.85 6.08 15.85 6.08 15.29 6.48 15.29 6.48 16.7 6.08 16.7 6.08 16.11 5.66 16.11 5.66 16.7 5.25 16.7 5.25 15.29 5.66 15.29"/><path class="cls-1" d="M7.12,16h0c0,.33.09.49.25.49s.24-.21.24-.5-.06-.47-.24-.47-.25.18-.25.48M8,16c0,.53-.27.75-.66.75A.64.64,0,0,1,6.7,16a.66.66,0,0,1,.68-.72A.62.62,0,0,1,8,16Z"/><polygon class="cls-1" points="8.25 15.29 8.65 15.29 8.65 16.47 9.18 16.47 9.18 16.7 8.25 16.7 8.25 15.29"/><path class="cls-1" d="M10.07,16.16h0L10,15.87l-.07-.32h0c0,.09,0,.24-.07.32l-.08.29Zm-.33.22-.09.32H9.26l.45-1.41h.48l.4,1.41H10.2l-.09-.32Z"/><polygon class="cls-2" points="3.2 1.85 2.33 1.85 2.33 2.74 3.32 2.74 3.32 2.97 1.94 2.97 1.94 0.61 3.26 0.61 3.26 0.84 2.33 0.84 2.33 1.62 3.2 1.62 3.2 1.85"/><path class="cls-2" d="M3.65,1.71c0-.2,0-.3,0-.43H4l0,.21H4a.69.69,0,0,1,.56-.24.53.53,0,0,1,.52.26h0a.66.66,0,0,1,.24-.2,1,1,0,0,1,.35-.06.54.54,0,0,1,.59.6V3H5.88V1.91c0-.22,0-.43-.35-.43a.38.38,0,0,0-.36.25.68.68,0,0,0,0,.15V3H4.77V1.86c0-.19-.06-.38-.35-.38a.37.37,0,0,0-.37.27A.66.66,0,0,0,4,1.9V3H3.65Z"/><path class="cls-2" d="M6.77,3h0V1.28h.39V3ZM7.19.84C7.2.94,7.1,1,7,1S6.73.94,6.73.84,6.83.66,7,.66,7.19.73,7.19.84Z"/><path class="cls-2" d="M8.14.83v.45h.48v.2H8.14v1c0,.22.12.28.26.28h.16l0,.21a2,2,0,0,1-.29,0,.58.58,0,0,1-.39-.11c-.1-.07-.15-.19-.15-.43v-1h-.3v-.2h.3V.9Z"/><path class="cls-2" d="M9.93,2h0c0-.34-.18-.49-.37-.49s-.39.26-.4.49Zm-.78.2c0,.52.3.63.59.63a1.12,1.12,0,0,0,.41-.07l.06.2A1.49,1.49,0,0,1,9.67,3a.8.8,0,0,1-.9-.86.8.8,0,0,1,.83-.89.68.68,0,0,1,.71.75.66.66,0,0,1,0,.15Z"/><path class="cls-2" d="M11.36,2.69a1.07,1.07,0,0,0,.4.09c.23,0,.37-.09.37-.24s-.07-.22-.32-.34-.5-.29-.5-.48.3-.47.68-.47a1,1,0,0,1,.45.09l-.11.2A.81.81,0,0,0,12,1.47c-.21,0-.32.1-.32.21s.06.18.31.29.51.28.51.52-.34.51-.74.51a1.15,1.15,0,0,1-.49-.1Z"/><path class="cls-2" d="M13.14,2.12h0c0,.29.08.67.44.67s.4-.4.4-.67-.07-.65-.42-.65-.42.4-.42.65m1.24,0a.8.8,0,0,1-.82.88.77.77,0,0,1-.81-.87.8.8,0,0,1,.83-.88A.78.78,0,0,1,14.38,2.12Z"/><path class="cls-2" d="M14.77,1.71c0-.2,0-.3,0-.43h.34l0,.2h0a.71.71,0,0,1,.57-.23.54.54,0,0,1,.6.58V3h-.4V1.88c0-.2-.05-.4-.34-.4a.37.37,0,0,0-.37.27.68.68,0,0,0,0,.15V3h-.39Z"/><path class="cls-2" d="M16.79,3h0V1.28h.39V3ZM17.21.84c0,.1-.09.17-.24.17s-.22-.07-.22-.17.1-.18.23-.18S17.21.73,17.21.84Z"/><path class="cls-2" d="M18.78,1.92h0a.45.45,0,0,0,0-.11.38.38,0,0,0-.36-.33c-.33,0-.45.31-.45.65s.14.65.43.65a.38.38,0,0,0,.37-.29.43.43,0,0,0,0-.12ZM19.17.55v2c0,.11,0,.31,0,.4h-.34l0-.21h0a.62.62,0,0,1-.52.24c-.42,0-.72-.31-.72-.87s.36-.88.75-.88a.53.53,0,0,1,.45.2h0V.55Z"/><path class="cls-2" d="M20,2.12h0c0,.29.08.67.44.67s.4-.4.4-.67-.07-.65-.41-.65-.43.4-.43.65m1.24,0a.8.8,0,0,1-.82.88.77.77,0,0,1-.81-.87.8.8,0,0,1,.83-.88A.78.78,0,0,1,21.19,2.12Z"/><path class="cls-2" d="M21.51,2.69a1,1,0,0,0,.4.09c.23,0,.36-.09.36-.24s-.06-.22-.31-.34-.5-.29-.5-.48.3-.47.68-.47a1,1,0,0,1,.45.09l-.11.2a.81.81,0,0,0-.33-.07c-.21,0-.32.1-.32.21s.06.18.31.29.51.28.51.52-.34.51-.74.51a1.17,1.17,0,0,1-.5-.1Z"/><path class="cls-2" d="M24,2.12h0c0,.29.07.67.43.67s.41-.4.41-.67-.07-.65-.42-.65-.42.4-.42.65m1.24,0a.8.8,0,0,1-.83.88.77.77,0,0,1-.8-.87.8.8,0,0,1,.83-.88A.78.78,0,0,1,25.28,2.12Z"/><path class="cls-2" d="M1.74,4.57h0a3.39,3.39,0,0,1,.46-.81l.23,0a3.92,3.92,0,0,0-.3.79Zm.68,0a3.39,3.39,0,0,1,.46-.81l.23,0a3.9,3.9,0,0,0-.29.79Z"/><path class="cls-2" d="M4.19,5.25h0c-.21,0-.68,0-.68.4a.28.28,0,0,0,.3.3.37.37,0,0,0,.37-.26.28.28,0,0,0,0-.09Zm0,.88,0-.18h0a.61.61,0,0,1-.49.21c-.33,0-.59-.19-.59-.48s.5-.62,1.06-.62V5c0-.22-.08-.38-.4-.38a.91.91,0,0,0-.41.09l-.08-.19a1.29,1.29,0,0,1,.58-.12c.49,0,.71.23.71.61v.74a2.36,2.36,0,0,0,0,.38Z"/><path class="cls-2" d="M6.18,5h0a.23.23,0,0,0,0-.12.35.35,0,0,0-.36-.26c-.28,0-.44.26-.44.63s.2.64.44.64a.36.36,0,0,0,.36-.25.39.39,0,0,0,0-.15Zm.41-.59c0,.12,0,.27,0,.53v1c0,.45-.08.62-.24.74a1.08,1.08,0,0,1-.66.18,1.68,1.68,0,0,1-.55-.08l.1-.21a1.53,1.53,0,0,0,.46.07c.31,0,.5-.13.5-.52V5.92h0a.54.54,0,0,1-.47.21A.75.75,0,0,1,5,5.29a.79.79,0,0,1,.78-.89.5.5,0,0,1,.46.23h0l0-.2Z"/><path class="cls-2" d="M8.55,5.67c0,.19,0,.33,0,.46H8.23L8.2,6h0a.69.69,0,0,1-.53.21c-.43,0-.6-.23-.6-.65V4.43h.39v1c0,.26.06.46.33.46a.36.36,0,0,0,.36-.22.78.78,0,0,0,0-.16V4.43h.39Z"/><path class="cls-2" d="M9.48,3.74h0a3.13,3.13,0,0,1-.47.8l-.23,0a4,4,0,0,0,.29-.8Zm.67,0a2.86,2.86,0,0,1-.46.8l-.23,0a4,4,0,0,0,.29-.8Z"/><path class="cls-2" d="M12.07,6.09a1.27,1.27,0,0,1-.41.06.81.81,0,0,1-.9-.86.89.89,0,0,1,1-.88,1,1,0,0,1,.34,0L12,4.68a1,1,0,0,0-.29,0,.58.58,0,0,0-.57.65.57.57,0,0,0,.59.64.87.87,0,0,0,.28,0Z"/><path class="cls-2" d="M13.86,5.67c0,.19,0,.33,0,.46h-.34l0-.18h0a.74.74,0,0,1-.54.21c-.43,0-.6-.23-.6-.65V4.43h.39v1c0,.26.06.46.33.46a.35.35,0,0,0,.36-.22.78.78,0,0,0,0-.16V4.43h.39Z"/><path class="cls-2" d="M15.29,5.25h0c-.21,0-.68,0-.68.4a.28.28,0,0,0,.3.3.37.37,0,0,0,.37-.26.28.28,0,0,0,0-.09Zm.05.88,0-.18h0a.62.62,0,0,1-.49.21c-.33,0-.59-.19-.59-.48s.5-.62,1.06-.62V5c0-.22-.09-.38-.4-.38a.91.91,0,0,0-.41.09l-.09-.19A1.36,1.36,0,0,1,15,4.4c.5,0,.72.23.72.61v.74a2.36,2.36,0,0,0,0,.38Z"/><path class="cls-2" d="M16.18,4.87c0-.2,0-.3,0-.44h.34l0,.21h0a.71.71,0,0,1,.57-.24.54.54,0,0,1,.6.59V6.13h-.4V5c0-.2-.05-.41-.34-.41a.38.38,0,0,0-.37.28.61.61,0,0,0,0,.15V6.13h-.39Z"/><path class="cls-2" d="M19.3,5.08h0a.43.43,0,0,0-.38-.44c-.32,0-.44.31-.44.65s.14.64.42.64a.37.37,0,0,0,.38-.29.36.36,0,0,0,0-.11Zm.39-1.38v2c0,.12,0,.31,0,.41h-.34l0-.21h0a.62.62,0,0,1-.52.24c-.42,0-.72-.31-.72-.87s.36-.89.75-.89a.52.52,0,0,1,.45.21h0V3.7Z"/><path class="cls-2" d="M20.47,5.28h0c0,.28.07.67.43.67s.41-.4.41-.67-.07-.66-.42-.66-.42.4-.42.66m1.24,0a.8.8,0,0,1-.83.88.78.78,0,0,1-.8-.87.8.8,0,0,1,.83-.89A.78.78,0,0,1,21.71,5.28Z"/><path class="cls-2" d="M1.84,9a1,1,0,0,0,.4.09c.23,0,.37-.1.37-.25s-.07-.22-.32-.33-.5-.29-.5-.49.3-.47.68-.47a1.18,1.18,0,0,1,.45.09l-.11.2a.81.81,0,0,0-.33-.07c-.21,0-.32.1-.32.21s.06.18.31.3S3,8.57,3,8.8s-.34.51-.74.51a1.09,1.09,0,0,1-.49-.1Z"/><path class="cls-2" d="M4.39,8.26h0c0-.34-.18-.49-.37-.49s-.39.26-.4.49Zm-.78.2c0,.52.31.64.59.64A1.12,1.12,0,0,0,4.61,9l.06.2a1.66,1.66,0,0,1-.54.08.8.8,0,0,1-.9-.85.82.82,0,0,1,.83-.9.68.68,0,0,1,.71.75v.15Z"/><rect class="cls-2" x="5.9" y="6.86" width="0.39" height="2.43"/><path class="cls-2" d="M7.88,8.26h0c0-.34-.18-.49-.37-.49s-.39.26-.41.49Zm-.78.2c0,.52.3.64.59.64A1.12,1.12,0,0,0,8.1,9l.06.2a1.75,1.75,0,0,1-.54.08.8.8,0,0,1-.91-.85.82.82,0,0,1,.84-.9.68.68,0,0,1,.71.75.62.62,0,0,1,0,.15Z"/><path class="cls-2" d="M9.38,6.86h.39v.91h0A.8.8,0,0,1,10,7.62a1,1,0,0,1,.33-.06.54.54,0,0,1,.58.6V9.29h-.39V8.19c0-.2-.07-.4-.34-.4a.38.38,0,0,0-.38.27.59.59,0,0,0,0,.13v1.1H9.38Z"/><path class="cls-2" d="M12.32,8.41h0c-.2,0-.68,0-.68.39a.28.28,0,0,0,.3.31.35.35,0,0,0,.37-.26.31.31,0,0,0,0-.09Zm.06.88,0-.18h0a.63.63,0,0,1-.5.21.52.52,0,0,1-.58-.49c0-.42.49-.61,1.05-.62V8.16c0-.23-.08-.38-.39-.38a1,1,0,0,0-.41.08l-.09-.19A1.48,1.48,0,0,1,12,7.56c.5,0,.71.23.71.61V8.9a1.63,1.63,0,0,0,0,.39Z"/><path class="cls-2" d="M13.6,8.69h0a.15.15,0,0,0,0,.1.38.38,0,0,0,.36.3c.32,0,.43-.29.43-.65s-.11-.65-.43-.65a.41.41,0,0,0-.37.3.53.53,0,0,0,0,.12Zm-.41.6c0-.1,0-.29,0-.41v-2h.39v.93h0a.61.61,0,0,1,.52-.23c.39,0,.68.31.68.86s-.37.9-.75.9a.56.56,0,0,1-.5-.25h0l0,.22Z"/><rect class="cls-2" x="15.2" y="6.86" width="0.39" height="2.43"/><path class="cls-2" d="M17.05,8.41h0c-.21,0-.68,0-.68.39a.28.28,0,0,0,.3.31A.37.37,0,0,0,17,8.85a.31.31,0,0,0,0-.09Zm.06.88,0-.18h0a.61.61,0,0,1-.49.21A.53.53,0,0,1,16,8.83c0-.42.5-.61,1.06-.62V8.16c0-.23-.08-.38-.4-.38a1,1,0,0,0-.4.08l-.09-.19a1.48,1.48,0,0,1,.58-.11c.49,0,.71.23.71.61V8.9a2.42,2.42,0,0,0,0,.39Z"/><path class="cls-3" d="M10.7,24.41s-.76.91-.13,1.47,2.83.7,3.82.48A6.43,6.43,0,0,0,15.75,26s.58-.07.55-.41-.39-4.52-.84-4.78a3,3,0,0,0-1.71-.35,3.35,3.35,0,0,0-1.39.75Z"/><path class="cls-4" d="M13,20.57s-2.25-.58-3.13-.75-2.34.94-2.37,1a10.29,10.29,0,0,1-2.15,1.58,3.71,3.71,0,0,1-1.3,0,4.35,4.35,0,0,0-.83-.61c-.19,0-.78.66-.19.78s.54.44.73.53a7.22,7.22,0,0,0,.89.52c.27.07,1.33.51,1.33.51a1.66,1.66,0,0,1-1.24.47C4,24.49,3.22,23.94,3,24s-.46.49-.24.69.42.38.32.55.61.88,1,1.08.87,0,1,0,2,.52,2.09.23.14-.65.41-.82a5,5,0,0,0,1.13-.67l.68-.72A7.31,7.31,0,0,0,11,25.43c.47.14,2.19.52,2.86-.1a2.4,2.4,0,0,0,.71-2.27A1.71,1.71,0,0,0,13.27,22a6.25,6.25,0,0,1-1.09-.28A1.07,1.07,0,0,1,13,20.57"/><path class="cls-4" d="M14.73,20.34s.44,1.3.53,1.47.36,1.66.47,2.16,0,1.4.44,1.61a1.89,1.89,0,0,0,1.11,0c.08,0,1.85,0,1.85,0s.47,1.46,1.27,1.52a2.22,2.22,0,0,0,2.31-1.07c.08-.12,1.83-1.32,2.33-1.22a9.6,9.6,0,0,0,2.2.25c.13-.12,1.86-1.56,2-2.06s.5-2.41,0-2.87a5.62,5.62,0,0,0-2.61-.86,7.26,7.26,0,0,0-1.64.59c-.38.16-2.51,0-2.76.13a1.5,1.5,0,0,0-.42.46,1.9,1.9,0,0,1,0-1c.16-.4,1.78-.51,1.94-1s-.11-.84-.15-1.1-.26-.65-.46-.65h-.63a5,5,0,0,0-.63.16c-.25.1-.75,0-.83.07s-.32.61-.36.64S19.16,19.8,18.94,20l-.51.52a16.49,16.49,0,0,0-2.16-.34,7.37,7.37,0,0,0-1.54.13"/><path class="cls-2" d="M21.83,25h0s0,0,0,0m.39-1.43h0s-.05,0,0,0Zm1.24,1.81h0l0,0h0a4.51,4.51,0,0,0-.49.28,1.9,1.9,0,0,0-.4.35,3.55,3.55,0,0,1-.27.35,3,3,0,0,1-.3.32,2.51,2.51,0,0,1-.37.27,1.4,1.4,0,0,1-.46.16,1.36,1.36,0,0,1-.53,0l-.13,0L20.36,27a.92.92,0,0,1-.21-.13,1.76,1.76,0,0,1-.35-.31c-.1-.11-.2-.22-.29-.34s-.36-.47-.55-.7c-.39-.45-.77-.92-1.22-1.36h0a5.69,5.69,0,0,0,.81,1.43,8.77,8.77,0,0,0-1.16-.11c-.23,0-.48,0-.66,0a1.43,1.43,0,0,1-.53-.05.23.23,0,0,1-.19-.23l0-.45c0-.29-.11-.59-.18-.89s-.14-.59-.19-.88l-.18-.89c0-.15-.07-.3-.11-.45a3.43,3.43,0,0,0-.19-.44c-.07-.14-.14-.28-.2-.42l-.08-.2s0,0,0-.07l.23-.07.35-.07.36,0h.37a6.17,6.17,0,0,1,.74.07c.24.05.48.1.72.17.51.12,1,.27,1.47.42s1,.31,1.43.49l0,0a8.36,8.36,0,0,0-1.3-.67c-.23-.1-.47-.19-.72-.28l.13-.12.53-.49c.22-.2.53-.42.8-.7a2.27,2.27,0,0,0,.61-1,1.09,1.09,0,0,1,.17-.44,3,3,0,0,1,.32-.41l0-.05,0,0,.07-.05a.47.47,0,0,1,.17,0,.22.22,0,0,1,.22.18.8.8,0,0,1,0,.31.38.38,0,0,1-.11.18.29.29,0,0,1-.1-.13l0-.06v.06a.23.23,0,0,0,.07.19.17.17,0,0,0,.14,0,.28.28,0,0,0,.08-.06.49.49,0,0,0,.12-.13.83.83,0,0,0,.16-.37.34.34,0,0,0-.08-.25.46.46,0,0,0-.16-.11L22,17h.15s0,0,0,0h0l0,0s0,0,0,.06,0,.08.05.13a.68.68,0,0,1,.05.23s0,.07,0,.07l0,0h0l0,0a.51.51,0,0,1-.22,0h-.11l.07.06a.48.48,0,0,0,.19.09.26.26,0,0,0-.09.19c0,.14.16.2.25.23a1.48,1.48,0,0,0,.24,0h.08l-.08,0-.18-.08c-.07,0-.13-.1-.11-.16a.32.32,0,0,1,.23-.15,1,1,0,0,1,.42,0,.64.64,0,0,1,.33.2.26.26,0,0,1,0,.3,1,1,0,0,1-.33.28,2.75,2.75,0,0,1-.49.23l-.27.08-.09,0H22l-.11,0,0,0-.08.06,0,0a1.47,1.47,0,0,0-.18.43,3.68,3.68,0,0,0-.11.37c-.06.28-.09.5-.11.63a2.07,2.07,0,0,0-.19.25,1.45,1.45,0,0,0-.13.29c0,.11-.06.19-.08.29a1.62,1.62,0,0,0,0,.54,2,2,0,0,0,.31.82,2.65,2.65,0,0,0,.54.64l0,0a1.8,1.8,0,0,1-.12-.17,3.15,3.15,0,0,1-.26-.5,2.19,2.19,0,0,1-.18-.79,2.06,2.06,0,0,1,.05-.48c0-.08.06-.18.08-.25s.09-.19.14-.26a1,1,0,0,1,.47-.39,2.43,2.43,0,0,1,.82-.13,5,5,0,0,0,1.05-.09c.26-.06.55-.1.83-.19.78.18.38.76.38.76a.74.74,0,0,0,.15-.62c0-.15-.15-.21-.3-.22a5.46,5.46,0,0,1,.81-.39l1,.07-1.14.16h1.06L26,20l1.59.13-1.07.29.66.09-.9.16,2.29.37a3.52,3.52,0,0,0-1,.26s1.15.19,1.24.19-1,.22-1,.22l1,0-1,.16a1.68,1.68,0,0,0,1.16.58,7.38,7.38,0,0,0-1.22,0l.83.13a1.48,1.48,0,0,0-1.25.34c-.43.48-.35.79-.35.79l.51-.54s-.1.65-.4.73-1.19.13-1.19.13-.15,0,.32.13.81,0,.91.23-.51.69-1,.49-1-.15-.91-.49-.11-.17-.21-.11a.44.44,0,0,0-.08-.11.27.27,0,0,0-.1-.08.83.83,0,0,0,.06-.21,1.15,1.15,0,0,0,0-.19.77.77,0,0,0-.05-.19.39.39,0,0,0-.22-.23.5.5,0,0,0-.5.08l-.19.18s0-.05,0-.07a.31.31,0,0,0-.07-.17.36.36,0,0,0-.16-.13.38.38,0,0,0-.28,0,.42.42,0,0,0-.21.11.86.86,0,0,0-.13.14,1.1,1.1,0,0,0-.09.14l0,.07a.51.51,0,0,0-.15-.22.48.48,0,0,0-.2-.12.92.92,0,0,0-.28-.05h-.13a.5.5,0,0,0-.15,0,.33.33,0,0,0-.19.18.48.48,0,0,0,0,.31,1.14,1.14,0,0,0,.13.3h0l-.05,0a.22.22,0,0,0,0-.13.52.52,0,0,0-.37-.22.41.41,0,0,0-.24,0,.61.61,0,0,1,.07.13.62.62,0,0,0,.07.19,1,1,0,0,0,.17.19l0,0a.55.55,0,0,0-.13.25.37.37,0,0,0,0,.21v0l-.22.1a3.37,3.37,0,0,0-.32.19.75.75,0,0,0-.37.52h0a1,1,0,0,1,.48-.4,3.47,3.47,0,0,1,.45-.17h0s0,0,0,0l0,0s0,0,.16.05a.27.27,0,0,0,.16-.06s0-.05,0-.06,0,0,0,0V25l0-.08a1.25,1.25,0,0,1,0-.15.36.36,0,0,1,0-.11.43.43,0,0,1,.17-.19.91.91,0,0,1,.14-.07l.07,0,.08,0h0c.14,0,.2-.16.13-.25a1.3,1.3,0,0,1-.19-.37.27.27,0,0,1,0-.14h0s0,0,0,0a.4.4,0,0,1,.11.14,1.07,1.07,0,0,1,.1.4v0s.06.1.14.12a.22.22,0,0,0,.23-.1l.22-.57a1,1,0,0,1,.06-.14.35.35,0,0,1,.07-.12c.08-.07.17-.12.25-.07a.34.34,0,0,1,.12.09.25.25,0,0,1,0,.12.94.94,0,0,1-.06.28l-.11.19-.22.33h0a.1.1,0,0,0,0,.15.23.23,0,0,0,.23,0l0,0c.18-.19.36-.37.53-.56l.21-.23h0a.69.69,0,0,1,.05.13,1.1,1.1,0,0,1,0,.16.83.83,0,0,1,0,.3,2.62,2.62,0,0,1-.32.62l0,0a2.24,2.24,0,0,0,.57-.58s0,0,0,0a.56.56,0,0,1,.05.25,1.93,1.93,0,0,1,0,.24.62.62,0,0,1,0,.1l-.07.08a2.38,2.38,0,0,1-.51.28A5.64,5.64,0,0,1,23.46,25.4Zm-7.41.42h0l-.3.13c-.12,0-.25.09-.41.13A8.1,8.1,0,0,1,13,26.3c-.21,0-.43,0-.63-.07l-.3-.05-.3-.07c-.19-.05-.37-.1-.53-.16a4.43,4.43,0,0,1-.43-.2.94.94,0,0,1-.42-.44s0,0,0,0l.06,0a2.31,2.31,0,0,0,.35.18,4.22,4.22,0,0,0,.77.22,3.49,3.49,0,0,0,1.64,0,2.24,2.24,0,0,0,.36-.14,2.2,2.2,0,0,0,.3-.19,1.84,1.84,0,0,0,.25-.23l.19-.24a2.54,2.54,0,0,0,.4-1.67,1.26,1.26,0,0,0-.45-.81,3.73,3.73,0,0,0-1-.51c-.31-.11-.63-.2-.95-.29l.16-.22a3.54,3.54,0,0,1,.27-.32l.18-.15a.86.86,0,0,1,.2-.13,1.65,1.65,0,0,1,.47-.19l.25,0a2.29,2.29,0,0,1,.25,0,1.57,1.57,0,0,1,.29,0v0a.25.25,0,0,0,0,.09.5.5,0,0,0,0,.13,2.26,2.26,0,0,0,.11.22l.27.42a2.34,2.34,0,0,1,.25.39,3.25,3.25,0,0,1,.18.43A5.08,5.08,0,0,1,15.45,24c0,.3,0,.6,0,.89s0,.3,0,.45a.52.52,0,0,0,.12.28.77.77,0,0,0,.34.2l.12,0ZM9.61,24h0a.23.23,0,0,0-.12-.08A.27.27,0,0,0,9.2,24h0l-.26.43-.06.11-.06.08a1.45,1.45,0,0,1-.18.16,4.42,4.42,0,0,1-1,.51h0a.15.15,0,0,0-.09.06,2.39,2.39,0,0,0-.16.22,2.4,2.4,0,0,0-.11.23,1,1,0,0,0-.09.22.4.4,0,0,1-.08.16c0,.06-.14.08-.32.08a4,4,0,0,1-.57-.07,12.13,12.13,0,0,0-1.32-.15l-.54,0,0-.05,0-.09c0-.06,0-.12-.09-.16a.21.21,0,0,0-.12,0h0a.13.13,0,0,0,.06-.15.26.26,0,0,0-.29-.1H4a1.93,1.93,0,0,0-.34.11h0l0,0-.06,0h0l0,0s0,0,0,0h0l.05,0,.06,0,.09,0a.13.13,0,0,0,.12-.16.21.21,0,0,0-.24-.09l-.13,0a.35.35,0,0,1-.2,0,.24.24,0,0,1-.09-.06A.34.34,0,0,1,3,25a.11.11,0,0,1,0-.05v0h.07l.17,0L3.5,25a.16.16,0,0,0,.18-.05s0-.11-.07-.13h0a2.65,2.65,0,0,0-.52-.11H3c-.17,0-.28-.1-.28-.22a.46.46,0,0,1,.18-.32.57.57,0,0,1,.22,0l.28.06.55.18a2.54,2.54,0,0,0,.59.16,1.62,1.62,0,0,0,1.21-.23c.24-.25.42-.5.63-.74L7,22.84c.22-.23.46-.46.7-.68a3.86,3.86,0,0,1,.81-.58,1.77,1.77,0,0,1,1-.12c.4,0,.79.08,1.19.14a19.29,19.29,0,0,1,2.31.48,3.8,3.8,0,0,1,1,.41,1.26,1.26,0,0,1,.5.72,1.94,1.94,0,0,1,0,.83,2.56,2.56,0,0,1-.33.81l-.19.24a1.79,1.79,0,0,1-.25.22,1.7,1.7,0,0,1-.3.18,3.4,3.4,0,0,1-.34.12,3.09,3.09,0,0,1-1.54,0,3.5,3.5,0,0,1-.69-.24,2.35,2.35,0,0,1-.53-.38A6.1,6.1,0,0,1,9.61,24ZM3.87,25.83h0l0,0ZM5.36,23.7h0a3.18,3.18,0,0,0-.65-.38,6.47,6.47,0,0,1-.84-.38.29.29,0,0,1-.11-.11s0-.1-.12-.24a.52.52,0,0,0-.26-.12l-.17,0a.32.32,0,0,1-.27-.38L3,22s0,0,0,0l0,0s0,0,0,0h.06l.11,0c.18.1.4.22.61.31a1.5,1.5,0,0,0,.79.1l.38,0a3.14,3.14,0,0,1,.38,0,2.06,2.06,0,0,0,.76-.24,9.26,9.26,0,0,0,1.2-.71c.35-.26.69-.53,1-.8a2.75,2.75,0,0,1,.93-.57A2.45,2.45,0,0,1,10.33,20c.35,0,.7.13,1,.19l.77.19.58.15a1.37,1.37,0,0,0-.23.17,1.68,1.68,0,0,0-.18.21,1,1,0,0,0-.16.41,1.1,1.1,0,0,0,0,.25c-.41-.11-.84-.19-1.27-.26a10.17,10.17,0,0,0-1.25-.14,2.29,2.29,0,0,0-1.32.19,4,4,0,0,0-.83.67,8.72,8.72,0,0,0-.65.73c-.21.24-.4.49-.59.74L5.78,24Zm9.41-3.17Zm-.07.08h0a.39.39,0,0,1-.18,0Zm8.09-3.7h0l0,0a1.1,1.1,0,0,0,.08.1.5.5,0,0,1,.14.19.28.28,0,0,1,0,.08.79.79,0,0,1,0,.09s0,0,0,0,0,0-.09,0l-.18,0a.57.57,0,0,0,0-.29.7.7,0,0,0-.09-.17s0,0,0,0h0A.38.38,0,0,1,22.79,16.91Zm.58.68h0a.53.53,0,0,0,.12-.15.5.5,0,0,1,0,.12.63.63,0,0,1-.06.17l-.16-.07Zm-.7,0Zm.77.17Zm-1.26,1.49Zm-.13,0Zm8.07,2.25a3,3,0,0,0-.26-.46A2.57,2.57,0,0,0,28.76,20a3.52,3.52,0,0,0-3-.53,6.9,6.9,0,0,0-1,.37,5.83,5.83,0,0,1-1,.17,6.17,6.17,0,0,1-1,0,2.82,2.82,0,0,0-1,.17,1.26,1.26,0,0,0-.3.18l.25-.46c0-.11.12-.22.18-.34a3.62,3.62,0,0,1,.2-.33l.17,0a1.89,1.89,0,0,0,.34-.09,3.14,3.14,0,0,0,.62-.27,1.21,1.21,0,0,0,.46-.44.45.45,0,0,0-.06-.47l0,0a.54.54,0,0,0,.24-.34,1,1,0,0,0,0-.17.15.15,0,0,0,0-.07s0-.06,0-.09a.53.53,0,0,0-.25-.28.67.67,0,0,0-.3-.07h0a.61.61,0,0,0-.14-.1.71.71,0,0,0-.2-.11.54.54,0,0,0-.31,0,.38.38,0,0,0-.22.16h0a.24.24,0,0,0-.08-.06.47.47,0,0,0-.39,0,.64.64,0,0,0-.2.08c-.19.12-.24.23-.24.24A.73.73,0,0,0,21.4,17a.81.81,0,0,0-.46.05.67.67,0,0,0-.18.11l-.07.05-.05.05a2.73,2.73,0,0,0-.39.44,1.42,1.42,0,0,0-.23.54,2.35,2.35,0,0,1-.49.86c-.21.27-.47.51-.65.75a3.8,3.8,0,0,0-.45.71l-.68-.24a6,6,0,0,0-1.63-.3,4.25,4.25,0,0,0-.87.06,3.15,3.15,0,0,0-.42.09,1.92,1.92,0,0,0-.41.16h0a.15.15,0,0,0-.06,0,1.23,1.23,0,0,0-.33-.08,1.27,1.27,0,0,0-.29,0,2,2,0,0,0-.34,0,1.55,1.55,0,0,0-.36.08,1.2,1.2,0,0,0-.31.13,5.35,5.35,0,0,0-.54-.25L11.45,20a6.9,6.9,0,0,0-1-.28,3,3,0,0,0-1.39,0,2.8,2.8,0,0,0-1.15.7c-.28.27-.58.53-.91.8A12,12,0,0,1,6,22a1.86,1.86,0,0,1-.6.26,2.37,2.37,0,0,0-.39,0l-.38.05a1.58,1.58,0,0,1-1.2-.45.63.63,0,0,0-.2-.09.56.56,0,0,0-.29,0l-.07,0,0,0-.1.07a.44.44,0,0,0-.1.15.49.49,0,0,0,.13.58.8.8,0,0,0,.41.17l.14,0h0a.67.67,0,0,0,.06.16.8.8,0,0,0,.23.22,2.24,2.24,0,0,0,.52.22l.46.15a4.37,4.37,0,0,1,.67.28l.52.24a1.15,1.15,0,0,1-.14.17,1.28,1.28,0,0,1-1,.2A2.21,2.21,0,0,1,4,24.26c-.18-.06-.37-.13-.56-.18L3.16,24a.71.71,0,0,0-.38,0,.56.56,0,0,0-.3.43.28.28,0,0,0,.12.25.57.57,0,0,0,.13.08.19.19,0,0,0-.06.13.37.37,0,0,0,0,.11.71.71,0,0,0,.08.19.57.57,0,0,0,.24.17H3a.27.27,0,0,0,0,.2s.05.06.08.08l0,0h0l.09.05.07,0a.28.28,0,0,0,0,.1.31.31,0,0,0,.08.11l.1.07.08.05.13.05a.35.35,0,0,0,.14.13l.09,0h.07l.09,0,.65.06c.43,0,.84.08,1.23.15a4.76,4.76,0,0,0,.7.09,1.67,1.67,0,0,0,.43-.05.78.78,0,0,0,.37-.21.69.69,0,0,0,.13-.26l.08-.21a1.74,1.74,0,0,1,.1-.19A.71.71,0,0,1,8,25.6a4.9,4.9,0,0,0,.52-.24A2.77,2.77,0,0,0,9,25a1,1,0,0,0,.23-.22l.09-.13.05-.11.06-.12a5,5,0,0,0,.66.64l.17.12s0,.07,0,.11a.72.72,0,0,0,.31.56,1.79,1.79,0,0,0,.43.29,5.92,5.92,0,0,0,.56.23l.31.09.35.07c.23,0,.47.07.71.09a7.19,7.19,0,0,0,1.41-.08,4.81,4.81,0,0,0,1.13-.31c.16-.07.29-.14.4-.2a2.21,2.21,0,0,0,.26-.19l.05-.06a2,2,0,0,0,.54,0c.25,0,.42-.07.64-.08.38,0,.78-.05,1.18-.06l0,0a3.79,3.79,0,0,0,.66.67,4.08,4.08,0,0,0,.39.31A4.61,4.61,0,0,0,20,27l.23.14.13.06.14,0a1.7,1.7,0,0,0,.61.09,2.06,2.06,0,0,0,1.12-.39,3.37,3.37,0,0,0,.39-.33c.12-.12.21-.25.31-.35a3.5,3.5,0,0,1,.75-.5,4.1,4.1,0,0,0,.64-.27l.16-.09.27.09a3,3,0,0,0,.43.11,4.53,4.53,0,0,0,1.24.1A5.08,5.08,0,0,0,28,25.36a4,4,0,0,0,1.48-.87,2.63,2.63,0,0,0,.8-1.39A2.53,2.53,0,0,0,30.12,21.53Z"/><path class="cls-2" d="M26.57,21.93a3.21,3.21,0,0,1-.19.84s1.15-1.49-.55-1.38c0,0,.78.07.74.54"/><path class="cls-2" d="M25.52,21.85c-.17,0-.3.19-.07.38a.34.34,0,0,0,.42,0,.9.9,0,0,1,0,.36.54.54,0,0,0,0-.8.43.43,0,0,0-.53,0c.2,0,.22,0,.22,0"/><path class="cls-2" d="M24.47,20.59c0,.09.29,0,.29,0a.32.32,0,0,1-.18.23s.46-.22.33-.45-.4,0-.4,0c.19,0,.16.09.16.09-.17,0-.24.12-.2.21"/><path class="cls-2" d="M24.39,21.2a2.18,2.18,0,0,0-.75-.17c-.23,0-.32.34-.32.34.3-.37,1.07-.17,1.07-.17"/><path class="cls-2" d="M23.32,22.45c-.26-.19-.5-1.31-.5-1.31-.09.39-1,.38-.63.92a1.2,1.2,0,0,0,1.13.39"/><path class="cls-2" d="M21.9,21.7c-.17.31-.23.42,0,.34s0-.34,0-.34"/><path class="cls-2" d="M24.74,18.64h0a3.85,3.85,0,0,0,.3-.27,1.92,1.92,0,0,0,.3-.34,4,4,0,0,0,.43-.74,3.66,3.66,0,0,0,.23-.78,4.21,4.21,0,0,0,.08-.78v-.11l.16,0a8.07,8.07,0,0,0,1.46-.49,2.42,2.42,0,0,0,.57-.36,1.22,1.22,0,0,0,.16-.18l0-.07v-.06s0,0,0,0V14.3a1.19,1.19,0,0,0-.47-1,3,3,0,0,0-1.28-.56,5.19,5.19,0,0,0-.79-.12c-.26,0-.57,0-.83,0-.56,0-1.12,0-1.69,0a15.45,15.45,0,0,0-1.67.14,8,8,0,0,0-1.59.34A2.26,2.26,0,0,0,19,13.9a1.23,1.23,0,0,0-.12.26,2.54,2.54,0,0,0,0,.29A.75.75,0,0,0,19,15a2.83,2.83,0,0,0,1.37.51c.53.07,1.09.11,1.65.13l1.69,0h.67l.13,0a.38.38,0,0,1,.17.07.57.57,0,0,1,.23.32,1.88,1.88,0,0,1,.06.31,5.16,5.16,0,0,1,0,1.18c-.06.37-.13.74-.22,1.1m-.07.06c0-.39,0-.78,0-1.16a5.47,5.47,0,0,0-.07-1.15,1.73,1.73,0,0,0-.08-.27.44.44,0,0,0-.13-.2h-.69c-.57,0-1.14,0-1.72,0a11.15,11.15,0,0,1-1.72-.18,2.89,2.89,0,0,1-1.49-.67.78.78,0,0,1-.2-.62c0-.09,0-.19.05-.29a2.69,2.69,0,0,1,.16-.29A2.64,2.64,0,0,1,20.07,13a9.37,9.37,0,0,1,1.62-.41c.56-.09,1.12-.16,1.69-.21s1.15-.07,1.72-.08a8.38,8.38,0,0,1,.87,0,8.65,8.65,0,0,1,.89.11,3.66,3.66,0,0,1,1.56.66,1.47,1.47,0,0,1,.6,1.2l0,.17s0,0,0,0h0v0l0,.07-.12.17a1,1,0,0,1-.14.15,3.51,3.51,0,0,1-.7.42,8.92,8.92,0,0,1-1.62.49l.15-.15a3.28,3.28,0,0,1-.14.83,4,4,0,0,1-.33.8,4.11,4.11,0,0,1-.24.39l-.14.18-.16.18-.36.33a3.58,3.58,0,0,1-.43.29l0,0Z"/><path class="cls-2" d="M1.51,15.88h0a2.42,2.42,0,0,1,.91-1,8.64,8.64,0,0,1,1.44-.8l0,0h0l.27-.21a1.45,1.45,0,0,0,.21-.22,1.67,1.67,0,0,0,.33-.47,1.54,1.54,0,0,0,.11-1,3,3,0,0,0-1.36-1.56,7.24,7.24,0,0,1,2.09,1.09,1.91,1.91,0,0,1,.62.83,1.2,1.2,0,0,1-.08.89l-.14.27.43,0a22.37,22.37,0,0,1,3.75,0A15.8,15.8,0,0,1,12,13.9a9.33,9.33,0,0,1,1.67.54,1.78,1.78,0,0,1,1.05,1,1.16,1.16,0,0,1-.48,1.17,4.38,4.38,0,0,1-1.47.78,9.68,9.68,0,0,1-1.79.4,19.68,19.68,0,0,1-3.76.12c-.63,0-1.27-.09-1.88-.16a14.85,14.85,0,0,1-1.81-.3,5.26,5.26,0,0,1-1.54-.58c-.4-.26-.58-.6-.43-1m-.06,1.31a5.72,5.72,0,0,0,1.81.67,16.06,16.06,0,0,0,1.93.29c.66.06,1.29.11,1.94.12A18.58,18.58,0,0,0,11,18a11.87,11.87,0,0,0,1.82-.49,4.85,4.85,0,0,0,1.52-.84,1.36,1.36,0,0,0,.56-1.28,2,2,0,0,0-1.07-1.15,10.49,10.49,0,0,0-3.64-1,18.18,18.18,0,0,0-1.95-.09c-.53,0-1,0-1.57.07a1.29,1.29,0,0,0-.06-.82,2.23,2.23,0,0,0-.8-.91,5.61,5.61,0,0,0-1.19-.63,10.19,10.19,0,0,0-1.36-.41l-.11,0,.07.06a5.07,5.07,0,0,1,.81.79,1.94,1.94,0,0,1,.4.88,1.29,1.29,0,0,1-.19.89,2.79,2.79,0,0,1-.31.39l-.2.18c-.07.05-.14.11-.21.15a10,10,0,0,0-1.56.8A2.89,2.89,0,0,0,.83,15.76a1,1,0,0,0,0,.78A1.65,1.65,0,0,0,1.45,17.19Z"/></svg>