<svg id="Capa_1" data-name="Capa 1" xmlns="http://www.w3.org/2000/svg" viewBox="0 0 30.98 28.82"><defs><style>.cls-1{fill:#f5a4c7;}.cls-2{fill:#fbc1b1;}.cls-3{fill:#fbc0ac;}.cls-4{fill:#231f20;}</style></defs><title>3-2meses</title><path class="cls-1" d="M13.4,22.75s-1.77-.57-2.17-.33-.92,1.69-.92,1.69-.73,2.36-.28,2.62a6.77,6.77,0,0,0,3.67,0c.88-.41,1-.87.83-1.23s-1.13-2.75-1.13-2.75"/><path class="cls-2" d="M11.24,22.64s-1.77-.3-2.45-.37-1.64.85-1.66.88a6.48,6.48,0,0,1-1.4,1.32,5.14,5.14,0,0,1-.92.18s-.94-.29-1.09-.31-.47.47,0,.52a1.86,1.86,0,0,1,.74.3,8.15,8.15,0,0,0,.9.26,8.13,8.13,0,0,1,1,.46,1.12,1.12,0,0,1-.85.35C4.93,26.23,4.18,26,4,26s-.32.25-.13.39.28.21.22.35.88.61,1.18.74a1.9,1.9,0,0,0,.73.11c.12,0,1.6.11,1.65-.12s0-.5.2-.64a3.14,3.14,0,0,0,.76-.58c.2-.26.42-.58.42-.58a6.54,6.54,0,0,0,1.32.72c.37.08,1.71.26,2.14-.25a1.72,1.72,0,0,0,.23-1.75,1.46,1.46,0,0,0-1.09-.73,7.79,7.79,0,0,1-1.05-.19,1,1,0,0,1,.62-.86"/><path class="cls-2" d="M12.31,22.31s.54.94.63,1.06.55,1.22.71,1.58.26,1.05.6,1.18a1.47,1.47,0,0,0,.83-.07l1.39-.12s1,1,1.66,1a3.31,3.31,0,0,0,1.56-.91c.07-.09.7-1.19,1.09-1.16a7.53,7.53,0,0,0,1.69,0c.08-.1,1.14-1.32,1.14-1.7s0-1.84-.5-2.15a4.61,4.61,0,0,0-2.1-.44,5.18,5.18,0,0,0-1.13.56c-.26.15-1.89.17-2.05.31a1,1,0,0,0-.24.38,1.59,1.59,0,0,1-.18-.76c.06-.3,1.26-.51,1.3-.86s-.22-.63-.29-.82S18.11,19,18,19l-.48,0a2.51,2.51,0,0,0-.44.16c-.17.09-.57,0-.61.11s-.15.49-.17.51-.73,1.72-.85,1.91l-.3.43a6.62,6.62,0,0,0-1.64-.26,2.93,2.93,0,0,0-1.17.39"/><path class="cls-3" d="M12.68,10.26c.48.72,2,2.51,2,2.64a4.31,4.31,0,0,1-1.48,1.35c-.71.39-1.42.36-1.8,1.15s-.24,1.38-.4,1.5a.66.66,0,0,1-.7.15,6.6,6.6,0,0,1-.85-.36L9,16.91h-.2s0,.22-.52.3-.55.25-.64.42-.63.1-.86.1a3.48,3.48,0,0,1-1.22-.92c-.33-.36-.76-.8-.76-.8s-.32,0-.25.07a1.79,1.79,0,0,1,.19.54,1.05,1.05,0,0,1-.4.89,10.11,10.11,0,0,1-1,.7l-.58.29S2,17.77,2,17.75s-1.53-2-1.53-2l-.14-.24V12.92s2,.59,2.31.38,1.34-.75,1.59-1.24,1-2.25,4-2.61a6.26,6.26,0,0,1,4.48.81"/><path class="cls-4" d="M4.45,14.6h0a.9.9,0,0,1,.42-.6l.39-.24H4.7a.46.46,0,0,1-.23-.06.3.3,0,0,1-.13-.16.87.87,0,0,1,0-.48c0-.1.05-.17.09-.26s.08-.18.12-.26a2,2,0,0,1,.31-.47,1.41,1.41,0,0,1,.48-.36.74.74,0,0,1,.23,0,.72.72,0,0,1,.21.12.61.61,0,0,1,.09.2.84.84,0,0,1,0,.27,2.72,2.72,0,0,1,0,.57h0a3.2,3.2,0,0,1-.2.43l.67.47A2.88,2.88,0,0,1,6.83,13c.32-.39.77-.19,2.16-.28s.89-.51.89-.51a6.39,6.39,0,0,1,3,.63H10.24l3.22.5-1.27.11c.47.18.88.33,1.26.44h0a2.65,2.65,0,0,1-.39.26,4.12,4.12,0,0,1-.47.22,4.12,4.12,0,0,0-.52.24l-.23.15a1.12,1.12,0,0,0-.2.17,1.85,1.85,0,0,0-.32.37,1.77,1.77,0,0,0-.21.41,3.75,3.75,0,0,0-.23.82.63.63,0,0,1-.14.32h0l-.05,0s0,0,0,0a.3.3,0,0,1-.15,0,3.18,3.18,0,0,1-.82-.46l-.3-.22-.14.26a.89.89,0,0,1-.24.29s0,0,0,0-.05,0-.06,0l-.25-.07a1.65,1.65,0,0,1-.46-.23A.56.56,0,0,1,8,16.13h0a.48.48,0,0,0,.12.44,1.54,1.54,0,0,0,.45.33l.2.09c0,.1-.16.13-.32.13a1.43,1.43,0,0,0-.58.16.65.65,0,0,0-.21.19.3.3,0,0,0-.06.11h0l0,0s0,0,0,0a1.06,1.06,0,0,1-.38,0,1.93,1.93,0,0,1-.85-.32A2,2,0,0,1,6,17l-.31-.32c-.21-.22-.45-.43-.64-.64a3.33,3.33,0,0,1-.44-.71,1.37,1.37,0,0,1-.11-.74m.15,3a1.5,1.5,0,0,0,.32-.35.74.74,0,0,0,.1-.22.52.52,0,0,0,0-.21,1,1,0,0,0-.06-.2c0-.07,0-.13-.07-.19a1.74,1.74,0,0,0-.11-.18l-.08-.09h0l.16,0,.47.66.24.35a1.69,1.69,0,0,0,.35.36,2.27,2.27,0,0,0,1.12.38h.34a.73.73,0,0,0,.37-.11.29.29,0,0,0,.08-.08v0h0v0h0l0-.07a.31.31,0,0,1,.1-.13,1.09,1.09,0,0,1,.42-.18.73.73,0,0,0,.28-.1A.12.12,0,0,0,8.77,17h0a.9.9,0,0,0,.23,0A.71.71,0,0,0,9.28,17a1.25,1.25,0,0,0,.24-.18,2.48,2.48,0,0,0,.78.41,1.57,1.57,0,0,0,.45,0,1,1,0,0,0,.26-.09l.06,0,0,0h0l0,0h0a.78.78,0,0,0,.17-.47c0-.29,0-.56,0-.83a1.23,1.23,0,0,1,.38-.75,1.36,1.36,0,0,1,.42-.26,3,3,0,0,1,.53-.16,3.68,3.68,0,0,0,.59-.18,1.9,1.9,0,0,0,.5-.3l.09-.09c1.86.48,2.35,0,2.51-.67.19-.82-1-3.63-2-4.63a4,4,0,0,0-3.19-1C10.12,7.73,10,8,10,8l.08-.47L9.58,8,9,7.35,9.33,8a1.65,1.65,0,0,0-.81-.28,8.47,8.47,0,0,0-4.2,1c-.79.55-.88,2.27-1.11,3a1.51,1.51,0,0,1-.63.89l.1.42,0,0a1.55,1.55,0,0,1-.6.18,3.53,3.53,0,0,1-1-.07A6.51,6.51,0,0,1,.46,13l-.22-.08,0,0a3.71,3.71,0,0,0,.82.35,3.35,3.35,0,0,0,1.11.16,2.09,2.09,0,0,0,.72-.14h0l.14.22.57-.06-.38.31.69-.07a.7.7,0,0,0,.29.27l.17.06a.66.66,0,0,0-.12.17.9.9,0,0,0-.08.42,1.86,1.86,0,0,0,.24.79c.08.15.17.3.26.44l-.3.13a3.46,3.46,0,0,0-.74.41,1.67,1.67,0,0,0-.53.54.47.47,0,0,0-.07.28.56.56,0,0,1,.15-.26,1.77,1.77,0,0,1,.61-.43,4.66,4.66,0,0,1,.78-.28h.05a.36.36,0,0,1,0,.1c0,.06,0,.12,0,.18v.36A.34.34,0,0,1,4.6,17a.7.7,0,0,1-.08.14,1.66,1.66,0,0,1-.13.14l-.14.14-.31.3c-.11.09-.23.19-.36.28a3.66,3.66,0,0,1-.79.4c-.24-.21-.44-.45-.65-.67s-.44-.49-.65-.74-.21-.24-.31-.37-.2-.24-.29-.37S.69,16,.6,15.86l-.27-.39h0a2.22,2.22,0,0,0,.07.45,1.76,1.76,0,0,0,.15.44,4.23,4.23,0,0,0,.22.42c.1.14.19.27.3.4a5.77,5.77,0,0,0,.75.73,6.25,6.25,0,0,0,.92.64l.07,0,.06,0c.29-.16.58-.31.89-.46A4.47,4.47,0,0,0,4.6,17.62Z"/><path class="cls-4" d="M10.58,14.61c-.24-.11-1.13-.36-1.13-.36l.67.38s-.53.3-.09.44a.36.36,0,0,0,.51-.26l.12.14.1-.08s.07-.15-.18-.26"/><path class="cls-4" d="M11.68,13.79a1.21,1.21,0,0,1,.68.51s.9-1.39-4-.67a19.81,19.81,0,0,1,3.32.16"/><path class="cls-4" d="M18.6,25.21Zm1.23.14h0a1.72,1.72,0,0,0-.33.26,1.48,1.48,0,0,0-.25.3,2.73,2.73,0,0,1-.13.29,2.33,2.33,0,0,1-.17.26.88.88,0,0,1-.91.42l-.11,0-.08,0a.75.75,0,0,1-.18-.08,1.36,1.36,0,0,1-.32-.21,2,2,0,0,1-.26-.24c-.17-.16-.34-.33-.53-.48a14.56,14.56,0,0,0-1.2-.92l0,0a3.91,3.91,0,0,0,.79,1,5.91,5.91,0,0,0-.84,0c-.17,0-.36.06-.49.07a1,1,0,0,1-.38,0c-.09,0-.12-.05-.15-.14l-.11-.33c-.09-.22-.2-.44-.31-.66s-.22-.43-.32-.65l-.28-.66c0-.11-.1-.22-.16-.33a2.3,2.3,0,0,0-.21-.33l-.22-.3-.09-.15v0l.14-.05.24-.08a3.07,3.07,0,0,1,.53-.07,3.49,3.49,0,0,1,.56,0,5.51,5.51,0,0,1,.57.06c.4.05.79.12,1.19.18s.78.14,1.18.23l0,0a7.46,7.46,0,0,0-1.09-.42l-.58-.16c.08-.09.22-.26.39-.48a6.38,6.38,0,0,0,.5-.58,1.46,1.46,0,0,0,.3-.81.8.8,0,0,1,.05-.34c.05-.11.1-.22.16-.33l0,0s0,0,0,0l0,0,.08,0c.07,0,.14,0,.17.09a.5.5,0,0,1,0,.24c0,.07-.05.14,0,.14s-.08-.07-.1-.09l0,0v0s0,.08.08.15.11,0,.13,0l.06-.05a.75.75,0,0,0,.07-.12.53.53,0,0,0,.07-.3c0-.08-.08-.19-.23-.26l.24,0h0v0l0,0a.41.41,0,0,1,.05.09.79.79,0,0,1,.08.16s0,0,0,0v0h0a0,0,0,0,1,0,0s-.09.05-.14.06l-.09,0a.16.16,0,0,0,.06.05.59.59,0,0,0,.13.05.19.19,0,0,0,0,.14.3.3,0,0,0,.25.16.66.66,0,0,0,.19,0H18a.85.85,0,0,1-.21-.06c-.06,0-.1-.07-.09-.11s.07-.08.15-.11a.7.7,0,0,1,.29,0,.49.49,0,0,1,.25.12.19.19,0,0,1,.07.19.67.67,0,0,1-.19.22,1.48,1.48,0,0,1-.32.21l-.18.08s-.08,0,0,0h0s0,0,0,0h-.05a.19.19,0,0,0-.1,0l0,0c-.08.06-.06.07-.08.09a1.28,1.28,0,0,0-.06.35,2.8,2.8,0,0,0,0,.29,3.52,3.52,0,0,0,0,.43.91.91,0,0,0-.13.26.68.68,0,0,0-.05.23.88.88,0,0,0,0,.23,1.3,1.3,0,0,0,.1.41,2,2,0,0,0,.4.6,2.32,2.32,0,0,0,.5.41.34.34,0,0,0-.08.14.49.49,0,0,0,.05.25h0a.33.33,0,0,0-.19,0,.32.32,0,0,0-.2.06.32.32,0,0,1,.06.11.46.46,0,0,0,.05.14.7.7,0,0,0,.18.12h0a.42.42,0,0,0-.06.21.35.35,0,0,0,0,.17h0L18,25.2l-.21.18a.5.5,0,0,0-.17.44h.05a.7.7,0,0,1,.31-.33,1.69,1.69,0,0,1,.27-.13v0l0,0a.44.44,0,0,0,.18,0,.24.24,0,0,0,.15-.09.1.1,0,0,0,0-.06v-.08l0-.07a.34.34,0,0,1,0-.1.11.11,0,0,1,0-.08.23.23,0,0,1,.08-.13l.08-.06.05,0,.05,0h0a.23.23,0,0,0,.11-.11.2.2,0,0,0,.11,0c.1,0,.19-.05.2-.12l0-.46V24a.36.36,0,0,1,0-.09c0-.06.08-.09.14-.07a.3.3,0,0,1,.11.06.59.59,0,0,1,0,.08.5.5,0,0,1,0,.21h0a3.69,3.69,0,0,0-.17.42h0c0,.05,0,.11.08.14a.21.21,0,0,0,.22-.06l0,0c.1-.15.22-.31.31-.46l.08-.12,0,0a.54.54,0,0,1,.05.11.51.51,0,0,1,0,.22,2.33,2.33,0,0,1-.1.5h0a1.18,1.18,0,0,0,.34-.46.93.93,0,0,1,0,.13,1.37,1.37,0,0,1,0,.19.08.08,0,0,1,0,.07l0,0a1.34,1.34,0,0,1-.33.24Zm-6,1.19h0a5.83,5.83,0,0,1-1.74.34,3.85,3.85,0,0,1-.48,0h-.23l-.24,0-.42-.07-.36-.11a.78.78,0,0,1-.38-.26,1.57,1.57,0,0,0,.28.1,4.49,4.49,0,0,0,.64.1,2.55,2.55,0,0,0,1.24-.17,1,1,0,0,0,.25-.14l.2-.17a2.31,2.31,0,0,0,.14-.19l.1-.2a1.94,1.94,0,0,0,0-1.3,1.14,1.14,0,0,0-.49-.59,3.41,3.41,0,0,0-.88-.31c-.25-.06-.5-.1-.76-.14l.09-.16c0-.07.1-.16.17-.25l.11-.12a.63.63,0,0,1,.12-.11,1.53,1.53,0,0,1,.65-.28l.16,0a.64.64,0,0,0,0,.07l.06.1c0,.06.09.11.13.16l.28.29a2.34,2.34,0,0,1,.27.28,3.3,3.3,0,0,1,.22.3A3.67,3.67,0,0,1,13.51,25c.05.23.09.45.15.68a2.13,2.13,0,0,0,.11.33.41.41,0,0,0,.15.22.7.7,0,0,0,.32.13h0A2.2,2.2,0,0,1,13.81,26.54ZM9.17,25.45h0A.23.23,0,0,0,9,25.39a.25.25,0,0,0-.27.11h0l-.12.34,0,.09a.16.16,0,0,1,0,.06l-.1.12a3.25,3.25,0,0,1-.68.47h0a.22.22,0,0,0-.09.07c0,.08-.06.13-.08.19a1.21,1.21,0,0,0,0,.18l0,.19a.19.19,0,0,1,0,.1s0,.05-.18.07a3.22,3.22,0,0,1-.43,0c-.35,0-.69,0-1,0H5.57a.2.2,0,0,1,0-.07h0a.18.18,0,0,0-.13-.15h0a.09.09,0,0,0,0-.11.28.28,0,0,0-.3-.06h0l-.24.1h0l0,0h0l0,0h.05c.08,0,.12-.11.08-.17a.24.24,0,0,0-.25-.08h0l-.11,0h-.1a.09.09,0,0,1-.06,0,.19.19,0,0,1-.07-.08,0,0,0,0,1,0,0h.34a.15.15,0,0,0,.16-.07c0-.05,0-.11-.1-.12h0a1.43,1.43,0,0,0-.42,0H4.23c-.12,0-.2,0-.22-.12a.28.28,0,0,1,.07-.25.42.42,0,0,1,.15,0l.22,0,.44.08a1.85,1.85,0,0,0,.48.08A1.15,1.15,0,0,0,6.26,26c.14-.21.24-.4.36-.61L7,24.81a5.56,5.56,0,0,1,.42-.57,2.63,2.63,0,0,1,.5-.5c.1-.12.44-.14.73-.15s.6,0,.91,0a15.94,15.94,0,0,1,1.83.16,3.17,3.17,0,0,1,.82.22,1.17,1.17,0,0,1,.51.5,1.58,1.58,0,0,1,0,1.26,1.25,1.25,0,0,1-.25.38,1.39,1.39,0,0,1-.19.15,1.46,1.46,0,0,1-.25.13,2.38,2.38,0,0,1-1.16.08,3.16,3.16,0,0,1-.55-.13.88.88,0,0,1-.24-.11L9.9,26.1A5.06,5.06,0,0,1,9.17,25.45Zm-3.3.12h0a2.69,2.69,0,0,0-.55-.24,5.1,5.1,0,0,1-.69-.22A.22.22,0,0,1,4.54,25a.6.6,0,0,0-.14-.18.61.61,0,0,0-.25-.08H4l-.09,0a.26.26,0,0,1-.13-.2s0,0,0,0,0,0,0,0l0,0h0l0,0a.14.14,0,0,1,.07,0l.53.17a1.22,1.22,0,0,0,.63,0l.27-.07h.3a1.47,1.47,0,0,0,.55-.24,4.74,4.74,0,0,0,.8-.63A8,8,0,0,0,7.61,23a1.93,1.93,0,0,1,.59-.49A1.74,1.74,0,0,1,9,22.4c.26,0,.54,0,.78.06l.62.06.4.05a.8.8,0,0,0-.22.32.65.65,0,0,0,0,.33.53.53,0,0,0,.05.15c-.33,0-.65-.07-1-.09a8,8,0,0,0-1,0,1.66,1.66,0,0,0-1,.26,2.53,2.53,0,0,0-.52.59c-.13.2-.25.4-.36.61s-.21.41-.3.62l-.21.41Zm6.55-3.07h0a.38.38,0,0,1-.17.05Zm4.92-3.32h.05S17.39,19.2,17.34,19.18Zm.53-.15h0s0,0,0,0,0,.05.06.07.11.1.11.12a.05.05,0,0,1,0,0s0,.06,0,.06,0,0,0,0,0,0-.05,0H18a.46.46,0,0,0-.06-.22l-.1-.12,0,0S17.86,19,17.87,19Zm.56.49Zm-.57,1.32h0S17.87,20.82,17.86,20.84Zm.77,3.31h0s-.05,0,0,0Zm0,0Zm0,0Zm-1-1.82h0a1.05,1.05,0,0,1,.06-.21c.09-.26.36-.41.84-.47a4.1,4.1,0,0,0,.79-.16,6,6,0,0,0,.62-.24c.57.09.38.54.38.54a.57.57,0,0,0,0-.48.23.23,0,0,0-.23-.14,2.73,2.73,0,0,1,.54-.37l.7,0-.83.22.8-.09-.48.16,1.22,0-.75.31h.51l-.65.2,1.79.09a2.18,2.18,0,0,0-.74.29l1,0c.06,0-.69.24-.69.24l.74-.06-.76.21a1.51,1.51,0,0,0,1,.35,5.2,5.2,0,0,0-.92.11l.65,0s-.64,0-.88.36-.13.62-.13.62l.3-.44s0,.5-.18.58a8.94,8.94,0,0,1-.88.2s-.12,0,.26.07.61-.09.74.1-.27.56-.72.45-.76,0-.77-.29-.11-.12-.17-.07,0-.06-.07-.08l-.07,0a.53.53,0,0,0,0-.18,1,1,0,0,0,0-.14.4.4,0,0,0-.07-.15.37.37,0,0,0-.23-.17.43.43,0,0,0-.43.12l-.07.09a.23.23,0,0,0-.07-.11.35.35,0,0,0-.15-.09.36.36,0,0,0-.23,0,.37.37,0,0,0-.15.11.42.42,0,0,0-.08.12l0,.09a.55.55,0,0,0-.11-.1.67.67,0,0,0-.19-.09,1.15,1.15,0,0,0-.26,0H18.4l-.12.06h0l-.08-.09a2.76,2.76,0,0,1-.27-.36,1.82,1.82,0,0,1-.26-.58,1.42,1.42,0,0,1,0-.36A1,1,0,0,1,17.64,22.33Zm6.63-.45a3.22,3.22,0,0,0-.83-.76L23.3,21l-.2-.12a3.46,3.46,0,0,0-1.69-.41,3.29,3.29,0,0,0-.85.18,6.78,6.78,0,0,0-.67.36,4.28,4.28,0,0,1-.71.2,5,5,0,0,1-.72.1,1.94,1.94,0,0,0-.78.22l-.1.07.08-.25.09-.28a2.18,2.18,0,0,1,.09-.23l.11,0a1.84,1.84,0,0,0,.25-.09,2.09,2.09,0,0,0,.43-.27.84.84,0,0,0,.29-.39.39.39,0,0,0-.12-.35.39.39,0,0,0,.14-.3.68.68,0,0,0,0-.14s0,0,0,0l0-.07a.46.46,0,0,0-.27-.2.6.6,0,0,0-.22,0l-.15-.08-.18-.06a.49.49,0,0,0-.27,0,.3.3,0,0,0-.13.11l0,0a.41.41,0,0,0-.35,0,.31.31,0,0,0-.14.09.34.34,0,0,0-.12.18.86.86,0,0,0-.17,0,.75.75,0,0,0-.37.09.45.45,0,0,0-.14.1l0,.05,0,0a1.72,1.72,0,0,0-.22.37,1,1,0,0,0-.09.44,1.53,1.53,0,0,1-.21.68c-.1.22-.26.42-.34.62a2.55,2.55,0,0,0-.19.55L14.66,22a4.36,4.36,0,0,0-1.31-.1,2.94,2.94,0,0,0-.66.11,2.85,2.85,0,0,0-.31.12,1,1,0,0,0-.29.16h0a.1.1,0,0,0-.05,0,.65.65,0,0,0-.21,0,1.85,1.85,0,0,0-.24,0l-.27,0a1.43,1.43,0,0,0-.27.09,1.16,1.16,0,0,0-.22.13l-.4-.13-.61-.15A5.14,5.14,0,0,0,9,22.1a2.12,2.12,0,0,0-1.09.13,1.84,1.84,0,0,0-.77.64,8,8,0,0,1-.54.68,6.48,6.48,0,0,1-.62.67,1.29,1.29,0,0,1-.39.25s-.2,0-.3,0L5,24.56a1.26,1.26,0,0,1-1-.24.42.42,0,0,0-.18-.06.44.44,0,0,0-.24,0l-.06,0,0,0a.45.45,0,0,0-.07.07.34.34,0,0,0-.06.12.43.43,0,0,0,.21.46.8.8,0,0,0,.38.1h.08l.07.09a.73.73,0,0,0,.23.16,4.36,4.36,0,0,0,.82.2,3.77,3.77,0,0,1,.56.15l.43.12a.61.61,0,0,1-.07.14,1,1,0,0,1-.74.23c-.28,0-.58-.13-.89-.17l-.24,0a.6.6,0,0,0-.31,0,.4.4,0,0,0-.16.37.28.28,0,0,0,.14.19l.09,0a.18.18,0,0,0,0,.1.32.32,0,0,0,0,.09.48.48,0,0,0,.31.26.19.19,0,0,0,.07.14l.08.06,0,0h0l.08,0h0a.11.11,0,0,0,0,.07.26.26,0,0,0,.09.09l.09.05.07,0,.1,0a.42.42,0,0,0,.14.09l.09,0h.64c.33,0,.65,0,1,0a3.43,3.43,0,0,0,.56,0,1.11,1.11,0,0,0,.34-.08A.53.53,0,0,0,8,27.47a.65.65,0,0,0,.07-.23.77.77,0,0,1,0-.15.83.83,0,0,1,0-.15.3.3,0,0,1,0-.1l.34-.22a2.12,2.12,0,0,0,.36-.3,1,1,0,0,0,.15-.2l0-.11,0-.09v0a3.24,3.24,0,0,0,.56.38l.16.08v.06a.63.63,0,0,0,.32.42,2.56,2.56,0,0,0,.85.32l.26.05.28,0h.56a4.43,4.43,0,0,0,1.07-.18,3,3,0,0,0,.8-.34,1.46,1.46,0,0,0,.26-.19l.16-.17s0,0,0,0a1.88,1.88,0,0,0,.43,0l.46-.12c.27-.06.55-.11.83-.15l0,0a5.28,5.28,0,0,0,1.37.84l.21.08.11,0L18,27a1.59,1.59,0,0,0,.49,0,1.54,1.54,0,0,0,.82-.39,2.17,2.17,0,0,0,.24-.29c.07-.1.12-.2.18-.28a2.48,2.48,0,0,1,.47-.43,3.07,3.07,0,0,0,.43-.26l.11-.09a3.39,3.39,0,0,0,.52.09A4,4,0,0,0,23.35,25a2.73,2.73,0,0,0,1-.79,1.79,1.79,0,0,0,.36-1.13A2.17,2.17,0,0,0,24.27,21.88Z"/><path class="cls-4" d="M21.6,22.5a2.15,2.15,0,0,1,0,.65s.61-1.23-.66-1c0,0,.6,0,.65.35"/><path class="cls-4" d="M20.8,22.52c-.14,0-.2.18,0,.29a.25.25,0,0,0,.32,0,.64.64,0,0,1,0,.28.42.42,0,0,0-.14-.61.3.3,0,0,0-.39.05c.14,0,.17,0,.17,0"/><path class="cls-4" d="M19.89,21.48c-.12,0-.15.11-.11.18s.21-.06.21-.06-.1.19-.1.19.32-.2.17-.37a.21.21,0,0,0-.31,0c.15,0,.14.06.14.06"/><path class="cls-4" d="M19.82,22.12a1.76,1.76,0,0,0-.6-.06c-.16.05-.17.28-.17.28.16-.3.77-.22.77-.22"/><path class="cls-4" d="M19.24,23.16c-.24-.12-.62-.95-.62-.95,0,.3-.71.37-.31.75a1,1,0,0,0,.93.2"/><path class="cls-4" d="M18.09,23c.16-.07-.06-.26-.06-.26-.08.24-.1.33.06.26"/><path class="cls-4" d="M13,2.83a1.49,1.49,0,0,0,.5.09c.36,0,.57-.16.57-.4s-.18-.35-.45-.49S13,1.68,13,1.37s.36-.62.91-.62a1.33,1.33,0,0,1,.49.09l-.1.23A1,1,0,0,0,13.86,1c-.34,0-.5.18-.5.34s.18.32.51.49.6.41.6.68-.42.66-1,.66a1.51,1.51,0,0,1-.58-.1Z"/><path class="cls-4" d="M15.17,2.29h0c0,.28.07.66.43.66s.4-.4.4-.66-.06-.66-.41-.66-.42.4-.42.66m1.23,0a.79.79,0,0,1-.82.88.78.78,0,0,1-.81-.88.8.8,0,0,1,.83-.88A.78.78,0,0,1,16.4,2.29Z"/><path class="cls-4" d="M16.79,1.88c0-.2,0-.3,0-.44h.34l0,.2h0a.74.74,0,0,1,.57-.23.54.54,0,0,1,.6.59V3.14h-.39V2c0-.2-.06-.4-.35-.4a.38.38,0,0,0-.37.28.61.61,0,0,0,0,.15V3.14h-.39Z"/><path class="cls-4" d="M18.81,1.88c0-.14,0-.31,0-.44h.36l0,.27h0a.6.6,0,0,1,.52-.3h.08v.27h-.08a.48.48,0,0,0-.48.35.81.81,0,0,0,0,.16v.94h-.39Z"/><path class="cls-4" d="M20,3.14h0V1.44h.39v1.7Zm.8-2.39-.54.47H20l.39-.47Z"/><path class="cls-4" d="M22,2.11h0c0-.34-.18-.49-.37-.49s-.38.26-.4.49Zm-.78.2c0,.52.31.64.59.64a1.08,1.08,0,0,0,.41-.07l.06.2a1.66,1.66,0,0,1-.54.08.8.8,0,0,1-.9-.85.82.82,0,0,1,.84-.9.68.68,0,0,1,.7.75v.15Z"/><path class="cls-4" d="M24.4,2.26h0c-.21,0-.68,0-.68.4A.28.28,0,0,0,24,3a.37.37,0,0,0,.37-.26.31.31,0,0,0,0-.09Zm.05.88,0-.18h0a.61.61,0,0,1-.49.21.53.53,0,0,1-.59-.49c0-.42.5-.61,1.06-.61V2c0-.23-.08-.38-.4-.38a1.07,1.07,0,0,0-.41.08l-.08-.19a1.48,1.48,0,0,1,.58-.11c.49,0,.71.23.71.61v.73a2.42,2.42,0,0,0,0,.39Z"/><path class="cls-4" d="M25.29,1.88c0-.2,0-.3,0-.44h.34l0,.2h0a.74.74,0,0,1,.57-.23.54.54,0,0,1,.6.59V3.14h-.4V2c0-.2-.05-.4-.34-.4a.38.38,0,0,0-.37.28.61.61,0,0,0,0,.15V3.14h-.39Z"/><path class="cls-4" d="M27.76,1v.45h.48v.21h-.48v1c0,.22.12.28.26.28h.16l0,.2a1.21,1.21,0,0,1-.3,0,.69.69,0,0,1-.39-.1.51.51,0,0,1-.14-.43v-1h-.31V1.44h.31V1.07Z"/><path class="cls-4" d="M29.55,2.11h0c0-.34-.18-.49-.37-.49s-.39.26-.41.49Zm-.78.2c0,.52.3.64.59.64a1.12,1.12,0,0,0,.41-.07l.06.2a1.75,1.75,0,0,1-.54.08.8.8,0,0,1-.91-.85.82.82,0,0,1,.84-.9.68.68,0,0,1,.71.75.62.62,0,0,1,0,.15Z"/><path class="cls-4" d="M17.38,6.25a1.08,1.08,0,0,1-.41.07.82.82,0,0,1-.91-.86.89.89,0,0,1,1-.89,1.05,1.05,0,0,1,.35.06l-.08.22a.77.77,0,0,0-.28,0,.59.59,0,0,0-.57.66.56.56,0,0,0,.58.63.88.88,0,0,0,.29,0Z"/><path class="cls-4" d="M19.17,5.83c0,.19,0,.34,0,.47h-.34l0-.18h0a.73.73,0,0,1-.53.2c-.44,0-.6-.23-.6-.65V4.6h.39v1c0,.27.06.47.33.47a.36.36,0,0,0,.36-.23.68.68,0,0,0,0-.15V4.6h.39Z"/><path class="cls-4" d="M20.59,5.42h0c-.2,0-.68,0-.68.39a.29.29,0,0,0,.3.3.34.34,0,0,0,.37-.25.34.34,0,0,0,0-.1Zm.06.88,0-.18h0a.62.62,0,0,1-.49.2c-.34,0-.59-.19-.59-.48s.49-.61,1-.62v0c0-.23-.08-.39-.39-.39a1,1,0,0,0-.41.09l-.09-.19a1.48,1.48,0,0,1,.58-.11c.5,0,.71.22.71.61v.73a1.63,1.63,0,0,0,0,.39Z"/><rect class="cls-4" x="21.48" y="3.87" width="0.39" height="2.43"/><path class="cls-4" d="M23.51,5.23h0a.41.41,0,0,0,0-.11.37.37,0,0,0-.36-.32c-.32,0-.44.3-.44.65s.13.65.43.65a.37.37,0,0,0,.36-.28.39.39,0,0,0,0-.15Zm0,.89h0a.55.55,0,0,1-.47.2c-.4,0-.72-.29-.72-.85a.8.8,0,0,1,.78-.9.54.54,0,0,1,.46.22h0l0-.2h.35c0,.12,0,.27,0,.53V7h-.39Z"/><path class="cls-4" d="M25.88,5.83c0,.19,0,.34,0,.47h-.34l0-.18h0a.78.78,0,0,1-.54.2c-.43,0-.6-.23-.6-.65V4.6h.39v1c0,.27.06.47.34.47a.34.34,0,0,0,.35-.23.68.68,0,0,0,0-.15V4.6h.39Z"/><path class="cls-4" d="M26.39,6.3h0V4.6h.39V6.3Zm.42-2.14c0,.1-.09.17-.24.17s-.23-.07-.23-.17A.21.21,0,0,1,26.57,4C26.72,4,26.81,4.05,26.81,4.16Z"/><path class="cls-4" d="M28.33,5.27h0c0-.34-.18-.49-.37-.49s-.39.26-.4.49Zm-.78.2c0,.52.3.63.59.63A1.15,1.15,0,0,0,28.55,6l.06.2a1.75,1.75,0,0,1-.54.08.8.8,0,0,1-.9-.86A.8.8,0,0,1,28,4.57a.68.68,0,0,1,.71.75.66.66,0,0,1,0,.15Z"/><path class="cls-4" d="M29.08,5c0-.15,0-.32,0-.44h.36l0,.27h0a.58.58,0,0,1,.52-.3H30v.28H30a.46.46,0,0,0-.47.35.78.78,0,0,0,0,.16V6.3h-.39Z"/><path class="cls-4" d="M21.5,8.19c0-.14,0-.31,0-.43h.36l0,.26h0a.59.59,0,0,1,.52-.29h.08V8h-.08a.47.47,0,0,0-.48.36.71.71,0,0,0,0,.15v.94h-.4Z"/><path class="cls-4" d="M22.94,8.6h0c0,.29.07.67.43.67s.41-.4.41-.67-.07-.66-.42-.66-.42.41-.42.66m1.24,0a.8.8,0,0,1-.83.88.78.78,0,0,1-.8-.87.8.8,0,0,1,.83-.88A.78.78,0,0,1,24.18,8.6Z"/><path class="cls-4" d="M24.5,9.17a1,1,0,0,0,.39.09c.23,0,.37-.09.37-.24s-.07-.22-.32-.34-.49-.29-.49-.48.29-.47.68-.47a1,1,0,0,1,.44.09l-.11.2a.79.79,0,0,0-.32-.08c-.22,0-.33.11-.33.22s.07.18.31.29.51.28.51.52-.34.51-.74.51a1.15,1.15,0,0,1-.49-.1Z"/><path class="cls-4" d="M26.47,7.31v.45H27V8h-.48V9c0,.22.12.28.26.28h.16l0,.21a2,2,0,0,1-.3,0,.57.57,0,0,1-.38-.11c-.1-.07-.15-.19-.15-.43V8h-.3v-.2h.3V7.38Z"/><path class="cls-4" d="M27.24,8.19c0-.14,0-.31,0-.43h.35l0,.26h0a.61.61,0,0,1,.53-.29h.08V8h-.08a.46.46,0,0,0-.48.36.68.68,0,0,0,0,.15v.94h-.39Z"/><path class="cls-4" d="M28.68,8.6h0c0,.29.07.67.43.67s.4-.4.4-.67-.06-.66-.41-.66-.42.41-.42.66m1.23,0a.79.79,0,0,1-.82.88.78.78,0,0,1-.81-.87.8.8,0,0,1,.83-.88A.78.78,0,0,1,29.91,8.6Z"/></svg>