<svg id="Capa_1" data-name="Capa 1" xmlns="http://www.w3.org/2000/svg" viewBox="0 0 30.71 26.64"><defs><style>.cls-1{fill:#f8992f;}.cls-2{fill:#fbc3b3;}.cls-3{fill:#231f20;}</style></defs><title>5-2meses</title><path class="cls-1" d="M16.22,14.26a1.91,1.91,0,0,0-1.84.21c-.68.44-.85,1.41,0,1.78a2.3,2.3,0,0,0,1.69,0l2.85.21a8.77,8.77,0,0,0,2.77-.07c.8-.29.48-.92.48-.92L17,14.89s.12-.33-.73-.63"/><path class="cls-2" d="M4,17.06c-.25,1.87,1.4,3.81,1.4,3.81a29.83,29.83,0,0,1,3.17,1c.56.31.25,1.14.93,1.74S13,26,14.18,26a12.64,12.64,0,0,0,3.14-.6,20.52,20.52,0,0,0,4.7,0c1.48-.35,2.56-.92,2.67-1.83a4.47,4.47,0,0,0-1.53-4,12.2,12.2,0,0,0-1.75-.6c-.36,0-.76,0-.76,0a11.13,11.13,0,0,1-.15-1.32c0-.44-.07-1.54-.07-1.54l.59-.67.16-.25a4.3,4.3,0,0,0,1.17.33,8.71,8.71,0,0,0,.88-.06l.66-.42s-.56,1.06-1.05,1.22-1.65.49-1.75.77.47.44.47.44h.69s-.42.31-.13.4a10.06,10.06,0,0,0,1.72,0,.76.76,0,0,1,.22.23c.09.14,3,.3,4.09-1.5a12.24,12.24,0,0,1,1.49-2.21l.92-.74V10l-4.7,3.47a2.26,2.26,0,0,0-1.4-.06,16.67,16.67,0,0,1-1.7,1.18,3.78,3.78,0,0,1-1.49.33,1.63,1.63,0,0,1-.66-.19s-.49-.08-.66.1a.39.39,0,0,0-.3-.39.72.72,0,0,0-.59.23s-.13-.28-.38-.22a.62.62,0,0,0-.37.28s-.3-.23-.51-.19-.45.54-.43.8,0,.34,0,.34-.83.23-.8.5.24.76,1.12.91c0,0,.19.93-.12,1.28s0,.94,0,.94L16,19.47a9.91,9.91,0,0,1-2.08.65c-.38-.05-.49,0-.42-.17s1.09-.95,1-1.15-.6-.22-.64-.44a.6.6,0,0,0-.45-.54c-.31-.09.15-.25-.1-.36s-.6-.17-.63-.37,0-.5-.21-.62a4.52,4.52,0,0,0-.77-.19,3.42,3.42,0,0,1-1.55-1.46,2.78,2.78,0,0,0-2.1-1.13c-.54,0-3.76,1.08-4.06,3.37"/><path class="cls-3" d="M17,14.56c0-.06.06-.11.16-.12a.19.19,0,0,1,.21.11l0,.1c0,.06-.06.13-.16.14s-.2,0-.21-.11l0-.1h0Z"/><path class="cls-3" d="M17.68,14.21h0c0-.07.07-.12.16-.13s.2,0,.21.11v.05c0,.08,0,.14-.15.15s-.2,0-.21-.11l0-.06h0m-.21-.62h0c0-.05,0-.09.11-.11a.23.23,0,0,1,.25.06,1.3,1.3,0,0,1,.14.33c0,.07,0,.13-.14.15s-.2,0-.22-.1a1.55,1.55,0,0,0-.12-.28A.08.08,0,0,1,17.47,13.59Zm-.52.14h0v0a.49.49,0,0,1,.27-.36.24.24,0,0,1,.26,0c.06,0,0,.14-.05.18s-.07,0-.11.19a.2.2,0,0,1-.22.11A.15.15,0,0,1,17,13.73Zm0,.32c0-.07.08-.13.18-.13s.19.05.19.13a2.83,2.83,0,0,0,0,.3c0,.07-.07.13-.17.14s-.2-.05-.2-.12A1.67,1.67,0,0,1,16.92,14.05Z"/><path class="cls-3" d="M17.71,14.36c0-.06.07-.12.17-.12H18c.1,0,.17.07.15.15l0,.1a.16.16,0,0,1-.19.1c-.09,0-.17-.05-.17-.11l0-.1v0"/><path class="cls-3" d="M18.91,14.12h0a2.71,2.71,0,0,0,0-.29c0-.06.07-.13.18-.13s.18.05.19.12a1.69,1.69,0,0,1,0,.32c0,.07-.09.12-.2.12s-.17-.06-.17-.13m-.27-.86h0a.1.1,0,0,1,0-.08.26.26,0,0,1,.26,0,.63.63,0,0,1,.29.33c0,.07,0,.14-.14.16a.2.2,0,0,1-.22-.09.34.34,0,0,0-.15-.19A.11.11,0,0,1,18.64,13.26Zm-.58.33h0a.09.09,0,0,1,0-.05,1.09,1.09,0,0,1,.24-.3.27.27,0,0,1,.26,0,.11.11,0,0,1,0,.18.83.83,0,0,0-.18.24.26.26,0,0,1-.25.07A.14.14,0,0,1,18.06,13.59Zm-.25.58v0l.11-.3a.21.21,0,0,1,.23-.09c.1,0,.16.09.13.16s-.07.2-.1.29a.21.21,0,0,1-.22.1C17.87,14.28,17.81,14.23,17.81,14.17Z"/><path class="cls-3" d="M18.85,14.47v0s0,0,0-.09.1-.12.2-.11h.06c.09,0,.15.1.12.16l0,.1a.21.21,0,0,1-.22.09c-.09,0-.15-.07-.15-.12"/><path class="cls-3" d="M20,14.31h0v-.07c0-.07.1-.12.2-.12s.2.06.17.13a.15.15,0,0,1,0,.07c0,.07-.1.12-.2.11s-.17-.06-.17-.12m0-.7h0a.15.15,0,0,1,.14-.12.22.22,0,0,1,.23.09,1.13,1.13,0,0,1,.05.35c0,.06-.07.12-.18.13S20,14,20,13.93a1.12,1.12,0,0,0,0-.29A0,0,0,0,1,20,13.61Zm-.61,0h0a.11.11,0,0,1,0-.07.67.67,0,0,1,.49-.26c.1,0,.19.05.19.12a.17.17,0,0,1-.18.13s-.06,0-.18.15a.26.26,0,0,1-.26,0C19.39,13.67,19.36,13.63,19.36,13.59Zm-.37.58a.06.06,0,0,1,0,0,3.27,3.27,0,0,1,.17-.31.23.23,0,0,1,.25-.06c.09,0,.13.1.09.16a2.88,2.88,0,0,0-.16.29.22.22,0,0,1-.24.08C19,14.27,19,14.22,19,14.17Z"/><path class="cls-3" d="M20,14.51V14.4a.18.18,0,0,1,.2-.12h.12c.09,0,.12.11.08.18a.35.35,0,0,0-.06.08.21.21,0,0,1-.22.07c-.08,0-.14-.06-.14-.12"/><path class="cls-3" d="M21,13.87h0v0a.19.19,0,0,1,.21-.11h0a.37.37,0,0,1,.35.36l-.19,0h-.18c0-.11-.05-.12-.08-.12s-.15-.07-.15-.13m0,.88h0a.14.14,0,0,1,0-.06,3,3,0,0,0,.15-.26.19.19,0,0,1,.23-.08c.1,0,.15.09.12.16l-.16.29a.23.23,0,0,1-.25.06C21,14.84,21,14.8,21,14.75Zm-.77-.52a.09.09,0,0,1,0-.07,1.62,1.62,0,0,1,.37-.29.27.27,0,0,1,.26,0c.07,0,.05.14,0,.18a1.38,1.38,0,0,0-.29.23.22.22,0,0,1-.25,0A.11.11,0,0,1,20.2,14.23Z"/><path class="cls-3" d="M20.84,14.94a.14.14,0,0,1,0-.06l.06-.09a.24.24,0,0,1,.25-.06c.09,0,.13.11.09.17l-.07.1a.22.22,0,0,1-.25.05c-.07,0-.1-.06-.1-.11"/><path class="cls-3" d="M10.92,16.55s-.21-.45-.53.05a.8.8,0,0,0,0,.93l.07-.39s.25.22.33,0a.59.59,0,0,0-.16-.52.16.16,0,0,1,.25,0"/><path class="cls-3" d="M9.33,17.33s-.3-1.57.86-1.89c0,0-1.4-.51-.86,1.89"/><path class="cls-3" d="M21.33,17.19h0m-.81-.71h0l0-.12a.54.54,0,0,0,.19-.07.94.94,0,0,0,.25-.18,1.23,1.23,0,0,0,.29-.47.52.52,0,0,0,0-.17l.28.13.13.05.16,0,.09,0h0l0,0a.35.35,0,0,1-.07.35l-.15.24,0,0h0s0,0,0,0a1,1,0,0,1-.26,0l-.3,0Zm-1.61,2.39h0c-.52,0-1,.11-1.47.19a3.23,3.23,0,0,0,.72-1.35,1.2,1.2,0,0,0,0-.2v-.09h0v0s0-.05,0-.11a.77.77,0,0,0-.48-.35c-.18-.06-.36-.09-.51-.14a.68.68,0,0,1-.36-.23l0-.07,0-.09a.27.27,0,0,1,.05-.14h0a.47.47,0,0,0,.1-.1A1.1,1.1,0,0,1,17.1,16a2,2,0,0,1,.87-.19,1.18,1.18,0,0,1,.39.06l0,0-.24.12c-.14.05-.29.11-.44.15l0,0c-.11,0-.18.12-.16.2a.29.29,0,0,0,.32.18.74.74,0,0,1,.21,0h.22a1.64,1.64,0,0,1,.41.1.67.67,0,0,1,.31.2.83.83,0,0,1,.11.15l.06.17h0a0,0,0,0,0,0,0,.55.55,0,0,0,0-.38.72.72,0,0,0-.3-.36,1.15,1.15,0,0,0-.27-.14,1,1,0,0,0,.36-.25.25.25,0,0,0,.06-.2l.05.05a.84.84,0,0,0,.38.21.73.73,0,0,0,.22,0l.1,0h.06l0,0h0a.51.51,0,0,0,0,.09s0,.08.08.13l.11.07a1,1,0,0,0,.18,0h.06c0,.22-.08.73-.1,1.24,0,.17,0,.34,0,.5a1.36,1.36,0,0,0,.1.43,1.92,1.92,0,0,0,.15.29A11.86,11.86,0,0,0,18.91,18.87ZM23,19.7h0a3.48,3.48,0,0,1,1.12,1.38,3.31,3.31,0,0,1,.25,1.54A4,4,0,0,1,24,24.1a3.32,3.32,0,0,1-.4.64,2.33,2.33,0,0,1-.71.29,12.63,12.63,0,0,1-1.8.27c-1.16.09-2.14.13-2.83.14l-.64,0,.09-.05a5.27,5.27,0,0,0,1.64-1.86,11.21,11.21,0,0,0,1.08-2v0a2.15,2.15,0,0,0,.29-1.09.69.69,0,0,0-.08-.28.53.53,0,0,0-.23-.24,1.2,1.2,0,0,0-.34-.17.41.41,0,0,0-.22,0l0,0a.94.94,0,0,0-.22-.07,1.46,1.46,0,0,0-.21,0l-.14,0,0,0a.51.51,0,0,0-.22-.07h-.12s0,0,0,0a.54.54,0,0,0-.29-.26l-.06,0-.06,0h0l.59-.07a14,14,0,0,1,2.07-.13A3.58,3.58,0,0,1,23,19.7Zm-8.27,6.08h0a5.83,5.83,0,0,1-1.38-.28c-.22-.08-.43-.16-.63-.25s-.44-.2-.62-.29A16,16,0,0,1,9.84,23.6a1.26,1.26,0,0,1-.53-.85,1.37,1.37,0,0,0-.66-1.09,2.66,2.66,0,0,0-.55-.23,3.43,3.43,0,0,0-.63-.55l1.38.46-.46-.58h.23a1.93,1.93,0,0,0,.43-.08,1.72,1.72,0,0,0,.33-.14l.19-.14.12-.15,0,0-.15.12-.2.11a1.27,1.27,0,0,1-.31.08,2.93,2.93,0,0,1-1.66-.28A1,1,0,0,1,7,20L7,20s0,0,0,0v-.06l0-.06h0v0s0,0,0,0,0,0,0-.08a.39.39,0,0,1,.18-.12,3.47,3.47,0,0,1,.54-.13l.24,0v0l-.12,0a9,9,0,0,0,1.71-.09L8.13,19H9.21a2.43,2.43,0,0,1-1.39-.58,4,4,0,0,0-1-.86s.85.13,1.12.51a1.8,1.8,0,0,0-1.12-1.38L8,17.13,6.41,16l1.41.44L7.37,16l.59.28L6.84,14.94l1.79.78-.81-.9a8,8,0,0,1,1.23.51l-.32-.75.93.36-1.14-.86a4.85,4.85,0,0,1,.92.42,2.41,2.41,0,0,1,.79.83,6.24,6.24,0,0,0,.72,1,.91.91,0,0,0,.44.21,1.91,1.91,0,0,0,.45,0,4.22,4.22,0,0,1,.64.05s0,0,0,.09a.2.2,0,0,1,0,.11l0,.12,0,.13a.42.42,0,0,0,0,.19.29.29,0,0,0,.15.16l.13.05.1,0,.11,0,.21,0h.06l0,.07a5.44,5.44,0,0,1-.22.5.14.14,0,0,0,.09.18.3.3,0,0,0,.32,0,1.43,1.43,0,0,1,.23-.2l.05,0,0,0,0,0a.2.2,0,0,1,0,.09s0,.07,0,.18.16.21.22.23a1.24,1.24,0,0,1,.29.11.2.2,0,0,1,0,.19,1.28,1.28,0,0,1-.14.25,2,2,0,0,1-.18.25,5.86,5.86,0,0,1-1,.92,1.9,1.9,0,0,1-.65.33,5.16,5.16,0,0,1-.8.17s0,0,0,0,0,0,0,0a7.56,7.56,0,0,0,.83-.14,2.63,2.63,0,0,0,.74-.32,5.85,5.85,0,0,0,.48-.34l.15.08a1.37,1.37,0,0,0,.86,0c.33-.11.67-.24,1.13-.35s.95-.21,1.52-.3l.76-.11a.53.53,0,0,0-.23.26,1.77,1.77,0,0,0-.08.25.24.24,0,0,1-.1.14,1.16,1.16,0,0,1-.46.22l-.18,0-.08,0a.42.42,0,0,0-.14.06.34.34,0,0,0-.16.31,1,1,0,0,0,.23.51,1.5,1.5,0,0,0,.45.35,1.31,1.31,0,0,1-.29.47,1.7,1.7,0,0,1-.24.22l-.13.09-.15.09a3.15,3.15,0,0,0-.33.22,3.44,3.44,0,0,0-.27.27,2,2,0,0,0-.18.25h0l-.42-.2a6.25,6.25,0,0,0-.89-.32,6.05,6.05,0,0,0-1-.2,6.45,6.45,0,0,0-1-.06h0s0,0,0,0,.3.07.45.12.3.07.44.12c.29.09.56.19.83.3a6.71,6.71,0,0,1,.77.35l.36.19.33.2h0a.38.38,0,0,0,.17.06.33.33,0,0,0,.37-.19,1.86,1.86,0,0,1,.09-.24,1.49,1.49,0,0,1,.14-.24,1.43,1.43,0,0,1,.2-.23l.1-.1.14-.1.15-.12.13-.14a1.86,1.86,0,0,0,.21-.28,1.45,1.45,0,0,0,.19-.6h0s0,0-.05-.06c-.39-.13-.64-.48-.57-.76a.21.21,0,0,1,.11-.13h0l.09,0a1,1,0,0,0,.18,0,1.52,1.52,0,0,0,.77-.27.55.55,0,0,0,.2-.3c0-.09,0-.17.06-.24a.41.41,0,0,1,.06-.11s0,0,0,0,0,0,.06,0,0,0,0,0h0c.12,0,.23.16.29.3a2,2,0,0,1,.11.48l0,0h0a1.16,1.16,0,0,0,.12-.51.59.59,0,0,0,0-.14h0a.52.52,0,0,1,.17.19,1.88,1.88,0,0,1,.14.24l.08.13a.33.33,0,0,0,.09-.14.37.37,0,0,0,0-.32l-.05-.05.05,0a1.59,1.59,0,0,1,.27.12c.17.08.4.22.41.22A.16.16,0,0,0,20,20a.4.4,0,0,0-.18-.22.23.23,0,0,1,.18,0,1,1,0,0,1,.29.16.48.48,0,0,1,.18.22.69.69,0,0,1,0,.25,2.34,2.34,0,0,1-.37,1v0A12.42,12.42,0,0,1,19,23.43a9.41,9.41,0,0,1-.7.93,4.51,4.51,0,0,1-.93.79A4.13,4.13,0,0,1,14.75,25.78Zm-1.53-8.27Zm.38.5Zm2.06-1.72h-.12a1.47,1.47,0,0,0,0-1.89h.13a2.62,2.62,0,0,1,.62.12,1.25,1.25,0,0,1,.76.51.73.73,0,0,1,.09.29.62.62,0,0,1-.08.3,1,1,0,0,1-.14.17l-.06,0a.6.6,0,0,0-.08.08,1.79,1.79,0,0,1-.48.23A4,4,0,0,1,15.66,16.29Zm-.38,0h0a1.75,1.75,0,0,1-.39,0,1.33,1.33,0,0,1-.71-.35.69.69,0,0,1-.19-.6,1.08,1.08,0,0,1,.34-.53,1.47,1.47,0,0,1,.62-.32l.4-.06.15,1.89h0A1.46,1.46,0,0,1,15.28,16.31Zm2.08-.74h0l-.2.08h0a1.11,1.11,0,0,0,0-.32l0,.07A.84.84,0,0,0,17.36,15.57Zm.29-.66h0a.22.22,0,0,1,.05-.08l0,0,0,0a.52.52,0,0,1,.2-.08h.2l0,.07a1,1,0,0,0-.06.45,1.37,1.37,0,0,0,.05.25h-.2a2.36,2.36,0,0,0-.49.1.75.75,0,0,0,.05-.16A2.84,2.84,0,0,1,17.65,14.91Zm.8,1h0c.05,0,0,0,0,0S18.45,15.93,18.45,15.92Zm-.08-.7h0a2.5,2.5,0,0,1,.18-.37.5.5,0,0,1,.13-.15c.06,0,0,0,.12,0a.39.39,0,0,1,.09.07.64.64,0,0,1,.1.18,1.16,1.16,0,0,1,.09.39.8.8,0,0,1,0,.28.35.35,0,0,1,0,.12s.06,0,.13-.09a.86.86,0,0,0,.2-.29.78.78,0,0,0,.06-.46.58.58,0,0,0-.11-.28l0,0,.08,0a.38.38,0,0,1,.31.05s.07.08.1.13a.84.84,0,0,1,.08.19,1.72,1.72,0,0,1,.09.44.65.65,0,0,1-.1.39.64.64,0,0,1-.13.15c-.06,0-.07,0-.13,0a1.29,1.29,0,0,1-.38-.07l-.12,0a.3.3,0,0,0-.12-.17.88.88,0,0,0-.18-.1l-.16-.05a1.65,1.65,0,0,0-.32-.06A1.78,1.78,0,0,1,18.37,15.22Zm1.82.67h0a.75.75,0,0,0,.21-.55,1.18,1.18,0,0,0-.16-.51s0,0,0-.07h.13a.43.43,0,0,1,.28.11.71.71,0,0,1,.1.14.77.77,0,0,1,.07.17.45.45,0,0,1,0,.19.71.71,0,0,1,0,.2,1.41,1.41,0,0,1-.19.39.64.64,0,0,1-.13.15.44.44,0,0,1-.13.09h-.14s-.09,0-.12-.07L20,16.06A.81.81,0,0,0,20.19,15.89Zm1.4-.72Zm1.82.35h0c.07,0,.13-.08.19-.11l-.06.05A6.52,6.52,0,0,1,23,16a1.72,1.72,0,0,1-.47.22h-.07a.63.63,0,0,0,.1-.27.57.57,0,0,0,0-.18A2.3,2.3,0,0,0,23.41,15.52Zm7.15-1.82a0,0,0,0,0,0,0h0c-.63.36-1.21.75-1.78,1.14l0,0,0,0c-.19.3-.38.61-.55.92a4.16,4.16,0,0,0-.24.47,2.86,2.86,0,0,1-.24.43,4.19,4.19,0,0,1-.8.76c-.15.12-.33.23-.5.34a2.55,2.55,0,0,1-.58.27l-.15,0h-.17l-.36,0a2.87,2.87,0,0,1-.67-.07.41.41,0,0,1-.22-.09s0,0,0,0,0-.08,0-.06.13-.12.33-.17a6.28,6.28,0,0,1,.66-.08,3.87,3.87,0,0,0,.77-.13,1.64,1.64,0,0,0,.86-.87s0,0,0,0a0,0,0,0,0,0,0,5.45,5.45,0,0,1-.47.37,1.77,1.77,0,0,1-.52.25,4.16,4.16,0,0,1-.57.05,1.59,1.59,0,0,0,.13-.13,2.29,2.29,0,0,0,.22-.24,1.06,1.06,0,0,0,.23-.56,4.19,4.19,0,0,1-.52.42l-.27.18-.31.18a3.73,3.73,0,0,1-.73.31,6.17,6.17,0,0,1-.82.21l-.39.06h-.34a.41.41,0,0,1-.17,0,.13.13,0,0,1,0-.12,4.29,4.29,0,0,0,.54-.11,2.4,2.4,0,0,0,.69-.3,4.21,4.21,0,0,0,.44-.34,5.36,5.36,0,0,0,.74-.79l-1,.63-.49.27a2.54,2.54,0,0,1-.57.19,5.14,5.14,0,0,1-.7.09,2,2,0,0,1-.35,0H21.4v0a1,1,0,0,1,.17-.19l.23-.17a.83.83,0,0,1,.26-.11c.22-.07.45-.16.66-.25a1.43,1.43,0,0,0,.53-.34,2.81,2.81,0,0,0,.4-.63l.08-.17a4.19,4.19,0,0,0,.33-.26h0l.27.12a1.8,1.8,0,0,0,.62.11,1.71,1.71,0,0,0,.6-.08,2.48,2.48,0,0,0,.5-.2,0,0,0,0,0,0,0h0a3.33,3.33,0,0,1-.53.11,1.74,1.74,0,0,1-.51,0,1.26,1.26,0,0,1-.44-.14.78.78,0,0,1-.18-.11l-.14-.12a.1.1,0,0,0-.05,0,.3.3,0,0,0-.33,0l0,0a2.64,2.64,0,0,1-.74.46,2.3,2.3,0,0,1-.43.12,1.14,1.14,0,0,1-.41,0,.73.73,0,0,1-.21,0l-.1,0-.1,0a1.13,1.13,0,0,1-.18-.07l.14-.06.5-.13a4.71,4.71,0,0,0,.55-.16,2.18,2.18,0,0,0,.48-.29c.25-.21.44-.42.66-.63a1.42,1.42,0,0,1,.82-.4,2.85,2.85,0,0,1,1.05,0,.12.12,0,0,0,.1,0h0A15,15,0,0,0,28.36,12a15,15,0,0,0,1.95-1.76s0,0,0,0a0,0,0,0,0,0,0c-.82.48-1.57,1-2.31,1.53-.36.27-.72.54-1.06.82s-.67.55-1,.79a4,4,0,0,0-1.09,0,2.24,2.24,0,0,0-1,.39l-.75.55a2.29,2.29,0,0,1-.87.31l-.55.12a2.33,2.33,0,0,0-.31.11.92.92,0,0,0-.19.13L21,14.89a1,1,0,0,0-.24-.16.66.66,0,0,0-.49,0l-.11.05-.11-.15a.73.73,0,0,0-.27-.17.6.6,0,0,0-.32,0,.49.49,0,0,0-.19.08.11.11,0,0,0-.05,0,.71.71,0,0,0-.37-.17h-.13l-.16,0a.54.54,0,0,0-.35.23.65.65,0,0,0-.19-.1.75.75,0,0,0-.49,0l-.12.05-.1.07a.66.66,0,0,0-.14.17.53.53,0,0,0,0,.16,1.23,1.23,0,0,0-.58-.72,2,2,0,0,0-.86-.26,2.54,2.54,0,0,0-1,.11,1.85,1.85,0,0,0-.81.51.86.86,0,0,0-.23.73,1.71,1.71,0,0,0,1.1,1.15,2.15,2.15,0,0,0,.47.14l.23,0h.26a2,2,0,0,0,.83-.22l0,.09.06.1c.19.26.59.37.83.52s.19.16.19.21v.1h0v0a.88.88,0,0,1,0,.17c-.09.45-.25.93-.3,1.42l-.33.05a11.65,11.65,0,0,0-1.55.39,9.32,9.32,0,0,0-1.09.44,1.11,1.11,0,0,1-.69.08l-.14,0a5.92,5.92,0,0,0,.59-.52l.22-.26a1.69,1.69,0,0,0,.17-.29.36.36,0,0,0,0-.39,1,1,0,0,0-.4-.21h0a.63.63,0,0,1,0-.09.4.4,0,0,0,0-.2c0-.09-.11-.18-.18-.22l-.09-.05-.09,0a.34.34,0,0,0-.14,0v0a1.31,1.31,0,0,0,0-.15.25.25,0,0,0,0-.14.3.3,0,0,0-.16-.13,2.73,2.73,0,0,0-.43-.09l-.07,0H13s0,0,0,0L13,17l0-.14a.76.76,0,0,0,0-.16.41.41,0,0,0-.06-.19.43.43,0,0,0-.22-.17,2.82,2.82,0,0,0-.88-.12c-.29,0-.38,0-.49-.12a6.53,6.53,0,0,1-.68-.91,4.69,4.69,0,0,0-.38-.49,2.69,2.69,0,0,0-.55-.43A4.1,4.1,0,0,0,9,13.9a5.85,5.85,0,0,1,1.15.29A7.12,7.12,0,0,0,6.72,13,6.29,6.29,0,0,0,1.46,15.4a4.16,4.16,0,0,0,0,4.6c1,1.25,3,1.56,6.3,1.75a2.09,2.09,0,0,1,.5.21,1,1,0,0,1,.45.83,1.61,1.61,0,0,0,.64,1.08,14.67,14.67,0,0,0,2.39,1.43,7.8,7.8,0,0,0,2.95.9,4.88,4.88,0,0,0,2.8-.66l.76.07,1.25.06c.49,0,1,0,1.64,0a11.88,11.88,0,0,0,2-.22,2.28,2.28,0,0,0,1-.47,2.73,2.73,0,0,0,.44-.74,3.82,3.82,0,0,0,.33-1.6A3.19,3.19,0,0,0,24.45,21a4.8,4.8,0,0,0-.56-.74,4.58,4.58,0,0,0-.73-.65,4.66,4.66,0,0,0-2.07-.73l-.37,0a1.68,1.68,0,0,0,.12-.31,1.53,1.53,0,0,0,0-.44,4.85,4.85,0,0,0-.11-.49,10.93,10.93,0,0,0-.24-1.08,3.25,3.25,0,0,0,.51.17l.12,0,0,0a1.39,1.39,0,0,0-.26.28.46.46,0,0,0-.08.2.31.31,0,0,0,.2.3l.12,0h0l.14,0,.24,0H22l.09,0a.37.37,0,0,0,0,.11c0,.13.19.22.32.24l.22,0,.21,0h.48a4.13,4.13,0,0,0,.49-.07.2.2,0,0,0,0,.08.44.44,0,0,0,.16.17,1.05,1.05,0,0,0,.43.11,4.92,4.92,0,0,0,.77,0,4.57,4.57,0,0,0,.73-.1,6.44,6.44,0,0,0,.66-.25c.21-.09.41-.19.6-.29a3.54,3.54,0,0,0,1.05-.76c.14-.18.21-.33.31-.48a4.25,4.25,0,0,0,.27-.46c.17-.3.33-.6.47-.91A17,17,0,0,0,30.56,13.7Z"/><path class="cls-3" d="M2.43,2.4h0l-.17-.6a4.75,4.75,0,0,1-.14-.54h0c0,.18-.1.38-.14.54l-.18.6Zm-.71.22-.23.71H1.11L1.9,1h.44l.77,2.37H2.72l-.23-.71Z"/><rect class="cls-3" x="3.44" y="0.9" width="0.39" height="2.43"/><path class="cls-3" d="M6.32,3.28a1,1,0,0,1-.41.07A.81.81,0,0,1,5,2.49.89.89,0,0,1,6,1.6a1,1,0,0,1,.34.06l-.07.22a.84.84,0,0,0-.29,0,.59.59,0,0,0-.57.66A.56.56,0,0,0,6,3.12a.86.86,0,0,0,.28,0Z"/><path class="cls-3" d="M6.86,2.48h0c0,.28.08.66.43.66s.41-.4.41-.66-.07-.66-.42-.66-.42.4-.42.66m1.24,0a.8.8,0,0,1-.83.88.78.78,0,0,1-.8-.88A.8.8,0,0,1,7.3,1.6.78.78,0,0,1,8.1,2.48Z"/><path class="cls-3" d="M8.49,2.07c0-.2,0-.3,0-.44h.34l0,.2h0a.74.74,0,0,1,.57-.23.54.54,0,0,1,.6.59V3.33h-.4V2.23c0-.2,0-.4-.34-.4a.37.37,0,0,0-.37.28.61.61,0,0,0,0,.15V3.33H8.49Z"/><path class="cls-3" d="M11,1.18v.45h.47v.21H11v1c0,.22.12.28.26.28h.16v.21a1.07,1.07,0,0,1-.29,0,.69.69,0,0,1-.39-.1.52.52,0,0,1-.15-.43v-1h-.3V1.63h.3V1.26Z"/><path class="cls-3" d="M12.65,2.45h0c-.2,0-.68,0-.68.39a.29.29,0,0,0,.3.3.34.34,0,0,0,.37-.25.34.34,0,0,0,0-.1Zm.06.88,0-.18h0a.62.62,0,0,1-.49.21.53.53,0,0,1-.59-.49c0-.42.49-.61,1.05-.62v0c0-.23-.08-.39-.39-.39a1,1,0,0,0-.41.09l-.09-.19a1.48,1.48,0,0,1,.58-.11c.5,0,.71.23.71.61v.73a1.63,1.63,0,0,0,0,.39Z"/><path class="cls-3" d="M14.75,3.28a1,1,0,0,1-.41.07.81.81,0,0,1-.9-.86.88.88,0,0,1,1-.89,1,1,0,0,1,.35.06l-.08.22a.77.77,0,0,0-.28,0,.59.59,0,0,0-.57.66.56.56,0,0,0,.58.63.88.88,0,0,0,.29,0Z"/><path class="cls-3" d="M15.59,1.18v.45h.48v.21h-.48v1c0,.22.12.28.27.28H16l0,.21a1.07,1.07,0,0,1-.29,0,.67.67,0,0,1-.39-.1.49.49,0,0,1-.15-.43v-1h-.3V1.63h.3V1.26Z"/><path class="cls-3" d="M16.61,2.48h0c0,.28.07.66.43.66s.41-.4.41-.66-.07-.66-.42-.66-.42.4-.42.66m1.24,0a.8.8,0,0,1-.83.88.78.78,0,0,1-.8-.88.8.8,0,0,1,.83-.88A.78.78,0,0,1,17.85,2.48Z"/><path class="cls-3" d="M20.2,3.28a1.08,1.08,0,0,1-.41.07.81.81,0,0,1-.91-.86.89.89,0,0,1,1-.89,1.1,1.1,0,0,1,.35.06l-.08.22a.82.82,0,0,0-.28,0,.59.59,0,0,0-.58.66.56.56,0,0,0,.59.63.86.86,0,0,0,.28,0Z"/><path class="cls-3" d="M20.74,2.48h0c0,.28.07.66.43.66s.4-.4.4-.66-.07-.66-.41-.66-.42.4-.42.66m1.23,0a.8.8,0,0,1-.82.88.78.78,0,0,1-.81-.88.8.8,0,0,1,.83-.88A.78.78,0,0,1,22,2.48Z"/><path class="cls-3" d="M22.36,2.07c0-.2,0-.3,0-.44h.34l0,.2h0a.74.74,0,0,1,.57-.23.54.54,0,0,1,.6.59V3.33h-.4V2.23c0-.2-.05-.4-.34-.4a.37.37,0,0,0-.37.28.61.61,0,0,0,0,.15V3.33h-.39Z"/><path class="cls-3" d="M26.62,2.86c0,.19,0,.34,0,.47h-.35l0-.18h0a.78.78,0,0,1-.54.21c-.43,0-.6-.24-.6-.66V1.63h.4v1c0,.27.06.47.33.47a.34.34,0,0,0,.35-.23.36.36,0,0,0,0-.15V1.63h.4Z"/><path class="cls-3" d="M27.12,2.07c0-.2,0-.3,0-.44h.34l0,.2h0A.74.74,0,0,1,28,1.6a.54.54,0,0,1,.6.59V3.33h-.4V2.23c0-.2,0-.4-.34-.4a.37.37,0,0,0-.37.28.61.61,0,0,0,0,.15V3.33h-.39Z"/><path class="cls-3" d="M1.56,5.64h0c0,.28.08.66.43.66s.41-.4.41-.66S2.33,5,2,5s-.42.4-.42.66m1.24,0A.79.79,0,0,1,2,6.51a.77.77,0,0,1-.8-.87A.8.8,0,0,1,2,4.76.78.78,0,0,1,2.8,5.64Z"/><path class="cls-3" d="M3.58,5.88h0a.37.37,0,0,0,0,.11.39.39,0,0,0,.37.3c.32,0,.43-.3.43-.66S4.27,5,4,5a.4.4,0,0,0-.36.3.49.49,0,0,0,0,.12Zm-.42.6c0-.09,0-.29,0-.4v-2h.4V5h0a.6.6,0,0,1,.52-.23c.38,0,.67.3.67.86s-.37.89-.75.89a.52.52,0,0,1-.49-.25h0l0,.22Z"/><path class="cls-3" d="M4.76,7h0a.64.64,0,0,0,.33-.13c.09-.09.12-.22.12-.54V4.79H5.6V6.38A.71.71,0,0,1,5.35,7a1.24,1.24,0,0,1-.54.16Zm.88-2.62c0,.1-.1.17-.24.17s-.23-.07-.23-.17.1-.18.24-.18S5.64,4.24,5.64,4.35Z"/><path class="cls-3" d="M7.14,5.46h0C7.15,5.12,7,5,6.77,5s-.39.26-.4.49Zm-.78.2c0,.52.31.63.59.63a1.12,1.12,0,0,0,.41-.07l.06.2a1.42,1.42,0,0,1-.54.09A.81.81,0,0,1,6,5.65a.81.81,0,0,1,.83-.89.68.68,0,0,1,.71.75v.15Z"/><path class="cls-3" d="M8.37,4.34v.45h.48V5H8.37V6c0,.22.12.28.27.28h.15l0,.21a1.07,1.07,0,0,1-.29,0,.62.62,0,0,1-.39-.11C8,6.33,8,6.21,8,6V5h-.3v-.2H8V4.41Z"/><path class="cls-3" d="M9.39,5.64h0c0,.28.07.66.43.66s.41-.4.41-.66S10.16,5,9.81,5s-.42.4-.42.66m1.24,0a.79.79,0,0,1-.83.87A.77.77,0,0,1,9,5.64a.8.8,0,0,1,.83-.88A.78.78,0,0,1,10.63,5.64Z"/><path class="cls-3" d="M12.69,5.61h0c-.21,0-.68,0-.68.39a.28.28,0,0,0,.3.3.37.37,0,0,0,.37-.25.38.38,0,0,0,0-.1Zm.05.87,0-.17h0a.6.6,0,0,1-.49.2c-.33,0-.59-.19-.59-.48s.5-.62,1.06-.62v0c0-.23-.08-.39-.4-.39a1.07,1.07,0,0,0-.41.09l-.08-.19a1.48,1.48,0,0,1,.58-.11c.49,0,.71.22.71.6V6.1a2.24,2.24,0,0,0,0,.38Z"/><path class="cls-3" d="M14,5.88h0A.37.37,0,0,0,14,6a.39.39,0,0,0,.37.3c.32,0,.43-.3.43-.66S14.66,5,14.35,5a.4.4,0,0,0-.37.3.49.49,0,0,0,0,.12Zm-.42.6c0-.09,0-.29,0-.4v-2H14V5h0a.61.61,0,0,1,.52-.23c.38,0,.68.3.68.86a.78.78,0,0,1-.76.89.52.52,0,0,1-.49-.25h0l0,.22Z"/><path class="cls-3" d="M15.56,5.22c0-.14,0-.31,0-.43h.36l0,.26h0a.59.59,0,0,1,.52-.29h.08V5h-.08a.47.47,0,0,0-.48.36.71.71,0,0,0,0,.15v.94h-.4Z"/><path class="cls-3" d="M17.77,5.46h0c0-.34-.18-.49-.37-.49s-.39.26-.4.49Zm-.78.2c0,.52.3.63.59.63A1.12,1.12,0,0,0,18,6.22l.06.2a1.49,1.49,0,0,1-.54.09.8.8,0,0,1-.9-.86.8.8,0,0,1,.83-.89.68.68,0,0,1,.71.75.66.66,0,0,1,0,.15Z"/><path class="cls-3" d="M19.48,4.79l.33,1c0,.13.07.25.1.35h0A2.19,2.19,0,0,1,20,5.77l.29-1h.39L20.3,5.88A2.51,2.51,0,0,1,19.69,7a1.48,1.48,0,0,1-.45.26L19.1,7a1.47,1.47,0,0,0,.35-.21,1.06,1.06,0,0,0,.22-.29.2.2,0,0,0,0-.08.2.2,0,0,0,0-.07l-.63-1.56Z"/><path class="cls-3" d="M23,6.44a1,1,0,0,1-.41.07.81.81,0,0,1-.9-.86.89.89,0,0,1,1-.89,1.38,1.38,0,0,1,.35,0L22.89,5a1.43,1.43,0,0,0-.29,0,.59.59,0,0,0-.57.66.56.56,0,0,0,.58.63,1.27,1.27,0,0,0,.29,0Z"/><path class="cls-3" d="M23.24,6.48h0V4.79h.39V6.48Zm.42-2.13c0,.1-.09.17-.24.17s-.22-.07-.22-.17.1-.18.23-.18S23.66,4.24,23.66,4.35Z"/><path class="cls-3" d="M25.18,5.46h0c0-.34-.18-.49-.37-.49s-.38.26-.4.49Zm-.78.2c0,.52.31.63.59.63a1.08,1.08,0,0,0,.41-.07l.06.2a1.42,1.42,0,0,1-.54.09.81.81,0,0,1-.9-.86.81.81,0,0,1,.84-.89.67.67,0,0,1,.7.75v.15Z"/><path class="cls-3" d="M25.93,5.22c0-.14,0-.31,0-.43h.35l0,.26h0a.59.59,0,0,1,.52-.29h.09V5h-.09a.46.46,0,0,0-.47.36.68.68,0,0,0,0,.15v.94h-.39Z"/><path class="cls-3" d="M27.15,5.22c0-.14,0-.31,0-.43h.35l0,.26h0A.59.59,0,0,1,28,4.76h.08V5H28a.46.46,0,0,0-.47.36.68.68,0,0,0,0,.15v.94h-.39Z"/><path class="cls-3" d="M29.26,5.61h0c-.2,0-.68,0-.68.39a.28.28,0,0,0,.3.3.36.36,0,0,0,.37-.25.38.38,0,0,0,0-.1Zm.06.87,0-.17h0a.64.64,0,0,1-.5.2A.52.52,0,0,1,28.2,6c0-.43.49-.62,1.05-.62v0c0-.23-.08-.39-.39-.39a1,1,0,0,0-.41.09l-.09-.19a1.48,1.48,0,0,1,.58-.11c.49,0,.71.22.71.6V6.1a1.5,1.5,0,0,0,0,.38Z"/><rect class="cls-3" x="1.28" y="7.21" width="0.39" height="2.43"/><path class="cls-3" d="M3.13,8.76h0c-.21,0-.68,0-.68.4a.28.28,0,0,0,.3.3.37.37,0,0,0,.37-.26.28.28,0,0,0,0-.09Zm.05.88,0-.18h0a.62.62,0,0,1-.49.21c-.33,0-.59-.19-.59-.48s.5-.62,1.06-.62V8.51c0-.22-.09-.38-.4-.38a.91.91,0,0,0-.41.09L2.22,8a1.36,1.36,0,0,1,.58-.12c.5,0,.72.23.72.61v.74a2.3,2.3,0,0,0,0,.38Z"/><path class="cls-3" d="M4.77,8.38c0-.2,0-.3,0-.44h.34l0,.21h0a.72.72,0,0,1,.56-.24.55.55,0,0,1,.52.26h0A.63.63,0,0,1,6.45,8a.94.94,0,0,1,.34-.07.54.54,0,0,1,.6.6V9.64H7V8.58c0-.22,0-.44-.35-.44a.38.38,0,0,0-.36.26.61.61,0,0,0,0,.15V9.64H5.88V8.53c0-.19,0-.39-.34-.39a.38.38,0,0,0-.37.28.61.61,0,0,0,0,.14V9.64H4.77Z"/><path class="cls-3" d="M8.81,8.76h0c-.2,0-.68,0-.68.4a.28.28,0,0,0,.3.3A.36.36,0,0,0,8.8,9.2a.28.28,0,0,0,0-.09Zm.06.88,0-.18h0a.65.65,0,0,1-.5.21.52.52,0,0,1-.58-.48c0-.43.49-.62,1.05-.62V8.51c0-.22-.08-.38-.39-.38A.86.86,0,0,0,8,8.22L7.91,8a1.29,1.29,0,0,1,.58-.12c.49,0,.71.23.71.61v.74a1.54,1.54,0,0,0,0,.38Z"/><path class="cls-3" d="M9.7,8.38c0-.2,0-.3,0-.44H10l0,.21h0a.71.71,0,0,1,.57-.24.54.54,0,0,1,.6.59V9.64h-.39V8.55c0-.2-.06-.41-.35-.41a.38.38,0,0,0-.37.28.61.61,0,0,0,0,.15V9.64H9.7Z"/><path class="cls-3" d="M12,8.79h0c0,.28.07.67.43.67s.4-.4.4-.67-.06-.66-.41-.66-.42.4-.42.66m1.23,0a.79.79,0,0,1-.82.88.78.78,0,0,1-.81-.87.8.8,0,0,1,.83-.89A.78.78,0,0,1,13.24,8.79Z"/></svg>