<svg id="Grupo_8136" data-name="Grupo 8136" xmlns="http://www.w3.org/2000/svg" xmlns:xlink="http://www.w3.org/1999/xlink" width="118.672" height="149.476" viewBox="0 0 118.672 149.476">
  <defs>
    <filter id="Trazado_18725" x="32.104" y="62.263" width="72.402" height="87.212" filterUnits="userSpaceOnUse">
      <feOffset dy="3" input="SourceAlpha"/>
      <feGaussianBlur stdDeviation="3" result="blur"/>
      <feFlood flood-opacity="0.42"/>
      <feComposite operator="in" in2="blur"/>
      <feComposite in="SourceGraphic"/>
    </filter>
    <filter id="Trazado_18727" x="57.992" y="18.238" width="60.68" height="74.437" filterUnits="userSpaceOnUse">
      <feOffset dy="3" input="SourceAlpha"/>
      <feGaussianBlur stdDeviation="3" result="blur-2"/>
      <feFlood flood-opacity="0.439"/>
      <feComposite operator="in" in2="blur-2"/>
      <feComposite in="SourceGraphic"/>
    </filter>
    <filter id="Trazado_18729" x="29.07" y="78.722" width="32.262" height="49.168" filterUnits="userSpaceOnUse">
      <feOffset dy="3" input="SourceAlpha"/>
      <feGaussianBlur stdDeviation="3" result="blur-3"/>
      <feFlood flood-opacity="0.42"/>
      <feComposite operator="in" in2="blur-3"/>
      <feComposite in="SourceGraphic"/>
    </filter>
    <filter id="Trazado_18733" x="74.566" y="97.56" width="23.736" height="28.883" filterUnits="userSpaceOnUse">
      <feOffset dy="3" input="SourceAlpha"/>
      <feGaussianBlur stdDeviation="3" result="blur-4"/>
      <feFlood flood-opacity="0.161"/>
      <feComposite operator="in" in2="blur-4"/>
      <feComposite in="SourceGraphic"/>
    </filter>
  </defs>
  <g transform="matrix(1, 0, 0, 1, 0, 0)" filter="url(#Trazado_18725)">
    <path id="Trazado_18725-2" data-name="Trazado 18725" d="M662.074,454.119a20.372,20.372,0,0,1-1.8-6.931,14.5,14.5,0,0,0-2.775-7.207c-1.2-.275-2.5.134-3.5-.626a3.2,3.2,0,0,0,1.347.424,31.067,31.067,0,0,1,3.44.38,5.05,5.05,0,0,0,4.31-3.853c-.021-.664.821-1.14.411-1.889.12-2.111.513-4.223-.24-6.322.184-.314.688-.018.378-.068-.093-.015-.135.014-.148.084a6.308,6.308,0,0,0,.585,3.527c1.782,1.274,2.435.743,2.957-1.351a78.47,78.47,0,0,0,2.34-11.854c.409-4.477-1.55-7.421-5.313-9.451-2.163-.49-2.382,1.758-3.624,2.565-2.943,3.255-5.9,6.5-8.718,9.866-.986,1.177-1.4,1.115-2.023-.289-1.93-4.377-3.45-8.923-5.517-13.242-1.192-2.215-1.4-4.9-3.264-6.794-2.582-.024-5.165-.126-7.744-.054-3.3.092-5.343,2.4-7.293,4.6a61.919,61.919,0,0,0-6.742,9.515c-.527.888-.79,1.621.2,2.314a17.834,17.834,0,0,0,4.791,2.837,1.865,1.865,0,0,1,1.087,2.635c-.6,1.765-1.135,3.555-1.673,5.342-.239,1.092-.512,2.175-.831,3.245-.854,2.305-1.147,4.828-2.679,6.872-.127,3.588-2.1,6.722-2.516,10.238.024,3.141-1.426,6-1.731,9.091a77.964,77.964,0,0,0-.693,12.5H661.22c1.6-1.07,1.552-2.788,1.609-4.388A41.529,41.529,0,0,0,662.074,454.119Z" transform="translate(-573.92 -332.75)" fill="#fe962a"/>
  </g>
  <path id="Trazado_18726" data-name="Trazado 18726" d="M616.142,467.066c-.5,2.612.306,5.192.163,7.812-.153,2.8.1,5.619-1.017,8.289h8A4.668,4.668,0,0,0,622.37,481c-1.216-2.962-2.676-5.819-3.811-8.815A30,30,0,0,1,616.142,467.066Z" transform="translate(-527.992 -345.692)" fill="#fdfdfd"/>
  <g transform="matrix(1, 0, 0, 1, 0, 0)" filter="url(#Trazado_18727)">
    <path id="Trazado_18727-2" data-name="Trazado 18727" d="M617.267,401.117c1.414-.59,1.487-2.718,3.287-2.868-5.266-2.012-6.182-4.147-4.576-9.652a1.934,1.934,0,0,1,2.214-1.623c8.433.714,14.724-3.134,19.853-9.415a.827.827,0,0,0,.83-.671c1.007-3.909,1.814-7.833.605-11.857a2.655,2.655,0,0,0-1.343-1.365c-6.4-1.705-12.47-4.079-17.571-8.491a26.159,26.159,0,0,1-5.666-7.411c-1.028-1.868-1.791-2.009-3.118-.408-4.85,5.851-9.447,11.879-12.505,18.913-.314.722-1.087,1.454-.318,2.353,1.323,4.835,2.988,9.487,6.939,12.909.47.408.931.831,1.438,1.188,2.254,1.591,2.13,1.578.338,3.8-2.712,3.369-6.306,4-10.266,3.832l2.89,6.993c2.854,3.231,6.619,4.631,10.737,5.228A7.939,7.939,0,0,0,617.267,401.117Z" transform="translate(-530.41 -322.01)" fill="#fecfa1"/>
  </g>
  <path id="Trazado_18728" data-name="Trazado 18728" d="M633.9,358.932a26.646,26.646,0,0,1-.969,12.718c.038,1.217-.8,2.328-.44,3.863l2.289-4.739c1.829-2.032,2.422-4.541,2.766-7.148.476-2.745,1.153-5.472,1.389-8.238.709-8.313-2.994-14.561-9.49-19.394-.56-.416-1.145-.8-1.81-1.258,4.437-3.4,5.679-7.722,3.7-12.846a8.485,8.485,0,0,0-7.12-5.716c-3.506-.438-6.139,1.192-8.1,4.088a18.625,18.625,0,0,0-2.4,4.987,2.469,2.469,0,0,0,.3,2.639c1.918.955,2.188.847,2.318-1.045.044-.644.113-1.3.092-1.532a18.691,18.691,0,0,0-.063,2.29c-.029,1.586,1.041,1.982,2.3,2.064s1.654-.879,1.636-1.847a17.961,17.961,0,0,1,.574-3.756c-.064,1.771-1.483,3.84.175,5.483a7.088,7.088,0,0,1-4.972-.706,1.655,1.655,0,0,0-1.982-.02l1.269,2.664c-2.161.549-4.386.649-6.466,1.413-7.349,2.7-11.279,8.4-13.73,15.434-.305.877-.65,1.74-.978,2.609a12.583,12.583,0,0,0-1.467,9.389c.222,1.918-.7,3.775-.211,5.981l1.332-3.6c2.631-7.292,7.233-13.375,12.005-19.323,2.343-2.919,2.489-2.826,4.251.282,4.116,7.263,10.98,10.756,18.431,13.419,1.3.465,2.586,1.141,4.054.954a30.584,30.584,0,0,0,4,.887C635.69,358.881,634.789,358.343,633.9,358.932Z" transform="translate(-525.304 -316.104)" fill="#8a5a41"/>
  <g transform="matrix(1, 0, 0, 1, 0, 0)" filter="url(#Trazado_18729)">
    <path id="Trazado_18729-2" data-name="Trazado 18729" d="M680.767,432.255c.693-2.073,1.369-4.151,2.087-6.214.277-.794.158-1.34-.658-1.705-2.055-.921-3.931-2.227-6.123-2.857q.084.47.168.941c-1.97,2.611-2.878,5.8-4.61,8.535a14.532,14.532,0,0,0-1.922,6.064,8.147,8.147,0,0,0-.7,6.163l-.018-.033c.991,2.324,2.187,4.547,3.325,6.8l1.931,2.7c1.52-3.266,3.153-6.5,2.821-10.274.324-.5.149-1.062.172-1.6C678.123,437.811,679.862,435.2,680.767,432.255Z" transform="translate(-630.66 -336.76)" fill="#fefefe"/>
  </g>
  <path id="Trazado_18730" data-name="Trazado 18730" d="M706.739,433.867c-.272,2.254.138,4.1-.849,5.966l-9.25-7.316-.388.4L709.331,448.8c.168-1.922.048-3.47.839-5.043l9.151,7.833.314-.362Z" transform="translate(-689.434 -338.921)" fill="#fdc102"/>
  <path id="Trazado_18731" data-name="Trazado 18731" d="M716.288,468.959l-2.452-4.363c4.345-.187,8.367.806,12.533.509l-20.311-6.632,2.566,5.025c-4.366.438-8.533-.568-12.8-.06Z" transform="translate(-695.826 -344.008)" fill="#fdc102"/>
  <path id="Trazado_18732" data-name="Trazado 18732" d="M650.9,368.819c.066-3.2,1.059-6.247,1.467-9.389-2.139-.074-3.217,1.205-3.852,3.034a4.453,4.453,0,0,0,1.009,5.127C649.968,368.013,650.438,368.41,650.9,368.819Z" transform="translate(-583.474 -324.595)" fill="#fccfa2"/>
  <g transform="matrix(1, 0, 0, 1, 0, 0)" filter="url(#Trazado_18733)">
    <path id="Trazado_18733-2" data-name="Trazado 18733" d="M628.345,444.909c-1.066,1.468-2.044,3.046-4.082,3.319-.428.405-1.13.013-1.52.523a52.039,52.039,0,0,0,2.783,7.041l.463-.539c-.135-2.049.751-3.84,1.44-5.68C627.274,447.928,628.954,446.643,628.345,444.909Z" transform="translate(-539.18 -341.35)" fill="#faf9f7"/>
  </g>
  <path id="Trazado_18734" data-name="Trazado 18734" d="M613.333,330.382c2.767.384,5.379,2.441,8.133.739-3.88-1.672-.29-4.588-.923-7.048a9.364,9.364,0,0,0-1.2,4.661c-.049,1.044-.219,2.091-1.633,2.115-1.6.027-1.663-1.073-1.643-2.247.017-.934,0-1.87,0-3.147a3.435,3.435,0,0,0-.918,2.648c.234,1.725-.624,1.79-1.889,1.348Z" transform="translate(-524.538 -317.666)" fill="#6e4633"/>
  <path id="Trazado_18735" data-name="Trazado 18735" d="M596.181,375.212q-1.383,3.575-2.766,7.148C596.577,380.971,597.624,378.266,596.181,375.212Z" transform="translate(-483.935 -327.689)" fill="#e8aa7c"/>
  <path id="Trazado_18736" data-name="Trazado 18736" d="M596.534,404.507c.449,1.52.683,2.492,1.027,3.425a1.442,1.442,0,0,0,1.565,1.126,1.479,1.479,0,0,0,1.15-1.058,1.369,1.369,0,0,0-.71-1.765C598.69,405.749,597.825,405.245,596.534,404.507Z" transform="translate(-489.991 -333.431)" fill="#72cdfc"/>
  <path id="Trazado_18737" data-name="Trazado 18737" d="M605.314,404.886a25.384,25.384,0,0,0,.029,2.96,1.411,1.411,0,0,0,1.342,1.38,1.181,1.181,0,0,0,1.2-.555,1.6,1.6,0,0,0-.153-1.949c-.595-.718-1.2-1.429-1.8-2.143Z" transform="translate(-504.803 -333.445)" fill="#6bcbfd"/>
  <path id="Trazado_18738" data-name="Trazado 18738" d="M622.651,438.184a6.7,6.7,0,0,0-.974-3.774l.4,6.553Q622.363,439.573,622.651,438.184Z" transform="translate(-532.495 -339.292)" fill="#cd7725"/>
  <path id="Trazado_18739" data-name="Trazado 18739" d="M642.76,413.534c-6.129,2.033-11.43.4-16.181-3.658-.24-.2-.475-.434-.789-.11l6.427,15.923C635.873,421.475,639.317,417.5,642.76,413.534Z" transform="translate(-555.907 -334.43)" fill="#fefdfd"/>
  <path id="Trazado_18740" data-name="Trazado 18740" d="M644.765,441.3c2.693,3.829,9.038,4.717,11.862,1.592C652.126,445.259,648.311,444.28,644.765,441.3Z" transform="translate(-585.03 -340.642)" fill="#ca7523"/>
  <path id="Trazado_18741" data-name="Trazado 18741" d="M672.577,444.331q.281.74.56,1.48c.318.064.675.466.867-.2.632-2.2,1.3-4.391,1.952-6.586-1.441.292-1.278,1.76-1.9,2.648C673.48,442.5,673.164,443.494,672.577,444.331Z" transform="translate(-626.721 -340.196)" fill="#fbf9f5"/>
  <path id="Trazado_18742" data-name="Trazado 18742" d="M671.487,445.734c2.82-.566,2.4-5.425,3.029-7.521a6.764,6.764,0,0,0,.875-3.331C673.749,437.65,672.541,442.674,671.487,445.734Z" transform="translate(-625.281 -339.384)" fill="#b1b0af"/>
  <path id="Trazado_18743" data-name="Trazado 18743" d="M632.357,449.372c.513-.154,1.125-.021,1.52-.523a13.829,13.829,0,0,1-5.89-.772C629.123,449.734,630.839,449.192,632.357,449.372Z" transform="translate(-548.791 -341.97)" fill="#ca7729"/>
  <path id="Trazado_18744" data-name="Trazado 18744" d="M603,379.742a2.965,2.965,0,0,0,2.9,2.714c1.29.154,3.041-1.971,2.709-3.22-.383-1.442-1.314-2.572-2.962-2.345A2.76,2.76,0,0,0,603,379.742Z" transform="translate(-503.477 -328.012)" fill="#f7b795"/>
  <path id="Trazado_18745" data-name="Trazado 18745" d="M637.113,369.807a2.611,2.611,0,0,0,2.767,2.851,2.417,2.417,0,0,0,2.759-2.545,2.847,2.847,0,0,0-2.794-2.932A2.554,2.554,0,0,0,637.113,369.807Z" transform="translate(-564.891 -326.115)" fill="#f8b695"/>
  <path id="Trazado_18746" data-name="Trazado 18746" d="M622.1,386.779c3.487.8,7.066.031,9.238,3.2C630.988,386.98,625.683,385.082,622.1,386.779Z" transform="translate(-541.524 -329.831)" fill="#1d1813"/>
  <path id="Trazado_18747" data-name="Trazado 18747" d="M628.033,366.644c-.111,1.5.437,2.118,1.412,2.192a1.724,1.724,0,1,0,.351-3.428A1.568,1.568,0,0,0,628.033,366.644Z" transform="translate(-546.347 -325.766)" fill="#050504"/>
  <path id="Trazado_18748" data-name="Trazado 18748" d="M611.807,375.208c.533-1.338-.527-1.655-.74-2.363.688-.552,1.706.264,2.459-.752-1.444-.857-2.96-.411-4.373-.359-.625.022-.461.629-.048,1C609.959,373.514,610.81,374.3,611.807,375.208Z" transform="translate(-512.963 -326.976)" fill="#100d0a"/>
  <path id="Trazado_18749" data-name="Trazado 18749" d="M618.107,375.417c2.963.7,3.2.253,2.461-4.179C618.936,372.245,620.944,375.162,618.107,375.417Z" transform="translate(-527.894 -326.91)" fill="#d18149"/>
  <path id="Trazado_18750" data-name="Trazado 18750" d="M625.5,360.222c1.683,1.671,2.982,1.729,4.789.215-.827-.849-1.563.2-2.348.121C627.171,360.484,626.54,359.766,625.5,360.222Z" transform="translate(-543.197 -324.722)" fill="#8d5f45"/>
  <path id="Trazado_18751" data-name="Trazado 18751" d="M596.141,369.154a20.458,20.458,0,0,1,3.147.283,7.552,7.552,0,0,0-4.46-1.169Z" transform="translate(-487.541 -326.326)" fill="#674030"/>
  <path id="Trazado_18752" data-name="Trazado 18752" d="M614.465,350.149c1.217.957,2.439,1.908,3.652,2.872.655.521,1.073,1.335,1.682,1.871l-5.02-5.057Z" transform="translate(-523.84 -322.715)" fill="#67412f"/>
  <path id="Trazado_18753" data-name="Trazado 18753" d="M604.439,336.794c2.031-.22,3.058-1.656,4.038-3.166C607,334.523,605.964,336.033,604.439,336.794Z" transform="translate(-504.458 -319.539)" fill="#69432f"/>
</svg>
