<svg xmlns="http://www.w3.org/2000/svg" width="113.314" height="153.502" viewBox="0 0 113.314 153.502">
  <g id="Grupo_8137" data-name="Grupo 8137" transform="translate(-811.226 -336.635)">
    <path id="Trazado_18754" data-name="Trazado 18754" d="M885.8,451.856c-.047-.557-.5-.594-.9-.691-1.467-.362-2.932-.735-4.408-1.06-.583-.128-.828-.379-.656-.98a2.338,2.338,0,0,0-.049-1.235,1.217,1.217,0,0,1-.23-.773c0-2.226.068-4.449.127-6.674.038-1.421-.25-2.842-.141-4.272a6.035,6.035,0,0,1,.01-.664c.2-1,.5-1.193,1.521-1.176,2.766.046,5.524.327,8.294.245,1.189-.035,2.368-.245,3.562-.2a1.6,1.6,0,0,1,.87.1,29.944,29.944,0,0,1,1.328,4.139,7.587,7.587,0,0,0,.271.939c1.029,2.776,1.772,5.641,2.637,8.469.769,2.515,1.571,5.02,2.342,7.534.2.666.311.673.841,0,2.334-2.953,4.766-5.825,7.125-8.757,1.645-2.046,3.222-4.153,5-6.093.361-.313.789-.572.914-1.086a.951.951,0,0,1,.256-.423c1.307-1.233,2.214-2.8,3.408-4.124.2-.22.35-.486.668-.561l0,0a2.616,2.616,0,0,1,2.481.368,30.787,30.787,0,0,0,3.733,1.695,5.326,5.326,0,0,1,3.369,3.108,42.537,42.537,0,0,1,3.376,10.875c.224,1.407.563,2.8.889,4.188.154.655.222,1.1-.7.806a3.9,3.9,0,0,0-.98-.059,3.309,3.309,0,0,1-.85.079,19.886,19.886,0,0,0-8.551,1.381c-.372.154-.486.375-.477.825.058,2.746.375,5.474.507,8.216.145,2.977.311,5.958.586,8.931.2,2.137.3,4.288.333,6.435a6.2,6.2,0,0,1-.787,2.46c-1.137,2.6-2.072,5.283-3.121,7.918-1.279,3.214-2.476,6.46-3.795,9.658a3,3,0,0,1-.688,1.141H874.959a24.9,24.9,0,0,1-.7-8.156,31.3,31.3,0,0,1,1.31-6.988,47.975,47.975,0,0,1,3.171-8.047,62.679,62.679,0,0,1,7.875-12.183c.334-.4.877-.654.968-1.248a10.009,10.009,0,0,1,2.875.419,13.38,13.38,0,0,0,3.8-.425.253.253,0,0,0,.2-.272c-.307-.167-.575.038-.84.127a9.294,9.294,0,0,1-5.13.114,4.818,4.818,0,0,1-2.969-2.44,8.473,8.473,0,0,1-1.026-5.616,33.186,33.186,0,0,1,2.345-7.593,3.693,3.693,0,0,0,.338-1.107,19.782,19.782,0,0,1-.9,2.157C886.155,451.49,886.144,451.814,885.8,451.856Z" transform="translate(-7.991 -12.395)" fill="#f79630"/>
    <path id="Trazado_18755" data-name="Trazado 18755" d="M927.075,459.818a17.638,17.638,0,0,1,8.816-1.386,6.778,6.778,0,0,1,.432,3.143c.127,4.263.3,8.524.436,12.786.088,2.716.018,5.432.143,8.144a20.261,20.261,0,0,1-1.685,8.172c-1.469,3.882-3.19,7.653-4.9,11.43-.418.924-.9,1.82-1.3,2.751a1.442,1.442,0,0,1-.642.724h-8.077a1.276,1.276,0,0,1,.21-.935c.933-2.131,1.707-4.326,2.569-6.486,1.68-4.21,3.187-8.488,4.961-12.661a2.375,2.375,0,0,0,.18-1.568,18.074,18.074,0,0,1-.046-2.852c-.271-2.789-.355-5.594-.584-8.387-.322-3.923-.456-7.857-.764-11.781A1.422,1.422,0,0,1,927.075,459.818Z" transform="translate(-13.835 -15.446)" fill="#fefefe"/>
    <path id="Trazado_18756" data-name="Trazado 18756" d="M935.715,499.436q.1,5.677.208,11.356h-5.564c-.26-.378.008-.686.155-.994,1.015-2.126,2.027-4.254,3-6.4.478-1.052.88-2.145,1.4-3.182C935.081,499.886,935.108,499.344,935.715,499.436Z" transform="translate(-15.102 -20.655)" fill="#f79630"/>
    <path id="Trazado_18757" data-name="Trazado 18757" d="M927,460.029c.086,1.96.08,3.93.282,5.878.215,2.075.244,4.158.431,6.233.3,3.292.5,6.593.733,9.89a12.892,12.892,0,0,1-1.331,6.507c-.995,2.123-1.738,4.363-2.595,6.55-.527,1.347-1.065,2.691-1.594,4.037q-1.006,2.563-2,5.13a5.7,5.7,0,0,1-.7,1.539h-.539c.335-.853.676-1.7,1-2.561.867-2.256,1.669-4.54,2.607-6.767,1.331-3.163,2.3-6.471,3.827-9.555a9.1,9.1,0,0,0,.6-5.206c-.169-1.455-.134-2.911-.286-4.366-.455-4.326-.443-8.688-.9-13.018-.126-1.184.062-2.384-.175-3.573C926.28,460.357,926.6,460.1,927,460.029Z" transform="translate(-13.761 -15.657)" fill="#a3988d"/>
    <path id="Trazado_18758" data-name="Trazado 18758" d="M935.626,494.228a5.588,5.588,0,0,0-1.344,2.428c-1.138,2.914-2.6,5.67-3.9,8.505a2.826,2.826,0,0,0-.118.423h-.719c1.258-2.665,2.59-5.3,3.753-8q1.991-4.628,3.725-9.364a18.26,18.26,0,0,0,.8-6.8c-.087-3.493-.119-6.988-.236-10.48-.14-4.171-.345-8.339-.522-12.507.25-.051.5-.136.71.107,0,2.715.163,5.42.333,8.129.127,2.02.039,4.051.1,6.076.058,2.084.287,4.169.24,6.25-.068,2.987.252,6.024-.685,8.935-.562,1.751-1.25,3.465-1.94,5.171A5.049,5.049,0,0,0,935.626,494.228Z" transform="translate(-15.013 -15.447)" fill="#9d9b99"/>
    <path id="Trazado_18759" data-name="Trazado 18759" d="M895.166,432.052c-.526-1.662-1.054-3.323-1.435-5.026.991-.471,2.031-.82,3.029-1.29,2.672-1.258,3.327-3.917,3.381-6.251.013-.552-.306-.61-.77-.56a24.506,24.506,0,0,1-8.887-.553,23.44,23.44,0,0,1-9.512-4.8,24.365,24.365,0,0,1-6.189-7.7c-.153-.307-.261-.657-.7-.67a15.962,15.962,0,0,1-.312-3.269,14.9,14.9,0,0,1,.009-3.472,8.733,8.733,0,0,1,1.406-4.225,8.376,8.376,0,0,0,.719-2.924,1.56,1.56,0,0,1,.685-1.371c2.066-.274,4.131-.6,6.174-.987,1.891-.359,3.776-.808,5.642-1.345a34.109,34.109,0,0,0,11.817-6.031,22.026,22.026,0,0,0,5.873-6.686,3.458,3.458,0,0,1,.414-.585c.5-.6.9-.32,1.185.192,1.089,1.958,2.348,3.822,3.36,5.818.878,1.732,1.875,3.394,2.771,5.114a81.018,81.018,0,0,1,4.709,11.122,26.587,26.587,0,0,1,1.1,3.775c.062.338.243.7-.048,1.025a14.133,14.133,0,0,0-1.1,2.7,30.052,30.052,0,0,1-4.329,6.784,23.406,23.406,0,0,1-4.457,3.952c-.492.349-.631.634-.409,1.164a36.4,36.4,0,0,0,3.473,6.884,8.655,8.655,0,0,0,3.812,3.144c.657.271,1.3.585,1.944.879q-1.718,2.191-3.44,4.379c-.142.179-.279.39-.541.431a41.562,41.562,0,0,1-3.873,1.56,18.993,18.993,0,0,1-12.2-.094,15.508,15.508,0,0,1-2.339-1.112C895.781,431.832,895.478,431.736,895.166,432.052Z" transform="translate(-7.924 -4.737)" fill="#fbcf9e"/>
    <path id="Trazado_18760" data-name="Trazado 18760" d="M919.162,397.055a34.241,34.241,0,0,0-1.827-6.3,82.014,82.014,0,0,0-3.762-8.82q-2.377-4.573-4.979-9.027c-.549-.944-1.065-1.915-1.67-2.83-.328-.5-.475-.218-.658.084a.48.48,0,0,1-.018-.719,11.447,11.447,0,0,0,2.125-4.575,34.137,34.137,0,0,1-2.408,4.914,24.873,24.873,0,0,1-8.63,9.059,40.921,40.921,0,0,1-9.362,4.216,89.67,89.67,0,0,1-9.245,2.095,5.43,5.43,0,0,1-2.952.117,4.39,4.39,0,0,1,.431-3.479,2.983,2.983,0,0,0,1.629-.257,59.333,59.333,0,0,0,6.395-2.315,53.045,53.045,0,0,0,7.8-4.186,33.354,33.354,0,0,0,7.066-6.02,53.686,53.686,0,0,0,3.479-4.648,18.439,18.439,0,0,0,1.508-2.932c-1.075,1.787-2.089,3.606-3.313,5.3a32.849,32.849,0,0,1-3.948,4.384,38.542,38.542,0,0,1-8,5.708,59.251,59.251,0,0,1-11.227,4.6c-.383.121-.711.467-1.166.351-.245-.468.108-.8.3-1.135.885-1.545,2.011-2.94,2.8-4.543,2.479-1.49,4.956-3,7.27-4.724a38.884,38.884,0,0,0,6.421-5.818,14.918,14.918,0,0,0,3.057-4.889,2.7,2.7,0,0,0,.222-1.145c-1,3.428-3.223,5.983-5.769,8.3a58.461,58.461,0,0,1-7.662,5.875,12.556,12.556,0,0,1-3.414,1.9c-.356-.125-.685-.376-1.1-.158-.172.091-.411.188-.559-.052a.55.55,0,0,1,.111-.663,7.319,7.319,0,0,0,.879-1.349c.4-.813.344-1.354-.165-1.676-1.276-.806-1.76-.823-2.411.037A7.483,7.483,0,0,1,874.2,373.8a4.929,4.929,0,0,0-1.884,2,20.046,20.046,0,0,0-1.462,2.563c-.072.21-.19.459-.513.349-.017-.005-.031-.042-.034-.065a.353.353,0,0,1,.016-.088,15.233,15.233,0,0,1,1.656-5.624,22.734,22.734,0,0,1,4.814-6.605,24.839,24.839,0,0,1,7.567-5.221,13.46,13.46,0,0,1,1.8-.87c-4.013-3.406-4.688-7.583-3.3-12.334a10.986,10.986,0,0,1,4.466-6.222,9.259,9.259,0,0,1,6.454-1.5,8.788,8.788,0,0,1,6.971,4.788,15.559,15.559,0,0,1,2.406,7.462,7.847,7.847,0,0,1-2,5.075c-.237.3-.5.579-.76.86-.126.137-.443.169-.3.448.1.2.347.2.555.237a21.914,21.914,0,0,1,9.284,3.942,22.983,22.983,0,0,1,8.252,10.851,32.956,32.956,0,0,1,2.051,8.1,2.83,2.83,0,0,0,.194.59,37.976,37.976,0,0,1,.807,10.377,1.9,1.9,0,0,1-.267,1.281,51.361,51.361,0,0,1-.723,6.54c-.06.286-.142.567-.25.991A39.23,39.23,0,0,0,919.162,397.055Z" transform="translate(-7.497 -0.441)" fill="#875a42"/>
    <path id="Trazado_18761" data-name="Trazado 18761" d="M849.893,355.631c2.521,4.638,4.915,9.044,7.31,13.449l-.19.149c-.948-1.017-1.921-2.012-2.839-3.054q-4.309-4.9-8.582-9.829-2.348-2.7-4.679-5.414c-.169-.2-.5-.41-.357-.662.179-.325.524-.066.8-.031q2.483.314,4.968.618c.189.024.441.233.551-.023a.851.851,0,0,0-.119-.589c-.771-1.577-1.565-3.141-2.334-4.718-1.106-2.273-2.194-4.555-3.3-6.83-.306-.633-.639-1.255-.96-1.881l.252-.182c5.134,6.534,10.268,13.069,15.492,19.719A57.092,57.092,0,0,1,849.893,355.631Z" transform="translate(-3.672)" fill="#fec00e"/>
    <path id="Trazado_18762" data-name="Trazado 18762" d="M817.506,359.545c1.365.505,2.77.877,4.172,1.263,1.436.4,2.848.877,4.276,1.3,3.278.981,6.558,1.951,9.836,2.933.2.059.559-.072.531.3-.018.226-.291.263-.489.333-1.61.572-2.908,1.708-4.684,2.428l13.89,6.843-.085.25-24.672-5.928-.024-.233c1.93-.954,3.719-2.149,5.9-3.1L815.179,359.9c-.621-.36-1.386-.5-1.87-1.29C814.853,358.549,816.115,359.361,817.506,359.545Z" transform="translate(-0.264 -2.787)" fill="#fec00e"/>
    <path id="Trazado_18763" data-name="Trazado 18763" d="M874.967,430.829l.012.571c-.906.5-1.826.081-2.716-.019-5.285-.594-10.566-1.21-15.853-1.782-2.286-.247-4.571-.525-6.857-.781-.8-.089-1.017-.527-.561-1.253.859-1.368,1.882-2.624,2.843-3.919,2.138-2.878,4.15-5.846,6.313-8.7,1.642-2.168,3.159-4.424,4.8-6.6,1.311-1.739,2.6-3.5,3.841-5.3.68-.985.576-1.167-.44-1.821-1.3-.84-2.546-1.771-3.789-2.7-.832-.621-.9-.631-1.482.17-1.761,2.416-3.7,4.687-5.582,7.009-2.274,2.811-4.476,5.68-6.712,8.522-1.679,2.137-3.292,4.333-5,6.445s-3.337,4.294-4.99,6.451c-1.326,1.73-2.051,3.649-1.117,5.846a3.267,3.267,0,0,0,2.192,1.964c2.3.662,4.635,1.146,6.968,1.66,2.656.584,5.323,1.11,7.975,1.711,2.1.477,4.24.74,6.334,1.248,1.8.435,3.627.723,5.445,1.052,2.322.42,4.615.991,6.956,1.309a1.84,1.84,0,0,1,1.435.612q.009.316.018.63c-3.614-.76-7.256-1.381-10.867-2.142-3.437-.724-6.909-1.263-10.329-2.075-2.923-.693-5.891-1.194-8.824-1.846-1.971-.438-3.931-.941-5.867-1.511-1.6-.471-2.454-2.048-2.653-3.816a6.891,6.891,0,0,1,1.762-5.258c1.164-1.422,2.182-2.973,3.32-4.425,1.852-2.364,3.719-4.717,5.567-7.084,1.682-2.153,3.334-4.331,5.027-6.476,1.381-1.751,2.81-3.466,4.206-5.207,1.415-1.766,2.927-3.471,4.175-5.35a1.709,1.709,0,0,1,2.055-.868c.249.064.334.323.537.444a26.669,26.669,0,0,0,4.019,2.857,2.927,2.927,0,0,0,.648.561c1.164.848,1.174.915.306,2.087a11.036,11.036,0,0,0-.656,1.061,7.213,7.213,0,0,0-1.264,1.632c-1.364,1.7-2.494,3.568-3.844,5.286-1.437,1.829-2.7,3.8-4.079,5.681-2.474,3.373-4.889,6.788-7.358,10.167-.6.818-.582.927.431.982,2.869.155,5.7.643,8.556.905,3.005.276,5.99.722,8.993,1.006,1.726.164,3.444.385,5.16.637A1.214,1.214,0,0,1,874.967,430.829Z" transform="translate(-3.196 -7.664)" fill="#9a9a9a"/>
    <path id="Trazado_18764" data-name="Trazado 18764" d="M866.746,394.88c-.354-.016-.31-.313-.376-.533.529-2.224,1.175-4.412,1.866-6.593.5-1.587,1.09-3.141,1.59-4.727.189.138.271-.005.326-.142a11.961,11.961,0,0,1,2.948-4.456,1.657,1.657,0,0,1,.478-.4,4.814,4.814,0,0,0,2.192-2.013c.57-.8,1.052-.885,1.862-.363a1.7,1.7,0,0,0,.223.145c1.266.546,1.461,1.127.743,2.334-.326.549-.7,1.07-1.171,1.784.713-.225,1.306-.732,1.731.058a.5.5,0,0,1,0,.716c-.774,1.9-2.217,3.4-3.116,5.221a2.548,2.548,0,0,0-.113.334l0,0c-.522.469-.454,1.129-.51,1.725a17.937,17.937,0,0,0,.006,1.875c.137.115.321.189.346.4-.551.4-.5,1-.564,1.593a8.537,8.537,0,0,1-1.359,3.905,3.362,3.362,0,0,0-.624,2.316,1.2,1.2,0,0,1-.122.415c-.313-.148-.134-.548-.382-.747-.456.116-.691.754-1.278.564a.515.515,0,0,1-.522-.517,8.028,8.028,0,0,0,2.659-3.281,11.045,11.045,0,0,0,1.019-5.052,9.433,9.433,0,0,1,2.012-6.073,14.1,14.1,0,0,0,1.451-2.426,4.345,4.345,0,0,0-1.923,1.77c-.461.769-.842,1.584-1.291,2.36-.2.34-.451.726-.912.463-.423-.241-.23-.638-.054-.95,1.192-2.1,2.286-4.263,3.609-6.29.254-.389.619-.733.5-1.329a10.819,10.819,0,0,0-1.82,2.171c-.986,1.6-1.883,3.258-2.773,4.917-.043.079-.079.162-.128.237-.23.347-.455.822-.96.511-.471-.291-.145-.683.038-1.015,1.386-2.5,2.533-5.148,4.385-7.385a27.572,27.572,0,0,0-2.38,2.936c-1.021,1.474-1.771,3.107-2.674,4.651-.186.317-.338.717-.791.471-.411-.222-.285-.628-.128-.955.614-1.284,1.346-2.5,2.062-3.732a32.5,32.5,0,0,0-3.633,7.713c-.674,2.226-1.227,4.489-1.977,6.692C867.115,394.46,867.119,394.792,866.746,394.88Z" transform="translate(-6.997 -4.909)" fill="#cd814b"/>
    <path id="Trazado_18765" data-name="Trazado 18765" d="M928.248,400.352c.051-3.01,0-6.017-.218-9.019-.065-.884-.526-1.721-.322-2.639.022.021.063.044.061.063-.086,1.134.56,1.479,1.567,1.56.605.048.92.63,1.285,1.042a6.586,6.586,0,0,1,1.339,5.447A4.218,4.218,0,0,1,928.248,400.352Z" transform="translate(-14.773 -6.605)" fill="#fbcf9f"/>
    <path id="Trazado_18766" data-name="Trazado 18766" d="M887.234,453.9q.588-1.531,1.175-3.063c.073-.193.12-.461.394-.371.252.083.171.364.144.551a12.7,12.7,0,0,1-.906,2.5c-.964,2.616-2.061,5.206-1.942,8.068a6.583,6.583,0,0,0,2.79,5.588c1.473.98,3.179.849,4.839.692a8.623,8.623,0,0,0,1.794-.506c.32-.1.7-.287.836.133a.614.614,0,0,1-.511.737c-1.248.068-2.443.627-3.708.422a13.761,13.761,0,0,1-3.121-.7c-3.072-1.835-3.852-4.716-3.419-8.347A21.407,21.407,0,0,1,887.234,453.9Z" transform="translate(-9.423 -14.441)" fill="#bf712d"/>
    <path id="Trazado_18767" data-name="Trazado 18767" d="M817.242,359.435c-1.277.047-2.368-.712-3.606-.834a3.7,3.7,0,0,1-.364-.072c.335.753,1.218.7,1.643,1.256-1.436-.285-2.395-1.454-3.689-2.049A53.031,53.031,0,0,1,817.242,359.435Z" transform="translate(0 -2.677)" fill="#f3d885"/>
    <path id="Trazado_18768" data-name="Trazado 18768" d="M927.522,434.853a4.842,4.842,0,0,0-2.481-.368C925.657,433.917,926.616,434.06,927.522,434.853Z" transform="translate(-14.441 -12.372)" fill="#fbcf9e"/>
    <path id="Trazado_18769" data-name="Trazado 18769" d="M875.062,442.619c-1.688-.51-3.452-.635-5.16-1.043-2.689-.643-5.424-1.058-8.13-1.618-3.172-.656-6.376-1.179-9.538-1.882-4.172-.929-8.4-1.609-12.493-2.884a4.04,4.04,0,0,1-2.654-4.11,9.5,9.5,0,0,1,2.288-4.925c2.212-2.962,4.571-5.8,6.806-8.745,2-2.626,4.094-5.177,6.106-7.791,2.546-3.306,5.239-6.494,7.78-9.8a10.028,10.028,0,0,0,1.332-1.785c.141-.3.338-.4.635-.175,1.139.853,2.275,1.71,3.426,2.547.625.454,1.28.866,1.917,1.3.349.238.389.457.134.865-.918,1.47-2.029,2.8-3.021,4.212-1.586,2.261-3.216,4.493-4.845,6.724-1.31,1.792-2.731,3.508-3.951,5.358-1.7,2.582-3.66,4.975-5.4,7.531-.348.513-.762.983-1.132,1.484-.3.4-.279.789.3.809,2.146.069,4.258.45,6.388.671,3.5.363,7,.8,10.494,1.2,2.488.29,4.976.588,7.465.871.415.047.836.035,1.253.051A100.505,100.505,0,0,1,875.062,442.619Z" transform="translate(-3.28 -7.753)" fill="#fefefe"/>
    <path id="Trazado_18770" data-name="Trazado 18770" d="M898.289,440.395c.029-.555,0-.952.782-.443a14.877,14.877,0,0,0,5.9,2.086,17.576,17.576,0,0,0,6.107-.052,21.055,21.055,0,0,0,5.645-1.844c.308-.155.569-.487.942-.136l-.162.376a11.137,11.137,0,0,1-.915,1.05q-3.814,4.714-7.627,9.426-2.443,3.018-4.89,6.032c-.11.136-.178.345-.382.334-.267-.014-.292-.265-.344-.46-.768-2.88-1.807-5.677-2.6-8.553C900.026,445.578,899.116,443,898.289,440.395Z" transform="translate(-11.047 -13.079)" fill="#fefefe"/>
    <path id="Trazado_18771" data-name="Trazado 18771" d="M914.519,473.062a13.852,13.852,0,0,1-6.379-1.514,4.41,4.41,0,0,1-1.452-1.282c-.167-.24-.291-.535-.029-.715.281-.193.423.121.507.332a2.7,2.7,0,0,0,1.638,1.3,12.167,12.167,0,0,0,7.578.981,11.141,11.141,0,0,0,2.818-1.32c.252-.129.549-.5.761-.155.291.473-.3.379-.491.489a11.4,11.4,0,0,1-3.647,1.756A9.07,9.07,0,0,1,914.519,473.062Z" transform="translate(-12.09 -16.857)" fill="#c46e22"/>
    <path id="Trazado_18772" data-name="Trazado 18772" d="M919.245,441.528a2.385,2.385,0,0,1,.915-1.05A1.4,1.4,0,0,1,919.245,441.528Z" transform="translate(-13.706 -13.176)" fill="#fbcf9e"/>
    <path id="Trazado_18773" data-name="Trazado 18773" d="M915.155,399.957a2.909,2.909,0,0,1,2.141-3.111,2.782,2.782,0,0,1,3.137.857c1.125,1.91.938,4.122-1.025,5.289A2.953,2.953,0,0,1,915.155,399.957Z" transform="translate(-13.183 -7.619)" fill="#f4b192"/>
    <path id="Trazado_18774" data-name="Trazado 18774" d="M884.476,404.941a3.014,3.014,0,1,1-6.007-.122,3.153,3.153,0,0,1,3.145-2.8C883.01,401.962,884.737,403.634,884.476,404.941Z" transform="translate(-8.532 -8.295)" fill="#f3b291"/>
    <path id="Trazado_18775" data-name="Trazado 18775" d="M877.085,389.289c-.209-.052-.382-.135-.346-.4a3.32,3.32,0,0,1,1.372-.352c2.053-.086,4.014-.718,6.028-.99,2.47-.334,4.706-1.4,7.088-2.007a18.243,18.243,0,0,0,3.212-1.489c.967-.461,1.911-.94,2.841-1.472a16.7,16.7,0,0,0,3.289-2.23,29.956,29.956,0,0,0,4.526-4.784,24.38,24.38,0,0,0,3.449-6.479,7,7,0,0,1,.452-.867c.091-.192.01-.58.378-.444.32.117.218.461.134.7a15.8,15.8,0,0,1-1.281,3.073,4.519,4.519,0,0,1-.973,1.462.628.628,0,0,0-.175.657,25.474,25.474,0,0,1-4.253,5.47,33.265,33.265,0,0,1-14.123,7.931A73.766,73.766,0,0,1,877.085,389.289Z" transform="translate(-8.312 -3.948)" fill="#67422e"/>
    <path id="Trazado_18776" data-name="Trazado 18776" d="M874.063,408.652a8.435,8.435,0,0,0,.3,2.9,3.419,3.419,0,0,1-.081,2l-2.02-6.309a2.879,2.879,0,0,1-.57-2.687,2.717,2.717,0,0,1,.785-1.347c.678-.616.631-1.043-.142-1.469-.1-.052-.157-.169-.234-.255a3.427,3.427,0,0,0,.934-.644c.156-.152.291-.454.554-.334s.106.418.135.637c.024.174.026.35.038.526-.231,2.23.223,4.445.151,6.672C873.907,408.445,874.01,408.549,874.063,408.652Z" transform="translate(-7.655 -8.101)" fill="#895b43"/>
    <path id="Trazado_18777" data-name="Trazado 18777" d="M906.138,416.37a42.071,42.071,0,0,0-5.171-.134,6.587,6.587,0,0,0-3.671,1.447,3.654,3.654,0,0,1-.433.313c-.311.172-.632.228-.873-.108s-.079-.6.2-.843a8.445,8.445,0,0,1,3.906-1.868c1.95-.4,3.919.015,5.88,0,.411,0,.856.2.8.76C906.746,416.287,906.49,416.435,906.138,416.37Z" transform="translate(-10.74 -9.943)" fill="#070404"/>
    <path id="Trazado_18778" data-name="Trazado 18778" d="M907.917,397.755a2.04,2.04,0,0,1-2-2.077,2.366,2.366,0,0,1,2.26-2,2.492,2.492,0,0,1,1.89,2.093A2.2,2.2,0,0,1,907.917,397.755Z" transform="translate(-12.014 -7.238)" fill="#070506"/>
    <path id="Trazado_18779" data-name="Trazado 18779" d="M890.718,398c.155.418-.069.641-.382.887a26.068,26.068,0,0,0-2.836,1.984.5.5,0,0,1-.79-.065c-.207-.258-.117-.533.083-.812.463-.643,1.219-.917,1.909-1.538-.892-.1-1.648-.162-2.4-.269-.407-.058-.919-.125-.864-.692s.492-.545.953-.473c1.144.177,2.293.313,3.44.466C890.062,397.772,890.45,397.779,890.718,398Z" transform="translate(-9.416 -7.657)" fill="#080505"/>
    <path id="Trazado_18780" data-name="Trazado 18780" d="M896.437,399.154c-.111.628-.224,1.3-.347,1.969-.132.719-.225,1.379.851,1.389.383,0,.818.175.723.706s-.508.451-.915.38a10.335,10.335,0,0,0-1.153-.089c-.831-.048-1.034-.325-.888-1.139a15.153,15.153,0,0,0,.472-3.257c-.018-.492-.049-1.156.644-1.171C896.646,397.924,896.282,398.667,896.437,399.154Z" transform="translate(-10.587 -7.779)" fill="#cf8047"/>
    <path id="Trazado_18781" data-name="Trazado 18781" d="M907.815,389.688a4.216,4.216,0,0,1-2.906-1.023c-.356-.258-.554-.57-.2-.966.327-.367.628-.19.914.086a2.665,2.665,0,0,0,3.354.389c.414-.213.767-.256.975.185s-.134.786-.486.912A13.6,13.6,0,0,1,907.815,389.688Z" transform="translate(-11.838 -6.453)" fill="#8f6249"/>
    <path id="Trazado_18782" data-name="Trazado 18782" d="M891.357,398.069c-.386-.013-.844.1-.884-.511A.8.8,0,0,1,891.357,398.069Z" transform="translate(-10.055 -7.73)" fill="#574d45"/>
    <path id="Trazado_18783" data-name="Trazado 18783" d="M897.92,352.017a15.052,15.052,0,0,1-.158,3.141c-.039.5.137.721.657.689.477-.03.957,0,1.435-.005,1.641,0,1.717-.08,1.859-1.724A13.48,13.48,0,0,0,899.5,344.03a14.577,14.577,0,0,0-2.125-2.49c-.121-.114-.322-.24-.174-.439.173-.234.394-.093.553.027a6.431,6.431,0,0,1,.945.805,16.35,16.35,0,0,1,3.873,8.915,11.315,11.315,0,0,1-.372,3.8c-.168.8-.064.93.7.763.2-.045.4-.1.609-.137s.464-.484.65-.032c.172.415-.232.489-.5.575a14.673,14.673,0,0,1-4.432.7,10.411,10.411,0,0,1-5.378-1.29,13.408,13.408,0,0,1-6.405-8.309c-.154-.545.191-1.212-.409-1.651-.077-.056-.019-.256.106-.292.168-.049.286.075.34.221.254.7.457,1.416.693,2.121a12.617,12.617,0,0,0,6.92,7.817,2.739,2.739,0,0,0,.419.154c1.633.45,1.585.386,1.743-1.282a19.727,19.727,0,0,0-.394-6.19,10.87,10.87,0,0,0-3.11-6.151c-.2-.181-.69-.41-.275-.767.4-.341.608.093.851.348a11.288,11.288,0,0,1,2.1,3.268,18.776,18.776,0,0,1,1.165,4.077A10.343,10.343,0,0,1,897.92,352.017Z" transform="translate(-9.615 -0.525)" fill="#65402d"/>
    <path id="Trazado_18784" data-name="Trazado 18784" d="M877.321,384.8c1.074-.81,2.447-.832,3.628-1.387,1.5-.7,3.07-1.267,4.614-1.834a38.91,38.91,0,0,0,7.766-4.211,32.409,32.409,0,0,0,6.827-6.089,41.633,41.633,0,0,0,4.632-7.108c.07-.127.07-.32.264-.276a.334.334,0,0,1,.253.414,1.637,1.637,0,0,1-.16.415,33.058,33.058,0,0,1-3.11,5.061,33.5,33.5,0,0,1-3.5,4.124,41.74,41.74,0,0,1-8.413,6.1,69.172,69.172,0,0,1-8.71,3.969c-1.208.481-2.5.747-3.754,1.109-.257.074-.3-.1-.339-.288Z" transform="translate(-8.386 -3.457)" fill="#66402d"/>
    <path id="Trazado_18785" data-name="Trazado 18785" d="M881.019,378.975c0-.238,0-.478,0-.716a57.834,57.834,0,0,0,7.452-4.972,44.83,44.83,0,0,0,5.1-4.449,15.664,15.664,0,0,0,3.866-5.983c.036-.114.061-.23.1-.343.084-.267-.169-.8.38-.708.5.087.185.571.148.832a6.587,6.587,0,0,1-.891,2.5,23.128,23.128,0,0,1-5.595,6.392c-.8.613-1.479,1.351-2.258,1.99-2,1.641-4.294,2.839-6.364,4.368A16.957,16.957,0,0,1,881.019,378.975Z" transform="translate(-8.855 -3.192)" fill="#66402d"/>
    <path id="Trazado_18786" data-name="Trazado 18786" d="M890.912,360.675a.516.516,0,0,1-.8.064,10.258,10.258,0,0,1-3.925-5.318,4.075,4.075,0,0,0-.743-1.956c-.279-.3-.176-.792.348-1.067A13.087,13.087,0,0,0,890.912,360.675Z" transform="translate(-9.398 -2)" fill="#66402c"/>
    <path id="Trazado_18787" data-name="Trazado 18787" d="M866.8,394.963q.545-1.836,1.09-3.672a45.664,45.664,0,0,1,2.865-8.2,17.373,17.373,0,0,1,2.334-3.636,3.258,3.258,0,0,1,.4-.3c-.828,1.485-1.57,2.814-2.308,4.145a4.4,4.4,0,0,0-.219.485c-.1.244-.283.546.1.673.3.1.349-.208.454-.423a42.265,42.265,0,0,1,4.949-7.761c.139-.176.334-.417.6-.22.28.211.181.486-.017.7-2,2.178-3.141,4.879-4.543,7.422-.114.208-.358.414-.068.605.318.21.517-.091.625-.314.856-1.766,1.864-3.448,2.826-5.155.5-.9,1.276-1.569,1.812-2.43a.455.455,0,0,1,.617-.216c.316.175.21.483.079.707-.722,1.228-1.488,2.432-2.2,3.668-.734,1.283-1.414,2.6-2.133,3.89-.127.227-.28.444.021.6s.443-.134.554-.324a25.473,25.473,0,0,0,1.276-2.348,7.5,7.5,0,0,1,2.188-2.3c.07-.065.259-.109.313-.065.16.131.113.333.044.5a14.367,14.367,0,0,1-1.494,2.433,19.437,19.437,0,0,0-1.949,3.607,2.762,2.762,0,0,0-.1,1.149,13.745,13.745,0,0,1-1.618,7.574,4.1,4.1,0,0,1-2.318,2.1c-1.284-.271-2.041-1.368-3.1-1.992A8.048,8.048,0,0,1,866.8,394.963Z" transform="translate(-7.051 -4.993)" fill="#fbcf9e"/>
    <path id="Trazado_18788" data-name="Trazado 18788" d="M871.537,405.15a13.084,13.084,0,0,0,.57,2.687,8.183,8.183,0,0,1-1.759-1.253A3.242,3.242,0,0,1,871.537,405.15Z" transform="translate(-7.501 -8.693)" fill="#e1ad83"/>
  </g>
</svg>
