<svg xmlns="http://www.w3.org/2000/svg" width="62.623" height="149.35" viewBox="0 0 62.623 149.35">
  <g id="Grupo_8148" data-name="Grupo 8148" transform="translate(-557.103 69.154)">
    <path id="Trazado_19173" data-name="Trazado 19173" d="M565.106,102.184a24.131,24.131,0,0,1-.713-11.04,37.219,37.219,0,0,1,2.766-9.921,66.366,66.366,0,0,1,4.649-8.768,44.336,44.336,0,0,1,4.721-6.273,1.457,1.457,0,0,0,.464-1.092,16.9,16.9,0,0,0,2.833.574,20.6,20.6,0,0,0,3.784-.449,16.7,16.7,0,0,0-2.021.153,7.173,7.173,0,0,1-4.215-.522c-2.4-1.261-3.19-3.412-3.327-5.916a13.08,13.08,0,0,1,.983-5.272c.277-.747.471-1.523.8-2.253-.639.631-.652,1.528-.968,2.3-.1.232.015.585-.374.649.183-.773-.448-1.368-.405-2.156a60.777,60.777,0,0,1,1.376-9.491,19.03,19.03,0,0,1,1.1-3.635,4.763,4.763,0,0,1,2.939-2.841c1.028-.333,1.922-.935,2.917-1.326.835-.235.993-.131,1.083.733a1.018,1.018,0,0,0,.114.557,6.783,6.783,0,0,1,.94,2.525c.416,1.781,1.076,3.488,1.656,5.215s.994,3.517,1.577,5.25c.723,2.15,1.453,4.3,2.019,6.439.2.109.279.022.34-.064,1.117-1.587,2.464-2.988,3.667-4.506,1.289-1.626,2.62-3.223,3.918-4.844,1.054-1.316,2.213-2.547,3.164-3.945a2.587,2.587,0,0,1,.652-.633,7.259,7.259,0,0,0,1.711-2.095,1,1,0,0,1,.216-.277c1.189-1.338,2.18-2.836,3.368-4.175.291-.329.563-.676.86-1a.668.668,0,0,1,.708.059c1.744.851,3.537,1.6,5.325,2.338,2.131.88,3.118,2.63,3.985,4.553a52.242,52.242,0,0,1,2.545,8.591c.352,1.363.525,2.775.828,4.157s.08,1.607-1.381,1.447a3.509,3.509,0,0,0-1.191-.087,18.454,18.454,0,0,0-6.5.624c-.666.222-1.259.573-1.895.844-.485.169-.457.571-.43.965.242,3.427.3,6.867.635,10.283.363,3.754.382,7.526.769,11.275a5.523,5.523,0,0,1-.427,2.583c-.974,2.564-2.011,5.1-2.981,7.671-.46,1.216-.891,2.446-1.406,3.642-1.238,2.878-2.261,5.843-3.473,8.732a1.619,1.619,0,0,1-.248.43Z" transform="translate(-1.483 -21.988)" fill="#f79630"/>
    <path id="Trazado_19174" data-name="Trazado 19174" d="M593.51-69.154c.855.274,1.762.26,2.625.591a9.685,9.685,0,0,1,3.628,2.781,17.729,17.729,0,0,1,3.178,5.683,7.248,7.248,0,0,1,.153,4.4,9.059,9.059,0,0,1-3.641,5.252c-.2.145-.4.282-.706.5.906.406,1.722.755,2.525,1.135a23.5,23.5,0,0,1,8.772,7.1,23.528,23.528,0,0,1,3.261,6,26.509,26.509,0,0,1,1.324,6.2,12.2,12.2,0,0,1,.149,2.97c-.543.215-.651-.275-.857-.556a3.821,3.821,0,0,0-2.678-1.775c-1.286-.146-1.669.181-1.678,1.446-.009,1.08.07,2.157.092,3.235.048,2.321-.085,4.641-.239,6.959q-.294,4.427-.876,8.824a8.544,8.544,0,0,1-.871,3.344,13.347,13.347,0,0,1-.521,1.866,3.436,3.436,0,0,1-.454-1.906c-.04-2.3-.045-4.6-.292-6.882-.331-3.058-.62-6.128-1.233-9.144-.573-2.819-1.275-5.609-2.088-8.376a48.4,48.4,0,0,0-3.383-8.206,16.235,16.235,0,0,0-1.535-2.371,6.4,6.4,0,0,1,.984-2.417,18.746,18.746,0,0,0,1.309-3.9,16.831,16.831,0,0,0-.851,2.375,25.567,25.567,0,0,1-5.391,8.879,29.778,29.778,0,0,1-8.422,6.394,50.622,50.622,0,0,1-6.878,2.9,102.977,102.977,0,0,1-10.119,2.6,21,21,0,0,1-2.773.43c.629.3,1.251-.024,1.884-.09.359-.036.759-.3,1.062.141a3.941,3.941,0,0,1-.216,1.464,27.746,27.746,0,0,0-.518,8.734c.061.813.01,1.63.125,2.441a.62.62,0,0,1-.143.406,34.132,34.132,0,0,0,.929,6.954,1.32,1.32,0,0,1,.017.7,34.744,34.744,0,0,1-2.136-5.3c-.593-1.9-1-3.845-1.491-5.767a44.047,44.047,0,0,1-.67-5.51,34.19,34.19,0,0,1-.319-4.38,31.325,31.325,0,0,1,1.357-10.2,30.828,30.828,0,0,1,3.159-6.884,27.961,27.961,0,0,1,5.541-6.269,25.208,25.208,0,0,1,7.362-4,10.96,10.96,0,0,1,2.992-.751,20.106,20.106,0,0,1-1.667-3.435,12.152,12.152,0,0,1,.518-8.228,10.011,10.011,0,0,1,5.135-5.468,23.513,23.513,0,0,1,2.9-.89Z" transform="translate(-1.587 0)" fill="#875a42"/>
    <path id="Trazado_19175" data-name="Trazado 19175" d="M620.565,62.07c2.682-1.532,5.6-1.688,8.58-1.457.4.254.338.669.347,1.048.075,3.292.347,6.576.431,9.867.016.608.046,1.216.054,1.822.053,3.849.278,7.694.188,11.545a14.775,14.775,0,0,1-.734,4.481c-1,2.9-2.065,5.781-3.346,8.582s-2.448,5.638-3.819,8.389c-.267.537-.42,1.161-1,1.492h-7.657a1.63,1.63,0,0,1,.209-1.272q1.937-4.954,3.894-9.9c.989-2.5,1.917-5.018,2.951-7.5.331-.792.574-1.619.949-2.394a2.01,2.01,0,0,0,.227-1.048c-.209-2.289-.263-4.588-.377-6.881-.1-1.937-.4-3.852-.456-5.793-.065-2.212-.286-4.419-.419-6.63-.071-1.188-.069-2.38-.213-3.565A1.032,1.032,0,0,1,620.565,62.07Z" transform="translate(-12.03 -27.644)" fill="#fefefe"/>
    <path id="Trazado_19176" data-name="Trazado 19176" d="M630.044,104.977c.018,2.6,0,5.209.072,7.812.045,1.508.153,3.015.083,4.526h-5.992a5.118,5.118,0,0,1,.845-2.205c1.455-3.14,2.868-6.3,4.272-9.462C629.461,105.334,629.568,104.946,630.044,104.977Z" transform="translate(-14.304 -37.118)" fill="#f79630"/>
    <path id="Trazado_19177" data-name="Trazado 19177" d="M629.864,95.509c-.378.162-.449.547-.592.863-1.4,3.089-2.773,6.185-4.168,9.274-.336.744-.718,1.467-1.079,2.2h-.666c1.636-3.255,3.05-6.612,4.569-9.919,1.128-2.457,2.039-4.989,3.029-7.489a17.791,17.791,0,0,0,1.091-7.209c-.108-3.212-.1-6.428-.219-9.639s-.157-6.445-.434-9.66c-.1-1.1.01-2.213-.159-3.312a1.787,1.787,0,0,1,1.026.035c-.43.067-.391.386-.377.693.045.966.072,1.934.137,2.9.193,2.9.228,5.8.385,8.694.189,3.483.331,6.969.368,10.452a20.643,20.643,0,0,1-1.588,8.15A21.021,21.021,0,0,0,629.864,95.509Z" transform="translate(-14.124 -27.651)" fill="#9d9c9b"/>
    <path id="Trazado_19178" data-name="Trazado 19178" d="M620.448,62.488c.156,2.342.375,4.682.447,7.026.053,1.706.145,3.418.3,5.1.234,2.475.315,4.957.562,7.429.143,1.43.017,2.878.235,4.307a1,1,0,0,1-.1.477c-1.034,2.627-2.084,5.249-3.109,7.88-1.231,3.158-2.435,6.325-3.663,9.484-.529,1.36-1.087,2.709-1.631,4.063h-.5A9.819,9.819,0,0,1,614,105.316c1.1-2.842,2.131-5.715,3.313-8.523,1.013-2.409,1.865-4.879,2.916-7.274,1.229-2.8,1.26-3.892.888-7.046-.164-1.4-.187-2.811-.286-4.217-.213-3.027-.485-6.052-.631-9.082-.068-1.408-.162-2.815-.213-4.223a8.912,8.912,0,0,0-.134-1.4C619.757,63.071,619.788,62.582,620.448,62.488Z" transform="translate(-11.914 -28.062)" fill="#9e9a95"/>
    <path id="Trazado_19179" data-name="Trazado 19179" d="M568.912-4.681a15.68,15.68,0,0,1-.129-4.956,25.935,25.935,0,0,1,.984-5.356c.592-.618,1.441-.524,2.161-.683a63.3,63.3,0,0,0,11.666-3.559,32.066,32.066,0,0,0,9.57-5.917,26.483,26.483,0,0,0,5.487-6.621.957.957,0,0,1,.424-.5c.65.2.846.814,1.148,1.3a39.109,39.109,0,0,1,3.306,7.2,51,51,0,0,1,1.737,6.109c.452,1.99,1.017,3.959,1.3,5.98.384,2.734.773,5.468.979,8.226q.284,3.8.279,7.6c0,.2,0,.391.2.513-.034.1-.04.231-.108.3-.135.127-.182,0-.2-.114-.027-.244-.045-.488-.071-.773a20.742,20.742,0,0,0-2.608,2.062,25.621,25.621,0,0,1-5.224,3.095c-.32.148-.566.281-.37.657.826,1.587,1.414,3.28,2.22,4.88a11.39,11.39,0,0,0,5.845,5.334,1.056,1.056,0,0,0,1.173.021c-.863,1.3-1.951,2.428-2.913,3.653-.4.508-.573,1.216-1.261,1.477a11.575,11.575,0,0,0-2,.742,17.747,17.747,0,0,1-4.841,1.4c-3.589.353-7.129.188-10.43-1.531-.668-.348-1.176-.924-1.863-1.236-.157-1.218-1.138-2.161-1.112-3.459.012-.546-.513-.4-.873-.391.285-.223.562-.492.933-.137a.324.324,0,0,0,.375.073,10.46,10.46,0,0,0,4.139-2.318,6.8,6.8,0,0,0,1.8-5.884c-.192-1.3-.25-1.342-1.49-1.363a19.82,19.82,0,0,1-9.325-2.658,24.449,24.449,0,0,1-6.893-6.13,31.308,31.308,0,0,1-2.445-3.7,1.344,1.344,0,0,0-1.4-.519l0-.32c.63-.042.771-.336.372-.817A4.014,4.014,0,0,1,568.912-4.681Z" transform="translate(-2.461 -7.863)" fill="#fbcf9e"/>
    <path id="Trazado_19180" data-name="Trazado 19180" d="M577.1,58.9a8.743,8.743,0,0,1,1.16-3.2c.133-.166.261-.454.5-.314.217.126.1.4.009.6a19.844,19.844,0,0,0-1.829,6.037c-.281,2.706.358,5.817,3.262,7.251a6.982,6.982,0,0,0,3.973.419c.738-.079,1.474-.177,2.213-.249.181-.017.42-.038.435.248a.334.334,0,0,1-.32.329c-2.206.33-4.417.785-6.6-.109-.117-.047-.2-.182-.3-.275-2.582-1.466-3.269-3.892-3.275-6.615A9.357,9.357,0,0,1,577.1,58.9Z" transform="translate(-4.1 -26.54)" fill="#c37128"/>
    <path id="Trazado_19181" data-name="Trazado 19181" d="M589.905,40.013a.546.546,0,0,1,.738.116,10.9,10.9,0,0,0,5.723,2.367,23.548,23.548,0,0,0,4.8.177,16.044,16.044,0,0,0,3.855-.824c1.288-.346,2.459-.955,3.694-1.416.219-.081.308-.011.324.2l-.173.189c-.367.86-1.185,1.376-1.646,2.165q-1.421,1.7-2.843,3.4c-1.589,1.911-3.109,3.878-4.69,5.8-1.24,1.5-2.542,2.966-3.694,4.545a2.352,2.352,0,0,1-.7.7c-.335-1.037-.689-2.039-.982-3.057-.757-2.628-1.614-5.225-2.4-7.844-.559-1.866-1.106-3.751-1.833-5.566A3.847,3.847,0,0,1,589.905,40.013Z" transform="translate(-6.992 -23.25)" fill="#fefefe"/>
    <path id="Trazado_19182" data-name="Trazado 19182" d="M606.315,76.145c-2.346-.253-4.956-.5-6.892-2.569-.15-.161-.349-.293-.378-.532-.023-.183-.109-.415.117-.516.2-.087.268.118.373.243a8.172,8.172,0,0,0,5.694,2.654,11.879,11.879,0,0,0,5.841-1.146,2.272,2.272,0,0,0,.663-.481c.147-.129.322-.3.5-.119.221.216.021.405-.128.565a1.526,1.526,0,0,1-.38.319A12.769,12.769,0,0,1,606.315,76.145Z" transform="translate(-8.933 -30.197)" fill="#c57026"/>
    <path id="Trazado_19183" data-name="Trazado 19183" d="M611.916,43.237c.3-.91,1.146-1.406,1.646-2.165C613.346,42.047,612.5,42.539,611.916,43.237Z" transform="translate(-11.684 -23.496)" fill="#fbcf9e"/>
    <path id="Trazado_19184" data-name="Trazado 19184" d="M619.353,5.773c.592-2.756.849-5.555,1.179-8.351.361-3.049.405-6.1.587-9.152.1-1.645-.089-3.307-.149-4.962-.05-1.39-.017-1.456,1.351-1.59a3.7,3.7,0,0,1,3.371,1.689c.242.307.249.823.769.89.232,1.257.725,2.468.391,3.807-.134.537-.34,1.03-.513,1.544-.182.541-.319,1.1-.475,1.646a12.627,12.627,0,0,0-2.674.944c-.335.135-.264.57-.289.9-.076.991-.041,1.986-.076,2.979a41.444,41.444,0,0,1-.689,5.982A36.536,36.536,0,0,1,619.353,5.773Z" transform="translate(-13.27 -10.84)" fill="#fbcf9e"/>
    <path id="Trazado_19185" data-name="Trazado 19185" d="M622.848,4.556c-.34-.658-.008-1.309.094-1.929a45.6,45.6,0,0,0,.419-7.111c.006-.843.273-1.222,1.063-1.346a2.752,2.752,0,0,0,1.644-.716c.5-.511.432.038.508.3a29.287,29.287,0,0,1-2.491,8.506C623.73,3.069,623.2,3.76,622.848,4.556Z" transform="translate(-13.983 -13.301)" fill="#885a42"/>
    <path id="Trazado_19186" data-name="Trazado 19186" d="M602.943-53.5a12.888,12.888,0,0,1-5.045-.738,10,10,0,0,1-4.124-2.932,19.571,19.571,0,0,1-2.517-3.667c-.371-.725-.5-1.519-.843-2.246a.409.409,0,0,1,.294-.587c.246-.053.251.239.3.409a13.634,13.634,0,0,0,4,6.416c.892.828,1.954,1.393,2.86,2.2.815.722,2.009.264,3.02.456.283.054.286-.277.29-.5a19.376,19.376,0,0,0-1.171-7.544,11.619,11.619,0,0,0-3.7-5.436c-.108-.08-.263-.158-.148-.321a.393.393,0,0,1,.524-.117,4.019,4.019,0,0,1,.993.733,15.7,15.7,0,0,1,3.686,7.956,17.928,17.928,0,0,1,.4,5,.505.505,0,0,0,.661.53,10.232,10.232,0,0,1,2.039-.309.87.87,0,0,0,.895-.861,14.157,14.157,0,0,0-1.9-9.192,12.975,12.975,0,0,0-3.1-3.376c-.19-.161-.618-.291-.366-.6.2-.236.55-.085.815.127a13.979,13.979,0,0,1,4.865,7.693,19.563,19.563,0,0,1,.333,5.021c0,.8.263.753.81.547.306-.116.575-.348.932-.321.168.013.355.013.376.233.016.164-.12.209-.26.263C606.228-54.031,604.611-53.3,602.943-53.5Z" transform="translate(-7.091 -0.172)" fill="#653f2d"/>
    <path id="Trazado_19187" data-name="Trazado 19187" d="M598.494-34.111a15.853,15.853,0,0,1-3.285,4.834,29.805,29.805,0,0,1-7.686,6.232,48.334,48.334,0,0,1-7.631,3.409c-2.271.8-4.606,1.343-6.918,1.98-1.244.342-2.525.552-3.789.821a16.132,16.132,0,0,0-1.781.337,1.5,1.5,0,0,1-1.485-.314,3.657,3.657,0,0,1,1.5-.35,90.733,90.733,0,0,0,9.719-2.25,47.391,47.391,0,0,0,8.005-3.109,31.219,31.219,0,0,0,5.22-3.117,28.274,28.274,0,0,0,5.252-5.119,19.926,19.926,0,0,0,2.475-3.685A27.541,27.541,0,0,0,600.3-40.1c.023-.107.009-.253.075-.316.179-.167.179-.628.561-.456.292.132.134.415.072.661A26.586,26.586,0,0,1,598.494-34.111Z" transform="translate(-1.879 -6.021)" fill="#65402c"/>
    <path id="Trazado_19188" data-name="Trazado 19188" d="M596.18-43.729a5.37,5.37,0,0,1-.692,1.923,33.181,33.181,0,0,1-5.479,8.274,35.179,35.179,0,0,1-5.361,4.852c-1.545,1.1-3.185,2.043-4.8,3.032a42.516,42.516,0,0,1-5.456,2.81,35.768,35.768,0,0,1-5.93,2.193c-.8.186-1.563.526-2.35.769-.318.1-.8.424-.944-.02-.127-.4.467-.464.763-.566,1.117-.381,2.252-.715,3.388-1.038a35.883,35.883,0,0,0,4.51-1.717c1.438-.629,2.885-1.345,4.29-2.1,1.862-1,3.617-2.166,5.4-3.276a25.389,25.389,0,0,0,3.208-2.6,29.885,29.885,0,0,0,4.019-4.221,12.818,12.818,0,0,0,2.462-3.56c.2-.592.844-.873,1.065-1.466.391-1.049.807-2.087,1.2-3.135.113-.3.245-.592.615-.548C596.354-44.095,596.214-43.878,596.18-43.729Z" transform="translate(-1.716 -5.334)" fill="#65402d"/>
    <path id="Trazado_19189" data-name="Trazado 19189" d="M588.488-43.882a9.188,9.188,0,0,1-.94,2.444,26.634,26.634,0,0,1-4.218,5.665c-1.331,1.313-2.648,2.635-4.09,3.838-1.483,1.239-3,2.431-4.537,3.6a35.082,35.082,0,0,1-4.207,2.875c-1.5.819-2.841,2-4.558,2.42-.26.065-.58.267-.708-.1-.167-.481.294-.434.555-.5a16.735,16.735,0,0,0,3.537-1.87c1.526-.806,2.84-1.936,4.282-2.859a63.806,63.806,0,0,0,7.06-5.572,24.851,24.851,0,0,0,3.091-3.187,22.447,22.447,0,0,0,3.335-4.618,10.246,10.246,0,0,0,.871-2.285c.034-.179.046-.448.3-.415C588.5-44.423,588.481-44.171,588.488-43.882Z" transform="translate(-1.725 -5.265)" fill="#65402d"/>
    <path id="Trazado_19190" data-name="Trazado 19190" d="M592.223-49.941a9.785,9.785,0,0,1-2.889-4.352c-.247-.876-.371-1.772-.617-2.643-.067-.237-.012-.471.275-.5.242-.021.33.191.33.394a12.649,12.649,0,0,0,1.113,3.945,7.548,7.548,0,0,0,1.56,2.5A.605.605,0,0,1,592.223-49.941Z" transform="translate(-6.734 -2.498)" fill="#66402d"/>
    <path id="Trazado_19191" data-name="Trazado 19191" d="M568.98,2.793a11.535,11.535,0,0,0,.838,1.818c.128.207.471.453.248.714-.251.293-.6.1-.9-.03A7.584,7.584,0,0,1,568.98,2.793Z" transform="translate(-2.529 -15.337)" fill="#e2ab7d"/>
    <path id="Trazado_19192" data-name="Trazado 19192" d="M610.151-15.186a1.572,1.572,0,0,1-1.6-2,10.8,10.8,0,0,1,1.286-3.2c.228-.429.571-.324.751.046a10.557,10.557,0,0,1,1.265,3.468A1.544,1.544,0,0,1,610.151-15.186Z" transform="translate(-10.96 -10.337)" fill="#7bc6eb"/>
    <path id="Trazado_19193" data-name="Trazado 19193" d="M570.847-3.222a8.5,8.5,0,0,1,1.184-3.56c.244-.453.49-.415.669.039a22.976,22.976,0,0,1,1.279,3.116,1.7,1.7,0,0,1-.649,1.762,1.582,1.582,0,0,1-1.7.245C570.893-1.926,570.876-2.57,570.847-3.222Z" transform="translate(-2.93 -13.227)" fill="#79c6ed"/>
    <path id="Trazado_19194" data-name="Trazado 19194" d="M590.721.015c-.221,0-.443.009-.663,0-.651-.028-1.024-.294-.981-1.025a33.718,33.718,0,0,0,.168-3.885.465.465,0,0,1,.382-.552.573.573,0,0,1,.657.38,1.875,1.875,0,0,1,.086,1.22,9.494,9.494,0,0,0-.1,1.484c-.021,1.2-.02,1.206,1.182,1.386.29.043.558.072.611.427a.449.449,0,0,1-.2.505,1.224,1.224,0,0,1-.475.1c-.22.016-.441,0-.663,0Z" transform="translate(-6.815 -13.577)" fill="#cf8046"/>
    <path id="Trazado_19195" data-name="Trazado 19195" d="M601.136-8.551a3.929,3.929,0,0,1-1.592-.409c-.288-.189-.538-.457-.31-.825.211-.34.486-.2.788-.053a2.227,2.227,0,0,0,2.774-.478c.264-.3.518-.474.82-.187a.6.6,0,0,1-.064.889A3.327,3.327,0,0,1,601.136-8.551Z" transform="translate(-8.962 -12.471)" fill="#0b0706"/>
    <path id="Trazado_19196" data-name="Trazado 19196" d="M603.267-17.476a5.061,5.061,0,0,1-2.843-.9c-.3-.223-.681-.52-.4-.956.323-.5.648-.145.962.09a3.921,3.921,0,0,0,2.323.775c.376.008.984-.229.993.4C604.311-17.424,603.694-17.492,603.267-17.476Z" transform="translate(-9.128 -10.566)" fill="#8b5d43"/>
    <path id="Trazado_19197" data-name="Trazado 19197" d="M580-5.3c-.29.039-.511-.159-.771-.239-.348-.107-.637-.28-.509-.7.135-.445.511-.369.822-.255a2.2,2.2,0,0,0,2.279-.53,3.3,3.3,0,0,1,.47-.334.464.464,0,0,1,.662.109.485.485,0,0,1-.1.666A4.161,4.161,0,0,1,580-5.3Z" transform="translate(-4.6 -13.155)" fill="#0b0706"/>
    <path id="Trazado_19198" data-name="Trazado 19198" d="M593.974,11.387a1.165,1.165,0,0,1-1.042,1.166,1.1,1.1,0,0,1-1.2-1.185c-.011-.971.305-1.5.906-1.506A1.526,1.526,0,0,1,593.974,11.387Z" transform="translate(-7.382 -16.843)" fill="#0b0706"/>
    <g id="Grupo_8147" data-name="Grupo 8147" transform="translate(557.103 -43.743)">
      <path id="Trazado_19199" data-name="Trazado 19199" d="M575.833,14.588a.983.983,0,0,1-.161-1.953l13.311-2.23a.983.983,0,1,1,.324,1.939L576,14.574A.965.965,0,0,1,575.833,14.588Z" transform="translate(-560.886 26.787)" fill="#fff"/>
      <path id="Trazado_19200" data-name="Trazado 19200" d="M572.552,16.822a2.592,2.592,0,1,1,2.592-2.592A2.595,2.595,0,0,1,572.552,16.822Zm0-3.61a1.018,1.018,0,1,0,1.018,1.018A1.019,1.019,0,0,0,572.552,13.212Z" transform="translate(-559.843 26.521)" fill="#fff"/>
      <path id="Trazado_19201" data-name="Trazado 19201" d="M574.887,14.619a.59.59,0,0,1-.1-1.172l10.5-1.746a.591.591,0,0,1,.194,1.165l-10.5,1.746A.588.588,0,0,1,574.887,14.619Z" transform="translate(-560.768 26.509)" fill="#ff3d4a"/>
      <path id="Trazado_19202" data-name="Trazado 19202" d="M574.627,14.384a1.951,1.951,0,1,1-1.951-1.951A1.951,1.951,0,0,1,574.627,14.384Z" transform="translate(-560.006 26.352)" fill="#ff3d4a"/>
      <path id="Trazado_19203" data-name="Trazado 19203" d="M566.338-8.98a9.383,9.383,0,0,1-3.147-10.754c2.361-6.95,2.492-8.917.787-12.458,0,0,4.275,2.612.656,12.327A10.415,10.415,0,0,0,566.338-8.98Z" transform="translate(-558.275 35.864)" fill="#ff3d4a"/>
      <path id="Trazado_19204" data-name="Trazado 19204" d="M560.838-13.647A9.382,9.382,0,0,1,557.691-24.4c2.36-6.951,2.492-8.918.787-12.459,0,0,4.275,2.612.656,12.327A10.415,10.415,0,0,0,560.838-13.647Z" transform="translate(-557.103 36.859)" fill="#ff3d4a"/>
    </g>
  </g>
</svg>
