<svg xmlns="http://www.w3.org/2000/svg" width="129.432" height="161.329" viewBox="0 0 129.432 161.329">
  <g id="Grupo_8138" data-name="Grupo 8138" transform="translate(-987.347 -328.679)">
    <path id="Trazado_18789" data-name="Trazado 18789" d="M1111,439.106c.556.58,1.133-.006,1.7,0,4.59.053,9.182,0,13.772.045,1.635.016,3.284.183,4.388,1.675V488a1.724,1.724,0,0,1-1.841,1.07c-2.17-.026-4.34.076-6.509-.037a30.9,30.9,0,0,1-3.107.037,2.87,2.87,0,0,0-2.2.674,3.038,3.038,0,0,0-1.995-.675c-15.953.071-31.906.021-47.859.041a2.857,2.857,0,0,0-1.868.286c-.634.422-.819-.1-1.081-.5a26.015,26.015,0,0,1-2.288-4.485c-1.063-2.637-2.4-5.148-3.425-7.8-.211-.549-.723-1.178.129-1.673a5.81,5.81,0,0,1,1.8-.114q23.28-.006,46.561,0c1.809,0,2.253-.41,2.265-2.277.026-4.152.006-8.3.013-12.457a8.879,8.879,0,0,0-.286-1.663,4.877,4.877,0,0,1,.071-2.5,5.558,5.558,0,0,0,.216-1.788c0-3.466-.03-6.933.025-10.4a31.615,31.615,0,0,1,.9-3.851C1110.464,439.552,1110.53,439.152,1111,439.106Z" transform="translate(-14.081 -21.903)" fill="#f2f0d9"/>
    <path id="Trazado_18790" data-name="Trazado 18790" d="M987.347,439.395c1.7-2.076,3.944-1.915,6.229-1.5a15.376,15.376,0,0,0,2.384-.19c2.565.1,5.144-.254,7.7.224a6.185,6.185,0,0,0,1.66-.218,2.94,2.94,0,0,1,2.167.888c.206.176.377.527.673.418.39-.142.222-.557.225-.854.019-2.093.019-4.185.025-6.279.78.232.559.907.55,1.409-.05,2.771.022,5.538-.141,8.314-.153,2.623.256,5.28.117,7.916-.205,3.882.07,7.764-.148,11.648-.164,2.928-.035,5.874-.032,8.812,0,3.4.006,3.4,3.393,3.4q4.286,0,8.572,0a3.7,3.7,0,0,1,1.547.162c.633.438.475,1.074.326,1.635-.61,2.281-1.036,4.606-1.622,6.892a44.7,44.7,0,0,1-1.116,4.536c-.219.588-.341,1.286-1.226,1.2a8.963,8.963,0,0,0-2.272-.136c-5.131-.026-10.262.038-15.393-.032-1.8.076-3.6-.079-5.392.118-1.987-.167-3.979-.088-5.969-.111a2.594,2.594,0,0,1-2.257-.847Z" transform="translate(0 -20.471)" fill="#f2f0d9"/>
    <path id="Trazado_18791" data-name="Trazado 18791" d="M1102.141,370.065c-.2.406-.392.813-.592,1.217a.1.1,0,0,1-.095.036c-.03-.012-.047-.057-.069-.088a12.774,12.774,0,0,1-.016-3.845,12.906,12.906,0,0,0,.117-4.072c-.113-1.316-.184-2.637-.3-3.951-.457-3.468-.867-6.948-2.306-10.2-.418-.943-.552-.994-1.193-.233-3.44,4.084-8.036,6.026-13.095,7.121a38.57,38.57,0,0,1-4.65.689,1.671,1.671,0,0,0-1.689,1.651c-.214,1.309-.495,2.607-.594,3.933-.265.748-.029,1.547-.231,2.3a1.6,1.6,0,0,1-.207.336v4.1a8.109,8.109,0,0,1-1.041-3.574c-.756-5.373-1.09-10.755,1.229-15.873,2.416-5.333,6.27-8.975,12.29-9.866.546-.08.945-.165.571-.879-1.969-3.758.516-9.354,4.758-10.1.027,0,.047-.063.069-.1h2.177c.167.418.752.063.913.491-.066.666.51.966.839,1.38a8.688,8.688,0,0,1,1.623,6.842c-.087.7-.331,1.321-1.259,1.336-1.105.017-1.415-.172-1.375-1.276a14.936,14.936,0,0,0-.952-5.9c-.205-.544-.571-.963-.842-1.562a12.764,12.764,0,0,1,1.763,7.522c-.054.9-.363,1.025-1.257.775-2.877-.8-4.065-3.1-5.01-5.357a8.49,8.49,0,0,0,3.553,4.784,7.029,7.029,0,0,0,4.835.907c.574-.095,1.149-.438,1.733-.027-.2,1.414-1.5,1.87-2.514,2.729q9.518,5.195,8.551,15.857c-.726-.062-.92-.818-1.471-1.129-.954-.538-1.411-.4-1.565.685-.349,2.456-.53,4.935-.954,7.383a41.725,41.725,0,0,1-1.135,4.79A2.841,2.841,0,0,1,1102.141,370.065Z" transform="translate(-17.507 0)" fill="#895b41"/>
    <path id="Trazado_18792" data-name="Trazado 18792" d="M1055.184,511.167c-1.6-1.1-1.862-1.95-.991-3.824s1.927-3.555,4.376-3.44c1.238-.027,1.928.834,2.659,1.634.855.936.779.838,1.732.038a4.531,4.531,0,0,0,1.416-3.364c1.146.269,1.147,1.116.924,1.984a7.365,7.365,0,0,1-1.677,2.751,15.987,15.987,0,0,1-6.02,4.221Z" transform="translate(-13.161 -34.42)" fill="#ad9787"/>
    <path id="Trazado_18793" data-name="Trazado 18793" d="M1096.27,394.4a7.555,7.555,0,0,1,5.079,7.071c.029,1.442.018,2.885.026,4.327a5.556,5.556,0,0,1-.067,3.183c-.206,1.019-1.009.347-1.575.262a12.178,12.178,0,0,0-4.254-.76,1.417,1.417,0,0,0-1.623,1.359c-.73,3.875-1.736,7.7-2.395,11.583-.384,2.265-1.763,3.845-3.044,5.524-2.2,2.879-4.386,5.764-6.514,8.693-.688.947-1.475,1.809-2.175,2.742a2.406,2.406,0,0,0-.391.458c-.752,1.431-.757,1.469-2.369,1.162a22.751,22.751,0,0,0-5.058-.258c-.48.016-1.048.022-.753.8a1.285,1.285,0,0,1-1.442.281,16.4,16.4,0,0,1-8.292-4.52,4.938,4.938,0,0,0-1.012-.843,1.693,1.693,0,0,1-.634-.882c-.08-.9.391-.887,1.043-.659a8.555,8.555,0,0,0,3.644.781c-.309-.376-.812-.277-1.085-.59a.618.618,0,0,1-.119-.313c-.2-1.029-1.191-1.247-1.893-1.663-1-.6-1.776-1.191-1.767-2.479a1.791,1.791,0,0,0-.574-1.3,2.109,2.109,0,0,1-.567-2.306,23.822,23.822,0,0,1,5.458-10.746c1.182-1.43,2.521-2.709,3.8-4.042a2.648,2.648,0,0,1,1.2-.641l3.227-2.4c1.139.1,2.076.947,3.137.913-1.475-.3-3.006-.661-3.685-2.425a5.075,5.075,0,0,1-.09-3.172,10.432,10.432,0,0,1,1.847-3.652c-.208.227-.309.584-.724.529-.384-.742.178-1.307.394-1.916a35.387,35.387,0,0,1,2.89-6.041c.891-1.514,2.346-1.786,3.882-1.953,1.653-.219,1.827-.093,1.829,1.542,0,2.2-.1,4.395.042,6.588.313,1.779,0,3.594.22,5.5,3.616-2.294,6.835-4.963,10.34-7.22.973-.628,1.814-1.44,2.836-2A4.4,4.4,0,0,1,1096.27,394.4Z" transform="translate(-14.083 -12.247)" fill="#fe972b"/>
    <path id="Trazado_18794" data-name="Trazado 18794" d="M1085.29,391.42a36.52,36.52,0,0,1-.172-6.971c.033-1.194-.269-1.731-1.5-1.546.966-.651,2,.051,3.034-.169a4.8,4.8,0,0,0,3.457-2.659c.334-.639-.046-.936-.591-.987-4.48-.415-7.358-3.221-9.826-6.6a8.128,8.128,0,0,1-1.013-2.172.922.922,0,0,0-1.074-.7.243.243,0,0,1,.014-.232c.447-.8-.2-1.673.173-2.477a18.3,18.3,0,0,1,.774-4.861c.149-.618.5-.838,1.187-.907,4.423-.44,8.764-1.246,12.728-3.406a18.249,18.249,0,0,0,6.345-5.628,29.943,29.943,0,0,1,2.97,11.679c-.107.669-.648.406-1.009.43-1.261.086-2.058.744-2.021,1.732a1.886,1.886,0,0,0,2.207,1.821c.932-.107,1.243.181,1.168,1.1-.088,1.077.079,2.164-.089,3.243a15,15,0,0,1-.279,3.776c-1.345.419-2.249,1.578-3.574,2.072-1.983.74-1.818.784-1.606,3.008a7.863,7.863,0,0,0,3.49,5.843l-3.857,2.679c-1.386-.175-2.765.131-4.173-.059a10.78,10.78,0,0,1-6.424-3c.033,1.265.034,2.465.015,3.664C1085.639,390.549,1085.728,391.06,1085.29,391.42Z" transform="translate(-17.899 -4.645)" fill="#fed0a2"/>
    <path id="Trazado_18795" data-name="Trazado 18795" d="M1027.635,470.463c-4.23,0-8.459-.019-12.689.01-.8.006-1.068-.191-1.146-1.06a133.043,133.043,0,0,1-.15-13.872c.029-2.16.114-4.306-.014-6.472-.107-1.816.264-3.659.164-5.475-.255-4.659.17-9.311.024-13.965-.01-.353.09-.735-.219-1.026,0-3.056.026-6.113-.007-9.169-.028-2.625,1.213-3.974,3.842-3.9,4.579.121,9.162.072,13.744.11a.6.6,0,0,0,.583-.32c1.119.455,1.352,1.041.681,1.72a5.134,5.134,0,0,0-2.116-.4c-4.27.009-8.538-.006-12.807.009-2.221.007-2.822.6-2.824,2.779q-.011,14.861,0,29.723c0,2.43.709,3.194,3.158,3.243,3.825.076,7.652.013,11.477.029a3.464,3.464,0,0,1,1.887.27c.323.444.4.85-.186,1.146a14.892,14.892,0,0,0-2.763-.184c-3.744.01-7.487-.014-11.23.011-1.885.013-2.339.486-2.346,2.387q-.019,5.555,0,11.11c.007,1.706.457,2.169,2.148,2.185,3.058.028,6.117,0,9.177.013a3.482,3.482,0,0,1,1.773.243C1028.059,469.953,1028.24,470.282,1027.635,470.463Z" transform="translate(-5.196 -17.185)" fill="#d3d0bd"/>
    <path id="Trazado_18796" data-name="Trazado 18796" d="M995.2,493.448a2.6,2.6,0,0,0-.963-1.649l-2.942-4.85c-.137-.248-.182-.452.212-.451l4.064,4.359c.223-1.429.021-2.726.455-4.118l3.7,5.336c.271.408.545.387.822.006l1.013-2.363c.864.6.81,1.741,1.521,2.369a1.054,1.054,0,0,1,.58.64c.749,1.739,1.818,3.317,2.548,5.064.218.52.889,1.245.293,1.6-.64.386-.929-.556-1.213-1.014-.908-1.469-2.136-2.683-3.1-4.262-.429.714-.451,1.389-.779,1.942-.493.832-.8.885-1.441.169-.863-.961-1.458-2.122-2.3-3.1-.126-.147-.214-.336-.422-.431-.091.667-.018,1.343-.157,1.991-.143.672-.564.782-1.028.3A2.555,2.555,0,0,1,995.2,493.448Z" transform="translate(-0.763 -31.303)" fill="#fcc114"/>
    <path id="Trazado_18797" data-name="Trazado 18797" d="M1013.881,481.15c.934,2.035,1.655,4.166,2.714,6.078l3.657-3.534c.562,3.067,1.1,5.987,1.632,8.906l-.178.059-2.3-5.248-3.31,3.47c-1.011-3.122-1.651-6.214-2.451-9.262C1013.5,481.352,1013.453,481.131,1013.881,481.15Z" transform="translate(-5.196 -30.242)" fill="#fbc214"/>
    <path id="Trazado_18798" data-name="Trazado 18798" d="M1047.661,416.338l-.35-.67,19.427-.044-.924.719a3.7,3.7,0,0,1-1.863.382c-4.857,0-9.714,0-14.572-.007A2.349,2.349,0,0,1,1047.661,416.338Z" transform="translate(-11.894 -17.245)" fill="#d4d1c2"/>
    <path id="Trazado_18799" data-name="Trazado 18799" d="M1075.789,402.533c.51-.376.637-1.125,1.554-1.432-.636.986-1.23,1.772-1.683,2.633-.894,1.7-1.386,3.444-.5,5.364.739,1.6,2.2,1.645,3.587,1.926.3.062.643-.085,1.035.285-1.784.649-3.075-.448-4.48-.97-1.719-2.383-1.16-4.733.1-7.073C1075.539,403.023,1075.662,402.777,1075.789,402.533Z" transform="translate(-17.232 -14.365)" fill="#d18030"/>
    <path id="Trazado_18800" data-name="Trazado 18800" d="M1106.607,412.8c1.615.564,1.625-.411,1.563-1.566a8.314,8.314,0,0,1,.226-1.631,44.547,44.547,0,0,1,8.348,2.7c3.895,1.92,3.583,2.1,3.407,6.085a85.666,85.666,0,0,1-2.126,14.867q-.6,2.189-1.2,4.376a9.4,9.4,0,0,1-.686,2.758,66.549,66.549,0,0,1-4,9.25,7.368,7.368,0,0,1-1.105,1.708c-.426.459-.8.968-1.245,1.408-1.227,1.133-2.721.746-4.108.605-1.582-.16-3.159-.434-4.731-.71a49.865,49.865,0,0,1-5.369-1.257c-.639-.168-1.367-.2-1.825-.8-.112-.594.307-.98.6-1.382,1.739-2.377,2.48-5.162,3.308-7.916a16.282,16.282,0,0,1,1.336-4.079c.519-.38.954-.013,1.3.249a19.489,19.489,0,0,1,5.48,5.959,4.826,4.826,0,0,1,.234.68c.054.152.2-.091.073,0-.023.017-.047-.012-.078-.085a15.432,15.432,0,0,0-4.25-5.412,16,16,0,0,1-2.54-2.156c-.16-.669.215-1.24.34-1.869-1.286,1.368-2.283,2.973-3.6,4.311-.389.4-.7,1.055-1.464.637-.077-.6.322-.963.661-1.356,1.6-1.853,3.126-3.769,4.651-5.685a18.4,18.4,0,0,0,3.48-7.333c.889-3.709,1.872-7.4,2.669-11.128C1106.069,413.576,1106.084,413.05,1106.607,412.8Z" transform="translate(-21.104 -16.051)" fill="#b29c84"/>
    <path id="Trazado_18801" data-name="Trazado 18801" d="M1108.705,376.662a64.822,64.822,0,0,0,2.334-13.776c.055-.861.472-1,1.16-.931,1.138.121,1.646,1.026,2.238,1.822a5.907,5.907,0,0,1-.717,4.167c-.166.111-.293.336-.451.377-1.587.409-1.684,1.652-1.717,2.956a15.669,15.669,0,0,1-.716,3.211C1110.157,375.241,1109.74,376.255,1108.705,376.662Z" transform="translate(-24.071 -6.597)" fill="#fdd0a3"/>
    <path id="Trazado_18802" data-name="Trazado 18802" d="M1105.731,338.716a11.672,11.672,0,0,1-5.456-.14,7.38,7.38,0,0,1-4.363-4.18,3.948,3.948,0,0,1-.629-2.591c.53,1.122.885,1.959,1.312,2.759a7.1,7.1,0,0,0,4.3,3.737c.806.237.718-.36.75-.83a11.807,11.807,0,0,0-2.089-7.724c-.067-.1-.119-.205-.184-.322.766.178,1.332.837,1.776,2.085a15.942,15.942,0,0,1,1,6.14c-.043.917.58,1.306,1.411,1.032.536-.176.608-.672.658-1.066.3-2.37.123-4.655-1.458-6.619-.3-.374-.624-.73-.912-1.113-.221-.293-.177-.525.233-.591l1.014.5a10.045,10.045,0,0,1,2.023,6.9c-.064.671-.05,1.3.89,1.353.149.008.1.263-.01.4Z" transform="translate(-21.402 -0.122)" fill="#704631"/>
    <path id="Trazado_18803" data-name="Trazado 18803" d="M1107.914,338.563l-.025-.113c-1.5.232-1.234-.847-1.161-1.658a9.478,9.478,0,0,0-1.594-6.133c-.164-.253-.316-.459-.124-.749C1107.655,331.455,1109.219,336.115,1107.914,338.563Z" transform="translate(-23.32 -0.244)" fill="#8a5b42"/>
    <path id="Trazado_18804" data-name="Trazado 18804" d="M1111.339,375.973c-.395-1.082.474-2.019.359-3.072-.016-.149.119-.316.1-.463-.273-1.881.636-2.8,2.427-3.009A20.138,20.138,0,0,1,1111.339,375.973Z" transform="translate(-24.573 -8.083)" fill="#8d5e45"/>
    <path id="Trazado_18805" data-name="Trazado 18805" d="M1064.058,498.056c.862,2.123-.938,3.094-1.934,4.4-.322.422-.6.071-.847-.236a7.555,7.555,0,0,0-3.025-2.467c.115-.824,1.021-1.154,1.208-1.933a.39.39,0,0,0,.014-.544c-2.775-3.929-4.535-8.429-7.039-12.511a2.262,2.262,0,0,1-.334-1.27,7.9,7.9,0,0,1,4.172-2.229,5.656,5.656,0,0,1,.905,1.457,1.488,1.488,0,0,1,.123.827,27.859,27.859,0,0,0,1.942,4.693c1.2,2.549,2.107,5.236,3.531,7.673.382.654.509,1.511,1.271,1.923A.972.972,0,0,1,1064.058,498.056Z" transform="translate(-12.843 -30.265)" fill="#fed0a2"/>
    <path id="Trazado_18806" data-name="Trazado 18806" d="M1058.521,476.267c-.294-.164-.253-.451-.262-.719.653-.58,1.455-.386,2.2-.386q22.559-.018,45.116-.009c3.055,0,3.11-.054,3.11-3.116,0-3.427.016-6.854-.006-10.281-.013-1.894-.4-2.214-2.286-2.3-1.2-.051-2.407.261-3.591-.12l.968-1.186a12.061,12.061,0,0,0,2.521.09,2.315,2.315,0,0,0,2.419-2.455c.056-1.77.05-3.543,0-5.313-.029-1.085.18-2.154.128-3.236l.952-2.674c0,3.586.135,7.178-.025,10.757-.257,5.766.205,11.522.046,17.285-.1,3.65-.017,3.655-3.545,3.656Z" transform="translate(-14.065 -22.986)" fill="#d4d1bf"/>
    <path id="Trazado_18807" data-name="Trazado 18807" d="M1137.216,501.013c-.313,2.256-.663,4.507-.919,6.769-.079.7-.287.954-1.011.966-2.47.042-2.446.066-2.732-2.416-.169-1.461-.428-2.912-.646-4.367-.093-.766.21-1.034,1.006-.992C1134.344,501.046,1135.781,501.006,1137.216,501.013Z" transform="translate(-28.67 -34.173)" fill="#805a31"/>
    <path id="Trazado_18808" data-name="Trazado 18808" d="M1029.687,482.7c.27-.181.216-.46.22-.722a3.335,3.335,0,0,1,.224-1.761,13.822,13.822,0,0,0,.543-3.151c.972-.24,1.76.364,2.63.585a12,12,0,0,1,2.611.828c.337.851-.421,1.452-.522,2.212a6.977,6.977,0,0,1-.441,1.218,2.576,2.576,0,0,0-.358,1.006c-.719,2.75-1.792,5.385-2.614,8.1a44.47,44.47,0,0,1-1.88,5.293,1.263,1.263,0,0,0,.055,1.152,1.8,1.8,0,0,0,.406,1.464c-.27,2.079-1.955,2.524-3.553,3.052-.558.184-1.145.057-1.285-.537a14.345,14.345,0,0,0-1.833-3.953,3.044,3.044,0,0,0,2.15-.762c1.125-.988,1.049-2.464,1.409-3.726.678-2.377,1.095-4.828,1.662-7.237A13.2,13.2,0,0,0,1029.687,482.7Z" transform="translate(-7.248 -29.421)" fill="#fed0a3"/>
    <path id="Trazado_18809" data-name="Trazado 18809" d="M1002.884,501.005c-.3,2.387-.619,4.771-.905,7.16-.049.408-.208.578-.6.547a.756.756,0,0,0-.12,0c-2.639.2-2.614.2-2.932-2.467-.2-1.676-.486-3.343-.733-5.014.965-.57,2.012-.156,3.018-.238C1001.363,500.933,1002.126,501,1002.884,501.005Z" transform="translate(-2.032 -34.165)" fill="#815a31"/>
    <path id="Trazado_18810" data-name="Trazado 18810" d="M1107.209,374.99c-.015-1.12-.04-2.239-.041-3.359,0-.6-.119-.886-.842-.675a1.981,1.981,0,0,1-2.515-1.259,2.033,2.033,0,0,1,.6-2.564c.373-.394.761-.315,1.186-.334.454-.02.934.19,1.36-.13A29.422,29.422,0,0,1,1107.209,374.99Z" transform="translate(-23.052 -7.535)" fill="#f6b393"/>
    <path id="Trazado_18811" data-name="Trazado 18811" d="M1095.833,348.154a10.6,10.6,0,0,1-2.859,3.644,29.783,29.783,0,0,1-11.744,5.989,41.7,41.7,0,0,1-4.069,1c-.276.046-.61.239-.709-.142-.123-.473.367-.348.572-.382a37.07,37.07,0,0,0,7.164-1.969,27.709,27.709,0,0,0,8.265-4.828C1093.66,350.433,1094.682,349.238,1095.833,348.154Z" transform="translate(-17.67 -3.863)" fill="#724731"/>
    <path id="Trazado_18812" data-name="Trazado 18812" d="M1077.794,370.565c.125.672-.1,1.37.345,2.035.29.435-.24.4-.519.442A6,6,0,0,1,1077.794,370.565Z" transform="translate(-17.897 -8.308)" fill="#f6b796"/>
    <path id="Trazado_18813" data-name="Trazado 18813" d="M1031.639,498.775c-.606-.979-.025-1.883.258-2.751,1.229-3.774,2.536-7.523,3.8-11.285a3.21,3.21,0,0,0,.076-.718,2.128,2.128,0,0,1,1.6-.363c3.014-.014,6.029.018,9.041-.018a6.123,6.123,0,0,1,1.647.352q3.576,6.639,7.156,13.275c.181.335.6.615.127,1.021-.053-.655-.5-.727-1.031-.726-7.244,0-14.488.02-21.73-.018C1031.562,497.537,1031.622,498.109,1031.639,498.775Z" transform="translate(-8.732 -30.736)" fill="#f2f0d9"/>
    <path id="Trazado_18814" data-name="Trazado 18814" d="M1022.3,502.471a4.954,4.954,0,0,1,1.942,3.436c.137.845.533,1.1,1.328.7a11.559,11.559,0,0,1,1.332-.537c.784-.277,1.471-.612,1.539-1.6a.566.566,0,0,1,.53-.562c.379,1.357.05,2.1-1.381,2.921a13.908,13.908,0,0,1-7.983,1.913c-1.7-.11-3.438-1.178-3.7-2.273-.279-1.178.6-2.448,2.414-3.384C1019.565,502.446,1020.821,501.706,1022.3,502.471Z" transform="translate(-5.655 -34.407)" fill="#ad9787"/>
    <path id="Trazado_18815" data-name="Trazado 18815" d="M1041.154,416.508l18.153,0a75.894,75.894,0,0,0-5.318,6.048,23.972,23.972,0,0,0-3.961,8.688c-.146.372-.368.7-.547,1.061-1.249,2.471-1.1,3.725.827,5.689a4.451,4.451,0,0,1,.972,1.726l.513.7a.441.441,0,0,1,.074.344c-.325.89-1.118,1.2-1.9,1.536-.553.237-1.073.542-1.626.779-4.08,1.383-8.248,2.511-12.117,4.491a7.129,7.129,0,0,0-4.085,4.491c-.1.367-.075.936-.7.974q-6.468,0-12.936-.01a7.727,7.727,0,0,1-1.793-.164,2.387,2.387,0,0,1-2.2-2.645c-.021-2.579-.006-5.158-.006-7.738q0-11.728,0-23.456A2.217,2.217,0,0,1,1017,416.5c4.8-.008,9.591.015,14.387-.024" transform="translate(-5.386 -17.415)" fill="#f2f0d9"/>
    <path id="Trazado_18816" data-name="Trazado 18816" d="M1104.721,413.379c-1.227,4.986-2.29,10.013-3.732,14.947a14.218,14.218,0,0,1-2.414,4.4c-1.689,2.3-3.5,4.493-5.382,6.64a6.818,6.818,0,0,0-.574.9c-.1,1.04-1.051,1.465-1.62,2.146a23.777,23.777,0,0,1-3.526,3.758c-.547.262-.92-.051-1.278-.394-.494-.473-.947-.992-1.461-1.441a1.028,1.028,0,0,1-.054-1.726c3.462-4.626,6.9-9.274,10.4-13.868,1.279-1.675,1.244-3.688,1.687-5.571.762-3.239,1.375-6.513,2.059-9.771.086-.408.258-.8.745-.835A8.858,8.858,0,0,1,1104.721,413.379Z" transform="translate(-19.218 -16.629)" fill="#fefefe"/>
    <path id="Trazado_18817" data-name="Trazado 18817" d="M1087.2,399.727v-5.745a11.05,11.05,0,0,0,4.436,2.88,12.853,12.853,0,0,0,5.672.51c.271-.041,1-.591.832.414l-10.939,7.82Z" transform="translate(-19.805 -12.953)" fill="#fefefd"/>
    <path id="Trazado_18818" data-name="Trazado 18818" d="M1081.488,450.062a1.1,1.1,0,0,0,.338,1.6,13.373,13.373,0,0,1,1.535,1.537c.24.257.469.433.826.254.18.334-.018.543-.27.689-1.01.587-1.88,1.393-2.9,1.942a12.294,12.294,0,0,1-7.929,1.035c.279-.539.279-.539,1.064-.445a21.83,21.83,0,0,1-3.991-.6c-.445-.227-1.023-.329-.976-1.024.3-.233.6-.114.9.022a10.15,10.15,0,0,0,3.158.581c.015,0,.022.071.032.108l.031-.134a9.882,9.882,0,0,1-5.159-1.454c-.07-.991.638-.8,1.1-.6a9.955,9.955,0,0,0,4.583.455c.593-.021,1.235-.047,1.34-.856-.515-.792-1.566-.089-2.118-.763-.18-.365-.967.006-.849-.6.087-.455.669-.429,1.025-.474a16.638,16.638,0,0,1,5.849.2c.923.212,1.763.523,1.833-.92C1080.916,450.358,1081.191,450.138,1081.488,450.062Z" transform="translate(-16.025 -24.076)" fill="#fed0a2"/>
    <path id="Trazado_18819" data-name="Trazado 18819" d="M1059.664,443.379a17.756,17.756,0,0,0-1.953-2.391c-1.461-1.937-1.219-4.229.7-6.085-.126.833-.236,1.583.667,2.2a1.868,1.868,0,0,1,.544,1.539c-.109.98.462,1.45,1.228,1.853a21.383,21.383,0,0,1,2.057,1.244c.322.218.911.5.148.93a25.073,25.073,0,0,1-3.185-1.021,17.2,17.2,0,0,0,3.192,1.008c.483.167.964.34,1.449.5.191.062.415.089.419.342,0,.341-.273.332-.507.352a8.287,8.287,0,0,1-4.056-.844C1059.912,442.8,1059.611,442.711,1059.664,443.379Z" transform="translate(-13.77 -21.069)" fill="#fdd1a2"/>
    <path id="Trazado_18820" data-name="Trazado 18820" d="M1071.614,451.676c.894.121,1.869-.173,2.651.518a1.623,1.623,0,0,1-1.13.309,15.311,15.311,0,0,1-11.71-4.867,1.257,1.257,0,0,1-.5-1.039l.075-.253a1.3,1.3,0,0,1,.8.495,16.648,16.648,0,0,0,8.373,4.794A6.128,6.128,0,0,0,1071.614,451.676Z" transform="translate(-14.593 -23.339)" fill="#d87b21"/>
    <path id="Trazado_18821" data-name="Trazado 18821" d="M1086.877,415.137a13.784,13.784,0,0,0,2.737,2.234,5.192,5.192,0,0,0,4.576.466c.222-.1.471-.239.6.081.087.227-.14.345-.307.456a2.886,2.886,0,0,1-2,.264C1090.069,418.372,1087.925,417.617,1086.877,415.137Z" transform="translate(-19.741 -17.149)" fill="#d97b1d"/>
    <path id="Trazado_18822" data-name="Trazado 18822" d="M1081.237,369.414c.746.283,1.5.37,1.851,1.4a2.031,2.031,0,0,1-.191,2.105c-.711.979-1.7.9-2.714.725-.778-.133-1.078-.8-1.358-1.393-.255-.548.2-.98.462-1.423,1.676.864,1.675.864,1.768-1.13A.35.35,0,0,1,1081.237,369.414Z" transform="translate(-18.129 -8.08)" fill="#f6b796"/>
    <path id="Trazado_18823" data-name="Trazado 18823" d="M1105.74,379.133c-.06.774-.356,1.241-1.036,1.193a1.049,1.049,0,0,1-1.081-1.283c.169-.731.338-2.008,1.023-1.934C1105.439,377.194,1105.548,378.423,1105.74,379.133Z" transform="translate(-23.057 -9.605)" fill="#77cbf4"/>
    <path id="Trazado_18824" data-name="Trazado 18824" d="M1105.416,361.706c-.026.82-.5,1.158-1.094,1.124-.557-.031-1.171-.378-1.032-1.055.168-.816.229-2.169,1.07-2.152C1105.227,359.641,1105.046,361.052,1105.416,361.706Z" transform="translate(-22.993 -6.138)" fill="#72caf5"/>
    <path id="Trazado_18825" data-name="Trazado 18825" d="M1081.369,369.2a2.254,2.254,0,0,0,.077.466c.288.739.344,1.481-.474,1.856s-1.191-.333-1.555-.91c.165-.409.32-.822.5-1.226C1080.5,368.047,1080.506,368.048,1081.369,369.2Z" transform="translate(-18.262 -7.87)" fill="#6fcaf8"/>
    <path id="Trazado_18826" data-name="Trazado 18826" d="M1091.639,377.359c.94.55,1.87,1.085,2.782,1.647.073.046.086.329.018.424a.473.473,0,0,1-.414.1,2.212,2.212,0,0,1-.649-.3c-1.025-.694-2.036-1.314-3.089-.035a.39.39,0,0,1-.541.055.3.3,0,0,1-.042-.431A7.725,7.725,0,0,1,1091.639,377.359Z" transform="translate(-20.287 -9.656)" fill="#19100d"/>
    <path id="Trazado_18827" data-name="Trazado 18827" d="M1091.5,368.689c-.065.332-.16.719-.209,1.111a1.011,1.011,0,0,0,.151.794c.19.255,1.09.119.57.687-.361.4-1.04.109-1.469-.261a6.661,6.661,0,0,1,.39-3.1.361.361,0,0,1,.312-.044C1091.547,368.043,1091.457,368.357,1091.5,368.689Z" transform="translate(-20.454 -7.77)" fill="#d28651"/>
    <path id="Trazado_18828" data-name="Trazado 18828" d="M1099.218,365.748c.274.47,1.308-.123,1.131.625-.129.544-.909.063-1.4.1a3.747,3.747,0,0,1-.716-.083c-.239-.027-.514-.037-.594-.306-.093-.31.213-.383.4-.513.459-.322.915-.649,1.389-.948.211-.133.478-.468.709-.16.293.391-.183.521-.386.729C1099.574,365.38,1099.221,365.4,1099.218,365.748Z" transform="translate(-21.874 -7.073)" fill="#1d1410"/>
    <path id="Trazado_18829" data-name="Trazado 18829" d="M1085.914,366.491c-.379-.486-1.287-.532-1.028-1,.374-.678.821.235,1.29.276a2.236,2.236,0,0,1,.745.375c.21.114.459.223.428.513-.032.314-.333.305-.552.364-.425.114-.852.221-1.285.3-.3.054-.738.224-.811-.205-.07-.412.383-.41.689-.47C1085.54,366.609,1085.683,366.557,1085.914,366.491Z" transform="translate(-19.309 -7.251)" fill="#201611"/>
    <path id="Trazado_18830" data-name="Trazado 18830" d="M1100.263,361.207a4.6,4.6,0,0,1-.916-.3c-.4-.226-1.125-.473-.842-.971.321-.566.7.19,1.075.3.268.082.529.192.8.253s.67,0,.65.37C1101.006,361.332,1100.569,361.179,1100.263,361.207Z" transform="translate(-22.035 -6.159)" fill="#a27352"/>
    <path id="Trazado_18831" data-name="Trazado 18831" d="M1028.809,474.3c.547.567.26,1.153.075,1.763-.309,1.016-.563,2.048-.839,3.074q-5.731,0-11.462-.006c-1.419,0-2.072-.637-2.073-2.023q-.008-6.213,0-12.427a1.785,1.785,0,0,1,1.9-1.98c4.665-.027,9.331-.01,14-.014.385,0,.736.02.809.505a.9.9,0,0,1,.142.905c-.861,3.243-1.514,6.533-2.314,9.79A1.253,1.253,0,0,1,1028.809,474.3Z" transform="translate(-5.387 -26.579)" fill="#f2f0d9"/>
    <path id="Trazado_18832" data-name="Trazado 18832" d="M1032.348,471.651a93.939,93.939,0,0,1,2.3-10.523c.046-.193.072-.391.107-.587.285-.281.2-.649.229-.989.764-3.908,3.749-5.55,7.031-6.885a94.554,94.554,0,0,1,9.92-3.331c1.79.309,2.736,1.566,3.453,3.078a.452.452,0,0,1-.2.278,38.9,38.9,0,0,0-6.388,2.563,2.233,2.233,0,0,1-.309.141,10.923,10.923,0,0,0-3.659,1.851,2.853,2.853,0,0,1-.3.166,9.332,9.332,0,0,0-3.606,2.935,2.691,2.691,0,0,0-.343,2.731,2.939,2.939,0,0,1,.358,1.86c-.885,2.286-1.667,4.61-2.519,6.909-.176.475-.221,1.045-.8,1.278A39.47,39.47,0,0,1,1032.348,471.651Z" transform="translate(-8.926 -23.932)" fill="#6a7c42"/>
    <path id="Trazado_18833" data-name="Trazado 18833" d="M1101.566,462.9a14.84,14.84,0,0,1,4.913-.186,1.449,1.449,0,0,1,1.355,1.58c0,4.388.019,8.777-.013,13.166-.009,1.223-.582,1.637-2,1.637h-46.987c-.6,0-1.208.006-1.812.01a2.318,2.318,0,0,1-.769-1.523,7.712,7.712,0,0,1-1.223-2.73c-1-2.508-1.841-5.077-2.8-7.6-.456-1.2-.138-1.693,1.1-1.78,3.7-.262,7.379-.675,11.052-1.17a3,3,0,0,1,.962.008c1.078.357,1.417,1.381,1.931,2.217,1.482,2.4,1.448,2.369,4.213,1.592a34.463,34.463,0,0,0,11.154-5.086,1.867,1.867,0,0,1,.88-.381,20.521,20.521,0,0,0,3.97-.123,43.953,43.953,0,0,1,5.143.338c2.226.093,4.384.766,6.628.76A3.008,3.008,0,0,0,1101.566,462.9Z" transform="translate(-12.83 -26.544)" fill="#f2f0d9"/>
    <path id="Trazado_18834" data-name="Trazado 18834" d="M1084.363,458.393a37.2,37.2,0,0,1-14.045,6.1,1.088,1.088,0,0,1-1.433-.64,17.732,17.732,0,0,0-2.454-3.838c-1.857-2.568-3.465-5.306-5.341-7.862-.347-.473-.864-.863-.936-1.513a8.48,8.48,0,0,0-3.372-3.193c1.025-.844,2.578-.869,3.322-2.147,2.3,2.5,4.912,4.567,8.337,5.209a21.168,21.168,0,0,0,5,.387,1.3,1.3,0,0,1-1.436,1.416c-1.748.059-3.527.4-5.192-.5-.318-.172-.79-.482-.855.277.323.322.851.442.964.973l.956.726c.858.709,2.078.508,2.954,1.173,2.453.052,4.927.132,7.215-.93a22.565,22.565,0,0,0,3.886-2.615l5.24-5.735c1.331-.622,1.967-1.938,2.9-2.95.83-.9,1.557-1.89,2.394-2.92.276,1.047-.462,1.756-.4,2.609-.15.216.054.547-.232.721-1.03,3.319-1.725,6.741-3.148,9.941a29.659,29.659,0,0,1-2.177,3.385A3.839,3.839,0,0,1,1084.363,458.393Z" transform="translate(-13.772 -22.043)" fill="#fe972b"/>
    <path id="Trazado_18835" data-name="Trazado 18835" d="M1120.1,447.9c.232.108.431.267.394.542a72.17,72.17,0,0,0-.154,7.932c-.048,1.9-1,2.932-2.907,2.854-.8-.033-1.743.49-2.4-.415a50.114,50.114,0,0,0,4.589-9.678C1119.773,448.724,1119.937,448.313,1120.1,447.9Z" transform="translate(-25.325 -23.647)" fill="#f2f0d8"/>
    <path id="Trazado_18836" data-name="Trazado 18836" d="M1091.187,462.514l2.155-1.924a39.451,39.451,0,0,0,6.4,1.673,3.617,3.617,0,0,1,.657.224c-2.22.006-4.44.026-6.661.014C1092.888,462.5,1092.039,463.081,1091.187,462.514Z" transform="translate(-20.596 -26.164)" fill="#ede8cf"/>
    <path id="Trazado_18837" data-name="Trazado 18837" d="M1100.516,443.789a.717.717,0,0,1,.232-.721,25.432,25.432,0,0,1,5.426,5.033,8.785,8.785,0,0,1,1.686,3.575A18.885,18.885,0,0,0,1100.516,443.789Z" transform="translate(-22.445 -22.689)" fill="#9c866f"/>
    <path id="Trazado_18838" data-name="Trazado 18838" d="M1057.268,453.321a57.136,57.136,0,0,1,5.3,7.505c.379.588.976,1.079.98,1.869-4.129.555-8.267,1.029-12.422,1.322-.8.056-.932.262-.637,1.023,1.157,2.986,2.252,6,3.354,9a4.233,4.233,0,0,1,.473,1.717l-4.092,2.217c-.46.275-.88.308-1.21-.2a1.949,1.949,0,0,1-.451-.529c-1.857-3.184-3.521-6.469-5.079-9.807a4.351,4.351,0,0,1-.412-1.253,3.875,3.875,0,0,0-.265-1.528c-1.222-2.269-.39-3.478,1.645-5.235a20.774,20.774,0,0,1,2.173-1.507l0,0c1.325-.58,2.527-1.406,3.877-1.94l-.006,0c2.2-.988,4.484-1.768,6.737-2.627Z" transform="translate(-10.886 -24.722)" fill="#6a7c42"/>
    <path id="Trazado_18839" data-name="Trazado 18839" d="M1042.3,469.183a100.1,100.1,0,0,0,5.311,10.594c.092.173.16.36.24.54a1.659,1.659,0,0,1-1.352.361q-3.859.008-7.717,0a1.659,1.659,0,0,1-1.352-.362,9,9,0,0,1,1.2-3.353c.89-2.454,1.787-4.906,2.662-7.366.121-.342.172-.7.5-.924C1042.179,468.637,1042.338,468.815,1042.3,469.183Z" transform="translate(-9.935 -27.766)" fill="#f2f0d9"/>
    <path id="Trazado_18840" data-name="Trazado 18840" d="M1037.322,483.2l10.42,0a.42.42,0,0,1,.2.5,2.528,2.528,0,0,1-1.41.221l-9.669.009A.7.7,0,0,1,1037.322,483.2Z" transform="translate(-9.822 -30.648)" fill="#d4d1be"/>
    <path id="Trazado_18841" data-name="Trazado 18841" d="M1029.946,524.948a12.091,12.091,0,0,1-3.214-1.2c-.75-.382-1.151-.452-1.08.628.064.995.03,2,.185,2.989.072.464-.043.88-.647.522-2.454-1.457-4.9-2.93-7.343-4.4-.031-.228.04-.353.3-.287,1.57.581,3.15,1.14,4.709,1.753.8.315.884-.049.84-.7-.071-1.038-.115-2.079-.146-3.118-.008-.257-.155-.594.176-.757.313-.154.511.118.734.277,1.78,1.279,3.637,2.453,5.324,3.863a1.6,1.6,0,0,0,.436.181C1030.255,524.922,1030.207,525.051,1029.946,524.948Z" transform="translate(-6.048 -38.014)" fill="#fbc114"/>
    <path id="Trazado_18842" data-name="Trazado 18842" d="M1073.581,458.423c-1.06-.2-2.277-.008-2.954-1.173a44.754,44.754,0,0,0,4.6.564C1074.655,458.514,1073.971,457.984,1073.581,458.423Z" transform="translate(-16.518 -25.502)" fill="#e5a164"/>
    <path id="Trazado_18843" data-name="Trazado 18843" d="M1069.2,456.1a2.4,2.4,0,0,1-.964-.973c1.812.671,3.573,1.535,5.613,1.332-.769.459-.771.468-2.326.16C1070.74,456.468,1069.97,456.277,1069.2,456.1Z" transform="translate(-16.043 -25.081)" fill="#d9935e"/>
    <path id="Trazado_18844" data-name="Trazado 18844" d="M1063.629,444.2a5.6,5.6,0,0,1-4.011-1.523c1.255.716,2.77.764,4,1.536Z" transform="translate(-14.335 -22.61)" fill="#d79360"/>
    <path id="Trazado_18845" data-name="Trazado 18845" d="M1043.2,467.277l-.5-.511a4.739,4.739,0,0,0-.286-1.148c-.967-1.8-.331-3.227,1-4.492a7.1,7.1,0,0,1,3.155-2.069c-.823,1.162-2.231,1.628-3.144,2.727a2.983,2.983,0,0,0-.539,3.716A2.115,2.115,0,0,1,1043.2,467.277Z" transform="translate(-10.829 -25.86)" fill="#4e5d2f"/>
    <path id="Trazado_18846" data-name="Trazado 18846" d="M1059.266,453.369c-.067.134-.108.358-.205.387a59.626,59.626,0,0,0-5.817,2.194,2.253,2.253,0,0,1-.715.046A17.968,17.968,0,0,1,1059.266,453.369Z" transform="translate(-12.929 -24.732)" fill="#505f31"/>
    <path id="Trazado_18847" data-name="Trazado 18847" d="M1051.578,456.64a9.136,9.136,0,0,1-3.877,1.94A7.433,7.433,0,0,1,1051.578,456.64Z" transform="translate(-11.971 -25.381)" fill="#4e5e2e"/>
    <path id="Trazado_18848" data-name="Trazado 18848" d="M1041.024,496.685a2.6,2.6,0,0,0-.963-1.649l-2.941-4.85c-.137-.248-.183-.452.212-.451l4.065,4.359c.223-1.429.02-2.726.454-4.118l3.7,5.336c.271.409.545.387.823.006l1.012-2.362c.865.6.811,1.741,1.521,2.369a1.059,1.059,0,0,1,.58.64c.749,1.739,1.818,3.318,2.548,5.064.217.52.889,1.245.293,1.6-.641.386-.929-.555-1.213-1.014-.908-1.469-2.136-2.682-3.1-4.262-.429.714-.452,1.389-.779,1.942-.493.832-.8.885-1.441.169-.863-.961-1.458-2.122-2.3-3.1-.127-.147-.214-.336-.422-.431-.092.667-.018,1.343-.157,1.992-.143.671-.564.782-1.028.3A2.552,2.552,0,0,1,1041.024,496.685Z" transform="translate(-9.853 -31.945)" fill="#fcc114"/>
  </g>
</svg>
