<svg xmlns="http://www.w3.org/2000/svg" width="56.051" height="161.733" viewBox="0 0 56.051 161.733">
  <g id="Grupo_8140" data-name="Grupo 8140" transform="translate(-1504.59 -337.737)">
    <path id="Trazado_18875" data-name="Trazado 18875" d="M1513.748,390.81c-.125,1.681-.072,3.365-.108,5.06a45.25,45.25,0,0,1-1.333-5.868,9.136,9.136,0,0,1-.528-2.758,50.536,50.536,0,0,1-.462-5.8,1.936,1.936,0,0,1,.168-1.074,48.448,48.448,0,0,1,.49-6.181,20.289,20.289,0,0,1,8.262-14.3,28.47,28.47,0,0,1,8.561-4.324c.122-.038.238-.1.415-.17a8.248,8.248,0,0,1-2.58-4.431,10.952,10.952,0,0,1,.479-6.368,11.733,11.733,0,0,1,3.851-5.138,9.2,9.2,0,0,1,3.352-1.45,1.526,1.526,0,0,0,.722-.264h.789a7.091,7.091,0,0,0,1.654.081,7.148,7.148,0,0,1,5.5,3.231,14.813,14.813,0,0,1,2.619,7.09,7.357,7.357,0,0,1-2.876,6.888c-.176.145-.419.227-.5.543.488.175.965.387,1.456.558a20.189,20.189,0,0,1,10.3,8.18,21.709,21.709,0,0,1,3.1,7.368,48.793,48.793,0,0,1,1.041,8.826,79.942,79.942,0,0,1-.772,9.66c-.332,1.838-.82,3.639-1.262,5.451-.061.252-.11.58-.444.548-.288-.029-.264-.352-.3-.576-.154-1.041-.065-2.1-.163-3.139a97.576,97.576,0,0,0-1.841-10.552c-.708-2.918-1.619-5.768-2.513-8.624-.478-1.526-1.105-3.009-1.717-4.491-.551-1.336-1.13-2.659-1.663-4,.36-1,1.014-1.86,1.381-2.859a25.668,25.668,0,0,1-1.864,3.261,25.392,25.392,0,0,1-2.555,3.089c-3.605,3.88-8.171,6.078-13.169,7.508a45.742,45.742,0,0,1-6.727,1.189c-1.382.18-2.77.23-4.158.3-2.516.125-5.034-.047-7.553.049,1.333-.122,2.649.224,3.983.085a.662.662,0,0,1,.59.138,4.386,4.386,0,0,1-.737,1.536,25.067,25.067,0,0,0-2.549,9.825A5.071,5.071,0,0,1,1513.748,390.81Z" transform="translate(-0.606)" fill="#895b41"/>
    <path id="Trazado_18876" data-name="Trazado 18876" d="M1555.153,481.432c.046,1.436.126,2.873.131,4.31.014,2.958.095,5.916.1,8.872.007,2.25.135,4.494.129,6.742-.01,3.694.073,7.387.116,11.081h-41.525a4.88,4.88,0,0,1-.183-2.595,6.141,6.141,0,0,0,.131-1.636c.042-.7.227-.861.817-.557a9.26,9.26,0,0,0,6.052.527,2.187,2.187,0,0,1,1.813.228c.334.309.514.8,1.026.905a18.438,18.438,0,0,1,2.1.935,2.567,2.567,0,0,0,.99.338,11.982,11.982,0,0,0,6.514-.646,41.58,41.58,0,0,0,5.332-2.29,2.566,2.566,0,0,1,.732-.277,6.738,6.738,0,0,0,3.21-1.362,12.632,12.632,0,0,0,3.924-3.11,1.137,1.137,0,0,0-.58.428,16.639,16.639,0,0,1-3.8,2.76c-.31.2-.664.464-1.091.223a.261.261,0,0,1,.011-.295c.982-1.176,1.81-2.474,2.848-3.607.609.071.914-.238,1.185-.771.691-1.357,1.263-2.771,2-4.108a46.225,46.225,0,0,0,2.754-6.173,3.8,3.8,0,0,1,.423-.931c1.238-1.447,1.719-3.285,2.54-4.947a36.075,36.075,0,0,0,1.479-3.385C1554.469,481.753,1554.6,481.306,1555.153,481.432Z" transform="translate(-0.835 -12.967)" fill="#fe962a"/>
    <path id="Trazado_18877" data-name="Trazado 18877" d="M1545.969,423.987a2.365,2.365,0,0,0,1.255.755,24.819,24.819,0,0,1,5.314,2.547,3.189,3.189,0,0,1,1.263,1.584,42.79,42.79,0,0,1,2.485,6.538c.573,2.556,1.124,5.117,1.584,7.7.069.388-.038.487-.388.434l-1.167-.175a1.794,1.794,0,0,1-.643.133,22.431,22.431,0,0,0-5.529.464,11.594,11.594,0,0,0-2.5.9c-.438.161-.375.549-.342.87.2,1.882.134,3.779.339,5.662.221,2.01.233,4.037.438,6.049.284,2.795.227,5.613.594,8.4a3.812,3.812,0,0,1-.2,1.939c-1.876,4.768-3.7,9.556-5.581,14.323-1.454,3.69-2.763,7.44-4.388,11.062-.277.619.1.985.31,1.439-.2.844-.568,1.145-1.491,1.175a25.014,25.014,0,0,0-4.763.471c-.588.134-1.164.317-1.758.417-.213,0-.461,0-.511-.258-.064-.323.225-.447.439-.585a18.925,18.925,0,0,0,4.24-3.372,22.554,22.554,0,0,0,2.393-3.307,20.347,20.347,0,0,0,2.128-5.469,24.013,24.013,0,0,0,.576-5.223,20.1,20.1,0,0,0-1.071-5.766,29.1,29.1,0,0,0-1.383-3.24,16.758,16.758,0,0,0-4.917-5.931c-1.2-.569-2.09-1.665-3.449-1.99-2.242-.538-4.43-1.336-6.781-1.284a12.927,12.927,0,0,0-6.377,1.572,1.014,1.014,0,0,1-.216.095,3.678,3.678,0,0,0-1.571.843,16.721,16.721,0,0,0-4.933,5.015,18.8,18.8,0,0,0-2.235,4.231,11.143,11.143,0,0,0-.548,2.126,17.57,17.57,0,0,0-.661,5.042,17.107,17.107,0,0,0,1,6,1.951,1.951,0,0,1,.1.7,2.225,2.225,0,0,0,.338,1.185,14.6,14.6,0,0,0,1.156,3.21.886.886,0,0,1-.044,1.1.715.715,0,0,1-.964.249,7.177,7.177,0,0,1-1.7-2.693,20.594,20.594,0,0,1-1.058-4.491c-.086-.921-.011-1.849-.159-2.767v-2.685c.416-.581.115-1.28.312-1.9a40.335,40.335,0,0,1,1.66-6.416,48.056,48.056,0,0,1,2.807-6.542,43.894,43.894,0,0,1,3.088-5.16c.888-1.224,1.8-2.436,2.636-3.7.525-.789,1.328-1.336,1.791-2.169a.472.472,0,0,1,.508-.106,5.831,5.831,0,0,0,2.012.243.368.368,0,0,1,.377.23,2.655,2.655,0,0,1-2.028,1.176c-.945.119-1.335.359-1.5,1.267-.09.485-.423.731-.667,1.085-.715,1.037-1.784,1.725-2.519,2.727a.949.949,0,0,0-.191.428,2.6,2.6,0,0,1-1.142,2.05c-.445.28-.326.893-.493,1.333.289.144.472.034.55-.119.286-.553.863-.846,1.176-1.368.055-.09.1-.215.195-.242.71-.211,1.472-.344,1.611-1.28.009-.063.128-.1.206-.095,1.439.045,2.73-.672,4.126-.81a10.181,10.181,0,0,0,1.992-.363.479.479,0,0,1,.311-.025c1.313.623,2.734.058,4.076.383s2.746.481,4.079.9a5.713,5.713,0,0,1,1.7.986c.758.578,1.672.918,2.405,1.477s1.747.65,2.265,1.5c.073.12.227.117.352.155.367.108.535.351.4.718-.206.549.092.854.434,1.23a5.893,5.893,0,0,1,1.856,2.867.77.77,0,0,0,.783.737c.577.015.676.385.555.881a5.58,5.58,0,0,0,1.005,4.583,1.639,1.639,0,0,1,.2,1.847,3.645,3.645,0,0,0-.321,1.052.813.813,0,0,0,.333.963c.364.243.6.527.157.944-.288.272-.134.559.032.823.137-.035.2-.11.187-.179a3.632,3.632,0,0,1,1.069-2.623c.4-.549.21-1.22.551-1.784.977-1.62,1.234-3.564,2.262-5.17a.131.131,0,0,0,.027-.073,4.066,4.066,0,0,1,1.143-3.131,2.322,2.322,0,0,0,.286-1.668,7.8,7.8,0,0,1,.175-3.286.954.954,0,0,0-.034-.838,3.406,3.406,0,0,1-.365-1.83,38.1,38.1,0,0,0-.122-4.177,5.812,5.812,0,0,1,.2-2.655.946.946,0,0,0-.432-1.273c-.7-.422-.271-1.193-.322-1.806a2.334,2.334,0,0,1,.208-.836.612.612,0,0,0-.209-.763,1.457,1.457,0,0,1-.57-1.324c.086-.947-.016-1.89,0-2.833s.281-1.175,1.194-1.326a4.212,4.212,0,0,0,2.37-.951,1.4,1.4,0,0,1,1.463-.29c.689.206,1.362-.241,2.082-.2.518.026,1.039-.007,1.565.041.558.052,1.16.123,1.577-.448.26-.355.5-.048.761.12-.182-.373-.442-.639-.626-.954a1.213,1.213,0,0,1,0-1.472.656.656,0,0,0,.035-.865,2.663,2.663,0,0,1-.373-1.032.84.84,0,0,0-.541-.715.651.651,0,0,1-.432-.749,8.621,8.621,0,0,0-1.817-6.319c-.044-.007-.1.1-.185.155a.561.561,0,0,1-.786-.036.609.609,0,0,1-.044-.793c.4-.751.32-1.1-.332-1.608a2.721,2.721,0,0,0-.6-.375c-1.359-.567-2.648-1.29-4.03-1.8a1.428,1.428,0,0,0-2.017.872,1.131,1.131,0,0,1-.39.477,5.137,5.137,0,0,0-1.711,2.122,1.279,1.279,0,0,1-.246.489c-.879.7-1.237,1.785-1.984,2.611a19.626,19.626,0,0,1-2.484,2.559,1.552,1.552,0,0,0-.352.7c-.067.171-.092.428-.258.47-.782.2-.812.883-.973,1.471-.134.49-.55.683-.85,1a16.294,16.294,0,0,0-1.8,1.825,1.75,1.75,0,0,1-.705.712.778.778,0,0,0-.465.6c-.077.507-.114,1-.85.932-.222-.019-.226.312-.3.5a2.336,2.336,0,0,1-1.077,1.4c-.283.134-.375.425-.526.67a2.471,2.471,0,0,1-2.673.768c-.427-.229-.392-.628-.356-1.037a8.711,8.711,0,0,0-.224-2.8,1.574,1.574,0,0,0-.812-1.2c-.276-.13-.263-.4-.285-.676-.065-.809-.1-1.62-.237-2.423a2.346,2.346,0,0,0-.825-1.645.864.864,0,0,1-.276-.854,2.209,2.209,0,0,0-.707-2.2,1.981,1.981,0,0,1-.564-1.516,19.617,19.617,0,0,0-.247-2.657c-.1-.469-.071-.915.552-1.013.512.28.338.872.58,1.275,1.734,5.065,3.109,10.245,4.806,15.386,4.332-5.18,8.476-10.43,12.743-15.58.9-1.12,1.761-2.273,2.7-3.362A3,3,0,0,1,1545.969,423.987Z" transform="translate(0 -7.784)" fill="#fd972b"/>
    <path id="Trazado_18878" data-name="Trazado 18878" d="M1562.5,384.613c.293.368.78.248,1.141.458a4.591,4.591,0,0,1,1.72,2.268c.14.3.143.675.436.905V390.3a8.407,8.407,0,0,1-.991,2.142,4.441,4.441,0,0,1-2.3,1.627,5.465,5.465,0,0,0-.787.333,32.676,32.676,0,0,1,.383-3.494c.1-1.222.274-2.437.252-3.666A18.093,18.093,0,0,1,1562.5,384.613Z" transform="translate(-5.156 -4.231)" fill="#fed0a3"/>
    <path id="Trazado_18879" data-name="Trazado 18879" d="M1504.9,490.234c-.261-.2-.018-.6-.311-.791V487.39A16.969,16.969,0,0,1,1504.9,490.234Z" transform="translate(0 -13.506)" fill="#fed288"/>
    <path id="Trazado_18880" data-name="Trazado 18880" d="M1504.9,482.354c-.067.638.218,1.335-.312,1.9v-.474C1504.95,483.358,1504.5,482.763,1504.9,482.354Z" transform="translate(0 -13.052)" fill="#fcdead"/>
    <path id="Trazado_18881" data-name="Trazado 18881" d="M1540,337.737c0,.046.007.093.01.14-.579-.095-1.19.227-1.747-.14Z" transform="translate(-3.039)" fill="#dcbfaf"/>
    <path id="Trazado_18882" data-name="Trazado 18882" d="M1546.818,418.886a4.314,4.314,0,0,0-1.653,1.493c-.911,1.055-1.768,2.157-2.646,3.24-1.183.33-2.258.936-3.429,1.318a16.972,16.972,0,0,1-13.012-.71c-.428-.2-.765-.831-1.387-.4-.354-.354-.211-.885-.454-1.279a.694.694,0,0,1-.315-.433c-.179-.951-.55-1.843-.818-2.766a6.935,6.935,0,0,0,6.161-3.432,10.077,10.077,0,0,0,1.274-4.41c.07-.883.326-1.747.333-2.643a.767.767,0,0,0-.71-.858,21.511,21.511,0,0,1-9.064-4.42,24.138,24.138,0,0,1-4.194-4.66,16.442,16.442,0,0,1-2.341-4.577c-.1-.308-.173-.713-.574-.853a29.132,29.132,0,0,1,2.334-11.126,5.49,5.49,0,0,1,1.307-2.119,3.73,3.73,0,0,1,2.045-.2,51.736,51.736,0,0,0,10.762-1.212,31.281,31.281,0,0,0,9.782-4.032,25.476,25.476,0,0,0,7.151-6.993c.108-.151.19-.317.4-.347a11.028,11.028,0,0,1,1.2,2.435q.951,2.279,1.8,4.6c.562,1.548,1.094,3.11,1.579,4.685a85.813,85.813,0,0,1,2.445,9.892c.36,1.98.651,3.975.825,5.983-.181-.094-.28-.025-.36.151a26.75,26.75,0,0,1-3.462,5.559,21.378,21.378,0,0,1-4.475,4.03,20.482,20.482,0,0,1-6.7,3.082c-1.445.386-1.407.425-1.407,1.957a11.83,11.83,0,0,0,1.322,5.271,7.684,7.684,0,0,0,3.519,3.144c.356.19.755.368,1.106.555C1545.75,419.126,1546.278,418.751,1546.818,418.886Z" transform="translate(-0.848 -2.683)" fill="#fdd1a2"/>
    <path id="Trazado_18883" data-name="Trazado 18883" d="M1522.886,424.492a3.836,3.836,0,0,1,.812,1.909c.106.431.214.861.321,1.291-.761.346-.41,1.037-.249,1.425a5.511,5.511,0,0,1,.15,1.774,2.542,2.542,0,0,0,.864,2.1c.644.483.454,1.257.44,1.915-.006.278-.2.583.1.763,1.125.675,1.014,1.83,1.056,2.861.024.571.5,1.13.1,1.722-.013.019.076.149.137.171,1.164.415,1.122,1.452,1.169,2.387.036.714.373,1.426.035,2.162-.1.21.045.455.325.547a1.951,1.951,0,0,0,2.493-1.094.668.668,0,0,1,.5-.441,1.417,1.417,0,0,0,.946-1.3c.115-.8.387-.9,1.062-.533.029-.794.025-1.571,1.012-1.723.16-1.088,1.658-1.176,1.741-2.327,0-.062.1-.174.138-.169,1.413.153.933-1.075,1.235-1.716.14-.3.2-.627.618-.544.272.054.291-.079.349-.279a2.207,2.207,0,0,1,1.227-1.606,2.252,2.252,0,0,0,1.125-1.133c.25-.525.448-1.037,1.13-1.147a.388.388,0,0,0,.259-.512c-.242-.586.063-.8.557-.971.731-.256.709-1.055,1.023-1.6a5.16,5.16,0,0,1,1.688-1.841.431.431,0,0,0,.239-.441c-.033-.418.263-.513.546-.732,1.112-.862,2.049-.076,2.907.348a17.025,17.025,0,0,1,3.773,1.911,1.135,1.135,0,0,1,.221,1.523c-.163.167-.388.3-.235.591a.4.4,0,0,0,.433.267c.288-.035.389-.227.421-.489a1.22,1.22,0,0,1,.125-.27c.926,1.726,2.1,3.28,1.938,5.355-.044.581.269,1.174.011,1.778-.064.15.078.384.219.36.809-.141.718.543.82.943a2.054,2.054,0,0,0,.461,1.055.445.445,0,0,1-.023.742c-.614.52-.454,1.043-.033,1.583a9.245,9.245,0,0,1,.552.764c.105.168.27.4.016.552-.319.194-.392-.084-.474-.315a3.1,3.1,0,0,0-.2-.358c-.468,1.125-1.364.826-2.17.779a6.129,6.129,0,0,0-2.9.285c-.137.06-.3.2-.432.043-.534-.622-1.044-.237-1.4.129a3.8,3.8,0,0,1-2.5.947c-.632.066-.94.3-.949.889-.017,1.117.119,2.235,0,3.355a.734.734,0,0,0,.289.7c.986.518.555,1.227.259,1.871-.194.424.212.777.035,1.146-.328.683.331.52.579.717a1.05,1.05,0,0,1,.187,1.3,4.928,4.928,0,0,0-.221,2.64c.193,1.577.068,3.15.128,4.722.008.208-.04.478.068.614.585.733.321,1.454.163,2.256a8.883,8.883,0,0,0-.019,2.59,2.694,2.694,0,0,1-.859,2.478,1.742,1.742,0,0,0-.547,1.538c.043.29.191.62-.009.832-.484.51-.453,1.261-.914,1.779a1.42,1.42,0,0,0-.328.789,8.571,8.571,0,0,1-1.168,2.868c-.043.095-.158.191-.146.271.192,1.164-.744,1.812-1.223,2.662a.76.76,0,0,0-.111.644,1.546,1.546,0,0,1-.017.7c-.044.2-.122.459-.349.488-.3.039-.282-.293-.314-.456-.076-.382-.6-.878.243-1.111.248-.068.012-.3-.11-.42-.213-.2-.66-.137-.667-.573a3.726,3.726,0,0,1,.311-1.6c.451-.993.4-1.392-.4-2.115a1.112,1.112,0,0,1-.394-.825,3.921,3.921,0,0,0-.314-1.372,2.987,2.987,0,0,1,.041-2.328c.126-.323-.022-.7-.336-.593-.973.328-1-.5-1.081-.945-.106-.579-.115-1.086-.8-1.259-.084-.021-.182-.212-.178-.321.018-.534-.339-.772-.71-1.046-.515-.38-1.022-.767-.527-1.554.219-.351-.072-.5-.913-.365.045-.5.167-1.112-.7-.759a.319.319,0,0,1-.291-.054c-1.041-1.307-2.776-1.575-3.965-2.667a6.41,6.41,0,0,0-3.257-1.17c-.97-.208-1.959-.328-2.929-.535a1.121,1.121,0,0,0-.807.088,1.3,1.3,0,0,1-1.266-.065,1.97,1.97,0,0,0-2.145.066c-.107.065-.185.22-.333.155-.887-.4-1.652.314-2.468.277-.847-.04-1.494.915-2.416.382-.2-.116-.364.176-.312.411.174.791-.431.8-.885.8-.4.006-.518.141-.766.442a13.682,13.682,0,0,1-1.4,1.583.43.43,0,0,1-.64.018c-.182-.191-.044-.362.012-.569.188-.707.349-1.346,1.155-1.7.39-.171.337-.839.438-1.3.039-.176.005-.469.1-.517.822-.416.874-1.637,1.914-1.817a.4.4,0,0,0,.254-.268,1.156,1.156,0,0,1,.885-1.067.311.311,0,0,0,.222-.373c-.176-.7.408-1.085.668-1.6.043-.087.161-.224.205-.21,1.154.356,1.952-.45,2.867-.865.56-.385,1.23-.155,1.832-.33.412-.12.852-.147,1.271-.274a16.735,16.735,0,0,1-3.907.179,4.375,4.375,0,0,1-3.579-1.94,7.672,7.672,0,0,1-1.275-5.678,22.916,22.916,0,0,1,1.563-5.578c-.528.684-.5,1.583-1.148,2.122a1.236,1.236,0,0,1-.521-1.292,52.35,52.35,0,0,1,1.938-11.15c.494-1.564,1.123-3,2.919-3.593A31.166,31.166,0,0,0,1522.886,424.492Z" transform="translate(-0.63 -7.83)" fill="#fe962a"/>
    <path id="Trazado_18884" data-name="Trazado 18884" d="M1511.157,384.6c.056,1.242.079,2.487.177,3.725a45.984,45.984,0,0,0,.622,5.048,5.107,5.107,0,0,1,.022.861,4.542,4.542,0,0,1-4.282-4.375,5.1,5.1,0,0,1,1.032-3.957A4.281,4.281,0,0,1,1511.157,384.6Z" transform="translate(-0.277 -4.229)" fill="#fed0a2"/>
    <path id="Trazado_18885" data-name="Trazado 18885" d="M1515.416,443.579c.291-.78.58-1.559.878-2.336.063-.164.132-.4.365-.337.293.075.211.326.145.519-.4,1.158-.858,2.3-1.19,3.473a12.566,12.566,0,0,0-.455,4.5,6.527,6.527,0,0,0,1.708,3.784,3.6,3.6,0,0,0,2.541,1.253,17.06,17.06,0,0,0,4.388-.216c.2-.046.482-.2.547.051.079.3-.221.455-.489.484a15.637,15.637,0,0,1-3.194.326,14.326,14.326,0,0,1-2.872-.449c-.531-.638-1.26-1.041-1.791-1.722a7.564,7.564,0,0,1-1.39-4.947A17.443,17.443,0,0,1,1515.416,443.579Z" transform="translate(-0.904 -9.31)" fill="#c47021"/>
    <path id="Trazado_18886" data-name="Trazado 18886" d="M1540.616,346.994a13.479,13.479,0,0,1-.653,4.98c-.125.385.117.448.315.474.88.114,1.765.2,2.65.261a.513.513,0,0,0,.525-.4,12.953,12.953,0,0,0,.807-5.388,11.616,11.616,0,0,0-2.152-6.169,8.577,8.577,0,0,0-.943-1.229c-.135-.118-.295-.281-.089-.461.184-.162.349.009.489.1a5.4,5.4,0,0,1,1.381,1.776,13.447,13.447,0,0,1,1.872,5.812,10,10,0,0,1-.578,4.681c-.038.1-.085.192-.115.292-.275.943-.227.956.74.823.333-.045.921-.449,1.022.054.105.522-.561.359-.9.438a11.838,11.838,0,0,1-6.695-.605A9.986,9.986,0,0,1,1534,349.02a13.017,13.017,0,0,1-1.87-3.4,18.2,18.2,0,0,1-.805-3.5c-.035-.193-.152-.544.178-.59.253-.036.219.287.3.467a5.536,5.536,0,0,1,.221,1.392,12.771,12.771,0,0,0,4.589,7.5,6.5,6.5,0,0,0,2.356,1.2c.394.113.539,0,.608-.346a20.234,20.234,0,0,0,.479-6.459,20,20,0,0,0-.748-3.437,4.79,4.79,0,0,0-1.615-2.773c-.193-.133-.272-.251-.144-.437.153-.22.339-.075.481.019a3.284,3.284,0,0,1,1.273,1.664,16.3,16.3,0,0,1,.977,3.049A12.471,12.471,0,0,1,1540.616,346.994Z" transform="translate(-2.409 -0.071)" fill="#643f2c"/>
    <path id="Trazado_18887" data-name="Trazado 18887" d="M1547.619,367.125a21.883,21.883,0,0,1-3.018,3.883,22.319,22.319,0,0,1-4.349,3.576,32.9,32.9,0,0,1-8.951,3.882,38.4,38.4,0,0,1-5.157.981,35.361,35.361,0,0,1-5.918.445,15.9,15.9,0,0,1-2.745.015c-1.513.244-3.021-.145-4.535-.032-.245.018-.64.064-.614-.29s.39-.192.638-.19c1.5.012,3-.06,4.5.028a41.154,41.154,0,0,0,6.134-.208,54.4,54.4,0,0,0,5.482-.817,35.108,35.108,0,0,0,5.484-1.575,31.765,31.765,0,0,0,5.825-3,23.678,23.678,0,0,0,5.19-4.712,19.007,19.007,0,0,0,3.165-5.07c.072-.169.109-.479.413-.318.228.122.2.364.075.555A27.712,27.712,0,0,1,1547.619,367.125Z" transform="translate(-0.699 -2.341)" fill="#643f2b"/>
    <path id="Trazado_18888" data-name="Trazado 18888" d="M1513.217,376.84a1.976,1.976,0,0,1-.385.071c-.157,0-.329-.036-.353-.233-.018-.156.111-.235.237-.275a2.888,2.888,0,0,1,.919-.189,24.96,24.96,0,0,0,4.985-.518,56.039,56.039,0,0,0,10.064-2.615,34.541,34.541,0,0,0,13.424-8.819,27.662,27.662,0,0,0,3.087-4.047c.117-.19.2-.506.509-.313.261.162.047.347-.044.533a19.831,19.831,0,0,1-2.628,3.574,25.305,25.305,0,0,1-2.224,2.308,32.593,32.593,0,0,1-6.114,4.5,39.04,39.04,0,0,1-7.687,3.372,66.4,66.4,0,0,1-7.576,1.9C1517.373,376.508,1515.291,376.619,1513.217,376.84Z" transform="translate(-0.712 -1.995)" fill="#653f2d"/>
    <path id="Trazado_18889" data-name="Trazado 18889" d="M1514.007,373.706c.017,0-.047.012-.084-.015-.222-.167-.713.087-.713-.281s.44-.253.709-.272a17.566,17.566,0,0,0,3.3-.91,27.7,27.7,0,0,0,4.64-1.815,45.119,45.119,0,0,0,5.854-2.946,22.815,22.815,0,0,1,2.227-1.286,25.751,25.751,0,0,0,3.469-2.423,16.078,16.078,0,0,0,3.729-3.554,8.057,8.057,0,0,0,1.387-2.584c.065-.255.175-.5.467-.381s.094.357.033.539a9.694,9.694,0,0,1-1.931,3.28,30.823,30.823,0,0,1-7.706,6.112,56.945,56.945,0,0,1-7.374,3.759,38.13,38.13,0,0,1-6.6,2.4A12.145,12.145,0,0,1,1514.007,373.706Z" transform="translate(-0.778 -1.757)" fill="#663f2c"/>
    <path id="Trazado_18890" data-name="Trazado 18890" d="M1533.552,355.531c-.294.2-.5.039-.731-.158a10.054,10.054,0,0,1-3.454-6.886c-.075-.726-.213-1.446-.3-2.171a2.167,2.167,0,0,1,.052-.7c.037-.169.109-.387.343-.367.258.023.222.252.226.429.015.785.07,1.565.133,2.349a10.53,10.53,0,0,0,3.5,7.189c.076.07.156.136.23.209C1533.563,355.436,1533.552,355.472,1533.552,355.531Z" transform="translate(-2.209 -0.678)" fill="#653f2c"/>
    <path id="Trazado_18891" data-name="Trazado 18891" d="M1560.179,445.3a.712.712,0,0,1,.586-.012,28.377,28.377,0,0,0,.14,4.7c.03.781.059,1.57.088,2.353.113,3.138.255,6.274.325,9.414.054,2.4-.028,4.794-.016,7.192a12.415,12.415,0,0,1-.76,3.752c-.5,1.616-1.12,3.188-1.709,4.771a2.683,2.683,0,0,0-.066.7c-.842.353-.762,1.248-1.075,1.9-.992,2.051-1.907,4.138-2.868,6.2a2.339,2.339,0,0,1-.778.971.476.476,0,0,1-.148-.233,1.559,1.559,0,0,1,.2-.989c1.429-2.9,2.7-5.878,3.975-8.85a35.569,35.569,0,0,0,2.414-7.327,8.907,8.907,0,0,0,.114-1.493c.085-3.763-.055-7.524-.184-11.282-.1-3.021-.283-6.039-.3-9.063a19.451,19.451,0,0,1-.136-2.122A.858.858,0,0,1,1560.179,445.3Z" transform="translate(-4.448 -9.701)" fill="#9b9a99"/>
    <path id="Trazado_18892" data-name="Trazado 18892" d="M1513.694,511.45a2.529,2.529,0,0,1-.028-.627,2.373,2.373,0,0,0-1.545-2.788,8.019,8.019,0,0,1-1.641-1.18,3.021,3.021,0,0,1-.872-2.205c-.034-1.375-.393-2.687-.536-4.035-.019-.182-.089-.359.011-.536.553-.085.779.378,1.031.7a3.708,3.708,0,0,0,1.675,1.219,4.278,4.278,0,0,1,1.891,2.023,3.862,3.862,0,0,0,3.365,2.354,18.4,18.4,0,0,1,3.265.861c.295.106.659.165.689.55s-.26.6-.6.724c-1.262,0-2.524-.019-3.786-.006a8.275,8.275,0,0,1-2.213-.408c2.021.685,4.106.451,6.18.369a8.087,8.087,0,0,1,2.571.157.489.489,0,0,1,.389.247c.447.885,1.266.68,2,.677a20.348,20.348,0,0,0,4.044-.939,3.929,3.929,0,0,0,2.249-1.35,2.383,2.383,0,0,0,.282-.378c.167-.3.368-.621.176-.959-.206-.363-.609-.3-.927-.236-1.161.219-2.33.373-3.5.508a3.527,3.527,0,0,1-.626.058.665.665,0,0,1-.649-.361.7.7,0,0,1,.173-.727,4.534,4.534,0,0,1,1.146-.816c.7-.334,1.45-.54,2.156-.854.336-.149.662.028.98-.082a19.154,19.154,0,0,1,6.086-.956c.816,0,1.673.071,1.987-.967.361-.221.6.093.845.233,1,.569,2.06,1.027,3,1.693.267.188.621.328.589.758a29.9,29.9,0,0,1-2.894,3.783c-.263.743-1.049.845-1.563,1.281-1.5.669-3.016,1.314-4.5,2.02-.48.228-1,.309-1.475.515-.41.21-.72-.035-1.043-.227a1.835,1.835,0,0,0-.778.045,42.316,42.316,0,0,1-5.909.536l-2.07-1.007c.128-.412.458-.227.706-.22a22.217,22.217,0,0,0,4.224.016,16.69,16.69,0,0,1,1.92-.386c-.73-.029-1.406.279-2.132.3-.759.022-1.517.051-2.277.051a14.475,14.475,0,0,1-2.27-.136,3.431,3.431,0,0,1-1.109-.353c-.564-.6-1.27-.425-1.911-.269a12.764,12.764,0,0,1-4.823.024c-.643-.09-1.094-.69-1.758-.776C1513.692,510.052,1513.967,510.775,1513.694,511.45Z" transform="translate(-0.401 -14.65)" fill="#fed0a2"/>
    <path id="Trazado_18893" data-name="Trazado 18893" d="M1546.47,499.356a3.16,3.16,0,0,0-1.175-.9c-1.077-.612-2.173-1.192-3.261-1.784-.7-.417-.725-.943-.38-1.641.884-1.793,1.525-3.689,2.24-5.553.679-1.768,1.456-3.5,2.09-5.28.843-2.365,1.811-4.68,2.688-7.03.644-1.728,1.274-3.469,2.025-5.151a9.211,9.211,0,0,0,.875-5.963,31.593,31.593,0,0,1-.209-3.924c-.264-2.894-.438-5.8-.636-8.7q-.194-2.863-.34-5.729c-.019-.364-.142-.837.449-.932a6.341,6.341,0,0,1,.443,2.517c.223,3.221.407,6.444.657,9.663.1,1.282.163,2.569.221,3.856.09,1.994.195,3.987.357,5.977a2.959,2.959,0,0,1-.263,1.373c-1.219,3.05-2.406,6.114-3.6,9.174q-1.71,4.368-3.414,8.739c-.929,2.374-1.841,4.755-2.793,7.121a.659.659,0,0,0,.267.879,10.924,10.924,0,0,0,1.608.994,12.251,12.251,0,0,1,1.966,1.158c.386.3.63.2.9-.181.589-.853.9-1.842,1.4-2.736a2.162,2.162,0,0,1,.7-.932.439.439,0,0,1,.492.093c-.755,1.594-1.5,3.193-2.273,4.777C1547.246,499.77,1546.827,499.429,1546.47,499.356Z" transform="translate(-3.326 -9.841)" fill="#9f9890"/>
    <path id="Trazado_18894" data-name="Trazado 18894" d="M1542.07,509.64c.392-.585,1.093-.791,1.563-1.281a3.476,3.476,0,0,0,1.9-.866,13.726,13.726,0,0,0,3.308-2.634c.125-.153.292-.367.52-.144s0,.374-.131.524a17.323,17.323,0,0,1-4.85,3.551A4.224,4.224,0,0,1,1542.07,509.64Z" transform="translate(-3.383 -15.061)" fill="#c8701c"/>
    <path id="Trazado_18895" data-name="Trazado 18895" d="M1523.7,511.38a24.793,24.793,0,0,0,5.763.216,17.9,17.9,0,0,0,2.064-.385c.223-.043.542-.176.626.1.125.408-.309.37-.516.4a19.051,19.051,0,0,1-4.006.515,16.667,16.667,0,0,0-2.993-.111C1524.082,512.179,1523.9,511.768,1523.7,511.38Z" transform="translate(-1.725 -15.65)" fill="#cd844d"/>
    <path id="Trazado_18896" data-name="Trazado 18896" d="M1527.006,513.229a3.537,3.537,0,0,1,2.191-.347,19,19,0,0,0,3.868-.463,5.858,5.858,0,0,1,.859-.027c.18.529-.223.667-.569.728a14.646,14.646,0,0,1-5.427.381A1.166,1.166,0,0,1,1527.006,513.229Z" transform="translate(-2.023 -15.762)" fill="#cf854e"/>
    <path id="Trazado_18897" data-name="Trazado 18897" d="M1550.541,498.477l-.482,0c-.216-.221-.1-.437.016-.647,1.042-1.913,1.952-3.893,2.909-5.849.151-.307.231-.723.68-.8l.025.206a49.881,49.881,0,0,1-2.847,6.639A3.241,3.241,0,0,1,1550.541,498.477Z" transform="translate(-4.093 -13.848)" fill="#baaea0"/>
    <path id="Trazado_18898" data-name="Trazado 18898" d="M1528.02,513.5a28.129,28.129,0,0,0,5.046-.509c.37-.063.9.015.949-.6.18.313.395.568.812.483a12.118,12.118,0,0,1-6.542.77A.921.921,0,0,1,1528.02,513.5Z" transform="translate(-2.115 -15.763)" fill="#fcc78a"/>
    <path id="Trazado_18899" data-name="Trazado 18899" d="M1552.959,487.029c-.894,1.785-1.88,3.526-2.635,5.38-.27.664-.848,1.174-.971,1.913-.817,1.313-1.274,2.813-2.156,4.1-.174.252-.252.389-.5.177-1.262-1.081-2.87-1.594-4.2-2.572-.412-.3-.436-.5-.276-.873.825-1.924,1.573-3.879,2.317-5.837,1.542-4.053,3.059-8.119,4.72-12.124,1.053-2.539,1.841-5.181,3.058-7.655a2.923,2.923,0,0,0,.034-1.552c-.167-2.11-.261-4.221-.361-6.335-.13-2.745-.4-5.481-.6-8.222-.167-2.264-.324-4.53-.485-6.794a8.466,8.466,0,0,1,3.14-1.109,16.744,16.744,0,0,1,5.08-.228c.121,3.512.187,7.026.377,10.534.227,4.219.294,8.439.263,12.662a14.685,14.685,0,0,1-.811,4.145,33.338,33.338,0,0,1-1.371,3.825c-.712,1.62-1.372,3.265-2.107,4.878C1554.609,483.222,1553.644,485.064,1552.959,487.029Z" transform="translate(-3.388 -9.698)" fill="#fefefe"/>
    <path id="Trazado_18900" data-name="Trazado 18900" d="M1525.751,429.361c-.041-.572.1-.694.629-.347a14.4,14.4,0,0,0,6.457,2.1,18.591,18.591,0,0,0,10.076-2.01c.155-.072.493-.508.665.048-1.732,2.16-3.465,4.317-5.249,6.436-1.495,1.775-2.9,3.635-4.351,5.449-1.078,1.346-2.3,2.576-3.312,4.07a12.982,12.982,0,0,1-.888-2.632c-.609-1.722-1.092-3.489-1.626-5.237Z" transform="translate(-1.909 -8.22)" fill="#fefefe"/>
    <path id="Trazado_18901" data-name="Trazado 18901" d="M1523.186,463.613a18.522,18.522,0,0,1,5.552.936c.734.172,1.451.421,2.169.657a1.81,1.81,0,0,1,.7.351,8.569,8.569,0,0,0,1.983,1.383,1.491,1.491,0,0,0,.531.655,14.465,14.465,0,0,1,3.871,4.6,20.561,20.561,0,0,1,2.855,11.666,21.5,21.5,0,0,1-1.18,5.667,6.83,6.83,0,0,1-.887,1.906c-.181.2-.235.613-.663.39a.78.78,0,0,1,.08-.674,18.377,18.377,0,0,0,1.457-4.455c.125-.964.394-1.894.6-2.839a17.507,17.507,0,0,0-.607-5.121,22.783,22.783,0,0,0-3.962-8.314,12.082,12.082,0,0,0-4.2-3.491c-.875-.48-1.863-.707-2.733-1.2a6.293,6.293,0,0,0-3.376-1.1,33.139,33.139,0,0,0-3.388-.013,13.668,13.668,0,0,0-2.96.689,11.924,11.924,0,0,0-5.333,3.181.673.673,0,0,1-.354.163.615.615,0,0,1-.358-.06c-.237-.39.178-.523.3-.771a1.922,1.922,0,0,1,.532-.412,22.238,22.238,0,0,0,1.973-1.5,4.251,4.251,0,0,1,.761-.56.961.961,0,0,1,.144-.019,1.235,1.235,0,0,1,.446-.148,3.319,3.319,0,0,0,1.2-.449A17.4,17.4,0,0,1,1523.186,463.613Z" transform="translate(-0.751 -11.359)" fill="#bdb59d"/>
    <path id="Trazado_18902" data-name="Trazado 18902" d="M1513.327,503.31a4.268,4.268,0,0,0-2.454-2.124c-.615-.137-.819-.773-1.227-1.164-.238-.229-.371-.585-.743-.664l-1.15-1.735c.75.115,1.2-.3.851-.92a24.551,24.551,0,0,1-1.306-3.687c-.116-.314-.344-.584-.271-.949.429.039.482.414.6.706a17.7,17.7,0,0,0,.734,1.7,7.8,7.8,0,0,0,.518.713c.842,1.192,1.327,2.632,2.505,3.589.519.768,1.5,1.07,1.947,1.908.467.865,1.448.916,2.173,1.371.22.218.729.142.669.648-.767.074-1.465.553-2.276.383C1513.667,503.032,1513.511,503.219,1513.327,503.31Z" transform="translate(-0.219 -13.928)" fill="#f29533"/>
    <path id="Trazado_18903" data-name="Trazado 18903" d="M1517.01,502.955c-.174-.306-.588-.214-.789-.476a.654.654,0,0,1,.492-.19,8.9,8.9,0,0,1,2.227.913,10.185,10.185,0,0,0,2.965.606c.605.061,1.14.324,1.746.361a9.676,9.676,0,0,0,2.918-.4c.322-.068.649-.108.969-.183a7.7,7.7,0,0,0,3.537-1.344c1.133-.96,2.471-1.64,3.589-2.625a4.367,4.367,0,0,0,.579-.519,11.522,11.522,0,0,0,2.485-3.114c.187-.288.287-.715.787-.609a.266.266,0,0,1-.031.322c.066.506-.4.708-.611,1.053a16.816,16.816,0,0,1-6.035,5.705c-.088.052-.809.157-.154.525l-2.984,1.082a13.212,13.212,0,0,1-5.7.682,14.062,14.062,0,0,1-5.436-1.375A1.25,1.25,0,0,1,1517.01,502.955Z" transform="translate(-1.05 -14.225)" fill="#ccaf83"/>
    <path id="Trazado_18904" data-name="Trazado 18904" d="M1540.238,493.163l-.009-.327a.211.211,0,0,1-.039-.2,2.486,2.486,0,0,0,.518-.9,17.856,17.856,0,0,0,1.613-4.928,25.023,25.023,0,0,0,.448-3.782,17.912,17.912,0,0,0-1.487-7.473,18.785,18.785,0,0,0-4.574-7.019c-.4-.37-1.084-.529-1.067-1.261a22.411,22.411,0,0,1,2.844,2.66,22.83,22.83,0,0,1,2.838,4.84,19.5,19.5,0,0,1,1.723,9.11,18.177,18.177,0,0,1-1.989,7.81C1540.783,492.182,1540.776,492.819,1540.238,493.163Z" transform="translate(-2.802 -11.691)" fill="#d8a96d"/>
    <path id="Trazado_18905" data-name="Trazado 18905" d="M1508.169,492.781a3.692,3.692,0,0,1-.706-1.426,3.426,3.426,0,0,0-.552-1.111,2.018,2.018,0,0,0-.228-.97,9.55,9.55,0,0,1-.681-2.94,15.8,15.8,0,0,1,0-5.775,22.393,22.393,0,0,1,1.661-5.712,12.793,12.793,0,0,1,1.756-2.919.141.141,0,0,1,.193-.007c.1.456-.306.738-.392,1.132a1.329,1.329,0,0,1-.12.2,16.644,16.644,0,0,0-1.9,4.283c-.247,1.043-.456,2.1-.79,3.121a3.122,3.122,0,0,0-.076,1.013,15.328,15.328,0,0,1,0,1.653,15.587,15.587,0,0,0,.721,5.108,32.713,32.713,0,0,0,1.124,3.092C1508.323,491.944,1508.522,492.365,1508.169,492.781Z" transform="translate(-0.103 -12.107)" fill="#d2ac7a"/>
    <path id="Trazado_18906" data-name="Trazado 18906" d="M1537.263,501.08c.376-.443,1.14-.61,1.228-.923.178-.63.726-.652,1.04-1,.118-.131.247-.314.457-.228.229.095.209.326.238.536.093.656-.419,1.308.029,1.982.1.156-.248.312-.379.237C1539.074,501.226,1538.073,501.731,1537.263,501.08Z" transform="translate(-2.949 -14.545)" fill="#fe962a"/>
    <path id="Trazado_18907" data-name="Trazado 18907" d="M1541.511,495.782c-.048-.229-.037-.44.2-.461s.342.149.394.393c.125.587-.327,1.021-.373,1.573a4.69,4.69,0,0,1-.43,1.247c-.07.176-.2.328-.42.277-.245-.057-.05-.276-.1-.373-.518-.932-.093-1.568.621-2.133C1541.576,496.161,1541.659,495.972,1541.511,495.782Z" transform="translate(-3.245 -14.222)" fill="#fe962a"/>
    <path id="Trazado_18908" data-name="Trazado 18908" d="M1509.952,471.359l-.167-.005c-.063-.537.4-.781.666-1.108a19.566,19.566,0,0,1,5.439-4.67,1.089,1.089,0,0,1,.382-.055,1.75,1.75,0,0,1-.634.628,12.98,12.98,0,0,0-2.059,1.574l-.467.325a26.427,26.427,0,0,0-2.555,2.737C1510.388,471.009,1510.276,471.3,1509.952,471.359Z" transform="translate(-0.468 -11.532)" fill="#d7a96e"/>
    <path id="Trazado_18909" data-name="Trazado 18909" d="M1523.561,463.611c-1,.428-2.1.372-3.126.735a5.2,5.2,0,0,1-1.771.528c-.356.187-.749.286-1.11.462l-.481-.011c.4-.614,1.122-.6,1.711-.821A10.334,10.334,0,0,1,1523.561,463.611Z" transform="translate(-1.127 -11.357)" fill="#d7a96e"/>
    <path id="Trazado_18910" data-name="Trazado 18910" d="M1544.579,489.617c-.12.5-.222.954-.341,1.4a.335.335,0,0,1-.335.276c-.264,0-.245-.211-.264-.392-.064-.6.3-1.084.434-1.633.025-.1.166-.255.294-.167A.562.562,0,0,1,1544.579,489.617Z" transform="translate(-3.524 -13.659)" fill="#fe962a"/>
    <path id="Trazado_18911" data-name="Trazado 18911" d="M1510.317,469.548a1.628,1.628,0,0,1,.213-1.053c.092-.136.125-.4.38-.268a.4.4,0,0,1,.157.549,1.857,1.857,0,0,1-.75.772Z" transform="translate(-0.516 -11.774)" fill="#fe962a"/>
    <path id="Trazado_18912" data-name="Trazado 18912" d="M1542.722,494.65c-.274-.232-.171-.432-.14-.63.041-.253.05-.524.325-.641.054-.024.209.065.239.137a.6.6,0,0,1-.119.769A2.978,2.978,0,0,0,1542.722,494.65Z" transform="translate(-3.425 -14.046)" fill="#fe962a"/>
    <path id="Trazado_18913" data-name="Trazado 18913" d="M1510.258,469.682a.631.631,0,0,1-.437.722c-.037.012-.151-.073-.156-.12-.04-.428.354-.44.593-.6Z" transform="translate(-0.458 -11.908)" fill="#fe962a"/>
    <path id="Trazado_18914" data-name="Trazado 18914" d="M1536.588,399.1a10.586,10.586,0,0,1,6.521,2.229c.268.179.558.425.29.766s-.57.082-.83-.089a10.716,10.716,0,0,0-4.509-1.951,7.4,7.4,0,0,0-3.049.087,22.385,22.385,0,0,0-4.99,1.656c-.254.145-.5.217-.68-.081-.155-.257.014-.452.195-.611a1.438,1.438,0,0,1,.4-.248A22.071,22.071,0,0,1,1536.588,399.1Z" transform="translate(-2.228 -5.537)" fill="#030302"/>
    <path id="Trazado_18915" data-name="Trazado 18915" d="M1527.946,383.854a2.061,2.061,0,0,1,1.93,2,2.086,2.086,0,0,1-1.879,1.718,1.846,1.846,0,0,1-1.877-1.991A1.93,1.93,0,0,1,1527.946,383.854Z" transform="translate(-1.943 -4.162)" fill="#010101"/>
    <path id="Trazado_18916" data-name="Trazado 18916" d="M1543.469,385.527a1.7,1.7,0,0,1,1.747-1.635,1.876,1.876,0,0,1,1.887,1.882,2.089,2.089,0,0,1-2.02,1.753A2,2,0,0,1,1543.469,385.527Z" transform="translate(-3.509 -4.165)" fill="#010101"/>
    <path id="Trazado_18917" data-name="Trazado 18917" d="M1536.965,388.089c-.18.625-.361,1.333-.592,2.024-.206.613-.147,1.009.613,1.043a1.032,1.032,0,0,1,.512.182.48.48,0,0,1,.207.612.433.433,0,0,1-.5.284,6.724,6.724,0,0,1-2.08-.678c-.267-.129-.187-.425-.106-.634a10.9,10.9,0,0,0,.91-3.627.421.421,0,0,1,.476-.418.438.438,0,0,1,.467.432C1536.9,387.541,1536.927,387.775,1536.965,388.089Z" transform="translate(-2.739 -4.435)" fill="#ce7e47"/>
    <path id="Trazado_18918" data-name="Trazado 18918" d="M1539.886,458.242a12.954,12.954,0,0,1-5.546-1.409,5.228,5.228,0,0,1-1.386-1.482.241.241,0,0,1,.026-.354.27.27,0,0,1,.358.028,1.435,1.435,0,0,1,.339.328c.741,1.186,1.986,1.529,3.2,1.929a12.342,12.342,0,0,0,5.221.135,5.027,5.027,0,0,0,2.577-1.253c.172-.139.348-.434.585-.194s-.019.448-.195.585a5.744,5.744,0,0,1-3.6,1.544A14.477,14.477,0,0,0,1539.886,458.242Z" transform="translate(-2.554 -10.578)" fill="#c8701d"/>
    <path id="Trazado_18919" data-name="Trazado 18919" d="M1516.805,503.7a7.386,7.386,0,0,1,1.8.7,15.7,15.7,0,0,0,8.71.519c.379-.093.759-.4,1.182-.113-.355.223-.727.424-1.058.678-.2.155-.416.4-.313.67.114.3.448.257.7.223,1.139-.155,2.278-.314,3.409-.516a5.282,5.282,0,0,1,1.011-.116c.788.01,1.044.359.732,1.11a3.875,3.875,0,0,1-2.525,2.2c-.866.284-1.763.47-2.632.746a8.23,8.23,0,0,1-3.491.2c-.138-.016-.379.026-.337-.211.13-.721-.379-.679-.821-.72-.7-.065-1.409-.124-2.113-.185a.21.21,0,0,1-.127-.124c.565-.763.533-.689-.311-1.054a38.471,38.471,0,0,0-4.309-1.113,3.29,3.29,0,0,1-2.354-2.244c-.025-.507.3-.585.658-.451a.989.989,0,0,0,1.087-.15C1516.074,503.416,1516.444,503.821,1516.805,503.7Z" transform="translate(-0.845 -14.971)" fill="#fd972b"/>
    <path id="Trazado_18920" data-name="Trazado 18920" d="M1520.95,509.2l.126.124c-1.622.452-3.272.128-4.908.159a4.459,4.459,0,0,1-1.777-.6c-.127-.055-.243-.121-.174-.286.056-.136.207-.227.318-.171,1.912.964,3.975.473,5.969.634A2.06,2.06,0,0,1,1520.95,509.2Z" transform="translate(-0.867 -15.402)" fill="#cd834d"/>
    <path id="Trazado_18921" data-name="Trazado 18921" d="M1528.674,465.754a14.458,14.458,0,0,1,2.674,1.132c1.069,1.446,2.718,2.283,3.826,3.7a23.825,23.825,0,0,1,2.948,5.184,20.1,20.1,0,0,1,1.449,6.58,14.4,14.4,0,0,1-.5,4.129,18.826,18.826,0,0,1-4,8.371,2.813,2.813,0,0,1-.314.352c-.187.161-.4.29-.64.146-.269-.161-.159-.407-.088-.633a1.225,1.225,0,0,1,.117-.224,9.042,9.042,0,0,0-.074-7.092c-.677-1.037-.677-1.06.054-2.061a2.074,2.074,0,0,0-1.473-3.064,2.329,2.329,0,0,0-1.386.158,1.442,1.442,0,0,1-.823.22,7.614,7.614,0,0,1-1.292-.709,8.856,8.856,0,0,0-5.653-.545c-1.037.29-1.238.119-1.188-.957a4.092,4.092,0,0,0-.818-2.706.383.383,0,0,1,.045-.3c.88-1.051,1.447-2.318,2.308-3.378,1.13-1.391,2.071-1.558,3.654-.731a4.733,4.733,0,0,1,1.349.946,1.885,1.885,0,0,0,2.166.463,4.257,4.257,0,0,0,1.571-.831c-.538.184-1.047.439-1.585.615a1.81,1.81,0,0,1-1.9-.356,5.512,5.512,0,0,0-2.9-1.483,2.113,2.113,0,0,0-1.628.4,5.743,5.743,0,0,0-1.585,1.835,9.528,9.528,0,0,1-1.279,1.888,2.458,2.458,0,0,1-2.883.317c-.1-.29.077-.5.207-.727a4.385,4.385,0,0,0,.637-3.079c-.187-1.021-.048-1.185.976-1.366a3.844,3.844,0,0,0,1.74-.56,8.491,8.491,0,0,0-2.58-.506c-.287-.024-.578,0-.866-.018-.336-.026-.639-.1-.677-.512a.664.664,0,0,1,.588-.8c.6-.1,1.187-.22,1.772-.371a.3.3,0,0,0,.26-.232,2.294,2.294,0,0,0-1.35-.435c-.392-.031-.787,0-1.181-.042-.952-.1-1.355.289-1.139,1.221a3.608,3.608,0,0,1-.4,2.276,1.631,1.631,0,0,1-.863.883,4.209,4.209,0,0,1-2.168.117,5.464,5.464,0,0,0-1.957.02c-.359.065-.782.209-1.01-.164s.118-.685.3-.989a16,16,0,0,1,4.072-4.109,11.108,11.108,0,0,1,3.614-1.86,1.381,1.381,0,0,0,.85-.742,19,19,0,0,1,6.537-.2A4.65,4.65,0,0,1,1528.674,465.754Z" transform="translate(-0.555 -11.462)" fill="#8dcbf2"/>
    <path id="Trazado_18922" data-name="Trazado 18922" d="M1536.234,494.872c.1.2-.31.466.058.6.23.083.369-.147.5-.307a19.676,19.676,0,0,0,4.131-8.457,16.993,16.993,0,0,0-.786-10.136,22.68,22.68,0,0,0-3.352-5.993,13.608,13.608,0,0,0-2-1.767c-.578-.488-1.224-.9-1.4-1.713a6.1,6.1,0,0,1,2.456,1.606,16.021,16.021,0,0,1,4.3,6.126,17.9,17.9,0,0,1,1.459,4.094,15.083,15.083,0,0,1,.495,4.895,22.788,22.788,0,0,1-1.054,5.216,19.261,19.261,0,0,1-4.037,7.112,11.115,11.115,0,0,1-1.7,1.517c-.213.155-.484.284-.729.093s-.007-.429.027-.646c.291-.7.8-1.268,1.135-1.942C1535.838,494.986,1535.977,494.813,1536.234,494.872Z" transform="translate(-2.6 -11.675)" fill="#a1c3d0"/>
    <path id="Trazado_18923" data-name="Trazado 18923" d="M1534.171,498.262l-.2.609a1.292,1.292,0,0,0,.9-.433,17.975,17.975,0,0,0,4.97-7.132,20.012,20.012,0,0,0,1.427-8.726c-.051-.83-.325-1.638-.3-2.482a11.157,11.157,0,0,1,.637,3.039c.373,2.211-.447,4.272-.824,6.379a12.494,12.494,0,0,1-1.265,3.327,1.06,1.06,0,0,0-.125.525.2.2,0,0,1,.051.134c0,.05,0,.075-.013.075-.7.812-1.183,1.772-1.805,2.639-.416.58-.939,1.041-1.394,1.573-.362.724-1.123,1.016-1.691,1.509a23.658,23.658,0,0,1-2.413,1.651,15.393,15.393,0,0,1-3.634,1.417,1.7,1.7,0,0,1-.944.162c-.349.162-.728.02-1.082.109-.174-.045-.295-.151-.137-.3.181-.176.12-.353.085-.544.195-.287.5-.237.782-.258a11.218,11.218,0,0,0,5.561-2.152,5.474,5.474,0,0,0,.587-.628C1533.576,498.524,1533.756,498.188,1534.171,498.262Z" transform="translate(-1.955 -12.848)" fill="#b4bcb1"/>
    <path id="Trazado_18924" data-name="Trazado 18924" d="M1528.541,465.723a15.191,15.191,0,0,0-6.931-.634c-.689.093-1.406-.192-2.071.167a4.5,4.5,0,0,1-1.817.84,16.682,16.682,0,0,0-5.731,4.284,16.078,16.078,0,0,0-1.392,1.9,1.751,1.751,0,0,0-.317,1.1.612.612,0,0,1-.711.351c-.537-.367-.26-.778-.026-1.143a3.321,3.321,0,0,0,.682-1.291.634.634,0,0,1,.2-.284,7.084,7.084,0,0,0,1.387-1.461,3.444,3.444,0,0,1,1.094-.976,7.526,7.526,0,0,0,1.547-1.264,13.372,13.372,0,0,1,4.414-2.259,14.974,14.974,0,0,1,7.182-.395C1526.891,464.821,1527.973,464.773,1528.541,465.723Z" transform="translate(-0.422 -11.431)" fill="#a8bfc3"/>
    <path id="Trazado_18925" data-name="Trazado 18925" d="M1510.553,471.451l-.158.157c-.3.38-.222,1.088-.947,1.106-.061-.463.363-.717.474-1.105a14.6,14.6,0,0,1,2.625-3.02.709.709,0,0,1,.534-.293l-.473.63A23.482,23.482,0,0,1,1510.553,471.451Z" transform="translate(-0.438 -11.783)" fill="#c5b290"/>
    <path id="Trazado_18926" data-name="Trazado 18926" d="M1510.663,471.514a11.126,11.126,0,0,1,2.055-2.525h.315c-.672.8-1.34,1.594-2.022,2.38C1510.938,471.454,1510.781,471.467,1510.663,471.514Z" transform="translate(-0.548 -11.845)" fill="#b5baae"/>
    <path id="Trazado_18927" data-name="Trazado 18927" d="M1513.955,467.784a4,4,0,0,1,2.059-1.574A8.739,8.739,0,0,1,1513.955,467.784Z" transform="translate(-0.845 -11.595)" fill="#c5b290"/>
    <path id="Trazado_18928" data-name="Trazado 18928" d="M1540.681,494.791c0-.051,0-.1,0-.155l.471-.476a.848.848,0,0,1-.469.952A.216.216,0,0,1,1540.681,494.791Z" transform="translate(-3.251 -14.117)" fill="#ccaf83"/>
    <path id="Trazado_18929" data-name="Trazado 18929" d="M1517.6,465.465a1.57,1.57,0,0,1,1.11-.462A1.331,1.331,0,0,1,1517.6,465.465Z" transform="translate(-1.174 -11.486)" fill="#c5b290"/>
    <path id="Trazado_18930" data-name="Trazado 18930" d="M1511.274,497.7c-1.223-.958-1.749-2.392-2.5-3.669a1.867,1.867,0,0,1-.285-1.861c.345-.257.263-.561.149-.912a29.807,29.807,0,0,1-1.393-5.49,14.8,14.8,0,0,1,.606-6.22c.1-.318.168-.725.6-.74.443-.015.468.427.624.712a17.813,17.813,0,0,0,3.734,5.872,12.634,12.634,0,0,0,2.782,2.042.921.921,0,0,1,.55,1.266,10.352,10.352,0,0,0-.516,1.98,8.516,8.516,0,0,0,.584,4.844,1.133,1.133,0,0,1-.358,1.535,1.469,1.469,0,0,0-.406,1.072c-.025.233-.044.511-.345.547a.569.569,0,0,1-.586-.438,3.575,3.575,0,0,1-.239-1.389c.008-.3.138-.7-.329-.746-.393-.036-.49.329-.593.63-.068.2-.084.412-.14.614-.186.66-.709.69-1.259.667C1511.685,497.992,1511.514,497.774,1511.274,497.7Z" transform="translate(-0.23 -12.732)" fill="#8dcbf2"/>
    <path id="Trazado_18931" data-name="Trazado 18931" d="M1508.511,491.675c-.432.627.033,1.166.167,1.739-.271-.124-.338-.4-.475-.628.023-1.158-.622-2.124-.929-3.188-.141-.49-.385-.948-.523-1.456a21.318,21.318,0,0,1-.6-6.567c.687-2.954,1.336-5.921,2.995-8.533h0c.526-.189.483-.865.947-1.106.084.557-.3.9-.578,1.3-.23.324-.581.643-.192,1.083.013.023.042.055.035.066a9.349,9.349,0,0,0-.859,2.956c-.364-.046-.623.065-.674.467-.153,1.2-.618,2.322-.792,3.528a15.684,15.684,0,0,0,.481,6.542c.275.989.61,1.947.975,2.9C1508.6,491.068,1508.75,491.372,1508.511,491.675Z" transform="translate(-0.138 -12.112)" fill="#b5baae"/>
    <path id="Trazado_18932" data-name="Trazado 18932" d="M1512.391,499.521c.676.036,1.207-.07,1.155-.954a1.445,1.445,0,0,1,.264-.73.653.653,0,0,1,.874-.311.542.542,0,0,1,.308.774c-.214.553.088,1.077.165,1.612a.359.359,0,0,0,.4.307c.208-.04.146-.247.158-.392.04-.464.008-.952.483-1.247.226.395.049.81.035,1.208a2.179,2.179,0,0,0,.54,1.7.987.987,0,0,1-.117.976,1.8,1.8,0,0,1-.328.192l-.451.008c-.814-.352-1.761-.5-2.209-1.423-.112-.7-.263-1.369-1.144-1.483C1512.42,499.75,1512.368,499.638,1512.391,499.521Z" transform="translate(-0.704 -14.415)" fill="#a0c4d5"/>
    <path id="Trazado_18933" data-name="Trazado 18933" d="M1512.327,499.712c.019.018.035.046.056.053,1.228.352,1.228.352,1.219,1.672-.5-.761-1.412-1.1-1.918-1.86Z" transform="translate(-0.64 -14.606)" fill="#c0b496"/>
    <path id="Trazado_18934" data-name="Trazado 18934" d="M1516.717,503.146l.177-.155a1.068,1.068,0,0,1,1.115.031,13.5,13.5,0,0,0,6.213,1.337,1.516,1.516,0,0,1,1.2.217l1.263,0a5.8,5.8,0,0,1-4.047.209,11.526,11.526,0,0,0-2.308-.311,8.28,8.28,0,0,1-3.023-1.16A1.188,1.188,0,0,0,1516.717,503.146Z" transform="translate(-1.095 -14.901)" fill="#c6b290"/>
    <path id="Trazado_18935" data-name="Trazado 18935" d="M1540.375,494.854l.005.321-.009.15c-.824.811-1.245,1.908-1.992,2.779a3.28,3.28,0,0,1-1.161,1.015c.007-.051-.005-.124.024-.151C1538.515,497.772,1539.209,496.132,1540.375,494.854Z" transform="translate(-2.945 -14.18)" fill="#bdb59d"/>
    <path id="Trazado_18936" data-name="Trazado 18936" d="M1528.711,504.434c.387-.527,1.033-.409,1.552-.591a9.633,9.633,0,0,1,2.082-.826A6.4,6.4,0,0,1,1528.711,504.434Z" transform="translate(-2.177 -14.917)" fill="#c6b290"/>
    <path id="Trazado_18937" data-name="Trazado 18937" d="M1509.151,473.153c.06.586-.378.969-.625,1.41-1.246,2.227-1.539,4.763-2.37,7.122a16.358,16.358,0,0,1,.632-3.038,18.157,18.157,0,0,1,1.881-5A1.009,1.009,0,0,1,1509.151,473.153Z" transform="translate(-0.141 -12.221)" fill="#c5b290"/>
    <path id="Trazado_18938" data-name="Trazado 18938" d="M1516.309,498.971c-1.069-.859-.606-1.952-.46-3a.854.854,0,0,0,.315-1.278,8.4,8.4,0,0,1-.433-5.888c.133-.579.53-1.207.4-1.7-.139-.526-.946-.653-1.443-.977a13.428,13.428,0,0,1-4.452-4.944c-.44-.8-.743-1.652-1.187-2.441-.11-.328-.082-.687-.368-.976a.553.553,0,0,1,.042-.77,3.548,3.548,0,0,1,.824-2.977.954.954,0,0,0,.624-.319,6.307,6.307,0,0,1,3.6-.435,3.406,3.406,0,0,0,1.92-.2,2.809,2.809,0,0,0,1.092-2.949c-.273-1.051.25-1.613,1.334-1.515a7.155,7.155,0,0,1,2.549.358c.219.1.494.187.481.446-.014.287-.326.312-.548.337a11.588,11.588,0,0,1-1.93.328c-.325-.017-.447.207-.454.516-.008.364.2.439.506.423a9.782,9.782,0,0,1,3.4.448c.193.058.458.072.45.35s-.276.238-.462.317a7.915,7.915,0,0,1-1.968.434c-.484.07-.67.236-.521.7a5.5,5.5,0,0,1-.153,2.85c-.107.531-.683.8-.774,1.338-.389.329-1.037-.113-1.348.451-2.039.126-2.758,1.727-3.61,3.181a10.574,10.574,0,0,1,1.008-1.643,5.319,5.319,0,0,1,1.531-1.334,2.494,2.494,0,0,1,2.587.349,7.271,7.271,0,0,1,1.9,2.947.906.906,0,0,1-.168,1.013.635.635,0,0,1-.793.129c-.373-.209-.767-.41-.736-.92a2.176,2.176,0,0,0-.718-1.585,1.553,1.553,0,0,0-2.313.467,2.56,2.56,0,0,0-.541,1.592,2.541,2.541,0,0,1,1.326-2.225,1.252,1.252,0,0,1,1.628.3,2.34,2.34,0,0,1,.6,1.482c-.026.489.394.692.763.907a.616.616,0,0,0,.785-.146.944.944,0,0,0,.188-1.007,10.446,10.446,0,0,0-1.432-2.516c0-.512.372-.708.75-.9.4-.119.8-.357,1.211-.043a3.236,3.236,0,0,1,1,3c-.069.657.179.825.783.65a11.078,11.078,0,0,1,2.081-.346c1.333-.122,2.478.532,3.724.747.077.013.134.149.2.228-.572.349-1.315.16-1.862.711a2.1,2.1,0,0,0-.609,2.344,2.391,2.391,0,0,0,1.695,1.474,2.1,2.1,0,0,0,2.071-1.241,1.522,1.522,0,0,0-.012-1.879.856.856,0,0,1-.163-.747c.617-.092,1.108-.542,1.781-.533a2.487,2.487,0,0,1,2.3,1.617,1.7,1.7,0,0,1-.518,2.182c-.623.561,0,.981.207,1.443a9.161,9.161,0,0,1,.692,4.809,6.828,6.828,0,0,1-.692,2.607h0a20.29,20.29,0,0,0-1.419,2.217,10.8,10.8,0,0,1-5.155,3.179c-.849.26-1.75.156-2.587.447-.257.268-.571.184-.87.126a14.425,14.425,0,0,1-2.328-.529,2.082,2.082,0,0,1-1.194-.509,1.551,1.551,0,0,0-2.141-.179A1.9,1.9,0,0,1,1516.309,498.971Z" transform="translate(-0.357 -11.809)" fill="#fdd29f"/>
    <path id="Trazado_18939" data-name="Trazado 18939" d="M1519.937,479.294a8.271,8.271,0,0,1,1.456,2.411,1.166,1.166,0,0,1-.243,1.23.65.65,0,0,1-.772.24c-.466-.211-.942-.45-.992-1.015a2.3,2.3,0,0,0-.163-.724c-.267-.648-.579-1.235-1.382-1.157a1.825,1.825,0,0,0-1.515,1.321,14.21,14.21,0,0,0-.409,1.622,2.794,2.794,0,0,1,.782-2.734,1.632,1.632,0,0,1,1.955-.347,2.027,2.027,0,0,1,1.016,1.795c0,.449.282.643.588.853a.562.562,0,0,0,.722-.065c.324-.247.188-.551.108-.861a5.857,5.857,0,0,0-2.047-3.008,2.489,2.489,0,0,0-3.352.644,5.979,5.979,0,0,0-1.329,2.115c-.065.21-.136.466-.523.472a7.039,7.039,0,0,1,2.743-3.685,1.389,1.389,0,0,1,.829-.208c.131,0,.372.016.378-.013.23-1.112.945-.14,1.383-.328a2.654,2.654,0,0,0,3.451-1.457,11.288,11.288,0,0,1,1.116-1.8c1.441-1.742,2.687-1.731,4.573-.73a4.921,4.921,0,0,1,1.236.961,1.321,1.321,0,0,0,1.58.295c.562-.214,1.1-.49,1.65-.735.186-.084.41-.238.543.032.123.25-.107.372-.284.485a6.622,6.622,0,0,1-1.925.872,1.846,1.846,0,0,1-2.071-.554,4.658,4.658,0,0,0-2.116-1.314,2,2,0,0,0-2.105.464,8.287,8.287,0,0,0-1.578,2.142,6.649,6.649,0,0,1-1.448,1.838l-1.227.2C1520.338,478.783,1519.416,478.427,1519.937,479.294Z" transform="translate(-0.835 -12.224)" fill="#c38558"/>
    <path id="Trazado_18940" data-name="Trazado 18940" d="M1531.98,484.234a4.735,4.735,0,0,1,.734,1.484,2.631,2.631,0,0,1-2.094,2.591,2.677,2.677,0,0,1-2.409-1.4,2.447,2.447,0,0,1,2.649-3.336A3.208,3.208,0,0,1,1531.98,484.234Z" transform="translate(-2.115 -13.162)" fill="#fba896"/>
    <path id="Trazado_18941" data-name="Trazado 18941" d="M1515.829,472.766a1.068,1.068,0,0,1-.919.32c-.6-.009-1.2.033-1.789-.028a9.3,9.3,0,0,0-2.809.348.624.624,0,0,1-.025-.854,17.824,17.824,0,0,1,6.155-5.937,13.348,13.348,0,0,1,3.176-1.273.574.574,0,0,1-.5.667,15.233,15.233,0,0,0-6.6,4.332,15.406,15.406,0,0,0-1.551,2.062c-.223.314-.165.608.281.5a11.64,11.64,0,0,1,3.505,0A5.223,5.223,0,0,0,1515.829,472.766Z" transform="translate(-0.5 -11.516)" fill="#9ec5d5"/>
    <path id="Trazado_18942" data-name="Trazado 18942" d="M1536.516,496.892a20.654,20.654,0,0,0,.639-3.117,8.372,8.372,0,0,0-.52-3.613,2.962,2.962,0,0,1-.12-.686,3.956,3.956,0,0,1,.688,1.865,11.458,11.458,0,0,1-.378,5.223A.488.488,0,0,1,1536.516,496.892Z" transform="translate(-2.881 -13.694)" fill="#a1c3d0"/>
    <path id="Trazado_18943" data-name="Trazado 18943" d="M1517.065,501.985a2.9,2.9,0,0,0,2.055.62c.821.8,1.9.741,2.921.887.159.023.217-.106.243-.242a19.105,19.105,0,0,0,3.3.612c.144.022.369-.035.4.129.076.412-.428.264-.547.508-.6,0-1.2-.006-1.8,0a13.066,13.066,0,0,1-5.755-1.375,2.3,2.3,0,0,0-.968-.215A1.491,1.491,0,0,0,1517.065,501.985Z" transform="translate(-1.112 -14.823)" fill="#aac0c2"/>
    <path id="Trazado_18944" data-name="Trazado 18944" d="M1508.552,477.789c-.1.62.473,1.116.326,1.746-.154-.1-.139-.269-.171-.421s-.114-.308-.3-.3-.255.154-.3.315a24.534,24.534,0,0,0-.626,2.5,15.577,15.577,0,0,0,.711,7.422,12.4,12.4,0,0,0,.75,2.313c.237.409-.065.623-.381.8a3.152,3.152,0,0,0-.423-1.412,15.347,15.347,0,0,1-1.216-4.178,14.542,14.542,0,0,1-.078-4.76c.182-1.246.734-2.394.806-3.656a.844.844,0,0,1,.508-.752C1508.467,477.29,1508.356,477.722,1508.552,477.789Z" transform="translate(-0.189 -12.604)" fill="#a1c3d0"/>
    <path id="Trazado_18945" data-name="Trazado 18945" d="M1520.3,497.006a2.023,2.023,0,0,1-2.142-2.1c.1-1.666.489-2.4,2.178-2.465a2.5,2.5,0,0,1,2.429,2.123A2.392,2.392,0,0,1,1520.3,497.006Z" transform="translate(-1.224 -13.962)" fill="#fba796"/>
    <path id="Trazado_18946" data-name="Trazado 18946" d="M1522.5,503.266c.026.135.407.221.067.408a5.468,5.468,0,0,1-3.188-.745c-.053-.075-.031-.2-.044-.308a1.145,1.145,0,0,1,1.737-.115A2.368,2.368,0,0,0,1522.5,503.266Z" transform="translate(-1.331 -14.839)" fill="#98c8e2"/>
    <path id="Trazado_18947" data-name="Trazado 18947" d="M1524.342,487.177a1.8,1.8,0,0,1-1.671,1.739c-.256,0-.486-.055-.534-.348a.388.388,0,0,1,.338-.459,1.223,1.223,0,0,0,1.055-1.105.4.4,0,0,1,.525-.348C1524.341,486.732,1524.36,486.981,1524.342,487.177Z" transform="translate(-1.583 -13.438)" fill="#0b0907"/>
    <path id="Trazado_18948" data-name="Trazado 18948" d="M1524.854,493.968c.2,0,.4.047.413.268.029.347-.245.248-.439.252a.816.816,0,0,0-.857.818c-.024.2.115.478-.21.465s-.392-.328-.374-.593A1.383,1.383,0,0,1,1524.854,493.968Z" transform="translate(-1.696 -14.099)" fill="#180e09"/>
    <path id="Trazado_18949" data-name="Trazado 18949" d="M1530.649,489.266a.681.681,0,0,1,.571.187c.1.112.241.221.145.4s-.245.147-.4.071c-.655-.328-.909.091-.979.611-.029.22.039.436-.237.434-.234,0-.324-.226-.352-.446C1529.333,490,1530.056,489.27,1530.649,489.266Z" transform="translate(-2.239 -13.675)" fill="#160b06"/>
    <path id="Trazado_18950" data-name="Trazado 18950" d="M1518.851,473.7a1.984,1.984,0,0,1-.712,2.221c-.1.049-.207.108-.278.009a.421.421,0,0,1,.072-.571A3.134,3.134,0,0,0,1518.851,473.7Z" transform="translate(-1.19 -12.271)" fill="#bcccc7"/>
    <path id="Trazado_18951" data-name="Trazado 18951" d="M1520.489,479.824a1.821,1.821,0,0,1-.307-.231c-.1-.112-.253-.271-.229-.375.053-.23.3-.141.465-.149.233-.01.468.006.7.012C1520.89,479.313,1520.522,479.427,1520.489,479.824Z" transform="translate(-1.386 -12.754)" fill="#b8b2a8"/>
    <path id="Trazado_18952" data-name="Trazado 18952" d="M1531.874,486c.112,1.14-.662,1.438-1.7,1.558-.623.072-1.455-.859-1.433-1.521a1.849,1.849,0,0,1,1.557-1.773A1.53,1.53,0,0,1,1531.874,486Z" transform="translate(-2.18 -13.224)" fill="#fd8891"/>
    <path id="Trazado_18953" data-name="Trazado 18953" d="M1520.387,493.293a1.691,1.691,0,0,1,1.591,1.615,1.637,1.637,0,0,1-1.664,1.54,1.806,1.806,0,0,1-1.492-1.764A1.428,1.428,0,0,1,1520.387,493.293Z" transform="translate(-1.285 -14.039)" fill="#fd8a91"/>
  </g>
</svg>
