<svg xmlns="http://www.w3.org/2000/svg" width="53.796" height="160.927" viewBox="0 0 53.796 160.927">
  <g id="Grupo_8146" data-name="Grupo 8146" transform="translate(-578.423 -142.297)">
    <path id="Trazado_19138" data-name="Trazado 19138" d="M582.255,288.447a15.439,15.439,0,0,1-2.822-5.184,19.939,19.939,0,0,1-1.005-5.976,31.363,31.363,0,0,1,1.2-8.881,41.891,41.891,0,0,1,3.462-8.517,49.813,49.813,0,0,1,3.715-6.233,36.752,36.752,0,0,1,3.4-4.374,1.318,1.318,0,0,0,.44-1.031,15.983,15.983,0,0,0,2.674.542,19.475,19.475,0,0,0,3.572-.424,15.614,15.614,0,0,0-1.907.145,6.772,6.772,0,0,1-3.979-.492c-2.263-1.191-3.011-3.221-3.14-5.585a12.286,12.286,0,0,1,.929-4.975,21.873,21.873,0,0,1,.758-2.123c-.612.592-.625,1.439-.922,2.164-.09.219.014.553-.353.613.027-.878-.449-1.655-.363-2.582a51.436,51.436,0,0,1,1.9-10.819,4.658,4.658,0,0,1,1.642-2.771,4.369,4.369,0,0,1,.85-.518,35.907,35.907,0,0,0,3.619-1.659c.516-.371.679.014.834.394a12.94,12.94,0,0,1,1.051,3.732c.87,2.347,1.677,4.717,2.365,7.124.236.829.474,1.661.746,2.476.652,1.955,1.28,3.918,1.872,5.985a13.772,13.772,0,0,0,1.445-1.7c2.4-2.857,4.73-5.777,7.073-8.684a34.538,34.538,0,0,1,2.513-2.985,6.857,6.857,0,0,0,1.613-1.976.96.96,0,0,1,.2-.261c1.02-1.074,1.781-2.355,2.776-3.451.417-.46.788-.963,1.2-1.429.266-.183.507-.037.737.074,1.791.857,3.654,1.554,5.437,2.433a5.232,5.232,0,0,1,2.4,2.275,29.354,29.354,0,0,1,2.693,7.493c.442,1.962.963,3.9,1.223,5.9.036.277-.061.579.116.836v.786a1.425,1.425,0,0,1-1.192.167,3.331,3.331,0,0,0-1.168-.1,17.456,17.456,0,0,0-6.138.584c-.629.209-1.192.536-1.791.793-.455.15-.455.517-.431.9.223,3.418.4,6.838.59,10.258.193,3.5.392,7,.737,10.485a4.009,4.009,0,0,1-.33,1.9c-.879,2.24-1.8,4.465-2.634,6.72-.938,2.527-2.016,5-2.96,7.521-.9,2.4-1.909,4.759-2.826,7.153-.448,1.171-.836,2.367-1.367,3.5a1.676,1.676,0,0,0,.118,1.637,1.27,1.27,0,0,1-1.273,1.235,10.383,10.383,0,0,1-1.169.107,21.178,21.178,0,0,0-8.779,2.054,2.316,2.316,0,0,0-1.036.764,1.922,1.922,0,0,0,1.568.189,16.241,16.241,0,0,1,3.177-.445c1.058-.012,1.37.463.991,1.448a4.078,4.078,0,0,1-2.8,2.321,22.394,22.394,0,0,1-4.039.954c-.928.124-2,.267-2.635-.835-.193-.334-.644-.292-1.01-.317a6.219,6.219,0,0,1-1.711-.112.316.316,0,0,1-.156-.182c.109-.943.133-.936-1.047-1.232a42.479,42.479,0,0,1-4.16-1.1,3.083,3.083,0,0,1-1.742-1.6,5.5,5.5,0,0,0-2.581-2.6A5.161,5.161,0,0,1,582.255,288.447Z" fill="#f79630"/>
    <path id="Trazado_19139" data-name="Trazado 19139" d="M619.5,202.787a12.683,12.683,0,0,1-.492,1.762,3.494,3.494,0,0,1-.427-1.877c-.046-2.246-.1-4.491-.3-6.732-.235-2.607-.572-5.2-1.054-7.77-.27-1.439-.621-2.859-.948-4.286-.34-1.481-.8-2.922-1.189-4.386a39.2,39.2,0,0,0-2.686-6.686,15.527,15.527,0,0,0-1.879-3.076,5.951,5.951,0,0,1,.927-2.28,18.358,18.358,0,0,0,1.238-3.68,13.664,13.664,0,0,0-.778,2.156A24.252,24.252,0,0,1,606.7,174.5a29.306,29.306,0,0,1-9.1,6.54,52.633,52.633,0,0,1-5.368,2.163,93.07,93.07,0,0,1-9.547,2.454,21.633,21.633,0,0,0-2.371.5,8.716,8.716,0,0,0,1.759-.224c.313-.04.676-.245.905.181a12.75,12.75,0,0,1-.393,2.627,26.285,26.285,0,0,0-.258,6.956,13.878,13.878,0,0,0,.068,2.315.6.6,0,0,1-.136.386,32.381,32.381,0,0,0,.876,6.567.836.836,0,0,1,0,.624,34.3,34.3,0,0,1-2.02-5.051c-.6-1.919-1.032-3.879-1.51-5.823a26.249,26.249,0,0,1-.453-4.123c-.135-1.642-.393-3.277-.367-4.927a29.4,29.4,0,0,1,1.359-9.624,33.677,33.677,0,0,1,3.33-6.926,24.507,24.507,0,0,1,7.158-7.071,7.247,7.247,0,0,1,1.242-.668,26.58,26.58,0,0,1,6.182-2.081,21.591,21.591,0,0,1-1.426-2.85,11.105,11.105,0,0,1,.315-8.065,9.441,9.441,0,0,1,4.877-5.239,22.176,22.176,0,0,1,2.741-.84h1.572c.807.258,1.663.245,2.477.557a9.017,9.017,0,0,1,3.423,2.625,17.015,17.015,0,0,1,2.8,4.851,7.274,7.274,0,0,1,.351,4.658,8.544,8.544,0,0,1-3.427,4.963c-.179.135-.5.195-.478.469s.354.284.552.356a21.35,21.35,0,0,1,6.958,4.215,21.067,21.067,0,0,1,5.739,8.241,26.134,26.134,0,0,1,1.685,9.283c-.51.2-.614-.258-.809-.523a3.594,3.594,0,0,0-2.528-1.671c-1.223-.135-1.579.165-1.58,1.368,0,.939.009,1.877.081,2.817a46.308,46.308,0,0,1-.181,5.548c-.01.233-.062.467-.054.7a54.4,54.4,0,0,1-1.15,10.8A8.573,8.573,0,0,1,619.5,202.787Z" fill="#875a42"/>
    <path id="Trazado_19140" data-name="Trazado 19140" d="M587.122,303.224l-.021-2.506a18.375,18.375,0,0,1-.056-2.189c-.017-.363.164-.464.488-.395a1.165,1.165,0,0,1,.223.074,11.494,11.494,0,0,0,6.876.6,1.413,1.413,0,0,1,1.43.422,1.526,1.526,0,0,0,1.085.733,6.913,6.913,0,0,0,1.966,1.019,2.037,2.037,0,0,0,.9.4,15.827,15.827,0,0,0,5.954-.52c2.2-.843,4.41-1.646,6.525-2.687a8.8,8.8,0,0,0,3.661-1.531,22.851,22.851,0,0,0,3.524-2.734.527.527,0,0,0,.223-.341c-.259.036-.38.243-.535.389a28.844,28.844,0,0,1-3.831,2.848.926.926,0,0,1-1.091.157c-.164-.291.012-.5.19-.689a21.437,21.437,0,0,0,2.158-2.747,1,1,0,0,1,.678-.483.98.98,0,0,0,1-.723c1.38-3.1,3.046-6.065,4.507-9.13,1.572-3.3,3.029-6.648,4.6-9.948a9.755,9.755,0,0,1,.46-1.163c.171-.268.357-.572.707-.177.177,1.636.179,3.28.2,4.921.067,4.907.246,9.812.287,14.719a49.773,49.773,0,0,1-.027,5.081,14.6,14.6,0,0,0,.1,2.109c.065,1.228-.092,2.453,0,3.68a.757.757,0,0,1-.373.8h-.943a12.608,12.608,0,0,0-3.142,0h-1.886a20.805,20.805,0,0,0-4.085,0h-1.257a5.359,5.359,0,0,0-2.043,0H599.378a39.852,39.852,0,0,0-5.657,0Z" fill="#f79630"/>
    <path id="Trazado_19141" data-name="Trazado 19141" d="M593.721,303.224c.277-.306.638-.148.957-.154,1.352-.021,2.705-.017,4.058-.016.225,0,.477-.07.642.17Z" fill="#fec87b"/>
    <path id="Trazado_19142" data-name="Trazado 19142" d="M618.863,303.224c.385-.336.858-.177,1.265-.147.94.068,1.9-.241,2.82.147Z" fill="#fdc574"/>
    <path id="Trazado_19143" data-name="Trazado 19143" d="M624.834,303.224a6.162,6.162,0,0,1,3.142,0Z" fill="#fdc479"/>
    <path id="Trazado_19144" data-name="Trazado 19144" d="M615.563,303.224a2.655,2.655,0,0,1,2.043,0Z" fill="#fed285"/>
    <path id="Trazado_19145" data-name="Trazado 19145" d="M582.26,198.394l0-.3c.594-.04.728-.317.352-.771a3.75,3.75,0,0,1-.522-1.591,31.251,31.251,0,0,1,.355-7.841A16.55,16.55,0,0,1,582.9,186c.559-.584,1.361-.495,2.041-.645a59.8,59.8,0,0,0,11.012-3.359,30.289,30.289,0,0,0,9.034-5.585,25.032,25.032,0,0,0,5.179-6.25.9.9,0,0,1,.4-.468c.614.186.8.768,1.083,1.231a36.813,36.813,0,0,1,3.12,6.789,55.965,55.965,0,0,1,1.644,5.76c.581,2.361,1.036,4.738,1.458,7.126.255,1.442.36,2.9.532,4.353.252,2.124.284,4.259.426,6.387.056.829.023,1.663.02,2.495,0,.255-.1.526.163.717-.032.1-.037.219-.1.28-.127.12-.172,0-.184-.108-.026-.229-.043-.46-.067-.729a19.581,19.581,0,0,0-2.462,1.946,24.2,24.2,0,0,1-4.931,2.921c-.3.14-.533.265-.348.62.779,1.5,1.334,3.1,2.1,4.606a10.756,10.756,0,0,0,5.517,5.035,1,1,0,0,0,1.107.019c-.814,1.231-1.841,2.292-2.749,3.449-.376.478-.541,1.147-1.19,1.394a1.679,1.679,0,0,0-.874.291,19.133,19.133,0,0,1-5.679,1.707c-3.779.413-7.476.182-10.736-2.109-.367-.258-.544-.161-.747.136-.327-.265-.13-.637-.191-.955-.205-1.075-.7-2.054-.988-3.1-.1-.375-.359-.175-.563-.183.081-.183.28-.372.412-.293.892.536,1.552-.245,2.3-.418a4.6,4.6,0,0,0,1.52-.926,6.22,6.22,0,0,0,2.42-6.28c-.145-1.1-.246-1.177-1.4-1.178a17.966,17.966,0,0,1-7.776-1.953,21.888,21.888,0,0,1-7.51-6.348,33.72,33.72,0,0,1-2.3-3.488A1.269,1.269,0,0,0,582.26,198.394Z" fill="#fbcf9e"/>
    <path id="Trazado_19146" data-name="Trazado 19146" d="M596.071,299.436a1.593,1.593,0,0,0-1.792-.313c-1.419.41-2.845.022-4.271-.025a3.8,3.8,0,0,1-2.367-.726c-.33-.259-.513-.1-.513.31,0,.678-.017,1.357-.027,2.036a4.2,4.2,0,0,1-.126-1.914,1.326,1.326,0,0,0-.758-1.313c-.634-.4-1.214-.878-1.827-1.309-1.3-.913-1.416-2.357-1.643-3.726-.219-1.327-.332-2.672-.492-4.009q.867.993,1.735,1.985a1.248,1.248,0,0,0,.624.454,3.348,3.348,0,0,1,2.284,2.065,4.072,4.072,0,0,0,3.16,2.436c1.213.287,2.432.561,3.63.9.756.216.792.439.336,1.108a16.1,16.1,0,0,1-6.275-.453,7.344,7.344,0,0,0,3.4.642,12.356,12.356,0,0,1,2.883-.035c.68.005,1.364-.037,2.036.03.5.05,1.169-.032,1.17.8a.251.251,0,0,0,.271.236c.726-.054,1.413.313,2.168.1,1.224-.35,2.5-.537,3.709-.917a3.9,3.9,0,0,0,2.823-2.452c.218-.662.031-.925-.671-.938a13.045,13.045,0,0,0-3.089.418,6.473,6.473,0,0,1-1.69.082c-.244-.007-.491-.027-.559-.316s.165-.4.369-.526a20.145,20.145,0,0,1,5.79-2.187,27.066,27.066,0,0,1,5.187-.553c.778-.052.889-.579,1.213-1,.243-.173.454-.03.653.085,1.153.673,2.289,1.374,3.442,2.046.249.145.574.288.559.678l-2.975,3.777a3.539,3.539,0,0,1-1.906,1.437,57.923,57.923,0,0,1-6.4,2.671c-.447.228-.512-.023-.491-.386a8.1,8.1,0,0,0-2.243.213c-1.443.083-2.881.254-4.331.223a2.5,2.5,0,0,1-1.854-.971.648.648,0,0,1,.646-.18,19.827,19.827,0,0,0,6.08-.416,2.451,2.451,0,0,0-.869.067c-.284.039-.569.081-.849.142A21.365,21.365,0,0,1,597,299.8,1.3,1.3,0,0,1,596.071,299.436Z" fill="#fbcf9e"/>
    <path id="Trazado_19147" data-name="Trazado 19147" d="M588.274,238.116a8.251,8.251,0,0,1,1.1-3.022c.125-.157.247-.429.475-.3.2.119.1.373.008.568a18.715,18.715,0,0,0-1.726,5.7c-.265,2.554.338,5.491,3.079,6.845a6.593,6.593,0,0,0,3.751.4c.7-.074,1.391-.167,2.088-.235.171-.017.4-.036.411.234a.315.315,0,0,1-.3.31c-2.082.311-4.169.741-6.231-.1-.11-.045-.187-.172-.279-.26-2.437-1.383-3.086-3.674-3.091-6.244A8.819,8.819,0,0,1,588.274,238.116Z" fill="#c37129"/>
    <path id="Trazado_19148" data-name="Trazado 19148" d="M621.815,240.062a13.764,13.764,0,0,1,8.094-1.381c.589.6.378,1.4.379,2.085,0,1.2.059,2.408.149,3.6.165,2.166.2,4.336.236,6.5.059,3.322.261,6.64.208,9.966a16.548,16.548,0,0,1-.935,5.768c-.94,2.438-1.793,4.908-2.9,7.286-.914,1.967-1.706,4-2.664,5.942-1.456,2.955-2.691,6.019-4.353,8.875-.644,1.106-1.011,2.35-1.658,3.463-.305.524-.641.657-1.145.346-1.27-.782-2.562-1.527-3.817-2.333-.848-.544-.918-.652-.516-1.6.7-1.663,1.282-3.372,1.962-5.043,1.441-3.536,2.823-7.1,4.207-10.656q1.023-2.629,2.07-5.254c.583-1.455,1.117-2.929,1.724-4.376a3.779,3.779,0,0,0,.143-2.1c-.377-2.278-.348-4.588-.54-6.88-.22-2.626-.327-5.267-.489-7.9-.108-1.747-.158-3.5-.326-5.243A1.446,1.446,0,0,1,621.815,240.062Z" fill="#fefefe"/>
    <path id="Trazado_19149" data-name="Trazado 19149" d="M597.659,224.006c.037-.244-.142-.574.149-.712s.445.184.645.333a11.607,11.607,0,0,0,5.37,2.123,22.247,22.247,0,0,0,3.98.147,17.374,17.374,0,0,0,4.174-.805c1.162-.329,2.215-.884,3.341-1.271.2-.069.354-.139.377.16l-.164.178c-.346.812-1.118,1.3-1.553,2.043q-1.344,1.608-2.686,3.216c-1.5,1.805-2.937,3.663-4.43,5.475-1.172,1.421-2.4,2.8-3.489,4.293a2.013,2.013,0,0,1-.653.65c-.324-1.005-.65-1.983-.955-2.968-.842-2.716-1.624-5.451-2.533-8.144C598.7,227.154,598.335,225.528,597.659,224.006Z" fill="#fefefe"/>
    <path id="Trazado_19150" data-name="Trazado 19150" d="M621.815,240.062c.147,2.213.3,4.424.44,6.637.138,2.26.235,4.522.388,6.78.168,2.5.372,4.994.574,7.49a6.849,6.849,0,0,1-.579,3.394c-.745,1.727-1.367,3.518-2.057,5.275-1.114,2.835-2.314,5.637-3.36,8.5-.778,2.128-1.7,4.2-2.459,6.332-.559,1.563-1.192,3.1-1.805,4.644-.11.277-.136.454.17.64,1.467.888,2.917,1.8,4.375,2.7.29.179.471.08.6-.23,1.212-2.8,2.8-5.41,4.011-8.212.763-1.768,1.692-3.463,2.5-5.212.744-1.6,1.451-3.228,2.147-4.855.292-.685.623-1.363.908-2.056a50.814,50.814,0,0,0,2.853-8.236,10.187,10.187,0,0,0,.137-2.32c-.044-3.554-.065-7.11-.194-10.662-.108-2.962-.163-5.926-.4-8.884-.082-1.031-.02-2.076-.168-3.107a1.757,1.757,0,0,1,.975.036c-.4.062-.374.359-.36.651.047.99.079,1.98.144,2.968.188,2.836.287,5.674.341,8.515.035,1.878.223,3.756.213,5.633a45.256,45.256,0,0,1-.12,7.094,23.4,23.4,0,0,1-1.59,5.22,8.418,8.418,0,0,0-.9,2.957c-.328.038-.386.323-.489.554-1.233,2.767-2.4,5.562-3.7,8.3-1.389,2.924-2.718,5.881-4.31,8.708-.6,1.06-1.045,2.2-1.56,3.311-.232.5-.516.877-1.136.51a35.527,35.527,0,0,0-4.654-2.809c-.945-.634-.414-1.431-.121-2.078.974-2.15,1.649-4.413,2.592-6.574,1.123-2.571,2.008-5.238,3.124-7.815.8-1.856,1.435-3.788,2.164-5.678.6-1.566,1.223-3.127,1.874-4.674a2.706,2.706,0,0,0,.246-1.287c-.255-3.458-.567-6.913-.738-10.376-.1-2.11-.275-4.217-.348-6.329-.051-1.487-.149-2.968-.31-4.447C621.191,240.608,621.191,240.15,621.815,240.062Z" fill="#9f9891"/>
    <path id="Trazado_19151" data-name="Trazado 19151" d="M611.423,250.91a11.185,11.185,0,0,1-5.779-1.6,4.871,4.871,0,0,1-1.16-1.154c-.128-.172-.2-.482.052-.622.212-.116.277.156.388.288a8.123,8.123,0,0,0,4.92,2.437,9.987,9.987,0,0,0,5.9-.917,1.084,1.084,0,0,0,.549-.41c.126-.2.225-.438.528-.353a.231.231,0,0,1,.123.175.687.687,0,0,1-.436.6c-.764.382-1.542.736-2.328,1.07A8.794,8.794,0,0,1,611.423,250.91Z" fill="#c56f23"/>
    <path id="Trazado_19152" data-name="Trazado 19152" d="M594.031,297.551a12.527,12.527,0,0,1-6.3-.247c-.258-.089-.646-.232-.494-.569.135-.3.461-.052.69.032a11.43,11.43,0,0,0,4.471.467,5.022,5.022,0,0,1,1.624.163A.988.988,0,0,1,594.031,297.551Z" fill="#cf844e"/>
    <path id="Trazado_19153" data-name="Trazado 19153" d="M613.978,226.2c.284-.859,1.081-1.327,1.553-2.043C615.328,225.079,614.526,225.544,613.978,226.2Z" fill="#fbcf9e"/>
    <path id="Trazado_19154" data-name="Trazado 19154" d="M619.5,202.787A67.327,67.327,0,0,0,620.836,194c.181-1.994.11-4.022.256-6.027.159-2.192-.038-4.371-.069-6.556-.016-1.109-.012-1.1,1.053-1.295a3.417,3.417,0,0,1,3.409,1.551c.231.287.236.776.726.839.863,2.177.307,4.248-.468,6.3a7.49,7.49,0,0,1-2.358,1.01c-.542.086-.534.573-.526,1a46.816,46.816,0,0,1-.471,6.958,8.121,8.121,0,0,0-.261,1.529A34.356,34.356,0,0,1,619.5,202.787Z" fill="#fbcf9e"/>
    <path id="Trazado_19155" data-name="Trazado 19155" d="M622.127,199.315c-.314-.642,0-1.28.08-1.9a43.605,43.605,0,0,0,.433-7.017.673.673,0,0,1,.606-.809c.742-.177,1.564-.184,2.081-.919.162-.23.3.027.416.144a25.746,25.746,0,0,1-1.141,4.915A24.946,24.946,0,0,1,622.127,199.315Z" fill="#885a40"/>
    <path id="Trazado_19156" data-name="Trazado 19156" d="M609.622,156.9a10.614,10.614,0,0,1-7.151-2.228,12.606,12.606,0,0,1-3.409-4.238,19.663,19.663,0,0,1-1.006-2.447c-.107-.3-.083-.581.191-.66.335-.1.283.27.343.467a13.392,13.392,0,0,0,3.653,5.878,19.217,19.217,0,0,0,1.915,1.428c1.044.779,2.4.762,3.594,1.159.274.091.419-.11.426-.406a17.761,17.761,0,0,0-1.055-7.052,11.931,11.931,0,0,0-2.4-4.228c-.328-.333-.671-.651-1.012-.972-.117-.111-.413-.133-.261-.379a.4.4,0,0,1,.566-.077,3.882,3.882,0,0,1,.863.666,14.872,14.872,0,0,1,3.482,7.591,16.18,16.18,0,0,1,.365,4.562c-.027.206.056.266.233.318a5.633,5.633,0,0,0,2.837-.192c.2-.041.27-.221.3-.417a13.516,13.516,0,0,0-.343-5.632,15.122,15.122,0,0,0-1.772-3.876,11.182,11.182,0,0,0-2.569-2.592c-.181-.153-.581-.28-.359-.563.179-.229.521-.094.768.11a12.816,12.816,0,0,1,4.911,10.045c.016.728.01,1.457,0,2.186-.006.418.155.475.537.364s.691-.387,1.1-.376c.158.005.333.007.36.212.021.157-.1.2-.236.254C612.88,156.456,611.268,157.134,609.622,156.9Z" fill="#653f2d"/>
    <path id="Trazado_19157" data-name="Trazado 19157" d="M610.563,169.69a14.944,14.944,0,0,1-3.1,4.562,28.146,28.146,0,0,1-7.255,5.883,45.751,45.751,0,0,1-7.2,3.218c-2.144.75-4.348,1.267-6.53,1.868-1.175.323-2.383.521-3.577.776-.688.128-1.377.26-2.066.384a4.025,4.025,0,0,1-.618.067c-.191,0-.387-.057-.409-.28s.166-.3.359-.326c2.038-.234,4.025-.742,6.032-1.138,1.375-.272,2.71-.738,4.069-1.093a39,39,0,0,0,8.263-3.23,27.288,27.288,0,0,0,5.739-3.841,44,44,0,0,0,4.33-4.588,20.672,20.672,0,0,0,2.668-4.91,13.4,13.4,0,0,0,1.01-3.085,1.1,1.1,0,0,1,.2-.416c.093-.132.146-.386.4-.24a.332.332,0,0,1,.139.413,28.671,28.671,0,0,1-1.25,3.614C611.387,168.128,610.963,168.9,610.563,169.69Z" fill="#65402c"/>
    <path id="Trazado_19158" data-name="Trazado 19158" d="M579.671,183.935c-.209,0-.389,0-.446-.175-.066-.205.126-.266.263-.314a24.272,24.272,0,0,1,2.584-.868,20.979,20.979,0,0,0,2.842-.987c.846-.325,1.755-.55,2.537-.946,1.183-.6,2.423-1.083,3.579-1.73,1.215-.68,2.424-1.373,3.6-2.114a36.743,36.743,0,0,0,6.884-5.561,27.969,27.969,0,0,0,3.284-3.9c1.215-1.836,2.733-3.558,3.2-5.829.077-.371.167-1.029.632-.886s.09.753-.047,1.019c-.436.847-.788,1.74-1.239,2.581-.431.806-1.042,1.479-1.427,2.283a18.35,18.35,0,0,1-2.672,3.722,32.92,32.92,0,0,1-6.284,5.764,23.66,23.66,0,0,1-3.655,2.219c-.948.441-1.808,1.067-2.756,1.54-1.556.776-3.147,1.45-4.75,2.116-1.92.8-3.934,1.288-5.882,1.984C579.825,183.887,579.726,183.917,579.671,183.935Z" fill="#66402d"/>
    <path id="Trazado_19159" data-name="Trazado 19159" d="M601.137,161.547a7.888,7.888,0,0,1-1.752,3.723,40.344,40.344,0,0,1-2.914,3.474c-1.3,1.23-2.586,2.466-3.912,3.668-1.651,1.5-3.5,2.714-5.208,4.114a12.741,12.741,0,0,1-1.541,1.063q-2.6,1.548-5.224,3.05a3.542,3.542,0,0,1-.882.292c-.187.049-.381.019-.42-.224-.036-.218.079-.318.294-.377,1.9-.528,3.428-1.76,5.075-2.764a63.235,63.235,0,0,0,9.279-7.048,26.987,26.987,0,0,0,3.406-3.628,22.189,22.189,0,0,0,2.507-3.565c.309-.627.367-1.3.629-1.92.106-.251.129-.675.47-.616C601.256,160.843,601.047,161.239,601.137,161.547Z" fill="#65402c"/>
    <path id="Trazado_19160" data-name="Trazado 19160" d="M596.72,151.282a.3.3,0,0,1,.262-.281c.223-.037.338.145.338.341a12.187,12.187,0,0,0,1.012,3.649,7.725,7.725,0,0,0,1.489,2.439,1.855,1.855,0,0,1,.309.442.4.4,0,0,1-.058.356c-.108.112-.243.007-.328-.091-.272-.315-.551-.625-.8-.958A13.821,13.821,0,0,1,596.72,151.282Z" fill="#663f2c"/>
    <path id="Trazado_19161" data-name="Trazado 19161" d="M582.092,195.73a10.684,10.684,0,0,0,.79,1.716c.121.2.445.428.234.674-.237.276-.57.1-.854-.028A7.111,7.111,0,0,1,582.092,195.73Z" fill="#e2ab7d"/>
    <path id="Trazado_19162" data-name="Trazado 19162" d="M612.531,298.349l1.906-1.437c.821.1,1.363-.46,1.935-.884a19.9,19.9,0,0,0,3.335-2.679c.125-.142.318-.271.473-.1.208.231.013.469-.145.614a14.3,14.3,0,0,1-1.954,1.682,17.791,17.791,0,0,1-3.558,2.185A5.337,5.337,0,0,1,612.531,298.349Z" fill="#c67124"/>
    <path id="Trazado_19163" data-name="Trazado 19163" d="M596.071,299.436c1.215.1,2.429.282,3.645.291a23.941,23.941,0,0,0,4.086-.511c.257-.043.646-.265.712.136.058.348-.362.369-.637.416a23.043,23.043,0,0,1-5.119.466c-.517-.029-1.032-.089-1.547-.135C596.728,300.055,596.2,300.092,596.071,299.436Z" fill="#ce834b"/>
    <path id="Trazado_19164" data-name="Trazado 19164" d="M599.065,301.07c.417-.364.96-.253,1.42-.272a21.775,21.775,0,0,0,4.828-.52c.34-.093.634-.038.655.413-1.579.833-3.317.713-5.014.813a8.14,8.14,0,0,1-1.093-.009C599.532,301.472,599.189,301.477,599.065,301.07Z" fill="#cd824a"/>
    <path id="Trazado_19165" data-name="Trazado 19165" d="M599.861,301.495c.847-.347,1.748-.041,2.612-.224,1.156-.244,2.356-.231,3.495-.58.006.125-.233.16-.132.293.042.055.193.027.294.036a11.08,11.08,0,0,1-3.854.623A4.84,4.84,0,0,1,599.861,301.495Z" fill="#f9be7e"/>
    <path id="Trazado_19166" data-name="Trazado 19166" d="M612.933,183.479a1.5,1.5,0,0,1-1.443-1.949,10.752,10.752,0,0,1,1.2-2.941c.252-.466.59-.285.749.081a12.312,12.312,0,0,1,1.109,2.9A1.477,1.477,0,0,1,612.933,183.479Z" fill="#7bc6eb"/>
    <path id="Trazado_19167" data-name="Trazado 19167" d="M584.752,193.552a1.38,1.38,0,0,1-1.431-1.853,16.518,16.518,0,0,1,1.223-2.928c.084-.155.134-.371.357-.366.267.007.294.249.366.442.317.846.8,1.609,1.047,2.5C586.688,192.712,586.165,193.541,584.752,193.552Z" fill="#79c6ed"/>
    <path id="Trazado_19168" data-name="Trazado 19168" d="M598.6,194.784c-1.6-.059-1.707-.135-1.552-1.727.089-.911.12-1.818.121-2.729,0-.322-.031-.675.4-.717.478-.047.67.323.672.694a15.4,15.4,0,0,1-.129,2.412c-.123.806.228,1.071.942,1.107.358.017.8-.025.768.529s-.474.448-.832.449C598.865,194.8,598.734,194.79,598.6,194.784Z" fill="#cf8046"/>
    <path id="Trazado_19169" data-name="Trazado 19169" d="M606.4,187.72a3.408,3.408,0,0,1-1.564-.4c-.249-.169-.449-.41-.276-.725s.437-.238.733-.1a2.072,2.072,0,0,0,2.673-.466c.234-.257.464-.393.72-.162.314.282.173.614-.057.9A3.488,3.488,0,0,1,606.4,187.72Z" fill="#0b0706"/>
    <path id="Trazado_19170" data-name="Trazado 19170" d="M590.529,190.155c-.273.034-.482-.153-.727-.228-.329-.1-.6-.269-.476-.663.131-.418.486-.343.779-.236a2.074,2.074,0,0,0,2.15-.5,3.042,3.042,0,0,1,.444-.313.435.435,0,0,1,.623.107.46.46,0,0,1-.094.628A3.942,3.942,0,0,1,590.529,190.155Z" fill="#0b0706"/>
    <path id="Trazado_19171" data-name="Trazado 19171" d="M608.113,181.1a4.73,4.73,0,0,1-2.424-.752,2.117,2.117,0,0,1-.456-.419c-.14-.185-.263-.4-.044-.633s.439-.2.679-.005a3.726,3.726,0,0,0,2.616.867c.313-.016.7-.074.73.368s-.346.525-.7.572A3.926,3.926,0,0,1,608.113,181.1Z" fill="#8b5d43"/>
    <path id="Trazado_19172" data-name="Trazado 19172" d="M607.666,201.89a.731.731,0,0,1-.952.69c-1.447-.24-2.89-.5-4.34-.716a6.81,6.81,0,0,0-5.1,1.143c-.427.3-.838.5-1.2.072-.415-.5-.075-.947.349-1.247a7.52,7.52,0,0,1,4.109-1.472,27.317,27.317,0,0,1,6.244.771C607.217,201.22,607.6,201.342,607.666,201.89Z" fill="#080505"/>
  </g>
</svg>
