<svg xmlns="http://www.w3.org/2000/svg" width="53.969" height="153.197" viewBox="0 0 53.969 153.197">
  <g id="Grupo_8143" data-name="Grupo 8143" transform="translate(-875.38 -144.711)">
    <path id="Trazado_19052" data-name="Trazado 19052" d="M914.511,222.123c4.5.634,8.127,2.513,10.187,6.845.942,1.981,1.745,4.015,2.642,6.009.436.97-.021,1.561-.658,2.149a2.133,2.133,0,0,1-.46.708c-1.8,1.429-3.507,2.966-5.29,4.411a1.233,1.233,0,0,0-.6.962,10.285,10.285,0,0,1-.388,3.07,5.48,5.48,0,0,0,.445,4.064,27.409,27.409,0,0,1,1.876,4.58,2.221,2.221,0,0,1-.459,1.629c-1.581,2.183-3.275,4.281-4.845,6.472-.407.567-.827,1.169-1.636,1.222-1.742-.77-3.307-1.9-5.132-2.513a8.813,8.813,0,0,0-4.238-.143c.819.52,1.763.35,2.632.564a3.831,3.831,0,0,1,1.705.7c.283.245.6.507.478.936-.1.355-.445.473-.778.546a11.948,11.948,0,0,1-2.6.3q-3.3-.014-6.609,0a2.7,2.7,0,0,0-1.838.421,26.157,26.157,0,0,0,3.943.245c1.008-.046,1.984.151,2.978.2.265.013.644.071.622.459a.662.662,0,0,1-.708.58,21.163,21.163,0,0,1-3.349.2c-1.249-.134-2.456.231-3.744.174.176.646.742.469,1.021.742.126.933-.748.513-1.09.813-.809.746.112.7.428.921,1.934.083,3.866.007,5.8.038a3.358,3.358,0,0,1,1.572.188.451.451,0,0,1,.217.334c-.186.748-.783.613-1.292.551a9.723,9.723,0,0,0-2.652-.027,26.817,26.817,0,0,0,6.345.04c2.419-.186,4.791-.714,7.2-.983a3.25,3.25,0,0,0,3.167-.892c1.207-1,2.523-1.889,3.817-2.791.351-.245.709-.631,1.232-.352a5.031,5.031,0,0,1,.5,2.027,72.9,72.9,0,0,1-1.249,19.292,76.087,76.087,0,0,0-.789,11.416c-.038,1.74-.117,3.481-.177,5.22H883.333c-.157-6.3-.005-12.6-.95-18.87a60.337,60.337,0,0,1,1.343-25.755,7.968,7.968,0,0,1,.316-.8,2.722,2.722,0,0,1,1.855-2.285c1.876-.861,2.709-2.656,3.481-4.459.343-.8.266-1.826,1.164-2.358,1.028.006,1.808.728,2.791.938a6.8,6.8,0,0,0,5.626-1.305,6.646,6.646,0,0,1-7.424.613c-.417-.214-.82-.4-.961-.9-.144-1.488.537-2.809.876-4.195.439-1.8.853-3.6,1.313-5.393a2.493,2.493,0,0,1,.09-.365,11.348,11.348,0,0,0,.473-2.109,2.34,2.34,0,0,1,.1-.355,52.8,52.8,0,0,0,1.363-6,2.193,2.193,0,0,1,.1-.369c.232-.517.369-1.15,1.172-.989a3.709,3.709,0,0,1,1.236,1.674c1.74,3.529,3.622,6.984,5.391,10.5.144.285.214.631.61.835.9-1.48,1.724-2.993,2.505-4.536,1.792-3.542,3.692-7.028,5.48-10.573.681-1.141,1.271-2.332,1.921-3.488C913.486,222.416,913.759,221.872,914.511,222.123Z" transform="translate(-0.446 -5.552)" fill="#fe962a"/>
    <path id="Trazado_19053" data-name="Trazado 19053" d="M914.5,218.337c-.54.1-.767.457-1.038.926a23.723,23.723,0,0,1-2,3.506,18.247,18.247,0,0,1-9.732,1.868c-2.108-.2-4.277-.439-6.082-1.789-.313-1.151.181-2.207.431-3.278a17.07,17.07,0,0,1,.97-3.828,2.49,2.49,0,0,0,1.3-1.7c.254-1.08.57-2.146.763-3.238.278-1.57-.035-1.9-1.654-1.838-.205.007-.409.034-.615.032-.918-.2-1.121-1.149-1.747-1.677a48.705,48.705,0,0,0-4.466-2.909c-2.158-1.456-3.886-3.407-5.871-5.062a2.9,2.9,0,0,0-1.554-.913,1.709,1.709,0,0,1-1.645-1.286c-.262-3.867-.493-7.73,1.229-11.381a1.869,1.869,0,0,1,1.388-.7,51.582,51.582,0,0,0,12.314-3.749,26.532,26.532,0,0,0,6.628-4.534,25.151,25.151,0,0,0,3.658-4.182c.625-.934.918-2.029,1.5-2.984a.751.751,0,0,1,.27-.272.649.649,0,0,1,.381-.007,7.89,7.89,0,0,1,1.885,2.581,82.981,82.981,0,0,1,7.936,16.526c.447,1.377.937,2.739,1.3,4.141.094.359.254.718-.086,1.038-.722-.248-.459.4-.549.651a21.023,21.023,0,0,1-10.222,12.283c-.036.019-.067.05-.1.068-2.2,1.067-2.247,1.071-2.05,3.417a12.575,12.575,0,0,0,1.061,4.32,5.96,5.96,0,0,0,5.971,3.764C914.208,218.125,914.353,218.266,914.5,218.337Z" transform="translate(-0.431 -1.766)" fill="#fed0a2"/>
    <path id="Trazado_19054" data-name="Trazado 19054" d="M882.863,183.928c-1.674,3.757-1.481,7.716-1.277,11.677.14.754.509,1.632-.856,1.558l-.481-1.517c-.109-.124-.3-.2-.345-.35-.859-2.662-1.842-5.3-1.831-8.157a56.849,56.849,0,0,1-.433-7.426,18.106,18.106,0,0,1,5.9-12.946,21.5,21.5,0,0,1,6.219-4.453c.642-.274.558-.576.064-.958-4.519-3.483-4.182-11.709,1.164-15.281a7.445,7.445,0,0,1,9.751.981c2.181,2.466,3.789,5.24,3.455,8.742a2.016,2.016,0,0,1-.458,1.371c-.654-.019-1.386.421-1.939.027-.7-.5-.02-1.229-.016-1.855a12.092,12.092,0,0,0-3.321-8.683c-.2-.208-.447-.376-.514-.584a12.954,12.954,0,0,1,3.117,4.881c.484,1.792,1.052,3.576.49,5.471-.182.615.09.949.773.9.43-.028.937-.233,1.179.368-.086,1.1-1.154,1.547-1.695,2.448,1.2.364,2.389.5,3.529.841,6.419,1.944,10.548,6.228,12.944,12.38a68.642,68.642,0,0,1,1.935,7.026,13.684,13.684,0,0,1,.855,4.949c.2,2.257-.308,4.5-.335,6.753a8.486,8.486,0,0,1-.412,2.7l-.633-2.929a54.681,54.681,0,0,0-2.192-6.957,89.386,89.386,0,0,0-8.472-16.565,7.548,7.548,0,0,0-.541-.679c-.194-.911.615-1.572.548-2.327-.1.757-.576,1.522-.763,2.382l.008-.02c-.944,1.3-1.437,2.855-2.441,4.145a26.215,26.215,0,0,1-9.561,7.737,44.831,44.831,0,0,1-10.705,3.386,51.836,51.836,0,0,1-6.052.951,11.091,11.091,0,0,0,2.071-.23C882,183.6,882.51,183.49,882.863,183.928Z" transform="translate(-0.161)" fill="#895a40"/>
    <path id="Trazado_19055" data-name="Trazado 19055" d="M879.793,237c-.562-.692-1.82-.887-1.882-1.776-.054-.777.58-1.6.907-2.4a38.093,38.093,0,0,1,2.766-5.4c1.541-2.544,4.121-3.589,6.743-4.555.752-.085.7.383.565.86-.7,2.541-1.4,5.083-2.119,7.62-.7,2.491-1.257,5.025-2.082,7.484-.132.392-.157.824-.618,1-1.062.193-1.528-.783-2.289-1.183a5.731,5.731,0,0,1-1.248-.963C880.256,237.493,880.073,237.2,879.793,237Z" transform="translate(-0.182 -5.609)" fill="#fe972a"/>
    <path id="Trazado_19056" data-name="Trazado 19056" d="M880.97,201.1c.865-.2.783-.921.856-1.558a1.412,1.412,0,0,0,1.209.755,2.161,2.161,0,0,1,2.086,1.3c.309.592.954.633,1.323,1.04,2.477,2.736,5.719,4.453,8.683,6.533a11.271,11.271,0,0,1,1.6,1.87c.714.47.641,1.2.578,1.891a7.47,7.47,0,0,1-.638,2.5.5.5,0,0,1-.512.209c-.56-.631-.24-1.368-.084-1.982.455-1.78-.414-2.949-1.614-4.013a6.222,6.222,0,0,0-1.128-.775,21.1,21.1,0,0,1-6.662-5.119,13.811,13.811,0,0,0,1.368,1.832c.263.352.65.828.182,1.2-.446.356-.722-.191-.99-.468a9.608,9.608,0,0,1-2.4-3.443,2.241,2.241,0,0,0-.785-1.128c.516,1.778,1.705,3.033,2.476,4.512.251.482,1.024,1.079.445,1.479-.732.507-1.1-.426-1.44-.937a39.928,39.928,0,0,1-3.078-5.384,14.264,14.264,0,0,0,1.923,4.54,18.586,18.586,0,0,0,1.534,1.959c.249.292.475.7.164,1.007-.372.37-.677-.042-.922-.291a13.241,13.241,0,0,1-2.527-3.613c1,2.6,3.259,4.545,5.968,6.081a36.92,36.92,0,0,1,3.354,2.144c.423.3,1.124.523.859,1.316-.553.263-.817-.076-1.04-.5-2.03-1.29-4.177-2.431-6.061-3.908A11.723,11.723,0,0,1,880.97,201.1Z" transform="translate(-0.401 -3.936)" fill="#cb8c5a"/>
    <path id="Trazado_19057" data-name="Trazado 19057" d="M922.709,244.376a.948.948,0,0,1,.64-.686,9.411,9.411,0,0,1,1.049,3.787c.483,2.521.971,5.041,1.363,7.579a1.081,1.081,0,0,0,1.193,1,4.178,4.178,0,0,1,3.091,1.642c.325.385.993.855.52,1.349-.5.516-.94-.165-1.327-.49a8.392,8.392,0,0,0-1.15-.947,2.082,2.082,0,0,0-3.044.557c-1.63,2.091-3.145,4.271-4.78,6.358a.875.875,0,0,0,.092,1.3,4.943,4.943,0,0,1,1.239,4c1.624-1.132,3.171-2.281,4.674-3.487.383-.307.707-.723,1.28-.665.2.062.346.16.3.4-.284.305-.73.484-.777.977a44.6,44.6,0,0,0-5.263,3.691c-.826.574-1.59,1.289-2.66.512,1.577-1.525,1.669-3.345.294-4.661-.407-.39-1.159-.269-1.327-.959,2.106-2.041,3.612-4.557,5.376-6.866.474-.622,1.276-1.115,1.187-2.079.387-.673-.061-1.289-.157-1.919C924,251.3,923.155,247.871,922.709,244.376Z" transform="translate(-3.068 -7.105)" fill="#a4a3a2"/>
    <path id="Trazado_19058" data-name="Trazado 19058" d="M877.912,190.42q1.089,4.254,2.176,8.507c-3.609.67-5.816-3.955-4.134-7.061A3.733,3.733,0,0,1,877.912,190.42Z" transform="translate(0 -3.281)" fill="#fdd0a3"/>
    <path id="Trazado_19059" data-name="Trazado 19059" d="M924.031,194.855a78.611,78.611,0,0,0-.52-11.7,3.8,3.8,0,0,1,3.5,3.493c.1,1.319.254,2.631-.681,3.754-.106.127-.2.307-.335.36-1.806.7-1.922,2.173-1.786,3.782C924.216,194.641,924.093,194.75,924.031,194.855Z" transform="translate(-3.455 -2.759)" fill="#fdd0a3"/>
    <path id="Trazado_19060" data-name="Trazado 19060" d="M896.641,216.624l.53.013c1.183.053,1.463.38,1.236,1.437a2.264,2.264,0,0,1-.525,1.074c-.586,2.295-1.133,4.6-1.519,6.936a3.849,3.849,0,0,1,.1,1.363,3.031,3.031,0,0,0-.822,1.668l-.007.013c-.52,2.152-.9,4.337-1.5,6.469l0,.008c-.26.725-.285,1.5-.494,2.238l0,.007a31.828,31.828,0,0,0-.872,3.588c-.045.4-.084.834-.6.95a.724.724,0,0,1-.235-.319,3.389,3.389,0,0,1,.155-1.835c1.779-7.128,3.38-14.3,4.96-21.469.175-.8-.053-1.158-.817-1.335-1.011-.234-2.011-.516-3.008-.8-.726-.207-1.059.007-1.247.731-.4,1.527-.746,3.067-1.224,4.571-.148.464-.185,1-.708,1.251-.483-.226-.145-.724-.346-1.043a49.859,49.859,0,0,0,1.582-5.547,1.816,1.816,0,0,1,1.119-1.41c.349.08.53.507.943.454A5.389,5.389,0,0,1,896.641,216.624Z" transform="translate(-1.027 -5.058)" fill="#a9a29a"/>
    <path id="Trazado_19061" data-name="Trazado 19061" d="M928.578,265.692l-.318-.271c.013-.717.563-1.1,1.01-1.5,2.578-2.327,3.249-5.17,2.846-8.574a120.133,120.133,0,0,0-2.61-15.471,1.353,1.353,0,0,1,.048-1.089.74.74,0,0,1,.477-.495c.646,3.026,1.343,6.042,1.925,9.08.575,3.006.784,6.063,1.123,9.1C933.532,260.53,931.566,263.346,928.578,265.692Z" transform="translate(-3.796 -6.717)" fill="#a5a4a3"/>
    <path id="Trazado_19062" data-name="Trazado 19062" d="M879.9,238.1a.911.911,0,0,1,.736.352c-.084,3.476-.484,6.943-.345,10.427a23.433,23.433,0,0,0,.549,4.93c.743,2.892,2.947,3.665,5.37,1.929a2.142,2.142,0,0,1,1.074-.585c.5.336.161.62-.076.874a4.034,4.034,0,0,1-3.092,1.466c-2.871-.107-4.054-1.423-4.434-4.886A74.123,74.123,0,0,1,879.9,238.1Z" transform="translate(-0.289 -6.703)" fill="#a4a3a2"/>
    <path id="Trazado_19063" data-name="Trazado 19063" d="M889.3,222.677c.326.292.172.7.241,1.047.409.5.186,1.041.04,1.545-1.286,4.427-2.412,8.9-3.692,13.326a2.552,2.552,0,0,1-.677,1.309.8.8,0,0,1-.57.164c-.2-.056-.377-.136-.335-.4.9-1.119,1.026-2.541,1.421-3.842.642-2.114,1.1-4.284,1.688-6.416.554-2.015,1.177-4.012,1.763-6.019.095-.325-.171-.423-.392-.537Z" transform="translate(-0.64 -5.596)" fill="#b59c82"/>
    <path id="Trazado_19064" data-name="Trazado 19064" d="M904.989,157.769a.524.524,0,0,1-.113-.052c-.621-.47-1.619.218-2.046-.521-.358-.618.187-1.347.177-2.062a11.957,11.957,0,0,0-3.435-8.381,11.322,11.322,0,0,0-1.261-.966c.741-.236,1.129-.056,1.314.163,1.464,1.73,2.955,3.412,3.413,5.792a10.761,10.761,0,0,1,.257,4.767c-.161.64.192.847.772.689.4-.108.78-.342,1.153.04Z" transform="translate(-1.646 -0.069)" fill="#6c422e"/>
    <path id="Trazado_19065" data-name="Trazado 19065" d="M884.463,258.383c.853-.37,1.849-.435,2.534-1.16.327-.346.813-.6.744-1.2a1.032,1.032,0,0,1,.408-.95,7.083,7.083,0,0,0,1.378-2.711c.237-.623.224-1.4.9-1.807.275.089.42.255.328.56-.857,1.715-1.156,3.686-2.454,5.207a5.035,5.035,0,0,1-1.908,1.708,3.111,3.111,0,0,0-2.164,2.054Q884.347,259.232,884.463,258.383Z" transform="translate(-0.635 -7.597)" fill="#d79c5d"/>
    <path id="Trazado_19066" data-name="Trazado 19066" d="M928.923,238.823a99.63,99.63,0,0,1,3.022,18.043,8.226,8.226,0,0,1-2.746,7c-.54.511-1.047,1.059-1.571,1.59q-2.968,2.214-5.937,4.428a4.817,4.817,0,0,1-.443.247,4.526,4.526,0,0,0-1.652-4.985c-.33-.247-.016-.514.154-.739,1.673-2.209,3.32-4.438,5.026-6.621,1.289-1.649,2.812-1.708,4.371-.262a5.66,5.66,0,0,0,1.417,1.228,3.9,3.9,0,0,0-3.6-2.718c-.946.01-1.345-.369-1.456-1.224-.5-3.857-1.382-7.647-2.061-11.472A51.765,51.765,0,0,1,928.923,238.823Z" transform="translate(-3.164 -6.755)" fill="#fefdfd"/>
    <path id="Trazado_19067" data-name="Trazado 19067" d="M916.75,267.1a3.53,3.53,0,0,1,2.543,4.5c-.24.938-.928.866-1.511,1.124A37.393,37.393,0,0,1,910.3,273.8a4.29,4.29,0,0,1-1.545.1c-.6.04-.877-.3-.933-.86l-.079-.237a33.439,33.439,0,0,0-4.878-.146,20.505,20.505,0,0,1-3.058-.093c-.591-.329-1.166-.66-.253-1.285a20.754,20.754,0,0,1,6.484-.172c-1.661-.259-3.331-.082-4.984-.323-.332,0-.665.014-1,0a.815.815,0,0,1-.792-.808c-.016-.507.5-.425.853-.439,2.017-.08,4.034-.149,6.051-.233a2.515,2.515,0,0,0,1.6-.38c-2.316-.353-4.439-.183-6.537-.37-.33-.03-.666,0-1-.027-.3-.023-.593-.13-.6-.5-.007-.288.244-.4.47-.515a3.076,3.076,0,0,1,1.342-.189c3.148-.12,6.307.175,9.447-.257.358-.049.865.074.953-.374.084-.427-.425-.538-.72-.75-.829-.591-1.823-.461-2.745-.643-.321-.064-.672.015-.99-.056-.426-.095-1.031-.14-.981-.734.047-.555.628-.4,1.014-.456,3.258-.446,5.975.9,8.584,2.6C916.248,266.823,916.5,266.954,916.75,267.1Z" transform="translate(-1.701 -8.561)" fill="#fed0a2"/>
    <path id="Trazado_19068" data-name="Trazado 19068" d="M896.814,228.187a1.2,1.2,0,0,1,.05-1.274A18.1,18.1,0,0,0,911,227.17c.459-.183.955-.691,1.558-.279-2.539,5.314-5.413,10.454-8.191,15.853l-7.259-13.789A.8.8,0,0,1,896.814,228.187Z" transform="translate(-1.527 -5.888)" fill="#fefefe"/>
    <path id="Trazado_19069" data-name="Trazado 19069" d="M900.042,299.623c8.093,2.02,15.316.509,21.511-5.283C918.721,299.687,905.493,302.932,900.042,299.623Z" transform="translate(-1.77 -10.74)" fill="#cf7318"/>
    <path id="Trazado_19070" data-name="Trazado 19070" d="M891.236,251.041l-.27-.466a.279.279,0,0,1,.006-.331.411.411,0,0,1,.506.043,6.273,6.273,0,0,0,7.5.358c.433-.31.862-.625,1.529-1.108a2.033,2.033,0,0,1-1.185,1.583C896.609,252.8,893.917,252.514,891.236,251.041Z" transform="translate(-1.115 -7.524)" fill="#d17419"/>
    <path id="Trazado_19071" data-name="Trazado 19071" d="M918.844,249.984a5.288,5.288,0,0,1-5.062,2.254,5.364,5.364,0,0,1-4.716-2.427,7.833,7.833,0,0,0,4.885,1.949A8.358,8.358,0,0,0,918.844,249.984Z" transform="translate(-2.418 -7.544)" fill="#cf7318"/>
    <path id="Trazado_19072" data-name="Trazado 19072" d="M908.112,273.742c.565,1.107,1.614.63,2.478.757a21.622,21.622,0,0,1-6.961-.012c-.256-.041-.518-.1-.458-.434s.353-.313.59-.3a13.641,13.641,0,0,1,3.075.123C907.276,273.99,907.721,274.114,908.112,273.742Z" transform="translate(-1.994 -9.261)" fill="#fcc78a"/>
    <path id="Trazado_19073" data-name="Trazado 19073" d="M901.088,271.3c2.059-.5,4.081-.023,6.121.176-2.526.7-5.085.194-7.621.318C899.973,271.279,900.707,271.824,901.088,271.3Z" transform="translate(-1.738 -9.071)" fill="#f4a049"/>
    <path id="Trazado_19074" data-name="Trazado 19074" d="M891.475,249.573l-.446-.017a3.146,3.146,0,0,1,.174-2.292,14.653,14.653,0,0,1,1.035-3.159c.706-.978.57-2.207.963-3.284.152-.42.125-.9.515-1.22a59.655,59.655,0,0,1-1.587,6.966A8.985,8.985,0,0,0,891.475,249.573Z" transform="translate(-1.112 -6.811)" fill="#e2a25d"/>
    <path id="Trazado_19075" data-name="Trazado 19075" d="M894.474,236.674a14.371,14.371,0,0,1,.793-3.813c.265-.881-.121-1.94.71-2.656A21.8,21.8,0,0,1,894.474,236.674Z" transform="translate(-1.371 -6.137)" fill="#e2a25d"/>
    <path id="Trazado_19076" data-name="Trazado 19076" d="M899.861,273.23q3.581-.01,7.162-.019c.282,0,.588-.046.773.256-2.256-.006-4.513-.006-6.769-.023C900.632,273.441,900.2,273.58,899.861,273.23Z" transform="translate(-1.757 -9.224)" fill="#f49e45"/>
    <path id="Trazado_19077" data-name="Trazado 19077" d="M896.772,228.3a.867.867,0,0,1,.3.769c-.713-.054-.6.7-.968.988A1.6,1.6,0,0,1,896.772,228.3Z" transform="translate(-1.485 -6)" fill="#e2a25d"/>
    <path id="Trazado_19078" data-name="Trazado 19078" d="M893.937,239.421a3.181,3.181,0,0,1,.494-2.238A3.654,3.654,0,0,1,893.937,239.421Z" transform="translate(-1.331 -6.638)" fill="#e2a25d"/>
    <path id="Trazado_19079" data-name="Trazado 19079" d="M890.546,194.807a3.005,3.005,0,0,1-3.045,2.946,2.87,2.87,0,0,1-2.691-2.989,2.655,2.655,0,0,1,2.867-2.735Q890.567,192.03,890.546,194.807Z" transform="translate(-0.677 -3.397)" fill="#f6b392"/>
    <path id="Trazado_19080" data-name="Trazado 19080" d="M916.458,186.924a2.663,2.663,0,0,1,2.82,2.651,3.213,3.213,0,0,1-3.007,3.071,3.3,3.3,0,0,1-2.972-2.853A3.222,3.222,0,0,1,916.458,186.924Z" transform="translate(-2.722 -3.03)" fill="#f6b392"/>
    <path id="Trazado_19081" data-name="Trazado 19081" d="M882.926,185.705a7.5,7.5,0,0,0-2.206.2,6.047,6.047,0,0,0-2.214.347c.161-.623.456-.8.884-.821a51.132,51.132,0,0,0,10.295-1.84,33.875,33.875,0,0,0,8.22-3.343,23.885,23.885,0,0,0,9.8-10.156c.149-.287.183-.665.642-.618a17.769,17.769,0,0,1-5.738,8.058,32.2,32.2,0,0,1-13.433,6.683C887.1,184.758,884.962,185.02,882.926,185.705Z" transform="translate(-0.224 -1.777)" fill="#6b422c"/>
    <path id="Trazado_19082" data-name="Trazado 19082" d="M905.6,201.191c.42.062,1.114.148,1.8.278a.523.523,0,0,1,.485.61c-.073.353-.387.395-.694.331a13.184,13.184,0,0,0-7.481.912c-.34.13-.74.421-.94-.089-.21-.535.286-.706.657-.865A16.578,16.578,0,0,1,905.6,201.191Z" transform="translate(-1.675 -4.054)" fill="#100805"/>
    <path id="Trazado_19083" data-name="Trazado 19083" d="M906.59,186.433a1.673,1.673,0,0,1,1.83-1.6,1.594,1.594,0,0,1,1.532,1.636,1.952,1.952,0,0,1-1.642,1.735A1.905,1.905,0,0,1,906.59,186.433Z" transform="translate(-2.24 -2.879)" fill="#090605"/>
    <path id="Trazado_19084" data-name="Trazado 19084" d="M894.591,188.912a1.6,1.6,0,0,1-1.668,1.712,1.565,1.565,0,0,1-1.614-1.545,1.906,1.906,0,0,1,1.643-1.853A1.87,1.87,0,0,1,894.591,188.912Z" transform="translate(-1.143 -3.052)" fill="#0a0605"/>
    <path id="Trazado_19085" data-name="Trazado 19085" d="M900.141,191.921c.069-.862.136-1.726.209-2.589.018-.207.041-.427.3-.48a.46.46,0,0,1,.552.375,3.786,3.786,0,0,1,.025,2.079c-.149.641-.278,1.271.734,1.265.305,0,.6.184.566.53-.043.43-.414.437-.758.44C900.369,193.553,900.092,193.281,900.141,191.921Z" transform="translate(-1.777 -3.168)" fill="#ce834d"/>
    <path id="Trazado_19086" data-name="Trazado 19086" d="M910.137,180.934a4.038,4.038,0,0,1-2.5-.966c-.247-.251-.425-.572-.189-.887.292-.392.588-.13.823.114a3.815,3.815,0,0,0,2.037.817c.334.084.849-.12.806.466C911.064,181.1,910.508,180.875,910.137,180.934Z" transform="translate(-2.294 -2.453)" fill="#906144"/>
    <path id="Trazado_19087" data-name="Trazado 19087" d="M910.64,169.232c-.178-1.277.649-2.258.953-3.4.324,1.251-.368,2.259-.738,3.343A.758.758,0,0,1,910.64,169.232Z" transform="translate(-2.529 -1.516)" fill="#6b422c"/>
    <path id="Trazado_19088" data-name="Trazado 19088" d="M901.516,157.8c-1.005,1.007-4.359.745-6.828-.874-2.6-1.7-4.6-4.091-4.908-7.448a33.606,33.606,0,0,0,2.589,4.549,9.669,9.669,0,0,0,4.979,3.447.819.819,0,0,0,1.168-.718,8.273,8.273,0,0,0-.077-2.824c-.416-3.037-1.236-5.87-3.6-8.153a4.129,4.129,0,0,1,2.653,2.509,20.519,20.519,0,0,1,1.638,7.83c.011,1.717,0,1.711,1.694,1.659C901.051,157.773,901.295,157.576,901.516,157.8Z" transform="translate(-1.034 -0.077)" fill="#6b432e"/>
    <path id="Trazado_19089" data-name="Trazado 19089" d="M898.4,164.788c-1.441,3.509-4.1,5.907-7.057,8.077a80.249,80.249,0,0,1-7.379,5.2c-1.5.863-3.079,1.607-4.627,2.393a1.129,1.129,0,0,1-1.119-.011C886.142,176.727,893.06,171.771,898.4,164.788Z" transform="translate(-0.204 -1.441)" fill="#6a402b"/>
    <path id="Trazado_19090" data-name="Trazado 19090" d="M889.642,179.594c.539-1.025,1.712-1.083,2.569-1.585a32.646,32.646,0,0,0,9.863-8.125c1.009-1.318,1.948-2.658,2.826-4.059a3.522,3.522,0,0,1,1.086-1.017,35.24,35.24,0,0,1-3.782,6.132,32.271,32.271,0,0,1-9.058,7.188c-1.077.618-2.133,1.464-3.5,1.475Z" transform="translate(-1.024 -1.443)" fill="#6a402a"/>
    <path id="Trazado_19091" data-name="Trazado 19091" d="M888.181,152.732c.406.006.581.222.607.617a9.779,9.779,0,0,0,4.457,7.814c.111.076.153.254.256.434C890.426,161.048,888.036,155.946,888.181,152.732Z" transform="translate(-0.918 -0.576)" fill="#6d442f"/>
    <path id="Trazado_19092" data-name="Trazado 19092" d="M888.824,180.745a4.693,4.693,0,0,1-2.04,1.126,59.153,59.153,0,0,1-7.768,2.582,4.3,4.3,0,0,1-.865.007c.727-.884,1.7-.676,2.47-.961,2.442-.9,4.964-1.58,7.339-2.672a2.737,2.737,0,0,1,.858-.091Z" transform="translate(-0.199 -2.586)" fill="#6b412d"/>
    <path id="Trazado_19093" data-name="Trazado 19093" d="M887.836,252.872l-.4.683c-1.058,1-2.081,2.011-3.748,1.842a3.114,3.114,0,0,1-2.851-2.013,14.7,14.7,0,0,1-.808-4.619,104.682,104.682,0,0,1,.277-11.277.773.773,0,0,1,.372-.614,28.283,28.283,0,0,0,3.316,2.328l.232.234c.385.931-.092,1.779-.33,2.615-.562,1.974-1.106,3.954-1.433,5.291.331-1.825,1.252-4.192,1.78-6.666a2.731,2.731,0,0,1,.48-1.259,68.269,68.269,0,0,0,2.076-6.974c.8-2.811,1.56-5.632,2.33-8.451a5.327,5.327,0,0,0,.1-.734,56.7,56.7,0,0,0,1.843-6.42c.194-.646.41-.766,1-.606,1.4.381,2.8.731,4.209,1.078.559.138.71.435.578,1-.852,3.622-1.674,7.25-2.521,10.873-.951,4.064-1.921,8.124-2.875,12.188a4.3,4.3,0,0,0-.044.745,61.282,61.282,0,0,1-2.722,9.442A2.632,2.632,0,0,1,887.836,252.872Z" transform="translate(-0.327 -5.129)" fill="#fefefe"/>
    <path id="Trazado_19094" data-name="Trazado 19094" d="M896.084,215.6c-1.082-.4-2.306-.331-3.313-.988-.446-1.216-1.724-1.444-2.607-2.124-1.172-.9-2.562-1.514-3.77-2.374a12.492,12.492,0,0,1-4.187-5.586.754.754,0,0,1,.1-.83,12.418,12.418,0,0,0,3.655,5.326c.284-.54-.129-.782-.382-1.034a16.031,16.031,0,0,1-3.439-6.13c-.1-.265-.488-.753.1-.926.487-.143.714.217.855.675a24.572,24.572,0,0,0,3.166,5.751.609.609,0,0,0,.815.356c-.653-1.054-1.249-2.106-1.933-3.1a14.716,14.716,0,0,1-1.378-2.638c-.1-.23-.268-.514-.036-.683.327-.238.5.126.693.316a4.122,4.122,0,0,1,.915,1.6,9.248,9.248,0,0,0,2.9,3.543c-.454-1.34-1.7-2.14-2.333-3.461a1.033,1.033,0,0,1,1.068.409c1.847,2.192,4.292,3.57,6.654,5.1C897.4,211.248,896.719,212.261,896.084,215.6Z" transform="translate(-0.47 -4.033)" fill="#fdd0a2"/>
    <path id="Trazado_19095" data-name="Trazado 19095" d="M888.447,254.878c1.711-3.159,2.271-6.7,3.327-10.072.073-.233.169-.459.254-.687.011.1.023.207.035.311-.088,1.887-1.023,3.587-1.209,5.451-.021.1-.044.2-.066.3-.411,1.105-.795,2.223-1.245,3.312C889.318,254.045,889.136,254.677,888.447,254.878Z" transform="translate(-0.938 -7.136)" fill="#a4a3a2"/>
    <path id="Trazado_19096" data-name="Trazado 19096" d="M884.875,241.214a12.125,12.125,0,0,1-.654,3c-.432,1.756-.912,3.5-1.41,5.242-.1.367-.1.836-.731,1.126.513-3.266,1.732-6.233,2.3-9.35Z" transform="translate(-0.481 -6.927)" fill="#a4a4a3"/>
  </g>
</svg>
