<svg xmlns="http://www.w3.org/2000/svg" width="40.283" height="171.289" viewBox="0 0 40.283 171.289">
  <g id="Grupo_8141" data-name="Grupo 8141" transform="translate(-1642.285 -368.033)">
    <path id="Trazado_18954" data-name="Trazado 18954" d="M1677.376,537.1c1.787.874,3.36,2.1,5.084,3.082a2.837,2.837,0,0,1,.994,1.223v1.434c-.979,1.858-2.827,2.176-4.6,2.455-2.172.342-4.268.757-5.946,2.325a1.667,1.667,0,0,1-.867.434,9.976,9.976,0,0,1-4.5.014,19.808,19.808,0,0,0-5.048.02c-.948.107-1.9.021-2.855.038-.75-.189-1.156-.561-.863-1.419a4.352,4.352,0,0,0,.068-1.325,1.357,1.357,0,0,1,1.324-1.489c3,.151,5.966-.55,8.972-.427,1,.042,1.959-.451,2.988-.378a.645.645,0,0,0,.653-.628,4.507,4.507,0,0,0-.056-2.13,7.648,7.648,0,0,1-.224-2.832c0-.4.154-.667.64-.67A12.122,12.122,0,0,1,1677.376,537.1Z" transform="translate(-0.886 -9.117)" fill="#cc0019"/>
    <path id="Trazado_18955" data-name="Trazado 18955" d="M1670.688,417.889c1.02.668,2.2,1.022,3.236,1.668a3.818,3.818,0,0,1,1.556,1.76,35.418,35.418,0,0,1,2.183,8.064c.164.894-.592.336-.888.511a.816.816,0,0,1-.39.188,13.132,13.132,0,0,0-4.054.378,2.369,2.369,0,0,0-.887.387c-.261.2-.164.482-.163.746.023,3.28.365,6.541.562,9.812.03.507.131,1,.194,1.506.235,1.861-.648,3.419-1.269,5.051-1.651,4.338-3.4,8.637-5.052,12.976a1.144,1.144,0,0,0,.091.849c-.084.981-.846.967-1.516.961a12.655,12.655,0,0,0-4.615.884,2.172,2.172,0,0,0-1.062.69,2.2,2.2,0,0,0,1.282-.07,3.946,3.946,0,0,1,1.145-.157c.806.065,1.088.61.668,1.307a2.678,2.678,0,0,1-1.289,1.068,11.229,11.229,0,0,1-2.832.773,3.22,3.22,0,0,1-2.4-.722,10.621,10.621,0,0,1-1.115-.694,18.905,18.905,0,0,0-2.225-.643,2.884,2.884,0,0,1-2.27-1.674,1.924,1.924,0,0,0-.921-.943,3.621,3.621,0,0,1-1.726-1.848c-2.456-3.126-2.681-6.7-2.043-10.426.894-5.222,3.453-9.633,6.725-13.686.168-.208.336-.418.5-.626.225-.236.469-.13.741-.085a6.768,6.768,0,0,0,2.551-.039c-2.312.342-3.657.214-4.684-1.94a5.471,5.471,0,0,1-.128-3.829,5.131,5.131,0,0,1,.565-1.777c-.152.2-.215.486-.519.536a.587.587,0,0,1-.3-.683,63.933,63.933,0,0,1,1.119-6.68c.453-2,1.983-2.635,3.6-3.247a5.868,5.868,0,0,1,.589-.156c.616.477.525,1.263.816,1.882.148.317.13.687.279,1.007,1.039,2.981,1.836,6.041,2.885,9.151,2.4-2.887,4.747-5.68,6.946-8.6a3.4,3.4,0,0,0,.813-.776c.581-.864,1.3-1.62,1.925-2.444A1.038,1.038,0,0,1,1670.688,417.889Z" transform="translate(-0.124 -2.687)" fill="#fe962a"/>
    <path id="Trazado_18956" data-name="Trazado 18956" d="M1675.826,453.8c.2,5.841.2,11.686.236,17.529q.06,10.06.161,20.121c.008.744-.2,1-.954.94-.827-.062-1.663,0-2.5.012a1.226,1.226,0,0,1-.919.259c-2.347,0-4.694.04-7.04-.018-.573.035-1.146.022-1.72,0-2.259.051-4.518.017-6.777.018a1.353,1.353,0,0,1-1.008-.266c-1.311-.008-2.622-.041-3.932-.013-.566.011-.76-.132-.765-.745-.047-4.506-.133-9.011-.215-13.517-.037-1.94-.1-3.879-.151-5.82a30.424,30.424,0,0,1-.072-3.207c-.012-.325.126-.577.453-.5a26.532,26.532,0,0,0,4.772.347c.117.006-.034.006.081.03a11.739,11.739,0,0,0,1.044.668,4.9,4.9,0,0,0,1.132.545,4.585,4.585,0,0,0,.622.186,9.191,9.191,0,0,0,3.837-.355c1.364-.491,2.624-1.214,3.967-1.753a3.7,3.7,0,0,0,2.044-.762,13.123,13.123,0,0,0,2.066-1.532,15.188,15.188,0,0,1-2.573,1.8c-.184.1-.364.219-.572.051a5.9,5.9,0,0,1,1.815-2.516c.41-.061.557-.383.732-.7,1.627-2.983,2.959-6.108,4.434-9.165.349-.723.654-1.465,1.009-2.185.117-.238.229-.565.542-.5s.121.4.163.617C1675.771,453.516,1675.726,453.672,1675.826,453.8Z" transform="translate(-0.426 -4.577)" fill="#fe962a"/>
    <path id="Trazado_18957" data-name="Trazado 18957" d="M1670.7,416.129a1.12,1.12,0,0,0-1.212.522c-.637.849-1.327,1.657-2,2.482a3.8,3.8,0,0,0-1.336.45,10.263,10.263,0,0,1-8.7-.158,1.18,1.18,0,0,0-.859-.105q-.467-1.5-.933-3c2.822-.711,3.835-2.005,3.9-4.6.012-.5-.385-.432-.7-.453a29.29,29.29,0,0,1-3.462-.143,13.1,13.1,0,0,1-6.457-3.165,11.348,11.348,0,0,1-1.953-2.074c-.234-.345-.554-.561-.964-.2-.29.025-.339-.209-.386-.4a20.837,20.837,0,0,1-.682-7.248c.2-.514.688-.62,1.122-.788a41.057,41.057,0,0,0,6.286-2.928,19.457,19.457,0,0,0,5.989-5.229,2.38,2.38,0,0,1,.144-.215,14.214,14.214,0,0,0,1.671-2.934c.13-.3.225-.623.582-.743a1.212,1.212,0,0,1,.847.593,31.805,31.805,0,0,1,4.526,8.348,1.221,1.221,0,0,1,.086.784c-.177.421-.564.219-.858.287a2.034,2.034,0,0,0-1.593,1.285,1.691,1.691,0,0,0,.527,1.785,1.483,1.483,0,0,0,1.794.34c.46-.184.941-.43,1.4.024a27.264,27.264,0,0,1,1.433,5.976.7.7,0,0,1-.185.741,18.144,18.144,0,0,1-3.959,3.771c-.279.194-.257.392-.175.685a9.1,9.1,0,0,0,3.948,5.778,2.175,2.175,0,0,0,1.356.336C1670.185,415.893,1670.5,415.808,1670.7,416.129Z" transform="translate(-0.14 -0.927)" fill="#fed0a2"/>
    <path id="Trazado_18958" data-name="Trazado 18958" d="M1665.938,394.007a27.857,27.857,0,0,0-3.931-8.009,5.873,5.873,0,0,0-1.437-1.668c-.258-.708.237-1.288.346-1.933a6.764,6.764,0,0,0,.2-1.312,14.329,14.329,0,0,1-1.314,4.436c-.39.9-1.025,1.664-1.34,2.6l-.021-.016a26.468,26.468,0,0,1-4.189,3.992,21.721,21.721,0,0,1-2.465,1.59,57.507,57.507,0,0,1-8.686,3.711.485.485,0,0,1-.426.022,11.446,11.446,0,0,1-.338-3.23c1.12-.921,2.353-1.685,3.43-2.679a41.269,41.269,0,0,0,5.168-5.626,19.745,19.745,0,0,0,2.25-3.631c.155-.341.232-.694.373-1.1a15.536,15.536,0,0,1-2.824,4.975,35.624,35.624,0,0,1-7.242,7.193,1.686,1.686,0,0,1-1.173.51,15.269,15.269,0,0,1,1.955-8.136,13.723,13.723,0,0,1,7.081-6.37c.667-.3.25-.523.053-.75a7.081,7.081,0,0,1-.573-7.733,5.33,5.33,0,0,1,8.376-1.337,10.457,10.457,0,0,1,2.109,2.744c1.172,2.165.573,4.079-.887,5.852-.129.156-.27.3-.47.528,6.307,1.62,10.15,5.49,11.163,11.979-.336.1-.563-.131-.812-.281a3.594,3.594,0,0,0-.8-.4c-.924-.281-1.433.128-1.235,1.059.331,1.552.493,3.125.7,4.695a49.651,49.651,0,0,1,.246,6.8,7.6,7.6,0,0,1-.211,1.05,4.714,4.714,0,0,1-.217,1.129c-.053.1-.083.134-.139.026a1.348,1.348,0,0,1-.073-.256,33.735,33.735,0,0,0-1.062-5.541c-.1-.431-.243-.852-.366-1.278A10.164,10.164,0,0,1,1665.938,394.007Z" fill="#895b41"/>
    <path id="Trazado_18959" data-name="Trazado 18959" d="M1665.579,494.665l8.017,0q-.108,5.355-.215,10.709-.123,6.344-.242,12.686c-.021,1.191,0,2.383-.027,3.574-.009.4.146.842-.2,1.188a9.166,9.166,0,0,1-4.285.322c-.559-.326-.51-.921-.573-1.431-.309-2.489-.482-4.992-.76-7.484-.231-2.076-.449-4.157-.628-6.238-.257-3-.649-5.995-.827-9-.059-.987-.247-1.955-.393-2.931A1.924,1.924,0,0,1,1665.579,494.665Z" transform="translate(-1.248 -6.842)" fill="#6a7c42"/>
    <path id="Trazado_18960" data-name="Trazado 18960" d="M1655.6,494.664l7.844.015a1.6,1.6,0,0,1,.262,1.191c.042,6.952.3,13.9.178,20.855-.022,1.184.351,2.372-.017,3.554a1.115,1.115,0,0,1-.785.363,12.52,12.52,0,0,1-3.751-.008c-.307-.006-.5-.014-.551-.464-.441-3.872-.923-7.739-1.409-11.606Q1656.5,501.613,1655.6,494.664Z" transform="translate(-0.72 -6.842)" fill="#6a7c42"/>
    <path id="Trazado_18961" data-name="Trazado 18961" d="M1668.487,524.618l4.3-.185q0,5.829.01,11.658c.172,1.155.013,2.319.095,3.477a1.321,1.321,0,0,1-.737.606,12.211,12.211,0,0,1-5.772,1.537c-.769-.015-1.539.013-2.308-.012-.385-.012-.785-.022-.984-.451.072-.494.517-.5.851-.634a26.763,26.763,0,0,0,4.6-2.252,1.741,1.741,0,0,0,.918-2.068c-.275-2.1-.418-4.21-.688-6.309-.186-1.449-.2-2.916-.464-4.357A1.034,1.034,0,0,1,1668.487,524.618Z" transform="translate(-1.124 -8.451)" fill="#fed0a2"/>
    <path id="Trazado_18962" data-name="Trazado 18962" d="M1659.21,522.1c1.456-.291,2.958-.009,4.409-.358a.961.961,0,0,1,.157.679c.11,4.11.234,8.219.173,12.333a4.58,4.58,0,0,0,.165,1.593.706.706,0,0,1-.024.479,9.627,9.627,0,0,1-3.871,1.712,12.15,12.15,0,0,1-6.415.148,1.2,1.2,0,0,1-.489-.2c-.085-.5.308-.421.569-.439a3.818,3.818,0,0,0,1.21-.156,18.348,18.348,0,0,0,4.936-2.208c.733-.472.653-1.146.574-1.825-.341-2.95-.651-5.906-1.078-8.845A16.725,16.725,0,0,0,1659.21,522.1Z" transform="translate(-0.595 -8.305)" fill="#fed0a3"/>
    <path id="Trazado_18963" data-name="Trazado 18963" d="M1666.026,468.961a26.438,26.438,0,0,1-3.93,1.773c-.188.06-.366-.043-.551-.033a21.034,21.034,0,0,1-4.117.193c-.386-.111-.826-.114-1.052-.538.355-.328.789-.151,1.187-.178a9.508,9.508,0,0,0,2.138-.1c-1.286.048-2.779.383-4.232-.227a.857.857,0,0,0-.832-.2c-1.125.373-2.241-.135-3.351,0-.429.054-.8-.734-1.132-.147-.192.336-.035.871-.041,1.316-.01.683-.024,1.366-.036,2.049a13.14,13.14,0,0,1-.167-3.264c-.029-.41-.045-.739-.476-.95-1.535-.754-2.016-2.15-2.191-3.719-.065-.587-.124-1.177-.186-1.765a7.819,7.819,0,0,0,2.243,1.928,1.245,1.245,0,0,1,.554.672,2.506,2.506,0,0,0,1.96,1.6c.861.195,1.71.444,2.566.668.311.636-.218.651-.557.663a7.732,7.732,0,0,1-2.525-.074,7.934,7.934,0,0,0,2.846.026,2.35,2.35,0,0,1,1.124.072c1.964,1.36,3.817.578,5.663-.3a1.15,1.15,0,0,0,.3-.2c.345-.328.8-.688.565-1.2s-.8-.278-1.207-.205a7.819,7.819,0,0,1-1.839.291c-.193-.012-.464.082-.521-.2-.037-.184.154-.306.3-.415a7.227,7.227,0,0,1,2.681-1.15,11.829,11.829,0,0,1,3.611-.424c.455.027.907-.072,1.01-.652a.3.3,0,0,1,.4-.082,24.028,24.028,0,0,1,2.152,1.262c.188.138.4.278.313.576l-1.8,2.313A.94.94,0,0,1,1666.026,468.961Z" transform="translate(-0.258 -5.14)" fill="#fed0a2"/>
    <path id="Trazado_18964" data-name="Trazado 18964" d="M1647.681,543.478a2.161,2.161,0,0,1-1.424-.637,1.029,1.029,0,0,1-.213-1.225c.752-1.825,4.193-3.522,6.142-3.028.447.427.255.684-.245.779a1.828,1.828,0,0,0-1.243.767c-.288.411-.247.7.2.937a2.315,2.315,0,0,0,1.262.362,8.281,8.281,0,0,0,3.073-.283,1.266,1.266,0,0,1,.961.048c.431.3.853.076,1.282-.01.764-.152,1.11.128,1.214.893.083.611-.157.91-.763.91-1.743,0-3.469.248-5.236.1-.985-.083-2.194-.433-3.14.446-.247.231-.629.1-.954.09C1648.3,543.5,1647.971,543.623,1647.681,543.478Z" transform="translate(-0.197 -9.211)" fill="#cc0019"/>
    <path id="Trazado_18965" data-name="Trazado 18965" d="M1647.781,543.731l.92-.01a.667.667,0,0,0,.681.073c2-1.187,4.175-.23,6.247-.5a10.864,10.864,0,0,1,1.331-.106,1.284,1.284,0,0,1,1.452,1.411c0,.765-.195,1.513-.127,2.292.04.455-.36.722-.818.8a4.153,4.153,0,0,1-1.243-.054c-.436-.054-.891-.164-1.263.2a4.881,4.881,0,0,1-2.532-1.721,6.879,6.879,0,0,0-3.9-2.139C1648.273,543.922,1647.982,543.955,1647.781,543.731Z" transform="translate(-0.297 -9.464)" fill="#cc0019"/>
    <path id="Trazado_18966" data-name="Trazado 18966" d="M1670.484,404.756c-.076-2.256.047-4.514-.2-6.77a55.584,55.584,0,0,0-.816-5.808c-.234-1.07.12-1.465,1.217-1.385.805.059,1.3.647,1.91,1.044a4.437,4.437,0,0,1,.338,3.605,1.461,1.461,0,0,1-.9,1.221c-.339.172-.587.4-.5.836a27.814,27.814,0,0,1,.333,4.757A9.261,9.261,0,0,1,1670.484,404.756Z" transform="translate(-1.465 -1.229)" fill="#fdd0a2"/>
    <path id="Trazado_18967" data-name="Trazado 18967" d="M1655.013,547.509c-.208-.38-.094-.512.334-.544a13.653,13.653,0,0,1,1.677.188c.965.044,1.053-.117,1.087-1.069.023-.617.133-1.234.126-1.861a1.058,1.058,0,0,0-1.214-1.194,49.054,49.054,0,0,0-5.3.155,1.026,1.026,0,0,1-.591-.142.6.6,0,0,0-.857.159,1.117,1.117,0,0,1-1.52.188,1.37,1.37,0,0,0,1.22-.385.85.85,0,0,1,.8-.315c.651.184,1.319-.082,1.911.024a26.844,26.844,0,0,0,5.312-.049c.211,0,.563.146.61-.154a2.1,2.1,0,0,0-.13-1.042c-.111-.283-.428-.223-.708-.177-.5.082-1.027.681-1.5-.046a2.244,2.244,0,0,1,1.514-.4c1.309.012,2.6-.263,3.9-.221a3,3,0,0,0,.962-.143c1.178-.354,1.492-.791,1.4-1.995-.071-.938-.017-.948.913-1.1.822-.138,1.654-.112,2.473-.244.486-.045,1.063-.272,1.3.38.217.6-.123,1.006-.6,1.346a20.061,20.061,0,0,1-6.428,2.912c-.51.14-1.056-.017-1.569.243-.964.488-1.075.7-.7,1.733a.863.863,0,0,1,.046.351c-.672.183-.89.584-.955,1.313a4.133,4.133,0,0,1-.207,1.88c-.191.342.537.378.626.747a11.155,11.155,0,0,1-3.413-.347A.748.748,0,0,1,1655.013,547.509Z" transform="translate(-0.349 -9.133)" fill="#cc0019"/>
    <path id="Trazado_18968" data-name="Trazado 18968" d="M1669.741,464.319a10.588,10.588,0,0,0-2.865-1.756c-.375-.232-.392-.534-.24-.924q2.435-6.231,4.857-12.469c.353-.9.739-1.794,1.115-2.688a8.539,8.539,0,0,0,.144-4.674c-.214-1.483-.1-2.97-.278-4.454-.217-1.768-.227-3.562-.328-5.344-.016-.283.006-.54.336-.638a1.706,1.706,0,0,1,.341,1.093c.041,2.3.287,4.583.394,6.877.08,1.7.266,3.388.354,5.086a6.906,6.906,0,0,1-.638,2.945q-2.726,6.868-5.406,13.754a.933.933,0,0,0,.483,1.338c.187.094.366.2.546.307,1.441.845,1.476.842,2.206-.682,1.587-3.31,3.251-6.585,4.664-9.977a5.893,5.893,0,0,1,.553-1.023c.189-.212.366-.449.707-.381q.013.968.026,1.937c-.3-.243-.035-.642-.3-.975-.547,1.126-1.11,2.2-1.6,3.315-1.344,3.027-2.785,6.006-4.285,8.958C1670.311,464.354,1670.066,464.332,1669.741,464.319Z" transform="translate(-1.311 -3.422)" fill="#b49a7d"/>
    <path id="Trazado_18969" data-name="Trazado 18969" d="M1645.079,398.557a22.35,22.35,0,0,0,.829,7.843,13.487,13.487,0,0,0,.735,2.706c.046.207.269.469-.165.523a32.783,32.783,0,0,1-3.7-9.677,5.589,5.589,0,0,1-.073-.7A5.521,5.521,0,0,1,1645.079,398.557Z" transform="translate(-0.023 -1.649)" fill="#8a5b42"/>
    <path id="Trazado_18970" data-name="Trazado 18970" d="M1660.067,544.082a1.272,1.272,0,0,1-.464-1.5,1.914,1.914,0,0,1,1.681-.99,15.278,15.278,0,0,0,7.5-2.962.877.877,0,0,0,.383-1.012c-.163-.6-.689-.251-1.048-.342l-.007-.153a1.085,1.085,0,0,1,1.4-.04c.44,1.4-.64,1.91-1.517,2.438a22.185,22.185,0,0,1-5.068,2.259c-.233.236-.548.2-.836.251a5.961,5.961,0,0,0-1.461.4c-.247.109-.508.245-.5.564s.3.42.547.507a4.829,4.829,0,0,0,1.148.152,19.945,19.945,0,0,0,3.9-.4c1.631-.17,3.272-.065,4.9-.306a4.809,4.809,0,0,0,1.718-.419c.645-.538.359-1.209.26-1.852a.382.382,0,0,1-.023-.367q.012-1.776.022-3.555c1.254.036,2.5-.344,3.762-.035a2.227,2.227,0,0,1,1.057.373,25.928,25.928,0,0,0-3.9-.188c-.584-.017-.708.2-.78.763-.183,1.443.482,2.782.4,4.21-.072,1.209-.309,1.326-1.449,1.529-2.058.364-4.163.039-6.167.4A49.629,49.629,0,0,1,1660.067,544.082Z" transform="translate(-0.93 -9.108)" fill="#cc0019"/>
    <path id="Trazado_18971" data-name="Trazado 18971" d="M1667.63,537.29a20.062,20.062,0,0,1-2.785.344c-.334.065-.63-.008-.542.54.344,2.146-.475,2.462-2.1,2.666-1.936.243-3.9.274-5.847.4a19.186,19.186,0,0,1-3.762.377,3.853,3.853,0,0,1-1.605-.409c-.558-.291-.694-.67-.3-1.229a1.7,1.7,0,0,1,1.434-.9c.5.006.436-.259.307-.575l2.508.21c-.518.4-1.211.2-1.758.512-.266.342-.7.286-1.044.438s-.8.283-.761.754c.04.514.532.492.9.527a14.407,14.407,0,0,0,3.809-.243,15.915,15.915,0,0,1,3.454-.263,18.054,18.054,0,0,0,3.27-.326c.588-.078.794-.386.867-.929.071-.523-.178-1.078.158-1.571l.048-.3a5.3,5.3,0,0,1,3.729-.048Z" transform="translate(-0.442 -9.127)" fill="#cc0019"/>
    <path id="Trazado_18972" data-name="Trazado 18972" d="M1677.23,450.667l-.485.349c-.267-.4-.05-.769.113-1.1,1.609-3.244,1.588-6.683,1.254-10.163a2.358,2.358,0,0,1-.023-.268c.057-2.6-.132-5.189-.191-7.783a1.55,1.55,0,0,1,.231-1.112l.377-.008c.079,4.8.4,9.584.359,14.383a12.814,12.814,0,0,1-1.117,4.369C1677.581,449.782,1677.4,450.223,1677.23,450.667Z" transform="translate(-1.855 -3.38)" fill="#a2a1a1"/>
    <path id="Trazado_18973" data-name="Trazado 18973" d="M1645.079,398.054a7.424,7.424,0,0,1-2.372.69l-.007-.18a6.887,6.887,0,0,1,1.879-.759,46.8,46.8,0,0,0,7.364-3.27,21.063,21.063,0,0,0,5.8-4.8,1.613,1.613,0,0,1,.725-.484,15.436,15.436,0,0,1-4.608,4.509A39.154,39.154,0,0,1,1645.079,398.054Z" transform="translate(-0.022 -1.146)" fill="#6d442c"/>
    <path id="Trazado_18974" data-name="Trazado 18974" d="M1642.323,394.573a31.481,31.481,0,0,0,11.262-12.82,4.43,4.43,0,0,1-1.144,3.024,33.407,33.407,0,0,1-5.636,6.727,25.95,25.95,0,0,1-4.128,3.32,1.617,1.617,0,0,1-.335.105Z" transform="translate(-0.002 -0.741)" fill="#6d432e"/>
    <path id="Trazado_18975" data-name="Trazado 18975" d="M1671.963,402.523a4.518,4.518,0,0,1-.291-2.043,17.131,17.131,0,0,0-.363-2.89c-.093-.357-.08-.586.363-.717a2.265,2.265,0,0,0,1.359-1.164A17.65,17.65,0,0,1,1671.963,402.523Z" transform="translate(-1.566 -1.495)" fill="#8a5d42"/>
    <path id="Trazado_18976" data-name="Trazado 18976" d="M1650.954,429.392l.719-1.491c.341.383.146.666.02.942a8.008,8.008,0,0,0-.716,4.913,3.214,3.214,0,0,0,2.927,2.608c.91.067,1.791-.357,2.7-.066a7.632,7.632,0,0,1-4.171.228c-2.049-1.735-2.32-3.914-1.589-6.35A5.364,5.364,0,0,0,1650.954,429.392Z" transform="translate(-0.442 -3.235)" fill="#c77626"/>
    <path id="Trazado_18977" data-name="Trazado 18977" d="M1655.925,548.308l3.413.347c2.019.03,4.023-.153,6.033-.312a10.5,10.5,0,0,1,2.72.326,14.591,14.591,0,0,0,3.8,0,2.537,2.537,0,0,1-1.976.331c-3.764-.625-7.539-.1-11.305-.19A6.272,6.272,0,0,1,1655.925,548.308Z" transform="translate(-0.737 -9.741)" fill="#cc0019"/>
    <path id="Trazado_18978" data-name="Trazado 18978" d="M1677.615,430.588q.112,3.62.224,7.24c.055,1.788.057,3.579.173,5.362a13.367,13.367,0,0,1-1.263,6.4c-.2.459-.347.946-.519,1.42-1.859,4.1-3.692,8.2-5.791,12.182-.311.589-.58.652-1.08.276a9.857,9.857,0,0,0-1.07-.647c-1.4-.788-1.372-.775-.8-2.228,1.605-4.075,3.009-8.241,4.835-12.213,1.234-2.688.96-5.317.754-8.041-.171-2.26-.29-4.525-.431-6.787q-.069-1.114-.135-2.228A8.677,8.677,0,0,1,1677.615,430.588Z" transform="translate(-1.342 -3.375)" fill="#fefefe"/>
    <path id="Trazado_18979" data-name="Trazado 18979" d="M1657.269,421.244c-.03-.677.322-.462.655-.279a10.236,10.236,0,0,0,5.308,1.179,13.1,13.1,0,0,0,3.688-.894c.459-.116.7-.007.534.519-2.238,3.088-4.768,5.938-7.231,9.046Z" transform="translate(-0.81 -2.85)" fill="#fefefd"/>
    <path id="Trazado_18980" data-name="Trazado 18980" d="M1661.52,436.376a6.239,6.239,0,0,0,7.644.635,3.226,3.226,0,0,1-2.8,1.382C1664.545,438.265,1662.624,438.3,1661.52,436.376Z" transform="translate(-1.039 -3.693)" fill="#d17518"/>
    <path id="Trazado_18981" data-name="Trazado 18981" d="M1655.443,469c-1.443.047-2.885.438-4.328,0-.27-.081-.533-.185-.833-.29a.394.394,0,0,1,.574-.189,8.686,8.686,0,0,0,3.084.292c.36,0,.675-.011.616-.5A2.468,2.468,0,0,0,1655.443,469Z" transform="translate(-0.432 -5.419)" fill="#d79559"/>
    <path id="Trazado_18982" data-name="Trazado 18982" d="M1668,421.768a.5.5,0,0,0-.534-.519c.335-.157.661-.337,1.007-.464.2-.074.209.133.239.271C1668.5,421.317,1668.365,421.654,1668,421.768Z" transform="translate(-1.361 -2.849)" fill="#fdf2da"/>
    <path id="Trazado_18983" data-name="Trazado 18983" d="M1655.95,470.221a14.593,14.593,0,0,0,5.272-.116c-1.38.865-2.895.569-4.365.625A1.192,1.192,0,0,1,1655.95,470.221Z" transform="translate(-0.738 -5.515)" fill="#d08c56"/>
    <path id="Trazado_18984" data-name="Trazado 18984" d="M1667.109,469.127l.862-.611c1.425-.389,2.357-1.57,3.6-2.271a2.694,2.694,0,0,1-.948,1.077,15.439,15.439,0,0,1-2.711,1.7C1667.674,469.145,1667.416,469.416,1667.109,469.127Z" transform="translate(-1.341 -5.307)" fill="#cf7319"/>
    <path id="Trazado_18985" data-name="Trazado 18985" d="M1658.021,471.314a22.394,22.394,0,0,1,4.281-.358c.032.311-.238.33-.41.35a10.018,10.018,0,0,1-3.324.191C1658.37,471.482,1658.152,471.527,1658.021,471.314Z" transform="translate(-0.85 -5.561)" fill="#d08b52"/>
    <path id="Trazado_18986" data-name="Trazado 18986" d="M1658.6,471.5a8.932,8.932,0,0,0,3.734-.541l.387.2A6.767,6.767,0,0,1,1658.6,471.5Z" transform="translate(-0.881 -5.561)" fill="#fdbe77"/>
    <path id="Trazado_18987" data-name="Trazado 18987" d="M1648.518,406.456a1.742,1.742,0,0,1-1.844-2.013,1.859,1.859,0,0,1,1.986-1.933,1.978,1.978,0,0,1,1.95,1.907A1.94,1.94,0,0,1,1648.518,406.456Z" transform="translate(-0.237 -1.863)" fill="#f6b493"/>
    <path id="Trazado_18988" data-name="Trazado 18988" d="M1667.138,395.491a16.841,16.841,0,0,1,1.225,3.6,4.144,4.144,0,0,0-1.333.348,1.738,1.738,0,0,1-2.181-.821,1.786,1.786,0,0,1,.223-2.408A2.591,2.591,0,0,1,1667.138,395.491Z" transform="translate(-1.2 -1.483)" fill="#f6b292"/>
    <path id="Trazado_18989" data-name="Trazado 18989" d="M1659.375,409.892c-1.193-.425-1.7-1.519-2.293-2.481-.362-.589.226-1.306,1.13-1.44,1.165-.172,3.192.789,3.187,2.4a1.715,1.715,0,0,1-.577,1.413c-.3-.33.048-.749-.151-1.093a2.2,2.2,0,0,0-1.933-1.812c-.233-.026-.5-.042-.651.179-.174.252.056.44.178.628.374.573.894,1.023,1.318,1.555C1659.609,409.489,1660.223,409.928,1659.375,409.892Z" transform="translate(-0.794 -2.049)" fill="#0c0706"/>
    <path id="Trazado_18990" data-name="Trazado 18990" d="M1663.994,390.752a4.554,4.554,0,0,1,.947,1.779,1.119,1.119,0,0,1-.333,1.427.834.834,0,0,1-1.134-.046,1.243,1.243,0,0,1-.271-1.466C1663.4,391.9,1663.694,391.383,1663.994,390.752Z" transform="translate(-1.124 -1.228)" fill="#7bc9ef"/>
    <path id="Trazado_18991" data-name="Trazado 18991" d="M1660.686,395.66a1.108,1.108,0,0,1,1.143,1.206,1.1,1.1,0,0,1-1.092,1.079,1.241,1.241,0,0,1-1.2-1.179A1.122,1.122,0,0,1,1660.686,395.66Z" transform="translate(-0.932 -1.493)" fill="#090604"/>
    <path id="Trazado_18992" data-name="Trazado 18992" d="M1651.9,399.7c-.061.658-.32,1.174-1.061,1.17a1.069,1.069,0,0,1-1.178-1.046,1.128,1.128,0,0,1,1.091-1.254A1.233,1.233,0,0,1,1651.9,399.7Z" transform="translate(-0.398 -1.65)" fill="#080504"/>
    <path id="Trazado_18993" data-name="Trazado 18993" d="M1659.382,388.816c-.229-.26-.117-.509.055-.726a12.473,12.473,0,0,0,1.671-3.323,8.55,8.55,0,0,0,.741-3.354,1.123,1.123,0,0,1,.11-.415c.013-.034.1-.038.231-.081a7.577,7.577,0,0,1-.51,3.341,1.765,1.765,0,0,0-.192.77A16.308,16.308,0,0,1,1659.382,388.816Z" transform="translate(-0.917 -0.696)" fill="#6d442e"/>
    <path id="Trazado_18994" data-name="Trazado 18994" d="M1655.825,402.543c-.435.046-.659-.091-.683-.581-.033-.68-.133-1.357-.22-2.035-.022-.18-.107-.361.138-.432a.328.328,0,0,1,.461.279,5.955,5.955,0,0,1,.176,1.052c.009.568-.028,1.11.8,1,.161-.021.272.1.271.278a.328.328,0,0,1-.246.333A6.422,6.422,0,0,1,1655.825,402.543Z" transform="translate(-0.681 -1.699)" fill="#ce844f"/>
    <path id="Trazado_18995" data-name="Trazado 18995" d="M1659.806,391.577a4.064,4.064,0,0,1,1.343.414c.171.113.413.205.315.464-.106.277-.361.176-.531.09a1.648,1.648,0,0,0-1.61-.173.332.332,0,0,1-.312-.076.31.31,0,0,1,.065-.4A1.024,1.024,0,0,1,1659.806,391.577Z" transform="translate(-0.901 -1.272)" fill="#926243"/>
    <path id="Trazado_18996" data-name="Trazado 18996" d="M1660.979,408.76c.4.4-.059.784-.02,1.178a1.267,1.267,0,0,1-1.448.106c.641-.156-.128-.4.035-.584A7.407,7.407,0,0,0,1660.979,408.76Z" transform="translate(-0.931 -2.201)" fill="#534e49"/>
    <path id="Trazado_18997" data-name="Trazado 18997" d="M1642.781,396.5c7.122-3.862,13.648-8.259,15.618-16.931a17.829,17.829,0,0,1-5.3,10.241A31.379,31.379,0,0,1,1642.781,396.5Z" transform="translate(-0.027 -0.623)" fill="#6d432d"/>
    <path id="Trazado_18998" data-name="Trazado 18998" d="M1656.262,368.489a1.015,1.015,0,0,1,1.114.193,7.989,7.989,0,0,1,3.143,4.309,4.88,4.88,0,0,1,.369,2c-.081.608.079.886.69.416.119-.092.291-.242.476-.067-.838,1.175-4.066,1.878-5.721,1.25-2.9-1.1-4.99-3.145-4.962-4.922a9.083,9.083,0,0,0,1.315,2.165,5.184,5.184,0,0,0,2.428,1.726c.136.053.315.05.412.139,1.258,1.156,2.734.722,4.156.554a.889.889,0,0,0,.846-1.046,7.557,7.557,0,0,0-3.915-6.45A4.226,4.226,0,0,1,1656.262,368.489Z" transform="translate(-0.491 -0.02)" fill="#6c432e"/>
    <path id="Trazado_18999" data-name="Trazado 18999" d="M1654.482,368.918c2.132.02,4.622,5.782,4.026,7.385C1657.88,373.39,1657.038,370.685,1654.482,368.918Z" transform="translate(-0.659 -0.048)" fill="#6c432e"/>
    <path id="Trazado_19000" data-name="Trazado 19000" d="M1651,374.553c.368,1.905,1.655,3.163,3.094,4.39C1652.76,378.936,1650.732,376.042,1651,374.553Z" transform="translate(-0.47 -0.352)" fill="#6c432f"/>
    <path id="Trazado_19001" data-name="Trazado 19001" d="M1660.288,498.021a6.064,6.064,0,0,1,1,2.1.981.981,0,0,1-.427,1.161.866.866,0,0,1-1,0,.935.935,0,0,1-.48-1.137C1659.612,499.456,1659.95,498.8,1660.288,498.021Z" transform="translate(-0.921 -7.024)" fill="#cc0019"/>
    <path id="Trazado_19002" data-name="Trazado 19002" d="M1672.686,542.816a2.325,2.325,0,0,1-1.723.548c-1.829.154-3.663.248-5.493.386a20.188,20.188,0,0,1-3.7.362c-.353-.038-.708-.057-1.059-.106-.449-.064-.92-.138-.941-.738-.02-.558.4-.756.828-.913a5.039,5.039,0,0,1,2.35-.368.621.621,0,0,0,.589.32,14.405,14.405,0,0,0,8.326-1.49,6.226,6.226,0,0,1,.735-.3l.219.24A3.986,3.986,0,0,1,1672.686,542.816Z" transform="translate(-0.944 -9.32)" fill="#fa972d"/>
    <path id="Trazado_19003" data-name="Trazado 19003" d="M1663.862,537.65c.371,2.582.36,2.758-2.272,2.916-3.02.182-6.013.668-9.041.7a5.39,5.39,0,0,1-.881-.1c-.324-.052-.658-.092-.693-.539a.9.9,0,0,1,.514-.953,3.712,3.712,0,0,1,1.72-.4,25.3,25.3,0,0,0,2.635.354,14.235,14.235,0,0,0,7.439-1.759A3.814,3.814,0,0,1,1663.862,537.65Z" transform="translate(-0.469 -9.165)" fill="#f99830"/>
    <path id="Trazado_19004" data-name="Trazado 19004" d="M1673.424,542.829q.064-1.03.127-2.059A2.379,2.379,0,0,1,1673.424,542.829Z" transform="translate(-1.682 -9.333)" fill="#fed0a2"/>
    <path id="Trazado_19005" data-name="Trazado 19005" d="M1667.158,528.814a5.825,5.825,0,0,1,.952,2.057,1,1,0,0,1-.478,1.148.825.825,0,0,1-1-.061.957.957,0,0,1-.372-1.168A8.24,8.24,0,0,1,1667.158,528.814Z" transform="translate(-1.292 -8.687)" fill="#cc0019"/>
    <path id="Trazado_19006" data-name="Trazado 19006" d="M1660.885,408.646c-.225.751-.795.8-1.432.7a10.534,10.534,0,0,1-1.482-1.74c-.39-.539-.207-.874.487-.941C1659.583,406.557,1660.42,407.24,1660.885,408.646Z" transform="translate(-0.837 -2.087)" fill="#f9f9f9"/>
  </g>
</svg>
