<svg xmlns="http://www.w3.org/2000/svg" width="71.536" height="151.43" viewBox="0 0 71.536 151.43">
  <g id="Grupo_8142" data-name="Grupo 8142" transform="translate(-702.287 -134.884)">
    <path id="Trazado_19007" data-name="Trazado 19007" d="M749.424,212.718c1.107.387,2.211.783,3.324,1.157a12.665,12.665,0,0,1,6.111,3.821,33.829,33.829,0,0,1,2.915,4.517c1.106,1.932,1.891,4.021,2.948,5.982.736,1.368,1.25,2.855,1.865,4.289.592,1.38,1.222,2.744,1.809,4.127.609,1.435,1.154,2.9,1.744,4.337.841,2.06,1.611,4.149,2.35,6.247.842,2.388,1.724,4.771,2.391,7.209a41.852,41.852,0,0,1,1.614,8.9c.092,1.785-1.019,2.758-2.339,3.692-2.047,1.448-4.238,2.661-6.4,3.9a89.6,89.6,0,0,1-9.273,4.983c-.236.1-.469.211-.7.324-.921.451-1.133.785-.875,1.774a19.241,19.241,0,0,1,.428,3.861c.077,1.414.29,2.811.35,4.223a42.129,42.129,0,0,0,.423,5.744H746.059a1.359,1.359,0,0,1-.216-1.008c.009-.731-.033-1.461-.056-2.192-.02-1.711-.211-3.415-.239-5.127a1.068,1.068,0,0,0-.255-.55.216.216,0,0,1,.091-.324,14.576,14.576,0,0,1,2.037-1.09,46.413,46.413,0,0,0,4.844-2.192c1.162-.491,2.258-1.116,3.414-1.622.277-.121.582-.222.689-.611-.3-.166-.547.009-.778.127-3.269,1.686-6.7,3.052-9.848,4.971-.066.04-.136.073-.205.107-1.461.7-1.533.685-2.266-.777-1-2-1.935-4.024-2.9-6.036-.34-.708-.241-.931.414-1.3,1.631-.919,3.136-2.04,4.735-3.006,1.032-.622,2.116-1.155,3.129-1.814,1.4-.91,2.9-1.651,4.264-2.627a14.35,14.35,0,0,1,2.124-1.24,4.127,4.127,0,0,0,1.925-1.582c1.583-.9,3.1-1.9,4.663-2.836.771-.464,1.481-1.029,2.3-1.417a.681.681,0,0,0,.369-1c-.487-1.3-1.134-2.536-1.647-3.826-1.454-3.653-3.159-7.2-4.56-10.877-.12-.313-.287-.6-.417-.911-.145,2.556-.262,5.11-.293,7.673-.05,4.137-.29,8.27-.31,12.409a1.634,1.634,0,0,1-.106.757,5.447,5.447,0,0,1-2.067,1.412c-1.349.742-2.584,1.653-3.9,2.441-1.754,1.048-3.466,2.168-5.27,3.134-.208.112-.427.214-.6-.07a1.561,1.561,0,0,1-.189-.819c.126-4.245-.21-8.48-.405-12.711a71.234,71.234,0,0,1,.554-9.139c.177-2.177.233-4.363.518-6.53.26-1.989.425-3.987.579-5.983.206-2.665.557-5.312.749-7.978.155-2.152.289-4.309.572-6.45a22.8,22.8,0,0,0,.207-2.767,12.541,12.541,0,0,1,.279-2.37c.021-.825-.039-1.652.049-2.477C748.416,212.769,748.78,212.545,749.424,212.718Z" transform="translate(-2.675 -5.492)" fill="#fe962a"/>
    <path id="Trazado_19008" data-name="Trazado 19008" d="M710.1,294.67c.524-1.7.295-3.469.509-5.19.321-2.574.413-5.167.8-7.737.253-1.691.192-3.429.278-5.146a16.448,16.448,0,0,0-.037-2.9c.335-.21.658-.033.962.061a6.936,6.936,0,0,0,3.509.105,3.72,3.72,0,0,0,2.433-1.991,25.33,25.33,0,0,0,2.484-7.014c.457-1.876.736-3.785,1.16-5.667a35.609,35.609,0,0,0,.672-4.727,2.738,2.738,0,0,1,.205-.976c.076-.157.162-.346.4-.2a1.29,1.29,0,0,1,.292,1.007,14.314,14.314,0,0,0,.264,2.986,16.278,16.278,0,0,1-.118,3.224c-.076,4.513-.386,9.018-.5,13.529a1.642,1.642,0,0,1-.105.6,2.237,2.237,0,0,0-.174,1.049,9.636,9.636,0,0,1-.243,3.205c-.128.321.135.639.207.962a12.038,12.038,0,0,1-.089,3.462,1.712,1.712,0,0,0-.188.969,1.186,1.186,0,0,1-.942,1.306,23.292,23.292,0,0,0-3.211,1.275c-.411.22-1.073.357-.929.953s.769.306,1.2.315a7.487,7.487,0,0,0,2.657-.39,1.2,1.2,0,0,1,.977.046.283.283,0,0,1,.114.2c-.284.594-.888.729-1.415.952a8.77,8.77,0,0,0-2.678,1.773c-.162.156-.379.341-.265.591.136.3.441.226.682.169a14.662,14.662,0,0,0,1.484-.407c.2-.068.414-.137.572.053.183.221.044.434-.077.634a1.214,1.214,0,0,1-.148.177c-.178.2-.51.356-.354.693s.511.283.817.287c.1,0-.026,0,.077,0,1.083-.055,1.083-.055,1.131,1.061a.977.977,0,0,1-.21.7Z" transform="translate(-0.552 -8.356)" fill="#fe962a"/>
    <path id="Trazado_19009" data-name="Trazado 19009" d="M723.233,297.552l.012-.769c-.006-1.091.586-1.547,1.622-1.736.923-.168,1.73-.765,2.678-.917a.732.732,0,0,1,.467.112c.268.431-.133.639-.31.92-.111.175-.251.349-.143.56.13.253.379.209.609.185a9.125,9.125,0,0,0,3.006-1.281,3.413,3.413,0,0,1,1.3-.408,25.005,25.005,0,0,1,5-.076,24.527,24.527,0,0,0,2.614.025,19.808,19.808,0,0,1,2.915.023c.573.071,1.178-.312,1.716.127a18.8,18.8,0,0,1,.144,3.233Z" transform="translate(-1.479 -11.238)" fill="#6a7c42"/>
    <path id="Trazado_19010" data-name="Trazado 19010" d="M707.216,197.176c-2.114.154-4.411-2.072-4.609-3.948a1.779,1.779,0,0,0-.32-1v-1.237a6.589,6.589,0,0,1,1.2-2.977,3.042,3.042,0,0,1,1.855-1.336c.64-.152,1.1-.338,1-1.1.408.167.349.545.334.854a64.357,64.357,0,0,0,.675,9.724C707.39,196.508,707.526,196.873,707.216,197.176Z" transform="translate(0 -3.579)" fill="#fed0a2"/>
    <path id="Trazado_19011" data-name="Trazado 19011" d="M707.524,193.6q-.329-3.282-.658-6.564a27.923,27.923,0,0,1-.125-4.52c.011-.18.05-.36-.086-.511a53.241,53.241,0,0,1,.574-6.084c.151-.643.191-1.312.3-1.968a19.987,19.987,0,0,1,2.046-6.238,23.1,23.1,0,0,1,4.61-6.036,26.836,26.836,0,0,1,4.928-3.763,22.622,22.622,0,0,1,5.039-2.367c.673-.186,1.336-.477,2.007-.708.361-.125.3-.228.078-.461a10.192,10.192,0,0,1-2.827-6.52,12.45,12.45,0,0,1,1.516-7.082,10.8,10.8,0,0,1,6.684-5.521,10.376,10.376,0,0,1,6.316.269,8.524,8.524,0,0,1,3.731,2.8,7.464,7.464,0,0,1,1.456,2.592,37.3,37.3,0,0,1,1.353,4.164,9.977,9.977,0,0,1-.625,6.3,12.006,12.006,0,0,1-3.2,3.511,11.636,11.636,0,0,0,2.35.879,17.816,17.816,0,0,1,3.7,1.81,18.329,18.329,0,0,1,3.693,2.746,22.776,22.776,0,0,1,3.942,4.571,24.492,24.492,0,0,1,2.743,5.91,37.438,37.438,0,0,1,1.338,6.021c.138,1.089.173,2.189.355,3.273a3.628,3.628,0,0,1-.053.833,39.1,39.1,0,0,1,.151,6.025c-.151,1.7-.193,3.422-.442,5.12a2.976,2.976,0,0,1-.5,1.518,28.709,28.709,0,0,1-.962,4.6,14.253,14.253,0,0,1-.889,2.888,18.913,18.913,0,0,0-.182-5.018c-.322-.371-.191-.836-.243-1.257-.279-2.294-.665-4.57-1.092-6.839-.081-.433-.3-.82-.381-1.251a27.053,27.053,0,0,0-.965-4.324c-.229-.835-.393-1.689-.681-2.507a10.445,10.445,0,0,0-.664-1.963,72.4,72.4,0,0,0-2.937-8.432,20.361,20.361,0,0,0-1.882-4.04,1.547,1.547,0,0,1,.351-.922c.541-.787.843-1.7,1.306-2.525a4.51,4.51,0,0,0-1.114,1.758,19.909,19.909,0,0,1-3.316,4.621c-.357.406-.73.8-1.059,1.227a5.558,5.558,0,0,1-1.949,1.723.265.265,0,0,0-.065.04c-1.572,1.572-3.635,2.4-5.456,3.592a10.573,10.573,0,0,1-2.034.928c-1.55.6-3.124,1.108-4.732,1.559a39.529,39.529,0,0,1-4.954,1.089c-1.674.243-3.351.468-5.046.61-3.434.286-6.865-.01-10.293.122-.154.006-.31,0-.463.017-.061.008-.1.032-.123.163,1.312.046,2.613,0,3.912.028a2.353,2.353,0,0,1,1.427.183,2.349,2.349,0,0,1-.652,1.52,17.838,17.838,0,0,0-2.289,5.452,32.48,32.48,0,0,0-.894,5.86,6.059,6.059,0,0,1-.343,2.18,35.385,35.385,0,0,0-.215,5.78,56.208,56.208,0,0,1-1.336-6.455A.642.642,0,0,0,707.524,193.6Z" transform="translate(-0.308)" fill="#8a5b41"/>
    <path id="Trazado_19012" data-name="Trazado 19012" d="M709.451,197a26.663,26.663,0,0,1,.36-4.412,25.4,25.4,0,0,1,1.345-5.86,19.785,19.785,0,0,1,2.15-4.186c.112-.171.212-.349.318-.525.266-.284.621-.223.944-.212,2.135.07,4.265-.074,6.4-.172a32,32,0,0,0,3.871-.687,27.741,27.741,0,0,0,3.634-.683,36.56,36.56,0,0,0,5.431-1.7,38.69,38.69,0,0,0,6.359-3.6,31.756,31.756,0,0,0,6.347-6.584c.182-.246.342-.521.683-.585.722.266.772,1.026,1.006,1.566.972,2.238,1.853,4.518,2.7,6.808.487,1.318.87,2.678,1.249,4.033.185.66.727,1.207.614,1.957.084.135,0,.181-.112.217a.7.7,0,0,0-.743.246c-.424.226-.649.037-.788-.365-.082-.237-.085-.493-.183-.72a.358.358,0,0,1-.043-.058c-.035-.059-.1-.072-.106-.028a4.565,4.565,0,0,1-.289,1.6c-.5.307-.808.034-1.074-.359-.221-.276.119-.843-.481-.924-.624.024-1.21.3-1.841.26-.595-.211-1.221.062-1.825-.131a7.614,7.614,0,0,1-2.389-1.023c-.183-.138-.435-.248-.617-.007s-.016.442.152.607a3.361,3.361,0,0,0,1.323.757c.381.128.811.179,1.068.557a.9.9,0,0,1-.062.882,13.37,13.37,0,0,0-1.141,2.251c-.278.651-.86.735-1.421.888a4.968,4.968,0,0,0-1.639,1.13,2.851,2.851,0,0,0,.231,4.081,2.031,2.031,0,0,0,2.11.33,1.924,1.924,0,0,0,1.282-1.525,1.391,1.391,0,0,0-.919-1.589,1.265,1.265,0,0,0-1.6.573c-.129.2-.245.43-.04.631.23.223.426.049.586-.13.217-.243.438-.454.795-.28a.581.581,0,0,1,.375.615,1.1,1.1,0,0,1-.64.9,1.586,1.586,0,0,1-2.089-1.043,2.473,2.473,0,0,1,1.541-2.8,2.287,2.287,0,0,1,2.812.97,4.822,4.822,0,0,1,.66,2.509c-.042.955.036,1.01.908.586a3.321,3.321,0,0,1,1.647.3,4.342,4.342,0,0,0,4.76-1.79c.257-.414.518-.824.777-1.236.179-.286.4-.513.694-.093a40.315,40.315,0,0,1,1.544,9.432c-.369.177-.454.541-.572.877a18.335,18.335,0,0,1-2.35,4.01,31.454,31.454,0,0,1-5.587,5.768.8.8,0,0,0-.321.5,1.568,1.568,0,0,0-1.206.735,18.611,18.611,0,0,1-5.3,2.541,1.213,1.213,0,0,1-1.037-.006.645.645,0,0,1,.165-.943,6.809,6.809,0,0,0,1.35-1.937,2.071,2.071,0,0,0-1.193-3.023.667.667,0,0,1-.5-.513,1.607,1.607,0,0,0-.413-.808,3.332,3.332,0,0,0-2.73-1.313c-.938,0-1.862-.285-2.824-.194a8.468,8.468,0,0,0-2.838.554,2.916,2.916,0,0,0-1.545,1.3,3.072,3.072,0,0,1-1.519.862,14.82,14.82,0,0,0-5.589,3.837,1.166,1.166,0,0,1-.562.386c-.65.066-1.055-.38-1.511-.719-.333-.3-.823-.316-1.141-.639-.056-.469-.44-.67-.762-.913a23.513,23.513,0,0,1-4.765-4.776A26.444,26.444,0,0,1,709.987,198C709.85,197.654,709.812,197.234,709.451,197Z" transform="translate(-0.505 -2.323)" fill="#fed0a2"/>
    <path id="Trazado_19013" data-name="Trazado 19013" d="M761.813,197.095a34.9,34.9,0,0,0,.636-4.944,52.344,52.344,0,0,0,.152-6.411,10.785,10.785,0,0,1,0-1.309c.275.4.084.849.116,1.272.03.4.09.653.537.79,2.833.866,3.934,5.236,2.621,7.624a6.384,6.384,0,0,1-2.3,2.582A3.2,3.2,0,0,1,761.813,197.095Z" transform="translate(-4.203 -3.498)" fill="#fed0a2"/>
    <path id="Trazado_19014" data-name="Trazado 19014" d="M724.063,271.983a3.48,3.48,0,0,0,.148-1.414c.107-2.12.058-4.249.212-6.365.2-2.7.2-5.409.336-8.113a25.946,25.946,0,0,0-.441-5.413,6.628,6.628,0,0,1,.02-2.507c.442-4.443.838-8.887,1.06-13.349.126-2.535.329-5.066.355-7.605-.278-1.073-.216-1.12.765-1.679,2.033-1.158,4.183-2.069,6.311-3.018a14.047,14.047,0,0,0,2.852-1.77,1.979,1.979,0,0,1,.739-.4,23.115,23.115,0,0,0,7.142-2.331,11.3,11.3,0,0,0,2.949-1.626.385.385,0,0,1,.557-.046,14.073,14.073,0,0,0-.275,2.343c-.261,3.3-.509,6.6-.809,9.9-.255,2.8-.665,5.6-.842,8.4-.229,3.649-.8,7.263-.923,10.923-.066,2.015-.465,4.017-.665,6.03a12.444,12.444,0,0,0-.01,2.31c.223,2.525.137,5.062.381,7.589.157,1.619.034,3.264.133,4.891a12.691,12.691,0,0,0,.074,2.443c-.022.236-.194.345-.375.454-1.513.917-2.977,1.914-4.512,2.792-.417.239-.559.741-1.009.921-1.078,0-2.146-.179-3.225-.144a57.986,57.986,0,0,0-8.191.34c-.7.123-1.428.15-2.138.256-.457.069-.743-.045-.705-.6A30.4,30.4,0,0,1,724.063,271.983Z" transform="translate(-1.531 -5.745)" fill="#fefefe"/>
    <path id="Trazado_19015" data-name="Trazado 19015" d="M745.409,293.816a59.717,59.717,0,0,1-6.487.095c-1.728-.015-3.462-.028-5.193-.08a4.092,4.092,0,0,0-.681.092c-.179-.426.217-.506.425-.68,1.041-.876,2.286-1.445,3.377-2.25,1.113-.821,2.118-1.784,3.258-2.559a8.2,8.2,0,0,1,2.34-1.506,1.466,1.466,0,0,1,.591.871c.221.56.553.683,1.076.377.21-.123.434-.3.713-.155.4.007.443.3.444.586,0,1.622.1,3.238.238,4.852A1.066,1.066,0,0,1,745.409,293.816Z" transform="translate(-2.169 -10.735)" fill="#fefefe"/>
    <path id="Trazado_19016" data-name="Trazado 19016" d="M745.282,286.676a4.969,4.969,0,0,0-.809.4c-.564.419-.9.163-1.073-.371-.122-.368-.349-.666-.5-1.01a3.05,3.05,0,0,1-.6-.784c-.831-1.772-1.713-3.521-2.539-5.295-.119-.257-.472-.438-.266-.8,0-.7.627-.82,1.046-1.1,1.086-.718,2.2-1.387,3.312-2.071.454-.28.914-.551,1.371-.826,1.229-.713,2.5-1.363,3.676-2.156,1.3-.879,2.675-1.646,3.968-2.548a45.5,45.5,0,0,1,3.964-2.247l0,0c.069.187.219.4-.031.546-.619.358-1.124.867-1.781,1.191-.927.457-1.784,1.06-2.669,1.6-1.111.681-2.231,1.348-3.326,2.052-1.863,1.2-3.886,2.122-5.688,3.445a11.19,11.19,0,0,1-2.545,1.545c-.456.176-.627.4-.353.974.856,1.787,1.774,3.546,2.542,5.378.241.573.6,1.115.883,1.687.181.373.443.151.659.089a11,11,0,0,0,2.251-1.149c2.9-1.614,5.964-2.892,8.911-4.409a5.117,5.117,0,0,1,.506-.186.3.3,0,0,1,.4.117.348.348,0,0,1-.024.429,1.657,1.657,0,0,1-.594.481c-2.452,1.173-4.861,2.449-7.37,3.482C747.472,285.618,746.42,286.234,745.282,286.676Z" transform="translate(-2.623 -9.39)" fill="#c36e21"/>
    <path id="Trazado_19017" data-name="Trazado 19017" d="M748.013,216.156c-.885.292-1.447,1.074-2.326,1.433a53.606,53.606,0,0,1-5.832,2.294,24.433,24.433,0,0,1-2.492.432c-.04-.348.28-.388.468-.532,1-.765,1.966-1.56,2.884-2.421.428-.4.573-.969.973-1.371a12.212,12.212,0,0,0,3.239-.963c1.114-.366,1.915-1.32,3.092-1.516Q748.015,214.835,748.013,216.156Z" transform="translate(-2.476 -5.552)" fill="#e9aa7a"/>
    <path id="Trazado_19018" data-name="Trazado 19018" d="M718.634,212.85a1.978,1.978,0,0,1,1.218.483c.436.644.148,1.4.306,2.079a2.209,2.209,0,0,1-.422,1.222c-1.557,2.16-1.819,4.7-2.12,7.219-.056.469-.066.933-.571,1.172a2.006,2.006,0,0,1-1.2-.166c-.8-.232-.933-.161-1.067.683-.117.737-.224,1.477-.286,2.22-.271,3.2-.666,6.391-1.086,9.578-.256,1.937-.316,3.9-.583,5.834-.3,2.215-.467,4.447-.829,6.654-.146.889-.172,1.791-.264,2.684-.2,1.967-.362,3.937-.625,5.9a1.543,1.543,0,0,0,.224-.905c.252-2.427.523-4.852.79-7.278.278-2.524.445-5.062.883-7.574.406-2.329.388-4.72.782-7.053.323-1.905.39-3.835.694-5.739.2-1.27.2-2.563.374-3.839.146-1.037.387-1.252,1.348-.923,1.249.427,2.57.5,3.839.845a26.748,26.748,0,0,0,3.529.824c.586.075.786.4.768,1.015-.086,2.877-.2,5.754-.414,8.625-.163,2.175-.229,4.361-.458,6.525-.252,2.378-.364,4.772-.733,7.135-.522,3.35-.928,6.721-1.7,10.029a41.318,41.318,0,0,1-2.1,7.25c-.154.354-.317.7-.494,1.047a4.2,4.2,0,0,1-3.93,2.618,9.171,9.171,0,0,1-3.294-.675,4.063,4.063,0,0,1-1.5-2.174,40.092,40.092,0,0,1-1.34-4.651c-.487-2.21-.813-4.431-1.09-6.667-.173-1.4-.229-2.813-.367-4.218q-.35-3.524-.458-7.063c-.155-4.825-.24-9.654-.189-14.483.022-2.046.086-4.092.2-6.135a12.824,12.824,0,0,1,1.958-6.63,6.951,6.951,0,0,1,1.548-1.48,21.128,21.128,0,0,1,6.476-3.259A18.684,18.684,0,0,1,718.634,212.85Z" transform="translate(-0.28 -5.505)" fill="#fe962a"/>
    <path id="Trazado_19019" data-name="Trazado 19019" d="M711.557,271.222a2.857,2.857,0,0,1,1.364.185,5.666,5.666,0,0,0,3.338.073,3.424,3.424,0,0,0,2.095-1.909,28.8,28.8,0,0,0,2.495-7.281c.463-1.835.688-3.711,1.143-5.548.329-1.329.31-2.741.558-4.1.322-1.761.5-3.534.664-5.311.146-1.551.509-3.1.507-4.643,0-1.437.238-2.839.28-4.252.055-1.836.234-3.666.275-5.5.032-1.519.06-3.051.216-4.569.035-.34-.116-.381-.369-.436-1.367-.3-2.755-.527-4.088-.935a35.073,35.073,0,0,1-3.56-.81c-.86-.362-.951-.206-1.067.705-.205,1.613-.3,3.236-.506,4.851-.2,1.543-.349,3.1-.548,4.644-.233,1.824-.491,3.653-.584,5.488-.129,2.56-.9,5.028-.875,7.622.012,1.268-.323,2.584-.422,3.877-.1,1.319-.377,2.612-.452,3.931-.042.736-.181,1.468-.295,2.2-.037.239-.158.486-.456.38-.258-.093-.134-.336-.107-.535.245-1.858.466-3.717.619-5.588a24.793,24.793,0,0,1,.389-3.346c.254-1.151.266-2.333.45-3.5.283-1.79.46-3.6.6-5.406.13-1.633.233-3.268.506-4.885.4-2.369.533-4.771.843-7.152.152-1.173.3-2.365.379-3.555.041-.6.387-.667.849-.545a6.4,6.4,0,0,0,1.633.422,2.543,2.543,0,0,1,.843-.033c1.957.363,3.844,1.035,5.818,1.321.475-.1.6.391.922.55a12.908,12.908,0,0,1-.016,2.922c-.174,3.529-.346,7.058-.634,10.58-.278,3.4-.564,6.8-.958,10.184a25.357,25.357,0,0,0-.665,4.378c-.175,1.223-.569,2.39-.7,3.612a32.176,32.176,0,0,1-1.139,5.449c-.659,2.275-1.266,4.669-3.023,6.457a3.235,3.235,0,0,1-1.707.93,8.457,8.457,0,0,1-4.457-.423C711.505,271.608,711.558,271.406,711.557,271.222Z" transform="translate(-0.623 -6.385)" fill="#c56f1e"/>
    <path id="Trazado_19020" data-name="Trazado 19020" d="M740.934,285.476a1.867,1.867,0,0,1,.447.811c-.708.475-1.435.924-2.118,1.432-.756.562-1.488,1.158-2.2,1.775-1.409,1.224-3.11,2.018-4.577,3.153-.188.146-.5.189-.5.52a5.008,5.008,0,0,0-2.008.879,7.039,7.039,0,0,1-2.137.822c-.324.045-.7.162-.895-.218s0-.685.282-.954c.183-.172.415-.317.437-.609.078-.23.356-.18.466-.336-.259.182-.61.123-.9.268-1.208.27-2.25,1.011-3.5,1.186-.662.091-.619.843-.856,1.321.06-.669-.068-1.1-.9-.792a1.708,1.708,0,0,1-.687,0,.609.609,0,0,1-.559-.454.539.539,0,0,1,.214-.612c.119-.1.264-.164.372-.27.145-.143.331-.348.229-.528-.148-.258-.335.015-.514.05a8.929,8.929,0,0,1-1.924.436c-.214,0-.423-.031-.52-.25a.544.544,0,0,1,.136-.632,7.94,7.94,0,0,1,2.983-2.055,8.974,8.974,0,0,0,1.468-.789,9.567,9.567,0,0,0,.974-.493c-.292.1-.589.416-1,.362-1.374.076-2.689.562-4.088.546-.507-.007-.886-.088-1.082-.5-.217-.46.159-.707.52-.88a10.952,10.952,0,0,1,2.427-1.074c.613-.133,1.2-.52,1.831-.716.315-.1.428-.375.431-.733s-.159-.772.137-1.109a.568.568,0,0,1,.19.484c-.024.647.223.717.794.489,1.622-.651,3.178-1.437,4.733-2.225a5.662,5.662,0,0,0,1.351-1.011c.332-.32.251-.592-.208-.716a3.233,3.233,0,0,0-.841-.072c-1.18,0-2.361,0-3.541,0a6.163,6.163,0,0,1-2.308-.5,1.1,1.1,0,0,1-.133-1.406c.241-.365.075-.8.116-1.207a9.2,9.2,0,0,1,.162-2.647q-.021,1.539-.043,3.076c-.006.454.039.648.652.531a31.187,31.187,0,0,1,4.333-.532c2.266-.107,4.538-.111,6.809-.108.863,0,1.725.144,2.588.222-.032.354.353.432.462.693a5.651,5.651,0,0,1-2.5-.06c-1.184-.074-2.36-.015-3.54-.018-1.411,0-2.817.067-4.224.1-1.294.033-2.551.384-3.84.5a3.362,3.362,0,0,0,1.659.324,37.248,37.248,0,0,1,4.393.121c.493.061,1.075-.011,1.276.642a1.943,1.943,0,0,1-.672,1.93,17.735,17.735,0,0,1-4.082,2.309,59.123,59.123,0,0,1-6.5,2.624c-.369.115-.674.375-1.115.564a14.689,14.689,0,0,0,4.391-.756,38.258,38.258,0,0,0,3.893-.962c.316-.114.717-.166.866.24.165.452-.209.656-.548.784-2,.757-3.882,1.768-5.818,2.662a11.4,11.4,0,0,0-2.239,1.407,64.252,64.252,0,0,0,6.374-2.363c.862-.409,1.757-.734,2.629-1.114.287-.125.637-.223.823.129.21.4-.111.629-.4.8-1.181.685-2.461,1.168-3.679,1.78a20.667,20.667,0,0,0-3.6,2.1,11.275,11.275,0,0,0,2.656-.722c2.1-.846,4.237-1.591,6.29-2.547a7.756,7.756,0,0,1,1.087-.4.471.471,0,0,1,.592.237.462.462,0,0,1-.128.56,3.376,3.376,0,0,1-.945.659,16.357,16.357,0,0,0-3.381,2.363,2.659,2.659,0,0,0,.8-.283c1.56-.846,3.06-1.795,4.574-2.72,2.2-1.347,4.035-3.18,6.222-4.537C740.185,286.183,740.447,285.69,740.934,285.476Z" transform="translate(-1.103 -9.979)" fill="#cf8249"/>
    <path id="Trazado_19021" data-name="Trazado 19021" d="M723.9,281.877a38.28,38.28,0,0,0,6.367.318c.355.006.875-.035,1.012.355.166.477-.249.767-.62,1.037a30.335,30.335,0,0,1-6.445,3.218c-.4.165-.491.007-.459-.379a9.032,9.032,0,0,0-.025-1A23.574,23.574,0,0,0,723.9,281.877Z" transform="translate(-1.514 -10.378)" fill="#fefefd"/>
    <path id="Trazado_19022" data-name="Trazado 19022" d="M723.542,290.472c.294-.323.744-.26,1.092-.457a1.161,1.161,0,0,1-1.067.589A.627.627,0,0,0,723.542,290.472Z" transform="translate(-1.501 -10.953)" fill="#f8cca3"/>
    <path id="Trazado_19023" data-name="Trazado 19023" d="M727.938,294.253a3.412,3.412,0,0,1,1.408-.544,1.216,1.216,0,0,1-.976.612Z" transform="translate(-1.811 -11.214)" fill="#f7dfc2"/>
    <path id="Trazado_19024" data-name="Trazado 19024" d="M741.36,152.234a12.65,12.65,0,0,1-5.034-.888,11.16,11.16,0,0,1-3.89-2.785,16.11,16.11,0,0,1-2.423-3.488,15.892,15.892,0,0,1-1.3-4.153,5.289,5.289,0,0,1-.323-1.419c.014-.211.018-.464.266-.49.32-.033.312.248.355.481.578,3.161,1.383,6.206,3.782,8.586a11.111,11.111,0,0,0,4.358,2.843c.423.139.559.049.611-.319a36.184,36.184,0,0,0,.57-5.291,19.593,19.593,0,0,0-.848-5.717,6,6,0,0,0-1.607-3.145.986.986,0,0,1-.227-.308c-.091-.175-.258-.383-.027-.546.177-.125.328.036.47.154a4.621,4.621,0,0,1,1.2,1.583,16.089,16.089,0,0,1,1.519,5.127,22.227,22.227,0,0,1-.11,6.487,9.937,9.937,0,0,1-.4,1.688c-.177.469-.007.678.435.734a11.08,11.08,0,0,0,2.669.228c.8-.088.877-.867.982-1.392.178-.9.453-1.771.577-2.688a18.053,18.053,0,0,0-.114-3.207,11.616,11.616,0,0,0-1.327-4.6,32.247,32.247,0,0,0-1.83-2.834c-.128-.208-.489-.445-.138-.683.3-.2.411.137.6.343a13.828,13.828,0,0,1,2.486,4.121,13.357,13.357,0,0,1,.9,4.086,14.435,14.435,0,0,1-.746,6.179c-.13.351-.124.586.371.54a10.333,10.333,0,0,1,1.235-.007c.188.006.467-.069.474.239.006.256-.243.2-.411.233A27.872,27.872,0,0,1,741.36,152.234Z" transform="translate(-1.843 -0.047)" fill="#643e2d"/>
    <path id="Trazado_19025" data-name="Trazado 19025" d="M747.161,167.487a42.9,42.9,0,0,1-3.389,4.253,31.3,31.3,0,0,1-4.717,3.919,15.9,15.9,0,0,1-3.136,1.737,4.973,4.973,0,0,0-1.605.89c-.413.408-1.013.322-1.514.51a51.418,51.418,0,0,1-8.83,2.221c-1.8.332-3.6.518-5.4.671-1.68.143-3.381.029-5.074.029q-2.507-.007-5.015-.015a2.774,2.774,0,0,1-.609-.055.3.3,0,0,1-.229-.353.249.249,0,0,1,.284-.2c2.92.057,5.843-.151,8.76.08a2.605,2.605,0,0,0,1.237-.076c.973-.372,2.027-.084,3.043-.294,1.295-.269,2.622-.372,3.932-.563.58-.085,1.15-.265,1.731-.306,1.116-.08,2.033-.8,3.14-.9a14.124,14.124,0,0,0,5.069-1.825,38.449,38.449,0,0,0,6-3.662,28.881,28.881,0,0,0,3.667-3.657,16.224,16.224,0,0,0,2.917-4.153,5.222,5.222,0,0,1,1.221-2.016c.138-.115.229-.322.427-.163.163.13.113.334.023.5C748.453,165.2,747.806,166.342,747.161,167.487Z" transform="translate(-0.378 -2.02)" fill="#65402d"/>
    <path id="Trazado_19026" data-name="Trazado 19026" d="M757.342,190.052c-.311-.211-.442-.026-.574.236a5.433,5.433,0,0,1-3.541,3.167,2.869,2.869,0,0,1-1.427.08l-2.386-.571c-.1-.849-.127-1.7-.264-2.549.282-.808.728-.32,1.071-.1a2.78,2.78,0,0,0,3.232-.074,2.442,2.442,0,0,0,.55-.638c.284-.441.616-.508,1-.118a14.468,14.468,0,0,0,.24-3.6,5.234,5.234,0,0,1,.243-2.472l.18-.168A37.282,37.282,0,0,1,757.342,190.052Z" transform="translate(-3.309 -3.415)" fill="#e7bbb1"/>
    <path id="Trazado_19027" data-name="Trazado 19027" d="M717.049,176.45a6.967,6.967,0,0,0,2.564-.483,61.229,61.229,0,0,0,6.447-1.921,33.228,33.228,0,0,0,4.095-1.881c1.3-.72,2.664-1.325,3.921-2.13a48.69,48.69,0,0,0,5.051-3.982,35.274,35.274,0,0,0,4.621-5.3c.31-.389.573-.834.905-1.219.132-.154.253-.389.479-.214a.353.353,0,0,1-.041.549c-.644.58-.86,1.45-1.428,2.072a44.791,44.791,0,0,1-3.768,4.244,53.836,53.836,0,0,1-5.532,4.357,36.844,36.844,0,0,1-7.576,3.766c-1.7.612-3.437,1.114-5.172,1.625a36.479,36.479,0,0,1-5.038,1.318c-1.812.263-3.6.682-5.441.789a10.574,10.574,0,0,0-2.811.327c-.27.09-.5.049-.58-.192-.114-.362.254-.333.441-.367a14.008,14.008,0,0,1,1.819-.253,33.907,33.907,0,0,0,4.992-.708C715.774,176.691,716.58,176.593,717.049,176.45Z" transform="translate(-0.384 -1.721)" fill="#64402d"/>
    <path id="Trazado_19028" data-name="Trazado 19028" d="M708.923,174.77c-.191,0-.43-.025-.445-.285s.223-.223.393-.25a20.551,20.551,0,0,0,4.983-1.354,68.3,68.3,0,0,0,6.539-2.785c1.289-.727,2.682-1.272,3.949-2.034a58.869,58.869,0,0,0,6.432-4.076c.976-.77,1.887-1.62,2.855-2.4a8.2,8.2,0,0,0,2.356-2.995c.313-.686.906-1.231,1.006-2.034.022-.181.163-.425.43-.319.238.095.228.306.146.523a11.6,11.6,0,0,1-2.582,4.281,31.569,31.569,0,0,1-3.059,2.869,50.593,50.593,0,0,1-5.466,3.726c-2.476,1.409-5.05,2.659-7.641,3.853a50.7,50.7,0,0,1-6.259,2.473A9.956,9.956,0,0,1,708.923,174.77Z" transform="translate(-0.437 -1.506)" fill="#653f2d"/>
    <path id="Trazado_19029" data-name="Trazado 19029" d="M731.057,154.706a.814.814,0,0,1-.953-.151,13.725,13.725,0,0,1-3.163-4.82,16.323,16.323,0,0,1-.88-5.79c.015-.3-.165-.811.29-.826.473-.015.327.5.314.8a15.93,15.93,0,0,0,.713,5.3,11.232,11.232,0,0,0,3.467,5.156C730.932,154.448,731.09,154.474,731.057,154.706Z" transform="translate(-1.677 -0.581)" fill="#653f2c"/>
    <path id="Trazado_19030" data-name="Trazado 19030" d="M718.7,224.723c-.266-.02-.556.1-.784-.137a1.91,1.91,0,0,0,.324-.915c.148-1.314.3-2.633.562-3.928a8.493,8.493,0,0,1,1.383-3.212,7.742,7.742,0,0,0,.667-1.377,2.935,2.935,0,0,1,1.239-1.384,20.162,20.162,0,0,1,3.982-3.289c1.136-.666,2.384-1.09,3.56-1.666a9.415,9.415,0,0,1,1.731-.388,1.175,1.175,0,0,1,.774.807c.113.466-.124.9-.126,1.356-1.473.907-2.819,2.014-4.373,2.795a3.2,3.2,0,0,0-1.179,1.066c.237.273.457.121.655.045a29.342,29.342,0,0,0,5.148-2.245,1.707,1.707,0,0,1,.427-.177,6.954,6.954,0,0,0,2.153-1.173,8.719,8.719,0,0,0,1.381-.926c.338-.365.937-.392,1.165-.9a3.814,3.814,0,0,0,1.064-.634c.448-.178.892-.416,1.376-.1a5.531,5.531,0,0,0,1.561,1.572c1.175.742,1.231,2.048.456,3.258a4.837,4.837,0,0,1-1.378,1.809c-.226.138-.172.409-.154.64a3.026,3.026,0,0,1-1.376,2.022,21.336,21.336,0,0,1-2.948,2.3,7.891,7.891,0,0,0-1.681,1.19c-1.392,1.043-3.056,1.45-4.565,2.2-1.416.706-2.836,1.4-4.23,2.153-.428.23-.186.62-.016.939-.36.107-.433-.5-.82-.327-.32-.665-.226-1,.384-1.307,1.909-.948,3.773-1.987,5.732-2.835.379-.165.787-.228,1.162-.413a28.442,28.442,0,0,0,6.9-4.978c.112-.106.2-.237.314-.348a34.273,34.273,0,0,1-4.3,3.051,4.5,4.5,0,0,1-.659.4.506.506,0,0,1-.69-.138c-.189-.274-.038-.507.174-.668a15.036,15.036,0,0,1,1.533-1.038,52.264,52.264,0,0,0,4.384-3.152,6.275,6.275,0,0,0,1.866-2.567,32.809,32.809,0,0,1-3.041,2.6,22.968,22.968,0,0,1-5.2,3.288c-.285.121-.6.336-.811-.042-.221-.4.1-.647.4-.791a28.685,28.685,0,0,0,3.245-1.937,31.3,31.3,0,0,0,4.508-3.727,1.067,1.067,0,0,0,.3-.446c.053-.177.1-.363-.055-.507a.447.447,0,0,0-.571-.006.7.7,0,0,0-.235.2,12.535,12.535,0,0,1-3.745,2.922c-1.23.8-2.582,1.392-3.808,2.2a1.02,1.02,0,0,1-.732.19.509.509,0,0,1-.472-.439c-.038-.243.115-.367.317-.469a70.086,70.086,0,0,0,6.448-3.787,3.589,3.589,0,0,0,1.323-1.567c.068-.15.16-.362-.044-.487-.146-.089-.3.015-.427.1-.65.416-1.3.831-1.927,1.283a29.625,29.625,0,0,1-4.048,2.379,32.04,32.04,0,0,1-5.232,2.254,5.144,5.144,0,0,1-1.268.323.9.9,0,0,1-.907-1.423,4.166,4.166,0,0,1,1.72-1.721,23.593,23.593,0,0,0,3.289-2.142,1.277,1.277,0,0,0,.531-.691,2.294,2.294,0,0,0-1.665.151,17.155,17.155,0,0,0-4.917,2.855,16.077,16.077,0,0,0-3.776,4.433,15.01,15.01,0,0,0-1.511,4.913C719.026,222.919,719.222,223.886,718.7,224.723Z" transform="translate(-1.103 -5.175)" fill="#cf824a"/>
    <path id="Trazado_19031" data-name="Trazado 19031" d="M723.278,193.635c-1.583,1.963-3.525,3.233-6.148,2.772a4.424,4.424,0,0,1-3.308-2.386,5.2,5.2,0,0,1,7.49-6.9c.43.3.8.741,1.4.692-.014.076-.041.178-.107.188a4.354,4.354,0,0,0-2.58,1.57,1.111,1.111,0,0,1-.731-.175,2.361,2.361,0,0,0-2.861,1.164,1.857,1.857,0,0,0,.3,2.15,2.1,2.1,0,0,0,2.277.48,3.138,3.138,0,0,1,.88-.255,1.44,1.44,0,0,1,.626.277,2.515,2.515,0,0,0,2.466.375A.308.308,0,0,1,723.278,193.635Z" transform="translate(-0.761 -3.617)" fill="#e6b9b2"/>
    <path id="Trazado_19032" data-name="Trazado 19032" d="M754.778,189.942c-.234-.113-.018-.532-.307-.543s-.351.293-.473.52a2.014,2.014,0,0,1-1.455,1.019c-.875.141-1.832.354-2.575-.479-.182-.2-.488-.518-.75-.021a5.43,5.43,0,0,1-1.239-2.081,2.854,2.854,0,0,0,.886-1.31,3.247,3.247,0,0,1,2.958-1.875,4.576,4.576,0,0,1,.171,1.875c.026.583.05,1.169.088,1.755.041-1.346.013-2.692.032-4.037,0-.347-.08-.727.231-1.008.267.235.5.585.927.276.355.089.259.378.28.621.114,1.4-.283,2.8.06,4.128.129-.26-.051-.581-.061-.9-.016-.467-.2-.969.223-1.367.3.438.795.63,1.176.968A4.028,4.028,0,0,1,754.778,189.942Z" transform="translate(-3.226 -3.451)" fill="#d9aeba"/>
    <path id="Trazado_19033" data-name="Trazado 19033" d="M723.748,193.765c-1.3.8-2.329.134-3.343-.618a2.542,2.542,0,0,1,.073-3.535,3.3,3.3,0,0,1,2.707-1.671,7.575,7.575,0,0,1,2.157.685c1.177.812,1.819,3.219,1.6,4.425-.069.375-.234.8-.744.721s-.493-.469-.442-.891a4.4,4.4,0,0,0-.662-2.858c-.291-.483-.875-.458-1.285-.737a2.253,2.253,0,0,0-2.458,2.384,1.127,1.127,0,0,0,1.326.944c.289-.066.531-.187.443-.553a.409.409,0,0,0-.376.119c-.342.242-.725.366-1.049.043a1,1,0,0,1-.091-1.28,1.679,1.679,0,0,1,2.149-.538,2.015,2.015,0,0,1,.814,2.392C724.408,193.262,724.035,193.457,723.748,193.765Z" transform="translate(-1.231 -3.746)" fill="#050303"/>
    <path id="Trazado_19034" data-name="Trazado 19034" d="M747.6,188.674a7.507,7.507,0,0,1,1.2,2.052,4.532,4.532,0,0,1,.113,2.562c-.19.32-.394.627-.836.42s-.353-.548-.268-.924a3.376,3.376,0,0,0-1.629-3.5,2.361,2.361,0,0,0-2.718,1,1.855,1.855,0,0,0,.284,2.374c.411.384.819.207,1.223.189.381-.018.5-.4.635-.7a.386.386,0,0,0-.251-.549c-.258-.11-.443-.069-.554.208-.176.44-.507.629-.907.354s-.3-.687-.06-1.028c.382-.538.825-.988,1.589-.789a1.569,1.569,0,0,1,1.387,1.748,2.39,2.39,0,0,1-1.316,1.853,2.542,2.542,0,0,1-2.633-.5,3.151,3.151,0,0,1,1.1-5.092c.187-.083.359-.2.537-.3.836-.07,1.678-.485,2.5.076C747.225,188.284,747.511,188.363,747.6,188.674Z" transform="translate(-2.802 -3.739)" fill="#050203"/>
    <path id="Trazado_19035" data-name="Trazado 19035" d="M747.79,188.3a4.08,4.08,0,0,0-3.109-.624c1.144-.086,1.5-.931,1.781-1.85.212-.691.988-1.144.841-1.987.326-.255.684-.058,1.02-.049.661.017,1.134-.172,1.27-.881l2.03-.322c.065.832.475,1.685-.154,2.474-.346.158-.681.343-1.038.467a2.634,2.634,0,0,0-1.741,1.772C748.542,187.762,748.4,188.249,747.79,188.3Z" transform="translate(-2.993 -3.368)" fill="#ecbfae"/>
    <path id="Trazado_19036" data-name="Trazado 19036" d="M740.719,208.225c-.482-.147-.883.239-1.348.208a2.477,2.477,0,0,1-1.06-.139,11.7,11.7,0,0,0-5.566.165.71.71,0,0,1-.528-.04,3.016,3.016,0,0,1-1.693.283,1.456,1.456,0,0,1,.994-1.259,8.978,8.978,0,0,1,3.751-.841c1.107-.026,2.176.214,3.268.27A2.633,2.633,0,0,1,740.719,208.225Z" transform="translate(-1.994 -5.064)" fill="#050303"/>
    <path id="Trazado_19037" data-name="Trazado 19037" d="M734.716,192.927a12.622,12.622,0,0,1-.672,2.743c-.229.654-.106,1.038.585,1.2a1.2,1.2,0,0,1,.287.108c.362.194.831.382.614.9-.209.5-.639.375-1.055.2a6.292,6.292,0,0,0-1.239-.412c-.691-.136-.813-.563-.648-1.138a39.623,39.623,0,0,0,1.015-4.008.491.491,0,0,1,.591-.456C734.691,192.1,734.718,192.467,734.716,192.927Z" transform="translate(-2.135 -4.037)" fill="#d08049"/>
    <path id="Trazado_19038" data-name="Trazado 19038" d="M749.58,182.828c.184.674-.015.987-.714,1.062a4.471,4.471,0,0,1-1.576-.132,10.588,10.588,0,0,1-2.3-1.014c-.29-.232-.567-.483-.483-.89a.506.506,0,0,1,.82-.37,5.539,5.539,0,0,0,3.983,1.208C749.394,182.682,749.489,182.779,749.58,182.828Z" transform="translate(-2.98 -3.282)" fill="#8b5c41"/>
    <path id="Trazado_19039" data-name="Trazado 19039" d="M723.854,190.5a2.4,2.4,0,0,0-1.57.225.931.931,0,0,0-.561.849c-.015.321.028.637.388.757a.53.53,0,0,0,.74-.348c.079-.22.2-.393.442-.3a.492.492,0,0,1,.286.632.854.854,0,0,1-.9.688,1.322,1.322,0,0,1-1.345-.836,2.259,2.259,0,0,1,.734-2.434,1.566,1.566,0,0,1,1.84-.355c-.529.191-.193.549-.037.668C724.16,190.264,723.951,190.353,723.854,190.5Z" transform="translate(-1.336 -3.837)" fill="#e2bbaf"/>
    <path id="Trazado_19040" data-name="Trazado 19040" d="M754.263,186.4a2.772,2.772,0,0,0-.075,1.5,2.1,2.1,0,0,1,.08.524c-.021.338.051.9-.343.885-.528-.018-.1-.515-.164-.791-.341-1.529.188-3.074-.09-4.6-.058-.53.22-1.047.052-1.583a.217.217,0,0,1,.18-.284c.3-.073.295.2.39.361a15.592,15.592,0,0,1,.22,3.056C754.493,185.79,754.539,186.136,754.263,186.4Z" transform="translate(-3.626 -3.329)" fill="#0f0605"/>
    <path id="Trazado_19041" data-name="Trazado 19041" d="M755.274,189.9l.006-2.632a6.328,6.328,0,0,1,0-3.708c.047-.166.026-.39.231-.448.225-.064.283.161.386.3q-.06,2.992-.12,5.983C755.768,189.716,755.754,190.032,755.274,189.9Z" transform="translate(-3.722 -3.404)" fill="#1b100e"/>
    <path id="Trazado_19042" data-name="Trazado 19042" d="M751.984,185.063c.32-.808-.138-1.664.154-2.474.346-.091.467.072.464.4,0,.229.016.457.025.686q0,2.382,0,4.765a3.657,3.657,0,0,1-.046.613c-.031.177-.089.382-.336.326s-.186-.244-.189-.433C752.045,187.651,752.012,186.357,751.984,185.063Z" transform="translate(-3.509 -3.366)" fill="#190f10"/>
    <path id="Trazado_19043" data-name="Trazado 19043" d="M755.229,183.508c.03,1.236.091,2.472,0,3.708-.7.188-.97-.113-.921-.792q.015-2,.031-3.992c.232.2.125.484.181.726C754.624,183.6,754.864,183.655,755.229,183.508Z" transform="translate(-3.673 -3.357)" fill="#e7bbb1"/>
    <path id="Trazado_19044" data-name="Trazado 19044" d="M722.3,214.136c-.452.428-.691,1.044-1.239,1.384a7.7,7.7,0,0,1-.177-2.15A2.984,2.984,0,0,0,722.3,214.136Z" transform="translate(-1.313 -5.542)" fill="#eba972"/>
    <path id="Trazado_19045" data-name="Trazado 19045" d="M741,285.745a2.135,2.135,0,0,1-1.05,1.152c-1.371.825-2.532,1.908-3.8,2.851a52.516,52.516,0,0,1-4.858,3.18c-.549.321-1.1.646-1.656.949a3.354,3.354,0,0,1-1.986.627,17.275,17.275,0,0,1,3.7-2.694,10.456,10.456,0,0,0,1.041-.656c.14-.1.3-.241.166-.452-.114-.183-.27-.185-.466-.1-2.376.989-4.738,2.019-7.143,2.932a15.535,15.535,0,0,1-3.4.915,3.858,3.858,0,0,1,1.866-1.509c1.888-.957,3.8-1.871,5.7-2.8a.7.7,0,0,0,.068-.038c.226-.144.617-.244.446-.589-.178-.361-.515-.085-.745.011-1.794.747-3.55,1.595-5.376,2.253a20.962,20.962,0,0,1-4.145,1.241,10.4,10.4,0,0,1,2.525-1.771c1.03-.507,2.108-.922,3.115-1.468.931-.506,1.947-.78,2.9-1.217.27-.124.6-.213.51-.553-.113-.408-.43-.185-.7-.118-2.279.565-4.56,1.127-6.846,1.665-.661.155-1.352-.037-2.034.146a3.555,3.555,0,0,1,1.792-1.127,64.139,64.139,0,0,0,7.2-2.977,15.292,15.292,0,0,0,3.11-1.819,1.852,1.852,0,0,0,.647-1.709c-.018-.4-.357-.44-.677-.48a30.416,30.416,0,0,0-3.979-.158,5.7,5.7,0,0,1-3.088-.539,47.866,47.866,0,0,1,14.675-.519c.66,1.4,1.323,2.792,1.98,4.19C740.664,284.95,740.826,285.35,741,285.745Z" transform="translate(-1.168 -10.249)" fill="#fed0a2"/>
    <path id="Trazado_19046" data-name="Trazado 19046" d="M718.758,224.78c.269-2.439.353-4.929,1.543-7.156a13.32,13.32,0,0,1,2.445-3.492,18.754,18.754,0,0,1,3.738-3.044,27.892,27.892,0,0,1,2.526-1.269,3.222,3.222,0,0,1,1.929-.363c.151.031.352-.2.462.067a.474.474,0,0,1-.172.551,12.674,12.674,0,0,1-2.318,1.749,9.046,9.046,0,0,0-2.859,2.031,2.383,2.383,0,0,0-.353.5c-.325.741-.007,1.239.784,1.148a12.406,12.406,0,0,0,3.142-.992c1.414-.566,2.744-1.336,4.127-1.983a39.135,39.135,0,0,0,4.519-2.87,3.26,3.26,0,0,1,.323-.209c.344-.167.73-.7,1.052-.29.258.326,0,.87-.271,1.259a8.171,8.171,0,0,1-2.36,1.925c-1.484,1.007-3.1,1.782-4.619,2.734a2.466,2.466,0,0,1-.478.244c-.222.081-.613.033-.446.429.139.332.48.26.737.118.807-.445,1.589-.931,2.4-1.367a39.588,39.588,0,0,0,4.034-2.514,5.955,5.955,0,0,0,1.279-1.327c.322-.425.77-.632,1.174-.242.378.365.121.862-.181,1.159a32.281,32.281,0,0,1-6.6,5.086c-.49.28-1.016.482-1.483.792-.159.105-.384.251-.235.5s.331.09.524,0a30.321,30.321,0,0,0,7.889-5.617c.217-.2.466-.377.782-.629a4.273,4.273,0,0,1-1.429,2.644,23.21,23.21,0,0,1-3.01,2.377c-1.049.824-2.21,1.481-3.322,2.211-.2.131-.534.279-.359.579.217.376.469.082.7-.062a56.014,56.014,0,0,0,5.041-3.513,1.159,1.159,0,0,1,.27-.093,6.877,6.877,0,0,1-2.045,2.2c-1.346,1.267-3.018,2.1-4.439,3.275a4.605,4.605,0,0,1-1.4.58c-1.555.586-3.025,1.338-4.52,2.044a14.97,14.97,0,0,1-2.185,1.108c-.559.161-.389.687-.363,1.108C722.71,225.849,720.749,225.249,718.758,224.78Z" transform="translate(-1.163 -5.233)" fill="#fed0a2"/>
    <path id="Trazado_19047" data-name="Trazado 19047" d="M733.366,212.309a30.859,30.859,0,0,1-5.653,2.521,1.431,1.431,0,0,1-.445.1c-.167.007-.381.077-.48-.131s.08-.322.182-.467a6.5,6.5,0,0,1,2.263-1.666,9.41,9.41,0,0,0,2.024-1.356,3.239,3.239,0,0,1,1.327-.675,4.113,4.113,0,0,1,3.816-.888.642.642,0,0,1,.517.4,2.6,2.6,0,0,1-1.378.938,1.279,1.279,0,0,1-.575.2A1.632,1.632,0,0,0,733.366,212.309Z" transform="translate(-1.728 -5.276)" fill="#fcd0a2"/>
    <path id="Trazado_19048" data-name="Trazado 19048" d="M737.341,210.058a3.692,3.692,0,0,0-3.347.09c-.322.147-.657.265-.986.4-.086-.059-.4.01-.2-.215a1.516,1.516,0,0,0,.261-1.039c.329-.634.994-.7,1.564-.836a4.316,4.316,0,0,1,3.82.718C738.372,209.833,737.693,209.74,737.341,210.058Z" transform="translate(-2.15 -5.184)" fill="#060404"/>
    <path id="Trazado_19049" data-name="Trazado 19049" d="M738.425,209.145c-.611-.073-1.125-.424-1.733-.558a5.28,5.28,0,0,0-3.652.676c-.031-.435-.519-.45-.693-.753,2.059-.954,4.2-.549,6.325-.374a2.074,2.074,0,0,1,.828.388A1.174,1.174,0,0,1,738.425,209.145Z" transform="translate(-2.122 -5.155)" fill="#f9f9f8"/>
    <path id="Trazado_19050" data-name="Trazado 19050" d="M733.867,212.421c-.135-.994.577-1.072,1.266-1.16.3-.039.605-.042.908-.06A4.343,4.343,0,0,1,733.867,212.421Z" transform="translate(-2.229 -5.388)" fill="#ebad7c"/>
    <path id="Trazado_19051" data-name="Trazado 19051" d="M720.23,189.708a3.377,3.377,0,0,0-.073,3.535,4.287,4.287,0,0,1-1.809.507,2.124,2.124,0,0,1-1.666-3.437,2.524,2.524,0,0,1,3.189-.728A2.412,2.412,0,0,0,720.23,189.708Z" transform="translate(-0.983 -3.842)" fill="#d4a9bd"/>
  </g>
</svg>
