<svg id="Capa_1" data-name="Capa 1" xmlns="http://www.w3.org/2000/svg" viewBox="0 0 26.88 26.16"><defs><style>.cls-1{fill:#ffcc64;}.cls-2{fill:#fbc8ba;}.cls-3{fill:#acd03d;}.cls-4{fill:#0070a2;}.cls-5{fill:#f05050;}.cls-6{fill:#231f20;}</style></defs><title>1-24meses</title><path class="cls-1" d="M1,20.06a26.74,26.74,0,0,0,13.38,3.29c8.21,0,11-3.29,11-3.29Z"/><path class="cls-2" d="M10.08,19.9H2.82a3.57,3.57,0,0,1,.81-2.28c.87-1,2.36-3.3,3.09-3.59s2.59-.71,2.57-1-.78-.44-.78-.44-1.57-.84-1.65-1.44-.69-.44-.72-.5-1.39-1.73-.6-1.83,1.09.06,1.19-.48,1.53-3.93,3-4.19A24,24,0,0,1,17,5.07c.37.35.57,1.66.62,1.73s.15,1.29.59,1.41.6.17.6.52-.51.83-.51.83a5.39,5.39,0,0,0-.77.76,3.24,3.24,0,0,1-2.09,2.25c-1.75.65-1,.5-1,.5s-.07.42,1.38.65a7,7,0,0,1,4,3c1.07,1.48,1.46,2.4,1.17,3.13a2.2,2.2,0,0,1-1.75,1.6c-1,.14-3.09-1.24-3.09-1.24l-.21-.4Z"/><polygon class="cls-3" points="10.03 22.57 10.26 21.13 11.7 21.5 11.94 23.16 10.03 22.57"/><polygon class="cls-3" points="11.78 20.24 11.94 21.59 14.2 21.44 14.25 19.86 11.78 20.24"/><polygon class="cls-3" points="12.16 18.82 12.16 17.48 14.33 17.39 14.25 18.54 12.16 18.82"/><polygon class="cls-3" points="12.06 16.36 10.5 16.23 10.5 17.39 12.16 17.48 12.06 16.36"/><polygon class="cls-3" points="12.37 15.28 12.37 16.23 14.25 16.23 14.33 15.28 12.37 15.28"/><polygon class="cls-4" points="10.64 15.28 10.64 16.18 12.16 16.35 12.46 15.34 10.64 15.28"/><polygon class="cls-4" points="12.16 18.89 12.07 20.17 14.25 19.94 14.33 18.59 12.16 18.89"/><polygon class="cls-4" points="11.78 21.59 11.78 23.11 14.33 22.65 14.2 21.44 11.78 21.59"/><polygon class="cls-5" points="12.26 16.35 12.37 17.48 14.33 17.39 14.33 16.35 12.26 16.35"/><polygon class="cls-5" points="10.21 13.67 10.33 15.18 12.37 15.28 12.46 13.98 10.21 13.67"/><polygon class="cls-5" points="10.5 19.86 10.5 21.13 11.94 21.59 12.07 20.35 10.5 19.86"/><polygon class="cls-5" points="10.64 17.48 10.5 19.86 12.16 20.26 12.16 17.48 10.64 17.48"/><path class="cls-3" d="M10,13.58l-.85.56a4.77,4.77,0,0,1-.08.51c-.07.36-.31.43-.1.63a2,2,0,0,1,.24.31l.09.16a2.3,2.3,0,0,1,.89-.38c.3,0,.14-1.84-.19-1.79"/><polygon class="cls-4" points="10.5 15.43 10.62 16.1 10.03 16.35 9.52 16.05 9.39 15.45 10.5 15.43"/><path class="cls-6" d="M8,8.5c1.95-2,3.36,0,3.36,0C10,7.31,8,8.5,8,8.5"/><path class="cls-6" d="M13.18,8.57s1.15-1.86,3.05.08a2.86,2.86,0,0,0-3.05-.08"/><path class="cls-6" d="M9.88,8.83a2,2,0,0,1,1.31.74l-.81-.33c.13.33-.42.62-.88.42s-.37-.5-.37-.5l-.24.2c-.17.15.41.42.41.42l-1-.3a2.09,2.09,0,0,1,1.59-.65"/><path class="cls-6" d="M15,8.8c1.06.32,1.09.69,1.09.69l-1,.28s.56-.27.45-.41a.84.84,0,0,0-.27-.2.43.43,0,0,1-.37.52c-.47.08-1.11,0-.92-.38,0,0-.27-.23-.72.09A1.7,1.7,0,0,1,15,8.8"/><path class="cls-6" d="M11.65,10.47s.71-.11.43.09-.67,0-.43-.09"/><path class="cls-6" d="M12.36,10.6c-.17-.16.39,0,.39,0,0,.27-.22.15-.39,0"/><path class="cls-6" d="M7.69,7.55a.75.75,0,0,1,.09-.18c-.09.24-.15.38-.09.18"/><path class="cls-6" d="M17,9.07h0"/><path class="cls-6" d="M12.33,12.64c-.24.19-1,.19-.91-.22,0,0,1.16,0,.91.22"/><path class="cls-6" d="M10.52,22.51h0v0a.06.06,0,0,1,0,0l0,0h0s0,0,0,0m.2-.08h0l-.15-.08v-.1l0-.15,0-.31,0-.32,1,.33c0,.13,0,.26.05.39a5.43,5.43,0,0,0,.09.56,5.43,5.43,0,0,0,.09-.56c0-.12,0-.25,0-.37.77-.05,1.54-.1,2.3-.17,0,.16-.06.33-.08.49l-.06.47c-.8.08-1.6.19-2.39.29l-.63-.3Zm3.53-2.29h0c-.05.23-.07.46-.11.69s0,.37-.06.55l-2.21,0L10.71,21q0-.45,0-.9l1.08.26c0,.11,0,.22,0,.33s.06.39.1.58a5.4,5.4,0,0,0,.09-.58,2.51,2.51,0,0,0,0-.27.22.22,0,0,0,.08,0l1.07-.28,1.07-.31c-.38,0-.76.1-1.13.15l-1,.16h0v0A.13.13,0,0,0,12,20h0l-1.25-.3c0-.34,0-.68,0-1L12,19a2.26,2.26,0,0,1,0,.25c0,.44.09.74.09.74s.08-.29.16-.73l0-.21h.12c.56-.09,1.11-.19,1.67-.3q.06.57.15,1.14Zm1.41-4.71h0s0,0,0,0Zm.56.52h0a.61.61,0,0,0,.05.18,1.14,1.14,0,0,0,.15.23h0a.34.34,0,0,0-.12.06,1.09,1.09,0,0,0-.08-.15l-.11-.17L16,15.94a3.13,3.13,0,0,1-.19-.36.33.33,0,0,1,0-.15h0l.22,0,.48.1a.37.37,0,0,0-.22.17A.3.3,0,0,0,16.22,16Zm-.09,3h0l0-.1L16,18.73a.63.63,0,0,1-.18-.15.45.45,0,0,1-.11-.17.22.22,0,0,1,0-.16l0,0,0-.06.08-.09a2.1,2.1,0,0,1,.48-.32.74.74,0,0,0,.33-.26.42.42,0,0,0,0-.1v-.07a.72.72,0,0,0,0-.17c0-.19-.14-.36-.18-.5v-.05a1.44,1.44,0,0,1,.25.08.55.55,0,0,1,.32.38,1.07,1.07,0,0,1,0,.5h.06A1,1,0,0,0,17.3,17,.61.61,0,0,0,17,16.5a1.45,1.45,0,0,0-.4-.14h0a1.14,1.14,0,0,1,0-.26.74.74,0,0,1,0-.14.16.16,0,0,1,.06-.09s0,0,0,0l.08,0,.07,0h0s0,0,0,0l0,0L17,16l.05,0s.06.07.1.09l.1.11a.78.78,0,0,1,.16.24,2.23,2.23,0,0,1,.18.57v0a1.85,1.85,0,0,1,.2.6.76.76,0,0,1,0,.3.7.7,0,0,1-.15.25l-.11.1.25.09.5.15.48.15.44.19a4.81,4.81,0,0,1,.41.27h.06a.69.69,0,0,0-.2-.42,1.67,1.67,0,0,0-.44-.32,2.74,2.74,0,0,0-1-.27V18c0-.11,0-.21,0-.32s0-.42,0-.63v0a1.09,1.09,0,0,0,0-.69,1,1,0,0,0-.17-.35c0-.06-.1-.11-.15-.17a.78.78,0,0,0-.2-.14l-.13-.07-.1,0-.05,0-.05,0h0l-.14,0a1.09,1.09,0,0,0-.37,0l-.09,0a1.48,1.48,0,0,0-.57-.42.8.8,0,0,0-.45-.05.46.46,0,0,0-.28.17.43.43,0,0,0-.06.18.62.62,0,0,0,0,.27,1.34,1.34,0,0,0,.32.42l.2.17.09.06-.15.06-.2.1h.05s0,0,0,0,0,0,0,0h-.31a.19.19,0,0,0,0,.18s.06.1.17.15a.58.58,0,0,0,.24,0,.69.69,0,0,0,.23-.07.32.32,0,0,0,.17-.19.21.21,0,0,0,0-.16l0,0,.22.12a.34.34,0,0,0,0,.1c0,.2.09.36.11.52v.09s0,.05,0,.06l0,0s-.08.07-.18.12a2.39,2.39,0,0,0-.62.39l-.12.13,0,0a.21.21,0,0,0-.11,0,.19.19,0,0,0-.16.09.26.26,0,0,0-.07.12.25.25,0,0,0,.07.11.19.19,0,0,0,.15.09.34.34,0,0,0,0,.1.7.7,0,0,0,.18.31,1.08,1.08,0,0,0,.2.16,1.16,1.16,0,0,0,.13.77H14.27c.07-.38.12-.76.16-1.15,0-.06-.06-.11-.15-.12h0a5.92,5.92,0,0,0,.22-1.08c0-.07-.07-.14-.19-.15a6.65,6.65,0,0,0,.19-1c0-.07-.06-.13-.16-.15a6.21,6.21,0,0,0,.16-.86c0-.07-.07-.14-.19-.15h-.06c-.57,0-1.13,0-1.7.07a1.76,1.76,0,0,0,.15-.44,1.58,1.58,0,0,0,0-.65l0-.17-.19,0-.55-.07-.58,0a2.05,2.05,0,0,1-.55-.1,5.21,5.21,0,0,1-.5-.2h0l-.15,0a2.62,2.62,0,0,0-.64.27,2.32,2.32,0,0,0-.48.34H8.92a1.17,1.17,0,0,0-.53.05.8.8,0,0,0-.23.1.26.26,0,0,0,0-.11A.27.27,0,0,0,8,14l.15-.05a2.55,2.55,0,0,0,1.15-.68.37.37,0,0,0,.06-.1l.35,0a1.66,1.66,0,0,0,.33.16l.43.14a4.66,4.66,0,0,0,.91.14,6.3,6.3,0,0,0,1.8-.15,8.71,8.71,0,0,0,1.19-.38.8.8,0,0,0,.16.3l.18.15.11.06.15,0h0l1.2.3a8.16,8.16,0,0,1,1.09.37,2.9,2.9,0,0,1,.38.3L18,15c.24.24.47.48.69.73a17.27,17.27,0,0,1,1.22,1.52,5,5,0,0,1,.8,1.61,1.9,1.9,0,0,1,.05.82.19.19,0,0,0,0,.07h0v.07a4,4,0,0,1-.31.67,2.65,2.65,0,0,1-.62.73,1.36,1.36,0,0,1-1.06.25,3.6,3.6,0,0,1-1.1-.39,3.84,3.84,0,0,1-.87-.61A1.57,1.57,0,0,1,16.13,18.91Zm0-6.73h0a8.91,8.91,0,0,1-3,1.15,5.65,5.65,0,0,1-1.69.06,4.12,4.12,0,0,1-.79-.18l-.35-.13a2,2,0,0,1-.3-.17l-.05,0H9.84A3.28,3.28,0,0,1,8.13,12a4.47,4.47,0,0,1-.6-.64,3.64,3.64,0,0,1-.24-.35c-.07-.12-.15-.24-.2-.35l-.32-.16-.15,0-.19-.08a1,1,0,0,1-.32-.23,1.73,1.73,0,0,1-.25-.3l-.1-.17c0-.07-.06-.12-.08-.18a.49.49,0,0,1,0-.3c0-.07.06-.1.17-.14a2.31,2.31,0,0,1,.94,0l.35.06,0-.23,0-.31a.51.51,0,0,0,.09-.16c.13-.46.88-2.09.88-2.09l-.34,1A13.57,13.57,0,0,1,9.41,5.58l-.16.81L10,5.71l-.24.67L11.23,5l-.61,1.15.73-.3-.18.63,1.37-1.32-.3.93L13,5.38l.18.68.48-1.12L14,6.05l.35-.9.3,1.1.27-1,.88,1.23L16.06,6l.43.72-.06-.6L17,7.82l.17-.91a1,1,0,0,1,.15.66A6.26,6.26,0,0,1,17,9.07s.78-.51,1.16-.74a.69.69,0,0,1,.31.12.62.62,0,0,1,.2.23.74.74,0,0,1,0,.14v.09s0,0,0,.06a1.32,1.32,0,0,1-.39.59,4,4,0,0,1-.67.52l0,0v0a5.2,5.2,0,0,1-.5,1.11A3,3,0,0,1,16.13,12.18Zm-8.38,2h0S7.75,14.19,7.75,14.2Zm-.87,5.52H3.41c.07-.11.13-.23.21-.34A4.12,4.12,0,0,1,3.94,19a5,5,0,0,1,.75-.77,7.92,7.92,0,0,1,.91-.67l.52-.28c.17-.09.36-.18.53-.25l.19-.07,0-.15a.53.53,0,0,1,0-.24,1.33,1.33,0,0,1,.1-.28,3.4,3.4,0,0,1,.29-.57l0-.07,0-.08a.89.89,0,0,1-.06-.21s0-.09,0-.13v0a.21.21,0,0,0,.07,0s0,0,.13,0a.36.36,0,0,0,.23-.05.31.31,0,0,0,.08-.07.09.09,0,0,0,0,0,.07.07,0,0,0,0-.05v0a1.11,1.11,0,0,0-.12-.27l-.06-.13a.31.31,0,0,1,0-.18.76.76,0,0,1,.15-.17l.07-.06v0a.85.85,0,0,1,0,.23s0,.07,0,.11l0,0a1.06,1.06,0,0,0-.06.19.23.23,0,0,0,.14.23L8,15.2l0-.16a2.77,2.77,0,0,0,.1-.5s0,0,0-.06,0,0,0,0a.84.84,0,0,1,.71-.25c.14,0,.28.09.25.12v0l0,0L9,14.43a.91.91,0,0,0-.13.16,1.36,1.36,0,0,0-.16.7v.05l.09,0a.7.7,0,0,1,.25.21.92.92,0,0,1,.14.28,1.61,1.61,0,0,1,0,.62c0,.11,0,.21-.05.32l-.09.32a2.59,2.59,0,0,1-.27.62,5.75,5.75,0,0,1-.93,1.14A10.38,10.38,0,0,1,6.88,19.72Zm3.23-1.27h0c0,.42,0,.85,0,1.27h-3l.34-.19a6.29,6.29,0,0,0,.71-.48c.22-.18.44-.36.63-.55a4,4,0,0,0,.5-.61,3.27,3.27,0,0,0,.33-.68c0-.12.06-.22.09-.34a2.2,2.2,0,0,0,0-.36s0,0,0,0l.62.12c0,.2.08.4.14.6a.2.2,0,0,0-.2.14h0a6.78,6.78,0,0,0,.16.88.33.33,0,0,0-.36.13A.19.19,0,0,0,10.11,18.45Zm1.9.12h0c-.46-.11-.93-.2-1.4-.3a6.35,6.35,0,0,0,.14-.71l1.28.13C12,18,12,18.29,12,18.57Zm2-3.14h0c0,.22.08.44.14.67-.58,0-1.16,0-1.73.08,0-.06,0-.12,0-.17s0-.3,0-.42C13,15.55,13.51,15.49,14.05,15.43Zm-3.46,1.79h0a4.26,4.26,0,0,0,.16-.79l1.37.15c0,.22,0,.46-.07.7C11.57,17.25,11.08,17.23,10.59,17.22Zm1.7-1.63h0l-.08.41,0,.17c-.52,0-1-.06-1.56-.07a5.64,5.64,0,0,0,.13-.67Zm1.92,1.63h0c-.58,0-1.16,0-1.74.08,0-.25,0-.48,0-.71.53,0,1.06-.09,1.58-.16A6.91,6.91,0,0,0,14.21,17.22ZM9.5,15.59h0a6.22,6.22,0,0,0,.87,0,5.23,5.23,0,0,0,.12.54.22.22,0,0,0-.15.08l-.64-.13a1.29,1.29,0,0,0-.08-.26A1.06,1.06,0,0,0,9.5,15.59Zm-.17-1.24h0c0-.1-.07-.17-.15-.2h0A3.09,3.09,0,0,0,9.73,14a4.09,4.09,0,0,0,.42-.16,2.43,2.43,0,0,0-.1.64,3.24,3.24,0,0,0,0,.44l.06.31a5.17,5.17,0,0,0-.69.26l0-.07A1.35,1.35,0,0,0,9,15.21a1,1,0,0,1,.05-.56.38.38,0,0,1,.09-.13l.07-.07,0,0Zm2.94.82h0c-.53,0-1.06-.07-1.59-.08v-.17c0-.15,0-.29-.07-.44a2.88,2.88,0,0,0-.27-.7l.41,0a3,3,0,0,1,.54.13l.5.19.3.09a2.19,2.19,0,0,0,0,.51A2.64,2.64,0,0,0,12.27,15.17Zm.09,3.47h0c0-.29.07-.6.09-.92l1.6-.16a7.06,7.06,0,0,0,.19.89h0c-.61.05-1.22.12-1.82.19ZM7.25,14.22h0a.71.71,0,0,0-.12.13.69.69,0,0,0-.21,0,.33.33,0,0,0-.18.09.31.31,0,0,0-.1.12.86.86,0,0,0,0,.15l0,.14a2.45,2.45,0,0,0,0,.27,1.23,1.23,0,0,0,0,.27,1.55,1.55,0,0,0,0,.21,4,4,0,0,0-.29.54,1.93,1.93,0,0,0-.11.34,1.64,1.64,0,0,0,0,.23l-.43.22-.52.34a6.7,6.7,0,0,0-.89.76,5.12,5.12,0,0,0-.65.86,3.29,3.29,0,0,0-.23.46,2.84,2.84,0,0,0-.13.38H2.88a1.15,1.15,0,0,1,.1-.27,3.42,3.42,0,0,1,.19-.4,4.31,4.31,0,0,1,.31-.5c.23-.36.55-.77.88-1.22a6.89,6.89,0,0,0,.91-1.51l.11-.39a1.25,1.25,0,0,1,.21-.37,2,2,0,0,1,.77-.53C6.65,14.4,7,14.32,7.25,14.22Zm-6,5.92h9q0,.51,0,1a.09.09,0,0,0,0,.07l-.09.53-.05.3,0,.15v.07s0,.06,0,0,0,0,0,0h0l0,0,0,0a.36.36,0,0,0,0,.1c0,.07.09.14.07.13l0,0,.11.07.19.1.37.18.75.34h0a.42.42,0,0,0,.22,0c.86-.15,1.73-.3,2.58-.49h0c.07,0,.12-.06.11-.11s-.05-.38-.07-.57,0-.33-.09-.49h0c.1,0,.16-.06.16-.13,0-.23,0-.46-.09-.68s-.06-.46-.11-.69H16a2.82,2.82,0,0,0,.47.44,5.16,5.16,0,0,0,1,.59,4.89,4.89,0,0,0,1.19.39,1.63,1.63,0,0,0,1.26-.26,3,3,0,0,0,.76-.75c.1-.13.19-.27.28-.41h5.26v-.42h-5a2,2,0,0,0,0-.94A5.11,5.11,0,0,0,20.45,17a9.75,9.75,0,0,0-1.26-1.57c-.24-.25-.49-.49-.76-.73L18,14.39a3.3,3.3,0,0,0-.5-.34,5.86,5.86,0,0,0-1.26-.33c-.41-.08-.83-.16-1.26-.21h0l-.09,0-.09,0a.62.62,0,0,1-.17-.11,1,1,0,0,1-.22-.27,12,12,0,0,0,1.76-.86,3.47,3.47,0,0,0,1-1,6.47,6.47,0,0,0,.61-1.08,5,5,0,0,0,.74-.49A1.7,1.7,0,0,0,19.05,9s0-.06,0-.11V8.83a.49.49,0,0,0,0-.21.74.74,0,0,0-.28-.39A1.23,1.23,0,0,0,18.41,8a3.14,3.14,0,0,0,0-2.45C17.78,4.46,14.1,3,12.71,3A9.83,9.83,0,0,0,7,4.59,3.1,3.1,0,0,0,5.88,8.37a.87.87,0,0,0,0,.31l-.36.06a1,1,0,0,0-.35.17A.59.59,0,0,0,5,9.18a.73.73,0,0,0,0,.49,1.33,1.33,0,0,0,.09.21,1.36,1.36,0,0,0,.11.2,1.93,1.93,0,0,0,.79.73,1.33,1.33,0,0,0,.32.12l.16,0,.16.26A3.18,3.18,0,0,0,7,11.6a4.07,4.07,0,0,0,.68.7,3.91,3.91,0,0,0,1.49.79l-.07.05a4.28,4.28,0,0,1-1.16.46,7.37,7.37,0,0,0-.88.28,4.92,4.92,0,0,0-.87.48,3.49,3.49,0,0,0-.73.64,3.7,3.7,0,0,0-.48.76c-.16.23-.38.46-.57.69l-.58.67a5.4,5.4,0,0,0-.49.67,3.94,3.94,0,0,0-.34.63,2,2,0,0,0-.18.56,1.51,1.51,0,0,0,0,.45,1.85,1.85,0,0,0,0,.29H1.2Z"/><path class="cls-6" d="M11.92,12.16A2.4,2.4,0,0,1,11,12a.83.83,0,0,1-.24-.15l-.07-.07h1.22c.29,0,.59,0,.82.06a3.48,3.48,0,0,1,.42.06,1.22,1.22,0,0,1-.36.17,2.65,2.65,0,0,1-.9.12"/><path class="cls-6" d="M18.15,10a9.62,9.62,0,0,1-1.77,3.53c-1.39,1.79-1,3.06-1,3.06a1.08,1.08,0,0,1-.72-.19,1,1,0,0,1-.45-.6s.44-1,.08-1.28,0-1.37,0-1.37A6.69,6.69,0,0,0,17,11.42c.84-1.07.8-1.24.8-1.24s0-.21.38-.23"/><path class="cls-6" d="M6.14,10.65a30.43,30.43,0,0,1,1.11,3.57c-.12.13.43-.16.53-.14A12,12,0,0,0,8,12.28s-1-1.63-1.85-1.63"/></svg>