<svg id="Capa_1" data-name="Capa 1" xmlns="http://www.w3.org/2000/svg" viewBox="0 0 28.94 28.15"><defs><style>.cls-1{fill:#0070a2;}.cls-2{fill:#ffcd54;}.cls-3{fill:#6acbde;}.cls-4{fill:#f5a4c7;}.cls-5{fill:#fbcabb;}.cls-6{fill:#231f20;}</style></defs><title>3-15meses</title><path class="cls-1" d="M10,19.91a1,1,0,0,0,.59,1.37,4.24,4.24,0,0,1,1.87,1.21c.4.55,0,1.61,0,1.61a18.8,18.8,0,0,1-3.58.56,5.08,5.08,0,0,1-2.4-.27,23.54,23.54,0,0,1-2.86-1.05C3,23,3,22.81,3,22.81s-.14-1.58-.72-1.61-.59.65-.59.65-.6-.6-.39-.89.28-1.54.77-1.63,4.3-.43,4.3-.43Z"/><path class="cls-2" d="M2.23,21.37c-.36.07-.53,1.74-.14,2a.75.75,0,0,0,.87.1c.33-.15.31-.3.27-.33s-.2-1.08-.42-1.29a5.48,5.48,0,0,0-.58-.47"/><path class="cls-2" d="M5.16,24.12c.08.67,0,1.06.47,1.08A4,4,0,0,0,7,25c.32-.12.52-.27.44-.32s-.79,0-.92-.29-.85-1.34-1-1.51-.25-.17-.36,0a4,4,0,0,0,0,1.24"/><polygon class="cls-3" points="6.13 22.24 5.54 20.85 9.59 20.26 10.12 21.29 8.37 21.37 6.13 22.24"/><polygon class="cls-3" points="5.16 22.1 3.54 21.57 3.68 20.62 4.96 20.9 5.16 22.1"/><path class="cls-4" d="M17.38,16.88s-1.31.52-1.47,1.32,1.3,1.5,1.3,1.5L19.68,21A3.68,3.68,0,0,0,22,19.78c1.39-1.3,2.13-1.47,1.9-2a4,4,0,0,1-.26-1.29Z"/><path class="cls-5" d="M16.29,16.71s-2.58-.79-2.14-1.78a14.67,14.67,0,0,1,1.75-2.55,5.66,5.66,0,0,1,.53-.39l1.19-.51a14.6,14.6,0,0,1-2.39-1.17c-.48-.42-.57-1.89-.55-1.92s3.46-1.78,5.42-1.8,2.25.28,2.26.32a.46.46,0,0,1,0,.5,1.93,1.93,0,0,0-.09,2.1c.54,1.15-.1,1.34-.45,1.62a1.85,1.85,0,0,1-.58.35l1.7,1.17a3.44,3.44,0,0,0,1.29-.85,1.09,1.09,0,0,0,.13-1c-.08-.18.26-.39.43-.49a1.53,1.53,0,0,0,.28-.21s-.35-.28.07-.56a1.3,1.3,0,0,1,1.05,0,1.67,1.67,0,0,1,.5.06l.44.44.29.29.15.43s.11.29.07.29-1,.47-1,.47a1.84,1.84,0,0,0-.83.82c-.28.57-.55,1.47-1.1,1.84a5.27,5.27,0,0,1-1.18.56s.4,1.86-.06,2.36-.89,1.15-3,1.3a6.11,6.11,0,0,1-3.61-.6c-.37-.25-.55-.51-.43-.73a1.44,1.44,0,0,0,.13-.27Z"/><path class="cls-5" d="M16.27,18.67s-.45.16-.35.92,1.43,3.24,1.33,3.66a3.21,3.21,0,0,1-.32.87c-.14.22.22,1.86.08,2.26s-.56,1.36-.32,1.31a1.48,1.48,0,0,1,.76.14c.18.09.41.11.44,0s.24-.09.24-.09,0,.46.21.34a.61.61,0,0,0,.27-.37s0,.43.4.33a.65.65,0,0,0,.45-.79A30.35,30.35,0,0,1,19.92,24a13.14,13.14,0,0,0-.11-3.29c-.13-.25-1.27-2.53-3.54-2"/><path class="cls-5" d="M20.6,20.76a1,1,0,0,0,.4.73,3.28,3.28,0,0,1,.61.58,2.5,2.5,0,0,0-.36.84c0,.23.44,1.11.15,1.52s-.87.81-.53,1.15,1.59,1.5,2.11,1.53a2.22,2.22,0,0,0,1.28-.41c.31-.21.54-.61.34-.76s-1.06-.82-1-1.26a7.35,7.35,0,0,1,1.12-2.52c.55-.77,0-2.25-.18-2.71a5.9,5.9,0,0,0-.83-1.17Z"/><path class="cls-6" d="M27.06,10.41h0l-.15,0a.3.3,0,0,0-.12-.16l-.13-.08h.22l.16,0s0,0,0,0l0,0h0l.06,0,.1.09h-.21m-.49.71h0s0,0,0,0h0Zm-.26-.7h0S26.33,10.41,26.31,10.42ZM26,9.93h0s0,0,0,0l0,0h0a1.09,1.09,0,0,0,.26,0l.23,0h.08l.21,0,.13,0a.51.51,0,0,0-.21.13.25.25,0,0,0-.08.18l0,0-.4-.14L26,10Zm-.61-.12h0a1.3,1.3,0,0,0-.23.1v0a1.11,1.11,0,0,1,.37-.29l.09,0h.15l.21,0a.71.71,0,0,0-.18.15.28.28,0,0,0-.07.11A1,1,0,0,0,25.35,9.81Zm.15.37Zm-1.8,7.44h0a2.07,2.07,0,0,1,0,.35l0,.15-.26,0a1.68,1.68,0,0,0-.4.15,3.07,3.07,0,0,0-.56.39,6.08,6.08,0,0,0-.44.44l-.36.44a4.88,4.88,0,0,1-.77.81,2.56,2.56,0,0,1-.46.33l-.27.13-.14,0a.78.78,0,0,0-.05-.14c0-.08-.08-.17-.12-.25s-.19-.32-.3-.48l-.35-.46L19,19.34a.76.76,0,0,1-.08-.11,6.39,6.39,0,0,0,.34-.7l0,0h.53l.67,0c.22,0,.44,0,.66-.08a5.83,5.83,0,0,0,1.31-.32,2.88,2.88,0,0,0,1.06-.65l.17-.19A2.71,2.71,0,0,1,23.7,17.62Zm-3.9,4.71h0c0,.43-.09.86-.15,1.28,0,.22-.06.43-.1.64a4.71,4.71,0,0,1-.16.62c-.13.43-.24.85-.34,1.28h0v0a3.94,3.94,0,0,0,.21,1.16,1.12,1.12,0,0,1-.05.31.59.59,0,0,1-.16.28s0,0-.07,0h0a.17.17,0,0,1-.09-.07.7.7,0,0,1-.09-.32h0s0-.06-.08-.07a.11.11,0,0,0-.13.06,1.17,1.17,0,0,1-.09.24l-.08.1-.05,0h-.08l0,0a.3.3,0,0,1,0-.1.75.75,0,0,1,.08-.24h0s0-.07-.07-.08a.11.11,0,0,0-.13,0v0a.39.39,0,0,1-.14.18l-.12.06-.15,0h0s0,0,0-.06h0l.11-.1.05,0a.46.46,0,0,0,0-.09s0-.08-.07-.1a.19.19,0,0,0-.19,0l-.06.08h0l-.08.07h0a.77.77,0,0,1,.07-.16c0-.07,0-.13-.1-.16a.22.22,0,0,0-.26.06h0a.37.37,0,0,1-.22.14.35.35,0,0,1-.14,0h0v0a.52.52,0,0,1,.07-.12l.19-.29a1.41,1.41,0,0,0,.24-1.37l-.07-.16-.06-.13a2.86,2.86,0,0,1-.07-.28,2.35,2.35,0,0,1,0-.59,3.23,3.23,0,0,1,.16-.59,2.27,2.27,0,0,1,.27-.54l0,0,.05-.08a.26.26,0,0,0,0-.13.46.46,0,0,0,0-.21,2.23,2.23,0,0,0-.12-.34c-.1-.21-.22-.41-.34-.61l-.12-.21a8,8,0,0,0,.67-.79l.65-.87.4-.7.19.2a3,3,0,0,1,.36.44,2.37,2.37,0,0,1,.25.47,1.09,1.09,0,0,1,.07.24,1.05,1.05,0,0,1,0,.24c0,.05.06.1.14.11A6.65,6.65,0,0,1,19.8,22.33Zm-3,5.18Zm-.67-7.86h0a2.07,2.07,0,0,1,0-.61c0-.05,0-.09,0-.13l.29-.09.32-.05a2.66,2.66,0,0,1,.63,0,2,2,0,0,1,.59.16,2.44,2.44,0,0,1,.28.14l0,0,0,.06c-.17.25-.33.53-.51.82l-.57.86a5.12,5.12,0,0,1-.4.55,5.36,5.36,0,0,1-.28-.53,5.42,5.42,0,0,1-.26-.6A3.08,3.08,0,0,1,16.12,19.65Zm0-1.59h0a1.13,1.13,0,0,1,.26-.51,1,1,0,0,0,.26.27,3,3,0,0,0,.82.39c.16.05.34.09.52.13l.56.1h.18c-.07.13-.16.26-.24.39a1.59,1.59,0,0,0-.21-.15,2.11,2.11,0,0,0-.74-.28,2.7,2.7,0,0,0-.85,0l-.27.05h-.07l-.07,0-.09,0A.68.68,0,0,1,16.13,18.06Zm.33-1.15h0s0,0,0,0h0Zm1.67.41h0l.25,0h.21a3.29,3.29,0,0,0,.45,0,2.3,2.3,0,0,0,.26,0,.27.27,0,0,0,0,.14s0,0,0,0c-.13.18-.27.4-.43.66l-.27-.05c-.36-.06-.69-.12-1-.2a3.33,3.33,0,0,1-.74-.26,1,1,0,0,1-.38-.31.44.44,0,0,1,0-.36A7.3,7.3,0,0,0,18.13,17.32Zm-7.45,7.13h0a6.41,6.41,0,0,1-.78.09c-.54,0-1.09,0-1.64,0s-1-.09-1.54-.16a8.22,8.22,0,0,0-1-1.43.8.8,0,0,0-.22-.17.35.35,0,0,0-.21-.06.31.31,0,0,0-.19.08.54.54,0,0,0-.2.43,2.29,2.29,0,0,0,0,.64l-1.67-1A2.24,2.24,0,0,0,3,21.63a2.09,2.09,0,0,0-.14-.17l-.09-.08a1.19,1.19,0,0,0-.15-.09.28.28,0,0,0-.12-.05l-.05,0H2.28a1.14,1.14,0,0,0-.37,0,.44.44,0,0,0-.16.06,3.49,3.49,0,0,1,0-.56,10.68,10.68,0,0,1,.16-1.25,28.83,28.83,0,0,0,3,1.21.47.47,0,0,0,.17,0h0c.87-.08,1.72-.25,2.57-.38A23.18,23.18,0,0,1,10,20.08a1,1,0,0,0,.26,1,2.36,2.36,0,0,0,.57.45,2.68,2.68,0,0,0,.33.18l.31.17a2.8,2.8,0,0,1,.49.39l.11.12a.77.77,0,0,0-.37.11.49.49,0,0,0-.22.27h0l-.18,0L10,22.9c-.45.06-.91.13-1.26.2l-.42.1A.67.67,0,0,0,8,23.07a.9.9,0,0,0-.42.05.7.7,0,0,0-.33.23.32.32,0,0,0,0,.31.84.84,0,0,0,.18.23,1.21,1.21,0,0,0,.24.2.6.6,0,0,0,.18.09l.08,0H8a.61.61,0,0,0,.35-.11.36.36,0,0,0,.12-.34v-.09a2,2,0,0,0,.5.16,3.24,3.24,0,0,0,.59.08,4,4,0,0,0,.69,0,2.63,2.63,0,0,0,.39-.06l.1.06a3,3,0,0,0,.42.19l.36.11-.17.07A4.33,4.33,0,0,1,10.68,24.45ZM6.87,25h0A7.61,7.61,0,0,1,6,25a.37.37,0,0,1-.21-.09.77.77,0,0,1-.16-.25,2.69,2.69,0,0,1-.17-.55.69.69,0,0,0,.17.27.92.92,0,0,0,.21.15A.59.59,0,0,0,6,24.3.65.65,0,0,0,6.1,24c.09.19.19.38.26.57a.18.18,0,0,0,.13.09h0c.26.06.53.11.79.15A.72.72,0,0,1,6.87,25ZM5.38,23h0l0,0,.1.09a2.7,2.7,0,0,1,.38.57,0,0,0,0,1,0,0,1.13,1.13,0,0,0-.22-.15.89.89,0,0,0-.15.18.63.63,0,0,0-.06.33,5,5,0,0,1-.11-.56A.72.72,0,0,1,5.38,23Zm-.25.1h0a.37.37,0,0,1,.12-.2c.08,0,0,0,.11,0h0a.14.14,0,0,0-.09,0A.46.46,0,0,0,5.13,23.06Zm-1.87.26h0l-.2.05-.25,0a.44.44,0,0,1-.38-.13.86.86,0,0,1-.19-.42.8.8,0,0,1,0-.15.53.53,0,0,0,.15.17.44.44,0,0,0,.11-.35.58.58,0,0,0-.21-.34.44.44,0,0,0-.09.18v0c0-.18,0-.34,0-.48a.57.57,0,0,1,0-.29l.1,0a0,0,0,0,0,0,0l0,.05a1,1,0,0,1,.08.11A2.91,2.91,0,0,1,2.74,23v0a.17.17,0,0,0,.1.11l.45.21Zm.82-4h0c.7,0,1.39-.08,2.09-.15.64.16,1.29.3,1.94.45.45.1.9.18,1.36.27-.62.09-1.25.16-1.88.2-.85.05-1.7.06-2.54.15-1-.32-2-.62-3-.85C2.73,19.42,3.41,19.39,4.08,19.35ZM11,23.78h0a2.32,2.32,0,0,0,.52-.22,1.39,1.39,0,0,0,.27-.18l0,.07a.45.45,0,0,0,.17.11l.07,0h0a.38.38,0,0,0,.15,0,.48.48,0,0,0,.22-.06.65.65,0,0,1,0,.16l0,0h0l-.08.07-.3.16-.35.16a2.51,2.51,0,0,1-.47-.11,2.5,2.5,0,0,1-.42-.16l-.07,0Zm1.62.15h0c-.18-.08-.13-.16-.14-.18h0Zm-.48-1.11h0s0,0,.05,0a.41.41,0,0,1,.19.05,1.25,1.25,0,0,1,.07.26.51.51,0,0,1-.25.1c-.05,0-.07,0-.06,0s0,0,0,0h0l-.07,0a.2.2,0,0,1-.18-.1.16.16,0,0,1,0-.17.83.83,0,0,1,.14-.13.14.14,0,0,1,.09-.05Zm-3.67.84h0s0,0,0,.08-.2.08-.3.07H8s0,0,0,0H7.88l-.09,0a.24.24,0,0,1-.21-.06.11.11,0,0,1,0-.16.35.35,0,0,1,.15-.09.31.31,0,0,1,.13,0H8s.06,0,.1,0a.41.41,0,0,1,.31.06C8.43,23.62,8.42,23.66,8.42,23.66Zm0-.35h0l.35,0a6.12,6.12,0,0,0,1.35,0,6.87,6.87,0,0,0,.71-.14,2.61,2.61,0,0,0,.58-.21l.06,0s0,0,0,0,.1.15.13.22l0,.06-.37.06-1.13.13L9,23.58l-.53.07v-.1A.41.41,0,0,0,8.45,23.31ZM16,10.55h0l-.2-.12a.5.5,0,0,0,.24,0,.24.24,0,0,0,.1-.1.09.09,0,0,0-.06-.12.18.18,0,0,1-.11-.24.53.53,0,0,0,0-.16s-.1-.12-.12-.12l-.08,0-.14-.07-.19-.07h-.16a.15.15,0,0,0-.11.09.1.1,0,0,0,0,.1.16.16,0,0,0,.05.07h0l0-.07s0,0,.05,0,0,0,0,0h0l.09.07a.75.75,0,0,0,.18.08l.09,0s0,0,0,0,0,.08.06.13a1.68,1.68,0,0,1,.15.3s0,0,0,0,0,0,0,0h-.07s0,0,0,0a.1.1,0,0,1,0-.05l0-.07h0a.13.13,0,0,0-.07.06.13.13,0,0,0,0,.1l0,0-.31-.25c-.22-.29-.34-.61-.13-.71s.88.26.88.26a.91.91,0,0,0,.46.51l-.07-.38.51.54a1.68,1.68,0,0,1-.39-1.2,2.21,2.21,0,0,1,.92-1.41l-.29.72,1.49-1.05L18,8.54l1.08-1-.19.81.59-.55-.23.5.93-.88-.29.88,1.08-.46-.36.39,1.14-.91-.45.85,1-.73-.12.26a1.11,1.11,0,0,0-.14.5,1.62,1.62,0,0,0,0,.22,1.06,1.06,0,0,0-1.36.5c-.12.43.18.58.28.83s-.44.33-.44.33a.61.61,0,0,0,.58-.12c.22-.13.1-.19-.19-.51s0-.59.24-.83.75-.16.89-.14a1.92,1.92,0,0,0,0,.24,3.76,3.76,0,0,0,.2,1c0,.08.09.19.1.24s0,.07,0,.1l0,.1a1.5,1.5,0,0,1-.27.42,2.56,2.56,0,0,1-.43.36,2.68,2.68,0,0,1-.53.29,4.22,4.22,0,0,1-1.27.31,4.06,4.06,0,0,1-.7,0,4.11,4.11,0,0,1-.69-.06A5.15,5.15,0,0,1,16,10.55Zm11.73,0-.09-.06h0l.06-.07a.27.27,0,0,0,.05-.24.41.41,0,0,0-.08-.14L27.54,10a.16.16,0,0,0-.06-.05.83.83,0,0,0-.43-.09.27.27,0,0,0,0-.16.45.45,0,0,0-.21-.2l-.07,0a.47.47,0,0,0-.17,0,.85.85,0,0,0-.23,0,.4.4,0,0,0-.12-.1,1.22,1.22,0,0,0-.42-.14l-.1,0h-.17a1,1,0,0,0-.33.06.68.68,0,0,0-.37.33.49.49,0,0,0-.05.3.45.45,0,0,0,.11.24l-.41.3a1,1,0,0,0-.15.14.22.22,0,0,0-.05.19.8.8,0,0,1,0,.3.45.45,0,0,1-.14.22l-.23.24a5.5,5.5,0,0,0-.74,1.09v0h.05a3.15,3.15,0,0,0,1.19-.94,1.09,1.09,0,0,0,.14-.31.55.55,0,0,0,0-.36,1.38,1.38,0,0,1-.12-.29c0-.08,0-.13.16-.19l.76-.29.08,0,0,0,.11.08a1.13,1.13,0,0,0,.22.11l.24.1-.17,0-.38.12a.15.15,0,0,1,0,.08.15.15,0,0,1,0,.09c0,.06-.11.1-.24.13l0,0,0,0a.69.69,0,0,0,.46-.06.43.43,0,0,0,.1-.09,1.5,1.5,0,0,0,.36,0h0l0,0a.27.27,0,0,0-.08.14c0,.12.07.23.15.28l.24.09-.36.26a2,2,0,0,0-.27.22,2.3,2.3,0,0,0-.16.27c-.2.34-.43.66-.63,1a8.11,8.11,0,0,1-.72.9,1.57,1.57,0,0,1-.21.17l-.25.19a2.4,2.4,0,0,1-.27.16l-.06,0a3.11,3.11,0,0,0-.61-.76,2.54,2.54,0,0,0-.44-.32h0s0,0,0,0l.08.1a1.64,1.64,0,0,1,.19.28,3.38,3.38,0,0,1,.41,1c.06.22.09.47.14.72a3.12,3.12,0,0,0,.06.41,1.68,1.68,0,0,1,0,.18c0,.05,0,.12,0,.18a1.68,1.68,0,0,1-.36.75,2.7,2.7,0,0,1-.78.66,3.19,3.19,0,0,1-1.15.39,4.58,4.58,0,0,1-.63.05l-.62,0-.46-.07.21-.56h0l.06,0h0l.06,0,.19,0a1,1,0,0,0,.34,0,.85.85,0,0,0,.5-.26.62.62,0,0,0,.11-.19.49.49,0,0,0,0-.21.67.67,0,0,0-.06-.19,1,1,0,0,0-.13-.16,2.43,2.43,0,0,0-.73-.45h0a0,0,0,0,0,0,0,2.05,2.05,0,0,1,.51.51.38.38,0,0,1,.06.13.49.49,0,0,1,0,.13,1,1,0,0,1-.05.11l-.09.1a.6.6,0,0,1-.25.1H20l0,0h0s0,0,0,0a.26.26,0,0,1,0-.07.85.85,0,0,1,.14-.21l-.51-.27s0,0-.08,0l-.16,0-.36.05-.38,0H18.2a7.38,7.38,0,0,1-1.5-.3c-.5-.15-1-.31-1.47-.5a3.51,3.51,0,0,1-.64-.34.78.78,0,0,1-.23-.21.31.31,0,0,1,0-.25,2.63,2.63,0,0,1,.44-1.08c.22-.35.45-.69.66-1a5.74,5.74,0,0,1,.36-.5,2,2,0,0,1,.19-.21.69.69,0,0,1,.12-.1l0,0h0l.09-.05a13.73,13.73,0,0,0,1.25-.69,7,7,0,0,0,.81.26,4.76,4.76,0,0,0,.77.12,2.68,2.68,0,0,0,.39,0h.4a4.33,4.33,0,0,0,1.49-.34l2.06,1.51a3.22,3.22,0,0,0-.3-.52,2.27,2.27,0,0,0-1.58-1.07,2.52,2.52,0,0,0,.93-.75,1.25,1.25,0,0,0,.24-.54s0-.09,0-.15a.34.34,0,0,0-.05-.16c-.06-.11-.1-.15-.15-.23a3.53,3.53,0,0,1-.37-1,1.8,1.8,0,0,1,0-.73,3.55,3.55,0,0,0,.49-.82c.34-.75-.41-1.56-1.23-2a5.72,5.72,0,0,0-3.55-.55c-1.93.14-3.7,1.52-3.92,2.83a2.28,2.28,0,0,0,.46,1.89s0,.05,0,.07a3.15,3.15,0,0,0,.24.3c.23.36.82,1.23.82,1.23v-.39l.5.66v-.35l.29.39-.1-.39a8,8,0,0,0,.76.45c.15.08.32.14.48.21-.49.14-1,.3-1.42.47l-.09,0h0l0,0h0l0,0a.82.82,0,0,0-.17.11,2.82,2.82,0,0,0-.3.25,6.38,6.38,0,0,0-.42.52,4,4,0,0,0-.53,1.11,5.35,5.35,0,0,0-.25,1.16.51.51,0,0,0,.07.31,1,1,0,0,0,.24.26,5.6,5.6,0,0,0,.62.42,8.67,8.67,0,0,0,1.41.65.47.47,0,0,0-.15.42.5.5,0,0,0,0,.13,1.35,1.35,0,0,0-.59.54.85.85,0,0,0,0,.83l0,0a.28.28,0,0,0,.18.09s0,.05,0,.08a2.1,2.1,0,0,0-.14.64,3,3,0,0,0,.06.66A4.12,4.12,0,0,0,16,21c.12.3.26.59.4.88-.08.1-.16.21-.25.31l-.41.4a6.05,6.05,0,0,1-.87.72,3,3,0,0,1-.48.31,3.89,3.89,0,0,1-.5.25l-.51.2-.52.12h-.08L13,24a.42.42,0,0,0,.08-.15.23.23,0,0,0,0-.16,1.77,1.77,0,0,0,0-.23,1.71,1.71,0,0,0,0-.31A2.07,2.07,0,0,0,12.39,22a3.22,3.22,0,0,0-.63-.44l-.36-.15c-.11-.06-.24-.1-.34-.15a3.57,3.57,0,0,1-.56-.36,1.6,1.6,0,0,1-.36-.47,1,1,0,0,1,0-.38h.14a.2.2,0,0,0,.15-.07c0-.06,0-.13-.09-.16h0c-.65-.2-1.3-.39-2-.56s-1.32-.36-2-.52H6.15c-.71.08-1.43.18-2.15.28s-1.42.23-2.13.37a0,0,0,0,0,0,0h0a5,5,0,0,0-.46,1.26,3.72,3.72,0,0,0-.08.67,1,1,0,0,0,.24.71.21.21,0,0,0,.1.06,1.74,1.74,0,0,0,0,.22c0,.11,0,.19,0,.29s0,.21,0,.32a1.09,1.09,0,0,0,.41.61.91.91,0,0,0,.47.16,1.06,1.06,0,0,0,.45-.05,1.22,1.22,0,0,0,.26-.14.65.65,0,0,0,.15-.12l0,0c.52.23,1,.47,1.55.72a1.92,1.92,0,0,0,.14.67,1,1,0,0,0,.3.39,1,1,0,0,0,.68.2,3.22,3.22,0,0,0,1-.15A.72.72,0,0,0,7.32,25a.36.36,0,0,0,.12-.2c.25,0,.5.07.75.09A11.15,11.15,0,0,0,9.93,25a6.82,6.82,0,0,0,.9-.07,4,4,0,0,0,.89-.22l.74-.32.06,0,.43,0,.57-.11.57-.18a3.87,3.87,0,0,0,.55-.25,3.85,3.85,0,0,0,.53-.3,7.82,7.82,0,0,0,1-.73l.45-.4a.46.46,0,0,0,.07-.07l.24.51c.09.19.14.4.08.44a2.3,2.3,0,0,0-.35.65,3.53,3.53,0,0,0-.16.66,2.59,2.59,0,0,0,0,.68c0,.11.06.23.1.34a1.4,1.4,0,0,0,.09.17l.07.14a1.2,1.2,0,0,1-.15,1.1l-.17.3c0,.05-.05.1-.08.18v.12a.22.22,0,0,0,.1.16.71.71,0,0,0,.68.07.06.06,0,0,0,0,.05s.11.11.22.1l.09,0a.19.19,0,0,0,.11.08h.15a1.29,1.29,0,0,0,.21-.05l.1-.05a.16.16,0,0,0,0,.1.2.2,0,0,0,.1.07.35.35,0,0,0,.13,0,.37.37,0,0,0,.15,0,.24.24,0,0,0,.1-.06l.08-.09s0,0,0,.06a.32.32,0,0,0,.25.18.49.49,0,0,0,.21,0,.42.42,0,0,0,.15-.06.86.86,0,0,0,.29-.36,2.29,2.29,0,0,0,.12-.37,0,0,0,0,0,0,0v0a3.37,3.37,0,0,1-.05-1.1c.14-.41.26-.83.37-1.25a5.18,5.18,0,0,0,.14-.66c0-.22.05-.44.06-.65a11.43,11.43,0,0,0,0-1.31,4.62,4.62,0,0,0-.08-.65,3.18,3.18,0,0,0-.14-.53,1.88,1.88,0,0,0,.36,0l.3-.1a1.07,1.07,0,0,1,.07.19,3.09,3.09,0,0,0,.25.42,2.47,2.47,0,0,0,.57.54,1,1,0,0,0-.22.19.7.7,0,0,0-.15.48,4.41,4.41,0,0,0,.22.85.82.82,0,0,1-.16.76c-.1.1-.24.21-.36.32a2.51,2.51,0,0,0-.39.36.33.33,0,0,0,0,.36,1,1,0,0,0,.24.25c.17.12.32.2.47.29a5.42,5.42,0,0,1,.81.54,1.85,1.85,0,0,1,.14.14l.06.08,0,0c0,.05,0,0,0,.06a1.05,1.05,0,0,0,.62.35,1.64,1.64,0,0,0,.39,0,.42.42,0,0,0,.37-.18c.06-.21-.09-.33-.21-.45h0s0,0,0,0,.09.29,0,.35-.19,0-.33,0a.58.58,0,0,1-.27-.2l0-.1-.06-.12c-.05-.07-.1-.15-.16-.22a3.82,3.82,0,0,0-.9-.65c-.17-.09-.35-.17-.46-.24l-.13-.09s0,0,0,0a3.89,3.89,0,0,1,.27-.34,2.24,2.24,0,0,0,.27-.39.86.86,0,0,0,.1-.46,3,3,0,0,0-.07-.43c0-.14-.07-.28-.08-.41a1,1,0,0,1,0-.39.66.66,0,0,1,.22-.32.91.91,0,0,1,.32-.17h0a.27.27,0,0,0,.13-.07c.1-.09.07-.21-.06-.28a3.82,3.82,0,0,1-.81-.57c-.18-.16-.35-.34-.52-.52a3.41,3.41,0,0,0,.5-.28,5.87,5.87,0,0,0,.93-.84c.13-.15.24-.29.37-.43s.24-.28.37-.41a4.58,4.58,0,0,1,.42-.35.76.76,0,0,1,.22-.11c.06,0,.14,0,.08,0l.09,0,.07.15a7,7,0,0,1,.35,1,12.79,12.79,0,0,1,.31,1.37,3,3,0,0,1-.1,1.55,3,3,0,0,1-.39.78c-.16.25-.36.48-.55.72a.89.89,0,0,0-.24.81,1.52,1.52,0,0,0,.43.68,3,3,0,0,0,.61.44.44.44,0,0,1,.25.28.46.46,0,0,1,0,.21.24.24,0,0,0-.08-.09.6.6,0,0,0-.18-.08.92.92,0,0,0-.07.13.89.89,0,0,0-.06.2,1,1,0,0,1,0,.16v0a.29.29,0,0,0-.13-.26l-.16-.08-.09.12a1.08,1.08,0,0,0-.06.2c0,.06,0,.1,0,.15a.21.21,0,0,1-.06.12.4.4,0,0,0,.22,0,.34.34,0,0,0,.25-.16.36.36,0,0,0,.21,0,.35.35,0,0,0,.29-.27.07.07,0,0,0,0-.06l.06,0a.76.76,0,0,0,.19-.29.48.48,0,0,0-.22-.5,3.11,3.11,0,0,1-.45-.44,1.58,1.58,0,0,1-.34-.55.82.82,0,0,1,0-.65,3.48,3.48,0,0,1,.41-.75c.17-.25.37-.49.55-.75a2.31,2.31,0,0,0,.38-.83,3.43,3.43,0,0,0,0-.84,3.19,3.19,0,0,0-.15-.77,4,4,0,0,0-.27-.66,3.87,3.87,0,0,0-.34-.54,2.78,2.78,0,0,0-.33-.39l-.13-.12.16,0,0-.21c0-.06,0-.13,0-.19a2.66,2.66,0,0,0-.07-.39,2.37,2.37,0,0,0-.26-.53,1.73,1.73,0,0,0,.26-.55,1.9,1.9,0,0,0,0-.25A1.29,1.29,0,0,0,24,16c0-.14-.05-.28-.08-.41a5.49,5.49,0,0,0-.24-.75.35.35,0,0,1-.05-.08h.08a2.64,2.64,0,0,0,.81-.23,1.72,1.72,0,0,0,.33-.22,3,3,0,0,0,.76-1A3.69,3.69,0,0,0,26,12.23a1.09,1.09,0,0,1,.07-.25,1.12,1.12,0,0,1,.22-.21,2.71,2.71,0,0,1,.61-.32l.06,0c0-.05,0-.11-.07-.13l0,0a.83.83,0,0,1-.25-.12h0l0,0s0,0,0,0l.31-.21a.87.87,0,0,1,.22-.11h.09l.07,0,0,0s0,0,0,.07a1.69,1.69,0,0,1-.44.46,0,0,0,0,0,0,0,0,0,0,0,0,0,0,2.48,2.48,0,0,0,.41-.15.88.88,0,0,0,.36-.24.32.32,0,0,0,.09-.22A.31.31,0,0,0,27.69,10.56Z"/><path class="cls-6" d="M19.34,8.78l.19.1s.07-.27-.77-.22a2.94,2.94,0,0,0-1.55.74s1.6-.83,2.13-.62"/><path class="cls-6" d="M18.59,9.5c.26.06.53-.06.49-.16a.33.33,0,0,1,0-.14h.18s0-.16-.33-.1a9.06,9.06,0,0,0-1.05.31l.62-.09s-.11.13.14.19"/><path class="cls-6" d="M21.55,9.11c.06-.11-.12-.13,0-.15a1,1,0,0,1,.3.07c.05-.21-.37-.16-.63-.08s-.26.16-.26.16c.33-.08.05.11.26.16a.28.28,0,0,0,.36-.16"/><path class="cls-6" d="M19.41,10.84a2,2,0,0,0,1.23-.08c.17-.15.11-.27.29-.35a4.28,4.28,0,0,1-1.24.17c-.58,0-1.06-.08-1.06-.08a1.21,1.21,0,0,0,.78.34"/><path class="cls-6" d="M19.69,11.07c-.49-.12-.8,0-.58.12s1.09,0,.58-.12"/><path class="cls-6" d="M16.9,10.28l0,0Z"/><path class="cls-6" d="M21.21,16.64a.56.56,0,0,0-.09-.21.69.69,0,0,0-.17-.17,1.08,1.08,0,0,0-.23-.11s0,.08.08.18a1.2,1.2,0,0,1,.09.35,2.51,2.51,0,0,1,0,.37c0,.1,0,.18,0,.18a.59.59,0,0,0,.17-.16.57.57,0,0,0,.11-.38.69.69,0,0,0,.2-.11.42.42,0,0,0,.19-.41.52.52,0,0,0-.3-.36.63.63,0,0,0-.17-.08l-.07,0a1.77,1.77,0,0,0,.1.17s.05.1.08.15a1.09,1.09,0,0,1,.05.17.67.67,0,0,1,0,.32.83.83,0,0,1,0,.12"/><path class="cls-6" d="M21.66,16.16s0,0,0,0a.79.79,0,0,0,.43-.29.3.3,0,0,0,0-.26.55.55,0,0,0-.17-.23,1.83,1.83,0,0,0-.53-.25l-.13,0-.09,0h-.06l-.28,0a2.85,2.85,0,0,0-.59,0l-.55.1a4.56,4.56,0,0,0-.53.13l-.33.11c-.21-.16-.43-.31-.66-.46a7.76,7.76,0,0,0-.69-.4,3.21,3.21,0,0,0,.17-1v0a0,0,0,0,0,0,0,5,5,0,0,0-.77,1.06.15.15,0,0,0,.07.21l0,0c.27.17.54.33.84.48s.58.29.9.41l.07,0a.21.21,0,0,0,.22,0,1.56,1.56,0,0,1,.34-.24,1.33,1.33,0,0,1,.45-.15,2.23,2.23,0,0,1,1,.07l.25.07h.1l.11,0a2.74,2.74,0,0,1,.38.13.35.35,0,0,1,.11.08.14.14,0,0,1,.05.11.56.56,0,0,1-.13.32s0,0,0,0"/><path class="cls-6" d="M6.33,21.9h0a8.49,8.49,0,0,0-.73-1,16.77,16.77,0,0,0,2-.1c.34,0,.67-.08,1-.15l.88-.2a3.91,3.91,0,0,1,.3.75c-.44,0-.88-.07-1.31-.08H8.35l-1.18.41c-.29.11-.57.23-.84.35m2.25-.39c.47,0,.94-.06,1.4-.1h.07c.07,0,.1-.08.07-.12a4.83,4.83,0,0,1-.42-1s-.06-.06-.11-.06h0l-1,0c-.35,0-.68.06-1,.11a16.89,16.89,0,0,0-2,.43l0,0a7.46,7.46,0,0,0,.39,1.38l0,0a.34.34,0,0,0,.37.1l0,0c.39-.13.79-.26,1.17-.41S8.22,21.66,8.58,21.51Z"/><path class="cls-6" d="M4.7,21h0a1.34,1.34,0,0,0,.1.52,2,2,0,0,0,.27.46A5.09,5.09,0,0,0,4,21.48c0-.13,0-.25,0-.38a1.66,1.66,0,0,0-.09-.37,2.59,2.59,0,0,1,.4.09A3.43,3.43,0,0,1,4.7,21m.43-.17A.11.11,0,0,0,5,20.78c-.23,0-.47,0-.69-.09a2.92,2.92,0,0,1-.61-.21l-.05,0a.15.15,0,0,0-.17.08v0a2.64,2.64,0,0,0-.13.52,4.75,4.75,0,0,0,0,.53h0a.24.24,0,0,0,.21.2,7,7,0,0,0,1.64.26l0,0a1.43,1.43,0,0,0,.1-.6,1.28,1.28,0,0,0-.13-.57Z"/><path class="cls-6" d="M12.11,22.81h0s0,0,0,0"/><path class="cls-6" d="M2.84,2.5h0l-.18-.6c-.05-.17-.1-.37-.14-.54h0c0,.18-.09.38-.14.54l-.17.6Zm-.71.22-.23.7H1.52l.79-2.36h.43l.77,2.36H3.12l-.23-.7Z"/><path class="cls-6" d="M3.84,2.16c0-.14,0-.31,0-.43h.35l0,.26h0a.59.59,0,0,1,.52-.29h.09V2H4.72a.46.46,0,0,0-.47.36.68.68,0,0,0,0,.15v.94H3.84Z"/><path class="cls-6" d="M5.06,2.16c0-.14,0-.31,0-.43h.35l0,.26h0a.59.59,0,0,1,.52-.29H6V2H5.94a.46.46,0,0,0-.47.36.68.68,0,0,0,0,.15v.94H5.06Z"/><path class="cls-6" d="M7.17,2.55h0c-.2,0-.68,0-.68.39a.28.28,0,0,0,.3.3A.36.36,0,0,0,7.16,3a.38.38,0,0,0,0-.1Zm.06.87,0-.17h0a.64.64,0,0,1-.5.2c-.33,0-.59-.19-.59-.48s.5-.62,1.06-.62V2.3c0-.23-.08-.39-.39-.39A1,1,0,0,0,6.36,2l-.09-.19a1.48,1.48,0,0,1,.58-.11c.49,0,.71.22.71.61V3a2.24,2.24,0,0,0,0,.38Z"/><path class="cls-6" d="M8,3.14a1,1,0,0,0,.4.09c.23,0,.37-.09.37-.24s-.07-.22-.32-.34-.5-.29-.5-.48.3-.47.68-.47a1,1,0,0,1,.45.09L9,2a.81.81,0,0,0-.33-.07c-.21,0-.32.1-.32.21s.06.18.31.29.51.29.51.52-.34.51-.74.51a1.09,1.09,0,0,1-.49-.1Z"/><path class="cls-6" d="M10,1.28v.45h.47v.2H10v1c0,.22.12.28.26.28h.16v.21a1.07,1.07,0,0,1-.29,0,.62.62,0,0,1-.39-.11c-.1-.07-.15-.19-.15-.42v-1h-.3v-.2h.3V1.35Z"/><path class="cls-6" d="M10.74,2.16c0-.14,0-.31,0-.43h.35l0,.26h0a.59.59,0,0,1,.52-.29h.08V2h-.08a.48.48,0,0,0-.48.36s0,.1,0,.15v.94h-.39Z"/><path class="cls-6" d="M12.85,2.55h0c-.21,0-.68,0-.68.39a.28.28,0,0,0,.3.3A.37.37,0,0,0,12.84,3a.38.38,0,0,0,0-.1Zm.06.87,0-.17h0a.6.6,0,0,1-.49.2c-.33,0-.59-.19-.59-.48s.5-.62,1.06-.62V2.3c0-.23-.08-.39-.4-.39A1,1,0,0,0,12,2L12,1.81a1.48,1.48,0,0,1,.58-.11c.49,0,.71.22.71.61V3a2.24,2.24,0,0,0,0,.38Z"/><path class="cls-6" d="M14.07,3.91h0a.64.64,0,0,0,.33-.13c.09-.09.12-.22.12-.54V1.73h.4V3.32a.69.69,0,0,1-.26.65,1.17,1.17,0,0,1-.54.16ZM15,1.29c0,.1-.09.17-.24.17s-.23-.07-.22-.17.09-.18.23-.18S15,1.18,15,1.29Z"/><path class="cls-6" d="M16.89,3c0,.19,0,.34,0,.46h-.35l0-.17h0a.77.77,0,0,1-.53.2c-.44,0-.61-.23-.61-.65V1.73h.4v1c0,.27.06.46.33.46A.34.34,0,0,0,16.47,3a.39.39,0,0,0,0-.15V1.73h.4Z"/><path class="cls-6" d="M18.49,2.31h0a.23.23,0,0,0,0-.12.35.35,0,0,0-.36-.26c-.28,0-.44.26-.44.64s.2.63.44.63A.36.36,0,0,0,18.47,3a.47.47,0,0,0,0-.16Zm.41-.58c0,.12,0,.27,0,.53v1c0,.44-.08.61-.24.73a1.08,1.08,0,0,1-.66.19A1.66,1.66,0,0,1,17.43,4l.1-.21a1.23,1.23,0,0,0,.46.08c.31,0,.5-.14.5-.52V3.21h0a.52.52,0,0,1-.47.21.75.75,0,0,1-.73-.84.79.79,0,0,1,.78-.88.52.52,0,0,1,.46.22h0l0-.19Z"/><path class="cls-6" d="M20.86,3c0,.19,0,.34,0,.46h-.34l0-.17h0a.73.73,0,0,1-.53.2c-.43,0-.6-.23-.6-.65V1.73h.39v1c0,.27.06.46.33.46A.35.35,0,0,0,20.45,3a.77.77,0,0,0,0-.15V1.73h.39Z"/><path class="cls-6" d="M22.42,2.4h0c0-.34-.18-.49-.37-.49s-.39.26-.41.49Zm-.78.2c0,.52.3.63.59.63a1.43,1.43,0,0,0,.41-.06l.06.2a1.75,1.75,0,0,1-.54.08.81.81,0,0,1-.91-.86.81.81,0,0,1,.84-.89.68.68,0,0,1,.71.75.66.66,0,0,1,0,.15Z"/><path class="cls-6" d="M23.65,1.28v.45h.48v.2h-.48v1c0,.22.12.28.26.28h.16l0,.21a1.21,1.21,0,0,1-.3,0,.62.62,0,0,1-.39-.11c-.09-.07-.14-.19-.14-.42v-1H23v-.2h.31V1.35Z"/><path class="cls-6" d="M25.44,2.4h0c0-.34-.18-.49-.37-.49s-.39.26-.41.49Zm-.78.2c0,.52.3.63.59.63a1.43,1.43,0,0,0,.41-.06l.06.2a1.75,1.75,0,0,1-.54.08.81.81,0,0,1-.91-.86.81.81,0,0,1,.84-.89.68.68,0,0,1,.71.75.66.66,0,0,1,0,.15Z"/><path class="cls-6" d="M26.12,3.14a1,1,0,0,0,.4.09c.23,0,.36-.09.36-.24s-.06-.22-.31-.34-.5-.29-.5-.48.3-.47.68-.47a1,1,0,0,1,.45.09l-.11.2a.81.81,0,0,0-.33-.07c-.21,0-.32.1-.32.21s.06.18.31.29.51.29.51.52-.34.51-.74.51a1.17,1.17,0,0,1-.5-.1Z"/><path class="cls-6" d="M17.11,11.34A8.88,8.88,0,0,1,19,13.05s.88.1.93.4-.34.61-.34.61-.45-.42-.72-.43-.28-.4-.28-.4a8.14,8.14,0,0,0-1.25-1,8.14,8.14,0,0,1-1.48-1.51,13.11,13.11,0,0,1,1.21.63"/><path class="cls-6" d="M21.82,11.13A3.64,3.64,0,0,0,22,12.37c.19.49.35.49.35.68s-.25.4-.25.4-.66-.24-.55-.63a1.27,1.27,0,0,0,.09-.53l-.45-.75Z"/></svg>