<svg id="Capa_1" data-name="Capa 1" xmlns="http://www.w3.org/2000/svg" viewBox="0 0 30.94 27.83"><defs><style>.cls-1{fill:#ffd041;}.cls-2{fill:#d1d3d4;}.cls-3{fill:#f05050;}.cls-4{fill:#f5a4c7;}.cls-5{fill:#fbcabb;}.cls-6{fill:#231f20;}</style></defs><title>4-15meses</title><polygon class="cls-1" points="8.66 27.83 30.95 27.83 30.95 19.1 22.93 19.1 8.66 27.83"/><polygon class="cls-2" points="27.12 25.78 17.25 25.32 16.98 24.47 21.27 21.25 29.5 21.46 27.12 25.78"/><path class="cls-3" d="M21.61,23.9a10.59,10.59,0,0,1-1.82.39c-.17-.06-.4-.44-.15-.54s1.17-.36,1.17-.36.79.45.86.17a3.15,3.15,0,0,0-.06-1,.74.74,0,0,1,.85.07c.39.35,1.09.63,1.4.38S24.57,22,24.94,22s.45.19.45.19-1.17,1-.73,1,1.7-.45,1.88-.27.56.83.07,1.06a2.57,2.57,0,0,1-1.71.21c-.47-.17-.74-.31-.8-.32a.31.31,0,0,0-.37.37c0,.38,0,.88-.18.9s-.54.13-.5-.21.38-1,0-1.09a10,10,0,0,0-1.46.08"/><path class="cls-4" d="M4.83,22s-2.78.36-3.39,1.35a4.74,4.74,0,0,0-.6,2.28s.43,2.1,1.78,2l7-.46,2.57-1.84Z"/><path class="cls-5" d="M3,22.45s-.75.49-.82.81.13,1,1.26,1.21A11.07,11.07,0,0,0,6.8,25a14.43,14.43,0,0,0,2.81-.3l1.48,1s.5.23-.39.7-.54.47-.75.41A9.31,9.31,0,0,0,7.3,25.6a5,5,0,0,0-3.63.6,5,5,0,0,0-1.11,1.6h6.1l2.72-2,3.45.69a13.37,13.37,0,0,0,2,.84c.32,0,.45,0,.4-.1s-.4-.34-.4-.34,1.19.14,1.09.05a5.49,5.49,0,0,0-.77-.36,7.35,7.35,0,0,0,1.56,0c.16-.11.16-.39,0-.41s0-.3,0-.39-.55-.36-.69-.37-.73-.31-.36-.32,1.18-.07.75-.27a3.13,3.13,0,0,0-1.63-.4l-1,.09s-3-.76-3.38-.93a.88.88,0,0,1-.44-.53s.22-.37.38-.59,1.08-2.07,1.08-2.07A19.6,19.6,0,0,0,15.92,22c.23,0,3,.77,3.26.69a1,1,0,0,1,.56,0l1.45,1s.53-.06.45-.38-.2-.58.2-.65,2.21-.19,2.14-.39-.51-.31-.72-.33A12.49,12.49,0,0,1,18.88,21c-1.53-.83-2.11-1.16-2.36-1.32a.87.87,0,0,1-.33-.46s.53,0,.52-.22.07-.26.25-.28a.22.22,0,0,0,.11-.37c-.11-.12.25-.09.31-.11a.73.73,0,0,0,.27-.37c0-.13.3-.27.52-.33s.47-.23.31-.46,0-.71.44-1.14A4.56,4.56,0,0,0,20,14.49,2.89,2.89,0,0,0,19.56,13c-.22-.26-4.81-1.86-6.37-.61s-2.37,2.84-2.31,3.36a2,2,0,0,1,0,.81s.16.72-.78,1A19.67,19.67,0,0,0,5.83,20,14.48,14.48,0,0,0,3,22.45"/><path class="cls-6" d="M17.17,16.57a1.05,1.05,0,0,0,.55-.28s.21,0,.13.12.44-.28-.26-.27a1.63,1.63,0,0,0-1.07.37L17,16.4s-.17.22.17.17"/><polygon class="cls-6" points="19.98 15.63 19.99 15.52 19.98 15.53 19.98 15.63"/><path class="cls-6" d="M21.08,21.74h0c.23.05.48.06.71.09.46.05.92.13,1.36.22a5.07,5.07,0,0,1,.5.14c-.39,0-.82,0-1.22,0h-.09a2.5,2.5,0,0,0-.71.2.88.88,0,0,0-.33.25.33.33,0,0,0,0,.38,1,1,0,0,0,.15.23c0,.07.11.14.11.15s0,0,0,.08a.13.13,0,0,1-.07,0,.63.63,0,0,1-.38-.13,1.75,1.75,0,0,0-.27-.16l-.28-.14a1.54,1.54,0,0,1-.83-.64s0,0,0,0l0,0a.83.83,0,0,0,.06.21l-.16-.05c-.18-.06-.45-.12-.77-.19a3.84,3.84,0,0,0-.51-.1l-.61-.06a2.76,2.76,0,0,1-.63-.1,2.89,2.89,0,0,1-.58-.22l-.54-.26c-.19-.08-.35-.17-.52-.25s-.63-.31-.88-.45a7.5,7.5,0,0,1-.84-.5h0s0,0,0,0a.67.67,0,0,0,.09.22,2,2,0,0,0,.44.51,2.77,2.77,0,0,0,.4.28,4,4,0,0,0,.51.26c.19.07.39.15.6.21a4.54,4.54,0,0,0,.66.15l.65.14.33.11-.27.1a8,8,0,0,0-1.16.59,8.81,8.81,0,0,0-1,.71l-.23.22-.29-.09-1.75-.44a5.16,5.16,0,0,1-.29-.46l0-.11a3.42,3.42,0,0,0,.47-.39,2.55,2.55,0,0,0,.26-.3,3.1,3.1,0,0,0,.21-.36c.05-.12.1-.26.15-.39a2.1,2.1,0,0,0,.09-.42,1.87,1.87,0,0,1,.09-.41,1.58,1.58,0,0,1,.21-.38A3.5,3.5,0,0,0,14,19.9a1.54,1.54,0,0,0,.1-.33,1.42,1.42,0,0,0,0-.64,11.55,11.55,0,0,0,1.49.31l.43,0h.2a2,2,0,0,0,.18.32,3.1,3.1,0,0,0,.39.43,4.61,4.61,0,0,0,1.1.67,12.3,12.3,0,0,0,1.24.49c.44.14.88.27,1.33.38l.68.17M20.31,24h0a2.52,2.52,0,0,1-.43.14c-.06,0,0,0,0,0s0,0,0-.09a.58.58,0,0,1,0-.14s0,0,0-.06a1.53,1.53,0,0,1,.23-.15,2.73,2.73,0,0,1,.44-.16l.15-.05.13.11a1.31,1.31,0,0,0,.29.18l.09,0A5.84,5.84,0,0,0,20.31,24Zm-4.86.71h0a3.26,3.26,0,0,1,.41.14.44.44,0,0,0,.28,0,3.46,3.46,0,0,1,.9-.15,1.73,1.73,0,0,1,.41,0l.49.14.25.07L18,25a3.77,3.77,0,0,0-.58.08.84.84,0,0,0-.22.1.24.24,0,0,0-.1.24l0,.05h0l0,0h0a.2.2,0,0,0,.05.05.62.62,0,0,0,.12.08l.09,0a4,4,0,0,0,.59.11c.18,0,.35,0,.49.06l.06,0-.17,0a3.79,3.79,0,0,1-.49,0,5.07,5.07,0,0,1-.55,0l-.43-.08a.26.26,0,0,0-.25.07c-.06.08,0,.17.09.2a3.2,3.2,0,0,0,.58.13l.33,0,.33.05.61.07h.14a.12.12,0,0,1-.05.05.62.62,0,0,1-.39.18,1.31,1.31,0,0,1-.28,0l-.29,0a11,11,0,0,1-1.17-.2.14.14,0,0,0-.13,0s0,.08.06.09l.79.25.39.14.18.08h-.08l-.21,0-.43-.06-.84-.16a.14.14,0,0,0-.13,0,.07.07,0,0,0,.05.1h0a5.71,5.71,0,0,1,.86.34.22.22,0,0,1,.07.06h-.05a2,2,0,0,1-.44-.08,5.37,5.37,0,0,1-.87-.33A3.53,3.53,0,0,1,15,26.4a.25.25,0,0,0-.13,0h0c-.45,0-.9-.1-1.35-.17s-.88-.17-1.31-.27l-.63-.17a5.12,5.12,0,0,1-.59-.21,5.23,5.23,0,0,1-.53-.26,2,2,0,0,1-.42-.34,5.86,5.86,0,0,1-1.24-1.66,3.81,3.81,0,0,1-.3-.92,2.42,2.42,0,0,1-.06-.47c0-.16,0-.31,0-.47h0l0,0a.05.05,0,0,0,0,0,4,4,0,0,0-.09.48,2.66,2.66,0,0,0,0,.49,3,3,0,0,0,.21,1,5.21,5.21,0,0,0,.84,1.42l-.31.07-.53.07a9.83,9.83,0,0,1-1.09.05,17.27,17.27,0,0,1-2.16-.12,7.17,7.17,0,0,1-2-.5,1.64,1.64,0,0,1-.39-.22.92.92,0,0,1-.29-.26.81.81,0,0,1-.15-.31l0-.16,0-.14a13.65,13.65,0,0,1,1.36-1.39c.51-.45,1-.9,1.56-1.33A18.74,18.74,0,0,1,9,18.15c.34-.16.68-.31,1-.46a1.45,1.45,0,0,0,.85-.68.85.85,0,0,0,0-.47l.15.44.19-1a.78.78,0,0,1,.57-.54.86.86,0,0,0-.09.3,1.24,1.24,0,0,0,.13.66,1.79,1.79,0,0,0,.2.28,1.33,1.33,0,0,0,.26.21,1.28,1.28,0,0,0,.53.18h.22v0l-.2,0a1,1,0,0,1-.69-1.22.8.8,0,0,1,.14-.24l.05-.05s0,0,0,0h0c.54.1.59.24,1,.75l0-.45h0a.1.1,0,0,1,0,0l.31.42a1.29,1.29,0,0,1,0-1,1.75,1.75,0,0,0,.61-.62s.13-.22-.15.32l-.44.65.95-.58-.4.58.87-.48,1.39-.88-.46.87,1.23-1-.78,1.2.81-.62,1.51-1-.74,1,.9-.7-.66,1.32a4.6,4.6,0,0,0-2.08.59s1.72-.75,2.53-.23c0,0,0-.31-.44-.36l1.34-1.06a2.9,2.9,0,0,1-.06.41,1.52,1.52,0,0,1-.43.71l-.79.65a2.45,2.45,0,0,0-.4.39.4.4,0,0,0-.08.31.62.62,0,0,0,.11.26,1.83,1.83,0,0,1,.19.36s0,0,0,0l-.19.06-.28.06a.85.85,0,0,0-.21.05.28.28,0,0,0-.16.12.27.27,0,0,0,0,.12,1,1,0,0,0,0,.25l0,.06h-.06a1.31,1.31,0,0,1-.27,0,5.4,5.4,0,0,1-.58-.11h0a.3.3,0,0,0-.25.05.12.12,0,0,0,.06.21,3.3,3.3,0,0,1,.57.34l0,0a.22.22,0,0,1,0,.09s-.09,0-.23.05a.42.42,0,0,0-.22.09.13.13,0,0,0,0,.15c0,.06,0,.1,0,.12s0,0,0,0a.35.35,0,0,1-.13,0,2.3,2.3,0,0,1-.38,0l-.39,0c-.53-.06-1.07-.15-1.59-.26l-.39-.09-.38-.11a.4.4,0,0,0-.24,0,.27.27,0,0,0-.15.12.52.52,0,0,0-.11.28,0,0,0,0,0,0,0s0,0,0,0a.75.75,0,0,1,.13-.25.23.23,0,0,1,.28-.08,3.22,3.22,0,0,0,.37.12l.37.11-.09.13a2.5,2.5,0,0,0-.25.47,3,3,0,0,0-.12.32,2.33,2.33,0,0,0,0,.38,1,1,0,0,1-.08.4,1.34,1.34,0,0,1-.22.38c-.09.13-.19.25-.27.37l-.23.36c-.15.23-.26.45-.36.64s-.1.2-.14.28a1,1,0,0,1-.06-.16,3.41,3.41,0,0,1-.2-1.13c0-.18,0-.38.05-.58a2.35,2.35,0,0,0,0-.59,1.65,1.65,0,0,0-.2-.59,1.11,1.11,0,0,0-.52-.48h0a0,0,0,0,0,0,0h0a.92.92,0,0,1,.43.47,1.56,1.56,0,0,1,.11.57,3.66,3.66,0,0,1,0,.57,3.7,3.7,0,0,0-.1.58,3.23,3.23,0,0,0,.1,1.2,3.53,3.53,0,0,0,.22.59,3.78,3.78,0,0,0,.33.57.24.24,0,0,0,.12.07h0l1.81.52.89.25Zm3.2,1.13Zm.16.53Zm-.18-.47ZM10,26.67h0l-.15.11a3.62,3.62,0,0,0-.74-.59,6.15,6.15,0,0,0-1-.51,5.44,5.44,0,0,0-.57-.19,5.82,5.82,0,0,0-.6-.14c-.21,0-.42-.06-.64-.07a4.41,4.41,0,0,0-.63,0,4.58,4.58,0,0,0-.66.08,3.8,3.8,0,0,0-.6.18,3,3,0,0,0-.54.26,3.65,3.65,0,0,0-.45.32,2.84,2.84,0,0,0-.89,1.47,1.26,1.26,0,0,1-.33-.1,1.41,1.41,0,0,1-.39-.24,2,2,0,0,1-.51-.65,2.1,2.1,0,0,1-.2-.72v-.37c0-.13,0-.25,0-.37s0-.25,0-.37a2.25,2.25,0,0,1,.06-.36,2.42,2.42,0,0,1,.1-.36,2,2,0,0,1,.14-.34,2.3,2.3,0,0,1,.21-.33,3.65,3.65,0,0,1,.26-.32c.11-.09.21-.19.34-.28l.27-.15c-.14.16-.28.31-.41.48H2s0,0,0,0l0,.21,0,.21a1.08,1.08,0,0,0,.2.4,1.51,1.51,0,0,0,.38.33,2.34,2.34,0,0,0,.47.25A7.86,7.86,0,0,0,5.24,25a14.93,14.93,0,0,0,2.22.06c.37,0,.74-.05,1.1-.1l.54-.1.32-.1a2.81,2.81,0,0,0,.29.31,2.35,2.35,0,0,0,.47.4,4.68,4.68,0,0,0,.59.31l.4.16-.11.05A8.34,8.34,0,0,0,10,26.67Zm15.3-4.52h0s0,0,0,0l0,0h0ZM24,24Zm0,0Zm-1-4.77c.63,0,1.26,0,1.89.06s1.28.05,1.92.07,1.28,0,1.92,0,1.28-.08,1.92-.16c0,0,0,0,0,0s0,0,0,0C30,19,29.34,19,28.7,19s-1.28-.05-1.92,0-1.28,0-1.92.07a17.88,17.88,0,0,1-1.93.07h-.06a19.77,19.77,0,0,0-1.77,1,10.65,10.65,0,0,0-1.4,1.05l-.4-.18-1.2-.5a6,6,0,0,1-1.1-.55,3.92,3.92,0,0,1-.69-.58h.09a1.47,1.47,0,0,0,.26-.05c.09,0,.19-.13.18-.21a.23.23,0,0,0,0-.12.68.68,0,0,0,.44-.16.41.41,0,0,0,.1-.18s0-.12,0-.14a.28.28,0,0,0-.06-.08h.09a.74.74,0,0,0,.21,0,.55.55,0,0,0,.28-.08A.22.22,0,0,0,18,18l0-.11a.61.61,0,0,1,0-.13h0l.32-.06a1.65,1.65,0,0,0,.37-.13.35.35,0,0,0,.2-.35,1.51,1.51,0,0,0-.21-.46.33.33,0,0,1-.06-.15s0-.06,0-.11a2.56,2.56,0,0,1,.33-.31c.27-.22.54-.43.82-.67a1.64,1.64,0,0,0,.27-.32l0,.31A2.44,2.44,0,0,0,20,12.83a2.72,2.72,0,0,0-.64-.78,4.11,4.11,0,0,0-.74-.44,8.18,8.18,0,0,0-3.92-1.22c-1.47-.13-4.94.59-5.87,2.92s1.45,2.53,1.69,3.44l.11-.47a1,1,0,0,1,0,.69c-.24.54-1.2.68-1.87,1A18,18,0,0,0,5,20.29c-.55.44-1.1.87-1.59,1.35-.31.29-.59.58-.87.88a2.72,2.72,0,0,0-.93.41,2.83,2.83,0,0,0-.37.32,2.79,2.79,0,0,0-.28.34,2.32,2.32,0,0,0-.2.38,1.38,1.38,0,0,0-.13.39,1.34,1.34,0,0,0-.07.39,1.28,1.28,0,0,0,0,.39,1.74,1.74,0,0,0,.05.39l.09.38a3.38,3.38,0,0,0,.36.74,2.94,2.94,0,0,0,.56.68,2.11,2.11,0,0,0,.41.28l.25.11.27.08h0c.07,0,.13,0,.14-.06v0A2.61,2.61,0,0,1,3.15,27a3.07,3.07,0,0,1,.29-.34,2.43,2.43,0,0,1,.34-.3,3.42,3.42,0,0,1,.4-.26,3.19,3.19,0,0,1,.46-.2,4.07,4.07,0,0,1,.5-.13,3.19,3.19,0,0,1,.52-.06,3.69,3.69,0,0,1,.57,0,3.48,3.48,0,0,1,.55,0,3.5,3.5,0,0,1,.55.09,3.46,3.46,0,0,1,.53.14,8.08,8.08,0,0,1,1.89.85,9.2,9.2,0,0,0-.74.62,3.45,3.45,0,0,0-.35.4,4.91,4.91,0,0,0,.58-.24,8.34,8.34,0,0,0,1.11-.65,8.51,8.51,0,0,0,.94-.76l.13-.13.65.19c.45.11.91.19,1.37.26s.88.12,1.34.16a5.36,5.36,0,0,0,.79.41,6.88,6.88,0,0,0,1,.31,2,2,0,0,0,.57.07.66.66,0,0,0,.18,0c.07,0,.15-.07.15-.15s-.13-.17-.2-.22l-.11,0,.39,0h.35a.49.49,0,0,0,.14,0h0v0a0,0,0,0,0,0-.06s0,0,0-.06l-.1-.06-.19-.08-.21-.08.13,0,.31,0a1.85,1.85,0,0,0,.33,0,1.05,1.05,0,0,0,.61-.24.58.58,0,0,0,.1-.12.18.18,0,0,0,0-.17.22.22,0,0,0-.17-.11h0a.41.41,0,0,0,.25-.19.19.19,0,0,0,0-.07v0h0v0h0v0a.41.41,0,0,0-.15-.14,1.22,1.22,0,0,0-.32-.11l-.56-.09a.83.83,0,0,1-.22,0h.2a3.31,3.31,0,0,0,.59-.1h.09l.09,0,.11-.08a.19.19,0,0,0,.06-.17.3.3,0,0,0-.16-.21l-.15-.08-.53-.17-.49-.13a2.33,2.33,0,0,0-.64-.07,3.68,3.68,0,0,0-.59.06l-.41.1-.33-.12-.46-.13-.42-.12.25-.1a9.1,9.1,0,0,0,1.16-.59,7.8,7.8,0,0,0,1-.71,2.54,2.54,0,0,0,.23-.22l.1,0a4.11,4.11,0,0,0,.56.19l.54.09.42,0-.3.11a4.51,4.51,0,0,0-.8.43,3.25,3.25,0,0,0-.63.55,1.39,1.39,0,0,0-.21.3,2.6,2.6,0,0,0,.44-.14,4.84,4.84,0,0,0,.8-.43A3.7,3.7,0,0,0,19,23a1,1,0,0,0,.18-.26h.56a.71.71,0,0,0,.1.14,2.71,2.71,0,0,0,.46.36l.23.16h-.12a4.4,4.4,0,0,0-.51.1,1,1,0,0,0-.36.16.28.28,0,0,0-.13.2.85.85,0,0,0,0,.16.33.33,0,0,0,.1.23.54.54,0,0,0,.42.11,2.62,2.62,0,0,0,.57-.14c.31-.08.72-.13,1.13-.19s.87-.12,1.32-.13c.12,0,.16,0,.17,0a.32.32,0,0,1,0,.22c0,.16-.08.33-.1.51a.36.36,0,0,0,.06.28.46.46,0,0,0,.38.18.45.45,0,0,0,.26-.06.42.42,0,0,0,.12-.16,1,1,0,0,0,0-.28c0-.18,0-.36,0-.52A.38.38,0,0,1,24,24h.08c.23,0,.66.42,1.24.49a1.94,1.94,0,0,0,.86,0,1.54,1.54,0,0,0,.65-.36.79.79,0,0,0,.22-1,.84.84,0,0,0-.6-.29,1.6,1.6,0,0,0-.31,0,2.06,2.06,0,0,0-.26,0,5.71,5.71,0,0,0-.77.23,2,2,0,0,1-.43.13.07.07,0,0,1-.07-.06s0,0,0,0,0,0,0,0v0s0,.08.1.1a1.87,1.87,0,0,0,.55,0,6.08,6.08,0,0,1,.75-.13c.27,0,.6,0,.64.15s0,.42-.24.61a1.13,1.13,0,0,1-.39.21.2.2,0,0,1-.09,0l-.14,0-.29,0a1.36,1.36,0,0,1-.54-.17,1.86,1.86,0,0,0-.8-.26h-.19l-.1,0a.4.4,0,0,0-.24.18.49.49,0,0,0-.05.32c0,.19.07.36.09.53s0,.36-.1.34a.25.25,0,0,1-.28-.3,3.07,3.07,0,0,1,.13-.5.52.52,0,0,0,0-.28c0-.15-.27-.2-.38-.21a8,8,0,0,0-1.09,0l.07,0,0,0,0,0h0l0-.08a.3.3,0,0,0,0-.21.85.85,0,0,0-.15-.26.93.93,0,0,1-.11-.19c0-.05,0,0,0-.06a.26.26,0,0,1,.12-.08l.23-.09a2.4,2.4,0,0,0,.58.4,2.63,2.63,0,0,0,.41.19l.14.05.19,0h.24a1,1,0,0,0,.2-.06,1.24,1.24,0,0,0,.44-.35,1.15,1.15,0,0,0,.21-.39c.06-.14.06-.28.15-.38a.26.26,0,0,1,.34-.05l.07,0,0,0-.24.23a1.63,1.63,0,0,0-.34.44.36.36,0,0,0,0,.17l0,0,0,0,0,0,0,0a.81.81,0,0,1,.12-.08c.12-.08.3-.17.51-.32a1.28,1.28,0,0,0,.3-.28.67.67,0,0,0,.06-.12.27.27,0,0,0,0-.09.21.21,0,0,0-.07-.12l-.13-.06h-.07l-.16,0a.85.85,0,0,0-.35,0,.56.56,0,0,0-.24.16,2.53,2.53,0,0,1-.28.35,4.29,4.29,0,0,1-.35.28,1,1,0,0,1-.32.2h-.07l-.15,0-.4-.11c-.24-.08-.44-.13-.6-.17h0a11.43,11.43,0,0,0,1.42,0l.21,0,.14,0c.05,0,.14-.09.13-.19s0-.09-.05-.11l0,0-.1-.06L24,22a5,5,0,0,0-.72-.13c-.48-.06-1-.09-1.43-.13a3.62,3.62,0,0,1-.68-.08l-.24-.07.46-.18c.66.05,1.33.07,2,.11l2,.07c1.3,0,2.6,0,3.9,0q-.24.51-.51,1c-.19.36-.41.72-.61,1.07-.41.67-.79,1.33-1.15,2-1.38-.09-2.75-.16-4.13-.19-.73,0-1.45,0-2.18,0s-1.45,0-2.17,0c0,0,0,0,0,0a0,0,0,0,0,0,0c.72.08,1.44.14,2.16.2s1.44.11,2.16.17c1.44.1,2.88.16,4.33.2h0a.27.27,0,0,0,.27-.12c.36-.73.69-1.46,1-2.19.16-.37.31-.74.5-1.1a11,11,0,0,1,.56-1.08v0s0-.06-.09-.07h0c-1.34-.05-2.68-.16-4-.17h-2c-.67,0-1.34,0-2,0h0c-.16.09-.32.18-.47.28l-.31-.11-.7-.29a13.14,13.14,0,0,0,1.63-.84A16.31,16.31,0,0,0,23,19.19Z"/><rect class="cls-6" x="4.37" y="1.28" width="0.39" height="2.37"/><path class="cls-6" d="M6.39,2.59h0a.45.45,0,0,0,0-.11A.38.38,0,0,0,6,2.15c-.32,0-.44.31-.44.65s.14.65.42.65a.39.39,0,0,0,.38-.29.37.37,0,0,0,0-.12Zm.39-1.37v2c0,.11,0,.31,0,.41H6.46l0-.22h0a.62.62,0,0,1-.52.24c-.42,0-.72-.31-.72-.87s.36-.88.75-.88a.53.53,0,0,1,.45.2h0v-.9Z"/><path class="cls-6" d="M8.33,2.62h0c0-.34-.18-.49-.37-.49s-.39.26-.4.49Zm-.78.2c0,.52.31.63.59.63a1.43,1.43,0,0,0,.41-.06l.06.2a1.75,1.75,0,0,1-.54.08.81.81,0,0,1-.9-.86A.81.81,0,0,1,8,1.92a.68.68,0,0,1,.71.75v.15Z"/><path class="cls-6" d="M9.08,2.39c0-.2,0-.31,0-.44h.35l0,.2h0A.68.68,0,0,1,10,1.92a.53.53,0,0,1,.59.58V3.65h-.39V2.55c0-.2-.06-.4-.34-.4a.38.38,0,0,0-.38.27.81.81,0,0,0,0,.16V3.65h-.4Z"/><path class="cls-6" d="M11.55,1.5V2H12v.2h-.48v1c0,.22.12.28.27.28H12l0,.21a1.07,1.07,0,0,1-.29,0,.6.6,0,0,1-.39-.11c-.1-.07-.15-.19-.15-.42v-1h-.3V2h.3V1.57Z"/><path class="cls-6" d="M12.33,3.65h0V2h.39v1.7Zm.42-2.14c0,.1-.09.17-.24.17s-.22-.07-.22-.17.1-.18.23-.18S12.75,1.4,12.75,1.51Z"/><path class="cls-6" d="M13.3,3.65V2.15H13V2h.31V1.83c0-.3.21-.64.9-.64a1.41,1.41,0,0,1,.49.08l-.09.21a1.32,1.32,0,0,0-.41-.07c-.4,0-.5.19-.5.45V2H14.8v1.7h-.39V2.15h-.72v1.5Z"/><path class="cls-6" d="M16.51,3.6a1,1,0,0,1-.41.07.81.81,0,0,1-.9-.86.89.89,0,0,1,1-.89,1.38,1.38,0,0,1,.35.05l-.07.23a.84.84,0,0,0-.29-.05.59.59,0,0,0-.57.66.56.56,0,0,0,.58.63,1.27,1.27,0,0,0,.29,0Z"/><path class="cls-6" d="M17.74,2.77h0c-.21,0-.69,0-.69.39a.29.29,0,0,0,.31.3.37.37,0,0,0,.37-.25.38.38,0,0,0,0-.1Zm.05.88,0-.18h0a.62.62,0,0,1-.49.2c-.33,0-.59-.19-.59-.48s.5-.61,1.06-.62v0c0-.23-.09-.39-.4-.39a1.07,1.07,0,0,0-.41.09L16.83,2a1.56,1.56,0,0,1,.58-.11c.5,0,.71.22.71.61v.73a1.63,1.63,0,0,0,0,.39Z"/><path class="cls-6" d="M19.46,3.65V2.15h-.31V2h.31V1.83c0-.3.22-.64.9-.64a1.37,1.37,0,0,1,.49.08l-.09.21a1.32,1.32,0,0,0-.41-.07c-.4,0-.5.19-.5.45V2H21v1.7h-.4V2.15h-.72v1.5Z"/><path class="cls-6" d="M22.57,2.53h0a.23.23,0,0,0,0-.12.36.36,0,0,0-.36-.26c-.28,0-.44.26-.44.64s.2.63.44.63a.37.37,0,0,0,.36-.24.44.44,0,0,0,0-.16ZM23,2c0,.12,0,.27,0,.53v1c0,.44-.08.61-.25.73a1,1,0,0,1-.66.19,1.6,1.6,0,0,1-.54-.09l.09-.21a1.27,1.27,0,0,0,.46.08c.32,0,.51-.14.51-.52V3.43h0a.53.53,0,0,1-.47.21.74.74,0,0,1-.73-.84.79.79,0,0,1,.78-.88.52.52,0,0,1,.46.22h0l0-.19Z"/><path class="cls-6" d="M24.94,3.18c0,.19,0,.34,0,.47h-.34l0-.18h0a.73.73,0,0,1-.53.2c-.44,0-.6-.23-.6-.65V2h.39V3c0,.27.06.46.33.46a.35.35,0,0,0,.36-.22.77.77,0,0,0,0-.15V2h.39Z"/><path class="cls-6" d="M25.44,2.39c0-.15,0-.32,0-.44h.35l0,.26h0a.59.59,0,0,1,.52-.29h.08V2.2h-.08a.45.45,0,0,0-.47.35.77.77,0,0,0,0,.15v.95h-.39Z"/><path class="cls-6" d="M27.55,2.77h0c-.2,0-.68,0-.68.39a.28.28,0,0,0,.3.3.36.36,0,0,0,.37-.25.38.38,0,0,0,0-.1Zm.06.88,0-.18h0a.64.64,0,0,1-.5.2.52.52,0,0,1-.58-.48c0-.43.49-.61,1.05-.62v0c0-.23-.08-.39-.39-.39a1,1,0,0,0-.41.09L26.65,2a1.48,1.48,0,0,1,.58-.11c.49,0,.71.22.71.61v.73a2.42,2.42,0,0,0,0,.39Z"/><path class="cls-6" d="M28.37,3.36a1,1,0,0,0,.4.09c.23,0,.37-.09.37-.24s-.07-.22-.32-.34-.5-.28-.5-.48.3-.47.68-.47a1,1,0,0,1,.45.09l-.11.2A.81.81,0,0,0,29,2.14c-.21,0-.32.1-.32.21s.06.18.31.29.51.29.51.52-.34.51-.74.51a1.09,1.09,0,0,1-.49-.1Z"/><path class="cls-6" d="M15.25,5.75h0V5.64a.39.39,0,0,0-.37-.33c-.33,0-.44.31-.44.65s.13.65.42.65a.39.39,0,0,0,.38-.3.37.37,0,0,0,0-.11Zm.39-1.38v2c0,.11,0,.3,0,.4h-.33l0-.21h0a.6.6,0,0,1-.51.24c-.42,0-.72-.31-.72-.87s.36-.88.74-.88a.52.52,0,0,1,.45.2h0V4.37Z"/><path class="cls-6" d="M17.2,5.78h0c0-.34-.18-.49-.37-.49s-.39.26-.4.49Zm-.78.2c0,.52.3.63.59.63a1.12,1.12,0,0,0,.41-.07l.06.2a1.5,1.5,0,0,1-.54.08A.79.79,0,0,1,16,6a.8.8,0,0,1,.83-.89.68.68,0,0,1,.71.75.66.66,0,0,1,0,.15Z"/><path class="cls-6" d="M19,6h0c0,.28.07.67.43.67s.4-.4.4-.67-.06-.66-.41-.66S19,5.69,19,6m1.23,0a.79.79,0,0,1-.82.88A.78.78,0,0,1,18.59,6a.8.8,0,0,1,.83-.88A.78.78,0,0,1,20.22,6Z"/><path class="cls-6" d="M21,6.2h0a.2.2,0,0,0,0,.11.39.39,0,0,0,.36.3c.32,0,.43-.3.43-.66s-.11-.64-.43-.64a.39.39,0,0,0-.37.3.49.49,0,0,0,0,.12Zm-.41.6c0-.1,0-.29,0-.4v-2H21V5.3h0a.63.63,0,0,1,.52-.22c.39,0,.68.3.68.86s-.37.89-.75.89a.55.55,0,0,1-.5-.25h0l0,.22Z"/><path class="cls-6" d="M22.18,7.29h0a.64.64,0,0,0,.33-.13c.09-.09.12-.22.12-.54V5.1H23V6.69c0,.36-.08.53-.25.65a1,1,0,0,1-.55.16Zm.88-2.62c0,.1-.09.17-.24.17s-.23-.07-.22-.17.09-.18.23-.18S23.06,4.56,23.06,4.67Z"/><path class="cls-6" d="M24.57,5.78h0c0-.34-.18-.49-.37-.49s-.39.26-.41.49Zm-.78.2c0,.52.3.63.59.63a1.12,1.12,0,0,0,.41-.07l.06.2a1.5,1.5,0,0,1-.54.08.79.79,0,0,1-.9-.85.8.8,0,0,1,.83-.89.68.68,0,0,1,.71.75.66.66,0,0,1,0,.15Z"/><path class="cls-6" d="M25.8,4.65V5.1h.48v.21H25.8v1c0,.22.12.28.26.28h.16l0,.21-.3,0a.62.62,0,0,1-.39-.1.51.51,0,0,1-.14-.43v-1H25.1V5.1h.31V4.73Z"/><path class="cls-6" d="M26.82,6h0c0,.28.07.67.43.67s.4-.4.4-.67-.06-.66-.41-.66-.42.4-.42.66m1.23,0a.79.79,0,0,1-.82.88A.78.78,0,0,1,26.42,6a.8.8,0,0,1,.83-.88A.78.78,0,0,1,28.05,6Z"/><path class="cls-6" d="M28.37,6.52a1,1,0,0,0,.4.09c.23,0,.37-.1.37-.25s-.07-.21-.32-.33-.5-.29-.5-.48.3-.47.68-.47a1.21,1.21,0,0,1,.45.08l-.11.21A.67.67,0,0,0,29,5.29c-.21,0-.32.11-.32.22s.06.18.31.29.51.28.51.52-.34.5-.74.5a1.09,1.09,0,0,1-.49-.1Z"/><path class="cls-6" d="M17.34,9.92a1.32,1.32,0,0,1-.41.06.81.81,0,0,1-.9-.86.88.88,0,0,1,1-.88,1,1,0,0,1,.35,0l-.07.22a.89.89,0,0,0-.29,0,.59.59,0,0,0-.57.66.56.56,0,0,0,.58.64.88.88,0,0,0,.29,0Z"/><path class="cls-6" d="M17.88,9.11h0c0,.28.08.66.43.66s.41-.4.41-.66-.07-.66-.42-.66-.42.4-.42.66m1.24,0a.8.8,0,0,1-.83.88.78.78,0,0,1-.8-.88.8.8,0,0,1,.83-.88A.78.78,0,0,1,19.12,9.11Z"/><path class="cls-6" d="M19.51,8.7c0-.2,0-.3,0-.44h.35l0,.21h0a.69.69,0,0,1,.56-.24.53.53,0,0,1,.51.26h0a.76.76,0,0,1,.25-.19.77.77,0,0,1,.34-.07.54.54,0,0,1,.6.6V10h-.39V8.9c0-.22,0-.44-.35-.44a.38.38,0,0,0-.36.25.78.78,0,0,0,0,.16V10h-.39V8.85c0-.19-.05-.39-.34-.39a.38.38,0,0,0-.37.27.77.77,0,0,0,0,.15V10h-.38Z"/><path class="cls-6" d="M24.11,9.5c0,.19,0,.33,0,.46h-.34l0-.18h0a.73.73,0,0,1-.53.21c-.43,0-.6-.23-.6-.66V8.26H23v1c0,.26.06.46.33.46a.36.36,0,0,0,.36-.23.61.61,0,0,0,0-.15V8.26h.39Z"/><path class="cls-6" d="M24.61,8.7c0-.2,0-.3,0-.44h.34l0,.2h0a.7.7,0,0,1,.56-.23.54.54,0,0,1,.6.59V10h-.39V8.86c0-.2-.06-.4-.34-.4a.38.38,0,0,0-.38.28.66.66,0,0,0,0,.15V10h-.4Z"/><path class="cls-6" d="M27.69,8.93h0c0-.34-.18-.49-.37-.49s-.39.26-.41.49Zm-.78.2c0,.52.3.64.59.64a1.12,1.12,0,0,0,.41-.07l.06.2a1.75,1.75,0,0,1-.54.08.79.79,0,0,1-.9-.85.81.81,0,0,1,.83-.9.68.68,0,0,1,.71.75.62.62,0,0,1,0,.15Z"/><path class="cls-6" d="M28.37,9.68a1,1,0,0,0,.4.09c.23,0,.37-.1.37-.25s-.07-.22-.32-.33-.5-.29-.5-.49.3-.47.68-.47a1.18,1.18,0,0,1,.45.09l-.11.2A.81.81,0,0,0,29,8.45c-.21,0-.32.11-.32.21s.06.18.31.3.51.28.51.52-.34.5-.74.5a1.09,1.09,0,0,1-.49-.1Z"/><path class="cls-6" d="M8.86,15.05a11.21,11.21,0,0,0,1.8,2.5c1.07,1.07,1.47,1.71,1.46,2.41s0,.81,0,.81-.26-.15-.25.36a.81.81,0,0,0,.47.72s.5-.38.44-.74-.23-.4-.23-.4.29-.07.11-1.39-1.36-1.9-1.46-3a1.83,1.83,0,0,0-2.34-1.27"/><path class="cls-6" d="M14.5,19.05s-.34,1.41,0,1.93S14,22.13,14,22.13a.84.84,0,0,0-.15-.68c-.23-.24-.46-.26,0-.66l-.08-1.13.12-.76Z"/></svg>