<svg id="Capa_1" data-name="Capa 1" xmlns="http://www.w3.org/2000/svg" viewBox="0 0 27.84 24.84"><defs><style>.cls-1{fill:#0070a2;}.cls-2{fill:#ffcd54;}.cls-3{fill:#6acbde;}.cls-4{fill:#f5a4c7;}.cls-5{fill:#fbcabb;}.cls-6{fill:#231f20;}</style></defs><title>3-15meses</title><path class="cls-1" d="M9.71,16.15a1,1,0,0,0,.58,1.38c1,.47,1.47.65,1.87,1.2s0,1.61,0,1.61a19.3,19.3,0,0,1-3.58.57,5.18,5.18,0,0,1-2.4-.28,23.7,23.7,0,0,1-2.86-1c-.61-.37-.58-.53-.58-.53S2.6,17.47,2,17.44s-.59.65-.59.65-.6-.59-.39-.88.27-1.54.77-1.63,4.29-.44,4.29-.44Z"/><path class="cls-2" d="M1.92,17.61c-.36.08-.52,1.74-.13,2a.72.72,0,0,0,.87.1c.33-.15.3-.29.26-.33a5.47,5.47,0,0,0-.41-1.29,5.2,5.2,0,0,0-.59-.47"/><path class="cls-2" d="M4.86,20.37c.07.67,0,1.05.47,1.07a3.8,3.8,0,0,0,1.34-.19c.31-.12.51-.27.43-.33s-.79,0-.92-.29-.85-1.33-1-1.51-.25-.17-.36,0a3.74,3.74,0,0,0,0,1.25"/><polygon class="cls-3" points="5.82 18.49 5.24 17.1 9.28 16.5 9.82 17.53 8.06 17.61 5.82 18.49"/><polygon class="cls-3" points="4.86 18.34 3.24 17.82 3.38 16.87 4.66 17.14 4.86 18.34"/><path class="cls-4" d="M17.08,13.13s-1.32.51-1.48,1.32S16.91,16,16.91,16l2.47,1.33A3.68,3.68,0,0,0,21.7,16c1.38-1.3,2.13-1.47,1.89-2a3.93,3.93,0,0,1-.25-1.29Z"/><path class="cls-5" d="M16,13s-2.58-.79-2.14-1.77a14.83,14.83,0,0,1,1.75-2.55,4.52,4.52,0,0,1,.54-.4l1.19-.51a14.6,14.6,0,0,1-2.39-1.17c-.49-.41-.58-1.89-.55-1.92s3.46-1.78,5.42-1.8,2.24.28,2.26.32a.49.49,0,0,1,0,.5A2,2,0,0,0,22,5.76c.55,1.14-.1,1.34-.44,1.62a1.66,1.66,0,0,1-.59.34l1.7,1.17A3.33,3.33,0,0,0,23.93,8a1.09,1.09,0,0,0,.13-1c-.09-.17.25-.39.43-.49a1.85,1.85,0,0,0,.28-.2.32.32,0,0,1,.06-.56,1.32,1.32,0,0,1,1.06,0s.41,0,.49.06.44.43.44.43l.3.3.14.43s.11.28.07.29-1,.47-1,.47a1.9,1.9,0,0,0-.83.81c-.28.58-.54,1.48-1.09,1.84a5,5,0,0,1-1.19.56s.4,1.87-.05,2.36-.9,1.16-2.95,1.3A6.12,6.12,0,0,1,16.58,14c-.37-.26-.56-.52-.44-.74a1.44,1.44,0,0,0,.13-.27Z"/><path class="cls-5" d="M16,14.91s-.46.17-.35.93,1.43,3.24,1.32,3.65a2.73,2.73,0,0,1-.32.88c-.13.21.23,1.86.08,2.25s-.56,1.36-.32,1.32a1.29,1.29,0,0,1,.76.14c.19.09.41.1.44,0s.24-.1.24-.1,0,.46.22.34A.59.59,0,0,0,18.3,24s.05.42.41.33a.68.68,0,0,0,.45-.8,29.88,29.88,0,0,1,.45-3.29,13.15,13.15,0,0,0-.1-3.28c-.14-.26-1.27-2.54-3.54-2"/><path class="cls-5" d="M20.29,17a1,1,0,0,0,.4.73,3.12,3.12,0,0,1,.61.59s-.38.6-.35.83.44,1.11.14,1.52-.86.82-.53,1.15,1.59,1.51,2.11,1.53A2.1,2.1,0,0,0,24,22.94c.32-.21.55-.6.35-.76s-1.07-.81-1-1.25a7.33,7.33,0,0,1,1.11-2.53c.56-.77,0-2.24-.18-2.71a6,6,0,0,0-.82-1.17Z"/><path class="cls-6" d="M26.76,6.65h0l-.15,0a.43.43,0,0,0-.13-.16l-.12-.08h.22a.32.32,0,0,1,.16,0s0,0,0,0l0,0h0s0,0,.05,0l.11.09a.74.74,0,0,0-.21,0m-.5.71h0s0,0,0,0h0ZM26,6.66Zm-.36-.48h0l0,0h.06l.26,0a1,1,0,0,1,.22,0h.05l0,0h.06l.2,0,.14,0a.45.45,0,0,0-.21.13.25.25,0,0,0-.08.18l-.05,0-.39-.15-.15,0Zm-.6-.12h0a.79.79,0,0,0-.24.1l0,0a1,1,0,0,1,.37-.3l.08,0h.36l-.18.15-.07.11A.63.63,0,0,0,25.05,6.06Zm.15.37h0S25.22,6.43,25.2,6.43Zm-1.81,7.43h0a1.35,1.35,0,0,1,0,.35.75.75,0,0,1,0,.16,2.06,2.06,0,0,0-.26,0,1.58,1.58,0,0,0-.39.16,2.48,2.48,0,0,0-.57.39,6,6,0,0,0-.44.43l-.36.44a4.84,4.84,0,0,1-.76.81,2.69,2.69,0,0,1-.47.34,2.1,2.1,0,0,1-.26.13l-.14,0s0-.09-.05-.13-.08-.17-.13-.26a4.66,4.66,0,0,0-.3-.47l-.34-.47-.18-.23-.09-.1c.13-.25.26-.48.35-.7v0h.54l.67,0c.21,0,.44,0,.66-.07a6.5,6.5,0,0,0,1.3-.32,2.82,2.82,0,0,0,1.06-.66,1,1,0,0,0,.17-.19A1.87,1.87,0,0,1,23.39,13.86ZM19.5,18.57h0c0,.43-.09.86-.15,1.29,0,.21-.07.42-.11.63a3.6,3.6,0,0,1-.15.63c-.13.42-.24.85-.35,1.27h0v0A3.35,3.35,0,0,0,19,23.58a1.2,1.2,0,0,1-.06.32.53.53,0,0,1-.16.27s0,0-.06,0h0s-.07,0-.09-.07a.59.59,0,0,1-.09-.31h0s0-.06-.09-.06-.11,0-.12,0a.72.72,0,0,1-.1.24.27.27,0,0,1-.08.1.05.05,0,0,1,0,0s0,0,0,0h0l0,0a.15.15,0,0,1,0-.1.51.51,0,0,1,.07-.23h0v0s0-.07-.07-.08a.13.13,0,0,0-.14.05h0a.33.33,0,0,1-.15.18.23.23,0,0,1-.12.06l-.14,0h0a.11.11,0,0,1,0-.06h0a.52.52,0,0,0,.11-.1l.05-.06a.19.19,0,0,0,0-.09.1.1,0,0,0-.07-.09.18.18,0,0,0-.19,0l-.07.09h0l-.09.07h0a1,1,0,0,1,.06-.16c0-.06,0-.13-.1-.16a.22.22,0,0,0-.25.06l0,0a.35.35,0,0,1-.21.13.23.23,0,0,1-.14,0h0v0a.63.63,0,0,0,.07-.12l.2-.29A1.43,1.43,0,0,0,17,22l-.07-.16a.52.52,0,0,1-.06-.13,2.29,2.29,0,0,1-.07-.28,1.88,1.88,0,0,1,0-.58,3,3,0,0,1,.15-.59,2.59,2.59,0,0,1,.28-.55s0,0,0,0l0-.07a.3.3,0,0,0,0-.14.65.65,0,0,0,0-.21,2,2,0,0,0-.13-.34c-.1-.21-.22-.41-.33-.6l-.13-.21a8.16,8.16,0,0,0,.68-.79l.65-.87.39-.7.2.19a3.55,3.55,0,0,1,.35.44,2.75,2.75,0,0,1,.26.47c0,.09,0,.17.07.25a1,1,0,0,1,0,.23c0,.06.05.1.14.11A9.3,9.3,0,0,1,19.5,18.57Zm-3,5.18Zm-.66-7.86h0a2.08,2.08,0,0,1,0-.61l0-.13a1.71,1.71,0,0,1,.29-.08c.1,0,.21,0,.31-.06a3.31,3.31,0,0,1,.63,0,2.13,2.13,0,0,1,.87.3l0,0,0,.05c-.17.26-.33.54-.51.82l-.58.87a5,5,0,0,1-.39.55c-.1-.18-.2-.36-.29-.54A6.14,6.14,0,0,1,16,16.5,2.57,2.57,0,0,1,15.82,15.89Zm0-1.59h0a1.05,1.05,0,0,1,.26-.5,1,1,0,0,0,.25.26,3.05,3.05,0,0,0,.83.39l.51.14c.18,0,.37.07.57.09l.18,0-.25.38L18,14.93a2.18,2.18,0,0,0-.73-.28,2.76,2.76,0,0,0-.86,0l-.27,0h0l0,0H16l-.09,0A.71.71,0,0,1,15.83,14.3Zm.33-1.15h0l0,0h0Zm1.66.42h.47l.45,0,.26,0a.35.35,0,0,0,0,.14l0,0c-.12.18-.26.41-.42.67l-.27,0c-.36-.07-.7-.13-1-.2a4,4,0,0,1-.75-.26.93.93,0,0,1-.37-.32.4.4,0,0,1,0-.36A6.81,6.81,0,0,0,17.82,13.57ZM10.38,20.7h0a6.6,6.6,0,0,1-.79.08,12.74,12.74,0,0,1-1.63,0c-.52,0-1-.09-1.55-.15a7.65,7.65,0,0,0-1-1.43A2.13,2.13,0,0,0,5.2,19a.46.46,0,0,0-.21,0,.29.29,0,0,0-.2.07.65.65,0,0,0-.2.43,2.73,2.73,0,0,0,0,.64l-1.67-.95a2.26,2.26,0,0,0-.29-1.26,1.55,1.55,0,0,0-.13-.17l-.09-.08-.15-.09-.13-.05-.05,0H2a1.1,1.1,0,0,0-.37,0,.85.85,0,0,0-.17.06,3.47,3.47,0,0,1,0-.56c0-.41.09-.83.17-1.25a26.75,26.75,0,0,0,3,1.21.3.3,0,0,0,.16,0h0c.87-.08,1.72-.25,2.58-.38s1.57-.17,2.37-.21a1,1,0,0,0,.25,1,2.74,2.74,0,0,0,.58.46l.32.18.31.17a2.44,2.44,0,0,1,.5.38,1.13,1.13,0,0,1,.1.13.68.68,0,0,0-.37.11.51.51,0,0,0-.21.27h0L11,19l-1.24.15c-.46.06-.92.12-1.27.2l-.41.09a.68.68,0,0,0-.35-.12.82.82,0,0,0-.43.05A.65.65,0,0,0,7,19.6a.26.26,0,0,0,0,.3.89.89,0,0,0,.18.24,2.81,2.81,0,0,0,.24.2.67.67,0,0,0,.17.08l.09,0h.11a.55.55,0,0,0,.34-.1A.38.38,0,0,0,8.19,20a.44.44,0,0,1,0-.09,2.82,2.82,0,0,0,.51.16l.59.08c.22,0,.45,0,.69,0l.39-.06.1.05a1.69,1.69,0,0,0,.42.19,2.42,2.42,0,0,0,.35.11l-.17.07A3.38,3.38,0,0,1,10.38,20.7Zm-3.82.49h0a4.46,4.46,0,0,1-.82,0,.34.34,0,0,1-.21-.09.63.63,0,0,1-.16-.25,2.53,2.53,0,0,1-.18-.55.64.64,0,0,0,.18.27.8.8,0,0,0,.21.16.8.8,0,0,0,.15-.19.55.55,0,0,0,.07-.34c.09.19.18.38.26.57a.17.17,0,0,0,.13.09h0L7,21A.65.65,0,0,1,6.56,21.19Zm-1.48-2h0l0-.05.09.09a3.4,3.4,0,0,1,.39.57h0a.66.66,0,0,0-.21-.15.64.64,0,0,0-.15.18.6.6,0,0,0-.07.33c0-.21-.08-.4-.1-.56A.63.63,0,0,1,5.08,19.21Zm-.26.1h0a.39.39,0,0,1,.13-.2c.07-.05,0,0,.11,0h0a.32.32,0,0,0-.09,0A.61.61,0,0,0,4.82,19.31ZM3,19.57H3l-.19,0a1.17,1.17,0,0,1-.26,0,.44.44,0,0,1-.37-.12,1,1,0,0,1-.2-.43.78.78,0,0,1,0-.14.7.7,0,0,0,.15.17.47.47,0,0,0,.1-.36A.5.5,0,0,0,2,18.44a.69.69,0,0,0-.09.17v0c0-.17,0-.33,0-.47a.54.54,0,0,1,.05-.29s.1,0,.09,0l0,0,0,0,.09.11a3.13,3.13,0,0,1,.32,1.18v0s0,.08.09.11l.46.21Zm.82-4h0c.7,0,1.4-.09,2.09-.15.64.16,1.29.3,1.94.44.45.1.91.18,1.36.27-.62.09-1.24.17-1.88.21-.84,0-1.7.06-2.53.14-1-.32-2-.61-3-.85C2.43,15.66,3.1,15.63,3.77,15.6ZM10.64,20h0a3.07,3.07,0,0,0,.53-.21,1.25,1.25,0,0,0,.26-.19.56.56,0,0,1,.05.08.45.45,0,0,0,.17.11l.08,0h.17a.44.44,0,0,0,.22-.07.88.88,0,0,1,0,.17l0,0h0s-.05,0-.09.07a2.52,2.52,0,0,1-.29.16l-.36.16a4,4,0,0,1-.46-.1,2.08,2.08,0,0,1-.42-.17l-.08,0Zm1.63.16h0c-.18-.09-.14-.17-.14-.18v0Zm-.48-1.12h0s0,0,0,0a.46.46,0,0,1,.2.05c0,.09.05.18.07.26a.55.55,0,0,1-.26.1c-.05,0-.06,0-.05,0s0,0,0,0h0s0,0-.07,0a.18.18,0,0,1-.17-.09c0-.06,0-.12,0-.18s.11-.09.14-.13l.09-.05Zm-3.67.84h0s0,0,0,.09a.45.45,0,0,1-.3.07.23.23,0,0,0-.12,0h0s0,0,0,0l-.09,0a.24.24,0,0,1-.22-.06s0-.11,0-.16.11-.06.15-.09a.27.27,0,0,1,.12,0h.22a.39.39,0,0,1,.3.06C8.13,19.87,8.12,19.9,8.12,19.9Zm0-.35h0l.35.05a6.18,6.18,0,0,0,1.35,0,5.25,5.25,0,0,0,.71-.13,2.34,2.34,0,0,0,.57-.22l.06,0s0,0,0,0,.1.15.13.23a.05.05,0,0,1,0,.05l-.36.06c-.32.05-.72.1-1.13.13l-1.16.12c-.27,0-.47.06-.54.07v-.1A.41.41,0,0,0,8.15,19.55ZM15.65,6.8h0v0h0l-.2-.12a.47.47,0,0,0,.24,0,.23.23,0,0,0,.11-.09c0-.09-.06-.13-.07-.13a.18.18,0,0,1-.1-.24s0-.07,0-.15-.1-.13-.13-.13l-.08,0-.13-.07a.61.61,0,0,0-.19-.06.32.32,0,0,0-.17,0,.12.12,0,0,0-.1.08.15.15,0,0,0,0,.1.23.23,0,0,0,.06.07h0l0-.06s0,0,0,0,0,0,0,0h0L15.1,6l.17.09.1,0s0,0,0,0a.69.69,0,0,0,.06.13,1.17,1.17,0,0,1,.14.3s0,0,0,0h0l-.06,0h0s0,0,0-.05l0-.06h0l-.07.06a.15.15,0,0,0,0,.1s0,0,0,0A3.65,3.65,0,0,1,15,6.31c-.23-.3-.34-.61-.14-.71s.89.25.89.25a.87.87,0,0,0,.46.51L16.09,6l.5.54a1.69,1.69,0,0,1-.38-1.2,2.14,2.14,0,0,1,.92-1.4l-.29.71,1.49-1-.67,1.2,1.07-1-.19.8.6-.55-.23.5.93-.87-.3.87,1.09-.45-.37.38L21.4,3.6,21,4.46l1-.74L21.85,4a1.36,1.36,0,0,0-.15.51,1.47,1.47,0,0,0,0,.21,1.08,1.08,0,0,0-1.37.51c-.12.43.19.57.29.82s-.44.34-.44.34a.62.62,0,0,0,.58-.13c.22-.13.1-.19-.19-.5s0-.6.24-.84.74-.15.89-.13a1.77,1.77,0,0,0,0,.23,3.38,3.38,0,0,0,.21,1c0,.08.08.19.1.25s0,.07,0,.09l0,.1a1.24,1.24,0,0,1-.28.42,2.1,2.1,0,0,1-.42.36,2.68,2.68,0,0,1-.53.29,4.31,4.31,0,0,1-1.27.32,5.39,5.39,0,0,1-.7,0,4.15,4.15,0,0,1-.7-.07A5.29,5.29,0,0,1,15.65,6.8Zm11.74,0-.1-.06h0a.27.27,0,0,0,.07-.08.26.26,0,0,0,0-.23.27.27,0,0,0-.07-.14.3.3,0,0,0-.08-.08l-.07,0a1,1,0,0,0-.24-.08h-.18a.28.28,0,0,0,0-.16.44.44,0,0,0-.21-.19l-.08,0-.16,0H26a.63.63,0,0,0-.12-.1,1.48,1.48,0,0,0-.42-.14h-.27a1.21,1.21,0,0,0-.33.07.66.66,0,0,0-.38.32.5.5,0,0,0,0,.31.45.45,0,0,0,.11.23l-.41.3a1,1,0,0,0-.16.14A.23.23,0,0,0,24,7a1.08,1.08,0,0,1,0,.3.51.51,0,0,1-.15.23l-.22.24A5,5,0,0,0,22.9,8.8v0s0,0,.05,0a3.15,3.15,0,0,0,1.19-.93,1,1,0,0,0,.15-.31.59.59,0,0,0,0-.37c0-.09-.09-.2-.12-.29s.05-.13.17-.19.53-.21.75-.28l.08,0,0,0,.11.08.22.11.25.11c-.08,0-.17,0-.17,0l-.39.11s0,.06,0,.08a.29.29,0,0,1,0,.09c0,.06-.12.11-.24.14h0s0,0,0,0a.65.65,0,0,0,.45,0,.32.32,0,0,0,.1-.1,1.18,1.18,0,0,0,.37,0h0l0,0s-.09.1-.09.15a.25.25,0,0,0,.16.27.78.78,0,0,0,.24.09l-.37.27a1.74,1.74,0,0,0-.27.22,2.09,2.09,0,0,0-.16.27c-.19.33-.43.66-.63,1a6.3,6.3,0,0,1-.71.89l-.21.18-.26.18-.26.17-.07,0a3.17,3.17,0,0,0-.6-.77,3.09,3.09,0,0,0-.44-.32h0s0,0,0,0l.07.1a1.48,1.48,0,0,1,.19.28,3.21,3.21,0,0,1,.41,1,6.57,6.57,0,0,1,.14.72c0,.13,0,.26.07.4a.62.62,0,0,1,0,.18v.18a1.63,1.63,0,0,1-.37.76,2.81,2.81,0,0,1-.77.66,3.32,3.32,0,0,1-1.15.38,4.6,4.6,0,0,1-.64,0,6,6,0,0,1-.61,0l-.46-.07c.08-.2.15-.39.21-.56h0l.06,0h.08l.19,0A1.35,1.35,0,0,0,20,14a1,1,0,0,0,.5-.27.52.52,0,0,0,.11-.19.66.66,0,0,0,0-.21.6.6,0,0,0-.07-.18.66.66,0,0,0-.12-.17,2.33,2.33,0,0,0-.73-.44h0s0,0,0,0a2.24,2.24,0,0,1,.51.51,1.39,1.39,0,0,1,.06.13.28.28,0,0,1,0,.13.27.27,0,0,1,0,.11.28.28,0,0,1-.09.1.56.56,0,0,1-.24.1h-.16l-.05,0h0s0,0,0,0a.18.18,0,0,1,0-.06.64.64,0,0,1,.14-.21L19.24,13l-.07,0L19,13l-.37.05c-.12,0-.25,0-.38,0h-.37a7.52,7.52,0,0,1-1.5-.3,13.18,13.18,0,0,1-1.46-.5,3.33,3.33,0,0,1-.65-.34.67.67,0,0,1-.23-.21.36.36,0,0,1-.05-.25,2.65,2.65,0,0,1,.45-1.08c.21-.34.44-.69.66-1a5.48,5.48,0,0,1,.35-.49l.19-.22.13-.09,0,0h0s0,0,0,0h0l.08,0c.44-.22.85-.45,1.26-.69a5.1,5.1,0,0,0,.81.25,4.76,4.76,0,0,0,.77.12l.39,0h.4A4.62,4.62,0,0,0,21,7.89l2,1.51a4.35,4.35,0,0,0-.29-.53A2.36,2.36,0,0,0,21.21,7.8a2.49,2.49,0,0,0,.92-.75,1.23,1.23,0,0,0,.25-.53.75.75,0,0,0,0-.15.53.53,0,0,0,0-.16c-.06-.11-.11-.15-.15-.24a3.59,3.59,0,0,1-.37-1,1.85,1.85,0,0,1,0-.74,3,3,0,0,0,.5-.82c.34-.75-.41-1.55-1.24-2A5.68,5.68,0,0,0,17.52.89C15.6,1,13.82,2.41,13.6,3.72a2.27,2.27,0,0,0,.47,1.9l0,.06c.08.1.16.21.25.31.22.35.82,1.22.82,1.22V6.83l.49.66V7.13l.29.39-.09-.39a8.06,8.06,0,0,0,.76.46l.47.2c-.48.15-1,.3-1.41.47l-.1,0h0l0,0h0l0,0a1.2,1.2,0,0,0-.17.11,2.52,2.52,0,0,0-.29.26,3.42,3.42,0,0,0-.42.52,3.93,3.93,0,0,0-.54,1.11,5.11,5.11,0,0,0-.25,1.16.59.59,0,0,0,.07.31,1.22,1.22,0,0,0,.25.26,5.55,5.55,0,0,0,.62.41,9.51,9.51,0,0,0,1.4.66.47.47,0,0,0-.15.42.93.93,0,0,0,0,.13,1.28,1.28,0,0,0-.59.53.85.85,0,0,0,0,.83v0a.26.26,0,0,0,.19.1.43.43,0,0,0,0,.07,1.85,1.85,0,0,0-.14.65,2.39,2.39,0,0,0,.06.65,2.91,2.91,0,0,0,.18.64c.12.3.26.59.4.88a2.51,2.51,0,0,1-.26.31l-.4.4a6.12,6.12,0,0,1-.87.73,3.88,3.88,0,0,1-.48.3,3.4,3.4,0,0,1-.5.26c-.18.06-.34.14-.51.19l-.52.12h-.08a.8.8,0,0,0,.18-.15.43.43,0,0,0,.09-.15.21.21,0,0,0,0-.15,1,1,0,0,0,0-.24,1.53,1.53,0,0,0,0-.3,2.08,2.08,0,0,0-.22-.6,2.38,2.38,0,0,0-.44-.53,2.8,2.8,0,0,0-.63-.43l-.36-.16c-.11-.05-.25-.1-.34-.15a2.44,2.44,0,0,1-.56-.36,1.29,1.29,0,0,1-.36-.46.75.75,0,0,1,0-.39h.13a.16.16,0,0,0,.15-.07c0-.06,0-.13-.09-.16h0c-.65-.2-1.3-.39-2-.56S6.68,15.15,6,15H6a.29.29,0,0,0-.16,0c-.72.08-1.43.18-2.15.28s-1.42.22-2.13.36h0a5.34,5.34,0,0,0-.45,1.27,2.84,2.84,0,0,0-.08.66.92.92,0,0,0,.24.71.26.26,0,0,0,.1.07,1.42,1.42,0,0,0-.05.22,1.36,1.36,0,0,0,0,.29,1.63,1.63,0,0,0,0,.31,1,1,0,0,0,.4.61,1.06,1.06,0,0,0,.47.17.88.88,0,0,0,.45-.06.9.9,0,0,0,.26-.13A.75.75,0,0,0,3,19.63l0,0,1.55.72a1.85,1.85,0,0,0,.13.67,1.17,1.17,0,0,0,.3.39,1,1,0,0,0,.68.21,3.51,3.51,0,0,0,1-.15A.93.93,0,0,0,7,21.24.33.33,0,0,0,7.13,21l.76.1a14.29,14.29,0,0,0,1.74.08,8.89,8.89,0,0,0,.89-.07,4.48,4.48,0,0,0,.89-.23,7.87,7.87,0,0,0,.74-.32l.07,0a3,3,0,0,0,.42,0l.57-.1c.19-.05.38-.12.57-.19a2.5,2.5,0,0,0,.55-.25,3.55,3.55,0,0,0,.54-.3,6.23,6.23,0,0,0,1-.73l.45-.4.06-.07.25.51c.08.19.14.41.07.44a2.26,2.26,0,0,0-.34.65,2.65,2.65,0,0,0-.16.66,2.22,2.22,0,0,0,0,.68,1.33,1.33,0,0,0,.1.34c0,.06.06.12.08.17l.08.15a1.24,1.24,0,0,1-.15,1.1l-.17.29a1,1,0,0,0-.08.18l0,.06c0,.06,0,0,0,.06a.29.29,0,0,0,.09.17.77.77,0,0,0,.68.07s0,0,0,0a.23.23,0,0,0,.23.1h.09a.18.18,0,0,0,.11.07.38.38,0,0,0,.15,0l.21,0,.09-.05a.42.42,0,0,0,0,.1.39.39,0,0,0,.1.08l.14,0,.15,0,.09-.06a.32.32,0,0,0,.08-.09s0,0,0,.06a.36.36,0,0,0,.26.17.38.38,0,0,0,.21,0,.51.51,0,0,0,.15-.06.8.8,0,0,0,.28-.35,1.45,1.45,0,0,0,.12-.37v0a3.7,3.7,0,0,1-.06-1.1c.14-.42.27-.84.38-1.26a4.53,4.53,0,0,0,.13-.66c0-.21,0-.43.06-.65a9.55,9.55,0,0,0,0-1.31,4.81,4.81,0,0,0-.08-.65,3.41,3.41,0,0,0-.13-.53,2.09,2.09,0,0,0,.36,0l.3-.1c0,.07,0,.13.07.19a3.09,3.09,0,0,0,.25.42,2.41,2.41,0,0,0,.56.54,1.34,1.34,0,0,0-.21.2.74.74,0,0,0-.16.47,4.76,4.76,0,0,0,.23.85.83.83,0,0,1-.17.76,2.91,2.91,0,0,1-.36.32,2.59,2.59,0,0,0-.39.37.33.33,0,0,0,0,.36.88.88,0,0,0,.23.24l.48.3a6.69,6.69,0,0,1,.81.53l.14.15.05.07,0,0,0,.06a1.08,1.08,0,0,0,.63.35,1.5,1.5,0,0,0,.38,0c.14,0,.33-.07.37-.19s-.09-.33-.21-.44a0,0,0,0,0,0,0s0,0,0,0,.08.3,0,.36a.43.43,0,0,1-.33,0c-.13-.05-.26-.15-.26-.2l0-.09a.67.67,0,0,0-.06-.12,1.12,1.12,0,0,0-.16-.22,3.63,3.63,0,0,0-.9-.65c-.16-.09-.34-.17-.46-.25a.46.46,0,0,1-.12-.09s0,0,0-.05a3.65,3.65,0,0,1,.27-.33,4,4,0,0,0,.27-.4.75.75,0,0,0,.09-.45,3,3,0,0,0-.06-.43,3.43,3.43,0,0,1-.08-.42.74.74,0,0,1,0-.39.62.62,0,0,1,.22-.31.83.83,0,0,1,.32-.17h0a.23.23,0,0,0,.14-.07.16.16,0,0,0-.06-.27,3.59,3.59,0,0,1-.82-.58c-.17-.16-.34-.34-.51-.51a3.45,3.45,0,0,0,.5-.29,5.78,5.78,0,0,0,.93-.83l.37-.44a4.61,4.61,0,0,1,.37-.4,2.78,2.78,0,0,1,.41-.36l.22-.11c.06,0,.14,0,.08,0l.09,0c0,.05,0,.1.07.16a5.91,5.91,0,0,1,.35,1,10.58,10.58,0,0,1,.31,1.36,2.94,2.94,0,0,1-.09,1.55,3.16,3.16,0,0,1-.39.78c-.16.25-.36.48-.55.72a.93.93,0,0,0-.25.81,1.49,1.49,0,0,0,.44.68,3,3,0,0,0,.6.44.41.41,0,0,1,.25.29.43.43,0,0,1,0,.2s-.05-.07-.09-.09a.61.61,0,0,0-.17-.08.92.92,0,0,0-.07.13.89.89,0,0,0-.06.2,1.22,1.22,0,0,1,0,.17h0a.31.31,0,0,0-.13-.25.5.5,0,0,0-.17-.08.43.43,0,0,0-.08.12.53.53,0,0,0-.07.2.71.71,0,0,1,0,.15.32.32,0,0,1-.06.11.32.32,0,0,0,.22,0,.38.38,0,0,0,.24-.17.38.38,0,0,0,.21,0,.37.37,0,0,0,.3-.26s0,0,0-.06l.06-.05a.66.66,0,0,0,.18-.29.47.47,0,0,0-.22-.5,3.61,3.61,0,0,1-.45-.43,2.28,2.28,0,0,1-.34-.55.8.8,0,0,1,0-.66,3.42,3.42,0,0,1,.41-.74c.16-.25.37-.5.54-.76A2.29,2.29,0,0,0,24.8,18a3.43,3.43,0,0,0,0-.84,3.18,3.18,0,0,0-.14-.77,4.08,4.08,0,0,0-.28-.67,3.55,3.55,0,0,0-.34-.54,2.69,2.69,0,0,0-.33-.39l-.12-.12.15,0a.81.81,0,0,0,0-.2,1.34,1.34,0,0,0,0-.2,1.59,1.59,0,0,0-.07-.38,1.86,1.86,0,0,0-.26-.53,1.78,1.78,0,0,0,.26-.56.66.66,0,0,0,0-.24,1.44,1.44,0,0,0,0-.24,2.59,2.59,0,0,0-.09-.4,4.12,4.12,0,0,0-.24-.75l0-.09h.08a2.72,2.72,0,0,0,.43-.09,3.34,3.34,0,0,0,.38-.15,1.9,1.9,0,0,0,.33-.22,2.8,2.8,0,0,0,.75-1,3.92,3.92,0,0,0,.36-1.08c0-.1,0-.19.07-.25A.81.81,0,0,1,26,8a3,3,0,0,1,.61-.33.09.09,0,0,0,.06,0c0-.05,0-.1-.06-.13h0a1,1,0,0,1-.24-.13h0l0,0s0,0,0,0l.31-.2A.85.85,0,0,1,26.89,7H27l.07,0,0,0a.08.08,0,0,1,0,.07,1.57,1.57,0,0,1-.44.47,0,0,0,0,0,0,0s0,0,0,0a1.8,1.8,0,0,0,.41-.14,1.19,1.19,0,0,0,.36-.24A.33.33,0,0,0,27.54,7,.33.33,0,0,0,27.39,6.8Z"/><path class="cls-6" d="M19,5l.18.09s.07-.27-.76-.21a2.91,2.91,0,0,0-1.55.73S18.51,4.82,19,5"/><path class="cls-6" d="M18.29,5.74c.25.06.53-.06.48-.15a.45.45,0,0,1,0-.14l.18,0s0-.15-.33-.09a8.09,8.09,0,0,0-1.06.3l.62-.09s-.11.14.15.19"/><path class="cls-6" d="M21.25,5.35c.05-.11-.13-.13,0-.14a.75.75,0,0,1,.29.06c.06-.21-.36-.16-.63-.08s-.25.16-.25.16c.32-.08,0,.11.25.16a.29.29,0,0,0,.37-.16"/><path class="cls-6" d="M19.1,7.08A2,2,0,0,0,20.33,7c.17-.16.12-.28.3-.35a4.78,4.78,0,0,1-1.24.17c-.58,0-1.06-.09-1.06-.09a1.17,1.17,0,0,0,.77.34"/><path class="cls-6" d="M19.39,7.32c-.5-.12-.8,0-.58.11s1.09,0,.58-.11"/><path class="cls-6" d="M16.59,6.52l0,0Z"/><path class="cls-6" d="M20.9,12.89a.39.39,0,0,0-.08-.21.55.55,0,0,0-.17-.17.69.69,0,0,0-.23-.11s0,.07.08.17a1.79,1.79,0,0,1,.09.35c0,.13,0,.26,0,.37a1.7,1.7,0,0,0,0,.19.68.68,0,0,0,.16-.16.62.62,0,0,0,.12-.39.71.71,0,0,0,.2-.1.45.45,0,0,0,.19-.41.58.58,0,0,0-.31-.37,1,1,0,0,0-.16-.07l-.07,0,.09.16a.8.8,0,0,1,.08.16,1,1,0,0,1,.05.16.61.61,0,0,1,0,.33s0,.09-.05.12"/><path class="cls-6" d="M21.35,12.4a0,0,0,0,0,0,0,.7.7,0,0,0,.43-.29.31.31,0,0,0,0-.25.42.42,0,0,0-.17-.23,1.5,1.5,0,0,0-.52-.26l-.14,0-.08,0h-.07a2,2,0,0,0-.27,0,3.89,3.89,0,0,0-.6,0l-.55.1-.52.13-.33.11c-.21-.16-.44-.31-.66-.46a7.69,7.69,0,0,0-.69-.39,3.57,3.57,0,0,0,.17-1,0,0,0,0,0,0,0h0a4.91,4.91,0,0,0-.77,1.06.15.15,0,0,0,.07.21l0,0a7.48,7.48,0,0,0,.83.48,9.41,9.41,0,0,0,.91.42l.07,0a.2.2,0,0,0,.22,0,1.28,1.28,0,0,1,.33-.24,1.66,1.66,0,0,1,.46-.15,2.08,2.08,0,0,1,1,.08l.24.06h.06l.05,0,.11,0a1.53,1.53,0,0,1,.38.13.31.31,0,0,1,.11.08.16.16,0,0,1,0,.1.55.55,0,0,1-.14.32v0"/><path class="cls-6" d="M6,18.14H6a10.91,10.91,0,0,0-.72-1,15.1,15.1,0,0,0,2-.1,8.62,8.62,0,0,0,1-.15l.88-.19a3.55,3.55,0,0,1,.29.74c-.43,0-.87-.07-1.31-.08l-.12,0H8c-.39.13-.79.26-1.17.4L6,18.14m2.26-.39c.46,0,.93-.06,1.4-.09h.07c.06,0,.1-.07.07-.12a3.69,3.69,0,0,1-.42-1,.12.12,0,0,0-.12-.07h0l-1,.05a8.44,8.44,0,0,0-1,.12,13,13,0,0,0-2,.43s0,0,0,0A7.34,7.34,0,0,0,5.6,18.5s0,0,0,0a.36.36,0,0,0,.37.09H6q.6-.2,1.17-.42C7.57,18.06,7.92,17.9,8.28,17.75Z"/><path class="cls-6" d="M4.4,17.26h0a1.16,1.16,0,0,0,.1.51,1.68,1.68,0,0,0,.27.46,5.93,5.93,0,0,0-1.08-.51c0-.12,0-.25,0-.37A2.62,2.62,0,0,0,3.56,17a2.22,2.22,0,0,1,.39.1,2.53,2.53,0,0,1,.45.19m.43-.18A.17.17,0,0,0,4.72,17c-.23,0-.47,0-.69-.08a3.26,3.26,0,0,1-.62-.22H3.36a.15.15,0,0,0-.16.07v0a2.35,2.35,0,0,0-.14.52,3,3,0,0,0,0,.52H3c0,.09.08.17.2.21a6.7,6.7,0,0,0,1.65.25l0,0a1.42,1.42,0,0,0,.11-.6,1.2,1.2,0,0,0-.14-.57Z"/><path class="cls-6" d="M11.81,19.06h0s0,0,0,0"/><path class="cls-6" d="M16.8,7.59A8.88,8.88,0,0,1,18.73,9.3s.88.09.94.4-.35.61-.35.61-.45-.43-.71-.44-.28-.4-.28-.4a9.24,9.24,0,0,0-1.26-1A8.19,8.19,0,0,1,15.59,7c-.08-.09,1.21.64,1.21.64"/><path class="cls-6" d="M21.52,7.38a3.39,3.39,0,0,0,.15,1.24c.19.48.34.48.34.68s-.25.4-.25.4-.66-.24-.54-.64a1.06,1.06,0,0,0,.08-.52l-.44-.76Z"/></svg>