<svg id="Capa_1" data-name="Capa 1" xmlns="http://www.w3.org/2000/svg" viewBox="0 0 28.56 18.9"><defs><style>.cls-1{fill:#fbc9b7;}.cls-2{fill:#231f20;}.cls-3{fill:#6d6f71;}</style></defs><title>2-8meses</title><path class="cls-1" d="M12.59,16.93H25.35a7.22,7.22,0,0,0-1.71-1c-.86-.31-2-.95-1.5-1.82S24.7,12.74,25,12.33s1.73-5.18-.39-6.13-7.08-.64-8.07-.61S13.14,7,13,7.84s.36,2.5.27,3.1-.45,1-.21,1.54a4.39,4.39,0,0,0,2.53,1.79s.34.15.27.27a7.57,7.57,0,0,1-1.68.33c-.54.09-1.29.25-1.55.8a2,2,0,0,0,0,1.26"/><path class="cls-2" d="M11.34,7.3h0a2,2,0,0,1-.71.77,7.18,7.18,0,0,1-1.1.62h0l-.2.16L9.13,9a1.41,1.41,0,0,0-.24.36,1.12,1.12,0,0,0-.09.8,2.32,2.32,0,0,0,1,1.2,5.82,5.82,0,0,1-1.61-.84,1.36,1.36,0,0,1-.48-.64.93.93,0,0,1,.06-.69L7.93,9,7.59,9A17.31,17.31,0,0,1,4.71,9a12.93,12.93,0,0,1-1.41-.2A7.21,7.21,0,0,1,2,8.41a1.37,1.37,0,0,1-.81-.75.91.91,0,0,1,.37-.91,3.73,3.73,0,0,1,1.14-.6,8.54,8.54,0,0,1,1.37-.31A15.6,15.6,0,0,1,7,5.76c.48,0,1,.06,1.45.12a12.21,12.21,0,0,1,1.39.23A4.16,4.16,0,0,1,11,6.56c.31.2.44.46.33.74m0-1A4.39,4.39,0,0,0,10,5.77,12.44,12.44,0,0,0,8.5,5.55c-.5,0-1-.08-1.49-.09a14.89,14.89,0,0,0-3,.2A9,9,0,0,0,2.62,6a3.58,3.58,0,0,0-1.17.65,1,1,0,0,0-.43,1,1.52,1.52,0,0,0,.82.88,8.23,8.23,0,0,0,2.8.77,12.72,12.72,0,0,0,1.51.07,12.1,12.1,0,0,0,1.21-.06,1,1,0,0,0,0,.64,1.79,1.79,0,0,0,.62.7,4.45,4.45,0,0,0,.92.48,7,7,0,0,0,1,.32h.09l-.06,0a4,4,0,0,1-.62-.61,1.45,1.45,0,0,1-.31-.68,1,1,0,0,1,.15-.68,1.38,1.38,0,0,1,.24-.3L9.62,9l.16-.11A8,8,0,0,0,11,8.31a2.28,2.28,0,0,0,.88-.92.74.74,0,0,0,0-.6A1.21,1.21,0,0,0,11.38,6.29Z"/><path class="cls-2" d="M19,9.66c-1.38-.09-1.27.35-1.27.35L18,9.86c.87-.35,3.51,1,3.51,1A4.82,4.82,0,0,0,19,9.66"/><path class="cls-2" d="M15.16,11.86c.37.21.45.32,1,.21,0,0-.9-.15-.73-.56s.67-.64.47-1.35a1.77,1.77,0,0,0-2.31-.82v.1s1.11-.19,1.53.21.87.86.39,1.38-.67.62-.31.83"/><path class="cls-2" d="M18.76,10.37c-.58-.1-.55.16-.55.16l.3,0a.62.62,0,0,1-.07.23c-.07.16.38.36.8.26s.24-.32.24-.32l1,.16a13.46,13.46,0,0,0-1.74-.51"/><path class="cls-2" d="M14.35,10.4a.48.48,0,0,0,.61.26c.34-.08-.12-.4.41-.26,0,0,0-.13-.41-.26s-1.13-.22-1.05.12a1.35,1.35,0,0,1,.49-.1c.16,0-.14.05-.05.24"/><path class="cls-2" d="M22,12.33l0,0a.12.12,0,0,0,0,0"/><path class="cls-2" d="M25.76,11.42A4.33,4.33,0,0,0,27,7.7C26.6,5.55,23.68,3.27,20.5,3S16,3.21,14.64,4,12,6,12.6,7.24c.05.09.09.18.13.26a.78.78,0,0,0,0,.14,6.54,6.54,0,0,0,0,1,6.46,6.46,0,0,0,.16,1c0,.16.11.33.16.48l.07.24,0,.23a2.11,2.11,0,0,1-.13.95,3.92,3.92,0,0,0-.13.49,1,1,0,0,0,.06.5.62.62,0,0,0,.11.25,1.24,1.24,0,0,0,.17.23,2.8,2.8,0,0,0,.43.41c.16.13.34.24.51.36l.55.33a7.14,7.14,0,0,0,.73.37l.19.07-.47.05c-.28,0-.6.09-.94.16l-.52.11-.14,0h0l-.06,0-.06,0a1.18,1.18,0,0,0-.27.11.79.79,0,0,0-.23.16,1,1,0,0,0-.19.16,2.86,2.86,0,0,0-.28.35.94.94,0,0,0-.17.37,1,1,0,0,0,0,.34,1.22,1.22,0,0,0,.34.64h.05s0-.07,0-.18,0-.28,0-.47,0-.19,0-.3,0-.22,0-.34a.53.53,0,0,1,.15-.34.85.85,0,0,1,.41-.21,1.85,1.85,0,0,1,.27,0h.26l.56-.07a3.86,3.86,0,0,0,.51-.09l.44-.12a4.47,4.47,0,0,0,.63-.24l.33.11a5.31,5.31,0,0,0,.9.18l.47,0h.47l.48-.07a3.13,3.13,0,0,0,.44-.1,5.25,5.25,0,0,0,.82-.27,7.27,7.27,0,0,0,1.41-.76l0,0a12.71,12.71,0,0,1-1.53.58c-.26.08-.53.15-.8.21a2.7,2.7,0,0,1-.41.06l-.39,0h-.42l-.4,0a6.91,6.91,0,0,1-.79-.16c-.26-.08-.51-.16-.76-.26a5.67,5.67,0,0,1-.7-.31h0l-.56-.29c-.18-.1-.36-.2-.52-.31a2.78,2.78,0,0,1-.46-.35,1.7,1.7,0,0,1-.19-.19.8.8,0,0,1-.13-.21A.85.85,0,0,1,13,12a2.11,2.11,0,0,1,.12-.48,4.49,4.49,0,0,0,.27-1c0-.09,0-.18,0-.26l0-.25c0-.17-.07-.32-.09-.48-.07-.32-.13-.64-.17-1,0-.16,0-.32-.06-.47a1.86,1.86,0,0,0,.47.58l-.5-1.09,1.78,1.29-.74-1.41L16,9l-.61-.63,1.79.75-.48-1.45,1.53,1.45-.38-.83,1,.9L18.5,7.88l1.78,1.58-1.11-2,2.46,1.74L21.15,8a3.6,3.6,0,0,1,1.52,2.32,2.83,2.83,0,0,1-.64,2l.83-.9-.11.63a1.44,1.44,0,0,0,.76-.84s.93-.67,1.46-.42-.24,1.41-1,1.89l-.46.3h0a3.35,3.35,0,0,0-.79.36,2.69,2.69,0,0,0-.58.53.83.83,0,0,0-.09.16.43.43,0,0,0-.05.16.8.8,0,0,0,0,.34.44.44,0,0,0,0,.16.53.53,0,0,0,0,.17,1,1,0,0,0,.14.31h0a1.24,1.24,0,0,0,.14.18,1.29,1.29,0,0,0,.17.16,2,2,0,0,0,.41.28,3.48,3.48,0,0,0,.48.21l.24.1.24.08c.13.05.28.1.42.17l.41.2a5.6,5.6,0,0,1,.76.51l0,0a1,1,0,0,0-.19-.36,1.93,1.93,0,0,0-.31-.33,3.05,3.05,0,0,0-.89-.51l-.25-.08-.24-.07-.46-.16-.43-.18-.19-.11-.16-.13h0a.64.64,0,0,0-.1-.13.53.53,0,0,1-.06-.14.39.39,0,0,1,0-.3l.06-.14.09-.13a1.5,1.5,0,0,1,.11-.13l.11-.12c.07-.09.15-.17.23-.26l.24-.24.23-.22-.17.68.48-.65v.59l.81-1.09v.63s1-1.47,1.38-2"/><path class="cls-2" d="M23.47,12.32a.29.29,0,0,0,.14.11.6.6,0,0,0,.35,0,.24.24,0,0,0,.22-.16.2.2,0,0,0,0-.14.56.56,0,0,0-.08-.11h0a.87.87,0,0,1,0,.11.38.38,0,0,1,0,.1.14.14,0,0,1-.11.05l-.19,0-.08,0s0,0,0,0a2.52,2.52,0,0,0,.22-.47c0-.07,0-.17.06-.22s0,0,0,0l.15,0,.27-.13.19-.12c.06,0,0,0,.08,0a.24.24,0,0,1,.05.1.31.31,0,0,1,0,.11h0l.05-.11a.27.27,0,0,0,0-.15.17.17,0,0,0-.12-.09.45.45,0,0,0-.2,0,2.49,2.49,0,0,0-.27.11L24,11.3l-.13.06-.1.06a.11.11,0,0,0-.05.09.9.9,0,0,0,0,.24.45.45,0,0,1-.2.42s-.12.07-.07.15"/><polygon class="cls-2" points="14.69 14.08 14.69 14.08 14.68 14.07 14.69 14.08"/><path class="cls-2" d="M18.15,12.71A2.15,2.15,0,0,0,16,12.52c.74.23-.31.73.52,1.13s2.46-.16,1.64-.94"/><path class="cls-2" d="M16.82,14c-.07.21.87.31.94.28s-.05-.18-.26-.28a1.47,1.47,0,0,0-.68,0"/><path class="cls-3" d="M2.73,8.19h0l0-.81h.29l0,.81Zm.38-1.08c0,.08-.07.14-.19.14s-.2-.06-.2-.14S2.81,7,2.92,7,3.11,7,3.11,7.11Z"/><path class="cls-3" d="M3.91,7.39h0l-.05-.25a2.8,2.8,0,0,1-.06-.28h0c0,.08,0,.21-.06.28l-.07.25Zm-.28.18-.08.28H3.22L3.6,6.64H4l.34,1.21H4L4,7.57Z"/><path class="cls-3" d="M5.08,7.39h0L5,7.14c0-.08,0-.2,0-.28H5c0,.08,0,.21-.06.28l-.07.25Zm-.28.18-.08.28H4.39l.38-1.21h.41l.34,1.21H5.19l-.08-.28Z"/><path class="cls-3" d="M6.25,7.39h0l-.06-.25c0-.08,0-.2-.06-.28h0c0,.08,0,.21-.07.28L6,7.39ZM6,7.57l-.08.28H5.55l.39-1.21h.4l.35,1.21H6.36l-.08-.28Z"/><path class="cls-3" d="M7.41,7.39h0l0-.25a2.8,2.8,0,0,1-.06-.28h0c0,.08,0,.21-.06.28l-.07.25Zm-.28.18-.08.28H6.72L7.1,6.64h.41l.34,1.21H7.52l-.07-.28Z"/><polygon class="cls-3" points="8.36 6.64 8.36 7.12 8.72 7.12 8.72 6.64 9.06 6.64 9.06 7.84 8.72 7.84 8.72 7.34 8.36 7.34 8.36 7.84 8.02 7.84 8.02 6.64 8.36 6.64"/><path class="cls-3" d="M9.29,7.72h0c0-.09.1-.15.2-.15s.2.06.2.15-.08.14-.2.14-.2-.06-.2-.14m.05-.27,0-.81h.38l0,.81Z"/><path class="cls-2" d="M23,3.93s-.87-.72.24-1.33,2.92.51,3.26.89A4.65,4.65,0,0,1,27,5.09s-1.9-.38-3-.56-1.19.12-1-.6"/></svg>