<svg id="Capa_1" data-name="Capa 1" xmlns="http://www.w3.org/2000/svg" viewBox="0 0 26.16 22.08"><defs><style>.cls-1{fill:#0070a2;}.cls-2{fill:#f05050;}.cls-3{fill:#b3d335;}.cls-4{fill:#f5a4c7;}.cls-5{fill:#fbc9b7;}.cls-6{fill:#231f20;}</style></defs><title>3-8meses</title><path class="cls-1" d="M21,10.51l1.46.59.22.82-1.4-.38s-.48-.91-.28-1"/><path class="cls-2" d="M22.55,11.16l-1.4-.47a.76.76,0,0,1,.11-.23l.85-.59,1.41.41Z"/><path class="cls-3" d="M22.47,11.1l.14.82.37-.06c.05,0,.83-.82.83-.82l-.19-.65Z"/><path class="cls-4" d="M7,14.35s-2.73,1.06-3,1.25a3.36,3.36,0,0,0-.26,2c.18.23,0,1.77,1.58,2.06a8.12,8.12,0,0,0,3.67-.54s3.16-2.78,3.17-2.82-5.19-2-5.19-2"/><path class="cls-5" d="M11.12,16.81s.26-.4.16-.53a3.47,3.47,0,0,0-1-.25l-4.89-.54H4.24A14,14,0,0,1,6.16,12.1c1-1.21,2.43-2.38,2.46-2.61a3.19,3.19,0,0,0-.1-1.29c-.14-.28-.33-1.16.24-1.5s4.66-2.11,5.07-1.89,1.07.65,1.07.65a.94.94,0,0,1,0,1.1c-.4.58-.77.87-.38,1.24s.45.62.08.78l-.37.15s.3.11.26.26-.8.2-.8.2.48.11.5.29-.38.22-.38.22.38.25.22.33a9.17,9.17,0,0,1-1.19.25,11.37,11.37,0,0,0,1.95.3,13.71,13.71,0,0,0,4.72-.83c1.86-.74-.53.88-.53.88s-.22.24.16.41.56.31.37.45a8.21,8.21,0,0,1-1.82,0,5.62,5.62,0,0,1-1.84.51c-1.22.15-2.46.24-2.46.24L12.14,12s.15.89-.07,1.12a1.72,1.72,0,0,0-.32.68s.62.18.93-.14.83-.77,1.07-.78,0,.14.28.24.38,0,.4.22.37.66.29.84-.38.31-.55.5a10.36,10.36,0,0,1-1.7.66.53.53,0,0,0,.51.15,7.75,7.75,0,0,1,1.91-.06,2.39,2.39,0,0,1,.62.55,3,3,0,0,0,1.39.12c.44-.16.82-.22.87-.12s0,.06.06.32.18.29.18.29l-.23.21s1,.1,1.11.27a1.52,1.52,0,0,1,.21.79.68.68,0,0,1-.68.64,14,14,0,0,1-1.71-.24,9.67,9.67,0,0,1-2.91,1.28c-1,.1-2.29.27-3.64.34a7.7,7.7,0,0,1-3.25-.24c-1.15-.37-1.61-1.15-1.1-1.94a3.62,3.62,0,0,1,3.13-1.25c1.15.14,2.18.35,2.18.35"/><path class="cls-6" d="M13.5,7.9a.57.57,0,0,0,.33-.31s.16,0,.15.08.24-.3-.3-.17A1,1,0,0,0,13,8l.33-.16s-.05.2.19.1"/><polygon class="cls-6" points="15.35 6.7 15.33 6.61 15.32 6.62 15.35 6.7"/><path class="cls-6" d="M20.11,9.8h0s0,0,0,0m-1.06.37h0l-.05,0h0a1.08,1.08,0,0,0-.34.37.38.38,0,0,0-.05.28c0,.12.16.23.27.27a1.57,1.57,0,0,0,.26.1l.18.07s0,0,0,.05a.06.06,0,0,1,0,0s-.18,0-.33,0l-.29,0h-.28a2.15,2.15,0,0,1-1-.15h0s0,0,0,0l.18.12h-.14c-.16,0-.38.06-.64.12a3.48,3.48,0,0,0-.41.1L16,11.8a2.43,2.43,0,0,1-.48.14,3.31,3.31,0,0,1-.55,0H13c-.36,0-.65,0-.8,0a1.38,1.38,0,0,1-.06-.26.93.93,0,0,1,0-.33,1.88,1.88,0,0,0,.06-.31,1.26,1.26,0,0,0,0-.28,1.34,1.34,0,0,0-.22-.45l.89,0a3,3,0,0,0,1,.35,5.31,5.31,0,0,0,1.19.09,11.3,11.3,0,0,0,1.17-.08c.38-.05.76-.11,1.14-.19l.57-.11a3.66,3.66,0,0,0,.53-.18c.35-.11.71-.21,1.07-.29l.36-.06A8,8,0,0,1,19.05,10.17ZM11.92,12h0a2,2,0,0,0-.09.33l-.05.32a2.9,2.9,0,0,0,0,.56v.52H11.6a1,1,0,0,0,0-.28,3.73,3.73,0,0,0-.2-.4,5.3,5.3,0,0,0-.47-.74c-.14-.19-.25-.32-.25-.32h0s0,0,0,0,.06.13.13.34.17.49.24.77,0,.28.08.41a1.53,1.53,0,0,0,.16.34,1.89,1.89,0,0,0,.24.34h.05a.37.37,0,0,0,0-.11.83.83,0,0,0,.06-.27v0a3.92,3.92,0,0,0,.8.14,1.27,1.27,0,0,0,.27,0,.49.49,0,0,0,.16-.05L13,13.8a1.6,1.6,0,0,0,.2-.33.22.22,0,0,1,.09-.1s.06,0,.13-.08a.88.88,0,0,0,.21-.12l.18-.12h0a.46.46,0,0,1,.05.21h0a.13.13,0,0,0,0,.06.26.26,0,0,0,.29.1l.14,0v.2a.55.55,0,0,0,.17.35c.05.05.06.05.06.07s0,.06,0,.11a.25.25,0,0,0,0,.22l0,0s0,0,0,0a.94.94,0,0,1-.26.2,5.12,5.12,0,0,1-.7.36,14.76,14.76,0,0,1-1.59.48l-.82.19a3.06,3.06,0,0,1-.36,0h-.17l-.18,0a2,2,0,0,1-1.11-.73,5.39,5.39,0,0,1-.61-1.08c-.21-.38-.41-.75-.59-1.13a1.55,1.55,0,0,1-.15-1.15s0,0,0,0h0a1.39,1.39,0,0,0-.13,1.22,8.25,8.25,0,0,0,.44,1.17l.24.58a2.56,2.56,0,0,0,.38.59,2.64,2.64,0,0,0,1.33.82l-.26-.05c-.68-.12-1.37-.21-2.06-.3s-1.39-.16-2.1-.2a7.78,7.78,0,0,0-1.08,0,1.43,1.43,0,0,0-.29,0,7.72,7.72,0,0,1,.56-1.16c.24-.44.51-.87.79-1.29a11.34,11.34,0,0,1,2.09-2.38c.22-.18.43-.34.68-.51a1,1,0,0,0,.47-.75.78.78,0,0,0-.12-.39L8.7,8.46A.51.51,0,0,1,8.93,8a.86.86,0,0,0,0,.24,1.34,1.34,0,0,0,.35.5,1.44,1.44,0,0,0,.25.18A1.78,1.78,0,0,0,9.86,9a1.22,1.22,0,0,0,.48,0l.17,0V9h-.17a.93.93,0,0,1-.39-.1,1,1,0,0,1-.56-.74.34.34,0,0,1,0-.2l0,0,0,0h0c.44,0,.53.1,1,.43l-.13-.36h0v0l.4.28a1.26,1.26,0,0,1-.38-.8,1,1,0,0,0,.25-.58s0-.2,0,.27l-.1.58L11,7l-.11.52L11.44,7l.76-.92,0,.76.6-1-.19,1.06L13,6.33l.83-1-.22.91.45-.7,0,1.14a2.94,2.94,0,0,0-1.42.8s1.08-.87,1.89-.6c0,0-.09-.25-.46-.2l.72-1.16a1.81,1.81,0,0,1,.16.42,1,1,0,0,1-.07.67c-.11.21-.26.43-.38.65a1.39,1.39,0,0,0-.16.35c0,.13.08.27.19.36a1.27,1.27,0,0,1,.29.27c.07.08,0,.15-.17.22a1.33,1.33,0,0,1-.21.09l-.12.06a.11.11,0,0,0,0,.14,1,1,0,0,0,.11.17c.05,0,.09.12.07.11a.92.92,0,0,1-.4.07h-.5a.09.09,0,0,0-.09.05s0,.06.06.07a4,4,0,0,1,.58.18l0,0v.11s-.1.07-.2.11a.15.15,0,0,0-.11.07.12.12,0,0,0,0,.11s.06.07.06.09,0,.06-.12.09a1.46,1.46,0,0,1-.3.07l-.32,0a9.67,9.67,0,0,1-1.32,0H11.5l-.34,0H11l-.14.05a.26.26,0,0,0-.11.16.5.5,0,0,0,0,.27h0a.16.16,0,0,0,.19.08c.09,0,.15-.07.13-.13h0a.31.31,0,0,1,0-.19.08.08,0,0,1,0-.05h0s0,0,0,0l.33,0h.32a.25.25,0,0,1,0,.07,2.22,2.22,0,0,0,0,.41,1.32,1.32,0,0,0,0,.27,2.85,2.85,0,0,0,.11.3.9.9,0,0,1,.09.32A1.32,1.32,0,0,1,11.92,12Zm1.13,3.56H14a3.6,3.6,0,0,1,.93,0l.21.07.16.11a1,1,0,0,1,.08.14l0,.14s0,.06.07.08h0a3.12,3.12,0,0,0,.76.17,3.31,3.31,0,0,0,.83,0l.21-.05.17,0a1.47,1.47,0,0,1,.26-.05h0a.41.41,0,0,1-.06.11l0,0a.11.11,0,0,0,0,.16.78.78,0,0,1,.15.1l.06,0,0,0h0l-.05,0a.38.38,0,0,0-.09.09,0,0,0,0,0,0,0l-.67-.11a3,3,0,0,0-.52,0,1.42,1.42,0,0,0-.29,0,1.07,1.07,0,0,0-.32.08l-.05,0h0l0,0h0l-.08.05-.17.09a1.52,1.52,0,0,1-.36.12,4.92,4.92,0,0,1-.87,0,8,8,0,0,0-1,0,8.39,8.39,0,0,0-.86.1,3.44,3.44,0,0,0-.68-.24c-.21-.06-.44-.1-.66-.15h0a.78.78,0,0,0,.06-.37.31.31,0,0,0-.12-.19.9.9,0,0,0-.27-.1L10.56,16h.19a3.78,3.78,0,0,0,.48-.09l.81-.26.17-.06Zm4.7.51h0S17.74,16.09,17.75,16.09Zm.49,1h.25a.53.53,0,0,1,.31.06c.08.06.11.12,0,.18s-.32.08-.36.14,0,0,0,0h-.06s0,0,0,0h.23a1.47,1.47,0,0,0,.26-.05h0a.16.16,0,0,1,0,.08s-.07,0-.13.06l-.23.1a.55.55,0,0,0-.13.09.7.7,0,0,0,.16.05.77.77,0,0,0,.3,0l-.13.08h-.06l-.11.05a.32.32,0,0,0-.09.09l.15,0,.14,0h0s0,0,0,0h.07l-.05,0h0l-.09,0-.15.06a.8.8,0,0,0-.13.1.65.65,0,0,0,.18,0h.11a1.05,1.05,0,0,1-.31,0l-.25,0-.27-.06c-.37-.08-.74-.14-1.11-.21a.31.31,0,0,0-.21,0h0l-.9.54a7.17,7.17,0,0,1-1,.48,5.34,5.34,0,0,1-.52.18l-.57.11c-.41.08-.8.16-1.21.21a9.87,9.87,0,0,1-1.23.1h-.61l-.61,0c-.4,0-.81,0-1.21,0-.2,0-.41,0-.61,0H7.84a.21.21,0,0,0-.14-.12h0a6.12,6.12,0,0,1-1.09-.4A3.7,3.7,0,0,1,6.15,19a1.1,1.1,0,0,1-.3-.31,1.34,1.34,0,0,1-.07-.18c0-.06,0-.11,0-.17l0-.09a.23.23,0,0,1,0,0l0-.06a1.24,1.24,0,0,1,.1-.2,1.72,1.72,0,0,1,.25-.37,1.87,1.87,0,0,1,.34-.35A3.44,3.44,0,0,1,6.94,17a2.87,2.87,0,0,1,.51-.21A3.39,3.39,0,0,1,8,16.62a4.07,4.07,0,0,1,.61-.05c.21,0,.4,0,.62,0l.65.06H10L11,17l.67.19a5.31,5.31,0,0,1,.61.22c.28.18.58.34.86.51h0a.18.18,0,0,0,.19,0c.05,0,.05-.09,0-.13h0l-.67-.54a4.18,4.18,0,0,1,.71,0c.32,0,.61.06.93.1a3.9,3.9,0,0,0,1,0,1.73,1.73,0,0,0,.52-.14,1.12,1.12,0,0,0,.22-.1l.11-.05h0l.05,0,.13,0h.19L17,17,18,17ZM4.72,19.22h0a1.41,1.41,0,0,1-.53-.56A1.91,1.91,0,0,1,4,18a5.85,5.85,0,0,1-.07-.72,8.54,8.54,0,0,1,0-1.43c0-.16.37-.19.69-.19s.68,0,1,.05l2.07.18,2.07.21,1,.12c.36,0,.36.29.34.51l-.62-.08-.63-.1-.64-.1c-.21,0-.44-.06-.66-.07a4,4,0,0,0-.69,0,3.61,3.61,0,0,0-.67.13,4.16,4.16,0,0,0-.62.23,3.8,3.8,0,0,0-.52.32,2.19,2.19,0,0,0-.41.39,1.88,1.88,0,0,0-.31.43,1.5,1.5,0,0,0-.11.22l0,.05a.36.36,0,0,0,0,.07l0,.13a.82.82,0,0,0,0,.27,1.19,1.19,0,0,0,.11.26,1.49,1.49,0,0,0,.41.42,3.16,3.16,0,0,0,.54.31h0l-.74-.08A2.43,2.43,0,0,1,4.72,19.22ZM19.93,9.53a3,3,0,0,0-.57.15c-.36.12-.69.26-1,.39a3.33,3.33,0,0,1-.51.16,3.43,3.43,0,0,1-.56.07c-.38,0-.77,0-1.15.06L15,10.42a6.85,6.85,0,0,1-1.11,0,6,6,0,0,1-.83-.15h.15a2.56,2.56,0,0,0,.68-.13A.7.7,0,0,0,14,10a.14.14,0,0,0,.05-.17A.52.52,0,0,0,14,9.75h0c.09,0,.25-.07.3-.18a.22.22,0,0,0,0-.14s0-.07-.05-.09l-.08-.05L14,9.2H14l.27,0a.46.46,0,0,0,.28-.12c0-.05,0-.11,0-.14l-.06-.08a.45.45,0,0,1-.1-.14s0,0,0,0l.09,0,.21-.1a.77.77,0,0,0,.21-.14.17.17,0,0,0,0-.22,1.42,1.42,0,0,0-.31-.29c-.11-.09-.18-.18-.15-.28a1.91,1.91,0,0,1,.16-.32c.13-.22.27-.42.39-.65A1.13,1.13,0,0,0,15.13,6l.2.57a2.24,2.24,0,0,0-1.45-2.42l-.07,0L13.58,4l-.33-.12A7.7,7.7,0,0,0,9.4,3.49c-1.19.15-3.63,1.3-3.52,3.26S7.76,8.5,8.35,9.08a.7.7,0,0,1,.08.23.69.69,0,0,1-.34.51c-.22.16-.46.36-.67.54a10.1,10.1,0,0,0-2,2.49c-.25.44-.5.88-.7,1.33a8.11,8.11,0,0,0-.44,1.22l-.19,0a.72.72,0,0,0-.28.13.29.29,0,0,0-.13.23c0,.49.08,1,.11,1.45A5.65,5.65,0,0,0,4,18.7a1.48,1.48,0,0,0,.53.66,2.55,2.55,0,0,0,1,.4c.37.08.7.11,1,.16s.69.09,1.08.1a.24.24,0,0,0,.22-.09,8.07,8.07,0,0,0,2.14.16,8.57,8.57,0,0,0,1.24-.15c.4-.07.8-.14,1.21-.19s.82-.09,1.23-.12a5,5,0,0,0,.64-.05,4,4,0,0,0,.62-.15,7.35,7.35,0,0,0,1.91-1l1,.09h.3a1.08,1.08,0,0,0,.31,0,1,1,0,0,0,.48-.19l.12,0c.18-.1.18-.23.16-.3a.38.38,0,0,0-.08-.12.17.17,0,0,0,0-.1.32.32,0,0,0-.06-.08.28.28,0,0,0,.09-.1.12.12,0,0,0,0-.16.21.21,0,0,0-.13-.07.23.23,0,0,0,.13-.15A.25.25,0,0,0,19,17a.9.9,0,0,0-.53-.2h-.23l-.22,0H18l.05,0,.05,0a.31.31,0,0,0,.1-.05.15.15,0,0,0,0-.15.37.37,0,0,0-.05-.11l-.05-.06a.37.37,0,0,0,.14-.25.29.29,0,0,0-.18-.25.8.8,0,0,0-.31-.07,1.73,1.73,0,0,0-.48.07l-.17.05-.15,0a2.64,2.64,0,0,1-.65.07l-.65,0-.05-.11-.15-.15-.2-.12L15,15.48l-.24-.07-.24-.07-.25,0-.26,0a4.85,4.85,0,0,0-1,.05l-.16,0,.75-.28c.27-.11.49-.23.73-.35a1.24,1.24,0,0,0,.35-.23.23.23,0,0,0,.05-.1.14.14,0,0,0,0-.11s0,0,0-.08A.45.45,0,0,0,14.8,14a.21.21,0,0,0,0-.13l0,0,0,0a.27.27,0,0,1-.05-.22l0-.15v-.08a.22.22,0,0,0,0-.15.5.5,0,0,0-.38-.13h0a.53.53,0,0,0-.1-.2.38.38,0,0,0-.13-.1.44.44,0,0,0-.27-.07.51.51,0,0,0-.24.08.36.36,0,0,0-.09.08l-.14.11a.48.48,0,0,1-.14.09.78.78,0,0,0-.22.15.63.63,0,0,0-.12.18c-.05.12-.06.22-.12.28s0,0,0,0l-.05,0-.19,0a5.28,5.28,0,0,1-.56,0l.08-.09a1.25,1.25,0,0,0,.26-.39,1.84,1.84,0,0,0,.09-.28,1.06,1.06,0,0,0,0-.31c0-.11,0-.22,0-.33s0-.21-.08-.31l0,0a2.87,2.87,0,0,0,.64.2,3.16,3.16,0,0,0,.47.06h.52a5,5,0,0,0,.54-.06,3.35,3.35,0,0,0,.55-.11A4.94,4.94,0,0,1,15.5,12L16,12a3.8,3.8,0,0,0,.5-.06A3.08,3.08,0,0,0,17,11.8a3.22,3.22,0,0,0,.73-.35l.17.06a3.5,3.5,0,0,0,.55.09l.27,0,.24,0a1.69,1.69,0,0,0,.33,0,.81.81,0,0,0,.38-.09.33.33,0,0,0,.19-.29v-.05h0a.19.19,0,0,0,0-.07.38.38,0,0,0-.13-.16,1.63,1.63,0,0,0-.29-.12l-.2-.09c-.05,0,0,0,0,0s0,0,0-.09a1.16,1.16,0,0,1,.21-.25,6.56,6.56,0,0,0,.9-.49,1.2,1.2,0,0,0,.12-.11.16.16,0,0,0,.05-.08.19.19,0,0,0,0-.08.24.24,0,0,0-.1-.13A.69.69,0,0,0,19.93,9.53Z"/><path class="cls-6" d="M23,11.47h0l-.21.2c-.08-.14-.16-.28-.25-.42v0h0a6.23,6.23,0,0,0,.57-.37,4.46,4.46,0,0,0,.43-.33c0,.08,0,.15,0,.23l0,.34-.49.39m-.87.12h0a5.14,5.14,0,0,0-.58-.27,4.53,4.53,0,0,0-.53-.55c.22.05.45.09.67.16a4,4,0,0,1,.63.27s-.05.06,0,.09h0c0,.16.06.31.1.46Zm-.46-1.25h0a2.32,2.32,0,0,0,.4-.43,5.34,5.34,0,0,0,1,.47,3.2,3.2,0,0,0-.27.25,2.72,2.72,0,0,0-.37.39,4.19,4.19,0,0,1-.63-.19c-.15-.07-.28-.15-.42-.23Zm2.14.38c0-.1-.08-.21-.12-.31l.19-.16-.33-.09a8.43,8.43,0,0,0-1.48-.29h0a3.84,3.84,0,0,0-.65.27,4.18,4.18,0,0,0-.54.35l-.2.17.22.06a3,3,0,0,0,.32.76.1.1,0,0,0,.06,0h0a5.2,5.2,0,0,0,.63.28l.56.18a.64.64,0,0,1,0,.07.15.15,0,0,0,.08.08.32.32,0,0,0,.34,0h0c.18-.14.36-.28.52-.43s.32-.3.46-.46l0,0a.08.08,0,0,0,0-.08A3.24,3.24,0,0,0,23.85,10.72Z"/><path class="cls-6" d="M7.61,4.79C8.24,3.92,7,3,6,3.42s-1.43,2-1.74,2.46c0,0,2.63-.09,3.37-1.09"/></svg>