<svg id="Capa_1" data-name="Capa 1" xmlns="http://www.w3.org/2000/svg" viewBox="0 0 23.64 20.52"><defs><style>.cls-1{fill:#fccdb5;}.cls-2{fill:#f5a4c7;}.cls-3{fill:#231f20;}</style></defs><title>1-5meses</title><path class="cls-1" d="M11,8.4S9,9.34,8,9.78s-4.31,1.64-5.37,3.78c0,0-.06,2.71,0,3.2S3.38,17.91,5.45,18a10.13,10.13,0,0,0,3.63-.44,2.33,2.33,0,0,0,1.32.5,20.67,20.67,0,0,1,3.16-.37c1,.13,1.66,0,1.66-.14a.94.94,0,0,1,.11-.35s1.54-.08,1.86-.16a3.18,3.18,0,0,0,.54-.16,1.36,1.36,0,0,1,.52.38.73.73,0,0,0,.76.49,15.46,15.46,0,0,0,2.12.12c.14-.09.36-.17.22-.25l-.19-.11s1,0,1-.19S21.4,17.1,20.9,17a5.23,5.23,0,0,1-1.79-.69,1.9,1.9,0,0,1-.48-.58,2.12,2.12,0,0,0,.68,0c.08-.08.68,0,.79-.13s.38-.2.32-.35-.15-.34-.62-.42-1.94-.16-1.94-.16-1.64-1.19-1.77-1.92-.14-1.72-.55-2.16a5.42,5.42,0,0,0-1.27-.87s.1-.55.31-.48a8.06,8.06,0,0,0,2.28.07c.61-.14.83-.14.77-.34s-.28-.24,0-.26.42-.15.34-.25-.37-.12-.37-.12.63-.15.57-.28-.2-.36-.2-.36.71-.31.61-.47S18,6.84,18,6.54s.86-1.19.77-1.75a3.42,3.42,0,0,0-1.91-2,7,7,0,0,0-3.52-.16C12.19,2.88,9.69,4,9.81,5.22s1.63,2.29,1.58,2.5A3.32,3.32,0,0,1,11,8.4"/><path class="cls-2" d="M1.91,14.4s-.44,1.61,0,2.19a1.56,1.56,0,0,0,.82.65A1.65,1.65,0,0,1,3.4,15.5a10.12,10.12,0,0,1,2.48-1s-2-.68-2.63-.79-1-.28-1.34.73"/><path class="cls-3" d="M22,17.43h0a2.42,2.42,0,0,1-.56.12h0a1.42,1.42,0,0,0-.42-.17l-.35-.07L20,17.23l0,0,.62.19a2.54,2.54,0,0,1,.58.25s0,0,0,0l0,0h0l-.46,0-.6,0-.61,0a1.29,1.29,0,0,1-1-.27,1.19,1.19,0,0,0-.16-.22A.83.83,0,0,0,18,17c-.2-.1-.41-.18-.61-.27a5.39,5.39,0,0,1-.59-.29,3.43,3.43,0,0,1-.47-.36,5,5,0,0,1-.7-.84l-.07-.11s0,0-.05-.07a.23.23,0,0,0-.07-.07l-.23-.19a2.68,2.68,0,0,1-.38-.37,5.51,5.51,0,0,1-.57-.78,5.74,5.74,0,0,0-.52-.74,5.36,5.36,0,0,0-1.06-1,4.43,4.43,0,0,0-.5-.31l0,0a5.28,5.28,0,0,1,.38.38,7.72,7.72,0,0,1,.82,1,.43.43,0,0,0,0,.07l-.4.19-.25.13-.26.19a1.09,1.09,0,0,1-.32.17,2.47,2.47,0,0,1-.41.09,1.62,1.62,0,0,0-.44.14.94.94,0,0,0-.32.26.83.83,0,0,0-.16.26l-.09.2a1.5,1.5,0,0,1-.18.28,1.83,1.83,0,0,0-.51-.22,11.34,11.34,0,0,0-1.27-.24,17.11,17.11,0,0,0-2.6-.2l-.52,0-1.2-.43-.7-.23c-.25-.07-.55-.15-.83-.2l-.27,0a5.35,5.35,0,0,1,1-1.22,8.56,8.56,0,0,1,1.52-1.1,19.42,19.42,0,0,1,1.84-.85C7.7,10,8.35,9.79,9,9.56l1-.35L10.52,9l.24-.14.2-.14.39-.3a1,1,0,0,0,.32-.4.44.44,0,0,0-.08-.42,1,1,0,0,1,.32.25l-.13-.62.61.71-.13-.52a1.44,1.44,0,0,0,.27.34,1.05,1.05,0,0,0,.27.2,1.2,1.2,0,0,0,.31.13,1.45,1.45,0,0,0,.51.06l.19,0v0h-.18a1.15,1.15,0,0,1-1.06-.91.56.56,0,0,1,0-.23l0,0,0,0v0l0,0,0,0h0l0,0,.07,0a.42.42,0,0,1,.19,0,2.64,2.64,0,0,1,.4.14L13.6,7l0,0a.44.44,0,0,0-.06-.13,1.1,1.1,0,0,0-.11-.14c.13.07.27.17.49.32l-.15-.42.42.29s-.47-.32-.42-.7a3.12,3.12,0,0,0,.32-.87l0,.46L14,6.33l.53-.62-.1.53.51-.53.77-.92-.05.76.6-1-.18,1.07L16.49,5l.84-1-.22.91.45-.71,0,1.16.73-1.17a2.65,2.65,0,0,1,.23.39,1.24,1.24,0,0,1,.09.73,3.11,3.11,0,0,1-.36.7L18,6.36a.42.42,0,0,0,0,.42,2,2,0,0,0,.34.32c.11.1.23.21.15.28a1.43,1.43,0,0,1-.41.23.34.34,0,0,0-.12.06.1.1,0,0,0-.05.14A.76.76,0,0,0,18,8c.05.05.1.12.08.12a1,1,0,0,1-.19.08l-.51.16s-.06,0-.05.06.05.06.1.05h.33c.12,0,.09,0,.1.09s-.09.08-.19.11h0l-.06,0a.17.17,0,0,0-.08.09.22.22,0,0,0,0,.15c0,.08,0,.14,0,.18a.69.69,0,0,1-.24.1l-.32.06-.34,0a12.89,12.89,0,0,1-1.39,0l-.35,0-.35,0a.47.47,0,0,0-.31.08.28.28,0,0,0-.1.17.57.57,0,0,0,0,.29s0,.06.08.08h0a2.36,2.36,0,0,1,.66.41,2.64,2.64,0,0,1,.46.55,2.43,2.43,0,0,1,.29.61,4.69,4.69,0,0,1,.14.65,4.43,4.43,0,0,0,.19.69,2.48,2.48,0,0,0,.35.66,3.07,3.07,0,0,0,.61.58,3.88,3.88,0,0,1,.61.5,11.69,11.69,0,0,1,.9,1.17,4.52,4.52,0,0,0,.49.61,2.42,2.42,0,0,0,.78.47,5.84,5.84,0,0,0,.93.27,8.22,8.22,0,0,0,1,.13,2.05,2.05,0,0,1,.46.06c.05,0,.09.06.07.08s-.07.07-.13.09m-8.19-3.65h0a4.07,4.07,0,0,0,.62.83,2.37,2.37,0,0,0,.29.25,1.76,1.76,0,0,1-1-.32,9.63,9.63,0,0,1-.94-.78,1.68,1.68,0,0,0,.32-.09,1,1,0,0,0,.27-.16.91.91,0,0,0,.22-.22Zm3.81,3.16h-.13c-.26,0-.56.09-.88.1h-.45a2.46,2.46,0,0,0-.4,0l-.24,0v0a.19.19,0,0,0-.06-.07l-.06,0,.05,0a.5.5,0,0,0,.14-.08.16.16,0,0,0,.07-.09.19.19,0,0,0,0-.13s0,0,0-.05h0l-.07,0a.58.58,0,0,0-.16-.05s0,0,0,0a.12.12,0,0,0,0-.15.22.22,0,0,0-.13-.1l-.12,0-.09,0,0,0a.17.17,0,0,0,.06-.22l0-.06v-.05a.07.07,0,0,0,0-.06l-.06,0-.24,0-.25,0a1.93,1.93,0,0,0-.49.09c-.14,0-.27.15-.38.18l-.43.11-.6.13a1.89,1.89,0,0,0-.13-.47,1.46,1.46,0,0,1-.13-.25.84.84,0,0,1,0-.27,1.71,1.71,0,0,1,0-.25.87.87,0,0,1,.07-.25h-.05a1.44,1.44,0,0,0-.19.22,1.08,1.08,0,0,0-.23.58v.15a.63.63,0,0,1-.19,0l-.11-.05a.21.21,0,0,0-.13,0l-.1,0a2.69,2.69,0,0,1-.33-.26,3.37,3.37,0,0,0-.34-.27,1.33,1.33,0,0,0,.4-.24.83.83,0,0,0,.2-.22,1.86,1.86,0,0,0,.13-.23A1.34,1.34,0,0,1,11.9,14a1.77,1.77,0,0,1,.31-.15,11.72,11.72,0,0,0,1.07.89,2.47,2.47,0,0,0,1.53.44l.32,0h0l0,0,.09.11a4,4,0,0,0,.89.83,5.16,5.16,0,0,0,1.19.62l.28.12S17.61,16.94,17.6,16.94Zm-2.52.61h0l-.11.06a3.14,3.14,0,0,1-.83.05l-.89,0a5.3,5.3,0,0,0-.91.09l-.87.16c-.29.05-.58.12-.86.15A2.31,2.31,0,0,1,9.77,18a1.59,1.59,0,0,1-.62-.38.1.1,0,0,0-.11,0l-1.22.28A5.43,5.43,0,0,1,6.6,18a10.43,10.43,0,0,1-2.46-.24,2.9,2.9,0,0,1-1-.42.89.89,0,0,1-.32-.71c0-.53.53-1,1.16-1.33l.5-.23.27-.11L5,14.83a6.27,6.27,0,0,1,1.18-.13,19.15,19.15,0,0,1,2.5.14A11.54,11.54,0,0,1,9.94,15a2.25,2.25,0,0,1,.94.5,5.27,5.27,0,0,0,.46.31l0,.05a.34.34,0,0,0,.16.07h0l.28.15c.31.18.58.44.56.73h.05A.91.91,0,0,0,12,16l-.17-.1a.69.69,0,0,0,.17-.05h0a.62.62,0,0,0,.23.25.87.87,0,0,0,.3.14l-.18,0v0l.91-.16.45-.1a1.77,1.77,0,0,0,.22-.08l.19-.08a1.4,1.4,0,0,1,.41-.06l.21,0,.16,0v0a.92.92,0,0,1,0,.09s0,0,0,.07a1.08,1.08,0,0,1-.34.15.09.09,0,0,0-.08.1.15.15,0,0,0,.16.07h0a.92.92,0,0,1,.33,0l.07,0h0l-.08,0-.16.06-.35.1c-.09,0-.14.08-.11.14s.12.1.21.09h0a2.1,2.1,0,0,1,.43-.05h.1l-.09,0c-.14,0-.29.06-.43.09h0c-.12,0-.2.09-.18.17s.13.15.25.14h0a1.41,1.41,0,0,1,.29,0l.13,0h-.19a.16.16,0,0,0-.19.1c0,.06.05.12.15.13H15l.12,0h0ZM2.43,17.08h0a1.41,1.41,0,0,1-.25-.37,1.86,1.86,0,0,1-.13-.49,2.5,2.5,0,0,1,0-.56,5,5,0,0,1,.11-1.25,2.72,2.72,0,0,1,.2-.61.43.43,0,0,1,.07-.1s0,0,.08,0a2.25,2.25,0,0,1,.41,0,6.11,6.11,0,0,1,.81.16l.71.18,1.14.33a5.06,5.06,0,0,0-.68.1l-.34.1-.28.11a5.85,5.85,0,0,0-.56.27,3.13,3.13,0,0,0-.93.69,1.37,1.37,0,0,0-.4.92,1.2,1.2,0,0,0,.18.6Zm16.07-2.2h0A3.06,3.06,0,0,0,19,15l.54,0a1.86,1.86,0,0,1,.5.09.58.58,0,0,1,.18.08.42.42,0,0,1,.12.1.1.1,0,0,1,0,.09l-.08-.05a.77.77,0,0,0-.17-.07,2.06,2.06,0,0,0-.32-.07A6.21,6.21,0,0,0,18.64,15h-.31l-.16-.23A2.68,2.68,0,0,0,18.5,14.88Zm1.48.64Zm0,.06h0v0Zm-.39.06h0s0-.05,0-.08a.12.12,0,0,0-.07-.05v0H19.4l-.18-.06a3.29,3.29,0,0,0-.62-.1h-.08l-.13-.2.22.05a8.22,8.22,0,0,1,1,.25l.23.09s.06,0,.06.05h0Zm-.46-.08h0C19.16,15.52,19.12,15.55,19.1,15.56Zm0,.17h0s0,0,0,0l0,0,0,0h0S19.12,15.74,19.09,15.73Zm-.37-.11h0s-.07-.1-.1-.16l.33.16-.17.09Zm3.39,1.55a3,3,0,0,0-.5-.1,6.26,6.26,0,0,1-1.79-.44,1.8,1.8,0,0,1-.67-.43,2.72,2.72,0,0,1-.29-.38l.19.06h.16a.47.47,0,0,0,.27-.08s0,0,0,0h0a1.53,1.53,0,0,0,.4.07,1.06,1.06,0,0,0,.32,0,.35.35,0,0,0,.22-.18.2.2,0,0,0,0-.13.25.25,0,0,0,0-.07l0,0a.17.17,0,0,0,0-.17.44.44,0,0,0-.11-.18,1.29,1.29,0,0,0-.2-.15,3.35,3.35,0,0,0-.56-.19c-.2,0-.39-.09-.58-.11a2.81,2.81,0,0,0-.51,0,2.47,2.47,0,0,0-.44.09l-.25-.3a5.54,5.54,0,0,0-.64-.54,2.19,2.19,0,0,1-.53-.52,2.62,2.62,0,0,1-.31-.6,6.17,6.17,0,0,1-.17-.65,4.33,4.33,0,0,0-.16-.67,2.57,2.57,0,0,0-.32-.67,2.79,2.79,0,0,0-.54-.61,3,3,0,0,0-.73-.43.33.33,0,0,1,0-.14c0-.07,0-.05,0-.06l.35,0,.36,0a13.87,13.87,0,0,0,1.44-.06l.36,0a2,2,0,0,0,.35-.08.76.76,0,0,0,.34-.16.23.23,0,0,0,0-.29.29.29,0,0,1,0-.09h.07l.17-.07A.2.2,0,0,0,18,8.57s0-.05,0-.07v0a.21.21,0,0,0,0-.06.25.25,0,0,0-.17-.06l.13,0a.66.66,0,0,0,.27-.13.12.12,0,0,0,0-.14l-.07-.09A.51.51,0,0,1,18,7.78s0,0,0,0l.11,0a1.51,1.51,0,0,0,.46-.26.2.2,0,0,0,0-.24A.85.85,0,0,0,18.44,7a2.42,2.42,0,0,1-.32-.29.34.34,0,0,1,.05-.33l.21-.36a3.06,3.06,0,0,0,.41-.73.36.36,0,0,0,0-.11l0,.09a2.25,2.25,0,0,0-1.45-2.44,7.7,7.7,0,0,0-4.5-.7c-1.19.15-3.64,1.3-3.54,3.28a1.84,1.84,0,0,0,1.18,1.71l.28.25c.2.17.41.42.36.54s-.34.36-.58.54l-.19.14-.18.11a3.63,3.63,0,0,1-.44.19l-1,.37c-.66.24-1.31.5-1.94.79A15.5,15.5,0,0,0,5,11a7.64,7.64,0,0,0-1.48,1.17,5,5,0,0,0-.94,1.29H2.46a.5.5,0,0,0-.32.09.6.6,0,0,0-.15.18,3.56,3.56,0,0,0-.28.64,5.11,5.11,0,0,0-.24,1.3,2.43,2.43,0,0,0,.09.61,1.65,1.65,0,0,0,.24.54,1.52,1.52,0,0,0,.4.4l.23.13.22.08.11,0s0,0,.05,0A3.13,3.13,0,0,0,4,18a10,10,0,0,0,2.62.17A6,6,0,0,0,7.9,18L9,17.67a2.13,2.13,0,0,0,1.58.48c.31,0,.59-.09.89-.14s.57-.11.86-.15a4.24,4.24,0,0,1,.86-.08c.28,0,.59,0,.89.06a3.08,3.08,0,0,0,1,0,.6.6,0,0,0,.24-.12l0,0s0,0,0,0h0l0,0a.14.14,0,0,0,0-.14l0,0h0a.28.28,0,0,0,.09-.1.9.9,0,0,0,.23.07,1.5,1.5,0,0,0,.44,0,4,4,0,0,0,.5-.09,7.44,7.44,0,0,0,.85-.26.77.77,0,0,0,.17-.07l0,0,.2.1a.66.66,0,0,1,.29.39.92.92,0,0,0,.53.4,3,3,0,0,0,.7.11h.62a3.25,3.25,0,0,1,.54,0,3.7,3.7,0,0,0,.59,0,.53.53,0,0,0,.2-.07s0,0,0,0l0,0s0,0,0-.05a.2.2,0,0,0,0-.23,2.13,2.13,0,0,0,.56-.1.36.36,0,0,0,.21-.14C22.29,17.28,22.2,17.2,22.11,17.17Z"/><path class="cls-3" d="M17.26,6.47a1.13,1.13,0,0,0-.77.51l.37-.18s-.05.22.21.11a.6.6,0,0,0,.35-.34s.18,0,.17.09.26-.33-.33-.19"/><path class="cls-3" d="M18.14,5.78s-.3-.83-2.06.66c0,0,1.17-1,2.06-.66"/><polygon class="cls-3" points="18.87 5.38 18.84 5.3 18.84 5.3 18.87 5.38"/><path class="cls-3" d="M9.47,6.06S10,7,9.8,7.38a2.24,2.24,0,0,1-.6.72l.85-.67V8l.45-.56.23.79.32-.54.36.31s.17-1.38-.36-1.58a4.34,4.34,0,0,0-1.58-.31"/></svg>