<svg id="Capa_1" data-name="Capa 1" xmlns="http://www.w3.org/2000/svg" viewBox="0 0 32.28 19.92"><defs><style>.cls-1{fill:#f5a4c7;}.cls-2{fill:#fbc9b5;}.cls-3{fill:#231f20;}.cls-4{fill:#6d6f71;}</style></defs><title>4-5meses</title><path class="cls-1" d="M13.37,15.24s-.86-1.8-.91-1.85a4.82,4.82,0,0,0-2-.43c-1.22-.07-2.54-.12-3.26.42A3.24,3.24,0,0,0,6,14.9v1l2.25.63L10,17.79a3,3,0,0,0,1.17.26,4.38,4.38,0,0,0,1-.33Z"/><path class="cls-2" d="M21.47,7.84c0,.08-.13,1.09-.17,1.29s-.23.46.12.61.9.24.76.41-.62.31-.64.37.2.47-.06.6a2.15,2.15,0,0,1-.37.14s-.06.37-.31.45,0,.16-.11.36a.63.63,0,0,1-.53.37c-.25,0-1.31,0-1.31,0s-.38.33-.41.61a1.36,1.36,0,0,0,.17.62l.22.27a10.4,10.4,0,0,1,1.31.1c.36.07.49.2.83.13s.76-.24,1.08-.09.49.59.76.55.1-.18.44-.14.85.42.42.52-.3.07-.3.07.28.18.21.3a.54.54,0,0,1-.27.18s-.13-.73-.77-.14-.44.5-.89.47-.67-.31-.84-.31-.62.08-1.12.1a14.29,14.29,0,0,1-1.54-.1,3.29,3.29,0,0,0,.46.45,6.53,6.53,0,0,0,1.71.12c.63,0,1.49,0,1.58-.35s.51-.95,1-.76.3.46.64.63,1,.15,1,.28,0,.51-.23.6-.22.12-.33.29-.18.44-.39.51a8.16,8.16,0,0,1-1.38,0,7.82,7.82,0,0,1-1.67.26,14.57,14.57,0,0,1-3.21-.08,7.72,7.72,0,0,1-1-.75s-2.27,1.16-3.36,1-1.9-.42-2.06-1.13a3.45,3.45,0,0,1,1-2.6c.53-.32.53-.29.93-.29s1,0,1.05,0,1.9-.61,2.06-1.5a2.58,2.58,0,0,0-.54-1.78,9.15,9.15,0,0,1,.49-2.15s1.78-1.7,2.83-1.7,2.93.09,2.79,1.24"/><path class="cls-2" d="M10.14,15.28c.38.32.85.84.57,1.34a3.18,3.18,0,0,1-1.24,1.5,4.24,4.24,0,0,1-2.84.26,10,10,0,0,1-2.22-1.12,15.43,15.43,0,0,0-1.55.91c-.23.19-.78.28-.7,0s.28-.33,0-.38-.43-.43-.39-.62-.06-.42.3-.6a2.35,2.35,0,0,1,.59-.2,3.29,3.29,0,0,1,.6-.52l1.13-.5-.7-.93s-2,.36-2.06.1.34-.24.4-.44a4.7,4.7,0,0,1,.58-.77,7.4,7.4,0,0,1,1.19-1.23c.13,0,.47-.13.73.2s.34,1,.87,1.12a1.86,1.86,0,0,1,.91.5l.14.55-.5,1,.29.31.43.07s.2-.44.31-.63a1.67,1.67,0,0,1,1-.61,3.85,3.85,0,0,1,2.23.66"/><path class="cls-3" d="M31,4.66h0a1.53,1.53,0,0,1-.68.85,4.93,4.93,0,0,1-1.2.57,7.81,7.81,0,0,1-1.39.31,9.89,9.89,0,0,1-1.45.13,11.7,11.7,0,0,1-1.46,0l-.43,0,.09.28A1.62,1.62,0,0,1,24,8.3a5.17,5.17,0,0,1-1.57,1.1l.24-.19c.12-.13.26-.25.37-.38s.22-.27.3-.41a3,3,0,0,0,.2-.45,2.44,2.44,0,0,0,.09-.47,1.52,1.52,0,0,0,0-.47,1.69,1.69,0,0,0-.18-.47l-.14-.22a2,2,0,0,0-.2-.22h0l0,0a5.24,5.24,0,0,1-.95-.75,2,2,0,0,1-.55-.86.88.88,0,0,1,.21-.83,2.5,2.5,0,0,1,1-.62,11,11,0,0,1,2.79-.57,11.64,11.64,0,0,1,2.95.06,5.1,5.1,0,0,1,1.34.4,2.58,2.58,0,0,1,1,.76,1.13,1.13,0,0,1,.2,1m0-1.05a4,4,0,0,0-2.39-1.35A10.9,10.9,0,0,0,25.45,2a11.47,11.47,0,0,0-3.07.56,2.94,2.94,0,0,0-1.27.78,1.2,1.2,0,0,0-.28,1.19,3.58,3.58,0,0,0,1.81,1.81.67.67,0,0,1,.14.15,1.24,1.24,0,0,1,.14.18,1.41,1.41,0,0,1,.19.39,1.43,1.43,0,0,1,.09.41,1.48,1.48,0,0,1,0,.42,2.8,2.8,0,0,1-.13.41,3.17,3.17,0,0,1-.21.41,3.58,3.58,0,0,1-.29.39l-.4.45.1,0A6.13,6.13,0,0,0,23.4,9.1a3.8,3.8,0,0,0,1-.65A2.27,2.27,0,0,0,25,7.6a1.49,1.49,0,0,0,.1-.69c.4,0,.8,0,1.21,0a8.37,8.37,0,0,0,1.58-.15,6.63,6.63,0,0,0,1.48-.42,4.68,4.68,0,0,0,1.22-.7,1.77,1.77,0,0,0,.66-1A1.45,1.45,0,0,0,31,3.61Z"/><path class="cls-3" d="M19.7,9.94l.21-.16s-.06.32.18.32.3-.46.3-.46.16,0,.16.12.13-.09,0-.16-.43-.43-.87.34"/><path class="cls-3" d="M19.77,9.24a1.11,1.11,0,0,1,1.05,0c.21-.37-.53-.47-.86-.38S18.79,10,18.79,10a3.33,3.33,0,0,1,1-.71"/><polygon class="cls-3" points="21.27 10.68 21.28 10.67 21.28 10.66 21.27 10.68"/><path class="cls-3" d="M20.68,11.48h-.06l-.13-.05-.07,0h.26s0,.07,0,.09m3.42,4.85h0a.3.3,0,0,1-.08.18l-.09,0h-.09l-.11,0,0,.09c0,.11-.08.24-.17.26h0l-.05,0a.12.12,0,0,0-.08.12.15.15,0,0,0,0,.08v0h0l-.07,0,0,0,0,.05a.25.25,0,0,1-.08.1.23.23,0,0,1-.11,0h-.2l-.25,0-1-.08-.21.07,0,0-.09,0-.22.05a2.74,2.74,0,0,1-.5.07c-.35,0-.72,0-1.07.05a9.44,9.44,0,0,1-2.08-.15,3.5,3.5,0,0,1-.46-.14l-.21-.09-.19-.1a2,2,0,0,1-.31-.26c-.05-.07-.11-.14-.16-.22l.05,0,0,0,0,0L16,16.49c-.14-.23-.28-.46-.41-.7a5.19,5.19,0,0,1-.35-.71h0a3.44,3.44,0,0,0,.19.75c.09.24.19.49.3.73l.09.19-.3.2a12.55,12.55,0,0,1-1.42.49l-.25.06-.25.06a4,4,0,0,1-.5.08l-.25,0h-.49l-.24,0h-.15l0,0a1.92,1.92,0,0,1-.66-.31,1,1,0,0,1-.4-.54,1.09,1.09,0,0,1,0-.25l0,0a1.18,1.18,0,0,0,0-.46,5,5,0,0,1,.32-1.17,2.36,2.36,0,0,1,.35-.59,1.18,1.18,0,0,1,.57-.43,1.12,1.12,0,0,1,.41,0l.49,0a4.81,4.81,0,0,0,1-.07A3.19,3.19,0,0,0,15.63,13a1.92,1.92,0,0,0,.28-.29,1.1,1.1,0,0,0,.2-.35.84.84,0,0,0-.19-.86v-.13l.3.63.16-.78.22.49.14-.44.21.58.23-.68c-.47,0-.28-.32-.8-.45a.37.37,0,0,1,0-.73.76.76,0,0,1,.59.26l.6.7s-.23-.51,0-.64.43-.85.43-.85v.61l.53-1.26.13.52L19.32,8l.4.33V7.53l.64.79-.13-.88,1,.88a1.18,1.18,0,0,1-.08.31A1.6,1.6,0,0,0,21,9.2a.7.7,0,0,0,.21.63,1.73,1.73,0,0,0,.64.38h0v0s0,0-.09.06l-.15,0-.13.07-.13.1s0,0-.05.05a.2.2,0,0,0,0,.08,1.22,1.22,0,0,0-.07.17s0,.06,0,.1v0h0a.49.49,0,0,1-.13.1l-.18.08a1.3,1.3,0,0,1-.87,0h0a.13.13,0,0,0-.12,0,.05.05,0,0,0,0,.09,4.39,4.39,0,0,0,.53.27l.16,0a.16.16,0,0,0,.1,0,.11.11,0,0,0,.1-.06.17.17,0,0,0,0-.12l.15,0a.52.52,0,0,1,0,.11.23.23,0,0,1-.06.12l-.06,0-.08,0a1.18,1.18,0,0,1-.21,0H20a.72.72,0,0,0,.21.13l.11.05.15,0h.09a.82.82,0,0,1-.2.26l-.19.12-.11,0-.13,0h-.28l-.35,0c-.47,0-1-.12-1.33-.17l-.63-.09a2.42,2.42,0,0,0,.52.28c.2.07.45.15.73.22a1.08,1.08,0,0,0-.29.28.48.48,0,0,0-.12.27.62.62,0,0,0,0,.31,4,4,0,0,1,.13.55,2.5,2.5,0,0,1-.15,1l-.12.36s0,0,0,0a1.85,1.85,0,0,1-.14-.14,6.64,6.64,0,0,1-.64-.89H17.2a3.22,3.22,0,0,0,.45,1,3.6,3.6,0,0,0,.79.88l0,0h.09q.63,0,1.26.06a11,11,0,0,0,1.28,0l.35-.05.1,0h.06l0,0,.13-.1c.15-.13.24-.26.35-.37a1.2,1.2,0,0,1,.26-.18l.18,0a.75.75,0,0,0,.25,0,.31.31,0,0,0,.1-.05l.09,0a.36.36,0,0,0,.08.19.64.64,0,0,0,.26.18c.21.08.44.09.61.15a.17.17,0,0,1,.13.14A.34.34,0,0,1,24.1,16.33Zm-.46.75Zm-7.94-.2h0l.12-.08v0Zm-4,.9h0l-.22.08a2.52,2.52,0,0,1-.49.07h-.26a2.48,2.48,0,0,1-.27,0l-.41-.1,0,0a2.69,2.69,0,0,0,.48-.6,2.44,2.44,0,0,0,.14-.28,1.17,1.17,0,0,0,.44.53,2.42,2.42,0,0,0,.67.31h0Zm-2.5.32h0a3.67,3.67,0,0,1-.81.29,4,4,0,0,1-.91.11,2.53,2.53,0,0,1-.87-.16A6,6,0,0,1,5.82,18c-.47-.28-.92-.57-1.34-.88L4.32,17l-.17.11A8.74,8.74,0,0,1,3,17.74l0,0,0,0a1.1,1.1,0,0,1-.19.25.38.38,0,0,1-.12.1.22.22,0,0,1-.1,0H2.46l-.07,0A.21.21,0,0,1,2.31,18a.37.37,0,0,1,0-.18.69.69,0,0,0,.19-.07.79.79,0,0,0,.31-.25l0,0a1.23,1.23,0,0,1-.35.16.49.49,0,0,1-.32,0H2s0,0,0,0,0,0,0,0a1.06,1.06,0,0,1,.28-.12c.09,0,.15-.09.13-.16s-.12-.13-.24-.11H2.08l0-.05.06,0h0v-.3H1.92L2,16.73a.56.56,0,0,1,.23,0h0a.1.1,0,0,0,.11-.07.09.09,0,0,0-.1-.08h0a.52.52,0,0,1-.18,0h0a1.13,1.13,0,0,1,.41-.05.1.1,0,0,0,.09,0,1.9,1.9,0,0,1,1.09-.8l.17,0,.2,0a1.72,1.72,0,0,1,.32,0,.69.69,0,0,1,.26.12.39.39,0,0,1,.1.08l.08.1A.23.23,0,0,0,5,16h0c.3,0,.61,0,.91,0h.45l.21,0,.2,0c.28.06.56.14.84.23l.84.29,0,0a5.07,5.07,0,0,0-.72-.43A5.31,5.31,0,0,0,7,15.8l-.24-.06H6.7A1.65,1.65,0,0,1,7,15.2a1.15,1.15,0,0,1,.6-.39,1.66,1.66,0,0,1,.8,0l.19,0,.21.07.39.15a1.79,1.79,0,0,1,1.08.85,1,1,0,0,1,.06.57,2.86,2.86,0,0,1-.21.6A2.17,2.17,0,0,1,9.18,18.1Zm-7.13-.45Zm-.16-.83ZM4,14.25H4l-.06-.15-.23.05c-.38.1-.79.19-1.17.26a1.3,1.3,0,0,1-.49,0S2,14.35,2,14.36l-.05-.1a.28.28,0,0,1,0-.08l.08,0a.28.28,0,0,0,.18-.23.7.7,0,0,1,.08-.2,1.59,1.59,0,0,1,.44-.29,2,2,0,0,0,.44-.37c.12-.14.19-.28.28-.39a1,1,0,0,1,.77-.39.43.43,0,0,1,.17,0l0,0s.07.07.06.07.16.24.25.39a1.54,1.54,0,0,0,.4.41,3,3,0,0,0,.57.28,1.66,1.66,0,0,1,.48.24.67.67,0,0,1,.15.14l-.1.12H6a1,1,0,0,0-.44.14.52.52,0,0,0-.26.3.2.2,0,0,0,0,.18l.22-.06a1.48,1.48,0,0,0,.37-.16l0,0a1.52,1.52,0,0,0-.11.32,1.73,1.73,0,0,0,0,.45,2.24,2.24,0,0,0,.07.34c0,.09.06.16.08.21l-.76,0-.06-.06A.83.83,0,0,0,5,15.43a1.33,1.33,0,0,0-.46-.17,4,4,0,0,1-.24-.38Zm3-.4h0a2.88,2.88,0,0,1,.57-.41,3.09,3.09,0,0,1,.71-.29A3.51,3.51,0,0,1,9.08,13,5,5,0,0,1,10,13l.79.11.7.1.3,0,.25.06a1,1,0,0,1,.33.17.27.27,0,0,1,.1.13,1.36,1.36,0,0,0-.44,0,1.31,1.31,0,0,0-.7.52,2.45,2.45,0,0,0-.35.63,5.23,5.23,0,0,0-.23.77,1.56,1.56,0,0,0-.43-.46,3.34,3.34,0,0,0-.82-.42c-.15-.06-.31-.1-.46-.15l-.23-.05a1.28,1.28,0,0,0-.27,0,2.19,2.19,0,0,0-1,.11,1.21,1.21,0,0,0-.65.55,1.24,1.24,0,0,0-.16.58l-.12,0-.25,0H6.09c0-.05,0-.12,0-.21a2.44,2.44,0,0,1,.83-1.59ZM21.2,11Zm-2.51,5h0a5.54,5.54,0,0,1-.45-.37,3.68,3.68,0,0,0,1.16.23c.21,0,.42,0,.64,0l.46-.07a1.12,1.12,0,0,0,.44.21l.15,0h0C20.3,16,19.48,16,18.69,16Zm0-1.43h0a1.2,1.2,0,0,0,.08-.54c.31.07.62.12.92.17l.52.07.24,0,.19,0,.26,0s0,0,.09-.06l.22,0a2,2,0,0,1,.49.05,1,1,0,0,1,.35.19s.05,0,.06.06l.07.07.11.14a.92.92,0,0,1,.16.29.65.65,0,0,1,0,.13v.05h-.08a.38.38,0,0,1-.13-.06.33.33,0,0,1-.11-.09L22,14.75l-.11.21s0,0,0,0l0,0-.12.05a.55.55,0,0,1-.35,0l0,0a.55.55,0,0,0,.39.18.69.69,0,0,0,.25,0l0,0a.61.61,0,0,0,.16.12,1.52,1.52,0,0,0-.23.16c-.15.12-.26.24-.39.33l-.07,0a2.16,2.16,0,0,1-.34-.16c-.15-.08-.25-.17-.27-.26l0-.13-.25,0-.28,0-.29,0-.57,0-.59,0-.58,0-.15-.16.06,0a2.44,2.44,0,0,0,.3-.32A1.81,1.81,0,0,0,18.73,14.57Zm4.59.23h0a.38.38,0,0,1,.11.08s0,0,0,.06,0,0,0,.05a.34.34,0,0,1-.29.06l-.07,0s0-.11-.06-.15a1.49,1.49,0,0,0-.27-.35h0Zm-.73.37Zm1.46.72a1.94,1.94,0,0,0-.33-.07l-.28-.08a.4.4,0,0,1-.19-.14.24.24,0,0,1-.05-.18v-.05h-.07l-.1,0a.34.34,0,0,0,0-.15l.17.13,0,0s0,0,0,.05a1,1,0,0,0,0,.17h0a1,1,0,0,0,.15-.14s0-.07,0-.1a.21.21,0,0,0,0-.11.52.52,0,0,0-.17-.12.86.86,0,0,0,.23,0,.22.22,0,0,0,.1-.09s0-.06,0-.1a.32.32,0,0,0-.14-.2,1.18,1.18,0,0,0-.45-.18,1.76,1.76,0,0,0-.46-.06l-.06,0-.1-.06-.12-.06a1.72,1.72,0,0,0-.53-.15l-.53,0H21l-.16,0a.76.76,0,0,0-.18-.09L20.35,14a3.73,3.73,0,0,0-.56-.07,6.25,6.25,0,0,0-1,0h0a1.77,1.77,0,0,0-.21-.61.76.76,0,0,1-.09-.23.5.5,0,0,1,0-.21,1.19,1.19,0,0,1,.13-.32,4.34,4.34,0,0,0,.52.09l.41,0a1.88,1.88,0,0,0,.45,0l.19-.07.15-.1a.75.75,0,0,0,.19-.22.48.48,0,0,0,0-.34v0h.18a.75.75,0,0,0,.18-.08.38.38,0,0,0,.13-.12.25.25,0,0,0,0-.24.28.28,0,0,0-.1-.09h0l.25-.1a1.42,1.42,0,0,0,.23-.14l0,0s0-.07,0-.06v0a.25.25,0,0,1,0-.07,1.09,1.09,0,0,1,.08-.15h0l0,0,.08,0,.1,0,.11,0a.54.54,0,0,0,.3-.22.25.25,0,0,0,0-.17.16.16,0,0,0,0-.07.15.15,0,0,0-.05-.07s0,0-.05,0h0a1.54,1.54,0,0,1-.54-.32.49.49,0,0,1-.11-.44,2.18,2.18,0,0,1,.17-.51s0-.06,0-.09l.21.18c.61-1.19-.56-2.5-2.13-2.84A9,9,0,0,0,15,6.31a2.82,2.82,0,0,0-1.88,2.87c.12,1.13,1.69,2.18,2.43,2.61a.58.58,0,0,1,.07.49,1.06,1.06,0,0,1-.15.27c-.07.08-.15.18-.23.26a2.65,2.65,0,0,1-1.35.74,5.27,5.27,0,0,1-.89.1h-.45a.31.31,0,0,0,0-.2.93.93,0,0,0-.34-.3L11.88,13,11.55,13a5.48,5.48,0,0,0-.74-.11,8,8,0,0,0-.85,0l-.89.05c-.3,0-.61,0-.92.06a2.77,2.77,0,0,0-.92.24,3.71,3.71,0,0,0-.7.42l-.12.12a.57.57,0,0,0-.08-.13,1.7,1.7,0,0,0-.47-.35A2.46,2.46,0,0,1,5.43,13a1.23,1.23,0,0,1-.26-.34,2.62,2.62,0,0,0-.24-.42.5.5,0,0,0-.12-.13.78.78,0,0,0-.2-.11,1.16,1.16,0,0,0-.45-.08,1.5,1.5,0,0,0-.74.22,1.18,1.18,0,0,0-.42.41,3.1,3.1,0,0,0-.2.42,1.25,1.25,0,0,1-.3.36,1.78,1.78,0,0,0-.42.36c-.1.15-.05.32-.2.37s-.11,0-.16.09a.21.21,0,0,0,0,.15.5.5,0,0,0,0,.12c0,.07,0,.07.09.13a1.23,1.23,0,0,0,.75.14,3.51,3.51,0,0,0,.66-.08l.43-.1A4,4,0,0,0,4,15l.26.27a1.63,1.63,0,0,0-.31,0l-.23.05-.22.07a2,2,0,0,0-.66.46,2.6,2.6,0,0,0-.38.51h-.2L2,16.4l-.07,0-.07.05s0,.05,0,.08h0a.67.67,0,0,0-.18.07l-.07.05-.07.08a.12.12,0,0,0,0,.13.24.24,0,0,0,.1.1l.05,0,0,0,0,.06a.16.16,0,0,0,0,.06.2.2,0,0,0,0,.21.25.25,0,0,0,.1.08h0a.27.27,0,0,0-.07.13.24.24,0,0,0,.05.14l.12.09h.07l.07,0a.93.93,0,0,0,.23,0,.32.32,0,0,0,0,.17.23.23,0,0,0,.08.18l.1.07.14.05a.53.53,0,0,0,.32-.05,1,1,0,0,0,.2-.12,1.88,1.88,0,0,0,.24-.25,6,6,0,0,0,1-.51,5.56,5.56,0,0,0,1.33.76,4.61,4.61,0,0,0,1.84.43,6,6,0,0,0,1-.11,4.74,4.74,0,0,0,.91-.26,2.82,2.82,0,0,0,.67-.42,1.82,1.82,0,0,0,.37.18,2.05,2.05,0,0,0,.58.14,2,2,0,0,0,.64,0A1.77,1.77,0,0,0,11.9,18L12,18l0,0,.19,0c.1,0,.2,0,.3,0a1.5,1.5,0,0,0,.3,0c.1,0,.2,0,.3,0a5.67,5.67,0,0,0,.57-.1,4,4,0,0,0,.52-.16,5.15,5.15,0,0,0,.95-.42,4.46,4.46,0,0,0,.66-.44l0,.07a1.68,1.68,0,0,0,.36.34,2.11,2.11,0,0,0,.22.14l.24.12a4.72,4.72,0,0,0,.53.18,6.33,6.33,0,0,0,1.13.18,10.84,10.84,0,0,0,1.14,0c.38,0,.74,0,1.12-.07a5.67,5.67,0,0,0,.57-.1,1.57,1.57,0,0,0,.29-.08.47.47,0,0,0,.15-.06l.06,0,.87,0h.53a.52.52,0,0,0,.32-.13.53.53,0,0,0,.12-.15l.09-.06a.15.15,0,0,0,0-.23.41.41,0,0,0,.21-.2,1,1,0,0,0,0-.14l.1,0a.65.65,0,0,0,.15-.1.55.55,0,0,0,.11-.25.5.5,0,0,0,0-.24A.29.29,0,0,0,24.05,15.89Z"/><path class="cls-4" d="M23.18,4.8h.07c.12,0,.22-.06.22-.17s-.1-.16-.23-.16h-.06Zm0-.48h.06c.12,0,.2-.06.2-.15S23.39,4,23.26,4h-.08Zm-.31-.43.35,0a.84.84,0,0,1,.4.08.21.21,0,0,1,.12.2c0,.09-.07.19-.23.23h0c.18,0,.28.14.28.26a.25.25,0,0,1-.11.21.91.91,0,0,1-.52.11h-.29Z"/><path class="cls-4" d="M24.48,4.55h0l-.05-.23c0-.06,0-.17-.05-.24h0c0,.07,0,.18-.05.24l-.06.23Zm-.25.16L24.16,5h-.3l.34-1.08h.37L24.88,5h-.3l-.07-.25Z"/><path class="cls-4" d="M25.33,4.8h.07c.12,0,.22-.06.22-.17s-.1-.16-.22-.16h-.07Zm0-.48h.07c.11,0,.19-.06.19-.15S25.54,4,25.41,4h-.08ZM25,3.89l.35,0a.84.84,0,0,1,.4.08.21.21,0,0,1,.12.2c0,.09-.07.19-.23.23h0c.18,0,.28.14.28.26a.25.25,0,0,1-.11.21.91.91,0,0,1-.52.11H25Z"/><path class="cls-4" d="M26.63,4.55h0l-.05-.23c0-.06,0-.17,0-.24h0c0,.07,0,.18-.05.24l-.06.23Zm-.25.16L26.31,5H26l.34-1.08h.37L27,5h-.3l-.07-.25Z"/><rect class="cls-4" x="27.45" y="4.44" width="0.47" height="0.15"/><path class="cls-4" d="M28.41,4.8h.07c.12,0,.22-.06.22-.17s-.1-.16-.23-.16h-.06Zm0-.48h.06c.11,0,.2-.06.2-.15S28.61,4,28.49,4h-.08Zm-.31-.43.35,0a.84.84,0,0,1,.4.08.23.23,0,0,1,.12.2c0,.09-.07.19-.23.23h0c.18,0,.28.14.28.26a.24.24,0,0,1-.12.21.85.85,0,0,1-.51.11H28.1Z"/><path class="cls-4" d="M29.71,4.55h0l-.05-.23a1.69,1.69,0,0,1-.05-.24h0c0,.07,0,.18-.06.24l-.05.23Zm-.25.16L29.39,5h-.3l.34-1.08h.37L30.11,5h-.3l-.07-.25Z"/><path class="cls-3" d="M13.47,9.86a2,2,0,0,1,.16,1.23,1.32,1.32,0,0,1-.37.65l.62-.52V12l.42-.48.12.7.46-.47.08.56.14-.6.13.6.31-.51.22.51s.46-1.29-2.29-2.44"/></svg>