<svg id="Capa_1" data-name="Capa 1" xmlns="http://www.w3.org/2000/svg" viewBox="0 0 31.62 18.72"><defs><style>.cls-1{fill:#fbc3b2;}.cls-2{fill:#f5a4c7;}.cls-3{fill:#fbc9b5;}.cls-4{fill:#231f20;}</style></defs><title>6-5meses</title><path class="cls-1" d="M18,9.7s1.2-1.1,1.74-1.11a3.23,3.23,0,0,1,1.86.55c.22.29-1.43.92-1.43.92Z"/><path class="cls-2" d="M18.66,13s-.5.34,0,1a1.28,1.28,0,0,0,1.44.61l.93-.09Z"/><path class="cls-2" d="M19.36,9.88a6.81,6.81,0,0,1,2.43-1,9.15,9.15,0,0,1,5.13,1.48,2.91,2.91,0,0,1,.75,1.14,2,2,0,0,1-.77,1.68,5,5,0,0,1-1.56.69Z"/><path class="cls-3" d="M21.17,9a4.62,4.62,0,0,1-.55-1.61c0-.62.32-2.16,2.75-1.95s4.42.88,4.69.6a2.11,2.11,0,0,0,.37-1.09,11.07,11.07,0,0,0-.17-1.14s.58-.33.79-.15l.45.4s.15-.2.23,0a.62.62,0,0,1,.06.26s.13-.17.24,0,.22.43.28.47.47-.11.49,0-.05.27-.05.27.15-.15.12,0-.16.49,0,.73-.08.51-.19.8S30.5,7.81,30.18,8a1.3,1.3,0,0,1-1.1.2,4,4,0,0,0-1.52-.25A3.54,3.54,0,0,1,26,8.32c-1.06,0-.46.11-.46.11s.81.7,1,.85a12.64,12.64,0,0,1,.67,1.26s-1.5-.83-2.11-1.09-2.73-.91-3.9-.47"/><path class="cls-3" d="M10.6,8.56a3.38,3.38,0,0,1-1.9-.21,6.33,6.33,0,0,0-2.86-.44C5.18,8,2.47,11.17,3.41,12a14.29,14.29,0,0,0,2.75,1.84c.32.12,1.47,1.18,2.64.93s2.42-.8,3.18-.7.86.52.86.52a4.12,4.12,0,0,0,2.33.53c1.28-.11,4.24-.45,4.24-.45a1.75,1.75,0,0,1-.82-.87c-.16-.54.05-.8.07-.78s1.25,1,1.58,1.18a2.65,2.65,0,0,0,1.58.5c.9,0,3.29-.39,3.9-1.16a1.25,1.25,0,0,0,.16-1.65,2.19,2.19,0,0,0-1.55-1c-.91-.17-3.79-.46-4.35-1S19.27,8.62,19,8.32a1.86,1.86,0,0,0-1.22-.64c-.56-.07-1.91-.61-2-1.07s-.18-.78-.5-.81-1.12.25-1.66.28a12.53,12.53,0,0,0-2.41.34c-.22.14-.22.28.22.35a9,9,0,0,1,1.6.17c.3.15,1.89,1.38,2,1.9s.12.58.48.78l.11.44L15,10a9.87,9.87,0,0,0-1.39-1.38,1.17,1.17,0,0,1-.63-.8,2.33,2.33,0,0,0-.29-.57s1,.31.69,0-.52-.74-.71-.74a6.14,6.14,0,0,1-2-.2c-.26-.22-.31,0-.33.18a.56.56,0,0,1-.1.26s-.49-.11-.47.11.28.4,0,.46-.36,0-.4.23.34.39.39.51.75.48.75.48"/><path class="cls-4" d="M11.52,9.88s0,.35.15.36.21-.31-.15-.36"/><path class="cls-4" d="M10,9.75c0,.23-.37.08-.37.08s.62.42.49-.26c0,0-.15,0-.12.18"/><path class="cls-4" d="M6.83,10.22A1.69,1.69,0,0,0,7,11.76s0-1.68.75-2.12c0,0-.51-.21-.88.58"/><path class="cls-4" d="M10.65,10.1c-.36.44-.34.57-.34.57s1.47-.35.56-1.25c0,0,.14.23-.22.68"/><path class="cls-4" d="M8.39,9.07s1.07,0,.35-.5c0,0,.17.33-.35.5"/><path class="cls-4" d="M8.05,10a1.5,1.5,0,0,1-.54,1.14,1.72,1.72,0,0,0,.74-.49s.61-.44-.2-.65"/><path class="cls-4" d="M30.75,6.08h0a1.53,1.53,0,0,0-.17.23,4.08,4.08,0,0,0-.44,1,1.42,1.42,0,0,0-.08.54c0,.09-.13.18-.31.22a1.55,1.55,0,0,1-.61,0A1.77,1.77,0,0,1,28.83,8l-.15,0-.07,0h0l-.06,0h0l-.17-.05a1.09,1.09,0,0,0-.26,0,2,2,0,0,0-.43,0,7.59,7.59,0,0,0-.75.16,9.74,9.74,0,0,1-1.41.27,5.56,5.56,0,0,1-.71,0,2.2,2.2,0,0,1-.36,0c-.12,0-.24,0-.35-.06l-.34-.08L23.39,8c-.22-.08-.41-.19-.63-.28l0,0a5.45,5.45,0,0,0,.58.33l.32.15.35.11a1.54,1.54,0,0,0,.37.09,2.5,2.5,0,0,0,.38.06,5.21,5.21,0,0,0,.79,0h0a1.39,1.39,0,0,1,.3.28c.09.1.17.23.26.35l.28.42c.14.21.27.42.4.6-.18-.1-.37-.2-.57-.29-.37-.18-.78-.33-1.17-.48s-.78-.29-1.17-.41l-.61-.16a5.58,5.58,0,0,0-.59-.1,4,4,0,0,0-1.16,0,2.58,2.58,0,0,0-.42.1,7.73,7.73,0,0,1-.35-1.29,2.17,2.17,0,0,1,0-.67.81.81,0,0,1,.15-.29,2.32,2.32,0,0,1,.22-.3,1.8,1.8,0,0,1,.62-.46,2.54,2.54,0,0,1,.84-.22,6,6,0,0,1,.95,0c.33,0,.64,0,1,.09s.64.1,1,.17l1,.2a6.47,6.47,0,0,0,1.05.15,1.39,1.39,0,0,0,.63-.1.87.87,0,0,0,.42-.34,2.13,2.13,0,0,0,.15-.36A2.11,2.11,0,0,0,28.75,5a1.56,1.56,0,0,0-.05-.74A2.21,2.21,0,0,0,28.54,4l-.05-.08h0l.07,0a.64.64,0,0,1,.36,0,.29.29,0,0,1,.21.16v.21h0s0,.08.11.09a.16.16,0,0,0,.17-.07.81.81,0,0,1,.1-.21h0a.78.78,0,0,1,.09.21.57.57,0,0,1,0,.22h0a.08.08,0,0,0,.09.07.09.09,0,0,0,.11-.06.37.37,0,0,1,.08-.18h0a.18.18,0,0,1,.08.07.92.92,0,0,1,.13.19.42.42,0,0,1,0,.1v0s0,0,0,0l.1.09a1,1,0,0,1,.36-.06h0s0,0,0,0a.49.49,0,0,1-.07.11.11.11,0,0,0,0,0,.11.11,0,0,0,.11,0,.31.31,0,0,1,.16,0s0,0,0,0a.15.15,0,0,1,0,.06,1.19,1.19,0,0,0-.08.16l-.09.16s0,0,0,0h0a.85.85,0,0,1,.13.48.45.45,0,0,1-.08.22m-3.39,5.13h0a1.14,1.14,0,0,1,.07.19,1.47,1.47,0,0,1,0,.75,2.06,2.06,0,0,1-.37.64,3.93,3.93,0,0,1-1,.8l-.22.12a1.4,1.4,0,0,0,.55-.82A1.38,1.38,0,0,0,26,11.77a2.77,2.77,0,0,0-1.16-.8,11.53,11.53,0,0,0-3.06-.68l-.76-.1L20.31,10a.48.48,0,0,1-.38-.28s0-.07,0-.11a2.09,2.09,0,0,1,.33-.19A4,4,0,0,1,21.62,9a5.58,5.58,0,0,1,1,0l.57.05.59.09a6,6,0,0,1,2.27.86,7,7,0,0,1,.88.66,3.45,3.45,0,0,1,.32.36A1.62,1.62,0,0,1,27.36,11.21ZM19.57,8.86h0l.06,0a2.43,2.43,0,0,1,.62-.1,3.05,3.05,0,0,1,.66.08l.12,0a2.82,2.82,0,0,0-1,.49,1.52,1.52,0,0,0-.22.21l-.12-.31Zm8.92-5ZM15.55,6h0S15.57,6,15.55,6Zm-2.19.37ZM13,6.29Zm-1,.7Zm.3,0h.48a.41.41,0,0,1,.24.08l.11.19a.61.61,0,0,1,0,.11v0h0l-.08,0-.3-.18-.28.2,0,0h0a2,2,0,0,1,.58.51.27.27,0,0,1,.05.13v.06a.25.25,0,0,1,0,.07.43.43,0,0,0,0,.11.24.24,0,0,0,0,.12.26.26,0,0,0,.05.15.49.49,0,0,0,.22.13,4.34,4.34,0,0,1,.68.43,4.94,4.94,0,0,1,.58.53,2.73,2.73,0,0,1,.21.3,1.82,1.82,0,0,1,.16.31,2.45,2.45,0,0,1,.09.32c0,.12.06.24.1.36a1.89,1.89,0,0,0,.16.36,1,1,0,0,0,.13.17l.12.15a3.25,3.25,0,0,1,.35.63,3.67,3.67,0,0,1,.26,1.38,2.8,2.8,0,0,0,.09-.7,2.54,2.54,0,0,0-.09-.72,2.42,2.42,0,0,0-.29-.69,1.26,1.26,0,0,0-.11-.17.75.75,0,0,1-.09-.15,3,3,0,0,1-.1-.32,3.38,3.38,0,0,1-.08-.34,1.82,1.82,0,0,0-.08-.36,2,2,0,0,0-.4-.7,4.62,4.62,0,0,0-.64-.6,5.16,5.16,0,0,0-.8-.49h0a.06.06,0,0,1,0-.06V8.18a.87.87,0,0,0,0-.1.25.25,0,0,0,0-.12.58.58,0,0,0-.09-.23,1,1,0,0,0-.17-.19l.08,0,0,0a12.55,12.55,0,0,1,1.08.94,2.32,2.32,0,0,1,.26.3.42.42,0,0,1,.09.14.23.23,0,0,1,0,.14.82.82,0,0,0,.19.4,1.45,1.45,0,0,0,.18.16,1,1,0,0,0,.17.1,4.13,4.13,0,0,0,.81,1.44,10.13,10.13,0,0,0,1.31,1.31c.32.26.66.52,1,.77a.66.66,0,0,0-.16.27.78.78,0,0,0,0,.31,1,1,0,0,0,.1.35,1.22,1.22,0,0,0,.28.32,1.23,1.23,0,0,0,.38.19l.16,0c-.84.09-1.68.18-2.52.29a9.88,9.88,0,0,1-2,.19,3.19,3.19,0,0,1-.91-.27l-.45-.17a1.38,1.38,0,0,1-.33-.2,2,2,0,0,1-.21-.19,1.67,1.67,0,0,1-.24-.37,1.34,1.34,0,0,1-.07-.39,1.08,1.08,0,0,1,0-.19.6.6,0,0,1,.07-.2l.1-.21c0-.08,0-.16.07-.23a2.49,2.49,0,0,0,0-.9,5.31,5.31,0,0,0-.19-.88,9.34,9.34,0,0,0-.7-1.68l0,0,0,0-.63-.31c-.21-.1-.43-.2-.62-.31a3.44,3.44,0,0,1-.52-.37,2,2,0,0,1-.39-.44h0l0,0a.38.38,0,0,1-.11-.12s0,0,.07-.06a1.7,1.7,0,0,1,.47,0h.07a.33.33,0,0,0,0,.13.35.35,0,0,0,.07.25.74.74,0,0,0,.27.19h0a.62.62,0,0,0,.13-.24.36.36,0,0,0,0-.1s0-.07,0-.11l0-.11s0-.07-.06-.11,0-.09,0-.12a.16.16,0,0,1,.14-.06h.22a.69.69,0,0,0-.05.13.34.34,0,0,0,.07.24.82.82,0,0,0,.25.19h.05a.59.59,0,0,0,.15-.23.29.29,0,0,0,0-.09.34.34,0,0,0,0-.1.42.42,0,0,0,0-.1s0-.08,0-.12a.12.12,0,0,1,0-.1h.46l0,.08Zm8.4,7.57h0l-1.16.11-.2-.17c-.06-.07-.13-.14-.19-.22S19,14.14,19,14.1L18.9,14c-.1-.18-.18-.38-.25-.54a1.73,1.73,0,0,0-.12-.26l.53.38Q19.81,14,20.62,14.51ZM11,14.08h0l0,0a4,4,0,0,0-.48,0,4.47,4.47,0,0,0-.85.2v0a.45.45,0,0,0,0-.38,1.44,1.44,0,0,0-.18-.25l.52-.13a2.07,2.07,0,0,0,.54-.25,1.44,1.44,0,0,0,.58-.78h0c-.32.19-.58.38-.86.56l-.39.3-.22.14-.26.1-.08,0,0,.05a.36.36,0,0,1,0,.52.3.3,0,0,1-.11.07l-.14.07-.07,0-.11,0-.18,0-.37,0H8.17l-.13,0a.23.23,0,0,1-.16-.16.75.75,0,0,1,0-.3h0a.5.5,0,0,1,.29-.28c.23-.07.62-.56.62-.56l-1.13.34.82-.6a4,4,0,0,1-.7.3,1.34,1.34,0,0,1-1.54-.61,2.23,2.23,0,0,0-1.11-.82c.84.11,1,.24,1,.24-.24-.87-1.94-.69-1.94-.69l1.67-.34-1.1-.17,1.12-.32-1.31-.14L6.4,9.43H5.24L6.8,9.21l-1.25,0,1.81-.36-.78-.22.84-.07-1-.38L8,8.22,7.69,8l.55.16a.44.44,0,0,0-.47.25c-.26.53-.19.62.1.79a2.36,2.36,0,0,0,1.42.08c.34-.11,1-.19,1,0,0,0-.21-.45-.51-.28s-2.28.29-2-.34a.69.69,0,0,1,.91-.36l-.06,0,.4.13.07,0,.08,0,.16,0,.33,0h.65l.09.06c.2.12.39.23.58.36l.53.32c.18.55.37,1.11.5,1.66a6.11,6.11,0,0,1,.23,1.67,1.42,1.42,0,0,1,0,.2.32.32,0,0,1,0,.09l0,.11a1.06,1.06,0,0,0-.08.47,1.27,1.27,0,0,0,.13.46l0,.06L12.14,14A2.17,2.17,0,0,0,11,14.08Zm-.67-6.84h0l-.1.09-.07-.07-.09-.11a.61.61,0,0,1,0-.12.22.22,0,0,1,0-.08l0,0A3,3,0,0,1,10.36,7.24Zm.19-.78h0s0-.09,0-.1l0,0h0a1.33,1.33,0,0,1,.16.17l.08.12a.43.43,0,0,1,0,0,.5.5,0,0,0,.05.13l.08.12-.12,0a.51.51,0,0,0-.21,0l0,0,0,0a.77.77,0,0,1-.08-.19.61.61,0,0,1,0-.19A.19.19,0,0,1,10.55,6.46Zm.82.13h.05l.08,0h.25l.25-.2v0s0,0,0,0h0v.22h0l-.21,0h-.36s0,0,0,0S11.37,6.59,11.37,6.59Zm1.13-.28ZM12,6.36ZM13.34,8.3h0a.26.26,0,0,1,.14,0ZM30.88,5.36l.06-.14A1.3,1.3,0,0,0,31,5.05a.17.17,0,0,0,0-.1A.14.14,0,0,0,31,4.83a.44.44,0,0,0-.15,0l0,0a.13.13,0,0,0,0-.11.22.22,0,0,0-.14-.06,1,1,0,0,0-.31,0s0,0,0,0a.27.27,0,0,0,0-.12.83.83,0,0,0-.14-.22.44.44,0,0,0-.12-.11.37.37,0,0,0-.14,0l-.09,0a1,1,0,0,0-.08-.22l-.05-.07-.05,0a.18.18,0,0,0-.13,0,.2.2,0,0,0-.13,0A.58.58,0,0,0,29,3.58a1.22,1.22,0,0,0-.63,0l-.14.06a.28.28,0,0,0-.15.14c0,.14,0,.18.05.24a1.2,1.2,0,0,1,.13.31,1.53,1.53,0,0,1,0,.64,2.34,2.34,0,0,1-.09.33,2.75,2.75,0,0,1-.14.3.59.59,0,0,1-.57.22,5.33,5.33,0,0,1-.92-.15,19.83,19.83,0,0,0-2-.38c-.33,0-.69-.08-1-.09a6.44,6.44,0,0,0-1.07,0,3.38,3.38,0,0,0-1,.3,2,2,0,0,0-.7.58,2,2,0,0,0-.22.32,1.5,1.5,0,0,0-.09.18.71.71,0,0,0,0,.2,1.88,1.88,0,0,0,.09.71A5.82,5.82,0,0,0,21,8.81l-.08,0a2.3,2.3,0,0,0-.67-.21,2.89,2.89,0,0,0-.77,0h-.08a1.73,1.73,0,0,0-.3-.38,3.37,3.37,0,0,0-1.38-.68L17,7.29a2.07,2.07,0,0,1-.59-.23.27.27,0,0,1-.1-.13s0,0,0-.06v-.2a1.56,1.56,0,0,0-.13-.58.82.82,0,0,0-.22-.3.57.57,0,0,0-.26-.14.64.64,0,0,0-.43,0,.59.59,0,0,0-.12.06l-.05,0-.13,0-.34.08c-.23,0-.48.08-.73.1l-.18,0h-.19a.66.66,0,0,0-.24,0l-.14,0H13.1l-.21,0h-.1l-.15,0,0,0-.09,0-.19,0a.52.52,0,0,0-.16.06h-.22a.59.59,0,0,0-.33.11l0,0h-.12l-.21,0a1,1,0,0,0-.21.09L11,6.4a.59.59,0,0,0-.12-.17.33.33,0,0,0-.27-.09.34.34,0,0,0-.22.11.9.9,0,0,0-.1.11s-.05.09-.07.13a.43.43,0,0,0,0,.11l-.07,0a.41.41,0,0,0-.33.07.26.26,0,0,0-.1.14.41.41,0,0,0,0,.1.5.5,0,0,0,0,.21.58.58,0,0,0,.11.18,1.71,1.71,0,0,0-.3.09.38.38,0,0,0-.14.11.14.14,0,0,0,0,.16.6.6,0,0,0,.2.19,3.51,3.51,0,0,0,.44.42l.39.3H9.75l-.32,0-.14,0-.07,0,0,0h0A14.93,14.93,0,0,0,7.27,7.8H7.21L7,7.66l-.38.07A4.06,4.06,0,0,0,5.18,8a7.68,7.68,0,0,0-1.69.87,4.42,4.42,0,0,0-1.2,1.2,2.39,2.39,0,0,0-.4,1.44,2.87,2.87,0,0,0,.5,1.43,5.84,5.84,0,0,0,.5.64,5.92,5.92,0,0,0,.62.6,5.24,5.24,0,0,0,1.67.92,5.78,5.78,0,0,0,2.12.27A8.46,8.46,0,0,0,9.35,15c.32-.1.63-.22.93-.34s.6-.27.88-.36a1.75,1.75,0,0,1,.9-.1,1.6,1.6,0,0,1,.56.26,2.55,2.55,0,0,0,.41.3,2.9,2.9,0,0,0,.53.26,3.93,3.93,0,0,0,.58.19c.2.06.41.09.61.13l0,0-.08,0A9.79,9.79,0,0,0,16.75,15c1.35-.19,2.72-.31,4.09-.43l.21,0-.16-.09a19.15,19.15,0,0,1-3.16-2.23A10,10,0,0,1,16.49,11a4,4,0,0,1-.74-1.43V9.49l-.08,0a1.3,1.3,0,0,1-.15-.1l-.13-.12A.46.46,0,0,1,15.26,9a.52.52,0,0,0-.06-.21.54.54,0,0,0-.11-.18,2.78,2.78,0,0,0-.27-.33,12.29,12.29,0,0,0-1.25-1.12A1.09,1.09,0,0,0,13.49,7a.91.91,0,0,0-.17-.17,1,1,0,0,0-.57-.21h-.36l.08-.17h0l.07,0h.15l.1,0a.32.32,0,0,0,.1-.07h.44l0,0H14a7.54,7.54,0,0,0,.81-.12,2,2,0,0,0,.41-.1,1,1,0,0,0,.22-.08l.1,0h0l0,0a.49.49,0,0,1,.13.18,1.35,1.35,0,0,1,.11.49v.2a.25.25,0,0,0,0,.08.6.6,0,0,0,.25.34,2.68,2.68,0,0,0,.77.32l.73.2a2.74,2.74,0,0,1,1.16.56,1.38,1.38,0,0,1,.31.43l.22.52c.07.17.14.35.23.53a1.18,1.18,0,0,0,.24.29,1.13,1.13,0,0,0,.43.18c.29.07.52.1.79.15l.8.09a11.87,11.87,0,0,1,2.95.6,2.43,2.43,0,0,1,1.06.7,1.26,1.26,0,0,1,.3,1,1.44,1.44,0,0,1-.67.9,4.46,4.46,0,0,1-1.29.56,8,8,0,0,1-1.5.29,5.74,5.74,0,0,1-1.55,0l0,0a5.64,5.64,0,0,0,1.59.06,8.79,8.79,0,0,0,1.55-.25,4.77,4.77,0,0,0,1.39-.56h0l.12,0,.43-.13a4,4,0,0,0,.61-.28,3,3,0,0,0,.68-.47A1.59,1.59,0,0,0,28,11.33a1.22,1.22,0,0,0-.1-.23c0-.08-.1-.15-.15-.23a3,3,0,0,0-.41-.39l0,0,0-.17a1.86,1.86,0,0,0-.12-.41,2.25,2.25,0,0,0-.24-.46A2.36,2.36,0,0,0,26.51,9a1.9,1.9,0,0,0-.43-.33,1.34,1.34,0,0,0-.39-.16h0c.22,0,.42,0,.63-.08s.49-.1.73-.15a6.54,6.54,0,0,1,.7-.13,1.78,1.78,0,0,1,.31,0h.11l.17.05h0l0,0,.09,0a1,1,0,0,0,.18.07,1.67,1.67,0,0,0,.4.1,2,2,0,0,0,.87,0,1.07,1.07,0,0,0,.39-.18A.4.4,0,0,0,30.44,8a.36.36,0,0,0,0-.11.21.21,0,0,0,0-.08,1.62,1.62,0,0,1,0-.49,3.88,3.88,0,0,1,.32-1c0-.08.08-.14.14-.24a.5.5,0,0,0,.08-.28A1,1,0,0,0,30.88,5.36Z"/><path class="cls-4" d="M10.85,14.15s1.14,0,1.09.69-.89.7-.89.7a.63.63,0,0,0,.47-.63s-.5.58-.86.63a.3.3,0,0,0-.12-.51c-.42-.17-1.47.34-3.5.33s3.81-1.21,3.81-1.21"/></svg>