<svg id="Capa_1" data-name="Capa 1" xmlns="http://www.w3.org/2000/svg" viewBox="0 0 30.35 26.29"><defs><style>.cls-1{fill:#fccdb5;}.cls-2{fill:#f5a4c7;}.cls-3{fill:#231f20;}</style></defs><title>1-1mes</title><path class="cls-1" d="M13.76,24.38a6.1,6.1,0,0,1-4.11-.24,2.81,2.81,0,0,1-1.73-1.62c-.29-1-.49-.92-.49-.92a11.49,11.49,0,0,1-1.34.51,2,2,0,0,0-1.2.85c-.31.39-1.38.19-1.85,0s-1.65-.84-2-.91-.26-.43-.28-.63.1-.05,0-.25S.88,21,.88,21s-.17-.24-.15-.37.39-.07.39-.07A3.12,3.12,0,0,1,1,20.11c0-.22.32-.36.53-.34s.37.16.74.56a1.33,1.33,0,0,0,1.38.31A15.28,15.28,0,0,0,6.13,19L6,18.89a5.92,5.92,0,0,0-1.29-.22c-.45-.1-1.15-.34-.67-.74s.45-1.23.78-1.53.92-.86,1.31-.84.18.19,0,.45A1.15,1.15,0,0,0,6,17.11c.18.61,1.21.34,2.55.59s1.39.68,1.39.68l2.56-.28a38.34,38.34,0,0,1,5,.74s.1-.07.13-.59,1.15-1.71,1.9-2.31.67-.79.73-1.56a.93.93,0,0,1,.9-.9.3.3,0,0,1,.32.15.65.65,0,0,1,.4-.14c.18,0,0,.46,0,.46a3.93,3.93,0,0,0,.39-.37c.07-.09.15,0,.23.13s-.26.52-.26.52.3-.24.46-.35.19-.06.26,0-.35.65-.35.65a1.78,1.78,0,0,1,.52-.06c.22,0,.21,0,.24.18s-.36.35-.55.56-.76.36-1.13.7a6.86,6.86,0,0,0-.88,1.69.85.85,0,0,1,.5-.11,2.53,2.53,0,0,0,1.43-.34,12,12,0,0,1,2.13-.78,4.42,4.42,0,0,1,4.41,2.19,3.54,3.54,0,0,1-.63,4.22c-1.32,1.38-4.58,1.3-6.16.49a3.82,3.82,0,0,0-2.29-.64s.05.24-.47.8a11.77,11.77,0,0,1-4,1.9,2,2,0,0,1-2-1"/><path class="cls-2" d="M9.25,18.62s2.16-.73,2.58-.78.66,0,.82.5.29,1.05.29,1.05.07.5-.13.38-.4-.13-.44,0a5.18,5.18,0,0,0,.34,1.74,20.49,20.49,0,0,1,.62,2.36l.22.6s-2.45.47-3.3-.05a3.92,3.92,0,0,0-1-.54s2-.21,2.29-.86a2.07,2.07,0,0,0,.2-1.58c-.16-.64.06-2.69-2.49-2.79"/><path class="cls-3" d="M21.85,13.58h0m-9,5.77h0v0l0,.21a.57.57,0,0,0-.11-.11.19.19,0,0,0-.11-.05.36.36,0,0,0-.23,0,.31.31,0,0,0-.13.14.51.51,0,0,0-.06.2,1.35,1.35,0,0,0,0,.18,1.15,1.15,0,0,0,0,.19,1.92,1.92,0,0,0,.15.74,2.72,2.72,0,0,0,.16.35,2.11,2.11,0,0,0,.21.31,12,12,0,0,0,.47,2.26,3.46,3.46,0,0,0,.24.57v0l-.1,0a2.65,2.65,0,0,1-.3.06l-.28,0q-.39,0-.78,0a5.3,5.3,0,0,1-.8-.1l-.38-.1-.38-.13a7.1,7.1,0,0,1-.69-.28,3.45,3.45,0,0,0,.64-.05,2.89,2.89,0,0,0,.67-.2,1.21,1.21,0,0,0,.28-.18,1.33,1.33,0,0,0,.2-.22,2.53,2.53,0,0,0,.35-.93,4,4,0,0,0,.08-.92,5.88,5.88,0,0,0-.1-.93,3.82,3.82,0,0,0-.28-.91,2.16,2.16,0,0,0-.29-.45,1.82,1.82,0,0,0-.47-.38,2.44,2.44,0,0,0-.62-.25l-.16,0,.7-.25a7,7,0,0,1,1.22-.31,1.36,1.36,0,0,1,.28,0s.12.06.17.12a1.72,1.72,0,0,1,.23.42A5.69,5.69,0,0,1,12.89,19.35ZM9.06,23.58h0a3.27,3.27,0,0,1-.53-.42l0-.05-.05-.06-.06-.11a2.21,2.21,0,0,1-.12-.27c-.07-.18-.12-.37-.18-.56L8,21.81a.94.94,0,0,0-.06-.15s0-.09-.1-.15v-.09a.14.14,0,0,0-.1-.11.28.28,0,0,0-.28,0h0l-.08.07-.11,0L7,21.53l-.39.16a3.49,3.49,0,0,1-.54.23l-.1,0a2.37,2.37,0,0,0-.5.11,1.23,1.23,0,0,0-.26.12.61.61,0,0,0-.2.19L5,22.45l0,.07-.08.13a1.12,1.12,0,0,1-.24.19A1.59,1.59,0,0,1,3.9,23H3.67l-.15,0a2.07,2.07,0,0,1-.38-.12,10.16,10.16,0,0,1-1.46-.78h0A.28.28,0,0,0,1.51,22H1.36l-.14,0-.07,0h.24a.22.22,0,0,0,.24-.13c0-.08-.07-.15-.19-.17h-.2l-.16,0H1.4a.16.16,0,0,0,.19-.11c0-.07-.06-.13-.16-.13h-.1l-.08,0a.52.52,0,0,1-.16-.06A.57.57,0,0,1,1,21.18l-.07-.05,0,0a.33.33,0,0,1,.1,0h.17l.15,0h.18a.14.14,0,0,0,.1-.07c0-.05,0-.1-.1-.12h0l-.3,0-.07,0L1,20.77l-.06-.06s0,0,0-.05v0h.21a2.2,2.2,0,0,1,.44.05h0a.1.1,0,0,0,.11,0s0-.07-.06-.08h0l-.37-.09c-.07-.16-.12-.34,0-.45a.55.55,0,0,1,.23-.14.17.17,0,0,1,.17,0,2.07,2.07,0,0,0,.51.46,3.48,3.48,0,0,0,.66.36,2.34,2.34,0,0,0,.4.13,1.17,1.17,0,0,0,.53,0,2,2,0,0,0,.7-.39c.36-.28.67-.58,1-.83a3.57,3.57,0,0,1,.56-.36A4.89,4.89,0,0,1,6.59,19a5.15,5.15,0,0,1,.7-.2l.35-.06.39,0a10.3,10.3,0,0,1,1.57.05,6.66,6.66,0,0,1,.76.12l.19.06h0a1.67,1.67,0,0,1,.37.32,1.84,1.84,0,0,1,.25.39,3.74,3.74,0,0,1,.24.87,5.26,5.26,0,0,1,.07.89,5.33,5.33,0,0,1-.06.89,2.08,2.08,0,0,1-.3.83,1.15,1.15,0,0,1-.14.17.63.63,0,0,1-.2.13,2.13,2.13,0,0,1-.52.18,4,4,0,0,1-1,0ZM5.67,18.69h0A2.63,2.63,0,0,0,5,18.56a2.9,2.9,0,0,1-.58-.08l-.23-.11A.52.52,0,0,1,4,18.25c0-.05,0-.14.15-.26s.26-.23.38-.37a1.07,1.07,0,0,0,.28-.51,1.92,1.92,0,0,0,0-.24.58.58,0,0,1,0-.19.49.49,0,0,1,.24-.3,1.86,1.86,0,0,1,.25-.14l.16-.11s.07-.09.06-.1l0,0v0a.42.42,0,0,1,.26-.3.19.19,0,0,1,.1,0h.12l.1,0a.07.07,0,0,1,0,.05,2.53,2.53,0,0,1-.23.42.69.69,0,0,0-.11.47,2,2,0,0,0,.36.92.17.17,0,0,0,.11.06h0c.31,0,.63.07.94.11l.93.11a9.3,9.3,0,0,1,.92.16,2.9,2.9,0,0,1,.42.12.6.6,0,0,1,.32.19l-.5.17-.28.1c-.36,0-.72,0-1.08-.06h-.4a4.28,4.28,0,0,0-.44.06,6.36,6.36,0,0,0-.78.2l-.35.13A3.39,3.39,0,0,0,5.67,18.69Zm23.5-.47L29,18l-.21-.21-.22-.22-.25-.2-.25-.2L27.77,17a3.18,3.18,0,0,0-.61-.31,4.68,4.68,0,0,0-2.89-.15,8.12,8.12,0,0,0-1.29.42l-.57.24a2.69,2.69,0,0,1-.53.2c-.22.05-.53,0-.84.07l.49-.77.48-.76.21-.06a1.13,1.13,0,0,0,.29-.15,1,1,0,0,0,.21-.2,1.72,1.72,0,0,1,.13-.18.53.53,0,0,1,.14-.12l.25-.13a.87.87,0,0,0,.23-.19.25.25,0,0,0,0-.29.44.44,0,0,0-.35-.17,1.36,1.36,0,0,0-.36.05l-.07,0a1.07,1.07,0,0,0,.14-.16.7.7,0,0,0,.15-.43.13.13,0,0,0-.06-.12c-.08-.05-.15,0-.2,0a1.5,1.5,0,0,0-.25.15,0,0,0,0,1,0,0l0-.05a.63.63,0,0,0,.09-.24.17.17,0,0,0,0-.07.22.22,0,0,0-.1-.08.36.36,0,0,0-.25,0l-.16.1a.24.24,0,0,0,0-.15s-.14-.13-.13-.11h-.19a.46.46,0,0,0-.14.05.18.18,0,0,0-.07-.05.62.62,0,0,0-.28,0l-.2,0a2.2,2.2,0,0,0-.34.13.89.89,0,0,0-.41.43,3.54,3.54,0,0,0-.27.9.65.65,0,0,1-.16.38,2.89,2.89,0,0,1-.35.35c-.26.24-.53.47-.81.7l-.4.36a2.86,2.86,0,0,0-.38.4,3.51,3.51,0,0,0-.44.89,4.34,4.34,0,0,0-.14.7,16,16,0,0,0-2.18-.38c-.85-.09-1.7-.15-2.55-.16v0L12.56,18a.4.4,0,0,0-.28-.2,1.23,1.23,0,0,0-.38,0,7.28,7.28,0,0,0-1.3.29c-.23.06-.45.14-.67.22,0-.12-.15-.21-.26-.29a2.68,2.68,0,0,0-.42-.19,5.79,5.79,0,0,0-.93-.25c-.31-.07-.64-.11-1-.15s-.58,0-.88-.06c-.09-.11-.18-.21-.26-.32A2,2,0,0,1,6,16.6a.53.53,0,0,1,.07-.42,4.5,4.5,0,0,0,.27-.43.13.13,0,0,0,0-.16.43.43,0,0,0-.18-.09l-.09,0a.29.29,0,0,0-.13,0l-.21,0a.8.8,0,0,0-.5.42v0s0,0,0,0,0,0,0,0l-.08,0-.29.13a.9.9,0,0,0-.44.47.85.85,0,0,0,0,.26.71.71,0,0,1,0,.21,1,1,0,0,1-.21.34l-.37.37a1.1,1.1,0,0,0-.17.25.34.34,0,0,0,0,.35,1,1,0,0,0,.3.23,2.58,2.58,0,0,0,.34.12,2.32,2.32,0,0,0,.73.05,2.47,2.47,0,0,1,.61,0,2.24,2.24,0,0,1,.37.1l-.28.12a4.28,4.28,0,0,0-.62.38c-.38.28-.69.58-1,.85a1.79,1.79,0,0,1-.51.32,1.27,1.27,0,0,1-.58-.11,3.14,3.14,0,0,1-.61-.3,1.92,1.92,0,0,1-.49-.39.53.53,0,0,0-.54-.1.62.62,0,0,0-.34.23.5.5,0,0,0,.07.54.83.83,0,0,0-.22,0,.27.27,0,0,0-.16.08.15.15,0,0,0,0,.14.47.47,0,0,0,.05.1l.06.07,0,0H.71a.25.25,0,0,0-.11,0S.53,21,.53,21a.1.1,0,0,0,0,.09l0,.06.07.09.08.07h0l-.16,0c-.05,0-.1,0-.13.12s0,.09,0,.14l.12.08h0l0,0a.17.17,0,0,0,0,.13A.27.27,0,0,0,.61,22l.08.06.1.07a1,1,0,0,0,.22.09,1.05,1.05,0,0,0,.24.06l.15,0a10.19,10.19,0,0,0,1.46.81,4.44,4.44,0,0,0,.48.17,1.46,1.46,0,0,0,.31,0H3.9A2.22,2.22,0,0,0,5,23.13a1.11,1.11,0,0,0,.36-.31.88.88,0,0,0,.12-.17l0-.09,0-.06a0,0,0,0,1,0,0l.19-.12a2.69,2.69,0,0,1,.4-.09,6.3,6.3,0,0,0,1-.24,3.07,3.07,0,0,0,.36-.2l0,.06.07.28q.08.3.18.6a2,2,0,0,0,.14.3,1,1,0,0,0,.1.16L8,23.3l.07.07a4.74,4.74,0,0,0,.62.46,6.4,6.4,0,0,0,1.51.66l.41.12c.15,0,.29.07.44.09a4.53,4.53,0,0,0,.9.05,7,7,0,0,0,1.53-.23,1.58,1.58,0,0,0,.12.15l.26.24a2.55,2.55,0,0,0,.66.41,2.47,2.47,0,0,0,.88.2,2.22,2.22,0,0,0,.9-.16l.71-.29c.48-.2,1-.39,1.43-.62a6,6,0,0,0,1.24-.8,1.32,1.32,0,0,0,.54-1.11h0a1.14,1.14,0,0,0,0-.37,1.8,1.8,0,0,0-.17-.34,2.36,2.36,0,0,0-.59-.59l0,0a2,2,0,0,1,.53.6,1.51,1.51,0,0,1,.13.33,1.3,1.3,0,0,1,0,.34h0a1.27,1.27,0,0,1-.57,1,5.63,5.63,0,0,1-1.23.73c-.45.21-.93.4-1.42.58l-.72.29a1.84,1.84,0,0,1-.7.11,2.21,2.21,0,0,1-1.25-.53,2.39,2.39,0,0,1-.23-.22.94.94,0,0,1-.16-.23,5,5,0,0,1-.23-.53,14.27,14.27,0,0,1-.47-2.25.09.09,0,0,0,0-.06q-.11-.14-.21-.3a1.87,1.87,0,0,1-.15-.32,2,2,0,0,1-.15-.67V20c0-.07,0-.12,0-.17s0,0,0-.07v0a1.3,1.3,0,0,1,.1.15c.06.11.11.22.16.33s.11.09.19.08.15-.07.14-.13a.43.43,0,0,1,0-.12v-.14a2.26,2.26,0,0,1,0-.26,2.51,2.51,0,0,1,0-.27.61.61,0,0,1,0-.11v0a1.07,1.07,0,0,1,0,.25,3.25,3.25,0,0,1,0,.54h0c0,.05.05.1.13.1s.16,0,.16-.09h0a1.88,1.88,0,0,1,.16-.7,1,1,0,0,1,.21-.32.61.61,0,0,1,.31-.19h0s0,0,0,0a.48.48,0,0,1,0,.17,2.41,2.41,0,0,1-.07.35v0c-.09.23-.16.47-.23.71,0,0,0,.08.09.09s.13,0,.14-.06a6.34,6.34,0,0,0,.26-.73l0-.15a.77.77,0,0,1,.07-.16.7.7,0,0,1,.09-.17.73.73,0,0,1,.1-.13h0v0a.36.36,0,0,1,.08.15,1.27,1.27,0,0,1,0,.34,2.87,2.87,0,0,1-.13.7s0,.06.05.07a.12.12,0,0,0,.12,0,1.44,1.44,0,0,1,.43-.42c.09-.07.18-.12.24-.1l0,0h0a.45.45,0,0,1,.07.18.64.64,0,0,1-.21.5l-.24.21-.13.09a.78.78,0,0,0-.18.11.48.48,0,0,0-.1.35,1.46,1.46,0,0,0,.07.3,4,4,0,0,0,.23.57c.08.18.18.36.28.54a4.23,4.23,0,0,0,.33.53h0a.33.33,0,0,0,.33.09c.13,0,.2-.14.16-.23s-.2-.36-.31-.54l.55-.25a7.67,7.67,0,0,0,.7-.36l0,0c-.28.06-.55.13-.82.21l-.63.19c-.06-.09-.12-.18-.17-.27a2.86,2.86,0,0,1-.27-.52.87.87,0,0,1-.08-.26.32.32,0,0,1,0-.2h0a2.34,2.34,0,0,0,.26-.19l.05-.05,0,0a.91.91,0,0,0,.24-.24.69.69,0,0,0,.09-.3.45.45,0,0,0,0-.23.44.44,0,0,0-.19-.29.35.35,0,0,0-.28,0l0,0h0l-.08.05-.07,0-.21.17c0-.12.05-.26.06-.39a1.17,1.17,0,0,0,0-.37.66.66,0,0,0-.09-.19l0,0h0l-.08,0a.19.19,0,0,0-.15,0,.19.19,0,0,0-.09,0l-.08.07h0a.23.23,0,0,0-.07-.07.4.4,0,0,0-.23-.05.63.63,0,0,0-.32.11,1.08,1.08,0,0,0-.2.16,1.06,1.06,0,0,0-.16.21.41.41,0,0,0,0-.09.27.27,0,0,0-.15-.1h-.13l-.12,0a.38.38,0,0,0-.14.17s0,0,0,.06a4.36,4.36,0,0,0-.17-.86c0-.09-.07-.19-.11-.29.83.09,1.66.2,2.47.33a17.8,17.8,0,0,1,2.37.55h.08a.22.22,0,0,0,.25-.15h0A4.36,4.36,0,0,1,18,18a2.89,2.89,0,0,1,.41-.8,2.11,2.11,0,0,1,.31-.36l.39-.36c.26-.24.53-.47.78-.72a4.48,4.48,0,0,0,.36-.4.72.72,0,0,0,.14-.24.79.79,0,0,0,.05-.24,3.5,3.5,0,0,1,.22-.86.6.6,0,0,1,.28-.31.94.94,0,0,1,.23-.1l.1,0,0,.06a2.14,2.14,0,0,1-.13.19l-.31.39h0c0,.05,0,.11.06.14a.19.19,0,0,0,.21,0h0l.33-.39.09-.12a1.59,1.59,0,0,1,.13-.13.94.94,0,0,1,.18-.12s0,0,0,.05a1.13,1.13,0,0,1-.11.22,4.43,4.43,0,0,1-.29.46h0s0,.09.05.11a.15.15,0,0,0,.16,0q.15-.2.33-.39a1.8,1.8,0,0,1,.4-.33s.08,0,.06,0h0s0,0,0,0a.61.61,0,0,1-.06.21,3.09,3.09,0,0,1-.25.42s0,0,0,.06a.1.1,0,0,0,.09,0,2.9,2.9,0,0,1,.36-.34l.21-.15.09,0a.34.34,0,0,1,0,.08.84.84,0,0,1-.33.63l-.31.14-.11,0h0l-.07,0a.67.67,0,0,0-.34.06,3,3,0,0,0-.46.28l0,0a2.69,2.69,0,0,1,.48-.24.49.49,0,0,1,.22,0l.07,0,.1,0a.84.84,0,0,0,.18,0c.21-.06.37-.14.54-.17a.6.6,0,0,1,.23,0c.06,0,.1,0,.11.05a.14.14,0,0,1,0,.11.52.52,0,0,1-.16.12l-.25.1a1,1,0,0,0-.25.18c-.07.06-.12.14-.17.18a.64.64,0,0,1-.15.13l-.19.08-.18,0h-.15l-.08.1a2.45,2.45,0,0,0-.3.44,2.62,2.62,0,0,0-.19.46,2.93,2.93,0,0,0-.18.87l-.31.07a1.92,1.92,0,0,0-.89.64,2.51,2.51,0,0,0-.62,1.4,1.74,1.74,0,0,0,.34,1.1,3,3,0,0,0,.59.59,2.49,2.49,0,0,0,.27.18l0,0a1.63,1.63,0,0,1-.22-.19,2.58,2.58,0,0,1-.47-.61,1.66,1.66,0,0,1-.21-1,2.71,2.71,0,0,1,.65-1.27,1.62,1.62,0,0,1,.72-.5,2,2,0,0,1,.53-.08,3.66,3.66,0,0,0,.69-.07,7,7,0,0,0,1.16-.52,8.53,8.53,0,0,1,1.18-.46,5,5,0,0,1,1.35-.2,3.66,3.66,0,0,1,1.36.27l0,0a2.54,2.54,0,0,0-1-.08,2.53,2.53,0,0,1,1.13.3,1.63,1.63,0,0,0-1.08,0,4.71,4.71,0,0,1,1.6.35c-1.2-.16-1.58.3-1.58.3a11,11,0,0,1,1.55.4,3,3,0,0,0-1.08-.16,10.85,10.85,0,0,1,2,.7,2.36,2.36,0,0,0-1.49,0c1.49,0,1.72.38,1.72.38a2.53,2.53,0,0,0-1.77.09,8.63,8.63,0,0,1,1.41.55,3.09,3.09,0,0,0-1.3-.08c1.17.07,1.39.57,1.39.57a1.88,1.88,0,0,0-1.24,0,2.26,2.26,0,0,1,.79.44,3.29,3.29,0,0,0-1.67.07,2,2,0,0,0-.85.42l.49-.12a2.29,2.29,0,0,0-.53.46,2.19,2.19,0,0,1-.87.41h.57L24.09,22,25.37,22l-.87.13,1,.12-.32.11.17.18-.15.19h.3l-.38.47.19.05a2.29,2.29,0,0,1-1.63.13l.13.13-1.08-.31.76.29-.37-.08a10.92,10.92,0,0,1-1.39-.49,3,3,0,0,0-1-.25,2.21,2.21,0,0,0-.37,0v0s.13,0,.35,0a2.91,2.91,0,0,1,.88.31A9.55,9.55,0,0,0,23,23.6,8.46,8.46,0,0,0,25,24a6,6,0,0,0,2.52-.23,3.61,3.61,0,0,0,1.88-1.46A3.47,3.47,0,0,0,29.17,18.22Z"/><path class="cls-3" d="M21.06,20.31A1.27,1.27,0,0,1,20.61,19c-1.13.76.45,1.34.45,1.34"/><path class="cls-3" d="M21.44,19.19A2.16,2.16,0,0,1,22.56,19l-.31-.1s-.76-.25-.81.32"/><path class="cls-3" d="M21.61,19.51c.09.13.24,0,.15-.22,0,0-.23.09-.15.22"/><path class="cls-3" d="M22.93,22.72a.29.29,0,0,1-.11-.11.21.21,0,0,1,.05-.27.33.33,0,0,0-.28.3.44.44,0,0,0,.07.19.83.83,0,0,0,.16.17.78.78,0,0,0,.19.12c.08.05.15.07.22.11a3.92,3.92,0,0,0,.49.13,2.37,2.37,0,0,0,.54,0,1.54,1.54,0,0,0,.3,0,1,1,0,0,0,.28-.12l.11-.09L25,23a.36.36,0,0,0,0-.2.71.71,0,0,0-.16-.34h0a.39.39,0,0,0-.16-.1.67.67,0,0,0-.19-.05,1.27,1.27,0,0,1,.12.1.53.53,0,0,1,.06.1.76.76,0,0,0,0,.15s0,.1,0,.14,0,.09-.06.11,0,0,0,0l-.05,0a.42.42,0,0,1-.13,0l-.17,0a1.87,1.87,0,0,1-.4,0,2.57,2.57,0,0,1-.4-.08l-.19-.06a.67.67,0,0,1-.18-.08.5.5,0,0,1-.14-.08"/><path class="cls-3" d="M24.07,19.93c-.12-.5-.85-.43-.85-.43l.43.19s-.43,0-.28.34a.5.5,0,0,0,.54.28l-.13.26a.51.51,0,0,0,.29-.64"/><path class="cls-3" d="M22.16,18.14s.08.05.23,0l-.12.2s.72-.27.61-.51-.61-.09-.61-.09l.31,0s-.7.32-.42.41"/><path class="cls-3" d="M19.9,19.29a.55.55,0,0,0,0,.12.46.46,0,0,0,0,.26c0,.19,0,.38,0,.38h0s0-.19,0-.38a.57.57,0,0,0,0-.26.55.55,0,0,0,0-.12Z"/><path class="cls-3" d="M3.66,2.23a7.63,7.63,0,0,1,0-.93h0c-.08.26-.17.54-.28.82L2.9,3.23H2.65L2.24,2.17C2.13,1.86,2,1.57,2,1.3H2c0,.28,0,.61,0,.94l-.07,1H1.49L1.69.88h.43L2.52,2a7.15,7.15,0,0,1,.28.81h0c.07-.27.15-.49.26-.81L3.46.88H3.9l.2,2.36H3.73Z"/><path class="cls-3" d="M4.89,2.39h0c0,.28.07.67.43.67s.4-.4.4-.67-.06-.66-.41-.66-.42.4-.42.66m1.23,0a.79.79,0,0,1-.82.88.77.77,0,0,1-.8-.87.8.8,0,0,1,.83-.88A.77.77,0,0,1,6.12,2.39Z"/><path class="cls-3" d="M6.73,1.54,7,2.5a4,4,0,0,1,.11.41h0c0-.14.07-.28.1-.41l.31-1H8l-.64,1.7H7l-.64-1.7Z"/><path class="cls-3" d="M8.3,3.24h0V1.54h.4v1.7Zm.43-2.13c0,.1-.09.17-.24.17s-.23-.07-.23-.17.1-.18.23-.18S8.73,1,8.73,1.11Z"/><path class="cls-3" d="M9.24,2c0-.2,0-.3,0-.44h.35l0,.22h0a.66.66,0,0,1,.56-.24.51.51,0,0,1,.51.26h0a.79.79,0,0,1,.25-.2.9.9,0,0,1,.34-.06.55.55,0,0,1,.6.6V3.24h-.39V2.18c0-.22-.05-.44-.35-.44a.39.39,0,0,0-.37.26.71.71,0,0,0,0,.15V3.24h-.39V2.13c0-.19,0-.39-.34-.39A.37.37,0,0,0,9.65,2a.61.61,0,0,0,0,.15V3.24H9.24Z"/><path class="cls-3" d="M12.42,3.24h0V1.54h.39v1.7Zm.42-2.13c0,.1-.09.17-.24.17s-.23-.07-.23-.17.11-.18.24-.18S12.84,1,12.84,1.11Z"/><path class="cls-3" d="M14.41,2.22h0c0-.34-.18-.49-.37-.49s-.39.26-.4.49Zm-.78.2c0,.52.31.63.59.63A1.08,1.08,0,0,0,14.63,3l.06.2a1.43,1.43,0,0,1-.54.08.8.8,0,0,1-.9-.85.81.81,0,0,1,.83-.89.68.68,0,0,1,.71.75v.15Z"/><path class="cls-3" d="M15.21,2c0-.2,0-.3,0-.44h.35l0,.21h0a.69.69,0,0,1,.57-.23.54.54,0,0,1,.6.58V3.24h-.4V2.15c0-.2-.06-.41-.34-.41a.39.39,0,0,0-.38.28.71.71,0,0,0,0,.15V3.24h-.4Z"/><path class="cls-3" d="M17.74,1.1v.44h.47v.21h-.47v1c0,.22.12.28.26.28h.16v.21l-.29,0a.62.62,0,0,1-.39-.1c-.1-.07-.15-.19-.15-.43v-1H17V1.54h.3V1.17Z"/><path class="cls-3" d="M18.81,2.39h0c0,.28.07.67.43.67s.4-.4.4-.67-.06-.66-.41-.66-.42.4-.42.66m1.23,0a.79.79,0,0,1-.82.88.78.78,0,0,1-.81-.87.8.8,0,0,1,.83-.88A.78.78,0,0,1,20,2.39Z"/><path class="cls-3" d="M20.41,3a1,1,0,0,0,.4.09c.23,0,.37-.09.37-.25s-.07-.21-.32-.33-.5-.29-.5-.48.3-.47.68-.47a1.21,1.21,0,0,1,.45.08l-.11.21a.8.8,0,0,0-.33-.08c-.21,0-.32.11-.32.22s.06.18.31.29.51.28.51.52-.34.5-.74.5a1.1,1.1,0,0,1-.49-.09Z"/><path class="cls-3" d="M2.46,5.52h0c-.21,0-.68,0-.68.4a.28.28,0,0,0,.3.3A.37.37,0,0,0,2.45,6a.28.28,0,0,0,0-.09Zm.06.88,0-.18h0A.61.61,0,0,1,2,6.43a.53.53,0,0,1-.59-.49c0-.42.5-.61,1.06-.61V5.27c0-.22-.08-.38-.4-.38a.84.84,0,0,0-.4.09l-.09-.19a1.29,1.29,0,0,1,.58-.12c.49,0,.71.23.71.61V6a2.42,2.42,0,0,0,0,.39Z"/><path class="cls-3" d="M3.33,6.12a1,1,0,0,0,.4.09c.23,0,.37-.1.37-.25S4,5.74,3.78,5.63s-.5-.29-.5-.49.3-.47.68-.47a1.18,1.18,0,0,1,.45.09L4.3,5A.81.81,0,0,0,4,4.89c-.21,0-.32.11-.32.22s.06.17.31.29.51.28.51.52-.34.5-.74.5a1.09,1.09,0,0,1-.49-.1Z"/><path class="cls-3" d="M4.88,6.4h0V4.7h.39V6.4ZM5.3,4.26c0,.11-.09.18-.24.18a.2.2,0,0,1-.22-.18c0-.1.1-.17.23-.17S5.3,4.16,5.3,4.26Z"/><path class="cls-3" d="M5.82,5.14c0-.2,0-.3,0-.44h.34l0,.21h0a.72.72,0,0,1,.56-.24.54.54,0,0,1,.52.26h0a.72.72,0,0,1,.24-.19.78.78,0,0,1,.35-.07.54.54,0,0,1,.59.6V6.4H8.05V5.34c0-.22,0-.44-.35-.44a.39.39,0,0,0-.36.25.81.81,0,0,0,0,.16V6.4H6.94V5.29c0-.19-.05-.39-.35-.39a.38.38,0,0,0-.37.28.61.61,0,0,0,0,.14V6.4H5.82Z"/><path class="cls-3" d="M10.05,5.38h0c0-.34-.18-.5-.37-.5s-.39.26-.41.5Zm-.78.2h0c0,.52.3.63.59.63a1.12,1.12,0,0,0,.41-.07l.06.2a1.75,1.75,0,0,1-.54.08.8.8,0,0,1-.91-.85.82.82,0,0,1,.84-.9.68.68,0,0,1,.71.75.76.76,0,0,1,0,.16ZM10.32,4l-.53.47H9.52L9.92,4Z"/><path class="cls-3" d="M11.33,4.25V4.7h.48v.21h-.48v1c0,.22.12.28.26.28h.16l0,.2a1.21,1.21,0,0,1-.3,0,.63.63,0,0,1-.38-.1c-.1-.08-.15-.19-.15-.43v-1h-.31V4.7h.31V4.33Z"/><path class="cls-3" d="M12.15,5.14c0-.14,0-.31,0-.44h.35l0,.27h0a.63.63,0,0,1,.53-.3h.08V5H13a.46.46,0,0,0-.48.36.61.61,0,0,0,0,.15V6.4h-.39Z"/><path class="cls-3" d="M13.42,6.4h0V4.7h.4V6.4Zm.43-2.14c0,.11-.09.18-.24.18s-.23-.07-.23-.18.1-.17.23-.17S13.85,4.16,13.85,4.26Z"/><path class="cls-3" d="M15.57,6.36a1.27,1.27,0,0,1-.41.06.81.81,0,0,1-.9-.86.89.89,0,0,1,1-.88,1,1,0,0,1,.34.05L15.51,5a.9.9,0,0,0-.29,0,.58.58,0,0,0-.57.65.57.57,0,0,0,.59.64.87.87,0,0,0,.28,0Z"/><path class="cls-3" d="M16.17,5.55h0c0,.28.07.66.43.66s.4-.4.4-.66-.07-.66-.41-.66-.42.4-.42.66m1.23,0a.8.8,0,0,1-.82.88.78.78,0,0,1-.81-.88.8.8,0,0,1,.83-.88A.78.78,0,0,1,17.4,5.55Z"/><path class="cls-3" d="M17.77,6.12a1,1,0,0,0,.4.09c.23,0,.37-.1.37-.25s-.07-.22-.32-.33-.5-.29-.5-.49.3-.47.68-.47a1.18,1.18,0,0,1,.45.09l-.11.2a.81.81,0,0,0-.33-.07c-.21,0-.32.11-.32.22s.06.17.31.29.51.28.51.52-.34.5-.74.5a1.17,1.17,0,0,1-.5-.1Z"/><path class="cls-3" d="M21.22,5.35h0V5.24a.39.39,0,0,0-.37-.33c-.33,0-.44.31-.44.65s.13.64.42.64a.38.38,0,0,0,.38-.29.37.37,0,0,0,0-.11ZM21.61,4V6c0,.12,0,.31,0,.41h-.34l0-.21h0a.6.6,0,0,1-.52.24c-.41,0-.72-.31-.72-.87s.37-.89.75-.89a.52.52,0,0,1,.45.21h0V4Z"/><path class="cls-3" d="M23.22,5.38h0c0-.34-.18-.5-.37-.5s-.39.26-.41.5Zm-.78.2c0,.52.3.63.59.63a1.12,1.12,0,0,0,.41-.07l.06.2a1.75,1.75,0,0,1-.54.08.8.8,0,0,1-.91-.85.82.82,0,0,1,.84-.9.68.68,0,0,1,.71.75.76.76,0,0,1,0,.16Z"/><path class="cls-3" d="M1.93,9h0a.31.31,0,0,0,0,.1.38.38,0,0,0,.37.3c.32,0,.43-.29.43-.66s-.12-.64-.43-.64a.4.4,0,0,0-.37.3.49.49,0,0,0,0,.12Zm-.42.6c0-.1,0-.29,0-.41v-2h.4v.93h0a.61.61,0,0,1,.52-.23c.38,0,.67.31.67.86s-.36.9-.75.9a.54.54,0,0,1-.49-.25h0l0,.22Z"/><path class="cls-3" d="M3.57,8.3c0-.15,0-.31,0-.44h.36l0,.27h0a.58.58,0,0,1,.52-.3h.08v.28H4.46A.47.47,0,0,0,4,8.46a.81.81,0,0,0,0,.16v.94h-.4Z"/><path class="cls-3" d="M5.74,8.68h0c-.21,0-.68,0-.68.39a.28.28,0,0,0,.3.3.36.36,0,0,0,.37-.25.34.34,0,0,0,0-.1Zm.06.88,0-.18h0a.61.61,0,0,1-.49.21.53.53,0,0,1-.59-.49c0-.42.5-.61,1.06-.62V8.43c0-.23-.08-.39-.4-.39a1.07,1.07,0,0,0-.41.09l-.08-.19a1.48,1.48,0,0,1,.58-.11c.49,0,.71.23.71.61v.73a2.42,2.42,0,0,0,0,.39Z"/><path class="cls-3" d="M6.49,9.39l.78-1.05.2-.25H6.58V7.86H7.9V8l-.77,1-.2.26h1v.23H6.49Z"/><path class="cls-3" d="M8.51,8.71h0c0,.28.07.66.43.66s.4-.4.4-.66-.06-.66-.41-.66-.42.4-.42.66m1.23,0a.8.8,0,0,1-.82.88.78.78,0,0,1-.81-.88.8.8,0,0,1,.83-.88A.78.78,0,0,1,9.74,8.71Z"/><path class="cls-3" d="M10.11,9.28a1,1,0,0,0,.4.08c.23,0,.37-.09.37-.24s-.07-.22-.32-.33-.5-.29-.5-.49.3-.47.68-.47a1.18,1.18,0,0,1,.45.09l-.11.2a.81.81,0,0,0-.33-.07c-.21,0-.32.1-.32.21s.06.18.31.3.51.28.51.51-.34.51-.74.51a1.09,1.09,0,0,1-.49-.1Z"/><path class="cls-3" d="M12.67,7.86l.32,1c0,.14.08.25.11.36h0a3.21,3.21,0,0,1,.1-.35l.3-1h.39L13.49,9a2.61,2.61,0,0,1-.61,1.1,1.22,1.22,0,0,1-.45.25l-.14-.23a1.2,1.2,0,0,0,.35-.21.93.93,0,0,0,.22-.29s0-.05,0-.08a.13.13,0,0,0,0-.06l-.63-1.57Z"/><path class="cls-3" d="M15.42,8.93h0a.32.32,0,0,0,0,.14.37.37,0,0,0,.36.29c.33,0,.43-.31.43-.65s-.12-.65-.43-.65a.39.39,0,0,0-.36.31.3.3,0,0,0,0,.13ZM15,8.39c0-.26,0-.41,0-.53h.35l0,.22h0a.62.62,0,0,1,.53-.25c.43,0,.71.32.71.87s-.38.89-.77.89a.48.48,0,0,1-.42-.2h0v.84H15Z"/><path class="cls-3" d="M17.08,9.56h0V7.86h.39v1.7Zm.42-2.14c0,.11-.09.18-.24.18S17,7.53,17,7.42s.1-.18.23-.18S17.5,7.31,17.5,7.42Z"/><path class="cls-3" d="M19.07,8.53h0c0-.34-.18-.49-.37-.49s-.38.26-.4.49Zm-.78.2c0,.52.31.63.59.63a1.11,1.11,0,0,0,.41-.06l.06.2a1.66,1.66,0,0,1-.54.08.8.8,0,0,1-.9-.85.82.82,0,0,1,.84-.9.68.68,0,0,1,.7.75v.15Z"/><path class="cls-3" d="M19.87,8.3c0-.15,0-.31,0-.44h.35l0,.27h0a.61.61,0,0,1,.53-.3h.08v.28h-.08a.47.47,0,0,0-.48.35.78.78,0,0,0,0,.16v.94h-.39Z"/><path class="cls-3" d="M21.14,8.3c0-.2,0-.3,0-.44h.35l0,.2h0a.71.71,0,0,1,.57-.23.54.54,0,0,1,.6.59V9.56h-.4V8.46c0-.2-.06-.4-.34-.4a.37.37,0,0,0-.38.28.66.66,0,0,0,0,.15V9.56h-.4Z"/><path class="cls-3" d="M24.14,8.68h0c-.21,0-.68,0-.68.39a.28.28,0,0,0,.3.3.36.36,0,0,0,.37-.25.34.34,0,0,0,0-.1Zm.05.88,0-.18h0a.61.61,0,0,1-.49.21.53.53,0,0,1-.59-.49c0-.42.5-.61,1.06-.62V8.43c0-.23-.08-.39-.4-.39a1.07,1.07,0,0,0-.41.09l-.08-.19a1.48,1.48,0,0,1,.58-.11c.49,0,.71.23.71.61v.73a2.42,2.42,0,0,0,0,.39Z"/><path class="cls-3" d="M25,9.28a1,1,0,0,0,.4.08c.23,0,.37-.09.37-.24s-.07-.22-.32-.33S25,8.5,25,8.3s.3-.47.68-.47a1.18,1.18,0,0,1,.45.09l-.11.2a.81.81,0,0,0-.33-.07c-.21,0-.32.1-.32.21s.06.18.31.3.51.28.51.51-.34.51-.74.51a1.17,1.17,0,0,1-.5-.1Z"/></svg>