<svg id="Capa_1" data-name="Capa 1" xmlns="http://www.w3.org/2000/svg" viewBox="0 0 29.62 27.85"><defs><style>.cls-1{fill:#0070a2;}.cls-2{fill:#b3d335;}.cls-3{fill:#f5a4c7;}.cls-4{fill:#fbc9b5;}.cls-5{fill:#231f20;}</style></defs><title>10-1mes</title><path class="cls-1" d="M4.91,27.39s-2.29-2.79.35-4.07,7.89-.79,7.89-.79l11,3.39-.5,1.47Z"/><path class="cls-2" d="M11.76,22.33S12,23.84,15.6,25.4a15.21,15.21,0,0,0,7.12,1.15s3.63-5.24,4-6.67,1.75-4.44.75-5.63-.37-.72-3-1.85-9,1.1-9,1.1-1.76.7-2.23.9-1.05,1.13-1.05,1.13l1.44,6.19Z"/><path class="cls-3" d="M16.38,22.81l1.8.63s-.75,1.17-.44,1.5A3,3,0,0,0,19,25.4a4.16,4.16,0,0,1-1.29.4c-.55,0-2.57-.91-2.57-1.74s1.23-1.25,1.23-1.25"/><path class="cls-4" d="M18.18,23.44s-.58,1-.44,1.5,3,.82,3.19.65.66-.13.66-.13a8.88,8.88,0,0,0,1.09.8.81.81,0,0,1,.43.51c0,.14.39,1,.72,1a12.74,12.74,0,0,0,3-.64c.35-.26.46-.58.4-.73s-.14-.27,0-.32,1.22,0,1.22-.5-.2-.54-.3-.77-.26-.72-.26-.72a3.79,3.79,0,0,1-.61.6c-.22.13-1.72.34-1.77-.05s0-1.11,0-1.33-.51-.47-.51-.47a12.09,12.09,0,0,1-1.43,1.24,2.59,2.59,0,0,1-2,.42,11.82,11.82,0,0,1-3.38-1"/><path class="cls-4" d="M12.72,21.72a6.17,6.17,0,0,0,1.55,1.69c.74.4,1,.35,1,.35l1.32-1-1.45-.53-.7-.42Z"/><path class="cls-4" d="M14.43,21.79a7.94,7.94,0,0,1-2.22-.21A23.94,23.94,0,0,1,9,20,1.81,1.81,0,0,1,8,18.9a14.15,14.15,0,0,1,1.32-2,2.37,2.37,0,0,1,1.81-1.18,5.37,5.37,0,0,1,1.8.17,2.78,2.78,0,0,1,.68.38s.13-.38,1.17-.23,3,1.52,3,1.89c0,0,.12-.7.48-.52s.24.38.63.17.87-.51,1-.33a.39.39,0,0,1,.09.32s.53-.32.49,0,.27.25.27.25a2.36,2.36,0,0,0,0,.54,1,1,0,0,1-.15.52c-.06.08-1.83,1.29-1.83,1.29l-2.33-.41s-2.18.25-2.06,2"/><path class="cls-4" d="M12.58,11.08a5,5,0,0,1-1.13-1.41,2.42,2.42,0,0,1-.09-1.06c0-.11-.53-1.36.11-1.52a19.32,19.32,0,0,1,3.33.18c.26,0,5.88.42,6.14.85a6.16,6.16,0,0,1,.88,1.67,16.75,16.75,0,0,0,1.81,2.5A8.08,8.08,0,0,1,22.38,14,6.57,6.57,0,0,1,18,15.52c-2.32-.11-.3-1.18-.38-1.36A3.09,3.09,0,0,0,17,13.6a10.1,10.1,0,0,1-1.89-.53,5.33,5.33,0,0,1-1.8-1.6Z"/><path class="cls-5" d="M13.3,10.87l.62.53a.72.72,0,0,0,.62-.67,1.77,1.77,0,0,1-1.24.14"/><path class="cls-5" d="M16.24,10.47s1.45,0,1.45-.83a4.35,4.35,0,0,1-1.81.38s.39.21.36.45"/><path class="cls-5" d="M15.65,11.78c0-.43,0-1.36-1.36-1.73s-1.77-.06-1.59.68a.7.7,0,0,1,.76-.5c.66,0,1.77.33,1.91.83s-.59,1.48,1,1.1c0,0-.8,0-.76-.38"/><path class="cls-5" d="M18,12.09a8.8,8.8,0,0,1-1.18.47c1,.55,1.18-.47,1.18-.47"/><path class="cls-5" d="M18.54,12.72a6.07,6.07,0,0,0-1.16.22,1.55,1.55,0,0,0,1.16-.22"/><path class="cls-5" d="M16.77,20.22a2.12,2.12,0,0,0-.53.25,1.77,1.77,0,0,0-.44.42,1.25,1.25,0,0,0-.19.49,1.2,1.2,0,0,0,0,.43,1.07,1.07,0,0,0,.13.3l.07.1.05-.11c0-.07.06-.17.11-.28a.87.87,0,0,0,.07-.17l.09-.19a2.56,2.56,0,0,1,.22-.39,2.92,2.92,0,0,1,.61-.65,4.72,4.72,0,0,1,.4-.29,1.78,1.78,0,0,0-.61.09"/><path class="cls-5" d="M28,25.14h0s0,0,0,0h0m.29.48h0l-.05,0s0,0-.07.05a2.1,2.1,0,0,1-.4.18l-.15.06a.32.32,0,0,0-.08-.12,1.2,1.2,0,0,0-.69-.22h-.09l-1.83.26a.67.67,0,0,1-.43-.76,1.49,1.49,0,0,0-.41-1.21,4,4,0,0,0,.39-.29,6.78,6.78,0,0,0,.54-.53,1.33,1.33,0,0,1,.1.34,3.36,3.36,0,0,1,0,.55,1.46,1.46,0,0,0,.09.61.63.63,0,0,0,.32.33,1,1,0,0,0,.53,0,7.73,7.73,0,0,0,.86-.13,1.61,1.61,0,0,0,.81-.36l.06-.08a.15.15,0,0,1,.05.06c.06.12,0,.19-.13.25a.33.33,0,0,0-.1.06c-.09.11-.05.24.1.3l.06,0a.42.42,0,0,1,.14.06l.07,0h0l0,0a.19.19,0,0,0-.06.07c-.06.11,0,.23.18.27l.16.05.05,0h0s0,0,0,0S28.29,25.61,28.29,25.62Zm-1.61,1.23h0a4.3,4.3,0,0,1-1.52.47,2.27,2.27,0,0,0-.85.16,1.67,1.67,0,0,1-.71.15s-.17-.09-.16-.55c0-.85-.39-1-.9-1.11a.68.68,0,0,1-.66-.63c0-.08-.09-.14-.19-.17a.42.42,0,0,0-.31,0,3.23,3.23,0,0,1-2.28,0,.35.35,0,0,0-.11,0h-.07l-.16,0-.16,0a1,1,0,0,1-.27-.12.52.52,0,0,1-.11-.07l-.09-.09a.39.39,0,0,1-.06-.11s0-.08-.05-.12a1.09,1.09,0,0,1,0-.26c0-.1,0-.19,0-.29s.05-.19.08-.29,0-.15.07-.23c.59.23,1.19.46,1.8.66l.75.25a4.69,4.69,0,0,0,.8.19l.44,0,.45,0,.42-.09.39-.14a3.91,3.91,0,0,0,.41-.2,1.22,1.22,0,0,1,.25.9,1.12,1.12,0,0,0,1,1.2H25L26.84,26c.08,0,.17,0,.18,0s0,.07-.12.08-.3.09-.31.2.12.21.28.22a.26.26,0,0,1,.16.06C27,26.74,26.73,26.83,26.68,26.85Zm-8.57-1.24h0a1.46,1.46,0,0,1-.37,0,2.09,2.09,0,0,1-.42-.05,3.25,3.25,0,0,1-.42-.11,3.42,3.42,0,0,1-.4-.17,3.35,3.35,0,0,1-.36-.21,2.31,2.31,0,0,1-.29-.24,1.94,1.94,0,0,1-.23-.27,1.17,1.17,0,0,1-.13-.28.84.84,0,0,1,0-.27.59.59,0,0,1,0-.26,1.22,1.22,0,0,1,.16-.26,2.72,2.72,0,0,1,.24-.24,4.74,4.74,0,0,1,.59-.43l.59.25,1,.4-.2.2a1.94,1.94,0,0,0-.21.29,2.8,2.8,0,0,0-.15.3,1.06,1.06,0,0,0-.05.35.83.83,0,0,0,.41.68,1.43,1.43,0,0,0,.45.21Zm-3.47-2.24h0l-.37-.25-.4-.23a2.91,2.91,0,0,1-.39-.25,2,2,0,0,1-.27-.32h0a3.38,3.38,0,0,0,.48.16,2.75,2.75,0,0,0,.81.06,1.59,1.59,0,0,0,.39-.07,1.51,1.51,0,0,0,.34-.14l0,0,.46.21.72.3a3.35,3.35,0,0,0-.77.27,3.09,3.09,0,0,0-.37.26,1.23,1.23,0,0,0-.23.28h0ZM11.22,21h0c-.15-.08-.27-.18-.41-.27l-.4-.29-.8-.59c-.11-.08-.22-.16-.31-.24a.29.29,0,0,1,0-.09h.13l.22,0a3,3,0,0,1,.48.15,7.7,7.7,0,0,1,.91.45l.36-.26a4.83,4.83,0,0,1-1-.88,1,1,0,0,1-.14-.24.41.41,0,0,1,0-.21v-.06l.24.27a4.71,4.71,0,0,0,.59.68h0l.52-.23-.4-.44a3.64,3.64,0,0,1-.3-.42,1,1,0,0,1-.18-.41c0-.05,0-.09,0-.08s.1,0,.1,0,.08,0,.16.05a1.51,1.51,0,0,1,.26.12,4.13,4.13,0,0,1,.49.32,8.36,8.36,0,0,1,.88.77l.54-.24a6.56,6.56,0,0,1-.74-1,1.45,1.45,0,0,1-.21-.49.19.19,0,0,1,0-.11,15.06,15.06,0,0,0,1.18,1.06c.13.1.25.19.39.28a1.1,1.1,0,0,0,.21.14,1.08,1.08,0,0,0,.24.13l.12.06.17.06a1,1,0,0,0,.49,0,.46.46,0,0,0,.27-.27.49.49,0,0,0,0-.24v0a1.73,1.73,0,0,1,.32-.86.63.63,0,0,1,.15-.11H16s0,0,0,.06a.62.62,0,0,1,0,.21,2.23,2.23,0,0,0,.07.5c0,.17.13.33.16.47a1.41,1.41,0,0,1,.05.46,1.28,1.28,0,0,1-.09.44l0,.05h0a4.14,4.14,0,0,0-.47.07,3.58,3.58,0,0,0-.63.21,1.37,1.37,0,0,0-.32.16,1.3,1.3,0,0,0-.29.22,1.09,1.09,0,0,0-.23.25,1.17,1.17,0,0,0-.13.28.73.73,0,0,0,0,.51,1.11,1.11,0,0,0,.16.24,4.59,4.59,0,0,1-1.11,0l-.17,0-.18-.1-.11-.06a.37.37,0,0,0-.31,0l0,0-.28-.08A5.78,5.78,0,0,1,11.22,21ZM9.4,20.12h0L9,20l.22.05h0l0,0,.11.07Zm10.23-2.67h0v0h0ZM18.21,18h0a.22.22,0,0,0,.12.14.43.43,0,0,0,.45,0h0a4.26,4.26,0,0,1,.49-.34,1.74,1.74,0,0,1,.26-.15l.12,0h0a.27.27,0,0,1,0,.14,2.21,2.21,0,0,1-.31.41h0l0,0a.11.11,0,0,0,0,.17.24.24,0,0,0,.27,0h0a1.72,1.72,0,0,0,.47-.46.5.5,0,0,0,.09-.25l.08-.06h0a.51.51,0,0,1,0,.1v.1h0a1,1,0,0,0-.24.21,3,3,0,0,0-.32.41h0a.07.07,0,0,0,0,.1.17.17,0,0,0,.17,0,2,2,0,0,0,.33-.31l.08-.06a1,1,0,0,1,.13-.09h0v.1a.47.47,0,0,1,0,.16.44.44,0,0,1-.08.11l-.07,0-.05,0,.07.38h.07a.45.45,0,0,1-.05.1,3.12,3.12,0,0,1-.4.44,9.54,9.54,0,0,1-1,.81l-2.4-.4a1.86,1.86,0,0,0,.1-.39v0l.62-.2.43-.19a1.6,1.6,0,0,0,.42-.26h0c.06-.07,0-.16-.08-.2l-.06,0-.11-.05a.22.22,0,0,1-.09-.07.12.12,0,0,1,0-.13.87.87,0,0,1,.35-.34l0,0A1.07,1.07,0,0,0,18.21,18Zm-2.94-.43h0a1.59,1.59,0,0,0-.26-.24,1.14,1.14,0,0,0-.33-.18c-.14-.06-.3-.1-.38-.14s-.17-.32-.36-.61l-.07-.09a1.24,1.24,0,0,1,.37-.06,1.83,1.83,0,0,1,.32,0l.37.09a5.86,5.86,0,0,1,.86.26,7,7,0,0,1,1.44.77,2.43,2.43,0,0,1,.35.29.93.93,0,0,0-.14.14.61.61,0,0,0-.17.34.43.43,0,0,0,.17.39l.18.11-.11.08-.36.22-.45.25a1.51,1.51,0,0,0,0-.37c0-.18-.11-.33-.14-.48a2.32,2.32,0,0,1,0-.46.89.89,0,0,0,0-.27.37.37,0,0,0-.1-.18.66.66,0,0,0-.27-.12l-.24,0a1,1,0,0,0-.27.05A.78.78,0,0,0,15.27,17.53Zm-.45,1h0a.31.31,0,0,1,0,.13,0,0,0,0,1,0,0h0l-.07,0-.11-.05-.18-.1-.18-.13a2.88,2.88,0,0,1-.34-.27c-.45-.37-.86-.78-1.26-1.18l0,0,.11-.05-1.24-.06,1.51-.21-1.26-.2s1-.08.87-.08S11,16,11,16l1-.16a5,5,0,0,1,.68.21,1.67,1.67,0,0,1,.23.11l.23.14a1.59,1.59,0,0,1,.34.28,2.37,2.37,0,0,1,.22.33.77.77,0,0,0,.41.35c.2.06.35.06.45.09l.31.12a1.72,1.72,0,0,1,.35.2A1.5,1.5,0,0,0,15,18a2.34,2.34,0,0,0-.14.5h0Zm-.48,3.31h0c.27.15.56.28.84.41a2,2,0,0,1-.35,0,3.16,3.16,0,0,1-.32,0,3.39,3.39,0,0,1-.59-.16l-.44-.2A5,5,0,0,0,14.34,21.88Zm-1.59-6.73h0c.17-.12.37-.26.6-.4s.47-.28.73-.41a10.2,10.2,0,0,1,1.55-.6l.31-.1.25-.07.1,0,.39.1.39.08h0a.86.86,0,0,1,.2.19.27.27,0,0,1,0,.3.64.64,0,0,1-.14.16l-.12.11-.12.15a.94.94,0,0,0-.14.34.45.45,0,0,0,.13.42,1,1,0,0,0,.55.24,2.84,2.84,0,0,0,.58,0c.37,0,.72-.1,1.09-.14l1.1-.16.55-.14c.19-.06.35-.13.52-.2a4.74,4.74,0,0,0,.86-.5,3.72,3.72,0,0,0,1.06-1.15,2.88,2.88,0,0,0,.24-.51,2.08,2.08,0,0,0,.12-.39l.06,0a1.42,1.42,0,0,0,.31.11c-.11,0-.23,0-.35,0v0a6.77,6.77,0,0,1,2.08.36,4.74,4.74,0,0,1,.88.41,3.64,3.64,0,0,1,.65.57l.12.14.1.18a1.08,1.08,0,0,1,.13.35,1,1,0,0,1,.06.35,2.4,2.4,0,0,1,0,.37,8.27,8.27,0,0,1-.16,1.48,12.74,12.74,0,0,1-.39,1.47c-.09.24-.16.49-.26.73s-.19.48-.3.72a10.34,10.34,0,0,1-1.63,2.73l0,0h0a5.31,5.31,0,0,1-.79.95c-.16.14-.33.28-.51.41a3.47,3.47,0,0,1-.6.34,3.24,3.24,0,0,1-.33.13c-.12,0-.24.06-.36.09l-.38,0h-.38a7.2,7.2,0,0,1-.75-.16L20.07,24c-1-.32-1.95-.68-2.9-1.05-.47-.19-.93-.39-1.39-.6s-.86-.39-1.26-.61a1.83,1.83,0,0,1,0-.32c0-.06,0-.12.05-.19a.87.87,0,0,1,.1-.19A1.38,1.38,0,0,1,15,20.7a1,1,0,0,1,.22-.17l.23-.17a1.94,1.94,0,0,0,.24-.15,2.36,2.36,0,0,0,.23-.13c.14-.09.27-.15.35-.21h.1c1.37.19,2.74.36,4.11.54a7.9,7.9,0,0,0-.34.89c-.1.29-.16.55-.21.72a2.67,2.67,0,0,0-.05.28l.17-.25c.1-.17.25-.4.43-.68.34-.56.77-1.31,1.2-2.06s.88-1.48,1.25-2c.19-.27.35-.49.49-.65l.21-.24-.31.19a5.73,5.73,0,0,0-.69.58,3.89,3.89,0,0,0-.34.36c0-.18.05-.37.09-.58s.08-.47.1-.67a3,3,0,0,0,0-.33,1.18,1.18,0,0,0-.34.25,1.47,1.47,0,0,0-.23.31,1.66,1.66,0,0,0-.15.39,1.07,1.07,0,0,0,0,.4.85.85,0,0,0,.15.35.89.89,0,0,0,.13.14,10.51,10.51,0,0,0-.95,1.38,11.21,11.21,0,0,0-.61,1.19l-1.38-.24a3.57,3.57,0,0,0,.56-.26,6.17,6.17,0,0,0,.6-.39,2.59,2.59,0,0,0,.54-.46.59.59,0,0,0,.1-.17.28.28,0,0,0,0-.25l-.07-.06A.6.6,0,0,0,21,18.3.71.71,0,0,0,21,18a1,1,0,0,1,0-.12,1.15,1.15,0,0,0-.08-.15.43.43,0,0,0-.32-.15h-.07v-.06a.46.46,0,0,0-.06-.16.32.32,0,0,0-.31,0v0l0,0h0l0,0a.53.53,0,0,0-.41-.12.94.94,0,0,0-.28.05l-.2.07-.28.14a.53.53,0,0,0-.1-.15.41.41,0,0,0-.23-.09.54.54,0,0,0-.18,0,.7.7,0,0,0-.19.06l-.21.11-.16.1-.14.11-.05.05a2,2,0,0,0-.26-.31,5.09,5.09,0,0,0-1.34-1,4.37,4.37,0,0,0-.9-.4,3.08,3.08,0,0,0-.53-.08,1.6,1.6,0,0,0-.5.06,1.18,1.18,0,0,0-.37.15l-.06.06L13.56,16c-.08-.07-.15-.11-.23-.17a3.07,3.07,0,0,0-.31-.16,3.66,3.66,0,0,0-.61-.22Zm7.76-5h0s0,0-.05,0-.07,0,0,0Zm.15,0h0l0,0S20.67,10.17,20.66,10.17Zm-6,2.34h0a3.29,3.29,0,0,1-.72-.62c-.09-.12-.18-.26-.29-.38a1.77,1.77,0,0,0-.41-.36,8.49,8.49,0,0,1-.7-.51,4.11,4.11,0,0,1-.51-.46,1.15,1.15,0,0,1-.23-.41.45.45,0,0,1,0-.28v0a1.53,1.53,0,0,0,0-1.66,20.57,20.57,0,0,0,5.89,1s.17.07.39.19H15.4c-.83,0-.52.73-.52.73a3.27,3.27,0,0,1,1.91-.64L18.1,9c.39.22.93.6,1,1L19,9.37l.48,1.1s.18-2.67.87-1.9.93,1.3.64,1.75c0,0,0,0,0,0a.35.35,0,0,0-.12-.32l-.12-.08h-.06a.72.72,0,0,0-.06.1l0,0a.46.46,0,0,0-.09-.19c-.06-.1-.22-.16-.24-.19s0-.1,0-.16a.75.75,0,0,0,.1-.17.34.34,0,0,0,0-.14.72.72,0,0,0-.05-.2.11.11,0,0,1,0-.08V8.85a.32.32,0,0,0-.21,0,.55.55,0,0,0-.28.26.28.28,0,0,0,0,.18.5.5,0,0,0,.11.2c.06.07.1.14.17.21s.1.12.06.16a.83.83,0,0,0-.11.17.42.42,0,0,0,0,.29.36.36,0,0,0,.19.17.59.59,0,0,0,.38.05.61.61,0,0,0,.21-.08c-.48.44-.51.25-.51.25s0,.31,1,.93c.86.51,1.2,1,1.92.89-.13.18-.31.4-.52.65l-.46.5-.58.52a5.53,5.53,0,0,1-.71.49,7.65,7.65,0,0,1-.86.42l-.5.15a4.76,4.76,0,0,1-.52.1,4.08,4.08,0,0,1-1,0,1.09,1.09,0,0,1-.68-.23c-.08-.09-.05-.27,0-.42l.06-.11.09-.11a.6.6,0,0,0,.14-.29.46.46,0,0,0-.23-.46l-.08,0a3.07,3.07,0,0,0,.61,0,2.27,2.27,0,0,0,.3-.06,2.54,2.54,0,0,0,.31-.12,3.27,3.27,0,0,0,.49-.27,3.26,3.26,0,0,0,1.18-1.69,2.16,2.16,0,0,0,.06-.42H20.3l-.25.38a9.23,9.23,0,0,1-.75.93,4,4,0,0,1-.59.56l-.36.27a2.2,2.2,0,0,0-.19.12,1.34,1.34,0,0,1-.26.09,2.43,2.43,0,0,1-1.16,0,5.2,5.2,0,0,1-1.12-.43C15.28,12.9,15,12.7,14.66,12.51ZM11.55,9.78h0a.93.93,0,0,0,.11.51l.07.12A.72.72,0,0,1,11.55,9.78ZM27.82,24.33h0l0,0S27.85,24.32,27.82,24.33Zm1,1.18a.58.58,0,0,0-.2-.21h0a.3.3,0,0,0-.06-.35,1.1,1.1,0,0,0-.18-.14l.06-.12a.46.46,0,0,0-.09-.42.69.69,0,0,0-.2-.17.64.64,0,0,0-.39-.09.49.49,0,0,0-.24.08.36.36,0,0,0-.11.12v.07h0s0,0,0,0a.82.82,0,0,1-.52.35,2.66,2.66,0,0,1-.8.09c-.15,0-.27,0-.3-.06a.33.33,0,0,1-.05-.19c0-.17,0-.37,0-.56a1.29,1.29,0,0,0-.16-.61.83.83,0,0,0-.22-.28,1,1,0,0,0-.16-.12l.26-.33,0,0a5.76,5.76,0,0,0,.56-.68c.17-.23.31-.47.46-.7a13,13,0,0,0,.72-1.45c.11-.24.19-.49.28-.73s.17-.5.25-.74A11.42,11.42,0,0,0,28,16.84a6.31,6.31,0,0,0,.1-.76,5,5,0,0,0,0-.77,2.58,2.58,0,0,0,0-.38,1.86,1.86,0,0,0-.1-.39,1.18,1.18,0,0,0-.16-.38L27.68,14c-.06-.08-.11-.12-.16-.18a3.76,3.76,0,0,0-1.64-1h0s.12,0-.44-.44a2,2,0,0,0-.55-.31c0-.07,0-.14-.05-.23a.6.6,0,0,0-.66-.48,8.74,8.74,0,0,0-1.91-4,8.12,8.12,0,0,0-6.39-2.95c-3.08,0-5.2,1.29-5.3,2.6,0,0-.89,0-.84,1.69s.12,3,3.51,3.19l.12.14a3.44,3.44,0,0,0,.93.7,6.52,6.52,0,0,0,1.14.49l.66.2a4,4,0,0,0-.57,0,3.27,3.27,0,0,0-.42.06,3.78,3.78,0,0,0-.46.1,4.19,4.19,0,0,0-.47.14c-.15.07-.32.12-.46.2a3.63,3.63,0,0,0-.77.49,2.87,2.87,0,0,0-.49.52,1.69,1.69,0,0,0-.2.36,3.87,3.87,0,0,0-.68-.12,5.66,5.66,0,0,0-1.64.05,3.71,3.71,0,0,0-1.42.59,4.8,4.8,0,0,0-.95.89,5.24,5.24,0,0,0-.63,1,1.39,1.39,0,0,0-.14.52,1.16,1.16,0,0,0,.06.52,1.93,1.93,0,0,0,.71.82,4,4,0,0,0,.93.45,5.45,5.45,0,0,0,.8.22l.45.06.39.27.42.28c.15.09.29.19.45.27a5.53,5.53,0,0,0,1,.45l.34.09s0,0,0,0l.06.05h0a1,1,0,0,0,.22.2l.06.07.31.31.06.08a22.8,22.8,0,0,0-3.52-.2c-.61,0-1.24.06-1.85.14-.31,0-.61.1-.92.16a8.79,8.79,0,0,0-.88.24L5.5,23l-.4.2-.35.23a3.88,3.88,0,0,0-.31.26L4.19,24,4,24.26l-.1.32a1.86,1.86,0,0,0,0,.33,2.33,2.33,0,0,0,.07.64,3,3,0,0,0,.21.62,5.48,5.48,0,0,0,.29.6l.37.58s.05,0,.09,0h0c1.48,0,3,.09,4.45.11l2.22,0h2.23c1.48,0,3,0,4.45-.05.74,0,1.48,0,2.22-.06s1.48-.06,2.22-.09v-.05c-.74,0-1.48-.07-2.22-.09s-1.48-.05-2.22-.06c-1.49,0-3-.06-4.45-.05H11.58l-2.22,0c-1.46,0-2.92.07-4.38.1l-.35-.51a5.46,5.46,0,0,1-.3-.59,2.29,2.29,0,0,1-.18-.6,1.09,1.09,0,0,1,0-.31,1.51,1.51,0,0,1,0-.3c0-.1,0-.2.07-.3l.13-.28.2-.26.24-.24.3-.21.33-.18.36-.16.39-.14a15.17,15.17,0,0,1,3.44-.56c1.17-.08,2.36-.09,3.55-.06l.17.18.25.35a1.34,1.34,0,0,0,.31.32l.2.14a1.55,1.55,0,0,0,.22.12,2.82,2.82,0,0,0,.51.19l.1,0a.46.46,0,0,0,0,.2.85.85,0,0,0,.12.37,1.7,1.7,0,0,0,.29.31,2.41,2.41,0,0,0,.35.25l.72.44a6,6,0,0,0,.8.41,2.44,2.44,0,0,0,.5.14,1.81,1.81,0,0,0,.57,0,1.61,1.61,0,0,0,.55-.17l.23-.15a4.36,4.36,0,0,0,2.34,0,1.18,1.18,0,0,0,1,.68c.3.06.48.1.46.69s-.5.35-.19.48a5.76,5.76,0,0,0,1,.22,2.79,2.79,0,0,0,.9-.24c.15-.05.47.2.55.21A4.71,4.71,0,0,0,27,27.22c.06,0,.59-.2.65-.57a.35.35,0,0,0-.12-.33.42.42,0,0,0,.11-.18s0,0,0-.05h.24A3.64,3.64,0,0,0,28.4,26a.48.48,0,0,0,.14-.05l.13-.07a.35.35,0,0,0,.13-.14A.25.25,0,0,0,28.81,25.51Z"/><path class="cls-5" d="M4.08,3.49a1.93,1.93,0,0,1-.5.06A1.06,1.06,0,0,1,2.43,2.37,1.14,1.14,0,0,1,3.65,1.14a1.27,1.27,0,0,1,.43.06L4,1.43a.92.92,0,0,0-.35-.05c-.37,0-.8.25-.8,1s.39,1,.81,1A1.11,1.11,0,0,0,4,3.26Z"/><path class="cls-5" d="M4.38,1.1h.4V2h0A.62.62,0,0,1,5,1.86a1,1,0,0,1,.33-.06.54.54,0,0,1,.58.6V3.53H5.51V2.43c0-.2-.07-.4-.33-.4a.38.38,0,0,0-.39.27.57.57,0,0,0,0,.13v1.1h-.4Z"/><path class="cls-5" d="M7.89,3.06c0,.19,0,.34,0,.47H7.56l0-.18h0A.77.77,0,0,1,7,3.56c-.44,0-.61-.24-.61-.66V1.83h.4v1c0,.27.06.47.33.47A.35.35,0,0,0,7.49,3V1.83h.4Z"/><path class="cls-5" d="M8.78,2.9h0a.53.53,0,0,0,0,.14.37.37,0,0,0,.37.29c.33,0,.43-.31.43-.65S9.46,2,9.15,2a.39.39,0,0,0-.36.31.57.57,0,0,0,0,.13Zm-.4-.54c0-.26,0-.41,0-.53h.36l0,.22h0a.59.59,0,0,1,.52-.25c.43,0,.72.32.72.88a.77.77,0,0,1-.77.88.52.52,0,0,1-.43-.2h0V4.2h-.4Z"/><path class="cls-5" d="M11.3,2.65h0c-.2,0-.68,0-.68.39a.29.29,0,0,0,.3.31.36.36,0,0,0,.37-.26.34.34,0,0,0,0-.1Zm.06.88,0-.18h0a.63.63,0,0,1-.5.21.52.52,0,0,1-.58-.49c0-.42.49-.61,1-.62V2.4c0-.23-.08-.38-.39-.38a1,1,0,0,0-.41.08l-.09-.19A1.48,1.48,0,0,1,11,1.8c.5,0,.71.23.71.61v.73a1.63,1.63,0,0,0,0,.39Z"/></svg>