<svg id="Capa_1" data-name="Capa 1" xmlns="http://www.w3.org/2000/svg" viewBox="0 0 30.83 22.89"><defs><style>.cls-1{fill:#f5a4c7;}.cls-2{fill:#fbc3b2;}.cls-3{fill:#231f20;}</style></defs><title>11-1mes</title><path class="cls-1" d="M5.46,16.21s.45,3.48,1.68,4.23a4.79,4.79,0,0,0,4.44.16c1.43-.71,1.19-.65,1.59-1.51s.75-3.86.14-4.52a4.74,4.74,0,0,0-1.63-1s-1.95-.46-2,.28c0,0-4.31.21-4.18,2.36"/><path class="cls-2" d="M12.73,19.74a12.16,12.16,0,0,0,.61-3.34,5.72,5.72,0,0,0-.61-2c-.08,0-.42-.39-.42-.39s-.84-.25-.67-.69.85-.27.85-.27-.45-.33,0-.47a1.21,1.21,0,0,1,.74,0s-.18-.5,0-.5a3.36,3.36,0,0,1,.82.34s.2-.33.29-.26.5.42.5.43a1.58,1.58,0,0,0,.26.13,1.39,1.39,0,0,1,.65.51,5.91,5.91,0,0,1,.39.67s-.28.28.51.31a3.38,3.38,0,0,1,1.69.43c.27.2.7.58.7.58l.24-.19s-1.2-1.22-.57-2.14,1.25-1,1.6-.92a3,3,0,0,0,1.92-.66,3.31,3.31,0,0,1,1.89-.53A19.37,19.37,0,0,1,27.6,12.4c.67.58.31,2.9-.57,3.81a6.21,6.21,0,0,1-2.52,1.6c-.38,0-3.24-.72-3.81-.45s-.63,1.16-1.17,1.64a2.5,2.5,0,0,1-1.22.51c-.75.1-3.82.06-4.56.23a4.14,4.14,0,0,1-1,.14Z"/><path class="cls-2" d="M11.19,15,9.62,13.77A2.77,2.77,0,0,0,8,12.71a5.07,5.07,0,0,0-3.35.42,1.52,1.52,0,0,0-.62,1s-.21-.76-.57-.63-.09.09-.41.08-.44-.06-.42.2-.36,0-.6.08-.13.27-.13.27-.35-.05-.43.19,0,.29-.24.23,0,.51.14.87a11.14,11.14,0,0,0,.77,1.77,1.06,1.06,0,0,0,.44.37.57.57,0,0,1-.33.35c-.26.1-.72-.1-1,.32s.66.54.77.54a.27.27,0,0,1,.21.09s.13.41.47.44,2.37.06,2.75.09a.84.84,0,0,0,.83-.73c0-.38-.07-1.51.18-1.77A1.25,1.25,0,0,1,7,16.53s-.48,1.88,0,2.29,1.83,1.64,2.94,1.54A2.91,2.91,0,0,0,12.05,18,8.09,8.09,0,0,0,11.19,15"/><path class="cls-3" d="M21.08,17.22h0a1.29,1.29,0,0,0-.61.24,2.05,2.05,0,0,0-.69.91c-.26.33-.35.67-.68.83a3.18,3.18,0,0,1-1.21.22c-.87,0-1.74.09-2.61.15l-2.36.19a7.78,7.78,0,0,0,.62-2.86,4.49,4.49,0,0,0-.22-1.54,3.67,3.67,0,0,0-.71-1.27l.47,0,.17,0,.14,0,.1,0a.08.08,0,0,1,0,.06,1.21,1.21,0,0,1,0,.25,1,1,0,0,0,0,.3.77.77,0,0,0,.32.51l-.08.16a1.29,1.29,0,0,0-.06.25,1,1,0,0,0,.07.5,1,1,0,0,0,.13.23,1.24,1.24,0,0,0,.18.22,2,2,0,0,0,.22.19l.24.17a5.7,5.7,0,0,0,.54.3l.55.28a6,6,0,0,0,1.21.44l0,0a6.52,6.52,0,0,1-1.14-.49l-.53-.29-.48-.32-.23-.17c-.06-.06-.13-.11-.19-.18a1.15,1.15,0,0,1-.14-.19,1.06,1.06,0,0,1-.11-.21.89.89,0,0,1,0-.43.86.86,0,0,1,.07-.21,1.08,1.08,0,0,1,.11-.18l.06-.08-.08-.06a.57.57,0,0,1-.28-.42,1.22,1.22,0,0,1,0-.26,2.19,2.19,0,0,0,0-.3.34.34,0,0,0-.1-.2.64.64,0,0,0-.23-.12l-.24,0-.23,0a4.13,4.13,0,0,0-.5,0l.05-.07s0-.06.08-.08l.09-.08.09,0a.15.15,0,0,1,.09,0h.13l.15,0a3.11,3.11,0,0,1,.32,0l.37,0a1.2,1.2,0,0,0-.22-.22,1.71,1.71,0,0,0-.27-.13l0,0s0-.05.05-.08a.14.14,0,0,1,.13-.06.2.2,0,0,1,.13.06l.1.1.1.08.11.07.13,0a1.36,1.36,0,0,0,.35.07l0,0a.42.42,0,0,0-.06-.26.58.58,0,0,0-.24-.18L14.16,13l.07,0s0-.06.08-.09a.18.18,0,0,1,.15,0s.1.05.14.08.06.08.1.1l.1.09.11.08.13.05a1.48,1.48,0,0,0,.36.07l0,0a.43.43,0,0,0-.06-.26.55.55,0,0,0-.24-.2l-.23-.07,0,0a.49.49,0,0,1,.18,0,1.11,1.11,0,0,1,.29.22,1.69,1.69,0,0,1,.27.32,1.61,1.61,0,0,1,.16.38c0,.15,0,.32.07.49a1.93,1.93,0,0,0,.15.52,1.17,1.17,0,0,0,.38.49,4.4,4.4,0,0,0,.62.3l.56.24c.16.08.31.15.44.23a5.78,5.78,0,0,1,.59.43l.22.19h.05a.86.86,0,0,0-.08-.25,1.4,1.4,0,0,0-.48-.57,1.68,1.68,0,0,0-.52-.28,4.38,4.38,0,0,0-.67-.16,1.46,1.46,0,0,1-.62-.2.53.53,0,0,1-.21-.44c0-.16,0-.33,0-.5a6.12,6.12,0,0,0,.64.17c.25.05.5.08.76.12a2.44,2.44,0,0,1,.39.07.53.53,0,0,1,.3.18c.07.08.11.17.17.25a2.23,2.23,0,0,0,.22.21l.18.13.11-.08a1,1,0,0,0,.21-.19,6.08,6.08,0,0,0,1.15.64l0,0a4.82,4.82,0,0,1-1.1-.7l0,0h0a2,2,0,0,1-.49-.62A1.35,1.35,0,0,1,19,12.68a1.81,1.81,0,0,1,.81-.58,1.36,1.36,0,0,1,.53,0,2.1,2.1,0,0,0,.75,0,2,2,0,0,0,.63-.26l.48-.3.06,0a.9.9,0,0,1,.63.3c.22.22.05.39-.26.51,0,0-.34-.51-.65-.52s-.24.2-.24.2L22,12a.12.12,0,0,0,0,.22c.16.12.38-.08.38-.08l.27.21a3.55,3.55,0,0,1-1.51.19c-.36-.1-.38.37-.38.37,0-.23.61-.28,1-.23a2.22,2.22,0,0,0,1.34-.36c.21-.21.24-.32-.23-.78a.58.58,0,0,0-.31-.16l.06,0L24.08,11l-.84.56.84-.09-.67.36h1.9l-1.2.26,1.6-.09-1.12.22,2.18.46L25.55,13l1.22.09-1,.38h1.76s-1.73.15-1.6,1c0,0,.06-.14.83-.41,0,0-.7.46-.74,1a1.08,1.08,0,0,1-1.24.89,6.26,6.26,0,0,1-.8-.15l1,.41-1.23-.11a2.81,2.81,0,0,0,.83.42.65.65,0,0,1,.39.22h0a.81.81,0,0,1,.13.29.17.17,0,0,1-.09.18l-.12.06-.15,0c-.12,0-.25,0-.38,0a1.2,1.2,0,0,1-.19,0H24a.76.76,0,0,1-.16,0l-.13-.06a.49.49,0,0,1-.19-.5h0l0,0-.11,0c-.19-.07-.37-.11-.54-.17l-.52-.18c-.34-.12-.68-.26-1.07-.38l0,0a2,2,0,0,0,.89.64,2.75,2.75,0,0,0,1.16.18c-.05.08-.34-.21-.34-.12a2,2,0,0,0,.4.75l0,0c-.4,0-1-.43-1.16-.41l-.54.12a2.74,2.74,0,0,0-.64,0m-8.64,2.91h0c-.08.07-.21.14-.34.23a1.79,1.79,0,0,1-.24.12,1.81,1.81,0,0,1-.28.12,3.69,3.69,0,0,1-.66.19l-.39.07-.4,0H9.7l-.43,0-.44-.05c-.14,0-.28,0-.42-.09a4.2,4.2,0,0,1-.78-.26,1.58,1.58,0,0,1-.32-.17A2,2,0,0,1,7,20.09a2.26,2.26,0,0,1-.36-.47,1.25,1.25,0,0,1-.14-.48,1.45,1.45,0,0,1,.13-.74l.07-.12a2.6,2.6,0,0,0,.8,1.24,4.28,4.28,0,0,0,.87.59,5.4,5.4,0,0,0,1.07.4,2.06,2.06,0,0,0,1.33-.13,2.21,2.21,0,0,0,.82-.65A2.63,2.63,0,0,0,12,19a3.93,3.93,0,0,0,.18-.81,5.46,5.46,0,0,0,0-.81,3.7,3.7,0,0,0-.18-.8,4.75,4.75,0,0,0-.34-.77,4.3,4.3,0,0,0-.5-.73,6.59,6.59,0,0,0-.63-.67,5.78,5.78,0,0,0-.7-.57.31.31,0,0,1,.09-.11l.09-.06.1,0a1.4,1.4,0,0,1,.51-.08,3.62,3.62,0,0,1,1,.13,1.62,1.62,0,0,0,.1.18h.05a1,1,0,0,1,.05-.4.33.33,0,0,1,.24-.23l.12,0h.11l.26,0,.17,0a.49.49,0,0,0-.17.06.47.47,0,0,0-.18.16.44.44,0,0,0-.08.29.34.34,0,0,0,0,.12l-.17,0-.28,0,.16.18a3.5,3.5,0,0,1,.78,1.35,5.28,5.28,0,0,1,.2,1.48A7.59,7.59,0,0,1,13,18.39a8.66,8.66,0,0,1-.4,1.47l-.06.17h.07A.53.53,0,0,0,12.44,20.13ZM3.13,18.49h0s0,0,0,0Zm2.62.63h0a1,1,0,0,1-.7.08A4.18,4.18,0,0,0,3.43,19a2.25,2.25,0,0,1-.79,0c-.05,0-.06-.11-.06-.18l.08-.05a.46.46,0,0,0,.07-.07.68.68,0,0,0,.21.11.56.56,0,0,0,.21,0l.14,0a.45.45,0,0,0,.14-.07l0,0a.21.21,0,0,0,0-.06,1.15,1.15,0,0,0,.28.06,1.13,1.13,0,0,0,.26,0l.13,0,.08,0a.68.68,0,0,0,.17-.09.53.53,0,0,0,.14-.11.69.69,0,0,0,.17-.26.3.3,0,0,0-.09-.3.59.59,0,0,0-.36-.11v0c.11,0,.19.08.21.14a.16.16,0,0,1,0,.17.5.5,0,0,1-.17.15.6.6,0,0,1-.11.06l-.11,0-.08,0H4a.14.14,0,0,1-.09,0,.71.71,0,0,1-.19-.08,1.25,1.25,0,0,1-.19-.15L3.31,18h0v0a.35.35,0,0,0-.36-.06c-.14.05-.18.16-.11.25v0h0a1.37,1.37,0,0,1,.19.23l0,.08-.06,0a2.83,2.83,0,0,1-.28-.2l0,0a.21.21,0,0,0-.22,0c-.07,0-.08.11,0,.15h0l0,.05,0,0a.19.19,0,0,1,0,.1.16.16,0,0,1,0,.09s0,0,0,0l-.06,0a.22.22,0,0,1-.22-.08.49.49,0,0,0,0-.11L2,18.38H2a.11.11,0,0,0-.11,0c-.05,0-.08.05-.06.08h0a.33.33,0,0,1,0,.13.11.11,0,0,1,0,.08h0l-.15-.06c-.09,0-.15-.09-.16-.13a.22.22,0,0,1,0-.17.92.92,0,0,1,.2-.19L2,18l.13-.06h.09l.11,0a.51.51,0,0,0,.26-.1.24.24,0,0,0,.07-.23l.11.05.22,0a.69.69,0,0,0,.21,0,.65.65,0,0,0,.37-.18c.08-.08.12-.17.18-.22a.85.85,0,0,1,.61-.07c.24,0,.51.08.79.08a3.51,3.51,0,0,0,.8-.12l.15,0a.93.93,0,0,0-.16.68l0,.1C6,18.29,6.11,18.9,5.75,19.12Zm-3.61-.36Zm-.22-.11ZM6.64,18h0l.06.23-.14.15,0,.07a3.78,3.78,0,0,0-.08-.6v-.1a.76.76,0,0,1,.26-.66A2.79,2.79,0,0,0,6.64,18Zm5.78-5.28h0l.11-.07.16-.06.16,0a.83.83,0,0,1,.31,0h0a3.17,3.17,0,0,0,.46.36l.15-.07a.31.31,0,0,0,0,.09h-.48L13,12.92a1.64,1.64,0,0,0-.32-.05h-.08a.46.46,0,0,1-.21-.09S12.39,12.74,12.42,12.71Zm1-.41Zm.17.13h0a.56.56,0,0,1,.2.11l.17.14,0,0a.53.53,0,0,0-.15.08l0,0a4.39,4.39,0,0,1-.3-.36.41.41,0,0,1,0-.09h0Zm.68-.08Zm.24.09h0l.12.1a.61.61,0,0,1,.07.1.29.29,0,0,0-.1.08h0a2,2,0,0,1-.16-.28v0Zm.07.3h-.05l.06,0ZM1.5,14.56Zm.73-.62Zm27.47-1a3.92,3.92,0,0,0-1.64-1.49,8.69,8.69,0,0,0-2.39-.85,5.54,5.54,0,0,0-1.37-.14,3.79,3.79,0,0,0-1,.17h0a2.2,2.2,0,0,0-.36.13,7.84,7.84,0,0,0-1,.58,3.26,3.26,0,0,1-.94.52,1.4,1.4,0,0,1-.54,0,1.75,1.75,0,0,0-.75,0,1.55,1.55,0,0,0-.57.32,3.41,3.41,0,0,0-.38.38,1.5,1.5,0,0,0,0,1.82,2.29,2.29,0,0,0,.51.58h-.09A.35.35,0,0,0,19,14.8a1.34,1.34,0,0,0-.38-.18l-.18-.08-.16-.1a2.66,2.66,0,0,0-.33-.21.77.77,0,0,0-.19-.08l-.21-.07A1.93,1.93,0,0,0,17.1,14a2.07,2.07,0,0,0-.74.07,2.67,2.67,0,0,0,0-.4.9.9,0,0,0-.2-.51,1.74,1.74,0,0,0-.4-.37,1.55,1.55,0,0,0-.51-.22h-.08a.76.76,0,0,1,.18-.09c.07,0,.12,0,.17,0a.31.31,0,0,1,.11.16h0a.29.29,0,0,0-.06-.21.22.22,0,0,0-.15-.08h-.18a1.28,1.28,0,0,0-.33.11v0a.7.7,0,0,0-.13-.17.91.91,0,0,0-.23-.15l-.13,0h0l-.06,0h-.12a.41.41,0,0,0-.31.13l-.12,0a1.05,1.05,0,0,0-.21-.06l-.2,0a.57.57,0,0,0-.33.06.2.2,0,0,0-.1.26.31.31,0,0,0,0,.1h-.21l-.2,0a.78.78,0,0,0-.18,0,.84.84,0,0,0-.19.09.19.19,0,0,0-.11.17.26.26,0,0,0,0,.09h0l-.17,0a.58.58,0,0,0-.28.21.43.43,0,0,0-.06.24.58.58,0,0,0,0,.19,4.36,4.36,0,0,0-1-.18,2,2,0,0,0-.59.07.84.84,0,0,0-.14.06l-.12.07a.77.77,0,0,0-.18.18,0,0,0,0,0,0,.07h0a6,6,0,0,1,1.24,1.29,4.8,4.8,0,0,1,.43.71,4.2,4.2,0,0,1,.29.74,4,4,0,0,1,.13.76,3.82,3.82,0,0,1,0,.76,3.16,3.16,0,0,1-.18.75,2.23,2.23,0,0,1-.38.69,1.88,1.88,0,0,1-.65.53,1.34,1.34,0,0,1-.86.08,4.39,4.39,0,0,1-.94-.34,4,4,0,0,1-.78-.51A2.29,2.29,0,0,1,7.1,18a2.81,2.81,0,0,1,.16-1.51.13.13,0,0,0-.07-.14.26.26,0,0,0-.27,0A3.17,3.17,0,0,1,5.8,17a2.63,2.63,0,0,1-.69.13A4.91,4.91,0,0,1,4.37,17,2,2,0,0,0,4,17a.65.65,0,0,0-.39.15,1.64,1.64,0,0,0-.19.24.48.48,0,0,1-.23.13.79.79,0,0,1-.6-.17,1.58,1.58,0,0,1-.4-.42,1.71,1.71,0,0,1-.24-.49,2.59,2.59,0,0,0-.16-.52c-.14-.34-.35-.67-.48-1a.77.77,0,0,1-.06-.24.22.22,0,0,1,.07-.19.23.23,0,0,1,.16,0,.38.38,0,0,0,.09.1s0,0,.12,0a.14.14,0,0,0,.11-.06h0l0-.05v0a.16.16,0,0,0,0-.07l0,0v0c0-.06,0-.15,0-.17s.11,0,.18,0h0l0,.06a1.79,1.79,0,0,0,.19.32h0a.17.17,0,0,0,.17.07c.1,0,.18-.06.17-.13a.6.6,0,0,0-.1-.3.28.28,0,0,0-.07-.09.36.36,0,0,1,0-.2h.14a.2.2,0,0,1,.11,0l0,0,0,0L3,14a1.09,1.09,0,0,1,0-.25.27.27,0,0,1,0-.09h0l0,.08a.36.36,0,0,1,0,.1.2.2,0,0,0,.19.14.24.24,0,0,0,.27-.12h0a.54.54,0,0,1,.08-.19l0,0h0s0,0,0,0,0,0,0,.07a.88.88,0,0,1,.07.23A3.74,3.74,0,0,0,4,15a.23.23,0,0,0,.07.07.28.28,0,0,0,.28,0h0a6.76,6.76,0,0,1,1-.76,5.65,5.65,0,0,1,.6-.31,3.05,3.05,0,0,1,.32-.13l.33-.12L7,13.66c.11,0,.24,0,.36-.06a2.21,2.21,0,0,1,.37,0,2.29,2.29,0,0,1,.37,0l.38,0,.37.06c.25,0,.48.13.72.19l0,0-.34-.13a1.5,1.5,0,0,0-.36-.11l-.38-.08-.39-.05h-.4a2.61,2.61,0,0,0-.4,0c-.13,0-.27,0-.4.06l-.38.08-.37.11-.35.13a6.72,6.72,0,0,0-.66.32,6.45,6.45,0,0,0-.84.56c-.06-.23-.06-.5-.1-.76v0c.11-.1.27-.24.48-.4A4.33,4.33,0,0,1,5.46,13,4,4,0,0,1,6,12.88l.27,0,.3,0a6.2,6.2,0,0,1,2.18.43c.57.22.93.4.93.4a3.06,3.06,0,0,0-.77-.56,4.2,4.2,0,0,0-1-.42,6.19,6.19,0,0,0-.65-.15,5.36,5.36,0,0,0-.7,0l-.35,0-.37.07a3.21,3.21,0,0,0-.62.23,2.69,2.69,0,0,0-.8.6,4.52,4.52,0,0,0-.28.37.56.56,0,0,0,0-.12A.69.69,0,0,0,4,13.47l-.08-.06,0,0h0l0,0-.06,0a.65.65,0,0,0-.38,0l-.16.09,0,0a.42.42,0,0,0-.15-.07l-.09,0H2.88a.54.54,0,0,0-.25.06.3.3,0,0,0-.11.12.69.69,0,0,0,0,.1v.11H2.1a.32.32,0,0,0-.19.1.23.23,0,0,0-.08.13.28.28,0,0,0,0,.09H1.68a.42.42,0,0,0-.25.12.3.3,0,0,0-.07.21.48.48,0,0,0-.26.06c-.23.22-.1.42,0,.59.16.34.37.66.52,1a3.05,3.05,0,0,1,.17.51A1.87,1.87,0,0,0,2,17a1.77,1.77,0,0,0,.42.45l.12.08a.21.21,0,0,1-.13.17.27.27,0,0,1-.13,0H2a1.5,1.5,0,0,0-.26.05l-.22.1a1,1,0,0,0-.33.26.38.38,0,0,0-.08.41.52.52,0,0,0,.18.18.84.84,0,0,0,.25.09,1.2,1.2,0,0,0,.26.05.62.62,0,0,0,.18,0l0,0a.46.46,0,0,0,.23.4,2.09,2.09,0,0,0,1.18.12,3.87,3.87,0,0,1,1.37.18l.07,0,.4,0a1.41,1.41,0,0,0,.78-.19.4.4,0,0,0,.12-.1,1.11,1.11,0,0,0,.08.42,1.88,1.88,0,0,0,.36.58c.1.08.16.16.29.25a2.3,2.3,0,0,0,.4.23,4.25,4.25,0,0,0,.89.31l.48.09.49.05.49,0,.47,0,.46-.06L11,21a3.3,3.3,0,0,0,.7-.27,2.61,2.61,0,0,0,.49-.31,3.9,3.9,0,0,0,.29-.29l.11-.15.1,0c1.72-.19,3.44-.4,5.17-.46a3.6,3.6,0,0,0,1.28-.25,1.72,1.72,0,0,0,.82-.82c.24-.31.32-.72.61-.92a1.58,1.58,0,0,1,1.12-.19c.4.06.83.17,1.26.23s1.12.5,1.56.52a7.28,7.28,0,0,0,2.64-.3,4,4,0,0,0,2.76-3A2.62,2.62,0,0,0,29.7,12.91Z"/><path class="cls-3" d="M19.81,14c.11,0,0-.38,0-.38-.32.12-.11.41,0,.38"/><path class="cls-3" d="M21.6,13.2s-.32.22-.38,0-.2-.15-.2-.15c.15.67.58.15.58.15"/><path class="cls-3" d="M25,14.54A1.76,1.76,0,0,0,24.5,13c-.68-.69-1.09-.39-1.09-.39.94.27,1.6,1.89,1.6,1.89"/><path class="cls-3" d="M23.55,13.39s-.35.11-.05.37.47.08.47.08l.09.39s.13.15.18-.12S23.82,13,23.5,13a1.14,1.14,0,0,0-.64.22c.32-.18.69.17.69.17"/><path class="cls-3" d="M20.75,13.65c-.54-.35-.49-.6-.49-.6-.52,1,1,1.08,1,1.08s0-.13-.56-.48"/><path class="cls-3" d="M1.88,3.86H2c.44,0,.86-.21.86-1,0-.59-.27-.92-.82-.92H1.88Zm-.4-2.11a2.86,2.86,0,0,1,.53,0,1.47,1.47,0,0,1,.81.18,1,1,0,0,1,.47,1,1.13,1.13,0,0,1-.42,1,1.49,1.49,0,0,1-1,.26,2.85,2.85,0,0,1-.44,0Z"/><path class="cls-3" d="M4.77,3.06h0c0-.34-.18-.49-.37-.49S4,2.83,4,3.06ZM4,3.26c0,.52.31.63.59.63A1.37,1.37,0,0,0,5,3.83l.07.2a1.77,1.77,0,0,1-.55.08.81.81,0,0,1-.9-.86.81.81,0,0,1,.84-.89.67.67,0,0,1,.7.75v.15Z"/><path class="cls-3" d="M5.52,2.83c0-.2,0-.31,0-.44h.35l0,.21h0a.66.66,0,0,1,.56-.24A.53.53,0,0,1,7,2.62H7a.64.64,0,0,1,.25-.19.74.74,0,0,1,.34-.07.55.55,0,0,1,.6.6V4.08H7.76V3c0-.22,0-.43-.35-.43A.38.38,0,0,0,7,2.84.71.71,0,0,0,7,3V4.08H6.64V3c0-.19,0-.38-.34-.38a.36.36,0,0,0-.37.27.77.77,0,0,0,0,.15V4.08H5.52Z"/><path class="cls-3" d="M10.13,3.62c0,.19,0,.34,0,.46H9.81l0-.17h0a.73.73,0,0,1-.53.2c-.44,0-.61-.23-.61-.65V2.39H9v1c0,.27.06.46.33.46a.33.33,0,0,0,.35-.22.4.4,0,0,0,0-.15V2.39h.39Z"/><path class="cls-3" d="M11.69,3.06h0c0-.34-.18-.49-.37-.49s-.39.26-.41.49Zm-.78.2c0,.52.3.63.59.63a1.43,1.43,0,0,0,.41-.06L12,4a1.75,1.75,0,0,1-.54.08.81.81,0,0,1-.91-.86.81.81,0,0,1,.84-.89.67.67,0,0,1,.7.75v.15Z"/><path class="cls-3" d="M12.37,3.8a1,1,0,0,0,.4.09c.22,0,.36-.09.36-.24s-.06-.22-.31-.34-.5-.28-.5-.48.3-.47.68-.47a1.08,1.08,0,0,1,.45.09l-.11.2A.81.81,0,0,0,13,2.58c-.22,0-.32.1-.32.21s.06.18.3.29.52.29.52.52-.34.51-.75.51a1.15,1.15,0,0,1-.49-.1Z"/><path class="cls-3" d="M14.35,1.94v.45h.47v.2h-.47v1c0,.22.11.28.26.28h.16v.21a1.07,1.07,0,0,1-.29,0A.62.62,0,0,1,14.1,4C14,3.93,14,3.81,14,3.58v-1h-.3v-.2H14V2Z"/><path class="cls-3" d="M15.11,2.83c0-.15,0-.32,0-.44h.36l0,.26h0A.59.59,0,0,1,16,2.36h.08v.28H16a.46.46,0,0,0-.48.35.76.76,0,0,0,0,.15v.94h-.4Z"/><path class="cls-3" d="M17.23,3.21h0c-.21,0-.68,0-.68.39a.28.28,0,0,0,.3.3.37.37,0,0,0,.37-.25.38.38,0,0,0,0-.1Zm.05.87,0-.17h0a.62.62,0,0,1-.49.2c-.33,0-.59-.19-.59-.48S16.66,3,17.22,3V3c0-.23-.09-.39-.4-.39a1.07,1.07,0,0,0-.41.09l-.08-.19a1.46,1.46,0,0,1,.57-.11c.5,0,.72.22.72.61V3.7a2.24,2.24,0,0,0,0,.38Z"/><path class="cls-3" d="M19.92,3.06h0c0-.34-.18-.49-.37-.49s-.38.26-.4.49Zm-.78.2c0,.52.31.63.59.63a1.37,1.37,0,0,0,.41-.06l.06.2a1.66,1.66,0,0,1-.54.08.81.81,0,0,1-.9-.86.81.81,0,0,1,.84-.89.67.67,0,0,1,.7.75v.15Z"/><path class="cls-3" d="M20.61,3.8a1,1,0,0,0,.4.09c.22,0,.36-.09.36-.24s-.07-.22-.32-.34-.49-.28-.49-.48.29-.47.68-.47a1,1,0,0,1,.44.09l-.1.2a.84.84,0,0,0-.33-.07c-.22,0-.32.1-.32.21s.06.18.3.29.51.29.51.52-.33.51-.74.51a1.15,1.15,0,0,1-.49-.1Z"/><path class="cls-3" d="M22.58,1.94v.45h.48v.2h-.48v1c0,.22.12.28.26.28H23l0,.21a1.07,1.07,0,0,1-.29,0A.58.58,0,0,1,22.34,4c-.1-.07-.15-.19-.15-.42v-1h-.3v-.2h.3V2Z"/><path class="cls-3" d="M24.28,3.21h0c-.21,0-.68,0-.68.39a.28.28,0,0,0,.3.3.37.37,0,0,0,.37-.25.38.38,0,0,0,0-.1Zm0,.87,0-.17h0a.6.6,0,0,1-.49.2c-.33,0-.59-.19-.59-.48S23.71,3,24.27,3V3c0-.23-.08-.39-.4-.39a1.07,1.07,0,0,0-.41.09l-.08-.19A1.48,1.48,0,0,1,24,2.36c.49,0,.71.22.71.61V3.7a2.24,2.24,0,0,0,0,.38Z"/><path class="cls-3" d="M25.16,2.83c0-.15,0-.32,0-.44h.36l0,.26h0a.59.59,0,0,1,.52-.29h.08v.28h-.08a.46.46,0,0,0-.48.35.76.76,0,0,0,0,.15v.94h-.4Z"/><path class="cls-3" d="M2.37,6.36h0c-.2,0-.68,0-.68.4a.29.29,0,0,0,.3.3.35.35,0,0,0,.37-.26.28.28,0,0,0,0-.09Zm.06.88,0-.18h0a.62.62,0,0,1-.49.21c-.34,0-.59-.19-.59-.48s.49-.62,1-.62v0c0-.23-.08-.39-.39-.39a.88.88,0,0,0-.41.09l-.09-.19a1.48,1.48,0,0,1,.58-.11c.5,0,.71.22.71.6v.74a1.54,1.54,0,0,0,0,.38Z"/><path class="cls-3" d="M3.7,5.09v.45h.47v.21H3.7v1C3.7,7,3.82,7,4,7h.16v.21l-.29,0a.62.62,0,0,1-.39-.1.51.51,0,0,1-.15-.43v-1H3V5.54h.3V5.17Z"/><path class="cls-3" d="M5.48,6.22h0c0-.34-.18-.49-.37-.49s-.38.26-.4.49Zm-.77.2c0,.52.3.63.58.63A1.08,1.08,0,0,0,5.7,7l.07.2a1.52,1.52,0,0,1-.55.08.8.8,0,0,1-.9-.85.81.81,0,0,1,.84-.89.67.67,0,0,1,.7.75v.15Z"/><path class="cls-3" d="M6.24,6c0-.2,0-.3,0-.44h.35l0,.21h0a.71.71,0,0,1,.57-.23.54.54,0,0,1,.6.58V7.24h-.4V6.15c0-.2-.05-.41-.34-.41A.39.39,0,0,0,6.64,6s0,.1,0,.15V7.24H6.24Z"/><path class="cls-3" d="M8.71,5.09v.45h.47v.21H8.71v1C8.71,7,8.83,7,9,7h.16v.21l-.29,0a.62.62,0,0,1-.39-.1c-.1-.08-.15-.19-.15-.43v-1H8V5.54h.3V5.17Z"/><path class="cls-3" d="M9.73,6.39h0c0,.28.07.67.43.67s.4-.4.4-.67-.07-.66-.41-.66-.42.4-.42.66m1.23,0a.8.8,0,0,1-.82.88.78.78,0,0,1-.81-.87.8.8,0,0,1,.83-.88A.78.78,0,0,1,11,6.39Z"/></svg>