<svg id="Capa_1" data-name="Capa 1" xmlns="http://www.w3.org/2000/svg" viewBox="0 0 31.06 27.64">
    <defs>
        <style>.cls-1 {
            fill: #f5a4c7;
        }

        .cls-2 {
            fill: #fccdb5;
        }

        .cls-3 {
            fill: #231f20;
        }</style>
    </defs>
    <title>3-1mes</title>
    <path class="cls-1"
          d="M3.74,21.11s-1.94-.48-1.91-1.25a7.35,7.35,0,0,1,1.38-2.47s1-.93,1.37-.84S9.17,19.4,9.17,19.4a1.37,1.37,0,0,1-.46,1.25,3.76,3.76,0,0,1-.94.52Z"/>
    <path class="cls-2"
          d="M4.14,19.72C4,20,3.39,21,4,21.64a4,4,0,0,0,1.24,1,4.23,4.23,0,0,0-.58,1.77c0,.67-.41.89-.61,1.22s-.55.68.62,1c0,0,1.88.45,2.18.45a4.2,4.2,0,0,0,.76-.11s.76-.13.87-.17.19-.4,0-.45.28-.07.42-.18.61,0,.77-.17,0-.26-.24-.28-1.75-.53-1.54-.9a14.75,14.75,0,0,1,1-1.3,8.62,8.62,0,0,0,.2-2.1,2.07,2.07,0,0,0-.27-.95l-1.13.76A2.19,2.19,0,0,1,7.58,21s.13-.94-.32-1.21a4.52,4.52,0,0,0-1.87-.63,1.41,1.41,0,0,0-1.25.59"/>
    <path class="cls-2"
          d="M0,10.48l4.17,1.6s1.63.25,2,.27a2.46,2.46,0,0,1,1.11.28,3.78,3.78,0,0,0,.52.27s2.07-.17,2,.1a1.48,1.48,0,0,0-.08.38s2.7.4,3.44-.2a3.45,3.45,0,0,1,3.44-1,5.48,5.48,0,0,1,3.26,2.23c.17.51.6.53.25,1a3.82,3.82,0,0,1-2.27,1c-.77,0-.89-.27-1,0s-.54.53-.84.39a2.34,2.34,0,0,0-.76-.15l-.4-.2s-.38.46-.49.23.07-.27-.28-.27-.56,0-.56-.42-.08-.54-.25-.49-.17,1-.25,1.41.17.53.17.53l1.36.75c.2.12.89,0,1.07,0s.79.29.84.46-.24.19-.24.4-.35.28-.47.2-.23,0-.23,0,.36.42.1.38a2.74,2.74,0,0,1-.54-.14s.67.37-.32.2c0,0,.1.26,0,.31s-.3-.06-.3-.06a.58.58,0,0,1-.28.23.26.26,0,0,0-.2.19s-.37.05-.49.05a1,1,0,0,1-.58-.13.87.87,0,0,1-.41-.71c0-.28-.9-1.08-1.2-1.08a2.23,2.23,0,0,1-.72-.18,2.47,2.47,0,0,1-.56.73,1.82,1.82,0,0,1-1.16.18c-.32-.1-2.41-.94-3.17-1.33s-1.13-.54-1.13-.94,0-.91.16-.95-.74-.3-.77-.3l-3.8-.6Z"/>
    <path class="cls-3"
          d="M17.4,16.14h0c-.12,0-.22-.05-.39-.07a.56.56,0,0,0-.35.07l0,0-.05,0-.07.08c-.07.1-.1.19-.14.24s-.05.06-.08.07H16.2l-.08,0a.44.44,0,0,1-.16-.14l-.42,0s0,0,0,0h0a.14.14,0,0,1-.09,0l-.13,0h-.07l0,0a.35.35,0,0,1-.13-.18A.36.36,0,0,1,15,16a.2.2,0,0,1,0-.11h0c0-.08-.07-.15-.19-.16a.22.22,0,0,0-.24.13h0c0,.19,0,.38-.08.57,0,0,0,0,0,0a.28.28,0,0,1-.09-.07l-.06-.06-.11-.07a.59.59,0,0,0-.29,0l-.19,0h-.07s0,0-.06-.06a1.81,1.81,0,0,1-.16-.48.67.67,0,0,0-.09-.26.11.11,0,0,0-.1-.06h-.12a0,0,0,0,1,0,0,1.2,1.2,0,0,0-.57-.54l0,0a1.09,1.09,0,0,1,.45.54h0v0h0A.94.94,0,0,1,13,16a8.49,8.49,0,0,0-.28,1.31c0,.05,0,.1.1.12h0A3.42,3.42,0,0,1,14,18l.09.09.05.06.06.06a.83.83,0,0,0,.46.19,4.53,4.53,0,0,0,.81-.05h.06l.13.06.27.16.23.17-.15,0-.65-.23h0a.29.29,0,0,0-.3.05c-.07.07,0,.17.06.22a4.53,4.53,0,0,1,.54.27l.2.11-.12,0a5,5,0,0,1-.58-.22h0a.21.21,0,0,0-.19,0,.08.08,0,0,0,0,.15,3.44,3.44,0,0,1,.36.28,1.06,1.06,0,0,1,.15.15.21.21,0,0,1,0,.06h0l-.13,0a1,1,0,0,1-.22-.08l0,0-.31-.25a.13.13,0,0,0-.11,0c-.05,0-.07.06-.05.09a1,1,0,0,0,.39.33h0l.07.07a.24.24,0,0,1,.06.09h0l-.16,0h0l-.05-.06a1.09,1.09,0,0,0-.59-.23l0,0a4.52,4.52,0,0,1-.51-.34h-.05l-1.36-.25c-.45-.1-.9-.2-1.31-.33a1.23,1.23,0,0,1-.24-.1c-.09-.08-.07-.11-.1-.18a2.42,2.42,0,0,1-.06-.46c0-.32,0-.64,0-1s.06-.64.09-1l.05-.48,0-.12V15h0v0h0a.3.3,0,0,0,0-.14.55.55,0,0,0-.12-.16,2.22,2.22,0,0,0-.56-.38c-.2-.11-.41-.2-.61-.29l-.53-.2a3.1,3.1,0,0,0,.74-.22l.12-.06c.81.08,1.62.13,2.44.13h.39l.21,0,.13,0H13l0,0,.17-.13.52-.09s-.63.47-.69.5.6-.24.6-.24v.52l.38-.16,0,.3.42,0s-.49-.35-.11-.75,1.5-.72,1.61-.31-.35.79-.35.79l.94-.58-.45.58.92-.64-.47.82L17,13.7l-.14.46.72-.45a3.15,3.15,0,0,1-.7.82l.95-.56-.32.56.85-.45a5.93,5.93,0,0,0-.62.86,6.86,6.86,0,0,0,.94-.64s-.23.72-.23.79.43-.36.43-.36a2.1,2.1,0,0,1-.52.72l.9-.45-.76.75,1.47-.5a6.41,6.41,0,0,1-1.38.8l-.46.15h0a3.93,3.93,0,0,1-.69-.06M14.57,20h0l-.07,0,0,0a.38.38,0,0,0,0-.15.56.56,0,0,0-.07-.13l-.12-.11,0,0,.1,0a1,1,0,0,1,.22.14l0,.07a.17.17,0,0,1,0,.07l0,.11s0,.05,0,0S14.6,20,14.57,20Zm-4.23-1.51h0a1.82,1.82,0,0,1-.61.5,1.16,1.16,0,0,1-.49.14h0s0,0,0,0h0l-.14,0L8.67,19l-.73-.24-.77-.25a4.88,4.88,0,0,1-1.4-.64l-.56-.36L5,17.32a.51.51,0,0,1-.17-.14,1.26,1.26,0,0,1-.22-.63c0-.12,0-.2,0-.24l1.37.75,2,1,1,.49a1.32,1.32,0,0,0,.3.09.28.28,0,0,0,.23-.05.13.13,0,0,0,0-.14,1.13,1.13,0,0,0-.22-.42,2.33,2.33,0,0,0-.34-.36l-.34-.36-.12-.11.48.21c.45.2.91.4,1.38.59l0,.09a.63.63,0,0,0,.12.21Zm-1.65,1.9h0a2,2,0,0,1-.48.42l-.28.16c0-.15,0-.3,0-.45a1.63,1.63,0,0,0-.07-.36.69.69,0,0,0-.07-.2.74.74,0,0,0-.16-.19,2.92,2.92,0,0,0-.83-.5,4.41,4.41,0,0,0-1-.3,2.86,2.86,0,0,0-.59,0,1.37,1.37,0,0,0-.32.06l-.25.11a1.51,1.51,0,0,0-.58.64A4.53,4.53,0,0,0,3.59,21a3.88,3.88,0,0,1-.79-.28,1.32,1.32,0,0,1-.6-.5.81.81,0,0,1-.05-.63c0-.09.07-.22.11-.32s.1-.21.16-.32a6.46,6.46,0,0,1,.88-1.22c.17-.2.34-.42.49-.62a1.15,1.15,0,0,1,.27-.27,1.36,1.36,0,0,1,.24-.13.59.59,0,0,0,0,.13.73.73,0,0,0,.11.45.8.8,0,0,0,.22.23l.31.18c.2.1.44.18.68.27s.49.18.72.29.46.24.69.36a8,8,0,0,0,1.42.66l.38.13.22.05h.11c0,.12-.08.24-.13.36A2.72,2.72,0,0,1,8.69,20.36Zm.16.36h0c0,.21,0,.5,0,.85,0,.17,0,.36,0,.56a4.22,4.22,0,0,1-.06.59A4.34,4.34,0,0,1,8.35,24a2.6,2.6,0,0,1-.44.62.65.65,0,0,0-.2.35.56.56,0,0,0,.27.35c.26.16.52.28.73.39l.16.09a.66.66,0,0,0,.33.1h.22s0,0,0,0a.44.44,0,0,1-.17.08L9,26H8.88a.84.84,0,0,0-.17.05,1,1,0,0,1-.14.09l-.12,0h0l-.17-.06a3.4,3.4,0,0,0-.46-.09c-.16,0-.3,0-.43-.06A1.58,1.58,0,0,1,7,25.91a3.49,3.49,0,0,1-.34-.15l-.18-.11.34-.4.42-.51a3.68,3.68,0,0,0,.64-1.11A2.55,2.55,0,0,0,8,23a3.89,3.89,0,0,0,0-.59,6.41,6.41,0,0,0-.25-1.05l0,0L8,21.29l.19-.09A2.22,2.22,0,0,0,8.52,21a1.72,1.72,0,0,0,.33-.33ZM4.94,22.58h0l0,0S4.94,22.59,4.94,22.58Zm3.54,4h0s0,0,0,0l0,0a.68.68,0,0,1-.19.08.25.25,0,0,0,0-.22A.31.31,0,0,0,8,26.42a.67.67,0,0,0-.24,0h0v.11h0l-.11-.06-.07,0H7.49l-.29,0,.22.14a1.36,1.36,0,0,1,.25.2h0v0a.17.17,0,0,1,0,.05s0,0,0,.07l0-.07a.88.88,0,0,0-.15-.12l-.16-.12-.17-.08h0l-.2.2.14.09a.47.47,0,0,1,.1.09l0,0h0L7,26.8c0-.05-.1-.07-.16-.12l-.27.18a.55.55,0,0,0-.17-.1,1,1,0,0,0-.21-.05l-.31,0h-.1l-.12,0-.53-.16-.3-.08-.17,0H4.49a.77.77,0,0,1-.3-.15A.27.27,0,0,1,4.11,26a.35.35,0,0,1,.06-.14.61.61,0,0,1,.12-.15,3.46,3.46,0,0,1,.33-.31.78.78,0,0,0,.28-.45,1.58,1.58,0,0,0,0-.43c0-.14,0-.27,0-.39a2.52,2.52,0,0,1,.16-.76c.05-.12.12-.26.16-.39a1.42,1.42,0,0,0,0-.22.37.37,0,0,0,0-.11.17.17,0,0,0,0-.07s0,0,0-.05l0,0s0,0-.08-.06h0a4.47,4.47,0,0,1-.94-.61,1.66,1.66,0,0,1-.5-.69,3.55,3.55,0,0,1,.58-1.29,1.62,1.62,0,0,1,.25-.28,1.23,1.23,0,0,1,.29-.22l.19-.06a.81.81,0,0,1,.17,0,1.47,1.47,0,0,1,.41,0,3.36,3.36,0,0,1,.83.27,3.07,3.07,0,0,1,.67.42.43.43,0,0,1,.13.24,1.67,1.67,0,0,1,.08.32c0,.22.07.45.1.68l0,.23.16,0a7.25,7.25,0,0,1,0,1,3.57,3.57,0,0,1,0,.57,2.63,2.63,0,0,1-.18.54,4,4,0,0,1-.65,1l-.22.25-.22.25L6,25.59l-.09.1.11.08a3,3,0,0,0,.38.23,2.63,2.63,0,0,0,.42.17,3.57,3.57,0,0,0,.47.11l.47,0a1.56,1.56,0,0,1,.71.18.14.14,0,0,1,.05.09Zm-.62-.11h0c.08,0,.14,0,.15.1a.25.25,0,0,1,0,.17.33.33,0,0,0-.07-.16l-.08-.07-.08-.06Zm5-6.51h0A.11.11,0,0,1,13,20a.27.27,0,0,1,.18.11.37.37,0,0,1,.09.2v.07a2.05,2.05,0,0,1-.26-.16l-.15-.12Zm.38.35ZM20.65,15A3.06,3.06,0,0,0,21,13.26a2.68,2.68,0,0,0-.35-1,2.53,2.53,0,0,0-.93-.87,4.17,4.17,0,0,0-1.46-.46l-.36,0h-.41a7.14,7.14,0,0,0-.8,0,5.7,5.7,0,0,0-1.47.42A6.24,6.24,0,0,0,14,12a7.87,7.87,0,0,0-.87.86,4.74,4.74,0,0,1-.37.39h0l0,0-.16,0-.35,0c-.49,0-1,0-1.48,0H9.9a.76.76,0,0,0,.11-.14c.12-.19-.09-.4-.27-.45a2.45,2.45,0,0,0-.91-.07,6.66,6.66,0,0,1-.73,0,2.61,2.61,0,0,1-.6-.08l-.17-.12A3,3,0,0,0,7,12.39a2.15,2.15,0,0,0-.54-.17,3.08,3.08,0,0,0-.7-.07,4.47,4.47,0,0,1-.67,0,5.74,5.74,0,0,1-.68-.21l-.72-.26c-1-.35-1.94-.69-2.68-.93-.37-.13-.69-.22-.91-.29l-.35-.1.29.16c.2.1.47.25.81.41.68.32,1.62.72,2.59,1.08l.75.25a7.32,7.32,0,0,0,.78.21,5.29,5.29,0,0,0,.8,0,3.31,3.31,0,0,1,.63,0,3.27,3.27,0,0,1,.9.2l.07,0a2.13,2.13,0,0,0-.8,0l-.74.13a4.2,4.2,0,0,1-1.41,0l-.7-.17L3,12.5c-1-.25-1.92-.47-2.89-.71l0,0,2.79.86.71.21c.24.07.44.14.72.21a4.64,4.64,0,0,0,1.62,0L6.65,13a1.61,1.61,0,0,1,.62,0,3.71,3.71,0,0,0,.81.13,6.37,6.37,0,0,0,.8,0,1.72,1.72,0,0,1,.59,0h0a.4.4,0,0,1-.13.09,3.21,3.21,0,0,1-.63.16c-.23,0-.48.07-.71.09a.31.31,0,0,0-.23.12c-.06.1,0,.21.15.26.41.13.83.27,1.23.43.19.08.39.16.57.25a2.06,2.06,0,0,1,.45.29l.06,0s0,.06,0,.09v.21l0,.41-1-.33,1,.69c0,.22,0,.45,0,.67L10,16.48a3.89,3.89,0,0,0-.41-.18c-.54-.24-1.12-.46-1.12-.46l0,0s.42.35.88.67c.11.08.21.17.32.24a2.13,2.13,0,0,0,.36.15l.19,0a4.73,4.73,0,0,0,0,.65c0,.1,0,.21,0,.31-.36-.24-.74-.48-1.13-.7-.23-.13-.47-.25-.71-.37l-.38-.17-.21-.09-.15,0s0,0-.2,0-.14.13-.13.19a.13.13,0,0,0,0,.06.23.23,0,0,0,0,.05c.25.22.51.43.79.64l.41.31c.13.11.28.21.39.32a1,1,0,0,1,.25.35c0,.07,0,.07,0,.07A.79.79,0,0,1,9,18.47,7.84,7.84,0,0,1,8,17.94c-.59-.38-1.17-.78-1.8-1.15S5,16.05,4.37,15.7h0l-.06,0a18.13,18.13,0,0,0-2.07-.44,10.38,10.38,0,0,0-2.16-.15v0a19.53,19.53,0,0,1,2.05.39c.65.15,1.3.33,1.92.52l.46.26a.65.65,0,0,0-.14.26.36.36,0,0,0,0,.11,1.34,1.34,0,0,0-.37.12,2.16,2.16,0,0,0-.38.27c-.2.2-.38.38-.59.57a5,5,0,0,0-1,1.25c-.05.12-.11.23-.15.35a1.53,1.53,0,0,0-.08.37,1,1,0,0,0,.2.75,1.86,1.86,0,0,0,.76.51l.46.18.47.15h0a.92.92,0,0,0,.09.28,2.38,2.38,0,0,0,.3.43,3.91,3.91,0,0,0,.86.68v0a.29.29,0,0,1,0,.09,1.34,1.34,0,0,1-.07.18c0,.12-.11.24-.18.37a2.54,2.54,0,0,0-.24.83c0,.14,0,.28,0,.41a1.42,1.42,0,0,1,0,.37.52.52,0,0,1-.18.28,3.57,3.57,0,0,0-.38.33,2.33,2.33,0,0,0-.16.2,1.09,1.09,0,0,0-.1.25.6.6,0,0,0,.18.52,1.23,1.23,0,0,0,.65.3h.27l.25.06.55.16.16,0,.18,0,.27,0h.08s0,0,0,0a.91.91,0,0,0,.7.1l0,0,0,0,.14.05.16,0,.15,0h0c.06,0,0,0,0,0a.1.1,0,0,0,0,0l0,0h.11A.59.59,0,0,0,7.8,27h0L8,27s0,0,.07,0l0,0a0,0,0,0,1,0,0h0a1.15,1.15,0,0,0,.48-.13l.09-.09a.14.14,0,0,0,0-.06v0a.24.24,0,0,0-.06-.2.45.45,0,0,0-.13-.11.33.33,0,0,0,.1,0c.07,0,.15-.05.2-.06h.52a.73.73,0,0,0,.39-.15.29.29,0,0,0,.09-.1l0,0a.11.11,0,0,0,0-.05.22.22,0,0,0-.12-.25.69.69,0,0,0-.34-.08H9.27s-.07,0,0,0,0,0-.05,0L9,25.46c-.27-.12-.58-.18-.83-.29s-.24-.12-.26-.2.07-.18.15-.28.39-.39.56-.59a3,3,0,0,0,.5-.64,2.68,2.68,0,0,0,.29-.68,2.22,2.22,0,0,0,.07-.67,4.49,4.49,0,0,0-.1-.57,4.08,4.08,0,0,0-.31-.84L9,20.5l0,0a1.87,1.87,0,0,0,.22-.58,1.72,1.72,0,0,0,0-.39h.07a1.45,1.45,0,0,0,.73-.28,1.24,1.24,0,0,0,.36-.37,1.35,1.35,0,0,0,.14-.32.3.3,0,0,1,0-.1,1.31,1.31,0,0,0,.29.11,5.89,5.89,0,0,0,.67.16l.31.34a4.35,4.35,0,0,1,.39.45.13.13,0,0,1,0,.05.2.2,0,0,1,0,.05.9.9,0,0,0,0,.16.75.75,0,0,0,.16.34,1.21,1.21,0,0,0,.32.27,1.26,1.26,0,0,0,.42.21.46.46,0,0,0,.23,0c.09,0,.11-.07.13-.11a.28.28,0,0,0,0-.2.7.7,0,0,0-.19-.26.53.53,0,0,0-.34-.11c-.14,0-.22.08-.21.13l0,0a.73.73,0,0,1-.14-.26l0-.15a.49.49,0,0,0,0-.1l-.06-.08a2.86,2.86,0,0,0-.51-.44l-.33-.21.56.11,1.35.22.4.24-.19,0,.11.05-.13,0a.45.45,0,0,0-.22,0c-.13.06-.11.12-.12.16a.08.08,0,0,0,0,0h-.08a.34.34,0,0,0-.22.07.24.24,0,0,0-.11.17v.07l.07-.05a.34.34,0,0,1,.16-.07.08.08,0,0,1,.07,0l.09,0,.22.15a.55.55,0,0,1,.15.16.25.25,0,0,1,0,.07s0,.05,0,.08a.42.42,0,0,1-.2.14h.1a.48.48,0,0,0,.26-.06.28.28,0,0,0,.12-.12.22.22,0,0,0,0-.16.43.43,0,0,0-.18-.28,1,1,0,0,0-.35-.18l-.11,0,0,0a.39.39,0,0,1,.14-.05s0,0,0,0l.1.06a1.37,1.37,0,0,1,.2.13l.08.07.08.08a.51.51,0,0,1,.08.13.08.08,0,0,1,0,.1.17.17,0,0,1-.06,0h.09a.29.29,0,0,0,.22-.11s0,0,0,0a.08.08,0,0,0,0,0,.18.18,0,0,0,.18.09.29.29,0,0,0,.21-.11l.09-.12a.5.5,0,0,0,0-.16l.12,0,.14,0a.12.12,0,0,0,.07-.11s0,0,0,0l.13,0a.57.57,0,0,0,.22,0,.18.18,0,0,0,.11-.1.19.19,0,0,0,0-.08.2.2,0,0,0-.06-.11l0,0,.25.08a1.29,1.29,0,0,0,.24,0,.38.38,0,0,0,.18,0,.18.18,0,0,0,.12-.17,1,1,0,0,0,0-.1h.08a.45.45,0,0,0,.17,0l.08-.05v0h0c.05-.11,0,0,0-.06h0v0a.15.15,0,0,0,0-.07.73.73,0,0,0-.23-.3,2.51,2.51,0,0,0-.29-.2,2,2,0,0,0-.32-.18,1,1,0,0,0-.18-.08.79.79,0,0,0-.32,0c-.16,0-.28,0-.39.05a1.84,1.84,0,0,1-.31,0,.34.34,0,0,1-.18-.07l0,0-.05-.05a.77.77,0,0,0-.13-.12,2.32,2.32,0,0,0-.66-.35,6.29,6.29,0,0,0-.62-.17,9.9,9.9,0,0,1,.17-1.2,1.12,1.12,0,0,0,0-.6h0c.07,0,.09,0,.1,0a.61.61,0,0,1,0,.24,1.71,1.71,0,0,0,.08.53.3.3,0,0,0,.15.15.48.48,0,0,0,.28,0l.18,0h.06l0,0s0,0,0,0l0,0a.6.6,0,0,0,.14.13.51.51,0,0,0,.59,0l0,0,.09.05,0,0,0,0h0a1.31,1.31,0,0,0,.25.06,1.1,1.1,0,0,0,.31,0h0l.14.11a1.34,1.34,0,0,0,.24.09l.16,0h.14a.59.59,0,0,0,.45-.25c.06-.1.08-.19.12-.24a0,0,0,0,1,0,0h0l.34,0a4.19,4.19,0,0,0,.79,0c.25,0,.53-.05.76-.09a2.76,2.76,0,0,0,.72-.23,2.2,2.2,0,0,0,.91-.84c.05-.08.08-.16.12-.24A.25.25,0,0,0,20.65,15Z"/>
    <path class="cls-3"
          d="M16.74,15.84c-.2-.12-.22-.48-.22-.48a2.06,2.06,0,0,0-.07.34.34.34,0,0,0,.14.37l.5-.15a.56.56,0,0,1-.35-.08"/>
    <path class="cls-3"
          d="M17,14.9a6.4,6.4,0,0,0,.48.59c.24.25-.09.54-.09.54.26.12.37-.13.33-.31A4.47,4.47,0,0,0,17,14.9"/>
    <path class="cls-3"
          d="M8.45,2h.16c.38,0,.65-.18.65-.51S9.11,1,8.67,1H8.45ZM8.06.84a3.18,3.18,0,0,1,.57,0A1.38,1.38,0,0,1,9.39,1a.57.57,0,0,1,.26.49.6.6,0,0,1-.21.48,1.22,1.22,0,0,1-.81.27H8.45v1H8.06Z"/>
    <path class="cls-3"
          d="M11.63,2.71c0,.19,0,.34,0,.46h-.35l0-.18h0a.74.74,0,0,1-.54.21c-.43,0-.6-.23-.6-.65V1.47h.39v1c0,.27.07.46.34.46a.34.34,0,0,0,.35-.22.78.78,0,0,0,0-.16V1.47h.39Z"/>
    <path class="cls-3"
          d="M13.37,2.15h0c0-.34-.18-.49-.37-.49s-.39.26-.4.49Zm-.78.2c0,.52.3.63.59.63a1.12,1.12,0,0,0,.41-.07l.06.2a1.5,1.5,0,0,1-.54.08.79.79,0,0,1-.9-.85A.8.8,0,0,1,13,1.45a.68.68,0,0,1,.71.75.66.66,0,0,1,0,.15Z"/>
    <path class="cls-3"
          d="M14.23,2.89a1,1,0,0,0,.4.09c.23,0,.37-.1.37-.25s-.07-.21-.32-.33-.5-.29-.5-.48.3-.47.68-.47a1.21,1.21,0,0,1,.45.08l-.11.21a.8.8,0,0,0-.33-.08c-.21,0-.32.11-.32.22s.06.18.31.29.51.28.51.52-.34.5-.74.5a1.26,1.26,0,0,1-.49-.09Z"/>
    <path class="cls-3"
          d="M16.39,1v.45h.47v.21h-.47v1c0,.22.12.28.26.28h.16v.21l-.29,0a.62.62,0,0,1-.39-.1C16,3,16,2.9,16,2.66v-1h-.3V1.47H16V1.1Z"/>
    <path class="cls-3"
          d="M17.59,2.32h0c0,.28.07.67.43.67s.4-.4.4-.67-.07-.66-.41-.66-.42.4-.42.66m1.23,0A.8.8,0,0,1,18,3.2a.78.78,0,0,1-.81-.87A.8.8,0,0,1,18,1.45.78.78,0,0,1,18.82,2.32Z"/>
    <path class="cls-3"
          d="M21.42,2.12h0a.41.41,0,0,0,0-.11A.38.38,0,0,0,21,1.68c-.32,0-.44.31-.44.65S20.74,3,21,3a.38.38,0,0,0,.38-.3.36.36,0,0,0,0-.11ZM21.81.74v2c0,.11,0,.3,0,.4h-.34l0-.21h0a.62.62,0,0,1-.52.24c-.42,0-.72-.31-.72-.87s.36-.88.75-.88a.53.53,0,0,1,.45.2h0V.74Z"/>
    <path class="cls-3"
          d="M23.54,2.15h0c0-.34-.18-.49-.37-.49s-.39.26-.4.49Zm-.78.2c0,.52.31.63.59.63a1.12,1.12,0,0,0,.41-.07l.06.2a1.46,1.46,0,0,1-.54.08.8.8,0,0,1-.9-.85.81.81,0,0,1,.83-.89.68.68,0,0,1,.71.75v.15Z"/>
    <path class="cls-3"
          d="M25.79,2.55h0a.32.32,0,0,0,0,.14.37.37,0,0,0,.36.29c.33,0,.43-.31.43-.66s-.12-.64-.44-.64A.39.39,0,0,0,25.8,2a.53.53,0,0,0,0,.13ZM25.4,2c0-.26,0-.41,0-.53h.35l0,.22h0a.61.61,0,0,1,.52-.24c.43,0,.72.31.72.87a.77.77,0,0,1-.77.88A.49.49,0,0,1,25.8,3h0v.85H25.4Z"/>
    <path class="cls-3"
          d="M27.57,3.17h0V1.47H28v1.7ZM28,1c0,.11-.1.18-.24.18s-.23-.07-.23-.18.1-.17.23-.17S28,.93,28,1Z"/>
    <path class="cls-3"
          d="M29.7,2.15h0c0-.34-.18-.49-.37-.49s-.39.26-.41.49Zm-.78.2c0,.52.3.63.59.63a1.12,1.12,0,0,0,.41-.07l.06.2a1.52,1.52,0,0,1-.55.08.8.8,0,0,1-.9-.85.81.81,0,0,1,.84-.89.67.67,0,0,1,.7.75v.15Z"/>
    <path class="cls-3"
          d="M17,5.3h0c0-.34-.18-.49-.37-.49s-.39.26-.41.49Zm-.78.21c0,.51.3.63.59.63a1.12,1.12,0,0,0,.41-.07l.06.2a1.75,1.75,0,0,1-.54.08.8.8,0,0,1-.91-.85.82.82,0,0,1,.84-.9.68.68,0,0,1,.71.75.76.76,0,0,1,0,.16Z"/>
    <path class="cls-3"
          d="M18.06,4.63l.23.37c.06.09.11.19.17.29h0L18.63,5l.22-.37h.41l-.59.84.58.86h-.43L18.59,6c-.06-.09-.1-.18-.16-.29h0L18.25,6,18,6.33h-.4l.59-.85-.57-.85Z"/>
    <path class="cls-3"
          d="M20.27,4.18v.45h.47v.21h-.47v1c0,.22.11.28.26.28h.16v.2a1.07,1.07,0,0,1-.29,0,.69.69,0,0,1-.39-.1c-.1-.08-.15-.19-.15-.43v-1h-.3V4.63h.3V4.26Z"/>
    <path class="cls-3"
          d="M21.22,6.33h0V4.63h.39v1.7Zm.42-2.14c0,.11-.09.18-.24.18a.2.2,0,0,1-.22-.18c0-.1.1-.17.23-.17S21.64,4.09,21.64,4.19Z"/>
    <path class="cls-3"
          d="M23.34,5.3h0c0-.34-.18-.49-.37-.49s-.38.26-.4.49Zm-.78.21c0,.51.31.63.59.63a1.08,1.08,0,0,0,.41-.07l.06.2a1.66,1.66,0,0,1-.54.08.8.8,0,0,1-.9-.85A.82.82,0,0,1,23,4.6a.68.68,0,0,1,.7.75v.16Z"/>
    <path class="cls-3"
          d="M24.27,5.07c0-.2,0-.3,0-.44h.35l0,.2h0a.7.7,0,0,1,.56-.23.54.54,0,0,1,.6.59V6.33H25.4V5.23c0-.2-.06-.4-.34-.4a.38.38,0,0,0-.38.28.66.66,0,0,0,0,.15V6.33h-.4Z"/>
    <path class="cls-3"
          d="M27.57,5.28h0V5.16a.39.39,0,0,0-.37-.33c-.33,0-.44.32-.44.66s.13.64.42.64a.38.38,0,0,0,.38-.29.37.37,0,0,0,0-.11ZM28,3.9v2c0,.12,0,.31,0,.41h-.33l0-.21h0a.6.6,0,0,1-.51.24c-.42,0-.72-.31-.72-.87s.36-.89.74-.89a.5.5,0,0,1,.45.21h0V3.9Z"/>
    <path class="cls-3"
          d="M29.7,5.3h0c0-.34-.18-.49-.37-.49s-.39.26-.41.49Zm-.78.21c0,.51.3.63.59.63a1.12,1.12,0,0,0,.41-.07l.06.2a1.75,1.75,0,0,1-.54.08.79.79,0,0,1-.9-.85.81.81,0,0,1,.83-.9.68.68,0,0,1,.71.75.76.76,0,0,1,0,.16Z"/>
    <rect class="cls-3" x="12.58" y="7.06" width="0.39" height="2.43"/>
    <path class="cls-3"
          d="M14.6,8.61h0c-.2,0-.68,0-.68.39a.29.29,0,0,0,.3.3.34.34,0,0,0,.37-.25.34.34,0,0,0,0-.1Zm.06.88,0-.18h0a.62.62,0,0,1-.49.2c-.34,0-.59-.19-.59-.48s.49-.61,1.05-.62V8.36c0-.23-.08-.39-.39-.39a1.07,1.07,0,0,0-.41.09l-.09-.19a1.48,1.48,0,0,1,.58-.11c.5,0,.71.22.71.61V9.1a1.63,1.63,0,0,0,0,.39Z"/>
    <path class="cls-3"
          d="M15.61,9.21a1.21,1.21,0,0,0,.39.08c.23,0,.37-.09.37-.24s-.07-.22-.32-.34-.5-.28-.5-.48.3-.47.69-.47a1.16,1.16,0,0,1,.44.09l-.11.2A.79.79,0,0,0,16.25,8c-.22,0-.33.1-.33.21s.06.18.31.3.51.28.51.51-.34.51-.74.51a1.15,1.15,0,0,1-.49-.1Z"/>
    <path class="cls-3"
          d="M18.6,8.86h0a.61.61,0,0,0,0,.14.38.38,0,0,0,.37.29c.33,0,.43-.31.43-.65S19.29,8,19,8a.4.4,0,0,0-.36.31.53.53,0,0,0,0,.13Zm-.4-.54c0-.26,0-.41,0-.53h.36l0,.22h0a.6.6,0,0,1,.52-.25c.43,0,.72.32.72.87a.77.77,0,0,1-.77.88.51.51,0,0,1-.43-.19h0v.84h-.4Z"/>
    <path class="cls-3"
          d="M20.38,9.49h0V7.79h.39v1.7Zm.42-2.14c0,.1-.09.17-.24.17s-.22-.07-.22-.17.1-.18.23-.18S20.8,7.24,20.8,7.35Z"/>
    <path class="cls-3"
          d="M22.5,8.46h0c0-.34-.18-.49-.37-.49s-.38.26-.4.49Zm-.78.2c0,.52.31.63.59.63a1.11,1.11,0,0,0,.41-.06l.06.2a1.66,1.66,0,0,1-.54.08.81.81,0,0,1-.9-.86.81.81,0,0,1,.84-.89.67.67,0,0,1,.7.75v.15Z"/>
    <path class="cls-3"
          d="M23.43,8.23c0-.15,0-.32,0-.44h.35l0,.26h0a.59.59,0,0,1,.52-.29h.09V8h-.09a.46.46,0,0,0-.47.35.78.78,0,0,0,0,.16v.94h-.39Z"/>
    <path class="cls-3"
          d="M24.83,8.23c0-.2,0-.3,0-.44h.34l0,.2h0a.71.71,0,0,1,.57-.23.54.54,0,0,1,.6.59V9.49H26V8.39c0-.2-.06-.4-.35-.4a.37.37,0,0,0-.37.28.61.61,0,0,0,0,.15V9.49h-.39Z"/>
    <path class="cls-3"
          d="M28,8.61h0c-.2,0-.68,0-.68.39a.28.28,0,0,0,.3.3.34.34,0,0,0,.37-.25A.34.34,0,0,0,28,9Zm.06.88,0-.18h0a.63.63,0,0,1-.5.2A.52.52,0,0,1,26.89,9c0-.42.49-.61,1.05-.62V8.36c0-.23-.08-.39-.39-.39a1,1,0,0,0-.41.09l-.09-.19a1.48,1.48,0,0,1,.58-.11c.5,0,.71.22.71.61V9.1a1.63,1.63,0,0,0,0,.39Z"/>
    <path class="cls-3"
          d="M29,9.21a1.28,1.28,0,0,0,.4.08c.23,0,.37-.09.37-.24s-.07-.22-.32-.34-.5-.28-.5-.48.3-.47.68-.47a1.18,1.18,0,0,1,.45.09l-.11.2A.81.81,0,0,0,29.59,8c-.21,0-.32.1-.32.21s.06.18.31.3.51.28.51.51-.34.51-.74.51a1.09,1.09,0,0,1-.49-.1Z"/>
</svg>
