<svg id="Capa_1" data-name="Capa 1" xmlns="http://www.w3.org/2000/svg" viewBox="0 0 31.15 27.45"><defs><style>.cls-1{fill:#f5a4c7;}.cls-2{fill:#fccdb5;}.cls-3{fill:#231f20;}</style></defs><title>4-1mes</title><path class="cls-1" d="M18.53,22s-1.64,2.89-1.47,3.24-.45.82,3.22,1,3.84-.65,4-1-.42-1.41-.45-1.48a28.63,28.63,0,0,0-2.5-2.94c-.31-.13-2.21-.6-2.78,1.13"/><path class="cls-2" d="M30.9,12.68v6.94s-1.72.7-2.18.2-.26-.91-.4-1-.88-.12-.7-.43,1-.79,1-1,.08-.42.08-.42a3,3,0,0,1-1.21.71c-.54.08-.82.18-.89-.26s0-.43-.41-.39-1.12.19-1.38,0-.48-.37-.28-.84,1.07-1.4.68-1.84-1.48-1.72-1.42-2.75A2,2,0,0,1,24.72,10s2.14.78,2.19-.27,4,3,4,3"/><path class="cls-2" d="M22.6,21a3.76,3.76,0,0,0-.12-1.82c-.32-.53-1.24-1-1.55-1.48s.07-1.13-.57-1.27-1.21.31-1,.89.54.83.49,1.19-.9.47-.95.46l-2-.34s.11-.25-.29-.36-.53,0-.58.08-.1-.2-.34,0-.34,0-.34,0-.37-.22-.46-.07-.17.11-.17.11a.5.5,0,0,0-.58,0s-.49-.1-.63.17.35.51.62.58-.26.1-.21.41.66.22.66.22a2.44,2.44,0,0,0,1.05.27c.35-.08.43.64.43.64a.53.53,0,0,0-.54-.15c-.38.07-.81,0-.94.15s-.68.08-.95.11a5.74,5.74,0,0,1-1.07.15c-.25-.05-.7-.42-.11-.6s1-.53.67-.86-.51-.36-.59-.62-.56.14-.62,0,0-.45,0-.48a.45.45,0,0,1-.23-.37c0-.21-1-.19-1.18-.35s-.56-1-1.1-1.14a5,5,0,0,0-3,0c-.77.45-1.17,3.36-1,3.5s1.44,1.7,2.17,1.89a11.41,11.41,0,0,1,2.87.8c.42.35.59,1.52,2.41,2.39s2.8.93,3.46.49c0,0,.86.3,1.23.38s0,0,0,0A6.07,6.07,0,0,1,19.27,22,2,2,0,0,1,21,21c1.09.05.93.29.93.29s-1.68.32-1.9,1.16-.71,1.55.19,2.2a3.93,3.93,0,0,0,3.52.25,11.85,11.85,0,0,0,2-.71,12.4,12.4,0,0,0,2.67,1.2,17,17,0,0,0,2.24.13V22.6s-.71.58-1.44-.69-1.6-2.44-4.45-1.81c0,0-1.67.77-2.12.92"/><path class="cls-3" d="M11.74,18.48h0m0,.52Zm0-.49Zm2.89,2.76h0S14.64,21.29,14.64,21.27Zm.13-.53Zm1.12-1.36h0a.23.23,0,0,1-.12,0l-.06,0-.1,0a.44.44,0,0,1-.15-.1c-.05,0-.05-.15,0-.28s.07-.25.09-.37a.57.57,0,0,1,.12-.26.29.29,0,0,1,.24,0l.1,0a.71.71,0,0,0-.12.69.58.58,0,0,0,.13.19l0,.06A.12.12,0,0,1,15.89,19.38ZM15,19.22h-.19s0,0-.06-.06a.41.41,0,0,1,0-.27,1.7,1.7,0,0,1,.1-.32s.05-.1.08-.14a.18.18,0,0,1,.08-.07.46.46,0,0,1,.26,0,.11.11,0,0,1,.06,0,1,1,0,0,0-.1.17,1.74,1.74,0,0,0-.14.38.86.86,0,0,0,0,.23l0,.07A.34.34,0,0,1,15,19.22Zm.09.3h0a.64.64,0,0,1-.21.07h-.26a2.35,2.35,0,0,1-.5,0l-.07,0s0,0,0-.05v-.09a.22.22,0,0,1,.05-.13l.05,0a.52.52,0,0,0,.22,0h.1l0,0a.42.42,0,0,0,.31.13l.23,0,.07,0S15.14,19.49,15.09,19.52Zm-.75-1.08h0l.13-.07a.4.4,0,0,1,.21,0,.68.68,0,0,0-.12.12,1,1,0,0,0-.17.37.57.57,0,0,0,0,.29h-.12l-.1,0a.46.46,0,0,1-.13-.08.73.73,0,0,1-.13-.09.11.11,0,0,1,0-.18,1.19,1.19,0,0,1,.26-.22Zm5,.27ZM17,21.21a.14.14,0,0,0,0-.07h0a5,5,0,0,0,.81.17l.42,0h.42a1.92,1.92,0,0,0,.41,0,.54.54,0,0,0,.21-.08l0,0h0l0,0h0v0s0,0,0-.06a.3.3,0,0,0-.11-.38l-.05,0a.76.76,0,0,0,.09-.09.26.26,0,0,0,0-.24.67.67,0,0,0-.33-.27,2,2,0,0,0-.82-.12h0s0,0,0,0a2.1,2.1,0,0,1,.62.26.32.32,0,0,1,.11.16s0,0-.07.05a.91.91,0,0,1-.27,0h-.33l-.36,0-.35-.05a4.7,4.7,0,0,1-.67-.18.74.74,0,0,1-.25-.14.21.21,0,0,1-.08-.21c0-.08.09-.13.2-.15l.14,0h0c.31.06.62.11.93.14h0a.23.23,0,0,0,.25-.13c0-.08-.06-.16-.18-.17h0c-.31-.05-.63-.08-.95-.1a7.37,7.37,0,0,0-.94,0h0a.21.21,0,0,0,0-.12.09.09,0,0,0,0-.05l.09.06a.53.53,0,0,0,.35,0l.19-.09a.88.88,0,0,0,.27-.24.73.73,0,0,0,.11-.26v0l.34.06c.38.07.92.15,1.59.21l.27,0h.27l.08,0h0a1,1,0,0,0,.46-.35.47.47,0,0,0,0-.5c-.11-.15-.21-.25-.3-.38a1,1,0,0,1-.25-.81.55.55,0,0,1,.29-.35.6.6,0,0,1,.49-.09.23.23,0,0,1,.15.27.66.66,0,0,0-.08.24,1.09,1.09,0,0,0,0,.26,1.79,1.79,0,0,0,.65.86c.18.12.3.19.43.29l.35.29a2.47,2.47,0,0,1,.51.6,1.29,1.29,0,0,1,.19.56,3.87,3.87,0,0,1,0,.47,2,2,0,0,1,0,.3c0,.07,0,.11,0,.1h0a0,0,0,0,0,0,0h0a.4.4,0,0,0,.09-.11,2.2,2.2,0,0,0,.14-.3,2.56,2.56,0,0,0,.11-.49,1.13,1.13,0,0,0-.1-.66,2.07,2.07,0,0,0-.49-.71,3.09,3.09,0,0,0-.39-.33c-.14-.11-.33-.22-.45-.3a1.58,1.58,0,0,1-.59-.67.61.61,0,0,1-.05-.18c0-.07,0-.08,0-.21s-.14-.41-.43-.48a.88.88,0,0,0-.71.15.72.72,0,0,0-.33.44,1.55,1.55,0,0,0,.15.9c.06.14.16.29.2.4a.28.28,0,0,1,0,.28.76.76,0,0,1-.28.21H19l-1.6-.06H17a.42.42,0,0,0-.21-.37.86.86,0,0,0-.48-.1l-.17,0,.17,0a.73.73,0,0,1,.33.14.35.35,0,0,1,0,.35,1.28,1.28,0,0,1-.11.2.58.58,0,0,1-.2.16l-.11.05h0a.63.63,0,0,1-.12-.14.73.73,0,0,1-.1-.39,1.09,1.09,0,0,1,.05-.3l.05-.11a.75.75,0,0,0-.17.17l-.06-.06a.32.32,0,0,0-.13-.08.33.33,0,0,0-.26,0,.43.43,0,0,0-.2.14.08.08,0,0,0,0,0,.58.58,0,0,0-.35-.1.44.44,0,0,0-.22.09.5.5,0,0,0-.33-.06.87.87,0,0,0-.22.05l-.12.05a1.28,1.28,0,0,0-.52,0c-.3.06-.54.44,0,.61a.43.43,0,0,0,.11.12.7.7,0,0,0,.17.09.45.45,0,0,0-.16.14.59.59,0,0,0-.08.11.32.32,0,0,0,0,.17c0,.14.2.25.34.29a1.3,1.3,0,0,0,.43,0,.44.44,0,0,0,.1.08,1.57,1.57,0,0,0,.69.2,1.84,1.84,0,0,0,.41,0,1.35,1.35,0,0,0,.32-.09.8.8,0,0,0,.26-.17H16l-.23,0-.62,0-.31,0h-.11l.23-.1a.6.6,0,0,0,.19-.16.13.13,0,0,0-.08-.17l-.08,0,.13,0s0,.05.06.06a.7.7,0,0,0,.27.12l.13,0h.15a.29.29,0,0,0,.17-.06h0a6.29,6.29,0,0,0,.62.17.37.37,0,0,0-.22.2.38.38,0,0,0,0,.31.89.89,0,0,0,.26.25,2.2,2.2,0,0,0,.72.3,2.59,2.59,0,0,0,.4.09,2.87,2.87,0,0,0,.41.05,2.26,2.26,0,0,0,.45,0,1.71,1.71,0,0,0,.47-.12l.07,0s0,0,0,0a.22.22,0,0,1-.06.26l0,0H19c-.06,0-.07,0-.1,0h-.32L17.88,21l-.38-.05c-.12,0-.25,0-.36-.06l-.32-.07,0,0-.08-.07a.23.23,0,0,0-.14,0,.65.65,0,0,1-.15-.1.37.37,0,0,1-.07-.12,1.16,1.16,0,0,1,0-.13l-.09.12a.3.3,0,0,0,0,.17.59.59,0,0,0,.12.17s0,0,0,0a.37.37,0,0,0-.14-.14.56.56,0,0,0-.23-.06.24.24,0,0,0-.12,0l-.07-.09a.62.62,0,0,0-.19-.14l-.12,0a.33.33,0,0,0-.22,0,.24.24,0,0,0-.07.09l-.17,0-.15,0h-.16a.33.33,0,0,0-.24.13.43.43,0,0,0,0,.13.74.74,0,0,0,.08.34l0,0h-.4s0,0,0,0a.13.13,0,0,0-.06.05c0,.05,0,.06,0,.07l.11.11a1.63,1.63,0,0,1,.17.2,3.51,3.51,0,0,0,.3.45.89.89,0,0,0,.28.21l.21.07h0a.17.17,0,0,1,0,.1.65.65,0,0,1,0,.19,1.51,1.51,0,0,1-.09.18l-.08.1a.75.75,0,0,0-.07.12,1.24,1.24,0,0,0,0,.16L14.69,23a5.09,5.09,0,0,0-1-.59h0s0,0,0,0c.27.24.54.48.77.73a2,2,0,0,1,.52.75v0h0a.29.29,0,0,0,.32.12c.15,0,.23-.13.19-.22v0h0l-.06-.19a1.55,1.55,0,0,1,0-.21.81.81,0,0,1,0-.38.2.2,0,0,1,0-.08.6.6,0,0,1,.06-.11.77.77,0,0,0,.1-.25.74.74,0,0,0,0-.26.53.53,0,0,0,0-.12.28.28,0,0,0-.06-.14L15.39,22h0a.1.1,0,0,0-.11,0s-.06,0,0,.07-.06,0-.09,0L15,22a.7.7,0,0,1-.24-.13,1.74,1.74,0,0,1-.36-.4c0-.07-.12-.14-.18-.21l-.05-.06h.17l.15,0,.08,0,.05.07v0a.18.18,0,0,0,.15.06c.08,0,.15,0,.15-.11s0,0,0-.05h0a2.29,2.29,0,0,1-.08-.28.58.58,0,0,1,0-.22h.05l.16,0,.15.06h0a.36.36,0,0,0,.15,0c.1,0,.16-.08.16-.15l.09.07,0,0a.12.12,0,0,0,.14,0l.06,0h.2a.55.55,0,0,1,.23.17s0,0,0,0h0a.36.36,0,0,0,0-.1l0,0a1,1,0,0,0,.26.17l.18.08c0,.05,0,.1,0,.15a8.17,8.17,0,0,1,.14.84A8,8,0,0,1,17,23.76a2.3,2.3,0,0,1-.73,1.52,1.84,1.84,0,0,1-.9.39,1.3,1.3,0,0,1-.27,0H15l-.13,0a1.31,1.31,0,0,1-.27-.06,1.38,1.38,0,0,1-.27-.08,10,10,0,0,1-2-1,9.16,9.16,0,0,1-.85-.6,2,2,0,0,1-.56-.72,1.53,1.53,0,0,0-.67-.75,1.87,1.87,0,0,0-.67-.2l0,0H10L9.63,22h.83l-.9-.15.43-.06-.63-.11.63-.15-.52-.08a2.15,2.15,0,0,1-2.08-.26c-.34-.49.81-.51.81-.51.82,0,.74-.14.74-.14l-.78-.08.78-.05s-.29-.1-.69-.2a.8.8,0,0,1-.53-.48l.63.27a1.3,1.3,0,0,1-.4-.39,6.52,6.52,0,0,0-.63-.78c-.25-.28-.36-.23-.39-.2l.19-.18-.29-.12.45-.16L6.61,18l.49-.19H6.64l.54-.14-.7-.1.92-.22-.91-.1,1.39-.36-.8-.25.66,0L7,16.49,8,16.43a4.71,4.71,0,0,1,1.57.31,1,1,0,0,1,.36.24c.08.1.08.16.1.34a.59.59,0,0,0,.08.26.63.63,0,0,0,.39.23,4.35,4.35,0,0,0,.68.05.91.91,0,0,1,.4.05s0,0,0,.07a2.14,2.14,0,0,0-.05.23v.07a.36.36,0,0,0,0,.11.49.49,0,0,0,.1.08l.12,0h0a.87.87,0,0,1-.29.28h0l0,0a.11.11,0,0,0,0,.19.27.27,0,0,0,.3,0h.06l.11,0,.27,0a.35.35,0,0,1,.17,0s0,0,0,.07,0,.13.06.24a1.07,1.07,0,0,0,.22.19.62.62,0,0,1,.14.14,1,1,0,0,1,.1.16.2.2,0,0,1,0,.08s0,0,0,.06a.27.27,0,0,1-.11.13,1.8,1.8,0,0,1-.44.21,2,2,0,0,0-.27.12H12l0,0a.2.2,0,0,0,0,.09.22.22,0,0,0,0,.13,1.31,1.31,0,0,0,.39.35h0a1.13,1.13,0,0,0,.26,0l.23,0a1.29,1.29,0,0,0,.21-.07,1.52,1.52,0,0,1,.2-.06,2.5,2.5,0,0,1,.86,0,.05.05,0,0,0,0,0,0,0,0,0,0,0,0,3.06,3.06,0,0,0-.91-.07l-.23.06-.2.05-.2,0H12.5a1.09,1.09,0,0,1-.28-.29.25.25,0,0,1,0-.07s0,0,0,0h0l.24-.09a2.08,2.08,0,0,0,.53-.23.51.51,0,0,0,.2-.21.42.42,0,0,0,0-.25.94.94,0,0,0-.12-.22,1,1,0,0,0-.17-.19c-.08-.06-.15-.11-.15-.13a.54.54,0,0,1,0-.16.79.79,0,0,0,0-.13.29.29,0,0,0-.17-.15,1,1,0,0,0-.39-.06h0a.18.18,0,0,0,.05-.07.25.25,0,0,0,0-.1v-.08a.17.17,0,0,0-.06-.1.26.26,0,0,0-.14-.09h0s0-.11.06-.19a.3.3,0,0,0-.1-.33,1.28,1.28,0,0,0-.75-.19,4.18,4.18,0,0,1-.56,0c-.07,0,0,0-.07,0a.46.46,0,0,1,0-.15.7.7,0,0,0-.16-.49,1.43,1.43,0,0,0-.51-.36A6.55,6.55,0,0,0,7.27,16a4.86,4.86,0,0,0-2.37.77A4,4,0,0,0,3.51,18.3a2.77,2.77,0,0,0-.28.87,3.15,3.15,0,0,0,0,.44,2.28,2.28,0,0,0,0,.44,2.4,2.4,0,0,0,.35.85,3.37,3.37,0,0,0,.73.73,4.93,4.93,0,0,0,2.22.81,7.57,7.57,0,0,0,1.26,0c.42,0,.83-.05,1.24-.05a2.07,2.07,0,0,1,1.11.21,1.31,1.31,0,0,1,.56.7,2.22,2.22,0,0,0,.54.8,6.82,6.82,0,0,0,.85.65,7.59,7.59,0,0,0,1,.57,6.64,6.64,0,0,0,1.08.47,1.58,1.58,0,0,0,.31.09,1.65,1.65,0,0,0,.32.07,2.13,2.13,0,0,0,.71,0,2.27,2.27,0,0,0,1.15-.51,2.35,2.35,0,0,0,.76-1.69,7.61,7.61,0,0,0-.17-1.72A5.25,5.25,0,0,0,17,21.21Z"/><path class="cls-3" d="M10,18.22A.75.75,0,0,0,9.32,18c-.41.08-.38.73-.38.73l.21-.37s.29.26.46.14,0-.27,0-.27a.45.45,0,0,1,.43,0"/><path class="cls-3" d="M8.4,17.51a1.54,1.54,0,0,0-.84.84,6.55,6.55,0,0,1,1.8-1s-.28-.21-1,.12"/><path class="cls-3" d="M28.08,13.69l.74,0a6.09,6.09,0,0,0-1.44-.24,2.29,2.29,0,0,0-.87.18l-.86-.4a.62.62,0,0,1,.29.53l-.29.37.67-.13s.74.79.87.57-.2-.83-.2-.83.1-.11,1.09-.09"/><path class="cls-3" d="M30.94,7.59S26.1,7.73,24,9.85s-1.29,2.51-.14,2.84a2.09,2.09,0,0,0,.33.85,1.6,1.6,0,0,0,.46.43l.16.09a.23.23,0,0,1,.1,0,.47.47,0,0,1,.11.13,1.13,1.13,0,0,1-.05.82,4,4,0,0,1-.42.86,4.23,4.23,0,0,1-.3.42l0,.06a.3.3,0,0,0,0,.1.32.32,0,0,0,0,.17.49.49,0,0,0,.24.27,1.53,1.53,0,0,0,.73.23,2.06,2.06,0,0,0,.75-.08l.32,0c.11,0,.19,0,.2.06s0,0,0,0v.2l0,.26h0a.08.08,0,0,0,.09.07,4.09,4.09,0,0,0,.71-.05,2.41,2.41,0,0,0,.66-.2,1.2,1.2,0,0,0,.27-.16l.22-.18.07-.06c0,.09-.08.19-.13.28a2.48,2.48,0,0,1-.43.59,1.21,1.21,0,0,1-.3.2,2.06,2.06,0,0,0-.25.1.22.22,0,0,0-.11.12.14.14,0,0,0,0,.13.53.53,0,0,0,.09.11l.09.08a.71.71,0,0,0,.09.07.91.91,0,0,0,.26.13,1.19,1.19,0,0,0,.27.07.58.58,0,0,0-.05.14.57.57,0,0,0,.11.39l.12.16a1,1,0,0,0,.15.14,1,1,0,0,0,.41.26,1.29,1.29,0,0,0,.55.07,2.61,2.61,0,0,0,.5-.09,5.22,5.22,0,0,0,.83-.37s0,0,0,0a0,0,0,0,0,0,0,8.65,8.65,0,0,1-.87.25,2.3,2.3,0,0,1-.45.05.92.92,0,0,1-.38-.08.86.86,0,0,1-.27-.2l-.1-.14a1.21,1.21,0,0,1-.1-.14.38.38,0,0,1-.05-.25.61.61,0,0,1,.05-.12.53.53,0,0,1,.09-.11.12.12,0,0,0,0-.13.25.25,0,0,0-.27-.11h-.16a.47.47,0,0,1-.17,0l-.15-.08-.08-.05,0,0,.09,0a1.13,1.13,0,0,0,.42-.3,2,2,0,0,0,.38-.68,3.74,3.74,0,0,0,.19-.71h0s0-.07-.07-.08a.14.14,0,0,0-.14.05,1.73,1.73,0,0,1-.15.19l-.2.19a2.48,2.48,0,0,1-.45.33,2.75,2.75,0,0,1-1.16.19v-.4a.31.31,0,0,0,0-.09.32.32,0,0,0-.18-.16,1.05,1.05,0,0,0-.24-.06h-.47a1.89,1.89,0,0,1-.58,0,1.09,1.09,0,0,1-.48-.17.32.32,0,0,1-.11-.13s0-.05,0-.06h0l0-.05c.1-.12.22-.28.32-.42a4.71,4.71,0,0,0,.49-.91,2.15,2.15,0,0,0,.12-.5.89.89,0,0,0-.1-.54.65.65,0,0,0-.26-.26.75.75,0,0,0-.17-.1L25,13.7a1.56,1.56,0,0,1-.37-.31,2,2,0,0,1-.38-.84,2.68,2.68,0,0,1-.05-.69,2.8,2.8,0,0,1,1.19-1.48A14.4,14.4,0,0,0,27.94,12c-1.09-.18-2.84-.29-3.06.8,0,0,.56-1,3.25-.71a5.42,5.42,0,0,0,1.39.4,6.52,6.52,0,0,1,1.38.24l0-3Z"/><path class="cls-3" d="M30.9,12.68v.07s.1,0,0-.07"/><path class="cls-3" d="M25.81,16.56s.9.13.8,0-.8,0-.8,0"/><path class="cls-3" d="M26.62,16.1s.66.12.39.52c0,0,.64-.63-.39-.52"/><path class="cls-3" d="M21.19,21.38h0a2.88,2.88,0,0,0-.59.27,1.69,1.69,0,0,0-.7.82,3.47,3.47,0,0,0-.28.88,1.71,1.71,0,0,0,0,.45,1.48,1.48,0,0,0,.08.46,1.38,1.38,0,0,0,.29.42,1.68,1.68,0,0,0,.48.32l.31.1.3.07a4.93,4.93,0,0,0,.66.07,8,8,0,0,0,1.3-.09,7.29,7.29,0,0,0,1-.23.54.54,0,0,1,0,.18.82.82,0,0,1-.1.3.77.77,0,0,1-.23.25,1.5,1.5,0,0,1-.33.19c-.13.06-.27.1-.41.15l-.46.09-.48.05a3.77,3.77,0,0,1-.48,0l-.5,0-.5,0h-.5l-.5,0c-.34,0-.67-.05-1-.09l-1-.1a4.48,4.48,0,0,1,.1-.81,6.21,6.21,0,0,1,.26-.8,5.49,5.49,0,0,1,.9-1.49c.18-.23.41-.47.62-.7s.44-.45.68-.65a1.55,1.55,0,0,1,.37-.24.73.73,0,0,1,.4,0,4.38,4.38,0,0,1,.51.09l.08,0-.29.08m9.42,1.21a.58.58,0,0,1-.29.05.63.63,0,0,1-.37-.16,4.53,4.53,0,0,1-.38-.38c-.25-.31-.51-.68-.82-1.07a3.87,3.87,0,0,0-.56-.62,2.11,2.11,0,0,0-.93-.43,4,4,0,0,0-1.09-.09c-.35,0-.69.05-1,.09a6.53,6.53,0,0,0-.94.18,3.86,3.86,0,0,0-.77.29,4.38,4.38,0,0,0-.92.64,2.36,2.36,0,0,0-.25.29l-.09,0v0a.77.77,0,0,0-.53-.43,3.55,3.55,0,0,0-.65-.13,1.47,1.47,0,0,0-.77.08,2.23,2.23,0,0,0-.51.32,6.6,6.6,0,0,0-.7.7c-.22.25-.41.48-.6.74a5.28,5.28,0,0,0-.48.78c-.06.13-.13.26-.18.4s-.09.28-.13.41a3.65,3.65,0,0,0-.1,1.67v0h0l1,.2c.16,0,.32.07.49.09l.51.06.5.07.51,0,.52,0h.52a3,3,0,0,0,.52,0l.53-.05.52-.1c.17-.06.34-.1.5-.17a1.51,1.51,0,0,0,.42-.27,1.14,1.14,0,0,0,.29-.34,1.09,1.09,0,0,0,.08-.39.87.87,0,0,0-.08-.38h0c.46-.11.9-.24,1.34-.37l.06.07a1,1,0,0,0,.21.19,3.48,3.48,0,0,0,.48.3l.53.23.27.11.29.09a5.19,5.19,0,0,0,1.24.21A4.62,4.62,0,0,0,30,25.44a9.07,9.07,0,0,1-1.19-.11,8.1,8.1,0,0,1-1.08-.28l-.26-.1-.25-.1-.49-.22a4.6,4.6,0,0,1-.44-.25l-.18-.13-.06-.07s0-.05,0,0L25.71,24c-.48.21-.94.42-1.39.67l0-.1-.18.07A8.09,8.09,0,0,1,23,25a6.36,6.36,0,0,1-1.24.13,4.2,4.2,0,0,1-.61-.06L20.8,25l-.26-.1a1.56,1.56,0,0,1-.43-.3.84.84,0,0,1-.21-.38,1,1,0,0,1,0-.42,1.56,1.56,0,0,1,.08-.42,4.49,4.49,0,0,1,.35-.82,1.41,1.41,0,0,1,.25-.37,1.63,1.63,0,0,1,.38-.3,2.11,2.11,0,0,1,.48-.21,2.59,2.59,0,0,1,.53-.1l.29,0,0-.14.31,0c.27,0,.65,0,1.1,0s1,0,1.51.06a7.58,7.58,0,0,1,.81.13,2.48,2.48,0,0,1,.39.1,1.42,1.42,0,0,1,.36.14A2.81,2.81,0,0,1,27,22l.33.19c.21.13.43.26.62.4.39.28.75.55,1.08.77a3.65,3.65,0,0,0,.88.47,1.13,1.13,0,0,0,.3.07h.11l-.1,0a1,1,0,0,1-.26-.1,3.71,3.71,0,0,1-.71-.56c-.28-.24-.59-.54-1-.84a6.16,6.16,0,0,0-.62-.44,4.05,4.05,0,0,0-.35-.21c-.12-.06-.23-.14-.38-.2a2.85,2.85,0,0,0-.44-.16,3.28,3.28,0,0,0-.45-.11,7.13,7.13,0,0,0-.9-.11,10,10,0,0,0-1.59.05,10.84,10.84,0,0,0-1.15.19l.27-.15a10.55,10.55,0,0,1,1-.5,6.34,6.34,0,0,1,.71-.26c.26-.09.53-.2.83-.28a3.71,3.71,0,0,1,1-.16,2.48,2.48,0,0,1,1,.15,2.06,2.06,0,0,1,.69.45,2.83,2.83,0,0,1,.44.59,5.79,5.79,0,0,0,.93,1.08,2.45,2.45,0,0,0,.53.38,1.09,1.09,0,0,0,.61.13.79.79,0,0,0,.34-.14l.07-.08,0,0Z"/><path class="cls-3" d="M2.24,2h0l-.18-.6C2,1.25,2,1.05,1.92.88h0c0,.18-.09.38-.14.54L1.58,2Zm-.71.21-.23.71H.92L1.7.58h.44l.77,2.36H2.52l-.23-.71Z"/><path class="cls-3" d="M3.68,2.32h0a.61.61,0,0,0,0,.14.38.38,0,0,0,.37.29c.33,0,.43-.31.43-.66s-.12-.64-.44-.64a.38.38,0,0,0-.36.31.53.53,0,0,0,0,.13Zm-.39-.55a5.24,5.24,0,0,0,0-.53h.36l0,.22h0a.61.61,0,0,1,.52-.24c.43,0,.72.31.72.87A.77.77,0,0,1,4.12,3a.49.49,0,0,1-.43-.2h0v.85H3.29Z"/><path class="cls-3" d="M5.33,1.68c0-.14,0-.31,0-.44h.35l0,.27h0a.59.59,0,0,1,.52-.29h.08V1.5H6.21a.46.46,0,0,0-.47.36.68.68,0,0,0,0,.15v.94H5.33Z"/><path class="cls-3" d="M6.6,2.94h0V1.24H7v1.7ZM7,.81c0,.1-.1.17-.24.17S6.56.91,6.56.81s.1-.18.23-.18S7,.7,7,.81Z"/><path class="cls-3" d="M8.6,1.92h0c0-.34-.18-.49-.37-.49s-.39.26-.41.49Zm-.78.2c0,.52.3.63.59.63a1.12,1.12,0,0,0,.41-.07l.06.2A1.5,1.5,0,0,1,8.34,3a.8.8,0,0,1-.91-.85.81.81,0,0,1,.84-.89A.68.68,0,0,1,9,2a.66.66,0,0,1,0,.15Z"/><path class="cls-3" d="M9.88.8v.44h.48v.21H9.88v1c0,.22.12.28.26.28h.16v.21L10,3a.62.62,0,0,1-.39-.1c-.09-.07-.14-.19-.14-.43v-1H9.18V1.24h.31V.87Z"/><path class="cls-3" d="M11.63,2.07h0c-.21,0-.69,0-.69.39a.29.29,0,0,0,.31.3.37.37,0,0,0,.37-.26.28.28,0,0,0,0-.09Zm0,.87,0-.18h0a.62.62,0,0,1-.49.21c-.33,0-.59-.19-.59-.48s.5-.62,1.06-.62V1.82c0-.23-.09-.39-.4-.39a1.07,1.07,0,0,0-.41.09l-.09-.19a1.56,1.56,0,0,1,.58-.11c.5,0,.72.22.72.6v.74a2.3,2.3,0,0,0,0,.38Z"/><path class="cls-3" d="M14.58,2.9a1.11,1.11,0,0,1-.41.06.81.81,0,0,1-.91-.86.89.89,0,0,1,1-.88,1.08,1.08,0,0,1,.35.05l-.08.22a1.21,1.21,0,0,0-.28,0,.58.58,0,0,0-.57.65.56.56,0,0,0,.58.64.93.93,0,0,0,.29-.05Z"/><path class="cls-3" d="M16.42,2.48c0,.19,0,.34,0,.46H16.1l0-.18h0a.71.71,0,0,1-.53.21c-.44,0-.61-.23-.61-.65V1.24h.4v1c0,.27.06.46.33.46A.34.34,0,0,0,16,2.52a.41.41,0,0,0,0-.16V1.24h.39Z"/><path class="cls-3" d="M17.89,2.07h0c-.2,0-.68,0-.68.39a.29.29,0,0,0,.31.3.35.35,0,0,0,.36-.26.28.28,0,0,0,0-.09Zm.06.87,0-.18h0a.62.62,0,0,1-.49.21c-.33,0-.59-.19-.59-.48s.5-.62,1.05-.62V1.82c0-.23-.08-.39-.39-.39a1.07,1.07,0,0,0-.41.09L17,1.33a1.56,1.56,0,0,1,.58-.11c.5,0,.71.22.71.6v.74a1.54,1.54,0,0,0,0,.38Z"/><rect class="cls-3" x="18.84" y="0.51" width="0.39" height="2.43"/><path class="cls-3" d="M20.91,1.88h0a.37.37,0,0,0,0-.11.37.37,0,0,0-.36-.32c-.32,0-.44.29-.44.65s.13.65.43.65a.36.36,0,0,0,.36-.29.34.34,0,0,0,0-.14Zm0,.89h0a.59.59,0,0,1-.48.2c-.4,0-.72-.3-.72-.85a.8.8,0,0,1,.78-.9.53.53,0,0,1,.46.22h0l0-.2h.36c0,.12,0,.28,0,.53V3.62h-.4Z"/><path class="cls-3" d="M23.34,2.48c0,.19,0,.34,0,.46H23l0-.18h0a.73.73,0,0,1-.53.21c-.44,0-.61-.23-.61-.65V1.24h.4v1c0,.27.06.46.33.46a.34.34,0,0,0,.35-.22.41.41,0,0,0,0-.16V1.24h.4Z"/><path class="cls-3" d="M23.89,2.94h0V1.24h.39v1.7ZM24.32.81c0,.1-.1.17-.24.17s-.23-.07-.23-.17.1-.18.23-.18S24.32.7,24.32.81Z"/><path class="cls-3" d="M25.89,1.92h0c0-.34-.18-.49-.37-.49s-.39.26-.41.49Zm-.78.2c0,.52.3.63.59.63a1.12,1.12,0,0,0,.41-.07l.06.2a1.5,1.5,0,0,1-.54.08.8.8,0,0,1-.91-.85.81.81,0,0,1,.84-.89.68.68,0,0,1,.71.75.66.66,0,0,1,0,.15Z"/><path class="cls-3" d="M26.68,1.68c0-.14,0-.31,0-.44H27l0,.27h0a.59.59,0,0,1,.52-.29h.08V1.5h-.08a.47.47,0,0,0-.48.36.71.71,0,0,0,0,.15v.94h-.4Z"/><path class="cls-3" d="M1.37,5.25h0c0,.28.07.66.43.66s.4-.4.4-.66-.06-.66-.41-.66-.42.4-.42.66m1.23,0a.79.79,0,0,1-.82.88A.78.78,0,0,1,1,5.25a.8.8,0,0,1,.83-.88A.78.78,0,0,1,2.6,5.25Z"/><path class="cls-3" d="M3.43,5.5h0a.37.37,0,0,0,0,.11.39.39,0,0,0,.37.29c.32,0,.43-.29.43-.65s-.12-.65-.43-.65a.4.4,0,0,0-.37.31.49.49,0,0,0,0,.12ZM3,6.1c0-.1,0-.29,0-.41v-2h.4V4.6h0A.61.61,0,0,1,4,4.37c.39,0,.68.31.68.86s-.37.9-.76.9a.54.54,0,0,1-.49-.25h0l0,.22Z"/><path class="cls-3" d="M4.66,6.59h0A.64.64,0,0,0,5,6.46c.09-.1.12-.22.12-.55V4.4h.4V6a.68.68,0,0,1-.26.65,1,1,0,0,1-.54.16ZM5.54,4c0,.11-.09.18-.24.18S5.07,4.07,5.08,4s.09-.17.23-.17S5.54,3.86,5.54,4Z"/><path class="cls-3" d="M7.1,5.08h0c0-.34-.18-.5-.37-.5s-.39.26-.41.5Zm-.78.2c0,.52.3.63.59.63a1.12,1.12,0,0,0,.41-.07l.06.2a1.75,1.75,0,0,1-.54.08.79.79,0,0,1-.9-.85.81.81,0,0,1,.83-.9.68.68,0,0,1,.71.75.76.76,0,0,1,0,.16Z"/><path class="cls-3" d="M8.38,4V4.4h.48v.21H8.38v1c0,.22.12.28.26.28H8.8l0,.2a1.21,1.21,0,0,1-.3,0A.63.63,0,0,1,8.14,6C8,5.94,8,5.83,8,5.59v-1h-.3V4.4H8V4Z"/><path class="cls-3" d="M9.45,5.25h0c0,.28.07.66.43.66s.41-.4.41-.66-.07-.66-.42-.66-.42.4-.42.66m1.24,0a.8.8,0,0,1-.83.88.78.78,0,0,1-.8-.88.8.8,0,0,1,.83-.88A.78.78,0,0,1,10.69,5.25Z"/><path class="cls-3" d="M13.14,6.06a1.37,1.37,0,0,1-.41.06.81.81,0,0,1-.91-.86.89.89,0,0,1,1-.88,1.13,1.13,0,0,1,.35,0l-.08.22a.77.77,0,0,0-.28-.05.59.59,0,0,0-.58.66.57.57,0,0,0,.59.64.82.82,0,0,0,.28-.05Z"/><path class="cls-3" d="M13.73,5.25h0c0,.28.07.66.43.66s.4-.4.4-.66-.06-.66-.41-.66-.42.4-.42.66m1.23,0a.79.79,0,0,1-.82.88.78.78,0,0,1-.81-.88.8.8,0,0,1,.83-.88A.78.78,0,0,1,15,5.25Z"/><rect class="cls-3" x="15.4" y="3.67" width="0.39" height="2.43"/><path class="cls-3" d="M16.66,5.25h0c0,.28.08.66.44.66s.4-.4.4-.66-.07-.66-.41-.66-.43.4-.43.66m1.24,0a.8.8,0,0,1-.82.88.78.78,0,0,1-.81-.88.8.8,0,0,1,.83-.88A.78.78,0,0,1,17.9,5.25Z"/><path class="cls-3" d="M19.55,6.06a1.37,1.37,0,0,1-.41.06.81.81,0,0,1-.91-.86.89.89,0,0,1,1-.88,1.08,1.08,0,0,1,.35,0l-.08.22a.77.77,0,0,0-.28-.05.59.59,0,0,0-.58.66.57.57,0,0,0,.59.64.82.82,0,0,0,.28-.05Z"/><path class="cls-3" d="M20.82,5.22h0c-.2,0-.68,0-.68.4a.28.28,0,0,0,.3.3.36.36,0,0,0,.37-.26.28.28,0,0,0,0-.09Zm.06.88,0-.18h0a.65.65,0,0,1-.5.21.52.52,0,0,1-.58-.49c0-.42.49-.61,1-.61V5c0-.22-.08-.38-.39-.38a.86.86,0,0,0-.41.09l-.09-.19a1.29,1.29,0,0,1,.58-.12c.49,0,.71.23.71.61v.73a1.63,1.63,0,0,0,0,.39Z"/><path class="cls-3" d="M22.86,5.05h0V4.94a.39.39,0,0,0-.37-.34c-.33,0-.44.32-.44.66s.13.64.42.64a.38.38,0,0,0,.38-.29.37.37,0,0,0,0-.11Zm.39-1.38v2c0,.12,0,.31,0,.41h-.34l0-.21h0a.6.6,0,0,1-.51.24c-.42,0-.73-.31-.73-.87s.37-.89.75-.89a.52.52,0,0,1,.45.21h0V3.67Z"/><path class="cls-3" d="M24.09,5.25h0c0,.28.07.66.43.66s.4-.4.4-.66-.06-.66-.41-.66-.42.4-.42.66m1.23,0a.79.79,0,0,1-.82.88.78.78,0,0,1-.81-.88.8.8,0,0,1,.83-.88A.78.78,0,0,1,25.32,5.25Z"/><path class="cls-3" d="M2.14,8.23h0c0-.34-.18-.49-.37-.49s-.39.26-.41.49Zm-.78.2c0,.52.3.63.59.63A1.09,1.09,0,0,0,2.35,9l.07.2a1.77,1.77,0,0,1-.55.08A.8.8,0,0,1,1,8.43a.82.82,0,0,1,.84-.9.68.68,0,0,1,.7.75v.15Z"/><path class="cls-3" d="M2.94,8c0-.2,0-.3,0-.44h.34l0,.2h0a.74.74,0,0,1,.57-.23.54.54,0,0,1,.6.59V9.26h-.4V8.16c0-.2,0-.4-.34-.4A.37.37,0,0,0,3.35,8a.61.61,0,0,0,0,.15V9.26H2.94Z"/><path class="cls-3" d="M5.75,9a1,1,0,0,0,.39.08c.23,0,.37-.09.37-.24s-.07-.22-.32-.33S5.7,8.2,5.7,8s.29-.47.68-.47a1.16,1.16,0,0,1,.44.09l-.11.2a.79.79,0,0,0-.32-.07c-.22,0-.33.1-.33.21s.07.18.31.3.51.28.51.51-.34.51-.74.51a1.15,1.15,0,0,1-.49-.1Z"/><path class="cls-3" d="M8.78,8.79c0,.19,0,.34,0,.47H8.45l0-.18h0a.78.78,0,0,1-.54.21c-.43,0-.6-.24-.6-.66V7.56h.4v1c0,.27.06.47.33.47a.34.34,0,0,0,.35-.23.36.36,0,0,0,0-.15V7.56h.4Z"/><path class="cls-3" d="M10.13,8c0-.2,0-.3,0-.44h.34l0,.21h0A.69.69,0,0,1,11,7.53a.54.54,0,0,1,.52.26h0a.67.67,0,0,1,.25-.19.71.71,0,0,1,.34-.07.54.54,0,0,1,.59.6V9.26h-.39V8.19c0-.22,0-.43-.34-.43a.38.38,0,0,0-.37.25.81.81,0,0,0,0,.16V9.26h-.39V8.15c0-.19-.05-.39-.35-.39a.36.36,0,0,0-.36.27.77.77,0,0,0,0,.15V9.26h-.39Z"/><path class="cls-3" d="M14.23,8.38h0c-.21,0-.69,0-.69.39a.29.29,0,0,0,.31.3.34.34,0,0,0,.36-.25.18.18,0,0,0,0-.1Zm0,.88,0-.18h0a.62.62,0,0,1-.49.21.53.53,0,0,1-.59-.49c0-.42.5-.61,1.05-.62v0c0-.23-.08-.39-.39-.39a1.07,1.07,0,0,0-.41.09l-.09-.19a1.56,1.56,0,0,1,.58-.11c.5,0,.71.23.71.61v.73a1.63,1.63,0,0,0,0,.39Z"/><path class="cls-3" d="M15.17,8c0-.2,0-.3,0-.44h.34l0,.2h0a.74.74,0,0,1,.57-.23.54.54,0,0,1,.6.59V9.26h-.4V8.16c0-.2-.05-.4-.34-.4a.37.37,0,0,0-.37.28.61.61,0,0,0,0,.15V9.26h-.39Z"/><path class="cls-3" d="M17.52,8.41h0c0,.28.08.66.43.66s.41-.4.41-.66-.07-.66-.42-.66-.42.4-.42.66m1.24,0a.8.8,0,0,1-.83.88.78.78,0,0,1-.8-.88A.8.8,0,0,1,18,7.53.78.78,0,0,1,18.76,8.41Z"/></svg>