<svg id="Capa_1" data-name="Capa 1" xmlns="http://www.w3.org/2000/svg" viewBox="0 0 32 27.52"><defs><style>.cls-1{fill:#ffda15;}.cls-2{fill:#b3d335;}.cls-3{fill:#f5a4c7;}.cls-4{fill:#fccdb5;}.cls-5{fill:#231f20;}</style></defs><title>5-1mes</title><path class="cls-1" d="M12.22,17.44l11.6-6.27,2.58.58.16,1.73-6.5,8.15s-8.67-1.5-7.84-4.19"/><polygon class="cls-2" points="31.3 6.11 25.33 10.9 23.7 11.14 25.5 11.87 26.95 13.33 26.99 11.81 31.39 8.27 31.39 6.02 31.3 6.11"/><path class="cls-3" d="M23.23,25l2.88-5.15s2.15-.25,2.39.07,1,1.1,1,1.1l.09,3.8s.85.18.74.57-2.34.82-2.34.82a10.56,10.56,0,0,1-3.27-.13c-.77-.36-1.68-.34-1.48-1.08"/><path class="cls-4" d="M31.55,20.71a5.56,5.56,0,0,0-3,.41,2.9,2.9,0,0,0-1.19,3.17,1.36,1.36,0,0,0,2,.8,24.11,24.11,0,0,0,2.18-1.55l.15-4.18a12.27,12.27,0,0,0-2.34,1c-.2.28-.19.36.1.32Z"/><path class="cls-4" d="M15.8,24.25s-2.05-.21-2.88-.37a8.58,8.58,0,0,1-3.41-2.43c-.48-.76.87-3,1.75-3.68a3.56,3.56,0,0,1,3.06-.52c1,.26,1.87,1.15,2.69,1.09a4,4,0,0,1,2.42,1.14,1.38,1.38,0,0,1,.13,1.32,1.31,1.31,0,0,1-.31.59l3-1.13a1,1,0,0,1,.64-1,2.36,2.36,0,0,1,1.76-.32,2.7,2.7,0,0,1,1.6.84,1.11,1.11,0,0,1,.32,1.05,17.85,17.85,0,0,1-1.51,3.27,3.66,3.66,0,0,1-1.61.92c-.33,0-2.35-.49-2.7-.24s-1,1.1-1.43,1.2A3.34,3.34,0,0,1,17,25.57c-.72-.54-.67-.74-.72-.87a1.27,1.27,0,0,0-.49-.45"/><polygon class="cls-5" points="12.72 16.93 12.92 16.83 13.32 17.18 13.12 17.28 12.72 16.93"/><path class="cls-5" d="M21.87,12h0l.71-.38L23,12l-.72.38Zm-1.43.78h0l.72-.39.4.35-.71.39ZM19,13.53h0l.71-.39.4.35-.71.39Zm-1.43.77h0l.71-.39.41.35-.72.39Zm-1.43.77h0l.72-.39.4.35-.71.39Zm-1.42.77h0l.71-.38.4.35-.71.38Zm-1.43.77.71-.38.41.35-.72.38Z"/><polygon class="cls-5" points="23.52 11.09 23.72 10.98 24.13 11.33 23.93 11.44 23.52 11.09"/><polygon class="cls-5" points="20.51 20.39 20.63 20.23 21.2 20.45 21.08 20.61 20.51 20.39"/><path class="cls-5" d="M25.42,14.35h0l.46-.56.56.22-.45.55Zm-.9,1.11h0L25,14.9l.57.22-.46.56Zm-.91,1.12h0l.45-.56.57.22-.45.56ZM22.7,17.7h0l.45-.56.57.21-.45.56Zm-.91,1.11h0l.46-.56.56.22-.45.56Zm-.9,1.12.45-.56.57.22-.46.55Z"/><polygon class="cls-5" points="26.38 13.17 26.5 13.02 27.07 13.23 26.95 13.38 26.38 13.17"/><path class="cls-5" d="M31.73,23.45h0l-.14.09c-.3.2-.6.4-.89.61l-.86.65c.36-.16.7-.33,1-.51s.55-.29.82-.44l0,0Z"/><path class="cls-5" d="M16.77,26.34h0c-.37,0-.74.06-1.11.08l-1.13,0c-.75,0-1.5,0-2.26-.07L10,26.24a32.25,32.25,0,0,1-4.39-.64c-1.42-.3-2.84-.62-4.2-1,.34-.42.68-.84,1-1.26s.75-.86,1.11-1.3a26.79,26.79,0,0,0,1.84-2.65l.83,0h.47l.47,0c.31,0,.62.05.93.1a1.85,1.85,0,0,1,.42.11l.09,0a2.69,2.69,0,0,0-.21.81h0a1.7,1.7,0,0,0,0,.22l-1.24-.36L8.37,21a2.45,2.45,0,0,0,.78,1.49L8,22.7l1.39,0a5,5,0,0,0,.52.39L8,24l2.22-.54-.06-.08a3.84,3.84,0,0,0,.54.35,6,6,0,0,0,1.53.66l.42.11.24,1,.22-.95c.26,0,.53.07.8.09l0,0,.53.29-.05-.29h.08a14,14,0,0,0,1.63.1l-.81-.14.5-.07v0l-.42,0,.43-.14-.95-.13.72-.13L15,24l.14,0,.17-.08a.43.43,0,0,0,.12-.11.23.23,0,0,0,.08-.13.39.39,0,0,0,0,.15.47.47,0,0,0,0,.17,1.19,1.19,0,0,0,.08.16.89.89,0,0,0,.56.4h0a.39.39,0,0,0,0,.24,1.28,1.28,0,0,0,.34.55l.08.09.08.07.23.16a2.72,2.72,0,0,0,.57.25,3.56,3.56,0,0,0,.68.14l.25,0-.54.11c-.37.06-.73.12-1.11.15M18.42,23h0s0,0,0,0Zm0,0h0S18.41,23,18.42,23Zm13.31-3.68-.66.14a4.27,4.27,0,0,0-.77.3,4.19,4.19,0,0,0-.91.63c-.06-.06-.11-.13-.18-.19a3.27,3.27,0,0,0-.36-.25,3,3,0,0,0-.45-.18,2.56,2.56,0,0,0-.48-.1l-.25,0h-.24c-.17,0-.32,0-.48,0l-.45.1,0,0,.45,0a3.39,3.39,0,0,1,.45,0,1.85,1.85,0,0,1,.41.07,2,2,0,0,1,.37.12,1.46,1.46,0,0,1,.68.56l-.2.06a1.26,1.26,0,0,0-.31.14l-.12.06-.13.09a3,3,0,0,0-.74.72,2.68,2.68,0,0,0-.44.81,2.47,2.47,0,0,0-.11.43,2.17,2.17,0,0,0,0,.44,2.1,2.1,0,0,0,.05.43,2.54,2.54,0,0,0,.15.44l.11.19.06.1.07.1a2.59,2.59,0,0,0,.37.37,1.9,1.9,0,0,0,.53.28,1.82,1.82,0,0,0,.66.09A2.92,2.92,0,0,0,29.89,25a.9.9,0,0,1,.3.22.19.19,0,0,1-.05.29,1.19,1.19,0,0,1-.44.18,4.52,4.52,0,0,1-.53.11l-.55.07a5.66,5.66,0,0,1-.57,0c-.19,0-.38,0-.57,0s-.37,0-.56,0h-.55c-.19,0-.37,0-.56,0L25.27,26c-.18,0-.35-.06-.53-.09l-.5-.14a3.76,3.76,0,0,1-.46-.2l-.23-.12a1.09,1.09,0,0,1-.17-.13.28.28,0,0,1-.08-.21l.1,0a1.27,1.27,0,0,0,.35,0A1.6,1.6,0,0,0,24,25a2.09,2.09,0,0,0,.45-.22,4.7,4.7,0,0,0,1.33-1.21,5.92,5.92,0,0,0,.45-.7,4.24,4.24,0,0,0,.29-.71c.07-.24.12-.46.16-.67a3.64,3.64,0,0,0,.08-.62,1,1,0,0,0-.34-.9.94.94,0,0,0-.32-.14l-.12,0a1,1,0,0,1,.37.22c.18.17.18.48.11.84a8,8,0,0,1-.38,1.23,4,4,0,0,1-.32.66,4.66,4.66,0,0,1-.43.66,5.36,5.36,0,0,1-1.18,1.15,3.13,3.13,0,0,1-.36.19,2.55,2.55,0,0,1-.29.1l-.11,0h0l-.06,0a1.06,1.06,0,0,0-.23-.05,3.87,3.87,0,0,0-.45-.05,10.63,10.63,0,0,0-1.34,0l-.25,0a1.83,1.83,0,0,0,.26-.55l-.05,0-.21.16c-.13.11-.31.26-.51.45l-.31.3c-.1.11-.19.24-.3.36a1,1,0,0,1-.42.32,1.37,1.37,0,0,1-.61.09,4.46,4.46,0,0,1-1.63-.48,1.14,1.14,0,0,1-.19-.1l-.1-.06-.08-.06a3.87,3.87,0,0,1-.51-.41.54.54,0,0,1-.13-.18l.07,0a.7.7,0,0,1-.49-.47.83.83,0,0,1,0-.15.81.81,0,0,1,0-.15.7.7,0,0,1,0-.29.46.46,0,0,1,.13-.21v0l0,.16a1.54,1.54,0,0,0,.05.17.82.82,0,0,0,.11.17.43.43,0,0,0,.25.16l.28.09-.06-.22a1.6,1.6,0,0,1-.09-.68.42.42,0,0,1,0-.16l.05-.07.07-.05a.14.14,0,0,1,.11,0l-.05.07a.64.64,0,0,0-.07.59.92.92,0,0,0,.16.24l.05-.25a1.42,1.42,0,0,1,.18-.48.54.54,0,0,1,.09-.12.76.76,0,0,1,.09-.09l.14-.08a.25.25,0,0,0,0,.07.8.8,0,0,0,0,.6,1,1,0,0,0,.12.26l0-.07.06-.19a3.23,3.23,0,0,1,.18-.52.43.43,0,0,1,.12-.17h0l0,0,.05,0s0,0,0,0a.26.26,0,0,1,.12,0l.12,0a.84.84,0,0,0-.25.17,1,1,0,0,0-.16.23.57.57,0,0,0,0,.37l.07.13h.05l.08-.12a2.18,2.18,0,0,1,.22-.25,1.07,1.07,0,0,1,.16-.14l.12-.08a.61.61,0,0,1,0,.14.6.6,0,0,1-.05.26c0,.09-.07.18-.11.27a.4.4,0,0,0,0,.15V24l0,.06a.93.93,0,0,0,.1.2,1.54,1.54,0,0,0,.26.29.71.71,0,0,0,.13.09h0a.38.38,0,0,0,0-.13.84.84,0,0,0,0-.33l0-.07.06,0a2.72,2.72,0,0,1,.66,0,1.07,1.07,0,0,1,.33.07.61.61,0,0,1,.24.14.76.76,0,0,1,.16.19.59.59,0,0,0-.09-.22.58.58,0,0,0-.21-.2,1,1,0,0,0-.37-.15,3.18,3.18,0,0,0-1-.07l0,0a.29.29,0,0,1,0-.24,1.18,1.18,0,0,1,.17-.24.43.43,0,0,0,.14-.3v-.1a.31.31,0,0,0-.2-.15.58.58,0,0,0-.38,0,.29.29,0,0,0-.11-.11.41.41,0,0,0-.22-.08h-.16l-.13,0a.32.32,0,0,0-.13.08h-.06a.77.77,0,0,0-.44.08,1.09,1.09,0,0,0-.17.13v0l0,0a.25.25,0,0,0-.17,0,.3.3,0,0,0-.14.06.36.36,0,0,0-.09.08.62.62,0,0,0-.11.19.13.13,0,0,0,0,.06.36.36,0,0,0-.14-.14.29.29,0,0,0-.14,0h-.14l-.15.08a.67.67,0,0,0-.2.35.5.5,0,0,0,0,.17s0-.07,0-.09a.33.33,0,0,0-.13-.15.44.44,0,0,0-.17-.08.56.56,0,0,1,.08.11.15.15,0,0,1-.08.23l-.11.05-.12,0a2.32,2.32,0,0,1-.31,0,5.94,5.94,0,0,1-.72,0,2,2,0,0,1-.35-.06,1.27,1.27,0,0,1-.31-.08l-.11,0-.06,0h0s0,0,0,0h0a.19.19,0,0,1-.07-.13c0-.09.14-.18.23-.23l.15-.07a.76.76,0,0,0-.2,0h0a3.56,3.56,0,0,1,.87-.11,7.73,7.73,0,0,1-1.15-.12l1.19-.08a6.42,6.42,0,0,1-.78-.07c-.52-.08-1.2-1-1.2-1l.9.62s-.24-.41-.52-.84S11.17,21,11.17,21a5.92,5.92,0,0,0,.75-.18l-.75-.13.55-.25L11,20.39l1.47-.6H11l1.22-.38h-.85L12.67,19l-1.26-.06a14.44,14.44,0,0,0,2.09-.57H11.58a7.81,7.81,0,0,0,2.06-.77l-1.08,0,.7-.31a7.92,7.92,0,0,0-1.51.25,6.26,6.26,0,0,1,1.37-.35,3.46,3.46,0,0,1,1.64.19,3.31,3.31,0,0,1,.67.37c.21.13.37.3.61.44a2.08,2.08,0,0,0,.87.23,7,7,0,0,1,.84.07,1.87,1.87,0,0,1,.62.33,2.76,2.76,0,0,1,.55.43,1.93,1.93,0,0,1,.42,1.07,1.28,1.28,0,0,1-.05.55,1,1,0,0,1-.3.48l-.71.55.93-.33a18.44,18.44,0,0,0,1.8-.79,8.69,8.69,0,0,1,1.21-.47l0,0a.34.34,0,0,0,.19,0,.69.69,0,0,0,.21-.09l.07,0,.15,0v0h0A.74.74,0,0,0,23,20a.09.09,0,0,1,0,.05,1.27,1.27,0,0,0,0,.27.31.31,0,0,0,.12.17.36.36,0,0,0,.2,0,.84.84,0,0,0,.14,0,.65.65,0,0,0,.15-.1.46.46,0,0,0,.1-.1s0,.07.05.1a.36.36,0,0,0,.16.17.34.34,0,0,0,.19,0,.42.42,0,0,0,.18,0l.09-.05.09-.08.07-.13a0,0,0,0,0,0,0,.38.38,0,0,0,.16.14.35.35,0,0,0,.16,0,.38.38,0,0,0,.15-.05.53.53,0,0,0,.14-.12.58.58,0,0,0,.08-.23.56.56,0,0,1,.05.08.33.33,0,0,0,.29.15.22.22,0,0,0,.15-.08.43.43,0,0,0,.09-.1.4.4,0,0,0,.1-.22.54.54,0,0,0-.22-.43.48.48,0,0,1,.17.43.42.42,0,0,1-.1.2.76.76,0,0,1-.09.09.21.21,0,0,1-.12.05c-.07,0-.13-.06-.18-.12a2,2,0,0,1-.1-.21,4.16,4.16,0,0,1-.12-.44h0a.08.08,0,0,0-.09,0c-.05,0-.08,0-.07.06h0A1.28,1.28,0,0,1,25,20a.42.42,0,0,1-.08.23.21.21,0,0,1-.1.08h0s0,0,0,0-.05,0-.07-.07a.75.75,0,0,1-.07-.12,1.83,1.83,0,0,1-.08-.25s0-.05,0-.08a2.61,2.61,0,0,0-.08-.46.16.16,0,0,0-.14-.07c-.08,0-.13.05-.12.1a2,2,0,0,0,.07.35,1.7,1.7,0,0,1,0,.22.84.84,0,0,1,0,.27l-.07.11,0,0-.08,0s0,0,0,0h0s-.05,0-.07-.08a1.14,1.14,0,0,1-.09-.26,1.43,1.43,0,0,1,0-.29,2,2,0,0,0,0-.25v0h0s-.08-.09-.16-.09-.15.05-.15.1,0,.07,0,.11a1.08,1.08,0,0,1,0,.36.68.68,0,0,1-.1.21.6.6,0,0,1-.08.08.28.28,0,0,1-.09.07l0,0a1.48,1.48,0,0,1,0-.22,2.65,2.65,0,0,1,.07-.48s0-.09-.09-.1-.15,0-.17.05a1.55,1.55,0,0,1-.42.47l-.14.09-.13.06a.25.25,0,0,1,0-.08.88.88,0,0,1,.12-.26,1.51,1.51,0,0,1,.21-.23c.18-.14.4-.27.6-.42a.56.56,0,0,1,.29-.16,2.38,2.38,0,0,1,.4-.07,4.63,4.63,0,0,1,.83,0,1.91,1.91,0,0,1,.74.25,3.11,3.11,0,0,1,.56.44,2.63,2.63,0,0,0-.52-.47,1.92,1.92,0,0,0-.76-.29,3.58,3.58,0,0,0-.87-.05,2.28,2.28,0,0,0-.44.05,1,1,0,0,0-.37.19c-.19.14-.42.26-.62.41a1.28,1.28,0,0,0-.26.26,1.64,1.64,0,0,0-.16.29.36.36,0,0,0,0,.18v0l-.29.07a6.12,6.12,0,0,0-1,.32q-.6.26-1.23.48a1.62,1.62,0,0,0,.16-.8,1.88,1.88,0,0,0-.51-1.22,2.89,2.89,0,0,0-.64-.46,2.27,2.27,0,0,0-.8-.34,4.79,4.79,0,0,0-.91,0,1.81,1.81,0,0,1-.76-.16,8.34,8.34,0,0,0-1.33-.79,3.62,3.62,0,0,0-1.74-.23,6.93,6.93,0,0,0-1.7.37,6.48,6.48,0,0,0-1.47.72,4,4,0,0,0-1.08,1,4,4,0,0,0-.2.35.09.09,0,0,0-.05,0,1.67,1.67,0,0,0-.44-.17,7.53,7.53,0,0,0-1-.16l-.48,0H6.24l-1,0a.21.21,0,0,0-.18.08h0c-.62.91-1.28,1.8-1.88,2.72s-1.27,1.81-2,2.68h0s0,.06,0,.07c.69.22,1.39.42,2.08.63s1.41.41,2.13.58,1.45.34,2.2.47l1.12.17c.38.05.76.09,1.15.12,1.52.1,3,.17,4.58.13a15.85,15.85,0,0,0,2.29-.21,11.23,11.23,0,0,0,1.88-.46l.2,0a2.63,2.63,0,0,0,.67-.18c.21-.09.38-.2.55-.29a3.35,3.35,0,0,0,.46-.31A3,3,0,0,0,20.9,25l.12-.16h.28a12.61,12.61,0,0,1,1.29.1L23,25l.18.05h0a.33.33,0,0,0,0,.32.61.61,0,0,0,.17.19l.19.16a3.39,3.39,0,0,0,1,.49,7.17,7.17,0,0,0,2.4.26,11.22,11.22,0,0,0,1.18-.12l.58-.1.57-.13a5.05,5.05,0,0,0,.55-.18,1.74,1.74,0,0,0,.5-.28.32.32,0,0,0,.05-.46,1.2,1.2,0,0,0-.44-.31.13.13,0,0,0-.12,0h0a2.07,2.07,0,0,1-1,.23,1.17,1.17,0,0,1-.48-.11,1,1,0,0,1-.36-.24,1.78,1.78,0,0,1-.23-.33l-.05-.09,0-.09-.07-.19a2.09,2.09,0,0,1-.08-.36,1.62,1.62,0,0,1,0-.38,2.38,2.38,0,0,1,.06-.37,2.65,2.65,0,0,1,.12-.37c.05-.12.12-.24.18-.36a3.39,3.39,0,0,1,.23-.34,3.1,3.1,0,0,1,.59-.61.24.24,0,0,1,.08-.06l.1-.07L29,21a.34.34,0,0,1,.13,0s0,0-.05-.05l.56-.14h.47a13.75,13.75,0,0,1,1.52.06h.09v-.32h0a10,10,0,0,0-1.59.05l-.47.06,0,0-.1-.13,0,0c.24-.13.58-.31,1-.49a7.31,7.31,0,0,1,.72-.27l.47-.16Z"/><path class="cls-5" d="M14.3,20.4l-.13.46.49-.37.18.54s-.1-.87.32-1.11c0,0-.74,0-.86.48"/><path class="cls-5" d="M16,19c.19-.41,1.05-.48,1.05-.48l-.86,0v-.19A.42.42,0,0,0,16,19"/><path class="cls-5" d="M17.41,19.75a.57.57,0,0,0-.09-.41.55.55,0,0,0-.79.11s.65-.32.88.3"/><path class="cls-5" d="M16.9,19.92c0,.22-.06.24-.21.24s-.16,0-.16,0,.12.18.26.13.5-.25.27-.43c0,0-.14-.12-.16.1"/><path class="cls-5" d="M17.76,20c0,.14-.1.09-.17.17a2.1,2.1,0,0,0-.07.61s.14-.55.37-.66a.4.4,0,0,0,.19-.39s-.28.14-.32.27"/><path class="cls-5" d="M18.43,20.2a.41.41,0,0,1-.18.17c-.14.09-.23.24,0,.19s.58,0,.22-.36"/><path class="cls-5" d="M15.35,18.76c.11-.31-.19-.76,0-1a.47.47,0,0,0-.19.52c.08.35-.47.52-.5.52s.58.25.69,0"/><path class="cls-5" d="M14.45,19.22c0,.29-.63.41-1.23.72s-.55.71-.55.71c.15-.56,1.43-.83,1.78-.94s0-.49,0-.49"/><path class="cls-5" d="M26.55,12.61h0Z"/><path class="cls-5" d="M23.7,11.25a4.91,4.91,0,0,1,1.47.58,3.32,3.32,0,0,1,.59.43,2.72,2.72,0,0,1,.24.24c.08.08.14.17.21.25h0a2,2,0,0,1,.24.35.94.94,0,0,1,.06.15l-.5-.09-.34-.08c-.12,0-.24-.07-.36-.1a2.2,2.2,0,0,1-.36-.13c-.12,0-.22-.11-.34-.16a1.89,1.89,0,0,1-.27-.2l-.13-.11-.1-.11a2.28,2.28,0,0,1-.27-.46,2.3,2.3,0,0,1-.11-.37.77.77,0,0,1,0-.15.69.69,0,0,0-.08.14,1,1,0,0,0-.08.4,1.31,1.31,0,0,0,0,.27,1,1,0,0,0,.13.3,1.5,1.5,0,0,0,.23.3,3,3,0,0,0,.34.26c.14.06.28.14.42.19a3.74,3.74,0,0,0,.45.12,4.27,4.27,0,0,0,.82.09,4.17,4.17,0,0,0,.56,0,.68.68,0,0,1,0,.14H27l.28-1.58,1-.85,1.06-.91c.7-.61,1.38-1.23,2-1.86l0,0c-.8.55-1.58,1.11-2.33,1.69-.38.29-.77.57-1.13.87s-.74.58-1.1.88l-.06,0v.05l-.11.91-.09-.1c-.09-.09-.16-.18-.25-.26a2.37,2.37,0,0,0-.29-.25,4,4,0,0,0-.66-.43A4.61,4.61,0,0,0,24,11.2L25.47,11h.05l0,0c.87-.63,1.69-1.28,2.5-1.94l1.18-1c.39-.34.77-.68,1.14-1l0,0c-.46.3-.9.61-1.33.92s-.87.63-1.28,1c-.83.63-1.64,1.27-2.41,1.94q-.83.17-1.62.36l-.31.08.31,0Z"/><path class="cls-5" d="M14.07,23h0"/><polygon class="cls-5" points="1.43 0.5 2.75 0.5 2.75 0.74 1.82 0.74 1.82 1.57 2.68 1.57 2.68 1.79 1.82 1.79 1.82 2.87 1.43 2.87 1.43 0.5"/><path class="cls-5" d="M3.1,1.61c0-.15,0-.31,0-.44h.36l0,.27h0A.58.58,0,0,1,4,1.14h.08v.28H4a.47.47,0,0,0-.48.35.81.81,0,0,0,0,.16v.94H3.1Z"/><path class="cls-5" d="M5.85,2.4c0,.19,0,.34,0,.47H5.52l0-.18h0A.77.77,0,0,1,5,2.9c-.44,0-.61-.24-.61-.66V1.17h.4v1c0,.27.06.47.33.47a.34.34,0,0,0,.35-.23.36.36,0,0,0,0-.15V1.17h.4Z"/><path class="cls-5" d="M6.4,1.61c0-.2,0-.3,0-.44h.34l0,.2h0a.74.74,0,0,1,.57-.23.54.54,0,0,1,.6.59V2.87H7.53V1.77c0-.2-.06-.4-.35-.4a.37.37,0,0,0-.37.28.61.61,0,0,0,0,.15V2.87H6.4Z"/><path class="cls-5" d="M9.68,2.83a1.37,1.37,0,0,1-.41.06A.82.82,0,0,1,8.36,2a.89.89,0,0,1,1-.89,1.05,1.05,0,0,1,.35.06l-.08.22a.77.77,0,0,0-.28,0A.59.59,0,0,0,8.76,2a.56.56,0,0,0,.58.63.88.88,0,0,0,.29,0Z"/><path class="cls-5" d="M11,1.84h0c0-.34-.18-.49-.37-.49s-.39.26-.4.49Zm-.78.2c0,.52.3.63.59.63a1.15,1.15,0,0,0,.41-.06l.06.2a1.75,1.75,0,0,1-.54.08A.79.79,0,0,1,9.88,2a.81.81,0,0,1,.83-.9.68.68,0,0,1,.71.75.62.62,0,0,1,0,.15Z"/><path class="cls-5" d="M13.7,1.84h0c0-.34-.18-.49-.37-.49s-.39.26-.4.49Zm-.78.2c0,.52.3.63.59.63a1.15,1.15,0,0,0,.41-.06l.06.2a1.75,1.75,0,0,1-.54.08.8.8,0,0,1-.9-.85.82.82,0,0,1,.83-.9.68.68,0,0,1,.71.75.62.62,0,0,1,0,.15Z"/><rect class="cls-5" x="14.5" y="0.44" width="0.39" height="2.43"/><path class="cls-5" d="M17.49,2.83a1.32,1.32,0,0,1-.41.06.81.81,0,0,1-.9-.86.88.88,0,0,1,1-.89,1,1,0,0,1,.35.06l-.08.22a.77.77,0,0,0-.28,0,.59.59,0,0,0-.57.66.56.56,0,0,0,.58.63.88.88,0,0,0,.29,0Z"/><path class="cls-5" d="M18.85,1.84h0c0-.34-.18-.49-.37-.49s-.38.26-.4.49Zm-.78.2c0,.52.31.63.59.63a1.11,1.11,0,0,0,.41-.06l.06.2a1.66,1.66,0,0,1-.54.08.8.8,0,0,1-.9-.85.82.82,0,0,1,.84-.9.68.68,0,0,1,.7.75V2Z"/><path class="cls-5" d="M19.66,1.61h0c0-.2,0-.3,0-.44H20l0,.2h0a.74.74,0,0,1,.57-.23.54.54,0,0,1,.6.59V2.87h-.4V1.77c0-.2-.06-.4-.34-.4a.38.38,0,0,0-.38.28.66.66,0,0,0,0,.15V2.87h-.39ZM19.87.9a.29.29,0,0,1,.31-.33.57.57,0,0,1,.25.06.61.61,0,0,0,.21.06c.07,0,.12,0,.13-.13H21a.29.29,0,0,1-.33.32A.66.66,0,0,1,20.4.82a.52.52,0,0,0-.19-.06c-.07,0-.11.05-.13.14Z"/><path class="cls-5" d="M22,2h0c0,.28.08.66.43.66s.41-.4.41-.66-.07-.66-.42-.66S22,1.76,22,2m1.24,0a.8.8,0,0,1-.83.88.78.78,0,0,1-.8-.88.8.8,0,0,1,.83-.88A.78.78,0,0,1,23.25,2Z"/><path class="cls-5" d="M24.69,1.17l.33,1c.05.14.07.25.1.36h0a3.21,3.21,0,0,1,.1-.35l.29-1h.39l-.4,1.09a2.52,2.52,0,0,1-.62,1.1,1.35,1.35,0,0,1-.44.26l-.14-.24a1,1,0,0,0,.34-.21.92.92,0,0,0,.23-.28c0-.05,0-.06,0-.09a.07.07,0,0,0,0-.06l-.62-1.57Z"/><path class="cls-5" d="M1.39,4.76c0-.14,0-.31,0-.43h.36l0,.26h0a.59.59,0,0,1,.52-.29h.08v.28H2.28a.46.46,0,0,0-.48.35.76.76,0,0,0,0,.15V6h-.4Z"/><path class="cls-5" d="M3.65,5h0c0-.34-.18-.49-.37-.49s-.39.26-.4.49Zm-.78.2c0,.52.31.63.59.63a1.43,1.43,0,0,0,.41-.06l.06.2a1.75,1.75,0,0,1-.54.08.81.81,0,0,1-.9-.86.81.81,0,0,1,.83-.89A.68.68,0,0,1,4,5.05.66.66,0,0,1,4,5.2Z"/><path class="cls-5" d="M5.66,6a1,1,0,0,1-.41.07.81.81,0,0,1-.9-.86.88.88,0,0,1,1-.89,1.38,1.38,0,0,1,.35,0l-.08.23a.77.77,0,0,0-.28,0,.59.59,0,0,0-.57.66.56.56,0,0,0,.58.63,1.27,1.27,0,0,0,.29,0Z"/><path class="cls-5" d="M6,3.6h.39v.91h0a.66.66,0,0,1,.21-.15.78.78,0,0,1,.33-.06.54.54,0,0,1,.58.6V6H7.13V4.93c0-.21-.07-.4-.34-.4a.38.38,0,0,0-.38.27.51.51,0,0,0,0,.13V6H6Z"/><path class="cls-5" d="M9,5.15H9c-.2,0-.68,0-.68.39a.28.28,0,0,0,.3.3A.35.35,0,0,0,9,5.59a.38.38,0,0,0,0-.1ZM9.05,6l0-.17H9a.62.62,0,0,1-.49.2c-.34,0-.59-.19-.59-.48S8.42,5,9,5v0c0-.23-.08-.39-.39-.39a1,1,0,0,0-.41.09l-.09-.19a1.48,1.48,0,0,1,.58-.11c.5,0,.71.22.71.61v.73a1.5,1.5,0,0,0,0,.38Z"/><path class="cls-5" d="M9.74,5.86l.78-1.05c.07-.09.15-.17.2-.25H9.84V4.33h1.32v.18l-.78,1a2.73,2.73,0,0,1-.2.25h1V6H9.74Z"/><path class="cls-5" d="M12.46,5.15h0c-.21,0-.68,0-.68.39a.28.28,0,0,0,.3.3.37.37,0,0,0,.37-.25.38.38,0,0,0,0-.1Zm0,.87,0-.17h0a.62.62,0,0,1-.49.2c-.33,0-.59-.19-.59-.48S11.89,5,12.45,5v0c0-.23-.09-.39-.4-.39a1.07,1.07,0,0,0-.41.09l-.09-.19a1.56,1.56,0,0,1,.58-.11c.5,0,.72.22.72.61v.73a2.24,2.24,0,0,0,0,.38Z"/><path class="cls-5" d="M15.41,6a1.08,1.08,0,0,1-.41.07.82.82,0,0,1-.91-.86.89.89,0,0,1,1-.89,1.46,1.46,0,0,1,.35,0l-.08.23a.77.77,0,0,0-.28,0,.59.59,0,0,0-.57.66.56.56,0,0,0,.58.63,1.27,1.27,0,0,0,.29,0Z"/><path class="cls-5" d="M16,5.18h0c0,.28.07.66.43.66s.41-.4.41-.66-.07-.66-.42-.66-.42.4-.42.66m1.23,0a.79.79,0,0,1-.82.87.77.77,0,0,1-.8-.87.8.8,0,0,1,.83-.88A.77.77,0,0,1,17.23,5.18Z"/><path class="cls-5" d="M17.67,4.76c0-.19,0-.3,0-.43H18l0,.2h0a.68.68,0,0,1,.57-.23.53.53,0,0,1,.59.58V6H18.8V4.93c0-.2-.06-.4-.34-.4a.38.38,0,0,0-.38.27.76.76,0,0,0,0,.15V6h-.4Z"/><path class="cls-5" d="M20.94,5.4h0a.61.61,0,0,0,0,.14.38.38,0,0,0,.37.29c.33,0,.43-.31.43-.65s-.13-.65-.44-.65a.38.38,0,0,0-.36.31.53.53,0,0,0,0,.13Zm-.4-.54c0-.26,0-.41,0-.53h.36l0,.21h0a.6.6,0,0,1,.52-.24c.43,0,.72.31.72.87a.77.77,0,0,1-.77.88A.51.51,0,0,1,21,5.86h0V6.7h-.4Z"/><path class="cls-5" d="M23.51,5.15h0c-.2,0-.68,0-.68.39a.28.28,0,0,0,.3.3.35.35,0,0,0,.37-.25.38.38,0,0,0,0-.1Zm.06.87,0-.17h0a.62.62,0,0,1-.49.2c-.34,0-.59-.19-.59-.48S22.94,5,23.5,5v0c0-.23-.08-.39-.39-.39a1,1,0,0,0-.41.09l-.09-.19a1.48,1.48,0,0,1,.58-.11c.5,0,.71.22.71.61v.73a1.5,1.5,0,0,0,0,.38Z"/><path class="cls-5" d="M24.45,4.76c0-.14,0-.31,0-.43h.35l0,.26h0a.59.59,0,0,1,.52-.29h.09v.28h-.09a.45.45,0,0,0-.47.35.77.77,0,0,0,0,.15V6h-.39Z"/><path class="cls-5" d="M26.11,5.4h0a.32.32,0,0,0,0,.14.37.37,0,0,0,.36.29c.33,0,.43-.31.43-.65s-.12-.65-.44-.65a.39.39,0,0,0-.36.31.53.53,0,0,0,0,.13Zm-.39-.54c0-.26,0-.41,0-.53h.35l0,.21h0a.61.61,0,0,1,.52-.24c.43,0,.72.31.72.87a.77.77,0,0,1-.77.88.51.51,0,0,1-.43-.19h0V6.7h-.39Z"/><path class="cls-5" d="M28.68,5.15h0c-.2,0-.68,0-.68.39a.29.29,0,0,0,.31.3.35.35,0,0,0,.36-.25.38.38,0,0,0,0-.1Zm.06.87,0-.17h0a.62.62,0,0,1-.49.2c-.33,0-.59-.19-.59-.48S28.12,5,28.67,5v0c0-.23-.08-.39-.39-.39a1.07,1.07,0,0,0-.41.09l-.09-.19a1.56,1.56,0,0,1,.58-.11c.5,0,.71.22.71.61v.73a1.5,1.5,0,0,0,0,.38Z"/><rect class="cls-5" x="29.5" y="5" width="1.12" height="0.21"/><path class="cls-5" d="M2.5,8.13h0a.41.41,0,0,0,0-.11.37.37,0,0,0-.36-.33c-.33,0-.44.31-.44.65s.13.65.42.65a.38.38,0,0,0,.37-.3.36.36,0,0,0,0-.11Zm.39-1.38v2c0,.12,0,.31,0,.41H2.57l0-.21h0A.62.62,0,0,1,2,9.21c-.42,0-.72-.31-.72-.87A.78.78,0,0,1,2,7.46a.51.51,0,0,1,.45.2h0V6.75Z"/><path class="cls-5" d="M4.5,8.16h0c0-.34-.18-.49-.37-.49s-.39.25-.41.49Zm-.78.2c0,.52.3.63.59.63a1.16,1.16,0,0,0,.41-.07l.06.2a1.77,1.77,0,0,1-.55.08.8.8,0,0,1-.9-.85.81.81,0,0,1,.84-.89.67.67,0,0,1,.7.75v.15Z"/><path class="cls-5" d="M5.58,8.33h0c0,.28.08.67.43.67s.41-.4.41-.67S6.35,7.67,6,7.67s-.42.4-.42.66m1.24,0A.8.8,0,0,1,6,9.21a.78.78,0,0,1-.8-.87A.79.79,0,0,1,6,7.46.78.78,0,0,1,6.82,8.33Z"/><rect class="cls-5" x="8.06" y="6.75" width="0.39" height="2.43"/><path class="cls-5" d="M10,8.3h0c-.21,0-.68,0-.68.4a.28.28,0,0,0,.3.3A.37.37,0,0,0,10,8.74a.28.28,0,0,0,0-.09Zm.06.88L10,9h0a.65.65,0,0,1-.5.21.52.52,0,0,1-.58-.48c0-.43.49-.62,1-.62v0c0-.23-.08-.39-.4-.39a.84.84,0,0,0-.4.09l-.09-.19a1.31,1.31,0,0,1,.58-.11c.49,0,.71.22.71.6V8.8a2.3,2.3,0,0,0,0,.38Z"/><rect class="cls-5" x="11.7" y="6.75" width="0.39" height="2.43"/><path class="cls-5" d="M14.17,8.72c0,.19,0,.34,0,.46h-.35l0-.18h0a.73.73,0,0,1-.53.21c-.44,0-.61-.23-.61-.65V7.48h.4v1c0,.27.06.46.33.46a.35.35,0,0,0,.35-.22.41.41,0,0,0,0-.16V7.48h.4Z"/><path class="cls-5" d="M14.52,9l.79-1c.06-.09.14-.18.2-.26h-.89V7.48h1.32v.18l-.77,1L15,9h1v.22H14.52Z"/><path class="cls-5" d="M1.4,12.34h0v-1.7h.39v1.7Zm.42-2.14c0,.11-.09.18-.24.18a.2.2,0,0,1-.22-.18c0-.1.1-.17.23-.17S1.82,10.1,1.82,10.2Z"/><path class="cls-5" d="M2.34,11.08c0-.2,0-.3,0-.44h.34l0,.2h0a.74.74,0,0,1,.57-.23.54.54,0,0,1,.6.59v1.14H3.47v-1.1c0-.2-.06-.4-.35-.4a.37.37,0,0,0-.37.28.61.61,0,0,0,0,.15v1.07H2.34Z"/><path class="cls-5" d="M4.86,10.19v.45h.48v.21H4.86v1c0,.23.12.29.26.29h.16l0,.2a1.12,1.12,0,0,1-.29,0,.64.64,0,0,1-.39-.1c-.1-.08-.15-.19-.15-.43v-1h-.3v-.21h.3v-.37Z"/><path class="cls-5" d="M6.7,11.31h0c0-.34-.18-.49-.37-.49s-.39.26-.4.49Zm-.78.2c0,.52.3.64.59.64a1.12,1.12,0,0,0,.41-.07l.06.2a1.75,1.75,0,0,1-.54.08.8.8,0,0,1-.9-.85.82.82,0,0,1,.83-.9.68.68,0,0,1,.71.75.62.62,0,0,1,0,.15Z"/><path class="cls-5" d="M7.5,11.08c0-.2,0-.3,0-.44h.35l0,.2h0a.7.7,0,0,1,.56-.23.54.54,0,0,1,.6.59v1.14H8.63v-1.1c0-.2-.06-.4-.34-.4a.37.37,0,0,0-.38.28.66.66,0,0,0,0,.15v1.07H7.5Z"/><path class="cls-5" d="M9.51,12.06a1,1,0,0,0,.4.09c.22,0,.36-.1.36-.25s-.06-.22-.32-.33-.49-.29-.49-.49.29-.47.68-.47a1.16,1.16,0,0,1,.44.09l-.1.2a.84.84,0,0,0-.33-.07c-.22,0-.32.1-.32.21s.06.18.3.3.52.28.52.51-.34.51-.75.51a1.15,1.15,0,0,1-.49-.1Z"/><path class="cls-5" d="M12,11.46h0c-.21,0-.69,0-.69.39a.29.29,0,0,0,.31.31A.37.37,0,0,0,12,11.9a.31.31,0,0,0,0-.09Zm0,.88,0-.18h0a.62.62,0,0,1-.49.21.53.53,0,0,1-.59-.49c0-.42.5-.61,1.06-.61v-.06c0-.23-.09-.38-.4-.38a1.07,1.07,0,0,0-.41.08l-.09-.19a1.56,1.56,0,0,1,.58-.11c.5,0,.71.23.71.61V12a1.63,1.63,0,0,0,0,.39Z"/></svg>