<svg id="Capa_1" data-name="Capa 1" xmlns="http://www.w3.org/2000/svg" viewBox="0 0 31.73 27.3"><defs><style>.cls-1{fill:#f5a4c7;}.cls-2{fill:#fccdb5;}.cls-3{fill:#ffd82c;}.cls-4{fill:#231f20;}</style></defs><title>6-1mes</title><path class="cls-1" d="M14.65,20.79a5.14,5.14,0,0,0-2.36-.63,1.32,1.32,0,0,0-1,1l-.89,4s-.43.34-.31.63a7.42,7.42,0,0,0,4,.71c1.26-.25,2.22-.25,2.17-.91s-1.59-4.78-1.59-4.78"/><path class="cls-2" d="M11.11,21.15a4.25,4.25,0,0,1,1.57,1.29,1.76,1.76,0,0,1,0,2.37,4.05,4.05,0,0,1-1.41.69l-1.36-.41L8.34,24.2a8.79,8.79,0,0,1-2,1.14,9,9,0,0,1-2.46-.76c-.44-.24-1-.62-.91-.88s-.11-.38.05-.59a.69.69,0,0,0,.12-.55c0-.13-.3-.42.32-.61a4.51,4.51,0,0,1,.76.41c.06.1-.13-.29-.07-.57s-.3-.54-.2-.71.5,0,.5,0,1,1.29,1.34,1.07.73-1.15.93-1.38a2.67,2.67,0,0,1,2.18-1.1,11.26,11.26,0,0,1,2.77,1Z"/><path class="cls-3" d="M15.56,14.94a6,6,0,0,1-1.59.81,9.59,9.59,0,0,1-1.69.17,2.52,2.52,0,0,0,1,1.18,9.61,9.61,0,0,0,3.25,1,1.57,1.57,0,0,1,.09-1.63c.58-.76.91-2.06-1-1.56"/><path class="cls-2" d="M14,20.14s-.47.15-.5.94a6.88,6.88,0,0,0,1,3.31c.52.55,1.36,1.06,1.64,1a9.51,9.51,0,0,1,2.31-.09c.24.1.28,1.12,1.72,1.16a2.37,2.37,0,0,0,2.08-1.26l.47-.21,1.85,0,3.1-1.45s1.54-3.18.55-4A5.09,5.09,0,0,0,25.07,18a3.45,3.45,0,0,0-2.11.83,1.86,1.86,0,0,1-1.37.3,2.25,2.25,0,0,0-1.75,1.08,2.16,2.16,0,0,0-.13,1.58c.12.23-1.74-.73-1.74-.73l-.63-.22a1.4,1.4,0,0,0-.71-1,1.91,1.91,0,0,0-2.59.29"/><path class="cls-2" d="M1,7.31s8.09,3.14,10.3,3.06,3-.5,4,0,4.13,2.43,4.76,2.73.76.84-1,.47-2.65-1.32-3.62-1.37-1.64.17-1.52.57a2.59,2.59,0,0,0,1.11,1.09.55.55,0,0,1,.24.88c-.27.44-.2.54-.62.17a3.35,3.35,0,0,0-1.16-.73c-.44-.18-2.26-1-2.5-1.61l-.18-.25-3.79-.51A52.92,52.92,0,0,1,1,10.67Z"/><path class="cls-4" d="M22.44,25.25h0l0-.1h0a.83.83,0,0,0,.36-.19l.42.16h-.05l-.35,0v0l.16,0Zm.51-.49h0l0-.06.53.11-.67.09A.67.67,0,0,0,23,24.76Zm.26-.14h0l-.21,0,0-.05,0-.11v0l.05,0A.47.47,0,0,0,23.21,24.62ZM8.53,24.29h0A4.25,4.25,0,0,0,9.05,24a1.44,1.44,0,0,0,.31-.29.78.78,0,0,0,.16-.33.83.83,0,0,0,0-.35,1.32,1.32,0,0,0-.08-.33H9.41a1.74,1.74,0,0,1,0,.32.88.88,0,0,1-.07.32,1,1,0,0,1-.19.28,1.37,1.37,0,0,1-.3.22,4.45,4.45,0,0,1-.8.32l-.44.17a2.78,2.78,0,0,0-.42.22c-.25.17-.42.39-.61.49a.91.91,0,0,1-.33.1l-.21,0H5.86A2.08,2.08,0,0,1,5.11,25a2.27,2.27,0,0,1-.34-.19,2.6,2.6,0,0,1-.3-.22l-.12-.06-.43-.16H4a.29.29,0,0,0,.21-.11c0-.09,0-.19-.15-.23H4a4.38,4.38,0,0,0-.59-.12H3.26l0,0h0a.37.37,0,0,1,.13-.07,2.42,2.42,0,0,1,.43-.13h0c.12,0,.19-.11.16-.19a.24.24,0,0,0-.27-.1h0l-.18,0H3.31l-.12,0h0l.17-.06h.15a1.47,1.47,0,0,0,.3-.08c.06,0,.09-.06.08-.11S3.82,23,3.74,23h0a2.57,2.57,0,0,0-.46.07h0s-.05,0-.06-.06a.19.19,0,0,1,0-.08.25.25,0,0,1,0-.08.2.2,0,0,1,.05-.14.27.27,0,0,1,.17,0h0l.43.18a.11.11,0,0,0,.11,0,0,0,0,0,0,0-.08,1.83,1.83,0,0,0-.51-.22H3.34l-.24-.1h0s0-.06,0-.13a.75.75,0,0,1,.17-.19.26.26,0,0,1,.2-.1.35.35,0,0,1,.19.11,4,4,0,0,0,.83.81l.18.08.17.06a1.71,1.71,0,0,1,.3.09.83.83,0,0,0,.46.08A.88.88,0,0,0,6,23.06a8,8,0,0,0,.83-.81c.13-.14.26-.25.38-.36a2.69,2.69,0,0,1,.5-.28A1.17,1.17,0,0,1,8,21.5a2.63,2.63,0,0,1,.3-.09c.21-.05.42-.08.64-.12l.68-.05h.69q.33,0,.66,0l.46.12c0,.06-.09.05-.1.06a.25.25,0,0,1,.09,0l.15.09c.07.05.1.09.15.13a3,3,0,0,1,.47.6,2.9,2.9,0,0,1,.43,1.37,2.11,2.11,0,0,1,0,.35,1.94,1.94,0,0,1-.07.33,2.83,2.83,0,0,1-.14.35,1.55,1.55,0,0,1-.2.32,1.25,1.25,0,0,1-.3.25.93.93,0,0,1-.41.11,1.69,1.69,0,0,1-.92-.24h0a.12.12,0,0,0-.13,0l0,0ZM4,21.17H4S4,21.16,4,21.17Zm.21.08h0a5.06,5.06,0,0,1,.47.37l.5.38a2,2,0,0,0,.29.17c.1,0,.31.12.44,0a4.07,4.07,0,0,0,.33-.47,7.9,7.9,0,0,1,.64-.88,2.48,2.48,0,0,1,.84-.7A1.82,1.82,0,0,1,8.31,20a1.34,1.34,0,0,1,.28,0h.18l.16,0a8.59,8.59,0,0,1,1.36.25,3.58,3.58,0,0,1,1,.39l0,0a2,2,0,0,0-.25.26,1,1,0,0,0-.14.22,8.6,8.6,0,0,0-2-.09,4.45,4.45,0,0,0-.72.1,2.25,2.25,0,0,0-.35.09,1.83,1.83,0,0,0-.33.11,2.86,2.86,0,0,0-.6.32,4.58,4.58,0,0,0-.45.41c-.25.26-.5.54-.76.77a.44.44,0,0,1-.16.11l-.19,0-.36-.09h0l-.18-.21c-.1-.12-.23-.23-.31-.33a.51.51,0,0,1-.15-.3.41.41,0,0,1,0-.16l0-.07,0-.06a.12.12,0,0,0,0-.18l0,0a.44.44,0,0,1-.09-.13l0-.09s0,0,0-.06h0Zm16.36,2.32h0v0Zm0,0h0v0h0ZM15.75,21h0s0,0,0,0Zm-.65-.07Zm14.05-.74a3.43,3.43,0,0,0-.86-1A4.89,4.89,0,0,0,27,18.41,5.59,5.59,0,0,0,25.51,18a3.09,3.09,0,0,0-1.61.21,3.46,3.46,0,0,0-.63.36,4.7,4.7,0,0,1-.57.38A1.72,1.72,0,0,1,22,19a2.58,2.58,0,0,0-.86.05,2.94,2.94,0,0,0-.69.35,2.1,2.1,0,0,0-.57.45A2,2,0,0,0,19.46,21a1.64,1.64,0,0,0,.08.69c-.33-.14-.65-.29-1-.45a7,7,0,0,0-.84-.34l-.25-.06h0a.36.36,0,0,0,0-.18,1.14,1.14,0,0,0-.3-.53c-.17-.15-.37-.27-.53-.4a1.14,1.14,0,0,1-.11-.11.69.69,0,0,0-.19-.1,1.35,1.35,0,0,0-.4-.08,3.55,3.55,0,0,0-.8,0,1.59,1.59,0,0,0-.69.27,2.21,2.21,0,0,0-.47.44,3,3,0,0,1,.51-.41,1.48,1.48,0,0,1,.67-.22,3.22,3.22,0,0,1,.76,0,1.21,1.21,0,0,1,.34.08.23.23,0,0,1,.11.07l.12.11a5.3,5.3,0,0,1,.49.41,1.06,1.06,0,0,1,.24.47v0l-.09,0L17,20.6a1.28,1.28,0,0,1-.33-.45.17.17,0,0,0-.15-.07c-.08,0-.13.06-.13.11a2.38,2.38,0,0,1,0,.46.71.71,0,0,1,0,.21h0l-.05,0a.28.28,0,0,1-.06-.09.7.7,0,0,1-.08-.2,1.49,1.49,0,0,1,0-.21l0-.24c0-.06-.06-.1-.14-.11s-.17,0-.18.09h0a3.19,3.19,0,0,1-.07.54.92.92,0,0,1-.08.25.28.28,0,0,1-.06.08l-.05,0s0,0,0,0a.54.54,0,0,1-.05-.11.74.74,0,0,1,0-.26,1.49,1.49,0,0,1,0-.21c0-.11.06-.22.08-.33s0-.09-.11-.1a.14.14,0,0,0-.16.07,2.56,2.56,0,0,0-.11.46v0l-.09.24a.39.39,0,0,1-.06.11.19.19,0,0,1-.07.08h0a.29.29,0,0,1-.08-.08.46.46,0,0,1-.06-.23,1.39,1.39,0,0,1,.07-.49h0S15,20,15,20a.09.09,0,0,0-.1,0h0a2.58,2.58,0,0,0-.08.26,1.24,1.24,0,0,1,0,.16,1.74,1.74,0,0,1-.1.19.31.31,0,0,1-.07.09.12.12,0,0,1-.08,0,.27.27,0,0,1-.1-.06l-.07-.09a.36.36,0,0,1-.08-.19.46.46,0,0,1,.16-.4.5.5,0,0,0-.21.4.46.46,0,0,0,.06.22l.07.1a.3.3,0,0,0,.15.08.2.2,0,0,0,.18-.06.76.76,0,0,0,.09-.09l0,0a.55.55,0,0,0,.05.17.38.38,0,0,0,.12.13l0,0,0,0,.08,0a.27.27,0,0,0,.17,0,.29.29,0,0,0,.13-.11l0,.08.08.09.07.05a.47.47,0,0,0,.19.06.36.36,0,0,0,.2-.06.39.39,0,0,0,.14-.15s0,0,0-.06l0,.06a1,1,0,0,0,.14.11.93.93,0,0,0,.14.05.34.34,0,0,0,.22-.05.24.24,0,0,0,.09-.16,2.42,2.42,0,0,0,0-.25l.05.06h0v0a.29.29,0,0,1,.1,0l.05,0a1,1,0,0,0,.18.1.26.26,0,0,0,.17,0h.07a5.87,5.87,0,0,1,1,.47,15.53,15.53,0,0,0,1.52.8l.9.39L20.17,22a.85.85,0,0,1-.23-.44,1.25,1.25,0,0,1,0-.51,2.16,2.16,0,0,1,.36-1,2.24,2.24,0,0,1,.45-.4,2.84,2.84,0,0,1,.55-.34,2.62,2.62,0,0,1,.73-.07,1.89,1.89,0,0,0,.82-.18,5.85,5.85,0,0,0,.56-.41l.1-.07c.07,0,.13.12.18.31C23.8,19.5,23,20,23,20s.88-.4.88-1c0-.29-.13-.45-.3-.49l.39-.22a2.76,2.76,0,0,1,1.49-.16,3.79,3.79,0,0,1,.77.21,5.14,5.14,0,0,0-1-.19l.6.31-.94-.06a6.26,6.26,0,0,0,1.75.79L25,19.13a11.34,11.34,0,0,0,1.79.6l-1.1,0,1.1.45-.75,0,1,.39-1.22,0,1.25.61-.67.07.47.25s-.6.09-.66.11a4.09,4.09,0,0,0,.64.19s-.93,0-1.2.43-.48.8-.48.8l.81-.58s-.64.85-1.09.91a4.44,4.44,0,0,1-.69.05l1,.1a6.86,6.86,0,0,1-1,.1,2.67,2.67,0,0,1,.76.12l.06,0H25l0,0,.11.1c.06.06.14.15.12.2a.29.29,0,0,1,0,.09s0,0,0,0l0,.06a.13.13,0,0,0,0,0l0,0a1.35,1.35,0,0,1-.38.16h-.23l-.34,0-.3-.05-.23-.05-.07,0-.06,0h0a.13.13,0,0,1-.09-.16.35.35,0,0,1,0-.12l0,0a.42.42,0,0,0-.18.06l-.07,0a.54.54,0,0,0-.15-.29.42.42,0,0,0-.14-.09l-.15,0a.32.32,0,0,0-.14.05.19.19,0,0,0-.08.07.71.71,0,0,0-.08-.18.3.3,0,0,0-.08-.08.3.3,0,0,0-.11-.07.27.27,0,0,0-.18,0h0a.63.63,0,0,0-.12-.1.58.58,0,0,0-.4-.12h-.05l-.08-.06a.47.47,0,0,0-.29-.07.35.35,0,0,0-.31.17.62.62,0,0,0-.16,0,.63.63,0,0,0-.26,0,.31.31,0,0,0-.11.08l0,.05h0v.1a.43.43,0,0,0,.12.29.75.75,0,0,1,.15.23.31.31,0,0,1,0,.23h0a2.77,2.77,0,0,0-.88.05,1.13,1.13,0,0,0-.33.15.53.53,0,0,0-.18.19.46.46,0,0,0-.07.21.6.6,0,0,1,.14-.18.75.75,0,0,1,.22-.13,1.14,1.14,0,0,1,.29-.06,2,2,0,0,1,.57.06h0l0,.07a.73.73,0,0,0,0,.31.58.58,0,0,0,0,.13h.05a.71.71,0,0,0,.13-.09,1.59,1.59,0,0,0,.26-.26,1.14,1.14,0,0,0,.1-.19.59.59,0,0,0,0-.13.32.32,0,0,0,0-.14c0-.09-.07-.18-.09-.26a.57.57,0,0,1,0-.26.19.19,0,0,1,0-.08l0,0a1.85,1.85,0,0,1,.14.14,2.77,2.77,0,0,1,.19.25l.08.11H21a.73.73,0,0,0,.09-.12.55.55,0,0,0,0-.35.68.68,0,0,0-.11-.23.85.85,0,0,0-.22-.18l.08,0a.17.17,0,0,1,.1,0,.07.07,0,0,1,0,0,.48.48,0,0,1,.12.2c.06.17.09.36.13.5s0,.13.05.18l0,.07a1.08,1.08,0,0,0,.13-.24.84.84,0,0,0,0-.57l0-.06a.23.23,0,0,1,.07.07.31.31,0,0,1,.07.09.67.67,0,0,1,.06.12,2.3,2.3,0,0,1,.14.45,2.42,2.42,0,0,1,0,.24.71.71,0,0,0,.17-.22.62.62,0,0,0,0-.55,1.09,1.09,0,0,0-.06-.11s.06,0,.07,0a.12.12,0,0,1,.05.05.16.16,0,0,1,0,.07.39.39,0,0,1,0,.15,1.82,1.82,0,0,1-.12.65l-.08.24.3-.1a.43.43,0,0,0,.25-.16.47.47,0,0,0,.1-.16,1.42,1.42,0,0,0,.05-.16.65.65,0,0,0,0-.11.61.61,0,0,1,.07.14.82.82,0,0,1,0,.27.81.81,0,0,1,0,.15.5.5,0,0,1,0,.13.65.65,0,0,1-.44.46h.06a.76.76,0,0,1-.13.15,3.94,3.94,0,0,1-.47.38,2.3,2.3,0,0,1-.33.21l-.42.19a3.31,3.31,0,0,1-1,.24,1,1,0,0,1-.54-.11.85.85,0,0,1-.33-.32c-.08-.12-.14-.25-.22-.35s-.17-.21-.25-.3-.31-.32-.43-.42a1.21,1.21,0,0,0-.19-.16H18a1.44,1.44,0,0,0,.17.54l-.21,0a8.67,8.67,0,0,0-1.25-.05l-.42.06-.11,0h-.07c-.1,0-.08,0-.11,0a1.76,1.76,0,0,1-.57-.35,5,5,0,0,1-.92-1.14,6.35,6.35,0,0,1-.33-.63c-.08-.22-.17-.43-.22-.63a9.86,9.86,0,0,1-.27-1.16.92.92,0,0,1,.12-.78,1.19,1.19,0,0,1,.33-.21l-.12,0a.93.93,0,0,0-.29.14,1,1,0,0,0-.35.83,5.25,5.25,0,0,0,.11,1.2,4.26,4.26,0,0,0,.2.67,4.62,4.62,0,0,0,.33.67,4.45,4.45,0,0,0,1,1.21,2,2,0,0,0,.83.42,1,1,0,0,0,.3,0,.36.36,0,0,1-.07.18,1.33,1.33,0,0,1-.34.22,3.45,3.45,0,0,1-.85.31,6.79,6.79,0,0,1-1.92.09,4.21,4.21,0,0,1-.5,0L12,26.2a4.53,4.53,0,0,1-.5-.06c-.18,0-.32-.05-.48-.07s-.32-.07-.46-.12a.89.89,0,0,1-.35-.19.19.19,0,0,1,0-.26.76.76,0,0,1,.26-.19,2.3,2.3,0,0,0,1,.29,1.62,1.62,0,0,0,.62-.11,2.34,2.34,0,0,0,.47-.28,3.39,3.39,0,0,0,.32-.35,2.4,2.4,0,0,0,.22-.37,3.25,3.25,0,0,0,.15-.4,1.93,1.93,0,0,0,.06-.41,2.69,2.69,0,0,0-.4-1.58,3,3,0,0,0-.6-.71,1.53,1.53,0,0,0-.22-.16,1.36,1.36,0,0,0-.27-.15l-.2-.07a1.13,1.13,0,0,1,.1-.13,1.89,1.89,0,0,1,.2-.2,1,1,0,0,1,.27-.17l.15-.07.16-.05a2.2,2.2,0,0,1,.37-.06,3.57,3.57,0,0,1,.8,0l0,0-.4-.11a3.11,3.11,0,0,0-.44-.06,3.38,3.38,0,0,0-.45,0l-.23.05a.79.79,0,0,0-.22.06,2.3,2.3,0,0,0-.39.17l-.19.13a2.47,2.47,0,0,0-.29-.24,3.48,3.48,0,0,0-.61-.31,7,7,0,0,0-.69-.23q-.35-.09-.72-.15l-.19,0-.19,0a3.23,3.23,0,0,0-.44,0,2.3,2.3,0,0,0-.78.24,2.54,2.54,0,0,0-.93.87,4.77,4.77,0,0,0-.46,1,2,2,0,0,1-.24.45c-.09.08-.32-.07-.46-.18a3.85,3.85,0,0,1-.4-.41,5.15,5.15,0,0,0-.4-.44.85.85,0,0,0-.37-.2l-.19,0a.57.57,0,0,0-.23.08.3.3,0,0,0-.11.22.31.31,0,0,0,0,.09v.06a.66.66,0,0,0,.05.15.87.87,0,0,0,.15.2h0a.56.56,0,0,0,0,.12.65.65,0,0,0,0,.24s0,0,0,.08L3.81,22a.64.64,0,0,0-.35-.16.5.5,0,0,0-.35.17.82.82,0,0,0-.19.22.29.29,0,0,0,0,.14c0,.05.06.12.17.14H3l.07,0-.06,0a.32.32,0,0,0-.13.22.4.4,0,0,0,0,.11.27.27,0,0,0,0,.12l.05.08-.07,0a.2.2,0,0,0-.12.13.17.17,0,0,0,0,.1s0,0,.06.08l.1.08h0l-.12.07a.33.33,0,0,0-.12.16.24.24,0,0,0,.06.2l.07.06a.14.14,0,0,0,0,0h0v.06A.65.65,0,0,0,3,24.3l.1.08a2.25,2.25,0,0,0,.47.28,4.9,4.9,0,0,0,.46.18l.31.23c.13.08.27.15.41.22a3.18,3.18,0,0,0,1,.27h.3l.26,0a1.53,1.53,0,0,0,.53-.2c.29-.19.4-.39.61-.53a1.73,1.73,0,0,1,.32-.2l.4-.17.23-.11a3.43,3.43,0,0,0,1.84.87,1.15,1.15,0,0,0-.33.25.33.33,0,0,0,0,.42,1.12,1.12,0,0,0,.41.3c.15.08.31.13.48.2s.34.11.5.14l.51.12a7.5,7.5,0,0,0,1.06.14,5.09,5.09,0,0,0,.55,0,5.24,5.24,0,0,0,.56,0,4.31,4.31,0,0,0,1.08-.21,2.89,2.89,0,0,0,.89-.47.86.86,0,0,0,.3-.33.31.31,0,0,0,0-.28h0l.08,0a1.7,1.7,0,0,1,.34-.07,10.14,10.14,0,0,1,1.19-.09h.24a1,1,0,0,0,.08.14,1.7,1.7,0,0,0,.25.31,2.1,2.1,0,0,0,.39.3c.15.1.28.2.46.3a2,2,0,0,0,.6.22,2.27,2.27,0,0,0,.69,0,3.3,3.3,0,0,0,.64-.13,3.13,3.13,0,0,0,.52-.24,1.59,1.59,0,0,0,.35-.31,1.2,1.2,0,0,0,.29-.52.38.38,0,0,0,0-.1,7.34,7.34,0,0,0,1,0A6.57,6.57,0,0,0,26,25a5.85,5.85,0,0,0,1.38-.65c.21-.12.38-.28.58-.42s.31-.29.48-.46.29-.33.41-.5a4.15,4.15,0,0,0,.32-.53,2.62,2.62,0,0,0,.28-1.14A2.67,2.67,0,0,0,29.15,20.14Z"/><path class="cls-4" d="M21.7,20.09a.64.64,0,0,0-.11.39.52.52,0,0,1,.79-.27.44.44,0,0,0-.68-.12"/><path class="cls-4" d="M22,20.66c0-.22-.13-.1-.13-.1-.21.16.08.37.21.42s.24-.12.24-.12,0,0-.15,0-.17,0-.17-.23"/><path class="cls-4" d="M21.45,21.49a2.08,2.08,0,0,0,0-.59c-.06-.08-.11,0-.14-.16s-.27-.27-.27-.27,0,.28.15.38.29.64.29.64"/><path class="cls-4" d="M20.83,21.06a.47.47,0,0,1-.15-.16c-.32.28,0,.29.17.35s.1-.1,0-.19"/><path class="cls-4" d="M24.28,20.53a3.57,3.57,0,0,1,.19.86s.38-1.13-.52-1.07l-.32.08s-.26.4.35.72l-.09-.2s.38-.1.3-.32a.27.27,0,0,0-.33-.16s.31-.09.42.09"/><path class="cls-4" d="M22.6,19.35a.19.19,0,0,0-.15.15l-.09,0a.93.93,0,0,0,.51.24s.28-.31.13-.48-.48,0-.48,0,.32-.08.41.06-.11.35-.11.35l-.08-.07a.82.82,0,0,0,.09-.19c0-.1-.1-.06-.23,0"/><path class="cls-4" d="M25.22,20.18c-.19-.38-.53-.41-.67-.22a.39.39,0,0,1,.52.18,2.65,2.65,0,0,1,.07,1.18,2,2,0,0,0,.08-1.14"/><path class="cls-4" d="M24.19,23.59h0c-.11,0-.15,0,0,0"/><path class="cls-4" d="M20.47,13.46h0s0,0,0,0l-.19,0-.45,0a3.82,3.82,0,0,1-.9-.1,2.76,2.76,0,0,1-.79-.3L17.77,13l.08-.16a1.29,1.29,0,0,1,.19-.32.66.66,0,0,1,.17-.16l.78.4c.48.23,1,.5,1.48.7m-2.88.64h0c-.18.08-.34.18-.5.27,0,0,0-.07,0-.11s.1-.25.16-.37.15-.24.21-.36a2,2,0,0,0,.19-.35s0,0,0,0l.27.15a3.63,3.63,0,0,0,.84.3A9.88,9.88,0,0,0,17.59,14.1Zm-1,2.4h0a2.42,2.42,0,0,0-.21.39,2.13,2.13,0,0,0-.1.42,4.34,4.34,0,0,0,0,.72c-.36-.07-.72-.15-1.07-.25a9.07,9.07,0,0,1-1.11-.4c-.18-.08-.34-.17-.5-.25a3.61,3.61,0,0,1-.43-.3,3.81,3.81,0,0,1-.36-.33l-.14-.18s-.06-.06-.07-.09l-.06-.1,0-.11h0l.27.08c.32.12.64.26,1,.41-.08.09-.17.26.07.43a.76.76,0,0,0,.9.06c.41.21.81.43,1.19.65l0,0a8.74,8.74,0,0,0-.87-.68c-.31-.21-.62-.42-1-.61s-.55-.3-.84-.44h.27a3.41,3.41,0,0,0,.63-.05,1.37,1.37,0,0,0,.61-.25,2,2,0,0,1,.38-.28,2.26,2.26,0,0,1,.44-.22,1.37,1.37,0,0,1,.73-.08.25.25,0,0,0,.15.05,1.5,1.5,0,0,1,.13.11.77.77,0,0,1,.12.17.66.66,0,0,1,.11.36A1.59,1.59,0,0,1,16.61,16.5Zm-1.87-3.18h0a1.89,1.89,0,0,1-.5-.39.28.28,0,0,1-.08-.19s0-.08,0-.12v0h0l0-.05a.82.82,0,0,1,.58-.22,3.93,3.93,0,0,1,.82.08,6.89,6.89,0,0,1,1.61.52l.06,0a1.25,1.25,0,0,0-.14.55,1.41,1.41,0,0,1-.21.74,2.1,2.1,0,0,1-.26.33l-.16.15,0,0a1.68,1.68,0,0,0-.44,0,1.78,1.78,0,0,0-.48.1l.08-.18.05-.15a.73.73,0,0,0-.38-.73A7,7,0,0,0,14.74,13.32ZM4.29,8.58c.68.25,1.47.52,2.34.8s1.81.58,2.85.83c.27.06.53.12.82.17l.43.08.48,0c.58,0,1.19,0,1.77-.09a9.11,9.11,0,0,1,1.73,0,1.61,1.61,0,0,1,.68.23,6.05,6.05,0,0,0,.63.48,19,19,0,0,0,2,1.17,1.08,1.08,0,0,0-.24.11,1.31,1.31,0,0,0-.36.34l-.05.08,0,0a8.52,8.52,0,0,0-1.63-.59,4,4,0,0,0-.93-.12,1.24,1.24,0,0,0-.89.31l-.07.08,0,0v0h0l0,0a.34.34,0,0,0,0,.16.5.5,0,0,0,.11.36,2.55,2.55,0,0,0,.57.48c.41.25.78.51.82.77v.11l0,.1a1.13,1.13,0,0,1-.11.22.47.47,0,0,1-.06.09l0,0a3.89,3.89,0,0,0-.47-.39,3.24,3.24,0,0,0-.63-.26c-.38-.13-.75-.25-1.07-.38a4.59,4.59,0,0,1-1.45-.88,1.73,1.73,0,0,1-.5-.79l-.06-.3h-.05v.32a1.71,1.71,0,0,0,.42.86,4.38,4.38,0,0,0,1.45,1,11,11,0,0,0,1.08.43,2.32,2.32,0,0,1,.52.22,2.2,2.2,0,0,1,.41.36,1,1,0,0,0,.14.11l0,0a3.53,3.53,0,0,0-.39.32,1.68,1.68,0,0,1-.93.29l-.57,0-.24-.08a.87.87,0,0,0-.19,0h-.11a.43.43,0,0,0-.16,0,.84.84,0,0,0-.2,0,.4.4,0,0,0-.13.13.25.25,0,0,0,0,.2.79.79,0,0,0,.1.27l.06.1a.52.52,0,0,0,.08.11l.17.22a3.19,3.19,0,0,0,.44.37,3.68,3.68,0,0,0,.51.32c.18.09.37.18.57.26a8.79,8.79,0,0,0,2.53.56h.05c.06,0,.11-.05.1-.1a2.46,2.46,0,0,1-.05-.81,1.34,1.34,0,0,1,.31-.77,2.14,2.14,0,0,0,.41-.81.92.92,0,0,0-.06-.46,1,1,0,0,0-.11-.21l-.12-.13.44-.21.59-.35a7,7,0,0,0,1-.78,4,4,0,0,0,.85.1,4,4,0,0,0,.49,0,1.45,1.45,0,0,0,.26-.07.29.29,0,0,0,.11-.06l0,0h0s.07,0,0-.11h0a15.25,15.25,0,0,1-1.5-.79,33,33,0,0,1-2.82-1.72,7.66,7.66,0,0,1-.6-.49,2.09,2.09,0,0,0-.93-.34,9.23,9.23,0,0,0-1.89,0c-.6,0-1.17.08-1.73.08a9.49,9.49,0,0,1-1.54-.25c-1-.25-2-.52-2.84-.77-1.75-.52-3.2-1-4.21-1.28L1,7.31l0,0,1.52.59C3,8.12,3.6,8.34,4.29,8.58Z"/><path class="cls-4" d="M1,10.67a39.57,39.57,0,0,0,9.82,1.61Z"/><path class="cls-4" d="M11.9,15.4a1.71,1.71,0,0,1,.27-.09l.29-.09h-.09a1.89,1.89,0,0,0-.24,0,1.47,1.47,0,0,0-.33,0,.78.78,0,0,0-.35.15.37.37,0,0,0-.18.27.27.27,0,0,0,0,.13.37.37,0,0,0,.05.11.55.55,0,0,0,.2.18.78.78,0,0,1-.06-.21.36.36,0,0,1,.16-.36,1.26,1.26,0,0,1,.26-.13"/><path class="cls-4" d="M11.06,15.06a.69.69,0,0,1,.23-.17l.3-.09a1.39,1.39,0,0,1,.23-.05l.1,0h-.1a.94.94,0,0,0-.26,0,1.37,1.37,0,0,0-.38.05,1.11,1.11,0,0,0-.19.09.48.48,0,0,0-.16.12.6.6,0,0,0-.13.3.67.67,0,0,0,.05.26.65.65,0,0,0,.15.23,1.56,1.56,0,0,1,0-.24.67.67,0,0,1,.16-.45"/><path class="cls-4" d="M17.29,18.16s0,.08-.07.11a.62.62,0,0,1-.22.17,2.67,2.67,0,0,1-.31.13h.11a2,2,0,0,0,.27,0l.18-.06a.57.57,0,0,0,.16-.11.48.48,0,0,0,.18-.31.83.83,0,0,0-.17-.57,1.05,1.05,0,0,0-.21-.22l.07.25c0,.07,0,.16,0,.25a1.22,1.22,0,0,1,0,.27.5.5,0,0,1,0,.13"/><path class="cls-4" d="M18.32,18.28a.47.47,0,0,1-.1.1s-.06.07-.1.09l-.09.07L18,18.6l.11,0a1.18,1.18,0,0,0,.27-.12.49.49,0,0,0,.15-.1.42.42,0,0,0,.12-.15.43.43,0,0,0,0-.38,1.21,1.21,0,0,0-.52-.55,2,2,0,0,0-.35-.17l.23.24a1.7,1.7,0,0,1,.22.24,1.33,1.33,0,0,1,.16.28.4.4,0,0,1,0,.15.22.22,0,0,1,0,.14.38.38,0,0,1-.06.13"/><path class="cls-4" d="M13.69,2.8h.15c.44,0,.86-.21.86-1,0-.6-.27-.93-.82-.93l-.19,0ZM13.3.69a2.73,2.73,0,0,1,.53,0,1.57,1.57,0,0,1,.81.18,1,1,0,0,1,.47,1,1.17,1.17,0,0,1-.42,1,1.56,1.56,0,0,1-.95.25L13.3,3Z"/><path class="cls-4" d="M16.64,2h0c0-.34-.18-.49-.37-.49s-.39.26-.4.49Zm-.78.2c0,.52.31.63.59.63a1.15,1.15,0,0,0,.41-.06l.06.2a1.75,1.75,0,0,1-.54.08.8.8,0,0,1-.9-.85.81.81,0,0,1,.83-.9A.68.68,0,0,1,17,2a.62.62,0,0,1,0,.15Z"/><path class="cls-4" d="M17.93.87v.45h.47v.21h-.47v1c0,.22.11.28.26.28h.15l0,.21a1.07,1.07,0,0,1-.29,0,.69.69,0,0,1-.39-.1.49.49,0,0,1-.15-.43v-1h-.3V1.32h.3V1Z"/><path class="cls-4" d="M18.75,3h0V1.32h.39V3ZM19.17.88c0,.11-.09.18-.24.18a.2.2,0,0,1-.22-.18c0-.11.1-.17.23-.17S19.17.77,19.17.88Z"/><path class="cls-4" d="M20.75,2h0c0-.34-.18-.49-.37-.49S20,1.76,20,2Zm-.78.2c0,.52.3.63.59.63a1.09,1.09,0,0,0,.4-.06L21,3a1.77,1.77,0,0,1-.55.08.8.8,0,0,1-.9-.85.82.82,0,0,1,.84-.9.68.68,0,0,1,.7.75v.15Z"/><path class="cls-4" d="M21.55,1.76c0-.2,0-.3,0-.44h.34l0,.2h0a.74.74,0,0,1,.57-.23.54.54,0,0,1,.6.59V3h-.4V1.92c0-.2-.05-.4-.34-.4A.37.37,0,0,0,22,1.8a.61.61,0,0,0,0,.15V3h-.39Z"/><path class="cls-4" d="M24.67,2h0c0-.34-.18-.49-.36-.49s-.39.26-.41.49Zm-.77.2c0,.52.3.63.58.63a1.11,1.11,0,0,0,.41-.06L25,3a1.77,1.77,0,0,1-.55.08.8.8,0,0,1-.9-.85.82.82,0,0,1,.84-.9.68.68,0,0,1,.7.75v.15Z"/><path class="cls-4" d="M26.21,2.74a1,1,0,0,0,.4.08c.23,0,.37-.09.37-.24s-.07-.22-.32-.33-.5-.29-.5-.49.3-.47.68-.47a1.18,1.18,0,0,1,.45.09l-.11.2a.81.81,0,0,0-.33-.07c-.21,0-.32.1-.32.21s.06.18.31.3.51.28.51.51S27,3,26.61,3a1.09,1.09,0,0,1-.49-.1Z"/><path class="cls-4" d="M29.24,2.55c0,.19,0,.34,0,.47h-.34l0-.18h0a.78.78,0,0,1-.54.21c-.43,0-.6-.24-.6-.66V1.32h.39v1c0,.27.06.47.34.47a.34.34,0,0,0,.35-.23.68.68,0,0,0,0-.15V1.32h.39Z"/><path class="cls-4" d="M29.73,2.74a1,1,0,0,0,.4.08c.22,0,.36-.09.36-.24s-.07-.22-.32-.33-.49-.29-.49-.49.29-.47.68-.47a1.16,1.16,0,0,1,.44.09l-.1.2a.84.84,0,0,0-.33-.07c-.22,0-.32.1-.32.21s.06.18.3.3.51.28.51.51-.33.51-.74.51a1.15,1.15,0,0,1-.49-.1Z"/><path class="cls-4" d="M10.75,4.92a4.13,4.13,0,0,0,0-.44h.35l0,.21h0a.69.69,0,0,1,.56-.24.53.53,0,0,1,.51.26h0a.79.79,0,0,1,.25-.2.9.9,0,0,1,.34-.06.54.54,0,0,1,.6.6V6.18H13V5.11c0-.22-.05-.43-.35-.43a.37.37,0,0,0-.36.25.68.68,0,0,0,0,.15v1.1h-.39V5.06c0-.19,0-.38-.34-.38a.37.37,0,0,0-.37.27.68.68,0,0,0,0,.15V6.18h-.38Z"/><path class="cls-4" d="M14.2,5.33h0c0,.28.08.66.43.66s.41-.4.41-.66-.07-.66-.42-.66-.42.4-.42.66m1.24,0a.79.79,0,0,1-.83.87.77.77,0,0,1-.8-.87.8.8,0,0,1,.83-.88A.78.78,0,0,1,15.44,5.33Z"/><path class="cls-4" d="M16,4.48l.31.95a3.63,3.63,0,0,1,.11.42h0a2.58,2.58,0,0,1,.1-.42l.31-.95h.39l-.65,1.7h-.35l-.65-1.7Z"/><path class="cls-4" d="M17.62,6.18h0V4.48H18v1.7ZM18,4c0,.1-.09.17-.24.17s-.22-.07-.22-.17.1-.18.23-.18S18,3.93,18,4Z"/><path class="cls-4" d="M18.56,4.92c0-.21,0-.31,0-.44h.34l0,.21h0a.69.69,0,0,1,.56-.24.55.55,0,0,1,.52.26h0a.66.66,0,0,1,.24-.2,1,1,0,0,1,.35-.06.54.54,0,0,1,.59.6V6.18h-.39V5.11c0-.22-.05-.43-.35-.43a.38.38,0,0,0-.36.25.68.68,0,0,0,0,.15v1.1h-.39V5.06c0-.19-.05-.38-.34-.38A.37.37,0,0,0,19,5a.71.71,0,0,0,0,.15V6.18h-.39Z"/><path class="cls-4" d="M21.73,6.18h0V4.48h.39v1.7ZM22.16,4c0,.1-.1.17-.24.17s-.23-.07-.23-.17.1-.18.23-.18S22.16,3.93,22.16,4Z"/><path class="cls-4" d="M23.73,5.15h0c0-.34-.18-.49-.37-.49s-.39.26-.41.49Zm-.78.2c0,.52.3.63.59.63A1.43,1.43,0,0,0,24,5.92l.06.2a1.75,1.75,0,0,1-.54.08.81.81,0,0,1-.91-.86.81.81,0,0,1,.84-.89.68.68,0,0,1,.71.75.66.66,0,0,1,0,.15Z"/><path class="cls-4" d="M24.53,4.92c0-.21,0-.31,0-.44h.34l0,.2h0a.71.71,0,0,1,.57-.23.54.54,0,0,1,.6.58V6.18h-.39V5.08c0-.2-.06-.4-.35-.4a.37.37,0,0,0-.37.27.77.77,0,0,0,0,.15V6.18h-.39Z"/><path class="cls-4" d="M27.05,4v.45h.48v.2h-.48v1c0,.22.12.28.26.28h.16l0,.21a1.17,1.17,0,0,1-.29,0,.58.58,0,0,1-.39-.11c-.1-.07-.15-.19-.15-.42v-1h-.3v-.2h.3V4.1Z"/><path class="cls-4" d="M28.12,5.33h0c0,.28.07.66.43.66s.41-.4.41-.66-.07-.66-.42-.66-.42.4-.42.66m1.24,0a.79.79,0,0,1-.83.87.77.77,0,0,1-.8-.87.8.8,0,0,1,.83-.88A.78.78,0,0,1,29.36,5.33Z"/><path class="cls-4" d="M29.73,5.89a1,1,0,0,0,.4.09c.22,0,.36-.09.36-.24s-.07-.22-.32-.34-.49-.28-.49-.48.29-.47.68-.47a1,1,0,0,1,.44.09l-.11.2a.76.76,0,0,0-.32-.07c-.22,0-.32.1-.32.21s.06.18.3.3.51.28.51.51-.33.51-.74.51a1.15,1.15,0,0,1-.49-.1Z"/><path class="cls-4" d="M19.47,8.45h0c-.2,0-.68,0-.68.4a.28.28,0,0,0,.3.3.36.36,0,0,0,.37-.26.28.28,0,0,0,0-.09Zm.06.88,0-.18h0a.65.65,0,0,1-.5.21.52.52,0,0,1-.58-.48c0-.43.49-.62,1.05-.62v0c0-.23-.08-.39-.39-.39a.86.86,0,0,0-.41.09l-.09-.19a1.31,1.31,0,0,1,.58-.11c.5,0,.71.22.71.6V9a1.54,1.54,0,0,0,0,.38Z"/><rect class="cls-4" x="20.41" y="6.9" width="0.39" height="2.43"/><path class="cls-4" d="M22.48,8.48h0c0,.28.07.67.43.67s.4-.4.4-.67-.06-.66-.41-.66-.42.4-.42.66m1.23,0a.79.79,0,0,1-.82.88.78.78,0,0,1-.81-.87.79.79,0,0,1,.83-.88A.78.78,0,0,1,23.71,8.48Z"/><path class="cls-4" d="M24.15,9.33h0V7.63h.4v1.7Zm.43-2.14c0,.11-.1.18-.24.18s-.23-.07-.23-.18.1-.17.23-.17S24.58,7.09,24.58,7.19Z"/><path class="cls-4" d="M25.09,8.07c0-.14,0-.31,0-.44h.35l0,.27h0A.59.59,0,0,1,26,7.61h.09v.28H26a.46.46,0,0,0-.47.36.61.61,0,0,0,0,.15v.94h-.39Z"/><path class="cls-4" d="M28.65,8.87c0,.19,0,.34,0,.46h-.34l0-.18h0a.69.69,0,0,1-.53.21c-.44,0-.6-.23-.6-.65V7.63h.39v1c0,.27.06.46.33.46a.36.36,0,0,0,.36-.22.78.78,0,0,0,0-.16V7.63h.39Z"/><path class="cls-4" d="M29.2,8.07c0-.2,0-.3,0-.44h.35l0,.21h0a.67.67,0,0,1,.56-.23.53.53,0,0,1,.6.58V9.33h-.39V8.24c0-.2-.06-.41-.34-.41a.38.38,0,0,0-.38.28.71.71,0,0,0,0,.15V9.33h-.4Z"/><path class="cls-4" d="M20.75,12.21a1,1,0,0,0,.4.09c.23,0,.37-.1.37-.25s-.07-.22-.32-.33-.5-.29-.5-.49.3-.47.68-.47a1.18,1.18,0,0,1,.45.09l-.11.2a.81.81,0,0,0-.33-.07c-.21,0-.32.11-.32.21s.06.18.31.3.51.28.51.51-.34.51-.74.51a1.12,1.12,0,0,1-.49-.1Z"/><path class="cls-4" d="M22.59,11.64h0c0,.28.07.66.43.66s.4-.4.4-.66S23.35,11,23,11s-.42.4-.42.66m1.23,0a.79.79,0,0,1-.82.88.78.78,0,0,1-.81-.88.8.8,0,0,1,.83-.88A.78.78,0,0,1,23.82,11.64Z"/><path class="cls-4" d="M24.26,11.23c0-.2,0-.3,0-.44h.34l0,.2h0a.74.74,0,0,1,.57-.23.54.54,0,0,1,.6.59v1.14h-.39v-1.1c0-.2-.06-.4-.35-.4a.38.38,0,0,0-.37.28.61.61,0,0,0,0,.15v1.07h-.39Z"/><path class="cls-4" d="M26.33,12.49h0v-1.7h.4v1.7Zm.43-2.14c0,.11-.1.18-.24.18s-.23-.07-.23-.18.1-.17.23-.17S26.76,10.25,26.76,10.35Z"/><path class="cls-4" d="M28.37,11.44h0v-.12A.39.39,0,0,0,28,11c-.33,0-.44.32-.44.66s.13.64.42.64a.38.38,0,0,0,.38-.29.37.37,0,0,0,0-.11Zm.39-1.38v2c0,.12,0,.31,0,.41h-.34l0-.22h0a.58.58,0,0,1-.51.25c-.42,0-.72-.31-.72-.87s.36-.89.74-.89a.5.5,0,0,1,.45.21h0v-.91Z"/><path class="cls-4" d="M29.6,11.64h0c0,.28.07.66.43.66s.41-.4.41-.66S30.37,11,30,11s-.42.4-.42.66m1.23,0a.79.79,0,0,1-.82.88.77.77,0,0,1-.8-.88.8.8,0,0,1,.83-.88A.78.78,0,0,1,30.83,11.64Z"/></svg>