<svg id="Capa_1" data-name="Capa 1" xmlns="http://www.w3.org/2000/svg" viewBox="0 0 32.44 29.34"><defs><style>.cls-1{fill:#b3d335;}.cls-2{fill:#fccdb5;}.cls-3{fill:#231f20;}.cls-4{fill:#6d6f71;}</style></defs><title>7-1mes</title><path class="cls-1" d="M10.13,21.08a10.31,10.31,0,0,0-2.7,1,1.82,1.82,0,0,0-.83,2,40.45,40.45,0,0,0,2.31,4.34l.21.37,7.36-.05,6.94-1s.66.66.79.66l2.31.14h5.21V22.17l-3.26-2.06s-16.19-.66-18.34,1"/><path class="cls-2" d="M16.32,28.74S10.85,28,9.81,26s.15-2.61.83-2.92.45-.35.45-.35-1.73-3-.75-3.94a6.71,6.71,0,0,1,4.79-1.57s-2-1.47-2-2.77a4,4,0,0,1,1.08-2.79c.19,0,10.27-.91,10.73-.89s0,2.07,1.66,4.61-1.26,3.1-1.26,3.1L24,18.29s3.26,1.22,4.19,1.44a5.6,5.6,0,0,1,2.2,1,9.09,9.09,0,0,1-2,1c-1,.53-3.94,1.64-4.19.38a2.17,2.17,0,0,0-2-1.82,8.2,8.2,0,0,0-1.16.5,4.49,4.49,0,0,1-1.52.28s-.4.06-.46.34-.12.58-.12.58l-1.12.62.22.26a32.42,32.42,0,0,0,3.41,0,4.73,4.73,0,0,1,2.33.14c.26.13,2.55,2.12,3.24,2.59s1,1.25,0,1.65-2.94.55-3.41.11l-.47-.44.49,1a47.15,47.15,0,0,1-7.32.81"/><path class="cls-3" d="M15.35,15.93a1,1,0,0,1,.2-.06l.23-.06a3.07,3.07,0,0,1,.59-.12c.22,0,.45,0,.67,0h.59l.59,0,0,0-.57-.14a7.14,7.14,0,0,0-1.32-.18,4.12,4.12,0,0,0-.78,0,1.27,1.27,0,0,0-.59.31.39.39,0,0,0-.14.35.36.36,0,0,0,0,.13H15a1,1,0,0,1,.4-.24"/><path class="cls-3" d="M15.78,16.17s.58.28.54.56a.71.71,0,0,1-.27.45s1.47,0,1.93-1l-1.1.5a2.82,2.82,0,0,0-1.1-.5"/><path class="cls-3" d="M13.09,19.94a3,3,0,0,1,1.71-.38l-.56-.22.56-.11s-1.44-.4-1.71.71"/><path class="cls-3" d="M16.2,20.16s.2-.21.08-.28-.4.28-.4.28c-.06.23.32,0,.32,0"/><path class="cls-3" d="M16.71,19.81s-.24.11,0,.26.3-.15,0-.26"/><path class="cls-3" d="M17,20.79c.53-.1.56-.64.34-.36a8.07,8.07,0,0,1-2.25.53A3.63,3.63,0,0,0,17,20.79"/><path class="cls-3" d="M17.16,21.08s-1,.32-.56.44,1.21-.28.56-.44"/><path class="cls-3" d="M13.72,18.6c.86-.26.93,0,.93,0,.21-.18-.25-.52-1.15-.12a2.74,2.74,0,0,0-1.27,1.39,3.28,3.28,0,0,1,1.49-1.27"/><path class="cls-3" d="M12.07,21.92,12,21.84a.28.28,0,0,0,.12.08"/><path class="cls-3" d="M31.13,28a2.44,2.44,0,0,0-.82-1,3.32,3.32,0,0,0-.69-.39,3.53,3.53,0,0,0-.71-.21,2.5,2.5,0,0,0-.76,0s.27.1.61.26a6.42,6.42,0,0,1,1.09.66c.09.07.19.13.27.2s.18.13.25.21.3.26.43.38.24.21.32.28l.14.1a.72.72,0,0,0,0-.14,1.48,1.48,0,0,0-.11-.35"/><path class="cls-3" d="M30.11,22.11h0a4.23,4.23,0,0,0-.57.27,6.1,6.1,0,0,0-.54.34,4.74,4.74,0,0,0-.49.4,4.65,4.65,0,0,0-.76.87,4,4,0,0,0-.45.82,3,3,0,0,0-.2.68c-.24-.22-.52-.41-.75-.61A9.22,9.22,0,0,1,25,23.48a2.09,2.09,0,0,0-1-.66,4.9,4.9,0,0,0-1.32-.19,10.6,10.6,0,0,0-1.28.08l-.6.07c-.18,0-.4,0-.61,0-.72,0-1.44,0-2.15.1l.27-.12a2.44,2.44,0,0,0,.74-.56,1.91,1.91,0,0,0,.24-.34,1.51,1.51,0,0,0,.14-.35,1.87,1.87,0,0,0,0-.32,1.64,1.64,0,0,0,.66,0,2.58,2.58,0,0,0,.37-.06l.31-.09a5.16,5.16,0,0,0,1.39-.79,3.29,3.29,0,0,1,.46.14,1.76,1.76,0,0,1,.92.74,2.07,2.07,0,0,1,.22.65,1.32,1.32,0,0,0,.5.82,1.27,1.27,0,0,0,.69.17,3.5,3.5,0,0,0,.66-.11l1.25-.32c.83-.23,1.61-.5,2.36-.76.23-.08.46-.17.68-.27a1.57,1.57,0,0,0,.27.33,3.65,3.65,0,0,0,.32.26,3.61,3.61,0,0,0-.42.16m-2.63,4.28h0a.54.54,0,0,1-.25.72,2.46,2.46,0,0,1-1.06.35,4.07,4.07,0,0,1-.61.07,4,4,0,0,1-.6,0,2.45,2.45,0,0,1-1.07-.24.67.67,0,0,1-.25-.32,2.87,2.87,0,0,1-.18-.4c-.11-.27-.21-.55-.29-.82l-.08-.25-.33.15a6.23,6.23,0,0,1-.92.33,2.49,2.49,0,0,1-.91.1,1.09,1.09,0,0,1-.17-.05L20.51,26,20,25.8,19,25.49l-.12,0-.12,0-1.16.32-.28.08.08.2.31.72.06.14.2,0,.13,0,.13,0a.43.43,0,0,1,.18.08s0,0,0,0a3.1,3.1,0,0,1-1.09-.39.52.52,0,0,1-.16-.18c0-.07-.06-.19-.1-.28s-.16-.38-.22-.56a.86.86,0,0,1,0-.52.27.27,0,0,1,.19-.15l.38-.12,1.54-.53,0,0-1.62.39-.41.1a.63.63,0,0,0-.39.27.87.87,0,0,0-.05.65c0,.2.1.39.15.58s.05.18.09.3a.54.54,0,0,0,.15.23l-.08-.06a1.46,1.46,0,0,1-.35-.63,6.15,6.15,0,0,1-.2-.82c0-.14-.05-.28-.07-.42l0-.2v0a2.67,2.67,0,0,1,.42-.16l.46-.12,1-.23a7,7,0,0,0-1.1,0,3.58,3.58,0,0,0-.53.06,1.91,1.91,0,0,0-.64.17.47.47,0,0,0-.17.15l0,.12v.06a.89.89,0,0,0,0,.23,3.47,3.47,0,0,0,.06.45,3.42,3.42,0,0,0,.29.87l0,.05-.34-.16a.39.39,0,0,1-.12-.18,3.52,3.52,0,0,1-.17-1.13v-.39l.29-.12.38-.11c.53-.13,1.09-.25,1.64-.36l1.66-.35-1.69,0H16.46c-.71.1-1.41.21-2.12.29a7.29,7.29,0,0,1-1,0,1.76,1.76,0,0,1-.44-.07h0l.1,0,.23-.07.5-.12c.33-.09.68-.17,1-.28l.28-.11.12-.07.07,0a1.37,1.37,0,0,1,.41-.1c.22,0,.45.05.68.06s.34,0,.52,0H17l.24,0a3.27,3.27,0,0,0,.56-.12h0l2.34.08c.2,0,.39,0,.63,0l.65,0a9.75,9.75,0,0,1,1.2,0,3.43,3.43,0,0,1,1.1.18,1.66,1.66,0,0,1,.77.51A7,7,0,0,0,26,25.08c.3.21.62.39.88.6A1.8,1.8,0,0,1,27.48,26.39Zm.5.29h0a1.48,1.48,0,0,1,.18.47.83.83,0,0,1-.07.49.79.79,0,0,1-.44.37,2.41,2.41,0,0,1-.77.2,4.85,4.85,0,0,1-.87.08,8.19,8.19,0,0,1-.86,0,5.7,5.7,0,0,1-.77-.11l-.28-.08L24,28l-.1-.09a2,2,0,0,1-.33-.5.41.41,0,0,0,.11.07,2.86,2.86,0,0,0,1.28.24,6.39,6.39,0,0,0,.64,0q.32,0,.63-.09a3.13,3.13,0,0,0,1.15-.39.7.7,0,0,0,.34-.86l0-.1A3.2,3.2,0,0,1,28,26.68Zm-7.56.06h0c-.21.13-.45.29-.75.46s-.56.29-.88.44l.08-.1a.64.64,0,0,0,.16-.33.44.44,0,0,0-.18-.38,1.08,1.08,0,0,0-.4-.2l-.2-.06h0l-.16-.4.76-.21.9.23.49.16.24.08a1.2,1.2,0,0,0,.3.07C20.67,26.57,20.57,26.65,20.42,26.74Zm-4.35-2h0S16.07,24.75,16.07,24.74Zm0,0Zm-1.25-.57h0l-.14.1a.31.31,0,0,0-.07.09l0,.07v0c0,.06,0,.12,0,.17s0,.21,0,.32a4.21,4.21,0,0,0,.09.49,5.43,5.43,0,0,0-.79-.61,6.88,6.88,0,0,0-1.08-.59l-.15-.06h0a3.28,3.28,0,0,0,.61,0,7.53,7.53,0,0,0,1.09-.15c.52-.09,1-.16,1.56-.22l-.24.05-.43.1A2.36,2.36,0,0,0,14.82,24.16Zm2.46,4h0a6,6,0,0,1-.76.13,5.75,5.75,0,0,1-.8,0A14,14,0,0,1,13.94,28a13.36,13.36,0,0,1-1.76-.45,5.84,5.84,0,0,1-1.52-.76,3.33,3.33,0,0,1-1-1,2,2,0,0,1-.27-1.11,1.36,1.36,0,0,1,.4-.89,1.2,1.2,0,0,1,.2-.18,1,1,0,0,1,.21-.11,1.69,1.69,0,0,1,.5-.14l.49,0a1.87,1.87,0,0,0,.48.12,2.07,2.07,0,0,0,.46,0h.16v0h0l.17,0,0,0-.06,0,.06,0-.71-.24h1.26L12.85,23a.85.85,0,0,0,.24-.08.72.72,0,0,0,.21-.16.38.38,0,0,0,.08-.11l1.4.24h0l-.09,0-.21.07-1,.24c-.17,0-.34.08-.51.12l-.26.08-.14.05a.67.67,0,0,0-.19.11l0,.05a.21.21,0,0,0-.05.12.2.2,0,0,0,.08.2l.1.07L12.23,24a2.36,2.36,0,0,0,.32.39,6.14,6.14,0,0,0,.9.72,7.69,7.69,0,0,0,1.08.58l.26.11a2.23,2.23,0,0,0,.17.35.72.72,0,0,0,.38.3l.41.12.29.07.05.07a1.17,1.17,0,0,0,.38.31,3.33,3.33,0,0,0,.4.16,1.65,1.65,0,0,0,.33.09,1,1,0,0,0,.22,0,1.3,1.3,0,0,0,.25.1,5.7,5.7,0,0,0,.86.23l.18,0-.09,0A7.53,7.53,0,0,1,17.28,28.14ZM12.4,17.77h0c.34-.07.68-.17,1-.23s.52-.09.75-.12l.51,0-.13-.08h.34a3.13,3.13,0,0,1,.41,0s0,.06,0,.09a3.94,3.94,0,0,1,0,1,3.93,3.93,0,0,0,0,.52v.06l0,.1a.43.43,0,0,0,.14.2.88.88,0,0,0,.57.2,2.82,2.82,0,0,0,.85-.15l.17-.08,0,0a.93.93,0,0,0,.19.11l.18.05.09,0h.09l.17,0h.18a2.38,2.38,0,0,0,.39,0c-.07.09-.15.17-.21.26a.67.67,0,0,0-.12.27.25.25,0,0,0,.15.25h.1l.12,0a1.46,1.46,0,0,0,.41,0h.07a1.57,1.57,0,0,0,.08.29.9.9,0,0,0,.35.38,2.21,2.21,0,0,1-.67.89c-.09.08-.2.15-.3.23a2.86,2.86,0,0,1-.35.18,2.39,2.39,0,0,1-.37.15,3.31,3.31,0,0,1-.39.11l-.24,0H16.7l-.48,0c-.32,0-.64,0-1,0a6,6,0,0,1-1.91-.28l-.08,0-.1.08c-.05,0-.08.09-.13.11a.74.74,0,0,1-.15.08h-.16l-.17,0a3,3,0,0,1-.72-.32l-.33-.22L11.34,22a.47.47,0,0,1-.13-.11.37.37,0,0,1-.06-.1s0,0,0-.07a.93.93,0,0,1,.33-.09,1.59,1.59,0,0,1,.43.18,2,2,0,0,1-.39-.67l.54.64a6.83,6.83,0,0,0-.39-.89,1.24,1.24,0,0,0-1-.58h.7l-1.15-.7h1.07l-.52-.2.84-.09-1-.32L12,18.83l-.91-.33.67-.1L11,18.29l1.25-.08L11.65,18C11.9,17.88,12.15,17.83,12.4,17.77Zm6,2.28Zm-3.92-3.72h0a2.22,2.22,0,0,1-.32-.42,4,4,0,0,1-.26-.45,2.85,2.85,0,0,1-.17-.46,2.72,2.72,0,0,1,0-1.69,3,3,0,0,0,1.4.87c1.6.5,1.65.94,4.06.61s3.13.5,3.36,1.05a3.14,3.14,0,0,1,.26,1,3.28,3.28,0,0,0-.47-1.81,2,2,0,0,1,.71,1.11s0-.25-.06-.6l.37.35a3.42,3.42,0,0,0-.77-1.61,1.6,1.6,0,0,1-.31-.36,2,2,0,0,1,.22-.67.65.65,0,0,1,.59-.39,1.3,1.3,0,0,1,.74.34,2.81,2.81,0,0,1,.51.59,2.24,2.24,0,0,1,.3.65,2.1,2.1,0,0,1,.06.33V15c0,.06,0,.1,0,.17a2.54,2.54,0,0,1-.17.67.64.64,0,0,1-.17.24c-.06,0-.06,0-.11,0l-.13,0a.4.4,0,0,0-.11,0c-.14,0-.23.11-.2.21a3,3,0,0,1,.07.43,3.55,3.55,0,0,1,0,.46c0,.15,0,.31,0,.46a1.63,1.63,0,0,1-.08.44,4.41,4.41,0,0,1-1.17,1.65,6.25,6.25,0,0,1-.89.7l-.51.29a4.41,4.41,0,0,1-.56.23L20.4,21l-.31,0a1,1,0,0,1-.53-.08.42.42,0,0,1-.16-.13s0,0,0,0h0a.75.75,0,0,1-.13-.58.13.13,0,0,0,0-.06.26.26,0,0,0-.29-.1h0a1.75,1.75,0,0,1-.24,0,.7.7,0,0,1-.21,0l.07-.11a4.49,4.49,0,0,1,.7-.67.16.16,0,0,0,0-.22.36.36,0,0,0-.39-.09h0l-.48.12a2.7,2.7,0,0,1-.49,0h-.32l-.09,0,0,0v0l-.38-.32a4.12,4.12,0,0,1-.58.23,1.73,1.73,0,0,1-.54.1c-.07,0-.07,0-.07,0v0s0,0,0,0V19c0-.13,0-.32,0-.48a4.47,4.47,0,0,0,0-1,1,1,0,0,0-.06-.27.62.62,0,0,0-.26-.33,1.8,1.8,0,0,0-.41-.14l-.26-.09A1.62,1.62,0,0,1,14.49,16.33Zm-.79-3.1h0v0Zm14.64,7.16h0a1.42,1.42,0,0,0,1.2.6l-.6.25-1.09.45c-.38.15-.74.32-1.11.49a7.47,7.47,0,0,1-1.15.41,2.05,2.05,0,0,1-.6.07.65.65,0,0,1-.43-.16,1.18,1.18,0,0,1-.21-.72,1.64,1.64,0,0,0-.28-.75,1.77,1.77,0,0,0-.63-.53,2.1,2.1,0,0,0-.68-.23,3.26,3.26,0,0,0-.47,0c.19-.14.37-.29.55-.45A8.08,8.08,0,0,0,23.6,19c.1-.12.2-.25.29-.38A4.29,4.29,0,0,0,26.31,20,18.87,18.87,0,0,0,28.34,20.39Zm3.53,1.3H31.8l-.12-1.58s-.17-.56-.95-.39h0c0-.06,0-.12,0-.18a1.38,1.38,0,0,0-1.06-1.33C29.26,17,28.4,15.7,28.24,15A10.08,10.08,0,0,0,23.86,9.7a9.57,9.57,0,0,0-6.79-.64c-1.88.5-3.1,2.3-4.21,3s-1.69,1.79-.61,2.64a2.12,2.12,0,0,0,1.21.68l0,.14a3.81,3.81,0,0,0,.23.5,3.08,3.08,0,0,0,.32.48,1.76,1.76,0,0,0,.52.43,1.11,1.11,0,0,0,.19.09l-.75.09a4.26,4.26,0,0,0-.77.06l-.38.07-.26,0h.08l-.47.12a4.21,4.21,0,0,0-1,.45,3.33,3.33,0,0,0-1.32,1.56,3.69,3.69,0,0,0-.26.9,4.12,4.12,0,0,0,0,.86l-.15,0a6.44,6.44,0,0,0-1.34.51c-.26.13-.52.29-.79.46a2.5,2.5,0,0,0-.76.64,2.15,2.15,0,0,0-.12,1.77,9.22,9.22,0,0,0,1.64,3,13.79,13.79,0,0,0,1.09,1.22s-.08-.13-.21-.37-.32-.56-.55-1-.48-.86-.72-1.36A8.88,8.88,0,0,1,7,24.52,2.09,2.09,0,0,1,7,23c.07-.18.37-.39.59-.57s.46-.34.68-.49a6.13,6.13,0,0,1,1.16-.62l.1,0a2.44,2.44,0,0,0,.22.8,2.22,2.22,0,0,0,.51.7,1.93,1.93,0,0,0,.36.28,2.14,2.14,0,0,0-1,.29,2.77,2.77,0,0,0-.26.19,1.5,1.5,0,0,0-.52,1.12,2,2,0,0,0,.51,1.21,6.87,6.87,0,0,0,1.16,1,9.29,9.29,0,0,0,1.49.88,11.07,11.07,0,0,0,1.76.61,15.4,15.4,0,0,0,1.86.32,5.14,5.14,0,0,0,1,0,5.87,5.87,0,0,0,.89-.16A6.37,6.37,0,0,0,18.93,28a6.82,6.82,0,0,0,1.68-1.17l.33-.33a3.17,3.17,0,0,0,.54,0,4.52,4.52,0,0,0,.58-.13,6.37,6.37,0,0,0,.7-.27,6.36,6.36,0,0,0,.28.59,4.23,4.23,0,0,0,.23.41.77.77,0,0,0,.09.13h0a1.42,1.42,0,0,0,.21.8.94.94,0,0,0,.09.12l.13.13a1.89,1.89,0,0,0,.41.18,4,4,0,0,0,.87.18,7.16,7.16,0,0,0,2,0,3.53,3.53,0,0,0,1-.28,1.48,1.48,0,0,0,.4-.27,1,1,0,0,0,.23-.34,1.14,1.14,0,0,0-.32-1.18,2.28,2.28,0,0,0-.4-.37L27.54,26l-.05,0a2.8,2.8,0,0,0-.33-.38h0l.47-.63c.18-.22.37-.48.61-.74s.25-.26.37-.4.26-.26.4-.39.28-.26.44-.38.3-.24.46-.34.31-.21.47-.29.29-.17.43-.23a2.68,2.68,0,0,0,1.06.38l-.07-.81Z"/><path class="cls-3" d="M4,12.62H4a2.3,2.3,0,0,1-.47-.25A1.47,1.47,0,0,1,3.19,12a.8.8,0,0,1-.07-.8,1.7,1.7,0,0,1,.65-.69,4.53,4.53,0,0,1,1-.42A7.68,7.68,0,0,1,6,9.91a12.09,12.09,0,0,1,1.21-.08c.39,0,.85,0,1.23,0A5.61,5.61,0,0,1,9,9.91a3.69,3.69,0,0,1,.58.09,3,3,0,0,1,1,.35A.82.82,0,0,1,11,11a1.27,1.27,0,0,1-.26.72,3.22,3.22,0,0,1-.65.69l-.19.17.24.09.14.09.14.11a3,3,0,0,1,.24.26,2.83,2.83,0,0,1,.38.59,5,5,0,0,1,.25.64c.05.16.09.33.13.5a6.35,6.35,0,0,0-.89-1.09,5.31,5.31,0,0,0-.67-.55,2.38,2.38,0,0,0-.45-.24,2,2,0,0,0-.6-.13H8.7A11.37,11.37,0,0,1,7.51,13c-.4,0-.8,0-1.2,0a9.4,9.4,0,0,1-1.2-.1A5,5,0,0,1,4,12.62m3.6.74a10.29,10.29,0,0,0,1.22-.19,1.58,1.58,0,0,1,.34.07,3.17,3.17,0,0,1,.38.17,6.45,6.45,0,0,1,.69.47A12.84,12.84,0,0,1,11.43,15l.06,0V15a3.9,3.9,0,0,0-.15-1.35A2.69,2.69,0,0,0,11,13a1.72,1.72,0,0,0-.24-.31.8.8,0,0,0-.17-.15h0a3.72,3.72,0,0,0,.64-.61,1.47,1.47,0,0,0,.37-.93A1.14,1.14,0,0,0,11,10a3.41,3.41,0,0,0-1.25-.45,5.07,5.07,0,0,0-.65-.09c-.22,0-.44,0-.67,0-.45,0-.84,0-1.29,0s-.86.07-1.28.14a8.22,8.22,0,0,0-1.23.32,4.36,4.36,0,0,0-1.06.52,2,2,0,0,0-.67.77,1,1,0,0,0,.08.89,1.53,1.53,0,0,0,.33.4,2.46,2.46,0,0,0,.48.31A4.58,4.58,0,0,0,5,13.21a6.08,6.08,0,0,0,1.29.18A8.22,8.22,0,0,0,7.59,13.36Z"/><path class="cls-3" d="M24,15h0s.07,0,0,0m-.54.09.25-.05a.76.76,0,0,1,.16,0,.14.14,0,0,0,.06.1.31.31,0,0,0,.09,0,.46.46,0,0,0,.36,0c.1-.07.09-.11.1-.13v0h0v-.17a2,2,0,0,0,0-.24,1.25,1.25,0,0,0-.23-.48,1,1,0,0,0-.23-.23.55.55,0,0,0-.4-.09v0c.09,0,.1.1.13.17l0,.21,0,.44a.06.06,0,0,0,0,0l-.18.09a.94.94,0,0,1-.2-.29,1.29,1.29,0,0,1-.06-.48,1,1,0,0,0-.06-.23.86.86,0,0,1,0-.15s0-.05,0-.09a1.44,1.44,0,0,1,.31-.07l0,0a.75.75,0,0,0-.39-.12.63.63,0,0,0-.27.06.43.43,0,0,0-.18.17.48.48,0,0,0,0,.33.57.57,0,0,0,.11.24c.11.15.28.28.37.43a1.44,1.44,0,0,1,.2.48Z"/><path class="cls-3" d="M24.52,15h0"/><path class="cls-3" d="M2.08,2.46a1.14,1.14,0,0,0,.48.1c.34,0,.55-.16.55-.4s-.18-.35-.44-.49S2.05,1.32,2.05,1s.34-.62.87-.62a1.17,1.17,0,0,1,.47.09l-.1.23A.91.91,0,0,0,2.9.63c-.32,0-.48.17-.48.34s.18.32.49.48.57.42.57.68c0,.41-.4.67-.92.67A1.43,1.43,0,0,1,2,2.7Z"/><path class="cls-3" d="M4.2,1.93h0c0,.28.07.66.42.66S5,2.19,5,1.93s-.06-.66-.39-.66-.41.4-.41.66m1.19,0a.78.78,0,0,1-.79.87.76.76,0,0,1-.78-.87.78.78,0,0,1,.8-.88C5,1.05,5.39,1.33,5.39,1.93Z"/><path class="cls-3" d="M5.81,1.52c0-.2,0-.31,0-.44h.32l0,.2h0a.68.68,0,0,1,.55-.23.53.53,0,0,1,.57.59V2.78H6.88V1.68c0-.2,0-.4-.32-.4a.36.36,0,0,0-.36.28.61.61,0,0,0,0,.15V2.78H5.81Z"/><path class="cls-3" d="M7.79,1.52c0-.15,0-.32,0-.44H8.1l0,.26h0a.57.57,0,0,1,.5-.29h.08v.28H8.63a.45.45,0,0,0-.45.35.78.78,0,0,0,0,.16v.94H7.79Z"/><path class="cls-3" d="M9,2.78H9V1.08h.37v1.7ZM9.77.38,9.26.86H9L9.38.38Z"/><path class="cls-3" d="M10.92,1.75h0c0-.34-.17-.49-.36-.49s-.37.26-.38.49Zm-.75.2c0,.52.29.63.57.63a1,1,0,0,0,.39-.06l.06.2a1.62,1.62,0,0,1-.52.08.79.79,0,0,1-.87-.86.8.8,0,0,1,.8-.89.67.67,0,0,1,.68.75V2Z"/><path class="cls-3" d="M13.61,2.73a.94.94,0,0,1-.39.07.8.8,0,0,1-.87-.86.94.94,0,0,1,1.27-.83l-.07.22a.76.76,0,0,0-.27-.05c-.38,0-.55.32-.55.66s.21.63.56.63a.77.77,0,0,0,.27,0Z"/><path class="cls-3" d="M14.18,1.93h0c0,.28.07.66.41.66s.39-.4.39-.66-.06-.66-.4-.66-.4.4-.4.66m1.18,0a.77.77,0,0,1-.79.87.76.76,0,0,1-.77-.87.78.78,0,0,1,.8-.88C15,1.05,15.36,1.33,15.36,1.93Z"/><path class="cls-3" d="M15.78,1.52c0-.2,0-.31,0-.44h.33l0,.2h0a.65.65,0,0,1,.55-.23.53.53,0,0,1,.57.59V2.78h-.38V1.68c0-.2-.05-.4-.33-.4a.37.37,0,0,0-.36.28s0,.09,0,.15V2.78h-.38Z"/><rect class="cls-3" x="18.54" y="0.35" width="0.38" height="2.43"/><path class="cls-3" d="M20.36,1.9h0c-.2,0-.66,0-.66.39a.28.28,0,0,0,.29.3.35.35,0,0,0,.36-.25.34.34,0,0,0,0-.1Zm.05.88,0-.18h0a.58.58,0,0,1-.47.2.5.5,0,0,1-.56-.48c0-.42.47-.61,1-.62V1.65c0-.23-.08-.39-.38-.39a.93.93,0,0,0-.39.09l-.09-.19a1.4,1.4,0,0,1,.56-.11c.47,0,.68.22.68.61v.73a2.42,2.42,0,0,0,0,.39Z"/><path class="cls-3" d="M22.22,1.08l.3.95c0,.12.07.27.1.42h0c0-.14.07-.29.1-.42l.3-.95h.37l-.62,1.7h-.34l-.62-1.7Z"/><path class="cls-3" d="M23.94,1.93h0c0,.28.07.66.41.66s.39-.4.39-.66-.07-.66-.4-.66-.4.4-.4.66m1.18,0a.78.78,0,0,1-.79.87c-.43,0-.77-.27-.77-.87a.78.78,0,0,1,.79-.88C24.78,1.05,25.12,1.33,25.12,1.93Z"/><path class="cls-3" d="M25.31,2.61l.75-1c.06-.08.14-.17.19-.25H25.4V1.08h1.27v.18l-.74,1c-.07.09-.14.18-.19.26h.93v.23H25.31Z"/><path class="cls-3" d="M3.18,4.88h0V4.77a.38.38,0,0,0-.36-.33c-.31,0-.42.31-.42.65s.13.65.4.65a.37.37,0,0,0,.36-.29.23.23,0,0,0,0-.12Zm.37-1.37v2c0,.11,0,.31,0,.4H3.25l0-.21h0a.59.59,0,0,1-.5.24C2.31,6,2,5.65,2,5.09s.35-.88.72-.88a.5.5,0,0,1,.43.2h0v-.9Z"/><path class="cls-3" d="M5.09,4.91h0c0-.34-.17-.49-.35-.49s-.38.26-.39.49Zm-.75.2c0,.52.29.63.57.63a1,1,0,0,0,.39-.07l.06.2A1.35,1.35,0,0,1,4.84,6,.78.78,0,0,1,4,5.1a.79.79,0,0,1,.8-.89A.66.66,0,0,1,5.45,5v.15Z"/><path class="cls-3" d="M6.57,5.65A.92.92,0,0,0,7,5.74c.21,0,.35-.09.35-.24S7.23,5.28,7,5.16s-.47-.29-.47-.48.28-.47.65-.47a1,1,0,0,1,.43.09l-.11.2a.75.75,0,0,0-.31-.08c-.21,0-.31.11-.31.22s.06.18.29.29.49.28.49.52S7.33,6,6.94,6a1.06,1.06,0,0,1-.47-.1Z"/><path class="cls-3" d="M9.47,5.47c0,.19,0,.34,0,.46H9.16l0-.17h0a.7.7,0,0,1-.51.2C8.2,6,8,5.73,8,5.31V4.24h.38v1c0,.27.06.46.32.46a.33.33,0,0,0,.34-.22.77.77,0,0,0,0-.15V4.24h.38Z"/><path class="cls-3" d="M10.76,4.67c0-.2,0-.3,0-.43h.33l0,.21h0a.66.66,0,0,1,.54-.24.48.48,0,0,1,.49.26h0a.76.76,0,0,1,.24-.2.84.84,0,0,1,.33-.06.53.53,0,0,1,.57.6V5.93H12.9V4.87c0-.22,0-.43-.33-.43a.36.36,0,0,0-.35.25.71.71,0,0,0,0,.15V5.93h-.38V4.82c0-.19,0-.38-.32-.38a.36.36,0,0,0-.36.27.66.66,0,0,0,0,.15V5.93h-.38Z"/><path class="cls-3" d="M14.69,5.06h0c-.2,0-.66,0-.66.39a.28.28,0,0,0,.29.3.36.36,0,0,0,.36-.25.38.38,0,0,0,0-.1Zm.05.87,0-.17h0a.61.61,0,0,1-.47.2.5.5,0,0,1-.56-.48c0-.43.47-.62,1-.62V4.81c0-.23-.08-.39-.38-.39a.93.93,0,0,0-.39.09l-.09-.19a1.4,1.4,0,0,1,.56-.11c.47,0,.68.22.68.6v.74a2.24,2.24,0,0,0,0,.38Z"/><path class="cls-3" d="M16.64,4.88h0V4.77a.38.38,0,0,0-.36-.33c-.31,0-.42.31-.42.65s.13.65.4.65a.38.38,0,0,0,.37-.29.45.45,0,0,0,0-.12ZM17,3.51v2c0,.11,0,.31,0,.4h-.32l0-.21h0a.58.58,0,0,1-.49.24c-.41,0-.7-.31-.7-.87s.35-.88.72-.88a.5.5,0,0,1,.43.2h0v-.9Z"/><path class="cls-3" d="M17.54,4.67c0-.14,0-.31,0-.43h.34l0,.26h0a.58.58,0,0,1,.51-.29h.07v.28h-.07a.46.46,0,0,0-.46.36.77.77,0,0,0,0,.15v.94h-.37Z"/><path class="cls-3" d="M19.7,4.91h0c0-.34-.17-.49-.36-.49s-.37.26-.38.49Zm-.75.2c0,.52.29.63.57.63a1,1,0,0,0,.39-.07l.06.2a1.38,1.38,0,0,1-.52.09.79.79,0,0,1-.87-.86.8.8,0,0,1,.8-.89.66.66,0,0,1,.68.75v.15Z"/><path class="cls-4" d="M6.15,11.74c0-.13,0-.32,0-.47h0c0,.15-.1.33-.14.44l-.17.5H5.53l-.17-.5a3.35,3.35,0,0,1-.13-.44h0c0,.15,0,.33,0,.47l0,.5H4.81L5,10.82h.43l.16.51c.06.18.11.34.15.5h0a3.71,3.71,0,0,1,.13-.5L6,10.82h.42l.13,1.42H6.19Z"/><rect class="cls-4" x="6.82" y="10.82" width="0.4" height="1.42"/><path class="cls-4" d="M7.86,11.53h0c0,.32.09.48.25.48s.24-.21.24-.5S8.29,11,8.11,11s-.25.18-.25.49m.91,0c0,.54-.28.75-.67.75s-.65-.34-.65-.73a.66.66,0,0,1,.68-.72A.62.62,0,0,1,8.77,11.5Z"/></svg>