<svg id="Capa_1" data-name="Capa 1" xmlns="http://www.w3.org/2000/svg" viewBox="0 0 30.53 27.55"><defs><style>.cls-1{fill:#f5a4c7;}.cls-2{fill:#fbc8b4;}.cls-3{fill:#fccdb5;}.cls-4{fill:#231f20;}</style></defs><title>8-1mes</title><path class="cls-1" d="M15.94,25.19a1.4,1.4,0,0,0,.55,1.45,8,8,0,0,0,4,.26c.88-.23,1.94-.43,2-.78s-.42-.36-.59-.69a14.77,14.77,0,0,1-.28-2.53,6.33,6.33,0,0,0-1.05-2,3.94,3.94,0,0,0-2.8-.14c-.81.39-1.8,4.45-1.8,4.45"/><path class="cls-2" d="M20.47,21.42s.61,0,.37-.27a3.85,3.85,0,0,0-.69-.55,3,3,0,0,1,1.26-1.78c1.12-.8,1.25-1.3,1.25-1.3a4.78,4.78,0,0,1-.91-.74,1.44,1.44,0,0,1-.46-.87c0-.22.29-.21.29-.21s-.15-.24,0-.39a.34.34,0,0,0,.12-.33s.18-.24.31-.25.6,0,.68,0a3.81,3.81,0,0,1,.25.48s0,.18.19.11.5-.12.56-.06a4.13,4.13,0,0,0,.87.74c.37.22.8.34,1,.6s.52.38.44.55-1.14.75-1.19,1-.21,1.06-.24,1.27a1.54,1.54,0,0,1-.68.73l-.25.11s.66.46.74.83-.19.21.2.39.82.37.83.39,1,1.13,1.28,1.17a2.11,2.11,0,0,0,1.15-.25c.35-.21.82-.88,1.08-.93a.43.43,0,0,1,.49.25c.12.19.11.24,0,.29s-.13.11-.13.11a.24.24,0,0,1,.22.22c0,.22-.07.32-.07.4a.49.49,0,0,0,.08.4c.13.23.29.23.08.43s-1.35.79-1.52.91A1.69,1.69,0,0,1,27,25.5a2.55,2.55,0,0,1-1.79-.42,2.29,2.29,0,0,0-1-.59c-.15,0-.19,0-.19,0a22.54,22.54,0,0,1-2.54,1.34c-.67.22-2.08-.51-2.08-1.47a5.05,5.05,0,0,1,1.09-2.94"/><path class="cls-3" d="M16.84,25.55a1.35,1.35,0,0,1-.9.41,6.31,6.31,0,0,0-1.51-.18,2.51,2.51,0,0,0-.93.32s0,1.1-1.68,1.09-1.9-.88-2-.92A2.57,2.57,0,0,1,9.55,26a3.78,3.78,0,0,0-.4-.43,3,3,0,0,0-.53.09l-1,.09S5,26.18,4.21,23.84s-.34-4.11.08-4.52a3.53,3.53,0,0,1,3.28-.45c1,.61,1.38.81,1.93.78a3.2,3.2,0,0,1,2,.62,2.71,2.71,0,0,1,.7,1.25A6.67,6.67,0,0,1,12,22.61s1.35-.73,1.62-.9a8.48,8.48,0,0,1,1-.43s-.35-.38.14-.8a1.89,1.89,0,0,1,1.26-.66,2.24,2.24,0,0,1,1.54.31c.53.37.34.49.34.49s.5.14.61.32a8.35,8.35,0,0,1-.57,3.38,7.22,7.22,0,0,1-1,1.23"/><path class="cls-4" d="M10.06,21.05a.75.75,0,0,0-.14-.41.45.45,0,0,0-.7.16.55.55,0,0,1,.84.25"/><path class="cls-4" d="M9.62,21.24c0,.22,0,.24-.16.26s-.16,0-.16,0,.13.16.26.11.42-.28.19-.44c0,0-.15-.12-.13.1"/><path class="cls-4" d="M7,20.61c-.16-.19-.51-.14-.68.25s.17,1.19.17,1.19a2.76,2.76,0,0,1,0-1.23A.41.41,0,0,1,7,20.61"/><path class="cls-4" d="M7.57,24.37h0c.13,0,.08,0,0,0"/><path class="cls-4" d="M28.28,24.61h0a.41.41,0,0,0-.11.07l-.29.24-.34.21a2.16,2.16,0,0,1-.78.25h-.42a1,1,0,0,1-.35-.1c-.21-.1-.41-.32-.68-.48a2.35,2.35,0,0,0-.45-.22c-.14-.06-.31-.11-.46-.16a4.81,4.81,0,0,1-.86-.31,1.12,1.12,0,0,1-.33-.22A1,1,0,0,1,23,23.6a.9.9,0,0,1-.09-.32,1.94,1.94,0,0,1,0-.34h-.05a1.41,1.41,0,0,0,0,.35.89.89,0,0,0,0,.36A1.08,1.08,0,0,0,23,24a1.44,1.44,0,0,0,.35.28,3.57,3.57,0,0,0,.56.26l-1.84,1,0,0a.12.12,0,0,0-.13,0h0a1.65,1.65,0,0,1-.93.29,1.24,1.24,0,0,1-.45-.1,1.28,1.28,0,0,1-.34-.26,1.57,1.57,0,0,1-.24-.32,2.85,2.85,0,0,1-.17-.35,2.3,2.3,0,0,1-.1-.35,2.38,2.38,0,0,1-.06-.37A3,3,0,0,1,20,22.6a2.9,2.9,0,0,1,.45-.65,3.91,3.91,0,0,1,.29-.24l.11-.05s0,0-.09-.05l.47-.14.67,0,.71,0c.24,0,.48,0,.71,0l.68.1a2.49,2.49,0,0,1,.32.08,2.26,2.26,0,0,1,.31.1,3.89,3.89,0,0,1,.54.27,4.81,4.81,0,0,1,.42.38,9.27,9.27,0,0,0,.92.8.93.93,0,0,0,.41.17,1,1,0,0,0,.47-.09,1.82,1.82,0,0,1,.3-.11l.18-.06L28,23a4.15,4.15,0,0,0,.79-.87A.38.38,0,0,1,29,22a.31.31,0,0,1,.22.1,1,1,0,0,1,.2.2c0,.06,0,.13,0,.13h0l-.25.11h-.05a1.56,1.56,0,0,0-.52.24,0,0,0,0,0,0,.07.11.11,0,0,0,.12,0l.44-.2h0a.26.26,0,0,1,.18,0,.23.23,0,0,1,.06.15s0,.05,0,.09,0,.05,0,.08a.23.23,0,0,1-.07.07h-.05a3.93,3.93,0,0,0-.48-.06h0c-.06,0-.13,0-.15.06s0,.11.07.13a1.14,1.14,0,0,0,.32.07h.16l.18,0,0,0s0,0,0,0a.28.28,0,0,1-.12,0H29.1l-.19,0h0a.21.21,0,0,0-.25.11c0,.08.05.15.17.17h0a3.23,3.23,0,0,1,.47.12.62.62,0,0,1,.16.07h0l0,0-.05,0h-.18a4.61,4.61,0,0,0-.59.15h0a.21.21,0,0,0-.15.14c0,.1.09.18.23.19h.12l-.07,0a4.07,4.07,0,0,1-.44.18m-8-4.08h0a1.5,1.5,0,0,1,.28-.7,1.63,1.63,0,0,1,.33-.37l.2-.17.24-.16a8.16,8.16,0,0,0,1.57-1.53.13.13,0,0,0-.06-.2h0a4.25,4.25,0,0,1-.85-.54,1.43,1.43,0,0,1-.29-.32l0,0a.22.22,0,0,0,.14,0c.07,0,.09-.1,0-.15h0l-.24-.23s0,0-.06,0l0-.05a.23.23,0,0,1-.06-.16.13.13,0,0,1,0-.08l.33.21h0a.13.13,0,0,0,.12,0,.06.06,0,0,0,0-.09.88.88,0,0,1-.31-.33.23.23,0,0,1,0-.18.44.44,0,0,1,.1-.08l.15.19q.15.16.33.33h0a.13.13,0,0,0,.12,0s.06-.06,0-.09l0,0a3.84,3.84,0,0,1-.28-.3.87.87,0,0,1-.17-.35q0-.09,0-.12l.06,0,.13,0a.62.62,0,0,1,.41,0c.08,0,.12.15.13.27s0,.05,0,.12a.27.27,0,0,0,.15.15.83.83,0,0,0,.45,0,1,1,0,0,1,.37,0,2.29,2.29,0,0,1,.25.3,2,2,0,0,0,.81.67,1.33,1.33,0,0,0,.3.11l.16,0,.12,0a1,1,0,0,1,.33.19.39.39,0,0,1,.06.56,1.28,1.28,0,0,1-.3.25,2.35,2.35,0,0,1-.42.21h0l-.05,0a1,1,0,0,0-.18.17,1,1,0,0,0-.13.18.67.67,0,0,0-.07.41,2,2,0,0,1,.05.33,1.63,1.63,0,0,1,0,.31,1.13,1.13,0,0,1-.29.59,1.73,1.73,0,0,1-.29.23,1.9,1.9,0,0,1-.38.17h0a.1.1,0,0,0-.06.05c0,.05,0,.1.06.12l.17.08a.83.83,0,0,1,.15.11,1.6,1.6,0,0,1,.26.26,1.76,1.76,0,0,1,.22.46l-.26-.06c-.25,0-.5-.06-.76-.08a9.9,9.9,0,0,0-2,.17,1.77,1.77,0,0,0-.16-.22,3.63,3.63,0,0,0-.28-.27,3,3,0,0,0-.35-.23ZM9,26H9l.17,0v0l-.35,0H8.75l.43-.19.08.07a1.34,1.34,0,0,0,.3.12.58.58,0,0,0,0,.1Zm-.24-.63h0l.05,0,0,0,.06.13a.09.09,0,0,0,0,.05l-.26,0Zm.33.35h0l-.7-.06L9,25.47a.25.25,0,0,0,0,.07A.76.76,0,0,0,9.1,25.68Zm7.06-4.35ZM11.34,24.2h0v0h0v0Zm0,0h0v0h0Zm18.55-.45a.35.35,0,0,0-.12-.15l-.15-.08h0l.1-.08a.28.28,0,0,0,0-.09.17.17,0,0,0,0-.1.25.25,0,0,0-.13-.12l-.09,0a.21.21,0,0,0,.06-.1.6.6,0,0,0,0-.12s0-.07,0-.11a.36.36,0,0,0-.15-.22l-.06,0,.07,0h0a.18.18,0,0,0,.16-.15.22.22,0,0,0-.06-.14.87.87,0,0,0-.21-.22.53.53,0,0,0-.37-.16.52.52,0,0,0-.34.18c-.16.14-.27.29-.4.42a1.69,1.69,0,0,1-.44.36l-.12.05-.15,0-.36.11a.56.56,0,0,1-.21.05.65.65,0,0,1-.18-.11c-.29-.23-.57-.51-.86-.78a4.22,4.22,0,0,0-.49-.4,3.44,3.44,0,0,0-.64-.31,2.15,2.15,0,0,0-.36-.11h0a1.41,1.41,0,0,0-.15-.52,1.36,1.36,0,0,0-.23-.32l-.16-.14h0l.26-.11a1.56,1.56,0,0,0,.39-.26,1.29,1.29,0,0,0,.41-.68,1.51,1.51,0,0,0,.06-.36,1.43,1.43,0,0,0,0-.36.51.51,0,0,1,.07-.26.47.47,0,0,1,.09-.12l.1-.09a3.06,3.06,0,0,0,.49-.22,1.53,1.53,0,0,0,.43-.37A.7.7,0,0,0,26.3,17a.77.77,0,0,0-.26-.47,1.51,1.51,0,0,0-.58-.3l-.27-.06L25,16.14a1.61,1.61,0,0,1-.67-.54,2.11,2.11,0,0,0-.37-.38.84.84,0,0,0-.45-.07l-.3,0c-.09,0-.14,0-.12,0h0s0-.07,0-.07a.54.54,0,0,0-.32-.44,1.06,1.06,0,0,0-.71,0l-.14,0a.56.56,0,0,0-.17.09.24.24,0,0,0-.07.26s0,.07.05.11a.45.45,0,0,0-.19.14.26.26,0,0,0,0,.24v0h-.08a.35.35,0,0,0-.2.23.39.39,0,0,0,.06.24l0,.05a.53.53,0,0,0,0,.25.25.25,0,0,0,0,.12.56.56,0,0,0,0,.12,1.57,1.57,0,0,0,.32.41,3,3,0,0,0,.44.33l.33.2A9.71,9.71,0,0,1,21.05,19a2.5,2.5,0,0,0-.73.8,1.58,1.58,0,0,0-.16.73l-.09,0-.23-.05-.24,0a2.46,2.46,0,0,0-.47,0c-.16,0-.3.05-.44.07l-.41.13,0,.05.42-.05a1.88,1.88,0,0,1,.41,0l.38.05.18.05a.85.85,0,0,1,.17.06,2,2,0,0,1,.29.17,2.31,2.31,0,0,1,.24.2l.12.16-.22.08-.27.16-.2.17a3,3,0,0,0-.57.76,2.84,2.84,0,0,0-.3,1.65,3.2,3.2,0,0,0,.1.42,2.05,2.05,0,0,0,.18.41,3.62,3.62,0,0,0,.26.37,2.31,2.31,0,0,0,.35.35,2.17,2.17,0,0,0,.5.28A2,2,0,0,0,21,26a2.24,2.24,0,0,0,1-.34.75.75,0,0,1,.28.2.19.19,0,0,1,0,.27.78.78,0,0,1-.36.21,4.15,4.15,0,0,1-.46.15l-.5.1-.52.08-.51.07c-.17,0-.34.05-.51.06a7.17,7.17,0,0,1-2,0,3.4,3.4,0,0,1-.9-.3,1.17,1.17,0,0,1-.37-.22.33.33,0,0,1-.09-.2.84.84,0,0,0,.32,0,2.09,2.09,0,0,0,.82-.46,4.36,4.36,0,0,0,1-1.29,4.81,4.81,0,0,0,.29-.71,3.66,3.66,0,0,0,.15-.7,5.33,5.33,0,0,0,0-1.25,1.14,1.14,0,0,0-.41-.85,1,1,0,0,0-.32-.13l-.12,0a1,1,0,0,1,.36.2,1,1,0,0,1,.2.81,8.8,8.8,0,0,1-.19,1.21,6.08,6.08,0,0,1-.18.67,5.78,5.78,0,0,1-1.16,1.89,1.78,1.78,0,0,1-.59.39s0,0-.11,0h-.08l-.11,0a2.39,2.39,0,0,0-.44,0,8,8,0,0,0-1.29.09l-.24,0a1.56,1.56,0,0,0,.15-.57h-.05l-.18.17a5.49,5.49,0,0,0-.4.46c-.07.1-.16.2-.23.32s-.14.24-.22.37a1,1,0,0,1-.32.35,1.09,1.09,0,0,1-.55.13,3.53,3.53,0,0,1-1.11-.2l-.45-.19a2.6,2.6,0,0,1-.36-.21,5.16,5.16,0,0,1-.51-.38.76.76,0,0,1-.14-.16h.07a.75.75,0,0,1-.51-.45s0-.09,0-.15l0-.14a.93.93,0,0,1,0-.29.48.48,0,0,1,.07-.18s0,.08,0,.14a1.11,1.11,0,0,0,.07.16.82.82,0,0,0,.11.17.53.53,0,0,0,.26.15l.3.09-.09-.23a2.09,2.09,0,0,1-.18-.67.44.44,0,0,1,0-.16.15.15,0,0,1,0-.07.18.18,0,0,1,0-.07h.09l-.05.11a.68.68,0,0,0,0,.57.67.67,0,0,0,.18.22,1.88,1.88,0,0,1,0-.24,1.79,1.79,0,0,1,.1-.48.67.67,0,0,1,.06-.12l.06-.11.11-.08a.3.3,0,0,0,0,.08,1,1,0,0,0,.05.59,1.08,1.08,0,0,0,.15.24.31.31,0,0,0,0-.07,1.49,1.49,0,0,0,0-.19,4.07,4.07,0,0,1,.09-.52.46.46,0,0,1,.11-.22.15.15,0,0,1,.06-.05H11l.12,0a.7.7,0,0,0-.33.44.63.63,0,0,0,.06.36.73.73,0,0,0,.09.12H11L11,24.8a2.52,2.52,0,0,1,.18-.27l.13-.15.06-.05,0,.12a.82.82,0,0,1,0,.27,1.8,1.8,0,0,1-.07.27.35.35,0,0,0,0,.15.53.53,0,0,0,0,.12,1.32,1.32,0,0,0,.12.2,1.6,1.6,0,0,0,.27.26.81.81,0,0,0,.15.09h0a.38.38,0,0,0,0-.13.93.93,0,0,0-.08-.32l0-.09h0a2.13,2.13,0,0,1,.6-.08,1.07,1.07,0,0,1,.31.06.58.58,0,0,1,.22.13c.12.09.16.18.17.17a.92.92,0,0,0-.1-.2.61.61,0,0,0-.2-.19,1.11,1.11,0,0,0-.35-.14,2.57,2.57,0,0,0-.91,0h0a.29.29,0,0,1,0-.24.81.81,0,0,1,.12-.25.44.44,0,0,0,.11-.3v0l0-.05v0l0-.05a.3.3,0,0,0-.11-.07.66.66,0,0,0-.27,0l-.15,0a.42.42,0,0,0-.12-.1.41.41,0,0,0-.22-.07.55.55,0,0,0-.29.08l-.07.07h-.07a.59.59,0,0,0-.4.14.57.57,0,0,0-.11.11h0a.28.28,0,0,0-.18,0,.31.31,0,0,0-.11.08.55.55,0,0,0-.07.09.89.89,0,0,0-.07.19h0a.49.49,0,0,0-.1-.08.3.3,0,0,0-.15,0,.4.4,0,0,0-.15,0,.48.48,0,0,0-.13.09.57.57,0,0,0-.13.32.24.24,0,0,0-.09-.06.88.88,0,0,0-.19-.06l0,0a.37.37,0,0,1,0,.11.15.15,0,0,1-.07.19h0l0,0-.08,0-.24.07-.31.05-.35.06H7.2a1.68,1.68,0,0,1-.44-.16.13.13,0,0,0-.06,0v0l0-.05s0,0,0,0,0-.07,0-.1.07-.15.13-.21l.1-.1,0,0H6.72l.07-.05a2.55,2.55,0,0,1,.78-.15,6.8,6.8,0,0,1-1.06-.06l1.06-.15a4.21,4.21,0,0,1-.71,0c-.48-.05-1.21-.9-1.21-.9l.89.57S6.28,23.4,6,23s-1.27-.41-1.27-.41a4.11,4.11,0,0,0,.65-.22c-.06,0-.69-.08-.69-.08L5.12,22,4.42,22l1.26-.68-1.28.08,1.06-.45L4.68,21l1.11-.51H4.64a11.66,11.66,0,0,0,1.82-.68l-1.74.1A6.19,6.19,0,0,0,6.49,19l-1,.1.59-.35A6.83,6.83,0,0,0,5,19a3.92,3.92,0,0,1,.86-.27,2.85,2.85,0,0,1,1.56.12,2.74,2.74,0,0,1,.42.21c-.16.05-.3.21-.27.52.05.62,1,1,1,1s-.86-.47-.77-1.12c0-.2.09-.3.17-.33l.1.06a4.44,4.44,0,0,0,.62.41,1.93,1.93,0,0,0,.86.15,3,3,0,0,1,.77.05,3.11,3.11,0,0,1,.6.34,2,2,0,0,1,.5.4,2.25,2.25,0,0,1,.46,1,1.4,1.4,0,0,1,0,.54.92.92,0,0,1-.21.47l-.58.61.84-.41a15.91,15.91,0,0,0,1.52-.88,6.13,6.13,0,0,1,1-.53h.07a.66.66,0,0,0,.18,0l.17-.11,0,0,.13,0,0,0h0l0,0L15.1,21v0a.78.78,0,0,0,0,.26.27.27,0,0,0,.33.2.27.27,0,0,0,.13-.05.58.58,0,0,0,.14-.12l0-.07a.16.16,0,0,1,0,.07.47.47,0,0,0,.16.15.37.37,0,0,0,.2.05.55.55,0,0,0,.18-.06.2.2,0,0,0,.07-.06.28.28,0,0,0,.07-.09.42.42,0,0,0,0-.1.35.35,0,0,0,.32.16l.08,0,0,0,0,0a.26.26,0,0,0,.11-.14.45.45,0,0,0,0-.2s0,0,0,.05a.47.47,0,0,0,.1.1.27.27,0,0,0,.19.05.23.23,0,0,0,.13-.09l.07-.11a.37.37,0,0,0,0-.23.57.57,0,0,0-.25-.41.52.52,0,0,1,.21.41.31.31,0,0,1-.07.21.36.36,0,0,1-.07.1.24.24,0,0,1-.09.06.14.14,0,0,1-.1,0,.3.3,0,0,1-.08-.08,2.25,2.25,0,0,1-.12-.21l-.06-.16a1.39,1.39,0,0,0-.1-.26h0a.09.09,0,0,0-.1,0s-.07,0-.06.07h0a1.35,1.35,0,0,1,.12.51.61.61,0,0,1,0,.24.22.22,0,0,1-.08.09h0s0,0,0,0h0s0,0,0,0a.29.29,0,0,1-.08-.08,1.05,1.05,0,0,1-.07-.11,1.86,1.86,0,0,1-.1-.25s0,0,0-.05a2.79,2.79,0,0,0-.14-.47.15.15,0,0,0-.15-.06c-.07,0-.12.05-.11.1a3.38,3.38,0,0,0,.11.34,2.07,2.07,0,0,1,0,.22.82.82,0,0,1,0,.27.28.28,0,0,1,0,.12s0,0,0,0,0,0-.06,0a.29.29,0,0,1-.07-.08A1.19,1.19,0,0,1,16,21a2.64,2.64,0,0,1-.11-.56h0c0-.05-.08-.09-.16-.09s-.15.06-.14.12,0,.16,0,.24a.89.89,0,0,1,0,.23.83.83,0,0,1-.06.21l-.06.09s0,0-.06.06,0,0,0,0a.85.85,0,0,1,0-.23,3.69,3.69,0,0,1,0-.47s0-.09-.1-.1a.16.16,0,0,0-.17.07,1.37,1.37,0,0,1-.3.48l-.11.1-.11.07a.09.09,0,0,1,0-.07.86.86,0,0,1,.21-.49c.13-.15.32-.29.48-.45l.11-.12a.36.36,0,0,1,.12-.08,1.79,1.79,0,0,1,.35-.09,3.49,3.49,0,0,1,.79,0,1.64,1.64,0,0,1,.71.21,3,3,0,0,1,.56.41A2.43,2.43,0,0,0,17.4,20a1.6,1.6,0,0,0-.74-.26,2.89,2.89,0,0,0-.83,0,1.43,1.43,0,0,0-.41.09.57.57,0,0,0-.18.12,1.14,1.14,0,0,0-.11.11,5.18,5.18,0,0,0-.51.44,1.1,1.1,0,0,0-.28.56.36.36,0,0,0,0,.17s0,0,0,0l-.26.08a5.36,5.36,0,0,0-.84.38l-1,.53a1.74,1.74,0,0,0,0-.75,2.14,2.14,0,0,0-.52-1.15,2.52,2.52,0,0,0-.62-.45,3.2,3.2,0,0,0-.74-.34,2.75,2.75,0,0,0-.9,0,1.78,1.78,0,0,1-.74-.09,5.51,5.51,0,0,1-.61-.37,3.72,3.72,0,0,0-.69-.35A3.07,3.07,0,0,0,5.8,18.6a5.26,5.26,0,0,0-1.54.5A5.11,5.11,0,0,0,3,19.92a3.62,3.62,0,0,0-.81,1A2.65,2.65,0,0,0,2,22.17a2.83,2.83,0,0,0,.38,1.17,3.7,3.7,0,0,0,.37.54c.14.17.31.33.46.5s.34.31.53.46.41.3.64.42a6.5,6.5,0,0,0,1.47.62,7.08,7.08,0,0,0,2.71.17,9.35,9.35,0,0,0,1,0s0,.07,0,.11a1.42,1.42,0,0,0,.35.52,1.46,1.46,0,0,0,.39.3,2.53,2.53,0,0,0,.55.23,4.44,4.44,0,0,0,.67.12,2.44,2.44,0,0,0,.71-.06,2.1,2.1,0,0,0,.61-.24c.17-.11.3-.22.45-.33a2.46,2.46,0,0,0,.37-.33A2,2,0,0,0,13.9,26l.08-.14h.26a9.6,9.6,0,0,1,1.25,0,2.25,2.25,0,0,1,.36.06l.08,0h0a.37.37,0,0,0,0,.29,1.37,1.37,0,0,0,.34.34,3.39,3.39,0,0,0,1,.44,4.84,4.84,0,0,0,1.14.18H19a5.44,5.44,0,0,0,.57,0,9.53,9.53,0,0,0,1.09-.18l.52-.14.51-.17a3.64,3.64,0,0,0,.49-.22,1.1,1.1,0,0,0,.39-.32.34.34,0,0,0-.05-.43,1.21,1.21,0,0,0-.37-.25,3.55,3.55,0,0,0,1.87-1l.25.09.42.17A3,3,0,0,1,25,25a7.78,7.78,0,0,0,.68.53,1.43,1.43,0,0,0,.55.18l.27,0h.31a2.65,2.65,0,0,0,1-.31,2.33,2.33,0,0,0,.41-.24l.31-.25.21-.08.26-.12a2.47,2.47,0,0,0,.46-.31l.09-.08a.5.5,0,0,0,.11-.16v0s0,0,0,0l0,0,0,0,0,0,.06-.07A.23.23,0,0,0,29.91,23.78Z"/><path class="cls-4" d="M10.5,21.94c.34,0,.43-.47.43-.47s-.4-.11-.33-.36c-.33.23-.45.77-.1.83"/><path class="cls-4" d="M11.09,22.05c.15,0,.23,0,.11-.34,0,0-.26.31-.11.34"/><path class="cls-4" d="M9.13,19.85l-.36,0v-.11s-.47,0-.36.34.21.15.21.15a.6.6,0,0,1,.5-.4"/><path class="cls-4" d="M7.72,21.35c.24-.06.12-.25-.09-.16s-.58.3-.52.69c0,0,.21-.16.26,0a.23.23,0,0,0,.19.17s-.09-.64.16-.7"/><path class="cls-4" d="M8.52,22.23c0-.13-.09-.26-.14-.38a2.79,2.79,0,0,0-.2-.31,1.65,1.65,0,0,0-.28-.27,3.07,3.07,0,0,1,.17.3,3.58,3.58,0,0,1,.25.68,2.66,2.66,0,0,1,.07.37c0,.12,0,.23,0,.33a.27.27,0,0,0,.07.14.16.16,0,0,0,.17,0,.51.51,0,0,0,.1-.07l-.11,0s-.08,0-.09,0a.22.22,0,0,1,0-.12,2.92,2.92,0,0,0,0-.33,2.65,2.65,0,0,0-.05-.38"/><path class="cls-4" d="M11.38,20.85a.19.19,0,0,1-.12,0s0,0,.14,0a.11.11,0,0,0,.08-.11.18.18,0,0,0-.07-.15,1.14,1.14,0,0,0-.49-.17l-.58-.07a8.63,8.63,0,0,1-1.08,0,1.37,1.37,0,0,1-.44-.13.28.28,0,0,0,.09.07,1.29,1.29,0,0,0,.32.13,2.37,2.37,0,0,0,.51.08l.58,0a5,5,0,0,1,.57.05,1.36,1.36,0,0,1,.43.1c.08,0,.12.16.06.18"/><polygon class="cls-4" points="2.17 0.61 2.56 0.61 2.56 2.75 3.54 2.75 3.54 2.97 2.17 2.97 2.17 0.61"/><rect class="cls-4" x="3.85" y="0.55" width="0.39" height="2.43"/><path class="cls-4" d="M5.06,2.12h0c0,.29.07.67.43.67s.41-.4.41-.67-.07-.65-.42-.65-.42.4-.42.65m1.24,0A.8.8,0,0,1,5.47,3a.77.77,0,0,1-.8-.87.8.8,0,0,1,.83-.88A.78.78,0,0,1,6.3,2.12Z"/><path class="cls-4" d="M6.68,1.71c0-.14,0-.31,0-.43H7l0,.26H7a.59.59,0,0,1,.52-.29h.09v.28H7.56a.46.46,0,0,0-.47.36.68.68,0,0,0,0,.15V3H6.68Z"/><path class="cls-4" d="M8.79,2.1h0c-.2,0-.68,0-.68.39a.29.29,0,0,0,.3.3.35.35,0,0,0,.37-.25.38.38,0,0,0,0-.1ZM8.85,3l0-.17h0a.62.62,0,0,1-.49.2c-.34,0-.59-.19-.59-.48s.49-.62,1-.62v0c0-.23-.08-.39-.39-.39A1,1,0,0,0,8,1.55l-.09-.19a1.48,1.48,0,0,1,.58-.11c.5,0,.71.22.71.6v.74a1.5,1.5,0,0,0,0,.38Z"/><path class="cls-4" d="M10.82,2.35h0a.32.32,0,0,0,0,.14.37.37,0,0,0,.36.29c.33,0,.43-.31.43-.66s-.12-.64-.43-.64a.4.4,0,0,0-.37.31.53.53,0,0,0,0,.13Zm-.39-.54c0-.26,0-.42,0-.53h.35l0,.21h0a.63.63,0,0,1,.52-.24c.43,0,.72.31.72.87a.77.77,0,0,1-.77.88.51.51,0,0,1-.43-.19h0v.84h-.39Z"/><path class="cls-4" d="M12.71,2.12h0c0,.29.07.67.43.67s.4-.4.4-.67-.06-.65-.41-.65-.42.4-.42.65m1.23,0a.79.79,0,0,1-.82.88.77.77,0,0,1-.8-.87.8.8,0,0,1,.83-.88A.77.77,0,0,1,13.94,2.12Z"/><path class="cls-4" d="M14.33,1.71c0-.14,0-.31,0-.43h.35l0,.26h0a.59.59,0,0,1,.52-.29h.08v.28h-.08a.46.46,0,0,0-.47.36.68.68,0,0,0,0,.15V3h-.39Z"/><path class="cls-4" d="M17.79,2.51c0,.19,0,.34,0,.46h-.35l0-.17h0a.77.77,0,0,1-.53.2c-.44,0-.61-.23-.61-.65V1.28h.4v1c0,.27.06.46.33.46a.34.34,0,0,0,.35-.22.41.41,0,0,0,0-.16V1.28h.4Z"/><path class="cls-4" d="M18.29,1.71c0-.2,0-.3,0-.43h.34l0,.2h0a.71.71,0,0,1,.57-.23.54.54,0,0,1,.6.58V3h-.39V1.88c0-.2-.06-.4-.35-.4a.37.37,0,0,0-.37.27.68.68,0,0,0,0,.15V3h-.39Z"/><path class="cls-4" d="M21.23,2.1h0c-.2,0-.68,0-.68.39a.28.28,0,0,0,.3.3.36.36,0,0,0,.37-.25.38.38,0,0,0,0-.1Zm.06.87,0-.17h0a.63.63,0,0,1-.5.2.52.52,0,0,1-.58-.48c0-.43.49-.62,1-.62v0c0-.23-.08-.39-.39-.39a1,1,0,0,0-.41.09l-.09-.19a1.48,1.48,0,0,1,.58-.11c.5,0,.71.22.71.6v.74a1.5,1.5,0,0,0,0,.38Z"/><path class="cls-4" d="M3.35,6.09a1.37,1.37,0,0,1-.41.06A.82.82,0,0,1,2,5.29a.89.89,0,0,1,1-.88,1.08,1.08,0,0,1,.35,0l-.08.22a.83.83,0,0,0-.28,0,.58.58,0,0,0-.57.65A.56.56,0,0,0,3,5.93a.93.93,0,0,0,.29,0Z"/><path class="cls-4" d="M4.57,5.25h0c-.2,0-.68,0-.68.4a.28.28,0,0,0,.3.3.36.36,0,0,0,.37-.26.28.28,0,0,0,0-.09Zm.06.88L4.6,6h0a.65.65,0,0,1-.5.21.52.52,0,0,1-.58-.48c0-.43.49-.62,1-.62V5c0-.22-.08-.38-.39-.38a.86.86,0,0,0-.41.09l-.09-.19a1.29,1.29,0,0,1,.58-.12c.5,0,.71.23.71.61v.74a1.58,1.58,0,0,0,0,.38Z"/><path class="cls-4" d="M6.94,5.67c0,.19,0,.33,0,.46H6.62L6.6,6h0a.74.74,0,0,1-.54.21c-.43,0-.6-.23-.6-.65V4.43h.39v1c0,.26.07.46.34.46a.35.35,0,0,0,.35-.22.78.78,0,0,0,0-.16V4.43h.39Z"/><path class="cls-4" d="M7.38,5.85a1,1,0,0,0,.4.09c.22,0,.36-.1.36-.25s-.06-.22-.32-.33-.49-.29-.49-.49.3-.47.68-.47a1.16,1.16,0,0,1,.44.09l-.1.21A.67.67,0,0,0,8,4.62c-.22,0-.32.11-.32.22s.06.18.3.29.52.28.52.52-.34.5-.75.5a1.15,1.15,0,0,1-.49-.1Z"/><path class="cls-4" d="M9.8,5.25h0c-.21,0-.69,0-.69.4a.29.29,0,0,0,.31.3.37.37,0,0,0,.37-.26.28.28,0,0,0,0-.09Zm0,.88,0-.18h0a.62.62,0,0,1-.49.21c-.33,0-.59-.19-.59-.48s.5-.62,1.06-.62V5c0-.22-.09-.38-.4-.38A.91.91,0,0,0,9,4.71l-.09-.19a1.36,1.36,0,0,1,.58-.12c.5,0,.71.23.71.61v.74a1.58,1.58,0,0,0,0,.38Z"/><path class="cls-4" d="M10.66,6h0a.24.24,0,0,1,.26-.2c.16,0,.26.08.26.2s-.1.2-.26.2-.26-.08-.26-.2m0-1.29c0-.11.12-.19.26-.19s.26.08.26.19-.1.2-.26.2S10.66,4.79,10.66,4.67Z"/><path class="cls-4" d="M12.38,3.7h.39v.91h0A.64.64,0,0,1,13,4.47a.77.77,0,0,1,.33-.07.55.55,0,0,1,.58.6V6.13h-.39V5c0-.21-.07-.41-.34-.41a.38.38,0,0,0-.38.27.59.59,0,0,0,0,.13v1.1h-.39Z"/><path class="cls-4" d="M15.32,5.25h0c-.2,0-.68,0-.68.4a.28.28,0,0,0,.3.3.36.36,0,0,0,.37-.26.28.28,0,0,0,0-.09Zm.06.88,0-.18h0a.63.63,0,0,1-.5.21.52.52,0,0,1-.58-.48c0-.43.49-.62,1.05-.62V5c0-.22-.08-.38-.39-.38a.88.88,0,0,0-.41.09l-.09-.19A1.29,1.29,0,0,1,15,4.4c.5,0,.71.23.71.61v.74a1.58,1.58,0,0,0,0,.38Z"/><path class="cls-4" d="M16.21,4.87c0-.2,0-.3,0-.44h.34l0,.21h0a.72.72,0,0,1,.56-.24.54.54,0,0,1,.52.26h0a.67.67,0,0,1,.25-.19.86.86,0,0,1,.34-.07.54.54,0,0,1,.59.6V6.13h-.39V5.07c0-.22,0-.44-.35-.44a.38.38,0,0,0-.36.26.66.66,0,0,0,0,.15V6.13h-.39V5c0-.19,0-.39-.35-.39a.36.36,0,0,0-.36.28.59.59,0,0,0,0,.14V6.13h-.39Z"/><path class="cls-4" d="M19.72,5.53h0a.2.2,0,0,0,0,.11.38.38,0,0,0,.36.29c.32,0,.44-.29.44-.65s-.12-.64-.44-.64a.4.4,0,0,0-.37.3.49.49,0,0,0,0,.12Zm-.41.6c0-.1,0-.29,0-.41v-2h.39v.93h0a.61.61,0,0,1,.52-.23c.39,0,.68.31.68.86s-.37.9-.75.9a.53.53,0,0,1-.49-.25h0l0,.22Z"/><path class="cls-4" d="M21.32,4.87c0-.14,0-.31,0-.44h.35l0,.27h0a.6.6,0,0,1,.52-.3h.08v.28H22.2a.46.46,0,0,0-.47.36.61.61,0,0,0,0,.15v.94h-.39Z"/><path class="cls-4" d="M23.52,5.11h0c0-.34-.18-.5-.37-.5s-.38.26-.4.5Zm-.77.2c0,.52.3.63.58.63a1.08,1.08,0,0,0,.41-.07l.07.2a1.77,1.77,0,0,1-.55.08.8.8,0,0,1-.9-.85.82.82,0,0,1,.84-.9.68.68,0,0,1,.7.76v.15Z"/><path class="cls-4" d="M24,6.57a3.56,3.56,0,0,0,.3-.81l.45,0a4.46,4.46,0,0,1-.47.83Z"/><path class="cls-4" d="M2.22,9.29V7.8H1.91V7.59h.31v-.1A.6.6,0,0,1,2.44,7a.84.84,0,0,1,.5-.15,1.23,1.23,0,0,1,.31,0l-.07.21L3,7.06c-.28,0-.34.2-.34.42v.11h.45V7.8H2.62V9.29Z"/><path class="cls-4" d="M3.25,8c0-.15,0-.31,0-.44h.35l0,.27h0a.61.61,0,0,1,.53-.3h.08v.28H4.14a.47.47,0,0,0-.48.35.78.78,0,0,0,0,.16v.94H3.25Z"/><path class="cls-4" d="M4.47,9.29h0V7.59h.4v1.7Zm.8-2.4-.54.48H4.47l.4-.48Z"/><path class="cls-4" d="M5.65,8.44h0c0,.28.07.66.43.66s.4-.4.4-.66-.06-.66-.41-.66-.42.4-.42.66m1.23,0a.79.79,0,0,1-.82.88.77.77,0,0,1-.8-.88.79.79,0,0,1,.82-.88A.78.78,0,0,1,6.88,8.44Z"/><path class="cls-4" d="M6.91,9.73a3.45,3.45,0,0,0,.29-.82l.45,0a3.56,3.56,0,0,1-.47.83Z"/><path class="cls-4" d="M8.72,9a1,1,0,0,0,.4.09c.23,0,.37-.1.37-.25s-.07-.22-.32-.33-.5-.29-.5-.49.3-.47.68-.47a1.18,1.18,0,0,1,.45.09l-.11.2a.81.81,0,0,0-.33-.07c-.21,0-.32.1-.32.21s.06.18.31.3.51.28.51.51-.34.51-.74.51a1.12,1.12,0,0,1-.49-.1Z"/><path class="cls-4" d="M11.7,8.83c0,.18,0,.33,0,.46h-.34l0-.18h0a.73.73,0,0,1-.53.21c-.43,0-.6-.23-.6-.66V7.59h.39v1c0,.26.06.46.33.46a.35.35,0,0,0,.36-.23.61.61,0,0,0,0-.15V7.59h.39Z"/><path class="cls-4" d="M13.26,8.26h0c0-.34-.18-.49-.37-.49s-.39.26-.4.49Zm-.78.2c0,.52.3.64.59.64A1.12,1.12,0,0,0,13.48,9l.06.2a1.75,1.75,0,0,1-.54.08.79.79,0,0,1-.9-.85.81.81,0,0,1,.83-.9.68.68,0,0,1,.71.75.62.62,0,0,1,0,.15Z"/><path class="cls-4" d="M14,8h0c0-.2,0-.3,0-.44h.34l0,.2h0a.74.74,0,0,1,.57-.23.54.54,0,0,1,.6.59V9.29h-.39V8.19c0-.2-.06-.4-.35-.4a.37.37,0,0,0-.37.28.61.61,0,0,0,0,.15V9.29H14Zm.22-.71A.29.29,0,0,1,14.54,7a.61.61,0,0,1,.25.06.56.56,0,0,0,.2.06c.08,0,.12,0,.13-.13h.21A.29.29,0,0,1,15,7.3a.66.66,0,0,1-.25-.06.52.52,0,0,0-.19-.06c-.08,0-.12.05-.13.14Z"/><path class="cls-4" d="M16.32,8.44h0c0,.28.07.66.43.66s.4-.4.4-.66-.06-.66-.41-.66-.42.4-.42.66m1.23,0a.79.79,0,0,1-.82.88.78.78,0,0,1-.81-.88.8.8,0,0,1,.83-.88A.78.78,0,0,1,17.55,8.44Z"/></svg>