<svg id="Capa_1" data-name="Capa 1" xmlns="http://www.w3.org/2000/svg" viewBox="0 0 31.74 28.77"><defs><style>.cls-1{fill:#b3d335;}.cls-2{fill:#f5a4c7;}.cls-3{fill:#fbc9b5;}.cls-4{fill:#231f20;}</style></defs><title>9-1mes</title><path class="cls-1" d="M16.29,22.81s1.48-1.92,2.61-2.26a8,8,0,0,1,2.39-.29l6.1-1.33,2.75,1s1.42.72,1.3,1.65a10,10,0,0,1-1,4.74,9.32,9.32,0,0,1-1.6,2.26l-4.46-.12Z"/><path class="cls-2" d="M19.71,28.36s2.65-.75,2.75-1.21A5.41,5.41,0,0,1,22.93,26a1.58,1.58,0,0,1,.94.27,3.41,3.41,0,0,1,.68,1.26l-.51.91s-4.31.1-4.33-.12"/><path class="cls-3" d="M17.57,18.15a4.51,4.51,0,0,1-1-1.27,2.27,2.27,0,0,1-.09-.95c0-.1-.47-1.22.11-1.36a16.6,16.6,0,0,1,3,.16c.24,0,5.28.37,5.52.76a5.85,5.85,0,0,1,.78,1.5,15.35,15.35,0,0,0,1.62,2.24,7.39,7.39,0,0,1-1.11,1.57,5.93,5.93,0,0,1-3.94,1.33c-2.08-.1-.26-1.06-.34-1.22a2.64,2.64,0,0,0-.58-.51,8.69,8.69,0,0,1-1.69-.47,4.79,4.79,0,0,1-1.61-1.43Z"/><path class="cls-3" d="M19.87,28.2a.76.76,0,0,1-.48-.13c-.22-.15-1.28-.67-1.28-.67a5,5,0,0,1-1.62.4l-1.09-.4a10.81,10.81,0,0,1-2-.57c-.58-.3-.89-.57-.92-1.17a4.9,4.9,0,0,0-.74-2c-.29-.47-.48-.73-.27-.73a3.64,3.64,0,0,1,.74.07s.35.5.55.15a1.73,1.73,0,0,1,.74-.77c.29-.12,1.72-.69,1.94-.76a2.45,2.45,0,0,1,.9-.12,1.59,1.59,0,0,1,1.21.89c.31.67.71.57.94.74s.56.24.5.54a3,3,0,0,1-.38.75s-.05.19,1,.19a1.89,1.89,0,0,0,1.67-.92c0-.14-.21-.36-.2-.53a.52.52,0,0,1,.33-.43c.21-.11.31-.5.5-.52a.75.75,0,0,1,.47.26s.29.13.31.31.29-.16.3.17-.11.36-.11.36.44-.32.45-.14-.34.51-.34.51l-.15.25a4.83,4.83,0,0,1-.42.45,5.8,5.8,0,0,0-.61,1,5.59,5.59,0,0,1,.94.48c.12.12.07.44.07.47s-.28,1.58-3,1.86"/><path class="cls-3" d="M23.45,26.11s1,1.14.85,1.7c0,0,.73-.9.67-1.21s-1.52-.49-1.52-.49"/><path class="cls-3" d="M21.24,28.48a3.7,3.7,0,0,1,1.25-.6,3.47,3.47,0,0,1,1.87.19l-.32.41Z"/><path class="cls-4" d="M15.34,23.8c.15-.31.77-.47.77-.47-.85-.13-.77.47-.77.47"/><path class="cls-4" d="M17.68,24.09a4.38,4.38,0,0,1-.93.26c-.32,0,.79.34.93-.26"/><path class="cls-4" d="M18.07,17.89l.58.48a.64.64,0,0,0,.56-.61,1.66,1.66,0,0,1-1.14.13"/><path class="cls-4" d="M20.78,17.51s1.34,0,1.34-.76a4,4,0,0,1-1.67.35s.36.2.33.41"/><path class="cls-4" d="M20.24,18.72c0-.39,0-1.25-1.25-1.59s-1.63-.05-1.47.63a.64.64,0,0,1,.7-.46c.61,0,1.63.3,1.76.76s-.54,1.36,1,1c0,0-.74.05-.7-.35"/><path class="cls-4" d="M22.38,19a7.75,7.75,0,0,1-1.09.43c.95.51,1.09-.43,1.09-.43"/><path class="cls-4" d="M22.9,19.59a6.07,6.07,0,0,0-1.07.2,1.43,1.43,0,0,0,1.07-.2"/><path class="cls-4" d="M24.71,17.22h0s0,0,0,0-.06,0,0,0m.12,0Zm-.48-.42c.07.07.09.11.07.15a.61.61,0,0,0-.09.16.3.3,0,0,0,0,.26.28.28,0,0,0,.16.14.52.52,0,0,0,.33,0c.23,0,.28-.17.3-.23a.31.31,0,0,0-.1-.29l-.1-.08h-.05l-.05.09,0,.08v0a.56.56,0,0,0-.09-.21c-.05-.09-.18-.13-.21-.16a.11.11,0,0,1,0-.15c0-.05.06-.12.07-.16a.3.3,0,0,0,0-.13c0-.08,0-.15,0-.19a.11.11,0,0,1,0-.08v0a.24.24,0,0,0-.18,0,.45.45,0,0,0-.24.23.5.5,0,0,0,0,.17.38.38,0,0,0,.09.18A1.39,1.39,0,0,0,24.35,16.82Z"/><path class="cls-4" d="M20.23,26.19h0m11.08-3.52h0a4,4,0,0,1,0,.69A6.54,6.54,0,0,1,31,24.73c-.08.23-.15.45-.25.67s-.18.45-.29.67c-.21.44-.47.86-.73,1.29-.14.2-.27.42-.43.62a6.4,6.4,0,0,1-.41.5c-1.51-.06-3-.1-4.52-.1h-.17l.11-.18c.09-.16.22-.37.38-.63l1.1-1.9c.4-.69.82-1.37,1.17-1.87a7.2,7.2,0,0,1,.45-.59l.2-.22a1.63,1.63,0,0,0-.27.17,5.11,5.11,0,0,0-.63.54,4.43,4.43,0,0,0-.36.38c0-.17.05-.38.08-.59s.09-.44.11-.62a2.85,2.85,0,0,0,0-.3,1.1,1.1,0,0,0-.3.24,1,1,0,0,0-.2.28,1.14,1.14,0,0,0-.13.35,1,1,0,0,0,0,.38,1.44,1.44,0,0,0,.13.31l.13.15a9.67,9.67,0,0,0-.87,1.26c-.17.3-.32.59-.46.88a.59.59,0,0,0-.19-.2,1.78,1.78,0,0,0-.44-.2,2.49,2.49,0,0,0-.92-.06l-.2,0a.79.79,0,0,0-.14-.13l-.13-.1-.28-.19a1.12,1.12,0,0,0-.16-.1l-.18-.07a2.59,2.59,0,0,0-.37-.11c-.24-.06-.49-.1-.74-.14s-.5-.07-.76-.09a14.1,14.1,0,0,1,1.39.41l.31.12.13.07.11.08.24.2.1.1.06.06a1.06,1.06,0,0,1,0,.35,1.22,1.22,0,0,1-.14.36,1.35,1.35,0,0,1-.27.32,2.12,2.12,0,0,1-.38.26c-.14.07-.31.14-.49.21l-.52.2-.53.18-.47.13L19,27.75l-.7-.29.36-.2a5.82,5.82,0,0,0,.68-.47c.16,0,.32-.08.47-.12a3.33,3.33,0,0,0,.52-.21.51.51,0,0,0,.13-.09.23.23,0,0,0,.09-.15.19.19,0,0,0,0-.08.16.16,0,0,0-.09-.09h0a.22.22,0,0,0,.09-.07.12.12,0,0,0,0-.13l-.06-.05,0,0-.12-.05h0s.1,0,.1-.12,0,0,0-.07l0,0a.25.25,0,0,0,0-.08l0-.06,0,0h0l0,0h0l0,0-.08,0-.05,0-.1,0a1.81,1.81,0,0,0-.39-.05,2.41,2.41,0,0,0-.38,0,2.19,2.19,0,0,0-.42,0,.55.55,0,0,0-.13.05l-.08,0-.14.08a2.61,2.61,0,0,0-.27.19.79.79,0,0,0-.21.24s0,.05,0,.07l0,0h0l0,0c-.16.09-.38.17-.58.26a2,2,0,0,0-.53.35,1,1,0,0,0-.18.23.7.7,0,0,0-.09.24h0a1.15,1.15,0,0,1,.37-.39,2.1,2.1,0,0,1,.54-.27,5.6,5.6,0,0,0,.64-.23l.09,0,.1-.08.05-.07,0,0a.61.61,0,0,1,.16-.16l.23-.15c.08,0,.23-.12.22-.11l.28,0h.14c-.06,0-.1.05-.11.09s.07.12.16.12h.64l-.18.05-.08,0-.34.07s-.05,0,0,.06a.1.1,0,0,0,.1.05h0l.42-.07h0a.57.57,0,0,1,.18,0l.07,0,.05,0s0,0,0,0,0,0,0,0l-.05,0-.16,0a2.67,2.67,0,0,0-.51.05h0c-.06,0-.09,0-.08.09s.07.07.13.07h0a2,2,0,0,1,.49,0h0l0,0-.08,0a5.79,5.79,0,0,1-1,.26.12.12,0,0,0-.09,0h0a6.26,6.26,0,0,1-1.47.79,2.7,2.7,0,0,1-.4.14,3,3,0,0,1-.41.08,1.69,1.69,0,0,1-.39,0,.74.74,0,0,1-.17,0h-.08a.31.31,0,0,0-.1-.05l-.1-.05,0,0h0l-.14-.11a.85.85,0,0,1-.21-.25.35.35,0,0,1-.06-.14.58.58,0,0,1,0-.14,1.07,1.07,0,0,1,0-.31A2.76,2.76,0,0,1,16,25.26l.16,0a5.07,5.07,0,0,0,.73,0,3.59,3.59,0,0,0,1-.15,1.87,1.87,0,0,0,.85-.56,3.54,3.54,0,0,0,.73.18,3.17,3.17,0,0,0,.87,0,.84.84,0,0,0,.44-.2.24.24,0,0,0,.06-.09l0-.07a.5.5,0,0,1,.05-.13,1.12,1.12,0,0,1,.48-.43.05.05,0,0,0,0-.08v0a.86.86,0,0,1-.09-.42.09.09,0,0,1,0-.07l.06,0a1.08,1.08,0,0,1,.24-.1h0l0,0-.09.08-.1.06,0,0c-.06,0-.08.09-.05.14a.23.23,0,0,0,.23.07,3.4,3.4,0,0,1,.46-.09c.15,0,.3,0,.34.11h.05c0-.06,0-.14-.1-.19a.65.65,0,0,0-.28-.08.66.66,0,0,0,.18-.19.28.28,0,0,0,.05-.11l0,0,.07-.1.15-.11.11-.06a.19.19,0,0,1,0,.1,1.94,1.94,0,0,1-.2.33h0c0,.05,0,.11,0,.14a.18.18,0,0,0,.2,0h0a1.26,1.26,0,0,0,.21-.26l0,0a0,0,0,0,1,0,0,1.22,1.22,0,0,1-.18.59s0,0,0,.05a.06.06,0,0,0,.07,0,1,1,0,0,1,.22-.25.57.57,0,0,1,.13-.1h0v0c0,.06,0,.07,0,.12a.87.87,0,0,1-.09.11,1.41,1.41,0,0,1-.29.18.09.09,0,0,0-.05.1v0a.11.11,0,0,1,0,.06.11.11,0,0,1,0,.08.65.65,0,0,1-.09.16l-.08.07-.09.08a1.14,1.14,0,0,0-.19.19c-.21.27-.23.55-.4.8h0a1.24,1.24,0,0,0,.33-.36,1.6,1.6,0,0,1,.28-.35.9.9,0,0,1,.18-.15l.1-.08.11-.1A.56.56,0,0,0,23,24a.32.32,0,0,0,0-.13.22.22,0,0,0,0-.08,1.1,1.1,0,0,0,.23-.2.51.51,0,0,0,.09-.16.27.27,0,0,0,0-.18.16.16,0,0,0-.11-.1.21.21,0,0,0-.18,0l-.07.05a.68.68,0,0,0,.08-.24.28.28,0,0,0,0-.09.08.08,0,0,0,0-.06s0,0-.1-.06a.36.36,0,0,0,0-.11.19.19,0,0,0,0-.09v0a.23.23,0,0,0-.08-.07.49.49,0,0,0-.31,0h0a.45.45,0,0,0,0-.11l0,0h0c.34,0,.66-.08,1-.12l1-.16c.17,0,.34-.09.51-.13s.31-.12.47-.18a6.57,6.57,0,0,0,.79-.46,3.7,3.7,0,0,0,1-1.05,2.87,2.87,0,0,0,.23-.47c0-.14.09-.25.12-.35l.06,0,.27.09h-.3v0a6.81,6.81,0,0,1,1.9.36,3.32,3.32,0,0,1,1.38.9l.11.13.09.16a1.1,1.1,0,0,1,.12.31l0,.16,0,.16c0,.12,0,.22,0,.34A5.15,5.15,0,0,1,31.31,22.67ZM22,28.38h-.65l.32-.09.49-.14.28-.07a2.3,2.3,0,0,1,.28-.06L23,28a2.65,2.65,0,0,1,.27,0,2.25,2.25,0,0,1,.26,0,1.64,1.64,0,0,1,.23,0L24,28l.16,0,.09,0a.56.56,0,0,0,0,.12l0,.2C23.44,28.37,22.73,28.36,22,28.38Zm-6.45-4.15h0S15.56,24.22,15.57,24.23Zm-.49,2.18h0a1.12,1.12,0,0,0-.05.36.65.65,0,0,0,0,.19.41.41,0,0,0,0,.18.82.82,0,0,0,.12.2c-.32-.08-.64-.17-1-.28a6.27,6.27,0,0,1-1-.41,1.84,1.84,0,0,1-.38-.27.66.66,0,0,1-.17-.32,5,5,0,0,1-.11-.79,3.62,3.62,0,0,0-.12-.83,1.28,1.28,0,0,0-.09-.22L12.3,24l-.23-.37c-.07-.12-.15-.24-.2-.35s0,0,0,0h0a.66.66,0,0,1,.19.09.65.65,0,0,1,.27.24h0a.26.26,0,0,0,.18.11.28.28,0,0,0,.31-.14c0-.06.06-.14.09-.21s.09-.14.14-.21a1.38,1.38,0,0,1,.38-.34l.12-.06.16-.07.3-.11.32-.1.22-.06,0,0-.08.05-.45.3a3.43,3.43,0,0,0-.41.32,1.23,1.23,0,0,0-.32.4.09.09,0,0,0,.05.1.17.17,0,0,0,.17,0,4.49,4.49,0,0,1,.55-.51l.19-.12.33-.19h0a.33.33,0,0,1,.19,0l0,0,0,0a.08.08,0,0,1,0,.07.28.28,0,0,1,0,.17,1.19,1.19,0,0,1-.09.15l-.13.06a1.74,1.74,0,0,0-.35.29,6,6,0,0,0-.53.6h0s0,.09,0,.12a.17.17,0,0,0,.18,0,5,5,0,0,0,.47-.45l.13-.11c.08-.06.16-.13.24-.18v0a1.62,1.62,0,0,1-.13.63,1.57,1.57,0,0,1-.39.57h0c-.07.06-.05.15,0,.2a.31.31,0,0,0,.31,0,4.92,4.92,0,0,1,.83-.61l.1-.05a.05.05,0,0,1,0,0,.54.54,0,0,1-.1.36c-.16.26-.38.53-.51.8a1.52,1.52,0,0,1-.65.71l0,0a1.72,1.72,0,0,0,.49-.29,3.06,3.06,0,0,0,.34-.39c.1-.13.18-.26.28-.38a3,3,0,0,0,.31-.39.66.66,0,0,0,.18-.48.37.37,0,0,0-.05-.15l0,0a.14.14,0,0,0,0,0,.27.27,0,0,0-.18-.08.43.43,0,0,0-.17,0,.18.18,0,0,0-.11,0,.59.59,0,0,0-.16.07l-.07,0a1.45,1.45,0,0,0,.07-.62.42.42,0,0,0-.09-.24l0,0h0l-.05,0-.11,0,0-.05a1.73,1.73,0,0,1,.43-.38.78.78,0,0,1,.57-.12.78.78,0,0,0-.93.23.15.15,0,0,0,0-.1s0,0,0-.05l-.07,0-.06,0,0,0a.19.19,0,0,0,.09-.19v0l.47.1L15,21.92l.7.49-.08-.34.41.24L16,21.75l.28.3.05-.3s.4.17.39.18v-.24l.42.44,0-.15a.86.86,0,0,1,.07.1c-.25.11-.71.37-.66.67s.47.84.8.8,0,.34,0,.34.39-.25.31-.48-1,.06-.92-.51a.73.73,0,0,1,.56-.63l0,0a1.92,1.92,0,0,0,.26.45l0,0a.88.88,0,0,0-.34,0c-.49.06-.3.29-.3.29a1.91,1.91,0,0,1,.79-.14l.3.21a2,2,0,0,1,.42.28.35.35,0,0,1,.09.31,2.19,2.19,0,0,1-.33.71,1.49,1.49,0,0,1-.62.48,3.17,3.17,0,0,1-.78.19c-.26,0-.49,0-.68.05h-.62v0l.38.07A2.69,2.69,0,0,0,15.08,26.41Zm-.49-3.95h0S14.6,22.45,14.59,22.46Zm3.1-.94h0a7.38,7.38,0,0,1,1.22-.58,6.68,6.68,0,0,1,.71-.25l.34-.11.32-.08.47-.14.09,0,.35.09.36.07h0a1,1,0,0,1,.19.18.26.26,0,0,1,.05.28.48.48,0,0,1-.13.16l-.11.11a1.47,1.47,0,0,0-.1.13.83.83,0,0,0-.14.3.43.43,0,0,0,.13.38.78.78,0,0,0,.47.21l-.12.06a.85.85,0,0,0-.2.17.77.77,0,0,0-.11.27l-.13,0A1.92,1.92,0,0,0,21,23a.65.65,0,0,0-.15.17.38.38,0,0,0,0,.17.85.85,0,0,0,.22.5,2.73,2.73,0,0,1-.33.43l-.12.12-.07.06,0,0a.87.87,0,0,1-.27,0l-.75,0-.71,0a1.93,1.93,0,0,0,.22-.36,1.36,1.36,0,0,0,.13-.46.61.61,0,0,0-.21-.53,2.55,2.55,0,0,0-.54-.32,1.69,1.69,0,0,1-.76-.65,1.85,1.85,0,0,0-.34-.41C17.33,21.76,17.48,21.65,17.69,21.52Zm3.89,1.2h0a.93.93,0,0,1,.16-.18.49.49,0,0,1,.18-.11,1,1,0,0,1,.23-.06.07.07,0,0,1,.05,0s0,0,0,0,0,.12,0,.14a.47.47,0,0,1-.09.12s-.06,0-.08.07h0a.72.72,0,0,0-.2,0A.78.78,0,0,0,21.58,22.72Zm-1.37-2.79h0a8.51,8.51,0,0,1-.9-.52,3.12,3.12,0,0,1-.68-.58c-.08-.11-.16-.23-.26-.35a1.89,1.89,0,0,0-.37-.32c-.24-.16-.46-.32-.66-.47a4,4,0,0,1-.46-.44,1.08,1.08,0,0,1-.2-.38.45.45,0,0,1,0-.26h0a1.39,1.39,0,0,0,0-1.54,18.67,18.67,0,0,0,5.43.94l.36.18c-.66,0-1.91,0-2.47,0-.77,0-.48.68-.48.68a3,3,0,0,1,1.76-.6l1.21-.07c.36.2.85.55.93.94l-.12-.62.44,1s.16-2.45.8-1.75.93,1.34.48,1.75-.48.25-.48.25,0,.28.93.85c.8.48,1.11.93,1.79.82a7.33,7.33,0,0,1-.47.61,5.9,5.9,0,0,1-.43.46l-.25.24-.28.25a4.23,4.23,0,0,1-.66.45,6.55,6.55,0,0,1-.8.38l-.47.14c-.16,0-.32.07-.48.09a3.92,3.92,0,0,1-1,0,1.11,1.11,0,0,1-.65-.21.35.35,0,0,1,0-.4.6.6,0,0,1,.06-.11l.08-.1a.49.49,0,0,0,.13-.26.43.43,0,0,0-.2-.42l-.11-.05a3,3,0,0,0,.6,0,1.81,1.81,0,0,0,.27-.06,2.84,2.84,0,0,0,.72-.36,2.75,2.75,0,0,0,.6-.57,3.07,3.07,0,0,0,.5-1,1.62,1.62,0,0,0,.07-.39h0l-.22.35a9,9,0,0,1-.68.87,4.63,4.63,0,0,1-.55.52l-.34.25a1.42,1.42,0,0,0-.18.11l-.24.08a2.66,2.66,0,0,1-1.08,0A4.9,4.9,0,0,1,20.21,19.93Zm-3.73-3.08h0a0,0,0,0,1,0,0,1,1,0,0,0,.11.46,1.53,1.53,0,0,0,.3.41C16.56,17.42,16.36,17.09,16.48,16.85Zm15.23,4.77,0-.18-.05-.19a1.11,1.11,0,0,0-.16-.35l-.09-.16c-.06-.08-.1-.11-.15-.17a3.05,3.05,0,0,0-.71-.55,4,4,0,0,0-.87-.36c0-.05-.12-.15-.39-.36a1.86,1.86,0,0,0-.52-.29c0-.06,0-.13,0-.21a.56.56,0,0,0-.61-.45,8,8,0,0,0-1.76-3.64A7.45,7.45,0,0,0,20.45,12c-2.84,0-4.79,1.18-4.88,2.39,0,0-.82,0-.78,1.56s.11,2.78,3.28,2.94l.09.12a3.22,3.22,0,0,0,.85.64,6.66,6.66,0,0,0,1,.46l.62.19a3.93,3.93,0,0,0-.47,0,5.76,5.76,0,0,0-.75.1,4.81,4.81,0,0,0-.8.23A3.92,3.92,0,0,0,18,21a2.7,2.7,0,0,0-.49.4,1.3,1.3,0,0,0-.25.39,1.5,1.5,0,0,0-.48-.29,3.53,3.53,0,0,0-1.33-.1,5.77,5.77,0,0,0-.63.07l-.59.12c-.18.05-.36.12-.53.18a3.13,3.13,0,0,0-.45.22,1.61,1.61,0,0,0-.6.54.85.85,0,0,0-.12.52l0,.11-.09-.06a1.57,1.57,0,0,0-.29-.14L12,22.9l-.07,0-.13,0H11.6a.6.6,0,0,0-.21.08.26.26,0,0,0-.1.22.57.57,0,0,0,.06.25,2.24,2.24,0,0,0,.22.4l.24.37.12.18a.89.89,0,0,1,.08.17,3.62,3.62,0,0,1,.16.77,5,5,0,0,0,.18.82.86.86,0,0,0,.28.41,1.92,1.92,0,0,0,.48.29,6.55,6.55,0,0,0,1.08.37c.35.08.71.16,1.08.21l.07.09.18.15.07,0,0,0,.1.05a.31.31,0,0,0,.1,0l.15.05a1.09,1.09,0,0,0,.3.07,2.81,2.81,0,0,0,.58,0,4,4,0,0,0,.52-.11,3.24,3.24,0,0,0,.47-.16,3.17,3.17,0,0,0,.42-.19l.61.39c.27.17.55.33.83.49a.22.22,0,0,0,.14,0h0c.23,0,.41-.08.61-.12l.58-.17.55-.19c.18-.07.36-.13.55-.22a2.47,2.47,0,0,0,.49-.33A1.48,1.48,0,0,0,23,27a1.33,1.33,0,0,0,.15-.45,1.51,1.51,0,0,0,0-.37l.15,0,.36.09.39.1a2.27,2.27,0,0,1,.34.11c.05,0,.11,0,.15.07a.75.75,0,0,1,.12.07l.1.07c-.14.3-.25.59-.34.84s-.11.37-.15.51l0,0a1,1,0,0,0-.32-.2,1.31,1.31,0,0,0-.26-.09,1.44,1.44,0,0,0-.31-.05,3.41,3.41,0,0,0-.71,0,3.47,3.47,0,0,0-.62.19,3,3,0,0,0-.45.25,1.87,1.87,0,0,0-.3.26l-1.54,0v0c.77.06,1.55.11,2.32.15s1.55.07,2.33.11c1.55.07,3.1.1,4.65.11h.15l.06-.07a4.74,4.74,0,0,0,.49-.64,6.21,6.21,0,0,0,.39-.65,11.2,11.2,0,0,0,.58-1.35l.25-.68c.08-.22.14-.45.22-.68.14-.45.28-.91.4-1.37a5.51,5.51,0,0,0,.21-1.4A2.19,2.19,0,0,0,31.71,21.62Z"/><path class="cls-4" d="M2.73,3.1a1.46,1.46,0,0,1-.49.06A1.06,1.06,0,0,1,1.09,2,1.14,1.14,0,0,1,2.3.75a1.22,1.22,0,0,1,.43.06L2.65,1A1.24,1.24,0,0,0,2.3,1c-.37,0-.8.25-.8,1s.39,1,.81,1a1.11,1.11,0,0,0,.36,0Z"/><path class="cls-4" d="M4.45,2.68c0,.19,0,.33,0,.46H4.13L4.1,3h0a.69.69,0,0,1-.53.21c-.43,0-.6-.23-.6-.65V1.44h.39v1c0,.26.06.46.33.46A.35.35,0,0,0,4,2.72a.78.78,0,0,0,0-.16V1.44h.39Z"/><path class="cls-4" d="M5.87,2.26h0c-.2,0-.68,0-.68.4A.29.29,0,0,0,5.5,3a.35.35,0,0,0,.36-.26.31.31,0,0,0,0-.09Zm.06.88,0-.18h0a.62.62,0,0,1-.49.21.53.53,0,0,1-.59-.49c0-.42.5-.61,1.05-.61V2c0-.22-.08-.38-.39-.38a.91.91,0,0,0-.41.09L5,1.53a1.36,1.36,0,0,1,.58-.12c.5,0,.71.23.71.61v.73a1.63,1.63,0,0,0,0,.39Z"/><path class="cls-4" d="M6.77,1.88c0-.2,0-.3,0-.44h.35l0,.21h0a.71.71,0,0,1,.57-.24.54.54,0,0,1,.6.59V3.14h-.4V2c0-.19-.06-.4-.34-.4a.39.39,0,0,0-.38.28.66.66,0,0,0,0,.15V3.14H6.77Z"/><path class="cls-4" d="M9.89,2.09h0a.37.37,0,0,0,0-.11.38.38,0,0,0-.37-.33c-.32,0-.44.31-.44.65s.14.64.42.64a.37.37,0,0,0,.38-.29.36.36,0,0,0,0-.11ZM10.28.71v2c0,.12,0,.31,0,.41H10l0-.21h0a.62.62,0,0,1-.52.24c-.42,0-.72-.31-.72-.87s.36-.89.75-.89a.52.52,0,0,1,.45.21h0V.71Z"/><path class="cls-4" d="M11.06,2.29h0c0,.28.07.66.43.66s.41-.4.41-.66-.07-.66-.42-.66-.42.4-.42.66m1.24,0a.8.8,0,0,1-.83.88.78.78,0,0,1-.8-.87.8.8,0,0,1,.83-.89A.78.78,0,0,1,12.3,2.29Z"/><rect class="cls-4" x="13.44" y="0.71" width="0.39" height="2.43"/><rect class="cls-4" x="14.36" y="0.71" width="0.39" height="2.43"/><path class="cls-4" d="M15.58,2.29h0c0,.28.07.66.43.66s.4-.4.4-.66-.07-.66-.41-.66-.42.4-.42.66m1.23,0a.8.8,0,0,1-.82.88.78.78,0,0,1-.81-.87A.8.8,0,0,1,16,1.41.78.78,0,0,1,16.81,2.29Z"/><path class="cls-4" d="M17.19,1.88c0-.14,0-.31,0-.44h.36l0,.27h0a.6.6,0,0,1,.52-.3h.08v.27h-.08A.47.47,0,0,0,17.6,2a.81.81,0,0,0,0,.16v.94h-.4Z"/><path class="cls-4" d="M19.31,2.26h0c-.21,0-.68,0-.68.4a.28.28,0,0,0,.3.3.37.37,0,0,0,.37-.26.31.31,0,0,0,0-.09Zm.05.88,0-.18h0a.62.62,0,0,1-.49.21.53.53,0,0,1-.59-.49c0-.42.5-.61,1.06-.61V2c0-.22-.09-.38-.4-.38a.91.91,0,0,0-.41.09l-.09-.19A1.36,1.36,0,0,1,19,1.41c.5,0,.72.23.72.61v.73a2.42,2.42,0,0,0,0,.39Z"/><path class="cls-4" d="M20.88,2.86a1,1,0,0,0,.4.09c.23,0,.36-.1.36-.25s-.06-.22-.31-.33-.5-.29-.5-.49.3-.47.68-.47A1.22,1.22,0,0,1,22,1.5l-.11.21a.67.67,0,0,0-.33-.08c-.21,0-.32.11-.32.22s.06.17.31.29.51.28.51.52-.34.5-.74.5a1.17,1.17,0,0,1-.5-.1Z"/><path class="cls-4" d="M23.43,2.12h0c0-.34-.18-.5-.37-.5s-.39.26-.4.5Zm-.78.2c0,.52.3.63.59.63a1.12,1.12,0,0,0,.41-.07l.06.2a1.75,1.75,0,0,1-.54.08.8.8,0,0,1-.9-.85.82.82,0,0,1,.83-.9.68.68,0,0,1,.71.75.76.76,0,0,1,0,.16Z"/><path class="cls-4" d="M1.68,4.15V4.6h.47v.21H1.68v1c0,.22.12.28.26.28H2.1v.21a1.07,1.07,0,0,1-.29,0,.69.69,0,0,1-.39-.1.52.52,0,0,1-.15-.43v-1H1V4.6h.3V4.23Z"/><path class="cls-4" d="M2.45,5c0-.15,0-.31,0-.44h.35l0,.27h0a.58.58,0,0,1,.52-.3h.08v.28H3.33a.46.46,0,0,0-.47.35.78.78,0,0,0,0,.16V6.3H2.45Z"/><path class="cls-4" d="M4.56,5.42h0c-.21,0-.68,0-.68.39a.29.29,0,0,0,.3.31.37.37,0,0,0,.37-.26.34.34,0,0,0,0-.1Zm.06.88,0-.18h0a.61.61,0,0,1-.49.21.53.53,0,0,1-.59-.49c0-.42.5-.61,1.06-.62v0c0-.23-.08-.38-.4-.38a1,1,0,0,0-.4.08l-.09-.19a1.48,1.48,0,0,1,.58-.11c.49,0,.71.23.71.61v.73A2.42,2.42,0,0,0,5,6.3Z"/><path class="cls-4" d="M5.45,5c0-.2,0-.3,0-.44h.34l0,.2h0a.74.74,0,0,1,.57-.23.54.54,0,0,1,.6.59V6.3H6.58V5.2c0-.2-.06-.4-.35-.4a.37.37,0,0,0-.37.28.61.61,0,0,0,0,.15V6.3H5.45Z"/><path class="cls-4" d="M8.57,5.23h0a.41.41,0,0,0,0-.11A.37.37,0,0,0,8.2,4.8c-.32,0-.44.3-.44.66s.13.64.43.64a.36.36,0,0,0,.36-.28.39.39,0,0,0,0-.15Zm0,.89h0a.58.58,0,0,1-.48.21c-.4,0-.72-.3-.72-.86a.8.8,0,0,1,.78-.9.52.52,0,0,1,.46.23h0l0-.2H9c0,.12,0,.27,0,.53V7h-.4Z"/><path class="cls-4" d="M10.94,5.83c0,.19,0,.34,0,.47h-.35l0-.18h0a.78.78,0,0,1-.54.21c-.43,0-.6-.24-.6-.66V4.6h.39v1c0,.27.07.47.34.47a.34.34,0,0,0,.35-.23.36.36,0,0,0,0-.15V4.6h.39Z"/><path class="cls-4" d="M11.45,6.3h0V4.6h.39V6.3Zm.42-2.14c0,.11-.09.18-.24.18s-.22-.07-.22-.18.1-.17.23-.17S11.87,4.06,11.87,4.16Z"/><rect class="cls-4" x="12.34" y="3.87" width="0.39" height="2.43"/><path class="cls-4" d="M13.26,6.3h0V4.6h.4V6.3Zm.43-2.14c0,.11-.09.18-.24.18s-.23-.07-.23-.18.1-.17.23-.17S13.69,4.06,13.69,4.16Z"/><path class="cls-4" d="M14,6.13l.78-1a2.19,2.19,0,0,0,.2-.25h-.88V4.6h1.32v.18l-.78,1c-.06.09-.14.18-.2.26h1V6.3H14Z"/><path class="cls-4" d="M16.62,5.42h0c-.2,0-.68,0-.68.39a.3.3,0,0,0,.3.31.35.35,0,0,0,.37-.26.34.34,0,0,0,0-.1Zm.06.88,0-.18h0a.62.62,0,0,1-.49.21.53.53,0,0,1-.59-.49c0-.42.5-.61,1-.62v0c0-.23-.08-.38-.39-.38a1.07,1.07,0,0,0-.41.08l-.09-.19a1.56,1.56,0,0,1,.58-.11c.5,0,.71.23.71.61v.73a1.63,1.63,0,0,0,0,.39Z"/><path class="cls-4" d="M19.19,5.42h0c-.21,0-.68,0-.68.39a.29.29,0,0,0,.3.31.37.37,0,0,0,.37-.26.34.34,0,0,0,0-.1Zm0,.88,0-.18h0a.61.61,0,0,1-.49.21.53.53,0,0,1-.59-.49c0-.42.5-.61,1.06-.62v0c0-.23-.08-.38-.4-.38a1.07,1.07,0,0,0-.41.08l-.08-.19a1.48,1.48,0,0,1,.58-.11c.49,0,.71.23.71.61v.73a2.42,2.42,0,0,0,0,.39Z"/><rect class="cls-4" x="20.08" y="3.87" width="0.39" height="2.43"/><path class="cls-4" d="M21.69,6a1,1,0,0,0,.4.08c.22,0,.36-.09.36-.24s-.06-.22-.32-.33-.49-.29-.49-.49.29-.47.68-.47a1.16,1.16,0,0,1,.44.09l-.1.2a.84.84,0,0,0-.33-.07c-.22,0-.32.1-.32.21s.06.18.3.3.52.28.52.51-.34.51-.75.51a1.15,1.15,0,0,1-.49-.1Z"/><path class="cls-4" d="M24.24,5.27h0c0-.34-.18-.49-.37-.49s-.39.26-.4.49Zm-.78.2c0,.52.3.63.59.63A1.15,1.15,0,0,0,24.46,6l.06.2a1.75,1.75,0,0,1-.54.08.79.79,0,0,1-.9-.85.81.81,0,0,1,.83-.9.68.68,0,0,1,.71.75.62.62,0,0,1,0,.15Z"/><path class="cls-4" d="M25,5c0-.15,0-.31,0-.44h.36l0,.27h0a.58.58,0,0,1,.52-.3H26v.28h-.08a.47.47,0,0,0-.48.35.81.81,0,0,0,0,.16V6.3H25Z"/><path class="cls-4" d="M2.12,8.58h0c-.21,0-.68,0-.68.39a.28.28,0,0,0,.3.3A.37.37,0,0,0,2.11,9a.38.38,0,0,0,0-.1Zm0,.87,0-.17h0a.6.6,0,0,1-.49.2c-.33,0-.59-.19-.59-.48s.5-.62,1.06-.62V8.33c0-.23-.08-.39-.4-.39A1.07,1.07,0,0,0,1.3,8l-.08-.19a1.48,1.48,0,0,1,.58-.11c.49,0,.71.22.71.61v.73a2.24,2.24,0,0,0,0,.38Z"/><rect class="cls-4" x="3.01" y="7.03" width="0.39" height="2.43"/><path class="cls-4" d="M3.74,9.29l.78-1L4.72,8H3.84V7.76H5.16v.17L4.39,9l-.2.25h1v.22H3.74Z"/><path class="cls-4" d="M6.41,8.58h0c-.21,0-.68,0-.68.39a.28.28,0,0,0,.3.3A.37.37,0,0,0,6.4,9a.38.38,0,0,0,0-.1Zm0,.87,0-.17h0a.62.62,0,0,1-.49.2c-.33,0-.59-.19-.59-.48s.5-.62,1.06-.62V8.33c0-.23-.09-.39-.4-.39A1.07,1.07,0,0,0,5.59,8l-.08-.19a1.46,1.46,0,0,1,.57-.11c.5,0,.72.22.72.61v.73a2.24,2.24,0,0,0,0,.38Z"/><path class="cls-4" d="M8.4,8.4h0a.45.45,0,0,0,0-.11A.38.38,0,0,0,8,8c-.32,0-.44.31-.44.65s.14.65.42.65A.38.38,0,0,0,8.38,9a.37.37,0,0,0,0-.12ZM8.79,7v2c0,.11,0,.31,0,.4H8.47l0-.21h0a.62.62,0,0,1-.52.24c-.42,0-.72-.31-.72-.87s.36-.88.75-.88a.53.53,0,0,1,.45.2h0V7Z"/><path class="cls-4" d="M9.57,8.61h0c0,.28.07.66.43.66s.41-.4.41-.66S10.34,8,10,8s-.42.4-.42.66m1.24,0a.79.79,0,0,1-.83.87.77.77,0,0,1-.8-.87A.8.8,0,0,1,10,7.73.78.78,0,0,1,10.81,8.61Z"/><path class="cls-4" d="M12.23,8.61h0c0,.28.07.66.43.66s.41-.4.41-.66S13,8,12.65,8s-.42.4-.42.66m1.24,0a.79.79,0,0,1-.83.87.77.77,0,0,1-.8-.87.8.8,0,0,1,.83-.88A.78.78,0,0,1,13.47,8.61Z"/><path class="cls-4" d="M2.12,11.73h0c-.21,0-.68,0-.68.4a.28.28,0,0,0,.3.3.37.37,0,0,0,.37-.26.28.28,0,0,0,0-.09Zm0,.88,0-.18h0a.61.61,0,0,1-.49.21c-.33,0-.59-.19-.59-.48s.5-.62,1.06-.62v0c0-.23-.08-.39-.4-.39a.91.91,0,0,0-.41.09L1.22,11a1.48,1.48,0,0,1,.58-.11c.49,0,.71.22.71.6v.74a2.3,2.3,0,0,0,0,.38Z"/><path class="cls-4" d="M4.22,12.57a1.11,1.11,0,0,1-.41.06.82.82,0,0,1-.91-.86.89.89,0,0,1,1-.88,1.08,1.08,0,0,1,.35,0l-.08.22a.83.83,0,0,0-.28,0,.58.58,0,0,0-.57.65.56.56,0,0,0,.58.64.93.93,0,0,0,.29-.05Z"/><path class="cls-4" d="M5.44,11.73h0c-.21,0-.68,0-.68.4a.28.28,0,0,0,.3.3.37.37,0,0,0,.37-.26.28.28,0,0,0,0-.09Zm.06.88,0-.18h0a.61.61,0,0,1-.49.21c-.33,0-.59-.19-.59-.48s.5-.62,1.06-.62v0c0-.23-.08-.39-.4-.39a.91.91,0,0,0-.41.09L4.54,11a1.48,1.48,0,0,1,.58-.11c.49,0,.71.22.71.6v.74a2.3,2.3,0,0,0,0,.38Z"/><path class="cls-4" d="M6.32,11.35c0-.14,0-.31,0-.44h.36l0,.27h0a.59.59,0,0,1,.52-.29h.08v.28H7.21a.47.47,0,0,0-.48.36.71.71,0,0,0,0,.15v.94h-.4Z"/><path class="cls-4" d="M7.55,12.61h0v-1.7h.39v1.7ZM8,10.48c0,.1-.09.17-.24.17s-.22-.07-.22-.17.1-.18.23-.18S8,10.37,8,10.48Z"/><path class="cls-4" d="M9.65,12.57a1.11,1.11,0,0,1-.41.06.81.81,0,0,1-.91-.86.89.89,0,0,1,1-.88,1.13,1.13,0,0,1,.35,0l-.08.22a.88.88,0,0,0-.28,0,.59.59,0,0,0-.58.65.57.57,0,0,0,.59.64.87.87,0,0,0,.28-.05Z"/><path class="cls-4" d="M9.93,12.61h0v-1.7h.4v1.7Zm.43-2.13c0,.1-.1.17-.24.17s-.23-.07-.23-.17.1-.18.23-.18S10.36,10.37,10.36,10.48Z"/><path class="cls-4" d="M11.74,11.73h0c-.2,0-.68,0-.68.4a.28.28,0,0,0,.3.3.35.35,0,0,0,.37-.26.28.28,0,0,0,0-.09Zm.06.88,0-.18h0a.62.62,0,0,1-.49.21c-.34,0-.59-.19-.59-.48s.49-.62,1.05-.62v0c0-.23-.08-.39-.39-.39a.88.88,0,0,0-.41.09L10.84,11a1.48,1.48,0,0,1,.58-.11c.5,0,.71.22.71.6v.74a1.54,1.54,0,0,0,0,.38Z"/><path class="cls-4" d="M13.73,11.56h0v-.11a.39.39,0,0,0-.37-.33c-.33,0-.44.31-.44.65s.13.65.42.65a.39.39,0,0,0,.38-.3.37.37,0,0,0,0-.11Zm.39-1.38v2c0,.12,0,.31,0,.41H13.8l0-.21h0a.6.6,0,0,1-.51.24c-.42,0-.73-.31-.73-.87a.78.78,0,0,1,.75-.88.52.52,0,0,1,.45.2h0v-.91Z"/><path class="cls-4" d="M14.91,11.76h0c0,.28.07.67.43.67s.4-.4.4-.67-.06-.66-.41-.66-.42.4-.42.66m1.23,0a.79.79,0,0,1-.82.88.78.78,0,0,1-.81-.87.79.79,0,0,1,.83-.88A.78.78,0,0,1,16.14,11.76Z"/></svg>