<svg id="Capa_1" data-name="Capa 1" xmlns="http://www.w3.org/2000/svg" viewBox="0 0 27.3 25.08"><defs><style>.cls-1{fill:#ffcc64;}.cls-2{fill:#0070a2;}.cls-3{fill:#f05050;}.cls-4{fill:#acd03d;}.cls-5{fill:#fbc8ba;}.cls-6{fill:#231f20;}</style></defs><title>1-21meses</title><path class="cls-1" d="M.64,20.08a27.91,27.91,0,0,0,14,3.44c8.59,0,11.53-3.44,11.53-3.44Z"/><polygon class="cls-2" points="14.46 14.74 14.46 16.16 14.55 17.49 14.9 17.7 16.76 17.36 16.84 15.92 16.58 14.61 14.46 14.74"/><polygon class="cls-2" points="12.11 17.51 14.96 17.89 14.88 19.45 12.15 19.05 12.11 17.51"/><polygon class="cls-2" points="12.11 20.94 12.15 22.49 15.37 23.12 15.39 21.07 12.11 20.94"/><polygon class="cls-3" points="12.31 14.62 15.14 14.78 16.58 14.49 14.3 14.14 12.31 14.62"/><polygon class="cls-3" points="14.45 16.06 14.68 17.84 12.11 17.51 12.11 16.01 14.45 16.06"/><path class="cls-3" d="M14.89,19.35l1.87-.23.08,1.26-1.45.69s-.4.27-.36-.86-.14-.86-.14-.86"/><polygon class="cls-4" points="12.17 14.61 12.11 15.95 14.68 16.16 14.46 14.74 12.17 14.61"/><polygon class="cls-4" points="14.68 17.65 14.87 19.58 16.76 19.12 16.76 17.36 14.68 17.65"/><polygon class="cls-4" points="12.15 19.05 15.1 19.52 15.1 21.16 12.15 21.07 12.15 19.05"/><path class="cls-4" d="M15.1,21.16s0,1.95,0,2.06a18.7,18.7,0,0,0,2-1l-.29-1.51-.66.22Z"/><path class="cls-5" d="M21.51,8.47c0,.25.53.26.69.64s-.72,1.16-.95,1.27-.87,0-1.1.81-1.81,1.33-1.81,1.33a.57.57,0,0,0-.1.41c0,.23.51.57.51.57s1.24.38,2.13.62.94.79,1.52,1.54,1.37,2,1.68,2.31a9.62,9.62,0,0,1,.82,2.13l-3.27,0-1.95-2.08v2l-2.83,0-.05-2-.15-1.52.07-1.85-2.42-.46-2,.34,0,.1-.06.26L12.11,16l.18,0-.07.77-.05.7,0,1.25,0,1.37-.4.06s-.57-.45-.65,0-1.59,1.33-2.58,1.61a1.71,1.71,0,0,1-2.29-1.15c-.57-1.23,0-2.11.36-3.08a12.45,12.45,0,0,1,3-3.35,15.19,15.19,0,0,1,2.71-.69.62.62,0,0,0,.4-.56A12.74,12.74,0,0,1,10.89,12,3.82,3.82,0,0,1,9.47,10,2.11,2.11,0,0,1,9,9.76c-.23-.13-1-.87-1-1.39s1.17-.61,1.17-.61a2.7,2.7,0,0,1-.14-1c0-.65.6-1.38,1.61-2s5-1.17,5.36-1.21a9.47,9.47,0,0,1,3.56,1.62,9.52,9.52,0,0,1,2,3.32"/><path class="cls-6" d="M19.44,8.13c-2-2.13-3.51,0-3.51,0,1.42-1.29,3.51,0,3.51,0"/><path class="cls-6" d="M10.83,8.29A3,3,0,0,1,14,8.21s-1.2-2-3.19.08"/><path class="cls-6" d="M17.46,8.48a2.05,2.05,0,0,0-1.36.78L17,8.91c-.14.34.44.65.91.43s.39-.51.39-.51L18.5,9c.18.15-.43.43-.43.43l1.06-.31a2.21,2.21,0,0,0-1.67-.68"/><path class="cls-6" d="M12.08,8.45c-1.12.34-1.15.72-1.15.72l1.07.3s-.58-.29-.46-.43a1,1,0,0,1,.29-.22.45.45,0,0,0,.38.55c.48.08,1.15,0,1-.4,0,0,.29-.24.75.09a1.78,1.78,0,0,0-1.84-.61"/><path class="cls-6" d="M15.61,10.2s-.73-.12-.44.09.7,0,.44-.09"/><path class="cls-6" d="M14.87,10.33c.18-.17-.41,0-.41,0,0,.29.23.16.41,0"/><path class="cls-6" d="M10.05,8.73h0"/><path class="cls-6" d="M19.76,7.14a.88.88,0,0,0-.1-.19c.1.25.15.4.1.19"/><path class="cls-6" d="M15.14,11.88s-.7-.38.12-.25.34.17.34.17.58.07.33-.31-1.48-.1-1.62.1.83.29.83.29"/><path class="cls-6" d="M14.9,12.46c.26.2,1.08.2,1-.23,0,0-1.21,0-1,.23"/><path class="cls-6" d="M19.9,19.3h0a3.05,3.05,0,0,0,0-.67.24.24,0,0,0,0-.08,3.62,3.62,0,0,0,.22.32,2.76,2.76,0,0,0,.33.36l.2.15.19.15.42.34H19.72a2.51,2.51,0,0,0,.18-.57m-8.51-3.93h0s.06,0,0,0Zm-.58.33h0a.44.44,0,0,0-.24-.19l.51-.1.23,0h0a.37.37,0,0,1,0,.16,1.74,1.74,0,0,1-.21.37l-.1.18a1,1,0,0,0-.12.17l-.08.15a.29.29,0,0,0-.13-.05h0a.91.91,0,0,0,.16-.24.6.6,0,0,0,.06-.19A.3.3,0,0,0,10.81,15.7Zm6.33,3.39h0s0,0,0,0h0c0-.59,0-1.17,0-1.75a.13.13,0,0,0,0-.06.36.36,0,0,0-.4-.14h0A10.68,10.68,0,0,0,16.94,16v0c0-.08-.09-.14-.2-.14a8.75,8.75,0,0,0,.2-1.23h0a.12.12,0,0,0-.06-.1H17l-.12,0a.32.32,0,0,0-.14,0h0l-1.06-.19c-.44-.07-.89-.12-1.34-.17h-.06c-.63.1-1.26.22-1.88.37h-.24c-.12,0-.22.08-.21.16a8.41,8.41,0,0,0,.21,1.22c-.13,0-.22.08-.21.17a10.58,10.58,0,0,0,.23,1.35h0c-.1,0-.17.07-.16.13l.06.63a.23.23,0,0,0-.12-.06.17.17,0,0,0-.12,0l0,0a1.58,1.58,0,0,0-.13-.13,2.31,2.31,0,0,0-.65-.41.56.56,0,0,1-.19-.12s0,0,0,0,0-.05,0-.07a.34.34,0,0,1,0-.09c0-.17.09-.34.11-.55a.38.38,0,0,0,0-.1l.23-.12,0,0a.21.21,0,0,0,0,.16.34.34,0,0,0,.17.21.75.75,0,0,0,.25.07.57.57,0,0,0,.24,0,.26.26,0,0,0,.19-.16.23.23,0,0,0,0-.18h-.33s0,0,0,0,0,0,0,0h.05l-.21-.1-.16-.07.1-.06a2,2,0,0,0,.21-.18,1.34,1.34,0,0,0,.33-.44.64.64,0,0,0,.06-.28.4.4,0,0,0-.07-.19.44.44,0,0,0-.29-.17.88.88,0,0,0-.47.05,1.33,1.33,0,0,0-.24.12,1.09,1.09,0,0,0-.35.32l-.1,0a1.13,1.13,0,0,0-.38,0l-.15,0h0l-.05,0-.05,0-.11,0-.13.07a1.91,1.91,0,0,0-.21.15c-.05.06-.12.12-.16.18a1.35,1.35,0,0,0-.18.36,1.3,1.3,0,0,0,0,.73v0c0,.23,0,.44,0,.66s0,.22,0,.34a1.08,1.08,0,0,0,0,.18,2.6,2.6,0,0,0-1.06.28,1.59,1.59,0,0,0-.46.33.76.76,0,0,0-.2.44h.06A2.79,2.79,0,0,1,7.75,19l.47-.2.5-.16.51-.16.27-.08-.11-.11a.56.56,0,0,1-.16-.27.65.65,0,0,1,0-.31,1.82,1.82,0,0,1,.21-.62v0a2.37,2.37,0,0,1,.18-.59,1.45,1.45,0,0,1,.17-.26l.1-.11c.05,0,.08-.07.12-.09l0,0,.09,0,0,0h0l.08,0,.08,0s0,0,0,0a.16.16,0,0,1,.06.1.57.57,0,0,1,0,.14,2.48,2.48,0,0,1,0,.27h0a1.55,1.55,0,0,0-.43.15.67.67,0,0,0-.34.56,1,1,0,0,0,.17.55l.06,0a1,1,0,0,1,0-.52.61.61,0,0,1,.34-.4,1.11,1.11,0,0,1,.26-.07.06.06,0,0,0,0,0c0,.15-.13.33-.19.53a.44.44,0,0,0,0,.17v.08a.42.42,0,0,0,0,.1.79.79,0,0,0,.34.27,2.07,2.07,0,0,1,.5.34l.09.1,0,.06,0,0a.25.25,0,0,1,0,.17.58.58,0,0,1-.11.18,1,1,0,0,1-.2.15l-.13.08,0,.11a1.62,1.62,0,0,1-.64,1.59,3.85,3.85,0,0,1-.9.65,4,4,0,0,1-1.15.4,1.43,1.43,0,0,1-1.11-.26,2.72,2.72,0,0,1-.65-.76,2.82,2.82,0,0,1-.36-.85,1.93,1.93,0,0,1,0-.86A5.55,5.55,0,0,1,7,17.25a16.68,16.68,0,0,1,1.27-1.59c.23-.25.47-.51.72-.76s.25-.25.38-.37a3.09,3.09,0,0,1,.39-.31,8.41,8.41,0,0,1,1.14-.39l1.26-.31h0l.15,0a.35.35,0,0,0,.12-.07.68.68,0,0,0,.18-.15.93.93,0,0,0,.18-.32,7.82,7.82,0,0,0,1.24.4,6.83,6.83,0,0,0,1.88.16,5.08,5.08,0,0,0,1-.15l.45-.14a2.81,2.81,0,0,0,.35-.17L18,13a.6.6,0,0,0,.06.11,2.7,2.7,0,0,0,1.21.71l.88.3c.31.11.65.2,1,.34A1.93,1.93,0,0,1,22,15a1.11,1.11,0,0,1,.22.38l.12.41a6.51,6.51,0,0,0,.95,1.57c.34.48.67.91.92,1.28.13.19.23.37.32.53a2.51,2.51,0,0,1,.2.41c.06.12.08.22.11.28h-3.2l-.06-.16a1.58,1.58,0,0,0-.24-.39l-.15-.18L21,19l-.26-.33L20.2,18c-.18-.23-.4-.46-.57-.69v0a.14.14,0,0,0-.14,0c-.07,0-.1.06-.08.1a1.22,1.22,0,0,1,.09.65c0,.22-.1.44-.12.66s0,.44.05.66a4.18,4.18,0,0,0,.16.58H17.17C17.16,19.61,17.16,19.35,17.14,19.09Zm-.34,3.2h0l0,0S16.81,22.31,16.8,22.29Zm-.26-.06h0l-.45.22-.8.38c-1-.14-2-.27-3-.38,0-.2,0-.4-.06-.59l-.09-.64c.95.08,1.9.14,2.86.2,0,.16,0,.33.05.49s.06.46.1.69c0-.23.07-.46.1-.69s0-.34.05-.51L16.63,21l0,.45,0,.37,0,.2v.09s0,0,0,.05h0ZM14.94,17h0a6.18,6.18,0,0,0-.07-.62l1.62-.16c0,.31.09.63.16.94L15,17.48C15,17.31,15,17.13,14.94,17Zm1.55-2.17h0a8.87,8.87,0,0,0,.18,1c-.63,0-1.25.06-1.87.1a4.57,4.57,0,0,0-.1-.46c0-.19-.11-.36-.15-.47C15.2,14.93,15.85,14.87,16.49,14.79Zm-4.31,1h0a7.16,7.16,0,0,0,.18-1c.69.08,1.37.15,2.06.2a3.57,3.57,0,0,0-.08.49c0,.13,0,.29,0,.45C13.6,15.88,12.89,15.84,12.18,15.82Zm2.1-1.53h0c.44.06.88.1,1.32.14l.53,0-1.67.1c-.6-.05-1.21-.08-1.82-.1C13.19,14.42,13.74,14.36,14.28,14.29Zm-2.09,3.05h0a8,8,0,0,0,.2-1.17c.64.08,1.29.14,1.93.19,0,.2,0,.41,0,.62s0,.4.06.6C13.65,17.49,12.92,17.41,12.19,17.34ZM10,11h0a5,5,0,0,1-.52-1.16v0l0,0a4.66,4.66,0,0,1-.69-.53,1.34,1.34,0,0,1-.41-.62.25.25,0,0,1,0-.07V8.47a.74.74,0,0,1,0-.14.61.61,0,0,1,.21-.25A.73.73,0,0,1,8.84,8c.4.24,1.19.72,1.21.77a6.69,6.69,0,0,1-.32-1.56,1.18,1.18,0,0,1,.15-.69l.18.94.56-1.79-.06.63L11,5.51l.3.46.92-1.28.28,1.09.31-1.15.37.94.31-1.15L14,5.59l.2-.71.8.77-.31-1,1.43,1.38-.18-.66.76.31L16.06,4.5l1.56,1.42-.25-.7.75.71L18,5.09A13.88,13.88,0,0,1,19.66,7c-.14-.38-.35-1-.35-1s.78,1.71.92,2.19a.43.43,0,0,0,.09.16l0,.33,0,.24.36-.07a2.51,2.51,0,0,1,1,0c.11,0,.15.07.18.16a.64.64,0,0,1-.05.31c0,.05-.06.11-.09.18s-.07.12-.1.18a1.92,1.92,0,0,1-.26.32,1.61,1.61,0,0,1-.34.24l-.19.07-.16,0-.34.16a2.32,2.32,0,0,1-.21.37,3.9,3.9,0,0,1-.25.36,3.91,3.91,0,0,1-.62.67,3.4,3.4,0,0,1-1.79.87h-.08l-.06,0a2.88,2.88,0,0,1-.31.17l-.37.14a3.75,3.75,0,0,1-.82.18,5.85,5.85,0,0,1-1.77-.05A9.74,9.74,0,0,1,10.94,12,3.25,3.25,0,0,1,10,11Zm16.6,8.88H24.91c0-.07,0-.17,0-.31a2.08,2.08,0,0,0-.06-.46,2.67,2.67,0,0,0-.19-.59,5.36,5.36,0,0,0-.87-1.36l-.6-.71c-.2-.24-.43-.48-.6-.71a4.6,4.6,0,0,0-.5-.8,4.1,4.1,0,0,0-.76-.67,5.46,5.46,0,0,0-.92-.5c-.31-.12-.63-.22-.92-.3A4.17,4.17,0,0,1,18.31,13a.18.18,0,0,1-.07-.05,4.13,4.13,0,0,0,1.56-.82,5.4,5.4,0,0,0,.71-.73,4.73,4.73,0,0,0,.28-.39,2.61,2.61,0,0,0,.17-.28l.17,0a2.52,2.52,0,0,0,.33-.13,1.79,1.79,0,0,0,.5-.36,2,2,0,0,0,.33-.4,1.5,1.5,0,0,0,.11-.22,2.09,2.09,0,0,0,.1-.21.87.87,0,0,0,0-.51.59.59,0,0,0-.2-.29A1.16,1.16,0,0,0,22,8.38l-.38-.06A.93.93,0,0,0,21.64,8a3.25,3.25,0,0,0-1.16-4,10.38,10.38,0,0,0-6-1.63c-1.46,0-5.3,1.51-5.95,2.69a3.24,3.24,0,0,0,0,2.56,1.24,1.24,0,0,0-.4.19.8.8,0,0,0-.29.41.85.85,0,0,0,0,.23l0,.09a.35.35,0,0,0,0,.11,1.84,1.84,0,0,0,.56.69,5.24,5.24,0,0,0,.78.51A7.09,7.09,0,0,0,9.86,11a3.65,3.65,0,0,0,1,1,13.67,13.67,0,0,0,1.84.9,1,1,0,0,1-.23.28.78.78,0,0,1-.18.11l-.1,0-.09,0h0c-.44.06-.88.13-1.32.22a6.36,6.36,0,0,0-1.31.35A2.69,2.69,0,0,0,9,14.3l-.43.36c-.28.25-.55.5-.8.76a10,10,0,0,0-1.31,1.64,5.4,5.4,0,0,0-.8,1.81,2.17,2.17,0,0,0,0,1v0H.79v.44H5.88c.09.14.19.28.3.43a3.45,3.45,0,0,0,.79.78,1.78,1.78,0,0,0,1.32.27,4.76,4.76,0,0,0,1.24-.41,5.15,5.15,0,0,0,1.05-.61,3.11,3.11,0,0,0,.64-.67v.21h.7v-.44h-.55a1.35,1.35,0,0,0,.14-.81,1.2,1.2,0,0,0,.21-.17.7.7,0,0,0,.19-.32.33.33,0,0,0,0-.1.24.24,0,0,0,.15-.09l.09.67c.07-.48.12-1,.17-1.43l2.09.35h0c0,.18.07.36.11.51a3.85,3.85,0,0,0,.23.67,3.42,3.42,0,0,0,.13-.69c0-.17,0-.36.05-.57l1.6-.3c0,.44,0,.88,0,1.33L15,19.28h0c-.07,0-.11.06-.11.11a.09.09,0,0,0,0,.05h0c-.43-.08-.86-.15-1.3-.21s-.92-.15-1.39-.2l1.32.36,1.33.34a.41.41,0,0,0,.11,0c0,.12,0,.24,0,.36s.06.47.1.71c0-.24.07-.48.1-.71s0-.29,0-.43l1.4-.35c0,.39,0,.79,0,1.18L15.1,21c-.92,0-1.84-.06-2.76-.07,0-.23,0-.47-.07-.71s-.07-.56-.12-.84c-.05.28-.08.56-.12.84s-.06.57-.08.85c0,.07.06.13.16.14h0l-.09.64c0,.23-.06.46-.08.69,0,.06,0,.1.12.12h0c1.06.22,2.12.4,3.18.59a.45.45,0,0,0,.23,0h0l.92-.43.46-.22.23-.12.13-.07,0,0,.05-.05s0,0,0-.09a.2.2,0,0,0,0-.11.08.08,0,0,0,0,0l0,0h0s0,0,0,0,0,0,0,0l0-.09,0-.18,0-.38-.1-.66a.19.19,0,0,0,0-.08c0-.11,0-.22,0-.33h9.37Z"/><path class="cls-6" d="M19.78,11.59,19,15.17s1,.18.66.92a3.72,3.72,0,0,1-1,1.27,7,7,0,0,0-.67-.78c-.35-.33-.82-.94-.26-1.2l.55-.25-.32-2.3a12.67,12.67,0,0,0,1.86-1.24"/><path class="cls-6" d="M12.74,12.83v1.53l-.57.25,0,1,0,.93s-.84.25-.84,0,.52-1.29.32-1.35a15.63,15.63,0,0,1-.27-3s.92.44,1.42.6"/></svg>