<svg id="Capa_1" data-name="Capa 1" xmlns="http://www.w3.org/2000/svg" viewBox="0 0 19.44 17.37"><defs><style>.cls-1{fill:#0070a2;}.cls-2{fill:#f05050;}.cls-3{fill:#acd03d;}.cls-4{fill:#f5a4c7;}.cls-5{fill:#fcd2be;}.cls-6{fill:#231f20;}</style></defs><title>2-21meses</title><path class="cls-1" d="M1.71,7.87l2.45.33,1.9-1.1a.82.82,0,0,0-.75-.25c-.53.05-2,0-2,0s-1.52.78-1.55,1"/><polygon class="cls-2" points="4.05 8.17 1.94 7.81 1.71 7.87 2.67 9.63 4.8 10.17 4.05 8.17"/><path class="cls-3" d="M4.74,9.63S4,8.38,4,8.38L5.93,7.1l.44,1.61Z"/><path class="cls-4" d="M10.65,11.79S9,12.47,9.34,13a7.23,7.23,0,0,0,2.13,1.39l4.27-.17s1-.79,1.11-1.21a1.45,1.45,0,0,0-.45-1.48,9.89,9.89,0,0,1-1.15-1Z"/><path class="cls-5" d="M7.55,8.89a2.59,2.59,0,0,1-.75-.41c-.28-.26-.26-.75-.58-.7s-.29.31-.25.48.07.14-.1.29-1.5.07-1.55.24.85.36.85.36-1.07,0-1.12.19.81.35.81.35-.44.24-.35.37a3.48,3.48,0,0,0,.77.43l1.23-.19,3.35.35s-.3.22-.24,1-.39.94.7,1.14a9.42,9.42,0,0,0,3.84-.32c.92-.32,1.56-.74,1.45-1.82a5.62,5.62,0,0,0-.54-2.34c-.26-.23-.84-.57-1-1.07s-.47-.83-.22-1a1.79,1.79,0,0,0,1-1.41c.08-.89-.67-2.53-1.69-2.63S10.22,1.73,9.69,2,7.32,3.47,7.31,3.79,7.89,4.45,8,5a7.7,7.7,0,0,1,.11,1.27A1.94,1.94,0,0,0,9.5,7.47a8.76,8.76,0,0,0,1.78.1L11,7.69V8A2.53,2.53,0,0,0,9.76,8c-.68.21-2.21.9-2.21.9"/><path class="cls-5" d="M15.43,13.12a3.2,3.2,0,0,0-3.68.54l-.31.54a5.45,5.45,0,0,1-1.08-.44c-.27-.2-.65-.54-.65-.54A6.56,6.56,0,0,0,7.92,14c-.51.4-1.17,1.46,0,1.94a5.76,5.76,0,0,0,2.38.38l1.28-.11a1.6,1.6,0,0,0,1.36.48A5.82,5.82,0,0,0,15,16s-.11.42.31.33a3.38,3.38,0,0,1,1.06-.13c.37,0,.63.17,1,0s.48-.75.54-1.22-.12-1.74-.52-1.77a2.8,2.8,0,0,0-.77.08l-.48.61s.53-.59-.74-.74"/><path class="cls-6" d="M10.52,4.85c.41-.26,2.09.24,2.09.24A3.21,3.21,0,0,0,11,4.66c-.76.07-.61.3-.61.3Z"/><path class="cls-6" d="M11,5.06c-.33,0-.27.13-.27.13h.17a.41.41,0,0,1,0,.13c0,.09.27.16.48.07s.07-.2.07-.2h.58a8.87,8.87,0,0,0-1-.12"/><path class="cls-6" d="M8.94,5.27c-.27,0-.65,0-.54.16a.62.62,0,0,1,.24-.1c.09,0-.06,0,0,.13A.29.29,0,0,0,9,5.55c.17-.07-.14-.2.17-.18,0,0,0-.07-.27-.1"/><path class="cls-6" d="M11.69,6.27s-.41.12-.92.23a4.09,4.09,0,0,1-1.15,0c.18,0,.17.16.37.27a1.84,1.84,0,0,0,1.11-.11.89.89,0,0,0,.59-.42"/><path class="cls-6" d="M13.16,5.82v0"/><path class="cls-6" d="M17.74,15.26h0a2,2,0,0,1,0,.24l0,.05,0,.06-.05.1a.92.92,0,0,1-.34.34l0-.06h0a.08.08,0,0,0,0-.11.15.15,0,0,0-.17,0h0a.87.87,0,0,0-.19.23.24.24,0,0,1-.12.05s0,0-.05,0l0,0v0l0,0a.85.85,0,0,0,.09-.22h0a.06.06,0,0,0-.05-.06.11.11,0,0,0-.11,0l0,0a1.4,1.4,0,0,1-.1.16.37.37,0,0,1-.16.1,0,0,0,0,0,0,0h0a.69.69,0,0,0,.11-.13v0a.11.11,0,0,0-.05-.17.3.3,0,0,0-.29,0s0,0,0,0h0l-.06.05a.06.06,0,0,0,0,0v0c0-.07,0-.14-.14-.16a.25.25,0,0,0-.27.08l-.17.25a.5.5,0,0,1-.19.14h0s-.07,0-.05,0a.1.1,0,0,1-.07-.07s0,0,0-.07a15.14,15.14,0,0,0,1.41-1c.36-.27.55-.43.55-.43l0,0-.65.36c-.41.23-1,.55-1.71.92-.18.09-.37.18-.57.26a3,3,0,0,1-.61.23,2.46,2.46,0,0,1-1.37,0,1.39,1.39,0,0,1-.93-.79,1.74,1.74,0,0,1,.19-1.13,3.52,3.52,0,0,1,.79-1.09,2,2,0,0,1,.62-.39,2.23,2.23,0,0,1,.78-.06,6.63,6.63,0,0,1,1.5.31c.43.13.89.34.88.5a.65.65,0,0,1-.23.31c-.12.1-.25.19-.38.28s-.51.3-.72.41l-.65.35,0,0a6.44,6.44,0,0,0,.75-.25,6.8,6.8,0,0,0,.81-.37,2.46,2.46,0,0,0,.46-.28.82.82,0,0,0,.37-.46s0,0,0-.05a1.31,1.31,0,0,0,.3-.2,1.42,1.42,0,0,0,.2-.22v0a.72.72,0,0,1,.42.14.46.46,0,0,1,.16.18,1.57,1.57,0,0,1,.09.23c0,.09,0,.16.05.24s0,.17,0,.25a4.07,4.07,0,0,1,0,.5,4,4,0,0,1,0,.49m-.51.93h0S17.22,16.19,17.23,16.19Zm-7-.06h0l-.68,0-.72,0-.19,0H8.57l-.09,0a2.3,2.3,0,0,1-.34-.12,1.85,1.85,0,0,1-.58-.34A.71.71,0,0,1,7.33,15a1,1,0,0,1,.22-.53A2.27,2.27,0,0,1,8,14.09a4.63,4.63,0,0,1,.46-.31,8.84,8.84,0,0,1,.83-.38l.26-.1.14.15.22.19a3,3,0,0,0,.52.32,3.24,3.24,0,0,0,.53.21,2.14,2.14,0,0,0,.35.07.94.94,0,0,1-.09.12,2.49,2.49,0,0,0-.35.78l-.4.21a2.31,2.31,0,0,1-.35.14.65.65,0,0,1-.17,0,.76.76,0,0,0,.19,0l.43,0,.27,0s0,.11,0,.16a1.17,1.17,0,0,0,.31.52ZM10,12.88h0a2.76,2.76,0,0,0,.75.14,8.84,8.84,0,0,0,1.53-.12l.71-.12-.2.06a2.62,2.62,0,0,0-.66.44,5.65,5.65,0,0,0-.77.87L11.1,14c-.24-.16-.54-.37-.83-.59-.07-.06-.15-.11-.21-.17l-.21-.16c-.06-.07-.12-.1-.17-.16l-.12-.14a.2.2,0,0,1,0-.22A1,1,0,0,0,10,12.88ZM6.52,10.13H6.39l-.65.1.09,0h0c.1,0,.14-.14.09-.22a.31.31,0,0,0-.34-.08A5.43,5.43,0,0,1,5,10a1.26,1.26,0,0,1-.27,0h0l0,0L5,9.89a4.87,4.87,0,0,1,.57-.24h0c.09,0,.13-.1.1-.17a.23.23,0,0,0-.26-.08,3.4,3.4,0,0,1-.64.08,1.46,1.46,0,0,1-.3,0l-.1,0s0,0-.06,0h0l.1,0a1.52,1.52,0,0,1,.32-.06c.22,0,.46,0,.69-.06h0a.1.1,0,0,0,.09-.06s0-.07-.08-.08A4.64,4.64,0,0,1,4.86,9a1,1,0,0,1-.32-.13l0-.06a.24.24,0,0,1,.1,0,2.06,2.06,0,0,1,.26,0l.54,0h.44l.07,0A.19.19,0,0,0,6,8.61c.1-.17,0-.28,0-.41A1.09,1.09,0,0,1,6,8a.12.12,0,0,1,0-.08.45.45,0,0,1,.32.13,1,1,0,0,1,.23.3c0,.06,0,.11.07.17a.39.39,0,0,0,.15.22A1.32,1.32,0,0,0,7.41,9,4,4,0,0,0,8,9l.58,0,.28,0,.24,0A1.74,1.74,0,0,1,9.55,9a1.06,1.06,0,0,1,.37.15h0a.26.26,0,0,0,.27,0L12,8.23a5.7,5.7,0,0,1,.92-.4,1.55,1.55,0,0,1,1,.09l0,0a1.59,1.59,0,0,0-1.11-.19,2.21,2.21,0,0,0-.55.16l-.49.2c-.52.22-1,.46-1.5.7a4,4,0,0,1,.42-.3l.05,0,.09,0a.58.58,0,0,0,.24-.15.38.38,0,0,0,.09-.35.53.53,0,0,0-.08-.15h.12l.16,0a2.37,2.37,0,0,0,.34-.08,3.31,3.31,0,0,0,.65-.22,4.5,4.5,0,0,0,1.05-.63l.31-.28a2.37,2.37,0,0,0,0,.37,1.09,1.09,0,0,0,.18.63l.1.1.1.08.18.11a1.57,1.57,0,0,1,.32.31,2.73,2.73,0,0,1,.44.81,6.87,6.87,0,0,1,.27,1,4.71,4.71,0,0,1,.11,1.06,1.42,1.42,0,0,1-.35,1,2.11,2.11,0,0,1-.55.37,5.19,5.19,0,0,1-.73.22,11.83,11.83,0,0,1-1.56.18,11.52,11.52,0,0,1-1.44,0c-.43,0-.8-.13-.9-.34a.67.67,0,0,1-.06-.15v-.13h0v-.42c0-.23,0-.43,0-.59a3,3,0,0,1,0-.32h.38a7.24,7.24,0,0,0,1-.13,8.46,8.46,0,0,0,.9-.23,7.72,7.72,0,0,0,1.6-.69l0,0a10.21,10.21,0,0,1-1.67.55c-.29.07-.59.13-.88.17a3.64,3.64,0,0,1-.45,0l-.45,0a14.11,14.11,0,0,1-1.83-.09C7.73,10.31,7.11,10.23,6.52,10.13Zm-2.1-.34h0l-.15.11,0,.06-.4-.13a.12.12,0,0,0,0-.1.35.35,0,0,0-.38,0l-.51-.14c0-.1-.09-.2-.15-.3a0,0,0,0,0,0,0,.05.05,0,0,0,0-.05v0c-.08-.15-.19-.3-.29-.45a5.47,5.47,0,0,1-.48-.8l1,.22c.37.09.75.16,1.13.23h0A.81.81,0,0,0,4,8.51a.51.51,0,0,0,0,.32.7.7,0,0,0,.23.28l.06,0H4.24A.69.69,0,0,0,4,9.24a.22.22,0,0,0-.09.1s0,.1,0,.12l0,0H4l.07.05.21.09.24,0Zm-.76.43h0a.8.8,0,0,1-.21,0H3.36l-.07,0,0,0A2.43,2.43,0,0,1,3.7,10h0l.31,0A2.19,2.19,0,0,1,3.66,10.22Zm-.4,0Zm0,0ZM2.64,10h0l-.21,0h0s0,0,0,0h0l0,0a1.44,1.44,0,0,1,.33-.17l.25,0-.09,0Zm-.29.05h0S2.36,10.06,2.35,10.05Zm-.44-.43h0l0,0s0,0,0,0h0s0,0,0,0a.45.45,0,0,1,.15-.06l.15,0h.13c0,.08.08.16.13.24H2.32a1,1,0,0,1-.24,0A.39.39,0,0,1,1.91,9.62Zm-.13-.85h0A.3.3,0,0,1,2,8.71h.11l0,.09.12.34H2.05A.35.35,0,0,1,1.81,9l0-.07a.19.19,0,0,1,0-.07S1.76,8.79,1.78,8.77Zm3,.32H4.62l-.11,0a.19.19,0,0,0,0-.07s0,0,0-.05A2.5,2.5,0,0,0,4.79,9.09Zm-.54-.74h0a17.8,17.8,0,0,0,1.66-1,3.45,3.45,0,0,0,.14.42H6c-.21.08-.17.18-.18.25a1.38,1.38,0,0,0,0,.2c0,.11.07.26,0,.33a1.67,1.67,0,0,1-.45,0l-.55,0-.29,0-.11,0a.67.67,0,0,0-.19-.22l-.12-.07.07,0Zm5,0h0l.29-.13.26-.11A3.71,3.71,0,0,1,10.35,8l.53-.07a.35.35,0,0,1-.11.1l-.11,0-.11,0-.13.07a1,1,0,0,0-.46.57.06.06,0,0,0,0,0l-.24-.08a2.16,2.16,0,0,0-.62-.09l-.31,0-.27,0H8.3A5.23,5.23,0,0,0,9.27,8.38Zm1.12-.93h0a3.89,3.89,0,0,1-.61-.09,3.45,3.45,0,0,1-.57-.18,2.57,2.57,0,0,1-.49-.27,1.4,1.4,0,0,1-.38-.34.41.41,0,0,1-.05-.09.15.15,0,0,1,0-.08,1.66,1.66,0,0,0,0-.24,3,3,0,0,0-.13-.94A1.72,1.72,0,0,0,8.08,5a1.22,1.22,0,0,1,.83,0c.3.18.63.38.47.71s-.24.39,0,.47.31.13.56,0c0,0-.51,0-.5-.24s.24-.4,0-.77A1.11,1.11,0,0,0,8.06,5C8,4.89,8,4.83,8,4.76a1.14,1.14,0,0,0-.29-.42l-.18-.22,1.13.51L8,3.93l1.29.65-.44-.29,1.1.24L9.4,3.8l1.1.64L10.14,4l.7.4-.42-.69,1.25.69-1-1,1.65.72-.48-.59A2.53,2.53,0,0,1,13.13,4.7a1.4,1.4,0,0,1,0,1.12l.28-.55.06.34a.61.61,0,0,0,.24-.52s.38-.44.71-.35.21.39.08.69a1.57,1.57,0,0,1-.2.25.07.07,0,0,0,0-.06.12.12,0,0,0-.06-.08.21.21,0,0,0-.07,0h0v.06a.13.13,0,0,1,0,.06h-.13s0,0,0,0a1.35,1.35,0,0,1,0-.28.56.56,0,0,0,0-.13s0,0,0,0l.08,0a.45.45,0,0,0,.13-.1L14.36,5h0s0,0,0,0,0,0,.06,0l0,0h0a.25.25,0,0,0,0-.07.13.13,0,0,0,0-.09.13.13,0,0,0-.11,0,.24.24,0,0,0-.13,0,.5.5,0,0,0-.15.08.39.39,0,0,1-.1.08l-.06.05s-.08.08-.06.12a.32.32,0,0,0,.08.13.16.16,0,0,1,0,.23s-.07.06,0,.12a.23.23,0,0,0,.12.06.45.45,0,0,0,.23,0l.05,0-.2.2h0a3.46,3.46,0,0,1-.78.74,4.4,4.4,0,0,1-1.06.54,4.31,4.31,0,0,1-.59.16,4.66,4.66,0,0,1-.64.08A4.42,4.42,0,0,1,10.39,7.45Zm5.33,4.07h0a2.78,2.78,0,0,0,.12-.38h0c.05.08.15.18.24.31a1.37,1.37,0,0,0,.15.21,1.76,1.76,0,0,1,.14.23c.06.08.09.17.14.25a.8.8,0,0,1,.09.26.82.82,0,0,1,.06.26,2.09,2.09,0,0,1,0,.25,2.1,2.1,0,0,1-.06.24l-.09.21-.09.14a1,1,0,0,0-.37-.32,4,4,0,0,0-.71-.28,6.74,6.74,0,0,0-1.66-.2l-.41,0,.56-.1a3.47,3.47,0,0,0,1.47-.58A1.61,1.61,0,0,0,15.72,11.52Zm2.51,2.71a2.76,2.76,0,0,0-.08-.27c0-.08-.08-.18-.12-.26a1.11,1.11,0,0,0-.17-.25.82.82,0,0,0-.29-.22,1,1,0,0,0-.55-.08A1.42,1.42,0,0,0,17.1,13a.81.81,0,0,0,0-.31,1.17,1.17,0,0,0,0-.32A1.64,1.64,0,0,0,17,12a1.31,1.31,0,0,0-.19-.27,1.75,1.75,0,0,0-.23-.24l-.23-.18a3,3,0,0,0-.4-.25l-.07,0a.69.69,0,0,0,0-.13,4.61,4.61,0,0,0,0-1.12,3.92,3.92,0,0,0-.28-1A2.75,2.75,0,0,0,15,7.91a2.65,2.65,0,0,0-.42-.33l-.24-.13-.08,0-.06,0a1,1,0,0,1-.25-.52,2.17,2.17,0,0,1-.07-.44L14,6.24l0,.37.13-.39.11.32.24-.66.12.34S14.9,5.34,15,5a2.18,2.18,0,0,0-.05-2.11A4.92,4.92,0,0,0,10.58,1a4.52,4.52,0,0,0-3,1c-.6.51-1,1.34-.48,2a3.66,3.66,0,0,0,.7.66,1.81,1.81,0,0,1,.23.65,3.15,3.15,0,0,1,0,.92c0,.08,0,.13-.06.23a.39.39,0,0,0,0,.15.69.69,0,0,1,0,.13,1.57,1.57,0,0,0,.39.43A2.62,2.62,0,0,0,9,7.43a3.41,3.41,0,0,0,.66.22A4.11,4.11,0,0,0,11,7.74l-.06.13,0,0a2.12,2.12,0,0,0-.57-.11,2.68,2.68,0,0,0-.67.05A1.61,1.61,0,0,0,9.3,8L9,8.09,7.9,8.57l-.26.13H7.5a1.07,1.07,0,0,1-.39-.11c-.06,0-.11-.18-.19-.3a1.27,1.27,0,0,0-.32-.34.8.8,0,0,0-.47-.17,5.25,5.25,0,0,0,.08-.68.13.13,0,0,0,0-.07.16.16,0,0,0-.12,0,10.54,10.54,0,0,0-1.23-.21c-.42,0-.85-.08-1.27-.09h0a.41.41,0,0,0-.16,0q-.44.23-.84.48a5.2,5.2,0,0,0-.76.54,7.68,7.68,0,0,0,1-.34c.28-.11.56-.23.83-.36s.79,0,1.19,0A10.69,10.69,0,0,0,5.93,7h0A16.52,16.52,0,0,0,4,8c-.34,0-.68-.1-1-.13s-.79-.06-1.17-.11H1.76c-.05,0-.07,0-.05.08A3.53,3.53,0,0,1,2,8.62L2,8.6a.57.57,0,0,0-.34,0,.3.3,0,0,0-.19.22.25.25,0,0,0,0,.12.31.31,0,0,0,0,.1.44.44,0,0,0,.18.23.4.4,0,0,0,.16.08l-.08.08a.14.14,0,0,0,0,.14v0l0,0,.05,0a.46.46,0,0,0,.14.07l.15,0h.11A.76.76,0,0,0,2,9.91a.19.19,0,0,0,0,.23.71.71,0,0,0,.07.09l0,0,0,0h0a.89.89,0,0,0,.26.07,1.59,1.59,0,0,0,.4,0h0a.26.26,0,0,0,.15.14l.1,0h.29l.17,0a.79.79,0,0,0,.26-.12.86.86,0,0,0,.3-.34h.07a.16.16,0,0,0,0,.12.27.27,0,0,0,.13.13l0,0,0,0h0l.24,0h.1a.14.14,0,0,0,0,.06.17.17,0,0,0,.07.17.35.35,0,0,0,.16.06l.16,0H5.3a9.84,9.84,0,0,0,1.16-.16c.61.09,1.2.16,1.81.21s.94,0,1.41,0a2.57,2.57,0,0,0-.09.29,6,6,0,0,0-.11.6L9.43,12v.2a.71.71,0,0,0,.06.25l0,0h0a.32.32,0,0,0-.18.31.46.46,0,0,0,.06.22,1.21,1.21,0,0,0,.14.2l-.28,0a3.68,3.68,0,0,0-1,.28,2.69,2.69,0,0,0-.55.35,1.3,1.3,0,0,0-.34.54,2.71,2.71,0,0,0-.12.58,1.17,1.17,0,0,0,.14.62,1.39,1.39,0,0,0,.58.51,2.71,2.71,0,0,0,.39.17l.1,0,.07,0H8.5l.21.05a5,5,0,0,0,.83.06c.26,0,.5,0,.72,0,.44,0,.79-.1,1-.14a2.33,2.33,0,0,0,.68.37,3,3,0,0,0,1.8,0,3.79,3.79,0,0,0,.69-.28l.54-.3a.21.21,0,0,0,.07.15l.11.07a.48.48,0,0,0,.18,0,.63.63,0,0,0,.3-.08h0s0,.05.07.06h0l0,0h.07a.47.47,0,0,0,.25,0l.09-.05h0l.12,0h.15a.34.34,0,0,0,.16-.09l.06,0,.1,0a.29.29,0,0,0,.14,0l0,0,.11,0h.16a.64.64,0,0,0,.23-.06,1.26,1.26,0,0,0,.58-.44.64.64,0,0,0,.08-.14l0-.06,0-.07a1.54,1.54,0,0,0,.07-.27,2.47,2.47,0,0,0,0-.54A3.08,3.08,0,0,0,18.23,14.23Z"/><path class="cls-6" d="M15.06,3.15a3.87,3.87,0,0,1,.56,2.43c-.26,1.08-.61,1.87-1.34,2.11s-.7-.25-1.19,0,.53-.8.77-1.29,1-1.14,1.09-1.75.11-1.5.11-1.5"/><path class="cls-6" d="M12.32,10.11a.8.8,0,0,1,0,.79,1.5,1.5,0,0,0-.26.52s-1.64-.9.26-1.31"/></svg>