<svg id="Capa_1" data-name="Capa 1" xmlns="http://www.w3.org/2000/svg" viewBox="0 0 14.82 23.88"><defs><style>.cls-1{fill:#0070a2;}.cls-2{fill:#fcd2be;}.cls-3{fill:#231f20;}</style></defs><title>3-21meses</title><path class="cls-1" d="M4.17,20.71a2.16,2.16,0,0,1,1.82,0c.8.48,1.07.41,1.07.41s1.1-.58.77-.74a.6.6,0,0,1-.35-.45s-.12-1-.13-1.24a14.84,14.84,0,0,1,.38-1.82h.78s.78,2.14.5,2.6-.26.57-.24.82-.68.38-.38.71a1.7,1.7,0,0,0,.88.39s.14-1,.63-.88,2.36.34,2.36.34a12,12,0,0,1-.2-2.13,5,5,0,0,0,0-1.92,2.86,2.86,0,0,1-.36-1,4.38,4.38,0,0,0-.53-1.17s-.43.12-.38-.19.66-2.2-1.27-2.36S3.84,14.23,4,14.61a4.35,4.35,0,0,1,.2,2A15,15,0,0,0,4,18.72a2.73,2.73,0,0,0,.39,1.09.64.64,0,0,0-.19.9"/><path class="cls-2" d="M4.71,20.58s-1,.64-1.12.87,0,.51.11.57.4-.16.48,0,.17-.09.34,0-.11.27.19.28a.93.93,0,0,0,.56-.2s.09.34.32.26a1,1,0,0,0,.35-.24s-.06.43.48.32.53-.46.53-.46l.11-.82a3.21,3.21,0,0,0-2.35-.54"/><path class="cls-2" d="M9.68,20.56a2.4,2.4,0,0,0-.39,1c-.07.54,0,.73.39.82a1.14,1.14,0,0,0,.59,0l.24-.17a.42.42,0,0,0,.33.21c.2,0,.21-.3.21-.3s.44.38.62.21a.54.54,0,0,0,.18-.4s.1.28.34.15.09-.17.09-.17.11.17.26.09a.32.32,0,0,0,.09-.5c-.17-.19-.2-.5-.67-.64s-1.64-.75-2.28-.28"/><path class="cls-2" d="M4.41,12.29s-1.05-.36-.87-.82a1.89,1.89,0,0,1,.87-.77s-.25,1.53.06,1.89a3.24,3.24,0,0,0,1,.64,6.83,6.83,0,0,1,.85.68.64.64,0,0,0,.55.29,12.3,12.3,0,0,0,3.47-.74,7.46,7.46,0,0,1,.62.56c0,.06-.28.75,0,.75s1-.36.95-.69-.26-1.68-.26-1.85.23-1.74.27-2.38-.67-1.34-1-1.64a3.26,3.26,0,0,0-1.08-.47s.67-.34.77-.6.21-.52.21-.52.16.2.65-.25.71-.87.65-1-.08-.25-.22-.35-.22-.77-.79-1A18.22,18.22,0,0,0,8.42,3.4c-.38,0-3.72.06-4.15.77s-.45.83-.47,1-.21.23-.38.3-.29.11-.23.37a1.29,1.29,0,0,0,.46.66c.15.09.47.35.65.28s.34.35.44.44.33.37.33.37a8.73,8.73,0,0,0-.88.51,29.39,29.39,0,0,0-2.81,2.35,2,2,0,0,0,0,1.82c.27.34,2.1,1.13,2.05,1.44s-.2.5,0,.67.17.17.24.26a1.14,1.14,0,0,0,.93.2,9.54,9.54,0,0,0,1.2-.23c.23-.07,0-.4.1-.44s-.12-.1.33,0,.35,0,.36-.17-.28-1-.62-1.13-1.46-.51-1.46-.51"/><path class="cls-3" d="M9.23,5.84a2.36,2.36,0,0,1,1.4.11A2,2,0,0,0,8.42,6c-.22.17.33.1.81-.13"/><path class="cls-3" d="M7.27,6.15c.19,0,0-.22-.47-.28a2.48,2.48,0,0,0-1.57.5,6.35,6.35,0,0,1,1-.34,6,6,0,0,1,1,.12"/><path class="cls-3" d="M9.25,6.28a4.36,4.36,0,0,1-.48-.07A.78.78,0,0,0,10,6.07a1.51,1.51,0,0,1-.78.21"/><path class="cls-3" d="M5.71,6.33a.76.76,0,0,0,1.2,0,1.43,1.43,0,0,1-1.2,0"/><path class="cls-3" d="M8,7.35c.29.07.27-.07.46-.15s.17-.15.17-.15-.15,0-.37.15-.45,0-.66,0S7.39,7,7.39,7s0,.11.12.21.2.06.49.13"/><path class="cls-3" d="M8.8,7.53a1.72,1.72,0,0,0-.54,0,.59.59,0,0,1-.41,0,3.89,3.89,0,0,0-.47,0L7,7.63a2.73,2.73,0,0,0,1.77-.1"/><path class="cls-3" d="M7.83,8c0,.11.26.14.47-.1s-.45,0-.47.1"/><path class="cls-3" d="M4.47,12.59l.09.12.11.13.1.11.09.11.17.21,0,.08.11,0A1.61,1.61,0,0,1,6.32,14h.06a.61.61,0,0,0-.26-.59,1.83,1.83,0,0,0-.69-.32l-.18-.18-.15-.11-.17-.09-.14-.08-.14-.09-.24-.21a4.68,4.68,0,0,1-.65-.85L4,11.22a4.72,4.72,0,0,0,.22.88h.06a4.77,4.77,0,0,0,.28-1.43l0-.63L4,10.55a9.08,9.08,0,0,0-.76.76l-.11.11.09.08c.32.29.72.55,1,.85.08.08.14.16.21.24"/><path class="cls-3" d="M12.55,21.67h0a.66.66,0,0,1-.06.2h0s0,0,0-.06a.91.91,0,0,0,0-.23s-.06-.07-.13-.08a.14.14,0,0,0-.15.09.93.93,0,0,0,0,.24s0,0,0,0v0a.36.36,0,0,1,0,.11h0a.56.56,0,0,1,0-.12,2,2,0,0,1,0-.26c0-.05,0-.09-.13-.09a.12.12,0,0,0-.15.09,1.12,1.12,0,0,1-.09.36.42.42,0,0,1-.09.16.17.17,0,0,1-.11.06s0,0,0,0l-.07,0,0,0a.28.28,0,0,1-.09-.14s0-.08,0-.12a1,1,0,0,0,0-.25h0s-.05-.08-.12-.09-.15,0-.16.09a.82.82,0,0,0,0,.27V22a1.16,1.16,0,0,1,0,.18l0,.07h0l-.08-.05a.3.3,0,0,1-.09-.13.83.83,0,0,1,0-.15,1.48,1.48,0,0,0,0-.21c0-.05,0-.1-.13-.1a.13.13,0,0,0-.15.08v0h0v0a1.08,1.08,0,0,0,0,.18.82.82,0,0,1-.09.35.17.17,0,0,1-.05.06H10a1.08,1.08,0,0,1-.35-.07A.55.55,0,0,1,9.46,22a1.23,1.23,0,0,1-.07-.29l0-.21,0-.11A.84.84,0,0,1,9.6,21a.83.83,0,0,1,.48-.22,3.08,3.08,0,0,1,.74,0,1.83,1.83,0,0,1,.63.14c.09,0,0,0,.23.2a.6.6,0,0,0,.3.09.42.42,0,0,0,.29-.11,1.92,1.92,0,0,1,.19.23,1.07,1.07,0,0,1,.09.19.31.31,0,0,1,0,.19m-.42.33Zm0,0Zm-3.37-1.2h0l0-.07v0c0-.06,0-.09.08-.14s.25-.1.36-.3a.32.32,0,0,0,0-.27l0-.07L9,19.82a.27.27,0,0,1-.07-.2,1,1,0,0,1,.11-.26.9.9,0,0,0,.1-.34v-.16l0-.16A6,6,0,0,0,9,18.09c-.09-.35-.19-.7-.29-1.05A.27.27,0,0,0,8.88,17l0,0,.32-.39.32-.39a4.88,4.88,0,0,1,.7-.76l0,0A2.21,2.21,0,0,0,9.07,16a2.3,2.3,0,0,0-.36.41,3.35,3.35,0,0,0-.21.36L8,16.78H7.61v0l-.13-.15a1.14,1.14,0,0,0-.11-.11.94.94,0,0,0-.1-.1,1.84,1.84,0,0,0-.53-.36,3.49,3.49,0,0,0-.67-.21,3.38,3.38,0,0,0-.72-.08l0,0a9.08,9.08,0,0,0,1.14.54l.59.22a1.15,1.15,0,0,1,.27.14.65.65,0,0,1,.18.19.08.08,0,0,0,.07,0,9.63,9.63,0,0,0-.22,1,8.66,8.66,0,0,0,0,1.14,2.2,2.2,0,0,1-.1.56.5.5,0,0,0,0,.32c.08.12.21.17.24.24a.4.4,0,0,1,.06.23.37.37,0,0,1-.12.22A1.64,1.64,0,0,1,7,21a4.34,4.34,0,0,0-.53-.26l-.33-.13a3.82,3.82,0,0,0-.36-.13,2.3,2.3,0,0,0-.87-.07l-.42.09,0,0a.53.53,0,0,1,0-.12.37.37,0,0,1,0-.25H4.29c0-.13.11-.38.08-.34h0c0-.08,0-.11,0,0a.24.24,0,0,1,.1,0h0l0,0c0-.05,0-.1,0-.16l-.1-.38a6.35,6.35,0,0,1-.24-1.47,1.31,1.31,0,0,1,0-.35.52.52,0,0,1,.06-.16.9.9,0,0,0,.08-.21,3.38,3.38,0,0,0,.06-.77,10.37,10.37,0,0,0-.17-1.46.85.85,0,0,0,.23,0h0a.73.73,0,0,0,.34,0A.53.53,0,0,0,5,14.73h.08a.71.71,0,0,0,.22,0h0l.12,0h.14a.54.54,0,0,0,.15,0,.31.31,0,0,0,.18-.15A.45.45,0,0,0,6,14.31a1,1,0,0,0,0-.25,9.5,9.5,0,0,0,1.43.19,6.89,6.89,0,0,0,1.7-.12,2.88,2.88,0,0,0,.89-.32,2.38,2.38,0,0,0,.37-.24l0,0,.16.21.08.08.11.07a.13.13,0,0,1,.05.09.46.46,0,0,1-.06.27l-.07.15a.23.23,0,0,0,.05.31.69.69,0,0,0,.44.12h.11a1,1,0,0,1,.24.34,1,1,0,0,1,0,.55,2.75,2.75,0,0,0,.26,1.15,2.45,2.45,0,0,1,.18.54,1.35,1.35,0,0,1,0,.53,9.54,9.54,0,0,1-.31,1.12,1.57,1.57,0,0,0,0,.62l.11.56a1.63,1.63,0,0,1,0,.31h0a2.61,2.61,0,0,0-.93-.21,3.49,3.49,0,0,0-.92,0,1.36,1.36,0,0,0-.85.4,1.48,1.48,0,0,0-.19.27.93.93,0,0,1-.14-.14ZM6.85,22h0a.52.52,0,0,1-.2.19,1.14,1.14,0,0,1-.35.07H6.12s0,0,0-.06A1,1,0,0,1,6,21.9a.55.55,0,0,0,0-.18v0H6v0a.14.14,0,0,0-.14-.08c-.08,0-.14,0-.14.1v.21a.4.4,0,0,1,0,.15.26.26,0,0,1-.1.13s0,0-.08.05h0a.25.25,0,0,1,0-.07,1.16,1.16,0,0,1,0-.18.48.48,0,0,1,0-.12,2.44,2.44,0,0,0,0-.27.14.14,0,0,0-.14-.09c-.07,0-.14,0-.14.09h0a2.09,2.09,0,0,0,0,.25.25.25,0,0,1,0,.12.28.28,0,0,1-.09.14l0,0-.06,0s0,0,0,0a.17.17,0,0,1-.11-.06.62.62,0,0,1-.1-.16,1.11,1.11,0,0,1-.08-.36.14.14,0,0,0-.14-.09c-.08,0-.15,0-.15.09a1.09,1.09,0,0,1,0,.26.56.56,0,0,1,0,.12h0l0-.11s0,0,0,0,0,0,0,0a.64.64,0,0,0,0-.24s-.05-.08-.11-.09a.16.16,0,0,0-.17.08.9.9,0,0,0,0,.23l0,.06s0,0,0,0h0l-.06-.2a.41.41,0,0,1,0-.19.65.65,0,0,1,.09-.19,2.32,2.32,0,0,1,.26-.3l0,.08.28-.16.12-.06.15-.06a1.33,1.33,0,0,1,.3-.06,1.57,1.57,0,0,1,.61,0c.1,0,.23.07.33.1l.33.11c.21.08.43.17.61.26l.1.05-.07.47A.69.69,0,0,1,6.85,22ZM4.21,22Zm0,0Zm-.26-7.28h0a.84.84,0,0,1-.21-.13l-.09-.09-.06-.08a.44.44,0,0,1-.05-.37.6.6,0,0,1,.08-.19,1,1,0,0,1,.12-.16l.16-.16-.27-.11c-.18-.08-.37-.16-.55-.26s-.35-.18-.51-.28a3.55,3.55,0,0,1-.88-.66,1.85,1.85,0,0,1-.3-.39.78.78,0,0,1-.09-.21.56.56,0,0,1-.06-.21,1.37,1.37,0,0,1,0-.45,2.16,2.16,0,0,1,.25-.44,3.23,3.23,0,0,1,.35-.4c.13-.13.29-.25.43-.37l.91-.71C3.76,8.59,4.37,8.14,5,7.67l.16.1a5.58,5.58,0,0,0,1,.51,4.1,4.1,0,0,0,2.34.14A4.1,4.1,0,0,0,9,8.28l.42-.18a4.3,4.3,0,0,0,.48-.26,3.35,3.35,0,0,1,1,.7A3,3,0,0,1,11.3,9c0,.07.1.18.12.25a1.83,1.83,0,0,1,.08.25,3.38,3.38,0,0,1,.17,1.1,3,3,0,0,1-.27,1.09h0v0c0,.34,0,.67,0,1s0,.66,0,1v.05a1.27,1.27,0,0,1,0,.28.53.53,0,0,1-.07.26.24.24,0,0,1-.08.1l-.1.06-.13,0h0a.84.84,0,0,0,.05-.17.6.6,0,0,0-.05-.39.36.36,0,0,0-.21-.19l-.09,0-.08-.05a2.27,2.27,0,0,1-.25-.18,1.37,1.37,0,0,0,.2-.23,2,2,0,0,0,.32-.67,2.19,2.19,0,0,0,.07-.66A3.24,3.24,0,0,0,10.26,10c-.06-.08-.13-.14-.17-.19L10,9.78l.13.28a1.78,1.78,0,0,1,.12.33,4,4,0,0,1,.12.44,4.11,4.11,0,0,1,.09,1.08,3.16,3.16,0,0,1-.11.6,1.84,1.84,0,0,1-.28.56,1.25,1.25,0,0,1-.21.24,1.91,1.91,0,0,1-.3.22,3,3,0,0,1-.71.28A7.79,7.79,0,0,1,7.35,14c-.47,0-.86,0-1.14,0h-.3c0-.06,0-.12-.07-.19v0h0a3,3,0,0,0-.46-.39,3.33,3.33,0,0,0,.21.48v0a3,3,0,0,1,0,.42.4.4,0,0,1,0,.17s0,0,0,0h0c-.08,0-.22-.11-.31-.23a4,4,0,0,1-.28-.4.9.9,0,0,0,0,.46l.1.2-.2-.17a2.81,2.81,0,0,0-.36-.27L4.28,14a.69.69,0,0,0,0,.19.78.78,0,0,0,.25.37,1.18,1.18,0,0,0,.25.15l.1,0-.14,0a.76.76,0,0,1-.37-.16L4,14.27l-.19-.14a.42.42,0,0,0,0,.2.62.62,0,0,0,.27.4l.11,0A.72.72,0,0,1,3.92,14.72Zm1-7.86h0a1.57,1.57,0,0,1-.14-.4L4.7,6.23a.44.44,0,0,0-.06-.12A.75.75,0,0,0,4.57,6l0-.06L4.8,5,5,5.92l.28-1.48.83.67L6,4.5,7.42,6,6.79,4.66,8.21,5.82,7.85,4.47l.8.66s-.36-.85-.32-.82L9.85,5.55l-.51-.94.69.57.05-.61,1.08,1.17L11,5.93a.85.85,0,0,0-.12.22c-.07.14-.1.35-.22.61a1.7,1.7,0,0,1-.72.8,3.61,3.61,0,0,1-.71.33L8.84,8c-.14,0-.29.07-.44.09a3.67,3.67,0,0,1-1.93-.19,6.08,6.08,0,0,1-.92-.46A1.5,1.5,0,0,1,4.91,6.86Zm-.73-.25h0l-.1-.1L4,6.38c-.07-.11-.16-.21-.24-.32l-.23-.31-.08-.12,0-.09s0,0,0,0l.12,0h.07c.14.24.3.48.43.69l.06.09,0,.09,0,.21,0,.12Zm7.66-1.32h0s0,0,0,0a.79.79,0,0,1,0,.13,1.3,1.3,0,0,1-.08.17,1,1,0,0,1-.1.18,2.33,2.33,0,0,1-.48.62,2.4,2.4,0,0,1-.3.22A4.75,4.75,0,0,1,11,6.16.72.72,0,0,1,11.08,6l.12-.17.14.14.45-.64Zm.26,15.5Zm.47.46A1.39,1.39,0,0,0,12.3,21l0,0a.56.56,0,0,0,.08-.21,2.48,2.48,0,0,0-.05-.62c0-.19-.09-.38-.14-.57a1.39,1.39,0,0,1-.07-.52A11.35,11.35,0,0,0,12.39,18a2,2,0,0,0-.32-1.16,3.07,3.07,0,0,1-.37-1.09l0-.28a.91.91,0,0,0-.11-.3,1.65,1.65,0,0,0-.28-.32l.13,0a1.14,1.14,0,0,0,.29-.15.77.77,0,0,0,.18-.18.82.82,0,0,0,.13-.4,1.1,1.1,0,0,0,0-.36c0-.34-.05-.66-.09-1s-.14-.66-.22-1l.18-1.1A5.67,5.67,0,0,0,12,10l0-.29a1.51,1.51,0,0,0,0-.3,1.28,1.28,0,0,0-.07-.3,1.83,1.83,0,0,0-.14-.28,2.05,2.05,0,0,0-.47-.51A2.67,2.67,0,0,0,10.63,8,3,3,0,0,0,10,7.78l.14-.09a1.85,1.85,0,0,0,.65-.91s0-.06,0-.09a1.57,1.57,0,0,0,.51-.09,1.6,1.6,0,0,0,.46-.25,1.21,1.21,0,0,0,.35-.4.88.88,0,0,0,.1-.22.59.59,0,0,0,0-.23.39.39,0,0,0-.06-.25.38.38,0,0,0-.29-.18l0,0s.45-2.17-.34-2.88A5.47,5.47,0,0,0,7.72.89a6.33,6.33,0,0,0-4.3,1.84,1.4,1.4,0,0,0-.11,1.21,2,2,0,0,0,.23,1.34l.06.11h0a.61.61,0,0,0-.17,0,.42.42,0,0,0-.27.09A.28.28,0,0,0,3,5.65a.39.39,0,0,0,0,.21,1.27,1.27,0,0,0,.2.38,2.42,2.42,0,0,0,.32.32,1,1,0,0,0,.2.15,1.17,1.17,0,0,0,.26.1.75.75,0,0,0,.26,0A.64.64,0,0,0,4.35,7a1.57,1.57,0,0,0,.59.64A8.47,8.47,0,0,0,2.8,8.82a4.21,4.21,0,0,0-.44.39c-.13.13-.25.27-.37.41l-.66.86a1.7,1.7,0,0,0-.15.22L1,10.92a1.52,1.52,0,0,0-.15.5.7.7,0,0,0,0,.25.76.76,0,0,0,.06.26,1.36,1.36,0,0,0,.11.25l.16.23a3.25,3.25,0,0,0,.41.42,4.74,4.74,0,0,0,.51.37,5.94,5.94,0,0,0,1,.48l0,.07A.9.9,0,0,0,3,14a.72.72,0,0,0,.21.53l.12.11.14.08a.93.93,0,0,0,.34.13,1.33,1.33,0,0,0,.28,0,11.71,11.71,0,0,1,0,1.45,2.85,2.85,0,0,1-.12.72.8.8,0,0,1-.08.16,1.76,1.76,0,0,0-.09.2,1.23,1.23,0,0,0-.08.4,6.48,6.48,0,0,0,.19,1.53l.09.38a1,1,0,0,0,.05.2H4a.48.48,0,0,0-.1.49,1.44,1.44,0,0,0,.13.4l.06.15a2,2,0,0,0-.36.27,1,1,0,0,0-.16.2.46.46,0,0,0-.06.23,1.7,1.7,0,0,0,0,.22.25.25,0,0,0,.1.15.27.27,0,0,0,.19,0l.12,0H4a.2.2,0,0,0,.06.07l.08,0,.08,0h0a.39.39,0,0,0,.12,0c.05,0,.06,0,.09,0l0,0,.09.13a.48.48,0,0,0,.13.09.51.51,0,0,0,.22.05H5l.07,0a.32.32,0,0,0,.13-.08.25.25,0,0,0,0,.07l.06.06.13.05a.38.38,0,0,0,.25,0l.13-.08h0a0,0,0,0,1,0,0,.36.36,0,0,0,.25.16.37.37,0,0,0,.14,0h.12a1.35,1.35,0,0,0,.49-.11.46.46,0,0,0,.28-.31.62.62,0,0,0,0-.33L7,21.28l.08,0a1.86,1.86,0,0,0,.6-.45.49.49,0,0,0,0-.64c-.09-.1-.23-.16-.25-.22a.32.32,0,0,1,0-.24,2.7,2.7,0,0,0,.08-.58c0-.19,0-.38,0-.57a2.11,2.11,0,0,1,0-.56,7.4,7.4,0,0,1,.26-1l.61.07q.12.56.21,1.11c0,.2.06.4.08.59V19a1.18,1.18,0,0,1-.1.25,1.61,1.61,0,0,0-.14.32.5.5,0,0,0,.09.39l.09.13s0,0,0,0a1.5,1.5,0,0,1-.23.14.49.49,0,0,0-.25.4.41.41,0,0,0,0,.11l0,.07a.64.64,0,0,0,.08.19,1.12,1.12,0,0,0,.27.31,1.7,1.7,0,0,0,.4.24l.28.12v0a.91.91,0,0,0,0,.33.49.49,0,0,0,.28.31,1.45,1.45,0,0,0,.49.11h.12a.42.42,0,0,0,.15,0,.33.33,0,0,0,.24-.16l0,0h0l.13.08a.37.37,0,0,0,.25,0l.13-.05.06-.06s0-.05,0-.07a.32.32,0,0,0,.13.08l.06,0h.13a.46.46,0,0,0,.21-.05.56.56,0,0,0,.14-.09l.08-.13,0,0s0,0,.09,0a.34.34,0,0,0,.11,0h0l.08,0,.07,0a.16.16,0,0,0,.07-.07h0l.11,0a.29.29,0,0,0,.2,0,.19.19,0,0,0,.09-.15.86.86,0,0,0,0-.22.39.39,0,0,0-.07-.23A1,1,0,0,0,12.57,21.25Z"/><path class="cls-3" d="M3.4,18.09a1.88,1.88,0,0,1,.06-.58,1,1,0,0,1,.1-.28,2.44,2.44,0,0,0,.11-.32,2.05,2.05,0,0,0,.08-.57,1.28,1.28,0,0,0-.11-.55s-.08.21-.21.52c-.07.15-.14.33-.24.51s-.1.19-.15.28a1.73,1.73,0,0,0-.14.34,1.81,1.81,0,0,0,.21,1.23,2.19,2.19,0,0,0,.35.5s0-.23,0-.54c0-.16,0-.35,0-.54"/><path class="cls-3" d="M13,16.83a2.78,2.78,0,0,0-.42-.85l-.16-.21a.62.62,0,0,1-.11-.17,1.09,1.09,0,0,1-.1-.36,1.46,1.46,0,0,1,0-.4.9.9,0,0,0-.33.37.75.75,0,0,0-.06.46.77.77,0,0,0,.1.26,2.1,2.1,0,0,0,.15.22,6.36,6.36,0,0,0,.63.76,2.45,2.45,0,0,0,.36.33,1.34,1.34,0,0,0-.06-.41"/><path class="cls-3" d="M3.18,16.38A1.76,1.76,0,0,0,3.31,16a1.66,1.66,0,0,0-.09-.82A1.42,1.42,0,0,0,3,14.77a2.55,2.55,0,0,0-.13.37,6.2,6.2,0,0,0-.15.77l-.11.76c0,.1,0,.19,0,.26a.67.67,0,0,0,0,.1L2.7,17A1.19,1.19,0,0,0,3,16.74a1.31,1.31,0,0,0,.23-.36"/><path class="cls-3" d="M5.81,7.84,6,9.29s.8.2.56.44S6,10.4,6,10.4s-.87-.64-.72-.85.29-.22.29-.22l-.31-1.7Z"/><path class="cls-3" d="M9.93,7.84,9.4,9.61s.25.24.1.43-.7.66-.7.66-.57-.72-.43-.9a1.08,1.08,0,0,1,.54-.23L9,8.07Z"/></svg>