<svg id="Capa_1" data-name="Capa 1" xmlns="http://www.w3.org/2000/svg" viewBox="0 0 31.47 19.32"><defs><style>.cls-1{fill:#b0d240;}.cls-2{fill:#ffc965;}.cls-3{fill:#f5a4c7;}.cls-4{fill:#fcd2be;}.cls-5{fill:#fbcabb;}.cls-6{fill:#dea496;}.cls-7{fill:#f2ac9e;}.cls-8{fill:#231f20;}</style></defs><title>4-21meses</title><path class="cls-1" d="M5.21,12.46c-1.4.19-.9,1.11-2.68,1.65S1,15.89,1,15.89a3.11,3.11,0,0,0,1.79.61c1.14.05,7.76-.25,7.76-.25a1.14,1.14,0,0,0,.7-1.15c0-.88,0-1.84-.7-2s-5.36-.66-5.36-.66"/><path class="cls-2" d="M3.62,16.62s-.39.43.9.56,1.35-.35,1.21-.68-.24-.79-.33-.72a3.44,3.44,0,0,1-.73.06s-.48.85-1,.78"/><path class="cls-2" d="M9.31,15.68s.71.93.27,1.24-1.8.08-1.8.08-.63-.42-.28-.51a3.46,3.46,0,0,1,.67-.1s-.32-.73.32-.73l.82,0"/><path class="cls-3" d="M8.9,12.67l2.28.62s-.28-.83-.94-.9a2.75,2.75,0,0,0-1.34.28"/><path class="cls-3" d="M15.68,10.76s-.76.84-.22,1.2,2.11,1.86,2.11,1.86S22,12.5,22.13,12.49s.62-1.06.34-1.37-6.79-.36-6.79-.36"/><path class="cls-3" d="M25,13.73l-2,1.48.41,1.53L28.05,18s1.48-.17,1.75-.49a8.6,8.6,0,0,0,.39-2.84c0-.41-.8-.54-.8-.54Z"/><path class="cls-4" d="M16.08,12.08s-.85.09-.56,1.26a6.47,6.47,0,0,0,1.6,2.41,8.68,8.68,0,0,1,2-.25c.62.08,3.9-2.33,3.9-2.33s-.24-1.64-.66-1.45-2.57.92-3.14,1.2a2.77,2.77,0,0,1-1.1.28Z"/><path class="cls-4" d="M11.18,7.36s4.1-.24,4-.44A1,1,0,0,1,14.88,6c.09-.62-.78-1.93-.41-2.27s6-1.07,6.12-1.07,2.19,1.73,2.35,1.78,2.43,4.73.2,5.86-2.82,1.25-3.76,1.32-3.28,0-3.69-.49a4.48,4.48,0,0,1-.61-1L13.25,9S9.84,8.79,9.82,8.5s1.36-1.14,1.36-1.14"/><path class="cls-5" d="M20.87,4.74s-.6.78-.46,1.2a9.72,9.72,0,0,0,.46,1.33.34.34,0,0,1-.11.48c-.18.13-.34.3-.1.39a1.55,1.55,0,0,1,.38.22s-.27.25-.15.31a3.5,3.5,0,0,0,.47.11s-.27.07-.28.23.31.17.28.33-.13.15.18.23a3.52,3.52,0,0,0,.67.09s0,.17-1.07.3a11.9,11.9,0,0,1-4.22-.54c-.84-.36-1-.31-.75-.08a6.42,6.42,0,0,0,.64.56s.46.18.17.38-.8.2-.57.42.83.12.83.12l.91-.09s1,.45,1.1.45,1.94.18,2.66.22a1.94,1.94,0,0,0,1-.17s.19,1,.19,1,.16.66.16.66-.56.21-.82,0-.38-.63-.79-.7-.49-.11-.47,0-.38.15-.35.35-.28.77-.14.87a6,6,0,0,0,1.32.65,2.71,2.71,0,0,1,.56.1,11.68,11.68,0,0,0-1.64.16c-.35.11-.7,0-.93.34s-.72.29-1.11.29-1.13-.34-1.15-.18,0,.36,0,.52a.18.18,0,0,0,.08.21s-.89.1-.92.26a2.29,2.29,0,0,0,0,.64c0,.17,0,.56.39.6s1-.15,1.39-.15,1.61.83,2.24.88a41.09,41.09,0,0,0,4.12.64,7.71,7.71,0,0,0,2.68-.46c.31-.22,1-.84,1-1.08a2.39,2.39,0,0,0-1.44-1.4,8.45,8.45,0,0,0-3.51.1s-.31-.51,0-.61a4.11,4.11,0,0,1,.72-.14s3.67-.52,4.18-.47,1,.05,1.08.05.11-.05-.13-.57a15.85,15.85,0,0,0-2.1-3.23c-.68-.65-1.64-.88-1.43-1.58s.91-.62.57-1.79A4.5,4.5,0,0,0,25,4.74c-.43-.18-3-1.26-4.08,0"/><path class="cls-6" d="M5.87,13.48a3,3,0,0,0-1.08-.19c-.51,0-2.71-.44-2.64-1s-.44-.33.68-1.52S4.11,9.56,4.52,9.6a7.32,7.32,0,0,0,1.73-.41s.31-.55,0-.56A1.59,1.59,0,0,1,4.9,7.19a2.61,2.61,0,0,1,.62-2.35c.26,0,5.18-.76,5.47-.16a6.63,6.63,0,0,1-.24,2.59s.53.91.07,1.21a11.08,11.08,0,0,1-2.21.65s-.35.3.29.49a16,16,0,0,0,3.08,0A5.94,5.94,0,0,1,12.92,9a19.57,19.57,0,0,1,2.25-.46s.62-.71.91-.71a.91.91,0,0,1,.5.17l-.38.54s1.09.18.82.46a2.1,2.1,0,0,1-.87.42s.39.41,0,.57a18.33,18.33,0,0,1-2.19.37,6.62,6.62,0,0,1-2.19.76,16.38,16.38,0,0,0-1.71.19,4.61,4.61,0,0,0,.22,1.12c.12.17-1,.29-1,.29s.53,0,.45.35-.57.38-.57.38-.43.38-.67.35a6.48,6.48,0,0,0-.86.06s-1.66,0-1.72-.34"/><path class="cls-7" d="M10.87,13s-.42.08-.24.32.49.48.49.62.14,1.4.16,1.56.27.22.41.22.68-.27.92-.18a5.45,5.45,0,0,0,1.08.24,6.38,6.38,0,0,1,1.69.14,7.31,7.31,0,0,0,1.3.26l.38-.49a2.62,2.62,0,0,0-.63-.81c-.46-.43-1.14-1.14-1.14-1.14A8.64,8.64,0,0,0,10.87,13"/><path class="cls-8" d="M21.59,7.3c-.48-.11-.26.15-.26.15s.13-.07.13-.07a.54.54,0,0,0,.28.28c.22.08.17-.09.17-.09l.3.14a.92.92,0,0,0-.62-.41"/><path class="cls-8" d="M30.12,15.85h0q0,.31-.06.63a2,2,0,0,1-.17.6,1.26,1.26,0,0,1-.46.49,2.16,2.16,0,0,1-.74.25l-.44.05a1.72,1.72,0,0,0,.71-.59.69.69,0,0,0,.1-.48l0-.12s0,0,0-.06l0-.05a1.07,1.07,0,0,0-.09-.19,2.14,2.14,0,0,0-.28-.39,2,2,0,0,0-.37-.34,2.77,2.77,0,0,0-1-.49,3.19,3.19,0,0,0-.6-.12A4.3,4.3,0,0,0,26,15a5.6,5.6,0,0,0-.59.07l-.55.09-.54.09-.52.07h0c0-.2,0-.44.3-.42l.9-.1,1.82-.17c.61-.07,1.21-.12,1.81-.17.3,0,.6,0,.89,0s.59,0,.57.14a7.43,7.43,0,0,1,.05,1.25m-4.18,2.24h0L24.88,18l-.53,0h-.54a7.83,7.83,0,0,1-1.08-.07c-.35,0-.7-.12-1.05-.19l-.5-.11a2.6,2.6,0,0,1-.44-.16,6.46,6.46,0,0,1-.83-.42c-.26-.15-.54-.31-.79-.47l0,0a.32.32,0,0,0-.22,0l-1,.19-.23.06-.22,0h-.17l.15,0a.6.6,0,0,0-.11-.1.52.52,0,0,0-.13-.06l0,0h.08l.14-.06a.25.25,0,0,0-.07-.09l-.09-.06h-.05l.12,0,.15-.06a.49.49,0,0,0-.1-.09.88.88,0,0,0-.19-.1s0,0-.06,0L17,16l0,0a1,1,0,0,0,.22,0h.2s.05,0,0,0l0,0h0s0,0,0,0-.26-.08-.3-.14,0-.08,0-.12a.53.53,0,0,1,.25,0h.46c.29,0,.57,0,.83-.07h.52l.09,0,.05,0h0l.09,0,.2.1a2.59,2.59,0,0,0,.48.12,3.57,3.57,0,0,0,.93,0,5.63,5.63,0,0,1,.81-.11,3.39,3.39,0,0,1,.55,0c-.19.14-.36.3-.54.45h0a.09.09,0,0,0,0,.15.2.2,0,0,0,.21,0h0c.26-.15.54-.29.79-.45l0,0a4.55,4.55,0,0,1,.53-.2l.58-.17.89-.27h.08l.57,0a5,5,0,0,1,.54,0,3.07,3.07,0,0,1,.53.05,2.4,2.4,0,0,1,.48.11,2.49,2.49,0,0,1,.8.45,2,2,0,0,1,.5.61,1,1,0,0,1,.08.18l0,0v.1a.43.43,0,0,1-.05.29,1,1,0,0,1-.25.26,2.75,2.75,0,0,1-.38.24,4.68,4.68,0,0,1-.93.34h0a.21.21,0,0,0-.14.12h-.73Zm-8-2.84h0l0,0,.13-.08c.07,0,.09-.11,0-.16l0,0v0l.14,0,.16,0a.58.58,0,0,0,.19,0,2.37,2.37,0,0,0,.75,0,2.59,2.59,0,0,0,.68-.16h0a.15.15,0,0,0,.08-.08v-.13a.34.34,0,0,1,.07-.11,1,1,0,0,1,.13-.09,1.27,1.27,0,0,1,.18-.06,1.33,1.33,0,0,1,.4,0c.14,0,.28,0,.41,0h.83c.23,0,.46,0,.7,0l.17.07c.23.08.46.16.71.23a2.78,2.78,0,0,0,.36.08H24a.72.72,0,0,0-.24.09.26.26,0,0,0-.1.18.55.55,0,0,0,0,.31,4.75,4.75,0,0,0-1.19.35q-.34-.06-.69-.09a8.48,8.48,0,0,0-.87,0,4.47,4.47,0,0,1-.75,0,1.11,1.11,0,0,1-.29-.1l-.14-.08-.07,0h0l0,0h0l0,0-.3-.08-.27,0a3.15,3.15,0,0,0-.46,0c-.21,0-.4.06-.59.09a.19.19,0,0,0-.08-.07s0,0,0,0Zm.18-.41h0v0S18.07,14.84,18.08,14.84ZM18,13h0l-.2-.06c-.5-.29-1-.57-1.55-.83l-.4-.2a1.71,1.71,0,0,1-.36-.2.33.33,0,0,1,0-.55l.13.1a2.32,2.32,0,0,0,.58.19l.63.11.64.13a4.49,4.49,0,0,0,.64.1c.22,0,.43,0,.64.05a5.15,5.15,0,0,0,1.15-.08,3.16,3.16,0,0,0,.76-.23l.05,0,.21,0a4.07,4.07,0,0,0,.49.05,2.36,2.36,0,0,0,.46,0l.37-.05a0,0,0,0,1,0,0s0,0,0,0h0l0,0L22,11.7l-.34.17-.16,0a.44.44,0,0,0-.27.07l-.13.09a.48.48,0,0,0-.08.16l-.06,0-.12,0a9,9,0,0,0-1.36.43,3,3,0,0,0-.47.24,1.07,1.07,0,0,1-.19.09.6.6,0,0,1-.19.06,1.18,1.18,0,0,1-.42,0ZM15.7,12.3h0a1.57,1.57,0,0,0-.25.33,1.15,1.15,0,0,0-.12.25,1.28,1.28,0,0,0-.07.28,1.61,1.61,0,0,0,0,.31,1.7,1.7,0,0,1,0,.22,4.53,4.53,0,0,0-.44-.23A7,7,0,0,0,13.51,13l-.37-.07-.4,0c-.26,0-.51,0-.76,0h-.75l-.15,0s0,0,0,0a.62.62,0,0,0-.31-.38l-.12-.06a.42.42,0,0,0-.17,0,.59.59,0,0,0-.23,0,1.31,1.31,0,0,1,0-.52,1.94,1.94,0,0,1,.16-.48c.32,0,.63,0,.94,0a8.39,8.39,0,0,0,1.09-.11,3.21,3.21,0,0,0,.53-.15l.46-.2c.3-.13.57-.27.85-.38a2.3,2.3,0,0,1,.42-.14.85.85,0,0,1,.2,0h.27v0a.69.69,0,0,0,.11.59,1.25,1.25,0,0,0,.23.23.53.53,0,0,0-.28.27.39.39,0,0,0,.09.38,1.59,1.59,0,0,0,.35.29l.17.11Zm-5.2.54h0l0,.17a1.22,1.22,0,0,0-.57,0l0-.22a.4.4,0,0,0-.07-.2,1.64,1.64,0,0,1,.38,0l.15,0,0,0a.16.16,0,0,1,.06.05.44.44,0,0,1,.13.18l-.08,0Zm.08,0Zm.31.84h0c0,.08.06.15.08.22a3.69,3.69,0,0,1,.08.46,7.31,7.31,0,0,1,0,.93,2.32,2.32,0,0,1-.06.45,1.59,1.59,0,0,1-.07.2.56.56,0,0,1-.05.08h0L10,16a1,1,0,0,0,0-.16.67.67,0,0,0-.25-.32,1,1,0,0,0-.45-.17l-.24,0H8.83a1.84,1.84,0,0,0-.25.05l-.21.1a.91.91,0,0,0-.25.27,1.19,1.19,0,0,0-.12.55l-1,0-.86,0a.79.79,0,0,0,.06-.22.62.62,0,0,0-.07-.39.74.74,0,0,0-.44-.31,1.57,1.57,0,0,0-.3-.05.94.94,0,0,0-.29,0,1.31,1.31,0,0,0-.93.5,1.68,1.68,0,0,0-.2.34,1.08,1.08,0,0,0-.08.19,7.81,7.81,0,0,1-.85,0,3.65,3.65,0,0,1-.49-.06l-.11,0-.1,0-.22-.09a6.11,6.11,0,0,1-.85-.42l-.08,0a.47.47,0,0,1,0-.09,1.63,1.63,0,0,1,.14-.34,1.86,1.86,0,0,1,.46-.62,1,1,0,0,1,.34-.2l.1,0,.14,0,.29-.1a3,3,0,0,0,.82-.57A4.23,4.23,0,0,0,4,13.24l.31.07c.41.08.82.14,1.23.19l0,.05a.53.53,0,0,0,.2.23.59.59,0,0,0,.16.07h0a3.66,3.66,0,0,0-.49.19l-.28.14c-.1.06-.18.14-.29.2a.85.85,0,0,1-.36.16l-.23,0a1.09,1.09,0,0,0-.26.05,1.58,1.58,0,0,0-.46.18,2.85,2.85,0,0,0-.33.25,1.45,1.45,0,0,0-.37.51,1.08,1.08,0,0,0-.1.56h0a4.11,4.11,0,0,0,.51-.42l.2-.21a2.2,2.2,0,0,0,.2-.23L3.91,15c.08-.07.15-.16.24-.23a.89.89,0,0,1,.38-.14A3.4,3.4,0,0,1,5,14.58a2.7,2.7,0,0,0,.43-.11,1.31,1.31,0,0,0,.31-.17,1.2,1.2,0,0,0,.38-.4h0a1.43,1.43,0,0,0,.3,0,3.27,3.27,0,0,1,.88-.07h0l.08,0a.68.68,0,0,0,.21,0A1.07,1.07,0,0,0,8,13.83a.84.84,0,0,0,.27-.13.21.21,0,0,0,.09-.27.48.48,0,0,0-.23-.17,1.21,1.21,0,0,0-.25-.08,4.5,4.5,0,0,0-.51-.08v0l.44.16a1,1,0,0,1,.18.1s.1.07.09.09,0,0,0,0l-.16.05H7.6l-.08,0a1.66,1.66,0,0,0-.61-.06c-.19,0-.36,0-.52,0H6.16a.18.18,0,0,1,0-.08.23.23,0,0,1,0-.11l0-.17-.23,0a22.53,22.53,0,0,1-2.77-.43,3.63,3.63,0,0,1-.61-.2,1.45,1.45,0,0,1-.22-.12.67.67,0,0,1-.07-.11.25.25,0,0,1,0-.1,1.18,1.18,0,0,1,.37-.91c.24-.29.56-.54.83-.83a2.18,2.18,0,0,1,.41-.35,2.37,2.37,0,0,1,.53-.25A9.17,9.17,0,0,1,5.6,9.54l.18,0A1,1,0,0,0,6,9.45a.48.48,0,0,0,.25-.26.63.63,0,0,0,0-.43l.13.06a5.27,5.27,0,0,0,2.14.39.26.26,0,0,0,.07.34,1.16,1.16,0,0,0,.22.13l.12,0,.07,0H9l.25,0,.24,0,.48,0a10.68,10.68,0,0,0,1.88-.15H12l0,0a.7.7,0,0,1,.17-.18l.24-.15A3.34,3.34,0,0,1,13,9.09l.16,0A2.28,2.28,0,0,0,13.52,9,2.48,2.48,0,0,0,14,8.86l.25,0,.35-.05-.09,0-.21.07.06.11a.38.38,0,0,1,0,.1.36.36,0,0,1,0,.1.34.34,0,0,1,0,.2.49.49,0,0,1-.16.16,1.17,1.17,0,0,1-.3.11v0a1.26,1.26,0,0,0,.38,0,.69.69,0,0,0,.33-.17.77.77,0,0,0,.16-.27.4.4,0,0,0,0-.15h0L15.07,9a.3.3,0,0,0-.16.31.46.46,0,0,0,.18.26,1.4,1.4,0,0,1,.15-.23.19.19,0,0,1,.14-.08h.21v0a.23.23,0,0,0,.06.09.44.44,0,0,0,.11.09h-.2a1.13,1.13,0,0,0-.52.15c-.07,0-.15.1-.13.18s.13.1.21.12S15,9.86,15,9.81s.07-.08.13-.1a1.19,1.19,0,0,1,.46-.06.9.9,0,0,1,.39.1c.06,0,.08.07.08.08s0,0,0,0a1.35,1.35,0,0,1-.41.08,3.75,3.75,0,0,1-.48,0h-.26a1.8,1.8,0,0,0-.31,0,3.82,3.82,0,0,0-.54.16c-.32.12-.61.26-.9.39l-.41.19-.43.13a8.58,8.58,0,0,1-1,.13c-.34,0-.68.06-1,.08h-.14l0,.07a1.38,1.38,0,0,0-.07.63,1.15,1.15,0,0,0,.2.53h-.07a1.33,1.33,0,0,0-.38.17.1.1,0,0,0,0-.05,1.08,1.08,0,0,0-.3-.21,2.44,2.44,0,0,0-.7-.2c-.44,0-.84-.12-1.27-.18l-2.39-.35c.2-.32.4-.65.58-1-.33.33-.62.67-.92,1l-.1.11.19,0c.83.19,1.67.37,2.51.52.42.08.86.15,1.28.21l.21.05-.89-.12h0l-.08.31L9.57,13h.06s0,0,.06.07a.21.21,0,0,1,0,.11c0,.13-.22.2-.43.23a.22.22,0,0,0,0-.08v-.08l0-.06-.06-.07a.89.89,0,0,0-.3-.19,3,3,0,0,0-1.18-.19,2.91,2.91,0,0,0-.53.06s.2.08.48.16c.13.05.29.09.46.14a4.29,4.29,0,0,1,.47.16.53.53,0,0,1,.15.08h0s0,0,0,0l0,0s0,0,0,0h0s0,0,0,.07a.63.63,0,0,1-.12.1,3.71,3.71,0,0,1-.41.2,1.38,1.38,0,0,0,.56,0,.82.82,0,0,0,.27-.1.37.37,0,0,0,.22-.25,1.23,1.23,0,0,0,.27,0,.43.43,0,0,0,.31-.2.28.28,0,0,0,0-.12,1,1,0,0,1,.53.07.71.71,0,0,1,.22.15,1.35,1.35,0,0,1,.16.19A2,2,0,0,1,10.89,13.67Zm-2.43,2h0l.06,0a.47.47,0,0,1,.15-.06l.17,0H9l.18,0h0a2,2,0,0,0-.69.08Zm.93,1.08h0s-.09.07-.29.1l-.47.06a2.17,2.17,0,0,1-.78,0,.58.58,0,0,1-.22-.13.35.35,0,0,1-.1-.16l0-.1.59,0h.09v-.06a1.08,1.08,0,0,1,.12-.55l.09-.1h.13a2.36,2.36,0,0,1,.61.06c.1,0,.18.07.19.11l0,.13c0,.05,0,.11.05.17S9.5,16.67,9.39,16.75Zm-4-1h0a1.09,1.09,0,0,0-.3,0l.07,0h.19a1.08,1.08,0,0,1,.19,0,.46.46,0,0,1,.14.05.24.24,0,0,1,.11.09.48.48,0,0,1,.08.34l0-.05,0-.07,0-.09A.58.58,0,0,0,5.4,15.78Zm-.11,1.11h0a.37.37,0,0,1-.2.13,1.78,1.78,0,0,1-.35,0H4.35L4,17a.6.6,0,0,1-.32-.15h.69l0-.15a1.49,1.49,0,0,1,.09-.3,1.18,1.18,0,0,1,.16-.29.89.89,0,0,1,.19-.2,1.53,1.53,0,0,1,.41.1.25.25,0,0,1,.13.14v.26A.72.72,0,0,1,5.29,16.89ZM5.41,8.1h0c.44-.75-.19-1.91-.19-1.91L6,6.08l-.22.11c1.93-.43,2.33,0,2.33,0S8,6,7.51,5.84a4.83,4.83,0,0,0,2.62-1.19,2.27,2.27,0,0,1,.42.51,4.18,4.18,0,0,1,.29.4,4.71,4.71,0,0,0-.39,1.15.93.93,0,0,0,0,.46.5.5,0,0,0,.07.13l.07.1a.35.35,0,0,1,.08.13.68.68,0,0,1-.18.65A3.09,3.09,0,0,1,8.7,9,5,5,0,0,1,7.54,9a4.86,4.86,0,0,1-1.09-.29A3.75,3.75,0,0,1,5.41,8.1Zm5.41.38h0L11,8.7h-.17l-.38,0A2.62,2.62,0,0,0,10.82,8.48Zm.43-.4h0s.28.36.48.62h-.46A2.54,2.54,0,0,0,11.25,8.08Zm.58,1.46h0l-.89,0h-2a.69.69,0,0,1-.17-.05.27.27,0,0,1-.19-.22h.19a4.26,4.26,0,0,0,1.6-.42,3.34,3.34,0,0,0,.46.14,6.12,6.12,0,0,0,1.34.18h.36l-.23.13L12,9.39C12,9.44,11.89,9.48,11.83,9.54Zm1.55-2.07h0a4.06,4.06,0,0,0,1.23-.24A1.67,1.67,0,0,0,15,7l.46.22a3.8,3.8,0,0,0,.63.26l.43.13a1.18,1.18,0,0,0-.4,0,2.17,2.17,0,0,0-.8.42,1,1,0,0,0-.21.22c-.12,0-.23,0-.35,0l-.69.14a4.34,4.34,0,0,0-.64.2l-.19.08-1.06,0h-.27l-.06-1,1,.77s.21-.23-.52-1.1l.32,0A5.2,5.2,0,0,0,13.38,7.47Zm1.49-2.34h0a1.63,1.63,0,0,0-.11-.23h1l.35,0a.72.72,0,0,1,.36,0L16.6,5l0,.07,0,0a.19.19,0,0,1,0,.19,1.39,1.39,0,0,1-.17.16,1.57,1.57,0,0,0-.24.21.64.64,0,0,0-.16.27.31.31,0,0,0,.05.29.34.34,0,0,0,.3.13.45.45,0,0,0,.23,0v0a.5.5,0,0,1-.16-.07s0,0,0-.06l.08-.1a1.07,1.07,0,0,1,.16-.14,2.09,2.09,0,0,0,.23-.21.68.68,0,0,0,.2-.33.39.39,0,0,0-.2-.37.44.44,0,0,0-.1-.06l-.08,0-.2-.09-.39-.15a1.43,1.43,0,0,0-.38-.1,7.78,7.78,0,0,1,1.16-1c.11,0,1.77,1.52,1.77,1.52l2.15-.37a1.86,1.86,0,0,0-.72,1.79l.15-.46a1,1,0,0,0,.11.47c.1.2.23.39.35.58a.08.08,0,0,0,0,0,7.37,7.37,0,0,1-1.22.26,6.49,6.49,0,0,1-1.32.06l-.65-.06L17,7.3a6.06,6.06,0,0,1-.61-.16,3.79,3.79,0,0,1-.57-.2h0a4.11,4.11,0,0,1-.51-.22c-.16-.08-.26-.15-.28-.25a1.33,1.33,0,0,1,0-.41,1.48,1.48,0,0,0,0-.47A1.39,1.39,0,0,0,14.87,5.13Zm-.28-.65h0l.55.16a1,1,0,0,0-.27.11.42.42,0,0,0-.13.1,1.09,1.09,0,0,1-.08-.15A1.87,1.87,0,0,1,14.59,4.48Zm11.86,4.3h0a.35.35,0,0,1,.12.21s0,.06,0,.07,0,0,0,.07,0,.09,0,.13a.64.64,0,0,0,0,.07v0c-.2-.15-.28-.27-.28-.42a.52.52,0,0,1,.06-.19Zm-5.31,3.67ZM22.38,12h0a.66.66,0,0,0,.19-.15.24.24,0,0,0,.06-.11s0-.09,0-.13a.33.33,0,0,0-.11-.15,1.46,1.46,0,0,0,.3-.11.86.86,0,0,0-.07.21,1.53,1.53,0,0,0,0,.3.86.86,0,0,0,0,.28,1.7,1.7,0,0,0,.09.24,1.14,1.14,0,0,0,.33.41h-.46a.57.57,0,0,1-.16,0h0s0,0,0,0a1.38,1.38,0,0,1-.09-.24.48.48,0,0,0-.11-.17.76.76,0,0,0-.2-.13l-.05,0A1.58,1.58,0,0,0,22.38,12Zm-1.87-.79h0a2.48,2.48,0,0,1-.48,0,1.38,1.38,0,0,1-.42-.13l-.38-.16-.36-.09c-.23,0-.42-.07-.57-.08h-.1a.6.6,0,0,0,.13-.09s0,0,0,0h0a1.81,1.81,0,0,1-.87.11h-.51c-.13,0-.26,0-.24,0h0v0l.14,0,.24-.09c.1,0,.25-.16.26-.27a.32.32,0,0,0,0-.26A.84.84,0,0,0,17,9.65h0l-.06,0-.47-.21h.06a7.19,7.19,0,0,1,.94.24,2.88,2.88,0,0,0,.47.15l.5.11c.33.07.66.13,1,.18a7,7,0,0,0,1,.07,4.22,4.22,0,0,0,1.06-.09,2.47,2.47,0,0,0,.8-.31l.78,0,0,0a1.27,1.27,0,0,0-.18.35.93.93,0,0,0,0,.24.71.71,0,0,0,0,.14l0,.14a.57.57,0,0,1,0,.29.63.63,0,0,1-.05.22H21.43C21.14,11.19,20.83,11.19,20.51,11.21ZM15.66,8.82h0l.1-.05a.28.28,0,0,0,.09-.08.1.1,0,0,0,0,0h0l.12,0,.38.09.21.05.11,0h.05c-.05.07-.13.15-.19.22l-.07.08-.22-.06A.57.57,0,0,0,16.15,9a1.34,1.34,0,0,0-.48-.11h-.21ZM16.32,8h0l0,.16a2.07,2.07,0,0,0-.06.24l-.2,0-.14,0s0-.05,0-.06a.34.34,0,0,0-.14-.08l-.16,0h-.17l.13,0C15.75,8.21,16.06,8.1,16.32,8Zm0-.07h0s0,0,0,0Zm.45.85h0s0,0,0,0ZM16,9.35Zm.82-1.54h0a.28.28,0,0,0-.15-.13h0l.16,0a6.32,6.32,0,0,0,1.45.15,6.09,6.09,0,0,0,1.43-.19,5.39,5.39,0,0,0,1.15-.44.51.51,0,0,1,.08.17c0,.09,0,.16-.12.24a1.37,1.37,0,0,0-.28.26.15.15,0,0,0,0,.2.59.59,0,0,0,.18.13l.19.09.07,0h0a.51.51,0,0,1-.09.13l-.06.07s-.05.08,0,.13a.49.49,0,0,0,.26.11l.22,0-.13,0-.07.05S21,9,21,9a.3.3,0,0,0,0,.13c0,.11.18.15.25.17a.35.35,0,0,0-.07.09c0,.05,0,.13.06.17a.34.34,0,0,0,.15.07,1.67,1.67,0,0,0,.3.08l.3.05h0c-.21,0-.43.07-.64.09a6.17,6.17,0,0,1-1,0c-.33,0-.66,0-1,0s-.67,0-1,0c-.17,0-.34,0-.49-.06a2.64,2.64,0,0,1-.45-.15l-.76-.3h0a1.32,1.32,0,0,0,.39-.2.3.3,0,0,0,.15-.25c0-.14-.2-.27-.3-.29l-.1,0h-.06l-.12,0a1.14,1.14,0,0,0-.26,0h-.11a1.91,1.91,0,0,0,.21-.14A.65.65,0,0,0,16.82,8,.21.21,0,0,0,16.8,7.81Zm-1.31,2.72h0a1.36,1.36,0,0,1-.11-.2l0-.05.32,0a2,2,0,0,0,.56-.18.3.3,0,0,0,.16-.2l.14.06a1,1,0,0,1,.17.21.06.06,0,0,1,0,0l-.17.07a2.08,2.08,0,0,0-.27.12.38.38,0,0,0-.13.16.15.15,0,0,0,0,.06v.06a.33.33,0,0,0,.19.29.91.91,0,0,0,.37.09,2.53,2.53,0,0,0,.3,0l.21,0,.23,0a2.32,2.32,0,0,0,.63-.15,2.38,2.38,0,0,0,.62.33,1.81,1.81,0,0,0,.37.1,2.15,2.15,0,0,0,.45,0,3.56,3.56,0,0,1,.47.05,2.37,2.37,0,0,1,.36.09l-.52,0h-.5l-.57,0-1.25,0a2.56,2.56,0,0,1-.62,0,1.63,1.63,0,0,1-.54-.18c-.16-.08-.27-.18-.39-.25a3.48,3.48,0,0,1-.27-.24A1.21,1.21,0,0,1,15.49,10.53Zm4.41,4.09h0l0,.07a5.33,5.33,0,0,1-.56,0,2.58,2.58,0,0,1-.39,0,.45.45,0,0,0,0-.11,2.78,2.78,0,0,0-.1-.52,4.94,4.94,0,0,0-.2-.51.75.75,0,0,1-.07-.12,1.36,1.36,0,0,0,.29,0,1.21,1.21,0,0,0,.32-.11,2.8,2.8,0,0,0,.25-.14,2.55,2.55,0,0,1,.39-.24c.28-.15.57-.29.88-.43v.18a.24.24,0,0,1,0,.19l0,0,0,0a.18.18,0,0,0,0,.12.34.34,0,0,0,.08.16s0,0,0,.05a.23.23,0,0,0,0,.11.19.19,0,0,0,.05.1,1.35,1.35,0,0,0,.31.2c.22.1.41.21.65.31l.42.16a2.9,2.9,0,0,0-.78,0,4.19,4.19,0,0,0-.88.21l-.2.08-.18.11A.93.93,0,0,0,19.9,14.62Zm8.65-2.54h0a13.11,13.11,0,0,1,1.2,2.11l-.23,0c-.33,0-.64,0-.95,0-.63,0-1.24.11-1.85.18s-1.09.15-1.64.25a2.28,2.28,0,0,0,.84-.61,2,2,0,0,0,.33-.52l.22-.51a9.11,9.11,0,0,0,.36-1,1.17,1.17,0,0,0-.15-1.07h0s0,0,0,0a1.41,1.41,0,0,1-.17,1c-.16.33-.34.65-.53,1a5.24,5.24,0,0,1-.53.94,1.81,1.81,0,0,1-.94.63l-.15,0h-.14a1.45,1.45,0,0,1-.31,0c-.23,0-.48-.09-.71-.15a12,12,0,0,1-1.4-.42,3.88,3.88,0,0,1-.61-.31.69.69,0,0,1-.22-.18h0l0,0a.21.21,0,0,0,0-.2.43.43,0,0,1,0-.1L21,13a.47.47,0,0,0,.15-.32.71.71,0,0,0,0-.14h.15c.14,0,.25-.08.24-.18h0s0-.07,0-.1l.1.07.2.1a.29.29,0,0,1,.1.06.27.27,0,0,1,.07.08,2,2,0,0,0,.19.29.28.28,0,0,0,.11.07l.15.05a1.09,1.09,0,0,0,.25,0,3.13,3.13,0,0,0,.65-.12h0a.65.65,0,0,0,.13.33h0a0,0,0,0,0,0,0,1.77,1.77,0,0,0,.26-.29,2.1,2.1,0,0,0,.15-.3c0-.11,0-.24.05-.36s.13-.49.18-.67.11-.31.11-.31a0,0,0,0,0,0,0h0s-.1.11-.23.28a3.75,3.75,0,0,0-.44.64,2.09,2.09,0,0,0-.19.36.72.72,0,0,0,0,.25h-.05s0-.06,0-.1a1.73,1.73,0,0,0,0-.36,1.61,1.61,0,0,0,0-.48l-.06-.28a1.08,1.08,0,0,0-.09-.29.79.79,0,0,1-.05-.3.61.61,0,0,1,.09-.28l.07-.13a.61.61,0,0,0,0-.12.72.72,0,0,0,0-.24,1.19,1.19,0,0,0-.06-.37s0,0,0,0h.25l.29,0h0v0s0,.05,0,.08v.06h0L24,10H24l.15,0h0V9.87a.25.25,0,0,0,0-.12.24.24,0,0,0-.11-.15.31.31,0,0,0-.13-.06h-.14l-.29,0h-.29a8.83,8.83,0,0,1-1.15,0l-.28,0-.26-.06c-.08,0-.11-.06-.1-.07l.06-.07s0-.05,0-.11l-.06-.06h0c-.11,0-.16-.06-.17-.09a.08.08,0,0,1,0-.07h0l0,0a2.26,2.26,0,0,1,.5-.16s.08,0,.07-.07-.05-.06-.1-.06H21.3A.91.91,0,0,1,21,8.62L21,8.54l.1-.15a.12.12,0,0,0,0-.14L21,8.2l-.19-.08c-.12-.06-.2-.11-.14-.18a1.44,1.44,0,0,1,.25-.24c.1-.07.21-.2.18-.32a1.11,1.11,0,0,0-.15-.31c-.1-.19-.23-.39-.33-.57a.89.89,0,0,1-.06-.58,2.48,2.48,0,0,1,.13-.35l.63,1c-.34,0-.42.18-.42.18.72-.23,1.66.53,1.66.53a2.63,2.63,0,0,0-1.24-.71l0-1,.4.62-.19-.79.73.89.36.54-.16-.94.52.87,0-.66.68.8.44.46-.09-.46.46.54-.09-.51c0-.41,0-.24,0-.24a.86.86,0,0,0,.22.51,1.05,1.05,0,0,1-.33.7l.34-.23h0L24.41,8c.39-.27.5-.37.82-.38l0,0h0v0a.33.33,0,0,1,0,.17.87.87,0,0,1-.46.64.81.81,0,0,1-.33.1h-.15v0l.15,0a1,1,0,0,0,.43,0,1.22,1.22,0,0,0,.82-.71.8.8,0,0,0,0-.18.44.44,0,0,1,.15.41l-.06.23a1,1,0,0,0-.22.51.89.89,0,0,0,.44.68c.22.16.4.29.59.45A10.17,10.17,0,0,1,28.55,12.08ZM27.19,9.72h0a.65.65,0,0,0,.21-.28l.18.12c.05,0,.11.09.12.13s0,.05,0,.14-.13.22-.18.32l-.37-.36,0,0Zm3.1,4.64a1,1,0,0,0-.26-.12l-.18,0a6.55,6.55,0,0,0-.37-1.05,10.76,10.76,0,0,0-.6-1.17A8.56,8.56,0,0,0,28,10.68l0,0a.36.36,0,0,0,.09-.21.33.33,0,0,0-.09-.21.58.58,0,0,0-.11-.1l-.12.1a.29.29,0,0,0-.07.16l-.06-.07a1.18,1.18,0,0,0,.4-.4.46.46,0,0,0,0-.15A.25.25,0,0,0,28,9.58a.64.64,0,0,0-.31-.15,1,1,0,0,0-.28,0h0a.44.44,0,0,0,0-.2A.23.23,0,0,0,27.26,9,.28.28,0,0,0,27,9l-.06,0,.06,0s.07,0,.07.06a.34.34,0,0,0,0,.08.86.86,0,0,0,0,.15.87.87,0,0,0-.05.31l-.34-.28a.31.31,0,0,0,.12-.05.35.35,0,0,0,.16-.16.21.21,0,0,0,0-.11A.2.2,0,0,0,27,9a.3.3,0,0,0-.15-.22.6.6,0,0,0-.27-.1h-.19l0-.07c.61-.39,2-.4,2-1.93.1-1.72-2-2.73-3.09-2.86a7.46,7.46,0,0,0-1.95,0,3.52,3.52,0,0,0-3.07-1.94c-2.51-.11-2.87.12-2.87.12a3.79,3.79,0,0,0-2.1-.1A3,3,0,0,0,13,4l1.39.4a2.83,2.83,0,0,0,.11.31,1.61,1.61,0,0,1,.27.86,1.29,1.29,0,0,1-.1.42,1.23,1.23,0,0,0-.15.48c0,.21.22.38.39.49h0l-.41,0-.55,0-.62,0-1.17,0h0c-.67-1,0-2.07.11-2.8s-2-1.55-4.51-1.8-2.88,1.1-2.88,1.1a2.28,2.28,0,0,0-1.29.75c-.61.67-.16,2-.21,2.89S1.64,8.72,1.64,8.72A5.35,5.35,0,0,0,3.1,8.29l-.54.84c.75-.27,1.38-.47,1.38-.47l-.63.47a3.82,3.82,0,0,0,1.8-1l-.24.44a1,1,0,0,0,.43-.31,5.11,5.11,0,0,0,.83.47A.76.76,0,0,1,6,9.13a.38.38,0,0,1-.18.13H5.71l-.17,0a6,6,0,0,0-1.49.21,2.13,2.13,0,0,0-.66.32,1.24,1.24,0,0,0-.41.46l-.65.89a1.9,1.9,0,0,0-.44,1s0,.08,0,.15l.05.12a.9.9,0,0,0,.28.24,3.11,3.11,0,0,0,.64.3,8.64,8.64,0,0,0,1,.26c-.17.15-.34.3-.52.43a3.46,3.46,0,0,1-.82.46,1.08,1.08,0,0,1-.21.05l-.12,0-.18,0a1.69,1.69,0,0,0-.52.26,2.37,2.37,0,0,0-.62.7,1.93,1.93,0,0,0-.19.38.49.49,0,0,0,0,.11.35.35,0,0,0,0,.07.21.21,0,0,0,0,.11v0h0s0,.1,0,.05h0l0,0L.78,16l.11.08a6.78,6.78,0,0,0,.93.48l.27.1.15.05.15,0a3.3,3.3,0,0,0,.6.08l.55,0c0,.11.12.26.32.35a2,2,0,0,0,.39.13l.21.05.25,0a1.87,1.87,0,0,0,.57,0,.94.94,0,0,0,.51-.28.77.77,0,0,0,.15-.49H6L7,16.52l.42,0a.29.29,0,0,0,0,.11.31.31,0,0,0,0,.21.58.58,0,0,0,.24.26,2.11,2.11,0,0,0,1,.19,5.46,5.46,0,0,0,.56,0A1.24,1.24,0,0,0,9.86,17,.51.51,0,0,0,10,16.5a.42.42,0,0,0,0-.16l1.07,0h.07l.05,0a.59.59,0,0,0,.21-.16l.08-.14a.89.89,0,0,0,.09-.26h0a1.32,1.32,0,0,0,.56,0,.82.82,0,0,0,.34-.16l.13-.11,0,0,.09.1.18.15.22.1.24.08a1.49,1.49,0,0,0,.52,0,1.87,1.87,0,0,0,.51-.11v0a3.14,3.14,0,0,0-.44-.18,3.06,3.06,0,0,0-.41-.1l-.41-.07-.22,0a.52.52,0,0,1-.2-.06l-.09-.07,0,.07a.35.35,0,0,1-.27.1,1.61,1.61,0,0,0-.31,0,2.13,2.13,0,0,0-.4.1c0-.09,0-.19,0-.28a4.43,4.43,0,0,0-.12-1,3,3,0,0,0-.15-.48c0-.08-.08-.16-.12-.24a1.7,1.7,0,0,0-.15-.22,1.15,1.15,0,0,0-.23-.21l-.05,0a.45.45,0,0,0,.11,0h0l.37-.06A3.47,3.47,0,0,1,12,13a5.12,5.12,0,0,1,.7.11l.32.09.32.1c.4.15.83.33,1.27.47l.86.25,0,.06a1.39,1.39,0,0,0,.21.27,2.42,2.42,0,0,0,.51.42,2.27,2.27,0,0,0,.65.27s-.18-.17-.4-.42-.21-.27-.32-.43a2.38,2.38,0,0,1-.24-.51,1.38,1.38,0,0,1-.08-.27c0-.09,0-.17,0-.26s0-.17,0-.25a1.79,1.79,0,0,1,0-.24,2.62,2.62,0,0,1,0-.35.75.75,0,0,0,0-.12l.18.12c.48.31,1,.61,1.49.91h0a2,2,0,0,0,.3.09,1.8,1.8,0,0,0,.32.06h.2a.35.35,0,0,0-.07.12.87.87,0,0,0,0,.58,1.55,1.55,0,0,0,.14.29,1.29,1.29,0,0,0,.15.17h-.05a1.42,1.42,0,0,0-.44-.06.65.65,0,0,0-.31.07.29.29,0,0,0-.18.25.34.34,0,0,0,.13.23l0,0a.3.3,0,0,0,0,.1.15.15,0,0,0,0,.15l.08.05-.15,0h-.2a.83.83,0,0,0-.49.19.22.22,0,0,0-.08.21c0,.06.05.1.11.13L16.8,16a.13.13,0,0,0,0,.16.26.26,0,0,0,.09.09l-.05.06a.2.2,0,0,0,0,.11.28.28,0,0,0-.06.08.22.22,0,0,0,.14.28l.15,0h0a.8.8,0,0,0,.39.15,1.32,1.32,0,0,0,.28,0L18,17c.29,0,.57,0,.85-.06a5.68,5.68,0,0,0,1.68.88,3,3,0,0,0,.55.14c.21,0,.4,0,.57,0,.36,0,.73,0,1.08.09s.71.11,1.06.18a6.36,6.36,0,0,0,1.09.15,6.64,6.64,0,0,0,1.83-.16.31.31,0,0,0,.24.1c.36,0,.64-.06,1-.1s.59-.07.92-.14a2.51,2.51,0,0,0,.85-.36,1.35,1.35,0,0,0,.46-.6,4.69,4.69,0,0,0,.18-1.27c0-.43.09-.84.11-1.28A.31.31,0,0,0,30.29,14.36Z"/><polygon class="cls-8" points="20.15 6.54 20.15 6.53 20.12 6.6 20.15 6.54"/><path class="cls-8" d="M5,16.43H4.9s-.07,0-.06,0,0,0,.07,0l.09,0s0,0,0,0,0,0,0-.09a.35.35,0,0,0,0-.07l0,0-.07-.05a.25.25,0,0,0-.18,0,.14.14,0,0,0-.08.05.13.13,0,0,0,0,.1s0,.06,0,.08,0,0-.08.07a.13.13,0,0,0-.06.18c0,.06.08.08.15.09a.47.47,0,0,0,.26-.05l0,0A1.28,1.28,0,0,1,5,16.47s0,0,0,0Z"/><path class="cls-8" d="M8.72,16.34s-.07,0-.06,0h.18s0,0,0,0a.77.77,0,0,0-.06-.15l0,0a.38.38,0,0,0-.24-.05s0,0-.06,0,0,.05,0,.09,0,.05,0,.07-.06,0-.09.06-.08.06-.08.1a.17.17,0,0,0,0,.1.2.2,0,0,0,.17.09.57.57,0,0,0,.25-.07l0,0,.06-.16s0,0,0,0,0,0-.13,0"/><path class="cls-8" d="M7.07,7c.58,0,.43-.36.43-.36l.24,0S8,6.43,7.5,6.42a3.45,3.45,0,0,0-1.17.25l.46,0s-.31.3.28.28"/><path class="cls-8" d="M9.79,6.31c-.44,0-.55.25-.55.25v.06c.06-.09.29-.12.29-.12-.25.2.16.35.4.2s0-.23,0-.23h.27s0-.19-.45-.17"/><path class="cls-8" d="M9.34,7.39c.33.07-.1.26-.1.26s.41-.12.34-.28S9,7.05,9.1,6.57s.6-.64,1.47-.56a1.66,1.66,0,0,0-1.4.08.79.79,0,0,0,.17,1.3"/><path class="cls-8" d="M8.59,8.5c.66,0,.62-.52.72-.54A14.87,14.87,0,0,0,7.67,8c-.29.08.26.48.92.48"/><path class="cls-8" d="M8,8.81c.29,0,.6-.12.3-.15s-.6.13-.3.15"/><path class="cls-8" d="M15.22,5.48c-.05.17.15.15.4.06s1,0,.55-.24a1.36,1.36,0,0,0-1.1,0s.21,0,.15.18"/><path class="cls-8" d="M17.81,5.61c.34.1,1.19.24,1.5.36s.07-.16,0-.35.67-.3-.82-.32c-.71,0-1,.2-.68.31"/><path class="cls-8" d="M18.3,7.26c.59-.15.47-.89,0-.68a2.74,2.74,0,0,1-1.38,0,1.18,1.18,0,0,0,1.38.68"/><path class="cls-8" d="M28.35,7.15S26.94,9.76,26,10.39,24,11.53,24,11.53a3.83,3.83,0,0,0,1.72-2.19c.46-1.55,2.61-2.19,2.61-2.19"/></svg>