<svg id="Capa_1" data-name="Capa 1" xmlns="http://www.w3.org/2000/svg" viewBox="0 0 32.84 29"><defs><style>.cls-1{fill:#231f20;}.cls-2{fill:#ffcc64;}.cls-3{fill:#fbc8ba;}.cls-4{fill:#b3d335;}.cls-5{fill:#0070a2;}.cls-6{fill:#f05050;}</style></defs><title>1-30meses</title><polygon class="cls-1" points="2.13 1.94 2.13 2.96 3.09 2.96 3.09 1.94 3.49 1.94 3.49 4.31 3.09 4.31 3.09 3.2 2.13 3.2 2.13 4.31 1.73 4.31 1.73 1.94 2.13 1.94"/><path class="cls-1" d="M5,3.43H5c-.2,0-.68,0-.68.39a.28.28,0,0,0,.3.31A.35.35,0,0,0,5,3.87a.31.31,0,0,0,0-.09Zm.06.88,0-.18H5a.62.62,0,0,1-.49.21.53.53,0,0,1-.59-.49c0-.42.49-.61,1.05-.62v0C5,3,4.9,2.8,4.59,2.8a1,1,0,0,0-.41.08l-.09-.19a1.48,1.48,0,0,1,.58-.11c.5,0,.71.23.71.61v.73a1.63,1.63,0,0,0,0,.39Z"/><path class="cls-1" d="M7.14,4.27a1.32,1.32,0,0,1-.41.06.81.81,0,0,1-.9-.86.88.88,0,0,1,1-.88,1,1,0,0,1,.35.05l-.08.22a.77.77,0,0,0-.28,0,.59.59,0,0,0-.57.66.56.56,0,0,0,.58.64.88.88,0,0,0,.29-.05Z"/><path class="cls-1" d="M8.5,3.28h0c0-.34-.18-.49-.37-.49s-.39.26-.4.49Zm-.78.2c0,.52.31.64.59.64a1.08,1.08,0,0,0,.41-.07l.06.2a1.71,1.71,0,0,1-.54.08.8.8,0,0,1-.9-.85.82.82,0,0,1,.83-.9.68.68,0,0,1,.71.75v.15Z"/><path class="cls-1" d="M10.5,3.68h0a.53.53,0,0,0,0,.14.37.37,0,0,0,.37.29c.32,0,.43-.31.43-.65s-.13-.65-.44-.65a.39.39,0,0,0-.36.31.57.57,0,0,0,0,.13Zm-.4-.54c0-.26,0-.41,0-.53h.36l0,.22h0A.61.61,0,0,1,11,2.58c.43,0,.72.32.72.88a.77.77,0,0,1-.77.88.5.5,0,0,1-.43-.2h0V5h-.4Z"/><path class="cls-1" d="M13.63,3.85c0,.19,0,.33,0,.46h-.35l0-.18h0a.78.78,0,0,1-.54.21c-.43,0-.6-.23-.6-.66V2.61h.39v1c0,.26.07.46.34.46a.35.35,0,0,0,.37-.38V2.61h.39Z"/><path class="cls-1" d="M15.24,3.28h0c0-.34-.18-.49-.37-.49s-.39.26-.4.49Zm-.78.2c0,.52.3.64.59.64a1.12,1.12,0,0,0,.41-.07l.06.2a1.75,1.75,0,0,1-.54.08.8.8,0,0,1-.9-.85.82.82,0,0,1,.83-.9.68.68,0,0,1,.71.75.62.62,0,0,1,0,.15Z"/><path class="cls-1" d="M16,3.05c0-.2,0-.3,0-.44h.35l0,.2h0A.71.71,0,0,1,17,2.58a.54.54,0,0,1,.59.59V4.31h-.39V3.21c0-.2-.06-.4-.34-.4a.37.37,0,0,0-.38.28.66.66,0,0,0,0,.15V4.31H16Z"/><path class="cls-1" d="M18.57,2.16v.45H19v.21h-.47v1c0,.23.11.29.26.29H19v.2a1.07,1.07,0,0,1-.29,0,.69.69,0,0,1-.39-.1c-.1-.08-.15-.19-.15-.43v-1h-.3V2.61h.3V2.24Z"/><path class="cls-1" d="M20.4,3.28h0c0-.34-.18-.49-.36-.49s-.39.26-.41.49Zm-.77.2c0,.52.3.64.58.64a1.08,1.08,0,0,0,.41-.07l.07.2a1.77,1.77,0,0,1-.55.08.8.8,0,0,1-.9-.85.82.82,0,0,1,.84-.9.68.68,0,0,1,.7.75v.15Z"/><path class="cls-1" d="M21.14,4a1,1,0,0,0,.4.09c.23,0,.36-.1.36-.25s-.06-.22-.31-.33-.5-.29-.5-.49.3-.47.68-.47a1.27,1.27,0,0,1,.45.09l-.11.2a.81.81,0,0,0-.33-.07c-.21,0-.32.1-.32.21s.06.18.31.3.51.28.51.51-.34.51-.75.51a1.15,1.15,0,0,1-.49-.1Z"/><path class="cls-1" d="M24.59,3.26h0a.49.49,0,0,0,0-.12.38.38,0,0,0-.36-.33c-.33,0-.44.32-.44.66s.13.64.42.64a.36.36,0,0,0,.37-.29.36.36,0,0,0,0-.11ZM25,1.88v2c0,.12,0,.31,0,.41h-.34l0-.21h0a.62.62,0,0,1-.52.24c-.42,0-.72-.32-.72-.87s.36-.89.75-.89a.52.52,0,0,1,.45.21h0V1.88Z"/><path class="cls-1" d="M26.59,3.28h0c0-.34-.18-.49-.37-.49s-.39.26-.41.49Zm-.78.2c0,.52.3.64.59.64a1.16,1.16,0,0,0,.41-.07l.06.2a1.77,1.77,0,0,1-.55.08.8.8,0,0,1-.9-.85.82.82,0,0,1,.84-.9.68.68,0,0,1,.7.75v.15Z"/><path class="cls-1" d="M28.15,4a1.36,1.36,0,0,0,.48.09c.34,0,.57-.17.57-.45s-.27-.47-.67-.47h-.09V3h.07c.24,0,.6-.12.6-.41s-.18-.35-.44-.35a1,1,0,0,0-.41.11l-.09-.2a1.3,1.3,0,0,1,.6-.13c.47,0,.74.23.74.53s-.18.42-.5.53h0a.62.62,0,0,1,.58.59c0,.38-.34.68-.95.68a1.58,1.58,0,0,1-.58-.11Z"/><path class="cls-1" d="M2.91,7.42a1.08,1.08,0,0,1-.41.07.82.82,0,0,1-.91-.86.89.89,0,0,1,1-.89,1.05,1.05,0,0,1,.35.06L2.84,6a.77.77,0,0,0-.28,0A.59.59,0,0,0,2,6.63a.56.56,0,0,0,.58.63.88.88,0,0,0,.29,0Z"/><path class="cls-1" d="M4.75,7c0,.19,0,.34,0,.47H4.43l0-.18h0a.73.73,0,0,1-.53.2c-.43,0-.6-.23-.6-.65V5.77h.39v1c0,.27.06.47.33.47A.36.36,0,0,0,4.34,7a.68.68,0,0,0,0-.15V5.77h.39Z"/><path class="cls-1" d="M5.69,6.87h0a.18.18,0,0,0,0,.1.39.39,0,0,0,.37.3c.31,0,.43-.29.43-.66S6.39,6,6.07,6a.41.41,0,0,0-.37.3.49.49,0,0,0,0,.12Zm-.41.6c0-.1,0-.3,0-.41V5h.39V6h0a.61.61,0,0,1,.52-.23c.39,0,.68.3.68.86s-.37.89-.75.89a.53.53,0,0,1-.49-.24h0l0,.22Z"/><path class="cls-1" d="M7.63,6.62h0c0,.28.07.66.43.66s.41-.4.41-.66S8.4,6,8.05,6s-.42.4-.42.66m1.24,0A.79.79,0,0,1,8,7.49a.77.77,0,0,1-.8-.87.8.8,0,0,1,.83-.88A.78.78,0,0,1,8.87,6.62Z"/><path class="cls-1" d="M9.24,7.19a1.28,1.28,0,0,0,.4.08c.22,0,.36-.09.36-.24s-.07-.22-.32-.34-.49-.28-.49-.48.29-.47.68-.47a1,1,0,0,1,.44.09l-.1.2A.84.84,0,0,0,9.88,6c-.22,0-.32.1-.32.21s.06.18.3.3.51.28.51.51-.33.51-.74.51a1.15,1.15,0,0,1-.49-.1Z"/><path class="cls-2" d="M.4,20.54s4.53,4.84,14,6.49S28.5,25.46,28.5,25.46Z"/><path class="cls-3" d="M9.76,19.4s-.76-.62-.39-.89A6.29,6.29,0,0,0,10,18a6.49,6.49,0,0,1,1.17-.72,6.3,6.3,0,0,1,1.07.33s.19-.22.5.12a2.06,2.06,0,0,1,.4.77l2.21,1.29.05.66.92-.79.68-.41s-2.06-.58-2-1.42.52-1.88-1.06-2.94,5.05-3,5.15-3,3,2,3.15,2,2,1.33,1.91,1.81a5.87,5.87,0,0,1-1.7,2.55s2.86,2.1,3.37,4.11A5.59,5.59,0,0,1,26,25.18l-3.28-.44s-2.34,1.33-3.92.9A13.73,13.73,0,0,1,15,23.3s-2.78-.57-2.85-1.38S9.76,19.4,9.76,19.4"/><polygon class="cls-4" points="7.67 20.87 7.67 23.57 10.33 24.38 10.33 21.41 7.67 20.87"/><polygon class="cls-4" points="14.63 23.06 14.63 25.16 16.73 24.76 14.63 23.06"/><polygon class="cls-4" points="11.93 19.68 14.85 18.93 12.13 18.23 9.45 18.99 11.93 19.68"/><path class="cls-5" d="M12.15,19.57v.69l.61.67s-.21-1.44.13-1.45.53.1.61.3.13,1.15.73,1.15-.23-.73-.06-1.1a.82.82,0,0,1,.61-.42v-.56Z"/><polygon class="cls-5" points="12.02 21.87 10.33 21.41 10.33 24.25 12.02 23.78 12.02 21.87"/><path class="cls-6" d="M8.07,20.87l1.46-.41-.09-1.37,2.71.48.21,2.08h-.49Z"/><path class="cls-6" d="M12.18,21.92l0,2.56,2.63.68-.12-2s-2.32-.26-2.48-1.22"/><path class="cls-1" d="M18.29,16c.54-.35,2.77.32,2.77.32a4.25,4.25,0,0,0-2.13-.57c-1,.09-.82.4-.82.4Z"/><path class="cls-1" d="M19,16.24c-.43,0-.35.18-.35.18l.22,0a.42.42,0,0,1,0,.17c0,.12.36.21.64.09s.09-.25.09-.25h.77A12,12,0,0,0,19,16.24"/><path class="cls-1" d="M16.19,16.52c-.35,0-.87,0-.72.22a.87.87,0,0,1,.33-.14c.11,0-.09.06,0,.18a.4.4,0,0,0,.5.11c.23-.09-.19-.27.23-.23,0,0,0-.1-.36-.14"/><path class="cls-1" d="M19.07,18.4a1.13,1.13,0,0,0,.77-.55s-.54.16-1.21.31a5.79,5.79,0,0,1-1.54,0c.24.05.23.21.5.35a2.41,2.41,0,0,0,1.48-.15"/><path class="cls-1" d="M21.8,17.25l0,0,0,0"/><path class="cls-1" d="M22.85,16.64a.25.25,0,0,1,0,.32.08.08,0,0,0,0,.13.26.26,0,0,0,.15.07.53.53,0,0,0,.28,0c.09,0,.14-.12.13-.16a.23.23,0,0,0-.07-.11.22.22,0,0,0-.09-.06h0v.08a.17.17,0,0,1,0,.07l-.05,0H23S23,17,23,17s0,0,0,0,0-.24.05-.36,0-.14,0-.17,0,0,0,0l.1-.05.16-.13.09-.1s0,0,0,0l.07.06.06.07h0a.15.15,0,0,0,0-.08.17.17,0,0,0,0-.11.18.18,0,0,0-.14-.07.57.57,0,0,0-.16,0,.83.83,0,0,0-.17.11l-.14.11-.08.07s-.1.09-.08.14a.68.68,0,0,0,.09.17"/><path class="cls-1" d="M22.46,24.61h0c-.18.11-.37.2-.56.3a6.39,6.39,0,0,1-.6.26,5,5,0,0,1-.61.22,3.88,3.88,0,0,1-.64.14,2.69,2.69,0,0,1-.32,0H19.4a3.36,3.36,0,0,1-.63-.13,4.44,4.44,0,0,1-.61-.22,5.77,5.77,0,0,1-.56-.27l-.53-.32a5.5,5.5,0,0,1-.5-.34,8.78,8.78,0,0,1-.86-.71.51.51,0,0,0-.23-.29,1.38,1.38,0,0,0-.39-.18,2.64,2.64,0,0,0-.4-.12l-.37-.06a3.85,3.85,0,0,1-1.19-.52l-.24-.16-.15-.45c-.08-.23-.16-.47-.22-.7l-.08-.36a.06.06,0,0,1,0,0l.06.08c.14.22.27.45.4.67l.24,0a4.58,4.58,0,0,1-.31-1.29,1.05,1.05,0,0,1,0-.31.45.45,0,0,1,.06-.14l0-.05.11,0a.23.23,0,0,1,.23.14,1.6,1.6,0,0,1,.13.3,3.41,3.41,0,0,0,.22.66A.72.72,0,0,0,14,21l.12,0,.15,0a.45.45,0,0,0,.19-.05.23.23,0,0,0,.08-.11,4.79,4.79,0,0,0,0-.68,1.08,1.08,0,0,1,0-.31.65.65,0,0,1,.12-.25h0s0,0,0,0l.13.08a2,2,0,0,1,.26.24,4.49,4.49,0,0,1,.37.52.59.59,0,0,0,.07.24l0-.05a2.73,2.73,0,0,1,.22.46c.08.18.06.42.15.66A.48.48,0,0,0,16,22a.66.66,0,0,0,.28.16l.45.13.89.24,1.8.49,0,0h0a.9.9,0,0,0,.4-.12l.25-.16a3.33,3.33,0,0,0,.39-.35c.24-.24.42-.51.62-.74a3.94,3.94,0,0,1,.75-.65,3.81,3.81,0,0,1,1-.49l0,0a3.88,3.88,0,0,0-1.09.43,3.71,3.71,0,0,0-.85.64c-.24.24-.43.49-.68.71a2.79,2.79,0,0,1-.38.3l-.22.13-.14,0-1.7-.5L16.9,22l-.43-.14c-.06,0-.08,0-.09,0a.21.21,0,0,1-.06-.1c-.08-.18-.06-.4-.16-.64a4,4,0,0,0-.34-.65l0,0,.08-.09.23-.22a3.4,3.4,0,0,1,.49-.38l.2-.11.34.1a7.54,7.54,0,0,0,.81.12h0l.17.07a.63.63,0,0,1,.28.23c.05.09,0,.22-.11.29l-.17.12a1.21,1.21,0,0,0,.22-.08c.13,0,.31-.17.32-.35a.38.38,0,0,0-.08-.26l.46,0,.24,0,.22,0,.45-.09a5.64,5.64,0,0,0,.85-.28,5.72,5.72,0,0,0,.74-.38,5.32,5.32,0,0,0,.65-.45l.22-.19.21.24c.17.18.43.43.75.72.16.15.32.31.52.47s.41.33.61.5a2.44,2.44,0,0,1,.52.6,3.11,3.11,0,0,1,.31.7c.08.24.13.48.2.71s.12.46.16.69.07.44.11.64,0,.4.08.58c0,.35.07.64.08.85l-3-.46a14.64,14.64,0,0,0,1.6-1.27l0,0a18,18,0,0,1-1.88,1.24h0v0a1.18,1.18,0,0,1-.19.11M15,25h0L14.7,25a1.19,1.19,0,0,0,.14-.27,1.85,1.85,0,0,0,.12-.62,2,2,0,0,0-.12-.62v0h0a.9.9,0,0,1,.24.11l.07.06s0,.05,0,0l.05.13a10.38,10.38,0,0,0,1,.78l.37.25Zm-2.63-.62h0c0-.41,0-.82,0-1.23l0-.87c.14.12.29.23.44.34a4.43,4.43,0,0,0,1.39.61l.43.09s0,.07-.05.1a2,2,0,0,0-.11.62,1.86,1.86,0,0,0,.11.62,1.11,1.11,0,0,0,.14.26L13.6,24.7ZM8.48,20.89h0l.11,0a3.25,3.25,0,0,0,.72-.22,1.08,1.08,0,0,0,.22-.12c0,.18,0,.35,0,.52L9.05,21Zm1-1.9h0a.51.51,0,0,0,0-.13.88.88,0,0,1,.1-.27l.1-.1a.23.23,0,0,1,.13-.07l0,0s0,0,0,0l.06,0h.15a1,1,0,0,1,.31.11l.2.12c-.34.11-.67.22-1,.35a13.37,13.37,0,0,0,1.45-.17l1.32-.26a19.6,19.6,0,0,0,2.21.39c-.43.08-.85.18-1.27.27l-1.3.31c-.78-.18-1.56-.32-2.36-.45Zm.82-1.06h0a.46.46,0,0,1,.23,0l.15,0,.1,0h0l.05,0,.37.13.33.11.06,0-.67.18-.2.06a.59.59,0,0,0-.08-.2.7.7,0,0,0-.41-.3l-.13,0A.48.48,0,0,1,10.27,17.93Zm.7-.36h0a1.29,1.29,0,0,1,.61.14l.18.08.16.08.27.16.14.1h0l-.47.11a.49.49,0,0,0-.07-.11.86.86,0,0,0-.28-.24,2.22,2.22,0,0,0-.41-.19H11l0,0h0l-.11,0-.19,0A1.21,1.21,0,0,1,11,17.57Zm1.36.08h0a.32.32,0,0,1,.13.1s0,.05.06.07l0,0,0,.06.27.32-.37-.1a.34.34,0,0,0,0-.21.7.7,0,0,0-.2-.28l0,0A.2.2,0,0,1,12.33,17.65Zm.35,2.86h0l-.11-.18a.75.75,0,0,0-.18-.19l-.05,0a.16.16,0,0,0-.1,0,.25.25,0,0,0-.17.07s0,.07,0,.09a.45.45,0,0,0,0,.11,2.43,2.43,0,0,0,0,.38c0,.12,0,.24.06.36a1.46,1.46,0,0,1,.05.2h0l-.09-.06-.17-.06a.43.43,0,0,0-.15,0,.24.24,0,0,0-.12,0s0,0,0,.06,0,.09,0,.11a.62.62,0,0,0,0,.1l0,0-1-.2v-.12l-.22,0-.68-.11c0-.3,0-.61,0-.91s0-.59.06-.88c.73.18,1.45.36,2.19.5h.16l.63-.18a.46.46,0,0,0-.07.14,1.34,1.34,0,0,0,0,.34A2.85,2.85,0,0,0,12.68,20.51Zm1.66-1.05h0a.26.26,0,0,0-.08.11.14.14,0,0,0,0,.09.48.48,0,0,0-.05.17,1.37,1.37,0,0,0,0,.35,4.19,4.19,0,0,1,.1.64c0,.05,0,0,0,0a.15.15,0,0,1-.09,0l-.08,0a.47.47,0,0,1-.24-.22,4.8,4.8,0,0,1-.24-.63,1.56,1.56,0,0,0-.14-.33.36.36,0,0,0-.15-.15l0,0,.21-.06L14.66,19c0,.12,0,.23.05.35A.51.51,0,0,0,14.34,19.46Zm1.51-.73h0a2.26,2.26,0,0,1-.5-.47l-.07-.12s0-.07,0-.13v0s0,0,0,0v-.08c0-.06,0-.11,0-.16a4.37,4.37,0,0,0-.15-1.25,2.29,2.29,0,0,0-.09-.28,1.59,1.59,0,0,1,1.11,0c.4.23.84.51.63.94s-.33.52,0,.63.4.18.73,0c0,0-.68,0-.66-.32s.32-.54,0-1A1.49,1.49,0,0,0,15,16.1a1.86,1.86,0,0,0-.1-.25l-.09-.18h0l0,0a1.59,1.59,0,0,0-.27-.37l-.26-.3,1.52.68-.88-.92,1.72.86L16,15.21l1.47.33-.71-1,1.46.86-.48-.55.93.53-.56-.91,1.67.92-1.29-1.29,2.19,1-.63-.79a3.39,3.39,0,0,1,1.66,1.48,1.91,1.91,0,0,1,.05,1.49l.37-.74.07.47a.86.86,0,0,0,.34-.69s.49-.59.94-.48.27.58.07,1a3.48,3.48,0,0,1-.52.57h0a4.64,4.64,0,0,1-1,1,4.88,4.88,0,0,1-.66.41,6.11,6.11,0,0,1-.74.32,4.63,4.63,0,0,1-.81.22,1.84,1.84,0,0,1-.42.07l-.22,0-.21,0a6,6,0,0,1-.85,0,4.63,4.63,0,0,1-.83-.13,3.74,3.74,0,0,1-.76-.24A4.26,4.26,0,0,1,15.85,18.73ZM26.16,25a3,3,0,0,0,.1-.38,2.48,2.48,0,0,0,.08-.51,4.2,4.2,0,0,0,0-.61,3.39,3.39,0,0,0-.12-.67,4.83,4.83,0,0,0-.24-.7,4.35,4.35,0,0,0-.38-.7l-.86-1.34a4.6,4.6,0,0,0-1-1.06,8.61,8.61,0,0,0-1.26-.82,5.32,5.32,0,0,0,.48-.47l0,.53.18-.52.14.42.31-.88.16.46s.36-1.18.47-1.63a2.85,2.85,0,0,0-.07-2.8c-.8-1.5-3.46-2.78-5.79-2.57s-3.18.66-4,1.34-1.34,1.78-.62,2.6a4.7,4.7,0,0,0,.94.89,2.47,2.47,0,0,1,.3.85,3.57,3.57,0,0,1,0,1.22.8.8,0,0,1,0,.15l0,.07s0,0,0,.05v0a.68.68,0,0,0,0,.19c0,.06,0,.11.07.16a2.1,2.1,0,0,0,.51.57,3.83,3.83,0,0,0,.71.43l.29.12h-.1a1.8,1.8,0,0,0-.41.11,1.52,1.52,0,0,0-.38.24.84.84,0,0,0-.15.18l-.18-.2a2.31,2.31,0,0,0-.33-.28,1.12,1.12,0,0,0-.22-.11c0-.16.05-.32.07-.48H15l-.12-.05v-.05l-.08,0a14.82,14.82,0,0,0-1.59-.53.14.14,0,0,0,0-.07.68.68,0,0,0-.14-.5L13,17.69,13,17.62a.56.56,0,0,0-.17-.11.83.83,0,0,0-.43-.07.57.57,0,0,0-.24.09h0l-.21-.12a1.53,1.53,0,0,0-.54-.12,1,1,0,0,0-.49.09.53.53,0,0,0-.22.18.13.13,0,0,0,0,.07h-.06a.72.72,0,0,0-.5.18A.26.26,0,0,0,10,18H9.74l-.06,0-.09,0-.08,0a.71.71,0,0,0-.26.18.43.43,0,0,0-.13.22.53.53,0,0,0,.05.38.82.82,0,0,0,.26.29.41.41,0,0,0,0-.09v0c0,.35.06.69.07,1,0,.1,0,.2,0,.29l-.3,0a4.7,4.7,0,0,0-.79.08,3.59,3.59,0,0,0-.72.23l0,0-.25,0v.17h0c0,.22.05.45.07.68L.11,20.52,0,20.88,7.53,22l0,.28a6.69,6.69,0,0,1-.07,1.34v.06l.11,0c.43.15.86.3,1.3.42l1.35.34.1,0,.07,0c.47-.19.94-.39,1.39-.62l0,0c-.49.11-1,.24-1.45.39l-1.25-.38c-.41-.11-.84-.2-1.27-.29a6.65,6.65,0,0,1-.06-1.26c0-.39.06-.77.1-1.15l1.08.21c.37.08.74.15,1.12.21,0,.17,0,.33,0,.5l0,.65a11.6,11.6,0,0,0,.18,1.3h.05a11.64,11.64,0,0,0,.19-1.3l.05-.65c0-.16,0-.32,0-.48l1.26.35c0,.43,0,.85,0,1.28s0,.91,0,1.37v.14l.2,0c.48.1,1,.2,1.46.28s1,.19,1.47.27H15c.54-.15,1.07-.29,1.6-.45l.07.05c.18.11.37.23.57.33s.41.2.63.29a5.69,5.69,0,0,0,1.44.36h.39a1.8,1.8,0,0,0,.39,0,5,5,0,0,0,.74-.18,6.11,6.11,0,0,0,.64-.26c.21-.09.4-.2.6-.3l.44-.26h0l9,1.42.12-.36Z"/><path class="cls-1" d="M24.57,14.92s.09,4-1.41,4.76a6,6,0,0,0-2.27,2l-.55.69s-.31.35-.49.13A4,4,0,0,1,20.6,20c.48-.45,2-2,2.32-2.25a3.87,3.87,0,0,0,1.2-1.69,3.57,3.57,0,0,1,.45-1.17"/><path class="cls-1" d="M17,19.51a2.91,2.91,0,0,1-.13,1.31,10.33,10.33,0,0,1-.76,1l.76.26a3.52,3.52,0,0,0,1.08-1.29,4.4,4.4,0,0,0,.17-1.18Z"/></svg>