<svg id="Capa_1" data-name="Capa 1" xmlns="http://www.w3.org/2000/svg" viewBox="0 0 30.72 28.48"><defs><style>.cls-1{fill:#ffcc64;}.cls-2{fill:#b3d335;}.cls-3{fill:#f5a4c7;}.cls-4{fill:#fbc8ba;}.cls-5{fill:#231f20;}</style></defs><title>2-30meses</title><path class="cls-1" d="M16.35,21.87c-3.14-.06-12.6.35-9.91,2.45s16.7,3.47,19.28,3.47,6.4-3.15,2.48-4.16Z"/><path class="cls-2" d="M11.17,24.6l-.5.75,7.27-.43s.25.56,1.13.42L20,25.2l5.76,1.73,3-3.07s-1.11-.44-2.15-.74-13.07-.57-15.43,1.48"/><path class="cls-3" d="M18.79,24.61s-4-.65-4.72-.39a32.77,32.77,0,0,1-3.52.69l.78-.54-.78-.09s3.43-3.46,4.12-3.41,3.69-.49,4.37-.18,1.79.69,1.79.69,5.42.35,6.24.54,1.43.41,1.43.41l-.41.67.23.24-2.95,3.34A31.14,31.14,0,0,0,22,25.26Z"/><path class="cls-4" d="M20.07,21.13s.23-1.41.5-1.62a.67.67,0,0,0,.24-.57,6.28,6.28,0,0,1-1-.32c-.2-.12-.69-.45-.69-.45a1.75,1.75,0,0,0-.58.56c-.24.37-.81.71-1,.46a2.09,2.09,0,0,1-.23-.63s-.05.12-.49,0-.69,0-.85-.27a2.17,2.17,0,0,1,.53-1.69,1.92,1.92,0,0,1,1.69-.41,5.09,5.09,0,0,0,2.44.39,1.24,1.24,0,0,1-.22-.65c0-.34-.24-1.27-1.73-2.23s.43-1.52,1.73-2.35,3.85-.22,4.13-.16,3.13,1.8,2.62,2.71S26.13,16,26.13,16s-.38.59.64,1,1.63.78,1.65,1.68A3.12,3.12,0,0,1,27.25,21a9.14,9.14,0,0,1-1.39.76l-1.77.72a2.08,2.08,0,0,1-1.23.9c-.92.28-1.89.05-1.37,0a1.75,1.75,0,0,0,1.12-.46c.15-.23,0-.18,0-.18a3.32,3.32,0,0,1-1.33.41c-.56,0-.47-.13-.66-.22a.59.59,0,0,1-.34-.62.51.51,0,0,1,.29-.45c.07,0,.6-.35.41-.47s-.73.13-.95-.25"/><path class="cls-5" d="M22.94,13.74c-.8.22-.55.44-.55.44l.1-.15c.34-.35,2.35-.12,2.35-.12a4,4,0,0,0-1.9-.17"/><path class="cls-5" d="M25.73,14.61v0"/><path class="cls-5" d="M26.4,14a.19.19,0,0,1,.07.26s-.06.07,0,.12a.31.31,0,0,0,.15,0,.43.43,0,0,0,.23-.05c.08-.05.09-.12.06-.16a.22.22,0,0,0-.09-.08l-.09,0h0l0,.07s0,0,0,.06,0,0,0,0l-.08,0h0s0,0,0,0-.05-.2-.07-.31,0-.11,0-.13,0,0,0,0l.07-.06a.57.57,0,0,0,.1-.13l0-.09s0,0,0,0l.07,0,.07.05h0a.42.42,0,0,0,0-.07s0-.05-.06-.09a.2.2,0,0,0-.13,0,.32.32,0,0,0-.13.05.45.45,0,0,0-.12.12,1,1,0,0,0-.08.11l0,.06s-.06.1,0,.13a.79.79,0,0,0,.13.13"/><path class="cls-5" d="M23.36,15.92c-.57,0-.69.15-.69.15-.17.22.76,0,1,0s.29-.08-.29-.11"/><path class="cls-5" d="M20.8,14.73c-.44.06-.34.3-.34.3h.17s0,.12.34.11.14-.21.14-.21l.37.1a.73.73,0,0,0-.68-.3"/><path class="cls-5" d="M23.42,14.18c-.7,0-.75.37-.75.37l.35-.1c0,.21.55.47.78.27a.21.21,0,0,0,0-.36l.65.1a1.49,1.49,0,0,0-1-.28"/><path class="cls-5" d="M27,25.33h0l-1.07,1.06c.41-.46.81-.92,1.2-1.39s.75-.91,1.11-1.37l.37.22c-.55.49-1.09,1-1.61,1.48m-1.45,1.43ZM24.8,26h0a8.25,8.25,0,0,0-.86-.37,15.93,15.93,0,0,0-1.82-.55c-.63-.15-1.26-.27-1.9-.38l-.82-.13c.42,0,.85,0,1.26,0s.57,0,.86.06l.83.11.41.08.4.1.39.1.37.13.35.15a2.55,2.55,0,0,1,.33.17c.1.07.22.12.3.19l.27.21h0a.09.09,0,0,0,.06,0,.35.35,0,0,0,.36-.06l1.48-1.71,1-1.13.27.19c-.55.53-1.09,1.06-1.61,1.6s-.93,1-1.38,1.47l-.12-.08C25.08,26.15,24.94,26.09,24.8,26ZM14.35,24.2h0c-.66,0-1.31.1-2,.19-.33,0-.65.09-1,.16l-.49.1.4-.28c.43-.08.86-.15,1.3-.21s.71-.09,1.07-.12.71-.06,1.07-.07h1.07l.53,0,.53.05a4.17,4.17,0,0,1,.51.08l.5.1.47.15.2.1-.29,0A23.43,23.43,0,0,0,14.35,24.2ZM12.6,22.84h0l1-.84.9-.81c.95-.13,1.91-.24,2.86-.34a8,8,0,0,1,1.46-.06,3.32,3.32,0,0,1,.7.13,1.69,1.69,0,0,1,.59.28h0a.58.58,0,0,0,.15.12l.11.05.21.09.4.13-.3.18a2.49,2.49,0,0,0-.31.23.67.67,0,0,0-.14.15l-.06.1a.41.41,0,0,0,0,.16v.05l0,0h0l0,0s0,0,0,0l-.15.11a4.06,4.06,0,0,0-.58.59,2.89,2.89,0,0,0-.38.66,1.15,1.15,0,0,0-.09.33,2.27,2.27,0,0,0,.35-.23,3.57,3.57,0,0,0,.57-.59,3.08,3.08,0,0,0,.27-.44v0h0s.06.07,0,0h.06a.63.63,0,0,0,.43.05h0l.06.07.14,0h.09l.12,0h.21a2.77,2.77,0,0,0,.74-.19,4,4,0,0,0,.51-.25.09.09,0,0,1,0,.08.58.58,0,0,1-.21.13,3.51,3.51,0,0,1-.6.18l-.32,0a.24.24,0,0,0-.22.08c0,.1.08.13.12.16a2.13,2.13,0,0,0,.7.11,2,2,0,0,0,.35,0,2,2,0,0,0,.35-.06,2.22,2.22,0,0,0,.61-.24,3.94,3.94,0,0,0,.9-.7c.46-.17.91-.35,1.35-.55l.44-.2a6.53,6.53,0,0,1,1.07.21,7,7,0,0,1,1.06.38c-.51.52-1,1-1.5,1.57l-1.36,1.46-.06,0a1.66,1.66,0,0,0-.34-.22c-.12-.07-.24-.14-.37-.2l-.39-.17-.42-.14-.42-.11-.44-.1c-.14,0-.29-.06-.44-.07s-.59-.08-.89-.11l-.89-.05a14.16,14.16,0,0,0-1.72,0l-.4-.18L18,24c-.18,0-.37-.06-.55-.09a4.87,4.87,0,0,0-.55-.06,4.93,4.93,0,0,0-.55,0h-.55c-.36,0-.72,0-1.09.05s-.72.05-1.08.09-.71.08-1.07.12c-.6.08-1.19.17-1.78.27Zm8-.55Zm5.24-6.36h0a4,4,0,0,1-.52.36,3.1,3.1,0,0,1-.58.28,2.53,2.53,0,0,1-.33.12l-.17,0-.16,0a4.13,4.13,0,0,1-.69.11,4.21,4.21,0,0,1-.71,0,4.1,4.1,0,0,1-.69-.1,3.4,3.4,0,0,1-.64-.2,2.52,2.52,0,0,1-.54-.3l-.09-.09a.24.24,0,0,1-.06-.1c0-.06,0-.17-.07-.25a4.45,4.45,0,0,0-.5-1l-.15-.22a1.29,1.29,0,0,1,.9-.16c.39.14.83.3.78.68s-.11.47.17.52.38.09.61-.07c0,0-.55.09-.63-.17s.11-.48-.29-.83a1.31,1.31,0,0,0-1.59,0l-.15-.19-.13-.12h0a1.88,1.88,0,0,0-.34-.28l-.29-.2,1.43.34-1-.62L21,14l-.6-.23,1.29.07-.86-.7,1.44.49-.55-.38.91.31L22,12.85l1.63.52-1.43-.87,2.07.48-.75-.56a3.72,3.72,0,0,1,1.79,1,1.71,1.71,0,0,1,.47,1.21l.08-.65.2.36a.59.59,0,0,0,.07-.6s.23-.55.63-.52.38.41.36.78a2.1,2.1,0,0,1-.28.56v0a3.21,3.21,0,0,1-.56.95A3.33,3.33,0,0,1,25.81,15.93Zm2.92,7.87-.5-.22c.09-.1.17-.21.25-.31h0s0,0,0-.06l-.38-.2.45-.53h0c0-.05,0-.1-.05-.13A8,8,0,0,0,27.21,22a7.09,7.09,0,0,0-1-.14,7,7,0,0,0,.77-.4,3.55,3.55,0,0,0,.57-.43A3.22,3.22,0,0,0,28,20.5a3.7,3.7,0,0,0,.55-1.06,1.92,1.92,0,0,0,.05-1.14,2,2,0,0,0-.81-1,2.74,2.74,0,0,0-.66-.34c-.23-.1-.48-.17-.69-.26a.47.47,0,0,1-.27-.44,1.25,1.25,0,0,1,0-.38,3.4,3.4,0,0,0,.25-.31,3.3,3.3,0,0,0,.4-.67l.19.41v-.45l.25.33v-.76l.27.35s-.06-1-.09-1.39a2.63,2.63,0,0,0-.87-2.28,6.43,6.43,0,0,0-5.48-1.3c-1.84.49-2.4,1-2.84,1.63a1.53,1.53,0,0,0,.24,2.21,5.42,5.42,0,0,0,1,.59,2.56,2.56,0,0,1,.5.66,3.72,3.72,0,0,1,.35,1c0,.09,0,.15,0,.26a.36.36,0,0,0,.06.15,1.27,1.27,0,0,1,.11.13l.15.12-.69-.1c-.32-.07-.62-.15-.94-.24a4.59,4.59,0,0,0-1-.2,2.44,2.44,0,0,0-1.09.19,2.26,2.26,0,0,0-.44.22,1.82,1.82,0,0,0-.38.29,1.15,1.15,0,0,0-.32.73,1.24,1.24,0,0,0,.17.72.79.79,0,0,0,.31.32,1.25,1.25,0,0,0,.49.18h0l.11,0a.48.48,0,0,0,.24,0l.1,0h0a.33.33,0,0,0,.15.13l0,0h0a.44.44,0,0,0,.06.23.36.36,0,0,0,.12.14.26.26,0,0,0,.13.06l0,0h.11a.53.53,0,0,0,.33-.08l.13-.1a1.78,1.78,0,0,0,.24-.37l.06-.15h.13a.52.52,0,0,0,.15-.06.39.39,0,0,0,.11-.06,1.09,1.09,0,0,0,.17-.13l.07-.07a.59.59,0,0,0,.12.21,1.56,1.56,0,0,0,.51.37,1.6,1.6,0,0,0,.37.12l.25,0a2.38,2.38,0,0,0-.18.3c-.06.1-.09.21-.14.31a2.63,2.63,0,0,0-.09.3,1.37,1.37,0,0,0-.05.28,1.18,1.18,0,0,0,0,.26,1.75,1.75,0,0,0,.05.38l0,.14.07-.14c0-.09.08-.21.15-.36a11.2,11.2,0,0,1,.48-1.05c.09-.19.2-.38.3-.55l.29-.48.3-.47a2.63,2.63,0,0,0-.55.37,3.89,3.89,0,0,0-.49.5l-.2-.1-.29-.14a5.5,5.5,0,0,0-.59-.23,2.33,2.33,0,0,0-.31-.08,1,1,0,0,0,.28-.53.74.74,0,0,0,0-.33.84.84,0,0,0-.2-.29h0a.61.61,0,0,1,.08.59,1.14,1.14,0,0,1-.4.51l-.15.09-.08,0h0c.07-.22.12-.43.18-.65h0c0-.09-.06-.17-.17-.19a.24.24,0,0,0-.28.12h0c-.08.23-.17.46-.25.7a.49.49,0,0,1,0,.07l0,.09-.08.16a1,1,0,0,1-.11.17v-.14a.36.36,0,0,1,0-.1,1,1,0,0,0,.07-.15,1.53,1.53,0,0,0,.07-.47c0-.07-.07-.14-.18-.16a.25.25,0,0,0-.3.12h0a2.33,2.33,0,0,0-.11.31,1.09,1.09,0,0,0-.05-.17.71.71,0,0,0-.14-.23.2.2,0,0,0-.16-.06c-.09,0-.17.06-.16.12v0a2.14,2.14,0,0,0,.07.43,1.17,1.17,0,0,0,.06.2h0l-.06,0,0,0a.16.16,0,0,1-.16,0l-.05-.05c-.07-.19-.15-.37-.22-.56a.08.08,0,0,0-.08-.05c-.05,0-.08,0-.08.07a1.5,1.5,0,0,0,.12.45.93.93,0,0,0,.05.1.86.86,0,0,1-.19-.11.54.54,0,0,1-.21-.27,1.12,1.12,0,0,1-.05-.65,1.14,1.14,0,0,1,.33-.58,1.48,1.48,0,0,1,.3-.23l.37-.19A2,2,0,0,1,18,16.3a5.3,5.3,0,0,1,.94.13c.32.07.66.14,1,.18a5.79,5.79,0,0,0,.83,0,2.33,2.33,0,0,0,.34.2,3.83,3.83,0,0,0,.72.27,4.07,4.07,0,0,0,.79.12,4.69,4.69,0,0,0,1.59-.17l.19-.05.17-.07a1.56,1.56,0,0,0,.33-.14A3.93,3.93,0,0,0,26,16v0a1.17,1.17,0,0,0,0,.26.55.55,0,0,0,.29.54c.23.12.46.2.67.3a3.16,3.16,0,0,1,.58.33,1.85,1.85,0,0,1,.65.91,1.25,1.25,0,0,1,0,.51,1.89,1.89,0,0,1-.12.51,3.56,3.56,0,0,1-.54,1,3.94,3.94,0,0,1-.38.45,3.44,3.44,0,0,1-.5.38,21.21,21.21,0,0,1-2.52,1.28h0l0,0a3.13,3.13,0,0,1-.82.7,2.09,2.09,0,0,1-.55.24l-.31,0h-.33a1.7,1.7,0,0,1-.61-.09s0-.05,0,0,0,0,.07,0a1.87,1.87,0,0,0,.35,0,3.57,3.57,0,0,0,.66-.18,1,1,0,0,0,.28-.18.2.2,0,0,0,0-.29h0a.14.14,0,0,0-.15,0,5.46,5.46,0,0,1-.6.27,2.45,2.45,0,0,1-.64.14h-.24a3.47,3.47,0,0,1,.62-.19l.07,0h0l.53-.39c.07-.05.08-.12,0-.17a.26.26,0,0,0-.28,0h0a7.49,7.49,0,0,1-.81.38,3.52,3.52,0,0,1-.42.15l-.15,0s0,0,.06-.05l.28-.21.16-.07a5.22,5.22,0,0,0,.66-.39h0a.15.15,0,0,0,0-.24.34.34,0,0,0-.35,0c-.21.11-.4.22-.59.34l-.05,0-.16.07,0,0A1.26,1.26,0,0,1,21,22a4.93,4.93,0,0,1,.6-.34h0a.14.14,0,0,0,.09-.08c.05-.09,0-.19-.15-.23l-.24-.07a4.1,4.1,0,0,0,1.16,0,2.56,2.56,0,0,0,.46-.12l.39-.17.73-.36c.47-.24.92-.5,1.37-.76h0a.08.08,0,0,0,.05-.08,6.39,6.39,0,0,1,.05-1.07,3.16,3.16,0,0,1,.13-.53,2,2,0,0,1,.13-.25.78.78,0,0,1,.23-.21l0,0a.73.73,0,0,0-.27.21,1.44,1.44,0,0,0-.18.25,3.93,3.93,0,0,0-.2.54,4.58,4.58,0,0,0-.15,1l-1.37.68-.72.33-.36.14a1.89,1.89,0,0,1-.36.09,3,3,0,0,1-.79,0c-.27,0-.55-.08-.88-.1H20.3a.57.57,0,0,0-.16.07.2.2,0,0,0-.08.12.07.07,0,0,0,0,.05,2.58,2.58,0,0,0-1.25-.48,4.9,4.9,0,0,0-.77,0l-.76,0c-1,.05-2,.15-3,.27a.29.29,0,0,0-.13.05h0l-1,.85-1,.85L10.42,24.4h0a.06.06,0,0,0,0,.07.15.15,0,0,0,.15.05c.18-.05.38-.08.57-.12l-.69.35a.07.07,0,0,0,0,.08c0,.05.07.08.14.07h0l.95-.14,1-.11c.64-.06,1.28-.11,1.93-.15s1.29-.07,1.93-.07c.33,0,.65,0,1,0s.65,0,1,.07c.63.09,1.27.2,1.89.34s1.22.31,1.81.48l.88.28c.29.1.57.2.85.32a8,8,0,0,1,.79.36l.36.2.17.11L22.81,26c-.94-.27-1.9-.51-2.86-.77,0,0,0,0,0,0a.18.18,0,0,0-.17-.07l-.17,0-.29.09-.26.09a1.09,1.09,0,0,1-.26,0,1.17,1.17,0,0,1-.5-.15,1.25,1.25,0,0,1-.37-.3.12.12,0,0,0-.09,0h0c-1.23.05-2.47.06-3.69.15-.61.05-1.22.09-1.83.15l-1.66.16.28-.47,0,0c-.17.18-.33.37-.49.55a0,0,0,0,0,0,0s0,.07.1.07h0c.62,0,1.23,0,1.85-.06l1.84-.09c1.21-.08,2.4-.22,3.61-.33a2,2,0,0,0,.39.28,1.36,1.36,0,0,0,.59.16,1.22,1.22,0,0,0,.33,0l.28-.09.27-.08h0l0,0,.07,0c.94.31,1.88.64,2.83.94s1.9.61,2.87.9a.37.37,0,0,0,.34-.07c.51-.53,1-1.06,1.48-1.6s1-1.08,1.42-1.63h0S28.76,23.81,28.73,23.8Z"/><path class="cls-5" d="M1.19,2.35h.16c.38,0,.65-.18.65-.51s-.15-.46-.59-.46l-.22,0ZM.8,1.21a4.48,4.48,0,0,1,.57,0,1.38,1.38,0,0,1,.76.17.58.58,0,0,1,.26.49.62.62,0,0,1-.21.49,1.27,1.27,0,0,1-.81.26H1.19v1H.8Z"/><path class="cls-5" d="M3.55,2.67h0c-.2,0-.68,0-.68.39a.28.28,0,0,0,.3.3.35.35,0,0,0,.37-.25.38.38,0,0,0,0-.1Zm.06.87,0-.17h0a.63.63,0,0,1-.49.2c-.34,0-.59-.19-.59-.48s.49-.62,1-.62V2.42c0-.23-.08-.39-.39-.39a1,1,0,0,0-.41.09l-.09-.19a1.48,1.48,0,0,1,.58-.11c.5,0,.71.22.71.6v.74a1.5,1.5,0,0,0,0,.38Z"/><path class="cls-5" d="M4.37,3.26a1.07,1.07,0,0,0,.4.09c.23,0,.37-.09.37-.24s-.07-.22-.32-.34-.5-.29-.5-.48.3-.47.68-.47a1,1,0,0,1,.45.09l-.11.2A.81.81,0,0,0,5,2c-.21,0-.32.1-.32.21s.06.18.31.29.51.29.51.52-.34.51-.74.51a1.12,1.12,0,0,1-.49-.1Z"/><path class="cls-5" d="M6.79,2.67h0c-.2,0-.68,0-.68.39a.28.28,0,0,0,.3.3.36.36,0,0,0,.37-.25.38.38,0,0,0,0-.1Zm.06.87,0-.17h0a.64.64,0,0,1-.5.2.52.52,0,0,1-.58-.48c0-.43.49-.62,1-.62V2.42c0-.23-.08-.39-.39-.39A1,1,0,0,0,6,2.12l-.09-.19a1.48,1.48,0,0,1,.58-.11c.49,0,.71.22.71.6v.74a1.5,1.5,0,0,0,0,.38Z"/><path class="cls-5" d="M8.82,2.92h0a.32.32,0,0,0,0,.14.37.37,0,0,0,.36.29c.33,0,.43-.31.43-.65s-.12-.65-.44-.65a.39.39,0,0,0-.36.31.53.53,0,0,0,0,.13Zm-.39-.54c0-.26,0-.41,0-.53h.35l0,.21h0a.61.61,0,0,1,.52-.24c.43,0,.72.31.72.87a.77.77,0,0,1-.77.88.51.51,0,0,1-.43-.19h0v.84H8.43Z"/><path class="cls-5" d="M11.34,2.67h0c-.2,0-.68,0-.68.39a.29.29,0,0,0,.31.3.35.35,0,0,0,.36-.25.38.38,0,0,0,0-.1Zm.06.87h0l0-.17h0a.62.62,0,0,1-.49.2c-.33,0-.59-.19-.59-.48s.5-.62,1.05-.62V2.42c0-.23-.08-.39-.39-.39a1.07,1.07,0,0,0-.41.09l-.09-.19A1.56,1.56,0,0,1,11,1.82c.5,0,.71.22.71.6v.74a1.5,1.5,0,0,0,0,.38Zm.27-2.39-.54.47h-.26l.39-.47Z"/><path class="cls-5" d="M13.34,2.43h0a.43.43,0,0,0,0-.12A.36.36,0,0,0,13,2.05c-.29,0-.44.26-.44.64s.2.63.44.63a.35.35,0,0,0,.35-.24.45.45,0,0,0,0-.16Zm.41-.58c0,.12,0,.27,0,.53v1c0,.44-.08.61-.25.73a1.06,1.06,0,0,1-.66.19,1.6,1.6,0,0,1-.54-.09L12.37,4a1.27,1.27,0,0,0,.46.08c.32,0,.51-.14.51-.52V3.33h0a.55.55,0,0,1-.48.21.74.74,0,0,1-.72-.84.79.79,0,0,1,.77-.88.54.54,0,0,1,.47.22h0l0-.19Z"/><path class="cls-5" d="M14.22,3.54h0V1.85h.4V3.54Zm.43-2.13c0,.1-.09.17-.24.17s-.23-.07-.23-.17a.21.21,0,0,1,.23-.18C14.56,1.23,14.65,1.3,14.65,1.41Z"/><path class="cls-5" d="M15.12,2.29a4.34,4.34,0,0,0,0-.44h.35l0,.2h0A.71.71,0,0,1,16,1.82a.54.54,0,0,1,.6.58V3.54h-.4V2.45c0-.2,0-.4-.34-.4a.38.38,0,0,0-.38.27.76.76,0,0,0,0,.15V3.54h-.39Z"/><path class="cls-5" d="M18.06,2.67h0c-.21,0-.68,0-.68.39a.28.28,0,0,0,.3.3.37.37,0,0,0,.37-.25.38.38,0,0,0,0-.1Zm.05.87,0-.17h0a.6.6,0,0,1-.49.2c-.33,0-.59-.19-.59-.48s.5-.62,1.06-.62V2.42c0-.23-.08-.39-.4-.39a1.07,1.07,0,0,0-.41.09l-.08-.19a1.48,1.48,0,0,1,.58-.11c.49,0,.71.22.71.6v.74a2.24,2.24,0,0,0,0,.38Z"/><path class="cls-5" d="M18.76,4a4.45,4.45,0,0,0,.3-.82l.44,0A3.36,3.36,0,0,1,19,4Z"/><path class="cls-5" d="M1.82,5.68h0c0-.34-.18-.49-.37-.49s-.39.26-.4.49ZM1,5.88c0,.52.31.63.59.63A1.12,1.12,0,0,0,2,6.44l.06.2a1.66,1.66,0,0,1-.54.08.8.8,0,0,1-.9-.85A.81.81,0,0,1,1.49,5a.68.68,0,0,1,.71.75v.15Z"/><rect class="cls-5" x="2.57" y="4.27" width="0.39" height="2.43"/><path class="cls-5" d="M3.5,6.7h0V5h.39V6.7Zm.42-2.14c0,.11-.09.18-.24.18a.2.2,0,0,1-.22-.18c0-.1.1-.17.23-.17S3.92,4.46,3.92,4.56Z"/><path class="cls-5" d="M5.5,5.59h0a.43.43,0,0,0,0-.12.37.37,0,0,0-.36-.26c-.29,0-.44.26-.44.64s.2.63.44.63a.36.36,0,0,0,.35-.24.5.5,0,0,0,0-.16ZM5.91,5a5,5,0,0,0,0,.53v1c0,.45-.08.62-.24.74A1.06,1.06,0,0,1,5,7.4a1.58,1.58,0,0,1-.54-.08l.09-.21A1.59,1.59,0,0,0,5,7.18c.31,0,.51-.13.51-.52V6.49h0A.58.58,0,0,1,5,6.7a.75.75,0,0,1-.73-.84A.79.79,0,0,1,5.06,5a.49.49,0,0,1,.46.22h0l0-.2Z"/><path class="cls-5" d="M7.43,5.68h0c0-.34-.17-.49-.36-.49s-.39.26-.41.49Zm-.77.2c0,.52.3.63.59.63a1.06,1.06,0,0,0,.4-.07l.07.2a1.77,1.77,0,0,1-.55.08.8.8,0,0,1-.9-.85A.81.81,0,0,1,7.11,5a.67.67,0,0,1,.7.75v.15Z"/><path class="cls-5" d="M9,6.7V5.21H8.71V5H9V4.89c0-.3.22-.64.9-.64a1.37,1.37,0,0,1,.49.08l-.09.21a1.27,1.27,0,0,0-.41-.07c-.4,0-.5.19-.5.45V5h1.12V6.7h-.4V5.21H9.41V6.7Z"/><path class="cls-5" d="M12.13,5.59h0a.23.23,0,0,0,0-.12.35.35,0,0,0-.36-.26c-.28,0-.44.26-.44.64s.2.63.44.63a.37.37,0,0,0,.36-.24.47.47,0,0,0,0-.16ZM12.54,5c0,.12,0,.27,0,.53v1c0,.45-.08.62-.24.74a1.08,1.08,0,0,1-.66.18,1.68,1.68,0,0,1-.55-.08l.09-.21a1.67,1.67,0,0,0,.47.07c.31,0,.5-.13.5-.52V6.49h0a.54.54,0,0,1-.47.21.75.75,0,0,1-.73-.84A.78.78,0,0,1,11.7,5a.5.5,0,0,1,.46.22h0l0-.2Z"/><path class="cls-5" d="M14.5,6.24c0,.19,0,.34,0,.46h-.34l0-.18h0a.69.69,0,0,1-.53.21c-.43,0-.6-.23-.6-.65V5h.39V6c0,.27.06.46.33.46a.35.35,0,0,0,.36-.22.78.78,0,0,0,0-.16V5h.39Z"/><path class="cls-5" d="M15,5.44c0-.14,0-.31,0-.44h.35l0,.27h0A.59.59,0,0,1,15.88,5H16v.28h-.08a.46.46,0,0,0-.47.36.68.68,0,0,0,0,.15V6.7H15Z"/><path class="cls-5" d="M17.11,5.82h0c-.2,0-.68,0-.68.4a.28.28,0,0,0,.3.3.36.36,0,0,0,.37-.26.28.28,0,0,0,0-.09Zm.06.88,0-.18h0a.64.64,0,0,1-.49.21c-.34,0-.59-.19-.59-.48s.49-.62,1.05-.62v0c0-.23-.08-.39-.39-.39a1,1,0,0,0-.41.09l-.09-.19A1.31,1.31,0,0,1,16.79,5c.49,0,.71.22.71.6v.74a1.54,1.54,0,0,0,0,.38Z"/><path class="cls-5" d="M1.87,8.81h0a.49.49,0,0,0,0-.12.39.39,0,0,0-.37-.33c-.32,0-.44.32-.44.66s.14.64.42.64a.37.37,0,0,0,.38-.29.36.36,0,0,0,0-.11Zm.39-1.38v2c0,.12,0,.31,0,.41H1.94l0-.21h0a.62.62,0,0,1-.52.24C1,9.89.66,9.57.66,9s.36-.89.75-.89a.52.52,0,0,1,.45.21h0V7.43Z"/><path class="cls-5" d="M3.81,8.83h0c0-.34-.18-.49-.37-.49s-.39.26-.4.49ZM3,9c0,.52.31.64.59.64A1.08,1.08,0,0,0,4,9.6l.06.2a1.66,1.66,0,0,1-.54.08A.8.8,0,0,1,2.65,9a.82.82,0,0,1,.83-.9.68.68,0,0,1,.71.75V9Z"/><rect class="cls-5" x="4.56" y="7.43" width="0.39" height="2.43"/><rect class="cls-5" x="6.24" y="7.43" width="0.39" height="2.43"/><path class="cls-5" d="M7.17,9.86h0V8.16h.39v1.7Zm.42-2.14c0,.11-.09.18-.24.18s-.22-.07-.22-.18.1-.17.23-.17S7.59,7.62,7.59,7.72Z"/><path class="cls-5" d="M8.45,9.26h0a.28.28,0,0,0,0,.1.38.38,0,0,0,.37.3c.32,0,.43-.29.43-.65s-.12-.65-.43-.65a.4.4,0,0,0-.37.31.45.45,0,0,0,0,.12ZM8,9.86c0-.1,0-.29,0-.41v-2h.4v.93h0A.61.61,0,0,1,9,8.13c.38,0,.68.31.68.86s-.37.9-.76.9a.54.54,0,0,1-.49-.25h0l0,.22Z"/><path class="cls-5" d="M10,8.6c0-.14,0-.31,0-.44h.36l0,.27h0a.6.6,0,0,1,.52-.3H11v.27h-.08a.47.47,0,0,0-.48.35.81.81,0,0,0,0,.16v.94H10Z"/><path class="cls-5" d="M11.48,9h0c0,.28.07.66.43.66s.41-.4.41-.66-.07-.66-.42-.66-.42.4-.42.66m1.24,0a.8.8,0,0,1-.83.88.78.78,0,0,1-.8-.88.8.8,0,0,1,.83-.88A.78.78,0,0,1,12.72,9Z"/><path class="cls-5" d="M14.06,8.16l.33,1,.1.35h0l.11-.35.29-1h.39l-.41,1.09a2.61,2.61,0,0,1-.61,1.1,1.46,1.46,0,0,1-.44.26l-.15-.24a1.09,1.09,0,0,0,.35-.21,1.35,1.35,0,0,0,.23-.28.18.18,0,0,0,0-.09.13.13,0,0,0,0-.06l-.62-1.57Z"/><rect class="cls-5" x="0.77" y="10.59" width="0.39" height="2.43"/><path class="cls-5" d="M2.61,12.14h0c-.2,0-.68,0-.68.39a.29.29,0,0,0,.31.3.33.33,0,0,0,.37-.35Zm.06.88,0-.18h0a.62.62,0,0,1-.49.2c-.33,0-.59-.19-.59-.48s.5-.61,1.05-.62v0c0-.23-.08-.39-.39-.39a1.07,1.07,0,0,0-.41.09l-.09-.19a1.56,1.56,0,0,1,.58-.11c.5,0,.71.22.71.61v.73A1.63,1.63,0,0,0,3,13Z"/><path class="cls-5" d="M3.44,12.74a1.22,1.22,0,0,0,.4.08c.22,0,.36-.09.36-.24s-.07-.22-.32-.34-.49-.28-.49-.48.29-.47.68-.47a1.16,1.16,0,0,1,.44.09l-.1.2a.84.84,0,0,0-.33-.07c-.22,0-.32.1-.32.21s.06.18.3.3.51.28.51.51-.33.51-.74.51a1.15,1.15,0,0,1-.49-.1Z"/><path class="cls-5" d="M5.68,11.76c0-.2,0-.31,0-.44H6l0,.2H6a.68.68,0,0,1,.57-.23.53.53,0,0,1,.59.59V13H6.81v-1.1c0-.2-.06-.4-.34-.4a.38.38,0,0,0-.38.27.81.81,0,0,0,0,.16V13h-.4Z"/><path class="cls-5" d="M8,12.17H8c0,.28.07.66.43.66s.41-.4.41-.66-.07-.66-.42-.66-.42.4-.42.66m1.24,0A.79.79,0,0,1,8.4,13a.77.77,0,0,1-.8-.87.8.8,0,0,1,.83-.88A.78.78,0,0,1,9.23,12.17Z"/><path class="cls-5" d="M9.61,11.76c0-.2,0-.31,0-.44h.35l0,.21h0a.65.65,0,0,1,.55-.24.53.53,0,0,1,.52.26h0a.64.64,0,0,1,.25-.19.74.74,0,0,1,.34-.07.55.55,0,0,1,.6.6V13h-.39V12c0-.22,0-.43-.35-.43a.38.38,0,0,0-.37.25.81.81,0,0,0,0,.16V13h-.39V11.9c0-.19-.05-.38-.34-.38a.36.36,0,0,0-.37.27.77.77,0,0,0,0,.15V13H9.61Z"/><path class="cls-5" d="M12.74,13h0v-1.7h.39V13Zm.42-2.14c0,.1-.09.17-.24.17s-.23-.07-.23-.17a.21.21,0,0,1,.23-.18C13.07,10.7,13.16,10.77,13.16,10.88Z"/><path class="cls-5" d="M13.62,11.76c0-.2,0-.31,0-.44H14l0,.2h0a.71.71,0,0,1,.57-.23.54.54,0,0,1,.6.59V13h-.4v-1.1c0-.2-.05-.4-.34-.4a.38.38,0,0,0-.38.27A.81.81,0,0,0,14,12V13h-.4Z"/><path class="cls-5" d="M16.57,12.14h0c-.21,0-.68,0-.68.39a.28.28,0,0,0,.3.3.36.36,0,0,0,.37-.25.34.34,0,0,0,0-.1Zm.05.88,0-.18h0a.6.6,0,0,1-.49.2c-.33,0-.59-.19-.59-.48s.5-.61,1.06-.62v0c0-.23-.08-.39-.4-.39a1.07,1.07,0,0,0-.41.09l-.08-.19a1.48,1.48,0,0,1,.58-.11c.49,0,.71.22.71.61v.73A2.42,2.42,0,0,0,17,13Z"/><path class="cls-5" d="M27.3,12.3a5.84,5.84,0,0,1,.19,3c-.43,1.18-2,2.4-2.54,3.61s-.5,1.41-.5,1.41l-.65.25s-.48-.35.08-1.66a14.88,14.88,0,0,1,1.42-2.49,7.85,7.85,0,0,0,1.2-1.23c.13-.32.72-.64.79-1.1a13.76,13.76,0,0,0,0-1.82"/><path class="cls-5" d="M21.68,16.87s-.08,1.51-.5,1.84a1.3,1.3,0,0,0-.32,1.05s.4-.05.41.27-.52.7-.52.7-.58-.22-.62-.53a.44.44,0,0,1,.27-.44,2.81,2.81,0,0,1,.23-1.34,5.15,5.15,0,0,0,.27-1.82Z"/></svg>