<svg id="Capa_1" data-name="Capa 1" xmlns="http://www.w3.org/2000/svg" viewBox="0 0 28.75 28.41"><defs><style>.cls-1{fill:#ffcc64;}.cls-2{fill:#fbc8ba;}.cls-3{fill:#f05050;}.cls-4{fill:#b3d335;}.cls-5,.cls-6{fill:#231f20;}.cls-6{fill-rule:evenodd;}</style></defs><title>3-30meses</title><path class="cls-1" d="M.53,21.68a22.62,22.62,0,0,0,14.82,5.6c9.09,0,12.21-5.6,12.21-5.6Z"/><path class="cls-2" d="M8.52,15.35,8,14.7a1.67,1.67,0,0,1-1-.41c-.47-.4-.61-.8-.28-.92s.65-.25.65-.25,2.77-3.84,3.81-3.45a32.75,32.75,0,0,1,4.31,2.64,1.67,1.67,0,0,1,.31.69s.38,0,.26.41-1.17,1.14-1.17,1.14-.22.28.14.52,1.85.83,2.15,1.92a8.34,8.34,0,0,1,.39,3,1.35,1.35,0,0,1-.54.7,38.57,38.57,0,0,1-5.42,1.83,23.87,23.87,0,0,1-4.44-.66c-.69-.21-2-.63-2-1.55a7.39,7.39,0,0,1,1.59-3.65Z"/><path class="cls-3" d="M9.39,22.23s-.31,2.29.42,2.8a10.84,10.84,0,0,0,5.43.58A3.66,3.66,0,0,0,17.43,24c.1-.08.25-3.26.25-3.26l-.85-.64a4.37,4.37,0,0,1-1.37.53c-.59.07-2.89.1-2.89.1l-.88.36s.69.33.73.53-1.67.29-1.67.29,1.15,0,1.28.23-.25.42-2.64.11"/><path class="cls-4" d="M10.27,19.37s-.28-.24.48-.44.94-.25.94-.25-.56.67-.27.82a1.48,1.48,0,0,0,.73.07s.34.41.58.25a3,3,0,0,1,.61-.3s-.5.56-.11.56a3.89,3.89,0,0,0,1.29-.6s-.61.44-.09.43a3.89,3.89,0,0,0,1.48-.77s.86.16.87.48a1.36,1.36,0,0,1-.5.85c-.09,0-3.53.31-3.53.31s.19-.55-.6-.55a13.41,13.41,0,0,1-1.4-.07s.75-.37.43-.56a2.57,2.57,0,0,0-.91-.23"/><path class="cls-5" d="M13.06,13.73a2.48,2.48,0,0,1,1.47.12,2.15,2.15,0,0,0-2.33,0c-.24.18.34.11.86-.14"/><path class="cls-5" d="M11,14.05c.21,0,0-.22-.49-.29a2.64,2.64,0,0,0-1.66.53,7.54,7.54,0,0,1,1.08-.36,7.64,7.64,0,0,1,1.07.12"/><path class="cls-5" d="M13.08,14.2l-.51-.08A.82.82,0,0,0,13.89,14a1.56,1.56,0,0,1-.81.22"/><path class="cls-5" d="M9.34,14.25a.81.81,0,0,0,1.27,0,1.51,1.51,0,0,1-1.27,0"/><path class="cls-5" d="M11.76,15.33c.31.07.28-.08.48-.16s.18-.16.18-.16-.16,0-.39.16-.47,0-.7-.06-.22-.14-.22-.14,0,.11.13.22.21.07.52.14"/><path class="cls-5" d="M17.37,20.83h0v0c-.05.43-.08.86-.1,1.29s-.05.85-.05,1.28v.48a.53.53,0,0,1,0,.13,1.14,1.14,0,0,1-.26.53,2.65,2.65,0,0,1-.54.44,3.74,3.74,0,0,1-.73.32,5.75,5.75,0,0,1-.84.22,8.85,8.85,0,0,1-.9.11,7.26,7.26,0,0,1-.93,0,7,7,0,0,1-.92-.07,7.42,7.42,0,0,1-.87-.18,4.11,4.11,0,0,1-.77-.29,1.84,1.84,0,0,1-.55-.41.75.75,0,0,1-.22-.49v0a14.64,14.64,0,0,0-.21-2l.8.08a5.29,5.29,0,0,0,.9.16,2.64,2.64,0,0,0,.49,0,1.09,1.09,0,0,0,.49-.13.31.31,0,0,0,.1-.08.55.55,0,0,0,.06-.08c0-.1-.05-.19-.13-.23a1.17,1.17,0,0,0-.24-.09l.27,0,.25-.06.15-.06s.15-.09.14-.2a.24.24,0,0,0-.15-.18.29.29,0,0,0-.08,0l0,0-.23-.08a3.28,3.28,0,0,0,.41-.08l.17-.07a.13.13,0,0,0,.07-.05.08.08,0,0,0,0,0,.19.19,0,0,0,0-.08c.4,0,.77.06,1.1.06a5.14,5.14,0,0,0,2.57-.5,1.14,1.14,0,0,0,.33-.27,1.55,1.55,0,0,1,.27.23,2.07,2.07,0,0,1-.15.25,1.57,1.57,0,0,0,.18-.19.7.7,0,0,1,.1.16.44.44,0,0,1,0,.1s0,.08,0,.09m-4.47-.61h0a.56.56,0,0,0-.12-.09l-.2-.08L12.34,20h.26l.17,0,.31-.12a.43.43,0,0,0,0,.11.26.26,0,0,0,.06.15.3.3,0,0,0,.29.09.82.82,0,0,0,.31-.13l.21-.14.27-.23a.33.33,0,0,0-.06.1.14.14,0,0,0,0,.11.17.17,0,0,0,.14.1,1.44,1.44,0,0,0,.49,0,3,3,0,0,0,.79-.28A1.84,1.84,0,0,0,16,19.3c.1,0,.48.21.48.55,0,.09-.09.2-.26.3a6.14,6.14,0,0,1-3.26.34s0,0,0,0A.28.28,0,0,0,12.9,20.22Zm-1.72-.31h0l.17-.13a.42.42,0,0,0,.12-.21l0,0a.84.84,0,0,0,.19,0h.1a.29.29,0,0,0,0,.15.42.42,0,0,0,.25.18H12l-.56,0h-.25Zm2.18,0ZM12,18.58h0l.14-.17a1.69,1.69,0,0,1,.56-.36,1.21,1.21,0,0,1,.71,0,4.23,4.23,0,0,1,.72.19c.48.16.92.37,1.38.56.16.08.18.13.14.27a1.16,1.16,0,0,1-.38.39,2.25,2.25,0,0,1-.6.3,1.67,1.67,0,0,1-.29.08s0,0,0,0a.3.3,0,0,1,0-.11,2.43,2.43,0,0,1,.37-.49L15,19,15,19l.07-.05,0,0h0s0,0-.05,0h0l-.13.1-.15.14c-.19.15-.39.31-.6.46l-.42.26-.23.11-.13.05h0a1.77,1.77,0,0,1,.06-.17c.06-.11.14-.23.21-.35l.11-.16c0-.05.09-.1.13-.16a2.7,2.7,0,0,0,.25-.4h0c.05-.1,0-.21-.16-.25a.37.37,0,0,0-.4.1v0c-.06.1-.15.22-.23.33a2.2,2.2,0,0,1-.3.31,2,2,0,0,1-.35.25l-.18.07-.12,0a1.66,1.66,0,0,1,.2-.32l.1-.13a3.93,3.93,0,0,0,.51-.58.14.14,0,0,0-.06-.22.36.36,0,0,0-.36,0h0a6.49,6.49,0,0,0-.69.7,2.7,2.7,0,0,0-.22.33l-.13.06h-.1s0,0,0,0,0,0,0-.05a.78.78,0,0,1,.14-.5l.1-.14.17.06A.16.16,0,0,0,12,18.58Zm-1.37.73h0a.11.11,0,0,1,0-.08c0-.07.16-.13.37-.18l.53-.12a1,1,0,0,0-.15.44.62.62,0,0,0-.21-.08,1.38,1.38,0,0,0-.28,0ZM7.26,21.72h0v0H7.1l-.29-.08a3.72,3.72,0,0,1-.7-.33,1.94,1.94,0,0,1-.52-.44,1.24,1.24,0,0,1-.11-1.1,4.62,4.62,0,0,1,.19-.6c.08-.19.16-.38.26-.58a11,11,0,0,1,.66-1.15c.12-.19.26-.37.4-.55s.31-.35.48-.52a4.23,4.23,0,0,1,1-.73l.28.18a6.51,6.51,0,0,0,1.09.54,4.33,4.33,0,0,0,2.48.15,4.48,4.48,0,0,0,.52-.16l.45-.18a3.62,3.62,0,0,0,.73-.44,1.9,1.9,0,0,0,.65-.85,6.59,6.59,0,0,1,.77.47,7,7,0,0,1,.77.63,3.66,3.66,0,0,1,.56.7A3.54,3.54,0,0,1,17,17l.17.39a5.5,5.5,0,0,1,.37,1.64,2.84,2.84,0,0,1,0,.41,1.84,1.84,0,0,1,0,.41,2,2,0,0,1-.13.41h0a2.11,2.11,0,0,0-.3-.16.5.5,0,0,0,.1-.27c0-.64-.81-.91-.84-.93l-.1.14a.42.42,0,0,0,0-.29.7.7,0,0,0-.38-.31,10.41,10.41,0,0,0-1.49-.5,5.53,5.53,0,0,0-.83-.14,1.83,1.83,0,0,0-.87.1,2.07,2.07,0,0,0-.59.42l-.16.17a3.24,3.24,0,0,0-1.05.15q-.62.15-.75.45a.42.42,0,0,0,0,.37l-.11,0a4.48,4.48,0,0,0-.58.29,2.76,2.76,0,0,0-.3-.29l0,0a1.62,1.62,0,0,0,.29-.15,1.72,1.72,0,0,0,.6-.6,1.16,1.16,0,0,0,.14-.72.65.65,0,0,0-.13-.33l-.2.3c-.11.17-.25.39-.37.6s-.24.44-.33.62-.07.16-.09.21a3.18,3.18,0,0,0-.41-.25A3,3,0,0,0,7.9,19l-.36-.05c-.12,0-.24,0-.36,0v0a2,2,0,0,1,.34,0c.11,0,.21,0,.32.06a2.58,2.58,0,0,1,.56.25,2.89,2.89,0,0,1,.78.73v0a.21.21,0,0,0,.24,0h0a5.6,5.6,0,0,1,.71-.3,2.65,2.65,0,0,1,.37-.12,1.63,1.63,0,0,1,.35,0h0l-.09.07a4.93,4.93,0,0,1-.65.33.19.19,0,0,0-.12.18c0,.1.14.18.29.17h0c.34,0,.7,0,1,0,.17,0,.34,0,.5,0l.3.05h-.11c-.32,0-.67,0-1,0-.17,0-.31.08-.32.2s.12.22.29.23l.55,0h0l-.88.12c-.13,0-.23.1-.23.19a.25.25,0,0,0,.28.18,8.51,8.51,0,0,1,.88,0l.42.07.08,0-.06,0-.43.08c-.3.05-.61.08-.91.11h0c-.09,0-.15.06-.15.12s.08.11.17.11a8.9,8.9,0,0,1,.9,0,1.25,1.25,0,0,1,.38.09s0,0,.05,0a.27.27,0,0,1,0,.07l0,0a1.56,1.56,0,0,1-.8.09,6.21,6.21,0,0,1-.88-.15h0c-.6-.05-1.2-.12-1.79-.22C8.08,21.91,7.67,21.82,7.26,21.72Zm1-7.57h0A.85.85,0,0,0,8.22,14l-.08-.13-.05-.06.29-1,.24,1,.3-1.57.87.71-.14-.64L11.15,14l-.67-1.46L12,13.71l-.38-1.42.84.69s-.38-.89-.34-.86l1.6,1.31-.53-1,.73.59,0-.63,1.14,1.22-.14.21a1,1,0,0,0-.13.22c0,.1-.08.24-.13.4l-.07,0-.49.07.42.22h0a1.85,1.85,0,0,1-.74.78,3.92,3.92,0,0,1-.74.34l-.45.14-.47.1a3.84,3.84,0,0,1-2-.2,7.94,7.94,0,0,1-1-.48,1.69,1.69,0,0,1-.68-.64,2.3,2.3,0,0,1-.14-.42Zm-.56.39h0l-.1-.1s0-.08-.1-.14-.16-.22-.25-.34L7,13.64l-.09-.13a.36.36,0,0,0,0-.09.09.09,0,0,1,0-.06l.13,0h.07c.15.26.32.51.46.73l.06.09,0,.1.06.23,0,.11S7.74,14.56,7.72,14.54Zm8.21-1.34h0a1,1,0,0,1-.22.54,1.64,1.64,0,0,1-.21.24,1.79,1.79,0,0,1-.25.22,1.73,1.73,0,0,1-.3.16,1,1,0,0,1-.16.06,1.88,1.88,0,0,1,.1-.35.59.59,0,0,1,.12-.22l.13-.18.14.15.52-.75A.13.13,0,0,1,15.93,13.2Zm10.68,8.47H17.77c0-.27,0-.54-.07-.82v0a.21.21,0,0,0,0-.16.58.58,0,0,0-.05-.14.91.91,0,0,0-.21-.23h0a2.65,2.65,0,0,0,.48-1.29,4.27,4.27,0,0,0-.21-1.73,3.52,3.52,0,0,0-.15-.42,4.11,4.11,0,0,0-.21-.42,3.09,3.09,0,0,0-.63-.79,5.66,5.66,0,0,0-.85-.66,6.68,6.68,0,0,0-.7-.39l.07,0a1.77,1.77,0,0,0,.35-.23,1.33,1.33,0,0,0,.26-.27,1.53,1.53,0,0,0,.18-.29,1.92,1.92,0,0,0,.11-.31.7.7,0,0,0,0-.32A.22.22,0,0,0,16,13a.2.2,0,0,0-.11,0l.09-.12s.47-2.29-.37-3a5.7,5.7,0,0,0-4.11-1.33,6.64,6.64,0,0,0-4.53,1.94,1.43,1.43,0,0,0-.12,1.27,2.16,2.16,0,0,0,.24,1.43l.06.11,0,0-.18,0a.43.43,0,0,0-.29.09.31.31,0,0,0-.11.23.41.41,0,0,0,0,.22,1.31,1.31,0,0,0,.22.4,2.2,2.2,0,0,0,.33.35,1.39,1.39,0,0,0,.22.15.72.72,0,0,0,.27.1.61.61,0,0,0,.27,0,1.06,1.06,0,0,0,.06.19,1.57,1.57,0,0,0,.5.59,4.66,4.66,0,0,0-1.15.68,6.77,6.77,0,0,0-.56.51c-.16.18-.33.36-.47.54a7.45,7.45,0,0,0-.75,1.17c-.11.19-.2.4-.3.6a6.5,6.5,0,0,0-.22.62,2.15,2.15,0,0,0-.07.67,1.19,1.19,0,0,0,.28.67,2.12,2.12,0,0,0,.68.49,3.54,3.54,0,0,0,.39.19H1.08v.41H7.26V22q.6.11,1.2.18l.93.09a13.31,13.31,0,0,0-.21,2v0a1,1,0,0,0,.26.72,2,2,0,0,0,.74.51,4.81,4.81,0,0,0,.92.25c.32,0,.64.08,1,.1q.94,0,1.89,0c.31,0,.63,0,1-.06a6.25,6.25,0,0,0,.95-.15,4.18,4.18,0,0,0,.88-.32,2.3,2.3,0,0,0,.7-.51,1.4,1.4,0,0,0,.39-.67.63.63,0,0,0,0-.19v-.48c0-.43,0-.86-.05-1.28v-.06h8.81Z"/><path class="cls-5" d="M11,15.78a1.34,1.34,0,0,0,.32.1,2.47,2.47,0,0,0,.39,0,1.63,1.63,0,0,0,.68-.15.72.72,0,0,0,.25-.16,1.57,1.57,0,0,0-.33-.07l-.3,0h-.32l-.6.05-.33,0a.63.63,0,0,0,.24.18"/><path class="cls-5" d="M15.08,18.82h0"/><rect class="cls-5" x="1.24" y="1.01" width="0.39" height="2.37"/><path class="cls-5" d="M2.18,2.12c0-.2,0-.3,0-.44H2.5l0,.2h0a.74.74,0,0,1,.57-.23.54.54,0,0,1,.6.59V3.38H3.31V2.28c0-.2-.06-.4-.35-.4a.38.38,0,0,0-.37.28.61.61,0,0,0,0,.15V3.38H2.18Z"/><path class="cls-5" d="M4.65,1.23v.45h.48v.21H4.65v1c0,.22.12.28.26.28h.16l0,.2a1.12,1.12,0,0,1-.29,0,.64.64,0,0,1-.39-.1c-.1-.08-.15-.19-.15-.43v-1H4V1.68h.3V1.31Z"/><path class="cls-5" d="M6.44,2.35h0c0-.34-.18-.49-.37-.49s-.39.26-.4.49Zm-.78.2c0,.52.3.64.59.64a1.12,1.12,0,0,0,.41-.07l.06.2a1.75,1.75,0,0,1-.54.08.79.79,0,0,1-.9-.85.81.81,0,0,1,.83-.9.68.68,0,0,1,.71.75.62.62,0,0,1,0,.15Z"/><path class="cls-5" d="M7.19,2.12c0-.2,0-.3,0-.44h.34l0,.2h0a.74.74,0,0,1,.57-.23.54.54,0,0,1,.6.59V3.38H8.32V2.28c0-.2-.06-.4-.35-.4a.38.38,0,0,0-.37.28.61.61,0,0,0,0,.15V3.38H7.19Z"/><path class="cls-5" d="M9.66,1.23v.45h.48v.21H9.66v1c0,.22.12.28.26.28h.16l0,.2a1.12,1.12,0,0,1-.29,0,.64.64,0,0,1-.39-.1c-.1-.08-.15-.19-.15-.43v-1H9V1.68h.3V1.31Z"/><path class="cls-5" d="M11.36,2.5h0c-.21,0-.69,0-.69.4a.29.29,0,0,0,.31.3.37.37,0,0,0,.37-.26.31.31,0,0,0,0-.09Zm.05.88,0-.18h0a.62.62,0,0,1-.49.21.53.53,0,0,1-.59-.49c0-.42.5-.61,1.06-.61V2.25c0-.23-.09-.38-.4-.38a1.07,1.07,0,0,0-.41.08l-.09-.19A1.56,1.56,0,0,1,11,1.65c.5,0,.72.23.72.61V3a2.42,2.42,0,0,0,0,.39Z"/><path class="cls-5" d="M14.05,2.35h0c0-.34-.18-.49-.37-.49s-.38.26-.4.49Zm-.78.2c0,.52.31.64.59.64a1.08,1.08,0,0,0,.41-.07l.06.2a1.66,1.66,0,0,1-.54.08.8.8,0,0,1-.9-.85.82.82,0,0,1,.84-.9.68.68,0,0,1,.7.75v.15Z"/><path class="cls-5" d="M14.8,2.12c0-.2,0-.3,0-.44h.35l0,.2h0a.71.71,0,0,1,.57-.23.54.54,0,0,1,.59.59V3.38h-.39V2.28c0-.2-.06-.4-.34-.4a.38.38,0,0,0-.38.28.66.66,0,0,0,0,.15V3.38h-.4Z"/><path class="cls-5" d="M16.82,2.12c0-.14,0-.31,0-.44h.35l0,.27h0a.63.63,0,0,1,.53-.3h.08v.27h-.08a.47.47,0,0,0-.48.35.78.78,0,0,0,0,.16v.94h-.39Z"/><path class="cls-5" d="M18.26,2.53h0c0,.28.07.66.43.66s.4-.4.4-.66-.06-.66-.41-.66-.42.4-.42.66m1.23,0a.79.79,0,0,1-.82.88.78.78,0,0,1-.81-.88.8.8,0,0,1,.83-.88A.78.78,0,0,1,19.49,2.53Z"/><path class="cls-5" d="M19.81,3.1a1,1,0,0,0,.4.09c.23,0,.37-.1.37-.25s-.07-.22-.32-.33-.5-.29-.5-.49.3-.47.68-.47a1.18,1.18,0,0,1,.45.09l-.11.2a.81.81,0,0,0-.33-.07c-.21,0-.32.11-.32.21s.06.18.31.3.51.28.51.52-.34.5-.74.5a1.09,1.09,0,0,1-.49-.1Z"/><path class="cls-5" d="M22.52,3.34a1.37,1.37,0,0,1-.41.06.81.81,0,0,1-.91-.86.89.89,0,0,1,1-.88,1.13,1.13,0,0,1,.35.05l-.08.22a.77.77,0,0,0-.28-.05.59.59,0,0,0-.58.66.57.57,0,0,0,.59.64.82.82,0,0,0,.28-.05Z"/><path class="cls-5" d="M23.74,2.5h0c-.21,0-.68,0-.68.4a.28.28,0,0,0,.3.3.37.37,0,0,0,.37-.26.31.31,0,0,0,0-.09Zm.05.88,0-.18h0a.61.61,0,0,1-.49.21.53.53,0,0,1-.59-.49c0-.42.5-.61,1.06-.61V2.25c0-.23-.08-.38-.4-.38a1.07,1.07,0,0,0-.41.08l-.08-.19a1.48,1.48,0,0,1,.58-.11c.49,0,.71.23.71.61V3a2.42,2.42,0,0,0,0,.39Z"/><path class="cls-5" d="M24.62,2.12c0-.14,0-.31,0-.44H25L25,2h0a.6.6,0,0,1,.52-.3h.08v.27h-.08a.47.47,0,0,0-.48.35.81.81,0,0,0,0,.16v.94h-.4Z"/><path class="cls-6" d="M8.83,15.62a14.39,14.39,0,0,1,1.39,2.46,4.76,4.76,0,0,1,.18.94,2.22,2.22,0,0,1-.43.71c-.23.21-.12-.6-.47-1.05a30.59,30.59,0,0,1-1.93-3.93c-.24-.71.21.13.65.22s.61.65.61.65"/><path class="cls-6" d="M15.39,14.47a3.13,3.13,0,0,1-.71,1.6A4.24,4.24,0,0,0,13.89,18l-1.31-.07a6,6,0,0,1,.92-1.69,10.48,10.48,0,0,0,1.07-1.46Z"/></svg>