<svg id="Capa_1" data-name="Capa 1" xmlns="http://www.w3.org/2000/svg" viewBox="0 0 27.68 27.45"><defs><style>.cls-1{fill:#fbc8ba;}.cls-2{fill:#f05050;}.cls-3{fill:#fff;}.cls-4{fill:#f5a4c7;}.cls-5,.cls-6{fill:#231f20;}.cls-6{fill-rule:evenodd;}</style></defs><title>4-30meses</title><path class="cls-1" d="M5.34,9.62v1.7s-.17,4.09.42,4.81a4.21,4.21,0,0,0,1.14,1l.71.1S7.38,19,7.27,19.36a1.37,1.37,0,0,0-.07.53s-1.36-.42-1.88,0S3.78,21.14,4.18,22a4.09,4.09,0,0,0,1.2,1.45s-3.23-.68-3.26,0,.23.64.34.67-.51.46.12.53l.64.08s-.79,0-.63.36.33.76.87.82,1.16.31,1.6.14a3.54,3.54,0,0,1,1.54-.29c.74,0,1,.48,1.34.35a10.21,10.21,0,0,1,1.19-.29s-.78.5-.19.55a3.2,3.2,0,0,0,1.17-.15s-.21.45.28.45.39.17.95.08a10.34,10.34,0,0,0,2.42-1.25,11.28,11.28,0,0,1,2.52-.9s2.22.13,2.66-1,.73-1.92,0-2.36-1.32-.66-1.32-.77a3.19,3.19,0,0,0-.43-1.11,1.61,1.61,0,0,0-1-.65l.23-.25s2.12-.14,2.11-1.11-.75-1.66-.69-2.33.25-1.06,0-1.47a9.28,9.28,0,0,0-1.29-1.23s.8-.64.51-.89a1.32,1.32,0,0,0-.85-.17s1.27-2.12-.36-3S9,6.32,8.28,6.73a11.91,11.91,0,0,0-2,2.1l-.15.62s-.75-.28-.75.17"/><path class="cls-2" d="M1.48,12.91S4,10.81,4.82,11s5.39,1.22,7.08,1.45a11.08,11.08,0,0,0,3.33.11c1-.12,1.39-.28,1.68,0s.87.88.87.88-.87-.69-1.21-.41a2.7,2.7,0,0,0-.41.41.43.43,0,0,0-.37.17c-.17.2-.34.44-.34.44s-.74-.15-.83.33.76,1,.76,1v.49l0,.14A4.56,4.56,0,0,1,13,15.65c-1.49-.48-2.18-1-2.86-.76s-2.49.31-3.09.73A5.36,5.36,0,0,1,6,16.21a.92.92,0,0,0,.52.62c.47.23-.72.34-.72.34s-1.33-.51-1.1-.81.07-1.74.07-1.74-3.22-.93-3.24-1.71"/><path class="cls-3" d="M9.44,22.64l2,.94s-.81.35-1.2.47a3,3,0,0,1-.81.13V22.64"/><path class="cls-4" d="M8.68,20.78a3.33,3.33,0,0,0,.94,1.86,4.64,4.64,0,0,0,1.85.85,22.29,22.29,0,0,1,3.63-2.58,12.22,12.22,0,0,1,2.76-.35,6,6,0,0,0-.8-1.12,7.31,7.31,0,0,1-.64-.7s.08.65-1,1.11-3,1.51-5,1.26-1.74-.33-1.74-.33"/><path class="cls-5" d="M16.87,20.26h0a2.88,2.88,0,0,0-.69.1l.08,0a4.82,4.82,0,0,0-1.67.47,7.2,7.2,0,0,0-1.21.86c-.7.58-1.3,1.2-2,1.71l-.43-.2a4.47,4.47,0,0,1-.58-.35,2.21,2.21,0,0,1-.29-.22,3.08,3.08,0,0,1-.27-.24,3.81,3.81,0,0,1-.47-.52c-.14-.17-.25-.34-.36-.48s-.2-.31-.26-.4a6.22,6.22,0,0,0,1.06.21c.3,0,.61.05.91.06s.59,0,.91,0l.45,0,.46-.06a6.52,6.52,0,0,0,.9-.18,7.1,7.1,0,0,0,1.6-.62,5.59,5.59,0,0,0,1.29-.9v0l0,0c0-.2.07-.4.1-.59a1.78,1.78,0,0,1,.24.24,1.41,1.41,0,0,1,.21.31,1.18,1.18,0,0,0,.1.19l.13.21a4.29,4.29,0,0,0,.46.56,3.07,3.07,0,0,0-.68,0m-6.18,3.5h0l-.34.12L10,24,9.61,24a1.42,1.42,0,0,0,.13-.46,1.63,1.63,0,0,0,0-.62c.09.05.17.11.26.15a1.92,1.92,0,0,0,.39.17,2,2,0,0,0,.38.11,2.34,2.34,0,0,0,.46.08A5.25,5.25,0,0,1,10.69,23.76Zm-3-3.59h0a1.4,1.4,0,0,1-.23-.57,2.9,2.9,0,0,1,.12-1.16,9.65,9.65,0,0,1,.32-1.17h0c0-.05,0-.09,0-.13L7.94,17c.08-.1.15-.21.23-.32A4.7,4.7,0,0,0,8.52,16a1.75,1.75,0,0,0,.11-.33,2.4,2.4,0,0,0-.41.21,2.46,2.46,0,0,0-.62.59,1.47,1.47,0,0,0-.21.53l-.74-.25a2.73,2.73,0,0,1-.45-.24A.86.86,0,0,1,6,16.34.35.35,0,0,1,6,16.21c.16-.06.33-.13.51-.18.49-.15,1-.26,1.53-.38l1.52-.36a7.19,7.19,0,0,1,.76-.14,2.62,2.62,0,0,1,.67,0,1.61,1.61,0,0,1,.56.22l.33.18.08,0,.1,0,.18.07a6.09,6.09,0,0,0,1.67.32,10.15,10.15,0,0,0,1.46,0l-.06.2-.17.46a1.6,1.6,0,0,0-.2,1,.93.93,0,0,0,.44.48l.52.33a1.85,1.85,0,0,0,.45.19c-.11.22-.22.43-.32.65a5.54,5.54,0,0,1-.63.38,5.52,5.52,0,0,1-.69.34,6.67,6.67,0,0,1-.74.29c-.25.09-.51.17-.77.24s-.53.13-.8.18l-.4.07-.44,0-.85.06H9.8a4,4,0,0,1-1.62-.29A1.6,1.6,0,0,1,7.64,20.17ZM5.89,16.38h0a.63.63,0,0,0,.13.2,2.16,2.16,0,0,0,.33.27l-.25,0-.31,0-.26,0c-.09,0-.16-.06-.18-.11s.2-.27.41-.37l.1,0A.35.35,0,0,0,5.89,16.38Zm-.77.22h0a.34.34,0,0,1,0-.09l0-.12a3.21,3.21,0,0,0-.1-.88,6,6,0,0,0-.21-.69,1.34,1.34,0,0,0,.35,0,.3.3,0,0,0,.25-.19v-.06a2.86,2.86,0,0,0,.36-.32,2.3,2.3,0,0,0,.62-1.07.76.76,0,0,0,0-.34,1.33,1.33,0,0,0-.11-.3A2.5,2.5,0,0,0,6,12.06a2.34,2.34,0,0,0-.44-.42s0,.21.1.5l.13.49c0,.09,0,.18,0,.26a.53.53,0,0,1,0,.25,2.55,2.55,0,0,1-.15.52l-.17.49a2.13,2.13,0,0,0-.09.27,1.82,1.82,0,0,0-.22-.36,2.36,2.36,0,0,0-.3-.38,1.11,1.11,0,0,0-.22-.18,1.74,1.74,0,0,0-.26-.15,3.1,3.1,0,0,0-.58-.21,9.32,9.32,0,0,0-1.89-.31l.9-.74a16.31,16.31,0,0,1,1.73-1L4.78,11h.09A.19.19,0,0,1,5,11a3.58,3.58,0,0,1,.53.11l.19.05a.52.52,0,0,0,.2.07H6l.65.19.57.16s0,0,0,0h0c0,.1.07.2.21.22a.31.31,0,0,0,.33-.12c.36.09.73.19,1.1.27s.77.1,1.14.18l1.12.23a21.22,21.22,0,0,0,2.3.39,8,8,0,0,0,1.21.06,4.5,4.5,0,0,0,.63-.07l.57-.11c.36-.06.83-.2.84-.09s.29.19.42.28a.91.91,0,0,0-.51,0,.61.61,0,0,0-.25.17l0,0h-.19a.74.74,0,0,0-.28.11.45.45,0,0,0-.14.13.39.39,0,0,0-.11.25,1.08,1.08,0,0,0-.36,0,1.29,1.29,0,0,0-.39.19.9.9,0,0,0-.33.51.7.7,0,0,0,0,.25.54.54,0,0,0,.09.22.58.58,0,0,0,.36.24.61.61,0,0,0,.18,0A.37.37,0,0,1,15,15a.32.32,0,0,1-.09-.23.8.8,0,0,1,0-.15l.08-.18a1.1,1.1,0,0,1,.26-.31.53.53,0,0,1,.32-.12l.16,0a.59.59,0,0,1,.17.1,1.33,1.33,0,0,1,.24.22l.09.09a.39.39,0,0,0,0-.11.57.57,0,0,0,0-.32.56.56,0,0,0-.16-.21.73.73,0,0,0-.38-.16h0l.24-.08a.51.51,0,0,1,.25,0s0,0,0,0l.08.06.12.11.11.11.2.21.24.24a.5.5,0,0,0,.11-.29.72.72,0,0,0-.05-.31.75.75,0,0,0-.1-.17l-.15-.16a.85.85,0,0,0-.26-.15h.15a.38.38,0,0,1,.22.07l.09.07.09.11a1.66,1.66,0,0,1,.17.24l.16.24a2.41,2.41,0,0,0,.19.27.68.68,0,0,0,.15-.27,1.83,1.83,0,0,1,0,.66l-.27.54a.12.12,0,0,0,0,.13h0L18.16,17l0,.06v0l0,.12a1.08,1.08,0,0,1,0,.18,1.06,1.06,0,0,1-.17.38,1.52,1.52,0,0,1-.83.53,1.41,1.41,0,0,1-.54,0,1.72,1.72,0,0,1-.51-.18l-.53-.31a.66.66,0,0,1-.33-.3,1.57,1.57,0,0,1,.11-.88l.13-.47a2.09,2.09,0,0,0,.08-.5h0s-.05-.07-.11-.06l-.06,0-.05,0a.16.16,0,0,1-.06-.13.7.7,0,0,1,.07-.31.88.88,0,0,0,.1-.35.29.29,0,0,0-.27-.3v0a.22.22,0,0,1,.14.1.22.22,0,0,1,0,.16.85.85,0,0,1-.14.31.86.86,0,0,0-.13.36.32.32,0,0,0,.23.3.74.74,0,0,1,0,.14c-.48,0-1-.1-1.41-.18-.26,0-.51-.1-.75-.16a4.39,4.39,0,0,1-.67-.22l-.16-.09-.07,0-.07-.05-.3-.17a2,2,0,0,0-.84-.33,3,3,0,0,0-1,0c-.28,0-.54.11-.8.18-.52.13-1,.3-1.51.46s-1,.33-1.46.52c-.24.1-.48.2-.7.31a1.77,1.77,0,0,0-.33.19c-.09.07-.21.17-.18.31l0,0h0A.18.18,0,0,1,5.12,16.6Zm-.79-2.15h0a9.56,9.56,0,0,1-1-.39c-.6-.27-1.17-.57-1.74-.87.31,0,.63,0,.94.08a7.65,7.65,0,0,1,1.1.19,3,3,0,0,1,.48.17,1.2,1.2,0,0,1,.2.11.59.59,0,0,1,.17.12,3.39,3.39,0,0,1,.28.34,2.55,2.55,0,0,1,.23.34H4.87l-.29,0Zm3.81-3.77ZM7,10.53H7a1.51,1.51,0,0,0,.07-.37s.1-.06.11-.05,0,0,.07,0l0,0s0,0,0,0l0,0a.5.5,0,0,1,.12.32,1.5,1.5,0,0,1,0,.36,5.7,5.7,0,0,1-.16.55l-.52-.16h0A5.1,5.1,0,0,0,7,10.53Zm-.49-.61h0C6.42,9.93,6.45,9.92,6.49,9.92Zm0,0ZM6.26,11h0a5.32,5.32,0,0,0,.06-.56.88.88,0,0,1,0-.17A1,1,0,0,1,6.47,10l0,0a.4.4,0,0,1,.07.21,2,2,0,0,1,0,.35,3.38,3.38,0,0,1-.14.69l-.23-.07A.14.14,0,0,0,6.26,11Zm3.7.75h0A.37.37,0,0,0,10,12h0c-.38-.08-.79-.11-1.14-.17a10.78,10.78,0,0,1-1.12-.28v-.05a.83.83,0,0,0,0-.15c0-.09.06-.19.1-.28A2.1,2.1,0,0,1,8,10.83l.09-.11,0,0s-.05,0,0,0h0s0,0,0,.07a.83.83,0,0,1,0,.28,4.44,4.44,0,0,1-.08.61h0a2.48,2.48,0,0,0,.32-.6,1.55,1.55,0,0,0,0-.21,5,5,0,0,1,1,.13s.54-.05,0-.35a1.3,1.3,0,0,0-1-.08s0,0,0,0a.31.31,0,0,0-.17-.09l-.06,0H8.09a.73.73,0,0,0-.22.06l-.1.06v0a.82.82,0,0,0-.26-.4l-.07,0s0,0-.05,0h0a.69.69,0,0,0-.18,0L7,10s0,0,0-.05a.44.44,0,0,0-.19-.27.58.58,0,0,0-.11-.05l-.07,0H6.55a.51.51,0,0,0-.21,0l-.09,0a.79.79,0,0,0,0-.13V9.32L7.63,7.94,7.14,9.21l.49-.53-.25.83L10.13,7.6,9.46,8.94l1-.67-.31,1.06L11.7,7.79,11.45,9.7l1.34-1.32.84,1.47A3.3,3.3,0,0,0,13,9.79c-1.45,0-1.82.46-1.52.53s2-.62,3.35.23a1.6,1.6,0,0,0-1.11-.68l1-1.53.5,2.77.72-1.66v2a3.05,3.05,0,0,1-.43.65,2.28,2.28,0,0,1-.37.35h0a4.81,4.81,0,0,1-.53.07,8.54,8.54,0,0,1-1.13,0c-.71,0-1.43-.16-2.14-.27.57-.05.64-.16.64-.16S10.21,12.17,10,11.77Zm6.58-.34h.16c.05,0,.06,0,0,0s0,0,0,0v0h0v0s0,.07,0,.08a.87.87,0,0,1-.06.23l-.15.24-.05.08a1.39,1.39,0,0,0-.32,0l-.56.13-.21,0,.26-.18a3.37,3.37,0,0,0,.65-.73Zm2.84,11.08a2.59,2.59,0,0,0-.21-.84,3.73,3.73,0,0,0-.2-.4,2.27,2.27,0,0,0-.31-.4,2.18,2.18,0,0,0-.59-.4l0-.11a3.15,3.15,0,0,0-.39-.78l-.14-.2a1.51,1.51,0,0,0-.17-.2,1.27,1.27,0,0,0-.43-.31,1.42,1.42,0,0,0-.49-.13s0,0,0-.06l.14,0a2.31,2.31,0,0,0,.83,0A2.05,2.05,0,0,0,18.61,18a1.23,1.23,0,0,0,.25-.53,1,1,0,0,0,0-.3l0-.12V17l0-.06-.73-1.78.24-.5h0a.08.08,0,0,1,0,0,1.94,1.94,0,0,0-.47-1.68,2,2,0,0,0-.43-.34L17,12.28l-.13-.06a1,1,0,0,0,.32-.21.62.62,0,0,0,.2-.42.25.25,0,0,0,0-.1v0a.12.12,0,0,0,0-.05l0-.06a.51.51,0,0,0-.29-.23.61.61,0,0,0-.4,0l-.13,0a5.64,5.64,0,0,0,.26-.55,6.33,6.33,0,0,0,.34-1.14,2.16,2.16,0,0,0-.17-1.35,2.86,2.86,0,0,0-1.22-1.19,6.64,6.64,0,0,0-.9-.4,10.07,10.07,0,0,0-1-.27A11.85,11.85,0,0,0,11.76,6a12.33,12.33,0,0,0-2,.06,7.17,7.17,0,0,0-1.81.46,4.35,4.35,0,0,0-1.27.82,2.32,2.32,0,0,0-.58.94A2,2,0,0,0,6,9.05s0,.06,0,.09A.45.45,0,0,0,5.79,9H5.57l-.08,0a.43.43,0,0,0-.21.16.33.33,0,0,0-.07.13,1.29,1.29,0,0,0,0,.47,2.88,2.88,0,0,0,.19.87h.06a8.17,8.17,0,0,1,.09-.85,1.19,1.19,0,0,1,.12-.39l0,0a.78.78,0,0,1,0,.28c0,.14,0,.27,0,.41s-.05.54-.08.81A4.07,4.07,0,0,0,5,10.78l-.17,0h-.1l-.09,0-.3.1a16.9,16.9,0,0,0-1.9,1h0l-1.28,1A.19.19,0,0,0,1.1,13c0,.11.11.19.26.2h.08q.81.56,1.71,1.05a8.18,8.18,0,0,0,1,.45,1.67,1.67,0,0,0,.32.08l.22,0c0,.24,0,.49,0,.73a4.52,4.52,0,0,1,0,.83l0,.09a1.3,1.3,0,0,0,0,.13.5.5,0,0,0,.09.31.65.65,0,0,0,.38.21,1.44,1.44,0,0,0,.39,0l.3,0h.31l.63,0h0a.29.29,0,0,0,.21-.06,4.08,4.08,0,0,0,.42.17A4.64,4.64,0,0,0,7,18.39a2.27,2.27,0,0,0,.48,1.84,2,2,0,0,0,.59.48,2.66,2.66,0,0,0,.55.23,1.64,1.64,0,0,0,0,.49h0l-.29-.18a4.21,4.21,0,0,0-.39-.17,3.46,3.46,0,0,0-.9-.23,6.53,6.53,0,0,1,.68.42,4.85,4.85,0,0,1,.59.47,4.15,4.15,0,0,1,.52.59,3.53,3.53,0,0,1,.21.32A3.18,3.18,0,0,0,9.2,23a3,3,0,0,0,.11.32c0,.1,0,.2.08.29s.07.34.1.45v0l-1.1.19a1.82,1.82,0,0,0-.84.28,1.15,1.15,0,0,0-.18.29.4.4,0,0,0,0,.34.58.58,0,0,0,.38.23,2.9,2.9,0,0,0,.41.06.2.2,0,0,0-.06.09.15.15,0,0,0,.08.15.41.41,0,0,0,.14.08l.16.06.16,0h.09a1.14,1.14,0,0,1-.4.11,1.3,1.3,0,0,1-.56,0,1.06,1.06,0,0,1-.26-.1l-.29-.11a2.74,2.74,0,0,0-.67-.17,2.43,2.43,0,0,0-.76,0l-.36.1-.3.14a.39.39,0,0,1-.3.05.79.79,0,0,1-.16-.08.87.87,0,0,1-.14-.12h0A.44.44,0,0,0,4,25.61H4a.15.15,0,0,0,0-.2.39.39,0,0,0-.42-.06H3a2.3,2.3,0,0,1,.34-.12h0c.09,0,.14-.1.11-.17a.25.25,0,0,0-.27-.1h0l-.15,0h0a.88.88,0,0,1-.23,0H2.69A1.58,1.58,0,0,1,3,24.84l.44-.17h0a.08.08,0,0,0,0-.09.14.14,0,0,0-.13,0,2.07,2.07,0,0,1-.5,0,.85.85,0,0,1-.23,0l-.1,0-.1-.05s0,0,0-.08a.49.49,0,0,1,.16-.1l.2-.08.26-.07h0c.08,0,.11-.09.07-.14a.18.18,0,0,0-.21,0h0a.69.69,0,0,1-.56,0,.26.26,0,0,1-.09-.17.52.52,0,0,1,0-.21s0,0,0,0h0l.07,0,.32,0h.77c.52,0,1.08,0,1.62,0l.82,0h.4c.14,0,.28,0,.4,0l0,0a3.06,3.06,0,0,0-.4-.07l-.41,0-.76-.07h0c-.11-.12-.24-.31-.4-.53s-.14-.24-.2-.37a2.86,2.86,0,0,1-.15-.41,1.6,1.6,0,0,1,0-.44,1.13,1.13,0,0,1,.1-.44,1.46,1.46,0,0,1,.25-.41,1.81,1.81,0,0,1,.37-.36l.21-.14L5.44,20l.1-.05A2.75,2.75,0,0,1,6,19.85a4,4,0,0,1,.84,0,2.47,2.47,0,0,1,.33.05,1.79,1.79,0,0,0-.3-.13A2.65,2.65,0,0,0,6,19.61a2.5,2.5,0,0,0-.65.1l-.17.06L5,19.82l-.3.17a2,2,0,0,0-.83.91,1.54,1.54,0,0,0-.11.55,1.12,1.12,0,0,0,0,.27,2,2,0,0,0,.08.26,1.94,1.94,0,0,0,.25.45c.1.14.23.26.32.37l.33.27L5,23.2l-1.46-.12c-.28,0-.56,0-.85,0a3,3,0,0,0-.48.08.61.61,0,0,0-.26.12.35.35,0,0,0-.14.22.57.57,0,0,0,0,.34.64.64,0,0,0,.28.32.73.73,0,0,0,.25.08l-.09.09a.16.16,0,0,0,.07.25.34.34,0,0,0,.12.06l.14,0a1.26,1.26,0,0,0,.27,0,2.27,2.27,0,0,0-.43.19.27.27,0,0,0-.11.14c0,.1.13.16.17.17h0l-.08.05a.21.21,0,0,0-.09.27.45.45,0,0,0,.13.11l.11.05.18,0,.13,0h0l0,0a.22.22,0,0,0,.1.34.76.76,0,0,0,.18.06h.43l.3-.05.26-.07.06,0a1.21,1.21,0,0,0,.38.17,1.24,1.24,0,0,0,.51,0,1.34,1.34,0,0,0,.4-.15L5.72,26,6,26a1.74,1.74,0,0,1,.52-.05L7,26l.28.09a2.84,2.84,0,0,0,.34.08,1.57,1.57,0,0,0,1.2-.26h.06l0,0a.49.49,0,0,0-.13.12.19.19,0,0,0,0,.2.37.37,0,0,0,.22.14,1,1,0,0,0,.2,0,1.88,1.88,0,0,0,.58,0,.2.2,0,0,0,.08.22l.15.08.07,0,.2,0h.18l.12,0a.13.13,0,0,0,0,.1.48.48,0,0,0,.3.15h.38a3.42,3.42,0,0,0,1.91-1l.07-.09,0,0,.18-.1.46-.2c.64-.25,1.31-.48,1.95-.76a7.78,7.78,0,0,0,.91-.47,4,4,0,0,0,.39-.29l.15-.18.1-.18h-.06l-.13.17L17,24a4,4,0,0,1-.41.24c-.29.15-.62.27-.94.4-.65.24-1.33.44-2,.67a5.21,5.21,0,0,0-.5.2,1.58,1.58,0,0,0-.26.13.69.69,0,0,0-.13.11l-.07.08a2.75,2.75,0,0,1-.7.51,2.52,2.52,0,0,1-.82.29l.14-.1h0a.16.16,0,0,0,0-.27.39.39,0,0,0-.39,0h0l-.19.08a.66.66,0,0,1-.2.06l-.22,0h-.15a.1.1,0,0,1,0-.05,2.45,2.45,0,0,1,.35-.26h0a.11.11,0,0,0,0-.19.27.27,0,0,0-.3,0h0l-.29.17a1.84,1.84,0,0,1-.25.09,1.65,1.65,0,0,1-.63.06.44.44,0,0,1-.15,0l0,0s0,0,0,0a.25.25,0,0,1,.07-.08,1.85,1.85,0,0,1,.36-.23l.15-.08h0l0,0a.06.06,0,0,0,0-.09.13.13,0,0,0-.16,0h0l-.27.13a1,1,0,0,1-.24,0,1.43,1.43,0,0,1-.29,0l-.14,0-.13-.05c-.1,0-.13-.07-.14-.1s.08-.08.17-.11h0A1.56,1.56,0,0,0,9,25.28s.05-.05,0-.08-.07-.06-.12,0a3,3,0,0,0-.45.12l-.31,0c-.25,0-.54-.07-.58-.2s.08-.32.19-.45a1.63,1.63,0,0,1,.66-.16c.54-.07,1.1-.11,1.66-.21l.42-.1a2.41,2.41,0,0,0,.41-.13,4,4,0,0,0,.72-.36,9.43,9.43,0,0,0,1.14-.86c.36-.3.7-.6,1.06-.88A7.75,7.75,0,0,1,15,21.17a3.9,3.9,0,0,1,1.38-.39h.08a2.1,2.1,0,0,1,.46-.08,2.63,2.63,0,0,1,.49,0,1.55,1.55,0,0,1,.79.39,2.32,2.32,0,0,1,.26.3,3.71,3.71,0,0,1,.21.37,2.61,2.61,0,0,1,.25.76c0,.13,0,.26,0,.38a1.74,1.74,0,0,1-.05.39,1.78,1.78,0,0,1-.14.36,1.44,1.44,0,0,1-.28.33.66.66,0,0,1-.18.14,1.07,1.07,0,0,1-.21.13l-.23.1-.26.08a4.65,4.65,0,0,1-.56.1c-.19,0-.39,0-.58,0v.05c.2,0,.4,0,.6,0a4.22,4.22,0,0,0,.61-.07,2.47,2.47,0,0,0,.29-.06l.28-.1a1.57,1.57,0,0,0,.26-.12,1,1,0,0,0,.23-.16,1.75,1.75,0,0,0,.36-.36,2.27,2.27,0,0,0,.21-.41,2.13,2.13,0,0,0,.1-.42A2.06,2.06,0,0,0,19.38,22.51Z"/><path class="cls-5" d="M7.34,9.91l-.07,0,.07,0"/><path class="cls-5" d="M7.34,9.91a2.79,2.79,0,0,1,1.84,0c1.08.37.8.42,1,.2S9,9.25,7.34,9.91"/><path class="cls-5" d="M12.79,11.11c.56-.14,1.31.18,1.34,0s-.24-.3-1.05-.39a1.33,1.33,0,0,0-1.14.25c-.18.13.28.29.85.14"/><path class="cls-5" d="M4.76,3.24a1.44,1.44,0,0,0,.5.09c.36,0,.57-.16.57-.4s-.18-.35-.46-.49-.65-.35-.65-.65.37-.63.92-.63a1.23,1.23,0,0,1,.48.09L6,1.48a1.06,1.06,0,0,0-.41-.08c-.34,0-.5.18-.5.34s.18.33.51.49.59.42.59.68-.42.66-1,.66a1.61,1.61,0,0,1-.59-.1Z"/><path class="cls-5" d="M7.69,2.53h0c0-.34-.18-.49-.37-.49s-.39.25-.4.49Zm-.78.2c0,.52.31.63.59.63a1.08,1.08,0,0,0,.41-.07l.06.2a1.66,1.66,0,0,1-.54.08.8.8,0,0,1-.9-.85.82.82,0,0,1,.83-.9.68.68,0,0,1,.71.76v.15Z"/><path class="cls-5" d="M9.59,2.93h0a.61.61,0,0,0,0,.14.37.37,0,0,0,.36.28c.33,0,.43-.3.43-.65s-.12-.64-.43-.64a.38.38,0,0,0-.36.3.62.62,0,0,0,0,.13Zm-.4-.55c0-.26,0-.41,0-.53h.35l0,.22h0a.61.61,0,0,1,.52-.25c.43,0,.71.32.71.88s-.37.88-.76.88a.48.48,0,0,1-.43-.2h0v.85h-.4Z"/><path class="cls-5" d="M11.47,2.7h0c0,.28.08.67.43.67s.41-.4.41-.67S12.24,2,11.89,2s-.42.4-.42.66m1.24,0a.8.8,0,0,1-.83.88.78.78,0,0,1-.8-.87.8.8,0,0,1,.83-.89A.78.78,0,0,1,12.71,2.7Z"/><path class="cls-5" d="M13.1,2.29c0-.2,0-.3,0-.44h.34l0,.21h0A.71.71,0,0,1,14,1.82a.54.54,0,0,1,.6.59V3.55h-.4V2.46c0-.2-.05-.41-.34-.41a.38.38,0,0,0-.37.28.34.34,0,0,0,0,.15V3.55H13.1Z"/><path class="cls-5" d="M16.17,2.53h0c0-.34-.18-.49-.37-.49s-.39.25-.4.49Zm-.78.2c0,.52.31.63.59.63a1.12,1.12,0,0,0,.41-.07l.06.2a1.66,1.66,0,0,1-.54.08.8.8,0,0,1-.9-.85.82.82,0,0,1,.83-.9.68.68,0,0,1,.71.76v.15Z"/><path class="cls-5" d="M18.6,2.67h0c-.21,0-.68,0-.68.4a.28.28,0,0,0,.3.3.37.37,0,0,0,.37-.26.28.28,0,0,0,0-.09Zm0,.88,0-.18h0a.62.62,0,0,1-.49.21c-.33,0-.59-.19-.59-.48s.5-.62,1.06-.62V2.42c0-.22-.09-.38-.4-.38a.91.91,0,0,0-.41.09l-.08-.19a1.28,1.28,0,0,1,.57-.12c.5,0,.72.23.72.61v.74a2.36,2.36,0,0,0,0,.38Z"/><rect class="cls-5" x="19.49" y="1.12" width="0.39" height="2.43"/><path class="cls-5" d="M21.52,2.44h0a.43.43,0,0,0,0-.12.37.37,0,0,0-.36-.26c-.29,0-.44.26-.44.64s.2.63.44.63a.35.35,0,0,0,.35-.25.4.4,0,0,0,0-.15Zm.41-.59c0,.12,0,.27,0,.53v1c0,.45-.08.62-.25.74a1.06,1.06,0,0,1-.66.18,1.62,1.62,0,0,1-.54-.08L20.55,4A1.59,1.59,0,0,0,21,4c.31,0,.51-.13.51-.52V3.34h0a.58.58,0,0,1-.48.21.74.74,0,0,1-.72-.84.79.79,0,0,1,.77-.89.49.49,0,0,1,.46.23h0l0-.2Z"/><path class="cls-5" d="M23.89,3.09c0,.19,0,.33,0,.46h-.34l0-.18h0a.73.73,0,0,1-.53.21c-.44,0-.61-.23-.61-.65V1.85h.4v1c0,.27.06.46.33.46a.35.35,0,0,0,.35-.22.41.41,0,0,0,0-.16V1.85h.4Z"/><path class="cls-5" d="M24.39,2.29c0-.2,0-.3,0-.44h.34l0,.21h0a.71.71,0,0,1,.57-.24.54.54,0,0,1,.6.59V3.55h-.4V2.46c0-.2-.05-.41-.34-.41a.38.38,0,0,0-.37.28.61.61,0,0,0,0,.15V3.55h-.39Z"/><path class="cls-5" d="M21.36,5.45c0-.15,0-.31,0-.44h.35l0,.27h0a.6.6,0,0,1,.53-.3h.08v.28h-.08a.47.47,0,0,0-.48.35.78.78,0,0,0,0,.16v.94h-.39Z"/><path class="cls-5" d="M22.8,5.86h0c0,.28.07.66.43.66s.4-.4.4-.66-.06-.66-.41-.66-.42.4-.42.66m1.23,0a.79.79,0,0,1-.82.88.78.78,0,0,1-.81-.88A.8.8,0,0,1,23.23,5,.78.78,0,0,1,24,5.86Z"/><path class="cls-5" d="M24.81,6.08h0a.53.53,0,0,0,0,.14.37.37,0,0,0,.37.29c.33,0,.43-.31.43-.65s-.13-.65-.44-.65a.39.39,0,0,0-.36.31.57.57,0,0,0,0,.13Zm-.4-.54c0-.26,0-.41,0-.53h.36l0,.22h0A.6.6,0,0,1,25.3,5c.43,0,.72.32.72.88a.77.77,0,0,1-.77.88.49.49,0,0,1-.43-.2h0v.84h-.4Z"/><path class="cls-6" d="M13.26,15.84A1.8,1.8,0,0,0,13,16.92s.59.79.25,1a9.32,9.32,0,0,1-.83.5,2.51,2.51,0,0,1-.53-1.09c0-.42.47-.44.47-.44l-.2-1.48Z"/><path class="cls-6" d="M8.74,15.26l-.35,1.91s.62.56.35.84a5.63,5.63,0,0,1-.81.64,2.47,2.47,0,0,1-.47-.86c-.14-.48.38-1.29.38-1.29l-.09-.8Z"/></svg>