<svg id="Capa_1" data-name="Capa 1" xmlns="http://www.w3.org/2000/svg" viewBox="0 0 30.56 28.51"><defs><style>.cls-1{fill:#0070a2;}.cls-2{fill:#f05050;}.cls-3{fill:#b3d335;}.cls-4{fill:#f5a4c7;}.cls-5{fill:#fbc9b7;}.cls-6,.cls-9{fill:#231f20;}.cls-7{fill:#acd03d;}.cls-8{fill:#fcd2be;}.cls-9{fill-rule:evenodd;}</style></defs><title>5-30meses</title><path class="cls-1" d="M14.48,18.62l-1.24.5-.2.71,1.21-.33s.41-.78.23-.88"/><path class="cls-2" d="M13.17,19.17l1.2-.41s0-.16-.1-.19l-.73-.5-1.21.35Z"/><path class="cls-3" d="M13.24,19.12l-.13.71-.31-.06s-.72-.7-.72-.7l.17-.56Z"/><path class="cls-4" d="M26.48,21.91S28.83,22.82,29,23a3,3,0,0,1,.23,1.73c-.16.2,0,1.52-1.36,1.77A7,7,0,0,1,24.74,26S22,23.64,22,23.6s4.45-1.69,4.45-1.69"/><path class="cls-5" d="M23,24s-.22-.34-.14-.46a3,3,0,0,1,.86-.2l4.2-.47h1A12.41,12.41,0,0,0,27.24,20c-.91-1-2.09-2-2.12-2.24a2.84,2.84,0,0,1,.09-1.11c.12-.24.29-1-.21-1.29s-4-1.81-4.35-1.62-.92.55-.92.55a.85.85,0,0,0,0,1c.34.49.66.74.33,1.06s-.39.53-.07.66l.32.13s-.26.1-.22.22.68.18.68.18-.41.1-.42.25.32.19.32.19-.33.21-.19.28a7.51,7.51,0,0,0,1,.21,9.8,9.8,0,0,1-1.68.26,11.84,11.84,0,0,1-4-.71c-1.6-.64.45.76.45.76s.19.21-.14.35-.48.27-.31.38a7.16,7.16,0,0,0,1.56,0,4.86,4.86,0,0,0,1.58.44c1,.13,2.11.21,2.11.21l1.07-.17s-.13.76.06,1a1.44,1.44,0,0,1,.27.59s-.52.15-.79-.12-.72-.67-.92-.67,0,.12-.24.2-.33,0-.34.19-.32.57-.25.72.32.27.47.43a8.61,8.61,0,0,0,1.46.57.44.44,0,0,1-.43.13,6.18,6.18,0,0,0-1.65,0,2,2,0,0,0-.53.47,2.73,2.73,0,0,1-1.2.1c-.37-.14-.7-.19-.74-.1s0,.05-.05.27-.15.26-.15.26l.19.17s-.88.09-1,.23a1.27,1.27,0,0,0-.18.69.58.58,0,0,0,.58.54,12.39,12.39,0,0,0,1.47-.2,8.71,8.71,0,0,0,2.5,1.1c.87.08,2,.22,3.13.29a6.66,6.66,0,0,0,2.78-.21c1-.32,1.39-1,.95-1.66a3.11,3.11,0,0,0-2.69-1.08c-1,.13-1.87.3-1.87.3"/><path class="cls-6" d="M20.93,16.37a.5.5,0,0,1-.28-.26s-.14,0-.13.06-.21-.25.26-.14a.85.85,0,0,1,.61.4l-.3-.14s.05.17-.16.08"/><polygon class="cls-6" points="19.34 15.34 19.37 15.27 19.37 15.28 19.34 15.34"/><path class="cls-6" d="M15.26,18h0m.24,0h0a2.84,2.84,0,0,1,.31.06,7.36,7.36,0,0,1,.92.25,2.77,2.77,0,0,0,.46.14l.48.1c.33.07.65.12,1,.17a8.39,8.39,0,0,0,1,.06,4.43,4.43,0,0,0,1-.08,2.73,2.73,0,0,0,.83-.3c.25,0,.5,0,.76,0a1.17,1.17,0,0,0-.19.39.86.86,0,0,0,0,.24,1.38,1.38,0,0,0,.06.26,1,1,0,0,1,0,.51l-.69,0c-.23,0-.49,0-.77,0h-.91a2.37,2.37,0,0,1-.46,0,2.58,2.58,0,0,1-.42-.12l-.37-.14-.36-.09a4.11,4.11,0,0,0-.55-.1l-.12,0,.16-.1v0h0a1.7,1.7,0,0,1-.85.12h-.24l-.25,0a.57.57,0,0,1-.28,0s0,0,0,0,0-.05,0,0l.15-.05.23-.09c.09,0,.22-.13.23-.23a.36.36,0,0,0,0-.24,1.1,1.1,0,0,0-.29-.32h0l0,0A5.91,5.91,0,0,1,15.5,18Zm6.76,1.61h0a.68.68,0,0,1,.07-.28,1.72,1.72,0,0,0,.1-.26,1.79,1.79,0,0,0,0-.23,1.69,1.69,0,0,0,0-.35s0,0,0-.06h.27l.29,0h0s0,0,0,0a.45.45,0,0,1,0,.16h0c0,.06,0,.11.11.12a.16.16,0,0,0,.17-.08h0a.49.49,0,0,0,0-.24.19.19,0,0,0-.1-.13l-.11-.05h-.12l-.29,0h-.28a10.84,10.84,0,0,1-1.14,0l-.27,0a2,2,0,0,1-.26-.06c-.08,0-.12-.06-.1-.08s0,0,0-.08,0,0,0-.09a.18.18,0,0,0-.09-.07c-.09,0-.16-.05-.17-.08a.11.11,0,0,1,0-.08s0,0,0,0a.05.05,0,0,1,0,0,2.44,2.44,0,0,1,.5-.16c.05,0,.07,0,.05-.06a.07.07,0,0,0-.07,0H20.5a.84.84,0,0,1-.35-.07l.06-.09a.56.56,0,0,0,.1-.15.07.07,0,0,0,0-.11l-.1,0L20,16.84c-.12-.06-.21-.12-.15-.2a1.89,1.89,0,0,1,.25-.23c.1-.07.2-.19.17-.31a1.64,1.64,0,0,0-.14-.3c-.11-.18-.23-.37-.32-.55a.84.84,0,0,1-.07-.58,1.78,1.78,0,0,1,.14-.36l.62,1a.36.36,0,0,0-.4.18c.7-.23,1.62.52,1.62.52a2.48,2.48,0,0,0-1.21-.69l0-1,.39.6-.19-.78.71.87.36.53-.16-.91.52.85,0-.65.65.79.44.45-.09-.45.46.52-.1-.5c0-.4,0-.23,0-.23a.93.93,0,0,0,.22.5,1.07,1.07,0,0,1-.32.68l.33-.23v0h0l-.11.31c.42-.28.5-.37.88-.37h0l0,0v0a.36.36,0,0,1,0,.18.91.91,0,0,1-.49.64,1,1,0,0,1-.34.08h-.14v0l.15,0a1,1,0,0,0,.41,0,1.09,1.09,0,0,0,.25-.1,1.16,1.16,0,0,0,.21-.16,1,1,0,0,0,.3-.43.65.65,0,0,0,0-.2.43.43,0,0,1,.2.43l-.1.39a.65.65,0,0,0-.11.34.82.82,0,0,0,.41.63c.21.16.39.29.58.45a9.51,9.51,0,0,1,1.79,2c.25.36.47.73.68,1.1a7,7,0,0,1,.48,1l-.25,0a7.22,7.22,0,0,0-.93,0c-.6,0-1.2.1-1.8.17s-1.18.16-1.77.26l-.22,0A2.36,2.36,0,0,0,25,22.54a2.48,2.48,0,0,0,.32-.5l.21-.5a9.25,9.25,0,0,0,.37-1,1.18,1.18,0,0,0-.11-1.05h0s0,0,0,0a1.33,1.33,0,0,1-.12,1c-.15.32-.33.64-.51,1a4.39,4.39,0,0,1-.52.93,1.8,1.8,0,0,1-.95.63l-.16,0h-.14L23,23l-.7-.16a12.1,12.1,0,0,1-1.37-.42,6.54,6.54,0,0,1-.59-.3.85.85,0,0,1-.22-.18,0,0,0,0,1,0,0l0,0a.17.17,0,0,0,0-.18.33.33,0,0,1,0-.1l.06-.06a.51.51,0,0,0,.14-.3v-.17h.13a.21.21,0,0,0,.24-.09.06.06,0,0,0,0,0h0a.37.37,0,0,1,0-.18h0l.14.11a1.14,1.14,0,0,0,.19.1l.11.06a.39.39,0,0,1,.08.1,1.27,1.27,0,0,0,.17.27l.1.07a.33.33,0,0,0,.13,0,.66.66,0,0,0,.24,0,3.82,3.82,0,0,0,.69-.11s0,0,0,0a.54.54,0,0,0,.05.24.48.48,0,0,0,0,.08s0,0,0,0h0a1.9,1.9,0,0,0,.21-.29,2.09,2.09,0,0,0,.14-.3,2.41,2.41,0,0,1,.07-.35,5.86,5.86,0,0,1,.2-.66c.06-.17.11-.29.11-.29s0,0,0,0h0l-.22.28a3.61,3.61,0,0,0-.39.63,1.94,1.94,0,0,0-.18.35.66.66,0,0,0,0,.24h-.12s0-.06,0-.1,0-.21,0-.35a2.07,2.07,0,0,0,0-.48c0-.09,0-.18,0-.28s-.05-.18-.07-.28A.75.75,0,0,1,22.26,19.62ZM22,23h0l.15.06a7,7,0,0,0,.69.22,3.16,3.16,0,0,0,.42.08h.16l-.3.06a.79.79,0,0,0-.23.08.24.24,0,0,0-.1.17.6.6,0,0,0,.05.32h0a3.9,3.9,0,0,0-.57.13,3.06,3.06,0,0,0-.58.2A6.2,6.2,0,0,0,21,24.2a5.89,5.89,0,0,0-.84,0,3.65,3.65,0,0,1-.75,0,1.32,1.32,0,0,1-.3-.09L19,24l-.07,0h0l0,0h0l0,0-.28-.07-.24,0c-.16,0-.31,0-.45,0l-.58.09v0a.19.19,0,0,0-.08-.07l0,0h0s0,0,0,0l.05,0a.5.5,0,0,1,.12-.08c.06,0,.07-.09,0-.14l0,0a.14.14,0,0,1-.05-.09h0c.06,0,.14,0,.22,0l.15,0a.58.58,0,0,0,.18,0,2.43,2.43,0,0,0,.71,0,2.77,2.77,0,0,0,.66-.15h0a.1.1,0,0,0,.07-.07v-.12a.75.75,0,0,1,.07-.12l.14-.09L19.7,23a2.74,2.74,0,0,1,.81,0H22Zm-4.75.46Zm-.2.8h0l.82-.07a2.29,2.29,0,0,1,.37,0h.16l.11,0,0,0h0l.09.05.19.08a1.57,1.57,0,0,0,.45.12,2.92,2.92,0,0,0,.89,0,7,7,0,0,1,.79-.08,3.11,3.11,0,0,1,.61,0l-.57.46h0s-.05.08,0,.11a.15.15,0,0,0,.16,0h0c.25-.14.51-.28.75-.43a3.14,3.14,0,0,1,.52-.19l.58-.17L24,23.9H24l.55,0a3.32,3.32,0,0,1,.54,0,4.38,4.38,0,0,1,.52,0,2.68,2.68,0,0,1,.49.11,2.92,2.92,0,0,1,.44.19,3.27,3.27,0,0,1,.36.25,2,2,0,0,1,.29.29,2.1,2.1,0,0,1,.22.33s0,.11.08.17l0,.05a0,0,0,0,0,0,0v.08a.38.38,0,0,1,0,.15.7.7,0,0,1-.32.42,2.75,2.75,0,0,1-.38.24,6.25,6.25,0,0,1-.92.34h0a.16.16,0,0,0-.12.1,1.92,1.92,0,0,1-.24,0c-.17,0-.35,0-.52,0l-1,0-.52,0H23a9.1,9.1,0,0,1-1.05-.09c-.35,0-.69-.11-1-.18l-.49-.09c-.15-.05-.3-.09-.44-.15a8.06,8.06,0,0,1-.83-.42c-.26-.15-.53-.3-.78-.46h0a.21.21,0,0,0-.17,0l-.95.18-.23,0-.22,0a1.24,1.24,0,0,1-.27,0h.1a.49.49,0,0,0,.15,0,.56.56,0,0,0-.11-.08l-.13-.05-.08,0h0l0,0h.05s0,0,0,0h0l.12,0a.36.36,0,0,0,.13,0,.19.19,0,0,0-.07-.07.31.31,0,0,0-.1,0h-.06l-.1-.06a.72.72,0,0,0,.25,0,.51.51,0,0,0,.14-.05.38.38,0,0,0-.11-.07.88.88,0,0,0-.2-.09s-.08,0-.11-.05a.13.13,0,0,1,0-.07h0a.93.93,0,0,0,.22,0h.19s0,0,0,0h0a0,0,0,0,0,0,0s0,0,0,0-.25-.07-.3-.12-.05-.1,0-.15a.5.5,0,0,1,.27-.05h.44Zm10.65,2.13h0l-.64.07h0a2.64,2.64,0,0,0,.46-.27,1.09,1.09,0,0,0,.35-.36,1.07,1.07,0,0,0,.1-.22.88.88,0,0,0,0-.23l0-.11,0-.06,0-.05-.1-.19a2.26,2.26,0,0,0-.26-.37,1.91,1.91,0,0,0-.36-.33,3.7,3.7,0,0,0-.44-.28c-.17-.07-.34-.14-.53-.2a3.71,3.71,0,0,0-.58-.11,3.85,3.85,0,0,0-.59,0,5.23,5.23,0,0,0-.57.06l-.55.09-.54.08a5.15,5.15,0,0,1-.53.07c0-.19,0-.44.29-.44l.88-.1,1.78-.18c.6-.06,1.19-.12,1.78-.16.29,0,.59,0,.87,0s.6,0,.6.16a7.34,7.34,0,0,1,0,1.24c0,.2,0,.41-.05.61a1.84,1.84,0,0,1-.16.6,1.29,1.29,0,0,1-.45.48A2.17,2.17,0,0,1,27.74,26.35ZM15,17.8a.23.23,0,0,0-.09.11s0,0,0,.06a.38.38,0,0,0,0,.08l.1.09a4.9,4.9,0,0,0,.78.42,1.16,1.16,0,0,1,.18.22.12.12,0,0,1,0,.07s0,0,0,0l-.17.07a1.19,1.19,0,0,0-.25.11.24.24,0,0,0-.11.14.14.14,0,0,0,0,.06h0v0a.29.29,0,0,0,.16.25.84.84,0,0,0,.33.08,1.27,1.27,0,0,0,.28,0,1.77,1.77,0,0,1,.21,0l.23,0a2.57,2.57,0,0,0,.47-.08l.15,0a2.44,2.44,0,0,0,.62.3,1.89,1.89,0,0,0,.36.1,3,3,0,0,0,.44.05,3.47,3.47,0,0,1,.45.06c.16,0,.3.07.46.1a2.56,2.56,0,0,0,.46.11l.47.05a3.3,3.3,0,0,0,.45,0l.4-.05A2.41,2.41,0,0,0,22,20l0,0a2,2,0,0,0-.06.26,2.83,2.83,0,0,0,0,.29.74.74,0,0,0,0,.26,1.35,1.35,0,0,0,.08.24,1.43,1.43,0,0,0,.22.34.45.45,0,0,0,.07.07,3.85,3.85,0,0,1-.48,0,.65.65,0,0,1-.16,0s0,0,0,0,0,0,0,0a.79.79,0,0,1-.1-.24.76.76,0,0,0-.11-.16.52.52,0,0,0-.18-.12l-.13-.08-.12-.1-.08-.07a.33.33,0,0,0-.2-.06.34.34,0,0,0-.23.05.29.29,0,0,0-.11.09.56.56,0,0,0-.09.17h0a.44.44,0,0,0-.33.12.17.17,0,0,0,0,.12v.2a.26.26,0,0,1,0,.19l0,0,0,0a.18.18,0,0,0,0,.1.35.35,0,0,0,.07.15s0,.05,0,.07a.22.22,0,0,0,0,.1.18.18,0,0,0,0,.09,1.37,1.37,0,0,0,.3.19c.21.1.4.21.63.3l.64.24-.14,0a5,5,0,0,0-.87,0l-.21,0-.22,0a1.66,1.66,0,0,0-.21.06,1.17,1.17,0,0,0-.2.06l-.2.07-.17.11-.13.13,0,.09a5.07,5.07,0,0,1-.55,0,2,2,0,0,1-.56-.06l-.13,0-.15,0a1.2,1.2,0,0,0-.4-.06.79.79,0,0,0-.28.06.27.27,0,0,0-.15.21.32.32,0,0,0,.12.22l0,.05,0,.09a.13.13,0,0,0,0,.13.2.2,0,0,0,.09.05h0l0,0H17l-.18,0h-.2a.79.79,0,0,0-.46.18.21.21,0,0,0-.07.18c0,.06.05.1.11.13a.24.24,0,0,0-.11.06.12.12,0,0,0,0,.14.34.34,0,0,0,.08.09.25.25,0,0,0-.05.07.14.14,0,0,0,0,.09s-.05,0-.07.1,0,.17.14.25l.1,0a.73.73,0,0,0,.41.16.82.82,0,0,0,.27,0h.25l.86-.08a6,6,0,0,0,1.65.87,2.74,2.74,0,0,0,.53.13c.2,0,.38,0,.55.05q.53,0,1.05.09l1,.17a7.49,7.49,0,0,0,1.06.13,6.67,6.67,0,0,0,1.84-.14.24.24,0,0,0,.19.08,8.89,8.89,0,0,0,.93-.09c.3,0,.58-.07.9-.13a2.17,2.17,0,0,0,.82-.35,1.27,1.27,0,0,0,.45-.57,4.43,4.43,0,0,0,.18-1.24c0-.41.08-.82.09-1.24a.25.25,0,0,0-.1-.2.64.64,0,0,0-.24-.11l-.17,0a7.38,7.38,0,0,0-.38-1,12.51,12.51,0,0,0-.6-1.14,8.53,8.53,0,0,0-1.73-2.13,6.47,6.47,0,0,0-.57-.47.57.57,0,0,1-.29-.44.47.47,0,0,1,.06-.19c.51-.5,2-.38,2.13-2s-2-2.68-3-2.8a6.58,6.58,0,0,0-3.3.36l-.28.11-.2.1-.06,0a1.91,1.91,0,0,0-1.24,2.08l.16-.49a1.1,1.1,0,0,0,.11.5c.11.2.23.38.34.56a1.22,1.22,0,0,1,.14.28c0,.08,0,.16-.13.23a1.33,1.33,0,0,0-.27.26.13.13,0,0,0,0,.18.48.48,0,0,0,.17.12l.19.09.07,0s0,0,0,0l-.08.12-.06.07s-.05.07,0,.12a.46.46,0,0,0,.24.1l.22,0h.06l-.18.07-.07,0s-.05.07,0,.08a.14.14,0,0,0,0,.11c0,.1.18.14.25.17h0a.53.53,0,0,0-.07.1.13.13,0,0,0,.05.14.55.55,0,0,0,.15.08,2.83,2.83,0,0,0,.58.11h.13a6,6,0,0,1-.72.13,6,6,0,0,1-.95,0l-1-.05-1,0a3.7,3.7,0,0,1-.48-.07,1.73,1.73,0,0,1-.44-.14c-.29-.11-.57-.23-.88-.33a3.31,3.31,0,0,0-.5-.13A.55.55,0,0,0,15,17.8Z"/><path class="cls-6" d="M12.32,19.1h0a2.83,2.83,0,0,0,0-.29,1.42,1.42,0,0,0,0-.2c.12.1.24.2.37.29s.32.21.49.31l0,0v0c-.08.12-.15.24-.22.36-.06-.06-.11-.12-.17-.17l-.43-.34m.95.58h0c0-.13.06-.26.08-.39h0s0-.05,0-.07a3.28,3.28,0,0,1,.54-.24l.57-.13a3.31,3.31,0,0,0-.45.47,4.52,4.52,0,0,0-.5.23Zm.9-1h0a3.13,3.13,0,0,1-.36.19,2.43,2.43,0,0,1-.54.17,3.4,3.4,0,0,0-.32-.34l-.23-.21a4.88,4.88,0,0,0,.83-.4,1.7,1.7,0,0,0,.34.37Zm-2.23.46a.07.07,0,0,0,0,.07l0,0c.12.13.25.27.39.4l.45.37h0a.28.28,0,0,0,.29,0,.12.12,0,0,0,.07-.07s0,0,0-.06l.48-.15c.19-.07.37-.16.54-.24h0l.05-.05a2.51,2.51,0,0,0,.28-.65l.19-.05-.18-.14a3.15,3.15,0,0,0-.47-.3,2.77,2.77,0,0,0-.55-.24h0a6.35,6.35,0,0,0-1.27.24l-.28.08.17.14a1.12,1.12,0,0,0-.11.26A2.47,2.47,0,0,0,11.94,19.15Z"/><path class="cls-1" d="M14.94,18.39l-2.15.29-1.66-.95a.69.69,0,0,1,.65-.23c.47,0,1.8,0,1.8,0s1.33.69,1.36.89"/><polygon class="cls-2" points="12.89 18.66 14.74 18.34 14.94 18.39 14.1 19.93 12.23 20.41 12.89 18.66"/><path class="cls-7" d="M12.28,19.94a12.21,12.21,0,0,0,.62-1.1l-1.67-1.11-.38,1.4Z"/><path class="cls-4" d="M7.1,21.84s1.45.59,1.15,1.09a6.5,6.5,0,0,1-1.87,1.21L2.64,24s-.88-.69-1-1.06a1.25,1.25,0,0,1,.39-1.3,8.7,8.7,0,0,0,1-.88Z"/><path class="cls-8" d="M9.82,19.29a2.31,2.31,0,0,0,.66-.36c.24-.23.22-.66.51-.62s.24.28.21.42-.06.13.09.26,1.32.06,1.36.21-.74.32-.74.32.94,0,1,.17-.72.3-.72.3.39.21.31.33a2.91,2.91,0,0,1-.67.37l-1.08-.17-2.94.31s.26.19.21.84.34.83-.61,1A8.37,8.37,0,0,1,4,22.4c-.81-.28-1.37-.66-1.27-1.6a4.87,4.87,0,0,1,.48-2.06c.22-.2.73-.49.88-.93s.41-.73.19-.86a1.57,1.57,0,0,1-.88-1.23c-.07-.79.6-2.22,1.49-2.31a11.63,11.63,0,0,1,3-.19c.46.2,2.08,1.32,2.09,1.6s-.51.58-.61,1.06A6.46,6.46,0,0,0,9.33,17,1.68,1.68,0,0,1,8.11,18a7.14,7.14,0,0,1-1.56.09l.21.1v.24a2.23,2.23,0,0,1,1.13,0c.59.19,1.94.79,1.94.79"/><path class="cls-8" d="M2.91,23a2.79,2.79,0,0,1,3.22.47l.28.47a4.85,4.85,0,0,0,.94-.38c.24-.17.57-.47.57-.47a5.89,5.89,0,0,1,1.57.65c.45.36,1,1.28,0,1.7a4.93,4.93,0,0,1-2.08.34l-1.13-.1a1.41,1.41,0,0,1-1.19.43,5.2,5.2,0,0,1-1.83-.63s.09.37-.27.29a3.23,3.23,0,0,0-.94-.12c-.32,0-.55.16-.87,0S.76,25,.7,24.6s.11-1.53.46-1.55a2,2,0,0,1,.68.07l.42.52s-.46-.51.65-.64"/><path class="cls-6" d="M7.21,15.75c-.35-.23-1.83.21-1.83.21a2.83,2.83,0,0,1,1.41-.38c.67.06.54.26.54.26Z"/><path class="cls-6" d="M6.77,15.93c.29,0,.23.12.23.12H6.86a.17.17,0,0,0,0,.11c0,.08-.24.14-.42.06S6.37,16,6.37,16H5.86a8.33,8.33,0,0,1,.91-.1"/><path class="cls-6" d="M8.6,16.12c.23,0,.57,0,.47.14a.53.53,0,0,0-.21-.09c-.08,0,.05,0,0,.12a.26.26,0,0,1-.33.07c-.15-.06.12-.18-.15-.15,0,0,0-.06.24-.09"/><path class="cls-6" d="M6.19,17s.36.11.8.2a3.51,3.51,0,0,0,1,0c-.16,0-.15.14-.32.24a1.72,1.72,0,0,1-1-.1A.75.75,0,0,1,6.19,17"/><path class="cls-6" d="M4.9,16.6v0"/><path class="cls-6" d="M.87,24.44h0a3.1,3.1,0,0,1,0-.43,1.43,1.43,0,0,1,0-.22,1.55,1.55,0,0,1,0-.21.93.93,0,0,1,.08-.2.55.55,0,0,1,.14-.17.65.65,0,0,1,.37-.11h0a.79.79,0,0,0,.17.19.94.94,0,0,0,.26.18s0,0,0,0a.7.7,0,0,0,.32.41,2.82,2.82,0,0,0,.4.24,5.73,5.73,0,0,0,.71.32c.41.16.66.23.66.23l0,0-.57-.3c-.18-.1-.4-.22-.63-.37l-.33-.24c-.11-.09-.2-.2-.2-.28s.39-.32.76-.43a6.42,6.42,0,0,1,1.32-.27,2,2,0,0,1,.69.05,1.79,1.79,0,0,1,.54.35,2.78,2.78,0,0,1,.69.94,1.47,1.47,0,0,1,.16,1,1.19,1.19,0,0,1-.81.69,2.23,2.23,0,0,1-1.2,0,2.86,2.86,0,0,1-.53-.2l-.5-.24c-.63-.32-1.15-.6-1.51-.8l-.57-.31,0,0,.48.38c.29.21.7.51,1.24.84,0,0,0,0,0,.05a.14.14,0,0,1-.06.07l0,0H3a.54.54,0,0,1-.17-.13,1.35,1.35,0,0,1-.14-.22.23.23,0,0,0-.24-.07c-.09,0-.14.08-.12.14h0s0,0,0,0l0,0h0s0,0,0,0a.25.25,0,0,0-.25,0,.1.1,0,0,0-.05.15v0l.1.11h0s-.1,0-.14-.09a.42.42,0,0,1-.09-.14s0,0,0,0a.08.08,0,0,0-.1,0s-.05,0,0,.05h0a.82.82,0,0,0,.09.19v0s0,0,0,0h0s0,0,0,0a.3.3,0,0,1-.11,0,.64.64,0,0,0-.16-.2h0a.16.16,0,0,0-.15,0s-.06.06,0,.09h0l0,.06a.92.92,0,0,1-.29-.3l-.05-.09,0-.05v-.05l0-.21a3.05,3.05,0,0,1,0-.43m.46,1.24h0S1.33,25.69,1.33,25.68Zm5.33,0h0a1.1,1.1,0,0,0,.27-.46c0-.05,0-.09,0-.14l.24,0,.37,0a.59.59,0,0,0,.17,0,.47.47,0,0,1-.15,0,1.44,1.44,0,0,1-.3-.12l-.36-.18a2,2,0,0,0-.31-.69L6.53,24l.31-.06a2.27,2.27,0,0,0,.47-.18,2.74,2.74,0,0,0,.46-.29L8,23.29l.12-.13.23.09a5.91,5.91,0,0,1,.73.33,3.51,3.51,0,0,1,.4.27,2.43,2.43,0,0,1,.38.34.87.87,0,0,1,.19.47.62.62,0,0,1-.2.46,1.72,1.72,0,0,1-.51.3,1.76,1.76,0,0,1-.3.1l-.08,0H8.85l-.16,0-.63,0-.6,0ZM8.07,22.5h0a.19.19,0,0,1,0,.2l-.1.13L7.8,23l-.18.14-.19.15c-.25.2-.51.38-.72.52l-.23.13a4.41,4.41,0,0,0-.68-.76,2.1,2.1,0,0,0-.57-.38,1.27,1.27,0,0,0-.18-.06l.62.1A6.8,6.8,0,0,0,7,22.91a3,3,0,0,0,.66-.12A.82.82,0,0,0,8.07,22.5Zm1.06-1.91h0a14.29,14.29,0,0,1-1.6.08c-.13,0-.27,0-.39,0a2.71,2.71,0,0,1-.4,0c-.26,0-.52-.09-.77-.15A7.83,7.83,0,0,1,4.51,20l0,0a6.58,6.58,0,0,0,1.4.61c.26.08.52.14.79.2a5.53,5.53,0,0,0,.83.11h.34a2.59,2.59,0,0,1,0,.28c0,.14,0,.32,0,.52v.36h0v.11c0,.05,0,.09-.06.13s-.4.27-.79.3a8.82,8.82,0,0,1-1.26,0,8.86,8.86,0,0,1-1.36-.16,4,4,0,0,1-.64-.2A1.44,1.44,0,0,1,3.22,22a1.31,1.31,0,0,1-.31-.89,4.9,4.9,0,0,1,.1-.93,5.27,5.27,0,0,1,.24-.85,2.32,2.32,0,0,1,.39-.71,1.72,1.72,0,0,1,.27-.27l.16-.1.1-.07.08-.09a.84.84,0,0,0,.15-.54,2.34,2.34,0,0,0,0-.33,2.1,2.1,0,0,0,.27.24,3.64,3.64,0,0,0,.92.56,3.35,3.35,0,0,0,.56.19l.3.07.15,0h.1a.33.33,0,0,0,0,.44.7.7,0,0,0,.21.14l.08,0,0,0a3.18,3.18,0,0,1,.37.27c-.43-.22-.86-.42-1.31-.62l-.43-.17a1.9,1.9,0,0,0-.48-.14,1.34,1.34,0,0,0-1,.17l0,0a1.39,1.39,0,0,1,.9-.08,5.21,5.21,0,0,1,.81.35l1.56.83a.25.25,0,0,0,.24,0h0a1,1,0,0,1,.33-.14,1.26,1.26,0,0,1,.39,0h.21l.24,0a2.9,2.9,0,0,0,.51,0,3.12,3.12,0,0,0,.52,0,1.25,1.25,0,0,0,.51-.18.39.39,0,0,0,.13-.2l.06-.15a1,1,0,0,1,.2-.26.42.42,0,0,1,.28-.11s0,0,0,.07a.76.76,0,0,1,0,.15c0,.12-.07.21,0,.36l.08.05h.06l.14,0h.72a1.46,1.46,0,0,1,.22,0l.09,0s0,0,0,0a.87.87,0,0,1-.29.12l-.45.1a.07.07,0,0,0-.07.07.09.09,0,0,0,.09,0h0a5.79,5.79,0,0,1,.61.05l.28.05.09,0h0l-.06,0-.09,0a1.1,1.1,0,0,1-.26,0,3.28,3.28,0,0,1-.56-.08.22.22,0,0,0-.23.08c0,.06,0,.12.09.15h0a3.61,3.61,0,0,1,.49.21,1,1,0,0,1,.21.11s0,0,0,0h-.26a2.91,2.91,0,0,1-.51-.12.27.27,0,0,0-.29.08c-.05.06,0,.15.07.19h0l.07,0-.56-.1h-.12C10.2,20.47,9.66,20.54,9.13,20.59Zm3.3-.57h0l.22,0,.18-.07.06-.05h0l0,0s0-.07,0-.11a.2.2,0,0,0-.08-.08.45.45,0,0,0-.18-.07l-.06,0,.05,0a.62.62,0,0,0,.2-.25.45.45,0,0,0,0-.28,1.17,1.17,0,0,0,0-.11s0,0,0,0c.34-.06.67-.12,1-.2l.85-.19a4.63,4.63,0,0,1-.42.7,4.25,4.25,0,0,0-.25.39v0a.05.05,0,0,0,0,.05h0c0,.09-.09.18-.13.27l-.45.11a.32.32,0,0,0-.33,0,.2.2,0,0,0-.05.09l-.34.11,0-.06a1.1,1.1,0,0,0-.14-.09A.52.52,0,0,0,12.43,20Zm.45.25h0l.27,0s0,0,0,0h0a2.43,2.43,0,0,1,.32.18l0,0-.06,0h-.08a.58.58,0,0,1-.18,0A2.37,2.37,0,0,1,12.88,20.27Zm.71.21Zm0,0Zm.3-.27h0l-.08,0,.22,0a1.31,1.31,0,0,1,.29.14l0,0h0s0,0,0,0h0l-.18,0Zm.47.11Zm.24-.31h0a.74.74,0,0,1-.21,0h-.14a2.12,2.12,0,0,0,.11-.21h.12l.13,0a.27.27,0,0,1,.13.05s0,0,0,0v0s0,0,0,0l0,0A.31.31,0,0,1,14.61,20Zm.28-.72h0s0,0,0,.06l0,.06a.35.35,0,0,1-.21.11H14.5c0-.1.07-.2.1-.3l0-.08h.1a.27.27,0,0,1,.14.05A.09.09,0,0,1,14.89,19.27Zm-2.43.11h0v.05a.14.14,0,0,1,0,.06h-.25Zm.27-.56h0l.06,0-.11.07a.46.46,0,0,0-.16.18l-.1,0-.25,0-.48,0a1.68,1.68,0,0,1-.4,0,.51.51,0,0,1,0-.29,1,1,0,0,0,0-.17c0-.06,0-.15-.15-.22h0c0-.12.08-.25.11-.37a13.08,13.08,0,0,0,1.46.87Zm-3.57.3H9l-.23,0-.27,0a2,2,0,0,0-.55.08l-.2.07s0,0,0,0a.89.89,0,0,0-.41-.49l-.11-.06-.1,0-.1,0a.26.26,0,0,1-.09-.09,3,3,0,0,1,.46.06,3,3,0,0,1,.47.12,2.18,2.18,0,0,1,.23.09l.25.12A5.51,5.51,0,0,0,9.16,19.12ZM6.77,18h0A5.17,5.17,0,0,1,6.22,18a3.18,3.18,0,0,1-.53-.14,3.49,3.49,0,0,1-.92-.48,2.65,2.65,0,0,1-.68-.65h0l-.17-.17a.06.06,0,0,0,.05,0,.27.27,0,0,0,.2,0,.16.16,0,0,0,.1-.05c0-.05,0-.1,0-.1a.13.13,0,0,1,0-.2.63.63,0,0,0,.07-.12s0-.1-.06-.1l-.05,0-.09-.07A.32.32,0,0,0,4,15.79l-.11,0a.11.11,0,0,0-.1.05.09.09,0,0,0,0,.08.08.08,0,0,0,0,0h0l0-.05,0,0s0,0,0,0,0,0,0,0l0,.06.11.09.07,0s0,0,0,0a.26.26,0,0,0,0,.12c0,.08,0,.15,0,.24s0,0,0,0H4s0,0,0-.05v-.05H4l-.07,0a.16.16,0,0,0,0,.07.07.07,0,0,0,0,.06,1.92,1.92,0,0,1-.18-.22c-.1-.27-.12-.56.08-.61s.62.31.62.31a.56.56,0,0,0,.21.46l.06-.31.24.49a1.25,1.25,0,0,1,0-1,2.24,2.24,0,0,1,1.1-1l-.42.52,1.45-.63-.86.85,1.1-.61-.36.61L7.55,15l-.32.36,1-.56-.46.64,1-.22-.39.26L9.44,15l-.58.6,1-.44-.16.19a1.27,1.27,0,0,0-.25.37,1.22,1.22,0,0,0-.07.17,1,1,0,0,0-1.2.22c-.21.32,0,.47,0,.67s-.44.21-.44.21c.22.09.28,0,.49,0s.13-.13,0-.41.15-.47.41-.62a1.05,1.05,0,0,1,.73,0l-.06.18a2.6,2.6,0,0,0-.11.83,1.21,1.21,0,0,0,0,.2.1.1,0,0,1,0,.08l-.05.08a1.17,1.17,0,0,1-.33.29,2,2,0,0,1-.43.24,3.66,3.66,0,0,1-.5.16,4.51,4.51,0,0,1-.53.08ZM3,22.06H3a3.07,3.07,0,0,0,1.29.51l.49.09a2.11,2.11,0,0,0-.35,0A5.22,5.22,0,0,0,3,22.82a3.07,3.07,0,0,0-.62.24.91.91,0,0,0-.33.28L2,23.22a1.28,1.28,0,0,1-.13-.4,1.61,1.61,0,0,1,0-.22.87.87,0,0,1,0-.22A.65.65,0,0,1,2,22.15a.91.91,0,0,1,.11-.22c0-.07.08-.14.13-.2l.13-.19.21-.27h0c0,.11.06.22.1.33A1.38,1.38,0,0,0,3,22.06ZM.39,24.43a1.94,1.94,0,0,0,0,.48c0,.07,0,.15.07.23l0,.07,0,.05a.83.83,0,0,0,.07.13,1.14,1.14,0,0,0,.51.38l.2.05h.15a.18.18,0,0,0,.09,0v0l.13,0h.09l.05,0a.3.3,0,0,0,.14.08h.13l.11,0h0l.09.05a.37.37,0,0,0,.22,0h.06l0,0h0l.06-.05h0a.58.58,0,0,0,.26.07.41.41,0,0,0,.16,0c.06,0,0,0,.09-.06a.19.19,0,0,0,.07-.13l.47.26a3.64,3.64,0,0,0,.61.25,2.64,2.64,0,0,0,1.57,0,1.75,1.75,0,0,0,.6-.33,8.52,8.52,0,0,0,.91.13,6.05,6.05,0,0,0,.63,0,3.79,3.79,0,0,0,.73-.05l.18,0H9l.05,0,.09,0,.35-.14A1.33,1.33,0,0,0,10,25.2a1.08,1.08,0,0,0,.12-.54,2.82,2.82,0,0,0-.1-.52,1.26,1.26,0,0,0-.3-.46,2.13,2.13,0,0,0-.49-.31,3.3,3.3,0,0,0-.89-.25l-.24,0,.12-.17a.49.49,0,0,0,.05-.19.26.26,0,0,0-.16-.27l0,0a0,0,0,0,0,0,0,.6.6,0,0,0,.06-.22V22c0-.11,0-.22,0-.32a4.39,4.39,0,0,0-.1-.52A2.08,2.08,0,0,0,8,20.93c.41,0,.82,0,1.23,0s1.06-.1,1.59-.18a10,10,0,0,0,1,.14h.28l.14-.06a.19.19,0,0,0,.07-.15l0-.05h.09a.65.65,0,0,0,.21,0h.07l0,0a.21.21,0,0,0,.12-.11.14.14,0,0,0,0-.11h.06a.91.91,0,0,0,.26.3,1,1,0,0,0,.23.11l.16,0h.25l.08,0a.25.25,0,0,0,.14-.13h0a1,1,0,0,0,.35,0,.71.71,0,0,0,.23-.05l0,0,0,0,0,0a.19.19,0,0,0,.07-.08c0-.06,0-.15,0-.2a.42.42,0,0,0-.14-.09h.1l.13,0L14.9,20l0,0s0,0,0,0v0a.14.14,0,0,0,0-.12l-.06-.07a.37.37,0,0,0,.14-.07.41.41,0,0,0,.15-.2.22.22,0,0,0,0-.09.18.18,0,0,0,0-.1.24.24,0,0,0-.17-.19.5.5,0,0,0-.29,0l-.06,0a2.91,2.91,0,0,1,.28-.66s0-.05,0-.06h-.05l-1,.1c-.3,0-.6.06-.9.1a16.51,16.51,0,0,0-1.67-.89h0c.34,0,.67.05,1,.06s.7,0,1,0L14,18a7.39,7.39,0,0,0,.87.29,6.2,6.2,0,0,0-.67-.47c-.24-.15-.48-.29-.74-.42a.31.31,0,0,0-.13,0h0c-.38,0-.75,0-1.12.08s-.72.1-1.08.18a.23.23,0,0,0-.1,0,.09.09,0,0,0,0,.07,4.12,4.12,0,0,0,.07.59.69.69,0,0,0-.41.14,1.14,1.14,0,0,0-.28.31c-.07.1-.12.25-.17.26a.73.73,0,0,1-.34.09H9.74L9.51,19l-1-.42-.27-.12c-.1,0-.21-.06-.31-.09a2.47,2.47,0,0,0-.59,0,1.72,1.72,0,0,0-.5.1s0,0,0,0a.34.34,0,0,1-.05-.11A4,4,0,0,0,8,18.21a3.49,3.49,0,0,0,.57-.2,2.3,2.3,0,0,0,.48-.3,1.19,1.19,0,0,0,.33-.38.37.37,0,0,0,0-.11.31.31,0,0,0,0-.13c0-.09,0-.13,0-.2a2.44,2.44,0,0,1,0-.81,1.56,1.56,0,0,1,.2-.57,2.93,2.93,0,0,0,.61-.58c.47-.53.11-1.26-.41-1.71a4,4,0,0,0-2.62-.88A4.29,4.29,0,0,0,3.34,14a1.93,1.93,0,0,0,0,1.85c.08.3.31,1.07.31,1.07l.11-.3.2.58L4,17l.12.34,0-.32.12.14a2,2,0,0,1,0,.39A1,1,0,0,1,4,18l0,0-.08,0-.21.11a2.06,2.06,0,0,0-.37.29,2.43,2.43,0,0,0-.5.77,3.4,3.4,0,0,0-.25.91,3.89,3.89,0,0,0,0,1,.5.5,0,0,0,0,.12l-.06,0a2.46,2.46,0,0,0-.35.21l-.21.17a1.21,1.21,0,0,0-.19.2.81.81,0,0,0-.17.24.83.83,0,0,0-.12.27.86.86,0,0,0,0,.28.84.84,0,0,0,0,.27,1,1,0,0,0,.07.15.84.84,0,0,0-.47.07.67.67,0,0,0-.26.2.62.62,0,0,0-.15.22.94.94,0,0,0-.1.23A1.55,1.55,0,0,0,.45,24,2.42,2.42,0,0,0,.39,24.43Z"/><path class="cls-6" d="M2.57.71H3v1.7c0,.53-.31.69-.8.69a1,1,0,0,1-.26,0l0-.23h.19c.28,0,.44-.07.44-.45Z"/><path class="cls-6" d="M5,2.61C5,2.8,5,3,5,3.07H4.64l0-.18h0a.73.73,0,0,1-.53.21c-.44,0-.61-.23-.61-.65V1.38h.4v1c0,.27.06.46.33.46a.34.34,0,0,0,.35-.22.39.39,0,0,0,0-.15V1.38H5Z"/><path class="cls-6" d="M6.52,2.05h0c0-.34-.18-.49-.37-.49s-.39.26-.4.49Zm-.78.2c0,.52.31.63.59.63a1.43,1.43,0,0,0,.41-.06L6.8,3a1.49,1.49,0,0,1-.54.09.81.81,0,0,1-.9-.86.81.81,0,0,1,.83-.89.68.68,0,0,1,.71.75v.15Z"/><path class="cls-6" d="M8.38,2h0a.43.43,0,0,0,0-.12A.36.36,0,0,0,8,1.58c-.29,0-.44.26-.44.64s.2.63.44.63a.35.35,0,0,0,.35-.24.45.45,0,0,0,0-.16Zm.41-.58c0,.12,0,.27,0,.53v1c0,.44-.08.61-.25.73a1.06,1.06,0,0,1-.66.19,1.6,1.6,0,0,1-.54-.09l.09-.21a1.27,1.27,0,0,0,.46.08A.45.45,0,0,0,8.38,3V2.86h0a.55.55,0,0,1-.48.21.74.74,0,0,1-.72-.84.79.79,0,0,1,.77-.88.51.51,0,0,1,.46.22h0l0-.19Z"/><path class="cls-6" d="M9.55,2.23h0c0,.28.07.66.43.66s.41-.4.41-.66-.07-.66-.42-.66-.42.4-.42.66m1.23,0A.79.79,0,0,1,10,3.1a.77.77,0,0,1-.8-.87A.8.8,0,0,1,10,1.35.77.77,0,0,1,10.78,2.23Z"/><path class="cls-6" d="M11.86,2.79a1,1,0,0,0,.4.09c.22,0,.36-.09.36-.24s-.07-.22-.32-.34-.49-.28-.49-.48.29-.47.68-.47a1,1,0,0,1,.44.09l-.1.2a.84.84,0,0,0-.33-.07c-.22,0-.32.1-.32.21s.06.18.3.29.51.28.51.52-.33.51-.74.51a1.15,1.15,0,0,1-.49-.1Z"/><path class="cls-6" d="M13.64,2.23h0c0,.28.07.66.43.66s.4-.4.4-.66-.06-.66-.41-.66-.42.4-.42.66m1.23,0a.79.79,0,0,1-.82.87.77.77,0,0,1-.81-.87.8.8,0,0,1,.83-.88A.78.78,0,0,1,14.87,2.23Z"/><path class="cls-6" d="M16.47,3a1.08,1.08,0,0,1-.41.07.82.82,0,0,1-.91-.86.89.89,0,0,1,1-.89,1.46,1.46,0,0,1,.35,0l-.08.22a1.21,1.21,0,0,0-.28,0,.59.59,0,0,0-.57.66.56.56,0,0,0,.58.63,1.27,1.27,0,0,0,.29,0Z"/><path class="cls-6" d="M16.75,3.07h0V1.38h.4V3.07ZM17.18.94c0,.1-.09.17-.24.17S16.71,1,16.71.94a.21.21,0,0,1,.23-.18C17.09.76,17.18.83,17.18.94Z"/><path class="cls-6" d="M18.57,2.2h0c-.21,0-.68,0-.68.39a.28.28,0,0,0,.3.3.37.37,0,0,0,.37-.25.38.38,0,0,0,0-.1Zm.05.87,0-.18h0a.59.59,0,0,1-.49.21c-.33,0-.59-.19-.59-.48S18,2,18.56,2V2c0-.23-.09-.39-.4-.39a1.07,1.07,0,0,0-.41.09l-.08-.19a1.46,1.46,0,0,1,.57-.11c.5,0,.72.22.72.61v.73a2.24,2.24,0,0,0,0,.38Z"/><rect class="cls-6" x="19.46" y="0.65" width="0.39" height="2.43"/><path class="cls-6" d="M20.36,2.91h0c0-.12.11-.2.26-.2s.25.08.25.2-.09.19-.25.19-.26-.08-.26-.19m0-1.29c0-.12.11-.2.26-.2s.25.08.25.2-.09.2-.25.2S20.36,1.73,20.36,1.62Z"/><path class="cls-6" d="M22,2.79a1,1,0,0,0,.4.09c.22,0,.36-.09.36-.24s-.06-.22-.32-.34S22,2,22,1.82s.29-.47.68-.47a1,1,0,0,1,.44.09l-.1.2a.84.84,0,0,0-.33-.07c-.22,0-.32.1-.32.21s.06.18.3.29.52.28.52.52-.34.51-.75.51a1.15,1.15,0,0,1-.49-.1Z"/><path class="cls-6" d="M24.42,2.2h0c-.2,0-.68,0-.68.39a.29.29,0,0,0,.31.3.35.35,0,0,0,.36-.25.38.38,0,0,0,0-.1Zm.06.87,0-.18h0A.59.59,0,0,1,24,3.1c-.33,0-.59-.19-.59-.48S23.86,2,24.41,2V2c0-.23-.08-.39-.39-.39a1.07,1.07,0,0,0-.41.09l-.09-.19a1.56,1.56,0,0,1,.58-.11c.5,0,.71.22.71.61v.73a1.5,1.5,0,0,0,0,.38Z"/><path class="cls-6" d="M25.7,2.47h0a.2.2,0,0,0,0,.11.39.39,0,0,0,.37.3c.31,0,.43-.3.43-.66s-.12-.64-.44-.64a.41.41,0,0,0-.37.3.49.49,0,0,0,0,.12Zm-.41.6c0-.09,0-.29,0-.4v-2h.39v.93h0a.63.63,0,0,1,.53-.23c.38,0,.67.3.67.86s-.37.89-.75.89a.51.51,0,0,1-.49-.25h0l0,.22Z"/><path class="cls-6" d="M28.36,2.05h0c0-.34-.18-.49-.37-.49s-.39.26-.4.49Zm-.78.2c0,.52.3.63.59.63a1.43,1.43,0,0,0,.41-.06l.06.19a1.49,1.49,0,0,1-.54.09.8.8,0,0,1-.9-.86A.81.81,0,0,1,28,1.35a.68.68,0,0,1,.71.75.66.66,0,0,1,0,.15Z"/><path class="cls-6" d="M5.62,5.21h0c0-.34-.18-.49-.37-.49s-.39.26-.41.49Zm-.78.2c0,.52.3.63.59.63A1.12,1.12,0,0,0,5.84,6l.06.2a1.52,1.52,0,0,1-.55.08.8.8,0,0,1-.9-.85.81.81,0,0,1,.84-.89.67.67,0,0,1,.7.75v.15Z"/><path class="cls-6" d="M6.3,6A1,1,0,0,0,6.7,6c.23,0,.36-.1.36-.25S7,5.58,6.75,5.46s-.5-.29-.5-.48.3-.47.68-.47a1.25,1.25,0,0,1,.45.08l-.11.21a.67.67,0,0,0-.33-.08c-.21,0-.32.11-.32.22s.06.18.31.29.51.28.51.52-.34.5-.75.5a1.15,1.15,0,0,1-.49-.1Z"/><path class="cls-6" d="M8.18,5.61h0a.32.32,0,0,0,0,.14A.37.37,0,0,0,8.56,6c.33,0,.43-.3.43-.65s-.12-.64-.43-.64a.4.4,0,0,0-.37.31.49.49,0,0,0,0,.12Zm-.39-.55c0-.26,0-.41,0-.53h.35l0,.22h0a.63.63,0,0,1,.53-.24c.43,0,.71.31.71.87a.77.77,0,0,1-.77.88.49.49,0,0,1-.43-.2h0v.85H7.79Z"/><path class="cls-6" d="M10.84,5.21h0c0-.34-.18-.49-.37-.49s-.39.26-.4.49Zm-.78.2c0,.52.3.63.59.63A1.12,1.12,0,0,0,11.06,6l.06.2a1.5,1.5,0,0,1-.54.08.79.79,0,0,1-.9-.85.81.81,0,0,1,.83-.89.68.68,0,0,1,.71.75.66.66,0,0,1,0,.15Z"/><path class="cls-6" d="M11.59,5c0-.14,0-.31,0-.44h.35l0,.27h0a.59.59,0,0,1,.52-.29h.08v.28h-.08a.46.46,0,0,0-.47.36.61.61,0,0,0,0,.15v.94h-.39Z"/><path class="cls-6" d="M13.7,5.35h0c-.2,0-.68,0-.68.4a.28.28,0,0,0,.3.3.36.36,0,0,0,.37-.26.28.28,0,0,0,0-.09Zm.06.88,0-.18h0a.65.65,0,0,1-.5.21c-.33,0-.59-.19-.59-.48s.5-.62,1.06-.62v0c0-.23-.08-.39-.39-.39a.86.86,0,0,0-.41.09l-.09-.19a1.48,1.48,0,0,1,.58-.11c.49,0,.71.22.71.6v.74a2.3,2.3,0,0,0,0,.38Z"/><path class="cls-6" d="M14.59,5c0-.14,0-.31,0-.44h.36l0,.27h0a.59.59,0,0,1,.52-.29h.08v.28h-.08a.48.48,0,0,0-.48.36.66.66,0,0,0,0,.15v.94h-.39Z"/><path class="cls-6" d="M16.49,6a1,1,0,0,0,.4.09c.23,0,.37-.1.37-.25s-.07-.21-.32-.33-.5-.29-.5-.48.3-.47.68-.47a1.21,1.21,0,0,1,.45.08l-.11.21a.67.67,0,0,0-.33-.08c-.21,0-.32.11-.32.22s.06.18.31.29.51.28.51.52-.34.5-.74.5a1.09,1.09,0,0,1-.49-.1Z"/><path class="cls-6" d="M19.47,5.77c0,.19,0,.34,0,.46h-.34l0-.18h0a.69.69,0,0,1-.53.21c-.43,0-.6-.23-.6-.65V4.53h.39v1c0,.27.06.46.33.46a.36.36,0,0,0,.36-.22.78.78,0,0,0,0-.16V4.53h.39Z"/><path class="cls-6" d="M21.21,4.08v.45h.47v.21h-.47v1c0,.22.11.28.26.28h.16v.21l-.29,0a.62.62,0,0,1-.39-.1c-.1-.08-.15-.19-.15-.43v-1h-.3V4.53h.3V4.16Z"/><path class="cls-6" d="M23.46,5.77c0,.19,0,.34,0,.46h-.34l0-.18h0a.69.69,0,0,1-.53.21c-.43,0-.6-.23-.6-.65V4.53h.39v1c0,.27.06.46.34.46a.35.35,0,0,0,.35-.22.78.78,0,0,0,0-.16V4.53h.39Z"/><path class="cls-6" d="M24,5c0-.14,0-.31,0-.44h.35l0,.27h0a.59.59,0,0,1,.52-.29h.09v.28h-.09a.46.46,0,0,0-.47.36.61.61,0,0,0,0,.15v.94H24Z"/><path class="cls-6" d="M25.18,5c0-.2,0-.3,0-.44h.34l0,.21h0a.71.71,0,0,1,.57-.23.53.53,0,0,1,.6.58V6.23h-.39V5.14c0-.2-.06-.41-.35-.41a.38.38,0,0,0-.37.28.71.71,0,0,0,0,.15V6.23h-.4Z"/><path class="cls-6" d="M27.49,5.38h0c0,.28.07.67.43.67s.4-.4.4-.67-.06-.66-.41-.66-.42.4-.42.66m1.23,0a.79.79,0,0,1-.82.88.78.78,0,0,1-.81-.87.79.79,0,0,1,.83-.88A.78.78,0,0,1,28.72,5.38Z"/><path class="cls-9" d="M4.28,17.11l.88,1.14-.64.09S3.74,17.52,3.28,17s-.2-2.16-.2-2.16a3.19,3.19,0,0,0,1.2,2.28"/><path class="cls-9" d="M7.73,18.26l-.21.81s-1-.5-.76-.84,1,0,1,0"/></svg>