<svg id="Capa_1" data-name="Capa 1" xmlns="http://www.w3.org/2000/svg" viewBox="0 0 31.54 27.44"><defs><style>.cls-1{fill:#f5a4c7;}.cls-2{fill:#ffcc64;}.cls-3{fill:#acd03d;}.cls-4{fill:#bcbec0;}.cls-5{fill:#0070a2;}.cls-6{fill:#fbc8ba;}.cls-7{fill:#f05050;}.cls-8,.cls-9{fill:#231f20;}.cls-9{fill-rule:evenodd;}</style></defs><title>6-30meses</title><path class="cls-1" d="M18.88,25.74s1.89-.41,1.93-1.25.47-.54.47-.54A1.15,1.15,0,0,1,22.16,25a3.74,3.74,0,0,1,0,1.12c-.06.25-.73.53-.73.53Z"/><polygon class="cls-2" points="0.29 21.95 9.39 21.95 22.89 27.27 0 27.27 0.29 21.95"/><path class="cls-3" d="M5.5,23.06c-1.28.11-3.07,0-2.93.74s1.33.94,2.6,1.05S8.07,24.54,8,24s-1.11-1.27-2.46-.89"/><path class="cls-4" d="M4.74,20.12v3.79s1.13.32,1.24.15,0-2,0-2.58a11,11,0,0,0,0-1.36Z"/><path class="cls-5" d="M10.81,25.88A11.22,11.22,0,0,0,14,25.81c.54-.27,1-.78.74-.89a9.26,9.26,0,0,0-2.84-.26c-1.23.07-2.21.19-2,.7s1,.52,1,.52"/><path class="cls-6" d="M6,16.31a.41.41,0,0,1,0,.09,1.4,1.4,0,0,0,.42,1,1.55,1.55,0,0,0,.74.27s-1,1.62-.72,2.09,1.67.9,1.67.9l3.58.11.51.24-.27,1.85,7.22,2.91s1.63-.43,1.7-1.09.19-1.82.22-1.94.68-2.55,0-3.86A2.46,2.46,0,0,0,19,17.31c-.47,0-1.22-.37-1.24-.91s1.46-2.15,1.52-2.37a4.88,4.88,0,0,0-1-2.39,11.7,11.7,0,0,0-3-1.11,50.82,50.82,0,0,0-5,1.33s-.58,1.36-.34,1.85,1.08,1,1.13,1.76.22,1.13.64,1.21,1.65.37,1.65.37.14.21-.58.38a7.13,7.13,0,0,0-1.73.8s.4-.24,0-.68-1-1.1-1-.7v.92s-.75.28-.88,0-.21-1.36-.62-1.28-.24.83-.24.83L8,17.19s-.18.18-.13.33-.05-.15-.05-.15A5.93,5.93,0,0,1,6,16.31"/><path class="cls-7" d="M7.9,17.52s-2.23-1-2.17-1.91S7.32,15,7.32,15a8.89,8.89,0,0,1,2.87,1.85s-.71.41-.4.74-.13.43-.53.09-.75-1-.9-.9a2.24,2.24,0,0,0-.33.44Z"/><path class="cls-8" d="M14.35,13.6c-.93.11-.74.39-.74.39l.16-.14c.48-.34,2.58.23,2.58.23a4.1,4.1,0,0,0-2-.48"/><path class="cls-8" d="M13.12,15.53s-.63,0-.63-.27.28-.51,0-.95a1.38,1.38,0,0,0-1.73-.26l0,.07a1.58,1.58,0,0,1,1.06,0c.38.21.8.46.62.86s-.28.49,0,.58.38.16.68,0"/><path class="cls-8" d="M14.09,14.26l.2,0a.38.38,0,0,1,0,.16c0,.11.34.19.6.07s.07-.24.07-.24l.71,0a10.79,10.79,0,0,0-1.27-.12c-.41,0-.32.17-.32.17"/><path class="cls-8" d="M11.85,14.4c-.33,0-.8,0-.65.22a.72.72,0,0,1,.29-.13c.11,0-.08,0,0,.16a.39.39,0,0,0,.47.1c.2-.1-.18-.25.2-.23,0,0,0-.08-.34-.12"/><path class="cls-8" d="M12.75,15.94c.23,0,.23.19.48.31a2.21,2.21,0,0,0,1.36-.16c.58-.19.69-.53.69-.53s-.49.16-1.11.31a5.51,5.51,0,0,1-1.42.07"/><path class="cls-8" d="M14.39,16.4c-.51.23.49.19.67,0s-.19-.24-.67,0"/><path class="cls-8" d="M17.07,15l0,0,0,0"/><path class="cls-8" d="M18,14.39a.22.22,0,0,1,0,.29.09.09,0,0,0,0,.13.33.33,0,0,0,.14.06.42.42,0,0,0,.27,0c.09,0,.13-.11.11-.15a.29.29,0,0,0-.06-.1l-.09-.06h0v.08s0,0,0,.07a.06.06,0,0,1,0,0h-.15s0,0,0,0,0-.22,0-.34,0-.12,0-.15,0,0,0,0l.08-.06A.47.47,0,0,0,18.4,14l.08-.09s0,0,0,0,0,0,.06,0l.06.07h0a.31.31,0,0,0,0-.09s0,0,0-.1a.22.22,0,0,0-.13-.06.49.49,0,0,0-.15,0,.55.55,0,0,0-.16.11l-.12.1-.08.06s-.09.1-.06.14a.48.48,0,0,0,.09.16"/><path class="cls-8" d="M14.42,24.81a2.37,2.37,0,0,0-.42-.08l-.74-.06h-.57l.56,0a5.05,5.05,0,0,1,.72.11,1.19,1.19,0,0,1,.65.29c.08.14-.12.31-.36.44l-.18.08a.63.63,0,0,1-.2.06,3.5,3.5,0,0,1-.48.06c-.34,0-.69.06-1,.06s-.69,0-1,0a4,4,0,0,1-.92-.14.65.65,0,0,1-.46-.44c0-.17.25-.3.48-.37a3.87,3.87,0,0,1,.7-.13,4.21,4.21,0,0,1,.57,0h.49s-.18,0-.5,0a7.94,7.94,0,0,0-1.3.11,1.71,1.71,0,0,0-.41.12.42.42,0,0,0-.26.31.75.75,0,0,0,.48.66,3.57,3.57,0,0,0,1.07.26,8.24,8.24,0,0,0,1.11,0,8.3,8.3,0,0,0,1.11-.09A5.12,5.12,0,0,0,14,26a1.69,1.69,0,0,0,.26-.11l.22-.13a1.06,1.06,0,0,0,.32-.31.3.3,0,0,0,0-.4.91.91,0,0,0-.4-.21"/><path class="cls-8" d="M11,25.2a1.21,1.21,0,0,0,.31.18,2.36,2.36,0,0,0,.37.11,3.2,3.2,0,0,0,.46.06,2.52,2.52,0,0,0,.48,0A1.31,1.31,0,0,0,13,25.4a1,1,0,0,0,.23-.14l.07-.06H12.11c-.27,0-.55,0-.77,0a3.71,3.71,0,0,0-.39,0"/><path class="cls-8" d="M20.76,22.52h0c-.07.24-.13.49-.18.73v.05l0,.05a1.26,1.26,0,0,1,.07.16,1.21,1.21,0,0,1,0,.18,1.47,1.47,0,0,1,0,.36,1.36,1.36,0,0,1-.21.71l-.12.17a1.92,1.92,0,0,1-.14.15,1.74,1.74,0,0,1-.37.26,2.74,2.74,0,0,1-.68.25L12,22.74a.14.14,0,0,1,0-.06,6.3,6.3,0,0,0,.15-.62,5.79,5.79,0,0,0,.09-.62,1.83,1.83,0,0,0,0-.21l.08,0a5.27,5.27,0,0,0,1.45.4,8.75,8.75,0,0,0,1.53,0,11.31,11.31,0,0,0,1.38-.17c.43-.08.82-.18,1.18-.27a15.5,15.5,0,0,0,1.67-.55l.6-.26,0,0-.66.16L17.77,21c-.72.14-1.56.28-2.47.37a9.18,9.18,0,0,1-1.39,0,7.25,7.25,0,0,1-1.39-.26,4.18,4.18,0,0,1-1.2-.58,3.43,3.43,0,0,1-.8-.82,1.9,1.9,0,0,0-.34-.45,1.78,1.78,0,0,0-.57-.32A4.12,4.12,0,0,0,9,18.75a1.75,1.75,0,0,1-.43-.17A1.28,1.28,0,0,1,8.15,18a1.15,1.15,0,0,1-.16-.5,1,1,0,0,1,0-.33,2.84,2.84,0,0,0,.47.87h.05A3.2,3.2,0,0,1,8.3,17a.46.46,0,0,1,.06-.23c.05-.06.06-.06.16-.08h0a.07.07,0,0,1,0,0,1.15,1.15,0,0,1,.07.24,1.18,1.18,0,0,0,.2.59,1,1,0,0,0,.84.42,1.17,1.17,0,0,0,.32,0l.11,0,.11-.05a.3.3,0,0,0,.18-.15.21.21,0,0,0,0-.11l0-.05,0,0a.19.19,0,0,1,0-.1.86.86,0,0,1-.06-.23v0l.07.06.15.12.14.09a.79.79,0,0,1,.17.19,1.64,1.64,0,0,1,.22.49.49.49,0,0,0,.14.32,1.33,1.33,0,0,0,.37.2c.51.17,1.06.22,1.54.35a3.06,3.06,0,0,1,.66.29,1.25,1.25,0,0,1,.41.42l.05.1.15-.05c.72-.21,1.45-.42,2.14-.68l.07,0,0,0a3.24,3.24,0,0,1,.49-.49,3.54,3.54,0,0,1,.63-.39,3.37,3.37,0,0,1,.78-.24,3.65,3.65,0,0,1,.88-.09v0a3.76,3.76,0,0,0-1.85.16l-.21.09a1.76,1.76,0,0,0-.2.09,3.13,3.13,0,0,0-.36.22,3.18,3.18,0,0,0-.54.49c-.65.21-1.27.47-1.89.73a1.89,1.89,0,0,0-.47-.36,5,5,0,0,0-.71-.29,7.74,7.74,0,0,0-.77-.18,4.55,4.55,0,0,1-.71-.23.77.77,0,0,1-.24-.16c-.05-.06-.05-.11,0-.21h0l.29-.09.45-.16.25-.08.25-.09.95-.28.11,0a1,1,0,0,0,.24,0l.22,0a.73.73,0,0,1,.16.11,2.69,2.69,0,0,1,.33.34.75.75,0,0,1,.18.39.67.67,0,0,1,0,.2l0-.05a1,1,0,0,0,.06-.14.81.81,0,0,0,0-.46,1.55,1.55,0,0,0-.19-.41,1.52,1.52,0,0,0,.21,0l.18,0,.14,0a1.76,1.76,0,0,0,.3-.1,1.69,1.69,0,0,0,.27-.13,2.61,2.61,0,0,0,.46-.3,3.28,3.28,0,0,0,.7-.69l-.05,0a8.62,8.62,0,0,1-.88.54l-.48.22-.24.08L15,16.9l-.14,0h-.12l-.26,0A3.39,3.39,0,0,1,14,17a5.52,5.52,0,0,1-.55-.07l-.53-.11h0q-.45-.11-.87-.24c-.13-.05-.27-.1-.39-.16a1.48,1.48,0,0,1-.32-.21.79.79,0,0,1-.22-.61,4,4,0,0,0-.06-.68,1.71,1.71,0,0,0-.13-.34c-.06-.12-.12-.2-.18-.31s-.25-.4-.36-.6a1.62,1.62,0,0,1-.1-.18,1.36,1.36,0,0,0,.33.22L10,13.08A.16.16,0,0,0,10,13l1.47.61-.85-.83,1.63.75-.57-.34,1.37.27-.69-.89,1.38.76-.46-.49.88.47-.56-.83,1.58.81-1.25-1.16L16,13l-.62-.72A3.27,3.27,0,0,1,17,13.6,1.75,1.75,0,0,1,17.07,15l.31-.69.09.43a.77.77,0,0,0,.28-.64s.43-.56.84-.46.21,1-.14,1.36l-.22.25h0a2.43,2.43,0,0,0-.61.92.9.9,0,0,0-.05.54.8.8,0,0,0,.37.52,1.27,1.27,0,0,0,.35.17,1.39,1.39,0,0,0,.44.07,1.55,1.55,0,0,1,.6.07,2.37,2.37,0,0,1,.53.26,4.39,4.39,0,0,1,.5.34,2.23,2.23,0,0,1,.42.39,2.49,2.49,0,0,1,.29.43,2.77,2.77,0,0,1,.24,1,4.57,4.57,0,0,1-.06,1,6.17,6.17,0,0,1-.2.95,6.86,6.86,0,0,0-.27.71m-10.87-5ZM6.49,23h0a3.52,3.52,0,0,1,.56.14,1.49,1.49,0,0,1,.55.31.33.33,0,0,1,.08.11.2.2,0,0,1,0,.1,1.4,1.4,0,0,1-.06.32.79.79,0,0,1-.52.44,3.29,3.29,0,0,1-1,.17c-.17,0-.36,0-.55,0H5a9.6,9.6,0,0,1-1.1-.09A3.23,3.23,0,0,1,3,24.3a.78.78,0,0,1-.44-.5c0-.13,0-.16,0-.22a1,1,0,0,1,.31-.16,7.91,7.91,0,0,1,1.3-.28l.49-.06.09.66H4.64l-.48-.05-.51,0a1.58,1.58,0,0,0,.4.24,3.37,3.37,0,0,0,1.1.25,4.22,4.22,0,0,0,.62,0A1.81,1.81,0,0,0,6.29,24a1.43,1.43,0,0,0,.32-.14l.11-.07H6.21a9,9,0,0,1-1,0l-.38,0A17.13,17.13,0,0,0,5,22q.06-.81.06-1.62h.66c0,.51,0,1,.06,1.54s.1,1.14.19,1.72c0-.22.06-.44.09-.65Zm15.82,1.58a.77.77,0,0,0-.17-.27.91.91,0,0,0-.24-.2,1.17,1.17,0,0,0-.49-.19h-.13a1.62,1.62,0,0,0,0-.31,1.74,1.74,0,0,0-.05-.22l-.06-.16c0-.22.1-.44.16-.67a4.22,4.22,0,0,1,.21-.69v0h0a4.36,4.36,0,0,0,.12-1c0-.17,0-.33,0-.5a4,4,0,0,0-.09-.5,3.92,3.92,0,0,0-.13-.49c-.05-.17-.13-.33-.19-.49a4.39,4.39,0,0,0-.27-.47,3,3,0,0,0-.36-.45c-.14-.13-.29-.27-.46-.4a1.95,1.95,0,0,0-1.39-.47.71.71,0,0,1-.5-.14.62.62,0,0,1-.28-.34.85.85,0,0,1,0-.45,2.65,2.65,0,0,1,.21-.68l.06.43.14-.48.16.39.25-.82.16.42s.28-1.09.37-1.51a2.65,2.65,0,0,0-.18-2.59c-.8-1.37-3.32-2.5-5.46-2.26s-2.91.66-3.61,1.31-1.16,1.67-.47,2.41l.08.09a1.16,1.16,0,0,0,0,.18,3.91,3.91,0,0,0,.24.65,3.3,3.3,0,0,0,.36.63,3.67,3.67,0,0,0,.23.29,1.61,1.61,0,0,1,.21.29,1.39,1.39,0,0,1,.18.63,1.15,1.15,0,0,0,.21.67,1.08,1.08,0,0,0,.31.29,2.5,2.5,0,0,0,.39.23,5.74,5.74,0,0,0,.88.34h0l.27.08a4,4,0,0,0-.57.14,2.77,2.77,0,0,0-.9.49.87.87,0,0,0-.14.12,1.94,1.94,0,0,0-.14-.45,1.06,1.06,0,0,0-.22-.29,1.17,1.17,0,0,0-.15-.1L10.7,17a2.1,2.1,0,0,0-.26-.23.41.41,0,0,0-.11-.07s0,0-.08,0l-.16,0H10l-.06-.09a3.72,3.72,0,0,0-.52-.65,3.65,3.65,0,0,0-1.09-.78,3.24,3.24,0,0,0-.83-.27A2.61,2.61,0,0,0,7,14.77H6.51a1.22,1.22,0,0,0-.9.44.69.69,0,0,0,0,.68,1.68,1.68,0,0,0,.27.42h0a1,1,0,0,0,0,.24v.13a.69.69,0,0,0,0,.13.78.78,0,0,0,.16.24,2.36,2.36,0,0,0,.44.39,2.91,2.91,0,0,0,.42.25,3.23,3.23,0,0,0-.24.58c-.08.24-.15.47-.21.71s-.05.24-.06.36a1.63,1.63,0,0,0,0,.38,1,1,0,0,0,0,.18.56.56,0,0,0,.11.2.62.62,0,0,0,.18.18.83.83,0,0,0,.22.14,4.34,4.34,0,0,0,.5.2,5,5,0,0,0,.53.11,6.36,6.36,0,0,0,1.07.1,11.13,11.13,0,0,0,2.09-.15v0c-.7,0-1.38-.09-2.05-.16l-.49,0-.49-.07c-.16,0-.3-.06-.46-.09a2.46,2.46,0,0,1-.41-.13.54.54,0,0,1-.17-.09A.5.5,0,0,1,7,20a1.06,1.06,0,0,1-.1-.12l-.09-.17a1.7,1.7,0,0,1-.1-.32,2,2,0,0,1,0-.35,2.32,2.32,0,0,1,.72-1.28l.09-.1-.15-.09a7.83,7.83,0,0,1-.92-.63.85.85,0,0,1-.16-.17.24.24,0,0,1-.06-.08l0-.06.28.23a4.06,4.06,0,0,0,.46.28l.39.19.37.13-.31-.19A3.46,3.46,0,0,1,7,17c-.12-.09-.24-.2-.37-.31a4.55,4.55,0,0,1-.35-.4,1.69,1.69,0,0,1-.26-.47.49.49,0,0,1,0-.46.73.73,0,0,1,.49-.22H7a2.34,2.34,0,0,1,.38,0,3.49,3.49,0,0,1,.72.2,4.8,4.8,0,0,1,.6.3,5.2,5.2,0,0,1,.49.33,7.16,7.16,0,0,1,.67.56l.09.09a.92.92,0,0,0-.13.09.38.38,0,0,0,0,.12.88.88,0,0,0,0,.31,1.77,1.77,0,0,0,.05.32l0,.08H9.68a.55.55,0,0,1-.38-.21,1.51,1.51,0,0,1-.2-.48,1.17,1.17,0,0,0-.12-.3.55.55,0,0,0-.21-.17.28.28,0,0,0-.15,0l0-.08A1.38,1.38,0,0,0,8,15.86a2.31,2.31,0,0,0-.77-.25,1.46,1.46,0,0,0-.4,0,2.88,2.88,0,0,0,.27.19c.16.1.37.23.58.34a5.15,5.15,0,0,0,.59.28l-.15.07a.4.4,0,0,0-.15.18A.59.59,0,0,0,8,17a.29.29,0,0,0,0,.09.93.93,0,0,0-.23.43,1,1,0,0,0,0,.58,1.25,1.25,0,0,0,.45.71,1.79,1.79,0,0,0,.58.25l.56.16a1.76,1.76,0,0,1,.48.22,2.21,2.21,0,0,1,.4.36,6.67,6.67,0,0,0,1.93,1.4,1.06,1.06,0,0,0-.21.18,1,1,0,0,0-.2.29,1.14,1.14,0,0,0-.13.35,1.56,1.56,0,0,0,0,.37.84.84,0,0,0,.06.24l-2-.78-.06,0H6.17c0-.54.06-1.08.06-1.62V20H4.55v.18c0,.54,0,1.08,0,1.62H0v.36H4.63c0,.3,0,.59.08.89-.06,0-.23,0-.5,0l-.62,0a5.18,5.18,0,0,0-.8.12,1.5,1.5,0,0,0-.44.19.35.35,0,0,0-.16.2s0,0,0,.07v0a.27.27,0,0,0,0,.09,1,1,0,0,0,.54.72,3.31,3.31,0,0,0,1.1.36A11.76,11.76,0,0,0,5,25h.6l.59,0a4,4,0,0,0,1.16-.24,1.34,1.34,0,0,0,.46-.29A.79.79,0,0,0,8,24.07a1.39,1.39,0,0,0,0-.34A.32.32,0,0,0,8,23.52a.54.54,0,0,0-.15-.15,1.6,1.6,0,0,0-.71-.31A3.3,3.3,0,0,0,6.51,23H6.06c0-.27.06-.54.08-.8H9.53l11.79,4.65.26-.31-2.17-.86a2.47,2.47,0,0,0,.66-.17,2.3,2.3,0,0,0,.49-.26l.2-.17a.93.93,0,0,0,.16-.18,1.76,1.76,0,0,0,.35-.81s0-.06,0-.09l.09.05a.85.85,0,0,1,.3.25,1,1,0,0,1,.19.42,1.58,1.58,0,0,1,.05.25,2.44,2.44,0,0,1,0,.27c0,.17,0,.38,0,.55s0,.34,0,.48a1.14,1.14,0,0,1-.08.33.21.21,0,0,1-.1.1.31.31,0,0,0,.19-.06,1,1,0,0,0,.28-.32,2,2,0,0,0,.2-.5,2.71,2.71,0,0,0,.07-.58A1.25,1.25,0,0,0,22.31,24.62Z"/><path class="cls-8" d="M5.65,3.21a1.52,1.52,0,0,1-.5.07A1.07,1.07,0,0,1,4,2.1,1.14,1.14,0,0,1,5.21.87a1.34,1.34,0,0,1,.44.06l-.09.23a.92.92,0,0,0-.35,0c-.37,0-.8.24-.8,1s.39,1,.81,1A1.07,1.07,0,0,0,5.58,3Z"/><path class="cls-8" d="M6.16,2.41h0c0,.28.07.66.43.66s.4-.4.4-.66-.06-.66-.41-.66-.42.4-.42.66m1.23,0a.79.79,0,0,1-.82.87.77.77,0,0,1-.8-.87.8.8,0,0,1,.83-.88A.77.77,0,0,1,7.39,2.41Z"/><rect class="cls-8" x="7.78" y="0.83" width="0.39" height="2.43"/><path class="cls-8" d="M9,2.41H9c0,.28.08.66.44.66s.4-.4.4-.66-.07-.66-.42-.66S9,2.15,9,2.41m1.24,0a.79.79,0,0,1-.83.87.77.77,0,0,1-.8-.87.8.8,0,0,1,.83-.88A.78.78,0,0,1,10.23,2.41Z"/><path class="cls-8" d="M11.83,3.21a1.08,1.08,0,0,1-.41.07.81.81,0,0,1-.91-.86.89.89,0,0,1,1-.89,1.54,1.54,0,0,1,.35.05l-.08.22a1.31,1.31,0,0,0-.28,0,.59.59,0,0,0-.58.66.56.56,0,0,0,.59.63,1.26,1.26,0,0,0,.28,0Z"/><path class="cls-8" d="M13.05,2.38h0c-.21,0-.68,0-.68.39a.28.28,0,0,0,.3.3A.37.37,0,0,0,13,2.82a.38.38,0,0,0,0-.1Zm0,.87,0-.17h0a.6.6,0,0,1-.49.2c-.33,0-.59-.19-.59-.48s.5-.62,1.06-.62V2.13c0-.23-.08-.39-.4-.39a1.07,1.07,0,0,0-.41.09l-.08-.19a1.48,1.48,0,0,1,.58-.11c.49,0,.71.22.71.61v.73a2.24,2.24,0,0,0,0,.38Z"/><rect class="cls-8" x="14.69" y="0.83" width="0.39" height="2.43"/><path class="cls-8" d="M15.9,2.41h0c0,.28.07.66.43.66s.41-.4.41-.66-.07-.66-.42-.66-.42.4-.42.66m1.24,0a.79.79,0,0,1-.83.87.77.77,0,0,1-.8-.87.8.8,0,0,1,.83-.88A.78.78,0,0,1,17.14,2.41Z"/><path class="cls-8" d="M17.46,3a1,1,0,0,0,.4.09c.22,0,.36-.09.36-.24s-.07-.22-.32-.34-.49-.28-.49-.48.29-.47.68-.47a1,1,0,0,1,.44.09l-.1.2a.84.84,0,0,0-.33-.07c-.22,0-.33.1-.33.21s.07.18.31.29.51.29.51.52-.33.51-.74.51a1.15,1.15,0,0,1-.49-.1Z"/><path class="cls-8" d="M20.63,2.38h0c-.21,0-.69,0-.69.39a.29.29,0,0,0,.31.3.37.37,0,0,0,.37-.25.38.38,0,0,0,0-.1Zm.05.87,0-.17h0a.62.62,0,0,1-.49.2c-.33,0-.59-.19-.59-.48s.5-.62,1.06-.62V2.13c0-.23-.09-.39-.4-.39a1.07,1.07,0,0,0-.41.09l-.09-.19a1.56,1.56,0,0,1,.58-.11c.5,0,.71.22.71.61v.73a1.5,1.5,0,0,0,0,.38Z"/><path class="cls-8" d="M21.51,2c0-.14,0-.31,0-.43h.35l0,.26h0a.62.62,0,0,1,.53-.29h.08v.28H22.4a.46.46,0,0,0-.48.36.68.68,0,0,0,0,.15v.94h-.39Z"/><path class="cls-8" d="M23,2.41h0c0,.28.07.66.43.66s.4-.4.4-.66-.06-.66-.41-.66-.42.4-.42.66m1.23,0a.79.79,0,0,1-.82.87.77.77,0,0,1-.81-.87.8.8,0,0,1,.83-.88A.78.78,0,0,1,24.18,2.41Z"/><path class="cls-8" d="M24.5,3a1,1,0,0,0,.4.09c.23,0,.37-.09.37-.24S25.2,2.6,25,2.48s-.5-.28-.5-.48.3-.47.68-.47a1,1,0,0,1,.45.09l-.11.2a.81.81,0,0,0-.33-.07c-.21,0-.32.1-.32.21s.06.18.31.29.51.29.51.52-.34.51-.74.51a1.09,1.09,0,0,1-.49-.1Z"/><path class="cls-8" d="M27.8,2.23h0c0-.34-.18-.49-.36-.49s-.39.26-.41.49Zm-.77.2c0,.52.3.63.58.63A1.08,1.08,0,0,0,28,3l.07.2a1.51,1.51,0,0,1-.55.09.81.81,0,0,1-.9-.86.81.81,0,0,1,.84-.89.67.67,0,0,1,.7.75v.15Z"/><path class="cls-8" d="M28.56,2a4.11,4.11,0,0,0,0-.43h.35l0,.2h0a.71.71,0,0,1,.57-.23.54.54,0,0,1,.6.58V3.25h-.4V2.16c0-.2-.05-.4-.34-.4A.36.36,0,0,0,29,2a.39.39,0,0,0,0,.15V3.25h-.39Z"/><path class="cls-8" d="M17.44,5.56h0c0,.28.08.67.43.67s.41-.4.41-.67-.07-.66-.42-.66-.42.4-.42.66m1.24,0a.8.8,0,0,1-.83.88.78.78,0,0,1-.8-.87.79.79,0,0,1,.83-.88A.78.78,0,0,1,18.68,5.56Z"/><path class="cls-8" d="M19.06,5.15c0-.14,0-.31,0-.44h.35l0,.27h0A.62.62,0,0,1,20,4.69H20V5H20a.47.47,0,0,0-.48.36.61.61,0,0,0,0,.15v.94h-.39Z"/><path class="cls-8" d="M21.31,5.36h0V5.25a.39.39,0,0,0-.37-.33c-.33,0-.44.31-.44.65s.13.65.42.65a.39.39,0,0,0,.38-.3.37.37,0,0,0,0-.11ZM21.7,4V6c0,.12,0,.31,0,.41h-.34l0-.21h0a.6.6,0,0,1-.51.24c-.42,0-.73-.31-.73-.87a.78.78,0,0,1,.75-.88.5.5,0,0,1,.45.2h0V4Z"/><path class="cls-8" d="M23.26,5.39h0c0-.34-.18-.49-.37-.49s-.39.26-.41.49Zm-.78.2c0,.52.3.63.59.63a1.12,1.12,0,0,0,.41-.07l.06.2a1.75,1.75,0,0,1-.54.08.8.8,0,0,1-.91-.85.81.81,0,0,1,.84-.89.68.68,0,0,1,.71.75.71.71,0,0,1,0,.15Z"/><path class="cls-8" d="M24,5.15c0-.2,0-.3,0-.44h.34l0,.21h0a.71.71,0,0,1,.57-.23.54.54,0,0,1,.6.58V6.41h-.4V5.32c0-.2-.05-.41-.34-.41a.38.38,0,0,0-.37.28.61.61,0,0,0,0,.15V6.41H24Z"/><path class="cls-8" d="M27.88,5.36h0V5.25a.39.39,0,0,0-.37-.33c-.33,0-.44.31-.44.65s.13.65.42.65a.39.39,0,0,0,.38-.3.37.37,0,0,0,0-.11ZM28.27,4V6c0,.12,0,.31,0,.41H28l0-.21h0a.6.6,0,0,1-.51.24c-.42,0-.73-.31-.73-.87a.78.78,0,0,1,.75-.88.51.51,0,0,1,.45.2h0V4Z"/><path class="cls-8" d="M29.83,5.39h0c0-.34-.18-.49-.37-.49s-.39.26-.41.49Zm-.78.2c0,.52.3.63.59.63a1.12,1.12,0,0,0,.41-.07l.06.2a1.75,1.75,0,0,1-.54.08.8.8,0,0,1-.91-.85.81.81,0,0,1,.84-.89.68.68,0,0,1,.71.75.71.71,0,0,1,0,.15Z"/><path class="cls-8" d="M19.13,7.42v.45h.48v.21h-.48v1c0,.23.12.29.26.29l.16,0,0,.21a1.12,1.12,0,0,1-.29,0,.64.64,0,0,1-.39-.1c-.1-.08-.15-.19-.15-.43v-1h-.3V7.87h.3V7.5Z"/><path class="cls-8" d="M20.83,8.69h0c-.21,0-.69,0-.69.39a.29.29,0,0,0,.31.31.37.37,0,0,0,.37-.26.31.31,0,0,0,0-.09Zm.05.88,0-.18h0a.62.62,0,0,1-.49.21.53.53,0,0,1-.59-.49c0-.42.5-.61,1.06-.61V8.44c0-.23-.09-.38-.4-.38a1.07,1.07,0,0,0-.41.08L19.92,8a1.56,1.56,0,0,1,.58-.11c.5,0,.71.23.71.61v.73a1.63,1.63,0,0,0,0,.39Z"/><path class="cls-8" d="M21.72,8.31c0-.2,0-.3,0-.44H22l0,.21h0a.69.69,0,0,1,.56-.24.53.53,0,0,1,.51.26h0a.76.76,0,0,1,.25-.19.77.77,0,0,1,.34-.07.54.54,0,0,1,.6.6V9.57H24V8.51c0-.23-.05-.44-.35-.44a.38.38,0,0,0-.36.25.78.78,0,0,0,0,.16V9.57h-.39V8.46c0-.19,0-.39-.34-.39a.38.38,0,0,0-.37.27.76.76,0,0,0,0,.15V9.57h-.39Z"/><path class="cls-8" d="M25.76,8.69h0c-.21,0-.68,0-.68.39a.28.28,0,0,0,.3.31.37.37,0,0,0,.37-.26.31.31,0,0,0,0-.09Zm.06.88,0-.18h0a.61.61,0,0,1-.49.21.53.53,0,0,1-.59-.49c0-.42.5-.61,1.06-.61V8.44c0-.23-.08-.38-.4-.38a1.07,1.07,0,0,0-.41.08L24.86,8a1.48,1.48,0,0,1,.58-.11c.49,0,.71.23.71.61v.73a2.42,2.42,0,0,0,0,.39Z"/><path class="cls-8" d="M26.65,8.31h0c0-.2,0-.3,0-.44H27l0,.2h0a.74.74,0,0,1,.57-.23.54.54,0,0,1,.6.59V9.57h-.4V8.47c0-.2-.05-.4-.34-.4a.38.38,0,0,0-.37.28.61.61,0,0,0,0,.15V9.57h-.39Zm.21-.71a.3.3,0,0,1,.32-.33.61.61,0,0,1,.25.06.51.51,0,0,0,.2.06c.08,0,.12,0,.13-.13H28a.29.29,0,0,1-.32.32.61.61,0,0,1-.25-.06.58.58,0,0,0-.19-.06c-.08,0-.12,0-.13.14Z"/><path class="cls-8" d="M29,8.72h0c0,.28.07.66.43.66s.4-.4.4-.66-.07-.66-.41-.66-.42.4-.42.66m1.23,0a.8.8,0,0,1-.82.88.78.78,0,0,1-.81-.88.8.8,0,0,1,.83-.88A.78.78,0,0,1,30.19,8.72Z"/><path class="cls-9" d="M19.52,12.54a10.77,10.77,0,0,1-.64,3.6c-.61,1.22-1,1.83-1,1.83s-1.17.36-1.26.66a.75.75,0,0,1-.37.43s1.14-2.36,1.36-3,1.05-.76,1.46-2a10.54,10.54,0,0,0,.42-1.45"/><polygon class="cls-9" points="13.25 16.86 13.25 18.99 12.34 18.64 12.1 16.77 13.12 16.92 13.25 16.86"/></svg>