<svg id="Capa_1" data-name="Capa 1" xmlns="http://www.w3.org/2000/svg" viewBox="0 0 23.76 24.48"><defs><style>.cls-1{fill:#b0d240;}.cls-2{fill:#f5a4c7;}.cls-3{fill:#fbc9b7;}.cls-4{fill:#231f20;}</style></defs><title>1-10meses</title><polygon class="cls-1" points="7.99 10.74 16.39 11.99 22.12 10.66 22.12 11.83 15.79 13.06 8.15 11.48 7.99 10.74"/><polygon class="cls-1" points="9.88 11.41 9.78 20.51 11.32 20.82 11.32 11.77 9.88 11.41"/><polygon class="cls-1" points="12.24 11.77 12.24 21.17 13.78 21.5 13.65 11.77 12.24 11.77"/><polygon class="cls-1" points="14.64 11.99 14.64 14.31 14.64 21.65 15.73 21.92 16.59 21.5 16.59 12.34 14.64 11.99"/><polygon class="cls-1" points="17.71 12.16 17.71 21.32 19.09 20.95 19.09 11.68 17.71 12.16"/><polygon class="cls-1" points="20.21 11.53 19.91 14.17 20.14 20.77 21.59 20.22 21.45 11.53 20.21 11.53"/><polygon class="cls-1" points="6.71 19.72 15.47 21.32 21.9 19.72 21.9 20.95 15.62 22.84 7.22 20.67 6.71 19.72"/><path class="cls-2" d="M4.74,12s-2.17,1.32-2.3,1.84-.3,1.33.19,1.74a16.76,16.76,0,0,0,1.83,1.19L6.08,17l2.43-1.08a4.28,4.28,0,0,0-.4-2.18C7.62,13,4.74,12,4.74,12"/><path class="cls-3" d="M3.51,12.72s.87-1.77,1-1.82.39-2.05.79-2.44,1.32-.89,1.27-1-.32-.68-.35-.77a42.66,42.66,0,0,1,4-2.45c.44-.18.91,0,.94.07a1.24,1.24,0,0,1,0,.42c0,.1-.35.45-.17.79a2.35,2.35,0,0,1,.25.78c0,.14-.09,1.15-.47,1.38A2.41,2.41,0,0,1,9.45,8a2.72,2.72,0,0,1-.76-.1s.14.41.46.49,1.14.49,1.25,1a7.62,7.62,0,0,0,.43,1.27,4.36,4.36,0,0,1,1.49.48c.33.31.45.44.45.44l.11,0s1.12-.36,1.37-.23a2.62,2.62,0,0,1,.39.23,13.33,13.33,0,0,0-1.2.66A1.8,1.8,0,0,1,12,12.5c-.4-.22-1.43-.58-1.68-.69s-1.24-.67-1.24-.67a6.3,6.3,0,0,0,.09,1.22,2.17,2.17,0,0,1-.34,1.32,2.25,2.25,0,0,1-.52.49A8.25,8.25,0,0,0,6.1,13a13.63,13.63,0,0,0-2.59-.26"/><path class="cls-3" d="M6,15.16a7.52,7.52,0,0,1-.91,1.32,14.13,14.13,0,0,1-1.47-.35A1.75,1.75,0,0,0,3.11,16s.1,0,.17.34.55,1.46.55,1.46-.94.9-.92,1.25a11,11,0,0,0,.18,1.22,1.31,1.31,0,0,1,0,.83c-.12.22-.17.48,0,.57a2.45,2.45,0,0,0,1.48-.07,3.94,3.94,0,0,1,.7-.51c.14,0,.56-.28.37-.38s-.67-.15-.7-.29a3.23,3.23,0,0,1,.32-1.17c.16-.25.38-.66.38-.66l.11-.93s.29.07.32.29a1.09,1.09,0,0,1-.15.62c-.08.1-.48,1.59-.28,1.9S6,20.67,6,21s-.13,1.41,0,1.51a18.57,18.57,0,0,0,2.89,0,.77.77,0,0,0,.4-.12,1.61,1.61,0,0,0,0-.22s.19,0,.17-.11a.63.63,0,0,0-.09-.2,1.57,1.57,0,0,0,.09-.36c0-.15-.08-.16-.08-.16s-.22.18-.79,0a6.42,6.42,0,0,1-1-.35s.25-1.3.29-1.37a10.69,10.69,0,0,0,.78-2c0-.38-.37-1.87-.37-2S8,14.41,7.44,14.42A1.68,1.68,0,0,0,6,15.16"/><path class="cls-4" d="M11.46,20.83h0v0c0-.72.07-1.44.08-2.16s0-1.43,0-2.15-.05-1.44-.08-2.15S11.4,13,11.34,12.4l.56.14.27.07c-.08.68-.12,1.37-.16,2.06s0,1.44,0,2.15.08,1.44.12,2.16,0,1.32,0,2l-.16,0ZM10.07,12h0a1.3,1.3,0,0,0,.26.14c.17.07.35.12.52.18l.4.1c-.07.65-.11,1.3-.15,2S11,15.75,11,16.47s0,1.44,0,2.15,0,1.33.07,2L10,20.39c0-.34,0-.68,0-1s0-.73,0-1.09c0-.73.1-1.45.13-2.18s0-1.45,0-2.18-.07-1.38-.15-2.07ZM9.52,6.89ZM9.4,11.06h0a5.81,5.81,0,0,1-.73-.55l-.32-.3-.28-.33H8a3.72,3.72,0,0,0,1,1.3.11.11,0,0,1,0,.05c0,.07,0,.14,0,.21s0,.28,0,.41a5.84,5.84,0,0,1,0,.83,1.64,1.64,0,0,1-.26.78,2.11,2.11,0,0,1-.26.35L8.32,14a3.06,3.06,0,0,0-.32-.3,3.89,3.89,0,0,0-.52-.34,4.6,4.6,0,0,0-.59-.28,6,6,0,0,0-.64-.23l-.33-.09-.33-.09c-.23,0-.47-.09-.71-.11a3.61,3.61,0,0,0-.74,0l-.33,0c.06-.11.13-.21.19-.31s.28-.37.39-.58a5.19,5.19,0,0,0,.48-1.25A4.7,4.7,0,0,0,5,9.84c0-.22,0-.44.08-.63a1.89,1.89,0,0,1,.69-1.1,3.65,3.65,0,0,1,.62-.45l0,0,0,.1,0-.13a.94.94,0,0,0,.1-.1.19.19,0,0,0,0-.2.38.38,0,0,0-.09-.13l0-.16.2.5L7,7l.1.5.37-.58,0,.45L7.74,7l0,.43L8.2,6.7l0,.75.14-.53.27.42s.08-1,.13-1.29.81-.91.87-.55l-.06,0a.44.44,0,0,0-.29,0A.6.6,0,0,0,9,5.75a.74.74,0,0,0-.08.3c0,.1,0,.21,0,.32a1.82,1.82,0,0,0,0,.33A.45.45,0,0,0,9.07,7a.66.66,0,0,0,.29.09h.12a.57.57,0,0,0,.18,0,.36.36,0,0,0,.13-.06A.17.17,0,0,0,9.85,7a.22.22,0,0,0,0-.13.69.69,0,0,0-.11-.13.49.49,0,0,1-.14-.18,1.29,1.29,0,0,1-.05-.21,1.56,1.56,0,0,0-.05-.16c0-.1,0-.15,0-.15h0s0,0,0,.15a.62.62,0,0,0,0,.16.73.73,0,0,0,0,.23.53.53,0,0,0,.14.29l.05.07h0a.28.28,0,0,1-.13,0,.52.52,0,0,1-.22-.2.53.53,0,0,1,0-.59,1.08,1.08,0,0,1,.18-.24.66.66,0,0,1,.16-.17l0,0s0,0,.05,0a.34.34,0,0,1,.09.12l.07.14h0a.41.41,0,0,0,0-.09,1.58,1.58,0,0,0,.61.39.53.53,0,0,1-.19-.34c-.08-.42.48-1.33.48-1.33l-.25.92L11,4.56a1.71,1.71,0,0,1-.09.3,1,1,0,0,0-.09.67.87.87,0,0,0,.09.17l.1.14a1.13,1.13,0,0,1,.12.28,1.57,1.57,0,0,1,0,.61,2,2,0,0,1-.23.59,1.71,1.71,0,0,1-.2.27.86.86,0,0,1-.31.19,3.8,3.8,0,0,1-1.62.1.86.86,0,0,1-.07-.36H8.66a.6.6,0,0,0,0,.35h0s0,.08,0,.11a.59.59,0,0,0,.17.24.79.79,0,0,0,.32.15,2.16,2.16,0,0,1,.25.1.8.8,0,0,1,.21.15A1.55,1.55,0,0,1,9.89,9a5,5,0,0,1,.4.84c.11.29.23.58.35.87l0,.1h.14a3.86,3.86,0,0,1,.58,0A2.48,2.48,0,0,1,12,11a3.4,3.4,0,0,1,.45.28,2,2,0,0,1,.37.34l0,.05.07,0A3.31,3.31,0,0,1,14,11.4h.12l.12,0,.23.08.19.12a4.73,4.73,0,0,0-.82.22,1.22,1.22,0,0,0-.28.14,1.18,1.18,0,0,1-.18.13,1.46,1.46,0,0,1-.38.18.77.77,0,0,1-.36,0c-.1,0-.34-.11-.5-.14l-1-.26a3.23,3.23,0,0,1-.47-.15,1.27,1.27,0,0,1-.38-.2C9.93,11.39,9.66,11.24,9.4,11.06Zm-1,5.76h0a5.18,5.18,0,0,1,0,.88,2.84,2.84,0,0,1-.08.42,1.59,1.59,0,0,1-.16.41c-.14.28-.28.57-.39.86a5.65,5.65,0,0,0-.26.89,3.44,3.44,0,0,0,0,.45,1,1,0,0,0,0,.24.38.38,0,0,0,0,.13s0,0,0,.08l.11.07a5.34,5.34,0,0,0,.65.13,4.23,4.23,0,0,1,.62.11,1.42,1.42,0,0,0,.37,0l.14,0s0,0,0,0a.36.36,0,0,1-.14.35l-.13.06.13,0,.13.07s0,0,0,.07l-.09.05L9.24,22l-.09.12,0,0s0,0,0,.11h0a.43.43,0,0,0,0,0l-.26,0s0,0,0,0-.15.12-.33.09a5.73,5.73,0,0,0-.67,0l-.17,0H7.63a1.53,1.53,0,0,1-.3,0,3.92,3.92,0,0,1-.59,0,1.59,1.59,0,0,1-.49-.06s0,0,0,0h0l0-.05a1,1,0,0,1,0-.17c0-.27.07-.56.09-.85a1.87,1.87,0,0,0,0-.47.54.54,0,0,0-.16-.28A.58.58,0,0,1,6,20.41a1.56,1.56,0,0,1-.22-.76,1.31,1.31,0,0,1,0-.39c0-.11.12-.26.16-.41A3.29,3.29,0,0,0,6.17,18v0l0,0c-.33-.47-.67-.94-1-1.41,0,0,0,0,0,0a6.28,6.28,0,0,1,1-1.25l.3-.27a2.54,2.54,0,0,1,.34-.23,1.51,1.51,0,0,1,.18-.09,1.21,1.21,0,0,1,.18-.05,1.1,1.1,0,0,1,.18,0l.07,0c.15.23.3.48.43.72a3.6,3.6,0,0,1,.2.39l.07.21a.42.42,0,0,1,0,.06l0,0a.24.24,0,0,0,.13.07h.07C8.34,16.33,8.36,16.58,8.36,16.82Zm.87,5.32Zm0,.2Zm0,0h0v0s0,0,0,0Zm-3.47-4h0a2.33,2.33,0,0,0,0-.5v0l.06.12C5.79,18.12,5.76,18.25,5.72,18.39Zm-.53,2Zm.21,0H5.28a.27.27,0,0,0-.14-.08.88.88,0,0,0-.2,0h0a.38.38,0,0,1,0-.1c.09-.22.22-.46.33-.68l0,.19a2,2,0,0,0,.13.71Zm-.29.55h0L5,21,5,21a1.26,1.26,0,0,1-.09.13.55.55,0,0,1-.19.18,2.4,2.4,0,0,1-.66.25,2,2,0,0,1-.72.08c-.24,0-.36-.15-.27-.33a1.6,1.6,0,0,0,.18-.56,4.4,4.4,0,0,0-.12-1.11,1.73,1.73,0,0,1,.27-.95,2,2,0,0,1,.28-.4c.11-.1.31-.29.32-.46A1.36,1.36,0,0,0,3.7,17c-.12-.21-.21-.41-.29-.56l-.14-.34.1,0c.29.1.56.16.84.24l.42.1.23.05h.21l.53,1a1.38,1.38,0,0,1,0,.31,2.37,2.37,0,0,1-.19.57c-.11.21-.24.45-.4.72a6.39,6.39,0,0,0-.52.88l0,.14c0,.05,0,.09,0,.15a.2.2,0,0,0,0,.12.31.31,0,0,0,.13.12.37.37,0,0,0,.18,0h.15a.22.22,0,0,0,.07.06.55.55,0,0,0,.3.07h.12v.1H5.3A.45.45,0,0,0,5.11,20.91ZM3,15.6H3a1.75,1.75,0,0,1-.31-.52,1.83,1.83,0,0,1-.13-.56c0-.09,0-.18,0-.28A1.2,1.2,0,0,1,2.61,14l0-.07,0-.06.08-.14L3,13.43c.08-.1.16-.21.25-.31l0,.08.46-.27a.87.87,0,0,1,.24-.07l.3,0a4.71,4.71,0,0,1,.65,0c.22,0,.44.07.66.11L5.8,13l.32.08.6.2a4.94,4.94,0,0,1,.57.26,4.19,4.19,0,0,1,.5.31,2.28,2.28,0,0,1,.39.36l.09.12,0,0a1.67,1.67,0,0,1,.09.58c0,.12,0,.24,0,.36a1,1,0,0,0,0-.1,6.19,6.19,0,0,0-.51-.83l0-.07-.08,0c-.12,0-.23,0-.35,0s-.24,0-.34,0l-.3.1-.24.13a2.27,2.27,0,0,0-.37.29,2.15,2.15,0,0,0-.29.32,4.07,4.07,0,0,0-.44.67c-.13.23-.24.45-.35.69H4.89l-.21,0-.41-.11A5.21,5.21,0,0,1,3.51,16a2.32,2.32,0,0,1-.31-.19A2.8,2.8,0,0,1,3,15.6Zm10.67-3h0c-.08.71-.12,1.43-.16,2.15s-.07,1.5-.08,2.25,0,1.49,0,2.24,0,1.33.07,2L12.3,21c0-.67,0-1.35,0-2s.11-1.44.13-2.16,0-1.43,0-2.15-.07-1.37-.15-2.05l.2.05a1.43,1.43,0,0,0,.72-.05l.2-.09Zm.12,0h0l.66.19.33.08c-.09.74-.12,1.47-.16,2.21s-.05,1.47,0,2.21.09,1.48.12,2.22,0,1.3,0,1.95l-.84-.18c0-.69.06-1.38.08-2.07s0-1.5,0-2.24,0-1.5-.07-2.25-.09-1.42-.16-2.13Zm2,.55h0l.07,0L16.6,13c-.07.67-.11,1.34-.15,2s-.07,1.43-.08,2.15,0,1.43,0,2.14,0,1.39.07,2.08l-.77.31-.81-.18c0-.67,0-1.33,0-2s.1-1.48.12-2.22,0-1.47,0-2.21-.07-1.46-.16-2.19l1,.24Zm1.74-.31h0l.18,0c-.08.67-.12,1.34-.15,2s0,1.42,0,2.13.09,1.42.13,2.13,0,1.4,0,2.09l-.8.22c0-.69.05-1.38.06-2.08s0-1.43,0-2.14,0-1.44-.07-2.15-.09-1.35-.16-2Zm.31,6.23h0c0-.71.1-1.42.13-2.13s0-1.42,0-2.13-.08-1.35-.16-2l1.2-.24c-.07.68-.12,1.36-.16,2.05s-.07,1.4-.07,2.11,0,1.4,0,2.1,0,1.36.07,2l-1,.26C17.83,20.46,17.82,19.79,17.84,19.11Zm2.22-6.77h0c-.09.68-.13,1.37-.16,2.05s0,1.4,0,2.1S20,17.9,20,18.6c0,.35,0,.7,0,1s0,.63,0,1l-.78.2c0-.65.06-1.31.07-2s0-1.4,0-2.1,0-1.41-.07-2.11-.09-1.38-.17-2.06l.12,0Zm.75-.17h0l.56-.15c-.07.66-.11,1.31-.15,2s-.07,1.4-.08,2.09,0,1.4,0,2.1,0,1.35.08,2l-.74.26h0l-.27.07c0-.3,0-.6,0-.9s0-.7,0-1c0-.7.1-1.4.12-2.11s0-1.4,0-2.1-.07-1.38-.16-2.06Zm-.67,8.6,1.35-.38.09,0v-.08l.54-.18c-.18,0-.36.08-.53.12,0-.68.06-1.36.07-2s0-1.4,0-2.1-.05-1.39-.07-2.09-.09-1.33-.16-2c.32-.08.65-.16,1-.26-.57.06-1.13.14-1.69.22s-1.12.17-1.67.27l-1.66.31-1.59.33-1.31-.22-.7-.11h-.16l-.19,0,.23-.13.19-.15.16-.1a6,6,0,0,1,1-.29l.2-.05c.37.09.75.16,1.13.23h.08c1-.14,1.95-.33,2.91-.55a26.68,26.68,0,0,0,2.82-.78c-1,.1-2,.26-3,.45s-1.91.41-2.84.67l-1.08,0-.16-.12a1.69,1.69,0,0,0-.49-.28,1.58,1.58,0,0,0-.31-.09l-.16,0h-.17a2.78,2.78,0,0,0-.6.11l-.47.16-.34-.31a5.33,5.33,0,0,0-.46-.32,2.78,2.78,0,0,0-.59-.23,3.89,3.89,0,0,0-.51-.08,4.8,4.8,0,0,0-.24-.82,4,4,0,0,0-.47-.89,2,2,0,0,0-.41-.4,1.43,1.43,0,0,0-.3-.16,1.46,1.46,0,0,0-.34-.1A.58.58,0,0,1,8.81,8a.06.06,0,0,1,0,0,3.77,3.77,0,0,0,1.67,0,.89.89,0,0,0,.38-.22,1.09,1.09,0,0,0,.24-.29,1.83,1.83,0,0,0,.28-.62,1.63,1.63,0,0,0,0-.66,1.27,1.27,0,0,0-.13-.32l-.11-.15a.49.49,0,0,1-.06-.13A.66.66,0,0,1,11.15,5l0,0a1.1,1.1,0,0,0-.11-1.4,5.13,5.13,0,0,0-3.31-1A3.29,3.29,0,0,0,4.92,4a1.61,1.61,0,0,0-.23,1.88,1.46,1.46,0,0,0,.22.33,3.06,3.06,0,0,0,.64.48l0,0a2.06,2.06,0,0,1,.55.78l.14-.24.07.24-.12.09A5.22,5.22,0,0,0,5.56,8a2.12,2.12,0,0,0-.8,1.19c0,.22,0,.42-.09.63s-.08.41-.14.62A5.33,5.33,0,0,1,4,11.62c-.11.19-.25.38-.38.57a3.38,3.38,0,0,0-.34.62l0,.13a4.32,4.32,0,0,0-.53.4l-.26.26-.11.13-.06.08-.05.07a1.44,1.44,0,0,0-.13.32,1.19,1.19,0,0,0,0,.32,1.34,1.34,0,0,0,.12.65,1,1,0,0,0,.18.3,1.69,1.69,0,0,0,.26.28A2.88,2.88,0,0,0,3,16l.17.09c0,.09,0,.23.05.42a5.82,5.82,0,0,0,.17.6,1.33,1.33,0,0,1,.17.71c0,.11-.1.18-.26.32a1.82,1.82,0,0,0-.33.47,1.55,1.55,0,0,0-.12,1.08,2.46,2.46,0,0,1,.24,1.08,1.59,1.59,0,0,1-.21.54.3.3,0,0,0,0,.33.59.59,0,0,0,.4.22,2.58,2.58,0,0,0,.92,0A3.71,3.71,0,0,0,5,21.56a1.16,1.16,0,0,0,.31-.26l.09-.11a.74.74,0,0,0,.31-.06l.07-.06a1.62,1.62,0,0,1,0,.22c0,.28-.06.56-.06.86,0,.14,0,.38.31.53a2.2,2.2,0,0,0,.73.1l.65-.05.32-.05.17,0,.13,0c.11,0,.36,0,.58,0A.87.87,0,0,0,9,22.56l.08,0a.21.21,0,0,0,.12,0h0l0,0a.18.18,0,0,0,.07-.05.18.18,0,0,0,.06-.22s0,0,0-.05a.76.76,0,0,0,.16-.11.13.13,0,0,0,.06-.1.1.1,0,0,0,0-.1.23.23,0,0,0-.1-.07.38.38,0,0,0,.1-.17.39.39,0,0,0,0-.24s-.05-.07-.1-.09l.32.09,1.93.52c1.29.34,2.58.67,3.88,1l.1,0,.09,0c1-.32,2.07-.64,3.09-1,.51-.17,1-.33,1.53-.51s1-.35,1.52-.54c-.55.12-1.08.26-1.61.4l-1.59.42c-1,.28-2,.58-3,.88-1.27-.32-2.54-.61-3.82-.9l-2-.42c-.66-.13-1.32-.27-2-.38.5.16,1,.3,1.54.45,0,0,0,0,0,0l-.18,0a.9.9,0,0,1-.27,0c-.2-.06-.43-.1-.63-.14a4.27,4.27,0,0,1-.57-.16.33.33,0,0,1,0-.13,1.5,1.5,0,0,1,0-.2,3.45,3.45,0,0,1,.12-.43c.09-.28.2-.57.3-.85s.23-.56.36-.84a1.38,1.38,0,0,0,.15-.46,1.83,1.83,0,0,0,0-.46,4.8,4.8,0,0,0-.3-1.63l.07,0,.07,0L8.59,16a1.39,1.39,0,0,0,.06-.13,1.92,1.92,0,0,0,0-.92,1.44,1.44,0,0,0-.27-.64,2.12,2.12,0,0,0,.37-.36A1.89,1.89,0,0,0,9,13.53a1.85,1.85,0,0,0,.22-.84,5.71,5.71,0,0,0-.11-.83c0-.14,0-.28-.05-.41a1.48,1.48,0,0,1,0-.21h0c.24.19.51.38.75.56h0c-.09.71-.13,1.41-.16,2.12s-.05,1.45,0,2.18.09,1.45.12,2.18c0,.36,0,.72,0,1.09s0,.72,0,1.09v.05h0c-.58-.1-1.15-.21-1.74-.3.62.18,1.25.34,1.88.51l1.89.48c1.26.31,2.53.6,3.81.88l.09,0,.09,0c1.06-.31,2.13-.62,3.18-.95l1-.32h0Z"/><path class="cls-4" d="M10.49,6.29l-.17-.06a.31.31,0,0,0,.17.06"/><path class="cls-4" d="M5.76,3.62S6,2.72,4.6,2.85,3.21,4.5,3.21,4.5s2.31,0,2.55-.88"/></svg>