<svg id="Capa_1" data-name="Capa 1" xmlns="http://www.w3.org/2000/svg" viewBox="0 0 29.28 20.88"><defs><style>.cls-1{fill:#f5a4c7;}.cls-2{fill:#fbc9b7;}.cls-3{fill:#231f20;}.cls-4{fill:#6d6f71;}</style></defs><title>2-10meses</title><path class="cls-1" d="M9.68,16.29c0-.06-.48-2.1-.9-2.15S3,14.92,3,14.92a.61.61,0,0,0-.68.75c.13.81-.16,3,1.3,3.44a10.25,10.25,0,0,0,3.49.12Z"/><path class="cls-2" d="M6.38,6.46c0,.93.87,1.52.9,2.11s-2.49,2.09-2.86,2.87-1.67,3.42-1.67,3.42V15l5.46.35.85.16-1.49.23-1.31.12S4.75,16.41,4.51,17s-.69,1.43-.36,1.63a7.92,7.92,0,0,0,3.07.88,12.8,12.8,0,0,0,4.52-.68,4.41,4.41,0,0,1,1-.41,13.4,13.4,0,0,0,2.56.41c.66-.07.85,0,.86,0a1.1,1.1,0,0,0,.61.33,5.15,5.15,0,0,0,1.44-.59,11.43,11.43,0,0,0,1.47-1.15c0-.12.24-.44.26-.58s-.06-.1,0-.23.1-.27,0-.29l-.1,0s.09-.24-.07-.25a.48.48,0,0,0-.23,0,.19.19,0,0,0-.1-.27,1.37,1.37,0,0,0-.44-.1,2.45,2.45,0,0,1-.52.33c-.24.09-.6.25-.6.25l-.29.16s-.17-.49-.2-.66-.05-.56-.19-.6-.41-.11-.54.08-.36.46-.36.46l-.79.48a5.21,5.21,0,0,0-2-1l-2.54.07.23-.7a6.86,6.86,0,0,0,.11-1.24,7.08,7.08,0,0,0-.25-.8l3.57-.26a7.85,7.85,0,0,0,1.92-.75,4.23,4.23,0,0,1,.67-.33,8.66,8.66,0,0,0,1.89-.07c.05-.14-.25-.26,0-.38s.8-.11.59-.32-.75-.12-.42-.36.6-.57.36-.62a3,3,0,0,0-.86.16,2.74,2.74,0,0,1,.32-.48c.13-.12.31-.16.27-.23s-.41,0-.41,0l-1,.31s0-.42,0-.65-.05-.51-.18-.45a2.47,2.47,0,0,0-.36.63h0l-.15-.07-.69.11s-.21-.66-.38-.69a.43.43,0,0,0-.44.32,1.76,1.76,0,0,1-.21.48,10.34,10.34,0,0,0-1.44.58,2.06,2.06,0,0,1-1.4.49c-.76,0-2.39-.09-2.39-.09l-.63,0s-.14-.44.14-.4a9.41,9.41,0,0,0,2.37,0c.37-.17.69-.22.68-.36s0-.2.1-.25.17-.17.05-.2a1,1,0,0,1-.44-.19.17.17,0,0,1-.05-.17s.84.1.83-.07-.28-.31-.11-.34.5-.27.41-.46-.61-.31-.49-.61.82-1.17.77-1.63,0-1-.93-1.19a15.56,15.56,0,0,0-1.92-.19S6.36,5.7,6.38,6.46"/><polygon class="cls-3" points="14.16 5.9 14.13 5.82 14.13 5.83 14.16 5.9"/><path class="cls-3" d="M12.72,5.91a5.84,5.84,0,0,0-1.57.55,8.51,8.51,0,0,0,1.13-.34.76.76,0,0,1,.88.14s.1-.38-.44-.35"/><path class="cls-3" d="M12.5,6.42a3.61,3.61,0,0,0-.84.23l.5-.09s-.19.22.09.25a.33.33,0,0,0,.35-.26s.11,0,.13,0,.09-.18-.23-.16"/><path class="cls-3" d="M28,5.92h0a2.19,2.19,0,0,1-1,.87,6.81,6.81,0,0,1-1.56.52,13.7,13.7,0,0,1-1.72.24,17.17,17.17,0,0,1-1.76,0c-.59,0-1.18,0-1.75-.1a15.14,15.14,0,0,1-1.7-.23,4.69,4.69,0,0,1-.78-.21,2,2,0,0,1-.33-.14,1.11,1.11,0,0,1-.22-.15L17,6.62l-.17,0L15,7l1.7-.89h0v0a1,1,0,0,1,.11-1.13,2.74,2.74,0,0,1,1.31-.69,16.22,16.22,0,0,1,3.4-.44c.58,0,1.16,0,1.75,0a16.5,16.5,0,0,1,1.73,0,6.59,6.59,0,0,1,1.59.32,2.49,2.49,0,0,1,1.15.77,1.59,1.59,0,0,1,.26.52,1.33,1.33,0,0,1,0,.28.88.88,0,0,1-.06.26M13.57,7.57h0a1.26,1.26,0,0,1-.36.21s-.09,0-.11.12.05.08.06.11a.41.41,0,0,1,.08.14.09.09,0,0,1-.06.09l-.1,0H13a2,2,0,0,1-.49,0h-.05s-.08,0-.07.08a.61.61,0,0,0,.15.24.45.45,0,0,0,.36.15c.06,0,.1.05.07.06l-.1.05h0l-.07,0a.18.18,0,0,0,0,.09c0,.1,0,.17,0,.22a.26.26,0,0,1-.17.12,1.41,1.41,0,0,1-.31.07l-.32,0a12.48,12.48,0,0,1-1.37,0l-.34,0-.34,0H9.71a.34.34,0,0,0-.15.06.28.28,0,0,0-.12.16.62.62,0,0,0,0,.27L9,9.84a3.56,3.56,0,0,0-1.62.34s0,0,0,0h0A3.8,3.8,0,0,1,9,10a3.2,3.2,0,0,1,.76.15,2,2,0,0,1,.34.13c.14.05.24.1.38.14a6,6,0,0,0,1.68.3c.29,0,.58,0,.86,0l.87-.06H14l1.6-.54L16,10l.41-.13a2.56,2.56,0,0,0,.43-.17,1,1,0,0,0,.35-.28,4.28,4.28,0,0,0,.26-.61,2,2,0,0,1,.29-.56.15.15,0,0,1,.06-.05.16.16,0,0,1,0,.06.53.53,0,0,1,0,.28,1.74,1.74,0,0,0,0,.64h0a.12.12,0,0,0,.12,0A5.35,5.35,0,0,1,18.63,9L19,8.93l.18,0h.06a.05.05,0,0,1,0,0,.47.47,0,0,1-.1.1,1.59,1.59,0,0,1-.24.2,6.18,6.18,0,0,1-.53.36s-.06.07,0,.1a.15.15,0,0,0,.17.05h0a5.2,5.2,0,0,1,.68-.17l.32,0,.09,0h0s0,.05,0,.06h0l-.08.07-.27.12a5.8,5.8,0,0,1-.66.16.16.16,0,0,0-.16.14c0,.08.09.15.21.15h0a5.82,5.82,0,0,1,.6.05l.24.05-.25,0c-.19,0-.41,0-.6,0a.3.3,0,0,0-.26.1c-.07.09,0,.2.11.24h0a2.1,2.1,0,0,1,.4.18l.07,0h-.28l-.23,0-.22-.05a.38.38,0,0,0-.15,0L17,11a.36.36,0,0,0-.18.07h0c-.21.15-.46.3-.7.44a5.46,5.46,0,0,1-.78.35l-.42.13-.22,0-.22,0-.44,0-.2,0-.11,0-.26,0a12,12,0,0,1-1.38.28c-.47.07-.94.14-1.43.18a14.07,14.07,0,0,1-2.9-.05h0s0,0,0,0a12,12,0,0,0,2.94.24l.32,0v.8c0,.15,0,.32,0,.48,0,.34-.06.67-.09.92s0,.24,0,.32l-.68.09L9,15.49l-.06,0-.49-.1-1-.17c-.66-.1-1.31-.21-2-.28a16.8,16.8,0,0,0-2-.11l-.6,0a10.48,10.48,0,0,1,.57-1.17c.25-.44.52-.88.81-1.31A12,12,0,0,1,6.33,9.93c.22-.18.44-.36.68-.52l.18-.14a1.53,1.53,0,0,0,.18-.18.78.78,0,0,0,.2-.42.84.84,0,0,0-.15-.53l-.11-.43a.52.52,0,0,1,.22-.51.85.85,0,0,0,0,.24A1.32,1.32,0,0,0,7.94,8a1.27,1.27,0,0,0,.27.18,1.08,1.08,0,0,0,.29.13,1.59,1.59,0,0,0,.5.05l.18,0,0,0H9a.94.94,0,0,1-.4-.1A1.05,1.05,0,0,1,8,7.39a.37.37,0,0,1,0-.21l0,0v0l0,0c.43,0,.54.11,1,.44L9,7.17H9v0l.4.28A1.29,1.29,0,0,1,9,6.6,1.07,1.07,0,0,0,9.28,6s0-.19,0,.29l-.11.6.54-.63-.1.54.52-.54.79-1-.05.78.62-1-.19,1.1.43-.64.85-1-.22.93.46-.72,0,1.18.75-1.2c0,.09.08.17.11.26a1.13,1.13,0,0,1,0,.68,3.45,3.45,0,0,1-.34.66,3.79,3.79,0,0,0-.2.34.44.44,0,0,0-.06.39,1.5,1.5,0,0,0,.32.3l.1.1-.21.09.26,0S13.59,7.54,13.57,7.57ZM11.3,10.08h0a5.23,5.23,0,0,0,.79,0,5.4,5.4,0,0,0,.8-.07,1.76,1.76,0,0,0,.41-.11l.32-.17a5.18,5.18,0,0,1,.63-.3,2.19,2.19,0,0,1,.34-.1L15,9.29l.74-.17c.07,0,.13-.06.14-.11V9a2.46,2.46,0,0,1,.19-.4,1.14,1.14,0,0,1,.1-.19l0,0a.05.05,0,0,1,0,0,1,1,0,0,1,.05.39v0a.13.13,0,0,0,0,.07.25.25,0,0,0,.25,0l.64-.29,0,.09a3.55,3.55,0,0,1-.29.55.6.6,0,0,1-.25.18,1.62,1.62,0,0,1-.37.11l-.42.11-.42.13c-.55.16-1.07.34-1.6.53-.24,0-.5.05-.76.07h-.81c-.27,0-.53,0-.79-.07s-.53-.09-.76-.15l-.36-.12a2.67,2.67,0,0,0-.4-.13l-.12,0a.08.08,0,0,0,0-.09h0A8.61,8.61,0,0,0,11.3,10.08Zm1.46,5.27h.3l.29,0a2,2,0,0,1,.51.16,5.81,5.81,0,0,1,.94.53l.91.61a4.27,4.27,0,0,0,1.09.54h0a.22.22,0,0,0,.21,0c.21-.19.42-.38.65-.56a3.73,3.73,0,0,1,.73-.49,1,1,0,0,1,.21-.08.66.66,0,0,0,.26-.11A.8.8,0,0,0,19,15.8s0,0,.12,0l.22.07a.25.25,0,0,1,.12.1s0,.07-.06.11l-.2.12a.05.05,0,0,0,0,.08.13.13,0,0,0,.12,0h0l.06,0,.08-.05.12-.05.12,0s0,0,0,0l0,0v0a.08.08,0,0,1,0,0,.35.35,0,0,1-.09.07l-.09.05-.2.07s-.06.06,0,.09a.12.12,0,0,0,.13,0h0a1.61,1.61,0,0,1,.29-.09h.13s0,0,0,0v0l0,0s0,.05-.07.08l0,0-.12,0-.11.08h0a.08.08,0,0,0,0,.11.17.17,0,0,0,.19,0l.13-.06h0s0,0-.08.06l-.18.08-.08,0c0,.06,0,.13.09.16h0l.05,0c-.06.09-.09.16-.14.23a3.37,3.37,0,0,1-.34.43l-.09.1L19,18a1.46,1.46,0,0,1-.24.17,5.87,5.87,0,0,1-.56.31l-.59.28-.31.12A1.6,1.6,0,0,1,17,19a.49.49,0,0,1-.12,0,.4.4,0,0,1-.11,0,.54.54,0,0,1-.21-.05.66.66,0,0,1-.2-.14,1.25,1.25,0,0,1-.16-.17.33.33,0,0,0-.29-.11h0a14.77,14.77,0,0,1-1.63,0,4.9,4.9,0,0,1-.78-.09l-.33-.08-.13-.06L13,18.27l0,0a.38.38,0,0,0-.4,0,6.67,6.67,0,0,1-.71.38,8.12,8.12,0,0,1-.79.31,8.24,8.24,0,0,1-.85.24c-.3.07-.6.12-.9.16a3.41,3.41,0,0,1-.46.05,3.42,3.42,0,0,1-.46,0c-.31,0-.62,0-.93,0-.16,0-.32,0-.47,0l-.47,0-.12,0-.07,0h0a3.79,3.79,0,0,1-1.78-.9.55.55,0,0,1-.16-.31.56.56,0,0,1,0-.33A3,3,0,0,1,4.76,17a2.57,2.57,0,0,1,.65-.62,3.35,3.35,0,0,1,1-.39,7.19,7.19,0,0,1,1.17-.15l.61-.05c.21,0,.41,0,.62,0a1.21,1.21,0,0,0,.2-.09l1.25-.14C11.08,15.43,11.94,15.35,12.76,15.35Zm3.62.62h0a1,1,0,0,0,.17-.1l.09,0,.07-.08a.35.35,0,0,0,.08-.2.85.85,0,0,0,0-.16.28.28,0,0,1,0-.13.14.14,0,0,1,.11,0,.35.35,0,0,1,.14.06l.08.05,0,0c0,.06,0,.1-.07.16a.73.73,0,0,1-.2.19l.16.32h0a.05.05,0,0,0,0,0l.07.05a.37.37,0,0,1,.11.15.85.85,0,0,1,0,.23v.1c-.18.12-.35.25-.51.38a4.24,4.24,0,0,1-.82-.49l-.37-.27A2.34,2.34,0,0,0,16.38,16Zm3.5.84h0s0,0,0,0Zm0,0Zm-.16.39ZM8.88,15.65h0l-.11,0a5.85,5.85,0,0,1-.6,0H8.11Zm-5.5,3.24h0a1.58,1.58,0,0,1-.59-.48,2.7,2.7,0,0,1-.36-1.32,10.47,10.47,0,0,1,0-1.37l0-.34c0-.14,0-.17.13-.21a2.6,2.6,0,0,1,.87-.07c.65,0,1.3.1,2,.14s1.33.08,2,.13l1,.07.47.07-1.14.22H7.56a7.47,7.47,0,0,0-1.25,0,4.4,4.4,0,0,0-.63.13,3.54,3.54,0,0,0-.57.22,2.86,2.86,0,0,0-.48.32,2.21,2.21,0,0,0-.37.38,4.23,4.23,0,0,0-.47.81.85.85,0,0,0-.06.5A.9.9,0,0,0,4,18.6a2.63,2.63,0,0,0,.84.58l-.56-.06A2.86,2.86,0,0,1,3.38,18.89ZM28.46,5.34a1.72,1.72,0,0,0-.26-.63,2.81,2.81,0,0,0-1.32-.94,7,7,0,0,0-1.77-.39,16,16,0,0,0-1.82,0c-.6,0-1.2,0-1.79.07s-1.19.11-1.78.2A9.88,9.88,0,0,0,18,4a2.75,2.75,0,0,0-1.37.85,1.05,1.05,0,0,0,.05,1.21c-.88.36-1.75.73-2.61,1.1l-.42.19a1.14,1.14,0,0,0-.11-.11A1,1,0,0,1,13.25,7c-.05-.09,0-.2.07-.31l.19-.33a3,3,0,0,0,.38-.68,1.31,1.31,0,0,0,0-.39l.19.57a2.31,2.31,0,0,0-1.49-2.5h0a2.41,2.41,0,0,0-.51-.25l-.19,0A7.75,7.75,0,0,0,8,2.6C6.81,2.75,4.29,3.94,4.4,6S6.27,7.77,6.91,8.32a.52.52,0,0,1,.1.32.54.54,0,0,1-.12.27L6.78,9l-.16.13a6.54,6.54,0,0,0-.69.57,10.13,10.13,0,0,0-2,2.54,13.58,13.58,0,0,0-.71,1.36,8.34,8.34,0,0,0-.44,1.24,1.43,1.43,0,0,0-.39.11.41.41,0,0,0-.21.2.5.5,0,0,0,0,.2l0,.35.11,1.38c0,.23,0,.46.07.69a2.08,2.08,0,0,0,.23.69,1.68,1.68,0,0,0,.62.59,3.3,3.3,0,0,0,1,.33c.35.06.67.09,1,.14s.66.08,1,.1a.3.3,0,0,0,.25-.11.25.25,0,0,0,0-.07c.31.05.62.11.94.13a7.78,7.78,0,0,0,1,.05,4,4,0,0,0,.49,0,4,4,0,0,0,.49,0c.32,0,.64-.08,1-.14s.63-.14.93-.23a9.18,9.18,0,0,0,.88-.31c.2-.08.39-.18.59-.28l.2.09a2.71,2.71,0,0,0,.44.13,7,7,0,0,0,.89.11,13.52,13.52,0,0,0,1.56,0,.58.58,0,0,0,.14.13,1.23,1.23,0,0,0,.34.21,1.16,1.16,0,0,0,.47.11,1.11,1.11,0,0,0,.26,0l.24-.06a3.08,3.08,0,0,0,.34-.13l.32-.14c.21-.1.42-.2.62-.31s.39-.22.58-.34l.26-.2.13-.12.1-.11a3.43,3.43,0,0,0,.33-.48l.12-.24a.14.14,0,0,0,0-.13A.15.15,0,0,0,20,17h0a.3.3,0,0,0,.17-.23s0-.08,0-.1h0l0,0h0a.28.28,0,0,0,.07-.09.24.24,0,0,0,0-.09.32.32,0,0,0,0-.08c0-.07-.15-.13-.23-.13a.09.09,0,0,0,0-.07.21.21,0,0,0,0-.08.2.2,0,0,0-.07-.09.24.24,0,0,0-.15,0h-.08s0,0,0-.05-.11-.14-.19-.18l-.25-.09a.51.51,0,0,0-.18,0,.26.26,0,0,0-.15.09.93.93,0,0,1-.15.13.69.69,0,0,1-.19.07l-.26.08a5.42,5.42,0,0,0-.48.26s0,0,0-.05a.42.42,0,0,0-.12-.36.43.43,0,0,0-.17-.12.54.54,0,0,0,.07-.13.34.34,0,0,0,0-.2.35.35,0,0,0-.15-.21l-.13-.06-.11,0a1.24,1.24,0,0,0-.27,0,.41.41,0,0,0-.26.1l-.11.15-.11.13a.31.31,0,0,1-.1.08l-.06,0-.08,0-.15.1a2.48,2.48,0,0,0-.5.42c-.13-.1-.27-.21-.42-.31a5.39,5.39,0,0,0-1-.57,4.07,4.07,0,0,0-.67-.19l-.34,0h-.34a16.34,16.34,0,0,0-1.74.14,1.26,1.26,0,0,0,.19-.24,1.47,1.47,0,0,0,.23-.43,1.94,1.94,0,0,0,.12-.53,2.32,2.32,0,0,0,0-.53,1.45,1.45,0,0,0-.18-.44,1.08,1.08,0,0,0-.24-.33c.37,0,.74,0,1.1-.1s.89-.13,1.33-.22a.91.91,0,0,0,.21.05l.29,0a3.41,3.41,0,0,0,.56,0l.27,0a1.23,1.23,0,0,0,.25-.05,2.73,2.73,0,0,0,.51-.14,5.42,5.42,0,0,0,.88-.38c.25-.14.47-.28.69-.43l.86-.09.21,0,.31,0h.36l.19,0,.18-.08a.33.33,0,0,0,.17-.18.22.22,0,0,0,0-.21.38.38,0,0,0-.11-.11l.27,0a.79.79,0,0,0,.22-.09.41.41,0,0,0,.12-.11v0h0v0h0a.26.26,0,0,0-.13-.24.79.79,0,0,0-.22-.09l-.19,0a1.43,1.43,0,0,0,.27-.15.38.38,0,0,0,.14-.14.37.37,0,0,0,.05-.11s0,0,0-.07a.25.25,0,0,0-.15-.2,1,1,0,0,0-.27-.06,2.55,2.55,0,0,0-.42,0l-.16.05L19,9.33a1.57,1.57,0,0,0,.24-.21L19.37,9s.09-.08,0-.19a.22.22,0,0,0-.17-.06h-.11l-.19,0-.37.08L18,9.08a1.3,1.3,0,0,1,0-.52.65.65,0,0,0,0-.34A.26.26,0,0,0,17.78,8a.36.36,0,0,0-.29.12,1.74,1.74,0,0,0-.27.37l-.54.1a.8.8,0,0,0,0-.27.52.52,0,0,0-.14-.29L16.44,8l0,0h-.05l-.05,0a.62.62,0,0,0-.44.05.5.5,0,0,0-.17.13.53.53,0,0,0-.1.12,1.27,1.27,0,0,0-.12.23,2.29,2.29,0,0,0-.12.37L14.79,9l-.35.14-.33.17-.59.35a1.79,1.79,0,0,1-.32.13,1,1,0,0,1-.34,0l-.75-.06c-.25,0-.51,0-.77,0-.51,0-1,0-1.56,0h0a.4.4,0,0,1,0-.15s0-.05,0-.05h0l.35,0h.35a13.3,13.3,0,0,0,1.41-.06l.36-.05a1.46,1.46,0,0,0,.34-.1.43.43,0,0,0,.28-.21.54.54,0,0,0,0-.26v0h0a.35.35,0,0,0,.17-.09.12.12,0,0,0,0-.19.43.43,0,0,0-.23-.09.28.28,0,0,1-.21-.08l-.06-.09a2.17,2.17,0,0,0,.36,0h.15a.4.4,0,0,0,.15,0,.21.21,0,0,0,.15-.22.39.39,0,0,0-.1-.19l0,0,0,0a1.33,1.33,0,0,0,.41-.27.17.17,0,0,0,0-.17l.48-.07c.87-.11,1.74-.25,2.6-.38a1.44,1.44,0,0,0,.25.18,3,3,0,0,0,.41.18,5.35,5.35,0,0,0,.87.24,12.2,12.2,0,0,0,1.8.18c.6,0,1.19,0,1.79,0s1.19,0,1.78-.11a17.31,17.31,0,0,0,1.76-.24,9,9,0,0,0,1.65-.49A2.65,2.65,0,0,0,28.37,6a1,1,0,0,0,.11-.34A1.25,1.25,0,0,0,28.46,5.34Z"/><path class="cls-4" d="M19.57,5.39h.08c.25,0,.36-.12.36-.29s-.09-.27-.32-.27l-.12,0Zm-.49-.78a2.64,2.64,0,0,1,.51,0,1.25,1.25,0,0,1,.69.14.42.42,0,0,1,.22.37.51.51,0,0,1-.22.42,1.14,1.14,0,0,1-.61.17h-.1v.64h-.49Z"/><path class="cls-4" d="M21.4,5.65h0l-.08-.36c0-.11-.06-.28-.08-.39h0c0,.11-.07.29-.09.39l-.1.36Zm-.4.26-.12.4h-.47L21,4.58h.59L22,6.31h-.47l-.11-.4Z"/><rect class="cls-4" x="22.17" y="5.48" width="0.75" height="0.24"/><path class="cls-4" d="M23.69,5.39h.08c.25,0,.36-.12.36-.29s-.09-.27-.32-.27l-.12,0Zm-.49-.78a2.64,2.64,0,0,1,.51,0,1.25,1.25,0,0,1,.69.14.42.42,0,0,1,.22.37.51.51,0,0,1-.22.42,1.14,1.14,0,0,1-.61.17h-.1v.64H23.2Z"/><path class="cls-4" d="M25.52,5.65h0l-.08-.36c0-.11-.06-.28-.08-.39h0c0,.11-.07.29-.09.39l-.1.36Zm-.4.26-.12.4h-.47l.54-1.73h.59l.49,1.73h-.47l-.11-.4Z"/><path class="cls-3" d="M5.8,4.15S7,3.27,5.45,2.88s-1.62,1.43-2.17,2A4.29,4.29,0,0,0,5.8,4.15"/></svg>