<svg id="Capa_1" data-name="Capa 1" xmlns="http://www.w3.org/2000/svg" viewBox="0 0 27 21.6"><defs><style>.cls-1{fill:#fc5;}.cls-2{fill:#b3d335;}.cls-3{fill:#f5a4c7;}.cls-4{fill:#fbc9b7;}.cls-5{fill:#231f20;}</style></defs><title>3-10meses</title><polygon class="cls-1" points="14.89 10.87 18.88 11.43 21.86 9.23 17.96 8.92 19.2 6.34 18.6 5.64 14.04 5.95 14.09 6.47 11.96 9.78 14.89 10.87"/><polygon class="cls-2" points="11.62 11.07 12.29 12.33 15.87 15.52 16.26 15.78 23.12 17.26 25.91 15.37 20.57 10.51 18.88 11.29 15.11 10.8 11.62 11.07"/><path class="cls-3" d="M9.63,16A1,1,0,0,0,9,14.5a10.29,10.29,0,0,0-3.41-.59A27.83,27.83,0,0,0,2.62,15v1.35s0,2.06.66,2.35A10.79,10.79,0,0,0,5.9,19Z"/><path class="cls-4" d="M2.94,15a18.75,18.75,0,0,1,1.67-3.1c.67-.8,3-2.27,2.62-2.82S6.27,8,6.54,7.44a19.6,19.6,0,0,1,4.16-3c.24,0,2.32.43,2.35,1.24s.13.73-.15,1.21-.55.71-.21,1,.35.34.35.34-.38.3-.27.52a1.39,1.39,0,0,1,0,.67s3.37-.3,3.63-.23a.66.66,0,0,1,.38.37s-2,1.31-2.25,1.4-3.45,1.1-3.61,1.26a1.77,1.77,0,0,1-.51.31s.64,1.27.48,1.67-.39,1.14-.39,1.14a11.41,11.41,0,0,1,3,.16l1.21.72s.8-.31.86-.51.38-.65.62-.54.28.15.24.37-.06.28.05.44a1.17,1.17,0,0,1,.14.5l1.18-.59a.26.26,0,0,1,.37-.13.76.76,0,0,1,.37.29s.23-.08.19.08l0,.15s.29.12.22.2,0,.2-.1.3-.18.11-.14.25a.92.92,0,0,1,0,.27,3.56,3.56,0,0,1-1.5,1.23c-.91.4-1.12.61-1.55.38a2.78,2.78,0,0,0-.86-.39,8.14,8.14,0,0,1-2,0,1.64,1.64,0,0,1-.7-.34,9,9,0,0,1-3.41,1,16.89,16.89,0,0,1-3.47-.29c-.44-.14-1.38-1.12-1-1.62A2.66,2.66,0,0,1,5.86,16a15.88,15.88,0,0,1,1.71-.19l.36-.15.91-.13-2.15-.22C5.6,15.15,2.94,15,2.94,15"/><polygon class="cls-5" points="13.46 6.67 13.43 6.59 13.43 6.6 13.46 6.67"/><path class="cls-5" d="M12.54,7s.09-.35-.41-.33a5.36,5.36,0,0,0-1.43.51,7.57,7.57,0,0,0,1-.32.71.71,0,0,1,.81.14"/><path class="cls-5" d="M11.89,7.32a3.47,3.47,0,0,0-.77.21l.46-.08s-.17.21.09.23.31-.24.31-.24.11,0,.13,0,.08-.16-.22-.15"/><path class="cls-5" d="M13.45,11.12h0c-.47.18-.95.36-1.43.52l-.37.11-.39.13a4.12,4.12,0,0,0-.7.34,2,2,0,0,0-.53.47,1.83,1.83,0,0,0-.14.28,1,1,0,0,0,0,.29l0,0,0,0A.8.8,0,0,1,10,13a.88.88,0,0,1,.19-.24,2,2,0,0,1,.23-.18c0,.08,0,.19,0,.33l0,.46c0,.17,0,.34,0,.52a7.24,7.24,0,0,1,0,1,2.29,2.29,0,0,1,0,.33h0l-.63.09c-.38.05-.75.11-1.12.18l-.06,0c-.14,0-.3-.06-.45-.09l-.9-.15c-.6-.1-1.2-.2-1.81-.26a16.06,16.06,0,0,0-1.86-.1,5.09,5.09,0,0,0-.55,0,7.65,7.65,0,0,1,.52-1.08c.23-.41.48-.81.75-1.21a10.59,10.59,0,0,1,1.94-2.22,7.31,7.31,0,0,1,.62-.48l.17-.13.17-.16a.74.74,0,0,0,.18-.39.78.78,0,0,0-.14-.49l-.1-.39a.47.47,0,0,1,.2-.47,1.43,1.43,0,0,0,0,.22,1.21,1.21,0,0,0,.34.47A1.08,1.08,0,0,0,8,8.73l.27.11a1.11,1.11,0,0,0,.46,0l.16,0v0H8.71a.89.89,0,0,1-.36-.1A1,1,0,0,1,7.82,8a.32.32,0,0,1,0-.19v0h0s0,0,0,0c.4,0,.5.1.94.4l-.12-.34h0v0l.37.26a1.16,1.16,0,0,1-.35-.75A1,1,0,0,0,9,6.75S9,6.57,9,7l-.11.55L9.38,7l-.1.5L9.76,7l.72-.86,0,.71L11,5.9l-.17,1,.39-.58.79-1-.21.85.43-.66,0,1.09.69-1.1a1.15,1.15,0,0,1,.1.23,1.13,1.13,0,0,1,0,.63A3.27,3.27,0,0,1,12.7,7l-.18.3a.42.42,0,0,0-.06.36,1.37,1.37,0,0,0,.3.29c.07.06.15.13.16.19l-.11.13-.22.11s-.09,0-.11.11,0,.07.06.1a.56.56,0,0,1,.07.13.08.08,0,0,1-.06.09l-.09,0h-.1a2.2,2.2,0,0,1-.44,0h0a0,0,0,0,0,0,0s-.08,0-.07.07a.59.59,0,0,0,.14.22.43.43,0,0,0,.33.14c.06,0,.09,0,.07,0s0,0-.1.05h0s-.05,0-.06,0a.12.12,0,0,0,0,.09c0,.09,0,.15,0,.2a.3.3,0,0,1-.16.11,1.91,1.91,0,0,1-.28.07l-.3,0a8.7,8.7,0,0,1-1.25,0H9.81l-.31,0H9.37l-.14.05a.33.33,0,0,0-.11.15.57.57,0,0,0,0,.26h0s.06.06.11.07l-.41.1A2.13,2.13,0,0,0,8,11a.69.69,0,0,0-.18.7l0,0s0,0,0,0a.77.77,0,0,1,.32-.6A2,2,0,0,1,9,10.73l.46-.08.49-.07,1-.13a7.21,7.21,0,0,0,1-.17,1.44,1.44,0,0,0,.5-.21c.13-.11.19-.21.29-.29a1.77,1.77,0,0,1,.77-.34,5.35,5.35,0,0,1,1-.11h0a6.35,6.35,0,0,1,1.23,0l.29,0a1.27,1.27,0,0,1,.28.06,1.12,1.12,0,0,1,.22.09l.07,0c-.56.35-1.1.71-1.64,1.07Zm-1.28,4.22h0a1.29,1.29,0,0,1,.28,0,1.48,1.48,0,0,1,.27,0,2.18,2.18,0,0,1,.46.14A5.18,5.18,0,0,1,14,16l.84.57a4.43,4.43,0,0,0,1,.49h0a.21.21,0,0,0,.2,0,7.54,7.54,0,0,1,.59-.52,3.92,3.92,0,0,1,.67-.45l.19-.07a.56.56,0,0,0,.24-.1.69.69,0,0,0,.15-.14s0,0,.11,0l.2.07c.06,0,.1.06.11.1s0,.06-.05.09l-.19.12s0,0,0,.07a.1.1,0,0,0,.11,0h0l.05,0,.08,0,.11-.06s.09,0,.11,0h0v0a.08.08,0,0,1,0,0l0,0a.29.29,0,0,1-.08.07l-.08,0-.19.07a.05.05,0,0,0,0,.08.12.12,0,0,0,.13,0h0a1.38,1.38,0,0,1,.27-.08.26.26,0,0,1,.12,0s0,0,0,0,0,0,0,0a0,0,0,0,1,0,0l-.06.07-.05,0-.1,0-.11.08h0a.07.07,0,0,0,0,.1.15.15,0,0,0,.18,0l.11-.06h0s0,0-.08.06l-.16.07a.13.13,0,0,0-.07.05c0,.06,0,.12.08.15h0l.06,0c-.06.08-.09.15-.14.22s-.19.26-.3.39l-.09.09-.1.08-.22.15c-.16.1-.33.19-.51.28l-.55.26-.28.11-.28.11-.11,0h-.09a.49.49,0,0,1-.2-.05.76.76,0,0,1-.33-.28.32.32,0,0,0-.26-.11h0c-.49,0-1,0-1.5,0a5.51,5.51,0,0,1-.71-.08l-.3-.08-.12-.06L12.35,18l0,0A.35.35,0,0,0,12,18a4.39,4.39,0,0,1-.65.34,5.29,5.29,0,0,1-.73.29,6.39,6.39,0,0,1-.78.22c-.27.06-.54.11-.82.15l-.42.05c-.14,0-.28,0-.43,0s-.57,0-.85,0-.29,0-.43,0l-.43,0H6.3a.15.15,0,0,0-.07,0h0a3.57,3.57,0,0,1-1.63-.82.54.54,0,0,1-.15-.29.5.5,0,0,1,0-.31,2.67,2.67,0,0,1,.36-.69,2.29,2.29,0,0,1,.59-.57,3,3,0,0,1,.9-.36,7.23,7.23,0,0,1,1.08-.14l.56,0c.19,0,.37,0,.57-.05a.61.61,0,0,0,.18-.09l1.15-.12C10.63,15.41,11.42,15.34,12.17,15.34Zm3.32.57h0a.56.56,0,0,0,.17-.09l.07-.05.07-.07a.34.34,0,0,0,.07-.18.38.38,0,0,0,0-.15s0-.09,0-.12.05,0,.1,0a.28.28,0,0,1,.13,0l.07.05a.05.05,0,0,1,0,0s0,.08-.06.14a.77.77,0,0,1-.19.17l.15.3h0l0,0,.07,0a.39.39,0,0,1,.1.14.66.66,0,0,1,0,.21v.09l-.47.35a4.38,4.38,0,0,1-.75-.45l-.34-.25A2.13,2.13,0,0,0,15.49,15.91Zm3.22.77h0s0,0,0,0Zm0,0Zm-.14.36ZM8.61,15.61h0l-.1.05c-.17,0-.37,0-.55,0H7.9Zm-5,3h0A1.33,1.33,0,0,1,3,18.15a2.37,2.37,0,0,1-.33-1.21,10.6,10.6,0,0,1,0-1.26l0-.31c0-.13,0-.15.11-.19a2.55,2.55,0,0,1,.81-.06c.59,0,1.19.08,1.8.12s1.22.08,1.84.12l.91.07a3,3,0,0,1,.43.06l-1,.2H7.39a6.24,6.24,0,0,0-1.14,0,2.85,2.85,0,0,0-.58.12,3,3,0,0,0-.52.2,2.4,2.4,0,0,0-.44.29,2.23,2.23,0,0,0-.34.35,3,3,0,0,0-.43.75.77.77,0,0,0-.06.45.8.8,0,0,0,.22.44,2.51,2.51,0,0,0,.77.53l-.52-.06A2.49,2.49,0,0,1,3.56,18.59Zm10-11h0a10.64,10.64,0,0,1,.73-.93c.79,0,1.58.06,2.38.07s1.41,0,2.11,0c-.15.32-.29.63-.43.95s-.31.77-.44,1.16a.07.07,0,0,0-.06,0h0c-.82-.13-1.65-.22-2.48-.29l-1.28-.09L13,8.43C13.18,8.13,13.36,7.83,13.57,7.54Zm3.35,2h0l.31-.2-.3.23S16.92,9.53,16.92,9.52Zm-7.48.77h0a.56.56,0,0,1,0-.18l0,0h0l.32,0h.06l.78.09-.83.12-.39.08A.13.13,0,0,0,9.44,10.29ZM12,9.94h0l.1,0,.06,0A.44.44,0,0,1,12,9.94Zm6.81,1.22h0l-3.35-.45.84-.61h0L18,8.92c1.17.14,2.34.26,3.52.38Zm7.16,4.11L20.6,10.51h0s0,0,0,0l5.11,4.78L23.24,17l-7.47-5.91,3,.41h0a.39.39,0,0,0,.24,0L22,9.3h0a.1.1,0,0,0,.05-.08c0-.08-.06-.14-.17-.15L18,8.8c.26-.35.49-.71.72-1.08s.46-.76.68-1.15c0,0,0,0,0-.06s-.09-.16-.21-.17a6.25,6.25,0,0,0-.33-.63.12.12,0,0,0-.11-.06h0a26.42,26.42,0,0,0-2.67,0c-.45,0-.89.06-1.33.12l-.34.06A1.29,1.29,0,0,0,14,6a.18.18,0,0,0-.1.27.52.52,0,0,0,.23.18.43.43,0,0,1-.12-.2.13.13,0,0,1,.11-.13.36.36,0,0,1,.14,0h.47l1.32,0c.86,0,1.72-.07,2.57-.14l.49.46h0c-.82,0-1.64,0-2.46,0s-1.64,0-2.46.07h0a.13.13,0,0,0-.11,0c-.21.34-.42.69-.66,1L13,8l-.14-.14a1.25,1.25,0,0,1-.26-.25c0-.08,0-.19.06-.29l.18-.3a2.75,2.75,0,0,0,.35-.63,1.34,1.34,0,0,0,0-.35l.17.52A2.1,2.1,0,0,0,12.07,4.3h0a3.25,3.25,0,0,0-.46-.22L11.41,4a7.11,7.11,0,0,0-3.58-.38C6.71,3.78,4.4,4.86,4.5,6.72S6.21,8.38,6.81,8.89a.49.49,0,0,1,.08.3.43.43,0,0,1-.11.24s-.07.07-.1.1l-.15.12c-.22.17-.43.34-.63.52A9.87,9.87,0,0,0,4,12.51a12.27,12.27,0,0,0-.64,1.25A7,7,0,0,0,3,14.89a1.61,1.61,0,0,0-.36.1.42.42,0,0,0-.19.18.47.47,0,0,0,0,.19l0,.32.1,1.26c0,.22,0,.43.07.64a1.68,1.68,0,0,0,.21.63,1.44,1.44,0,0,0,.57.55,3.15,3.15,0,0,0,.88.3l.92.13c.31,0,.6.07,1,.09a.28.28,0,0,0,.23-.1.25.25,0,0,0,0-.07,8.1,8.1,0,0,0,.86.13,8.83,8.83,0,0,0,.89,0h.45l.45,0a8.48,8.48,0,0,0,.88-.13,7.54,7.54,0,0,0,.85-.21,7,7,0,0,0,.81-.28c.19-.08.37-.17.54-.26l.19.09a1.91,1.91,0,0,0,.41.11,5.63,5.63,0,0,0,.81.11,13.62,13.62,0,0,0,1.43,0l.13.12a1.27,1.27,0,0,0,.31.19,1.19,1.19,0,0,0,.44.1h.24l.21-.05.32-.13.29-.13c.2-.08.39-.18.57-.27l.53-.32a2.23,2.23,0,0,0,.24-.19l.12-.1.1-.11a4.27,4.27,0,0,0,.3-.44c0-.07.07-.15.11-.21s0-.08,0-.12a.21.21,0,0,0-.07-.11h0c.06-.05.15-.09.16-.21a.18.18,0,0,0,0-.09h0l0,0s0,0,0,0a.24.24,0,0,0,.06-.08.19.19,0,0,0,0-.08.1.1,0,0,0,0-.07v0a4.94,4.94,0,0,0,.49.21,12.36,12.36,0,0,0,1.34.4,13.48,13.48,0,0,0,1.41.26c.39.05.67.06.67.06a4.79,4.79,0,0,0-.57-.25,13.08,13.08,0,0,0-1.34-.4,13.63,13.63,0,0,0-1.42-.26c-.3,0-.53-.05-.62-.06a.33.33,0,0,0-.16,0,.09.09,0,0,0,0-.07.16.16,0,0,0,0-.07.16.16,0,0,0-.06-.08.21.21,0,0,0-.14,0h-.08s0,0,0,0-.11-.13-.18-.17l-.23-.08a.4.4,0,0,0-.16,0,.21.21,0,0,0-.14.08.71.71,0,0,1-.13.12.48.48,0,0,1-.18.06l-.24.08a3.09,3.09,0,0,0-.44.24s0,0,0-.05a.41.41,0,0,0-.11-.33.64.64,0,0,0-.16-.11.34.34,0,0,0,.06-.12.31.31,0,0,0,0-.19.31.31,0,0,0-.14-.18.26.26,0,0,0-.13-.06.29.29,0,0,0-.1,0,1,1,0,0,0-.24,0,.38.38,0,0,0-.24.1,1.13,1.13,0,0,0-.1.13.63.63,0,0,1-.1.12l-.09.07-.06,0-.07,0-.14.09a2.12,2.12,0,0,0-.46.39,3.89,3.89,0,0,0-.39-.28,4.11,4.11,0,0,0-.95-.53,3.27,3.27,0,0,0-.62-.17,2.32,2.32,0,0,0-.31,0h-.31a14.17,14.17,0,0,0-1.61.13,2,2,0,0,0,.21-.29,1.59,1.59,0,0,0,.19-.46,1.76,1.76,0,0,0,.07-.56,2.43,2.43,0,0,0-.09-.55,1.93,1.93,0,0,0-.19-.46,2.06,2.06,0,0,0-.24-.34,2,2,0,0,1,.25-.14,5.07,5.07,0,0,1,.68-.27l.36-.1L12,12a5.5,5.5,0,0,0,.37.47,16.57,16.57,0,0,0,1.2,1.24c.47.43,1,.85,1.37,1.15s.7.49.7.49a5.39,5.39,0,0,0-.46-.61A16.57,16.57,0,0,0,14,13.47c-.47-.43-1-.85-1.37-1.15-.21-.16-.39-.28-.52-.37l.1,0c.53-.13,1-.31,1.51-.48s.8-.3,1.2-.47l8.21,6.28h0a.22.22,0,0,0,.22,0l2.56-1.89A.06.06,0,0,0,25.92,15.27Z"/><path class="cls-5" d="M6.19,4.84a1.41,1.41,0,0,0-1.94-.72c-1.51.51-1,2.47-1,2.47A16.61,16.61,0,0,0,6.19,4.84"/></svg>