<svg id="Capa_1" data-name="Capa 1" xmlns="http://www.w3.org/2000/svg" viewBox="0 0 26.28 25.08"><defs><style>.cls-1{fill:#e29f27;}.cls-2{fill:#ffcc64;}.cls-3{fill:#f5a4c7;}.cls-4{fill:#fbcabb;}.cls-5{fill:#231f20;}</style></defs><title>1-15meses</title><path class="cls-1" d="M6.21,14.79s-.53-.18-.7,0-.55,1-.13,1.14a.81.81,0,0,0,.71-.15,1.26,1.26,0,0,0,.21-.51,2,2,0,0,0-.09-.48"/><path class="cls-2" d="M3.83,17.58S3,17.1,2.77,18.7s0,3.32.32,3.61a5.46,5.46,0,0,0,2.72.34c.72-.14,3.11-2.8,3.11-2.8s-.1-1.72-.35-1.92S8,17.44,8,17.44s.21-1.13-.15-1.22a16.08,16.08,0,0,0-2.34-.29c-.5,0-1.52.29-1.67.6a2.37,2.37,0,0,0,0,1"/><path class="cls-3" d="M16.51,17c-.15,0-3.17,3.22-2.28,3.64s5.64,2.76,6.9,2.8A3,3,0,0,0,24,22a5.58,5.58,0,0,0,.37-3.25c-.28-.48-2.17-1.73-7.85-1.75"/><path class="cls-4" d="M5.19,15.16s.4.05.34-.23a.89.89,0,0,1,0-.48,6.06,6.06,0,0,1,1.14,0c.23.08-.16.28-.23.46s0,.52.31.52a4.2,4.2,0,0,0,1-.35c.06,0,.71-.35.71-.35s3,1.13,3.75,1a8.1,8.1,0,0,1,1.69-.08s-.68,1.41-.32,1.84a3.48,3.48,0,0,1,.55,1.06,15.29,15.29,0,0,0-3.36,0C10,18.77,7,20.75,7,20.75a14.42,14.42,0,0,0-1.76-1.24,1.42,1.42,0,0,1-.69-.28c-.06-.08-.08-.21-.26-.16s-.53.15-.53.29a.34.34,0,0,1-.06.21s-.12-.19-.23-.1,0,.34,0,.34-.29-.09-.31.08a2.23,2.23,0,0,0,0,.46s.66,1.81,1.82,2.24,1.37.81,2.14.62a5.18,5.18,0,0,0,1.24-.46c.1-.05,2.38.07,2.79-.07a4.11,4.11,0,0,1,1-.25,20.22,20.22,0,0,0,4.12,1.18,23.07,23.07,0,0,0,4.24-.24c.62-.18,1.9-1.11,1.9-1.59a3.89,3.89,0,0,0-1-1.82,3.37,3.37,0,0,0-1.87-.61c-1.07-.14-2-.28-2-.28l-1.12-.22s1.91-.36,2.41-.36,4.42-.27,4.54-.29l.48-.09a6.38,6.38,0,0,0-.56-1.35c-.42-.78-2.7-4.48-3.33-4.81s-1.55-.69-1.48-1.29a5.19,5.19,0,0,1,.77-1.75,3.05,3.05,0,0,0-1-2c-.75-.68-.91-1.12-1.92-1.41a14.87,14.87,0,0,0-4.38-.14c-.77.16-1.18.46-1.24.72a1.88,1.88,0,0,0,0,1c.12.31.75,1.34.75,1.34s0,.18-.43.57-.06.46.17.58a1.13,1.13,0,0,1,.26.17s-.39.24-.2.32,0,.11.16.15a3.35,3.35,0,0,0,.4.07l.54,0a4.07,4.07,0,0,1-.39.28c-.06,0-.4-.05-.39.07s.14.18.23.2.07.09.07.24-.12.22.19.34a3.5,3.5,0,0,0,1,.18l1.34.1s1.07-.06,1.19-.05a.16.16,0,0,1,.17.18c0,.08-.27.16-.27.16s-.08.1-.36.1-2.3.58-3.19.78a9.81,9.81,0,0,1-2.62.16,21.71,21.71,0,0,0-2.41.11,6.23,6.23,0,0,0-2.1.79c-.63.33-.51.63-.34.85a1.83,1.83,0,0,0,.77.36"/><path class="cls-5" d="M24.23,20.73h0a3.12,3.12,0,0,1-.43,1.57,1.78,1.78,0,0,1-.71.58,3.33,3.33,0,0,1-1,.28l-.67.07a3.24,3.24,0,0,0,1-.69,1.24,1.24,0,0,0,.29-.57,1.07,1.07,0,0,0-.08-.59,4.29,4.29,0,0,0-.57-1,2.66,2.66,0,0,0-.44-.45,3,3,0,0,0-.57-.38,3.54,3.54,0,0,0-.69-.27,4.62,4.62,0,0,0-.74-.15,8.44,8.44,0,0,0-1.5-.06,1.34,1.34,0,0,1-.2,0l-1.36-.26a5,5,0,0,1,.56-.08c.39,0,.79-.06,1.19-.09.8-.05,1.6-.08,2.39-.14s1.59-.15,2.36-.17a2.9,2.9,0,0,1,1,.08c.11.05.13.08.14.24l0,.41a13,13,0,0,1,0,1.65m-4.85,2.7h0l-.56.05a3.57,3.57,0,0,1-.56,0,8.37,8.37,0,0,1-1.12,0,5.27,5.27,0,0,1-.56,0,5.14,5.14,0,0,1-.55-.06c-.36-.05-.72-.11-1.07-.19s-.69-.18-1-.29a8.93,8.93,0,0,1-.95-.37,8.35,8.35,0,0,1-.85-.45.46.46,0,0,0-.48,0l0,0-.11.08-.16.07a3.26,3.26,0,0,1-.4.11,8.64,8.64,0,0,1-.92.1,18.12,18.12,0,0,1-1.95,0h0a.45.45,0,0,0-.35.14.9.9,0,0,1-.19.21,1,1,0,0,1-.24.16.78.78,0,0,1-.25.07H6.91a.7.7,0,0,1-.14,0c-.09,0-.24-.09-.36-.13L6,22.75c-.25-.11-.49-.22-.72-.34a7,7,0,0,1-.66-.36l-.29-.21-.13-.1a1.14,1.14,0,0,1-.11-.11,3.8,3.8,0,0,1-.4-.52c-.06-.08-.11-.17-.18-.27l.07,0h0a.18.18,0,0,0,.1-.07c0-.06,0-.15-.09-.19a1.33,1.33,0,0,1-.21-.09.28.28,0,0,1-.09-.07h0l.15.08a.21.21,0,0,0,.19,0c.08,0,.1-.11,0-.16h0a.71.71,0,0,0-.14-.1l-.14,0-.05,0L3.31,20a.08.08,0,0,1,0,0s0-.06,0,0,0,0,0,0l.16,0a2.3,2.3,0,0,1,.35.1h0A.15.15,0,0,0,4,20s0-.09,0-.11l-.24-.09-.11-.05a.53.53,0,0,1-.11-.09l0-.05a.18.18,0,0,1,0-.05v0h0l.14,0,.15.07.09.06.07,0H4a.14.14,0,0,0,.14,0s0-.07,0-.1l-.25-.15s-.07-.08-.06-.12.07-.09.14-.13a1.29,1.29,0,0,1,.26-.08c.1,0,.09,0,.15,0a1.13,1.13,0,0,0,.19.19,1.2,1.2,0,0,0,.31.13,1.2,1.2,0,0,1,.25.09,4.51,4.51,0,0,1,.88.59c.27.21.53.44.77.66a.27.27,0,0,0,.26,0H7a5.84,5.84,0,0,0,1.3-.65c.38-.24.74-.5,1.09-.74a6.94,6.94,0,0,1,1.13-.63,2.78,2.78,0,0,1,.6-.19,1.71,1.71,0,0,1,.36,0,2.14,2.14,0,0,1,.36,0c1,0,2,.1,3,.19l1.5.15a.58.58,0,0,0,.24.11,6.37,6.37,0,0,0,.74.07l.73.06a8.9,8.9,0,0,1,1.41.18,3.73,3.73,0,0,1,1.17.47,2.91,2.91,0,0,1,.78.74,3.69,3.69,0,0,1,.47.9.73.73,0,0,1,.06.4.8.8,0,0,1-.19.38,4.59,4.59,0,0,1-2.14,1.07h0l-.07,0ZM3.53,20.85Zm.6,1.63h0a1.72,1.72,0,0,1-.88-.37.37.37,0,0,1-.07-.3l0-.42v-.28a.54.54,0,0,1,.07.13,4.42,4.42,0,0,0,.39.57L3.8,22l.15.14.32.24.4.24Zm-.78-2.11Zm0,0Zm-.13-2.11h0a.9.9,0,0,1,0-.16.69.69,0,0,1,.22-.3,1.16,1.16,0,0,1,.37-.23L4,17.52v-.09l-.05-.5,0-.25v-.06s0,0,0,0,0-.05.06-.08a1.36,1.36,0,0,1,.52-.29,3.35,3.35,0,0,1,.66-.15H5.3a1.06,1.06,0,0,0,.39.06,1.37,1.37,0,0,0,.38-.05,3.5,3.5,0,0,1,.48.06,6.38,6.38,0,0,1,.66.15l.3.11.15.07c0,.32,0,.65,0,1v.1l.11.06a2.51,2.51,0,0,1,.29.2A1.84,1.84,0,0,1,8.3,18a1.23,1.23,0,0,1,.17.25,1,1,0,0,1,0,.13.81.81,0,0,1,0,.16c0,.3.07.61.13.91L7.94,20a6,6,0,0,1-1,.58c-.24-.19-.47-.37-.73-.55a6.6,6.6,0,0,0-1-.57,1.6,1.6,0,0,0-.31-.1.69.69,0,0,1-.23-.09.83.83,0,0,1-.17-.16A.3.3,0,0,0,4.35,19a.52.52,0,0,0-.22,0,1.33,1.33,0,0,0-.3.11.4.4,0,0,0-.23.21s0,0,0,.06l-.11,0a.34.34,0,0,0-.17.05.21.21,0,0,0-.08.11.22.22,0,0,0,0,.09.19.19,0,0,0,0,.09H3.22c0-.28,0-.57,0-.85v-.61Zm2.36-3h0a.75.75,0,0,1,.07-.12l0,0,0,0a1.17,1.17,0,0,1,.14-.19.43.43,0,0,1,.32-.05h0c-.09.12-.26.29-.12.54l.06.05s0,0,0,.08a.4.4,0,0,1,0,.28.19.19,0,0,1-.13.07H5.69a.8.8,0,0,1-.2-.06.23.23,0,0,1-.06-.13A1,1,0,0,1,5.57,15.24Zm1.23-.91Zm-.19.85Zm.45-.58ZM6,14.44H6l.44.1.07,0a2.76,2.76,0,0,0-.27.23l0,0a1,1,0,0,0-.2-.08.56.56,0,0,0-.33,0l0-.08c0-.1,0-.16,0-.16a.29.29,0,0,1,.14,0H6C5.93,14.44,6,14.43,6,14.44ZM9,18.2H9a1.16,1.16,0,0,0-.18-.35,1.64,1.64,0,0,0-.28-.31,2.48,2.48,0,0,0-.26-.19c0-.33,0-.66,0-1v-.11l-.09,0a2.14,2.14,0,0,0-.38-.13A2.22,2.22,0,0,0,7.36,16a6.42,6.42,0,0,0-.75-.1H6.3a.12.12,0,0,0,0-.08.37.37,0,0,0-.09-.27h0l0,0,0,0a.85.85,0,0,0,.22.06.65.65,0,0,0,.19,0,2.5,2.5,0,0,0,1.18-.3,3.29,3.29,0,0,0,.44-.28l.14-.14a19.66,19.66,0,0,0,1.89.57c.38.09.77.18,1.17.24a2.24,2.24,0,0,0,.31.05l.3,0c.22,0,.44,0,.65,0a6,6,0,0,0,.74,0l0,0a2.16,2.16,0,0,0-.2.54,2.21,2.21,0,0,0-.06.63,3.05,3.05,0,0,0,.14.63,2.12,2.12,0,0,0,.28.52,1.83,1.83,0,0,0,.23.29,17.68,17.68,0,0,0-2.08-.17h-.41l-.4,0a4,4,0,0,0-.8.22A5.9,5.9,0,0,0,9,19.22l-.13.09q.06-.37.09-.75a.49.49,0,0,0,0-.17A.65.65,0,0,0,9,18.2Zm8.48.89h0s-.05,0-.07,0a5.58,5.58,0,0,1-.72,0L16.5,19ZM4.7,14.82h0l-.18-.12s-.1-.08-.11-.12.09-.39.33-.54a9.12,9.12,0,0,1,.83-.44,2.38,2.38,0,0,1,.9-.28,8.43,8.43,0,0,1,1-.11,6.8,6.8,0,0,1,1,0c.32,0,.68.09,1,.11a14,14,0,0,0,2.15,0h.09c.93-.32,1.89-.62,2.86-.88a4.46,4.46,0,0,1,.71-.14,4.7,4.7,0,0,1,.75,0,5.1,5.1,0,0,1,1.45.33l0,0a4.46,4.46,0,0,0-1.44-.5l-.29,0v-.1a.51.51,0,0,0,0-.17.35.35,0,0,0-.14-.2.75.75,0,0,0-.18-.07h-.17c-.17,0-.26,0-.41,0l-.41,0a14.78,14.78,0,0,1-1.63,0l-.39,0-.36-.08a.35.35,0,0,1-.22-.15c0-.06,0-.14,0-.26a.31.31,0,0,0,0-.12l-.08,0,0,0a.36.36,0,0,1-.13,0s0-.07.09-.07a.57.57,0,0,0,.43-.18.82.82,0,0,0,.18-.29v0a.15.15,0,0,0-.15-.06h0a2.87,2.87,0,0,1-.58.07h-.13l-.12,0c-.06,0-.08-.05-.07-.11a.37.37,0,0,1,.08-.17s.06,0,.08-.13-.1-.11-.14-.14a1.53,1.53,0,0,1-.42-.26c-.06-.08.08-.21.2-.31a1.66,1.66,0,0,0,.38-.37c.09-.18,0-.33-.07-.47s-.15-.27-.23-.4A3.58,3.58,0,0,1,10.75,7a1.44,1.44,0,0,1,.05-.82,2,2,0,0,1,.13-.31l.91,1.44-.06-1.42.56.86-.27-1.11,1,1.25.52.76-.23-1.31.74,1.22-.06-.93L15,7.74l.62.64-.13-.64.66.75L16,7.77c0-.57,0-.33,0-.33a1.31,1.31,0,0,0,.31.72,1.52,1.52,0,0,1-.46,1l.48-.33v0l0,0-.16.44c.59-.39.71-.53,1.23-.52l0,0s0,0,0,0l0,0a.51.51,0,0,1,0,.25,1.28,1.28,0,0,1-.69.91,1.21,1.21,0,0,1-.48.12h-.2l0,0,.22,0a1.46,1.46,0,0,0,.59-.06,1.54,1.54,0,0,0,.35-.15,1.81,1.81,0,0,0,.32-.22,1.55,1.55,0,0,0,.43-.62.92.92,0,0,0,.05-.28.6.6,0,0,1,.27.61l-.13.51a.9.9,0,0,0-.17.64,1,1,0,0,0,.23.5,2.08,2.08,0,0,0,.21.21l.23.17c.28.19.55.41.81.62a14.06,14.06,0,0,1,2.53,2.91c.35.51.67,1,1,1.57A11.4,11.4,0,0,1,23.75,18,6.16,6.16,0,0,0,23,18a21.45,21.45,0,0,0-2.43.14c-.8.08-1.58.21-2.37.33-.39.07-.78.13-1.17.21a4.41,4.41,0,0,0-.59.12l-.07,0c-.49-.09-1-.17-1.46-.24l-.82-.11c0-.09,0-.22,0-.38S14,17.38,14,17c0-.19,0-.39,0-.58v-.65a8.7,8.7,0,0,0,1.29-.33,14.34,14.34,0,0,0,2-.9l0,0c-.7.26-1.41.51-2.14.71a10.92,10.92,0,0,1-1.14.22v-.05l-.07.06a8.77,8.77,0,0,1-1,.06l-.53-.05-.29,0-.27-.06-1.1-.26c-.72-.2-1.45-.43-2.13-.67l-.42-.16-.1.32a1,1,0,0,1-.48.43,1.67,1.67,0,0,1-.73.23H6.72s0,0,0,0l-.06,0h0a.24.24,0,0,1,.08-.13A1.79,1.79,0,0,1,7,14.79l.17-.13.1-.08a.26.26,0,0,0,.09-.13.11.11,0,0,0,0-.08.19.19,0,0,0-.11-.11.38.38,0,0,0-.12,0H6.94a1.91,1.91,0,0,1-.37,0A4.06,4.06,0,0,0,6,14.1H5.81l-.14,0a1,1,0,0,0-.33.12.31.31,0,0,0-.17.27.45.45,0,0,0,.07.23.45.45,0,0,1,.1.21l0,0a.47.47,0,0,1-.19,0A1.42,1.42,0,0,1,4.7,14.82Zm19.87,3.6a.51.51,0,0,0-.25-.23,2.26,2.26,0,0,0-.47-.14,10.48,10.48,0,0,0-.53-1.48,16.9,16.9,0,0,0-.85-1.63,12.22,12.22,0,0,0-2.43-3,9.41,9.41,0,0,0-.83-.68L19,11.07a.93.93,0,0,1-.13-.15.51.51,0,0,1-.14-.31.62.62,0,0,1,.11-.39c.77-.66,2.88-.55,3-2.82C22,5,19,3.56,17.52,3.38a9.29,9.29,0,0,0-4.67.49l-.23.07a2.38,2.38,0,0,0-.6.29h0a2.76,2.76,0,0,0-1.78,3l.23-.67a1.47,1.47,0,0,0,.07.46,4.32,4.32,0,0,0,.44.82c.08.13.17.26.24.39s.13.27.08.37-.21.21-.34.33l-.19.19a.22.22,0,0,0,0,.26,1.35,1.35,0,0,0,.48.32l.05,0-.05.06a.49.49,0,0,0-.11.23c0,.08,0,.21.18.25a.64.64,0,0,0,.17.05h.18a2.12,2.12,0,0,0,.44,0,.44.44,0,0,1-.08.11.32.32,0,0,1-.25.1.46.46,0,0,0-.27.1.15.15,0,0,0,0,.23.53.53,0,0,0,.21.11l0,0h0v0c0,.07,0,.18,0,.3a.51.51,0,0,0,.33.27,3.59,3.59,0,0,0,.41.11l.43.06a15.81,15.81,0,0,0,1.69.07H15l.42,0h0s0,0,0,.06a.37.37,0,0,1,0,.11V12h-.13a5.08,5.08,0,0,0-.82.11,24.69,24.69,0,0,0-2.93.79c-.66,0-1.34.07-2,.06-.34,0-.66,0-1,0A7.65,7.65,0,0,0,7.44,13c-.36,0-.7.1-1,.17a2.89,2.89,0,0,0-1,.35c-.25.14-.57.26-.84.43a1.43,1.43,0,0,0-.36.29.38.38,0,0,0-.05.42.63.63,0,0,0,.15.18,1.41,1.41,0,0,0,.18.14,1.65,1.65,0,0,0,.46.23l.14,0a.77.77,0,0,0-.14.45.4.4,0,0,0,.14.25h0a3.14,3.14,0,0,0-1.37.46.74.74,0,0,0-.12.13.3.3,0,0,0,0,.1v.06l0,.25,0,.41a1.53,1.53,0,0,0-.46.23,1.16,1.16,0,0,0-.38.42,1.13,1.13,0,0,0-.08.24l0,.22,0,.43a15.69,15.69,0,0,0,0,1.68c0,.27,0,.55.06.83l0,.42a.65.65,0,0,0,.21.49,1.35,1.35,0,0,0,.6.29,4.62,4.62,0,0,0,.63.11,7.85,7.85,0,0,0,.84,0l.06,0c.24.13.49.25.74.37l.38.16c.14.06.24.11.42.17l.27.06a1.72,1.72,0,0,0,.32,0,1.91,1.91,0,0,0,.57-.13,2.62,2.62,0,0,0,.41-.25L8.23,23a16.48,16.48,0,0,0,1.86,0,8,8,0,0,0,1.07-.13,4.61,4.61,0,0,0,.53-.15l.24-.12a5.79,5.79,0,0,0,.71.34,9.32,9.32,0,0,0,1,.37c.36.11.74.2,1.11.28a11.16,11.16,0,0,0,1.16.16c.19,0,.39,0,.58,0a5.82,5.82,0,0,0,.59,0c.39,0,.77,0,1.16-.06s.76-.11,1.13-.17h0v0c0,.11.15.2.32.2.46,0,.83-.07,1.24-.12s.78-.1,1.2-.17a3.9,3.9,0,0,0,1.15-.39,2,2,0,0,0,.74-.71,2.47,2.47,0,0,0,.28-.83c0-.28.06-.55.08-.83l.14-1.65,0-.41A.57.57,0,0,0,24.57,18.42Z"/><path class="cls-5" d="M10.21,7.24v0l0,.11Z"/><path class="cls-5" d="M11.38,7.76a.9.9,0,0,1,1-.18A10.69,10.69,0,0,0,13.78,8a7,7,0,0,0-1.87-.67c-.65,0-.53.43-.53.43"/><path class="cls-5" d="M11.89,8.14c0-.08.16,0,.16,0a.39.39,0,0,0,.41.31c.34,0,.12-.3.12-.3l.59.11a4,4,0,0,0-1-.27c-.38,0-.28.19-.28.19"/><path class="cls-5" d="M4.54,16.57h0s0,0,0,0m-.25.22,0,0,.11,0A2.85,2.85,0,0,0,4.9,17a5.86,5.86,0,0,0,1,.12,3.9,3.9,0,0,0,1,0A1,1,0,0,0,7.15,17a.52.52,0,0,0,.23-.15.39.39,0,0,0,.11-.22.26.26,0,0,0-.12-.21A.7.7,0,0,0,7,16.28a1.32,1.32,0,0,0-.27,0H6.49l.2.08.21.09a.39.39,0,0,1,.17.12s0,0,0,0l0,0c-.07.05-.07,0-.09,0l-.14,0a8.54,8.54,0,0,1-.86,0c-.3,0-.61,0-.89-.06l-.38,0H4.57a.52.52,0,0,1,.1-.11l.17-.13L5,16.18a1.17,1.17,0,0,0-.22,0l-.25.07a.91.91,0,0,0-.32.17.19.19,0,0,0,0,.28A.45.45,0,0,0,4.29,16.79Z"/><path class="cls-5" d="M20.33,8.86l-1.44,2.06A6.19,6.19,0,0,1,17,12.29l-.94-.14s2-1.34,2-3,2.21-1.6,2.27-.31"/></svg>