<svg id="Capa_1" data-name="Capa 1" xmlns="http://www.w3.org/2000/svg" viewBox="0 0 33.84 20.52"><defs><style>.cls-1{fill:#ffcb56;}.cls-2{fill:#94d6df;}.cls-3{fill:#f05050;}.cls-4{fill:#e9e1d7;}.cls-5{fill:#f8993a;}.cls-6{fill:#fbcabb;}.cls-7{fill:#231f20;}</style></defs><title>2-15meses</title><path class="cls-1" d="M2.28,16.19s4.28,2.17,15.43,2.17,13.45-2.17,13.45-2.17Z"/><path class="cls-2" d="M14.56,16.06s-1.41.2-1,.46.9,0,1.24.38a2.33,2.33,0,0,0,1.65,1c.83,0,2.09.29,2.66-.2a3,3,0,0,1,1.37-.83c.46-.1,1.25-.33,1.05-.48a23.71,23.71,0,0,0-7-.31"/><path class="cls-3" d="M12.31,16.26s.23-1.54.28-1.74a1.91,1.91,0,0,1,.21-.45s.32.23.62-.2S14,13.11,14,13a4.61,4.61,0,0,0-1-.34,10.74,10.74,0,0,1,2.25-.48c.48.06,2.64.55,2.64.55s-.09,1.48.21,1.86.46.53.4.59a3.9,3.9,0,0,0,.08.87Z"/><path class="cls-4" d="M16.46,16.08s0-.32.53-.67a1.25,1.25,0,0,1,1.29-.11c.15.16,1.31,1,1.31,1v.2a7.89,7.89,0,0,1-2.79-.12c-.67-.35-.34-.33-.34-.33"/><path class="cls-5" d="M16.85,16.52c.34-.14.52-.41.22-.47a7.05,7.05,0,0,0-1.51-.17c-.22.06-1.05.26-.5.46a2.91,2.91,0,0,0,1.79.18"/><path class="cls-6" d="M13.36,14a1.13,1.13,0,0,1-1,.11c-.61-.17-1.62-.48-1.73-.94a3.08,3.08,0,0,1,.21-1.31s-.1.13-.33-.11a.47.47,0,0,1,.23-.77,13.37,13.37,0,0,1,1.44,0l.19.17s.14.63,0,.82.29.43.29.48.27.23.27.23.85-.1,1,.28-.61,1-.61,1"/><path class="cls-6" d="M18,14.66s-.29-1.05-.29-1.18.14-.75.14-.75,1.6,0,2-.69,0-.77,0-.77-.26,0-.28-.4,0-.84.21-.8.4.49.4.49a.31.31,0,0,0,.08-.36c-.08-.25-.23-.52,0-.62a.46.46,0,0,1,.56.16c0,.12.3.08.56.12s.56,0,.67.21.49.23.51.47a1.2,1.2,0,0,1-.14.81c-.18.21-.69.75-.69.75a1.91,1.91,0,0,1-.59,1.32,24.94,24.94,0,0,1-2.93,1.4Z"/><path class="cls-6" d="M15.21,13.35s-.72-.12-.8-.41a1.2,1.2,0,0,1-.06-.49l-1-.48.18-.16a7.4,7.4,0,0,0,1.51.13c.35-.07,1.2-.42,1-.52a2,2,0,0,0-1-.16c-.43.05-1.28.29-1.52.26a3.58,3.58,0,0,1-.76-.27,3.26,3.26,0,0,1,.07-1.05,4.78,4.78,0,0,0-.08-1.36c0-.18.21-1.36,1.86-1.36a12.32,12.32,0,0,1,3.6.51,2.49,2.49,0,0,1,.47.74c0,.11.56,1.8.37,2.06a2.5,2.5,0,0,1-1,1.12,9.13,9.13,0,0,1-1.22.51s.16.41,0,.62a1.45,1.45,0,0,1-1.54.31"/><path class="cls-6" d="M3.63,10.93A5.86,5.86,0,0,1,2.19,9.71c-.34-.54-1.06-2-.58-1.9s1.49.28,1.92-.19a10.51,10.51,0,0,0,1-1.69A6.13,6.13,0,0,1,8,5.11c1.49.21,3.59.36,3.81.44s.53.54.53.54-.34.87-.66,1-1.37.8-1.12,1.62.21.7,0,.77a2.71,2.71,0,0,1-.91-.21l-.5.33A.79.79,0,0,1,9,9.86c-.08.13-.56.17-.59.37s-.07.5-.51.46a5.5,5.5,0,0,1-1.6-.83s-.46-.34-.46-.34-.12.18.13.42a.62.62,0,0,1,.22.45L5.1,11.63H4.9Z"/><path class="cls-6" d="M24.75,10.71s0-.31-.15-.29-.41-.07-.4-.17.06-.38.06-.38a2.75,2.75,0,0,1-.59-.07c-.05-.05-.05-.2-.28-.18s-.42.06-.61.05-.5-.12-.4-.5.16-.89-.24-1.13-1.29-.35-1.29-.91a1.91,1.91,0,0,1,.81-1.31c.2-.06,7.62-.19,7.72.12a8.37,8.37,0,0,0,.95,1.9c.12,0,.78.07.78.07s.21.08.21.27A5.21,5.21,0,0,1,30.17,10a19.77,19.77,0,0,1-2,1.57,1.62,1.62,0,0,1-.52-.24,6.31,6.31,0,0,1-.89-.93s.45-.75.45-.75a1.82,1.82,0,0,0-.82.45,1.62,1.62,0,0,1-1.66.57"/><path class="cls-7" d="M5.18,8.51h0A.57.57,0,0,1,5.34,8l.27-.27-.54.06a.41.41,0,0,1-.15,0,.21.21,0,0,1-.11-.08.67.67,0,0,1-.12-.36,1.27,1.27,0,0,1,0-.2,1.51,1.51,0,0,1,.11-.6A.82.82,0,0,1,5,6.23l.14-.07h.08l.06,0a.69.69,0,0,1,.14.15,1.18,1.18,0,0,1,.11.19A2.53,2.53,0,0,1,5.73,7h0a2.18,2.18,0,0,1,0,.36l.64.26A1.8,1.8,0,0,1,6.49,7C6.62,6.66,7,6.75,8,6.5S8.56,6,8.56,6A5.41,5.41,0,0,1,11,6.05L9,6.4l2.58-.06-.94.26,1,.16a2.12,2.12,0,0,1-.2.24,3.45,3.45,0,0,1-.28.23,2.78,2.78,0,0,0-.32.26,1.66,1.66,0,0,0-.23.31,1,1,0,0,0-.13.32,1.35,1.35,0,0,0-.06.34,3.53,3.53,0,0,0,0,.66.53.53,0,0,1,0,.23v0l0,0s0,0,0,0h-.08a3.46,3.46,0,0,1-.74-.23L9.27,9l0,.28a.67.67,0,0,1-.08.24H9a1.07,1.07,0,0,1-.71-.31H8.2a.46.46,0,0,0,.21.32,1.63,1.63,0,0,0,.44.21l.19,0c0,.05-.11.08-.21.1a1,1,0,0,0-.41.2.32.32,0,0,0-.11.18.36.36,0,0,0,0,.1h0s0,0,0,0a.71.71,0,0,1-.25,0,1.83,1.83,0,0,1-.71-.12L7,10.11l-.34-.2c-.23-.13-.47-.25-.68-.39a3,3,0,0,1-.53-.47,1.25,1.25,0,0,1-.29-.54m4,1h0S9.19,9.51,9.17,9.51Zm-3.28.91s0,.08,0,.12l-.07.12a3.3,3.3,0,0,1-.31.53,1.82,1.82,0,0,1-.46.4l-.66-.43c-.24-.15-.45-.31-.68-.46L3,10.23l-.68-.5h0a1.3,1.3,0,0,0,.15.34,3.71,3.71,0,0,0,.23.32,3.81,3.81,0,0,0,.63.56,6,6,0,0,0,.79.45,9.18,9.18,0,0,0,.89.34l.09,0,0,0c.18-.16.35-.31.55-.46a2.94,2.94,0,0,0,.56-.49.87.87,0,0,0,.14-.31.57.57,0,0,0,0-.19.59.59,0,0,0-.06-.16A.65.65,0,0,0,6.17,10l-.12-.13-.14-.12-.06,0,.08,0,.5.42.28.24a1.91,1.91,0,0,0,.38.23,2.13,2.13,0,0,0,1,.14l.27,0a.74.74,0,0,0,.27-.15.54.54,0,0,0,0-.08v0h0v0h0a.13.13,0,0,1,0-.06.19.19,0,0,1,0-.1A.57.57,0,0,1,8.92,10a.71.71,0,0,0,.18-.12.07.07,0,0,0,0-.08.75.75,0,0,0,.2,0,.37.37,0,0,0,.2-.1.6.6,0,0,0,.11-.12,2.31,2.31,0,0,0,.68.18,1.07,1.07,0,0,0,.38,0,.55.55,0,0,0,.19-.12l0,0v0h0v0h0a.54.54,0,0,0,0-.4c-.06-.22-.17-.42-.22-.62a.76.76,0,0,1,0-.61A.77.77,0,0,1,11,7.58a2.86,2.86,0,0,1,.35-.18,2.63,2.63,0,0,0,.41-.21,1.07,1.07,0,0,0,.3-.3l.05-.09c1.49.09,1.72-.34,1.64-.85A8.47,8.47,0,0,0,11,2.72,3.46,3.46,0,0,0,8.26,2.4c-.83.16-.86.4-.86.4l-.07-.36-.24.36-.64-.37.46.42a1.57,1.57,0,0,0-.7-.11A5.68,5.68,0,0,0,3.33,4.07c-.43.52,0,1.83,0,2.39a.94.94,0,0,1-.22.76l.2.3h0A1,1,0,0,1,3,7.75a2.62,2.62,0,0,1-.76.09c-.23,0-.41,0-.53,0l-.19,0,0,0A3.3,3.3,0,0,0,2.18,8a2.77,2.77,0,0,0,.9,0,1.26,1.26,0,0,0,.52-.22l.15.12.41-.12L4,8l.46-.13a.7.7,0,0,0,.33.19h.11a.58.58,0,0,0,0,.45,1.79,1.79,0,0,0,.43.56,4,4,0,0,0,.3.28l-.19.13A3.37,3.37,0,0,0,5,9.94a1,1,0,0,0-.22.49.39.39,0,0,0,0,.23.38.38,0,0,1,0-.22,1.28,1.28,0,0,1,.36-.4,3.54,3.54,0,0,1,.51-.3h0l0,0s0,.09,0,.14l.05.14,0,.12a.31.31,0,0,1,0,.13A.53.53,0,0,0,5.89,10.42Z"/><path class="cls-7" d="M9.78,7.69a9.38,9.38,0,0,0-1-.12l.62.2s-.32.29.06.34.3-.27.3-.27l.14.09L10,7.86s0-.12-.21-.17"/><path class="cls-7" d="M10.37,6.92a1.22,1.22,0,0,1,.66.29s.28-1.17-3.21,0a14.37,14.37,0,0,1,2.55-.33"/><path class="cls-7" d="M23,8.27l0,.07.12-.09s0,.29.31.23,0-.32,0-.32L24.1,8s-.69.09-.89.15-.18.17-.18.17"/><path class="cls-7" d="M22,7.71a1.08,1.08,0,0,1,.6-.31A14.5,14.5,0,0,1,25,7.6c-3.41-1-3,.11-3,.11"/><path class="cls-7" d="M24.64,10h0l.2,0-.05.08s-.05,0,0,0H24.7l0,0a.08.08,0,0,1,0-.06m3.25-2.13h0a.19.19,0,0,1-.1.08.27.27,0,0,1-.12,0l-.54,0,.29.25a.56.56,0,0,1,.2.47,1.24,1.24,0,0,1-.24.54,4,4,0,0,1-1.11.88l-.32.21a2,2,0,0,1-.29.14,1.54,1.54,0,0,1-.67.1l-.11,0h0v0h0l0-.07a.14.14,0,0,0,0-.06.19.19,0,0,0-.11-.08.5.5,0,0,0-.14,0h-.18c-.07,0-.07-.13-.05-.22h.06l.14,0a.08.08,0,0,0,0,.07.15.15,0,0,0,.07.07.28.28,0,0,0,.12,0,.22.22,0,0,0,.15,0l.09,0L25.1,10l.22-.3a.37.37,0,0,0,.08-.15v0h0a0,0,0,0,1,0,0L25,9.48v0l-.08.06a.49.49,0,0,1-.16.06,3,3,0,0,1-.45.09l-.23,0H24l0,0a1,1,0,0,1-.08-.14l-.08-.2-.26.07a3,3,0,0,1-.71.1.48.48,0,0,1-.24,0c-.07,0-.08-.11-.09-.2s.05-.38.05-.58a1,1,0,0,0-.18-.61,1.35,1.35,0,0,0-.28-.25,2.42,2.42,0,0,0-.33-.2,2.49,2.49,0,0,1-.31-.23,4.31,4.31,0,0,1,.43-1L23,6.83a10.56,10.56,0,0,0,3.94.71A15.8,15.8,0,0,1,24.89,7a7.5,7.5,0,0,1,1.91.38A6.35,6.35,0,0,0,28,7.74.52.52,0,0,1,27.89,7.89Zm-3.34,2.6h0l0,0ZM22.07,6.22H22l0,0Zm-.69,1.6a.39.39,0,0,0,.11.06c.13.07.25.1.36.15a1.22,1.22,0,0,1,.29.17.55.55,0,0,1,.25.49,2.17,2.17,0,0,1-.17.57.37.37,0,0,0,.05.36.83.83,0,0,0,.49.21,2.67,2.67,0,0,0,.49,0l.19,0a0,0,0,0,1,0,0,.55.55,0,0,0,.26.23.49.49,0,0,0,.19,0h.34a.28.28,0,0,0,0,.12.18.18,0,0,0,.1.18l.12,0,.1,0h0a.35.35,0,0,0,0,.07v0l0,.05.06.07a.71.71,0,0,0,.28.11,2,2,0,0,0,1-.09,1.32,1.32,0,0,0,.39-.22l.27-.24Q26.8,10,27,9.8l.05,0h0l-.12.12-.11.13a1.46,1.46,0,0,0-.09.15.46.46,0,0,0,0,.15.48.48,0,0,0,0,.18.72.72,0,0,0,.17.29,2.19,2.19,0,0,0,.57.43,6.47,6.47,0,0,1,.57.42l0,0,.09,0a7.59,7.59,0,0,0,.81-.36,5.09,5.09,0,0,0,.71-.46,2.78,2.78,0,0,0,.53-.56,1.7,1.7,0,0,0,.3-.64h-.05l-.6.49-.6.48c-.2.15-.39.32-.6.47s-.37.29-.57.43a2.13,2.13,0,0,1-.47-.35,3.61,3.61,0,0,1-.34-.49l-.07-.11s-.05-.08-.06-.11a.26.26,0,0,1,0-.1s0-.07,0-.12l0-.12,0-.13a.74.74,0,0,1,0-.14h0c.76.42.71.76.71.76l.25,0,.26,0c0-.06.12-.61-1.12-1.2l.21-.23a1.91,1.91,0,0,0,.38-.56.69.69,0,0,0,0-.45H28a.62.62,0,0,0,.43-.42l.59.09.15.09a2.19,2.19,0,0,0,.84.15A4.31,4.31,0,0,0,31.16,8L31,7.79c.13-.16-.32-.29-.67-.37a3.39,3.39,0,0,0-.48-1.69A5.55,5.55,0,0,0,27.27,3a2,2,0,0,0-1.72.19,4.68,4.68,0,0,0-3.65.28,3,3,0,0,0-1.54,3.75A.91.91,0,0,0,21.38,7.82Z"/><path class="cls-7" d="M13.2,9.75a.69.69,0,0,1,.14-.08,1.32,1.32,0,0,1,.37-.13,1.91,1.91,0,0,1,.48,0,1.22,1.22,0,0,1,.26.06l.09,0,.06,0,.14.07a.31.31,0,0,1,.15.21.26.26,0,0,1-.09.23,2.61,2.61,0,0,1-.2.17l-.08.06s0,0-.06.05-.25.13-.23.24a.21.21,0,0,0,.11.19.45.45,0,0,0,.18.08l0,0a.58.58,0,0,1,0-.12s0-.07,0-.08,0,0,.13,0l.17-.09.12-.12a.4.4,0,0,0,.08-.28,2.81,2.81,0,0,0,0-.29A1.11,1.11,0,0,0,15,9.6a.78.78,0,0,0-.1-.15l-.08-.08-.06,0a1.59,1.59,0,0,0-.43-.16,1.24,1.24,0,0,0-.82.11.63.63,0,0,0-.32.32.3.3,0,0,0,0,.14Z"/><path class="cls-7" d="M14.34,10l.29.07s-.07-.21-.56-.23a.55.55,0,0,0-.59.32.55.55,0,0,1,.38-.09c0,.11,0,.23.34.18s.14-.25.14-.25"/><path class="cls-7" d="M16.77,10.28c.19,0,.05-.21.05-.21l.45.1a.93.93,0,0,0-.66-.31A.93.93,0,0,0,16,10v.12l.32,0c-.15.2.24.23.43.21"/><path class="cls-7" d="M14.86,10.8v0l.09.07h.11s0,0,.07,0a.29.29,0,0,0,.08.07.23.23,0,0,0,.15,0,.33.33,0,0,0,.12,0,.12.12,0,0,0,.06-.14.18.18,0,0,0-.12-.11h0l-.08.09,0,0s0,0,0,.05,0,0-.06,0l0-.06a.13.13,0,0,0-.13-.09c-.13,0-.19.05-.18.05"/><polyline class="cls-7" points="13.7 13.08 13.7 13.08 13.7 13.08"/><path class="cls-7" d="M21.72,10s0,0,0,0h0"/><path class="cls-7" d="M21.31,16.47h0s0,0,0,0l-.1.07a.26.26,0,0,0,0-.15l.1,0h0s0,0,0,0m-6.11-.25h0l.07,0,.26-.1a1.48,1.48,0,0,1,.27-.1,1.29,1.29,0,0,1,.24-.05h.22l.21.05a.84.84,0,0,1,.23.09,1.64,1.64,0,0,1,.22.14.12.12,0,0,1,0,.05.34.34,0,0,1-.14.05,1.7,1.7,0,0,1-.37.08l-.45,0a1.81,1.81,0,0,1-.47,0c-.14,0-.3-.08-.34-.16S15.21,16.23,15.2,16.22Zm1.8.06h0S17,16.3,17,16.28Zm2.65.91h0a3,3,0,0,0-.42.35c-.07.06-.13.14-.19.18a.74.74,0,0,1-.26.07,6.93,6.93,0,0,1-1.29,0,9.51,9.51,0,0,1-1.25-.15,1.6,1.6,0,0,1-.26-.08l-.06,0s-.05-.05-.08-.07h0l0,0,0-.06a.48.48,0,0,0-.09-.11,2.09,2.09,0,0,0-.22-.2,5.66,5.66,0,0,0-1.05-.61h0l-.07,0-.55-.05h1.07v-.15l0,.06.12.08a3.85,3.85,0,0,0,.49.12l.48.11a2.09,2.09,0,0,0,.51.08,3.27,3.27,0,0,0,.54,0,1.48,1.48,0,0,0,.27-.1.6.6,0,0,0,.13-.09.31.31,0,0,0,.08-.15.26.26,0,0,0-.13-.26.72.72,0,0,0-.22-.1,1.36,1.36,0,0,0-.38,0h-.5l-.22,0-.27,0a1.42,1.42,0,0,0-.37,0A1,1,0,0,0,15,16a.32.32,0,0,0-.13.15v-.05H12.47v0a6.23,6.23,0,0,0,.22-.81,5.49,5.49,0,0,0,.09-.83.48.48,0,0,0,0-.17l.5,0a.28.28,0,0,0,.18-.06h0a4.41,4.41,0,0,0,.48-.49,1.75,1.75,0,0,0,.18-.29.65.65,0,0,0,.06-.35.19.19,0,0,0,0-.1v0h0l0,0h0l0,0a.65.65,0,0,0-.11-.09l-.14-.06-.23-.05a1.35,1.35,0,0,0,.34-.12l.2-.1.13,0a.7.7,0,0,0-.06.35.65.65,0,0,0,.25.41.93.93,0,0,0,.26.15,1.35,1.35,0,0,0,.3.08l.3,0,.3,0a2.12,2.12,0,0,0,.61-.07,1.16,1.16,0,0,0,.28-.1,1,1,0,0,0,.23-.16.62.62,0,0,0,.14-.19.53.53,0,0,0,.05-.2,1.29,1.29,0,0,0,0-.28l.35.12.33.15a2.36,2.36,0,0,0-.08.45,2.44,2.44,0,0,0,0,.54,1.6,1.6,0,0,0,.27.83l.12.13.16.12.05,0s0,0,0,0l0,0,.08.07a1.09,1.09,0,0,1,.13.17,2.06,2.06,0,0,1,.12.26l-.21-.14a2.36,2.36,0,0,0-.23-.13,1.09,1.09,0,0,0-.32-.1h-.2l-.18,0a1.25,1.25,0,0,0-.29.11,1.22,1.22,0,0,0-.63.69l0,0a5.9,5.9,0,0,1,.84-.46.68.68,0,0,1,.2-.07h.09s.06,0,0,0h.07l.21,0,.25.07a2.13,2.13,0,0,1,.85.47l.44.39-.22,0-.29,0-.29,0-1.24.12v0a4.27,4.27,0,0,0,.64.14q-.75,0-1.5,0c-.33,0-.65,0-1,0a3.06,3.06,0,0,1-.92-.16l0,0a2.93,2.93,0,0,0,.91.28c.32.06.65.09,1,.12.66.06,1.32.06,2,.06l1,0,.67-.06A2.77,2.77,0,0,0,19.65,17.19Zm-8.16-3.43h0a1.16,1.16,0,0,1-.22-.13.88.88,0,0,1-.17-.16,1.88,1.88,0,0,1-.12-.18c0-.07-.06-.13-.07-.19s0-.13-.07-.19a1.38,1.38,0,0,1,0-.2,1.79,1.79,0,0,1,.12-.77L11,12h.08a.23.23,0,0,0,.13,0l0,0,.06,0a.14.14,0,0,0,0,.21.48.48,0,0,0,.17.11h0l0,0h.06a1,1,0,0,0,.34,0,1,1,0,0,0,.34-.09c0,.1,0,.2,0,.3s0,.25,0,.38a.85.85,0,0,1,0,.38l0,0a.69.69,0,0,0,.43-.36.53.53,0,0,0,.07-.2,4.15,4.15,0,0,1,.53.05.89.89,0,0,1,.3.09l0,0v0l0,0h0v0h0s0,0,0,0a1,1,0,0,1-.22.45,4,4,0,0,1-.31.41h-.48c-.2,0-.41,0-.61-.05A2.09,2.09,0,0,1,11.49,13.76Zm-.82-1.9H10.6s0,0-.06-.06a.57.57,0,0,1,0-.18.52.52,0,0,1,.16-.33l.07,0h0l.07,0,.24,0,.47,0a.1.1,0,0,0,0,.09v0a1.67,1.67,0,0,1,.05.31v0a.75.75,0,0,1-.05-.26h0v0c0-.09-.1-.15-.22-.16s-.25.06-.26.15h0a1,1,0,0,0,0,.35v0a.26.26,0,0,1-.06-.13h0c0-.05,0-.08-.1-.09s-.12,0-.13.07h0a.37.37,0,0,0,0,.18h0A.16.16,0,0,1,10.67,11.86Zm1.53-.63h0l.11.16a2.48,2.48,0,0,1,.17.37h-.07l-.06,0,0,0-.18,0h0a.54.54,0,0,0,0-.22,1.39,1.39,0,0,0-.12-.38v0l0,0,.13,0A.21.21,0,0,1,12.2,11.23Zm.43.13h0a2,2,0,0,1,.31.11,1.88,1.88,0,0,0,.45.13l-.59,0h-.23a1,1,0,0,0,0-.24h0Zm1.16.28h0l.32,0a3.69,3.69,0,0,0,.65-.18,1.31,1.31,0,0,1,.63-.11,1.86,1.86,0,0,1,.34.06.52.52,0,0,1,.13.06s0,0,0,0a.9.9,0,0,1-.18.12l-.27.11a1.82,1.82,0,0,1-.57.07,3.55,3.55,0,0,1-.56-.06Zm-.47.75h0a1.45,1.45,0,0,0-.5.2h0a1.42,1.42,0,0,0-.12-.4c-.06-.11-.14-.22-.2-.32a.25.25,0,0,0,0-.07l.08,0h0s0-.07,0-.11l.21.06.18,0-.1,0,.08.08a1.83,1.83,0,0,0,.22.16,3,3,0,0,0,.67.32A1.72,1.72,0,0,0,13.32,12.39Zm-1.56-.3h0A.5.5,0,0,0,12,12,.34.34,0,0,0,12,12h.05l.11,0,.13,0a.48.48,0,0,1,0,.17l0,0a.84.84,0,0,1-.35,0h-.15Zm-.09-.36Zm-.06.43h0l0-.05S11.62,12.17,11.61,12.16Zm1.21-1.56h0c0-.11.09-.21.13-.34l0,0a7.79,7.79,0,0,1,.28-1.61c.13-.07.22.45.22.45l.12-.87,0,0,.79.93.21-1.06,1,1.19-.2-1.07,1.17.91-.23,0a1.3,1.3,0,0,0-.37.14c-.19.12-.21.24-.21.24a2.47,2.47,0,0,1,.34-.06,2.85,2.85,0,0,1,.65,0l.17,0,.18,0,.33.06a3,3,0,0,0,.36.05l0-.07a.89.89,0,0,0-.17-.15,1.55,1.55,0,0,0-.75-.29h-.24l-.39-.93,1,.77L17,8.52l.57.64,0-.73a5.67,5.67,0,0,1,.6,1.21,5.52,5.52,0,0,1-.38,1.72s.5-1.27.88-1.17h0c0,.14-.06.28-.1.41a3.27,3.27,0,0,1-.3.66,2.64,2.64,0,0,1-1.27,1h0c-.38.09-.75.2-1.12.32v0l.77-.11a.7.7,0,0,1,0,.29.49.49,0,0,1-.06.17.38.38,0,0,1-.15.13,1.14,1.14,0,0,1-.43.13,4.21,4.21,0,0,1-.5,0l-.25,0-.25,0-.23,0a1,1,0,0,1-.18-.07.85.85,0,0,1-.37-.55l.4.06.39,0-.37-.09a4,4,0,0,1-.75-.29,2.35,2.35,0,0,1-.48-.32h0l.55.13a2.75,2.75,0,0,0,.74.08l.36-.05c-.21.06-.32.19,0,.19s.53-.21.19-.22h-.13a1.69,1.69,0,0,0,.34-.1,1.45,1.45,0,0,0,.32-.2.47.47,0,0,0,.19-.29c0-.11-.12-.15-.17-.17l-.2-.05-.38,0a3.74,3.74,0,0,0-.75,0c-.22,0-.43,0-.62.05a4.64,4.64,0,0,1-.52,0,3.11,3.11,0,0,1-.44-.06,1.35,1.35,0,0,0-.33,0A1.2,1.2,0,0,1,12.82,10.6Zm5.87,2.21h0a2.81,2.81,0,0,0,.86-.18,1.28,1.28,0,0,0,.37-.23,1,1,0,0,0,.23-.3c0-.09.07-.19.1-.29a.87.87,0,0,0,0-.33c0-.12-.17-.28-.32-.32s-.2-.05-.25-.13a.7.7,0,0,1-.1-.53.68.68,0,0,1,.12-.24h0a1.92,1.92,0,0,1,.1.48h0a.2.2,0,0,0,.21.14h.12l.13,0a.84.84,0,0,1,.24.06.69.69,0,0,1,.2.13.94.94,0,0,1,.14.19h.05a.43.43,0,0,0-.17-.48,1.07,1.07,0,0,0-.32-.16h0a1.3,1.3,0,0,0,.1-.23,2,2,0,0,0,.05-.28.51.51,0,0,0,.09.16.75.75,0,0,0,.25.21A1.41,1.41,0,0,0,21,10s0-.07,0-.09l0,0s0,0,0,0,0,0,.07,0,0,0,0,0a.4.4,0,0,0,0,.2,1.1,1.1,0,0,0,0,.18,1.19,1.19,0,0,0,.4.62,2.56,2.56,0,0,0,.08-.65.66.66,0,0,0,0-.14.65.65,0,0,0,0-.11v0h.11l0,0h0l.12,0,.05,0-.06,0c-.18.09-.16.17-.17.23a.49.49,0,0,0,0,.17,1.57,1.57,0,0,0,.25.58H22a5.72,5.72,0,0,1,0-.59.61.61,0,0,1,0-.13s0,0,0,0h.06s0,0,0,0a.63.63,0,0,1,.08.22l0,.28a5.46,5.46,0,0,1,0,.57,1.48,1.48,0,0,1-.64.59s0,0,0,.05h0a.59.59,0,0,1,0,.23.63.63,0,0,1-.07.22,2.13,2.13,0,0,1-.28.41,1.7,1.7,0,0,1-.19.19,1.2,1.2,0,0,1-.21.17,4.48,4.48,0,0,1-.48.33l-.51.3-.56.29c-.19.08-.38.19-.58.28l-.42.2-.06,0,.05,0-.08-.08-.06-.1a2.09,2.09,0,0,1-.08-.23,3.85,3.85,0,0,1-.08-.49c0-.16,0-.33,0-.51s0-.32,0-.49A2.81,2.81,0,0,0,18.69,12.81Zm1.09-2.58h0S19.8,10.21,19.78,10.23Zm0,0h0s0,0,0,0h0Zm.54.38h0v0A.14.14,0,0,0,20.3,10.61Zm.08-1Zm.3.14h0a.36.36,0,0,0-.11.15.55.55,0,0,0,0-.17.59.59,0,0,1,0-.08l.08,0Zm.48.15Zm.41.12h0S21.56,10,21.57,10Zm-1.49,6.35h0l.18,0a1.94,1.94,0,0,1,.36.11h-.07l-.22,0-.32,0,.26-.1Zm1.26-.16-.11,0a4.18,4.18,0,0,0-.68-.11L19.88,16a.29.29,0,0,0-.25.09l-.47-.24c-.19-.09-.37-.19-.54-.29a1.21,1.21,0,0,0,0-.38,1,1,0,0,0-.08-.23.42.42,0,0,0-.08-.12l0,0,.48-.1c.23-.05.45-.12.67-.19s.43-.17.64-.25a3.6,3.6,0,0,0,.58-.32,3.22,3.22,0,0,0,.51-.38,2.08,2.08,0,0,0,.21-.21c.07-.07.12-.16.18-.23a1.29,1.29,0,0,0,.2-.51,1,1,0,0,0,0-.49,4.09,4.09,0,0,0,.7-.6h0a4,4,0,0,0,.15-.6,1.07,1.07,0,0,0,0-.31,1,1,0,0,0,0-.17.62.62,0,0,0-.11-.18.56.56,0,0,0-.32-.15h-.08a.28.28,0,0,0,0-.12A.4.4,0,0,0,22,9.81l-.1-.06-.07,0h0l-.15-.05h-.24l-.07,0-.08-.06h0a1,1,0,0,0-.26,0l-.12,0a.41.41,0,0,0-.05-.09.48.48,0,0,0-.14-.15.47.47,0,0,0-.38-.11.38.38,0,0,0-.27.12.23.23,0,0,0-.06.18c0,.12.09.19.08.21a.6.6,0,0,1,.05.16c0,.05,0,.11,0,.16l0,.12a.52.52,0,0,0-.1-.11A.37.37,0,0,0,19.9,10l-.07,0h-.14c-.17.06-.18.13-.2.18a1.15,1.15,0,0,0,0,.31,2.28,2.28,0,0,0,0,.58s0,.05,0,.09a.59.59,0,0,0,.08.08l.17.11c.08.06.07.07.07.14a.59.59,0,0,1-.07.23,2,2,0,0,1-.13.25,1,1,0,0,1-.15.19,1.34,1.34,0,0,1-.23.16,1.36,1.36,0,0,1-.3.13l-.35.11L18,12.7s0,0-.07-.06a3.43,3.43,0,0,0-.56-.16l-.18,0a2.75,2.75,0,0,0,1.53-1.06,2.91,2.91,0,0,0,.17-.3,1.45,1.45,0,0,0,.24-.25c.32-.38.1-1,0-1.72a2.57,2.57,0,0,0-2-2c-1.29-.38-3.47-.2-4.49.93S12.51,10,12.51,10l.11.07a1.5,1.5,0,0,1,0,.51,1.27,1.27,0,0,0,.09.64h-.12a.3.3,0,0,0,0-.08.44.44,0,0,0-.24-.22,1.73,1.73,0,0,0-.35-.08h-.32a3.18,3.18,0,0,0-.62.06l-.32.08-.06,0-.09.06a.33.33,0,0,0-.1.11.59.59,0,0,0-.07.44.58.58,0,0,0,.07.21.29.29,0,0,0,.09.11l.1,0h.1a.27.27,0,0,0,.17-.08h0a1.16,1.16,0,0,0-.34.36,1,1,0,0,0-.15.45.91.91,0,0,0,.25.69,1.37,1.37,0,0,0,.22.19,2.41,2.41,0,0,0,.56.27l.59.19c.2.06.4.1.61.15a1.11,1.11,0,0,0-.11.16,2.75,2.75,0,0,0-.32.82,2.2,2.2,0,0,0,0,.85v0H2.28v.35h11c0,.06,0,.07.06.1a.76.76,0,0,0,.19.07l.16,0,.56.09a5.42,5.42,0,0,1,.91.57,1.37,1.37,0,0,1,.17.17.27.27,0,0,1,.07.08l.08.11s0,.06.11.11a.67.67,0,0,0,.21.1,2.25,2.25,0,0,0,.35.09,7,7,0,0,0,1.36.07,10,10,0,0,0,1.34-.12.8.8,0,0,0,.34-.11c.08-.06.12-.12.19-.18a2.88,2.88,0,0,1,.43-.33,1.86,1.86,0,0,1,.51-.25c.19-.06.39-.07.62-.13a1.94,1.94,0,0,0,.64-.25s.05,0,.08-.06a.31.31,0,0,0,.05-.1.11.11,0,0,0,0-.08h9.39v-.35H21.34Z"/><path class="cls-7" d="M19.17,10.45l-.12,3.35a.65.65,0,0,1,.31.42,1.46,1.46,0,0,1-.19.77.76.76,0,0,1-.63-.52c-.23-.52,0-.69,0-.69l-.28-2.15Z"/><path class="cls-7" d="M13.8,12.2l.19,2s.4.21.07.51-.36.46-.36.46a2.71,2.71,0,0,1-.34-.64c-.08-.25.11-.32.11-.32s-1.07-2.8.33-2"/></svg>