<svg id="Capa_1" data-name="Capa 1" xmlns="http://www.w3.org/2000/svg" viewBox="0 0 32.04 20.64"><defs><style>.cls-1{fill:#ffd041;}.cls-2{fill:#d1d3d4;}.cls-3{fill:#f05050;}.cls-4{fill:#f5a4c7;}.cls-5{fill:#fbcabb;}.cls-6{fill:#231f20;}</style></defs><title>4-15meses</title><polygon class="cls-1" points="9.11 19.53 31.4 19.53 31.4 10.8 23.39 10.8 9.11 19.53"/><polygon class="cls-2" points="27.58 17.48 17.71 17.02 17.44 16.17 21.73 12.95 29.95 13.16 27.58 17.48"/><path class="cls-3" d="M22.07,15.6a10.47,10.47,0,0,1-1.83.39c-.16-.06-.39-.44-.14-.54s1.16-.36,1.16-.36.8.45.87.17a3.5,3.5,0,0,0-.06-1,.72.72,0,0,1,.84.07c.4.35,1.1.63,1.4.38s.72-1.08,1.08-1.07.46.19.46.19-1.17,1-.74,1,1.71-.45,1.89-.27.55.83.07,1.06a2.58,2.58,0,0,1-1.71.21c-.48-.17-.75-.31-.81-.32a.31.31,0,0,0-.37.37c0,.38,0,.88-.17.9s-.54.13-.5-.21.38-1,0-1.09a9.91,9.91,0,0,0-1.46.08"/><path class="cls-4" d="M5.29,13.7s-2.78.36-3.4,1.35a4.67,4.67,0,0,0-.59,2.28s.43,2.1,1.78,2l7-.46,2.56-1.84Z"/><path class="cls-5" d="M3.46,14.15s-.74.49-.81.81.12,1,1.26,1.21a11.07,11.07,0,0,0,3.35.56,14.57,14.57,0,0,0,2.81-.3l1.48,1s.5.23-.39.7-.55.47-.75.41A9.46,9.46,0,0,0,7.76,17.3a5,5,0,0,0-3.64.6A5.09,5.09,0,0,0,3,19.5H9.11l2.72-2,3.46.69a13.2,13.2,0,0,0,2,.84c.32,0,.46,0,.41-.1s-.41-.34-.41-.34,1.19.14,1.1.05a6.11,6.11,0,0,0-.78-.36,7.35,7.35,0,0,0,1.56,0c.17-.11.16-.39,0-.41s0-.3,0-.39-.54-.36-.69-.37-.72-.31-.35-.32,1.17-.07.75-.27a3.13,3.13,0,0,0-1.63-.4l-1,.1s-3-.77-3.39-.94a.89.89,0,0,1-.43-.53s.22-.37.37-.59S14,12.13,14,12.13a20.23,20.23,0,0,0,2.39,1.56c.24,0,3,.77,3.27.69a1,1,0,0,1,.56,0l1.44,1s.54-.06.45-.38-.2-.58.21-.65,2.2-.19,2.13-.39-.51-.31-.71-.33a12.45,12.45,0,0,1-4.38-.95c-1.53-.83-2.11-1.16-2.37-1.32a.82.82,0,0,1-.32-.46s.53,0,.52-.22.07-.26.25-.28.21-.24.1-.37.25-.09.31-.11a.8.8,0,0,0,.28-.37c0-.13.29-.26.52-.33s.46-.23.31-.46,0-.71.44-1.14a4.35,4.35,0,0,0,1.06-1.41A3,3,0,0,0,20,4.68c-.23-.26-4.81-1.86-6.38-.61s-2.36,2.84-2.3,3.36a1.91,1.91,0,0,1-.05.81s.17.72-.77,1a19.73,19.73,0,0,0-4.24,2.4,15.11,15.11,0,0,0-2.82,2.5"/><path class="cls-6" d="M17.62,8.27A1,1,0,0,0,18.17,8s.21,0,.14.12.44-.28-.26-.27A1.68,1.68,0,0,0,17,8.21l.49-.11s-.17.22.16.17"/><polygon class="cls-6" points="20.43 7.33 20.44 7.22 20.43 7.23 20.43 7.33"/><path class="cls-6" d="M21.53,13.44h0c.24.05.49.06.71.09.47.05.93.13,1.37.22l.49.14c-.38,0-.81,0-1.22,0H22.8a2.57,2.57,0,0,0-.72.2,1,1,0,0,0-.33.25.35.35,0,0,0,0,.38l.15.23.12.15s0,0,0,.08a.1.1,0,0,1-.07,0,.65.65,0,0,1-.38-.13,1.38,1.38,0,0,0-.27-.16L21,14.78a1.54,1.54,0,0,1-.83-.64h0s0,0,0,0a.42.42,0,0,0,.06.21l-.16,0c-.19-.06-.45-.12-.77-.19a3.69,3.69,0,0,0-.52-.1L18.1,14a2.67,2.67,0,0,1-.63-.1,3,3,0,0,1-.59-.22l-.54-.26-.51-.25c-.32-.17-.64-.31-.89-.45a8.89,8.89,0,0,1-.84-.5h0s0,0,0,0a1.21,1.21,0,0,0,.09.22,2,2,0,0,0,.45.51,3.29,3.29,0,0,0,.39.28,4.2,4.2,0,0,0,.52.26c.19.07.38.15.6.21a4.4,4.4,0,0,0,.65.15l.66.14.32.11-.27.1a9.1,9.1,0,0,0-1.16.59,7.8,7.8,0,0,0-1,.71l-.23.22-.29-.09L13,15.17a2.74,2.74,0,0,1-.29-.46l-.06-.11a2.94,2.94,0,0,0,.48-.39,2.48,2.48,0,0,0,.25-.3,1.62,1.62,0,0,0,.21-.36c.06-.12.11-.26.16-.39a2.07,2.07,0,0,0,.08-.42,1.89,1.89,0,0,1,.1-.41,1.54,1.54,0,0,1,.2-.38,1.75,1.75,0,0,0,.23-.35,1.6,1.6,0,0,0,.11-.33,1.8,1.8,0,0,0,0-.64,11.55,11.55,0,0,0,1.49.31l.43,0h.2a2,2,0,0,0,.18.32,2.57,2.57,0,0,0,.39.43,4.61,4.61,0,0,0,1.1.67,12.3,12.3,0,0,0,1.24.49c.43.14.87.27,1.32.38l.68.17m-.76,2.22h0a2.32,2.32,0,0,1-.44.14s0,0,0,0,0,0-.05-.09a.59.59,0,0,1,0-.14s0,0,0-.06a1.39,1.39,0,0,1,.22-.15,3.64,3.64,0,0,1,.44-.16l.16-.05.13.11a1.31,1.31,0,0,0,.29.18l.09,0A5.29,5.29,0,0,0,20.77,15.66Zm-4.86.71h0l.41.14a.41.41,0,0,0,.27,0,3.53,3.53,0,0,1,.91-.15,1.64,1.64,0,0,1,.4,0l.5.14.25.07-.22,0a3.77,3.77,0,0,0-.58.08.75.75,0,0,0-.22.11.23.23,0,0,0-.09.23l0,.05h0l0,0h0s0,0,.06.05a.42.42,0,0,0,.12.08l.09,0a4,4,0,0,0,.59.11c.17,0,.34,0,.48.06l.07,0-.17,0a4,4,0,0,1-.49,0,5.25,5.25,0,0,1-.56,0l-.42-.08a.28.28,0,0,0-.26.07c-.05.08,0,.17.1.2a3.1,3.1,0,0,0,.57.13l.33,0,.34.05.61.07h.13a.1.1,0,0,1,0,0,.62.62,0,0,1-.4.18h-.28l-.29,0A9.54,9.54,0,0,1,17,18a.13.13,0,0,0-.12,0,.06.06,0,0,0,.05.09l.8.25.38.14.18.08h-.07l-.21,0-.43-.06-.84-.16a.13.13,0,0,0-.13,0,.06.06,0,0,0,.05.1h0a5.44,5.44,0,0,1,.87.34l.07.06h-.06a1.88,1.88,0,0,1-.43-.08,5,5,0,0,1-.87-.33,3.29,3.29,0,0,1-.74-.44.28.28,0,0,0-.13,0h0c-.44,0-.9-.1-1.34-.17s-.88-.17-1.31-.27l-.63-.17a5.12,5.12,0,0,1-.59-.21A4.37,4.37,0,0,1,11,17a2.3,2.3,0,0,1-.43-.34A5.82,5.82,0,0,1,9.29,15,3.84,3.84,0,0,1,9,14.05a2.42,2.42,0,0,1-.05-.47,3.7,3.7,0,0,1,0-.47H9l0,0,0,0a4.1,4.1,0,0,0-.1.48,4,4,0,0,0,0,.49A3,3,0,0,0,9,15a5.51,5.51,0,0,0,.85,1.42l-.31.07L9,16.59a9.65,9.65,0,0,1-1.08.05,17.32,17.32,0,0,1-2.17-.12,7.1,7.1,0,0,1-2-.5,1.47,1.47,0,0,1-.39-.22,1.08,1.08,0,0,1-.3-.26,1,1,0,0,1-.15-.31v-.16l0-.14a13.65,13.65,0,0,1,1.36-1.39c.5-.45,1-.9,1.56-1.33A18.43,18.43,0,0,1,9.44,9.85c.34-.16.68-.31,1.05-.46a1.52,1.52,0,0,0,.85-.68,1,1,0,0,0,0-.47l.15.44.18-1a.8.8,0,0,1,.57-.54,1.11,1.11,0,0,0-.08.3,1.16,1.16,0,0,0,.13.66,1.26,1.26,0,0,0,.19.28,1.39,1.39,0,0,0,.27.21,1.29,1.29,0,0,0,.52.18h.22v0l-.2,0a.89.89,0,0,1-.41-.21,1,1,0,0,1-.28-1,.53.53,0,0,1,.14-.24l.05,0,0,0h0c.55.1.6.24,1,.75l0-.45h0v0l.32.42a1.24,1.24,0,0,1,0-1,1.79,1.79,0,0,0,.6-.62S15,6,14.7,6.56l-.44.65,1-.58-.41.58.88-.48,1.38-.88-.45.87,1.22-1-.78,1.2.81-.62,1.52-1-.74,1,.9-.7-.66,1.32a4.66,4.66,0,0,0-2.09.59s1.73-.75,2.54-.23c0,0,0-.31-.44-.36l1.33-1.06a1.45,1.45,0,0,1-.06.41,1.58,1.58,0,0,1-.42.71l-.8.65a3.63,3.63,0,0,0-.4.39.44.44,0,0,0-.08.31.78.78,0,0,0,.11.26,1.15,1.15,0,0,1,.19.36s0,0,0,0l-.19.06-.29.06a.92.92,0,0,0-.2,0,.33.33,0,0,0-.17.12.23.23,0,0,0,0,.12.7.7,0,0,0,.05.25l0,.06h-.06l-.28,0c-.19,0-.39-.07-.58-.11h0a.3.3,0,0,0-.25.05.12.12,0,0,0,0,.21,3.42,3.42,0,0,1,.58.34l0,0a.41.41,0,0,1,0,.09s-.08,0-.23.05a.4.4,0,0,0-.21.09.17.17,0,0,0,0,.15.79.79,0,0,1,0,.12s0,0,0,0l-.14,0h-.38l-.39,0c-.53-.06-1.06-.15-1.58-.26l-.39-.09a2.72,2.72,0,0,1-.38-.11.43.43,0,0,0-.25,0,.36.36,0,0,0-.15.12.75.75,0,0,0-.11.28s0,0,0,0,0,0,0,0a.5.5,0,0,1,.13-.25.22.22,0,0,1,.27-.08l.37.12.38.11a.48.48,0,0,0-.09.13,3.18,3.18,0,0,0-.26.47,3,3,0,0,0-.11.32,2.33,2.33,0,0,0,0,.38,1.42,1.42,0,0,1-.08.4,1.68,1.68,0,0,1-.23.38c-.09.13-.19.25-.26.37l-.23.36a5.48,5.48,0,0,0-.36.64c-.06.11-.1.2-.14.28a1.11,1.11,0,0,1-.07-.16A3.16,3.16,0,0,1,12.32,13a4,4,0,0,1,0-.58,2.34,2.34,0,0,0,0-.59,1.65,1.65,0,0,0-.2-.59,1.22,1.22,0,0,0-.52-.48h0s0,0,0,0h0a.9.9,0,0,1,.42.47,1.62,1.62,0,0,1,.12.57,2.76,2.76,0,0,1-.06.57c0,.19-.08.38-.1.58a3,3,0,0,0,.11,1.2,3.53,3.53,0,0,0,.22.59,3.78,3.78,0,0,0,.33.57.18.18,0,0,0,.11.07h0l1.8.52.9.25ZM19.1,17.5Zm.17.53Zm-.19-.47Zm-8.68.81h0l-.14.11a4,4,0,0,0-.75-.59,5.41,5.41,0,0,0-1-.51A5.27,5.27,0,0,0,8,17.19a6,6,0,0,0-.61-.14A6.27,6.27,0,0,0,6.71,17a4.27,4.27,0,0,0-.62,0,4.58,4.58,0,0,0-.66.08,3.92,3.92,0,0,0-.61.18,3.26,3.26,0,0,0-.53.26,2.58,2.58,0,0,0-.45.32A2.71,2.71,0,0,0,3,19.29a1.15,1.15,0,0,1-.33-.1A1.28,1.28,0,0,1,2.23,19a1.84,1.84,0,0,1-.51-.65,2.12,2.12,0,0,1-.21-.72v-.37c0-.13,0-.25,0-.37s0-.25,0-.37a2.25,2.25,0,0,1,.06-.36,1.58,1.58,0,0,1,.09-.36,2.07,2.07,0,0,1,.15-.34,2.23,2.23,0,0,1,.2-.33,3.82,3.82,0,0,1,.27-.32c.11-.09.21-.19.34-.28l.27-.15c-.14.16-.29.31-.42.48h0a.05.05,0,0,0,0,0l0,.21,0,.21a1.1,1.1,0,0,0,.21.4,1.46,1.46,0,0,0,.37.33,2.73,2.73,0,0,0,.48.25,7.71,7.71,0,0,0,2.15.47,15.11,15.11,0,0,0,2.23.06c.37,0,.73-.05,1.1-.1l.54-.1.32-.1a4.12,4.12,0,0,0,.28.31,2.43,2.43,0,0,0,.48.4,4.68,4.68,0,0,0,.59.31l.4.16-.11,0A9.09,9.09,0,0,0,10.4,18.37Zm15.3-4.52h0l0,0h0Zm-1.26,1.81h0S24.44,15.65,24.44,15.66Zm0,0Zm-1-4.77c.63,0,1.25,0,1.88.06s1.28.05,1.92.07,1.29,0,1.93,0,1.28-.08,1.92-.16l0,0s0,0,0,0c-.64-.08-1.28-.12-1.92-.15s-1.28-.05-1.93,0-1.28,0-1.92.07a17.6,17.6,0,0,1-1.92.07h-.07c-.58.33-1.24.6-1.77,1a10.54,10.54,0,0,0-1.39,1l-.41-.18-1.19-.5a5.65,5.65,0,0,1-1.1-.55,3.92,3.92,0,0,1-.69-.58h.09a1.23,1.23,0,0,0,.25-.05.27.27,0,0,0,.19-.21.37.37,0,0,0,0-.12.71.71,0,0,0,.45-.16.38.38,0,0,0,.09-.18s0-.12,0-.14l0-.08h.09a.74.74,0,0,0,.21,0,.55.55,0,0,0,.28-.08.24.24,0,0,0,.1-.25l0-.11a.59.59,0,0,1,0-.13h0l.32-.06a1.65,1.65,0,0,0,.37-.13.34.34,0,0,0,.19-.35,1.3,1.3,0,0,0-.2-.46A.61.61,0,0,1,19,8.32a.19.19,0,0,1,0-.11,2,2,0,0,1,.33-.31c.26-.22.53-.42.81-.67a1.69,1.69,0,0,0,.28-.32l0,.31a2.4,2.4,0,0,0,0-2.69,2.56,2.56,0,0,0-.64-.78,3.52,3.52,0,0,0-.74-.44,8.15,8.15,0,0,0-3.92-1.22C13.73,2,10.26,2.68,9.33,5S10.78,7.54,11,8.45L11.13,8a1,1,0,0,1,0,.69c-.23.54-1.19.68-1.86,1A17.78,17.78,0,0,0,5.48,12c-.55.44-1.1.88-1.6,1.35-.3.29-.59.58-.86.88a2.77,2.77,0,0,0-.94.41,2.22,2.22,0,0,0-.36.32,4.38,4.38,0,0,0-.29.34,3.48,3.48,0,0,0-.2.38,2,2,0,0,0-.13.39,1.78,1.78,0,0,0-.07.39,1.7,1.7,0,0,0,0,.39,1.74,1.74,0,0,0,.05.39l.09.38a2.67,2.67,0,0,0,.36.74,2.94,2.94,0,0,0,.56.68,2.11,2.11,0,0,0,.41.28l.24.11L3,19.5H3c.06,0,.13,0,.14-.06v0a2.61,2.61,0,0,1,.42-.74,3.07,3.07,0,0,1,.29-.34,2.43,2.43,0,0,1,.34-.3,2.75,2.75,0,0,1,.4-.26,3.19,3.19,0,0,1,.46-.2,3.65,3.65,0,0,1,.5-.13,3.19,3.19,0,0,1,.52-.06,3.68,3.68,0,0,1,.57,0,3.35,3.35,0,0,1,.54,0,3.32,3.32,0,0,1,.55.09,3.58,3.58,0,0,1,.54.14,8,8,0,0,1,1.88.85,9.2,9.2,0,0,0-.74.62,3.45,3.45,0,0,0-.35.4,4.62,4.62,0,0,0,.59-.24,9,9,0,0,0,1.11-.65,8.51,8.51,0,0,0,.94-.76l.12-.13.66.19c.45.11.91.19,1.37.26s.88.12,1.33.16a5.48,5.48,0,0,0,.8.41,6.49,6.49,0,0,0,1,.31,1.93,1.93,0,0,0,.57.07.52.52,0,0,0,.17,0c.07,0,.15-.07.15-.15s-.13-.17-.19-.22l-.11,0,.39.05h.34c.05,0,.12,0,.14,0h.05v0s0,0,0-.06,0,0-.05-.06l-.09-.06-.2-.08-.2-.08.13,0,.31,0a1.71,1.71,0,0,0,.32,0,1.06,1.06,0,0,0,.62-.24.58.58,0,0,0,.1-.12.16.16,0,0,0,0-.17.22.22,0,0,0-.17-.11h0a.43.43,0,0,0,.25-.19.19.19,0,0,0,0-.07v0h0v-.05h0v0a.5.5,0,0,0-.15-.14,1.28,1.28,0,0,0-.33-.11l-.55-.09a.83.83,0,0,1-.22,0h.2a3.64,3.64,0,0,0,.59-.1h.08l.09,0a.5.5,0,0,0,.12-.08.22.22,0,0,0,.06-.17.37.37,0,0,0-.16-.21l-.16-.08c-.18-.07-.35-.12-.52-.17L18.13,16a2.41,2.41,0,0,0-.64-.07,3.57,3.57,0,0,0-.59.06l-.42.1L16.15,16l-.45-.14-.43-.12.25-.1a8,8,0,0,0,1.16-.59,8.81,8.81,0,0,0,1-.71,2.54,2.54,0,0,0,.23-.22l.09,0a4.76,4.76,0,0,0,.57.19l.54.09.42,0-.3.11a4.19,4.19,0,0,0-.8.43,3.25,3.25,0,0,0-.63.55,1.8,1.8,0,0,0-.22.3,2.86,2.86,0,0,0,.45-.14,5.27,5.27,0,0,0,.8-.43,3.27,3.27,0,0,0,.63-.56,1.57,1.57,0,0,0,.19-.26h.55a.76.76,0,0,0,.11.14,2.3,2.3,0,0,0,.45.36l.24.16h-.12a4.48,4.48,0,0,0-.52.1,1.11,1.11,0,0,0-.36.16.3.3,0,0,0-.12.2.76.76,0,0,0,0,.16A.38.38,0,0,0,20,16a.55.55,0,0,0,.43.11A3,3,0,0,0,21,16c.3-.08.72-.13,1.13-.19s.87-.12,1.31-.13c.12,0,.16,0,.18,0a.4.4,0,0,1,0,.22c0,.16-.09.33-.1.51a.36.36,0,0,0,.05.28.47.47,0,0,0,.39.18.4.4,0,0,0,.25-.06.28.28,0,0,0,.12-.16.72.72,0,0,0,.05-.28c0-.18,0-.36,0-.52a.4.4,0,0,1,.05-.19h.09c.23,0,.66.42,1.24.49a2,2,0,0,0,.86,0,1.5,1.5,0,0,0,.64-.36.78.78,0,0,0,.23-1,.86.86,0,0,0-.6-.29h-.31a2,2,0,0,0-.27,0,5.51,5.51,0,0,0-.76.23,1.88,1.88,0,0,1-.44.13c-.07,0-.06-.07-.07-.06a0,0,0,0,0,0,0s0,0,0,0v0s0,.08.1.1a1.87,1.87,0,0,0,.55,0,6.43,6.43,0,0,1,.75-.13c.28,0,.6,0,.65.15s0,.42-.25.61a1,1,0,0,1-.38.21l-.09,0-.14,0-.29,0a1.46,1.46,0,0,1-.55-.17,1.81,1.81,0,0,0-.8-.26h-.19l-.09,0a.4.4,0,0,0-.24.18.58.58,0,0,0-.06.32c0,.19.07.36.1.53s0,.36-.11.34a.24.24,0,0,1-.27-.3,2.3,2.3,0,0,1,.13-.5.64.64,0,0,0,0-.28c0-.15-.28-.2-.38-.21a8,8,0,0,0-1.09,0s.05,0,.06-.05l0,0,0,0h0l.06-.08a.3.3,0,0,0,0-.21,1.12,1.12,0,0,0-.15-.26.93.93,0,0,1-.11-.19c0-.05,0,0,0-.06a.32.32,0,0,1,.13-.08l.22-.09a2.9,2.9,0,0,0,.58.4,2.38,2.38,0,0,0,.42.19l.13.05.2,0h.23a.8.8,0,0,0,.2-.06,1.08,1.08,0,0,0,.44-.35,1.18,1.18,0,0,0,.22-.39,1.68,1.68,0,0,1,.14-.38.27.27,0,0,1,.35-.05l.06,0,0,0-.24.23a1.63,1.63,0,0,0-.34.44.28.28,0,0,0,0,.17l0,0,0,0a0,0,0,0,0,0,0l0,0s.06,0,.12-.08.3-.17.5-.32A1.31,1.31,0,0,0,26,14a.33.33,0,0,0,0-.12.28.28,0,0,0,0-.09.32.32,0,0,0-.08-.12l-.13-.06h-.06l-.16,0a.84.84,0,0,0-.35,0,.5.5,0,0,0-.24.16,3.6,3.6,0,0,1-.29.35,3,3,0,0,1-.34.28,1.21,1.21,0,0,1-.33.2H24l-.15,0-.39-.11c-.24-.08-.45-.13-.61-.17h0a11.21,11.21,0,0,0,1.41,0l.22,0,.13,0a.24.24,0,0,0,.14-.19.19.19,0,0,0,0-.11l-.05,0-.1-.06-.19-.08a4.88,4.88,0,0,0-.73-.13c-.48-.06-1-.09-1.42-.13a3.62,3.62,0,0,1-.68-.08l-.24-.07.46-.18c.66,0,1.32.07,2,.11l2,.07c1.3,0,2.61,0,3.91,0q-.24.51-.51,1c-.19.36-.41.72-.62,1.07-.4.67-.78,1.33-1.15,2-1.37-.09-2.75-.16-4.13-.19-.72,0-1.45,0-2.17,0s-1.45,0-2.18,0l0,0s0,0,0,0c.72.08,1.43.15,2.15.2s1.44.11,2.16.17c1.45.1,2.89.16,4.34.2h0a.27.27,0,0,0,.27-.12c.35-.73.69-1.46,1-2.19.17-.37.32-.74.5-1.1s.36-.73.56-1.08a0,0,0,0,0,0,0s0-.06-.09-.07h0c-1.34-.05-2.69-.16-4-.17h-2c-.67,0-1.35,0-2,0h-.06l-.47.28L21,13.12l-.69-.29A13.14,13.14,0,0,0,21.89,12C22.46,11.67,22.91,11.25,23.43,10.89Z"/><path class="cls-6" d="M9.32,6.76a11.28,11.28,0,0,0,1.8,2.49c1.07,1.07,1.47,1.71,1.46,2.41s0,.81,0,.81-.26-.15-.25.36a.81.81,0,0,0,.47.72s.49-.38.44-.74-.24-.4-.24-.4.29-.07.12-1.39-1.36-1.9-1.47-3A1.81,1.81,0,0,0,9.32,6.76"/><path class="cls-6" d="M15,10.75s-.35,1.41,0,1.93-.45,1.15-.45,1.15a.89.89,0,0,0-.15-.68c-.23-.24-.46-.26,0-.66l-.09-1.13.13-.76Z"/></svg>