<svg id="Capa_1" data-name="Capa 1" xmlns="http://www.w3.org/2000/svg" viewBox="0 0 28.92 28.56"><defs><style>.cls-1{fill:#f5a4c7;}.cls-2{fill:#fbc9b7;}.cls-3{fill:#231f20;}</style></defs><title>1-6meses</title><path class="cls-1" d="M4.43,17.9s-1-.86-.9-1.44a5.44,5.44,0,0,1,3.82-2.94c2.19-.37,6.92-.64,6.92-.64L16.61,17,10.2,19.34l-2.07.1Z"/><path class="cls-2" d="M3.83,17.32a4,4,0,0,0,.22,1.9,3,3,0,0,1-.13,2.21c-.11.49-.24,1.84-.24,1.84s-.41-.13-.25,1,.45,2.56.79,2.73a5.37,5.37,0,0,0,1.71.32c.59,0,.5-.15.5-.15S7.51,27,6.93,26s-.68-2-.25-2.39.43-1.9.92-2.45,1.27-2.13.62-3-3-2.21-4.39-.8"/><path class="cls-2" d="M10.22,17.15c-.84.89-.37,2.54.72,3.22s2,.87,2.7,1.55,1,1.56,2.4,1.74c0,0-.23.2.5.93s.3,1.18.62,1.48l.33.29s-.3.54,0,.66a2.79,2.79,0,0,0,1.15,0,1.81,1.81,0,0,0,.87-.61c.2-.22.28-.19.43-.46a1,1,0,0,0,0-.67S18.78,23.75,18.35,23A19.26,19.26,0,0,0,17,20.35a3.39,3.39,0,0,1-1.14-1.12c-.24-.52.85.3,1.13.43a7.65,7.65,0,0,0,1.68.2c.34,0,2.41-.25,2.69-.23s1.41.39,1.78.42.56-.09.64-.21-.08-1.1-.48-1.26,0-.37-1-.25a13.56,13.56,0,0,1-3.22-.45,4.34,4.34,0,0,1-.73-.34,3.36,3.36,0,0,0-.08-.77l.83-.58s1.92,1,2.44,1.22,1.08.52,1.14.52a6.42,6.42,0,0,1,.6.73s-.51.43-.51.64.47.43.89.35.41-.16.67-.14a.81.81,0,0,0,.59-.28L25.1,19s.48,0,.52-.34a1,1,0,0,0-.41-1c-.39-.3-1.27-1.08-1.63-1.39s-.55-.5-.55-.5a2,2,0,0,1,1.25-.51c.84-.07,2.64-.46,2.76-1.24s.22-2.74-.59-3.06S25,9.23,22.89,9.61s-2.83.54-3.08.76a4.33,4.33,0,0,0-.53.75,2.44,2.44,0,0,1-.44.14A9.66,9.66,0,0,0,15.21,11c-1.29.34-2.37,1.23-3.48,1.48s-2.61.7-2.61.7a5.48,5.48,0,0,1,3.64.79c2.11,1.16,2,1.85,2,1.85l.3,1.2,0,.27a3.26,3.26,0,0,0-1.83-1,4.31,4.31,0,0,0-2.93.86"/><path class="cls-3" d="M22.75,13.08l.53.18s-.52.15-.29.38.6,0,.6,0c.05.17,0,.22,0,.22l.17-.1c.17-.1,0-.46-.26-.64a1.13,1.13,0,0,0-.73-.08"/><path class="cls-3" d="M22.41,15a.51.51,0,0,0,.6.06c.11,0,.13-.47.13-.47a2.94,2.94,0,0,0-.23.36c-.06.13-.5,0-.5,0"/><path class="cls-3" d="M22.32,14.48c-.17-.05-.21.26.09.32,0,0,.07-.27-.09-.32"/><path class="cls-3" d="M25.9,14.66h0a8.45,8.45,0,0,1-1.12.4l-.32.08a.24.24,0,0,0-.12-.28,1.71,1.71,0,0,0-.86,0c.6,0,.6.12.6.12a.37.37,0,0,0-.21.29h0l-.05,0a2.37,2.37,0,0,0-.71.35.58.58,0,0,0-.12-.1,3,3,0,0,0-.3-.21c-.12-.07-.24-.11-.3-.15a1.81,1.81,0,0,1-.36-.37c-.2-.31-.36-.64-.56-1s-.36-.65-.57-1a4,4,0,0,0-.85-.95c-.13-.11-.28-.2-.42-.3l0,0a3,3,0,0,1,.54-.4,1,1,0,0,1,.14,0h.12a.15.15,0,0,1,.11,0l.16.05a1.28,1.28,0,0,0,0,.88c0,.15,0,.08.09-.06a.57.57,0,0,0,.21.23c-.19-.44.07-.54.07-.54a3.43,3.43,0,0,0,.12.44c0-.18.35-.6.35-.6V12c0,.39.81-.6.81-.6s0,.23.34.43.15-.13.08-.33a1.46,1.46,0,0,0,.45.35c.59.32.69-1,.69-1s.54,1,.7.92.15-.76.17-.55a2.1,2.1,0,0,0,.21.67,3.17,3.17,0,0,1,.19.61s.09-.79.09-.76.23.81.32,1.06.49-.55.49-.55c.09.2-.34,1-.34,1l-.19.55c-.19.55.92-.07.92-.07a1,1,0,0,0-.26.59c0,.12,0,.14.12.11a3,3,0,0,1-.49.28m-.37,3.52h0a.47.47,0,0,1,0,.46.71.71,0,0,1-.27.24l.13-.41s0-.06-.07-.07-.11,0-.12,0a3.47,3.47,0,0,1-.33.67.86.86,0,0,1-.13.14.71.71,0,0,1-.17.11l-.17.06.3-.33h0a.07.07,0,0,0,0-.11.15.15,0,0,0-.16,0h0a1.35,1.35,0,0,1-.49.37l-.16.06-.17,0h0l.42-.35a.1.1,0,0,0,0-.16.24.24,0,0,0-.27,0h0a5.85,5.85,0,0,1-.56.28l-.29.11h0l0-.05a.77.77,0,0,1,.14-.19.6.6,0,0,1,.08-.08l.1-.06.24-.11a.17.17,0,0,0,.11-.06c.08-.08.05-.19-.07-.24h0l-.1-.05-.1-.08a.85.85,0,0,1-.16-.17.82.82,0,0,1-.12-.41h0c0-.07-.06-.13-.15-.16-.64-.21-1.27-.44-1.88-.69a8.59,8.59,0,0,1-.87-.4,4.16,4.16,0,0,1-.75-.46,1.56,1.56,0,0,1-.27-.3l-.26-.32a7.79,7.79,0,0,0-.52-.65,4.67,4.67,0,0,0-.64-.61,1.86,1.86,0,0,0-.92-.41v0a1.51,1.51,0,0,1,.45.18,2.33,2.33,0,0,1,.35.27,4.45,4.45,0,0,1,.53.62l.46.66.23.34a1.65,1.65,0,0,0,.21.27l-.32.19a7.59,7.59,0,0,1-1.37.56c-.53.16-1.08.29-1.49.37l-.59.11-.2-.27a1.28,1.28,0,0,0,.11-.36,1.9,1.9,0,0,0-.05-.65,3.2,3.2,0,0,0-.1-.39,3.63,3.63,0,0,0-.18-.43,2.74,2.74,0,0,0-.75-.88,4.81,4.81,0,0,0-1.27-.7,10.55,10.55,0,0,0-1.59-.46,11.8,11.8,0,0,0-1.69-.16c.73-.16,1.46-.33,2.18-.54a14.6,14.6,0,0,0,1.42-.45c.48-.19.84-.43,1.27-.61a4.49,4.49,0,0,1,1.31-.38,4.7,4.7,0,0,1,1.4,0c.23,0,.47.09.69.14l.66.22a4.42,4.42,0,0,1,1.09.62,4,4,0,0,1,.77.84c.21.31.39.64.6,1s.37.65.61,1a1.67,1.67,0,0,0,.5.49,3.46,3.46,0,0,1,.59.31c.69.5,1.28,1.08,2,1.6A3.76,3.76,0,0,1,25.53,18.18Zm-6.93-.5h0v0S18.59,17.67,18.6,17.68Zm.49-1.39h0a3.78,3.78,0,0,0,.8.55c.29.16.59.3.9.44.57.24,1.16.47,1.76.68a.86.86,0,0,0,.09.3H22.2c-.18,0-.36,0-.52-.06l-.23,0-.11,0-.12,0c-.19-.06-.37-.09-.55-.13a18.29,18.29,0,0,0-2.1-.29h0a.31.31,0,0,1-.05-.1,1.81,1.81,0,0,1-.06-.27,1.25,1.25,0,0,0-.2-.5,5.23,5.23,0,0,0,.51-.31l.28-.21S19.07,16.28,19.09,16.29Zm4.52,3.55h0a.31.31,0,0,1-.1.05h-.12a3.4,3.4,0,0,1-.65-.11,6.56,6.56,0,0,0-.73-.17l-.78-.1h0a.09.09,0,0,0-.07,0,2.55,2.55,0,0,1-.71.17,4,4,0,0,1-.78,0l-.77,0h-.39l-.37,0c-.12,0-.23,0-.35,0a3.43,3.43,0,0,1-.34-.06l-.33-.08-.32-.1A3.73,3.73,0,0,1,16,19c-.08-.18-.15-.36-.22-.54a4.78,4.78,0,0,0-.28-.61l.54-.15c.41-.12.95-.31,1.46-.52a6.36,6.36,0,0,0,.74-.36,2.53,2.53,0,0,1-.07.48,1.35,1.35,0,0,0,0,.29.51.51,0,0,0,0,.17.21.21,0,0,0,0,.1.31.31,0,0,0,.2.13h0l1.06.18,1.07.16.51.08.13,0,.15,0,.31,0a5.42,5.42,0,0,0,.58-.06,1.31,1.31,0,0,0,.27-.06l.17-.05a.67.67,0,0,0,.06.12,1.29,1.29,0,0,0,.23.24l0,0,0,0-.15.11a.79.79,0,0,0-.13.12,1.28,1.28,0,0,0-.17.26.94.94,0,0,0-.06.15.28.28,0,0,0,.07.24.55.55,0,0,0,.23.1h.15a1.11,1.11,0,0,0,.24-.05l.11-.05a.19.19,0,0,0,.14.12.52.52,0,0,0,.17,0l.15,0A.28.28,0,0,1,23.61,19.84ZM13.48,16.19h0a4.26,4.26,0,0,0-2.1.06,2.71,2.71,0,0,0-1.72,1.34c0,.06-.05.1-.08.18l-.06.16a1.51,1.51,0,0,0-.07.73,1.36,1.36,0,0,0,.26.64l-1,0a1.69,1.69,0,0,0,0-1.13,2.45,2.45,0,0,0-1.1-1.11,4.5,4.5,0,0,0-1.77-.55A2.67,2.67,0,0,0,4,17a.69.69,0,0,0-.13.11,1.24,1.24,0,0,1,0-.36,2.14,2.14,0,0,1,.66-1.28,6.16,6.16,0,0,1,.83-.73c.17-.13.35-.24.52-.35a5.65,5.65,0,0,1,.6-.31,8.71,8.71,0,0,1,3.08-.72,6.89,6.89,0,0,1,1.7,0,5.29,5.29,0,0,1,1.45.52,5.56,5.56,0,0,1,1,.75,3.1,3.1,0,0,1,.67.77,3.72,3.72,0,0,1,.21.39c.06.13.12.25.16.36a3.36,3.36,0,0,1,.19.6,2.15,2.15,0,0,1,0,.23A3,3,0,0,0,13.48,16.19ZM8.13,19.44h0a8.91,8.91,0,0,1-.6,1.13,2.82,2.82,0,0,0-.45,1.25,1.9,1.9,0,0,1,0,.59,2.71,2.71,0,0,1-.21.58c-.1.19-.2.38-.32.57l-.16.29a.62.62,0,0,0-.11.32,4.4,4.4,0,0,0,.24,1.24,1.89,1.89,0,0,0,.27.6,1.08,1.08,0,0,1,.21.57.44.44,0,0,1-.28.46.08.08,0,0,1-.09,0s0,0,0,0a1.19,1.19,0,0,0-.26-.34h0a.17.17,0,0,0-.14,0c-.08,0-.12.07-.1.12a1.17,1.17,0,0,0,.2.31h0a.17.17,0,0,1,0,.12l0,0H6.06a.19.19,0,0,1-.09,0l0,0a.61.61,0,0,0,0-.27h0a.17.17,0,0,0-.18-.11c-.11,0-.21,0-.22.12a.58.58,0,0,0,0,.19.17.17,0,0,0,0,.07c0,.06,0,0,0,0H5.42l-.06,0h0A.58.58,0,0,0,5.4,27h0c0-.06,0-.13-.11-.17a.3.3,0,0,0-.33,0,.19.19,0,0,0-.14-.13.33.33,0,0,0-.35.08l0,.09a.2.2,0,0,1,0-.09.43.43,0,0,1,0-.12h0a.17.17,0,0,0,0-.1A3.58,3.58,0,0,1,4.17,26a3,3,0,0,1-.08-.32,3.07,3.07,0,0,1,0-.34,2.91,2.91,0,0,0-.27-.7A3.36,3.36,0,0,1,3.53,24a.83.83,0,0,1,0-.31.39.39,0,0,1,.15-.25l.14-.09.2-.07a1.59,1.59,0,0,1,.43-.06,1.22,1.22,0,0,1,.78.28,1.92,1.92,0,0,1,.49.58h.06a1.59,1.59,0,0,0-.41-.64,1.37,1.37,0,0,0-.9-.39,1.68,1.68,0,0,0-.55,0l-.13,0c0-.4,0-.8,0-1.19A1.3,1.3,0,0,1,4,21.35a5.45,5.45,0,0,0,.31-.58,1.84,1.84,0,0,0,0-1.29A7.22,7.22,0,0,1,4,18.29a1.28,1.28,0,0,1,0-.53l.07-.15s.06-.07.08-.11a1.47,1.47,0,0,1,.22-.21A2,2,0,0,1,5.77,17a3.8,3.8,0,0,1,1.45.46,2.09,2.09,0,0,1,.92.89A1.43,1.43,0,0,1,8.13,19.44Zm19.5-8.9a5.56,5.56,0,0,0-3.37-2,5.56,5.56,0,0,0-2.07.18,4.38,4.38,0,0,0-3,.78,3.9,3.9,0,0,0-1.24,1.41c-.22,0-.43-.1-.65-.13a5.7,5.7,0,0,0-1.65,0,5,5,0,0,0-1.48.48c-.44.21-.82.46-1.21.64s-.88.34-1.33.5l-2.37.74a8.51,8.51,0,0,0-1.52.12,7.28,7.28,0,0,0-1.62.47,4.43,4.43,0,0,0-.69.34l-.31.2c-.1.06-.17.13-.26.19a4.21,4.21,0,0,0-.81.84,1.83,1.83,0,0,0-.45,1.47,1,1,0,0,0,.19.43l-.08.1a1,1,0,0,0-.11.17l-.07.15a1.5,1.5,0,0,0,0,.69,8,8,0,0,0,.4,1.23A2,2,0,0,1,4,20.7c-.07.19-.16.39-.25.58a1.19,1.19,0,0,0-.17.63c0,.41.08.82.12,1.22H3.65l-.24.14a.61.61,0,0,0-.25.36.82.82,0,0,0,0,.38,3.35,3.35,0,0,0,.22.7,2.5,2.5,0,0,1,.22.63c0,.09,0,.23,0,.34s0,.24.07.36a4.88,4.88,0,0,0,.23.64.89.89,0,0,0,0,.14.58.58,0,0,0,0,.22.42.42,0,0,0,.23.23.66.66,0,0,0,.3.07h0a.3.3,0,0,0,.13.09l.07,0,.05,0h0a.79.79,0,0,0,.22,0,.47.47,0,0,0,.17-.06l.09,0,.13,0h.12a.68.68,0,0,0,.35-.09.5.5,0,0,0,.21,0,.48.48,0,0,0,.17,0h.16a.61.61,0,0,0,.18-.09.2.2,0,0,0,.09-.13s0,0,0,0a.48.48,0,0,0,.18,0,.43.43,0,0,0,.12-.05L7,27.06a.48.48,0,0,0,.13-.16.77.77,0,0,0,.06-.33A1.21,1.21,0,0,0,6.93,26a1.65,1.65,0,0,1-.25-.58,4.19,4.19,0,0,1-.2-1.2,2.16,2.16,0,0,1,.3-.55,5.57,5.57,0,0,0,.37-.57,3.28,3.28,0,0,0,.28-.6,2,2,0,0,0,.08-.64A3.12,3.12,0,0,1,8,20.7a7.84,7.84,0,0,0,.68-1.16c0-.05,0-.11.05-.16a3.51,3.51,0,0,0,1,0,2.92,2.92,0,0,0,.56.55c.45.35.93.63,1.4.94s1.08.53,1.46.84a12,12,0,0,1,1,1.1,3.1,3.1,0,0,0,1.53.82l0,0a2.79,2.79,0,0,1-1.35-.87,9.45,9.45,0,0,0-.94-1.17,12.52,12.52,0,0,0-1.42-.91c-.44-.32-.93-.63-1.31-.95a1.72,1.72,0,0,1-.69-1.08,1.16,1.16,0,0,1,.07-.58l.06-.16a.91.91,0,0,1,.07-.14,2.68,2.68,0,0,1,.18-.28,2.36,2.36,0,0,1,1.2-.81,3.18,3.18,0,0,1,1.65-.07,2.3,2.3,0,0,1,1.27.77,4.1,4.1,0,0,1,.73,1.17A4.37,4.37,0,0,0,16,19.78a2.89,2.89,0,0,0,.31.28l.33.23a2.13,2.13,0,0,1,.44.55,12,12,0,0,1,.62,1.24,7.3,7.3,0,0,0,.69,1.25c.27.4.56.8.84,1.19.14.2.28.4.4.6a1.61,1.61,0,0,1,.15.29.24.24,0,0,1,0,.12s0,0,0,0h0l-.17.2.06.07.05.07a.41.41,0,0,1,0,.08s0,.05,0,.09h0s0,0,0,0a.54.54,0,0,0-.18-.06h0a.27.27,0,0,0-.22.07c-.06.07,0,.15.07.2h0l0,.05h0a.3.3,0,0,0-.28-.1c-.13,0-.22.11-.19.21s0,0,0,0h0a.32.32,0,0,1,0,.25.37.37,0,0,1-.18.17h0a.36.36,0,0,1,0-.11.36.36,0,0,0,0-.1.5.5,0,0,0,0-.16.24.24,0,0,0-.24-.14c-.15,0-.28.07-.29.17a1.2,1.2,0,0,0,0,.19.31.31,0,0,1-.09.12l-.07.06-.08,0-.13,0a.24.24,0,0,1-.12-.05l-.06-.06,0-.06a.13.13,0,0,1,0-.12s0,0,0-.06l.05,0a.16.16,0,0,0,.09-.14.11.11,0,0,0,0-.08h0l0,0,0,0h0l0,0,0,0-.15-.1a.55.55,0,0,1-.17-.17,1.53,1.53,0,0,1-.07-.51,1.59,1.59,0,0,0-.06-.3.72.72,0,0,0-.2-.3c-.16-.17-.33-.31-.48-.46a2.78,2.78,0,0,1-.39-.47.78.78,0,0,1-.12-.51.75.75,0,0,1,.29-.47,1.17,1.17,0,0,1,.69-.2v0a1.31,1.31,0,0,0-.81.17.91.91,0,0,0-.4.52.75.75,0,0,0,0,.3,1,1,0,0,0,.1.3,2.66,2.66,0,0,0,.37.53,6.11,6.11,0,0,1,.43.47.45.45,0,0,1,.13.21.77.77,0,0,1,0,.26,1.33,1.33,0,0,0,.08.6.77.77,0,0,0,.27.3l.09.06a.75.75,0,0,0-.07.12.44.44,0,0,0,0,.3.5.5,0,0,0,.08.14l.13.12a.86.86,0,0,0,.41.16.89.89,0,0,0,.47-.06.68.68,0,0,0,.17-.09l.1.06a.58.58,0,0,0,.19,0h.1a.71.71,0,0,0,.21-.05.74.74,0,0,0,.43-.44l.12,0a.32.32,0,0,0,.15-.12l.05-.06,0-.05a.37.37,0,0,0,.05-.11.38.38,0,0,0,.17,0,.27.27,0,0,0,.11-.1.19.19,0,0,0,0-.09.08.08,0,0,0,0-.07.3.3,0,0,0,0-.13.5.5,0,0,0-.05-.13l-.07-.09a.18.18,0,0,0,.07-.09.4.4,0,0,0,0-.22,1.69,1.69,0,0,0-.19-.32l-.46-.59c-.3-.39-.6-.78-.88-1.18a16,16,0,0,1-1.21-2.5,2.73,2.73,0,0,0-.45-.63c-.13-.1-.23-.16-.32-.24a3,3,0,0,1-.25-.26h0l.09.06a3.3,3.3,0,0,0,1.61.38c.15,0,.29,0,.42,0l.4,0a7.14,7.14,0,0,0,.79-.11l.78-.12.71-.12.68.24a6.75,6.75,0,0,0,.74.17,2.46,2.46,0,0,0,.87,0,1.17,1.17,0,0,0,.24-.09.57.57,0,0,0,.09-.08.22.22,0,0,0,.05-.08.33.33,0,0,0,0-.24l.18-.05.09,0a.1.1,0,0,0,.11,0,1.9,1.9,0,0,0,.51-.15.83.83,0,0,0,.22-.14.7.7,0,0,0,.13-.17l0-.05h.08a1.11,1.11,0,0,0,.59-.4.57.57,0,0,0,0-.58,3.31,3.31,0,0,0-.89-.9c-.59-.49-1.1-1-1.73-1.54l.16-.06a3.26,3.26,0,0,1,.58-.17c.24,0,.61-.07,1-.14A6.89,6.89,0,0,0,26.17,15a4.69,4.69,0,0,0,.46-.21,1.48,1.48,0,0,0,0,.21c.08.42,1.39-.71,1.52-1.36A3.92,3.92,0,0,0,27.63,10.54Z"/><path class="cls-3" d="M2.79,3.23a2.51,2.51,0,0,1-.61.08,1.33,1.33,0,0,1-.81-.23A1.12,1.12,0,0,1,1,2.14,1.19,1.19,0,0,1,2.25.9,1.41,1.41,0,0,1,2.74,1l-.08.23a1.35,1.35,0,0,0-.4-.05.85.85,0,0,0-.9,1c0,.73.41,1,.82,1a.8.8,0,0,0,.24,0V2.28H2V2.05h.81Z"/><path class="cls-3" d="M3.31,3.29h0V1.59H3.7v1.7Zm.43-2.14c0,.11-.1.18-.24.18s-.23-.07-.23-.18S3.37,1,3.5,1,3.74,1.05,3.74,1.15Z"/><path class="cls-3" d="M4.25,2c0-.14,0-.31,0-.44h.35l0,.27h0a.6.6,0,0,1,.52-.3h.08v.27H5.13a.46.46,0,0,0-.47.35.78.78,0,0,0,0,.16v.94H4.25Z"/><path class="cls-3" d="M6.41,2.41h0c-.2,0-.68,0-.68.4a.28.28,0,0,0,.3.3.35.35,0,0,0,.37-.26.31.31,0,0,0,0-.09Zm.06.88,0-.18h0a.62.62,0,0,1-.49.21.53.53,0,0,1-.59-.49c0-.42.49-.61,1.05-.61V2.16c0-.23-.08-.38-.39-.38a1,1,0,0,0-.41.08l-.09-.18a1.29,1.29,0,0,1,.58-.12c.5,0,.71.23.71.61V2.9a1.63,1.63,0,0,0,0,.39Z"/><path class="cls-3" d="M8.09,3a1,1,0,0,0,.4.09c.22,0,.36-.1.36-.25s-.06-.22-.32-.33S8,2.23,8,2s.3-.47.68-.47a1.16,1.16,0,0,1,.44.09l-.1.2a.81.81,0,0,0-.33-.07c-.22,0-.32.11-.32.21s.06.18.3.3.52.28.52.52-.34.5-.75.5A1.15,1.15,0,0,1,8,3.21Z"/><path class="cls-3" d="M9.92,2.44h0c0,.28.07.66.43.66s.41-.4.41-.66-.07-.66-.42-.66-.42.4-.42.66m1.24,0a.8.8,0,0,1-.83.88.78.78,0,0,1-.8-.88.8.8,0,0,1,.83-.88A.78.78,0,0,1,11.16,2.44Z"/><path class="cls-3" d="M12,2.69h0a.15.15,0,0,0,0,.1.38.38,0,0,0,.37.3c.31,0,.43-.29.43-.65s-.12-.65-.44-.65A.41.41,0,0,0,12,2.1a.45.45,0,0,0,0,.12Zm-.41.6c0-.1,0-.29,0-.41v-2H12v.93h0a.63.63,0,0,1,.53-.23c.38,0,.67.31.67.86s-.37.9-.75.9A.53.53,0,0,1,12,3.07h0l0,.22Z"/><path class="cls-3" d="M13.63,2c0-.14,0-.31,0-.44H14l0,.27h0a.63.63,0,0,1,.53-.3h.08v.27h-.08a.47.47,0,0,0-.48.35.78.78,0,0,0,0,.16v.94h-.39Z"/><path class="cls-3" d="M15.89,2.26h0c0-.34-.18-.49-.37-.49s-.39.26-.41.49Zm-.78.2c0,.52.3.64.59.64A1.12,1.12,0,0,0,16.11,3l.06.2a1.75,1.75,0,0,1-.54.08.79.79,0,0,1-.9-.85.81.81,0,0,1,.83-.9.68.68,0,0,1,.71.75.62.62,0,0,1,0,.15Z"/><path class="cls-3" d="M17.43,3a1,1,0,0,0,.4.09c.22,0,.36-.1.36-.25s-.07-.22-.32-.33-.49-.29-.49-.49.29-.47.68-.47a1.16,1.16,0,0,1,.44.09l-.11.2a.79.79,0,0,0-.32-.07c-.22,0-.33.11-.33.21s.07.18.31.3.51.28.51.52-.34.5-.74.5a1.15,1.15,0,0,1-.49-.1Z"/><path class="cls-3" d="M20.46,2.83c0,.19,0,.33,0,.46h-.35l0-.18h0a.77.77,0,0,1-.53.21c-.44,0-.61-.23-.61-.66V1.59h.4v1c0,.26.06.46.33.46a.35.35,0,0,0,.37-.38V1.59h.4Z"/><path class="cls-3" d="M2.27,6.4a1,1,0,0,1-.41.07A.81.81,0,0,1,1,5.61a.89.89,0,0,1,1-.89,1,1,0,0,1,.35.06L2.21,5a.89.89,0,0,0-.29,0,.59.59,0,0,0-.57.66.56.56,0,0,0,.58.63.88.88,0,0,0,.29,0Z"/><path class="cls-3" d="M4.11,6c0,.19,0,.34,0,.47H3.79l0-.18h0a.78.78,0,0,1-.54.2c-.43,0-.6-.23-.6-.65V4.75H3v1c0,.27.07.47.34.47A.34.34,0,0,0,3.7,6a.68.68,0,0,0,0-.15V4.75h.39Z"/><path class="cls-3" d="M5.72,5.42h0c0-.34-.18-.49-.37-.49S5,5.19,5,5.42Zm-.78.2c0,.52.31.63.59.63a1.15,1.15,0,0,0,.41-.06l.06.2a1.75,1.75,0,0,1-.54.08.81.81,0,0,1-.9-.86.81.81,0,0,1,.83-.89.68.68,0,0,1,.71.75.66.66,0,0,1,0,.15Z"/><path class="cls-3" d="M6.52,5.19c0-.15,0-.32,0-.44h.35l0,.26h0a.59.59,0,0,1,.52-.29h.09V5H7.4a.45.45,0,0,0-.47.35.78.78,0,0,0,0,.16v.94H6.52Z"/><path class="cls-3" d="M8.18,5.82h0A.32.32,0,0,0,8.2,6a.37.37,0,0,0,.36.29c.33,0,.43-.31.43-.65S8.87,5,8.56,5a.41.41,0,0,0-.37.31.53.53,0,0,0,0,.13Zm-.39-.54c0-.26,0-.41,0-.53h.35l0,.22h0a.6.6,0,0,1,.52-.25c.43,0,.72.32.72.87a.77.77,0,0,1-.77.88.51.51,0,0,1-.43-.19h0v.84H7.79Z"/><path class="cls-3" d="M10.12,5.6h0c0,.28.07.66.43.66s.41-.4.41-.66-.07-.66-.42-.66-.42.4-.42.66m1.23,0a.79.79,0,0,1-.82.87.77.77,0,0,1-.8-.87.8.8,0,0,1,.83-.88A.77.77,0,0,1,11.35,5.6Z"/><path class="cls-3" d="M1.15,9.6V8.11H.83v-.2h.32V7.8a.6.6,0,0,1,.22-.51.82.82,0,0,1,.49-.14.83.83,0,0,1,.31,0L2.1,7.4a.79.79,0,0,0-.21,0c-.28,0-.35.21-.35.43v.11H2v.2H1.54V9.6Z"/><path class="cls-3" d="M3.15,8.73h0c-.2,0-.68,0-.68.39a.28.28,0,0,0,.3.3.35.35,0,0,0,.37-.26.28.28,0,0,0,0-.09Zm.06.87h0l0-.18h0a.62.62,0,0,1-.49.21c-.34,0-.59-.19-.59-.48s.49-.62,1.05-.62v0c0-.23-.08-.39-.39-.39a1,1,0,0,0-.41.09L2.25,8a1.48,1.48,0,0,1,.58-.11c.5,0,.71.22.71.6v.74a1.54,1.54,0,0,0,0,.38Zm.26-2.39-.53.47H2.68l.39-.47Z"/><path class="cls-3" d="M5.3,9.56a1,1,0,0,1-.41.07A.81.81,0,0,1,4,8.76a.88.88,0,0,1,1-.88,1.38,1.38,0,0,1,.35,0l-.08.22a1.21,1.21,0,0,0-.28,0,.58.58,0,0,0-.57.65A.56.56,0,0,0,5,9.4a.88.88,0,0,0,.29-.05Z"/><path class="cls-3" d="M5.64,9.6h0V7.91H6V9.6Zm.42-2.13c0,.1-.09.17-.24.17s-.22-.07-.22-.17.1-.18.23-.18S6.06,7.36,6.06,7.47Z"/><rect class="cls-3" x="6.58" y="7.17" width="0.39" height="2.43"/><path class="cls-3" d="M7.56,8.34c0-.2,0-.3,0-.43h.34l0,.21h0a.69.69,0,0,1,.56-.24A.54.54,0,0,1,9,8.14H9a.66.66,0,0,1,.24-.2.93.93,0,0,1,.34-.06.54.54,0,0,1,.6.6V9.6H9.79V8.54c0-.22,0-.44-.35-.44a.38.38,0,0,0-.36.26.68.68,0,0,0,0,.15V9.6H8.67V8.49c0-.19-.05-.39-.34-.39A.38.38,0,0,0,8,8.38a.66.66,0,0,0,0,.15V9.6H7.56Z"/><path class="cls-3" d="M11.78,8.58h0c0-.34-.18-.49-.37-.49s-.38.26-.4.49Zm-.77.2c0,.52.3.63.58.63A1.08,1.08,0,0,0,12,9.34l.07.2a1.51,1.51,0,0,1-.55.09.81.81,0,0,1-.9-.86.81.81,0,0,1,.84-.89.67.67,0,0,1,.7.75v.15Z"/><path class="cls-3" d="M12.59,8.34c0-.2,0-.3,0-.43h.34l0,.2h0a.71.71,0,0,1,.57-.23.54.54,0,0,1,.6.58V9.6h-.4V8.51c0-.2-.05-.41-.34-.41a.38.38,0,0,0-.37.28.68.68,0,0,0,0,.15V9.6h-.39Z"/><path class="cls-3" d="M15.11,7.46v.45h.47v.2h-.47v1c0,.22.12.28.26.28h.16V9.6a1.72,1.72,0,0,1-.29,0,.62.62,0,0,1-.39-.11.5.5,0,0,1-.15-.43v-1h-.3v-.2h.3V7.53Z"/><path class="cls-3" d="M17,8.58h0c0-.34-.18-.49-.37-.49s-.39.26-.41.49Zm-.78.2c0,.52.3.63.59.63a1.12,1.12,0,0,0,.41-.07l.06.2a1.49,1.49,0,0,1-.54.09.81.81,0,0,1-.91-.86.81.81,0,0,1,.84-.89.68.68,0,0,1,.71.75.66.66,0,0,1,0,.15Z"/><path class="cls-3" d="M19.47,11.71s-.13.25-.82.29a3.69,3.69,0,0,1-1.23-.14l1-.07a1.36,1.36,0,0,1-.79-.28A4.22,4.22,0,0,0,17,11l-.62-.3a4.47,4.47,0,0,1,2.24-.18c1.07.25,1.16.73.9,1.16"/></svg>