<svg id="Capa_1" data-name="Capa 1" xmlns="http://www.w3.org/2000/svg" viewBox="0 0 29.65 28.26"><defs><style>.cls-1{fill:#f05050;}.cls-2{fill:#f8992f;}.cls-3{fill:#b3d335;}.cls-4{fill:#f5a4c7;}.cls-5{fill:#fbc9b7;}.cls-6{fill:#231f20;}</style></defs><title>2-6meses</title><path class="cls-1" d="M3.45,24.33s-.6,3.22-.37,3.29a20.42,20.42,0,0,0,2.41-.15l1.63-.21A3.2,3.2,0,0,0,9,26.67c1-.66,3.36-.08,3.36-.08a11.68,11.68,0,0,0,3.7-.18,21.44,21.44,0,0,1,4.12-1l4.25-.06,3.22.21a.48.48,0,0,0,.19-.68c-.26-.41-.52-1.45-.87-1.5A1.53,1.53,0,0,1,26,21.48c.33-1.05-.29-2.7-.45-3.27a10.11,10.11,0,0,1-.5-2.65c.13-.38.86-2.26.95-2.81s.13-1.18-1.64-.85-4.11.4-5,.58S8.93,13,8.93,13s-5.92.14-6.16.72.18.43.53.68,1.24.5.61,1.47-2.57,3.26-1.64,5.65a30.26,30.26,0,0,0,1.18,2.85"/><path class="cls-2" d="M5.56,16.84s-.44-.53,0-.93a2.81,2.81,0,0,1,2.24-.35c.38.25.69.69.39,1.09s-1.62.65-1.62.65L4.31,19.72a2.06,2.06,0,0,1,.57-1.66c.74-.85.68-1.22.68-1.22"/><path class="cls-3" d="M24.94,16.72,21.45,15a5.51,5.51,0,0,1-1.3,0c-.14-.1-.7-.58,0-1.25a1,1,0,0,1,1.36-.06l.1.31,4.16,2.14s.08.8-.83.6"/><path class="cls-4" d="M12.94,22.37l.64,2.78A3,3,0,0,0,16,25c1.69-.61,4.25-1.84,4.12-2.39s-3.81-2.12-7.22-.25"/><path class="cls-5" d="M11.09,22.21l.32-2a4.54,4.54,0,0,1-2.21.46,21.49,21.49,0,0,1-3.59-1S4.34,19,4.19,18.93s-.42-.18-.24-.34.1-.46.1-.62.06-.26.26-.37.37-.3.63-.45.3-.22.5-.23.39.37.39.37.18.38.44.31.53-.2.5,0-.17.69-.17.69A16.86,16.86,0,0,0,9,19.15,1.73,1.73,0,0,0,9.76,19s1.1-.91,1.65-1.4a9.62,9.62,0,0,1,2.11-1.08s-2.43-.8-3.21-2.06.8-3.33,1.09-3.66,7-.68,7.3-.08a2.22,2.22,0,0,1,.21,1.2,2.77,2.77,0,0,0,0,2.24s.4.92,0,1.43a4.14,4.14,0,0,1-1.21.89l1.9,1,.1.38a6.16,6.16,0,0,0,1.31-1c.31-.42.64-1.15.46-1.27s.57-.61.57-.61a.83.83,0,0,1,.18-.76c.3-.37,1-.18,1.27,0a1.26,1.26,0,0,0,.67.17l.38.44s.43.26.43.43-.05.58-.05.58.24.26.05.35-1.75.42-1.9.89a11.7,11.7,0,0,1-.93,2c-.26.38-.66,1-1.35,1.08a10.15,10.15,0,0,1-1.59-.08l.48,1.65s-.36.78-2.31,1.17-3.62-.53-4.91-.61l-1.38-.09"/><path class="cls-5" d="M9.14,22.46s-.75.07-.71.64a8.58,8.58,0,0,0,1,2.1s-1-.19-1.09.06.39.45.22.59a.64.64,0,0,0-.17.6c0,.14,0,.05.17.31a3.07,3.07,0,0,0,.87.68A13.58,13.58,0,0,0,13,27c.53-.25,1-.36.64-.74a7.68,7.68,0,0,0-.92-.76,1,1,0,0,1-.1-.22s1.68-.06,2.16-.57.1-1.07-.49-1.55a5.81,5.81,0,0,0-5.14-.72"/><path class="cls-5" d="M17.53,24.56s1.53-1.06,1.76-1.66a4.16,4.16,0,0,1,.58-1,3.72,3.72,0,0,1,2-.74,1.85,1.85,0,0,1,1.53.85,5.37,5.37,0,0,1,.93,1.39,2.56,2.56,0,0,0,1-.48c.26-.28.26-.68.61-.51s.64.4,1,.57.85.33.78.62-.51.27-.76.64-.88.49-1,.76-.4,1-.78,1.12-1.36,0-1.57-.6-.76-.65-1.23-.75-.44-.41-.86-.5a1.61,1.61,0,0,0-.77,0s-2.12.68-3.09.29"/><path class="cls-6" d="M8.53,26.16h0s0,0,0,0h0s0,0,0,0h0Z"/><path class="cls-6" d="M8.9,26.06v0h0v0"/><path class="cls-6" d="M15.58,25.06h0l-.54.08a5.12,5.12,0,0,1-.56,0h-.36a1.7,1.7,0,0,0,.76-.35.72.72,0,0,0,.2-.85,2.4,2.4,0,0,0-.59-.83,4.47,4.47,0,0,0-.4-.34c.49.12,1,.23,1.5.32l.14,0h.17a1.67,1.67,0,0,0,.33,0,4.34,4.34,0,0,0,.64-.06,7.92,7.92,0,0,0,1.14-.3,8.18,8.18,0,0,0,1-.41,3.1,3.1,0,0,0,.36-.21,2.29,2.29,0,0,1-.08.28,3.28,3.28,0,0,1-.39.71,2.5,2.5,0,0,1-.62.59l-.42.25-.45.25a5.93,5.93,0,0,1-1.88.78m-2.33.15h0l-.43.06c0-.15,0-.31.06-.47a1.23,1.23,0,0,0-.09-.7,1.85,1.85,0,0,0-1-.78,3.17,3.17,0,0,0-.5-.16h0s0,0,0,0a4.26,4.26,0,0,1,.37.26,1.77,1.77,0,0,1,.61.75,1.31,1.31,0,0,1,.05.58,2.21,2.21,0,0,0,0,.35.92.92,0,0,0,.18.41c.24.23.54.38.76.59s.25.48,0,.62a1.82,1.82,0,0,1-.91.22l-1.1.12a9.66,9.66,0,0,1-1.83.12l-.16,0H9.28s0,0,0,0h0l-.09,0s-.06,0-.06,0,.19-.16.3-.18a.25.25,0,0,1,.26.05l.06.07s0,0,0,0,0,0,0,0a.23.23,0,0,0,0-.11c0-.07-.17-.18-.38-.18a1.19,1.19,0,0,0-.32,0L9,26.67,8.9,26.6l-.05,0s0,.05,0,.07-.07,0,0-.07,0-.08.08-.09a.23.23,0,0,1,.16,0c.05,0,.08.07.1.08a.13.13,0,0,0,.08,0,.66.66,0,0,1,.15,0,.24.24,0,0,1,.11,0h.06a.17.17,0,0,0,.09-.09c0-.07,0-.18-.13-.26a.47.47,0,0,0-.21-.06A.28.28,0,0,0,9.44,26v0a.41.41,0,0,0,0-.08.51.51,0,0,0-.13-.09.54.54,0,0,0-.28,0l-.24,0-.15,0s0,0,0,0l-.11-.11c-.07-.07-.09-.17,0-.22l0,0,.05-.05.14,0a1.09,1.09,0,0,1,.28,0h.17a.62.62,0,0,1,.17,0,4.36,4.36,0,0,0,.46.12c.15,0,.32,0,.46,0s.25,0,.37,0h.32a3.93,3.93,0,0,0,.51-.07,1.16,1.16,0,0,0,.21-.05h0s0,0,0,0a1.66,1.66,0,0,0-.71-.21,1.61,1.61,0,0,0-.38,0,1.4,1.4,0,0,0-.4.11.63.63,0,0,1-.35.07.54.54,0,0,1-.29-.17A.7.7,0,0,0,9.36,25l-.14-.2a4,4,0,0,1-.53-1.08,1.05,1.05,0,0,1,0-.7,1.16,1.16,0,0,1,.73-.48,5.06,5.06,0,0,1,1.22-.17,6.88,6.88,0,0,1,1.29.08,4.35,4.35,0,0,1,2.09.95,2.44,2.44,0,0,1,.59.69.53.53,0,0,1,0,.64,1.66,1.66,0,0,1-.68.37l-.35.09h-.29s0,0,0,0h0ZM8.54,26.38h0s-.06-.15,0-.23a0,0,0,0,1,0,0h0l0,0h0a.19.19,0,0,1,0-.1.25.25,0,0,1,.15-.06.16.16,0,0,1,.14.07.16.16,0,0,1,0,.08l.13.1a.21.21,0,0,0,.08.06l-.11,0-.21.07-.26,0h0Zm2-6h0l-.33.08-.36,0a5,5,0,0,1-.77,0l-.38-.05-.38-.07L8,20.25l-.38-.11c-.9-.26-1.79-.58-2.69-.9l0,0H5l.08,0c.27-.06.29-.22.28-.28a.48.48,0,0,0-.18-.3.37.37,0,0,0-.11-.08v.11a.57.57,0,0,1-.06.24s-.08,0,0,0H5s0,0,0,0l-.12,0a2.09,2.09,0,0,1-.46-.17.59.59,0,0,1-.12-.06s0,0,0,0v0h0l.07,0,.22,0,.56,0a1.32,1.32,0,0,0-.5-.23l-.31-.05h0l0-.09V18a.07.07,0,0,1,0-.05h0l0,0s0,0,0,.05,0,0,0,0,.23,0,.36,0l.37,0h.28a1,1,0,0,0-.11.2.49.49,0,0,0,0,.12.22.22,0,0,0,.1.13.6.6,0,0,0,.32.07h.09a2.12,2.12,0,0,0,.36-.21.74.74,0,0,0,.26-.27,0,0,0,0,0,0,0h0a1.35,1.35,0,0,1-.34.17l-.31.09h0a.81.81,0,0,1,.16-.17,3.72,3.72,0,0,1,.51-.33l.26-.11s0,0,0,0a0,0,0,0,0,0,0h0a.17.17,0,0,1,0,.1A.65.65,0,0,1,6.5,18l0,0s0,0,0,0a.83.83,0,0,0,.12.17l.16.13a2.53,2.53,0,0,0,.37.18,5.78,5.78,0,0,0,.81.24c.52.14,1,.31,1.55.46a.33.33,0,0,0,.29-.05h0c.3-.25.57-.51.86-.77l.41-.39a4.38,4.38,0,0,1,.39-.36,3.72,3.72,0,0,1,.45-.33c.16-.1.32-.21.5-.3a6.47,6.47,0,0,1,1-.43l0,0a7.08,7.08,0,0,0,.82.24,8.08,8.08,0,0,0,.9.14l.45,0h.45a5.08,5.08,0,0,0,1.71-.38l2.43,1.78a3.91,3.91,0,0,0-.35-.61,3.26,3.26,0,0,0-.76-.8h0l1.1-1.19-1.58.9s0,0,0,0A2.19,2.19,0,0,0,18,16.6a4.65,4.65,0,0,0,.58-.34,3,3,0,0,0,.53-.53,1.61,1.61,0,0,0,.28-.61c0-.06,0-.11,0-.18a.38.38,0,0,0-.05-.17c-.07-.13-.12-.18-.17-.28a4,4,0,0,1-.42-1.14,2.55,2.55,0,0,1,0-.73l.49.05a10.42,10.42,0,0,0,1.49,0l1-.09c.35,0,.7-.1,1.07-.17l1.11-.23c.38-.08.76-.19,1.12-.26a2.1,2.1,0,0,1,.55,0,.37.37,0,0,1,.33.21,1.21,1.21,0,0,1-.08.77,6.37,6.37,0,0,1-.27.7c-.08.23-.14.45-.2.65a6.92,6.92,0,0,0-.18.67s0,0,0,0-.06,0-.08-.08l-.08,0a.88.88,0,0,0-.26-.09.5.5,0,0,0-.21,0,.41.41,0,0,0,0-.21.69.69,0,0,0-.25-.21l-.09,0-.17,0a1.09,1.09,0,0,0-.26,0,.43.43,0,0,0-.16-.13,1.59,1.59,0,0,0-.48-.15l-.12,0h-.18a.89.89,0,0,0-.36.07.8.8,0,0,0-.37.28L21.8,14a.54.54,0,0,0,0-.48.52.52,0,0,0-.34-.28,1.1,1.1,0,0,0-.49-.06,2,2,0,0,0-.38.08l-.17.06-.15.06-.29.17a.7.7,0,0,0-.2.22.63.63,0,0,0-.09.49,1.46,1.46,0,0,0,.18.46.71.71,0,0,0,.25.23,1.07,1.07,0,0,0,.38.1,1.91,1.91,0,0,0,.64-.06,3.81,3.81,0,0,0,.51.12l-.16.11-.19.16a.28.28,0,0,0,0,.21,1.51,1.51,0,0,1,.06.35.67.67,0,0,1-.16.28l-.25.28a7.93,7.93,0,0,0-.9,1.25s0,0,0,0a0,0,0,0,0,0,0,3.89,3.89,0,0,0,1.34-1.1,1.29,1.29,0,0,0,.18-.35.58.58,0,0,0,0-.41,2.11,2.11,0,0,1-.13-.34c0-.1.05-.17.19-.24l.87-.35.14,0h0l0,0,.12.09a1.39,1.39,0,0,0,.25.12c.14.07.27.11.38.16l-.07,0a1.18,1.18,0,0,1-.28,0l-.36.09h0s0,0,0,0,0,.07,0,.11a.17.17,0,0,1,0,.1.49.49,0,0,1-.3.16h0s0,0,0,0a.77.77,0,0,0,.51-.07.4.4,0,0,0,.13-.13,1.27,1.27,0,0,0,.43,0l.17,0,0,0-.06,0,0,0a.31.31,0,0,0-.09.16c0,.12.08.24.17.29a.91.91,0,0,0,.3.11l-.54.39a1,1,0,0,0-.32.32,3.41,3.41,0,0,1-.17.33l-.4.65c-.14.21-.27.43-.42.63a6.9,6.9,0,0,1-.47.6,3.19,3.19,0,0,1-.26.26,2.21,2.21,0,0,1-.32.22,3.17,3.17,0,0,1-.37.15,3.12,3.12,0,0,1-.44.09,3.86,3.86,0,0,1-.68,0,1.55,1.55,0,0,0-.14-.29,3.56,3.56,0,0,0-1-1.1,2.86,2.86,0,0,0-.64-.39s.13.21.34.52.45.71.67,1.12c.12.2.21.41.31.6l.25.54c.08.16.13.3.18.39a1.17,1.17,0,0,0,.07.15.13.13,0,0,0-.07.08.55.55,0,0,1-.2.31,2.55,2.55,0,0,1-.4.28,4.44,4.44,0,0,1-1,.4,4.69,4.69,0,0,1-1.12.19,3.24,3.24,0,0,1-.54,0,1.38,1.38,0,0,1-.26,0l-.13,0-.13,0c-.75-.19-1.51-.34-2.28-.48l-.54-.09a5.57,5.57,0,0,0-.8-.22,5.29,5.29,0,0,0-.79-.08l0,0h0a3.29,3.29,0,0,0,.23-.71,3.09,3.09,0,0,0,0-.73,1.08,1.08,0,0,0-.05-.21,12.57,12.57,0,0,0,1.09-.78C11.88,19.72,11.2,20,10.53,20.37Zm-6.28-1.8h0l0,0h0Zm.25-1.09h0a.19.19,0,0,1,.14,0h.08l.08,0c.14,0,.36.14.54.2a1.63,1.63,0,0,0,.26.09,1.9,1.9,0,0,0-.21.19v0a1.45,1.45,0,0,0-.21-.15,1.92,1.92,0,0,0-.78-.25Zm1.1.85h0S5.58,18.33,5.6,18.33Zm-.53-1.24H5.3s0,0,.06,0l0,0a4.52,4.52,0,0,1,.37.28l.17.12a2.61,2.61,0,0,0-.28.17.38.38,0,0,0,0-.18.92.92,0,0,0-.57-.45h0Zm.55-.85h0A1.33,1.33,0,0,1,5.81,16L5.88,16l.06,0a1.84,1.84,0,0,1,.16-.1,2.17,2.17,0,0,1,.72-.26,1.47,1.47,0,0,1,.86.12A.8.8,0,0,1,8,15.9a1,1,0,0,1,.07.15.68.68,0,0,1,0,.15.74.74,0,0,1,0,.29,1,1,0,0,1-.14.25.91.91,0,0,1-.55.3,2.22,2.22,0,0,1-.38,0H6.83s0,0,0,0a.29.29,0,0,0,0-.24.27.27,0,0,0-.13-.09l-.13-.05a1,1,0,0,0-.52,0,.78.78,0,0,0-.3.16l0,0A.57.57,0,0,1,5.62,16.24Zm.19.58h0a.71.71,0,0,1,.52.06l0,0s0,0,0,0,0,0,0,0a.86.86,0,0,1-.16.18l0,.06c0,.08,0,.16.1.21l-.14.05,0-.11A.58.58,0,0,0,5.81,16.82Zm.75.88h0s0,0,0,0h0A0,0,0,0,1,6.56,17.7Zm5-2.25h0a3.48,3.48,0,0,1-.38-.23.31.31,0,0,0,.13.06.57.57,0,0,0,.29,0,.26.26,0,0,0,.11-.1.1.1,0,0,0-.06-.14.22.22,0,0,1-.13-.28.69.69,0,0,0,0-.18s-.11-.13-.14-.13l-.09-.05-.16-.08A1.56,1.56,0,0,0,11,14.2h-.18a.17.17,0,0,0-.11.09.15.15,0,0,0,0,.12l.05.08h0l.05-.07s0-.05,0-.06,0,0,0,0,0,0,0,0l.11.08a.75.75,0,0,0,.2.09l.11,0s0,0,0,0,0,.1.06.15.11.22.17.34,0,0,0,0h0l-.09,0h0l0-.07,0-.08h0l-.07.07a.13.13,0,0,0,0,.11.11.11,0,0,0,0,.09l-.36-.27c-.29-.36-.46-.77-.21-.89s1,.3,1,.3c.08.37.54.59.54.59l-.08-.44.58.63a2,2,0,0,1-.44-1.4,2.51,2.51,0,0,1,1.07-1.63l-.34.83L14.7,11.7l-.78,1.4L15.17,12l-.22.93.7-.63-.27.58,1.08-1-.34,1,1.26-.53-.43.45,1.33-1.06-.52,1L19,11.86l-.14.31a1.4,1.4,0,0,0-.14.39h0l0,0a0,0,0,0,0,0,0l0,.16c0,.08,0,.16,0,.24a1.26,1.26,0,0,0-1.59.6c-.14.5.22.67.34,1s-.52.39-.52.39a.7.7,0,0,0,.68-.14c.26-.15.12-.22-.22-.59s0-.69.28-1,.86-.18,1-.16a2.62,2.62,0,0,0,0,.28,4.15,4.15,0,0,0,.25,1.19c0,.09.1.22.12.29s0,.08,0,.11a.7.7,0,0,1,0,.12,1.48,1.48,0,0,1-.31.5,3,3,0,0,1-.5.43,3.08,3.08,0,0,1-.62.34,4.06,4.06,0,0,1-.72.24,5,5,0,0,1-.79.13l-.19,0h-.21a2.94,2.94,0,0,1-.42,0,4.54,4.54,0,0,1-.81-.08,6.16,6.16,0,0,1-1.55-.45A5.35,5.35,0,0,1,11.58,15.45ZM21.88,15h0l-.08.05a4.29,4.29,0,0,0-.48-.36.32.32,0,0,0-.14,0h0a1.49,1.49,0,0,1,0-.21.34.34,0,0,1,0-.2.63.63,0,0,1,.09-.12.38.38,0,0,0-.21,0,.33.33,0,0,0-.24.29.41.41,0,0,0,.11.23l-.38,0h-.22a.44.44,0,0,1-.2-.07.41.41,0,0,1-.23-.35A.4.4,0,0,1,20,14.1a.61.61,0,0,1,.17-.15l.21-.1a1.23,1.23,0,0,1,.23-.08l.25-.06.23,0h.12a.11.11,0,0,1,.08,0,.76.76,0,0,1,.13.33v.07s0,.05.07.06a3.55,3.55,0,0,0,.47.09l0,0a.64.64,0,0,0-.06.34.63.63,0,0,0,.11.29Zm.82,0Zm-.16-.37h0a1.7,1.7,0,0,0-.29.12l-.14.1.13-.16.2-.22a.69.69,0,0,1,.23-.15l.12,0h.56a1.26,1.26,0,0,0-.32.22.55.55,0,0,0-.11.15A1,1,0,0,0,22.54,14.61Zm.64.14h0l0,0s0,0-.06,0h.15l.29-.05.28,0h.13l.24,0,.21.05a.68.68,0,0,0-.3.15.3.3,0,0,0-.11.24l.31,0a.42.42,0,0,1,.2,0s0,0,.07,0l.05,0h0s0,0,.06.05l.13.13,0,0a.76.76,0,0,0-.3,0l-.24.06a.34.34,0,0,0-.14-.21.78.78,0,0,0-.27-.14c-.16-.07-.32-.12-.46-.17l-.17-.07a.08.08,0,0,1-.06,0S23.15,14.72,23.18,14.75Zm2.32,1.37h0l0,0s0,0,0,0l0,.07a1.34,1.34,0,0,1-.19.26.32.32,0,0,1-.09.08.29.29,0,0,1-.11,0h-.17l-.2,0-.33-.07-.14,0a.86.86,0,0,0,.29.3.83.83,0,0,0,.21.12,1.36,1.36,0,0,0,.33.07h.07c0,.14,0,.42.09.79.08.52.22,1.21.35,1.89.07.34.13.68.17,1a1.41,1.41,0,0,0,0,.21c0,.07,0,.17,0,.22a1.45,1.45,0,0,0-.05.45,1.06,1.06,0,0,0,.22.64l.06.07h0a.85.85,0,0,0-.4,0,.67.67,0,0,0-.32.19c-.11.12-.17.21-.24.3L25,22.8l-.05.05-.12.09a2.25,2.25,0,0,1-.31.16l-.12,0a6.92,6.92,0,0,0-.69-.87c-.34-.34-.63-.68-1-1l-.17-.13L22.24,21,22,21a1.62,1.62,0,0,0-.3,0,2.08,2.08,0,0,0-.5.07,3.12,3.12,0,0,0-.43.15,4.29,4.29,0,0,0-.7.41l-.2.18v-.05h0a.16.16,0,0,0-.17-.11.2.2,0,0,0-.11,0s0-.06,0-.15a1.5,1.5,0,0,0,.06-.42,1,1,0,0,0,0-.29,1.21,1.21,0,0,0-.06-.31l-.06-.21a2.77,2.77,0,0,0,1.77-.08,1.88,1.88,0,0,0,.46-.25c.13-.1.24-.2.35-.3a3.69,3.69,0,0,0,.49-.67c.12-.23.24-.46.34-.69a5.83,5.83,0,0,0,.22-.71,3.59,3.59,0,0,0,.08-.35.57.57,0,0,1,.23-.27,2.8,2.8,0,0,1,.78-.45.1.1,0,0,0,.05,0c0-.05,0-.11-.07-.13h0a.92.92,0,0,1-.33-.17s0,0,0,0,0,0,0,0l.05,0s0,0,0,0l.36-.24a.81.81,0,0,1,.29-.15h.14l.08,0c.06,0,.09,0,.05.14a1.89,1.89,0,0,1-.53.53s0,0,0,0l0,0a3.27,3.27,0,0,0,.47-.18,1.17,1.17,0,0,0,.39-.28h0Zm.08.08h0l0,0S25.59,16.2,25.58,16.2ZM3,14.09ZM26.28,24.77a3.05,3.05,0,0,0,.49-.27.82.82,0,0,0,.33-.42s0,0,0,0h.07a.66.66,0,0,0,.27-.09l.12-.1a.31.31,0,0,0,.07-.14.65.65,0,0,0,0-.14.29.29,0,0,1,0-.13.18.18,0,0,0,0-.13.32.32,0,0,0-.12-.08.4.4,0,0,0-.15,0,.15.15,0,0,0,0-.13.32.32,0,0,0-.13-.1.6.6,0,0,0-.35,0,0,0,0,0,0,0,0,.57.57,0,0,0,.11.18l.05.05.08,0s0,.05,0,.08a.32.32,0,0,1-.14,0,1.24,1.24,0,0,0-.54.07,1.44,1.44,0,0,0-.25.14s0,0,0,0a.85.85,0,0,0,.3.1.67.67,0,0,0,.31,0l.16-.06a.4.4,0,0,0,.14-.11,1.13,1.13,0,0,1,.11-.11h0s0,.05,0,.06,0,0,.05,0l.12,0c.05,0,.09.05.08.07s0,0-.07.06a1.3,1.3,0,0,0-.35.12.59.59,0,0,0-.06-.14h0s0,0,0,0a.62.62,0,0,1-.08.31l0,.05h0a1,1,0,0,1-.34.27c-.15.07-.29.11-.5.2a.86.86,0,0,0-.4.44c-.15.27-.24.54-.36.77A.74.74,0,0,1,25,26a1,1,0,0,1-.49.06.88.88,0,0,1-.79-.47c-.06-.11,0-.26-.13-.43a1.24,1.24,0,0,0-.52-.34,3.89,3.89,0,0,0-.58-.18c-.19-.06-.39-.1-.49-.15a.31.31,0,0,1-.18-.21.51.51,0,0,1,0-.3.2.2,0,0,0-.1-.22.46.46,0,0,0-.48,0h0l-.18.1a1.23,1.23,0,0,1-.23.11,4.77,4.77,0,0,1-.5.19,9,9,0,0,1-1.11.3,10.92,10.92,0,0,1-1.28.16c.15-.07.28-.16.43-.24a4.64,4.64,0,0,0,.45-.28,2.71,2.71,0,0,0,.7-.74,2.35,2.35,0,0,0,.33-.81,2,2,0,0,0,.06-.55c.4-.19.78-.37,1.17-.51l.36-.11.36-.06s.15,0,.13,0h.22l.13,0,.17.07a2.1,2.1,0,0,1,.95,1c.1.18.18.38.27.57l.26.56a.36.36,0,0,0,.38.13h0a3.8,3.8,0,0,0,.51-.14,2.38,2.38,0,0,0,.45-.23,1,1,0,0,0,.19-.16l.08-.1,0-.07c.08-.11.14-.22.19-.3s0,0,0,0h.13a.08.08,0,0,1,.05.07.29.29,0,0,1-.07.25,1,1,0,0,1-.28.25,0,0,0,0,0,0,0,0,0,0,0,0,0,0,.87.87,0,0,0,.69-.48l.05.07s0,0,.06.05l.12,0s.08.05.08.07,0,0-.08.06a.85.85,0,0,0-.43.17.88.88,0,0,0-.15.18s0,0,0,0a1.07,1.07,0,0,0,.32,0,.66.66,0,0,0,.27-.09l.12-.1a.25.25,0,0,0,.06-.14.38.38,0,0,0,0-.15.49.49,0,0,1,0-.12.22.22,0,0,0,0-.14.29.29,0,0,0-.12-.07.49.49,0,0,0-.28,0,.32.32,0,0,0-.06-.15.55.55,0,0,0-.16-.11l0,0a.32.32,0,0,1-.05-.13,1.24,1.24,0,0,1,0-.6,2.3,2.3,0,0,1,.15-.38c0-.1.05-.16.07-.24a1.24,1.24,0,0,0,0-.27,3,3,0,0,0,0-.52c0-.18-.05-.35-.08-.53a8.81,8.81,0,0,0-.62-1.88,6.6,6.6,0,0,0-.4-.74.76.76,0,0,0,.3-.05.91.91,0,0,0,.31-.19.72.72,0,0,0,.21-.44.41.41,0,0,0,0-.11.2.2,0,0,0,0-.05A.19.19,0,0,0,26,16a.78.78,0,0,0-.28-.12l-.33,0a.22.22,0,0,0,0-.14.35.35,0,0,0-.16-.26l0,0a6.38,6.38,0,0,0,.65-1.14,5.08,5.08,0,0,0,.23-.66,2.7,2.7,0,0,0,.06-.76,3.37,3.37,0,0,0-.07-.82.57.57,0,0,0-.46-.34,2.42,2.42,0,0,0-.65,0c-.43,0-.82.06-1.21.11L22.6,12l-2,.32-.79.13-.62.08-.4.05h-.06V12.5a3.31,3.31,0,0,0,.58-1c.4-.87-.47-1.81-1.43-2.33a6.64,6.64,0,0,0-4.14-.63c-2.24.16-4.3,1.76-4.56,3.28a2.7,2.7,0,0,0,.36,2c.19.29.39.5.5.66.25.41,1,1.45,1,1.45v-.45l.57.77v-.42l.34.46-.12-.48a6.24,6.24,0,0,0,.91.54,5.05,5.05,0,0,0,.53.24,5.4,5.4,0,0,0-1.09.23,4.86,4.86,0,0,0-.8.36L9.16,16l1.77,1.46-.21.16,0,0L8.9,17.39l1.46.57-.25.26c-.22.24-.44.47-.65.71-.49-.07-1-.14-1.46-.23a2.74,2.74,0,0,1-.75-.22A.82.82,0,0,1,7,18.29a.44.44,0,0,1-.08-.11l0-.05A1.7,1.7,0,0,0,7,17.9a.37.37,0,0,0,0-.37,1.93,1.93,0,0,0,.47-.05A1.52,1.52,0,0,0,8,17.27a1.25,1.25,0,0,0,.34-.35.79.79,0,0,0,0-.77A.93.93,0,0,0,8.32,16a1.79,1.79,0,0,0-.14-.15,1.67,1.67,0,0,0-.38-.25,2.78,2.78,0,0,0-1-.26,2.72,2.72,0,0,0-.57,0,1.49,1.49,0,0,0-.51.19.69.69,0,0,0-.2.14l-.09.07-.08.09a.71.71,0,0,0-.18.38.58.58,0,0,0,.24.53.56.56,0,0,0-.19,0L5,16.79a.59.59,0,0,0-.17.1.18.18,0,0,0-.08.16h-.2l-.13,0c-.22.07-.3.23-.29.32a.26.26,0,0,0,.07.16,1,1,0,0,0-.26.06.37.37,0,0,0-.2.14l0,0a.19.19,0,0,0,0,.08.35.35,0,0,0,.2.35l0,0a.22.22,0,0,0-.11.05l-.11.08,0,.07a.26.26,0,0,0,0,.26A.79.79,0,0,0,4,19l.06,0H4s-.58.3-.56.45a.66.66,0,0,0,.69.45c.27,0,.56-.36.73-.6a11.48,11.48,0,0,0,1,.59,12.77,12.77,0,0,0,1.46.61c.13,0,.26.09.4.12l.41.11a4.79,4.79,0,0,0,.87.14,4,4,0,0,0,.92,0,3.54,3.54,0,0,0,.45-.08,2,2,0,0,0,.45-.15h0l.32-.2a1.89,1.89,0,0,0-.26.65,1.48,1.48,0,0,0,0,.63l-.64-.18A20,20,0,0,0,8.2,21.1a19.34,19.34,0,0,0-2.15-.23l-.71,0H5.07l.27,0c.17,0,.41,0,.7.07a18,18,0,0,1,2.07.37,19.4,19.4,0,0,1,2,.56l.19.07L10,22a.34.34,0,0,0-.25-.08L7.05,22l2,.28a1.3,1.3,0,0,0-.73.66,1.12,1.12,0,0,0,.05.85,4,4,0,0,0,.78,1.06l.1.1-.1,0a2.28,2.28,0,0,0-.54,0,.83.83,0,0,0-.51.22.38.38,0,0,0-.12.17.28.28,0,0,0,0,.18.39.39,0,0,0,.18.28.65.65,0,0,0,.24.09l-.13,0-.07,0H8l0,.05a.25.25,0,0,0-.08.25.36.36,0,0,0,.15.19.71.71,0,0,0,.32.07.22.22,0,0,0-.09.07.26.26,0,0,0,0,.31.61.61,0,0,0,.2.14,11,11,0,0,1-1.17.26c-.44.07-1,.14-1.6.19s-1.36.11-2.08.09l-.22,0s0,0,0,0a.65.65,0,0,1,.06-.31,5.6,5.6,0,0,0,.26-.9,4.51,4.51,0,0,0-.1-2,12.4,12.4,0,0,0-.82-2,5.77,5.77,0,0,1-.54-2.06,4.48,4.48,0,0,1,.35-2.09,9.77,9.77,0,0,1,1.14-1.9c.1-.16.21-.31.29-.47a.85.85,0,0,0,.11-.26.74.74,0,0,0,.06-.27v-.12a1.3,1.3,0,0,0,0-.15,1,1,0,0,0-.11-.27,1.4,1.4,0,0,0-.52-.43,3.15,3.15,0,0,0-.5-.19L3.15,14a1.28,1.28,0,0,1,.23-.14l.22-.1a2.58,2.58,0,0,1,.49-.17,14.76,14.76,0,0,1,2-.36c.62-.08,1.17-.11,1.63-.15L9.16,13l0,0s0,0,0,0-.53,0-1.45-.05c-.46,0-1,0-1.66.06a12.14,12.14,0,0,0-2.15.3,4.43,4.43,0,0,0-.59.18c-.1,0-.19.08-.29.14l-.25.14a1.17,1.17,0,0,0-.27.2c0,.07-.12.12-.06.26a.36.36,0,0,0,.23.19c.26.1.42.13.58.2a.82.82,0,0,1,.5.67.53.53,0,0,1,0,.22.65.65,0,0,1-.07.21,3.23,3.23,0,0,1-.21.47c-.34.63-.73,1.27-1,2a5.88,5.88,0,0,0-.51,2.13A6.63,6.63,0,0,0,2,21.28a8.11,8.11,0,0,0,.3,1.07c.13.35.29.68.41,1a5.82,5.82,0,0,1,.3,1,4.91,4.91,0,0,1,.09,1.86,6.48,6.48,0,0,1-.21.87.73.73,0,0,0,0,.53.57.57,0,0,0,.4.25,1.73,1.73,0,0,0,.37,0A16.08,16.08,0,0,0,5.8,27.7a15,15,0,0,0,1.61-.31A8.5,8.5,0,0,0,8.62,27h.14l0,0c-.11.14,0,.34.19.42l.08,0h.07l0,0,.24.06a6.14,6.14,0,0,0,2.09-.05l1.07-.19a1.8,1.8,0,0,0,1.1-.46.48.48,0,0,0,.09-.19,1.68,1.68,0,0,0,.3,0,5.65,5.65,0,0,0,1.16,0,5.36,5.36,0,0,0,.76-.11,5.94,5.94,0,0,0,.78-.26,7.06,7.06,0,0,1,.81-.29,6.1,6.1,0,0,1,.89-.17c.3,0,.61-.07.9-.12l.87-.13.8-.1c.25,0,.49-.07.7-.08s.41,0,.6,0h.5l.44,0h0s0,0,0,0l-.41-.11-.48-.09a4.43,4.43,0,0,0-.66-.1,7.41,7.41,0,0,0-1.65.14c-.29.05-.58.12-.87.19a6.28,6.28,0,0,0-.87.27,9.52,9.52,0,0,1-1.7.46c-.28.05-.56.07-.81.11l-.71.12-1.34.24a.55.55,0,0,0,0-.18.87.87,0,0,0-.26-.38,2.47,2.47,0,0,1-.6-.62.32.32,0,0,1,0-.14h.44l.38,0a7.37,7.37,0,0,0,.82.13c.2,0,.41,0,.61,0s.42,0,.62,0a5.65,5.65,0,0,0,1.18-.28,6.8,6.8,0,0,0,.72-.32,9.66,9.66,0,0,0,1.7,0,7.71,7.71,0,0,0,1.26-.21,3.82,3.82,0,0,0,.6-.19v0a.84.84,0,0,0,.5.45,3.76,3.76,0,0,0,.63.15l.56.11a1.07,1.07,0,0,1,.43.18c.09.06.1.22.19.36a1,1,0,0,0,.38.37,1.79,1.79,0,0,0,.59.2,1.82,1.82,0,0,0,.32,0,.84.84,0,0,0,.38,0,1.18,1.18,0,0,0,.51-.35,2.53,2.53,0,0,0,.46-.8A1.63,1.63,0,0,1,26.28,24.77Z"/><path class="cls-6" d="M15.53,13.38l.21.11s.08-.31-.89-.24a3.41,3.41,0,0,0-1.8.85s1.86-1,2.48-.72"/><path class="cls-6" d="M14.65,14.22c.3.07.62-.08.57-.18a.47.47,0,0,1-.05-.17h.21s0-.18-.39-.12a11.45,11.45,0,0,0-1.23.36l.73-.1s-.13.15.16.22"/><path class="cls-6" d="M18.1,13.76c.06-.12-.15-.15,0-.17a.94.94,0,0,1,.35.08c.06-.24-.43-.18-.74-.09s-.29.18-.29.18c.38-.09.05.13.29.19a.34.34,0,0,0,.43-.19"/><path class="cls-6" d="M15.61,15.78A2.28,2.28,0,0,0,17,15.69c.2-.18.14-.32.35-.41a5.17,5.17,0,0,1-1.45.2c-.67,0-1.23-.1-1.23-.1a1.37,1.37,0,0,0,.91.4"/><path class="cls-6" d="M15.93,16.05c-.57-.14-.93,0-.67.14s1.27,0,.67-.14"/><path class="cls-6" d="M12.68,15.13l0,0Z"/><path class="cls-6" d="M27.67,25.36h0s0,0,0,0m.61-.11,0-.07-.06-.12c0-.09-.1-.16-.14-.24a2.81,2.81,0,0,0-.29-.42A2.54,2.54,0,0,0,27.4,24a1.69,1.69,0,0,0,0,.46,3,3,0,0,0,.11.46,1.21,1.21,0,0,0,.08.25l0,.11h0a2.91,2.91,0,0,1-.32,0l-.64,0c-.39,0-.66.06-.66.06a3.92,3.92,0,0,0,.62.19,5.33,5.33,0,0,0,.67.1,2.06,2.06,0,0,0,.43,0,1.38,1.38,0,0,0,.26,0l.17-.07a.47.47,0,0,0,.15-.17A.39.39,0,0,0,28.28,25.25Z"/><path class="cls-6" d="M2.51,4.25A1.54,1.54,0,0,1,2,4.31,1.06,1.06,0,0,1,.86,3.14,1.14,1.14,0,0,1,2.08,1.91,1,1,0,0,1,2.51,2l-.09.22a1.18,1.18,0,0,0-.35,0c-.37,0-.8.25-.8,1s.39,1,.81,1A1.19,1.19,0,0,0,2.45,4Z"/><path class="cls-6" d="M3.08,3.44h0c0,.28.07.67.43.67s.4-.4.4-.67-.07-.66-.41-.66-.42.4-.42.66m1.23,0a.8.8,0,0,1-.82.88.78.78,0,0,1-.81-.87.8.8,0,0,1,.83-.88A.78.78,0,0,1,4.31,3.44Z"/><path class="cls-6" d="M5.85,3.18h0a.23.23,0,0,0,0-.12.35.35,0,0,0-.35-.26c-.29,0-.45.26-.45.64s.2.63.45.63a.36.36,0,0,0,.35-.24.47.47,0,0,0,0-.16Zm.41-.59c0,.12,0,.27,0,.53v1c0,.44-.08.61-.24.73A1.08,1.08,0,0,1,5.34,5a1.68,1.68,0,0,1-.55-.08l.1-.21a1.53,1.53,0,0,0,.46.07c.31,0,.5-.13.5-.52V4.08h0a.52.52,0,0,1-.47.21.75.75,0,0,1-.73-.84.8.8,0,0,1,.78-.88.51.51,0,0,1,.46.22h0l0-.2Z"/><path class="cls-6" d="M7.84,3.27h0c0-.34-.17-.49-.36-.49s-.39.26-.41.49Zm-.77.2c0,.52.3.63.59.63A1.06,1.06,0,0,0,8.06,4l.07.2a1.52,1.52,0,0,1-.55.08.8.8,0,0,1-.9-.85.81.81,0,0,1,.84-.89.67.67,0,0,1,.7.75v.15Z"/><path class="cls-6" d="M10.93,3.83c0,.19,0,.34,0,.46h-.35l0-.18h0a.74.74,0,0,1-.54.21c-.43,0-.6-.23-.6-.65V2.59h.39v1c0,.27.07.46.34.46a.34.34,0,0,0,.35-.22.41.41,0,0,0,0-.16V2.59h.39Z"/><path class="cls-6" d="M11.49,3c0-.2,0-.3,0-.44h.34l0,.21h0a.71.71,0,0,1,.57-.23.54.54,0,0,1,.6.58V4.29h-.4V3.2c0-.2,0-.41-.34-.41a.38.38,0,0,0-.37.28.68.68,0,0,0,0,.15V4.29h-.39Z"/><path class="cls-6" d="M14.65,3.44h0c0,.28.07.67.43.67s.4-.4.4-.67-.06-.66-.41-.66-.42.4-.42.66m1.23,0a.79.79,0,0,1-.82.88.78.78,0,0,1-.81-.87.8.8,0,0,1,.83-.88A.78.78,0,0,1,15.88,3.44Z"/><path class="cls-6" d="M16.71,3.69h0a.2.2,0,0,0,0,.11.39.39,0,0,0,.36.3c.32,0,.44-.3.44-.66s-.12-.64-.44-.64a.41.41,0,0,0-.37.3.49.49,0,0,0,0,.12Zm-.41.6c0-.1,0-.29,0-.4v-2h.39v.93h0a.63.63,0,0,1,.52-.22c.39,0,.68.3.68.86s-.37.89-.75.89a.51.51,0,0,1-.49-.25h0l0,.22Z"/><path class="cls-6" d="M17.94,4.78h0a.67.67,0,0,0,.34-.13c.08-.09.11-.22.11-.54V2.59h.4V4.18c0,.36-.08.53-.25.65A1,1,0,0,1,18,5Zm.88-2.62c0,.1-.09.17-.24.17s-.23-.07-.22-.17.1-.18.23-.18S18.82,2.05,18.82,2.16Z"/><path class="cls-6" d="M20.38,3.27h0c0-.34-.18-.49-.37-.49s-.39.26-.4.49Zm-.78.2c0,.52.3.63.59.63A1.12,1.12,0,0,0,20.6,4l.06.2a1.5,1.5,0,0,1-.54.08.8.8,0,0,1-.9-.85.81.81,0,0,1,.83-.89.68.68,0,0,1,.71.75.66.66,0,0,1,0,.15Z"/><path class="cls-6" d="M21.66,2.14v.45h.48V2.8h-.48v1c0,.22.12.28.26.28h.16l0,.21-.29,0a.6.6,0,0,1-.39-.1c-.1-.08-.15-.19-.15-.43v-1H21V2.59h.3V2.22Z"/><path class="cls-6" d="M22.73,3.44h0c0,.28.08.67.43.67s.41-.4.41-.67-.07-.66-.42-.66-.42.4-.42.66m1.24,0a.8.8,0,0,1-.83.88.78.78,0,0,1-.8-.87.8.8,0,0,1,.83-.88A.78.78,0,0,1,24,3.44Z"/><path class="cls-6" d="M26.27,3.27h0c0-.34-.18-.49-.37-.49s-.39.26-.41.49Zm-.78.2c0,.52.3.63.59.63a1.06,1.06,0,0,0,.4-.07l.07.2a1.52,1.52,0,0,1-.55.08.8.8,0,0,1-.9-.85.81.81,0,0,1,.84-.89.67.67,0,0,1,.7.75v.15Z"/><path class="cls-6" d="M27.07,3c0-.2,0-.3,0-.44h.34l0,.21h0A.71.71,0,0,1,28,2.57a.54.54,0,0,1,.6.58V4.29h-.4V3.2c0-.2-.05-.41-.34-.41a.38.38,0,0,0-.37.28.68.68,0,0,0,0,.15V4.29h-.39Z"/><path class="cls-6" d="M2.18,7.41a1.37,1.37,0,0,1-.41.06.82.82,0,0,1-.91-.86.89.89,0,0,1,1-.88,1.08,1.08,0,0,1,.35,0L2.11,6a.77.77,0,0,0-.28,0,.59.59,0,0,0-.57.66.56.56,0,0,0,.58.64.88.88,0,0,0,.29,0Z"/><path class="cls-6" d="M3.45,6.57h0c-.2,0-.68,0-.68.4a.29.29,0,0,0,.31.3A.35.35,0,0,0,3.44,7a.31.31,0,0,0,0-.09Zm.06.88,0-.18h0A.62.62,0,0,1,3,7.48.53.53,0,0,1,2.39,7c0-.42.5-.61,1-.61V6.32c0-.22-.08-.38-.39-.38A1.07,1.07,0,0,0,2.64,6l-.09-.18a1.33,1.33,0,0,1,.58-.12c.5,0,.71.23.71.61v.73a1.63,1.63,0,0,0,0,.39Z"/><path class="cls-6" d="M5.5,6.4h0a.49.49,0,0,0,0-.12A.39.39,0,0,0,5.12,6c-.33,0-.44.32-.44.66s.13.64.42.64A.38.38,0,0,0,5.48,7a.36.36,0,0,0,0-.11ZM5.88,5V7c0,.12,0,.31,0,.41H5.57l0-.21h0A.63.63,0,0,1,5,7.48c-.42,0-.72-.31-.72-.87s.36-.89.74-.89a.53.53,0,0,1,.46.21h0V5Z"/><path class="cls-6" d="M7.36,6.57h0c-.21,0-.68,0-.68.4a.28.28,0,0,0,.3.3A.37.37,0,0,0,7.35,7a.31.31,0,0,0,0-.09Zm0,.88,0-.18h0a.62.62,0,0,1-.49.21A.53.53,0,0,1,6.29,7c0-.42.5-.61,1.06-.61V6.32c0-.22-.09-.38-.4-.38A1.07,1.07,0,0,0,6.54,6l-.08-.18A1.29,1.29,0,0,1,7,5.72c.49,0,.71.23.71.61v.73a2.42,2.42,0,0,0,0,.39Z"/><path class="cls-6" d="M9.1,6.19c0-.2,0-.3,0-.44h.34l0,.21h0A.68.68,0,0,1,10,5.72a.54.54,0,0,1,.52.26h0a.67.67,0,0,1,.25-.19.71.71,0,0,1,.34-.07.54.54,0,0,1,.59.6V7.45h-.39V6.39c0-.22,0-.44-.34-.44a.39.39,0,0,0-.37.25.81.81,0,0,0,0,.16V7.45h-.39V6.34c0-.19-.05-.39-.35-.39a.37.37,0,0,0-.36.28.59.59,0,0,0,0,.14V7.45H9.1Z"/><path class="cls-6" d="M13.2,6.57h0c-.21,0-.69,0-.69.4a.29.29,0,0,0,.31.3A.37.37,0,0,0,13.19,7a.31.31,0,0,0,0-.09Zm.05.88,0-.18h0a.62.62,0,0,1-.49.21A.53.53,0,0,1,12.13,7c0-.42.5-.61,1.06-.61V6.32c0-.22-.09-.38-.4-.38a1.07,1.07,0,0,0-.41.08l-.09-.18a1.36,1.36,0,0,1,.58-.12c.5,0,.71.23.71.61v.73a1.63,1.63,0,0,0,0,.39Z"/><path class="cls-6" d="M14.14,6.19c0-.2,0-.3,0-.44h.34l0,.2h0a.74.74,0,0,1,.57-.23.54.54,0,0,1,.6.59V7.45h-.4V6.35c0-.2,0-.4-.34-.4a.38.38,0,0,0-.37.28.61.61,0,0,0,0,.15V7.45h-.39Z"/><path class="cls-6" d="M16.5,6.6h0c0,.28.07.66.43.66s.4-.4.4-.66-.07-.66-.41-.66-.42.4-.42.66m1.23,0a.8.8,0,0,1-.82.88.78.78,0,0,1-.81-.88.8.8,0,0,1,.83-.88A.78.78,0,0,1,17.73,6.6Z"/><path class="cls-6" d="M9.78,13.82A9.3,9.3,0,0,1,10.67,16a10.5,10.5,0,0,1-.09,1.17l.69-.68v.64l.24-.54.13.46.39-.58v.48a8.26,8.26,0,0,0,.93-.23,2.78,2.78,0,0,1,.46-.15,11.27,11.27,0,0,1-3-1.85c-.55-.77-.62-.89-.62-.89"/></svg>