<svg id="Capa_1" data-name="Capa 1" xmlns="http://www.w3.org/2000/svg" viewBox="0 0 30.93 27.84"><defs><style>.cls-1{fill:#ffd82c;}.cls-2{fill:#f5a4c7;}.cls-3{fill:#fbc9b5;}.cls-4{fill:#231f20;}.cls-5{fill:#fccdb5;}</style></defs><title>3-6meses</title><path class="cls-1" d="M2,10.76s-1.23,0-1,.56,1.79,1.1,2.56,1,.7-.26.55-.64-.3-.58,0-.84.32-.62.14-.75a1.34,1.34,0,0,0-1.36,0c-.53.35-.43.58-.83.62"/><path class="cls-2" d="M9,14a5,5,0,0,1,3.19-.71c2,.16,4.59.82,6,.64l2.23-.3.37,1.74a14.65,14.65,0,0,1-3.68.46c-1.32-.13-3.6-.77-4.57-.78a7.7,7.7,0,0,0-3.09.72Z"/><path class="cls-2" d="M5,21.52s-1.35,1.83-.84,2,1,1,1.56,1.07a9.76,9.76,0,0,0,3.52-1.14c.5-.43.39-2.36.39-2.36Z"/><path class="cls-3" d="M4,21.19a1.29,1.29,0,0,0-.22.6,3.42,3.42,0,0,1,0,.49s-1.91,0-2.11.27a1.24,1.24,0,0,0,0,1.21c.21.27.57.65.57.65s-.66,0-.74.15.05.24,0,.43a.8.8,0,0,0,.2.6,2.18,2.18,0,0,0,.67.58,10.79,10.79,0,0,0,2.77-.51c.11-.15.06-.34-.23-.61a1,1,0,0,1-.31-.52,3.35,3.35,0,0,0,1-.19c.48-.17.82-.51.5-1a3.35,3.35,0,0,0-1-.84,6.67,6.67,0,0,0,2.38.39,6.3,6.3,0,0,0,1.81-.55c.5-.31.24.11.2.35a2.93,2.93,0,0,1-1,1.07,1.33,1.33,0,0,0-.4.31,6.27,6.27,0,0,0,1.46,0c.47-.13,1.19-.37,1.19-.37a1.17,1.17,0,0,0,.76.55c.54.12.72.25.88.71,0,0,.8.4,1.22,0s.24-.93.67-1.1.31-.28.55-.37.49-.23.31-.31,0-.15-.21-.16-.2-.09-.36-.23a.71.71,0,0,0-.63-.31c-.4,0-.5.25-.51.31s-.39.44-.63.29-.21-.16-.17-.16A2.71,2.71,0,0,0,13,22.7c.14-.08.44-.15.32-.29s-.09-.2-.13-.39-.72-.06-1.06-.36-.72-.36-1.09-.72a14,14,0,0,1-1.53-1.55c-.32-.48-.24-.66-.52-.67a3.55,3.55,0,0,1-.66-.11A3.24,3.24,0,0,1,9,18c.39-.3.79-.71.79-1S9.28,16.33,9,16s-.69-.77-.61-1.18.2-.73-.35-.81a9.22,9.22,0,0,0-1.88-.24c-.93,0-1.1,0-1.51.42a8.24,8.24,0,0,0-1,1.09c-.27.4-.89,1.16-.55,1.61s.46,1.15,1,1.35.62.09.62.09Z"/><path class="cls-4" d="M1.87,25.09a0,0,0,0,0,0,0,0,0,0,0,0,0,0h0v0"/><path class="cls-4" d="M1.61,25.16h0s0,0,0,0h0s0,0,0,0h0Z"/><path class="cls-4" d="M6.65,24.37h0a2.44,2.44,0,0,1-.39.06c-.13,0-.26,0-.4,0H5.61a1.3,1.3,0,0,0,.54-.24.52.52,0,0,0,.14-.61,1.68,1.68,0,0,0-.42-.6,2.47,2.47,0,0,0-.29-.24c.36.09.71.17,1.07.23l.11,0h.35a3.28,3.28,0,0,0,.46,0,6.55,6.55,0,0,0,.82-.21,6.17,6.17,0,0,0,.75-.3,1.28,1.28,0,0,0,.25-.15.66.66,0,0,1-.06.2,2.49,2.49,0,0,1-.27.51,1.81,1.81,0,0,1-.45.42l-.29.18L8,23.82a4.22,4.22,0,0,1-1.35.55M5,24.49H5l-.31,0c0-.11,0-.23,0-.34a.87.87,0,0,0-.06-.5A1.37,1.37,0,0,0,4,23.13,1.67,1.67,0,0,0,3.6,23h0s0,0,0,0a2,2,0,0,1,.26.18,1.36,1.36,0,0,1,.45.54,1.29,1.29,0,0,1,0,.41,1.22,1.22,0,0,0,0,.26.54.54,0,0,0,.13.28c.17.17.39.28.54.43s.18.34,0,.44a1.22,1.22,0,0,1-.65.16c-.28,0-.54.06-.79.09a7,7,0,0,1-1.3.08H2.14l-.07,0,0,0c0-.05.14-.11.22-.13a.17.17,0,0,1,.18,0l0,.05h0a.13.13,0,0,0,0-.08.29.29,0,0,0-.27-.13l-.23,0-.08-.1-.05-.05,0,0s0,0,0,.05-.05,0,0-.05a.07.07,0,0,1,.06-.06.14.14,0,0,1,.11,0l.07.06H2.2l.08,0h0a.13.13,0,0,0,.07-.06c0-.05,0-.13-.1-.18a.25.25,0,0,0-.15-.05.2.2,0,0,0,.12-.17v0l0-.06a.31.31,0,0,0-.09-.07.46.46,0,0,0-.2,0l-.17,0H1.66s0,0,0,0a.5.5,0,0,1-.08-.08.11.11,0,0,1,0-.16l0,0,0,0a.51.51,0,0,1,.1,0l.2,0h.12a.2.2,0,0,1,.12,0l.33.08.33,0c.11,0,.18,0,.26,0h.24l.36-.05.15,0h0a0,0,0,0,0,0,0,1.35,1.35,0,0,0-.51-.14,1.22,1.22,0,0,0-.27,0,1,1,0,0,0-.29.09.44.44,0,0,1-.25,0,.38.38,0,0,1-.21-.12.53.53,0,0,0-.13-.1l-.1-.14a2.76,2.76,0,0,1-.37-.77.72.72,0,0,1,0-.5.84.84,0,0,1,.52-.35,3.81,3.81,0,0,1,.86-.11,4.09,4.09,0,0,1,.93.05,3.07,3.07,0,0,1,1.49.68,2,2,0,0,1,.43.5.37.37,0,0,1,0,.45,1.06,1.06,0,0,1-.48.26l-.25.07H5s0,0,0,0,0,0,0,0h0Zm-3.36.84h0s0-.11,0-.16,0,0,0,0h0l0,0h0a.13.13,0,0,1,0-.07A.16.16,0,0,1,1.77,25a.14.14,0,0,1,.1.05.08.08,0,0,1,0,.06l.09.07.06.05-.08,0a.44.44,0,0,1-.15.05Zm11.55-2.88h0a0,0,0,0,1,0,0S13.15,22.46,13.17,22.45Zm2.09.78a.13.13,0,0,0,0-.09.18.18,0,0,0-.09-.06l-.1,0A.09.09,0,0,0,15,23s-.06,0-.09-.07a.34.34,0,0,0-.24,0l0,0a.56.56,0,0,0,.08.14l0,0h.06a0,0,0,0,1,0,.06l-.1,0a.79.79,0,0,0-.56.15s0,0,0,0a.72.72,0,0,0,.22.07.42.42,0,0,0,.22,0l.12,0a.39.39,0,0,0,.1-.08s0-.06.08-.08h0l0,0s0,0,0,0l.08,0s.06,0,.06,0,0,0-.05,0a.81.81,0,0,0-.25.09.16.16,0,0,0,0-.1h0a0,0,0,0,0,0,0,.38.38,0,0,1-.06.22l0,0h0a.69.69,0,0,1-.25.19,2.62,2.62,0,0,1-.36.15.69.69,0,0,0-.28.31c-.11.2-.17.39-.26.56a.44.44,0,0,1-.18.2.75.75,0,0,1-.35,0,.61.61,0,0,1-.57-.33c0-.08,0-.19-.09-.31A.85.85,0,0,0,12,24.2a2.41,2.41,0,0,0-.41-.13,2.66,2.66,0,0,1-.36-.11.24.24,0,0,1-.13-.15.5.5,0,0,1,0-.21.14.14,0,0,0-.07-.16.34.34,0,0,0-.35,0h0a.49.49,0,0,1-.13.08l-.16.08a3.82,3.82,0,0,1-.36.13,6.23,6.23,0,0,1-.8.22,8.71,8.71,0,0,1-.91.11l.3-.17a2.9,2.9,0,0,0,.33-.2,2.07,2.07,0,0,0,.5-.53,1.83,1.83,0,0,0,.24-.58,1.72,1.72,0,0,0,0-.39c.28-.13.56-.26.84-.36l.25-.08.26-.05h.25l.09,0,.12.05a1.51,1.51,0,0,1,.68.69c.07.13.13.27.19.41l.19.4a.25.25,0,0,0,.27.09h0l.36-.1a1.48,1.48,0,0,0,.33-.17A.69.69,0,0,0,13.7,23l.06-.07,0-.05c0-.08.09-.16.13-.21s0,0,0,0,0,0,0,0h0s0,0,0,.05a.21.21,0,0,1-.06.17.55.55,0,0,1-.19.18v0h0a.67.67,0,0,0,.5-.35l0,.06,0,0,.08,0s.06,0,.06.05,0,0-.06,0a.7.7,0,0,0-.3.12.56.56,0,0,0-.11.13s0,0,0,0a.7.7,0,0,0,.23,0,.35.35,0,0,0,.19-.06l.09-.07a.18.18,0,0,0,0-.1.17.17,0,0,0,0-.1.34.34,0,0,1,0-.1.11.11,0,0,0,0-.09.24.24,0,0,0-.08-.06.35.35,0,0,0-.2,0,.17.17,0,0,0,0-.11l-.11-.08-.13,0a.53.53,0,0,0-.29,0,.52.52,0,0,0-.22.14,2.59,2.59,0,0,0-.18.21l0,.05,0,0-.09.07L13,23l-.09,0-.11-.16a.54.54,0,0,0,.37-.19h.14a.19.19,0,0,0,.12-.13.17.17,0,0,0-.07-.15.44.44,0,0,0-.15-.09l0,.13s0,0,0,.05h-.33l-.11,0,0,0s0,.07.05.14a.42.42,0,0,0,.16.09l.11,0h.1l-.34.14a3.31,3.31,0,0,0-.35-.41c-.24-.24-.45-.49-.72-.73l-.12-.09-.18-.08-.15,0a.8.8,0,0,0-.21,0,1.36,1.36,0,0,0-.36,0l-.31.11a2.43,2.43,0,0,0-.5.29.69.69,0,0,1-.13.11.76.76,0,0,0,.08-.2,1.28,1.28,0,0,0,.06-.23,2.06,2.06,0,0,0,0-.26,1.91,1.91,0,0,0-.06-.57,2,2,0,0,0-.23-.54,2.23,2.23,0,0,0-.34-.44,1.83,1.83,0,0,0-.47-.37s.11.18.24.44.13.29.19.45a7.87,7.87,0,0,1,.17.52,4.76,4.76,0,0,1,.1.52l0,.25a1.8,1.8,0,0,1,0,.22.45.45,0,0,1,0,.11.12.12,0,0,0-.1.08c0,.06-.07.14-.14.22a1.21,1.21,0,0,1-.29.19,2.79,2.79,0,0,1-.71.29,3.63,3.63,0,0,1-.8.14H7.14l-.19,0-.08,0-.1,0c-.53-.14-1.08-.25-1.63-.35l-.39-.06a3.41,3.41,0,0,0-.57-.16l-.35,0v-.05A.34.34,0,0,1,3.89,22L4,21.89A.76.76,0,0,0,4,21.78a.65.65,0,0,0,.06-.44.5.5,0,0,0-.08-.2,1.15,1.15,0,0,0-.17.17,2.25,2.25,0,0,0-.24.36.31.31,0,0,1,0,.1.83.83,0,0,0,0,.12.23.23,0,0,0,0,.14.2.2,0,0,0,.06.09H3.12a3.74,3.74,0,0,0-1,.16,1.06,1.06,0,0,0-.68.53.79.79,0,0,0,0,.61,2.76,2.76,0,0,0,.55.76l.08.07-.07,0a1.63,1.63,0,0,0-.39,0,.63.63,0,0,0-.37.16.25.25,0,0,0-.08.12.19.19,0,0,0,0,.13.25.25,0,0,0,.13.2.47.47,0,0,0,.17.07.15.15,0,0,0-.09,0l-.06,0H1.25l0,0a.2.2,0,0,0-.06.18.31.31,0,0,0,.11.14.56.56,0,0,0,.23.05.1.1,0,0,0-.06.05.16.16,0,0,0,0,.22.4.4,0,0,0,.28.13h0l0,0c-.08.09,0,.24.13.29l.06,0H2l.17.05a4.42,4.42,0,0,0,1.49,0L4.46,26a1.25,1.25,0,0,0,.79-.33.34.34,0,0,0,.06-.33.68.68,0,0,0-.18-.27c-.17-.15-.37-.29-.43-.44a.38.38,0,0,1,0-.1H5l.27,0a3.82,3.82,0,0,0,.59.09,3.1,3.1,0,0,0,.43,0,3.39,3.39,0,0,0,.45,0,4.48,4.48,0,0,0,.84-.2c.19-.07.35-.15.52-.23a7,7,0,0,0,1.21,0,5.45,5.45,0,0,0,.9-.15,3.06,3.06,0,0,0,.43-.13h0a.64.64,0,0,0,.36.32,2.63,2.63,0,0,0,.45.11l.4.08a.91.91,0,0,1,.31.12c.07.05.07.16.13.26a.73.73,0,0,0,.28.27,1.3,1.3,0,0,0,.42.14l.23,0a.64.64,0,0,0,.27,0,.85.85,0,0,0,.36-.25,1.78,1.78,0,0,0,.33-.57,1.66,1.66,0,0,1,.12-.2,1.56,1.56,0,0,0,.35-.2.53.53,0,0,0,.24-.3h0a.47.47,0,0,0,.2-.06l.08-.07a.47.47,0,0,0,0-.1v-.11A.14.14,0,0,1,15.26,23.23Z"/><path class="cls-4" d="M6.14,16.13a1.7,1.7,0,0,0-.92.87s.92-.95,1.42-.89l.18,0s-.05-.22-.68,0"/><path class="cls-4" d="M6.4,16.44a6.33,6.33,0,0,0-.7.45l.45-.2s0,.13.19.13.39-.15.32-.22a.38.38,0,0,1-.09-.1l.13,0s0-.13-.3,0"/><path class="cls-4" d="M8.68,15.84c0-.17-.35-.05-.52.06s-.14.17-.14.17c.22-.12.08.08.26.08s.23-.1.23-.2-.15-.07-.09-.1a.8.8,0,0,1,.26,0"/><path class="cls-4" d="M5.32,17.75l0,0Z"/><path class="cls-4" d="M8.52,15.19h0c0,.06.06.11.08.17-.54-.06-.95.3-.87.66s.38.41.55.59-.21.34-.21.34c.27,0,.28-.06.41-.21s0-.16-.35-.36-.25-.46-.15-.7.54-.26.65-.27l.09.19a4.51,4.51,0,0,0,.58.76c0,.06.15.13.18.17a.19.19,0,0,1,0,.08s0,.06,0,.09a.84.84,0,0,1,0,.38,1.44,1.44,0,0,1-.19.37,1.55,1.55,0,0,1-.3.33,2.21,2.21,0,0,1-.4.28,3.07,3.07,0,0,1-.45.2h0l0,0-.12,0-.14,0-.28.07a5.07,5.07,0,0,1-.58.08,4.86,4.86,0,0,1-1.2-.06,5,5,0,0,1-1.12-.3h0a3.18,3.18,0,0,1-.33-.09l.1,0A.36.36,0,0,0,4.63,18a.11.11,0,0,0,0-.09c0-.06-.09-.08-.09-.08a.22.22,0,0,1-.19-.17.3.3,0,0,0,0-.12s-.12-.08-.14-.07l-.08,0-.13,0a.86.86,0,0,0-.17,0,.25.25,0,0,0-.12,0,.1.1,0,0,0-.05.08.16.16,0,0,0,.05.08l.06,0h0v-.05a.07.07,0,0,1,0-.05s0,0,0,0,0,0,0,0l.1,0,.17,0h.08s0,0,0,0a.93.93,0,0,0,.1.1l.23.2s0,0,0,0h0l-.06,0h0l0,0,0,0h0a.32.32,0,0,0,0,.06s0,0,0,.08l.06.05L4,17.92c-.32-.19-.58-.44-.45-.56s.8,0,.8,0a1.07,1.07,0,0,0,.56.32l-.2-.29.61.33a1.91,1.91,0,0,1-.78-.87A1.41,1.41,0,0,1,4.7,15.6l.06.62.75-1.11,0,1.07.46-.95.17.67.25-.55,0,.44.38-.86.12.74.67-.56-.13.37.53-.93v.76l.5-.78v.24a1,1,0,0,0,.05.3h0l0,.12M3.33,17.74l1.15.82-.16-.3.66.42-.15-.28.39.25L5,18.35a6.71,6.71,0,0,0,.8.22,6.17,6.17,0,0,0,.62.1c.21,0,.42,0,.64,0a4.87,4.87,0,0,0,.65-.05L8,18.59l.07,0a.45.45,0,0,0,.16.36c.07.05.13.07.13.08a.27.27,0,0,1-.06-.11.28.28,0,0,1,0-.22l.05-.07.28.06a2,2,0,0,1,.33.16l.07.06s.06.05.07.08l.13.17c.17.25.35.55.58.86a3.55,3.55,0,0,0,.41.49,1.57,1.57,0,0,0,.33.24l.36.15a2.17,2.17,0,0,1,.59.3,4.33,4.33,0,0,1,.42.43,1.11,1.11,0,0,0,.29.22,1.19,1.19,0,0,0,.42.11l.31,0a.2.2,0,0,1,.14.08c0,.08,0,.16-.19.2a1,1,0,0,1-.38,0,.18.18,0,0,1-.11,0s0-.05,0-.06a.21.21,0,0,1,.07-.05l-.09,0a.09.09,0,0,0-.06.08s.09.07.15.08a1.36,1.36,0,0,0,.46,0,.68.68,0,0,0,.28-.1.24.24,0,0,0,.1-.26.4.4,0,0,0-.3-.22,2.57,2.57,0,0,0-.35-.06.76.76,0,0,1-.43-.25,2.81,2.81,0,0,0-.42-.48,2.55,2.55,0,0,0-.69-.37l-.35-.14a.93.93,0,0,1-.22-.16,5.51,5.51,0,0,1-.41-.43c-.25-.3-.47-.59-.7-.83a1.54,1.54,0,0,0-.19-.17l-.09-.07-.11-.06a1.54,1.54,0,0,0-.42-.13,1.8,1.8,0,0,0-.29,0l.09-.1.1-.07h0A2.84,2.84,0,0,0,9.34,18a1.81,1.81,0,0,0,.34-.4,1.26,1.26,0,0,0,.17-.44.9.9,0,0,0,0-.46,1,1,0,0,0-.05-.12.53.53,0,0,0-.09-.11,2.26,2.26,0,0,1-.21-.16,4.08,4.08,0,0,1-.68-.7A2.19,2.19,0,0,1,8.51,15a1.92,1.92,0,0,0,.06-.74c0-.66-.94-1.15-1.76-1.34a4.9,4.9,0,0,0-3,.24,2.59,2.59,0,0,0-1.95,2.95A3,3,0,0,0,3.33,17.74Z"/><path class="cls-4" d="M8.58,17.17a2.15,2.15,0,0,1-1.26.4s1.32.13,1.26-.4"/><path class="cls-4" d="M8,17.74s-.48.1-.23.17.88-.16.23-.17"/><path class="cls-4" d="M16.21,15.51h0c-.35,0-.69-.11-1-.18l-.92-.21a.14.14,0,0,0-.12-.08h-.32l-.5-.06c0-.11-.13-.36-.22-.64l.41.06c.35.06.69.16,1.08.23l.37.07c0,.12.23.18.23.18a.32.32,0,0,1,0-.14l.94.11.24.68-.18,0M12.52,15h0L12,15l-.38,0-.15-.75h1l.23,0a3.41,3.41,0,0,0,.22.66Zm.09-1.17h0s0,.09,0,.23H12l-.51.05-.09-.44Zm2,0h0c.33.08.69.14,1,.19a1,1,0,0,1-.42.48l0,0-.46-.08c-.34-.07-.71-.17-1.09-.23L13,14a2,2,0,0,1-.08-.61l.59.09C13.88,13.57,14.22,13.65,14.58,13.73Zm1.46.81h0l-.61-.08a2.12,2.12,0,0,1,.49-.27Zm4.35.92c-.31.06-.76.11-1.3.16l-.88,0-1,0-.6,0-.28-.7.45,0a15.69,15.69,0,0,0,2,0c.28,0,.54,0,.77-.08l.59-.09.5-.11-.52.05-.59,0-.77,0a21.16,21.16,0,0,1-2.52-.13L16,14l.76.06h1c.33,0,.63,0,.91-.06A11.14,11.14,0,0,0,20,13.74a4.72,4.72,0,0,0,.48-.13l-.5.07c-.32.05-.78.09-1.33.12h-.88l-1-.05-.93-.11-.12-.29a1.23,1.23,0,0,1,0,.27c-.33-.06-.65-.11-1-.19s-.7-.16-1.07-.22a8.53,8.53,0,0,0-.85-.1,6.09,6.09,0,0,0-2.07-.34l.11.47-.22,0a5.46,5.46,0,0,0-1.2.45A2.5,2.5,0,0,0,9,14a5.08,5.08,0,0,1,1-.36c.2-.06.44-.11.7-.16l.18,0,.15.69-.48.12a3.82,3.82,0,0,0-.69.27,3.8,3.8,0,0,0-.47.26A2,2,0,0,0,9,15a3.25,3.25,0,0,1,.4-.22,3.51,3.51,0,0,1,.5-.22,6.52,6.52,0,0,1,.69-.2l.44-.08.15.72v.06h-.09a5.41,5.41,0,0,0-1.22.42,3.52,3.52,0,0,0-.39.22s.15-.07.44-.17a5,5,0,0,1,.53-.16l.7-.14h.08a.49.49,0,0,0,.41.25c.89.12,1.15-.18.76-.31h.08l.49,0h.06a.62.62,0,0,0,.42.35.8.8,0,0,0,.62-.19l.92.22c.37.08.74.14,1.1.19l.37,0,.16.44c.53.63,1.81.31,1.42-.13s-1.25-.1-1.25-.1l-.07-.19.45,0c.35,0,.7,0,1,0l.89-.08a8.71,8.71,0,0,0,1.29-.27,2.7,2.7,0,0,0,.45-.17S20.69,15.4,20.39,15.46Z"/><path class="cls-4" d="M1.46,10.92h0a1.21,1.21,0,0,1,.33-.07l.23,0a1,1,0,0,0,.24-.09c.26-.17.27-.34.37-.46A.6.6,0,0,1,3,10,.92.92,0,0,1,3.29,10h.25a.91.91,0,0,1,.32.06.45.45,0,0,1,.29.26c0,.13,0,.25-.19.38a1.82,1.82,0,0,0-.25.24.48.48,0,0,0-.12.37.82.82,0,0,0,.12.34c0,.1.11.22.15.3s0,.27-.29.31a3.06,3.06,0,0,1-.93-.08,4.24,4.24,0,0,1-.91-.31,1.13,1.13,0,0,1-.58-.5c-.07-.19.1-.32.31-.4m.19,1c.29.14.57.28.89.4a2.64,2.64,0,0,0,1.08.19,1,1,0,0,0,.59-.21.42.42,0,0,0,.1-.45c0-.14-.1-.22-.14-.33a1.33,1.33,0,0,1-.11-.26c0-.13.1-.28.23-.45a.46.46,0,0,0,0-.55A.77.77,0,0,0,3.9,10a2.15,2.15,0,0,0-.36-.05H3.29a1.44,1.44,0,0,0-.36.05,1.14,1.14,0,0,0-.47.23c-.14.12-.27.29-.42.34a.35.35,0,0,1-.11,0H1.74a1.31,1.31,0,0,0-.48.12A.72.72,0,0,0,.89,11a.38.38,0,0,0,0,.4A2,2,0,0,0,1.65,11.89Z"/><path class="cls-4" d="M3.29,11.71h0l-.09,0-.21,0h-.1l0,0s0-.06,0-.1l.07-.11a1,1,0,0,1,.17.1l.18.11m-.35.06Zm-1.15-.62.22,0,.23.05a2,2,0,0,1,.23.07,2,2,0,0,1,.22.09l.15.06-.16,0a.37.37,0,0,0-.22.22.26.26,0,0,0,0,.17l.06.07.07.06a.55.55,0,0,0,.3.07.5.5,0,0,0,.23,0,.59.59,0,0,0,.22-.16l0-.07,0,0,.26.18.11.06,0-.09a1.34,1.34,0,0,0-.12-.25,1.3,1.3,0,0,0-.28-.32,1.58,1.58,0,0,0-.46-.29A2.13,2.13,0,0,0,2.33,11a2,2,0,0,0-.56,0,1.23,1.23,0,0,0-.47.17A2.7,2.7,0,0,1,1.79,11.15Z"/><path class="cls-5" d="M5.83,19.87C5.42,20,5,21.08,4,21.14S2.77,21,3,20.27s1.43-1,1.66-1.38-.06-.52.36-.61.28,0,.28,0a1.93,1.93,0,0,0,.26-.75c0-.21.51-.17.51.09A3.24,3.24,0,0,1,6,18.4c-.06.11.42-.31.49-.12a.48.48,0,0,1-.08.4s.29-.22.29,0a.36.36,0,0,1-.12.31s.31.07.25.26-.62.49-1,.6"/><path class="cls-4" d="M5.82,19.86h0a2.45,2.45,0,0,0,.76-.37l.14-.12s0,0,0-.06l0,0v0a.11.11,0,0,0-.06-.1.3.3,0,0,0-.14-.06l0-.15s0,0,0,0l0,0s0,0,0-.06a.33.33,0,0,0,0-.14v0h0l0,0a.16.16,0,0,0,.09,0s0,0,0,0l-.06,0a.26.26,0,0,1-.28,0,.1.1,0,0,1,0-.14h0a.59.59,0,0,0,.06-.14.66.66,0,0,0,0-.13s0,0,0,0,.09,0,.07,0l-.19.09,0,0,0,0s0,0-.13,0l-.11,0a.18.18,0,0,1-.08-.06.13.13,0,0,1,0-.08s0,0,0,0v-.06a.84.84,0,0,0,0-.17c0-.12,0-.25.05-.37a1.28,1.28,0,0,0,0-.17.12.12,0,0,0-.08-.11.31.31,0,0,0-.19,0c-.05,0-.06,0-.05.1a1.51,1.51,0,0,1-.1.38c0,.12-.1.24-.16.36l-.14-.06h0s0,.06,0,.05h0l-.12,0A.64.64,0,0,0,5,18.4c-.06,0,0,.18,0,.32a.59.59,0,0,1-.07.2,1.12,1.12,0,0,1-.17.2,4.85,4.85,0,0,1-.4.28,5.63,5.63,0,0,0-.74.52,1.71,1.71,0,0,0-.22.29l0,.09v0s0,0,0,0v0a.55.55,0,0,0,0,.17.47.47,0,0,0,0,.29c0,.07.1.1.24.13a1.85,1.85,0,0,0,.48,0,1.29,1.29,0,0,0,.45-.06,1.94,1.94,0,0,0,.76-.48l.32-.32a1.09,1.09,0,0,1,.37-.28Zm0,0a.83.83,0,0,0-.33.28l-.26.34a2,2,0,0,1-.7.63,1.71,1.71,0,0,1-.6.15,3.26,3.26,0,0,1-.62,0A.77.77,0,0,1,2.76,21a.58.58,0,0,1,0-.46.66.66,0,0,1,.06-.2l0-.05V20.2l.05-.09a1.61,1.61,0,0,1,.32-.37A5.14,5.14,0,0,1,4,19.2l.4-.24a.77.77,0,0,0,.13-.12.49.49,0,0,0,.09-.15,1,1,0,0,0,0-.18.28.28,0,0,1,.14-.23,1.28,1.28,0,0,1,.29-.08l.15,0h.11s.09.06.07.09l0,0a.13.13,0,0,1-.12,0,.07.07,0,0,1,0-.07h0a2.31,2.31,0,0,0,.18-.35.76.76,0,0,0,.09-.35v0a.2.2,0,0,1,0-.07.23.23,0,0,1,.14-.09.56.56,0,0,1,.34,0,.31.31,0,0,1,.2.2c0,.08,0,.13,0,.19s0,.26,0,.38a1.34,1.34,0,0,1,0,.2l0,.06s0,0,0,0h0s0,0,0-.07,0,0-.06-.05a.26.26,0,0,0-.11,0H6l0,0a1.42,1.42,0,0,1,.25-.13.46.46,0,0,1,.33,0c.16.08.13.16.14.17a.38.38,0,0,1,0,.24.58.58,0,0,1-.1.21l-.32-.15.11-.06a.41.41,0,0,1,.18-.06.33.33,0,0,1,.19,0c.07,0,.09.07.1.1a.21.21,0,0,1,0,.06v.06a.55.55,0,0,1,0,.17.41.41,0,0,1-.05.09l0,.05-.06.05,0-.15a.52.52,0,0,1,.23.13.22.22,0,0,1,.07.21.11.11,0,0,0,0,0l0,0a.3.3,0,0,1-.08.08,1.13,1.13,0,0,1-.18.12,4.28,4.28,0,0,1-.82.34Z"/><path class="cls-4" d="M9,10.47a6.33,6.33,0,0,1,2.53.47c.78.48-1.14,1.28-3,1.31A10.46,10.46,0,0,1,6,12.07l-.8.42-.7-1,2.6,0-.42.24a10.89,10.89,0,0,0,2.92,0c1.89-.21,1.77-.93-.58-1.25"/><polygon class="cls-4" points="1.57 1.1 1.95 1.1 1.95 3.13 2.87 3.13 2.87 3.35 1.57 3.35 1.57 1.1"/><path class="cls-4" d="M3.34,2.54h0c0,.27.06.63.41.63s.38-.38.38-.63-.06-.63-.39-.63-.4.38-.4.63m1.17,0a.75.75,0,0,1-.78.83A.74.74,0,0,1,3,2.54a.75.75,0,0,1,.79-.83A.74.74,0,0,1,4.51,2.54Z"/><path class="cls-4" d="M6,3.31a1.18,1.18,0,0,1-.39.06.77.77,0,0,1-.86-.82.85.85,0,0,1,.93-.84A1,1,0,0,1,6,1.76L5.94,2a.81.81,0,0,0-.27,0,.55.55,0,0,0-.54.62.53.53,0,0,0,.55.6.8.8,0,0,0,.27,0Z"/><path class="cls-4" d="M7.14,2.51h0c-.2,0-.65,0-.65.38a.27.27,0,0,0,.29.28.35.35,0,0,0,.35-.24.28.28,0,0,0,0-.09Zm.05.84,0-.17h0a.59.59,0,0,1-.46.19c-.32,0-.56-.18-.56-.46s.47-.58,1-.58V2.28c0-.22-.08-.37-.38-.37A1,1,0,0,0,6.36,2l-.08-.18a1.42,1.42,0,0,1,.55-.1c.47,0,.68.21.68.57V3a2.23,2.23,0,0,0,0,.37Z"/><rect class="cls-4" x="7.96" y="1.04" width="0.38" height="2.31"/><path class="cls-4" d="M8.81,3.35h0V1.73h.38V3.35Zm.41-2c0,.1-.09.16-.23.16s-.22-.06-.22-.16.1-.17.22-.17S9.22,1.22,9.22,1.32Z"/><path class="cls-4" d="M9.45,3.19l.74-1A2,2,0,0,0,10.38,2H9.54V1.73H10.8V1.9l-.74,1-.19.24h.93v.22H9.45Z"/><path class="cls-4" d="M12,2.51h0c-.2,0-.65,0-.65.38a.27.27,0,0,0,.29.28A.34.34,0,0,0,12,2.93a.28.28,0,0,0,0-.09Zm0,.84,0-.17h0a.58.58,0,0,1-.46.19c-.32,0-.56-.18-.56-.46s.47-.58,1-.58V2.28c0-.22-.08-.37-.38-.37a.92.92,0,0,0-.38.08l-.09-.18a1.42,1.42,0,0,1,.55-.1c.47,0,.68.21.68.57V3a2.23,2.23,0,0,0,0,.37Z"/><path class="cls-4" d="M12.6,3.77A4,4,0,0,0,12.88,3l.42,0a3.14,3.14,0,0,1-.44.78Z"/><path class="cls-4" d="M15.39,2.35h0a.41.41,0,0,0,0-.11A.36.36,0,0,0,15,1.93c-.31,0-.42.29-.42.62s.13.61.4.61a.36.36,0,0,0,.36-.28.3.3,0,0,0,0-.1ZM15.76,1V3c0,.11,0,.29,0,.39h-.32l0-.21h0a.58.58,0,0,1-.5.23c-.4,0-.68-.29-.68-.82s.34-.84.71-.84a.5.5,0,0,1,.43.19h0V1Z"/><path class="cls-4" d="M16.21,3.35h0V1.73h.37V3.35Zm.4-2c0,.1-.09.16-.23.16s-.21-.06-.21-.16.09-.17.22-.17S16.61,1.22,16.61,1.32Z"/><path class="cls-4" d="M17.11,3.35V1.93h-.3v-.2h.3V1.64a.55.55,0,0,1,.21-.49A.81.81,0,0,1,17.79,1a1.06,1.06,0,0,1,.29,0l-.07.2a.81.81,0,0,0-.2,0c-.27,0-.33.19-.33.4v.1h.43v.2h-.43V3.35Z"/><path class="cls-4" d="M19.05,2.37h0c0-.32-.17-.46-.35-.46s-.37.24-.38.46Zm-.74.19c0,.5.29.6.56.6a1,1,0,0,0,.39-.06l.06.19a1.58,1.58,0,0,1-.52.08A.76.76,0,0,1,18,2.56a.77.77,0,0,1,.79-.85.64.64,0,0,1,.67.71v.14Z"/><path class="cls-4" d="M19.73,2.15c0-.14,0-.3,0-.42h.33l0,.26h0a.56.56,0,0,1,.5-.28h.07V2h-.07a.45.45,0,0,0-.46.34.61.61,0,0,0,0,.14v.9h-.38Z"/><path class="cls-4" d="M21.81,2.37h0c0-.32-.17-.46-.35-.46s-.37.24-.39.46Zm-.74.19c0,.5.28.6.56.6A1.07,1.07,0,0,0,22,3.1l.05.19a1.56,1.56,0,0,1-.51.08.76.76,0,0,1-.86-.81.77.77,0,0,1,.79-.85.64.64,0,0,1,.68.71.57.57,0,0,1,0,.14Z"/><path class="cls-4" d="M22.5,2.15c0-.19,0-.29,0-.42h.32l0,.2h0a.67.67,0,0,1,.54-.22.51.51,0,0,1,.57.55V3.35h-.37v-1c0-.19-.06-.39-.33-.39a.34.34,0,0,0-.35.27.59.59,0,0,0,0,.14v1H22.5Z"/><path class="cls-4" d="M25.54,3.31a1.18,1.18,0,0,1-.39.06.77.77,0,0,1-.86-.82.85.85,0,0,1,.93-.84,1,1,0,0,1,.33.05L25.48,2a.81.81,0,0,0-.27,0,.55.55,0,0,0-.55.62.53.53,0,0,0,.56.6.8.8,0,0,0,.27,0Z"/><path class="cls-4" d="M25.79,3.35h0V1.73h.37V3.35Zm.4-2c0,.1-.09.16-.23.16s-.21-.06-.21-.16.09-.17.22-.17S26.19,1.22,26.19,1.32Z"/><path class="cls-4" d="M27.48,2.51h0c-.19,0-.64,0-.64.38a.26.26,0,0,0,.28.28.33.33,0,0,0,.35-.24.28.28,0,0,0,0-.09Zm.06.84,0-.17h0a.6.6,0,0,1-.47.19c-.32,0-.56-.18-.56-.46s.47-.58,1-.58V2.28c0-.22-.07-.37-.37-.37a.93.93,0,0,0-.39.08l-.08-.18a1.34,1.34,0,0,1,.55-.1c.47,0,.67.21.67.57V3a1.5,1.5,0,0,0,0,.37Z"/><path class="cls-4" d="M29.19,1.73l.31.93.1.33h0c0-.09.06-.21.1-.33L30,1.73h.37l-.39,1a2.34,2.34,0,0,1-.58,1,1.46,1.46,0,0,1-.43.25l-.13-.22a1,1,0,0,0,.33-.21.71.71,0,0,0,.21-.27s0,0,0-.08a.13.13,0,0,0,0-.06l-.6-1.49Z"/><path class="cls-4" d="M10.11,5.31c0-.14,0-.3,0-.42h.34l0,.25h0A.58.58,0,0,1,11,4.86H11v.26H11a.45.45,0,0,0-.45.33.76.76,0,0,0,0,.15V6.5h-.38Z"/><path class="cls-4" d="M12.18,5.53h0c0-.32-.17-.47-.35-.47s-.37.25-.38.47Zm-.73.19c0,.49.28.6.55.6a1.28,1.28,0,0,0,.39-.06l.06.19a1.57,1.57,0,0,1-.51.07.76.76,0,0,1-.86-.81.77.77,0,0,1,.79-.85.65.65,0,0,1,.67.72v.14Z"/><path class="cls-4" d="M13.75,5.67h0c-.2,0-.65,0-.65.37a.28.28,0,0,0,.29.29.34.34,0,0,0,.35-.24.31.31,0,0,0,0-.09Zm.05.83,0-.17h0a.56.56,0,0,1-.46.2c-.32,0-.56-.18-.56-.46s.47-.58,1-.59V5.43c0-.21-.08-.36-.38-.36a.92.92,0,0,0-.38.08L12.89,5a1.39,1.39,0,0,1,.55-.11c.47,0,.68.22.68.58v.7a2.06,2.06,0,0,0,0,.36Z"/><path class="cls-4" d="M15.72,6.46a1,1,0,0,1-.39.06.77.77,0,0,1-.86-.81.84.84,0,0,1,.93-.84,1,1,0,0,1,.33,0l-.08.21a.65.65,0,0,0-.26,0,.56.56,0,0,0-.55.63.54.54,0,0,0,.56.6,1.17,1.17,0,0,0,.27,0Z"/><path class="cls-4" d="M17.08,6.46a1,1,0,0,1-.39.06.77.77,0,0,1-.86-.81.84.84,0,0,1,.93-.84.91.91,0,0,1,.33,0L17,5.13a.76.76,0,0,0-.27,0,.56.56,0,0,0-.54.63.53.53,0,0,0,.55.6,1.26,1.26,0,0,0,.28,0Z"/><path class="cls-4" d="M17.33,6.5h0V4.89h.37V6.5Zm.4-2c0,.1-.08.17-.23.17s-.21-.07-.21-.17.1-.16.22-.16S17.73,4.37,17.73,4.47Z"/><path class="cls-4" d="M18.42,5.7h0c0,.26.07.63.41.63s.39-.38.39-.63-.07-.63-.4-.63-.4.38-.4.63m1.18,0a.76.76,0,0,1-.79.83.73.73,0,0,1-.76-.83.76.76,0,0,1,.79-.84A.74.74,0,0,1,19.6,5.7Z"/><path class="cls-4" d="M19.94,5.31c0-.19,0-.29,0-.42h.33l0,.19h0a.67.67,0,0,1,.54-.22.51.51,0,0,1,.56.56V6.5H21v-1c0-.19-.05-.38-.33-.38a.36.36,0,0,0-.35.26.61.61,0,0,0,0,.15v1h-.37Z"/><path class="cls-4" d="M22.71,5.67h0c-.19,0-.65,0-.65.37a.28.28,0,0,0,.29.29.33.33,0,0,0,.35-.24.31.31,0,0,0,0-.09Zm.05.83,0-.17h0a.59.59,0,0,1-.47.2c-.32,0-.56-.18-.56-.46s.47-.58,1-.59V5.43c0-.21-.08-.36-.37-.36a.93.93,0,0,0-.39.08L21.86,5a1.29,1.29,0,0,1,.54-.11c.48,0,.68.22.68.58v.7a2.06,2.06,0,0,0,0,.36Z"/><path class="cls-4" d="M25.1,5.67h0c-.2,0-.65,0-.65.37a.28.28,0,0,0,.29.29.35.35,0,0,0,.35-.24.31.31,0,0,0,0-.09Zm0,.83,0-.17h0a.57.57,0,0,1-.46.2c-.32,0-.56-.18-.56-.46s.47-.58,1-.59V5.43c0-.21-.08-.36-.38-.36a1,1,0,0,0-.39.08L24.24,5a1.39,1.39,0,0,1,.55-.11c.47,0,.68.22.68.58v.7a2.06,2.06,0,0,0,0,.36Z"/><path class="cls-4" d="M25.92,5.31c0-.19,0-.29,0-.42h.32l0,.19h0a.7.7,0,0,1,.54-.22.51.51,0,0,1,.57.56V6.5H27v-1c0-.19-.06-.38-.33-.38a.36.36,0,0,0-.35.26.61.61,0,0,0,0,.15v1h-.37Z"/><path class="cls-4" d="M28.24,4.46v.43h.46v.2h-.46V6c0,.21.11.27.25.27h.15l0,.2-.28,0A.6.6,0,0,1,28,6.43.49.49,0,0,1,27.87,6V5.09h-.29v-.2h.29V4.54Z"/><path class="cls-4" d="M29.92,5.53h0c0-.32-.17-.47-.35-.47s-.37.25-.39.47Zm-.74.19c0,.49.28.6.56.6a1.21,1.21,0,0,0,.38-.06l.06.19a1.57,1.57,0,0,1-.51.07.76.76,0,0,1-.86-.81.77.77,0,0,1,.79-.85.65.65,0,0,1,.68.72.57.57,0,0,1,0,.14Z"/><path class="cls-4" d="M6,8.66H6V8.55a.37.37,0,0,0-.35-.31c-.31,0-.42.3-.42.62s.13.62.4.62A.38.38,0,0,0,6,9.2a.37.37,0,0,0,0-.11Zm.37-1.31V9.27c0,.11,0,.3,0,.39H6l0-.2H6a.59.59,0,0,1-.49.23c-.4,0-.69-.3-.69-.83A.74.74,0,0,1,5.52,8,.51.51,0,0,1,6,8.21H6V7.35Z"/><path class="cls-4" d="M6.78,9.66h0V8.05h.38V9.66Zm.41-2c0,.1-.09.17-.23.17s-.22-.07-.22-.17.1-.17.22-.17S7.19,7.53,7.19,7.63Z"/><path class="cls-4" d="M7.68,9.66V8.24H7.39V8.05h.29V8a.59.59,0,0,1,.21-.49.84.84,0,0,1,.47-.13.71.71,0,0,1,.29,0l-.06.2a.49.49,0,0,0-.2,0c-.27,0-.33.2-.33.41v.1h.42v.19H8.06V9.66Z"/><path class="cls-4" d="M9.63,8.69h0c0-.33-.17-.47-.35-.47s-.37.25-.39.47Zm-.74.19c0,.49.28.6.56.6a1,1,0,0,0,.39-.07l.05.19a1.56,1.56,0,0,1-.51.08.76.76,0,0,1-.86-.81A.78.78,0,0,1,9.32,8a.64.64,0,0,1,.67.71.66.66,0,0,1,0,.15Z"/><path class="cls-4" d="M10.31,8.46c0-.13,0-.29,0-.41h.34l0,.25h0A.57.57,0,0,1,11.15,8h.08v.27h-.08a.45.45,0,0,0-.45.34.66.66,0,0,0,0,.15v.89h-.38Z"/><path class="cls-4" d="M12.38,8.69h0c0-.33-.17-.47-.35-.47s-.37.25-.38.47Zm-.74.19c0,.49.29.6.56.6a1,1,0,0,0,.39-.07l.06.19a1.56,1.56,0,0,1-.51.08.76.76,0,0,1-.86-.81A.77.77,0,0,1,12.07,8a.64.64,0,0,1,.67.71v.15Z"/><path class="cls-4" d="M13.07,8.46c0-.19,0-.28,0-.41h.33l0,.19h0A.67.67,0,0,1,14,8a.52.52,0,0,1,.57.56V9.66h-.38v-1c0-.19-.05-.38-.32-.38a.36.36,0,0,0-.36.26.61.61,0,0,0,0,.14v1h-.38Z"/><path class="cls-4" d="M15.4,7.62v.43h.45v.19H15.4v1c0,.21.11.27.25.27h.15v.19a1,1,0,0,1-.28,0,.64.64,0,0,1-.37-.1.45.45,0,0,1-.14-.4V8.24h-.28V8.05H15V7.69Z"/><path class="cls-4" d="M17.07,8.69h0c0-.33-.17-.47-.35-.47s-.37.25-.39.47Zm-.74.19c0,.49.29.6.56.6a1,1,0,0,0,.39-.07l.06.19a1.58,1.58,0,0,1-.52.08A.77.77,0,0,1,16,8.87a.78.78,0,0,1,.8-.85.64.64,0,0,1,.67.71.66.66,0,0,1,0,.15Z"/><path class="cls-4" d="M17.7,9.39a.88.88,0,0,0,.38.09c.21,0,.34-.09.34-.24s-.06-.2-.3-.31-.47-.28-.47-.46.28-.45.64-.45a1.13,1.13,0,0,1,.43.08l-.1.2a.76.76,0,0,0-.32-.07c-.2,0-.3.1-.3.2s.06.17.29.28.49.27.49.49-.33.48-.71.48a1.23,1.23,0,0,1-.47-.09Z"/><path class="cls-4" d="M19.72,9.39a.92.92,0,0,0,.38.09c.21,0,.34-.09.34-.24s-.06-.2-.3-.31-.47-.28-.47-.46S20,8,20.32,8a1.12,1.12,0,0,1,.42.08l-.1.2a.74.74,0,0,0-.31-.07c-.21,0-.31.1-.31.2s.06.17.29.28.49.27.49.49-.32.48-.71.48a1.17,1.17,0,0,1-.46-.09Z"/><path class="cls-4" d="M21.39,8.85h0c0,.27.06.63.4.63s.39-.38.39-.63-.06-.62-.39-.62-.4.38-.4.62m1.17,0a.75.75,0,0,1-.78.84A.74.74,0,0,1,21,8.86.76.76,0,0,1,21.8,8,.74.74,0,0,1,22.56,8.85Z"/><path class="cls-4" d="M22.9,8.46c0-.19,0-.28,0-.41h.33l0,.19h0A.67.67,0,0,1,23.78,8a.52.52,0,0,1,.57.56V9.66H24v-1c0-.19,0-.38-.32-.38a.36.36,0,0,0-.36.26.61.61,0,0,0,0,.14v1H22.9Z"/><path class="cls-4" d="M24.8,9.66h0V8.05h.37V9.66Zm.4-2c0,.1-.09.17-.23.17s-.21-.07-.21-.17.1-.17.22-.17S25.2,7.53,25.2,7.63Z"/><path class="cls-4" d="M26.67,8.66h0a.45.45,0,0,0,0-.11.36.36,0,0,0-.35-.31c-.31,0-.42.3-.42.62s.13.62.4.62a.37.37,0,0,0,.36-.28.36.36,0,0,0,0-.11ZM27,7.35V9.27c0,.11,0,.3,0,.39h-.32l0-.2h0a.58.58,0,0,1-.49.23c-.4,0-.68-.3-.68-.83s.34-.84.71-.84a.53.53,0,0,1,.43.19h0V7.35Z"/><path class="cls-4" d="M27.76,8.85h0c0,.27.07.63.41.63s.38-.38.38-.63-.06-.62-.39-.62-.4.38-.4.62m1.17,0a.75.75,0,0,1-.78.84.74.74,0,0,1-.77-.83A.76.76,0,0,1,28.17,8,.74.74,0,0,1,28.93,8.85Z"/><path class="cls-4" d="M29.21,9.39a.92.92,0,0,0,.38.09c.22,0,.35-.09.35-.24s-.07-.2-.31-.31-.47-.28-.47-.46.28-.45.65-.45a1.07,1.07,0,0,1,.42.08l-.1.2a.74.74,0,0,0-.31-.07c-.2,0-.31.1-.31.2s.06.17.3.28.48.27.48.49-.32.48-.7.48a1.19,1.19,0,0,1-.47-.09Z"/><path class="cls-4" d="M26.7,12.78a1.18,1.18,0,0,1-.39.06.77.77,0,0,1-.86-.82.85.85,0,0,1,.93-.84.91.91,0,0,1,.33.05l-.07.21a.81.81,0,0,0-.27,0,.56.56,0,0,0-.54.62.53.53,0,0,0,.55.6.86.86,0,0,0,.28,0Z"/><path class="cls-4" d="M27.19,12h0c0,.27.07.63.41.63S28,12.26,28,12s-.07-.63-.4-.63-.4.38-.4.63m1.18,0a.77.77,0,0,1-.79.84.74.74,0,0,1-.76-.84.75.75,0,0,1,.79-.83A.74.74,0,0,1,28.37,12Z"/><path class="cls-4" d="M28.71,11.62c0-.19,0-.29,0-.42H29l0,.2h0a.67.67,0,0,1,.54-.22.51.51,0,0,1,.56.56v1.08h-.37v-1c0-.19-.05-.39-.33-.39a.36.36,0,0,0-.35.27.59.59,0,0,0,0,.14v1h-.37Z"/><path class="cls-4" d="M11.91,17.94c0-.19,0-.29,0-.42h.32l0,.2h0a.65.65,0,0,1,.53-.23.51.51,0,0,1,.49.25h0a.69.69,0,0,1,.24-.18.66.66,0,0,1,.32-.07.52.52,0,0,1,.57.57v1.07H14v-1c0-.21,0-.41-.33-.41a.36.36,0,0,0-.35.24.66.66,0,0,0,0,.15v1H13V18.08c0-.19-.05-.37-.33-.37a.35.35,0,0,0-.35.26.61.61,0,0,0,0,.14v1h-.37Z"/><path class="cls-4" d="M15.12,18.33h0c0,.26.07.63.41.63s.38-.38.38-.63-.06-.63-.39-.63-.4.38-.4.63m1.17,0a.75.75,0,0,1-.78.83.73.73,0,0,1-.76-.83.76.76,0,0,1,.78-.84A.74.74,0,0,1,16.29,18.33Z"/><path class="cls-4" d="M16.79,17.52l.3.91c0,.11.07.25.1.39h0c0-.13.06-.27.09-.39l.3-.91H18l-.61,1.61H17l-.62-1.61Z"/><path class="cls-4" d="M18.22,19.13h0V17.52h.37v1.61Zm.4-2c0,.1-.09.17-.23.17s-.21-.07-.21-.17.1-.17.22-.17S18.62,17,18.62,17.1Z"/><path class="cls-4" d="M19,17.94c0-.19,0-.29,0-.42h.32l0,.2h0a.68.68,0,0,1,.53-.23.53.53,0,0,1,.5.25h0a.69.69,0,0,1,.24-.18.66.66,0,0,1,.32-.07.52.52,0,0,1,.57.57v1.07h-.37v-1c0-.21,0-.41-.33-.41a.37.37,0,0,0-.35.24.66.66,0,0,0,0,.15v1H20.1V18.08c0-.19-.05-.37-.33-.37a.36.36,0,0,0-.35.26.61.61,0,0,0,0,.14v1H19Z"/><path class="cls-4" d="M22,19.13h0V17.52h.37v1.61Zm.4-2c0,.1-.08.17-.23.17s-.21-.07-.21-.17.1-.17.22-.17S22.38,17,22.38,17.1Z"/><path class="cls-4" d="M23.8,18.16h0c0-.32-.17-.47-.35-.47s-.37.25-.38.47Zm-.74.19c0,.49.29.6.56.6a1.28,1.28,0,0,0,.39-.06l.06.19a1.6,1.6,0,0,1-.52.07.75.75,0,0,1-.85-.81.77.77,0,0,1,.79-.85.65.65,0,0,1,.67.72v.14Z"/><path class="cls-4" d="M24.49,17.94c0-.19,0-.29,0-.42h.33l0,.19h0a.67.67,0,0,1,.54-.22.52.52,0,0,1,.57.56v1.08h-.38v-1c0-.19,0-.38-.32-.38a.36.36,0,0,0-.36.26.66.66,0,0,0,0,.15v1h-.38Z"/><path class="cls-4" d="M26.81,17.09v.43h.46v.2h-.46v1c0,.21.12.27.25.27h.15l0,.2-.28,0a.6.6,0,0,1-.37-.09.49.49,0,0,1-.14-.41v-.93h-.29v-.2h.29v-.35Z"/><path class="cls-4" d="M27.76,18.33h0c0,.26.07.63.41.63s.38-.38.38-.63-.06-.63-.39-.63-.4.38-.4.63m1.17,0a.75.75,0,0,1-.78.83.74.74,0,0,1-.77-.83.76.76,0,0,1,.79-.84A.74.74,0,0,1,28.93,18.33Z"/><path class="cls-4" d="M29.21,18.87a1.2,1.2,0,0,0,.38.08c.22,0,.35-.09.35-.23s-.07-.21-.3-.32-.48-.27-.48-.46.29-.45.65-.45a1,1,0,0,1,.42.09l-.1.19a.74.74,0,0,0-.31-.07c-.2,0-.31.1-.31.2s.06.17.3.28.48.27.48.49-.32.48-.7.48a1,1,0,0,1-.47-.09Z"/><path class="cls-4" d="M17,22.25a1.28,1.28,0,0,1-.39.06.77.77,0,0,1-.86-.82.85.85,0,0,1,.93-.84,1.35,1.35,0,0,1,.33.05l-.08.21a1.09,1.09,0,0,0-.26,0,.56.56,0,0,0-.55.62.54.54,0,0,0,.56.61.81.81,0,0,0,.27-.05Z"/><path class="cls-4" d="M17.49,21.48h0c0,.27.07.63.41.63s.38-.38.38-.63-.06-.62-.39-.62-.4.38-.4.62m1.17,0a.75.75,0,0,1-.78.84.74.74,0,0,1-.77-.83.76.76,0,0,1,.79-.84A.74.74,0,0,1,18.66,21.48Z"/><path class="cls-4" d="M19,21.09c0-.19,0-.28,0-.41h.33l0,.2h0a.65.65,0,0,1,.53-.23.5.5,0,0,1,.49.25h0a.69.69,0,0,1,.23-.19.88.88,0,0,1,.33-.06.51.51,0,0,1,.56.57v1.07h-.37v-1c0-.21,0-.41-.33-.41a.35.35,0,0,0-.34.24.59.59,0,0,0,0,.14v1h-.37V21.23c0-.18,0-.36-.32-.36a.35.35,0,0,0-.35.26.59.59,0,0,0,0,.14v1H19Z"/><path class="cls-4" d="M22.31,21.7h0a.27.27,0,0,0,0,.13.34.34,0,0,0,.34.27c.31,0,.41-.29.41-.62s-.11-.61-.41-.61a.39.39,0,0,0-.35.29.53.53,0,0,0,0,.13Zm-.37-.52c0-.25,0-.39,0-.5h.34l0,.2h0a.58.58,0,0,1,.49-.23c.41,0,.68.3.68.83s-.36.84-.73.84a.49.49,0,0,1-.41-.19h0v.8h-.37Z"/><rect class="cls-4" x="23.81" y="19.98" width="0.38" height="2.31"/><path class="cls-4" d="M25.67,21.32h0c0-.33-.17-.47-.35-.47s-.37.25-.39.47Zm-.74.19c0,.49.29.6.56.6a1,1,0,0,0,.39-.07l.06.19a1.58,1.58,0,0,1-.52.08.77.77,0,0,1-.86-.81.78.78,0,0,1,.8-.85.64.64,0,0,1,.67.71.66.66,0,0,1,0,.15Z"/><path class="cls-4" d="M26.82,20.25v.43h.45v.19h-.45v1c0,.21.11.27.24.27h.15l0,.19a1,1,0,0,1-.28,0,.62.62,0,0,1-.37-.1.45.45,0,0,1-.14-.4v-.94h-.29v-.19h.29v-.36Z"/><path class="cls-4" d="M27.76,21.48h0c0,.27.07.63.41.63s.38-.38.38-.63-.06-.62-.39-.62-.4.38-.4.62m1.17,0a.75.75,0,0,1-.78.84.74.74,0,0,1-.77-.83.76.76,0,0,1,.79-.84A.74.74,0,0,1,28.93,21.48Z"/><path class="cls-4" d="M29.21,22a.92.92,0,0,0,.38.09c.22,0,.35-.09.35-.24s-.07-.2-.31-.31-.47-.28-.47-.46.28-.45.65-.45a1.07,1.07,0,0,1,.42.08l-.1.2a.74.74,0,0,0-.31-.07c-.2,0-.31.1-.31.2s.06.17.3.28.48.27.48.49-.32.48-.7.48a1.19,1.19,0,0,1-.47-.09Z"/><path class="cls-4" d="M17.63,24.45h0a.41.41,0,0,0,0-.11.36.36,0,0,0-.35-.31c-.31,0-.41.29-.41.62s.12.61.39.61a.36.36,0,0,0,.36-.28.3.3,0,0,0,0-.1ZM18,23.14v1.92c0,.11,0,.29,0,.39H17.7l0-.21h0a.58.58,0,0,1-.49.23c-.4,0-.69-.29-.69-.82s.35-.84.71-.84a.49.49,0,0,1,.43.19h0v-.86Z"/><path class="cls-4" d="M19.45,24.47h0c0-.32-.17-.46-.35-.46s-.37.24-.38.46Zm-.74.19c0,.5.29.6.56.6a1,1,0,0,0,.39-.06l.06.19a1.58,1.58,0,0,1-.52.08.76.76,0,0,1-.85-.81.77.77,0,0,1,.79-.85.64.64,0,0,1,.67.71v.14Z"/><path class="cls-4" d="M22,25.41a1.18,1.18,0,0,1-.39.06.77.77,0,0,1-.86-.82.85.85,0,0,1,.93-.84,1,1,0,0,1,.33.05l-.07.21a.81.81,0,0,0-.27,0,.55.55,0,0,0-.55.62.53.53,0,0,0,.56.6.8.8,0,0,0,.27,0Z"/><path class="cls-4" d="M23.12,24.61h0c-.2,0-.65,0-.65.38a.27.27,0,0,0,.29.28.35.35,0,0,0,.35-.24.28.28,0,0,0,0-.09Zm.05.84,0-.17h0a.6.6,0,0,1-.47.19A.5.5,0,0,1,22.1,25c0-.4.48-.58,1-.58v-.05c0-.22-.08-.37-.38-.37a1,1,0,0,0-.39.08l-.08-.18a1.42,1.42,0,0,1,.55-.1c.47,0,.68.21.68.57v.7a2.23,2.23,0,0,0,0,.37Z"/><path class="cls-4" d="M24.31,24.88h0a.34.34,0,0,0,0,.1.37.37,0,0,0,.35.28c.3,0,.41-.28.41-.62S25,24,24.67,24a.38.38,0,0,0-.35.28.49.49,0,0,0,0,.12Zm-.4.57c0-.1,0-.28,0-.39V23.14h.38V24h0a.56.56,0,0,1,.49-.21c.37,0,.64.29.64.81s-.35.85-.71.85a.52.52,0,0,1-.47-.23h0l0,.21Z"/><path class="cls-4" d="M26.81,24.47h0c0-.32-.17-.46-.35-.46s-.37.24-.39.46Zm-.74.19c0,.5.28.6.56.6A1,1,0,0,0,27,25.2l.06.19a1.56,1.56,0,0,1-.51.08.83.83,0,0,1-.07-1.66.64.64,0,0,1,.68.71.57.57,0,0,1,0,.14Z"/><path class="cls-4" d="M27.28,25.29l.74-1c.06-.08.14-.16.19-.24h-.84v-.22h1.25V24l-.73,1c-.06.08-.14.16-.19.24h.92v.22H27.28Z"/><path class="cls-4" d="M29.79,24.61h0c-.2,0-.65,0-.65.38a.26.26,0,0,0,.28.28.35.35,0,0,0,.36-.24.28.28,0,0,0,0-.09Zm.05.84,0-.17h0a.6.6,0,0,1-.47.19.5.5,0,0,1-.56-.46c0-.4.48-.58,1-.58v-.05c0-.22-.08-.37-.38-.37a1,1,0,0,0-.39.08l-.08-.18a1.42,1.42,0,0,1,.55-.1c.47,0,.67.21.67.57v.7a1.5,1.5,0,0,0,0,.37Z"/><path class="cls-4" d="M2.45,17a2.77,2.77,0,0,1,.88,1.79l.17-.59s.5.5.34.72.25-.44.25-.44V19l.35-.53L4.35,19s.4.12.48-.42-.72-.45-1.19-.76L2.45,17"/></svg>