<svg id="Capa_1" data-name="Capa 1" xmlns="http://www.w3.org/2000/svg" viewBox="0 0 28.28 28.89"><defs><style>.cls-1{fill:#fbc9b5;}.cls-2{fill:#231f20;}</style></defs><title>4-6meses</title><path class="cls-1" d="M14.51,28.44a13.73,13.73,0,0,1,.19-2.25c.17-.6.38-1.2.38-1.2s.33-.17-.91-.1a3.9,3.9,0,0,1-2.9-.64,7.89,7.89,0,0,1-1-2.5,1.91,1.91,0,0,0-.47-.85,2.43,2.43,0,0,1-.9-.51c-.27-.3-1-1.19-1.12-1.38s-.23-.51-.09-.51a6.3,6.3,0,0,1,1,.32s-.74-.75-.57-.84a1.86,1.86,0,0,1,.45-.16.31.31,0,0,1,.37-.3c.38,0,.3-.4.43-.38a2.22,2.22,0,0,1,.8.4,2.19,2.19,0,0,1,.29.43,2.35,2.35,0,0,1,1,.08c.34.17.48.39.48.47a16.71,16.71,0,0,0,.82,2.4,10,10,0,0,0,.78,1.32,1.41,1.41,0,0,0,.4.27h2.52l1.9-.26-.66-.53s-2.21-.84-2.39-1.63a2.52,2.52,0,0,1,.24-1.47c0-.28-.58-2-.29-2.58s8.32-1.48,9.16-.34a4.45,4.45,0,0,1,.59,3,8.55,8.55,0,0,1-1.29,1.78c-.19.16-.67.11-.93.43s-.63,1.06-.24,1.45,1.81.39,2.37,1.43a5.64,5.64,0,0,1,.73,2.86A6.11,6.11,0,0,1,25,28.44Z"/><path class="cls-2" d="M19.84,17.94c-1.06-.07-1,.27-1,.27l.24-.12c.66-.27,2.69.78,2.69.78a3.68,3.68,0,0,0-2-.93"/><path class="cls-2" d="M16.93,19.62c.28.17.34.25.73.16,0,0-.69-.11-.56-.42s.52-.5.37-1a1.37,1.37,0,0,0-1.78-.63v.08s.85-.15,1.18.16.66.66.3,1.06-.52.47-.24.63"/><path class="cls-2" d="M19.69,18.48c-.44-.08-.42.12-.42.12l.22,0a.54.54,0,0,1,0,.18c-.05.11.29.27.61.2s.19-.25.19-.25l.78.12a10.67,10.67,0,0,0-1.33-.39"/><path class="cls-2" d="M16.31,18.5a.36.36,0,0,0,.46.2c.27-.06-.09-.3.32-.2,0,0,0-.1-.32-.2s-.86-.16-.8.1a.9.9,0,0,1,.38-.08c.12,0-.11,0,0,.18"/><path class="cls-2" d="M20,20.26s-.6.07-1.34.11a5.69,5.69,0,0,1-1.57-.22c.23.1.16.25.38.44a2.43,2.43,0,0,0,1.55.1,1.51,1.51,0,0,0,1-.43"/><path class="cls-2" d="M18.66,21c-.64.16.46.31.74.15s-.11-.29-.74-.15"/><path class="cls-2" d="M22.2,20l0,0,0,0"/><path class="cls-2" d="M23.28,20a.21.21,0,0,0,.11.1.57.57,0,0,0,.29,0c.1,0,.18-.09.18-.14a.27.27,0,0,0,0-.11.3.3,0,0,0-.07-.08h0l0,.09s0,.05,0,.07a.1.1,0,0,1-.07,0,.22.22,0,0,1-.13,0h-.05s0,0,0,0,.12-.24.18-.36,0-.14.05-.17,0,0,0,0l.12,0a1,1,0,0,0,.21-.1l.13-.09s0,0,0,0,0,.05,0,.07a.18.18,0,0,1,0,.08h0a.34.34,0,0,0,.05-.08.24.24,0,0,0,0-.12.17.17,0,0,0-.11-.08.29.29,0,0,0-.16,0,.77.77,0,0,0-.22.09l-.18.09-.1,0-.08.05a.1.1,0,0,0-.05.08.54.54,0,0,0,0,.19.31.31,0,0,1-.15.32s-.1.05-.06.12"/><path class="cls-2" d="M16.54,21.35Z"/><path class="cls-2" d="M10.79,18Zm-2.28-.31h0S8.5,17.7,8.51,17.69Zm17.1,6.8a3.07,3.07,0,0,0-.23-.39c-.09-.13-.2-.25-.3-.37a4.76,4.76,0,0,0-.74-.67,4.49,4.49,0,0,0-.95-.49,1.8,1.8,0,0,1-.74-.42.58.58,0,0,1-.19-.52,1.21,1.21,0,0,1,.24-.48A3.82,3.82,0,0,1,23,20.8l.11-.1-.14.55.37-.5v.45l.63-.83v.48s.77-1.13,1.05-1.57A3.27,3.27,0,0,0,26,16.44c-.28-1.66-2.52-3.4-5-3.58s-3.45.14-4.49.7-2,1.58-1.56,2.52l.07.15,0,.16a4.82,4.82,0,0,0,0,.76,4,4,0,0,0,.12.76c0,.12.08.25.12.36l.06.18,0,.17a1.53,1.53,0,0,1-.08.73,1.2,1.2,0,0,0-.07.77.66.66,0,0,0,.09.19.75.75,0,0,0,.13.18,3.31,3.31,0,0,0,.32.33,6.78,6.78,0,0,0,.82.53,4.92,4.92,0,0,0,.56.29,4.29,4.29,0,0,0,.63.23l.25.06a1.41,1.41,0,0,1,.13.18l.09.16c-.71,0-1.41,0-2.11.05l-1.11,0c-.35,0-.69,0-1,.06a5,5,0,0,1-1.22-1.57c-.07-.15-.13-.3-.18-.44a3.81,3.81,0,0,1-.13-.45,2.32,2.32,0,0,1-.06-.45c0-.15,0-.31,0-.47a1.44,1.44,0,0,0-.46-1,1.31,1.31,0,0,0-.74-.3,2.67,2.67,0,0,0-.4,0,.67.67,0,0,0-.3.07h0a.93.93,0,0,0-.2-.32,1.34,1.34,0,0,0-.49-.34,1.37,1.37,0,0,0-.44-.09H9.07a.53.53,0,0,0-.16,0,.43.43,0,0,0-.17.13.23.23,0,0,0,0,.25.93.93,0,0,0-.21-.05H8.44a.3.3,0,0,0-.22.11c-.05.1,0,.15,0,.19a.3.3,0,0,0,.08.08l0,.05a.53.53,0,0,0-.18,0c-.07,0-.15.06-.15.12s0,.05,0,.07a.11.11,0,0,1,0,.05,2,2,0,0,0,.26.38,1.5,1.5,0,0,0-.38-.16l-.16,0H7.63a.36.36,0,0,0-.24.13.32.32,0,0,0,0,.09v.06a.71.71,0,0,0,.18.28c.13.16.27.31.41.46q.42.45.81.9c.14.15.28.3.45.45a1.72,1.72,0,0,0,.59.3,7,7,0,0,0,.4,1.94,4.86,4.86,0,0,0,.48,1,1.77,1.77,0,0,0,.17.24c.07.07.12.15.2.22l.23.22.27.2,0,0h.05a3.88,3.88,0,0,0,.45.08l.44.05.88.05a12.29,12.29,0,0,0,1.49-.08,2.27,2.27,0,0,0-.19.34,4.65,4.65,0,0,0-.24.83,4.24,4.24,0,0,0-.06,1.57,1.66,1.66,0,0,0,.17.52,1,1,0,0,0,.11.18,3,3,0,0,1,0-.7c0-.42.16-1,.27-1.52.06-.28.11-.56.18-.81a4.07,4.07,0,0,1,.27-.67,4.33,4.33,0,0,1,.44-.63,2.54,2.54,0,0,0-.7.54,3,3,0,0,0-.22.28q-.77,0-1.5-.09l-.83-.1-.41-.07-.33-.08-.18-.14-.19-.2a1.63,1.63,0,0,1-.17-.2c-.06-.07-.1-.14-.15-.21s-.18-.3-.27-.45-.16-.3-.23-.46-.25-.63-.36-.95-.21-.64-.28-1l0-.06H10a1.38,1.38,0,0,1-.6-.24,2.94,2.94,0,0,1-.44-.42,7.63,7.63,0,0,1-.69-.95c-.11-.16-.23-.32-.32-.48l-.06-.1.19.1.27.16c.18.12.35.25.51.38l.58.46-.22-.57a1.24,1.24,0,0,0-.23-.42.9.9,0,0,0-.09-.1l-.1-.09-.18-.16c-.12-.11-.24-.22-.34-.33l0,0,0,0s0,0,0,0a.46.46,0,0,1,.21,0l0,0a.75.75,0,0,1,.13.11,5.31,5.31,0,0,0,.54.46,1.83,1.83,0,0,0,.3.2.64.64,0,0,0,0-.29A1.51,1.51,0,0,0,9,17.88l-.17-.13-.16-.1.19,0h0l.05.06a1.34,1.34,0,0,0,.36.18h.05s0,0,0,0a.33.33,0,0,1,.1.06l.19.15.41.31A1.19,1.19,0,0,0,9.89,18a.92.92,0,0,0-.13-.19l-.1-.11-.09-.06-.09-.05a.94.94,0,0,1-.18-.12l0,0h0a.66.66,0,0,1,.23,0,2.2,2.2,0,0,1,.47.19l.37.23s-.08.1-.07.14a.27.27,0,0,0,0,.12,3,3,0,0,0,.47.39s.07.07.06.07v0a.39.39,0,0,1-.1.17,1.67,1.67,0,0,0-.28.46.53.53,0,0,0,.12.48h0a.56.56,0,0,1,0-.44,2,2,0,0,1,.35-.37.69.69,0,0,0,.2-.24.21.21,0,0,0,0-.19.33.33,0,0,0-.1-.14,3,3,0,0,0-.26-.25H11a.76.76,0,0,1,.41.17,1.44,1.44,0,0,1,.38.78c0,.15,0,.3.07.46A1.89,1.89,0,0,0,12,20a4.68,4.68,0,0,0,.5.9l.59.84c.21.29.39.57.61.86l0,.05h.1c.38,0,.76,0,1.13,0s.75,0,1.12-.06.75-.07,1.12-.12.66-.1,1-.16a1.43,1.43,0,0,1,.08.22.84.84,0,0,1,0,.47.52.52,0,0,1-.07.15l0,0,.05,0A.79.79,0,0,0,18.4,23a1,1,0,0,0,.17-.5,2,2,0,0,0,0-.51h0l.28,0h.37l.37-.05.35-.08a5.83,5.83,0,0,0,.63-.22,5,5,0,0,0,1.06-.61l0,0a12,12,0,0,1-1.19.42c-.2.06-.41.11-.61.15l-.31.05-.3,0h-.3l-.31,0a3.87,3.87,0,0,1-.59-.13,5.58,5.58,0,0,1-.58-.18,5,5,0,0,1-.52-.24h0l-.43-.21-.4-.24a2.27,2.27,0,0,1-.35-.26,1,1,0,0,1-.15-.14.54.54,0,0,1-.1-.16.61.61,0,0,1-.08-.34,2.49,2.49,0,0,1,.09-.37,3.11,3.11,0,0,0,.23-.75,1.67,1.67,0,0,0,0-.39,3.58,3.58,0,0,0-.06-.37c-.05-.24-.1-.49-.13-.73,0-.09,0-.18,0-.27a1.57,1.57,0,0,0,.3.36l-.36-.8v0l1.35,1-.57-1.08,1.45,1.15L17.09,17l1.37.58-.37-1.11,1.18,1.11L19,16.89l.75.7-.24-1,1.36,1.21L20,16.26l1.88,1.33-.36-.9a2.72,2.72,0,0,1,1.16,1.78A2.14,2.14,0,0,1,22.2,20l.63-.68-.08.48a1.15,1.15,0,0,0,.58-.65s.71-.51,1.12-.32-.19,1.08-.75,1.45l-.35.23h0a2.46,2.46,0,0,0-.46.22,2.13,2.13,0,0,0-.46.32,1.35,1.35,0,0,0-.39.56.73.73,0,0,0,.25.74,2.07,2.07,0,0,0,1,.43,2.35,2.35,0,0,1,1,.39,2.14,2.14,0,0,1,.6.68,3.24,3.24,0,0,1,.19.37,4,4,0,0,1,.16.39,3.35,3.35,0,0,1,.16.75,8,8,0,0,1,0,1.37c0,.2-.05.39-.07.55s-.05.31-.07.43-.07.37-.07.37h.05a3.77,3.77,0,0,0,.6-1.33,3.35,3.35,0,0,0,.11-.67,2.91,2.91,0,0,0,0-.77A3.24,3.24,0,0,0,25.61,24.49Z"/><path class="cls-2" d="M21.6,25.79a2.87,2.87,0,0,0-.5,1A2.92,2.92,0,0,0,21,27.86a1.46,1.46,0,0,0,.11.48s.08-.19.18-.47.21-.64.32-1l.28-1c0-.14.07-.26.09-.34a.59.59,0,0,0,0-.13l-.12.1-.27.3"/><path class="cls-2" d="M2.63,3.41a1.52,1.52,0,0,1-.5.07A1.07,1.07,0,0,1,1,2.3,1.14,1.14,0,0,1,2.2,1.07a1.22,1.22,0,0,1,.43.06l-.09.23a.92.92,0,0,0-.35-.05c-.37,0-.8.24-.8,1s.39,1,.81,1a1.19,1.19,0,0,0,.37-.06Z"/><path class="cls-2" d="M3.14,2.61h0c0,.28.07.66.43.66S4,2.87,4,2.61,3.91,2,3.56,2s-.42.4-.42.66m1.24,0a.79.79,0,0,1-.83.87.77.77,0,0,1-.8-.87.8.8,0,0,1,.83-.88A.78.78,0,0,1,4.38,2.61Z"/><path class="cls-2" d="M4.77,2.2a4.34,4.34,0,0,0,0-.44h.35l0,.21h0a.69.69,0,0,1,.56-.24A.53.53,0,0,1,6.19,2h0a.64.64,0,0,1,.25-.19.74.74,0,0,1,.34-.07.54.54,0,0,1,.6.6V3.45H7V2.39C7,2.17,7,2,6.65,2a.37.37,0,0,0-.36.25.68.68,0,0,0,0,.15V3.45H5.88V2.34c0-.19,0-.38-.34-.38a.37.37,0,0,0-.37.27.77.77,0,0,0,0,.15V3.45H4.77Z"/><path class="cls-2" d="M8.28,2.83h0a.61.61,0,0,0,0,.14.38.38,0,0,0,.36.29c.33,0,.43-.31.43-.65S9,2,8.65,2a.38.38,0,0,0-.36.31.53.53,0,0,0,0,.13Zm-.4-.54c0-.26,0-.41,0-.53h.35l0,.21h0a.63.63,0,0,1,.53-.24c.43,0,.71.31.71.87s-.38.88-.76.88a.5.5,0,0,1-.43-.19h0v.84h-.4Z"/><path class="cls-2" d="M9.87,2.2c0-.15,0-.32,0-.44h.35l0,.26h0a.62.62,0,0,1,.53-.29h.08V2h-.08a.46.46,0,0,0-.48.35.76.76,0,0,0,0,.15v.94h-.4Z"/><path class="cls-2" d="M12.08,2.43h0c0-.34-.18-.49-.37-.49s-.39.26-.41.49Zm-.78.2c0,.52.3.63.59.63a1.43,1.43,0,0,0,.41-.06l.06.2a1.75,1.75,0,0,1-.54.08.81.81,0,0,1-.91-.86.81.81,0,0,1,.84-.89.68.68,0,0,1,.71.75.66.66,0,0,1,0,.15Z"/><path class="cls-2" d="M12.83,2.2c0-.2,0-.31,0-.44h.34l0,.2h0a.71.71,0,0,1,.57-.23.54.54,0,0,1,.6.58V3.45H14V2.36c0-.2-.06-.4-.35-.4a.37.37,0,0,0-.37.27.77.77,0,0,0,0,.15V3.45h-.39Z"/><path class="cls-2" d="M16,2.4h0a.45.45,0,0,0,0-.11A.37.37,0,0,0,15.58,2c-.33,0-.44.31-.44.65s.13.65.42.65A.38.38,0,0,0,15.93,3a.36.36,0,0,0,0-.11ZM16.34,1v2c0,.11,0,.31,0,.4H16l0-.21h0a.62.62,0,0,1-.52.24c-.42,0-.72-.31-.72-.87a.78.78,0,0,1,.75-.88.53.53,0,0,1,.45.2h0V1Z"/><path class="cls-2" d="M17.89,2.43h0c0-.34-.18-.49-.36-.49s-.39.26-.41.49Zm-.77.2c0,.52.3.63.58.63a1.37,1.37,0,0,0,.41-.06l.07.2a1.77,1.77,0,0,1-.55.08.81.81,0,0,1-.9-.86.81.81,0,0,1,.84-.89.67.67,0,0,1,.7.75v.15Z"/><path class="cls-2" d="M18.91,1.89h0a3.39,3.39,0,0,1,.46-.81l.23,0a3.46,3.46,0,0,0-.29.8Zm.68,0a3.39,3.39,0,0,1,.46-.81l.23,0a4,4,0,0,0-.29.8Z"/><path class="cls-2" d="M21.93,3c0,.19,0,.34,0,.46H21.6l0-.17h0a.77.77,0,0,1-.53.2c-.44,0-.61-.23-.61-.65V1.76h.4v1c0,.27.06.47.33.47A.34.34,0,0,0,21.51,3a.39.39,0,0,0,0-.15V1.76h.4Z"/><path class="cls-2" d="M22.82,2.83h0a.61.61,0,0,0,0,.14.38.38,0,0,0,.37.29c.32,0,.42-.31.42-.65S23.5,2,23.19,2a.38.38,0,0,0-.36.31.53.53,0,0,0,0,.13Zm-.4-.54c0-.26,0-.41,0-.53h.36l0,.21h0a.6.6,0,0,1,.52-.24c.43,0,.71.31.71.87s-.37.88-.76.88a.5.5,0,0,1-.43-.19h0v.84h-.4Z"/><path class="cls-2" d="M25.34,2.58h0c-.21,0-.68,0-.68.39a.28.28,0,0,0,.3.3A.37.37,0,0,0,25.33,3a.38.38,0,0,0,0-.1Zm.05.87,0-.17h0a.6.6,0,0,1-.49.2c-.33,0-.59-.19-.59-.48s.5-.62,1.06-.62v0c0-.23-.08-.39-.4-.39a1.07,1.07,0,0,0-.41.09l-.08-.19A1.48,1.48,0,0,1,25,1.73c.49,0,.71.22.71.61v.73a2.24,2.24,0,0,0,0,.38Z"/><path class="cls-2" d="M26.64,1.06h0a3.2,3.2,0,0,1-.47.81l-.23,0a4,4,0,0,0,.29-.8Zm.67,0a2.92,2.92,0,0,1-.46.81l-.23,0a3.46,3.46,0,0,0,.29-.8Z"/><path class="cls-2" d="M26.73,3.9a3.83,3.83,0,0,0,.3-.82l.44,0a3.36,3.36,0,0,1-.47.83Z"/><path class="cls-2" d="M.92,5.05h0a3.39,3.39,0,0,1,.46-.81l.23,0a3.3,3.3,0,0,0-.29.8Zm.68,0a3.77,3.77,0,0,1,.46-.81l.23,0A3.78,3.78,0,0,0,2,5Z"/><path class="cls-2" d="M2.8,4.91l.31,1c0,.11.07.26.1.41h0c0-.14.07-.28.1-.41l.31-1H4l-.65,1.7H3l-.64-1.7Z"/><path class="cls-2" d="M5.31,5.59h0c0-.34-.18-.49-.37-.49s-.39.26-.41.49Zm-.78.2c0,.52.3.63.59.63a1.12,1.12,0,0,0,.41-.07l.06.2a1.5,1.5,0,0,1-.54.08.79.79,0,0,1-.9-.85A.8.8,0,0,1,5,4.89a.68.68,0,0,1,.71.75.66.66,0,0,1,0,.15Z"/><path class="cls-2" d="M6.06,5.35c0-.2,0-.3,0-.44h.34l0,.21h0A.71.71,0,0,1,7,4.89a.54.54,0,0,1,.6.58V6.61H7.19V5.52c0-.2-.06-.41-.35-.41a.38.38,0,0,0-.37.28.68.68,0,0,0,0,.15V6.61H6.06Z"/><path class="cls-2" d="M8.49,4.22h0A3.39,3.39,0,0,1,8,5l-.23,0a4,4,0,0,0,.3-.8Zm.68,0A3.77,3.77,0,0,1,8.71,5l-.24,0a3.48,3.48,0,0,0,.3-.8Z"/><path class="cls-2" d="M8.58,7.05a3.56,3.56,0,0,0,.3-.81l.44,0A3.36,3.36,0,0,1,8.85,7Z"/><path class="cls-2" d="M10,5.05h0a3.76,3.76,0,0,1,.47-.81l.23,0a3.31,3.31,0,0,0-.3.8Zm.68,0a3.76,3.76,0,0,1,.47-.81l.23,0a3.31,3.31,0,0,0-.3.8Z"/><path class="cls-2" d="M12.56,6.57a1.11,1.11,0,0,1-.41.06.81.81,0,0,1-.91-.86.89.89,0,0,1,1-.88,1.08,1.08,0,0,1,.35.05l-.08.22a.83.83,0,0,0-.28,0,.58.58,0,0,0-.57.65.56.56,0,0,0,.58.64.88.88,0,0,0,.29,0Z"/><path class="cls-2" d="M12.85,4.18h.39V5.1h0a.59.59,0,0,1,.2-.15.83.83,0,0,1,.34-.06.54.54,0,0,1,.58.6V6.61H14V5.52c0-.21-.07-.41-.33-.41a.39.39,0,0,0-.39.27.57.57,0,0,0,0,.13v1.1h-.39Z"/><path class="cls-2" d="M15.79,5.73h0c-.21,0-.68,0-.68.4a.28.28,0,0,0,.3.3.37.37,0,0,0,.37-.26.28.28,0,0,0,0-.09Zm.05.88,0-.18h0a.62.62,0,0,1-.49.21c-.33,0-.59-.19-.59-.48s.5-.62,1.06-.62v0c0-.23-.09-.39-.4-.39a1.07,1.07,0,0,0-.41.09L14.89,5a1.46,1.46,0,0,1,.57-.11c.5,0,.72.22.72.6v.74a2.3,2.3,0,0,0,0,.38Z"/><path class="cls-2" d="M18.16,6.15c0,.19,0,.34,0,.46h-.34l0-.18h0a.69.69,0,0,1-.53.21c-.43,0-.6-.23-.6-.65V4.91h.39V6c0,.27.06.46.33.46a.35.35,0,0,0,.36-.22.78.78,0,0,0,0-.16V4.91h.39Z"/><path class="cls-2" d="M19.09,4.22h0a3.76,3.76,0,0,1-.47.81l-.23,0a4,4,0,0,0,.29-.8Zm.67,0A3.08,3.08,0,0,1,19.3,5l-.23,0a4,4,0,0,0,.29-.8Z"/><path class="cls-2" d="M25.27,18.74a6.19,6.19,0,0,0-.9,3c.13,1.21.44,1.37.44,1.37s-.87-.68-.91-1.1a1,1,0,0,0,.19.62,1.33,1.33,0,0,1-.82-.66c-.26-.53.12.64.12.64l-.58-.77c0-.07.2,1,0,.82s-.85-1.32,0-1.74a6.54,6.54,0,0,0,2.47-2.14"/></svg>