<svg id="Capa_1" data-name="Capa 1" xmlns="http://www.w3.org/2000/svg" viewBox="0 0 29.77 27.54"><defs><style>.cls-1{fill:#f5a4c7;}.cls-2{fill:#fbc9b5;}.cls-3{fill:#231f20;}</style></defs><title>5-6meses</title><rect class="cls-1" x="5.72" y="12.52" width="11.31" height="11.12"/><path class="cls-1" d="M24.39,22.28c-.83.31-1.63,1.23-1.61,1.62S26,25.54,26,25.58s-.43,1.34-.43,1.34,3.09,0,3.22-1.18.2-2.49.2-2.49Z"/><path class="cls-2" d="M16.18,24.92s-.63-.38-1-.61-.8-.61-1-.61-.32.31-.43.38-.18-.18-.18.1-.18.1-.15.28-.2.19-.09.36.1,0,.19.28a4.66,4.66,0,0,0,1.23,1.2,2.06,2.06,0,0,0,1.56.47,4.67,4.67,0,0,1,.66-.26,11.26,11.26,0,0,0,2.52-.11.76.76,0,0,1,.37-.31,10.71,10.71,0,0,0,3,1,10.74,10.74,0,0,0,3.54-.41c.19-.1,1.12-.58.84-1.18a3,3,0,0,0-1.21-1.34c-.3-.09-.13-.14-.72-.23s-1.48-.2-1.48-.2l-1-.2,3.51-.39h2.12s-.72-1.69-1-2.17a17.82,17.82,0,0,0-1.9-2.34c-.44-.37-.88-.5-1-.78a11.12,11.12,0,0,0-.07-1.73,1.67,1.67,0,0,0-.94-1.44c-.42-.23-2.41-1.92-3.48-1.45s-1.45.89-1.34,1.63.77.89.57,1.28-.52.29-.43.48a1.15,1.15,0,0,0,.43.35s-.17.27.08.35.32,0,.32,0l.17-.05a.4.4,0,0,1-.27.26c-.19,0-.34.12-.25.18a1.94,1.94,0,0,0,.26.13s-.29.26.37.39a8.13,8.13,0,0,0,1.65.07,3.41,3.41,0,0,0-.1.55c0,.06,0,.68,0,.71a.77.77,0,0,1-.28.38,2.93,2.93,0,0,1-1.17-.19,9.07,9.07,0,0,1-2.21-1.29,1,1,0,0,0-.75-.34c-.3,0-.44,0-.54.08s-.57,0-.58.24.14.17.32.31.2.15.13.32-.51.29-.51.29-.19.05.2.16-.3.08-.1.19a3.34,3.34,0,0,0,.9.09.33.33,0,0,0,.17.46c.32.14-.27,0,.61.16a2.18,2.18,0,0,1,1.28.64.39.39,0,0,1,.24.33c0,.23-.16.44-.09.71s.41.28.49.31.39.23.74.4,1.87.67,1.87.67-1.65-.21-2.08-.21a2.74,2.74,0,0,0-1.58.17c-.73.33-.22.15-.32.09s-.18-.26-.31-.31-.13-.09-.34,0-.68.54-.62.74a3,3,0,0,1,.09.38Z"/><path class="cls-3" d="M28.73,24.92h0a2.3,2.3,0,0,1-.31,1.15,1.31,1.31,0,0,1-.52.43,2.84,2.84,0,0,1-.75.2l-.52.05a2.22,2.22,0,0,0,.75-.51.77.77,0,0,0,.21-.41.7.7,0,0,0-.06-.43,3,3,0,0,0-.41-.71,1.42,1.42,0,0,0-.32-.33,2.67,2.67,0,0,0-.41-.28,2.72,2.72,0,0,0-.5-.19,5.23,5.23,0,0,0-.54-.12,6.68,6.68,0,0,0-1.09,0h-.15l-1-.2.42-.06.87-.06c.58,0,1.16-.06,1.74-.11s1.15-.11,1.72-.12a2.23,2.23,0,0,1,.76.06c.09,0,.1.06.11.18l0,.29a9.61,9.61,0,0,1,0,1.2m-3.53,2h0l-.41,0-.41,0h-.82l-.4,0a2.57,2.57,0,0,1-.4-.05l-.4-.06L22,26.75c-.26-.07-.51-.13-.75-.21a7.1,7.1,0,0,1-.69-.28,4.51,4.51,0,0,1-.62-.33.32.32,0,0,0-.34,0l0,0-.08.06-.12.05a2,2,0,0,1-.29.08,4.73,4.73,0,0,1-.68.07,13.45,13.45,0,0,1-1.42,0h0a.26.26,0,0,0-.24.1l-.14.15a.54.54,0,0,1-.18.11.41.41,0,0,1-.19.05.27.27,0,0,1-.09,0l-.11,0-.26-.1-.27-.11L15,26.16l-.48-.27-.22-.15-.09-.07-.08-.09a2.48,2.48,0,0,1-.29-.37c0-.07-.08-.13-.13-.21l.05,0h0a.1.1,0,0,0,.07,0c0-.05,0-.11-.07-.14l-.15-.07-.07,0h0l.12.06a.15.15,0,0,0,.13,0c.06,0,.07-.08,0-.11h0l-.1-.07a.29.29,0,0,0-.1,0l0,0a.19.19,0,0,1-.06-.07l0,0v0h.13a1.12,1.12,0,0,1,.26.08h0a.14.14,0,0,0,.11,0s0-.07,0-.09l-.17-.06-.08,0a.28.28,0,0,1-.08-.06s0,0,0,0v-.05h0l.11,0,.1.05.08.05,0,0h0a.09.09,0,0,0,.09,0,0,0,0,0,0,0-.07l-.18-.1s-.06-.07-.05-.1.05-.06.11-.09l.19-.06c.07,0,.06,0,.1,0a.92.92,0,0,0,.14.14.94.94,0,0,0,.23.1l.19.06a3,3,0,0,1,.63.43A6.68,6.68,0,0,1,16,25a.24.24,0,0,0,.19,0h0a7.26,7.26,0,0,0,1.74-1,6,6,0,0,1,.82-.46,4.43,4.43,0,0,1,.44-.14l.26,0h.26c.72,0,1.47.07,2.2.14l1.09.11a.58.58,0,0,0,.18.08,5.16,5.16,0,0,0,.54.05l.53,0a6.74,6.74,0,0,1,1,.13,3.28,3.28,0,0,1,.85.34,2,2,0,0,1,.57.55,2.93,2.93,0,0,1,.35.65.52.52,0,0,1-.1.58,3.47,3.47,0,0,1-1.56.78h0l-.05,0ZM13.65,25Zm-.14-.34h0s0,0,0,0ZM17.23,24h0a.51.51,0,0,1,.16-.21l.14-.12.14-.14.13-.12.1-.07s0,0,0,0h0l0,0,.07,0,.15.11a5.31,5.31,0,0,0-.53.32l-.48.34A.71.71,0,0,1,17.23,24Zm6.56-.25h-.07l-.52,0-.1,0Zm-3.64-1.15h0a3.73,3.73,0,0,1-.63-.32.74.74,0,0,1-.23-.18,0,0,0,0,1,0,0l0,0a.18.18,0,0,0,0-.2.33.33,0,0,1,0-.1s0,0,.06-.06a.42.42,0,0,0,.14-.31.81.81,0,0,0,0-.15v0l.12,0h.08c.11,0,.2-.07.2-.15h0a.34.34,0,0,1,0-.18h0s.1.08.16.11a.93.93,0,0,0,.19.11.31.31,0,0,1,.12.07.24.24,0,0,1,.08.09,1.09,1.09,0,0,0,.18.29.49.49,0,0,0,.11.07l.14.05h.25a4,4,0,0,0,.71-.12v0a.75.75,0,0,0,.1.34H22a1.49,1.49,0,0,0,.22-.3,1.26,1.26,0,0,0,.14-.31c0-.12,0-.24.07-.37s.15-.5.21-.69l.12-.31s0,0,0,0h0s-.1.11-.23.28a5,5,0,0,0-.42.66c-.07.13-.14.25-.19.37a1.13,1.13,0,0,0,0,.25h-.11v-.1a2.25,2.25,0,0,0,0-.37,3,3,0,0,0,0-.5c0-.09,0-.19-.05-.29s-.05-.2-.07-.3a.79.79,0,0,1-.05-.3,1,1,0,0,1,.08-.29,1.12,1.12,0,0,0,.1-.27,2.24,2.24,0,0,0,0-.24,1.73,1.73,0,0,0,0-.37.14.14,0,0,0,0-.06H22l.3,0h0a.06.06,0,0,1,0,.05.22.22,0,0,1,0,.16h0c0,.06,0,.11.13.12a.13.13,0,0,0,.16-.09.49.49,0,0,0,0-.24.24.24,0,0,0-.11-.14.22.22,0,0,0-.12-.05h-.12l-.3,0-.3,0a11.76,11.76,0,0,1-1.19,0l-.29,0a1,1,0,0,1-.26-.06c-.08,0-.14-.06-.16-.11s0-.1,0-.19a.1.1,0,0,0,0-.08.1.1,0,0,0-.05,0h0l-.1,0s0,0,.07-.06a.38.38,0,0,0,.31-.13.46.46,0,0,0,.13-.21,0,0,0,0,0,0,0s-.06,0-.1,0h0a3.13,3.13,0,0,1-.43,0h-.09l-.09,0s-.06,0-.05-.09a.27.27,0,0,1,.06-.12s0,0,.06-.1-.08-.08-.1-.1-.27-.12-.31-.19.06-.15.15-.23a1,1,0,0,0,.27-.27.38.38,0,0,0-.05-.33,2.91,2.91,0,0,0-.17-.3,2.61,2.61,0,0,1-.3-.57,1,1,0,0,1,0-.6,2.29,2.29,0,0,1,.1-.23l.66,1.05,0-1,.41.63-.2-.81.75.91.37.55-.16-1,.53.88,0-.67.69.82.46.47-.1-.47.48.55-.1-.52c0-.42,0-.25,0-.25a.92.92,0,0,0,.23.53,1.13,1.13,0,0,1-.34.71l.35-.24v0h0l-.11.32c.43-.29.51-.39.9-.38h0s0,0,0,0v0a.34.34,0,0,1,0,.18.92.92,0,0,1-.51.66.83.83,0,0,1-.35.09h-.14l0,0,.16,0a1.2,1.2,0,0,0,.43-.05,1.39,1.39,0,0,0,.26-.1l.23-.17a1.07,1.07,0,0,0,.31-.45.65.65,0,0,0,0-.21.44.44,0,0,1,.2.45l-.1.4a.68.68,0,0,0-.12.44.71.71,0,0,0,.17.36,1.21,1.21,0,0,0,.16.16l.16.12c.21.14.4.3.59.45a10.47,10.47,0,0,1,1.85,2.12c.25.38.49.76.71,1.15a7.43,7.43,0,0,1,.49,1,4.73,4.73,0,0,0-.53,0,14.76,14.76,0,0,0-1.77.1c-.58.06-1.15.15-1.72.24-.29.05-.57.09-.85.15a3,3,0,0,0-.43.08l-.06,0-.14,0,.21,0a2.37,2.37,0,0,0,1.63-1.29l.22-.52a10.38,10.38,0,0,0,.39-1.06,1.2,1.2,0,0,0-.13-1.1,0,0,0,0,0,0,0l0,0a1.39,1.39,0,0,1-.14,1c-.16.33-.34.67-.53,1a4.77,4.77,0,0,1-.54,1,1.88,1.88,0,0,1-1,.66l-.16,0h-.15a1.65,1.65,0,0,1-.33,0L21.58,23A12.54,12.54,0,0,1,20.15,22.59Zm-1.42-1.95h0a1.35,1.35,0,0,0-.32-.09l-.33-.1a1.63,1.63,0,0,0-.36-.13l-.3-.08a.65.65,0,0,1-.19-.1s0,0,0-.08V19.9a.9.9,0,0,1,.06-.27l0,0a.44.44,0,0,0,.25.21h0s0,0,0,0a.33.33,0,0,1-.11-.24.37.37,0,0,1,.05-.11.43.43,0,0,1,.07-.1s0,0,0,0,0-.1-.1-.11h0a2.07,2.07,0,0,1-.33-.1L16.87,19h.53a.17.17,0,0,0,.16-.06c0-.06,0-.12-.08-.15a2.35,2.35,0,0,1-.7-.32.57.57,0,0,1-.11-.11s0-.07,0-.09a.66.66,0,0,1,.36,0,1.59,1.59,0,0,1,.39.09.51.51,0,0,1,.15.07l.11.1a5.92,5.92,0,0,0,.5.51,4.12,4.12,0,0,0,.67.45l.39.17c.13.05.27.11.41.15a5.56,5.56,0,0,0,.85.22A3.59,3.59,0,0,0,21,20h.32a1.34,1.34,0,0,0-.07.27c0,.1,0,.2,0,.3a1.33,1.33,0,0,0,0,.28,1.84,1.84,0,0,0,.09.25,1.51,1.51,0,0,0,.23.35l.08.08h-.5l-.17,0-.05,0,0,0a1.42,1.42,0,0,1-.1-.26.51.51,0,0,0-.11-.16,1.07,1.07,0,0,0-.19-.13.49.49,0,0,1-.13-.08l-.13-.11-.08-.06a.42.42,0,0,0-.22-.08.44.44,0,0,0-.24.06l-.12.09a.46.46,0,0,0-.09.19h0a.61.61,0,0,0-.29.08,1,1,0,0,0-.23-.2A1.26,1.26,0,0,0,18.73,20.64ZM29,23.25c0-.08-.1-.13-.18-.17a1.46,1.46,0,0,0-.34-.1,6.06,6.06,0,0,0-.39-1.08,12.16,12.16,0,0,0-.61-1.19,9.15,9.15,0,0,0-1.78-2.22c-.19-.17-.39-.33-.6-.49l-.14-.11-.1-.11a.41.41,0,0,1,0-.49c.54-.51,2.13-.39,2.22-2.08s-2.1-2.8-3.17-2.93a6.85,6.85,0,0,0-3.45.38l-.12,0a2.71,2.71,0,0,0-.42.2l0,0a2,2,0,0,0-1.3,2.18l.17-.51a1.08,1.08,0,0,0,0,.35,2.93,2.93,0,0,0,.33.6l.17.28c.05.1.1.2.06.27a1,1,0,0,1-.25.24.86.86,0,0,0-.13.14.17.17,0,0,0,0,.19,1,1,0,0,0,.36.23l0,0s0,0,0,.05a.48.48,0,0,0-.08.16.17.17,0,0,0,.13.19l.13,0h.13l.32,0a.21.21,0,0,1-.06.08.23.23,0,0,1-.18.08.24.24,0,0,0-.19.07.1.1,0,0,0,0,.16.32.32,0,0,0,.15.08l0,0h0a.4.4,0,0,0,0,.22.34.34,0,0,0,.24.19,1.67,1.67,0,0,0,.3.08l.31.05a10.31,10.31,0,0,0,1.11.05,1.13,1.13,0,0,0-.2.4,1,1,0,0,0,0,.25,1.4,1.4,0,0,0,.06.28.77.77,0,0,1,0,.3.88.88,0,0,1-.06.27,3.77,3.77,0,0,1-.7-.17l-.75-.3-.36-.16-.34-.17a4.78,4.78,0,0,1-.63-.38c-.2-.14-.35-.29-.58-.46a.86.86,0,0,0-.19-.11,1.09,1.09,0,0,0-.24-.07,1.56,1.56,0,0,0-.48,0,1,1,0,0,0-.48.1.14.14,0,0,0-.05.19.57.57,0,0,0,.12.15c.06.06.14.11.21.17h-.19l-.11,0a.28.28,0,0,0-.12.08.15.15,0,0,0,0,.12s0,.06,0,.09.07.07.1.11l0,0h0a2,2,0,0,0,.4.17l.3.07v0a.2.2,0,0,0,0,.11l-.14,0a.87.87,0,0,0-.32.27.63.63,0,0,0-.08.23.28.28,0,0,0,0,.17.35.35,0,0,0,.16.16,1,1,0,0,0,.41.13,1.84,1.84,0,0,0,.41,0,.55.55,0,0,1,.3,0,.66.66,0,0,1,.26.15,1.57,1.57,0,0,0,.21.17,1,1,0,0,0,.23.12l.38.14v.23a.27.27,0,0,1,0,.2l0,0,0,.05a.15.15,0,0,0,0,.11.48.48,0,0,0,.07.16s0,0,0,.06a.23.23,0,0,0,0,.11.14.14,0,0,0,.05.09,1,1,0,0,0,.31.2c.22.11.42.22.65.32l1.4.52.45.15a17.45,17.45,0,0,0-2.2-.21c-.1,0-.2,0-.3,0a2.16,2.16,0,0,0-.29,0,2.41,2.41,0,0,0-.59.16l-.24.12a.74.74,0,0,0,0-.14l0-.07,0,0,0,0a.34.34,0,0,0-.16-.09.49.49,0,0,0-.24,0,.71.71,0,0,0-.29.13l-.18.14-.14.15-.12.16A.41.41,0,0,0,17,24a.45.45,0,0,0,.13.25l-.23.16a3.59,3.59,0,0,1-.71.42c-.18-.13-.35-.27-.54-.4A5.32,5.32,0,0,0,14.9,24l-.23-.07-.17-.06a.68.68,0,0,1-.12-.12.26.26,0,0,0-.13-.07.39.39,0,0,0-.16,0l-.22.08a.28.28,0,0,0-.17.15s0,0,0,.05l-.08,0a.28.28,0,0,0-.13,0,.18.18,0,0,0-.05.08s0,0,0,.07l0,.06c-.07,0-.19.06-.2.12a.17.17,0,0,0,0,.07.14.14,0,0,0,0,.07l.07.08h0l0,0,0,0s0,.06,0,.08.09.15.15.2h0a.15.15,0,0,0-.07.1.13.13,0,0,0,0,.11c0,.06.06.13.1.2a2.42,2.42,0,0,0,.29.42.43.43,0,0,0,.09.1.52.52,0,0,0,.11.1l.23.18a5.09,5.09,0,0,0,.5.3l.54.26.28.13.3.11.2.05a.89.89,0,0,0,.23,0,1.07,1.07,0,0,0,.41-.09,1.4,1.4,0,0,0,.3-.18l.12-.12a12.32,12.32,0,0,0,1.36,0,5.24,5.24,0,0,0,.77-.1,1.9,1.9,0,0,0,.39-.11l.18-.08.52.25c.25.1.5.19.77.27s.53.14.8.2a8,8,0,0,0,.84.11c.14,0,.29,0,.43,0a3,3,0,0,0,.42,0,7.94,7.94,0,0,0,.85,0c.28,0,.55-.08.83-.12h0v0a.2.2,0,0,0,.23.14c.33,0,.6-.05.9-.08l.87-.13a2.52,2.52,0,0,0,.84-.28,1.43,1.43,0,0,0,.54-.52,1.72,1.72,0,0,0,.21-.6c0-.2,0-.4.05-.6l.1-1.2,0-.31A.36.36,0,0,0,29,23.25Z"/><polygon class="cls-3" points="18.52 15.09 18.52 15.09 18.49 15.16 18.52 15.09"/><path class="cls-3" d="M19.37,15.48a.64.64,0,0,1,.76-.13,8.24,8.24,0,0,0,1,.3,4.89,4.89,0,0,0-1.37-.48c-.47,0-.38.31-.38.31"/><path class="cls-3" d="M19.74,15.75c0-.05.12,0,.12,0a.28.28,0,0,0,.3.23c.24,0,.08-.22.08-.22l.43.08a3.24,3.24,0,0,0-.73-.2c-.28,0-.2.14-.2.14"/><path class="cls-3" d="M19.81,16.81c-.09,0-.1-.06-.19,0s-.13.1.08.1.29-.14.18-.21,0,.13-.07.15"/><path class="cls-3" d="M16.63,18.38l-.31.05s-.06,0,0,0l0,0v0s0,0,0,0a.57.57,0,0,0,.17.1l.24.13.06,0s0,.05,0,.08l-.13.28v0a0,0,0,0,1-.05,0,1.91,1.91,0,0,0-.34.1.74.74,0,0,0-.13.08l0,0s0,0,0,0,0,0,0,0,0,0,0,0h.23l.36,0c.13,0,.24.06.25.15s-.06.15-.17.17h0a3.09,3.09,0,0,0-.35.07l-.06,0h0s0,0,0,0,0-.13,0-.12h0s0,0,0,0l0,0,.12.05.19,0,.41.07a0,0,0,0,1,0,0l0,0a2.72,2.72,0,0,1-.43.09h-.24a1,1,0,0,1-.28-.05h-.05l0,0-.05,0c-.05,0-.15-.15-.07-.24a.2.2,0,0,1,.08-.08l.08,0a.43.43,0,0,1,.13-.05,2,2,0,0,1,.47-.07l0,.32a2.85,2.85,0,0,1-.41,0,.86.86,0,0,1-.21,0,.34.34,0,0,1-.12,0s-.11-.06-.12-.11,0-.1.05-.14l.1-.05.19-.06.35-.13-.06.06a2.5,2.5,0,0,0-.05-.29l.1.12a1.85,1.85,0,0,1-.33-.12.7.7,0,0,1-.26-.23.19.19,0,0,1,0-.08s0,0,0,0,.05-.09.09-.12a.42.42,0,0,1,.25-.06.8.8,0,0,1,.36.09s0,0,0,0h0"/><path class="cls-3" d="M5.72,19.13c.2-.22.41-.43.63-.64s.39-.33.6-.49l.14-.11s.08-.07.1-.11a.45.45,0,0,0,.11-.23.71.71,0,0,0-.24-.49l-.24-.26a.68.68,0,0,0-.12-.12l-.13-.13a3.26,3.26,0,0,1-.85-1.09v-1a1.45,1.45,0,0,1,.26-.4,4.31,4.31,0,0,1,1.29-1,6.4,6.4,0,0,1,1.52-.58h2.32c.22.05.42.1.64.17a2.4,2.4,0,0,1,.74.43,2.38,2.38,0,0,1,.8,1.16,1.11,1.11,0,0,1,0,.65,2.93,2.93,0,0,1-.33.6l-.17.28c0,.1-.1.2-.06.27a1,1,0,0,0,.25.24,1.85,1.85,0,0,1,.14.14.17.17,0,0,1,0,.19,1,1,0,0,1-.35.23s-.06,0,0,0l0,.05a.48.48,0,0,1,.08.16.17.17,0,0,1-.13.19l-.13,0h-.13a2.42,2.42,0,0,1-.47-.05l.1-.06a.62.62,0,0,0,.11.17.25.25,0,0,0,.18.08.27.27,0,0,1,.2.07.1.1,0,0,1,0,.16.29.29,0,0,1-.14.08l0,0h0a0,0,0,0,0,0,0,.51.51,0,0,1,0,.22.38.38,0,0,1-.24.19,2,2,0,0,1-.31.08l-.31.05c-.41,0-.82.05-1.23.05h-.3l-.31,0h0s0,0,0,.05a.45.45,0,0,0,0,.16h0s0,.11-.11.12a.18.18,0,0,1-.18-.08h0a.49.49,0,0,1,0-.24.24.24,0,0,1,.11-.14.26.26,0,0,1,.12-.05h.13a1.6,1.6,0,0,0,.3,0l.29,0a11.76,11.76,0,0,0,1.19,0l.29,0a1.07,1.07,0,0,0,.27-.06c.08,0,.13-.06.15-.11s0-.1,0-.19a.1.1,0,0,1,0-.08s0,0,.05,0h0l.1,0s0,0-.07-.06a.39.39,0,0,1-.31-.13.57.57,0,0,1-.13-.21s0-.06.06-.06a0,0,0,0,1,0,0h0a2.85,2.85,0,0,0,.42,0h.1l.08,0s.06,0,.05-.09a.27.27,0,0,0-.06-.12s0,0-.05-.1.07-.08.09-.1a.79.79,0,0,0,.31-.19c.05-.06,0-.15-.14-.23a1.19,1.19,0,0,1-.28-.27.38.38,0,0,1,.05-.33l.17-.3a2.61,2.61,0,0,0,.3-.57,1,1,0,0,0,0-.6,2.25,2.25,0,0,0-.81-1.06,2,2,0,0,0-.67-.35,7.18,7.18,0,0,0-.83-.19,4.62,4.62,0,0,0-1.7,0,5.7,5.7,0,0,0-1.51.58,3.85,3.85,0,0,0-1.16.88,1.1,1.1,0,0,0-.22,1.09,2.88,2.88,0,0,0,.79,1l.14.13.13.14.24.27a.94.94,0,0,1,.29.69.64.64,0,0,1-.17.36.81.81,0,0,1-.16.16l-.16.12c-.2.14-.4.3-.59.45a8.88,8.88,0,0,0-1,1Z"/><path class="cls-3" d="M9,16.28l-.14-.06a1.82,1.82,0,0,0-.33-.11H8.39l-.05,0,0,0h0s0,0,0,0l-.05,0,0,0h0s0,0,0,0l0,0a.34.34,0,0,0,0,.18.92.92,0,0,0,.51.66.86.86,0,0,0,.35.09h.15v0l-.16,0a1.2,1.2,0,0,1-.43-.05,1.09,1.09,0,0,1-.25-.1A1.37,1.37,0,0,1,8.11,17a1.1,1.1,0,0,1-.32-.45.59.59,0,0,1,0-.27v-.08a.41.41,0,0,1,0-.09A.59.59,0,0,1,7.9,16l0,0H8l0,0,.1,0a.56.56,0,0,1,.23,0,.73.73,0,0,1,.37.08.65.65,0,0,1,.28.27.49.49,0,0,1,0,.11Z"/><path class="cls-3" d="M13.5,15.09a2,2,0,0,0-1.29-2.18,7.67,7.67,0,0,0-1-.39H7.29a4.53,4.53,0,0,0-1.57,1v3c.57.38,1.31.45,1.58.81l-.11-.55.54.63-.18-.71s-.09-.49.48-.52.61,0,1.1.37L9,16.22l.38.26a1.09,1.09,0,0,1-.33-.71,1,1,0,0,0,.22-.53s0-.17,0,.25l-.1.52.48-.55-.1.47.46-.47.69-.82,0,.67.54-.88-.17,1,.38-.55.74-.91-.2.81.41-.63,0,1,.78-1.24.43,1.27Z"/><path class="cls-3" d="M12.65,15.48a.64.64,0,0,0-.76-.13,8.41,8.41,0,0,1-1,.3,4.79,4.79,0,0,1,1.36-.48c.47,0,.38.31.38.31"/><path class="cls-3" d="M12.28,15.75s.08-.15-.2-.14a3.24,3.24,0,0,0-.73.2l.43-.08s-.16.2.08.22a.29.29,0,0,0,.31-.23s.09,0,.11,0"/><path class="cls-3" d="M12.4,16.77c.14.05.13.1-.08.09s-.29-.13-.17-.2,0,.13.06.15.11-.06.19,0"/><path class="cls-3" d="M11,20a2.54,2.54,0,0,0,.72-.18l.67-.28.32-.15.3-.16a4.43,4.43,0,0,0,.56-.35c.17-.13.31-.28.51-.43a.79.79,0,0,1,.19-.11l.21-.07a1.66,1.66,0,0,1,.44,0,.84.84,0,0,1,.44.1.13.13,0,0,1,0,.18.45.45,0,0,1-.1.14,2.61,2.61,0,0,1-.59.42l-.12-.21a2.86,2.86,0,0,1,.53-.06h.08l.09,0,.11,0a.23.23,0,0,1,.11.09.15.15,0,0,1,0,.11s0,.05,0,.08a.27.27,0,0,1-.08.1l0,0h0l-.36.16a1.93,1.93,0,0,1-.43.08l.11-.16a.4.4,0,0,1,.06.16.45.45,0,0,1,0,.16.43.43,0,0,1-.26.23,0,0,0,0,1,0,0s0,0,0,0a.28.28,0,0,0,.09-.23.42.42,0,0,0,0-.1.35.35,0,0,0-.07-.09.08.08,0,0,1,0-.14h.08a1.25,1.25,0,0,0,.29-.1,1.59,1.59,0,0,0,.26-.14l0,0,0,0h0a.08.08,0,0,0,0,0l0,0h-.07a3.19,3.19,0,0,0-.43,0h0c-.09,0-.16,0-.17-.1a.11.11,0,0,1,.09-.11,2,2,0,0,0,.63-.3c.08-.06.15-.15.09-.18a.62.62,0,0,0-.32,0,1.8,1.8,0,0,0-.35.08l-.13.07-.09.09a3.79,3.79,0,0,1-.44.47,2.89,2.89,0,0,1-.59.43l-.36.17-.36.13a4.08,4.08,0,0,1-.78.21,3,3,0,0,1-.42.06A1.26,1.26,0,0,1,11,20s0,0,0,0h0Z"/><path class="cls-3" d="M13,21.13a.82.82,0,0,1,.29-.34,1.07,1.07,0,0,1,.21-.13l.29-.08a1.58,1.58,0,0,0,.31-.09,1.33,1.33,0,0,1,.33-.13,1.15,1.15,0,0,0,.26-.08.32.32,0,0,0,.15-.09h0v-.06a.75.75,0,0,0,0-.15.87.87,0,0,0-.08-.35s0,0,0,0,0,0,0,0a.52.52,0,0,1,.15.06.67.67,0,0,1,.3.24.58.58,0,0,1,.08.22v.06a.17.17,0,0,1,0,.08.29.29,0,0,1-.13.16.93.93,0,0,1-.38.14,1.25,1.25,0,0,1-.39,0,.52.52,0,0,0-.27,0,.76.76,0,0,0-.23.15.9.9,0,0,1-.18.16,1.06,1.06,0,0,1-.21.11,1.32,1.32,0,0,1-.36.13.56.56,0,0,1-.16,0,0,0,0,0,1,0,0h0"/><path class="cls-3" d="M15.34,18.51a.76.76,0,0,1,.33-.09.41.41,0,0,1,.24.07.14.14,0,0,1,.07.11s0,.07,0,.1a.65.65,0,0,1-.24.23,1.72,1.72,0,0,1-.3.11l.1-.12a2.61,2.61,0,0,0-.06.27l-.05-.05c.1.05.21.08.31.12a.58.58,0,0,1,.17.06l.09,0s.08.06.06.13a.2.2,0,0,1-.11.11l-.11,0-.2,0-.37,0,0-.32a1.61,1.61,0,0,1,.43.07l.12,0,.07,0,.08.08a.16.16,0,0,1-.07.23l0,0h-.08a1,1,0,0,1-.26,0h-.22a2.59,2.59,0,0,1-.4-.09,0,0,0,0,1,0,0h0l.37-.07.16,0,.1,0,0,0h0s0,0,0,0h0s-.06.07,0,.12,0,0,0,0h-.05a2.05,2.05,0,0,0-.31-.07h0c-.12,0-.19-.12-.15-.2a.24.24,0,0,1,.24-.12l.32,0h.2s0,0,0,0,0,0,0,0,0,0,0,0l0,0a.35.35,0,0,0-.12-.07,1,1,0,0,0-.3-.1.05.05,0,0,1,0,0v0l-.13-.26s0-.05,0-.07l.07-.05.2-.12.16-.09s0,0,0,0,0,0,0,0,0,0,0,0l-.28-.06a0,0,0,0,1,0,0h0"/><path class="cls-3" d="M17.07,18C17,17.1,17,16.19,17,15.27s-.05-1.83-.05-2.75l.19.13c-.95,0-1.9,0-2.84,0H11.4c-1.89,0-3.78-.07-5.68-.07l.08-.06c0,.47,0,.93,0,1.4v1.4l.07,2.8c0,1.87.07,3.74.09,5.61l-.25-.17H11.4c1.9,0,3.79,0,5.69.05l-.15.11c0-1.1.07-2.19.13-3.28a0,0,0,0,1,0,0,0,0,0,0,1,0,0c.06,1.09.1,2.18.13,3.28,0,.06-.06.1-.15.1h0l-5.69.06H5.72a.24.24,0,0,1-.25-.17h0c0-1.87,0-3.74.09-5.61l.07-2.8,0-1.4c0-.47,0-.93,0-1.4,0,0,0-.06.08-.06h0c1.9,0,3.79-.05,5.68-.07h2.85c.94,0,1.89,0,2.84,0,.11,0,.19.06.19.13h0c0,.92,0,1.83-.05,2.75s-.06,1.83-.12,2.75a0,0,0,0,1,0,0,0,0,0,0,1,0,0"/><polygon class="cls-3" points="1.53 0.75 0.9 0.75 0.9 0.5 2.55 0.5 2.55 0.75 1.92 0.75 1.92 2.87 1.53 2.87 1.53 0.75"/><path class="cls-3" d="M2.83,2h0c0,.28.07.66.43.66s.4-.4.4-.66-.07-.66-.41-.66-.42.4-.42.66M4.06,2a.8.8,0,0,1-.82.88A.78.78,0,0,1,2.43,2a.8.8,0,0,1,.83-.88A.78.78,0,0,1,4.06,2Z"/><path class="cls-3" d="M5.66,2.83a1.37,1.37,0,0,1-.41.06A.81.81,0,0,1,4.34,2a.89.89,0,0,1,1-.88,1.13,1.13,0,0,1,.35.05l-.08.22a.77.77,0,0,0-.28,0A.59.59,0,0,0,4.73,2a.57.57,0,0,0,.59.64.87.87,0,0,0,.28,0Z"/><path class="cls-3" d="M6.88,2h0c-.21,0-.68,0-.68.4a.28.28,0,0,0,.3.3.37.37,0,0,0,.37-.26.31.31,0,0,0,0-.09Zm0,.88,0-.18h0a.61.61,0,0,1-.49.21.53.53,0,0,1-.59-.49c0-.42.5-.61,1.06-.61V1.74c0-.23-.08-.38-.4-.38a1.07,1.07,0,0,0-.41.08L6,1.25a1.48,1.48,0,0,1,.58-.11c.49,0,.71.23.71.61v.73a2.42,2.42,0,0,0,0,.39Z"/><path class="cls-3" d="M8.45,2.59a1,1,0,0,0,.4.09c.23,0,.37-.1.37-.25s-.07-.22-.32-.33-.5-.29-.5-.49.3-.47.68-.47a1.18,1.18,0,0,1,.45.09l-.11.2a.81.81,0,0,0-.33-.07c-.21,0-.32.11-.32.21s.06.18.31.3.51.28.51.52-.34.5-.74.5a1.09,1.09,0,0,1-.49-.1Z"/><path class="cls-3" d="M11.43,2.41c0,.19,0,.33,0,.46h-.34l0-.18h0a.69.69,0,0,1-.53.21c-.43,0-.6-.23-.6-.66V1.17h.39v1c0,.26.06.46.33.46A.36.36,0,0,0,11,2.44a.61.61,0,0,0,0-.15V1.17h.39Z"/><path class="cls-3" d="M12.69,2.87h0V1.17h.39v1.7ZM13.11.73c0,.11-.09.18-.24.18s-.23-.07-.23-.18.11-.17.23-.17S13.11.63,13.11.73Z"/><path class="cls-3" d="M13.58,1.61c0-.2,0-.3,0-.44h.34l0,.21h0a.69.69,0,0,1,.56-.24A.53.53,0,0,1,15,1.4h0a.76.76,0,0,1,.25-.19.74.74,0,0,1,.34-.07.54.54,0,0,1,.6.6V2.87h-.39V1.81c0-.22-.05-.44-.35-.44a.38.38,0,0,0-.36.25.78.78,0,0,0,0,.16V2.87h-.39V1.76c0-.19,0-.39-.34-.39a.38.38,0,0,0-.37.27.77.77,0,0,0,0,.15V2.87h-.38Z"/><path class="cls-3" d="M17.62,2h0c-.21,0-.68,0-.68.4a.28.28,0,0,0,.3.3.37.37,0,0,0,.37-.26.31.31,0,0,0,0-.09Zm.05.88,0-.18h0a.61.61,0,0,1-.49.21.53.53,0,0,1-.59-.49c0-.42.5-.61,1.06-.61V1.74c0-.23-.08-.38-.4-.38a1.07,1.07,0,0,0-.41.08l-.08-.19a1.48,1.48,0,0,1,.58-.11c.49,0,.71.23.71.61v.73a2.42,2.42,0,0,0,0,.39Z"/><path class="cls-3" d="M19.61,1.76h0a.27.27,0,0,0,0-.13.36.36,0,0,0-.35-.26c-.29,0-.45.27-.45.64s.2.63.45.63a.34.34,0,0,0,.35-.24.39.39,0,0,0,0-.15ZM20,1.17c0,.12,0,.27,0,.53v1c0,.45-.08.62-.24.74a1.15,1.15,0,0,1-.66.18,1.68,1.68,0,0,1-.55-.08l.1-.21a1.53,1.53,0,0,0,.46.07c.31,0,.5-.13.5-.52V2.66h0a.54.54,0,0,1-.47.21A.75.75,0,0,1,18.4,2a.79.79,0,0,1,.78-.89.52.52,0,0,1,.46.22h0l0-.19Z"/><path class="cls-3" d="M21.55,1.84h0c0-.34-.18-.49-.37-.49s-.38.26-.4.49Zm-.78.2c0,.52.31.64.59.64a1.08,1.08,0,0,0,.41-.07l.06.2a1.66,1.66,0,0,1-.54.08.8.8,0,0,1-.9-.85.82.82,0,0,1,.84-.9.68.68,0,0,1,.7.75V2Z"/><path class="cls-3" d="M22.3,1.61c0-.2,0-.3,0-.44h.35l0,.2h0a.71.71,0,0,1,.57-.23.54.54,0,0,1,.59.59V2.87h-.39V1.77c0-.2-.06-.4-.34-.4a.38.38,0,0,0-.38.28.66.66,0,0,0,0,.15V2.87h-.4Z"/><path class="cls-3" d="M26.13,1.84h0c0-.34-.18-.49-.37-.49s-.39.26-.4.49Zm-.78.2c0,.52.3.64.59.64a1.12,1.12,0,0,0,.41-.07l.06.2a1.75,1.75,0,0,1-.54.08A.8.8,0,0,1,25,2a.82.82,0,0,1,.83-.9.68.68,0,0,1,.71.75.62.62,0,0,1,0,.15Z"/><path class="cls-3" d="M26.88,1.61c0-.2,0-.3,0-.44h.35l0,.2h0a.7.7,0,0,1,.56-.23.54.54,0,0,1,.6.59V2.87H28V1.77c0-.2-.06-.4-.34-.4a.38.38,0,0,0-.38.28.66.66,0,0,0,0,.15V2.87h-.4Z"/><path class="cls-3" d="M2.15,5h0c0-.34-.18-.49-.37-.49s-.39.26-.41.49Zm-.78.2c0,.52.3.63.59.63a1.18,1.18,0,0,0,.41-.06l.06.2a1.77,1.77,0,0,1-.55.08A.81.81,0,0,1,1,5.19a.81.81,0,0,1,.84-.89.67.67,0,0,1,.7.75V5.2Z"/><rect class="cls-3" x="2.9" y="3.6" width="0.39" height="2.43"/><path class="cls-3" d="M5.63,5h0c0-.34-.18-.49-.37-.49s-.39.26-.4.49Zm-.78.2c0,.52.3.63.59.63a1.15,1.15,0,0,0,.41-.06l.06.2a1.75,1.75,0,0,1-.54.08.81.81,0,0,1-.9-.86A.81.81,0,0,1,5.3,4.3.68.68,0,0,1,6,5.05.66.66,0,0,1,6,5.2Z"/><path class="cls-3" d="M6.31,5.75a1.34,1.34,0,0,0,.4.08c.23,0,.37-.09.37-.24S7,5.37,6.76,5.25s-.5-.28-.5-.48.3-.47.68-.47a1.18,1.18,0,0,1,.45.09l-.11.2A.81.81,0,0,0,7,4.52c-.21,0-.32.1-.32.21s.06.18.31.3.51.28.51.51-.34.51-.74.51A1.15,1.15,0,0,1,6.22,6Z"/><path class="cls-3" d="M8.2,5.4h0a.61.61,0,0,0,0,.14.38.38,0,0,0,.37.29c.32,0,.43-.31.43-.65s-.13-.65-.44-.65a.39.39,0,0,0-.36.31A.53.53,0,0,0,8.2,5Zm-.4-.54c0-.26,0-.41,0-.53h.36l0,.22h0a.59.59,0,0,1,.52-.25c.43,0,.72.32.72.87a.77.77,0,0,1-.77.88.5.5,0,0,1-.43-.19h0V6.7H7.8Z"/><path class="cls-3" d="M10.85,5h0c0-.34-.18-.49-.37-.49s-.38.26-.4.49Zm-.78.2c0,.52.31.63.59.63a1.11,1.11,0,0,0,.41-.06l.07.2a1.77,1.77,0,0,1-.55.08.81.81,0,0,1-.9-.86.81.81,0,0,1,.84-.89.67.67,0,0,1,.7.75V5.2Z"/><path class="cls-3" d="M11.18,6.51h0a.59.59,0,0,0,.34-.13c.08-.09.11-.22.11-.54V4.33H12V5.92a.7.7,0,0,1-.25.65,1.24,1.24,0,0,1-.54.16Zm.88-2.62c0,.1-.09.17-.24.17s-.23-.07-.22-.17.1-.18.23-.18S12.06,3.78,12.06,3.89Z"/><path class="cls-3" d="M12.8,5.18h0c0,.28.07.66.43.66s.41-.4.41-.66-.07-.66-.42-.66-.42.4-.42.66m1.24,0a.79.79,0,0,1-.83.87.77.77,0,0,1-.8-.87.8.8,0,0,1,.83-.88A.78.78,0,0,1,14,5.18Z"/><path class="cls-3" d="M27,15.12a5.94,5.94,0,0,0,0,2.31,5.34,5.34,0,0,0,.53.91l-1.22-1.16.37.94-.51-.84.1,1-.62-.74v.82l-.43-.57.08.64s-.7-.5-.71-.72-1,.57-1,.57a7.24,7.24,0,0,0,.95-1.3A13,13,0,0,1,27,15.12"/></svg>