<svg id="Capa_1" data-name="Capa 1" xmlns="http://www.w3.org/2000/svg" viewBox="0 0 30.43 28.15"><defs><style>.cls-1{fill:#71bad0;}.cls-2{fill:#99d9ec;}.cls-3{fill:#fbc9b5;}.cls-4{fill:#231f20;}</style></defs><title>6-6meses</title><path class="cls-1" d="M11.4,16.64H15a5.64,5.64,0,0,1-1.23.7,3.42,3.42,0,0,1-.93.23Z"/><path class="cls-2" d="M4.21,21,1.55,22.91s-.69-.1-.69.25S.44,26.51,2,26.86a12.91,12.91,0,0,0,3.14.26L8.45,26s1.13-2.27.26-3A31.37,31.37,0,0,0,4.21,21"/><path class="cls-3" d="M13,17.49s-.08-.36.2-.48.33.27.33.27a5.91,5.91,0,0,0,1.9-.69,5.41,5.41,0,0,1,2.13-.95c.8-.17,3.85-.5,4.65-1S29,11.34,29,11.34l1.45-.65v4.48L24.09,17a9.54,9.54,0,0,1-1.46,2.07,8.17,8.17,0,0,1-2.3.66,3.08,3.08,0,0,1-.57,0s-.7,1.23-1.08,1.32-.58.2-.72,0a4,4,0,0,1-.16-1.2s-.75,1.31-1.06,1.21a.9.9,0,0,1-.45-1,8.86,8.86,0,0,0,.13-1.21s-1.13,1.34-1.55,1.47-.67-.15-.54-.47.82-1.61.82-1.61l-1.41.38a5.34,5.34,0,0,1-.9.9,10.3,10.3,0,0,1-2,.11c-.47,0-1.78-.08-1.78-.08l-.23,1.68s1,.07,1.06-.2.72-.87,1-.69.27.3.5.35.09,0,.27.4-.15.56-.14.63.35.19-.42.51a13.93,13.93,0,0,1-1.57.55,9.68,9.68,0,0,1,2.64.12c.19.24.45.6.64.6s1.28-.07,1.71-.13.68-.29.68,0-.09.28-.1.57-.44.45-.44.45,1.25-.12,1.33,0,0,.13,0,.31.31.45.06.7-.16.46-.68.45a9.92,9.92,0,0,1-1.64-.31,18.64,18.64,0,0,1-1.9,1.09A36.07,36.07,0,0,1,8,27.24a9.81,9.81,0,0,1-3.8-.12c-1-.38-1.87-1.07-1.38-1.84a2.73,2.73,0,0,1,2.72-1.35c1.57,0,2.67.17,2.67.17s.26-.45,0-.54A14.29,14.29,0,0,0,6,23.29c-.43,0-4.67-.49-4.67-.49s-.25,0,1-1.88a42.63,42.63,0,0,1,3.15-3.8c.19-.36-.1-.67-.18-1s-.65-1,1.19-2a14.55,14.55,0,0,1,3.87-1.72c.49,0,1.58.16,1.64.41a2,2,0,0,1-.28,1.73c-.51.71-.51.73-.08.93s.17.42.05.52-.26.3-.21.45-.41,0-.47.1.05.27.23.4S11,17,11,17.15s0,.46-1.19.44,2.15.49,2.15.49a.55.55,0,0,1,.53-.36c.46,0,.47-.23.47-.23"/><path class="cls-4" d="M10.52,15.31a.57.57,0,0,0,.33-.31s.16,0,.15.08.24-.3-.3-.17a1,1,0,0,0-.71.46l.34-.16s-.05.2.19.1"/><path class="cls-4" d="M16,25.08l-.53.33a.92.92,0,0,1,.27,0c.23,0,.26-.29.26-.29"/><path class="cls-4" d="M15.86,25.62c.25-.05.25-.34.25-.34l-.67.41.42-.07"/><polygon class="cls-4" points="12.37 14.11 12.34 14.02 12.34 14.03 12.37 14.11"/><path class="cls-4" d="M12.8,19.3h0a2,2,0,0,1-.38.15l-.17,0H11l-.9,0c-.39,0-.68,0-.81,0l0-.14a2,2,0,0,1-.08-.33.93.93,0,0,1,0-.33,1.25,1.25,0,0,0,.07-.31,1.26,1.26,0,0,0,0-.28A1.56,1.56,0,0,0,9,17.72h.61a7.26,7.26,0,0,0,.94.27l.6.11.61.08.25-.09s0,0,0,0l0,0,.07-.06.18-.12a4.75,4.75,0,0,1,.45-.22,1.75,1.75,0,0,0-.6.05,1.52,1.52,0,0,0-.28.09l-.14.07-.46-.09-.61-.08-.27,0a2.41,2.41,0,0,0,.52-.11.65.65,0,0,0,.16-.09.13.13,0,0,0,.06-.17.52.52,0,0,0-.08-.11h0c.09,0,.25-.07.3-.18a.65.65,0,0,0,0-.14,0,0,0,0,0,0,0,10.55,10.55,0,0,0,1.5.77,1.61,1.61,0,0,0-.3.21.5.5,0,0,0-.16.58.63.63,0,0,0,.21.25.91.91,0,0,0,.13.1.9.9,0,0,0,.22.1,1.87,1.87,0,0,0,.67,0l-.13.09a7.4,7.4,0,0,1-.65.4m-3.87.13h0a2,2,0,0,0-.08.33c0,.11,0,.22,0,.32a3,3,0,0,0-.05.56,2.76,2.76,0,0,0,0,.41v.11H8.62a1,1,0,0,0,0-.29,2.56,2.56,0,0,0-.21-.4,5.31,5.31,0,0,0-.46-.74l-.26-.32s0,0,0,0,0,0,0,0,.06.13.13.34.17.49.24.77,0,.28.08.41a2.16,2.16,0,0,0,.15.34,2.27,2.27,0,0,0,.25.34h0l.05-.11a.83.83,0,0,0,.06-.27v0a3.92,3.92,0,0,0,.8.14,1.32,1.32,0,0,0,.27,0,.49.49,0,0,0,.16,0l.11-.07a1.34,1.34,0,0,0,.21-.33.27.27,0,0,1,.08-.1s.06,0,.14-.08a.88.88,0,0,0,.21-.12.83.83,0,0,0,.17-.12h0a.36.36,0,0,1,0,.21h0s0,0,0,.06a.26.26,0,0,0,.29.1l.15,0v0a.85.85,0,0,0,0,.16.55.55,0,0,0,.17.35l.06.07a.24.24,0,0,1,0,.11.25.25,0,0,0,0,.22l0,0a.08.08,0,0,1,0,0,.71.71,0,0,1-.26.2,5,5,0,0,1-.69.36,15.48,15.48,0,0,1-1.59.48l-.82.19a3.37,3.37,0,0,1-.36.05H7.58l-.17,0a2,2,0,0,1-1.11-.73,5,5,0,0,1-.61-1.08c-.21-.38-.41-.75-.59-1.13A1.5,1.5,0,0,1,5,19v0h0a1.42,1.42,0,0,0-.14,1.22,11.72,11.72,0,0,0,.44,1.17l.25.58a2.89,2.89,0,0,0,.37.59,2.72,2.72,0,0,0,1.34.82l-.26-.05c-.68-.12-1.37-.21-2.06-.3s-1.39-.16-2.1-.2a7.79,7.79,0,0,0-1.08,0,1.53,1.53,0,0,0-.3,0,10.3,10.3,0,0,1,.56-1.16c.25-.44.51-.87.8-1.29A11.34,11.34,0,0,1,4.81,18a7.35,7.35,0,0,1,.67-.51A1,1,0,0,0,6,16.71a.9.9,0,0,0-.13-.39l-.11-.45A.51.51,0,0,1,6,15.36a.61.61,0,0,0,0,.24,1.23,1.23,0,0,0,.35.5,1.44,1.44,0,0,0,.25.18,1.69,1.69,0,0,0,.28.12,1.25,1.25,0,0,0,.48.05l.18,0v0H7.35a.93.93,0,0,1-.39-.1,1,1,0,0,1-.57-.74.44.44,0,0,1,0-.2l0,0s0,0,0,0h0c.44,0,.54.1,1,.43l-.13-.36h0v0l.4.28a1.26,1.26,0,0,1-.38-.8,1,1,0,0,0,.25-.58s0-.2,0,.27l-.11.58.53-.61L8,15l.51-.52.76-.92,0,.76.59-1-.18,1.06.42-.61.82-1-.21.91.45-.7,0,1.14a2.94,2.94,0,0,0-1.42.8s1.08-.87,1.89-.6c0,0-.09-.25-.47-.2l.73-1.16a1.81,1.81,0,0,1,.16.42,1.1,1.1,0,0,1-.07.67c-.11.21-.26.43-.38.65a1.11,1.11,0,0,0-.16.35c-.05.13.07.27.19.36a1.27,1.27,0,0,1,.29.27c.07.08,0,.15-.17.22a1.89,1.89,0,0,1-.21.09l-.12.06a.11.11,0,0,0,0,.14.62.62,0,0,0,.11.17h0l-.07.09,0,.06-.24,0a4.17,4.17,0,0,1-.5,0,.09.09,0,0,0-.09.05s0,.06.06.07a4,4,0,0,1,.58.18l.05,0s0,0,0,0a.14.14,0,0,1,0,.09s-.09.07-.2.11a.15.15,0,0,0-.1.07.09.09,0,0,0,0,.11l.06.09s0,.06-.12.1a2.65,2.65,0,0,1-.3.06l-.32,0a9.82,9.82,0,0,1-1.33,0H8.51l-.33,0H8.05a.46.46,0,0,0-.14.05.34.34,0,0,0-.12.16.61.61,0,0,0,0,.27h0a.16.16,0,0,0,.19.08c.09,0,.14-.07.13-.13h0a.43.43,0,0,1,0-.19s0,0,0,0h0s0,0,0,0l.33,0h.32a.64.64,0,0,0,0,.07,2.09,2.09,0,0,0,0,.41c0,.08,0,.17,0,.27a2.85,2.85,0,0,0,.11.3.9.9,0,0,1,.09.32A1,1,0,0,1,8.93,19.43ZM10.07,23H11A3.61,3.61,0,0,1,12,23l.21.07c.05,0,.11.07.15.11a1.1,1.1,0,0,1,.09.14v.14a.15.15,0,0,0,.08.08h0a3.36,3.36,0,0,0,1.6.15l.21-.05.17-.05a1.47,1.47,0,0,1,.26,0h0a.17.17,0,0,1-.06.11l0,0a.1.1,0,0,0,0,.16.78.78,0,0,1,.15.1l.05,0,0,0a0,0,0,0,1,0,0l0,0a.25.25,0,0,0-.09.09,0,0,0,0,0,0,0L14.12,24a4.17,4.17,0,0,0-.52,0,1.52,1.52,0,0,0-.29,0,1.09,1.09,0,0,0-.31.08l-.05,0h0l0,0h0l-.09.05a.56.56,0,0,1-.17.09,1.31,1.31,0,0,1-.35.12,4.92,4.92,0,0,1-.87,0,8.16,8.16,0,0,0-1,0,8.53,8.53,0,0,0-.85.1,3.44,3.44,0,0,0-.68-.24c-.22-.06-.44-.1-.66-.15h0a.6.6,0,0,0,.06-.37.29.29,0,0,0-.12-.19.77.77,0,0,0-.26-.1l-.35-.07h.18a3.65,3.65,0,0,0,.49-.09l.81-.26L9.23,23Zm4.69.51h0A0,0,0,0,1,14.76,23.5Zm-9.11.25h0a3.87,3.87,0,0,0-.68,0,3.89,3.89,0,0,0-.68.13,4,4,0,0,0-.61.23,3.27,3.27,0,0,0-.52.32,2.62,2.62,0,0,0-.42.39,1.84,1.84,0,0,0-.3.43,1.5,1.5,0,0,0-.11.22l0,.05a.64.64,0,0,1,0,.07l0,.13a1.22,1.22,0,0,0,0,.27.85.85,0,0,0,.11.26,1.49,1.49,0,0,0,.41.42,3.5,3.5,0,0,0,.53.31h0l-.75-.08a2.37,2.37,0,0,1-.86-.3,1.45,1.45,0,0,1-.52-.56,2.14,2.14,0,0,1-.19-.7c0-.24-.05-.48-.06-.71a8.64,8.64,0,0,1,0-1.44c0-.16.37-.19.69-.19s.68,0,1,0q1,.08,2.07.18l2.07.21,1,.12c.36,0,.36.29.33.51L7.59,24,7,23.92l-.64-.1C6.11,23.79,5.88,23.76,5.65,23.75Zm7-8.41h0a6.34,6.34,0,0,1,.89-.49l.76-.35a11.66,11.66,0,0,0,1.06.73c.33.19.67.38,1,.56l-.12,0a5.25,5.25,0,0,0-1.18.51l-.34.22c-.46,0-.92,0-1.38,0-.29,0-.57,0-.85.05l-.51,0a3.85,3.85,0,0,0,1.52-.68,2.27,2.27,0,0,0,.31-.31,1.51,1.51,0,0,0,.24-.34,1.61,1.61,0,0,0,.15-.36,2.29,2.29,0,0,0,.07-.36h0l-.09.17s0,.11-.09.17a3.53,3.53,0,0,1-.21.32,3.88,3.88,0,0,1-.26.31l-.31.28a4,4,0,0,1-.75.47,4.1,4.1,0,0,1-.87.32h0l0-.09.08-.18A3.35,3.35,0,0,1,12,16,2.43,2.43,0,0,1,12.65,15.34Zm-1.18.86h0a.47.47,0,0,1-.06-.09s0,0,0,0l.09,0,.22-.1,0,0Zm-.27.49h0L11,16.61h.24v0A.09.09,0,0,0,11.2,16.69Zm2.93.27h0a4.38,4.38,0,0,1-1,.48l-.19.09a7.93,7.93,0,0,0-1.11-.85c.24,0,.48,0,.72,0l.86,0c.42,0,.84,0,1.27-.07C14.46,16.74,14.3,16.86,14.13,17Zm15.48-1.57,0,0L24.12,17l0,0a9.52,9.52,0,0,0-.77,1l-.34.5a2.07,2.07,0,0,1-.17.24,1.45,1.45,0,0,1-.22.21,3.4,3.4,0,0,1-1.3.54,7.09,7.09,0,0,1-1.53.14.13.13,0,0,0-.12.06,5.31,5.31,0,0,1-.62.92,2,2,0,0,1-.44.38.73.73,0,0,1-.26.09H18.2a.58.58,0,0,1-.11-.05L18,20.93a.47.47,0,0,0-.06-.09.86.86,0,0,1-.06-.23,1,1,0,0,1,0-.24c0-.08,0-.16.06-.25a3.62,3.62,0,0,1,.5-.95h0c0-.05,0-.11-.07-.14a.18.18,0,0,0-.2,0h0l-.4.54c-.13.19-.27.37-.39.56s-.22.38-.34.56a.6.6,0,0,1-.18.2h0l-.1-.08,0-.06,0-.06a.43.43,0,0,1-.05-.13.76.76,0,0,1,0-.27,3,3,0,0,1,0-.59,6.23,6.23,0,0,1,.34-1.17.14.14,0,0,0-.1-.16.24.24,0,0,0-.26.07h0a4.55,4.55,0,0,1-.66.75c-.27.23-.53.49-.78.72a1.83,1.83,0,0,1-.4.28s0,0,0,0,0,0,0,0v-.06a1.76,1.76,0,0,1,.23-.81,7.74,7.74,0,0,1,.48-.83l.14-.2.07-.09,0,0h0l0-.05a.16.16,0,0,0,0-.14.3.3,0,0,0-.16-.06.31.31,0,0,0-.23.07h0l0,0L15,18a2.15,2.15,0,0,1-.27.1,6.67,6.67,0,0,1-1.16.33,1.78,1.78,0,0,1-.5,0l-.05,0L13,18.39a.29.29,0,0,1-.11-.14c-.1-.17.16-.37.51-.51.17-.07.37-.13.58-.22a3.57,3.57,0,0,0,.55-.3c.34-.22.62-.44.93-.63a4.47,4.47,0,0,1,1.05-.44c.79-.22,1.63-.4,2.47-.56s1.69-.32,2.53-.46h0l.07,0,3.73-1.87c1.24-.62,2.47-1.26,3.71-1.89l0,0c-1.28.59-2.57,1.17-3.84,1.77l-3.78,1.77c-.85.14-1.69.27-2.53.43s-1.51.28-2.25.47c-.27-.26-.55-.51-.85-.75a13.17,13.17,0,0,0-1.18-.85h0a.32.32,0,0,0-.3,0,6.16,6.16,0,0,0-.91.52,9.38,9.38,0,0,0-.77.61l-.59.5a.15.15,0,0,0,0-.18,1.42,1.42,0,0,0-.31-.29c-.11-.09-.18-.18-.15-.28a1.36,1.36,0,0,1,.16-.32c.13-.21.27-.42.39-.65a1.13,1.13,0,0,0,.13-.59l.19.57A2.24,2.24,0,0,0,10.9,11.6l-.07,0-.23-.12a2.19,2.19,0,0,0-.33-.12,7.7,7.7,0,0,0-3.85-.43c-1.19.15-3.63,1.3-3.53,3.26s1.89,1.75,2.48,2.33a.51.51,0,0,1,.07.23.67.67,0,0,1-.33.51c-.22.16-.46.36-.67.54a9.87,9.87,0,0,0-2,2.49,13,13,0,0,0-.7,1.33,8.11,8.11,0,0,0-.44,1.22l-.2,0A.88.88,0,0,0,.81,23a.31.31,0,0,0-.12.23c0,.49.08,1,.11,1.45A5.24,5.24,0,0,0,1,26.11a1.46,1.46,0,0,0,.52.66,2.67,2.67,0,0,0,1,.4c.37.08.7.11,1,.16s.68.09,1.08.1a.24.24,0,0,0,.22-.09A8.07,8.07,0,0,0,7,27.5a8.57,8.57,0,0,0,1.24-.15c.4-.07.8-.14,1.21-.19s.82-.09,1.22-.12a5,5,0,0,0,.64-.05,3.75,3.75,0,0,0,.62-.15,7.42,7.42,0,0,0,1.92-1l1,.09h.29a1.15,1.15,0,0,0,.32,0A.92.92,0,0,0,16,25.7v0h0a1.06,1.06,0,0,1-.5.09l-.25,0-.27-.06c-.37-.08-.74-.14-1.11-.21a.31.31,0,0,0-.21,0h0c-.29.19-.6.37-.91.54a6.14,6.14,0,0,1-1,.48,4.4,4.4,0,0,1-.51.18l-.58.11c-.4.08-.79.16-1.2.21a10,10,0,0,1-1.23.1H7.56l-.61,0c-.41,0-.81,0-1.21,0-.2,0-.41,0-.61,0H4.86a.21.21,0,0,0-.14-.12h0a6.31,6.31,0,0,1-1.08-.4,3.7,3.7,0,0,1-.44-.28,1.1,1.1,0,0,1-.3-.31A.67.67,0,0,1,2.8,26a.48.48,0,0,1,0-.17l0-.09s0,0,0,0l0-.06a1.24,1.24,0,0,1,.1-.2A1.67,1.67,0,0,1,3.19,25a2.81,2.81,0,0,1,.34-.35A4.61,4.61,0,0,1,4,24.38a2.87,2.87,0,0,1,.51-.21A3.39,3.39,0,0,1,5,24a3.94,3.94,0,0,1,.6-.05c.21,0,.41,0,.63,0l.65.06H7l1,.29.68.19c.21.07.43.14.61.22s.57.34.86.51h0a.18.18,0,0,0,.19,0s0-.09,0-.13h0l-.66-.54a4.18,4.18,0,0,1,.71,0c.31,0,.61.06.92.1a4,4,0,0,0,1,0,1.73,1.73,0,0,0,.52-.14l.22-.1.1-.05h0l.05,0,.13,0h.18l.44,0,.95.08.25,0h.25a.58.58,0,0,1,.32.06c.08.06.1.12,0,.18s-.32.08-.36.14a0,0,0,0,0,0,0h-.06s0,0,0,0h.23l.2,0-.45.31c.76-.06.6-.28.54-.34s.14-.09.15-.16A.27.27,0,0,0,16,24.4a.9.9,0,0,0-.53-.2h-.23l-.22,0H15l0,0h.06l.1-.06a.14.14,0,0,0,0-.15s0-.08,0-.11l-.05-.06a.37.37,0,0,0,.14-.25.31.31,0,0,0-.18-.25.81.81,0,0,0-.32-.07,1.66,1.66,0,0,0-.47.07l-.17.05-.15,0a2.28,2.28,0,0,1-.65.07c-.21,0-.44,0-.65,0l-.05-.11-.15-.15L12.24,23,12,22.89l-.24-.07-.24-.07-.25,0-.26,0a5.65,5.65,0,0,0-1,0l-.16,0,.75-.28c.26-.11.48-.23.73-.35a1.24,1.24,0,0,0,.35-.23.23.23,0,0,0,.05-.1.14.14,0,0,0,0-.11s0,0,0-.08a.23.23,0,0,0,.06-.3l0,0,0,0a.32.32,0,0,1-.06-.22l0-.15v-.07a.23.23,0,0,0,0-.16.52.52,0,0,0-.38-.13h0a.43.43,0,0,0-.11-.21.35.35,0,0,0-.12-.1.44.44,0,0,0-.27-.07.66.66,0,0,0-.24.08.36.36,0,0,0-.09.08l-.14.11a.54.54,0,0,1-.15.09.91.91,0,0,0-.21.15.47.47,0,0,0-.12.18,1.29,1.29,0,0,1-.12.28s0,0,0,0l-.05,0-.2,0a5.09,5.09,0,0,1-.55,0l.08-.09a1.46,1.46,0,0,0,.26-.39,1.84,1.84,0,0,0,.09-.28,1,1,0,0,0,0-.31,1.84,1.84,0,0,0,0-.33.65.65,0,0,0,0-.19c.14,0,.42.08.79.13a15.28,15.28,0,0,0,2,.13h.27a1.47,1.47,0,0,0,.33-.07,2,2,0,0,0,.48-.22,3.47,3.47,0,0,0,.33-.26l.26-.25c.09-.11.17-.2.23-.29a7.56,7.56,0,0,0,1-.27,5.49,5.49,0,0,0-.39.71,1.92,1.92,0,0,0-.24.95v.06a.25.25,0,0,1,0,.07.46.46,0,0,0,.09.14.22.22,0,0,0,.1.09.58.58,0,0,0,.17.05.56.56,0,0,0,.29-.05,2,2,0,0,0,.52-.36c.27-.25.5-.49.77-.73a.94.94,0,0,1,.1-.1c0,.14-.07.28-.1.42a2.66,2.66,0,0,0,0,.63,1,1,0,0,0,.06.33.48.48,0,0,0,.08.16s0,0,.05.08l.06.07a.64.64,0,0,0,.2.14.33.33,0,0,0,.19.05.41.41,0,0,0,.21-.05.84.84,0,0,0,.28-.3c.1-.15.18-.3.27-.45a1,1,0,0,0,0,.24.9.9,0,0,0,.08.28l.11.15.13.1a.78.78,0,0,0,.21.09.93.93,0,0,0,.24,0,1.1,1.1,0,0,0,.41-.14,2,2,0,0,0,.48-.43,4.61,4.61,0,0,0,.6-.91,7.61,7.61,0,0,0,1.52-.17A3.33,3.33,0,0,0,22.73,19,1.32,1.32,0,0,0,23,18.8l.17-.25.33-.5a8.08,8.08,0,0,1,.72-.94Z"/><path class="cls-4" d="M2.1,3.34h.2c.41,0,.68-.16.68-.47s-.33-.48-.7-.48H2.1Zm0-1.15h.18c.33,0,.6-.17.6-.42s-.15-.38-.57-.38H2.1Zm-.39-1a3.21,3.21,0,0,1,.58-.05,1.4,1.4,0,0,1,.76.17.46.46,0,0,1,.23.4c0,.25-.2.44-.54.53h0c.4.07.64.29.64.6a.56.56,0,0,1-.24.47,1.55,1.55,0,0,1-.91.22,4.64,4.64,0,0,1-.52,0Z"/><path class="cls-4" d="M4.85,2.53h0c0-.34-.18-.49-.37-.49s-.39.25-.4.49Zm-.78.2c0,.52.31.63.59.63a1.08,1.08,0,0,0,.41-.07l.06.2a1.71,1.71,0,0,1-.54.08.8.8,0,0,1-.9-.85.82.82,0,0,1,.83-.9.68.68,0,0,1,.71.76v.15Z"/><path class="cls-4" d="M6,3H6a.2.2,0,0,0,0,.11.38.38,0,0,0,.37.29c.31,0,.43-.29.43-.65s-.12-.64-.44-.64a.4.4,0,0,0-.37.3.49.49,0,0,0,0,.12Zm-.41.6c0-.1,0-.29,0-.41v-2H6v.93H6a.61.61,0,0,1,.52-.23c.39,0,.68.31.68.86s-.37.9-.75.9A.53.53,0,0,1,6,3.33h0l0,.22Z"/><path class="cls-4" d="M8.65,2.53h0c0-.34-.18-.49-.37-.49s-.39.25-.4.49Zm-.78.2c0,.52.3.63.59.63a1.12,1.12,0,0,0,.41-.07l.06.2a1.75,1.75,0,0,1-.54.08.79.79,0,0,1-.9-.85.81.81,0,0,1,.83-.9A.68.68,0,0,1,9,2.58a.71.71,0,0,1,0,.15Z"/><path class="cls-4" d="M11.25,2.5h0V2.39a.39.39,0,0,0-.37-.33c-.33,0-.44.31-.44.65s.13.64.42.64a.38.38,0,0,0,.38-.29.37.37,0,0,0,0-.11Zm.39-1.38v2c0,.12,0,.31,0,.41h-.34l0-.21h0a.6.6,0,0,1-.51.24c-.42,0-.73-.31-.73-.87a.79.79,0,0,1,.75-.89.52.52,0,0,1,.45.21h0V1.12Z"/><path class="cls-4" d="M13.2,2.53h0c0-.34-.18-.49-.37-.49s-.39.25-.41.49Zm-.78.2c0,.52.3.63.59.63a1.12,1.12,0,0,0,.41-.07l.06.2a1.75,1.75,0,0,1-.54.08A.8.8,0,0,1,12,2.72a.82.82,0,0,1,.84-.9.68.68,0,0,1,.71.76.71.71,0,0,1,0,.15Z"/><rect class="cls-4" x="13.95" y="1.12" width="0.39" height="2.43"/><path class="cls-4" d="M15.83,1.85l.31,1,.11.41h0c0-.14.07-.28.1-.41l.31-1h.39l-.65,1.7h-.35l-.64-1.7Z"/><path class="cls-4" d="M18.23,2.67h0c-.21,0-.69,0-.69.4a.29.29,0,0,0,.31.3.37.37,0,0,0,.37-.26.28.28,0,0,0,0-.09Zm.05.88,0-.18h0a.62.62,0,0,1-.49.21c-.33,0-.59-.19-.59-.48s.5-.62,1.06-.62V2.42c0-.22-.09-.38-.4-.38a.91.91,0,0,0-.41.09l-.09-.19a1.36,1.36,0,0,1,.58-.12c.5,0,.71.23.71.61v.74a1.58,1.58,0,0,0,0,.38Z"/><path class="cls-4" d="M19.05,3.27a1,1,0,0,0,.4.09c.22,0,.36-.1.36-.25s-.07-.22-.32-.33S19,2.49,19,2.29s.29-.47.68-.47a1.16,1.16,0,0,1,.44.09l-.1.21A.7.7,0,0,0,19.69,2c-.22,0-.32.11-.32.22s.06.18.3.29.51.28.51.52-.33.5-.74.5a1.15,1.15,0,0,1-.49-.1Z"/><path class="cls-4" d="M20.83,2.7h0c0,.28.07.67.43.67s.4-.4.4-.67S21.6,2,21.25,2s-.42.4-.42.66m1.23,0a.79.79,0,0,1-.82.88.77.77,0,0,1-.8-.87.8.8,0,0,1,.82-.89A.78.78,0,0,1,22.06,2.7Z"/><path class="cls-4" d="M24.41,3.51a1.32,1.32,0,0,1-.41.06.81.81,0,0,1-.9-.86.88.88,0,0,1,1-.88,1,1,0,0,1,.35,0l-.08.22a.83.83,0,0,0-.28,0,.58.58,0,0,0-.57.65.56.56,0,0,0,.58.64.88.88,0,0,0,.29-.05Z"/><path class="cls-4" d="M25,2.7h0c0,.28.07.67.43.67s.41-.4.41-.67S25.72,2,25.37,2s-.42.4-.42.66m1.24,0a.8.8,0,0,1-.83.88.78.78,0,0,1-.8-.87.8.8,0,0,1,.83-.89A.78.78,0,0,1,26.19,2.7Z"/><path class="cls-4" d="M26.58,2.29c0-.2,0-.3,0-.44h.35l0,.21h0a.71.71,0,0,1,.57-.24.54.54,0,0,1,.6.59V3.55h-.4V2.46c0-.2-.06-.41-.34-.41a.39.39,0,0,0-.38.28.66.66,0,0,0,0,.15V3.55h-.39Z"/><path class="cls-4" d="M20.25,5.83h0c-.2,0-.68,0-.68.39a.29.29,0,0,0,.31.31.35.35,0,0,0,.36-.26.31.31,0,0,0,0-.09Zm.06.88,0-.18h0a.62.62,0,0,1-.49.21.53.53,0,0,1-.59-.49c0-.42.5-.61,1-.62v0c0-.23-.08-.38-.39-.38a1.07,1.07,0,0,0-.41.08l-.09-.19A1.52,1.52,0,0,1,19.93,5c.5,0,.71.23.71.61v.73a1.63,1.63,0,0,0,0,.39Z"/><path class="cls-4" d="M21.3,5l.33,1c0,.13.07.24.1.35h0A2,2,0,0,1,21.85,6l.29-1h.39L22.12,6.1a2.61,2.61,0,0,1-.61,1.1,1.48,1.48,0,0,1-.45.26l-.14-.24A1.2,1.2,0,0,0,21.27,7a1,1,0,0,0,.22-.28c0-.05,0-.06,0-.09a.13.13,0,0,0,0-.06L20.88,5Z"/><path class="cls-4" d="M24.3,6.24c0,.19,0,.34,0,.47H24l0-.18h0a.77.77,0,0,1-.53.21c-.44,0-.61-.24-.61-.66V5h.4v1c0,.26.06.46.33.46a.35.35,0,0,0,.37-.38V5h.4Z"/><path class="cls-4" d="M25.9,5.66h0a.49.49,0,0,0,0-.12.38.38,0,0,0-.36-.33c-.33,0-.45.32-.45.66s.14.64.42.64a.37.37,0,0,0,.38-.29.36.36,0,0,0,0-.11Zm.39-1.38v2c0,.12,0,.31,0,.41H26l0-.22h0a.6.6,0,0,1-.52.25c-.42,0-.72-.32-.72-.87s.36-.89.75-.89a.52.52,0,0,1,.45.21h0V4.28Z"/><path class="cls-4" d="M27.71,5.83h0c-.2,0-.68,0-.68.39a.28.28,0,0,0,.3.31.36.36,0,0,0,.37-.26.31.31,0,0,0,0-.09Zm.06.88,0-.18h0a.65.65,0,0,1-.5.21.52.52,0,0,1-.58-.49c0-.42.49-.61,1.05-.62v0c0-.23-.08-.38-.39-.38a1,1,0,0,0-.41.08l-.09-.19A1.48,1.48,0,0,1,27.39,5c.49,0,.71.23.71.61v.73a1.63,1.63,0,0,0,0,.39Z"/><path class="cls-4" d="M2.89,14.16a3.45,3.45,0,0,0,.23,2.17,2,2,0,0,1,.45,1.3l.37-1,.33.77.31-.9.11.66.24-.53v.73a.89.89,0,0,0,.71-.73c.11-.65-2.75-2.48-2.75-2.48"/></svg>