<svg id="Capa_1" data-name="Capa 1" xmlns="http://www.w3.org/2000/svg" viewBox="0 0 29.53 26.51"><defs><style>.cls-1{fill:#ffd826;}.cls-2{fill:#f05050;}.cls-3{fill:#99d9ec;}.cls-4{fill:#fbc9b5;}.cls-5{fill:#231f20;}</style></defs><title>7-6meses</title><path class="cls-1" d="M11,21.6a.39.39,0,0,0,.18.54,27.43,27.43,0,0,0,5.82.47,25.34,25.34,0,0,0,4.19-.38s.1-.59-.13-.66-1.25-.11-1.25-.11-.62-.23-.48-.54,0-.32,0-.32L18,20.82l-.38-.34-.74.19-.32-.58s-.8.27-.8.35-.5-.15-.55-.24-.23-.58-.23-.58-.23,1.37-.5,1.27l-.83-.31s0,.47-.22.49S12,20.91,12,20.91l.67.55A2.64,2.64,0,0,0,11,21.6"/><path class="cls-2" d="M11.48,22.31a53.62,53.62,0,0,0,6.38.25c2-.16,2.73-.25,2.73-.25L20.5,24.2s.41.12-.26.44a17.33,17.33,0,0,1-3.4.48s-1.69,0-1.84,0S10.78,24,11.48,22.31"/><path class="cls-3" d="M3.13,25.73s-.87-.53-.87-.93A3.15,3.15,0,0,1,3.4,23c.42-.16,2.29-.35,2.55-.4a4,4,0,0,0,.66-.24A6.37,6.37,0,0,0,4,21.11a7.56,7.56,0,0,0-2.92.34l-.52.78S.53,25,1.23,25.5A7.85,7.85,0,0,0,4.11,26Z"/><path class="cls-4" d="M6.69,22.51s0-.17-1.25-.25-2.69-.19-2.83-.16S1,22,1,22l-.47.14s.35-1,.53-1.4a9.9,9.9,0,0,1,2.26-3.34c1.14-.85,2.42-1.52,2.61-1.67s.26-1,.37-1.32A8.7,8.7,0,0,1,8.63,13.3c.28-.1,4-.73,4.21-.31s.49.68.49,1-.89,1-1.13,1.15-.69.54-.52.75.34.23.12.38a1.38,1.38,0,0,1-.54.19s.1.09-.06.24a.92.92,0,0,1-.54.11s.24.14.12.25a.71.71,0,0,1-.4.1s.06.42-.28.43a11.42,11.42,0,0,1-1.47-.28l-.52-.18H7.94L7.5,17l-.16.35s.25.35.38.49a17,17,0,0,0,1.35,1.31c.25.15.48.21.54.13a7.8,7.8,0,0,1,2-.44c.43,0,.71.07.55-.16s-.46-.28-.19-.48.42-.47.61-.31.26.4.42.32a3.13,3.13,0,0,1,1-.4c.22,0,.37.19.35.24s-.39.26-.14.55.49.41.44.51-.34.32-.41.48-.41.2-.61.27a13.3,13.3,0,0,1-2.36,1c-.63.06-1.67.27-2.1.27a6.33,6.33,0,0,1-.68,0s-.32,1.09-.35,1.18.28,0,.57,0a11.07,11.07,0,0,1,2.07,0c.26.1,2.14,1.12,2.35,1.28a6.46,6.46,0,0,0,.65.41,7.12,7.12,0,0,1,1.39-.9c.35-.07.47-.41.6-.4a.83.83,0,0,1,.44.32c.06.11.17-.06.24.1s-.05.16.08.21,0,.27.12.4-.2.19-.21.27.19.08,0,.31S15,25.55,14.36,25.62s-.66.2-1.06,0a1.54,1.54,0,0,0-.83-.2,9.27,9.27,0,0,1-1.8-.12,3.56,3.56,0,0,0-.82-.16A9.53,9.53,0,0,1,7,26a15.3,15.3,0,0,1-3.11-.11c-.87-.16-1.65-.73-1.65-1.12A3.08,3.08,0,0,1,3.67,23a12.69,12.69,0,0,1,2.53-.41,1.63,1.63,0,0,0,.49-.07"/><polygon class="cls-5" points="13.06 14.98 13.07 14.91 13.07 14.91 13.06 14.98"/><path class="cls-5" d="M11.8,15.24s.27-.3-.19-.4A6.62,6.62,0,0,0,10,15a10.33,10.33,0,0,0,1.12,0c.59-.06.66.32.66.32"/><path class="cls-5" d="M11.29,15.41s.16-.13-.12-.19a3.41,3.41,0,0,0-.81,0l.46,0s-.27.14-.05.23.42-.14.42-.14.11,0,.1.06"/><path class="cls-5" d="M10.94,16.3c.2.06.23,0,.12-.07s-.12,0-.19,0,0-.16,0-.16-.15.18.06.24"/><polyline class="cls-5" points="16.53 23.26 16.53 23.26 16.53 23.26"/><path class="cls-5" d="M20.83,21.68h0a5,5,0,0,1-.63.08c-.56,0-1.36,0-2.31,0l-3.25,0-1.83,0-.94,0-.46,0-.18,0,.17,0,.46-.07.94-.07c.62,0,1.24,0,1.83,0l1.72,0c.55,0,1.06,0,1.54,0,.95,0,1.75,0,2.31,0a5,5,0,0,1,.63.08c.13,0,.16.06.16.06a0,0,0,0,1,0,0,.49.49,0,0,1-.14,0m.07.44Zm-.57,1.37h0a4.71,4.71,0,0,0,.13,1.05.64.64,0,0,1-.22.1l-.31.08-.47.06c.1-.18.22-.35.31-.53s.17-.38.25-.57a5.62,5.62,0,0,0,.33-1.18s0,0,0,0h0a7.79,7.79,0,0,0-.7,1.1c-.09.19-.19.38-.26.57a2.13,2.13,0,0,0-.11.33l-.2-.27a5.84,5.84,0,0,1-.33-.53c-.18-.34-.33-.69-.52-1h.12a17.88,17.88,0,0,0,1.82-.16l.4-.07A3.35,3.35,0,0,0,20.33,23.49ZM18,24.87h0l-.95.07c.23-.36.44-.72.63-1.09s.25-.51.36-.77l.53.66c.12.18.24.35.35.53s.18.35.27.53Zm-1.32.1h0l-.66.08-.19,0h0l.24-.18.12-.11.09-.1a3.71,3.71,0,0,0,.23-.32c.06.2.12.41.2.61h0Zm-.29-1ZM15,25.13h0c-.17.09-.35.17-.54.25l-.27.11a1.55,1.55,0,0,1-.27.1.45.45,0,0,1-.11,0h-.1a.41.41,0,0,1-.18-.05.76.76,0,0,1-.19-.12l-.14-.15a.28.28,0,0,0-.26-.11h0c-.48,0-1,0-1.47,0a6.89,6.89,0,0,1-.69-.08l-.3-.08L10.35,25l-.08-.06,0,0a.35.35,0,0,0-.37,0c-.18.11-.42.23-.64.34a7.69,7.69,0,0,1-.72.28c-.24.08-.5.15-.76.22s-.54.1-.81.14-.27,0-.41.05-.28,0-.42,0H5.27c-.14,0-.29,0-.42,0l-.43,0-.09,0-.08,0h0A3.53,3.53,0,0,1,2.62,25a.52.52,0,0,1-.14-.29.53.53,0,0,1,0-.3,2.56,2.56,0,0,1,.36-.67,2.3,2.3,0,0,1,1.46-.92,7,7,0,0,1,1.06-.13L6,22.68a5.54,5.54,0,0,0,.56-.05.71.71,0,0,0,.18-.08l1.13-.12c.76-.06,1.52-.13,2.27-.14h.27l.26,0a2.18,2.18,0,0,1,.46.14,5.36,5.36,0,0,1,.84.48l.68.46a0,0,0,0,0,0,0,2.7,2.7,0,0,0,.33.22l.16.08a3.62,3.62,0,0,0,.63.27h0a.2.2,0,0,0,.2,0l.58-.51a4.21,4.21,0,0,1,.66-.44l.19-.07a.65.65,0,0,0,.23-.09,1.05,1.05,0,0,0,.15-.15s0,0,.11,0a.73.73,0,0,1,.19.07c.06,0,.1.05.11.09s0,.06,0,.09l-.18.11s0,.05,0,.07a.11.11,0,0,0,.11,0h0l0,0,.07,0,.12-.06.1,0h0v0s0,0,0,0a.28.28,0,0,1-.08.06.2.2,0,0,1-.08,0l-.18.07a.05.05,0,0,0,0,.08.1.1,0,0,0,.12,0h0l.26-.08h.12s0,0,0,0v0s0,0,0,0a.46.46,0,0,1-.07.07.05.05,0,0,1,0,0l-.1,0a.38.38,0,0,0-.11.08h0a.07.07,0,0,0,0,.1.19.19,0,0,0,.18,0l.11-.06s0,0-.07,0l-.16.07a.13.13,0,0,0-.07.05c0,.06,0,.12.08.15h0l0,0a1.93,1.93,0,0,1-.13.21,2.55,2.55,0,0,1-.3.39l-.09.09-.09.07-.22.15A4.68,4.68,0,0,1,15,25.13Zm-13.37.35h0a1.2,1.2,0,0,1-.53-.43,2.51,2.51,0,0,1-.33-1.19,8.55,8.55,0,0,1,0-1.24l0-.3c0-.13,0-.15.11-.19a2.36,2.36,0,0,1,.78-.06c.59,0,1.18.09,1.78.13s1.2.07,1.8.11l.9.06.41.06-1,.2H5.39a6.17,6.17,0,0,0-1.13,0,3.69,3.69,0,0,0-.56.11,4.71,4.71,0,0,0-.52.21,3.18,3.18,0,0,0-.43.28,2.1,2.1,0,0,0-.33.34,3.09,3.09,0,0,0-.42.74.86.86,0,0,0-.07.45,1,1,0,0,0,.22.43,2.22,2.22,0,0,0,.75.51l-.5,0A2.73,2.73,0,0,1,1.63,25.48Zm5-2.92h0l-.09,0a4.75,4.75,0,0,1-.54,0h0Zm6,.05h0a2.51,2.51,0,0,0,0,.27v0c-.09-.06-.17-.13-.27-.19l-.37-.24.36.08Zm1.53,0h0l.61,0a2.19,2.19,0,0,0-.46.37,1.2,1.2,0,0,0-.19.27,2.52,2.52,0,0,1-.12.29v0h0a.11.11,0,0,1,0,.05l-.13.1-.19-.09,0,0-.27-.22-.21-.18a2.43,2.43,0,0,0-.13-.38c0-.07-.07-.14-.11-.2l.27,0C13.42,22.68,13.75,22.66,14.08,22.65Zm1,0h.48a.71.71,0,0,1-.13.12.38.38,0,0,1-.17.06l-.24.08a4.13,4.13,0,0,0-.42.22,1.28,1.28,0,0,0,.22-.49Zm1.38,1h0s0,0,0,0Zm-.31-1h0c.5,0,1,0,1.49,0-.19.35-.39.71-.55,1.07s-.24.57-.35.86l-.25-.32s0,0,0,0,.07-.16.1-.21.05-.08,0-.12a.21.21,0,0,0-.07-.11h0c.06,0,.14-.09.15-.21s0-.07,0-.09h0s0,0,0,0h0a.27.27,0,0,0,.07-.08.14.14,0,0,0,0-.07.25.25,0,0,0,0-.08c0-.06-.13-.12-.21-.11a.13.13,0,0,0,0-.07.15.15,0,0,0,0-.07s0-.06-.06-.08a.2.2,0,0,0-.13,0H16.3s0,0,0,0a.27.27,0,0,0-.17-.16h.06ZM13,18h0s0,0,0,0a.45.45,0,0,1-.07-.09s0,0,0-.05l.62-.05-.19.08A1.59,1.59,0,0,1,13,18ZM18,20.72ZM21.17,22a1,1,0,0,0-.13-.33h0a.05.05,0,0,0,0-.05l-.17-.05-.63-.1-.29,0,.12-.05a0,0,0,0,0,0,0s0,0,0,0h0a2.34,2.34,0,0,1-.4-.12.24.24,0,0,1-.09,0l-.07,0s-.07-.06-.07-.08.07-.11.17-.16a1.81,1.81,0,0,1,.35-.13c.07,0,.12-.08.11-.14a.2.2,0,0,0-.22-.12h0c-.5.05-1,.1-1.48.19l-.16,0a.21.21,0,0,0,0-.06,1.4,1.4,0,0,1,.16-.2.16.16,0,0,0-.06-.24.37.37,0,0,0-.38,0l-.1.07-.12.06a1.69,1.69,0,0,1-.27.11l-.28,0h-.26s0,0-.05-.05a.33.33,0,0,1,0-.19,1.8,1.8,0,0,1,.23-.43v0c0-.06,0-.13-.08-.16a.21.21,0,0,0-.25.05l-.21.21-.25.2-.29.17-.16.07-.15,0h-.07l-.06,0a.35.35,0,0,1-.12-.07.87.87,0,0,1-.16-.23,1.42,1.42,0,0,1-.13-.53s0-.05-.07-.06-.1,0-.11.05h0c-.07.18-.15.35-.23.52l-.12.26-.12.26,0,.06h-.05a1.14,1.14,0,0,1-.26,0,4,4,0,0,1-.59-.28h0a.29.29,0,0,0-.3,0,.12.12,0,0,0,0,.21l.15.13a.22.22,0,0,1,.06.12v0s0,0,0,0l0,0a.56.56,0,0,1-.19.05,5.45,5.45,0,0,1-1.14,0h0l-.08,0a.06.06,0,0,0,0,.1l.48.31h0s0,0,0,0l-.21-.22.34.06a3.34,3.34,0,0,0,.64,0,1.13,1.13,0,0,0,.38-.08l.08,0,.07-.07a.23.23,0,0,0,.06-.12l.1,0a1.27,1.27,0,0,0,.51.06.5.5,0,0,0,.28-.11.41.41,0,0,0,.13-.18,2.13,2.13,0,0,1,.07-.27l.06-.27c0-.07,0-.13.05-.19a1.46,1.46,0,0,0,.07.19.83.83,0,0,0,.17.26.43.43,0,0,0,.17.12l.12,0h.13l.22,0,.19-.07.25-.12a.44.44,0,0,0,0,.2.26.26,0,0,0,.1.19.53.53,0,0,0,.26.13,1.38,1.38,0,0,0,.25,0h.22l.35,0a.19.19,0,0,0,0,.1.3.3,0,0,0,0,.08.47.47,0,0,0,.12.09.62.62,0,0,0,.24,0l.16,0,.19-.05.16,0,.7-.15a.22.22,0,0,0,0,.21.37.37,0,0,0,.18.17l.11,0,.12,0a2,2,0,0,0,.34,0l-.06,0c-.52-.06-1.16-.12-1.91-.18-.48,0-1,0-1.55,0s-1.13,0-1.73.07l-1.85.1-.95.05-.48,0-.25,0-.13,0-.08,0-.06.05s0,0,0,.05.12.12.16.15l.13,0,.24.05.48.07.95.09c.63,0,1.25.06,1.85.08,1.21,0,2.33,0,3.29,0s1.75-.17,2.3-.24a4.84,4.84,0,0,0,.64-.1.38.38,0,0,0,.14,0v0A1.15,1.15,0,0,1,21,22a.66.66,0,0,1,0,.15h0l-.13,0-.71.05-1.8.11-1,.08c-.35,0-.7.06-1.05.09a9.51,9.51,0,0,1-1.06.05,7,7,0,0,1-1-.05c-.33,0-.64-.08-.94-.1l-.83-.09A4.68,4.68,0,0,1,11.15,22a.76.76,0,0,1-.24-.15.15.15,0,0,1,0-.08h0a0,0,0,0,0,0,0,.14.14,0,0,0,0,.1.41.41,0,0,0,.14.19L10.7,22l-.31,0c-.1,0-.21,0-.31,0a15.24,15.24,0,0,0-1.67.14.76.76,0,0,0,.2-.2.75.75,0,0,0,.11-.28.66.66,0,0,0-.12-.48l.37,0h.39a6.83,6.83,0,0,0,.78-.06A6.35,6.35,0,0,0,10.9,21c.25-.06.49-.12.73-.2a9.09,9.09,0,0,0,1.31-.57l.29-.17a1,1,0,0,1,.27-.16,6.75,6.75,0,0,1,.68-.2s.06,0,.06-.06a.38.38,0,0,1,.07-.25c.06-.09.15-.11.29-.22a.27.27,0,0,0,0-.34l-.22-.26c-.08-.09-.14-.16-.12-.24s.07-.17.1-.28a.33.33,0,0,0-.06-.36.33.33,0,0,0-.18-.07.46.46,0,0,0-.17,0l-.23.07-.15.07c0-.12.62-2.51.4-2.6a1,1,0,0,0-.57.05l-.55,2.55,0-.05a.44.44,0,0,0-.21-.07.62.62,0,0,0-.2,0l-.25.09-.09.05-.1.07a.48.48,0,0,0-.24.37.42.42,0,0,0,.14.29H11.6a7.17,7.17,0,0,0-.81.09l-.21,0-.2.05a2.64,2.64,0,0,0-.4.12,3,3,0,0,0-.36.17l-.17.11h0l-.13-.06L9,18.91a5.41,5.41,0,0,1-.5-.44c-.16-.16-.3-.32-.44-.49l-.21-.26a3.07,3.07,0,0,0-.25-.26,2.78,2.78,0,0,0-.27-.21c.22,0,0,0,.1,0h0v0l0,0a.22.22,0,0,1,0-.08l0,0h0l0,0,.28.1.3.09a11.62,11.62,0,0,0,1.23.28l.33,0a1.93,1.93,0,0,0,.34,0,.51.51,0,0,0,.32-.15c.07-.08.07-.18.1-.19s.2,0,.28-.08.16-.15.13-.26a.18.18,0,0,0-.09-.08h0a.92.92,0,0,0,.29,0c.09,0,.19-.08.2-.17a.42.42,0,0,0,0-.16h0l.12,0,.25-.05c.08,0,.18-.1.18-.17,0-.26-.26-.47-.11-.64a5,5,0,0,1,.65-.48,2.4,2.4,0,0,0,.63-.55,1,1,0,0,0,.1-.18l-.13.56a1.81,1.81,0,0,0,0-2.42h0a1.67,1.67,0,0,0-.53-.49,5.77,5.77,0,0,0-3-1.19c-1.09-.16-3.78.26-4.68,2s.66,1.94.94,2.55a.41.41,0,0,1-.08.3.71.71,0,0,1-.24.2l-.16.07L5.1,16a4.85,4.85,0,0,0-1.53.94,10.87,10.87,0,0,0-1.11,1.15,8.94,8.94,0,0,0-.83,1.24,11.56,11.56,0,0,0-1,2.62,0,0,0,0,0,0,0h0a12.77,12.77,0,0,1,1.21-2.57,8.11,8.11,0,0,1,.88-1.19A9.9,9.9,0,0,1,3.9,17.1a4.24,4.24,0,0,1,1.42-.81l.22-.08.25-.11a1.12,1.12,0,0,0,.39-.31.7.7,0,0,0,.14-.5l.11-.37a.66.66,0,0,1,.44-.37.64.64,0,0,0-.08.2.91.91,0,0,0,0,.52.87.87,0,0,0,.32.39.91.91,0,0,0,.39.15l.17,0v0l-.14,0a.58.58,0,0,1-.28-.18.71.71,0,0,1-.11-.77.4.4,0,0,1,.13-.16l0,0h0s0,0,0,0c.36.1.39.22.64.6l.07-.34h0v0l.2.32a1,1,0,0,1,.07-.77,1.44,1.44,0,0,0,.52-.44s.11-.16-.14.23l-.39.48.77-.4-.36.42.7-.33,1.13-.61-.42.64,1-.71-.69.88.66-.43,1.23-.68-.64.72.74-.49-.62,1,1.22-.83v0a1.43,1.43,0,0,1-.21.62,2.11,2.11,0,0,1-.58.52,5.47,5.47,0,0,0-.67.52.33.33,0,0,0,0,.37c.05.1.12.22.1.3s-.16.11-.32.14l-.12,0-.08,0s-.08,0-.08.07a1.16,1.16,0,0,1,0,.17c0,.06-.17.1-.31.09a.58.58,0,0,1-.35-.14h0a.15.15,0,0,0-.1,0s-.07.05-.06.08a.69.69,0,0,0,.17.22.47.47,0,0,0,.14.08l0,0h0a.13.13,0,0,1-.08.13l-.09,0a.31.31,0,0,0-.2,0c-.1.1-.08.17-.13.21s-.1.07-.19.08a2.3,2.3,0,0,1-.58,0,9.12,9.12,0,0,1-1.17-.3L8,17l-.28-.1,0,0H7.64a.29.29,0,0,0-.16,0,.38.38,0,0,0-.19.11l-.09.11,0,0A3.43,3.43,0,0,0,6.1,16.8a4.8,4.8,0,0,0-1.74.12s0,0,0,0,0,0,0,0A4.86,4.86,0,0,1,6,17a2.44,2.44,0,0,1,1.25.64,2.25,2.25,0,0,1,.21.24l.18.26q.2.27.42.54a3.67,3.67,0,0,0,.54.49,2.88,2.88,0,0,0,.34.23l.21.1a1.3,1.3,0,0,0,.32.07.33.33,0,0,0,.24-.07v0a.4.4,0,0,1,.09-.07.5.5,0,0,1,.12-.08,1.2,1.2,0,0,1,.28-.13l.32-.11.17,0,.17,0a6.26,6.26,0,0,1,.74-.1l.37,0h.37a.33.33,0,0,0,.22-.08c.07-.07,0-.18-.07-.23a1,1,0,0,1-.26-.16c-.08-.06-.12-.12-.12-.17s0-.1.1-.16a.91.91,0,0,1,.25-.14h0a.22.22,0,0,1,.06.07,1,1,0,0,0,.15.17.42.42,0,0,0,.18.07h.2a1.63,1.63,0,0,0,.43-.18l.34-.18a.64.64,0,0,1,.19-.07.24.24,0,0,1,0,.21,1.32,1.32,0,0,0-.08.3.44.44,0,0,0,.17.31c.08.09.16.17.22.25s.09.17,0,.23-.22.13-.28.23a.39.39,0,0,0-.1.27c-.23.05-.45.1-.67.17a1,1,0,0,0-.19.08l-.14.08-.3.15a8.79,8.79,0,0,1-1.31.46l-.7.16c-.23,0-.47.09-.71.11l-.36,0-.36,0h-.7c-.65-.22-1.31-.43-2-.63s-1.36-.42-2-.62c0,0,0,0,0,0s0,0,0,0c.64.27,1.28.52,1.93.77l1.78.66a.19.19,0,0,0,0,.08c0,.13,0,.29-.08.44s-.05.31-.07.44a.5.5,0,0,0,0,.12l-.35,0-1.1.17-.06,0c-.14,0-.29-.06-.44-.09l-.88-.15c-.59-.1-1.19-.19-1.78-.25a13.84,13.84,0,0,0-1.83-.11A2.65,2.65,0,0,0,.7,22a.37.37,0,0,0-.19.18.41.41,0,0,0,0,.18l0,.31.1,1.25c0,.2,0,.41.06.62a1.63,1.63,0,0,0,.21.62,1.46,1.46,0,0,0,.56.54,2.7,2.7,0,0,0,.87.29c.31.06.59.09.9.13a8.63,8.63,0,0,0,.93.09.28.28,0,0,0,.23-.1.14.14,0,0,0,0-.06c.28,0,.56.1.84.12s.59,0,.88.05h.44l.44,0a8.08,8.08,0,0,0,1.71-.33,7.41,7.41,0,0,0,.79-.28,5.12,5.12,0,0,0,.53-.25l.18.08a3,3,0,0,0,.4.12,5.64,5.64,0,0,0,.8.1,13,13,0,0,0,1.4,0l.13.12a1.41,1.41,0,0,0,.3.19,1.49,1.49,0,0,0,.44.1l.23,0a.64.64,0,0,0,.21-.05c.14,0,.21-.08.32-.12l.29-.12.55-.28.29-.17c.37,0,.73.07,1.1.08h.68a5,5,0,0,0,.67-.05A9.7,9.7,0,0,0,19.35,25l.64-.18.31-.1a2.15,2.15,0,0,0,.32-.13l0,0h0a5.71,5.71,0,0,0,.14-1.08,3.43,3.43,0,0,0-.2-1.08h0l.28-.06L21,22.3a.41.41,0,0,0,.12-.07.17.17,0,0,0,0-.07A.3.3,0,0,0,21.17,22Z"/><path class="cls-5" d="M10.86,3.12a1.2,1.2,0,0,1-.45.07A1,1,0,0,1,9.34,2,1.1,1.1,0,0,1,10.47.78a1,1,0,0,1,.39.06l-.07.23A.84.84,0,0,0,10.46,1c-.34,0-.74.24-.74,1s.36,1,.75,1a1,1,0,0,0,.34-.06Z"/><path class="cls-5" d="M11.34,2.32h0c0,.28.07.66.4.66s.38-.4.38-.66-.07-.66-.39-.66-.39.4-.39.66m1.15,0a.77.77,0,0,1-.77.87c-.41,0-.74-.27-.74-.87a.77.77,0,0,1,.77-.88C12.15,1.44,12.49,1.72,12.49,2.32Z"/><path class="cls-5" d="M13.87,2.05h0a.43.43,0,0,0,0-.12.33.33,0,0,0-.33-.26c-.27,0-.41.26-.41.64s.18.63.41.63a.32.32,0,0,0,.32-.24.5.5,0,0,0,0-.16Zm.38-.58c0,.12,0,.27,0,.53V3c0,.44-.08.61-.23.73a.93.93,0,0,1-.61.19,1.36,1.36,0,0,1-.5-.09L13,3.57a1.09,1.09,0,0,0,.43.08c.29,0,.47-.14.47-.52V3h0a.49.49,0,0,1-.44.21c-.41,0-.68-.34-.68-.84s.39-.88.72-.88a.47.47,0,0,1,.43.22h0l0-.19Z"/><path class="cls-5" d="M15.66,2.14h0c0-.34-.16-.49-.34-.49s-.36.26-.37.49Zm-.72.2c0,.52.28.63.55.63a1.26,1.26,0,0,0,.38-.06l.05.19a1.28,1.28,0,0,1-.5.09.77.77,0,0,1-.83-.86.78.78,0,0,1,.77-.89c.47,0,.65.36.65.75v.15Z"/><path class="cls-5" d="M17.24,1.47l.31,1c0,.13.06.25.09.35h0c0-.09.06-.22.1-.34l.27-1h.36L18,2.56a2.68,2.68,0,0,1-.57,1.09,1.3,1.3,0,0,1-.41.26l-.14-.23a1.21,1.21,0,0,0,.33-.21,1,1,0,0,0,.2-.29.2.2,0,0,0,0-.08.2.2,0,0,0,0-.07l-.58-1.56Z"/><path class="cls-5" d="M20.36,2.05h0a.45.45,0,0,0,0-.12A.35.35,0,0,0,20,1.67c-.26,0-.4.26-.4.64s.18.63.4.63a.34.34,0,0,0,.33-.24.47.47,0,0,0,0-.16Zm.38-.58c0,.12,0,.27,0,.53V3c0,.44-.07.61-.22.73a1,1,0,0,1-.61.19,1.41,1.41,0,0,1-.51-.09l.09-.21a1.09,1.09,0,0,0,.43.08c.28,0,.46-.14.46-.52V3h0a.51.51,0,0,1-.45.21c-.4,0-.67-.34-.67-.84s.39-.88.72-.88a.47.47,0,0,1,.43.22h0l0-.19Z"/><path class="cls-5" d="M21.45,2.32h0c0,.28.07.66.4.66s.37-.4.37-.66-.06-.66-.38-.66-.39.4-.39.66m1.14,0a.76.76,0,0,1-.76.87c-.41,0-.75-.27-.75-.87a.77.77,0,0,1,.77-.88C22.26,1.44,22.59,1.72,22.59,2.32Z"/><rect class="cls-5" x="22.95" y="0.74" width="0.36" height="2.43"/><path class="cls-5" d="M24.17,2.54h0a.61.61,0,0,0,0,.14.35.35,0,0,0,.34.29c.3,0,.39-.31.39-.65s-.11-.65-.4-.65a.36.36,0,0,0-.33.31.53.53,0,0,0,0,.13ZM23.8,2c0-.26,0-.41,0-.53h.33l0,.21h0a.55.55,0,0,1,.48-.24c.4,0,.66.31.66.87s-.35.88-.71.88A.45.45,0,0,1,24.18,3h0v.84H23.8Z"/><path class="cls-5" d="M26.62,2.14h0c0-.34-.16-.49-.34-.49s-.36.26-.37.49Zm-.72.2c0,.52.28.63.55.63a1.21,1.21,0,0,0,.38-.06l.06.19a1.33,1.33,0,0,1-.51.09.77.77,0,0,1-.83-.86.78.78,0,0,1,.77-.89c.47,0,.65.36.65.75v.15Z"/><path class="cls-5" d="M28.17,2.29h0c-.19,0-.63,0-.63.39a.27.27,0,0,0,.28.3.33.33,0,0,0,.34-.25.38.38,0,0,0,0-.1Zm.06.87,0-.17h0a.56.56,0,0,1-.46.2.5.5,0,0,1-.54-.48c0-.43.46-.62,1-.62V2c0-.23-.07-.39-.36-.39a.92.92,0,0,0-.38.09l-.08-.19a1.28,1.28,0,0,1,.53-.11c.46,0,.66.22.66.61v.73a1.5,1.5,0,0,0,0,.38Z"/><path class="cls-5" d="M7.75,5.47h0c0,.28.07.67.4.67s.38-.4.38-.67-.06-.66-.39-.66-.39.4-.39.66m1.15,0a.77.77,0,0,1-.77.88c-.41,0-.74-.28-.74-.87s.37-.89.77-.89S8.9,4.88,8.9,5.47Z"/><path class="cls-5" d="M9.62,5.72h0a.37.37,0,0,0,0,.11c.08.25.24.3.34.3.29,0,.4-.3.4-.66s-.11-.64-.4-.64a.36.36,0,0,0-.34.3.49.49,0,0,0,0,.12Zm-.39.6c0-.1,0-.29,0-.41v-2h.37v.93h0a.53.53,0,0,1,.48-.23c.35,0,.62.31.62.86s-.34.9-.69.9a.5.5,0,0,1-.46-.25h0l0,.22Z"/><path class="cls-5" d="M10.71,6.81h0A.61.61,0,0,0,11,6.68c.08-.1.11-.22.11-.54V4.62h.36V6.21c0,.36-.07.53-.23.65a.89.89,0,0,1-.5.16Zm.81-2.63c0,.11-.08.18-.22.18a.19.19,0,0,1-.21-.18c0-.1.09-.17.22-.17S11.52,4.08,11.52,4.18Z"/><path class="cls-5" d="M12.92,5.3h0c0-.34-.17-.49-.35-.49s-.35.26-.37.49Zm-.72.2c0,.52.28.63.54.63a1,1,0,0,0,.38-.07l.06.2a1.54,1.54,0,0,1-.5.08.77.77,0,0,1-.84-.85c0-.55.31-.9.77-.9s.66.37.66.76a.71.71,0,0,1,0,.15Z"/><path class="cls-5" d="M14.06,4.17v.45h.44v.21h-.44v1c0,.22.11.28.24.28h.15v.2a1,1,0,0,1-.27,0,.59.59,0,0,1-.36-.1.51.51,0,0,1-.14-.43v-1h-.28V4.62h.28V4.25Z"/><path class="cls-5" d="M15,5.47h0c0,.28.07.67.4.67s.37-.4.37-.67-.06-.66-.38-.66-.39.4-.39.66m1.14,0c0,.66-.41.88-.76.88s-.75-.28-.75-.87.38-.89.77-.89S16.14,4.88,16.14,5.47Z"/><path class="cls-5" d="M16.44,6a.87.87,0,0,0,.37.09c.21,0,.33-.1.33-.25s-.06-.21-.29-.33-.46-.29-.46-.48.28-.48.63-.48a1,1,0,0,1,.41.09l-.1.21a.56.56,0,0,0-.3-.08c-.2,0-.3.11-.3.22s.06.18.29.29.47.28.47.52-.31.5-.69.5a1,1,0,0,1-.45-.1Z"/><path class="cls-5" d="M18.71,4.62l.3,1,.1.35h0c0-.09.07-.23.1-.35l.27-1h.36l-.37,1.09a2.67,2.67,0,0,1-.57,1.1,1.3,1.3,0,0,1-.41.26l-.13-.23a1.15,1.15,0,0,0,.32-.22,1,1,0,0,0,.21-.28.15.15,0,0,0,0-.08.15.15,0,0,0,0-.07l-.58-1.57Z"/><path class="cls-5" d="M20.8,5.06c0-.14,0-.31,0-.44h.33l0,.27h0a.55.55,0,0,1,.48-.3h.08v.28h-.08a.44.44,0,0,0-.44.36.61.61,0,0,0,0,.15v.94H20.8Z"/><path class="cls-5" d="M22.84,5.3h0c0-.34-.16-.49-.34-.49s-.36.26-.37.49Zm-.72.2c0,.52.28.63.55.63A.9.9,0,0,0,23,6.06l.06.2a1.5,1.5,0,0,1-.5.08.76.76,0,0,1-.83-.85c0-.55.31-.9.77-.9s.65.37.65.76V5.5Z"/><path class="cls-5" d="M23.9,5.7h0a.61.61,0,0,0,0,.14.35.35,0,0,0,.34.29c.3,0,.4-.31.4-.66s-.12-.64-.41-.64a.36.36,0,0,0-.33.31.53.53,0,0,0,0,.13Zm-.37-.55c0-.26,0-.41,0-.53h.33l0,.22h0a.56.56,0,0,1,.48-.25c.4,0,.67.32.67.88s-.36.88-.72.88a.43.43,0,0,1-.39-.2h0V7h-.37Z"/><path class="cls-5" d="M25.38,6.32h0V4.62h.37v1.7Zm.39-2.14c0,.11-.08.18-.22.18a.19.19,0,0,1-.21-.18c0-.1.1-.17.22-.17S25.77,4.08,25.77,4.18Z"/><path class="cls-5" d="M26.65,4.17v.45h.44v.21h-.44v1c0,.22.11.28.24.28H27v.2a.91.91,0,0,1-.27,0,.59.59,0,0,1-.36-.1c-.09-.08-.13-.19-.13-.43v-1H26V4.62h.28V4.25Z"/><path class="cls-5" d="M28.3,5.3h0c0-.34-.16-.49-.34-.49s-.36.26-.37.49Zm-.72.2c0,.52.28.63.55.63a1,1,0,0,0,.38-.07l0,.2a1.5,1.5,0,0,1-.5.08.76.76,0,0,1-.83-.85c0-.55.31-.9.77-.9s.65.37.65.76V5.5Z"/><path class="cls-5" d="M9.6,9.2a.87.87,0,0,0,.37.09c.21,0,.34-.1.34-.25s-.07-.22-.3-.33-.46-.29-.46-.49.28-.47.63-.47a1.1,1.1,0,0,1,.42.09l-.1.2A.74.74,0,0,0,10.19,8c-.2,0-.3.11-.3.21s.06.18.29.3.47.28.47.51-.31.51-.68.51a1,1,0,0,1-.46-.1Z"/><path class="cls-5" d="M12,8.45h0c0-.34-.17-.49-.34-.49s-.36.26-.38.49Zm-.72.2c0,.52.28.64.54.64a1,1,0,0,0,.38-.07l.06.2a1.5,1.5,0,0,1-.5.08.77.77,0,0,1-.84-.85.8.8,0,0,1,.78-.9c.47,0,.65.37.65.75v.15Z"/><path class="cls-5" d="M12.65,8.22c0-.14,0-.31,0-.44H13l0,.27h0a.55.55,0,0,1,.48-.3h.08V8h-.08a.44.44,0,0,0-.44.35.78.78,0,0,0,0,.16v.94h-.36Z"/><path class="cls-5" d="M13.78,9.48h0V7.78h.37v1.7Zm.4-2.14c0,.11-.09.18-.23.18a.19.19,0,0,1-.21-.18c0-.1.1-.17.22-.17S14.18,7.24,14.18,7.34Z"/><path class="cls-5" d="M15.46,8.6h0c-.19,0-.63,0-.63.39a.28.28,0,0,0,.28.31A.33.33,0,0,0,15.45,9a.31.31,0,0,0,0-.09Zm0,.88,0-.18h0a.56.56,0,0,1-.45.21A.51.51,0,0,1,14.47,9c0-.42.46-.61,1-.62V8.35c0-.23-.08-.38-.37-.38a.84.84,0,0,0-.37.08l-.08-.19a1.24,1.24,0,0,1,.53-.11c.46,0,.66.23.66.61v.73a2.42,2.42,0,0,0,0,.39Z"/><path class="cls-5" d="M17.3,8.43h0V8.31A.38.38,0,0,0,17,8c-.31,0-.41.32-.41.66s.12.64.39.64A.35.35,0,0,0,17.29,9a.37.37,0,0,0,0-.11Zm.36-1.38v2c0,.12,0,.31,0,.41h-.31l0-.22h0a.55.55,0,0,1-.48.25c-.39,0-.67-.32-.67-.87s.34-.89.69-.89a.46.46,0,0,1,.42.21h0V7.05Z"/><path class="cls-5" d="M19,8.6h0c-.19,0-.63,0-.63.39a.28.28,0,0,0,.28.31A.33.33,0,0,0,19,9,.31.31,0,0,0,19,9Zm.05.88,0-.18h0a.56.56,0,0,1-.45.21A.51.51,0,0,1,18,9c0-.42.46-.61,1-.62V8.35c0-.23-.08-.38-.37-.38a.92.92,0,0,0-.38.08l-.08-.19a1.33,1.33,0,0,1,.54-.11c.46,0,.66.23.66.61v.73a2.42,2.42,0,0,0,0,.39Z"/><path class="cls-5" d="M19.8,8.22c0-.2,0-.3,0-.44h.32l0,.21h0a.6.6,0,0,1,.51-.24.48.48,0,0,1,.48.26h0a.69.69,0,0,1,.23-.19.66.66,0,0,1,.32-.07c.31,0,.55.17.55.6V9.48h-.36V8.42c0-.23-.05-.44-.33-.44a.35.35,0,0,0-.33.25.78.78,0,0,0,0,.16V9.48h-.36V8.37c0-.19,0-.39-.31-.39a.35.35,0,0,0-.34.27.77.77,0,0,0,0,.15V9.48H19.8Z"/><path class="cls-5" d="M23.67,8.45h0c0-.34-.17-.49-.34-.49s-.36.26-.38.49Zm-.72.2c0,.52.28.64.54.64a1,1,0,0,0,.38-.07l.06.2a1.5,1.5,0,0,1-.5.08.77.77,0,0,1-.84-.85c0-.55.31-.9.77-.9A.66.66,0,0,1,24,8.5a.62.62,0,0,1,0,.15Z"/><path class="cls-5" d="M24.36,8.22c0-.2,0-.3,0-.44h.32l0,.2h0a.64.64,0,0,1,.52-.23.52.52,0,0,1,.56.59V9.48H25.4V8.38c0-.2,0-.4-.31-.4a.36.36,0,0,0-.35.28.66.66,0,0,0,0,.15V9.48h-.37Z"/><path class="cls-5" d="M26.65,7.33v.45h.44V8h-.44V9c0,.23.11.29.24.29l.15,0v.21a.91.91,0,0,1-.27,0,.59.59,0,0,1-.36-.1c-.09-.08-.13-.19-.13-.43V8H26V7.78h.28V7.41Z"/><path class="cls-5" d="M28.3,8.45h0c0-.34-.16-.49-.34-.49s-.36.26-.37.49Zm-.72.2c0,.52.28.64.55.64a1,1,0,0,0,.38-.07l0,.2a1.5,1.5,0,0,1-.5.08.76.76,0,0,1-.83-.85c0-.55.31-.9.77-.9s.65.37.65.75v.15Z"/><path class="cls-5" d="M18.77,11.61h0c0-.34-.17-.49-.34-.49s-.36.26-.38.49Zm-.72.2c0,.52.28.63.54.63a1,1,0,0,0,.38-.06l.06.2a1.5,1.5,0,0,1-.5.08.78.78,0,0,1-.84-.86.79.79,0,0,1,.78-.89c.46,0,.65.36.65.75a.66.66,0,0,1,0,.15Z"/><rect class="cls-5" x="19.46" y="10.21" width="0.37" height="2.43"/><path class="cls-5" d="M22,11.52h0a.25.25,0,0,0,0-.12.33.33,0,0,0-.33-.26c-.27,0-.41.26-.41.64s.19.63.41.63a.34.34,0,0,0,.33-.24A.41.41,0,0,0,22,12Zm.38-.58c0,.12,0,.27,0,.53v.95c0,.44-.08.61-.23.74a1,1,0,0,1-.61.18,1.4,1.4,0,0,1-.5-.09l.08-.21a1.13,1.13,0,0,0,.43.08c.29,0,.47-.14.47-.52v-.17h0a.5.5,0,0,1-.44.2c-.41,0-.67-.34-.67-.84s.38-.88.72-.88a.46.46,0,0,1,.42.22h0l0-.19Z"/><path class="cls-5" d="M23.12,11.79h0c0,.28.07.66.4.66s.38-.4.38-.66-.06-.66-.39-.66-.39.4-.39.66m1.15,0a.77.77,0,0,1-.77.87c-.41,0-.74-.27-.74-.87a.77.77,0,0,1,.77-.88C23.93,10.91,24.27,11.19,24.27,11.79Z"/><rect class="cls-5" x="24.63" y="10.21" width="0.37" height="2.43"/><path class="cls-5" d="M25.84,12h0a.32.32,0,0,0,0,.14.35.35,0,0,0,.33.29c.31,0,.4-.31.4-.65s-.11-.65-.4-.65a.38.38,0,0,0-.34.31.53.53,0,0,0,0,.13Zm-.36-.54c0-.26,0-.41,0-.53h.33l0,.22h0a.56.56,0,0,1,.49-.25c.4,0,.66.31.66.87s-.35.88-.71.88a.47.47,0,0,1-.4-.19h0v.84h-.36Z"/><path class="cls-5" d="M28.3,11.61h0c0-.34-.16-.49-.34-.49s-.36.26-.37.49Zm-.72.2c0,.52.28.63.55.63a1,1,0,0,0,.37-.06l.06.2a1.5,1.5,0,0,1-.5.08.77.77,0,0,1-.83-.86.78.78,0,0,1,.77-.89c.47,0,.65.36.65.75v.15Z"/><path class="cls-5" d="M4.61,13.59a5.86,5.86,0,0,1,0,1.86c-.19.5-1,.61-1,.61a2,2,0,0,0,1.1-.22c.5-.29-.55.41-.55.41L5.1,16s.74-.11.93-.34-.42-1.53-1.42-2.05"/></svg>