<svg id="Capa_1" data-name="Capa 1" xmlns="http://www.w3.org/2000/svg" viewBox="0 0 31.18 27.4"><defs><style>.cls-1{fill:#ffd826;}.cls-2{fill:#f89d47;}.cls-3{fill:#0070a2;}.cls-4{fill:#f05050;}.cls-5{fill:#b3d335;}.cls-6{fill:#99d9ec;}.cls-7{fill:#fbc9b5;}.cls-8{fill:#231f20;}</style></defs><title>8-6meses</title><path class="cls-1" d="M1.7,14.92,20.48,16s5.09,0,5.82.57,2.56,5.66,3.26,7.15a16.13,16.13,0,0,1,1,2.59s0,.55-.81.9-12.51.06-12.51.06l-2.08-.06-3.81.06-1.28.11H1.86l-.32-.73V14.92Z"/><path class="cls-2" d="M6.14,18.42s-8.07,1.11-.43,1.9,9.32,1,10.33,1.4,1.31,2,1.31,2-.44,1,.9.79,1.92-1,1.53-1.63.69-1.42.69-1.68a3.47,3.47,0,0,1,2.6-1.57c1.28,0,3.33-.44,2.44-1S9.29,16.11,6.14,18.42"/><polygon class="cls-3" points="22.24 26.03 21.89 24.77 19.52 23.97 20.21 25.22 22.24 26.03"/><polygon class="cls-4" points="21.89 24.77 23.48 23.41 23.87 23.73 23.87 24.85 22.41 26.18 21.89 24.77"/><polygon class="cls-5" points="22.08 24.85 19.52 24.07 21.37 22.88 23.48 23.47 22.08 24.85"/><path class="cls-6" d="M11.41,18.21C12,17.69,13,16,12.63,15.6A6.43,6.43,0,0,0,10,14.69a4.67,4.67,0,0,0-2.83.17,6.53,6.53,0,0,0-1.46,1.69s2.45,2.72,2.48,2.7S9,20,9.62,20A3.31,3.31,0,0,0,11,19.55Z"/><path class="cls-7" d="M4.36,15.9s.09-1-.1-1.08a1.38,1.38,0,0,0-.61-.13c-.31,0-1.18-.13-1.24-.27s0-.3.25-.36.17-.21.44-.34,1.25-.56,1.49-.74,1-.61,1.26-.29.15.68.49,1.05a2.69,2.69,0,0,1,.56.8,1.22,1.22,0,0,1,0,.52s-.91.68-1,1a1.08,1.08,0,0,1-.23.5,5.44,5.44,0,0,1-1-.45.71.71,0,0,0-.3-.2"/><path class="cls-7" d="M24,15.92a10.45,10.45,0,0,0-3.09-.47c-.51.07-3.79.71-4.36.78a29.43,29.43,0,0,1-3-.2A3.93,3.93,0,0,0,12.13,16c-.45.16-1.93,1.13-1.9,1.79s-.47-.95-.79-1.15a3.43,3.43,0,0,0-1.88-.67,3.56,3.56,0,0,0-1.49.94s-1.22-.38-1.25-.42a1.15,1.15,0,0,0-1.12-.69,3.61,3.61,0,0,0-1.6.6.43.43,0,0,0-.43,0c-.25.11-.57.11-.57.3a1.49,1.49,0,0,1,0,.56c-.08.26-.41.24-.17.38s.24,0,.24,0S.88,17.83,1,18s.34.14.59,0a8.08,8.08,0,0,1,.83-.3c.15,0,.75-.14.79-.16a5.75,5.75,0,0,1,.91.81A2.23,2.23,0,0,0,6.28,19.6a3.71,3.71,0,0,0,3.08-1.14c.3-.41.56-.51.7-.42s.07.41.07.41a4.55,4.55,0,0,0,.23,1.3.73.73,0,0,0,.54.24,6.49,6.49,0,0,0,2.17.1c1-.17,1.53-.3,1.53-.3a3.27,3.27,0,0,0,1.63,1.36,16.45,16.45,0,0,0,3.32.58,1.26,1.26,0,0,1,.61.14s1.05.42,1.21.25.25-.48.59-.62.65-.08.66-.36-.18-.31-.44-.45-.32-.19-.26-.34.14-.26,0-.33a1.4,1.4,0,0,0-.89.09,1.9,1.9,0,0,1-1,.26,10.47,10.47,0,0,1-1.94-.43c-.27-.11-.77-.08-.84-.52s.11-.15.11-.15a.65.65,0,0,0,.54-.13,2.53,2.53,0,0,1,.38-.34s-.06.48.9.62a4.39,4.39,0,0,0,2.34-.1,1.06,1.06,0,0,1,.81-.27c.28,0,.53-.12.53-.19s.14-.13.28-.06A2.24,2.24,0,0,0,24,19c.15-.05.64,0,.77,0s.26-.19.5-.4.3-.5.08-.65a11.93,11.93,0,0,0-1.12-.51s.68-.34.61-.74Z"/><path class="cls-8" d="M21.5,17.43a6.57,6.57,0,0,0-1.34.38l.59-.09a3.24,3.24,0,0,1,1.77.09c.29-.28-.67-.38-1-.38"/><path class="cls-8" d="M20.64,18.05l.53-.07s-.1.14.13.2a.52.52,0,0,0,.42-.13l.07.06.17-.06L21.8,18a1.86,1.86,0,0,0-1.16.1"/><path class="cls-8" d="M21.17,19.14a4.65,4.65,0,0,1-1,0c.3.31,1.29-.06,1,0"/><path class="cls-8" d="M22.93,25.36h0l-.46.43L22,25h0l0,0,.09-.06c.29-.18.57-.38.84-.58a9.65,9.65,0,0,0,.78-.62l0,0a4.9,4.9,0,0,0,0,.54c0,.19,0,.38,0,.57l-.76.63m-1.51.19h0c-.29-.16-.61-.29-.92-.43a9.36,9.36,0,0,0-.89-1h0c.38.12.79.21,1.17.33a8,8,0,0,1,1.09.45l0,0h-.07c-.06,0-.1.07-.08.12h0c.08.3.16.59.25.88Zm-.73-2h0a5.13,5.13,0,0,0,.68-.63,16.92,16.92,0,0,0,1.7.71l-.53.46c-.22.2-.43.41-.63.62-.35-.1-.69-.21-1-.34L20.08,24A7.35,7.35,0,0,0,20.69,23.51Zm3.12,0,.12-.1-.32-.1a19.59,19.59,0,0,0-2.23-.52h0a8.08,8.08,0,0,0-.93.47,8.48,8.48,0,0,0-.83.54l-.21.16.14.05a7,7,0,0,0,.62,1.22.17.17,0,0,0,.06.06h0c.32.15.64.31,1,.44l.93.34s0,.05,0,.07a.18.18,0,0,0,.08.09.34.34,0,0,0,.35,0h0l.79-.67c.25-.23.49-.47.73-.71h0a.09.09,0,0,0,0-.09q-.06-.32-.15-.63A5.76,5.76,0,0,0,23.81,23.56Z"/><path class="cls-8" d="M24.57,17.69h0l.16.1.16.1a2,2,0,0,1,.33.28.34.34,0,0,1,.11.19.24.24,0,0,1-.09.18,1,1,0,0,1-.16.1l-.11.08,0-.08a.64.64,0,0,0,0-.36.51.51,0,0,0-.35-.26l0,0c.17.18.07.35,0,.51a1,1,0,0,1-.16.2,1,1,0,0,0,0-.24.43.43,0,0,0-.12-.2.47.47,0,0,0-.29-.11,1.54,1.54,0,0,0-.48.11h0a0,0,0,0,0,0,.07h0a.79.79,0,0,1,.24.35.13.13,0,0,1,0,.06h0a1.87,1.87,0,0,1-.44-.11l-.3-.11s0,0,0-.05a.65.65,0,0,1,.11-.29.92.92,0,0,1,.26-.26h0a3.91,3.91,0,0,0,.94-.54l.1.07.27.16M24.46,19Zm-.7-.49h0l-.14-.11a.54.54,0,0,1,.28,0c.09,0,.08.08.06.16a.37.37,0,0,1,0,.11Zm-.08.36h0s0,0,0,0S23.68,18.86,23.68,18.85Zm-1,0Zm-.23,0h0a2.76,2.76,0,0,0-.56,0l-.11,0-.08,0-.09.05-.19.08a3.91,3.91,0,0,1-.88.22l-.48.05-.48,0h-.22l-.19,0a1,1,0,0,1-.35-.15A1.76,1.76,0,0,1,18.13,18l0-.13h-.18a.19.19,0,0,1-.09,0,.11.11,0,0,1-.07-.08.5.5,0,0,1,0-.3c0-.24,0-.48,0-.7s0-.22.1-.23a.29.29,0,0,1,.18,0l.22.06a.62.62,0,0,1,.31.23.29.29,0,0,1-.06.31l.05,0a.51.51,0,0,0,.09-.13v.09a1.57,1.57,0,0,0,.17.57l.28-.55.15.44s.51-.83.93-1l.86-.38-1.11.7,1.46-.39-.43.42.91-.22,1.37-.29-1,.47,1.09-.19s-1,.66-.88.69a8.65,8.65,0,0,0,1.39-.6l-.75.67,1.43-.67-.36.43-.12.1a3.16,3.16,0,0,1-.93.49h0a1.16,1.16,0,0,0-.35.3.75.75,0,0,0-.17.36.63.63,0,0,0,0,.36A.43.43,0,0,1,22.45,18.88ZM18,18.8h0l-.37.15a1.56,1.56,0,0,0-.31.23,2,2,0,0,1-.14-.38,4.67,4.67,0,0,1-.18-1H16.9a2.85,2.85,0,0,0,0,1,2.73,2.73,0,0,0,.33,1l0,.05.08,0c.38.13.77.24,1.16.34a8.88,8.88,0,0,0,1.23.27l.35,0h.22a.44.44,0,0,0,.17-.06c.2-.09.35-.19.51-.27a1.2,1.2,0,0,1,.49-.14.73.73,0,0,1,.25,0l.2.08a.28.28,0,0,0,0,.2.48.48,0,0,0,.16.23c.17.12.38.18.51.28a.14.14,0,0,1,.06.16.87.87,0,0,1-.1.19.49.49,0,0,1-.17.15.23.23,0,0,1-.11,0h-.09l-.1-.05-.05.09a.5.5,0,0,1-.29.2h-.08c-.06,0-.13.05-.14.1s0,.06,0,.07v0h-.15l-.05.05a.4.4,0,0,1-.13.07H21l-.06,0-.11,0-.22-.07-.88-.3-.24,0s0,0,0,0h-.11a.88.88,0,0,1-.23,0,2.94,2.94,0,0,1-.51,0c-.33-.05-.69-.12-1-.19a8.47,8.47,0,0,1-1.88-.62,2.3,2.3,0,0,1-.37-.23l-.16-.13a.93.93,0,0,1-.13-.15,1.17,1.17,0,0,1-.17-.31,1.84,1.84,0,0,1-.05-.36c0-.24,0-.49-.06-.74a4.7,4.7,0,0,1,0-.75h-.05a3.41,3.41,0,0,0-.18.75c0,.25-.05.51-.07.76a2.43,2.43,0,0,0,0,.27,19,19,0,0,1-2,.19H12.2a2.25,2.25,0,0,1-.26,0,4.21,4.21,0,0,1-.51,0,1.9,1.9,0,0,1-.25,0l-.24-.05-.22-.07-.22-.07-.12-.05a3,3,0,0,1-.13-1.18,2.62,2.62,0,0,1,.12-.62,2.18,2.18,0,0,1,.27-.58,2.75,2.75,0,0,1,.19-.28l.25-.25a2.3,2.3,0,0,1,.59-.41l.37-.14a2.57,2.57,0,0,1,.4-.07h.41a2.11,2.11,0,0,1,.38,0h0a14.15,14.15,0,0,0,2.46.25A3.55,3.55,0,0,0,17,16.26h0l.43-.08-.53.52.53-.14-.31.51.31-.14a3.18,3.18,0,0,1-.07.55.77.77,0,0,0,0,.4.43.43,0,0,0,.18.21.56.56,0,0,0,.18.07,2.3,2.3,0,0,0,.2.61l0,0Zm3.72,3Zm-11.61-2h0l-.25,0a2.15,2.15,0,0,1-.5,0l-.24-.07a1.7,1.7,0,0,1-.24-.09,3.65,3.65,0,0,1-.34-.18l0,0a3.43,3.43,0,0,0,.74-.46,3.37,3.37,0,0,0,.58-.55,1.42,1.42,0,0,0,.21-.33,3.4,3.4,0,0,0,0,.45,3.35,3.35,0,0,0,.29,1.2l-.05,0-.1,0Zm-2.52-.27h0a3.32,3.32,0,0,1-.9.09,4.63,4.63,0,0,1-.92-.09A2.22,2.22,0,0,1,5,19.13a3.84,3.84,0,0,1-.56-.5,12.22,12.22,0,0,1-.84-1.13l-.09-.15-.21.06a12.11,12.11,0,0,1-1.38.35H1.84l0,0a2.23,2.23,0,0,1-.3.2,1.15,1.15,0,0,1-.17.06.27.27,0,0,1-.12,0l-.06,0,0,0a.14.14,0,0,1,0-.12.4.4,0,0,1,.09-.17l.21,0a1.34,1.34,0,0,0,.4-.17l0,0a1.54,1.54,0,0,1-.42.07.44.44,0,0,1-.29-.08l0,0H1v0s0,0,0,0,0,0,0,0l.33-.05c.1,0,.19-.05.2-.11s-.05-.16-.17-.17h0l-.1,0h0l.06,0h.12l.14-.28-.24-.07-.05,0h0l.09,0a.65.65,0,0,1,.24,0h0a.11.11,0,0,0,.13,0s0-.08-.05-.1h0a.59.59,0,0,1-.16-.06h0a.93.93,0,0,1,.41.05.12.12,0,0,0,.1,0,2.56,2.56,0,0,1,1.42-.5h.18l.19,0a1.49,1.49,0,0,1,.3.09.52.52,0,0,1,.19.17l.06.1a.65.65,0,0,1,0,.11.18.18,0,0,0,.15.15h0l.85.25.21.05.2.06.19.07.17.08a7.76,7.76,0,0,1,.69.4l.65.47,0,0a3.56,3.56,0,0,0-.47-.57,3.56,3.56,0,0,0-.62-.52l-.2-.11,0,0a2.49,2.49,0,0,1,.54-.43A1.55,1.55,0,0,1,7.64,16a1.83,1.83,0,0,1,.77.15l.15.09.17.11.3.23a1.3,1.3,0,0,1,.61,1.05,1.12,1.12,0,0,1-.22.55,4.74,4.74,0,0,1-.49.52A3.08,3.08,0,0,1,7.54,19.49ZM1,17.45Zm.26-.82h0s0,0,0,0S1.27,16.64,1.28,16.63ZM3,14.49H3a1.14,1.14,0,0,1-.47-.1s0-.07,0-.07a.34.34,0,0,1,0-.1s0-.07,0-.07,0,0,.1,0A.41.41,0,0,0,2.93,14a.55.55,0,0,1,.17-.17,2.09,2.09,0,0,1,.55-.18,2.6,2.6,0,0,0,.59-.24c.19-.11.32-.23.46-.31a1.26,1.26,0,0,1,.92-.2l.14.07,0,0s0,.09,0,.08a2.42,2.42,0,0,1,0,.42,1.13,1.13,0,0,0,.18.48,1.64,1.64,0,0,0,.4.39,1.22,1.22,0,0,1,.34.34.36.36,0,0,1,.07.17l-.15.09a.74.74,0,0,0-.17,0,1.39,1.39,0,0,0-.49,0,.86.86,0,0,0-.39.23.28.28,0,0,0-.08.17h.25l.41-.06.08,0a1.69,1.69,0,0,0-.26.28,1.78,1.78,0,0,0-.23.42,1.47,1.47,0,0,0-.1.33c0,.09,0,.17,0,.22-.23-.08-.47-.14-.7-.21l0-.07A.82.82,0,0,0,4.87,16a1.07,1.07,0,0,0-.35-.26c0-.14,0-.28,0-.41s0-.46,0-.67v-.16H4.25C3.85,14.53,3.42,14.52,3,14.49ZM7.48,15h0a3.47,3.47,0,0,1,.73-.26A4,4,0,0,1,9,14.6a3.74,3.74,0,0,1,.88.07,4.11,4.11,0,0,1,.8.23c.25.09.47.2.69.28l.62.25.26.11a2,2,0,0,1,.2.11.74.74,0,0,1,.18.17l-.3,0a2.68,2.68,0,0,0-.49.11,2.11,2.11,0,0,0-.44.17,2.72,2.72,0,0,0-.68.5l-.24.29a2.38,2.38,0,0,0-.18.3,2.63,2.63,0,0,0-.15.35A1.17,1.17,0,0,0,10,17a2.7,2.7,0,0,0-.58-.59l-.36-.23L8.87,16l-.23-.11a2.17,2.17,0,0,0-1.05-.13,1.69,1.69,0,0,0-.88.37,1.86,1.86,0,0,0-.43.51l-.1-.05L6,16.54l-.16-.05h0s.06-.11.12-.19a3.46,3.46,0,0,1,.52-.63A3.68,3.68,0,0,1,7.48,15Zm7.21.84h0a15.82,15.82,0,0,0,1.69,0h.2l-.06.2a4.14,4.14,0,0,1-.81.07,15.19,15.19,0,0,1-2.33-.22h0a2,2,0,0,0-.48,0,.56.56,0,0,0-.07-.19l.19,0C13.48,15.73,14.09,15.79,14.69,15.82ZM30.92,26a.7.7,0,0,0-.08-.14l-.1-.11a2.21,2.21,0,0,1-.24-.39l-.23-.47c-.16-.33-.32-.68-.48-1s-.34-.73-.51-1.11l-.54-1.15c-.18-.38-.35-.77-.49-1.16a8.5,8.5,0,0,1-.32-1.14c-.09-.38-.13-.74-.25-1.09a3,3,0,0,0-.55-.94,2.63,2.63,0,0,0-.83-.66,3.11,3.11,0,0,0-.87-.3l-.26,0a2.51,2.51,0,0,0-1.38-2.34,7.54,7.54,0,0,0-3.79-1,3.85,3.85,0,0,0-3.36,2.74l-.24,0c-.46-.06-1.06-.12-1.67-.15s-1.22,0-1.68,0l-.33,0a1.57,1.57,0,0,0-.19-.15l-.27-.15a4.39,4.39,0,0,0-.65-.27,7.85,7.85,0,0,0-.8-.19L10,14.56c-.29-.05-.59-.11-.91-.15a3.17,3.17,0,0,0-1,0,4.14,4.14,0,0,0-.87.24L7,14.75a.66.66,0,0,0,0-.14,1.31,1.31,0,0,0-.28-.44,1.26,1.26,0,0,1-.27-.36.81.81,0,0,1-.08-.38,3.62,3.62,0,0,0,0-.45c0-.08,0-.07,0-.14a.56.56,0,0,0-.14-.16.94.94,0,0,0-.38-.17,1.82,1.82,0,0,0-.81,0,1.86,1.86,0,0,0-.6.29c-.16.13-.27.26-.39.36a1.77,1.77,0,0,1-.45.26A3.53,3.53,0,0,0,3,13.7c-.17.12-.21.3-.37.31a.44.44,0,0,0-.19.05.27.27,0,0,0-.1.13l0,.12c0,.07,0,.07,0,.14a1,1,0,0,0,.63.31,5.26,5.26,0,0,0,.67.07h.46a2.56,2.56,0,0,0,.1.54,2,2,0,0,0,.12.31,1.45,1.45,0,0,0-.3-.06H3.75a1.06,1.06,0,0,0-.25,0,2.38,2.38,0,0,0-.84.28,3.68,3.68,0,0,0-.6.4l-.19,0a1.15,1.15,0,0,0-.26,0H1.54a.16.16,0,0,0-.09,0s0,.05,0,.07h0a.76.76,0,0,0-.21,0l-.09,0L1,16.5a.15.15,0,0,0-.07.12.22.22,0,0,0,0,.12l0,0,0,0-.08.05-.05.05a.22.22,0,0,0-.09.2.31.31,0,0,0,.05.1h0a.38.38,0,0,0-.12.1.17.17,0,0,0,0,.15.26.26,0,0,0,.07.11H.79l0,0a.52.52,0,0,0,.22.07.45.45,0,0,0-.13.15.25.25,0,0,0,0,.19.15.15,0,0,0,.06.09c.05.05,0,.05.1.08a.64.64,0,0,0,.33,0l.25-.07A2.16,2.16,0,0,0,2,18a8.24,8.24,0,0,0,1.24-.24,4.44,4.44,0,0,0,.89,1,3.74,3.74,0,0,0,1.53.82,5.23,5.23,0,0,0,1,.11,4.62,4.62,0,0,0,1,0,3.28,3.28,0,0,0,.84-.25.92.92,0,0,0,.26.26,1.58,1.58,0,0,0,.48.27,2,2,0,0,0,.61.12,1.82,1.82,0,0,0,.33,0l.16,0h0l.16.07a1.84,1.84,0,0,0,.28.09,1.4,1.4,0,0,0,.28.06l.29.05.59,0a5.63,5.63,0,0,0,.58,0,6.65,6.65,0,0,0,1.1-.19,8,8,0,0,0,.83-.26v.08a1.49,1.49,0,0,0,.17.39.9.9,0,0,0,.15.19,1.36,1.36,0,0,0,.17.17,2.5,2.5,0,0,0,.41.29,4.75,4.75,0,0,0,1,.42,9.73,9.73,0,0,0,1.06.28,10.09,10.09,0,0,0,1.1.18,5.44,5.44,0,0,0,.58,0h.31l.17,0,.07,0,.81.23.23.07.11,0,.06,0,.09,0a.81.81,0,0,0,.36,0,.7.7,0,0,0,.19-.13.23.23,0,0,0,.11,0c.06,0,.15-.09.15-.15s0,0,0-.06a.56.56,0,0,0,.3-.14l.1-.12h.12a.52.52,0,0,0,.4-.27.65.65,0,0,0,.11-.22.26.26,0,0,0-.11-.26,2.34,2.34,0,0,0-.27-.14,1.08,1.08,0,0,1-.24-.14.27.27,0,0,1-.11-.17.28.28,0,0,1,0-.18l0,0-.05,0a1.23,1.23,0,0,0-.62-.21,1.74,1.74,0,0,0-.67.13c-.19.08-.36.17-.52.23l-.11,0H20l-.26,0c-.74-.14-1.5-.34-2.24-.54a2.48,2.48,0,0,1-.18-.31h.06a1.23,1.23,0,0,0,.48-.13.62.62,0,0,0,.2-.15s0,0,0,0a1.68,1.68,0,0,0,.38.37,1.58,1.58,0,0,0,.49.23l.3.05.28,0,.53,0,.52-.06a4.85,4.85,0,0,0,1-.27,1.2,1.2,0,0,0,.23-.11l.1,0s0,0,0,0h0a4.13,4.13,0,0,1,.44,0h.29A.34.34,0,0,0,23,19c0-.11,0-.11,0-.13l.05,0a1.34,1.34,0,0,0,.61.24h.27l.08,0s0,0,0,.06l0,0,.06,0a.41.41,0,0,0,.25.07.6.6,0,0,0,.18,0l.08,0,.06,0,0,0,0,0,.1-.09a.89.89,0,0,0,.42-.07.57.57,0,0,0,.23-.15.29.29,0,0,0,.07-.23,2.24,2.24,0,0,1,0-.24.82.82,0,0,1,0-.22.43.43,0,0,0,0-.25.69.69,0,0,0-.16-.22,1.09,1.09,0,0,0-.52-.25,1.66,1.66,0,0,0-.43,0h-.08s0,0,0,0a1.66,1.66,0,0,0,.8-.81,1,1,0,0,0,0-.18l.21.05a2.84,2.84,0,0,1,1.39,1,3.59,3.59,0,0,1,.5.88c.13.33.27.68.41,1.05s.31.74.44,1.13c.06.19.13.39.19.59l.18.59A19.23,19.23,0,0,0,29.28,24c.15.36.31.72.48,1.05.09.16.17.32.28.48a2.24,2.24,0,0,0,.36.46.43.43,0,0,1,0,.62,1.44,1.44,0,0,1-.53.46,1.81,1.81,0,0,1-.51.19l-.19.05v0h.22a2.68,2.68,0,0,0,.59-.14,1.76,1.76,0,0,0,.71-.47.8.8,0,0,0,.21-.42A.47.47,0,0,0,30.92,26Z"/><path class="cls-8" d="M27.25,23.41c0-.42,0-.7,0-.7s0,.28-.06.7,0,1,0,1.56c.06,1.13.23,2.26.23,2.26l.51-.05s-.3-1.11-.49-2.23c-.09-.56-.16-1.12-.19-1.54"/><path class="cls-8" d="M6.21,2.73c0-.31,0-.66,0-.92h0a7.83,7.83,0,0,1-.27.82L5.45,3.74H5.2L4.8,2.67a7.13,7.13,0,0,1-.28-.86h0c0,.27,0,.6,0,.94l-.07,1H4l.21-2.37h.42l.4,1.09a7.15,7.15,0,0,1,.28.81h0a7.24,7.24,0,0,1,.25-.81L6,1.38h.44l.2,2.37H6.28Z"/><path class="cls-8" d="M7.12,3.75h0V2.05h.4v1.7Zm.43-2.14c0,.11-.1.18-.24.18s-.23-.07-.23-.18.1-.17.23-.17S7.55,1.51,7.55,1.61Z"/><path class="cls-8" d="M8,2.49c0-.14,0-.31,0-.44h.36l0,.27h0A.6.6,0,0,1,8.89,2H9V2.3H8.89a.48.48,0,0,0-.48.35.81.81,0,0,0,0,.16v.94H8Z"/><path class="cls-8" d="M10.12,2.87h0c-.21,0-.68,0-.68.4a.28.28,0,0,0,.3.3.37.37,0,0,0,.37-.26.31.31,0,0,0,0-.09Zm.06.88,0-.18h0a.61.61,0,0,1-.49.21.53.53,0,0,1-.59-.49c0-.42.5-.61,1.06-.61V2.62c0-.22-.08-.38-.4-.38a1,1,0,0,0-.4.08l-.09-.18A1.29,1.29,0,0,1,9.8,2c.49,0,.71.23.71.61v.73a2.42,2.42,0,0,0,0,.39Z"/><path class="cls-8" d="M13,3.71a1.37,1.37,0,0,1-.41.06.82.82,0,0,1-.91-.86.89.89,0,0,1,1-.88,1.08,1.08,0,0,1,.35.05l-.08.22a.77.77,0,0,0-.28,0,.59.59,0,0,0-.57.66.56.56,0,0,0,.58.64.88.88,0,0,0,.29,0Z"/><path class="cls-8" d="M14.76,3.29c0,.19,0,.33,0,.46h-.34l0-.18h0a.69.69,0,0,1-.53.21c-.44,0-.6-.23-.6-.65V2.05h.39v1c0,.26.06.46.33.46a.36.36,0,0,0,.36-.23.61.61,0,0,0,0-.15V2.05h.39Z"/><path class="cls-8" d="M16.18,2.87h0c-.2,0-.68,0-.68.4a.29.29,0,0,0,.3.3.35.35,0,0,0,.37-.26.31.31,0,0,0,0-.09Zm.06.88,0-.18h0a.62.62,0,0,1-.49.21c-.34,0-.59-.19-.59-.49s.49-.61,1.05-.61V2.62c0-.22-.08-.38-.39-.38a1,1,0,0,0-.41.08l-.09-.18A1.29,1.29,0,0,1,15.86,2c.5,0,.71.23.71.61v.73a1.63,1.63,0,0,0,0,.39Z"/><path class="cls-8" d="M17.07,2.49c0-.2,0-.3,0-.44h.35l0,.2h0A.7.7,0,0,1,18,2a.54.54,0,0,1,.6.59V3.75H18.2V2.65c0-.19-.06-.4-.34-.4a.38.38,0,0,0-.38.28.66.66,0,0,0,0,.15V3.75h-.4Z"/><path class="cls-8" d="M20.19,2.7h0V2.58a.39.39,0,0,0-.37-.33c-.33,0-.44.32-.44.66s.13.64.42.64a.38.38,0,0,0,.38-.29.37.37,0,0,0,0-.11Zm.39-1.38v2c0,.12,0,.31,0,.41h-.34l0-.21h0a.63.63,0,0,1-.52.24c-.42,0-.72-.31-.72-.87s.36-.89.74-.89a.5.5,0,0,1,.45.21h0V1.32Z"/><path class="cls-8" d="M21.37,2.9h0c0,.28.07.66.43.66s.4-.4.4-.66-.06-.66-.41-.66-.42.4-.42.66m1.23,0a.79.79,0,0,1-.82.88A.77.77,0,0,1,21,2.9.8.8,0,0,1,21.81,2,.78.78,0,0,1,22.6,2.9Z"/><path class="cls-8" d="M25,3.71a1.27,1.27,0,0,1-.41.06.81.81,0,0,1-.9-.86.89.89,0,0,1,1-.88,1,1,0,0,1,.34.05l-.07.22a.84.84,0,0,0-.29,0,.59.59,0,0,0-.57.66.57.57,0,0,0,.59.64.87.87,0,0,0,.28,0Z"/><path class="cls-8" d="M26.17,2.87h0c-.2,0-.68,0-.68.4a.29.29,0,0,0,.31.3.35.35,0,0,0,.36-.26.31.31,0,0,0,0-.09Zm.06.88,0-.18h0a.62.62,0,0,1-.49.21.53.53,0,0,1-.59-.49c0-.42.5-.61,1.05-.61V2.62c0-.22-.08-.38-.39-.38a1.07,1.07,0,0,0-.41.08l-.09-.18A1.36,1.36,0,0,1,25.85,2c.5,0,.71.23.71.61v.73a1.63,1.63,0,0,0,0,.39Z"/><path class="cls-8" d="M28.12,2.73h0c0-.35-.18-.5-.37-.5s-.39.26-.4.5Zm-.78.2c0,.51.3.63.59.63a1.12,1.12,0,0,0,.41-.07l.06.2a1.75,1.75,0,0,1-.54.08.79.79,0,0,1-.9-.85.81.81,0,0,1,.83-.9.68.68,0,0,1,.71.75.76.76,0,0,1,0,.16Z"/><path class="cls-8" d="M5.58,6.44c0,.19,0,.34,0,.47H5.25l0-.18h0a.77.77,0,0,1-.53.21c-.44,0-.61-.24-.61-.66V5.21h.4v1c0,.27.06.47.33.47a.34.34,0,0,0,.35-.23.36.36,0,0,0,0-.15V5.21h.4Z"/><path class="cls-8" d="M6.08,5.65c0-.2,0-.3,0-.44H6.4l0,.2h0A.74.74,0,0,1,7,5.18a.54.54,0,0,1,.6.59V6.91H7.2V5.81c0-.2,0-.4-.34-.4a.37.37,0,0,0-.37.28.61.61,0,0,0,0,.15V6.91H6.08Z"/><path class="cls-8" d="M9.14,6.06h0c0,.28.07.66.43.66s.4-.4.4-.66-.06-.66-.41-.66-.42.4-.42.66m1.23,0a.8.8,0,0,1-.82.88.78.78,0,0,1-.81-.88.8.8,0,0,1,.83-.88A.78.78,0,0,1,10.37,6.06Z"/><path class="cls-8" d="M11.15,6.31h0a.31.31,0,0,0,0,.1c.1.26.26.3.37.3.32,0,.43-.29.43-.66s-.12-.64-.43-.64a.4.4,0,0,0-.37.3.49.49,0,0,0,0,.12Zm-.42.6c0-.1,0-.29,0-.41v-2h.4v.93h0a.61.61,0,0,1,.52-.23c.38,0,.68.31.68.86s-.37.9-.76.9a.54.54,0,0,1-.49-.25h0l0,.22Z"/><path class="cls-8" d="M12.33,7.39h0a.57.57,0,0,0,.33-.13c.09-.09.12-.22.12-.54V5.21h.39V6.8c0,.36-.07.52-.25.65a1.12,1.12,0,0,1-.54.16Zm.88-2.62c0,.11-.09.18-.24.18s-.23-.07-.23-.18.1-.18.24-.18S13.21,4.66,13.21,4.77Z"/><path class="cls-8" d="M14.72,5.88h0c0-.34-.18-.49-.37-.49s-.39.26-.41.49Zm-.78.2c0,.52.3.63.59.63a1.09,1.09,0,0,0,.4-.06l.07.2a1.77,1.77,0,0,1-.55.08.8.8,0,0,1-.9-.85.82.82,0,0,1,.84-.9.68.68,0,0,1,.7.75v.15Z"/><path class="cls-8" d="M16,4.76v.45h.47v.21H16v1c0,.22.11.28.26.28h.16V6.9a1.07,1.07,0,0,1-.29,0,.69.69,0,0,1-.39-.1.49.49,0,0,1-.15-.43v-1h-.3V5.21h.3V4.84Z"/><path class="cls-8" d="M17,6.06h0c0,.28.07.66.43.66s.4-.4.4-.66-.07-.66-.41-.66-.42.4-.42.66m1.23,0a.8.8,0,0,1-.82.88.78.78,0,0,1-.81-.88.8.8,0,0,1,.83-.88A.78.78,0,0,1,18.2,6.06Z"/><path class="cls-8" d="M17.11,15a5.12,5.12,0,0,1-.92,1.55,3,3,0,0,1-1.32.26,3.44,3.44,0,0,0,1.35,0,2,2,0,0,1-.58.16,2.14,2.14,0,0,0,1-.07,1.27,1.27,0,0,0,.24.74,4.18,4.18,0,0,1,.4.57,7.48,7.48,0,0,0,.34-1.13c0-.37.32-1.06.14-1.25s-.68-.83-.68-.83"/></svg>