<svg id="Capa_1" data-name="Capa 1" xmlns="http://www.w3.org/2000/svg" viewBox="0 0 22.68 25.92"><defs><style>.cls-1{fill:#f5a4c7;}.cls-2{fill:#fbc9b7;}.cls-3{fill:#231f20;}</style></defs><title>1-7meses</title><path class="cls-1" d="M4.42,15.85,1.84,17.62s-.48-.05-.58.6-.2,4.1,1.58,4.5,2.75.62,3.71.27,4.38-3.36,4.38-3.36a1.28,1.28,0,0,0-.49-2.17,48.12,48.12,0,0,0-6-1.61"/><path class="cls-2" d="M3.17,17.55l-1.33.07A16.07,16.07,0,0,1,3,15.21c.61-1,2-3.42,2.93-4s2-1.39,1.62-2.09A4.32,4.32,0,0,1,7,6.55c.23-.41,2.53-2.91,4.69-2.73a22.69,22.69,0,0,1,3.87.65s.38,1,.17,1.36-1.07,1.52-.91,1.71.71.54.75.66-.07.34-.32.38a1.58,1.58,0,0,0-.49.16l.29.41s-.38.18-.47.24a.41.41,0,0,0-.12.11s.44.05.44.12-1.12,1.06-1.12,1.06l-2.08,0,0,.46.1.6a12.43,12.43,0,0,0,1.26-.43c.45-.19,1.66-1.67,2-1.76a2.14,2.14,0,0,1,1.31.36c.17.17.1.21.29.22a.22.22,0,0,1,.2.2s.43.36.42.46-.26.32-.26.32-.06.2-.13.38-.81.27-.81.27l-1.29.2a10.67,10.67,0,0,1-.75.88,13.25,13.25,0,0,1-1.49.89l-.51.18-.55,1.46s1.31.09,1.49-.19.92-1.25,1.16-1.13,0,.48.33.52.39,0,.48.15a2.81,2.81,0,0,1,.3,1,1.54,1.54,0,0,1-.17.48l-.47.29-2.18.93a24,24,0,0,1,2.86.06c.34.11.84,0,1,.37a.67.67,0,0,0,.51.39,19,19,0,0,0,2-.09c.44-.08.68-.06.72.09s-.27.35-.1.44.24.07.2.16a3,3,0,0,1-.39.4,8,8,0,0,1,1.46.21c.21.12.13.19.14.45s.14.6.07.81,0,.49-.78.59a6.55,6.55,0,0,1-2-.22l-.55.15A7.66,7.66,0,0,1,14.8,22.7c-1.14.14-3.42.38-3.86.41a28.37,28.37,0,0,1-3,.16,7,7,0,0,1-2.78-.42C4,22.39,2.89,21.72,3.81,20.53a4.48,4.48,0,0,1,4-1.73c1.6.13,3,.33,3,.33s.16.07.17-.23-.15-.55-.73-.61l-7-.74"/><path class="cls-3" d="M13.78,7.74a.73.73,0,0,0,.42-.4s.21-.06.19.1c0,0,.32-.39-.38-.22a1.31,1.31,0,0,0-.91.6l.43-.21s-.06.26.25.13"/><path class="cls-3" d="M15.4,10.36h0"/><path class="cls-3" d="M20.57,20.72c.3,0,.33-.37.33-.37l-.69.42.36-.05"/><path class="cls-3" d="M20.67,21.05c.33-.06.33-.44.33-.44l-.88.53.55-.09"/><path class="cls-3" d="M2.42,22.36h0a1.79,1.79,0,0,1-.67-.73,2.41,2.41,0,0,1-.24-.9,7.32,7.32,0,0,1-.09-.93,12.7,12.7,0,0,1,0-1.85c0-.21.5-.25.91-.26s.88,0,1.32.06L6.35,18,9,18.27l1.33.16c.47,0,.47.37.43.66-.26,0-.53-.06-.8-.1l-.82-.12-.82-.13a7.56,7.56,0,0,0-.86-.09H7.05a3.25,3.25,0,0,0-.44,0,4.68,4.68,0,0,0-.86.17,5,5,0,0,0-.79.3,4.43,4.43,0,0,0-.67.41,3.16,3.16,0,0,0-.53.5,2.62,2.62,0,0,0-.39.55,1.46,1.46,0,0,0-.14.28l0,.07s0,.06,0,.09l0,.17a1,1,0,0,0,0,.34,1.89,1.89,0,0,0,.13.33,1.94,1.94,0,0,0,.53.54,3.65,3.65,0,0,0,.69.4l.13.06c-.37,0-.75-.07-1.08-.13a3,3,0,0,1-1.12-.39m.24-6.44h0c.31-.56.65-1.11,1-1.66a14.32,14.32,0,0,1,2.66-3,8.52,8.52,0,0,1,.86-.67c.08-.06.15-.1.23-.17a1.45,1.45,0,0,0,.21-.22.94.94,0,0,0,.23-.52.87.87,0,0,0-.1-.45l-.18-.72A.62.62,0,0,1,7.9,7.8a1.06,1.06,0,0,0,0,.31,1.54,1.54,0,0,0,.44.64A1.91,1.91,0,0,0,8.71,9a1.84,1.84,0,0,0,.36.15,1.63,1.63,0,0,0,.62.07l.22,0v0H9.68A1.2,1.2,0,0,1,9.18,9a1.33,1.33,0,0,1-.75-1,.49.49,0,0,1,0-.27l0,0,0,0h0c.59,0,.71.12,1.34.55l-.17-.47h0l0,0,.52.35a1.59,1.59,0,0,1-.49-1,1.32,1.32,0,0,0,.33-.76s0-.25,0,.35l-.14.75.68-.78-.14.67.66-.67,1-1.19L12,6.4l.77-1.27L12.58,6.5l.53-.79L14.18,4.4,13.9,5.56l.58-.9-.05,1.47a4,4,0,0,0-1.83,1S14,6.05,15,6.4c0,0-.11-.32-.6-.27l1-1.52a2,2,0,0,1,.16.4,1.4,1.4,0,0,1,0,.86,6.2,6.2,0,0,1-.45.83,3.62,3.62,0,0,0-.24.43.42.42,0,0,0,0,.48,4.57,4.57,0,0,0,.41.37c.13.12.24.24.13.33a2,2,0,0,1-.48.26.48.48,0,0,0-.16.08.12.12,0,0,0,0,.17.74.74,0,0,0,.14.22c.06.06.11.14.09.13a.73.73,0,0,1-.23.1l-.59.18c-.05,0-.08.05-.07.08a.11.11,0,0,0,.12.06,2.57,2.57,0,0,1,.39,0c.11,0,.12,0,.12.06a.88.88,0,0,0-.2.18h-.07l-.06,0a.16.16,0,0,0-.1.1.26.26,0,0,0,0,.09,2.33,2.33,0,0,1-.23.19l-.41.3h0l-.4,0a15.32,15.32,0,0,1-1.66,0l-.41,0-.41,0a.53.53,0,0,0-.34.1.34.34,0,0,0-.12.19.74.74,0,0,0,0,.33h0a.19.19,0,0,0,.22.1c.11,0,.17-.08.15-.15h0a.65.65,0,0,1,0-.24c0-.08.05-.08.08-.09l.41,0,.43,0h0a.3.3,0,0,0,0,.1,2.53,2.53,0,0,0,0,.53c0,.11,0,.22,0,.35a1.61,1.61,0,0,0,.14.38,1.29,1.29,0,0,1,.1.42,1.35,1.35,0,0,1,0,.44c0,.14-.08.29-.1.43l-.06.41a5,5,0,0,0-.07.72c0,.22,0,.4,0,.53a.38.38,0,0,0,0,.15h-.2a1.24,1.24,0,0,0-.06-.37A3.6,3.6,0,0,0,11,14.4a6.26,6.26,0,0,0-.58-1c-.19-.25-.33-.41-.33-.41a0,0,0,0,0,0,0s0,0,0,0,.08.18.18.45.22.63.31,1c.05.17.07.36.12.53a2.66,2.66,0,0,0,.49.88h0l0,0,.05-.13a1.08,1.08,0,0,0,.07-.35v-.06a5.76,5.76,0,0,0,1,.17,1.42,1.42,0,0,0,.35,0,.6.6,0,0,0,.19-.06.44.44,0,0,0,.15-.1,1.43,1.43,0,0,0,.26-.41.33.33,0,0,1,.12-.14.45.45,0,0,1,.17-.1,1.91,1.91,0,0,0,.28-.15l.22-.17,0,0h0a.45.45,0,0,1,.07.29h0a.14.14,0,0,0,0,.06.3.3,0,0,0,.34.13.63.63,0,0,1,.19,0h0v.07a1.55,1.55,0,0,0,0,.21.66.66,0,0,0,.2.44c.07.06.08.07.09.1a.5.5,0,0,1-.05.15.24.24,0,0,0,0,.27l0,.05,0,0a1.08,1.08,0,0,1-.34.26,6.3,6.3,0,0,1-.9.45,16.33,16.33,0,0,1-2,.64q-.53.13-1.05.24a2.52,2.52,0,0,1-.48.07H10l-.23-.05a2.73,2.73,0,0,1-1.45-.95,6.91,6.91,0,0,1-.79-1.41c-.26-.48-.53-1-.75-1.45a2,2,0,0,1-.18-1.49s0,0,0,0,0,0,0,0A1.78,1.78,0,0,0,6.36,14a13.82,13.82,0,0,0,.58,1.51l.32.75a3.07,3.07,0,0,0,.48.75A3.43,3.43,0,0,0,9.57,18.1l.31,0h.18a.83.83,0,0,0,.16,0,3.3,3.3,0,0,0,.62-.11c.36-.09.7-.21,1-.33l.22-.08h1.71l.61,0a4.45,4.45,0,0,1,1.21,0l.26.09.21.14a.87.87,0,0,1,.11.18l0,.19s0,.07.09.09h0a4.58,4.58,0,0,0,1,.21,4.22,4.22,0,0,0,1.06,0,1.31,1.31,0,0,0,.27-.06l.22-.06a1.63,1.63,0,0,1,.34-.06c.05,0,.06,0,.06,0a.32.32,0,0,1-.08.17l0,0a.12.12,0,0,0,0,.19.86.86,0,0,1,.2.13c.06,0,.08.1.09.08h0l-.06,0a.44.44,0,0,0-.12.11s0,0,0,.05L18.43,19c-.22,0-.43,0-.67,0a1.58,1.58,0,0,0-.37,0,1.31,1.31,0,0,0-.4.1l-.06,0h0l0,0,0,0-.11.06-.22.12a1.84,1.84,0,0,1-.47.15,5.25,5.25,0,0,1-1.13,0c-.41,0-.85,0-1.27,0a10.38,10.38,0,0,0-1.12.14,4.51,4.51,0,0,0-.87-.31c-.3-.09-.61-.15-.92-.21h.12a.85.85,0,0,0,.07-.47.37.37,0,0,0-.15-.25,1.07,1.07,0,0,0-.34-.12c-.45-.1-.89-.17-1.33-.24-.88-.15-1.77-.28-2.67-.38s-1.79-.22-2.7-.27a12.89,12.89,0,0,0-1.39,0l-.4,0A10.29,10.29,0,0,1,2.66,15.92ZM15.19,9.73h0a.86.86,0,0,1,.5,0,2.2,2.2,0,0,1,.49.22c.14.08.27.19.28.26s-.17.08-.29.09a1.83,1.83,0,0,1-.35,0,1.78,1.78,0,0,1-.3-.07s0,0,0,0a0,0,0,0,0,0,0,2.07,2.07,0,0,0,.3.11l.08,0H15.4l-.15.26a.78.78,0,0,1,.41.43,2.45,2.45,0,0,1,.08.29l0,.21-.13,0a3.2,3.2,0,0,0-.49.09,1.79,1.79,0,0,0-.48.18.67.67,0,0,0-.27.33c-.06.11-.1.22-.15.31a.78.78,0,0,1-.26.25c-.23.14-.51.25-.75.38s-.72.43-1.06.67c0-.1,0-.2,0-.3a1.77,1.77,0,0,0-.11-.44,1.74,1.74,0,0,1-.09-.43,1.23,1.23,0,0,1,0-.43,2,2,0,0,0,.07-.4v-.08l.18,0a4.38,4.38,0,0,0,.84-.22,3.15,3.15,0,0,0,.52-.26,5,5,0,0,0,.44-.33,5,5,0,0,0,.42-.38,2.07,2.07,0,0,0,.39-.45A.68.68,0,0,1,15.19,9.73Zm1.57.49h0a.1.1,0,0,1,0,.07.31.31,0,0,1,0,.09s0,0-.05.07l-.09.06a1.49,1.49,0,0,1-.25.07l-.23.09-.08,0a.94.94,0,0,0-.25-.18l.26-.13h.35c.07,0,.24-.06.24-.17s0,0,0-.07A.17.17,0,0,1,16.76,10.22Zm-.94,1.32ZM12,11.43h0a1.82,1.82,0,0,0-.27-.59,14.65,14.65,0,0,0,1.48-.06h.13l-.18.16a3.47,3.47,0,0,1-.37.26c-.25.15-.49.27-.65.36l-.1,0C12.06,11.54,12,11.49,12,11.43Zm7.25,6.88h0v0S19.27,18.3,19.28,18.31Zm1.47,2.81a1.2,1.2,0,0,1-.65.14l-.33,0-.35-.07c-.47-.1-1-.17-1.43-.26a.34.34,0,0,0-.24,0l0,0c-.37.24-.77.47-1.17.7a9.09,9.09,0,0,1-1.25.62,5.3,5.3,0,0,1-.67.23c-.21.05-.48.09-.74.14-.53.09-1,.2-1.56.26a13.83,13.83,0,0,1-1.58.13l-.8,0-.78,0c-.53,0-1.05.05-1.57.06-.26,0-.52,0-.79,0H6.44A.25.25,0,0,0,6.27,23h0a7.87,7.87,0,0,1-1.41-.52,3.46,3.46,0,0,1-.57-.35,1.75,1.75,0,0,1-.4-.42,1.57,1.57,0,0,1-.09-.23.59.59,0,0,1,0-.23l0-.12s0,0,0-.05l0-.07A1.57,1.57,0,0,1,4,20.75a2.17,2.17,0,0,1,.32-.49,3.13,3.13,0,0,1,.45-.44,3.15,3.15,0,0,1,.55-.38A3.85,3.85,0,0,1,6,19.16,3.78,3.78,0,0,1,6.69,19a5.16,5.16,0,0,1,.79-.07,7.49,7.49,0,0,1,.81,0l.84.08h.08l1.36.37.88.25a6.55,6.55,0,0,1,.79.29c.35.23.74.44,1.11.66h0a.22.22,0,0,0,.22,0,.08.08,0,0,0,0-.15h0c-.3-.24-.59-.48-.9-.71a6.12,6.12,0,0,1,1,0,9.78,9.78,0,0,1,1.2.13,5.33,5.33,0,0,0,1.33,0,3.46,3.46,0,0,0,.67-.18l.28-.13.13-.07,0,0h0l.07,0a.1.1,0,0,1,.08,0l.09,0,.25,0,.56,0,1.23.11h.33a1.08,1.08,0,0,0,.18,0h.14a.82.82,0,0,1,.42.1c.1.07.14.16,0,.23s-.41.11-.47.18,0,0,0,0h0l0,0s0,.05,0,0h.29a1.51,1.51,0,0,0,.28-.05l-.6.4c1-.07.78-.36.71-.44a.31.31,0,0,0,.18-.21.34.34,0,0,0-.12-.27,1.15,1.15,0,0,0-.67-.25l-.3,0-.28,0-.16,0,.09,0,.08,0a.26.26,0,0,0,.11-.07.21.21,0,0,0,0-.19.54.54,0,0,0-.07-.13l-.06-.09a.43.43,0,0,0,.17-.32.33.33,0,0,0-.21-.3.91.91,0,0,0-.4-.09,2.18,2.18,0,0,0-.6.08l-.22.06-.19.05a3.36,3.36,0,0,1-.85.09,6.06,6.06,0,0,1-.85-.05L16.45,18l-.19-.2L16,17.64l-.29-.11c-.1,0-.21-.06-.31-.09s-.21-.05-.31-.08-.22,0-.33-.06l-.32,0a6.23,6.23,0,0,0-1.3.06l-.27.05,1-.39c.34-.14.62-.3.94-.45a2.09,2.09,0,0,0,.44-.29.31.31,0,0,0,.07-.14.26.26,0,0,0,0-.14s0-.05,0-.1a.49.49,0,0,0,.1-.23.21.21,0,0,0,0-.15l0-.06,0,0a.39.39,0,0,1-.07-.3l0-.18v-.11a.34.34,0,0,0-.06-.18.62.62,0,0,0-.48-.17h0v0a.58.58,0,0,0-.13-.26L14.43,14A.63.63,0,0,0,14.1,14a.59.59,0,0,0-.29.1l-.12.1-.18.15-.19.12a1,1,0,0,0-.28.18.75.75,0,0,0-.15.23,1.48,1.48,0,0,1-.15.37s0,0-.06.06l-.08,0a1.56,1.56,0,0,1-.25,0,4.46,4.46,0,0,1-.73,0l.11-.12a1.9,1.9,0,0,0,.43-.86,1.24,1.24,0,0,0,0-.33,5.52,5.52,0,0,0,1.42-.6,3.1,3.1,0,0,0,.59-.55,2.26,2.26,0,0,0,.23-.31,2.16,2.16,0,0,1,.18-.3.56.56,0,0,1,.28-.19,2.87,2.87,0,0,1,.4-.06l.45,0a1.2,1.2,0,0,0,.3,0,.6.6,0,0,0,.31-.19c1,0,.6-.51.6-.51l-.54.34a.65.65,0,0,0,0-.14l0-.12a1.08,1.08,0,0,0,.3,0,1.33,1.33,0,0,0,.33-.13l.15-.09a.42.42,0,0,0,.11-.13.25.25,0,0,0-.07-.24.72.72,0,0,0-.21-.16h0a.58.58,0,0,1,.13.18.17.17,0,0,1,0,.17A.35.35,0,0,1,17,11l-.13.05-.3.07-.25.07a1.2,1.2,0,0,0-.11-.23.24.24,0,0,0-.06-.08h.06a1,1,0,0,0,.28,0,.94.94,0,0,0,.28-.15.29.29,0,0,0,.11-.11.18.18,0,0,0,0-.13.22.22,0,0,0,0-.11.23.23,0,0,0-.07-.1.35.35,0,0,0-.2-.06c0-.12-.16-.2-.27-.3a2.47,2.47,0,0,0-.54-.3,1.41,1.41,0,0,0-.83,0l-.13.06h0a.4.4,0,0,0-.21-.08l.15,0a1,1,0,0,0,.31-.16.12.12,0,0,0,0-.17L15.05,9a.72.72,0,0,1-.13-.19s0,0,0,0L15,8.68a1.81,1.81,0,0,0,.54-.3.2.2,0,0,0,0-.27,1.81,1.81,0,0,0-.18-.21A3.51,3.51,0,0,1,15,7.56c-.09-.12,0-.25,0-.39a3.38,3.38,0,0,1,.24-.41,6.06,6.06,0,0,0,.48-.86,1.39,1.39,0,0,0,.08-.6l.26.78A2.87,2.87,0,0,0,14.26,3L14,2.83l-.36-.16H13.6a9.82,9.82,0,0,0-5.12-.61C7,2.24,3.79,3.72,3.93,6.26S6.5,8.5,7.19,9.33a.57.57,0,0,1,.06.28A.61.61,0,0,1,7.1,10a2,2,0,0,1-.14.16l-.21.17c-.29.21-.59.45-.86.69a13.25,13.25,0,0,0-2.56,3.19,18.54,18.54,0,0,0-.9,1.7,10.75,10.75,0,0,0-.58,1.58l-.24,0a1.14,1.14,0,0,0-.35.17.38.38,0,0,0-.16.29c0,.32,0,.63.06.94l.07.93a6.73,6.73,0,0,0,.28,1.87,1.87,1.87,0,0,0,.68.85A3.35,3.35,0,0,0,3.41,23c.47.1.91.14,1.36.2s.88.11,1.39.13a.29.29,0,0,0,.26-.11,10.81,10.81,0,0,0,2.79.21,13.81,13.81,0,0,0,1.59-.19c.52-.09,1-.19,1.57-.25s1.05-.12,1.58-.15c.25,0,.52,0,.82-.07a6.23,6.23,0,0,0,.8-.2A9.76,9.76,0,0,0,17,22,9.92,9.92,0,0,0,18,21.3c.44,0,.87.09,1.31.12l.37,0a2.82,2.82,0,0,0,.41,0,1.06,1.06,0,0,0,.66-.28s0,0,0,0Z"/><path class="cls-3" d="M16.17,6.18l0-.1h0Z"/><path class="cls-3" d="M7,2.65s.37-1.14-1.35-.79S3.93,3.09,3.93,3.09,6.37,4,7,2.65"/></svg>