<svg id="Capa_1" data-name="Capa 1" xmlns="http://www.w3.org/2000/svg" viewBox="0 0 31.5 23.94"><defs><style>.cls-1{fill:#f05050;}.cls-2{fill:#f5a4c7;}.cls-3{fill:#fbc9b7;}.cls-4{fill:#231f20;}.cls-5{fill:#6d6f71;}</style></defs><title>2-7meses</title><path class="cls-1" d="M7,18.15a17,17,0,0,0-3.17.23.69.69,0,0,0-.32.62c0,.08-1.28,2.1-1.68,2.12s-.66.5-.09.58,6.52.61,8.46.27,3.3-.65,3.31-1S7,18.15,7,18.15"/><path class="cls-2" d="M17.92,20.27s-.05,1.7-.42,1.81a.8.8,0,0,1-.61,0l-.71-.35s-.13.5.57.64a35.49,35.49,0,0,0,4.38-.18s.69-.43.66-.59,0-1.39,0-1.5a17.71,17.71,0,0,0-3-1.16,2.15,2.15,0,0,0-.66,0Z"/><path class="cls-3" d="M18.81,19.59a1.88,1.88,0,0,1,.66-1.47,2.87,2.87,0,0,1,2.33-.58,2.7,2.7,0,0,1,1.63,1.22c.26.52.39.44.39.44A12.1,12.1,0,0,1,25.36,19c.12.05.15.23.17.49s.06.75-.13.82-.72-.12-1,0a2.81,2.81,0,0,1-1.17.11,4.18,4.18,0,0,1-.83-.36L22,19.62a6.32,6.32,0,0,1-.56.95,2,2,0,0,1-1.21.66c-.57,0-1.2-.31-1.23-.61s-.14-1-.14-1"/><path class="cls-3" d="M18.5,18.86a6.43,6.43,0,0,1,1-1.69,3.82,3.82,0,0,1,2.25-.24,13.7,13.7,0,0,0,2.32.55c.31-.11.59-.66.83-.68s.62.2.62.33-.51.85-.49,1,.14.36-.29.38a9.34,9.34,0,0,0-1.63-.15c-.6.11-4.33.62-4.33.62Z"/><path class="cls-3" d="M17.1,5.94s-1.33,1.24-.81,2.47,2.34,1.29,2.54,1.88.55,1.78.55,1.78.13.14.5,0a7.56,7.56,0,0,0,.86-.42s0,.17.37.24-.08.08.61.25.74.5.74.5l.49.15A2.41,2.41,0,0,0,24,12.35,11.21,11.21,0,0,0,25.26,11l.33.21s-.35,0-.31.51.92,1.36,2,1.79c0,0,2.33-2.22,2.26-2.54a.62.62,0,0,1,0-.44V8.14s-2,.86-2.82,0A3.19,3.19,0,0,1,26,6a20.25,20.25,0,0,0-3.09-1.28c-.43,0-4.15-.41-5.79,1.23"/><path class="cls-3" d="M12.88,18.43s.46-.48.24-.49a1.29,1.29,0,0,1-.55-.34l-.43,0s.12-.42-.16-.45-.32-.19-.32-.19.1-.35-.19-.28-.31.33-.69.15-.84-.93-2-1a3,3,0,0,0-2,.37,10.9,10.9,0,0,0,0,1.62l2.24,2a13.77,13.77,0,0,1,2.66.43,5.14,5.14,0,0,0,2.35,1,8.41,8.41,0,0,1,2.1.48c.29.14.78.44,1.18.27s.37-.71.49-1.2.5-1.69.33-1.84a8.93,8.93,0,0,0-1.44-.5s.46-1.48.52-1.74,1-.73,1.12-.86a.26.26,0,0,0,0-.26l-.52,0s.39-.36.36-.42a.2.2,0,0,0-.21-.09c-.12,0-.34.2-.34.2s.42-.65.25-.7-.5.16-.5.16l-.16.15s.32-.47.11-.48a.82.82,0,0,0-.56.32,1.08,1.08,0,0,1-.26.29s-.36,0-.39-.06S16,14.79,16,14.8a.56.56,0,0,0-.21.52c0,.36.13.95.13.95l-.35.23s-.17-.21-.14-.23a4.54,4.54,0,0,0,.28-.44,5.55,5.55,0,0,0,.42-1.25c-.08-.12-.44-.06-.47-.09l-.19-.27-.56.52s-.16-.54-.21-.52a2.61,2.61,0,0,0-.22.38l-.06.62s-.77-.47-.7-.09.43.46.49.57a.85.85,0,0,1-.15.78,10.28,10.28,0,0,0-.58.87s-.06,1-.06,1Z"/><path class="cls-4" d="M3,11.78H3a3.52,3.52,0,0,1,1.07-.57,7.11,7.11,0,0,1,1.31-.29,14.83,14.83,0,0,1,2.75-.08c.45,0,.92.06,1.37.11a11,11,0,0,1,1.32.22,3.79,3.79,0,0,1,1.12.43c.3.19.42.43.32.69a1.9,1.9,0,0,1-.67.73,7,7,0,0,1-1.05.59h0l-.2.15-.16.16a1.92,1.92,0,0,0-.23.35,1.09,1.09,0,0,0-.08.75,2.16,2.16,0,0,0,1,1.14,5.2,5.2,0,0,1-1.52-.8,1.32,1.32,0,0,1-.45-.6.83.83,0,0,1,.06-.65l.1-.2-.32,0a16.71,16.71,0,0,1-2.74,0,11.51,11.51,0,0,1-1.33-.2,5.9,5.9,0,0,1-1.23-.39,1.28,1.28,0,0,1-.76-.71A.84.84,0,0,1,3,11.78m.25,1.71a7.43,7.43,0,0,0,2.66.73,13.56,13.56,0,0,0,1.43.07c.38,0,.76,0,1.14-.06a1,1,0,0,0,0,.6,1.64,1.64,0,0,0,.59.67A3.8,3.8,0,0,0,10,16a8.1,8.1,0,0,0,1,.3h.09l-.06,0a3.18,3.18,0,0,1-.58-.58,1.34,1.34,0,0,1-.3-.64,1,1,0,0,1,.14-.65,2,2,0,0,1,.23-.28.86.86,0,0,1,.14-.13l.15-.11a7.21,7.21,0,0,0,1.14-.59,2.06,2.06,0,0,0,.84-.87.71.71,0,0,0,0-.57,1.14,1.14,0,0,0-.45-.48A4.28,4.28,0,0,0,11,10.84a13.71,13.71,0,0,0-1.41-.21c-.48-.05-.94-.08-1.42-.09a14,14,0,0,0-2.83.2A8.12,8.12,0,0,0,4,11.1a3.49,3.49,0,0,0-1.11.61,1,1,0,0,0-.41.94A1.44,1.44,0,0,0,3.25,13.49Z"/><path class="cls-4" d="M22.87,18h0a3,3,0,0,0-.34-.26,3.68,3.68,0,0,0-.39-.24,3,3,0,0,0-.48-.17l-.28-.06-.25,0h-.29a1.26,1.26,0,0,0-.27,0l-.27.06-.24.09a2.62,2.62,0,0,0-.41.25,1.9,1.9,0,0,0-.33.29,3.33,3.33,0,0,0-.24.32,2.68,2.68,0,0,0-.18.33c0,.09-.06.17-.08.25a.53.53,0,0,0-.2,0h0c.21-.36.42-.71.64-1.05a3.45,3.45,0,0,1,.42-.51.92.92,0,0,1,.25-.17s.24-.05.37-.08a3.4,3.4,0,0,1,.84-.11A4.17,4.17,0,0,1,22,17a9.48,9.48,0,0,1,1.64.5h0a2,2,0,0,0,.49,0,1.11,1.11,0,0,0,.5-.14,3.08,3.08,0,0,0,.34-.24A.21.21,0,0,0,25,17h0s.05,0,0,0l0,0s0,.05,0,.08a.64.64,0,0,1,0,.24.59.59,0,0,1-.09.24.87.87,0,0,0-.17.31.68.68,0,0,0,0,.33s0,0,0,0l-.11,0a1.05,1.05,0,0,1-.35,0L24,18.29a4,4,0,0,0-.78.05L22.87,18m-3.76,3h0a1,1,0,0,0,.17.12,1,1,0,0,0,.43.16,1.6,1.6,0,0,0,.89-.15l.27-.13v0a1.53,1.53,0,0,0,.37-.08,1.17,1.17,0,0,0,.32-.15.65.65,0,0,0,.16-.13c0,.12,0,.24,0,.35a1.38,1.38,0,0,1-.2.67.58.58,0,0,1-.26.23.71.71,0,0,1-.19.06l-.24.05c-.33.06-.68.09-1,.12-.7.06-1.41.1-2.11.12a5.43,5.43,0,0,1-1-.06.8.8,0,0,1-.2-.07,1.28,1.28,0,0,1-.17-.1.24.24,0,0,1-.08-.26l.22.12c.07,0,.13.11.2.16a.69.69,0,0,0,.35.13.91.91,0,0,0,.66-.25,1.11,1.11,0,0,0,.27-.43,1.87,1.87,0,0,0,.08-.44,1.8,1.8,0,0,1,.08-.39,10.08,10.08,0,0,0,.33-1.44,1.32,1.32,0,0,0,0-.2s0,0,0-.08h0a.47.47,0,0,1,.17,0c.12,0,.12.07.12.15s-.05.38-.06.57,0,.2,0,.3a1.76,1.76,0,0,0,0,.31,1.11,1.11,0,0,0,.31.58A.8.8,0,0,0,19.11,21Zm-4.2.28h0L13.84,21c-.35-.07-.64-.13-.91-.21a3.16,3.16,0,0,1-1.12-.58A1.76,1.76,0,0,1,11.6,20l-.06-.09h0a.46.46,0,0,0,.06.23,2.39,2.39,0,0,0-.42-.2,2.64,2.64,0,0,0-.73-.16l-.25-.11h.56a1.75,1.75,0,0,1-.79-.54c-.14.29-.58.19-1,0s-.35-.69.44-.44.95,0,.95,0-.33.19-.44-.08-.8-.28-.8-.28a2.74,2.74,0,0,1,.69.08.87.87,0,0,0-.4-.22,2,2,0,0,0-.63,0l.63-.3-.82,0,.76-.4-1,.06.57-.2-.41-.12L9,17.07h-1l.9-.44-.65.09.65-.26-1.31.07L8.42,16a5.38,5.38,0,0,1,1.19.26,2.8,2.8,0,0,1,.58.27,4.86,4.86,0,0,0,.51.37.55.55,0,0,0,.42,0,1.11,1.11,0,0,1,.29-.1c.09,0,.15,0,.16.09s-.06.23.23.27c0,0,0,0,0,0h0c.07,0,.17,0,.14,0h0v.12l0,.09v0l0,0-.08.19a.08.08,0,0,0,0,.1.23.23,0,0,0,.25,0h0l.23-.08.07,0v.17s0,0,0,0l0,0a.28.28,0,0,1,.14-.09h.11l-.14,0,.3.19,0-.08v0c0,.08,0,.16-.13.19l0,0s0,0,0,.06,0,.08,0,.11a1.71,1.71,0,0,1-.13.44h0a.13.13,0,0,0,.1.16.25.25,0,0,0,.25-.06l.06-.05.07-.06.19-.1a2.52,2.52,0,0,1,.44-.15,3.54,3.54,0,0,1,.49-.1c.16,0,.34,0,.51-.06v0a4.64,4.64,0,0,0-.53,0,3.39,3.39,0,0,0-.55,0l-.13,0v0a1.13,1.13,0,0,0,.25-.54c0-.13,0-.22,0-.34a3.1,3.1,0,0,1,.07-.38,1.07,1.07,0,0,1,.2-.4,4.64,4.64,0,0,0,.31-.4.58.58,0,0,0,.13-.5,1.54,1.54,0,0,0-.34-.43h0a.58.58,0,0,0,.27,0c.12,0,.16,0,.21,0a.41.41,0,0,1,.09.12l0,.05h.05l0-.05a.23.23,0,0,0,0-.18c0-.1-.22-.17-.36-.18h-.08a2.2,2.2,0,0,0,.17-.39l.07-.18a1.12,1.12,0,0,1,.15.38h0a.1.1,0,0,0,.06.05.1.1,0,0,0,.1,0,1.1,1.1,0,0,1,.26-.36l0,0a.36.36,0,0,1,0,.09l-.16.38h0c0,.09,0,.19.17.22a.3.3,0,0,0,.29-.07,1.31,1.31,0,0,0,.07.19.59.59,0,0,1,0,.2.74.74,0,0,0,0,.31.56.56,0,0,0,0,.12l-.08.05a.8.8,0,0,0-.32.5.76.76,0,0,0,.1.48,1.78,1.78,0,0,0-.18.43A3,3,0,0,0,15,18a.77.77,0,0,1-.06.28,1,1,0,0,1-.19.23,3.82,3.82,0,0,1-.67.39l-.76.38a2.74,2.74,0,0,0-.68.47.55.55,0,0,0-.19.64l0,0c-.06-.2.09-.4.28-.55a2.9,2.9,0,0,1,.7-.39l.8-.33a3.42,3.42,0,0,0,.78-.41,1.22,1.22,0,0,0,.29-.31,1,1,0,0,0,.11-.35,3.8,3.8,0,0,1,.11-.62,3.1,3.1,0,0,1,.75-1.09.14.14,0,0,0,0-.22.93.93,0,0,1-.16-.18.44.44,0,0,1-.1-.19.6.6,0,0,1,0-.22.52.52,0,0,0,0-.14.37.37,0,0,0,0-.18A2.59,2.59,0,0,1,16,15v0a.71.71,0,0,1,.1.14,1.23,1.23,0,0,1,.11.23.18.18,0,0,0,.08.1.22.22,0,0,0,.13,0h.13s.18-.09.16-.1l.11-.12.35-.46a.81.81,0,0,1,.16-.16,1.39,1.39,0,0,1-.14.44h0s0,.08.07.1a.13.13,0,0,0,.15,0,2.34,2.34,0,0,1,.25-.3.42.42,0,0,1,.14-.08h0v0a.07.07,0,0,1,0,.05.76.76,0,0,1-.11.33l-.22.33a0,0,0,0,0,0,.06.11.11,0,0,0,.11,0,2.32,2.32,0,0,1,.3-.22.35.35,0,0,1,.16-.06h0s0,0,0,0a.2.2,0,0,1-.07.11,1.36,1.36,0,0,1-.12.12,2.11,2.11,0,0,1-.31.21s-.05.06,0,.09a.11.11,0,0,0,.14,0h0c.18,0,.37-.08.54-.1l0,0-.11.07c-.31.2-.66.39-1,.58a.11.11,0,0,0-.08.1h0a8.83,8.83,0,0,1-.16,1,4.13,4.13,0,0,1-.15.5,2.44,2.44,0,0,1-.1.24.75.75,0,0,1-.15.2,1.63,1.63,0,0,0-.22.23,2.79,2.79,0,0,0-.17.25,4,4,0,0,0-.25.51,5.55,5.55,0,0,0-.29,1h0c.15-.34.3-.67.48-1a4.57,4.57,0,0,1,.29-.47l.18-.22a1.66,1.66,0,0,1,.23-.19l.09-.1.35.11a3.28,3.28,0,0,1,.56.21A.83.83,0,0,1,18,19s0,0,0,0,0,.05,0,.07,0,.07,0,.11c-.05.2-.14.43-.21.67a5.26,5.26,0,0,0-.2.76c0,.14,0,.28-.05.43a2.42,2.42,0,0,1,0,.39.93.93,0,0,1-.16.35.44.44,0,0,1-.33.2c-.14,0-.27-.09-.45-.19a2.18,2.18,0,0,0-.55-.22C15.66,21.47,15.27,21.39,14.91,21.29Zm-2.6.16h0a8.56,8.56,0,0,1-1,.19c-.35,0-.69.1-1,.11s-.7.05-1.06.06c-.7,0-1.41.05-2.12,0s-1.43,0-2.14,0l-1.08,0c-.36,0-.71-.05-1.07-.07a5.36,5.36,0,0,1-1-.13c-.16,0-.25-.12-.22-.2a.56.56,0,0,1,.24-.25L2,21a1.4,1.4,0,0,0,.22-.16,3,3,0,0,0,.3-.32,6,6,0,0,0,.5-.66,13.47,13.47,0,0,0,.83-1.34c.25-.06.49-.13.73-.21v.11s0,.08,0,.12a1,1,0,0,0,.27.77v0H4.74a3.1,3.1,0,0,0-.49.08l-.18,0,.19,0,.48.05c.4,0,.91.09,1.42.16s1,.14,1.42.2L8,20l-.43.14a6.73,6.73,0,0,0-1,.48,2.4,2.4,0,0,0-.4.28,5,5,0,0,0,.54-.11c.32-.08.71-.21,1.1-.35l.54-.21.24-.1L8.85,20a.77.77,0,0,1,.29,0,3.82,3.82,0,0,0-1,.66,2.32,2.32,0,0,0-.39.45l.59-.31.6-.31a7.13,7.13,0,0,1,.69-.29l.17-.05.2-.05c.11,0,.23,0,.36,0a3.8,3.8,0,0,1,.69.05c.25,0,.45.09.57.12l0,.07a2.15,2.15,0,0,0,1.1.77l.38.11A6.39,6.39,0,0,1,12.31,21.45Zm1.42-6.27Zm.8-.89Zm1,0h0S15.51,14.31,15.48,14.32Zm.4.21Zm-.16,1.66h0l.07.08-.1.11Zm1.57-1.67Zm8.52,4.9a.14.14,0,0,0,0-.06.11.11,0,0,0,0-.06v0s0,0,0,0,0,0,0,0,0,0,0,0h0a.28.28,0,0,0,0-.2.37.37,0,0,0-.2-.19.88.88,0,0,0-.27,0,.85.85,0,0,0-.23,0L25,18.8l-.13,0a10.07,10.07,0,0,1-1,.27,4.87,4.87,0,0,0-.58-.71,3.85,3.85,0,0,1,.69.06l.4.09a1.3,1.3,0,0,0,.5.06,1,1,0,0,0,.3-.08.29.29,0,0,0,.16-.24.57.57,0,0,1,0-.27c0-.05.09-.12.17-.23a1.21,1.21,0,0,0,.15-.33.69.69,0,0,0,0-.35.4.4,0,0,0-.1-.21l-.09-.1s0-.07-.06-.12a.41.41,0,0,0-.06-.11.42.42,0,0,0-.26-.13.69.69,0,0,0-.21,0,.45.45,0,0,0-.23.11.25.25,0,0,0-.07.25.55.55,0,0,1,0,.19,1.29,1.29,0,0,1-.24.21,1,1,0,0,1-.64.12l-.83-.21L22,16.91a8,8,0,0,0-.9-.16,3.78,3.78,0,0,0-.95,0l-.22,0-.12,0-.15,0a1.06,1.06,0,0,0-.39.26,2.37,2.37,0,0,0-.41.58,3.34,3.34,0,0,0-.37,1.16h-.15l0,0a1,1,0,0,0-.38-.19,4.47,4.47,0,0,0-.65-.15l-.37,0,.07-.1a2.26,2.26,0,0,0,.14-.26,3.68,3.68,0,0,0,.18-.53,6.72,6.72,0,0,0,.16-1,9.46,9.46,0,0,0,.91-.59l.11-.09.12-.12a.2.2,0,0,0,0-.08.13.13,0,0,0-.08-.15.57.57,0,0,0-.27,0l-.23.05h0l.13-.14a.45.45,0,0,0,.08-.17s0-.06,0-.06v0s0,0,0,0a.23.23,0,0,0-.18,0,.64.64,0,0,0-.2.08l0,0A.84.84,0,0,0,18,14.8v-.06l0-.06,0,0h-.05a.2.2,0,0,0-.11,0,.68.68,0,0,0-.2.06l0-.1a.31.31,0,0,0,0-.09.21.21,0,0,0,0-.06.25.25,0,0,0-.12-.07h-.1l-.11,0-.11.06a1.61,1.61,0,0,0-.27.23c-.12.12-.23.25-.34.38l0,0a1.06,1.06,0,0,0-.18-.27.53.53,0,0,0-.11-.09.32.32,0,0,0-.13-.21L16,14.35a.42.42,0,0,0-.22,0s0,0,0-.05a.26.26,0,0,0,0-.1l0,0,0,0a.33.33,0,0,0-.29-.06.34.34,0,0,0-.13.07.47.47,0,0,0-.1.11,2.25,2.25,0,0,0-.12.21l0,.09v-.12a.45.45,0,0,0-.05-.24l-.06-.08a.24.24,0,0,0-.13-.07h-.08c-.19,0-.24.07-.26.09a.18.18,0,0,0-.06.08.31.31,0,0,0-.05.12.5.5,0,0,0,0,.12.81.81,0,0,0,0,.22,1.21,1.21,0,0,0,.09.4s0,0,0,0l-.05,0-.11,0a1.79,1.79,0,0,0-.26-.1.88.88,0,0,0-.22,0H13.6l-.13.06h0l0,0h0l0,0s0,0,0,.08a.08.08,0,0,0,0,0c0,.1.06.11.09.16l.09.09.19.16a1.68,1.68,0,0,1,.33.29.63.63,0,0,1,0,.37,1,1,0,0,1-.19.41c-.09.13-.2.25-.31.38a1.09,1.09,0,0,0-.24.39,1,1,0,0,0,0,.37,2.59,2.59,0,0,1,0,.52s0,.07,0,.1l-.17.06,0-.11a.6.6,0,0,0,0-.12.29.29,0,0,0,0-.18.34.34,0,0,0-.25-.18v-.06a.5.5,0,0,0,0-.12.15.15,0,0,0,0-.1.32.32,0,0,0-.17-.1h-.17l-.11,0-.09,0v-.13a.52.52,0,0,0,0-.11.14.14,0,0,0,0-.06.17.17,0,0,0-.07-.08.33.33,0,0,0-.23,0l-.14,0s0,0,0,0,0-.05,0-.11-.2-.2-.36-.18a.78.78,0,0,0-.34.13.34.34,0,0,1-.26,0,4.85,4.85,0,0,1-.46-.38,3.24,3.24,0,0,0-.58-.33,4.52,4.52,0,0,0-1.41-.4l-.4,0-.39,0-.39,0-.38.09a4.26,4.26,0,0,0-.7.28,2.29,2.29,0,0,0-.28.17l-.13.09,0,0,0,0-.06.06-.24.2-.21.23a2.51,2.51,0,0,0-.32.48,2.08,2.08,0,0,0-.18.51,1.47,1.47,0,0,0,0,.36c-.29,0-.57.08-.86.12l-.07,0h0c-.34.43-.69.86-1,1.3l-.5.65-.24.31-.13.13L1.54,21a.64.64,0,0,0-.26.39.29.29,0,0,0,.14.23,1.09,1.09,0,0,0,.27.11,10.41,10.41,0,0,0,1.08.11c.36,0,.71.06,1.07.11L4.9,22c.72.07,1.44.12,2.16.14.36,0,.73,0,1.09,0s.73,0,1.09,0,.73-.05,1.09-.1.71-.12,1.06-.18a8,8,0,0,0,1-.29,4.53,4.53,0,0,0,.8-.37l.52.1c.35.06.73.09,1.11.14a6.46,6.46,0,0,1,1.15.21l.2.08a.29.29,0,0,0,0,.34.77.77,0,0,0,.18.18,1.17,1.17,0,0,0,.25.13,4.88,4.88,0,0,0,1.12.16,14.57,14.57,0,0,0,2.19-.06A10.09,10.09,0,0,0,21,22.34l.28-.07a1.24,1.24,0,0,0,.28-.11.86.86,0,0,0,.37-.36A1.36,1.36,0,0,0,22,21a3.12,3.12,0,0,0-.11-.53,1.1,1.1,0,0,0,.09-.14.79.79,0,0,0,.08-.26.38.38,0,0,0,0-.15l.06.06a.82.82,0,0,0,.22.19,2,2,0,0,0,.6.23,2.57,2.57,0,0,0,.68,0l0,0-.54-.24-.26-.11L22.63,20a2.1,2.1,0,0,1-.5-.24l-.06-.06a2.19,2.19,0,0,0-.12-.33l0,0h0a.15.15,0,0,0-.15-.05c-.06,0-.08.07-.06.11h0a.85.85,0,0,1,0,.23l0,.23a2.35,2.35,0,0,1-.15.42,1.86,1.86,0,0,1-.1.2l-.07.09,0,.06a3,3,0,0,1-.78.45,1.25,1.25,0,0,1-.73.08.71.71,0,0,1-.29-.14.53.53,0,0,1-.11-.09l-.1-.12a1.87,1.87,0,0,1-.17-.52,3.43,3.43,0,0,1-.07-.56l0-.28a1.76,1.76,0,0,0,0-.31L19,19a4.12,4.12,0,0,1,.69-.88,3.65,3.65,0,0,1,.31-.24,2.89,2.89,0,0,1,.35-.19l.19-.07.21-.06a3,3,0,0,1,.42-.06h.25l.21,0a3.89,3.89,0,0,1,.43.11,2.87,2.87,0,0,1,.4.18,2.08,2.08,0,0,1,.34.24,2.5,2.5,0,0,1,.29.27,2.17,2.17,0,0,1,.24.29,3.24,3.24,0,0,1,.34.63.15.15,0,0,0,.16.08h0a9.42,9.42,0,0,0,1.2-.23l.14,0h0a.16.16,0,0,0-.1.16.15.15,0,0,0,0,.07s-.05,0-.06.07.05.19.19.22h0c-.1,0-.2.06-.22.13s0,.14.09.18a.1.1,0,0,0-.05,0c0,.07,0,.16.11.19h0l.08,0h-.35a2.07,2.07,0,0,0-.6,0l-.25.1-.25.08v0a1.43,1.43,0,0,0,.29,0l.25-.07a3.2,3.2,0,0,1,.52,0l.29,0h.26l.11,0h.07l0,0a.17.17,0,0,0,.09-.08.12.12,0,0,0,0-.14s0,0,0,0l.05,0,0-.06h0l0,0,0,0a.26.26,0,0,0,0-.09l.07-.08v0a.41.41,0,0,0,0-.07.26.26,0,0,0-.08-.2Z"/><path class="cls-4" d="M9.78,16.45h0"/><path class="cls-4" d="M9.78,16.45C9,16.56,10,17.8,10,17.8s-.11-.3-.28-.81,0-.53,0-.54"/><path class="cls-4" d="M10.15,17s.15-.1.15-.1H10c-.4.27.29.72.29.72a.53.53,0,0,0-.1-.23c-.09-.17,0-.25,0-.25s.45.16.39,0-.43-.14-.43-.14"/><path class="cls-4" d="M24.69,11.52h0s0,0,0,0a.34.34,0,0,0-.06-.12.65.65,0,0,0-.15-.11.32.32,0,0,1-.13-.13.27.27,0,0,1,0-.16.43.43,0,0,0,0-.16l0-.15a.55.55,0,0,0-.12-.24,1.64,1.64,0,0,0-.22-.23h0a.32.32,0,0,0-.09.08.44.44,0,0,0-.08.21.33.33,0,0,0,0,.14.47.47,0,0,0,.06.15l.1.14a.93.93,0,0,0,.15.13.62.62,0,0,1,.14.14.2.2,0,0,1,0,.15c0,.06,0,.11,0,.16a.75.75,0,0,0,.07.12.68.68,0,0,0,.18.13l-.3.31a1.74,1.74,0,0,1-1.12.58,1.32,1.32,0,0,1-.37,0s0,0,0,0v0h0a.54.54,0,0,0,0-.11.7.7,0,0,0-.2-.18,1.27,1.27,0,0,0-.57-.15c-.15,0-.31,0-.3-.13l.19-.09a1.61,1.61,0,0,0,.43-.32.45.45,0,0,0,.12-.43h-.05a.52.52,0,0,1-.25.34,1.44,1.44,0,0,1-.43.21l-.24.07h-.06s0,0,0,0A.87.87,0,0,1,21,11.5l-.13-.25-.29.21a2.91,2.91,0,0,1-.8.45.27.27,0,0,1-.14,0s0,0,0,0l-.05,0h0a.59.59,0,0,1-.13-.31,5.35,5.35,0,0,0-.22-.8A3.72,3.72,0,0,0,19,10.4a2,2,0,0,0-.31-.36,1.06,1.06,0,0,0-.19-.16,1.64,1.64,0,0,0-.22-.14,4,4,0,0,0-.51-.24,2.67,2.67,0,0,1-.45-.21A2.78,2.78,0,0,1,16.93,9a2.13,2.13,0,0,1-.3-.3,1.8,1.8,0,0,1-.21-.35A3.62,3.62,0,0,1,16.29,8c.86-.34,3-1.13,3.86-.78,1.05.44.22.76,1.33.89s1.66-.78,1.9-.42a2.79,2.79,0,0,1,.36.84l.73-.29a2.86,2.86,0,0,1-.28-.59,2.17,2.17,0,0,1,0-.26,1.09,1.09,0,0,1,0-.26.56.56,0,0,1,.1-.22l.05-.06,0,0,.08,0a.62.62,0,0,1,.25.05,1.3,1.3,0,0,1,.45.35,2.13,2.13,0,0,1,.31.45,1.89,1.89,0,0,1,.11.25c0,.1.06.16.09.25a.84.84,0,0,1,0,.47.34.34,0,0,1-.13.16.5.5,0,0,1-.21.05h-.54l.36.23a.88.88,0,0,1,.42.59,1.37,1.37,0,0,1-.12.71,2.35,2.35,0,0,1-.26.46.38.38,0,0,1-.06-.13.61.61,0,0,1,0-.3,2.8,2.8,0,0,0,.06-.28,1.75,1.75,0,0,0,0-.24,1.26,1.26,0,0,0-.11-.37c0-.05,0-.09-.05-.1a.06.06,0,0,1,0,0l0,0,0,0-.07.11a1.6,1.6,0,0,0-.1.38,1.15,1.15,0,0,0,0,.26,1.31,1.31,0,0,0,.12.28,1.08,1.08,0,0,1,.11.3l0,.16a.47.47,0,0,0,0,.09l0,0,0,.06c-.12.14-.26.28-.4.42m4.65-.59c-.08.13-.18.25-.27.37l-.29.36c-.09.12-.2.24-.3.36s-.39.48-.62.71-.4.44-.63.65a3.28,3.28,0,0,1-.77-.39l-.34-.27c-.11-.09-.21-.19-.3-.28l-.14-.14c0-.05-.1-.09-.12-.14a.51.51,0,0,1-.08-.13.34.34,0,0,1-.05-.16v-.35s0-.1,0-.15l.28.22a4.06,4.06,0,0,0,.58.35,3.66,3.66,0,0,0,.68.27l0,0a2.5,2.5,0,0,0-.4-.46,3.65,3.65,0,0,0-.53-.39l-.34-.19L25.38,11h0c.1-.17.21-.34.3-.51a1.88,1.88,0,0,0,.24-.76.86.86,0,0,0-.08-.41.88.88,0,0,0-.12-.17l.16,0a.69.69,0,0,0,.31-.3,1.11,1.11,0,0,0,0-.62,1.57,1.57,0,0,0-.08-.29A2,2,0,0,0,26,7.59a2.12,2.12,0,0,0-.68-.77A1.68,1.68,0,0,0,25,6.64a1.13,1.13,0,0,0-.5-.06,1.11,1.11,0,0,1,.94.13,5,5,0,0,1,1.11,1.46l.1-.13.24.22a2.38,2.38,0,0,0,.31.17,2.23,2.23,0,0,0,.7.14,3.4,3.4,0,0,0,1.07-.16,3,3,0,0,0,.79-.34l0,0-.22.07c-.14,0-.34.1-.62.16a4.13,4.13,0,0,1-1,.07A1.33,1.33,0,0,1,27,7.89a.86.86,0,0,1-.1-.16L27,7.54s-.08-2.7-.88-3.46S23,2.53,19.88,2.47s-4,2.27-4.88,4.07.93,1.65.93,1.65l.12,0a1.71,1.71,0,0,0,0,.31,1.52,1.52,0,0,0,.51.78,1.92,1.92,0,0,0,.48.29,2.87,2.87,0,0,0,.57.17,4,4,0,0,1,.52.16,1.25,1.25,0,0,1,.41.26,1.18,1.18,0,0,1,.36.72c0,.26,0,.52.05.8a.75.75,0,0,0,.17.46h0l0,0h0l0,0,.06,0a.66.66,0,0,0,.25.08,1,1,0,0,0,.44,0,2.35,2.35,0,0,0,.76-.38A.83.83,0,0,0,21,12a.68.68,0,0,0,.25.07.55.55,0,0,0,.23,0h0a.15.15,0,0,0,.08.13,1,1,0,0,0,.27.09,1.1,1.1,0,0,1,.41.17.41.41,0,0,1,.1.13.14.14,0,0,1,0,.07h0v0h0v0a.23.23,0,0,0,.07.08.7.7,0,0,0,.36.11h.33a2.21,2.21,0,0,0,1.08-.37,1.59,1.59,0,0,0,.34-.35l.24-.33c.15-.23.32-.45.47-.68l.1.1,0,.06a1,1,0,0,0-.11.17l-.07.18a1,1,0,0,0-.06.2.7.7,0,0,0,0,.2.59.59,0,0,0,.1.21,1.24,1.24,0,0,0,.31.34,3.76,3.76,0,0,0,.86.47l.86.44.06,0,.07,0a8.2,8.2,0,0,0,.89-.61,6.91,6.91,0,0,0,.72-.71,2.82,2.82,0,0,0,.29-.39,3.11,3.11,0,0,0,.22-.4,2.16,2.16,0,0,0,.14-.43,1.59,1.59,0,0,0,.06-.43h0Z"/><path class="cls-4" d="M19.74,9.88c.43-.13-.08-.42-.08-.42l1.07-.1a10.6,10.6,0,0,0-1.82.05c-.24.11.13.28.13.28l.09.08.12-.14a.34.34,0,0,0,.49.25"/><path class="cls-4" d="M18,9.41a1.19,1.19,0,0,1,.66-.49,19.54,19.54,0,0,1,3.22-.15c-4.75-.7-3.88.64-3.88.64"/><path class="cls-4" d="M22.82,10.38a1.18,1.18,0,0,0-.19-.22.31.31,0,0,1-.09-.14.26.26,0,0,1,0-.15,2.46,2.46,0,0,1,.07-.29c0-.08.06-.17.09-.24l.11-.24h0a.82.82,0,0,0-.3.19.54.54,0,0,0-.1.6,1.11,1.11,0,0,1,.07.16.42.42,0,0,1,0,.15c0,.05,0,.1,0,.15l.1.11a.77.77,0,0,0,.19.15l.1,0h0l0-.07c0-.05-.06-.1-.1-.18"/><path class="cls-4" d="M20.5,10a2.43,2.43,0,0,1-.45,0l-.2-.05h-.2l-.24.05,0,0a.32.32,0,0,0,.14.18.57.57,0,0,0,.24.08,1.46,1.46,0,0,0,.3,0,1.77,1.77,0,0,0,.5-.14l.18-.1,0,0-.22,0"/><path class="cls-4" d="M18.74,8.21l.37,0a2.39,2.39,0,0,0,.4,0v0l-.1,0L19.13,8a1.29,1.29,0,0,0-.44,0l-.24.06a1,1,0,0,0-.2.11,1.11,1.11,0,0,1-.41.14,2,2,0,0,0-.39.07,2.94,2.94,0,0,0-.35.14v0a1.61,1.61,0,0,0,.41,0,1.09,1.09,0,0,0,.37-.13,1.81,1.81,0,0,1,.43-.14,2.37,2.37,0,0,1,.42-.08"/><path class="cls-4" d="M25.21,8.46h0l0,0,0,0Zm-.34-.28a.56.56,0,0,0,0,.28h0v.06a.08.08,0,0,0,0,0v0a.14.14,0,0,0,.07.06l.09,0a.41.41,0,0,0,.16,0l.07-.07V8.48a.38.38,0,0,1,.08-.18l0,0h0l.08-.07a.23.23,0,0,0,0-.34.66.66,0,0,0-.42-.23.51.51,0,0,0-.2,0v0a.33.33,0,0,1,.1.07.46.46,0,0,1,.11.22s0,.07,0,0h0l0,0h0l0,0L25,8A.88.88,0,0,1,25,7.87a.11.11,0,0,1,0,0s0,0,0-.06a.45.45,0,0,0,0-.11c0-.07-.09-.12-.11-.16s-.05-.07-.07-.09a0,0,0,0,1,0-.05.31.31,0,0,1,.12-.07v0a.45.45,0,0,0-.21,0,.28.28,0,0,0-.23.13.24.24,0,0,0,0,.23.64.64,0,0,0,.11.2l.09.08.06,0,.06,0a.53.53,0,0,1,.19.17Z"/><path class="cls-4" d="M25.4,8.26Z"/><path class="cls-5" d="M5,12.66c0-.14,0-.33,0-.49H5c0,.16-.1.34-.14.46l-.19.53H4.38l-.18-.52a3.9,3.9,0,0,1-.13-.47h0c0,.16,0,.35,0,.5l0,.52H3.62l.16-1.5h.45l.18.54c.06.19.11.36.15.53h0a4.19,4.19,0,0,1,.14-.53l.17-.54h.45l.13,1.5H5.08Z"/><path class="cls-5" d="M6.45,12.62h0l-.07-.32A3.38,3.38,0,0,1,6.3,12h0c0,.1,0,.26-.07.35l-.08.31Zm-.36.23L6,13.19H5.58l.48-1.5h.51L7,13.19H6.58l-.09-.34Z"/><rect class="cls-5" x="7.11" y="12.47" width="0.65" height="0.21"/><path class="cls-5" d="M9.35,12.66a3.85,3.85,0,0,1,0-.49h0c0,.16-.1.34-.14.46L9,13.16h-.3l-.18-.52a3.9,3.9,0,0,1-.13-.47h0c0,.16,0,.35,0,.5l0,.52H7.93l.16-1.5h.45l.17.54a4.45,4.45,0,0,1,.16.53h0A4.19,4.19,0,0,1,9,12.23l.17-.54h.45l.13,1.5H9.39Z"/><path class="cls-5" d="M10.75,12.62h0l-.07-.32L10.61,12h0a3.59,3.59,0,0,1-.08.35l-.08.31Zm-.35.23-.1.34H9.89l.47-1.5h.51l.43,1.5h-.41l-.1-.34Z"/></svg>