<svg id="Capa_1" data-name="Capa 1" xmlns="http://www.w3.org/2000/svg" viewBox="0 0 31.65 28.89"><defs><style>.cls-1{fill:#f5a4c7;}.cls-2{fill:#fbc9b7;}.cls-3{fill:#fccdb5;}.cls-4{fill:#231f20;}</style></defs><title>1-9meses</title><path class="cls-1" d="M8.69,22.7S7,24,7.3,24.61s.3,2.56,3.88,1,1.63-3.49,1.63-3.49Z"/><path class="cls-2" d="M31,18.42s-6.26-1.68-7.89-2.05S20,15.79,19.9,16a.44.44,0,0,0,.19.57c.23.1,2.69.79,2.69.79s-1.19.52-1.24.79.46.54.46.54a.77.77,0,0,0,.25.41,2.46,2.46,0,0,1,.36.34,2.2,2.2,0,0,0,.77.74,1.16,1.16,0,0,0,.82.13l.91-.37a3.19,3.19,0,0,0,1,.63,6,6,0,0,0,2.11-.09c.7-.2.94,0,.94,0l1.89.62Z"/><path class="cls-2" d="M16.15,11.55a5.68,5.68,0,0,0,1.62.93A1.51,1.51,0,0,1,19,13.56c.28.58-.08,1.35.53,1.46a2.79,2.79,0,0,0,1.42-.26l.73.42a1.45,1.45,0,0,0,.62.32,1,1,0,0,1,.64.4c.07.13.53.19.58.19a2.73,2.73,0,0,0,1.75-.88c.53-.75.83-1.12.83-1.12l.35.09a2.67,2.67,0,0,0-.26.63c-.12.4.58,1,.67,1.16a14,14,0,0,0,1.63,1S31,14.1,31,13.52V10.75a4.4,4.4,0,0,1-1.92.31c-.85-.12-1.19-.33-1.36-.54a9,9,0,0,0-3.17-1.84c-1.16-.22-5.73-.82-7-.32s-1.46,3.19-1.46,3.19"/><path class="cls-2" d="M4.75,16.75A3.12,3.12,0,0,0,6.24,18c1,.32,1,.47,1,.47L6,22.57l-.23.72s-1.94,0-2.16.27-.68.74-.27,1.47a5.42,5.42,0,0,0,.69,1s-1-.24-1,.08.16.32,0,.61.28.77.28.77a.61.61,0,0,0,.57.5c.51,0,3.37,0,3.62-.35s.21-.37,0-.75a3.3,3.3,0,0,0-.62-.77s1.25.05,1.48-.21.84-.42.57-.92a7.42,7.42,0,0,0-1-1.22s2.19.31,2.21.35a8.72,8.72,0,0,0,2.5-.58c.29-.28.53-.49.53-.49a1.66,1.66,0,0,1-.49,1.31,7.15,7.15,0,0,1-1.42,1.19,3.14,3.14,0,0,0,1.58-.11c1-.27,1.69-.43,1.69-.43a2.37,2.37,0,0,0,1.17.76c.73.17.78.16.91.39s.34.81.88.79a1.06,1.06,0,0,0,1.06-.75c.16-.48.23-.65.7-.86s.53-.43.53-.43.45-.14.39-.38a.33.33,0,0,0-.32-.24l-.21-.16L19.3,24s-.21-.27-.42-.29-.46-.24-.62-.11-.5.73-.82.84-.39,0-.44-.14a2.87,2.87,0,0,1-.1-.27.62.62,0,0,0,.45-.1,2.12,2.12,0,0,1,.34-.2s.23-.2.11-.28a1.49,1.49,0,0,1-.26-.26s0-.21-.11-.27-.54-.12-.72-.21A7.93,7.93,0,0,0,15,21.43a2.38,2.38,0,0,1-1.32-1.1A5.24,5.24,0,0,0,12.44,19a3.8,3.8,0,0,0-1-.3,4.44,4.44,0,0,1,.55-.51c.24-.15,1.56-1.46,1.28-1.93s-1-.86-1.41-1.76.16-.82-.28-1.4a13.38,13.38,0,0,0-3.56,0c-1.7.29-3.56,3.07-3.27,3.64"/><path class="cls-3" d="M8.45,20.28c-.51.14-1,1.51-2.25,1.59S4.65,21.63,5,20.78,6.76,19.48,7,19s-.07-.65.45-.76.35,0,.35,0,.38-.68.33-.94.63-.21.63.11a3.7,3.7,0,0,1-.09,1c-.07.14.53-.39.61-.15a.61.61,0,0,1-.1.5s.36-.27.36,0a.47.47,0,0,1-.14.39s.37.09.3.34-.77.6-1.29.75"/><path class="cls-4" d="M8.44,20.26h0a2.9,2.9,0,0,0,1-.46,1.17,1.17,0,0,0,.16-.15s0-.06,0-.08a.05.05,0,0,0,0,0s0,0,0,0a.15.15,0,0,0-.07-.12.56.56,0,0,0-.18-.07l-.07-.19s0,0,0,0l0,0s0,0,0-.08v-.17s0,0,0,0a0,0,0,0,0,0,0,.11.11,0,0,0,.05,0,.31.31,0,0,0,.11,0s0,0,0,0l-.07,0a.32.32,0,0,1-.35,0A.13.13,0,0,1,9,18.71H9a.56.56,0,0,0,.07-.18.34.34,0,0,0,0-.17c0-.05,0-.05.06,0s.12,0,.1,0a1.17,1.17,0,0,0-.23.11l-.07,0,0,0a.4.4,0,0,1-.16.05.49.49,0,0,1-.15,0,.17.17,0,0,1-.09-.07c0-.08,0-.07,0-.1s0,0,0,0,0,0,0,0l0,0,.06-.22c0-.15,0-.31.07-.46a2,2,0,0,0,0-.22.19.19,0,0,0-.1-.14.46.46,0,0,0-.23,0c-.06,0-.08,0-.07.12a1.47,1.47,0,0,1-.12.48c-.06.16-.13.31-.2.46l-.17-.08s0,0,0,0,0,.07,0,.06,0,0,0,0l-.15,0a.7.7,0,0,0-.25.09c-.08,0,0,.23-.06.4a1,1,0,0,1-.08.26.83.83,0,0,1-.21.24c-.17.14-.34.25-.5.36a5.63,5.63,0,0,0-.91.66,1.47,1.47,0,0,0-.28.36l0,.11,0,0s0,0,0,0l0,.06a.83.83,0,0,0-.06.21.61.61,0,0,0,0,.36c0,.09.12.13.29.17a3.49,3.49,0,0,0,.59,0,1.69,1.69,0,0,0,.56-.08A2.68,2.68,0,0,0,7.58,21c.14-.12.26-.26.39-.39a1.36,1.36,0,0,1,.47-.36Zm0,0a1.13,1.13,0,0,0-.42.35c-.11.14-.21.29-.31.43a2.45,2.45,0,0,1-.88.79,2,2,0,0,1-.74.19,2.85,2.85,0,0,1-.77,0,.93.93,0,0,1-.72-.41.73.73,0,0,1,0-.57,1.82,1.82,0,0,1,.07-.25l0-.07,0,0v0l.06-.11a2,2,0,0,1,.4-.46,6.41,6.41,0,0,1,1-.68,5.26,5.26,0,0,0,.49-.3A.86.86,0,0,0,6.86,19,.62.62,0,0,0,7,18.79a.79.79,0,0,0,0-.22.35.35,0,0,1,.17-.29,1.14,1.14,0,0,1,.37-.1l.18,0a.64.64,0,0,1,.14,0s.12.08.09.12a.12.12,0,0,1,0,0,.16.16,0,0,1-.15,0,.07.07,0,0,1,0-.09A3.55,3.55,0,0,0,8,17.82a1.24,1.24,0,0,0,.11-.44v-.06a.12.12,0,0,1,0-.08.27.27,0,0,1,.17-.12.66.66,0,0,1,.42,0,.37.37,0,0,1,.25.24,1.29,1.29,0,0,1,0,.25c0,.16,0,.32,0,.48a2.29,2.29,0,0,1,0,.25v.07s0,0,0,0,0,0,0,0,0,0,0-.08a.29.29,0,0,0-.08-.07.26.26,0,0,0-.14,0c-.14,0-.08,0-.09,0h0l.06,0a1.87,1.87,0,0,1,.3-.17.59.59,0,0,1,.42,0c.2.11.16.2.18.22a.5.5,0,0,1,0,.3,1,1,0,0,1-.13.27L9,18.67l.14-.09a.8.8,0,0,1,.22-.07.46.46,0,0,1,.25,0,.27.27,0,0,1,.13.13.24.24,0,0,1,0,.08v.07a1,1,0,0,1-.06.22l-.06.11,0,.06-.07.06-.07-.19a.68.68,0,0,1,.3.17.26.26,0,0,1,.07.26.11.11,0,0,1,0,.06l0,.06-.09.1-.23.14a4.67,4.67,0,0,1-1,.43Z"/><path class="cls-4" d="M23,14.8h0l.11-.08a.42.42,0,0,1-.07.31l-.07.08,0,0-.07,0-.1.05-.12,0a.59.59,0,0,1-.34-.12A3.37,3.37,0,0,0,23,14.8m3.57-3.43h0a.39.39,0,0,1-.14.17.51.51,0,0,1-.24.07H25.6l.43.27a1,1,0,0,1,.46.67,1.49,1.49,0,0,1-.12.82,3.63,3.63,0,0,1-.48.79c-.21.24-.47.47-.7.71l-.35.36a2.45,2.45,0,0,1-.34.31,2.12,2.12,0,0,1-.93.35,1.41,1.41,0,0,1-.42,0s0,0,0,0l0,0h0a.75.75,0,0,0-.07-.12.67.67,0,0,0-.23-.21,1.62,1.62,0,0,0-.64-.18.56.56,0,0,1-.32-.07l.07,0,.32-.1a.24.24,0,0,0,.09.08.63.63,0,0,0,.33.14h.2a.71.71,0,0,0,.19-.06l.07,0,.08,0,.13-.1a.74.74,0,0,0,.21-.5,1,1,0,0,0,0-.25,2.33,2.33,0,0,0-.07-.25.26.26,0,0,0-.24-.12c-.13,0-.23.08-.23.17h0c0,.09-.13.22-.32.31a3.5,3.5,0,0,1-.62.26l-.34.1-.17,0h0l-.11-.09-.17-.21h0l0,0a.38.38,0,0,0-.41,0,2.77,2.77,0,0,1-1,.32.49.49,0,0,1-.35-.09.89.89,0,0,1-.18-.35,7.48,7.48,0,0,0-.23-.87,1.89,1.89,0,0,0-.6-.81,2.57,2.57,0,0,0-.51-.31l-.56-.21a3.1,3.1,0,0,1-.78-.44c.41-.13.86-.29,1.38-.49l-1.41-.12,3.54-.56H17.19a6.93,6.93,0,0,1,3.33-.7s-.54.47,1,.57,2-.13,2.37.31a3.38,3.38,0,0,1,.48.77L25.1,11a2.64,2.64,0,0,1-.23-.47h0a3.22,3.22,0,0,1,0-.62,1.34,1.34,0,0,1,.05-.3A.53.53,0,0,1,25,9.4a.82.82,0,0,1,.2-.12.6.6,0,0,1,.27.06,1.39,1.39,0,0,1,.51.39,2.21,2.21,0,0,1,.35.53,2.39,2.39,0,0,1,.13.28c0,.11.06.19.09.29A1,1,0,0,1,26.61,11.37Zm-10.49.55h0a2.58,2.58,0,0,0,1.06.61c.21.06.41.09.58.15a2.85,2.85,0,0,1,.51.2,1.18,1.18,0,0,1,.61.7,2.71,2.71,0,0,1,.09.86.74.74,0,0,0,.13.49.81.81,0,0,0,.31.21,1.23,1.23,0,0,0,.42.07,2.52,2.52,0,0,0,.71-.11l.3-.1.06.06a.73.73,0,0,0,.16.14.87.87,0,0,0,.29.14.71.71,0,0,0,.25,0l.13,0h0a.2.2,0,0,0,.08.08.89.89,0,0,0,.31.11,1.3,1.3,0,0,1,.46.2.36.36,0,0,1,.11.14l0,.08h0v0h0l0,0s0,.06.08.09a1,1,0,0,0,.42.13h.37a2.51,2.51,0,0,0,1.23-.43,1.83,1.83,0,0,0,.39-.4l.27-.39.51-.74.16,0-.08.1a2.25,2.25,0,0,0-.12.21,1.19,1.19,0,0,0-.08.2,1.25,1.25,0,0,0-.07.23.62.62,0,0,0,0,.23.82.82,0,0,0,.11.25,1.85,1.85,0,0,0,.35.39,5.22,5.22,0,0,0,1,.54c.34.16.66.33,1,.5l.07,0,.08-.05a7.52,7.52,0,0,0,1-.7,7.16,7.16,0,0,0,.83-.82,3.65,3.65,0,0,0,.57-.91A3.11,3.11,0,0,0,31,14a1.68,1.68,0,0,0,.07-.5H31l-.3.44c-.09.15-.21.29-.31.43s-.21.28-.33.42-.23.27-.34.41-.45.55-.7.82-.46.5-.72.74a4.18,4.18,0,0,1-.87-.44L27.06,16l-.34-.32-.15-.16a.7.7,0,0,1-.14-.16.49.49,0,0,1-.09-.15.32.32,0,0,1-.05-.18,1.2,1.2,0,0,1,0-.19v-.21c0-.07,0-.14,0-.2l0-.11h0a5.32,5.32,0,0,1,.86.31,2.24,2.24,0,0,1,.68.48.64.64,0,0,1,.16.29.57.57,0,0,0-.08-.32,1.84,1.84,0,0,0-.57-.6,5.34,5.34,0,0,0-.82-.46l-.33-.13c.1-.17.2-.33.28-.5a2.06,2.06,0,0,0,.27-.87.86.86,0,0,0-.09-.47.76.76,0,0,0-.12-.19.85.85,0,0,0,.17-.06.77.77,0,0,0,.33-.31l.75.08-.42-.34.63.06.16-.24a2.14,2.14,0,0,0,.81.17,3.65,3.65,0,0,0,1.22-.18,3.86,3.86,0,0,0,.9-.39l0,0-.24.08a6.44,6.44,0,0,1-.71.18,3.87,3.87,0,0,1-1.11.08,1.69,1.69,0,0,1-.66-.2l0,0,.11-.48a1.64,1.64,0,0,1-.7-1c-.26-.78-.35-2.68-1.22-3.3A9.33,9.33,0,0,0,22,4.86a1.88,1.88,0,0,0-.89.32l.4-.69-.68.67-.52-.44.1.52s-.17-.33-1.38-.34A4.27,4.27,0,0,0,15.53,6c-1.08,1.1-2.37,4.23-2.16,5.15C13.54,11.9,14.08,12.45,16.12,11.92Z"/><path class="cls-4" d="M19.4,12.31l.06.1.21-.11s-.15.43.38.4.15-.48.15-.48l.9-.23s-1.05,0-1.37.09-.33.23-.33.23"/><path class="cls-4" d="M18.47,11.84c.48.48,1.15.1,1.72-.12a5.27,5.27,0,0,1,1.7-.11,4.54,4.54,0,0,0-3.42.23"/><path class="cls-4" d="M3.53,26.84a0,0,0,0,0,0,0s0,0,0,0h0v0"/><path class="cls-4" d="M3.22,26.92h0s0,0,0,0h0Z"/><path class="cls-4" d="M9.47,25.93h0A4,4,0,0,1,9,26a2.74,2.74,0,0,1-.5,0h-.3a1.46,1.46,0,0,0,.66-.3A.65.65,0,0,0,9,25a2.26,2.26,0,0,0-.52-.75,2.57,2.57,0,0,0-.35-.29c.44.1.87.2,1.31.28l.13,0,.15,0H10a3.36,3.36,0,0,0,.57-.05,10.12,10.12,0,0,0,1-.27,9.47,9.47,0,0,0,.93-.37l.31-.18c0,.08,0,.16-.08.24a2.82,2.82,0,0,1-.34.64,2,2,0,0,1-.55.52,4,4,0,0,1-.37.22l-.4.23a5.32,5.32,0,0,1-1.66.7m-2.07.14h0L7,26.13c0-.14.05-.28.06-.43A1,1,0,0,0,7,25.08a1.71,1.71,0,0,0-.86-.71,2,2,0,0,0-.45-.13h0s0,0,0,0A3.74,3.74,0,0,1,6,24.5a1.65,1.65,0,0,1,.55.68,1.34,1.34,0,0,1,0,.51,1.82,1.82,0,0,0,0,.32.74.74,0,0,0,.17.36c.21.22.48.35.67.54a.35.35,0,0,1,0,.56,1.82,1.82,0,0,1-.81.19l-1,.11a8.79,8.79,0,0,1-1.61.1l-.15,0h0l-.08,0s0,0,0,0,.16-.14.26-.16.2,0,.23,0a.21.21,0,0,1,0,.07l0,0s0,0,0,0a.19.19,0,0,0,0-.1c0-.06-.15-.16-.34-.17a1.45,1.45,0,0,0-.28,0,.45.45,0,0,0-.1-.14l-.06-.07s0,0,0,0,0,0,0,.06-.07,0,0-.06a.09.09,0,0,1,.08-.07.15.15,0,0,1,.14,0l.08.08H3.8a.57.57,0,0,1,.14,0,.23.23,0,0,1,.1,0,0,0,0,0,0,0,0h0a.13.13,0,0,0,.09-.08.2.2,0,0,0-.12-.23A.48.48,0,0,0,3.88,27,.23.23,0,0,0,4,26.78v0s0,0,0-.07a.32.32,0,0,0-.12-.08.43.43,0,0,0-.25,0,.53.53,0,0,1-.21,0,.29.29,0,0,1-.13,0,0,0,0,0,0,0,0,.6.6,0,0,1-.1-.11c-.05-.06-.07-.15,0-.19s0,0,0,0,0,0,0,0l.11,0a.85.85,0,0,1,.25,0h.14a.28.28,0,0,1,.15,0,2.73,2.73,0,0,0,.41.1l.42,0c.13,0,.22,0,.33,0h.28l.46-.06.18,0H6a0,0,0,0,0,0,0A1.53,1.53,0,0,0,5.36,26,1.21,1.21,0,0,0,5,26a1.14,1.14,0,0,0-.36.1.48.48,0,0,1-.31.06A.44.44,0,0,1,4.11,26,.8.8,0,0,0,4,25.84h0l-.12-.18a3.25,3.25,0,0,1-.46-1,.86.86,0,0,1,0-.61A1,1,0,0,1,4,23.64a5,5,0,0,1,1.08-.15,6.13,6.13,0,0,1,1.14.07,3.92,3.92,0,0,1,1.85.85c.45.39.79.88.49,1.19a1.35,1.35,0,0,1-.6.33,1.81,1.81,0,0,1-.31.09H7.43s0,0,0,0h0ZM3.23,27.13h0s-.05-.13,0-.21,0,0,0,0l0,0h0a.14.14,0,0,1,0-.08.12.12,0,0,1,.12-.06.16.16,0,0,1,.13.06.12.12,0,0,1,0,.07l.12.09.07.06-.09,0a.56.56,0,0,1-.19.07Zm14.33-3.61h0s0,0,0,0S17.54,23.53,17.56,23.52Zm2.6,1a.23.23,0,0,0,0-.12.19.19,0,0,0-.11-.07l-.13,0s0-.08,0-.11a.19.19,0,0,0-.11-.09.47.47,0,0,0-.31,0s0,0,0,0a.71.71,0,0,0,.1.17l0,0h.08a0,0,0,0,1,0,.07.28.28,0,0,1-.13,0,1,1,0,0,0-.48.06.84.84,0,0,0-.21.13s0,0,0,0a.73.73,0,0,0,.27.1.56.56,0,0,0,.28,0l.14-.05a.4.4,0,0,0,.12-.1s.06-.07.1-.1l0,0a.11.11,0,0,0,.05,0l.1,0s.08,0,.07.06,0,0-.06.05a.8.8,0,0,0-.31.11.5.5,0,0,0-.05-.13h0s0,0,0,0a.61.61,0,0,1-.08.3l0,0h0a.86.86,0,0,1-.31.24c-.13.07-.25.1-.44.18a.75.75,0,0,0-.36.4c-.14.24-.21.48-.32.69a.71.71,0,0,1-.22.26,1,1,0,0,1-.44.05.77.77,0,0,1-.7-.42c-.05-.1,0-.23-.11-.39a1.12,1.12,0,0,0-.46-.3,5.08,5.08,0,0,0-.51-.17,3.05,3.05,0,0,1-.44-.13.28.28,0,0,1-.16-.18A.5.5,0,0,1,15,25a.18.18,0,0,0-.09-.2.41.41,0,0,0-.44,0h0l-.16.1-.2.09a4.69,4.69,0,0,1-.45.18,8.92,8.92,0,0,1-1,.26,9.58,9.58,0,0,1-1.11.15l.37-.21a3.68,3.68,0,0,0,.4-.25,2.54,2.54,0,0,0,.62-.66,2.45,2.45,0,0,0,.3-.74,2,2,0,0,0,.05-.49,9.33,9.33,0,0,1,1-.45l.31-.1.32-.06s.13,0,.12,0l.18,0,.12,0,.15.06a1.83,1.83,0,0,1,.84.86c.09.17.16.34.24.51l.23.5a.31.31,0,0,0,.34.13h0l.46-.13a1.53,1.53,0,0,0,.4-.21.79.79,0,0,0,.17-.14l.07-.09.05-.07a2.05,2.05,0,0,0,.16-.26s0,0,0,0,0,0,.05,0,.08,0,0,0,0,0,0,0,0,0,0,.06-.09.31-.3.45c0,0,0,0,0,0h0a.8.8,0,0,0,.62-.43.21.21,0,0,0,0,.06.12.12,0,0,0,.05.05l.1,0s.08,0,.08.07,0,0-.07.05a.66.66,0,0,0-.38.14.73.73,0,0,0-.14.17s0,0,0,0a.9.9,0,0,0,.29,0,.57.57,0,0,0,.24-.08l.1-.09a.31.31,0,0,0,.06-.13.56.56,0,0,0,0-.13.24.24,0,0,1,0-.12.23.23,0,0,0,0-.12.41.41,0,0,0-.11-.07.42.42,0,0,0-.24,0,.25.25,0,0,0-.06-.13.42.42,0,0,0-.14-.11.44.44,0,0,0-.15-.05.86.86,0,0,0-.37,0,.67.67,0,0,0-.28.18c-.1.1-.15.18-.22.26l-.05.06,0,.05-.11.08a1.36,1.36,0,0,1-.27.14l-.1,0-.13-.2a.7.7,0,0,0,.44-.23h.12l.06,0a.2.2,0,0,0,.15-.16.22.22,0,0,0-.09-.2.56.56,0,0,0-.19-.11s0,.07,0,.16,0,0,0,.06h-.42l-.13,0a.14.14,0,0,1-.06,0s-.05.09.06.18a.61.61,0,0,0,.21.12l.13,0h.12l-.4.17c-.14-.18-.28-.35-.44-.52-.31-.3-.56-.61-.9-.92l-.15-.11a1.12,1.12,0,0,0-.22-.1.7.7,0,0,0-.18,0l-.27,0a2.13,2.13,0,0,0-.45.06l-.38.14a3.08,3.08,0,0,0-.62.37c-.06,0-.1.09-.15.13a1.57,1.57,0,0,0,.09-.23,2.27,2.27,0,0,0,.12-.62,2.61,2.61,0,0,0-.08-.72,2.47,2.47,0,0,0-.29-.69,2.66,2.66,0,0,0-.42-.55,2.51,2.51,0,0,0-.58-.45s.13.22.28.55a5.15,5.15,0,0,1,.24.57c0,.1.07.21.11.31s.06.22.09.33a5.57,5.57,0,0,1,.14.66l0,.31c0,.1,0,.19,0,.28a.66.66,0,0,1,0,.14c-.06,0-.12,0-.12.09a.56.56,0,0,1-.18.28,2.41,2.41,0,0,1-.35.25,4.14,4.14,0,0,1-.89.36,4.77,4.77,0,0,1-1,.17,2.51,2.51,0,0,1-.48,0l-.23,0-.11,0-.12,0c-.66-.17-1.34-.3-2-.43l-.48-.08a4.23,4.23,0,0,0-.72-.19A3,3,0,0,0,6,23.12v-.06a.39.39,0,0,1,.08-.14l.09-.1.09-.14a.86.86,0,0,0,.08-.55.73.73,0,0,0-.11-.26,1.49,1.49,0,0,0-.21.22,2.08,2.08,0,0,0-.3.45l-.06.12a.34.34,0,0,0-.06.15.28.28,0,0,0,0,.18.39.39,0,0,0,.06.11H5.08a4.67,4.67,0,0,0-1.25.21A1.27,1.27,0,0,0,3,24a1,1,0,0,0,0,.76,3.38,3.38,0,0,0,.69.95l.09.09-.08,0a1.52,1.52,0,0,0-.48,0,.84.84,0,0,0-.47.19.37.37,0,0,0-.1.16.41.41,0,0,0,0,.16.36.36,0,0,0,.17.26,1,1,0,0,0,.2.08.16.16,0,0,0-.1,0l-.07,0,0,0H2.75l0,0a.23.23,0,0,0-.08.23.3.3,0,0,0,.14.17.43.43,0,0,0,.27.06s0,0-.06.07a.24.24,0,0,0,0,.28.5.5,0,0,0,.35.16h0s0,0,0,0,0,.31.16.37l.07,0h.12a.73.73,0,0,0,.21.06,5,5,0,0,0,1.85,0l1-.16a1.62,1.62,0,0,0,1-.42.4.4,0,0,0,.08-.41.85.85,0,0,0-.23-.35c-.2-.19-.45-.36-.53-.55a.28.28,0,0,1,0-.13h.39l.34,0a4.16,4.16,0,0,0,.72.13c.18,0,.36,0,.55,0l.55,0a5.2,5.2,0,0,0,1-.26,5.36,5.36,0,0,0,.64-.28,9.4,9.4,0,0,0,1.5,0,8.17,8.17,0,0,0,1.12-.18l.53-.17h0a.73.73,0,0,0,.45.42,2.77,2.77,0,0,0,.56.13l.5.1a1,1,0,0,1,.37.15c.09.06.09.2.17.33a.9.9,0,0,0,.34.33,1.46,1.46,0,0,0,.52.18,1.5,1.5,0,0,0,.29,0A.68.68,0,0,0,18,27a1.09,1.09,0,0,0,.46-.31,2.53,2.53,0,0,0,.41-.72,1.45,1.45,0,0,1,.14-.25,1.81,1.81,0,0,0,.44-.25.71.71,0,0,0,.29-.38h.07A.62.62,0,0,0,20,25a.81.81,0,0,0,.1-.09.27.27,0,0,0,.06-.12.65.65,0,0,0,0-.14A.21.21,0,0,1,20.16,24.5Z"/><path class="cls-4" d="M8.83,15.58a2.12,2.12,0,0,0-1.14,1.09s1.15-1.19,1.76-1.11l.23,0s-.06-.29-.85,0"/><path class="cls-4" d="M9.16,16a7.08,7.08,0,0,0-.88.56l.56-.24s0,.16.24.15.48-.19.4-.27A.66.66,0,0,1,9.36,16l.17,0s-.06-.16-.37,0"/><path class="cls-4" d="M12,15.22c-.05-.22-.43-.07-.65.07s-.17.21-.17.21c.27-.15.1.1.33.1s.28-.12.28-.24-.19-.1-.11-.14a.83.83,0,0,1,.32,0"/><path class="cls-4" d="M11.89,14.61h0c-.67-.07-1.18.38-1.08.82s.47.53.69.74-.27.44-.27.44c.34,0,.35-.08.5-.26s0-.21-.43-.45-.31-.58-.18-.88.67-.33.81-.35a1.28,1.28,0,0,0,.11.24,5.73,5.73,0,0,0,.72,1c.06.07.18.16.22.21s0,.07.06.1l0,.11a1.14,1.14,0,0,1-.06.48,1.58,1.58,0,0,1-.23.47,2.08,2.08,0,0,1-.38.41,2.54,2.54,0,0,1-.49.35,4.75,4.75,0,0,1-.56.25h0a3.28,3.28,0,0,1-.67.19,5.28,5.28,0,0,1-.71.1,6.21,6.21,0,0,1-1.49-.07A6.27,6.27,0,0,1,7,18.11H7L6.64,18s.05,0,.09,0A.36.36,0,0,0,7,17.93a.19.19,0,0,0,0-.11.11.11,0,0,0-.11-.1.28.28,0,0,1-.23-.22c0-.05,0-.08,0-.16a.34.34,0,0,0-.18-.09l-.09,0-.17,0a.65.65,0,0,0-.21,0,.29.29,0,0,0-.15,0,.1.1,0,0,0-.06.1.23.23,0,0,0,.14.15h0v-.07a.07.07,0,0,1,0-.06s0,0,0,0,0,0,0,0l.13,0a1,1,0,0,0,.2,0H6.4s0,0,0,0,.07.08.12.12a3.47,3.47,0,0,1,.29.25c.05,0,0,0,0,0s0,0,0,0l-.07,0s0,0,0,0l-.06,0,0-.07h0a.14.14,0,0,0,0,.07.12.12,0,0,0,0,.11l.07.05-.42-.16c-.39-.24-.7-.55-.54-.7s1,0,1,0a1.28,1.28,0,0,0,.7.4l-.25-.36.76.41a2.39,2.39,0,0,1-1-1.09,1.74,1.74,0,0,1,.2-1.6l.07.77.93-1.39L8,15.64l.57-1.19.22.83.31-.68,0,.55.47-1.08.15.93.83-.7-.16.46.66-1.16,0,.94.63-1v.29a1.27,1.27,0,0,0,.11.54l.1.21m-6.55,3,1.43,1-.19-.38.81.53-.18-.35.48.32-.3-.38a7.86,7.86,0,0,0,1,.27,7.4,7.4,0,0,0,1.57.17,5.66,5.66,0,0,0,.81-.07l.38-.07.09,0a.56.56,0,0,0,0,.13.53.53,0,0,0,.2.31.81.81,0,0,0,.16.1.4.4,0,0,1-.08-.13.36.36,0,0,1,0-.27l.06-.09a1.73,1.73,0,0,1,.34.08,1.11,1.11,0,0,1,.41.2l.09.07.09.1.16.21c.21.31.43.69.72,1.09a3.83,3.83,0,0,0,.5.61,1.9,1.9,0,0,0,.42.3l.44.19a2.76,2.76,0,0,1,.73.37,6.81,6.81,0,0,1,.52.54,1.56,1.56,0,0,0,.37.28,1.34,1.34,0,0,0,.52.14,3.46,3.46,0,0,1,.39,0,.23.23,0,0,1,.16.09c.06.1,0,.21-.22.25a1.4,1.4,0,0,1-.48.05.21.21,0,0,1-.14,0s0-.05,0-.07a.35.35,0,0,1,.08-.06l-.11,0s-.08,0-.07.11.1.08.17.1a1.58,1.58,0,0,0,.58,0,.7.7,0,0,0,.35-.12.28.28,0,0,0,.12-.33.5.5,0,0,0-.36-.29c-.16,0-.32,0-.44-.07a.81.81,0,0,1-.53-.31,3.4,3.4,0,0,0-.53-.6A3.42,3.42,0,0,0,15,21.2L14.61,21a1.62,1.62,0,0,1-.28-.2,6.64,6.64,0,0,1-.51-.55c-.31-.37-.59-.74-.88-1L12.72,19a.94.94,0,0,0-.12-.09s-.1-.05-.14-.08A2.46,2.46,0,0,0,12,18.7a2.93,2.93,0,0,0-.37,0,.68.68,0,0,1,.12-.12.49.49,0,0,1,.12-.08h0a3.26,3.26,0,0,0,1-.6,2.19,2.19,0,0,0,.43-.49,1.66,1.66,0,0,0,.21-.56,1.1,1.1,0,0,0,0-.57c0-.06,0-.1-.07-.15a.65.65,0,0,0-.12-.15c-.11-.09-.17-.12-.26-.2a4.59,4.59,0,0,1-.83-.88,2.1,2.1,0,0,1-.37-.71,2.84,2.84,0,0,0,.08-.94c0-.82-1.17-1.43-2.2-1.68a6.08,6.08,0,0,0-3.73.3c-1.81.59-2.85,2.37-2.42,3.71A3.68,3.68,0,0,0,5.34,17.6Z"/><path class="cls-4" d="M7.82,17.61l0,0Z"/><path class="cls-4" d="M11.86,16.88a2.65,2.65,0,0,1-1.56.51s1.64.16,1.56-.51"/><path class="cls-4" d="M11.08,17.6s-.59.13-.28.21,1.09-.2.28-.21"/><path class="cls-4" d="M19.68,17.14a9.36,9.36,0,0,0,2.17.35l-2.64-.71c0,.09.13.22.47.36"/><path class="cls-4" d="M22.15,17.5h0"/><path class="cls-4" d="M28.33,20.21h0"/><path class="cls-4" d="M30.22,20.61c-.25-.1-.5-.19-.76-.27l-.79-.24-.34.25c0-.07,0-.07,0-.09v0h0l-.09.05-.26.1c-.19.07-.39.12-.59.18a2.69,2.69,0,0,1-.61.08,2.68,2.68,0,0,1-.3-.05,1.19,1.19,0,0,1-.26-.11,2.52,2.52,0,0,1-.42-.27,4.24,4.24,0,0,1-.4-.31c-.26-.22-.51-.46-.78-.71l-.06,0a1.52,1.52,0,0,0,.38.8h0a2.14,2.14,0,0,1-.49.2,1,1,0,0,1-.63,0,2.1,2.1,0,0,1-.6-.4l-.07-.07s0,0,0,0,0,0,0-.06a.78.78,0,0,1,.16-.22,5.13,5.13,0,0,1,.53-.42l.59-.42a4.44,4.44,0,0,0-.79.24,3,3,0,0,0-.72.38,1.9,1.9,0,0,0-.21.19,1.71,1.71,0,0,1-.11-.14,1.41,1.41,0,0,1-.14-.18l-.08-.1v0h0s.05.06,0,0h0l0-.06s0,0,0,0h0s0,0,.05-.05a.79.79,0,0,1,.19-.15c.32-.2.74-.38,1-.54a5.63,5.63,0,0,0,.5-.28,4.26,4.26,0,0,0-1.92.53,1.61,1.61,0,0,0-.29.24.51.51,0,0,1-.18-.25c0-.13.12-.25.28-.37a1.17,1.17,0,0,1,.25-.16,1.48,1.48,0,0,1,.29-.12,1.81,1.81,0,0,1,.31-.09l.33-.06.81-.1-.77-.24-1.8-.55-.86-.3-.19-.08c-.06,0-.05,0-.11-.05l0,0h0s0,0,0,0a1.84,1.84,0,0,1,.28,0h.47c.29,0,.62.06.94.09.64.09,1.29.2,1.91.33a17.75,17.75,0,0,1,1.84.51l.86.32.41.17a3.61,3.61,0,0,0,.46.17,17.49,17.49,0,0,0,1.9.45c.64.12,1.29.22,1.95.28l0,0c-.61-.18-1.23-.35-1.84-.51s-1.23-.33-1.82-.51l-.41-.14c-.16-.05-.29-.11-.46-.15-.33-.1-.64-.17-1-.24-.64-.13-1.27-.27-1.89-.43s-1.24-.32-1.88-.46a5.75,5.75,0,0,0-1-.18l-.52,0a1.38,1.38,0,0,0-.64.11.3.3,0,0,0-.18.32c0,.05,0,.09,0,.13l0,0,0,0h0l0,0,.25.17.23.1c.3.13.6.23.91.33s.83.24,1.25.34l-.1,0a1.74,1.74,0,0,0-.33.18,1.4,1.4,0,0,0-.25.22,1.27,1.27,0,0,0-.21.25.31.31,0,0,0,0,.31.9.9,0,0,0,.34.3l0,.09a.37.37,0,0,0,0,.23l0,0,0,.06,0,0,.12.09.23.15a2.43,2.43,0,0,0,.28.14v0a.32.32,0,0,0,0,.27.73.73,0,0,0,.09.13l.08.07a1.89,1.89,0,0,0,.86.49,1.34,1.34,0,0,0,.56,0,1.41,1.41,0,0,0,.44-.15,1.08,1.08,0,0,0,.26-.18l.14-.15h0a1.83,1.83,0,0,0,.44.38,2.09,2.09,0,0,0,.3.14l.33.1a4.23,4.23,0,0,0,.7.06l.35,0,.32,0,.66-.07a2.14,2.14,0,0,0,.35-.06l.18-.06.57.22L30,21a12,12,0,0,0,1.65.35l0,0a9.88,9.88,0,0,0-1.43-.68"/><path class="cls-4" d="M2.87,3.86a1.41,1.41,0,0,1-.49.07A1.07,1.07,0,0,1,1.22,2.75,1.15,1.15,0,0,1,2.44,1.52a1.22,1.22,0,0,1,.43.06l-.08.23a1,1,0,0,0-.35-.05c-.37,0-.8.24-.8,1s.39,1,.81,1a1.07,1.07,0,0,0,.36-.06Z"/><path class="cls-4" d="M3.39,3.06h0c0,.28.07.66.43.66s.4-.4.4-.66-.06-.66-.41-.66-.42.4-.42.66m1.23,0a.79.79,0,0,1-.82.87A.77.77,0,0,1,3,3.06a.8.8,0,0,1,.83-.88A.77.77,0,0,1,4.62,3.06Z"/><path class="cls-4" d="M5,2.65c0-.2,0-.31,0-.44h.34l0,.21h0a.69.69,0,0,1,.56-.24.54.54,0,0,1,.52.26h0a.58.58,0,0,1,.25-.19A.71.71,0,0,1,7,2.18a.54.54,0,0,1,.59.6V3.9H7.24V2.84c0-.22,0-.43-.35-.43a.38.38,0,0,0-.36.25.71.71,0,0,0,0,.15V3.9H6.13V2.79c0-.19,0-.38-.35-.38a.36.36,0,0,0-.36.27.77.77,0,0,0,0,.15V3.9H5Z"/><path class="cls-4" d="M8.52,3.28h0a.32.32,0,0,0,0,.14.37.37,0,0,0,.36.29c.33,0,.43-.31.43-.65s-.12-.65-.43-.65a.4.4,0,0,0-.37.31.53.53,0,0,0,0,.13Zm-.39-.54c0-.26,0-.41,0-.53h.35l0,.21h0A.61.61,0,0,1,9,2.18c.43,0,.72.31.72.87A.77.77,0,0,1,9,3.93a.51.51,0,0,1-.43-.19h0v.84H8.13Z"/><path class="cls-4" d="M10.12,2.65c0-.15,0-.32,0-.44h.35l0,.26h0A.59.59,0,0,1,11,2.18h.09v.28H11a.45.45,0,0,0-.47.35.77.77,0,0,0,0,.15V3.9h-.39Z"/><path class="cls-4" d="M12.32,2.88h0c0-.34-.18-.49-.37-.49s-.38.26-.4.49Zm-.78.2c0,.52.31.63.59.63a1.37,1.37,0,0,0,.41-.06l.07.2a1.77,1.77,0,0,1-.55.08.81.81,0,0,1-.9-.86A.81.81,0,0,1,12,2.18a.67.67,0,0,1,.7.75v.15Z"/><path class="cls-4" d="M13.08,2.65a4.34,4.34,0,0,0,0-.44h.35l0,.2h0A.69.69,0,0,1,14,2.18a.54.54,0,0,1,.6.58V3.9h-.4V2.81c0-.2-.06-.4-.34-.4a.38.38,0,0,0-.38.27.76.76,0,0,0,0,.15V3.9h-.39Z"/><path class="cls-4" d="M16.2,2.85h0a.45.45,0,0,0,0-.11.38.38,0,0,0-.37-.33c-.32,0-.44.31-.44.65s.14.65.42.65a.39.39,0,0,0,.38-.29.36.36,0,0,0,0-.11Zm.39-1.37v2c0,.11,0,.31,0,.4h-.34l0-.21h0a.62.62,0,0,1-.52.24c-.42,0-.72-.31-.72-.87s.36-.88.75-.88a.55.55,0,0,1,.45.2h0v-.9Z"/><path class="cls-4" d="M18.14,2.88h0c0-.34-.18-.49-.37-.49s-.39.26-.4.49Zm-.78.2c0,.52.3.63.59.63a1.43,1.43,0,0,0,.41-.06l.06.2a1.75,1.75,0,0,1-.54.08.81.81,0,0,1-.9-.86.81.81,0,0,1,.83-.89.68.68,0,0,1,.71.75.66.66,0,0,1,0,.15Z"/><path class="cls-4" d="M3.14,6h0c0-.34-.18-.49-.37-.49s-.38.26-.4.49Zm-.77.2c0,.52.3.63.58.63a1.08,1.08,0,0,0,.41-.07l.07.2a1.52,1.52,0,0,1-.55.08A.8.8,0,0,1,2,6.23a.81.81,0,0,1,.84-.89.67.67,0,0,1,.7.75v.15Z"/><rect class="cls-4" x="3.9" y="4.63" width="0.39" height="2.43"/><path class="cls-4" d="M5.08,5.5h0a3.39,3.39,0,0,1,.47-.81l.23,0a3.31,3.31,0,0,0-.3.8Zm.68,0a4.24,4.24,0,0,1,.46-.81l.24,0a3.31,3.31,0,0,0-.3.8Z"/><path class="cls-4" d="M6.81,7.06V4.7h.37l.64,1.11c.14.25.32.56.44.82h0a9.5,9.5,0,0,1,0-1.09V4.7h.35V7.06H8.2L7.54,5.93c-.13-.24-.28-.51-.41-.81h0c0,.32,0,.62,0,1.12v.82Z"/><path class="cls-4" d="M9.4,5.88h0c0,.49.14,1,.57,1s.57-.51.57-1-.12-1-.57-1-.57.49-.57,1m1.55,0c0,.89-.45,1.23-1,1.23S9,6.67,9,5.88s.41-1.21,1-1.21S11,5.11,11,5.86Z"/><path class="cls-4" d="M11.88,4.67h0a3.77,3.77,0,0,1-.46.81l-.23,0a4,4,0,0,0,.29-.8Zm.68,0a3.77,3.77,0,0,1-.46.81l-.24,0a3.48,3.48,0,0,0,.3-.8Z"/><path class="cls-4" d="M5,12.7c.25-.67-.65-1.31-1.78-.63s-1,2.44-1,2.44S4.57,13.87,5,12.7"/></svg>