<svg id="Capa_1" data-name="Capa 1" xmlns="http://www.w3.org/2000/svg" viewBox="0 0 32.04 27.81"><defs><style>.cls-1{fill:#9aca3c;}.cls-2{fill:#f05050;}.cls-3{fill:#fbc9b7;}.cls-4{fill:#231f20;}.cls-5{fill:#0079aa;}</style></defs><title>2-9meses</title><path class="cls-1" d="M22.58,25.59s-4.27-2-4.26-4.36a49.33,49.33,0,0,1,1.23-7.5,5.51,5.51,0,0,0-3.2,1,65.69,65.69,0,0,0-6.71,5.16,13.92,13.92,0,0,1-6.05,2.5c-1.85.15-2.87.8-1.69,1.14s3.71.38,4.56,1,3,.2,3.52.25,1.66.1,1.8.58,2,1.21,2.91,1.17,4.19-.81,5.48-.75a12,12,0,0,0,2.41-.16"/><path class="cls-2" d="M18.75,22.51l1.11-.4a.88.88,0,0,1,0,.53c-.1.3.62.26.62.26s1.13-.13,1.12,0l-.12.67-.08.67-.76.27a8.51,8.51,0,0,1-1.89-2"/><path class="cls-3" d="M20.06,14.9a.52.52,0,0,0-.33.54,2,2,0,0,1,0,.65l.59-.74a1.43,1.43,0,0,1-.09-.45,4.27,4.27,0,0,1,.56-1.05,1.28,1.28,0,0,1,.74-.06c.24,0,5.24.3,5.62,1.33a5.26,5.26,0,0,1,.35,2,7.34,7.34,0,0,1-.94.63l-.37.31a1.76,1.76,0,0,1,.25.28c0,.05,0,.25-.33.31s-.72.1-.72.1A4.33,4.33,0,0,1,25,20.35a4.46,4.46,0,0,1-.47.46,5.39,5.39,0,0,1,1.59-.44,3.29,3.29,0,0,1,1.42,1.34c.23.57.45.51.45.51a4.42,4.42,0,0,0,.79-.55c.08-.14.25-.26.37-.23a4.79,4.79,0,0,1,1,.57c.15.16.31.23.33.33a.38.38,0,0,1-.25.36c-.16.05-.32.2-.3.21s-.56.28-.67.51-.51.94-.86,1-.86-.05-1-.37-.35-.49-.48-.53-1.2-.14-1.34-.36a1,1,0,0,1-.15-.33,10.66,10.66,0,0,1-2.23.49c-.68,0-1.69-.08-1.69-.08L21.37,23l-.05-.17-.53.11h-.68s0-.85-.14-.9-.63.19-.64.12a3,3,0,0,1,.1-.61c0-.06-.46-.22-.46-.22l-.65-.05.69-5.8.22-1.06L19,14.25l-.65-.31a3,3,0,0,1-.82.39c-.19,0-.7-.2-.54-.37a.76.76,0,0,1,.52-.14.25.25,0,0,1,0-.27c.07-.16.52-.15.52-.15s.36-.48.58-.38.18,0,.18,0a.64.64,0,0,1,.37-.17,1,1,0,0,1,.74.21,1,1,0,0,1,.2.64c0,.23.11.26.11.26s.26.12.31.24-.39.72-.39.72"/><path class="cls-4" d="M30.63,22.36a.41.41,0,0,1,0-.11.13.13,0,0,0,0-.1.31.31,0,0,0-.09-.07l-.12,0a.11.11,0,0,0,0-.1.2.2,0,0,0-.1-.08.46.46,0,0,0-.28,0s0,0,0,0a.54.54,0,0,0,.08.15l0,0s.05,0,.08,0,0,0,0,.06a.2.2,0,0,1-.11,0,1,1,0,0,0-.44.05,1.59,1.59,0,0,0-.2.11,0,0,0,0,0,0,0,.71.71,0,0,0,.25.08,1.06,1.06,0,0,0,.25,0l.13-.06a.31.31,0,0,0,.11-.08.75.75,0,0,1,.09-.09h0l0,0a.07.07,0,0,0,.05,0,.47.47,0,0,1,.09,0s.07,0,.07.05,0,0-.07.05a.77.77,0,0,0-.28.1.56.56,0,0,0,0-.12h0l0,0a.41.41,0,0,1-.06.25.11.11,0,0,1,0,0h0a.84.84,0,0,1-.27.21l-.41.16a.71.71,0,0,0-.32.36c-.12.22-.19.43-.29.63a.58.58,0,0,1-.21.23,1,1,0,0,1-.4,0,.72.72,0,0,1-.64-.37c0-.1,0-.21-.1-.35a1,1,0,0,0-.41-.27,3.18,3.18,0,0,0-.47-.15c-.15-.05-.32-.08-.4-.12a.28.28,0,0,1-.15-.17.4.4,0,0,1,0-.24.16.16,0,0,0-.08-.18.39.39,0,0,0-.39,0h0l-.15.09-.18.09-.41.15a5.91,5.91,0,0,1-.9.24,8.3,8.3,0,0,1-1.94.15s0,0,0,0,0,0,0,0a6.89,6.89,0,0,0,2,.05,7,7,0,0,0,1-.16,4.5,4.5,0,0,0,.48-.16h0a.69.69,0,0,0,.41.37,2.31,2.31,0,0,0,.51.12l.45.09a1.16,1.16,0,0,1,.35.14c.07.05.08.18.15.3a.73.73,0,0,0,.31.29,1.38,1.38,0,0,0,.47.17l.26,0a.68.68,0,0,0,.31,0,.91.91,0,0,0,.41-.28,2.12,2.12,0,0,0,.37-.64c0-.09.12-.21.13-.23a2,2,0,0,0,.4-.22.61.61,0,0,0,.26-.34s0,0,0,0h.06a.63.63,0,0,0,.22-.07l.09-.08a.16.16,0,0,0,.05-.11.24.24,0,0,0,0-.12"/><path class="cls-4" d="M22.24,15.56c.05.4.33.73.37.5s.07-.87-1.39-1.16c0,0,1,.26,1,.66"/><path class="cls-4" d="M23.93,17.23a2.89,2.89,0,0,1,.28.75,1.11,1.11,0,0,0-.45-1.14c-.36-.2-.7-.18-.61-.06s.62.23.78.45"/><path class="cls-4" d="M21.47,15.29c-.49.85.65.74.65.74a3.06,3.06,0,0,1-.39-.2.66.66,0,0,1-.26-.54"/><path class="cls-4" d="M23.94,17.71c-.7-.13-.73-.65-.73-.65-.38.77.73.65.73.65"/><path class="cls-4" d="M21.35,17.17c.26.11.23.15.45.17a.43.43,0,0,0,.32-.07.31.31,0,0,1-.29,0c-.17-.1-.48-.13-.48-.32s-.11-.2-.07-.28-.09,0-.06.18-.13.23.13.34"/><path class="cls-4" d="M20.64,16.87c0,.59,1,1,1,1a2,2,0,0,0-.2-.19c-.09-.07-.16-.22-.26-.27s-.22-.11-.24-.23-.32-.29-.32-.29"/><path class="cls-4" d="M20.55,17.36c-.12.26.09.39.2.3s-.14-.43-.2-.3"/><path class="cls-4" d="M17.44,14h0"/><path class="cls-4" d="M19.75,25.69h0c-.46,0-.91.07-1.36.13a4.94,4.94,0,0,0-.67.12l-.63.17a10.2,10.2,0,0,1-2.65.27,4,4,0,0,1-2.37-.67,1,1,0,0,1-.29-.38c0-.08-.06-.15-.11-.24a.58.58,0,0,0-.29-.2,5.24,5.24,0,0,0-1.4-.14,26,26,0,0,1-2.67-.19,5.27,5.27,0,0,1-1.2-.3l-.26-.13-.17-.07L5.51,24c-.22-.07-.44-.12-.67-.17-.88-.18-1.78-.29-2.63-.46a3.34,3.34,0,0,1-.52-.15l.14-.07c.35-.14.77-.26,1.19-.38.83-.22,1.69-.44,2.53-.69A15.9,15.9,0,0,0,8,21.19a13.47,13.47,0,0,0,2-1.32C11.2,18.93,12.33,18,13.47,17c.58-.48,1.16-1,1.76-1.43a19.06,19.06,0,0,1,1.88-1.33l0,0,.08,0-.07,0s-.1-.07-.09-.13.36-.09.4-.08h0v0s0,0,.05,0a.15.15,0,0,1,0,.19.22.22,0,0,1-.18.07l-.09,0,.08,0h.12l-.27.16-.77.5c-.31.21-.65.47-1,.75s-.7.6-1.05.92c-1.45,1.24-2.85,2.5-2.85,2.5l0,0s1.58-1.16,3.12-2.34c.39-.3.79-.58,1.15-.87s.65-.55.91-.8l.59-.6.2-.23,0,0h.09a.55.55,0,0,0,.3-.21.18.18,0,0,0,0-.21.4.4,0,0,0-.3-.18h-.13a.64.64,0,0,1,.22-.12c.08,0,.1,0,.18,0a.52.52,0,0,1,.13.06.52.52,0,0,1,.13.06c.09,0,.12.11.13.09s0,0,0,0l-.13.09a1.59,1.59,0,0,0-.23.22,3.61,3.61,0,0,0,.39-.05l.18,0h0l.08.08,0,0a7.35,7.35,0,0,0-.69.6,8.28,8.28,0,0,0-.61.67c-.2.26-.39.54-.59.81-.81,1.1-1.59,2.22-1.59,2.22h.05s1-1,1.9-2.09l.7-.77a7.33,7.33,0,0,0,.5-.71,6.54,6.54,0,0,0,.38-.7,1,1,0,0,0,.17.11,1.67,1.67,0,0,0-.12.19,7.83,7.83,0,0,0-.39.71c-.15.29-.31.64-.46,1s-.26.79-.39,1.2c-.55,1.62-1.06,3.26-1.06,3.26h.05s.73-1.6,1.41-3.2c.17-.4.36-.8.51-1.18a8.69,8.69,0,0,0,.33-1,6.5,6.5,0,0,0,.17-.75.82.82,0,0,0,0-.18h0l.09,0h.05a.22.22,0,0,0,0,.08.34.34,0,0,0,.1.24l-.38,1.41c-.13.5-.25,1-.35,1.49a14.11,14.11,0,0,0-.37,3,6.83,6.83,0,0,0,.06.77,2.62,2.62,0,0,0,.09.38,3.34,3.34,0,0,0,.15.38,3.3,3.3,0,0,0,.42.72,4.11,4.11,0,0,0,.27.35,3,3,0,0,0,.3.32,7.79,7.79,0,0,0,.66.62c.23.2.48.4.73.58.42.3.86.57,1.32.84-.77,0-1.53.06-2.29.11M18.34,13.15h.19l.17.09a.88.88,0,0,1,.29.32.48.48,0,0,1,.07.2,1.62,1.62,0,0,1,0,.2.33.33,0,0,1,0,.15l0,0h0a3,3,0,0,1-.39-.08l-.12,0a.31.31,0,0,0,.17-.15.24.24,0,0,0,0-.26,1,1,0,0,0-.19-.17l-.23-.1-.19,0h0A.93.93,0,0,1,18.34,13.15Zm.8-.21h0a.82.82,0,0,1,.37,0l0,0a.22.22,0,0,1,.07.07.44.44,0,0,1,.12.15.7.7,0,0,1,.12.32.3.3,0,0,1,0,.13v0s0,0,0,0l0,0-.05,0-.05,0h0l-.11,0a.57.57,0,0,0,0-.13.59.59,0,0,0-.08-.27A1,1,0,0,0,19,13l-.12,0Zm.31,1.59h0S19.4,14.53,19.45,14.53Zm.83-.45h0l0,0a1.22,1.22,0,0,0-.21.43.67.67,0,0,0,0,.4.62.62,0,0,0,.21.32l-.09.08a1.78,1.78,0,0,0-.58.91,1.89,1.89,0,0,0,0,.63c0,.12,0,.21.08.33a1.58,1.58,0,0,0,.16.35,2.24,2.24,0,0,0,.62.66,3.36,3.36,0,0,0,1,.46,8,8,0,0,0,1.22.21,3.39,3.39,0,0,0,1.37-.08l.24-.08a.35.35,0,0,0,.17.14,1.19,1.19,0,0,0,.27.07h.29l.28,0a3,3,0,0,1-.2.71,2.67,2.67,0,0,1-.2.42,2.09,2.09,0,0,1-.27.39,2.87,2.87,0,0,1-.88.58l-.55.22-.57.17h0a.19.19,0,0,0-.15.15,4.67,4.67,0,0,1,0,.52c0,.08,0,.16,0,.25a.85.85,0,0,1-.09.22.53.53,0,0,1-.16.17s-.05,0,0,0h0v0a.46.46,0,0,1,0-.23,1.25,1.25,0,0,1,.09-.25h0s0-.07-.06-.08a.12.12,0,0,0-.14,0h0a1.58,1.58,0,0,0-.13.26,1.21,1.21,0,0,0-.05.18h0a.67.67,0,0,1-.14.19.4.4,0,0,1-.24.07c-.05,0-.05,0-.05,0a.31.31,0,0,1,0-.09l.08-.18h0l.21-.48h0s0-.07-.06-.09a.12.12,0,0,0-.12,0h0l-.26.46a.59.59,0,0,1-.44.24H20.8a.16.16,0,0,1,0-.08l0-.07.05-.06c.09-.15.17-.29.24-.43h0c0-.07,0-.16-.12-.18a.23.23,0,0,0-.27.08h0a3.51,3.51,0,0,1-.27.4,1.33,1.33,0,0,1-.14.19l-.08.09s-.07.05,0,0-.09,0-.09-.05v0h0v0a.47.47,0,0,1,.06-.09l.13-.2a1.27,1.27,0,0,0,.24-.48.22.22,0,0,0,0-.11.36.36,0,0,0,0-.09l0,0a.42.42,0,0,0-.17-.1.47.47,0,0,0-.31,0,.43.43,0,0,0-.23.15l-.09.1a.54.54,0,0,1-.14.13h0a.15.15,0,0,1,0-.06,1.42,1.42,0,0,1,.59-.67,4.37,4.37,0,0,1,.48-.25l.28-.11a2.08,2.08,0,0,0,.3-.13,3.24,3.24,0,0,0,.89-.71,2.9,2.9,0,0,0,.53-.84h0a4.35,4.35,0,0,1-.67.76,3.4,3.4,0,0,1-.91.59,2.15,2.15,0,0,1-.27.1l-.29.1a5.3,5.3,0,0,0-.59.27,3.17,3.17,0,0,0-.4.29h0a.48.48,0,0,0-.19-.09,2.11,2.11,0,0,0-.26,0l-.51,0c0-.16,0-.33,0-.5a12.46,12.46,0,0,1,.06-1.49c0-.5.11-1,.18-1.5l.26-1.5.14-.75.07-.37,0-.19v-.07l.05,0a.43.43,0,0,0,.18.05.37.37,0,0,0,.23-.08.42.42,0,0,0,.15-.15.6.6,0,0,0,.11-.33l-.35.21,0,0v0a.21.21,0,0,1,0-.11,1.13,1.13,0,0,1,.1-.13l.13-.11.06,0,.05,0,.13,0A.39.39,0,0,1,20.28,14.08Zm.44.21h0l.14-.17A1.85,1.85,0,0,1,21,14a1.1,1.1,0,0,1,.14-.11l.05,0,0,0-.43.65.23,0-.1.18a.72.72,0,0,1-.15.19c-.1.1-.27.22-.47.39a1.07,1.07,0,0,1,.05-.3A2,2,0,0,1,20.72,14.29Zm2.38,0h0l-.64.41h1.07l-1.37.33h2.35c.06,0-1.11.35-1.11.35h1.23l-1.72.68H25.1l-1.94.55,2.63-.25-.77.33H26.3L24.83,17.8,26,17.33l-.89.76h-.05a2.28,2.28,0,0,0-.33.08l-.31.11a3.51,3.51,0,0,1-.54.19,3.08,3.08,0,0,1-1.1.05,9,9,0,0,1-1.1-.18,2.49,2.49,0,0,1-1.45-.9c-.07-.1-.12-.19-.18-.29s-.09-.22-.12-.31a1.69,1.69,0,0,1-.09-.57,1.37,1.37,0,0,1,.43-.89c.22-.23.44-.39.55-.51a.62.62,0,0,0,.16-.2l.12-.19Zm3.19,4h0a.36.36,0,0,1,0,.09.06.06,0,0,1,0,.06l-.11,0-.2,0-.49.08-.51.08-.21,0h-.17l-.11,0,.17-.07.26-.11.28-.07c.32-.06.69-.12,1-.21Zm-4.16,4.49ZM21.36,24h0S21.4,24,21.36,24Zm-.6-1.23Zm-1.69-1h0a.63.63,0,0,0,0,.27.4.4,0,0,0,.07.2h0l-.17,0s0,0,0,0l-.15-.29a3.35,3.35,0,0,1-.15-.35c0-.12-.06-.24-.08-.36s0-.06,0-.09l.35.15a1.38,1.38,0,0,0,.22.1l.15,0A.92.92,0,0,0,19.07,21.8Zm1.85,2.45h0l-.14.09L20.33,24c-.22-.2-.44-.4-.63-.61a5.29,5.29,0,0,1-.53-.64l-.06-.09a.3.3,0,0,0,.13,0,1.27,1.27,0,0,0,.13-.11,1.09,1.09,0,0,0,.17-.13h0a.81.81,0,0,0,.27-.1l-.09.16-.06.11a.94.94,0,0,0,0,.09s0,0,0,.06v0a.44.44,0,0,0,.29.32.75.75,0,0,0,.57,0l.08-.05h0l.09,0a.71.71,0,0,0,.25,0,.92.92,0,0,0,.34-.12h0a.14.14,0,0,0,.1.1,1.1,1.1,0,0,0-.13.25.64.64,0,0,0,0,.28c0,.11.05.22.07.33s0,.11,0,.15v0h0A2.41,2.41,0,0,0,20.92,24.25Zm1.66,1.34A14.5,14.5,0,0,1,21,24.54l-.17-.13.16-.06.38-.12h.1a.22.22,0,0,0,.07-.06.8.8,0,0,0,.05-.11,1,1,0,0,1,0-.18,2.15,2.15,0,0,0,.05-.34,1,1,0,0,0-.08-.29,1,1,0,0,0-.14-.22.53.53,0,0,0,.32-.1l.06-.06h0l.06.06H22a.54.54,0,0,0,.34,0,.74.74,0,0,0,.31-.25.72.72,0,0,0,.16-.28,1.19,1.19,0,0,0,.07-.27,3.47,3.47,0,0,0,.06-.45A6.29,6.29,0,0,0,24,21.29l.37-.21c.32-.15.63-.3.94-.41l.29-.09.28,0s.13,0,.12,0h.17l.11,0,.13.06a1.69,1.69,0,0,1,.77.77c.08.15.14.31.21.46l.22.45a.26.26,0,0,0,.3.11h0a2.77,2.77,0,0,0,.41-.12,1.52,1.52,0,0,0,.36-.18l.16-.13.06-.08,0-.06a2.1,2.1,0,0,0,.14-.24s0,0,0,0h.11a.07.07,0,0,1,0,.05.26.26,0,0,1-.06.21A.86.86,0,0,1,29,22s0,0,0,0h0a.76.76,0,0,0,.56-.39.21.21,0,0,0,0,.06l0,0,.1,0s.07,0,.06.06,0,0-.06,0a.71.71,0,0,0-.34.14.76.76,0,0,0-.13.15l0,0a.87.87,0,0,0,.26,0,.4.4,0,0,0,.21-.07.39.39,0,0,0,.1-.08A.16.16,0,0,0,30,22a.24.24,0,0,0,0-.12.34.34,0,0,1,0-.1.14.14,0,0,0,0-.11.18.18,0,0,0-.09-.06.39.39,0,0,0-.23,0,.21.21,0,0,0-.05-.12.29.29,0,0,0-.12-.09l-.14,0a.7.7,0,0,0-.33,0,.47.47,0,0,0-.25.16c-.09.09-.14.17-.2.24l-.05,0,0,0-.09.07a2.8,2.8,0,0,1-.25.14L28,22a4.1,4.1,0,0,0-.56-.7c-.27-.28-.5-.55-.81-.83l-.14-.1-.2-.09-.17-.05h-.24a1.76,1.76,0,0,0-.4.06,2.06,2.06,0,0,0-.35.12l0,0a2,2,0,0,0,.15-.29,3.53,3.53,0,0,0,.15-.46,3.17,3.17,0,0,0,.06-.75l.17,0a3.16,3.16,0,0,0,.55-.13,1.15,1.15,0,0,0,.25-.12.42.42,0,0,0,.17-.18.2.2,0,0,0-.07-.19.4.4,0,0,0-.15-.07l-.06,0,.19-.05a5.22,5.22,0,0,0,1.25-.48A2.37,2.37,0,0,0,29,16.88a3.17,3.17,0,0,0-.27-3.7A5.5,5.5,0,0,0,24.81,12c-1.31,0-3.42,1.66-3.42,1.66l0,.05a.53.53,0,0,0-.37,0,1.18,1.18,0,0,0-.3.13l-.23.17-.08.09a.36.36,0,0,0-.22-.19l0,0a.45.45,0,0,0,.13-.23.63.63,0,0,0-.1-.48,1.37,1.37,0,0,0-.2-.22l-.12-.09-.2-.08a1,1,0,0,0-.37,0,1,1,0,0,0-.28.07,1.36,1.36,0,0,0-.35.18l-.13,0h-.2a.49.49,0,0,0-.17.06.47.47,0,0,0-.25.29s0,0,0,0a.9.9,0,0,0-.28,0,.5.5,0,0,0-.21.12.32.32,0,0,0-.07.22.08.08,0,0,1,0,0,.59.59,0,0,0-.33.14.23.23,0,0,0-.09.3.25.25,0,0,0,.1.08,21.88,21.88,0,0,0-2,1.25c-.64.45-1.23.92-1.84,1.38-1.21.93-2.36,1.89-3.6,2.8A13.86,13.86,0,0,1,7.7,20.9a16,16,0,0,1-2.36.84c-.83.25-1.68.45-2.53.69a12.49,12.49,0,0,0-1.26.43l-.14.06a.9.9,0,0,0-.2.14.24.24,0,0,0-.07.12.25.25,0,0,0,0,.15.47.47,0,0,0,.1.1l.1.06a3.39,3.39,0,0,0,.7.2c.89.18,1.79.28,2.65.44l.61.14.14.05.12.05c.07,0,.19.1.3.14a6.09,6.09,0,0,0,1.34.32A25.43,25.43,0,0,0,10,25a5.21,5.21,0,0,1,1.28.08c.17.05.22.18.29.33a1.12,1.12,0,0,0,.36.43,3.09,3.09,0,0,0,1.16.53,6.18,6.18,0,0,0,1.36.17,12.16,12.16,0,0,0,2.71-.27,10,10,0,0,1,2.63-.38c.9,0,1.81-.05,2.71-.05a.28.28,0,0,0,.13,0,.1.1,0,0,0,0-.17Z"/><path class="cls-4" d="M16.25,22.58l-.05,0a.2.2,0,0,1,0,.08.4.4,0,0,1-.06.21.83.83,0,0,1-.26.28,2.1,2.1,0,0,1-.52.26c-.21.08-.46.14-.72.21l-.42.08-.44.08c-.31,0-.62.09-1,.12l-1,.1-.51,0H10.8a7.5,7.5,0,0,1-1-.12l-.89-.17-.79-.14-1.66-.31,0,0a3.2,3.2,0,0,0,.39.19A8,8,0,0,0,8,23.9a6,6,0,0,0,.82.15,7.19,7.19,0,0,0,.95.07l1,0c.34,0,.68.05,1,.06a9.24,9.24,0,0,0,1,0c.34,0,.68,0,1-.08a6.55,6.55,0,0,0,.94-.17,3.73,3.73,0,0,0,.78-.29c.47-.22.72-.54.74-.77a.62.62,0,0,0,0-.26l-.06-.08"/><path class="cls-5" d="M19.5,21.43l-1.1-.23s.09,1.18.35,1.26.53-.23.53-.23Z"/><polygon class="cls-4" points="2.96 3.63 2.09 3.63 2.09 4.52 3.08 4.52 3.08 4.76 1.7 4.76 1.7 2.39 3.01 2.39 3.01 2.63 2.09 2.63 2.09 3.41 2.96 3.41 2.96 3.63"/><path class="cls-4" d="M3.41,3.5c0-.2,0-.3,0-.44h.34l0,.2h0A.74.74,0,0,1,4.33,3a.54.54,0,0,1,.6.59V4.76h-.4V3.66c0-.2,0-.4-.34-.4a.37.37,0,0,0-.37.28.61.61,0,0,0,0,.15V4.76H3.41Z"/><path class="cls-4" d="M6.64,4.72a1.37,1.37,0,0,1-.41.06.81.81,0,0,1-.91-.86A.89.89,0,0,1,6.3,3a1.1,1.1,0,0,1,.35.06l-.08.22a.77.77,0,0,0-.28-.05.59.59,0,0,0-.58.66.56.56,0,0,0,.59.63.82.82,0,0,0,.28,0Z"/><path class="cls-4" d="M8.43,4.29c0,.19,0,.34,0,.47H8.1l0-.18h0a.77.77,0,0,1-.53.21c-.44,0-.61-.24-.61-.66V3.06h.4v1c0,.27.06.47.33.47A.35.35,0,0,0,8,4.18V3.06h.4Z"/><path class="cls-4" d="M10,3.73h0c0-.34-.18-.49-.37-.49s-.38.26-.4.49Zm-.78.2c0,.52.31.64.59.64a1.08,1.08,0,0,0,.41-.07l.06.2a1.66,1.66,0,0,1-.54.08.8.8,0,0,1-.9-.85A.82.82,0,0,1,9.66,3a.68.68,0,0,1,.7.75v.15Z"/><path class="cls-4" d="M10.73,3.5c0-.2,0-.3,0-.44h.35l0,.2h0A.71.71,0,0,1,11.66,3a.54.54,0,0,1,.59.59V4.76h-.39V3.66c0-.2-.06-.4-.34-.4a.37.37,0,0,0-.38.28.66.66,0,0,0,0,.15V4.76h-.4Z"/><path class="cls-4" d="M13.21,2.61v.45h.47v.21h-.47v1c0,.22.11.28.26.28h.16v.21a1.07,1.07,0,0,1-.29,0,.69.69,0,0,1-.39-.1.49.49,0,0,1-.15-.43v-1h-.3V3.06h.3V2.69Z"/><path class="cls-4" d="M14,3.5c0-.15,0-.31,0-.44h.36l0,.27h0a.58.58,0,0,1,.52-.3h.08v.28h-.08a.47.47,0,0,0-.48.35.81.81,0,0,0,0,.16v.94H14Z"/><path class="cls-4" d="M16.09,3.88h0c-.21,0-.68,0-.68.39a.29.29,0,0,0,.3.31.37.37,0,0,0,.37-.26.34.34,0,0,0,0-.1Zm.05.88,0-.18h0a.62.62,0,0,1-.49.21A.53.53,0,0,1,15,4.3c0-.42.5-.61,1.06-.62V3.63c0-.23-.09-.38-.4-.38a1.07,1.07,0,0,0-.41.08l-.08-.19A1.46,1.46,0,0,1,15.76,3c.5,0,.72.23.72.61v.73a2.42,2.42,0,0,0,0,.39Z"/><path class="cls-4" d="M18,3.91h0c0,.28.08.66.43.66s.41-.4.41-.66-.07-.66-.42-.66-.42.4-.42.66m1.24,0a.8.8,0,0,1-.83.88.78.78,0,0,1-.8-.88A.8.8,0,0,1,18.45,3,.78.78,0,0,1,19.25,3.91Z"/><path class="cls-4" d="M20,4.16h0a.28.28,0,0,0,0,.1.38.38,0,0,0,.37.3c.32,0,.43-.29.43-.66s-.12-.64-.43-.64a.4.4,0,0,0-.37.3.53.53,0,0,0,0,.12Zm-.42.6c0-.1,0-.29,0-.41v-2H20v.93h0A.6.6,0,0,1,20.56,3c.38,0,.67.31.67.86s-.36.9-.75.9A.54.54,0,0,1,20,4.54h0l0,.22Z"/><path class="cls-4" d="M21.21,5.25h0a.65.65,0,0,0,.33-.14c.09-.09.12-.22.12-.54V3.06h.39V4.65c0,.36-.07.52-.25.65a1.12,1.12,0,0,1-.54.16Zm.88-2.63c0,.11-.09.18-.24.18s-.23-.07-.23-.18.1-.17.24-.17S22.09,2.52,22.09,2.62Z"/><path class="cls-4" d="M23.59,3.73h0c0-.34-.18-.49-.37-.49s-.38.26-.4.49Zm-.78.2c0,.52.31.64.59.64a1.08,1.08,0,0,0,.41-.07l.06.2a1.66,1.66,0,0,1-.54.08.8.8,0,0,1-.9-.85.82.82,0,0,1,.84-.9.68.68,0,0,1,.7.75v.15Z"/><path class="cls-4" d="M24.83,2.61v.45h.47v.21h-.47v1c0,.22.11.28.26.28h.15l0,.21a1.07,1.07,0,0,1-.29,0,.69.69,0,0,1-.39-.1.49.49,0,0,1-.15-.43v-1h-.3V3.06h.3V2.69Z"/><path class="cls-4" d="M25.84,3.91h0c0,.28.07.66.43.66s.41-.4.41-.66-.07-.66-.42-.66-.42.4-.42.66m1.24,0a.8.8,0,0,1-.83.88.78.78,0,0,1-.8-.88A.8.8,0,0,1,26.28,3,.78.78,0,0,1,27.08,3.91Z"/><path class="cls-4" d="M27.4,4.48a1,1,0,0,0,.4.09c.22,0,.36-.1.36-.25S28.1,4.1,27.84,4s-.49-.29-.49-.49S27.64,3,28,3a1.16,1.16,0,0,1,.44.09l-.1.2A.84.84,0,0,0,28,3.25c-.22,0-.32.1-.32.21s.06.18.3.3.52.28.52.51-.34.51-.75.51a1.15,1.15,0,0,1-.49-.1Z"/><path class="cls-4" d="M2,7.07H2c0,.28.08.66.43.66s.41-.4.41-.66-.07-.66-.42-.66S2,6.81,2,7.07m1.24,0a.79.79,0,0,1-.83.87.77.77,0,0,1-.8-.87.8.8,0,0,1,.83-.88A.78.78,0,0,1,3.19,7.07Z"/><path class="cls-4" d="M4.78,7.87a1,1,0,0,1-.4.07.81.81,0,0,1-.91-.86.89.89,0,0,1,1-.89,1.37,1.37,0,0,1,.34,0l-.07.23a.82.82,0,0,0-.28,0,.59.59,0,0,0-.58.66.56.56,0,0,0,.59.63,1.26,1.26,0,0,0,.28,0Z"/><path class="cls-4" d="M6.57,7.45c0,.19,0,.34,0,.47H6.25l0-.18h0a.78.78,0,0,1-.54.2c-.43,0-.6-.23-.6-.65V6.22h.39v1c0,.27.07.46.34.46a.34.34,0,0,0,.35-.22.77.77,0,0,0,0-.15V6.22h.39Z"/><rect class="cls-4" x="7.08" y="5.49" width="0.39" height="2.43"/><path class="cls-4" d="M8.48,5.77v.45H9v.2H8.48v1c0,.22.12.28.26.28H8.9l0,.21a1.07,1.07,0,0,1-.29,0,.58.58,0,0,1-.39-.11c-.1-.07-.15-.19-.15-.42v-1h-.3v-.2h.3V5.84Z"/><path class="cls-4" d="M9.5,7.07h0c0,.28.07.66.43.66s.41-.4.41-.66-.07-.66-.42-.66-.42.4-.42.66m1.24,0a.79.79,0,0,1-.83.87.77.77,0,0,1-.8-.87.8.8,0,0,1,.83-.88A.78.78,0,0,1,10.74,7.07Z"/><path class="cls-4" d="M11.06,7.63a1,1,0,0,0,.4.09c.22,0,.36-.09.36-.24s-.07-.22-.32-.34S11,6.86,11,6.66s.29-.47.68-.47a1,1,0,0,1,.44.09l-.11.2a.79.79,0,0,0-.32-.07c-.22,0-.33.1-.33.21s.07.18.31.29.51.29.51.52-.33.51-.74.51a1.15,1.15,0,0,1-.49-.1Z"/><path class="cls-4" d="M28,12.67a1,1,0,0,1,1.31-.18c.81.48.67,1.89.67,1.89A1.4,1.4,0,0,0,28.55,14c-.77.29-1-.68-.57-1.36"/></svg>