<svg id="Capa_1" data-name="Capa 1" xmlns="http://www.w3.org/2000/svg" viewBox="0 0 33.21 20.49"><defs><style>.cls-1{fill:#ffcc64;}.cls-2{fill:#fbc8ba;}.cls-3{fill:#b3d335;}.cls-4{fill:#0070a2;}.cls-5{fill:#f05050;}.cls-6{fill:#231f20;}</style></defs><title>1-30meses</title><path class="cls-1" d="M1.91,11s4.54,4.84,14,6.49S30,15.92,30,15.92Z"/><path class="cls-2" d="M11.27,9.87s-.76-.63-.39-.89a6.54,6.54,0,0,0,.61-.5,6.84,6.84,0,0,1,1.17-.73,6.3,6.3,0,0,1,1.07.33s.2-.22.5.13a2,2,0,0,1,.4.77l2.21,1.28.05.66.92-.78.69-.42s-2.07-.58-2-1.41S17,6.42,15.44,5.36s5-3,5.15-3,3,1.95,3.15,1.95,2,1.34,1.91,1.82A5.91,5.91,0,0,1,24,8.72s2.86,2.1,3.36,4.1a5.75,5.75,0,0,1,.24,2.83l-3.29-.44s-2.34,1.33-3.91.89a13.84,13.84,0,0,1-3.82-2.34s-2.78-.57-2.85-1.37-2.42-2.52-2.42-2.52"/><polygon class="cls-3" points="9.18 11.34 9.18 14.03 11.84 14.84 11.84 11.87 9.18 11.34"/><polygon class="cls-3" points="16.15 13.53 16.15 15.62 18.25 15.22 16.15 13.53"/><polygon class="cls-3" points="13.45 10.14 16.36 9.4 13.65 8.7 10.97 9.45 13.45 10.14"/><path class="cls-4" d="M13.67,10v.69l.6.67s-.21-1.44.14-1.46.53.11.6.3.13,1.16.74,1.16-.24-.73-.07-1.1a.84.84,0,0,1,.62-.42V9.32Z"/><polygon class="cls-4" points="13.54 12.33 11.84 11.87 11.84 14.72 13.54 14.24 13.54 12.33"/><path class="cls-5" d="M9.58,11.34S11,10.93,11,10.93L11,9.55l2.72.49.2,2.08h-.49Z"/><path class="cls-5" d="M13.69,12.39l0,2.56,2.63.67-.13-2s-2.32-.26-2.48-1.21"/><path class="cls-6" d="M19.81,6.43c.53-.36,2.77.31,2.77.31a4.23,4.23,0,0,0-2.14-.56c-1,.09-.82.39-.82.39Z"/><path class="cls-6" d="M20.48,6.7c-.44,0-.35.18-.35.18l.21,0a.5.5,0,0,1,0,.18c0,.11.36.21.64.09s.09-.26.09-.26h.77a12,12,0,0,0-1.37-.16"/><path class="cls-6" d="M17.7,7c-.35,0-.86,0-.72.21a.87.87,0,0,1,.33-.14c.12,0-.09.06,0,.18a.41.41,0,0,0,.5.12c.23-.1-.18-.27.23-.24,0,0,0-.09-.36-.13"/><path class="cls-6" d="M20.58,8.87a1.16,1.16,0,0,0,.77-.56s-.53.17-1.21.31a5.79,5.79,0,0,1-1.54,0c.25.06.24.21.5.36a2.49,2.49,0,0,0,1.48-.15"/><path class="cls-6" d="M23.31,7.72l0,0,0,0"/><path class="cls-6" d="M24.36,7.11a.22.22,0,0,1,0,.31.09.09,0,0,0,0,.14.27.27,0,0,0,.14.07.45.45,0,0,0,.28,0,.16.16,0,0,0,.13-.16.54.54,0,0,0-.06-.11l-.1-.06h0v.08a.22.22,0,0,1,0,.08s0,0-.05,0a.24.24,0,0,1-.12,0h-.05s0,0,0,0,0-.24,0-.37,0-.13,0-.17,0,0,0,0l.1-.06a.67.67,0,0,0,.16-.12.91.91,0,0,1,.1-.1s0,0,0,0,.05,0,.07.06l.06.07h0a.31.31,0,0,0,0-.09.18.18,0,0,0,0-.11.18.18,0,0,0-.13-.06.26.26,0,0,0-.16,0,.7.7,0,0,0-.18.11l-.14.11-.08.06s-.1.1-.08.14.07.12.09.18"/><path class="cls-6" d="M24,15.08h0l-.57.3-.59.26-.62.22a5.56,5.56,0,0,1-.63.14,1.67,1.67,0,0,1-.33,0h-.32c-.22,0-.43-.08-.64-.13s-.41-.14-.6-.22l-.57-.28a5.64,5.64,0,0,1-.53-.31c-.17-.11-.34-.22-.5-.34a10.23,10.23,0,0,1-.86-.72.52.52,0,0,0-.22-.28,1.75,1.75,0,0,0-.39-.19,3.11,3.11,0,0,0-.41-.11l-.36-.07a3.88,3.88,0,0,1-1.2-.51l-.24-.16-.15-.45c-.08-.24-.15-.47-.22-.71L14,11.18a.09.09,0,0,0,0,0,.47.47,0,0,1,.06.09c.14.22.27.44.4.67l.24-.05a4.49,4.49,0,0,1-.3-1.28.85.85,0,0,1,0-.32.59.59,0,0,1,.06-.14.1.1,0,0,0,0,0l.1,0c.07,0,.18.05.23.14a1.69,1.69,0,0,1,.13.31,3,3,0,0,0,.23.65.64.64,0,0,0,.31.3.33.33,0,0,0,.13,0,.34.34,0,0,0,.15,0,.25.25,0,0,0,.18-.05.17.17,0,0,0,.08-.11,3.5,3.5,0,0,0,0-.67,1.06,1.06,0,0,1,0-.31.58.58,0,0,1,.12-.25h0l.13.07a2,2,0,0,1,.26.25,4.39,4.39,0,0,1,.37.51.53.53,0,0,0,.07.24l.05,0a3.88,3.88,0,0,1,.22.46c.07.18.05.41.14.65a.58.58,0,0,0,.12.21,1,1,0,0,0,.28.15l.45.13.9.25,1.79.49H21a.89.89,0,0,0,.39-.12l.25-.16a3.46,3.46,0,0,0,.4-.35c.23-.25.42-.51.62-.75a4.3,4.3,0,0,1,.74-.65,4.14,4.14,0,0,1,1-.48v0a3.64,3.64,0,0,0-1.09.42,4.1,4.1,0,0,0-.86.64c-.24.25-.43.49-.67.71a3,3,0,0,1-.39.31l-.21.12-.15,0-1.7-.49-.88-.26L18,12.3l-.09-.05a.44.44,0,0,1-.06-.1c-.07-.19-.06-.4-.16-.65a3.28,3.28,0,0,0-.34-.64l0,0,.08-.09c.07-.07.14-.15.22-.22a3.39,3.39,0,0,1,.5-.37l.19-.12a2,2,0,0,0,.35.1,5.27,5.27,0,0,0,.81.12h0a.74.74,0,0,1,.18.08.66.66,0,0,1,.27.22.24.24,0,0,1-.11.29.88.88,0,0,1-.17.12l.23-.07c.13,0,.31-.17.32-.35a.51.51,0,0,0-.09-.27,3.44,3.44,0,0,0,.46,0,1,1,0,0,0,.24,0l.22,0a2.42,2.42,0,0,0,.45-.1,5.29,5.29,0,0,0,.85-.28A4.39,4.39,0,0,0,23,9.4,6.16,6.16,0,0,0,23.69,9l.21-.19.21.23c.18.18.43.44.75.73.16.15.33.31.52.47s.41.32.61.5a2.44,2.44,0,0,1,.52.6,2.49,2.49,0,0,1,.31.69c.08.24.13.48.2.72a6,6,0,0,1,.16.68c0,.23.07.44.11.65s.06.4.09.58c0,.34.07.64.08.85l-3-.47a14.57,14.57,0,0,0,1.6-1.26l0,0A17.91,17.91,0,0,1,24.18,15h0l-.18.12m-7.48.42h0l-.29-.07a1.34,1.34,0,0,0,.15-.27,2,2,0,0,0,.11-.62,1.67,1.67,0,0,0-.12-.62s0,0,0,0h0a1,1,0,0,1,.25.11l.06.06s0,0,0,0l.05.14a10.38,10.38,0,0,0,.95.78l.38.25Zm-2.63-.63h0c0-.41,0-.82,0-1.23s0-.58,0-.86l.45.33a4.38,4.38,0,0,0,1.38.62l.43.09a1,1,0,0,0,0,.1,1.9,1.9,0,0,0-.12.62,2,2,0,0,0,.12.62,1.2,1.2,0,0,0,.13.26l-1.06-.26ZM10,11.35h.12a3.59,3.59,0,0,0,.72-.23L11,11c0,.17,0,.34,0,.51l-.47-.07Zm1-1.9h0a.69.69,0,0,1,0-.13.56.56,0,0,1,.1-.26.43.43,0,0,1,.09-.1.57.57,0,0,1,.13-.08l0,0h0l.06,0h0a.27.27,0,0,1,.13,0,.61.61,0,0,1,.3.11,1.17,1.17,0,0,1,.2.12,9,9,0,0,0-1,.35,13.86,13.86,0,0,0,1.46-.18c.44-.07.88-.16,1.31-.26a17.58,17.58,0,0,0,2.21.39l-1.27.27-1.3.31c-.77-.17-1.56-.32-2.36-.44Zm.81-1h0a.45.45,0,0,1,.23,0l.15,0,.11,0h0s0,0,0,0h0l0,0,.38.12.32.12.06,0L12.44,9l-.2.06a.56.56,0,0,0-.08-.21.7.7,0,0,0-.4-.29l-.14,0A.51.51,0,0,1,11.78,8.4Zm.7-.37h0a1.23,1.23,0,0,1,.62.15l.17.07.16.09.28.16.13.09h0l-.46.11a.41.41,0,0,0-.07-.11A.84.84,0,0,0,13,8.36a1.59,1.59,0,0,0-.42-.19l-.05,0h-.08l-.11,0-.19,0C12.22,8.07,12.34,8,12.48,8Zm1.36.08h0a.38.38,0,0,1,.14.11s0,0,.06.07l0,0,0,.06.26.31L14,8.61a.43.43,0,0,0,0-.21.8.8,0,0,0-.2-.29l0,0ZM14.19,11h0l-.11-.19a.73.73,0,0,0-.18-.19l-.05,0h-.09a.19.19,0,0,0-.18.07.31.31,0,0,0,0,.09.45.45,0,0,0,0,.11,2.31,2.31,0,0,0,0,.37c0,.12,0,.25.07.37s0,.13,0,.19h0l-.09,0a.44.44,0,0,0-.17-.06h-.15l-.12,0-.06.06a.17.17,0,0,0,0,.12.19.19,0,0,0,0,.09s0,0,0,0l-1-.21V11.7l-.22,0-.68-.12c0-.3,0-.6,0-.9s0-.59.07-.89c.72.19,1.45.36,2.19.5l.08,0,.07,0,.63-.18a.47.47,0,0,0-.06.15,1,1,0,0,0,0,.34C14.16,10.7,14.17,10.84,14.19,11Zm1.67-1.05h0a.27.27,0,0,0-.09.1.63.63,0,0,0,0,.09,1,1,0,0,0-.05.18,2,2,0,0,0,0,.35,4.08,4.08,0,0,1,.1.63c0,.05,0,0,0,.05h-.08l-.09,0a.57.57,0,0,1-.23-.23,2.65,2.65,0,0,1-.24-.63,1.82,1.82,0,0,0-.15-.32.44.44,0,0,0-.15-.16l0,0L15,9.87l1.2-.37c0,.12,0,.24,0,.36A.41.41,0,0,0,15.86,9.93Zm1.51-.74h0a2,2,0,0,1-.5-.46l-.08-.13s0-.06,0-.12V8.33a.86.86,0,0,0,0-.16,4.08,4.08,0,0,0-.15-1.25c0-.09-.05-.19-.08-.28a1.62,1.62,0,0,1,1.1,0c.41.24.84.51.63.94s-.32.53,0,.63.4.18.74,0c0,0-.68,0-.67-.31s.32-.54,0-1a1.48,1.48,0,0,0-1.83-.34c0-.08-.07-.16-.1-.25l-.1-.17h0l0,0A1.64,1.64,0,0,0,16,5.75l-.26-.3,1.53.68-.89-.92,1.73.85-.59-.38L19,6l-.7-1,1.45.85-.48-.55.93.53L19.67,5l1.66.92L20,4.58l2.2,1-.64-.79a3.44,3.44,0,0,1,1.67,1.48,1.85,1.85,0,0,1,0,1.49L23.68,7l.08.46a.85.85,0,0,0,.33-.69s.49-.59.94-.47.27.58.07,1a3.42,3.42,0,0,1-.52.56v0a5.18,5.18,0,0,1-1,1,4.29,4.29,0,0,1-.66.4,4.5,4.5,0,0,1-.74.33,5.57,5.57,0,0,1-.8.22l-.43.07-.22,0h-.2a5,5,0,0,1-.86,0,4.63,4.63,0,0,1-.83-.13A4.51,4.51,0,0,1,18,9.55,3.2,3.2,0,0,1,17.37,9.19ZM27.68,15.5c0-.1.06-.23.1-.38a3.49,3.49,0,0,0,.07-.51,4,4,0,0,0,0-.6,3.48,3.48,0,0,0-.12-.68,7.4,7.4,0,0,0-.25-.7,3.69,3.69,0,0,0-.38-.7c-.29-.45-.58-.91-.86-1.33a4.85,4.85,0,0,0-.48-.6c-.18-.17-.37-.32-.55-.47A9.28,9.28,0,0,0,24,8.72a5.21,5.21,0,0,0,.47-.47l.05.52.18-.52.15.42.31-.87.16.45s.35-1.17.47-1.63a2.89,2.89,0,0,0-.07-2.79c-.81-1.5-3.47-2.78-5.8-2.57s-3.18.65-4,1.34-1.34,1.78-.63,2.59a4.65,4.65,0,0,0,.94.89,2.28,2.28,0,0,1,.3.85,3.91,3.91,0,0,1,0,1.23l0,.15,0,.07a.12.12,0,0,0,0,0v0a.38.38,0,0,0,0,.18,1.3,1.3,0,0,0,.08.17,1.87,1.87,0,0,0,.5.56,3.64,3.64,0,0,0,.72.44l.28.11H18a1.38,1.38,0,0,0-.42.11,1.48,1.48,0,0,0-.38.23l-.15.18-.18-.2a2.26,2.26,0,0,0-.32-.27.9.9,0,0,0-.22-.11l.06-.48v0l.12,0-.12-.05v0l-.09,0a14,14,0,0,0-1.58-.53s0,0,0-.08a.64.64,0,0,0-.14-.5l-.05-.05-.07-.07A.56.56,0,0,0,14.29,8a.74.74,0,0,0-.43-.08.49.49,0,0,0-.24.1l0,0-.21-.11a1.53,1.53,0,0,0-.54-.13,1,1,0,0,0-.49.1.75.75,0,0,0-.22.17s0,.06,0,.07h-.06a.63.63,0,0,0-.49.17.27.27,0,0,0-.07.23h-.13l-.11,0-.06,0-.09,0-.08,0a1,1,0,0,0-.26.18.64.64,0,0,0-.13.22.53.53,0,0,0,0,.38.79.79,0,0,0,.27.29v0c0,.34.06.69.08,1v.29l-.3,0A3.75,3.75,0,0,0,10,11a3.25,3.25,0,0,0-.72.22l-.05,0-.26,0,0,.17H9c0,.23,0,.45.07.68L1.63,11l-.12.36,7.54,1.1c0,.1,0,.19,0,.28A6.66,6.66,0,0,1,9,14.06v.07l.11,0c.43.15.86.3,1.31.41s.89.24,1.35.34l.09,0,.07,0c.48-.19.94-.4,1.39-.62l0,0c-.49.12-1,.25-1.45.39l-1.24-.37c-.42-.12-.85-.21-1.28-.3a6.65,6.65,0,0,1-.06-1.26c0-.38.07-.76.1-1.15l1.08.22c.37.08.75.14,1.12.21,0,.16,0,.33,0,.5l0,.65q.06.64.18,1.29h.06A11.43,11.43,0,0,0,12,13.15l.05-.65c0-.16,0-.32,0-.48l1.26.35c0,.42,0,.85,0,1.27s0,.92,0,1.37v.15l.2,0,1.46.28,1.47.26h.11l1.59-.45.07.05a5.45,5.45,0,0,0,.58.33,5.07,5.07,0,0,0,.62.29,7,7,0,0,0,.69.23,4.52,4.52,0,0,0,.75.13H21a.38.38,0,0,0,.11,0h.18a2.72,2.72,0,0,0,.39,0,3.82,3.82,0,0,0,.74-.18,5.18,5.18,0,0,0,.65-.26,6.45,6.45,0,0,0,.59-.29l.45-.27v0l9,1.41.12-.35Z"/><path class="cls-6" d="M26.08,5.39s.09,4-1.41,4.75a6,6,0,0,0-2.27,2l-.55.69s-.31.35-.49.14a4,4,0,0,1,.75-2.51c.48-.45,2-2,2.32-2.25a3.83,3.83,0,0,0,1.2-1.7,3.46,3.46,0,0,1,.45-1.16"/><path class="cls-6" d="M18.49,10a2.93,2.93,0,0,1-.14,1.3,9.59,9.59,0,0,1-.75,1l.75.27a3.58,3.58,0,0,0,1.09-1.3,4.83,4.83,0,0,0,.17-1.17Z"/></svg>