<svg id="Capa_1" data-name="Capa 1" xmlns="http://www.w3.org/2000/svg" viewBox="0 0 26.04 22.15"><defs><style>.cls-1{fill:#ffcc64;}.cls-2{fill:#b3d335;}.cls-3{fill:#f5a4c7;}.cls-4{fill:#fbc8ba;}.cls-5{fill:#231f20;}</style></defs><title>2-30meses</title><path class="cls-1" d="M11.93,15.24C8.79,15.18-.67,15.59,2,17.7s16.7,3.46,19.28,3.46S27.7,18,23.78,17Z"/><path class="cls-2" d="M6.75,18l-.5.75,7.27-.43s.25.55,1.13.41l.89-.13,5.76,1.73,3-3.07s-1.11-.44-2.15-.75S9.12,15.93,6.75,18"/><path class="cls-3" d="M14.37,18s-4-.64-4.72-.39a32.77,32.77,0,0,1-3.52.69l.78-.53-.78-.09s3.43-3.47,4.12-3.42,3.69-.48,4.37-.17,1.79.68,1.79.68,5.42.35,6.24.55a14,14,0,0,1,1.43.41l-.41.66.23.25L21,20a29,29,0,0,0-3.33-1.32Z"/><path class="cls-4" d="M15.65,14.51s.23-1.41.5-1.62a.67.67,0,0,0,.24-.57,7.59,7.59,0,0,1-1-.32c-.2-.12-.69-.46-.69-.46a1.75,1.75,0,0,0-.58.56c-.24.37-.81.72-1,.47a2.09,2.09,0,0,1-.23-.63s0,.12-.49,0-.69.05-.85-.26a2.23,2.23,0,0,1,.53-1.7,1.92,1.92,0,0,1,1.69-.41,5,5,0,0,0,2.44.39A1.34,1.34,0,0,1,16,9.29c0-.35-.24-1.27-1.73-2.24S14.73,5.54,16,4.7s3.85-.22,4.13-.16,3.13,1.8,2.62,2.72-1.07,2.13-1.07,2.13-.38.59.64,1S24,11.18,24,12.08a3.1,3.1,0,0,1-1.17,2.31,9.14,9.14,0,0,1-1.39.76l-1.77.73a2,2,0,0,1-1.23.89c-.92.28-1.89.05-1.37,0a1.65,1.65,0,0,0,1.12-.46c.15-.23,0-.18,0-.18a3.32,3.32,0,0,1-1.33.41c-.55,0-.47-.13-.66-.22a.59.59,0,0,1-.34-.61.48.48,0,0,1,.3-.45c.06,0,.59-.36.4-.48s-.73.14-1-.24"/><path class="cls-5" d="M18.52,7.12c-.8.21-.55.43-.55.43l.11-.14c.33-.36,2.35-.12,2.35-.12a3.9,3.9,0,0,0-1.91-.17"/><path class="cls-5" d="M21.31,8V8"/><path class="cls-5" d="M22,7.34c.09.08.13.19.07.26s-.06.07,0,.12a.27.27,0,0,0,.14,0,.41.41,0,0,0,.23-.06.11.11,0,0,0,.06-.16l-.08-.08-.1,0h0l0,.07s0,0,0,.06,0,0,0,0h-.13s0,0,0,0-.05-.2-.07-.31,0-.11,0-.14,0,0,0,0l.07-.06a.53.53,0,0,0,.1-.12l0-.1s0,0,0,0l.07,0,.08,0h0a.13.13,0,0,0,0-.08s0,0-.06-.09a.21.21,0,0,0-.13,0,.22.22,0,0,0-.13,0,.44.44,0,0,0-.12.11L21.92,7l0,.06s-.06.1,0,.14a1.31,1.31,0,0,0,.13.12"/><path class="cls-5" d="M18.94,9.29c-.57,0-.69.16-.69.16-.17.21.76,0,1,0s.29-.08-.29-.12"/><path class="cls-5" d="M16.38,8.1c-.44.06-.34.31-.34.31h.17s0,.11.34.1.14-.2.14-.2l.37.1a.73.73,0,0,0-.68-.31"/><path class="cls-5" d="M19,7.55c-.7,0-.75.38-.75.38l.35-.11c0,.22.55.47.79.27a.2.2,0,0,0,0-.35l.64.1a1.46,1.46,0,0,0-1-.29"/><path class="cls-5" d="M22.54,18.71h0l-1.07,1.05q.62-.69,1.2-1.38T23.78,17l.37.22c-.55.49-1.09,1-1.61,1.49m-1.45,1.43Zm-.71-.75h0a8.19,8.19,0,0,0-.86-.36,14.19,14.19,0,0,0-1.82-.56c-.63-.15-1.26-.26-1.9-.37L15,18c.42,0,.85,0,1.26,0s.58,0,.86.06.56.07.84.12l.4.08a2.59,2.59,0,0,1,.4.09l.39.11.37.13a2.83,2.83,0,0,1,.35.15,1.71,1.71,0,0,1,.33.17,1.53,1.53,0,0,1,.3.19l.27.2,0,0,.06,0a.33.33,0,0,0,.36-.06c.5-.56,1-1.13,1.48-1.7.33-.38.64-.76,1-1.14l.27.2c-.55.53-1.09,1.06-1.61,1.6s-.93,1-1.38,1.46l-.12-.08ZM9.93,17.58h0c-.66,0-1.31.09-2,.18-.33,0-.65.09-1,.16l-.49.1.39-.27,1.3-.22,1.07-.11c.35,0,.71-.06,1.07-.07s.72,0,1.07,0c.18,0,.36,0,.53,0a3.07,3.07,0,0,1,.53.05,4.63,4.63,0,0,1,.52.07c.16,0,.33.06.49.11s.32.09.47.15l.2.09-.28,0A23.61,23.61,0,0,0,9.93,17.58ZM8.18,16.22h0l1-.85c.31-.26.6-.54.9-.81.95-.12,1.91-.23,2.86-.33a8,8,0,0,1,1.46-.06,4.1,4.1,0,0,1,.7.12,2,2,0,0,1,.59.28h0a.36.36,0,0,0,.15.11l.11.06.21.08.4.14-.3.18a1.66,1.66,0,0,0-.31.23.67.67,0,0,0-.14.15l-.06.09a.44.44,0,0,0,0,.16v.06l0,0h0l0,0h0a1.58,1.58,0,0,0-.15.12,3.61,3.61,0,0,0-.58.59,2.89,2.89,0,0,0-.38.66,1.15,1.15,0,0,0-.09.33,3,3,0,0,0,.35-.24,3.21,3.21,0,0,0,.57-.59,3.49,3.49,0,0,0,.28-.43h0l0,0h0s.07.07,0,0h0l0,0a.81.81,0,0,0,.44.05h0l.06.07a.48.48,0,0,0,.14.05l.09,0H17a2.68,2.68,0,0,0,.74-.18c.18-.08.35-.16.51-.25a.08.08,0,0,1,0,.07.59.59,0,0,1-.21.14,3.5,3.5,0,0,1-.6.17,1.65,1.65,0,0,1-.32,0s-.16,0-.21.09.07.12.11.15a2.15,2.15,0,0,0,.7.12H18a2,2,0,0,0,.35-.05,2.6,2.6,0,0,0,.61-.25,4,4,0,0,0,.9-.69c.46-.17.91-.36,1.36-.55l.43-.2a7.49,7.49,0,0,1,1.07.2,10.13,10.13,0,0,1,1.06.38c-.5.52-1,1.05-1.5,1.58s-.91,1-1.36,1.46l-.06-.05a1.66,1.66,0,0,0-.34-.22,2.15,2.15,0,0,0-.37-.19l-.39-.17-.42-.14c-.13-.05-.28-.08-.42-.12a3.12,3.12,0,0,0-.44-.09l-.44-.08c-.29,0-.59-.08-.88-.1s-.6-.05-.9-.06c-.57,0-1.14,0-1.71,0l-.41-.18-.53-.14a5.3,5.3,0,0,0-.55-.1c-.18,0-.36,0-.55-.06l-.55,0a4.87,4.87,0,0,0-.54,0l-1.09,0c-.37,0-.73.06-1.09.09l-1.07.13c-.6.07-1.19.16-1.78.27Zm8-.55ZM21.39,9.3h0a4,4,0,0,1-.52.36,3.92,3.92,0,0,1-.58.29l-.33.11-.17.06-.16,0a4.16,4.16,0,0,1-.69.12,4.21,4.21,0,0,1-.71,0,5.43,5.43,0,0,1-.69-.09A4.36,4.36,0,0,1,16.9,10a2.16,2.16,0,0,1-.54-.3l-.09-.09s-.05,0-.06-.09,0-.18-.07-.26a4.25,4.25,0,0,0-.5-1c0-.07-.1-.14-.15-.21a1.29,1.29,0,0,1,.9-.17c.39.14.83.31.78.69s-.11.47.17.51.38.09.62-.07c0,0-.56.09-.64-.16S17.43,8.34,17,8a1.31,1.31,0,0,0-1.59,0l-.15-.19-.13-.13h0a1.84,1.84,0,0,0-.34-.27l-.29-.21L16,7.51l-1-.63,1.66.46L16,7.11l1.29.06-.86-.7,1.44.5-.55-.38.91.3-.72-.66,1.63.52-1.43-.88,2.07.48-.75-.55a3.62,3.62,0,0,1,1.79,1A1.68,1.68,0,0,1,21.31,8l.09-.65.19.37a.6.6,0,0,0,.07-.61s.24-.55.63-.51.38.4.36.77a2.16,2.16,0,0,1-.28.57h0a3.09,3.09,0,0,1-.56,1A2.78,2.78,0,0,1,21.39,9.3Zm2.92,7.87L23.82,17l.24-.32h0a0,0,0,0,0,0-.06l-.38-.21.45-.53h0s0-.1-.05-.12a8,8,0,0,0-1.29-.39,8.78,8.78,0,0,0-1-.13,8,8,0,0,0,.77-.41,3,3,0,0,0,.57-.42,3.21,3.21,0,0,0,.43-.49,3.58,3.58,0,0,0,.55-1.06,1.92,1.92,0,0,0,.05-1.14,2,2,0,0,0-.8-1,3.51,3.51,0,0,0-.67-.34c-.23-.1-.48-.17-.69-.26a.47.47,0,0,1-.27-.43,1.29,1.29,0,0,1,0-.39L22,9a4.24,4.24,0,0,0,.39-.68l.19.41V8.24l.25.32V7.8l.26.35S23,7.15,23,6.76a2.61,2.61,0,0,0-.87-2.27,6.39,6.39,0,0,0-5.48-1.31c-1.84.49-2.4,1-2.84,1.64A1.53,1.53,0,0,0,14,7a5.42,5.42,0,0,0,1,.59,2.56,2.56,0,0,1,.5.66,3.51,3.51,0,0,1,.35,1c0,.09,0,.15,0,.26a.29.29,0,0,0,.07.15,1.47,1.47,0,0,0,.1.13,1.58,1.58,0,0,0,.15.12,5.46,5.46,0,0,1-.69-.1c-.32-.06-.62-.15-.94-.24a4.38,4.38,0,0,0-1-.2,2.44,2.44,0,0,0-1.09.19,3,3,0,0,0-.44.22,1.82,1.82,0,0,0-.38.29,1.17,1.17,0,0,0-.32.73,1.27,1.27,0,0,0,.17.73,1,1,0,0,0,.31.32,1.42,1.42,0,0,0,.49.18h0l.11,0a.49.49,0,0,0,.24,0l.1,0h0a.53.53,0,0,0,.15.13h0a.44.44,0,0,0,.06.23.4.4,0,0,0,.12.15l.13.06h.15a.53.53,0,0,0,.33-.08.5.5,0,0,0,.13-.11,1.45,1.45,0,0,0,.24-.37L14.2,12h.13l.16-.06.1-.06.17-.13.07-.08a.52.52,0,0,0,.12.21,1.44,1.44,0,0,0,.51.38,2.29,2.29,0,0,0,.37.12l.25,0a1.49,1.49,0,0,0-.18.3c-.06.1-.09.2-.14.3s-.06.2-.09.3a1.51,1.51,0,0,0-.05.28.78.78,0,0,0,0,.26,1.29,1.29,0,0,0,0,.38l0,.15a1.42,1.42,0,0,0,.07-.14c0-.09.08-.22.15-.36a11.27,11.27,0,0,1,.48-1.06c.09-.18.2-.37.3-.55l.29-.47.31-.48a2.54,2.54,0,0,0-.56.37,4,4,0,0,0-.49.51L16,12l-.28-.14a4.44,4.44,0,0,0-.6-.22,2,2,0,0,0-.31-.08,1.06,1.06,0,0,0,.28-.53.73.73,0,0,0,0-.33,1,1,0,0,0-.2-.3l-.05,0a.59.59,0,0,1,.08.58,1.14,1.14,0,0,1-.4.51l-.15.1-.07,0h0c.06-.21.11-.43.17-.65h0c0-.08-.05-.16-.17-.18A.25.25,0,0,0,14,11v0h0l-.25.69a.34.34,0,0,1,0,.08l0,.08-.08.16a1.08,1.08,0,0,1-.11.18V12a.43.43,0,0,0,0-.11,1,1,0,0,0,.07-.15,1.77,1.77,0,0,0,.08-.46c0-.08-.08-.15-.19-.17a.28.28,0,0,0-.3.12h0a1.63,1.63,0,0,0-.11.31A.84.84,0,0,0,13,11.4a.75.75,0,0,0-.14-.24.24.24,0,0,0-.16-.06c-.09,0-.17.06-.16.13h0a2.24,2.24,0,0,0,.07.44l.06.2h0l-.06,0h0a.14.14,0,0,1-.16,0l0-.05c-.07-.18-.15-.37-.22-.56a.09.09,0,0,0-.08,0c-.05,0-.08,0-.08.06a1.5,1.5,0,0,0,.12.45.31.31,0,0,0,0,.1.85.85,0,0,1-.19-.1.61.61,0,0,1-.21-.28,1.11,1.11,0,0,1,0-.65,1.08,1.08,0,0,1,.33-.57,1.48,1.48,0,0,1,.3-.23,2.58,2.58,0,0,1,.37-.19,2,2,0,0,1,.84-.18,5.35,5.35,0,0,1,.94.14c.32.06.66.14,1,.17a5.81,5.81,0,0,0,.83,0,3.79,3.79,0,0,0,.34.2,3.82,3.82,0,0,0,.72.26,5,5,0,0,0,.79.13,5,5,0,0,0,1.59-.17l.19-.06.17-.06.34-.14a3.6,3.6,0,0,0,.61-.35,3.47,3.47,0,0,0,.5-.42h0a1.09,1.09,0,0,0,0,.25.57.57,0,0,0,.29.55c.23.12.46.19.67.29a2.69,2.69,0,0,1,.58.34,1.71,1.71,0,0,1,.65.91,1.05,1.05,0,0,1,0,.5,2.29,2.29,0,0,1-.11.52,3.83,3.83,0,0,1-.55,1,3.23,3.23,0,0,1-.38.45,2.85,2.85,0,0,1-.5.38,18.58,18.58,0,0,1-2.52,1.28h0s0,0,0,0a3.33,3.33,0,0,1-.82.7,2.06,2.06,0,0,1-.55.23,1.55,1.55,0,0,1-.31.06h-.33a2,2,0,0,1-.61-.1s-.05-.05-.05,0h.07a2.09,2.09,0,0,0,.36,0,3,3,0,0,0,.65-.18.81.81,0,0,0,.28-.17.21.21,0,0,0,0-.3h0a.16.16,0,0,0-.15,0,3,3,0,0,1-.6.27,2,2,0,0,1-.64.14h-.24a4.29,4.29,0,0,1,.63-.19.09.09,0,0,0,.06,0h0l.53-.39a.1.1,0,0,0,0-.17.28.28,0,0,0-.28,0h0c-.27.13-.54.26-.82.37a3.52,3.52,0,0,1-.42.15l-.15,0,.06-.06a2,2,0,0,1,.28-.2l.17-.08a5.08,5.08,0,0,0,.65-.39h0a.14.14,0,0,0,0-.23.32.32,0,0,0-.35,0l-.59.33-.05,0-.16.07,0,0a1.81,1.81,0,0,1,.25-.19,5.82,5.82,0,0,1,.6-.34h0a.24.24,0,0,0,.09-.08c.05-.09,0-.2-.15-.24l-.24-.07a3.81,3.81,0,0,0,1.17,0,2.66,2.66,0,0,0,.45-.13,3.52,3.52,0,0,0,.39-.17l.73-.35c.47-.25.92-.51,1.37-.77h0s.06,0,0-.08a7.81,7.81,0,0,1,.05-1.08,3.16,3.16,0,0,1,.13-.53c0-.08.08-.17.13-.25a.78.78,0,0,1,.23-.21l0,0a1,1,0,0,0-.27.21,1.06,1.06,0,0,0-.17.26,2.66,2.66,0,0,0-.21.53,5.32,5.32,0,0,0-.15,1c-.45.24-.91.46-1.37.68l-.72.33-.36.14a1.78,1.78,0,0,1-.36.1,3.5,3.5,0,0,1-.79,0c-.27,0-.55-.09-.88-.11H16l-.09,0a.35.35,0,0,0-.17.07.15.15,0,0,0-.08.12.09.09,0,0,0,0,0A2.58,2.58,0,0,0,14.4,14a3.94,3.94,0,0,0-.77,0c-.26,0-.5,0-.76,0-1,.06-2,.16-3,.28a.17.17,0,0,0-.12.05h0l-1,.84L7.84,16,6,17.78H6a.07.07,0,0,0,0,.07.13.13,0,0,0,.15,0l.57-.11L6,18.14a.07.07,0,0,0,0,.08s.07.07.14.06h0l1-.13c.32,0,.64-.08,1-.11.64-.07,1.28-.12,1.93-.15s1.29-.07,1.94-.07c.32,0,.64,0,1,0s.65,0,1,.08q1,.12,1.89.33c.61.15,1.22.31,1.81.49l.88.28c.29.1.58.2.85.31s.54.23.79.36l.36.21.17.1-2.21-.63-2.85-.77h0a.16.16,0,0,0-.17-.07.74.74,0,0,0-.17,0c-.1,0-.19.06-.29.09l-.26.08a1.09,1.09,0,0,1-.26,0,1,1,0,0,1-.5-.14,1.42,1.42,0,0,1-.37-.3.12.12,0,0,0-.09,0h0c-1.23.05-2.46.06-3.69.15l-1.83.14-1.66.17c.1-.16.2-.32.28-.48h0L6,18.78a.06.06,0,0,0,0,0s0,.07.1.06h0L8,18.83l1.84-.1c1.21-.07,2.4-.22,3.61-.33a1.62,1.62,0,0,0,.39.28,1.36,1.36,0,0,0,.59.17,1.23,1.23,0,0,0,.33,0l.28-.08.27-.08h0l0,0,.07,0,2.83.95c1,.3,1.9.61,2.87.89a.37.37,0,0,0,.34-.06c.51-.53,1-1.07,1.48-1.6s1-1.09,1.42-1.64h0A0,0,0,0,0,24.31,17.17Z"/><path class="cls-5" d="M22.88,5.67a5.84,5.84,0,0,1,.19,3c-.43,1.18-2,2.4-2.54,3.61s-.5,1.41-.5,1.41l-.64.25s-.49-.34.08-1.66a14.92,14.92,0,0,1,1.41-2.49,7.7,7.7,0,0,0,1.2-1.22c.14-.32.72-.64.79-1.11a13.76,13.76,0,0,0,0-1.82"/><path class="cls-5" d="M17.26,10.24s-.08,1.52-.5,1.85a1.3,1.3,0,0,0-.32,1.05s.4-.06.41.26-.52.71-.52.71-.58-.22-.62-.54a.42.42,0,0,1,.27-.43,2.84,2.84,0,0,1,.23-1.35A5.08,5.08,0,0,0,16.48,10Z"/></svg>