<svg id="Capa_1" data-name="Capa 1" xmlns="http://www.w3.org/2000/svg" viewBox="0 0 28.56 21.63"><defs><style>.cls-1{fill:#ffcc64;}.cls-2{fill:#fbc8ba;}.cls-3{fill:#f05050;}.cls-4{fill:#b3d335;}.cls-5,.cls-6{fill:#231f20;}.cls-6{fill-rule:evenodd;}</style></defs><title>3-30meses</title><path class="cls-1" d="M1.12,15A22.6,22.6,0,0,0,15.94,20.6C25,20.6,28.15,15,28.15,15Z"/><path class="cls-2" d="M9.11,8.66,8.61,8a1.67,1.67,0,0,1-1-.41C7.17,7.2,7,6.8,7.37,6.69S8,6.43,8,6.43,10.78,2.59,11.82,3a33.74,33.74,0,0,1,4.31,2.65,1.62,1.62,0,0,1,.31.69s.38,0,.26.4-1.17,1.15-1.17,1.15a.34.34,0,0,0,.14.51c.36.24,1.85.83,2.15,1.93a8.59,8.59,0,0,1,.4,3,1.45,1.45,0,0,1-.55.71,38.75,38.75,0,0,1-5.42,1.82,23.06,23.06,0,0,1-4.44-.66c-.69-.2-2-.63-2-1.55A7.56,7.56,0,0,1,7.36,10Z"/><path class="cls-3" d="M10,15.55s-.31,2.29.42,2.8a10.84,10.84,0,0,0,5.43.58A3.66,3.66,0,0,0,18,17.3c.1-.08.26-3.27.26-3.27l-.86-.63a4.38,4.38,0,0,1-1.36.53c-.6.06-2.9.1-2.9.1l-.88.36s.69.33.73.53-1.67.29-1.67.29,1.16,0,1.28.22-.24.43-2.64.12"/><path class="cls-4" d="M10.86,12.68s-.28-.24.48-.43a9,9,0,0,0,.94-.26s-.55.68-.27.82a1.41,1.41,0,0,0,.73.08s.34.41.58.24a2.94,2.94,0,0,1,.61-.29s-.5.55-.11.56a3.89,3.89,0,0,0,1.29-.6s-.6.43-.09.42a3.89,3.89,0,0,0,1.48-.77s.86.17.88.49a1.35,1.35,0,0,1-.51.84c-.09,0-3.53.31-3.53.31s.2-.55-.6-.55-1.4-.06-1.4-.06.75-.37.43-.57a2.53,2.53,0,0,0-.91-.23"/><path class="cls-5" d="M13.65,7.05a2.42,2.42,0,0,1,1.47.11,2.15,2.15,0,0,0-2.33,0c-.24.18.34.11.86-.13"/><path class="cls-5" d="M11.57,7.37c.21,0,0-.23-.49-.29a2.64,2.64,0,0,0-1.66.53,6.42,6.42,0,0,1,1.08-.36c.38-.07.87.15,1.07.12"/><path class="cls-5" d="M13.67,7.51a5.07,5.07,0,0,1-.51-.07.82.82,0,0,0,1.33-.15,1.51,1.51,0,0,1-.82.22"/><path class="cls-5" d="M9.93,7.56a.81.81,0,0,0,1.27,0,1.53,1.53,0,0,1-1.27,0"/><path class="cls-5" d="M12.35,8.64c.31.07.28-.07.48-.16s.18-.15.18-.15-.16,0-.38.15-.48,0-.71-.05-.22-.15-.22-.15,0,.11.13.23.21.06.52.13"/><path class="cls-5" d="M18,14.14h0v0c-.05.43-.07.85-.1,1.28s0,.86-.05,1.29v.48a.57.57,0,0,1,0,.13,1.11,1.11,0,0,1-.26.52,2.41,2.41,0,0,1-.54.44,4.47,4.47,0,0,1-.73.33,7.37,7.37,0,0,1-.84.21,6.71,6.71,0,0,1-.9.12c-.32,0-.62,0-.93,0a7,7,0,0,1-.92-.07,7.88,7.88,0,0,1-.87-.18,4,4,0,0,1-.76-.29,1.89,1.89,0,0,1-.56-.41.8.8,0,0,1-.22-.5v0a13,13,0,0,0-.21-2l.8.08a6.5,6.5,0,0,0,.9.16,4,4,0,0,0,.49,0,1.07,1.07,0,0,0,.49-.12l.11-.09.05-.07c0-.11-.05-.19-.13-.23a.78.78,0,0,0-.24-.09l.27,0,.25-.06.15-.06a.22.22,0,0,0,.14-.2.26.26,0,0,0-.15-.18l-.08,0,0,0a1,1,0,0,0-.23-.08,3,3,0,0,0,.41-.09.58.58,0,0,0,.17-.06l.07-.05,0,0a.11.11,0,0,0,0-.08c.4,0,.77,0,1.1,0a5.31,5.31,0,0,0,2.57-.49,1.59,1.59,0,0,0,.33-.27,1.55,1.55,0,0,1,.27.23c-.05.08-.09.17-.15.25a1.8,1.8,0,0,0,.19-.2A1.4,1.4,0,0,1,18,14a.36.36,0,0,1,0,.1.17.17,0,0,1,0,.08m-4.47-.6h0a.35.35,0,0,0-.12-.09.65.65,0,0,0-.2-.09l-.24,0h.26a.68.68,0,0,0,.17,0,1.85,1.85,0,0,0,.31-.11.2.2,0,0,0,0,.11.26.26,0,0,0,.05.15.35.35,0,0,0,.29.09,1.19,1.19,0,0,0,.31-.13l.21-.15.27-.23-.06.11a.11.11,0,0,0,0,.1.21.21,0,0,0,.14.11,1.19,1.19,0,0,0,.49,0,3.34,3.34,0,0,0,.79-.27,2.09,2.09,0,0,0,.47-.36c.1,0,.48.21.48.54,0,.1-.09.2-.26.3a6.09,6.09,0,0,1-3.26.35s0,0,0,0A.26.26,0,0,0,13.49,13.54Zm-1.72-.31h0a.75.75,0,0,0,.17-.14.38.38,0,0,0,.12-.2l0,0a.78.78,0,0,0,.19,0h.1a.25.25,0,0,0,0,.14.38.38,0,0,0,.25.18h-.13a5.33,5.33,0,0,0-.56,0h-.22Zm2.18,0Zm-1.37-1.38h0l.14-.16a1.57,1.57,0,0,1,.56-.37,1.4,1.4,0,0,1,.71,0,4.25,4.25,0,0,1,.72.2c.48.16.92.36,1.38.56.16.07.18.13.14.27a1.16,1.16,0,0,1-.38.39,2.59,2.59,0,0,1-.6.3,1.41,1.41,0,0,1-.29.07s0,0,0,0A.28.28,0,0,1,15,13a2.11,2.11,0,0,1,.38-.48,1.62,1.62,0,0,1,.18-.19l.06,0,.06-.06,0,0,0,0h0s0-.05-.05,0h0l-.12.1-.16.13a5.59,5.59,0,0,1-.6.46l-.42.26-.22.12-.14,0h0a.56.56,0,0,1,.07-.16,2.43,2.43,0,0,1,.2-.35l.11-.16c0-.06.09-.11.13-.16a2.8,2.8,0,0,0,.25-.41h0c.05-.11,0-.22-.16-.26a.37.37,0,0,0-.4.11v0a2.26,2.26,0,0,1-.23.34,2.91,2.91,0,0,1-.3.31,2,2,0,0,1-.35.24l-.18.08-.12,0a1.71,1.71,0,0,1,.2-.33l.1-.12a4.78,4.78,0,0,0,.52-.59.14.14,0,0,0-.07-.21.33.33,0,0,0-.36,0h0a5.69,5.69,0,0,0-.69.7,2.57,2.57,0,0,0-.22.32l-.13.06h-.11l0,0a.75.75,0,0,1,.14-.5l.1-.14.17.06A.18.18,0,0,0,12.58,11.89Zm-1.37.74h0a.14.14,0,0,1,0-.09c0-.06.16-.13.37-.18l.53-.11a.92.92,0,0,0-.15.44.43.43,0,0,0-.21-.08.9.9,0,0,0-.28,0A.9.9,0,0,0,11.21,12.63ZM7.85,15h0v0H7.69l-.29-.08a3.23,3.23,0,0,1-.7-.34,1.9,1.9,0,0,1-.52-.43A1.33,1.33,0,0,1,6.07,13a4.49,4.49,0,0,1,.19-.59c.08-.2.16-.39.26-.59a10.86,10.86,0,0,1,.66-1.14c.12-.19.26-.37.4-.55s.31-.35.48-.52a4.26,4.26,0,0,1,1-.74l.28.19a5.79,5.79,0,0,0,1.09.53,4.33,4.33,0,0,0,2.48.15,4,4,0,0,0,.52-.15,3.57,3.57,0,0,0,.45-.19A4.14,4.14,0,0,0,14.61,9a1.86,1.86,0,0,0,.65-.86,8.36,8.36,0,0,1,.77.48,7,7,0,0,1,.77.62,4,4,0,0,1,.56.7c.06.11.14.27.19.39l.17.39a5.64,5.64,0,0,1,.37,1.64,2.94,2.94,0,0,1,0,.42,3.12,3.12,0,0,1-.06.41,1.62,1.62,0,0,1-.13.41h0a1.43,1.43,0,0,0-.3-.16.53.53,0,0,0,.1-.28c0-.63-.81-.91-.84-.92l-.1.14a.4.4,0,0,0,0-.3.69.69,0,0,0-.37-.3,9.77,9.77,0,0,0-1.5-.5,4.5,4.5,0,0,0-.83-.14,1.83,1.83,0,0,0-.87.1,1.89,1.89,0,0,0-.59.42l-.16.16a3.09,3.09,0,0,0-1.05.16c-.41.1-.66.25-.74.45a.37.37,0,0,0,0,.36l-.11,0c-.21.09-.39.19-.58.29a2.68,2.68,0,0,0-.3-.28l0,0a1.49,1.49,0,0,0,.29-.14,1.72,1.72,0,0,0,.6-.6,1.1,1.1,0,0,0,.14-.72.7.7,0,0,0-.12-.33,3.31,3.31,0,0,0-.21.29c-.11.17-.25.39-.37.61s-.24.44-.33.62-.07.15-.09.21a2.7,2.7,0,0,0-.4-.25,2.78,2.78,0,0,0-.65-.23,2.2,2.2,0,0,0-.36,0H7.77v0a1.94,1.94,0,0,1,.34,0,1.83,1.83,0,0,1,.32.07,2.56,2.56,0,0,1,.56.24,2.92,2.92,0,0,1,.78.74l0,0a.21.21,0,0,0,.23,0h0a5.64,5.64,0,0,1,.71-.31l.37-.11a1.63,1.63,0,0,1,.35-.05h0a.22.22,0,0,1-.09.07,4.39,4.39,0,0,1-.65.34c-.08,0-.13.1-.12.17s.14.18.29.17h0c.34,0,.7,0,1,0a4.07,4.07,0,0,1,.5,0l.3,0-.11,0a8.39,8.39,0,0,1-1,0c-.17,0-.31.09-.32.2s.12.23.29.24l.55,0h0l-.88.13c-.13,0-.23.09-.23.19s.13.18.28.18a5.14,5.14,0,0,1,.88,0,1.84,1.84,0,0,1,.42.07l.08,0h-.06l-.43.08c-.3,0-.61.09-.91.12h0c-.09,0-.15.06-.15.11s.08.12.17.12a5.38,5.38,0,0,1,.9,0,1.27,1.27,0,0,1,.38.08s0,0,.05,0,0,0,0,.07,0,0-.05,0a1.56,1.56,0,0,1-.8.08,6.21,6.21,0,0,1-.88-.14h0c-.6,0-1.2-.11-1.79-.21A12.59,12.59,0,0,1,7.85,15Zm1-7.57h0l-.06-.13s-.06-.08-.08-.12l-.05-.06.29-1,.24,1,.3-1.57.87.71-.14-.65,1.5,1.63L11.07,5.8,12.57,7,12.19,5.6l.84.69s-.38-.89-.34-.85,1.61,1.3,1.61,1.3l-.54-1,.73.6,0-.64,1.15,1.23-.15.21a.77.77,0,0,0-.13.22c0,.1-.07.24-.13.4h-.06l-.5.07.43.23h0a1.87,1.87,0,0,1-.74.79,3.92,3.92,0,0,1-.74.34l-.45.14c-.15,0-.3.07-.46.09a3.78,3.78,0,0,1-2-.2,5.38,5.38,0,0,1-1-.48,1.86,1.86,0,0,1-.69-.63,2.41,2.41,0,0,1-.14-.43Zm-.56.4h0l-.1-.1-.1-.14a2.7,2.7,0,0,0-.25-.34c-.09-.11-.17-.23-.24-.32l-.09-.14,0-.08s0,0,0-.06a.56.56,0,0,1,.12,0l.08,0c.14.26.31.52.45.73l.06.1,0,.09.06.23,0,.12Zm8.21-1.34h0a.88.88,0,0,1-.22.53,2.73,2.73,0,0,1-.2.25,1.71,1.71,0,0,1-.26.21l-.3.17-.16.06a2.86,2.86,0,0,1,.1-.36.74.74,0,0,1,.12-.22L15.73,7l.14.15.52-.74A.12.12,0,0,1,16.52,6.52ZM27.2,15H18.36c0-.28,0-.55-.07-.82v0a.4.4,0,0,0,0-.16l-.06-.13a.77.77,0,0,0-.21-.23l0,0a2.52,2.52,0,0,0,.48-1.28,4.42,4.42,0,0,0-.2-1.73c-.05-.15-.1-.29-.16-.43a4,4,0,0,0-.21-.41A2.93,2.93,0,0,0,17.27,9a5.19,5.19,0,0,0-.85-.66,6.68,6.68,0,0,0-.7-.39l.07,0a2.36,2.36,0,0,0,.35-.23,1.69,1.69,0,0,0,.26-.28,1.53,1.53,0,0,0,.18-.29,1.82,1.82,0,0,0,.11-.3.62.62,0,0,0,0-.33.26.26,0,0,0-.13-.16l-.11,0,.09-.12s.47-2.29-.36-3.05a5.79,5.79,0,0,0-4.12-1.32A6.59,6.59,0,0,0,7.52,3.76,1.46,1.46,0,0,0,7.4,5a2.14,2.14,0,0,0,.24,1.42l.06.11h0a.6.6,0,0,0-.18,0,.57.57,0,0,0-.29.09.32.32,0,0,0-.11.24.42.42,0,0,0,0,.22,1.44,1.44,0,0,0,.22.4,2.65,2.65,0,0,0,.33.34A.94.94,0,0,0,7.89,8a.73.73,0,0,0,.27.11.81.81,0,0,0,.27,0c0,.06,0,.12.06.19a1.65,1.65,0,0,0,.5.59,4.63,4.63,0,0,0-1.15.67c-.2.16-.38.34-.56.51s-.32.36-.47.55a8.16,8.16,0,0,0-.75,1.16c-.1.19-.2.4-.29.6a4.75,4.75,0,0,0-.23.63,2.06,2.06,0,0,0-.07.66,1.16,1.16,0,0,0,.28.67,2.26,2.26,0,0,0,.68.5l.39.19H1.67v.41H7.85v-.13c.4.08.8.13,1.2.18l.93.1a14.64,14.64,0,0,0-.21,2v0a1,1,0,0,0,.26.73,2,2,0,0,0,.74.5,4.18,4.18,0,0,0,.92.25,7.81,7.81,0,0,0,1,.1c.63,0,1.27,0,1.89,0,.31,0,.64,0,1-.05a7.81,7.81,0,0,0,1-.15,4.18,4.18,0,0,0,.88-.32,2.69,2.69,0,0,0,.71-.51,1.51,1.51,0,0,0,.38-.67.68.68,0,0,0,0-.19v-.48c0-.43,0-.86,0-1.29v0H27.2Z"/><path class="cls-5" d="M11.58,9.09a1.34,1.34,0,0,0,.32.1,1.67,1.67,0,0,0,.39,0A1.8,1.8,0,0,0,13,9.08a.82.82,0,0,0,.25-.17,2.15,2.15,0,0,0-.33-.06l-.3,0h-.32a5.39,5.39,0,0,0-.6,0l-.33,0a.63.63,0,0,0,.24.18"/><path class="cls-5" d="M15.67,12.14h0"/><path class="cls-6" d="M9.42,8.93a14.58,14.58,0,0,1,1.39,2.47,4.62,4.62,0,0,1,.18.94,2.22,2.22,0,0,1-.43.7c-.23.21-.12-.59-.47-1A29.81,29.81,0,0,1,8.16,8.07c-.24-.72.21.12.65.21s.61.65.61.65"/><path class="cls-6" d="M16,7.78a3.08,3.08,0,0,1-.71,1.61,4.16,4.16,0,0,0-.78,1.91l-1.32-.06a6,6,0,0,1,.93-1.7,10.32,10.32,0,0,0,1.06-1.46Z"/></svg>