<svg id="Capa_1" data-name="Capa 1" xmlns="http://www.w3.org/2000/svg" viewBox="0 0 20.4 23.64"><defs><style>.cls-1{fill:#fbc8ba;}.cls-2{fill:#f05050;}.cls-3{fill:#fff;}.cls-4{fill:#f5a4c7;}.cls-5,.cls-6{fill:#231f20;}.cls-6{fill-rule:evenodd;}</style></defs><title>4-30meses</title><path class="cls-1" d="M6,5.65v1.7s-.18,4.09.41,4.81a4.38,4.38,0,0,0,1.14,1l.71.1S8.07,15,8,15.39a1.3,1.3,0,0,0-.08.53s-1.36-.42-1.88,0-1.54,1.25-1.13,2.13A4.11,4.11,0,0,0,6.07,19.5s-3.22-.68-3.25,0,.23.64.33.67-.51.46.13.53l.63.08s-.78,0-.63.36.33.76.88.82,1.15.31,1.59.14a3.56,3.56,0,0,1,1.55-.29c.74,0,1,.48,1.34.35a9.73,9.73,0,0,1,1.18-.29s-.78.5-.18.55a3.17,3.17,0,0,0,1.16-.15s-.2.45.28.45.39.17,1,.08a10.54,10.54,0,0,0,2.42-1.25,11.1,11.1,0,0,1,2.51-.9s2.23.13,2.67-1,.73-1.92,0-2.36-1.32-.66-1.32-.77a3.31,3.31,0,0,0-.44-1.11,1.61,1.61,0,0,0-1-.65l.23-.25s2.12-.14,2.12-1.11-.75-1.66-.7-2.33.26-1.06,0-1.47a9.28,9.28,0,0,0-1.29-1.23s.8-.64.52-.89A1.33,1.33,0,0,0,17,7.32s1.26-2.12-.36-3S9.69,2.35,9,2.76a11.76,11.76,0,0,0-2,2.1l-.16.62S6,5.2,6,5.65"/><path class="cls-2" d="M2.17,8.94S4.64,6.84,5.52,7s5.38,1.22,7.07,1.45a11.15,11.15,0,0,0,3.34.11c1-.12,1.39-.28,1.67-.05a11.58,11.58,0,0,1,.88.88S17.6,8.71,17.27,9a2.6,2.6,0,0,0-.42.41.43.43,0,0,0-.37.17c-.17.2-.34.44-.34.44s-.74-.15-.83.33.77,1,.77,1v.49l0,.14a4.56,4.56,0,0,1-2.33-.26c-1.49-.48-2.19-1-2.87-.76s-2.49.31-3.09.73a5.36,5.36,0,0,1-1.11.59,1,1,0,0,0,.53.62c.46.23-.72.34-.72.34s-1.34-.51-1.11-.81.08-1.74.08-1.74S2.2,9.72,2.17,8.94"/><path class="cls-3" d="M10.13,18.67l2,.94s-.8.35-1.2.47a3,3,0,0,1-.81.13V18.67"/><path class="cls-4" d="M9.37,16.81a3.4,3.4,0,0,0,.94,1.86,4.71,4.71,0,0,0,1.86.85,22.29,22.29,0,0,1,3.63-2.58,12.16,12.16,0,0,1,2.76-.35,6,6,0,0,0-.8-1.12,8.6,8.6,0,0,1-.65-.7s.08.65-1,1.11-3,1.51-5,1.26-1.74-.33-1.74-.33"/><path class="cls-5" d="M17.57,16.29h0a2.81,2.81,0,0,0-.69.1l.08,0a4.75,4.75,0,0,0-1.67.47,6.82,6.82,0,0,0-1.21.86c-.7.58-1.31,1.2-2,1.71l-.43-.2a5.26,5.26,0,0,1-.58-.35l-.29-.22a3.08,3.08,0,0,1-.27-.24,3.81,3.81,0,0,1-.47-.52l-.35-.48L9.39,17a6.22,6.22,0,0,0,1.06.21c.31,0,.61.05.91.06s.6,0,.92,0l.44,0,.47-.06a6.37,6.37,0,0,0,.89-.18,7.37,7.37,0,0,0,1.61-.62,5.75,5.75,0,0,0,1.28-.9v0l0,0c0-.2.06-.4.09-.59a1.35,1.35,0,0,1,.25.24,1.84,1.84,0,0,1,.2.31s.06.13.11.19l.12.21a4.35,4.35,0,0,0,.47.56,3.16,3.16,0,0,0-.68-.05m-6.18,3.5h0l-.35.12-.36.09-.37.07a1.42,1.42,0,0,0,.13-.46,1.86,1.86,0,0,0,0-.62,2.07,2.07,0,0,0,.25.15,2,2,0,0,0,.4.17,1.82,1.82,0,0,0,.38.11,2.34,2.34,0,0,0,.46.08C11.75,19.6,11.58,19.7,11.39,19.79ZM8.34,16.2h0a1.29,1.29,0,0,1-.24-.57,3.09,3.09,0,0,1,.12-1.16,11.91,11.91,0,0,1,.32-1.17h0a.11.11,0,0,0,0-.13c0-.06.09-.11.13-.18s.15-.21.23-.32A3.94,3.94,0,0,0,9.22,12a1.34,1.34,0,0,0,.1-.33,2.14,2.14,0,0,0-.4.21,2.17,2.17,0,0,0-.62.59,1.5,1.5,0,0,0-.22.53c-.25-.08-.5-.16-.73-.25a2.84,2.84,0,0,1-.46-.24,1.29,1.29,0,0,1-.17-.15.57.57,0,0,1-.08-.13c.17-.06.34-.13.51-.18.5-.15,1-.26,1.53-.38s1-.25,1.53-.36a7,7,0,0,1,.75-.14,2.63,2.63,0,0,1,.67,0,1.48,1.48,0,0,1,.56.22l.33.18.09,0,.1.05.17.07a6.23,6.23,0,0,0,1.67.32A10.15,10.15,0,0,0,16,12l-.06.2-.17.46a1.68,1.68,0,0,0-.2,1,1,1,0,0,0,.45.48l.52.33a1.77,1.77,0,0,0,.44.19c-.11.22-.22.43-.32.65a6.41,6.41,0,0,1-.62.38,5.66,5.66,0,0,1-.7.34,6.52,6.52,0,0,1-.73.29c-.26.09-.51.17-.78.24s-.53.13-.79.18l-.4.07-.44,0-.85.06h-.87a4,4,0,0,1-1.61-.29A1.51,1.51,0,0,1,8.34,16.2ZM6.58,12.41h0a.9.9,0,0,0,.14.2,1.49,1.49,0,0,0,.33.27l-.25,0-.31,0-.27,0c-.09,0-.16-.06-.18-.11s.21-.27.41-.37l.1,0A.35.35,0,0,0,6.58,12.41Zm-.77.22h0a.34.34,0,0,1,0-.09l0-.12a3.21,3.21,0,0,0-.09-.88,6.12,6.12,0,0,0-.22-.69,1.42,1.42,0,0,0,.36,0c.1,0,.24-.11.24-.19s0,0,0-.06a2.86,2.86,0,0,0,.36-.32,2.3,2.3,0,0,0,.62-1.07,1,1,0,0,0,0-.34A2.08,2.08,0,0,0,7,8.57a2.11,2.11,0,0,0-.32-.48,2.5,2.5,0,0,0-.43-.42,3.24,3.24,0,0,0,.1.5c0,.15.08.31.12.49s0,.18.06.26a.7.7,0,0,1,0,.25,3.39,3.39,0,0,1-.15.52c-.07.18-.13.35-.18.49a2,2,0,0,0-.08.27,2.48,2.48,0,0,0-.23-.36,3,3,0,0,0-.29-.38,1.11,1.11,0,0,0-.22-.18,1.82,1.82,0,0,0-.27-.15,3,3,0,0,0-.57-.21,9.32,9.32,0,0,0-1.89-.31l.89-.74a17.54,17.54,0,0,1,1.74-1A1,1,0,0,1,5.47,7h.09a.24.24,0,0,1,.12,0,4.19,4.19,0,0,1,.53.11l.18,0a.52.52,0,0,0,.2.07h.06l.64.19.57.16a.08.08,0,0,1,0,0h0c0,.1.06.2.21.22a.29.29,0,0,0,.32-.12c.36.09.73.19,1.11.27s.77.1,1.14.18l1.12.23a21.22,21.22,0,0,0,2.3.39,8,8,0,0,0,1.21.06,4.53,4.53,0,0,0,.62-.07l.57-.11c.37-.06.84-.2.84-.09l.43.28a.94.94,0,0,0-.52,0,.64.64,0,0,0-.24.17l0,0h-.19a.73.73,0,0,0-.29.11.89.89,0,0,0-.14.13.55.55,0,0,0-.11.25,1.09,1.09,0,0,0-.36,0,1.23,1.23,0,0,0-.38.19.92.92,0,0,0-.34.51.7.7,0,0,0,0,.25.43.43,0,0,0,.09.22.55.55,0,0,0,.36.24.55.55,0,0,0,.17,0,.28.28,0,0,1-.1-.08.26.26,0,0,1-.09-.23.4.4,0,0,1,0-.15s.05-.13.07-.18a1,1,0,0,1,.27-.31.49.49,0,0,1,.32-.12l.16,0a.75.75,0,0,1,.17.1,1.79,1.79,0,0,1,.24.22l.09.09a.39.39,0,0,0,0-.11.68.68,0,0,0-.05-.32.56.56,0,0,0-.16-.21.87.87,0,0,0-.39-.17h0l.23-.08a.56.56,0,0,1,.26,0s0,0,0,0l.07.06.12.11.11.11.21.21a3,3,0,0,0,.23.24.5.5,0,0,0,.11-.29.59.59,0,0,0-.05-.31.75.75,0,0,0-.1-.17.76.76,0,0,0-.41-.31h.15a.42.42,0,0,1,.23.07l.08.07s.09.09.09.11a1.13,1.13,0,0,1,.17.24l.16.24.19.27a.78.78,0,0,0,.16-.27,2.09,2.09,0,0,1,0,.66l-.28.54a.15.15,0,0,0,0,.13h0l.76,1.83,0,.06v0l0,.12a.54.54,0,0,1,0,.18.89.89,0,0,1-.16.38,1.51,1.51,0,0,1-.84.53,1.4,1.4,0,0,1-.54,0,1.76,1.76,0,0,1-.5-.18c-.16-.08-.37-.22-.54-.31a.63.63,0,0,1-.32-.3,1.41,1.41,0,0,1,.11-.88l.13-.47a4,4,0,0,0,.08-.5h0a.1.1,0,0,0-.12-.06l0,0-.06,0a.26.26,0,0,1-.06-.13.6.6,0,0,1,.08-.31.86.86,0,0,0,.09-.35.28.28,0,0,0-.26-.3v0a.19.19,0,0,1,.14.1.22.22,0,0,1,0,.16.82.82,0,0,1-.13.31.65.65,0,0,0-.13.35.31.31,0,0,0,.22.31l0,.14c-.49,0-1-.1-1.42-.18-.26,0-.51-.1-.75-.16a4.64,4.64,0,0,1-.66-.22L13,11.29l-.06,0-.08,0L12.6,11a2,2,0,0,0-.83-.33,2.93,2.93,0,0,0-.95,0q-.42.08-.81.18c-.52.13-1,.3-1.51.46s-1,.33-1.46.52l-.7.31a2.07,2.07,0,0,0-.32.19c-.1.07-.21.17-.18.31v0h0A.18.18,0,0,1,5.81,12.63ZM5,10.48H5a8.13,8.13,0,0,1-1-.39c-.6-.27-1.17-.57-1.74-.87.31,0,.62,0,.93.08a7.41,7.41,0,0,1,1.1.19,3.12,3.12,0,0,1,.49.17,1.8,1.8,0,0,1,.2.11.56.56,0,0,1,.16.12,3.42,3.42,0,0,1,.29.34,4.1,4.1,0,0,1,.23.34H5.56l-.28,0Zm3.8-3.77ZM7.67,6.56h0a1.53,1.53,0,0,0,.08-.37s.09-.06.1-.05,0,0,.07,0l0,0H8l0,0a.56.56,0,0,1,.11.32,1.5,1.5,0,0,1,0,.36c0,.18-.1.37-.15.55l-.53-.16h0A4.11,4.11,0,0,0,7.67,6.56ZM7.18,6h0S7.15,6,7.18,6Zm0,0ZM7,7.05H7a5.29,5.29,0,0,0,0-.56.86.86,0,0,1,0-.17A1.25,1.25,0,0,1,7.16,6l0,0a.52.52,0,0,1,.07.21,2,2,0,0,1,0,.35,4.19,4.19,0,0,1-.13.69l-.23-.07A.41.41,0,0,0,7,7.05Zm3.7.75h0a.32.32,0,0,0,.08.26h-.06C10.3,8,9.9,7.94,9.54,7.88A10.78,10.78,0,0,1,8.42,7.6l0,0s0-.1,0-.15a1.57,1.57,0,0,1,.1-.28,1.26,1.26,0,0,1,.13-.26.44.44,0,0,1,.08-.11l0,0s-.05,0,0,0h0a.21.21,0,0,1,0,.07.83.83,0,0,1,0,.28,3.3,3.3,0,0,1-.08.61H8.9a2.44,2.44,0,0,0,.31-.6,1.6,1.6,0,0,0,0-.21,4.91,4.91,0,0,1,1,.13s.55,0,0-.35a1.27,1.27,0,0,0-1-.08l0,0A.34.34,0,0,0,9,6.44l-.05,0H8.78a.73.73,0,0,0-.22.06l-.09.06a0,0,0,0,0,0,0,.75.75,0,0,0-.26-.4l-.06,0L8.09,6h0a.7.7,0,0,0-.19,0L7.73,6a.09.09,0,0,0,0,0,.46.46,0,0,0-.18-.27l-.12,0-.06,0H7.24a.51.51,0,0,0-.21,0L7,5.62l0-.13a.65.65,0,0,1,0-.14L8.33,4,7.84,5.24l.49-.53-.26.83,2.76-1.91L10.16,5l1-.67-.31,1.06L12.4,3.82l-.25,1.91,1.33-1.32.84,1.47a3.16,3.16,0,0,0-.66-.06c-1.44,0-1.81.46-1.51.53s2-.62,3.34.23a1.59,1.59,0,0,0-1.1-.68l1-1.53.49,2.77.72-1.66v2a3,3,0,0,1-.42.65,2.29,2.29,0,0,1-.38.35h0a4.51,4.51,0,0,1-.53.07,8.39,8.39,0,0,1-1.12,0c-.72,0-1.43-.16-2.14-.27.56,0,.63-.16.63-.16S10.9,8.2,10.66,7.8Zm6.57-.34h.16c.05,0,.06,0,0,0s0,0,0,0v0h0v0s0,.07,0,.08a.46.46,0,0,1-.06.23c0,.08-.1.16-.15.24l0,.08a1.3,1.3,0,0,0-.31,0l-.56.13-.21,0,.26-.18A3.34,3.34,0,0,0,17,7.49Zm2.84,11.08a2.59,2.59,0,0,0-.21-.84,3.71,3.71,0,0,0-.19-.4,3,3,0,0,0-.32-.4,2,2,0,0,0-.59-.4l0-.11a2.78,2.78,0,0,0-.38-.78l-.15-.2-.16-.2a1.31,1.31,0,0,0-.44-.31,1.42,1.42,0,0,0-.49-.13.13.13,0,0,0,0-.06l.14,0a2.37,2.37,0,0,0,.84,0A2.08,2.08,0,0,0,19.31,14a1.21,1.21,0,0,0,.24-.53,1,1,0,0,0,0-.3l0-.12v0l0,0,0-.06-.74-1.78.25-.5h0s0,0,0,0a1.94,1.94,0,0,0-.47-1.68,2,2,0,0,0-.43-.34l-.44-.28-.12-.06A.9.9,0,0,0,17.85,8a.62.62,0,0,0,.2-.42s0-.07,0-.1v0s0,0,0,0l0-.06a.48.48,0,0,0-.28-.23.64.64,0,0,0-.41,0l-.13,0a3.1,3.1,0,0,0,.26-.55,5.61,5.61,0,0,0,.34-1.14,2.22,2.22,0,0,0-.16-1.35A3,3,0,0,0,16.38,3a6.13,6.13,0,0,0-.9-.4,9.34,9.34,0,0,0-1-.27A11.73,11.73,0,0,0,12.45,2a12.18,12.18,0,0,0-2,.06,7,7,0,0,0-1.81.46,4.22,4.22,0,0,0-1.27.82,2.35,2.35,0,0,0-.59.94,2,2,0,0,0-.08.77s0,.06,0,.09a.45.45,0,0,0-.22-.1H6.26l-.08,0A.48.48,0,0,0,6,5.27a.56.56,0,0,0-.07.13,1.29,1.29,0,0,0,0,.47,2.9,2.9,0,0,0,.2.87h.06a8.14,8.14,0,0,1,.08-.85,1.2,1.2,0,0,1,.13-.39l0,0a.79.79,0,0,1,0,.28c0,.14,0,.27,0,.41s0,.54-.08.81a4.45,4.45,0,0,0-.58-.15l-.17,0h-.1l-.1,0-.29.1a16.09,16.09,0,0,0-1.9,1h0l-1.28,1A.14.14,0,0,0,1.8,9c0,.11.1.19.25.2h.09a18.8,18.8,0,0,0,1.7,1,8.34,8.34,0,0,0,1,.45,1.57,1.57,0,0,0,.31.08l.22,0c0,.24,0,.49,0,.73a5.59,5.59,0,0,1-.06.83l0,.09s0,.07,0,.13a.43.43,0,0,0,.08.31.71.71,0,0,0,.39.21,1.39,1.39,0,0,0,.39,0l.3,0h.31l.62,0h0a.27.27,0,0,0,.2-.06l.42.17a4.18,4.18,0,0,0-.32,1.08,2.44,2.44,0,0,0,.13,1.25,2.51,2.51,0,0,0,.34.59,2,2,0,0,0,.59.48,2.53,2.53,0,0,0,.56.23,1.16,1.16,0,0,0,0,.49h0L9,17.29a3.29,3.29,0,0,0-.39-.17,3.35,3.35,0,0,0-.89-.23s.3.16.68.42a4.78,4.78,0,0,1,.58.47,3.67,3.67,0,0,1,.53.59,3.45,3.45,0,0,1,.2.32c0,.11.11.22.16.32s.08.22.11.32a1.82,1.82,0,0,1,.08.29c.06.18.07.34.1.45v0l-1.11.19a1.79,1.79,0,0,0-.83.28,1.15,1.15,0,0,0-.18.29.4.4,0,0,0,0,.34.53.53,0,0,0,.38.23,2.52,2.52,0,0,0,.41.06.16.16,0,0,0-.07.09.15.15,0,0,0,.08.15A.37.37,0,0,0,9,21.8l.15.06.16,0h.1A1.19,1.19,0,0,1,9,22a1.31,1.31,0,0,1-.56,0,1,1,0,0,1-.25-.1l-.3-.11a2.63,2.63,0,0,0-.67-.17,2.43,2.43,0,0,0-.76,0l-.36.1-.3.14a.38.38,0,0,1-.3.05.74.74,0,0,1-.15-.08.87.87,0,0,1-.14-.12h0a.44.44,0,0,0-.47-.05h0a.14.14,0,0,0,0-.2.38.38,0,0,0-.41-.06H3.74a2,2,0,0,1,.34-.12h0c.1,0,.14-.1.11-.17A.23.23,0,0,0,4,21h0l-.16,0H3.38a2,2,0,0,1,.33-.17l.44-.17h0s.07-.05,0-.09a.13.13,0,0,0-.13,0,2,2,0,0,1-.49,0,1,1,0,0,1-.24,0l-.1,0s-.09,0-.09-.05,0,0,0-.08a.4.4,0,0,1,.16-.1l.2-.08.26-.07h0c.07,0,.1-.09.06-.14A.18.18,0,0,0,3.63,20h0a.69.69,0,0,1-.56,0,.32.32,0,0,1-.1-.17.78.78,0,0,1,0-.21s0,0,0,0H3l.08,0a2,2,0,0,1,.31,0c.24,0,.51,0,.77,0l1.63,0,.81,0H7c.13,0,.28,0,.4,0l0,0A2.93,2.93,0,0,0,7,19.36l-.4,0-.76-.07h0a4,4,0,0,1-.4-.53c-.06-.12-.15-.24-.2-.37a1.56,1.56,0,0,1-.15-.41,1.3,1.3,0,0,1,0-.44,1,1,0,0,1,.11-.44,1.42,1.42,0,0,1,.24-.41,2.16,2.16,0,0,1,.38-.36l.2-.14.13-.07L6.24,16a2.64,2.64,0,0,1,.48-.14,4,4,0,0,1,.84,0,2.47,2.47,0,0,1,.33.05,1.42,1.42,0,0,0-.29-.13,2.77,2.77,0,0,0-.92-.15,2.57,2.57,0,0,0-.65.1l-.17.06-.14,0a3.07,3.07,0,0,0-.31.17,2,2,0,0,0-.83.91,1.34,1.34,0,0,0-.1.55.59.59,0,0,0,0,.27.79.79,0,0,0,.08.26,1.41,1.41,0,0,0,.25.45,2.94,2.94,0,0,0,.32.37c.11.1.23.19.33.27l.17.13L4.2,19.11c-.27,0-.55,0-.85,0a3.2,3.2,0,0,0-.48.08.61.61,0,0,0-.26.12.4.4,0,0,0-.14.22.66.66,0,0,0,0,.34.69.69,0,0,0,.28.32.79.79,0,0,0,.26.08.26.26,0,0,0-.09.09A.16.16,0,0,0,3,20.6l.12.06.15,0a1.26,1.26,0,0,0,.27,0,1.82,1.82,0,0,0-.43.19.23.23,0,0,0-.11.14c0,.1.13.16.17.17h0l-.08.05a.22.22,0,0,0-.09.27.49.49,0,0,0,.14.11l.11,0,.18,0,.13,0h0l0,0a.23.23,0,0,0,.11.34.7.7,0,0,0,.17.06h.43l.3-.05.27-.07.05,0a1.33,1.33,0,0,0,.38.17,1.25,1.25,0,0,0,.51,0,1.15,1.15,0,0,0,.4-.15l.22-.13L6.64,22a1.77,1.77,0,0,1,.52-.05,5.62,5.62,0,0,1,.57.09l.29.09a2.66,2.66,0,0,0,.33.08,1.57,1.57,0,0,0,1.2-.26h.06l0,0a.46.46,0,0,0-.12.12.18.18,0,0,0,0,.2.39.39,0,0,0,.23.14l.2,0a1.82,1.82,0,0,0,.57,0,.21.21,0,0,0,.09.22.53.53,0,0,0,.15.08l.07,0,.2,0h.17l.12,0a.3.3,0,0,0,0,.1.52.52,0,0,0,.31.15h.37A3,3,0,0,0,13,22.65a3.11,3.11,0,0,0,.8-.62l.07-.09,0,0a1.14,1.14,0,0,1,.19-.1l.46-.2c.63-.25,1.31-.48,1.94-.76a7.78,7.78,0,0,0,.91-.47,3,3,0,0,0,.39-.29l.16-.18.09-.18H18l-.14.17-.17.14a3.16,3.16,0,0,1-.41.24c-.29.15-.61.27-.93.4-.65.24-1.33.44-2,.67a5.38,5.38,0,0,0-.51.2,1.49,1.49,0,0,0-.25.13l-.14.11a.27.27,0,0,1-.07.08,2.69,2.69,0,0,1-.69.51,2.65,2.65,0,0,1-.83.29l.15-.1h0a.15.15,0,0,0,0-.27.37.37,0,0,0-.38,0h0l-.18.08a.83.83,0,0,1-.21.06.76.76,0,0,1-.21,0h-.16s0,0,.05-.05a2,2,0,0,1,.35-.26h0a.12.12,0,0,0,0-.19.27.27,0,0,0-.3,0h0a2.91,2.91,0,0,0-.3.17,2.34,2.34,0,0,1-.24.09,1.67,1.67,0,0,1-.63.06.5.5,0,0,1-.16,0l0,0s0,0,0,0a.2.2,0,0,1,.08-.08,1.39,1.39,0,0,1,.36-.23l.15-.08h0l0,0a.05.05,0,0,0,0-.09.12.12,0,0,0-.15,0h0l-.27.13a.86.86,0,0,1-.24,0,1.33,1.33,0,0,1-.28,0l-.14,0-.13,0c-.11,0-.14-.07-.14-.1s.08-.08.16-.11h0a1.67,1.67,0,0,0,.58-.16.07.07,0,0,0,0-.08.11.11,0,0,0-.13,0,3.74,3.74,0,0,0-.45.12l-.3,0c-.26,0-.55-.07-.59-.2s.09-.32.2-.45a1.58,1.58,0,0,1,.66-.16c.53-.07,1.1-.11,1.65-.21l.43-.1a2.64,2.64,0,0,0,.4-.13,3.72,3.72,0,0,0,.72-.36,9.56,9.56,0,0,0,1.15-.86c.35-.3.69-.6,1.05-.88a7.75,7.75,0,0,1,1.12-.78,4,4,0,0,1,1.38-.39h.08a2.09,2.09,0,0,1,.47-.08,2.53,2.53,0,0,1,.48,0,1.55,1.55,0,0,1,.79.39,2.44,2.44,0,0,1,.27.3,3.71,3.71,0,0,1,.21.37,2.32,2.32,0,0,1,.24.76,2.58,2.58,0,0,1,0,.38,1.76,1.76,0,0,1-.06.39,1.34,1.34,0,0,1-.14.36,1.4,1.4,0,0,1-.27.33.86.86,0,0,1-.18.14,1.48,1.48,0,0,1-.21.13l-.24.1-.26.08a4.86,4.86,0,0,1-.55.1l-.59,0v.05c.2,0,.4,0,.6,0a3.93,3.93,0,0,0,.6-.07c.1,0,.2,0,.3-.06l.28-.1a2.06,2.06,0,0,0,.26-.12,1.88,1.88,0,0,0,.23-.16,1.49,1.49,0,0,0,.35-.36,1.77,1.77,0,0,0,.21-.41,2.13,2.13,0,0,0,.1-.42A1.55,1.55,0,0,0,20.07,18.54Z"/><path class="cls-5" d="M8,5.94,8,6l.07,0"/><path class="cls-5" d="M8,5.94A2.76,2.76,0,0,1,9.87,6c1.09.37.81.42,1,.2S9.68,5.28,8,5.94"/><path class="cls-5" d="M13.48,7.14c.57-.14,1.31.18,1.34,0s-.23-.3-1.05-.39A1.33,1.33,0,0,0,12.63,7c-.18.13.28.29.85.14"/><path class="cls-6" d="M14,11.87A1.72,1.72,0,0,0,13.71,13s.59.79.25,1a8.86,8.86,0,0,1-.84.5,2.51,2.51,0,0,1-.53-1.09c0-.42.47-.44.47-.44l-.2-1.48Z"/><path class="cls-6" d="M9.44,11.29,9.08,13.2s.63.56.36.84a6.11,6.11,0,0,1-.82.64,2.67,2.67,0,0,1-.47-.86c-.14-.48.38-1.29.38-1.29l-.08-.8Z"/></svg>