<svg id="Capa_1" data-name="Capa 1" xmlns="http://www.w3.org/2000/svg" viewBox="0 0 30.36 17.4"><defs><style>.cls-1{fill:#0070a2;}.cls-2{fill:#f05050;}.cls-3{fill:#b3d335;}.cls-4{fill:#f5a4c7;}.cls-5{fill:#fbc9b7;}.cls-6,.cls-9{fill:#231f20;}.cls-7{fill:#acd03d;}.cls-8{fill:#fcd2be;}.cls-9{fill-rule:evenodd;}</style></defs><title>5-30meses</title><path class="cls-1" d="M15.64,8l-1.25.5-.19.71,1.2-.33s.42-.79.24-.88"/><path class="cls-2" d="M14.32,8.53l1.2-.41a.62.62,0,0,0-.09-.19l-.73-.5-1.21.35Z"/><path class="cls-3" d="M14.39,8.48l-.12.71L14,9.13s-.71-.71-.71-.71l.16-.55Z"/><path class="cls-4" d="M27.64,11.27s2.34.91,2.54,1.08a2.87,2.87,0,0,1,.23,1.73c-.16.2,0,1.52-1.36,1.77a6.93,6.93,0,0,1-3.15-.47S23.19,13,23.18,13s4.46-1.69,4.46-1.69"/><path class="cls-5" d="M24.14,13.38s-.23-.35-.14-.46a2.86,2.86,0,0,1,.85-.2l4.2-.48h1a12,12,0,0,0-1.65-2.9c-.9-1-2.08-2-2.11-2.24A2.83,2.83,0,0,1,26.36,6c.12-.24.29-1-.2-1.29s-4-1.81-4.36-1.62-.92.55-.92.55a.84.84,0,0,0,0,1c.35.5.67.75.33,1.07s-.39.53-.07.66l.32.13s-.25.1-.22.22.69.18.69.18-.41.1-.43.25.33.19.33.19-.33.21-.19.28a7.13,7.13,0,0,0,1,.21A9.8,9.8,0,0,1,21,8a11.88,11.88,0,0,1-4.05-.71c-1.59-.64.45.76.45.76s.2.2-.13.34-.48.28-.32.39a7.16,7.16,0,0,0,1.56,0,4.73,4.73,0,0,0,1.58.43c1.05.14,2.12.22,2.12.22l1.07-.17s-.13.76.06,1a1.43,1.43,0,0,1,.27.58s-.53.16-.8-.11-.71-.67-.92-.68,0,.13-.24.21-.32,0-.33.19-.33.57-.25.72.32.27.47.43a8.23,8.23,0,0,0,1.45.57.42.42,0,0,1-.43.12,6.51,6.51,0,0,0-1.64,0,1.93,1.93,0,0,0-.54.47,2.68,2.68,0,0,1-1.19.1c-.37-.14-.7-.19-.74-.1s0,.05-.06.27-.15.25-.15.25l.19.18s-.88.09-.94.23a1.35,1.35,0,0,0-.19.68.6.6,0,0,0,.58.55,12.39,12.39,0,0,0,1.47-.2,8.71,8.71,0,0,0,2.5,1.1c.88.08,2,.22,3.13.29a6.71,6.71,0,0,0,2.79-.21c1-.32,1.38-1,.95-1.66A3.15,3.15,0,0,0,26,13.08c-1,.12-1.86.3-1.86.3"/><path class="cls-6" d="M22.09,5.73a.5.5,0,0,1-.28-.27s-.14,0-.13.07-.21-.25.25-.15a.89.89,0,0,1,.61.4l-.29-.14s0,.18-.16.09"/><polygon class="cls-6" points="20.5 4.7 20.52 4.63 20.52 4.63 20.5 4.7"/><path class="cls-6" d="M16.42,7.36h0m.24,0h0l.31.06a6.78,6.78,0,0,1,.91.25,4.21,4.21,0,0,0,.46.14l.49.1c.32.07.65.12,1,.16a6.63,6.63,0,0,0,1,.07,4.48,4.48,0,0,0,1-.08,2.67,2.67,0,0,0,.82-.3c.25,0,.51,0,.76,0a1.17,1.17,0,0,0-.19.39,1.57,1.57,0,0,0,0,.24,1.32,1.32,0,0,0,.05.26.67.67,0,0,1,0,.28,1,1,0,0,1-.05.23l-.69,0H20.87a2.42,2.42,0,0,1-.47,0A2.58,2.58,0,0,1,20,9.08a2.13,2.13,0,0,0-.37-.14l-.35-.1c-.23,0-.41-.08-.56-.09l-.11,0a.78.78,0,0,0,.15-.1s0,0,0,0h0a1.75,1.75,0,0,1-.86.12h-.24l-.24,0a.65.65,0,0,1-.29,0s0,0,0,0,0,0,0,0l.16-.05.22-.09c.09,0,.22-.14.23-.23a.27.27,0,0,0,0-.24,1,1,0,0,0-.29-.32h0l-.05,0A5.75,5.75,0,0,1,16.66,7.37ZM23.41,9h0a.9.9,0,0,1,.08-.28,1.61,1.61,0,0,0,.09-.26.9.9,0,0,0,0-.23,1.69,1.69,0,0,0,0-.35s0,0,0-.06h.27l.29,0h0s0,0,0,.05a.3.3,0,0,1,0,.16h0c0,.06,0,.1.11.12s.15,0,.16-.08h0a.49.49,0,0,0,0-.24.29.29,0,0,0-.1-.13.33.33,0,0,0-.12-.05h-.12l-.28,0h-.28a10.79,10.79,0,0,1-1.14,0l-.27,0a1.67,1.67,0,0,1-.26-.06c-.08,0-.13-.06-.11-.08l.06-.08a.12.12,0,0,0,0-.09s-.08-.06-.1-.07-.16,0-.17-.09,0,0,0-.07,0,0,0,0l0,0a2.26,2.26,0,0,1,.5-.16s.06,0,.05-.07-.05,0-.08,0h-.43a.79.79,0,0,1-.34-.07s0,0,.06-.09a.38.38,0,0,0,.09-.15.08.08,0,0,0,0-.11.27.27,0,0,0-.11,0l-.18-.08c-.11-.06-.2-.12-.14-.2a1.14,1.14,0,0,1,.25-.23c.1-.07.2-.19.16-.31a1.14,1.14,0,0,0-.13-.3C21.17,5,21,4.79,21,4.6A.93.93,0,0,1,20.88,4,1.78,1.78,0,0,1,21,3.67l.63,1c-.33,0-.41.18-.41.18.7-.23,1.63.52,1.63.52a2.6,2.6,0,0,0-1.22-.7l0-1,.38.6-.18-.78.71.87.35.53L22.73,4l.51.84,0-.64.66.79.44.45L24.21,5l.45.52L24.57,5c0-.4,0-.23,0-.23a.89.89,0,0,0,.21.5c0,.33-.32.68-.32.68l.34-.23v0h0l-.11.31c.41-.28.49-.37.87-.37h0v0l0,0a.52.52,0,0,1,0,.18.87.87,0,0,1-.49.63.78.78,0,0,1-.33.09h-.14v0l.15,0a1.06,1.06,0,0,0,.41,0l.24-.1.22-.16A1.16,1.16,0,0,0,26,6a.64.64,0,0,0,0-.2.43.43,0,0,1,.2.43l-.1.38a.85.85,0,0,0-.11.34.82.82,0,0,0,.41.64A7.32,7.32,0,0,1,27,8a9.51,9.51,0,0,1,1.79,2c.25.36.48.73.69,1.1a8.31,8.31,0,0,1,.48,1l-.25,0c-.32,0-.63,0-.93,0-.61,0-1.21.11-1.8.18s-1.19.16-1.78.26l-.22,0a2.28,2.28,0,0,0,1.15-.7,2.48,2.48,0,0,0,.32-.5l.21-.5a8.73,8.73,0,0,0,.38-1,1.17,1.17,0,0,0-.12-1h0s0,0,0,0a1.29,1.29,0,0,1-.13,1c-.15.32-.33.64-.5,1a4.68,4.68,0,0,1-.53.93,1.76,1.76,0,0,1-.95.63l-.15,0h-.15l-.31,0-.71-.16a11.94,11.94,0,0,1-1.36-.42,4.25,4.25,0,0,1-.6-.31.67.67,0,0,1-.22-.17,0,0,0,0,1,0,0l0,0a.19.19,0,0,0,0-.19s0-.08,0-.09,0,0,.05-.06a.42.42,0,0,0,.14-.3.71.71,0,0,0,0-.14v0h.12a.24.24,0,0,0,.25-.09.06.06,0,0,0,0,0h0a.36.36,0,0,1,0-.18h0l.15.11.18.1.12.06a.86.86,0,0,1,.07.1,1,1,0,0,0,.18.27.3.3,0,0,0,.1.07.28.28,0,0,0,.13,0,1,1,0,0,0,.24,0,3.71,3.71,0,0,0,.68-.11v0a1.11,1.11,0,0,0,.05.24l0,.08s0,0,0,0h0a1.9,1.9,0,0,0,.21-.29,1.36,1.36,0,0,0,.13-.3c0-.11,0-.23.07-.35s.14-.48.2-.66a2,2,0,0,1,.12-.29s0,0,0,0h0a3.2,3.2,0,0,0-.22.28,4.32,4.32,0,0,0-.4.63,2.91,2.91,0,0,0-.18.35,1,1,0,0,0,0,.24h-.11v-.45a2.82,2.82,0,0,0,0-.48c0-.09,0-.18-.05-.28a1.43,1.43,0,0,0-.07-.28A1,1,0,0,1,23.41,9Zm-.21,3.34h0l.14.06.7.22a2,2,0,0,0,.41.07h.16l-.3.06a.79.79,0,0,0-.23.08A.28.28,0,0,0,24,13a.6.6,0,0,0,.05.32h0l-.57.12a4.5,4.5,0,0,0-.58.21,5.82,5.82,0,0,0-.73-.08,6,6,0,0,0-.85,0,3.55,3.55,0,0,1-.74,0,1.58,1.58,0,0,1-.31-.09l-.14-.08-.08,0,0,0h0l0,0-.27-.07-.25,0c-.16,0-.3,0-.45,0s-.39.06-.57.09v0a.19.19,0,0,0-.08-.07l0,0h0s0,0,0,0l0,0,.13-.08c.06,0,.07-.09,0-.14l0,0,0-.09h0l.22,0,.14,0,.18,0a2.94,2.94,0,0,0,.72,0,2.8,2.8,0,0,0,.65-.15h0s.07,0,.07-.07V12.6l.08-.12.13-.09.18-.06a2.68,2.68,0,0,1,.8,0H23.2Zm-4.76.46h0v0S18.45,12.77,18.44,12.78Zm-.19.8h0l.81-.07.37,0,.16,0,.11,0,.05,0h0l.08,0,.19.08a1.76,1.76,0,0,0,.45.12,2.92,2.92,0,0,0,.89,0c.27,0,.52-.08.8-.09a3.12,3.12,0,0,1,.61,0l-.58.46h0a.06.06,0,0,0,0,.11.15.15,0,0,0,.16,0h0c.25-.14.5-.28.74-.43a5.15,5.15,0,0,1,.52-.2l.58-.16.89-.25h.07l.56-.05a4.7,4.7,0,0,1,.53,0,2.89,2.89,0,0,1,.52,0,2.35,2.35,0,0,1,.49.11,2.92,2.92,0,0,1,.44.19,3.41,3.41,0,0,1,.37.25,4,4,0,0,1,.29.29,2.49,2.49,0,0,1,.21.32,1.42,1.42,0,0,1,.08.18l0,0s0,0,0,0l0,.08s0,.1,0,.15a.51.51,0,0,1-.07.15,1,1,0,0,1-.25.27,2,2,0,0,1-.38.23,5.42,5.42,0,0,1-.93.35h0A.2.2,0,0,0,27,16h-.76l-1,0-.52,0-.53,0a9.28,9.28,0,0,1-1.05-.08c-.35,0-.69-.11-1-.18l-.5-.09-.44-.16a5.7,5.7,0,0,1-.82-.41l-.78-.46,0,0a.28.28,0,0,0-.18,0l-1,.18-.23,0a1.5,1.5,0,0,1-.49,0h.1l.16,0-.12-.08-.13-.05-.07,0h0l0,0h.06s0,0,0,0h0l.13,0,.13,0a.31.31,0,0,0-.08-.07l-.09-.05h-.06a.41.41,0,0,1-.11-.06.78.78,0,0,0,.26,0l.14,0-.11-.07a1.13,1.13,0,0,0-.2-.09c-.06,0-.08,0-.12-.05a.25.25,0,0,1,0-.07h0a1,1,0,0,0,.22,0h.2s0,0,0,0l0,0h0v0c0-.05-.25-.07-.31-.12s-.05-.1,0-.15a.57.57,0,0,1,.27-.06h.44Zm10.64,2.13h0l-.64.07h0a2.4,2.4,0,0,0,.47-.27,1.33,1.33,0,0,0,.35-.36,2,2,0,0,0,.09-.22.91.91,0,0,0,0-.23l0-.12a.42.42,0,0,1,0-.06l0,0c0-.06-.05-.12-.09-.19a2.33,2.33,0,0,0-.27-.37,2.2,2.2,0,0,0-.35-.33A4.92,4.92,0,0,0,28,13.3c-.17-.07-.34-.14-.53-.2a3.59,3.59,0,0,0-.57-.11,4,4,0,0,0-.6,0,5.23,5.23,0,0,0-.57.06l-.54.09-.55.08-.52.07c0-.2,0-.44.28-.44l.88-.1L27,12.56c.59-.06,1.18-.12,1.77-.16.3,0,.59,0,.88,0s.6,0,.59.16a8.42,8.42,0,0,1,0,1.23,6.2,6.2,0,0,1-.06.62,1.84,1.84,0,0,1-.16.6,1.14,1.14,0,0,1-.45.48A2,2,0,0,1,28.89,15.71ZM16.19,7.16a.15.15,0,0,0-.08.11.11.11,0,0,0,0,.06.12.12,0,0,0,.05.08.43.43,0,0,0,.1.09,5.75,5.75,0,0,0,.77.42.87.87,0,0,1,.18.22s0,.06,0,.07l0,0a.53.53,0,0,1-.17.08,1.92,1.92,0,0,0-.25.11.36.36,0,0,0-.11.14.11.11,0,0,0,0,0v.06a.28.28,0,0,0,.17.25.8.8,0,0,0,.33.08,1.12,1.12,0,0,0,.27,0l.22,0,.22,0a2.67,2.67,0,0,0,.48-.08l.14-.05a2.59,2.59,0,0,0,.63.3l.36.1a2.82,2.82,0,0,0,.43.05l.46,0,.45.11a2.46,2.46,0,0,0,.47.1,3.56,3.56,0,0,0,.47,0,3.38,3.38,0,0,0,.45,0l.39,0a2.53,2.53,0,0,0,.56-.17l0,0a1.11,1.11,0,0,0-.07.26,2.64,2.64,0,0,0,0,.28,1.12,1.12,0,0,0,0,.27,1.35,1.35,0,0,0,.08.24,1.43,1.43,0,0,0,.22.34l.08.07a3.92,3.92,0,0,1-.48,0,.74.74,0,0,1-.17,0l0,0,0,0a1.06,1.06,0,0,1-.1-.25.44.44,0,0,0-.1-.15,1.07,1.07,0,0,0-.19-.13.35.35,0,0,1-.12-.07l-.12-.1-.08-.07a.5.5,0,0,0-.21-.07.45.45,0,0,0-.23.06.27.27,0,0,0-.1.09.31.31,0,0,0-.09.17h0a.43.43,0,0,0-.32.11.16.16,0,0,0,0,.13v.07l0,.12a.33.33,0,0,1-.05.2l0,0a.07.07,0,0,0,0,0,.19.19,0,0,0,0,.1.35.35,0,0,0,.08.15.12.12,0,0,1,0,.07.12.12,0,0,0,0,.09.19.19,0,0,0,.05.09,1.37,1.37,0,0,0,.29.2c.21.1.4.21.63.3l.65.24-.14,0a5.07,5.07,0,0,0-.87,0l-.22,0-.21,0a1.05,1.05,0,0,0-.21.06l-.21.06-.19.07-.18.11a1.59,1.59,0,0,0-.13.13l0,.09-.56,0a2,2,0,0,1-.56-.06l-.12,0-.15,0a1.31,1.31,0,0,0-.41-.06.74.74,0,0,0-.27.06.25.25,0,0,0-.15.21.28.28,0,0,0,.11.22l0,0a.41.41,0,0,0-.05.09.17.17,0,0,0,0,.13l.08,0h.05l0,0h-.08l-.19,0h-.19a.74.74,0,0,0-.46.18.22.22,0,0,0-.08.18.2.2,0,0,0,.11.13.3.3,0,0,0-.11.06.12.12,0,0,0,0,.14.18.18,0,0,0,.09.08.28.28,0,0,0-.06.08.21.21,0,0,0,0,.08.37.37,0,0,0-.07.1.23.23,0,0,0,.14.26l.1,0a.84.84,0,0,0,.41.16.88.88,0,0,0,.28,0h.25l.86-.08a6.08,6.08,0,0,0,1.64.87,4.11,4.11,0,0,0,.53.13c.2,0,.38,0,.55,0l1.05.1c.35,0,.7.11,1.05.17a7.14,7.14,0,0,0,1.06.13A6.67,6.67,0,0,0,27,16.06a.22.22,0,0,0,.18.08,8.63,8.63,0,0,0,.93-.09c.3,0,.59-.07.9-.13a2.17,2.17,0,0,0,.82-.35,1.21,1.21,0,0,0,.45-.57,4.84,4.84,0,0,0,.19-1.24c0-.42.07-.82.09-1.24a.29.29,0,0,0-.11-.21,1,1,0,0,0-.24-.11l-.17,0a7.31,7.31,0,0,0-.37-1.05c-.18-.38-.39-.76-.6-1.14a8.76,8.76,0,0,0-1.73-2.13c-.18-.16-.39-.33-.58-.47a.57.57,0,0,1-.28-.44.35.35,0,0,1,.06-.19c.51-.5,2-.38,2.12-2s-2-2.68-3-2.8a6.56,6.56,0,0,0-3.3.36L22,2.42l-.2.1-.06,0a1.91,1.91,0,0,0-1.24,2.08l.17-.49a.89.89,0,0,0,.11.5c.1.19.23.37.34.56a1.17,1.17,0,0,1,.13.28c0,.08,0,.15-.13.23a1.28,1.28,0,0,0-.26.26.14.14,0,0,0,0,.18.48.48,0,0,0,.17.12l.19.09.08,0v0a.47.47,0,0,1-.09.12l-.06.07a.12.12,0,0,0,0,.12.5.5,0,0,0,.24.1l.23,0h.06l-.19.07-.07,0s0,.07,0,.08a.4.4,0,0,0,0,.11.39.39,0,0,0,.26.16h0a.29.29,0,0,0-.07.1s0,.11.05.14a.39.39,0,0,0,.14.08,2.83,2.83,0,0,0,.58.11h.13a5.55,5.55,0,0,1-.71.13,6,6,0,0,1-1,0l-1,0-1,0-.48-.07A1.8,1.8,0,0,1,18,7.59c-.3-.11-.58-.23-.89-.33a3.17,3.17,0,0,0-.49-.13A.58.58,0,0,0,16.19,7.16Z"/><path class="cls-6" d="M13.48,8.46h0a2.85,2.85,0,0,0,0-.29,1.38,1.38,0,0,0,0-.2c.12.1.24.2.37.29a4.58,4.58,0,0,0,.49.31h0l0,0L14.08,9,13.9,8.8c-.13-.12-.28-.23-.42-.34m.95.58h0c0-.13.05-.26.08-.4h0s0-.05,0-.07A2.48,2.48,0,0,1,15,8.33l.57-.13a3.31,3.31,0,0,0-.45.47,4,4,0,0,0-.51.23Zm.9-1h0a2.58,2.58,0,0,1-.37.19,2.43,2.43,0,0,1-.54.17,3.28,3.28,0,0,0-.31-.34l-.24-.21a4.88,4.88,0,0,0,.83-.4,1.7,1.7,0,0,0,.34.37A3.15,3.15,0,0,0,15.33,8.05Zm-2.24.45a.08.08,0,0,0,0,.07l0,0c.13.13.26.27.4.39s.29.25.45.38h0a.27.27,0,0,0,.29,0l.07-.07s0,0,0-.06l.48-.15c.2-.07.37-.16.55-.24h0a.08.08,0,0,0,0,0,2.51,2.51,0,0,0,.28-.65l.19-.05L15.75,8a2.51,2.51,0,0,0-.47-.3,2.86,2.86,0,0,0-.56-.24h0a6.45,6.45,0,0,0-1.28.24l-.27.08.16.14c0,.09-.08.17-.11.26S13.12,8.39,13.09,8.5Z"/><path class="cls-1" d="M16.09,7.75,13.94,8l-1.66-1a.72.72,0,0,1,.65-.22c.47,0,1.81,0,1.81,0s1.33.69,1.35.89"/><polygon class="cls-2" points="14.04 8.02 15.89 7.7 16.09 7.75 15.25 9.29 13.38 9.77 14.04 8.02"/><path class="cls-7" d="M13.44,9.29s.62-1.09.62-1.09L12.39,7.08,12,8.49Z"/><path class="cls-4" d="M8.25,11.19s1.45.6,1.15,1.09A6.35,6.35,0,0,1,7.54,13.5l-3.75-.14s-.88-.69-1-1.06A1.28,1.28,0,0,1,3.21,11a8.7,8.7,0,0,0,1-.88Z"/><path class="cls-8" d="M11,8.65a2.31,2.31,0,0,0,.66-.36c.25-.23.23-.66.51-.62s.25.28.22.42-.06.13.08.26,1.32.06,1.36.21-.74.32-.74.32S14,8.9,14,9s-.71.31-.71.31.39.21.3.33a3.35,3.35,0,0,1-.67.37l-1.08-.17-2.94.31s.27.19.22.84.34.83-.61,1a8.18,8.18,0,0,1-3.37-.28c-.81-.27-1.37-.65-1.27-1.59A4.86,4.86,0,0,1,4.38,8.1c.23-.2.74-.49.88-.93s.41-.73.19-.86a1.59,1.59,0,0,1-.87-1.23c-.07-.79.59-2.22,1.49-2.31a11.12,11.12,0,0,1,3-.19c.46.2,2.08,1.32,2.09,1.6s-.5.58-.6,1.06a5.74,5.74,0,0,0-.1,1.11A1.66,1.66,0,0,1,9.26,7.4a7.12,7.12,0,0,1-1.56.09l.22.1,0,.23A2.35,2.35,0,0,1,9,7.86C9.63,8,11,8.65,11,8.65"/><path class="cls-8" d="M4.06,12.36a2.8,2.8,0,0,1,3.23.47l.27.47a4.61,4.61,0,0,0,.94-.38c.24-.18.58-.47.58-.47a5.67,5.67,0,0,1,1.57.65c.45.36,1,1.28,0,1.7a5.16,5.16,0,0,1-2.09.34L7.44,15a1.41,1.41,0,0,1-1.19.42,5.06,5.06,0,0,1-1.84-.62s.1.36-.27.29A3.13,3.13,0,0,0,3.21,15c-.32,0-.55.16-.87,0s-.43-.65-.48-1.06.11-1.53.46-1.56a2.12,2.12,0,0,1,.67.08l.42.52s-.46-.51.65-.64"/><path class="cls-6" d="M8.37,5.11c-.36-.23-1.83.2-1.83.2A2.83,2.83,0,0,1,8,4.94c.66.06.54.26.54.26Z"/><path class="cls-6" d="M7.92,5.29c.29,0,.23.12.23.12L8,5.39a.36.36,0,0,0,0,.12c0,.08-.24.14-.42.06s-.06-.17-.06-.17H7a8.38,8.38,0,0,1,.9-.1"/><path class="cls-6" d="M9.76,5.48c.22,0,.56,0,.47.14A.59.59,0,0,0,10,5.53c-.08,0,.06,0,0,.12a.26.26,0,0,1-.33.07c-.15-.06.12-.18-.15-.15,0,0,0-.06.24-.09"/><path class="cls-6" d="M7.34,6.35s.36.11.8.2a3.58,3.58,0,0,0,1,0c-.16,0-.16.14-.33.24a1.73,1.73,0,0,1-1-.1.79.79,0,0,1-.51-.37"/><path class="cls-6" d="M6.05,6l0,0,0,0"/><path class="cls-6" d="M2,13.8H2a3.11,3.11,0,0,1,0-.43.78.78,0,0,1,0-.22c0-.07,0-.14,0-.21a.93.93,0,0,1,.07-.2.55.55,0,0,1,.14-.17.77.77,0,0,1,.37-.12v0a1.09,1.09,0,0,0,.18.19,1.22,1.22,0,0,0,.26.18s0,0,0,0a.7.7,0,0,0,.32.41,2.82,2.82,0,0,0,.4.24,5.2,5.2,0,0,0,.72.32c.4.16.65.23.65.23l0,0-.58-.3c-.18-.1-.4-.22-.63-.37a3.59,3.59,0,0,1-.33-.25.48.48,0,0,1-.2-.27c0-.14.4-.32.77-.44a5.63,5.63,0,0,1,1.31-.26,1.75,1.75,0,0,1,.69.05,1.72,1.72,0,0,1,.54.34,3.11,3.11,0,0,1,.7.95,1.59,1.59,0,0,1,.16,1,1.19,1.19,0,0,1-.82.69,2.19,2.19,0,0,1-1.19,0,3.5,3.5,0,0,1-.54-.2l-.5-.24c-.63-.32-1.14-.6-1.5-.8l-.57-.31,0,0s.16.14.47.38.7.51,1.24.83c0,0,0,0,0,.06a.09.09,0,0,1,0,.07l0,0h0A.33.33,0,0,1,4,14.9a1,1,0,0,1-.15-.21.21.21,0,0,0-.24-.07c-.08,0-.13.08-.12.14h0a.08.08,0,0,1,0,0l0,0h0l0,0a.25.25,0,0,0-.25,0,.1.1,0,0,0,0,.14l0,0a.58.58,0,0,0,.1.12h0s-.09,0-.13-.09a.71.71,0,0,1-.1-.14l0,0a.09.09,0,0,0-.1,0,.06.06,0,0,0,0,.06h0a.88.88,0,0,0,.09.2v0h0a.25.25,0,0,1-.11,0,.83.83,0,0,0-.16-.21h0a.14.14,0,0,0-.14,0c-.05,0-.06.06,0,.09h0l0,.06a1,1,0,0,1-.3-.3.36.36,0,0,1,0-.09l0,0v-.05a1.55,1.55,0,0,1,0-.21c0-.14,0-.29,0-.43M2.49,15Zm5.33,0h0a1.07,1.07,0,0,0,.26-.46.78.78,0,0,0,0-.14l.24,0,.38,0a.68.68,0,0,0,.17,0,.56.56,0,0,1-.16,0,1.7,1.7,0,0,1-.3-.12l-.35-.18a2.25,2.25,0,0,0-.31-.69l-.08-.1L8,13.28a2.5,2.5,0,0,0,.47-.18,2.66,2.66,0,0,0,.45-.29l.2-.16.12-.13.22.08a7.22,7.22,0,0,1,.73.34,3.21,3.21,0,0,1,.41.27,2,2,0,0,1,.37.34.8.8,0,0,1,.19.47.62.62,0,0,1-.2.46,1.6,1.6,0,0,1-.51.3l-.3.1-.08,0H10l-.16,0-.63,0-.6,0Zm1.41-3.16h0a.19.19,0,0,1,0,.2.91.91,0,0,1-.1.13L9,12.32l-.18.14-.18.15c-.25.19-.52.38-.73.52l-.23.13A4,4,0,0,0,7,12.5a2.2,2.2,0,0,0-.57-.39l-.17,0,.62.1a7.57,7.57,0,0,0,1.34.11,2.87,2.87,0,0,0,.65-.12A.85.85,0,0,0,9.23,11.86Zm1-1.91h0a14.29,14.29,0,0,1-1.6.08l-.39,0c-.13,0-.26,0-.4,0l-.77-.15a10,10,0,0,1-1.46-.49l0,0A7.22,7.22,0,0,0,7,10c.25.07.51.14.79.2a5.53,5.53,0,0,0,.83.11H9a2.18,2.18,0,0,1,0,.28c0,.14,0,.32,0,.52v.36H9v.11a.34.34,0,0,1-.05.14c-.09.18-.41.27-.79.3a10.75,10.75,0,0,1-1.27,0,10.71,10.71,0,0,1-1.36-.16,4.34,4.34,0,0,1-.64-.2,1.55,1.55,0,0,1-.48-.32,1.22,1.22,0,0,1-.31-.89,4.14,4.14,0,0,1,.1-.93,7.2,7.2,0,0,1,.23-.86,2.64,2.64,0,0,1,.39-.7,1.79,1.79,0,0,1,.28-.27l.16-.1.09-.07.08-.09a.94.94,0,0,0,.16-.55,2,2,0,0,0,0-.32l.27.24a4.18,4.18,0,0,0,.92.56,4.23,4.23,0,0,0,.57.19l.3.06.14,0h.1a.46.46,0,0,0-.07.14.3.3,0,0,0,.09.3A.58.58,0,0,0,8,8.2l.08,0,.05,0a3,3,0,0,1,.36.26c-.43-.21-.86-.42-1.31-.61l-.43-.18a2.24,2.24,0,0,0-.48-.13,1.37,1.37,0,0,0-1,.16l0,0a1.36,1.36,0,0,1,.89-.08,4.13,4.13,0,0,1,.81.35l1.57.83a.26.26,0,0,0,.24,0h0a1.26,1.26,0,0,1,.33-.14,1.33,1.33,0,0,1,.4,0h.2l.25,0a2.79,2.79,0,0,0,.5,0,3,3,0,0,0,.52,0,1.2,1.2,0,0,0,.51-.18.39.39,0,0,0,.13-.2,1,1,0,0,1,.07-.15.82.82,0,0,1,.2-.26.39.39,0,0,1,.28-.12s0,0,0,.08a.39.39,0,0,1,0,.15c0,.11-.06.21,0,.36l.08,0h.07l.13,0h.72l.23,0,.09,0,0,0a.81.81,0,0,1-.28.12l-.45.09c-.05,0-.08,0-.07.08s0,0,.08,0h0c.2,0,.41,0,.61.05l.28,0,.08,0h0l0,0-.1,0a1.1,1.1,0,0,1-.26,0,3.6,3.6,0,0,1-.56-.08.21.21,0,0,0-.22.08c0,.06,0,.12.08.14h0l.49.2.21.12,0,0h-.26a2.71,2.71,0,0,1-.51-.12.3.3,0,0,0-.3.07c-.05.07,0,.15.08.2h0l.08,0L12,9.74h-.12Q11.09,9.88,10.28,10Zm3.31-.58h0l.21,0A.71.71,0,0,0,14,9.26s0,0,.06,0h0l0,0s0-.07,0-.11A.17.17,0,0,0,14.05,9a.67.67,0,0,0-.18-.07h-.06l0,0a.64.64,0,0,0,.21-.25.45.45,0,0,0,0-.28A.37.37,0,0,0,14,8.2h0c.33-.06.66-.12,1-.2l.85-.19a3.93,3.93,0,0,1-.42.7,4.25,4.25,0,0,0-.25.39v0l0,.05h0c0,.09-.08.18-.13.27l-.44.11a.34.34,0,0,0-.34,0,.12.12,0,0,0,0,.09l-.35.11,0-.06-.13-.09Zm.44.26h0l.27,0,0,0h0a1.81,1.81,0,0,1,.31.18l.05,0-.07,0h-.08a.7.7,0,0,1-.18,0A1.66,1.66,0,0,1,14,9.63Zm.71.2Zm0,0Zm.3-.27h0l-.07,0,.22,0a1.57,1.57,0,0,1,.29.14s0,0,0,0h0l-.19,0Zm.47.11Zm.25-.31h-.35l.11-.21h.12l.13,0a.32.32,0,0,1,.13.05l0,0v0h0s0,0,0,0A.26.26,0,0,1,15.77,9.35Zm.28-.72h0a.11.11,0,0,1,0,0l0,.07a.32.32,0,0,1-.2.11h-.15l.11-.3a.31.31,0,0,1,0-.08h.1a.32.32,0,0,1,.15,0S16.05,8.59,16.05,8.63Zm-2.44.11h0a.07.07,0,0,0,0,0,.14.14,0,0,0,0,.06h-.25A1,1,0,0,0,13.61,8.74Zm.27-.56h0l.07,0a.26.26,0,0,0-.11.07.49.49,0,0,0-.17.18l-.1,0-.25,0-.48,0a1.75,1.75,0,0,1-.4,0c0-.06,0-.19,0-.29a1,1,0,0,0,0-.18s0-.14-.16-.21h-.05c0-.13.08-.25.11-.37a14.21,14.21,0,0,0,1.47.87Zm-3.56.3h-.19l-.23,0-.28,0a2,2,0,0,0-.54.08l-.21.07a.08.08,0,0,0,0,0A.87.87,0,0,0,8.46,8L8.34,8l-.1,0-.09,0-.1-.09a3.24,3.24,0,0,1,.47.06A3.14,3.14,0,0,1,9,8a1.57,1.57,0,0,1,.23.09l.25.12A5.29,5.29,0,0,0,10.32,8.48ZM7.93,7.39h0l-.56-.07a3.39,3.39,0,0,1-.52-.15,3.53,3.53,0,0,1-.93-.47,3,3,0,0,1-.68-.65h0a1.53,1.53,0,0,1-.18-.18.1.1,0,0,0,0,0,.28.28,0,0,0,.2,0,.19.19,0,0,0,.1,0,.06.06,0,0,0,0-.1.13.13,0,0,1,0-.2.63.63,0,0,0,.07-.12s0-.1-.06-.1l0,0-.09-.08-.12-.07a.22.22,0,0,0-.12,0,.12.12,0,0,0-.1,0,.11.11,0,0,0,0,.07.32.32,0,0,0,0,.06h0l0-.05a.09.09,0,0,1,0,0s0,0,0,0H5l.06.06a.35.35,0,0,0,.11.09l.06,0s0,0,0,0,0,.08,0,.12a1.75,1.75,0,0,1,0,.24s0,0,0,0H5.16a.07.07,0,0,1,0,0V5.68h0l-.07,0a.18.18,0,0,0,0,.07.13.13,0,0,0,0,.06l-.17-.22c-.11-.27-.13-.56.07-.61s.62.31.62.31a.59.59,0,0,0,.22.46l0-.31L6.05,6a1.25,1.25,0,0,1,0-1,2.28,2.28,0,0,1,1.1-1l-.42.52,1.45-.63-.85.85,1.1-.61-.37.6.61-.34-.31.36,1-.57-.47.65,1-.22-.39.26L10.6,4.3,10,4.91l1-.44-.17.19a1.27,1.27,0,0,0-.25.37c0,.06-.05.11-.07.16a1,1,0,0,0-1.2.23c-.21.31,0,.47,0,.67s-.43.21-.43.21c.22.09.27,0,.48,0s.13-.13,0-.41.15-.47.42-.62a1,1,0,0,1,.72,0l-.06.18a2.91,2.91,0,0,0-.11.83c0,.06,0,.16,0,.2a.15.15,0,0,1,0,.08.59.59,0,0,0,0,.08,1.35,1.35,0,0,1-.33.29,2.26,2.26,0,0,1-.43.24A2.88,2.88,0,0,1,9,7.3a2.34,2.34,0,0,1-.54.08A3.37,3.37,0,0,1,7.93,7.39Zm-3.75,4h0a3.08,3.08,0,0,0,1.28.51L6,12,5.6,12a5.66,5.66,0,0,0-1.46.19,3.07,3.07,0,0,0-.62.24,1,1,0,0,0-.32.28l-.08-.12A1.08,1.08,0,0,1,3,12.39a.65.65,0,0,1,0-.21A1.55,1.55,0,0,1,3,12c0-.07,0-.15,0-.23a1,1,0,0,1,.09-.22.94.94,0,0,1,.12-.22c0-.07.07-.14.12-.2a1.62,1.62,0,0,0,.13-.19,2.57,2.57,0,0,0,.21-.27h0a1.39,1.39,0,0,0,.1.33A1.48,1.48,0,0,0,4.18,11.42ZM1.54,13.79a1.83,1.83,0,0,0,0,.47,1.05,1.05,0,0,0,.06.24l0,.07,0,0a.5.5,0,0,0,.08.12,1.06,1.06,0,0,0,.5.39l.2,0h.15a.25.25,0,0,0,.09,0s0,0,0,0l.12,0h.09l.05,0a.3.3,0,0,0,.15.08h.13l.1,0h0l.08.05a.48.48,0,0,0,.22,0h.06l0,0h0a.12.12,0,0,0,.06-.06h0a.53.53,0,0,0,.25.07.38.38,0,0,0,.16,0l.1-.06A.17.17,0,0,0,4.43,15l.47.26a4.52,4.52,0,0,0,.61.25,2.67,2.67,0,0,0,1.58,0,1.88,1.88,0,0,0,.59-.33,8.39,8.39,0,0,0,.92.13,6,6,0,0,0,.62,0,5,5,0,0,0,.74-.05l.18,0h0l.06,0,.09,0,.35-.14a1.3,1.3,0,0,0,.5-.45A.91.91,0,0,0,11.3,14a2.18,2.18,0,0,0-.1-.52,1.15,1.15,0,0,0-.3-.46,2.07,2.07,0,0,0-.48-.31,3.45,3.45,0,0,0-.9-.25l-.24,0a.71.71,0,0,0,.12-.18.43.43,0,0,0,.06-.18.3.3,0,0,0-.16-.28h0l0,0a.66.66,0,0,0,.06-.22v-.18c0-.11,0-.22-.05-.32a4.39,4.39,0,0,0-.1-.52,1.15,1.15,0,0,0-.08-.26c.42,0,.83,0,1.24,0s1.06-.1,1.58-.18c.33.06.66.11,1,.14h.15a.3.3,0,0,0,.13,0,.25.25,0,0,0,.14-.06.14.14,0,0,0,.07-.14l0-.05h.1a.65.65,0,0,0,.2,0h.07l0,0s.09,0,.11-.11a.14.14,0,0,0,0-.11H14a.72.72,0,0,0,.26.3.82.82,0,0,0,.23.11l.15,0h.25L15,10a.24.24,0,0,0,.13-.13h0a1,1,0,0,0,.36,0,.71.71,0,0,0,.22,0l0,0,0,0,0,0a.17.17,0,0,0,.06-.08c.05-.06,0-.15,0-.2l-.15-.09h.11l.12,0a.75.75,0,0,0,.13-.06l0,0s0,0,0,0v0a.13.13,0,0,0,0-.12A.23.23,0,0,0,16,9.07L16.18,9a.43.43,0,0,0,.16-.2.34.34,0,0,1,0-.09.31.31,0,0,0,0-.1.29.29,0,0,0-.17-.2.63.63,0,0,0-.3,0l-.06,0a3.44,3.44,0,0,1,.28-.66s0,0,0-.06a0,0,0,0,0,0,0h0l-1,.1c-.31,0-.61.06-.91.1A15.5,15.5,0,0,0,12.4,7h0c.33,0,.66,0,1,.06s.7,0,1,0l.73.32a7.23,7.23,0,0,0,.86.29,5.73,5.73,0,0,0-.67-.48c-.23-.14-.48-.28-.73-.41a.32.32,0,0,0-.14,0h0c-.37,0-.75,0-1.12.08s-.72.1-1.07.18a.21.21,0,0,0-.11,0,.09.09,0,0,0,0,.06c0,.2,0,.4.07.6a.72.72,0,0,0-.41.14,1.33,1.33,0,0,0-.28.31c-.07.1-.11.24-.16.26a.93.93,0,0,1-.35.09h-.12l-.23-.11C10.4,8.24,10,8.09,9.71,8l-.28-.12c-.1,0-.21-.06-.31-.09a2.42,2.42,0,0,0-.58,0,1.72,1.72,0,0,0-.5.1l0,0a.61.61,0,0,1,0-.12,3.66,3.66,0,0,0,1.19-.07,3.3,3.3,0,0,0,.58-.2,2.22,2.22,0,0,0,.47-.3,1.23,1.23,0,0,0,.34-.38s0-.07,0-.11a.31.31,0,0,0,0-.13c0-.09,0-.13-.05-.2a2.75,2.75,0,0,1,0-.81,1.77,1.77,0,0,1,.2-.57,2.93,2.93,0,0,0,.61-.58c.47-.53.11-1.26-.41-1.71A4,4,0,0,0,8.32,1.7,4.3,4.3,0,0,0,4.49,3.39a1.89,1.89,0,0,0,0,1.85c.07.3.31,1.07.31,1.07l.1-.3.21.58.09-.28.12.34,0-.33.13.15a2.1,2.1,0,0,1-.06.38,1,1,0,0,1-.22.46.1.1,0,0,0,0,0L5,7.39a1,1,0,0,0-.21.11,1.76,1.76,0,0,0-.37.29A2.46,2.46,0,0,0,4,8.56a3.42,3.42,0,0,0-.24.9,4,4,0,0,0,0,1,.5.5,0,0,1,0,.12l0,0a2.49,2.49,0,0,0-.36.21l-.2.17a1.26,1.26,0,0,0-.2.2,1,1,0,0,0-.17.24,1.23,1.23,0,0,0-.12.26,1.35,1.35,0,0,0,0,.29.86.86,0,0,0,.05.27.51.51,0,0,0,.07.15.87.87,0,0,0-.48.07,1,1,0,0,0-.26.19,1.5,1.5,0,0,0-.15.23,1.6,1.6,0,0,0-.1.23,1.55,1.55,0,0,0-.07.23A2.44,2.44,0,0,0,1.54,13.79Z"/><path class="cls-9" d="M5.44,6.47l.87,1.14-.63.09s-.79-.82-1.25-1.35-.19-2.16-.19-2.16a3.19,3.19,0,0,0,1.2,2.28"/><path class="cls-9" d="M8.88,7.62l-.21.8s-1-.49-.75-.83,1,0,1,0"/></svg>