<svg id="Capa_1" data-name="Capa 1" xmlns="http://www.w3.org/2000/svg" viewBox="0 0 24.06 20.4"><defs><style>.cls-1{fill:#f5a4c7;}.cls-2{fill:#ffcc64;}.cls-3{fill:#acd03d;}.cls-4{fill:#bcbec0;}.cls-5{fill:#0070a2;}.cls-6{fill:#fbc8ba;}.cls-7{fill:#f05050;}.cls-8,.cls-9{fill:#231f20;}.cls-9{fill-rule:evenodd;}</style></defs><title>6-30meses</title><path class="cls-1" d="M20,18.24s1.89-.4,1.93-1.25.47-.53.47-.53a1.15,1.15,0,0,1,.88,1.09c0,.92.06.87,0,1.12s-.72.53-.72.53Z"/><polygon class="cls-2" points="1.39 14.46 10.5 14.46 23.99 19.77 1.1 19.77 1.39 14.46"/><path class="cls-3" d="M6.6,15.57c-1.28.11-3.07,0-2.93.73s1.33.94,2.6,1.05,2.9-.3,2.79-.89S8,15.18,6.6,15.57"/><path class="cls-4" d="M5.84,12.62v3.79s1.14.33,1.25.16,0-2,0-2.59,0-1.36,0-1.36Z"/><path class="cls-5" d="M11.91,18.38a10.5,10.5,0,0,0,3.14-.07c.54-.27,1-.77.74-.88A9.16,9.16,0,0,0,13,17.16c-1.23.07-2.21.19-2,.71s1,.51,1,.51"/><path class="cls-6" d="M7.09,8.82v.09a1.42,1.42,0,0,0,.42,1,1.47,1.47,0,0,0,.74.26s-1,1.63-.72,2.1,1.67.89,1.67.89l3.58.12.51.24L13,15.33l7.22,2.91s1.63-.43,1.7-1.08.19-1.83.22-1.95.68-2.55,0-3.86a2.5,2.5,0,0,0-2.09-1.54c-.47,0-1.22-.36-1.24-.9s1.46-2.15,1.52-2.38a4.88,4.88,0,0,0-1-2.39,12.06,12.06,0,0,0-3-1.1,48.19,48.19,0,0,0-5,1.33S10.77,5.73,11,6.22s1.08,1,1.14,1.75.21,1.13.63,1.21l1.65.38s.14.21-.57.37a7.71,7.71,0,0,0-1.74.8s.4-.24,0-.68-1-1.1-1-.69v.92s-.75.27-.88,0S10,8.91,9.57,9s-.24.83-.24.83l-.2-.13S9,9.87,9,10l0-.15a5.74,5.74,0,0,1-1.87-1"/><path class="cls-7" d="M9,10S6.77,9,6.83,8.11s1.59-.63,1.59-.63a9,9,0,0,1,2.87,1.84s-.71.42-.4.74-.13.44-.53.1-.75-1-.9-.9a2.24,2.24,0,0,0-.33.44Z"/><path class="cls-8" d="M15.45,6.11c-.93.1-.74.38-.74.38l.16-.14c.49-.33,2.58.24,2.58.24a4,4,0,0,0-2-.48"/><path class="cls-8" d="M14.22,8s-.63,0-.63-.28.28-.51,0-1a1.37,1.37,0,0,0-1.73-.25l0,.07a1.58,1.58,0,0,1,1.06,0c.38.21.8.45.62.85s-.28.49,0,.59.38.15.68,0"/><path class="cls-8" d="M15.19,6.77l.2,0a.46.46,0,0,1,0,.17c0,.1.34.18.6.07s.07-.24.07-.24l.71,0s-.87-.12-1.27-.12-.32.18-.32.18"/><path class="cls-8" d="M13,6.91c-.32,0-.8,0-.65.21A.72.72,0,0,1,12.59,7c.11,0-.07.06,0,.17a.39.39,0,0,0,.47.09c.2-.09-.18-.25.2-.22,0,0,0-.09-.34-.12"/><path class="cls-8" d="M13.86,8.44c.22.05.22.19.47.32a2.23,2.23,0,0,0,1.36-.17c.58-.19.69-.52.69-.52s-.49.16-1.1.3a5.06,5.06,0,0,1-1.42.07"/><path class="cls-8" d="M15.49,8.9c-.5.24.49.2.67,0s-.19-.23-.67,0"/><path class="cls-8" d="M18.17,7.48l0,0,0,0"/><path class="cls-8" d="M19.11,6.89a.22.22,0,0,1,0,.29s-.08.07,0,.13a.21.21,0,0,0,.13.07.5.5,0,0,0,.27,0c.09,0,.13-.11.11-.16l-.06-.1-.09,0h0v.07s0,0,0,.07a.06.06,0,0,1-.05,0,.17.17,0,0,1-.1,0h-.05s0,0,0,0,0-.22,0-.34,0-.13,0-.16,0,0,0,0l.09,0a.87.87,0,0,0,.14-.12l.08-.1s0,0,0,0l.07.05.05.06h0l0-.08a.16.16,0,0,0,0-.1.18.18,0,0,0-.13-.06.22.22,0,0,0-.15,0,.41.41,0,0,0-.16.11.58.58,0,0,0-.12.1l-.07.06s-.1.09-.07.14a.54.54,0,0,0,.09.15"/><path class="cls-8" d="M15.52,17.31a3.67,3.67,0,0,0-.42-.07,7.09,7.09,0,0,0-.74-.06l-.57,0h0c.15,0,.35,0,.56,0a5,5,0,0,1,.72.1,1.27,1.27,0,0,1,.65.29c.08.14-.11.32-.36.44l-.18.09-.2.06c-.15,0-.31,0-.48.06-.33,0-.68.05-1,.05a9,9,0,0,1-1,0,4,4,0,0,1-.92-.14.66.66,0,0,1-.46-.44c0-.17.25-.3.48-.36a3.94,3.94,0,0,1,.7-.14l.57,0h0a8,8,0,0,0-1.31.11,1.56,1.56,0,0,0-.4.13.4.4,0,0,0-.27.3.74.74,0,0,0,.48.66,3.29,3.29,0,0,0,1.07.26,10.31,10.31,0,0,0,1.11.05c.37,0,.74,0,1.11-.09a5.17,5.17,0,0,0,.54-.11,1.07,1.07,0,0,0,.26-.11,1.16,1.16,0,0,0,.22-.13,1.06,1.06,0,0,0,.32-.31.32.32,0,0,0,0-.4,1,1,0,0,0-.41-.21"/><path class="cls-8" d="M12.05,17.7a.94.94,0,0,0,.31.18,1.61,1.61,0,0,0,.37.12,3.24,3.24,0,0,0,.46.05,2.53,2.53,0,0,0,.48,0,1.55,1.55,0,0,0,.38-.12.78.78,0,0,0,.23-.13.36.36,0,0,0,.07-.07H14l-.75,0h-.77l-.39,0"/><path class="cls-8" d="M21.87,15h0a6.38,6.38,0,0,0-.19.72v.06l0,0,.07.16a1.21,1.21,0,0,1,.05.18,1.47,1.47,0,0,1,0,.36,1.37,1.37,0,0,1-.21.72l-.12.16a1.92,1.92,0,0,1-.14.15,1.77,1.77,0,0,1-.37.27,3.2,3.2,0,0,1-.68.25l-7.22-2.85a.14.14,0,0,1,0-.06,4.7,4.7,0,0,0,.15-.62,6.2,6.2,0,0,0,.1-.63c0-.08,0-.15,0-.2l.08,0a5.6,5.6,0,0,0,1.46.4,8.61,8.61,0,0,0,1.52,0A11.26,11.26,0,0,0,17.84,14,10.88,10.88,0,0,0,19,13.77a15.5,15.5,0,0,0,1.67-.55c.39-.15.6-.25.6-.25l0,0-.65.16-1.74.38a23.71,23.71,0,0,1-2.47.37,8,8,0,0,1-1.39,0,6.56,6.56,0,0,1-1.39-.26,4.05,4.05,0,0,1-1.2-.58,3,3,0,0,1-.79-.82,2.25,2.25,0,0,0-.35-.44,1.78,1.78,0,0,0-.57-.33,5.83,5.83,0,0,0-.61-.18,1.43,1.43,0,0,1-.43-.16,1.19,1.19,0,0,1-.41-.56,1.18,1.18,0,0,1-.17-.5,1,1,0,0,1,0-.33,3.21,3.21,0,0,0,.47.87h.05A3.32,3.32,0,0,1,9.4,9.49a.52.52,0,0,1,.06-.23.2.2,0,0,1,.16-.09h0s0,0,0,.05a1,1,0,0,1,.07.23,1.15,1.15,0,0,0,.2.59,1.06,1.06,0,0,0,.84.43,1.17,1.17,0,0,0,.32,0l.12,0,.1-.05s.09,0,.18-.16a.17.17,0,0,0,0-.1s0,0,0-.05l0,0a.47.47,0,0,1,0-.1.86.86,0,0,1-.05-.23.11.11,0,0,1,0-.05l.08.06.14.12a.54.54,0,0,0,.15.08.87.87,0,0,1,.16.2,1.71,1.71,0,0,1,.22.48.48.48,0,0,0,.14.32,1.11,1.11,0,0,0,.37.2c.51.18,1.06.23,1.54.36a2.64,2.64,0,0,1,.66.29,1.09,1.09,0,0,1,.41.42l0,.09.15,0c.72-.22,1.45-.42,2.14-.68l.07,0,0,0a3.72,3.72,0,0,1,.49-.48,3.54,3.54,0,0,1,.63-.39,3.84,3.84,0,0,1,.79-.25,4.07,4.07,0,0,1,.87-.09v0a3.65,3.65,0,0,0-1.85.16l-.21.08-.19.1a2.26,2.26,0,0,0-.37.22,3.14,3.14,0,0,0-.54.48c-.64.22-1.26.48-1.89.73a1.86,1.86,0,0,0-.47-.35,3.41,3.41,0,0,0-.71-.29c-.26-.08-.52-.13-.77-.19a3.11,3.11,0,0,1-.71-.23.63.63,0,0,1-.24-.16c-.05-.06,0-.11,0-.21h0l.3-.1.44-.15a2.5,2.5,0,0,0,.25-.09l.25-.08c.34-.12.68-.21,1-.28l.11,0,.24,0h.22l.16.12a1.53,1.53,0,0,1,.33.34.72.72,0,0,1,.18.39.39.39,0,0,1,0,.19l0-.05A.64.64,0,0,0,16,10.7a.77.77,0,0,0,0-.45,1.61,1.61,0,0,0-.18-.42l.2,0,.18,0,.14,0,.31-.11.26-.12a3.15,3.15,0,0,0,.47-.3,3,3,0,0,0,.69-.7l-.05,0a7.15,7.15,0,0,1-.88.54,5.11,5.11,0,0,1-.48.22l-.24.09-.24.06-.15,0-.12,0-.26,0h-.54l-.56-.07A4.12,4.12,0,0,1,14,9.27h0c-.29-.08-.59-.15-.86-.25a2.37,2.37,0,0,1-.4-.15,1.21,1.21,0,0,1-.32-.22.79.79,0,0,1-.22-.6,3.33,3.33,0,0,0-.06-.69A1.62,1.62,0,0,0,12,7c-.06-.12-.12-.21-.18-.31s-.25-.4-.36-.61l-.1-.17a2,2,0,0,0,.33.22l-.54-.58,0-.07,1.46.61-.85-.83,1.63.76-.57-.35L14.13,6l-.69-.89,1.38.76-.46-.5.88.47L14.68,5l1.58.82L15,4.64l2.06.84-.62-.71A3.27,3.27,0,0,1,18.07,6.1a1.81,1.81,0,0,1,.1,1.38l.31-.69.09.43a.8.8,0,0,0,.28-.65s.43-.55.85-.45.2,1-.15,1.35l-.22.26h0a2.35,2.35,0,0,0-.61.92,1.06,1.06,0,0,0-.05.53.84.84,0,0,0,.37.52,1.6,1.6,0,0,0,.35.18,1.37,1.37,0,0,0,.44.06,1.77,1.77,0,0,1,.6.07,2.89,2.89,0,0,1,.53.26c.18.11.34.22.5.34a2.62,2.62,0,0,1,.42.39,2.57,2.57,0,0,1,.29.44,2.71,2.71,0,0,1,.24,1,4.52,4.52,0,0,1-.06,1,6.3,6.3,0,0,1-.2,1,5.08,5.08,0,0,0-.26.71M11,10ZM7.6,15.55h0a2.78,2.78,0,0,1,.55.14A1.49,1.49,0,0,1,8.7,16a.21.21,0,0,1,.08.11.16.16,0,0,1,0,.1,1.22,1.22,0,0,1-.06.31.75.75,0,0,1-.52.45,4,4,0,0,1-1,.17,4.87,4.87,0,0,1-.55,0c-.18,0-.38,0-.56,0A7.9,7.9,0,0,1,5,17.06a3,3,0,0,1-.92-.26.81.81,0,0,1-.44-.5c0-.13,0-.15,0-.22A1,1,0,0,1,4,15.93a7,7,0,0,1,1.3-.28l.49-.07.09.66H5.75l-.49,0-.51-.05a1.29,1.29,0,0,0,.4.24,3.19,3.19,0,0,0,1.1.25,4.19,4.19,0,0,0,.62,0,2.87,2.87,0,0,0,.52-.12,1.38,1.38,0,0,0,.32-.15l.11-.06H7.31c-.29,0-.65,0-1,0l-.37,0c.09-.59.15-1.17.18-1.75s.06-1.08.06-1.62h.66c0,.51,0,1,.06,1.54s.1,1.15.19,1.72c0-.21.06-.43.09-.65Zm15.81,1.57a.83.83,0,0,0-.17-.26,1.15,1.15,0,0,0-.23-.21,1.23,1.23,0,0,0-.49-.18h-.14a1.72,1.72,0,0,0,0-.32,1.6,1.6,0,0,0-.05-.21.44.44,0,0,0-.06-.16c.05-.23.1-.45.16-.67a6.2,6.2,0,0,1,.21-.7h0a4.42,4.42,0,0,0,.12-1c0-.17,0-.34,0-.51a4.8,4.8,0,0,0-.09-.5,4.43,4.43,0,0,0-.13-.49,4.78,4.78,0,0,0-.19-.48,3.87,3.87,0,0,0-.27-.48,2.89,2.89,0,0,0-.36-.44,5.82,5.82,0,0,0-.45-.4,2.65,2.65,0,0,0-.6-.36,2.06,2.06,0,0,0-.8-.11.83.83,0,0,1-.5-.14A.71.71,0,0,1,19,9.13a.86.86,0,0,1,0-.45A2.43,2.43,0,0,1,19.23,8l.06.43L19.44,8l.15.38.25-.81.16.41s.28-1.09.37-1.51a2.63,2.63,0,0,0-.18-2.58c-.8-1.38-3.31-2.51-5.46-2.27s-2.91.67-3.61,1.32S10,4.56,10.65,5.3l.08.09c0,.05,0,.11,0,.17a4.38,4.38,0,0,0,.24.66,4,4,0,0,0,.36.63c.07.1.16.2.23.29a1.57,1.57,0,0,1,.21.28,1.39,1.39,0,0,1,.18.63,1.2,1.2,0,0,0,.21.68,1.24,1.24,0,0,0,.31.29l.39.23a5.73,5.73,0,0,0,.88.33h0l.28.08a3.75,3.75,0,0,0-.58.13,2.77,2.77,0,0,0-.9.49c-.06,0-.1.09-.14.12a1.87,1.87,0,0,0-.14-.44.93.93,0,0,0-.22-.29c-.07-.06-.14-.09-.15-.11l-.11-.09a1.54,1.54,0,0,0-.26-.24l-.11-.07-.08,0a.41.41,0,0,0-.16,0l-.12,0L11,9a4.13,4.13,0,0,0-.52-.65A3.71,3.71,0,0,0,9.41,7.6a3.45,3.45,0,0,0-.84-.27,2.52,2.52,0,0,0-.48,0H7.83l-.22,0a1.25,1.25,0,0,0-.89.43.66.66,0,0,0,0,.68A1.34,1.34,0,0,0,7,8.82H7a.72.72,0,0,0,0,.25v.12a.57.57,0,0,0,0,.14.91.91,0,0,0,.16.24,2.78,2.78,0,0,0,.44.39,4.23,4.23,0,0,0,.42.25,3.23,3.23,0,0,0-.24.58c-.07.23-.15.47-.2.7a2.2,2.2,0,0,0-.07.37,1.63,1.63,0,0,0,0,.38,1.16,1.16,0,0,0,0,.18,1,1,0,0,0,.11.2.73.73,0,0,0,.18.17,1,1,0,0,0,.22.14,3.17,3.17,0,0,0,.51.2,4.37,4.37,0,0,0,.52.12,7.74,7.74,0,0,0,1.07.1,10.35,10.35,0,0,0,2.09-.16v0l-2-.16c-.16,0-.33,0-.49-.06l-.48-.07-.47-.08a2.47,2.47,0,0,1-.41-.14.54.54,0,0,1-.17-.08s-.11-.06-.14-.11S8,12.39,8,12.34l-.09-.16a1.59,1.59,0,0,1-.1-.33,1.93,1.93,0,0,1,0-.34,2.37,2.37,0,0,1,.72-1.29l.09-.09L8.42,10a10.54,10.54,0,0,1-.92-.62,1.25,1.25,0,0,1-.16-.17.47.47,0,0,1-.06-.09l0-.05.28.23c.16.11.32.2.46.28s.29.13.39.18l.37.13-.3-.18c-.09-.07-.21-.14-.32-.23s-.24-.2-.37-.32a3.46,3.46,0,0,1-.35-.4,1.45,1.45,0,0,1-.26-.47.47.47,0,0,1,0-.45.65.65,0,0,1,.49-.22l.22,0h.17a1.58,1.58,0,0,1,.38,0,4,4,0,0,1,.72.19,6.71,6.71,0,0,1,.6.31c.18.11.35.22.5.33a5.62,5.62,0,0,1,.66.56l.09.08a.49.49,0,0,0-.13.1.48.48,0,0,0-.05.11,1.27,1.27,0,0,0,0,.32,1.81,1.81,0,0,0,0,.31s0,0,0,.08h-.1a.51.51,0,0,1-.39-.21,1.45,1.45,0,0,1-.2-.47,1.22,1.22,0,0,0-.12-.31.48.48,0,0,0-.21-.17l-.15,0-.05-.07a1.48,1.48,0,0,0-.54-.45,2.31,2.31,0,0,0-.76-.24,1.78,1.78,0,0,0-.4,0,2,2,0,0,0,.26.19c.16.11.37.23.58.35l.59.28A.34.34,0,0,0,9.25,9a.4.4,0,0,0-.15.18.59.59,0,0,0,0,.32.24.24,0,0,0,0,.08,1.05,1.05,0,0,0-.23.44.89.89,0,0,0,.05.57,1.22,1.22,0,0,0,.44.72,1.77,1.77,0,0,0,.58.24l.56.16a2.43,2.43,0,0,1,.49.22,3.32,3.32,0,0,1,.39.37,8.13,8.13,0,0,0,.92.8,6.54,6.54,0,0,0,1,.59.88.88,0,0,0-.21.19,1.18,1.18,0,0,0-.2.28,1.55,1.55,0,0,0-.13.36,1.1,1.1,0,0,0,0,.36,1.84,1.84,0,0,0,.05.25l-2-.79-.06,0H7.27q.06-.81.06-1.62v-.17H5.65v.17c0,.54,0,1.08,0,1.62H1.1v.36H5.73c0,.3,0,.6.08.9h-.5l-.62,0a5.38,5.38,0,0,0-.79.13,1.69,1.69,0,0,0-.45.18.47.47,0,0,0-.16.21s0,0,0,.06v.13a1,1,0,0,0,.54.73,3.3,3.3,0,0,0,1.1.35,7.86,7.86,0,0,0,1.19.11H6.7l.59,0a4,4,0,0,0,1.16-.25A1.32,1.32,0,0,0,8.91,17a.79.79,0,0,0,.22-.38,1.47,1.47,0,0,0,0-.35A.34.34,0,0,0,9.09,16l-.15-.15a1.86,1.86,0,0,0-.71-.31,4.21,4.21,0,0,0-.62-.08H7.16c0-.26.06-.53.08-.8h3.39l11.79,4.66.26-.32-2.17-.85a2.91,2.91,0,0,0,.66-.17,2.27,2.27,0,0,0,.49-.26l.2-.17.16-.18a1.66,1.66,0,0,0,.35-.82s0-.06,0-.08l.09,0a1,1,0,0,1,.3.25,1.09,1.09,0,0,1,.2.42c0,.08,0,.17,0,.25a2.44,2.44,0,0,1,0,.27c0,.18,0,.38,0,.55s0,.34,0,.48a1.06,1.06,0,0,1-.08.33.17.17,0,0,1-.1.1.31.31,0,0,0,.19-.06.9.9,0,0,0,.28-.32,1.74,1.74,0,0,0,.2-.5,2.71,2.71,0,0,0,.07-.58A1.28,1.28,0,0,0,23.41,17.12Z"/><path class="cls-9" d="M20.62,5A10.81,10.81,0,0,1,20,8.65c-.61,1.22-1,1.82-1,1.82s-1.17.36-1.26.67a.79.79,0,0,1-.37.43s1.14-2.37,1.36-3,1.05-.77,1.46-2A10.75,10.75,0,0,0,20.62,5"/><polygon class="cls-9" points="14.35 9.36 14.35 11.5 13.44 11.14 13.2 9.27 14.22 9.43 14.35 9.36"/></svg>