<svg id="Capa_1" data-name="Capa 1" xmlns="http://www.w3.org/2000/svg" viewBox="0 0 34.38 23.4"><defs><style>.cls-1{fill:#fccdb5;}.cls-2{fill:#f5a4c7;}.cls-3{fill:#231f20;}</style></defs><title>1-1mes</title><path class="cls-1" d="M15.34,16.07a6,6,0,0,1-4.1-.24A2.79,2.79,0,0,1,9.5,14.22c-.28-1-.48-.92-.48-.92a11.28,11.28,0,0,1-1.34.5,2,2,0,0,0-1.2.85c-.32.4-1.39.19-1.86,0s-1.64-.84-2-.91-.26-.44-.28-.63.09-.05,0-.26.1-.22.1-.22-.17-.23-.14-.36.39-.08.39-.08a3.12,3.12,0,0,1-.12-.44c0-.22.31-.35.52-.33s.38.15.75.56a1.32,1.32,0,0,0,1.38.3,15.12,15.12,0,0,0,2.47-1.61l-.16-.14a5.91,5.91,0,0,0-1.3-.22c-.44-.09-1.14-.33-.66-.73S6,8.4,6.36,8.09s.92-.85,1.32-.83.17.18,0,.44a1.15,1.15,0,0,0-.09,1.1c.18.62,1.22.34,2.55.59s1.39.68,1.39.68l2.57-.28a38.34,38.34,0,0,1,5,.74s.1-.06.12-.58,1.16-1.72,1.91-2.31.66-.8.72-1.56a.94.94,0,0,1,.91-.9.28.28,0,0,1,.31.14.66.66,0,0,1,.41-.14c.18,0,0,.46,0,.46a3.93,3.93,0,0,0,.39-.37c.06-.09.15,0,.23.13s-.26.52-.26.52l.45-.35c.16-.11.2-.06.26,0s-.35.65-.35.65a1.63,1.63,0,0,1,.52,0c.23,0,.22,0,.25.18s-.37.34-.56.55-.75.37-1.12.71a7,7,0,0,0-.89,1.69.86.86,0,0,1,.51-.12,2.53,2.53,0,0,0,1.43-.33,11.18,11.18,0,0,1,2.12-.78,4.41,4.41,0,0,1,4.41,2.19,3.52,3.52,0,0,1-.62,4.21c-1.32,1.39-4.59,1.3-6.16.49a3.75,3.75,0,0,0-2.29-.63s0,.23-.47.79a11.55,11.55,0,0,1-4,1.9,2,2,0,0,1-2-1"/><path class="cls-2" d="M10.83,10.31s2.17-.72,2.58-.78.66,0,.83.5.28,1.06.28,1.06.08.49-.13.38-.39-.13-.43,0a4.65,4.65,0,0,0,.34,1.74,22.89,22.89,0,0,1,.62,2.37l.21.6s-2.44.47-3.29-.06a3.52,3.52,0,0,0-1-.53s2-.22,2.29-.87a2,2,0,0,0,.21-1.57c-.16-.65.05-2.69-2.5-2.8"/><path class="cls-3" d="M23.44,5.28h0m-9,5.77h0v0a.76.76,0,0,0,0,.21.55.55,0,0,0-.11-.1.33.33,0,0,0-.12-.06.34.34,0,0,0-.22,0,.24.24,0,0,0-.13.13,1.21,1.21,0,0,0-.07.2,1.23,1.23,0,0,0,0,.19,1,1,0,0,0,0,.18,2.07,2.07,0,0,0,.14.74,2.26,2.26,0,0,0,.17.35,2.8,2.8,0,0,0,.2.32,13,13,0,0,0,.47,2.26,4.62,4.62,0,0,0,.24.57l0,0-.1,0-.3.06-.29,0a5,5,0,0,1-.77,0,4.27,4.27,0,0,1-.81-.1c-.13,0-.25-.06-.37-.09L12,15.92c-.24-.09-.47-.18-.69-.28a4.46,4.46,0,0,0,.63-.05,2.49,2.49,0,0,0,.67-.21,1,1,0,0,0,.29-.18,1.37,1.37,0,0,0,.2-.22,2.43,2.43,0,0,0,.35-.92,4.87,4.87,0,0,0,.08-.93,5.63,5.63,0,0,0-.1-.92,3.51,3.51,0,0,0-.29-.92,1.67,1.67,0,0,0-.29-.44,1.59,1.59,0,0,0-.46-.38,2.38,2.38,0,0,0-.63-.26l-.15,0,.69-.26a8.72,8.72,0,0,1,1.22-.31.94.94,0,0,1,.29,0s.12.06.16.12a1.66,1.66,0,0,1,.23.41A4.89,4.89,0,0,1,14.47,11.05Zm-3.83,4.22h0a3.77,3.77,0,0,1-.53-.42l0,0L10,14.74,10,14.63a2,2,0,0,1-.11-.26c-.07-.19-.12-.38-.18-.57l-.09-.29a1.42,1.42,0,0,0-.05-.16s0-.08-.1-.14v-.09a.17.17,0,0,0-.1-.12.25.25,0,0,0-.28.05H9a.46.46,0,0,0-.07.07l-.11,0-.23.07-.38.17a4.85,4.85,0,0,1-.54.23H7.6a3.72,3.72,0,0,0-.51.12.88.88,0,0,0-.26.12.9.9,0,0,0-.2.18l-.06.1,0,.07-.09.12a.71.71,0,0,1-.23.19,1.62,1.62,0,0,1-.74.15H5.26a.47.47,0,0,1-.16,0l-.37-.13a10.23,10.23,0,0,1-1.47-.77h0a.43.43,0,0,0-.17,0H3l-.15,0-.07,0H3a.22.22,0,0,0,.23-.13c0-.08-.06-.16-.18-.17h-.2l-.16,0H3c.09,0,.18,0,.19-.11S3.12,13.05,3,13H2.84L2.68,13l-.14-.09-.06,0,0,0h.11l.14,0h0l.15,0h.17a.18.18,0,0,0,.11-.07s0-.11-.1-.12h0l-.3,0-.08,0-.13-.1-.06-.07,0-.05v0h.22l.44,0h0a.09.09,0,0,0,.1,0s0-.07-.05-.08h0l-.37-.08c-.06-.16-.11-.35,0-.46A.44.44,0,0,1,3,11.57a.16.16,0,0,1,.17,0,1.92,1.92,0,0,0,.51.46,4.07,4.07,0,0,0,.66.36,3.14,3.14,0,0,0,.4.13,1.17,1.17,0,0,0,.53,0,2.2,2.2,0,0,0,.69-.39c.36-.29.68-.58,1-.84A4.17,4.17,0,0,1,7.53,11c.19-.09.42-.19.64-.27a5.75,5.75,0,0,1,.71-.2,2.33,2.33,0,0,1,.34,0l.4,0a11.57,11.57,0,0,1,1.56,0,6,6,0,0,1,.76.13l.19.06h0a1.32,1.32,0,0,1,.38.32,1.58,1.58,0,0,1,.24.39,3.69,3.69,0,0,1,.25.86,5.42,5.42,0,0,1,.07.89A5.26,5.26,0,0,1,13,14a2.48,2.48,0,0,1-.3.84,1.15,1.15,0,0,1-.14.17,2.36,2.36,0,0,1-.2.13,2.54,2.54,0,0,1-.53.17,3.54,3.54,0,0,1-1,0A1,1,0,0,1,10.64,15.27ZM7.25,10.39h0a2.49,2.49,0,0,0-.68-.14A1.84,1.84,0,0,1,6,10.17a1,1,0,0,1-.23-.11A.52.52,0,0,1,5.63,10s0-.14.14-.26a4.6,4.6,0,0,0,.39-.38,1,1,0,0,0,.27-.5,1.07,1.07,0,0,0,0-.25.61.61,0,0,1,0-.19.51.51,0,0,1,.25-.3L7,7.93l.15-.1a.37.37,0,0,0,.07-.1V7.66a.41.41,0,0,1,.25-.3l.11,0h.11l.1,0s0,0,0,0a2.18,2.18,0,0,1-.24.41.76.76,0,0,0-.11.48,2.13,2.13,0,0,0,.37.92.14.14,0,0,0,.1.06h0l.94.12c.32,0,.63.06.94.11s.62.09.91.15a3,3,0,0,1,.43.12.6.6,0,0,1,.31.2l-.5.16-.28.1c-.35,0-.71-.05-1.07-.05H9.2a2.68,2.68,0,0,0-.43.05,6.37,6.37,0,0,0-.78.21l-.36.12A1.93,1.93,0,0,0,7.25,10.39Zm23.51-.48-.18-.23-.22-.22-.22-.22-.25-.19-.24-.2-.29-.18a4.48,4.48,0,0,0-.62-.31,4.83,4.83,0,0,0-2.89-.15,9.14,9.14,0,0,0-1.28.42L24,8.88a2.25,2.25,0,0,1-.53.19,8.33,8.33,0,0,1-.84.07c.18-.25.34-.51.49-.76l.48-.76.21-.06a1.06,1.06,0,0,0,.3-.16,1,1,0,0,0,.2-.2L24.43,7a.45.45,0,0,1,.15-.13c.05,0,.15-.06.25-.12a.85.85,0,0,0,.22-.2.26.26,0,0,0,0-.28.43.43,0,0,0-.36-.17,1,1,0,0,0-.35,0l-.08,0,.14-.16a.72.72,0,0,0,.16-.43s0-.08-.06-.13a.29.29,0,0,0-.21,0,1.43,1.43,0,0,0-.24.16l0,0,0,0a.53.53,0,0,0,.08-.24.12.12,0,0,0,0-.08s-.09-.08-.1-.07a.33.33,0,0,0-.24,0,.62.62,0,0,0-.16.1.39.39,0,0,0,0-.16s-.14-.13-.14-.11h-.18l-.15.06-.06,0a.46.46,0,0,0-.29,0,.69.69,0,0,0-.2,0,1.2,1.2,0,0,0-.33.13,1,1,0,0,0-.42.42,4.08,4.08,0,0,0-.27.91.59.59,0,0,1-.16.37,3.75,3.75,0,0,1-.34.36l-.81.7-.41.35a2.8,2.8,0,0,0-.37.41,3,3,0,0,0-.44.89,2.81,2.81,0,0,0-.14.7A16.2,16.2,0,0,0,16.77,10q-1.26-.13-2.55-.15v0a.39.39,0,0,0-.08-.14.38.38,0,0,0-.27-.2,1.67,1.67,0,0,0-.38,0,7.59,7.59,0,0,0-1.31.29l-.67.22c0-.12-.14-.21-.26-.28a1.81,1.81,0,0,0-.42-.2,6.89,6.89,0,0,0-.92-.24c-.32-.07-.64-.12-1-.16S8.36,9,8.07,9a2.6,2.6,0,0,1-.26-.32,1.2,1.2,0,0,1-.2-.41.52.52,0,0,1,.06-.42c.09-.15.2-.27.28-.43a.16.16,0,0,0,0-.17.65.65,0,0,0-.19-.09l-.09,0H7.53a.65.65,0,0,0-.21,0,.78.78,0,0,0-.5.41v0s0,0,0,0,0,0,0,0l-.09,0-.29.13A.8.8,0,0,0,6,8.3a.65.65,0,0,0-.05.27.65.65,0,0,1,0,.2,1,1,0,0,1-.22.35l-.36.37a.94.94,0,0,0-.18.25.35.35,0,0,0,0,.34.87.87,0,0,0,.31.23,1.75,1.75,0,0,0,.33.13,2.38,2.38,0,0,0,.74,0,2.47,2.47,0,0,1,.61,0l.36.11c-.09,0-.18.07-.27.12a4.39,4.39,0,0,0-.63.38c-.37.28-.68.58-1,.85a1.74,1.74,0,0,1-.51.31,1.24,1.24,0,0,1-.58-.1,4,4,0,0,1-.62-.3,1.89,1.89,0,0,1-.48-.4.58.58,0,0,0-.54-.1.69.69,0,0,0-.35.23.5.5,0,0,0,.08.54.86.86,0,0,0-.22,0,.25.25,0,0,0-.16.08.11.11,0,0,0,0,.13.31.31,0,0,0,0,.1l.06.07,0,0H2.29l-.1,0s-.07,0-.08.09a.11.11,0,0,0,0,.08.09.09,0,0,0,0,.07l.07.08.07.07h0a.53.53,0,0,0-.16,0,.2.2,0,0,0-.13.11.13.13,0,0,0,0,.14.41.41,0,0,0,.12.09h0l0,0a.19.19,0,0,0,0,.12.26.26,0,0,0,.09.14l.08.07.1.06.22.1.24.06L3,14a10.08,10.08,0,0,0,1.46.81,2.45,2.45,0,0,0,.48.16,1.34,1.34,0,0,0,.3.05h.26a2.3,2.3,0,0,0,1.06-.22,1.29,1.29,0,0,0,.37-.31A1.74,1.74,0,0,0,7,14.34l0-.08,0-.06,0,0a1.18,1.18,0,0,1,.19-.11,3.33,3.33,0,0,1,.4-.1,4.9,4.9,0,0,0,1-.24,1.46,1.46,0,0,0,.37-.2v.06l.08.29a4.43,4.43,0,0,0,.18.59,1.94,1.94,0,0,0,.13.3.82.82,0,0,0,.11.17l0,.06.08.08a3.7,3.7,0,0,0,.62.46,6.9,6.9,0,0,0,1.51.66l.4.12c.15,0,.3.07.45.09a5.43,5.43,0,0,0,.9.05,7.63,7.63,0,0,0,1.53-.23l.11.14a3,3,0,0,0,.26.24,2.61,2.61,0,0,0,.67.41,2.18,2.18,0,0,0,.87.21,2.36,2.36,0,0,0,.9-.16l.72-.3c.48-.19,1-.39,1.42-.62a5.74,5.74,0,0,0,1.24-.8,1.34,1.34,0,0,0,.55-1.1h0a.92.92,0,0,0,0-.37,1.5,1.5,0,0,0-.16-.34A2.36,2.36,0,0,0,21,13l0,0a2.19,2.19,0,0,1,.52.59,1.09,1.09,0,0,1,.13.34.75.75,0,0,1,0,.33h0a1.3,1.3,0,0,1-.57,1,5.71,5.71,0,0,1-1.23.73c-.46.21-.93.4-1.42.59l-.72.28A1.67,1.67,0,0,1,17,17a2.16,2.16,0,0,1-1.25-.54l-.24-.21a1.88,1.88,0,0,1-.16-.23,3.21,3.21,0,0,1-.22-.54,12.4,12.4,0,0,1-.47-2.24.09.09,0,0,0,0-.06,2,2,0,0,1-.21-.3,2.49,2.49,0,0,1-.16-.33,1.75,1.75,0,0,1-.14-.67,1,1,0,0,1,0-.17,1,1,0,0,1,0-.17s0,0,0-.06l0,0s.07.1.1.16a3.36,3.36,0,0,1,.16.33.18.18,0,0,0,.19.08c.09,0,.15-.08.13-.14s0-.08,0-.12v-.13a2.44,2.44,0,0,1,0-.27,1.09,1.09,0,0,1,0-.26.36.36,0,0,1,0-.11v0a2,2,0,0,1,0,.26c0,.18,0,.36,0,.54h0c0,.06.06.1.14.11a.15.15,0,0,0,.16-.1h0a1.79,1.79,0,0,1,.16-.71,1.26,1.26,0,0,1,.21-.32.5.5,0,0,1,.31-.18s0,0,0,0h0a0,0,0,0,0,0,0,.43.43,0,0,1,0,.16,2,2,0,0,1-.07.35v0c-.09.24-.17.47-.24.71,0,0,0,.08.09.09a.13.13,0,0,0,.15-.05c.1-.25.18-.49.26-.74l0-.15.06-.16.09-.16a.36.36,0,0,1,.11-.13h0a.51.51,0,0,1,.07.15,1,1,0,0,1,0,.34,2.79,2.79,0,0,1-.13.7s0,.06.06.07a.12.12,0,0,0,.12,0,1.59,1.59,0,0,1,.43-.43c.09-.07.18-.12.23-.09l0,0h0a.47.47,0,0,1,.06.19.59.59,0,0,1-.2.49,1.21,1.21,0,0,1-.24.21l-.14.09a1.36,1.36,0,0,0-.18.12.44.44,0,0,0-.09.35,1.63,1.63,0,0,0,.07.3,5.42,5.42,0,0,0,.22.56c.09.19.18.37.28.55s.21.35.34.53h0a.32.32,0,0,0,.32.09c.14,0,.21-.14.16-.23s-.2-.36-.3-.53l.55-.26c.24-.11.47-.23.7-.36l0,0-.81.21-.63.19a2.33,2.33,0,0,1-.17-.26,3.23,3.23,0,0,1-.27-.52,1.61,1.61,0,0,1-.09-.26.34.34,0,0,1,0-.21h0s.18-.12.26-.19l.05-.05,0,0a.75.75,0,0,0,.23-.24.71.71,0,0,0,.1-.3.65.65,0,0,0,0-.24.51.51,0,0,0-.2-.29.32.32,0,0,0-.27,0l0,0h0l-.08,0-.07.05a1.84,1.84,0,0,0-.22.17,2.63,2.63,0,0,0,.06-.39,1,1,0,0,0,0-.38.46.46,0,0,0-.09-.19v0h0l-.08-.06h-.16l-.08,0a.3.3,0,0,0-.08.08v0s-.06-.06-.06-.06a.47.47,0,0,0-.24-.06.75.75,0,0,0-.31.11.83.83,0,0,0-.2.16,1,1,0,0,0-.16.21.36.36,0,0,1-.05-.09.32.32,0,0,0-.15-.1H14.8a.25.25,0,0,0-.13,0,.31.31,0,0,0-.13.17l0,.05a4.27,4.27,0,0,0-.17-.85,1.48,1.48,0,0,0-.12-.29c.84.09,1.66.2,2.48.33a17.29,17.29,0,0,1,2.36.54h.08c.13,0,.24-.05.25-.14h0a4.17,4.17,0,0,1,.19-.85A3.43,3.43,0,0,1,20,8.91a2.59,2.59,0,0,1,.31-.35l.4-.36.78-.73a2.77,2.77,0,0,0,.36-.4A1.76,1.76,0,0,0,22,6.84c0-.11,0-.17.05-.25a3,3,0,0,1,.21-.85.69.69,0,0,1,.29-.32.92.92,0,0,1,.23-.09l.1,0,0,.06-.14.19c-.09.13-.2.26-.31.39h0a.1.1,0,0,0,.05.15.21.21,0,0,0,.22,0h0c.12-.13.23-.26.34-.4a1,1,0,0,0,.08-.11l.14-.13a.59.59,0,0,1,.17-.12.06.06,0,0,1,0,0,1.15,1.15,0,0,1-.1.23A4.4,4.4,0,0,1,23,6h0s0,.08.05.1a.14.14,0,0,0,.15,0l.34-.39a1.8,1.8,0,0,1,.39-.34l.07,0s0,0,0,0v0a.56.56,0,0,1-.06.2,4.64,4.64,0,0,1-.25.42s0,0,0,.06a.09.09,0,0,0,.1,0,4,4,0,0,1,.36-.35.77.77,0,0,1,.21-.14l.08,0a.08.08,0,0,1,0,.07.84.84,0,0,1-.33.64l-.3.13-.11,0h0l-.07,0a.63.63,0,0,0-.34.06,2.09,2.09,0,0,0-.46.28l0,0a2.65,2.65,0,0,1,.48-.23.51.51,0,0,1,.22,0l.06,0h.11l.18,0c.2-.06.36-.14.53-.18a.63.63,0,0,1,.23,0c.07,0,.1,0,.11.06a.13.13,0,0,1,0,.11.46.46,0,0,1-.16.11l-.25.11a.86.86,0,0,0-.26.18l-.16.18a1,1,0,0,1-.16.12.54.54,0,0,1-.19.08.74.74,0,0,1-.18,0h-.15l-.08.09a3.7,3.7,0,0,0-.29.44c-.08.16-.14.31-.2.46a3,3,0,0,0-.17.88,1.16,1.16,0,0,0-.31.07,2,2,0,0,0-.9.64,2.55,2.55,0,0,0-.62,1.4,1.83,1.83,0,0,0,.35,1.1,2.51,2.51,0,0,0,.59.59,1.92,1.92,0,0,0,.26.17l0,0a1.41,1.41,0,0,1-.22-.2,2.08,2.08,0,0,1-.47-.6,1.64,1.64,0,0,1-.21-1A2.7,2.7,0,0,1,21.68,10a1.64,1.64,0,0,1,.72-.5,2.52,2.52,0,0,1,.52-.07,5,5,0,0,0,.7-.08,7.22,7.22,0,0,0,1.15-.51A7.23,7.23,0,0,1,26,8.39a4.59,4.59,0,0,1,1.35-.2,3.4,3.4,0,0,1,1.36.27h0a2.59,2.59,0,0,0-1-.07,2.63,2.63,0,0,1,1.13.29,1.66,1.66,0,0,0-1.09,0,4.63,4.63,0,0,1,1.6.35c-1.19-.16-1.58.31-1.58.31a11.64,11.64,0,0,1,1.56.39,3.41,3.41,0,0,0-1.09-.16,10.85,10.85,0,0,1,2,.7,2.36,2.36,0,0,0-1.49,0c1.49,0,1.73.39,1.73.39a2.48,2.48,0,0,0-1.77.08,9.46,9.46,0,0,1,1.41.56,2.92,2.92,0,0,0-1.3-.08c1.17.06,1.38.57,1.38.57a1.88,1.88,0,0,0-1.24,0,2.16,2.16,0,0,1,.79.44,3.31,3.31,0,0,0-1.66.06,2,2,0,0,0-.85.42l.49-.11a2.14,2.14,0,0,0-.53.45,2.13,2.13,0,0,1-.88.41h.58l-1.2.23L27,13.68l-.87.12,1,.12-.32.11.17.19-.15.19h.3l-.39.46.2.06a2.35,2.35,0,0,1-1.63.13l.13.12-1.09-.31.77.3-.37-.09a9.15,9.15,0,0,1-1.39-.49,3.34,3.34,0,0,0-1-.25c-.25,0-.37,0-.37,0v0a1.94,1.94,0,0,1,.36,0,2.84,2.84,0,0,1,.88.3,8.15,8.15,0,0,0,1.37.58,8.35,8.35,0,0,0,2.05.37,6,6,0,0,0,2.51-.24A3.67,3.67,0,0,0,31,14,3.5,3.5,0,0,0,30.76,9.91Z"/><path class="cls-3" d="M22.64,12a1.28,1.28,0,0,1-.44-1.35c-1.13.76.44,1.35.44,1.35"/><path class="cls-3" d="M23,10.88a2.16,2.16,0,0,1,1.12-.22l-.31-.1s-.77-.25-.81.32"/><path class="cls-3" d="M23.2,11.21c.08.13.23,0,.15-.22,0,0-.24.08-.15.22"/><path class="cls-3" d="M24.51,14.41a.47.47,0,0,1-.1-.1c-.06-.08-.05-.18.05-.28-.16,0-.29.16-.28.3a.37.37,0,0,0,.07.2.73.73,0,0,0,.15.16l.19.13.23.1a1.86,1.86,0,0,0,.49.13,2.36,2.36,0,0,0,.54,0l.29,0a.88.88,0,0,0,.28-.12l.12-.09.06-.11a.51.51,0,0,0,0-.21.84.84,0,0,0-.17-.34h0a.59.59,0,0,0-.17-.1L26.11,14a1.14,1.14,0,0,1,.11.11.24.24,0,0,1,.06.09s0,.11,0,.16a.34.34,0,0,1,0,.14.22.22,0,0,1-.05.11l0,0-.05,0a.5.5,0,0,1-.13,0h-.17a2.69,2.69,0,0,1-.4,0c-.14,0-.27-.06-.41-.09l-.18-.05-.18-.08-.15-.09"/><path class="cls-3" d="M25.65,11.63c-.11-.5-.85-.44-.85-.44l.44.2s-.44,0-.28.34a.49.49,0,0,0,.53.28l-.12.26a.51.51,0,0,0,.28-.64"/><path class="cls-3" d="M23.75,9.83s.08.06.22,0l-.11.2s.72-.28.61-.52-.61-.09-.61-.09l.31,0s-.71.31-.42.4"/><path class="cls-3" d="M21.49,11a.27.27,0,0,0-.06.11.57.57,0,0,0,0,.26c0,.19.06.38.06.38h0s0-.19.05-.38a.46.46,0,0,0,0-.26A.37.37,0,0,0,21.5,11Z"/></svg>