<svg id="Capa_1" data-name="Capa 1" xmlns="http://www.w3.org/2000/svg" viewBox="0 0 28.2 25.68"><defs><style>.cls-1{fill:#0070a2;}.cls-2{fill:#b3d335;}.cls-3{fill:#f5a4c7;}.cls-4{fill:#fbc9b5;}.cls-5{fill:#231f20;}</style></defs><title>10-1mes</title><path class="cls-1" d="M3.3,24s-2.3-2.8.34-4.07,7.89-.8,7.89-.8l11,3.39L22,24Z"/><path class="cls-2" d="M10.14,18.89S10.41,20.39,14,22a15.31,15.31,0,0,0,7.13,1.14s3.62-5.23,4-6.66,1.76-4.45.76-5.63-.37-.73-3-1.85-9,1.1-9,1.1L11.68,11c-.47.2-1,1.14-1,1.14l1.44,6.19Z"/><path class="cls-3" d="M14.77,19.37l1.8.62s-.75,1.17-.44,1.5A2.92,2.92,0,0,0,17.4,22a4.37,4.37,0,0,1-1.29.39c-.55,0-2.57-.9-2.57-1.74s1.23-1.24,1.23-1.24"/><path class="cls-4" d="M16.57,20s-.58,1-.44,1.5,3,.83,3.18.66S20,22,20,22a8.62,8.62,0,0,0,1.09.8.77.77,0,0,1,.43.52c0,.13.39,1,.73,1a13.28,13.28,0,0,0,3-.63c.35-.26.47-.59.4-.73s-.13-.28,0-.32,1.21-.05,1.21-.51-.19-.54-.29-.77a7.24,7.24,0,0,1-.26-.72,3.79,3.79,0,0,1-.61.6c-.22.14-1.72.34-1.78,0s0-1.11,0-1.32-.52-.47-.52-.47a11.93,11.93,0,0,1-1.42,1.23A2.58,2.58,0,0,1,20,21,11.63,11.63,0,0,1,16.57,20"/><path class="cls-4" d="M11.1,18.28A6.09,6.09,0,0,0,12.66,20c.74.4,1,.34,1,.34l1.31-1-1.45-.53-.7-.43Z"/><path class="cls-4" d="M12.81,18.34a7.47,7.47,0,0,1-2.21-.21,20.83,20.83,0,0,1-3.21-1.62,1.81,1.81,0,0,1-1-1.06,15.13,15.13,0,0,1,1.32-2,2.38,2.38,0,0,1,1.82-1.19,5.4,5.4,0,0,1,1.8.17,2.78,2.78,0,0,1,.68.38s.13-.37,1.16-.23,3,1.52,3,1.89c0,0,.12-.69.49-.52s.23.39.62.18.87-.51,1-.34a.39.39,0,0,1,.1.32s.52-.31.49,0,.27.25.27.25a2,2,0,0,0,0,.55.91.91,0,0,1-.16.52c-.06.08-1.82,1.29-1.82,1.29l-2.34-.41s-2.17.25-2.06,2"/><path class="cls-4" d="M11,7.64A4.89,4.89,0,0,1,9.84,6.22a2.5,2.5,0,0,1-.1-1.06c0-.1-.52-1.36.12-1.51a17.6,17.6,0,0,1,3.33.18c.26,0,5.88.41,6.14.84a6.46,6.46,0,0,1,.88,1.67A16.06,16.06,0,0,0,22,8.84a8.3,8.3,0,0,1-1.24,1.76,6.71,6.71,0,0,1-4.39,1.48c-2.31-.12-.29-1.18-.38-1.36a3,3,0,0,0-.64-.57,10.61,10.61,0,0,1-1.89-.52A5.48,5.48,0,0,1,11.68,8Z"/><path class="cls-5" d="M11.68,7.43l.63.52a.7.7,0,0,0,.61-.67,1.74,1.74,0,0,1-1.24.15"/><path class="cls-5" d="M14.62,7s1.46,0,1.46-.83a4.24,4.24,0,0,1-1.82.38s.39.22.36.45"/><path class="cls-5" d="M14,8.33c0-.43,0-1.35-1.35-1.72s-1.77-.06-1.6.67a.71.71,0,0,1,.76-.49c.66,0,1.77.33,1.91.83s-.59,1.47,1,1.09c0,0-.79,0-.76-.38"/><path class="cls-5" d="M16.35,8.64a8.12,8.12,0,0,1-1.18.48c1,.54,1.18-.48,1.18-.48"/><path class="cls-5" d="M16.92,9.28a6.22,6.22,0,0,0-1.16.22,1.57,1.57,0,0,0,1.16-.22"/><path class="cls-5" d="M15.16,16.78a1.75,1.75,0,0,0-.54.25,1.56,1.56,0,0,0-.43.42,1.45,1.45,0,0,0-.2.49,1,1,0,0,0,0,.43,1.15,1.15,0,0,0,.12.29l.07.11.06-.12c0-.06.05-.16.11-.27l.06-.18a1.11,1.11,0,0,0,.09-.19,2.88,2.88,0,0,1,.22-.38,3.23,3.23,0,0,1,.61-.66c.22-.17.4-.28.4-.28a1.72,1.72,0,0,0-.6.09"/><path class="cls-5" d="M26.39,21.7h0s0,0,0,0h0m.28.47h0s0,0-.05,0l-.07.05a3.89,3.89,0,0,1-.4.18l-.15.06a.26.26,0,0,0-.08-.13,1.38,1.38,0,0,0-.69-.22h-.09l-1.82.26a.66.66,0,0,1-.44-.75,1.46,1.46,0,0,0-.4-1.21c.13-.1.27-.19.39-.3a5.3,5.3,0,0,0,.53-.53,1.46,1.46,0,0,1,.1.34,3.45,3.45,0,0,1,0,.56,1.51,1.51,0,0,0,.09.61.59.59,0,0,0,.31.32,1,1,0,0,0,.53,0c.3,0,.58-.08.87-.14a1.46,1.46,0,0,0,.8-.35l.07-.09.05.06c.05.12,0,.19-.14.25l-.1.07c-.09.1,0,.23.11.3l0,0,.15.06.06,0h0l0,0-.06.07c-.06.11,0,.23.18.27l.16,0,.05,0h0v0S26.67,22.16,26.67,22.17Zm-1.6,1.23h0a4,4,0,0,1-1.52.47,2.26,2.26,0,0,0-.85.17,1.84,1.84,0,0,1-.72.14s-.17-.08-.15-.55c0-.84-.4-1-.91-1.1-.29-.06-.53-.11-.65-.64a.24.24,0,0,0-.2-.16.39.39,0,0,0-.3,0,3.19,3.19,0,0,1-2.28,0l-.12,0H17.3l-.15,0-.17,0a2.21,2.21,0,0,1-.27-.12.44.44,0,0,1-.11-.08s-.05-.06-.08-.09a.26.26,0,0,1-.07-.11.21.21,0,0,1,0-.11,1.17,1.17,0,0,1,0-.27,2.7,2.7,0,0,1,0-.28,2.46,2.46,0,0,1,.07-.29c0-.08.05-.16.07-.23q.89.35,1.8.66c.25.08.5.17.75.24a6,6,0,0,0,.81.2c.14,0,.29,0,.44,0l.44,0c.14,0,.29-.05.42-.09l.4-.13.41-.2a1.17,1.17,0,0,1,.24.89,1.11,1.11,0,0,0,1,1.2h.13l1.86-.26a.69.69,0,0,0,.19,0s0,.07-.13.07-.3.09-.31.21.12.21.29.22a.25.25,0,0,1,.15,0C25.39,23.29,25.12,23.38,25.07,23.4Zm-8.58-1.24h0a1.4,1.4,0,0,1-.37,0,2.87,2.87,0,0,1-.41-.05,3,3,0,0,1-.43-.12,2.66,2.66,0,0,1-.39-.16,3.1,3.1,0,0,1-.36-.21,1.81,1.81,0,0,1-.3-.25,1.37,1.37,0,0,1-.22-.27,1.83,1.83,0,0,1-.14-.28,1.27,1.27,0,0,1,0-.26.65.65,0,0,1,.05-.27,1.65,1.65,0,0,1,.15-.25,3,3,0,0,1,.25-.25,4.71,4.71,0,0,1,.59-.42l.59.24,1,.4-.2.21a2.83,2.83,0,0,0-.2.28,1.82,1.82,0,0,0-.16.31,1.27,1.27,0,0,0-.05.34.83.83,0,0,0,.41.68,1.48,1.48,0,0,0,.46.21A.57.57,0,0,1,16.49,22.16ZM13,19.92h0l-.36-.24-.41-.23a2.12,2.12,0,0,1-.38-.26,1.64,1.64,0,0,1-.28-.31h0a2.36,2.36,0,0,0,.47.16,2.75,2.75,0,0,0,.81.07l.4-.07a2.52,2.52,0,0,0,.33-.14l0,0,.47.2.72.31a2.43,2.43,0,0,0-.77.27,2.4,2.4,0,0,0-.37.25,1.32,1.32,0,0,0-.24.29h0ZM9.61,17.55h0c-.15-.08-.28-.18-.41-.26L8.79,17,8,16.41l-.31-.24s0-.07,0-.1H7.8l.21,0a3.11,3.11,0,0,1,.49.16,5.4,5.4,0,0,1,.9.45l.36-.27a4.26,4.26,0,0,1-.95-.88,1.18,1.18,0,0,1-.14-.23.48.48,0,0,1-.05-.21v-.06l.24.27a6.24,6.24,0,0,0,.59.68h0L10,15.8l-.4-.44A2.94,2.94,0,0,1,9.29,15a1.28,1.28,0,0,1-.18-.41.31.31,0,0,1,0-.09h.11a.87.87,0,0,1,.16.05,1.42,1.42,0,0,1,.25.12,3.84,3.84,0,0,1,.5.32,9.33,9.33,0,0,1,.88.77l.54-.24a6.22,6.22,0,0,1-.75-1,1.37,1.37,0,0,1-.2-.48.2.2,0,0,1,0-.11c.37.36.76.71,1.19,1.06l.38.28.21.14.24.13.12.05.18.06a.79.79,0,0,0,.48,0,.42.42,0,0,0,.28-.26.54.54,0,0,0,0-.25v0a1.85,1.85,0,0,1,.33-.85.29.29,0,0,1,.15-.11s0,0,.06,0h.11s0,0,.06.05,0,.13,0,.21a2.14,2.14,0,0,0,.06.5c.05.17.13.33.17.47a1.8,1.8,0,0,1,.05.46,1.4,1.4,0,0,1-.1.45l0,0h0a2.63,2.63,0,0,0-.48.07,3,3,0,0,0-.63.2,2,2,0,0,0-.32.17,1.94,1.94,0,0,0-.29.21,2.61,2.61,0,0,0-.23.25,1.17,1.17,0,0,0-.13.28.73.73,0,0,0,0,.51.72.72,0,0,0,.16.24,4.68,4.68,0,0,1-1.12,0,1,1,0,0,1-.17,0l-.18-.1-.11-.05a.32.32,0,0,0-.3,0l0,0c-.09,0-.19,0-.28-.09A4.68,4.68,0,0,1,9.61,17.55Zm-1.83-.88h0l-.39-.16a1.33,1.33,0,0,0,.22,0l0,0,0,0,.1.07ZM18,14h0Zm-1.42.51h0a.2.2,0,0,0,.11.15.41.41,0,0,0,.45,0h0c.15-.12.32-.24.49-.35l.25-.15.13-.05h0a.27.27,0,0,1,0,.13,1.43,1.43,0,0,1-.31.41h0l0,0c-.05,0,0,.12,0,.17a.28.28,0,0,0,.28,0h0a2.28,2.28,0,0,0,.47-.46.68.68,0,0,0,.09-.25.16.16,0,0,1,.08-.06h0a.15.15,0,0,1,0,.09.21.21,0,0,1,0,.11h0a1.33,1.33,0,0,0-.24.2,3,3,0,0,0-.31.42h0a.07.07,0,0,0,0,.1.17.17,0,0,0,.18,0,1.9,1.9,0,0,0,.33-.3l.07-.07.14-.08h0v.1a.38.38,0,0,1,0,.16.2.2,0,0,1-.09.11l-.06,0-.06,0,.08.37h.06a.19.19,0,0,1,0,.1,2.68,2.68,0,0,1-.41.43,8.61,8.61,0,0,1-1,.82L15,16.25a1.38,1.38,0,0,0,.09-.39h0c.22-.06.42-.13.63-.21l.43-.18a1.66,1.66,0,0,0,.41-.26l0,0c.05-.07,0-.16-.09-.2l-.06,0-.11-.05-.08-.06a.13.13,0,0,1,0-.13,1,1,0,0,1,.35-.35l.05,0A.48.48,0,0,0,16.6,14.51Zm-3-.42h0a1.26,1.26,0,0,0-.26-.25,1.82,1.82,0,0,0-.32-.18c-.15-.06-.31-.09-.39-.13s-.16-.33-.36-.61l-.07-.09a1.06,1.06,0,0,1,.37-.07l.32,0,.37.08a7.12,7.12,0,0,1,.87.27,6.81,6.81,0,0,1,1.44.77,3.25,3.25,0,0,1,.35.28c-.05.05-.11.09-.15.14a.84.84,0,0,0-.17.34.44.44,0,0,0,.17.39.87.87,0,0,0,.18.11l-.11.08c-.11.08-.23.15-.35.22l-.45.25a1.58,1.58,0,0,0,0-.37c0-.17-.1-.32-.13-.47a2.35,2.35,0,0,1,0-.47.88.88,0,0,0,0-.27.37.37,0,0,0-.11-.17.61.61,0,0,0-.27-.12l-.24,0a.62.62,0,0,0-.27.05A.75.75,0,0,0,13.65,14.09Zm-.45,1h0a.5.5,0,0,1,0,.12l0,0h0l-.07,0-.11-.05-.17-.11L12.59,15l-.35-.27c-.45-.37-.86-.78-1.26-1.18l0,0,.1-.05-1.23-.05,1.5-.22L10.06,13s1-.09.86-.09-1.53-.37-1.53-.37l1-.16a6,6,0,0,1,.68.21,1.58,1.58,0,0,0,.23.11l.23.14a1.9,1.9,0,0,1,.33.29,2.75,2.75,0,0,1,.23.33.72.72,0,0,0,.41.34,3.91,3.91,0,0,0,.44.1,1.85,1.85,0,0,1,.31.11,1.68,1.68,0,0,1,.35.21,1.8,1.8,0,0,0-.24.42,2.63,2.63,0,0,0-.14.5h0Zm-.48,3.31h0l.85.41c-.13,0-.24,0-.35,0l-.33,0a3.65,3.65,0,0,1-.59-.16,4.28,4.28,0,0,1-.44-.2A4.94,4.94,0,0,0,12.72,18.44Zm-1.58-6.73h0a6.59,6.59,0,0,1,.59-.41,6.45,6.45,0,0,1,.74-.4A10.22,10.22,0,0,1,14,10.29l.32-.1.24-.07.11,0,.38.1.4.08h0a1,1,0,0,1,.21.2.26.26,0,0,1,0,.29.42.42,0,0,1-.14.16l-.11.12a1.49,1.49,0,0,0-.12.14.81.81,0,0,0-.15.34.48.48,0,0,0,.14.43,1,1,0,0,0,.55.23,2.21,2.21,0,0,0,.57,0c.37,0,.73-.09,1.09-.13s.74-.1,1.1-.17c.18,0,.37-.09.56-.14a4.45,4.45,0,0,0,.51-.19,6,6,0,0,0,.87-.5,3.77,3.77,0,0,0,1.05-1.15,3.92,3.92,0,0,0,.25-.51A3.26,3.26,0,0,0,22,9L22,9a1.34,1.34,0,0,0,.32.1H22v0a7.1,7.1,0,0,1,2.09.36,5,5,0,0,1,.87.42,3,3,0,0,1,.66.56l.12.15.1.18a1.25,1.25,0,0,1,.13.35,1.82,1.82,0,0,1,.06.35,2.23,2.23,0,0,1,0,.37,7.53,7.53,0,0,1-.16,1.48,11.41,11.41,0,0,1-.39,1.47c-.08.24-.16.48-.26.72s-.18.48-.29.72A10.17,10.17,0,0,1,23.32,19v0h0A5,5,0,0,1,22,20.4a5.82,5.82,0,0,1-.6.34l-.34.13-.36.08-.37,0c-.13,0-.25,0-.38,0a4.19,4.19,0,0,1-.75-.16l-.75-.22c-1-.32-2-.68-2.9-1.06-.48-.19-.94-.39-1.4-.59s-.86-.4-1.25-.61a1.19,1.19,0,0,1,0-.32.67.67,0,0,1,.05-.19,1.76,1.76,0,0,1,.09-.2,1.54,1.54,0,0,1,.32-.37l.22-.18c.08,0,.15-.11.24-.16a1.94,1.94,0,0,1,.24-.15l.23-.14.35-.2h.1c1.36.19,2.74.35,4.11.53-.14.32-.26.63-.35.89s-.15.55-.2.73-.06.28-.06.28l.17-.26c.11-.16.25-.39.43-.67.34-.56.77-1.32,1.21-2.06s.87-1.49,1.25-2c.19-.27.35-.5.48-.65L22,13a3,3,0,0,0-.31.19,7.48,7.48,0,0,0-.69.57l-.34.36c0-.17.06-.37.1-.58a6.07,6.07,0,0,0,.09-.66,1.59,1.59,0,0,0,0-.34,1.6,1.6,0,0,0-.34.26,1.56,1.56,0,0,0-.23.31,1.34,1.34,0,0,0-.14.38,1.13,1.13,0,0,0,0,.41.88.88,0,0,0,.15.34,1,1,0,0,0,.14.15,10.75,10.75,0,0,0-1,1.37,12.2,12.2,0,0,0-.6,1.2l-1.39-.24c.2-.08.38-.17.56-.26a7.11,7.11,0,0,0,.61-.39,3.37,3.37,0,0,0,.54-.47.86.86,0,0,0,.1-.16.27.27,0,0,0,0-.26s0,0-.06-.06a.61.61,0,0,0,.16-.22.71.71,0,0,0,0-.29.7.7,0,0,0,0-.12.32.32,0,0,0-.08-.15.38.38,0,0,0-.31-.15h-.07a.13.13,0,0,0,0-.06.26.26,0,0,0-.06-.15c-.06-.08-.23-.07-.3,0s0,0,0,0l0,0v0h0l0,0a.59.59,0,0,0-.4-.12,1.43,1.43,0,0,0-.28.05l-.2.08a2,2,0,0,0-.29.14.36.36,0,0,0-.09-.15.49.49,0,0,0-.23-.1.54.54,0,0,0-.19,0,1,1,0,0,0-.19.05l-.2.11-.16.11-.15.11,0,0c-.07-.09-.15-.19-.26-.31a5.27,5.27,0,0,0-1.34-1,4.7,4.7,0,0,0-.91-.39,1.88,1.88,0,0,0-.52-.08,2.05,2.05,0,0,0-.51,0,1.06,1.06,0,0,0-.37.16l-.06.05a.87.87,0,0,0-.14-.12,1.13,1.13,0,0,0-.23-.17,2.38,2.38,0,0,0-.31-.17,3.89,3.89,0,0,0-.6-.22Zm7.75-5h0l-.05,0s-.06,0,0,0Zm.15,0h0s0,0,0,0Zm-6,2.34h0a2.92,2.92,0,0,1-.73-.62c-.08-.12-.18-.25-.28-.38a1.69,1.69,0,0,0-.41-.35c-.26-.18-.49-.35-.71-.52a3.4,3.4,0,0,1-.51-.46,1.33,1.33,0,0,1-.23-.41.68.68,0,0,1,0-.28V6a1.53,1.53,0,0,0,0-1.66,20.32,20.32,0,0,0,5.89,1,3.92,3.92,0,0,1,.38.2c-.71,0-2.07,0-2.67,0-.84,0-.52.74-.52.74a3.17,3.17,0,0,1,1.9-.64c.62,0,1-.07,1.31-.08.39.22.93.59,1,1l-.14-.68L17.85,7s.17-2.66.86-1.9.94,1.31.65,1.75v0a.33.33,0,0,0-.11-.32.49.49,0,0,0-.12-.08h-.06l-.07.1,0,0a.53.53,0,0,0-.1-.2c-.06-.1-.21-.15-.24-.18a.12.12,0,0,1,0-.16c0-.06.08-.12.1-.17a.65.65,0,0,0,0-.14,1.37,1.37,0,0,0,0-.2.1.1,0,0,1,0-.09v0a.25.25,0,0,0-.21,0,.46.46,0,0,0-.27.26.36.36,0,0,0,0,.18.58.58,0,0,0,.11.2l.17.21c.09.07.1.11.07.15s-.09.09-.11.18a.31.31,0,0,0,0,.28.33.33,0,0,0,.18.17.64.64,0,0,0,.39.06.54.54,0,0,0,.2-.09c-.47.44-.51.25-.51.25s0,.31,1,.93c.86.51,1.2,1,1.92.9a7,7,0,0,1-.52.64,6.78,6.78,0,0,1-.46.5c-.18.17-.37.35-.57.52a5.06,5.06,0,0,1-.72.5,6.1,6.1,0,0,1-.85.41l-.5.16-.53.1a4.05,4.05,0,0,1-1,0c-.32,0-.62-.12-.67-.23s0-.26,0-.41l.07-.11a1,1,0,0,1,.08-.11.67.67,0,0,0,.15-.29.46.46,0,0,0-.24-.46l-.08,0a2.46,2.46,0,0,0,.61,0l.31-.05.3-.12a2.51,2.51,0,0,0,.49-.27,3.27,3.27,0,0,0,.65-.63,3.22,3.22,0,0,0,.53-1.06,1.47,1.47,0,0,0,.06-.42h-.06a4.23,4.23,0,0,1-.25.37,8.83,8.83,0,0,1-.74.94,8.11,8.11,0,0,1-.59.56l-.36.27a1.28,1.28,0,0,0-.19.12l-.27.09a2.66,2.66,0,0,1-1.15,0A4.82,4.82,0,0,1,14,9.64,8.71,8.71,0,0,1,13.05,9.06ZM9.94,6.34h0a1,1,0,0,0,.1.5s.06.08.08.12A.67.67,0,0,1,9.94,6.34ZM26.21,20.89h0v0S26.23,20.87,26.21,20.89Zm1,1.17a.45.45,0,0,0-.2-.21h0a.29.29,0,0,0-.06-.35.68.68,0,0,0-.18-.13.34.34,0,0,0,.06-.12.45.45,0,0,0-.09-.43.77.77,0,0,0-.19-.16.67.67,0,0,0-.39-.1.52.52,0,0,0-.24.08c-.05,0-.12.12-.11.13v0l0,0h0a.09.09,0,0,1,0,.05c-.05.14-.28.27-.52.34a2.73,2.73,0,0,1-.81.1.52.52,0,0,1-.29-.07s-.05-.1-.06-.19,0-.36,0-.55a1.58,1.58,0,0,0-.16-.61,1.17,1.17,0,0,0-.22-.29l-.16-.12a4.19,4.19,0,0,0,.26-.33l0,0a5.85,5.85,0,0,0,.55-.68,7.66,7.66,0,0,0,.46-.7,10.75,10.75,0,0,0,.72-1.44c.11-.24.2-.49.29-.74s.16-.49.25-.74a13.61,13.61,0,0,0,.36-1.5,5.07,5.07,0,0,0,.09-.76,5,5,0,0,0,0-.77,2.6,2.6,0,0,0-.05-.39,1.46,1.46,0,0,0-.09-.39,1.56,1.56,0,0,0-.17-.37l-.11-.18a1.43,1.43,0,0,0-.15-.18,3.69,3.69,0,0,0-1.65-1h0s.12,0-.43-.44a2.25,2.25,0,0,0-.56-.32,1.12,1.12,0,0,0-.05-.22.6.6,0,0,0-.66-.49A8.69,8.69,0,0,0,20.66,4,8.14,8.14,0,0,0,14.26,1C11.19,1,9.07,2.31,9,3.62c0,0-.89,0-.84,1.69s.12,3,3.51,3.19l.12.15a3.81,3.81,0,0,0,.93.69,5.94,5.94,0,0,0,1.15.49c.21.08.43.14.65.21a2.89,2.89,0,0,0-.57,0,3.41,3.41,0,0,0-.42,0c-.14,0-.3.05-.46.1s-.32.09-.47.15-.31.12-.45.19a4.64,4.64,0,0,0-.77.49,2.42,2.42,0,0,0-.5.53,2,2,0,0,0-.2.35A6.38,6.38,0,0,0,10,11.8a5.59,5.59,0,0,0-1.63,0,3.8,3.8,0,0,0-1.42.59,4.62,4.62,0,0,0-1,.9,6,6,0,0,0-.63,1,1.61,1.61,0,0,0-.14.52,1.31,1.31,0,0,0,.06.52,2,2,0,0,0,.71.82,4.22,4.22,0,0,0,.93.46,5.64,5.64,0,0,0,.8.21,3.72,3.72,0,0,0,.46.07l.38.26.42.28a4.34,4.34,0,0,0,.46.28,5,5,0,0,0,1,.44l.33.1,0,0,.05.06h0a1.37,1.37,0,0,0,.22.2l.07.07.3.32.07.07A24.28,24.28,0,0,0,8,18.83,16.28,16.28,0,0,0,6.11,19c-.31,0-.62.09-.92.15a9,9,0,0,0-.89.25l-.42.16-.39.19L3.13,20l-.31.26-.25.29-.17.31-.11.33c0,.1,0,.21,0,.32a2.73,2.73,0,0,0,.07.64,3.48,3.48,0,0,0,.21.62c.08.21.2.4.29.6l.37.59a.13.13,0,0,0,.1,0h0l4.44.11,2.23,0,2.22,0c1.48,0,3,0,4.45-.06q1.11,0,2.22-.06c.75,0,1.49-.05,2.23-.09v0c-.74,0-1.48-.07-2.23-.09s-1.48-.05-2.22-.06c-1.48,0-3-.06-4.45-.06l-2.22,0-2.23,0c-1.46,0-2.91.07-4.37.1L3,23.27a6.36,6.36,0,0,1-.3-.58,3.28,3.28,0,0,1-.18-.61,1,1,0,0,1,0-.3,1.08,1.08,0,0,1,0-.31,2.45,2.45,0,0,1,.08-.29l.13-.29.19-.26.25-.24.29-.21L3.8,20l.36-.16.38-.13A14.64,14.64,0,0,1,8,19.14c1.17-.08,2.35-.08,3.54-.06l.17.19c.09.11.17.23.25.34a1.93,1.93,0,0,0,.31.33l.2.14.23.12a3.38,3.38,0,0,0,.51.19l.09,0a.61.61,0,0,0,0,.19.76.76,0,0,0,.11.38,2.06,2.06,0,0,0,.29.3,2.8,2.8,0,0,0,.35.25l.73.44a5,5,0,0,0,.8.41,1.76,1.76,0,0,0,.49.14,1.87,1.87,0,0,0,.58,0,1.42,1.42,0,0,0,.54-.17,1.28,1.28,0,0,0,.23-.14,4.47,4.47,0,0,0,2.35,0,1.21,1.21,0,0,0,1,.69c.29.06.47.09.46.69s-.51.34-.19.48a5.44,5.44,0,0,0,1,.21,3.06,3.06,0,0,0,.9-.23c.16-.05.48.2.56.2a4.66,4.66,0,0,0,1.9-.52c.06,0,.59-.19.66-.57a.35.35,0,0,0-.13-.33.57.57,0,0,0,.12-.18s0,0,0,0l.23,0a3.33,3.33,0,0,0,.53-.11.58.58,0,0,0,.14-.05,1,1,0,0,0,.14-.08.5.5,0,0,0,.12-.13A.23.23,0,0,0,27.19,22.06Z"/></svg>