<svg id="Capa_1" data-name="Capa 1" xmlns="http://www.w3.org/2000/svg" viewBox="0 0 30.9 14.31"><defs><style>.cls-1{fill:#f5a4c7;}.cls-2{fill:#fbc3b2;}.cls-3{fill:#231f20;}</style></defs><title>11-1mes</title><path class="cls-1" d="M6.05,7.19s.45,3.48,1.69,4.22a4.79,4.79,0,0,0,4.44.17c1.42-.71,1.19-.65,1.58-1.52s.76-3.85.14-4.51a4.57,4.57,0,0,0-1.63-1s-1.94-.47-2,.28c0,0-4.31.21-4.19,2.36"/><path class="cls-2" d="M13.33,10.71a12.16,12.16,0,0,0,.6-3.33,5.59,5.59,0,0,0-.6-2c-.08,0-.42-.39-.42-.39s-.84-.24-.67-.69.84-.27.84-.27-.45-.33.05-.46a1.14,1.14,0,0,1,.73,0s-.18-.5,0-.49a3.54,3.54,0,0,1,.82.34s.2-.34.29-.27.49.42.49.44.27.12.27.12a1.41,1.41,0,0,1,.65.52,7.36,7.36,0,0,1,.39.66s-.28.29.51.32A3.43,3.43,0,0,1,19,5.57c.27.2.69.58.69.58L19.92,6s-1.19-1.23-.57-2.14,1.26-1,1.6-.92a3,3,0,0,0,1.93-.67,3.29,3.29,0,0,1,1.89-.52A18.69,18.69,0,0,1,28.2,3.38c.67.57.31,2.9-.57,3.8A6.22,6.22,0,0,1,25.1,8.79c-.37,0-3.24-.72-3.8-.45S20.66,9.5,20.12,10a2.44,2.44,0,0,1-1.22.51c-.75.1-3.82.07-4.55.23a4,4,0,0,1-1,.15Z"/><path class="cls-2" d="M11.79,6,10.21,4.74A2.73,2.73,0,0,0,8.64,3.69a5,5,0,0,0-3.36.41,1.53,1.53,0,0,0-.61,1s-.21-.76-.58-.63-.08.09-.4.07-.44-.06-.43.21-.35,0-.6.08a.17.17,0,0,0-.12.27s-.35-.06-.43.19,0,.28-.24.23,0,.51.13.86a11.14,11.14,0,0,0,.77,1.77,1,1,0,0,0,.45.37.58.58,0,0,1-.33.36c-.26.09-.73-.11-1,.32s.66.54.77.54.21.06.21.09a.6.6,0,0,0,.47.43c.34,0,2.37.07,2.75.09A.85.85,0,0,0,7,9.59c0-.37-.07-1.5.17-1.76a1.17,1.17,0,0,1,.46-.32s-.48,1.88,0,2.29,1.84,1.63,3,1.54a2.92,2.92,0,0,0,2.15-2.41A8.13,8.13,0,0,0,11.79,6"/><path class="cls-3" d="M21.67,8.19h0a1.36,1.36,0,0,0-.6.25,2,2,0,0,0-.69.91c-.27.33-.35.67-.69.82a3.09,3.09,0,0,1-1.2.23c-.88,0-1.75.08-2.61.15s-1.57.12-2.36.19a7.82,7.82,0,0,0,.61-2.87,4.55,4.55,0,0,0-.21-1.54,3.7,3.7,0,0,0-.71-1.26,2.36,2.36,0,0,1,.46,0h.18l.14,0c.08,0,.08,0,.09,0s0,0,0,0,0,.16,0,.26a.74.74,0,0,0,0,.3.7.7,0,0,0,.32.5,1.4,1.4,0,0,0-.09.17,1,1,0,0,0-.06.25,1.07,1.07,0,0,0,.07.5,1.42,1.42,0,0,0,.14.23l.17.21.23.2.24.16.53.31.56.28A7.2,7.2,0,0,0,17.39,9l0,0a7,7,0,0,1-1.15-.48l-.52-.3-.49-.31c-.07-.06-.16-.12-.22-.18a1.62,1.62,0,0,1-.19-.17,1.3,1.3,0,0,1-.15-.2.75.75,0,0,1-.1-.2.9.9,0,0,1,0-.43.83.83,0,0,1,.06-.21.62.62,0,0,1,.12-.19l.06-.08-.09-.06a.56.56,0,0,1-.27-.42.72.72,0,0,1,0-.25.91.91,0,0,0,0-.3A.26.26,0,0,0,14.4,5a.56.56,0,0,0-.23-.12l-.25-.06-.23,0a3.93,3.93,0,0,0-.49,0l.05-.07.08-.09a.31.31,0,0,1,.09-.07l.09,0,.09,0h.28c.1,0,.22,0,.32,0a2,2,0,0,0,.36,0,.78.78,0,0,0-.22-.21,1.52,1.52,0,0,0-.26-.14h0s0-.06.05-.09a.12.12,0,0,1,.12,0c.06,0,.1,0,.14.06s.06.08.1.1a.87.87,0,0,0,.1.08.29.29,0,0,0,.11.06l.12,0a1.19,1.19,0,0,0,.35.06l0,0a.43.43,0,0,0-.06-.26A.54.54,0,0,0,14.93,4L14.76,4l.07,0,.07-.08a.2.2,0,0,1,.15,0,.23.23,0,0,1,.14.07s.06.09.1.11l.1.09.12.07.13,0a1.16,1.16,0,0,0,.35.08l0,0A.45.45,0,0,0,16,4a.57.57,0,0,0-.23-.19l-.23-.08,0,0a.61.61,0,0,1,.18,0A1.43,1.43,0,0,1,16,4a2.08,2.08,0,0,1,.27.32,1.22,1.22,0,0,1,.15.39c0,.15.05.31.08.48a2.11,2.11,0,0,0,.15.53,1.12,1.12,0,0,0,.37.48,3.6,3.6,0,0,0,.63.3c.2.08.39.17.55.25a2.57,2.57,0,0,1,.44.22,4.07,4.07,0,0,1,.6.44l.21.18h.05a.64.64,0,0,0-.07-.24A1.61,1.61,0,0,0,19,6.74a2.29,2.29,0,0,0-.52-.28,4.68,4.68,0,0,0-.67-.15,1.67,1.67,0,0,1-.63-.2.51.51,0,0,1-.2-.45,4,4,0,0,1,0-.49,5.44,5.44,0,0,0,.64.16c.25.06.5.08.75.13a2.76,2.76,0,0,1,.4.06.69.69,0,0,1,.3.18c.07.08.11.18.17.25a1.47,1.47,0,0,0,.22.21l.18.13.1-.07L19.94,6a5.22,5.22,0,0,0,1.14.63l0,0A5.12,5.12,0,0,1,20,5.93l0,0h0a2,2,0,0,1-.48-.62,1.38,1.38,0,0,1,.1-1.65,2,2,0,0,1,.81-.58,1.41,1.41,0,0,1,.54,0,2,2,0,0,0,.74,0,2.17,2.17,0,0,0,.63-.27l.49-.3.06,0a.92.92,0,0,1,.63.3c.22.21,0,.38-.26.5,0,0-.34-.5-.65-.52s-.25.21-.25.21l.25,0a.12.12,0,0,0,0,.22c.15.11.37-.09.37-.09l.28.21a3.59,3.59,0,0,1-1.51.2c-.37-.1-.39.36-.39.36,0-.23.62-.27,1-.23a2.18,2.18,0,0,0,1.35-.35c.21-.22.23-.32-.24-.78a.58.58,0,0,0-.3-.17l.05,0,1.48-.35-.85.56.85-.09L24,2.77h1.9L24.71,3l1.6-.09-1.12.23,2.18.45L26.15,4l1.22.09-1,.38h1.76s-1.72.16-1.6,1c0,0,.07-.15.84-.41,0,0-.71.45-.74,1a1.09,1.09,0,0,1-1.25.9,4.82,4.82,0,0,1-.8-.16l1.05.42-1.24-.11a3.25,3.25,0,0,0,.83.42.66.66,0,0,1,.4.21h0a.61.61,0,0,1,.12.28.18.18,0,0,1-.08.19l-.12.05-.16,0-.37,0h-.39l-.17,0-.13-.05a.54.54,0,0,1-.19-.51h0l0,0-.1,0-.54-.17L23,7.37c-.35-.13-.68-.26-1.08-.39l0,0a2,2,0,0,0,.89.63,2.47,2.47,0,0,0,1.16.18c-.05.09-.34-.21-.35-.11a2.15,2.15,0,0,0,.41.75h0c-.41,0-1-.43-1.16-.4s-.37.07-.54.11a3.54,3.54,0,0,0-.65,0M13,11.1h0a4.16,4.16,0,0,1-.35.24l-.24.12-.27.12c-.2.07-.43.13-.67.19l-.38.06-.41,0H10.3l-.44,0-.43,0L9,11.72a3.77,3.77,0,0,1-.78-.27c-.12,0-.22-.11-.32-.16a2.77,2.77,0,0,1-.29-.22,1.92,1.92,0,0,1-.35-.47,1.31,1.31,0,0,1,0-1.23l.06-.11a2.68,2.68,0,0,0,.81,1.24,3.88,3.88,0,0,0,.87.58,4.67,4.67,0,0,0,1.07.41,2.08,2.08,0,0,0,1.33-.13,2.21,2.21,0,0,0,.82-.66,2.7,2.7,0,0,0,.42-.78,2.81,2.81,0,0,0,.18-.8,3.63,3.63,0,0,0,0-.81,4.21,4.21,0,0,0-.17-.8,5.41,5.41,0,0,0-.34-.78,6.76,6.76,0,0,0-.5-.73,6.59,6.59,0,0,0-.63-.67,7.89,7.89,0,0,0-.7-.57.28.28,0,0,1,.09-.1.15.15,0,0,1,.09-.06.31.31,0,0,1,.1,0,1.6,1.6,0,0,1,.51-.09,4.06,4.06,0,0,1,1,.13.66.66,0,0,0,.09.19h0a1,1,0,0,1,.06-.4.33.33,0,0,1,.24-.23.45.45,0,0,1,.12,0H13l.25,0,.18,0-.17.07a.46.46,0,0,0-.18.15.39.39,0,0,0-.08.29.5.5,0,0,0,0,.13l-.17,0-.29,0,.17.17a3.39,3.39,0,0,1,.77,1.36,5.22,5.22,0,0,1,.21,1.47,7.46,7.46,0,0,1-.15,1.49,8.49,8.49,0,0,1-.39,1.48l-.06.17h.06ZM3.73,9.47Zm2.62.63h0a1.1,1.1,0,0,1-.7.08A4.43,4.43,0,0,0,4,10a2.21,2.21,0,0,1-.78,0,.22.22,0,0,1-.07-.19l.09-.05.07-.07a.87.87,0,0,0,.2.12.69.69,0,0,0,.22,0,.34.34,0,0,0,.14,0A.36.36,0,0,0,4,9.7l0,0a.18.18,0,0,0,.05-.07.76.76,0,0,0,.27.06.75.75,0,0,0,.26,0l.14,0,.07,0A1,1,0,0,0,5,9.49l.14-.11a.48.48,0,0,0,.16-.26.26.26,0,0,0-.08-.29.59.59,0,0,0-.36-.11v0c.1,0,.19.09.21.14a.17.17,0,0,1,0,.18.63.63,0,0,1-.17.15l-.12.06-.11,0-.08,0H4.46a.6.6,0,0,1-.19-.08.85.85,0,0,1-.19-.14,1.36,1.36,0,0,1-.17-.17h0a.33.33,0,0,0-.36-.07c-.13.05-.18.17-.1.26h0a1.3,1.3,0,0,1,.18.23l0,.08-.06,0a1.81,1.81,0,0,1-.29-.19l0,0a.24.24,0,0,0-.22,0c-.07,0-.09.11,0,.16H3l0,.05,0,0a.23.23,0,0,1,0,.11.16.16,0,0,1,0,.09l-.05,0L3,9.68c-.07,0-.15,0-.22-.08a.29.29,0,0,0,0-.1l-.1-.15h0a.13.13,0,0,0-.11,0s-.07,0,0,.08v0h0a.5.5,0,0,1,0,.13.11.11,0,0,1,0,.08h0l-.15-.06c-.1-.05-.15-.09-.16-.13s0-.1,0-.17a.81.81,0,0,1,.21-.2L2.56,9l.13-.06.09,0H2.9a.48.48,0,0,0,.25-.11.25.25,0,0,0,.08-.23l.11,0a.65.65,0,0,0,.21.05h.22a.68.68,0,0,0,.36-.18,2.59,2.59,0,0,1,.19-.23,1,1,0,0,1,.61-.07,4.67,4.67,0,0,0,.78.08,3.1,3.1,0,0,0,.81-.11l.15-.05a.93.93,0,0,0-.17.68l0,.1C6.59,9.26,6.7,9.88,6.35,10.1ZM2.74,9.74Zm-.23-.12h0S2.51,9.63,2.51,9.62ZM7.24,9h0a2,2,0,0,0,.06.23l-.14.14a.35.35,0,0,0,0,.08A5.13,5.13,0,0,0,7,8.82l0-.1a.83.83,0,0,1,.26-.67A2.58,2.58,0,0,0,7.24,9ZM13,3.69h0l.11-.08a.58.58,0,0,1,.16,0,.76.76,0,0,1,.16,0,.78.78,0,0,1,.31.05h0a5.63,5.63,0,0,0,.46.36l.15-.07a.14.14,0,0,0,0,.09h-.08l-.23,0-.17,0-.27-.08-.33-.05H13.2a.67.67,0,0,1-.21-.1S13,3.71,13,3.69Zm1-.42h0S14,3.26,14,3.27Zm.17.13h0l.2.11a1.14,1.14,0,0,1,.16.15l0,0a.35.35,0,0,0-.15.09l0,0a3.18,3.18,0,0,1-.3-.36l-.06-.08h0Zm.68-.08Zm.23.09h0a.4.4,0,0,1,.12.1.61.61,0,0,1,.07.1l-.1.08h0A1.28,1.28,0,0,1,15,3.41l0,0A.25.25,0,0,1,15.11,3.41Zm.07.3ZM2.09,5.53Zm.74-.61Zm27.46-1a4,4,0,0,0-1.63-1.49,8.69,8.69,0,0,0-2.39-.85,6.15,6.15,0,0,0-1.38-.14,3.87,3.87,0,0,0-1,.18h0l-.35.13a6.88,6.88,0,0,0-1,.59,3.68,3.68,0,0,1-.94.52,1.4,1.4,0,0,1-.54,0,1.74,1.74,0,0,0-.75,0,1.46,1.46,0,0,0-.57.31,2.31,2.31,0,0,0-.38.39,1.46,1.46,0,0,0,0,1.81,2,2,0,0,0,.5.58h-.08a.59.59,0,0,0-.15-.17,1.48,1.48,0,0,0-.38-.18L19,5.51l-.17-.09a2.57,2.57,0,0,0-.32-.22l-.2-.08-.2-.06A1.56,1.56,0,0,0,17.7,5a2.3,2.3,0,0,0-.74.07,2.67,2.67,0,0,0,0-.4.93.93,0,0,0-.2-.51,1.81,1.81,0,0,0-.41-.37,1.48,1.48,0,0,0-.5-.21l-.08,0,.17-.09a.22.22,0,0,1,.18,0,.34.34,0,0,1,.1.16h.05a.28.28,0,0,0-.05-.21.31.31,0,0,0-.15-.08.59.59,0,0,0-.19,0,1.17,1.17,0,0,0-.33.11v0a.68.68,0,0,0-.13-.18,1.39,1.39,0,0,0-.22-.15l-.13,0h-.21a.37.37,0,0,0-.3.13l-.12-.05-.21,0L14,3a.69.69,0,0,0-.33.07.2.2,0,0,0-.11.25l.06.11a.74.74,0,0,0-.21,0l-.21,0L13,3.5l-.18.09a.2.2,0,0,0-.11.18.36.36,0,0,0,0,.09h0l-.17.05a.51.51,0,0,0-.28.2.41.41,0,0,0-.07.24,1.42,1.42,0,0,0,0,.2,3.76,3.76,0,0,0-1-.18,1.52,1.52,0,0,0-.6.07l-.13,0-.12.07a.82.82,0,0,0-.19.18.06.06,0,0,0,0,.08h0a6,6,0,0,1,1.24,1.29,5.84,5.84,0,0,1,.43.71,4.2,4.2,0,0,1,.29.74,3.64,3.64,0,0,1,.1,1.52,2.9,2.9,0,0,1-.17.75,2.46,2.46,0,0,1-.38.69,1.8,1.8,0,0,1-.66.52,1.33,1.33,0,0,1-.86.08,4.6,4.6,0,0,1-.94-.34,3.85,3.85,0,0,1-.78-.5A2.35,2.35,0,0,1,7.7,8.93a2.92,2.92,0,0,1,.15-1.51s0-.1-.07-.13a.24.24,0,0,0-.27,0,3.14,3.14,0,0,1-1.11.62,2.7,2.7,0,0,1-.69.12A6.57,6.57,0,0,1,5,8a2.91,2.91,0,0,0-.42,0,.67.67,0,0,0-.4.15c-.09.09-.12.18-.18.24a.41.41,0,0,1-.24.13.74.74,0,0,1-.59-.16,1.67,1.67,0,0,1-.41-.43,2,2,0,0,1-.24-.48,2.23,2.23,0,0,0-.15-.53c-.14-.34-.35-.66-.49-1a.82.82,0,0,1-.06-.25c0-.07,0-.16.08-.18A.18.18,0,0,1,2,5.5l.08.09s0,0,.12,0a.15.15,0,0,0,.12,0h0V5.49s0,0,0-.06l0,0v0c0-.07,0-.15,0-.17s.11,0,.18,0h0l0,.06a1.65,1.65,0,0,0,.18.32h0a.21.21,0,0,0,.17.07c.1,0,.17-.06.17-.13a.67.67,0,0,0-.1-.3.32.32,0,0,0-.08-.09.51.51,0,0,1,0-.2H3l.12,0,0,0,0,0,.42-.08a1.14,1.14,0,0,1-.05-.24.25.25,0,0,1,0-.09h0a.19.19,0,0,1,0,.09.19.19,0,0,1,0,.1.19.19,0,0,0,.19.14.22.22,0,0,0,.26-.13h0a.61.61,0,0,1,.09-.2h0l0,0,0,.08a1.25,1.25,0,0,1,.07.23A3.38,3.38,0,0,0,4.57,6a.12.12,0,0,0,.07.07.28.28,0,0,0,.28,0h0a5.85,5.85,0,0,1,1-.75A4.71,4.71,0,0,1,6.53,5l.32-.13.34-.12.35-.09.36-.06.37,0a2.41,2.41,0,0,1,.38,0H9l.37.07a5.68,5.68,0,0,1,.71.18l0,0-.35-.13-.36-.11-.37-.08-.4,0a2.64,2.64,0,0,0-.4,0,2.68,2.68,0,0,0-.4,0l-.39,0-.39.09-.36.11a3.82,3.82,0,0,0-.36.13,6.49,6.49,0,0,0-.65.31,5.73,5.73,0,0,0-.85.57c-.05-.24-.05-.5-.09-.77h0c.12-.11.28-.25.48-.41A3.68,3.68,0,0,1,6.06,4a2.86,2.86,0,0,1,.52-.16l.26,0h.31a6.3,6.3,0,0,1,2.18.43,9.7,9.7,0,0,1,.93.4,3.22,3.22,0,0,0-.77-.57,4.77,4.77,0,0,0-1-.42,4,4,0,0,0-.64-.14,5.52,5.52,0,0,0-.71,0l-.34,0-.38.06a3.36,3.36,0,0,0-.61.23,2.56,2.56,0,0,0-.8.6,1.91,1.91,0,0,0-.28.38.93.93,0,0,0,0-.13.66.66,0,0,0-.12-.16.23.23,0,0,0-.08-.07h0l0,0-.06,0a.53.53,0,0,0-.38,0,.45.45,0,0,0-.17.08l0,0a.59.59,0,0,0-.16-.07H3.47a.5.5,0,0,0-.24.06.27.27,0,0,0-.12.12.38.38,0,0,0,0,.1.34.34,0,0,0,0,.1H2.75l0,0a.46.46,0,0,0-.2.09.27.27,0,0,0-.08.13.38.38,0,0,0,0,.1H2.27A.41.41,0,0,0,2,5.09.24.24,0,0,0,2,5.3a.48.48,0,0,0-.26.07c-.24.22-.1.41,0,.58.15.35.37.67.51,1a2.18,2.18,0,0,1,.17.51A2.15,2.15,0,0,0,2.58,8,2,2,0,0,0,3,8.43l.11.07A.25.25,0,0,1,3,8.68a.27.27,0,0,1-.13,0H2.64a1,1,0,0,0-.27.06,1.33,1.33,0,0,0-.21.09,1,1,0,0,0-.34.27.38.38,0,0,0-.07.4.35.35,0,0,0,.18.18.87.87,0,0,0,.25.1l.26,0a.59.59,0,0,0,.18,0l0,0a.49.49,0,0,0,.22.41,2.14,2.14,0,0,0,1.19.11,3.68,3.68,0,0,1,1.36.19l.07,0,.41,0a1.5,1.5,0,0,0,.78-.19l.12-.1a1.22,1.22,0,0,0,.07.41,1.71,1.71,0,0,0,.37.58,1.22,1.22,0,0,0,.29.25,1.9,1.9,0,0,0,.39.23,4.16,4.16,0,0,0,.9.32l.48.09.49,0h.49c.16,0,.32,0,.47,0s.31,0,.45-.06l.42-.09a3.78,3.78,0,0,0,.7-.28,2.44,2.44,0,0,0,.49-.31,3.94,3.94,0,0,0,.29-.29l.1-.15h.11c1.71-.2,3.43-.41,5.17-.47a3.46,3.46,0,0,0,1.28-.24,1.7,1.7,0,0,0,.81-.82c.24-.32.33-.72.61-.93a1.6,1.6,0,0,1,1.12-.18c.41.05.83.16,1.26.23s1.13.49,1.57.51a7.09,7.09,0,0,0,2.64-.3,4,4,0,0,0,1.92-1.3,4.36,4.36,0,0,0,.84-1.75A2.63,2.63,0,0,0,30.29,3.88Z"/><path class="cls-3" d="M20.41,5c.1,0,0-.37,0-.37-.33.12-.11.4,0,.37"/><path class="cls-3" d="M22.2,4.18s-.32.21-.39,0S21.62,4,21.62,4c.15.68.58.16.58.16"/><path class="cls-3" d="M25.61,5.52A1.76,1.76,0,0,0,25.09,4C24.41,3.32,24,3.62,24,3.62c.94.27,1.6,1.9,1.6,1.9"/><path class="cls-3" d="M24.14,4.37s-.34.11-.05.36.47.09.47.09l.1.38s.12.16.17-.11S24.41,4,24.09,4a1.14,1.14,0,0,0-.64.22c.32-.18.69.18.69.18"/><path class="cls-3" d="M21.34,4.63c-.53-.36-.49-.61-.49-.61-.51,1,1.06,1.09,1.06,1.09s0-.13-.57-.48"/></svg>