<svg id="Capa_1" data-name="Capa 1" xmlns="http://www.w3.org/2000/svg" viewBox="0 0 34.38 18.36"><defs><style>.cls-1{fill:#f5a4c7;}.cls-2{fill:#fccdb5;}.cls-3{fill:#231f20;}</style></defs><title>2-1mes</title><path class="cls-1" d="M18.44,6.32a9,9,0,0,1,3.5-1.07c2.24-.26,2.58-.07,3,.12a3,3,0,0,1,1.29,1.06,3.81,3.81,0,0,1,.25,1.47s-1.27,3.35-1.59,3.36-2-.16-2-.16l-2.27.36s-1.55,0-1.63-.39-.48-4.75-.48-4.75"/><path class="cls-2" d="M22.72,9.55s-.43-2.64.66-3a7.75,7.75,0,0,1,1.41-.36s.52,0,.69.18.61.43.69.65a2.16,2.16,0,0,1,.1.6l.15-.13s-.07-1.18-.4-1.45-1.3-.8-1.3-.8a4.58,4.58,0,0,1,1-.63,1.31,1.31,0,0,1,1.22.2c.4.24,1.53,1.1,1.53,1.1s1-.18,1.3.19.25,1.07.55,1.53.71.84.54,1.06-.43,0-.47.36-.26.2-.33.25-.18.23-.33.23-.51-.64-.61-.9a1.7,1.7,0,0,0-.23-.39s-.28,1-.28,1.2-.91,2.55-1.92,2.77-2.15.46-3.08-.35a2.41,2.41,0,0,1-.93-2.33"/><path class="cls-2" d="M2.92,6.81A2.58,2.58,0,0,0,4.09,9.36c.69.41.38.3.38.3s-.18.73.29.77.44.23.44.23a14.53,14.53,0,0,0,2.91.69,3.15,3.15,0,0,0,1.53-.58,1.63,1.63,0,0,0,.44-1,4.7,4.7,0,0,0,1.37.79c.59.14,1.7.26,1.7.26a7,7,0,0,1-1.55.27c-.62,0-1.38,0-1.07.18s.94.13.75.25-.64.24-.47.43,0,.3.19.39a1.07,1.07,0,0,0,.58,0s-.73.28-.15.37a4.18,4.18,0,0,0,1.48-.23l.35-.13a10.91,10.91,0,0,0,3.88.37c1.36-.3,1.95-.44,2-.92l.07-.48a4.7,4.7,0,0,0,1.14-.5c.3-.25.83-.89.48-2.46S20.34,6.27,20,6.06A3.76,3.76,0,0,0,19,5.77a24.35,24.35,0,0,1-3.28.33,5.08,5.08,0,0,0-1.84.05c-.55.16-2.32.44-2.32.44s-.92-1.19-1.22-1.73S9,3.49,6.77,3.75s-3.08,1-3.85,3.06"/><path class="cls-3" d="M3.35,4l.19-.15.33.22-.15.12Z"/><path class="cls-3" d="M10.86,5.39h0l.43-.12a1.47,1.47,0,0,0,.43.46L11.41,6a1.59,1.59,0,0,1-.55-.57m-.65-1.14h0l.41-.15a3.46,3.46,0,0,1,.37.59l-.44.11A2.84,2.84,0,0,0,10.21,4.25ZM9.05,3.44h0l.23-.28a5.2,5.2,0,0,1,.53.26l.23.15-.33.22-.2-.13A3.25,3.25,0,0,0,9.05,3.44ZM7.42,3.15h0l0-.32a7.13,7.13,0,0,1,.94.09l-.11.31A4.71,4.71,0,0,0,7.42,3.15ZM5.58,3h0c.31-.06.61-.11.91-.14l.07.32L5.7,3.3Zm-1.65.64a5,5,0,0,1,.77-.37l.23.27a7.75,7.75,0,0,0-.71.34Z"/><path class="cls-3" d="M12.45,5.91a.42.42,0,0,0,.16,0l.25.27a1.59,1.59,0,0,1-.33.09Z"/><path class="cls-3" d="M30.77,8.74h0l-.18,0-.12,0a.24.24,0,0,0-.11.09c-.06.14,0,.22-.07.3s0,0,0,0l-.1-.05a.17.17,0,0,0-.1,0c-.07,0-.12,0-.12.08h0v.13s0,.07,0,.07,0,0-.08,0h-.05a.61.61,0,0,1-.09-.23l0-.13a1.31,1.31,0,0,0,0-.15,2.53,2.53,0,0,0-.26-.55c-.1-.18-.2-.36-.31-.53a.25.25,0,0,0-.21-.09c-.13,0-.23.07-.23.15v0a4,4,0,0,1,0,.47c0,.16-.05.33-.09.49a8.05,8.05,0,0,1-.27,1,4.5,4.5,0,0,1-.4.93,3.18,3.18,0,0,1-.64.84,2.69,2.69,0,0,1-.45.35,2.25,2.25,0,0,1-.54.26,2.57,2.57,0,0,1-.61.14h-.34l-.32,0a2.77,2.77,0,0,1-1.15-.49,3.76,3.76,0,0,1-.75-.74l.1,0c.09,0,.14-.09.12-.15v0c-.08-.3-.14-.61-.2-.92S23,9.38,23,9.07l-.07-1a3.46,3.46,0,0,1,0-.46A1.26,1.26,0,0,1,23,7.24a1.43,1.43,0,0,1,.28-.38,1.58,1.58,0,0,1,.45-.29,4.23,4.23,0,0,1,.57-.2,2.1,2.1,0,0,1,.61,0,1.27,1.27,0,0,1,.94.53,2.1,2.1,0,0,1,.33.81L26,7.85A4,4,0,0,0,25.34,9a1.23,1.23,0,0,0,0,.63.75.75,0,0,0,.43.54h0s0,0,0,0h0a.67.67,0,0,1-.29-.52A1.31,1.31,0,0,1,25.6,9a3.32,3.32,0,0,1,.33-.53c.13-.18.29-.35.43-.51a9.22,9.22,0,0,1,1-1,8.37,8.37,0,0,1,1.18-.84A1.51,1.51,0,0,1,29.17,6s0,0,.07,0l.06,0,.16.08a1,1,0,0,1,.25.2,1.62,1.62,0,0,1,.22.54,3,3,0,0,0,.23.6c.1.19.22.37.34.56a5.22,5.22,0,0,1,.33.54c0,.09,0,.17-.06.21m-8.64,2.31h0c-.28.07-.57.13-.86.18a10.16,10.16,0,0,1-1.75.13l-.05-.12a5.34,5.34,0,0,0,.8-.26,1.37,1.37,0,0,0,.45-.28.82.82,0,0,0,.22-.38,2.71,2.71,0,0,0,0-.8l-.08-.79L20.82,8a5.27,5.27,0,0,0-.16-.79,3.29,3.29,0,0,0-.32-.78A1.61,1.61,0,0,0,20.06,6a.92.92,0,0,0-.21-.17l-.12-.08c.75-.13,1.5-.28,2.25-.4.38-.06.77-.12,1.15-.16l.55,0a1.15,1.15,0,0,1,.47.09,7.06,7.06,0,0,1,1,.41,2.42,2.42,0,0,1,.75.56,1.61,1.61,0,0,1,.38.73,2.79,2.79,0,0,1,.07.4s0,.06,0,.09A1.91,1.91,0,0,0,26,6.79a1.89,1.89,0,0,0-.39-.42A1.54,1.54,0,0,0,25,6.12a2.42,2.42,0,0,0-.76,0,3.11,3.11,0,0,0-.68.19,2.12,2.12,0,0,0-.59.34,1.48,1.48,0,0,0-.38.46,1.85,1.85,0,0,0-.17.5,2.7,2.7,0,0,0,0,.49c0,.17,0,.33,0,.49l0,.47a4.05,4.05,0,0,0,0,.48l.09.48a7.88,7.88,0,0,0,.24.83C22.57,10.94,22.35,11,22.13,11.05Zm-3.15.6h0a1,1,0,0,1-.24.4,2,2,0,0,1-1.08.44l-.7.07-.73,0c-.49,0-1,0-1.47-.06-.24,0-.49,0-.72-.08a4.83,4.83,0,0,1-.7-.13h-.12a4.41,4.41,0,0,1-1.37.38,1.37,1.37,0,0,1-.35,0l-.16,0s0,0,0,0a1,1,0,0,1,.27-.14l.34-.1c.05,0,.08,0,.06-.08s-.07-.05-.12,0h0a2.42,2.42,0,0,1-.47.06.84.84,0,0,1-.35,0l.17-.06.45-.08a.18.18,0,0,0,.16-.12c0-.07-.08-.13-.18-.13h0l-.29,0,.23,0,.27-.05.14,0,.08,0,.07,0,0,0,0,0,0-.05h0c0-.07-.1-.17-.1-.16l-.06,0-.07,0h-.5l-.5,0-.18,0,.16,0h.51a6.73,6.73,0,0,0,1.09-.12c.2,0,.34-.12.47-.13h.19a1.43,1.43,0,0,0,.26.06,6.62,6.62,0,0,0,.77,0c.74.13,1.48.28,2.21.45,0,0,0,0,0,0s0,0,0,0a31.52,31.52,0,0,0-3.32-.78l-.43-.06-.43,0a2.37,2.37,0,0,1-.41-.06l-.36-.11a2.52,2.52,0,0,1-.62-.36,1.7,1.7,0,0,1-.24-.22,1.25,1.25,0,0,1-.18-.24.2.2,0,0,0-.13-.08.24.24,0,0,0-.27.09h0a3.14,3.14,0,0,1-.29.49,2.48,2.48,0,0,1-.42.44,3.62,3.62,0,0,1-.54.36l-.32.14-.16.06-.1,0c-.43,0-.87-.12-1.29-.21a5.92,5.92,0,0,1-1.21-.39,1.06,1.06,0,0,1-.37-.29,1.09,1.09,0,0,1-.09-.21,1.74,1.74,0,0,0-.15-.26,1.69,1.69,0,0,0-.5-.45,2.07,2.07,0,0,0-.34-.15A1.79,1.79,0,0,0,4,9.14L3.8,9.08a4.41,4.41,0,0,1-.35-.45A1.54,1.54,0,0,1,3.16,7.4a2.39,2.39,0,0,0,.7,1.38,2.14,2.14,0,0,1-.24-1.16l.26.77a4.6,4.6,0,0,0,.23-.82,4,4,0,0,1,.22-.79s-.13,1.31,0,1.14a8.81,8.81,0,0,0,.45-1V8.07a2.69,2.69,0,0,1,.4-.83L5.42,7s-.49.67-.34,1.14l.34-.52-.24.82.69-.61-.22.6.47-.36a4.88,4.88,0,0,0,.13.83c.06.14.43-.63.43-.63V8.9l.4-.49v.44l.21-.38a.53.53,0,0,1,.31.36,2.17,2.17,0,0,1,0-.61.94.94,0,0,0,.1.28h0a1.43,1.43,0,0,1,.1-.42A.35.35,0,0,1,8,7.93s.09,0,.14,0a.58.58,0,0,1,.22,0L8.59,8l.13.06h0l.07,0a1.36,1.36,0,0,1,.24.13,1.45,1.45,0,0,1,.39.3.62.62,0,0,1,.11.19.5.5,0,0,1,0,.21.7.7,0,0,1-.25.36.81.81,0,0,1-.18.1A.26.26,0,0,1,9,9.4H8.87c-.07,0-.1.09-.06.14a3.15,3.15,0,0,1,.35.52h0a.65.65,0,0,0,0-.31.52.52,0,0,0-.06-.13.48.48,0,0,0,.18,0,.62.62,0,0,0,.39-.42,2,2,0,0,0,0-.23,1.57,1.57,0,0,0,0-.23,2,2,0,0,0-.08-.22l0-.07a3.46,3.46,0,0,1,.33.26l-.44-.75a1.16,1.16,0,0,0,.76.28L9.87,8a3.86,3.86,0,0,0,.68.11l-.36-.32a8.1,8.1,0,0,0,1,.06c.21,0-.67-.61-.67-.61l.7.22L11,7.23a2.12,2.12,0,0,0,.45,0c.15,0-.79-.35-.79-.35a7.66,7.66,0,0,0,1,.06c.16,0-.26-.24-.26-.24l.35-.06a1,1,0,0,0,.65,0,6.14,6.14,0,0,1,.73-.22,7.81,7.81,0,0,1,1.54-.18l.79,0h.83A28.2,28.2,0,0,0,19.45,6l.11.06a.87.87,0,0,1,.15.13,1.48,1.48,0,0,1,.25.31,3.37,3.37,0,0,1,.32.73,11.35,11.35,0,0,1,.31,1.54l.12.78a2.79,2.79,0,0,1,0,.76.7.7,0,0,1-.16.35,1.21,1.21,0,0,1-.38.26,5.58,5.58,0,0,1-.75.3.36.36,0,0,0-.07-.1,4.19,4.19,0,0,0-1.06-.79c-.38-.23-.8-.43-1.21-.63s-.84-.37-1.29-.54h0s0,0,0,0c.78.43,1.55.87,2.25,1.34a3.78,3.78,0,0,1,.89.75.5.5,0,0,1,.09.18A1.43,1.43,0,0,1,19,11.65Zm-8,.61ZM10.74,12ZM4.54,9.86h0l.14.14a.93.93,0,0,1,.11.19c0,.05,0,.09,0,.13A.55.55,0,0,1,4.54,9.86ZM25.42,5h0a3.41,3.41,0,0,1,.63-.24l.13,0h0l.1,0a2.11,2.11,0,0,1,.4.11,2.27,2.27,0,0,1,.62.4,4.4,4.4,0,0,0,.59.4,3.46,3.46,0,0,0,.45.24l-.09,0A6.09,6.09,0,0,0,27,6.84l-.53.5a2.83,2.83,0,0,0,0-.41,3,3,0,0,0-.09-.41,1.45,1.45,0,0,0-.21-.41A2.85,2.85,0,0,0,25,5.21ZM31,8.5a4.73,4.73,0,0,0-.35-.56,4.29,4.29,0,0,1-.31-.55,2,2,0,0,1-.17-.58A1.37,1.37,0,0,0,30,6.19a.94.94,0,0,0-.29-.27l-.18-.11-.12,0-.14,0a1.29,1.29,0,0,0-.55.06l-.25.1-.39-.29a6.21,6.21,0,0,1-.48-.44,2.19,2.19,0,0,0-.64-.52,2.75,2.75,0,0,0-.45-.17l-.11,0-.19,0a1.58,1.58,0,0,0-.32,0,2,2,0,0,0-.72.38,2.14,2.14,0,0,0-.34.34L24.35,5A2.46,2.46,0,0,0,24,4.88a2.28,2.28,0,0,0-.36,0l-.62.05c-.41.06-.79.13-1.18.22-.75.17-1.49.37-2.21.61a.5.5,0,0,0-.16-.05h-.09c-1.05.13-2.12.24-3.18.28-.53,0-1,0-1.62,0A7.29,7.29,0,0,0,13,6.23a4.57,4.57,0,0,0-.74.26.74.74,0,0,1-.61-.08,2.27,2.27,0,0,1-.77-.92,4.42,4.42,0,0,0-.7-1A2.67,2.67,0,0,0,8.9,3.75a5.63,5.63,0,0,0-1.64-.12,8.77,8.77,0,0,0-1.62.22A5,5,0,0,0,3.09,5.28a3.16,3.16,0,0,0-.94,2.18,1.93,1.93,0,0,0,.36,1.15,2.19,2.19,0,0,0,.5.51,3.37,3.37,0,0,0,.74.35h0l.26.08a1.15,1.15,0,0,1,.25.12l.22.16c0,.13,0,.28,0,.36s.16.28.41.24h0a1.33,1.33,0,0,0,.55.44,6.44,6.44,0,0,0,1.37.44,13.31,13.31,0,0,0,1.43.22h.11a1,1,0,0,0,.22-.07l.2-.07a3,3,0,0,0,.36-.18,3.45,3.45,0,0,0,.61-.42,3,3,0,0,0,.45-.51,1.88,1.88,0,0,0,.14-.24,1.61,1.61,0,0,0,.28.24,2.48,2.48,0,0,0,.74.39,3.17,3.17,0,0,0,.44.12l.45.06.39,0-.17,0a8.23,8.23,0,0,1-1,.05c-.17,0-.33,0-.54,0a2.21,2.21,0,0,0-.33,0,.58.58,0,0,0-.19.1.21.21,0,0,0-.08.19s0,.07,0,.07a.41.41,0,0,0,.06.1.48.48,0,0,0,.2.09,1.66,1.66,0,0,0,.28.05l-.22,0a.65.65,0,0,0-.15.05.27.27,0,0,0-.13.07.2.2,0,0,0,0,.08h0c0,.08,0,0,0,0h0a.29.29,0,0,0,.08.1.58.58,0,0,0,.22.07l.15,0h0a.22.22,0,0,0-.1.14.16.16,0,0,0,0,.1l0,0h0a.76.76,0,0,0,.31.07h.14l-.11.07a.11.11,0,0,0,0,.11.35.35,0,0,0,.1.08l.2.05a1.89,1.89,0,0,0,.41,0,4.46,4.46,0,0,0,.76-.13c.23-.06.44-.12.66-.2a5.09,5.09,0,0,0,.67.18c.24.05.49.09.74.12a12.8,12.8,0,0,0,1.52.12H17a6.83,6.83,0,0,0,.78-.06,4.2,4.2,0,0,0,.78-.18,1.93,1.93,0,0,0,.65-.4,1.25,1.25,0,0,0,.3-.55.93.93,0,0,0,0-.31h0a7.66,7.66,0,0,0,1.79,0c.31,0,.62-.07.92-.12s.48-.1.72-.16a2.9,2.9,0,0,0,.65.82,2.81,2.81,0,0,0,1.22.62c.13,0,.25.05.4.06h.39a3.18,3.18,0,0,0,.77-.13,4.1,4.1,0,0,0,.67-.29,3.74,3.74,0,0,0,.54-.39,3.89,3.89,0,0,0,.74-.91,4.59,4.59,0,0,0,.42-1,9.24,9.24,0,0,0,.24-1c0-.11,0-.23,0-.35a2.38,2.38,0,0,1,.23.41,1,1,0,0,1,0,.12l0,.15a.82.82,0,0,0,.18.3.26.26,0,0,0,.13.08l.11,0h.06a.44.44,0,0,0,.29-.07.25.25,0,0,0,.09-.18h0a.31.31,0,0,0,.2-.05.26.26,0,0,0,.07-.1c.05-.11,0-.24,0-.29l0,0,.09,0a1.11,1.11,0,0,0,.22-.07A.23.23,0,0,0,31,8.5Z"/><path class="cls-3" d="M7.6,8.83a.42.42,0,0,1,0,.07.17.17,0,0,0,0-.07"/></svg>