<svg id="Capa_1" data-name="Capa 1" xmlns="http://www.w3.org/2000/svg" viewBox="0 0 26.82 21.78"><defs><style>.cls-1{fill:#f5a4c7;}.cls-2{fill:#fccdb5;}.cls-3{fill:#231f20;}</style></defs><title>3-1mes</title><path class="cls-1" d="M4.54,13.35s-1.94-.49-1.91-1.26A7.38,7.38,0,0,1,4,9.63s1-.93,1.37-.84S10,11.63,10,11.63a1.39,1.39,0,0,1-.46,1.26,3.46,3.46,0,0,1-.94.51Z"/><path class="cls-2" d="M4.93,12c-.17.31-.74,1.25-.17,1.92a4,4,0,0,0,1.24,1,4.22,4.22,0,0,0-.58,1.76c0,.68-.41.89-.61,1.22s-.55.69.62,1c0,0,1.88.45,2.18.45a4.59,4.59,0,0,0,.76-.1s.76-.13.87-.17.19-.41,0-.45.28-.08.42-.18.61,0,.77-.18,0-.25-.25-.27S8.44,17.4,8.65,17s.86-1.1,1-1.3a8.62,8.62,0,0,0,.2-2.1,2.13,2.13,0,0,0-.27-.95l-1.13.77s-.07-.21-.07-.23.13-1-.32-1.22a4.5,4.5,0,0,0-1.87-.62A1.41,1.41,0,0,0,4.93,12"/><path class="cls-2" d="M.81,2.72,5,4.31s1.63.25,2,.28a2.34,2.34,0,0,1,1.11.28c.4.22.52.27.52.27s2.06-.17,2,.09a1.57,1.57,0,0,0-.08.38s2.7.4,3.44-.2a3.48,3.48,0,0,1,3.44-1,5.53,5.53,0,0,1,3.26,2.23c.17.51.6.54.25,1a3.76,3.76,0,0,1-2.27,1c-.77,0-.89-.26-1.05,0s-.54.53-.84.39A2.68,2.68,0,0,0,16,8.83l-.4-.19s-.38.46-.49.23.07-.28-.28-.28-.56,0-.56-.41-.08-.54-.25-.49-.17,1-.25,1.41.17.53.17.53l1.36.75c.2.11.89,0,1.07,0s.79.28.84.46-.24.18-.24.4-.35.28-.47.19-.23,0-.23,0,.36.41.1.38a3.83,3.83,0,0,1-.54-.14s.67.36-.32.2c0,0,.1.26,0,.31s-.3-.07-.3-.07a.53.53,0,0,1-.28.23.27.27,0,0,0-.2.2l-.49,0a1,1,0,0,1-.58-.13.86.86,0,0,1-.41-.71c0-.27-.9-1.07-1.21-1.07a2.23,2.23,0,0,1-.71-.18,2.35,2.35,0,0,1-.56.72,1.83,1.83,0,0,1-1.16.18c-.32-.09-2.41-.93-3.17-1.32s-1.13-.55-1.13-.95,0-.9.16-.94-.74-.31-.77-.31l-3.8-.6Z"/><path class="cls-3" d="M18.2,8.37h0c-.12,0-.22,0-.39-.07a.63.63,0,0,0-.35.07l0,0s0,0-.05,0l-.07.08c-.07.1-.1.18-.14.24s-.05.06-.08.06H17l-.08,0a.44.44,0,0,1-.16-.14h-.42s0,0,0,0h-.11l-.13,0h0l-.05,0,0,0a.37.37,0,0,1-.13-.17.43.43,0,0,1,0-.11.24.24,0,0,1,0-.12h0c0-.08-.07-.15-.19-.17a.22.22,0,0,0-.24.13h0c0,.2-.05.39-.08.58h0l-.09-.07-.06-.06L15,8.49a.5.5,0,0,0-.29,0l-.19,0h-.07s0,0-.06-.06A1.69,1.69,0,0,1,14.27,8a.81.81,0,0,0-.09-.26.16.16,0,0,0-.1-.06H14s0,0,0,0a1.16,1.16,0,0,0-.57-.54l0,0a1,1,0,0,1,.45.54h0v0h0a.94.94,0,0,1-.05.57,9.75,9.75,0,0,0-.29,1.3.14.14,0,0,0,.11.12h0a3.41,3.41,0,0,1,1.19.49l.09.09,0,.06.06.06a.77.77,0,0,0,.46.2,4.39,4.39,0,0,0,.81-.06h.06l.13.07.27.16.23.17-.15,0c-.22-.07-.44-.16-.65-.24h0a.29.29,0,0,0-.3,0c-.07.07,0,.16.06.21l.54.27.2.11-.12,0L15.94,11h0a.21.21,0,0,0-.19,0,.08.08,0,0,0,0,.15,3.51,3.51,0,0,1,.36.29,1.06,1.06,0,0,1,.15.15l0,0h0l-.13,0a.94.94,0,0,1-.22-.07l0,0-.31-.26a.11.11,0,0,0-.11,0,.06.06,0,0,0,0,.09,1.07,1.07,0,0,0,.39.33h0l.07.06a.35.35,0,0,1,.06.09h0l-.16,0h0a.15.15,0,0,0-.05-.06,1.11,1.11,0,0,0-.59-.24l-.05,0c-.18-.11-.35-.22-.51-.34l0,0c-.46-.07-.92-.15-1.36-.25a12.54,12.54,0,0,1-1.31-.32l-.24-.1c-.09-.08-.07-.12-.1-.19a2.22,2.22,0,0,1-.06-.46c0-.32,0-.64,0-1s.05-.64.09-1l.05-.48,0-.12v-.1h0v0a.33.33,0,0,0,0-.14.74.74,0,0,0-.12-.16,2.91,2.91,0,0,0-.56-.38l-.61-.28L9.71,6a3.59,3.59,0,0,0,.74-.21l.12-.06c.81.07,1.62.12,2.44.13h.39l.21,0,.13,0h0l0,0h0l0,0L14,5.59l.52-.09s-.63.48-.69.51l.6-.25v.53l.38-.17,0,.3.42,0s-.49-.35-.11-.75,1.5-.72,1.61-.31-.35.79-.35.79l.94-.57-.45.57.92-.63-.47.81.47-.37-.14.46L18.38,6a3.15,3.15,0,0,1-.7.81l.94-.55-.31.55.85-.44a5.25,5.25,0,0,0-.62.86,7.1,7.1,0,0,0,.94-.65s-.23.72-.23.8.43-.37.43-.37a2,2,0,0,1-.52.72l.9-.44L19.3,8l1.47-.5a6,6,0,0,1-1.38.8l-.46.16h0a5.2,5.2,0,0,1-.69-.07m-2.83,3.84h0a.18.18,0,0,1-.07-.05l0,0a.26.26,0,0,0,0-.15.23.23,0,0,0-.06-.12l-.12-.12,0,0,.1,0a.76.76,0,0,1,.22.14l.05.06a.22.22,0,0,1,0,.08l0,.1s0,.05,0,.05Zm-4.23-1.52h0a1.71,1.71,0,0,1-.61.5,1.17,1.17,0,0,1-.49.15H10l-.14,0-.35-.1L8.74,11,8,10.71a5.49,5.49,0,0,1-1.4-.64L6,9.7l-.24-.14a.66.66,0,0,1-.17-.15,1.26,1.26,0,0,1-.22-.62c0-.12,0-.21,0-.25l1.37.75c.65.35,1.29.69,2,1l1,.49a2.11,2.11,0,0,0,.3.1.32.32,0,0,0,.23-.06.15.15,0,0,0,0-.14,1.13,1.13,0,0,0-.22-.42,3.82,3.82,0,0,0-.34-.36l-.34-.35-.12-.11.47.2c.46.21.92.4,1.39.59l0,.1a.75.75,0,0,0,.12.21Zm-1.65,1.9h0A2.23,2.23,0,0,1,9,13a2.49,2.49,0,0,1-.28.15c0-.15,0-.29,0-.44a1.72,1.72,0,0,0-.07-.37.76.76,0,0,0-.07-.19.64.64,0,0,0-.16-.2,3.16,3.16,0,0,0-.83-.5,4,4,0,0,0-1-.29,2.29,2.29,0,0,0-.59,0l-.32.07a1,1,0,0,0-.25.1,1.64,1.64,0,0,0-.58.64,4.59,4.59,0,0,0-.42,1.3A4.61,4.61,0,0,1,3.6,13a1.32,1.32,0,0,1-.6-.5.79.79,0,0,1,0-.62c0-.1.07-.22.11-.32a3.18,3.18,0,0,1,.16-.32A6.15,6.15,0,0,1,4.1,10c.17-.2.34-.43.49-.62a1.19,1.19,0,0,1,.27-.28A.9.9,0,0,1,5.1,9a.51.51,0,0,0,0,.13.75.75,0,0,0,.11.45.77.77,0,0,0,.22.22,2.38,2.38,0,0,0,.3.18,6.2,6.2,0,0,0,.69.28,6.37,6.37,0,0,1,.72.29,6.47,6.47,0,0,1,.69.36,9.68,9.68,0,0,0,1.42.66,2.4,2.4,0,0,0,.38.12l.22.05h.11c0,.13-.08.25-.13.37A2.65,2.65,0,0,1,9.49,12.59Zm.16.37h0c0,.2,0,.5,0,.84,0,.18,0,.36,0,.56a4.35,4.35,0,0,1-.06.6,4.19,4.19,0,0,1-.5,1.28,2.87,2.87,0,0,1-.44.63.65.65,0,0,0-.2.35.56.56,0,0,0,.27.34c.26.17.52.28.73.4l.16.09a.79.79,0,0,0,.33.1h.22a.43.43,0,0,1-.17.09l-.25.05H9.68a.47.47,0,0,0-.17,0,1,1,0,0,1-.14.09.27.27,0,0,1-.12,0H9.2L9,18.41a3.4,3.4,0,0,0-.46-.09l-.43-.06a2.26,2.26,0,0,1-.37-.11L7.43,18l-.18-.11.34-.4L8,17a3.72,3.72,0,0,0,.64-1.12,2.47,2.47,0,0,0,.13-.6,3.89,3.89,0,0,0,0-.59,6.53,6.53,0,0,0-.25-1.06h.05l.24-.08A1.11,1.11,0,0,0,9,13.43a2.19,2.19,0,0,0,.34-.21,2.06,2.06,0,0,0,.33-.33ZM5.74,14.82Zm3.54,4h0a0,0,0,0,0,0,0l0,0a.47.47,0,0,1-.19.08.3.3,0,0,0,0-.22.37.37,0,0,0-.19-.12l-.24,0h0v.12h0l-.11,0-.07,0-.09,0H8l.22.14a1.35,1.35,0,0,1,.25.19h0v0a.14.14,0,0,1,0,.06s0,0,0,.06L8.37,19a.93.93,0,0,0-.15-.13.91.91,0,0,0-.16-.11l-.17-.09h0l0,0-.2.21L7.8,19l.1.08,0,.05,0,0L7.76,19a1,1,0,0,0-.16-.12l-.27.17A.54.54,0,0,0,7.16,19,1,1,0,0,0,7,19l-.31,0-.1,0-.12,0-.53-.15-.3-.08a.84.84,0,0,0-.18,0H5.29a.66.66,0,0,1-.3-.15.25.25,0,0,1-.08-.24A.47.47,0,0,1,5,18.05a.88.88,0,0,1,.12-.15,3.5,3.5,0,0,1,.33-.3.78.78,0,0,0,.28-.46,2.1,2.1,0,0,0,0-.43c0-.13,0-.26,0-.39a2.52,2.52,0,0,1,.16-.76A3.52,3.52,0,0,0,6,15.17,1.6,1.6,0,0,0,6.07,15a.49.49,0,0,0,0-.12.2.2,0,0,0,0-.07l0,0,0,0s0,0-.08-.06H6A4.67,4.67,0,0,1,5,14a1.79,1.79,0,0,1-.5-.69,3.41,3.41,0,0,1,.58-1.29,1.32,1.32,0,0,1,.25-.28,1.23,1.23,0,0,1,.29-.22.61.61,0,0,1,.19-.06l.17,0a2,2,0,0,1,.41,0,3.38,3.38,0,0,1,.83.28,3.32,3.32,0,0,1,.67.41.47.47,0,0,1,.13.24,1.77,1.77,0,0,1,.08.33c0,.22.07.45.1.67l0,.23.16,0a7.31,7.31,0,0,1,.05,1,3.76,3.76,0,0,1,0,.58,3.11,3.11,0,0,1-.18.54,4.23,4.23,0,0,1-.65,1l-.22.24-.22.26-.41.5-.09.11.11.08a2.08,2.08,0,0,0,.38.22,1.94,1.94,0,0,0,.42.17,2.47,2.47,0,0,0,.47.11l.47,0a1.45,1.45,0,0,1,.71.17.16.16,0,0,1,0,.1Zm-.62-.12h0c.08,0,.14.06.15.11a.22.22,0,0,1,0,.16.3.3,0,0,0-.07-.15l-.08-.07-.08-.06Zm5-6.5h0a.1.1,0,0,1,.12-.05.25.25,0,0,1,.18.1.4.4,0,0,1,.09.21v.06a2.05,2.05,0,0,1-.26-.16l-.15-.12Zm.38.34Zm7.37-5.37a3,3,0,0,0,.31-1.72,2.7,2.7,0,0,0-.35-1,2.64,2.64,0,0,0-.93-.88A4.39,4.39,0,0,0,19,3.13l-.36,0h-.41a4.29,4.29,0,0,0-.8,0A5.32,5.32,0,0,0,16,3.53a6.27,6.27,0,0,0-1.15.73,7.81,7.81,0,0,0-.87.85,2.82,2.82,0,0,1-.37.39l0,0h-.05l-.16,0a2,2,0,0,1-.35,0c-.49,0-1,0-1.48,0H10.7a.53.53,0,0,0,.11-.14c.12-.19-.09-.39-.27-.44A2.48,2.48,0,0,0,9.63,5,6.89,6.89,0,0,1,8.9,5a3.36,3.36,0,0,1-.6-.09l-.17-.11a2.85,2.85,0,0,0-.36-.19,2.65,2.65,0,0,0-.54-.17,3.8,3.8,0,0,0-.7-.06,3.56,3.56,0,0,1-.68,0,6.26,6.26,0,0,1-.67-.21l-.72-.25c-1-.35-1.94-.7-2.68-.94L.87,2.66l-.35-.1.29.16.81.4A28,28,0,0,0,4.21,4.2L5,4.45a5.53,5.53,0,0,0,.78.21,3.54,3.54,0,0,0,.8,0,4.41,4.41,0,0,1,.63,0,3.23,3.23,0,0,1,.9.21l.07,0a2.65,2.65,0,0,0-.8,0L6.6,5a4.21,4.21,0,0,1-1.41,0c-.2,0-.46-.12-.7-.18l-.72-.18L.88,4l0,0c.93.29,1.86.59,2.79.86l.7.21c.25.07.45.15.73.22a4.89,4.89,0,0,0,1.62,0l.75-.12a1.61,1.61,0,0,1,.62,0,3.19,3.19,0,0,0,.81.13,6.37,6.37,0,0,0,.8,0,2,2,0,0,1,.59,0h0a.42.42,0,0,1-.13.08,3.18,3.18,0,0,1-.63.17c-.23,0-.48.07-.71.09a.34.34,0,0,0-.23.11c-.06.1,0,.22.15.26.41.13.83.27,1.23.43.19.08.39.16.57.25a2.06,2.06,0,0,1,.45.29l.06,0s0,.06,0,.1v.2l0,.41-1-.33,1,.7c0,.22,0,.44,0,.67a1.33,1.33,0,0,0-.19-.14c-.12-.06-.27-.11-.41-.17-.54-.25-1.12-.47-1.12-.47l0,0s.42.34.88.66a3.49,3.49,0,0,0,.32.25,2,2,0,0,0,.36.14l.19,0a4.82,4.82,0,0,0,0,.65c0,.1,0,.2.05.31-.36-.25-.74-.48-1.13-.7l-.71-.38-.38-.17-.21-.08-.15-.05a.61.61,0,0,0-.2,0c-.14.06-.14.13-.13.19a.1.1,0,0,0,0,0l.05.05c.25.22.51.44.78.64l.42.32a4.08,4.08,0,0,1,.39.31,1,1,0,0,1,.25.36c0,.06,0,.07-.06.07a1.25,1.25,0,0,1-.25-.09,6.61,6.61,0,0,1-.94-.52C8.25,9.8,7.67,9.39,7,9s-1.23-.74-1.87-1.1h0l-.06,0A20.6,20.6,0,0,0,3,7.46,11.11,11.11,0,0,0,.87,7.31v0a17.24,17.24,0,0,1,2.05.38c.65.15,1.3.34,1.92.52l.46.26a.89.89,0,0,0-.15.26l0,.12A1.07,1.07,0,0,0,4.75,9a1.7,1.7,0,0,0-.38.26c-.2.2-.38.38-.59.57a5,5,0,0,0-1,1.26,3.68,3.68,0,0,0-.15.35,1.35,1.35,0,0,0-.08.36,1,1,0,0,0,.2.75,2,2,0,0,0,.76.52l.46.17.47.15,0,0a1,1,0,0,0,.09.28,1.71,1.71,0,0,0,.3.42,4.27,4.27,0,0,0,.86.69v0a.31.31,0,0,1,0,.08,1.34,1.34,0,0,1-.07.18c0,.13-.11.24-.18.38a2.41,2.41,0,0,0-.24.82c0,.14,0,.28,0,.42a1.45,1.45,0,0,1,0,.37.47.47,0,0,1-.19.27,4.94,4.94,0,0,0-.37.33,1.46,1.46,0,0,0-.16.21.82.82,0,0,0-.1.24.59.59,0,0,0,.18.52,1.16,1.16,0,0,0,.65.3l.08,0h.08l.11,0,.25.06.55.15.16,0a.62.62,0,0,0,.18,0l.27,0h.08l0,0a.67.67,0,0,0,.45.13.8.8,0,0,0,.25,0l0,0h0l.13,0,.17,0a.44.44,0,0,0,.15,0h0c.06,0,0,0,0,0l.05,0,0,0,.11,0a.59.59,0,0,0,.16-.07h0l.15,0,.07,0,.05,0a0,0,0,0,0,0,0h0A1,1,0,0,0,9.4,19l.09-.09a.14.14,0,0,0,0-.06v0a.27.27,0,0,0-.06-.21l-.13-.1h.1a1,1,0,0,0,.2-.05h.19a1.94,1.94,0,0,0,.33,0,.84.84,0,0,0,.39-.14.29.29,0,0,0,.09-.1l0,0a.18.18,0,0,0,0-.06.22.22,0,0,0-.12-.25.67.67,0,0,0-.34-.07H10s0,0,0,0a1.51,1.51,0,0,0-.18-.09c-.27-.13-.58-.19-.83-.29s-.24-.13-.26-.2.07-.19.15-.28.39-.4.56-.6a3.22,3.22,0,0,0,.5-.63A3,3,0,0,0,10.2,15a2,2,0,0,0,.06-.67,3.36,3.36,0,0,0-.09-.58,4.31,4.31,0,0,0-.31-.84c0-.08-.08-.14-.11-.19s0,0,0-.05a1.63,1.63,0,0,0,.23-.57,1.72,1.72,0,0,0,0-.39h.07a1.55,1.55,0,0,0,.73-.28,1.39,1.39,0,0,0,.36-.38,1.2,1.2,0,0,0,.14-.32s0-.07,0-.1a3.11,3.11,0,0,0,.3.12l.67.16.31.33a4.35,4.35,0,0,1,.39.45s0,0,0,.06,0,0,0,0a1,1,0,0,0,0,.17.68.68,0,0,0,.16.33,1.24,1.24,0,0,0,.32.28,1.26,1.26,0,0,0,.42.2.31.31,0,0,0,.23,0,.19.19,0,0,0,.13-.11.25.25,0,0,0,0-.19.66.66,0,0,0-.2-.27.49.49,0,0,0-.33-.11c-.14,0-.22.08-.21.13a.08.08,0,0,1,0,0,.66.66,0,0,1-.14-.26l0-.14a.26.26,0,0,0,0-.1l-.06-.08a2.86,2.86,0,0,0-.51-.44L12.48,11l.56.1,1.35.22.4.25H14.6l.11.06-.13,0a.42.42,0,0,0-.22,0c-.13.07-.11.13-.12.17a.06.06,0,0,0,0,0h-.08a.41.41,0,0,0-.22.06.28.28,0,0,0-.11.18.09.09,0,0,0,0,.06l.07,0a.34.34,0,0,1,.16-.08h.07l.09,0a1.07,1.07,0,0,1,.22.15.55.55,0,0,1,.15.16.19.19,0,0,1,0,.07s0,0,0,.07a.42.42,0,0,1-.2.14h.1a.48.48,0,0,0,.26-.06.32.32,0,0,0,.12-.11.23.23,0,0,0,0-.16.48.48,0,0,0-.18-.29,1,1,0,0,0-.35-.18l-.11,0,0,0s.11-.06.14,0,0,0,.05,0l.1,0a1.37,1.37,0,0,1,.2.13l.08.08a.25.25,0,0,1,.08.07.41.41,0,0,1,.08.14.1.1,0,0,1,0,.1l-.06,0H15a.29.29,0,0,0,.22-.1,0,0,0,0,1,0,0,.06.06,0,0,0,0,0s0,.09.18.09a.29.29,0,0,0,.21-.11.47.47,0,0,0,.09-.12.41.41,0,0,0,0-.16l.12,0A.39.39,0,0,0,16,12c.06,0,.07-.08.06-.11s0,0,0,0l.13,0a.34.34,0,0,0,.22,0,.15.15,0,0,0,.11-.09.17.17,0,0,0,0-.08.27.27,0,0,0-.06-.12l0,0,.25.07a.78.78,0,0,0,.24,0,.76.76,0,0,0,.18,0,.2.2,0,0,0,.12-.18.39.39,0,0,0,0-.09h.08a.45.45,0,0,0,.17-.05l.08,0h0c.05-.1,0,0,0,0h0v0s0-.05,0-.06a.76.76,0,0,0-.23-.31l-.29-.2-.32-.18-.18-.08a.76.76,0,0,0-.32,0,3.14,3.14,0,0,0-.39,0,1.7,1.7,0,0,1-.31,0,.34.34,0,0,1-.18-.06s0,0-.05-.05l0,0a.53.53,0,0,0-.13-.13,2.3,2.3,0,0,0-.66-.34,4.37,4.37,0,0,0-.62-.17A9.63,9.63,0,0,1,14,8.29a1.11,1.11,0,0,0,0-.6h0c.07,0,.09,0,.1,0a.63.63,0,0,1,0,.24,1.77,1.77,0,0,0,.08.54.35.35,0,0,0,.15.15.56.56,0,0,0,.28,0l.18,0s.06,0,.06,0l0,0s0,0,0,0l0,0a.92.92,0,0,0,.14.13.51.51,0,0,0,.3.07.51.51,0,0,0,.29-.11l0,0,.09,0,0,0h.06a1,1,0,0,0,.26.06.81.81,0,0,0,.31,0h0l.14.1a.85.85,0,0,0,.24.09l.16,0h.14a.59.59,0,0,0,.44-.26c.07-.1.09-.18.13-.24s0,0,0,0h0l.34,0a5.22,5.22,0,0,0,.79,0,4.65,4.65,0,0,0,.76-.09,2.17,2.17,0,0,0,.72-.23,2.24,2.24,0,0,0,.91-.83c.05-.08.08-.17.12-.25A.16.16,0,0,0,21.45,7.21Z"/><path class="cls-3" d="M17.54,8.07c-.2-.11-.22-.47-.22-.47a1.72,1.72,0,0,0-.07.34.32.32,0,0,0,.14.36l.5-.15a.49.49,0,0,1-.35-.08"/><path class="cls-3" d="M17.75,7.14s.25.34.48.59-.09.54-.09.54c.26.11.37-.13.33-.32a4.71,4.71,0,0,0-.72-.81"/></svg>