<svg id="Capa_1" data-name="Capa 1" xmlns="http://www.w3.org/2000/svg" viewBox="0 0 30.78 23.58"><defs><style>.cls-1{fill:#f5a4c7;}.cls-2{fill:#fccdb5;}.cls-3{fill:#231f20;}</style></defs><title>4-1mes</title><path class="cls-1" d="M17.5,17s-1.64,2.9-1.47,3.25-.44.82,3.22,1,3.84-.66,4-1-.42-1.4-.46-1.47a27.48,27.48,0,0,0-2.5-2.95c-.3-.12-2.2-.59-2.78,1.13"/><path class="cls-2" d="M29.87,7.7v7s-1.71.7-2.17.19-.26-.91-.4-1-.89-.12-.71-.43,1-.79,1-1,.08-.41.08-.41a3,3,0,0,1-1.22.71c-.53.07-.82.18-.89-.26s0-.43-.4-.4-1.12.2-1.38,0-.49-.37-.29-.85,1.07-1.4.69-1.84-1.49-1.72-1.42-2.75A2,2,0,0,1,23.7,5s2.14.78,2.19-.28,4,3,4,3"/><path class="cls-2" d="M21.57,16a3.68,3.68,0,0,0-.11-1.81c-.32-.54-1.25-1-1.55-1.48s.06-1.13-.58-1.27-1.21.31-1,.89.54.83.49,1.19-.91.46-.95.46l-2-.34s.12-.25-.28-.36-.53,0-.59.08-.09-.21-.33-.05-.35,0-.35,0-.36-.22-.45-.07-.17.11-.17.11a.51.51,0,0,0-.58.06s-.5-.1-.64.16.36.51.62.58-.26.1-.2.42.65.22.65.22a2.38,2.38,0,0,0,1.06.26c.35-.08.43.65.43.65a.55.55,0,0,0-.54-.16c-.39.07-.81,0-1,.16s-.68.08-.94.1A5.1,5.1,0,0,1,11.5,16c-.25-.05-.71-.41-.11-.59s1-.54.67-.86-.51-.37-.59-.62-.56.13-.63-.05,0-.45,0-.47a.52.52,0,0,1-.22-.37c0-.22-1-.2-1.19-.35s-.55-1-1.1-1.14a4.77,4.77,0,0,0-3,0c-.77.45-1.17,3.35-1,3.5s1.43,1.7,2.17,1.88a12.23,12.23,0,0,1,2.86.8c.42.36.6,1.53,2.42,2.39s2.79.94,3.45.5c0,0,.87.3,1.23.37s0,0,0,0A6,6,0,0,1,18.25,17a2,2,0,0,1,1.69-1c1.09.05.93.29.93.29s-1.68.32-1.9,1.16-.71,1.56.19,2.21a4,4,0,0,0,3.52.25,11.42,11.42,0,0,0,2-.71,12.5,12.5,0,0,0,2.67,1.19,17.11,17.11,0,0,0,2.24.13V17.63s-.7.57-1.44-.69-1.6-2.45-4.44-1.81c0,0-1.68.77-2.13.91"/><path class="cls-3" d="M10.72,13.51h0m0,.51Zm0-.49Zm2.88,2.77h0S13.62,16.32,13.61,16.3Zm.14-.54Zm1.11-1.35h0a.14.14,0,0,1-.11,0l-.07,0-.09,0a.66.66,0,0,1-.15-.09c-.06-.06,0-.16,0-.28l.09-.38a.49.49,0,0,1,.12-.26s.17,0,.24,0l.09,0a1,1,0,0,0-.12.21.59.59,0,0,0,0,.47.62.62,0,0,0,.12.2.15.15,0,0,1,0,.06A.29.29,0,0,1,14.86,14.41ZM14,14.25h0l-.18,0a.09.09,0,0,1-.07-.05.44.44,0,0,1,0-.28,1.73,1.73,0,0,1,.11-.32.57.57,0,0,1,.08-.13.2.2,0,0,1,.08-.08.46.46,0,0,1,.26,0l.06,0a1.2,1.2,0,0,0-.11.17,3.54,3.54,0,0,0-.14.39.79.79,0,0,0,0,.22s0,.05,0,.08Zm.1.3h0a.53.53,0,0,1-.21.06l-.26,0a1.75,1.75,0,0,1-.5-.05c-.06,0,0,0-.07,0s0,0,0,0v-.1a.12.12,0,0,1,.05-.12l0,0a.4.4,0,0,0,.22,0h.1l0,0a.46.46,0,0,0,.31.12l.22,0a.18.18,0,0,1,.07,0S14.11,14.52,14.07,14.55Zm-.76-1.08h0l.14-.07a.4.4,0,0,1,.21,0,.49.49,0,0,0-.12.13,1,1,0,0,0-.17.36.57.57,0,0,0,0,.29.16.16,0,0,1-.1,0h0a.19.19,0,0,1-.1,0L13,14.06,12.9,14c-.07-.07-.06-.11,0-.18a1.23,1.23,0,0,1,.27-.22Zm5,.27ZM16,16.23l0-.07h0a4.15,4.15,0,0,0,.81.17l.42,0c.14,0,.28,0,.42,0l.4-.06a.8.8,0,0,0,.22-.07l0,0h0l0,0h0a.16.16,0,0,0,0-.07.31.31,0,0,0-.11-.38l0,0a.39.39,0,0,0,.08-.1.24.24,0,0,0,0-.23.6.6,0,0,0-.32-.27,1.8,1.8,0,0,0-.82-.12h0a0,0,0,0,0,0,0,1.93,1.93,0,0,1,.61.27c.06.05.12.12.12.16s0,0-.08.05l-.26,0H17.2l-.36,0-.36-.05a4.24,4.24,0,0,1-.66-.17.81.81,0,0,1-.26-.15.25.25,0,0,1-.08-.21c0-.07.09-.12.2-.15l.14,0h0c.31,0,.62.1.94.13h0a.22.22,0,0,0,.24-.12c0-.08-.06-.16-.18-.18h0c-.31-.05-.62-.07-.94-.09s-.62,0-.94,0h0a.15.15,0,0,0,0-.12s0,0,0,0l.09.06a.5.5,0,0,0,.34,0,1.23,1.23,0,0,0,.2-.1.71.71,0,0,0,.26-.23.62.62,0,0,0,.11-.27v0l.33.06c.38.07.93.15,1.6.21l.26,0a.75.75,0,0,0,.15,0,.44.44,0,0,0,.12,0l.09,0,0,0a1,1,0,0,0,.47-.35.48.48,0,0,0,0-.5c-.11-.15-.21-.24-.3-.37a1.07,1.07,0,0,1-.25-.82.58.58,0,0,1,.29-.35.61.61,0,0,1,.49-.08.23.23,0,0,1,.16.27.59.59,0,0,0-.08.24.58.58,0,0,0,0,.26,1.7,1.7,0,0,0,.65.85c.17.13.29.19.42.3a3.51,3.51,0,0,1,.36.29,3,3,0,0,1,.51.59,1.55,1.55,0,0,1,.19.56c0,.19,0,.34,0,.48a1.15,1.15,0,0,1,0,.3.26.26,0,0,1,0,.1h0a0,0,0,0,0,0,0s0,0,0,0a.49.49,0,0,0,.09-.1,1.37,1.37,0,0,0,.13-.31,3.72,3.72,0,0,0,.12-.48,1.17,1.17,0,0,0-.1-.67,2.26,2.26,0,0,0-.5-.71,3.37,3.37,0,0,0-.39-.33,4.73,4.73,0,0,0-.44-.29,1.56,1.56,0,0,1-.59-.67.49.49,0,0,1-.05-.19c0-.06,0-.07,0-.21s-.13-.4-.42-.48a.89.89,0,0,0-.72.16.76.76,0,0,0-.32.43,1.59,1.59,0,0,0,.15.91c.05.13.15.29.2.39a.32.32,0,0,1,0,.29.71.71,0,0,1-.27.2H18c-.66,0-1.22-.06-1.61-.06H16a.43.43,0,0,0-.22-.37.9.9,0,0,0-.47-.1l-.18,0,.17,0a.62.62,0,0,1,.33.15.3.3,0,0,1,0,.34.71.71,0,0,1-.11.21.65.65,0,0,1-.19.15l-.11.06h0a.29.29,0,0,1-.12-.14.72.72,0,0,1-.11-.39,1,1,0,0,1,.06-.29.64.64,0,0,1,0-.12,1,1,0,0,0-.17.18.17.17,0,0,0-.06-.07.48.48,0,0,0-.12-.08.48.48,0,0,0-.27,0,.49.49,0,0,0-.19.14l-.05,0a.49.49,0,0,0-.35-.09.43.43,0,0,0-.22.09.52.52,0,0,0-.32-.07.86.86,0,0,0-.23.06l-.11,0a1.56,1.56,0,0,0-.53,0c-.3.06-.53.44,0,.61a.49.49,0,0,0,.12.13l.17.08a.61.61,0,0,0-.17.14l-.07.12a.31.31,0,0,0,0,.17c0,.14.21.25.35.29a1.54,1.54,0,0,0,.42,0,.52.52,0,0,0,.11.07,1.41,1.41,0,0,0,.69.2,1.73,1.73,0,0,0,.4,0,1.87,1.87,0,0,0,.33-.1.72.72,0,0,0,.25-.16H15l-.23,0-.61,0h-.42l.22-.09a.53.53,0,0,0,.19-.17.12.12,0,0,0-.08-.16l-.07,0,.13,0a.34.34,0,0,0,.06.06.93.93,0,0,0,.27.12l.12,0a.43.43,0,0,0,.16,0,.29.29,0,0,0,.17-.06h0a4.85,4.85,0,0,0,.63.16.4.4,0,0,0-.23.21.36.36,0,0,0,0,.3.78.78,0,0,0,.26.25,2.12,2.12,0,0,0,.72.31l.39.09.42.05a2.17,2.17,0,0,0,.44,0,1.31,1.31,0,0,0,.47-.12l.07,0,0,0a.26.26,0,0,1-.06.27l0,0h0c-.06,0-.07,0-.09,0H17.6c-.24,0-.5,0-.75-.07l-.38,0-.35-.06-.32-.08h0a.28.28,0,0,0-.09-.07.3.3,0,0,0-.13,0,.62.62,0,0,1-.16-.1.75.75,0,0,1-.07-.12v-.12a.52.52,0,0,0-.1.12.31.31,0,0,0,0,.17.69.69,0,0,0,.11.17l0,0a.53.53,0,0,0-.13-.13.61.61,0,0,0-.24-.07h-.11l-.08-.08a.71.71,0,0,0-.18-.15l-.12,0a.4.4,0,0,0-.22.05.29.29,0,0,0-.08.08l-.16,0h-.32a.36.36,0,0,0-.23.13.27.27,0,0,0-.05.13.61.61,0,0,0,.08.34v0H13a.07.07,0,0,0-.06,0,.06.06,0,0,0,0,.08.94.94,0,0,0,.1.1c.07.07.12.14.18.21a4.39,4.39,0,0,0,.3.45,1.06,1.06,0,0,0,.28.2.59.59,0,0,0,.2.07h0v.09a1.06,1.06,0,0,1,0,.19.77.77,0,0,1-.1.18l-.07.1a.83.83,0,0,0-.07.13.88.88,0,0,0-.05.15L13.66,18a5.51,5.51,0,0,0-1-.59h0a0,0,0,0,0,0,0c.28.24.55.48.78.72a2.46,2.46,0,0,1,.52.76h0a.3.3,0,0,0,.32.12c.14,0,.22-.13.18-.23h0a.66.66,0,0,1-.06-.2,1.46,1.46,0,0,1-.05-.2.84.84,0,0,1,0-.39l0-.08a.88.88,0,0,0,.06-.1,1.06,1.06,0,0,0,.11-.25.77.77,0,0,0,0-.26.59.59,0,0,0,0-.13,1.39,1.39,0,0,0-.06-.13L14.37,17h0a.11.11,0,0,0-.11,0,.06.06,0,0,0,0,.08.19.19,0,0,1-.08,0L14,17a.9.9,0,0,1-.24-.12,2.36,2.36,0,0,1-.35-.41l-.19-.21,0-.05h.17l.15,0,.08,0,0,.07,0,0a.18.18,0,0,0,.14.06c.09,0,.16-.05.15-.11a.07.07,0,0,0,0-.05h0a1.43,1.43,0,0,1-.07-.28,1,1,0,0,1,0-.23h0l.16,0,.15,0,0,0a.32.32,0,0,0,.14,0c.1,0,.17-.08.16-.15l.09.08,0,0a.14.14,0,0,0,.15,0l0,0h.21a.43.43,0,0,1,.22.18h0l0,0a.29.29,0,0,0,0-.09l0,0a2,2,0,0,0,.26.17l.17.07a.83.83,0,0,1,0,.15,6,6,0,0,1,.14.85A7.29,7.29,0,0,1,16,18.78a2.25,2.25,0,0,1-.72,1.52,1.92,1.92,0,0,1-.9.39.68.68,0,0,1-.28,0H14l-.14,0-.27-.05-.27-.08a9.47,9.47,0,0,1-2-1A6.72,6.72,0,0,1,10.5,19a2.13,2.13,0,0,1-.56-.72,1.52,1.52,0,0,0-.68-.75,1.46,1.46,0,0,0-.67-.2l0,0H9L8.6,17h.83l-.89-.15L9,16.84l-.64-.11L9,16.57l-.53-.07a2.14,2.14,0,0,1-2.08-.27c-.33-.49.82-.5.82-.5.82,0,.73-.14.73-.14l-.78-.09.78,0s-.28-.1-.68-.2a.8.8,0,0,1-.53-.48l.62.27a1.44,1.44,0,0,1-.4-.39,5.64,5.64,0,0,0-.62-.78c-.25-.29-.36-.23-.39-.21l.18-.18-.29-.12.45-.16L5.58,13l.5-.18H5.61l.55-.15-.71-.1.93-.21-.91-.1,1.39-.36-.8-.26.66,0L6,11.52l.94-.06a4.82,4.82,0,0,1,1.57.31,1,1,0,0,1,.36.23.49.49,0,0,1,.09.34.88.88,0,0,0,.08.27.62.62,0,0,0,.4.23,5.83,5.83,0,0,0,.68,0,1.11,1.11,0,0,1,.4,0s0,0,0,.08,0,.12-.06.22v.07a.37.37,0,0,0,0,.11.18.18,0,0,0,.1.09l.11,0h0a.86.86,0,0,1-.29.28h0l0,0a.12.12,0,0,0,0,.19.29.29,0,0,0,.3,0h.06l.11,0,.26,0h.18s0,0,0,.08a.53.53,0,0,0,.05.24.9.9,0,0,0,.22.18,1,1,0,0,1,.15.14,1.51,1.51,0,0,1,.1.17.12.12,0,0,1,0,.07s0,.05,0,.07a.42.42,0,0,1-.11.13,2.27,2.27,0,0,1-.44.21,2,2,0,0,0-.28.11h0l0,0h0l0,0a.26.26,0,0,0,0,.1.2.2,0,0,0,0,.13,1.54,1.54,0,0,0,.38.34h0l0,0a2.08,2.08,0,0,0,.25,0l.24,0,.21-.06a.7.7,0,0,1,.19-.06,2.55,2.55,0,0,1,.87,0h0s0,0,0,0a2.72,2.72,0,0,0-.91-.07l-.22.05-.2,0a.76.76,0,0,1-.21,0h-.16a1.1,1.1,0,0,1-.28-.3s0,0,0-.06h0v0h0l.23-.08A2.31,2.31,0,0,0,12,15.2a.5.5,0,0,0,.19-.22.31.31,0,0,0,0-.25,1,1,0,0,0-.29-.41c-.07-.06-.15-.11-.15-.12s0-.08,0-.16a.22.22,0,0,0,0-.13.31.31,0,0,0-.16-.16,1,1,0,0,0-.4-.05h0a.35.35,0,0,1,.05-.08.2.2,0,0,0,0-.09v-.09l-.06-.09a.32.32,0,0,0-.15-.1h0a1.37,1.37,0,0,1,.05-.19.29.29,0,0,0-.09-.33,1.31,1.31,0,0,0-.76-.19l-.56,0c-.06,0,0,0-.06,0a.39.39,0,0,1,0-.15.71.71,0,0,0-.16-.49,1.37,1.37,0,0,0-.52-.35,6.32,6.32,0,0,0-2.55-.4,4.69,4.69,0,0,0-2.37.77,3.78,3.78,0,0,0-1.39,1.49,2.77,2.77,0,0,0-.28.87c0,.15,0,.28,0,.43a3.12,3.12,0,0,0,.05.44,2.53,2.53,0,0,0,.36.85,3.11,3.11,0,0,0,.72.73,5,5,0,0,0,2.23.81,7.57,7.57,0,0,0,1.26,0L8,17.41a2.13,2.13,0,0,1,1.1.21,1.28,1.28,0,0,1,.56.71,2.22,2.22,0,0,0,.55.79,7.88,7.88,0,0,0,.84.66,11,11,0,0,0,1,.57,8.32,8.32,0,0,0,1.09.47l.3.09.33.07a2.38,2.38,0,0,0,.7,0,2.35,2.35,0,0,0,1.16-.52,2.32,2.32,0,0,0,.76-1.68,7.61,7.61,0,0,0-.17-1.72A6.28,6.28,0,0,0,16,16.23Z"/><path class="cls-3" d="M9,13.25A.72.72,0,0,0,8.3,13c-.42.08-.38.72-.38.72l.2-.36s.29.25.47.13-.05-.26-.05-.26a.44.44,0,0,1,.43,0"/><path class="cls-3" d="M7.37,12.54a1.49,1.49,0,0,0-.83.84,6.6,6.6,0,0,1,1.79-1s-.27-.21-1,.12"/><path class="cls-3" d="M27.06,8.71l.73,0a5.49,5.49,0,0,0-1.44-.24,2.41,2.41,0,0,0-.86.17l-.86-.39a.59.59,0,0,1,.28.52l-.28.38.67-.14s.73.79.86.57S26,8.8,26,8.8s.1-.11,1.09-.09"/><path class="cls-3" d="M29.92,2.62S25.08,2.75,23,4.88s-1.29,2.51-.14,2.83a1.91,1.91,0,0,0,.33.85,1.33,1.33,0,0,0,.45.43.91.91,0,0,0,.17.09s.1.05.09.06a.34.34,0,0,1,.12.12,1.18,1.18,0,0,1-.05.82,4.55,4.55,0,0,1-.42.86c-.1.15-.18.27-.3.43l0,.05,0,.1a.36.36,0,0,0,0,.18.62.62,0,0,0,.24.27,1.56,1.56,0,0,0,.74.22,1.87,1.87,0,0,0,.75-.07,1.15,1.15,0,0,1,.32,0c.11,0,.18,0,.19.05a.06.06,0,0,1,0,0v.47h0s0,.06.09.06a4.29,4.29,0,0,0,.72,0,2.24,2.24,0,0,0,.65-.2,1.39,1.39,0,0,0,.27-.17l.23-.18.07-.06c0,.1-.09.19-.14.29a2.23,2.23,0,0,1-.43.59.77.77,0,0,1-.3.19,2.06,2.06,0,0,0-.25.1.25.25,0,0,0-.11.13.18.18,0,0,0,0,.12.41.41,0,0,0,.09.12l.09.08.1.07.26.13a1.1,1.1,0,0,0,.26.06s0,.09,0,.14a.54.54,0,0,0,.11.4l.12.15.14.15a1.37,1.37,0,0,0,.41.26,1.28,1.28,0,0,0,.55.06,1.59,1.59,0,0,0,.5-.09,4.25,4.25,0,0,0,.84-.36s0,0,0,0h0a6.82,6.82,0,0,1-.88.26,3.42,3.42,0,0,1-.44,0,.92.92,0,0,1-.38-.07.71.71,0,0,1-.27-.21,1.13,1.13,0,0,1-.1-.13l-.1-.14a.35.35,0,0,1-.05-.26.61.61,0,0,1,.05-.12.44.44,0,0,1,.08-.1.12.12,0,0,0,0-.13c0-.08-.14-.13-.26-.11h-.17l-.16,0a.53.53,0,0,1-.15-.08l-.08-.06,0,0,.09,0a1.31,1.31,0,0,0,.42-.29,2.63,2.63,0,0,0,.38-.69,3.46,3.46,0,0,0,.19-.7h0s0-.06-.07-.07a.11.11,0,0,0-.14,0,.9.9,0,0,1-.16.19l-.19.19a2.15,2.15,0,0,1-.46.33,2.47,2.47,0,0,1-1.16.19l0-.2v-.2a.34.34,0,0,0,0-.09.34.34,0,0,0-.19-.16,1.06,1.06,0,0,0-.23,0,1.62,1.62,0,0,0-.44,0h0a1.42,1.42,0,0,1-.58,0,.94.94,0,0,1-.48-.17.26.26,0,0,1-.11-.13.11.11,0,0,1,0,0s0,0,0,0l0-.05a3.56,3.56,0,0,0,.32-.42,4.27,4.27,0,0,0,.5-.91,2.7,2.7,0,0,0,.12-.49,1,1,0,0,0-.1-.55.92.92,0,0,0-.26-.26l-.17-.09-.11,0a1.26,1.26,0,0,1-.37-.32,2.08,2.08,0,0,1-.39-.84,2.57,2.57,0,0,1,0-.68,2.93,2.93,0,0,1,1.2-1.49A13.5,13.5,0,0,0,26.91,7c-1.09-.18-2.83-.29-3.05.8,0,0,.55-1,3.25-.71a5,5,0,0,0,1.39.4,7.39,7.39,0,0,1,1.37.24l.05-3Z"/><path class="cls-3" d="M29.87,7.7v.07s.11,0,0-.07"/><path class="cls-3" d="M24.79,11.59s.89.13.8,0-.8,0-.8,0"/><path class="cls-3" d="M25.59,11.13s.66.11.39.51c0,0,.64-.62-.39-.51"/><path class="cls-3" d="M20.17,16.4h0a2.92,2.92,0,0,0-.59.27,1.86,1.86,0,0,0-.44.39,2,2,0,0,0-.26.43,4.12,4.12,0,0,0-.29.88,2.32,2.32,0,0,0,0,.46,1.44,1.44,0,0,0,.09.45,1.15,1.15,0,0,0,.28.42,1.73,1.73,0,0,0,.49.32l.3.11.31.07a4.91,4.91,0,0,0,.65.06A6.37,6.37,0,0,0,22,20.17,9,9,0,0,0,23,20a1.08,1.08,0,0,1,0,.18.77.77,0,0,1-.1.29,1.09,1.09,0,0,1-.23.25,1.81,1.81,0,0,1-.33.2L22,21l-.46.09a3.91,3.91,0,0,1-.48,0,3.91,3.91,0,0,1-.49,0H20l-.5,0H19l-.51,0c-.33,0-.67-.05-1-.09l-1-.1a3.58,3.58,0,0,1,.1-.8,5.7,5.7,0,0,1,.25-.8,6,6,0,0,1,.9-1.5c.19-.23.42-.46.63-.69a5.23,5.23,0,0,1,.68-.65,1.55,1.55,0,0,1,.37-.24.61.61,0,0,1,.39,0,2.23,2.23,0,0,1,.52.09l.08,0-.29.08m9.42,1.21a.57.57,0,0,1-.29.06.69.69,0,0,1-.37-.17,2.27,2.27,0,0,1-.38-.38c-.25-.3-.52-.68-.83-1.07a3.1,3.1,0,0,0-.56-.62,2.35,2.35,0,0,0-.93-.43,4.41,4.41,0,0,0-1.08-.08c-.35,0-.7,0-1,.08a7.85,7.85,0,0,0-.94.18,4.27,4.27,0,0,0-.77.3,3.55,3.55,0,0,0-.92.64,1.29,1.29,0,0,0-.25.29l-.1,0v0a.81.81,0,0,0-.52-.43,3.55,3.55,0,0,0-.65-.13,1.57,1.57,0,0,0-.77.08,2.37,2.37,0,0,0-.51.32A6.79,6.79,0,0,0,18,17a8.19,8.19,0,0,0-.59.73,5.85,5.85,0,0,0-.48.78,3.65,3.65,0,0,0-.18.41,2.8,2.8,0,0,0-.13.41A3.65,3.65,0,0,0,16.48,21h0l1,.2c.17,0,.33.07.5.09l.5.07.51.07.51,0,.51,0h.52a4.7,4.7,0,0,0,.53,0,5,5,0,0,0,.53-.05l.52-.09c.16-.06.34-.11.49-.18a1.82,1.82,0,0,0,.43-.26,1.14,1.14,0,0,0,.28-.35.92.92,0,0,0,.09-.39,1,1,0,0,0-.08-.38h0a13.85,13.85,0,0,0,1.34-.37l.06.08.21.19a4,4,0,0,0,.49.29,4.9,4.9,0,0,0,.52.24l.28.11.29.09a5.63,5.63,0,0,0,1.24.2A4.25,4.25,0,0,0,29,20.46a6.5,6.5,0,0,1-1.19-.11,6.21,6.21,0,0,1-1.09-.28L26.45,20l-.25-.1-.49-.23a3.62,3.62,0,0,1-.44-.24,1.41,1.41,0,0,1-.18-.14L25,19.21s0-.06,0,0L24.68,19c-.47.21-.94.43-1.38.67l-.05-.1-.18.07a6.58,6.58,0,0,1-1.14.34,5.12,5.12,0,0,1-1.24.13,3,3,0,0,1-.61-.06,1.63,1.63,0,0,1-.3-.07l-.27-.1a1.31,1.31,0,0,1-.42-.29.92.92,0,0,1-.22-.38,1.5,1.5,0,0,1,0-.42,2,2,0,0,1,.08-.42,4,4,0,0,1,.36-.83,1.85,1.85,0,0,1,.25-.37,2.2,2.2,0,0,1,.37-.3,2.55,2.55,0,0,1,.48-.2,2.78,2.78,0,0,1,.53-.11l.3,0-.05-.13.31,0c.26,0,.64,0,1.09,0a13.33,13.33,0,0,1,1.51.05,7.76,7.76,0,0,1,.82.13l.38.1.37.14c.11,0,.22.11.35.17l.33.19.62.41c.39.27.74.54,1.07.76a4.16,4.16,0,0,0,.88.48,1.82,1.82,0,0,0,.31.07h.11l-.11,0-.25-.11a4.46,4.46,0,0,1-.72-.55c-.27-.25-.58-.54-1-.84-.19-.15-.4-.3-.62-.45l-.35-.21c-.12-.06-.24-.13-.38-.19a2.32,2.32,0,0,0-.44-.16,3.69,3.69,0,0,0-.45-.11,5.79,5.79,0,0,0-.91-.11,9.89,9.89,0,0,0-1.58.05,11.69,11.69,0,0,0-1.16.18l.28-.15c.24-.13.57-.31,1-.5l.71-.26c.27-.09.54-.19.84-.28a3.64,3.64,0,0,1,1-.16,2.55,2.55,0,0,1,1,.16,1.88,1.88,0,0,1,.69.45,3.16,3.16,0,0,1,.44.58,5.88,5.88,0,0,0,.92,1.09,2.87,2.87,0,0,0,.54.37,1,1,0,0,0,.6.14.59.59,0,0,0,.34-.15l.08-.07,0,0Z"/></svg>