<svg id="Capa_1" data-name="Capa 1" xmlns="http://www.w3.org/2000/svg" viewBox="0 0 30.84 23.4"><defs><style>.cls-1{fill:#f5a4c7;}.cls-2{fill:#fccdb5;}.cls-3{fill:#ffd82c;}.cls-4{fill:#231f20;}</style></defs><title>6-1mes</title><path class="cls-1" d="M14.91,14.8a5.18,5.18,0,0,0-2.35-.64,1.35,1.35,0,0,0-1,1l-.88,4s-.44.33-.31.62a7.41,7.41,0,0,0,4,.72c1.26-.25,2.22-.25,2.17-.91s-1.6-4.78-1.6-4.78"/><path class="cls-2" d="M11.37,15.16a4.06,4.06,0,0,1,1.57,1.29,1.74,1.74,0,0,1,0,2.36,4.18,4.18,0,0,1-1.41.7l-1.35-.42L8.61,18.2a8.34,8.34,0,0,1-2.06,1.14,8.36,8.36,0,0,1-2.45-.76c-.45-.24-1-.62-.91-.88s-.11-.37.05-.58a.73.73,0,0,0,.11-.56c0-.13-.29-.41.32-.61a4.16,4.16,0,0,1,.76.41c.07.1-.13-.28-.06-.57s-.3-.53-.2-.7.5,0,.5,0,1,1.28,1.34,1.07.73-1.15.93-1.39a2.62,2.62,0,0,1,2.17-1.09,11,11,0,0,1,2.77,1Z"/><path class="cls-3" d="M15.83,9a6,6,0,0,1-1.59.8,10.21,10.21,0,0,1-1.7.18,2.6,2.6,0,0,0,1,1.18,9.82,9.82,0,0,0,3.24,1,1.58,1.58,0,0,1,.09-1.64c.58-.76.92-2.05-1-1.55"/><path class="cls-2" d="M14.31,14.15s-.47.14-.5.93a6.74,6.74,0,0,0,1,3.32c.51.54,1.36,1.05,1.64,1a9.49,9.49,0,0,1,2.31-.09c.23.1.28,1.13,1.72,1.16a2.34,2.34,0,0,0,2.07-1.26L23,19l1.85,0L28,17.5s1.54-3.18.54-4A5,5,0,0,0,25.33,12a3.42,3.42,0,0,0-2.1.83,1.89,1.89,0,0,1-1.37.29,2.28,2.28,0,0,0-1.75,1.08A2.18,2.18,0,0,0,20,15.82c.11.22-1.75-.74-1.75-.74l-.63-.22a1.42,1.42,0,0,0-.71-1,1.89,1.89,0,0,0-2.58.3"/><path class="cls-2" d="M1.28,1.31s8.09,3.14,10.3,3.07,2.95-.51,4,0,4.13,2.43,4.77,2.73.75.84-1,.47S16.72,6.26,15.75,6.2s-1.63.18-1.51.57a2.46,2.46,0,0,0,1.1,1.09.55.55,0,0,1,.25.88c-.27.44-.2.55-.62.17a3.51,3.51,0,0,0-1.16-.73c-.45-.17-2.26-1-2.5-1.6l-.19-.25S8.67,6,7.34,5.82A52.79,52.79,0,0,1,1.27,4.67Z"/><path class="cls-4" d="M22.7,19.26h0a.27.27,0,0,0,0-.11h0A.86.86,0,0,0,23,19l.42.16h-.05l-.35,0,0,0,.16,0Zm.51-.5h0s0,0,0-.06l.52.12-.66.08A.45.45,0,0,0,23.21,18.76Zm.27-.13h0l-.21,0s0,0,0-.05l0-.1h0l0,.05ZM8.79,18.29h0A3.2,3.2,0,0,0,9.31,18a1.26,1.26,0,0,0,.32-.28.81.81,0,0,0,.16-.34,1,1,0,0,0,0-.34,1.77,1.77,0,0,0-.08-.33H9.67a1.22,1.22,0,0,1,0,.33.67.67,0,0,1-.07.31.59.59,0,0,1-.19.28,1.19,1.19,0,0,1-.3.23,4.94,4.94,0,0,1-.8.32c-.14.05-.3.1-.43.16a2.82,2.82,0,0,0-.42.23c-.26.17-.43.38-.62.49a1,1,0,0,1-.32.1l-.22,0H6.13A2,2,0,0,1,5.38,19,2.74,2.74,0,0,1,5,18.79a2.6,2.6,0,0,1-.3-.22.23.23,0,0,0-.12-.06,2.26,2.26,0,0,1-.43-.17h0a.25.25,0,0,0,.2-.11c.06-.09,0-.2-.14-.23h0a4.52,4.52,0,0,0-.58-.13H3.53l0,0h0l.13-.07c.13-.05.29-.09.44-.13H4c.11,0,.18-.1.15-.18a.24.24,0,0,0-.26-.11h0l-.17,0H3.57l-.11,0h0l0,0,.17,0h.15l.31-.08c.05,0,.09-.06.08-.11A.16.16,0,0,0,4,17H4L3.53,17h0A.17.17,0,0,1,3.42,17s0,0,0-.07,0-.06,0-.09a.17.17,0,0,1,.05-.13s.08,0,.16,0h0l.43.17a.13.13,0,0,0,.12,0,.05.05,0,0,0,0-.09,1.89,1.89,0,0,0-.52-.21H3.61l-.24-.09h0s0-.06,0-.13a1.53,1.53,0,0,1,.18-.19.35.35,0,0,1,.19-.1.36.36,0,0,1,.2.12,4.2,4.2,0,0,0,.82.81l.18.08.18.05.29.1a1,1,0,0,0,.47.07.88.88,0,0,0,.39-.18,8,8,0,0,0,.83-.8,3.3,3.3,0,0,1,.38-.37,3.3,3.3,0,0,1,.49-.28l.29-.1a1.32,1.32,0,0,1,.3-.09,6.06,6.06,0,0,1,.64-.12,5,5,0,0,1,.67-.05c.23,0,.46,0,.69,0l.66,0,.47.13a.13.13,0,0,1-.1,0s0,0,.09,0l.14.1.16.12a3.05,3.05,0,0,1,.46.61,2.77,2.77,0,0,1,.44,1.36,2,2,0,0,1,0,.35,3.38,3.38,0,0,1-.08.34,3.62,3.62,0,0,1-.13.35,2,2,0,0,1-.2.31,1.05,1.05,0,0,1-.3.25,1.09,1.09,0,0,1-.42.12,1.68,1.68,0,0,1-.91-.24h0a.15.15,0,0,0-.13,0l0,0ZM4.31,15.17Zm.21.09h0c.16.1.31.24.47.36s.32.26.5.38a1.31,1.31,0,0,0,.29.18c.1,0,.31.12.43,0a3.18,3.18,0,0,0,.34-.46,7.94,7.94,0,0,1,.63-.89,2.64,2.64,0,0,1,.85-.7A1.67,1.67,0,0,1,8.58,14H9l.16,0a8.47,8.47,0,0,1,1.35.25,3.66,3.66,0,0,1,1,.4l0,0a2.2,2.2,0,0,0-.26.27c-.05.07-.1.14-.14.21a9.84,9.84,0,0,0-2-.09,5.67,5.67,0,0,0-.72.1,3.58,3.58,0,0,0-.35.09,2,2,0,0,0-.34.12,3.77,3.77,0,0,0-.6.31,4.5,4.5,0,0,0-.44.41c-.26.27-.5.55-.76.78a.56.56,0,0,1-.16.1s-.09,0-.2,0l-.35-.08-.06,0A1.68,1.68,0,0,0,5,16.61c-.09-.11-.22-.22-.31-.32A.54.54,0,0,1,4.51,16a.26.26,0,0,1,0-.15l0-.08s0-.05,0-.05a.11.11,0,0,0,0-.18l0,0a.53.53,0,0,1-.1-.13.37.37,0,0,1,0-.09s0,0,0-.06h0Zm16.35,2.31h0l0,0h0v0h0Zm0,0h0v0ZM16,15h0s0,0,0,0Zm-.65-.08Zm14.05-.73a3.63,3.63,0,0,0-.86-1,5.53,5.53,0,0,0-1.26-.75A6,6,0,0,0,25.77,12a2.92,2.92,0,0,0-1.61.21,3.23,3.23,0,0,0-.63.36,4.5,4.5,0,0,1-.56.37,1.44,1.44,0,0,1-.7.11,3.2,3.2,0,0,0-.86.05,3,3,0,0,0-.7.35,2.51,2.51,0,0,0-.56.45A2,2,0,0,0,19.72,15a1.69,1.69,0,0,0,.09.7l-1-.46a5.52,5.52,0,0,0-.83-.33l-.25-.07h0a.25.25,0,0,0,0-.17,1.08,1.08,0,0,0-.31-.53,6.21,6.21,0,0,0-.52-.41l-.12-.1a.46.46,0,0,0-.18-.1,1.92,1.92,0,0,0-.4-.09,3.64,3.64,0,0,0-.81,0,1.53,1.53,0,0,0-.69.28,2.72,2.72,0,0,0-.46.43,2.58,2.58,0,0,1,.51-.4,1.45,1.45,0,0,1,.67-.23,3.14,3.14,0,0,1,.75,0,1.69,1.69,0,0,1,.34.08l.12.07.12.11c.16.15.35.27.49.41a.94.94,0,0,1,.23.47.09.09,0,0,1,0,.05l-.1-.06-.11-.09a1.45,1.45,0,0,1-.32-.44.13.13,0,0,0-.15-.07c-.08,0-.14.05-.13.1a3.73,3.73,0,0,1,0,.46.78.78,0,0,1,0,.22h0l-.05-.05-.06-.08a.68.68,0,0,1-.07-.2.82.82,0,0,1,0-.22,2,2,0,0,0,0-.23c0-.06-.05-.11-.13-.12a.16.16,0,0,0-.18.1h0a3.33,3.33,0,0,1-.07.54,1.06,1.06,0,0,1-.09.25A.21.21,0,0,1,16,15l-.05,0,0,0a.36.36,0,0,1,0-.11.72.72,0,0,1,0-.25,1.52,1.52,0,0,1,0-.21A3.4,3.4,0,0,0,16,14s0-.09-.1-.1a.16.16,0,0,0-.17.07,2.63,2.63,0,0,0-.1.47v0a2.25,2.25,0,0,1-.08.24l-.06.11a.29.29,0,0,1-.07.08h0c-.06,0-.06,0-.08-.08a.52.52,0,0,1-.07-.22,1.67,1.67,0,0,1,.08-.49h0s0-.06-.06-.06a.08.08,0,0,0-.1,0h0a1.38,1.38,0,0,0-.08.27s0,.1-.05.15a1.21,1.21,0,0,1-.09.2l-.08.08a.09.09,0,0,1-.08,0,.14.14,0,0,1-.09,0,.34.34,0,0,1-.08-.09.5.5,0,0,1-.08-.2.52.52,0,0,1,.17-.4.55.55,0,0,0-.22.4.59.59,0,0,0,.14.32.24.24,0,0,0,.14.08.23.23,0,0,0,.18,0,.32.32,0,0,0,.1-.1l0,0a.41.41,0,0,0,.05.18.3.3,0,0,0,.12.13h0l0,0,.08,0a.39.39,0,0,0,.17,0,.26.26,0,0,0,.12-.11s0,0,0,.08l.07.08.08.06a.41.41,0,0,0,.19.05.31.31,0,0,0,.19-.05.54.54,0,0,0,.15-.16l0,0s0,0,.05,0a.36.36,0,0,0,.13.11.38.38,0,0,0,.14,0,.28.28,0,0,0,.22,0,.35.35,0,0,0,.1-.15,1.1,1.1,0,0,0,0-.25l0,.06h0v0l.1,0,.05,0,.17.1a.59.59,0,0,0,.18,0l.07,0a7.22,7.22,0,0,1,1,.47,15.35,15.35,0,0,0,1.51.8l.9.4L20.43,16a.85.85,0,0,1-.23-.44,1.51,1.51,0,0,1,0-.52,2.21,2.21,0,0,1,.37-1,2,2,0,0,1,.45-.4,2.57,2.57,0,0,1,.55-.34,2.51,2.51,0,0,1,.72-.08,1.76,1.76,0,0,0,.82-.18,4.4,4.4,0,0,0,.57-.41l.1-.07c.07,0,.13.13.17.32.14.62-.66,1.1-.66,1.1s.88-.4.89-1c0-.3-.14-.45-.3-.49a2.46,2.46,0,0,1,.39-.22,2.74,2.74,0,0,1,1.48-.17,4.69,4.69,0,0,1,.78.21,6.09,6.09,0,0,0-1-.19l.6.32-.94-.07a6.08,6.08,0,0,0,1.76.79l-1.67,0a11.18,11.18,0,0,0,1.79.59l-1.11,0,1.1.45h-.74l1,.39-1.23,0,1.25.61-.66.06.46.26s-.6.08-.66.1a4.6,4.6,0,0,0,.65.19s-.94,0-1.2.44-.49.79-.49.79l.81-.57s-.64.84-1.09.9a5.84,5.84,0,0,1-.69.06l1,.1a7,7,0,0,1-1,.1,2.79,2.79,0,0,1,.76.11s0,0,.06.05h-.08l0,0,.1.1c.06.05.14.14.13.19a.19.19,0,0,1,0,.09s0,0,0,0l0,.05,0,0s0,0,0,0a1.14,1.14,0,0,1-.38.16.81.81,0,0,1-.22,0l-.34,0-.31-.05-.23,0-.07,0-.05,0h0a.15.15,0,0,1-.1-.17.7.7,0,0,1,0-.11l0,0a.62.62,0,0,0-.18.06.18.18,0,0,0-.07.05.51.51,0,0,0-.15-.29.42.42,0,0,0-.14-.09.36.36,0,0,0-.15,0,.3.3,0,0,0-.15,0l-.08.07a.33.33,0,0,0-.08-.17.28.28,0,0,0-.07-.09l-.12-.07a.25.25,0,0,0-.17,0h0a.57.57,0,0,0-.11-.11.68.68,0,0,0-.41-.12h-.05l-.08-.06a.53.53,0,0,0-.28-.07.42.42,0,0,0-.22.08.3.3,0,0,0-.1.09l-.15,0a.45.45,0,0,0-.27.05.19.19,0,0,0-.1.08l0,0v0l0,.05v0a.49.49,0,0,0,.13.28.79.79,0,0,1,.15.24.25.25,0,0,1,0,.22h0a2.57,2.57,0,0,0-.88.06,1,1,0,0,0-.32.15.53.53,0,0,0-.18.19,1.09,1.09,0,0,0-.08.2.9.9,0,0,1,.15-.17.54.54,0,0,1,.21-.13,1.23,1.23,0,0,1,.29-.07,1.93,1.93,0,0,1,.57.07h0l0,.07a1,1,0,0,0,0,.32.29.29,0,0,0,0,.12l.05,0,.14-.09a1.11,1.11,0,0,0,.25-.27.69.69,0,0,0,.1-.19.25.25,0,0,0,0-.12.77.77,0,0,0,0-.15l-.1-.25a1.18,1.18,0,0,1,0-.26s0-.06,0-.09l0,0,.14.13a1.81,1.81,0,0,1,.2.25.56.56,0,0,0,.08.11h0a.56.56,0,0,0,.08-.11.55.55,0,0,0,0-.35.54.54,0,0,0-.12-.24.58.58,0,0,0-.22-.17l.09,0h.1l0,0a.52.52,0,0,1,.11.21c.06.17.1.35.14.5a1.22,1.22,0,0,0,.05.17.31.31,0,0,0,0,.07.89.89,0,0,0,.14-.24.82.82,0,0,0,0-.56s0,0,0-.06l.07.06.07.1s0,.08,0,.11a1.42,1.42,0,0,1,.14.46l.05.23a.71.71,0,0,0,.17-.22.7.7,0,0,0,0-.55.86.86,0,0,0-.07-.1.11.11,0,0,1,.08,0,.1.1,0,0,1,.05.06l0,.07a.68.68,0,0,1,0,.15,2.48,2.48,0,0,1-.12.65l-.08.23.3-.09a.55.55,0,0,0,.25-.16l.1-.17a1,1,0,0,0,.05-.16A.43.43,0,0,0,23,18a.47.47,0,0,1,.06.15.8.8,0,0,1,0,.27.68.68,0,0,1,0,.14l0,.14a.63.63,0,0,1-.45.45h.07a.77.77,0,0,1-.13.16,4.11,4.11,0,0,1-.48.37,1.85,1.85,0,0,1-.33.21l-.41.2a3.69,3.69,0,0,1-1,.24,1.07,1.07,0,0,1-.54-.11,1,1,0,0,1-.33-.33c-.08-.12-.14-.24-.22-.35l-.25-.29a5.91,5.91,0,0,0-.42-.43l-.19-.16-.05,0a1.28,1.28,0,0,0,.16.53l-.2,0A7.42,7.42,0,0,0,17,19.15a2.09,2.09,0,0,0-.42.05l-.12,0h-.07c-.09,0-.07,0-.1,0a1.59,1.59,0,0,1-.58-.36,4.57,4.57,0,0,1-.91-1.14,4.21,4.21,0,0,1-.33-.63,5.33,5.33,0,0,1-.23-.63,9.3,9.3,0,0,1-.27-1.15,1,1,0,0,1,.13-.79.93.93,0,0,1,.32-.2l-.11,0a1.27,1.27,0,0,0-.3.14,1.05,1.05,0,0,0-.34.83,5.2,5.2,0,0,0,.11,1.2,3.72,3.72,0,0,0,.2.68,4.15,4.15,0,0,0,.33.67,4.38,4.38,0,0,0,1,1.21,2.08,2.08,0,0,0,.83.41,1.47,1.47,0,0,0,.3,0,.23.23,0,0,1-.07.17,1,1,0,0,1-.34.22,3,3,0,0,1-.84.31,6.51,6.51,0,0,1-1.93.1l-.49,0-.5-.05c-.17,0-.32,0-.5-.06l-.49-.08a2.12,2.12,0,0,1-.45-.12.88.88,0,0,1-.35-.18.19.19,0,0,1,0-.26.88.88,0,0,1,.25-.2,2.1,2.1,0,0,0,1,.29,1.65,1.65,0,0,0,.62-.1,1.9,1.9,0,0,0,.46-.29,2.07,2.07,0,0,0,.32-.35,2.49,2.49,0,0,0,.23-.37,2.12,2.12,0,0,0,.14-.4,2.79,2.79,0,0,0,.07-.4,2.86,2.86,0,0,0-1-2.3l-.21-.16a1.71,1.71,0,0,0-.27-.14l-.2-.07.09-.14a2,2,0,0,1,.21-.2,1.67,1.67,0,0,1,.26-.17l.15-.06.17-.06c.12,0,.24-.05.37-.06a4.34,4.34,0,0,1,.8,0l0,0-.4-.11a3,3,0,0,0-.43,0,1.78,1.78,0,0,0-.46,0l-.22,0a1.41,1.41,0,0,0-.22.06,2.1,2.1,0,0,0-.4.18c-.07,0-.12.09-.18.13a2.17,2.17,0,0,0-.29-.24,4.42,4.42,0,0,0-.61-.32,5.05,5.05,0,0,0-.69-.22c-.24-.06-.48-.12-.72-.16l-.2,0-.18,0a2.22,2.22,0,0,0-.45,0,2.16,2.16,0,0,0-.78.24,2.57,2.57,0,0,0-.92.86,5.33,5.33,0,0,0-.46,1,1.61,1.61,0,0,1-.24.45c-.1.08-.32-.06-.47-.18a2.52,2.52,0,0,1-.39-.41c-.13-.14-.24-.29-.4-.44a1.2,1.2,0,0,0-.38-.2.56.56,0,0,0-.19,0,.39.39,0,0,0-.22.08.3.3,0,0,0-.11.22v.15a.47.47,0,0,0,.06.15.53.53,0,0,0,.15.19h0l0,.12a.45.45,0,0,0,0,.23l0,.09L4.07,16a.57.57,0,0,0-.35-.16.46.46,0,0,0-.34.16,1.3,1.3,0,0,0-.19.22.23.23,0,0,0,0,.14.16.16,0,0,0,.16.14h0l.06,0-.05,0a.29.29,0,0,0-.13.22.41.41,0,0,0,0,.1.6.6,0,0,0,0,.12.24.24,0,0,0,.06.09l-.08,0a.38.38,0,0,0-.12.13.17.17,0,0,0,0,.1.35.35,0,0,0,.06.09.32.32,0,0,0,.1.07h0l-.12.08a.33.33,0,0,0-.11.16A.24.24,0,0,0,3,18l.07.06.05,0,0,0h0v0a.52.52,0,0,0,.12.16l.09.07a1.89,1.89,0,0,0,.47.28,3.27,3.27,0,0,0,.47.18,2.26,2.26,0,0,0,.31.23,2.27,2.27,0,0,0,.41.22,2.69,2.69,0,0,0,1,.27c.1,0,.19,0,.3,0l.26,0a1.45,1.45,0,0,0,.53-.19c.29-.2.41-.39.61-.54a1.77,1.77,0,0,1,.33-.19l.39-.18.24-.1a3.59,3.59,0,0,0,1.84.87,1.17,1.17,0,0,0-.33.24.33.33,0,0,0,0,.43,1.35,1.35,0,0,0,.4.3,4,4,0,0,0,.48.19l.51.15.51.12a9,9,0,0,0,1.06.13,5,5,0,0,0,.55,0l.55,0a5,5,0,0,0,1.09-.22,2.68,2.68,0,0,0,.89-.46,1.22,1.22,0,0,0,.3-.34.32.32,0,0,0,0-.27h0l.07,0,.34-.08a10.07,10.07,0,0,1,1.2-.08h.23l.08.13a3.14,3.14,0,0,0,.25.32,3.31,3.31,0,0,0,.39.3c.16.09.29.19.46.3a2.12,2.12,0,0,0,.6.21,2,2,0,0,0,.69,0,3.78,3.78,0,0,0,.64-.14,1.79,1.79,0,0,0,.52-.24,1.36,1.36,0,0,0,.35-.3,1.15,1.15,0,0,0,.29-.52.38.38,0,0,0,0-.1c.13,0,.48,0,1,0A6.74,6.74,0,0,0,26.27,19a6.25,6.25,0,0,0,1.38-.64c.22-.13.39-.29.59-.43l.48-.45c.13-.17.28-.33.41-.5a4.17,4.17,0,0,0,.31-.54,2.39,2.39,0,0,0,0-2.28Z"/><path class="cls-4" d="M22,14.09a.64.64,0,0,0-.1.4.52.52,0,0,1,.79-.27.45.45,0,0,0-.69-.13"/><path class="cls-4" d="M22.3,14.66c0-.21-.14-.1-.14-.1-.21.17.09.38.21.42s.24-.12.24-.12,0,.05-.14,0-.17,0-.17-.24"/><path class="cls-4" d="M21.71,15.49a2,2,0,0,0,0-.58c-.06-.09-.11,0-.14-.17s-.27-.27-.27-.27,0,.28.16.39.28.63.28.63"/><path class="cls-4" d="M21.09,15.06A.37.37,0,0,1,21,14.9c-.33.29,0,.3.17.35s.1-.09,0-.19"/><path class="cls-4" d="M24.54,14.53a3.87,3.87,0,0,1,.2.87s.37-1.14-.52-1.07l-.32.07s-.27.41.35.72l-.1-.19s.39-.1.3-.33a.27.27,0,0,0-.33-.15s.31-.1.42.08"/><path class="cls-4" d="M22.87,13.35c-.14.05-.15.15-.15.15l-.1,0a.91.91,0,0,0,.51.23s.28-.3.13-.47-.48,0-.48,0,.33-.09.41.06-.1.34-.1.34L23,13.56a.61.61,0,0,0,.08-.19c0-.1-.09-.06-.22,0"/><path class="cls-4" d="M25.48,14.18c-.19-.37-.53-.41-.66-.21a.39.39,0,0,1,.52.18,2.65,2.65,0,0,1,.07,1.18,2,2,0,0,0,.07-1.15"/><path class="cls-4" d="M24.45,17.59h0c-.11,0-.16,0,0,0"/><path class="cls-4" d="M20.74,7.47h0l-.06,0-.19,0a3.19,3.19,0,0,1-.45,0,3.74,3.74,0,0,1-.89-.1,3.3,3.3,0,0,1-.8-.29L18,7a.87.87,0,0,1,.07-.17,2.07,2.07,0,0,1,.19-.32.54.54,0,0,1,.18-.15l.77.39c.49.24,1,.51,1.49.71m-2.89.63h0l-.49.28s0-.08,0-.11.1-.25.16-.37.14-.24.21-.36A2.45,2.45,0,0,0,18,7.19s0,0,0-.05l.27.14a4.17,4.17,0,0,0,.84.31A8.69,8.69,0,0,0,17.85,8.1Zm-1,2.4h0a3,3,0,0,0-.2.4,2.08,2.08,0,0,0-.11.41,5.78,5.78,0,0,0,0,.72,9.09,9.09,0,0,1-1.06-.25,7.67,7.67,0,0,1-1.11-.4,3.89,3.89,0,0,1-.5-.25,3.58,3.58,0,0,1-.43-.29,2.31,2.31,0,0,1-.36-.33l-.15-.19-.06-.08-.06-.1a1,1,0,0,1-.05-.12h.05l.26.09a8.15,8.15,0,0,1,1,.41c-.07.09-.16.25.07.43A.81.81,0,0,0,15,11c.4.21.8.42,1.19.65l0,0a8.35,8.35,0,0,0-.87-.67c-.31-.21-.63-.43-1-.62s-.54-.3-.84-.44l.27,0a3.55,3.55,0,0,0,.64-.06,1.18,1.18,0,0,0,.6-.24,2.4,2.4,0,0,1,.38-.29,2.31,2.31,0,0,1,.45-.21,1.28,1.28,0,0,1,.73-.08.34.34,0,0,0,.14,0l.13.1a1.29,1.29,0,0,1,.13.17.79.79,0,0,1,.11.36A1.57,1.57,0,0,1,16.87,10.5ZM15,7.33h0a2.27,2.27,0,0,1-.49-.39.32.32,0,0,1-.09-.19s0-.08,0-.13v0h0l0-.05a.74.74,0,0,1,.58-.21,3.9,3.9,0,0,1,.82.07,7.31,7.31,0,0,1,1.6.52l.07,0a1.25,1.25,0,0,0-.14.56,1.36,1.36,0,0,1-.22.74,1.92,1.92,0,0,1-.26.32l-.15.15,0,0a1.26,1.26,0,0,0-.43,0,2.37,2.37,0,0,0-.49.09,1,1,0,0,0,.09-.18L16,8.46V8.3a1,1,0,0,0-.38-.57A5.69,5.69,0,0,0,15,7.33ZM4.55,2.59c.69.25,1.48.51,2.34.79S8.7,4,9.75,4.21c.27.06.53.13.81.18l.43.07.48,0c.59,0,1.19,0,1.78-.09a9.13,9.13,0,0,1,1.73,0,1.48,1.48,0,0,1,.68.24c.17.13.39.33.62.48a20.89,20.89,0,0,0,2,1.17.87.87,0,0,0-.24.1,1.27,1.27,0,0,0-.35.34l-.06.08h0A9.27,9.27,0,0,0,16,6.19a4.46,4.46,0,0,0-.92-.11,1.23,1.23,0,0,0-.9.3l-.06.08,0,0s0,0,0,0h0v0a.46.46,0,0,0,0,.36.56.56,0,0,0,.09.17,2.3,2.3,0,0,0,.57.47c.4.26.77.51.82.78v.1l0,.1a1.15,1.15,0,0,1-.1.23l-.06.08,0,0a2.78,2.78,0,0,0-.47-.39,3.1,3.1,0,0,0-.62-.25c-.39-.13-.75-.25-1.08-.39a4.65,4.65,0,0,1-1.45-.88,2,2,0,0,1-.5-.78l-.05-.31h0v.32a1.72,1.72,0,0,0,.42.85,4.11,4.11,0,0,0,1.45,1c.32.15.69.3,1.08.44a3.29,3.29,0,0,1,.52.21,3.25,3.25,0,0,1,.4.36.65.65,0,0,0,.15.12l0,0a2.57,2.57,0,0,0-.38.33,1.64,1.64,0,0,1-.94.28,5.3,5.3,0,0,1-.57,0L13,9.69l-.2,0-.11,0h-.15a.76.76,0,0,0-.2.06.55.55,0,0,0-.14.12.4.4,0,0,0,0,.2.66.66,0,0,0,.1.27l.06.11.09.11.17.21a4,4,0,0,0,.43.38c.16.12.34.21.51.32s.37.18.57.26a9.21,9.21,0,0,0,2.54.56h0c.07,0,.11-.05.1-.09a2.83,2.83,0,0,1,0-.82,1.06,1.06,0,0,1,.09-.39,1.49,1.49,0,0,1,.22-.38,2.12,2.12,0,0,0,.4-.81.92.92,0,0,0-.05-.46l-.12-.21L17.17,9l.43-.22a5.73,5.73,0,0,0,.59-.35,6.41,6.41,0,0,0,1-.77,4.71,4.71,0,0,0,.85.1,2.77,2.77,0,0,0,.49,0,.9.9,0,0,0,.25-.06l.11-.06,0,0,0,0a.06.06,0,0,0,0-.1l0,0a13.51,13.51,0,0,1-1.51-.79,32.71,32.71,0,0,1-2.81-1.71c-.22-.16-.36-.3-.6-.49a2.1,2.1,0,0,0-.93-.35A9.24,9.24,0,0,0,13.2,4c-.61,0-1.17.08-1.73.09a8.55,8.55,0,0,1-1.54-.26c-1-.24-2-.51-2.85-.77-1.75-.51-3.19-1-4.21-1.28l-1.59-.5,0,0,1.53.59C3.26,2.13,3.86,2.34,4.55,2.59Z"/><path class="cls-4" d="M1.27,4.67a39.12,39.12,0,0,0,9.81,1.62Z"/><path class="cls-4" d="M12.16,9.41l.27-.1.29-.09h-.09a1.74,1.74,0,0,0-.23,0c-.1,0-.22,0-.34,0a1,1,0,0,0-.34.15.37.37,0,0,0-.18.27.22.22,0,0,0,0,.14.39.39,0,0,0,.06.11.6.6,0,0,0,.19.18.72.72,0,0,1-.05-.21.34.34,0,0,1,.16-.36.66.66,0,0,1,.25-.13"/><path class="cls-4" d="M11.32,9.06a.6.6,0,0,1,.24-.16,1.42,1.42,0,0,1,.29-.1l.24,0,.09,0-.09,0a1.72,1.72,0,0,0-.26,0,1.86,1.86,0,0,0-.38.06.84.84,0,0,0-.2.08A.64.64,0,0,0,11.1,9a.43.43,0,0,0-.13.3.55.55,0,0,0,0,.26.76.76,0,0,0,.14.22V9.51a.75.75,0,0,1,.16-.45"/><path class="cls-4" d="M17.56,12.16s0,.09-.07.12a.69.69,0,0,1-.22.16c-.17.09-.32.12-.31.13h.1a.78.78,0,0,0,.28,0,.58.58,0,0,0,.17-.06.48.48,0,0,0,.17-.1.55.55,0,0,0,.18-.31.8.8,0,0,0-.18-.57.88.88,0,0,0-.2-.22l.06.25a.93.93,0,0,1,.05.24.88.88,0,0,1,0,.28.53.53,0,0,1,0,.12"/><path class="cls-4" d="M18.58,12.28a.48.48,0,0,1-.09.11l-.1.09-.09.06-.08.06.11,0a1,1,0,0,0,.26-.11.57.57,0,0,0,.16-.11.35.35,0,0,0,.12-.15.48.48,0,0,0,0-.37,1.23,1.23,0,0,0-.53-.55,1.66,1.66,0,0,0-.35-.17l.24.23.21.24a1,1,0,0,1,.17.29.4.4,0,0,1,0,.15.59.59,0,0,1,0,.13.54.54,0,0,1-.07.13"/></svg>