<svg id="Capa_1" data-name="Capa 1" xmlns="http://www.w3.org/2000/svg" viewBox="0 0 31.08 22.92"><defs><style>.cls-1{fill:#b3d335;}.cls-2{fill:#fccdb5;}.cls-3{fill:#231f20;}.cls-4{fill:#6d6f71;}</style></defs><title>7-1mes</title><path class="cls-1" d="M8.65,14.28a10.17,10.17,0,0,0-2.7,1,1.82,1.82,0,0,0-.83,2,39.77,39.77,0,0,0,2.31,4.35l.21.36,7.36,0,6.94-1s.65.67.79.67L25,21.7h5.21V15.37L27,13.3s-16.19-.65-18.34,1"/><path class="cls-2" d="M14.84,21.93s-5.47-.73-6.51-2.78.15-2.6.83-2.92.45-.35.45-.35-1.73-3-.75-3.94a6.66,6.66,0,0,1,4.79-1.56s-2-1.48-2-2.78a4,4,0,0,1,1.08-2.79c.19,0,10.27-.9,10.73-.89s0,2.08,1.66,4.61-1.26,3.1-1.26,3.1l-1.34-.14s3.26,1.21,4.19,1.44a5.63,5.63,0,0,1,2.2,1,9.39,9.39,0,0,1-2,1.06c-1,.52-3.94,1.64-4.19.38a2.15,2.15,0,0,0-2-1.82,7.1,7.1,0,0,0-1.16.5,4.49,4.49,0,0,1-1.52.28s-.4.06-.46.34l-.12.57-1.12.63.22.25a31.15,31.15,0,0,0,3.41,0,4.8,4.8,0,0,1,2.33.13c.26.14,2.55,2.12,3.24,2.6s1,1.24,0,1.64-2.94.56-3.41.12l-.47-.44.49,1a47.15,47.15,0,0,1-7.32.81"/><path class="cls-3" d="M13.86,9.12l.21-.06L14.3,9c.17,0,.37-.09.59-.12s.45,0,.67,0h.59l.59,0,0-.05-.57-.14a7.22,7.22,0,0,0-1.32-.17,3.4,3.4,0,0,0-.78,0,1.14,1.14,0,0,0-.59.3.39.39,0,0,0-.14.35.28.28,0,0,0,0,.13h.07a1.19,1.19,0,0,1,.39-.24"/><path class="cls-3" d="M14.3,9.36s.58.29.54.57a.75.75,0,0,1-.27.45s1.47,0,1.93-1l-1.1.51a2.8,2.8,0,0,0-1.1-.51"/><path class="cls-3" d="M11.61,13.13a3,3,0,0,1,1.71-.38l-.56-.21.56-.12s-1.44-.4-1.71.71"/><path class="cls-3" d="M14.72,13.36s.2-.22.08-.29-.4.29-.4.29c-.06.23.32,0,.32,0"/><path class="cls-3" d="M15.23,13s-.24.11,0,.26.3-.14,0-.26"/><path class="cls-3" d="M15.56,14c.53-.1.56-.65.34-.37a7.73,7.73,0,0,1-2.25.53A3.66,3.66,0,0,0,15.56,14"/><path class="cls-3" d="M15.68,14.28s-1,.31-.56.44,1.21-.28.56-.44"/><path class="cls-3" d="M12.24,11.79c.86-.25.93,0,.93,0,.21-.17-.25-.52-1.15-.11a2.74,2.74,0,0,0-1.27,1.38,3.28,3.28,0,0,1,1.49-1.27"/><path class="cls-3" d="M10.59,15.12a.5.5,0,0,0-.12-.08l.12.08"/><path class="cls-3" d="M29.65,21.2a2.58,2.58,0,0,0-.82-1,3.32,3.32,0,0,0-.69-.39,3.53,3.53,0,0,0-.71-.21,2.67,2.67,0,0,0-.76,0,6.2,6.2,0,0,1,.61.25c.17.08.35.18.54.29s.38.24.55.37a2.78,2.78,0,0,1,.27.21c.07.07.18.13.25.2l.43.38c.14.12.24.22.32.28l.14.11a.72.72,0,0,0,0-.14,1.41,1.41,0,0,0-.11-.36"/><path class="cls-3" d="M28.63,15.3h0a4.23,4.23,0,0,0-.57.27,4.51,4.51,0,0,0-.54.35c-.18.12-.33.26-.49.39a5,5,0,0,0-.76.88,3.77,3.77,0,0,0-.45.82,2.89,2.89,0,0,0-.2.68c-.24-.22-.52-.41-.75-.61a9.28,9.28,0,0,1-1.33-1.41,2.08,2.08,0,0,0-1-.65,4.22,4.22,0,0,0-1.32-.19,8.91,8.91,0,0,0-1.28.07l-.6.07c-.18,0-.4,0-.61,0-.72,0-1.44,0-2.15.09a1.11,1.11,0,0,0,.27-.12,2.16,2.16,0,0,0,.74-.56,2.29,2.29,0,0,0,.24-.33A2.67,2.67,0,0,0,18,14.7a1.65,1.65,0,0,0,0-.32,1.65,1.65,0,0,0,.66.06c.13,0,.23,0,.37-.06l.31-.1a5.14,5.14,0,0,0,1.39-.78,3.29,3.29,0,0,1,.46.14,1.74,1.74,0,0,1,.92.73,2.05,2.05,0,0,1,.22.66,1.34,1.34,0,0,0,.5.82,1.18,1.18,0,0,0,.69.16,3.5,3.5,0,0,0,.66-.1c.42-.1.83-.21,1.25-.33.83-.22,1.61-.49,2.36-.75l.68-.28a1.19,1.19,0,0,0,.27.33,2.44,2.44,0,0,0,.32.26l-.42.16M26,19.59h0a.55.55,0,0,1-.25.72,2.76,2.76,0,0,1-1.06.35,6,6,0,0,1-.61.07,3,3,0,0,1-.6,0,2.29,2.29,0,0,1-1.07-.23.75.75,0,0,1-.26-.32c-.06-.13-.12-.27-.17-.4-.11-.28-.21-.55-.29-.83l-.08-.25-.33.15a5.27,5.27,0,0,1-.92.33,2.29,2.29,0,0,1-.91.1.53.53,0,0,1-.17,0l-.25-.1L18.52,19c-.35-.11-.69-.21-1.05-.3l-.12,0-.12,0L16.07,19l-.28.07.08.2.31.72.06.15.2,0,.13,0,.13,0a.43.43,0,0,1,.18.08s0,0,0,.05a3.1,3.1,0,0,1-1.09-.4.39.39,0,0,1-.16-.18c0-.07-.06-.18-.1-.28s-.16-.38-.22-.56a.83.83,0,0,1,0-.51.27.27,0,0,1,.19-.15l.38-.13,1.54-.52,0,0L15.78,18l-.41.11a.66.66,0,0,0-.39.26.88.88,0,0,0-.05.65c0,.2.1.4.15.59s.05.17.09.29a.49.49,0,0,0,.15.23L15.24,20a1.48,1.48,0,0,1-.35-.62,7,7,0,0,1-.2-.82c0-.14,0-.29-.07-.42l0-.2v0a1.54,1.54,0,0,1,.42-.16l.46-.12,1-.23a7,7,0,0,0-1.1,0c-.16,0-.34,0-.53,0a2.18,2.18,0,0,0-.64.17.64.64,0,0,0-.17.16l-.05.12v0a.88.88,0,0,0,0,.23,3.47,3.47,0,0,0,.06.45,3.3,3.3,0,0,0,.29.87l0,.05-.34-.15a.46.46,0,0,1-.12-.18,3.58,3.58,0,0,1-.17-1.14v-.39l.29-.11.38-.11c.53-.14,1.09-.25,1.64-.37l1.66-.34H16.05l-1,0h0c-.71.1-1.41.21-2.12.29a7.27,7.27,0,0,1-1,0,1.93,1.93,0,0,1-.45-.07h0l.1,0,.23-.06.5-.13a9.51,9.51,0,0,0,1-.28,2,2,0,0,0,.28-.11l.12-.06s0,0,.07,0a1.75,1.75,0,0,1,.41-.1c.22,0,.45.05.68.06h.8l.24,0a4.63,4.63,0,0,0,.56-.11h0l2.34.08a6.05,6.05,0,0,0,.63,0l.65,0c.41,0,.81-.05,1.2,0a4.08,4.08,0,0,1,1.1.18,1.74,1.74,0,0,1,.77.51,7.3,7.3,0,0,0,1.5,1.42c.3.21.62.39.88.6A1.8,1.8,0,0,1,26,19.59Zm.5.29h0a1.52,1.52,0,0,1,.18.46.83.83,0,0,1-.07.49.8.8,0,0,1-.44.38,3.08,3.08,0,0,1-.77.2,6.11,6.11,0,0,1-.87.08,8.17,8.17,0,0,1-.86,0,5.76,5.76,0,0,1-.77-.1,1.32,1.32,0,0,1-.28-.09l-.11-.07-.1-.09a1.83,1.83,0,0,1-.33-.49l.11.07a2.83,2.83,0,0,0,1.28.23,4.37,4.37,0,0,0,.64-.05,4.52,4.52,0,0,0,.63-.08,3,3,0,0,0,1.15-.4.7.7,0,0,0,.34-.85s0-.07,0-.11A4.19,4.19,0,0,1,26.5,19.88Zm-7.56.05h0c-.21.13-.45.3-.75.46s-.56.29-.88.44l.08-.1a.6.6,0,0,0,.16-.33.45.45,0,0,0-.18-.38,1.5,1.5,0,0,0-.4-.2l-.2-.05h0l-.16-.4.76-.22q.45.11.9.24l.49.15.24.09.3.07Zm-4.35-2Zm0,0Zm-1.25-.57h0a.41.41,0,0,0-.14.1.22.22,0,0,0-.07.09l0,.06v0c0,.06,0,.12,0,.17a3,3,0,0,0,0,.31,3.86,3.86,0,0,0,.09.49A6.23,6.23,0,0,0,12.4,18a6.78,6.78,0,0,0-1.08-.58.47.47,0,0,0-.15-.06h0a2.57,2.57,0,0,0,.61,0,9.26,9.26,0,0,0,1.09-.14c.52-.1,1-.17,1.56-.22l-.24,0-.43.11A1.85,1.85,0,0,0,13.34,17.36Zm2.46,4h0a6,6,0,0,1-.76.12,5.59,5.59,0,0,1-.8,0,16.13,16.13,0,0,1-1.78-.24,15.13,15.13,0,0,1-1.76-.45A5.84,5.84,0,0,1,9.18,20a3.25,3.25,0,0,1-1-1,2,2,0,0,1-.27-1.1,1.41,1.41,0,0,1,.4-.9,1.93,1.93,0,0,1,.2-.17,2,2,0,0,1,.21-.12,2.05,2.05,0,0,1,.5-.14,4.1,4.1,0,0,1,.49,0,2.4,2.4,0,0,0,.48.12,3,3,0,0,0,.46,0h.2l.17,0,0,0-.06,0,.06,0-.71-.24h1.26l-.24-.09a1.35,1.35,0,0,0,.24-.08.74.74,0,0,0,.21-.17.35.35,0,0,0,.08-.1c.47.07.94.15,1.4.24h0l-.09,0-.21.06c-.31.09-.65.16-1,.24l-.51.13a1.29,1.29,0,0,0-.26.08l-.14.05a.58.58,0,0,0-.19.1l-.05.06a.21.21,0,0,0-.05.11.22.22,0,0,0,.08.21l.1.07-.22-.07a3,3,0,0,0,.32.39,6.14,6.14,0,0,0,.9.71,6.88,6.88,0,0,0,1.08.59l.26.1a2,2,0,0,0,.17.36.77.77,0,0,0,.38.3l.41.11.29.07,0,.07a1.06,1.06,0,0,0,.38.31,2.28,2.28,0,0,0,.4.17l.33.09.22,0,.25.1a5.7,5.7,0,0,0,.86.23l.18,0-.09.05A8.45,8.45,0,0,1,15.8,21.34ZM10.92,11h0l1-.23a5.79,5.79,0,0,1,.75-.12l.51,0L13,10.59h.34a3.49,3.49,0,0,1,.41,0s0,.07,0,.1a3.86,3.86,0,0,1,0,1,4.07,4.07,0,0,0,0,.52v.06l0,.11a.43.43,0,0,0,.14.2.87.87,0,0,0,.57.19,2.31,2.31,0,0,0,.85-.15l.17-.07,0,0a.58.58,0,0,0,.19.1l.18.06H16l.09,0,.17,0h.18a2.42,2.42,0,0,0,.39,0,1.83,1.83,0,0,0-.21.26.57.57,0,0,0-.12.27.25.25,0,0,0,.15.24h0l0,0h0l0,0,.12,0a1.92,1.92,0,0,0,.41,0h.07a1.67,1.67,0,0,0,.08.3,1,1,0,0,0,.35.38,2.36,2.36,0,0,1-.67.89,3.3,3.3,0,0,1-.3.22,2.89,2.89,0,0,1-.35.19c-.12.05-.24.11-.37.15l-.39.1-.24,0h-.1l-.12,0-.48,0-1,0a6,6,0,0,1-1.91-.28l-.08,0-.1.08a.81.81,0,0,1-.14.12.46.46,0,0,1-.14.07l-.16,0-.17,0a2.84,2.84,0,0,1-.72-.32c-.11-.08-.23-.15-.33-.23l-.16-.12a.77.77,0,0,1-.13-.12A.35.35,0,0,1,9.67,15s0,0,0-.07a.92.92,0,0,1,.33-.1,1.32,1.32,0,0,1,.43.19,2,2,0,0,1-.39-.68l.54.65a6.83,6.83,0,0,0-.39-.89,1.24,1.24,0,0,0-1-.58h.7l-1.15-.7H9.86l-.52-.19.84-.1-1-.32,1.33-.2-.91-.34.67-.1-.74-.1,1.25-.08-.58-.26Zm6,2.28ZM13,9.52h0a2.51,2.51,0,0,1-.32-.41c-.1-.16-.18-.3-.26-.45a4.52,4.52,0,0,1-.18-.47,2.79,2.79,0,0,1,.06-1.69,2.88,2.88,0,0,0,1.4.87c1.6.5,1.65,1,4.06.61s3.13.51,3.36,1a3.19,3.19,0,0,1,.26,1,3.28,3.28,0,0,0-.47-1.81,2,2,0,0,1,.71,1.11s0-.24-.06-.59l.37.35a3.42,3.42,0,0,0-.77-1.61,1.86,1.86,0,0,1-.31-.36,2.16,2.16,0,0,1,.22-.68.69.69,0,0,1,.59-.39,1.38,1.38,0,0,1,.74.35,2.76,2.76,0,0,1,.51.58,2.17,2.17,0,0,1,.3.66,1.91,1.91,0,0,1,.06.33v.17c0,.06,0,.11,0,.17a2.44,2.44,0,0,1-.17.67.57.57,0,0,1-.17.24c-.06,0-.06,0-.11,0l-.13,0h-.11c-.14,0-.23.11-.2.2a2.89,2.89,0,0,1,.07.44,3.44,3.44,0,0,1,0,.46c0,.15,0,.3,0,.46a1.63,1.63,0,0,1-.08.44A4.49,4.49,0,0,1,21.2,12.9a6.19,6.19,0,0,1-.89.69,5.24,5.24,0,0,1-.51.3,4.41,4.41,0,0,1-.56.23l-.32.07a2.91,2.91,0,0,1-.31,0,1.1,1.1,0,0,1-.53-.09.4.4,0,0,1-.16-.12v0h0a.8.8,0,0,1-.12-.58.17.17,0,0,0,0-.07.27.27,0,0,0-.29-.09h0l-.24,0a.68.68,0,0,1-.21,0l.07-.11a4.49,4.49,0,0,1,.7-.67.16.16,0,0,0,0-.21.36.36,0,0,0-.39-.09h0a3.37,3.37,0,0,1-.48.12,2,2,0,0,1-.49,0h-.11l-.11,0H16.1l-.08,0,0,0v0L15.62,12a4.12,4.12,0,0,1-.58.23,1.73,1.73,0,0,1-.54.1c-.07,0-.07,0-.07,0v-.11c0-.12,0-.31,0-.47a4.46,4.46,0,0,0,0-1c0-.09,0-.16-.06-.27a.56.56,0,0,0-.26-.33,2.72,2.72,0,0,0-.41-.15,1,1,0,0,1-.26-.09A1.27,1.27,0,0,1,13,9.52Zm-.79-3.1h0v0Zm14.64,7.17h0a1.39,1.39,0,0,0,1.2.59l-.6.26-1.09.44c-.38.15-.74.33-1.11.49a6.55,6.55,0,0,1-1.15.41,2.47,2.47,0,0,1-.6.08.61.61,0,0,1-.43-.17,1.15,1.15,0,0,1-.21-.71,1.64,1.64,0,0,0-.28-.76,1.88,1.88,0,0,0-.63-.53,2.33,2.33,0,0,0-.68-.22,3.26,3.26,0,0,0-.47,0l.55-.45a9.5,9.5,0,0,0,.76-.8c.1-.12.2-.25.29-.38a4.18,4.18,0,0,0,2.42,1.43A19.09,19.09,0,0,0,26.86,13.59Zm3.53,1.29h-.07L30.2,13.3s-.17-.55-.95-.38h0c0-.06,0-.12,0-.19a1.38,1.38,0,0,0-1.06-1.33c-.37-1.19-1.23-2.51-1.39-3.17a10.14,10.14,0,0,0-4.38-5.35,9.56,9.56,0,0,0-6.79-.63c-1.88.5-3.1,2.3-4.21,3s-1.7,1.79-.61,2.64A2.1,2.1,0,0,0,12,8.6l0,.14a3.12,3.12,0,0,0,.23.49,2.67,2.67,0,0,0,.32.48,1.94,1.94,0,0,0,.52.44l.19.09-.75.08a7.21,7.21,0,0,0-.77.06l-.39.08-.25,0h.08l-.47.11a5.11,5.11,0,0,0-1.05.45,3.33,3.33,0,0,0-1.32,1.56,3.76,3.76,0,0,0-.26.91,4.11,4.11,0,0,0,0,.86l-.15,0a5.68,5.68,0,0,0-1.35.51c-.25.13-.52.28-.78.45A2.42,2.42,0,0,0,5,16a2.13,2.13,0,0,0-.12,1.76,9.12,9.12,0,0,0,1.64,3A12.18,12.18,0,0,0,7.64,22l-.21-.36c-.14-.23-.33-.57-.55-1s-.48-.86-.72-1.36a9,9,0,0,1-.63-1.58,2.09,2.09,0,0,1,0-1.54c.07-.18.37-.39.59-.56s.46-.35.68-.49A5.6,5.6,0,0,1,8,14.5l.1,0a2.22,2.22,0,0,0,.22.8,2.33,2.33,0,0,0,.51.7,2.42,2.42,0,0,0,.36.27,2.33,2.33,0,0,0-.67.13,3.4,3.4,0,0,0-.34.16,2,2,0,0,0-.26.2,1.48,1.48,0,0,0-.52,1.11A2,2,0,0,0,7.88,19a6.5,6.5,0,0,0,1.16,1,9.26,9.26,0,0,0,1.49.87,9.38,9.38,0,0,0,1.76.61,13.66,13.66,0,0,0,1.86.32,5.14,5.14,0,0,0,1,0,4.85,4.85,0,0,0,.89-.16,5.93,5.93,0,0,0,1.43-.54,7.11,7.11,0,0,0,1.68-1.17l.33-.34a1.93,1.93,0,0,0,.54,0,3.29,3.29,0,0,0,.58-.13,4.82,4.82,0,0,0,.7-.26c.09.19.17.39.28.59s.14.27.23.41a.74.74,0,0,0,.09.12h0a1.45,1.45,0,0,0,.21.81.94.94,0,0,0,.09.12l.13.12a1.5,1.5,0,0,0,.41.18,4.61,4.61,0,0,0,.87.19,7.17,7.17,0,0,0,2,0,3.53,3.53,0,0,0,1-.28,1.26,1.26,0,0,0,.4-.26,1.2,1.2,0,0,0,.23-.34,1.15,1.15,0,0,0-.32-1.19,2.74,2.74,0,0,0-.4-.37,3.73,3.73,0,0,0-.36-.24l0,0a2.3,2.3,0,0,0-.33-.38h0l.47-.64c.18-.22.37-.47.61-.74s.25-.26.37-.39a5,5,0,0,1,.4-.4c.15-.12.28-.26.44-.37s.3-.25.46-.34.31-.22.47-.3.29-.17.43-.23a2.49,2.49,0,0,0,1.06.38l-.07-.8Z"/><path class="cls-3" d="M2.51,5.82h0A2.92,2.92,0,0,1,2,5.57a1.51,1.51,0,0,1-.33-.34.82.82,0,0,1-.08-.8,1.78,1.78,0,0,1,.66-.68,4.14,4.14,0,0,1,1-.43A7.66,7.66,0,0,1,4.5,3.11,12.09,12.09,0,0,1,5.71,3c.39,0,.85,0,1.23,0a3.81,3.81,0,0,1,.59.05,3.7,3.7,0,0,1,.58.1,2.78,2.78,0,0,1,1,.35.8.8,0,0,1,.42.6,1.28,1.28,0,0,1-.26.73,3.44,3.44,0,0,1-.65.68l-.2.18.25.09.14.08L8.91,6c.08.09.17.17.24.26a3.19,3.19,0,0,1,.38.6c.1.2.17.42.25.63s.09.34.13.51A6,6,0,0,0,9,6.93a4.62,4.62,0,0,0-.67-.56,2.37,2.37,0,0,0-.45-.23A1.77,1.77,0,0,0,7.3,6H7.22A11.37,11.37,0,0,1,6,6.18c-.4,0-.8,0-1.21,0a7.85,7.85,0,0,1-1.19-.1,5.57,5.57,0,0,1-1.12-.29m3.6.74a9.83,9.83,0,0,0,1.21-.19,1.12,1.12,0,0,1,.35.06,3.26,3.26,0,0,1,.38.18,5.25,5.25,0,0,1,.69.47A12.75,12.75,0,0,1,10,8.18l.06.06V8.17a4,4,0,0,0-.15-1.36,2.81,2.81,0,0,0-.31-.66,1.78,1.78,0,0,0-.24-.32l-.17-.15h0a4.58,4.58,0,0,0,.64-.6,1.52,1.52,0,0,0,.37-.93,1.15,1.15,0,0,0-.6-.93,3.39,3.39,0,0,0-1.25-.44,5.13,5.13,0,0,0-.65-.1c-.22,0-.44,0-.67,0-.45,0-.84,0-1.29,0s-.86.07-1.28.15a7.14,7.14,0,0,0-1.23.31,4.77,4.77,0,0,0-1.06.53,2,2,0,0,0-.67.76,1,1,0,0,0,.08.9,1.49,1.49,0,0,0,.33.39A2.51,2.51,0,0,0,2.33,6a5.48,5.48,0,0,0,1.18.41,6.8,6.8,0,0,0,1.29.18A9.59,9.59,0,0,0,6.11,6.56Z"/><path class="cls-3" d="M22.55,8.24h0s.07,0,0,0M22,8.33l.25-.06.16,0a.12.12,0,0,0,.06.1l.09.06a.52.52,0,0,0,.36,0c.1-.06.09-.1.1-.12v0h0v0h0V8a1.87,1.87,0,0,0,0-.25,1.32,1.32,0,0,0-.23-.48,1.22,1.22,0,0,0-.23-.22.55.55,0,0,0-.4-.1V7c.09,0,.1.1.13.16l0,.21,0,.44a.09.09,0,0,0,0,.05.75.75,0,0,0-.18.08A1,1,0,0,1,22,7.7a1.32,1.32,0,0,1-.06-.48A2,2,0,0,0,21.85,7a.9.9,0,0,1-.05-.16s0,0,0-.08a.79.79,0,0,1,.31-.07l0,0a.75.75,0,0,0-.39-.11.51.51,0,0,0-.27.06.37.37,0,0,0-.18.17.45.45,0,0,0,0,.32.48.48,0,0,0,.11.24c.11.16.28.29.37.44a1.48,1.48,0,0,1,.2.47Z"/><path class="cls-3" d="M23,8.18h0"/><path class="cls-4" d="M4.67,4.93c0-.13,0-.31,0-.46h0c0,.15-.1.32-.14.43l-.17.51H4.05l-.17-.5a3.35,3.35,0,0,1-.13-.44h0c0,.15,0,.33,0,.47l0,.49H3.33L3.48,4h.43l.16.52c.06.18.11.33.15.49h0a4,4,0,0,1,.13-.49L4.52,4h.42l.13,1.42H4.71Z"/><rect class="cls-4" x="5.34" y="4.01" width="0.4" height="1.42"/><path class="cls-4" d="M6.38,4.72h0c0,.32.09.49.25.49s.24-.21.24-.5-.06-.47-.24-.47-.25.18-.25.48m.91,0c0,.53-.28.75-.67.75S6,5.11,6,4.72A.66.66,0,0,1,6.65,4,.62.62,0,0,1,7.29,4.7Z"/></svg>