<svg id="Capa_1" data-name="Capa 1" xmlns="http://www.w3.org/2000/svg" viewBox="0 0 29.64 19.32"><defs><style>.cls-1{fill:#f5a4c7;}.cls-2{fill:#fbc8b4;}.cls-3{fill:#fccdb5;}.cls-4{fill:#231f20;}</style></defs><title>8-1mes</title><path class="cls-1" d="M14.94,14a1.4,1.4,0,0,0,.55,1.45,8.1,8.1,0,0,0,4,.26c.88-.23,1.94-.44,2-.79s-.42-.35-.59-.69a14.66,14.66,0,0,1-.28-2.52,6.36,6.36,0,0,0-1.05-2,3.89,3.89,0,0,0-2.8-.13c-.81.38-1.8,4.45-1.8,4.45"/><path class="cls-2" d="M19.47,10.23s.61,0,.37-.27a4.42,4.42,0,0,0-.69-.55,3,3,0,0,1,1.26-1.77c1.12-.81,1.25-1.31,1.25-1.31a4.78,4.78,0,0,1-.91-.74,1.44,1.44,0,0,1-.46-.87c0-.21.29-.2.29-.2s-.15-.25,0-.39a.34.34,0,0,0,.13-.34s.18-.24.31-.25.6,0,.68.06a3.82,3.82,0,0,1,.25.47s0,.18.19.11.5-.12.56,0a4.84,4.84,0,0,0,.87.74,3.47,3.47,0,0,1,1,.59c.21.26.52.38.44.56s-1.14.75-1.19,1-.21,1.06-.24,1.27a1.58,1.58,0,0,1-.68.73l-.25.1s.66.47.74.84-.19.21.2.39.82.36.83.38a7.16,7.16,0,0,0,1.28,1.18,2.23,2.23,0,0,0,1.15-.26c.35-.2.82-.88,1.07-.93a.44.44,0,0,1,.5.26c.12.18.11.24,0,.29s-.13.1-.13.1a.25.25,0,0,1,.22.23c0,.22-.07.32-.07.4a.47.47,0,0,0,.08.39c.13.23.29.24.08.43a16.92,16.92,0,0,1-1.52.91,1.61,1.61,0,0,1-1.08.56,2.45,2.45,0,0,1-1.79-.42,2.15,2.15,0,0,0-1-.58c-.15,0-.19,0-.19,0a22.54,22.54,0,0,1-2.54,1.34c-.67.22-2.08-.5-2.08-1.47a5.08,5.08,0,0,1,1.09-2.94"/><path class="cls-3" d="M15.84,14.37a1.36,1.36,0,0,1-.9.4,5.91,5.91,0,0,0-1.51-.17,2.32,2.32,0,0,0-.93.32s0,1.09-1.68,1.08-1.91-.88-2-.92a2,2,0,0,1-.29-.28,3.78,3.78,0,0,0-.4-.43,3.15,3.15,0,0,0-.53.08l-1,.09S4,15,3.21,12.66s-.34-4.12.08-4.53,2.29-1.05,3.28-.44S8,8.5,8.5,8.47a3.13,3.13,0,0,1,2,.61,2.79,2.79,0,0,1,.7,1.26A6.49,6.49,0,0,1,11,11.42s1.35-.73,1.62-.9a9.94,9.94,0,0,1,1-.42.54.54,0,0,1,.14-.81,1.93,1.93,0,0,1,1.26-.66A2.25,2.25,0,0,1,16.48,9c.53.36.34.49.34.49s.5.14.61.32a8.31,8.31,0,0,1-.57,3.37,7.55,7.55,0,0,1-1,1.24"/><path class="cls-4" d="M9.06,9.86a.75.75,0,0,0-.14-.41.46.46,0,0,0-.7.16.55.55,0,0,1,.84.25"/><path class="cls-4" d="M8.62,10.06c0,.22,0,.24-.16.25s-.16,0-.16,0,.13.17.26.12.42-.29.19-.45c0,0-.15-.11-.13.11"/><path class="cls-4" d="M6,9.43c-.16-.2-.51-.15-.68.25s.16,1.18.16,1.18a2.77,2.77,0,0,1,0-1.22A.4.4,0,0,1,6,9.43"/><path class="cls-4" d="M6.57,13.19h0c.13,0,.08,0,0,0"/><path class="cls-4" d="M27.28,13.43h0a.24.24,0,0,0-.11.06,3.7,3.7,0,0,1-.29.24,2.39,2.39,0,0,1-.34.21,2.18,2.18,0,0,1-.78.26h-.2l-.22,0A1,1,0,0,1,25,14.1c-.21-.11-.41-.32-.68-.49a3.13,3.13,0,0,0-.45-.22l-.46-.15a4.81,4.81,0,0,1-.86-.31,1.38,1.38,0,0,1-.33-.23,1,1,0,0,1-.22-.28.9.9,0,0,1-.09-.33,1.88,1.88,0,0,1,0-.34h-.05a1.34,1.34,0,0,0,0,.35.86.86,0,0,0,0,.35,1,1,0,0,0,.2.34,1.23,1.23,0,0,0,.35.28,3.61,3.61,0,0,0,.56.27l-1.84,1,0,0a.2.2,0,0,0-.13,0h0a1.73,1.73,0,0,1-.93.28,1.15,1.15,0,0,1-.46-.1,1.2,1.2,0,0,1-.33-.25,2.43,2.43,0,0,1-.24-.32,4,4,0,0,1-.17-.36,2,2,0,0,1-.1-.35,2.25,2.25,0,0,1-.06-.36A3,3,0,0,1,19,11.41a2.84,2.84,0,0,1,.45-.64.69.69,0,0,1,.15-.14l.14-.11a.29.29,0,0,1,.11,0s0,0-.09-.05l.47-.14c.22,0,.44,0,.67-.06s.48,0,.71,0,.48,0,.71,0a5.06,5.06,0,0,1,.68.1,1.67,1.67,0,0,1,.32.08,1,1,0,0,1,.31.1,3,3,0,0,1,.54.27c.14.12.28.23.42.37a9.27,9.27,0,0,0,.92.8.76.76,0,0,0,.88.08l.3-.11.18-.06.18-.09a3.92,3.92,0,0,0,.79-.87.46.46,0,0,1,.2-.13.38.38,0,0,1,.22.11.91.91,0,0,1,.2.19c0,.07,0,.14,0,.14h0l-.25.1h-.05a1.79,1.79,0,0,0-.52.24.05.05,0,0,0,0,.08.1.1,0,0,0,.12,0l.44-.2h0a.21.21,0,0,1,.18,0,.2.2,0,0,1,.06.14s0,.05,0,.09,0,0,0,.08a.12.12,0,0,1-.07.07h-.05a3.91,3.91,0,0,0-.48,0h0a.16.16,0,0,0-.15.06c0,.05,0,.11.07.14l.31.07h.17l.18,0,0,0,0,0a.3.3,0,0,1-.12,0H28.1l-.19,0h0c-.12,0-.23,0-.25.11s.05.16.17.17h0a3.23,3.23,0,0,1,.47.12l.16.08h0s0,0,0,0h0l-.05,0-.18,0a4.65,4.65,0,0,0-.59.14h0a.18.18,0,0,0-.15.14c0,.09.09.17.23.18h.12l-.07,0a4.17,4.17,0,0,1-.44.19m-8-4.08h0a1.42,1.42,0,0,1,.28-.7,1.67,1.67,0,0,1,.33-.38,1.56,1.56,0,0,1,.2-.16l.24-.17a7.88,7.88,0,0,0,1.57-1.53c.05-.06,0-.14-.06-.19h0A4.25,4.25,0,0,1,21,5.67a1.43,1.43,0,0,1-.29-.32l0,0a.22.22,0,0,0,.14,0,.09.09,0,0,0,0-.15h0l-.24-.23-.06,0,0,0a.21.21,0,0,1-.06-.15.11.11,0,0,1,0-.08l.33.2h0a.13.13,0,0,0,.12,0,.06.06,0,0,0,0-.09.81.81,0,0,1-.31-.33.2.2,0,0,1,0-.17.27.27,0,0,1,.1-.08l.15.18a2.57,2.57,0,0,0,.33.33h0a.13.13,0,0,0,.12,0s.06-.06,0-.09l0,0a2,2,0,0,1-.28-.3.76.76,0,0,1-.17-.35.12.12,0,0,1,0-.12l.06,0,.13,0c.17,0,.35,0,.41,0a.32.32,0,0,1,.13.27c0,.06,0,.06,0,.13a.31.31,0,0,0,.15.15.82.82,0,0,0,.45,0c.2,0,.38,0,.37,0a2.09,2.09,0,0,1,.25.29,2,2,0,0,0,.81.68,2.09,2.09,0,0,0,.3.11l.16,0,.12,0a1,1,0,0,1,.33.18.39.39,0,0,1,.06.56,1.31,1.31,0,0,1-.3.26,3.29,3.29,0,0,1-.42.2h0l-.05,0a1,1,0,0,0-.18.17.8.8,0,0,0-.13.19.65.65,0,0,0-.07.41,1.22,1.22,0,0,1,0,.32,1.15,1.15,0,0,1,0,.32,1.07,1.07,0,0,1-.29.58,1.34,1.34,0,0,1-.29.23,1.46,1.46,0,0,1-.38.17h0a.09.09,0,0,0-.06,0c0,.05,0,.11.06.13a.44.44,0,0,1,.17.08l.15.1a1.33,1.33,0,0,1,.26.27,1.7,1.7,0,0,1,.22.45l-.26-.05a4.78,4.78,0,0,0-.76-.08,9.9,9.9,0,0,0-2,.16l-.16-.22a2.33,2.33,0,0,0-.28-.26,1.63,1.63,0,0,0-.35-.23ZM8,14.78H8l.17,0v0l-.35,0H7.75l.43-.19.08.07a1,1,0,0,0,.3.12.8.8,0,0,0,0,.11Zm-.24-.63h0l.05-.05,0,0,.06.14s0,0,0,.05l-.26,0Zm.33.35h0l-.7-.07L8,14.29a.21.21,0,0,0,0,.06Zm7.06-4.35ZM10.34,13h0v0s0,0,0,0Zm0,0h0Zm18.55-.44a.33.33,0,0,0-.12-.16l-.15-.08h0l.1-.08a.44.44,0,0,0,0-.09.17.17,0,0,0,0-.1.33.33,0,0,0-.13-.13l-.09,0a.37.37,0,0,0,.06-.1.6.6,0,0,0,0-.12s0-.07,0-.11a.34.34,0,0,0-.15-.22s0,0-.06,0l.07,0h0a.17.17,0,0,0,.16-.14.28.28,0,0,0-.06-.15,1.08,1.08,0,0,0-.21-.22.53.53,0,0,0-.37-.15.57.57,0,0,0-.34.17c-.16.15-.27.29-.4.43a1.89,1.89,0,0,1-.44.35l-.12.06-.15,0-.36.1c-.11,0-.21.07-.21,0a.56.56,0,0,1-.18-.1c-.29-.23-.57-.52-.86-.78a4.24,4.24,0,0,0-.49-.41,3.41,3.41,0,0,0-.64-.3,2.47,2.47,0,0,0-.36-.11h0a1.46,1.46,0,0,0-.15-.53,1.31,1.31,0,0,0-.23-.31,1.07,1.07,0,0,0-.16-.14l0,0,.26-.1a1.59,1.59,0,0,0,.39-.27,1.26,1.26,0,0,0,.41-.68A1.51,1.51,0,0,0,24,7.75a1.35,1.35,0,0,0,0-.35.48.48,0,0,1,.07-.26A.47.47,0,0,1,24.14,7l.1-.09a3.12,3.12,0,0,0,.49-.23,1.5,1.5,0,0,0,.43-.36.74.74,0,0,0,.14-.49A.72.72,0,0,0,25,5.39a1.39,1.39,0,0,0-.58-.3L24.18,5,24,5a1.78,1.78,0,0,1-.67-.54A1.83,1.83,0,0,0,22.93,4,.69.69,0,0,0,22.48,4a1.86,1.86,0,0,0-.3,0h-.12s0,0,0,0S22,4,22,4a.57.57,0,0,0-.32-.45,1.06,1.06,0,0,0-.71,0l-.14,0a.4.4,0,0,0-.17.09.24.24,0,0,0-.07.26.93.93,0,0,0,.05.1.55.55,0,0,0-.19.14.28.28,0,0,0,0,.25h-.07a.31.31,0,0,0-.2.22.39.39,0,0,0,.06.24l0,0a.57.57,0,0,0,0,.25.27.27,0,0,0,0,.13.36.36,0,0,0,0,.11,1.27,1.27,0,0,0,.32.41,2.46,2.46,0,0,0,.44.34l.33.19a9.71,9.71,0,0,1-1.33,1.4,2.53,2.53,0,0,0-.73.81,1.54,1.54,0,0,0-.16.72l-.09,0a2,2,0,0,0-.23-.06l-.24,0a1.85,1.85,0,0,0-.47,0,3.25,3.25,0,0,0-.45.07c-.14,0-.27.08-.4.12l0,0,.42,0a2.81,2.81,0,0,1,.41,0,1.58,1.58,0,0,1,.38,0l.18.05a.49.49,0,0,1,.17.06,1.35,1.35,0,0,1,.29.16,2.4,2.4,0,0,1,.23.21l.13.15-.22.08a1.78,1.78,0,0,0-.27.17,1.51,1.51,0,0,0-.2.17,2.66,2.66,0,0,0-.57.76,2.81,2.81,0,0,0-.3,1.65,2.73,2.73,0,0,0,.1.41,1.65,1.65,0,0,0,.18.41,2.78,2.78,0,0,0,.26.37,1.93,1.93,0,0,0,.35.35,1.85,1.85,0,0,0,.5.28,1.58,1.58,0,0,0,.65.09,2.13,2.13,0,0,0,1-.34,1.06,1.06,0,0,1,.28.2.2.2,0,0,1,0,.28,1,1,0,0,1-.36.21,2.77,2.77,0,0,1-.46.14c-.17,0-.31.08-.5.1l-.52.08a4.46,4.46,0,0,1-.51.07l-.51.07a7.17,7.17,0,0,1-2,0,3.4,3.4,0,0,1-.9-.3,1.06,1.06,0,0,1-.37-.22.28.28,0,0,1-.09-.19,1.12,1.12,0,0,0,.31,0,2.06,2.06,0,0,0,.83-.45,4.64,4.64,0,0,0,1-1.29,5.9,5.9,0,0,0,.29-.71,3.75,3.75,0,0,0,.15-.71,5.32,5.32,0,0,0,0-1.25,1.16,1.16,0,0,0-.41-.85,1,1,0,0,0-.32-.13l-.12,0a1,1,0,0,1,.36.2,1,1,0,0,1,.2.81,11.39,11.39,0,0,1-.19,1.21,5.93,5.93,0,0,1-.18.66,4.43,4.43,0,0,1-.3.67,4.73,4.73,0,0,1-.86,1.22,1.82,1.82,0,0,1-.59.4s0,0-.11,0h-.08l-.11,0-.45,0a7.78,7.78,0,0,0-1.28.1l-.24,0a1.52,1.52,0,0,0,.15-.57h-.05l-.18.17a4.5,4.5,0,0,0-.4.47l-.24.31c-.07.12-.13.24-.21.37a.89.89,0,0,1-.32.35,1.1,1.1,0,0,1-.55.14,3.53,3.53,0,0,1-1.11-.21,4.68,4.68,0,0,1-.45-.19l-.36-.2a5.16,5.16,0,0,1-.51-.38c-.08-.08-.12-.14-.14-.16h.07a.74.74,0,0,1-.51-.46l0-.14,0-.15a.87.87,0,0,1,0-.28.62.62,0,0,1,.07-.19.74.74,0,0,0,0,.14,1.22,1.22,0,0,0,.07.17A.51.51,0,0,0,8.4,14a.46.46,0,0,0,.26.16l.3.08L8.87,14a2.08,2.08,0,0,1-.18-.68.36.36,0,0,1,0-.15.19.19,0,0,1,0-.08.15.15,0,0,1,0-.06.09.09,0,0,1,.09,0,.58.58,0,0,0-.05.11.69.69,0,0,0,0,.57.84.84,0,0,0,.18.22,2.09,2.09,0,0,1,0-.25,1.87,1.87,0,0,1,.1-.48.67.67,0,0,1,.06-.12l.06-.1a.31.31,0,0,1,.11-.09.36.36,0,0,0,0,.09.92.92,0,0,0,.05.58,1.36,1.36,0,0,0,.15.25l0-.07s0-.11,0-.19a3.55,3.55,0,0,1,.09-.52.49.49,0,0,1,.11-.23s0,0,.06,0H10l.12,0a.72.72,0,0,0-.22.19.77.77,0,0,0-.11.25.6.6,0,0,0,.06.35l.09.13H10l.06-.12c.05-.07.1-.17.18-.27l.13-.15.06,0,0,.13a.77.77,0,0,1,0,.26,1.34,1.34,0,0,1-.07.27.38.38,0,0,0,0,.15.61.61,0,0,0,0,.13,1.22,1.22,0,0,0,.12.19,1.37,1.37,0,0,0,.27.27.81.81,0,0,0,.15.09h0a.49.49,0,0,0,0-.14,1.34,1.34,0,0,0-.08-.32l0-.08,0,0a2.15,2.15,0,0,1,.6-.07.81.81,0,0,1,.31.06.57.57,0,0,1,.22.12,1.45,1.45,0,0,1,.17.18.69.69,0,0,0-.1-.21.51.51,0,0,0-.2-.18,1.12,1.12,0,0,0-.35-.15,3.15,3.15,0,0,0-.91,0h0a.27.27,0,0,1,0-.23.64.64,0,0,1,.12-.25.46.46,0,0,0,.11-.3V13l0,0h0a.1.1,0,0,0,0-.05.31.31,0,0,0-.11-.08.51.51,0,0,0-.27,0l-.15,0a.44.44,0,0,0-.12-.11.5.5,0,0,0-.51,0l-.07.06H9.44a.65.65,0,0,0-.4.14.6.6,0,0,0-.11.12l0,0a.28.28,0,0,0-.18,0,.52.52,0,0,0-.11.07l-.07.09a.8.8,0,0,0-.07.2h0a.3.3,0,0,0-.1-.09.46.46,0,0,0-.15,0l-.15,0a.48.48,0,0,0-.13.09.6.6,0,0,0-.13.32l-.09-.06a.55.55,0,0,0-.19,0l0,0a.55.55,0,0,1,0,.12.14.14,0,0,1-.07.18h0l-.05,0-.08,0L7.07,14l-.31.06-.35.05H6.2A1.56,1.56,0,0,1,5.76,14s0,0-.06,0v0l0-.06v0a.49.49,0,0,1,0-.1c0-.06.07-.16.13-.22l.1-.1,0,0H5.72l.07-.06a3,3,0,0,1,.78-.14,7.77,7.77,0,0,1-1.06-.07L6.57,13a6.3,6.3,0,0,1-.71,0c-.48,0-1.21-.9-1.21-.9l.89.56s-.26-.39-.57-.8S3.7,11.4,3.7,11.4a5.45,5.45,0,0,0,.65-.22c-.06,0-.69-.09-.69-.09l.46-.28-.7,0,1.26-.68-1.28.07,1.05-.44-.77,0,1.11-.51H3.64a11.47,11.47,0,0,0,1.82-.69l-1.74.11A6,6,0,0,0,5.48,7.8l-1,.1.59-.34A6,6,0,0,0,4,7.81a4.55,4.55,0,0,1,.86-.27,2.94,2.94,0,0,1,1.56.12,4.11,4.11,0,0,1,.42.21.45.45,0,0,0-.27.53c.05.61,1,1,1,1s-.86-.47-.77-1.13c0-.2.09-.29.16-.33A.41.41,0,0,1,7.05,8a5.57,5.57,0,0,0,.62.4,1.94,1.94,0,0,0,.86.16,2.34,2.34,0,0,1,.77,0A3,3,0,0,1,9.9,9a2.65,2.65,0,0,1,.5.4,2.28,2.28,0,0,1,.46,1,1.36,1.36,0,0,1,0,.53,1,1,0,0,1-.21.48l-.58.6.84-.41a14,14,0,0,0,1.52-.88,7,7,0,0,1,1-.52h.07a.32.32,0,0,0,.17,0l.18-.1,0,0,.13,0,0,0h0l0,0,.07-.08v0a.82.82,0,0,0,0,.26.29.29,0,0,0,.11.16.33.33,0,0,0,.22,0,.4.4,0,0,0,.13-.06.57.57,0,0,0,.14-.11.35.35,0,0,0,0-.08l0,.07a.48.48,0,0,0,.16.16.38.38,0,0,0,.38,0,.2.2,0,0,0,.07-.06.28.28,0,0,0,.07-.09.36.36,0,0,0,0-.09.39.39,0,0,0,.15.12.4.4,0,0,0,.17,0l.08,0,0,0h0a.3.3,0,0,0,.11-.14.51.51,0,0,0,0-.2l0,.05a.45.45,0,0,0,.1.09.27.27,0,0,0,.19.05.22.22,0,0,0,.13-.09.36.36,0,0,0,.07-.1.39.39,0,0,0,0-.23.57.57,0,0,0-.25-.41.51.51,0,0,1,.21.41.33.33,0,0,1-.07.21.61.61,0,0,1-.07.1.24.24,0,0,1-.09.06.14.14,0,0,1-.1,0,.34.34,0,0,1-.08-.09,1.32,1.32,0,0,1-.12-.2l-.06-.16a1.48,1.48,0,0,0-.1-.27h0a.09.09,0,0,0-.1,0s-.07,0-.06.06h0a1.31,1.31,0,0,1,.12.51.59.59,0,0,1,0,.23.32.32,0,0,1-.08.09l0,0s0,0,0,0h0s0,0,0,0L15.74,10l-.07-.11-.1-.25,0-.06a2.69,2.69,0,0,0-.14-.46A.14.14,0,0,0,15.26,9c-.07,0-.12.06-.11.11s.07.23.11.34,0,.14,0,.22a.75.75,0,0,1,0,.26.21.21,0,0,1,0,.12s0,0,0,0l-.06,0s-.05,0-.07-.08A1,1,0,0,1,15,9.8a2.68,2.68,0,0,1-.11-.55h0v0a.14.14,0,0,0-.16-.08c-.09,0-.15,0-.14.11s0,.17,0,.25a.81.81,0,0,1,0,.22.79.79,0,0,1-.06.22l-.06.09s0,0-.06.06v0a.72.72,0,0,1,0-.22,3.84,3.84,0,0,1,0-.48s0-.08-.1-.1a.16.16,0,0,0-.17.07,1.29,1.29,0,0,1-.3.48l-.11.1-.11.07a.06.06,0,0,1,0-.06.92.92,0,0,1,.21-.5c.13-.15.32-.29.48-.44l.11-.13.12-.07a1.29,1.29,0,0,1,.35-.1,3.49,3.49,0,0,1,.79,0,1.65,1.65,0,0,1,.71.22,2.57,2.57,0,0,1,.56.4,3.22,3.22,0,0,0-.52-.43,1.72,1.72,0,0,0-.74-.26,3.84,3.84,0,0,0-.83,0,1.89,1.89,0,0,0-.41.1.42.42,0,0,0-.18.11l-.11.11c-.16.15-.36.28-.51.44a1.14,1.14,0,0,0-.28.56.39.39,0,0,0,0,.18h0l-.26.09a5.33,5.33,0,0,0-.84.37c-.33.19-.67.36-1,.53a1.73,1.73,0,0,0,0-.75,2.17,2.17,0,0,0-.52-1.15,2.49,2.49,0,0,0-.62-.44,3.66,3.66,0,0,0-.74-.35,3.43,3.43,0,0,0-.9,0,1.63,1.63,0,0,1-.74-.09,4.31,4.31,0,0,1-.61-.37,4.46,4.46,0,0,0-.69-.35A3.27,3.27,0,0,0,4.8,7.41a5.92,5.92,0,0,0-1.54.5A5.11,5.11,0,0,0,2,8.73,3.53,3.53,0,0,0,1.2,9.79,2.61,2.61,0,0,0,1,11a2.83,2.83,0,0,0,.38,1.17,3.7,3.7,0,0,0,.37.54c.14.18.31.34.46.51s.34.3.53.45.41.3.64.42a6.07,6.07,0,0,0,1.47.62,7.08,7.08,0,0,0,2.71.17c.52,0,.9,0,1,0s0,.06,0,.1a1.35,1.35,0,0,0,.35.52,1.46,1.46,0,0,0,.39.3,2.12,2.12,0,0,0,.55.23,3.46,3.46,0,0,0,.67.12,2.43,2.43,0,0,0,.71-.05,2.11,2.11,0,0,0,.61-.25l.45-.33a2.37,2.37,0,0,0,.37-.32,2,2,0,0,0,.23-.34L13,14.7h.26a11.55,11.55,0,0,1,1.24,0,2.2,2.2,0,0,1,.37.07l.08,0h0a.37.37,0,0,0,0,.29,1.19,1.19,0,0,0,.34.33,3.15,3.15,0,0,0,1,.45,6.16,6.16,0,0,0,1.14.18c.19,0,.38,0,.57,0l.57,0a7.75,7.75,0,0,0,1.09-.18l.52-.14a5.08,5.08,0,0,0,.51-.17,2.68,2.68,0,0,0,.49-.21,1.22,1.22,0,0,0,.39-.32.35.35,0,0,0-.05-.44,1.39,1.39,0,0,0-.37-.24,3.47,3.47,0,0,0,1.87-1l.25.1a3.07,3.07,0,0,1,.42.17,2,2,0,0,1,.36.19c.23.14.36.34.68.53a1.62,1.62,0,0,0,.55.18l.27,0h.31a2.83,2.83,0,0,0,1-.31,3.18,3.18,0,0,0,.41-.25l.31-.25.21-.08.26-.12a2.06,2.06,0,0,0,.46-.31l.09-.08a.41.41,0,0,0,.11-.16v0s0,0,0,0h0l0,0,0,0,.06-.06A.23.23,0,0,0,28.91,12.6Z"/><path class="cls-4" d="M9.5,10.75c.34.05.43-.46.43-.46s-.4-.11-.33-.37c-.33.23-.45.78-.1.83"/><path class="cls-4" d="M10.09,10.86c.15,0,.23,0,.11-.34,0,0-.26.31-.11.34"/><path class="cls-4" d="M8.13,8.67l-.36,0V8.58s-.46,0-.35.34.21.14.21.14a.59.59,0,0,1,.5-.39"/><path class="cls-4" d="M6.72,10.16c.24-.05.12-.24-.09-.16s-.58.31-.52.7c0,0,.21-.16.26,0a.24.24,0,0,0,.18.17s-.08-.65.17-.71"/><path class="cls-4" d="M7.52,11a3.18,3.18,0,0,0-.14-.37,2.79,2.79,0,0,0-.2-.31,1.27,1.27,0,0,0-.28-.27,3.07,3.07,0,0,1,.17.3,3.34,3.34,0,0,1,.25.68,2.53,2.53,0,0,1,.07.36c0,.13,0,.24,0,.34a.24.24,0,0,0,.07.13.16.16,0,0,0,.17,0,.51.51,0,0,0,.1-.07.37.37,0,0,1-.11.05s-.08,0-.09,0a.23.23,0,0,1,0-.12,3.08,3.08,0,0,0,0-.33A2.6,2.6,0,0,0,7.52,11"/><path class="cls-4" d="M10.38,9.67a.19.19,0,0,1-.12,0,.29.29,0,0,0,.14,0,.1.1,0,0,0,.08-.11.19.19,0,0,0-.07-.15,1.14,1.14,0,0,0-.49-.17,5.16,5.16,0,0,0-.58-.06,10.75,10.75,0,0,1-1.08,0A1.57,1.57,0,0,1,7.82,9a.28.28,0,0,0,.09.07,1.29,1.29,0,0,0,.32.13,2.37,2.37,0,0,0,.51.08l.58,0,.57,0a1.33,1.33,0,0,1,.43.11c.08,0,.12.16.06.18"/></svg>