<svg id="Capa_1" data-name="Capa 1" xmlns="http://www.w3.org/2000/svg" viewBox="0 0 23.35 18.72"><defs><style>.cls-1{fill:#b3d335;}.cls-2{fill:#f5a4c7;}.cls-3{fill:#fbc9b5;}.cls-4{fill:#231f20;}</style></defs><title>9-1mes</title><path class="cls-1" d="M6.84,12.28S8.31,10.37,9.45,10a8.13,8.13,0,0,1,2.38-.28l6.1-1.33,2.76,1s1.42.71,1.3,1.65a10.17,10.17,0,0,1-1,4.73,9.3,9.3,0,0,1-1.6,2.27L14.91,18Z"/><path class="cls-2" d="M10.26,17.83s2.65-.74,2.75-1.21a4.87,4.87,0,0,1,.47-1.11,1.58,1.58,0,0,1,.94.27,3.43,3.43,0,0,1,.68,1.27l-.51.9s-4.32.1-4.33-.12"/><path class="cls-3" d="M8.12,7.63a4.43,4.43,0,0,1-1-1.28A2.18,2.18,0,0,1,7,5.4c0-.09-.47-1.22.1-1.36a16.56,16.56,0,0,1,3,.17c.23,0,5.28.37,5.51.76a5.56,5.56,0,0,1,.79,1.49A14.29,14.29,0,0,0,18,8.71a7.17,7.17,0,0,1-1.12,1.57A6,6,0,0,1,13,11.61c-2.08-.1-.27-1.06-.34-1.22a2.89,2.89,0,0,0-.58-.51,9.55,9.55,0,0,1-1.69-.47A4.89,4.89,0,0,1,8.76,8Z"/><path class="cls-3" d="M10.42,17.67a.78.78,0,0,1-.48-.12c-.22-.15-1.28-.67-1.28-.67a5.29,5.29,0,0,1-1.62.4l-1.1-.4a10.56,10.56,0,0,1-2-.57C3.35,16,3,15.74,3,15.13a4.91,4.91,0,0,0-.75-2c-.28-.47-.48-.72-.26-.72a4.86,4.86,0,0,1,.73.06s.36.5.56.15A1.77,1.77,0,0,1,4,11.89L6,11.13A2.5,2.5,0,0,1,6.88,11a1.56,1.56,0,0,1,1.2.88c.31.67.72.57.94.75s.57.24.5.54a2.65,2.65,0,0,1-.37.74s-.05.2,1,.19a1.89,1.89,0,0,0,1.68-.91c0-.15-.22-.37-.21-.53a.58.58,0,0,1,.33-.44c.22-.11.32-.5.51-.51s.43.21.46.26.29.12.31.31.29-.17.3.16-.1.36-.1.36.43-.32.45-.14-.35.51-.35.51l-.15.26a5.51,5.51,0,0,1-.41.45,5.81,5.81,0,0,0-.61,1,7,7,0,0,1,.94.48c.12.13.06.45.06.47s-.28,1.59-2.95,1.86"/><path class="cls-3" d="M14,15.58s1,1.14.84,1.71c0,0,.74-.9.67-1.21s-1.51-.5-1.51-.5"/><path class="cls-3" d="M11.79,18A3.59,3.59,0,0,1,13,17.36a3.49,3.49,0,0,1,1.87.19l-.32.4Z"/><path class="cls-4" d="M5.89,13.27c.15-.3.77-.47.77-.47-.86-.12-.77.47-.77.47"/><path class="cls-4" d="M8.22,13.57a4.93,4.93,0,0,1-.92.26c-.32,0,.79.34.92-.26"/><path class="cls-4" d="M8.62,7.36l.57.48a.65.65,0,0,0,.57-.61,1.6,1.6,0,0,1-1.14.13"/><path class="cls-4" d="M11.33,7s1.34,0,1.34-.77A3.83,3.83,0,0,1,11,6.57s.36.2.33.42"/><path class="cls-4" d="M10.78,8.2c0-.4,0-1.25-1.25-1.59s-1.63-.06-1.47.62a.66.66,0,0,1,.71-.46c.6,0,1.63.31,1.76.77s-.55,1.36,1,1c0,0-.74,0-.71-.35"/><path class="cls-4" d="M12.92,8.48a8,8,0,0,1-1.09.44c1,.5,1.09-.44,1.09-.44"/><path class="cls-4" d="M13.45,9.07a5.91,5.91,0,0,0-1.07.2,1.44,1.44,0,0,0,1.07-.2"/><path class="cls-4" d="M15.26,6.7h0l0,0s-.06,0,0,0m.11,0h0v0S15.39,6.73,15.37,6.72Zm-.48-.42c.08.07.1.1.07.14a.87.87,0,0,0-.09.17.31.31,0,0,0,0,.25A.34.34,0,0,0,15,7a.47.47,0,0,0,.33,0c.23,0,.28-.16.3-.23a.27.27,0,0,0-.09-.28.44.44,0,0,0-.1-.08h-.05a.24.24,0,0,0,0,.09l-.05.07h0a.43.43,0,0,0-.08-.21c-.05-.09-.19-.14-.22-.17a.12.12,0,0,1,0-.15.6.6,0,0,0,.08-.16.57.57,0,0,0,0-.13c0-.08,0-.14,0-.19a.14.14,0,0,1,0-.07v0a.35.35,0,0,0-.19,0,.49.49,0,0,0-.23.24.32.32,0,0,0,0,.17.47.47,0,0,0,.1.18Z"/><path class="cls-4" d="M10.78,15.67h0m11.08-3.52h0c0,.23,0,.46-.05.69a7.44,7.44,0,0,1-.29,1.37c-.08.22-.15.45-.24.67a6.42,6.42,0,0,1-.3.66,11.72,11.72,0,0,1-.72,1.29c-.14.21-.27.42-.43.62a5,5,0,0,1-.42.5c-1.5-.05-3-.09-4.51-.1h-.18a1.18,1.18,0,0,0,.11-.18c.1-.15.23-.37.39-.63l1.1-1.89c.4-.69.81-1.38,1.17-1.87a5.45,5.45,0,0,1,.45-.6l.2-.22a3.2,3.2,0,0,0-.28.18,5.71,5.71,0,0,0-.63.53l-.35.38A4.84,4.84,0,0,1,17,13c0-.21.08-.44.1-.61s0-.31,0-.31a1.3,1.3,0,0,0-.3.24,1.64,1.64,0,0,0-.2.29,1.33,1.33,0,0,0-.13.35,1.14,1.14,0,0,0,0,.37.73.73,0,0,0,.13.31,1,1,0,0,0,.13.15A11,11,0,0,0,15.84,15a9.15,9.15,0,0,0-.45.88.89.89,0,0,0-.19-.2,1.27,1.27,0,0,0-.44-.2,2.34,2.34,0,0,0-.93-.06l-.19,0a.61.61,0,0,0-.14-.14l-.13-.1-.28-.19a.68.68,0,0,0-.17-.09l-.18-.08-.36-.11c-.25-.06-.5-.1-.75-.14a6.36,6.36,0,0,0-.75-.08,13.89,13.89,0,0,1,1.38.4,2.22,2.22,0,0,1,.31.13l.14.07.11.08.23.19.11.1s0,.05.06.06a1,1,0,0,1,0,.35,1.69,1.69,0,0,1-.15.37,1.52,1.52,0,0,1-.26.32,2.08,2.08,0,0,1-.38.25c-.14.07-.32.14-.49.21l-.52.2-.53.18a4.77,4.77,0,0,1-.47.13l-.83-.37-.7-.29.36-.2a5.4,5.4,0,0,0,.68-.46l.47-.13a2.83,2.83,0,0,0,.52-.21l.12-.08a.4.4,0,0,0,.1-.15.24.24,0,0,0,0-.09.28.28,0,0,0-.1-.09h0a.23.23,0,0,0,.09-.08.1.1,0,0,0,0-.13L11,15.26l0,0-.12-.06h0l0,0s.09,0,.1-.12,0,0,0-.06l0,0a.1.1,0,0,0,0-.09s0,0,0,0l0,0h0l0,0h0l-.05,0-.08,0h-.06l-.1,0a2.65,2.65,0,0,0-.38-.05H9.82a2.17,2.17,0,0,0-.41,0l-.14,0-.07.05-.14.08a2.2,2.2,0,0,0-.28.18,1.64,1.64,0,0,0-.21.25l0,.07,0,0v0l-.05,0c-.15.08-.37.16-.57.26a1.68,1.68,0,0,0-.54.35.87.87,0,0,0-.17.22.78.78,0,0,0-.09.24h0a1.11,1.11,0,0,1,.36-.39A2.7,2.7,0,0,1,8,15.8c.2-.08.41-.13.65-.23l.09-.05a.34.34,0,0,0,.09-.08l.06-.07,0,0a.69.69,0,0,1,.17-.17A1.54,1.54,0,0,1,9.34,15c.07,0,.22-.13.22-.11a1.14,1.14,0,0,1,.28,0H10c-.05,0-.1,0-.1.09a.15.15,0,0,0,.16.12h.63l-.17.06-.09,0a1.3,1.3,0,0,0-.33.07s-.05,0,0,.06a.08.08,0,0,0,.09,0h0l.42-.07h0a.48.48,0,0,1,.18,0l.08,0,0,0,0,0a0,0,0,0,1,0,0l0,0-.17.05a2.65,2.65,0,0,0-.5,0h0c-.06,0-.1.05-.09.09s.07.08.14.07h0a1.62,1.62,0,0,1,.49,0h0s0,0,0,0l-.08.05a5.08,5.08,0,0,1-1,.25l-.09,0h0a7.64,7.64,0,0,1-1.47.79c-.14,0-.27.1-.41.13s-.27.06-.41.09a2.54,2.54,0,0,1-.39,0,.65.65,0,0,1-.16,0l-.08,0L6.58,17l-.1,0-.05,0v0l-.15-.1a.92.92,0,0,1-.2-.25A.35.35,0,0,1,6,16.38a.42.42,0,0,1,0-.15c0-.1,0-.2,0-.31a3,3,0,0,1,.57-1.19l.16,0a5.07,5.07,0,0,0,.73,0,2.89,2.89,0,0,0,1-.15,1.71,1.71,0,0,0,.86-.56,2.89,2.89,0,0,0,.73.18,2.8,2.8,0,0,0,.87,0,1,1,0,0,0,.44-.2.53.53,0,0,0,.06-.1l0-.07a.65.65,0,0,1,0-.13,1.2,1.2,0,0,1,.49-.42.07.07,0,0,0,0-.08l0,0a1,1,0,0,1-.09-.42l0-.07.06,0,.25-.11h0l0,0-.09.08-.11.07,0,0a.09.09,0,0,0,0,.13.19.19,0,0,0,.23.07,2.23,2.23,0,0,1,.45-.08c.16,0,.31,0,.35.11h0a.16.16,0,0,0-.1-.19.74.74,0,0,0-.28-.08.86.86,0,0,0,.18-.2s0-.05,0-.1l0,0,.07-.09a.83.83,0,0,1,.15-.11l.11-.06,0,.09a1.67,1.67,0,0,1-.21.33h0a.09.09,0,0,0,0,.14.19.19,0,0,0,.21,0h0a1.78,1.78,0,0,0,.21-.27l0,0v0a1.22,1.22,0,0,1-.18.59,0,0,0,0,0,0,0,.11.11,0,0,0,.08,0,1.71,1.71,0,0,1,.21-.26.61.61,0,0,1,.14-.1h0v0a.14.14,0,0,1,0,.11.31.31,0,0,1-.09.11,1.15,1.15,0,0,1-.28.19.08.08,0,0,0-.05.09v0s0,0,0,.06a.19.19,0,0,1,0,.08.39.39,0,0,1-.1.16l-.07.08L13,13.7a1.09,1.09,0,0,0-.19.18c-.22.27-.23.55-.4.81h0a1.83,1.83,0,0,0,.33-.36,2.42,2.42,0,0,1,.27-.36l.18-.15.11-.08.1-.09a.62.62,0,0,0,.14-.23.51.51,0,0,0,0-.13s0-.05,0-.07a1.1,1.1,0,0,0,.22-.21.37.37,0,0,0,.09-.16.27.27,0,0,0,0-.18.16.16,0,0,0-.12-.1.24.24,0,0,0-.17,0l-.07.06a1,1,0,0,0,.07-.25v-.08a.14.14,0,0,0,0-.06.16.16,0,0,0-.1-.06.43.43,0,0,0,0-.12l0-.09,0,0a.19.19,0,0,0-.07-.06.38.38,0,0,0-.31,0h0a.76.76,0,0,0,0-.11s0,0,0-.05h0c.34,0,.66-.08,1-.12s.68-.09,1-.15l.51-.13c.16,0,.31-.12.46-.18a4.58,4.58,0,0,0,.79-.47,3.62,3.62,0,0,0,1-1c.09-.17.17-.33.23-.47a2.28,2.28,0,0,0,.11-.35l.07,0a1,1,0,0,0,.26.09h-.29v0a7.2,7.2,0,0,1,1.9.37,3.27,3.27,0,0,1,1.38.89l.1.13.1.16a1.15,1.15,0,0,1,.12.32l0,.15,0,.17c0,.11,0,.22,0,.33S21.87,11.92,21.86,12.15Zm-9.29,5.7h-.66l.33-.1.49-.14.27-.07.28-.05.28-.05.27,0a2,2,0,0,1,.25,0h.24l.21,0,.16,0,.08,0,0,.11c0,.09,0,.16-.05.2C14,17.85,13.28,17.84,12.57,17.85ZM6.11,13.7Zm-.49,2.19h0a1,1,0,0,0,0,.36,1.1,1.1,0,0,0,0,.18.64.64,0,0,0,.06.18.88.88,0,0,0,.12.21c-.33-.09-.65-.18-.95-.28a6.28,6.28,0,0,1-1-.42,1.58,1.58,0,0,1-.38-.26.65.65,0,0,1-.17-.33,4.89,4.89,0,0,1-.11-.78,4.16,4.16,0,0,0-.12-.83A1.07,1.07,0,0,0,3,13.7l-.11-.19-.24-.37a3.13,3.13,0,0,1-.19-.36,0,0,0,0,1,0,0h0l.2.09a1.09,1.09,0,0,1,.27.24v0a.27.27,0,0,0,.19.1.28.28,0,0,0,.31-.13,1,1,0,0,1,.09-.22,1.37,1.37,0,0,1,.13-.2A1.44,1.44,0,0,1,4,12.3l.12-.06.15-.06.31-.12.31-.1.22-.05,0,0L5.05,12l-.44.29a4.71,4.71,0,0,0-.42.33,1.08,1.08,0,0,0-.31.4s0,.07.05.09a.15.15,0,0,0,.16,0,5.47,5.47,0,0,1,.56-.51l.18-.12.34-.19h0a.28.28,0,0,1,.2,0l0,0s0,0,0,0a.11.11,0,0,1,0,.08.53.53,0,0,1,0,.16.83.83,0,0,1-.09.16.32.32,0,0,0-.13.05,1.8,1.8,0,0,0-.35.29c-.2.2-.37.4-.54.6h0a.07.07,0,0,0,0,.11.18.18,0,0,0,.19,0L5,13.28l.13-.12L5.37,13s0,0,0,0a1.4,1.4,0,0,1-.13.63,1.82,1.82,0,0,1-.38.58h0a.12.12,0,0,0,0,.21.29.29,0,0,0,.31,0A6.23,6.23,0,0,1,6,13.79l.11,0s0,0,0,0a.62.62,0,0,1-.11.36,9,9,0,0,0-.5.8,1.65,1.65,0,0,1-.66.71l0,0a1.69,1.69,0,0,0,.49-.3A2.38,2.38,0,0,0,5.75,15c.1-.13.19-.26.29-.38l.31-.39a.75.75,0,0,0,.18-.48.24.24,0,0,0-.06-.15v0l0,0a.33.33,0,0,0-.19-.08.37.37,0,0,0-.16,0L6,13.5l-.17.07-.07,0A1.44,1.44,0,0,0,5.8,13a.4.4,0,0,0-.1-.24h0l0,0a.2.2,0,0,0-.11,0l0-.05A1.88,1.88,0,0,1,6,12.23a.81.81,0,0,1,.58-.12.78.78,0,0,0-.93.22.3.3,0,0,0,0-.1s0,0,0-.05l-.07,0H5.39l.05,0a.24.24,0,0,0,.09-.2h0L6,12l-.41-.59.69.49-.07-.35.4.24-.08-.55.27.29.06-.29.39.17a1.92,1.92,0,0,1,0-.24l.41.45,0-.15.06.09c-.24.12-.7.37-.66.68s.48.83.81.8,0,.33,0,.33.39-.25.3-.48-1,.07-.91-.5a.74.74,0,0,1,.56-.64v0a1.72,1.72,0,0,0,.27.46l0,0a.82.82,0,0,0-.33,0c-.49.06-.3.29-.3.29a1.76,1.76,0,0,1,.79-.15,2.32,2.32,0,0,0,.3.22,2.34,2.34,0,0,1,.42.28.32.32,0,0,1,.08.3,2,2,0,0,1-.33.72,1.36,1.36,0,0,1-.61.47,3.16,3.16,0,0,1-.79.2,5.83,5.83,0,0,1-.68,0H6.1v0l.38.06A2.8,2.8,0,0,0,5.62,15.89Zm-.48-4ZM8.23,11h0a8.21,8.21,0,0,1,1.22-.59l.72-.25.34-.1.31-.09.48-.13.09,0,.35.09.35.07h0a.81.81,0,0,1,.2.18.24.24,0,0,1,0,.28.53.53,0,0,1-.12.15l-.11.11-.11.13a.79.79,0,0,0-.13.31.43.43,0,0,0,.12.38,1,1,0,0,0,.48.21l-.13.06a.6.6,0,0,0-.19.16.8.8,0,0,0-.12.27l-.13,0a1.63,1.63,0,0,0-.34.19.6.6,0,0,0-.16.16.39.39,0,0,0,0,.18.79.79,0,0,0,.22.49,2.75,2.75,0,0,1-.32.44l-.13.11-.06.06,0,0a1,1,0,0,1-.28,0A5.7,5.7,0,0,1,10,14l-.72,0a1.57,1.57,0,0,0,.22-.37,1.25,1.25,0,0,0,.14-.45.62.62,0,0,0-.21-.53,2.19,2.19,0,0,0-.54-.32,1.79,1.79,0,0,1-.77-.66,2.47,2.47,0,0,0-.33-.41A5,5,0,0,1,8.23,11Zm3.9,1.19h0a.64.64,0,0,1,.16-.17.57.57,0,0,1,.18-.12l.22-.06h.05s0,0,0,0,0,.12,0,.13a1,1,0,0,1-.09.13l-.09.06h0a.76.76,0,0,0-.19,0ZM10.75,9.41h0a8.37,8.37,0,0,1-.89-.53,2.69,2.69,0,0,1-.68-.57A4,4,0,0,0,8.92,8a1.66,1.66,0,0,0-.38-.32c-.24-.16-.45-.32-.65-.48a3.29,3.29,0,0,1-.46-.43,1.13,1.13,0,0,1-.21-.38.6.6,0,0,1,0-.27h0a1.43,1.43,0,0,0,0-1.55,18.84,18.84,0,0,0,5.43,1,2.72,2.72,0,0,1,.35.18c-.65,0-1.91,0-2.46,0-.77,0-.48.68-.48.68a3,3,0,0,1,1.75-.59L13,5.67c.36.2.86.54.94.94L13.85,6l.45,1s.16-2.46.8-1.75S16,6.57,15.58,7s-.48.24-.48.24,0,.29.93.86c.8.47,1.11.93,1.79.82-.12.16-.28.37-.47.6s-.27.31-.43.47l-.25.24-.28.24a4.92,4.92,0,0,1-.67.46,7.23,7.23,0,0,1-.79.37l-.47.14-.49.1a3.88,3.88,0,0,1-1,0,1,1,0,0,1-.64-.21c-.09-.09,0-.26,0-.4l.06-.1a.76.76,0,0,0,.08-.11.55.55,0,0,0,.14-.26.41.41,0,0,0-.21-.41l-.1-.06A2.88,2.88,0,0,0,13,10l.28,0,.28-.11A3.63,3.63,0,0,0,14,9.61,3,3,0,0,0,14.55,9a3,3,0,0,0,.51-1,1.78,1.78,0,0,0,.06-.39h0S15,7.8,14.85,8a8.4,8.4,0,0,1-.67.86,4.59,4.59,0,0,1-.55.52l-.34.25-.18.11a1.21,1.21,0,0,1-.25.08,2.31,2.31,0,0,1-1.07,0A4.3,4.3,0,0,1,10.75,9.41ZM7,6.33H7v0a.8.8,0,0,0,.11.47,1.68,1.68,0,0,0,.29.4C7.1,6.9,6.9,6.57,7,6.33ZM22.26,11.1l0-.18-.06-.19a1.23,1.23,0,0,0-.15-.35l-.1-.16a.63.63,0,0,0-.14-.17,3.08,3.08,0,0,0-.71-.56,4.82,4.82,0,0,0-.87-.36,2.37,2.37,0,0,0-.4-.36,2,2,0,0,0-.51-.29,1.77,1.77,0,0,0,0-.2.56.56,0,0,0-.61-.45,8.11,8.11,0,0,0-1.76-3.65A7.54,7.54,0,0,0,11,1.46c-2.84,0-4.79,1.19-4.89,2.39,0,0-.82,0-.78,1.56s.12,2.78,3.28,2.95l.1.12a3.19,3.19,0,0,0,.85.63,6.55,6.55,0,0,0,1,.46l.63.2a2.65,2.65,0,0,0-.48,0,5.49,5.49,0,0,0-.74.09,6.21,6.21,0,0,0-.81.24,4.16,4.16,0,0,0-.7.35,2.35,2.35,0,0,0-.49.41,1.3,1.3,0,0,0-.25.39A1.39,1.39,0,0,0,7.27,11a3.73,3.73,0,0,0-1.33-.11l-.62.08a5.13,5.13,0,0,0-.59.12c-.19,0-.36.11-.53.17a3.77,3.77,0,0,0-.45.23,1.53,1.53,0,0,0-.6.54.76.76,0,0,0-.12.52.45.45,0,0,0,0,.11L3,12.57a1.55,1.55,0,0,0-.29-.14l-.16-.06H2.45l-.14,0H2.14a.34.34,0,0,0-.2.08.24.24,0,0,0-.11.21.66.66,0,0,0,.06.26c.07.14.14.27.22.4l.25.37.12.17a1.3,1.3,0,0,1,.08.17,4.78,4.78,0,0,1,.16.77,4.82,4.82,0,0,0,.18.82.86.86,0,0,0,.27.42,2.92,2.92,0,0,0,.48.29,6.63,6.63,0,0,0,1.09.36c.35.09.71.16,1.08.22l.07.08.17.15.07.05,0,0,.1,0,.09.05.15.05a1.14,1.14,0,0,0,.3.06,2.27,2.27,0,0,0,.58,0,4.52,4.52,0,0,0,.53-.11,3.24,3.24,0,0,0,.47-.16L8.81,17l.62.38c.27.17.55.33.83.49a.25.25,0,0,0,.13,0h0l.61-.13.57-.16.56-.19c.18-.07.36-.14.55-.23a2.11,2.11,0,0,0,.48-.32,2,2,0,0,0,.33-.41,1.29,1.29,0,0,0,.15-.82l.16,0,.36.08.38.1a2.89,2.89,0,0,1,.35.11s.1,0,.14.07l.13.07.09.07c-.13.3-.25.59-.33.84s-.12.37-.16.52c0,0,0,0,0,0a.83.83,0,0,0-.31-.19,1.31,1.31,0,0,0-.26-.09,1.53,1.53,0,0,0-.32-.05,2.37,2.37,0,0,0-.7,0,2.25,2.25,0,0,0-.62.19,1.79,1.79,0,0,0-.46.25,1.12,1.12,0,0,0-.29.26c-.52,0-1,0-1.54,0v0c.77.06,1.54.1,2.32.15l2.32.1c1.55.07,3.1.1,4.66.12h.14l.07-.08a6.73,6.73,0,0,0,.49-.63c.15-.22.26-.44.39-.66a14.26,14.26,0,0,0,.58-1.34l.24-.68c.09-.23.15-.46.22-.68.15-.46.29-.91.41-1.37a6.08,6.08,0,0,0,.21-1.4A2.19,2.19,0,0,0,22.26,11.1Z"/></svg>