<svg id="Capa_1" data-name="Capa 1" xmlns="http://www.w3.org/2000/svg" viewBox="0 0 18.36 21.24"><defs><style>.cls-1{fill:#f5a4c7;}.cls-2{fill:#fbcabb;}.cls-3{fill:#231f20;}</style></defs><title>1-12meses</title><path class="cls-1" d="M7.65,10.7s-1.29.5-1.41,1.39S7.33,14,7.33,14a3.37,3.37,0,0,0,2,.79,14.9,14.9,0,0,0,3.32-1.77s.29-.7.17-1a4.08,4.08,0,0,0-.72-.8Z"/><path class="cls-2" d="M6.85,9.81a5.35,5.35,0,0,1-1.55.45A12.74,12.74,0,0,1,2,9.1c-.27-.24-.46-.27-.39-.49a1.71,1.71,0,0,1,.25-.51,1.9,1.9,0,0,1,.43-.33,4.07,4.07,0,0,0,.45-.19l.41.47s.31-.11.44,0,0,.37,0,.37l0,.21a5.81,5.81,0,0,0,1.68.51.86.86,0,0,0,.57-.34,16.65,16.65,0,0,1,1.32-1,6.43,6.43,0,0,1,1-.35S7,6.8,6.48,6.47A1.84,1.84,0,0,1,6,4.9,13.62,13.62,0,0,1,9.75,3.28a9.48,9.48,0,0,1,2.06.17c.07,0,.29.4.29.4a2.27,2.27,0,0,0-.29,1.56c.21.74.32.89.12,1.25a2.55,2.55,0,0,1-.7.66,1.37,1.37,0,0,0,.43.39,9.22,9.22,0,0,1,.84.58s1.09-.76,1.09-.93-.13-.59.1-.75.45-.35.45-.35-.08-.33.12-.46a1.58,1.58,0,0,1,1,0c.21.08.41.12.47.27s.23.08.31.31a1.27,1.27,0,0,0,.16.35s.06.24,0,.27-.86.35-1,.45a1.6,1.6,0,0,0-.42.72,4,4,0,0,1-.88,1.41,9.47,9.47,0,0,1-1.6.26,4.1,4.1,0,0,1-.08,1.7c-.24.56-1,.94-2.78.92s-2.3-.47-2.55-.91a1.79,1.79,0,0,1-.26-.92,3.34,3.34,0,0,1,.24-.86"/><path class="cls-2" d="M6.5,12.82a.88.88,0,0,0-.4.65C6,14,6.1,16.76,6,17.18a2.94,2.94,0,0,0,.14,1.41c.13.3.12.85-.17,1s-.62.15-.62.37.07.28.18.28a11.81,11.81,0,0,0,1.25.25,3.94,3.94,0,0,0,1.15-.06,1.87,1.87,0,0,0,.3-1c0-.43.15-2.2.19-2.63s.6-1.68.63-2S8.61,13,6.5,12.82"/><path class="cls-2" d="M10,14.63a2.2,2.2,0,0,0,.57.66c.36.25.67.44.67.44s-.57.41-.46.65a3.18,3.18,0,0,1,.32,1.06c0,.27-.81.79-.68.94s1.26.49,1.47.71.43.71.92.63.56-.32.85-.38.71-.5.23-.74a2.24,2.24,0,0,1-1-1.21c0-.24,1-1.44,1-2.1a6.37,6.37,0,0,0-.72-2.11,2,2,0,0,0-.6-.68Z"/><path class="cls-3" d="M15.77,6.51h0l-.12,0a.36.36,0,0,0-.1-.13l-.1-.06h.17l.13,0s0,0,0,0l0,0h0s0,0,0,0a.18.18,0,0,1,.08.07h-.16m-.4.57h0s0,0,0,0h0Zm-.2-.56Zm-.29-.39h0l0,0h.05l.2,0,.18,0h.07l.17,0,.1,0a.5.5,0,0,0-.17.1.22.22,0,0,0-.06.15l0,0L15,6.19l-.12,0ZM14.4,6h0l-.19.08h0a.85.85,0,0,1,.29-.24l.07,0h.29a.58.58,0,0,0-.14.12.24.24,0,0,0-.06.09A.65.65,0,0,0,14.4,6Zm.12.3Zm-2,5.64h0a1.32,1.32,0,0,1,0,.28c0,.05,0,.09,0,.13l-.24,0a1.34,1.34,0,0,0-.34.15,2.61,2.61,0,0,0-.48.36,3.41,3.41,0,0,0-.36.41l-.3.39a2.82,2.82,0,0,1-.33.36,3.22,3.22,0,0,1-.41.32,2.51,2.51,0,0,1-.49.25l-.27.09-.12,0V14.7a.65.65,0,0,0,0-.2A1.41,1.41,0,0,0,9,14.11a4.24,4.24,0,0,0-.6-.68A4,4,0,0,0,8,13.11a2.61,2.61,0,0,0-.47-.26,2.27,2.27,0,0,0-.61-.15,1.9,1.9,0,0,0-.34,0l-.13,0,0,0a1,1,0,0,1-.06-.16,1.14,1.14,0,0,1,0-.37,2,2,0,0,1,.22-.64,2.48,2.48,0,0,0,1.55,1,6.37,6.37,0,0,0,1.33.19h.68c.23,0,.47,0,.7-.05a2.84,2.84,0,0,0,1.32-.44,1,1,0,0,0,.35-.47A1.74,1.74,0,0,1,12.54,12ZM8.33,16.19h0c0,.08-.05.15-.07.23a.7.7,0,0,0,0,.25,1.42,1.42,0,0,1,0,.41,6.54,6.54,0,0,1-.14.85l-.1.42c0,.15-.06.29-.08.45s0,.3,0,.45V20a.1.1,0,0,0,0,0,.89.89,0,0,1-.31.23l-.16,0h0s0,0,0,0a.79.79,0,0,0,0-.34.21.21,0,0,0-.2-.15c-.13,0-.25,0-.27.14a.77.77,0,0,0,0,.4h0a.21.21,0,0,1,0-.07,1.31,1.31,0,0,1,0-.28h0c0-.07-.06-.14-.16-.15s-.21,0-.22.11h0a.52.52,0,0,1-.07.21.22.22,0,0,1,0,.08H6.34a.11.11,0,0,1,0-.06v0a.49.49,0,0,0,.11-.23s0-.07-.06-.09a.19.19,0,0,0-.18,0h0a.67.67,0,0,0-.16.27v0l-.09,0h0s0,0,0-.06A.47.47,0,0,1,5.94,20a.07.07,0,0,0-.05-.08.1.1,0,0,0-.12,0l-.15.23,0,0h0a.25.25,0,0,1-.08-.07.27.27,0,0,1,0-.21c0-.05.12-.07.24-.11a1,1,0,0,0,.5-.41.9.9,0,0,0,.15-.52,1.46,1.46,0,0,0-.12-.51,4.27,4.27,0,0,1-.13-.48,2.81,2.81,0,0,1,.17-1,2.8,2.8,0,0,0,0-1c0-.17-.07-.34-.1-.5a3.93,3.93,0,0,1-.06-.48,4.69,4.69,0,0,1,0-1,6.21,6.21,0,0,1,.16-.84h.11l.2,0h.23a1.9,1.9,0,0,1,.46.1,3.4,3.4,0,0,1,.88.42c.13.1.25.19.36.29a2,2,0,0,1,.28.33,1,1,0,0,1,.14.37.54.54,0,0,1,0,.18.44.44,0,0,1-.06.16v0a.09.09,0,0,0,0,0c-.06.14-.13.28-.2.41A9.2,9.2,0,0,0,8.33,16.19ZM7,20.35Zm0,0ZM1.89,8.79h0a0,0,0,0,1,0,0Zm0,0h0s0,0,0,0v0ZM2.15,8h.08l.37.13.16,0-.14.13h0a.35.35,0,0,0-.11-.09A1,1,0,0,0,2,8.08L2.06,8S2.14,8,2.15,8Zm.47-.23h0l0,0s.16.11.26.17l.1.07-.15.09a.22.22,0,0,0,0-.1.53.53,0,0,0-.26-.26h.06Zm.19.8h0s0,0,0,0Zm-.93-.2h0v0s0,0,0,0h0l0,0A.06.06,0,0,1,1.88,8.4Zm1.56-.21ZM6.9,6.63h0l-.16-.09a.32.32,0,0,0,.19,0A.13.13,0,0,0,7,6.42c0-.07,0-.1,0-.1a.14.14,0,0,1-.09-.19s0-.06,0-.13-.08-.1-.1-.1l-.07,0-.1,0-.15-.06H6.34a.14.14,0,0,0-.08.07.1.1,0,0,0,0,.08l0,.06h0l0-.06,0,0s0,0,0,0,0,0,0,0l.07,0L6.6,6l.07,0s0,0,0,0,0,.07,0,.11a1.27,1.27,0,0,1,.12.23s0,0,0,0,0,0,0,0H6.73l0,0,0-.06h0a.17.17,0,0,0-.05,0,.1.1,0,0,0,0,.08l0,0-.25-.19c-.18-.24-.27-.49-.11-.57s.71.2.71.2a.7.7,0,0,0,.36.41l0-.31.4.44a1.34,1.34,0,0,1-.3-1,1.7,1.7,0,0,1,.73-1.12l-.23.57L9,4.06,8.5,5l.86-.77-.15.65.47-.44-.18.4.74-.7-.23.7.86-.36-.29.3.91-.72-.35.68.8-.59-.09.21a1,1,0,0,0-.12.4,1,1,0,0,0,0,.17.86.86,0,0,0-1.09.41c-.1.34.15.46.23.65s-.36.27-.36.27c.25.06.29,0,.47-.1s.08-.15-.15-.4,0-.47.19-.67.59-.12.71-.1,0,.12,0,.18a3.07,3.07,0,0,0,.17.83,1.82,1.82,0,0,0,.08.19s0,.06,0,.08l0,.08a1.12,1.12,0,0,1-.22.33,1.62,1.62,0,0,1-.34.29,1.88,1.88,0,0,1-.42.23,3.25,3.25,0,0,1-1,.25,3.44,3.44,0,0,1-.56,0,3.62,3.62,0,0,1-.55,0A4.27,4.27,0,0,1,6.9,6.63ZM2.39,8.94h0V9S2.33,9,2.39,8.94ZM16.27,6.63l-.08,0h0l0-.06a.24.24,0,0,0,0-.19.39.39,0,0,0-.06-.11l-.07-.06,0,0a.84.84,0,0,0-.19-.07h-.15a.24.24,0,0,0,0-.13.38.38,0,0,0-.17-.16l-.06,0-.13,0h-.18l-.1-.08a1.07,1.07,0,0,0-.33-.11h-.22a.76.76,0,0,0-.26.06.52.52,0,0,0-.31.26.42.42,0,0,0,0,.24.48.48,0,0,0,.09.19l-.33.24a.6.6,0,0,0-.12.11.14.14,0,0,0,0,.15.69.69,0,0,1,0,.24.35.35,0,0,1-.11.18l-.18.19a3.71,3.71,0,0,0-.59.87h0s0,0,0,0a2.58,2.58,0,0,0,.95-.74.8.8,0,0,0,.11-.25.37.37,0,0,0,0-.29,1.78,1.78,0,0,1-.09-.23c0-.07,0-.11.13-.16l.6-.23h.08a.26.26,0,0,0,.09.06.71.71,0,0,0,.17.09l.2.09-.14,0-.3.09s0,0,0,.07a.09.09,0,0,1,0,.07.32.32,0,0,1-.19.11h0l0,0a.51.51,0,0,0,.36,0,.2.2,0,0,0,.08-.08,1,1,0,0,0,.3,0h0l0,0A.63.63,0,0,0,15,7a.21.21,0,0,0,.13.21,1,1,0,0,0,.19.08L15,7.57a.66.66,0,0,0-.22.22L14.63,8l-.29.44c-.1.15-.18.29-.29.43s-.21.28-.32.4l-.18.18a1.27,1.27,0,0,1-.21.15,1.08,1.08,0,0,1-.24.1l-.29.07a2.38,2.38,0,0,1-.38,0s0-.06,0-.09a3.55,3.55,0,0,0-.47-1.08,1.13,1.13,0,0,0-.36-.35,1,1,0,0,1,.27.38,3.45,3.45,0,0,1,.27,1.07v0h0s0,0,0,0h0a4.37,4.37,0,0,1,0,.64,4.52,4.52,0,0,1,0,.81.94.94,0,0,1-.36.72,2.28,2.28,0,0,1-1,.33c-.21,0-.41,0-.62,0s-.44,0-.65,0a5.62,5.62,0,0,1-1.19-.14,3.38,3.38,0,0,1-1-.38,1.55,1.55,0,0,1-.55-.57,1.43,1.43,0,0,1,0-.58,4.77,4.77,0,0,1,0-.48q0-.17,0-.27a9.72,9.72,0,0,0,.8-.59c-.51.19-1,.4-1.45.63h0L6,10l-.25,0a2.9,2.9,0,0,1-.51,0l-.26,0-.26,0L4.42,9.9l-.25-.07c-.64-.19-1.26-.4-1.9-.62h.19c.21,0,.22-.17.21-.22a.31.31,0,0,0-.14-.2l-.08-.06V8.8a.48.48,0,0,1,0,.14h0s0,0,0,0l-.08,0A2.09,2.09,0,0,1,2,8.8l-.05,0,.14,0,.39,0a.84.84,0,0,0-.34-.17l-.22,0h0v0s0,0,0-.05h0l.5,0h.16a.31.31,0,0,0-.06.13.14.14,0,0,0,0,.09.2.2,0,0,0,.08.1.6.6,0,0,0,.23.05h.07a1.18,1.18,0,0,0,.25-.15.39.39,0,0,0,.17-.19,0,0,0,0,0,0,0h0a1.38,1.38,0,0,1-.39.15L3,8.51a2,2,0,0,1,.34-.22l.15-.06v0a.44.44,0,0,1,0,.15v0a0,0,0,0,0,0,0,.23.23,0,0,0,.09.12.31.31,0,0,0,.11.09,1.26,1.26,0,0,0,.26.13A3.8,3.8,0,0,0,4.39,9c.36.1.71.23,1.06.33a.26.26,0,0,0,.23,0h0l.59-.52.28-.27.26-.25L7.13,8l.34-.21a5.5,5.5,0,0,1,.69-.3,5.26,5.26,0,0,0,.6.18,3.88,3.88,0,0,0,.61.1l.32,0H10a3.56,3.56,0,0,0,1.19-.26l1.64,1.2a4.16,4.16,0,0,0-.23-.42,1.85,1.85,0,0,0-1.26-.85,2,2,0,0,0,.74-.6,1.11,1.11,0,0,0,.19-.43.48.48,0,0,0,0-.12.19.19,0,0,0,0-.12c-.05-.09-.08-.12-.12-.19a2.86,2.86,0,0,1-.3-.78,1.67,1.67,0,0,1,0-.59A2.28,2.28,0,0,0,12.21,4c.28-.6-.32-1.24-1-1.6a4.59,4.59,0,0,0-2.84-.44C6.86,2,5.44,3.13,5.27,4.17a1.79,1.79,0,0,0,.37,1.51s0,0,0,.05a2.43,2.43,0,0,0,.2.25c.18.28.66,1,.66,1V6.65l.39.53V6.89l.23.32-.08-.32a5.2,5.2,0,0,0,.61.37L8,7.41a3.06,3.06,0,0,0-.73.15,2.78,2.78,0,0,0-.83.4l-.18.14a1,1,0,0,0-.15.14l-.26.27c-.15.16-.3.32-.44.49-.33-.05-.66-.09-1-.15a1.6,1.6,0,0,1-.51-.15.64.64,0,0,1-.18-.13L3.69,8.5a0,0,0,0,0,0,0,.61.61,0,0,0,.12-.16.22.22,0,0,0,0-.28A.27.27,0,0,0,3.69,8l-.06,0h-.1a.75.75,0,0,0-.24,0L3.16,8s0,0,0,0A.36.36,0,0,0,3,7.55a.65.65,0,0,0-.21-.07.54.54,0,0,0-.22,0l-.14,0-.13.07a.16.16,0,0,0,0,.1H2.08L2,7.74c-.16,0-.22.17-.21.24a.24.24,0,0,0,0,.09.41.41,0,0,0-.16,0,.24.24,0,0,0-.15.11v0a.11.11,0,0,0,0,.05.27.27,0,0,0,.14.25l-.05,0-.08.06,0,0a.2.2,0,0,0,0,.2.49.49,0,0,0,.22.19,1.33,1.33,0,0,0,.5.13,5.3,5.3,0,0,0,.8.48,7,7,0,0,0,1,.43l.27.09.28.07a3,3,0,0,0,.61.1,3.42,3.42,0,0,0,.64,0,1.7,1.7,0,0,0,.31-.06,1.46,1.46,0,0,0,.32-.1h0L6.75,10a1.77,1.77,0,0,0-.08.22,3.35,3.35,0,0,0-.14.47,1.28,1.28,0,0,0,0,.66l0,.08a1.79,1.79,0,0,0-.5.68,1.08,1.08,0,0,0-.07.43,2,2,0,0,0,.06.23.75.75,0,0,0,.12.21.15.15,0,0,0,.1.07,4.51,4.51,0,0,0-.49,1.84,4.81,4.81,0,0,0,.1,1,3.16,3.16,0,0,1,0,1l-.1.49a1,1,0,0,0,0,.54,3.07,3.07,0,0,0,.2.5,2.42,2.42,0,0,1,.18.46.74.74,0,0,1-.09.46.7.7,0,0,1-.41.36l-.16.06a.22.22,0,0,0-.15.13.32.32,0,0,0,.19.4.25.25,0,0,0,.17,0l0,0,0,.07.13.05h.19a.2.2,0,0,0,.11.09l.08,0h.07a.57.57,0,0,0,.18,0l0,0,0,.06a.36.36,0,0,0,.15.1.52.52,0,0,0,.26,0h0l.11,0h0l.15,0h.13a1.12,1.12,0,0,0,.44-.08,1.1,1.1,0,0,0,.54-.4A.32.32,0,0,0,8.5,20v-.77c0-.14,0-.3,0-.42s.05-.28.07-.42L8.64,18a5.26,5.26,0,0,0,.08-.89,1.79,1.79,0,0,0,0-.23c0-.07,0-.18,0-.22a.86.86,0,0,1,0-.39c.07-.28.19-.56.28-.84A3.31,3.31,0,0,0,9.06,15l.35,0,.34-.07.31-.11.12.22a3.92,3.92,0,0,0,.27.33,2.55,2.55,0,0,0,.54.41,1.17,1.17,0,0,0-.16.15.58.58,0,0,0-.11.41A4.84,4.84,0,0,0,11,17a.58.58,0,0,1-.09.63l-.29.27a1.16,1.16,0,0,0-.31.34.3.3,0,0,0,.1.3,2.44,2.44,0,0,0,.23.16l.43.2a5.6,5.6,0,0,1,.74.4l.13.11.06.06,0,.05,0,0a1.07,1.07,0,0,0,.56.24h.32a.42.42,0,0,0,.3-.15.24.24,0,0,0-.05-.22,1.14,1.14,0,0,0-.16-.15h0s0,0,0,0,.12.24,0,.29a.49.49,0,0,1-.31,0,.77.77,0,0,1-.27-.15l0,0h0v0l-.06-.1a1.29,1.29,0,0,0-.16-.17,3.3,3.3,0,0,0-.83-.49l-.43-.17-.14-.08s0,0,0,0A1.37,1.37,0,0,1,11,18a2.7,2.7,0,0,0,.22-.33.65.65,0,0,0,.07-.38,2.37,2.37,0,0,0-.09-.36c0-.11-.09-.23-.12-.34a.62.62,0,0,1,0-.33.48.48,0,0,1,.16-.26.77.77,0,0,1,.28-.15h0a.23.23,0,0,0,.11-.07c.07-.07,0-.17-.07-.22a2.09,2.09,0,0,1-.4-.19,2.92,2.92,0,0,1-.37-.24c-.18-.14-.37-.28-.55-.44l.19-.09a3.71,3.71,0,0,0,.91-.72c.12-.14.22-.28.32-.41s.2-.25.32-.37a2.24,2.24,0,0,1,.36-.33.82.82,0,0,1,.2-.12s.15,0,.11,0l.06,0,.08.12a5,5,0,0,1,.41.76,8.19,8.19,0,0,1,.41,1.1,2.19,2.19,0,0,1,0,1.27,2.46,2.46,0,0,1-.28.65c-.13.21-.28.4-.42.61a.7.7,0,0,0-.11.68,1.27,1.27,0,0,0,.45.52,2.29,2.29,0,0,0,.56.32.38.38,0,0,1,.24.22.3.3,0,0,1,0,.19.32.32,0,0,0-.1-.1.55.55,0,0,0-.15-.05l0,.11a1.15,1.15,0,0,0,0,.16.78.78,0,0,1,0,.14.28.28,0,0,1,0,.1.49.49,0,0,0,.19,0,.25.25,0,0,0,.15-.08.19.19,0,0,0,.08-.14v0h0a.49.49,0,0,0,.18-.29c0-.12-.05-.28-.24-.39a3.37,3.37,0,0,1-.44-.33,1.44,1.44,0,0,1-.35-.43.54.54,0,0,1-.05-.53,2.3,2.3,0,0,1,.29-.62c.12-.21.28-.41.41-.63a1.72,1.72,0,0,0,.26-.69,2.66,2.66,0,0,0,0-.7,2.5,2.5,0,0,0-.2-.62,3.85,3.85,0,0,0-.3-.53,3,3,0,0,0-.35-.42,1.76,1.76,0,0,0-.32-.3l-.11-.09.12,0a.49.49,0,0,0,0-.17.88.88,0,0,0,0-.16,1.81,1.81,0,0,0-.09-.31,2.13,2.13,0,0,0-.25-.39,1.07,1.07,0,0,0,0-.25,3.9,3.9,0,0,0,0-.84c0-.18-.06-.34-.1-.5a1.93,1.93,0,0,0,1.16-.07,2.48,2.48,0,0,0,.32-.17l.25-.22A2.05,2.05,0,0,0,14.52,9a3,3,0,0,0,.37-1,2.21,2.21,0,0,0,0-.25.46.46,0,0,1,.15-.18,2.16,2.16,0,0,1,.54-.3l0,0a.06.06,0,0,0,0-.1l0,0a.47.47,0,0,1-.2-.1h0l0,0s0,0,0,0a1.81,1.81,0,0,0,.25-.16.68.68,0,0,1,.18-.1h.07a.16.16,0,0,1,.06,0l0,0s0,0,0,.05a1.08,1.08,0,0,1-.35.37v0h0L16,7.19a.94.94,0,0,0,.29-.2.24.24,0,0,0,.06-.17A.25.25,0,0,0,16.27,6.63Z"/><path class="cls-3" d="M9.6,5.21l.15.08s.06-.22-.61-.17a2.34,2.34,0,0,0-1.24.59S9.18,5,9.6,5.21"/><path class="cls-3" d="M9,5.79c.21,0,.43-.06.39-.13a.38.38,0,0,1,0-.11H9.5s0-.13-.26-.08a8,8,0,0,0-.85.25l.5-.08s-.09.11.11.16"/><path class="cls-3" d="M11.37,5.47c0-.09-.1-.1,0-.11a.54.54,0,0,1,.24,0c0-.17-.29-.13-.5-.06s-.21.12-.21.12c.26-.06,0,.09.21.13a.23.23,0,0,0,.29-.13"/><path class="cls-3" d="M9.66,6.85a1.5,1.5,0,0,0,1-.06c.13-.12.09-.22.23-.28a3.52,3.52,0,0,1-1,.14c-.46,0-.84-.07-.84-.07a.92.92,0,0,0,.62.27"/><path class="cls-3" d="M9.88,7c-.39-.09-.64,0-.46.09s.87,0,.46-.09"/><path class="cls-3" d="M7.65,6.41l0,0Z"/><path class="cls-3" d="M13.53,19.15a.35.35,0,0,0-.14-.06.81.81,0,0,0-.05.1.59.59,0,0,0,0,.17s0,.07,0,.12a.31.31,0,0,1-.05.09.37.37,0,0,0,.18,0,.33.33,0,0,0,.16-.09.2.2,0,0,0,.06-.14.25.25,0,0,0-.13-.21"/><path class="cls-3" d="M8.15,2.23a2.51,2.51,0,0,0-1.41-.6c-.74,0-2.07.44-2.07,1.43A6.69,6.69,0,0,1,4,5.41a1.3,1.3,0,0,0,.76-.54,1.75,1.75,0,0,1-.47.74s1.34-.11,1.79-1A16,16,0,0,1,8.15,2.23"/></svg>