<svg id="Capa_1" data-name="Capa 1" xmlns="http://www.w3.org/2000/svg" viewBox="0 0 30.84 28.91"><defs><style>.cls-1{fill:#f5a4c7;}.cls-2{fill:#fbcabb;}.cls-3{fill:#231f20;}</style></defs><title>1-12meses</title><path class="cls-1" d="M6.84,18.94s-1.3.51-1.41,1.39,1.09,1.94,1.09,1.94a3.34,3.34,0,0,0,2,.79,14.55,14.55,0,0,0,3.32-1.76s.28-.7.16-1a3.82,3.82,0,0,0-.71-.8Z"/><path class="cls-2" d="M6,18.05a5.45,5.45,0,0,1-1.56.45A12.66,12.66,0,0,1,1.2,17.34c-.28-.24-.46-.27-.4-.48a1.76,1.76,0,0,1,.26-.52A2,2,0,0,1,1.48,16a3.49,3.49,0,0,0,.45-.18l.42.47s.31-.11.43,0,0,.38,0,.38l0,.21a5.87,5.87,0,0,0,1.67.5A.86.86,0,0,0,5.06,17s1-.88,1.32-1a7.82,7.82,0,0,1,1-.35s-1.19-.59-1.7-.91a1.87,1.87,0,0,1-.5-1.57,13.82,13.82,0,0,1,3.78-1.63A9,9,0,0,1,11,11.7c.08,0,.29.39.29.39A2.27,2.27,0,0,0,11,13.65c.22.75.32.89.12,1.25a2.36,2.36,0,0,1-.7.67,1.41,1.41,0,0,0,.43.38c.28.16.85.59.85.59s1.08-.76,1.08-.94-.12-.58.1-.74l.46-.35s-.09-.34.12-.47a1.59,1.59,0,0,1,1,.05c.21.07.4.12.46.27s.24.07.31.3a1.73,1.73,0,0,0,.16.35s.07.24,0,.28a9.77,9.77,0,0,0-1,.44,1.69,1.69,0,0,0-.41.73,4.13,4.13,0,0,1-.89,1.41,10.23,10.23,0,0,1-1.6.25,4.27,4.27,0,0,1-.07,1.71c-.25.55-1,.93-2.78.91s-2.31-.47-2.55-.91a1.68,1.68,0,0,1-.27-.92A3.38,3.38,0,0,1,6,18.05"/><path class="cls-2" d="M5.68,21.06a.92.92,0,0,0-.4.66c-.12.53,0,3.28-.09,3.7a3,3,0,0,0,.14,1.41c.13.3.13.86-.17,1s-.62.16-.62.37.08.28.19.28A11,11,0,0,0,6,28.69a3.91,3.91,0,0,0,1.15-.06,1.83,1.83,0,0,0,.3-1c0-.44.15-2.2.19-2.64s.6-1.67.63-2-.44-1.72-2.56-2"/><path class="cls-2" d="M9.21,22.87a2.32,2.32,0,0,0,.58.66c.35.25.66.45.66.45s-.57.41-.46.64a3,3,0,0,1,.32,1.06c0,.27-.81.8-.68.94s1.27.49,1.47.71.44.71.93.64.55-.33.84-.39.71-.5.23-.74a2.26,2.26,0,0,1-1-1.2c0-.25,1-1.44,1-2.1a6.21,6.21,0,0,0-.73-2.11,2,2,0,0,0-.6-.69Z"/><path class="cls-3" d="M15,14.76h0l-.12,0a.28.28,0,0,0-.1-.13.27.27,0,0,0-.1-.06h.18l.12,0s0,0,0,0l0,0h0l0,0,.08.07H15m-.39.56h0s0,0,0,0h0Zm-.21-.55Zm-.28-.39h0l0,0h0l.21,0,.18,0h.07l.16,0,.11,0a.31.31,0,0,0-.17.1.22.22,0,0,0-.06.14l0,0-.32-.11-.11,0Zm-.48-.1h0a.57.57,0,0,0-.19.08v0a.83.83,0,0,1,.3-.23l.07,0h.28a.4.4,0,0,0-.14.11l-.06.09A.59.59,0,0,0,13.59,14.28Zm.12.3h0S13.72,14.58,13.71,14.58Zm-2,5.63h0a2.81,2.81,0,0,1,0,.29.59.59,0,0,1,0,.13.93.93,0,0,0-.24,0,1.73,1.73,0,0,0-.34.14,2.26,2.26,0,0,0-.47.37,4.49,4.49,0,0,0-.37.4L10,22l-.34.36a2.59,2.59,0,0,1-.41.31,2.42,2.42,0,0,1-.48.25A1.31,1.31,0,0,1,8.5,23l-.12,0V23a.78.78,0,0,0,0-.21,1.5,1.5,0,0,0-.19-.38,4.16,4.16,0,0,0-.59-.69,3.93,3.93,0,0,0-.38-.31,3.15,3.15,0,0,0-.48-.27,2.2,2.2,0,0,0-.6-.15,1.93,1.93,0,0,0-.34,0l-.14,0,0,0a.61.61,0,0,1-.07-.17,1.09,1.09,0,0,1,0-.36,2.32,2.32,0,0,1,.22-.64,2.5,2.5,0,0,0,1.56,1A5.61,5.61,0,0,0,8.62,21c.23,0,.47,0,.68,0s.48,0,.71-.05a2.88,2.88,0,0,0,1.31-.45,1.08,1.08,0,0,0,.36-.46A1.6,1.6,0,0,1,11.73,20.21ZM7.51,24.44h0a1.41,1.41,0,0,0-.06.22.71.71,0,0,0,0,.25,1.17,1.17,0,0,1,0,.41,4.19,4.19,0,0,1-.14.85l-.09.43c0,.15-.07.28-.09.44a3.49,3.49,0,0,0,0,.45v.76s0,0,0,0a.61.61,0,0,1-.3.23.49.49,0,0,1-.17,0h0a.43.43,0,0,1,0,0,1,1,0,0,0,0-.34.2.2,0,0,0-.2-.14.22.22,0,0,0-.26.13.89.89,0,0,0,0,.4h0l0-.08a.61.61,0,0,1,0-.27h0c0-.07,0-.14-.16-.15a.21.21,0,0,0-.22.11h0a.74.74,0,0,1-.07.21.18.18,0,0,1-.06.08h0s.05,0,0,0h0a.08.08,0,0,1,0-.07h0a.64.64,0,0,0,.12-.23.09.09,0,0,0-.07-.09.17.17,0,0,0-.18,0h0a.84.84,0,0,0-.16.27v0a.19.19,0,0,1-.1,0h0s0,0,0-.06a.49.49,0,0,1,0-.2s0-.06,0-.08a.11.11,0,0,0-.12,0l-.15.22,0,0s0,0,0,0,0,0-.07-.07a.21.21,0,0,1,0-.2c0-.06.12-.08.24-.12a.94.94,0,0,0,.5-.4.91.91,0,0,0,.16-.52,2.11,2.11,0,0,0-.12-.51,3.21,3.21,0,0,1-.14-.48,2.91,2.91,0,0,1,.17-1,2.6,2.6,0,0,0,0-1c0-.17-.08-.33-.11-.49a3.86,3.86,0,0,1-.06-.49,4,4,0,0,1,0-1,5.67,5.67,0,0,1,.15-.84h.12a.75.75,0,0,1,.19,0,1.77,1.77,0,0,1,.23,0,3.94,3.94,0,0,1,.47.1,3.36,3.36,0,0,1,.87.43,2.8,2.8,0,0,1,.37.29A1.7,1.7,0,0,1,8,22.4a1.07,1.07,0,0,1,.14.36.54.54,0,0,1,0,.18.34.34,0,0,1-.05.16s0,0,0,0,0,0,0,.05a3.75,3.75,0,0,1-.19.41A7.27,7.27,0,0,0,7.51,24.44ZM6.13,28.59h0S6.14,28.6,6.13,28.59Zm0,0ZM1.08,17h0s0,0,0,0Zm0,0h0S1.06,17.05,1.06,17Zm.27-.77h0s0,0,0,0h0l0,0,.37.12.16,0-.13.12h0l-.12-.09a1.19,1.19,0,0,0-.51-.18l.07-.05S1.33,16.26,1.33,16.27Zm.47-.22h0a2.08,2.08,0,0,1,.26.18l.1.06L2,16.4a.44.44,0,0,0,0-.1A.53.53,0,0,0,1.74,16h0S1.8,16.05,1.8,16.05Zm.19.79Zm-.92-.19h0a0,0,0,0,1,0,0v0l0,0S1.07,16.64,1.07,16.65Zm1.55-.21h0S2.62,16.42,2.62,16.44Zm3.47-1.57h0l-.16-.1a.4.4,0,0,0,.19,0s.06,0,.08-.08,0-.1,0-.1a.14.14,0,0,1-.08-.19.35.35,0,0,0,0-.12s-.08-.1-.1-.1l-.06,0-.11-.06L5.66,14H5.53a.11.11,0,0,0-.09.07.1.1,0,0,0,0,.08l0,.05h0l0-.05,0,0a0,0,0,0,1,0,0h0l.07,0a.61.61,0,0,0,.14.07l.08,0s0,0,0,0,0,.07,0,.1a1,1,0,0,1,.11.24s0,0,0,0H6l0,0s0,0,0,0,0,0,0,0l0-.05h0l-.06.05s0,0,0,.08v0a2.43,2.43,0,0,1-.25-.2c-.18-.23-.27-.49-.11-.56s.71.2.71.2a.7.7,0,0,0,.37.4l-.06-.3.41.43a1.3,1.3,0,0,1-.31-1,1.77,1.77,0,0,1,.73-1.13L7,13.14l1.19-.84-.53,1,.86-.76-.16.64.48-.44-.19.4.75-.69-.24.69.87-.36-.29.31.91-.73-.36.68.81-.58-.1.2a1.21,1.21,0,0,0-.12.41v.17a.86.86,0,0,0-1.09.4c-.09.35.15.46.23.66s-.35.27-.35.27a.49.49,0,0,0,.46-.1c.18-.11.08-.15-.15-.4s0-.48.19-.67.6-.12.71-.11a1.21,1.21,0,0,0,0,.19,2.59,2.59,0,0,0,.16.82c0,.06.07.15.08.2s0,0,0,.07l0,.08a1.2,1.2,0,0,1-.23.34,2.36,2.36,0,0,1-.33.29,3.45,3.45,0,0,1-.43.23,3.56,3.56,0,0,1-1,.25,3.46,3.46,0,0,1-.56,0A3.41,3.41,0,0,1,8,15.69,4.16,4.16,0,0,1,6.09,14.87ZM1.57,17.19h0v0S1.51,17.21,1.57,17.19Zm13.89-2.31-.08-.05h0a.12.12,0,0,0,.05-.05.21.21,0,0,0,0-.19.34.34,0,0,0-.06-.12l-.06-.06-.06,0a.47.47,0,0,0-.19-.07h-.15a.15.15,0,0,0,0-.12.3.3,0,0,0-.17-.16l-.06,0a.42.42,0,0,0-.13,0h-.18a.27.27,0,0,0-.1-.08,1,1,0,0,0-.33-.11l-.08,0h-.14a.8.8,0,0,0-.26.05.53.53,0,0,0-.3.26.39.39,0,0,0,0,.25.37.37,0,0,0,.09.18l-.32.24a.69.69,0,0,0-.13.11.23.23,0,0,0,0,.15,1.09,1.09,0,0,1,0,.24.5.5,0,0,1-.12.19l-.18.19a4.36,4.36,0,0,0-.59.86v0a0,0,0,0,0,0,0,2.41,2.41,0,0,0,.95-.74A1.15,1.15,0,0,0,13,15.5a.48.48,0,0,0,0-.29,1.46,1.46,0,0,1-.1-.23c0-.07,0-.1.13-.15s.42-.17.61-.23l.06,0h0s.05,0,.09.07l.18.09.19.08c-.06,0-.13,0-.13,0l-.31.1a.11.11,0,0,1,0,.06.08.08,0,0,1,0,.07c0,.05-.09.09-.19.11h0s0,0,0,0a.54.54,0,0,0,.37-.05l.08-.07a1.46,1.46,0,0,0,.29,0h0l0,0a.18.18,0,0,0-.07.11.21.21,0,0,0,.12.22.53.53,0,0,0,.2.07l-.35.25a.8.8,0,0,0-.22.23,1.59,1.59,0,0,1-.13.22l-.29.45c-.09.14-.18.29-.28.43l-.33.4-.17.18c-.08.05-.11.09-.22.15a1.94,1.94,0,0,1-.24.1L12,18h-.38a.36.36,0,0,0,0-.1,3.33,3.33,0,0,0-.46-1.08,1,1,0,0,0-.36-.34,1.12,1.12,0,0,1,.27.37A4.21,4.21,0,0,1,11.31,18V18h0s0,0,0,0h0c0,.2,0,.41,0,.64a4.57,4.57,0,0,1,0,.81.93.93,0,0,1-.37.71,2.13,2.13,0,0,1-1,.33,6,6,0,0,1-.62.05c-.23,0-.43,0-.64,0a5.72,5.72,0,0,1-1.2-.14,3.21,3.21,0,0,1-1-.38,1.46,1.46,0,0,1-.55-.56,2,2,0,0,1,0-.59c0-.18,0-.35,0-.48s0-.19,0-.26c.27-.19.55-.38.8-.59a14.7,14.7,0,0,0-1.45.62h0a.81.81,0,0,1-.21.05,1.9,1.9,0,0,1-.25,0,4.34,4.34,0,0,1-.51,0l-.26,0-.26-.05-.25-.06-.26-.07c-.63-.18-1.26-.4-1.9-.61h.2c.2-.05.21-.17.21-.21A.35.35,0,0,0,1.72,17L1.63,17V17a.39.39,0,0,1-.05.14h0l-.07,0a1,1,0,0,1-.3-.11L1.1,17l.15,0,.38,0a1,1,0,0,0-.34-.17,1.17,1.17,0,0,0-.22,0h0a.13.13,0,0,1,0-.06v0h0l.5,0h.16a.52.52,0,0,0-.06.13v.09a.35.35,0,0,0,.08.1A.45.45,0,0,0,2,17H2a.08.08,0,0,0,.07,0,1.38,1.38,0,0,0,.24-.14.43.43,0,0,0,.18-.2,0,0,0,0,0,0,0h0a1.07,1.07,0,0,1-.38.14l.07-.07a2.31,2.31,0,0,1,.35-.21l.15-.07v0a.66.66,0,0,1,0,.15l0,0v0a.29.29,0,0,0,.09.12l.11.09A1.51,1.51,0,0,0,3,17a4,4,0,0,0,.56.17c.36.1.7.22,1,.33a.26.26,0,0,0,.23,0l0,0c.21-.17.39-.34.59-.52a3.45,3.45,0,0,0,.28-.26c.1-.09.17-.17.27-.25a3.4,3.4,0,0,1,.3-.23,3.79,3.79,0,0,1,.34-.2,4.69,4.69,0,0,1,.68-.31,3.82,3.82,0,0,0,.6.19,5.74,5.74,0,0,0,.62.1h.63a3.44,3.44,0,0,0,1.19-.27L12,17a2.73,2.73,0,0,0-.24-.42,1.85,1.85,0,0,0-1.26-.86,2.12,2.12,0,0,0,.74-.59,1,1,0,0,0,.19-.43.49.49,0,0,0,0-.12.4.4,0,0,0,0-.13c-.05-.09-.08-.12-.12-.19a2.83,2.83,0,0,1-.29-.78,1.42,1.42,0,0,1,0-.58,2.6,2.6,0,0,0,.4-.66c.27-.6-.33-1.24-1-1.59a4.48,4.48,0,0,0-2.83-.44c-1.54.11-2.95,1.21-3.13,2.26a1.8,1.8,0,0,0,.37,1.51l0,.05.19.24c.18.29.66,1,.66,1v-.3l.39.52v-.28l.24.31-.08-.31a5.15,5.15,0,0,0,.61.36,3.49,3.49,0,0,0,.34.15,3.5,3.5,0,0,0-.73.15,3.13,3.13,0,0,0-.84.41l-.17.13-.15.14a2.37,2.37,0,0,0-.27.28l-.43.48-1-.14A2.45,2.45,0,0,1,3.11,17a.83.83,0,0,1-.18-.13.35.35,0,0,1-.05-.08,0,0,0,0,1,0,0A.83.83,0,0,0,3,16.56a.25.25,0,0,0,0-.29l-.11-.08-.06,0H2.72a.76.76,0,0,0-.25,0l-.12,0s0,0,0,0a.37.37,0,0,0-.22-.38.59.59,0,0,0-.2-.07.75.75,0,0,0-.22,0l-.15,0-.12.08a.16.16,0,0,0-.06.09H1.26l-.09,0C1,16,1,16.15,1,16.22a.19.19,0,0,0,0,.09l-.17,0a.29.29,0,0,0-.15.12v0s0,0,0,.06a.27.27,0,0,0,.15.25l-.06,0a.46.46,0,0,0-.07.07l0,.05a.18.18,0,0,0,0,.19.62.62,0,0,0,.23.2,1.68,1.68,0,0,0,.5.13,7.53,7.53,0,0,0,.79.48,9.11,9.11,0,0,0,1,.43l.27.08.29.08a3.58,3.58,0,0,0,.6.1,3.42,3.42,0,0,0,.64,0l.32-.05a1.52,1.52,0,0,0,.32-.11h0l.33-.22-.08.22c0,.13-.09.29-.14.48a1.36,1.36,0,0,0,0,.65l0,.08a2,2,0,0,0-.5.69,1.24,1.24,0,0,0-.06.43.87.87,0,0,0,.05.22.94.94,0,0,0,.12.22.17.17,0,0,0,.1.06,4.65,4.65,0,0,0-.48,1.84,4.26,4.26,0,0,0,.1,1,3.09,3.09,0,0,1,0,1l-.1.5a1.24,1.24,0,0,0,0,.54,4.19,4.19,0,0,0,.2.49,1.82,1.82,0,0,1,.18.47.64.64,0,0,1-.09.46.7.7,0,0,1-.4.35L4.65,28a.32.32,0,0,0-.15.13.31.31,0,0,0,0,.28.28.28,0,0,0,.15.13.25.25,0,0,0,.17,0h0a.18.18,0,0,0,.17.11h.19a.38.38,0,0,0,.12.09l.07,0h.08a.56.56,0,0,0,.17,0l0,0s0,0,0,.06a.41.41,0,0,0,.16.11.49.49,0,0,0,.25,0h.06l.11,0h0l.16,0h0s0,0,0,0h0a1.28,1.28,0,0,0,.44-.08,1.12,1.12,0,0,0,.54-.4.32.32,0,0,0,.06-.18v-.76c0-.14,0-.31,0-.42s0-.28.06-.42l.08-.44a5.14,5.14,0,0,0,.07-.88.86.86,0,0,0,0-.23,1.32,1.32,0,0,0,0-.23.88.88,0,0,1,0-.39,8.26,8.26,0,0,1,.28-.84c0-.13.09-.27.12-.41l.34,0,.35-.08.31-.1a2.12,2.12,0,0,0,.11.21,2.41,2.41,0,0,0,.82.75.61.61,0,0,0-.17.15.55.55,0,0,0-.1.4,4.08,4.08,0,0,0,.27.7.6.6,0,0,1-.09.63c-.08.09-.2.18-.3.28a.93.93,0,0,0-.3.34.28.28,0,0,0,.1.3,1.14,1.14,0,0,0,.23.15l.42.21a4.24,4.24,0,0,1,.74.4.53.53,0,0,1,.14.11l.05.06,0,.05,0,0a1,1,0,0,0,.56.23,1.58,1.58,0,0,0,.31,0,.41.41,0,0,0,.3-.16.19.19,0,0,0-.05-.21.57.57,0,0,0-.16-.15h0s0,0,0,0,.11.24,0,.28a.4.4,0,0,1-.3,0,.59.59,0,0,1-.28-.15l0,0h0s0,0,0,0h0v0a.36.36,0,0,0-.07-.1,1.29,1.29,0,0,0-.16-.18,3.27,3.27,0,0,0-.83-.48l-.42-.18a.42.42,0,0,1-.15-.08s0,0,0,0,.11-.15.19-.26a3.78,3.78,0,0,0,.22-.33.6.6,0,0,0,.07-.39,2,2,0,0,0-.09-.35c0-.12-.09-.23-.12-.35a.87.87,0,0,1,0-.32.46.46,0,0,1,.17-.26.84.84,0,0,1,.27-.16h0a.24.24,0,0,0,.11-.06.14.14,0,0,0-.08-.22c-.13-.06-.27-.12-.39-.19l-.37-.24L9.36,23l.19-.09a3.41,3.41,0,0,0,.92-.73l.32-.4c.1-.13.2-.26.31-.38a2.76,2.76,0,0,1,.36-.33,1.36,1.36,0,0,1,.2-.11c.06,0,.15,0,.11,0h.07a.63.63,0,0,1,.07.12,5,5,0,0,1,.42.76,9.2,9.2,0,0,1,.4,1.1,2.11,2.11,0,0,1,0,1.27,2.46,2.46,0,0,1-.28.65c-.12.21-.27.4-.41.6a.68.68,0,0,0-.12.68,1.55,1.55,0,0,0,.45.53,3.61,3.61,0,0,0,.56.32.37.37,0,0,1,.24.21.4.4,0,0,1,0,.19.41.41,0,0,0-.1-.09L13,27.17a.35.35,0,0,0,0,.11,1.22,1.22,0,0,0,0,.17.32.32,0,0,1,0,.13.37.37,0,0,1,0,.1.34.34,0,0,0,.18,0,.4.4,0,0,0,.16-.08.31.31,0,0,0,.08-.15s0,0,0,0h0v0h0a.4.4,0,0,0,.18-.28.4.4,0,0,0-.24-.4,3.19,3.19,0,0,1-.43-.32,1.62,1.62,0,0,1-.36-.43.61.61,0,0,1-.05-.53,2.52,2.52,0,0,1,.3-.62c.12-.21.27-.42.4-.64a1.62,1.62,0,0,0,.26-.69,2.62,2.62,0,0,0,0-.69,2.52,2.52,0,0,0-.21-.62,3.45,3.45,0,0,0-.3-.54,3.86,3.86,0,0,0-.34-.42,4.12,4.12,0,0,0-.32-.3L12,20.85l.11,0a1.09,1.09,0,0,0,0-.17c0-.06,0-.11,0-.16a2.81,2.81,0,0,0-.1-.31,1.62,1.62,0,0,0-.25-.39c0-.09,0-.17,0-.25a3.41,3.41,0,0,0,0-.85l-.09-.5a1.9,1.9,0,0,0,1.15-.06,1.26,1.26,0,0,0,.32-.18,1.84,1.84,0,0,0,.25-.21,2.37,2.37,0,0,0,.34-.46,3,3,0,0,0,.36-1l.06-.25a.36.36,0,0,1,.15-.19,1.91,1.91,0,0,1,.53-.29.1.1,0,0,0,0,0s0-.08,0-.1h0a.82.82,0,0,1-.19-.1h0l0,0h0l.24-.17.19-.09h.07l0,0,0,0s0,0,0,.06a1.31,1.31,0,0,1-.35.37h0l0,0a1.75,1.75,0,0,0,.32-.12.7.7,0,0,0,.29-.19.33.33,0,0,0,.07-.18A.25.25,0,0,0,15.46,14.88Z"/><path class="cls-3" d="M8.79,13.46l.15.07s.05-.21-.62-.17A2.34,2.34,0,0,0,7.09,14s1.28-.66,1.7-.49"/><path class="cls-3" d="M8.19,14c.2.05.42,0,.39-.13a.25.25,0,0,1,0-.11h.14s0-.12-.26-.08a7.55,7.55,0,0,0-.84.25l.49-.07S8,14,8.19,14"/><path class="cls-3" d="M10.55,13.72c0-.09-.1-.1,0-.12a.8.8,0,0,1,.24.05c0-.16-.3-.12-.51-.06s-.2.13-.2.13c.26-.07,0,.09.2.13a.23.23,0,0,0,.29-.13"/><path class="cls-3" d="M8.84,15.1a1.58,1.58,0,0,0,1-.06c.14-.12.1-.22.24-.28a3.52,3.52,0,0,1-1,.14c-.47,0-.85-.07-.85-.07a1,1,0,0,0,.62.27"/><path class="cls-3" d="M9.07,15.29c-.4-.1-.64,0-.47.09s.87,0,.47-.09"/><path class="cls-3" d="M6.84,14.65l0,0Z"/><path class="cls-3" d="M12.72,27.39l-.15-.06a.62.62,0,0,0-.05.11.5.5,0,0,0,0,.16.48.48,0,0,1,0,.12.14.14,0,0,1-.05.09.28.28,0,0,0,.18,0,.3.3,0,0,0,.16-.08.23.23,0,0,0,.07-.14.3.3,0,0,0-.13-.22"/><path class="cls-3" d="M6.25,4.42a1.9,1.9,0,0,1-.49.06A1.06,1.06,0,0,1,4.6,3.3,1.14,1.14,0,0,1,5.82,2.07a1.22,1.22,0,0,1,.43.06l-.09.23a.92.92,0,0,0-.35,0c-.37,0-.8.25-.8,1s.39,1,.81,1a1.22,1.22,0,0,0,.37,0Z"/><path class="cls-3" d="M7.49,3.58h0c-.21,0-.68,0-.68.39a.28.28,0,0,0,.3.3A.36.36,0,0,0,7.48,4a.34.34,0,0,0,0-.1Zm.06.88,0-.18h0A.61.61,0,0,1,7,4.49.53.53,0,0,1,6.42,4c0-.42.5-.61,1.06-.62v0c0-.23-.08-.39-.39-.39A1,1,0,0,0,6.68,3l-.09-.19a1.48,1.48,0,0,1,.58-.11c.49,0,.71.23.71.61v.73a2.42,2.42,0,0,0,0,.39Z"/><path class="cls-3" d="M8.43,3.2c0-.2,0-.3,0-.44h.34l0,.21h0a.69.69,0,0,1,.56-.24A.54.54,0,0,1,9.86,3h0a.72.72,0,0,1,.24-.19.78.78,0,0,1,.35-.07.54.54,0,0,1,.59.6V4.46h-.39V3.39c0-.22,0-.43-.35-.43a.38.38,0,0,0-.36.25.81.81,0,0,0,0,.16V4.46H9.55V3.34C9.55,3.16,9.5,3,9.2,3a.37.37,0,0,0-.37.27.76.76,0,0,0,0,.15V4.46H8.43Z"/><path class="cls-3" d="M11.6,4.46h0V2.76H12v1.7ZM12,2.32c0,.11-.09.18-.24.18s-.23-.07-.23-.18.1-.18.23-.18S12,2.21,12,2.32Z"/><path class="cls-3" d="M12.54,3.2c0-.2,0-.3,0-.44h.35l0,.2h0a.72.72,0,0,1,.57-.23.54.54,0,0,1,.6.59V4.46h-.4V3.36c0-.2-.06-.4-.34-.4a.38.38,0,0,0-.38.28.66.66,0,0,0,0,.15V4.46h-.4Z"/><path class="cls-3" d="M15.54,3.58h0c-.21,0-.68,0-.68.39a.28.28,0,0,0,.3.3A.36.36,0,0,0,15.53,4a.34.34,0,0,0,0-.1Zm.05.88,0-.18h0a.61.61,0,0,1-.49.21A.53.53,0,0,1,14.47,4c0-.42.5-.61,1.06-.62v0c0-.23-.08-.39-.4-.39a1.07,1.07,0,0,0-.41.09l-.08-.19a1.48,1.48,0,0,1,.58-.11c.49,0,.71.23.71.61v.73a2.42,2.42,0,0,0,0,.39Z"/><path class="cls-3" d="M17.22,4.18a1,1,0,0,0,.4.08c.22,0,.36-.09.36-.24s-.07-.22-.32-.33-.49-.29-.49-.49.29-.47.68-.47a1.16,1.16,0,0,1,.44.09l-.11.2A.79.79,0,0,0,17.86,3c-.22,0-.33.1-.33.21s.07.18.31.3.51.28.51.51-.34.51-.74.51a1.15,1.15,0,0,1-.49-.1Z"/><path class="cls-3" d="M19.05,3.61h0c0,.28.07.66.43.66s.4-.4.4-.66S19.82,3,19.47,3s-.42.4-.42.66m1.23,0a.8.8,0,0,1-.82.88.78.78,0,0,1-.81-.88.8.8,0,0,1,.83-.88A.78.78,0,0,1,20.28,3.61Z"/><rect class="cls-3" x="20.72" y="2.03" width="0.39" height="2.43"/><path class="cls-3" d="M22,3.61h0c0,.28.07.66.43.66s.4-.4.4-.66S22.75,3,22.4,3s-.41.4-.41.66m1.23,0a.8.8,0,0,1-.83.88.78.78,0,0,1-.8-.88.8.8,0,0,1,.83-.88A.78.78,0,0,1,23.22,3.61Z"/><path class="cls-3" d="M25.67,4.42a1.37,1.37,0,0,1-.41.06.82.82,0,0,1-.91-.86.89.89,0,0,1,1-.89,1.05,1.05,0,0,1,.35.06L25.6,3a.77.77,0,0,0-.28,0,.59.59,0,0,0-.57.66.56.56,0,0,0,.58.63.88.88,0,0,0,.29,0Z"/><path class="cls-3" d="M26.26,3.61h0c0,.28.07.66.43.66s.41-.4.41-.66S27,3,26.68,3s-.42.4-.42.66m1.24,0a.8.8,0,0,1-.83.88.78.78,0,0,1-.8-.88.8.8,0,0,1,.83-.88A.78.78,0,0,1,27.5,3.61Z"/><path class="cls-3" d="M27.94,3.2c0-.2,0-.3,0-.44h.34l0,.2h0a.74.74,0,0,1,.57-.23.54.54,0,0,1,.6.59V4.46h-.4V3.36c0-.2,0-.4-.34-.4a.37.37,0,0,0-.37.28.34.34,0,0,0,0,.15V4.46h-.39Z"/><path class="cls-3" d="M2.92,7h0a.61.61,0,0,0,0,.14.38.38,0,0,0,.36.29c.33,0,.43-.31.43-.65s-.12-.65-.43-.65a.38.38,0,0,0-.36.31.53.53,0,0,0,0,.13Zm-.4-.54c0-.26,0-.41,0-.53h.35l0,.21h0a.63.63,0,0,1,.53-.24c.43,0,.71.31.71.87s-.38.88-.76.88a.49.49,0,0,1-.43-.19h0v.84h-.4Z"/><path class="cls-3" d="M4.85,6.77h0c0,.28.08.66.43.66s.41-.4.41-.66-.07-.66-.42-.66-.42.4-.42.66m1.24,0a.79.79,0,0,1-.83.87.77.77,0,0,1-.8-.87.8.8,0,0,1,.83-.88A.78.78,0,0,1,6.09,6.77Z"/><path class="cls-3" d="M6.92,7h0a.37.37,0,0,0,0,.11.39.39,0,0,0,.37.3c.32,0,.43-.3.43-.66s-.12-.64-.43-.64a.4.4,0,0,0-.37.3.49.49,0,0,0,0,.12Zm-.42.6c0-.09,0-.29,0-.4v-2h.4v.93h0a.6.6,0,0,1,.52-.23c.38,0,.67.3.67.86s-.36.89-.75.89a.52.52,0,0,1-.49-.25h0l0,.22Z"/><path class="cls-3" d="M8.56,6.35c0-.14,0-.31,0-.43H8.9l0,.26h0a.59.59,0,0,1,.52-.29h.08v.28H9.45A.47.47,0,0,0,9,6.52a.76.76,0,0,0,0,.15v.94h-.4Z"/><path class="cls-3" d="M10.82,6.59h0c0-.34-.18-.49-.37-.49s-.39.26-.4.49Zm-.78.2c0,.52.31.63.59.63A1.12,1.12,0,0,0,11,7.35l.06.2a1.49,1.49,0,0,1-.54.09.81.81,0,0,1-.9-.86.81.81,0,0,1,.83-.89.68.68,0,0,1,.71.75.66.66,0,0,1,0,.15Z"/><path class="cls-3" d="M13.48,6.59h0c0-.34-.18-.49-.37-.49s-.39.26-.4.49Zm-.78.2c0,.52.31.63.59.63a1.12,1.12,0,0,0,.41-.07l.06.2a1.42,1.42,0,0,1-.54.09.81.81,0,0,1-.9-.86.81.81,0,0,1,.83-.89.68.68,0,0,1,.71.75v.15Z"/><path class="cls-3" d="M15.39,6.55h0a.41.41,0,0,0,0-.11A.39.39,0,0,0,15,6.12c-.33,0-.45.29-.45.65s.13.65.44.65a.37.37,0,0,0,.36-.29.32.32,0,0,0,0-.14Zm0,.89h0a.59.59,0,0,1-.48.2c-.4,0-.71-.3-.71-.85a.8.8,0,0,1,.78-.9.55.55,0,0,1,.46.22h0l0-.2h.35c0,.12,0,.27,0,.53V8.29h-.39Z"/><path class="cls-3" d="M17.81,7.15c0,.19,0,.34,0,.46h-.34l0-.17h0a.73.73,0,0,1-.53.2c-.43,0-.6-.23-.6-.65V5.92h.39V7c0,.27.06.46.33.46a.35.35,0,0,0,.36-.22.77.77,0,0,0,0-.15V5.92h.39Z"/><path class="cls-3" d="M18.36,7.61h0V5.92h.4V7.61Zm.43-2.13c0,.1-.09.17-.24.17s-.23-.07-.23-.17.1-.18.23-.18S18.79,5.37,18.79,5.48Z"/><rect class="cls-3" x="19.3" y="5.19" width="0.39" height="2.43"/><path class="cls-3" d="M20.28,7.61h0V5.92h.4V7.61Zm.43-2.13c0,.1-.1.17-.24.17s-.23-.07-.23-.17.1-.18.23-.18S20.71,5.37,20.71,5.48Z"/><path class="cls-3" d="M21.61,7h0a.2.2,0,0,0,0,.11.39.39,0,0,0,.37.3c.31,0,.43-.3.43-.66s-.12-.64-.44-.64a.41.41,0,0,0-.37.3.49.49,0,0,0,0,.12Zm-.41.6c0-.09,0-.29,0-.4v-2h.39v.93h0a.62.62,0,0,1,.53-.23c.38,0,.67.3.67.86s-.37.89-.75.89a.51.51,0,0,1-.49-.25h0l0,.22Z"/><path class="cls-3" d="M23.26,6.35c0-.14,0-.31,0-.43h.35l0,.26h0a.62.62,0,0,1,.53-.29h.08v.28h-.08a.46.46,0,0,0-.48.36.77.77,0,0,0,0,.15v.94h-.39Z"/><path class="cls-3" d="M24.53,7.61h0V5.92h.4V7.61ZM25,5.48c0,.1-.09.17-.24.17s-.23-.07-.23-.17a.21.21,0,0,1,.23-.18C24.87,5.3,25,5.37,25,5.48Z"/><path class="cls-3" d="M25.76,6.77h0c0,.28.07.66.43.66s.41-.4.41-.66-.07-.66-.42-.66-.42.4-.42.66m1.24,0a.79.79,0,0,1-.83.87.77.77,0,0,1-.8-.87.8.8,0,0,1,.83-.88A.78.78,0,0,1,27,6.77Z"/><path class="cls-3" d="M28.44,5.92l.33,1c.05.13.07.25.1.35h0L29,6.9l.29-1h.39L29.27,7a2.52,2.52,0,0,1-.62,1.09,1.46,1.46,0,0,1-.44.26l-.15-.23a1.16,1.16,0,0,0,.35-.21.94.94,0,0,0,.23-.29.15.15,0,0,0,0-.08.13.13,0,0,0,0-.06L28,5.92Z"/><path class="cls-3" d="M18.87,10.15h0a.32.32,0,0,0,0,.14.37.37,0,0,0,.36.28c.33,0,.43-.3.43-.65s-.12-.64-.43-.64a.4.4,0,0,0-.37.31.53.53,0,0,0,0,.13Zm-.39-.55c0-.26,0-.41,0-.53h.35l0,.22h0A.64.64,0,0,1,19.37,9c.43,0,.71.32.71.88a.77.77,0,0,1-.77.88.49.49,0,0,1-.43-.2h0v.85h-.39Z"/><path class="cls-3" d="M20.53,10.77h0V9.07h.39v1.7ZM21,8.63c0,.11-.09.18-.24.18s-.22-.07-.22-.18.1-.17.23-.17S21,8.53,21,8.63Z"/><path class="cls-3" d="M22.52,9.75h0c0-.34-.18-.5-.37-.5s-.38.26-.4.5Zm-.78.2c0,.52.31.63.59.63a1.08,1.08,0,0,0,.41-.07l.06.2a1.66,1.66,0,0,1-.54.08.8.8,0,0,1-.9-.85A.82.82,0,0,1,22.2,9a.68.68,0,0,1,.7.76V10Z"/><path class="cls-3" d="M23.32,9.51c0-.14,0-.31,0-.44h.35l0,.27h0a.63.63,0,0,1,.53-.3h.08v.28h-.08a.47.47,0,0,0-.48.36.66.66,0,0,0,0,.15v.94h-.4Z"/><path class="cls-3" d="M24.59,9.51c0-.2,0-.3,0-.44h.35l0,.21h0A.7.7,0,0,1,25.52,9a.54.54,0,0,1,.6.59v1.14h-.4V9.68c0-.2-.06-.41-.34-.41a.39.39,0,0,0-.38.28.66.66,0,0,0,0,.15v1.07h-.4Z"/><path class="cls-3" d="M27.59,9.89h0c-.21,0-.68,0-.68.4a.28.28,0,0,0,.3.3.37.37,0,0,0,.37-.26.28.28,0,0,0,0-.09Zm.05.88,0-.18h0a.61.61,0,0,1-.49.21c-.33,0-.59-.19-.59-.48s.5-.62,1.06-.62V9.64c0-.22-.08-.38-.4-.38a.91.91,0,0,0-.41.09l-.08-.19A1.29,1.29,0,0,1,27.27,9c.49,0,.71.23.71.61v.74a2.3,2.3,0,0,0,0,.38Z"/><path class="cls-3" d="M28.46,10.49a1,1,0,0,0,.4.09c.23,0,.37-.1.37-.25s-.07-.22-.32-.33-.5-.29-.5-.49.3-.47.68-.47a1.18,1.18,0,0,1,.45.09l-.11.21a.67.67,0,0,0-.33-.08c-.21,0-.32.11-.32.22s.06.18.31.29.51.28.51.52-.34.5-.74.5a1.09,1.09,0,0,1-.49-.1Z"/><path class="cls-3" d="M14.22,13.65a1,1,0,0,0,.4.09c.22,0,.36-.1.36-.25s-.07-.22-.32-.33-.49-.29-.49-.49.29-.47.68-.47a1.16,1.16,0,0,1,.44.09l-.1.2a.84.84,0,0,0-.33-.07c-.22,0-.32.11-.32.21s.06.18.3.3.51.28.51.51S15,14,14.61,14a1.15,1.15,0,0,1-.49-.1Z"/><path class="cls-3" d="M16.82,12.9h0c0-.34-.18-.49-.37-.49s-.39.26-.41.49Zm-.78.2c0,.52.3.64.59.64a1.12,1.12,0,0,0,.41-.07l.06.2a1.75,1.75,0,0,1-.54.08.79.79,0,0,1-.9-.85.81.81,0,0,1,.83-.9.68.68,0,0,1,.71.75.62.62,0,0,1,0,.15Z"/><path class="cls-3" d="M18,13.3h0a.53.53,0,0,0,0,.14.37.37,0,0,0,.37.29c.33,0,.43-.31.43-.65s-.12-.65-.44-.65a.4.4,0,0,0-.36.31.57.57,0,0,0,0,.13Zm-.39-.54c0-.26,0-.41,0-.53H18l0,.22h0a.6.6,0,0,1,.52-.25c.43,0,.72.32.72.88a.77.77,0,0,1-.77.88.52.52,0,0,1-.43-.2h0v.84h-.39Z"/><path class="cls-3" d="M20.58,13.05h0c-.2,0-.68,0-.68.39a.29.29,0,0,0,.31.31.35.35,0,0,0,.36-.26.31.31,0,0,0,0-.09Zm.06.88,0-.18h0a.62.62,0,0,1-.49.21.53.53,0,0,1-.59-.49c0-.42.5-.61,1.05-.62v0c0-.23-.08-.38-.39-.38a1.07,1.07,0,0,0-.41.08l-.09-.19a1.56,1.56,0,0,1,.58-.11c.5,0,.71.23.71.61v.73a1.63,1.63,0,0,0,0,.39Z"/><path class="cls-3" d="M21.52,12.67c0-.14,0-.31,0-.44h.35l0,.27h0a.6.6,0,0,1,.53-.3h.08v.27h-.08a.47.47,0,0,0-.48.35.78.78,0,0,0,0,.16v.94h-.39Z"/><path class="cls-3" d="M23.68,13.05h0c-.2,0-.68,0-.68.39a.29.29,0,0,0,.31.31.35.35,0,0,0,.36-.26.31.31,0,0,0,0-.09Zm.06.88,0-.18h0a.62.62,0,0,1-.49.21.53.53,0,0,1-.59-.49c0-.42.5-.61,1.05-.62v0c0-.23-.08-.38-.39-.38a1.07,1.07,0,0,0-.41.08l-.09-.19a1.56,1.56,0,0,1,.58-.11c.5,0,.71.23.71.61v.73a1.63,1.63,0,0,0,0,.39Z"/><path class="cls-3" d="M25.73,12.88h0a.49.49,0,0,0,0-.12.39.39,0,0,0-.37-.33c-.33,0-.44.32-.44.66s.14.64.42.64a.38.38,0,0,0,.38-.29.36.36,0,0,0,0-.11Zm.39-1.38v2c0,.12,0,.31,0,.41H25.8l0-.22h0a.6.6,0,0,1-.52.25c-.42,0-.72-.32-.72-.87s.36-.89.75-.89a.53.53,0,0,1,.45.21h0V11.5Z"/><path class="cls-3" d="M27.59,13.05h0c-.21,0-.68,0-.68.39a.28.28,0,0,0,.3.31.37.37,0,0,0,.37-.26.31.31,0,0,0,0-.09Zm.05.88,0-.18h0a.61.61,0,0,1-.49.21.53.53,0,0,1-.59-.49c0-.42.5-.61,1.06-.62v0c0-.23-.08-.38-.4-.38a1.07,1.07,0,0,0-.41.08l-.08-.19a1.48,1.48,0,0,1,.58-.11c.49,0,.71.23.71.61v.73a2.42,2.42,0,0,0,0,.39Z"/><path class="cls-3" d="M28.46,13.65a1,1,0,0,0,.4.09c.23,0,.37-.1.37-.25s-.07-.22-.32-.33-.5-.29-.5-.49.3-.47.68-.47a1.18,1.18,0,0,1,.45.09l-.11.2a.81.81,0,0,0-.33-.07c-.21,0-.32.11-.32.21s.06.18.31.3.51.28.51.51-.34.51-.74.51a1.09,1.09,0,0,1-.49-.1Z"/><path class="cls-3" d="M7.34,10.47a2.51,2.51,0,0,0-1.42-.6c-.73,0-2.07.44-2.07,1.44a6.68,6.68,0,0,1-.67,2.34,1.23,1.23,0,0,0,.76-.53,1.81,1.81,0,0,1-.47.74s1.34-.11,1.79-.95a15.65,15.65,0,0,1,2.08-2.44"/></svg>