<svg id="Capa_1" data-name="Capa 1" xmlns="http://www.w3.org/2000/svg" viewBox="0 0 30.48 28.44"><defs><style>.cls-1{fill:#fbcabb;}.cls-2{fill:#231f20;}.cls-3{fill:#6d6f71;}</style></defs><title>2-12meses</title><path class="cls-1" d="M27.72,28.44s-.07-.77-1.4-1.29-3.4-1.24-1.88-2.48,1.13-.71,2-1.19,1.75-2.9,1.47-3.57-3.57-3.84-6.59-4.06a19.14,19.14,0,0,0-6.83,1.23,5.49,5.49,0,0,0-.25,2.13c.15.91.61,1.74.28,2.46a1.81,1.81,0,0,0,0,1.92,12,12,0,0,0,2.9,1.71,3.82,3.82,0,0,1-1.42.41c-1,.12-2.29.26-2.36,1.27a3.26,3.26,0,0,0,.12,1.46Z"/><path class="cls-2" d="M.7,13.5h0a5,5,0,0,1,3-1.63,12,12,0,0,1,3.44-.15c.56,0,1.15.12,1.71.22a9.31,9.31,0,0,1,1.65.43,4.05,4.05,0,0,1,1.39.8,1.29,1.29,0,0,1,.39,1.3,3.32,3.32,0,0,1-.83,1.38A7.76,7.76,0,0,1,10.12,17l0,0h0a2.82,2.82,0,0,0-.24.29,3.28,3.28,0,0,0-.2.31,3.24,3.24,0,0,0-.39,2.12,4,4,0,0,0,1.2,2.11,6.19,6.19,0,0,1-1.84-1.48,2.83,2.83,0,0,1-.56-1.14A2.45,2.45,0,0,1,8.13,18l.13-.42-.43.05a14,14,0,0,1-3.42,0,10.48,10.48,0,0,1-1.66-.37,6.52,6.52,0,0,1-1.53-.73,2.2,2.2,0,0,1-1-1.35A2,2,0,0,1,.7,13.5M0,15.17a2.62,2.62,0,0,0,1,1.61,7.23,7.23,0,0,0,3.34,1.41,10.7,10.7,0,0,0,1.79.12,11.14,11.14,0,0,0,1.41-.1,2.64,2.64,0,0,0,0,1.12,3.22,3.22,0,0,0,.75,1.28,4.53,4.53,0,0,0,1.09.88,6.06,6.06,0,0,0,1.25.56l.11,0L10.71,22a5.39,5.39,0,0,1-.73-1.1,3.64,3.64,0,0,1-.37-1.23,2.66,2.66,0,0,1,.19-1.22,4.07,4.07,0,0,1,.28-.55l.18-.24.18-.2a8.08,8.08,0,0,0,1.44-1.12,3.77,3.77,0,0,0,1-1.67,2,2,0,0,0,0-1.11,2.12,2.12,0,0,0-.57-.92,4.21,4.21,0,0,0-1.66-.94,10.29,10.29,0,0,0-1.77-.41,17.83,17.83,0,0,0-1.78-.16,11.2,11.2,0,0,0-3.55.39,7.53,7.53,0,0,0-1.66.68A4.25,4.25,0,0,0,.54,13.37,2.45,2.45,0,0,0,0,15.17Z"/><path class="cls-2" d="M20.59,20.19a5.18,5.18,0,0,1,2.73,1.3S20.5,20,19.57,20.4l-.33.16s-.12-.47,1.35-.37"/><path class="cls-2" d="M17.56,22.76c-.54.12-.63,0-1-.23s-.18-.32.32-.88,0-1-.41-1.47S14.83,20,14.83,20v-.11a1.9,1.9,0,0,1,2.46.88c.21.76-.33,1-.51,1.45s.78.59.78.59"/><path class="cls-2" d="M20.89,21.66c-.45.1-.93-.11-.85-.28a.69.69,0,0,0,.07-.24l-.31,0s0-.28.58-.18a17.54,17.54,0,0,1,1.86.55l-1.1-.17s.2.24-.25.34"/><path class="cls-2" d="M15.74,20.72a1.47,1.47,0,0,0-.53.11c-.09-.36.65-.28,1.12-.13s.44.27.44.27c-.57-.14-.07.2-.44.28a.51.51,0,0,1-.65-.28c-.09-.19.22-.22.06-.25"/><path class="cls-2" d="M23.87,23l0,0Z"/><path class="cls-2" d="M25.68,23l.19,0A.19.19,0,0,0,26,23a.36.36,0,0,0,0-.11.68.68,0,0,1,0-.12h0a.32.32,0,0,1,.08.11.35.35,0,0,1,0,.16.28.28,0,0,1-.24.18.69.69,0,0,1-.38-.05.27.27,0,0,1-.16-.12c-.05-.09.06-.15.08-.17a.44.44,0,0,0,.21-.44,1,1,0,0,1,0-.26.17.17,0,0,1,.06-.11.34.34,0,0,1,.11-.05l.14-.07.25-.12a1.17,1.17,0,0,1,.3-.12.48.48,0,0,1,.21,0,.21.21,0,0,1,.14.11.28.28,0,0,1,0,.16.37.37,0,0,1-.05.11h0a.82.82,0,0,0,0-.11.24.24,0,0,0-.06-.11s0,0-.07,0l-.2.12a1.57,1.57,0,0,1-.29.14l-.16.06c-.06,0,0,0-.05,0a1.91,1.91,0,0,1-.07.24,3.22,3.22,0,0,1-.23.5c-.05.05,0,.06,0,0l.09,0"/><path class="cls-2" d="M16,24.9h0Z"/><path class="cls-2" d="M13.6,26.63a3.79,3.79,0,0,1,.32-.38,1.11,1.11,0,0,1,.19-.18,1.46,1.46,0,0,1,.26-.17,2.14,2.14,0,0,1,.28-.12l.07,0s0,0,.06,0h0l.14,0,.56-.13c.36-.08.71-.12,1-.16l.43,0-.14-.06a7.31,7.31,0,0,1-.79-.4,8,8,0,0,1-1.12-.73,3.93,3.93,0,0,1-.46-.45,1,1,0,0,1-.18-.24,1.07,1.07,0,0,1-.12-.27,1.11,1.11,0,0,1-.05-.54,4.39,4.39,0,0,1,.13-.52,2.38,2.38,0,0,0,.14-1l0-.25-.08-.25a3.81,3.81,0,0,1-.17-.51,6.21,6.21,0,0,1-.17-1.05,7.36,7.36,0,0,1,0-1.05l0-.18-.12-.25c-.6-1.31.72-2.73,2.17-3.51s2.86-1.21,6.25-1,6.5,2.67,6.89,5a4.56,4.56,0,0,1-1.29,4c-.39.61-1.47,2.18-1.47,2.18v-.67l-.87,1.16V24.1l-.51.69.18-.69-.22.21-.26.26-.23.27a.71.71,0,0,0-.12.13l-.12.13a1.27,1.27,0,0,0-.18.29.88.88,0,0,0,0,.16.26.26,0,0,0,0,.15.41.41,0,0,0,.07.15,1.71,1.71,0,0,0,.11.14h0a.84.84,0,0,0,.17.13,1,1,0,0,0,.21.11l.46.19a4.59,4.59,0,0,0,.48.17l.26.07.26.09a3.06,3.06,0,0,1,1,.55,1.63,1.63,0,0,1,.52.75h-.06a5,5,0,0,0-.82-.52,3.42,3.42,0,0,0-.43-.21,3.24,3.24,0,0,0-.45-.18l-.25-.09-.26-.1c-.18-.07-.35-.15-.51-.23a2.83,2.83,0,0,1-.44-.3l-.18-.18a1,1,0,0,1-.14-.2h0a1.68,1.68,0,0,1-.15-.34.53.53,0,0,1,0-.17c0-.06,0-.12,0-.18a1.18,1.18,0,0,1,0-.37,1.15,1.15,0,0,1,.06-.17,1,1,0,0,1,.1-.17,2.24,2.24,0,0,1,.62-.56,3,3,0,0,1,.85-.38h0l.49-.32c.77-.51,1.6-1.74,1-2s-1.56.45-1.56.45a1.58,1.58,0,0,1-.81.89l.12-.67-.88,1a2.91,2.91,0,0,0,.67-2.11,3.8,3.8,0,0,0-1.61-2.47l.51,1.26-2.63-1.85L22,20l-1.9-1.68.34,1.41-1.05-1,.41.88-1.64-1.54.52,1.54-1.91-.8.64.68-2-1.6.79,1.5L14.3,18l.53,1.17a2.16,2.16,0,0,1-.48-.58l.06.46q.08.51.18,1c0,.17.07.32.09.52l0,.26a2.44,2.44,0,0,1,0,.27,4.21,4.21,0,0,1-.3,1.05,2.15,2.15,0,0,0-.12.5.92.92,0,0,0,.1.49.74.74,0,0,0,.14.22,1.94,1.94,0,0,0,.2.21,3.64,3.64,0,0,0,.49.36c.18.12.37.22.56.33l.59.31h0a6.33,6.33,0,0,0,.74.33,7,7,0,0,0,.81.27,7.34,7.34,0,0,0,.84.17l.42.05h.44a3,3,0,0,0,.42,0l.43-.07c.29-.06.57-.13.85-.21A14.55,14.55,0,0,0,23,24.52l0,0a7.33,7.33,0,0,1-1.49.82,7.57,7.57,0,0,1-.88.3l-.47.1a4.46,4.46,0,0,1-.51.07l-.23,0h-.28l-.5,0a6,6,0,0,1-1-.2l-.36-.11a5.39,5.39,0,0,1-.64.25l-.47.13-.54.1-.6.06h-.19s0,0,0,0h-.08a1.7,1.7,0,0,0-.28,0,.79.79,0,0,0-.44.21.51.51,0,0,0-.15.37c0,.12,0,.24,0,.35v.32c0,.2,0,.38,0,.5a1.38,1.38,0,0,1,0,.2h-.06a1.27,1.27,0,0,1-.38-.69.86.86,0,0,1,0-.36,1,1,0,0,1,.18-.39"/><path class="cls-2" d="M19,24.79c.23.11.37.28.29.31s-1.08-.08-1-.31a1.47,1.47,0,0,1,.71,0"/><path class="cls-2" d="M20,23.88s-1.6.72-2.33.29a3.3,3.3,0,0,1-.94-.72,2.14,2.14,0,0,1,1.54,0c1,.29,1.73.43,1.73.43"/><polygon class="cls-3" points="4.06 13 3.62 13 3.62 12.69 5 12.69 5 13 4.55 13 4.55 14.4 4.06 14.4 4.06 13"/><polygon class="cls-3" points="6.27 13.65 5.7 13.65 5.7 14.11 6.35 14.11 6.35 14.4 5.21 14.4 5.21 12.69 6.3 12.69 6.3 12.98 5.7 12.98 5.7 13.37 6.27 13.37 6.27 13.65"/><polygon class="cls-3" points="6.92 13 6.47 13 6.47 12.69 7.85 12.69 7.85 13 7.4 13 7.4 14.4 6.92 14.4 6.92 13"/><path class="cls-3" d="M8.74,13.75h0l-.08-.36c0-.1-.06-.27-.08-.39h0c0,.12-.07.3-.09.4l-.09.35Zm-.4.26-.11.39H7.75l.55-1.71h.58l.49,1.71H8.9L8.79,14Z"/><path class="cls-3" d="M4.66,16h.08c.24,0,.35-.12.35-.28S5,15.5,4.78,15.5H4.66Zm-.49-.78a3.89,3.89,0,0,1,.51,0,1.31,1.31,0,0,1,.68.13.43.43,0,0,1,.22.38.49.49,0,0,1-.21.41,1.16,1.16,0,0,1-.61.16h-.1V17H4.17Z"/><path class="cls-3" d="M6.48,16.3h0l-.08-.36a3.82,3.82,0,0,1-.08-.39h0c0,.12-.07.29-.09.39l-.1.36Zm-.4.26L6,17H5.49L6,15.24h.58L7.11,17H6.63l-.1-.39Z"/><path class="cls-3" d="M7.34,17V15.24h.45l.39.67c.07.13.19.35.26.5h0c0-.18,0-.48,0-.79v-.38h.43V17H8.38L8,16.3a3.11,3.11,0,0,1-.25-.52h0c0,.18,0,.44,0,.79V17Z"/><path class="cls-2" d="M1.32,3.41h.14c.44,0,.86-.22.86-1,0-.6-.27-.92-.82-.92H1.32ZM.92,1.3a2.79,2.79,0,0,1,.53,0,1.47,1.47,0,0,1,.81.18,1,1,0,0,1,.47,1,1.15,1.15,0,0,1-.42,1,1.49,1.49,0,0,1-.95.26,2.85,2.85,0,0,1-.44,0Z"/><path class="cls-2" d="M3.15,3.63h0V1.93h.39v1.7ZM3.57,1.5c0,.1-.09.17-.24.17s-.22-.07-.22-.17.1-.18.23-.18S3.57,1.39,3.57,1.5Z"/><path class="cls-2" d="M5.25,3.59a1.11,1.11,0,0,1-.41.06.81.81,0,0,1-.91-.86.89.89,0,0,1,1-.88A1.08,1.08,0,0,1,5.26,2l-.08.22a1.21,1.21,0,0,0-.28,0,.58.58,0,0,0-.57.65.56.56,0,0,0,.58.64.93.93,0,0,0,.29-.05Z"/><path class="cls-2" d="M6.56,2.61h0c0-.34-.18-.49-.37-.49s-.39.26-.41.49Zm-.78.2c0,.52.3.63.59.63a1.12,1.12,0,0,0,.41-.07l.06.2a1.52,1.52,0,0,1-.55.08.8.8,0,0,1-.9-.85.81.81,0,0,1,.84-.89.67.67,0,0,1,.7.75v.15Z"/><path class="cls-2" d="M9.16,2.58h0V2.47a.39.39,0,0,0-.37-.33c-.33,0-.44.31-.44.65s.13.65.42.65a.39.39,0,0,0,.38-.3.37.37,0,0,0,0-.11ZM9.55,1.2v2c0,.11,0,.3,0,.4H9.23l0-.21h0a.6.6,0,0,1-.52.24c-.42,0-.72-.31-.72-.87a.78.78,0,0,1,.75-.88.53.53,0,0,1,.45.2h0V1.2Z"/><path class="cls-2" d="M10.34,2.78h0c0,.28.07.67.43.67s.4-.4.4-.67-.07-.66-.41-.66-.42.4-.42.66m1.23,0a.79.79,0,0,1-.82.88.78.78,0,0,1-.81-.87.8.8,0,0,1,.83-.88A.78.78,0,0,1,11.57,2.78Z"/><path class="cls-2" d="M11.89,3.35a1,1,0,0,0,.4.09c.23,0,.36-.1.36-.25s-.06-.21-.31-.33-.5-.29-.5-.48.3-.47.68-.47A1.21,1.21,0,0,1,13,2l-.11.21a.67.67,0,0,0-.33-.08c-.21,0-.32.11-.32.22s.06.18.31.29.51.28.51.52-.34.5-.74.5a1.1,1.1,0,0,1-.49-.09Z"/><path class="cls-2" d="M14.53,3h0a.61.61,0,0,0,0,.14.38.38,0,0,0,.37.29c.32,0,.43-.31.43-.66s-.13-.64-.44-.64a.38.38,0,0,0-.36.31.53.53,0,0,0,0,.13Zm-.4-.55c0-.26,0-.41,0-.53h.36l0,.22h0A.6.6,0,0,1,15,1.91c.43,0,.72.31.72.87a.77.77,0,0,1-.77.88.48.48,0,0,1-.43-.2h0v.85h-.4Z"/><path class="cls-2" d="M17.05,2.76h0c-.2,0-.68,0-.68.39a.28.28,0,0,0,.3.3A.36.36,0,0,0,17,3.19a.28.28,0,0,0,0-.09Zm.06.87,0-.18h0a.65.65,0,0,1-.5.21A.52.52,0,0,1,16,3.18c0-.43.49-.62,1-.62V2.51c0-.23-.08-.39-.39-.39a.86.86,0,0,0-.41.09L16.15,2a1.48,1.48,0,0,1,.58-.11c.49,0,.71.22.71.6v.74a1.54,1.54,0,0,0,0,.38Z"/><rect class="cls-2" x="17.94" y="1.2" width="0.39" height="2.43"/><path class="cls-2" d="M19.79,2.76h0c-.21,0-.68,0-.68.39a.28.28,0,0,0,.3.3.37.37,0,0,0,.37-.26.28.28,0,0,0,0-.09Zm.05.87,0-.18h0a.61.61,0,0,1-.49.21c-.33,0-.59-.19-.59-.48s.5-.62,1.06-.62V2.51c0-.23-.08-.39-.4-.39a.91.91,0,0,0-.41.09L18.89,2a1.48,1.48,0,0,1,.58-.11c.49,0,.71.22.71.6v.74a2.3,2.3,0,0,0,0,.38Z"/><path class="cls-2" d="M21.07,3h0a.37.37,0,0,0,0,.11.39.39,0,0,0,.37.3c.32,0,.43-.3.43-.66s-.12-.64-.43-.64a.4.4,0,0,0-.37.3.49.49,0,0,0,0,.12Zm-.42.6c0-.1,0-.29,0-.4v-2h.4v.93h0a.62.62,0,0,1,.52-.22c.38,0,.67.3.67.86s-.36.89-.75.89A.52.52,0,0,1,21,3.41h0l0,.22Z"/><path class="cls-2" d="M22.66,2.37c0-.14,0-.31,0-.44H23l0,.27h0a.59.59,0,0,1,.52-.29h.08v.28h-.08a.47.47,0,0,0-.48.36.71.71,0,0,0,0,.15v.94h-.4Z"/><path class="cls-2" d="M24.78,2.76h0c-.21,0-.68,0-.68.39a.28.28,0,0,0,.3.3.37.37,0,0,0,.37-.26.28.28,0,0,0,0-.09Zm0,.87,0-.18h0a.62.62,0,0,1-.49.21c-.33,0-.59-.19-.59-.48s.5-.62,1.06-.62V2.51c0-.23-.09-.39-.4-.39a.91.91,0,0,0-.41.09L23.88,2a1.46,1.46,0,0,1,.57-.11c.5,0,.72.22.72.6v.74a2.3,2.3,0,0,0,0,.38Z"/><path class="cls-2" d="M25.6,3.35a1,1,0,0,0,.4.09c.22,0,.36-.1.36-.25s-.06-.21-.31-.33-.5-.29-.5-.48.3-.47.68-.47a1.3,1.3,0,0,1,.45.08l-.11.21a.67.67,0,0,0-.33-.08c-.22,0-.32.11-.32.22s.06.18.3.29.52.28.52.52-.34.5-.75.5a1.16,1.16,0,0,1-.49-.09Z"/><path class="cls-2" d="M.82,6.51a1,1,0,0,0,.4.09c.23,0,.37-.1.37-.25S1.52,6.13,1.27,6s-.5-.29-.5-.49.3-.47.68-.47a1.18,1.18,0,0,1,.45.09l-.11.2a.81.81,0,0,0-.33-.07c-.21,0-.32.11-.32.22s.06.17.31.29.51.28.51.52-.34.5-.74.5a1.09,1.09,0,0,1-.49-.1Z"/><path class="cls-2" d="M3.8,6.33c0,.19,0,.33,0,.46H3.48l0-.18h0a.69.69,0,0,1-.53.21c-.43,0-.6-.23-.6-.65V5.09H2.7v1c0,.26.06.46.34.46a.35.35,0,0,0,.35-.22.78.78,0,0,0,0-.16V5.09H3.8Z"/><path class="cls-2" d="M5.36,5.77h0c0-.35-.18-.5-.37-.5s-.39.26-.4.5ZM4.58,6c0,.52.3.64.59.64a1.12,1.12,0,0,0,.41-.07l.06.2a1.75,1.75,0,0,1-.54.08A.79.79,0,0,1,4.2,6,.81.81,0,0,1,5,5.06a.68.68,0,0,1,.71.75.62.62,0,0,1,0,.15Z"/><rect class="cls-2" x="6.11" y="4.36" width="0.39" height="2.43"/><path class="cls-2" d="M7.52,4.64v.45H8V5.3H7.52v1c0,.22.11.28.26.28h.16v.2a1.07,1.07,0,0,1-.29,0,.69.69,0,0,1-.39-.1c-.1-.08-.15-.19-.15-.43v-1h-.3V5.09h.3V4.72Z"/><path class="cls-2" d="M9.21,5.91h0c-.2,0-.68,0-.68.4a.28.28,0,0,0,.3.3.36.36,0,0,0,.37-.26.31.31,0,0,0,0-.09Zm.06.88,0-.18h0a.65.65,0,0,1-.5.21.52.52,0,0,1-.58-.49c0-.42.49-.61,1-.61V5.66c0-.22-.08-.38-.39-.38a.86.86,0,0,0-.41.09l-.09-.19a1.29,1.29,0,0,1,.58-.12c.49,0,.71.23.71.61V6.4a1.63,1.63,0,0,0,0,.39Z"/><path class="cls-2" d="M10,6.51a1.07,1.07,0,0,0,.4.09c.23,0,.37-.1.37-.25s-.07-.22-.32-.33-.5-.29-.5-.49.3-.47.68-.47a1.18,1.18,0,0,1,.45.09l-.11.2a.81.81,0,0,0-.33-.07c-.21,0-.32.11-.32.22s.06.17.31.29.51.28.51.52-.34.5-.74.5a1.09,1.09,0,0,1-.49-.1Z"/><path class="cls-2" d="M11.27,7.23a3.47,3.47,0,0,0,.3-.82l.45,0a4,4,0,0,1-.48.83Z"/><path class="cls-2" d="M14.08,5.91h0c-.21,0-.68,0-.68.4a.28.28,0,0,0,.3.3.37.37,0,0,0,.37-.26.31.31,0,0,0,0-.09Zm.05.88,0-.18h0a.62.62,0,0,1-.49.21A.53.53,0,0,1,13,6.33c0-.42.5-.61,1.06-.61V5.66c0-.22-.09-.38-.4-.38a.91.91,0,0,0-.41.09l-.08-.19a1.28,1.28,0,0,1,.57-.12c.5,0,.72.23.72.61V6.4a2.42,2.42,0,0,0,0,.39Z"/><path class="cls-2" d="M16.07,5.74h0a.49.49,0,0,0,0-.12.39.39,0,0,0-.37-.33c-.32,0-.44.32-.44.66s.14.64.42.64a.37.37,0,0,0,.38-.29.36.36,0,0,0,0-.11Zm.39-1.38v2c0,.12,0,.31,0,.41h-.34l0-.21h0a.62.62,0,0,1-.52.24c-.42,0-.72-.31-.72-.87s.36-.89.75-.89a.52.52,0,0,1,.45.21h0V4.36Z"/><path class="cls-2" d="M18,5.77h0c0-.35-.18-.5-.37-.5s-.39.26-.4.5ZM17.23,6c0,.52.31.64.59.64a1.08,1.08,0,0,0,.41-.07l.06.2a1.66,1.66,0,0,1-.54.08.8.8,0,0,1-.9-.85.82.82,0,0,1,.83-.9.68.68,0,0,1,.71.75V6Z"/><path class="cls-2" d="M18.76,5.53c0-.2,0-.3,0-.44h.35l0,.21h0a.65.65,0,0,1,.55-.24.53.53,0,0,1,.52.26h0a.76.76,0,0,1,.25-.19.74.74,0,0,1,.34-.07.55.55,0,0,1,.6.6V6.79H21V5.73c0-.22-.05-.44-.35-.44a.39.39,0,0,0-.37.25.81.81,0,0,0,0,.16V6.79h-.39V5.68c0-.19-.05-.39-.34-.39a.37.37,0,0,0-.37.28.59.59,0,0,0,0,.14V6.79h-.39Z"/><path class="cls-2" d="M22.81,5.91h0c-.21,0-.68,0-.68.4a.28.28,0,0,0,.3.3.37.37,0,0,0,.37-.26.31.31,0,0,0,0-.09Zm.05.88h0l0-.18h0a.62.62,0,0,1-.49.21.53.53,0,0,1-.59-.49c0-.42.5-.61,1.06-.61V5.66c0-.22-.09-.38-.4-.38a.91.91,0,0,0-.41.09l-.08-.19a1.28,1.28,0,0,1,.57-.12c.5,0,.72.23.72.61V6.4a2.42,2.42,0,0,0,0,.39Zm.27-2.39-.54.47h-.26l.39-.47Z"/><path class="cls-2" d="M23.63,6.51a1,1,0,0,0,.4.09c.22,0,.36-.1.36-.25s-.06-.22-.31-.33-.5-.29-.5-.49.3-.47.68-.47a1.27,1.27,0,0,1,.45.09l-.11.2a.81.81,0,0,0-.33-.07c-.21,0-.32.11-.32.22s.06.17.3.29.52.28.52.52-.34.5-.75.5a1.15,1.15,0,0,1-.49-.1Z"/><path class="cls-2" d="M2,8.89H2V8.78a.39.39,0,0,0-.37-.33c-.33,0-.44.31-.44.65s.13.65.42.65A.38.38,0,0,0,2,9.46a.37.37,0,0,0,0-.11Zm.39-1.37v2c0,.12,0,.31,0,.41H2.06l0-.22H2a.58.58,0,0,1-.51.25c-.42,0-.73-.32-.73-.88a.78.78,0,0,1,.75-.88.53.53,0,0,1,.45.2H2v-.9Z"/><path class="cls-2" d="M3.94,8.92h0c0-.34-.18-.49-.37-.49s-.39.26-.41.49Zm-.78.2c0,.52.3.63.59.63a1.15,1.15,0,0,0,.41-.06l.06.2a1.75,1.75,0,0,1-.54.08.8.8,0,0,1-.91-.85.82.82,0,0,1,.84-.9A.68.68,0,0,1,4.32,9a.66.66,0,0,1,0,.15Z"/><path class="cls-2" d="M5.83,9.32h0a.57.57,0,0,0,0,.14.37.37,0,0,0,.37.29c.33,0,.43-.31.43-.65s-.12-.65-.44-.65a.4.4,0,0,0-.36.31.57.57,0,0,0,0,.13Zm-.39-.54a5,5,0,0,0,0-.53h.36l0,.22h0a.6.6,0,0,1,.52-.25c.43,0,.72.32.72.87s-.38.89-.77.89a.52.52,0,0,1-.43-.2h0v.84H5.44Z"/><path class="cls-2" d="M8.35,9.07h0c-.2,0-.68,0-.68.39a.28.28,0,0,0,.3.3.34.34,0,0,0,.37-.25.34.34,0,0,0,0-.1Zm.06.88,0-.18h0a.62.62,0,0,1-.49.21.53.53,0,0,1-.59-.49c0-.42.49-.61,1-.62v0c0-.23-.08-.39-.39-.39a1,1,0,0,0-.41.09l-.09-.19A1.48,1.48,0,0,1,8,8.22c.5,0,.71.23.71.61v.73a1.63,1.63,0,0,0,0,.39Z"/><path class="cls-2" d="M9.63,9.32h0a.3.3,0,0,0,0,.14.35.35,0,0,0,.36.29c.33,0,.43-.31.43-.65s-.12-.65-.44-.65a.41.41,0,0,0-.36.31.57.57,0,0,0,0,.13Zm-.39-.54c0-.26,0-.41,0-.53h.35l0,.22h0a.6.6,0,0,1,.52-.25c.43,0,.72.32.72.87s-.38.89-.77.89a.52.52,0,0,1-.43-.2h0v.84H9.24Z"/><path class="cls-2" d="M12.15,9.07h0c-.2,0-.68,0-.68.39a.29.29,0,0,0,.31.3.33.33,0,0,0,.37-.35Zm.06.88h0l0-.18h0a.62.62,0,0,1-.49.21.53.53,0,0,1-.59-.49c0-.42.5-.61,1.05-.62v0c0-.23-.08-.39-.39-.39a1.07,1.07,0,0,0-.41.09l-.09-.19a1.56,1.56,0,0,1,.58-.11c.5,0,.71.23.71.61v.73a1.63,1.63,0,0,0,0,.39Zm.27-2.4L11.94,8h-.26l.39-.48Z"/><path class="cls-2" d="M14,8.25l.33,1,.1.36h0l.11-.35.29-1h.39l-.4,1.09a2.63,2.63,0,0,1-.62,1.09,1.12,1.12,0,0,1-.44.26l-.15-.23a1.09,1.09,0,0,0,.35-.21A1.17,1.17,0,0,0,14.2,10a.15.15,0,0,0,0-.08.13.13,0,0,0,0-.06l-.62-1.57Z"/><path class="cls-2" d="M16.27,8.69c0-.2,0-.3,0-.44h.34l0,.21h0a.69.69,0,0,1,.56-.24.55.55,0,0,1,.52.26h0A.63.63,0,0,1,18,8.29a.78.78,0,0,1,.35-.07.54.54,0,0,1,.59.6V10H18.5V8.88c0-.22-.05-.43-.35-.43a.37.37,0,0,0-.36.25.78.78,0,0,0,0,.16V10h-.39V8.83c0-.19-.05-.38-.34-.38a.37.37,0,0,0-.37.27.76.76,0,0,0,0,.15V10h-.39Z"/><path class="cls-2" d="M20.31,9.07h0c-.2,0-.68,0-.68.39a.28.28,0,0,0,.3.3.35.35,0,0,0,.37-.25.34.34,0,0,0,0-.1Zm.06.88,0-.18h0a.65.65,0,0,1-.5.21.52.52,0,0,1-.58-.49c0-.42.49-.61,1.05-.62v0c0-.23-.08-.39-.39-.39a1,1,0,0,0-.41.09l-.09-.19A1.48,1.48,0,0,1,20,8.22c.49,0,.71.23.71.61v.73a1.63,1.63,0,0,0,0,.39Z"/><path class="cls-2" d="M21.2,8.69c0-.2,0-.3,0-.44h.34l0,.21h0a.69.69,0,0,1,.56-.24.54.54,0,0,1,.52.26h0a.72.72,0,0,1,.24-.19.78.78,0,0,1,.35-.07.54.54,0,0,1,.59.6V10h-.39V8.88c0-.22,0-.43-.35-.43a.38.38,0,0,0-.36.25.81.81,0,0,0,0,.16V10h-.39V8.83c0-.19-.05-.38-.35-.38a.37.37,0,0,0-.37.27.76.76,0,0,0,0,.15V10H21.2Z"/><path class="cls-2" d="M25.24,9.07h0c-.2,0-.68,0-.68.39a.29.29,0,0,0,.3.3.34.34,0,0,0,.37-.25.34.34,0,0,0,0-.1Zm.06.88h0l0-.18h0a.62.62,0,0,1-.49.21.53.53,0,0,1-.59-.49c0-.42.5-.61,1.05-.62v0c0-.23-.08-.39-.39-.39a1.07,1.07,0,0,0-.41.09l-.09-.19a1.52,1.52,0,0,1,.58-.11c.5,0,.71.23.71.61v.73a1.63,1.63,0,0,0,0,.39Zm.27-2.4L25,8h-.26l.39-.48Z"/><path class="cls-2" d="M25.38,14.67s.09-2.23,2-2.35a6,6,0,0,1,2.79.32l-.25,7.54-.69,1.9a6.47,6.47,0,0,0-.1-2.38c-.32-.69.1,1-.28,2.18s-.93.93-.93.93a2.55,2.55,0,0,0-.14-1.72c-.42-.92-2.4-6.42-2.4-6.42"/></svg>