<svg id="Capa_1" data-name="Capa 1" xmlns="http://www.w3.org/2000/svg" viewBox="0 0 33.28 28.62"><defs><style>.cls-1{fill:#0070a2;}.cls-2{fill:#f05050;}.cls-3{fill:#fbcabb;}.cls-4{fill:#b3d335;}.cls-5,.cls-6{fill:#231f20;}.cls-6{fill-rule:evenodd;}</style></defs><title>3-12meses</title><polygon class="cls-1" points="14.84 19.48 19.16 19.67 19.04 23.66 16.5 24.92 14.75 24.28 14.84 19.48"/><path class="cls-2" d="M12.87,20v3.9l3.09,1V20.62s-2.73-.94-3.09-.65"/><path class="cls-3" d="M0,14.1v7.55a13.57,13.57,0,0,1,2.13,1.62,8.33,8.33,0,0,0,2.5,2.05,2.39,2.39,0,0,0,1.2.2l.64-.26a9.92,9.92,0,0,0,2.29-.16,5.77,5.77,0,0,1,.72-.34s2,.32,2.08,0-.51-.66-.51-.66.73.16.6-.07-.25-.5-.25-.5.54.18.54-.19-.45-.65-.45-.65l-.28-.2s1.53.49,1.55.29A2.27,2.27,0,0,0,12,21.74c-.29-.15-2-1.11-2.37-1.38l-1-.75.11-.31s3-.12,3.39-.67.53-.7.16-.7-2.37.27-2.37.27A3.83,3.83,0,0,0,8,17.86a5.81,5.81,0,0,1-2,.26,24.3,24.3,0,0,1-3.9-2.36C1.23,15.06,0,14.1,0,14.1"/><polygon class="cls-4" points="12.87 19.77 14.93 20.44 16.15 20.77 19.04 19.89 16.12 18.97 12.87 19.77"/><path class="cls-3" d="M23.84,23.07a2.3,2.3,0,0,1-.55.34,11,11,0,0,1-3.19,0l-3-1.23s-.45-.95-.52-1.06-.15-.44-.36-.43-.21.63-.21.63l-.11.36a7.69,7.69,0,0,0-1.35-.4c-.09.06,0,.32,0,.32l.58.51a4.17,4.17,0,0,0-1.1-.17c-.13.08.23.55.47.62s-.07.15-.07.15-.62,0-.49.25.67.21.72.21-.58.42-.26.53a14.43,14.43,0,0,0,2,.06l.62.35a6.61,6.61,0,0,0,2.3,1.06c.65-.06.93-.11.93-.11l2.52.57a14.1,14.1,0,0,0-.38,1.7,7.55,7.55,0,0,0,.29,1.14h8.5A9.56,9.56,0,0,0,30,25.66c-.68-.92-1-2-1.58-2.4s-1.5-1.47-1.3-2,1-2.3.36-2.94a27.41,27.41,0,0,0-4.62-2.23,15.83,15.83,0,0,0-2,.87,1.33,1.33,0,0,0-.24,1.54c.37.66.59,1,.43,1.19s-.79.46-.63.62a2.24,2.24,0,0,0,.52.31s-.23.16-.18.33.53.18.53.18l.41,0s-.11.36-.35.36-.45,0-.33.13a.67.67,0,0,0,.32.17s-.23.17-.06.35a2.76,2.76,0,0,0,1.4.35c.52,0,1.59.06,1.59.06s.32.08.14.35-.12.21-.12.21Z"/><path class="cls-5" d="M18.1,22.4h0l-.43-.14a1.88,1.88,0,0,1-.38-.14.54.54,0,0,1-.24-.2,2.6,2.6,0,0,1-.25-.61,2.5,2.5,0,0,0-.32-.6l.22,0c.26-.05.51-.1.75-.17A6.72,6.72,0,0,0,18.81,20c0,.45,0,.91.08,1.36s.07.94.13,1.4l-.5-.19Zm-2.18-1.33h0a1.47,1.47,0,0,1-.05.55l-.61-.22-.37-.11-.2,0-.11,0a.24.24,0,0,0-.18.05c-.06.1,0,.14,0,.19a1.13,1.13,0,0,0,.1.13l.23.23.15.13-.22-.07a1.83,1.83,0,0,0-.43-.08.93.93,0,0,0-.27,0,.29.29,0,0,0-.18.2.16.16,0,0,0,0,.07.2.2,0,0,0,0,.11.93.93,0,0,0,.13.15,1.35,1.35,0,0,0,.33.19l-.27,0a.84.84,0,0,0-.23.09.24.24,0,0,0-.15.22h0v0h0v0a.63.63,0,0,0,.11.12,1,1,0,0,0,.21.09,1.3,1.3,0,0,0,.33.07.7.7,0,0,0-.16.14.22.22,0,0,0,0,.21.3.3,0,0,0,.14.17.72.72,0,0,0,.18.09l.19.05A2.19,2.19,0,0,0,15,24l.33,0,.23,0,.9.13c.22.17.44.33.68.49h0l-.72.23-.82-.24-.87-.25c-.53-.15-1.07-.29-1.6-.42,0-.65-.1-1.3-.13-1.95,0-.34,0-.68,0-1s0-.65,0-1q1.52-.36,3-.75c.89.27,1.79.52,2.7.77a8,8,0,0,0-1.49.21c-.25.06-.48.14-.72.22a5.4,5.4,0,0,0-.67.25,4.15,4.15,0,0,1-.63-.16c-.22-.08-.42-.19-.64-.27a5,5,0,0,0-.69-.18,4.41,4.41,0,0,0-.74-.08s0,0,0,0,0,0,0,0a2.73,2.73,0,0,0,.62.3,4.38,4.38,0,0,0,.67.21l.73.1a2.93,2.93,0,0,1,.67.22H16A.74.74,0,0,0,15.92,21.07Zm-1.8,1.85Zm-2.31.27h0a.21.21,0,0,0,0,.06s0,.07,0,.1a.28.28,0,0,1,0,.18.21.21,0,0,1-.14.07,1.6,1.6,0,0,0-.26-.26,3,3,0,0,0-.95-.41,18.13,18.13,0,0,0-2-.37,4.94,4.94,0,0,1-.9-.22A8.09,8.09,0,0,1,6.71,22c-.34-.16-.68-.33-1-.52l.73.1A8.67,8.67,0,0,0,8,21.64a4.8,4.8,0,0,0,.75-.09l.16,0-.07.07h0l1.93.94.46.25a3.52,3.52,0,0,1,.43.27A.79.79,0,0,1,11.81,23.19Zm19,3.92a14,14,0,0,0-.61-1.45,10,10,0,0,0-1.86-2.76,7.89,7.89,0,0,0-.66-.62l-.16-.15a.64.64,0,0,1-.1-.13.46.46,0,0,1-.1-.29.42.42,0,0,1,.07-.25c.65-.65,2.65-.34,3-2.43S28.23,15.56,27,15.34a8.29,8.29,0,0,0-4.29.29h0a3.35,3.35,0,0,0-.38.14l-.21.08a2.56,2.56,0,0,0-1.82,2.54l.28-.64a1.42,1.42,0,0,0,0,.46,3.94,3.94,0,0,0,.32.73l.18.36c0,.11.09.23,0,.33a1.36,1.36,0,0,1-.33.27l-.18.16a.2.2,0,0,0-.06.22c.09.15.27.21.39.3l.05,0-.05.05a.51.51,0,0,0-.12.2.18.18,0,0,0,.13.22.43.43,0,0,0,.14,0l.16,0a2.81,2.81,0,0,0,.41,0,.52.52,0,0,1-.1.11.27.27,0,0,1-.23.08.45.45,0,0,0-.24.07.12.12,0,0,0,0,.19.28.28,0,0,0,.16.1l0,0h0v0c0,.06-.06.16,0,.26a.44.44,0,0,0,.26.24,2.79,2.79,0,0,0,.35.11l.37.07a11.82,11.82,0,0,0,1.46.13h.79a.08.08,0,0,1,0,.06.35.35,0,0,1,0,.2h0s0,.07,0,.1a.9.9,0,0,0-.16,0,3,3,0,0,0-.43.11c-.12,0-.27.09-.4.11a5.09,5.09,0,0,1-.81.12,7.87,7.87,0,0,1-.84,0c-.28,0-.57,0-.85,0s-.55-.06-.8-.11l-1-.42c.06-.47.1-.95.14-1.43s.05-1,.08-1.51c0-.07-.05-.13-.15-.16h0c-1-.3-2-.58-3-.85h0a.54.54,0,0,0-.18,0c-1,.31-2.07.62-3.09.95h0a.08.08,0,0,0-.07.08c0,.34,0,.68.05,1s0,.68,0,1l-.06.72h0a1.18,1.18,0,0,0-.22-.45,3.35,3.35,0,0,0-.8-.74l-.52-.3c-.18-.09-.35-.16-.51-.25-.66-.36-1.28-.78-1.94-1.18l0,0a6.77,6.77,0,0,0,.77.74,7.16,7.16,0,0,0,.92.65c.18.1.36.2.54.28l.5.26a3.45,3.45,0,0,1,.9.6.93.93,0,0,1,.24.38s0,.07,0,.11,0,0,0,0h0a.9.9,0,0,1-.26,0,5.94,5.94,0,0,1-1.11-.43l-.93-.45-.19-.11-.83-.4a.27.27,0,0,0,.12-.09.12.12,0,0,0,0-.17l0,0,0,0h0L9.23,21a1.48,1.48,0,0,0-.35-.13l-.7-.18a4.64,4.64,0,0,1-.66-.22l.34-.07a2.17,2.17,0,0,0,.51-.24,1.08,1.08,0,0,0,.34-.37.94.94,0,0,0,.07-.22s0-.07,0-.1l1.1-.08c.42-.05.83-.09,1.27-.18a4.31,4.31,0,0,0,1.17-.45,1.6,1.6,0,0,0,.46-.4.44.44,0,0,0,.08-.31.3.3,0,0,0,0-.09v0h0c0-.05,0,0,0-.05a.46.46,0,0,0-.29-.13,2.71,2.71,0,0,0-.73,0l-.62.1A8.33,8.33,0,0,1,10,18a1.1,1.1,0,0,1-.26,0,.44.44,0,0,1-.2-.07,1.79,1.79,0,0,0-.67-.17,6,6,0,0,0-1.28.07c-.42,0-.83.13-1.23.21a.47.47,0,0,1-.26,0L5.8,18l-.49-.25c-.62-.37-1.18-.8-1.76-1.21L1.79,15.31C1.2,14.91.61,14.5,0,14.1l0,0c.49.47,1,.91,1.56,1.35s1.11.87,1.71,1.27a17.22,17.22,0,0,0,1.94,1.11l.55.23a1.32,1.32,0,0,0,.3.09.72.72,0,0,0,.36,0c.39-.08.8-.14,1.21-.19A6.11,6.11,0,0,1,8.8,18a1,1,0,0,1,.47.15l.07,0,.07,0a.56.56,0,0,0,.2.06,1.47,1.47,0,0,0,.36,0,7.56,7.56,0,0,0,1.29-.11l.61-.09a3,3,0,0,1,.48,0s0,0,0,0a.22.22,0,0,1,0,.1,1,1,0,0,1-.33.27,3.67,3.67,0,0,1-1,.4c-.36.08-.77.16-1.17.21l-1.22.15-.2,0,0,.12a.46.46,0,0,1,0,.17.57.57,0,0,1,0,.18A.74.74,0,0,1,8.2,20a1.69,1.69,0,0,1-.41.26,2.29,2.29,0,0,1-.37.12l-.52-.23a4.86,4.86,0,0,1-.54-.33l-.53-.37a3.59,3.59,0,0,0-.65-.33,2.91,2.91,0,0,0-.8-.16,2.59,2.59,0,0,0-.84.11,1.87,1.87,0,0,0-.52.23c-.49-.33-1-.65-1.49-1s-1.1-.7-1.66-1l0,0c.49.39,1,.77,1.5,1.15s1,.75,1.53,1.12l.15.1.15-.11a1.73,1.73,0,0,1,.55-.24,1.67,1.67,0,0,1,.63-.06,2.2,2.2,0,0,1,.63.12,3.22,3.22,0,0,1,.56.27l.56.35.62.32a7.26,7.26,0,0,0,1.39.44l.72.15a2.39,2.39,0,0,1,.32.11c.09,0,.15.11.12.15l-.1.07H9.11l-.06.07a2.49,2.49,0,0,1-.37.09,5.82,5.82,0,0,1-.73.08,5.93,5.93,0,0,1-.73,0l-.73-.1c-.48-.08-1-.17-1.42-.29L4.35,21l.54.38a11.9,11.9,0,0,0,1.56.93,8.1,8.1,0,0,0,.9.38,3.51,3.51,0,0,0,.49.15l.51.11c.66.12,1.33.21,1.92.38a2.59,2.59,0,0,1,.77.32.88.88,0,0,1,.24.23l0,.06-1.19-.12c-.52,0-1-.08-1.58-.08l-.78,0H7c-.52,0-1-.05-1.55-.1v0c.5.1,1,.17,1.54.23l.79.05c.26,0,.51,0,.77,0,.85.06,1.7.15,2.54.27l.08.06a1,1,0,0,1,.21.2c.06.08.07.16,0,.2h0l-.06,0h-.36l-.63,0L8.87,24.6l-.72,0c-.13,0-.24,0-.39,0l-.16,0H7.48c-.41,0-.82-.11-1.17-.17l-.85-.14-.32-.06s.41.18,1.07.39c.17,0,.35.11.55.15a5.27,5.27,0,0,0,.65.14h.71l.71,0h0l-.74.1a6.49,6.49,0,0,1-.86.07h-.2l-.21,0L6.41,25l-.77-.14-.78-.12a4.63,4.63,0,0,0,.67.31,6.07,6.07,0,0,0,.75.24l0,0a1.39,1.39,0,0,1-.69.12,1.76,1.76,0,0,1-.38-.06l-.19-.06-.18-.07-.37-.15L4.15,25a3.18,3.18,0,0,1-.67-.42,6.45,6.45,0,0,1-.9-1.08l-.44-.56c-.16-.18-.32-.36-.49-.53l0,0,0,0a16.09,16.09,0,0,0-1.5-.66l0,0a10.14,10.14,0,0,0,1.17.87c.14.18.28.36.44.53l.51.53c.34.36.8.66,1.18,1,.2.16.38.33.58.5a2.36,2.36,0,0,0,.73.44l.23.07.23.06a2.33,2.33,0,0,0,.53,0,1.07,1.07,0,0,0,.76-.35l.31.07.25,0,.27,0a4.68,4.68,0,0,0,1-.12c.29-.07.55-.14.76-.21L9.41,25l.84,0c.23,0,.45,0,.67,0l.32,0,.18-.05.06,0h0c.05,0,0,0,.05,0a.21.21,0,0,0,.09-.23.4.4,0,0,0-.13-.18,1.43,1.43,0,0,0-.26-.15l.31,0,.34.05,0-.23,0-.2-.09-.2,0,0a.26.26,0,0,0,.2-.08.37.37,0,0,0,.13-.21s0-.07,0-.11,0-.09,0-.13a1.56,1.56,0,0,0-.16-.2l-.3-.25c.23.07.46.14.71.19a.88.88,0,0,0,.37,0,.17.17,0,0,0,.1-.07c0,.39-.06.77-.07,1.16a.18.18,0,0,0,.15.14c.59.15,1.18.3,1.77.43l.89.2.9.19h0a.08.08,0,0,0,.08,0l.72-.34A4.7,4.7,0,0,0,18,25a2.45,2.45,0,0,0,.5.17l.26.07.28.05.57.05.3,0a1.89,1.89,0,0,0,.23-.05c.46.12.91.22,1.38.3s.77.12,1.15.16a1.7,1.7,0,0,0-.29.35,2,2,0,0,0-.21.46,1.93,1.93,0,0,0,0,1.1,2.31,2.31,0,0,0,.18.47,2.35,2.35,0,0,0,.21.31l.1.11v-.13c0-.08,0-.2,0-.33a7.51,7.51,0,0,1,0-1c0-.18,0-.35,0-.51s0-.32.05-.46,0-.32.06-.39l.34,0a12.85,12.85,0,0,0,3.1-.09l0,0s0,0,0,0a13.4,13.4,0,0,1-3-.08c-.51-.06-1-.15-1.48-.25s-1-.22-1.42-.36L20,25l-.13,0h-.21a3.62,3.62,0,0,1-.46-.06L19,24.88a1.4,1.4,0,0,1-.24-.06,3,3,0,0,1-.42-.15,4.55,4.55,0,0,1-.79-.41,7.67,7.67,0,0,1-.69-.5h0a.34.34,0,0,0-.16-.07l-1.05-.14a.29.29,0,0,0-.13,0l-.25,0a2.13,2.13,0,0,1-.25,0l-.22,0h-.08s0,0,0,0l.1-.07a2.2,2.2,0,0,1,.45-.17h0c.09,0,.15-.09.15-.16A.22.22,0,0,0,15.1,23c-.21,0-.43,0-.64,0l-.27-.05,0,0h0a1.19,1.19,0,0,1,.29,0,4.52,4.52,0,0,1,.64,0h0a.22.22,0,0,0,.2-.1c0-.07,0-.15-.13-.17a4.87,4.87,0,0,1-.68-.2,1.36,1.36,0,0,1-.27-.15.3.3,0,0,1-.08-.08l0,0s0,0,0-.06,0,0,0,0,0,0,0,0h.11a1.42,1.42,0,0,1,.34,0,4.26,4.26,0,0,1,.69.22h0a.17.17,0,0,0,.14,0,.06.06,0,0,0,0-.11c-.18-.13-.35-.27-.52-.41l-.23-.22-.09-.11a.11.11,0,0,1,0-.07h.08l.19,0,.36.1a5.3,5.3,0,0,1,.7.26h0a.09.09,0,0,0,.09-.05,1.48,1.48,0,0,0,.1-.66.57.57,0,0,1,0-.29h0l.09,0,0,0a2,2,0,0,1,.26.6,3,3,0,0,0,.2.65.9.9,0,0,0,.33.31,2.69,2.69,0,0,0,.43.19l.42.15.41.15c.54.21,1.07.44,1.61.66h0l0,0c.31.05.6.08.9.1s.6,0,.9,0,.6,0,.9-.05a5.28,5.28,0,0,0,.88-.18,3.24,3.24,0,0,0,.41-.13c.13,0,.25-.09.38-.12a3.6,3.6,0,0,1,.81-.11,4,4,0,0,1,1.63.29h0s0,0,0,0a3.68,3.68,0,0,0-1.66-.43,3.85,3.85,0,0,0-.48,0h0a.7.7,0,0,0,0-.29.37.37,0,0,0-.11-.17.26.26,0,0,0-.14-.06.37.37,0,0,0-.14,0h-.72a11.32,11.32,0,0,1-1.43-.09,2,2,0,0,1-.34-.06,1.4,1.4,0,0,1-.31-.09.34.34,0,0,1-.18-.14c0-.06,0-.13,0-.23a.19.19,0,0,0,0-.1l-.06,0h0l-.11-.06s0-.07.1-.07a.6.6,0,0,0,.22,0,.44.44,0,0,0,.16-.1.84.84,0,0,0,.18-.24v0s-.06-.05-.11-.05h0a2.27,2.27,0,0,1-.52,0h-.11L21,21s-.06,0,0-.11a.49.49,0,0,1,.09-.15s0,0,.08-.1-.08-.1-.11-.13a1.32,1.32,0,0,1-.35-.24c0-.08.09-.19.21-.28a1.28,1.28,0,0,0,.36-.3.45.45,0,0,0,0-.41c-.05-.12-.11-.24-.17-.36a3.59,3.59,0,0,1-.3-.71,1.36,1.36,0,0,1,.12-.71,1.51,1.51,0,0,1,.15-.28l.67,1.31.08-1.24.41.78-.13-1,.78,1.14.38.68-.08-1.15.53,1.09,0-.81.72,1,.49.59-.05-.57.5.68-.05-.63c0-.5,0-.3,0-.3a1.08,1.08,0,0,0,.2.65c0,.41-.49.83-.49.83l.46-.27v0h0l-.18.38c.56-.33.67-.44,1.16-.4h0l0,0v.05a.4.4,0,0,1,0,.22,1.23,1.23,0,0,1-.71.77,1.32,1.32,0,0,1-.43.09l-.18,0,0,0,.19,0a1.2,1.2,0,0,0,.52,0,1.28,1.28,0,0,0,.31-.11,2,2,0,0,0,.29-.18,1.52,1.52,0,0,0,.43-.52.76.76,0,0,0,.06-.26.51.51,0,0,1,.22.56l-.21.57a.8.8,0,0,0-.13.42.79.79,0,0,0,.16.44,1.46,1.46,0,0,0,.16.19l.18.16a7.26,7.26,0,0,1,.65.58,10.84,10.84,0,0,1,2,2.65c.26.47.49.94.71,1.42a8,8,0,0,1,.52,1.46s0,0,0,0a0,0,0,0,0,0,0A7.92,7.92,0,0,0,30.85,27.11Z"/><polygon class="cls-5" points="20.24 18.41 20.24 18.4 20.2 18.48 20.24 18.41"/><path class="cls-5" d="M21.71,18.56c-.56-.06-.5.35-.5.35a.82.82,0,0,1,.93-.11,9.39,9.39,0,0,0,1.15.42,5.78,5.78,0,0,0-1.58-.66"/><path class="cls-5" d="M21.89,19.11c-.34,0-.27.16-.27.16s.15,0,.15,0a.33.33,0,0,0,.33.29c.3,0,.12-.26.12-.26l.52.12a3.33,3.33,0,0,0-.85-.28"/><path class="cls-5" d="M4.21,2.2h0c0,.48.14,1,.57,1s.57-.52.57-1-.12-1-.57-1-.57.5-.57,1m1.55,0c0,.89-.45,1.23-1,1.23s-1-.42-1-1.22S4.21,1,4.81,1,5.76,1.42,5.76,2.18Z"/><path class="cls-5" d="M6.27,3.38V1.89H6V1.68h.31v-.1a.6.6,0,0,1,.22-.51A.88.88,0,0,1,7,.92,1.23,1.23,0,0,1,7.3,1l-.07.22a.57.57,0,0,0-.22,0c-.28,0-.34.2-.34.43v.1h.45v.21H6.67V3.38Z"/><path class="cls-5" d="M7.3,2.12c0-.14,0-.31,0-.44h.35l0,.27h0a.63.63,0,0,1,.53-.3h.08v.27H8.19a.47.47,0,0,0-.48.35.81.81,0,0,0,0,.16v.94H7.3Z"/><path class="cls-5" d="M9.51,2.35h0c0-.34-.18-.49-.37-.49s-.39.26-.41.49Zm-.78.2c0,.52.3.64.59.64a1.12,1.12,0,0,0,.41-.07l.06.2a1.75,1.75,0,0,1-.54.08.8.8,0,0,1-.91-.85.82.82,0,0,1,.84-.9.68.68,0,0,1,.71.75.62.62,0,0,1,0,.15Z"/><path class="cls-5" d="M11.47,3.34a1.37,1.37,0,0,1-.41.06.81.81,0,0,1-.91-.86.89.89,0,0,1,1-.88,1.08,1.08,0,0,1,.35.05l-.08.22a.77.77,0,0,0-.28-.05.59.59,0,0,0-.57.66.56.56,0,0,0,.58.64.93.93,0,0,0,.29-.05Z"/><path class="cls-5" d="M12.78,2.35h0c0-.34-.18-.49-.37-.49s-.39.26-.41.49Zm-.78.2c0,.52.3.64.59.64A1.12,1.12,0,0,0,13,3.12l.06.2a1.75,1.75,0,0,1-.54.08.8.8,0,0,1-.91-.85.82.82,0,0,1,.84-.9.68.68,0,0,1,.71.75.62.62,0,0,1,0,.15Z"/><path class="cls-5" d="M15.77,2.92c0,.19,0,.33,0,.46h-.35l0-.18h0a.74.74,0,0,1-.54.21c-.43,0-.6-.23-.6-.66V1.68h.39v1c0,.26.07.46.34.46a.35.35,0,0,0,.37-.38V1.68h.4Z"/><path class="cls-5" d="M16.27,2.12c0-.2,0-.3,0-.44h.34l0,.2h0a.74.74,0,0,1,.57-.23.54.54,0,0,1,.6.59V3.38h-.4V2.28c0-.2-.05-.4-.34-.4a.38.38,0,0,0-.37.28.61.61,0,0,0,0,.15V3.38h-.39Z"/><path class="cls-5" d="M18.62,3.87h0A.58.58,0,0,0,19,3.73c.09-.09.12-.21.12-.54V1.68h.39V3.27c0,.36-.07.52-.25.65a1,1,0,0,1-.54.16Zm.88-2.63c0,.11-.09.18-.24.18S19,1.35,19,1.24s.1-.17.24-.17S19.5,1.14,19.5,1.24Z"/><path class="cls-5" d="M21.43,2.92c0,.19,0,.33,0,.46h-.35l0-.18h0a.74.74,0,0,1-.54.21c-.43,0-.6-.23-.6-.66V1.68h.39v1c0,.26.07.46.34.46A.35.35,0,0,0,21,2.8V1.68h.39Z"/><path class="cls-5" d="M23,2.27h0a.27.27,0,0,0,0-.13.37.37,0,0,0-.36-.26c-.28,0-.44.27-.44.64s.2.63.44.63A.36.36,0,0,0,23,2.91a.39.39,0,0,0,0-.15Zm.41-.59c0,.12,0,.27,0,.53v1c0,.45-.08.62-.25.74a1.1,1.1,0,0,1-.66.18A1.62,1.62,0,0,1,22,4l.09-.21a1.59,1.59,0,0,0,.46.07c.32,0,.51-.13.51-.52V3.17h0a.58.58,0,0,1-.48.21.74.74,0,0,1-.72-.84.79.79,0,0,1,.78-.89.53.53,0,0,1,.46.22h0l0-.19Z"/><path class="cls-5" d="M25.41,2.92c0,.19,0,.33,0,.46h-.34l0-.18h0a.69.69,0,0,1-.53.21c-.44,0-.6-.23-.6-.66V1.68h.39v1c0,.26.06.46.33.46A.36.36,0,0,0,25,3a.61.61,0,0,0,0-.15V1.68h.39Z"/><path class="cls-5" d="M27,2.35h0c0-.34-.18-.49-.37-.49s-.39.26-.41.49Zm-.78.2c0,.52.3.64.59.64a1.12,1.12,0,0,0,.41-.07l.06.2a1.77,1.77,0,0,1-.55.08.8.8,0,0,1-.9-.85.82.82,0,0,1,.84-.9.68.68,0,0,1,.7.75v.15Z"/><path class="cls-5" d="M28.2,1.23v.45h.47v.21H28.2v1c0,.22.12.28.26.28h.16v.2a1.07,1.07,0,0,1-.29,0A.69.69,0,0,1,28,3.3a.51.51,0,0,1-.15-.43v-1h-.3V1.68h.3V1.31Z"/><path class="cls-5" d="M30,2.35h0c0-.34-.17-.49-.36-.49s-.39.26-.41.49Zm-.77.2c0,.52.3.64.59.64a1.06,1.06,0,0,0,.4-.07l.07.2a1.77,1.77,0,0,1-.55.08.8.8,0,0,1-.9-.85.82.82,0,0,1,.84-.9.68.68,0,0,1,.7.75v.15Z"/><path class="cls-5" d="M28.39,16.76s3.54-.57,3.71.24a41.46,41.46,0,0,1-.27,5.27s-.38.44-.84-.9.17-3-.72-3.51-2.74-.77-1.88-1.1"/><path class="cls-6" d="M31.64,16.32c.41.49,0,6.06,0,6.06a2.41,2.41,0,0,1-.74-1.53c0-.85.42-2.94-.63-3.34Z"/></svg>