<svg id="Capa_1" data-name="Capa 1" xmlns="http://www.w3.org/2000/svg" viewBox="0 0 30.08 27.51"><defs><style>.cls-1{fill:#0070a2;}.cls-2{fill:#f5a4c7;}.cls-3{fill:#fbcabb;}.cls-4{fill:#231f20;}</style></defs><title>4-12meses</title><path class="cls-1" d="M13.43,24.27a7.33,7.33,0,0,0,2.82-.67c.89-.58.87-1.28,1.79-1.12s2.8.89,2.47,1.79-2.78,1.77-3.76,2.1-1.32.63-2.13.38-1.19-2.48-1.19-2.48"/><path class="cls-2" d="M8.15,22.12a20.56,20.56,0,0,0-4.25-.95c-1.18,0-3.45.69-3.38,1.63s-.19,3.35,1.61,3.86,5.41-.82,5.41-.82Z"/><path class="cls-3" d="M6.15,23.08,7.48,23s-.22-.3-1.12-.3-4.43-.45-4.43-.45l-1.27.13a7.58,7.58,0,0,1,1.08-2.68C2.62,18.32,4,16.56,5,16.12s1.72-.67,1.75-1.1-.08-1.53.7-2a29.09,29.09,0,0,1,5.73-1.43c.27.06,1.85,1.35,1.74,1.71a3.08,3.08,0,0,1-1.23,1.28c-.42.17-.81.57-.72.8s.27.55,0,.65a2.93,2.93,0,0,1-.41.14s-.08.28-.31.3a2.05,2.05,0,0,1-.43,0s.29.21.19.32a1.39,1.39,0,0,1-.52.18.2.2,0,0,1-.11.31,1.17,1.17,0,0,1-.9.12c-.37-.12-1.74-.47-1.74-.47l-.52-.17-.1.33a3.07,3.07,0,0,1,.84.39,16.12,16.12,0,0,1,1.75,1.4,6.33,6.33,0,0,0,1.66,1.47c.27.06.7,0,1.27.05a9.22,9.22,0,0,1,2.36.79,5.59,5.59,0,0,0,1.9.57,2.62,2.62,0,0,1,.77.26.84.84,0,0,1,.58,0,.56.56,0,0,1,.3.42s0,.51,0,.51a3.83,3.83,0,0,0-1.32-.38c-.39.05-1,.18-1.18.43s-.26.25-.26.25l-1.12.58s-.61-.25-1.23-.56-1.94-.63-2.47-.84-2-1-2.44-1.12-.25,0-.25,0L9,22.88s2.47-.53,2.8-.26A19.93,19.93,0,0,0,15,24.34c.3,0-.08.34.34.66s.91.63.91.63-.7.94-1,1a25.89,25.89,0,0,1-4-.4,5,5,0,0,1-1.07-.53s-1.89.89-2.53,1.08a12.45,12.45,0,0,1-3.45,0,7.09,7.09,0,0,1-1.83-1.25s.33-1.46,1.22-1.86a5.47,5.47,0,0,1,2.59-.57"/><polygon class="cls-4" points="14.53 14.52 14.55 14.43 14.54 14.44 14.53 14.52"/><path class="cls-4" d="M13.12,14.81s.31-.33-.21-.44a7,7,0,0,0-1.77.11,9.8,9.8,0,0,0,1.24,0c.66-.06.74.36.74.36"/><path class="cls-4" d="M12.55,15s.18-.15-.13-.21a3.89,3.89,0,0,0-.91,0l.52.05s-.3.16,0,.26.46-.16.46-.16.12,0,.11.07"/><path class="cls-4" d="M12.16,16c.23.06.26,0,.14-.07s-.14,0-.22,0,0-.18,0-.18c-.16,0-.17.21.06.27"/><path class="cls-4" d="M19.6,24.89h0a5.25,5.25,0,0,1-1,.58c-.78.35-1.46.69-2.09.91a6,6,0,0,1-.89.24h0a2.28,2.28,0,0,0,.45-.2,1.49,1.49,0,0,0,.43-.39,1.52,1.52,0,0,0,.21-.45c0-.08,0-.14.06-.23l0-.22a2.11,2.11,0,0,0,0-.25,1.59,1.59,0,0,0,.4-.16.79.79,0,0,0,.3-.27.63.63,0,0,1,.26-.3h0L18,24h0l.07,0c.07,0,.1-.1.07-.16a.24.24,0,0,0-.26-.09l-.07,0a2.84,2.84,0,0,0-.68.2,1.77,1.77,0,0,0-.55.37h0s0,0,0,0a2.33,2.33,0,0,0,.54,0h0a.74.74,0,0,0-.36.24.8.8,0,0,0-.13.19.26.26,0,0,0,0-.08.83.83,0,0,0-.5-.42,1.68,1.68,0,0,0-.77,0l-.18,0a.2.2,0,0,0-.08,0,1.18,1.18,0,0,1-.25-.1l-.11-.05a3.72,3.72,0,0,0,.46-.07c.21,0,.47-.1.75-.18a4.62,4.62,0,0,0,.92-.35l.22-.16a.68.68,0,0,0,.19-.19,1.43,1.43,0,0,1,.32-.28.93.93,0,0,1,.46-.15,2.09,2.09,0,0,1,.6,0,3.52,3.52,0,0,1,1.21.45,1,1,0,0,1,.37.39.66.66,0,0,1,0,.46,1.86,1.86,0,0,1-.66.81m-4.2-.42h0a0,0,0,0,0,0,0h.06a.94.94,0,0,1,.45,0,.39.39,0,0,1,.23.24.82.82,0,0,1,0,.35l0,.22,0,.17a.86.86,0,0,1-.36-.17,1.29,1.29,0,0,1-.17-.16L15.45,25a.73.73,0,0,0,0-.09l-.05-.1a.64.64,0,0,1-.06-.18.12.12,0,0,1,0-.12h.08ZM13.48,26.4h0l-1.24-.1a6,6,0,0,1-.61-.08,5.43,5.43,0,0,1-.58-.13,2,2,0,0,1-.52-.21.83.83,0,0,1-.33-.31.1.1,0,0,0,0,0,.13.13,0,0,0-.16,0h0a2.15,2.15,0,0,1-.49.36l-.29.15c-.09.05-.21.08-.31.13l-.32.12-.33.1c-.22.06-.45.12-.68.16l-.36.07-.36.05-.74.07-.75,0H4.82a.17.17,0,0,0-.14-.13h0a3.82,3.82,0,0,1-1.81-.91.57.57,0,0,1-.16-.32.63.63,0,0,1,0-.35,2.86,2.86,0,0,1,.4-.75,2.34,2.34,0,0,1,.66-.63,3.26,3.26,0,0,1,1-.4l.19,0c.32,0,.8,0,1.39-.06.27,0,.56,0,.86-.08l1-.15c.33-.06.67-.1,1-.13s.71,0,1.07,0,.73,0,1,0a3,3,0,0,1,.83.27c.27.12.52.26.77.38l.7.35a5.83,5.83,0,0,0,1.17.44l.24,0,0,0a.32.32,0,0,0,0,.29.94.94,0,0,0,.12.22l.07.1.08.1a1.16,1.16,0,0,0,.2.18,1.88,1.88,0,0,0,.23.16,1.13,1.13,0,0,0,.46.14,1.33,1.33,0,0,1-.15.32,1.18,1.18,0,0,1-.29.3,2.06,2.06,0,0,1-1,.27h-.59C13.9,26.44,13.69,26.41,13.48,26.4ZM1.75,26.26h0a1.54,1.54,0,0,1-.6-.49A2.62,2.62,0,0,1,.8,24.44a10.71,10.71,0,0,1,0-1.39l0-.34c0-.13,0-.17.13-.21a3,3,0,0,1,.89-.08c.65,0,1.31.1,2,.14s1.35.09,2,.13l1,.08.41.06H7.16l-.86.08-.93.15a4.89,4.89,0,0,0-.66.05,4.26,4.26,0,0,0-.62.13,3.34,3.34,0,0,0-.58.23A2.29,2.29,0,0,0,3,23.8a2.16,2.16,0,0,0-.37.37A3.26,3.26,0,0,0,2.2,25a.92.92,0,0,0-.07.49,1,1,0,0,0,.24.47,2.77,2.77,0,0,0,.91.62l-.66-.07A3,3,0,0,1,1.75,26.26Zm16.6-4h0a1.33,1.33,0,0,0-.33-.13,3.07,3.07,0,0,0-.74-.1l-.37,0-.28,0a2.78,2.78,0,0,1-1.15-.77,2.55,2.55,0,0,0-.72-.46,1.36,1.36,0,0,0-.28-.11l.25,0a2.51,2.51,0,0,1,1.23.48,3.52,3.52,0,0,0,.55.38,2.32,2.32,0,0,0,.73.24,2.43,2.43,0,0,0,.71,0,1,1,0,0,1,.35.14,2.79,2.79,0,0,1,.31.24,1.56,1.56,0,0,1,.18.21.73.73,0,0,1,.06.14l-.24-.19A1.67,1.67,0,0,0,18.35,22.25Zm-5.15-1.8h0l.31.08.1,0-.18,0ZM20,23.15a3.47,3.47,0,0,0-.33-.18h0a.5.5,0,0,0,.11-.16.52.52,0,0,0,.07-.22.47.47,0,0,0,0-.3.72.72,0,0,0-.26-.26,1,1,0,0,0-.36-.1.73.73,0,0,0-.36,0,1.77,1.77,0,0,1,.24.15.81.81,0,0,1,.26.3.79.79,0,0,1,0,.09l0,.1.09.21.07.13-.62-.26,0,0a.68.68,0,0,0,0-.19,1,1,0,0,0-.35-.63,1.06,1.06,0,0,0-.65-.29,1.93,1.93,0,0,0-.36,0h-.29a4.26,4.26,0,0,1-1.19-.42c-.22-.11-.46-.17-.67-.26a5.33,5.33,0,0,1-.64-.25c-.21-.08-.41-.16-.61-.22l-.59-.12a7,7,0,0,0-1.09-.1,1.18,1.18,0,0,0-.19-.11,8.56,8.56,0,0,1-1.21-.92c-.37-.33-.71-.68-1.05-1a7.1,7.1,0,0,0-.56-.51,1.78,1.78,0,0,0-.31-.23l-.08-.06-.1-.06-.2-.1a2.86,2.86,0,0,0-.54-.19l0-.06.05,0h0l0,0,.32.11.33.1a10,10,0,0,0,1.36.31l.37.05a2.44,2.44,0,0,0,.38,0,.55.55,0,0,0,.36-.16c.07-.09.07-.19.11-.22S11.9,17,12,17a.27.27,0,0,0,.14-.28.2.2,0,0,0-.09-.1h0a.8.8,0,0,0,.31,0c.1,0,.21-.09.22-.18a.53.53,0,0,0,0-.18h0l.13,0a1.4,1.4,0,0,0,.28-.06c.09,0,.2-.1.2-.18a.71.71,0,0,0-.11-.39c-.06-.12-.1-.23,0-.33a5.4,5.4,0,0,1,.72-.54,2.46,2.46,0,0,0,.71-.6c0-.08.09-.16.13-.24l-.15.65a2,2,0,0,0,0-2.71l-.08-.09a1.81,1.81,0,0,0-.24-.24l-.08-.06A6.53,6.53,0,0,0,10.6,9.86c-1.22-.18-4.22.28-5.23,2.2s.89,2.2,1.08,2.94a.45.45,0,0,1-.09.25.66.66,0,0,1-.28.23l-.18.09-.24.08A5.12,5.12,0,0,0,4,16.7,10.57,10.57,0,0,0,2.71,18a8.64,8.64,0,0,0-.93,1.39A13.36,13.36,0,0,0,.62,22.28a0,0,0,0,0,0,0s0,0,0,0A14.61,14.61,0,0,1,2,19.42a11.18,11.18,0,0,1,1-1.34,13.33,13.33,0,0,1,1.28-1.2A5.07,5.07,0,0,1,5.87,16l.25-.08.27-.12a1.16,1.16,0,0,0,.43-.35A.82.82,0,0,0,7,15l.15-.51A.74.74,0,0,1,7.65,14a.82.82,0,0,0-.1.24,1,1,0,0,0,0,.57,1,1,0,0,0,.14.24,1.19,1.19,0,0,0,.2.19,1.2,1.2,0,0,0,.44.18h.18v0l-.17,0a.88.88,0,0,1-.32-.2A.8.8,0,0,1,8,14.33a.55.55,0,0,1,.14-.19l0,0s0,0,0,0h0c.44.11.47.23.75.68L9,14.38H9v0l.23.37a1.08,1.08,0,0,1,.08-.86,1.59,1.59,0,0,0,.57-.5s.13-.18-.15.26l-.43.54.85-.45-.4.47.79-.36,1.25-.68-.46.71,1.13-.79-.78,1,.75-.48,1.37-.76-.72.81.83-.55-.69,1.1,1.38-.94v.05a1.6,1.6,0,0,1-.25.71,2,2,0,0,1-.65.57,5.9,5.9,0,0,0-.74.58.34.34,0,0,0,0,.41c.05.12.13.24.11.34s-.19.13-.37.16l-.13,0-.08,0a.14.14,0,0,0-.09.08,1.36,1.36,0,0,1,0,.18c0,.09-.2.12-.35.12a.67.67,0,0,1-.4-.17h0a.12.12,0,0,0-.1,0s-.07,0-.06.08a.66.66,0,0,0,.18.24l.16.09h0s0,0,0,0h0s0,0,0,0a.17.17,0,0,1-.09.15l-.11,0a.32.32,0,0,0-.22.06c-.11.1-.08.18-.14.23a.28.28,0,0,1-.22.09,3,3,0,0,1-.66,0,9.55,9.55,0,0,1-1.3-.34l-.32-.1-.3-.12h0l-.09,0a.29.29,0,0,0-.16,0,.46.46,0,0,0-.21.11.83.83,0,0,0-.08.12l-.07,0a4.59,4.59,0,0,0-1,0,4.22,4.22,0,0,0-.9.19,4.39,4.39,0,0,0-.79.35s0,0,0,0,0,0,0,0A6.23,6.23,0,0,1,7,17.1a3.33,3.33,0,0,1,.84.06,3.11,3.11,0,0,1,.75.23l.16.09.08,0,.09.06.33.2.62.44a11,11,0,0,1,1.14,1c.36.34.69.69,1.1,1a3.47,3.47,0,0,0,.7.44,2.75,2.75,0,0,0,.43.17,3.65,3.65,0,0,0,.47.1l.22,0,.18.05a2.13,2.13,0,0,1,.35.14,2.87,2.87,0,0,1,.59.39,6.32,6.32,0,0,0,.6.49,1.94,1.94,0,0,0,.89.36h.12l.3-.06.32,0a3.29,3.29,0,0,1,.63,0l.29.08.27.13,0,0a2.42,2.42,0,0,0-.48-.06,1.46,1.46,0,0,0-.73.17,1.62,1.62,0,0,0-.43.37.67.67,0,0,1-.13.15l-.17.12a5,5,0,0,1-.78.37l-.26.1a1.45,1.45,0,0,0-.2-.15,6.42,6.42,0,0,0-.87-.53,5.61,5.61,0,0,0-.68-.28,2,2,0,0,0-.42-.12l-.2,0-.18,0a5.94,5.94,0,0,1-.78-.26L11.39,22a8,8,0,0,1-.78-.35c-.25-.13-.45-.28-.72-.41A4.92,4.92,0,0,0,9.1,21a5.5,5.5,0,0,0-.76-.13,8.43,8.43,0,0,0-1.59-.05h0s0,0,0,0l.42.09,1.09.21.72.13.27.05a.37.37,0,0,0,0,.12c0,.07,0,.15,0,.23a2,2,0,0,1,0,.26,4.84,4.84,0,0,1-.09.49c0,.07,0,.13,0,.18a.32.32,0,0,0,0,.07l.09,0a1.38,1.38,0,0,0,.22-.13.8.8,0,0,0,.22-.23A.91.91,0,0,0,9.65,22a.73.73,0,0,0-.15-.57l0,0,.29.06a3.53,3.53,0,0,1,.75.32c.25.13.48.28.72.43a6.75,6.75,0,0,0,1.55.75L13,23l.22,0,.35.09c.23.07.45.14.66.22l1.21.45-.31.11-.49.17L14.41,24l-.54-.34-.65-.39a6.27,6.27,0,0,0-.82-.4,3.82,3.82,0,0,0-1.06-.27,5.67,5.67,0,0,0-1.11.09l-1.06.12c-.35,0-.7,0-1,0l-.75,0-.07,0-.49-.1-1-.17c-.66-.1-1.32-.2-2-.27a16.94,16.94,0,0,0-2-.12,3.18,3.18,0,0,0-1.07.17.41.41,0,0,0-.21.2.49.49,0,0,0,0,.2l0,.35.11,1.38c0,.24,0,.47.07.7a2,2,0,0,0,.23.69,1.66,1.66,0,0,0,.63.6,3.29,3.29,0,0,0,1,.32c.35.06.67.1,1,.14s.66.08,1,.1a.29.29,0,0,0,.23-.1v0l.52.07.77,0a6.77,6.77,0,0,0,.78,0,6.87,6.87,0,0,0,.78-.08L8,26.8c.13,0,.25-.05.37-.09a5.44,5.44,0,0,0,.71-.26,5,5,0,0,0,.6-.36,2,2,0,0,0,.37-.34,2.17,2.17,0,0,0,.9.44,9.61,9.61,0,0,0,1.21.25l1.22.19a6.17,6.17,0,0,0,.62.09,5.49,5.49,0,0,0,.58,0l.2.05a4,4,0,0,0,.81,0,4.3,4.3,0,0,0,1-.18,12.17,12.17,0,0,0,2.21-.89,4.84,4.84,0,0,0,1.08-.69,1.57,1.57,0,0,0,.6-1A1,1,0,0,0,20,23.15Z"/><path class="cls-4" d="M16.75,23.13h-1a1.8,1.8,0,0,0,1,0"/><polygon class="cls-4" points="7.7 1.19 9.02 1.19 9.02 1.42 8.1 1.42 8.1 2.25 8.96 2.25 8.96 2.48 8.1 2.48 8.1 3.55 7.7 3.55 7.7 1.19"/><path class="cls-4" d="M9.57,2.7h0c0,.28.07.67.43.67s.41-.4.41-.67S10.34,2,10,2s-.42.4-.42.66m1.24,0a.8.8,0,0,1-.83.88.78.78,0,0,1-.8-.87A.8.8,0,0,1,10,1.82.78.78,0,0,1,10.81,2.7Z"/><path class="cls-4" d="M11.19,2.29c0-.14,0-.31,0-.44h.35l0,.27h0a.61.61,0,0,1,.53-.3h.08v.28h-.08a.46.46,0,0,0-.48.36.61.61,0,0,0,0,.15v.94h-.39Z"/><path class="cls-4" d="M13.55,3.51a1.37,1.37,0,0,1-.41.06.82.82,0,0,1-.91-.86.89.89,0,0,1,1-.88,1.08,1.08,0,0,1,.35,0l-.08.22a.83.83,0,0,0-.28,0,.58.58,0,0,0-.57.65.56.56,0,0,0,.58.64.88.88,0,0,0,.29-.05Z"/><path class="cls-4" d="M14.86,2.53h0c0-.34-.18-.49-.37-.49s-.39.25-.4.49Zm-.78.2c0,.52.3.63.59.63a1.12,1.12,0,0,0,.41-.07l.06.2a1.75,1.75,0,0,1-.54.08.79.79,0,0,1-.9-.85.81.81,0,0,1,.83-.9.68.68,0,0,1,.71.76.71.71,0,0,1,0,.15Z"/><path class="cls-4" d="M15.19,4h0a.64.64,0,0,0,.33-.13c.09-.1.12-.22.12-.54V1.85H16V3.44c0,.36-.07.53-.25.65a1,1,0,0,1-.54.16Zm.88-2.63c0,.11-.09.18-.24.18s-.23-.07-.23-.18.1-.17.24-.17S16.07,1.31,16.07,1.41Z"/><path class="cls-4" d="M17.58,2.53h0c0-.34-.18-.49-.37-.49s-.39.25-.41.49Zm-.78.2c0,.52.3.63.59.63a1.12,1.12,0,0,0,.41-.07l.06.2a1.77,1.77,0,0,1-.55.08.8.8,0,0,1-.9-.85.82.82,0,0,1,.84-.9.68.68,0,0,1,.7.76v.15Z"/><path class="cls-4" d="M19.25,2.67h0c-.21,0-.68,0-.68.4a.28.28,0,0,0,.3.3.37.37,0,0,0,.37-.26.28.28,0,0,0,0-.09Zm.05.88,0-.18h0a.61.61,0,0,1-.49.21c-.33,0-.59-.19-.59-.48s.5-.62,1.06-.62V2.42c0-.22-.08-.38-.4-.38a.91.91,0,0,0-.41.09l-.08-.19a1.29,1.29,0,0,1,.58-.12c.49,0,.71.23.71.61v.74a2.36,2.36,0,0,0,0,.38Z"/><path class="cls-4" d="M20.89,1.12h.39V2h0a.62.62,0,0,1,.21-.15.77.77,0,0,1,.33-.07.55.55,0,0,1,.58.6V3.55H22V2.46c0-.21-.07-.41-.34-.41a.38.38,0,0,0-.38.27.59.59,0,0,0,0,.13v1.1h-.39Z"/><path class="cls-4" d="M23.83,2.67h0c-.2,0-.68,0-.68.4a.29.29,0,0,0,.3.3.35.35,0,0,0,.37-.26.28.28,0,0,0,0-.09Zm.06.88,0-.18h0a.62.62,0,0,1-.49.21c-.34,0-.59-.19-.59-.48s.5-.62,1.05-.62V2.42c0-.22-.08-.38-.39-.38a.91.91,0,0,0-.41.09l-.09-.19a1.33,1.33,0,0,1,.58-.12c.5,0,.71.23.71.61v.74a1.58,1.58,0,0,0,0,.38Z"/><path class="cls-4" d="M24.66,3.27a1,1,0,0,0,.4.09c.22,0,.36-.1.36-.25s-.07-.22-.32-.33-.49-.29-.49-.49.29-.47.68-.47a1.16,1.16,0,0,1,.44.09l-.11.21A.66.66,0,0,0,25.3,2c-.22,0-.33.11-.33.22s.07.18.31.29.51.28.51.52-.34.5-.74.5a1.15,1.15,0,0,1-.49-.1Z"/><path class="cls-4" d="M26.63,1.4v.45h.48v.21h-.48v1c0,.22.12.28.26.28h.16l0,.2a1.15,1.15,0,0,1-.3,0,.63.63,0,0,1-.38-.1c-.1-.08-.15-.19-.15-.43v-1h-.3V1.85h.3V1.48Z"/><path class="cls-4" d="M28.33,2.67h0c-.21,0-.69,0-.69.4a.29.29,0,0,0,.31.3.37.37,0,0,0,.37-.26.28.28,0,0,0,0-.09Zm.05.88,0-.18h0a.62.62,0,0,1-.49.21c-.33,0-.59-.19-.59-.48s.5-.62,1.06-.62V2.42c0-.22-.09-.38-.4-.38a.91.91,0,0,0-.41.09l-.09-.19A1.36,1.36,0,0,1,28,1.82c.5,0,.71.23.71.61v.74a1.58,1.58,0,0,0,0,.38Z"/><path class="cls-4" d="M12.92,5.64h0a.41.41,0,0,0,0-.11.38.38,0,0,0-.36-.32c-.32,0-.45.3-.45.66s.14.64.44.64a.41.41,0,0,0,.38-.43Zm0,.89h0a.56.56,0,0,1-.47.21c-.4,0-.72-.3-.72-.86a.8.8,0,0,1,.78-.9.52.52,0,0,1,.46.23h0L13,5h.35c0,.12,0,.27,0,.53V7.38h-.39Z"/><path class="cls-4" d="M15.29,6.24c0,.19,0,.34,0,.47H15l0-.18h0a.78.78,0,0,1-.54.21c-.43,0-.6-.24-.6-.66V5h.39v1c0,.26.06.46.34.46a.34.34,0,0,0,.35-.23.61.61,0,0,0,0-.15V5h.39Z"/><path class="cls-4" d="M15.79,6.71h0V5h.4v1.7Zm.43-2.14c0,.11-.09.18-.24.18s-.23-.07-.23-.18.11-.17.23-.17S16.22,4.47,16.22,4.57Z"/><path class="cls-4" d="M17.17,4.56V5h.47v.21h-.47v1c0,.23.11.28.26.28h.16V6.7a1.07,1.07,0,0,1-.29,0,.69.69,0,0,1-.39-.1.49.49,0,0,1-.15-.43v-1h-.3V5h.3V4.64Z"/><path class="cls-4" d="M18.86,5.83h0c-.2,0-.68,0-.68.39a.28.28,0,0,0,.3.31.36.36,0,0,0,.37-.26.31.31,0,0,0,0-.09Zm.06.88,0-.18h0a.65.65,0,0,1-.5.21.53.53,0,0,1-.59-.49c0-.42.5-.61,1.06-.62v0c0-.23-.08-.38-.39-.38a1,1,0,0,0-.41.08L18,5.09A1.48,1.48,0,0,1,18.54,5c.49,0,.71.23.71.61v.73a2.42,2.42,0,0,0,0,.39Z"/><path class="cls-4" d="M19.74,5.45c0-.15,0-.31,0-.44h.36l0,.27h0a.58.58,0,0,1,.52-.3h.08v.28h-.08a.47.47,0,0,0-.48.35.81.81,0,0,0,0,.16v.94h-.4Z"/><path class="cls-4" d="M20.9,6.43a1,1,0,0,0,.4.09c.23,0,.36-.1.36-.25s-.06-.22-.31-.33-.5-.29-.5-.49.3-.47.68-.47a1.22,1.22,0,0,1,.45.09l-.11.2a.81.81,0,0,0-.33-.07c-.21,0-.32.1-.32.21s.06.18.31.3S22,6,22,6.22s-.34.51-.74.51a1.17,1.17,0,0,1-.5-.1Z"/><path class="cls-4" d="M23.45,5.68h0c0-.34-.18-.49-.37-.49s-.39.26-.4.49Zm-.78.2c0,.52.3.64.59.64a1.12,1.12,0,0,0,.41-.07l.06.2a1.75,1.75,0,0,1-.54.08.79.79,0,0,1-.9-.85.82.82,0,0,1,.83-.9.68.68,0,0,1,.71.75.62.62,0,0,1,0,.15Z"/><rect class="cls-4" x="24.95" y="4.28" width="0.39" height="2.43"/><path class="cls-4" d="M26.17,5.86h0c0,.28.07.66.43.66s.4-.4.4-.66-.07-.66-.41-.66-.42.4-.42.66m1.23,0a.8.8,0,0,1-.82.88.78.78,0,0,1-.81-.88A.8.8,0,0,1,26.6,5,.78.78,0,0,1,27.4,5.86Z"/><path class="cls-4" d="M27.72,6.43a1,1,0,0,0,.4.09c.23,0,.36-.1.36-.25s-.06-.22-.31-.33-.5-.29-.5-.49S28,5,28.35,5a1.22,1.22,0,0,1,.45.09l-.11.2a.81.81,0,0,0-.33-.07c-.21,0-.32.1-.32.21s.06.18.31.3.51.28.51.51-.34.51-.74.51a1.17,1.17,0,0,1-.5-.1Z"/><path class="cls-4" d="M17.35,9.7l.79-1c.06-.09.14-.17.2-.25h-.89V8.17h1.32v.18l-.77,1-.2.25h1v.23H17.35Z"/><path class="cls-4" d="M20,9h0c-.2,0-.68,0-.68.39a.28.28,0,0,0,.3.3A.35.35,0,0,0,20,9.43a.34.34,0,0,0,0-.1Zm.06.88,0-.18h0a.64.64,0,0,1-.5.2A.52.52,0,0,1,19,9.41c0-.43.49-.61,1.05-.62v0c0-.23-.08-.39-.39-.39a1,1,0,0,0-.41.09l-.09-.19a1.48,1.48,0,0,1,.58-.11c.49,0,.71.22.71.61v.73a1.63,1.63,0,0,0,0,.39Z"/><path class="cls-4" d="M21.3,9.24h0a.32.32,0,0,0,0,.14.37.37,0,0,0,.36.29c.33,0,.43-.31.43-.65s-.12-.65-.44-.65a.38.38,0,0,0-.36.31.53.53,0,0,0,0,.13Zm-.39-.54c0-.26,0-.41,0-.53h.35l0,.21h0a.61.61,0,0,1,.52-.24c.43,0,.72.31.72.87a.77.77,0,0,1-.77.88.51.51,0,0,1-.43-.19h0v.84h-.39Z"/><path class="cls-4" d="M23.82,9h0c-.2,0-.68,0-.68.39a.29.29,0,0,0,.3.3.34.34,0,0,0,.37-.25.34.34,0,0,0,0-.1Zm.06.88,0-.18h0a.62.62,0,0,1-.49.2c-.34,0-.59-.19-.59-.48s.49-.61,1-.62v0c0-.23-.08-.39-.39-.39a1,1,0,0,0-.41.09l-.09-.19a1.48,1.48,0,0,1,.58-.11c.5,0,.71.22.71.61v.73a1.63,1.63,0,0,0,0,.39Z"/><path class="cls-4" d="M25.15,7.72v.45h.47v.2h-.47v1c0,.22.12.28.26.28h.16v.21a1.07,1.07,0,0,1-.29,0,.62.62,0,0,1-.39-.11.49.49,0,0,1-.15-.42v-1h-.3v-.2h.3V7.79Z"/><path class="cls-4" d="M26.17,9h0c0,.28.07.66.43.66s.4-.4.4-.66-.07-.66-.41-.66-.42.4-.42.66M27.4,9a.79.79,0,0,1-.82.87A.77.77,0,0,1,25.77,9a.8.8,0,0,1,.83-.88A.78.78,0,0,1,27.4,9Z"/><path class="cls-4" d="M27.72,9.59a1.28,1.28,0,0,0,.4.08c.23,0,.36-.09.36-.24s-.06-.22-.31-.34-.5-.28-.5-.48.3-.47.68-.47a1,1,0,0,1,.45.09l-.11.2a.81.81,0,0,0-.33-.07c-.21,0-.32.1-.32.21s.06.18.31.3.51.28.51.51-.34.51-.74.51a1.17,1.17,0,0,1-.5-.1Z"/><path class="cls-4" d="M7,10.72a3,3,0,0,0-1.34-.64c-.93-.24-2.55-.23-2.81,1.26s-.32,1.93-.32,1.93a2.18,2.18,0,0,0,1.39-.8,1.11,1.11,0,0,1-.44.8,3,3,0,0,0,1.28-1.93c.15-1.2,2,.11,2.24-.62"/></svg>