<svg id="Capa_1" data-name="Capa 1" xmlns="http://www.w3.org/2000/svg" viewBox="0 0 26.93 26.18"><defs><style>.cls-1{fill:#ffd041;}.cls-2{fill:#d1d3d4;}.cls-3{fill:#f05050;}.cls-4{fill:#fbcabb;}.cls-5{fill:#231f20;}</style></defs><title>5-12meses</title><polygon class="cls-1" points="6.63 26.04 26.93 14.35 26.93 26.18 6.63 26.04"/><polygon class="cls-2" points="21.18 26.17 14.38 25.16 20.29 20.96 27.1 21.45 27.1 26.18 21.18 26.17"/><path class="cls-3" d="M15.38,21.39l-1.21-1.83s.59-.36.82-.19a19.3,19.3,0,0,1,1.33,1.78s-.18.35-.94.24"/><polygon class="cls-3" points="16.49 23.57 17.55 23.3 17.72 24.28 16.49 23.57"/><path class="cls-4" d="M5.33,26s-.58-3.13-.62-3.58a3.87,3.87,0,0,1,.92-2.91,4.54,4.54,0,0,1,1.6-1,2.62,2.62,0,0,0,1.3-.39,1.44,1.44,0,0,0,.37-.88,3.84,3.84,0,0,0-1.06-1.36,3.08,3.08,0,0,1-.61-2.51c.16-.13,1.73-1.22,1.86-1.28s7.77.15,8.28.37.35,1,.35,1a22.51,22.51,0,0,0-.95,2.14c-.14.5-.28,1.57-.69,1.81a24.43,24.43,0,0,1-2.31.8,5.09,5.09,0,0,1,1.65.84,4.75,4.75,0,0,1,.84,1.25l-.44.2-.91-1.28-.74.3.51.69L15,21l-.38.24-1.07.65-.76.49s1.78-.35,1.85-.56-.12-.27-.07-.42.55-.36.55-.36.31.34.53.36.49-.07.55-.2-.25-.39-.25-.39,1.09-.19,1.14,0,.24.51.45.6.44.1.45.16-.42,1.12-.32,1.33.16.28-.12.4a8.12,8.12,0,0,1-1.2.2.8.8,0,0,0-.53.23,11.93,11.93,0,0,1-2.61,1.17c-1,.25-2.94.34-3.54-.1s-.55-.37-.55-.37L6.63,26H5.33Z"/><path class="cls-5" d="M12.68,14.37a4.51,4.51,0,0,0-2.25.54s2.36-.64,2.9-.27l.18.16s.21-.31-.83-.43"/><path class="cls-5" d="M14.07,16.54c.34.15.43.08.76,0s.22-.21,0-.66.27-.73.7-1a1.76,1.76,0,0,1,1.19,0l0-.08a1.56,1.56,0,0,0-1.95.29c-.36.5-.05.75-.05,1.07s-.7.31-.7.31"/><path class="cls-5" d="M12.06,15.35c.29.13.68,0,.67-.08a.55.55,0,0,1,0-.18l.22,0s.1-.19-.35-.2-1.44.14-1.44.14l.8,0s-.2.14.08.27"/><path class="cls-5" d="M15.9,15.36a.85.85,0,0,1,.33.15c.16-.24-.37-.28-.73-.24s-.39.14-.39.14c.44,0,0,.14.23.25a.45.45,0,0,0,.53-.11c.12-.13-.09-.19,0-.19"/><path class="cls-5" d="M9.62,15.91l0,0Z"/><path class="cls-5" d="M8.64,15.07a.08.08,0,0,0,0-.08l-.06-.06-.08-.07-.14-.11a.51.51,0,0,0-.18-.12.34.34,0,0,0-.16,0,.22.22,0,0,0-.13.06.17.17,0,0,0,0,.12.15.15,0,0,0,0,.09h0l.06-.07A.27.27,0,0,1,8,14.72s0,0,0,0a.91.91,0,0,1,.1.1.73.73,0,0,0,.16.14l.1.06s0,0,0,0a.92.92,0,0,0,0,.18,2.3,2.3,0,0,0,0,.37c0,.05,0,.05,0,0H8.24a.07.07,0,0,1-.06,0,.22.22,0,0,1,0-.08l0-.08h0l-.1.06A.29.29,0,0,0,8,15.6c0,.05,0,.13.12.17a.57.57,0,0,0,.29,0,.37.37,0,0,0,.14-.07.09.09,0,0,0,0-.14.27.27,0,0,1,0-.33,1,1,0,0,0,.1-.18"/><path class="cls-5" d="M14.57,18.25h0Z"/><path class="cls-5" d="M14.92,19.5h0"/><path class="cls-5" d="M17.5,24.1h0l-.59-.43h0l.46-.09.09,0v.55m-1.34-.34h.1l-.46.3Zm-.09-2.5h0l-.1,0-.09,0a.54.54,0,0,1-.4,0,.89.89,0,0,1-.29-.25l0-.06,0,0a4.47,4.47,0,0,0-.24-.6,4.86,4.86,0,0,0-.34-.6,1.36,1.36,0,0,0-.12-.17l0,0h0a.62.62,0,0,1,.27-.1.83.83,0,0,1,.22,0h0s0,0,0,0a1.43,1.43,0,0,1,.24.25c.16.19.3.39.42.55s.31.42.37.5l-.13,0,.12.06c.11.07.22.16.21.24A.18.18,0,0,1,16.07,21.26Zm-1.5.47h0s0,.06-.05.07a.55.55,0,0,1-.16.1,3,3,0,0,1-.48.17l-.63.15c.19-.09.39-.2.58-.31a6,6,0,0,0,.68-.49.14.14,0,0,0,0,.07.45.45,0,0,1,.05.17S14.57,21.71,14.57,21.73Zm-.19-2.13h0S14.37,19.58,14.38,19.6Zm11.16,1.61c-.57-.06-1.14-.11-1.72-.13s-1.14,0-1.72,0a9.82,9.82,0,0,1-1.72-.1h0l-.06,0-.69.33a5.14,5.14,0,0,0-.64.38,7.79,7.79,0,0,0-1.12.84.2.2,0,0,1,0-.08s.05-.1.16-.2a.82.82,0,0,0,.19-.32.4.4,0,0,0-.08-.38.57.57,0,0,0-.13-.08l-.1,0h-.05a.3.3,0,0,1-.15,0,.63.63,0,0,1-.23-.2c-.06-.09-.11-.18-.16-.27l0-.08a.76.76,0,0,0-.09-.09.51.51,0,0,0-.26-.07,2.75,2.75,0,0,0-.88.13,2.16,2.16,0,0,0-.05-.25l.42-.18.54-.25.69-.33.81-.41.88-.46,1.84-1.07c2.52-1.45,5-2.92,5-2.92l0,0s-2.64,1.35-5.25,2.73l-1.92,1c-.29.17-.59.33-.85.49l-.75.45c-.24.14-.44.28-.62.39l-.45.29h0a.87.87,0,0,0,0-.35.85.85,0,0,0-.08-.24c0-.07-.07-.16-.13-.25a2.19,2.19,0,0,0-.2-.25,3,3,0,0,0-.26-.24,2.73,2.73,0,0,0-.67-.37,3.18,3.18,0,0,0-.68-.19h0l.33-.09c.34-.11.67-.23,1-.37a3.91,3.91,0,0,0,.44-.26,1.39,1.39,0,0,0,.19-.15,1.29,1.29,0,0,0,.16-.17,1.27,1.27,0,0,0,.23-.75,1.8,1.8,0,0,1,.2-.72l.09-.16.13-.16a4.19,4.19,0,0,0,.26-.33,4.65,4.65,0,0,0,.41-.71,5,5,0,0,0,.28-.73,1,1,0,0,1,0-.17,1.36,1.36,0,0,1,.12-.12c.78-.84.26-2-.53-2.72S15.9,9.53,13.49,9.26s-5.25,1-6.15,2.55a3,3,0,0,0-.21,2.91c.1.48.42,1.7.42,1.7L7.73,16l.29.91.17-.43.16.54.07-.48a3.18,3.18,0,0,1,.24.76.81.81,0,0,1-.33.9,1.17,1.17,0,0,1-.27.14.89.89,0,0,1-.3.06,2.09,2.09,0,0,0-.85.15,3.77,3.77,0,0,0-.63.39c-.19.14-.37.28-.54.43a3.27,3.27,0,0,0-.85,1,3.09,3.09,0,0,0-.4,1.11,4.38,4.38,0,0,0-.07,1.14,4.52,4.52,0,0,0,.22,1.13h0c.13.24.22.51.34.77l.33.79h0a4.54,4.54,0,0,0-.07-.82,5,5,0,0,0-.2-.83v0A8.13,8.13,0,0,1,5,22.54a6.61,6.61,0,0,1,0-1.09,4.47,4.47,0,0,1,.24-1.07,2.34,2.34,0,0,1,.65-1A5.56,5.56,0,0,1,6.4,19a2.69,2.69,0,0,1,.64-.3,2.08,2.08,0,0,1,.72-.05,1.37,1.37,0,0,0,.49-.05,1.59,1.59,0,0,0,.39-.18.92.92,0,0,0,.43-.58,1.21,1.21,0,0,0-.05-.6,2.55,2.55,0,0,0-.27-.55,4.75,4.75,0,0,0-.42-.49h0l-.24-.29c-.4-.45-.63-1.41-.16-1.52s.95.51.95.51a.88.88,0,0,0,.32.73l.1-.49.35.78a2,2,0,0,1,.11-1.55,3.65,3.65,0,0,1,1.81-1.5l-.7.8,2.33-.94L11.76,14l1.78-.92-.62.94,1-.53-.52.56,1.55-.86-.78,1,1.55-.31-.64.39,1.84-.85-1,.94,1.68-.7,0,0-.66.71a1.73,1.73,0,0,0,.43-.29l-.14.25-.4.68c-.07.12-.14.22-.21.35a1.58,1.58,0,0,0-.15.38,3.39,3.39,0,0,0-.08.76,1.5,1.5,0,0,1,0,.37.78.78,0,0,1-.2.32.76.76,0,0,1-.17.13l-.19.12a4.48,4.48,0,0,1-.44.18l-.48.15-.5.13h0a5.8,5.8,0,0,1-.6.13c-.21,0-.42.06-.63.08a4.3,4.3,0,0,1-.62,0l-.31,0-.13,0-.17,0L11.63,18l-.28-.1a5.12,5.12,0,0,1-.53-.25,11,11,0,0,1-1-.62l0,0a3.93,3.93,0,0,0,.8.77,2.68,2.68,0,0,0,.52.32,2.09,2.09,0,0,0,.3.14,2,2,0,0,0,.34.12l.16,0,.19,0,.28,0h0a2,2,0,0,0-.24.49.87.87,0,0,0,0,.5.91.91,0,0,0,.06.16l0,.06,0-.06a.43.43,0,0,1,0-.16.93.93,0,0,1,.18-.45,1.92,1.92,0,0,1,.37-.38l.19-.16h.27c.22,0,.45-.06.67-.1l.25.1c.17.07.35.16.54.26a6.22,6.22,0,0,1,.54.35,3.49,3.49,0,0,1,.44.41l.18.2c.06.07.1.14.15.2s.15.23.2.3l0,0-.27.19a1.86,1.86,0,0,0-.08-.26,2.94,2.94,0,0,0-.28-.62,1.3,1.3,0,0,0-.3-.35.64.64,0,0,0-.23-.1h-.21l-.32,0a1,1,0,0,0-.58.32.2.2,0,0,0,0,.2l0,.07,0,0,0,0s.08.09.13.13l.46.55c.26.29.47.48.5.51h0l-.24.08.06-.08a3.67,3.67,0,0,0-.48.16,6.7,6.7,0,0,0-.92.47,4.93,4.93,0,0,0-.78.58.8.8,0,0,0-.13.13l-.63.11-.28-.5a6.16,6.16,0,0,0-.41-.63c-.14-.2-.31-.4-.47-.6a3.58,3.58,0,0,0-.26-.29l-.29-.29a2.73,2.73,0,0,0-.31-.27c-.12-.08-.22-.18-.35-.25l-.38-.23-.43-.2a3.23,3.23,0,0,0-.47-.14A2.74,2.74,0,0,0,7.79,19a2,2,0,0,0-1,.19l0,0a2.18,2.18,0,0,1,.92-.11,3.58,3.58,0,0,1,.45.09c.15,0,.27.11.41.15s.25.14.37.2.23.16.34.23a3.73,3.73,0,0,1,.3.26,3.57,3.57,0,0,1,.28.27l.26.27c.09.09.16.2.24.29a6,6,0,0,1,.43.6c.13.2.27.4.39.61l.37.61.07.13.19,0A16.6,16.6,0,0,0,14,22.26a3.66,3.66,0,0,0,.51-.21.72.72,0,0,0,.22-.17s0-.07.06-.1a.3.3,0,0,0,0-.13.6.6,0,0,0-.08-.2c0-.06,0-.09,0-.12a1,1,0,0,1,.35-.17.89.89,0,0,0,.3.23.8.8,0,0,0,.55.05,1.33,1.33,0,0,0,.24-.1.28.28,0,0,0,.15-.19.27.27,0,0,0-.08-.2l-.09-.07a2.82,2.82,0,0,1,.69-.08.29.29,0,0,1,.14,0s0,0,0,0L17,21a2.1,2.1,0,0,0,.15.3.75.75,0,0,0,.28.28.87.87,0,0,0,.26.08h.06l0,0a.22.22,0,0,1,0,.21.72.72,0,0,1-.17.23c-.06.06-.23.16-.24.33s.11.26.14.35a.67.67,0,0,1,.06.12l0,.13c0,.09,0,.09-.08.14a1.12,1.12,0,0,1-.32.12l-.39.07c-.28,0-.57.06-.85.08H15.9l-.08.07a3.62,3.62,0,0,1-.47.36,4.86,4.86,0,0,1-.54.33,6,6,0,0,1-1.22.5,4.88,4.88,0,0,1-.66.16,6.37,6.37,0,0,1-.71.1,6,6,0,0,1-1.41,0,3.44,3.44,0,0,1-1.23-.41,2.82,2.82,0,0,1-.46-.36c-.13-.13-.26-.29-.39-.44-.51-.59-1-1.17-1.57-1.75h0c.44.62.88,1.24,1.34,1.85.12.16.21.3.35.47l.18.18-.36.13a3.65,3.65,0,0,0-.49.24l-.46.35c-.65.47-1.27,1-1.27,1l0,0s.77-.37,1.5-.77c.19-.1.39-.19.55-.29a2.32,2.32,0,0,0,.4-.31,1.15,1.15,0,0,0,.22-.23,1.33,1.33,0,0,0,.19.14,3.68,3.68,0,0,0,1.4.53,6,6,0,0,0,1.59.06c.26,0,.53-.06.76-.1a6,6,0,0,0,.76-.17,7,7,0,0,0,1.34-.57c.08,0,.15-.1.23-.15-.36.24-.73.47-1.08.72l-.33.22.45.07c1.12.17,2.24.33,3.36.47.56.08,1.13.14,1.69.21s1.14.12,1.71.16c-.55-.13-1.1-.23-1.65-.34l-1.66-.31c-1-.16-1.93-.32-2.91-.46.58-.41,1.15-.81,1.7-1.23l.88.51.22.13,0-.19-.18-.75a1.48,1.48,0,0,0,.32-.14.44.44,0,0,0,.19-.19.32.32,0,0,0,0-.21.6.6,0,0,0-.05-.16.89.89,0,0,0-.08-.17.83.83,0,0,1-.08-.12,9.73,9.73,0,0,0,1.38-.65,5.54,5.54,0,0,0,.63-.38l.55-.4a10.1,10.1,0,0,1,1.65.12c.56.09,1.13.15,1.7.2s1.15.09,1.72.1a16.83,16.83,0,0,0,1.74,0v0C26.67,21.36,26.11,21.28,25.54,21.21Z"/><path class="cls-3" d="M25.77,23.58h0c-.06.27-.15.56-.22.86a.13.13,0,0,1-.13.08,1.55,1.55,0,0,1-.29,0,4.17,4.17,0,0,1-.58-.24l-.06,0,.06-.07a7.38,7.38,0,0,1,1.09-1,.37.37,0,0,1,.15-.06s0,.07,0,.13a1.94,1.94,0,0,1-.06.4m-2.86-1h0a.49.49,0,0,1,.14-.47,1,1,0,0,1,.63-.19,3.81,3.81,0,0,1,1.52.29c.07.06.14.11.1.18a.48.48,0,0,1-.19.22,4.91,4.91,0,0,1-.64.38c-.32.16-.66.31-1,.46A1.58,1.58,0,0,1,22.91,22.62ZM21.1,24.19h0a.21.21,0,0,1,0-.06l0,0ZM19.53,24h0a1.19,1.19,0,0,1-.39-.43.47.47,0,0,1,.1-.46,1.88,1.88,0,0,1,1.06-.6,3.55,3.55,0,0,1,.47-.06,1,1,0,0,0-.17.21,1,1,0,0,0-.14.61,1.09,1.09,0,0,0,.27.6,1.23,1.23,0,0,0,.27.22l-.07.11-.09.11A1.81,1.81,0,0,1,19.53,24Zm1.9-1.55h0l0,0Zm-.48,0h0a.52.52,0,0,1,.44.21,1,1,0,0,1-.06.81,3.35,3.35,0,0,1-.28.53,1,1,0,0,1-.48-.74.93.93,0,0,1,.12-.58.72.72,0,0,1,.2-.23S20.93,22.41,21,22.42Zm.83.94h0a1.08,1.08,0,0,1-.5.73l-.09,0a3.25,3.25,0,0,0,.33-.57,1,1,0,0,0,.06-.91s0-.05-.06-.08a1.6,1.6,0,0,1,.19.29A1.06,1.06,0,0,1,21.78,23.36Zm3.88-.4-.12.07a6.41,6.41,0,0,0-1.08,1.06l-.05.06a5.5,5.5,0,0,1-.81-.55c.34-.15.67-.29,1-.45a5.13,5.13,0,0,0,.69-.39.78.78,0,0,0,.25-.29l0-.09a1,1,0,0,0,0-.1.39.39,0,0,0-.16-.15l-.2-.1L25,22l-.42-.11a4.14,4.14,0,0,0-.87-.08,1.31,1.31,0,0,0-.83.26.62.62,0,0,0-.2.59,1.71,1.71,0,0,0,.62,1l-.25.12c-.25.11-.49.24-.74.34a1.54,1.54,0,0,1-.8.09l-.07,0,.22-.19a1.15,1.15,0,0,0,.26-.56,1,1,0,0,0-.09-.6.82.82,0,0,0-.52-.49.49.49,0,0,0-.24,0H21a2.36,2.36,0,0,0-.75.07A2,2,0,0,0,19,23a.59.59,0,0,0-.1.57,1.23,1.23,0,0,0,.46.48,2.14,2.14,0,0,0,.72.3,1.81,1.81,0,0,0,.57,0,1.2,1.2,0,0,1-.45.19,3.48,3.48,0,0,1-.83.08,7.94,7.94,0,0,1-1.18-.14l-.4-.1v0l.4.11a7.82,7.82,0,0,0,1.19.18,3.33,3.33,0,0,0,.87-.06,1.4,1.4,0,0,0,.68-.33s0,0,0,0a1.17,1.17,0,0,0,.32-.15l.14,0a1.74,1.74,0,0,0,.91-.09c.28-.1.5-.22.76-.33l.27-.12a4.94,4.94,0,0,0,.92.62,1.52,1.52,0,0,0-.28.56.38.38,0,0,0,0,.22l0,.07h0a.25.25,0,0,1,0-.07.4.4,0,0,1,0-.22,1.84,1.84,0,0,1,.3-.52l.05,0a3.27,3.27,0,0,0,.64.25,1.19,1.19,0,0,0,.39.05.32.32,0,0,0,.32-.21c.06-.3.14-.59.2-.87a2.85,2.85,0,0,0,0-.41c0-.07,0-.15-.13-.23A.29.29,0,0,0,25.66,23Z"/><path class="cls-5" d="M13.66,17.15a2.42,2.42,0,0,0-1.22.18s.55.05.85.1a.86.86,0,0,0,.63-.1,1,1,0,0,1,.46-.11l-.24-.13a.85.85,0,0,1-.48.06"/><path class="cls-5" d="M12.44,17.82c.34.13,1.05.12.68-.17,0,0-1,0-.68.17"/><polygon class="cls-5" points="1.49 0.83 1.49 1.85 2.46 1.85 2.46 0.83 2.85 0.83 2.85 3.2 2.46 3.2 2.46 2.09 1.49 2.09 1.49 3.2 1.1 3.2 1.1 0.83 1.49 0.83"/><path class="cls-5" d="M4.31,2.32h0c-.21,0-.69,0-.69.4a.29.29,0,0,0,.31.3.35.35,0,0,0,.36-.26.16.16,0,0,0,0-.09Zm.05.88,0-.18h0a.62.62,0,0,1-.49.21.53.53,0,0,1-.59-.49c0-.42.5-.61,1-.61V2.07c0-.22-.08-.38-.39-.38a.91.91,0,0,0-.41.09L3.4,1.59A1.36,1.36,0,0,1,4,1.47c.5,0,.71.23.71.61v.73a1.63,1.63,0,0,0,0,.39Z"/><path class="cls-5" d="M6.4,3.16A1.27,1.27,0,0,1,6,3.22a.81.81,0,0,1-.9-.86.89.89,0,0,1,1-.88,1,1,0,0,1,.34.05l-.07.22a.82.82,0,0,0-.28-.05.59.59,0,0,0-.58.66A.57.57,0,0,0,6.07,3a.87.87,0,0,0,.28,0Z"/><path class="cls-5" d="M7.71,2.18h0c0-.35-.18-.5-.37-.5s-.38.26-.4.5Zm-.77.19c0,.52.3.64.58.64a1.08,1.08,0,0,0,.41-.07l.06.2a1.66,1.66,0,0,1-.54.08.8.8,0,0,1-.9-.85.82.82,0,0,1,.84-.9.68.68,0,0,1,.7.75v.15Z"/><path class="cls-5" d="M10.32,2.09h0a.3.3,0,0,0,0-.13.36.36,0,0,0-.36-.26c-.28,0-.44.27-.44.64s.2.64.44.64a.36.36,0,0,0,.36-.25.39.39,0,0,0,0-.15Zm.41-.59c0,.12,0,.27,0,.53V3c0,.45-.08.62-.24.74a1.08,1.08,0,0,1-.66.18,1.68,1.68,0,0,1-.55-.08l.1-.21a1.53,1.53,0,0,0,.46.07c.31,0,.5-.13.5-.52V3h0a.54.54,0,0,1-.47.21.75.75,0,0,1-.73-.84.79.79,0,0,1,.78-.89.52.52,0,0,1,.46.22h0l0-.19Z"/><path class="cls-5" d="M12.13,2.32h0c-.21,0-.68,0-.68.4a.28.28,0,0,0,.3.3.37.37,0,0,0,.37-.26.31.31,0,0,0,0-.09Zm.06.88,0-.18h0a.61.61,0,0,1-.49.21.53.53,0,0,1-.59-.49c0-.42.5-.61,1.06-.61V2.07c0-.22-.08-.38-.39-.38a.86.86,0,0,0-.41.09l-.09-.19a1.29,1.29,0,0,1,.58-.12c.49,0,.71.23.71.61v.73a2.42,2.42,0,0,0,0,.39Z"/><path class="cls-5" d="M13,1.94c0-.14,0-.31,0-.44h.36l0,.27h0a.6.6,0,0,1,.52-.3H14v.27H13.9a.47.47,0,0,0-.48.36.66.66,0,0,0,0,.15V3.2H13Z"/><path class="cls-5" d="M15.13,2.32h0c-.21,0-.68,0-.68.4a.28.28,0,0,0,.3.3.37.37,0,0,0,.37-.26.31.31,0,0,0,0-.09Zm0,.88,0-.18h0a.61.61,0,0,1-.49.21.53.53,0,0,1-.59-.49c0-.42.5-.61,1.06-.61V2.07c0-.22-.08-.38-.4-.38a.91.91,0,0,0-.41.09l-.08-.19a1.29,1.29,0,0,1,.58-.12c.49,0,.71.23.71.61v.73a2.42,2.42,0,0,0,0,.39Z"/><path class="cls-5" d="M16.41,2.6h0a.38.38,0,0,0,.38.4c.32,0,.43-.29.43-.65s-.12-.65-.43-.65a.4.4,0,0,0-.37.31.49.49,0,0,0,0,.12ZM16,3.2c0-.1,0-.29,0-.41v-2h.4V1.7h0a.6.6,0,0,1,.52-.23c.38,0,.67.31.67.86s-.36.9-.75.9A.54.54,0,0,1,16.37,3h0l0,.22Z"/><path class="cls-5" d="M18.93,2.32h0c-.2,0-.68,0-.68.4a.28.28,0,0,0,.3.3.36.36,0,0,0,.37-.26.31.31,0,0,0,0-.09ZM19,3.2,19,3h0a.65.65,0,0,1-.5.21.53.53,0,0,1-.59-.49c0-.42.5-.61,1.06-.61V2.07c0-.22-.08-.38-.39-.38a.86.86,0,0,0-.41.09L18,1.59a1.29,1.29,0,0,1,.58-.12c.49,0,.71.23.71.61v.73a1.63,1.63,0,0,0,0,.39Z"/><path class="cls-5" d="M20.25,1.05V1.5h.48v.21h-.48v1c0,.22.12.28.27.28h.15l0,.2a1.07,1.07,0,0,1-.29,0,.67.67,0,0,1-.39-.1c-.1-.08-.15-.19-.15-.43v-1h-.3V1.5h.3V1.13Z"/><path class="cls-5" d="M21.27,2.35h0c0,.28.07.66.43.66s.41-.4.41-.66-.07-.66-.42-.66-.42.4-.42.66m1.24,0a.8.8,0,0,1-.83.88.78.78,0,0,1-.8-.88.8.8,0,0,1,.83-.88A.78.78,0,0,1,22.51,2.35Z"/><path class="cls-5" d="M22.83,2.92a1,1,0,0,0,.4.09c.22,0,.36-.1.36-.25s-.07-.22-.32-.33-.49-.29-.49-.49.29-.47.68-.47a1.16,1.16,0,0,1,.44.09l-.1.2a.84.84,0,0,0-.33-.07c-.22,0-.32.11-.32.22s.06.17.3.29.51.28.51.52-.33.5-.74.5a1.15,1.15,0,0,1-.49-.1Z"/><path class="cls-5" d="M8,10.75s-.34-.38-1.27-.22a3,3,0,0,0-2.26,2.31,3.4,3.4,0,0,1-.68,1.65A3.73,3.73,0,0,0,5.38,14a3.61,3.61,0,0,1-.87.57S8,13.65,8,10.75"/></svg>