<svg id="Capa_1" data-name="Capa 1" xmlns="http://www.w3.org/2000/svg" viewBox="0 0 24.93 19.79"><defs><style>.cls-1{fill:#ffd041;}.cls-2{fill:#d1d3d4;}.cls-3{fill:#f05050;}.cls-4{fill:#fbcabb;}.cls-5{fill:#231f20;}</style></defs><title>5-12meses</title><polygon class="cls-1" points="4.63 19.65 24.93 7.97 24.93 19.79 4.63 19.65"/><polygon class="cls-2" points="19.17 19.78 12.37 18.77 18.28 14.57 25.1 15.06 25.1 19.79 19.17 19.78"/><path class="cls-3" d="M13.37,15l-1.2-1.83s.59-.36.82-.19a20.89,20.89,0,0,1,1.32,1.79s-.17.34-.94.23"/><polygon class="cls-3" points="14.48 17.18 15.54 16.91 15.71 17.89 14.48 17.18"/><path class="cls-4" d="M3.33,19.6S2.75,16.47,2.7,16a3.91,3.91,0,0,1,.93-2.91,4.39,4.39,0,0,1,1.6-.95,2.64,2.64,0,0,0,1.29-.4,1.37,1.37,0,0,0,.37-.88A3.8,3.8,0,0,0,5.83,9.52,3.1,3.1,0,0,1,5.23,7C5.39,6.88,7,5.8,7.08,5.73s7.78.15,8.29.37.35,1,.35,1-.81,1.64-1,2.14-.28,1.58-.7,1.81a23.48,23.48,0,0,1-2.3.8,5.09,5.09,0,0,1,1.65.84A5.25,5.25,0,0,1,14.26,14l-.44.2-.91-1.28-.74.3.51.7.32.78-.39.24-1.06.65-.76.5s1.78-.36,1.84-.56-.12-.27-.07-.43.55-.36.55-.36.31.34.54.36.49-.07.54-.2-.25-.39-.25-.39,1.09-.19,1.15,0a1.24,1.24,0,0,0,.45.61c.2.1.43.09.44.16s-.41,1.11-.31,1.32.16.28-.13.4a7.71,7.71,0,0,1-1.2.21.79.79,0,0,0-.52.22,11,11,0,0,1-2.61,1.17c-1,.25-2.94.34-3.54-.1S7.12,18,7.12,18L4.63,19.65H3.33Z"/><path class="cls-5" d="M10.67,8a4.49,4.49,0,0,0-2.24.54s2.35-.64,2.89-.27l.19.16s.21-.31-.84-.43"/><path class="cls-5" d="M12.06,10.15c.34.16.44.09.77,0s.22-.21,0-.66.27-.73.7-1a1.77,1.77,0,0,1,1.19.05l0-.07a1.57,1.57,0,0,0-2,.28c-.35.5-.05.75,0,1.07s-.71.31-.71.31"/><path class="cls-5" d="M10.06,9c.28.13.68,0,.67-.08a.33.33,0,0,1,0-.18l.22,0s.1-.18-.36-.19a13.09,13.09,0,0,0-1.44.13l.81,0s-.2.14.08.27"/><path class="cls-5" d="M13.9,9a.85.85,0,0,1,.33.15c.16-.24-.37-.28-.74-.24s-.38.14-.38.14c.43,0,0,.14.23.25a.44.44,0,0,0,.53-.11C14,9,13.77,9,13.9,9"/><path class="cls-5" d="M7.61,9.52a.11.11,0,0,0,0,0Z"/><path class="cls-5" d="M6.64,8.69s0-.06,0-.09l-.06-.06-.08-.06-.13-.12a.81.81,0,0,0-.18-.12.26.26,0,0,0-.16,0,.18.18,0,0,0-.13,0,.19.19,0,0,0,0,.12.31.31,0,0,0,0,.09h0l.06-.07L6,8.34s0,0,0,0l.1.1a.73.73,0,0,0,.16.14l.1.06s0,0,0,0,0,.12,0,.18,0,.25,0,.38,0,0,0,0H6.24s0,0-.06,0,0-.05,0-.08l0-.08h0l-.09.07a.2.2,0,0,0-.07.1.18.18,0,0,0,.12.17.57.57,0,0,0,.29,0,.34.34,0,0,0,.15-.07.09.09,0,0,0,0-.14.26.26,0,0,1,0-.33.85.85,0,0,0,.1-.17"/><path class="cls-5" d="M12.56,11.86h0Z"/><path class="cls-5" d="M12.91,13.11h0s0,0,0,0"/><path class="cls-5" d="M15.5,17.71h0l-.59-.43h0l.46-.09.08,0c0,.18,0,.37,0,.55m-1.34-.34h.1l-.47.3C13.92,17.57,14,17.47,14.16,17.37Zm-.1-2.5h0l-.09.05-.1,0a.55.55,0,0,1-.4,0,.85.85,0,0,1-.28-.25l0-.06-.05,0a2.77,2.77,0,0,0-.23-.59,6.7,6.7,0,0,0-.34-.61l-.12-.17,0,0h0a.62.62,0,0,1,.27-.1l.21,0h.05s0,0,0,0a1.48,1.48,0,0,1,.25.25c.16.19.29.39.41.55s.31.42.38.51l-.13,0,.12.07c.11.06.22.15.21.24S14.11,14.84,14.06,14.87Zm-1.49.47h0s0,.06-.05.07a.45.45,0,0,1-.17.1,2.87,2.87,0,0,1-.47.17l-.63.15a5.45,5.45,0,0,0,.58-.31A4.86,4.86,0,0,0,12.5,15s0,.06,0,.08a.37.37,0,0,1,.05.16S12.57,15.32,12.57,15.34Zm-.19-2.13h0S12.37,13.19,12.38,13.21Zm11.16,1.62c-.57-.07-1.14-.12-1.72-.14s-1.15,0-1.73,0a11,11,0,0,1-1.72-.11h0l-.06,0-.69.33a5.68,5.68,0,0,0-.64.38,8.61,8.61,0,0,0-1.12.84s0-.06,0-.08,0-.1.16-.2a.68.68,0,0,0,.18-.32.36.36,0,0,0-.08-.37.33.33,0,0,0-.13-.09l-.09,0h-.06l-.15,0a.62.62,0,0,1-.22-.21,2.4,2.4,0,0,1-.16-.27l0-.07a.18.18,0,0,0-.08-.09.52.52,0,0,0-.26-.08,3,3,0,0,0-.88.13,2.16,2.16,0,0,0-.05-.25l.42-.18.54-.25c.2-.1.44-.2.69-.33l.8-.4.88-.47,1.85-1.07c2.52-1.45,5-2.92,5-2.92l0,0s-2.63,1.35-5.24,2.73l-1.92,1-.86.49-.75.45-.62.4a4.81,4.81,0,0,0-.44.29h0a.91.91,0,0,0,0-.35,1.19,1.19,0,0,0-.07-.23A1.49,1.49,0,0,0,14,13a2.56,2.56,0,0,0-.2-.26,3.27,3.27,0,0,0-.27-.24,2.82,2.82,0,0,0-.66-.37,3.18,3.18,0,0,0-.68-.19h0l.33-.1a8.38,8.38,0,0,0,1-.37,3.91,3.91,0,0,0,.44-.26.9.9,0,0,0,.19-.15.61.61,0,0,0,.15-.17,1.26,1.26,0,0,0,.24-.75,1.75,1.75,0,0,1,.19-.71l.1-.16L15,9.13l.26-.33a5.66,5.66,0,0,0,.41-.71,4.93,4.93,0,0,0,.27-.73,1,1,0,0,0,0-.17l.12-.12c.78-.84.26-2-.53-2.72S13.9,3.14,11.49,2.87s-5.25,1-6.16,2.55a3,3,0,0,0-.2,2.91c.1.48.41,1.71.41,1.71l.19-.47.28.92.18-.44.16.55.07-.49a3.18,3.18,0,0,1,.24.76.81.81,0,0,1-.33.9.87.87,0,0,1-.27.14.9.9,0,0,1-.31.06,2.33,2.33,0,0,0-.85.16,4.2,4.2,0,0,0-.63.38l-.54.43a3.89,3.89,0,0,0-.85,1A3.62,3.62,0,0,0,2.48,15a4.85,4.85,0,0,0-.06,1.14,4.43,4.43,0,0,0,.22,1.13v0h0c.12.24.22.51.34.77l.32.79h.06a5.69,5.69,0,0,0-.07-.83,5,5,0,0,0-.2-.83v0C3,16.88,3,16.52,3,16.15a6.61,6.61,0,0,1,0-1.09A5,5,0,0,1,3.2,14a2.47,2.47,0,0,1,.66-1,3.56,3.56,0,0,1,.53-.41A2.91,2.91,0,0,1,5,12.29a1.94,1.94,0,0,1,.73,0,1.43,1.43,0,0,0,.49-.06A1.35,1.35,0,0,0,6.63,12a.9.9,0,0,0,.44-.58,1.22,1.22,0,0,0-.05-.6,2,2,0,0,0-.28-.54,2.73,2.73,0,0,0-.42-.49h0l-.25-.28C5.66,9.06,5.42,8.1,5.89,8s1,.51,1,.51a.85.85,0,0,0,.31.73l.1-.48.35.77A2,2,0,0,1,7.73,8a3.65,3.65,0,0,1,1.81-1.5l-.71.81,2.34-1L9.76,7.64l1.78-.92-.63.94,1-.53-.53.56,1.56-.86-.78,1,1.54-.3-.63.38,1.83-.85-1,.94,1.68-.7v0L15,8a1.82,1.82,0,0,0,.43-.28L15.24,8c-.13.23-.27.46-.41.69s-.13.21-.2.35a1.79,1.79,0,0,0-.16.37,3.4,3.4,0,0,0-.07.77,1.49,1.49,0,0,1-.05.36.75.75,0,0,1-.21.32A.42.42,0,0,1,14,11a1.22,1.22,0,0,1-.19.12,3,3,0,0,1-.45.18l-.47.16-.5.13h0a5.47,5.47,0,0,1-.61.13c-.21,0-.41.06-.62.08a4.42,4.42,0,0,1-.63,0l-.3,0-.14,0-.16,0-.28-.07-.27-.11a5.29,5.29,0,0,1-.54-.25,10.84,10.84,0,0,1-1-.62l0,0a3.62,3.62,0,0,0,.79.77,3.41,3.41,0,0,0,.53.33l.3.14.33.11.16.05.2,0a2.48,2.48,0,0,0,.27,0v0a1.79,1.79,0,0,0-.23.48.91.91,0,0,0,0,.51.42.42,0,0,0,.07.15l0,.06v-.06a.71.71,0,0,1,0-.16.92.92,0,0,1,.19-.44,2.31,2.31,0,0,1,.36-.39.86.86,0,0,1,.2-.15l.26,0a6.73,6.73,0,0,0,.67-.1l.26.1c.17.07.35.17.54.27a3,3,0,0,1,.53.35,3,3,0,0,1,.45.4l.18.21a2.31,2.31,0,0,1,.14.19,3.57,3.57,0,0,1,.21.3l0,0-.27.19c0-.08,0-.16-.08-.25a3.31,3.31,0,0,0-.28-.63,1.3,1.3,0,0,0-.3-.35.73.73,0,0,0-.23-.1h-.22l-.31.05a.91.91,0,0,0-.59.31.23.23,0,0,0,0,.2l.05.07,0,0,0,0,.12.14.47.54c.26.29.46.48.49.51h0l-.25.09a.39.39,0,0,0,.07-.09,3.06,3.06,0,0,0-.48.17,5.26,5.26,0,0,0-.92.46,4.93,4.93,0,0,0-.78.58l-.14.13-.62.12-.28-.51A5.19,5.19,0,0,0,9.25,15a5.24,5.24,0,0,0-.47-.61c-.09-.09-.16-.2-.26-.29l-.28-.29a2.78,2.78,0,0,0-.32-.26,3,3,0,0,0-.34-.26L7.2,13l-.43-.2a3.62,3.62,0,0,0-.47-.13,3,3,0,0,0-.51-.07,2,2,0,0,0-1,.19l0,0a2.09,2.09,0,0,1,.93-.1,2.15,2.15,0,0,1,.44.09,3,3,0,0,1,.42.15l.37.19.33.24a2.48,2.48,0,0,1,.3.25,2.4,2.4,0,0,1,.28.27l.27.27c.09.09.15.2.23.29a6.13,6.13,0,0,1,.44.6c.13.2.27.4.38.61l.37.62.08.12.18,0A16.34,16.34,0,0,0,12,15.87a3.11,3.11,0,0,0,.5-.21.53.53,0,0,0,.23-.17s0-.07.06-.1a.53.53,0,0,0,0-.12.66.66,0,0,0-.08-.21c0-.06,0-.08,0-.12a1,1,0,0,1,.35-.17.85.85,0,0,0,.29.23.77.77,0,0,0,.56.05,1,1,0,0,0,.24-.1.28.28,0,0,0,.14-.18.24.24,0,0,0-.08-.2.31.31,0,0,0-.09-.07,2.45,2.45,0,0,1,.7-.09c.06,0,.12,0,.14.05s0,0,0,0l0,.07a1.4,1.4,0,0,0,.15.3.76.76,0,0,0,.28.29.63.63,0,0,0,.26.07h.06l0,0a.22.22,0,0,1,0,.21.63.63,0,0,1-.16.24c-.06.06-.23.15-.25.32a.67.67,0,0,0,.15.35.61.61,0,0,1,0,.12.35.35,0,0,1,0,.13c0,.09,0,.09-.08.14a1.17,1.17,0,0,1-.31.12l-.4.07c-.27,0-.57.06-.85.08h-.11l-.07.06a4.82,4.82,0,0,1-.47.37c-.17.11-.35.22-.54.32a6.66,6.66,0,0,1-1.22.51c-.22.06-.45.11-.67.15a6.2,6.2,0,0,1-.7.1,6,6,0,0,1-1.41,0,3.25,3.25,0,0,1-1.23-.41,2.45,2.45,0,0,1-.46-.36c-.13-.13-.26-.29-.39-.43-.51-.6-1-1.18-1.57-1.76h0c.44.62.88,1.24,1.33,1.85.12.16.22.31.36.47l.18.18-.36.13a2.77,2.77,0,0,0-.49.24l-.47.35c-.64.47-1.26,1-1.26,1l0,0s.76-.37,1.5-.77c.19-.1.38-.19.55-.29a2.77,2.77,0,0,0,.4-.3,2.16,2.16,0,0,0,.22-.23l.19.14a3.84,3.84,0,0,0,1.4.52,6,6,0,0,0,1.58.06c.27,0,.53-.06.77-.09a7.5,7.5,0,0,0,.75-.18,6.49,6.49,0,0,0,1.34-.56l.24-.15-1.09.71-.32.22.45.07q1.66.25,3.36.48l1.69.2c.57.05,1.13.12,1.7.16l-1.64-.34c-.55-.11-1.11-.21-1.66-.3-1-.17-1.94-.33-2.91-.47.58-.4,1.14-.81,1.7-1.23q.43.27.87.51l.23.13,0-.19c-.05-.25-.11-.49-.17-.74a1.54,1.54,0,0,0,.32-.15.39.39,0,0,0,.18-.18.36.36,0,0,0,0-.22.6.6,0,0,0-.05-.16.56.56,0,0,0-.09-.17.44.44,0,0,0-.08-.11,11.14,11.14,0,0,0,1.39-.66c.21-.12.43-.24.63-.38l.55-.4a10.18,10.18,0,0,1,1.65.12c.56.09,1.13.15,1.7.2s1.14.09,1.72.11,1.15,0,1.74,0v0A16.44,16.44,0,0,0,23.54,14.83Z"/><path class="cls-3" d="M23.77,17.19h0c-.06.27-.15.56-.23.86,0,.06-.05.08-.13.08a.73.73,0,0,1-.28,0,3.23,3.23,0,0,1-.58-.24l-.06,0,.05-.07a8.75,8.75,0,0,1,1.1-1,.29.29,0,0,1,.15-.06.24.24,0,0,1,0,.13,1.94,1.94,0,0,1-.06.4m-2.87-1h0a.52.52,0,0,1,.15-.47,1.12,1.12,0,0,1,.63-.19,3.85,3.85,0,0,1,1.52.3c.07.05.14.1.1.18a.72.72,0,0,1-.19.21,5,5,0,0,1-.65.38l-1,.47A1.68,1.68,0,0,1,20.9,16.23Zm-1.81,1.58h0l0-.06h0Zm-1.56-.23h0a1.19,1.19,0,0,1-.39-.43.47.47,0,0,1,.09-.46,1.85,1.85,0,0,1,1.06-.59,2.53,2.53,0,0,1,.48-.07,1.68,1.68,0,0,0-.18.21,1,1,0,0,0-.13.61,1.11,1.11,0,0,0,.26.6,1.18,1.18,0,0,0,.27.22.41.41,0,0,1-.07.11.44.44,0,0,1-.09.11A1.75,1.75,0,0,1,17.53,17.58ZM19.43,16h0l0,0Zm-.49,0h0a.52.52,0,0,1,.44.21.93.93,0,0,1-.05.81,3.78,3.78,0,0,1-.28.53,1,1,0,0,1-.48-.73.9.9,0,0,1,.31-.82Zm.84.94h0a1.07,1.07,0,0,1-.5.73l-.09,0a3.53,3.53,0,0,0,.33-.57,1.06,1.06,0,0,0,.06-.91.23.23,0,0,0-.07-.07.77.77,0,0,1,.19.29A.94.94,0,0,1,19.78,17Zm3.88-.39a.34.34,0,0,0-.12.06,6.41,6.41,0,0,0-1.08,1.07l-.05.06a5.82,5.82,0,0,1-.81-.56l1-.44a4.28,4.28,0,0,0,.69-.4.64.64,0,0,0,.25-.29l0-.09a.38.38,0,0,0,0-.1c0-.07-.11-.1-.16-.15l-.21-.09L23,15.58a3.2,3.2,0,0,0-.42-.1,3.6,3.6,0,0,0-.88-.09,1.31,1.31,0,0,0-.83.26.63.63,0,0,0-.19.6,1.72,1.72,0,0,0,.62.95l-.26.12c-.25.11-.49.24-.73.34a1.55,1.55,0,0,1-.8.09l-.07,0a1,1,0,0,0,.21-.19,1.07,1.07,0,0,0,.26-.56,1.13,1.13,0,0,0-.08-.6.85.85,0,0,0-.52-.49.53.53,0,0,0-.25,0H19a2.62,2.62,0,0,0-.74.07,2.07,2.07,0,0,0-1.18.67.59.59,0,0,0-.11.57,1.27,1.27,0,0,0,.47.48,2.37,2.37,0,0,0,.72.31,1.73,1.73,0,0,0,.56,0,1.32,1.32,0,0,1-.45.2,4,4,0,0,1-.82.07,7.94,7.94,0,0,1-1.18-.14l-.4-.1v0a3.14,3.14,0,0,0,.4.11,6.74,6.74,0,0,0,1.18.18,3.84,3.84,0,0,0,.88-.05A1.51,1.51,0,0,0,19,18h0a1.57,1.57,0,0,0,.32-.15l.13,0a1.9,1.9,0,0,0,.92-.09c.27-.11.5-.23.75-.34l.28-.11a4.82,4.82,0,0,0,.91.61,1.7,1.7,0,0,0-.28.56.49.49,0,0,0,0,.22l0,.08h0l0-.07a.39.39,0,0,1,0-.21,1.74,1.74,0,0,1,.3-.53l0,0a5.33,5.33,0,0,0,.64.25,1.2,1.2,0,0,0,.39,0c.16,0,.32-.11.32-.2.07-.31.15-.59.2-.87a1.5,1.5,0,0,0,0-.42.23.23,0,0,0-.12-.23A.28.28,0,0,0,23.66,16.58Z"/><path class="cls-5" d="M11.66,10.76a2.48,2.48,0,0,0-1.23.18l.85.1a.9.9,0,0,0,.64-.1,1,1,0,0,1,.45-.1l-.23-.14a.78.78,0,0,1-.48.06"/><path class="cls-5" d="M10.43,11.44c.34.13,1.06.11.68-.18,0,0-1,0-.68.18"/><path class="cls-5" d="M6,4.36S5.7,4,4.77,4.14A3,3,0,0,0,2.51,6.45,3.4,3.4,0,0,1,1.83,8.1a3.81,3.81,0,0,0,1.55-.45,4.25,4.25,0,0,1-.87.57S6,7.27,6,4.36"/></svg>