<svg id="Capa_1" data-name="Capa 1" xmlns="http://www.w3.org/2000/svg" viewBox="0 0 30.06 24.84"><defs><style>.cls-1{fill:#b0d240;}.cls-2{fill:#fbcabb;}.cls-3{fill:#231f20;}</style></defs><title>1-11meses</title><polygon class="cls-1" points="21.54 3.59 16.69 9.2 15.72 8.64 20.42 3.39 21.54 3.59"/><path class="cls-2" d="M13.3,23.21s-3.42-2.49-3.63-3.34a6.31,6.31,0,0,1-.2-1.06s-4.25-.6-5.78-2.74-1.15-3-.85-3.47.11-.54.11-.54-.44-1.28.09-1.65a6.7,6.7,0,0,1,1.18-.74c.13,0,.65-1.43,1.28-1.81a9.72,9.72,0,0,1,2.68-.62c.23,0-.66-1.35-.29-1.73a5.78,5.78,0,0,1,3-1.65c1.54-.25,4.07-.37,5,.3S18.15,6,17.8,6.41s-.89.73-2.38.49a6.53,6.53,0,0,1-2.08-.59l-1,.59.14.72s1.24.25,1.27.62a4.48,4.48,0,0,1-.35,1.28s1.95,1.39,2.92,1.39,2.11-.68,2.19-1.11-.32-2.18,0-2.82,2.16-.78,2.37-.57,1.2,2,1.62,2.66-.17,2.08-.36,2.73S20.67,15,20.67,15l-.24.41s3.78,2.69,4.65,3.58,4.42,4.25,4.42,4.25Z"/><path class="cls-3" d="M18.33,9.82h0a4.66,4.66,0,0,1-.51.47l-.29.22a1,1,0,0,1-.28.16,1.58,1.58,0,0,1-.71.08A5.81,5.81,0,0,1,15,10.31a13.77,13.77,0,0,1-1.4-.66,1.73,1.73,0,0,0,.17-.21A2.24,2.24,0,0,0,14,8.63a1,1,0,0,0-.65-1,4,4,0,0,0-.82-.29A.77.77,0,0,0,12.38,7a4.46,4.46,0,0,0,.78-.26,2.64,2.64,0,0,0,.38-.18l.1-.07a3.26,3.26,0,0,0,.84.49,4.31,4.31,0,0,0,2.41.16l-.1.12c-.37.45-.74.9-1.07,1.36h0l.53.3.25.15.13.07.07,0h0l.12-.13c.06,0,0,.08,0,.05l.33-.37.35-.39c.25-.26.49-.53.74-.8a2,2,0,0,0,0,.87,3.4,3.4,0,0,0,.33.92.73.73,0,0,1-.1.2,2,2,0,0,1-.18.25m-5.14-.51h0a1.73,1.73,0,0,1-.37.54,1.88,1.88,0,0,1-.49.34l-.26.11a2.81,2.81,0,0,0-.65-.46A9.92,9.92,0,0,0,10,9.29a7.39,7.39,0,0,0-.77-.22A4.76,4.76,0,0,0,8.44,9,14.46,14.46,0,0,0,6.82,9c-.53,0-1,.09-1.55.17a7.19,7.19,0,0,0-.8.2l.3-.31a9.91,9.91,0,0,1,1-.9,2.8,2.8,0,0,1,.8-.43,9,9,0,0,1,1.16-.28A8.21,8.21,0,0,1,9.1,7.35a9.38,9.38,0,0,1,1.4.07c.46,0,.91.13,1.34.22A3.56,3.56,0,0,1,12.93,8a.65.65,0,0,1,.4.56A2.2,2.2,0,0,1,13.19,9.31Zm-1.72,2.17h0a3.78,3.78,0,0,1-.69.52,2.31,2.31,0,0,1-.67.25H10a2.82,2.82,0,0,0-.87-.72,6.68,6.68,0,0,0-1.53-.6,7.35,7.35,0,0,0-.84-.19l-.46-.05a3.31,3.31,0,0,0-.45,0,4,4,0,0,0-1.73.46,4.18,4.18,0,0,0-1,.74v-.11a2.22,2.22,0,0,1,.43-1.2A2.56,2.56,0,0,1,4.27,10a4.88,4.88,0,0,1,1.12-.51,6.84,6.84,0,0,1,3-.21,4.67,4.67,0,0,1,.71.15c.2.06.44.17.66.26A10.07,10.07,0,0,1,11,10.2a1.73,1.73,0,0,1,.72.65A.62.62,0,0,1,11.47,11.48ZM8.34,5.59h0a2,2,0,0,1,.53-.71,3.12,3.12,0,0,1,.89-.48,11.65,11.65,0,0,1,2.31-.55,9,9,0,0,1,2.49-.05,2.83,2.83,0,0,1,1.07.37,5,5,0,0,1,.85.61,4.33,4.33,0,0,1,.66.7,1.37,1.37,0,0,1,.33.72c0,.19-.22.34-.54.45a3.71,3.71,0,0,1-1.08.14,3.07,3.07,0,0,1-2-.66l-.22-.19-.2.18a2.12,2.12,0,0,1-.27.21,2.16,2.16,0,0,1-.3.18,3.59,3.59,0,0,1-.69.3,2.34,2.34,0,0,1-.38.09,2.85,2.85,0,0,1-.41,0,3.88,3.88,0,0,1-.83-.07l0,0c.14,0,.27.09.41.12a3.06,3.06,0,0,0,.45.06,2.36,2.36,0,0,0,.46,0L12.33,7h0l.11.32A3.4,3.4,0,0,0,12,7.26a10.08,10.08,0,0,0-1.45-.09l-1.44,0-.83,0A2.8,2.8,0,0,1,8.34,5.59Zm8.49,3.49Zm0,0ZM19.4,4.77h0c.35-.44.73-.87,1.12-1.29l.81.22c-.47.48-.93,1-1.38,1.44s-.94,1-1.39,1.54-.88,1.05-1.3,1.58c-.11.13-.21.27-.3.4s-.17.24-.25.37l-.1,0-.29-.12-.54-.23c.45-.4.87-.82,1.29-1.24L17.48,7a1.65,1.65,0,0,0,.36-.22L18,6.62a.73.73,0,0,0,.09-.13.61.61,0,0,0,.05-.18l.19-.2C18.68,5.67,19,5.21,19.4,4.77ZM29.5,23.23a34.78,34.78,0,0,0-5.76-5.64,11.86,11.86,0,0,0-3.17-2.07l.1-.08a5.1,5.1,0,0,0,1.19-1.83c.27-.62.5-1.25.72-1.89.1-.31.2-.63.29-1a6.78,6.78,0,0,0,.19-1,1.07,1.07,0,0,0,0-.53,1.9,1.9,0,0,0-.27-.48A9.76,9.76,0,0,0,22,7.94a4.44,4.44,0,0,1-.62-.86c-.09-.15-.18-.3-.29-.45a.93.93,0,0,0-.52-.38,1.37,1.37,0,0,0-.78,0,3.25,3.25,0,0,0-.54.23l1-1.23c.44-.52.87-1,1.29-1.58l.07-.09-.13,0-1-.22-.06,0,0,0c-.38.44-.78.87-1.21,1.29s-.81.8-1.19,1.2a2.29,2.29,0,0,0-.38-.59,5.14,5.14,0,0,0-.81-.72,6.19,6.19,0,0,0-1-.58,3.92,3.92,0,0,0-1.22-.34c-.43,0-.86,0-1.29,0s-.85,0-1.28,0a9.45,9.45,0,0,0-2.54.43,3.22,3.22,0,0,0-1.06.6,1.83,1.83,0,0,0-.54.86,2.16,2.16,0,0,0,0,.91,2.74,2.74,0,0,0,.32.82l-.48,0a6.36,6.36,0,0,0-1.32.15,2.68,2.68,0,0,0-1,.54A3.39,3.39,0,0,0,4.53,9a2.23,2.23,0,0,0-.18.43l-.46.2a2.37,2.37,0,0,0-.85.76,1.69,1.69,0,0,0-.2,1.38,1.16,1.16,0,0,0,.11.27,2.68,2.68,0,0,0-.6,1.14,2.19,2.19,0,0,0,0,1.19A3.52,3.52,0,0,0,3,15.5a6.87,6.87,0,0,0,.89,1c.17.16.37.3.54.45l.6.41a13,13,0,0,0,1.33.73,12.47,12.47,0,0,0,1.49.58,11.93,11.93,0,0,0,1.4.34l0,.2c0,.12.07.23.1.34l.16.33a3.21,3.21,0,0,0,.19.31l.22.3.25.29c.17.18.34.37.53.55a15.45,15.45,0,0,0,2.58,1.92l0,0c-.4-.33-.79-.67-1.16-1a13.39,13.39,0,0,1-1.07-1.06A8.24,8.24,0,0,1,10.19,20a1.64,1.64,0,0,1-.16-.29,2.59,2.59,0,0,1-.14-.29l-.08-.29,0-.29v-.17l-.22,0C9,18.59,8.5,18.47,8,18.35a14.36,14.36,0,0,1-1.49-.47,9.45,9.45,0,0,1-1.36-.64c-.21-.12-.4-.26-.6-.39s-.36-.29-.52-.44a5.2,5.2,0,0,1-.81-1,3,3,0,0,1-.43-1.08,2.36,2.36,0,0,1,.07-1.09,2.69,2.69,0,0,1,.6-1,3.58,3.58,0,0,1,1.07-.77,3.38,3.38,0,0,1,1.34-.35l.39,0a2.39,2.39,0,0,1,.36.05q.39.06.75.15a6.27,6.27,0,0,1,1.38.52c.41.21.8.47.89.78a.5.5,0,0,1,0,.43,1.06,1.06,0,0,1-.46.38,4.06,4.06,0,0,1-1.5.26H7.2v0h0c-.39,0-.78,0-1.17-.08v0q.36.09.75.15l-.14,0,0,.09a.74.74,0,0,1,.07.26.58.58,0,0,1-.08.37.83.83,0,0,1-.15.19,1.11,1.11,0,0,1-.24.16,1.12,1.12,0,0,1-.29.14l-.32.1A5.61,5.61,0,0,1,5,15.3l-.46,0H5a4.14,4.14,0,0,0,.66-.06,1.61,1.61,0,0,0,.37-.07,2.26,2.26,0,0,0,.37-.11,2.21,2.21,0,0,0,.34-.18A1.88,1.88,0,0,0,7,14.72a1.11,1.11,0,0,0,.23-.5.88.88,0,0,0,0-.33l.38,0a4.5,4.5,0,0,0,1.74-.2,1.63,1.63,0,0,0,.66-.45,1,1,0,0,0,.16-.34.59.59,0,0,0,0-.35,1.3,1.3,0,0,0-.08-.17h.05a2.74,2.74,0,0,0,.87-.19,3.9,3.9,0,0,0,.89-.5,1.77,1.77,0,0,0,.4-.42.72.72,0,0,0,.08-.57,1.05,1.05,0,0,0-.21-.35l.28-.05a2.31,2.31,0,0,0,1.08-.65,8.7,8.7,0,0,0,1.26.79,5.76,5.76,0,0,0,1.67.57,2.19,2.19,0,0,0,1-.08,1.73,1.73,0,0,0,.41-.21l.33-.23a4.78,4.78,0,0,0,.58-.52,3.25,3.25,0,0,0,.23-.29.9.9,0,0,0,.15-.37v0l0-.05a3.81,3.81,0,0,1-.37-.89,1.88,1.88,0,0,1,0-.91,1.26,1.26,0,0,1,.6-.77,1.71,1.71,0,0,1,1.14-.33c.37.11.53.46.69.75a5.15,5.15,0,0,0,.6.89c.22.29.45.57.63.86a1.1,1.1,0,0,1,.18.88A13.46,13.46,0,0,1,22,11.62c-.24.63-.51,1.24-.79,1.86a5.54,5.54,0,0,1-1.07,1.7,3.07,3.07,0,0,1-.89.64,3.25,3.25,0,0,1-1.19.28h-.19l-.05.13a2,2,0,0,1-.16.33,3.56,3.56,0,0,1-.26.31,3,3,0,0,1-.7.55,4.8,4.8,0,0,1-.92.39,8.47,8.47,0,0,1-1,.25v0A6.86,6.86,0,0,0,15.85,18a4.89,4.89,0,0,0,1-.35,3.72,3.72,0,0,0,.86-.55,3.61,3.61,0,0,0,.33-.35,1.45,1.45,0,0,0,.17-.26,4,4,0,0,0,1.31-.29,3.63,3.63,0,0,0,1-.61Z"/><path class="cls-3" d="M8.28,12.69a1,1,0,0,0,.07-.15.72.72,0,0,0,.09-.24.55.55,0,0,0,0-.1l0,0-.15,0a.79.79,0,0,0-.29.21.45.45,0,0,0-.11.17.54.54,0,0,0,0,.22c0,.08,0,.15,0,.23a.38.38,0,0,0,.08.13.33.33,0,0,0,.21.07.94.94,0,0,0,.39-.06l.28-.14a.58.58,0,0,0,.27-.39.47.47,0,0,0-.13-.4H9a1.47,1.47,0,0,1-.21.31,1.74,1.74,0,0,1-.23.25.9.9,0,0,1-.17.14l-.17.11A.08.08,0,0,1,8.09,13a.18.18,0,0,1,.05-.18c0-.06.1-.11.14-.16"/><path class="cls-3" d="M10.85,10.66l-.11.06-.25.14a2.12,2.12,0,0,1-.27.13l-.11,0S10,11,10,11h0l-.06,0c-.06,0-.12-.06-.11-.11s.06-.1.13-.13l.19-.08.15-.1a1.2,1.2,0,0,0,.26-.27l0,0a1.19,1.19,0,0,0-.48.1.72.72,0,0,0-.19.11.67.67,0,0,0-.11.18c0,.14-.12.29,0,.45l.05.05,0,0,0,0a.5.5,0,0,0,.13.07.94.94,0,0,0,.41,0,.65.65,0,0,0,.3-.12.59.59,0,0,0,.16-.15.43.43,0,0,0,.08-.35Z"/><path class="cls-3" d="M12.76,8.48h0s-.14.15-.34.31a1.23,1.23,0,0,1-.31.19.58.58,0,0,1-.41,0c-.1-.06-.15-.09-.15-.16a.23.23,0,0,1,.13-.18l.21-.13A.79.79,0,0,0,12,8.35,1.6,1.6,0,0,0,12.31,8l0,0a1.45,1.45,0,0,0-.55.18,1.25,1.25,0,0,0-.19.15.59.59,0,0,0-.12.22,1.19,1.19,0,0,0-.05.26.43.43,0,0,0,.09.26.6.6,0,0,0,.33.2,1,1,0,0,0,.46,0,.71.71,0,0,0,.49-.36.57.57,0,0,0,0-.32.39.39,0,0,0,0-.11"/><path class="cls-3" d="M15.44,6.39a1.18,1.18,0,0,0,.26,0,1.13,1.13,0,0,0,.43-.09A1.27,1.27,0,0,0,16.65,6a.93.93,0,0,0,.25-.43l0,0-.15.07-.36.2-.46.25a1.25,1.25,0,0,1-.25.09l-.11,0s-.11,0-.17,0-.19-.06-.18-.13a.27.27,0,0,1,.15-.2c.08-.05.18-.09.25-.14l.2-.14a2.1,2.1,0,0,0,.37-.37l0,0a1.69,1.69,0,0,0-.61.19.86.86,0,0,0-.4.4A1.15,1.15,0,0,0,15,6a.37.37,0,0,0,.21.28.67.67,0,0,0,.19.09"/><path class="cls-3" d="M19.8,7.52l.3-.12.23-.13a3.17,3.17,0,0,0,.46-.34l0,0a2.22,2.22,0,0,0-.66.15,1.65,1.65,0,0,0-.26.14.92.92,0,0,0-.22.22l-.19.26a.31.31,0,0,0-.06.31c0,.12.21.22.29.27a1.17,1.17,0,0,0,.5.09,1.14,1.14,0,0,0,.44-.1,1.17,1.17,0,0,0,.26-.18.74.74,0,0,0,.26-.46l0,0-.15.09-.36.19-.22.1a.78.78,0,0,1-.23.06.53.53,0,0,1-.25,0l-.15,0a.33.33,0,0,1-.12,0,.14.14,0,0,1,0-.21.52.52,0,0,1,.24-.18"/><path class="cls-3" d="M15.9,11.21a7.62,7.62,0,0,0-.44.66c-.11.2-.23.43-.35.68a4.91,4.91,0,0,0-.28.79,4.63,4.63,0,0,0-.14.8c0,.13,0,.26,0,.38s0,.23,0,.34a2.33,2.33,0,0,0,0,.29c0,.09,0,.17,0,.23s0,.21,0,.21l-.13-.18a2.28,2.28,0,0,1-.3-.51,1.6,1.6,0,0,1-.12-.35,1.35,1.35,0,0,1-.07-.41,2,2,0,0,1,0-.43c0-.15,0-.3.08-.45a3.29,3.29,0,0,1,.16-.44,2.71,2.71,0,0,1,.23-.41,3.43,3.43,0,0,1,.56-.67,3.26,3.26,0,0,1,.76-.53"/><path class="cls-3" d="M6.55,16.78l.39-.18,1-.51c.41-.21.88-.46,1.35-.75.23-.15.45-.31.65-.47a2.09,2.09,0,0,0,.5-.54,1.13,1.13,0,0,0,.12-.28c0-.13,0-.23.09-.36A3.34,3.34,0,0,1,11,13a5.79,5.79,0,0,1,.81-1.11,8.18,8.18,0,0,1,1-1l-.2.3c-.13.19-.29.47-.49.79s-.41.71-.6,1.12a5.39,5.39,0,0,0-.22.64c0,.1,0,.23-.08.33a1.19,1.19,0,0,1-.15.41,2.93,2.93,0,0,1-.62.65,8.9,8.9,0,0,1-.76.49,12.12,12.12,0,0,1-1.53.67c-.46.17-.87.28-1.15.36l-.45.11"/></svg>