<svg id="Capa_1" data-name="Capa 1" xmlns="http://www.w3.org/2000/svg" viewBox="0 0 34.2 22.08"><defs><style>.cls-1{fill:#f8992f;}.cls-2{fill:#f5a4c7;}.cls-3{fill:#fbc9b7;}.cls-4{fill:#231f20;}</style></defs><title>2-11meses</title><path class="cls-1" d="M13,13.88a3.58,3.58,0,0,0,2.56,1.31,4.76,4.76,0,0,0,3.84-1c.47-.6,1-2,.35-2.81a4.05,4.05,0,0,0-3.1-1.66c-1.5-.1-4.31.67-3.94,2.51s.29,1.65.29,1.65"/><path class="cls-2" d="M9.78,17a14.32,14.32,0,0,0-3.47-.51c-2.12-.07-3-.33-3.08.26s0,2.95.62,3.3a13.44,13.44,0,0,0,2.89.61Z"/><path class="cls-3" d="M33.38,8.2V1.14L29.5,5a4.63,4.63,0,0,1-2,1c-.94.11-1.58.23-2.43.37s-1.95.19-1.95.19-.36.25,0,.43a9.78,9.78,0,0,0,1.54.41l-1.19.69s-.84-.53-.89-.11a2.16,2.16,0,0,0,0,.59,11.64,11.64,0,0,0-2.18,1.08c-.32.35-.22.64.26.61a20.48,20.48,0,0,0,2.67-.87l-.83.82c-.08.07-.92.67-.86.87s.71,0,.71,0-.57.6-.49.77.29.43,1.31,0a10.63,10.63,0,0,0,1.89-1,8.19,8.19,0,0,1-.73,1.11c-.26.28-.48,1.11-.23,1.12a11.07,11.07,0,0,0,1.79-1.28s-.35,1.34-.07,1.43S27.17,12,27.17,12s0,1.33.44,1.23.93-1.1,1-1.15.71-1.22.71-1.22A23.51,23.51,0,0,1,31.4,9.1a21.24,21.24,0,0,1,2-.9"/><path class="cls-3" d="M9.55,16.92a4.87,4.87,0,0,0-1.94-.39l-4-.18a15,15,0,0,1,1.12-2.27c.28-.26,2.2-2.36,2.75-3s.49-.8.3-1.21-.52-1-.34-1.21S10.09,7,10.38,6.73a13.71,13.71,0,0,1,2.9-.53c.05,0,.77.71.75,1.19S13.3,8.5,13.4,8.82s.64.58.53.69a1.86,1.86,0,0,1-.44.23s.2.49,0,.47a7,7,0,0,0-.74,0,3.09,3.09,0,0,0,.44.23c.14,0-.23.4-.2.54s-.09.29-.93.31-1.81-.06-1.81-.06l-.19.47a11.13,11.13,0,0,0,3.08.58,12.13,12.13,0,0,0,3.54-.94c.29-.26.77-1.22.95-1.37s.2.15.12.36a1.13,1.13,0,0,0,0,.61A5.17,5.17,0,0,1,19,10.61c.08.09-.54.71-.54.71s.88-.25,1-.12-.51.62-.51.62.72.39.42.45-.57.2-.53.31.14.32-.27.31-1.45-.14-1.45-.14a3.09,3.09,0,0,1-1.09.79c-.54.16-2.87.41-2.87.41l-1.82.13a3.93,3.93,0,0,1,.26.9,15.74,15.74,0,0,1-.28,1.65,8,8,0,0,1,2.62.09c.5.29,1.62.85,1.62.85a3.47,3.47,0,0,0,.81-.56c.16-.23.35-.57.68-.45a.42.42,0,0,1,.26.52s.08.66.08.66a11.32,11.32,0,0,0,1.13-.45c.16-.12.16-.3.5-.22s.31.28.31.28.22-.11.25,0a.4.4,0,0,1,0,.24s.2-.07.14.11a4.54,4.54,0,0,0-.16.66,2.89,2.89,0,0,1-.72.92,7.68,7.68,0,0,1-2,1c-.35,0-.87-.4-1.24-.41s-2.94-.29-2.94-.29a12.25,12.25,0,0,1-3.37.92A7.37,7.37,0,0,1,5.71,20,1.17,1.17,0,0,1,5.33,18a3.44,3.44,0,0,1,2.26-.94,5.9,5.9,0,0,0,2-.18"/><polygon class="cls-4" points="14.32 7.92 14.29 7.84 14.29 7.85 14.32 7.92"/><path class="cls-4" d="M13.39,8.26s.09-.36-.41-.33a5.2,5.2,0,0,0-1.46.51,7.37,7.37,0,0,0,1.05-.32.7.7,0,0,1,.82.14"/><path class="cls-4" d="M12.77,8.4a3.3,3.3,0,0,0-.77.21l.46-.08s-.17.21.09.23.32-.24.32-.24.1,0,.12,0,.08-.17-.22-.15"/><path class="cls-4" d="M19.64,13.36h0a2.27,2.27,0,0,1-.92,1.06,4.18,4.18,0,0,1-1.49.56,6.45,6.45,0,0,1-1.54.13,4.36,4.36,0,0,1-1.25-.27,3.73,3.73,0,0,1-.81-.44,3.26,3.26,0,0,1-.43-.35l.53-.1.19.05.28,0a3.09,3.09,0,0,0,.53,0L15,14l.24,0a3.64,3.64,0,0,0,.47-.14,5.31,5.31,0,0,0,.84-.36,6.65,6.65,0,0,0,.63-.39l.77-.08.19,0,.3,0h.34L19,13l.18-.08a.37.37,0,0,0,.16-.17.21.21,0,0,0,0-.22l-.07-.08.2,0a.9.9,0,0,0,.21-.08.32.32,0,0,0,.12-.11l0,0h0v0h0a.24.24,0,0,0-.13-.24.74.74,0,0,0-.21-.09l-.13,0,.21-.12a.62.62,0,0,0,.14-.14h0a1.78,1.78,0,0,1,.14.5,2.8,2.8,0,0,1-.15,1.35m-7.23.48h0c-.44.07-.88.13-1.32.17a13.54,13.54,0,0,1-2.7,0,0,0,0,0,0,0,0s0,0,0,0a10.8,10.8,0,0,0,2.74.23h.29c0,.07,0,.18,0,.33s0,.25,0,.4,0,.29,0,.45-.06.61-.08.85,0,.21,0,.28c-.22,0-.43.05-.64.09q-.57.08-1.14.18h0a3.78,3.78,0,0,0-.46-.1l-.91-.16c-.61-.11-1.22-.21-1.83-.27a14.76,14.76,0,0,0-1.89-.11l-.55,0a14.42,14.42,0,0,1,1.29-2.28,11,11,0,0,1,2-2.25,7.47,7.47,0,0,1,.63-.48l.17-.13A1.36,1.36,0,0,0,8,10.9a.74.74,0,0,0,.19-.4A.84.84,0,0,0,8,9.89L8,9.61a.47.47,0,0,1,.18-.46.65.65,0,0,0,0,.2,1.37,1.37,0,0,0,.88.78,1.16,1.16,0,0,0,.47,0l.17,0,0,0H9.51a.94.94,0,0,1-.36-.1,1,1,0,0,1-.51-.7.38.38,0,0,1,0-.19l0,0h0l0,0c.36,0,.47.11.91.4L9.51,9.1h0v0l.37.26s-.4-.4-.36-.76A1,1,0,0,0,9.78,8s0-.19,0,.26l-.1.56.51-.59-.11.5.49-.5.73-.88,0,.72.57-.94-.17,1,.4-.59.79-1-.21.86.43-.67,0,1.1.69-1.1a1.15,1.15,0,0,1,.1.23,1,1,0,0,1,0,.63,2.76,2.76,0,0,1-.32.61l-.18.31a.43.43,0,0,0-.06.37,1.63,1.63,0,0,0,.3.29c.1.08.2.18.16.23a1.18,1.18,0,0,1-.33.2s-.09,0-.11.12,0,.07.06.1a.56.56,0,0,1,.07.13c0,.05,0,.06,0,.08l-.09,0h-.1a2.2,2.2,0,0,1-.44,0h-.06c-.06,0-.09,0-.08.08a.62.62,0,0,0,.14.23.47.47,0,0,0,.35.14l0,0a.27.27,0,0,0-.08.07h0l-.07,0a.07.07,0,0,0,0,.06,1.64,1.64,0,0,0-.27.37l-.18,0a2.53,2.53,0,0,1-.3,0,8.81,8.81,0,0,1-1.26,0h-.32l-.32,0h-.14a.35.35,0,0,0-.14.06.24.24,0,0,0-.12.16.45.45,0,0,0,0,.23l-.37,0A3.38,3.38,0,0,0,8,11.89a0,0,0,0,0,0,0h0a3.39,3.39,0,0,1,1.45-.18,2.64,2.64,0,0,1,.7.14c.11,0,.21.08.32.12a3.45,3.45,0,0,0,.34.14,6,6,0,0,0,1.58.28c.27,0,.54,0,.8,0s.53,0,.81,0l.06,0h0l1.48-.51.38-.12.38-.12a3,3,0,0,0,.4-.16.82.82,0,0,0,.33-.27,2.75,2.75,0,0,0,.24-.58,2.23,2.23,0,0,1,.26-.51l0,0,0,0a.46.46,0,0,1,0,.26,1.73,1.73,0,0,0,0,.6v0a.12.12,0,0,0,.13,0,5.8,5.8,0,0,1,.63-.2l.33-.07.17,0h0l0,0-.09.1-.22.18c-.16.11-.33.23-.5.33a.08.08,0,0,0,0,.11.16.16,0,0,0,.18,0h0a4.44,4.44,0,0,1,.63-.15l.29,0s.06,0,.06,0h0s0,.05,0,.05h0a.22.22,0,0,1-.07.06,1.33,1.33,0,0,1-.24.1,4.18,4.18,0,0,1-.61.15.21.21,0,0,0-.18.15c0,.09.1.16.23.16h0a5.29,5.29,0,0,1,.56.05h-.57a.34.34,0,0,0-.28.1c-.07.1,0,.21.13.26h0a2,2,0,0,1,.36.16h-.17l-.21,0-.2,0a.42.42,0,0,0-.16,0h0l-.94.09a.31.31,0,0,0-.19.06h0a6.59,6.59,0,0,1-.65.4,4.19,4.19,0,0,1-.71.33,3.18,3.18,0,0,1-.38.11l-.21.05-.2,0-.4,0h-.18l-.08,0-.29,0C13.28,13.68,12.84,13.77,12.41,13.84ZM13,16.72h.28l.27,0a2.16,2.16,0,0,1,.45.15,5,5,0,0,1,.87.49c.28.18.55.38.85.57a4.4,4.4,0,0,0,1,.5h0a.23.23,0,0,0,.23,0c.19-.17.39-.35.6-.52a3.92,3.92,0,0,1,.67-.45.62.62,0,0,1,.19-.07.91.91,0,0,0,.25-.11.71.71,0,0,0,.15-.15s0,0,.1,0l.19.07c.06,0,.1.06.11.09s0,.06,0,.09l-.2.11s0,.06,0,.08a.12.12,0,0,0,.13,0h0l.07,0,.05,0,.12-.06s.08,0,.1,0h0s0,0,0,0a0,0,0,0,1,0,0l-.08.07-.12.05-.15.05s-.07.06,0,.1a.13.13,0,0,0,.15,0h0l.28-.08h.11v0l0,0a.19.19,0,0,1-.06.07l0,0a.23.23,0,0,0-.11,0,.5.5,0,0,0-.12.08h0a.07.07,0,0,0,0,.11.18.18,0,0,0,.16,0l-.08,0a.15.15,0,0,0-.09.06c0,.06,0,.13.09.16h.05c-.05.08-.08.14-.13.21A3.52,3.52,0,0,1,19,19l-.09.09-.09.08-.23.15c-.16.1-.33.19-.51.28l-.55.26-.29.12-.28.1-.1,0a.27.27,0,0,1-.09,0,.58.58,0,0,1-.18,0L16.4,20a1,1,0,0,1-.14-.16.33.33,0,0,0-.3-.12h0c-.5,0-1,0-1.51,0-.25,0-.49-.05-.71-.09a1.32,1.32,0,0,1-.3-.08l-.12-.05-.08-.05-.07,0a.37.37,0,0,0-.39,0,6.54,6.54,0,0,1-.65.34c-.24.11-.48.21-.74.3l-.78.22c-.27.06-.55.11-.83.15s-.28,0-.42.05l-.43,0a8.42,8.42,0,0,1-.87,0,8.48,8.48,0,0,1-.87-.06H7.12A.29.29,0,0,0,7,20.35H7a3.58,3.58,0,0,1-1.63-.83.5.5,0,0,1-.14-.28.53.53,0,0,1,0-.3,3,3,0,0,1,.36-.69,2.37,2.37,0,0,1,1.49-.94,6.1,6.1,0,0,1,1.09-.15l.56-.05a5.67,5.67,0,0,0,.58-.05A.53.53,0,0,0,9.5,17l1.18-.12C11.46,16.8,12.26,16.73,13,16.72Zm3.38.58h0a.91.91,0,0,0,.17-.09l.08-.06a.45.45,0,0,0,.07-.07.37.37,0,0,0,.07-.19.66.66,0,0,0,0-.15.35.35,0,0,1,0-.12.08.08,0,0,1,.09,0,.25.25,0,0,1,.13.05l.07,0s0,0,0,0,0,.07-.08.13a.93.93,0,0,1-.18.16l.17.35s0,0,0,0h0l.06,0a.2.2,0,0,1,.1.12.65.65,0,0,1,.05.21s0,.06,0,.09l-.46.33a5.45,5.45,0,0,1-1.06-.68A2.08,2.08,0,0,0,16.4,17.3Zm3.25.4Zm0,.37Zm-.16.36ZM9.37,17h0L9.3,17a4,4,0,0,1-.5,0ZM3.76,19.54h0a2.38,2.38,0,0,1-.33-1.22,7.7,7.7,0,0,1,0-1.27l0-.32c0-.13,0-.14.1-.18a2.83,2.83,0,0,1,.8-.05c.6,0,1.21.09,1.83.13s1.24.07,1.86.1l.92.06.4.06-1,.2H8.18a6.56,6.56,0,0,0-1.17,0,5.41,5.41,0,0,0-.58.12,2.41,2.41,0,0,0-.55.21,2.89,2.89,0,0,0-.45.29,2.38,2.38,0,0,0-.35.36,3.47,3.47,0,0,0-.44.76.83.83,0,0,0-.06.47.91.91,0,0,0,.22.45,2.36,2.36,0,0,0,.68.49l-.38,0A1.84,1.84,0,0,1,3.76,19.54Zm6.51-8.17Zm4.06-1.12h0a4.6,4.6,0,0,1,1.46-.35,5.86,5.86,0,0,1,1.66.07l-.05,0a2.31,2.31,0,0,0-.37.55,2.7,2.7,0,0,1-.27.51.56.56,0,0,1-.23.16,1.87,1.87,0,0,1-.33.1l-.4.11-.39.11c-.5.15-1,.32-1.48.5-.22,0-.46,0-.7,0a6.26,6.26,0,0,1-.75,0,5.82,5.82,0,0,1-.73-.07,4.83,4.83,0,0,1-.7-.13l-.34-.11c-.12,0-.24-.09-.37-.12l-.09,0a.08.08,0,0,0,0-.08h0a.39.39,0,0,1,0-.18l0,0h0l.33,0h.33a11.59,11.59,0,0,0,1.31-.06l.33-.05h0l0,.11a1,1,0,0,0,0,.5.48.48,0,0,0,.07.17h.06a.55.55,0,0,1,0-.16,1.07,1.07,0,0,1,.11-.46,2.09,2.09,0,0,1,.16-.27.38.38,0,0,0,.2-.17.13.13,0,0,0,0-.06.63.63,0,0,1,.12-.11A4.11,4.11,0,0,1,14.33,10.25Zm4.58.34h0l-.15,0-.34.08-.54.17a1.23,1.23,0,0,1,0-.47.65.65,0,0,0,0-.31A3.37,3.37,0,0,1,18.91,10.59Zm.52.52h0l-.16,0a1.54,1.54,0,0,0-.39.05l-.08,0a.1.1,0,0,1,.05,0l.22-.2.11-.11A2.34,2.34,0,0,1,19.43,11.11Zm-.18-.45,0,0h0a4.49,4.49,0,0,0-1.54-.84,5.05,5.05,0,0,0-1.93-.24,4.64,4.64,0,0,0-1.66.42,4.72,4.72,0,0,0-.78.46.42.42,0,0,0-.16,0A.25.25,0,0,1,13,10.3l0-.06.32,0,.14,0,.14,0a.19.19,0,0,0,.14-.21.38.38,0,0,0-.09-.18l0,0,0,0c.11-.07.28-.11.38-.25a.18.18,0,0,0,0-.21.71.71,0,0,0-.15-.15,1.25,1.25,0,0,1-.26-.25c-.05-.16.14-.39.25-.59a3,3,0,0,0,.35-.63,1,1,0,0,0,.05-.33l.17.49a2.12,2.12,0,0,0-1.21-2.22,2.69,2.69,0,0,0-.65-.35c-.19-.06-.37-.11-.56-.15a7.34,7.34,0,0,0-3.26-.27C7.48,5,5.14,6.09,5.25,8c.09,1.7,1.6,1.69,2.25,2.14a.52.52,0,0,1,.13.36.46.46,0,0,1-.1.23l-.1.11-.15.11c-.23.17-.44.35-.64.53a9.47,9.47,0,0,0-1.89,2.38c-.23.42-.46.84-.65,1.26a7.32,7.32,0,0,0-.39,1.14,1.36,1.36,0,0,0-.38.11.41.41,0,0,0-.2.19.47.47,0,0,0,0,.19l0,.33.12,1.28a4.62,4.62,0,0,0,.06.64,1.83,1.83,0,0,0,.21.65,1.65,1.65,0,0,0,.58.56,2.9,2.9,0,0,0,.9.31l.93.13a9.42,9.42,0,0,0,1,.09.31.31,0,0,0,.27-.11.13.13,0,0,0,0-.06c.28,0,.56.1.84.12a6.85,6.85,0,0,0,.91.05h.45c.16,0,.31,0,.46,0,.3,0,.6-.07.9-.12s.58-.13.87-.22.55-.18.82-.28A5.2,5.2,0,0,0,13,19.8l.17.08a2.25,2.25,0,0,0,.42.13,8.15,8.15,0,0,0,.83.1,13.6,13.6,0,0,0,1.43,0l.12.11a1.44,1.44,0,0,0,.33.2,1.3,1.3,0,0,0,.46.11,1.06,1.06,0,0,0,.25,0,.71.71,0,0,0,.22-.05l.33-.13.3-.13c.2-.09.39-.18.57-.28a4.86,4.86,0,0,0,.54-.33l.25-.19.12-.11.1-.11a3.11,3.11,0,0,0,.3-.44l.11-.22a.14.14,0,0,0,0-.13.17.17,0,0,0-.06-.1c.06-.05.15-.1.16-.22a.15.15,0,0,0,0-.1l0,0s0,0,0,0h0s.05,0,.06-.08a.19.19,0,0,0,0-.08.12.12,0,0,0,0-.08c0-.06-.13-.12-.21-.12l0-.07s0-.06,0-.07a.13.13,0,0,0-.06-.09.26.26,0,0,0-.15,0h-.07s0,0,0,0-.11-.14-.18-.18L19,17a.5.5,0,0,0-.18,0,.21.21,0,0,0-.14.08.75.75,0,0,1-.14.12.46.46,0,0,1-.17.07,1.17,1.17,0,0,0-.25.07,3.58,3.58,0,0,0-.39.21.41.41,0,0,0-.11-.35.53.53,0,0,0-.15-.11.93.93,0,0,0,.05-.1.34.34,0,0,0,0-.2.33.33,0,0,0-.15-.2l-.13-.07-.11,0a.76.76,0,0,0-.26,0,.31.31,0,0,0-.24.09,1.1,1.1,0,0,0-.11.14.65.65,0,0,1-.11.12s-.09.07-.1.06-.06.05-.05,0l-.08,0-.14.09a2.16,2.16,0,0,0-.42.38l-.39-.27a4.71,4.71,0,0,0-1-.54,3.49,3.49,0,0,0-.64-.17,2.5,2.5,0,0,0-.32,0H13a15.78,15.78,0,0,0-1.58.13,1.06,1.06,0,0,0,.16-.19,1.55,1.55,0,0,0,.23-.4,2.13,2.13,0,0,0,.11-.5,1.6,1.6,0,0,0-.22-.91,1.55,1.55,0,0,0-.22-.29c.33,0,.67,0,1-.08l.58-.08h0a4.15,4.15,0,0,0,.36.42,3.44,3.44,0,0,0,.79.56,3.94,3.94,0,0,0,1.39.4,5.91,5.91,0,0,0,1.77-.07,4.32,4.32,0,0,0,1.76-.66,2.53,2.53,0,0,0,1-1.29,2.62,2.62,0,0,0,0-1.47A2.86,2.86,0,0,0,19.25,10.66Z"/><path class="cls-4" d="M21.86,11.11h0c-.1,0-.13,0-.1,0V11s0,0,0,0h0l.06-.06.19-.15.2-.15.43-.3c.28-.2.58-.4.86-.61l.84-.62h0l.24,0c-.45.36-.9.72-1.34,1.09l-.76.64-.19.18a2,2,0,0,1-.47,0m.49-1.5h0a9.11,9.11,0,0,1-.86.35,2.54,2.54,0,0,1-.45.13,2.43,2.43,0,0,1-.46,0c-.15,0-.26-.06-.24-.07l0-.06,0-.07,0-.05a3.93,3.93,0,0,1,.64-.44l1.47-.85a2.69,2.69,0,0,0,.38.19A4.78,4.78,0,0,0,23.7,9C23.24,9.19,22.8,9.4,22.35,9.61Zm11-1.44c-.46.16-.92.34-1.36.53L31.32,9,31,9.15a2,2,0,0,0-.3.21l-.21.23-.22.22-.46.43-.94.85,0,0v0a7.38,7.38,0,0,1-.5,1.11,3.07,3.07,0,0,1-.35.51,1.39,1.39,0,0,1-.21.21l-.09.06h-.07l0,0a.8.8,0,0,1,0-.23,2.25,2.25,0,0,1,.09-.56,7.82,7.82,0,0,1,.41-1.11l.11-.21c-.25.39-.91,1-1.19,1.36a4.53,4.53,0,0,1-.49.49c-.24.23-.35.21-.5.16,0-.07,0-.19,0-.25s.22-.41.3-.62a11.93,11.93,0,0,1,.54-1.22l.09-.23c-.29.41-1.22.92-1.58,1.31l-.29.28a4,4,0,0,1-.31.27l-.34.26-.17.11-.07,0s0,0,0-.06,0-.07,0-.07a.6.6,0,0,1,.07-.28,5.62,5.62,0,0,1,.41-.63,13,13,0,0,1,1-1.24l.56-.63-.81.48a13,13,0,0,1-1.6.91,3,3,0,0,1-.75.39c-.11,0-.35.15-.44.15a.5.5,0,0,1-.23,0c-.1-.05-.08-.19,0-.3a1.39,1.39,0,0,1,.47-.5c.25-.22.61-.43.88-.63.54-.41.92-.85,1.47-1.25L25.36,9,25,8.94q-.48-.07-1-.18l-.45-.13-.42-.15a1.79,1.79,0,0,1-.34-.19c-.09-.07-.14-.15-.13-.18s0,0,.09,0l.46.08a3.77,3.77,0,0,0,1.11.05c.36,0,.71-.11,1-.16a6,6,0,0,1,1-.07l.48,0c.16,0,.33,0,.46.07h.11a2.45,2.45,0,0,0,.51-.14l.43-.16a8.49,8.49,0,0,0,.8-.39c.26-.14.5-.27.75-.43s.46-.32.68-.48A10.52,10.52,0,0,0,31.7,5.41a10.78,10.78,0,0,0,.94-1.15l0,0a15.62,15.62,0,0,1-2.27,2.08,8,8,0,0,1-.68.45c-.23.13-.5.26-.75.39l-.78.35h0a2,2,0,0,0,.4-.36s0,0,0,0h0a2.86,2.86,0,0,1-.64.36l-.36.09a.55.55,0,0,1-.18,0,.6.6,0,0,1-.19,0,2.05,2.05,0,0,1-.7-.17,2.2,2.2,0,0,1-.31-.15,2.93,2.93,0,0,1-.26-.18A.29.29,0,0,0,25.59,7h0a5.82,5.82,0,0,1-1.92,0,1,1,0,0,1-.34-.14.67.67,0,0,1-.15-.14l.14,0,.48,0c.35,0,.71,0,1.07-.1l.28,0,.28-.07.12,0,.13,0,.21-.07a4.46,4.46,0,0,1,1-.09A6,6,0,0,0,27.93,6a4.68,4.68,0,0,0,.48-.18c.15-.07.28-.16.42-.24L29.6,5A12.87,12.87,0,0,0,31,3.91a16.53,16.53,0,0,0,2.11-2.54,0,0,0,0,0,0,0h0c-.89.76-1.69,1.56-2.5,2.35-.41.39-.78.8-1.18,1.19a5.91,5.91,0,0,1-.66.56,2.43,2.43,0,0,1-.84.4,3.7,3.7,0,0,1-1,.14,6,6,0,0,0-1.11,0,1.31,1.31,0,0,0-.27.06l-.12,0-.13,0c-.15,0-.29,0-.46.06l-1.05,0c-.18,0-.37,0-.57,0a1.93,1.93,0,0,0-.34.09.47.47,0,0,0-.18.12.37.37,0,0,0-.09.19.41.41,0,0,0,0,.16l.08.12,0,0s0,0,0,0h0l0,0,.12.1a1.76,1.76,0,0,0,.56.24,3.87,3.87,0,0,0,1.16.11,7.77,7.77,0,0,0,1-.09,1.36,1.36,0,0,0,.24.13l.26.11a6.32,6.32,0,0,0-.75.06c-.35,0-.66.11-1,.13a3.08,3.08,0,0,1-.91,0l-.53-.08h-.19a.71.71,0,0,0-.22,0,.41.41,0,0,0-.25.27.55.55,0,0,0,.27.45h0c-.29.08-.57.16-.84.26a8.41,8.41,0,0,0-.87.37,2.57,2.57,0,0,0-.78.53l-.07.11,0,.09a.29.29,0,0,0,0,.28.52.52,0,0,0,.33.18,1.66,1.66,0,0,0,.31,0,2.61,2.61,0,0,0,.53-.11,3.11,3.11,0,0,0,.46-.16,8.7,8.7,0,0,1,.9-.32l.35-.11c-.2.15-.41.29-.6.45l-.38.35-.18.19a1.08,1.08,0,0,0-.16.2.37.37,0,0,0-.07.14v.09a.26.26,0,0,0,0,.07c.09.16.32.15.42.14a1.59,1.59,0,0,0,.33-.08,2,2,0,0,0-.3.42.55.55,0,0,0-.06.22.27.27,0,0,0,.15.24,1.15,1.15,0,0,0,.66,0,5.55,5.55,0,0,0,1.07-.43c.4-.21.78-.43,1.15-.65-.2.22-.4.45-.59.69a4.87,4.87,0,0,0-.47.65.7.7,0,0,0-.12.42.62.62,0,0,0,0,.1l.05.1a.24.24,0,0,0,.11.12.46.46,0,0,0,.3.08.92.92,0,0,0,.33-.12l.21-.13.37-.26.35-.28.17-.17c0,.12-.08.25-.11.37a1.35,1.35,0,0,0-.06.35.53.53,0,0,0,0,.21.26.26,0,0,0,.08.14l0,0v0h0l.06,0h0l.08,0a.76.76,0,0,0,.16,0H26l.14,0,.16-.08.19-.14c.11-.1.2-.2.29-.29s.13-.17.19-.25,0,.08,0,.13a1,1,0,0,0,.08.35.65.65,0,0,0,.18.21.71.71,0,0,0,.42.09h.11l.2-.06a.92.92,0,0,0,.23-.14,2.34,2.34,0,0,0,.27-.28,4.38,4.38,0,0,0,.35-.57,8.37,8.37,0,0,0,.46-1.13l.85-.86.43-.45.21-.23.19-.23a1.16,1.16,0,0,1,.24-.18,2.61,2.61,0,0,1,.28-.17l.62-.32c.42-.21.86-.41,1.3-.6Z"/><path class="cls-4" d="M6.49,6s.07-.58-.8-.84S3.77,6.34,4.18,7.4c0,0,.89-.3,1.11-.72l-.36.72A2.25,2.25,0,0,0,6.49,6"/></svg>