<svg id="Capa_1" data-name="Capa 1" xmlns="http://www.w3.org/2000/svg" viewBox="0 0 33.66 20.07"><defs><style>.cls-1{fill:#fbc9b7;}.cls-2{fill:#f05050;}.cls-3{fill:#b3d335;}.cls-4{fill:#231f20;}</style></defs><title>3-11meses</title><path class="cls-1" d="M2.56,18.34a2.76,2.76,0,0,1,1.58-1.22C5.3,16.75,5.94,16,5.6,15.78A8.43,8.43,0,0,1,3,13.69c-.74-1.1-.9-2-.2-2.54A12.59,12.59,0,0,1,7.13,9.41a12.62,12.62,0,0,1,3.28.23c.13.1,1.94.81,1.94.81a3.75,3.75,0,0,1,.16,1.38c0,.8-.33,1-.25,1.54s.55,1-.26,1.59a9.59,9.59,0,0,1-1.77,1,1.76,1.76,0,0,0,1.22.36c.79,0,1.23.09,1.38.68a3.89,3.89,0,0,1,0,1.35Z"/><path class="cls-2" d="M9,14.91a4.42,4.42,0,0,1,1.21-.2.3.3,0,0,1,.25.28s.1.37-.07.47A2,2,0,0,1,9,14.91"/><path class="cls-2" d="M19.35,13.53s-1.08.11-1.24.33-.33.68-.05.85.86-.19,1-.23,1.54-1,1.54-1Z"/><path class="cls-3" d="M19.22,18.34H32.6v-6l-2.84-.13s-8.4,2.09-9.25,3.53-1.44,1.5-1.29,2.6"/><path class="cls-1" d="M24.33,17.59s-1.56-2.13-1-2.58,1-.8,1-.8l-.18-.37S22,15.26,21,15.27a2,2,0,0,1-1.43-.54l-.39-.37,1.16-.84s-1.44.13-1.7-.11a3.31,3.31,0,0,1-.43-.48,3.94,3.94,0,0,1-1.41-.26c-.46-.25-.44-.62-.19-1s.93-1.34.07-2S15.22,8.53,15.56,8a10.32,10.32,0,0,1,2.13-2.31c.34,0,5.74.73,6,.77s5.47,3.77,5.54,3.77,0,1.35.77,2,1.43,1.17,1.25,1.67a9,9,0,0,1-6.91,3.68"/><path class="cls-4" d="M18.6,9.77a.75.75,0,0,0-.3.09,1.36,1.36,0,0,0-.21-.51,1,1,0,0,1-.16.76.34.34,0,0,0,.24.06l.14,0,.25-.11s-.25.48.37.49.25-.54.25-.54l1.33.16a10.45,10.45,0,0,0-1.91-.43"/><path class="cls-4" d="M16.84,9.2A2.23,2.23,0,0,1,18,8.87,22.25,22.25,0,0,1,22,9.92c-5.06-2.65-5.12-.72-5.12-.72"/><path class="cls-4" d="M7.92,12.31A3.62,3.62,0,0,0,6,13.22s2-1,2.65-.77l.24.12s.08-.34-1-.26"/><path class="cls-4" d="M10.06,14.12a.74.74,0,0,0,.73-.15c.27-.16.12-.24-.24-.63s0-.74.3-1S12,12.14,12,12.14v-.08a1.36,1.36,0,0,0-1.75.62c-.14.54.24.72.37,1s-.56.42-.56.42"/><path class="cls-4" d="M7.71,13.35c.32.07.66-.08.6-.2A.52.52,0,0,1,8.26,13l.22,0s0-.19-.41-.12a10.89,10.89,0,0,0-1.32.38l.78-.11s-.14.16.18.24"/><path class="cls-4" d="M11.36,12.68a1.08,1.08,0,0,1,.37.08c.06-.26-.46-.2-.79-.1s-.31.2-.31.2c.4-.1,0,.14.31.2a.36.36,0,0,0,.46-.2c.06-.14-.16-.16,0-.18"/><path class="cls-4" d="M5.6,14.32l0,0Z"/><path class="cls-4" d="M4.31,14.28l-.13,0-.06,0s0,0,0-.08l0-.08h0a.19.19,0,0,0-.07.07.21.21,0,0,0,0,.12s.08.12.18.14a.47.47,0,0,0,.29,0,.22.22,0,0,0,.12-.1c0-.08,0-.12-.07-.13a.28.28,0,0,1-.14-.31.48.48,0,0,0,0-.18s-.09-.13-.13-.13l-.1-.05L4,13.43l-.22-.08a.32.32,0,0,0-.17,0,.14.14,0,0,0-.11.08.23.23,0,0,0,0,.12l0,.08h0l0-.08.05-.07s0,0,0,0l.13.08a.59.59,0,0,0,.21.1l.11,0s0,0,0,0a.64.64,0,0,0,0,.17c.07.13.11.24.17.36s0,0,0,0,0,0-.05,0"/><path class="cls-4" d="M12.9,16.86c-.08-.09-.15-.18-.24-.27a.89.89,0,0,0-.14-.13.64.64,0,0,0-.18-.13.59.59,0,0,0-.2-.09l-.05,0,0,0h0l-.1,0-.39-.09a5.15,5.15,0,0,0-.71-.11h-.17a5.77,5.77,0,0,0,.55-.29h0a5.84,5.84,0,0,0,.8-.53,2.48,2.48,0,0,0,.32-.33.83.83,0,0,0,.21-.36,1.23,1.23,0,0,0-.06-.76,1.5,1.5,0,0,1-.08-.72,1.81,1.81,0,0,1,.09-.35,2.84,2.84,0,0,0,.13-.35,3.9,3.9,0,0,0,.12-.75,4.7,4.7,0,0,0,0-.75l0-.18.06-.12c.42-.93-.51-1.94-1.54-2.49a7.08,7.08,0,0,0-4.43-.68c-2.39.17-4.6,1.89-4.88,3.52a3.22,3.22,0,0,0,.92,2.8c.27.43,1,1.55,1,1.55V14.7l.62.82v-.45l.36.49-.11-.43.11.11.17.19.17.18.17.18a.9.9,0,0,1,.14.2.22.22,0,0,1,0,.11.21.21,0,0,1,0,.11.76.76,0,0,1-.13.2h0l-.12.09-.15.07-.33.13-.34.11-.18.05L4,16.92a2,2,0,0,0-.68.4,1,1,0,0,0-.34.55l0,0a5.32,5.32,0,0,1,.61-.35L4,17.4l.3-.12.18-.06.19-.08L5,17a1.73,1.73,0,0,0,.31-.22l.12-.13a.78.78,0,0,0,.1-.15h0a1.36,1.36,0,0,0,.11-.25.53.53,0,0,0,0-.12.69.69,0,0,0,0-.13.82.82,0,0,0,0-.27.38.38,0,0,0,0-.13.67.67,0,0,0-.06-.12,1.5,1.5,0,0,0-.46-.4,1.89,1.89,0,0,0-.63-.25h0l-.35-.23c-.55-.36-1.13-1.23-.73-1.42s1.1.31,1.1.31a1.12,1.12,0,0,0,.58.64L5,13.64l.63.68a2.08,2.08,0,0,1-.48-1.5,2.71,2.71,0,0,1,1.15-1.75L5.9,12l1.86-1.32-.84,1.5L8.26,11,8,12l.74-.68-.29.62,1.16-1.09L9.27,11.9l1.36-.56-.46.48,1.42-1.14L11,11.74l1.32-1v.05L12,11.6a1.17,1.17,0,0,0,.28-.33l0,.24c0,.24-.09.48-.13.72s0,.23-.06.36a1.69,1.69,0,0,0,0,.39,3.71,3.71,0,0,0,.22.74,1.19,1.19,0,0,1,.09.36.69.69,0,0,1-.07.34,1,1,0,0,1-.25.29,3.12,3.12,0,0,1-.35.25c-.13.08-.26.16-.4.23l-.42.21h0a4.09,4.09,0,0,1-.52.23l-.57.19A5.41,5.41,0,0,1,9.2,16l-.29,0H8.6l-.28,0L8,15.92l-.6-.14c-.4-.12-.79-.26-1.17-.41l0,0a5.05,5.05,0,0,0,1,.6,3.76,3.76,0,0,0,.62.21,3.37,3.37,0,0,0,.34.09l.37.05h.36a2.31,2.31,0,0,0,.37,0,3.83,3.83,0,0,0,.69-.14l.27-.08a3.42,3.42,0,0,0,.4.17,3.31,3.31,0,0,0,.72.17l.43,0H12s0,0,0,0h0l.21,0a.47.47,0,0,1,.3.14.28.28,0,0,1,.1.25c0,.09,0,.17,0,.25a1.61,1.61,0,0,0,0,.22,2.43,2.43,0,0,0,.05.35.71.71,0,0,0,0,.15h.05A.87.87,0,0,0,13,17.4a.57.57,0,0,0,0-.26.64.64,0,0,0-.15-.28"/><path class="cls-4" d="M8.82,15.78c.06,0,.76,0,.71-.22a1.18,1.18,0,0,0-.51,0c-.16.08-.25.2-.2.22"/><path class="cls-4" d="M10,15.1h0l-.19-.33h.34s.3.31.16.55-.52,0-.86-.22L9.29,15l.25-.12c.26-.12.47.24.47.24m-1,0a2.22,2.22,0,0,0,1.38.5c.44-.12.08-.78.08-.78l.15-.09a6.44,6.44,0,0,0-2.17.18C8,15,8.69,15.05,9,15.05Z"/><path class="cls-4" d="M29.84,12h0l.4.07-.32.08a.55.55,0,0,1-.08-.15m.59.78h0c.37.25.68.52.64.82a1.87,1.87,0,0,1-.48.92,5.62,5.62,0,0,1-.41.44c-.15.15-.28.28-.46.43a5.27,5.27,0,0,1-.49.4c-.17.13-.36.24-.55.36a10.39,10.39,0,0,1-1.25.62,9,9,0,0,1-2.82.68c-.2-.26-.37-.53-.54-.79a5.23,5.23,0,0,1-.46-.87,1.42,1.42,0,0,1-.11-.44,1.48,1.48,0,0,1,0-.21.59.59,0,0,1,.09-.2,1.3,1.3,0,0,1,.15-.2l.17-.21a1.12,1.12,0,0,1,.18-.2c.06-.06.15-.14.2-.14h0l1,1.78s.54-.77-1.06-2a12,12,0,0,0,1.09-.7,2.85,2.85,0,0,0,.75-.76,1,1,0,0,0,.17-.47.5.5,0,0,0,0-.21h.27a1.22,1.22,0,0,0,.58-.23,1.59,1.59,0,0,0,.29-.29,14.31,14.31,0,0,0,2.27.69h.06l.05,0a.49.49,0,0,0,.16.39A5.24,5.24,0,0,0,30.43,12.81Zm-7.24,1.47h0l-1.12.45a4.25,4.25,0,0,1-.53.19A3.45,3.45,0,0,1,21,15a2.58,2.58,0,0,1-1.09-.13.29.29,0,0,1-.14-.09s0-.08,0-.16a.19.19,0,0,0-.1-.19.76.76,0,0,0-.18-.06h0c.16-.14.32-.26.5-.39s.53-.36.81-.53h0a.77.77,0,0,0,.38-.25.07.07,0,0,0,0-.09.19.19,0,0,0-.19,0h0l-.66.34h0a4.33,4.33,0,0,1-.88,0,3.4,3.4,0,0,1-.45,0l-.21,0h-.1l-.06,0a.36.36,0,0,1-.11-.25,1.4,1.4,0,0,1,0-.29h0c0-.05-.06-.09-.13-.09h0A4.55,4.55,0,0,1,17,12.59a.56.56,0,0,1-.38-.24c-.05-.11,0-.23.08-.38a7.42,7.42,0,0,0,.58-.93,1.29,1.29,0,0,0,.09-.82,2.31,2.31,0,0,0-.1-.28l-.17-.25-.23-.24-.47-.38A2.28,2.28,0,0,1,16,8.69h0A8.44,8.44,0,0,1,17.48,7c.36.25.88.59,1.6,1A15.82,15.82,0,0,0,25.2,10.4a22.18,22.18,0,0,1-3.08-1.51,10.75,10.75,0,0,1,2.95,1.2,10.21,10.21,0,0,0,1.82,1,1.15,1.15,0,0,1-.21.23.69.69,0,0,1-.3.14.65.65,0,0,1-.34,0l-.51-.17.18.36a.84.84,0,0,1,.11.38.9.9,0,0,1-.07.39,2.31,2.31,0,0,1-.6.75A7.17,7.17,0,0,1,23.19,14.28Zm-4.57.25h0a.69.69,0,0,1-.25,0l-.16,0h0a.5.5,0,0,1,0-.18,1.05,1.05,0,0,1,.06-.24.42.42,0,0,1,.13-.18.61.61,0,0,1,.28-.1,3.11,3.11,0,0,1,.44-.07l-.1.07a1.13,1.13,0,0,0-.28.3h.05a1.38,1.38,0,0,1,.33-.23l.39-.2s.05,0,.05-.06,0,0,0,0h.55l-.36.19a4.13,4.13,0,0,0-.59.41A1.86,1.86,0,0,1,18.62,14.53Zm-.47,0ZM31.22,12.4c.34,0,.67,0,.93,0h.45a1.32,1.32,0,0,0-.37-.19,2.63,2.63,0,0,0-.36-.1h0l-.1,0c.5-.22-.24-.62-.81-.86a5.58,5.58,0,0,0,.27-3C31,6,30,3.86,28.6,3a3.62,3.62,0,0,0-3-.2,7.74,7.74,0,0,0-6.25-.62A6.29,6.29,0,0,0,14.43,8a1.28,1.28,0,0,0,1.43,1.24s0,0,0-.05a.8.8,0,0,0,.13.13l.45.4.15.18c0,.07.08.14.13.2l.08.21,0,.22a1.44,1.44,0,0,1-.09.44,8.8,8.8,0,0,1-.51.92,1.08,1.08,0,0,0-.1.27.43.43,0,0,0,0,.16v.05s0,0,0,0v0l0,.06a1,1,0,0,0,.67.41,5.05,5.05,0,0,0,1.39.07,1.66,1.66,0,0,0,0,.22.65.65,0,0,0,.2.33.46.46,0,0,0,.14,0l.12,0h.12l-.3,0a1.29,1.29,0,0,0-.44.13.7.7,0,0,0-.27.28,1.21,1.21,0,0,0-.11.3.55.55,0,0,0,0,.35.23.23,0,0,0,.07.08l.06,0,.05,0H18l.05,0,.24,0a1.07,1.07,0,0,0,.53,0,1.42,1.42,0,0,0,.54-.32l0,0,.09.06s0,0,0,0l-.05.09v0l0,0a.45.45,0,0,0,0,.12.55.55,0,0,0,.28.24,2.44,2.44,0,0,0,1.1.23,3.45,3.45,0,0,0-.55.36A2.83,2.83,0,0,0,20,16a3,3,0,0,0-.23.27,2.55,2.55,0,0,0-.47,1.06,1.94,1.94,0,0,0,0,.36.79.79,0,0,0,0,.14s.15-.18.33-.44.19-.29.3-.45.12-.17.17-.25l.19-.26c.11-.17.26-.33.38-.48s.27-.29.39-.4.13-.12.18-.17a3.39,3.39,0,0,0,.57-.1,3.61,3.61,0,0,0,.59-.25c.34-.17.69-.35,1-.54l.83-.47.12.21a.29.29,0,0,0-.17,0L24,14.3a2.2,2.2,0,0,0-.25.17l-.22.19-.22.21a.7.7,0,0,0-.15.25.76.76,0,0,0-.06.26,1.43,1.43,0,0,0,.07.51,3.17,3.17,0,0,0,.48.93,5.38,5.38,0,0,0,.76.83l.06.06h.08c.53-.1,1-.21,1.53-.33s1-.25,1.49-.4q.38-.11.72-.24c.24-.09.46-.2.69-.3a6.61,6.61,0,0,0,1.19-.78,5.15,5.15,0,0,0,.5-.43,4.91,4.91,0,0,0,.43-.48,1.77,1.77,0,0,0,.48-1.12.82.82,0,0,0-.31-.58,2.42,2.42,0,0,0-.6-.4c-.21-.12-.42-.22-.6-.34L30,12.24l.29.06A7.76,7.76,0,0,0,31.22,12.4Z"/><path class="cls-4" d="M5.9,7.55s.48-.64-.77-1A2.63,2.63,0,0,0,2.27,7.71a5.46,5.46,0,0,0-.54,1.73l.82-.58L2,9.44a5.9,5.9,0,0,0,1.67-.29A6.06,6.06,0,0,0,5.9,7.55"/></svg>