<svg id="Capa_1" data-name="Capa 1" xmlns="http://www.w3.org/2000/svg" viewBox="0 0 29.66 20.47"><defs><style>.cls-1{fill:#fc5;}.cls-2{fill:#8cd4dd;}.cls-3{fill:#fbc9b7;}.cls-4{fill:#231f20;}</style></defs><title>4-11meses</title><path class="cls-1" d="M30.2,20.66,9.11,14.76S-1.3,15,1.81,17.53s22.57,2.94,22.57,2.94Z"/><path class="cls-2" d="M9.32,17.07s.65-.43,3.81-.51a36.69,36.69,0,0,1,6.94.31c.28.18-1.76,1.1-2.28,1.47s-2.55.48-3.51.57a8,8,0,0,1-3-.7,19.29,19.29,0,0,1-2-1.14"/><path class="cls-3" d="M12.06,16.41s.89.43.77.67-1.28.25-1.6,0a.94.94,0,0,1-.3-.74s.6-1.1,1.21-1.09,2.52.45,3.11.21S17,14.85,17,14.85l-.26-1.31s-1.26-.45-1.13-.92A10,10,0,0,1,16,11.33c.14-.24.12-.61.48-.61s.34.25.29.39.33.76.57.68.19-.49.46-.43.29.24.33.58a3.07,3.07,0,0,1-.05.79,9.24,9.24,0,0,1,.78.57,1.61,1.61,0,0,0,.57.31s0-.42.76-.64,1.45-.52,1.45-.52.47-.23.32-.44a1.06,1.06,0,0,0-.43-.31,14.63,14.63,0,0,1-2,.37c-.58,0-.84-.53-1-.56s-.18-.34-.39-.48a2.87,2.87,0,0,1-.57-.52c-.14-.17-.51-.17-.6-.34s.24-.5-.05-.94-1-.65-1.1-.8-1.57-1.56-.9-2.6S18.39,4.09,18.58,4s7.13,1.49,7.2,1.89-.31,2-.31,2.45-.41,1.3-.3,1.62a4.92,4.92,0,0,0,1.58,2.28A5.32,5.32,0,0,1,29,15.93a25.49,25.49,0,0,1-.55,3.78l-.07.35-9-2.44-.33,0,1-.72a18.16,18.16,0,0,0-3.54-.4,10.52,10.52,0,0,0-2.41,0,8.17,8.17,0,0,1-2.06-.06"/><path class="cls-4" d="M15,8.18h0l0,.11Z"/><path class="cls-4" d="M17.14,8.11c-.69.13-.3.58-.3.58s.12-.56,1-.47a14.17,14.17,0,0,0,1.63.07,8.86,8.86,0,0,0-2.31-.18"/><path class="cls-4" d="M17.76,8.67c-.41.08-.18.27-.18.27s.14-.08.14-.08.29.33.61.21-.06-.34-.06-.34L19,8.68a4.74,4.74,0,0,0-1.19,0"/><path class="cls-4" d="M18.15,9.9s.13.17,0,.23-.2-.05-.29,0-.12.18.18.1.3-.3.09-.35"/><path class="cls-4" d="M28.11,19.85h0l-3.64-1-3.63-1c-.12,0-.23-.08-.35-.1l-.34-.05-.56-.08-.37,0a6.22,6.22,0,0,1,.76-.43,0,0,0,0,0,0,0l.19-.05.17-.06a.2.2,0,0,0,.13-.14s0,0,0-.05q1.14,0,2.28-.09c.33,0,.67-.05,1-.09l1-.13c.33-.05.66-.12,1-.19l.47-.13.43-.18s0,0,0,0h0l-.45.14-.47.09c-.33.06-.65.1-1,.13l-1,.08-1,0c-1.28,0-2.57,0-3.85,0a4.33,4.33,0,0,1-1.4-1.31,3.13,3.13,0,0,1-.38-.81A2.13,2.13,0,0,1,17,14a2,2,0,0,1,0-.42h0a.16.16,0,0,0-.11-.14h0a4.08,4.08,0,0,1-.67-.28,1.07,1.07,0,0,1-.44-.39.5.5,0,0,1,.11-.48,1.1,1.1,0,0,0,.23-.57c0-.19,0-.38,0-.56s.24-.3.45-.33,0,.23.1.41a1.3,1.3,0,0,0,.3.55l.14.12a.43.43,0,0,0,.27.06c.2-.09.18-.2.22-.29a.54.54,0,0,1,.12-.24h.07a.23.23,0,0,1,.1.07A.85.85,0,0,1,18,12a1.24,1.24,0,0,1,0,.27.83.83,0,0,0-.09.29.89.89,0,0,0,.41.58l.31.21.32.17a2.22,2.22,0,0,1,.46.41,5.58,5.58,0,0,1,.37.48h0a.3.3,0,0,0,.18.08,8,8,0,0,0,.85,0,7.93,7.93,0,0,0,.84-.07c.14,0,.28,0,.42-.08a2,2,0,0,0,.4-.11l.38-.14a3.87,3.87,0,0,0,.34-.21,1.94,1.94,0,0,0,.25-.23l.22-.24a1.59,1.59,0,0,1,.24-.2,1.41,1.41,0,0,1,.29-.18,2.76,2.76,0,0,1,.68-.27,3.88,3.88,0,0,1,.78-.09l0,0s0,0,0,0a3.32,3.32,0,0,0-1.6.26,2.74,2.74,0,0,0-.34.19,2.16,2.16,0,0,0-.29.21l-.24.23a1.57,1.57,0,0,1-.25.2,2,2,0,0,1-.29.15l-.33.12-.36.09c-.12,0-.25,0-.38.06a5.37,5.37,0,0,1-.7,0l.15-.42.21-.59a4,4,0,0,1,.91-1,.07.07,0,0,0,0-.07.72.72,0,0,0-.12-.27.5.5,0,0,0-.36-.23.89.89,0,0,0-.43.1l-.32.1a3.82,3.82,0,0,1-.69.11h-.72a.75.75,0,0,1-.28,0,.18.18,0,0,1-.14-.11c0-.06,0-.14-.14-.28a.3.3,0,0,0-.17-.08l-.09,0h0l-.09,0a.23.23,0,0,1-.12-.12.11.11,0,0,1,0-.05h0a.88.88,0,0,0,.37-.21.86.86,0,0,0,.2-.27.13.13,0,0,0-.07-.16.29.29,0,0,0-.3,0h0a.69.69,0,0,1-.46.17.9.9,0,0,1-.25,0,.14.14,0,0,1-.09-.06v0h0v-.12a.17.17,0,0,0,0-.14.34.34,0,0,0-.2-.12l-.11,0-.18,0a1.37,1.37,0,0,1-.29-.07c-.06,0-.06,0-.07-.08a1.17,1.17,0,0,1,.16-.42.7.7,0,0,0,.09-.29A.44.44,0,0,0,17.06,9a6.51,6.51,0,0,0-1-.76c-.17-.12-.35-.24-.49-.36a1.86,1.86,0,0,1-.35-.4,2.21,2.21,0,0,1-.33-.94v0L16.7,7.8l-.87-1.45,1.07.74L16,6l1.77,1,1,.65-1-1.3,1.46,1.06L18.6,6.5l1.62.91,1,.5-.51-.63,1.11.6-.55-.71c-.36-.58-.19-.35-.19-.35a2,2,0,0,0,.73.67,1.4,1.4,0,0,1,.08,1.13l.33-.5v.06h0l.09.5c.4-.6.44-.75,1.09-.89h0l.05.06a.61.61,0,0,1,.18.27,1.1,1.1,0,0,1-.24,1.15.87.87,0,0,1-.23.16L23,9.53l-.22,0v0l.24,0,.26-.07a1.4,1.4,0,0,0,.29-.16,1,1,0,0,0,.26-.24A1.39,1.39,0,0,0,24,8.81a1.24,1.24,0,0,0,.07-.74A1,1,0,0,0,24,7.73a.92.92,0,0,1,.75.58l.23.83a3.4,3.4,0,0,0,.11,1.64,1.89,1.89,0,0,0,.73,1c.35.23.7.46,1,.71a5.4,5.4,0,0,1,1.41,1.67,5.55,5.55,0,0,1,.55,1.92,8.28,8.28,0,0,1,0,2,10.49,10.49,0,0,1-.36,1.89l-.27-.08m-9.42-2.12h0a7.52,7.52,0,0,1-1.2.61,5.59,5.59,0,0,1-1.37.32c-.23,0-.49.05-.74.06s-.49,0-.73,0a8.69,8.69,0,0,1-1.45-.13,5.32,5.32,0,0,1-1.3-.39,3.26,3.26,0,0,1-.55-.31,6.35,6.35,0,0,0-.55-.38l-.31-.15,1.1.08c.76.05,1.53.08,2.29.1s1.53,0,2.29-.05,1.52-.07,2.29-.14l1.14-.13.21,0a3.89,3.89,0,0,0-.51.21C19.08,17.51,18.88,17.62,18.69,17.73Zm-7.56-1h0a1,1,0,0,0,.17,0,2.26,2.26,0,0,0,.34-.09,2.36,2.36,0,0,0,.28-.12l.29.18.2.13.2.14.07.06a.28.28,0,0,1-.15.13.76.76,0,0,1-.34.06.77.77,0,0,1-.34-.08L11.6,17l-.2-.1A1.59,1.59,0,0,1,11.13,16.72Zm1.91,0h0a.71.71,0,0,0-.13-.12,1.29,1.29,0,0,0-.16-.09,2,2,0,0,0-.31-.12l-.27-.05.15-.1a.6.6,0,0,0,.08.08,1,1,0,0,0,.43.17.88.88,0,0,0,.28,0h0s0,0,0,0l1.14,0c.38,0,.76,0,1.13,0,.76,0,1.51.08,2.26.14l.92.1h0a.33.33,0,0,0,.15.05H19l.62.07-.14,0-1.1.19a26.14,26.14,0,0,1-4.52.27c-.57,0-1.13-.05-1.7-.1.13,0,.27,0,.42,0a.64.64,0,0,0,.47-.16A.29.29,0,0,0,13,16.75Zm-1.56-.85h0a2.61,2.61,0,0,1,.23-.3,1.19,1.19,0,0,1,.85-.25,6.3,6.3,0,0,1,1,.14l.56.08a3.62,3.62,0,0,0,.57,0,6.51,6.51,0,0,0,2-.62h0a2.73,2.73,0,0,0,.22.41A4.06,4.06,0,0,0,18,16.46l-.33,0c-.76-.06-1.53-.08-2.3-.07a20.36,20.36,0,0,0-2.08.14,1.6,1.6,0,0,0,.35-.12s0,0,0,0h0l-.39,0a1.11,1.11,0,0,1-.34-.05.66.66,0,0,1-.23-.15l-.07-.1L12.58,16s0,0-.05-.06a.27.27,0,0,0-.31,0h0a5.63,5.63,0,0,1-.82.4l-.16.05h0a.43.43,0,0,1,0-.13A2.49,2.49,0,0,1,11.48,15.9Zm6.88-4.69Zm2.39,3h0l-.67,0a3.46,3.46,0,0,0-.34-.44l-.22-.21.24-.1c.26-.1.58-.25.88-.4l.69-.36a2.07,2.07,0,0,0-.31.48c-.07.21-.11.4-.16.6l-.11.45Zm-2.14-2.52Zm0,0h0l.08.2a.52.52,0,0,0,.34.26,1.37,1.37,0,0,0,.44.06h.39l.38,0A3.78,3.78,0,0,0,21,12a2.06,2.06,0,0,0,.35-.12l.16-.06c.07,0,.06,0,.09,0a.24.24,0,0,1,.16.11,1.14,1.14,0,0,1,.1.19,3.19,3.19,0,0,0-.26.26l-.25,0a3.59,3.59,0,0,0-1,.34,3.11,3.11,0,0,0-.77.53l-.15.17-.24-.18c-.15-.08-.24-.1-.35-.16l-.29-.17c-.18-.12-.34-.27-.36-.41a2.24,2.24,0,0,1,.05-.26.94.94,0,0,0,0-.29,1.13,1.13,0,0,0-.12-.47.81.81,0,0,0,.18.12.86.86,0,0,0,.27.05Zm-4-5.33h0v.07Zm14.63,14-.48-.2-.3-.13h0A9.63,9.63,0,0,0,29.11,16a5.16,5.16,0,0,0-.49-2,5.26,5.26,0,0,0-1.44-1.8c-.33-.27-.69-.5-1-.74a1.57,1.57,0,0,1-.59-.79,3.78,3.78,0,0,1,0-1.74l0,.15c.17-1,2.79-1.37,1.54-3.9s-5.17-3.18-6.79-3a8.34,8.34,0,0,0-5.2,2.37A2.65,2.65,0,0,0,15,8.17l-.15-.75.08.15a1.78,1.78,0,0,0,.37.47c.16.15.33.26.49.39a7.39,7.39,0,0,1,.92.73c.22.19-.17.47-.2.9a.33.33,0,0,0,.09.19.56.56,0,0,0,.2.14,2.9,2.9,0,0,0,.4.1l.16,0v.17c0,.16.19.27.35.32a1.4,1.4,0,0,0,.34.05l0,.06a.33.33,0,0,0,0,.2h0a.37.37,0,0,0-.44,0,.54.54,0,0,0-.14.3c0,.08-.07.19-.12.2s-.15,0-.22-.13a1.12,1.12,0,0,1-.27-.5.62.62,0,0,1,0-.27s0,0,0-.07a.18.18,0,0,0,0-.1c-.05-.08-.19-.09-.27-.08a.8.8,0,0,0-.4.15.46.46,0,0,0-.22.28c0,.2,0,.39-.05.57a1,1,0,0,1-.25.5.66.66,0,0,0-.17.61,1.25,1.25,0,0,0,.49.53,4.51,4.51,0,0,0,.57.31,2.41,2.41,0,0,0,0,.38,3.85,3.85,0,0,0,.08.47,3.75,3.75,0,0,0,.17.47h0c-.71.11-1.39.25-2.06.34l-.5,0a4.21,4.21,0,0,1-.51,0c-.36,0-.72,0-1.08-.06a3.66,3.66,0,0,0-.57,0,1.21,1.21,0,0,0-.55.19,3.83,3.83,0,0,0-.35.3,3,3,0,0,0-.28.34,1.39,1.39,0,0,0-.11.21.28.28,0,0,0,.12.34l.07,0s0,0,0,.08a.49.49,0,0,0,.2.35.8.8,0,0,0,.26.14l-.85-.1c-.36-.06-.74-.12-1.08-.2h0a.3.3,0,0,0-.28.06c-.06.08,0,.17.08.22h0a9.52,9.52,0,0,1,1.2.57,4.6,4.6,0,0,1,.51.37,3.8,3.8,0,0,0,.63.35,5.52,5.52,0,0,0,1.48.44,9.23,9.23,0,0,0,1.57.12c.27,0,.52,0,.79,0L16.2,19a5.69,5.69,0,0,0,1.47-.41,7.7,7.7,0,0,0,1.17-.7l.34-.23.34.15L20,18l.3.13.35.1,3.64,1,3.63,1a2.25,2.25,0,0,0,.35.09l.35.05.55.08.49.07S29.51,20.39,29.24,20.28Z"/><path class="cls-4" d="M24.49,3.5c-.26-.43-1-1.27.7-1.55a3,3,0,0,1,3.26,1.83,9.18,9.18,0,0,0,1.21,1.71A9.3,9.3,0,0,1,26.87,4a5.16,5.16,0,0,0,1.28,1.25s-2.55,0-3.66-1.79"/></svg>