<svg id="Capa_1" data-name="Capa 1" xmlns="http://www.w3.org/2000/svg" viewBox="0 0 20.16 21.6"><defs><style>.cls-1{fill:#f8992f;}.cls-2{fill:#f5a4c7;}.cls-3{fill:#fbc9b7;}.cls-4{fill:#231f20;}</style></defs><title>5-11meses</title><path class="cls-1" d="M15.84,17.47c-1.05.13-2.39,1-1.43,2.24s3.21.81,3.51.5a1.4,1.4,0,0,0-.43-2.46,2.36,2.36,0,0,0-1.65-.28"/><path class="cls-2" d="M9.67,11.36s-2.75.09-3,1.23,2,2,2,2l3.25-.2s1-.81.92-1.4-3.14-1.6-3.14-1.6"/><path class="cls-3" d="M.31,1.71,2.18,4.39A5.3,5.3,0,0,1,3.17,6c.21.73.47,1.81.47,1.81s2,.6,2.2.64a2.75,2.75,0,0,0,.66,0,17.86,17.86,0,0,0,2.64-.57c.92-.33.51-.4.51-.4A2,2,0,0,1,8.71,6C8.58,5,12,3.28,13.18,3.7a5,5,0,0,1,1.76.93,1.53,1.53,0,0,0-.26,1.27c.15.79.57,1.2.12,1.57a7.91,7.91,0,0,1-1.49.8s1.4,1.27,1.57,1.48a11.26,11.26,0,0,0,2,.92c.47.18.56,1,.47,1.5s-1.08.53-1.12.53-.74-.22-.74-.22a2.91,2.91,0,0,1-.63-.21s.31-.42.18-.59a1.57,1.57,0,0,0-.35-.34l-1.36-.81a6.19,6.19,0,0,1-.09,1.68,1.82,1.82,0,0,1-1.76,1c-1.12,0-4-.52-4-1.23s.61-1.11.61-1.4V9.87a16.53,16.53,0,0,1-2.64.34A21.71,21.71,0,0,1,2.89,9c-.07,0-.73,0-.73,0L1.31,9,.94,9l-.51.11Z"/><path class="cls-3" d="M11.15,14A20.17,20.17,0,0,0,9,13.14c-.61-.16-2.3-.31-1.69.82s1.17,1.33,1.17,1.33,0,0-.6.38-.72,1.22-1.07,1.48-.91.59-.77.89,1.43,1,1.54,1.18a.76.76,0,0,0,.61.36c.3.06.28-.07.81-.09s1-.17,1-.38-.27-.32-.66-.5a3.7,3.7,0,0,1-.88-.85,5.54,5.54,0,0,1,.69-.63c.27-.19,1.12-.7,1.12-.7a6.43,6.43,0,0,0,0,1.43,3,3,0,0,1,0,1.16c-.05.34-.24.52-.13.65s.89,1.27,1.25,1.3a4,4,0,0,0,1.5.1c.58-.14,1-.23,1-.46s-.44-.48-.74-.67-.91-.84-.74-1.27,1.06-1.72.79-2.37A5.43,5.43,0,0,0,11.15,14"/><path class="cls-4" d="M12.45,5.92,12.6,6s.06-.22-.61-.17a2.39,2.39,0,0,0-1.24.59s1.28-.66,1.7-.5"/><path class="cls-4" d="M12.24,6.37a.31.31,0,0,1,0-.11h.14s0-.13-.26-.08a8,8,0,0,0-.85.25l.5-.08s-.09.11.12.16.42,0,.38-.13"/><path class="cls-4" d="M13.93,6.06c-.22.06-.2.13-.2.13.25-.07,0,.08.2.12a.23.23,0,0,0,.29-.12c0-.09-.1-.11,0-.12a.54.54,0,0,1,.24,0c0-.17-.29-.13-.5-.06"/><path class="cls-4" d="M11.89,7.3a1,1,0,0,0,.62.27,1.65,1.65,0,0,0,1-.06c.13-.13.09-.22.24-.28a3.73,3.73,0,0,1-1,.13c-.46,0-.84-.06-.84-.06"/><path class="cls-4" d="M12.73,7.75c-.39-.09-.64,0-.46.1s.87,0,.46-.1"/><path class="cls-4" d="M10.5,7.12l0,0Z"/><polyline class="cls-4" points="7.71 11.97 7.71 11.97 7.71 11.98 7.71 11.97"/><path class="cls-4" d="M15.88,11.34v0h0v0"/><path class="cls-4" d="M15.84,11.44h0"/><path class="cls-4" d="M12.46,20.88a.36.36,0,0,0-.19-.21l-.13-.06a.24.24,0,0,0,0,.11c0,.05,0,.13,0,.18l0,0a.11.11,0,0,1-.07,0L12,21a.35.35,0,0,0,.14.07.39.39,0,0,0,.21,0,.19.19,0,0,0,.09-.09.31.31,0,0,0,0-.09"/><path class="cls-4" d="M12.9,20.7a.52.52,0,0,0-.12-.09.35.35,0,0,0,0,.12.66.66,0,0,1,0,.2s0,0,0,0l-.12,0h-.17a.36.36,0,0,0,.14.09.55.55,0,0,0,.21,0l.14-.05A.26.26,0,0,0,13,21a.21.21,0,0,0,0-.16.52.52,0,0,0-.08-.11"/><path class="cls-4" d="M13.19,20.49a.94.94,0,0,0,0,.12l.07.22s0,.06,0,.06,0,0,0,0l-.16,0a.36.36,0,0,0,.16.07h.11a.21.21,0,0,0,.13-.05.18.18,0,0,0,0-.19c-.06-.21-.33-.3-.33-.3"/><path class="cls-4" d="M10.75,13.5h0a6.22,6.22,0,0,0-1.52-.44C9,13,8.69,13,8.43,13L8,13a1,1,0,0,0-.44,0,.59.59,0,0,0-.27.24.76.76,0,0,0-.09.28c0,.05,0,.09,0,.14L7,13.49a1.74,1.74,0,0,1-.11-.18.84.84,0,0,1-.08-.2,1,1,0,0,1,0-.42A1.55,1.55,0,0,1,7,12.28a1.79,1.79,0,0,1,.28-.35v0a.38.38,0,0,0,.15.26,2.94,2.94,0,0,0,1.06.53c.39.14.8.26,1.23.37a8.17,8.17,0,0,0,1.37.22,3.57,3.57,0,0,0,.73,0,4.3,4.3,0,0,0,.69-.16l.24-.09a2.21,2.21,0,0,1-.34.5,3.89,3.89,0,0,1-.36.34l-.22.18a5.78,5.78,0,0,0-1.07-.59M7.71,12h0l0,0h0l0,0,0-.05A1.14,1.14,0,0,0,8,11.49a3.5,3.5,0,0,0,.17-1.16c0-.13,0-.23,0-.31l.52-.09.21,0h.07l0,0-.07-.05a1.11,1.11,0,0,0-.24-.05,4.25,4.25,0,0,0-.83,0l-.53.06c-.19,0-.37.09-.57.14a5.47,5.47,0,0,1-.61.13,1.38,1.38,0,0,1-.61,0A4.15,4.15,0,0,1,5,9.87c-.18-.07-.35-.16-.51-.24L4,9.4l-.43-.2L3,8.93a3.1,3.1,0,0,0,.58-.24.82.82,0,0,0,.35-.32A.39.39,0,0,0,4,8.17.85.85,0,0,0,4,8H4l.31.14.17.05.15,0,.59.2.28.1.13.06.11.05.12.06h.09c.36-.05.7-.15,1-.23l.52-.1c.18,0,.36,0,.55-.05a3.32,3.32,0,0,0,.55-.09,4,4,0,0,0,.49-.16,3.59,3.59,0,0,0,.62-.31l.08.11V7.73l.06,0,.17.23-.07-.3h0a6,6,0,0,0,.6.36,5,5,0,0,0,1.09.39,3.09,3.09,0,0,0,.62.1l.31,0h.31a3,3,0,0,0,.52-.06l.38.33a2.91,2.91,0,0,1,.43.43l.07.11a1.3,1.3,0,0,0,.1.15,2.11,2.11,0,0,0,.27.25,5.32,5.32,0,0,0,.65.39h0a4.12,4.12,0,0,1,1.44.63,1.12,1.12,0,0,1,.25.23.38.38,0,0,1,.08.11.35.35,0,0,1,0,.12,1.75,1.75,0,0,1,0,.56,1.27,1.27,0,0,1-.16.51.47.47,0,0,1-.4.27h-.36a1.68,1.68,0,0,1-.32-.09.86.86,0,0,1-.18-.14l.14.05.18,0a1.37,1.37,0,0,0,.36,0,.58.58,0,0,0,.25-.11.12.12,0,0,0,.07-.07l0,0-.09,0-.19-.06a1.07,1.07,0,0,0-.27-.06h-.31a.21.21,0,0,1-.17-.08.29.29,0,0,1-.05-.18v0a1.14,1.14,0,0,0,.35,0,3.08,3.08,0,0,0,.75-.06v0a6.15,6.15,0,0,1-.69-.12.41.41,0,0,1-.21-.09s0,0,0,0h0l0-.07h0s0,0,0,0l.23-.15v0a.62.62,0,0,0-.39-.07.46.46,0,0,0-.22.06.25.25,0,0,0-.1.08.1.1,0,0,0,0,.05l0,0,0,.07a.25.25,0,0,0,0,.12.3.3,0,0,0,.15.18l-.05.07a.38.38,0,0,0-.07.22s-.08,0-.09-.07l0-.07s0-.06,0-.1,0-.07,0-.1a.28.28,0,0,1,0-.09,1.65,1.65,0,0,1,.16-.42,1.59,1.59,0,0,0,.11-.23,1.17,1.17,0,0,0-.34.11.91.91,0,0,0-.38.35s0,0-.07-.06-.3-.22-.48-.35a5.06,5.06,0,0,0-.54-.36l-.15-.08a3.29,3.29,0,0,0-.1-.37c-.05-.19-.1-.35-.15-.49s-.18-.42-.18-.42H13s0,.16,0,.43,0,.3,0,.5,0,.4,0,.63a4.91,4.91,0,0,1,0,.75,3,3,0,0,1-.13.79,1,1,0,0,1-.67.59,3.8,3.8,0,0,1-.59.17,3.88,3.88,0,0,1-.62.08,5.57,5.57,0,0,1-2.49-.49,2.66,2.66,0,0,1-.83-.56.29.29,0,0,1,0-.1h0ZM2.16,9ZM9.76,7.6h0v0h0Zm5-.87h0a1.82,1.82,0,0,0,.08.19s0,.06,0,.08l0,.08a.87.87,0,0,1-.22.33,1.85,1.85,0,0,1-.33.29,2,2,0,0,1-.43.23,3.26,3.26,0,0,1-1,.26,5.15,5.15,0,0,1-.56,0,3.64,3.64,0,0,1-.56-.05,4.36,4.36,0,0,1-1.94-.82h0l-.16-.1a.4.4,0,0,0,.19,0,.2.2,0,0,0,.08-.08c0-.07,0-.1,0-.1a.16.16,0,0,1-.09-.19.21.21,0,0,0,0-.12s-.08-.1-.1-.11l-.06,0-.11,0a.44.44,0,0,0-.15,0,.19.19,0,0,0-.13,0,.14.14,0,0,0-.09.06.13.13,0,0,0,0,.09l0,0h0l0,0,0,0s0,0,0,0,0,0,0,0l.07,0a.46.46,0,0,0,.14.07l.08,0s0,0,0,0a.48.48,0,0,0,.05.11,2.4,2.4,0,0,1,.11.23s0,0,0,0H9.61s0,0,0,0l0,0,0-.06h0a.14.14,0,0,0-.06,0,.1.1,0,0,0,0,.08l0,0L9.19,7c-.18-.24-.27-.49-.11-.57s.71.21.71.21c.05.25.37.4.37.4l-.06-.3.4.43a1.34,1.34,0,0,1-.3-1A1.7,1.7,0,0,1,10.93,5l-.23.57,1.19-.84-.54,1L12.21,5l-.15.64.48-.44-.19.4.74-.7-.23.7.87-.36-.3.31.91-.73L14,5.47l.8-.59-.09.21a1.22,1.22,0,0,0-.12.4v.17a.87.87,0,0,0-1.09.41c-.1.34.15.46.23.66s-.35.26-.35.26c.24.06.28,0,.46-.1s.08-.15-.15-.4,0-.47.19-.67.6-.12.71-.1,0,.12,0,.19A3,3,0,0,0,14.74,6.73Zm.39,5.35h0L15.05,12h0a.39.39,0,0,0,.3,0,.38.38,0,0,0,.09.13.4.4,0,0,0,0,.11.21.21,0,0,0,0,.07l-.09-.05A1.71,1.71,0,0,1,15.13,12.08Zm-4.84,6.55h0a.65.65,0,0,1-.16.29l0,.06s0,0,0,0a.35.35,0,0,0-.16-.28,1.19,1.19,0,0,0-.15-.09l-.16-.07-.13-.05-.11-.05a1.92,1.92,0,0,1-.51-.27.79.79,0,0,1-.25-.33,3.9,3.9,0,0,0,.49-.28,3.5,3.5,0,0,0,1.11-.95,8.27,8.27,0,0,0-.11,1,1.29,1.29,0,0,0,0,.39.8.8,0,0,0,.07.2l.07.17A.61.61,0,0,1,10.29,18.63Zm-.38.55Zm3.93,1.13a4.16,4.16,0,0,0-.49-.36,1.21,1.21,0,0,1-.41-.4A2.27,2.27,0,0,1,12.7,19a1.14,1.14,0,0,1,0-.66,1.4,1.4,0,0,1,.35-.64,3.12,3.12,0,0,0,.43-.66,1.26,1.26,0,0,0,.1-.74,1.51,1.51,0,0,0-.14-.35l-.19-.29a4,4,0,0,0-.41-.51,3.68,3.68,0,0,0-.84-.66h0l.22-.18.19-.19a2.33,2.33,0,0,0,.31-.41,1.32,1.32,0,0,0,.2-.71.82.82,0,0,0,.2-.12,1.16,1.16,0,0,0,.36-.45,2.26,2.26,0,0,0,.14-.89,4,4,0,0,0,0-.61,1.32,1.32,0,0,0,.24.23,1.51,1.51,0,0,0,.35.2,1.27,1.27,0,0,0,.37.1.88.88,0,0,0,.16,0h0a.54.54,0,0,0,0,.18.52.52,0,0,0,.07.15l.12.14,0,0a.33.33,0,0,0-.11.17.29.29,0,0,0,0,.22.53.53,0,0,0,.21.21,1,1,0,0,0,.32.12.75.75,0,0,0,.3,0h.1a1.36,1.36,0,0,0,.3.13,1.84,1.84,0,0,0,.51.05,1.09,1.09,0,0,0,.55-.13.9.9,0,0,0,.33-.31,1.23,1.23,0,0,0,.16-.65,1.59,1.59,0,0,0-.13-.64.89.89,0,0,0-.09-.16.7.7,0,0,0-.16-.14,1.8,1.8,0,0,0-.35-.21l-.74-.34-.74-.34h0A3.57,3.57,0,0,1,15,9.5a1.33,1.33,0,0,1-.2-.22.44.44,0,0,1-.08-.11l0-.06A.56.56,0,0,0,14.59,9a1.82,1.82,0,0,0-.6-.46,3.36,3.36,0,0,0-.43-.2,4.36,4.36,0,0,0,.51-.17,2.08,2.08,0,0,0,.86-.66,1.14,1.14,0,0,0,.19-.42s0-.08,0-.13a.34.34,0,0,0,0-.12C15,6.78,15,6.75,15,6.68a2.54,2.54,0,0,1-.29-.78,1.46,1.46,0,0,1,0-.59,2.29,2.29,0,0,0,.4-.65c.27-.6-.33-1.24-1-1.6a4.53,4.53,0,0,0-2.84-.43c-1.53.11-3,1.21-3.12,2.25A1.82,1.82,0,0,0,8.49,6.4l0,0a2,2,0,0,0,.19.24c.18.29.66,1,.66,1V7.36l.22.29a6.68,6.68,0,0,0-.71.18L8.39,8l-.46.17a2.75,2.75,0,0,1-.49.14,3.07,3.07,0,0,1-.53.07l-1,0-.07,0-.15-.08-.31-.14a3.69,3.69,0,0,0-.67-.19l-.62-.13-.22-.06a2.88,2.88,0,0,0-.11-.49c-.07-.25-.16-.5-.26-.76a5.3,5.3,0,0,0-.37-.76c-.13-.25-.28-.49-.43-.74a3.75,3.75,0,0,0-.24-.36,1.72,1.72,0,0,1-.24-.33c-.15-.23-.27-.45-.4-.66s-.28-.4-.41-.57C1.19,2.72,1,2.44.77,2.24L.48,1.93h0A6.92,6.92,0,0,0,1.06,3.2c.12.19.25.38.4.59s.36.4.56.61l.34.31A1.59,1.59,0,0,1,2.61,5a3.08,3.08,0,0,1,.3.76c.07.26.14.52.2.77s.13.51.18.75.1.47.13.69a.76.76,0,0,1,0,.15.26.26,0,0,1,0,.12s-.09.12-.17.18a4.18,4.18,0,0,1-.58.32l0,0h0l0,0-.17.07a2.51,2.51,0,0,0,.45-.29,1.55,1.55,0,0,0,.25-.25,2.75,2.75,0,0,0-.42.09,7.15,7.15,0,0,0-.81.28l-.38.16H1.46s0,0,0,0h-.2a2.7,2.7,0,0,0,.34-.17,2.27,2.27,0,0,0,.48-.41.77.77,0,0,0,.15-.23,1.76,1.76,0,0,0-.35.09,3.12,3.12,0,0,0-.62.29,2.71,2.71,0,0,0-.5.38,1.57,1.57,0,0,1-.2.2H.67A1.76,1.76,0,0,0,.94,9L1,9l.12.09.22.09h.16a.46.46,0,0,0,.17,0,2,2,0,0,0,.26-.06.53.53,0,0,0,.35,0L2.76,9a3.73,3.73,0,0,0,.51.43,4.88,4.88,0,0,0,.9.51l.59.21a2.93,2.93,0,0,0,.69.11,3,3,0,0,0,.69-.06,4.6,4.6,0,0,1,.64,0,5.62,5.62,0,0,0,.59,0,3.85,3.85,0,0,0,.52-.07L8,10c0,.07-.06.16-.1.28s-.19.65-.36,1.09a1.91,1.91,0,0,1-.16.32l-.06.09a.11.11,0,0,0,0,0h0a1.89,1.89,0,0,0-.5.33,1.45,1.45,0,0,0-.31.45.76.76,0,0,0-.06.25.57.57,0,0,0,0,.26,1,1,0,0,0,.07.25c0,.09.1.16.14.24h0a7,7,0,0,0,.6.48l.22.17a.78.78,0,0,0,.07.25,1,1,0,0,0,.23.34,2.42,2.42,0,0,0,.66.49,2.07,2.07,0,0,0-.31.1,2.64,2.64,0,0,0-.83.54,1.58,1.58,0,0,0-.3.49,3.66,3.66,0,0,1-.22.52,1.5,1.5,0,0,1-.42.5c-.09.08-.23.11-.31.25a.4.4,0,0,0,0,.35,1.2,1.2,0,0,0,.52.58,5.07,5.07,0,0,1,.61.38l.21.21a1.32,1.32,0,0,0,.24.25,1.65,1.65,0,0,0,.81.26,1.51,1.51,0,0,0,.42-.05.52.52,0,0,0,.3-.2h.12a.42.42,0,0,0,.18,0,.26.26,0,0,0,.17-.14.2.2,0,0,0-.07-.18.5.5,0,0,0-.14-.08.67.67,0,0,0-.16-.05.64.64,0,0,0,0,.11c0,.06.08.14.06.16s-.07.09-.14.12l0,0a.23.23,0,0,0,0-.14c0-.08-.09-.17-.17-.19a1.14,1.14,0,0,0-.35,0H8.57v0l.11,0a.8.8,0,0,1,.24.07s0,0,0,.06a.77.77,0,0,1-.1.12.57.57,0,0,1-.37,0A1,1,0,0,1,8,19.32a1.44,1.44,0,0,1-.19-.21,1.41,1.41,0,0,0-.28-.25,4.91,4.91,0,0,0-.71-.38,1.62,1.62,0,0,1-.54-.4.27.27,0,0,1-.07-.25c0-.07.15-.14.24-.22s.38-.32.56-.48a2.34,2.34,0,0,0,.4-.52,2.21,2.21,0,0,1,.25-.43,3.53,3.53,0,0,1,.59-.58l.23-.18,0,0c.31.14.6.25.91.37l.46.16.39.15,0,.24a5.19,5.19,0,0,0-1,.56c-.16.12-.31.25-.45.37a3.73,3.73,0,0,0-.39.41l-.06.06,0,0a4.49,4.49,0,0,1,.37.4,1.86,1.86,0,0,0,.38.43.53.53,0,0,0,.15.08.4.4,0,0,0,.16.06l.14.05.11,0a.38.38,0,0,1,.16.11.29.29,0,0,1,.05.13.42.42,0,0,0-.23-.17l-.12,0H9.47l.08.11.06.1a.41.41,0,0,1,.05.09.2.2,0,0,1,0,.18.7.7,0,0,1-.07.11.54.54,0,0,0,.18,0l0,0a.24.24,0,0,0,0,.16.49.49,0,0,0,.08.12l.09.09c.24.21.48.37.66.55a1.6,1.6,0,0,1,.2.32.83.83,0,0,0,.39.34.9.9,0,0,0,.63.07.12.12,0,0,0,.11-.15.27.27,0,0,0-.08-.1.72.72,0,0,0-.2-.14l0,0a.87.87,0,0,1,.13.15.16.16,0,0,1,0,.08s0,0,0,0a.67.67,0,0,1-.38-.1.66.66,0,0,1-.2-.27,2,2,0,0,0-.17-.38,5.35,5.35,0,0,0-.63-.63l-.07-.06,0,0a.09.09,0,0,1,0-.05l.23-.33a.83.83,0,0,0,.12-.84l-.11-.18a.83.83,0,0,1-.09-.16,1.38,1.38,0,0,1-.12-.34,2.34,2.34,0,0,1,.16-1.45l0,0-.05,0c-.15-.1-.28-.17-.42-.25l-.43-.22c-.28-.14-.61-.25-.89-.36A3.49,3.49,0,0,1,8,14.77a1.93,1.93,0,0,1-.3-.27l0,0-.21-.48a1.33,1.33,0,0,1-.13-.51.42.42,0,0,1,.25-.43.73.73,0,0,1,.33,0l.39.07a5.55,5.55,0,0,1,.73.16,6.84,6.84,0,0,1,1.34.48c.21.1.4.21.6.32l.57.35.2.13,0,0a5.38,5.38,0,0,1,.59.71l.31.51.17.28a1.59,1.59,0,0,1,.12.27,1.93,1.93,0,0,1-.26,1.27,2.7,2.7,0,0,0-.24.69,3.33,3.33,0,0,0-.12.69,1.88,1.88,0,0,0,0,.34.8.8,0,0,0,.08.33,1.27,1.27,0,0,0,.54.51l.54.3c.15.08.26.17.26.21s-.14.08-.2.09l-.12,0v0h.13a1,1,0,0,0,.17,0,.38.38,0,0,0,.22-.11c.06-.09,0-.17,0-.24A.81.81,0,0,0,13.84,20.31Z"/><path class="cls-4" d="M18.46,19.14h0a.92.92,0,0,1-.09.29,1.77,1.77,0,0,1-1,.75,3.76,3.76,0,0,1-.89.2l-.24,0a2.61,2.61,0,0,1-.28,0,2.58,2.58,0,0,1-.54-.07,1.85,1.85,0,0,1-.94-.49,1.15,1.15,0,0,1-.24-.39,1,1,0,0,1,0-.41,1.26,1.26,0,0,1,.42-.76,2,2,0,0,1,.86-.46,3.19,3.19,0,0,1,1-.1,3.36,3.36,0,0,1,.87.18,1.75,1.75,0,0,1,1,.74.92.92,0,0,1,.09.29.36.36,0,0,0,0,.1v.11m0-.52a1.78,1.78,0,0,0-.23-.46,2,2,0,0,0-.6-.5,2.65,2.65,0,0,0-1.07-.31,3.09,3.09,0,0,0-1.27.14,2.35,2.35,0,0,0-1,.62,1.5,1.5,0,0,0-.27.45,1.28,1.28,0,0,0-.05.47,2,2,0,0,0,1.4,1.47,2.94,2.94,0,0,0,.6.16l.3,0h.32a2.75,2.75,0,0,0,1.07-.28,1.91,1.91,0,0,0,.59-.5,1.59,1.59,0,0,0,.3-.87A1.44,1.44,0,0,0,18.46,18.62Z"/><path class="cls-4" d="M10.75,2.82c.05-.52.51-.7-.48-.72S8.21,2.4,8,3.39s-.61,1.08-.61,1.08a2,2,0,0,0,1-.54,1.19,1.19,0,0,1-.49.54c-.38.22,2.77-.52,2.86-1.65"/></svg>