<svg id="Capa_1" data-name="Capa 1" xmlns="http://www.w3.org/2000/svg" viewBox="0 0 29.28 20.1"><defs><style>.cls-1{fill:#fff;}.cls-2{fill:#f5a4c7;}.cls-3{fill:#fbc9b5;}.cls-4{fill:#231f20;}</style></defs><title>2-4meses</title><path class="cls-1" d="M18.4,7.74a3.37,3.37,0,0,1-1.07.07c-.4-.07-.66-.28-.55-.39a1.42,1.42,0,0,1,.53-.21Z"/><path class="cls-2" d="M10.34,15a11.87,11.87,0,0,0-2.85-1.37A20.9,20.9,0,0,0,3,13.72s-.74.14-.78.36-.06,2.75.45,3.13.77.61,2.4.69a8.61,8.61,0,0,0,3.52-.69c.08-.07,1.73-2.18,1.73-2.18"/><path class="cls-3" d="M27.72,8.94s-.68-1.4-1.1-1.58a4.85,4.85,0,0,0-1.45-.48,3.16,3.16,0,0,1-1.58-.32c-.55-.31-.85-.4-1.16-.21s-.05-.07-.43,0a8.12,8.12,0,0,0-1.16.27.59.59,0,0,0-.32.23,15.47,15.47,0,0,1,1.75.08.74.74,0,0,1,.52.39,7.07,7.07,0,0,1-1.26,0h-.37c-.57,0-1,.11-1,.21s0,.46.42.4.81-.54,1-.53.19.21.32.36-.17,0-.2.41A.68.68,0,0,0,22,8.8a5,5,0,0,0,.65.12s-.59.44,0,.79a1.46,1.46,0,0,0,1.1.21,1.17,1.17,0,0,0,.55.53,4.8,4.8,0,0,0,1.35.35c.42,0,.36.09.39.14S27.36,12,27.36,12l.36.41Z"/><path class="cls-3" d="M8.78,15a12,12,0,0,0-2.35-.27c-.47.1-2.29.56-2.43,1.33S3.93,17.4,5.1,17.8a13.17,13.17,0,0,0,3.68.29,26.22,26.22,0,0,0,4.21-.7c.37-.21,1.7-.9,1.7-.9a6.1,6.1,0,0,0,1.75.17c.31-.14.62-.29.43-.48s-.13-.43-.16-.55.27-.41-.11-.45a10,10,0,0,0-1.13,0s.44-.31.36-.47,0-.26-.16-.35a1.66,1.66,0,0,0-.81,0c-.39.06-1.31.23-1.42,0s-.4-.51-1-.53-1.74,0-1.74,0a15.79,15.79,0,0,0,1.83-.93,2,2,0,0,1,0-.32,1,1,0,0,0-.13-.7c-.13-.15-.41-.49-.61-.45a1.14,1.14,0,0,0-.57.27c-.27.21-.24.58-.65.6a2.91,2.91,0,0,1-.71-.05s.34-.82.41-1.06a1.19,1.19,0,0,0-.11-.64,22.62,22.62,0,0,0,2.48.14,7.71,7.71,0,0,0,1.77-.4A3.65,3.65,0,0,1,15.74,10a5.19,5.19,0,0,0,1.59.06c.17-.08,0-.27-.31-.45s-.49-.5-.19-.63,1.05-.36,1-.55-1,0-1.55.28a8.48,8.48,0,0,1-2.51.45,10.48,10.48,0,0,1-1.6,0c-.36-.05-.78-.21-.84-.21a4.23,4.23,0,0,1-.49-.15s1.08-.07,1.08-.22-.07-.33,0-.34.3.07.31-.1S12,8,11.86,8a.38.38,0,0,1-.22-.17,2.13,2.13,0,0,0,.68-.07c.19-.09.07,0,0-.16s-.24-.22,0-.33.64-.05.51-.25-.69-.52-.48-.75A2.79,2.79,0,0,0,13,5.06a1,1,0,0,0-.22-.93,2.09,2.09,0,0,0-2-.4C9.73,4,6.09,5,6.48,5.79a4.29,4.29,0,0,1,.3,1.94c0,.34.15.43-.74,1.08a13.86,13.86,0,0,0-2.6,3.08c-.13.37-.75,2-.75,2L9,14.38s.32.25.32.41.07.41-.55.21"/><path class="cls-4" d="M11.49,6.6a.57.57,0,0,0,.31-.3s.15,0,.14.08.23-.28-.29-.17a1,1,0,0,0-.67.45l.32-.16s-.05.2.19.1"/><polygon class="cls-4" points="13.25 5.45 13.22 5.37 13.22 5.38 13.25 5.45"/><path class="cls-4" d="M23.11,7.5h0l.22.27c0,.05.08.12.12.18a.32.32,0,0,1,0,.09v0h0l-.06,0-.12.05a.69.69,0,0,1-.25,0,1.47,1.47,0,0,1-.55-.2l-.13-.08-.12-.07L22,7.66a.52.52,0,0,1-.17-.27s0,0,0-.06l.47,0a1.3,1.3,0,0,0,.34,0l.11,0,0,0a1.71,1.71,0,0,0,.27.14m.75.27h0a.83.83,0,0,0,.06.21,1.45,1.45,0,0,0,.11.29l-.2,0,0-.05a.23.23,0,0,0,0-.23.64.64,0,0,0-.1-.13,1.1,1.1,0,0,0-.16-.15Zm-.38.29Zm.23.82h0l-.51,0a2.17,2.17,0,0,1-.51,0,1.34,1.34,0,0,1-.44-.14l-.09-.06-.05-.05A.44.44,0,0,1,22,8.56a.55.55,0,0,1-.12-.21,1.61,1.61,0,0,1,0-.4V7.81A.79.79,0,0,0,22,8a.57.57,0,0,0,.11.11.58.58,0,0,0,.12.1,1.56,1.56,0,0,0,.78.32,1.3,1.3,0,0,0,.52-.05l.15-.07h0l.23.1a1,1,0,0,1,.22.14.26.26,0,0,1,.11.16v0h0Zm-2-1.57h.16l0,0Zm-.6,0h0a1.9,1.9,0,0,0-.38.17l-.12.09-.09,0a.24.24,0,0,1-.17,0l-.12-.06a3.65,3.65,0,0,1,.34-.18,2.5,2.5,0,0,1,.88-.13A2,2,0,0,0,21.07,7.35Zm-1.75.38h0a5.55,5.55,0,0,1-.52.2,3.79,3.79,0,0,1-.53.14A1.59,1.59,0,0,1,17.36,8a1.14,1.14,0,0,1-.23-.15l.53,0a4.32,4.32,0,0,0,.69-.06,2.11,2.11,0,0,0,.41-.12l.14,0s.17-.09.49-.23c.16-.07.36-.14.59-.22a4.91,4.91,0,0,1,.8-.2l.46-.07a1.69,1.69,0,0,1,.45,0,2.81,2.81,0,0,1,.8.18l.13.11a1,1,0,0,1-.26,0c-.2,0-.4,0-.62,0a3.93,3.93,0,0,0-1.32,0A7.73,7.73,0,0,0,19.32,7.73Zm-2.54,1h0s0,0-.05,0h0a1.21,1.21,0,0,0-.33.35.4.4,0,0,0,0,.27c0,.11.15.22.25.26l.25.09.17.06s0,0,0,.05,0,0,0,0a.52.52,0,0,1-.32,0l-.27,0h-.27a2.11,2.11,0,0,1-1-.14h0s0,0,0,0a.67.67,0,0,0,.16.12h-.13l-.61.11-.39.1-.42.16a1.74,1.74,0,0,1-.46.13,2.28,2.28,0,0,1-.52,0H11c-.35,0-.63,0-.77,0a1,1,0,0,1-.05-.24.85.85,0,0,1,0-.32,1.67,1.67,0,0,0,.06-.29,1.1,1.1,0,0,0,0-.27A1.22,1.22,0,0,0,10,8.9l.85,0a2.67,2.67,0,0,0,.91.33,4.92,4.92,0,0,0,1.14.09c.38,0,.75,0,1.12-.07s.73-.11,1.09-.18l.54-.11a3.81,3.81,0,0,0,.51-.17c.33-.11.67-.2,1-.28l.34-.05C17.3,8.55,17,8.66,16.78,8.77ZM10,10.53h0a2.14,2.14,0,0,0-.08.32c0,.1,0,.21-.05.3a3.74,3.74,0,0,0-.05.54v.5H9.67a.93.93,0,0,0,0-.27,3.6,3.6,0,0,0-.2-.39,4.46,4.46,0,0,0-.44-.7l-.24-.3h0l0,0s.06.13.13.33.16.47.23.73,0,.27.07.39a1.7,1.7,0,0,0,.15.33,2,2,0,0,0,.23.32h.05a.39.39,0,0,0,0-.1.77.77,0,0,0,.06-.26v0a4.47,4.47,0,0,0,.76.12,1.17,1.17,0,0,0,.26,0l.15,0,.11-.07a1.12,1.12,0,0,0,.19-.31.45.45,0,0,1,.09-.1.37.37,0,0,1,.13-.07l.2-.11.16-.13h0a.3.3,0,0,1,0,.19h0s0,0,0,0a.26.26,0,0,0,.28.1l.13,0v0a.76.76,0,0,0,0,.15.51.51,0,0,0,.16.34l.06.06a.24.24,0,0,1,0,.11.23.23,0,0,0,0,.21s0,0,0,0a0,0,0,0,1,0,0,.76.76,0,0,1-.25.2,4.52,4.52,0,0,1-.66.33,12.22,12.22,0,0,1-1.52.47c-.25.07-.52.12-.78.18a2.93,2.93,0,0,1-.35,0H8.68l-.17,0a2,2,0,0,1-1.06-.7,4.9,4.9,0,0,1-.58-1c-.2-.36-.39-.72-.56-1.07a1.47,1.47,0,0,1-.14-1.1l0,0s0,0,0,0A1.33,1.33,0,0,0,6,11.23a8.87,8.87,0,0,0,.42,1.12l.23.55a2.42,2.42,0,0,0,.36.56,2.54,2.54,0,0,0,1.28.78L8,14.2c-.65-.11-1.31-.21-2-.29s-1.33-.15-2-.19a7.22,7.22,0,0,0-1,0l-.28,0a8.11,8.11,0,0,1,.54-1.11A13.15,13.15,0,0,1,4,11.41,10.81,10.81,0,0,1,6,9.14c.21-.17.41-.32.65-.49a.93.93,0,0,0,.45-.71A.74.74,0,0,0,7,7.56L6.9,7.13a.47.47,0,0,1,.22-.48.59.59,0,0,0,0,.23,1.09,1.09,0,0,0,.33.47,1.37,1.37,0,0,0,.24.18A1,1,0,0,0,8,7.64a1.14,1.14,0,0,0,.46.05l.17,0,0,0H8.46a1,1,0,0,1-.37-.09,1,1,0,0,1-.55-.71.38.38,0,0,1,0-.19l0,0,0,0h0c.42,0,.51.09,1,.4l-.12-.34h0v0l.37.26a1.19,1.19,0,0,1-.35-.76,1.06,1.06,0,0,0,.24-.56s0-.19,0,.26l-.11.55.51-.58-.1.5.48-.5.73-.87,0,.71.57-.94-.17,1L11,5.1l.79-1-.2.86L12,4.33l0,1.08a2.88,2.88,0,0,0-1.35.78s1-.84,1.8-.58a.39.39,0,0,0-.45-.2l.7-1.1a2.17,2.17,0,0,1,.15.4,1,1,0,0,1-.07.64c-.11.2-.24.41-.36.62a1.26,1.26,0,0,0-.16.33c0,.13.08.27.19.34a1.35,1.35,0,0,1,.27.26c.07.09,0,.15-.16.22l-.2.09a.34.34,0,0,0-.11,0,.1.1,0,0,0,0,.13.59.59,0,0,0,.1.17c.05.05.09.11.07.1a1,1,0,0,1-.38.07h-.48a.13.13,0,0,0-.09,0,.07.07,0,0,0,.06.08A2.44,2.44,0,0,1,12,8l0,0v0s0,.07,0,.09-.09.07-.19.1-.09,0-.11.07a.14.14,0,0,0,0,.1l.07.09s0,.06-.12.09l-.29.07-.3,0a9,9,0,0,1-1.27,0H9.57l-.32,0H9.12L9,8.73a.33.33,0,0,0-.11.15.57.57,0,0,0,0,.26h0a.18.18,0,0,0,.18.08c.08,0,.14-.07.12-.12h0a.28.28,0,0,1,0-.18s0,0,0-.05h0l.32,0h.3a.25.25,0,0,1,0,.07,2,2,0,0,0,0,.39,1.18,1.18,0,0,0,0,.26,1.46,1.46,0,0,0,.11.28,1.18,1.18,0,0,1,.08.31A1.12,1.12,0,0,1,10,10.53Zm1.08,3.4H12a3.32,3.32,0,0,1,.89,0L13,14l.15.1c0,.05.07.09.09.13v.14s0,.06.07.08h0a2.87,2.87,0,0,0,.73.16,3.51,3.51,0,0,0,.79,0l.2-.05.16,0a1.38,1.38,0,0,1,.25-.05h0a.16.16,0,0,1,0,.1l0,0a.1.1,0,0,0,0,.15.78.78,0,0,1,.15.1l0,0s0,0,0,0h0l0,0a.44.44,0,0,0-.1.08,0,0,0,0,1,0,0,5.73,5.73,0,0,0-.64-.1,3.89,3.89,0,0,0-.49,0l-.28,0-.3.08,0,0h0l0,0h0l-.08.05-.16.09a1.22,1.22,0,0,1-.34.1,3.21,3.21,0,0,1-.83,0,7.37,7.37,0,0,0-.94,0,7.46,7.46,0,0,0-.81.1,3.19,3.19,0,0,0-.65-.24L9.29,15h0a.7.7,0,0,0,.06-.35.34.34,0,0,0-.12-.19A.69.69,0,0,0,9,14.38l-.33-.06h.17a1.78,1.78,0,0,0,.46-.09,8,8,0,0,0,.78-.24l.16-.06Zm4.48.49Zm.47.92h.24a.58.58,0,0,1,.3.07c.07,0,.1.1,0,.16s-.31.08-.34.13,0,0,0,0h0s0,0,0,0h.21a1.18,1.18,0,0,0,.25,0h0l0,.07s-.07,0-.13.06a2.14,2.14,0,0,0-.22.1l-.12.08.15.05a.66.66,0,0,0,.28,0l-.11.07h-.07l-.1.06a.39.39,0,0,0-.09.08l.15,0,.13,0h.07l0,0h0l-.08,0a.34.34,0,0,0-.15.06.38.38,0,0,0-.12.09l.17,0h.11a1.53,1.53,0,0,1-.3,0l-.24,0-.26,0c-.35-.08-.7-.14-1.06-.2a.31.31,0,0,0-.19,0l0,0c-.28.17-.58.35-.87.51a7.18,7.18,0,0,1-.92.46,4,4,0,0,1-.49.17l-.55.11c-.38.07-.76.15-1.15.2a11.3,11.3,0,0,1-1.17.09H8.65l-.58,0L6.92,18H6.08a.23.23,0,0,0-.14-.11h0a6.27,6.27,0,0,1-1-.38,3.35,3.35,0,0,1-.42-.26,1.19,1.19,0,0,1-.29-.31c0-.05,0-.11-.07-.16s0-.11,0-.17l0-.08a.1.1,0,0,0,0,0l0,0,.09-.2a1.88,1.88,0,0,1,.24-.36,2.51,2.51,0,0,1,.33-.32,3.13,3.13,0,0,1,.4-.28,3.14,3.14,0,0,1,.49-.21,3,3,0,0,1,.54-.12,3.68,3.68,0,0,1,.58,0,4.09,4.09,0,0,1,.6,0l.62.05h.07l1,.28c.22.05.43.12.64.18l.59.21c.26.17.54.33.82.49h0a.19.19,0,0,0,.18,0,.07.07,0,0,0,0-.12h0l-.63-.51a3.76,3.76,0,0,1,.67,0c.31,0,.58.06.89.1a4,4,0,0,0,1,0,2.05,2.05,0,0,0,.5-.14l.21-.09.09-.06h0l0,0a.61.61,0,0,1,.13,0h.18l.41,0,.9.08ZM3.1,17.41h0a1.29,1.29,0,0,1-.5-.54,1.76,1.76,0,0,1-.18-.67c0-.22-.06-.45-.07-.68a10.41,10.41,0,0,1,0-1.37c0-.15.36-.18.67-.18s.64,0,1,0l2,.18,2,.2,1,.12c.34,0,.35.27.32.48-.18,0-.39-.05-.58-.07l-.61-.1-.6-.09a4.48,4.48,0,0,0-.64-.07,3.64,3.64,0,0,0-.66,0,4.53,4.53,0,0,0-.64.13A3,3,0,0,0,5,15a4,4,0,0,0-.49.3,2.87,2.87,0,0,0-.4.37,2,2,0,0,0-.29.42,1.36,1.36,0,0,0-.11.2l0,.06s0,0,0,.06l0,.13a.7.7,0,0,0,0,.25,1.09,1.09,0,0,0,.1.25,1.48,1.48,0,0,0,.39.4,2.43,2.43,0,0,0,.52.3h0l-.71-.08A2.21,2.21,0,0,1,3.1,17.41ZM16.66,7.77Zm0,0Zm.4-.31h0l.27,0s.06,0,0,0l.12,0a3.35,3.35,0,0,0,.61.24l.22,0a2.65,2.65,0,0,1-.62,0,2.91,2.91,0,0,1-.77-.2h0l-.05,0Zm4-.85h0a1.7,1.7,0,0,1,.32-.1l.17,0h.16L22,6.43l.2,0a.25.25,0,0,0,0,.14.6.6,0,0,0,.06.19,2.88,2.88,0,0,0-.4-.09,2.08,2.08,0,0,0-.61,0l-.37.07Zm6.36,1.64a1.41,1.41,0,0,0-.25-.42,2.72,2.72,0,0,0-.39-.37,5.15,5.15,0,0,0-.45-.32,1.76,1.76,0,0,0-.57-.26,5.31,5.31,0,0,0-1.3-.13,2.8,2.8,0,0,1-.59-.07,1,1,0,0,1-.23-.11,1.4,1.4,0,0,0-.22-.17,1.72,1.72,0,0,0-.64-.2,1,1,0,0,0-.4.06.2.2,0,0,0-.08,0A.64.64,0,0,0,22,6.17a1.23,1.23,0,0,0-.4,0,1.53,1.53,0,0,0-.43.13,1.26,1.26,0,0,0-.55.4l-.1.14a4.52,4.52,0,0,0-.65.28l-.53.3c-.29.16-.47.24-.47.24l-.13,0a2.79,2.79,0,0,1-.34.07.73.73,0,0,0-.14-.19,1.61,1.61,0,0,0-.52-.36,1,1,0,0,0-.21-.08.61.61,0,0,0-.34,0,.79.79,0,0,0-.31.18.62.62,0,0,0-.15.19.35.35,0,0,0-.16,0,.18.18,0,0,0-.06.1.2.2,0,0,0,0,.15.82.82,0,0,0,.12.2,1.34,1.34,0,0,0,.43.32h0c-.34.11-.66.25-1,.37a3.11,3.11,0,0,1-.49.16l-.53.07c-.37,0-.73,0-1.1,0L12.88,9a7.36,7.36,0,0,1-1.05,0,7,7,0,0,1-.8-.14h.15a3.74,3.74,0,0,0,.65-.13A.55.55,0,0,0,12,8.64.13.13,0,0,0,12,8.48.35.35,0,0,0,12,8.37h0c.09,0,.23-.07.28-.18a.3.3,0,0,0,0-.13s0-.07-.05-.08l-.08,0-.2-.08H12l.26,0a.49.49,0,0,0,.26-.11.1.1,0,0,0,0-.13l-.07-.08a.42.42,0,0,1-.09-.14s0,0,0,0l.08,0a1.36,1.36,0,0,0,.21-.1.5.5,0,0,0,.19-.13.16.16,0,0,0,0-.21,2,2,0,0,0-.3-.28c-.1-.09-.17-.17-.14-.26A1.47,1.47,0,0,1,12.54,6c.12-.21.26-.41.38-.62A1.11,1.11,0,0,0,13,4.83l.18.54a2.13,2.13,0,0,0-1.38-2.31l-.06,0-.22-.11a3,3,0,0,0-.32-.12,7.17,7.17,0,0,0-3.67-.4C6.43,2.53,4.1,3.63,4.2,5.51S6,7.18,6.57,7.73a.58.58,0,0,1,.07.21.64.64,0,0,1-.32.49c-.21.16-.44.34-.64.52a9.39,9.39,0,0,0-1.92,2.38,11.82,11.82,0,0,0-.67,1.27,8.49,8.49,0,0,0-.42,1.16l-.18,0a.72.72,0,0,0-.27.12.29.29,0,0,0-.12.22c0,.47.07.92.1,1.39a5.14,5.14,0,0,0,.21,1.38,1.34,1.34,0,0,0,.5.63,2.34,2.34,0,0,0,.91.38,9.32,9.32,0,0,0,1,.15c.34,0,.65.09,1,.1a.22.22,0,0,0,.21-.09,7.42,7.42,0,0,0,2.05.16,8.91,8.91,0,0,0,1.17-.14c.39-.07.77-.14,1.16-.19s.78-.09,1.17-.11a4.55,4.55,0,0,0,.61-.05,2.68,2.68,0,0,0,.59-.15,6.47,6.47,0,0,0,1.83-1l1,.08.28,0a1.51,1.51,0,0,0,.3,0,.92.92,0,0,0,.46-.19l.11,0c.17-.1.17-.22.15-.29a.33.33,0,0,0-.07-.11.16.16,0,0,0,0-.1.17.17,0,0,0-.06-.08.22.22,0,0,0,.1-.09.15.15,0,0,0,0-.16.24.24,0,0,0-.13-.06.27.27,0,0,0,.13-.15.24.24,0,0,0-.09-.2.81.81,0,0,0-.51-.19l-.22,0-.2,0-.09,0h0l.06,0a.2.2,0,0,0,.09-.05.15.15,0,0,0,0-.14.3.3,0,0,0,0-.1l0-.06a.41.41,0,0,0,.13-.24.3.3,0,0,0-.17-.24.74.74,0,0,0-.31-.06,1.59,1.59,0,0,0-.45.05l-.16.05-.14,0a2.08,2.08,0,0,1-.62.06,4.29,4.29,0,0,1-.62,0l0-.1L13.32,14l-.19-.11-.22-.09-.22-.07-.24,0-.24-.05-.24,0a4.36,4.36,0,0,0-1,0l-.16,0,.72-.27c.25-.1.46-.22.7-.33a1.6,1.6,0,0,0,.32-.21.15.15,0,0,0,0-.21s0,0,0-.07a.45.45,0,0,0,.08-.17.18.18,0,0,0,0-.12l0,0,0,0a.26.26,0,0,1-.05-.21v-.21a.22.22,0,0,0,0-.15.52.52,0,0,0-.36-.13h0a.53.53,0,0,0-.1-.2L12,11.25a.43.43,0,0,0-.26-.07.46.46,0,0,0-.23.08l-.09.07-.13.11a.48.48,0,0,1-.14.09.81.81,0,0,0-.2.14.48.48,0,0,0-.12.17,1,1,0,0,1-.11.27s0,0,0,0a.06.06,0,0,1-.05,0,1,1,0,0,1-.18,0,3.29,3.29,0,0,1-.54,0l.09-.08a1.24,1.24,0,0,0,.24-.37,1.71,1.71,0,0,0,.09-.27,1,1,0,0,0,0-.3c0-.1,0-.21,0-.32a1.43,1.43,0,0,0-.07-.28l0,0a2.42,2.42,0,0,0,.62.19,2.92,2.92,0,0,0,.44.06h.5c.17,0,.35,0,.52-.06a3,3,0,0,0,.52-.11l.5-.12a4.43,4.43,0,0,1,.51-.06c.17,0,.34,0,.49-.05s.27-.08.4-.12a2.88,2.88,0,0,0,.69-.33l.16.06a2.43,2.43,0,0,0,.53.08l.25,0,.24,0a1.42,1.42,0,0,0,.31,0,.71.71,0,0,0,.36-.09.29.29,0,0,0,.18-.27v0h0a.19.19,0,0,0,0-.07.28.28,0,0,0-.12-.15,1.34,1.34,0,0,0-.28-.12l-.19-.09,0,0a.15.15,0,0,1,0-.08.88.88,0,0,1,.2-.24A5.56,5.56,0,0,0,18,8.56l.11-.09,0,0,.32,0a3.9,3.9,0,0,0,.6-.18A3.17,3.17,0,0,0,19.56,8a4.53,4.53,0,0,0,.49-.29.3.3,0,0,0,.06.11.34.34,0,0,0,.17.12.73.73,0,0,0,.3,0A1.09,1.09,0,0,0,21,7.77l.27-.17.24-.13.25-.09h0a.36.36,0,0,0,0,.37v0h0a.67.67,0,0,0-.14.15.68.68,0,0,0-.16.47.53.53,0,0,0,.16.33.83.83,0,0,0,.22.14l.14.05.12,0,.45.08-.09.05a.34.34,0,0,0-.1.42,1,1,0,0,0,.09.13l.06.07.06.05a1.88,1.88,0,0,0,.37.21,2.85,2.85,0,0,0,.75.16,1.13,1.13,0,0,0,.24.31,1.31,1.31,0,0,0,.6.3,2.38,2.38,0,0,0,.37.06l.35.05.36,0,.23,0a3.88,3.88,0,0,0,.26.31,3.43,3.43,0,0,0,.33.33,4.34,4.34,0,0,0,.87.56h0s0,0,0,0a2.3,2.3,0,0,0-.5-.74,2.67,2.67,0,0,0-.34-.33,4.1,4.1,0,0,0-.4-.29l0,0a.16.16,0,0,0-.12,0l-.32.05h-.34a1.21,1.21,0,0,1-.57-.23c-.16-.1-.33-.18-.5-.27l-.2-.11a2.34,2.34,0,0,0,.38,0,1.53,1.53,0,0,0,.47-.16c.15-.07.29-.19.27-.36s-.2-.22-.31-.26a1.75,1.75,0,0,0-.56-.11h-.22l.19.07a2.69,2.69,0,0,1,.43.2c.07.05.12.11.1.13s-.06.06-.14.1a1.14,1.14,0,0,1-.33.08,2.48,2.48,0,0,1-.39,0,2.7,2.7,0,0,1-.77-.11,1.6,1.6,0,0,1-.29-.11l-.08,0-.05,0a.34.34,0,0,1-.09-.08.25.25,0,0,1-.07-.3.79.79,0,0,1,0-.09h0c.18,0,.35.06.53.09a3.68,3.68,0,0,0,1.1,0A.61.61,0,0,0,24.59,9a2.27,2.27,0,0,0,.49.35,2.62,2.62,0,0,0,.86.26h0s0,0,0,0a2.24,2.24,0,0,1-.71-.35,2.12,2.12,0,0,1-.46-.49,1.89,1.89,0,0,1-.28-.57,2.46,2.46,0,0,1-.09-.29,1.47,1.47,0,0,1-.05-.29.21.21,0,0,0-.18-.15h0a3.51,3.51,0,0,1-.53-.15,3.26,3.26,0,0,1-.5-.21,1.8,1.8,0,0,1-.41-.26.79.79,0,0,1-.24-.31s0-.07,0-.09a.41.41,0,0,1,.2-.05,1.44,1.44,0,0,1,.53.11,1.35,1.35,0,0,1,.22.14.74.74,0,0,0,.29.12,3.52,3.52,0,0,0,.64.09,4,4,0,0,1,1.16.23,1.83,1.83,0,0,1,.42.26l.42.31a3,3,0,0,1,.38.31,1.93,1.93,0,0,1,.28.36,3.43,3.43,0,0,0,.68.75h0s0,0,0,0A7.7,7.7,0,0,1,27.37,8.24Z"/></svg>