<svg id="Capa_1" data-name="Capa 1" xmlns="http://www.w3.org/2000/svg" viewBox="0 0 29.64 26.37"><defs><style>.cls-1{fill:#f5a4c7;}.cls-2{fill:#fbcabb;}.cls-3{fill:#231f20;}</style></defs><title>1-18meses</title><path class="cls-1" d="M25.8,18.28s.14-.46-.67-.54-6.81-.21-6.81-.21l-.2,1.23,2.75,3.51,1.93.11Z"/><path class="cls-2" d="M21.62,7.82c.07,0,1.11.85,1.42,1s1.41.89,1.41,1.07-.18,1.72-.21,1.79-.68.94-.27,1.56a6.42,6.42,0,0,1,1,1.83c.12.53.19,2.68.19,2.68s-3,.53-3.26.53-2-.11-2.35-.15l-1-.12s-.48.22-.27.37,1.21,0,1.77.41,1.17.71,1.16,1.27.36,1.5.22,1.81a3.51,3.51,0,0,0-.18.41,2,2,0,0,1-.6.32c-.3.08-.24.12-.24.12l.8.67a1.32,1.32,0,0,1,.47-.88,5.42,5.42,0,0,0,.89-1s-.62-.29-.62-.67a5.14,5.14,0,0,1,2-2.2,4.92,4.92,0,0,1,3.19-.5c.86.22,1.89,1.4,1.49,2.21A3.17,3.17,0,0,1,26.83,22c-.76.22-1.4.46-1.4.46s.6.89-.19,1.14-1.34-.06-1.49.09a.81.81,0,0,1-.76.32,9.3,9.3,0,0,1-1.62-.24c-.07,0-.71.83-.94,1a6.55,6.55,0,0,0-.73,1,.53.53,0,0,1-.46.35,1.7,1.7,0,0,1-.75-.26,2.57,2.57,0,0,1-1-.42c-.21-.23-.26-.44,0-.63a4.94,4.94,0,0,0,.65-.68l.12-.47a7.57,7.57,0,0,1-1.6-1.84c-.23-.64-1-2.56-.48-3s.87-.54.91-.61a2.28,2.28,0,0,0,0-.43s-1.73.18-1.86-.09a6.28,6.28,0,0,1-.26-.65c-.07-.23-.27-.46-.19-.54a2.43,2.43,0,0,1,.66-.19s-.11-.35.1-.38a2.85,2.85,0,0,1,.72.06l.29.16L17.66,16a.85.85,0,0,1,.14-.72A2.73,2.73,0,0,1,19.28,14a13.06,13.06,0,0,1,1.4-.35v-.4a2,2,0,0,1-.9.12c-.31-.1-.32-.28-.46-.41s-.13-.38-.29-.55-.45-.22-.57-.35a.66.66,0,0,1,.06-.64c.1-.11-.08-.62-.63-1.21s-.89-1.44-.6-1.71a7.06,7.06,0,0,1,2.52-1.11,2.61,2.61,0,0,1,1.81.45"/><path class="cls-3" d="M24.56,17.63h0c-.4.05-.81.15-1.26.25l-.68.15-.71.13a4.71,4.71,0,0,1-.75,0,4.19,4.19,0,0,1-.71-.1L19.8,18c-.21,0-.41-.06-.62-.08H18.9l-.29,0a.59.59,0,0,0-.42.19.19.19,0,0,0,0,.22v0l-.26,0a3.1,3.1,0,0,0-.43,0l.09-.39a13.44,13.44,0,0,0,1.55-.1,7.42,7.42,0,0,0,1.7-.42c.14-.06.27-.11.38-.17l.36-.18c.24-.12.46-.26.68-.39a12.58,12.58,0,0,0,1.22-.86l0,0q-.67.38-1.38.72l-.72.32-.36.16-.37.14a8.5,8.5,0,0,1-1.58.32c-.55.07-1.12.1-1.67.12h0a.32.32,0,0,0-.14,0,2.88,2.88,0,0,1-.49.18l-.1,0-.15,0-.29,0-.29,0h-.18a.44.44,0,0,0-.08-.11,1.45,1.45,0,0,0-.28-.16.43.43,0,0,1-.12-.08.14.14,0,0,1,0-.12l.06-.1a.18.18,0,0,0,0-.19.85.85,0,0,0-.17-.2A1.55,1.55,0,0,1,15,16.7v0s0-.05,0,0l0,0a1.49,1.49,0,0,1,.52-.11h0c.06,0,.08,0,.07-.09a.24.24,0,0,1,0-.23c0-.07.12-.1.24-.1h.2l.18,0a.52.52,0,0,1,.15.07l.05,0a.1.1,0,0,1,0,0l.09.07a5.29,5.29,0,0,0,.71-.09c.22-.05.45-.11.66-.18a6.09,6.09,0,0,1,.61-.17l.31-.05h.29a.26.26,0,0,0,.15,0h0c.62-.4,1.23-.81,1.86-1.19a4.81,4.81,0,0,1,1-.51,2.77,2.77,0,0,1,.57-.13,1.53,1.53,0,0,1,.6.08l0,0a1.81,1.81,0,0,0-1.3-.1,5.65,5.65,0,0,0-1.14.47A15.84,15.84,0,0,0,19,15.5h-.1l-.18,0a2,2,0,0,0-.35.09,5.83,5.83,0,0,0-.63.22l-.11.05a3,3,0,0,0,.38-.4,4.77,4.77,0,0,0,.41-.54l.41-.64a.84.84,0,0,1,.31-.28A1.14,1.14,0,0,1,19.6,14c.16,0,.32,0,.48,0a1.75,1.75,0,0,0,.48-.09.47.47,0,0,0,.3-.28.35.35,0,0,0,0-.23.53.53,0,0,0-.06-.13L21,13.1a8.06,8.06,0,0,0,.76-.46l0,0c-.26.14-.53.28-.81.4l-.42.17a1.33,1.33,0,0,1-.85,0,.21.21,0,0,1-.1-.07s0-.05,0-.14a.44.44,0,0,0-.16-.21s0-.05,0-.06l.05,0h0l.17,0h0c.09,0,.16-.09.14-.16a.21.21,0,0,0-.23-.11h0a.68.68,0,0,1-.31,0h0a.12.12,0,0,1,0-.07,0,0,0,0,1,0-.05h0L19,12a1.27,1.27,0,0,1-.37-.08l-.07-.05v-.06s.12-.1.23-.23a.48.48,0,0,0,.11-.43v-.11a.39.39,0,0,1,0-.09.7.7,0,0,0-.15-.19l-.29-.27a2,2,0,0,1-.38-.54c-.08-.18-.15-.38-.21-.56a2.44,2.44,0,0,0,.75-.49c-.17.18-.9.92-.3.86s1-.64,1.27-.94c-.17.24-.42.63-.18.57A2.31,2.31,0,0,0,20.13,9s-.25.6,0,.53.52-.49.52-.49-.14.89.24,1,.3-.53.3-.53l.09.67.22-.58s-.08.69.14.83.41-.47.41-.47l-.18,1s.63-.7.65-1,.75.36.77.67-.25.46-.36.77-.43.7-.25,1.17a1.15,1.15,0,0,1,.41-.58s-.2.59,0,.79a2.65,2.65,0,0,1,.5-.69l-.14.48.28-.13s-.05.09-.08.14a.48.48,0,0,0-.07.41,1.07,1.07,0,0,0,.23.35,2.66,2.66,0,0,1,.45.55,7.11,7.11,0,0,1,.48,1.26,9.78,9.78,0,0,1,.3,1.3,4.37,4.37,0,0,1,.06,1.14,2.44,2.44,0,0,0-.54,0m-8.85.25h0S15.72,17.89,15.71,17.88Zm5.85,4.6h0a2,2,0,0,0-.26.34,1.23,1.23,0,0,0-.16.43l-.09-.12a2.46,2.46,0,0,0-.4-.3.34.34,0,0,1-.13-.14l.18,0a1.35,1.35,0,0,0,.53-.26l0,0,0,0Zm-5.77-1.41h0l-.26,0-.26,0A1,1,0,0,1,15,21l-.26,0s0,0-.05,0a.19.19,0,0,1,.1-.06.63.63,0,0,1,.31,0l.29,0a1.73,1.73,0,0,0,.32,0,1.15,1.15,0,0,0,.28-.09c0,.11.07.22.1.33Zm12.79-2.34a2.59,2.59,0,0,0-1.34-.68,3.67,3.67,0,0,0-.8-.11H26l-.27,0a.72.72,0,0,0-.18-.18,1.09,1.09,0,0,0-.4-.14,3.56,3.56,0,0,0,.12-1.17,8.64,8.64,0,0,0-.17-1.33,6,6,0,0,0-.45-1.31c-.2-.48-.83-.8-.59-1.1.08-.13.17-.28.25-.43l-.07.4a5.17,5.17,0,0,1,.38-.68v.54L25,12a4.69,4.69,0,0,0,1-2.31c.13-1.33,0-2.26-.64-2.68a3.33,3.33,0,0,0-1.65-.39s-.07-.82-2.8-.59S16.23,7.8,16.23,8.1s.38,0,.6-.21a7.57,7.57,0,0,0-1,.88c-.09.17.74-.24.74-.24s-1.13,1.57-.86,1.4,1.16-.52,1.16-.52-1.35.84-.75.66a12.54,12.54,0,0,0,1.2-.41,2.53,2.53,0,0,0,.19.45,2.15,2.15,0,0,0,.47.64l.29.26.08.1,0,.07v0s0,0,0,0v0a.22.22,0,0,1,0,.21c0,.07-.18.15-.26.33a.31.31,0,0,0,0,.27.54.54,0,0,0,.27.18,1.28,1.28,0,0,0,.32.09.17.17,0,0,0,0,.07.18.18,0,0,0,0,.1.27.27,0,0,0,.14.14l.08,0v0a.28.28,0,0,0,.14.25c.07,0,.08.06.09.08a.43.43,0,0,0,.07.2.5.5,0,0,0,.26.16,1.75,1.75,0,0,0,.55,0,1.46,1.46,0,0,0,.52-.14h0l0,.05a.36.36,0,0,1-.1.15.31.31,0,0,1-.17.09l-.35.05a4.77,4.77,0,0,0-.47.13c-.17.07-.32.11-.49.19s-.3.15-.44.24a2.44,2.44,0,0,0-.39.28,4.11,4.11,0,0,0-.29.31,1.21,1.21,0,0,0-.21.31,1.92,1.92,0,0,0-.14.29,1.48,1.48,0,0,0-.12.59l-.3.1a3.35,3.35,0,0,1-.55.11l0,0a.27.27,0,0,0-.08-.07.54.54,0,0,0-.21-.08l-.22,0h-.21a1.07,1.07,0,0,0-.25,0,.38.38,0,0,0-.18.14.33.33,0,0,0,0,.24,1.85,1.85,0,0,0-.55.11.35.35,0,0,0-.14.13.17.17,0,0,0,0,.07.11.11,0,0,0,0,.08.8.8,0,0,0,.13.22l.11.17s0,0,0,0l-.08.09a.36.36,0,0,0-.07.29c0,.12.17.21.24.25s.17.09.18.12,0,0,0,0h0v0h0s0,0,0,.06a.43.43,0,0,0,.19.09,1.35,1.35,0,0,0,.39,0h.33l.31,0,.16,0,.19,0,.1,0-.06.32a1.44,1.44,0,0,0-.74.44,1.32,1.32,0,0,0-.29.64,2.8,2.8,0,0,0,0,1.12h-.56a1.31,1.31,0,0,0-.34.09l-.33.13a.71.71,0,0,0-.18.08.14.14,0,0,0,0,.21.68.68,0,0,0,.31.23,1.62,1.62,0,0,0,.37.11,1.7,1.7,0,0,0,.68,0,1.41,1.41,0,0,0,.31-.1c.07.17.14.34.22.5a5.22,5.22,0,0,0,.61,1,4.55,4.55,0,0,0,.74.72,5.47,5.47,0,0,0,.55.38,3,3,0,0,0-.47.55.42.42,0,0,1-.05.07l-.05.06-.13.14-.15.13-.07.06-.09.07h0a.33.33,0,0,0,0,.39.53.53,0,0,0,.3.17.17.17,0,0,0,0,.12.22.22,0,0,0,.15.11.24.24,0,0,0,.18,0s-.05-.05,0-.09.05,0,.06-.09a.42.42,0,0,0,0-.16.35.35,0,0,0,0-.11l-.15,0a.35.35,0,0,0-.18.16.44.44,0,0,1-.11-.18.27.27,0,0,1,.09-.21l.08-.05L17.7,25l.17-.14a1.14,1.14,0,0,0,.15-.16l.06-.09.05-.09a2.29,2.29,0,0,0,.18-.6l.11.06a3.64,3.64,0,0,0,.72.32l0,0a4.92,4.92,0,0,1-.59-.4,4.2,4.2,0,0,1-.57-.51,4.87,4.87,0,0,1-.6-.72,6.23,6.23,0,0,1-.49-.93,8.31,8.31,0,0,1-.4-1.06,3,3,0,0,1-.14-1.15,1,1,0,0,1,.71-.95,2.24,2.24,0,0,1,.39-.08,3.23,3.23,0,0,1,.44,0,6.54,6.54,0,0,1,.89.06,3.18,3.18,0,0,1,1.5.52,2,2,0,0,1,.69.93,5.45,5.45,0,0,1,.27,1,2.56,2.56,0,0,1,0,.81,1.19,1.19,0,0,1-.26.59,1.17,1.17,0,0,1-.4.28l-.14.05a.16.16,0,0,1,0-.1,1.82,1.82,0,0,1,.08-.36,2.66,2.66,0,0,0,.07-.39,2.81,2.81,0,0,0,0-.41,1.08,1.08,0,0,0-.16-.42,1.33,1.33,0,0,0-.92-.54l0,0a1.15,1.15,0,0,1,.59.58,1.41,1.41,0,0,1,.05.35,1.67,1.67,0,0,1,0,.37c0,.13,0,.26,0,.39a1.47,1.47,0,0,0,0,.41.64.64,0,0,0,.36.38,1.54,1.54,0,0,1,.4.26.8.8,0,0,1,.3.69.31.31,0,0,1-.07.14l-.06.06-.1.06c-.11.07-.25.12-.44.22a.77.77,0,0,0-.36.42c-.05.13-.1.24-.15.35a1.11,1.11,0,0,1-.6.49h0l-.05,0a.14.14,0,0,0-.09.16.36.36,0,0,1,0,.15.24.24,0,0,1,0,.11.15.15,0,0,1-.1.05H19l-.08,0-.07,0a.21.21,0,0,1-.07-.15.65.65,0,0,1,.1-.37l-.05,0a1.08,1.08,0,0,0-.23.38.38.38,0,0,0,0,.23.38.38,0,0,0,.11.11l.15.08.07,0H19a1,1,0,0,0,.18,0,.51.51,0,0,0,.21,0,.5.5,0,0,0,.2-.08.54.54,0,0,0,.18-.24.56.56,0,0,0,0-.12,2,2,0,0,0,.4-.23,1.18,1.18,0,0,0,.32-.4,1.8,1.8,0,0,0,.15-.4.36.36,0,0,1,.17-.25,3.42,3.42,0,0,0,.43-.28l.09-.09a.42.42,0,0,0,.08-.12.34.34,0,0,0,0-.16l.05,0a2.46,2.46,0,0,0,.87.24,3.48,3.48,0,0,0,.91,0,1.53,1.53,0,0,0,.26-.08,1.5,1.5,0,0,0,.18-.09,2.41,2.41,0,0,1,.28-.14.74.74,0,0,1,.25-.05h.14l.23,0a1,1,0,0,0,.87-.34l0,0a1,1,0,0,0,.19-.26.27.27,0,0,0,0-.27h0a.24.24,0,0,0,.09-.08c0-.15-.17-.19-.17-.18a.73.73,0,0,0-.1.13s0,0,0,0h0a.24.24,0,0,0-.15,0,.32.32,0,0,0-.21.09.75.75,0,0,0-.14.24l.06,0a.73.73,0,0,1,.2-.19l.09,0h0l0,0s0,0,0,0,0,.09,0,.15a1,1,0,0,1-.18.16l0,0a.63.63,0,0,1-.47.14l-.16,0a.93.93,0,0,0-.25,0,1.35,1.35,0,0,0-.53.06,4.48,4.48,0,0,1-.62.26,3.09,3.09,0,0,1-.69,0,1.73,1.73,0,0,1-.62-.13.56.56,0,0,1-.31-.35,1.21,1.21,0,0,1,.32-1c.12-.16.3-.3.45-.46a2.73,2.73,0,0,0,.41-.49c.11-.17.19-.35.28-.52s.19-.33.29-.5a2.48,2.48,0,0,1,.92-.77,13.06,13.06,0,0,1,1.3-.61l0,0a6.76,6.76,0,0,0-.78.17,5.73,5.73,0,0,0-.73.26,3.82,3.82,0,0,0-.66.36,1.77,1.77,0,0,0-.48.51,2.83,2.83,0,0,0-.21.55c0,.18-.08.37-.14.54a1.41,1.41,0,0,1-.31.48c-.1.11-.22.21-.34.32v-.06l-.36-.05a1.66,1.66,0,0,0,.15-.33,2.33,2.33,0,0,0,.06-.89,3.52,3.52,0,0,0-.27-1,2.32,2.32,0,0,0-1-1,4.8,4.8,0,0,0-1.66-.49l-.55-.06v0a.18.18,0,0,1,.1-.12.58.58,0,0,1,.27,0l.21,0,.25,0,.59.09c.22,0,.46,0,.7,0,.5,0,1,0,1.53.06a6.94,6.94,0,0,0,.79,0l.74-.1a11.73,11.73,0,0,0,1.23-.3,3.45,3.45,0,0,1,.44-.09,1.06,1.06,0,0,1,.32,0l.19.07h0a6.65,6.65,0,0,0-1.46.38A5.59,5.59,0,0,0,23,19a3.75,3.75,0,0,0-.79.73,2.85,2.85,0,0,0-.24.37,1.59,1.59,0,0,0-.11.38A.94.94,0,0,0,22,21a1.25,1.25,0,0,0,.31.33l.15.09,0,0a.43.43,0,0,1-.09-.11A.87.87,0,0,1,22.2,21a1,1,0,0,1,0-.53,1.76,1.76,0,0,1,.39-.63,4.92,4.92,0,0,1,.74-.66,6.54,6.54,0,0,1,1-.66,3.74,3.74,0,0,1,1.32-.44l.38,0,.37,0a3.8,3.8,0,0,1,.72.17,2.14,2.14,0,0,1,.61.28,1.66,1.66,0,0,1,.44.38,1.16,1.16,0,0,1,.27.9,4.61,4.61,0,0,1-.13.46,1.84,1.84,0,0,1-.17.43,2.15,2.15,0,0,1-.6.68,7.39,7.39,0,0,1-.77.48l-.67.33-.44.2-.16.08,0,0,.69-.18c.21-.06.47-.15.75-.26a5.47,5.47,0,0,0,.91-.45,2.36,2.36,0,0,0,.8-.77,1.77,1.77,0,0,0,.21-.49,2.39,2.39,0,0,0,.12-.51A1.37,1.37,0,0,0,28.58,18.73Z"/><path class="cls-3" d="M25.31,22.67l-.07,0-.12.08a.42.42,0,0,0-.11.09h.32l.08,0h.1c.06,0,.14-.07.16-.14a.13.13,0,0,0-.08-.15.3.3,0,0,0-.13,0l0-.07a.19.19,0,0,0,0-.13.15.15,0,0,0-.1-.08h0s0,0,.07-.06a.29.29,0,0,0,0-.16.19.19,0,0,0,0-.07.2.2,0,0,0-.08-.1,1.16,1.16,0,0,0-.43-.12,2.26,2.26,0,0,0-.45,0l-.23,0-.13.06a.07.07,0,0,0,0,0l0,0h0a.83.83,0,0,1-.28.12c-.23.07-.45.13-.65.17l-.64.17a6.69,6.69,0,0,0,.68-.07c.21,0,.45-.06.7-.12a1.24,1.24,0,0,0,.4-.15l0,0h0l0,0h.05a.65.65,0,0,1,.16,0h.37a.79.79,0,0,1,.31.07h0l0,0a.1.1,0,0,1,0,.09c0,.05-.1.09-.18.12l-.46.13-.17.06.19,0c.12,0,.28,0,.5-.06a.72.72,0,0,0,.24-.1s0,.05,0,.08l-.06.07,0,0,0,0a1,1,0,0,1-.2.11l-.14.05a.38.38,0,0,0,.16.05.61.61,0,0,0,.38-.08l0,0,0,.07a0,0,0,0,1,0,.05l-.07,0h0s0,0,0,0Z"/><path class="cls-3" d="M18.28,25.84v0h0a.84.84,0,0,1,0-.19.49.49,0,0,0,0-.14.6.6,0,0,0-.18.08.41.41,0,0,0-.12.11.22.22,0,0,0,0,.2A.38.38,0,0,0,18,26a.53.53,0,0,0,.39.06.38.38,0,0,0,.17-.08l-.16-.06-.1-.06"/><path class="cls-3" d="M19.42,10.61c-.54,0-.27.26-.27.26s.11-.15.24-.16a.28.28,0,0,0,.28.3c.25,0,.16-.17.09-.27a4.46,4.46,0,0,1,.5.13,1.31,1.31,0,0,0-.84-.26"/><path class="cls-3" d="M20.68,10.49l.18.07-.18-.07"/><path class="cls-3" d="M18.61,10.49s-.12-.33.73-.28a5.13,5.13,0,0,1,1.34.28,7.38,7.38,0,0,0-1.6-.45c-.47,0-.71.26-.47.45"/><path class="cls-3" d="M.61,2.7a1.44,1.44,0,0,0,.5.09c.36,0,.57-.16.57-.4S1.5,2,1.22,1.9.57,1.55.57,1.24.94.62,1.49.62A1.23,1.23,0,0,1,2,.71L1.88.94A1.06,1.06,0,0,0,1.47.86C1.13.86,1,1,1,1.2s.18.33.51.49.59.41.59.68S1.66,3,1.11,3a1.61,1.61,0,0,1-.59-.1Z"/><path class="cls-3" d="M3.59,2h0c0-.35-.18-.5-.36-.5s-.39.26-.41.5Zm-.77.2c0,.52.3.63.58.63a1.08,1.08,0,0,0,.41-.07l.07.2A1.77,1.77,0,0,1,3.33,3a.8.8,0,0,1-.9-.85.82.82,0,0,1,.84-.9A.68.68,0,0,1,4,2v.16Z"/><path class="cls-3" d="M4.4,1.75c0-.2,0-.3,0-.44h.34l0,.2h0a.74.74,0,0,1,.57-.23.54.54,0,0,1,.6.59V3h-.4V1.91c0-.2,0-.4-.34-.4a.38.38,0,0,0-.37.28.61.61,0,0,0,0,.15V3H4.4Z"/><path class="cls-3" d="M6.92.86v.45H7.4v.21H6.92v1c0,.22.12.28.26.28h.16l0,.2a1.21,1.21,0,0,1-.3,0,.69.69,0,0,1-.39-.1.51.51,0,0,1-.14-.43v-1H6.22V1.31h.31V.94Z"/><path class="cls-3" d="M8.66,2.13h0c-.2,0-.68,0-.68.4a.29.29,0,0,0,.31.3.35.35,0,0,0,.36-.26.31.31,0,0,0,0-.09ZM8.72,3l0-.18h0A.62.62,0,0,1,8.19,3a.53.53,0,0,1-.59-.49c0-.42.5-.61,1.05-.61V1.88c0-.22-.08-.38-.39-.38a1.07,1.07,0,0,0-.41.08L7.76,1.4a1.36,1.36,0,0,1,.58-.12c.5,0,.71.23.71.61v.73a1.63,1.63,0,0,0,0,.39Z"/><path class="cls-3" d="M10.71,2h0a.37.37,0,0,0,0-.11.39.39,0,0,0-.37-.34c-.32,0-.44.32-.44.66s.14.64.42.64a.37.37,0,0,0,.38-.29.36.36,0,0,0,0-.11ZM11.1.58v2c0,.12,0,.31,0,.41h-.34l0-.21h0a.62.62,0,0,1-.52.24c-.42,0-.72-.31-.72-.87s.36-.89.75-.89a.53.53,0,0,1,.45.21h0V.58Z"/><path class="cls-3" d="M11.93,2.16h0c0,.28.08.66.43.66s.41-.4.41-.66-.07-.66-.42-.66-.42.4-.42.66m1.24,0a.8.8,0,0,1-.83.88.78.78,0,0,1-.8-.88.8.8,0,0,1,.83-.88A.78.78,0,0,1,13.17,2.16Z"/><path class="cls-3" d="M15.46,2h0c0-.35-.17-.5-.36-.5s-.39.26-.41.5Zm-.77.2c0,.52.3.63.59.63a1.16,1.16,0,0,0,.41-.07l.06.2A1.77,1.77,0,0,1,15.2,3a.8.8,0,0,1-.9-.85.82.82,0,0,1,.84-.9.68.68,0,0,1,.7.75v.16Z"/><path class="cls-3" d="M16.27,1.75c0-.2,0-.3,0-.44h.34l0,.2h0a.74.74,0,0,1,.57-.23.54.54,0,0,1,.6.59V3h-.4V1.91c0-.2-.05-.4-.34-.4a.38.38,0,0,0-.37.28.61.61,0,0,0,0,.15V3h-.39Z"/><path class="cls-3" d="M20.2,2h0c0-.35-.18-.5-.37-.5s-.39.26-.4.5Zm-.78.2c0,.52.3.63.59.63a1.12,1.12,0,0,0,.41-.07l.06.2a1.75,1.75,0,0,1-.54.08.79.79,0,0,1-.9-.85.81.81,0,0,1,.83-.9.68.68,0,0,1,.71.75.76.76,0,0,1,0,.16Z"/><rect class="cls-3" x="21" y="0.58" width="0.39" height="2.43"/><path class="cls-3" d="M.59,5.89A1,1,0,0,0,1,6c.22,0,.36-.09.36-.24S1.29,5.51,1,5.39s-.5-.28-.5-.48.3-.47.68-.47a1.27,1.27,0,0,1,.45.09l-.11.2a.81.81,0,0,0-.33-.07c-.21,0-.32.1-.32.21s.06.18.3.3.52.28.52.51-.34.51-.75.51a1.15,1.15,0,0,1-.49-.1Z"/><path class="cls-3" d="M3.62,5.7c0,.19,0,.34,0,.47H3.3l0-.18h0a.73.73,0,0,1-.53.21c-.44,0-.6-.24-.6-.66V4.47h.39v1c0,.27.06.47.33.47a.36.36,0,0,0,.36-.23.68.68,0,0,0,0-.15V4.47h.39Z"/><path class="cls-3" d="M5.23,5.14h0c0-.34-.18-.49-.37-.49s-.39.26-.41.49Zm-.78.2c0,.52.3.63.59.63a1.15,1.15,0,0,0,.41-.06l.06.2A1.75,1.75,0,0,1,5,6.19a.81.81,0,0,1-.91-.85.82.82,0,0,1,.84-.9.68.68,0,0,1,.71.75.66.66,0,0,1,0,.15Z"/><rect class="cls-3" x="6.03" y="3.74" width="0.39" height="2.43"/><path class="cls-3" d="M7.29,5.32h0c0,.28.07.66.43.66s.41-.4.41-.66-.07-.66-.42-.66-.42.4-.42.66m1.24,0a.8.8,0,0,1-.83.88.78.78,0,0,1-.8-.88.8.8,0,0,1,.83-.88A.78.78,0,0,1,8.53,5.32Z"/><path class="cls-3" d="M8.6,6.61a3.64,3.64,0,0,0,.3-.82l.44,0a3.28,3.28,0,0,1-.47.82Z"/><path class="cls-3" d="M10.52,5.89a1,1,0,0,0,.4.08c.23,0,.36-.09.36-.24s-.06-.22-.31-.34-.5-.28-.5-.48.3-.47.68-.47a1.22,1.22,0,0,1,.45.09l-.11.2a.81.81,0,0,0-.33-.07c-.21,0-.32.1-.32.21s.06.18.31.3.51.28.51.51-.34.51-.74.51a1.17,1.17,0,0,1-.5-.1Z"/><path class="cls-3" d="M13.12,5.14h0c0-.34-.18-.49-.37-.49s-.39.26-.4.49Zm-.78.2c0,.52.31.63.59.63a1.15,1.15,0,0,0,.41-.06l.06.2a1.75,1.75,0,0,1-.54.08.8.8,0,0,1-.9-.85.81.81,0,0,1,.83-.9.68.68,0,0,1,.71.75.66.66,0,0,1,0,.15Z"/><path class="cls-3" d="M1.05,8.7h0a.61.61,0,0,0,0,.14.38.38,0,0,0,.36.29c.33,0,.43-.31.43-.66s-.12-.64-.43-.64a.38.38,0,0,0-.36.31.53.53,0,0,0,0,.13Zm-.4-.55c0-.25,0-.41,0-.52H1l0,.21H1a.6.6,0,0,1,.52-.24c.43,0,.71.31.71.87s-.37.88-.76.88a.5.5,0,0,1-.43-.19h0V10H.65Z"/><path class="cls-3" d="M3.62,8.45h0c-.2,0-.68,0-.68.39a.28.28,0,0,0,.3.3.36.36,0,0,0,.37-.25.38.38,0,0,0,0-.1Zm.06.87,0-.17h0a.64.64,0,0,1-.5.2c-.33,0-.59-.19-.59-.48s.5-.62,1.06-.62V8.2c0-.23-.08-.39-.39-.39a1,1,0,0,0-.41.09l-.09-.19A1.48,1.48,0,0,1,3.3,7.6c.49,0,.71.22.71.6v.74a2.24,2.24,0,0,0,0,.38Z"/><path class="cls-3" d="M4.56,8.06c0-.14,0-.31,0-.43h.35l0,.26h0a.59.59,0,0,1,.52-.29h.08v.28H5.44A.46.46,0,0,0,5,8.23a.68.68,0,0,0,0,.15v.94H4.56Z"/><path class="cls-3" d="M6.72,8.45h0c-.2,0-.68,0-.68.39a.28.28,0,0,0,.3.3.36.36,0,0,0,.37-.25.38.38,0,0,0,0-.1Zm.06.87,0-.17h0a.64.64,0,0,1-.5.2.52.52,0,0,1-.58-.48c0-.43.49-.62,1-.62V8.2c0-.23-.08-.39-.39-.39a1,1,0,0,0-.41.09l-.09-.19A1.48,1.48,0,0,1,6.4,7.6c.49,0,.71.22.71.6v.74a1.5,1.5,0,0,0,0,.38Z"/><path class="cls-3" d="M8.4,9a1,1,0,0,0,.4.09c.22,0,.36-.09.36-.24s-.07-.22-.32-.34-.49-.29-.49-.48S8.64,7.6,9,7.6a1,1,0,0,1,.44.09l-.1.2A.84.84,0,0,0,9,7.81c-.22,0-.32.11-.32.22s.06.18.3.29.51.28.51.52-.33.51-.74.51a1.15,1.15,0,0,1-.49-.1Z"/><path class="cls-3" d="M10.23,8.47h0c0,.29.07.67.43.67s.4-.4.4-.67-.06-.66-.41-.66-.42.4-.42.66m1.23,0a.79.79,0,0,1-.82.88.77.77,0,0,1-.8-.87.8.8,0,0,1,.83-.88A.77.77,0,0,1,11.46,8.47Z"/><rect class="cls-3" x="11.9" y="6.9" width="0.39" height="2.43"/><path class="cls-3" d="M13.17,8.47h0c0,.29.07.67.43.67s.4-.4.4-.67-.07-.66-.41-.66-.42.4-.42.66m1.23,0a.79.79,0,0,1-.82.88.78.78,0,0,1-.81-.87.8.8,0,0,1,.83-.88A.78.78,0,0,1,14.4,8.47Z"/><path class="cls-3" d="M24.07,6.65A2.44,2.44,0,0,1,26.39,8c.64,1.45.72,3.33-.93,4.36a26.36,26.36,0,0,1-3,1.62l-1.31.41a18.65,18.65,0,0,0,1.57-2.27c.23-.58,1.86-1.29,1.74-2.71a23,23,0,0,0-.4-2.74"/><path class="cls-3" d="M22.31,16.32s.58.22.42.45a1.3,1.3,0,0,0-.2.57,2.25,2.25,0,0,1-.8-.42c-.2-.23.58-.6.58-.6"/></svg>