<svg id="Capa_1" data-name="Capa 1" xmlns="http://www.w3.org/2000/svg" viewBox="0 0 28.73 30"><defs><style>.cls-1{fill:#f5a4c7;}.cls-2{fill:#fbcabb;}.cls-3{fill:#231f20;}</style></defs><title>2-18meses</title><path class="cls-1" d="M6.56,17.78s-1.56.13-2,.94S4.75,20.77,6,21.25s4.73-.13,4.73-.13,1.89-1.15,1-2-5.15-1.37-5.15-1.37"/><path class="cls-2" d="M6.13,13.27s-2.7.57-3.29,1.56S1,17.67,1.06,18s.26.56.67.47a5.56,5.56,0,0,1,1.1-.07l.56.05s.47-.26.67-.2.54.14.56-.15.12-.39-.18-.64a1.57,1.57,0,0,1-.39-.43A5.38,5.38,0,0,0,5.11,16c.14-.35.27-.7.38-.7s.64-.1.64-.1S6,16,6,16.42a10.67,10.67,0,0,1-.62,1.75A5.83,5.83,0,0,0,7.6,19.41a7.21,7.21,0,0,0,3.89.11,2.11,2.11,0,0,0,1.13-1c.05-.11.15-1.9.15-1.9a7.37,7.37,0,0,0,1,.7,3.5,3.5,0,0,0,1,.26,2.42,2.42,0,0,0-.2.87,3.6,3.6,0,0,0,1.69.69c.38,0,1.48-.7,1.46-1.18a2.7,2.7,0,0,0-.62-1.14,8.56,8.56,0,0,1-2-1c-.21-.32-.75-1.18-.85-1.37a11.77,11.77,0,0,0-.93-1s1.39-1.1,1.28-1.41-.9-1.52-.14-2.34a.63.63,0,0,0-.36-.87,9.4,9.4,0,0,0-2.42-.46,11.59,11.59,0,0,0-3,.09c-.2.1-1.51,1.12-1.51,1.12s-.69,1.8-.05,2.33.94.8.94.8a8.7,8.7,0,0,1-2,.55"/><path class="cls-2" d="M5.23,20.26a4.35,4.35,0,0,0,.55,1.33,6.26,6.26,0,0,0,1,.76,9.51,9.51,0,0,0-1.4.92c-.23.26-.48,1.46-.88,1.59s-1.25.49-.43,1.27A7.61,7.61,0,0,0,6.68,27.7c.44.1,1.08-.28,1.33-.35s.7-.49.39-.72A10.26,10.26,0,0,0,7.15,26a2.89,2.89,0,0,1-.44-.67s1.9-1.48,1.91-1.5A2.19,2.19,0,0,1,9,23.68a3.31,3.31,0,0,0-.06,1.77c.29.62.5.94.21,1.24s-.44.41-.35.75a4.63,4.63,0,0,0,1.34,1.75,8.67,8.67,0,0,0,1.7.18A3.18,3.18,0,0,0,13.3,29c.1-.12-.18-.47-.45-.64s-1.18-.95-1.2-1.19a3.55,3.55,0,0,1,.58-2.28,1.7,1.7,0,0,0,.07-2.22,12.69,12.69,0,0,0-1.81-1.76c-.67-.52-5.43-2.49-5.26-.68"/><path class="cls-3" d="M11.53,10.79l.18.1s.07-.27-.75-.21a2.88,2.88,0,0,0-1.52.72s1.57-.81,2.09-.61"/><path class="cls-3" d="M11.27,11.34a.32.32,0,0,1,0-.13h.18s0-.16-.33-.1a9.66,9.66,0,0,0-1,.3l.61-.09s-.11.13.14.19.52-.06.48-.16"/><path class="cls-3" d="M13.34,11c-.27.08-.25.16-.25.16.31-.09,0,.1.25.15a.29.29,0,0,0,.36-.15c.05-.11-.13-.13,0-.15A.93.93,0,0,1,14,11c0-.21-.36-.16-.62-.08"/><path class="cls-3" d="M10.83,12.48a1.18,1.18,0,0,0,.76.33,1.93,1.93,0,0,0,1.2-.07c.17-.15.12-.27.3-.34a4.31,4.31,0,0,1-1.22.16c-.57,0-1-.08-1-.08"/><path class="cls-3" d="M11.87,13c-.49-.11-.79,0-.57.12s1.07,0,.57-.12"/><path class="cls-3" d="M9.13,12.26l0,0Z"/><path class="cls-3" d="M17.28,17.92h0a1.66,1.66,0,0,1-.2.64.64.64,0,0,1-.5.33,2.15,2.15,0,0,1-.44,0,1.27,1.27,0,0,1-.39-.12.73.73,0,0,1-.22-.16l.16.05a1.55,1.55,0,0,0,.23.06,1.65,1.65,0,0,0,.45,0,.65.65,0,0,0,.3-.13.15.15,0,0,0,.08-.09l0,0-.11,0-.24-.07L16,18.27h-.38a.26.26,0,0,1-.21-.1.32.32,0,0,1-.06-.21V17.9a1.83,1.83,0,0,0,.42.07,4.62,4.62,0,0,0,.93-.07v0a6.39,6.39,0,0,1-.84-.14.48.48,0,0,1-.26-.12s0,0,0,0h0l0-.08h0a.13.13,0,0,1,0-.06,2.19,2.19,0,0,1,.28-.19v0a.9.9,0,0,0-.47-.09.74.74,0,0,0-.28.08.54.54,0,0,0-.12.09.18.18,0,0,0-.05.07l0,0a.3.3,0,0,0,0,.08.35.35,0,0,0,0,.15.44.44,0,0,0,.18.23l-.07.08a.44.44,0,0,0-.07.26.15.15,0,0,1-.12-.08l0-.09s0-.06,0-.12a.6.6,0,0,1,0-.12.25.25,0,0,1,0-.12,2.11,2.11,0,0,1,.19-.51,2.81,2.81,0,0,0,.13-.28,1.23,1.23,0,0,0-.42.14,1.08,1.08,0,0,0-.46.42l-.09-.06-.59-.45a5.68,5.68,0,0,0-.66-.43l-.19-.1a9.31,9.31,0,0,0-.3-1c-.13-.34-.22-.53-.22-.53h-.07s0,.2,0,.55.06.85.08,1.44c0,.3,0,.61-.06,1a2.74,2.74,0,0,1-.21,1,1.55,1.55,0,0,1-1,.67,5.14,5.14,0,0,1-1.59.24,6.75,6.75,0,0,1-3.11-.81,3.27,3.27,0,0,1-.53-.37c-.15-.13-.19-.28-.15-.27a2.21,2.21,0,0,0,.41-1,5.94,5.94,0,0,0,.11-1.47,3.1,3.1,0,0,0,0-.39c.36-.1.71-.21,1-.34v0a14,14,0,0,0-2.08.15l-.21,0,0,.19c0,.05,0,.11,0,.18l-.11.2c-.09.14-.18.29-.29.43s-.42.59-.67.87l-.07.07.1,0a1.15,1.15,0,0,1,.63.49.37.37,0,0,1,0,.29.13.13,0,0,0,0,.05L4.38,18l-.06.08s0-.06-.06-.1a.56.56,0,0,0-.25-.2,1.28,1.28,0,0,0-.33-.06,1.63,1.63,0,0,0-.55.09l0,0A2,2,0,0,1,3.6,18a.72.72,0,0,1,0,.22c0,.08,0,.18-.1.18l-.12,0-.22,0A.48.48,0,0,1,3,18.32a.42.42,0,0,1-.14-.09.88.88,0,0,1-.2-.24c0-.09-.09-.16-.11-.22l0-.08a.58.58,0,0,0-.11.32v0c-.06-.07-.11-.14-.17-.2a1.78,1.78,0,0,0-.17-.15.49.49,0,0,0-.07.19.53.53,0,0,0,.07.33L1.81,18l-.19-.12a.45.45,0,0,0,0,.18.5.5,0,0,0,.19.37l0,0H1.74a.4.4,0,0,1-.36-.19.64.64,0,0,1,0-.48A6.32,6.32,0,0,1,2,16.44a7.47,7.47,0,0,1,.47-.73c.17-.25.35-.5.55-.75a3.69,3.69,0,0,1,.68-.69,2.55,2.55,0,0,1,.93-.47c.34-.11.7-.17,1-.24l.94-.21A7.32,7.32,0,0,0,8,13l0,0,.21.27v-.35l.28.39-.1-.39a7.83,7.83,0,0,0,.75.45,6.06,6.06,0,0,0,1.34.48,4.35,4.35,0,0,0,.75.12l.39,0H12a4.43,4.43,0,0,0,1.31-.27c.25.35.52.68.77,1a1.62,1.62,0,0,1,.2.28.61.61,0,0,1,.07.14l.09.16a3.45,3.45,0,0,0,.49.61l0,0h0a5,5,0,0,1,1.77.77,1.63,1.63,0,0,1,.3.28.51.51,0,0,1,.09.13.53.53,0,0,1,0,.15c0,.12,0,.22,0,.34a1.93,1.93,0,0,1,0,.34m-2.47.44h0l-.1-.1,0,0a.59.59,0,0,0,.37,0,.39.39,0,0,0,.11.15.33.33,0,0,0,0,.14.18.18,0,0,0,0,.09l-.11-.06A2.13,2.13,0,0,1,14.81,18.36Zm-3.35,1.83h0a4.37,4.37,0,0,1-.44.42l-.28.22a6.34,6.34,0,0,0-1.31-.73,7.61,7.61,0,0,0-1.87-.53c-.33-.05-.66-.08-1-.1l-.49,0a1.11,1.11,0,0,0-.54.07.64.64,0,0,0-.33.29.93.93,0,0,0-.12.34c0,.06,0,.12,0,.17l-.21-.21c0-.08-.1-.15-.14-.23a.75.75,0,0,1-.09-.25.94.94,0,0,1,0-.5,1.51,1.51,0,0,1,.2-.52,2.67,2.67,0,0,1,.34-.43v.06a.35.35,0,0,0,.07.2,1.16,1.16,0,0,0,.28.26A4.06,4.06,0,0,0,6.2,19a15.86,15.86,0,0,0,1.56.5,10,10,0,0,0,1.7.35,4.77,4.77,0,0,0,.93,0,6.26,6.26,0,0,0,.9-.15,3.72,3.72,0,0,0,.59-.2A2.51,2.51,0,0,1,11.46,20.19ZM5.35,15.91h0a2.2,2.2,0,0,0,.15-.26.58.58,0,0,0,0-.14l.53-.13c0,.09,0,.2-.09.35-.1.34-.21.84-.37,1.42a3,3,0,0,1-.36.86c0,.06,0,0,0,.09h0a2.36,2.36,0,0,0-.38.22,1.19,1.19,0,0,0,.08-.16l0-.09v-.13a.63.63,0,0,0-.21-.39,3.82,3.82,0,0,0-.64-.48,6.45,6.45,0,0,0,.91-.7A4.19,4.19,0,0,0,5.35,15.91Zm-.92,2.4Zm-.26,0Zm3.56-5.73h0l.17.22-.06,0-.11,0Zm6.6-.78h0c0,.08.09.19.1.24s0,.07,0,.09l0,.11a1.45,1.45,0,0,1-.27.41,2.66,2.66,0,0,1-.93.63,4,4,0,0,1-1.25.31,3.94,3.94,0,0,1-.69,0,3.91,3.91,0,0,1-.68-.06,5,5,0,0,1-2.38-1h0L8,12.4a.45.45,0,0,0,.23,0,.23.23,0,0,0,.11-.09c0-.08-.06-.13-.07-.13a.17.17,0,0,1-.1-.23.54.54,0,0,0,0-.15s-.1-.12-.12-.13L8,11.6l-.13-.06-.19-.07H7.52c-.07,0-.1.06-.1.09s0,.07,0,.1a.17.17,0,0,0,.05.06h0l0-.06,0-.05s0,0,0,0l0,0,.09.06.17.09.1,0s0,0,0,0,0,.09.07.13a2.59,2.59,0,0,1,.14.29s0,0,0,0,0,0,0,0l-.07,0H8l0-.05,0-.07h0l-.07.06a.17.17,0,0,0,0,.1l0,0a2.34,2.34,0,0,1-.31-.24c-.22-.29-.33-.6-.13-.69s.87.25.87.25a.91.91,0,0,0,.45.5l-.07-.38.5.53a1.64,1.64,0,0,1-.38-1.17,2.11,2.11,0,0,1,.9-1.38l-.28.7,1.46-1-.66,1.18,1.06-.94-.19.79.59-.54-.23.49.91-.86-.29.86,1.07-.45-.36.38,1.12-.89-.44.84,1-.72-.11.25a1.26,1.26,0,0,0-.15.5,1.47,1.47,0,0,0,0,.21,1.06,1.06,0,0,0-1.35.49c-.11.43.19.57.29.81s-.44.33-.44.33a.58.58,0,0,0,.57-.12c.22-.13.1-.19-.18-.5s0-.58.23-.82a1.29,1.29,0,0,1,.87-.13,1.76,1.76,0,0,0,0,.23A3.55,3.55,0,0,0,14.33,11.78ZM8.87,26.4h0a1.22,1.22,0,0,1-.2.37l-.06.07,0,0a.45.45,0,0,0-.19-.35l-.19-.12-.2-.08-.16-.06-.14-.06a3.08,3.08,0,0,1-.62-.33,1,1,0,0,1-.31-.41,5.07,5.07,0,0,0,.61-.34c.21-.13.42-.27.61-.41a5,5,0,0,0,.76-.76,8.42,8.42,0,0,0-.14,1.23,2,2,0,0,0,0,.48,1.17,1.17,0,0,0,.09.24,1.8,1.8,0,0,1,.08.21A.73.73,0,0,1,8.87,26.4Zm-.47.69Zm9.46-9.54a1.36,1.36,0,0,0-.12-.39.62.62,0,0,0-.12-.2.81.81,0,0,0-.19-.18,2.67,2.67,0,0,0-.43-.25c-.3-.15-.61-.28-.91-.42s-.56-.26-.84-.39c-.11-.19-.18-.4-.27-.59L14.91,15l-.09-.17a2.66,2.66,0,0,0-.26-.31,5.29,5.29,0,0,0-.6-.55c-.15-.11-.32-.22-.5-.33l0,0a2.68,2.68,0,0,0,1.06-.8,1.38,1.38,0,0,0,.23-.53s0-.09,0-.15a.38.38,0,0,0-.05-.16,2,2,0,0,1-.14-.23,3.15,3.15,0,0,1-.36-1,1.75,1.75,0,0,1,0-.72,3.16,3.16,0,0,0,.48-.81c.34-.73-.4-1.52-1.21-2A5.49,5.49,0,0,0,10,6.74c-1.89.14-3.63,1.49-3.85,2.77a2.27,2.27,0,0,0,.46,1.87l0,.06.24.3c.18.28.58.86.74,1.1-.31.05-.75.07-1.26.16a7.9,7.9,0,0,0-1,.2,6.14,6.14,0,0,0-1,.4,5.35,5.35,0,0,0-.9.58l-.83.65a5.59,5.59,0,0,0-.75.7,7.83,7.83,0,0,0-.58.74A3.31,3.31,0,0,0,1,17a2.47,2.47,0,0,0-.16.72.85.85,0,0,0,.21.65.9.9,0,0,0,.72.22A1.55,1.55,0,0,0,2,18.56a1,1,0,0,0,.28,0l.19,0,.16,0h.16a1,1,0,0,0,.26.08,1.94,1.94,0,0,0,.33,0,.8.8,0,0,0,.37-.11.24.24,0,0,0,.12-.16l.06.1s0,0,.1.08a.51.51,0,0,0,.27.06l.12,0a1.44,1.44,0,0,0-.28.43,1.18,1.18,0,0,0-.08.31,1.71,1.71,0,0,0,0,.32,2.22,2.22,0,0,0,.1.31,2.19,2.19,0,0,0,.17.29h0l0,0c.22.2.48.39.73.59l.27.2a1.11,1.11,0,0,0,.08.3,1.33,1.33,0,0,0,.28.43,2.83,2.83,0,0,0,.82.59,2.44,2.44,0,0,0-.38.13,3,3,0,0,0-1,.67,1.72,1.72,0,0,0-.37.6,5.53,5.53,0,0,1-.27.64,1.83,1.83,0,0,1-.52.61c-.11.09-.28.14-.38.31a.47.47,0,0,0,0,.43,1.4,1.4,0,0,0,.64.71A5,5,0,0,1,5,27a2.13,2.13,0,0,1,.26.26,2.08,2.08,0,0,0,.3.3,1.85,1.85,0,0,0,1,.32,1.49,1.49,0,0,0,.51-.06.58.58,0,0,0,.36-.24h.15a.7.7,0,0,0,.23,0,.3.3,0,0,0,.2-.18.21.21,0,0,0-.08-.21A.82.82,0,0,0,7.76,27a1,1,0,0,0-.2-.05.55.55,0,0,0,.07.13c0,.07.09.17.07.2s-.09.1-.18.15l0,0a.34.34,0,0,0,0-.17c0-.1-.12-.21-.22-.23a1.36,1.36,0,0,0-.42,0l-.14,0v0l.13,0a1.14,1.14,0,0,1,.3.09s0,0,0,.08a.59.59,0,0,1-.12.14.65.65,0,0,1-.45,0,1.23,1.23,0,0,1-.57-.23s-.13-.15-.23-.26a2.09,2.09,0,0,0-.34-.31,7.53,7.53,0,0,0-.88-.47A1.66,1.66,0,0,1,4,25.73a.35.35,0,0,1-.09-.3c0-.08.19-.18.3-.28a8,8,0,0,0,.68-.59,2.88,2.88,0,0,0,.5-.63,2.63,2.63,0,0,1,.3-.53,5.26,5.26,0,0,1,.73-.71,3.15,3.15,0,0,1,.29-.22l0,0c.39.18.74.31,1.12.45l.57.2.48.19c0,.1,0,.2-.05.3a5.77,5.77,0,0,0-1.28.69,4.89,4.89,0,0,0-.55.45,4.52,4.52,0,0,0-.48.5l-.07.08,0,0a5.16,5.16,0,0,1,.46.49,2.21,2.21,0,0,0,.46.52.68.68,0,0,0,.19.11l.2.08.17.05.13.05a.6.6,0,0,1,.2.14.44.44,0,0,1,.06.16.51.51,0,0,0-.28-.21.68.68,0,0,0-.15,0H7.86l.09.13L8,27a.34.34,0,0,1,.06.12.25.25,0,0,1,0,.22,1,1,0,0,1-.09.13.44.44,0,0,0,.22-.05l.06,0a.37.37,0,0,0,0,.2.63.63,0,0,0,.1.14l.11.11a10.59,10.59,0,0,1,.81.69,1.55,1.55,0,0,1,.25.39,1.12,1.12,0,0,0,.48.42,1.15,1.15,0,0,0,.78.07c.11,0,.16-.13.13-.18a.38.38,0,0,0-.09-.12,1.38,1.38,0,0,0-.25-.17l-.05,0a1.35,1.35,0,0,1,.16.19.47.47,0,0,1,0,.09s0,0,0,0a.69.69,0,0,1-.46-.12.73.73,0,0,1-.25-.33,1.88,1.88,0,0,0-.22-.46A4.67,4.67,0,0,0,9,27.55l-.08-.08,0,0s0,0,0-.06.19-.26.29-.41a1,1,0,0,0,.14-1c-.05-.09-.09-.14-.14-.22a2,2,0,0,0-.11-.2A1.88,1.88,0,0,1,9,25.09a2.82,2.82,0,0,1,.2-1.78l0,0-.07-.05a5.24,5.24,0,0,0-.51-.3c-.17-.09-.34-.19-.52-.27-.35-.17-.76-.31-1.1-.45a3.62,3.62,0,0,1-.93-.52,2.41,2.41,0,0,1-.37-.34l0,0-.26-.59a1.59,1.59,0,0,1-.16-.63.51.51,0,0,1,.31-.53.92.92,0,0,1,.41,0l.46.08a8.1,8.1,0,0,1,.91.2,8.16,8.16,0,0,1,1.64.6c.26.12.5.25.74.39s.48.28.71.43l.23.15,0,0a5.57,5.57,0,0,1,.72.88c.13.18.26.4.39.62s.13.23.21.35a1.66,1.66,0,0,1,.15.33,2.36,2.36,0,0,1-.33,1.55,3.49,3.49,0,0,0-.29.86,4.88,4.88,0,0,0-.15.85c0,.14,0,.27,0,.41a1.47,1.47,0,0,0,.1.4,1.62,1.62,0,0,0,.67.63l.66.37a.79.79,0,0,1,.32.25c0,.06-.17.11-.24.13l-.15,0v.05h.36A.4.4,0,0,0,13.5,29a.26.26,0,0,0,0-.29,1.67,1.67,0,0,0-.23-.23,6.72,6.72,0,0,0-.6-.44,1.58,1.58,0,0,1-.51-.48,3.52,3.52,0,0,1-.3-.71,1.49,1.49,0,0,1,0-.81,1.85,1.85,0,0,1,.42-.79,3.33,3.33,0,0,0,.53-.81,1.51,1.51,0,0,0,.12-.91,1.43,1.43,0,0,0-.17-.43c-.07-.12-.15-.24-.23-.35a4.47,4.47,0,0,0-.5-.63,4.39,4.39,0,0,0-1-.81h0a2.15,2.15,0,0,0,.27-.23,1.75,1.75,0,0,0,.24-.23,2.87,2.87,0,0,0,.38-.5,1.74,1.74,0,0,0,.25-.86s0,0,0,0a1.66,1.66,0,0,0,.58-.53A2.33,2.33,0,0,0,13,17.77a4.86,4.86,0,0,0,0-.86,1.66,1.66,0,0,0,.3.29,2.86,2.86,0,0,0,.42.24,2.13,2.13,0,0,0,.46.13h.19a.74.74,0,0,0,0,.21.48.48,0,0,0,.09.19,1,1,0,0,0,.14.17l.06,0a.41.41,0,0,0-.11.47.7.7,0,0,0,.25.27,1.25,1.25,0,0,0,.41.14,1.48,1.48,0,0,0,.36,0l.12,0a1.79,1.79,0,0,0,.37.16,2.87,2.87,0,0,0,.62.07,1.53,1.53,0,0,0,.69-.17,1.23,1.23,0,0,0,.4-.38,1.42,1.42,0,0,0,.2-.8A2.58,2.58,0,0,0,17.86,17.55Z"/><path class="cls-3" d="M15.74,17.46l0,0h0v0"/><path class="cls-3" d="M15.68,17.57h0"/><path class="cls-3" d="M11.53,29.17a.46.46,0,0,0-.23-.26.78.78,0,0,0-.17-.07.53.53,0,0,0,0,.13c0,.08,0,.17.07.23s0,0,0,0,0,0-.08.05l-.17,0a.38.38,0,0,0,.17.08.41.41,0,0,0,.26,0,.2.2,0,0,0,.11-.11.21.21,0,0,0,0-.11"/><path class="cls-3" d="M12.07,29a1,1,0,0,0-.15-.11.61.61,0,0,0,0,.15,1,1,0,0,1,0,.25s0,0,0,0a.31.31,0,0,1-.15,0l-.2,0a.39.39,0,0,0,.17.1.57.57,0,0,0,.25,0,.4.4,0,0,0,.18-.07.26.26,0,0,0,.08-.11.26.26,0,0,0,0-.2.5.5,0,0,0-.1-.14"/><path class="cls-3" d="M12.43,28.69a.69.69,0,0,0,0,.15,2.76,2.76,0,0,0,.08.27s0,.08,0,.08,0,0-.06,0l-.2,0a.36.36,0,0,0,.2.09.56.56,0,0,0,.13,0,.25.25,0,0,0,.16-.06.22.22,0,0,0,.06-.23.72.72,0,0,0-.41-.38"/><path class="cls-3" d="M10.82,4.57a1.52,1.52,0,0,1-.5.07A1.07,1.07,0,0,1,9.17,3.46a1.14,1.14,0,0,1,1.22-1.23,1.31,1.31,0,0,1,.43.06l-.09.23a.92.92,0,0,0-.35,0c-.37,0-.8.24-.8,1s.39,1,.81,1a1.47,1.47,0,0,0,.36-.05Z"/><path class="cls-3" d="M11.38,3.77h0c0,.28.07.66.43.66s.41-.4.41-.66-.07-.66-.42-.66-.42.4-.42.66m1.24,0a.79.79,0,0,1-.83.87.77.77,0,0,1-.8-.87.8.8,0,0,1,.83-.88A.78.78,0,0,1,12.62,3.77Z"/><path class="cls-3" d="M13.05,3.36c0-.15,0-.32,0-.44h.35l0,.26h0a.61.61,0,0,1,.53-.29H14v.28h-.08a.46.46,0,0,0-.48.35.78.78,0,0,0,0,.16v.94h-.39Z"/><path class="cls-3" d="M14.32,3.36c0-.15,0-.32,0-.44h.35l0,.26h0a.59.59,0,0,1,.52-.29h.09v.28H15.2a.45.45,0,0,0-.47.35.78.78,0,0,0,0,.16v.94h-.39Z"/><path class="cls-3" d="M16.58,3.59h0c0-.34-.18-.49-.37-.49s-.39.26-.41.49Zm-.78.2c0,.52.3.63.59.63a1.43,1.43,0,0,0,.41-.06l.06.2a1.77,1.77,0,0,1-.55.08.81.81,0,0,1-.9-.86.81.81,0,0,1,.84-.89.67.67,0,0,1,.7.75v.15Z"/><path class="cls-3" d="M19.07,2.19a2.06,2.06,0,0,0-.53,1.43A2.09,2.09,0,0,0,19.07,5h-.3a2,2,0,0,1-.57-1.43,2,2,0,0,1,.57-1.42Z"/><path class="cls-3" d="M19.51,4.62V2.25h.37l.64,1.11c.14.25.32.57.44.82h0c0-.37,0-.67,0-1.08V2.25h.35V4.62H20.9l-.66-1.14c-.13-.24-.28-.51-.41-.81h0a8.69,8.69,0,0,1,.05,1.13v.82Z"/><path class="cls-3" d="M22.15,3.43h0c0,.49.14,1,.58,1s.56-.52.56-1-.12-1-.57-1-.57.49-.57,1m1.55,0c0,.88-.45,1.22-1,1.22s-1-.41-1-1.21.41-1.21,1-1.21S23.7,2.66,23.7,3.42Z"/><path class="cls-3" d="M26,3.59h0c0-.34-.18-.49-.37-.49s-.39.26-.41.49Zm-.78.2c0,.52.3.63.59.63a1.43,1.43,0,0,0,.41-.06l.06.2a1.77,1.77,0,0,1-.55.08.81.81,0,0,1-.9-.86.81.81,0,0,1,.84-.89.67.67,0,0,1,.7.75v.15Z"/><path class="cls-3" d="M26.73,4.33a1,1,0,0,0,.4.09c.23,0,.36-.09.36-.24s-.06-.22-.31-.34-.5-.28-.5-.48.3-.47.68-.47a1,1,0,0,1,.45.09l-.11.2a.81.81,0,0,0-.33-.07c-.21,0-.32.1-.32.21s.06.18.31.3.51.28.51.51-.34.51-.74.51a1.17,1.17,0,0,1-.5-.1Z"/><path class="cls-3" d="M16.75,7.73a1.11,1.11,0,0,1-.41.06.81.81,0,0,1-.91-.86.89.89,0,0,1,1-.88,1.13,1.13,0,0,1,.35,0l-.08.22a1.21,1.21,0,0,0-.28,0,.59.59,0,0,0-.58.65.57.57,0,0,0,.59.64.82.82,0,0,0,.28-.05Z"/><path class="cls-3" d="M18,6.9h0c-.21,0-.68,0-.68.39a.28.28,0,0,0,.3.3A.37.37,0,0,0,18,7.33a.28.28,0,0,0,0-.09Zm.06.87,0-.18h0a.65.65,0,0,1-.5.21c-.33,0-.59-.19-.59-.48s.5-.62,1.06-.62v0c0-.23-.08-.39-.39-.39a1,1,0,0,0-.41.09l-.09-.19a1.48,1.48,0,0,1,.58-.11c.49,0,.71.22.71.6v.74a2.3,2.3,0,0,0,0,.38Z"/><path class="cls-3" d="M19,6.51c0-.2,0-.3,0-.44h.34l0,.21h0a.71.71,0,0,1,.56-.23.53.53,0,0,1,.52.26h0a.6.6,0,0,1,.25-.2A.86.86,0,0,1,21,6.05a.53.53,0,0,1,.59.6V7.77h-.39V6.71c0-.22,0-.44-.35-.44a.38.38,0,0,0-.36.26.71.71,0,0,0,0,.15V7.77h-.39V6.66c0-.19,0-.39-.35-.39a.38.38,0,0,0-.37.28s0,.09,0,.15V7.77H19Z"/><path class="cls-3" d="M22.13,7.77h0V6.07h.4v1.7Zm.43-2.13c0,.1-.09.17-.24.17s-.23-.07-.23-.17.1-.18.23-.18S22.56,5.53,22.56,5.64Z"/><path class="cls-3" d="M23.07,6.51c0-.2,0-.3,0-.44h.35l0,.21h0A.68.68,0,0,1,24,6.05a.54.54,0,0,1,.6.58V7.77h-.4V6.68c0-.2-.06-.41-.34-.41a.38.38,0,0,0-.38.28.71.71,0,0,0,0,.15V7.77h-.4Z"/><path class="cls-3" d="M26.07,6.9h0c-.21,0-.68,0-.68.39a.28.28,0,0,0,.3.3.37.37,0,0,0,.37-.26.28.28,0,0,0,0-.09Zm.05.87,0-.18h0a.61.61,0,0,1-.49.21c-.33,0-.59-.19-.59-.48s.5-.62,1.06-.62v0c0-.23-.08-.39-.4-.39a1.07,1.07,0,0,0-.41.09l-.08-.19a1.48,1.48,0,0,1,.58-.11c.49,0,.71.22.71.6v.74a2.3,2.3,0,0,0,0,.38Z"/><path class="cls-3" d="M27,6.51c0-.14,0-.31,0-.44h.36l0,.27h0a.59.59,0,0,1,.52-.29H28v.28h-.08a.47.47,0,0,0-.48.36.71.71,0,0,0,0,.15v.94H27Z"/><path class="cls-3" d="M16.89,9.67c0-.14,0-.31,0-.44h.36l0,.27h0a.6.6,0,0,1,.52-.3h.08v.27h-.08a.47.47,0,0,0-.48.35.81.81,0,0,0,0,.16v.94h-.4Z"/><path class="cls-3" d="M19.06,10.05h0c-.21,0-.68,0-.68.4a.28.28,0,0,0,.3.3.37.37,0,0,0,.37-.26.31.31,0,0,0,0-.09Zm.05.88,0-.18h0a.61.61,0,0,1-.49.21.53.53,0,0,1-.59-.49c0-.42.5-.61,1.06-.61V9.8c0-.23-.08-.38-.4-.38a.91.91,0,0,0-.41.09l-.08-.19a1.29,1.29,0,0,1,.58-.12c.49,0,.71.23.71.61v.73a2.42,2.42,0,0,0,0,.39Z"/><path class="cls-3" d="M20.39,10.31h0a.61.61,0,0,0,0,.14.37.37,0,0,0,.37.28c.32,0,.43-.31.43-.65s-.13-.65-.44-.65a.39.39,0,0,0-.36.31.62.62,0,0,0,0,.13ZM20,9.76c0-.26,0-.41,0-.53h.36l0,.22h0a.62.62,0,0,1,.52-.25c.43,0,.72.32.72.88a.77.77,0,0,1-.77.88.49.49,0,0,1-.43-.2h0v.84H20Z"/><path class="cls-3" d="M22,10.93h0V9.23h.4v1.7Zm.43-2.14c0,.11-.1.18-.25.18A.2.2,0,0,1,22,8.79c0-.1.1-.17.23-.17S22.47,8.69,22.47,8.79Z"/><path class="cls-3" d="M24.08,9.88h0V9.76a.39.39,0,0,0-.37-.33c-.33,0-.44.32-.44.66s.13.64.42.64a.38.38,0,0,0,.38-.29.37.37,0,0,0,0-.11Zm.39-1.38v2c0,.12,0,.31,0,.41h-.34l0-.21h0a.6.6,0,0,1-.51.24c-.42,0-.73-.31-.73-.87s.37-.89.75-.89a.5.5,0,0,1,.45.21h0V8.5Z"/><path class="cls-3" d="M25.31,10.08h0c0,.28.07.66.43.66s.41-.4.41-.66-.07-.66-.42-.66-.42.4-.42.66m1.23,0a.79.79,0,0,1-.82.88.77.77,0,0,1-.8-.88.8.8,0,0,1,.83-.88A.78.78,0,0,1,26.54,10.08Z"/><path class="cls-3" d="M26.84,11.35a2.1,2.1,0,0,0,.53-1.43,2.07,2.07,0,0,0-.53-1.42h.3a1.94,1.94,0,0,1,.57,1.42,2,2,0,0,1-.57,1.43Z"/><path class="cls-3" d="M6.23,10.55a10,10,0,0,0,1.49,3.07c.78.78,1.64,1.57,1.64,1.57s-.36.16-.22.44a1.65,1.65,0,0,0,.58.52,1.49,1.49,0,0,0,.46-.68c.06-.34-.43-.32-.43-.32s-1.05-1.26-1-1.64a.72.72,0,0,0-.31-.79,9.09,9.09,0,0,1-2.22-2.17"/><path class="cls-3" d="M12.86,13.64a1.91,1.91,0,0,0,0,1,4,4,0,0,1,.23,1.05s.46.2.43.28a3.4,3.4,0,0,1-.37.42s-.67-.07-.58-.4l.08-.33a2.88,2.88,0,0,0-.4-.75,1.75,1.75,0,0,1-.23-1Z"/></svg>