<svg id="Capa_1" data-name="Capa 1" xmlns="http://www.w3.org/2000/svg" viewBox="0 0 28.73 27.68"><defs><style>.cls-1{fill:#ffcc64;}.cls-2{fill:#0070a2;}.cls-3{fill:#f05050;}.cls-4{fill:#acd03d;}.cls-5{fill:#fbcabb;}.cls-6{fill:#231f20;}</style></defs><title>3-18meses</title><path class="cls-1" d="M3.08,23.2a26.55,26.55,0,0,0,13.27,3.26c8.15,0,10.94-3.26,10.94-3.26Z"/><polygon class="cls-2" points="12.75 19.98 15.06 19.98 16.2 21.71 13.63 21.82 12.75 19.98"/><polygon class="cls-2" points="16.35 21.85 16.38 24 18.01 23.35 18.01 21.71 16.35 21.85"/><polygon class="cls-3" points="15.22 20.07 17.09 19.03 18.01 20.55 16.2 21.71 15.22 20.07"/><polygon class="cls-3" points="16.3 22.04 18.42 21.5 17 21.25 16.3 22.04"/><polygon class="cls-3" points="13.63 23.75 16.38 24 16.5 26.06 13.63 25.49 13.63 23.75"/><path class="cls-4" d="M13.63,21.71v2L16.5,24v1.92H17a9.34,9.34,0,0,1,1.1-.78,8.58,8.58,0,0,0,.16-1.81l-1.79.55-.15-2Z"/><polygon class="cls-4" points="13.03 19.93 15.28 20.16 16.91 18.95 13.99 18.79 13.03 19.93"/><path class="cls-5" d="M13.52,23.23l.11-1.41L12.75,20,14,19l3.07-.14.83,1.43-.92,1,1.32.15-.21,1.75,7.75.08a18.72,18.72,0,0,0-1.44-2.79c-.58-.77-1.09-2.23-1.72-2.49a28.25,28.25,0,0,1-3.06-1.22c-.39-.31-.27-.36-.34-.45s1.21-1.15,1.27-1.62a4.21,4.21,0,0,1,.11-.68s.7-.34.74-.72.3-1,.13-1.19a1.17,1.17,0,0,0-1-.1c-.43.1-.65-.07-1.23-.76a3.4,3.4,0,0,0-2.62-1.29,19.32,19.32,0,0,0-4.08-.16A32.69,32.69,0,0,0,10,13.67a.62.62,0,0,0-.32.82,2.23,2.23,0,0,0,1.57,1,3.7,3.7,0,0,0,.83.17,2.82,2.82,0,0,0,.95.76,5,5,0,0,0,.92.36s-1.25.29-2.06.45S9.58,19.06,9,19.66,7.19,22,7.86,23.1s.75,1.56,1.64,1.66a4.93,4.93,0,0,0,2.4-1,6.27,6.27,0,0,0,.45-.46Z"/><path class="cls-6" d="M14.85,14.06a2.82,2.82,0,0,0-3,.6,2.85,2.85,0,0,1,1.82-.54c.79.17,1.57.11,1.17-.06"/><path class="cls-6" d="M17,13.47c-.59.21-.74.53-.47.51s.78-.43,1.3-.45a11.76,11.76,0,0,1,1.59.18A4.07,4.07,0,0,0,17,13.47"/><path class="cls-6" d="M12.75,14.66c1.33.91,1.77-.17,1.77-.17s-.15.07-.61.23a2.28,2.28,0,0,1-1.16-.06"/><path class="cls-6" d="M17.09,14.09c1.25.76,1.63-.3,1.63-.3a2,2,0,0,1-1.63.3"/><path class="cls-6" d="M16.24,15.81c.36-.17.43-.12.58-.31s.05-.32.05-.32.07.14-.2.24-.51.36-.87.26-.45,0-.58-.1,0,.1.32.15.35.25.7.08"/><path class="cls-6" d="M16.59,16.07a1,1,0,0,1-.58.09,2,2,0,0,0-.73.12,3.58,3.58,0,0,0,2.43-.37s-.3,0-.47.08a4.28,4.28,0,0,0-.65.08"/><path class="cls-6" d="M18.14,25.15h0l0,0h0v0h0c0,.05,0,0,0,0m-.63.31h0c-.27.17-.55.34-.85.49-.49-.1-1-.23-1.45-.35a11.6,11.6,0,0,0-1.33-.27,7.42,7.42,0,0,0-.2-1.31c.45,0,.91,0,1.37,0h1.18a10.61,10.61,0,0,0,.24,1.48h.06a11.46,11.46,0,0,0,.22-1.41l1.09-.4c0,.15,0,.3.07.45a7.49,7.49,0,0,0,.15.8.62.62,0,0,1,0,.1l-.16.12Zm-4.1-2.39h0V23H13a1.24,1.24,0,0,0,.09-.76.65.65,0,0,0,.18-.15.8.8,0,0,0,.16-.26v0a.2.2,0,0,0,.18.1A6.25,6.25,0,0,0,13.41,23.07Zm-.87-2.31h0a.42.42,0,0,1-.18-.11l0-.07v-.1c0-.15.08-.32.1-.52a.38.38,0,0,0,0-.1l.11-.05a.15.15,0,0,0-.07.11c0,.11.09.2.25.22h0c.11.32.24.64.37,1A3,3,0,0,0,12.54,20.76Zm-.32-1.09h0a1,1,0,0,0,.16-.24.84.84,0,0,0,.05-.17.46.46,0,0,0,0-.22.44.44,0,0,0-.22-.17l.48-.1.22,0h0v0a.27.27,0,0,1,0,.14,3.24,3.24,0,0,1-.2.36l-.1.16a1.2,1.2,0,0,0-.11.17,1.09,1.09,0,0,0-.08.15A.27.27,0,0,0,12.22,19.67Zm-.11.23Zm.83-1.16h0S13,18.74,12.94,18.74Zm1.32.32h0c.83,0,1.66-.07,2.5-.08h0c-.52.29-1,.58-1.52.88l-1.87-.1Zm3.66,2.32h0l-1.16.29.22-.19Zm-5.11-1.24h0l2.38.17c.27.37.55.75.85,1.11h.05q-.27-.59-.57-1.14h0c.53-.32,1-.64,1.56-1h0s0,0,0,0q.32.6.57,1.23c-.53.38-1.07.76-1.58,1.16-.79,0-1.57,0-2.36,0C13.47,21.14,13.16,20.64,12.81,20.14Zm2.27,3.64h0c-.4-.05-.79-.09-1.19-.12a7.16,7.16,0,0,0-.23-1.7c.82,0,1.63,0,2.45,0a12.13,12.13,0,0,0,.24,1.55h.06a10.13,10.13,0,0,0,.23-1.43q.59-.11,1.17-.24c0,.2,0,.39,0,.59s0,.48.07.72c-.53.2-1,.42-1.54.65h0a.24.24,0,0,0-.08.06Q15.67,23.86,15.08,23.78ZM16.17,17H15.5l-.65-.07a7,7,0,0,1-1.15-.25,3.45,3.45,0,0,1-1.46-.9c-.3-.32-.48-.6-.65-.77a1.91,1.91,0,0,0-.29-.26l-.3-.21.78-1.89.42.8.6-1-.12,1.41s1.27-2,1.3-2.1A11.24,11.24,0,0,1,14,13l.69-1.11L15,13.81l1.23-2,0,2.05,1-2.49.19.87.71-1.15,1.27,1.93-.24-1.31,1,1.28a1.29,1.29,0,0,0,0,.33l.05.34a3.19,3.19,0,0,1,.06.59,1.68,1.68,0,0,1-.52,1,6.36,6.36,0,0,1-1,.89A4.6,4.6,0,0,1,16.17,17Zm-4.72-1.53h0a4,4,0,0,1-1.08-.69l-.25-.22c-.06-.07-.14-.15-.19-.22a.72.72,0,0,1-.12-.19c0-.06,0-.07,0-.09l0,0,1,.77.09-.23.28.19a1.57,1.57,0,0,1,.27.25c.14.15.29.37.5.65A4.5,4.5,0,0,1,11.45,15.48Zm9.29-2.43h0c.06-.32.14-.69.18-1.05h.36a.26.26,0,0,1,.13.06.42.42,0,0,1,0,.14,1.83,1.83,0,0,1,0,.21q0,.22-.12.48c-.05.18-.1.35-.14.51a1.91,1.91,0,0,1-.06.21.62.62,0,0,1-.1.16.45.45,0,0,1-.19.11c0-.08,0-.16,0-.23l-.06-.29A.92.92,0,0,1,20.74,13.05Zm6.55,10H26a6,6,0,0,0-1.52-2.88,5.64,5.64,0,0,1-.84-1.26c-.34-1.07-1.66-1.56-3-2-.88-.27-1.08-.53-1.13-.64a6.44,6.44,0,0,0,.76-.71,1.93,1.93,0,0,0,.59-1.25.86.86,0,0,0,0-.28.91.91,0,0,0,.41-.08.75.75,0,0,0,.26-.2,1.18,1.18,0,0,0,.17-.24,3.11,3.11,0,0,0,.22-.53A1.51,1.51,0,0,0,22,12.4a.61.61,0,0,0-.07-.28.57.57,0,0,0-.24-.25l-.21,0h-.17a1.17,1.17,0,0,0-.21.08l-.13.08a1.64,1.64,0,0,0,0-.23A3,3,0,0,0,20.56,10a2.5,2.5,0,0,0-.91-1.75A10.63,10.63,0,0,0,12.75,7a6,6,0,0,0-4.5,2.79c-.65,1.18,1.26,4,1.26,4l.1.07c-.15.06-.26.19-.25.29a.54.54,0,0,0,.08.33,1.12,1.12,0,0,0,.2.3,3.19,3.19,0,0,0,.26.26,2.62,2.62,0,0,0,.68.43,3.17,3.17,0,0,0,.75.22,2,2,0,0,0,.72,0l.1.12a3.4,3.4,0,0,0,1.42,1,6.3,6.3,0,0,0,1.18.35c.24,0,.44.08.68.11a6,6,0,0,0,.74.05,5.74,5.74,0,0,0,1.58-.19,4.71,4.71,0,0,0,1.31-.58,3,3,0,0,0,1.33.69c1.48.46,2.38.88,2.64,1.68a5.26,5.26,0,0,0,.9,1.37A5.69,5.69,0,0,1,25.38,23H23.6a1.35,1.35,0,0,1-.24-.51,2.07,2.07,0,0,1-.05-.37c0-.13,0-.26,0-.42a2,2,0,0,0,0-.49,1,1,0,0,0-.23-.54,1.6,1.6,0,0,0-.65-.39c-.24-.07-.47-.11-.69-.16a4.69,4.69,0,0,0-1.28-.06,1,1,0,0,0-.51.18.31.31,0,0,0-.11.2,1,1,0,0,0-.38.15.35.35,0,0,0-.16.3.52.52,0,0,0,.07.23,1,1,0,0,0,.18.21.37.37,0,0,0-.13.16.21.21,0,0,0,0,.15h0a.72.72,0,0,0-.24.14,1.77,1.77,0,0,0-.14.16.45.45,0,0,0,0,.42.69.69,0,0,0,.33.32,1.49,1.49,0,0,0,.86.1l.21-.06h0a.47.47,0,0,0,.18.16.65.65,0,0,0,.23.09.64.64,0,0,0,.28,0l0-.18a.66.66,0,0,0-.11-.26.84.84,0,0,0-.23-.23l-.18-.12a.43.43,0,0,0-.16.16.3.3,0,0,0,0,.19h-.2a.91.91,0,0,1-.48-.15.32.32,0,0,1-.11-.13.21.21,0,0,1,0-.15s.07-.09.07-.08a.1.1,0,0,1,.06-.05,1.12,1.12,0,0,1,.26-.06,3.56,3.56,0,0,1,.65,0l.71,0a2.65,2.65,0,0,0-.64-.26,2.85,2.85,0,0,0-.73-.1h.36a1.33,1.33,0,0,1,.2,0h.2a2.6,2.6,0,0,0,.4,0,1.88,1.88,0,0,0,.41-.06,1.74,1.74,0,0,0-.34-.17,2.74,2.74,0,0,0-.37-.11l-.24,0-.26,0a1.64,1.64,0,0,0-.53.09l-.05,0a.86.86,0,0,1,0-.16.33.33,0,0,1,0-.15.12.12,0,0,1,.09-.08s.08,0,.16,0h.26l.64.05.56.05a2.7,2.7,0,0,1,.39.05C22,21,22,21,22,21s0-.05,0-.12a1.06,1.06,0,0,0-.35-.22,4.4,4.4,0,0,0-.57-.17,4.34,4.34,0,0,0-.69-.11,1.51,1.51,0,0,0-.3,0,.39.39,0,0,1,.1-.08,1,1,0,0,1,.37-.06,5.36,5.36,0,0,1,1.09.18c.21.05.41.11.59.17a.9.9,0,0,1,.39.24.7.7,0,0,1,.17.38,2.12,2.12,0,0,1,0,.44,2.3,2.3,0,0,0,.05.45,1.61,1.61,0,0,0,.17.4,1.37,1.37,0,0,0,.4.45H18.35c0-.18,0-.36,0-.54s0-.59,0-.89a.09.09,0,0,0,0-.07.33.33,0,0,0-.34-.14l-.75-.19.68-.62h0a.08.08,0,0,0,0-.09,16.15,16.15,0,0,1-.86-1.57s-.05,0-.09-.05h0c-1,0-2,0-2.94-.08a.29.29,0,0,0-.16,0h0l-.86.59A1.08,1.08,0,0,0,13.4,19a.6.6,0,0,0,.06-.27.41.41,0,0,0-.07-.18.4.4,0,0,0-.27-.16.75.75,0,0,0-.44.05,1.07,1.07,0,0,0-.24.12,1.13,1.13,0,0,0-.33.29l-.09,0a1.09,1.09,0,0,0-.37,0l-.13,0h0l-.05,0,0,0-.1,0-.12.07-.21.14a2.09,2.09,0,0,0-.14.17,1.17,1.17,0,0,0-.17,1v0c0,.21,0,.42,0,.63s0,.21,0,.31v.18a2.51,2.51,0,0,0-1,.26,1.85,1.85,0,0,0-.44.32.7.7,0,0,0-.19.41h.06a2.48,2.48,0,0,1,.4-.26A3.43,3.43,0,0,1,9.9,22c.15-.06.31-.1.48-.15l.48-.15.26-.08L11,21.54a.53.53,0,0,1-.15-.25.76.76,0,0,1,0-.3,1.65,1.65,0,0,1,.2-.59v0a2.6,2.6,0,0,1,.17-.56,2.13,2.13,0,0,1,.16-.25l.1-.1.11-.09,0,0,.1-.05,0,0s0,0,0,0h0l.07,0,.08,0s0,0,0,0a.16.16,0,0,1,.06.09.74.74,0,0,1,0,.14,1.1,1.1,0,0,1,0,.26h0a1.05,1.05,0,0,0-.21.06l-.18.08a.6.6,0,0,0-.33.53,1,1,0,0,0,.16.52l0,0a1,1,0,0,1,0-.49.53.53,0,0,1,.31-.37.77.77,0,0,1,.15-.06l.11,0a.06.06,0,0,1,0,0c0,.15-.13.31-.18.5v.16a.31.31,0,0,0,.05.18.71.71,0,0,0,.32.26,1.82,1.82,0,0,1,.46.32.44.44,0,0,1,.13.18.22.22,0,0,1,0,.16.47.47,0,0,1-.1.16.85.85,0,0,1-.19.14l-.14.08,0,.12a1.57,1.57,0,0,1-.67,1.45,4.07,4.07,0,0,1-.85.57,4.25,4.25,0,0,1-1,.38,1.27,1.27,0,0,1-1-.19,2.59,2.59,0,0,1-.69-.67,2.47,2.47,0,0,1-.45-.8,2.83,2.83,0,0,1-.06-.42c0-.14,0-.28,0-.42a3.72,3.72,0,0,1,.34-.83,7.78,7.78,0,0,1,.53-.79c.19-.25.41-.5.62-.75L9.93,19c.22-.25.46-.49.69-.72a6.38,6.38,0,0,1,.74-.66,7,7,0,0,1,1.09-.37l1.19-.32,0,0c-.42,0-.84.11-1.25.18a6.89,6.89,0,0,0-1.24.33,1.63,1.63,0,0,0-.27.15l-.23.18-.41.34c-.26.24-.5.48-.74.73a9,9,0,0,0-.65.76,6.61,6.61,0,0,0-.53.81,6,6,0,0,0-.42.84,5.46,5.46,0,0,0-.27.87c0,.15-.05.29-.06.44a2.3,2.3,0,0,0,0,.45,0,0,0,0,0,0,0H2.85v.42H7.77a3.84,3.84,0,0,0,.21.4,2.72,2.72,0,0,0,.67.79,1.6,1.6,0,0,0,.6.29,2,2,0,0,0,.76,0,5.12,5.12,0,0,0,2.24-1,3.43,3.43,0,0,0,.5-.51h.63c0,.14,0,.27,0,.41s.09.17.22.18a8.29,8.29,0,0,0-.21,1.46c0,.08.07.15.18.17h0a14.79,14.79,0,0,0,1.53.26c.52.06,1,.1,1.55.19h.09c.3-.17.61-.33.93-.49l.48-.23.25-.13.07-.05a.19.19,0,0,0,.05-.11.14.14,0,0,0,0-.06h0s0,0,0,0h0v0s0,0,0-.06l0-.8c0-.23,0-.47,0-.71h8.85Z"/><polygon class="cls-6" points="1.2 0.62 1.2 1.64 2.17 1.64 2.17 0.62 2.56 0.62 2.56 2.99 2.17 2.99 2.17 1.88 1.2 1.88 1.2 2.99 0.81 2.99 0.81 0.62 1.2 0.62"/><path class="cls-6" d="M4.07,2.11h0c-.21,0-.68,0-.68.39a.28.28,0,0,0,.3.31.37.37,0,0,0,.37-.26.31.31,0,0,0,0-.09Zm0,.88,0-.18h0A.61.61,0,0,1,3.59,3,.53.53,0,0,1,3,2.53c0-.42.5-.61,1.06-.62v0c0-.23-.08-.38-.4-.38a1.07,1.07,0,0,0-.41.08l-.08-.19a1.48,1.48,0,0,1,.58-.11c.49,0,.71.23.71.61V2.6a2.42,2.42,0,0,0,0,.39Z"/><path class="cls-6" d="M6.22,3A1.37,1.37,0,0,1,5.81,3a.81.81,0,0,1-.91-.86.89.89,0,0,1,1-.88,1.08,1.08,0,0,1,.35.05l-.08.22a.77.77,0,0,0-.28-.05.59.59,0,0,0-.57.66.56.56,0,0,0,.58.64.93.93,0,0,0,.29,0Z"/><path class="cls-6" d="M7.58,2h0c0-.34-.18-.49-.37-.49s-.39.26-.41.49Zm-.78.2c0,.52.3.64.59.64a1.12,1.12,0,0,0,.41-.07l.06.2A1.75,1.75,0,0,1,7.32,3a.79.79,0,0,1-.9-.85.81.81,0,0,1,.83-.9A.68.68,0,0,1,8,2a.62.62,0,0,1,0,.15Z"/><path class="cls-6" d="M9.67.84v.45h.47V1.5H9.67v1c0,.23.11.29.26.29h.16V3a1.07,1.07,0,0,1-.29,0,.69.69,0,0,1-.39-.1c-.1-.08-.15-.19-.15-.43v-1H9V1.29h.3V.92Z"/><path class="cls-6" d="M10.73,2.14h0c0,.28.08.66.44.66s.4-.4.4-.66-.07-.66-.42-.66-.42.4-.42.66m1.24,0a.8.8,0,0,1-.83.88.78.78,0,0,1-.8-.88.8.8,0,0,1,.83-.88A.78.78,0,0,1,12,2.14Z"/><path class="cls-6" d="M12.4,1.73c0-.15,0-.31,0-.44h.36l0,.27h0a.6.6,0,0,1,.52-.3h.08v.27h-.08a.47.47,0,0,0-.48.35.81.81,0,0,0,0,.16V3h-.4Z"/><path class="cls-6" d="M13.67,1.73c0-.15,0-.31,0-.44H14l0,.27h0a.63.63,0,0,1,.53-.3h.08v.27h-.08a.47.47,0,0,0-.48.35.81.81,0,0,0,0,.16V3h-.4Z"/><path class="cls-6" d="M15.93,2h0c0-.34-.18-.49-.37-.49s-.39.26-.4.49Zm-.78.2c0,.52.3.64.59.64a1.12,1.12,0,0,0,.41-.07l.06.2a1.75,1.75,0,0,1-.54.08.79.79,0,0,1-.9-.85.81.81,0,0,1,.83-.9.68.68,0,0,1,.71.75.62.62,0,0,1,0,.15Z"/><path class="cls-6" d="M16.66,2.71a1.07,1.07,0,0,0,.4.09c.23,0,.37-.1.37-.25s-.07-.22-.32-.33-.5-.29-.5-.49.3-.47.68-.47a1.18,1.18,0,0,1,.45.09l-.11.2a.79.79,0,0,0-.32-.07c-.22,0-.33.1-.33.21s.06.18.31.3.51.28.51.51-.34.51-.74.51a1.09,1.09,0,0,1-.49-.1Z"/><path class="cls-6" d="M20.11,1.94h0V1.82a.39.39,0,0,0-.37-.33c-.33,0-.44.32-.44.66s.13.64.42.64a.38.38,0,0,0,.38-.29.37.37,0,0,0,0-.11ZM20.5.56v2c0,.12,0,.31,0,.41h-.33l0-.21h0a.6.6,0,0,1-.51.24c-.42,0-.72-.32-.72-.87s.36-.89.74-.89a.5.5,0,0,1,.45.21h0V.56Z"/><path class="cls-6" d="M22.11,2h0c0-.34-.18-.49-.37-.49s-.39.26-.4.49Zm-.78.2c0,.52.3.64.59.64a1.12,1.12,0,0,0,.41-.07l.06.2a1.75,1.75,0,0,1-.54.08.79.79,0,0,1-.9-.85.82.82,0,0,1,.83-.9.68.68,0,0,1,.71.75.62.62,0,0,1,0,.15Z"/><path class="cls-6" d="M23.67,2.7a1.36,1.36,0,0,0,.48.09c.34,0,.57-.17.57-.45s-.27-.47-.67-.47H24V1.66H24c.23,0,.6-.12.6-.41S24.46.9,24.2.9a1,1,0,0,0-.42.11L23.7.81a1.26,1.26,0,0,1,.59-.13c.48,0,.74.23.74.53s-.17.42-.5.53h0a.63.63,0,0,1,.59.59c0,.38-.35.68-.95.68a1.63,1.63,0,0,1-.59-.11Z"/><path class="cls-6" d="M2,6.1a1.08,1.08,0,0,1-.41.07.81.81,0,0,1-.91-.86.89.89,0,0,1,1-.89A1.1,1.1,0,0,1,2,4.48l-.08.22a.77.77,0,0,0-.28,0,.59.59,0,0,0-.58.66.56.56,0,0,0,.59.63.82.82,0,0,0,.28,0Z"/><path class="cls-6" d="M3.83,5.68c0,.19,0,.34,0,.47H3.51l0-.18h0a.77.77,0,0,1-.53.2c-.44,0-.61-.23-.61-.65V4.45h.4v1c0,.27.06.47.33.47a.34.34,0,0,0,.35-.23.36.36,0,0,0,0-.15V4.45h.4Z"/><path class="cls-6" d="M4.77,5.55h0a.34.34,0,0,0,0,.1.41.41,0,0,0,.37.3c.32,0,.43-.29.43-.66s-.12-.64-.43-.64a.4.4,0,0,0-.37.3.49.49,0,0,0,0,.12Zm-.42.6c0-.1,0-.3,0-.41v-2h.4v.93h0a.61.61,0,0,1,.52-.23c.38,0,.68.3.68.86a.78.78,0,0,1-.76.89.54.54,0,0,1-.49-.24h0l0,.22Z"/><path class="cls-6" d="M6.71,5.3h0c0,.28.07.66.43.66s.4-.4.4-.66-.06-.66-.41-.66-.42.4-.42.66m1.23,0a.79.79,0,0,1-.82.87.77.77,0,0,1-.81-.87.8.8,0,0,1,.83-.88A.78.78,0,0,1,7.94,5.3Z"/><path class="cls-6" d="M8.31,5.87a1.34,1.34,0,0,0,.4.08c.23,0,.37-.09.37-.24S9,5.49,8.76,5.37s-.5-.28-.5-.48.3-.47.68-.47a1,1,0,0,1,.45.09l-.11.2A.81.81,0,0,0,9,4.64c-.21,0-.32.1-.32.21s.06.18.31.3.51.28.51.51-.34.51-.74.51a1.09,1.09,0,0,1-.49-.1Z"/><path class="cls-6" d="M9.61,14.36s1.18,3.15,1.27,3.67.2,1.29.2,1.29l.67-.29.4-3.21s.27-.22-.93-.29Z"/><path class="cls-6" d="M20.54,14.76s.22,2.23-.34,2.92a7,7,0,0,0-.8,2.48s.63.78,0,1a.91.91,0,0,0-.68.7s-.88-.73-.71-1.15a.64.64,0,0,1,.57-.42,18.11,18.11,0,0,0,.48-3.67c-.19-.49,1.48-1.82,1.48-1.82"/></svg>