<svg id="Capa_1" data-name="Capa 1" xmlns="http://www.w3.org/2000/svg" viewBox="0 0 30.81 29.21"><defs><style>.cls-1{fill:#fbcabb;}.cls-2{fill:#231f20;}.cls-3{fill:#6d6f71;}</style></defs><title>4-18meses</title><path class="cls-1" d="M.58,20.57s2.08-.38,2.08-.38S4.41,21.3,5,20.9a7.07,7.07,0,0,0,1-.83s.68.08.69-.23a1.29,1.29,0,0,0-.28-.7s1.74.55,1.76.21a1.17,1.17,0,0,1,.12-.61s1,.16,1.17-.17,0-.46-.19-.55a2.2,2.2,0,0,1,0-1.76c.32-.54,1.65-2,1.68-2.42a3.34,3.34,0,0,0-1.76-2.06,8.88,8.88,0,0,0-2.43-.14c-.37.09-6.22,2-6.14,3.51s0,5.42,0,5.42"/><path class="cls-1" d="M0,23.26a13.91,13.91,0,0,1,3.33-1c1.41-.14,5.26-.14,6.08-.19s.75,0,.88,0,2.14-.35,1.69.07S8.18,23,8.18,23s.87,1.14.67,1.29-.2.19-.2.19a.54.54,0,0,1,.6.38c.16.46-.13.7-.85.91s-1.55.4-1.55.4-.31.05-.27-.26a1,1,0,0,1,.24-.54l-.65,0s0,.2-1,.36-1.3-.06-1.41-.25-.33-.64-.33-.64a8.89,8.89,0,0,1-2.09.34,5.28,5.28,0,0,0-.81-.16L0,26.25Z"/><path class="cls-1" d="M25.94,21.94s-1.41,1.45-1.25,1.95,1.54,1.31,1.83,2.17a9.41,9.41,0,0,1-.22,3.14H18.63a1.51,1.51,0,0,1,0-1.08A6.67,6.67,0,0,0,19.05,27s-1.76,0-2.38,0-1.92.05-2.31-.81a17.66,17.66,0,0,1-.84-3.1,6.31,6.31,0,0,0-.4-1.12c-.07-.1-.31-.58.27-.58s.53-.08.53-.08-.2-.26.06-.36A2.65,2.65,0,0,1,15,21s.3-.31.57-.15a7.35,7.35,0,0,1,.61.45s.43.12,0,.53-.08,0,.19,0,.56.06.58.17.14.11-.34.33a4.56,4.56,0,0,0-1,.64c-.19.14-.27.58.19,1.07a5.27,5.27,0,0,1,.69.93,16.38,16.38,0,0,0,3.36-.35,3.62,3.62,0,0,1,1.36-.46c.49,0,.57-.16.57-.16a8.43,8.43,0,0,1-2.63-.43c-.49-.36-.32-.34-.32-.47a.38.38,0,0,0-.09-.28s.12-.14.32-.14.68-.09.51-.13-1.12-.2-.95-.39a3.3,3.3,0,0,1,.27-.29s-.6-.27-.33-.46.85-.49.84-.65a4.15,4.15,0,0,1-.32-1.25c0-.47.46-1.51,1.24-1.67s5.2.5,5.52.88,1.29,2,.05,3.27"/><path class="cls-2" d="M13.6,18.45h0a1.1,1.1,0,0,0-.08-.73,1.36,1.36,0,0,0-.22-.33l-.15-.15a1.57,1.57,0,0,0-.19-.15h0a6.86,6.86,0,0,1-1-.57,1.76,1.76,0,0,1-.63-.69c-.1-.25,0-.47.3-.65a3.39,3.39,0,0,1,1.06-.4,10.19,10.19,0,0,1,1.27-.22c.42-.05.87-.08,1.31-.11a14.32,14.32,0,0,1,2.62.07,4.62,4.62,0,0,1,2.28.83.78.78,0,0,1,.33.81,1.23,1.23,0,0,1-.73.68,6.68,6.68,0,0,1-1.17.37c-.41.08-.84.14-1.27.18a16.37,16.37,0,0,1-2.62,0l-.33,0,.1.21a.79.79,0,0,1,.06.62,1.3,1.3,0,0,1-.42.57,5.36,5.36,0,0,1-1.41.74,2,2,0,0,0,.92-1.06m.7.45a1.58,1.58,0,0,0,.57-.64.83.83,0,0,0,0-.56c.36,0,.72,0,1.08.05a12.44,12.44,0,0,0,1.37-.07,7.09,7.09,0,0,0,2.55-.7,1.34,1.34,0,0,0,.75-.81,1,1,0,0,0-.4-.9,3.2,3.2,0,0,0-1.06-.59,8.46,8.46,0,0,0-1.27-.35,13,13,0,0,0-2.72-.19c-.46,0-.9,0-1.36.08s-.91.11-1.35.2a4,4,0,0,0-1.28.48,1.14,1.14,0,0,0-.44.46.7.7,0,0,0,0,.55,2.08,2.08,0,0,0,.8.84,7.1,7.1,0,0,0,1.1.56l.14.1a.86.86,0,0,1,.14.13,1.37,1.37,0,0,1,.22.27,1,1,0,0,1,.14.61A1.44,1.44,0,0,1,13,19a3.25,3.25,0,0,1-.56.55l-.05.05.08,0a5.8,5.8,0,0,0,1-.28A3.71,3.71,0,0,0,14.3,18.9Z"/><path class="cls-2" d="M16.79,22h0m-.92-.2h0l-.35,0a.54.54,0,0,0,.05-.21.66.66,0,0,0-.07-.37.83.83,0,0,0-.15-.19.64.64,0,0,0-.16-.11h0l.29.09.14.07.08.05h0l0,0a.4.4,0,0,1,.24.36.64.64,0,0,1,0,.21Zm-.84.1h0a1.13,1.13,0,0,0-.41.16l-.09.08a.56.56,0,0,0-.17-.21,1.67,1.67,0,0,0-.42-.22,1.34,1.34,0,0,0-.55-.07h-.16a.43.43,0,0,0-.14.07.18.18,0,0,1,0-.1c0-.07.08-.07.21-.11l.24,0h.25a1.92,1.92,0,0,1,.24,0l.2,0a1,1,0,0,1,.34.15,1.25,1.25,0,0,1,.29.27.24.24,0,0,0,0-.1.41.41,0,0,0,0-.27.44.44,0,0,0-.14-.17.72.72,0,0,0-.24-.16,1.24,1.24,0,0,0-.33-.09l-.19,0h0a.2.2,0,0,1,.16-.12h.14l.2,0,.11,0,.11,0,.09,0,.08,0,.15.09.13.12a1.48,1.48,0,0,1,.19.27l.12.2A2.2,2.2,0,0,0,15,21.92Zm11.09-4.58a8.37,8.37,0,0,0-4.33-.21l-.41.1-.23.05a3,3,0,0,0-2.42,2.29l.45-.62a.84.84,0,0,0-.06.14,1.14,1.14,0,0,0,0,.73c0,.23.11.47.16.7a.5.5,0,0,1,0,.32c0,.09-.18.16-.32.23a1.15,1.15,0,0,0-.4.26.18.18,0,0,0,0,.22.71.71,0,0,0,.15.15l.15.13s0,0,0,0,0,0,0,0l-.09.07a.58.58,0,0,0-.14.17.19.19,0,0,0,.11.22,4.15,4.15,0,0,0,.76.23,1.08,1.08,0,0,1-.43,0c-.14,0-.4,0-.37.2a.29.29,0,0,0,.13.14h0l0,0s0,0,0,0-.09.13-.1.24a.32.32,0,0,0,.18.27,2.55,2.55,0,0,0,.66.27,9.68,9.68,0,0,0,1.42.3l.16,0a2.59,2.59,0,0,0-.78.12,1.87,1.87,0,0,0-.32.15.79.79,0,0,1-.23.09,4.9,4.9,0,0,1-.6.12l-1.3.16c-.42,0-.85.09-1.28.11a5.8,5.8,0,0,1-.56-.92l-.41-.85a2.63,2.63,0,0,0,.58-.35.75.75,0,0,0,.15-.16s0,0,0,0h0l0,0a1.86,1.86,0,0,1,.31-.14l.2-.09a.69.69,0,0,0,.23-.16.2.2,0,0,0,0-.23.4.4,0,0,0-.16-.13,1.07,1.07,0,0,0-.31-.08,1.79,1.79,0,0,0-.53,0l-.08,0,.13-.12a.47.47,0,0,0,.08-.14.27.27,0,0,0,0-.18.41.41,0,0,0-.09-.19.69.69,0,0,0-.18-.16l-.06,0,0,0h0l-.1,0-.24-.07a1.2,1.2,0,0,0-.46,0,.74.74,0,0,0-.24.08l-.17-.05-.16,0H14.5a1,1,0,0,0-.59.11.24.24,0,0,0-.12.16.21.21,0,0,0,0,.12h-.33l-.07,0a1.29,1.29,0,0,0-.31.08.73.73,0,0,0-.28.17.22.22,0,0,0,0,.25.41.41,0,0,0,.19.18.27.27,0,0,0,0,.14.66.66,0,0,0,.1.36,1.54,1.54,0,0,0,.21.29l.16.35v0c.06.35.16.69.21,1s.11.68.17,1a3.78,3.78,0,0,0,.32,1,1.23,1.23,0,0,0,.14.25,1.32,1.32,0,0,0,.16.25l.19.24.25.22a.25.25,0,0,0,.15.06h0a19,19,0,0,0,2.14.08c.36,0,.72,0,1.07-.06s.48-.06.71-.1l0,.06a3.4,3.4,0,0,0-.31.75,2.49,2.49,0,0,0-.08.35,1.77,1.77,0,0,0,0,.32,1.65,1.65,0,0,0,0,.48,1.37,1.37,0,0,0,0,.17l.06-.17c0-.06,0-.12.06-.2s.06-.16.09-.26.14-.39.25-.62.11-.23.16-.35.12-.23.18-.35.27-.47.4-.69l.38-.59.39-.59a4,4,0,0,0-.64.48,4.94,4.94,0,0,0-.53.57,5.22,5.22,0,0,0-.38.54c-.61,0-1.22,0-1.83,0l-2-.14L15,26.59l-.19-.2a1.66,1.66,0,0,1-.16-.21,1.82,1.82,0,0,1-.15-.23,5.2,5.2,0,0,1-.25-.46c-.08-.16-.16-.32-.23-.49a4.4,4.4,0,0,1-.29-1,4.87,4.87,0,0,1,0-1h0v0l-.09-.39s0,0,0,0v0a1.23,1.23,0,0,1-.24-.51.05.05,0,0,1,0-.05s-.05,0,0,0h.05a.76.76,0,0,1,.33,0,1.53,1.53,0,0,1,.32.13c.09.06.17.13.18.19h0s0,0,0,0v0h0l0,0a.12.12,0,0,1-.1,0,.87.87,0,0,1-.34-.16h0s0,0,0,0a.59.59,0,0,0,.33.25.41.41,0,0,0,.31,0l.05,0,0,0v0l0,0a.64.64,0,0,0,0-.07h0a.36.36,0,0,1,.16-.14,1.43,1.43,0,0,1,.37-.09,5.48,5.48,0,0,1,.81,0,.14.14,0,0,0,.09,0h0a2.05,2.05,0,0,1,.62-.1l-.1.05a1.66,1.66,0,0,0-.41.19l-.1.07a.17.17,0,0,0-.06.06l0,0a.58.58,0,0,1-.08.1,2.16,2.16,0,0,1-.56.36h0c-.09,0-.12.11-.09.18a5.69,5.69,0,0,0,.68.95,10.16,10.16,0,0,1,.69.93s0,0,.07,0h0a14.7,14.7,0,0,0,2.73-.09A4.44,4.44,0,0,0,20,24.7a1,1,0,0,0,.32-.16l.22-.13a3.27,3.27,0,0,1,1.22-.26h0s0,0,0,.06a.42.42,0,0,1-.08.2h0c0,.05,0,.12.09.14a.19.19,0,0,0,.21-.06.72.72,0,0,0,.1-.29A.26.26,0,0,0,22,24a.35.35,0,0,0-.12-.07l-.09,0h0l-.36,0-.35-.05a10.49,10.49,0,0,1-1.4-.26,2.5,2.5,0,0,1-.6-.23c-.08-.05-.13-.1-.12-.16S19,23.09,19,23a.11.11,0,0,0,0-.11l0,0,0,0a.23.23,0,0,1-.07-.06s.06-.07.15-.05a1.38,1.38,0,0,0,.41,0,2,2,0,0,0,.35-.11l0,0s0-.07-.05-.08h0a5.58,5.58,0,0,1-.92-.25c-.1,0-.05-.14.05-.23l.09-.07a.16.16,0,0,0,.05-.06.09.09,0,0,0,0-.08l-.17-.15c-.11-.08-.21-.18-.15-.25a1,1,0,0,1,.35-.22.91.91,0,0,0,.39-.28.59.59,0,0,0,0-.37c0-.24-.1-.47-.15-.71a1,1,0,0,1,0-.67,2,2,0,0,1,.43-.65l.34,1.38.39-1.22.21.82.11-1,.49,1.21.2.72.21-1.15L22,20.39l.24-.79.46,1.09.34.64.08-.57.33.74.1-.63c.15-.49.11-.29.11-.29a1,1,0,0,0,0,.66c-.1.41-.69.77-.69.77l.52-.22s0,0,0,0h0l-.27.35c.64-.26.77-.35,1.25-.26h0s0,0,0,0V22a.5.5,0,0,1-.05.23,1.45,1.45,0,0,1-.89.67,1,1,0,0,1-.44,0l-.18,0,0,0,.17.06a1.19,1.19,0,0,0,.52,0,2.29,2.29,0,0,0,.34-.07,2.41,2.41,0,0,0,.33-.15,1.76,1.76,0,0,0,.55-.46,1.19,1.19,0,0,0,.13-.25c.26.22.07.58.07.58l-.51.79.07-.05a.8.8,0,0,0-.1.54,1.14,1.14,0,0,0,.18.39,1.56,1.56,0,0,0,.31.33c.25.19.49.34.7.51a2,2,0,0,1,.76,1.21,6.43,6.43,0,0,1,0,1.39,10.33,10.33,0,0,1-.1,1.39h0a0,0,0,0,0,0,0c.08,0,.05,0,.07,0l0-.05,0-.09,0-.17.08-.35c.05-.24.1-.47.13-.71a5.22,5.22,0,0,0,.11-1.43A2.19,2.19,0,0,0,26,25c-.22-.2-.49-.37-.69-.54a1.28,1.28,0,0,1-.24-.27A.75.75,0,0,1,25,23.9a.58.58,0,0,1,.2-.54c.85-.46,2.63-.05,3.43-2S27.31,17.7,26.12,17.34Z"/><polygon class="cls-2" points="18.73 19.58 18.73 19.57 18.67 19.65 18.73 19.58"/><path class="cls-2" d="M20.13,19.9c-.54-.12-.57.29-.57.29a.85.85,0,0,1,1,0,7.18,7.18,0,0,0,1,.55,5.06,5.06,0,0,0-1.4-.84"/><path class="cls-2" d="M20,20.87a.19.19,0,0,0,.27-.2l.39.26a2.18,2.18,0,0,0-.6-.5c-.28-.13-.33.07-.33.07a.14.14,0,0,1,.15,0s-.16.29.12.36"/><path class="cls-2" d="M22.9,27.78a2.94,2.94,0,0,1,0-.84,1.07,1.07,0,0,1,.12-.38,1.24,1.24,0,0,0-.2.37,3.35,3.35,0,0,0-.18.85,7.59,7.59,0,0,0,0,1.26v0a.28.28,0,0,0,.31.13c.13,0,.22-.11.2-.2a8.31,8.31,0,0,1-.25-1.22"/><path class="cls-2" d="M5.93,16.05A8.89,8.89,0,0,0,7.43,16s-.3.71,0,.66.55-.54.55-.54l.38,0c-.24-.51.12-.6.12-.6L7,15.71Z"/><path class="cls-2" d="M9.49,15.61h0a4.06,4.06,0,0,0-.61,1,1.57,1.57,0,0,0,0,1.13,1.22,1.22,0,0,0,.4.53l.09.06,0,0,0,0h0l.06,0s0,0-.07,0a1.85,1.85,0,0,1-.62.12,1.76,1.76,0,0,1-.33,0,.5.5,0,0,1-.16,0l-.47.12a1.63,1.63,0,0,1,0,.49l0,.1h0l-.14,0c-.47-.08-1-.22-1.45-.34a.35.35,0,0,0-.3,0,.16.16,0,0,0,0,.27l.19.13a1.21,1.21,0,0,1,.16.16.45.45,0,0,1,.15.29s0,.05,0,0,0,.07,0,.06l0,0a.08.08,0,0,1-.06,0,.77.77,0,0,1-.22,0l-.24,0h0a.29.29,0,0,0-.3.14,1.55,1.55,0,0,1-.28.54.6.6,0,0,1-.22.17.38.38,0,0,1-.26,0,7.38,7.38,0,0,1-.84-.22,7.15,7.15,0,0,1-.77-.29,4.42,4.42,0,0,1-1.25-.87c-.08-.09-.17-.17-.24-.26l0-.05a4.53,4.53,0,0,0-.33-1.87,1.54,1.54,0,0,1,.62-1.52A8.32,8.32,0,0,1,3,15.28a2.92,2.92,0,0,0-1,1C1.1,18,3.26,18.84,3.26,18.84c-2-1.7-.47-3.09,1.09-3.93,2-.52,4.3-1.11,4.4-2.32,0,0,2,.84,1.51,2.21-.26.27-.53.53-.77.81m0,2.82ZM2.12,20.08h0a2.46,2.46,0,0,0-.54,0,3.51,3.51,0,0,0-.49.12,2.31,2.31,0,0,0,.44-.93l.14.17a3.2,3.2,0,0,0,.25.27l.29.26.2.14ZM.05,16v2a.28.28,0,0,0,0,.13c0,1.45,0,3.08,0,3.08a5.87,5.87,0,0,0,.72-.62l.1,0a5.49,5.49,0,0,1,.82-.15,3.49,3.49,0,0,1,.44-.05l.41,0,.22,0,.15.09a5.27,5.27,0,0,0,.8.36,8.65,8.65,0,0,0,.87.25,1,1,0,0,0,.63,0,1,1,0,0,0,.39-.28,1.54,1.54,0,0,0,.29-.46l.11,0a1.82,1.82,0,0,0,.4,0,.9.9,0,0,0,.22-.06.76.76,0,0,0,.19-.12A.4.4,0,0,0,6.9,20a.41.41,0,0,0,0-.16.58.58,0,0,0-.1-.35l.68.14.24,0a.62.62,0,0,0,.38-.08.42.42,0,0,0,.17-.2,1.24,1.24,0,0,0,0-.16,2.53,2.53,0,0,0,0-.27h0a1.69,1.69,0,0,0,.45,0,2.54,2.54,0,0,0,.85-.18.85.85,0,0,0,.21-.14.24.24,0,0,0,0-.28.48.48,0,0,0-.18-.15l-.08,0-.06,0a1.11,1.11,0,0,1-.32-.4,1.4,1.4,0,0,1,0-1,3.14,3.14,0,0,1,.5-1c.18-.25.39-.48.61-.73.5-.21,1.88-.9,1.9-2.19,0-1.58-1.34-3.41-5.67-3.39A8.78,8.78,0,0,0,0,8.86v2.37a3.4,3.4,0,0,0-.23.3s0,0,0,0,0,0,0,0,.12-.11.18-.17Z"/><path class="cls-2" d="M8.87,24.55h0a1.13,1.13,0,0,1,.2.38.36.36,0,0,1,0,.23.35.35,0,0,1-.18.18l-.17.09-.19.07a4.38,4.38,0,0,1-.43.13,5.33,5.33,0,0,0-1,.29A.41.41,0,0,0,7,26L6.94,26h0a.35.35,0,0,1-.18-.12.34.34,0,0,1,0-.36l0-.07.25,0a3.3,3.3,0,0,0,.45,0,1.6,1.6,0,0,0,.55-.1l.15-.08a.8.8,0,0,0,.13-.13.79.79,0,0,1,0-.09h0v0h0V25a.75.75,0,0,0,0-.16,1,1,0,0,0,.3-.08.75.75,0,0,0,.26-.21m-4.34.21ZM12,21.65l-.1,0-.12,0c-.44.08-.94.14-1.43.18l-1.5.12c-1,.08-2,.15-3,.15-.51,0-1,0-1.53,0a6.74,6.74,0,0,0-.77,0c-.26,0-.51.07-.76.12a10.2,10.2,0,0,0-1.42.42A8.22,8.22,0,0,0,0,23.26l0,0a22.48,22.48,0,0,1,2.79-.74c.48-.09.93-.15,1.44-.2s1-.1,1.5-.13c1-.07,2,0,3,0,.51,0,1,0,1.53,0a11.39,11.39,0,0,0,1.4-.13s0,0,0,0,0,0,0,0a1.09,1.09,0,0,1-.33.16l-.51.15-.54.13L8.31,23a1.51,1.51,0,0,0-.26-.18,2,2,0,0,0-.58-.26s.16.16.36.39a3.85,3.85,0,0,1,.55.86l.06.12,0,.06,0,.06a1.39,1.39,0,0,1,0,.23.44.44,0,0,1,0,.2.29.29,0,0,1-.1.15.78.78,0,0,1-.15.1s0-.07,0-.11a4.72,4.72,0,0,0-1-1.17,4.13,4.13,0,0,0-.6-.46s.13.23.35.56l.38.56a6.05,6.05,0,0,1,.4.63.93.93,0,0,1,.11.3v.05h0s0,.06,0,.07h0l0,0a2.5,2.5,0,0,1-.76.15l-.71,0a.92.92,0,0,0,.07-.26,1.37,1.37,0,0,0,0-.57,2.85,2.85,0,0,0-.45-1.07h0a5.76,5.76,0,0,0,0,1.1A4.89,4.89,0,0,0,6,25.1a1.17,1.17,0,0,1,0,.26.25.25,0,0,1,0,.12.05.05,0,0,1,0,0s0,0-.06,0a2.06,2.06,0,0,1-.73.14,3.76,3.76,0,0,1-.76,0,.82.82,0,0,1-.26-.06.38.38,0,0,1-.11-.08A.24.24,0,0,1,4,25.43a1,1,0,0,1-.16-.28l.24,0,.26,0,.13,0h.07c.09,0,0,0,.09,0A.38.38,0,0,0,4.79,25l.06-.06.07-.11a.43.43,0,0,0,0-.22.62.62,0,0,0-.2-.38h0a.63.63,0,0,1,0,.36.42.42,0,0,1-.09.14l-.06.05H4.29l-.27,0-.55,0-.28,0h0l-.44,0q-.36,0-.72,0L1.33,25A2.92,2.92,0,0,1,.61,25H.54v0a1.91,1.91,0,0,1-.22.3.86.86,0,0,0-.21.3,1.21,1.21,0,0,0-.08.68H.07a1.62,1.62,0,0,0,.47-.6.72.72,0,0,0,.07-.33,1.35,1.35,0,0,1,.05-.29c.23,0,.45.06.68.09a6.26,6.26,0,0,0,.75,0,4.53,4.53,0,0,0,.74-.09A3.31,3.31,0,0,0,3.25,25v0a1.49,1.49,0,0,0,.34.57l.15.13a.88.88,0,0,0,.19.1,1.21,1.21,0,0,0,.5.09,4.5,4.5,0,0,0,.84-.09,7.44,7.44,0,0,0,.78-.2.28.28,0,0,0,.18-.12.34.34,0,0,0,.06-.12l.41.08-.07,0a.44.44,0,0,0-.16.46.46.46,0,0,0,.33.31.65.65,0,0,0,.2,0,.48.48,0,0,0,.21-.06l0,0,0,0,.07,0c.23-.08.56-.14.89-.22l.5-.16L9,25.69a.86.86,0,0,0,.2-.13.52.52,0,0,0,.25-.36.47.47,0,0,0-.1-.33,1.28,1.28,0,0,0-.4-.36l0,0A.52.52,0,0,0,9,24.27.74.74,0,0,0,9,24v-.06l0-.08a.58.58,0,0,0-.05-.14,2.26,2.26,0,0,0-.35-.52L8.36,23q.53,0,1-.09c.39-.05.78-.09,1.16-.16l.57-.11a4.35,4.35,0,0,0,.58-.13,1.35,1.35,0,0,0,.59-.31.29.29,0,0,0,0-.38A1,1,0,0,0,12,21.65Z"/><path class="cls-2" d="M6.93,26.05h0"/><path class="cls-2" d="M5,15.18s3.37-.4,3.75,0,.79-.09.79-.09S8,14.33,5,15.18"/><polygon class="cls-3" points="14.55 15.59 14.14 15.59 14.14 15.3 15.41 15.3 15.41 15.59 15 15.59 15 16.89 14.55 16.89 14.55 15.59"/><path class="cls-3" d="M16.05,15.3h0v1c0,.23.1.3.22.3s.22-.06.22-.3v-1h.45v1c0,.4-.22.63-.67.63s-.67-.23-.67-.63v-1Zm.72-.35-.42.27H16l.28-.27Z"/><path class="cls-2" d="M7.8,4H8c.44,0,.86-.21.86-1,0-.59-.27-.92-.82-.92H7.8ZM7.41,1.93a2.79,2.79,0,0,1,.53,0,1.5,1.5,0,0,1,.81.18,1,1,0,0,1,.46,1A1.13,1.13,0,0,1,8.8,4a1.51,1.51,0,0,1-1,.26,2.85,2.85,0,0,1-.44,0Z"/><path class="cls-2" d="M9.63,4.26h0V2.57H10V4.26Zm.43-2.13c0,.1-.09.17-.24.17s-.23-.07-.23-.17A.21.21,0,0,1,9.82,2C10,2,10.06,2,10.06,2.13Z"/><path class="cls-2" d="M10.46,4a1,1,0,0,0,.4.09c.22,0,.36-.09.36-.24s-.07-.22-.32-.34-.49-.28-.49-.48.29-.47.68-.47a1,1,0,0,1,.44.09l-.1.2a.84.84,0,0,0-.33-.07c-.22,0-.32.1-.32.21s.06.18.3.3.51.28.51.51-.33.51-.74.51a1.15,1.15,0,0,1-.49-.1Z"/><path class="cls-2" d="M12.43,2.12v.45h.48v.2h-.48v1c0,.22.12.28.26.28h.16l0,.21a1.12,1.12,0,0,1-.29,0,.58.58,0,0,1-.39-.11C12.09,4.11,12,4,12,3.76v-1h-.3v-.2H12V2.19Z"/><path class="cls-2" d="M13.21,4.26h0V2.57h.39V4.26Zm.42-2.13c0,.1-.09.17-.24.17s-.23-.07-.23-.17A.21.21,0,0,1,13.39,2C13.54,2,13.63,2,13.63,2.13Z"/><path class="cls-2" d="M14.1,3c0-.2,0-.31,0-.44h.34l0,.2h0A.71.71,0,0,1,15,2.54a.54.54,0,0,1,.6.58V4.26h-.4V3.17c0-.2-.05-.4-.34-.4a.36.36,0,0,0-.37.27.39.39,0,0,0,0,.15V4.26H14.1Z"/><path class="cls-2" d="M17.22,3.15h0a.23.23,0,0,0,0-.12.35.35,0,0,0-.36-.26c-.28,0-.44.26-.44.64s.2.63.44.63a.36.36,0,0,0,.36-.24.44.44,0,0,0,0-.16Zm.41-.58c0,.12,0,.27,0,.53v.95c0,.44-.08.61-.24.73a1.08,1.08,0,0,1-.66.19,1.66,1.66,0,0,1-.55-.09l.1-.21a1.23,1.23,0,0,0,.46.08c.31,0,.5-.14.5-.52V4.05h0a.52.52,0,0,1-.47.21A.75.75,0,0,1,16,3.42a.79.79,0,0,1,.78-.88.52.52,0,0,1,.46.22h0l0-.19Z"/><path class="cls-2" d="M19.59,3.8c0,.19,0,.34,0,.46h-.34l0-.17h0a.73.73,0,0,1-.53.2c-.43,0-.6-.23-.6-.65V2.57h.39v1c0,.27.06.47.33.47a.36.36,0,0,0,.36-.23.77.77,0,0,0,0-.15V2.57h.39Z"/><path class="cls-2" d="M21.15,3.24h0c0-.34-.18-.49-.37-.49s-.39.26-.41.49Zm-.78.2c0,.52.3.63.59.63A1.43,1.43,0,0,0,21.37,4l.06.2a1.75,1.75,0,0,1-.54.08A.81.81,0,0,1,20,3.43a.81.81,0,0,1,.84-.89.68.68,0,0,1,.71.75.66.66,0,0,1,0,.15Z"/><path class="cls-2" d="M23.71,3.24h0c0-.34-.18-.49-.37-.49s-.39.26-.41.49Zm-.78.2c0,.52.3.63.59.63A1.43,1.43,0,0,0,23.93,4l.06.2a1.77,1.77,0,0,1-.55.08.81.81,0,0,1-.9-.86.81.81,0,0,1,.84-.89.67.67,0,0,1,.7.75v.15Z"/><path class="cls-2" d="M24.46,3c0-.2,0-.31,0-.44h.34l0,.2h0a.71.71,0,0,1,.57-.23.54.54,0,0,1,.6.58V4.26h-.4V3.17c0-.2,0-.4-.34-.4a.37.37,0,0,0-.37.27.77.77,0,0,0,0,.15V4.26h-.39Z"/><path class="cls-2" d="M26.93,2.12v.45h.48v.2h-.48v1c0,.22.12.28.26.28h.16v.21a1.07,1.07,0,0,1-.29,0,.62.62,0,0,1-.39-.11.49.49,0,0,1-.15-.42v-1h-.3v-.2h.3V2.19Z"/><path class="cls-2" d="M27.7,3c0-.15,0-.32,0-.44H28l0,.26h0a.59.59,0,0,1,.52-.29h.08v.28h-.08a.45.45,0,0,0-.47.35.77.77,0,0,0,0,.15v.94H27.7Z"/><path class="cls-2" d="M29.9,3.24h0c0-.34-.18-.49-.37-.49s-.39.26-.4.49Zm-.78.2c0,.52.31.63.59.63A1.37,1.37,0,0,0,30.12,4l.06.2a1.66,1.66,0,0,1-.54.08.81.81,0,0,1-.9-.86.81.81,0,0,1,.83-.89.68.68,0,0,1,.71.75v.15Z"/><path class="cls-2" d="M21.11,5.27v.45h.48v.21h-.48v1c0,.22.12.28.26.28h.16l0,.21-.3,0a.57.57,0,0,1-.38-.1c-.1-.08-.15-.19-.15-.43v-1h-.31V5.72h.31V5.35Z"/><path class="cls-2" d="M23.37,7h0c0,.19,0,.34,0,.46h-.34l0-.18h0a.73.73,0,0,1-.53.21c-.44,0-.61-.23-.61-.65V5.72h.4v1c0,.27.06.46.33.46A.34.34,0,0,0,23,7a.41.41,0,0,0,0-.16V5.72h.4ZM23.27,5l-.54.47h-.26L22.86,5Z"/><path class="cls-2" d="M24.83,5.72l.32,1c.05.13.07.24.11.35h0c0-.09.06-.22.1-.35l.3-1h.38l-.4,1.09A2.61,2.61,0,0,1,25,7.91a1.48,1.48,0,0,1-.45.26l-.14-.23a1.25,1.25,0,0,0,.35-.22A.9.9,0,0,0,25,7.44a.2.2,0,0,0,0-.08.15.15,0,0,0,0-.07l-.63-1.57Z"/><path class="cls-2" d="M27.3,5.72l.32,1a3.42,3.42,0,0,1,.11.35h0c0-.09.06-.22.1-.35l.3-1h.39l-.41,1.09a2.61,2.61,0,0,1-.61,1.1,1.48,1.48,0,0,1-.45.26l-.14-.23a1.25,1.25,0,0,0,.35-.22.9.9,0,0,0,.22-.28.2.2,0,0,0,0-.08.15.15,0,0,0,0-.07l-.63-1.57Z"/><path class="cls-2" d="M29,6.57h0c0,.28.07.67.43.67s.41-.4.41-.67-.07-.66-.42-.66-.42.4-.42.66m1.24,0a.8.8,0,0,1-.83.88.78.78,0,0,1-.8-.87.79.79,0,0,1,.83-.88A.78.78,0,0,1,30.27,6.57Z"/><path class="cls-2" d="M27.75,22.5a8.37,8.37,0,0,1-2.68,2.26c-1.31.5-2.28.91-2.59,1.64a.28.28,0,0,1,.14.4,1.54,1.54,0,0,1-.68.45s-.64-.77.19-.95a2.32,2.32,0,0,1,1.15-1.36A5.91,5.91,0,0,0,25,23Z"/></svg>