<svg id="Capa_1" data-name="Capa 1" xmlns="http://www.w3.org/2000/svg" viewBox="0 0 29.62 27.25"><defs><style>.cls-1{fill:#f5a4c7;}.cls-2{fill:#fbcabb;}.cls-3{fill:#231f20;}.cls-4{fill:#fccdb5;}.cls-5{fill:#6d6f71;}</style></defs><title>5-18meses</title><path class="cls-1" d="M6.06,21c-.54,1.18.71,3.84.83,3.87a4.38,4.38,0,0,0,2,0c1.19-.23,4.91-1.53,4.66-2.13a6.57,6.57,0,0,0-1.68-1.55Z"/><path class="cls-2" d="M6.3,16.87a5.84,5.84,0,0,1-1.8-1,2.49,2.49,0,0,1-.6-1.31,18.8,18.8,0,0,1,3-2.5,14.05,14.05,0,0,1,2.7-.52s1.24-.32,1.41-.11.1,1.31.52,1.9,1.33,1.19,1.27,1.74-1.24,1.6-1.28,1.64-.63.33-.63.33-.18.17.72.31l2.16,2.29c.26.28,2,.88,2.16,1.19a1.87,1.87,0,0,0,1.13.65c.29,0,.34.12.29.31l-.05.19s.22.11.16.3a.25.25,0,0,1-.25.18s.09.19-.2.23l-.28.05s0,.55.28.5a1.54,1.54,0,0,0,.76-.53c.14-.17.44-.43.56-.41a5.77,5.77,0,0,1,.94.49c.27.18.41.2.37.34s-.21.21-.18.42-.3.44-.55.69-.77,1-.93,1.18a1.43,1.43,0,0,1-.79.4,1.17,1.17,0,0,1-.94-.48,1,1,0,0,0-.92-.76c-.53,0-1-.2-1.08-.42s-.07-.26-.07-.26a2.86,2.86,0,0,1-1.3.37c-.91.1-2.19.16-2.19.16a10.05,10.05,0,0,0,1.71-1.3c0-.23.15-.87.15-.87l0-.34a6.25,6.25,0,0,1-2.77.9,7.79,7.79,0,0,1-2.8-.47,3.54,3.54,0,0,1,.83,1c.27.53.65.71.32,1.05A2.68,2.68,0,0,1,7,24.92l-.9.1s-.06.25.27.45.73.67.54.9a6.82,6.82,0,0,1-2.41.6c-.89.11-1.76.15-1.89-.07a1.88,1.88,0,0,0-.34-.5c-.15-.13-.42-.45-.39-.59s.21-.26.1-.4-.38-.21-.1-.41a1.18,1.18,0,0,1,.78-.2l.43.08s-1.16-1.06-1-1.73,1.07-1,1.46-1.11a10.09,10.09,0,0,1,1.36,0s.15-.51.21-.73,1.15-3.68,1.25-3.91a.59.59,0,0,0-.09-.49"/><path class="cls-3" d="M2.5,25.74v0h0l0,0"/><path class="cls-3" d="M2.17,25.83h0s0,0,0,0h0Z"/><path class="cls-3" d="M8.77,24.8h0a4.18,4.18,0,0,1-.51.07,4.38,4.38,0,0,1-.52,0H7.42a1.58,1.58,0,0,0,.7-.32.68.68,0,0,0,.19-.8A2.33,2.33,0,0,0,7.76,23c-.11-.1-.24-.2-.37-.3.46.11.92.21,1.38.29l.14,0h.16l.31,0A5.54,5.54,0,0,0,10,23a9.33,9.33,0,0,0,1.07-.28,7.69,7.69,0,0,0,1-.39c.11-.05.22-.12.33-.18s0,.16-.08.25a3,3,0,0,1-.36.66,2.18,2.18,0,0,1-.58.55l-.39.23-.42.24a5.84,5.84,0,0,1-1.76.73M6.58,25h0L6.19,25c0-.14,0-.29.06-.44a1.06,1.06,0,0,0-.09-.65,1.7,1.7,0,0,0-.91-.74A2.49,2.49,0,0,0,4.78,23h0s0,0,0,0a3,3,0,0,1,.34.24,1.63,1.63,0,0,1,.58.7,1.5,1.5,0,0,1,0,.54,2.11,2.11,0,0,0,0,.33.72.72,0,0,0,.17.38c.22.22.51.36.71.55s.24.45,0,.59a1.84,1.84,0,0,1-.85.2l-1,.11a9.15,9.15,0,0,1-1.71.11l-.15,0h0s0,0,0,0h0l-.08,0s0,0-.06,0,.18-.15.28-.17a.3.3,0,0,1,.25,0l0,.08h0l0,0a.19.19,0,0,0,0-.1c0-.07-.16-.17-.36-.17a1,1,0,0,0-.29,0,1.34,1.34,0,0,0-.11-.14l-.07-.07,0,0s0,.05,0,.07-.07,0,0-.06a.09.09,0,0,1,.08-.08.2.2,0,0,1,.15,0l.09.08s0,0,.07,0l.15,0,.1,0a0,0,0,0,0,0,0h0a.22.22,0,0,0,.09-.08c0-.07,0-.18-.13-.25a.47.47,0,0,0-.19-.06A.24.24,0,0,0,3,25.68v0a.21.21,0,0,0,0-.07l-.12-.09a.62.62,0,0,0-.27,0l-.22,0-.14,0a0,0,0,0,0,0,0,.6.6,0,0,1-.1-.11c-.06-.07-.08-.16,0-.2l0,0s0,0,.06,0l.12,0a.69.69,0,0,1,.26,0h.15a.36.36,0,0,1,.16,0c.13,0,.28.08.43.1l.44,0c.14,0,.23,0,.34,0h.31a2.6,2.6,0,0,0,.48-.07.91.91,0,0,0,.19-.05h0a0,0,0,0,0,0,0,1.74,1.74,0,0,0-.67-.2c-.11,0-.22,0-.35,0a1.27,1.27,0,0,0-.38.11.54.54,0,0,1-.33.06.46.46,0,0,1-.26-.15.56.56,0,0,0-.18-.14h0l-.13-.18a3.66,3.66,0,0,1-.48-1,.91.91,0,0,1,0-.65A1.11,1.11,0,0,1,3,22.41a4.49,4.49,0,0,1,1.14-.15,5.27,5.27,0,0,1,1.2.07,4.08,4.08,0,0,1,2,.88c.48.41.83.92.51,1.24a1.36,1.36,0,0,1-.62.35l-.34.09H6.62s0,0,0,0h.05ZM2.18,26h0s-.06-.14,0-.22h0l0,0h0a.16.16,0,0,1,0-.09.2.2,0,0,1,.13-.06.16.16,0,0,1,.13.06.16.16,0,0,1,0,.08l.12.09.07.06-.09,0-.2.07Zm15.13-3.76h0s0,0,0,0S17.28,22.29,17.31,22.28Zm2.16,1.18h0s0,0,0,0a.55.55,0,0,1-.11.36.92.92,0,0,1-.32.25,4.7,4.7,0,0,1-.47.18.92.92,0,0,0-.38.42c-.14.25-.22.5-.34.72a.61.61,0,0,1-.23.27,1,1,0,0,1-.46,0,.82.82,0,0,1-.74-.43c-.05-.11,0-.24-.12-.41a1.05,1.05,0,0,0-.48-.31,3.8,3.8,0,0,0-.54-.18,3.47,3.47,0,0,1-.47-.14.28.28,0,0,1-.16-.19.41.41,0,0,1,0-.27.2.2,0,0,0-.1-.22.43.43,0,0,0-.46,0h0l-.17.1-.22.1-.47.18a9.82,9.82,0,0,1-1,.28,11,11,0,0,1-1.17.15c.13-.07.26-.14.38-.22a3.28,3.28,0,0,0,.43-.26,2.63,2.63,0,0,0,.65-.69,2.43,2.43,0,0,0,.32-.77,2.21,2.21,0,0,0,.05-.51c.37-.17.73-.34,1.1-.47l.33-.1.33-.07s.14,0,.13,0l.19,0,.13,0,.16.07a2,2,0,0,1,.89.89c.09.18.16.36.24.54l.25.52a.34.34,0,0,0,.36.13h0a3,3,0,0,0,.48-.14,1.9,1.9,0,0,0,.43-.21L18,23l.07-.09.05-.07c.07-.1.13-.21.17-.28s0,0,0,0,0,0,.06,0,.08,0,0,0h0s.05,0,.05.06-.1.33-.32.47c0,0,0,0,0,0l0,0a.84.84,0,0,0,.65-.45l.05.06s0,0,.05.05l.11,0s.08,0,.08.06,0,0-.07.05a.77.77,0,0,0-.41.16.56.56,0,0,0-.13.17s0,0,0,0a.94.94,0,0,0,.3,0,.51.51,0,0,0,.26-.09.44.44,0,0,0,.11-.09.26.26,0,0,0,.06-.13.65.65,0,0,0,0-.14.24.24,0,0,1,0-.12.23.23,0,0,0,0-.12.32.32,0,0,0-.12-.08.45.45,0,0,0-.25,0,.33.33,0,0,0-.06-.14.48.48,0,0,0-.15-.11.49.49,0,0,0-.16,0,.81.81,0,0,0-.39,0,.78.78,0,0,0-.3.18c-.1.11-.16.2-.23.28l0,.06,0,.05-.11.08a2,2,0,0,1-.29.16L17,23l-.14-.21a.68.68,0,0,0,.47-.24h.12l.07,0a.22.22,0,0,0,.16-.17.22.22,0,0,0-.1-.2.58.58,0,0,0-.2-.12s0,.08,0,.17,0,0,0,.06h-.44l-.15,0-.05,0s-.06.09.06.19a.57.57,0,0,0,.22.12l.14,0h.12l-.42.18a5.86,5.86,0,0,0-.47-.54c-.32-.32-.58-.64-.94-1l-.16-.11L15,21,14.8,21a1.41,1.41,0,0,0-.28,0,2.32,2.32,0,0,0-.47.06,3.71,3.71,0,0,0-.4.15,2.81,2.81,0,0,0-.66.39l-.16.13a1.18,1.18,0,0,0,.1-.25,2,2,0,0,0,.12-.64A2.82,2.82,0,0,0,13,20a2.68,2.68,0,0,0-.3-.72,2.9,2.9,0,0,0-.45-.57,2.53,2.53,0,0,0-.61-.47,6.13,6.13,0,0,1,.3.58c.08.17.17.37.25.58a2.13,2.13,0,0,1,.11.33,2,2,0,0,1,.1.35,5.87,5.87,0,0,1,.14.68c0,.11,0,.22,0,.32s0,.2,0,.29a.81.81,0,0,1,0,.15c-.07,0-.12.05-.13.1a.58.58,0,0,1-.19.29,2.19,2.19,0,0,1-.37.26,4.89,4.89,0,0,1-.93.38,5.35,5.35,0,0,1-1.05.17H9.41a1.2,1.2,0,0,1-.24,0l-.11,0-.13,0c-.7-.18-1.41-.32-2.13-.45l-.5-.08a5,5,0,0,0-.76-.2,3.62,3.62,0,0,0-.46-.06s0-.05,0-.07a.31.31,0,0,1,.09-.14s.07-.08.09-.11l.1-.15a.91.91,0,0,0,.08-.57.58.58,0,0,0-.12-.26,1.59,1.59,0,0,0-.23.22,2.73,2.73,0,0,0-.31.47l-.06.12a.44.44,0,0,0-.06.16.25.25,0,0,0,0,.19.29.29,0,0,0,.07.12,5.8,5.8,0,0,0-.59,0,4.86,4.86,0,0,0-1.32.22,1.39,1.39,0,0,0-.9.7,1,1,0,0,0,.06.79,3.4,3.4,0,0,0,.73,1l.09.09-.08,0a1.76,1.76,0,0,0-.52,0,.75.75,0,0,0-.48.2.37.37,0,0,0-.11.16.26.26,0,0,0,0,.17.38.38,0,0,0,.17.27.8.8,0,0,0,.21.08l-.1,0-.08,0H1.72l0,0h0l-.05,0a.24.24,0,0,0-.08.24.34.34,0,0,0,.15.18A.45.45,0,0,0,2,26.1a.23.23,0,0,0-.07.07.25.25,0,0,0,0,.3.51.51,0,0,0,.37.16s0,0,0,0,0,0,0,0,0,.32.18.39l.07,0h.07l.05,0,.22.06a5.89,5.89,0,0,0,2-.05l1-.18a1.63,1.63,0,0,0,1-.43A.42.42,0,0,0,7,26.1a.79.79,0,0,0-.24-.36,2.31,2.31,0,0,1-.56-.58.31.31,0,0,1,0-.13H6.6L7,25c.25.05.51.1.77.13s.38,0,.57,0a3.69,3.69,0,0,0,.58,0A4.87,4.87,0,0,0,10,24.85a4.23,4.23,0,0,0,.68-.3,9.38,9.38,0,0,0,1.59,0,8.08,8.08,0,0,0,1.18-.2,3.5,3.5,0,0,0,.55-.17h0a.8.8,0,0,0,.48.43,3.19,3.19,0,0,0,.59.15l.52.1A.93.93,0,0,1,16,25c.09.06.1.2.18.34a1,1,0,0,0,.36.34,1.44,1.44,0,0,0,.55.19l.3,0a.93.93,0,0,0,.36,0,1,1,0,0,0,.48-.32,2.57,2.57,0,0,0,.44-.75,1.18,1.18,0,0,1,.15-.26,3.72,3.72,0,0,0,.46-.26.71.71,0,0,0,.3-.4.46.46,0,0,0-.08-.41Z"/><path class="cls-3" d="M19.65,22.87a.46.46,0,0,0-.33,0s0,0,0,0a.69.69,0,0,0,.1.18l0,0,.08,0s0,.05,0,.07a.25.25,0,0,1-.13,0,1.09,1.09,0,0,0-.5.06.93.93,0,0,0-.23.14s0,0,0,0a.65.65,0,0,0,.29.1.74.74,0,0,0,.29,0l.15-.06a.45.45,0,0,0,.13-.11c.05,0,.06-.07.1-.1a.68.68,0,0,0,.12-.12.16.16,0,0,0,0-.16.26.26,0,0,0-.12-.09"/><path class="cls-3" d="M8.1,14a2.25,2.25,0,0,0-1.21,1.14S8.1,13.89,8.76,14L9,14s-.07-.29-.9,0"/><path class="cls-3" d="M8.45,14.41a8,8,0,0,0-.93.58l.59-.25s0,.17.25.16.51-.19.42-.28l-.12-.13.18-.06s-.07-.17-.39,0"/><path class="cls-3" d="M11.43,13.62c0-.22-.46-.07-.69.08s-.17.22-.17.22c.28-.16.1.11.34.1s.3-.12.29-.25-.19-.1-.11-.14a1,1,0,0,1,.34,0"/><path class="cls-3" d="M11.33,13h0c-.71-.08-1.25.4-1.15.86s.5.54.73.77-.28.46-.28.46c.35,0,.37-.09.53-.28s0-.21-.45-.47-.33-.6-.2-.92.71-.34.85-.35l.12.24a5.08,5.08,0,0,0,.76,1c.07.08.19.17.24.23s0,.07.06.1l0,.11a1.28,1.28,0,0,1-.06.51,2,2,0,0,1-.24.48,2.69,2.69,0,0,1-.4.43,2.25,2.25,0,0,1-.53.36,4.58,4.58,0,0,1-.59.27h0l0,0A5.29,5.29,0,0,1,10,17a6.06,6.06,0,0,1-.76.1,7.08,7.08,0,0,1-3-.47h0l-.39-.11.1,0a.43.43,0,0,0,.24-.09.15.15,0,0,0,.06-.11c0-.09-.12-.11-.12-.11A.28.28,0,0,1,5.82,16a.77.77,0,0,0-.05-.17c0-.05-.15-.09-.18-.09l-.1,0-.18,0-.22,0a.25.25,0,0,0-.16,0,.09.09,0,0,0-.06.1.19.19,0,0,0,.06.1L5,16H5v-.08s0-.05,0-.06,0,0,0,0,0,0,0,0l.13.05.22,0h.12s0,0,0,0a1.21,1.21,0,0,0,.12.13,2.55,2.55,0,0,1,.3.26s0,0,0,0,0,0,0,0l-.07,0s0,0,0,0l-.06-.05-.06-.06h0a.48.48,0,0,0,0,.08.18.18,0,0,0,0,.11.22.22,0,0,0,.07.06l-.44-.17c-.41-.25-.74-.57-.57-.73s1,0,1,0a1.34,1.34,0,0,0,.74.41l-.27-.37.8.43A2.5,2.5,0,0,1,6,15a1.84,1.84,0,0,1,.21-1.67l.08.81,1-1.45-.06,1.4.61-1.25.22.87L8.37,13l0,.58.5-1.13.16,1,.87-.74-.17.49.7-1.22,0,1,.66-1,0,.3a1.36,1.36,0,0,0,.11.56,2.26,2.26,0,0,0,.11.22M4.42,16.11l1.5,1.07-.2-.4.86.56L6.39,17l.5.34-.31-.4a10.52,10.52,0,0,0,1,.29,8,8,0,0,0,1.65.17,6.22,6.22,0,0,0,.85-.07,2.48,2.48,0,0,0,.41-.08l.09,0a.56.56,0,0,0,0,.13.62.62,0,0,0,.21.34.72.72,0,0,0,.17.1.5.5,0,0,1-.09-.14.35.35,0,0,1,0-.28.18.18,0,0,1,.06-.09l.36.07a1.89,1.89,0,0,1,.43.21l.1.08.09.1a2.09,2.09,0,0,1,.16.22c.23.33.46.72.76,1.14a4.32,4.32,0,0,0,.54.63,1.61,1.61,0,0,0,.44.32l.46.19a2.91,2.91,0,0,1,.77.4,4.88,4.88,0,0,1,.55.56,1.72,1.72,0,0,0,.39.29,1.49,1.49,0,0,0,.55.14l.41,0a.31.31,0,0,1,.18.09c.06.1-.05.21-.24.26a1.6,1.6,0,0,1-.51.06c-.07,0-.13,0-.14,0s0-.06,0-.08a.39.39,0,0,1,.09-.07l-.11.05s-.09,0-.08.11.11.09.18.11a2,2,0,0,0,.61,0,1,1,0,0,0,.37-.13.3.3,0,0,0,.13-.34.51.51,0,0,0-.39-.3c-.16,0-.33-.05-.45-.07A.93.93,0,0,1,16.1,21a4.1,4.1,0,0,0-.55-.63,3.33,3.33,0,0,0-.91-.49l-.45-.18a1.23,1.23,0,0,1-.29-.21,4.77,4.77,0,0,1-.53-.57c-.33-.39-.63-.76-.93-1.08a2.5,2.5,0,0,0-.24-.22l-.13-.09a.55.55,0,0,0-.15-.08,1.59,1.59,0,0,0-.54-.17,1.32,1.32,0,0,0-.38,0l.13-.13a.41.41,0,0,1,.12-.09h0a3.48,3.48,0,0,0,1.07-.61,2.64,2.64,0,0,0,.44-.52A1.5,1.5,0,0,0,13,15.3a1.22,1.22,0,0,0,0-.6l-.07-.16a.67.67,0,0,0-.13-.15l-.27-.21a5.37,5.37,0,0,1-.88-.91,2.45,2.45,0,0,1-.39-.75,2.51,2.51,0,0,0,.08-1c0-.85-1.23-1.49-2.31-1.75A6.49,6.49,0,0,0,5,10.1c-1.9.62-3,2.47-2.55,3.87A3.92,3.92,0,0,0,4.42,16.11Z"/><path class="cls-3" d="M7,16.12l0,0Z"/><path class="cls-3" d="M10.32,16.33s-.62.14-.3.23,1.15-.21.3-.23"/><path class="cls-3" d="M28.62,12.66h0a2,2,0,0,1-1.18,1.13,10.17,10.17,0,0,1-1.91.62,19.63,19.63,0,0,1-2.08.31c-.7.07-1.42.09-2.13.1s-1.44,0-2.13-.08h-.14l-.09.06A6,6,0,0,1,16.4,16a9.21,9.21,0,0,1-3.06.11,11.22,11.22,0,0,0,1.75-.58,5,5,0,0,0,.82-.45,2,2,0,0,0,.34-.3.76.76,0,0,0,.12-.19.37.37,0,0,0,.06-.25v-.07l-.11,0a10.7,10.7,0,0,1-1.64-.91,3,3,0,0,1-1.07-1.16c-.17-.42,0-.83.52-1.13a6.16,6.16,0,0,1,1.77-.67A17.19,17.19,0,0,1,18,10c.69-.08,1.42-.14,2.13-.18a22.62,22.62,0,0,1,4.28.15,12,12,0,0,1,2,.46,5.3,5.3,0,0,1,1.67.89,1.32,1.32,0,0,1,.55,1.34m-.4-1.41a5.2,5.2,0,0,0-1.72-.95,12.21,12.21,0,0,0-2.06-.55,22,22,0,0,0-4.38-.29c-.74,0-1.45.07-2.19.14s-1.46.18-2.18.33a6.62,6.62,0,0,0-2,.75,1.8,1.8,0,0,0-.68.72,1.07,1.07,0,0,0,0,.86,3.27,3.27,0,0,0,1.26,1.33,11.3,11.3,0,0,0,1.66.86,0,0,0,0,1,0,0,.42.42,0,0,1-.07.13,1.52,1.52,0,0,1-.25.26,4.62,4.62,0,0,1-.69.47,17.35,17.35,0,0,1-1.68.75l-.06,0,.06,0a8.65,8.65,0,0,0,1.62.2,8.48,8.48,0,0,0,1.67-.11,7.12,7.12,0,0,0,1.55-.45,6.28,6.28,0,0,0,1.19-.69,20.55,20.55,0,0,0,2.08.1,20.31,20.31,0,0,0,2.21-.1A11.68,11.68,0,0,0,27.64,14a2.21,2.21,0,0,0,1.21-1.28A1.5,1.5,0,0,0,28.22,11.25Z"/><path class="cls-3" d="M10.44,16.11c.87,0,0-.5.44-.62-.79.11-1.32.65-.44.62"/><path class="cls-4" d="M7.7,18.9c-.54.15-1,1.58-2.38,1.67S3.69,20.31,4,19.43s1.88-1.36,2.18-1.81-.07-.68.47-.8.37,0,.37,0,.23-.06.23-.18.9-.35.9,0S8,16.82,8,17s.56-.41.65-.15a.64.64,0,0,1-.11.52s.37-.28.37,0a.49.49,0,0,1-.14.41s.39.09.32.35-.82.63-1.36.78"/><path class="cls-3" d="M7.68,18.89h0a3.44,3.44,0,0,0,1-.48,1.49,1.49,0,0,0,.18-.17s.05,0,.05-.08a.05.05,0,0,0,0,0,.06.06,0,0,0,0,0A.14.14,0,0,0,8.86,18a.42.42,0,0,0-.18-.08l-.07-.2s0,0,0,0l0,0a.19.19,0,0,0,0-.08.54.54,0,0,0,0-.18v-.05s0,0,0,.05a.2.2,0,0,0,.12,0s0,0,0,0l-.07.05a.33.33,0,0,1-.37,0,.13.13,0,0,1-.06-.2h0A.57.57,0,0,0,8.36,17a.2.2,0,0,0,0-.11v0s0,0,0,0a.32.32,0,0,0,.17.06l-.08,0-.17.09-.12.06-.05,0-.09,0H7.87a.21.21,0,0,1-.14-.11c0-.05,0-.06,0-.07s0,0,0,0h0s0,0,0,0a.39.39,0,0,1,.18-.14c.07,0,0,0,0,0a.54.54,0,0,0,0-.19.34.34,0,0,0-.25-.08.47.47,0,0,0-.32.1s0,0,0,0a.17.17,0,0,1-.06.11.86.86,0,0,1-.23.13L7,16.76s0,0,0,0,0,.08,0,.07H7l-.15,0a.84.84,0,0,0-.27.09c-.08,0,0,.24,0,.42a1.08,1.08,0,0,1-.1.27.92.92,0,0,1-.22.26,6.3,6.3,0,0,1-.53.37,6.66,6.66,0,0,0-1,.69,1.63,1.63,0,0,0-.3.37l0,.12,0,0s0,0,0,0l0,.06a1.87,1.87,0,0,0-.07.22.68.68,0,0,0,0,.38c0,.09.13.13.31.17a4,4,0,0,0,.63,0,1.65,1.65,0,0,0,.59-.08,2.7,2.7,0,0,0,1-.63,5.29,5.29,0,0,0,.41-.41,1.35,1.35,0,0,1,.49-.37m0,0a1.15,1.15,0,0,0-.44.37l-.33.45a2.6,2.6,0,0,1-.92.83,2,2,0,0,1-.78.19,3.16,3.16,0,0,1-.81,0,1,1,0,0,1-.77-.42.81.81,0,0,1-.05-.6,1.38,1.38,0,0,1,.08-.27l0-.06,0,0v0l.06-.12a2,2,0,0,1,.43-.48A5.51,5.51,0,0,1,5.32,18c.19-.11.37-.21.52-.31A1,1,0,0,0,6,17.55a.81.81,0,0,0,.11-.2.86.86,0,0,0,0-.23.37.37,0,0,1,.19-.3,1.21,1.21,0,0,1,.39-.11l.19,0a.64.64,0,0,1,.14,0s.13.09.09.12a.08.08,0,0,1,0,.06L7,16.75a.34.34,0,0,0,.16-.07.08.08,0,0,0,0,0,.14.14,0,0,1,0-.1.68.68,0,0,1,.48-.22.76.76,0,0,1,.3,0,.67.67,0,0,1,.3.13.42.42,0,0,1,0,.46c0,.06-.16.12-.16.12h0v0a.1.1,0,0,0,0-.07.24.24,0,0,0-.13-.09l-.11,0H7.87s0,0,0,0l.08,0,.19-.12a.74.74,0,0,1,.35-.11.42.42,0,0,1,.36.13.2.2,0,0,1,.05.09v0a.55.55,0,0,1,0,.22.81.81,0,0,1-.16.37l-.43-.2.14-.08a.66.66,0,0,1,.24-.08.5.5,0,0,1,.26,0,.29.29,0,0,1,.14.13.37.37,0,0,1,0,.09v.07a.68.68,0,0,1-.07.23.34.34,0,0,1-.06.12l-.05.06-.08.07-.07-.21a.77.77,0,0,1,.32.18.26.26,0,0,1,.08.27.21.21,0,0,1,0,.07l0,0a.32.32,0,0,1-.1.1,1.88,1.88,0,0,1-.23.16A5.43,5.43,0,0,1,7.71,18.92Z"/><path class="cls-5" d="M16.5,12.46a4,4,0,0,1,0-.5h0c0,.16-.1.35-.14.46l-.19.54h-.3l-.18-.53a3.44,3.44,0,0,1-.13-.47h0c0,.17,0,.36,0,.5l0,.53h-.37l.16-1.51h.45l.17.55a4.33,4.33,0,0,1,.16.52h0a4.56,4.56,0,0,1,.14-.52l.17-.55h.45L16.92,13h-.38Z"/><path class="cls-5" d="M17.9,12.42h0l-.07-.32-.07-.34h0a2.84,2.84,0,0,1-.08.34l-.08.32Zm-.35.22-.1.35H17l.47-1.51H18L18.45,13H18l-.1-.35Z"/><path class="cls-5" d="M20,12.46a4,4,0,0,1,0-.5h0c0,.16-.1.35-.14.46l-.19.54h-.3l-.18-.53A3.35,3.35,0,0,1,19,12h0c0,.17,0,.36,0,.5L19,13h-.37l.16-1.51h.45l.17.55c.06.19.12.35.16.52h0c0-.16.08-.33.14-.52l.18-.55h.44L20.42,13H20Z"/><path class="cls-5" d="M21.4,12.42h0l-.07-.32-.07-.34h0c0,.1-.06.26-.08.34l-.08.32Zm-.35.22L21,13h-.41L21,11.48h.51L22,13h-.42l-.09-.35Z"/><path class="cls-5" d="M23.34,12.42h0l-.07-.32-.07-.34h0c0,.1-.06.26-.08.34l-.08.32Zm-.35.22-.1.35h-.41L23,11.48h.51L23.89,13h-.41l-.1-.35Z"/><rect class="cls-5" x="24.1" y="11.48" width="0.43" height="1.5"/><polygon class="cls-5" points="25.11 11.75 24.72 11.75 24.72 11.48 25.93 11.48 25.93 11.75 25.54 11.75 25.54 12.99 25.11 12.99 25.11 11.75"/><path class="cls-5" d="M26.71,12.42h0l-.07-.32-.07-.34h0c0,.1-.06.26-.08.34l-.08.32Zm-.35.22-.1.35h-.41l.47-1.51h.51L27.26,13h-.42l-.09-.35Z"/><path class="cls-3" d="M4,2.05h.16c.39,0,.65-.18.65-.51s-.15-.46-.59-.46a.68.68,0,0,0-.22,0ZM3.61.91a3.18,3.18,0,0,1,.57,0A1.36,1.36,0,0,1,4.94,1a.57.57,0,0,1,.26.49A.59.59,0,0,1,5,2a1.22,1.22,0,0,1-.81.27H4v1H3.61Z"/><path class="cls-3" d="M6.36,2.37h0c-.2,0-.68,0-.68.39a.28.28,0,0,0,.3.3.35.35,0,0,0,.37-.26.28.28,0,0,0,0-.09Zm.06.87,0-.18h0a.62.62,0,0,1-.49.21c-.34,0-.59-.19-.59-.48s.49-.62,1-.62v0c0-.23-.08-.39-.39-.39a.88.88,0,0,0-.41.09l-.09-.19A1.48,1.48,0,0,1,6,1.52c.5,0,.71.22.71.6v.74a1.54,1.54,0,0,0,0,.38Z"/><rect class="cls-3" x="7.25" y="0.81" width="0.39" height="2.43"/><path class="cls-3" d="M9.1,2.37h0c-.21,0-.68,0-.68.39a.28.28,0,0,0,.3.3.37.37,0,0,0,.37-.26.28.28,0,0,0,0-.09Zm.06.87,0-.18h0a.61.61,0,0,1-.49.21c-.33,0-.59-.19-.59-.48s.5-.62,1.06-.62v0c0-.23-.08-.39-.4-.39a.84.84,0,0,0-.4.09L8.2,1.63a1.48,1.48,0,0,1,.58-.11c.49,0,.71.22.71.6v.74a2.3,2.3,0,0,0,0,.38Z"/><path class="cls-3" d="M10.38,2.64h0a.37.37,0,0,0,0,.11.4.4,0,0,0,.37.3c.32,0,.43-.3.43-.66s-.12-.64-.43-.64a.4.4,0,0,0-.37.3.49.49,0,0,0,0,.12Zm-.42.6c0-.1,0-.29,0-.4v-2h.4v.93h0a.63.63,0,0,1,.52-.22c.38,0,.68.3.68.86a.78.78,0,0,1-.76.89A.52.52,0,0,1,10.34,3h0l0,.22Z"/><path class="cls-3" d="M12,2c0-.14,0-.31,0-.44h.36l0,.27h0a.59.59,0,0,1,.52-.29h.08V1.8h-.08a.48.48,0,0,0-.48.36.71.71,0,0,0,0,.15v.94H12Z"/><path class="cls-3" d="M14.09,2.37h0c-.21,0-.68,0-.68.39a.28.28,0,0,0,.3.3.37.37,0,0,0,.37-.26.28.28,0,0,0,0-.09Zm.06.87,0-.18h0a.61.61,0,0,1-.49.21c-.33,0-.59-.19-.59-.48s.5-.62,1.06-.62v0c0-.23-.08-.39-.4-.39a.91.91,0,0,0-.41.09l-.08-.19a1.48,1.48,0,0,1,.58-.11c.49,0,.71.22.71.6v.74a2.3,2.3,0,0,0,0,.38Z"/><path class="cls-3" d="M14.91,3a1,1,0,0,0,.4.09c.23,0,.36-.1.36-.25s-.06-.21-.31-.33-.5-.29-.5-.48.3-.47.68-.47A1.25,1.25,0,0,1,16,1.6l-.11.21a.67.67,0,0,0-.33-.08c-.21,0-.32.11-.32.22s.06.18.31.29.51.28.51.52-.34.5-.74.5a1.18,1.18,0,0,1-.5-.09Z"/><path class="cls-3" d="M17.24,3.24V1.75h-.31V1.54h.31v-.1a.6.6,0,0,1,.22-.51A.83.83,0,0,1,18,.79a.8.8,0,0,1,.3,0L18.2,1A.61.61,0,0,0,18,1c-.28,0-.35.21-.35.43v.1h.45v.21h-.45V3.24Z"/><path class="cls-3" d="M18.27,2c0-.14,0-.31,0-.44h.35l0,.27h0a.59.59,0,0,1,.52-.29h.09V1.8h-.09a.46.46,0,0,0-.47.36.68.68,0,0,0,0,.15v.94h-.39Z"/><path class="cls-3" d="M20.38,2.37h0c-.2,0-.68,0-.68.39a.28.28,0,0,0,.3.3.35.35,0,0,0,.37-.26.28.28,0,0,0,0-.09Zm.06.87,0-.18h0a.62.62,0,0,1-.49.21c-.34,0-.59-.19-.59-.48s.49-.62,1.05-.62v0c0-.23-.08-.39-.39-.39a.88.88,0,0,0-.41.09l-.09-.19a1.48,1.48,0,0,1,.58-.11c.5,0,.71.22.71.6v.74a1.54,1.54,0,0,0,0,.38Z"/><path class="cls-3" d="M21.21,3a1,1,0,0,0,.39.09c.23,0,.37-.1.37-.25s-.07-.21-.32-.33-.5-.29-.5-.48.3-.47.68-.47a1.21,1.21,0,0,1,.45.08l-.11.21a.66.66,0,0,0-.32-.08c-.22,0-.33.11-.33.22s.06.18.31.29.51.28.51.52-.34.5-.74.5a1.16,1.16,0,0,1-.49-.09Z"/><path class="cls-3" d="M23.75,2.22h0c0-.34-.18-.49-.36-.49S23,2,23,2.22Zm-.77.2c0,.52.3.63.58.63A1.08,1.08,0,0,0,24,3l.07.2a1.52,1.52,0,0,1-.55.08.8.8,0,0,1-.9-.85.81.81,0,0,1,.84-.89.67.67,0,0,1,.7.75v.15Z"/><path class="cls-3" d="M24.44,3a1,1,0,0,0,.4.09c.22,0,.36-.1.36-.25s-.06-.21-.32-.33-.49-.29-.49-.48.29-.47.68-.47a1.19,1.19,0,0,1,.44.08l-.1.21a.7.7,0,0,0-.33-.08c-.22,0-.32.11-.32.22s.06.18.3.29.52.28.52.52-.34.5-.75.5a1.16,1.16,0,0,1-.49-.09Z"/><path class="cls-3" d="M5,4.84H5A3.2,3.2,0,0,1,5.48,4l.23,0a3.4,3.4,0,0,0-.3.79Zm.68,0A3.54,3.54,0,0,1,6.15,4l.24,0a3.4,3.4,0,0,0-.3.79Z"/><path class="cls-3" d="M6.58,5.14c0-.2,0-.3,0-.44H6.9l0,.21h0a.69.69,0,0,1,.56-.24A.54.54,0,0,1,8,4.93H8a.67.67,0,0,1,.25-.19.71.71,0,0,1,.34-.07.54.54,0,0,1,.59.6V6.4H8.81V5.34c0-.22,0-.44-.34-.44a.39.39,0,0,0-.37.25.81.81,0,0,0,0,.16V6.4H7.7V5.29c0-.19,0-.39-.35-.39A.37.37,0,0,0,7,5.18a.59.59,0,0,0,0,.14V6.4H6.58Z"/><path class="cls-3" d="M10.62,5.52h0c-.2,0-.68,0-.68.4a.29.29,0,0,0,.31.3A.35.35,0,0,0,10.61,6a.31.31,0,0,0,0-.09Zm.06.88,0-.18h0a.62.62,0,0,1-.49.21.53.53,0,0,1-.59-.49c0-.42.5-.61,1-.61V5.27c0-.22-.08-.38-.39-.38A.91.91,0,0,0,9.81,5l-.09-.19a1.36,1.36,0,0,1,.58-.12c.5,0,.71.23.71.61V6a1.63,1.63,0,0,0,0,.39Z"/><path class="cls-3" d="M11.51,5.14c0-.2,0-.3,0-.44h.35l0,.21h0a.66.66,0,0,1,.56-.24.53.53,0,0,1,.51.26h0a.76.76,0,0,1,.25-.19.74.74,0,0,1,.34-.07.55.55,0,0,1,.6.6V6.4h-.39V5.34c0-.22-.05-.44-.35-.44a.37.37,0,0,0-.36.25.41.41,0,0,0,0,.16V6.4h-.39V5.29c0-.19-.05-.39-.34-.39a.37.37,0,0,0-.37.28.59.59,0,0,0,0,.14V6.4h-.39Z"/><path class="cls-3" d="M15.56,5.52h0c-.21,0-.68,0-.68.4a.28.28,0,0,0,.3.3A.37.37,0,0,0,15.55,6a.31.31,0,0,0,0-.09Zm0,.88h0l0-.18h0a.61.61,0,0,1-.49.21.53.53,0,0,1-.59-.49c0-.42.5-.61,1.06-.61V5.27c0-.22-.08-.38-.4-.38a.91.91,0,0,0-.41.09l-.08-.19a1.28,1.28,0,0,1,.57-.12c.5,0,.72.23.72.61V6a2.42,2.42,0,0,0,0,.39ZM15.88,4l-.54.47h-.26l.4-.47Z"/><path class="cls-3" d="M17.68,4.25V4.7h.48v.21h-.48v1c0,.22.12.28.26.28h.16l0,.2a1.21,1.21,0,0,1-.3,0,.69.69,0,0,1-.39-.1.51.51,0,0,1-.14-.43v-1H17V4.7h.31V4.33Z"/><path class="cls-3" d="M19.47,5.38h0c0-.35-.18-.5-.37-.5s-.39.26-.41.5Zm-.78.19c0,.52.3.64.59.64a1.12,1.12,0,0,0,.41-.07l.06.2a1.75,1.75,0,0,1-.54.08.8.8,0,0,1-.91-.85.82.82,0,0,1,.84-.9.68.68,0,0,1,.71.75.62.62,0,0,1,0,.15Z"/><path class="cls-3" d="M20.7,4.25V4.7h.48v.21H20.7v1c0,.22.12.28.26.28h.16v.2a1.07,1.07,0,0,1-.29,0,.69.69,0,0,1-.39-.1.51.51,0,0,1-.14-.43v-1H20V4.7h.31V4.33Z"/><path class="cls-3" d="M22.39,5.52h0c-.2,0-.68,0-.68.4a.29.29,0,0,0,.3.3A.35.35,0,0,0,22.38,6a.31.31,0,0,0,0-.09Zm.06.88,0-.18h0a.62.62,0,0,1-.49.21c-.34,0-.59-.19-.59-.49s.49-.61,1.05-.61V5.27c0-.22-.08-.38-.39-.38a.88.88,0,0,0-.41.09l-.09-.19a1.29,1.29,0,0,1,.58-.12c.5,0,.71.23.71.61V6a1.63,1.63,0,0,0,0,.39Z"/><path class="cls-3" d="M23.69,4h0a3.45,3.45,0,0,1-.46.8l-.23,0A4.08,4.08,0,0,0,23.29,4Zm.68,0a3.45,3.45,0,0,1-.46.8l-.24,0A3.56,3.56,0,0,0,24,4Z"/><path class="cls-3" d="M3.31,15.31s1.09.94,1.69,1.6a4.7,4.7,0,0,0,.84.8l.46-.16s0-.68-.1-.72-2.45-1.22-2.89-1.52"/><path class="cls-3" d="M8.28,18.7a1,1,0,0,1,.17.64s.63.05.55.35-.24.51-.24.58a1.91,1.91,0,0,0,.08.31s-1.09-.44-1.14-.66.24-.49.24-.49l-.23-.51Z"/></svg>