<svg id="Capa_1" data-name="Capa 1" xmlns="http://www.w3.org/2000/svg" viewBox="0 0 29.62 28.41"><defs><style>.cls-1{fill:#f5a4c7;}.cls-2{fill:#fbcabb;}.cls-3{fill:#cd4c2a;}.cls-4{fill:#ffcb56;}.cls-5{fill:#231f20;}</style></defs><title>6-18meses</title><path class="cls-1" d="M20.8,17.68s-1.24,1-1.35,1.59S20.64,20.94,20.8,21a3.92,3.92,0,0,0,4.35.26c2.32-1.43,2.48-2,2.3-2.36s-.35-.64-.35-.64Z"/><path class="cls-2" d="M20.27,13.49a7.15,7.15,0,0,0-.94.86c-.38.43-1.39,2.2-.64,2.69a3.77,3.77,0,0,0,1.58.56s-.34.64-.06.92a5.94,5.94,0,0,0,1.87.4s.72.06.72.06l.32-1.31.75.09L23.72,19a9.36,9.36,0,0,0,2.65-.22,1.84,1.84,0,0,0,.74-.67c0-.06,0-.58,0-1.34a8.14,8.14,0,0,0-.58-2.32s2.23-.2,2.37-.6a2,2,0,0,0-.07-1.4,2.82,2.82,0,0,0-.93-.83c-.3-.1-1.95-1-2.08-1.1a5.87,5.87,0,0,0-.79-.23s-.19-.73-.46-.74a1.43,1.43,0,0,1-.81-.19A8.05,8.05,0,0,0,20,9.17a12.27,12.27,0,0,0-2.53.63,11.55,11.55,0,0,0-.08,1.6l-.21.76s1.09.86,1.56.8.51,0,.51,0a3.27,3.27,0,0,0,.75.45l.28.07"/><path class="cls-2" d="M23.49,23s.25-.36,0-.56-.33-.18-.33-.25.22-1.13.22-1.13a6.49,6.49,0,0,1,.66.84c0,.12-.22-.15.27-.29a16.59,16.59,0,0,0,2-.94,3.68,3.68,0,0,1,.39-.4s.24.11.32.57a9.87,9.87,0,0,1-.36,3.41c-.41,1.2-.22,1.76.39,2s1.14.52,1.14.68-.27.22-.27.22l-.22-.06a.21.21,0,0,1-.06.27c-.14.12-.44.06-.46.21s-.66.12-.74.12a1.88,1.88,0,0,1-.35-.13s-.29.18-.47.1a6,6,0,0,1-.65-.38s-.1-1.5-.08-2a2.47,2.47,0,0,0-.73-1.88l-.67-.4"/><polygon class="cls-3" points="22.16 22.17 23.12 17.67 24 17.79 23.08 22.35 22.16 22.17"/><polygon class="cls-3" points="23.63 15.89 24.25 12.29 25.07 12.29 24.52 15.89 23.63 15.89"/><path class="cls-3" d="M24.84,10.25l.74.17s.48-1.39.16-1.62a1.39,1.39,0,0,0-1-.14,4,4,0,0,0-.37.77s.4.23.49.82"/><path class="cls-4" d="M19.93,24.3l-.75,3.08a7.86,7.86,0,0,0,1.59.22h3.95s.05-3,0-3.33S23.42,23,23.37,23s.39-.29.19-.46a2,2,0,0,0-1.25-.33c-.6,0-.82.2-.82.41a.64.64,0,0,0,0,.28,1.81,1.81,0,0,0-1.6,1.44"/><path class="cls-2" d="M20.57,23.35a2.73,2.73,0,0,0-.23-1.19,12.27,12.27,0,0,0-.74-1.1c-.09-.18-.29-1,0-1.06a16.17,16.17,0,0,1,2,0l.81.58-.22,1.63s-.62,0-.69.25a.89.89,0,0,0,0,.43s-1,.49-1,.49"/><path class="cls-5" d="M20.69,11.61a1.73,1.73,0,0,0-1.86.68,1.65,1.65,0,0,1,1.09-.53c.57,0,1.07-.08.77-.15"/><path class="cls-5" d="M21.77,11.4c.18,0,.43-.36.77-.42a7.9,7.9,0,0,1,1.09,0A2.86,2.86,0,0,0,22,11c-.35.19-.39.42-.21.38"/><path class="cls-5" d="M20.2,12.14a1.67,1.67,0,0,1-.78.07c1.07.47,1.14-.28,1.14-.28a3.39,3.39,0,0,1-.36.21"/><path class="cls-5" d="M22.17,11.41c1,.39,1-.35,1-.35a1.24,1.24,0,0,1-1,.35"/><path class="cls-5" d="M21.48,12.65c.22,0,.29.13.49,0s.25-.12.32-.26a.16.16,0,0,0,0-.22s.08.08-.08.18-.26.28-.52.25-.3,0-.41,0,0,.06.24.07"/><path class="cls-5" d="M22.25,12.77a.62.62,0,0,1-.36.12,1.26,1.26,0,0,0-.47.15A2.18,2.18,0,0,0,23,12.56l-.3.09c-.1,0-.33.07-.41.12"/><path class="cls-5" d="M22.08,13.18c.34.13.56,0,.46-.07s-.62,0-.46.07"/><path class="cls-5" d="M28.92,13.61h0l0,.1a.64.64,0,0,1-.14.15,2.56,2.56,0,0,1-1,.34,7.6,7.6,0,0,1-1.17.11h0c-.07,0-.13,0-.12.1h0c.08.55.17,1.1.29,1.64.05.27.11.55.18.81a3.91,3.91,0,0,1,.15.79.81.81,0,0,1-.21.67.76.76,0,0,1-.17.13l0,0-.05,0-.12.06a4.5,4.5,0,0,1-.5.13,15.36,15.36,0,0,1-2.08.25l.2-1.12a1.12,1.12,0,0,0,.31-.1.43.43,0,0,0,.21-.24l0-.13v-.09h0a.24.24,0,0,0,.11-.08s0,0,0,0h0a.39.39,0,0,0,.11-.29.33.33,0,0,0,0-.14l.07-.05a.27.27,0,0,0,.1-.17v0h0s0,0,0,0a.22.22,0,0,0-.09-.1s0,0,0,0l0,0a.31.31,0,0,0-.05-.41l-.16-.1.57-3.37.1.06a.8.8,0,0,0,.25.11,1.57,1.57,0,0,0,.3,0,1.48,1.48,0,0,0,0,.21.67.67,0,0,0,.14.34.84.84,0,0,0,.35.28,1.21,1.21,0,0,0,.5.1l0,0a1.46,1.46,0,0,1-.39-.49l-.11-.26a2.14,2.14,0,0,1-.09-.27l0-.08,0,0a.2.2,0,0,0-.2,0,.54.54,0,0,1-.39.1.23.23,0,0,1-.15-.09.26.26,0,0,1,0-.08s0,0,0-.06h0s0-.05,0-.06l-.13,0a1.51,1.51,0,0,0-.56-.05l-.25,0,.07-.12.06-.13.68-.16-.58-.13a.28.28,0,0,1,0-.09l.57-.17-.58-.17v.06s0-.08,0-.11a.87.87,0,0,0-.07-.17l.12,0v0l.63-.17-.37-.11a.64.64,0,0,0,.06-.16,2.17,2.17,0,0,0,0-.25l.23.08v.05h.17a1.19,1.19,0,0,1,.39.25,1.6,1.6,0,0,0,.42.35l.47.27,1,.49.23.12.22.12a1.85,1.85,0,0,1,.33.29,1.35,1.35,0,0,1,.3.74c0,.13,0,.27,0,.4a.33.33,0,0,1,0,.1m-1.69,4.93h0l0-.05a.82.82,0,0,1,.11.44,1.07,1.07,0,0,1-.24.49c-.12.17-.25.34-.36.51s-.12.15-.18.23-.14.14-.23.2a7,7,0,0,1-1.17.71c-.4.21-.82.4-1.24.59l-.23-.24-.26-.25.4-2.15c.32,0,.64,0,1,0A10.13,10.13,0,0,0,26.06,19a3.77,3.77,0,0,0,.63-.14l.13,0,.08,0,.07,0A1.67,1.67,0,0,0,27.23,18.54ZM27,21.26h0a4.59,4.59,0,0,1,0,1,9.91,9.91,0,0,1-.25,1l-.28,1c-.08.33-.17.66-.24,1a1.77,1.77,0,0,0,0,.52c0,.23.24.41.43.52.43.22.89.33,1.25.53.18.1.32.24.21.36s-.09.08-.16,0a.62.62,0,0,1-.16-.2.08.08,0,0,0-.09,0c-.05,0-.07,0-.06.07a1.34,1.34,0,0,1,.07.27.66.66,0,0,1,0,.14l0,.05h0l0,0a.27.27,0,0,1-.08-.1l0-.07a.7.7,0,0,0-.06-.19h0a.18.18,0,0,0-.2-.08c-.09,0-.14.08-.12.13h0a1.42,1.42,0,0,1,0,.29.28.28,0,0,1,0,.11h0L27,27.4a.86.86,0,0,1-.09-.27h0a.24.24,0,0,0-.26-.13c-.13,0-.21.08-.2.17a1,1,0,0,1,0,.3.36.36,0,0,1,0,.11l0,0a1.52,1.52,0,0,1-.09-.28v0a.16.16,0,0,0-.18-.1c-.09,0-.17.05-.17.12a.62.62,0,0,1-.05.27.19.19,0,0,1-.21.12.5.5,0,0,1-.19,0,1.17,1.17,0,0,1-.2-.06,1,1,0,0,1-.25-.15c0-.73-.11-1.46-.17-2.18L25,25s0,0,0,0h0l-.05-.08a.17.17,0,0,1,0-.07,1.53,1.53,0,0,0-.18-.71,2.62,2.62,0,0,0-.5-.62,1.56,1.56,0,0,0-.2-.16.92.92,0,0,0,.16-.2,1.09,1.09,0,0,0,.16-.58,1.05,1.05,0,0,0-.21-.59l-.07-.07a10.71,10.71,0,0,0,1.41-.51,5.41,5.41,0,0,0,1.28-.76.46.46,0,0,0,.07-.07A4.05,4.05,0,0,1,27,21.26Zm.09,6.25Zm0,0h0s0,0,0,0Zm-2.53-2.11h0l-.29-.11c-.19-.07-.37-.17-.59-.24A5,5,0,0,0,23,24.9a5.38,5.38,0,0,0-.69-.07c-.24,0-.47,0-.69,0l-.68.07a9.81,9.81,0,0,0-1.08.21c.06-.16.11-.31.16-.46l1.23,0c.21,0,.41,0,.62,0s.41,0,.61,0l.3,0h.3a5.67,5.67,0,0,1,.58,0,3,3,0,0,1,.54.12l.22.08a.54.54,0,0,1,.15.1l.05.39ZM20.34,24h0a1.48,1.48,0,0,1,.46-.54,3.57,3.57,0,0,1,.75-.4,2.35,2.35,0,0,1,.89-.16,3.19,3.19,0,0,1,.82.12h0l.29.15,0,0a2.18,2.18,0,0,1,.52.36,1.82,1.82,0,0,1,.46.6,1.16,1.16,0,0,1,.13.57l-.25-.13a3.45,3.45,0,0,0-.63-.17,4.81,4.81,0,0,0-.65-.08c-.22,0-.44,0-.65,0s-.43,0-.64,0l-.63.07c-.4.06-.79.14-1.17.23A4.78,4.78,0,0,1,20.34,24Zm.21-1.74h0a1.66,1.66,0,0,0-.13-.32,2.92,2.92,0,0,0-.21-.32l-.2-.27a2.79,2.79,0,0,1-.16-.28,4.14,4.14,0,0,1-.21-.53c-.05-.16-.08-.29-.11-.39a.33.33,0,0,0,.24,0h0l.14-.05.16,0a1.86,1.86,0,0,1,.34,0,2,2,0,0,1,.35,0,2.23,2.23,0,0,1,.36.05,4.37,4.37,0,0,1,.7.22l.52.23-.29,1.6-.38.07a.51.51,0,0,0-.41.67,3.27,3.27,0,0,0-.68.31,1.51,1.51,0,0,0,0-.32A2,2,0,0,0,20.55,22.26Zm-.84-3.07h0a1.9,1.9,0,0,1,.25-.75.41.41,0,0,0,.05.09.73.73,0,0,0,.32.23l.36.13a5.43,5.43,0,0,0,1.37.14,4.49,4.49,0,0,0,.59,0l-.26,1.45a.6.6,0,0,0-.08-.08L22,20.14A3.54,3.54,0,0,0,21.7,20a2.5,2.5,0,0,0-.38-.15,2.07,2.07,0,0,0-.43-.1,1.78,1.78,0,0,0-.46,0,2.42,2.42,0,0,0-.47,0l-.16,0a.64.64,0,0,1-.06-.18A1,1,0,0,1,19.71,19.19Zm.78-1.34h0a3.49,3.49,0,0,0,.65,0,3.53,3.53,0,0,0,.66-.05,3.89,3.89,0,0,0,.49-.12l.06,0,.19.05.31,0L22.65,19l-.55-.14c-.34-.08-.81-.16-1.22-.27l-.29-.09a.67.67,0,0,1-.19-.09s0,0,0,0l0-.05,0-.09a.64.64,0,0,1,0-.17,1,1,0,0,1,0-.25Zm1.15,4.91h0a.27.27,0,0,1,.2-.34,2.8,2.8,0,0,1,1.05,0v.05l.33,0,.16.07c.14.1.07.26,0,.37a3.27,3.27,0,0,0-.9-.19A3.23,3.23,0,0,0,21.64,22.76Zm2.25.3h0a.75.75,0,0,0,.05.16l-.28-.17c.15-.2.26-.49,0-.69a1.34,1.34,0,0,0-.34-.15l.18-1c0,.08.08.16.13.24s.13.25.21.36a.1.1,0,0,0,.05,0V22c0,.15,0,.35,0,.54A2.26,2.26,0,0,0,23.89,23.06Zm-1-.92h0l-.47,0,.75-4.23h.5Zm1.7-5.56h0s0,0,0,0Zm-5.15.69h0c-.18-.05-.37-.1-.53-.16a.85.85,0,0,1-.38-.27.52.52,0,0,1-.09-.38,2.13,2.13,0,0,1,.32-.79c.07-.12.17-.25.24-.38l.21-.38c.14-.26.28-.51.44-.76a3,3,0,0,1,.26-.36.89.89,0,0,1,.29-.25l.16.05a5.4,5.4,0,0,0,.86.12l.47,0,.52,0A3,3,0,0,0,24,13l-.48,2.76-.22,0a3.53,3.53,0,0,0-.54.13,1.59,1.59,0,0,0-.32.16l-.48-.12-.32-.05s0-.07,0-.11a2.26,2.26,0,0,0,0-.57,1.86,1.86,0,0,0-.19-.55l-.11-.17-.05-.06,0,.06s0,.11.05.18a1.61,1.61,0,0,1,0,.54,1.87,1.87,0,0,1-.15.52,1.17,1.17,0,0,1-.05.11,3,3,0,0,0-1.31.15l0,0c.11,0,.22,0,.33,0h.33c.21,0,.42.06.63.1a6,6,0,0,1,.61.15c.2.05.41.12.59.18a.37.37,0,0,0,.34-.05,1.56,1.56,0,0,1,.7-.3,3.4,3.4,0,0,1,.46-.06h.47a.84.84,0,0,1,.38.06.21.21,0,0,1,.08.25h0a1.62,1.62,0,0,0-.3,0,4.91,4.91,0,0,0-.55,0h0c-.05,0-.08,0-.08.06s0,.07.08.08h.33l.2,0,.17,0h0l-.19,0a3.29,3.29,0,0,1-.45,0h-.05c-.1,0-.19.06-.2.13s.08.15.2.16h0a3.62,3.62,0,0,0,.57,0l.18,0a.27.27,0,0,1,.07.08.29.29,0,0,1,0,.16l-1.36.18a4.45,4.45,0,0,0,1.17,0h0l0,.05-.07.11a.41.41,0,0,1-.2.14,1.68,1.68,0,0,1-.6,0c-.22,0-.44-.06-.65-.09l-.31-.07-.13,0-.07,0-.32,0a3.19,3.19,0,0,1-.51.12,4.93,4.93,0,0,1-.54.05,5,5,0,0,1-.55,0c-.19,0-.34-.05-.54-.1ZM19.32,13h0c-.27-.19-.44-.35-.59-.45a.93.93,0,0,0-.25-.14l-.24-.11L18.37,11l.44.49.2-.69.21.94.43-1.51a7.08,7.08,0,0,1,.28.78l.23-.8.6,1.24L21.17,10l.4,1.36.15-1.74.3.56.24-.83,1.23,1.16-.42-.85.86.71v0a.79.79,0,0,0,0,.23l.1.22a2,2,0,0,1,.16.39,1,1,0,0,1-.14.71,3,3,0,0,1-.45.67,2.56,2.56,0,0,1-1.5.77l-.43.06-.45,0a5.13,5.13,0,0,1-.8-.05A2.82,2.82,0,0,1,19.32,13Zm-.59-.14h0a4.1,4.1,0,0,1-.82-.36l-.21-.12a1.25,1.25,0,0,1-.17-.12c-.06,0-.09-.08-.12-.1s0,0,0,0l0,0,.82.39,0-.15.22.1a1.91,1.91,0,0,1,.23.13c.12.09.26.22.44.38Zm5.58-3.3h.07l0,0s0,0,0,0Zm0,6.19h0l-.27,0h-.24l.57-3.26a.21.21,0,0,0,0-.06l.34.07h.15l-.56,3.28Zm.33-4.94h0l0,.06-.06-.12-.1-.18a1.94,1.94,0,0,1,0-.2,6.57,6.57,0,0,0-.09-.71h.2a.09.09,0,0,1,.07,0,.34.34,0,0,1,0,.08s0,.08,0,.13a1.79,1.79,0,0,1,0,.33c0,.12,0,.23,0,.35s0,.1,0,.14A.36.36,0,0,1,24.67,10.81Zm.25-2.06h0a.21.21,0,0,1,.14,0c.28,0,.37.06.41.1s.13.28.06.6a6.58,6.58,0,0,0-.12.9l-.24,0v-.06a.91.91,0,0,0-.08-.39A.58.58,0,0,0,25,9.64a.57.57,0,0,0-.23-.15h-.14A1.09,1.09,0,0,1,24.92,8.75ZM29,12.23a1.43,1.43,0,0,0-.4-.37,1.58,1.58,0,0,0-.24-.15l-.26-.12-1-.46-.49-.23a1.85,1.85,0,0,1-.4-.26,1.14,1.14,0,0,0-.43-.24,6.15,6.15,0,0,1,.12-1c.09-.41.05-.64-.13-.79a1.1,1.1,0,0,0-.67-.18.68.68,0,0,0-.4.1,1.18,1.18,0,0,0-.42.82,2.38,2.38,0,0,0-.65-1.07,2.07,2.07,0,0,0-.92-1,7.62,7.62,0,0,0-4.83-.18,3.27,3.27,0,0,0-2.41,2.28C15.27,10.28,17.1,12,17.1,12l.06,0a.2.2,0,0,0-.12.23.51.51,0,0,0,.12.23,1.11,1.11,0,0,0,.19.18l.23.15a2.63,2.63,0,0,0,.55.22,1.88,1.88,0,0,0,.56.06,1.3,1.3,0,0,0,.48-.08.27.27,0,0,0,.08.07,2.81,2.81,0,0,0,.87.46,2.42,2.42,0,0,0-.36.19,3.22,3.22,0,0,0-.38.35,4.3,4.3,0,0,0-.55.76,3.2,3.2,0,0,0-.35.81,5,5,0,0,0-.16.84.78.78,0,0,0,.09.44,1.05,1.05,0,0,0,.39.36c.17.09.35.16.53.24l.53.21.28.08A.69.69,0,0,0,20,18a.4.4,0,0,0,0,.22s0,.1,0,.14v0a1.5,1.5,0,0,0-.6.73.9.9,0,0,0-.06.46.93.93,0,0,0,0,.23,1.47,1.47,0,0,0,.1.22s0,0,0,0a1.45,1.45,0,0,0-.1.47,1.58,1.58,0,0,0,.06.59,2.22,2.22,0,0,0,.14.32c.06.11.15.23.21.32a2.43,2.43,0,0,1,.2.28l.16.28c.1.19.17.37.24.52l.13.37h0a.9.9,0,0,0-.19.15.6.6,0,0,0-.16.16,2,2,0,0,0-.23.34,5.07,5.07,0,0,0-.29.69A8.58,8.58,0,0,0,19.3,26a9.34,9.34,0,0,0-.12,1.4h.05L19.6,26c.08-.27.17-.54.25-.81.39,0,.78,0,1.16,0l1.32,0c.22,0,.43,0,.65,0a2.68,2.68,0,0,1,.64.05,1.4,1.4,0,0,1,.29.09l.28.13.29.12.16.07h0c0,.61,0,1.23,0,1.84q-2.26,0-4.53,0l.33-.07a4.35,4.35,0,0,1,.52-.06l.52,0h2.16v0h-.06l-.18-1.46-.16,1.42-.67-.07c-.36,0-.73-.05-1.09-.06h-.3L21,26.41l-.15.63-.52,0h-.06l.08-1.19L20,27.14l-.18,0a1.17,1.17,0,0,0-.28.13.32.32,0,0,0-.19.29c0,.07.08.13.19.13h0c1.78,0,3.57,0,5.35,0h0c.14,0,.24-.08.24-.17v0a.91.91,0,0,0,.16.11,1.24,1.24,0,0,0,.2.1,1.12,1.12,0,0,0,.24.08.58.58,0,0,0,.32,0l.1-.06a.32.32,0,0,0,.08.09l.08.05.13,0h.11a.39.39,0,0,0,.15,0,.28.28,0,0,0,.16-.13l0,0,.11,0,.1,0h.11a.34.34,0,0,0,.22-.09.19.19,0,0,0,.09-.12s0,0,0,0l.05,0a.42.42,0,0,0,.18,0c.1,0,.1-.08.11-.11s0-.06,0-.09a.51.51,0,0,0,0-.13.35.35,0,0,0,.18,0,.3.3,0,0,0,.18-.1.23.23,0,0,0,0-.3.84.84,0,0,0-.24-.22c-.36-.25-.83-.4-1.14-.62s-.27-.21-.26-.34a3,3,0,0,1,.09-.47c.08-.32.19-.64.3-1s.2-.66.28-1a4.93,4.93,0,0,0,.16-1,3,3,0,0,0-.13-1,3,3,0,0,0-.37-.8l.1-.1a2.55,2.55,0,0,0,.18-.28c.1-.18.2-.35.29-.53a1,1,0,0,0,.12-.6,1.11,1.11,0,0,0-.3-.46,1.07,1.07,0,0,0,.29-.81,3.38,3.38,0,0,0-.16-.84q-.13-.4-.24-.81c-.13-.51-.29-1-.45-1.52.35,0,.7-.09,1-.16a3.19,3.19,0,0,0,1.11-.39.73.73,0,0,0,.19-.2l0-.1a.52.52,0,0,0,0-.11c0-.14,0-.28.05-.42A1.41,1.41,0,0,0,29,12.23Z"/><polygon class="cls-5" points="24.09 26.13 24.16 27.27 24.51 27.23 24.09 26.13"/><rect class="cls-5" x="0.63" y="1.01" width="0.39" height="2.37"/><path class="cls-5" d="M1.57,2.12c0-.2,0-.3,0-.44h.34l0,.21h0a.69.69,0,0,1,.56-.24A.54.54,0,0,1,3,1.91H3a.72.72,0,0,1,.24-.19,1,1,0,0,1,.35-.07.54.54,0,0,1,.59.6V3.38H3.8V2.32c0-.22,0-.44-.35-.44a.39.39,0,0,0-.36.25.81.81,0,0,0,0,.16V3.38H2.69V2.27c0-.19,0-.39-.35-.39A.38.38,0,0,0,2,2.16.61.61,0,0,0,2,2.3V3.38H1.57Z"/><path class="cls-5" d="M4.69,3.38h0V1.68h.4v1.7Zm.43-2.14c0,.11-.1.18-.24.18s-.23-.07-.23-.18.1-.17.23-.17S5.12,1.14,5.12,1.24Z"/><path class="cls-5" d="M6.06,1.23v.45h.48v.21H6.06v1c0,.22.12.28.26.28h.16l0,.2a1.07,1.07,0,0,1-.29,0,.67.67,0,0,1-.39-.1c-.1-.08-.15-.19-.15-.43v-1h-.3V1.68h.3V1.31Z"/><path class="cls-5" d="M7.76,2.5h0c-.21,0-.68,0-.68.4a.28.28,0,0,0,.3.3.37.37,0,0,0,.37-.26.31.31,0,0,0,0-.09Zm0,.88,0-.18h0a.61.61,0,0,1-.49.21.53.53,0,0,1-.59-.49c0-.42.5-.61,1.06-.61V2.25c0-.22-.08-.38-.4-.38A.91.91,0,0,0,6.94,2l-.08-.19a1.28,1.28,0,0,1,.57-.12c.5,0,.72.23.72.61V3a2.42,2.42,0,0,0,0,.39Z"/><path class="cls-5" d="M9.88,1.23v.45h.48v.21H9.88v1c0,.22.12.28.26.28h.16l0,.2a1.21,1.21,0,0,1-.3,0,.63.63,0,0,1-.38-.1c-.1-.08-.15-.19-.15-.43v-1H9.18V1.68h.31V1.31Z"/><path class="cls-5" d="M11.58,2.5h0c-.21,0-.69,0-.69.4a.29.29,0,0,0,.31.3.35.35,0,0,0,.36-.26.16.16,0,0,0,0-.09Zm.05.88,0-.18h0a.62.62,0,0,1-.49.21.53.53,0,0,1-.59-.49c0-.42.5-.61,1.05-.61V2.25c0-.22-.08-.38-.39-.38a.91.91,0,0,0-.41.09l-.09-.19a1.36,1.36,0,0,1,.58-.12c.5,0,.71.23.71.61V3a1.63,1.63,0,0,0,0,.39Z"/><path class="cls-5" d="M12.46,2.12c0-.14,0-.31,0-.44h.35l0,.27h0a.61.61,0,0,1,.53-.3h.08v.27h-.08a.47.47,0,0,0-.48.35.78.78,0,0,0,0,.16v.94h-.39Z"/><path class="cls-5" d="M14.66,2.36h0c0-.34-.17-.5-.36-.5s-.39.26-.41.5Zm-.77.2c0,.52.3.63.59.63a1.16,1.16,0,0,0,.41-.07l.06.2a1.77,1.77,0,0,1-.55.08.8.8,0,0,1-.9-.85.82.82,0,0,1,.84-.9.68.68,0,0,1,.7.75v.16Z"/><path class="cls-5" d="M16.34,2.5h0c-.21,0-.68,0-.68.4a.28.28,0,0,0,.3.3.37.37,0,0,0,.37-.26.31.31,0,0,0,0-.09Zm.06.88,0-.18h0a.61.61,0,0,1-.49.21.53.53,0,0,1-.59-.49c0-.42.5-.61,1.06-.61V2.25c0-.22-.08-.38-.4-.38a.91.91,0,0,0-.41.09l-.08-.19A1.29,1.29,0,0,1,16,1.65c.49,0,.71.23.71.61V3a2.42,2.42,0,0,0,0,.39Z"/><path class="cls-5" d="M17.16,3.1a1,1,0,0,0,.4.09c.23,0,.36-.1.36-.25s-.06-.22-.31-.33-.5-.29-.5-.49.3-.47.68-.47a1.22,1.22,0,0,1,.45.09L18.13,2a.67.67,0,0,0-.33-.08c-.21,0-.32.11-.32.22s.06.17.31.29.51.28.51.52-.34.5-.74.5a1.17,1.17,0,0,1-.5-.1Z"/><path class="cls-5" d="M.54,6.26a1,1,0,0,0,.4.08c.22,0,.36-.09.36-.24S1.23,5.88,1,5.77.49,5.48.49,5.28s.29-.47.68-.47a1.16,1.16,0,0,1,.44.09l-.11.2A.79.79,0,0,0,1.18,5c-.22,0-.33.1-.33.21s.07.18.31.3.51.28.51.51-.33.51-.74.51a1.15,1.15,0,0,1-.49-.1Z"/><path class="cls-5" d="M2,6.54H2V4.84h.39v1.7ZM2.46,4.4c0,.11-.1.18-.25.18A.2.2,0,0,1,2,4.4c0-.1.1-.17.23-.17S2.46,4.3,2.46,4.4Z"/><path class="cls-5" d="M2.92,5.28c0-.2,0-.3,0-.44h.34l0,.21h0a.69.69,0,0,1,.56-.24.54.54,0,0,1,.52.26h0a.67.67,0,0,1,.25-.19A.71.71,0,0,1,5,4.81a.54.54,0,0,1,.59.6V6.54H5.15V5.47c0-.22,0-.43-.35-.43a.38.38,0,0,0-.36.25.81.81,0,0,0,0,.16V6.54H4V5.42C4,5.24,4,5,3.69,5a.36.36,0,0,0-.36.27.77.77,0,0,0,0,.15V6.54H2.92Z"/><path class="cls-5" d="M6.43,5.91h0a.3.3,0,0,0,0,.14.35.35,0,0,0,.36.29c.33,0,.43-.31.43-.65S7.12,5,6.81,5a.41.41,0,0,0-.37.31.57.57,0,0,0,0,.13ZM6,5.37C6,5.11,6,5,6,4.84h.35l0,.22h0a.6.6,0,0,1,.52-.25c.43,0,.72.32.72.88a.77.77,0,0,1-.77.88.52.52,0,0,1-.43-.2h0v.84H6Z"/><rect class="cls-5" x="8.03" y="4.11" width="0.39" height="2.43"/><path class="cls-5" d="M10,5.51h0C10,5.17,9.83,5,9.64,5s-.38.26-.4.49Zm-.78.2c0,.52.31.63.59.63a1.11,1.11,0,0,0,.41-.06l.07.2a1.77,1.77,0,0,1-.55.08.8.8,0,0,1-.9-.85.82.82,0,0,1,.84-.9.68.68,0,0,1,.7.75v.15Z"/><path class="cls-5" d="M10.7,6.26a1,1,0,0,0,.4.08c.22,0,.36-.09.36-.24s-.06-.22-.32-.33-.49-.29-.49-.49.29-.47.68-.47a1.16,1.16,0,0,1,.44.09l-.1.2A.84.84,0,0,0,11.34,5c-.22,0-.32.1-.32.21s.06.18.3.3.52.28.52.51-.34.51-.75.51a1.15,1.15,0,0,1-.49-.1Z"/><path class="cls-5" d="M14.05,5.48h0a.45.45,0,0,0,0-.11A.39.39,0,0,0,13.67,5c-.33,0-.44.32-.44.66s.13.64.42.64A.38.38,0,0,0,14,6.05a.36.36,0,0,0,0-.11Zm.38-1.37v2c0,.12,0,.31,0,.41h-.33l0-.22h0a.61.61,0,0,1-.52.25c-.42,0-.72-.32-.72-.87s.36-.89.74-.89A.55.55,0,0,1,14,5h0v-.9Z"/><path class="cls-5" d="M16,5.51h0c0-.34-.18-.49-.37-.49s-.39.26-.4.49Zm-.78.2c0,.52.3.63.59.63a1.15,1.15,0,0,0,.41-.06l.06.2a1.75,1.75,0,0,1-.54.08.79.79,0,0,1-.9-.85.81.81,0,0,1,.83-.9.68.68,0,0,1,.71.75.62.62,0,0,1,0,.15Z"/><rect class="cls-5" x="0.6" y="7.27" width="0.39" height="2.43"/><path class="cls-5" d="M2.45,8.82h0c-.2,0-.68,0-.68.39a.28.28,0,0,0,.3.3.36.36,0,0,0,.37-.25.38.38,0,0,0,0-.1Zm.06.87,0-.17h0a.64.64,0,0,1-.5.2.52.52,0,0,1-.58-.48c0-.43.49-.62,1.05-.62v0c0-.23-.08-.39-.39-.39a1,1,0,0,0-.41.09l-.09-.19A1.48,1.48,0,0,1,2.13,8c.49,0,.71.22.71.61v.73a1.5,1.5,0,0,0,0,.38Z"/><path class="cls-5" d="M5.3,9.65a1,1,0,0,1-.41.07A.81.81,0,0,1,4,8.86.88.88,0,0,1,5,8a1.38,1.38,0,0,1,.35,0l-.08.22A1.21,1.21,0,0,0,5,8.2a.59.59,0,0,0-.57.66A.56.56,0,0,0,5,9.49a1.27,1.27,0,0,0,.29,0Z"/><path class="cls-5" d="M6.52,8.82h0c-.2,0-.68,0-.68.39a.29.29,0,0,0,.3.3.35.35,0,0,0,.37-.25.38.38,0,0,0,0-.1Zm.06.87,0-.17h0a.62.62,0,0,1-.49.2c-.34,0-.59-.19-.59-.48s.5-.62,1-.62v0c0-.23-.08-.39-.39-.39a1.07,1.07,0,0,0-.41.09l-.09-.19A1.56,1.56,0,0,1,6.2,8c.5,0,.71.22.71.61v.73a1.5,1.5,0,0,0,0,.38Z"/><path class="cls-5" d="M7.35,9.41a1,1,0,0,0,.4.09c.22,0,.36-.09.36-.24S8,9,7.79,8.92s-.49-.28-.49-.48S7.59,8,8,8a1,1,0,0,1,.44.09l-.11.2A.79.79,0,0,0,8,8.19c-.22,0-.33.1-.33.21s.07.18.31.29.51.29.51.52-.33.51-.74.51a1.15,1.15,0,0,1-.49-.1Z"/><path class="cls-5" d="M9.76,8.82h0c-.2,0-.68,0-.68.39a.29.29,0,0,0,.3.3.35.35,0,0,0,.37-.25.38.38,0,0,0,0-.1Zm.06.87,0-.17h0a.62.62,0,0,1-.49.2c-.34,0-.59-.19-.59-.48s.49-.62,1.05-.62v0c0-.23-.08-.39-.39-.39A1,1,0,0,0,9,8.27l-.09-.19A1.48,1.48,0,0,1,9.44,8c.5,0,.71.22.71.61v.73a1.5,1.5,0,0,0,0,.38Z"/><path class="cls-5" d="M18.35,12.81a7.44,7.44,0,0,1,.78.14,8.67,8.67,0,0,1,1,.55l-.59.51-1.09,2.06,0,.57s-.69-.47-.6-.75a.42.42,0,0,1,.33-.29,3.26,3.26,0,0,0,.29-1.44,8.18,8.18,0,0,0-.25-1.25Z"/></svg>