<svg id="Capa_1" data-name="Capa 1" xmlns="http://www.w3.org/2000/svg" viewBox="0 0 30.1 27.45"><defs><style>.cls-1{fill:#b3d335;}.cls-2{fill:#f5a4c7;}.cls-3{fill:#fbcabb;}.cls-4{fill:#231f20;}.cls-5{fill:#6d6f71;}</style></defs><title>7-18meses</title><path class="cls-1" d="M19.76,20.15s-1.07-.2-.88-.42,1.32-.39,1.36-.43a27.88,27.88,0,0,1,5.42-.08c2,.27,2,.45,2,.45l-.27.28.23,0a1.39,1.39,0,0,1,.81.13c.38.24.62.38.56.64a2.91,2.91,0,0,1-1.37,1.17c-.52.16-.63-.06-.44-.16s1-.68,1-1,.09-.52-.13-.67-1.29.26-1.33.63a8.2,8.2,0,0,0,.1,1.28c0,.06-.43,1-.43,1a8.42,8.42,0,0,1-3.53.53c-2.29-.07-3.09-.69-3.07-1.22s0-2.13,0-2.13"/><path class="cls-2" d="M3.49,20.64c-.08,0-3,1.66-3,1.66s-.23,3,.48,3.54a3.8,3.8,0,0,0,2.72.78,24.47,24.47,0,0,0,3.71-1.11c.08-.08.92-2.3.66-2.59s-4.54-2.28-4.54-2.28"/><path class="cls-3" d="M.86,22.22a8,8,0,0,1,.9-2.09c.5-.65,2.13-2.66,2.73-3.3s.73-.59.81-.94-.44-1.13-.45-1.37a9.52,9.52,0,0,1,1.6-2.15c.25-.17,3.78-1.68,4.64-1.44a1.23,1.23,0,0,1,1,1.17,11.27,11.27,0,0,1-.72,1.73.65.65,0,0,0,.17.52c.12.1.36.3.28.38a4.28,4.28,0,0,1-.61.33s.35.41.19.45-.88.07-.88.07.73.13.72.28-.43.32-.43.32.16.19.1.25a10.67,10.67,0,0,1-1.16.25h-1a.73.73,0,0,0,.14.47,6.92,6.92,0,0,0,2.53,1.14c.92.18,2.39.31,2.83.34a10.67,10.67,0,0,1,1.56,0c.19.08.41.08.24.16a10.18,10.18,0,0,0-1.68.32c-.14.18-.37.41-.13.6s.24.3,0,.43a.72.72,0,0,1-.79,0c-.34-.19-1.09-.72-1.09-.72l-1.8.05h-.05L9.47,19,9,19.09l-.37,1.29s1,.29,1.13-.08.81-1,1.1-.74.44.2.48.42a5.2,5.2,0,0,1,.17.84.49.49,0,0,1-.2.4l-2.07.87s2.06-.08,2.21,0,1,.2,1,.4.19.33.31.3a11.05,11.05,0,0,0,1.61-.13.88.88,0,0,1,.68,0c.07.07-.09.23-.05.34s.21.19.06.3a1.36,1.36,0,0,0-.21.18,5.08,5.08,0,0,1,1.14.29c.23.15,0,.57.09.81s0,.36-.21.5a1.53,1.53,0,0,1-1.08.18,10.46,10.46,0,0,0-1-.23,15.61,15.61,0,0,1-2.46,1.17c-.51.08-2.67.41-3.31.47a14.9,14.9,0,0,1-3.89-.09c-1.31-.28-2.27-1.13-1.81-1.91a2.92,2.92,0,0,1,2.94-1.59L8,23.51l.46.08-.49-.15a.28.28,0,0,0,.15-.28c0-.2.09-.33-.34-.38S4,22.27,3.1,22.25Z"/><path class="cls-4" d="M10.42,14.29a.64.64,0,0,0,.34-.33s.17,0,.15.08.25-.3-.31-.17a1.06,1.06,0,0,0-.73.48l.35-.17s-.05.21.2.11"/><path class="cls-4" d="M15.49,25.11h0a1.24,1.24,0,0,1-.27,0l-.28,0-1.14-.22a.31.31,0,0,0-.21,0h0c-.3.19-.62.38-.94.56a8.34,8.34,0,0,1-1,.5l-.54.18c-.17,0-.38.08-.59.12-.42.07-.83.16-1.25.21a10.69,10.69,0,0,1-1.27.1l-.64,0-.63,0c-.41,0-.83,0-1.25.05-.21,0-.42,0-.63,0H4.55a.18.18,0,0,0-.14-.11h0a5.73,5.73,0,0,1-1.12-.41,3.29,3.29,0,0,1-.46-.28,1.34,1.34,0,0,1-.31-.33,1.42,1.42,0,0,1-.08-.18c0-.07,0-.13,0-.19l0-.09s0,0,0,0l0-.06c0-.07.06-.15.09-.21a2.41,2.41,0,0,1,.26-.39A3,3,0,0,1,3.19,24a2.83,2.83,0,0,1,.44-.3,3,3,0,0,1,.52-.23,3.75,3.75,0,0,1,.6-.14,4.23,4.23,0,0,1,.63-.05c.21,0,.42,0,.64,0l.67.06h.08l1.08.3.7.2a6.48,6.48,0,0,1,.63.23l.89.53h0a.18.18,0,0,0,.19,0,.08.08,0,0,0,0-.13h0c-.23-.18-.45-.37-.7-.55a4.71,4.71,0,0,1,.75,0c.33,0,.63.06,1,.1a4.21,4.21,0,0,0,1.07,0,2.26,2.26,0,0,0,.54-.15l.23-.1.1-.06h0l0,0s.05,0,.06,0l.07,0h.2l.45,0,1,.09h.52a.67.67,0,0,1,.33.07c.08.06.11.13,0,.18s-.33.09-.37.15a0,0,0,0,0,0,0H15.5s0,0,0,0h.23a1.57,1.57,0,0,0,.27,0h0a.16.16,0,0,1,0,.08s-.07,0-.14.07a1.66,1.66,0,0,0-.24.11l-.14.08.17.05a.55.55,0,0,0,.18,0l.15,0-.14.09h-.08l-.11.05a.32.32,0,0,0-.09.09.71.71,0,0,0,.15.05h.17s0,0,0,0H16l-.06,0,0,0-.09,0-.16.07a.81.81,0,0,0-.14.09.8.8,0,0,0,.19,0h.13a.93.93,0,0,1-.33,0M1.33,26h0a1.48,1.48,0,0,1-.55-.59,2.26,2.26,0,0,1-.19-.72c0-.24-.06-.49-.07-.74a10.42,10.42,0,0,1,0-1.48c0-.17.39-.2.72-.2s.7,0,1.06,0l2.14.19,2.15.23,1.06.12c.37,0,.37.3.34.52-.2,0-.42,0-.63-.07l-.66-.1-.66-.1A4.87,4.87,0,0,0,5.39,23H5a1.45,1.45,0,0,0-.36,0,4,4,0,0,0-.69.13,4.32,4.32,0,0,0-.63.24,3.52,3.52,0,0,0-.54.33,3.33,3.33,0,0,0-.43.4,2.26,2.26,0,0,0-.31.45c0,.08-.08.15-.12.22l0,.06a.11.11,0,0,0,0,.07l0,.14a.82.82,0,0,0,0,.27,1.53,1.53,0,0,0,.11.27,1.56,1.56,0,0,0,.42.43,3.44,3.44,0,0,0,.56.33l.06,0c-.28,0-.56,0-.81-.09A2.41,2.41,0,0,1,1.33,26Zm.19-5.17h0c.26-.45.53-.9.83-1.34A11.48,11.48,0,0,1,4.5,17l.7-.53a1,1,0,0,0,.49-.77.88.88,0,0,0-.1-.35l-.14-.52a.51.51,0,0,1,.25-.52.64.64,0,0,0,0,.24,1.32,1.32,0,0,0,.36.52,1.24,1.24,0,0,0,.26.19,1.48,1.48,0,0,0,.29.12,1.13,1.13,0,0,0,.49.05l.18,0v0H7.14a.94.94,0,0,1-.4-.1,1.09,1.09,0,0,1-.6-.76.51.51,0,0,1,0-.22l0,0,0,0h0c.47,0,.56.1,1.06.44l-.13-.38h0v0l.41.28a1.29,1.29,0,0,1-.39-.82,1.07,1.07,0,0,0,.26-.61s0-.2,0,.29l-.11.6.55-.63-.11.54.52-.54.79-1,0,.78.62-1-.19,1.1.43-.64.85-1.05-.22.93.47-.72L10.94,13a3.06,3.06,0,0,0-1.46.83s1.11-.9,1.95-.62c0,0-.09-.26-.48-.21l.76-1.21a2,2,0,0,1,.16.45,1,1,0,0,1-.07.69c-.12.22-.27.44-.4.67a2,2,0,0,0-.17.36c0,.14.08.29.2.37a1.17,1.17,0,0,1,.3.28c.08.09,0,.17-.17.24l-.22.09-.12.06a.1.1,0,0,0-.05.14.57.57,0,0,0,.12.18c.05,0,.09.12.07.11a.94.94,0,0,1-.41.08h-.52a.11.11,0,0,0-.09,0s0,.07.05.08a3.36,3.36,0,0,1,.61.19l.05,0v0s0,.07,0,.09-.1.08-.21.11a.17.17,0,0,0-.11.08.12.12,0,0,0,0,.11l.07.09s0,.07-.13.1a1.5,1.5,0,0,1-.32.07l-.32,0a12.53,12.53,0,0,1-1.37,0l-.35,0-.34,0H7.86a.35.35,0,0,0-.14.06.34.34,0,0,0-.12.16.66.66,0,0,0,0,.28h0a.17.17,0,0,0,.19.09c.09,0,.14-.07.13-.13h0a.43.43,0,0,1,0-.19.16.16,0,0,1,0-.06H8l.35,0h.33s0,.05,0,.08a1.61,1.61,0,0,0,0,.42c0,.09,0,.18,0,.28a1.05,1.05,0,0,0,.11.31.81.81,0,0,1,.08.34.86.86,0,0,1,0,.35,2.09,2.09,0,0,0-.08.34l-.06.33c0,.21,0,.41-.05.58v.54H8.44a1,1,0,0,0,0-.29,2.74,2.74,0,0,0-.21-.42,6.31,6.31,0,0,0-.47-.76c-.15-.2-.27-.33-.27-.33s0,0,0,0,0,0,0,0l.14.36c.07.22.17.5.25.79s0,.29.08.43a1.61,1.61,0,0,0,.16.35,2.09,2.09,0,0,0,.25.35h.05a.7.7,0,0,0,0-.11.67.67,0,0,0,.07-.28v0a5.45,5.45,0,0,0,.84.14,1.37,1.37,0,0,0,.28,0l.16-.05a.38.38,0,0,0,.11-.08,1.43,1.43,0,0,0,.22-.33.24.24,0,0,1,.09-.11.3.3,0,0,1,.14-.08l.22-.12.17-.13s0,0,0,0a.34.34,0,0,1,.05.23h0a.13.13,0,0,0,0,.06A.28.28,0,0,0,11,20l.15,0h0v.21a.57.57,0,0,0,.17.36c.05,0,.06,0,.07.08a.51.51,0,0,1,0,.11.2.2,0,0,0,0,.22.06.06,0,0,1,0,.08,1.05,1.05,0,0,1-.27.21,4.84,4.84,0,0,1-.72.36,12.5,12.5,0,0,1-1.64.51c-.28.07-.57.14-.85.19a2.1,2.1,0,0,1-.38.06H7.38l-.18,0A2.14,2.14,0,0,1,6,21.53a5.79,5.79,0,0,1-.63-1.12c-.21-.39-.42-.78-.6-1.17a1.51,1.51,0,0,1-.15-1.19s0,0,0,0h0a1.41,1.41,0,0,0-.14,1.26,9.74,9.74,0,0,0,.46,1.21l.25.6A2.62,2.62,0,0,0,7,22.58l-.34-.06q-1.05-.18-2.13-.3C3.82,22.13,3.1,22,2.37,22a10.44,10.44,0,0,0-1.12,0L.94,22A9.45,9.45,0,0,1,1.52,20.83Zm8-3.16h0a4.57,4.57,0,0,0,1.06.45,14,14,0,0,0,2.3.52,6,6,0,0,0,.61.06,1.82,1.82,0,0,0,.33,0l.29,0a9.49,9.49,0,0,1,1.19,0,3.32,3.32,0,0,1,.57.06l.17.05,0,0-.12,0a8.77,8.77,0,0,1-1.16.11h0a2,2,0,0,0-.54.22.58.58,0,0,0-.22.22.3.3,0,0,0,.06.3,1.37,1.37,0,0,0,.16.18l.12.12a.17.17,0,0,1,0,.07l0,0a.61.61,0,0,1-.28-.1l-.12-.06-.13-.06-.26-.1a1.19,1.19,0,0,1-.67-.42h0a.29.29,0,0,0-.29-.11,10.84,10.84,0,0,1-1.51.09.39.39,0,0,0-.21,0l-.11,0a2.44,2.44,0,0,1-.39-.06L10,19.16l-.1-.05-.1-.05A1,1,0,0,0,9.3,19a.58.58,0,0,0-.14,0,.38.38,0,0,0,0-.1,1.64,1.64,0,0,0-.09-.35A2.21,2.21,0,0,1,9,18.19a1,1,0,0,1,0-.34,1.2,1.2,0,0,0,.06-.32.91.91,0,0,0,0-.17A2.68,2.68,0,0,0,9.48,17.67ZM9,19.85H9a1.24,1.24,0,0,0,.1-.29,1.65,1.65,0,0,0,0-.32s0-.11,0-.16l.15,0a.67.67,0,0,1,.35.13l.09,0,.08.06a1.07,1.07,0,0,0,.22.1l.22.07-.08.07a.66.66,0,0,1-.15.09,1.23,1.23,0,0,0-.22.15A.44.44,0,0,0,9.7,20c0,.12-.06.23-.12.29s0,0-.05,0l-.06,0-.2,0a5.71,5.71,0,0,1-.58,0,.38.38,0,0,0,.09-.09A1.38,1.38,0,0,0,9,19.85ZM10,22.22h1a3.93,3.93,0,0,1,1,0l.21.07.17.11.09.14v.16a.11.11,0,0,0,.08.07h0a3.47,3.47,0,0,0,.79.17,3.56,3.56,0,0,0,.86,0,.8.8,0,0,0,.21-.05l.18-.05.27,0h0a.31.31,0,0,1-.07.12l0,0c-.05.05,0,.11,0,.15a.83.83,0,0,1,.15.11c.05,0,.07.08.08.06h0l-.05,0a.45.45,0,0,0-.1.09,0,0,0,0,1,0,0l-.69-.11a3.2,3.2,0,0,0-.54,0,1.56,1.56,0,0,0-.3,0,.85.85,0,0,0-.32.09l-.06,0h0l0,0,0,0-.08.05-.18.09a1.23,1.23,0,0,1-.37.12,3.87,3.87,0,0,1-.91,0,8.51,8.51,0,0,0-1,0,6.73,6.73,0,0,0-.89.1,3.66,3.66,0,0,0-.7-.25L8,23.41h0s0,0,0,0h0A.63.63,0,0,0,8.13,23a.29.29,0,0,0-.12-.2.64.64,0,0,0-.27-.1l-.43-.08h.26a2.94,2.94,0,0,0,.5-.1c.29-.07.56-.17.84-.26l.17-.07Q9.53,22.24,10,22.22Zm4.87.54h0S14.81,22.75,14.82,22.76Zm1.39,1.84a.28.28,0,0,0,0-.1.17.17,0,0,0-.06-.09.32.32,0,0,0,.1-.1.17.17,0,0,0,0-.17.33.33,0,0,0-.13-.07.23.23,0,0,0,.13-.16.25.25,0,0,0-.1-.22.9.9,0,0,0-.54-.2l-.24,0-.22,0-.11,0,.06,0,0,0a.21.21,0,0,0,.1-.06.15.15,0,0,0,0-.15.37.37,0,0,0-.05-.11l0-.07a.37.37,0,0,0,.14-.26.28.28,0,0,0-.18-.24.83.83,0,0,0-.32-.08,1.81,1.81,0,0,0-.49.07l-.18.05-.15,0a2.9,2.9,0,0,1-.68.07c-.21,0-.45,0-.67,0l0-.12-.16-.16-.21-.12L12,22.13l-.25-.08a2.27,2.27,0,0,0-.25-.06l-.26,0-.26,0a5.22,5.22,0,0,0-1,0,.76.76,0,0,1-.16,0l.77-.29c.27-.11.5-.24.76-.36a1.56,1.56,0,0,0,.35-.24.17.17,0,0,0,.06-.1.3.3,0,0,0,0-.12s0,0,0-.08a.51.51,0,0,0,.08-.18.14.14,0,0,0,0-.12.11.11,0,0,0,0,0l0,0a.31.31,0,0,1-.05-.23v-.23a.24.24,0,0,0-.05-.16.53.53,0,0,0-.39-.13h0s0,0,0-.05h.34c.27,0,.52,0,.78,0a1.2,1.2,0,0,0,.29.26,2.42,2.42,0,0,0,.52.24l.23.09.1,0,.11.06.31.12a1.06,1.06,0,0,0,.44,0,.48.48,0,0,0,.36-.23l0,0v0l0-.07a.3.3,0,0,0,0-.18,1.08,1.08,0,0,0-.2-.19,1,1,0,0,1-.14-.15s0,0,0-.06a.35.35,0,0,1,.09-.1,1.77,1.77,0,0,1,.39-.19A11.39,11.39,0,0,0,15.92,19l.15-.05.08,0,0,0a.11.11,0,0,0,0-.08.5.5,0,0,0-.31-.13l-.61-.06-1.21,0h-.3l-.27,0-.56-.11c-.74-.17-1.5-.33-2.24-.52a5.41,5.41,0,0,1-1-.34A3.59,3.59,0,0,1,9,17.13a1.91,1.91,0,0,0-.19-.36c.42,0,.85,0,1.28-.05a3.34,3.34,0,0,0,.7-.14.7.7,0,0,0,.17-.09s.09-.12.06-.17a.74.74,0,0,0-.09-.12h0c.1,0,.26-.07.31-.19a.22.22,0,0,0,0-.14s0-.08-.05-.09a.14.14,0,0,0-.08,0l-.23-.09H11l.27,0a.52.52,0,0,0,.29-.11.11.11,0,0,0,0-.14l-.06-.09a.72.72,0,0,1-.11-.15s0,0,0,0l.1,0,.22-.11a.49.49,0,0,0,.21-.14.17.17,0,0,0,0-.22,1.6,1.6,0,0,0-.33-.31c-.11-.09-.18-.18-.15-.28a2.06,2.06,0,0,1,.16-.34c.14-.22.28-.44.41-.67a1.24,1.24,0,0,0,.13-.62l.21.6a2.31,2.31,0,0,0-1.5-2.5l-.2-.09-.1-.06a2.08,2.08,0,0,0-.32-.12,7.8,7.8,0,0,0-4-.45C5,9.88,2.42,11.07,2.53,13.1s2,1.8,2.59,2.43a.56.56,0,0,1,.06.21.69.69,0,0,1-.35.53c-.23.17-.48.37-.7.57a10.36,10.36,0,0,0-2.08,2.57c-.26.45-.51.91-.72,1.37a7.75,7.75,0,0,0-.46,1.27l-.2,0a.84.84,0,0,0-.29.13.3.3,0,0,0-.12.24,6.3,6.3,0,0,0,0,.75l0,.75a6,6,0,0,0,.22,1.49,1.55,1.55,0,0,0,.55.69,2.54,2.54,0,0,0,1,.41c.38.08.73.11,1.09.16s.71.09,1.11.11a.29.29,0,0,0,.23-.09,8.23,8.23,0,0,0,2.22.16A9.12,9.12,0,0,0,8,26.74c.41-.07.83-.15,1.25-.2s.85-.09,1.27-.12c.2,0,.42,0,.66-.05a4.29,4.29,0,0,0,.64-.17,7.29,7.29,0,0,0,2-1c.35,0,.69.07,1,.09l.3,0a1.22,1.22,0,0,0,.33,0,1,1,0,0,0,.5-.2l.11,0c.19-.1.19-.23.17-.31A.3.3,0,0,0,16.21,24.6Z"/><polygon class="cls-4" points="12.33 13.04 12.3 12.95 12.3 12.96 12.33 13.04"/><path class="cls-4" d="M26,19.46a4.52,4.52,0,0,0-.92-.13l-.81,0c-1,0-1.67,0-1.67,0s.67,0,1.66.08l.8.06a4.46,4.46,0,0,1,.84.14l.06,0h0a.39.39,0,0,1-.13.06,2.48,2.48,0,0,1-.44.08c-.31,0-.64.06-1,.07-.66,0-1.33.05-1.95.05s-1.21,0-1.71,0a1.67,1.67,0,0,1-.61-.09s.05-.08.12-.1a.9.9,0,0,1,.21-.08l.42-.12a4.15,4.15,0,0,0-.44.09l-.23.06-.12.06s-.09.08,0,.13a1.62,1.62,0,0,0,.68.15,30.91,30.91,0,0,0,3.68.06c.34,0,.68-.05,1-.09a2.84,2.84,0,0,0,.49-.1.45.45,0,0,0,.24-.15.13.13,0,0,0,0-.08.18.18,0,0,0-.05-.07L26,19.46"/><path class="cls-4" d="M28.66,21.05h0a2.17,2.17,0,0,1-.53.4,5.59,5.59,0,0,1-.61.26,2.25,2.25,0,0,0,.21-.12l.31-.22a1.64,1.64,0,0,0,.26-.27.49.49,0,0,0,.1-.15.46.46,0,0,0,.07-.16,1,1,0,0,0,0-.17l0-.17a1.29,1.29,0,0,0-.09-.16c0-.05-.08-.09-.13-.13l-.11-.08.24.13c.18.11.37.22.42.37a.43.43,0,0,1-.14.47m-3.58-1h0c-.56.06-1.12.12-1.7.16a14,14,0,0,1-1.71.05A8.47,8.47,0,0,1,20,20.07a5.82,5.82,0,0,1-.72-.18,1,1,0,0,1-.27-.12h0a2,2,0,0,1,.53-.19l.62-.13c.41-.08.8-.15,1.14-.19s.65-.08.9-.09.45,0,.58,0h.42l.58,0c.51,0,1.23.11,2.07.22.42.06.89.11,1.31.21l.09,0a5.1,5.1,0,0,1-.6.16C26.18,19.9,25.63,20,25.08,20Zm-6-.29Zm8.34,1.57h0l-.3.16c0-.34-.08-.63-.11-.86a4.4,4.4,0,0,1,.39-.35,1,1,0,0,1,.53-.25h0c.06.07.14.13.16.21s.06.08.06.12l0,.13,0,.12-.05.11-.08.12-.11.1a1.29,1.29,0,0,1-.25.2A2,2,0,0,1,27.37,21.32Zm-.45-.9h0l-.06-.28.3-.06-.07.07A2,2,0,0,0,26.92,20.42ZM28.69,20a1.62,1.62,0,0,0-.35-.2,1.2,1.2,0,0,0-.44-.07.19.19,0,0,0,0-.13.3.3,0,0,0-.11-.15,1.12,1.12,0,0,0-.44-.17,8.79,8.79,0,0,0-1.44-.16c-.88,0-1.6,0-2.11,0H22.23c-.26,0-.57,0-.92,0s-.77,0-1.2.07a6.15,6.15,0,0,0-.69.11,2,2,0,0,0-.72.29.22.22,0,0,0-.1.23.31.31,0,0,0,.17.2,1.74,1.74,0,0,0,.4.14,5.66,5.66,0,0,0,.81.12c.55.06,1.11.09,1.68.11l1.74,0a19.94,19.94,0,0,0,3.4-.25l-.06.4c0,.28-.08.68-.1,1.15h0a.18.18,0,0,0,0,.09V22l0,.45,0,.1s0,0,0,.05a.58.58,0,0,1-.11.13A2.45,2.45,0,0,1,26,23a5,5,0,0,1-1.18.29c-.44.07-.88.11-1.34.15a9,9,0,0,1-1.37,0,4.26,4.26,0,0,1-1.23-.29,2,2,0,0,1-.8-.53c0-.07-.05-.07-.05-.12v-.57a9.42,9.42,0,0,0-.19-1.59h-.06a9.42,9.42,0,0,0-.19,1.59v.57a.45.45,0,0,0,.12.26,2.12,2.12,0,0,0,1.07.56,8.2,8.2,0,0,0,1.33.22c.46,0,.93.08,1.39.09a7.75,7.75,0,0,0,2.77-.31,2.05,2.05,0,0,0,.59-.3.67.67,0,0,0,.21-.23.52.52,0,0,0,.06-.15V22.2a3.53,3.53,0,0,0,.56-.25,5.3,5.3,0,0,0,.61-.39,5.47,5.47,0,0,0,.51-.45.77.77,0,0,0,.29-.56A.81.81,0,0,0,28.69,20Z"/><path class="cls-4" d="M14.17,10.85h0a1.92,1.92,0,0,0,.74.77,7.91,7.91,0,0,0,1.16.62h0l.21.16.18.17a2.18,2.18,0,0,1,.26.36,1.07,1.07,0,0,1,.08.8,2.28,2.28,0,0,1-1.09,1.2,6.21,6.21,0,0,0,1.69-.84,1.48,1.48,0,0,0,.5-.64.89.89,0,0,0-.07-.69l-.11-.2.35,0a19.16,19.16,0,0,0,3,0,14.05,14.05,0,0,0,1.47-.2A8,8,0,0,0,24,12a1.41,1.41,0,0,0,.84-.75.85.85,0,0,0-.39-.9,3.42,3.42,0,0,0-1.19-.6,7.36,7.36,0,0,0-1.44-.31,17.11,17.11,0,0,0-3-.09c-.5,0-1,.06-1.51.12a13.66,13.66,0,0,0-1.47.23,4.51,4.51,0,0,0-1.24.45c-.33.2-.47.46-.35.74m0-1a4.79,4.79,0,0,1,1.46-.52c.51-.1,1-.17,1.56-.22s1-.08,1.57-.09a16.31,16.31,0,0,1,3.13.2,9.89,9.89,0,0,1,1.47.38,3.74,3.74,0,0,1,1.22.65,1,1,0,0,1,.45,1,1.55,1.55,0,0,1-.85.88,8.79,8.79,0,0,1-2.95.77,13.82,13.82,0,0,1-1.58.07q-.63,0-1.26-.06a1,1,0,0,1-.05.64,1.73,1.73,0,0,1-.65.7,4.1,4.1,0,0,1-1,.48,7.4,7.4,0,0,1-1.1.32l-.09,0,.06-.05a3.47,3.47,0,0,0,.65-.61,1.39,1.39,0,0,0,.33-.68.94.94,0,0,0-.16-.68,1.42,1.42,0,0,0-.25-.3,1.07,1.07,0,0,0-.16-.14l-.16-.11a7.77,7.77,0,0,1-1.26-.62,2.26,2.26,0,0,1-.92-.92.7.7,0,0,1,0-.6A1.26,1.26,0,0,1,14.13,9.84Z"/><path class="cls-5" d="M17,11h.07c.22,0,.32-.11.32-.25s-.08-.23-.28-.23H17Zm-.42-.68c.12,0,.28,0,.44,0a1.12,1.12,0,0,1,.6.12.38.38,0,0,1,.19.33.41.41,0,0,1-.19.36.93.93,0,0,1-.53.14H17v.56h-.42Z"/><rect class="cls-5" x="18.02" y="10.3" width="0.42" height="1.5"/><path class="cls-5" d="M19.79,11.78a1.16,1.16,0,0,1-.33,0,.73.73,0,0,1-.83-.75.79.79,0,0,1,.89-.78.77.77,0,0,1,.29,0l-.07.24a.77.77,0,0,0-.2,0c-.24,0-.45.15-.45.52s.19.5.45.5a.66.66,0,0,0,.21,0Z"/><polygon class="cls-5" points="20.37 10.3 20.37 10.9 20.81 10.9 20.81 10.3 21.24 10.3 21.24 11.8 20.81 11.8 20.81 11.17 20.37 11.17 20.37 11.8 19.95 11.8 19.95 10.3 20.37 10.3"/><rect class="cls-5" x="21.54" y="10.3" width="0.42" height="1.5"/><path class="cls-4" d="M17.37,2.62h0L17.19,2c-.05-.16-.09-.36-.14-.54h0c0,.18-.09.39-.13.54l-.18.6Zm-.71.22-.23.71h-.38l.79-2.36h.43L18,3.55h-.39l-.23-.71Z"/><path class="cls-4" d="M18.46,1.85l.31,1a3,3,0,0,1,.11.41h0a2.73,2.73,0,0,1,.1-.41l.31-1h.39l-.65,1.7H18.7l-.65-1.7Z"/><path class="cls-4" d="M20,3.55h0V1.85h.39v1.7Zm.42-2.14c0,.11-.09.18-.24.18S20,1.52,20,1.41s.1-.17.23-.17S20.41,1.31,20.41,1.41Z"/><path class="cls-4" d="M20.81,3.27a1,1,0,0,0,.4.09c.22,0,.36-.1.36-.25s-.06-.22-.31-.33-.5-.29-.5-.49.3-.47.68-.47a1.27,1.27,0,0,1,.45.09l-.11.21A.67.67,0,0,0,21.45,2c-.21,0-.32.11-.32.22s.06.18.3.29.52.28.52.52-.34.5-.75.5a1.15,1.15,0,0,1-.49-.1Z"/><path class="cls-4" d="M23.23,2.67h0c-.21,0-.69,0-.69.4a.29.29,0,0,0,.31.3.37.37,0,0,0,.37-.26.28.28,0,0,0,0-.09Zm.05.88,0-.18h0a.62.62,0,0,1-.49.21c-.33,0-.59-.19-.59-.48s.5-.62,1.06-.62V2.42c0-.22-.09-.38-.4-.38a.91.91,0,0,0-.41.09l-.09-.19a1.36,1.36,0,0,1,.58-.12c.5,0,.71.23.71.61v.74a1.58,1.58,0,0,0,0,.38Z"/><path class="cls-4" d="M24.8,3.27a1,1,0,0,0,.4.09c.23,0,.36-.1.36-.25s-.06-.22-.31-.33-.5-.29-.5-.49.3-.47.68-.47a1.22,1.22,0,0,1,.45.09l-.11.21A.67.67,0,0,0,25.44,2c-.21,0-.32.11-.32.22s.06.18.31.29.51.28.51.52-.34.5-.74.5a1.17,1.17,0,0,1-.5-.1Z"/><path class="cls-4" d="M27.78,3.09c0,.19,0,.33,0,.46h-.34l0-.18h0a.73.73,0,0,1-.53.21c-.44,0-.61-.23-.61-.65V1.85h.4v1c0,.27.06.46.33.46a.35.35,0,0,0,.35-.22.41.41,0,0,0,0-.16V1.85h.39Z"/><path class="cls-4" d="M28.21,3.27a1,1,0,0,0,.4.09c.23,0,.37-.1.37-.25s-.07-.22-.32-.33-.5-.29-.5-.49.3-.47.68-.47a1.18,1.18,0,0,1,.45.09l-.11.21A.67.67,0,0,0,28.85,2c-.21,0-.32.11-.32.22s.06.18.31.29.51.28.51.52-.34.5-.74.5a1.09,1.09,0,0,1-.49-.1Z"/><path class="cls-4" d="M11.27,5.45c0-.2,0-.3,0-.44h.34l0,.2h0A.74.74,0,0,1,12.19,5a.54.54,0,0,1,.6.59V6.71h-.4V5.61c0-.2-.05-.4-.34-.4a.37.37,0,0,0-.37.28.61.61,0,0,0,0,.15V6.71h-.39Z"/><path class="cls-4" d="M14.34,5.68h0c0-.34-.18-.49-.37-.49s-.39.26-.4.49Zm-.78.2c0,.52.31.64.59.64a1.08,1.08,0,0,0,.41-.07l.06.2a1.66,1.66,0,0,1-.54.08.8.8,0,0,1-.9-.85A.82.82,0,0,1,14,5a.68.68,0,0,1,.71.75v.15Z"/><path class="cls-4" d="M16.3,6.67a1.27,1.27,0,0,1-.41.06.81.81,0,0,1-.9-.86A.89.89,0,0,1,16,5a1,1,0,0,1,.35.06l-.07.22a.89.89,0,0,0-.29,0,.59.59,0,0,0-.57.66A.56.56,0,0,0,16,6.5a.88.88,0,0,0,.29,0Z"/><path class="cls-4" d="M17.61,5.68h0c0-.34-.18-.49-.37-.49s-.39.26-.4.49Zm-.78.2c0,.52.31.64.59.64a1.08,1.08,0,0,0,.41-.07l.06.2a1.66,1.66,0,0,1-.54.08.8.8,0,0,1-.9-.85.82.82,0,0,1,.83-.9.68.68,0,0,1,.71.75v.15Z"/><path class="cls-4" d="M18.3,6.43a1,1,0,0,0,.4.09c.22,0,.36-.1.36-.25s-.07-.22-.32-.33-.49-.29-.49-.49.29-.47.68-.47a1.16,1.16,0,0,1,.44.09l-.11.2a.76.76,0,0,0-.32-.07c-.22,0-.33.1-.33.21s.07.18.31.3.51.28.51.51-.33.51-.74.51a1.15,1.15,0,0,1-.49-.1Z"/><path class="cls-4" d="M19.79,6.71h0V5h.4v1.7Zm.43-2.14c0,.11-.1.18-.24.18s-.23-.07-.23-.18.1-.17.23-.17S20.22,4.47,20.22,4.57Z"/><path class="cls-4" d="M21.78,5.66h0V5.54a.39.39,0,0,0-.37-.33c-.33,0-.44.32-.44.66s.13.64.42.64a.38.38,0,0,0,.38-.29.37.37,0,0,0,0-.11Zm.39-1.38v2c0,.12,0,.31,0,.41h-.34l0-.22h0a.58.58,0,0,1-.51.25c-.42,0-.73-.32-.73-.87s.37-.89.75-.89a.52.52,0,0,1,.45.21h0V4.28Z"/><path class="cls-4" d="M23.59,5.83h0c-.2,0-.68,0-.68.39a.29.29,0,0,0,.3.31.35.35,0,0,0,.37-.26.31.31,0,0,0,0-.09Zm.06.88,0-.18h0a.62.62,0,0,1-.49.21.53.53,0,0,1-.59-.49c0-.42.5-.61,1-.62v0c0-.23-.08-.38-.39-.38a1.07,1.07,0,0,0-.41.08l-.09-.19A1.52,1.52,0,0,1,23.27,5c.5,0,.71.23.71.61v.73a1.63,1.63,0,0,0,0,.39Z"/><path class="cls-4" d="M25.58,5.66h0V5.54a.39.39,0,0,0-.37-.33c-.33,0-.44.32-.44.66s.13.64.42.64a.38.38,0,0,0,.38-.29.37.37,0,0,0,0-.11ZM26,4.28v2c0,.12,0,.31,0,.41h-.33l0-.22h0a.58.58,0,0,1-.51.25c-.42,0-.72-.32-.72-.87s.36-.89.74-.89a.5.5,0,0,1,.45.21h0V4.28Z"/><path class="cls-4" d="M27.53,5.68h0c0-.34-.18-.49-.37-.49s-.39.26-.4.49Zm-.78.2c0,.52.3.64.59.64a1.12,1.12,0,0,0,.41-.07l.06.2a1.75,1.75,0,0,1-.54.08.79.79,0,0,1-.9-.85A.81.81,0,0,1,27.2,5a.68.68,0,0,1,.71.75.62.62,0,0,1,0,.15Z"/><path class="cls-4" d="M28.21,6.43a1,1,0,0,0,.4.09c.23,0,.37-.1.37-.25s-.07-.22-.32-.33-.5-.29-.5-.49.3-.47.68-.47a1.18,1.18,0,0,1,.45.09l-.11.2a.81.81,0,0,0-.33-.07c-.21,0-.32.1-.32.21s.06.18.31.3.51.28.51.51-.34.51-.74.51a1.09,1.09,0,0,1-.49-.1Z"/><path class="cls-4" d="M5.94,14.35a3.16,3.16,0,0,0,.63,2.1c.72.72,1.92,1.61,1.8,2.19a.27.27,0,0,1,.33.25.64.64,0,0,1-.2.52,2.73,2.73,0,0,1-.42-.26c-.31-.21,0-.44,0-.44a3.2,3.2,0,0,0-1-1.26c-.72-.51-2.07-1.58-2.81-2.14s-1.3-.77-1.2-1.22,2.11-1,2.89.26"/></svg>