<svg id="Capa_1" data-name="Capa 1" xmlns="http://www.w3.org/2000/svg" viewBox="0 0 29.84 28.51"><defs><style>.cls-1{fill:#ffcb51;}.cls-2{fill:#f8992f;}.cls-3{fill:#fbcabb;}.cls-4{fill:#231f20;}</style></defs><title>8-18meses</title><polygon class="cls-1" points="0 18.34 19.96 23.68 19.96 28.51 0 28.51 0 18.34"/><path class="cls-2" d="M7.77,19.31s-.45-1.74.61-2.28a7.72,7.72,0,0,1,4.76,0c.76.47.89,1.7.94,1.78s-5.74,1-6.31.5"/><path class="cls-3" d="M18.17,23.12s-.3-2.84-.44-3.72a26.22,26.22,0,0,0-1.13-3.32,14.64,14.64,0,0,0,2.06-1.67c.22-.39.77-1.32.5-1.68a7.37,7.37,0,0,0-4.35-2.1c-2.28-.2-4.36-.27-4.36-.27S9.05,11.43,9.38,12s1.11,1,1.06,2.18.28,1.61.53,1.8,1.19.75,1.19.75,1.34.59,1,1.32a2.28,2.28,0,0,1-1,1l-1,.05S9.66,19,9.66,18.93A10.81,10.81,0,0,0,9,18c-.23-.24-.38-.63-.64-.38s-.18.56-.42.56-1-.1-1-.1a1.31,1.31,0,0,1-.13.45c-.09.16-.22.37-.19.52s.12.48.13.56a3.51,3.51,0,0,0,.15.32s1.88.44,2.42.65.84.39.84.39l.57.27s7.46,1.88,7.46,1.88"/><path class="cls-3" d="M7.93,17.55s-.44-.22-.26-.53a2.89,2.89,0,0,0,.21-.4s0-.4.29-.37a2.21,2.21,0,0,0,.48,0A.46.46,0,0,1,9,16a1.66,1.66,0,0,1,.55.14s.16-.22.36-.18.26.5.26.5-1.85.22-2.25,1.05"/><path class="cls-4" d="M13.54,13.17c.53-.35,2.72.31,2.72.31a4.15,4.15,0,0,0-2.09-.56c-1,.09-.81.39-.81.39Z"/><path class="cls-4" d="M18,13.84a.24.24,0,0,1,0,.31.08.08,0,0,0,0,.13.41.41,0,0,0,.14.08.57.57,0,0,0,.29,0,.16.16,0,0,0,.13-.16.23.23,0,0,0-.07-.11L18.37,14h0v.08a.17.17,0,0,1,0,.07.06.06,0,0,1-.05,0h-.16s0,0,0,0,0-.23,0-.36,0-.13,0-.16,0,0,0,0l.1-.06a.52.52,0,0,0,.16-.12l.09-.1s0,0,0,0,.05,0,.07.05l.06.07h0a.66.66,0,0,0,0-.09.15.15,0,0,0,0-.11.22.22,0,0,0-.13-.07.57.57,0,0,0-.16,0,.7.7,0,0,0-.18.11l-.14.11-.07.06s-.11.1-.08.15a.68.68,0,0,0,.09.17"/><path class="cls-4" d="M17.86,23h0c-.69-.16-1.36-.34-2-.51-1.36-.34-2.68-.75-4-1.13l-.66-.19h0a6.13,6.13,0,0,0,1.16.09,2.88,2.88,0,0,0,.59-.06,4.43,4.43,0,0,0,.55-.13,9.2,9.2,0,0,0,1-.36,13,13,0,0,0,1.79-.91l0,0-1,.37-1,.35c-.33.11-.66.21-1,.29a4.59,4.59,0,0,1-.51.1,2.74,2.74,0,0,1-.5,0,4.35,4.35,0,0,1-.5,0l-.53-.07c-.35,0-.7-.11-1-.17a21.1,21.1,0,0,1-2.09-.48h0a3.57,3.57,0,0,1-.94-.2.58.58,0,0,1-.29-.23.44.44,0,0,1-.06-.16.15.15,0,0,1,0-.06s0,0,0,0,0,0,0,0l.11-.11a.33.33,0,0,1-.14-.18A.18.18,0,0,1,6.8,19a.07.07,0,0,0,0-.09h0a.24.24,0,0,1-.06-.2s.08-.08.18-.11H7c.08,0,.11-.09.07-.14H7c-.06-.08-.09-.2,0-.24s0,0,.07,0h.17a1.56,1.56,0,0,1,.41.06.76.76,0,0,1,.2.06.75.75,0,0,1,.18.07.41.41,0,0,0,.16,0c.13,0,.23-.09.22-.18v0a.62.62,0,0,1,0-.3.23.23,0,0,1,.06-.09l0,0h0c.08,0,0,0,0,0l0,0a.45.45,0,0,1,.09.1,1.12,1.12,0,0,1,.1.31.25.25,0,0,0,0,.07h0c.19.22.37.45.57.67h0a.26.26,0,0,0,.18.09,11.67,11.67,0,0,0,1.79.21h.48a2.15,2.15,0,0,0,.52-.1,1,1,0,0,0,.26-.16l.11-.14.22-.26a3.45,3.45,0,0,1,1-.88,2.17,2.17,0,0,1,.35-.15,2.48,2.48,0,0,1,.39-.1,2.68,2.68,0,0,1,.42-.05c.14,0,.28,0,.43,0v0c-.14,0-.29-.06-.44-.07a3,3,0,0,0-.91.07,3,3,0,0,0-.42.14,3.56,3.56,0,0,0-.58.31.58.58,0,0,0,0-.21,1,1,0,0,0-.29-.58,1.57,1.57,0,0,0-.28-.21,6.15,6.15,0,0,0,1.6.06l.25,0,.21,0,.44-.09a6.36,6.36,0,0,0,.84-.28,5.23,5.23,0,0,0,.58-.29L18.12,23Zm-10-5.14h0a1.88,1.88,0,0,1,.42-.48,2.36,2.36,0,0,1,.39-.23,3,3,0,0,1,.51-.18,3.12,3.12,0,0,1,.44-.09l.19.17a3.25,3.25,0,0,1,.56.77,2.44,2.44,0,0,1,.19.44c0,.07.05.14.07.21l.06.19c0,.08,0,.14,0,.2-.32,0-.64-.08-1-.13-.16-.19-.33-.37-.5-.56a1.11,1.11,0,0,0-.15-.36.77.77,0,0,0-.2-.21.62.62,0,0,0-.2-.1,1.58,1.58,0,0,0-.26,0H8.38l-.11,0a.67.67,0,0,0-.19.1.53.53,0,0,0-.16.24,1.1,1.1,0,0,0,0,.16l-.07,0A.59.59,0,0,1,7.89,17.82Zm.05-.89h0s0,0,.07-.06a.81.81,0,0,1,.13-.06.56.56,0,0,1,.21,0,.26.26,0,0,1,.16.06l-.08,0a1.84,1.84,0,0,0-.38.33,1.18,1.18,0,0,0-.18.28s0-.1,0-.17S7.85,17,7.94,16.93Zm1-.66h0a.53.53,0,0,0-.17-.08h0a.85.85,0,0,1,.2,0,.57.57,0,0,1,.18,0l.1,0h0l.05,0,.12.07a1.36,1.36,0,0,1,.12.12l0,0a3.89,3.89,0,0,0-.49.12.37.37,0,0,0,0-.11A.36.36,0,0,0,8.94,16.27Zm.8-.13h0a.82.82,0,0,1,.21.08,1,1,0,0,1,.16.18h0l-.33,0s0,0,0,0a.3.3,0,0,0-.09-.29Zm.72.64h.16l.14.14a2.63,2.63,0,0,1,.5.77,2.39,2.39,0,0,1,.14.43c0,.08,0,.15,0,.22s0,.13,0,.19a2.27,2.27,0,0,1,0,.3.2.2,0,0,0,0,.05h-.15l-.4,0a.63.63,0,0,0,.08-.22,1.08,1.08,0,0,0,.05-.45,1.57,1.57,0,0,0-.15-.53,2.07,2.07,0,0,0-.38-.47,2.23,2.23,0,0,0-.5-.32l-.12-.05h.52Zm.65,0h0l.32,0,.3.05a3.71,3.71,0,0,1,.53.14,2.23,2.23,0,0,1,.41.21,1.39,1.39,0,0,1,.28.24,2,2,0,0,1,.16.22.88.88,0,0,1,.09.2,3.87,3.87,0,0,0-.68.57l-.24.25-.12.12-.08,0a2.13,2.13,0,0,1-.32,0h-.18s0,0,0,0a1.11,1.11,0,0,0,.18-.29,1.24,1.24,0,0,0,.11-.45,1.26,1.26,0,0,0-.09-.53,1.49,1.49,0,0,0-.34-.49,1.85,1.85,0,0,0-.44-.31Zm0-.91h0a2.13,2.13,0,0,1-.49-.45l-.07-.12s0-.06,0-.12v-.07l0-.08s0-.1,0-.16a4.33,4.33,0,0,0-.16-1.23,2.76,2.76,0,0,0-.08-.27,1.56,1.56,0,0,1,1.08,0c.4.23.83.51.62.93s-.32.51,0,.62.4.17.72,0c0,0-.67,0-.65-.3s.32-.54,0-1a1.44,1.44,0,0,0-1.79-.33,2.44,2.44,0,0,0-.1-.24,1,1,0,0,0-.1-.17h0v0a1.64,1.64,0,0,0-.28-.37l-.25-.29,1.49.67L10.21,12l1.7.84-.58-.38,1.44.32-.69-1,1.43.84L13,12.09l.91.52-.55-.89,1.64.9-1.27-1.26,2.16.93-.63-.77A3.32,3.32,0,0,1,16.94,13a1.86,1.86,0,0,1,0,1.47l.36-.73.08.46a.81.81,0,0,0,.32-.68s.49-.58.93-.47.26.55.08,1a2.9,2.9,0,0,1-.53.58h0a4.55,4.55,0,0,1-1,1,4.66,4.66,0,0,1-.65.39,4.75,4.75,0,0,1-.73.32,5.11,5.11,0,0,1-.79.22,2.37,2.37,0,0,1-.41.06l-.22,0h-.2a4.71,4.71,0,0,1-.84,0,3.69,3.69,0,0,1-.81-.12,3.86,3.86,0,0,1-.75-.24A3.36,3.36,0,0,1,11.15,15.88ZM20,23.68s.07,0,.08-.07,0-.15-.12-.18L18.2,23c.24-.51,0-1.93-.17-3.8a5.3,5.3,0,0,0-1.41-3.07l.11-.06a5.87,5.87,0,0,0,.63-.44,5.41,5.41,0,0,0,.73-.7l.05.52.17-.52.15.42.3-.86.16.44s.35-1.15.46-1.6a2.81,2.81,0,0,0-.07-2.75c-.79-1.47-3.4-2.73-5.7-2.53s-3.12.65-3.89,1.32S8.4,11.15,9.1,12a5.18,5.18,0,0,0,.92.87,2.35,2.35,0,0,1,.3.84,4,4,0,0,1,0,1.2c0,.11-.05.18-.07.3a.42.42,0,0,0,0,.19c0,.06.05.11.07.17a2,2,0,0,0,.5.55,2.76,2.76,0,0,0,.57.36l-.22,0c-.25,0-.49,0-.75,0h-.15l0,0a.33.33,0,0,0,0-.15.26.26,0,0,0-.13-.19A.48.48,0,0,0,9.94,16a.47.47,0,0,0-.22,0,.42.42,0,0,0-.13.08L9.49,16l-.08,0H9.14a.63.63,0,0,0-.3.07c-.12.07-.13.14-.13.16l-.15,0H8.37a.58.58,0,0,0-.18,0,.37.37,0,0,0-.25.17.18.18,0,0,0,0,.16.14.14,0,0,0,0,0,.4.4,0,0,1,.17-.12l.17,0h.33s.06,0,.08,0a.3.3,0,0,1,.16.08l.11.08a2.32,2.32,0,0,0-.39.18.21.21,0,0,0-.12-.16A.68.68,0,0,0,8,16.59a.66.66,0,0,0-.22.06.58.58,0,0,0-.2.13.39.39,0,0,0-.09.34.55.55,0,0,0,.13.25,1.1,1.1,0,0,0,.21.17,1.13,1.13,0,0,0-.07.26.36.36,0,0,0,0,.15h0a2.1,2.1,0,0,0-.57,0H7.06l-.18,0a.38.38,0,0,0-.25.21.3.3,0,0,0,0,.23l.06.09-.08,0a.27.27,0,0,0-.12.18.32.32,0,0,0,.09.28.24.24,0,0,0-.06.24.38.38,0,0,0,.13.18s0,0,0,.06a.41.41,0,0,0,0,.11.89.89,0,0,0,.08.17.7.7,0,0,0,.38.29,4,4,0,0,0,1,.24l.68.22-1-.24c-.68-.18-1.37-.33-2-.49s-1.38-.3-2.08-.44l0,0c.66.21,1.32.42,2,.61s1.33.4,2,.57c1.35.37,2.68.75,4.06,1.05s2.76.62,4.11,1l2,.55,1.61.47c-1,.35-2,.71-2.94,1.07s-2.2.82-3.28,1.25-2.15.87-3.23,1.31-2.13.9-3.17,1.37l0,0c1.14-.36,2.25-.75,3.36-1.14s2.22-.8,3.31-1.21,2.19-.84,3.27-1.27,2.16-.86,3.23-1.31Z"/><path class="cls-4" d="M20.24,24.43a5.09,5.09,0,0,0-.17-.75,6.19,6.19,0,0,0-.16.75,11.61,11.61,0,0,0,0,3.33,6.19,6.19,0,0,0,.16.75,4.49,4.49,0,0,0,.16-.75,11.42,11.42,0,0,0,.13-1.66,13.19,13.19,0,0,0-.12-1.67"/><path class="cls-4" d="M11.9,13.88a.63.63,0,0,0-.66-.28c-.5.05-.43.32-.43.32a.82.82,0,0,1,.5-.18s-.09.25.21.3.38-.16.38-.16"/><path class="cls-4" d="M14.16,13.48c-.52,0-.38.31-.38.31.17-.16.72-.15.72-.15s-.18.36.31.36.42-.21.42-.21h.2a1.67,1.67,0,0,0-1.27-.31"/><path class="cls-4" d="M14,15.66c.26,0,.37,0-.27-.18s-.86,0-.86,0c-.28.22.87.15,1.13.14"/><path class="cls-4" d="M13.35,15.94c-.3.08.43.34.67.31s-.29-.42-.67-.31"/><path class="cls-4" d="M16.36,3.2h.14c.44,0,.86-.21.86-1,0-.59-.27-.92-.82-.92h-.18ZM16,1.09a2.86,2.86,0,0,1,.53,0,1.47,1.47,0,0,1,.81.18,1,1,0,0,1,.47,1,1.13,1.13,0,0,1-.42,1,1.49,1.49,0,0,1-1,.26,2.85,2.85,0,0,1-.44,0Z"/><path class="cls-4" d="M19.25,2.4h0c0-.34-.18-.49-.37-.49s-.39.26-.4.49Zm-.78.2c0,.52.31.63.59.63a1.37,1.37,0,0,0,.41-.06l.06.2a1.66,1.66,0,0,1-.54.08.81.81,0,0,1-.9-.86.81.81,0,0,1,.83-.89.68.68,0,0,1,.71.75V2.6Z"/><path class="cls-4" d="M20.09,3.42V1.93h-.32v-.2h.32V1.61c0-.3.21-.64.9-.64a1.31,1.31,0,0,1,.48.08l-.08.21A1.32,1.32,0,0,0,21,1.19c-.4,0-.5.19-.5.45v.09h1.11V3.42H21.2V1.93h-.72V3.42Z"/><path class="cls-4" d="M23.15,2.4h0c0-.34-.18-.49-.37-.49s-.39.26-.41.49Zm-.78.2c0,.52.3.63.59.63a1.43,1.43,0,0,0,.41-.06l.06.2a1.75,1.75,0,0,1-.54.08A.81.81,0,0,1,22,2.59a.81.81,0,0,1,.84-.89.68.68,0,0,1,.71.75.66.66,0,0,1,0,.15Z"/><path class="cls-4" d="M23.9,2.16c0-.2,0-.3,0-.43h.34l0,.2h0a.71.71,0,0,1,.57-.23.54.54,0,0,1,.6.58V3.42H25V2.33c0-.2-.05-.4-.34-.4a.37.37,0,0,0-.37.27.77.77,0,0,0,0,.15V3.42H23.9Z"/><path class="cls-4" d="M27,2.37h0a.45.45,0,0,0,0-.11.37.37,0,0,0-.36-.33c-.33,0-.44.31-.44.65s.13.65.42.65A.38.38,0,0,0,27,2.94a.43.43,0,0,0,0-.12ZM27.41,1V3c0,.11,0,.31,0,.4h-.34l0-.21h0a.62.62,0,0,1-.52.24c-.42,0-.72-.31-.72-.87s.36-.88.75-.88a.53.53,0,0,1,.45.2h0V1Z"/><path class="cls-4" d="M29,2.4h0c0-.34-.17-.49-.36-.49s-.39.26-.41.49Zm-.77.2c0,.52.3.63.59.63a1.35,1.35,0,0,0,.4-.06l.07.2a1.77,1.77,0,0,1-.55.08.81.81,0,0,1-.9-.86.81.81,0,0,1,.84-.89.67.67,0,0,1,.7.75V2.6Z"/><path class="cls-4" d="M13.79,6.3a1,1,0,0,0,.4.09c.22,0,.36-.1.36-.25s-.07-.21-.32-.33-.49-.29-.49-.48.29-.47.68-.47a1.19,1.19,0,0,1,.44.08l-.11.21a.63.63,0,0,0-.32-.08c-.22,0-.33.11-.33.22s.07.18.31.29.51.28.51.52-.33.5-.74.5a1.15,1.15,0,0,1-.49-.1Z"/><path class="cls-4" d="M16.77,6.12c0,.19,0,.34,0,.46h-.35l0-.18h0a.74.74,0,0,1-.54.21c-.43,0-.6-.23-.6-.65V4.88h.39v1c0,.27.07.46.34.46a.35.35,0,0,0,.35-.22.41.41,0,0,0,0-.16V4.88h.4Z"/><path class="cls-4" d="M17.6,7.07h0a.64.64,0,0,0,.33-.13c.09-.1.12-.22.12-.54V4.88h.39V6.47c0,.36-.07.53-.25.65a1,1,0,0,1-.54.16Zm.88-2.63c0,.11-.09.18-.24.18S18,4.55,18,4.44s.1-.17.24-.17S18.48,4.34,18.48,4.44Z"/><path class="cls-4" d="M20.41,6.12c0,.19,0,.34,0,.46h-.34l0-.18h0a.74.74,0,0,1-.54.21c-.43,0-.6-.23-.6-.65V4.88h.39v1c0,.27.06.46.34.46A.35.35,0,0,0,20,6.16.78.78,0,0,0,20,6V4.88h.39Z"/><path class="cls-4" d="M22,5.47h0a.23.23,0,0,0,0-.12.36.36,0,0,0-.36-.26c-.29,0-.44.26-.44.64s.2.63.44.63A.35.35,0,0,0,22,6.12.32.32,0,0,0,22,6Zm.41-.59c0,.12,0,.27,0,.53v1c0,.45-.08.62-.25.74a1,1,0,0,1-.66.18A1.62,1.62,0,0,1,21,7.2L21.05,7a1.59,1.59,0,0,0,.46.07c.32,0,.51-.13.51-.52V6.37h0a.58.58,0,0,1-.48.21.74.74,0,0,1-.72-.84.78.78,0,0,1,.77-.88.52.52,0,0,1,.47.22h0l0-.2Z"/><path class="cls-4" d="M24.39,6.12c0,.19,0,.34,0,.46h-.34l0-.18h0a.71.71,0,0,1-.53.21c-.44,0-.6-.23-.6-.65V4.88h.39v1c0,.27.06.46.33.46A.35.35,0,0,0,24,6.16.41.41,0,0,0,24,6V4.88h.39Z"/><path class="cls-4" d="M26,5.56h0c0-.34-.18-.49-.37-.49s-.39.26-.41.49Zm-.78.2c0,.52.3.63.59.63a1.16,1.16,0,0,0,.41-.07l.06.2a1.77,1.77,0,0,1-.55.08.8.8,0,0,1-.9-.85.81.81,0,0,1,.84-.89.67.67,0,0,1,.7.75v.15Z"/><path class="cls-4" d="M27.18,4.43v.45h.47v.21h-.47v1c0,.22.12.28.26.28h.16v.2a1.07,1.07,0,0,1-.29,0,.69.69,0,0,1-.39-.1c-.1-.08-.15-.19-.15-.43v-1h-.3V4.88h.3V4.51Z"/><path class="cls-4" d="M29,5.56h0c0-.34-.18-.49-.36-.49s-.39.26-.41.49Zm-.77.2c0,.52.3.63.58.63a1.08,1.08,0,0,0,.41-.07l.07.2a1.77,1.77,0,0,1-.55.08.8.8,0,0,1-.9-.85.81.81,0,0,1,.84-.89.67.67,0,0,1,.7.75v.15Z"/><path class="cls-4" d="M19.44,13.2s-.3,2.44-.71,2.79a4,4,0,0,1-2.68,1.15,6.54,6.54,0,0,0-2.59.69l-.32.23s0-.64.21-.73A7.53,7.53,0,0,1,16,16.6a2.06,2.06,0,0,0,1.7-1.28,11.94,11.94,0,0,0,1.21-1.27,9.86,9.86,0,0,1,.58-.85"/></svg>