<svg id="Capa_1" data-name="Capa 1" xmlns="http://www.w3.org/2000/svg" viewBox="0 0 31.81 27.44"><defs><style>.cls-1{fill:#ffcb56;}.cls-2{fill:#98ca3c;}.cls-3{fill:#f8992f;}.cls-4{fill:#fbcabb;}.cls-5{fill:#231f20;}</style></defs><title>9-18meses</title><polygon class="cls-1" points="31.62 27.44 31.62 21.31 15.44 20.53 -0.19 24.76 -0.19 27.44 31.62 27.44"/><path class="cls-2" d="M17.48,23a8.4,8.4,0,0,0,3.32,1.59c2,.44,4.46.92,4.46.92l5.57-3-7.46-.65-3.81-.3-3.72,1.31Z"/><path class="cls-3" d="M23.24,19.76c-.55.76,0,2.33,1.31,3s4.1.51,5.15-.55a2.09,2.09,0,0,0,.38-2.83c-.48-.7-4.76-2.54-6.84.34"/><path class="cls-4" d="M5.87,23.1a9.64,9.64,0,0,1,.66-2.24A1.87,1.87,0,0,1,8.13,20l1.41.09.32-.86s-1.11-1.09-1.17-1.69.77-1.73.81-1.77,7-1,7.65-.52.81.64.78.72-.15.68-.15.68a3,3,0,0,0-1.22,1.89c-.11,1.13-.38,1.52-.72,1.69s-.85.37-.85.37l-1.88.16-.17.17.09.13-1.12.15a14,14,0,0,0,2.83,1.16l.36,0a2.25,2.25,0,0,1,1.08-.6,2.81,2.81,0,0,1,1.17.37l.27.27-.53.14s1.48,1.05,1.63,1.18.19.27-.27.32a7.41,7.41,0,0,0-1.26.13,1.85,1.85,0,0,1-.92.11c-.41-.05-.62,0-.77,0s-.75-.22-.75-.22a20.09,20.09,0,0,1-3.33-.43,22.75,22.75,0,0,1-3-1.31Z"/><path class="cls-5" d="M13.84,17.38l.15.14s.21-.26-.7-.41a4.09,4.09,0,0,0-2,.38s2.13-.47,2.57-.11"/><path class="cls-5" d="M12.67,18c.23.12.59.06.59-.05a.63.63,0,0,1,0-.16l.2,0s.1-.16-.3-.19a10.64,10.64,0,0,0-1.28.06l.71.06s-.19.11.05.24"/><path class="cls-5" d="M15.52,18.35a.38.38,0,0,0,.47-.07c.12-.1-.06-.17,0-.16a.65.65,0,0,1,.27.14c.17-.2-.3-.26-.62-.24s-.35.1-.35.1c.38,0,0,.13.18.23"/><path class="cls-5" d="M12.18,19s.07.34.63.55a2.11,2.11,0,0,0,1.33.23c.26-.12.27-.26.5-.29a5.41,5.41,0,0,1-1.4-.14c-.6-.17-1.06-.35-1.06-.35"/><path class="cls-5" d="M13,19.88c-.46-.25-.84-.22-.67,0s1.14.28.67,0"/><path class="cls-5" d="M10.47,18.34v0Z"/><path class="cls-5" d="M9.58,17.37l-.11-.11-.15-.12a.49.49,0,0,0-.15,0,.2.2,0,0,0-.13.05.12.12,0,0,0,0,.1.17.17,0,0,0,0,.08H9l.06-.06.07-.05s0,0,0,0l.07.09a.8.8,0,0,0,.13.13l.09.06s0,0,0,0,0,.1,0,.15,0,.22,0,.34,0,0,0,0H9.28l0,0v-.07l0-.08h0l-.09.06a.17.17,0,0,0-.07.09s0,.12.09.16a.57.57,0,0,0,.26,0,.28.28,0,0,0,.14-.06.07.07,0,0,0,0-.12.23.23,0,0,1,0-.29,1.42,1.42,0,0,0,.11-.16s0-.12-.06-.13Z"/><path class="cls-5" d="M29.2,23h0c-.47.24-.94.49-1.39.75s-.91.51-1.35.78l-1.28.79q-.76-.15-1.5-.36c-.51-.15-1-.31-1.53-.44s-1-.23-1.58-.33-.93-.17-1.41-.23a.2.2,0,0,0,0-.11c-.05-.18-.18-.21-.25-.27l-.25-.12-.14-.07,1.83-.58-2.29.36a2.26,2.26,0,0,1-.26-.16,2.3,2.3,0,0,1-.34-.28l0,0,3.8-.45-3.5.11a.19.19,0,0,0,0-.09s0,0-.05-.05a17.58,17.58,0,0,0,1.81-.38c.65,0,1.3.05,1.95,0s1.16,0,1.74-.09a4.37,4.37,0,0,0,3.66,1.63A4.78,4.78,0,0,0,30,22.36l.44.1L29.2,23M16.67,21.81h0a1.69,1.69,0,0,0-1.61.56,2.19,2.19,0,0,1-.73-.14,5.62,5.62,0,0,1-.72-.27,10.23,10.23,0,0,1-1.32-.68h0a15.68,15.68,0,0,0,1.84-.22c.3-.05.6-.11.89-.18l.85-.24a12.94,12.94,0,0,1,1.77.11c.6.08,1.2.12,1.8.17s1.2.07,1.8.07,1.05,0,1.58-.05a2.24,2.24,0,0,0,.29.82c-.56-.08-1.12-.12-1.68-.16s-1.32-.05-2,0h-.1c-.58.2-1.16.41-1.71.66l-.1-.07A3.08,3.08,0,0,0,16.67,21.81ZM9.7,20h0a.75.75,0,0,0,.23-.24.48.48,0,0,0,0-.33,5.89,5.89,0,0,0,.53.44,3.94,3.94,0,0,0,.63.39,5,5,0,0,0,.74.32l.4.11.19.05.22,0h.05a.14.14,0,0,0-.05.09.18.18,0,0,0,.11.15h0a5.6,5.6,0,0,0-.54.17v0A10.76,10.76,0,0,0,9.7,20Zm3.77.86h0l-.31.07a.06.06,0,0,0,0-.09Zm3.47-3.4h0l-.12.22a1.41,1.41,0,0,0-1.72.19c-.35.42-.11.65-.13.93s-.65.25-.65.25c.29.15.38.09.68,0s.21-.17.07-.58.3-.63.7-.82a1.47,1.47,0,0,1,1,.09l-.12.25a4.52,4.52,0,0,0-.31,1.13.76.76,0,0,1,0,.15v.13c0,.06,0,.08,0,.11a.48.48,0,0,1-.09.11,2,2,0,0,1-.51.39,3.57,3.57,0,0,1-.66.29,3.39,3.39,0,0,1-.73.18,4.9,4.9,0,0,1-.77.06,6.64,6.64,0,0,1-.77,0l-.19,0-.2,0a2.11,2.11,0,0,1-.38-.09,4.16,4.16,0,0,1-.7-.25,4.21,4.21,0,0,1-.63-.34,6.23,6.23,0,0,1-.56-.41,4.06,4.06,0,0,1-.81-1v0a2.57,2.57,0,0,1-.4-.55c-.12-.41-.1-.86.2-.91s.79.49.79.49a.72.72,0,0,0,.21.65l.14-.42.24.7A1.73,1.73,0,0,1,10.7,17a3.55,3.55,0,0,1,1.73-1.25l-.69.68,2.13-.73-1.35,1.1L14.16,16l-.63.8.92-.43-.51.47,1.45-.68-.78.84,1.38-.2-.59.31,1.69-.67-.93.78,1.48-.52-.27.25a1.93,1.93,0,0,0-.31.33l0,0h0Zm9.87.8h0a4.52,4.52,0,0,1,.74.06,1.46,1.46,0,0,1,.56.33,1,1,0,0,1,.28.44s0,0,0,0l-.32-.09-.56-.12c-.18,0-.37,0-.56-.06H26.4c-.18,0-.36,0-.54,0l-.49.09-.45.14-.39.15a4.29,4.29,0,0,0-1,.65l-.11.11A3.57,3.57,0,0,1,26.81,18.29Zm2.72.9h0l-.15,0-.45.11-.05,0h0a1.54,1.54,0,0,0-.1-.24,1.27,1.27,0,0,0-.42-.5l-.05,0A3.67,3.67,0,0,1,29.53,19.19Zm-4.22,3.52h0a4.15,4.15,0,0,0,.67-.05,4.5,4.5,0,0,0,.76-.2,2.62,2.62,0,0,0,.39-.15,3.07,3.07,0,0,0,.36-.2,2.93,2.93,0,0,0,.34-.24,1.93,1.93,0,0,0,.3-.27,1.81,1.81,0,0,0,.25-.3,2.11,2.11,0,0,0,.21-.31,2.48,2.48,0,0,0,.27-.66,1.78,1.78,0,0,0,.06-.6,1.34,1.34,0,0,1,.36.17,2.16,2.16,0,0,1,.36.22,1.69,1.69,0,0,1,.27.26.94.94,0,0,1,.23.59,1.21,1.21,0,0,1-.16.55,1,1,0,0,1-.15.24c0,.08-.11.15-.16.22s-.23.24-.32.33l-.17.15a4.54,4.54,0,0,1-2.37.64,4.62,4.62,0,0,1-1.91-.4Zm-1-1.22h0c.63-.23,1.44-.56,2.24-.9s1.35-.61,1.9-.87a2.2,2.2,0,0,1-.1.55,2.36,2.36,0,0,1-.26.59,1.75,1.75,0,0,1-.18.29,1.32,1.32,0,0,1-.22.26,1.48,1.48,0,0,1-.25.25,1.18,1.18,0,0,1-.28.22,1.65,1.65,0,0,1-.31.2,2.39,2.39,0,0,1-.32.16,5.61,5.61,0,0,1-.65.23,5.29,5.29,0,0,1-.61.11c-.19,0-.35.05-.49.05h-.05a2.92,2.92,0,0,1-1.1-.9Zm5.86-1.4h0L30,19.91a2.19,2.19,0,0,0-.42-.28,2.33,2.33,0,0,0-.45-.22l.29-.13.14-.06A2.18,2.18,0,0,1,30.19,20.09Zm-6.78,0h0l.21-.15a5.21,5.21,0,0,1,1.06-.52,5.44,5.44,0,0,1,.8-.22l.45,0a3.85,3.85,0,0,1,.48,0c.16,0,.33,0,.5,0l.49.07.5.11.44.14c-.61.2-1.34.48-2.05.78s-1.56.73-2.12,1l-.57.33a1.75,1.75,0,0,1-.3-1A1.55,1.55,0,0,1,23.41,20.13Zm7.36,2.2-.69,0a2.24,2.24,0,0,0,.74-1.6c0-1.51-1.8-2.75-4-2.75s-4,1.24-4,2.75c0,.06,0,.11,0,.16-.51-.08-1-.14-1.54-.19s-1.19-.1-1.8-.11-1.2,0-1.8,0a12.13,12.13,0,0,1-1.81-.06h0l-.37.05a3.25,3.25,0,0,0,.52-.28,2.09,2.09,0,0,0,.54-.48.71.71,0,0,0,.08-.15.3.3,0,0,0,0-.17c0-.12,0-.18,0-.28a3.84,3.84,0,0,1,.16-1.12,2.49,2.49,0,0,1,.39-.76,5.15,5.15,0,0,0,1-.76c.76-.7.4-1.73-.23-2.41S16.56,13,14.46,12.65a6.45,6.45,0,0,0-5.64,2,2.66,2.66,0,0,0-.43,2.55c0,.42.21,1.51.21,1.51l.21-.4.16.82.19-.38.1.49.11-.47q.2.25.42.51l-.12.1a1.33,1.33,0,0,0-.23.3,1.66,1.66,0,0,0-.06.16.76.76,0,0,0,0,.11,4.54,4.54,0,0,0-.74-.1,3.83,3.83,0,0,0-.9.05,2,2,0,0,0-1.28.86A3.71,3.71,0,0,0,6,21.88a5.32,5.32,0,0,0-.09,1.05l-1.95.5c-1.06.3-2.09.61-2.86.87l-.92.33-.34.13.38-.07,1-.2c.82-.18,1.88-.44,2.94-.73s2.09-.61,2.86-.87l.91-.33.35-.13-.38.07-1,.2L6,22.91a5.85,5.85,0,0,1,.25-1,3.35,3.35,0,0,1,.53-1.05,2.09,2.09,0,0,1,.45-.44,1.57,1.57,0,0,1,.61-.25,3.25,3.25,0,0,1,.76,0,4.81,4.81,0,0,1,.76.12,7.51,7.51,0,0,1,1.42.52c.46.2.9.43,1.35.66a11.33,11.33,0,0,0,1.42.63,6.81,6.81,0,0,0,.76.26,2.48,2.48,0,0,0,.85.15h0l0,0a1.78,1.78,0,0,1,.61-.44A1.35,1.35,0,0,1,16.6,22a2.27,2.27,0,0,1,.72.34.53.53,0,0,1,.11.09h-.36l-.29,0,.11.2a1.93,1.93,0,0,0,.28.36,1.91,1.91,0,0,0,.36.33,4.44,4.44,0,0,0,.9.51,1.8,1.8,0,0,1,.2.11l0,0-.22.05-.5.06H17.2l-.08.07-.09.06a.38.38,0,0,1-.17.06h0s0,0,0,0l-.07,0-.08,0,0,0,0,0-.48.18s0,0,0-.06l0,0a.09.09,0,0,1-.05,0l-.13,0h-.31l-.11,0-.06,0h0L15.17,24a15.73,15.73,0,0,1-1.94-.07,7.09,7.09,0,0,1-.94-.14l-.45-.11-.45-.14c-1.18-.4-2.33-.87-3.49-1.33l0,0c.53.28,1.07.55,1.62.8s1.12.51,1.71.74l.46.16c.14.05.32.09.48.13a8.4,8.4,0,0,0,1,.19c.34,0,.67.07,1,.09l.83,0a.1.1,0,0,0,0,.05.75.75,0,0,0,.25.13,1.19,1.19,0,0,0,.26.05H16a1.05,1.05,0,0,0,.24,0l.17-.06,0,0,.24.07H17a1,1,0,0,0,.43-.15l.11-.08.14,0H18a3.45,3.45,0,0,0,.6-.09,2,2,0,0,0,.31-.08.51.51,0,0,0,.17-.08l.06,0c.44.15.89.29,1.34.41s1,.27,1.55.39,1.07.19,1.6.29,1.06.21,1.57.34l0,0,0,0c.48-.23,1-.45,1.46-.69s1-.48,1.42-.72.93-.49,1.38-.76.89-.53,1.31-.81l.22-.14Z"/><path class="cls-5" d="M5.4.89V2.48c0,.42.21.56.47.56s.48-.15.48-.56V.89h.39V2.43a.77.77,0,0,1-.88.85c-.52,0-.85-.23-.85-.81V.89Z"/><path class="cls-5" d="M7.73,1.11v.45h.48v.2H7.73v1c0,.22.12.28.27.28h.15l0,.21a1.07,1.07,0,0,1-.29,0,.6.6,0,0,1-.39-.11c-.1-.07-.15-.19-.15-.42v-1H7v-.2h.3V1.18Z"/><path class="cls-5" d="M8.51,3.26h0V1.56H8.9v1.7Zm.42-2.14c0,.1-.09.17-.24.17s-.22-.07-.22-.17.1-.18.23-.18S8.93,1,8.93,1.12Z"/><rect class="cls-5" x="9.4" y="0.83" width="0.39" height="2.43"/><path class="cls-5" d="M10.32,3.26h0V1.56h.4v1.7Zm.43-2.14c0,.1-.09.17-.24.17s-.23-.07-.23-.17.1-.18.23-.18S10.75,1,10.75,1.12Z"/><path class="cls-5" d="M11,3.09l.78-1c.07-.09.15-.17.2-.25h-.88V1.56h1.32v.18l-.78,1a2.73,2.73,0,0,1-.2.25h1v.23H11Z"/><path class="cls-5" d="M13.69,2.38h0c-.21,0-.69,0-.69.39a.29.29,0,0,0,.31.3.35.35,0,0,0,.36-.25.2.2,0,0,0,0-.1Zm.05.88,0-.18h0a.62.62,0,0,1-.49.2c-.33,0-.59-.19-.59-.48s.5-.61,1.05-.62V2.13c0-.23-.08-.39-.39-.39a1.07,1.07,0,0,0-.41.09l-.09-.19a1.56,1.56,0,0,1,.58-.11c.5,0,.71.22.71.61v.73a1.63,1.63,0,0,0,0,.39Z"/><path class="cls-5" d="M16.81,2.79c0,.19,0,.34,0,.47h-.34l0-.18h0a.73.73,0,0,1-.53.2c-.43,0-.6-.23-.6-.65V1.56h.39v1c0,.27.06.46.33.46a.35.35,0,0,0,.36-.22.77.77,0,0,0,0-.15V1.56h.39Z"/><path class="cls-5" d="M17.31,2c0-.21,0-.31,0-.44h.34l0,.2h0a.67.67,0,0,1,.56-.23.53.53,0,0,1,.6.58V3.26h-.39V2.16c0-.2-.06-.4-.34-.4a.38.38,0,0,0-.38.27.81.81,0,0,0,0,.16V3.26h-.4Z"/><path class="cls-5" d="M20.37,2.41h0c0,.28.07.66.43.66s.41-.4.41-.66-.07-.66-.42-.66-.42.4-.42.66m1.24,0a.79.79,0,0,1-.83.87.77.77,0,0,1-.8-.87.8.8,0,0,1,.83-.88A.78.78,0,0,1,21.61,2.41Z"/><path class="cls-5" d="M22.38,2.65h0a.2.2,0,0,0,0,.11.39.39,0,0,0,.37.3c.31,0,.43-.3.43-.66s-.12-.64-.44-.64a.41.41,0,0,0-.37.3.49.49,0,0,0,0,.12ZM22,3.26c0-.1,0-.3,0-.41v-2h.39v.93h0a.63.63,0,0,1,.53-.23c.38,0,.67.3.67.86s-.37.89-.75.89A.51.51,0,0,1,22.35,3h0l0,.23Z"/><path class="cls-5" d="M23.56,3.74h0a.64.64,0,0,0,.34-.13c.08-.09.12-.22.12-.54V1.56h.39V3.15a.71.71,0,0,1-.25.65,1.24,1.24,0,0,1-.54.16Zm.89-2.62c0,.1-.1.17-.25.17S24,1.22,24,1.12s.1-.18.24-.18S24.45,1,24.45,1.12Z"/><path class="cls-5" d="M26,2.23h0c0-.34-.18-.49-.37-.49s-.39.26-.4.49Zm-.78.2c0,.52.3.63.59.63A1.43,1.43,0,0,0,26.17,3l.06.2a1.75,1.75,0,0,1-.54.08.81.81,0,0,1-.9-.86.81.81,0,0,1,.83-.89.68.68,0,0,1,.71.75.66.66,0,0,1,0,.15Z"/><path class="cls-5" d="M27.18,1.11v.45h.48v.2h-.48v1c0,.22.12.28.26.28h.16l0,.21a1.12,1.12,0,0,1-.29,0,.58.58,0,0,1-.39-.11c-.1-.07-.15-.19-.15-.42v-1h-.3v-.2h.3V1.18Z"/><path class="cls-5" d="M28.2,2.41h0c0,.28.07.66.43.66s.41-.4.41-.66-.07-.66-.42-.66-.42.4-.42.66m1.24,0a.79.79,0,0,1-.83.87.77.77,0,0,1-.8-.87.8.8,0,0,1,.83-.88A.78.78,0,0,1,29.44,2.41Z"/><path class="cls-5" d="M3,5.79H3a.32.32,0,0,0,0,.14.37.37,0,0,0,.36.29c.33,0,.43-.31.43-.66s-.12-.64-.43-.64A.4.4,0,0,0,3,5.23a.53.53,0,0,0,0,.13Zm-.39-.55c0-.26,0-.41,0-.53H3l0,.22H3a.61.61,0,0,1,.52-.24c.43,0,.72.31.72.87a.77.77,0,0,1-.77.88A.49.49,0,0,1,3,6.24H3v.85H2.64Z"/><path class="cls-5" d="M5.55,5.54h0c-.2,0-.68,0-.68.39a.29.29,0,0,0,.31.3A.35.35,0,0,0,5.54,6a.28.28,0,0,0,0-.09Zm.06.87,0-.18h0a.62.62,0,0,1-.49.21c-.33,0-.59-.19-.59-.48s.5-.62,1-.62v0c0-.23-.08-.39-.39-.39A.91.91,0,0,0,4.74,5L4.65,4.8a1.56,1.56,0,0,1,.58-.11c.5,0,.71.22.71.6V6a1.54,1.54,0,0,0,0,.38Z"/><path class="cls-5" d="M6.44,5.15c0-.14,0-.31,0-.44h.35l0,.27h0a.62.62,0,0,1,.53-.29h.08V5H7.33a.46.46,0,0,0-.48.36.68.68,0,0,0,0,.15v.94H6.44Z"/><path class="cls-5" d="M8.55,5.54h0c-.2,0-.68,0-.68.39a.29.29,0,0,0,.3.3A.35.35,0,0,0,8.54,6a.28.28,0,0,0,0-.09Zm.06.87,0-.18h0a.62.62,0,0,1-.49.21c-.34,0-.59-.19-.59-.48s.49-.62,1-.62v0c0-.23-.08-.39-.39-.39A.88.88,0,0,0,7.74,5L7.65,4.8a1.48,1.48,0,0,1,.58-.11c.5,0,.71.22.71.6V6a1.54,1.54,0,0,0,0,.38Z"/><path class="cls-5" d="M11.12,5.54h0c-.21,0-.68,0-.68.39a.28.28,0,0,0,.3.3A.37.37,0,0,0,11.11,6a.28.28,0,0,0,0-.09Zm.05.87,0-.18h0a.62.62,0,0,1-.49.21c-.33,0-.59-.19-.59-.48s.5-.62,1.06-.62v0c0-.23-.09-.39-.4-.39A.91.91,0,0,0,10.3,5l-.08-.19a1.46,1.46,0,0,1,.57-.11c.5,0,.72.22.72.6V6a2.3,2.3,0,0,0,0,.38Z"/><rect class="cls-5" x="12.01" y="3.98" width="0.39" height="2.43"/><path class="cls-5" d="M14.14,6.37a1.07,1.07,0,0,1-.41.06.82.82,0,0,1-.91-.86.89.89,0,0,1,1-.88,1,1,0,0,1,.35,0L14.07,5a1.21,1.21,0,0,0-.28,0,.58.58,0,0,0-.57.65.56.56,0,0,0,.58.64.88.88,0,0,0,.29,0Z"/><path class="cls-5" d="M15.36,5.54h0c-.2,0-.68,0-.68.39a.29.29,0,0,0,.3.3A.35.35,0,0,0,15.35,6a.28.28,0,0,0,0-.09Zm.06.87,0-.18h0a.62.62,0,0,1-.49.21c-.34,0-.59-.19-.59-.48s.5-.62,1-.62v0c0-.23-.08-.39-.39-.39a.91.91,0,0,0-.41.09l-.09-.19A1.52,1.52,0,0,1,15,4.69c.5,0,.71.22.71.6V6a1.54,1.54,0,0,0,0,.38Z"/><path class="cls-5" d="M16.25,5.15c0-.2,0-.3,0-.44h.35l0,.21h0a.67.67,0,0,1,.56-.23.53.53,0,0,1,.6.58V6.41h-.39V5.32c0-.2-.06-.41-.34-.41a.38.38,0,0,0-.38.28.71.71,0,0,0,0,.15V6.41h-.4Z"/><path class="cls-5" d="M18.08,6.25l.78-1,.2-.25h-.88V4.71H19.5v.18l-.78,1c-.06.09-.14.17-.19.25h1v.22H18.08Z"/><path class="cls-5" d="M20.75,5.54h0c-.21,0-.68,0-.68.39a.28.28,0,0,0,.3.3A.37.37,0,0,0,20.74,6a.28.28,0,0,0,0-.09Zm.05.87,0-.18h0a.62.62,0,0,1-.49.21c-.33,0-.59-.19-.59-.48s.5-.62,1.06-.62v0c0-.23-.09-.39-.4-.39a.91.91,0,0,0-.41.09l-.08-.19a1.46,1.46,0,0,1,.57-.11c.5,0,.72.22.72.6V6a2.3,2.3,0,0,0,0,.38Z"/><path class="cls-5" d="M21.63,5.15c0-.14,0-.31,0-.44H22L22,5h0a.62.62,0,0,1,.53-.29h.08V5h-.08a.47.47,0,0,0-.48.36.71.71,0,0,0,0,.15v.94h-.4Z"/><path class="cls-5" d="M23.89,5.56h0c0,.28.07.67.43.67s.41-.4.41-.67-.07-.66-.42-.66-.42.4-.42.66m1.24,0a.8.8,0,0,1-.83.88.78.78,0,0,1-.8-.87.8.8,0,0,1,.83-.88A.78.78,0,0,1,25.13,5.56Z"/><path class="cls-5" d="M26,4.26v.45h.47v.21H26v1c0,.22.11.28.26.28h.16v.21l-.29,0a.62.62,0,0,1-.39-.1c-.1-.08-.15-.19-.15-.43v-1h-.3V4.71h.3V4.34Z"/><path class="cls-5" d="M26.76,5.15c0-.14,0-.31,0-.44h.36l0,.27h0a.59.59,0,0,1,.52-.29h.08V5h-.08a.47.47,0,0,0-.48.36.71.71,0,0,0,0,.15v.94h-.4Z"/><path class="cls-5" d="M28.2,5.56h0c0,.28.07.67.43.67s.41-.4.41-.67S29,4.9,28.62,4.9s-.42.4-.42.66m1.23,0a.79.79,0,0,1-.82.88.77.77,0,0,1-.8-.87.8.8,0,0,1,.83-.88A.77.77,0,0,1,29.43,5.56Z"/><path class="cls-5" d="M9.53,18.82A6,6,0,0,0,10.32,20a3.9,3.9,0,0,1,.61.7l-1.32-.6s-.77-1-1-1.44a5.37,5.37,0,0,1-.25-2.5c.19-.05.39,1.65.39,1.65a9.36,9.36,0,0,0,.79,1"/></svg>