<svg id="Capa_1" data-name="Capa 1" xmlns="http://www.w3.org/2000/svg" viewBox="0 0 29.76 28.83"><defs><style>.cls-1{fill:#b0d240;}.cls-2{fill:#fbcabb;}.cls-3{fill:#231f20;}</style></defs><title>1-11meses</title><polygon class="cls-1" points="20.91 9.2 16.05 14.81 15.09 14.24 19.79 8.99 20.91 9.2"/><path class="cls-2" d="M12.67,28.82S9.24,26.33,9,25.48a6.26,6.26,0,0,1-.21-1.06s-4.25-.6-5.77-2.75-1.15-3-.86-3.47.11-.54.11-.54-.43-1.28.1-1.65a6.76,6.76,0,0,1,1.17-.74c.14,0,.65-1.42,1.29-1.8a8.91,8.91,0,0,1,2.68-.62c.23,0-.66-1.36-.3-1.73a5.75,5.75,0,0,1,3-1.65c1.54-.26,4.06-.37,5,.3S17.52,11.6,17.17,12s-.9.72-2.39.49a6.66,6.66,0,0,1-2.08-.59l-1,.59.13.72s1.25.24,1.27.62a4.48,4.48,0,0,1-.35,1.28s2,1.39,2.93,1.39,2.11-.68,2.19-1.12-.32-2.18,0-2.82,2.16-.78,2.36-.56,1.2,2,1.63,2.66-.18,2.08-.37,2.73S20,20.6,20,20.6l-.24.41s3.79,2.69,4.65,3.58,4.43,4.24,4.43,4.24Z"/><path class="cls-3" d="M17.69,15.42h0a3.22,3.22,0,0,1-.5.47c-.1.07-.18.15-.29.22a1.5,1.5,0,0,1-.28.17,1.65,1.65,0,0,1-.72.07,5.49,5.49,0,0,1-1.57-.44,15,15,0,0,1-1.4-.65,1.73,1.73,0,0,0,.17-.21,2.2,2.2,0,0,0,.27-.82,1,1,0,0,0-.65-1A3.62,3.62,0,0,0,11.9,13a.71.71,0,0,0-.15-.36,4.74,4.74,0,0,0,.78-.25,3.2,3.2,0,0,0,.37-.19l.11-.06a2.92,2.92,0,0,0,.83.48,4.26,4.26,0,0,0,1.35.26,3.84,3.84,0,0,0,1.07-.09l-.11.12c-.36.44-.73.89-1.06,1.36h0l.52.3.26.14.13.07.06,0h0s0,0,0,0h0l.12-.14c.05,0,0,.09,0,.06s.22-.25.33-.38l.36-.38.73-.81a2.32,2.32,0,0,0,0,.87A3.18,3.18,0,0,0,18,15a.83.83,0,0,1-.09.2,1.5,1.5,0,0,1-.19.25m-5.14-.5h0a1.73,1.73,0,0,1-.37.54,1.84,1.84,0,0,1-.49.33,1.28,1.28,0,0,1-.25.11,3.11,3.11,0,0,0-.66-.46,11.33,11.33,0,0,0-1.38-.55c-.24-.07-.46-.15-.76-.22a6,6,0,0,0-.84-.08c-.55,0-1.09,0-1.61.05s-1.05.1-1.55.18a5.64,5.64,0,0,0-.81.2l.3-.32a8.36,8.36,0,0,1,1-.89A2.88,2.88,0,0,1,6,13.38a8.23,8.23,0,0,1,1.16-.28A8.32,8.32,0,0,1,8.47,13,10.79,10.79,0,0,1,9.86,13c.47.06.92.14,1.34.22a4.4,4.4,0,0,1,1.1.38.71.71,0,0,1,.4.57A2.62,2.62,0,0,1,12.55,14.92Zm-1.72,2.17h0a3.9,3.9,0,0,1-.69.52,2.65,2.65,0,0,1-.67.25H9.38a2.8,2.8,0,0,0-.87-.72A7.08,7.08,0,0,0,7,16.54a5.82,5.82,0,0,0-.85-.18c-.14,0-.3,0-.46-.06s-.26,0-.44,0a3.91,3.91,0,0,0-1.73.47,4.25,4.25,0,0,0-1,.74.41.41,0,0,1,0-.11,2.17,2.17,0,0,1,.42-1.2,2.43,2.43,0,0,1,.73-.63,4.49,4.49,0,0,1,1.12-.5,7,7,0,0,1,3-.22,5.07,5.07,0,0,1,.72.16,6.08,6.08,0,0,1,.65.25,8.84,8.84,0,0,1,1.23.57,1.75,1.75,0,0,1,.73.64A.66.66,0,0,1,10.83,17.09Zm-3.12-5.9h0a1.83,1.83,0,0,1,.52-.7,2.85,2.85,0,0,1,.9-.48,10.85,10.85,0,0,1,2.31-.56,9,9,0,0,1,2.48,0A2.62,2.62,0,0,1,15,9.78a4.09,4.09,0,0,1,.85.61,4.73,4.73,0,0,1,.66.69,1.39,1.39,0,0,1,.33.73c0,.19-.22.34-.54.44a3.12,3.12,0,0,1-1.07.14,3.09,3.09,0,0,1-2-.65L13,11.55l-.21.18-.26.2-.3.19a3,3,0,0,1-.69.29l-.39.09-.4.05a3.42,3.42,0,0,1-.84-.08l0,0a2.45,2.45,0,0,0,.41.12,3.11,3.11,0,0,0,.44.07,3.53,3.53,0,0,0,.46,0l.45-.06h0l.11.32-.46-.09a10.13,10.13,0,0,0-1.46-.08l-1.43,0-.83,0A2.73,2.73,0,0,1,7.71,11.19Zm8.49,3.5Zm0,0h0s0,0,0,0S16.2,14.69,16.22,14.69Zm2.54-4.32h0c.35-.44.73-.86,1.13-1.28l.81.22c-.47.47-.94.95-1.38,1.43s-.95,1-1.4,1.54-.88,1.05-1.29,1.59c-.11.13-.21.26-.31.4s-.17.23-.25.37l-.1-.05-.28-.12-.55-.22c.45-.41.87-.82,1.29-1.24l.41-.44a1.45,1.45,0,0,0,.36-.22.53.53,0,0,0,.13-.13.74.74,0,0,0,.08-.13.64.64,0,0,0,.05-.17l.19-.21C18.05,11.27,18.4,10.82,18.76,10.37ZM28.87,28.83a34.94,34.94,0,0,0-5.77-5.64,11.87,11.87,0,0,0-3.16-2.06l.09-.08a5.22,5.22,0,0,0,1.2-1.83c.26-.63.5-1.26.71-1.89.11-.32.21-.64.29-1a6.3,6.3,0,0,0,.2-1,1.37,1.37,0,0,0-.05-.53,2.25,2.25,0,0,0-.28-.47c-.22-.3-.48-.57-.73-.85a4.69,4.69,0,0,1-.62-.86,2.85,2.85,0,0,0-.29-.45,1,1,0,0,0-.52-.38,1.41,1.41,0,0,0-.77.05,3.94,3.94,0,0,0-.55.22c.36-.41.7-.82,1.05-1.23s.87-1.05,1.3-1.58L21,9.23l-.13,0-1-.23h-.06l0,0a16.49,16.49,0,0,1-1.22,1.3c-.4.4-.8.79-1.18,1.2a2.14,2.14,0,0,0-.39-.6,4.73,4.73,0,0,0-.81-.72,6.86,6.86,0,0,0-1-.57A3.81,3.81,0,0,0,14,9.26a11.24,11.24,0,0,0-1.29-.06l-1.29,0a9,9,0,0,0-2.53.43,2.87,2.87,0,0,0-1.07.6,1.79,1.79,0,0,0-.54.86,2.15,2.15,0,0,0,0,.91,2.59,2.59,0,0,0,.32.82H7.07A6.27,6.27,0,0,0,5.75,13a2.59,2.59,0,0,0-1,.54,3.66,3.66,0,0,0-.86,1.06,1.91,1.91,0,0,0-.18.44,3.19,3.19,0,0,0-.46.2,2.4,2.4,0,0,0-.84.75,1.7,1.7,0,0,0-.21,1.38,1.86,1.86,0,0,0,.11.27,2.74,2.74,0,0,0-.6,1.14A2.33,2.33,0,0,0,1.76,20a3.21,3.21,0,0,0,.57,1.1,5.55,5.55,0,0,0,.89,1c.17.15.36.29.54.44l.6.42a10.39,10.39,0,0,0,1.32.72,11.94,11.94,0,0,0,2.9.93v.2c0,.11.07.22.11.34a2.39,2.39,0,0,0,.16.32,1.44,1.44,0,0,0,.19.31,1.29,1.29,0,0,0,.22.3,3.36,3.36,0,0,0,.24.29,6.88,6.88,0,0,0,.53.55,15.36,15.36,0,0,0,2.58,1.93l.05,0-1.17-1c-.38-.34-.73-.7-1.06-1.06a7.38,7.38,0,0,1-.88-1.11,2.19,2.19,0,0,1-.17-.29c0-.1-.1-.2-.13-.29l-.09-.3,0-.29,0-.17-.22,0c-.51-.07-1-.19-1.55-.31a11.91,11.91,0,0,1-1.5-.47,8.38,8.38,0,0,1-1.35-.64c-.22-.12-.4-.26-.6-.39s-.37-.29-.53-.44a4.9,4.9,0,0,1-.81-1A3,3,0,0,1,2.15,20a2.2,2.2,0,0,1,.07-1.08,2.56,2.56,0,0,1,.6-1,3.26,3.26,0,0,1,1.06-.77,3.23,3.23,0,0,1,1.35-.36l.38,0,.37.05a6.69,6.69,0,0,1,.75.16,7.28,7.28,0,0,1,1.38.51,1.79,1.79,0,0,1,.89.78c.08.14,0,.32,0,.43a1.15,1.15,0,0,1-.47.38,3.87,3.87,0,0,1-1.5.26H6.52a11.52,11.52,0,0,1-1.17-.09l0,0q.38.09.75.15l-.14,0,0,.09a.62.62,0,0,1,.07.27.56.56,0,0,1-.08.36.66.66,0,0,1-.15.19,1.35,1.35,0,0,1-.53.3,1.19,1.19,0,0,1-.32.1,5.61,5.61,0,0,1-.61.13L3.92,21l-.18,0h.18c.11,0,.27,0,.46,0s.42,0,.66-.06l.37-.07a2.29,2.29,0,0,0,.37-.12,1.8,1.8,0,0,0,.34-.17,1.47,1.47,0,0,0,.26-.23.88.88,0,0,0,.23-.49.93.93,0,0,0,0-.34l.39.05a4.47,4.47,0,0,0,1.73-.2,1.49,1.49,0,0,0,.66-.46.83.83,0,0,0,.17-.34.65.65,0,0,0,0-.34A.87.87,0,0,0,9.46,18h0a2.65,2.65,0,0,0,.86-.18,3.27,3.27,0,0,0,.89-.51,1.34,1.34,0,0,0,.4-.42.71.71,0,0,0,.09-.57,1.2,1.2,0,0,0-.21-.34l.28-.06a2.3,2.3,0,0,0,1.07-.64,10.34,10.34,0,0,0,1.26.78,5.83,5.83,0,0,0,1.68.57,2.13,2.13,0,0,0,1-.07,1.81,1.81,0,0,0,.42-.22l.32-.23a4.81,4.81,0,0,0,.58-.51,3.4,3.4,0,0,0,.23-.3.91.91,0,0,0,.15-.36v0l0,0a3.74,3.74,0,0,1-.37-.88,1.88,1.88,0,0,1,0-.91,1.22,1.22,0,0,1,.59-.77A1.66,1.66,0,0,1,19.86,12c.37.11.54.46.7.75a6,6,0,0,0,.59.89c.22.29.45.57.63.86a1,1,0,0,1,.18.87,13.58,13.58,0,0,1-.61,1.87c-.24.62-.5,1.24-.78,1.85a5.55,5.55,0,0,1-1.08,1.71,3.5,3.5,0,0,1-.89.64,3.2,3.2,0,0,1-1.18.28h-.2l0,.13a2.55,2.55,0,0,1-.17.32,2.51,2.51,0,0,1-.25.32,3.08,3.08,0,0,1-.71.54,5.81,5.81,0,0,1-.91.4,8.91,8.91,0,0,1-1.05.24v0a6.91,6.91,0,0,0,1.11-.16,5.16,5.16,0,0,0,1.05-.34,4,4,0,0,0,.85-.56,2.73,2.73,0,0,0,.34-.34,2.46,2.46,0,0,0,.17-.27,4,4,0,0,0,1.3-.28,3.62,3.62,0,0,0,1-.62Z"/><path class="cls-3" d="M7.64,18.29c0-.05.05-.1.08-.14l.09-.24a.82.82,0,0,0,0-.11l0,0a.69.69,0,0,0-.15,0,.67.67,0,0,0-.29.21.5.5,0,0,0-.11.17.54.54,0,0,0,0,.22,1.55,1.55,0,0,1,0,.23.28.28,0,0,0,.08.12.36.36,0,0,0,.21.08A1.09,1.09,0,0,0,8,18.79a1,1,0,0,0,.28-.14.56.56,0,0,0,.28-.39.45.45,0,0,0-.14-.39h0a2,2,0,0,1-.21.32l-.24.25a.63.63,0,0,1-.17.13.88.88,0,0,1-.17.12.09.09,0,0,1-.13-.05.21.21,0,0,1,.06-.19,1.83,1.83,0,0,0,.13-.16"/><path class="cls-3" d="M10.22,16.27l-.12.06-.25.14-.27.13-.11,0s-.07,0-.11,0h0s0,0,0,0H9.26c-.07,0-.13-.06-.12-.11s.06-.1.13-.13a1.76,1.76,0,0,1,.2-.09l.14-.1a1.2,1.2,0,0,0,.26-.27l0,0a1.23,1.23,0,0,0-.49.1l-.18.11a.47.47,0,0,0-.12.19c0,.13-.11.28,0,.44l0,0s0,0,0,0l0,0a.46.46,0,0,0,.13.07.78.78,0,0,0,.71-.08.55.55,0,0,0,.15-.16.42.42,0,0,0,.09-.35Z"/><path class="cls-3" d="M12.13,14.08h-.05s-.14.15-.33.31a1.13,1.13,0,0,1-.31.19.61.61,0,0,1-.42,0c-.1-.05-.14-.08-.15-.16a.24.24,0,0,1,.13-.17c.07-.05.16-.09.22-.14l.16-.13a2,2,0,0,0,.29-.34l0,0a1.35,1.35,0,0,0-.54.19,1,1,0,0,0-.2.15.59.59,0,0,0-.12.22,1.84,1.84,0,0,0,0,.25.42.42,0,0,0,.1.26.58.58,0,0,0,.32.21.9.9,0,0,0,.46,0,.68.68,0,0,0,.5-.36.55.55,0,0,0,.05-.31l0-.12"/><path class="cls-3" d="M14.8,12a.83.83,0,0,0,.26,0,1.8,1.8,0,0,0,.44-.09,1.32,1.32,0,0,0,.51-.34.94.94,0,0,0,.25-.44h0l-.15.07-.36.19-.46.25a.82.82,0,0,1-.24.1l-.12,0a1.23,1.23,0,0,1-.17,0c-.06,0-.18-.07-.17-.14a.25.25,0,0,1,.15-.19,2.18,2.18,0,0,1,.25-.14l.2-.15a2.3,2.3,0,0,0,.37-.36l0,0a1.85,1.85,0,0,0-.61.2.78.78,0,0,0-.39.39.9.9,0,0,0-.08.28.35.35,0,0,0,.21.29.51.51,0,0,0,.18.08"/><path class="cls-3" d="M19.16,13.13l.3-.12.24-.14a2.61,2.61,0,0,0,.45-.34l0,0a1.9,1.9,0,0,0-.66.15,1.38,1.38,0,0,0-.27.14A1.15,1.15,0,0,0,19,13c-.06.08-.13.16-.19.25a.33.33,0,0,0-.05.32c0,.11.2.21.29.26a1.13,1.13,0,0,0,.49.1.92.92,0,0,0,.44-.11,1,1,0,0,0,.27-.18.73.73,0,0,0,.25-.46h0l-.14.08-.36.2-.23.1a2,2,0,0,1-.23.06,1,1,0,0,1-.24,0l-.15,0a.39.39,0,0,1-.13-.06.14.14,0,0,1,0-.2.49.49,0,0,1,.24-.18"/><path class="cls-3" d="M15.26,16.81s-.2.27-.43.66c-.12.2-.24.43-.36.68a5.28,5.28,0,0,0-.28.79,4.74,4.74,0,0,0-.14.81c0,.13,0,.25,0,.37a2,2,0,0,0,0,.35c0,.1,0,.2,0,.29a1,1,0,0,1,0,.23c0,.13,0,.2,0,.2A1.28,1.28,0,0,1,14,21a2.2,2.2,0,0,1-.29-.5,1.4,1.4,0,0,1-.13-.36,2.38,2.38,0,0,1-.07-.4,2.16,2.16,0,0,1,0-.44,2.36,2.36,0,0,1,.08-.45,2.6,2.6,0,0,1,.16-.44,4.1,4.1,0,0,1,.22-.41,3.71,3.71,0,0,1,.57-.66,3,3,0,0,1,.75-.54"/><path class="cls-3" d="M5.91,22.39l.39-.19c.26-.11.61-.29,1-.5a14.83,14.83,0,0,0,1.35-.76,6.08,6.08,0,0,0,.66-.47,2,2,0,0,0,.49-.54.77.77,0,0,0,.12-.28c0-.13.05-.23.09-.36a3.3,3.3,0,0,1,.31-.69,6.61,6.61,0,0,1,.8-1.11,7.6,7.6,0,0,1,1-1l-.19.3c-.13.18-.3.46-.5.79a10.51,10.51,0,0,0-.59,1.12,4,4,0,0,0-.23.63c0,.1-.05.24-.07.34a1.16,1.16,0,0,1-.16.4,2.25,2.25,0,0,1-.62.65,5.47,5.47,0,0,1-.76.49,10.74,10.74,0,0,1-1.52.67c-.47.17-.87.29-1.16.37l-.45.11"/><path class="cls-3" d="M6.6,2.74h.15c.39,0,.65-.18.65-.51s-.15-.46-.58-.46a.68.68,0,0,0-.22,0ZM6.2,1.6a3.22,3.22,0,0,1,.58,0,1.38,1.38,0,0,1,.76.17.57.57,0,0,1,.26.49.6.6,0,0,1-.21.48A1.23,1.23,0,0,1,6.77,3H6.6v1H6.2Z"/><path class="cls-3" d="M8.18,3.93h0V2.23h.4v1.7ZM8.61,1.8c0,.1-.09.17-.24.17s-.23-.07-.23-.17a.21.21,0,0,1,.23-.18C8.52,1.62,8.61,1.69,8.61,1.8Z"/><path class="cls-3" d="M9.13,2.67c0-.2,0-.3,0-.44h.34l0,.21h0a.71.71,0,0,1,.57-.23.54.54,0,0,1,.6.58V3.93h-.4V2.84c0-.2-.05-.41-.34-.41a.38.38,0,0,0-.37.28.68.68,0,0,0,0,.15V3.93H9.13Z"/><path class="cls-3" d="M11,3.77l.79-1a2.73,2.73,0,0,1,.2-.25H11.1V2.23h1.32v.18l-.77,1c-.07.09-.15.17-.2.25h1v.22H11Z"/><path class="cls-3" d="M13.72,3.06h0c-.2,0-.68,0-.68.39a.28.28,0,0,0,.3.3.36.36,0,0,0,.37-.26.28.28,0,0,0,0-.09Zm.06.87,0-.18h0a.64.64,0,0,1-.49.21c-.34,0-.59-.19-.59-.48s.49-.62,1.05-.62v0c0-.23-.08-.39-.39-.39a1,1,0,0,0-.41.09l-.09-.19a1.48,1.48,0,0,1,.58-.11c.49,0,.71.22.71.6v.74a1.54,1.54,0,0,0,0,.38Z"/><path class="cls-3" d="M15.55,3.93V2.44h-.31V2.23h.31V2.12c0-.3.21-.64.9-.64a1.31,1.31,0,0,1,.48.08l-.08.21a1.32,1.32,0,0,0-.41-.07c-.4,0-.5.19-.5.45v.08h1.11v1.7h-.39V2.44h-.72V3.93Z"/><path class="cls-3" d="M17.6,2.67c0-.2,0-.3,0-.44h.35l0,.21h0a.68.68,0,0,1,.57-.23.53.53,0,0,1,.59.58V3.93h-.39V2.84c0-.2-.06-.41-.34-.41a.38.38,0,0,0-.38.28.71.71,0,0,0,0,.15V3.93h-.4Z"/><path class="cls-3" d="M20.6,3.06h0c-.21,0-.68,0-.68.39a.28.28,0,0,0,.3.3.37.37,0,0,0,.37-.26.28.28,0,0,0,0-.09Zm0,.87,0-.18h0a.61.61,0,0,1-.49.21c-.33,0-.59-.19-.59-.48s.5-.62,1.06-.62v0c0-.23-.08-.39-.4-.39a1.07,1.07,0,0,0-.41.09l-.08-.19a1.48,1.48,0,0,1,.58-.11c.49,0,.71.22.71.6v.74a2.3,2.3,0,0,0,0,.38Z"/></svg>