<svg id="Capa_1" data-name="Capa 1" xmlns="http://www.w3.org/2000/svg" viewBox="0 0 31.12 28.28"><defs><style>.cls-1{fill:#f8992f;}.cls-2{fill:#f5a4c7;}.cls-3{fill:#fbc9b7;}.cls-4{fill:#231f20;}</style></defs><title>2-11meses</title><path class="cls-1" d="M10.75,20.74a3.58,3.58,0,0,0,2.56,1.31,4.72,4.72,0,0,0,3.84-1c.47-.59,1-1.95.34-2.8a4.05,4.05,0,0,0-3.09-1.67c-1.51-.1-4.31.68-3.94,2.52s.29,1.65.29,1.65"/><path class="cls-2" d="M7.52,23.81a14.17,14.17,0,0,0-3.46-.51C1.94,23.23,1,23,1,23.56s0,3,.62,3.3a13.27,13.27,0,0,0,2.89.6Z"/><path class="cls-3" d="M31.12,15.06V8l-3.87,3.81a4.55,4.55,0,0,1-2,1c-1,.12-1.58.23-2.44.37s-1.95.19-1.95.19-.35.26,0,.44a9.78,9.78,0,0,0,1.54.41l-1.19.68s-.83-.52-.89-.1a2.81,2.81,0,0,0,0,.58,12.11,12.11,0,0,0-2.18,1.09c-.32.35-.21.64.26.61a20.51,20.51,0,0,0,2.68-.88l-.84.83c-.07.07-.92.67-.85.87s.7,0,.7,0-.57.59-.49.77.29.43,1.32,0a10.32,10.32,0,0,0,1.89-1,8.46,8.46,0,0,1-.74,1.12c-.26.27-.47,1.11-.22,1.11a10.38,10.38,0,0,0,1.78-1.28s-.34,1.35-.06,1.44,1.36-1.18,1.36-1.18,0,1.34.44,1.23.93-1.09,1-1.14.71-1.23.71-1.23A23.76,23.76,0,0,1,29.14,16a21.24,21.24,0,0,1,2-.9"/><path class="cls-3" d="M7.3,23.78a5,5,0,0,0-1.95-.39l-4-.18A15.35,15.35,0,0,1,2.5,20.94c.29-.26,2.21-2.36,2.75-3s.5-.8.3-1.21-.52-1-.33-1.21,2.61-1.72,2.91-1.95a14.17,14.17,0,0,1,2.9-.52c.05,0,.76.71.74,1.19s-.73,1.1-.63,1.42.65.59.53.7a1.86,1.86,0,0,1-.43.23s.2.48,0,.47-.73,0-.73,0a2.12,2.12,0,0,0,.43.23c.15.05-.23.41-.19.55s-.1.29-.94.3S8,18.1,8,18.1l-.18.48a11,11,0,0,0,3.07.58,12.36,12.36,0,0,0,3.54-.94c.29-.26.77-1.22,1-1.37s.2.15.11.35a1.16,1.16,0,0,0,.05.62s1.16-.45,1.24-.35-.55.71-.55.71.88-.25,1-.12-.51.61-.51.61.72.39.43.46-.57.2-.54.31.14.32-.27.31-1.45-.14-1.45-.14a3.09,3.09,0,0,1-1.09.79c-.53.16-2.86.41-2.86.41l-1.82.13a4.54,4.54,0,0,1,.26.9,15.34,15.34,0,0,1-.29,1.65,8.28,8.28,0,0,1,2.63.08c.49.3,1.61.85,1.61.85a3.48,3.48,0,0,0,.82-.56c.16-.22.34-.56.68-.44a.45.45,0,0,1,.26.52s.07.66.07.66a9.64,9.64,0,0,0,1.13-.46c.16-.12.17-.3.51-.21s.31.27.31.27.21-.1.25.05a.53.53,0,0,1,0,.24s.19-.07.13.11a5.8,5.8,0,0,0-.16.66,3,3,0,0,1-.72.92,7.68,7.68,0,0,1-2,1c-.34,0-.86-.4-1.24-.41s-2.93-.3-2.93-.3a12.09,12.09,0,0,1-3.37.93,7.32,7.32,0,0,1-3.63-.59,1.17,1.17,0,0,1-.39-1.94A3.45,3.45,0,0,1,5.34,24a6.23,6.23,0,0,0,2-.18"/><polygon class="cls-4" points="12.07 14.78 12.04 14.7 12.04 14.71 12.07 14.78"/><path class="cls-4" d="M11.13,15.11s.1-.36-.41-.33a5.35,5.35,0,0,0-1.45.52A7.81,7.81,0,0,0,10.32,15a.69.69,0,0,1,.81.13"/><path class="cls-4" d="M10.52,15.26a3,3,0,0,0-.78.21l.46-.08s-.17.21.09.23a.3.3,0,0,0,.32-.24s.1,0,.13,0,.08-.17-.22-.15"/><path class="cls-4" d="M17.39,20.21h0a2.33,2.33,0,0,1-.93,1.07,4,4,0,0,1-1.49.56,6.41,6.41,0,0,1-1.54.13,4.22,4.22,0,0,1-1.24-.27,4.33,4.33,0,0,1-.82-.44c-.19-.14-.33-.26-.43-.35l.54-.1.18.05.29,0a3,3,0,0,0,.52,0l.25,0,.24-.05a3.36,3.36,0,0,0,.48-.13,6.29,6.29,0,0,0,.83-.36,4.49,4.49,0,0,0,.63-.4l.77-.07.2,0a1.36,1.36,0,0,0,.29,0,1.3,1.3,0,0,0,.34,0l.19,0,.18-.08A.33.33,0,0,0,17,19.6a.25.25,0,0,0,0-.21l-.08-.08.2,0a.9.9,0,0,0,.21-.08.74.74,0,0,0,.13-.12v0h0v0h0a.26.26,0,0,0-.13-.24.88.88,0,0,0-.21-.09l-.13,0,.21-.11a.58.58,0,0,0,.13-.14h0a2.46,2.46,0,0,1,.15.51,2.88,2.88,0,0,1-.15,1.34m-7.24.49h0c-.43.07-.87.13-1.32.17a12.84,12.84,0,0,1-2.7,0l0,0s0,0,0,0a10.37,10.37,0,0,0,2.74.24h.29c0,.07,0,.18,0,.32s0,.26,0,.4,0,.3,0,.45c0,.31-.05.61-.07.85s0,.21,0,.28l-.63.09-1.14.19-.05,0c-.15,0-.31-.06-.46-.09l-.9-.17c-.61-.1-1.22-.2-1.84-.27A16.59,16.59,0,0,0,2.09,23l-.54,0a13.29,13.29,0,0,1,1.29-2.28,10.65,10.65,0,0,1,2-2.25,7.47,7.47,0,0,1,.63-.48l.17-.13c.06-.06.13-.11.18-.17a.8.8,0,0,0,.18-.4.84.84,0,0,0-.2-.61l-.08-.29A.5.5,0,0,1,5.87,16a1.12,1.12,0,0,0,0,.21,1.33,1.33,0,0,0,.88.77,1.21,1.21,0,0,0,.47.05l.17,0,0,0H7.26a1,1,0,0,1-.37-.1,1,1,0,0,1-.51-.7.3.3,0,0,1,0-.19l0,0h0s0,0,0,0c.37,0,.48.11.91.4L7.26,16h0v0l.37.25s-.4-.39-.36-.75a1,1,0,0,0,.24-.57s0-.18,0,.27l-.11.55.51-.58-.1.5.49-.5.73-.88,0,.72L9.58,14,9.4,15l.4-.58.79-1-.2.87.43-.67,0,1.1.69-1.1c0,.08.07.15.1.22a1.14,1.14,0,0,1,0,.63,4.08,4.08,0,0,1-.32.62,1.92,1.92,0,0,0-.18.31c0,.11-.13.23-.06.37a1.18,1.18,0,0,0,.3.29c.09.08.2.18.15.23s-.19.13-.32.2-.09,0-.11.12a.21.21,0,0,0,.06.1.25.25,0,0,1,.06.13.07.07,0,0,1,0,.08l-.09,0H11a2.18,2.18,0,0,1-.44,0h-.06c-.06,0-.09,0-.07.09a.71.71,0,0,0,.14.23.43.43,0,0,0,.34.14h0l-.08.08h0a.15.15,0,0,0-.06.05s0,0,0,.06a2.17,2.17,0,0,0-.27.37l-.17,0L10,18a9,9,0,0,1-1.27,0l-.31,0-.32,0H7.92l-.15.05a.32.32,0,0,0-.12.16.66.66,0,0,0,0,.24l-.36,0a3.19,3.19,0,0,0-1.51.32s0,0,0,0h0a3.6,3.6,0,0,1,1.46-.17,2.56,2.56,0,0,1,.69.14,3,3,0,0,1,.32.12l.35.14a6,6,0,0,0,1.57.28c.27,0,.54,0,.81,0a7.49,7.49,0,0,0,.81-.05h.07l1.49-.51.37-.13.38-.11a2.66,2.66,0,0,0,.41-.16,1,1,0,0,0,.32-.27,2.47,2.47,0,0,0,.24-.58,1.92,1.92,0,0,1,.27-.51s0,0,0,0l0,0a.57.57,0,0,1,0,.26,1.47,1.47,0,0,0,0,.59s0,0,0,0a.12.12,0,0,0,.12,0,6,6,0,0,1,.64-.2l.33-.07.16,0h0l0,0-.09.09-.22.18c-.16.12-.33.23-.5.34a.08.08,0,0,0,0,.11.19.19,0,0,0,.18,0h0a6.45,6.45,0,0,1,.63-.16,1.52,1.52,0,0,1,.29,0h.07s0,0,0,0,0,0,0,.05,0,0,0,0l-.08,0a1.08,1.08,0,0,1-.24.11,5.44,5.44,0,0,1-.61.15.17.17,0,0,0-.17.15c0,.08.09.16.22.16h0a5.07,5.07,0,0,1,.56.05h0a5,5,0,0,1-.55,0,.32.32,0,0,0-.28.1c-.07.1,0,.21.12.26h0a2,2,0,0,1,.36.17h-.17l-.2,0-.21-.05a.37.37,0,0,0-.15,0h0l-.94.08a.36.36,0,0,0-.18.07h0c-.19.14-.42.28-.64.41a5.88,5.88,0,0,1-.72.33l-.38.11-.21,0-.2,0-.4,0-.17,0c-.05,0-.12,0-.09,0l-.28,0C11,20.54,10.59,20.63,10.15,20.7Zm.61,2.88H11l.27,0a3,3,0,0,1,.46.14,5.67,5.67,0,0,1,.86.5l.85.57a5.19,5.19,0,0,0,1,.5h0a.26.26,0,0,0,.24,0,7.54,7.54,0,0,1,.59-.52,4.42,4.42,0,0,1,.67-.46l.2-.07a.72.72,0,0,0,.24-.1A.7.7,0,0,0,16.6,24s0,0,.1,0a.8.8,0,0,1,.2.07c.06,0,.1.05.11.09s0,.05-.05.09a1.18,1.18,0,0,0-.19.11.06.06,0,0,0,0,.08.12.12,0,0,0,.13,0h0l.08-.05,0,0,.12-.06.11,0h0v.06s0,0,0,0a.18.18,0,0,1-.08.06l-.11.06-.16.05s-.07.06,0,.1.08.05.14,0h0l.27-.08h.11v.06l-.06.07,0,0-.11,0a.31.31,0,0,0-.11.08h0a.08.08,0,0,0,0,.12.15.15,0,0,0,.15,0l-.08,0a.18.18,0,0,0-.08.06c-.05.07,0,.14.09.17h.05l-.13.2a3.9,3.9,0,0,1-.31.4l-.09.09-.1.08-.22.15c-.16.1-.34.19-.52.28l-.55.26-.29.12-.27.1-.11,0h-.08a.41.41,0,0,1-.18,0,.71.71,0,0,1-.18-.12.64.64,0,0,1-.14-.15.35.35,0,0,0-.31-.12h0c-.49,0-1,0-1.51,0a5.51,5.51,0,0,1-.71-.08l-.3-.08-.11-.05L11,26.26l-.08,0a.41.41,0,0,0-.39,0,5.59,5.59,0,0,1-.65.35,5.84,5.84,0,0,1-.73.29c-.26.09-.52.16-.79.23s-.55.11-.83.15l-.42.05c-.14,0-.28,0-.43,0a8.22,8.22,0,0,1-.86,0,8.29,8.29,0,0,1-.87-.06H4.86a.31.31,0,0,0-.1-.05h0a3.52,3.52,0,0,1-1.64-.82A.62.62,0,0,1,3,26.1a.47.47,0,0,1,0-.3,2.73,2.73,0,0,1,.36-.7,2.43,2.43,0,0,1,1.48-.94A7.37,7.37,0,0,1,5.93,24L6.5,24c.19,0,.37,0,.57,0l.18-.08,1.18-.12C9.21,23.65,10,23.58,10.76,23.58Zm3.39.58h0l.16-.09.08-.06c.06,0,0,0,.07-.07a.27.27,0,0,0,.07-.2v-.15a.14.14,0,0,1,0-.11s0,0,.09,0a.25.25,0,0,1,.12,0l.07.05a.06.06,0,0,1,0,0s0,.07-.07.13a1,1,0,0,1-.19.16l.17.34s0,0,0,0l0,0,.06,0a.32.32,0,0,1,.1.12.65.65,0,0,1,0,.21v.08l-.45.34a5.23,5.23,0,0,1-1.07-.68A2.47,2.47,0,0,0,14.15,24.16Zm3.24.4Zm0,.37Zm-.16.35ZM7.12,23.85h0l-.07,0c-.16,0-.34,0-.51,0ZM1.51,26.4h0a2.29,2.29,0,0,1-.34-1.22,9.11,9.11,0,0,1,0-1.28l0-.31c0-.13,0-.14.11-.18a2.43,2.43,0,0,1,.8-.06c.59,0,1.2.09,1.82.14s1.24.07,1.86.1l.93.06c.13,0,.26,0,.39.06l-1,.2H5.92a6.61,6.61,0,0,0-1.17,0,3,3,0,0,0-.58.12,3.16,3.16,0,0,0-.54.2,2.61,2.61,0,0,0-.46.3,2.23,2.23,0,0,0-.34.35,3,3,0,0,0-.44.77.76.76,0,0,0-.07.47.92.92,0,0,0,.23.45,2.37,2.37,0,0,0,.67.49l-.38,0A1.83,1.83,0,0,1,1.51,26.4ZM8,18.22H8S8,18.22,8,18.22Zm4.07-1.11h0a4.74,4.74,0,0,1,1.46-.36,6.27,6.27,0,0,1,1.66.08l0,0a2,2,0,0,0-.37.55,2.72,2.72,0,0,1-.28.51.47.47,0,0,1-.22.16,2,2,0,0,1-.34.1l-.4.1-.39.12c-.5.15-1,.31-1.47.5L11,19h-.74c-.25,0-.5,0-.74-.07a4.69,4.69,0,0,1-.69-.13l-.34-.11c-.13,0-.24-.09-.38-.12l-.09,0a.08.08,0,0,0,0-.08H8a.49.49,0,0,1,0-.17.1.1,0,0,1,0,0H8l.32,0h.33A9.51,9.51,0,0,0,10,18.2l.34-.05h0a.53.53,0,0,0,0,.12,1,1,0,0,0,0,.5,1.78,1.78,0,0,0,.07.17h.06a.46.46,0,0,1,0-.17,1,1,0,0,1,.1-.45,1.91,1.91,0,0,1,.16-.27.35.35,0,0,0,.21-.18s0,0,0-.06l.13-.11A4.06,4.06,0,0,1,12.08,17.11Zm4.58.33h0l-.16,0-.34.08-.53.17a1.24,1.24,0,0,1,0-.47.54.54,0,0,0,0-.31A3.35,3.35,0,0,1,16.66,17.44Zm.51.53h0a.8.8,0,0,0-.15,0,2.18,2.18,0,0,0-.4,0l-.08,0,.05,0,.23-.2.1-.11A1.42,1.42,0,0,1,17.17,18ZM17,17.52l0,0h0l0,0a4.85,4.85,0,0,0-1.54-.84,5.45,5.45,0,0,0-1.92-.24,4.86,4.86,0,0,0-1.66.43,3.91,3.91,0,0,0-.79.46.33.33,0,0,0-.15-.05.25.25,0,0,1-.19-.07.43.43,0,0,1,0-.07,1.06,1.06,0,0,0,.31,0h.14l.14,0a.2.2,0,0,0,.15-.21.51.51,0,0,0-.09-.18l0,0a0,0,0,0,1,0,0,1,1,0,0,0,.38-.25.18.18,0,0,0,0-.21L11.49,16a1.25,1.25,0,0,1-.26-.25c-.06-.17.14-.39.25-.59a3.28,3.28,0,0,0,.35-.64,1.64,1.64,0,0,0,.05-.32l.16.49a2.11,2.11,0,0,0-1.21-2.22,2.39,2.39,0,0,0-.65-.35L9.63,12a7.51,7.51,0,0,0-3.27-.26C5.23,11.85,2.89,13,3,14.83c.09,1.7,1.61,1.69,2.26,2.14a.41.41,0,0,1,0,.59.94.94,0,0,1-.1.1L5,17.78a7.1,7.1,0,0,0-.65.53A9.43,9.43,0,0,0,2.5,20.69,10.73,10.73,0,0,0,1.85,22a8.13,8.13,0,0,0-.4,1.14,1.47,1.47,0,0,0-.38.11.41.41,0,0,0-.2.19.47.47,0,0,0,0,.19l0,.33L1,25.19c0,.21,0,.42.06.64a2.06,2.06,0,0,0,.21.65,1.54,1.54,0,0,0,.58.55,3,3,0,0,0,.9.32l.94.13a9,9,0,0,0,1,.09.3.3,0,0,0,.27-.11s0,0,0-.06c.27,0,.55.1.84.12a6.79,6.79,0,0,0,.9.05,3.53,3.53,0,0,0,.46,0,3.39,3.39,0,0,0,.45,0,6.5,6.5,0,0,0,.9-.13,7.89,7.89,0,0,0,.87-.21,7.22,7.22,0,0,0,.82-.29,4.3,4.3,0,0,0,.53-.25l.17.08a3.31,3.31,0,0,0,.42.12,6.24,6.24,0,0,0,.84.11,13.43,13.43,0,0,0,1.42,0l.12.11a1.7,1.7,0,0,0,.33.2,1.3,1.3,0,0,0,.46.1,1.13,1.13,0,0,0,.26,0,1.49,1.49,0,0,0,.22-.05l.33-.13.29-.13.58-.28a4.86,4.86,0,0,0,.54-.33l.25-.19.12-.11.09-.11a2.77,2.77,0,0,0,.31-.45l.11-.21a.25.25,0,0,0,0-.13.21.21,0,0,0-.07-.11c.06-.05.15-.09.17-.22a.21.21,0,0,0,0-.1h0s0,0,0,0h0l.06-.07a.19.19,0,0,0,0-.08.25.25,0,0,0,0-.08c0-.06-.13-.12-.21-.13a.11.11,0,0,0,0-.06.16.16,0,0,0,0-.07s0-.06-.07-.09a.23.23,0,0,0-.14,0h-.07s0,0,0,0-.11-.13-.18-.17a1.12,1.12,0,0,0-.24-.08.31.31,0,0,0-.17,0,.21.21,0,0,0-.15.08.71.71,0,0,1-.13.12.42.42,0,0,1-.18.06l-.24.08a3.55,3.55,0,0,0-.39.2.44.44,0,0,0-.12-.35,1,1,0,0,0-.15-.11.31.31,0,0,0,0-.1.33.33,0,0,0,0-.2.36.36,0,0,0-.16-.19.54.54,0,0,0-.13-.07l-.1,0a1.15,1.15,0,0,0-.26,0,.38.38,0,0,0-.25.1,1.1,1.1,0,0,0-.11.14.65.65,0,0,1-.11.12s-.08.07-.09.06l-.06,0-.07,0a.67.67,0,0,0-.14.09,2,2,0,0,0-.43.38L13,24a4.79,4.79,0,0,0-1-.54,3.36,3.36,0,0,0-.63-.18l-.32,0h-.32a13.47,13.47,0,0,0-1.58.13,1.72,1.72,0,0,0,.17-.19,1.79,1.79,0,0,0,.33-.9,1.64,1.64,0,0,0-.21-.91,1.27,1.27,0,0,0-.23-.29c.34,0,.67,0,1-.08l.57-.08h0a2.59,2.59,0,0,0,.36.43,3,3,0,0,0,.79.56,3.82,3.82,0,0,0,1.38.4,6.33,6.33,0,0,0,1.78-.07,4.27,4.27,0,0,0,1.75-.66,2.32,2.32,0,0,0,1-2.76A2.8,2.8,0,0,0,17,17.52Z"/><path class="cls-4" d="M19.6,18h0c-.09,0-.12,0-.09,0s0,0,0,0h0s0,0,.06-.06a1.43,1.43,0,0,1,.18-.15l.2-.15.43-.3c.29-.2.58-.4.86-.61l.85-.62v0h0l.25,0L21,17.1l-.76.65-.2.18a1.53,1.53,0,0,1-.47,0m.5-1.49h0c-.29.12-.57.24-.87.35a2.32,2.32,0,0,1-.45.13,2.43,2.43,0,0,1-.46,0c-.15,0-.26-.06-.23-.07l0-.06a.59.59,0,0,0,0-.08l.05,0a3.54,3.54,0,0,1,.64-.44c.47-.28,1-.56,1.46-.86a2,2,0,0,0,.38.2,5.11,5.11,0,0,0,.76.23Zm11-1.45-1.36.53c-.22.1-.45.19-.66.3a3.18,3.18,0,0,0-.32.16,1.3,1.3,0,0,0-.31.21l-.21.23-.22.21-.45.43-.95.85,0,0v0a7.92,7.92,0,0,1-.51,1.11,3.48,3.48,0,0,1-.34.51,1.45,1.45,0,0,1-.22.21s-.09.07-.09.06h-.07s0,0,0-.05a.71.71,0,0,1,0-.23,3.93,3.93,0,0,1,.09-.55A7.29,7.29,0,0,1,25.8,18l.1-.21c-.25.39-.91,1-1.19,1.37a4.53,4.53,0,0,1-.49.49c-.23.22-.35.21-.5.15a1.94,1.94,0,0,1,0-.24A4.32,4.32,0,0,1,24,18.9a12,12,0,0,1,.55-1.22l.09-.23c-.3.41-1.23.92-1.59,1.31L22.8,19a4.15,4.15,0,0,1-.32.27l-.34.26-.17.11-.07,0,0-.06s0-.07,0-.07a.52.52,0,0,1,.08-.28,4.48,4.48,0,0,1,.4-.64c.31-.42.65-.83,1-1.23l.56-.63-.81.48a14.32,14.32,0,0,1-1.59.91,3.9,3.9,0,0,1-.76.39,4.43,4.43,0,0,1-.43.15.5.5,0,0,1-.23,0c-.11-.05-.08-.19,0-.3a1.44,1.44,0,0,1,.48-.51c.25-.21.6-.42.87-.62.54-.41.92-.85,1.47-1.25l.24-.17-.34,0c-.33-.06-.65-.11-1-.19-.15,0-.31-.07-.45-.12a4.09,4.09,0,0,1-.42-.16,2.28,2.28,0,0,1-.35-.18c-.09-.07-.14-.15-.13-.18s0,0,.09,0L21,15a3.74,3.74,0,0,0,1.11,0c.35,0,.7-.1,1-.15a6.2,6.2,0,0,1,1-.07l.48,0,.45.06.07,0h0a3.63,3.63,0,0,0,.51-.14l.43-.17c.28-.12.54-.25.8-.38s.5-.27.74-.43a5.92,5.92,0,0,0,.68-.49,9,9,0,0,0,1.14-1.07,11.25,11.25,0,0,0,.94-1.15l-.05,0a15.72,15.72,0,0,1-2.28,2.09,5.28,5.28,0,0,1-.68.44c-.22.14-.5.27-.74.39s-.52.25-.79.36h0a2.07,2.07,0,0,0,.41-.36s0,0,0,0h0a2.48,2.48,0,0,1-.64.35,1.36,1.36,0,0,1-.36.1,1,1,0,0,1-.18,0h-.19a2.06,2.06,0,0,1-.69-.17,1.77,1.77,0,0,1-.31-.15L23.56,14a.29.29,0,0,0-.23-.06h0a6.11,6.11,0,0,1-1.92-.05.84.84,0,0,1-.33-.14.51.51,0,0,1-.15-.14.39.39,0,0,1,.14,0c.14,0,.3,0,.48-.06.34,0,.7,0,1.07-.09l.27-.05.29-.06.12,0,.12-.05.22-.07a5.89,5.89,0,0,1,1-.09,4.52,4.52,0,0,0,1.06-.2,2.74,2.74,0,0,0,.48-.17l.43-.24c.26-.17.52-.34.76-.52a10.83,10.83,0,0,0,1.37-1.13,15,15,0,0,0,2.11-2.53s0,0,0,0h0c-.88.76-1.69,1.56-2.5,2.34-.41.4-.77.81-1.18,1.2a7.21,7.21,0,0,1-.66.56,2.37,2.37,0,0,1-.83.4,3.72,3.72,0,0,1-1,.14,5.81,5.81,0,0,0-1.1,0l-.28.07-.12,0L23,13a3.54,3.54,0,0,1-.47.07l-1,0c-.18,0-.37,0-.57.05a1.23,1.23,0,0,0-.34.09.5.5,0,0,0-.19.12.37.37,0,0,0-.09.19.9.9,0,0,0,0,.16l.08.12,0,0s0,0,0,0h0l0,0,.12.09a1.66,1.66,0,0,0,.56.25,4.65,4.65,0,0,0,1.16.11,7.6,7.6,0,0,0,1-.09l.24.13.27.11a6,6,0,0,0-.75.06c-.36.05-.66.11-1,.13a3.16,3.16,0,0,1-.92,0c-.17,0-.3-.06-.53-.08h-.19a.79.79,0,0,0-.22.06c-.13.06-.24.17-.24.27s.14.34.27.45h0c-.29.07-.56.16-.83.25a7.77,7.77,0,0,0-.88.38,2.65,2.65,0,0,0-.77.53l-.08.11a.94.94,0,0,0,0,.09.32.32,0,0,0,0,.28.56.56,0,0,0,.33.17,1.17,1.17,0,0,0,.32,0,2.09,2.09,0,0,0,.52-.1l.47-.17.89-.32.36-.11c-.21.15-.41.3-.6.46s-.27.23-.39.35l-.18.18c0,.07-.11.13-.16.21a.39.39,0,0,0-.06.13l0,.05v0h0s0,0,0,.07a.42.42,0,0,0,.42.15,2.44,2.44,0,0,0,.34-.08,2.07,2.07,0,0,0-.31.42.55.55,0,0,0-.06.22.27.27,0,0,0,.16.24,1.24,1.24,0,0,0,.66,0,5.11,5.11,0,0,0,1.06-.44c.41-.2.78-.42,1.16-.64-.21.22-.41.45-.6.68a7.24,7.24,0,0,0-.47.66.77.77,0,0,0-.12.42c0,.05,0,.06,0,.1l.05.1a.4.4,0,0,0,.11.12.46.46,0,0,0,.3.08.91.91,0,0,0,.34-.12l.21-.13.36-.27c.13-.09.23-.17.35-.27l.18-.17a2.29,2.29,0,0,0-.12.37,1.29,1.29,0,0,0,0,.35.53.53,0,0,0,0,.21.3.3,0,0,0,.07.14l0,0h0l.05,0h0l.07,0,.16,0h.1l.14,0,.15-.08a1.73,1.73,0,0,0,.2-.15,2.46,2.46,0,0,0,.28-.28l.2-.25a.49.49,0,0,0,0,.12.82.82,0,0,0,.07.36.57.57,0,0,0,.19.2.6.6,0,0,0,.41.1l.12,0,.19-.05a2.65,2.65,0,0,0,.23-.14,1.75,1.75,0,0,0,.27-.28,3.51,3.51,0,0,0,.35-.57A7.24,7.24,0,0,0,27,18.1l.86-.86.43-.45.2-.23.19-.24a1.13,1.13,0,0,1,.24-.17l.29-.17c.2-.12.41-.22.62-.32q.63-.32,1.29-.6Z"/><path class="cls-4" d="M1.3,2.06h.16c.38,0,.63-.19.63-.47s-.16-.45-.59-.45H1.3ZM.9,1a3.45,3.45,0,0,1,.57,0,1.39,1.39,0,0,1,.78.17.54.54,0,0,1,.24.46c0,.31-.2.5-.55.61h0c.26.05.39.22.47.53a2.29,2.29,0,0,0,.19.6H2.2A2.18,2.18,0,0,1,2,2.71a.5.5,0,0,0-.57-.44H1.3v1H.9Z"/><path class="cls-4" d="M4,2.27H4c0-.34-.18-.49-.37-.49s-.39.26-.4.49Zm-.78.2c0,.52.3.64.59.64A1.12,1.12,0,0,0,4.19,3l.06.2a1.75,1.75,0,0,1-.54.08.8.8,0,0,1-.9-.85.81.81,0,0,1,.83-.9.68.68,0,0,1,.71.75.62.62,0,0,1,0,.15Z"/><path class="cls-4" d="M4.65,3a1.07,1.07,0,0,0,.4.09c.23,0,.37-.1.37-.25s-.07-.22-.32-.33S4.6,2.24,4.6,2s.3-.47.68-.47a1.18,1.18,0,0,1,.45.09l-.11.2a.81.81,0,0,0-.33-.07c-.21,0-.32.1-.32.21s.06.18.31.3.51.28.51.51-.34.51-.74.51a1.15,1.15,0,0,1-.49-.1Z"/><path class="cls-4" d="M6.54,2.67h0a.53.53,0,0,0,0,.14.37.37,0,0,0,.37.29c.33,0,.43-.31.43-.65s-.13-.65-.44-.65a.39.39,0,0,0-.36.31.57.57,0,0,0,0,.13Zm-.4-.54c0-.26,0-.41,0-.53h.36l0,.22h0A.62.62,0,0,1,7,1.57c.43,0,.72.32.72.87s-.38.89-.77.89a.52.52,0,0,1-.43-.2h0V4h-.4Z"/><path class="cls-4" d="M8.43,2.45h0c0,.28.07.66.43.66s.4-.4.4-.66-.06-.66-.41-.66-.42.4-.42.66m1.23,0a.8.8,0,0,1-.82.88A.78.78,0,0,1,8,2.45a.8.8,0,0,1,.83-.88A.78.78,0,0,1,9.66,2.45Z"/><path class="cls-4" d="M10.05,2c0-.2,0-.3,0-.44h.34l0,.2h0A.74.74,0,0,1,11,1.57a.54.54,0,0,1,.6.59V3.3h-.4V2.2c0-.2-.05-.4-.34-.4a.37.37,0,0,0-.37.28.61.61,0,0,0,0,.15V3.3h-.39Z"/><path class="cls-4" d="M13.17,2.25h0a.49.49,0,0,0,0-.12.38.38,0,0,0-.36-.33c-.33,0-.44.32-.44.66s.13.64.42.64a.36.36,0,0,0,.37-.29.36.36,0,0,0,0-.11ZM13.56.87v2c0,.12,0,.31,0,.41h-.34l0-.22h0a.6.6,0,0,1-.52.25c-.42,0-.72-.32-.72-.87s.37-.89.75-.89a.52.52,0,0,1,.45.21h0V.87Z"/><path class="cls-4" d="M15.11,2.27h0c0-.34-.18-.49-.36-.49s-.39.26-.41.49Zm-.77.2c0,.52.3.64.59.64a1.06,1.06,0,0,0,.4-.07l.07.2a1.77,1.77,0,0,1-.55.08.8.8,0,0,1-.9-.85.82.82,0,0,1,.84-.9.68.68,0,0,1,.7.75v.15Z"/><path class="cls-4" d="M17.54,2.42h0c-.21,0-.68,0-.68.39a.29.29,0,0,0,.3.31.37.37,0,0,0,.37-.26.31.31,0,0,0,0-.09Zm.06.88,0-.18h0a.61.61,0,0,1-.49.21.53.53,0,0,1-.59-.49c0-.42.5-.61,1.06-.62V2.17c0-.23-.08-.38-.39-.38a1,1,0,0,0-.41.08l-.09-.19a1.48,1.48,0,0,1,.58-.11c.49,0,.71.23.71.61v.73a2.42,2.42,0,0,0,0,.39Z"/><path class="cls-4" d="M20.67,2.83c0,.19,0,.34,0,.47h-.35l0-.18h0a.77.77,0,0,1-.53.21c-.44,0-.61-.24-.61-.66V1.6h.4v1c0,.27.06.47.33.47a.35.35,0,0,0,.37-.38V1.6h.4Z"/><path class="cls-4" d="M21.17,2c0-.2,0-.3,0-.44h.34l0,.2h0a.74.74,0,0,1,.57-.23.54.54,0,0,1,.6.59V3.3h-.4V2.2c0-.2-.05-.4-.34-.4a.37.37,0,0,0-.37.28.61.61,0,0,0,0,.15V3.3h-.39Z"/><path class="cls-4" d="M24.11,2.42h0c-.21,0-.68,0-.68.39a.29.29,0,0,0,.3.31.37.37,0,0,0,.37-.26.31.31,0,0,0,0-.09Zm.06.88,0-.18h0a.61.61,0,0,1-.49.21A.53.53,0,0,1,23,2.84c0-.42.5-.61,1.06-.62V2.17c0-.23-.08-.38-.39-.38a1.08,1.08,0,0,0-.42.08l-.08-.19a1.48,1.48,0,0,1,.58-.11c.49,0,.71.23.71.61v.73a2.42,2.42,0,0,0,0,.39Z"/><path class="cls-4" d="M1.16,5.61h0c0,.28.07.66.43.66S2,5.87,2,5.61,1.93,5,1.58,5s-.42.4-.42.66m1.23,0a.79.79,0,0,1-.82.87.77.77,0,0,1-.8-.87.8.8,0,0,1,.83-.88A.77.77,0,0,1,2.39,5.61Z"/><path class="cls-4" d="M2.78,5.2c0-.15,0-.32,0-.44h.35l0,.26h0a.59.59,0,0,1,.52-.29h.09V5H3.66a.45.45,0,0,0-.47.35.78.78,0,0,0,0,.16v.94H2.78Z"/><path class="cls-4" d="M5,5.4H5a.45.45,0,0,0,0-.11A.38.38,0,0,0,4.66,5c-.33,0-.45.31-.45.65s.14.65.42.65A.38.38,0,0,0,5,6a.36.36,0,0,0,0-.11ZM5.42,4v2c0,.11,0,.31,0,.41H5.1l0-.22h0a.62.62,0,0,1-.52.24c-.42,0-.72-.31-.72-.87s.36-.88.75-.88a.53.53,0,0,1,.45.2H5V4Z"/><path class="cls-4" d="M7,5.43H7c0-.34-.18-.49-.37-.49s-.38.26-.4.49Zm-.77.2c0,.52.3.63.58.63a1.37,1.37,0,0,0,.41-.06l.07.2a1.77,1.77,0,0,1-.55.08.81.81,0,0,1-.9-.86.81.81,0,0,1,.84-.89.67.67,0,0,1,.7.75v.15Z"/><path class="cls-4" d="M7.73,5.2a4.34,4.34,0,0,0,0-.44h.35l0,.2h0a.71.71,0,0,1,.57-.23.54.54,0,0,1,.6.58V6.46h-.4V5.36c0-.2-.06-.4-.34-.4a.38.38,0,0,0-.38.27s0,.1,0,.15V6.46H7.73Z"/><path class="cls-4" d="M10.43,6.17a1,1,0,0,0,.4.09c.23,0,.36-.09.36-.24s-.06-.22-.31-.34-.5-.28-.5-.48.3-.47.68-.47a1,1,0,0,1,.45.09L11.4,5A.81.81,0,0,0,11.07,5c-.21,0-.32.1-.32.21s.06.18.31.3.51.28.51.51-.34.51-.74.51a1.17,1.17,0,0,1-.5-.1Z"/><path class="cls-4" d="M11.93,6.46h0V4.76h.39v1.7Zm.42-2.14c0,.1-.09.17-.24.17s-.23-.07-.23-.17a.21.21,0,0,1,.23-.18C12.26,4.14,12.35,4.21,12.35,4.32Z"/><path class="cls-4" d="M12.82,5.2a4.34,4.34,0,0,0,0-.44h.35l0,.21h0a.69.69,0,0,1,.56-.24.53.53,0,0,1,.51.26h0a.64.64,0,0,1,.25-.19.77.77,0,0,1,.34-.07.54.54,0,0,1,.6.6V6.46h-.39V5.39c0-.22-.05-.43-.35-.43a.37.37,0,0,0-.36.25.77.77,0,0,0,0,.15v1.1h-.39V5.34c0-.19,0-.38-.34-.38a.37.37,0,0,0-.37.27.77.77,0,0,0,0,.15V6.46h-.38Z"/><path class="cls-4" d="M16.33,5.83h0a.61.61,0,0,0,0,.14.38.38,0,0,0,.36.29c.33,0,.43-.31.43-.65S17,5,16.7,5a.38.38,0,0,0-.36.31.53.53,0,0,0,0,.13Zm-.4-.54c0-.26,0-.41,0-.53h.35l0,.21h0a.6.6,0,0,1,.52-.24c.43,0,.71.32.71.87s-.37.88-.76.88a.5.5,0,0,1-.43-.19h0v.84h-.4Z"/><rect class="cls-4" x="17.93" y="4.03" width="0.39" height="2.43"/><path class="cls-4" d="M19.91,5.43h0c0-.34-.18-.49-.37-.49s-.39.26-.41.49Zm-.78.2c0,.52.3.63.59.63a1.43,1.43,0,0,0,.41-.06l.06.2a1.75,1.75,0,0,1-.54.08.8.8,0,0,1-.9-.86.8.8,0,0,1,.83-.89.68.68,0,0,1,.71.75.66.66,0,0,1,0,.15Z"/><path class="cls-4" d="M22.47,5.43h0c0-.34-.18-.49-.37-.49s-.39.26-.41.49Zm-.78.2c0,.52.3.63.59.63a1.43,1.43,0,0,0,.41-.06l.06.2a1.75,1.75,0,0,1-.54.08.81.81,0,0,1-.91-.86.81.81,0,0,1,.84-.89.68.68,0,0,1,.71.75.66.66,0,0,1,0,.15Z"/><path class="cls-4" d="M.87,9.61h0V7.91h.4v1.7ZM1.3,7.48c0,.1-.09.17-.24.17S.83,7.58.83,7.48a.21.21,0,0,1,.23-.18C1.21,7.3,1.3,7.37,1.3,7.48Z"/><path class="cls-4" d="M2.87,8.56h0a.41.41,0,0,0,0-.11.39.39,0,0,0-.37-.33c-.33,0-.44.31-.44.65s.13.65.42.65a.39.39,0,0,0,.38-.3.36.36,0,0,0,0-.11Zm.38-1.38v2c0,.11,0,.3,0,.4H2.94l0-.21h0a.63.63,0,0,1-.52.24c-.42,0-.72-.31-.72-.87s.36-.88.75-.88a.55.55,0,0,1,.45.2h0V7.18Z"/><path class="cls-4" d="M4.81,8.59h0c0-.34-.18-.49-.37-.49s-.39.26-.4.49ZM4,8.79c0,.52.3.63.59.63A1.12,1.12,0,0,0,5,9.35l.06.2a1.5,1.5,0,0,1-.54.08.79.79,0,0,1-.9-.85.8.8,0,0,1,.83-.89.68.68,0,0,1,.71.75.66.66,0,0,1,0,.15Z"/><path class="cls-4" d="M5.56,8.35c0-.2,0-.3,0-.44h.34l0,.21h0a.71.71,0,0,1,.57-.23.54.54,0,0,1,.6.58V9.61H6.69V8.52c0-.2-.06-.41-.35-.41A.38.38,0,0,0,6,8.39a.68.68,0,0,0,0,.15V9.61H5.56Z"/><path class="cls-4" d="M8,7.46v.45h.48v.21H8v1c0,.22.12.28.26.28h.16l0,.21-.29,0a.58.58,0,0,1-.39-.1c-.1-.08-.15-.19-.15-.43v-1h-.3V7.91h.3V7.54Z"/><path class="cls-4" d="M8.8,9.61h0V7.91h.4v1.7Zm.43-2.13c0,.1-.09.17-.24.17s-.23-.07-.23-.17A.21.21,0,0,1,9,7.3C9.14,7.3,9.23,7.37,9.23,7.48Z"/><path class="cls-4" d="M9.78,9.61V8.12H9.46V7.91h.32V7.8c0-.3.21-.64.9-.64a1.31,1.31,0,0,1,.48.08l-.08.21a1.32,1.32,0,0,0-.41-.07c-.4,0-.5.19-.5.45v.08h1.11v1.7h-.39V8.12h-.72V9.61Z"/><path class="cls-4" d="M13,9.57a1.07,1.07,0,0,1-.41.06.81.81,0,0,1-.91-.86.89.89,0,0,1,1-.88,1,1,0,0,1,.35.05l-.08.22a.83.83,0,0,0-.28,0,.58.58,0,0,0-.57.65.56.56,0,0,0,.58.64.88.88,0,0,0,.29-.05Z"/><path class="cls-4" d="M14.21,8.73h0c-.2,0-.68,0-.68.4a.29.29,0,0,0,.31.3.35.35,0,0,0,.36-.26.28.28,0,0,0,0-.09Zm.06.88,0-.18h0a.62.62,0,0,1-.49.21c-.34,0-.59-.19-.59-.48s.5-.62,1-.62v0c0-.23-.08-.39-.39-.39a.91.91,0,0,0-.41.09L13.31,8a1.56,1.56,0,0,1,.58-.11c.5,0,.71.22.71.6v.74a1.54,1.54,0,0,0,0,.38Z"/><path class="cls-4" d="M16.14,8.76h0c0,.28.07.67.43.67S17,9,17,8.76s-.07-.66-.42-.66-.42.4-.42.66m1.24,0a.8.8,0,0,1-.83.88.78.78,0,0,1-.8-.87.79.79,0,0,1,.83-.88A.78.78,0,0,1,17.38,8.76Z"/><path class="cls-4" d="M18.15,9h0a.2.2,0,0,0,0,.11.39.39,0,0,0,.37.3c.31,0,.43-.3.43-.66s-.12-.64-.44-.64a.41.41,0,0,0-.37.3.49.49,0,0,0,0,.12Zm-.41.6c0-.1,0-.29,0-.4v-2h.39v.93h0a.65.65,0,0,1,.53-.22c.38,0,.67.3.67.86s-.37.89-.75.89a.51.51,0,0,1-.49-.25h0l0,.22Z"/><path class="cls-4" d="M19.34,10.1h0a.64.64,0,0,0,.33-.13c.08-.09.12-.22.12-.54V7.91h.39V9.5c0,.36-.08.53-.25.65a1,1,0,0,1-.54.16Zm.88-2.62c0,.1-.1.17-.25.17s-.23-.07-.22-.17.1-.18.24-.18S20.22,7.37,20.22,7.48Z"/><path class="cls-4" d="M21.72,8.59h0c0-.34-.18-.49-.37-.49s-.39.26-.4.49Zm-.78.2c0,.52.3.63.59.63a1.12,1.12,0,0,0,.41-.07l.06.2a1.5,1.5,0,0,1-.54.08.8.8,0,0,1-.9-.85.81.81,0,0,1,.83-.89.68.68,0,0,1,.71.75.66.66,0,0,1,0,.15Z"/><path class="cls-4" d="M23,7.46v.45h.48v.21H23v1c0,.22.12.28.26.28h.16l0,.21-.29,0a.6.6,0,0,1-.39-.1c-.1-.08-.15-.19-.15-.43v-1h-.3V7.91h.3V7.54Z"/><path class="cls-4" d="M24,8.76h0c0,.28.07.67.43.67s.41-.4.41-.67-.07-.66-.42-.66-.42.4-.42.66m1.24,0a.8.8,0,0,1-.83.88.78.78,0,0,1-.8-.87.79.79,0,0,1,.83-.88A.78.78,0,0,1,25.21,8.76Z"/><path class="cls-4" d="M25.53,9.33a1,1,0,0,0,.4.09c.22,0,.36-.1.36-.25S26.22,9,26,8.84s-.49-.29-.49-.48.29-.47.68-.47A1.19,1.19,0,0,1,26.6,8l-.11.21a.63.63,0,0,0-.32-.08c-.22,0-.33.11-.33.22s.07.18.31.29.51.28.51.52-.33.5-.74.5a1.34,1.34,0,0,1-.49-.09Z"/><path class="cls-4" d="M4.24,12.8s.06-.57-.81-.83S1.51,13.2,1.92,14.26c0,0,.89-.3,1.11-.72l-.35.72A2.26,2.26,0,0,0,4.24,12.8"/></svg>