<svg id="Capa_1" data-name="Capa 1" xmlns="http://www.w3.org/2000/svg" viewBox="0 0 32 28.99"><defs><style>.cls-1{fill:#fbc9b7;}.cls-2{fill:#f05050;}.cls-3{fill:#b3d335;}.cls-4{fill:#231f20;}</style></defs><title>3-11meses</title><path class="cls-1" d="M1.64,29a2.71,2.71,0,0,1,1.58-1.22c1.15-.37,1.8-1.1,1.45-1.33a8.65,8.65,0,0,1-2.58-2.1c-.75-1.1-.91-2-.21-2.54A12.46,12.46,0,0,1,6.2,20.07a12.09,12.09,0,0,1,3.28.23c.14.09,1.95.8,1.95.8a4,4,0,0,1,.16,1.38c-.05.81-.33,1-.25,1.54s.54,1-.26,1.6a10.62,10.62,0,0,1-1.78,1,1.76,1.76,0,0,0,1.22.35c.8,0,1.24.09,1.38.69a3.59,3.59,0,0,1,0,1.34Z"/><path class="cls-2" d="M8.09,25.56a4.49,4.49,0,0,1,1.21-.2.32.32,0,0,1,.25.29s.11.36-.07.46a2,2,0,0,1-1.39-.55"/><path class="cls-2" d="M18.43,24.18s-1.09.11-1.25.34-.33.68,0,.84.86-.19,1-.23,1.54-1,1.54-1Z"/><path class="cls-3" d="M18.29,29H31.68V23l-2.84-.13S20.43,25,19.58,26.39s-1.43,1.5-1.29,2.6"/><path class="cls-1" d="M23.4,28.24s-1.56-2.13-1-2.58,1-.8,1-.8l-.19-.37a10.29,10.29,0,0,1-3.09,1.44,2,2,0,0,1-1.42-.55l-.4-.37,1.16-.84s-1.44.13-1.7-.11a3,3,0,0,1-.42-.48,4,4,0,0,1-1.42-.26c-.46-.25-.44-.62-.19-1s.93-1.35.07-2-1.49-1.12-1.15-1.63a10.53,10.53,0,0,1,2.12-2.31c.34-.05,5.75.73,6,.78s5.47,3.76,5.54,3.76-.05,1.35.77,2,1.42,1.18,1.24,1.67a8.91,8.91,0,0,1-6.91,3.68"/><path class="cls-4" d="M17.67,20.42a1,1,0,0,0-.29.09,1.68,1.68,0,0,0-.21-.51,1,1,0,0,1-.17.76.33.33,0,0,0,.25.06l.13,0,.25-.12s-.24.48.38.49.24-.53.24-.53l1.33.16a10.13,10.13,0,0,0-1.91-.44"/><path class="cls-4" d="M15.91,19.85a2.35,2.35,0,0,1,1.18-.33A21.88,21.88,0,0,1,21,20.58c-5.05-2.66-5.12-.73-5.12-.73"/><path class="cls-4" d="M7,23a3.6,3.6,0,0,0-1.93.92s2-1,2.66-.77l.23.11S8,22.89,7,23"/><path class="cls-4" d="M9.14,24.78a.76.76,0,0,0,.72-.16c.28-.16.13-.23-.23-.63s0-.74.29-1,1.16-.16,1.16-.16v-.08a1.36,1.36,0,0,0-1.75.62c-.15.54.23.72.36,1s-.55.42-.55.42"/><path class="cls-4" d="M6.78,24c.32.07.66-.08.61-.2a.41.41,0,0,1-.06-.17h.23s0-.2-.42-.13a10.58,10.58,0,0,0-1.31.39l.77-.12s-.14.17.18.24"/><path class="cls-4" d="M10.43,23.33a1,1,0,0,1,.37.08c.07-.26-.45-.2-.79-.09s-.31.19-.31.19c.4-.1.05.14.31.2a.36.36,0,0,0,.46-.2c.07-.14-.15-.16,0-.18"/><path class="cls-4" d="M4.67,25l0,0Z"/><path class="cls-4" d="M3.38,24.93l-.12,0s0,0-.06,0a.25.25,0,0,1,0-.07v-.09h0a.3.3,0,0,0-.07.08A.13.13,0,0,0,3,25a.19.19,0,0,0,.18.14.48.48,0,0,0,.29,0A.23.23,0,0,0,3.61,25c.05-.08,0-.13-.06-.13a.28.28,0,0,1-.14-.31c0-.06,0-.11,0-.19s-.1-.12-.13-.13l-.1,0L3,24.09A.77.77,0,0,0,2.81,24a.29.29,0,0,0-.16,0,.17.17,0,0,0-.11.08.16.16,0,0,0,0,.12.24.24,0,0,0,0,.09h0l0-.08a.15.15,0,0,1,.05-.07s0,0,0,0l.13.09.21.1.12,0s0,0,0,0,0,.11.06.17.1.23.17.35,0,.05,0,0H3.38"/><path class="cls-4" d="M12,27.51c-.08-.09-.15-.18-.23-.26a.93.93,0,0,0-.14-.14L11.42,27l-.2-.1-.05,0H11.1l-.1,0-.39-.09a5.27,5.27,0,0,0-.72-.11H9.72a5.77,5.77,0,0,0,.55-.29h0a5.55,5.55,0,0,0,.8-.53,2.42,2.42,0,0,0,.32-.32,1.14,1.14,0,0,0,.21-.37,1.17,1.17,0,0,0-.07-.76,1.59,1.59,0,0,1-.08-.71,1.69,1.69,0,0,1,.1-.35c0-.11.09-.24.12-.36a3.9,3.9,0,0,0,.12-.75,4.54,4.54,0,0,0,0-.74l0-.18.06-.13c.42-.93-.51-1.93-1.54-2.49s-2-.86-4.42-.68S1.22,19.85,1,21.48a3.19,3.19,0,0,0,.91,2.8c.28.44,1,1.55,1,1.55v-.48l.61.82v-.44l.37.49-.11-.44.1.12.18.18.16.19.18.18a.59.59,0,0,1,.13.19.61.61,0,0,1,0,.11.36.36,0,0,1,0,.11.41.41,0,0,1-.13.2h0l-.13.08a.52.52,0,0,1-.15.07l-.33.13-.34.11-.17.05-.2.06A2.05,2.05,0,0,0,2.4,28a1.08,1.08,0,0,0-.34.55h0c.2-.13.41-.24.61-.35L3,28.05c.1-.05.21-.08.31-.12l.17-.06.19-.07a3,3,0,0,0,.36-.18,1.16,1.16,0,0,0,.31-.22.49.49,0,0,0,.12-.13.49.49,0,0,0,.1-.15h0a1.09,1.09,0,0,0,.1-.25.27.27,0,0,0,0-.12.61.61,0,0,0,0-.13,1.11,1.11,0,0,0,0-.26c0-.05,0-.09,0-.13a.54.54,0,0,0-.07-.13,1.35,1.35,0,0,0-.45-.4,2.08,2.08,0,0,0-.63-.25h0l-.34-.23c-.55-.36-1.14-1.23-.74-1.42s1.11.32,1.11.32c.08.4.57.63.57.63L4,24.3l.63.67a2.12,2.12,0,0,1-.48-1.49,2.72,2.72,0,0,1,1.15-1.75L5,22.62l1.86-1.31L6,22.8l1.34-1.19-.24,1,.74-.68-.28.63,1.15-1.1-.36,1.1L9.7,22l-.46.48,1.43-1.14-.56,1.07,1.32-1v0l-.34.76a1.43,1.43,0,0,0,.28-.33c0,.08,0,.16,0,.24,0,.24-.08.48-.13.72s0,.23-.06.37a1.61,1.61,0,0,0,0,.38,3.37,3.37,0,0,0,.23.74,2.37,2.37,0,0,1,.09.36.59.59,0,0,1-.08.34,1,1,0,0,1-.24.3,2.53,2.53,0,0,1-.36.25c-.12.08-.26.15-.39.22a4.13,4.13,0,0,0-.42.22h0a3.56,3.56,0,0,1-.52.24c-.18.07-.37.12-.56.18s-.39.09-.58.12a1.53,1.53,0,0,1-.3,0h-.3l-.29,0-.3-.05c-.2,0-.4-.09-.6-.14-.4-.11-.79-.26-1.18-.41l0,0a5.33,5.33,0,0,0,1.05.6,3.77,3.77,0,0,0,.62.22l.34.08.37.05H8l.36,0a5.42,5.42,0,0,0,.7-.14l.26-.09a3.48,3.48,0,0,0,.41.18,3.21,3.21,0,0,0,.72.16l.42,0h.2l.2,0a.5.5,0,0,1,.31.14.28.28,0,0,1,.09.25,1.64,1.64,0,0,1,0,.25c0,.08,0,.16,0,.23a2.43,2.43,0,0,0,.05.35,1,1,0,0,0,0,.14h.05a.92.92,0,0,0,.32-.49.68.68,0,0,0,0-.25.7.7,0,0,0-.16-.29"/><path class="cls-4" d="M7.9,26.43s.76-.05.7-.21a1,1,0,0,0-.5,0c-.16.08-.26.2-.2.21"/><path class="cls-4" d="M9.09,25.75h0l-.2-.32h.35s.3.3.15.55-.52,0-.86-.23a.74.74,0,0,1-.16-.12l.25-.12c.25-.12.47.24.47.24m-1-.05a2.11,2.11,0,0,0,1.38.5c.44-.11.08-.77.08-.77l.15-.1a6.72,6.72,0,0,0-2.17.18C7.09,25.69,7.77,25.71,8.09,25.7Z"/><path class="cls-4" d="M28.92,22.68h0l.39.07-.31.08a.37.37,0,0,1-.08-.15m.59.78h0c.36.26.68.52.64.82a1.85,1.85,0,0,1-.49.92c-.12.15-.26.3-.4.45s-.29.28-.46.42a4.74,4.74,0,0,1-.49.4c-.17.13-.37.24-.55.36a12.11,12.11,0,0,1-1.25.62,9.39,9.39,0,0,1-2.83.69c-.2-.26-.37-.53-.54-.8a5.6,5.6,0,0,1-.46-.87,1.34,1.34,0,0,1-.1-.44.5.5,0,0,1,0-.21.43.43,0,0,1,.08-.19l.15-.21.17-.21.18-.2a.92.92,0,0,1,.2-.14h0l1,1.78s.53-.77-1.07-2a10.2,10.2,0,0,0,1.09-.71,3,3,0,0,0,.76-.76,1.28,1.28,0,0,0,.17-.46.79.79,0,0,0,0-.22h.26a1.52,1.52,0,0,0,.59-.23,1.59,1.59,0,0,0,.29-.29,15.31,15.31,0,0,0,2.27.69h.1A.44.44,0,0,0,29,23,3.57,3.57,0,0,0,29.51,23.46Zm-7.25,1.47h0c-.37.16-.74.3-1.12.45a3.82,3.82,0,0,1-.53.2,2.43,2.43,0,0,1-.55.09,2.46,2.46,0,0,1-1.1-.13,1.09,1.09,0,0,1-.14-.08s0-.09,0-.17a.18.18,0,0,0-.09-.18.62.62,0,0,0-.18-.06h0a5.2,5.2,0,0,1,.51-.38c.25-.19.53-.36.8-.54h0a.78.78,0,0,0,.37-.26.06.06,0,0,0,0-.09.17.17,0,0,0-.18,0h0l-.65.33h0a4.25,4.25,0,0,1-.88.05l-.44,0-.22,0-.1,0-.05,0a.34.34,0,0,1-.11-.25.94.94,0,0,1,0-.29h0c0-.05-.06-.09-.13-.09h0a4.83,4.83,0,0,1-1.35-.14.61.61,0,0,1-.38-.24c-.06-.12,0-.23.07-.38a8.38,8.38,0,0,0,.58-.94,1.43,1.43,0,0,0,.13-.54,2.66,2.66,0,0,0,0-.28,2.18,2.18,0,0,0-.11-.27,1.45,1.45,0,0,0-.17-.26L16,20.1l-.47-.38a1.71,1.71,0,0,1-.38-.38h0a8.73,8.73,0,0,1,1.46-1.68c.35.25.88.59,1.6,1a15.83,15.83,0,0,0,6.12,2.35,22.38,22.38,0,0,1-3.09-1.51,11.08,11.08,0,0,1,2.95,1.2,10,10,0,0,0,1.83,1,1.21,1.21,0,0,1-.21.24.79.79,0,0,1-.31.14.89.89,0,0,1-.33,0l-.52-.17.18.35a.76.76,0,0,1,.11.38.81.81,0,0,1-.07.4,2.24,2.24,0,0,1-.59.74A7.23,7.23,0,0,1,22.26,24.93Zm-4.57.25h0a.65.65,0,0,1-.25,0,.4.4,0,0,1-.15,0h0a.51.51,0,0,1,0-.18.67.67,0,0,1,.07-.24.48.48,0,0,1,.12-.19,1,1,0,0,1,.29-.1l.44-.07-.11.08a.92.92,0,0,0-.27.29l0,0a1.4,1.4,0,0,1,.33-.24l.38-.2a.07.07,0,0,0,.05-.06s0,0,0,0h.55a3.07,3.07,0,0,0-.36.2,3.59,3.59,0,0,0-.59.4A1.82,1.82,0,0,1,17.69,25.18Zm-.46,0Zm13.06-2.1c.34,0,.68,0,.94,0h.45a1.33,1.33,0,0,0-.38-.2,2.47,2.47,0,0,0-.35-.1h0l-.1,0c.51-.22-.24-.61-.8-.85a5.84,5.84,0,0,0,.27-3c-.29-2.23-1.24-4.38-2.65-5.24a3.56,3.56,0,0,0-3-.2,7.78,7.78,0,0,0-6.26-.63,6.32,6.32,0,0,0-4.93,5.8,1.28,1.28,0,0,0,1.44,1.23v0a1.59,1.59,0,0,0,.13.13l.45.39.16.19a1.32,1.32,0,0,1,.12.2.9.9,0,0,1,.08.21,1.52,1.52,0,0,1,0,.21,1.15,1.15,0,0,1-.09.44,7.9,7.9,0,0,1-.51.92,1.16,1.16,0,0,0-.1.28.85.85,0,0,0,0,.16v0s0,0,0,0h0l0,.06a1,1,0,0,0,.66.41,4.74,4.74,0,0,0,1.4.07.91.91,0,0,0,0,.23.55.55,0,0,0,.2.32l.13.06h.12l.13,0-.31,0a1.32,1.32,0,0,0-.44.12.73.73,0,0,0-.27.29,1,1,0,0,0-.1.29.48.48,0,0,0,0,.35.28.28,0,0,0,.08.09l.06,0,0,0h.11l.23.05a1.36,1.36,0,0,0,.53,0,1.43,1.43,0,0,0,.54-.33l0,0,.09.07s0,0,0,0l-.05.09,0,0v0a.21.21,0,0,0,0,.11.54.54,0,0,0,.27.25,2.58,2.58,0,0,0,1.1.22,3.38,3.38,0,0,0-.54.36c-.08.08-.19.16-.26.24a2.61,2.61,0,0,0-.22.27,2.58,2.58,0,0,0-.48,1.06,1.3,1.3,0,0,0,0,.37v.14s.15-.18.33-.45l.3-.45c0-.08.12-.16.18-.25a1.44,1.44,0,0,1,.18-.25c.12-.17.26-.33.39-.49a5,5,0,0,1,.38-.4,2.31,2.31,0,0,1,.19-.16,3.47,3.47,0,0,0,.56-.11,3.27,3.27,0,0,0,.59-.25c.35-.17.7-.35,1-.54l.83-.47.11.22c-.07,0-.11,0-.16,0l-.14.08-.25.18a2.11,2.11,0,0,0-.23.19,1.94,1.94,0,0,0-.21.2.67.67,0,0,0-.16.25,1.38,1.38,0,0,0-.06.26,1.7,1.7,0,0,0,.07.51,3.38,3.38,0,0,0,.49.94,6.39,6.39,0,0,0,.75.83l.06.06.09,0c.53-.09,1-.21,1.53-.33s1-.24,1.49-.39l.72-.25c.24-.09.46-.2.68-.3a6.24,6.24,0,0,0,1.19-.77,5.24,5.24,0,0,0,.5-.44,4.81,4.81,0,0,0,.44-.47,1.81,1.81,0,0,0,.47-1.12.82.82,0,0,0-.31-.59,2.42,2.42,0,0,0-.6-.4,5.4,5.4,0,0,1-.59-.34l-.07-.06.29.07C29.62,23,30,23,30.29,23.06Z"/><rect class="cls-4" x="6.66" y="1.86" width="0.39" height="2.37"/><path class="cls-4" d="M7.6,3c0-.2,0-.3,0-.44h.35l0,.21H8a.69.69,0,0,1,.56-.24A.53.53,0,0,1,9,2.76H9a.76.76,0,0,1,.25-.19.74.74,0,0,1,.34-.07.54.54,0,0,1,.6.6V4.23H9.83V3.16c0-.22-.05-.43-.35-.43A.37.37,0,0,0,9.12,3a.78.78,0,0,0,0,.16V4.23H8.71V3.12c0-.19-.05-.39-.34-.39A.37.37,0,0,0,8,3a.77.77,0,0,0,0,.15V4.23H7.6Z"/><path class="cls-4" d="M10.72,4.23h0V2.53h.39v1.7Zm.42-2.14c0,.11-.09.18-.24.18s-.23-.07-.23-.18.11-.17.23-.17S11.14,2,11.14,2.09Z"/><path class="cls-4" d="M12.09,2.08v.45h.47v.21h-.47v1c0,.22.12.28.26.28h.16v.21a1.07,1.07,0,0,1-.29,0,.69.69,0,0,1-.39-.1.49.49,0,0,1-.15-.43v-1h-.3V2.53h.3V2.16Z"/><path class="cls-4" d="M13.78,3.35h0c-.2,0-.68,0-.68.39a.29.29,0,0,0,.3.31.35.35,0,0,0,.37-.26.34.34,0,0,0,0-.1Zm.06.88,0-.18h0a.62.62,0,0,1-.49.21.53.53,0,0,1-.59-.49c0-.42.49-.61,1-.62v0c0-.23-.08-.39-.39-.39A1,1,0,0,0,13,2.8l-.09-.19a1.48,1.48,0,0,1,.58-.11c.5,0,.71.23.71.61v.73a1.63,1.63,0,0,0,0,.39Z"/><path class="cls-4" d="M16.53,3.12h0a.51.51,0,0,0,0-.13.37.37,0,0,0-.36-.26c-.29,0-.44.27-.44.64s.2.63.44.63a.35.35,0,0,0,.35-.24.4.4,0,0,0,0-.15Zm.41-.59c0,.12,0,.27,0,.53V4c0,.45-.08.61-.25.74a1.13,1.13,0,0,1-.66.18,1.93,1.93,0,0,1-.54-.08l.09-.22a1.27,1.27,0,0,0,.46.08c.32,0,.51-.13.51-.52V4h0a.57.57,0,0,1-.48.2.74.74,0,0,1-.72-.83.79.79,0,0,1,.77-.89.54.54,0,0,1,.47.22h0l0-.19Z"/><path class="cls-4" d="M18.47,3.2h0c0-.34-.18-.49-.37-.49s-.39.26-.4.49Zm-.78.2c0,.52.3.63.59.63A1.15,1.15,0,0,0,18.69,4l.06.2a1.75,1.75,0,0,1-.54.08.79.79,0,0,1-.9-.85.81.81,0,0,1,.83-.9.68.68,0,0,1,.71.75.66.66,0,0,1,0,.15Z"/><path class="cls-4" d="M19.15,4a1,1,0,0,0,.4.08c.23,0,.37-.09.37-.24s-.07-.22-.32-.33-.5-.29-.5-.49.3-.47.68-.47a1.18,1.18,0,0,1,.45.09l-.11.2a.81.81,0,0,0-.33-.07c-.21,0-.32.1-.32.21s.06.18.31.3.51.28.51.51-.34.51-.74.51a1.09,1.09,0,0,1-.49-.1Z"/><path class="cls-4" d="M21.13,2.08v.45h.48v.21h-.48v1c0,.22.12.28.26.28h.16v.21a1.07,1.07,0,0,1-.29,0,.69.69,0,0,1-.39-.1.52.52,0,0,1-.15-.43v-1h-.3V2.53h.3V2.16Z"/><path class="cls-4" d="M22.15,3.38h0c0,.28.07.66.43.66s.4-.4.4-.66-.06-.66-.41-.66-.42.4-.42.66m1.23,0a.8.8,0,0,1-.82.88.78.78,0,0,1-.81-.88.8.8,0,0,1,.83-.88A.78.78,0,0,1,23.38,3.38Z"/><path class="cls-4" d="M23.7,4a1,1,0,0,0,.4.08c.23,0,.37-.09.37-.24s-.07-.22-.32-.33-.5-.29-.5-.49.3-.47.68-.47a1.18,1.18,0,0,1,.45.09l-.11.2a.81.81,0,0,0-.33-.07c-.21,0-.32.1-.32.21s.06.18.31.3.51.28.51.51-.34.51-.74.51a1.09,1.09,0,0,1-.49-.1Z"/><path class="cls-4" d="M5,18.2s.49-.64-.76-.95a2.64,2.64,0,0,0-2.87,1.11A5.86,5.86,0,0,0,.8,20.09l.82-.57-.54.57a6,6,0,0,0,1.68-.29A5.84,5.84,0,0,0,5,18.2"/></svg>