<svg id="Capa_1" data-name="Capa 1" xmlns="http://www.w3.org/2000/svg" viewBox="0 0 31.17 27.71"><defs><style>.cls-1{fill:#fc5;}.cls-2{fill:#8cd4dd;}.cls-3{fill:#fbc9b7;}.cls-4{fill:#231f20;}</style></defs><title>4-11meses</title><path class="cls-1" d="M31.17,27.71l-21.09-5.9s-10.41.24-7.31,2.76,22.58,2.94,22.58,2.94Z"/><path class="cls-2" d="M10.29,24.11s.64-.42,3.81-.51a37.63,37.63,0,0,1,6.94.31c.28.18-1.77,1.1-2.29,1.47s-2.55.48-3.5.57a7.74,7.74,0,0,1-3-.7,17.55,17.55,0,0,1-2-1.14"/><path class="cls-3" d="M13,23.45s.89.43.77.68-1.28.24-1.6,0a1,1,0,0,1-.3-.75s.6-1.1,1.21-1.09,2.52.46,3.11.21S18,21.89,18,21.89l-.25-1.3s-1.26-.45-1.13-.92a9.53,9.53,0,0,1,.36-1.29c.14-.25.12-.61.48-.62s.34.25.29.4.33.76.57.68.19-.5.46-.43.29.23.33.57a3.07,3.07,0,0,1,0,.79s.49.33.78.57a1.77,1.77,0,0,0,.56.32s0-.43.77-.65,1.45-.51,1.45-.51.46-.23.32-.44a1,1,0,0,0-.43-.32,14.63,14.63,0,0,1-2,.37c-.58,0-.85-.52-1-.56s-.18-.34-.39-.48a2.59,2.59,0,0,1-.57-.51c-.14-.18-.51-.18-.61-.34s.25-.51,0-.95-1-.65-1.1-.8-1.57-1.55-.9-2.59,3.52-1.75,3.71-1.79,7.13,1.49,7.19,1.88-.3,2-.3,2.46S26,16.72,26.14,17a4.82,4.82,0,0,0,1.58,2.28A5.36,5.36,0,0,1,30,23a25.06,25.06,0,0,1-.55,3.78l-.08.35-9-2.44-.32,0,1-.73a18.79,18.79,0,0,0-3.54-.39,9.78,9.78,0,0,0-2.41,0A8.74,8.74,0,0,1,13,23.45"/><path class="cls-4" d="M16,15.23h0l0,.11Z"/><path class="cls-4" d="M18.11,15.15c-.69.14-.3.58-.3.58s.12-.55,1-.46a12.83,12.83,0,0,0,1.63.06,9.39,9.39,0,0,0-2.31-.18"/><path class="cls-4" d="M18.73,15.71c-.41.08-.18.28-.18.28s.14-.09.14-.09.29.34.61.21-.06-.33-.06-.33l.68-.06a5.3,5.3,0,0,0-1.19,0"/><path class="cls-4" d="M19.12,16.94s.13.18,0,.24-.2-.06-.29,0-.12.17.18.09.3-.29.09-.35"/><path class="cls-4" d="M29.07,26.9h0l-3.63-1-3.63-1c-.12,0-.23-.08-.35-.1l-.34-.05-.56-.08-.37-.05a7.9,7.9,0,0,1,.76-.43s0,0,0,0l.19,0a1,1,0,0,0,.17-.07.2.2,0,0,0,.13-.14.43.43,0,0,1,0-.05q1.14,0,2.28-.09l1-.09c.33,0,.66-.07,1-.12s.65-.12,1-.19l.47-.14.43-.17s0,0,0,0,0,0,0,0h0l-.46.13-.47.1-1,.13-1,.07-1,0c-1.28.05-2.57,0-3.85,0a4.35,4.35,0,0,1-1.4-1.32,3.18,3.18,0,0,1-.39-.81A3.15,3.15,0,0,1,18,21a2,2,0,0,1,0-.42h0a.16.16,0,0,0-.12-.14h0a5.71,5.71,0,0,1-.66-.29,1.07,1.07,0,0,1-.44-.39.46.46,0,0,1,.11-.47A1.17,1.17,0,0,0,17,18.7a5.17,5.17,0,0,1,0-.57c0-.15.24-.3.45-.33s0,.24.1.42a1.36,1.36,0,0,0,.3.55l.14.12a.38.38,0,0,0,.27.05c.2-.08.18-.2.22-.29a.62.62,0,0,1,.11-.23h0s0,0,0,0h0a.19.19,0,0,1,.1.08A.82.82,0,0,1,19,19a.8.8,0,0,1,0,.27,1.41,1.41,0,0,0-.08.3.86.86,0,0,0,.41.57,1.69,1.69,0,0,0,.31.21l.32.17a2.2,2.2,0,0,1,.45.41,5.31,5.31,0,0,1,.38.48h0a.24.24,0,0,0,.18.09,8,8,0,0,0,.85,0,7.93,7.93,0,0,0,.84-.07l.41-.07.41-.11a2.5,2.5,0,0,0,.38-.15,1.67,1.67,0,0,0,.33-.21,1,1,0,0,0,.26-.23l.21-.23a2.52,2.52,0,0,1,.25-.21,1.92,1.92,0,0,1,.28-.18,2.91,2.91,0,0,1,.68-.26,3.42,3.42,0,0,1,.79-.1h0a0,0,0,0,0,0,0,3.3,3.3,0,0,0-1.6.26,1.83,1.83,0,0,0-.34.18,2.21,2.21,0,0,0-.29.22c-.09.07-.17.16-.24.22a1.1,1.1,0,0,1-.25.2,2,2,0,0,1-.29.16l-.33.12-.36.08c-.12,0-.25,0-.38.06s-.47,0-.7,0l.15-.43c.07-.19.14-.4.21-.58a4,4,0,0,1,.91-1,.06.06,0,0,0,0-.07.8.8,0,0,0-.12-.27.5.5,0,0,0-.36-.22.86.86,0,0,0-.44.1l-.32.1a4.84,4.84,0,0,1-.68.1l-.36,0h-.36l-.29,0a.22.22,0,0,1-.13-.12c-.05-.06,0-.13-.15-.28a.34.34,0,0,0-.16-.08l-.09,0h-.05l-.1,0a.19.19,0,0,1-.11-.12.06.06,0,0,1,0,0h0a1,1,0,0,0,.37-.21.9.9,0,0,0,.2-.28.12.12,0,0,0-.07-.15.25.25,0,0,0-.3,0h0a.83.83,0,0,1-.46.17,1,1,0,0,1-.26,0,.14.14,0,0,1-.08-.06v0h0v-.11a.15.15,0,0,0,0-.14.38.38,0,0,0-.19-.13l-.11,0-.18,0a1.37,1.37,0,0,1-.29-.07c-.06,0-.06,0-.07-.07a1.21,1.21,0,0,1,.16-.43.76.76,0,0,0,.09-.29.42.42,0,0,0-.13-.31,7.29,7.29,0,0,0-1-.77l-.49-.35a1.91,1.91,0,0,1-.35-.41,2.17,2.17,0,0,1-.33-.93v0l1.82,1.28L16.8,13.4l1.07.74L17,13.06l1.77,1,1,.64-1-1.29,1.45,1.06-.58-1,1.62.91,1,.5-.51-.63,1.11.6-.55-.7c-.36-.59-.19-.35-.19-.35a2,2,0,0,0,.73.67,1.41,1.41,0,0,1,.08,1.13l.32-.5a.22.22,0,0,0,0,.06h0l.09.5c.4-.6.44-.75,1.09-.9l0,0,0,.05a.8.8,0,0,1,.18.27,1.1,1.1,0,0,1-.25,1.16,1.12,1.12,0,0,1-.22.16l-.22.09-.22,0v0l.24,0a1.08,1.08,0,0,0,.27-.07,1.34,1.34,0,0,0,.29-.15,1,1,0,0,0,.26-.25,1.28,1.28,0,0,0,.25-1,.91.91,0,0,0-.14-.34.92.92,0,0,1,.75.58l.23.82a3.57,3.57,0,0,0,.1,1.65,1.89,1.89,0,0,0,.74,1c.35.24.7.47,1,.71a5.41,5.41,0,0,1,1.42,1.67,5.6,5.6,0,0,1,.55,1.93,8.28,8.28,0,0,1,0,2A10.22,10.22,0,0,1,29.35,27l-.28-.07m-9.42-2.12h0a7.84,7.84,0,0,1-1.19.61,6.09,6.09,0,0,1-1.37.32c-.23,0-.49,0-.74.06s-.49,0-.73,0a8.6,8.6,0,0,1-1.45-.12,5.65,5.65,0,0,1-1.3-.4,3.22,3.22,0,0,1-.55-.3,4.7,4.7,0,0,0-.55-.38l-.31-.15,1.1.08c.76,0,1.52.07,2.29.09s1.53,0,2.29-.05,1.52-.07,2.28-.14c.39,0,.76-.07,1.15-.13l.21,0a4.71,4.71,0,0,0-.52.21C20.05,24.55,19.85,24.67,19.65,24.78Zm-7.55-1h.17a1.55,1.55,0,0,0,.34-.08l.28-.13.29.19.2.13.2.13.06.07s-.05.08-.15.12a.71.71,0,0,1-.34.07.78.78,0,0,1-.33-.09c-.09,0-.17-.1-.25-.13l-.21-.11A2,2,0,0,1,12.1,23.77Zm1.91,0h0a.71.71,0,0,0-.13-.12l-.16-.09a1.32,1.32,0,0,0-.31-.12l-.28-.06.15-.09a.71.71,0,0,0,.09.07,1.07,1.07,0,0,0,.42.18h.29a0,0,0,0,0,0,0s0,0,0,0h1.14l1.13,0c.76,0,1.51.08,2.26.15.31,0,.61.06.92.09h0a.42.42,0,0,0,.16,0H20l.62.08-.14,0c-.36.07-.73.13-1.1.18a25.19,25.19,0,0,1-4.52.28c-.57,0-1.14-.06-1.7-.11a2.82,2.82,0,0,0,.42,0,.67.67,0,0,0,.47-.17A.28.28,0,0,0,14,23.8ZM12.45,23h0c.07-.1.16-.23.23-.31a1.17,1.17,0,0,1,.85-.24,5.38,5.38,0,0,1,1.05.13,3,3,0,0,0,.55.08,3.71,3.71,0,0,0,.58,0,6.32,6.32,0,0,0,2-.61v0a3.17,3.17,0,0,0,.21.41A4.11,4.11,0,0,0,19,23.5l-.33,0c-.77,0-1.53-.08-2.3-.06a20.36,20.36,0,0,0-2.08.14,1.8,1.8,0,0,0,.35-.12,0,0,0,0,0,0,0s0,0,0,0a2.85,2.85,0,0,1-.4,0,1.08,1.08,0,0,1-.33-.06.54.54,0,0,1-.23-.15.36.36,0,0,1-.07-.1.31.31,0,0,1,0-.1A.15.15,0,0,0,13.5,23a.31.31,0,0,0-.31,0l0,0a5.08,5.08,0,0,1-.81.4l-.16,0h0a.24.24,0,0,1,.05-.12A2,2,0,0,1,12.45,23Zm6.88-4.7h0S19.32,18.26,19.33,18.25Zm2.38,3h0a4.85,4.85,0,0,1-.66,0,3.37,3.37,0,0,0-.34-.43c-.07-.07-.14-.15-.22-.22l.24-.09c.26-.1.58-.25.88-.4l.69-.37a2.13,2.13,0,0,0-.31.49c-.07.2-.11.39-.16.59l-.11.45h0Zm-2.13-2.51Zm0,0h0s0,.11.09.19a.5.5,0,0,0,.34.26,1.75,1.75,0,0,0,.44.07l.39,0,.38,0a4.64,4.64,0,0,0,.76-.14l.35-.12.15-.07.1,0a.27.27,0,0,1,.16.12.61.61,0,0,1,.09.18l-.25.26-.25,0a3.5,3.5,0,0,0-1.78.87l-.14.16a2.07,2.07,0,0,0-.24-.17l-.35-.17L19.51,20c-.18-.12-.34-.26-.36-.4a2.24,2.24,0,0,1,.05-.26,1.51,1.51,0,0,0,0-.3,1.23,1.23,0,0,0-.13-.47.62.62,0,0,0,.19.12.81.81,0,0,0,.27.05Zm-4-5.33h0v.07ZM30.21,27.33l-.48-.21-.3-.12h0a9.6,9.6,0,0,0,.67-3.91,5.44,5.44,0,0,0-.49-2,5.18,5.18,0,0,0-1.45-1.8c-.32-.26-.68-.5-1-.73a1.54,1.54,0,0,1-.59-.8A3.73,3.73,0,0,1,26.48,16l0,.15c.18-1,2.8-1.37,1.55-3.9s-5.17-3.19-6.79-3a8.35,8.35,0,0,0-5.2,2.38A2.65,2.65,0,0,0,16,15.22l-.15-.75.08.15a1.74,1.74,0,0,0,.37.46,5.57,5.57,0,0,0,.49.39,11.39,11.39,0,0,1,.92.73c.22.19-.17.47-.2.9a.37.37,0,0,0,.08.2.67.67,0,0,0,.21.13,3.11,3.11,0,0,0,.4.11l.16,0h0v.08h0v.06a.44.44,0,0,0,.35.32,1,1,0,0,0,.34.05l0,.07a.34.34,0,0,0,0,.2h0a.37.37,0,0,0-.44,0c-.12.1-.11.2-.14.29s-.07.2-.12.21-.15-.06-.22-.13a1.1,1.1,0,0,1-.27-.51.57.57,0,0,1,0-.26.22.22,0,0,0,0-.08.13.13,0,0,0,0-.1.33.33,0,0,0-.27-.08,1,1,0,0,0-.41.15.53.53,0,0,0-.21.29c0,.19,0,.38-.06.56a1.09,1.09,0,0,1-.24.51.65.65,0,0,0-.17.61,1.17,1.17,0,0,0,.49.52,5.24,5.24,0,0,0,.57.32,2.41,2.41,0,0,0,0,.38,3.69,3.69,0,0,0,.08.46,3.06,3.06,0,0,0,.17.48s0,0,0,0c-.72.1-1.39.25-2.06.33l-.5.06a4.33,4.33,0,0,1-.51,0c-.36,0-.72,0-1.08-.05a3.64,3.64,0,0,0-.57,0,1.34,1.34,0,0,0-.55.19,2.2,2.2,0,0,0-.35.31,3,3,0,0,0-.28.34.82.82,0,0,0-.11.21.26.26,0,0,0,.12.33s0,0,.07,0,0,.05,0,.08a.48.48,0,0,0,.2.35.81.81,0,0,0,.26.15c-.29,0-.57-.06-.85-.11a9.37,9.37,0,0,1-1.08-.2h0a.3.3,0,0,0-.28.07c-.06.07,0,.17.08.21h0a9.69,9.69,0,0,1,1.21.58,4.42,4.42,0,0,1,.51.36,3.23,3.23,0,0,0,.63.36A5.91,5.91,0,0,0,14,26a9.21,9.21,0,0,0,1.57.11,7,7,0,0,0,.79,0l.77-.09a5.32,5.32,0,0,0,1.47-.41,7,7,0,0,0,1.17-.7l.34-.22.33.15L21,25l.3.12a2.92,2.92,0,0,0,.35.1l3.63,1,3.63,1c.13,0,.24.08.36.1l.34.05.56.08.49.06Z"/><path class="cls-4" d="M4,4.21a1.78,1.78,0,0,1-.49.06A1.07,1.07,0,0,1,2.37,3.09,1.15,1.15,0,0,1,3.59,1.86,1.22,1.22,0,0,1,4,1.92l-.08.23a.92.92,0,0,0-.35,0c-.37,0-.8.25-.8,1s.39,1,.81,1A1.11,1.11,0,0,0,4,4Z"/><path class="cls-4" d="M4.54,3.4h0c0,.28.07.66.43.66s.41-.4.41-.66S5.31,2.74,5,2.74s-.42.4-.42.66m1.23,0A.79.79,0,0,1,5,4.28a.78.78,0,0,1-.8-.88A.8.8,0,0,1,5,2.52.78.78,0,0,1,5.77,3.4Z"/><path class="cls-4" d="M6.16,3c0-.2,0-.3,0-.44h.34l0,.21h0a.65.65,0,0,1,.55-.24.54.54,0,0,1,.52.26h0a.67.67,0,0,1,.25-.19.71.71,0,0,1,.34-.07.54.54,0,0,1,.59.6V4.25H8.39V3.18c0-.22,0-.43-.34-.43A.38.38,0,0,0,7.68,3a.81.81,0,0,0,0,.16V4.25H7.28V3.14c0-.19,0-.39-.35-.39A.36.36,0,0,0,6.57,3a.77.77,0,0,0,0,.15V4.25H6.16Z"/><path class="cls-4" d="M10.34,3.22h0c0-.34-.18-.49-.37-.49s-.39.26-.4.49Zm-.78.2c0,.52.3.64.59.64A1.12,1.12,0,0,0,10.56,4l.06.2a1.75,1.75,0,0,1-.54.08.79.79,0,0,1-.9-.85.81.81,0,0,1,.83-.9.68.68,0,0,1,.71.75.62.62,0,0,1,0,.15Z"/><path class="cls-4" d="M12.94,3.2h0V3.08a.39.39,0,0,0-.37-.33c-.33,0-.44.32-.44.66s.13.64.42.64a.38.38,0,0,0,.38-.29.37.37,0,0,0,0-.11Zm.39-1.38v2c0,.12,0,.31,0,.41H13L13,4h0a.58.58,0,0,1-.51.25c-.42,0-.73-.32-.73-.87s.37-.89.75-.89a.53.53,0,0,1,.45.2h0v-.9Z"/><path class="cls-4" d="M14.89,3.22h0c0-.34-.18-.49-.37-.49s-.39.26-.41.49Zm-.78.2c0,.52.3.64.59.64A1.12,1.12,0,0,0,15.11,4l.06.2a1.75,1.75,0,0,1-.54.08.8.8,0,0,1-.91-.85.82.82,0,0,1,.84-.9.68.68,0,0,1,.71.75.62.62,0,0,1,0,.15Z"/><rect class="cls-4" x="15.64" y="1.82" width="0.39" height="2.43"/><path class="cls-4" d="M2.88,6.78h0a.61.61,0,0,0,0,.14.38.38,0,0,0,.37.29c.32,0,.43-.31.43-.65s-.13-.65-.44-.65a.38.38,0,0,0-.36.31.53.53,0,0,0,0,.13Zm-.4-.54c0-.26,0-.41,0-.53h.36l0,.21h0a.6.6,0,0,1,.52-.24c.43,0,.71.31.71.87s-.37.88-.76.88a.5.5,0,0,1-.43-.19h0v.84h-.4Z"/><rect class="cls-4" x="4.48" y="4.98" width="0.39" height="2.43"/><path class="cls-4" d="M6.33,6.53h0c-.21,0-.68,0-.68.39a.28.28,0,0,0,.3.3A.36.36,0,0,0,6.32,7a.34.34,0,0,0,0-.1Zm0,.88,0-.18h0a.62.62,0,0,1-.49.2c-.33,0-.59-.19-.59-.48s.5-.61,1.06-.62v0c0-.23-.09-.39-.4-.39A1.07,1.07,0,0,0,5.51,6l-.09-.19A1.56,1.56,0,0,1,6,5.68c.5,0,.71.22.71.61V7a1.63,1.63,0,0,0,0,.39Z"/><path class="cls-4" d="M7.65,5.26v.45h.48v.2H7.65v1c0,.22.12.28.26.28h.16l0,.21a1.21,1.21,0,0,1-.3,0,.62.62,0,0,1-.39-.11c-.09-.07-.14-.19-.14-.42v-1H7v-.2h.31V5.33Z"/><path class="cls-4" d="M8.67,6.56h0c0,.28.07.66.43.66s.4-.4.4-.66-.06-.66-.41-.66-.42.4-.42.66m1.23,0a.79.79,0,0,1-.82.87.77.77,0,0,1-.8-.87.79.79,0,0,1,.82-.88A.77.77,0,0,1,9.9,6.56Z"/><path class="cls-4" d="M3.7,10.52a1.11,1.11,0,0,1-.41.06.81.81,0,0,1-.91-.86.89.89,0,0,1,1-.88,1.13,1.13,0,0,1,.35.05l-.08.22a1.21,1.21,0,0,0-.28,0,.59.59,0,0,0-.58.65.57.57,0,0,0,.59.64.82.82,0,0,0,.28,0Z"/><path class="cls-4" d="M4.24,9.71h0c0,.28.07.67.43.67s.4-.4.4-.67S5,9.05,4.66,9.05s-.42.4-.42.66m1.23,0a.79.79,0,0,1-.82.88.78.78,0,0,1-.81-.87.8.8,0,0,1,.83-.88A.78.78,0,0,1,5.47,9.71Z"/><path class="cls-4" d="M5.86,9.3c0-.2,0-.3,0-.44h.34l0,.21h0a.71.71,0,0,1,.57-.23.54.54,0,0,1,.6.58v1.14H7V9.47c0-.2-.06-.41-.35-.41a.38.38,0,0,0-.37.28.68.68,0,0,0,0,.15v1.07H5.86Z"/><path class="cls-4" d="M8.57,10.28a1,1,0,0,0,.4.09c.22,0,.36-.1.36-.25S9.26,9.91,9,9.79s-.49-.29-.49-.48.29-.47.68-.47a1.19,1.19,0,0,1,.44.08l-.11.21a.66.66,0,0,0-.32-.08c-.22,0-.33.11-.33.22s.07.18.31.29.51.28.51.52-.34.5-.74.5a1.16,1.16,0,0,1-.49-.09Z"/><path class="cls-4" d="M11.54,10.1c0,.19,0,.34,0,.46h-.34l0-.18h0a.74.74,0,0,1-.54.21c-.43,0-.6-.23-.6-.65V8.86h.39v1c0,.27.06.46.34.46a.34.34,0,0,0,.35-.22.78.78,0,0,0,0-.16V8.86h.39Z"/><path class="cls-4" d="M12,10.28a1,1,0,0,0,.4.09c.22,0,.36-.1.36-.25s-.07-.21-.32-.33-.49-.29-.49-.48.29-.47.68-.47a1.19,1.19,0,0,1,.44.08l-.1.21a.7.7,0,0,0-.33-.08c-.22,0-.32.11-.32.22s.06.18.3.29.52.28.52.52-.34.5-.75.5a1.16,1.16,0,0,1-.49-.09Z"/><path class="cls-4" d="M2.49,12.46c0-.2,0-.3,0-.44h.34l0,.21h0A.69.69,0,0,1,3.4,12a.55.55,0,0,1,.52.26h0a.63.63,0,0,1,.24-.19A.77.77,0,0,1,4.51,12a.54.54,0,0,1,.6.6v1.13H4.72V12.66c0-.22,0-.44-.35-.44a.39.39,0,0,0-.36.25.78.78,0,0,0,0,.16v1.09H3.6V12.61c0-.19-.05-.39-.34-.39a.38.38,0,0,0-.37.27.76.76,0,0,0,0,.15v1.08H2.49Z"/><path class="cls-4" d="M6.53,12.84h0c-.2,0-.68,0-.68.4a.28.28,0,0,0,.3.3.36.36,0,0,0,.37-.26.31.31,0,0,0,0-.09Zm.06.88,0-.18h0a.63.63,0,0,1-.5.21.52.52,0,0,1-.58-.49c0-.42.49-.61,1-.61v-.06c0-.23-.08-.38-.39-.38a1,1,0,0,0-.41.08l-.09-.18A1.29,1.29,0,0,1,6.21,12c.5,0,.71.23.71.61v.73a1.63,1.63,0,0,0,0,.39Z"/><path class="cls-4" d="M7.42,12.46c0-.2,0-.3,0-.44h.34l0,.2h0A.74.74,0,0,1,8.34,12a.54.54,0,0,1,.6.59v1.14H8.55v-1.1c0-.2-.06-.4-.35-.4a.38.38,0,0,0-.37.28.61.61,0,0,0,0,.15v1.07H7.42Z"/><path class="cls-4" d="M9.73,12.87h0c0,.28.07.66.43.66s.4-.4.4-.66-.06-.66-.41-.66-.42.4-.42.66m1.23,0a.79.79,0,0,1-.82.88.78.78,0,0,1-.81-.88.8.8,0,0,1,.83-.88A.78.78,0,0,1,11,12.87Z"/><path class="cls-4" d="M11.28,13.44a1,1,0,0,0,.4.09c.23,0,.37-.1.37-.25s-.07-.22-.32-.33-.5-.29-.5-.49.3-.47.68-.47a1.18,1.18,0,0,1,.45.09l-.11.2a.81.81,0,0,0-.33-.07c-.21,0-.32.11-.32.21s.06.18.31.3.51.28.51.52-.34.5-.74.5a1.09,1.09,0,0,1-.49-.1Z"/><path class="cls-4" d="M25.46,10.55c-.26-.43-1-1.28.7-1.56a3,3,0,0,1,3.25,1.83,9.35,9.35,0,0,0,1.22,1.72,9.3,9.3,0,0,1-2.79-1.45,5.16,5.16,0,0,0,1.28,1.25s-2.55,0-3.66-1.79"/></svg>