<svg id="Capa_1" data-name="Capa 1" xmlns="http://www.w3.org/2000/svg" viewBox="0 0 30.81 28.14"><defs><style>.cls-1{fill:#f8992f;}.cls-2{fill:#f5a4c7;}.cls-3{fill:#fbc9b7;}.cls-4{fill:#231f20;}</style></defs><title>5-11meses</title><path class="cls-1" d="M16.07,24.15c-1,.13-2.38,1-1.43,2.24s3.21.81,3.51.51a1.4,1.4,0,0,0-.42-2.47,2.4,2.4,0,0,0-1.66-.28"/><path class="cls-2" d="M9.9,18s-2.75.09-3,1.23,2,2,2,2L12.12,21s1-.81.92-1.4S9.9,18,9.9,18"/><path class="cls-3" d="M.54,8.39l1.88,2.68a5.51,5.51,0,0,1,1,1.62c.21.74.46,1.81.46,1.81s2,.6,2.21.64a2.66,2.66,0,0,0,.65,0,17.59,17.59,0,0,0,2.64-.57c.93-.33.51-.4.51-.4a2,2,0,0,1-.94-1.49c-.13-1,3.26-2.72,4.48-2.3a5.1,5.1,0,0,1,1.76.93,1.56,1.56,0,0,0-.27,1.27c.16.79.57,1.2.12,1.57a7.63,7.63,0,0,1-1.48.8s1.39,1.28,1.56,1.48a11.06,11.06,0,0,0,2,.92c.46.18.55,1,.46,1.5s-1.07.53-1.12.53-.73-.22-.73-.22a3.27,3.27,0,0,1-.63-.2c0-.06.31-.43.18-.6a1.84,1.84,0,0,0-.35-.34l-1.36-.81a6,6,0,0,1-.1,1.69,1.83,1.83,0,0,1-1.76,1c-1.11.05-4-.52-4-1.23s.61-1.11.61-1.4v-.71a16.53,16.53,0,0,1-2.64.34,21.71,21.71,0,0,1-2.54-1.24c-.06,0-.72,0-.72,0l-.86,0-.37,0-.5.11Z"/><path class="cls-3" d="M11.39,20.64a20.59,20.59,0,0,0-2.12-.82c-.61-.16-2.29-.3-1.69.82S8.75,22,8.75,22s0,0-.59.37-.72,1.22-1.07,1.48-.92.59-.77.89,1.42,1,1.53,1.18a.79.79,0,0,0,.61.36c.31.06.29-.07.81-.09s1-.17,1-.38-.27-.32-.65-.5a3.51,3.51,0,0,1-.88-.85,5.2,5.2,0,0,1,.68-.63c.28-.19,1.12-.69,1.12-.69a5.9,5.9,0,0,0,0,1.42,2.84,2.84,0,0,1,0,1.16c0,.34-.24.52-.13.65s.9,1.27,1.25,1.3a4,4,0,0,0,1.5.1c.59-.14,1-.23,1-.46s-.43-.48-.74-.67-.9-.84-.74-1.27,1.06-1.72.79-2.37a5.41,5.41,0,0,0-2.09-2.34"/><path class="cls-4" d="M12.69,12.61l.15.07s.05-.21-.61-.17A2.34,2.34,0,0,0,11,13.1s1.28-.66,1.7-.49"/><path class="cls-4" d="M12.48,13.05a.25.25,0,0,1,0-.11h.15s0-.12-.27-.08a7.55,7.55,0,0,0-.84.25L12,13s-.08.11.12.16.42,0,.39-.13"/><path class="cls-4" d="M14.16,12.74c-.21.07-.2.13-.2.13.26-.07,0,.08.2.12a.24.24,0,0,0,.3-.12c0-.09-.11-.11,0-.12a.8.8,0,0,1,.24.05c0-.16-.3-.13-.51-.06"/><path class="cls-4" d="M12.12,14a1,1,0,0,0,.62.27,1.64,1.64,0,0,0,1-.06c.14-.12.1-.22.24-.28A3.7,3.7,0,0,1,13,14c-.47,0-.85-.06-.85-.06"/><path class="cls-4" d="M13,14.43c-.4-.09-.64,0-.47.1s.88,0,.47-.1"/><path class="cls-4" d="M10.74,13.8l0,0Z"/><polyline class="cls-4" points="7.95 18.66 7.95 18.66 7.95 18.66 7.95 18.66"/><path class="cls-4" d="M16.12,18l0,0h0s0,0,0,0"/><path class="cls-4" d="M16.07,18.12h0"/><path class="cls-4" d="M12.69,27.56a.35.35,0,0,0-.18-.21.71.71,0,0,0-.14-.06.75.75,0,0,0,0,.11,1.89,1.89,0,0,1,.06.18s0,0,0,0,0,0-.06,0l-.15,0a.29.29,0,0,0,.14.06.31.31,0,0,0,.21,0,.16.16,0,0,0,.09-.09.15.15,0,0,0,0-.09"/><path class="cls-4" d="M13.13,27.38a.52.52,0,0,0-.12-.09.25.25,0,0,0,0,.12,1.23,1.23,0,0,1,0,.2s0,0,0,0l-.12,0-.17,0a.44.44,0,0,0,.14.08.58.58,0,0,0,.21,0,.34.34,0,0,0,.14-.05.2.2,0,0,0,.07-.1.21.21,0,0,0,0-.16.33.33,0,0,0-.09-.11"/><path class="cls-4" d="M13.43,27.17a.28.28,0,0,0,0,.12,1.11,1.11,0,0,0,.07.22.23.23,0,0,1,0,.07s0,0,0,0l-.16,0a.32.32,0,0,0,.16.07h.11a.21.21,0,0,0,.13-.05.19.19,0,0,0,0-.19.57.57,0,0,0-.33-.3"/><path class="cls-4" d="M11,20.18h0a6.22,6.22,0,0,0-1.52-.44c-.26,0-.53-.06-.8-.08l-.4,0a.9.9,0,0,0-.43.05.54.54,0,0,0-.27.24.79.79,0,0,0-.1.28.66.66,0,0,0,0,.14l-.18-.18c0-.06-.08-.12-.11-.18a1.67,1.67,0,0,1-.08-.2.82.82,0,0,1,0-.41A1.21,1.21,0,0,1,7.23,19a1.79,1.79,0,0,1,.28-.35v0a.34.34,0,0,0,.14.26,2.94,2.94,0,0,0,1.06.53c.39.14.81.26,1.24.37a7.29,7.29,0,0,0,1.36.22,3.08,3.08,0,0,0,.74,0,4.56,4.56,0,0,0,.69-.16,2.34,2.34,0,0,0,.24-.09,2.06,2.06,0,0,1-.35.5,3.76,3.76,0,0,1-.35.34l-.23.18A5.47,5.47,0,0,0,11,20.18m-3-1.53h0l0,0H8l0,0,0-.06a1.45,1.45,0,0,0,.19-.37A3.72,3.72,0,0,0,8.38,17a2.11,2.11,0,0,0,0-.3l.52-.09.21,0h.07l0,0-.07,0a.82.82,0,0,0-.24-.06,4.17,4.17,0,0,0-.82,0l-.54.06c-.18,0-.37.09-.57.14a5,5,0,0,1-.61.13,1.33,1.33,0,0,1-.6,0,4.3,4.3,0,0,1-.54-.2,3.85,3.85,0,0,1-.5-.24l-.47-.23-.43-.2-.59-.27a3.41,3.41,0,0,0,.58-.24.88.88,0,0,0,.35-.32.83.83,0,0,0,.05-.2v-.16h0l.31.14.16.06.16,0,.58.19.28.1.13.06.12,0,.12.06h.08c.36-.05.7-.15,1.05-.23l.52-.1L8.25,15a3.32,3.32,0,0,0,.55-.09,4.16,4.16,0,0,0,.5-.16,3.88,3.88,0,0,0,.61-.31l.09.11v-.16l.06,0,.17.23-.08-.29h0a5.22,5.22,0,0,0,1.69.76,4,4,0,0,0,.62.09,1.67,1.67,0,0,0,.31,0h.32a4.46,4.46,0,0,0,.51-.07l.38.33a2.49,2.49,0,0,1,.43.43l.07.11a.72.72,0,0,0,.11.15,1.27,1.27,0,0,0,.27.25,4.14,4.14,0,0,0,.65.39h0a4,4,0,0,1,1.44.62,1.84,1.84,0,0,1,.25.23.49.49,0,0,1,.07.11.42.42,0,0,1,0,.12,2.09,2.09,0,0,1,0,.56,1.27,1.27,0,0,1-.16.51.5.5,0,0,1-.4.27h-.36a1.15,1.15,0,0,1-.33-.09A.75.75,0,0,1,16,19l.13.05.18,0a1.48,1.48,0,0,0,.37,0,.76.76,0,0,0,.25-.1.17.17,0,0,0,.06-.08l0,0-.08,0-.2-.06a1.81,1.81,0,0,0-.27-.06H16a.23.23,0,0,1-.17-.08.37.37,0,0,1,0-.18s0,0,0,0a1.08,1.08,0,0,0,.34.05,3,3,0,0,0,.75-.06v0a6,6,0,0,1-.68-.12c-.1,0-.2-.06-.21-.09s0,0,0,0h0l0-.07h0a.09.09,0,0,1,0-.05l.23-.15v0a.59.59,0,0,0-.38-.07.53.53,0,0,0-.23.06.35.35,0,0,0-.1.08l0,.05v0l0,.07a.24.24,0,0,0,0,.12.29.29,0,0,0,.14.19l0,.06a.32.32,0,0,0-.06.22.15.15,0,0,1-.1-.07.64.64,0,0,1,0-.07s0-.06,0-.1,0-.06,0-.1a.28.28,0,0,1,0-.09,1.81,1.81,0,0,1,.16-.42,2.45,2.45,0,0,0,.1-.23,1.17,1.17,0,0,0-.34.11A.88.88,0,0,0,15,18l-.08,0-.48-.36c-.17-.13-.37-.26-.53-.36l-.16-.08c0-.13-.06-.26-.09-.37s-.11-.35-.16-.49a3.75,3.75,0,0,0-.18-.42h-.05s0,.16,0,.43,0,.31,0,.5,0,.4,0,.63a6.53,6.53,0,0,1,0,.75,3,3,0,0,1-.13.8,1,1,0,0,1-.68.58,3.8,3.8,0,0,1-.59.17,3.88,3.88,0,0,1-.62.08,5.63,5.63,0,0,1-2.49-.49A2.66,2.66,0,0,1,8,18.76a.23.23,0,0,1,0-.1h0ZM2.4,15.7ZM10,14.29Zm5-.88h0c0,.06.07.15.08.2a.09.09,0,0,1,0,.07l0,.08a1,1,0,0,1-.22.33,1.58,1.58,0,0,1-.34.29,2.13,2.13,0,0,1-.42.23,3.4,3.4,0,0,1-1,.26,5.15,5.15,0,0,1-.56,0,3.41,3.41,0,0,1-.55-.05A4.27,4.27,0,0,1,10,14h0l-.16-.1a.4.4,0,0,0,.19,0,.22.22,0,0,0,.09-.08c0-.06-.05-.1-.05-.1a.14.14,0,0,1-.09-.19.35.35,0,0,0,0-.12s-.08-.1-.1-.1l-.06,0-.11,0a.44.44,0,0,0-.15-.05.19.19,0,0,0-.13,0c-.06,0-.08.05-.08.06s0,.07,0,.09l0,0h0l0,0s0,0,0,0,0,0,0,0,0,0,0,0l.07,0,.14.07.08,0s0,0,0,0a.48.48,0,0,0,.05.11,1,1,0,0,1,.11.24s0,0,0,0H9.84s0,0,0,0,0,0,0,0l0-.05h0a.14.14,0,0,0-.06.05.15.15,0,0,0,0,.08v0l-.25-.19c-.17-.24-.27-.49-.1-.57s.7.21.7.21a.74.74,0,0,0,.37.4l-.05-.3.4.43a1.38,1.38,0,0,1-.31-1,1.73,1.73,0,0,1,.74-1.12l-.24.57,1.19-.84-.53,1,.86-.76-.16.64.48-.44-.18.4.74-.7-.24.7.87-.36-.29.31.91-.73-.36.68.81-.58-.09.2a.88.88,0,0,0-.12.41c0,.05,0,.11,0,.17a.86.86,0,0,0-1.09.4c-.09.34.15.46.23.66s-.35.27-.35.27a.47.47,0,0,0,.46-.11c.18-.1.08-.14-.15-.4s0-.47.19-.66a1,1,0,0,1,.71-.11,1.2,1.2,0,0,0,0,.19A3,3,0,0,0,15,13.41Zm.39,5.35h0a.6.6,0,0,0-.08-.08l0,0a.41.41,0,0,0,.29,0,.31.31,0,0,0,.1.13.41.41,0,0,0,0,.11l0,.07L15.64,19A1.42,1.42,0,0,1,15.36,18.76Zm-4.83,6.55h0a1.1,1.1,0,0,1-.16.3l0,.05s0,0,0,0a.33.33,0,0,0-.15-.28l-.16-.1-.16-.07-.13-.05-.11-.05a2.08,2.08,0,0,1-.51-.27.79.79,0,0,1-.25-.33c.17-.09.35-.17.5-.27s.34-.22.5-.34a4.4,4.4,0,0,0,.61-.61c-.05.32-.1.65-.12,1a2.58,2.58,0,0,0,0,.39.8.8,0,0,0,.07.2,1.22,1.22,0,0,1,.07.17A.76.76,0,0,1,10.53,25.31Zm-.38.55ZM14.08,27a5.2,5.2,0,0,0-.49-.36,1.35,1.35,0,0,1-.42-.4,3.37,3.37,0,0,1-.24-.57,1.14,1.14,0,0,1,0-.66,1.54,1.54,0,0,1,.34-.64,2.77,2.77,0,0,0,.43-.66,1.26,1.26,0,0,0,.1-.74,1.17,1.17,0,0,0-.14-.35l-.18-.29c-.13-.18-.27-.35-.41-.51a3.91,3.91,0,0,0-.84-.66h0a2.13,2.13,0,0,0,.22-.18l.2-.19a2.86,2.86,0,0,0,.3-.41,1.32,1.32,0,0,0,.2-.71.82.82,0,0,0,.2-.12,1.16,1.16,0,0,0,.36-.45,2.28,2.28,0,0,0,.15-.89,3,3,0,0,0,0-.61,1.39,1.39,0,0,0,.25.23,1.45,1.45,0,0,0,.34.2,2,2,0,0,0,.38.11h.15a.55.55,0,0,0,0,.18.35.35,0,0,0,.07.15.5.5,0,0,0,.12.14l0,0a.34.34,0,0,0-.12.17.35.35,0,0,0,0,.22.62.62,0,0,0,.21.22,1.17,1.17,0,0,0,.33.11,1,1,0,0,0,.3,0l.09,0a1.36,1.36,0,0,0,.3.13,2.35,2.35,0,0,0,.51.06,1.16,1.16,0,0,0,.56-.14,1,1,0,0,0,.32-.31,1.07,1.07,0,0,0,.16-.65,1.58,1.58,0,0,0-.12-.64.59.59,0,0,0-.1-.16.66.66,0,0,0-.15-.14,3.35,3.35,0,0,0-.36-.21l-.74-.34-.73-.34h0a4.22,4.22,0,0,1-.51-.42A2.09,2.09,0,0,1,15,16l-.07-.1,0-.07a.22.22,0,0,0,0-.08,1.88,1.88,0,0,0-.59-.46,3.49,3.49,0,0,0-.44-.2,2.78,2.78,0,0,0,.51-.17,2.09,2.09,0,0,0,.86-.65,1,1,0,0,0,.19-.43.49.49,0,0,0,0-.12.33.33,0,0,0,0-.13,1.57,1.57,0,0,0-.12-.19,3.19,3.19,0,0,1-.29-.78,1.26,1.26,0,0,1,0-.58,3.08,3.08,0,0,0,.39-.66c.27-.6-.33-1.24-1-1.59a4.52,4.52,0,0,0-2.84-.44c-1.54.11-3,1.21-3.13,2.25a1.85,1.85,0,0,0,.37,1.52l0,.05.19.24.66,1V14l.22.29c-.24.06-.48.11-.71.18l-.48.14-.47.17a2.53,2.53,0,0,1-.49.14,4.51,4.51,0,0,1-.53.08c-.31,0-.63,0-.94,0l-.08,0L6,15l-.31-.14A4.72,4.72,0,0,0,5,14.62l-.63-.13-.21-.06a4.31,4.31,0,0,0-.11-.49c-.08-.25-.17-.5-.26-.76a6.5,6.5,0,0,0-.37-.75c-.14-.26-.29-.5-.43-.75a3.75,3.75,0,0,0-.24-.36A2.39,2.39,0,0,1,2.5,11c-.15-.23-.26-.45-.4-.66s-.28-.4-.41-.57c-.27-.35-.5-.64-.68-.84s-.3-.31-.3-.31h0A6.18,6.18,0,0,0,1.3,9.88c.12.19.24.38.4.59a7.6,7.6,0,0,0,.56.61c.1.11.23.21.33.31a1.31,1.31,0,0,1,.25.33,3.12,3.12,0,0,1,.31.76c.06.26.13.52.19.77s.14.51.19.75.09.48.12.69c0,.05,0,.1,0,.15s0,.06,0,.12-.08.12-.17.18a3.68,3.68,0,0,1-.58.32l0,0h0l0,0-.17.08a2.92,2.92,0,0,0,.45-.3A1.55,1.55,0,0,0,3.36,15a2.73,2.73,0,0,0-.43.09,6.42,6.42,0,0,0-.8.28l-.38.16-.06,0s0,0,0,0h-.2a2.16,2.16,0,0,0,.34-.17,2.06,2.06,0,0,0,.48-.4.88.88,0,0,0,.15-.24,1.76,1.76,0,0,0-.35.09,3.12,3.12,0,0,0-.62.29,2.61,2.61,0,0,0-.49.38l-.2.2H.91a1.66,1.66,0,0,0,.26-.05h.05l.12.08.21.09h.16a.46.46,0,0,0,.17,0,1,1,0,0,0,.26-.06.54.54,0,0,0,.35,0l.5-.14a4,4,0,0,0,.52.44,4.78,4.78,0,0,0,.89.5l.59.21a2.85,2.85,0,0,0,1.38.05c.22,0,.43,0,.64-.05a5.82,5.82,0,0,0,.6,0c.18,0,.36,0,.52-.06l.11,0c0,.07-.05.15-.09.27s-.19.65-.37,1.09a1.37,1.37,0,0,1-.16.32l-.06.09a.11.11,0,0,0,0,.05h0a1.83,1.83,0,0,0-.5.34,1.34,1.34,0,0,0-.32.44,2,2,0,0,0-.06.26,1,1,0,0,0,.09.5,1.16,1.16,0,0,0,.14.24h0a5.73,5.73,0,0,0,.6.48l.22.17a1.14,1.14,0,0,0,.06.25,1.08,1.08,0,0,0,.23.34,2.42,2.42,0,0,0,.66.49,1.71,1.71,0,0,0-.3.1,2.43,2.43,0,0,0-.83.54,1.41,1.41,0,0,0-.3.49c-.07.16-.13.34-.22.52a1.53,1.53,0,0,1-.43.5c-.09.08-.23.11-.31.25a.39.39,0,0,0,0,.35,1.15,1.15,0,0,0,.52.58,3.47,3.47,0,0,1,.6.39,1.34,1.34,0,0,1,.21.2,1.93,1.93,0,0,0,.25.25,1.5,1.5,0,0,0,.81.26,1.4,1.4,0,0,0,.41-.05.51.51,0,0,0,.3-.19h.12a.65.65,0,0,0,.18,0,.24.24,0,0,0,.17-.14.22.22,0,0,0-.06-.18.59.59,0,0,0-.31-.12.44.44,0,0,0,.06.1.29.29,0,0,1,.06.16s-.07.09-.15.12l0,0a.33.33,0,0,0,0-.14c0-.08-.1-.17-.18-.19a1.08,1.08,0,0,0-.34,0l-.12,0v0l.11,0a.86.86,0,0,1,.25.07s0,0,0,.06a.44.44,0,0,1-.1.12.55.55,0,0,1-.37,0A1,1,0,0,1,8.24,26s-.1-.12-.18-.21a2.35,2.35,0,0,0-.28-.25,5.52,5.52,0,0,0-.72-.38,1.5,1.5,0,0,1-.54-.4.35.35,0,0,1-.07-.25c0-.07.15-.14.25-.22s.38-.32.55-.48a2.55,2.55,0,0,0,.4-.51,2.44,2.44,0,0,1,.25-.43,3.63,3.63,0,0,1,.59-.59l.24-.18,0,0,.91.37.46.16a2.87,2.87,0,0,1,.39.16l0,.23a5.47,5.47,0,0,0-1.05.56c-.16.12-.3.25-.44.37a5.14,5.14,0,0,0-.4.41l0,.06,0,0a4.67,4.67,0,0,1,.38.4,1.81,1.81,0,0,0,.37.43.53.53,0,0,0,.15.08l.16.07.14,0,.11,0a.42.42,0,0,1,.17.11.5.5,0,0,1,0,.13.56.56,0,0,0-.24-.17l-.12,0h0l.07.11a.86.86,0,0,1,.07.1.18.18,0,0,1,0,.09.23.23,0,0,1,0,.18l-.07.11a.54.54,0,0,0,.18,0l0,0a.24.24,0,0,0,0,.16.49.49,0,0,0,.08.12l.09.09a6.82,6.82,0,0,1,.66.56,1.66,1.66,0,0,1,.21.31.87.87,0,0,0,.38.35,1,1,0,0,0,.64.06c.09,0,.13-.11.1-.15a.23.23,0,0,0-.07-.1l-.2-.14,0,0a.79.79,0,0,1,.12.15.16.16,0,0,1,0,.08s0,0,0,0a.62.62,0,0,1-.37-.1.68.68,0,0,1-.21-.27,1.31,1.31,0,0,0-.17-.37,3.75,3.75,0,0,0-.63-.63l-.06-.07s0,0,0,0,0,0,0-.05l.24-.33a.82.82,0,0,0,.11-.84,1.74,1.74,0,0,0-.11-.18l-.09-.16a2,2,0,0,1-.12-.34,2.29,2.29,0,0,1,.17-1.45l0,0-.06,0a3.58,3.58,0,0,0-.42-.25l-.42-.22c-.29-.14-.62-.25-.9-.36a3.2,3.2,0,0,1-.75-.43,1.93,1.93,0,0,1-.3-.27l0,0-.21-.48a1.55,1.55,0,0,1-.14-.51.42.42,0,0,1,.26-.43.7.7,0,0,1,.33,0l.38.07a6.08,6.08,0,0,1,.74.16,7.74,7.74,0,0,1,1.33.48c.21.1.41.21.6.32l.58.35.19.13,0,0a4.7,4.7,0,0,1,.59.71c.11.16.21.33.32.51l.17.29a1.23,1.23,0,0,1,.12.26A1.94,1.94,0,0,1,13,24.29a3.15,3.15,0,0,0-.24.69,5.54,5.54,0,0,0-.12.69c0,.12,0,.23,0,.34a1,1,0,0,0,.08.33,1.23,1.23,0,0,0,.55.51l.53.3a.61.61,0,0,1,.26.21s-.13.08-.2.09l-.11,0v0h.13a.84.84,0,0,0,.16,0,.33.33,0,0,0,.22-.11c.06-.09,0-.17,0-.24A1,1,0,0,0,14.08,27Z"/><path class="cls-4" d="M1.47,14.81a.32.32,0,0,0,.07-.15,1,1,0,0,0-.24,0,1.12,1.12,0,0,0-.4.1A.78.78,0,0,0,.61,15a.36.36,0,0,0-.07.15,1,1,0,0,0,.24,0,1.23,1.23,0,0,0,.41-.1.72.72,0,0,0,.28-.23"/><path class="cls-4" d="M18.69,25.82h0a.71.71,0,0,1-.09.29,1.69,1.69,0,0,1-1,.75,4.21,4.21,0,0,1-.88.21H16.5a2.61,2.61,0,0,1-.28,0,2.58,2.58,0,0,1-.54-.07,1.86,1.86,0,0,1-.93-.49,1.47,1.47,0,0,1-.25-.38A1.09,1.09,0,0,1,14.87,25a2,2,0,0,1,.87-.47,3.1,3.1,0,0,1,1-.1,3.43,3.43,0,0,1,.88.18,1.72,1.72,0,0,1,1,.74.92.92,0,0,1,.09.29.87.87,0,0,1,0,.11v.1m0-.52a1.3,1.3,0,0,0-.23-.46,1.91,1.91,0,0,0-.59-.5A2.7,2.7,0,0,0,16.79,24a3.11,3.11,0,0,0-1.27.14,2.32,2.32,0,0,0-1,.62,1.5,1.5,0,0,0-.27.45,1.1,1.1,0,0,0-.05.47,2,2,0,0,0,1.39,1.47,3,3,0,0,0,.61.16l.3,0h.32a2.75,2.75,0,0,0,1.06-.28,2,2,0,0,0,.6-.5,1.64,1.64,0,0,0,.23-.46,1.4,1.4,0,0,0,.06-.41A1.12,1.12,0,0,0,18.69,25.3Z"/><path class="cls-4" d="M12.58,2.76a1.22,1.22,0,0,0,.49.1c.36,0,.58-.16.58-.4s-.19-.35-.46-.49-.65-.36-.65-.66.36-.62.91-.62a1.08,1.08,0,0,1,.49.09l-.1.23a.87.87,0,0,0-.41-.08c-.34,0-.49.17-.49.33s.17.33.5.49.6.42.6.68-.42.67-1,.67A1.56,1.56,0,0,1,12.49,3Z"/><path class="cls-4" d="M15.93,2.61c0,.19,0,.34,0,.46h-.34l0-.18h0A.73.73,0,0,1,15,3.1c-.44,0-.61-.23-.61-.65V1.38h.4v1c0,.27.06.46.33.46a.34.34,0,0,0,.35-.22.39.39,0,0,0,0-.15V1.38h.4Z"/><path class="cls-4" d="M16,3.56h0a.64.64,0,0,0,.33-.13c.09-.09.12-.22.12-.54V1.38h.4V3a.69.69,0,0,1-.26.65,1.2,1.2,0,0,1-.54.16ZM16.89.94c0,.1-.09.17-.24.17S16.42,1,16.42.94s.1-.18.24-.18S16.89.83,16.89.94Z"/><path class="cls-4" d="M18.4,2.05h0c0-.34-.18-.49-.37-.49s-.39.26-.41.49Zm-.78.2c0,.52.3.63.59.63a1.48,1.48,0,0,0,.41-.06l.06.19a1.51,1.51,0,0,1-.55.09.81.81,0,0,1-.9-.86.81.81,0,0,1,.84-.89.67.67,0,0,1,.7.75v.15Z"/><path class="cls-4" d="M19.63.93v.45h.47v.2h-.47v1c0,.22.12.28.26.28h.16v.21a1.07,1.07,0,0,1-.29,0A.62.62,0,0,1,19.38,3a.49.49,0,0,1-.15-.42v-1h-.3v-.2h.3V1Z"/><path class="cls-4" d="M20.65,2.23h0c0,.28.07.66.43.66s.4-.4.4-.66-.07-.66-.41-.66-.42.4-.42.66m1.23,0a.79.79,0,0,1-.82.87.77.77,0,0,1-.81-.87.8.8,0,0,1,.83-.88A.78.78,0,0,1,21.88,2.23Z"/><path class="cls-4" d="M24.12,2h0V1.91a.39.39,0,0,0-.37-.33c-.33,0-.44.31-.44.65s.13.65.42.65a.39.39,0,0,0,.38-.29.41.41,0,0,0,0-.12ZM24.51.65v2c0,.11,0,.31,0,.4h-.34l0-.21h0a.6.6,0,0,1-.52.24c-.41,0-.72-.31-.72-.87a.78.78,0,0,1,.75-.88.53.53,0,0,1,.45.2h0V.65Z"/><path class="cls-4" d="M26.07,2.05h0c0-.34-.18-.49-.37-.49s-.39.26-.41.49Zm-.78.2c0,.52.3.63.59.63a1.43,1.43,0,0,0,.41-.06l.06.19a1.51,1.51,0,0,1-.55.09.81.81,0,0,1-.9-.86.81.81,0,0,1,.84-.89.67.67,0,0,1,.7.75v.15Z"/><rect class="cls-4" x="27.57" y="0.65" width="0.39" height="2.43"/><path class="cls-4" d="M29.42,2.2h0c-.21,0-.68,0-.68.39a.28.28,0,0,0,.3.3.37.37,0,0,0,.37-.25.38.38,0,0,0,0-.1Zm0,.87,0-.18h0a.59.59,0,0,1-.49.21c-.33,0-.59-.19-.59-.48S28.85,2,29.41,2V2c0-.23-.09-.39-.4-.39a1.07,1.07,0,0,0-.41.09l-.08-.19a1.46,1.46,0,0,1,.57-.11c.5,0,.72.22.72.61v.73a2.24,2.24,0,0,0,0,.38Z"/><path class="cls-4" d="M20.68,5c0-.2,0-.3,0-.44H21l0,.21h0a.71.71,0,0,1,.56-.23.55.55,0,0,1,.52.25h0a.63.63,0,0,1,.24-.19.93.93,0,0,1,.34-.06.54.54,0,0,1,.6.6V6.23h-.39V5.17c0-.22-.05-.44-.35-.44A.38.38,0,0,0,22.2,5a.61.61,0,0,0,0,.15V6.23h-.39V5.12c0-.19-.05-.39-.34-.39a.38.38,0,0,0-.37.28.61.61,0,0,0,0,.14V6.23h-.39Z"/><path class="cls-4" d="M24.72,5.35h0c-.2,0-.68,0-.68.4a.28.28,0,0,0,.3.3.36.36,0,0,0,.37-.26.28.28,0,0,0,0-.09Zm.06.88,0-.18h0a.65.65,0,0,1-.5.21c-.33,0-.59-.19-.59-.48s.5-.62,1.06-.62v0c0-.23-.08-.39-.39-.39a.86.86,0,0,0-.41.09l-.09-.19a1.48,1.48,0,0,1,.58-.11c.49,0,.71.22.71.6v.74a2.3,2.3,0,0,0,0,.38Z"/><path class="cls-4" d="M25.61,5c0-.2,0-.3,0-.44h.34l0,.21h0a.71.71,0,0,1,.57-.23.54.54,0,0,1,.6.58V6.23h-.39V5.14c0-.2-.06-.41-.35-.41A.38.38,0,0,0,26,5a.68.68,0,0,0,0,.15V6.23h-.39Z"/><path class="cls-4" d="M27.92,5.38h0c0,.28.07.67.43.67s.4-.4.4-.67-.06-.66-.41-.66-.42.4-.42.66m1.23,0a.79.79,0,0,1-.82.88.78.78,0,0,1-.81-.87.79.79,0,0,1,.83-.88A.78.78,0,0,1,29.15,5.38Z"/><path class="cls-4" d="M29.18,6.67a4.08,4.08,0,0,0,.29-.81l.45,0a3.36,3.36,0,0,1-.47.83Z"/><path class="cls-4" d="M16.25,8.36h0c0-.34-.18-.49-.37-.49s-.39.26-.41.49Zm-.78.2c0,.52.3.64.59.64a1.12,1.12,0,0,0,.41-.07l.06.2a1.77,1.77,0,0,1-.55.08.8.8,0,0,1-.9-.85.82.82,0,0,1,.84-.9.67.67,0,0,1,.7.75v.15Z"/><path class="cls-4" d="M17,8.13c0-.2,0-.3,0-.44h.34l0,.21h0a.69.69,0,0,1,.56-.24.55.55,0,0,1,.52.26h0a.63.63,0,0,1,.24-.19A.78.78,0,0,1,19,7.66a.54.54,0,0,1,.59.6V9.39h-.39V8.33c0-.23-.05-.44-.35-.44a.37.37,0,0,0-.36.25.78.78,0,0,0,0,.16V9.39h-.39V8.28c0-.19-.05-.39-.34-.39a.37.37,0,0,0-.37.27.76.76,0,0,0,0,.15V9.39H17Z"/><path class="cls-4" d="M20.51,8.76h0a.53.53,0,0,0,0,.14.37.37,0,0,0,.37.29c.32,0,.43-.31.43-.65s-.13-.65-.44-.65a.39.39,0,0,0-.36.31.62.62,0,0,0,0,.13Zm-.4-.54c0-.26,0-.41,0-.53h.36l0,.22h0A.6.6,0,0,1,21,7.66c.43,0,.72.32.72.88a.77.77,0,0,1-.77.88.49.49,0,0,1-.43-.2h0v.84h-.4Z"/><path class="cls-4" d="M23.59,8.93c0,.18,0,.33,0,.46h-.35l0-.18h0a.78.78,0,0,1-.54.21c-.43,0-.6-.23-.6-.66V7.69h.39v1c0,.26.07.46.34.46a.35.35,0,0,0,.37-.38V7.69h.39Z"/><path class="cls-4" d="M23.68,9.88h0A.58.58,0,0,0,24,9.74c.09-.09.12-.21.12-.54V7.69h.39V9.28a.7.7,0,0,1-.25.65,1.12,1.12,0,0,1-.54.16Zm.88-2.63c0,.11-.1.18-.24.18s-.23-.07-.23-.18.1-.17.24-.17S24.56,7.15,24.56,7.25Z"/><path class="cls-4" d="M25.93,8.51h0c-.21,0-.68,0-.68.39a.28.28,0,0,0,.3.31A.37.37,0,0,0,25.92,9a.31.31,0,0,0,0-.09Zm.05.88,0-.18h0a.61.61,0,0,1-.49.21.53.53,0,0,1-.59-.49c0-.42.5-.61,1.06-.62V8.26c0-.23-.08-.38-.4-.38a1.07,1.07,0,0,0-.41.08L25,7.77a1.46,1.46,0,0,1,.57-.11c.5,0,.72.23.72.61V9a2.42,2.42,0,0,0,0,.39Z"/><rect class="cls-4" x="27.57" y="6.96" width="0.39" height="2.43"/><path class="cls-4" d="M29.42,8.51h0c-.21,0-.68,0-.68.39a.28.28,0,0,0,.3.31A.37.37,0,0,0,29.41,9a.31.31,0,0,0,0-.09Zm0,.88,0-.18h0a.62.62,0,0,1-.49.21.53.53,0,0,1-.59-.49c0-.42.5-.61,1.06-.62V8.26c0-.23-.09-.38-.4-.38A1.07,1.07,0,0,0,28.6,8l-.08-.19a1.46,1.46,0,0,1,.57-.11c.5,0,.72.23.72.61V9a2.42,2.42,0,0,0,0,.39Z"/><path class="cls-4" d="M21,11.92h0a.61.61,0,0,0,0,.14.38.38,0,0,0,.37.29c.33,0,.43-.31.43-.65s-.12-.65-.44-.65a.4.4,0,0,0-.36.31.53.53,0,0,0,0,.13Zm-.4-.54c0-.26,0-.41,0-.53h.36l0,.22h0a.6.6,0,0,1,.52-.25c.43,0,.72.31.72.87a.77.77,0,0,1-.77.88.51.51,0,0,1-.43-.19h0v.84h-.4Z"/><path class="cls-4" d="M23.66,11.52h0c0-.34-.18-.49-.37-.49s-.39.26-.41.49Zm-.78.2c0,.52.3.63.59.63a1.18,1.18,0,0,0,.41-.06l.06.2a1.77,1.77,0,0,1-.55.08.81.81,0,0,1-.9-.86.81.81,0,0,1,.84-.89.67.67,0,0,1,.7.75v.15Z"/><rect class="cls-4" x="24.41" y="10.12" width="0.39" height="2.43"/><path class="cls-4" d="M25.62,11.7h0c0,.28.07.66.43.66s.4-.4.4-.66S26.39,11,26,11s-.42.4-.42.66m1.23,0a.79.79,0,0,1-.82.87.77.77,0,0,1-.8-.87.8.8,0,0,1,.83-.88A.77.77,0,0,1,26.85,11.7Z"/><path class="cls-4" d="M27.72,10.4v.45h.48v.21h-.48v1c0,.22.12.28.26.28h.16l0,.21a1.12,1.12,0,0,1-.29,0,.58.58,0,0,1-.39-.11c-.1-.07-.15-.19-.15-.42v-1H27v-.21h.3v-.37Z"/><path class="cls-4" d="M29.42,11.67h0c-.21,0-.68,0-.68.39a.28.28,0,0,0,.3.3.36.36,0,0,0,.37-.25.34.34,0,0,0,0-.1Zm0,.88,0-.18h0a.62.62,0,0,1-.49.2c-.33,0-.59-.19-.59-.48s.5-.61,1.06-.62v-.05c0-.23-.09-.39-.4-.39a1.07,1.07,0,0,0-.41.09l-.08-.19a1.46,1.46,0,0,1,.57-.11c.5,0,.72.22.72.61v.73a2.42,2.42,0,0,0,0,.39Z"/><path class="cls-4" d="M22.64,15.66a1.11,1.11,0,0,1-.41.06.81.81,0,0,1-.91-.86.89.89,0,0,1,1-.88,1.08,1.08,0,0,1,.35,0l-.08.22a1.21,1.21,0,0,0-.28,0,.58.58,0,0,0-.57.65.56.56,0,0,0,.58.64.93.93,0,0,0,.29-.05Z"/><path class="cls-4" d="M23.18,14.85h0c0,.28.07.67.43.67s.4-.4.4-.67-.06-.66-.41-.66-.42.4-.42.66m1.23,0a.79.79,0,0,1-.82.88.78.78,0,0,1-.81-.87.8.8,0,0,1,.83-.88A.78.78,0,0,1,24.41,14.85Z"/><path class="cls-4" d="M24.8,14.44c0-.2,0-.3,0-.44h.34l0,.21h0a.71.71,0,0,1,.57-.23.53.53,0,0,1,.6.58V15.7h-.39V14.61c0-.2-.06-.41-.35-.41a.38.38,0,0,0-.37.28.71.71,0,0,0,0,.15V15.7h-.4Z"/><path class="cls-4" d="M28.63,14.68h0c0-.34-.18-.49-.37-.49s-.39.26-.4.49Zm-.78.2c0,.52.3.63.59.63a1.12,1.12,0,0,0,.41-.07l.06.2a1.5,1.5,0,0,1-.54.08.79.79,0,0,1-.9-.85A.8.8,0,0,1,28.3,14a.68.68,0,0,1,.71.75.66.66,0,0,1,0,.15Z"/><rect class="cls-4" x="29.38" y="13.27" width="0.39" height="2.43"/><path class="cls-4" d="M26,18.24h0a.61.61,0,0,0,0,.14.37.37,0,0,0,.37.28c.33,0,.43-.31.43-.65s-.13-.65-.44-.65a.4.4,0,0,0-.36.31.62.62,0,0,0,0,.13Zm-.39-.55a5,5,0,0,0,0-.53H26l0,.22h0a.62.62,0,0,1,.52-.25c.43,0,.72.32.72.88a.77.77,0,0,1-.77.88.49.49,0,0,1-.43-.2h0v.84h-.39Z"/><path class="cls-4" d="M27.61,18.86h0v-1.7H28v1.7ZM28,16.72c0,.11-.1.18-.25.18a.2.2,0,0,1-.22-.18c0-.1.1-.17.23-.17S28,16.62,28,16.72Z"/><path class="cls-4" d="M29.56,17.83h0c0-.34-.18-.49-.37-.49s-.39.26-.41.49Zm-.78.21c0,.51.3.63.59.63a1.12,1.12,0,0,0,.41-.07l.06.2a1.75,1.75,0,0,1-.54.08.8.8,0,0,1-.91-.85.82.82,0,0,1,.84-.9.67.67,0,0,1,.7.75V18Z"/><path class="cls-4" d="M11,9.5c0-.52.5-.7-.49-.72s-2.06.3-2.29,1.29-.61,1.08-.61,1.08a2,2,0,0,0,1-.54,1.12,1.12,0,0,1-.49.54c-.38.22,2.77-.52,2.87-1.65"/></svg>