<svg id="Capa_1" data-name="Capa 1" xmlns="http://www.w3.org/2000/svg" viewBox="0 0 29.17 26.82"><defs><style>.cls-1{fill:#0070a2;}.cls-2{fill:#ffd041;}.cls-3{fill:#6acbde;}.cls-4{fill:#fbc9b7;}.cls-5{fill:#231f20;}</style></defs><title>6-11meses</title><path class="cls-1" d="M20.22,16.94A1.94,1.94,0,0,1,21,14.73c1.24-.94,3.28-.85,4-1.12a2.51,2.51,0,0,1,2.2-.17c.77.42,1.56.75.76,1.5s-4.33,3.92-4.33,3.92-3.47-1-3.38-1.92"/><path class="cls-2" d="M24.3,15.68c-.84-.22-1.27-.44-1,.27A2,2,0,0,0,25,17c.51.07.48-.48.46-.53a2,2,0,0,0-1.11-.83"/><path class="cls-2" d="M26.15,14.4s.79.81,1.28.82.38-.39.32-.41a4.81,4.81,0,0,0-1.32-.62c-.36,0-.28.21-.28.21"/><path class="cls-3" d="M20.53,16.66a7.81,7.81,0,0,1,.9-1c.31-.25.9-.6.78-.83s-.56-.39-.56-.39-1.38.73-1.46,1.58.07,1.06.07,1.06Z"/><path class="cls-3" d="M23.46,14.26s-.2.39-.09.55.68.1.82,0a.44.44,0,0,0,.06-.49c-.07,0-.56-.38-.79-.06"/><path class="cls-4" d="M6,26.21s-.5-2.28-.73-3.14-.21-3.29.36-3.94a5.66,5.66,0,0,1,2.87-1.88c1-.1,1.73-.35,1.85-.73a2.3,2.3,0,0,0-1.06-2.2c-1-.59-.69-2.87-.69-2.87a25.7,25.7,0,0,1,4.7-2,19.22,19.22,0,0,1,6.33-.55,5.84,5.84,0,0,1,1.42,1.06,6.5,6.5,0,0,1,.16,1.51c-.06.36-1.46,1.94-1.44,2.63a2.41,2.41,0,0,1-.37,1.66A8.21,8.21,0,0,1,17,16.8l-1.18.14,2.71,1,.89.36a2.2,2.2,0,0,1,.63-1.09c.43-.28.78-.79.86-.52s.12,1.2.33,1.22a1.57,1.57,0,0,0,.85-.09c.12-.12.49-1.36.73-1.43s.57-.29.71-.11a1.2,1.2,0,0,1,.1.6,1.14,1.14,0,0,1,.42.77,1.89,1.89,0,0,1-.44.92,8.74,8.74,0,0,1,1.06-.9c.23-.1.51-.93.53-1s.18-.9.49-1a3.37,3.37,0,0,1,.94-.08s.23,0-.34.92a3.21,3.21,0,0,1-1.41,1.24s.75.37.81,1.89a1.82,1.82,0,0,1-1.53,2,23,23,0,0,1-4.92.27l-.85.41s.42,1.16.61,1.75a8.36,8.36,0,0,1,.11,2.1Z"/><path class="cls-5" d="M15,12.16a5.51,5.51,0,0,0-2.77.67s2.9-.8,3.57-.33l.22.19s.26-.38-1-.53"/><path class="cls-5" d="M16.73,14.83c.42.19.54.1.95,0s.26-.25,0-.8.33-.9.86-1.19a2.17,2.17,0,0,1,1.46.07l0-.1a1.92,1.92,0,0,0-2.4.36c-.44.61-.07.91-.06,1.31s-.87.38-.87.38"/><path class="cls-5" d="M15.39,13.08s.12-.24-.44-.25a15.7,15.7,0,0,0-1.77.17l1,0s-.25.17.1.32.83.06.82-.09a.94.94,0,0,1,0-.23Z"/><path class="cls-5" d="M19,13.38a1,1,0,0,1,.41.19c.2-.3-.46-.35-.91-.3s-.47.17-.47.17c.53,0,0,.18.28.31a.54.54,0,0,0,.65-.14c.15-.15-.11-.23,0-.23"/><path class="cls-5" d="M15.27,15.3c-.85-.2-1.53-.42-1.53-.42s.15.46,1,.72a3,3,0,0,0,1.88.24c.35-.18.34-.38.66-.45a7.23,7.23,0,0,1-2-.09"/><path class="cls-5" d="M14,16.05c.25.25,1.63.31.94,0s-1.2-.24-.94,0"/><path class="cls-5" d="M11.26,14.06a.1.1,0,0,1,0,0Z"/><path class="cls-5" d="M10.06,13a.12.12,0,0,0,0-.11L10,12.85l-.1-.08-.17-.14a.77.77,0,0,0-.22-.15.36.36,0,0,0-.19,0,.23.23,0,0,0-.17.07.24.24,0,0,0,0,.14.5.5,0,0,0,0,.11h0l.07-.09s.06-.06.09-.07,0,0,0,0a.79.79,0,0,1,.12.13,1.16,1.16,0,0,0,.2.16l.13.08s0,0,0,0a1.27,1.27,0,0,0,0,.22c0,.16,0,.3,0,.46s0,.06,0,0H9.57s-.05,0-.07,0a.17.17,0,0,1,0-.1l0-.1,0,0-.12.08a.3.3,0,0,0-.08.14c0,.06,0,.16.15.2a.69.69,0,0,0,.35,0,.41.41,0,0,0,.19-.09.11.11,0,0,0,0-.17.32.32,0,0,1,0-.4.91.91,0,0,0,.12-.22"/><path class="cls-5" d="M17.35,16.94h0Z"/><path class="cls-5" d="M28,14.74h0a.57.57,0,0,0-.15-.16,2.34,2.34,0,0,0-.68-.32,3.9,3.9,0,0,0-.76-.16h-.14a.29.29,0,0,0-.18.07c-.09.11,0,.18,0,.23a1.26,1.26,0,0,0,.22.24,3.34,3.34,0,0,0,.53.37l.29.16.1,0a1,1,0,0,1-.18.08,1.68,1.68,0,0,1-.55.11c-.21,0-.38,0-.75,0a.77.77,0,0,0-.48.22.83.83,0,0,0-.11.15l0,.05a3.58,3.58,0,0,0-.68-.33,4.07,4.07,0,0,0-.58-.15l-.3,0a1.09,1.09,0,0,0-.49,0,.42.42,0,0,0-.24.21.31.31,0,0,0,0,.19.71.71,0,0,0,.13.26l0,0a.58.58,0,0,0-.18,0,.64.64,0,0,0-.27.23,1.7,1.7,0,0,0-.17.41,1.85,1.85,0,0,1-.27.67.76.76,0,0,1-.58.31.23.23,0,0,1-.12,0l-.09,0a.84.84,0,0,0,.06-.14,1.35,1.35,0,0,0,.08-.43,1.68,1.68,0,0,0,0-.43.37.37,0,0,0-.07-.14.44.44,0,0,0-.37-.18.65.65,0,0,0-.21,0l-.1,0-.15.09-.23.2h0a3,3,0,0,1,.06-.67,3.71,3.71,0,0,1,.12-.41,4.28,4.28,0,0,0,.55-.26,5,5,0,0,0,.67-.43l.17-.12.08-.06s0,0,0,0-.06,0,0,0,.07,0,.09.1a.47.47,0,0,1,0,.35.72.72,0,0,1-.32.26c-.14.07-.28.13-.39.2a4,4,0,0,0-.67.61.83.83,0,0,0-.11.17l0,0a3,3,0,0,0,.83-.33,2,2,0,0,0,.32-.22,1.61,1.61,0,0,0,.25-.32c.07-.12.15-.23.23-.36a3.52,3.52,0,0,0,.17-.39.31.31,0,0,0,0-.26.43.43,0,0,0-.33-.18l.18-.06.51-.07.58-.07.26,0-.05,0c-.07,0-.09,0-.15.08a.38.38,0,0,0-.13.09.31.31,0,0,0-.09.23.45.45,0,0,0,.37.4h0a2.12,2.12,0,0,0,.57,0,1.69,1.69,0,0,0,.48-.14l.32-.15-.19-.16a1.22,1.22,0,0,0-.5-.29,3,3,0,0,0-.32-.09h-.15l.76-.16a11.2,11.2,0,0,0,1.2-.38,1.71,1.71,0,0,1,1.14-.06,2.32,2.32,0,0,1,1,.53.64.64,0,0,1,.22.42.82.82,0,0,1-.07.29m-.61.38h0A1.81,1.81,0,0,1,27,14.9a2.86,2.86,0,0,1-.46-.37.83.83,0,0,1-.15-.19h0a3.11,3.11,0,0,1,1.11.45c.11.11.11.17,0,.26A.5.5,0,0,1,27.37,15.12Zm-.93,1.11h0l-.06.16a.83.83,0,0,1-.08.12,1.28,1.28,0,0,1-.23.24,9.55,9.55,0,0,1-1.28.87l0,0,.47-.35c.17-.11.44-.31.45-.57a.62.62,0,0,0-.12-.39.92.92,0,0,1,.05-.26.26.26,0,0,1,0-.1s0,0,.05-.07,0,0,.08,0,.4,0,.68,0h0A1.6,1.6,0,0,1,26.44,16.23Zm-.74,3.41h0a1.92,1.92,0,0,1,0,.48,1.74,1.74,0,0,1-.13.46l-.11.23c0,.06-.11.11-.15.17s-.13.1-.19.15a1.08,1.08,0,0,1-.24.13,4.38,4.38,0,0,1-.58.19c-.22,0-.42.09-.65.12l-.67.1-.69.07c-.9.08-1.81.13-2.74.18a5.75,5.75,0,0,0,1.2-1.15,3.64,3.64,0,0,1,.47-.54,2.18,2.18,0,0,1,.64-.36c.25-.09.51-.17.77-.24a2.5,2.5,0,0,0,.76-.33,1.63,1.63,0,0,0,.58-.95,1.45,1.45,0,0,0,.1-.77,1.42,1.42,0,0,0-.19-.47L23.79,17c0-.05,0-.1,0-.14v-.07a4,4,0,0,0,.51.26,1.37,1.37,0,0,0,.44.13H25c-.13.11-.24.22-.34.32a4.19,4.19,0,0,0-.64.83H24a5.87,5.87,0,0,1,.6-.59l.09.1A3.33,3.33,0,0,1,25.7,19.64ZM25,16.43h0a.46.46,0,0,1-.06.29s0,0-.2-.06a4.24,4.24,0,0,1-.87-.54,2.39,2.39,0,0,1-.32-.31.37.37,0,0,1-.06-.1l.27,0a2.89,2.89,0,0,1,.47.11,2.31,2.31,0,0,1,.79.36C25,16.29,25,16.36,25,16.43Zm-3.79,1.18Zm2.46-3.27h0s0-.07,0-.08,0,0,0,0l.09,0a.38.38,0,0,1,.13.15.75.75,0,0,0,.07.12l-.17.09a1.48,1.48,0,0,0-.26.24l.09-.26a.26.26,0,0,0,0-.15Zm4.63.1a.85.85,0,0,0-.23-.5,2.73,2.73,0,0,0-1.1-.65,2.17,2.17,0,0,0-.74-.13,3,3,0,0,0-.72.11c-.43.12-.81.23-1.2.31s-.77.15-1.14.21l-.57.08L22,14a2.55,2.55,0,0,0-1.58,1A2,2,0,0,0,20.05,16a3.48,3.48,0,0,0,.07.69.46.46,0,0,0,0,.09l0,0L20,17a1.77,1.77,0,0,0-.21.14,1.22,1.22,0,0,0-.29.4,2.27,2.27,0,0,0-.22.65L19,18a4.19,4.19,0,0,0-1.26-.66,5.93,5.93,0,0,0-.81-.19l-.14,0,.52-.15a8.47,8.47,0,0,0,1.22-.45,5.79,5.79,0,0,0,.54-.31,1.45,1.45,0,0,0,.23-.19,1,1,0,0,0,.2-.21,1.63,1.63,0,0,0,.29-.92,2,2,0,0,1,.24-.89l.11-.19.16-.21a3.3,3.3,0,0,0,.32-.4,4.76,4.76,0,0,0,.5-.87,5.51,5.51,0,0,0,.34-.9,1.6,1.6,0,0,0,.05-.21l.15-.15c1-1,.32-2.45-.65-3.34s-2-1.5-5-1.83S9.57,7.11,8.45,9a3.67,3.67,0,0,0-.24,3.58c.12.59.51,2.1.51,2.1L9,14.11l.34,1.13.22-.53.19.67.09-.6a4.27,4.27,0,0,1,.3.94,1,1,0,0,1-.41,1.11,1.3,1.3,0,0,1-.33.17,1,1,0,0,1-.38.07,2.7,2.7,0,0,0-1,.19,4,4,0,0,0-.78.48c-.23.17-.45.34-.66.52a4.57,4.57,0,0,0-1,1.21A4.18,4.18,0,0,0,5,20.84a5.47,5.47,0,0,0-.08,1.4,5.34,5.34,0,0,0,.27,1.39h0c.16.3.28.63.42,1l.4,1H6a5.66,5.66,0,0,0-.09-1,4.61,4.61,0,0,0-.25-1v0a12,12,0,0,1-.17-1.34,8.56,8.56,0,0,1,0-1.34,5.52,5.52,0,0,1,.3-1.31,2.91,2.91,0,0,1,.8-1.21,6.79,6.79,0,0,1,.66-.51,3,3,0,0,1,.79-.37A2.33,2.33,0,0,1,9,17.41a1.79,1.79,0,0,0,.6-.07,2,2,0,0,0,.48-.22,1.14,1.14,0,0,0,.53-.71,1.42,1.42,0,0,0-.06-.74,2.82,2.82,0,0,0-.34-.67,3.66,3.66,0,0,0-.52-.61h0l-.31-.35c-.48-.56-.77-1.74-.2-1.88s1.18.63,1.18.63a1.07,1.07,0,0,0,.39.9l.12-.6.43,1a2.46,2.46,0,0,1,.14-1.91,4.53,4.53,0,0,1,2.23-1.85l-.87,1,2.87-1.16L13.9,11.75l2.19-1.14-.77,1.15,1.22-.65-.64.69,1.91-1.05-1,1.23,1.9-.38-.78.48L20.23,11l-1.18,1.15,2.06-.86,0,0-.81.88a2.59,2.59,0,0,0,.53-.36l-.17.31c-.16.28-.33.56-.5.84s-.17.26-.25.43a1.71,1.71,0,0,0-.19.46,3.79,3.79,0,0,0-.09.94,1.76,1.76,0,0,1-.07.45.87.87,0,0,1-.25.39.85.85,0,0,1-.2.17,1.28,1.28,0,0,1-.23.14,4.5,4.5,0,0,1-.55.22l-.59.19-.61.16h0a7.38,7.38,0,0,1-.74.16c-.25.05-.51.07-.77.1a6.43,6.43,0,0,1-.76,0,2.43,2.43,0,0,1-.38,0l-.16,0-.2,0-.35-.09-.34-.13c-.22-.09-.44-.2-.65-.31a11.27,11.27,0,0,1-1.21-.76l-.06,0a4.67,4.67,0,0,0,1,1,3.76,3.76,0,0,0,.65.4,2.09,2.09,0,0,0,.37.17,2.86,2.86,0,0,0,.41.15l.2.05.23,0,.34,0v0a2.58,2.58,0,0,0-.29.6,1.21,1.21,0,0,0,0,.62.85.85,0,0,0,.09.19l0,.07,0-.07a1.15,1.15,0,0,1,0-.2,1.1,1.1,0,0,1,.23-.55,3.4,3.4,0,0,1,.45-.47l.24-.19.32,0,.27,0,.22,0c.38.09.87.22,1.34.38.11,0,.24.07.35.12s.23.07.34.12l.61.22a3.79,3.79,0,0,0,.43.15h0a.34.34,0,0,1-.07.3,1,1,0,0,1-.34.23,5.73,5.73,0,0,1-1,.31c-.34.08-.71.15-1.06.25a5.42,5.42,0,0,0-1,.41,2.55,2.55,0,0,0-.66.5c-.87-.35-1.75-.71-2.66-1a4.86,4.86,0,0,0-.74-.68,3.48,3.48,0,0,0-.5-.3,1.69,1.69,0,0,0-.27-.13l-.29-.12A4.24,4.24,0,0,0,10,17.9a4.5,4.5,0,0,0-.64-.11,4.64,4.64,0,0,0-1.29,0v0A6.09,6.09,0,0,1,9.34,18l.57.14c.19.06.36.13.53.2a4.17,4.17,0,0,1,.89.55,4.87,4.87,0,0,1,.69.67l0,.05.07,0c1,.35,2,.65,3,.95l.18.05.06-.11a1.64,1.64,0,0,1,.59-.58,3.59,3.59,0,0,1,.91-.4c.68-.19,1.44-.26,2.14-.51a1.39,1.39,0,0,0,.49-.27.61.61,0,0,0,.19-.43,2.4,2.4,0,0,1,.3-.68,1.11,1.11,0,0,1,.23-.28s.1-.05.2-.12l.2-.16.2-.17c0,.05,0,.11,0,.17a1.21,1.21,0,0,1-.07.33.5.5,0,0,1-.08.14l0,.06,0,.06a.2.2,0,0,0,0,.13.46.46,0,0,0,.22.19l.15.07a1.24,1.24,0,0,0,.15.05,1.52,1.52,0,0,0,.42.06,1.49,1.49,0,0,0,1.13-.57,1.89,1.89,0,0,0,.27-.81,1.52,1.52,0,0,1,.1-.34s0-.06,0-.07h.06c.14,0,.18.05.24.14a.6.6,0,0,1,.08.33,2.69,2.69,0,0,1-.11.73,7.41,7.41,0,0,1-.26.75h.06a5.93,5.93,0,0,0,.44-.71,2.87,2.87,0,0,0,.22-.62,1.39,1.39,0,0,1,.15.58,1.57,1.57,0,0,1-.2.72,1.86,1.86,0,0,1-.61.82,2.33,2.33,0,0,1-.65.24c-.26.06-.55.13-.84.22a2.55,2.55,0,0,0-1.38,1,6.62,6.62,0,0,1-2.75,1.9,8.1,8.1,0,0,1-1.87.44,12.61,12.61,0,0,1-1.94,0,25.47,25.47,0,0,1-3.46-.49c-1-.21-1.82-.41-2.39-.57L7,21.64s.3.13.85.33,1.33.47,2.32.72c.5.13,1.05.25,1.63.37a17.18,17.18,0,0,0,1.89.27,12.27,12.27,0,0,0,2.1,0,8.9,8.9,0,0,0,2.07-.47c.22-.08.43-.18.64-.28,0,.11.05.26.09.43.1.38.23.89.34,1.39a9.49,9.49,0,0,1,.22,1.4,4.38,4.38,0,0,1,0,.47,1.49,1.49,0,0,0,0,.19,1.15,1.15,0,0,0,.11-.17,1.59,1.59,0,0,0,.22-.47,2.42,2.42,0,0,0,.12-.69,4.37,4.37,0,0,0-.07-.79,3.9,3.9,0,0,0-.27-.77,3.83,3.83,0,0,0-.35-.64,4.59,4.59,0,0,0-.32-.41,6.7,6.7,0,0,0,.9-.54,15.93,15.93,0,0,0,2.86.18A10.44,10.44,0,0,0,23.8,22a6.2,6.2,0,0,0,.72-.16,4.12,4.12,0,0,0,.69-.27,1,1,0,0,0,.3-.19.79.79,0,0,0,.25-.23.91.91,0,0,0,.15-.27,1.14,1.14,0,0,0,.06-.25,1.83,1.83,0,0,0,0-.52,2.74,2.74,0,0,0-.08-.5,8.46,8.46,0,0,0-.29-1,3.94,3.94,0,0,0-.36-.82,5,5,0,0,0,.6-.36,3.47,3.47,0,0,0,.61-.53,1.5,1.5,0,0,0,.23-.33,1,1,0,0,0,.06-.18v-.17a1.34,1.34,0,0,0,0-.34,1,1,0,0,0,0-.14,2.49,2.49,0,0,0,.61-.16,1.92,1.92,0,0,0,.61-.39A.52.52,0,0,0,28,15l.05-.06A1.17,1.17,0,0,0,28.25,14.44Z"/><polygon class="cls-5" points="2.12 2.29 1.25 2.29 1.25 3.17 2.23 3.17 2.23 3.41 0.85 3.41 0.85 1.04 2.17 1.04 2.17 1.28 1.25 1.28 1.25 2.06 2.12 2.06 2.12 2.29"/><path class="cls-5" d="M2.81,1.71,3,2.07c.06.1.1.2.16.3h0l.16-.3.23-.36H4l-.58.84L4,3.41H3.57L3.33,3l-.16-.3h0c-.05.11-.11.2-.16.3l-.23.38h-.4L3,2.55l-.57-.84Z"/><path class="cls-5" d="M4.66,2.78h0a.28.28,0,0,0,0,.14A.36.36,0,0,0,5,3.21c.33,0,.43-.31.43-.65S5.35,1.91,5,1.91a.41.41,0,0,0-.37.31.57.57,0,0,0,0,.13Zm-.39-.54c0-.26,0-.41,0-.53H4.6l0,.22h0a.61.61,0,0,1,.52-.25c.44,0,.72.32.72.87s-.38.89-.77.89a.52.52,0,0,1-.43-.2h0v.84H4.27Z"/><rect class="cls-5" x="6.27" y="0.98" width="0.39" height="2.43"/><path class="cls-5" d="M7.48,2.56h0c0,.28.07.66.43.66s.4-.4.4-.66S8.25,1.9,7.9,1.9s-.42.4-.42.66m1.23,0a.79.79,0,0,1-.82.88.78.78,0,0,1-.81-.88.8.8,0,0,1,.83-.88A.78.78,0,0,1,8.71,2.56Z"/><path class="cls-5" d="M9.09,2.15c0-.15,0-.31,0-.44h.36l0,.27h0a.58.58,0,0,1,.52-.3h.08V2H10a.47.47,0,0,0-.48.35.81.81,0,0,0,0,.16v.94h-.4Z"/><path class="cls-5" d="M11.21,2.53h0c-.21,0-.68,0-.68.39a.29.29,0,0,0,.3.31A.37.37,0,0,0,11.2,3a.34.34,0,0,0,0-.1Zm0,.88,0-.18h0a.61.61,0,0,1-.49.21A.53.53,0,0,1,10.14,3c0-.42.5-.61,1.06-.62V2.28c0-.23-.08-.38-.4-.38a1.07,1.07,0,0,0-.41.08l-.08-.19a1.48,1.48,0,0,1,.58-.11c.49,0,.71.23.71.61V3a2.42,2.42,0,0,0,0,.39Z"/><path class="cls-5" d="M12.78,3.13a1,1,0,0,0,.4.09c.23,0,.37-.1.37-.25s-.07-.22-.32-.33-.5-.29-.5-.49.3-.47.68-.47a1.18,1.18,0,0,1,.45.09l-.11.2a.81.81,0,0,0-.33-.07c-.21,0-.32.1-.32.21s.06.18.31.3.51.28.51.51-.34.51-.74.51a1.09,1.09,0,0,1-.49-.1Z"/><path class="cls-5" d="M15.76,2.94c0,.19,0,.34,0,.47h-.34l0-.18h0a.73.73,0,0,1-.53.21c-.43,0-.6-.24-.6-.66V1.71h.39v1c0,.27.06.47.33.47A.36.36,0,0,0,15.35,3a.61.61,0,0,0,0-.15V1.71h.39Z"/><path class="cls-5" d="M16.59,3.9h0a.65.65,0,0,0,.34-.14c.08-.09.12-.22.12-.54V1.71h.39V3.3a.7.7,0,0,1-.25.65,1.12,1.12,0,0,1-.54.16Zm.89-2.63c0,.11-.1.18-.25.18S17,1.38,17,1.27s.1-.17.23-.17S17.48,1.17,17.48,1.27Z"/><path class="cls-5" d="M19.41,2.94c0,.19,0,.34,0,.47h-.34l0-.18h0a.75.75,0,0,1-.53.21c-.44,0-.6-.24-.6-.66V1.71h.39v1c0,.27.06.47.33.47A.37.37,0,0,0,19,3a.61.61,0,0,0,0-.15V1.71h.39Z"/><path class="cls-5" d="M21,2.3h0a.51.51,0,0,0,0-.13.38.38,0,0,0-.36-.26c-.29,0-.44.27-.44.64s.2.63.44.63A.35.35,0,0,0,21,2.94a.4.4,0,0,0,0-.15Zm.41-.59c0,.12,0,.27,0,.53v.95c0,.45-.09.61-.25.74a1.13,1.13,0,0,1-.66.18A1.87,1.87,0,0,1,20,4l.09-.21a1.59,1.59,0,0,0,.46.07c.31,0,.51-.13.51-.52V3.2h0a.57.57,0,0,1-.48.2.74.74,0,0,1-.73-.83.8.8,0,0,1,.78-.89A.51.51,0,0,1,21,1.9h0l0-.19Z"/><path class="cls-5" d="M23.39,2.94c0,.19,0,.34,0,.47h-.35l0-.18h0a.77.77,0,0,1-.53.21c-.44,0-.61-.24-.61-.66V1.71h.4v1c0,.27.06.47.33.47A.35.35,0,0,0,23,2.83V1.71h.4Z"/><path class="cls-5" d="M24.94,2.38h0c0-.34-.18-.49-.37-.49s-.39.26-.4.49Zm-.78.2c0,.52.3.64.59.64a1.12,1.12,0,0,0,.41-.07l.06.2a1.75,1.75,0,0,1-.54.08.8.8,0,0,1-.9-.85.82.82,0,0,1,.83-.9.68.68,0,0,1,.71.75.62.62,0,0,1,0,.15Z"/><path class="cls-5" d="M26.17,1.26v.45h.48v.21h-.48v1c0,.22.12.28.27.28h.15l0,.21a1.07,1.07,0,0,1-.29,0,.67.67,0,0,1-.39-.1.49.49,0,0,1-.15-.43v-1h-.3V1.71h.3V1.34Z"/><path class="cls-5" d="M28,2.38h0c0-.34-.18-.49-.37-.49s-.39.26-.4.49Zm-.78.2c0,.52.3.64.59.64a1.12,1.12,0,0,0,.41-.07l.06.2a1.75,1.75,0,0,1-.54.08.79.79,0,0,1-.9-.85.82.82,0,0,1,.83-.9.68.68,0,0,1,.71.75.62.62,0,0,1,0,.15Z"/><path class="cls-5" d="M14,5.9s1.24-.36,0-1.1A3.94,3.94,0,0,0,8.83,6,19.88,19.88,0,0,1,6.45,8.64a3.91,3.91,0,0,0,1.69-.59,1.72,1.72,0,0,1-.93.71S13.28,7,14,5.9"/></svg>