<svg id="Capa_1" data-name="Capa 1" xmlns="http://www.w3.org/2000/svg" viewBox="0 0 500.03 650">
    <defs>
        <style>.cls-1 {
            fill: #f70679;
        }

        .cls-2 {
            fill: #fff;
        }</style>
    </defs>
    <title>marker-embarazada</title>
    <path class="cls-1"
          d="M250.92,588.18c-9.74-9.28-20-17.48-28.34-27.28-20.87-24.4-41.88-48.79-61.06-74.51-35.4-47.49-64.4-98.62-81.63-155.75-8.31-27.4-13.31-55.4-12.4-84.09,1.24-40.46,14-76.91,39.42-108.74q42.18-52.93,108.54-66C258,63.5,298.71,69.68,336.77,90.44c46.71,25.5,76.73,64.43,90.27,115.89,6.13,23.28,6.83,46.94,4.08,70.84-6.69,58.13-30,110-59.63,159.52A705.12,705.12,0,0,1,300,535.21c-15.08,17.51-31.23,34.08-46.92,51.06A24.5,24.5,0,0,1,250.92,588.18ZM388.69,253.86c.35-72.38-56.84-137.36-136.3-138.8-77.42-1.41-137.26,59.4-140.84,131.55-3.92,79,57.88,142,131.14,145.67C323.38,396.34,389.07,331.5,388.69,253.86Z"/>
    <ellipse class="cls-2" cx="251.58" cy="254" rx="140.5" ry="144"/>
    <path class="cls-1"
          d="M267,209.15c-1.08,3.5-2.34,6.47-2.88,9.58-.7,4.05,1,7.45,4.09,10.12,8.57,7.45,17.32,14.65,27.6,19.73a23.68,23.68,0,0,1,4.86,3.36c8,6.85,8.24,15.79.72,23.21-.88.86-1.81,1.66-2.65,2.43,4.07,3.26,8.22,6.27,12,9.67,8.71,7.84,15.22,17.19,18.19,28.68,3.38,13.06,1.22,25.55-4.37,37.58a78.48,78.48,0,0,1-11,17.61c-2.33,2.79-4.46,5.74-6.75,8.57-5.87,7.26-13,11.7-22.72,12.68-13.84,1.39-27.62,3.46-41.55,3.07a92,92,0,0,1-17.59-2.13c-9.2-2.08-12.68-7.45-10.72-16.65A139.49,139.49,0,0,1,220,358.29c1.83-5,4.14-9.84,6.36-14.69a3,3,0,0,0-.24-3.41C220,331.93,213.93,323.7,208,315.36c-5.77-8.1-11.39-16.3-17-24.5a37.65,37.65,0,0,1-2.12-4.09c-3.6-6.94-2.92-13.49,1.62-19.8,2.5-3.47,4.74-7.13,7.26-10.58,2.67-3.67,5.59-7.16,8.3-10.81s5.35-7.42,8-11.15c-3.41.28-6.8.59-10.2.8a13.23,13.23,0,0,1-3.49-.25,4,4,0,0,1,1-7.87c15.8.79,27.49-6.46,36.59-18.73,2.33-3.13,4.43-4,6.65-2.48s2.46,4-.07,7c-3.27,3.91-6.5,8.06-10.49,11.12s-7.07,7-10.12,11c-4.42,5.73-8.9,11.43-13.19,17.27-4.66,6.35-9,12.93-13.72,19.25-3.07,4.13-3.23,8.29-.62,12.44,4.46,7.12,9,14.24,13.86,21.05,6.69,9.3,13.79,18.32,20.86,27.65.78-1.84,1.64-3.6,2.26-5.45a2.66,2.66,0,0,0-.6-1.91Q221.91,309.48,211,293.71c-5-7.22-4.91-13.4.58-20.23q5.24-6.51,10.56-12.93c2.5-3,5.44-2.63,7.36.8,5.39,9.64,10.58,19.4,16.26,28.86,3.34,5.55,3.89,11.2,2.69,17.29-2,10.12-6.12,19.5-10.14,28.92-4.71,11-9.49,22-13.95,33.15-1.34,3.34-1.79,7.06-2.47,10.64a3.83,3.83,0,0,0,3.1,4.81,71.41,71.41,0,0,0,11.15,2.13c13.2,1,26.32-.31,39.42-1.87,3.55-.43,7.09-1.06,10.65-1.45a16.16,16.16,0,0,0,10.45-4.94c9.48-9.94,17.88-20.62,22.68-33.65,7-19,2.37-35.47-11.54-49.68A74.16,74.16,0,0,0,289.51,282c-1.68-.9-2.94-2-3-4s1.33-3,2.87-4.07a44,44,0,0,0,7.09-5.44c3.32-3.4,3.07-6.73-.44-9.89a22.15,22.15,0,0,0-4.84-3.38c-11-5.51-20.46-13.08-29.35-21.39-6.5-6.06-7.4-13.81-4.36-21.84a54.9,54.9,0,0,1,6.08-10.84c1.94-2.88,4.53-2.69,7-.17a27.79,27.79,0,0,0,5.12,4.41c3.21,2,5.91,1.14,7.76-2.12,7.73-13.68,9.62-28.05,5-43.17-.13-.42-.29-.83-.39-1.26a3.92,3.92,0,0,1,2.72-5,3.76,3.76,0,0,1,4.85,2.63,93.16,93.16,0,0,1,2.92,13c1.55,13.13-1.34,25.45-7.68,37-4.68,8.51-13.18,10.39-21.12,4.7C269.07,210.69,268.38,210.17,267,209.15Zm-42.1,60.65c-2.58,3.16-5,6.09-7.36,9-2.82,3.47-2.94,6-.36,9.72q9.45,13.71,19,27.38c.3.43.68.81,1,1.21l.73,0c1.06-5.05,2.28-10.06,3.08-15.15a8.94,8.94,0,0,0-1-5.26C235.12,287.78,230.06,279,224.88,269.8Z"/>
    <path class="cls-1"
          d="M156.08,250.54c-.17-15.46,5.85-28.2,16.59-39.1a118.86,118.86,0,0,1,30.45-22.38c5.25-2.7,10.28-5.85,15.36-8.89a20.57,20.57,0,0,0,3-2.54,6.52,6.52,0,0,0,2.23-6c-1.84-21.68,16.7-42.43,38.42-42.94,10.3-.24,19.29,3.65,27.27,10a4,4,0,0,1,.79,5.82c-1.48,1.82-3.79,2-5.86.35-6.06-4.81-12.77-8-20.64-8.11-15.19-.29-29.82,12.58-31.76,28a34.85,34.85,0,0,0-.06,7.64,11.23,11.23,0,0,1-3.77,9.88,86.27,86.27,0,0,1-11.86,8.94c-5.79,3.55-12,6.37-17.88,9.81a95.57,95.57,0,0,0-23.73,20.33c-9.72,11.22-12,24.25-9.65,38.42a51.71,51.71,0,0,0,6.82,18c3.39,5.71,6.58,11.53,9.83,17.32,1.42,2.53.92,5-1.18,6.09s-4.39.44-5.82-2.17c-4.73-8.66-9.68-17.21-14-26.07C157.23,266,156.11,258.29,156.08,250.54Z"/>
    <path class="cls-1"
          d="M286.69,319.34c4.29-1.91,8.44-2.86,12.84-2.13,14.8,2.45,20.66,17.4,11.09,29a47.44,47.44,0,0,1-10.35,8.7c-8.43,5.63-17.44,10.16-27.59,11.87-7.21,1.21-11.29-.78-14.89-7.2-3.82-6.8-5.66-14.24-6.94-21.84-1.08-6.36-1.9-12.76-.82-19.2,1.26-7.49,5.14-13.12,12.58-15.41,7.29-2.25,13.53.26,18.71,5.58A21,21,0,0,1,286.69,319.34Zm-29.44,3.85c.42,4.09.6,7.17,1.08,10.2,1.19,7.59,2.71,15.12,6.3,22,1.84,3.56,3.24,4.29,7.08,3.4A72.24,72.24,0,0,0,302.65,343a16,16,0,0,0,4-6.37,7.88,7.88,0,0,0-3.8-9.95c-4.73-2.67-9.43-2.3-13.84.75-2.21,1.52-4.37,2.38-6.92,1.06s-3.11-3.42-3.19-6a12.54,12.54,0,0,0-4.69-9.54c-5.35-4.5-12.22-3.17-15.13,3.19C258,318.6,257.68,321.44,257.25,323.19Z"/>
</svg>
