<?xml version="1.0" encoding="UTF-8" standalone="no"?>
<svg
   width="501.06"
   height="644.789"
   viewBox="0 0 501.06 644.789"
   version="1.1"
   id="svg35"
   sodipodi:docname="marker-gestante-visita.svg"
   inkscape:version="1.2.1 (9c6d41e410, 2022-07-14)"
   xmlns:inkscape="http://www.inkscape.org/namespaces/inkscape"
   xmlns:sodipodi="http://sodipodi.sourceforge.net/DTD/sodipodi-0.dtd"
   xmlns="http://www.w3.org/2000/svg"
   xmlns:svg="http://www.w3.org/2000/svg">
  <sodipodi:namedview
     id="namedview37"
     pagecolor="#ffffff"
     bordercolor="#000000"
     borderopacity="0.25"
     inkscape:showpageshadow="2"
     inkscape:pageopacity="0.0"
     inkscape:pagecheckerboard="0"
     inkscape:deskcolor="#d1d1d1"
     showgrid="false"
     inkscape:zoom="1.2949973"
     inkscape:cx="250.19357"
     inkscape:cy="323.1667"
     inkscape:window-width="1920"
     inkscape:window-height="1051"
     inkscape:window-x="-9"
     inkscape:window-y="-9"
     inkscape:window-maximized="1"
     inkscape:current-layer="icon-home-worker" />
  <defs
     id="defs26">
    <clipPath
       id="clip-path">
      <circle
         id="Ellipse_9"
         data-name="Ellipse 9"
         cx="105"
         cy="105"
         r="105"
         transform="translate(1452.256 16585.293)"
         fill="#ee6910"
         stroke="#707070"
         stroke-width="1" />
    </clipPath>
  </defs>
  <g
     id="icon-home-worker"
     transform="translate(-3519.5 -16805.5)">
    <g
       id="Group_188"
       data-name="Group 188"
       transform="translate(3520 16806)"
       style="fill:#aa0044">
      <path
         id="Subtraction_2"
         data-name="Subtraction 2"
         d="M250.032,643.788a37.8,37.8,0,0,1-24.015-8.128c-.141-.116-14.373-11.828-35.315-32.1a894.629,894.629,0,0,1-77.693-85.636C80.2,476.48,54.062,435.038,35.315,394.749,11.882,344.389,0,295.7,0,250.032a250.1,250.1,0,0,1,480.412-97.325,248.475,248.475,0,0,1,19.648,97.325c0,45.667-11.882,94.356-35.314,144.717C446,435.038,419.86,476.48,387.054,517.924a890.257,890.257,0,0,1-77.692,85.636c-20.944,20.275-35.173,31.984-35.314,32.1A37.8,37.8,0,0,1,250.032,643.788Zm0-519.551a125.793,125.793,0,1,0,125.795,125.8A125.935,125.935,0,0,0,250.028,124.237Z"
         transform="translate(0 0)"
         fill="#ee6910"
         stroke="rgba(0,0,0,0)"
         stroke-miterlimit="10"
         stroke-width="1"
         style="fill:#aa0044" />
    </g>
    <g
       id="Mask_Group_3"
       data-name="Mask Group 3"
       transform="translate(2212.744 368.805)"
       clip-path="url(#clip-path)"
       style="fill:#aa0044">
      <g
         id="stay-at-home"
         transform="translate(1455.826 16587.08)"
         style="fill:#aa0044">
        <path
           id="Path_151"
           data-name="Path 151"
           d="M21.267,109.927l83.656-80.269,83.656,80.269A11.306,11.306,0,0,0,204.227,93.6L186.741,76.825V31.594a14.841,14.841,0,1,0-29.681,0V48.4L112.731,5.881a11.3,11.3,0,0,0-15.647,0L5.62,93.634a11.295,11.295,0,0,0,15.647,16.292Z"
           transform="translate(-1.684 -2.735)"
           fill="#ee6910"
           style="fill:#aa0044" />
        <path
           id="Path_152"
           data-name="Path 152"
           d="M205.253,173.29h-18.2V91.957a18.155,18.155,0,0,1-2.613-2.1l-79.2-76.01-79.2,76.01a18.156,18.156,0,0,1-2.613,2.1V173.29H5.226A3.236,3.236,0,0,0,2,176.517c0,1.774,1.452,20.845,3.226,20.845H205.253c1.774,0,3.226-19.07,3.226-20.845A3.236,3.236,0,0,0,205.253,173.29ZM105.239,79.118a24.31,24.31,0,1,1-24.294,24.294A24.336,24.336,0,0,1,105.239,79.118ZM63.1,150.126A16.35,16.35,0,0,1,79.462,133.8h9.453a6.037,6.037,0,0,1,5.13,2.871l8.646,14.228a2.989,2.989,0,0,0,5.1,0l8.646-14.2a5.956,5.956,0,0,1,5.13-2.9h9.485a16.344,16.344,0,0,1,16.325,16.325v40.783H63.1Z"
           transform="translate(-2 22.01)"
           fill="#ee6910"
           style="fill:#aa0044" />
      </g>
    </g>
  </g>
</svg>
