<svg id="Capa_1" data-name="Capa 1" xmlns="http://www.w3.org/2000/svg" viewBox="0 0 500.03 650">
    <defs>
        <style>.cls-1 {
            fill: #fc29f7;
        }

        .cls-2 {
            fill: #fff;
        }</style>
    </defs>
    <title>marker-niña</title>
    <path class="cls-1"
          d="M253.44,588.18c-9.74-9.28-20-17.48-28.34-27.28-20.87-24.4-41.88-48.79-61.06-74.51-35.4-47.49-64.4-98.62-81.63-155.75-8.31-27.4-13.31-55.4-12.4-84.09,1.24-40.46,14-76.91,39.42-108.74q42.18-52.93,108.54-66c42.55-8.31,83.26-2.13,121.32,18.63C386,115.94,416,154.87,429.56,206.33c6.13,23.28,6.83,46.94,4.08,70.84-6.69,58.13-30,110-59.63,159.52a705.12,705.12,0,0,1-71.48,98.52c-15.08,17.51-31.23,34.08-46.92,51.06A24.5,24.5,0,0,1,253.44,588.18ZM391.21,253.86c.35-72.38-56.84-137.36-136.3-138.8-77.42-1.41-137.26,59.4-140.84,131.55-3.92,79,57.88,142,131.14,145.67C325.9,396.34,391.59,331.5,391.21,253.86Z"/>
    <ellipse class="cls-2" cx="254.1" cy="254" rx="140.5" ry="144"/>
    <path class="cls-1"
          d="M252.2,343.55c-3.36-.35-6.73-.6-10.07-1.06a78.62,78.62,0,0,1-27.7-9.43,77,77,0,0,1-26.91-24.9,71.81,71.81,0,0,1-10.12-23.28,3.3,3.3,0,0,0-2.81-2.94,15.09,15.09,0,0,1,0-29,3.39,3.39,0,0,0,2.77-3,73.33,73.33,0,0,1,20.07-35.35,75.75,75.75,0,0,1,18.26-13.45A2.11,2.11,0,0,0,217,199c0-11,0-22.11,0-33.17,0-2.38.7-4.18,3.15-4.93h1.78c.6.33,1.19.69,1.81,1,6.58,3.34,13.17,6.69,19.79,10a2.51,2.51,0,0,0,2.16,0c6-4.44,12.84-4.45,18.85,0a2,2,0,0,0,1.69.18c7.38-3.68,14.73-7.43,22.08-11.16h2.14c2.17,1,2.83,2.76,2.82,5-.05,11.05,0,22.1-.06,33.16a2.14,2.14,0,0,0,1.35,2.16c19.79,11,33,27.22,38.42,49.4.23.93.35,1.73,1.71,2.06a15.12,15.12,0,0,1-.11,29.51c-1.2.25-1.34,1.11-1.64,2-1.79,5.12-3.25,10.38-5.45,15.3A70.68,70.68,0,0,1,308.63,324a77.78,77.78,0,0,1-33.71,17.13c-4.7,1.09-9.58,1.46-14.37,2.15l-1.93.29ZM239.73,200c-5.79,2.11-11.6,3.78-17,6.29a68.06,68.06,0,0,0-32.82,31.58,71.21,71.21,0,0,0-6.13,18.43c-.57,2.76-1.88,3.62-4.62,3.57a7.22,7.22,0,0,0-6.57,3.53A7.61,7.61,0,0,0,178.72,275c3.41.16,4.64,1.22,5.31,4.52.32,1.57.6,3.15,1,4.68,5.22,18.87,16.6,33,33.6,42.41,14.83,8.22,30.82,10.77,47.6,8.39a72.46,72.46,0,0,0,32.18-12.77,67.78,67.78,0,0,0,20.59-23,65.68,65.68,0,0,0,7-19.61c.56-3,1.58-4.89,5.4-4.69s7.09-3.25,7.31-7.26a7.52,7.52,0,0,0-6.46-7.69c-5.43-.78-5.43-.78-6.58-6.18,0-.11,0-.23,0-.35a65.51,65.51,0,0,0-15.46-30.35,71,71,0,0,0-32.71-20.81A74.49,74.49,0,0,0,252.81,199a2.71,2.71,0,0,0-1.34.32c-4.75,3.21-9.07,10.25-7.47,16.51a12.13,12.13,0,0,0,9.12,9.24,10.29,10.29,0,0,0,10.57-3c4.64-4.74,3.48-11.17-2.45-12.89a3,3,0,0,1-.48-.22,3.7,3.7,0,0,1-1.94-4.46,3.91,3.91,0,0,1,4.51-2.59,14.27,14.27,0,0,1,10.72,15.54c-1.08,8.56-8.59,15.49-18.32,15.66-11.92.19-21.88-11.93-19.35-23.58C237.06,206.47,238.48,203.5,239.73,200Zm-15-29.05v25.53c5.14-2.6,10.11-5.09,15-7.65a1.56,1.56,0,0,0,.57-1.34,15.28,15.28,0,0,1,0-7.54,1.52,1.52,0,0,0-.55-1.34C234.88,176,229.91,173.53,224.76,170.92Zm60.6,0-15.22,7.66c-.17,3.34-.35,6.3-.46,9.26a1.17,1.17,0,0,0,.5.9c5,2.57,10,5.09,15.18,7.71Zm-37.83,12.72a7.52,7.52,0,1,0,7.56-7.48A7.36,7.36,0,0,0,247.53,183.64Z"/>
    <path class="cls-1"
          d="M255.22,313.15c-7.74-.19-15.05-.89-21.87-3.92a37.21,37.21,0,0,1-7.06-4.34,3.73,3.73,0,0,1-.71-5.63c1.53-1.76,3.55-1.84,5.63-.13,4.08,3.34,8.91,4.7,14,5.54a61.79,61.79,0,0,0,17.39.32c6-.71,11.86-2.09,16.72-6.14a3.67,3.67,0,0,1,5.24.43,3.61,3.61,0,0,1-.38,5.25,37.77,37.77,0,0,1-7.44,4.7C269.8,312.37,262.34,312.94,255.22,313.15Z"/>
    <path class="cls-1"
          d="M225,259.77c6.39.43,11.07,4,14.27,9.64a3.75,3.75,0,0,1-1.55,5.2c-1.69,1-3.76.29-5.09-1.54a21.12,21.12,0,0,0-3.08-3.64,7.42,7.42,0,0,0-10.41.34c-1.17,1.15-1.95,2.73-3.19,3.78a5.78,5.78,0,0,1-3.43,1.34,3.13,3.13,0,0,1-3-2.66,4.38,4.38,0,0,1,.26-2.73A17.48,17.48,0,0,1,225,259.77Z"/>
    <path class="cls-1"
          d="M270.38,270.66A8.05,8.05,0,0,1,271,269c3.36-5.75,9.57-10.32,17.11-8.9,5.68,1.06,9.65,4.6,12.24,9.64a3.67,3.67,0,0,1-1.69,4.87c-1.71.91-3.51.41-4.85-1.27a27.06,27.06,0,0,0-3.31-3.9c-3.31-2.81-7.28-2.63-10.4.39-1.18,1.14-2.08,2.57-3.17,3.81a3.34,3.34,0,0,1-4.14,1.08C271.24,274.05,270.33,272.93,270.38,270.66Z"/>
</svg>
