<svg id="Capa_1" data-name="Capa 1" xmlns="http://www.w3.org/2000/svg" viewBox="0 0 500 650">
    <defs>
        <style>.cls-1, .cls-3 {
            fill: #2753f4;
        }

        .cls-2 {
            fill: #fff;
        }

        .cls-3 {
            stroke: #2753f4;
            stroke-miterlimit: 10;
        }</style>
    </defs>
    <title>marker-niño</title>
    <path class="cls-1"
          d="M242.34,588.18c-9.74-9.28-20-17.48-28.34-27.28-20.87-24.4-41.88-48.79-61.06-74.51-35.4-47.49-64.4-98.62-81.63-155.75C63,303.24,58,275.24,58.91,246.55c1.24-40.46,14-76.91,39.42-108.74q42.19-52.93,108.54-66c42.55-8.31,83.26-2.13,121.32,18.63,46.71,25.5,76.73,64.43,90.27,115.89,6.13,23.28,6.83,46.94,4.08,70.84-6.69,58.13-30,110-59.63,159.52a704.31,704.31,0,0,1-71.48,98.52c-15.08,17.51-31.23,34.08-46.92,51.06A23.16,23.16,0,0,1,242.34,588.18ZM380.11,253.86c.35-72.38-56.84-137.36-136.3-138.8-77.42-1.41-137.26,59.4-140.84,131.55-3.92,79,57.88,142,131.14,145.67C314.8,396.34,380.49,331.5,380.11,253.86Z"/>
    <ellipse class="cls-2" cx="243" cy="254" rx="140.5" ry="144"/>
    <path class="cls-3"
          d="M238.68,188a76.78,76.78,0,0,1-5.46-7.12c-6-9.84-4.95-21.61,2.36-29.41,8.41-9,22.3-9.37,30.21-.88s5.92,21.56-4,26.5c-8.51,4.27-18.08-.35-19.68-9.5a7.18,7.18,0,0,1-.08-2.57,2.79,2.79,0,0,1,2.75-2.45,2.89,2.89,0,0,1,3.18,2.15,4.12,4.12,0,0,1,.12.59c1,5,3.53,7.44,7.46,7.14a9.39,9.39,0,0,0,8.79-8.77c.42-8.93-7.94-15-17-12.37-9.25,2.72-13.86,11.94-10.92,21.85a20.44,20.44,0,0,0,18,14.71c16.64,1.15,31.94,6.08,45.54,15.86a77.09,77.09,0,0,1,27.42,35,2.15,2.15,0,0,0,2.33,1.56c11,.41,19.35,6.93,21.87,17.06a22.12,22.12,0,0,1-18.35,27.13c-2.32.3-3.12,1.22-3.78,3.31-8,25.16-24.81,42.43-49.36,51.27-32.24,11.62-61.88,5.84-87.83-16.7A72.46,72.46,0,0,1,170.18,287a2.76,2.76,0,0,0-2.76-2.36,22.14,22.14,0,0,1-19.73-22.38c0-12,9.68-21.53,22.33-22,1.26,0,2-.25,2.51-1.58,8.94-21.94,24.77-36.88,46.77-45.22C225.65,191.08,232.41,189.74,238.68,188Zm7.17,6c-3.59.59-10.08,1.09-16.26,2.76-24,6.48-41.44,20.78-51.18,44-2.36,5.6-.89,5.88-8.71,5.91-6.34,0-11.08,3.12-14,8.69-5.61,10.66,2.16,23.11,14.43,23.3,3.92.06,4.34.39,5.3,4.18a66.2,66.2,0,0,0,15.52,29.33c21.28,22.86,47.52,30.9,77.79,24,22.73-5.15,39.9-18.42,50.58-39.37,2.39-4.69,3.73-9.92,5.43-14.95.8-2.39,1.58-3.17,4.09-3.22.6,0,1.2,0,1.8,0a15.89,15.89,0,0,0,15.29-14.16c.75-8.6-4.47-15.89-12.66-17.46a32,32,0,0,0-6.35-.36c-2.26,0-3.38-1-4.32-3-2.42-5.31-4.57-10.87-7.84-15.64C298.91,204.74,276.32,194.41,245.85,194Z"/>
    <path class="cls-3"
          d="M250,315.26a44.06,44.06,0,0,1-22.35-6.67c-2.18-1.36-2.86-3.06-1.86-4.74s2.86-1.94,5-.58a35.67,35.67,0,0,0,20.28,5.56,36.22,36.22,0,0,0,17.91-5.51,4.17,4.17,0,0,1,2.74-.82,4.46,4.46,0,0,1,2.54,2.07c.7,1.41,0,2.72-1.35,3.57a40,40,0,0,1-14.08,5.9C256,314.62,253,314.87,250,315.26Z"/>
    <path class="cls-3" d="M283.48,274.56A7.51,7.51,0,1,1,276,267,7.58,7.58,0,0,1,283.48,274.56Z"/>
    <path class="cls-3" d="M234.37,274.53a7.5,7.5,0,1,1-7.5-7.51A7.54,7.54,0,0,1,234.37,274.53Z"/>
</svg>
