<svg id="Capa_1" data-name="Capa 1" xmlns="http://www.w3.org/2000/svg" viewBox="0 0 31.5 27.48"><defs><style>.cls-1{fill:#fccdb5;}.cls-2{fill:#f5a4c7;}.cls-3{fill:#231f20;}</style></defs><title>1-5meses</title><path class="cls-1" d="M10,16.89s-2,.94-3.08,1.37S2.56,19.9,1.51,22.05c0,0-.07,2.71,0,3.2s.79,1.15,2.85,1.27A10.13,10.13,0,0,0,8,26.08a2.38,2.38,0,0,0,1.33.5,21.83,21.83,0,0,1,3.16-.37c1,.14,1.66,0,1.66-.14a.85.85,0,0,1,.1-.34s1.54-.08,1.87-.16a3.85,3.85,0,0,0,.53-.17,1.36,1.36,0,0,1,.52.38.74.74,0,0,0,.76.49,15.94,15.94,0,0,0,2.13.13c.13-.09.36-.17.21-.26l-.18-.1s1,0,1-.19-.77-.26-1.28-.32A5.44,5.44,0,0,1,18,24.84a1.9,1.9,0,0,1-.48-.58s.59.09.68,0,.68,0,.79-.12.38-.2.32-.35-.14-.35-.62-.43-1.94-.15-1.94-.15S15.13,22,15,21.3s-.13-1.72-.55-2.17a5.6,5.6,0,0,0-1.27-.86s.11-.56.31-.49a7.64,7.64,0,0,0,2.28.08c.61-.14.83-.14.78-.34s-.29-.24,0-.26.42-.15.34-.25-.37-.12-.37-.12.63-.15.57-.29-.2-.35-.2-.35.72-.32.62-.47-.58-.46-.53-.76.86-1.19.76-1.75a3.4,3.4,0,0,0-1.91-2,7.09,7.09,0,0,0-3.52-.17c-1.17.29-3.67,1.4-3.54,2.63S10.35,16,10.3,16.21a3.76,3.76,0,0,1-.34.68"/><path class="cls-2" d="M.83,22.89s-.44,1.6,0,2.18a1.58,1.58,0,0,0,.82.66A1.66,1.66,0,0,1,2.32,24a9.91,9.91,0,0,1,2.47-1,26.7,26.7,0,0,0-2.63-.79c-.65-.11-1-.29-1.33.73"/><path class="cls-3" d="M20.89,25.91h0a2.44,2.44,0,0,1-.55.12h0a1.16,1.16,0,0,0-.42-.16,2.41,2.41,0,0,0-.35-.07,6,6,0,0,0-.67-.08v0l.61.19a2.6,2.6,0,0,1,.59.24s0,0,0,0h0l0,0h0a3.26,3.26,0,0,1-.46,0,5.49,5.49,0,0,0-.6,0c-.22,0-.41,0-.6,0-.38,0-.81,0-1-.26a1.53,1.53,0,0,0-.16-.22.9.9,0,0,0-.27-.2c-.2-.1-.4-.18-.61-.27a6.27,6.27,0,0,1-.58-.28,3.53,3.53,0,0,1-.48-.36,5.36,5.36,0,0,1-.69-.85l-.07-.11,0-.07-.07-.07-.24-.19a3.34,3.34,0,0,1-.38-.37,7.62,7.62,0,0,1-.57-.77,5,5,0,0,0-.52-.75,5.58,5.58,0,0,0-1.06-1,3.89,3.89,0,0,0-.5-.32l0,0a3.57,3.57,0,0,1,.38.38,7.14,7.14,0,0,1,.82,1.05.25.25,0,0,1,0,.07l-.39.18-.26.14c-.08.05-.16.12-.25.19a1,1,0,0,1-.33.16,2.46,2.46,0,0,1-.41.1,1.21,1.21,0,0,0-.43.14,1,1,0,0,0-.33.25,1,1,0,0,0-.15.26,1.86,1.86,0,0,1-.1.2,2.48,2.48,0,0,1-.17.29A1.69,1.69,0,0,0,9,23.27c-.44-.11-.85-.17-1.28-.24a18.35,18.35,0,0,0-2.59-.2l-.53,0-1.2-.43-.7-.22a6.31,6.31,0,0,0-.83-.2L1.6,22a5.47,5.47,0,0,1,1-1.22,8.75,8.75,0,0,1,1.53-1.09A16.19,16.19,0,0,1,6,18.79c.63-.27,1.28-.52,1.94-.75l1-.35a5.32,5.32,0,0,0,.5-.21,2,2,0,0,0,.25-.14l.19-.14a4,4,0,0,0,.39-.29.94.94,0,0,0,.32-.41.48.48,0,0,0-.07-.42.88.88,0,0,1,.31.25l-.12-.61.61.7-.14-.52a1.56,1.56,0,0,0,.27.35,2.83,2.83,0,0,0,.28.2,1.6,1.6,0,0,0,.3.13,1.26,1.26,0,0,0,.52.05l.19,0,0,0h-.18a1.06,1.06,0,0,1-.42-.1,1.13,1.13,0,0,1-.63-.81.44.44,0,0,1,0-.23l0,0,0,0h0l0,0,0,0h0l0,0,0,0,.07,0a.4.4,0,0,1,.19,0,2.17,2.17,0,0,1,.39.14l.16.08,0,0a.55.55,0,0,0-.06-.14.5.5,0,0,0-.1-.13c.12.06.26.17.48.31L12.72,15l.43.3s-.47-.32-.43-.7a3.49,3.49,0,0,0,.33-.88l0,.47-.11.58.54-.61-.11.53.51-.53.77-.92,0,.75.59-1L15,14.11l.42-.61.83-1-.22.9.46-.7-.05,1.15.74-1.16a1.5,1.5,0,0,1,.22.39,1.13,1.13,0,0,1,.09.72,3,3,0,0,1-.36.71c-.07.12-.14.24-.2.36a.42.42,0,0,0-.05.42,2.11,2.11,0,0,0,.35.32c.11.09.22.2.14.28a1.36,1.36,0,0,1-.4.22l-.13.06a.11.11,0,0,0,0,.14.76.76,0,0,0,.12.19c.05.05.1.12.08.12a.5.5,0,0,1-.19.08l-.5.16a.07.07,0,0,0-.06.06.09.09,0,0,0,.1.06h0a1.85,1.85,0,0,1,.33,0c.13,0,.09,0,.1.1s-.08.07-.19.1l0,0-.05,0a.13.13,0,0,0-.09.09.31.31,0,0,0,0,.15c0,.08,0,.13,0,.17a.65.65,0,0,1-.25.1,1.8,1.8,0,0,1-.32.06l-.34,0a12.89,12.89,0,0,1-1.39,0l-.34,0c-.13,0-.2,0-.36,0a.43.43,0,0,0-.3.09A.35.35,0,0,0,13,18a.57.57,0,0,0,0,.29.13.13,0,0,0,.08.08h0a2.31,2.31,0,0,1,.65.41A2.49,2.49,0,0,1,14.51,20a6.19,6.19,0,0,1,.15.65,3.42,3.42,0,0,0,.18.68,2.37,2.37,0,0,0,.36.66,2.55,2.55,0,0,0,.6.58,4.65,4.65,0,0,1,.62.5,11.39,11.39,0,0,1,.89,1.18,5.17,5.17,0,0,0,.49.6,2.26,2.26,0,0,0,.78.47,4.85,4.85,0,0,0,.94.27,6.41,6.41,0,0,0,1,.13,2.66,2.66,0,0,1,.45.07c.06,0,.09.05.08.08a.28.28,0,0,1-.14.08m-8.18-3.65h0a4,4,0,0,0,.61.84l.29.25a1.81,1.81,0,0,1-1-.33,10,10,0,0,1-1-.78,1.5,1.5,0,0,0,.32-.08,2.32,2.32,0,0,0,.28-.16,1.13,1.13,0,0,0,.22-.22Zm3.81,3.16h0l-.14,0c-.25,0-.56.08-.88.1-.16,0-.31,0-.45,0l-.39.05-.24.05s0,0,0,0l-.05-.06-.07,0,.06,0a.46.46,0,0,0,.14-.09.23.23,0,0,0,.07-.09.17.17,0,0,0,0-.12l0-.05h0l0,0h0l-.06,0a.41.41,0,0,0-.16,0l0,0a.13.13,0,0,0,0-.16.22.22,0,0,0-.12-.09l-.12-.05H14l0,0a.19.19,0,0,0,.07-.22s0-.05,0-.07,0,0,0,0v0a.09.09,0,0,0,0-.07l-.06,0-.24,0a1,1,0,0,0-.25,0,1.24,1.24,0,0,0-.48.09c-.15,0-.27.15-.38.18l-.44.11-.59.13s0-.14-.06-.25a1.87,1.87,0,0,0-.07-.22,2,2,0,0,1-.14-.25,2.7,2.7,0,0,1,0-.28,1.9,1.9,0,0,1,0-.25,1.64,1.64,0,0,1,.07-.24l-.05,0a2.17,2.17,0,0,0-.19.23,1,1,0,0,0-.22.58c0,.05,0,.1,0,.15l-.18,0s-.08,0-.12-.05l-.12,0-.1,0a2.91,2.91,0,0,1-.33-.26,3.57,3.57,0,0,0-.35-.28,1.23,1.23,0,0,0,.41-.23,1.5,1.5,0,0,0,.2-.23,1.86,1.86,0,0,0,.13-.23,1.28,1.28,0,0,1,.41-.38,1.77,1.77,0,0,1,.31-.15,12.62,12.62,0,0,0,1.08.89,2.51,2.51,0,0,0,1.53.43h.33l0,0,.08.11a4.44,4.44,0,0,0,.89.83,5.57,5.57,0,0,0,1.19.61l.28.13ZM14,26h0a.17.17,0,0,1-.12.06,3.51,3.51,0,0,1-.82.06c-.3,0-.59,0-.9,0a6.69,6.69,0,0,0-.91.08l-.87.17c-.28.05-.57.11-.85.14a2.06,2.06,0,0,1-.83-.09,1.42,1.42,0,0,1-.62-.38A.14.14,0,0,0,8,26l-1.22.27a5.45,5.45,0,0,1-1.23.14,10.34,10.34,0,0,1-2.45-.25,2.41,2.41,0,0,1-1-.42.89.89,0,0,1-.33-.71c0-.52.54-1,1.17-1.32a3.85,3.85,0,0,1,.5-.24l.27-.1L4,23.32a5.54,5.54,0,0,1,1.18-.13,17.67,17.67,0,0,1,2.51.13c.41.05.84.11,1.21.18a2.37,2.37,0,0,1,.94.5,5.52,5.52,0,0,0,.47.32s0,0,0,0a.24.24,0,0,0,.15.08h0a2.64,2.64,0,0,1,.29.15c.31.18.57.43.55.72h0c.07-.31-.18-.61-.48-.82l-.16-.1.17,0h0a.61.61,0,0,0,.23.25.87.87,0,0,0,.29.13l-.18,0,0,0,.9-.16.46-.09a.83.83,0,0,0,.21-.09l.19-.08a1.4,1.4,0,0,1,.41-.06l.22,0,.15,0v0a.39.39,0,0,0,0,.09.1.1,0,0,1,0,.08,1.05,1.05,0,0,1-.34.14c-.06,0-.1.06-.08.11a.13.13,0,0,0,.16.06h0a1.15,1.15,0,0,1,.32,0l.07,0h0l-.08,0-.16.06-.35.09c-.09,0-.14.09-.11.15a.2.2,0,0,0,.22.08h0a2,2,0,0,1,.42-.05H14l-.1,0-.43.08h0c-.11,0-.19.09-.18.17a.23.23,0,0,0,.26.14h.29l.13,0H13.8a.19.19,0,0,0-.19.1c0,.07.06.13.15.14h.14L14,26v0ZM1.34,25.56h0a1.08,1.08,0,0,1-.24-.37A1.79,1.79,0,0,1,1,24.71a5.09,5.09,0,0,1,0-.56A5.38,5.38,0,0,1,1,22.9a2.91,2.91,0,0,1,.2-.61.31.31,0,0,1,.08-.11s0,0,.08,0a3.62,3.62,0,0,1,.4.05,6.15,6.15,0,0,1,.81.15l.72.19,1.13.32a5.65,5.65,0,0,0-.68.11l-.33.1-.29.11c-.2.08-.38.17-.56.26a3.26,3.26,0,0,0-.92.69,1.36,1.36,0,0,0-.41.93,1.3,1.3,0,0,0,.18.59Zm16.08-2.19h0l.47.07c.17,0,.36,0,.54,0a2.35,2.35,0,0,1,.5.09.82.82,0,0,1,.19.09.36.36,0,0,1,.11.1.08.08,0,0,1,0,.09l-.07,0A1.26,1.26,0,0,0,19,23.7l-.32-.07a8.72,8.72,0,0,0-1.13-.11h-.3c-.06-.07-.11-.15-.17-.23Zm1.47.63Zm0,.07Zm-.39.06h0a.13.13,0,0,0,0-.08.34.34,0,0,0-.06-.06h-.06l-.19-.06a3.2,3.2,0,0,0-.61-.1h-.09a2.14,2.14,0,0,0-.13-.19l.22,0c.29.07.68.14,1,.25a1.12,1.12,0,0,1,.22.1l.06,0h0ZM18,24h0C18.07,24,18,24,18,24Zm0,.17h0l0,0,0,0h0Zm-.37-.11h0l-.1-.15c.1.05.22.1.32.16l-.16.09ZM21,25.65a2.4,2.4,0,0,0-.5-.09,6.69,6.69,0,0,1-1.8-.44,2,2,0,0,1-.67-.43c-.1-.12-.2-.25-.29-.38a.74.74,0,0,0,.19.05l.16,0a.54.54,0,0,0,.27-.08l.05,0h0a1.24,1.24,0,0,0,.4.06.84.84,0,0,0,.33,0,.34.34,0,0,0,.21-.17.28.28,0,0,0,0-.13l-.05-.08,0,0a.18.18,0,0,0,.05-.16.41.41,0,0,0-.12-.18.65.65,0,0,0-.2-.15,2.46,2.46,0,0,0-.56-.19,4,4,0,0,0-.58-.11,2.14,2.14,0,0,0-.51,0,1.59,1.59,0,0,0-.43.09l-.26-.3a4.16,4.16,0,0,0-.64-.54,2.33,2.33,0,0,1-.52-.52,2.14,2.14,0,0,1-.31-.6,5.19,5.19,0,0,1-.17-.65,4.51,4.51,0,0,0-.17-.68,2.73,2.73,0,0,0-.32-.67,2.51,2.51,0,0,0-.54-.6,2.8,2.8,0,0,0-.72-.43.34.34,0,0,1,0-.14c0-.07,0-.06,0-.06l.36,0h.36A13.67,13.67,0,0,0,15.53,18l.36,0,.36-.07a.87.87,0,0,0,.33-.17.23.23,0,0,0,0-.29s0-.08,0-.09h0l0,0a.64.64,0,0,0,.18-.06.22.22,0,0,0,.12-.15V17a.07.07,0,0,0,0-.06.34.34,0,0,0-.18-.07l.14,0c.08,0,.17,0,.26-.14a.11.11,0,0,0,0-.14L17,16.43a1.63,1.63,0,0,1-.11-.17s0,0,0,0l.1-.05a1.4,1.4,0,0,0,.46-.26.17.17,0,0,0,0-.23.65.65,0,0,0-.16-.17c-.11-.11-.26-.2-.31-.3s0-.21.05-.33.14-.23.21-.35a4,4,0,0,0,.41-.73s0-.08,0-.12l0,.09a2.25,2.25,0,0,0-1.46-2.43,7.52,7.52,0,0,0-4.49-.7c-1.2.14-3.65,1.3-3.54,3.27a1.82,1.82,0,0,0,1.17,1.72l.29.24c.2.18.4.42.35.55s-.34.36-.57.53l-.19.14-.18.11-.44.2-1,.36c-.66.25-1.31.51-1.94.79A17,17,0,0,0,4,19.48a7.38,7.38,0,0,0-1.49,1.18A5,5,0,0,0,1.53,22l-.15,0a.52.52,0,0,0-.33.1.73.73,0,0,0-.15.17,3.58,3.58,0,0,0-.27.65,4.26,4.26,0,0,0-.24,1.3,2.43,2.43,0,0,0,.08.61,1.62,1.62,0,0,0,.25.53,1.27,1.27,0,0,0,.4.4l.22.14.22.07.11,0,.05.05a3.17,3.17,0,0,0,1.2.49,10.4,10.4,0,0,0,2.61.17,6.18,6.18,0,0,0,1.29-.19L8,26.16a2.11,2.11,0,0,0,1.58.47c.31,0,.59-.09.88-.14l.86-.15a5.1,5.1,0,0,1,.87-.07c.28,0,.58.05.88.06a3.43,3.43,0,0,0,1,0,.57.57,0,0,0,.25-.11l0,0,0,0h0l0,0a.23.23,0,0,0,0-.14.08.08,0,0,1,0,0h0a.2.2,0,0,0,.09-.09l.23.07a2.89,2.89,0,0,0,.45,0,4.42,4.42,0,0,0,.5-.1,6.4,6.4,0,0,0,.85-.25.71.71,0,0,0,.16-.07l0,0,.2.11a.57.57,0,0,1,.29.39.9.9,0,0,0,.54.39,2.43,2.43,0,0,0,.7.11c.23,0,.44,0,.61,0l.54,0a3.61,3.61,0,0,0,.59,0,.43.43,0,0,0,.2-.07l.05,0,0,0s0,0,0-.06a.17.17,0,0,0,0-.22A3.45,3.45,0,0,0,21,26a.35.35,0,0,0,.22-.14C21.2,25.76,21.11,25.69,21,25.65Z"/><path class="cls-3" d="M16.18,15a1.1,1.1,0,0,0-.77.5l.37-.17s-.06.21.2.11a.67.67,0,0,0,.36-.34s.18-.05.16.08.27-.32-.32-.18"/><path class="cls-3" d="M17.05,14.27s-.3-.83-2.06.65c0,0,1.18-.95,2.06-.65"/><polygon class="cls-3" points="17.78 13.86 17.76 13.78 17.75 13.79 17.78 13.86"/><path class="cls-3" d="M3,3.15h.14c.44,0,.86-.22.86-1,0-.6-.27-.93-.82-.93L3,1.23ZM2.57,1A2.81,2.81,0,0,1,3.1,1a1.57,1.57,0,0,1,.81.18,1,1,0,0,1,.47,1,1.15,1.15,0,0,1-.42,1,1.56,1.56,0,0,1-1,.25,3,3,0,0,1-.44,0Z"/><path class="cls-3" d="M5.15,2.52h0c0,.28.07.66.43.66s.4-.4.4-.66-.07-.66-.41-.66-.42.4-.42.66m1.23,0a.8.8,0,0,1-.82.88.78.78,0,0,1-.81-.88.8.8,0,0,1,.83-.88A.78.78,0,0,1,6.38,2.52Z"/><path class="cls-3" d="M6.81,2.11c0-.14,0-.31,0-.44h.36l0,.27h0a.6.6,0,0,1,.52-.3h.08v.27H7.7a.47.47,0,0,0-.48.35.81.81,0,0,0,0,.16v.94h-.4Z"/><path class="cls-3" d="M8,3.09a1,1,0,0,0,.4.09c.23,0,.36-.1.36-.25s-.06-.22-.31-.33S8,2.31,8,2.11s.3-.47.68-.47a1.22,1.22,0,0,1,.45.09L9,1.93a.81.81,0,0,0-.33-.07c-.21,0-.32.11-.32.21s.06.18.31.3.51.28.51.52-.34.5-.74.5a1.17,1.17,0,0,1-.5-.1Z"/><path class="cls-3" d="M9.85,2.52h0c0,.28.07.66.43.66s.41-.4.41-.66-.07-.66-.42-.66-.42.4-.42.66m1.24,0a.8.8,0,0,1-.83.88.78.78,0,0,1-.8-.88.8.8,0,0,1,.83-.88A.78.78,0,0,1,11.09,2.52Z"/><path class="cls-3" d="M12.32,2.11c0-.14,0-.31,0-.44h.36l0,.27h0a.6.6,0,0,1,.52-.3h.08v.27h-.08a.47.47,0,0,0-.48.35.81.81,0,0,0,0,.16v.94h-.4Z"/><path class="cls-3" d="M14.58,2.34h0c0-.34-.18-.49-.37-.49s-.39.26-.4.49Zm-.78.2c0,.52.31.64.59.64a1.12,1.12,0,0,0,.41-.07l.06.2a1.75,1.75,0,0,1-.54.08.8.8,0,0,1-.9-.85.82.82,0,0,1,.83-.9.68.68,0,0,1,.71.75.62.62,0,0,1,0,.15Z"/><path class="cls-3" d="M16.59,3.33a1.32,1.32,0,0,1-.41.06.81.81,0,0,1-.9-.86.88.88,0,0,1,1-.88,1,1,0,0,1,.35.05l-.08.22a.77.77,0,0,0-.28,0,.59.59,0,0,0-.57.66.56.56,0,0,0,.58.64.88.88,0,0,0,.29,0Z"/><path class="cls-3" d="M17.49,1.22v.45H18v.21h-.47v1c0,.22.12.28.26.28h.16v.2a1.07,1.07,0,0,1-.29,0,.69.69,0,0,1-.39-.1c-.1-.08-.15-.19-.15-.43v-1h-.3V1.67h.3V1.3Z"/><path class="cls-3" d="M18.56,2.52h0c0,.28.07.66.43.66s.4-.4.4-.66-.06-.66-.41-.66-.42.4-.42.66m1.23,0A.79.79,0,0,1,19,3.4a.78.78,0,0,1-.81-.88A.8.8,0,0,1,19,1.64.78.78,0,0,1,19.79,2.52Z"/><path class="cls-3" d="M19.87,3.81A4,4,0,0,0,20.16,3l.45,0a3.56,3.56,0,0,1-.47.83Z"/><path class="cls-3" d="M22.77,2.49h0c-.2,0-.68,0-.68.4a.29.29,0,0,0,.3.3.35.35,0,0,0,.37-.26.31.31,0,0,0,0-.09Zm.06.88,0-.18h0a.62.62,0,0,1-.49.21.53.53,0,0,1-.59-.49c0-.42.5-.61,1.05-.61V2.24c0-.23-.08-.38-.39-.38a1,1,0,0,0-.41.08l-.09-.18a1.33,1.33,0,0,1,.58-.12c.5,0,.71.23.71.61V3a1.63,1.63,0,0,0,0,.39Z"/><path class="cls-3" d="M24.1,2.74h0a.34.34,0,0,0,0,.15.36.36,0,0,0,.36.28c.33,0,.43-.31.43-.65s-.12-.65-.43-.65a.41.41,0,0,0-.37.31.57.57,0,0,0,0,.13Zm-.39-.54c0-.26,0-.41,0-.53H24l0,.22h0a.64.64,0,0,1,.52-.25c.44,0,.72.32.72.88a.77.77,0,0,1-.77.88.49.49,0,0,1-.43-.2h0V4h-.39Z"/><path class="cls-3" d="M26,2.52h0c0,.28.07.66.43.66s.41-.4.41-.66-.07-.66-.42-.66-.42.4-.42.66m1.24,0a.8.8,0,0,1-.83.88.78.78,0,0,1-.8-.88.8.8,0,0,1,.83-.88A.78.78,0,0,1,27.28,2.52Z"/><path class="cls-3" d="M27.88,1.67l.33,1a3.21,3.21,0,0,1,.1.35h0l.11-.35.29-1h.39l-.4,1.09a2.62,2.62,0,0,1-.62,1.1,1.35,1.35,0,0,1-.44.26l-.14-.23a1.31,1.31,0,0,0,.34-.22.92.92,0,0,0,.23-.28.18.18,0,0,0,0-.09.13.13,0,0,0,0-.06l-.62-1.57Z"/><path class="cls-3" d="M29.67,2.52h0c0,.28.07.66.43.66s.4-.4.4-.66-.06-.66-.41-.66-.42.4-.42.66m1.23,0a.79.79,0,0,1-.82.88.77.77,0,0,1-.8-.88.8.8,0,0,1,.83-.88A.78.78,0,0,1,30.9,2.52Z"/><path class="cls-3" d="M8.49,4.1h.4V5h0a.62.62,0,0,1,.2-.15.78.78,0,0,1,.33-.06.54.54,0,0,1,.58.6V6.53H9.62V5.43c0-.21-.07-.4-.33-.4a.38.38,0,0,0-.39.27.57.57,0,0,0,0,.13v1.1h-.4Z"/><path class="cls-3" d="M11.49,5.65h0c-.21,0-.69,0-.69.39a.29.29,0,0,0,.31.3.36.36,0,0,0,.37-.25.34.34,0,0,0,0-.1Zm0,.88,0-.18h0a.62.62,0,0,1-.49.2c-.33,0-.59-.19-.59-.48s.5-.61,1.06-.62v0c0-.23-.09-.39-.4-.39a1.07,1.07,0,0,0-.41.09l-.09-.19a1.56,1.56,0,0,1,.58-.11c.5,0,.72.22.72.61v.73a2.42,2.42,0,0,0,0,.39Z"/><path class="cls-3" d="M13.64,6.48a1.08,1.08,0,0,1-.41.07.81.81,0,0,1-.91-.86.89.89,0,0,1,1-.89,1.1,1.1,0,0,1,.35.06l-.08.22a.82.82,0,0,0-.28,0,.59.59,0,0,0-.58.66.56.56,0,0,0,.59.63.86.86,0,0,0,.28,0Z"/><path class="cls-3" d="M14,6.53h0V4.83h.4v1.7Zm.43-2.14c0,.1-.1.17-.24.17s-.23-.07-.23-.17.1-.18.23-.18S14.4,4.28,14.4,4.39Z"/><path class="cls-3" d="M15.83,5.65h0c-.2,0-.68,0-.68.39a.29.29,0,0,0,.31.3A.33.33,0,0,0,15.83,6Zm.06.88,0-.18h0a.62.62,0,0,1-.49.2c-.33,0-.59-.19-.59-.48s.5-.61,1.05-.62v0c0-.23-.08-.39-.39-.39A1.07,1.07,0,0,0,15,5.1l-.09-.19a1.56,1.56,0,0,1,.58-.11c.5,0,.71.22.71.61v.73a1.63,1.63,0,0,0,0,.39Z"/><path class="cls-3" d="M18.5,5.65h0c-.2,0-.68,0-.68.39a.28.28,0,0,0,.3.3.35.35,0,0,0,.37-.25.34.34,0,0,0,0-.1Zm.06.88,0-.18h0a.64.64,0,0,1-.5.2.52.52,0,0,1-.58-.48c0-.42.49-.61,1-.62v0c0-.23-.08-.39-.39-.39a1,1,0,0,0-.41.09l-.09-.19a1.48,1.48,0,0,1,.58-.11c.49,0,.71.22.71.61v.73a2.42,2.42,0,0,0,0,.39Z"/><path class="cls-3" d="M20.54,5.47h0V5.36A.39.39,0,0,0,20.17,5c-.33,0-.44.31-.44.65s.13.65.42.65A.39.39,0,0,0,20.53,6a.37.37,0,0,0,0-.11Zm.39-1.37v2c0,.12,0,.31,0,.41h-.34l0-.22h0a.58.58,0,0,1-.52.24c-.41,0-.72-.31-.72-.87a.78.78,0,0,1,.75-.88.53.53,0,0,1,.45.2h0V4.1Z"/><path class="cls-3" d="M22.54,5.5h0c0-.34-.18-.49-.37-.49s-.39.26-.41.49Zm-.78.2c0,.52.3.63.59.63a1.15,1.15,0,0,0,.41-.06l.06.2a1.75,1.75,0,0,1-.54.08.81.81,0,0,1-.91-.86.81.81,0,0,1,.84-.89.68.68,0,0,1,.71.75.66.66,0,0,1,0,.15Z"/><rect class="cls-3" x="23.34" y="4.1" width="0.39" height="2.43"/><path class="cls-3" d="M25.24,5.65h0c-.21,0-.68,0-.68.39a.28.28,0,0,0,.3.3.36.36,0,0,0,.37-.25.34.34,0,0,0,0-.1Zm.05.88,0-.18h0a.6.6,0,0,1-.49.2c-.33,0-.59-.19-.59-.48s.5-.61,1.06-.62v0c0-.23-.08-.39-.4-.39a1.07,1.07,0,0,0-.41.09l-.08-.19a1.48,1.48,0,0,1,.58-.11c.49,0,.71.22.71.61v.73a2.42,2.42,0,0,0,0,.39Z"/><path class="cls-3" d="M26.18,5.27c0-.2,0-.31,0-.44h.34l0,.2h0a.71.71,0,0,1,.57-.23.54.54,0,0,1,.6.59V6.53h-.39V5.43c0-.2-.06-.4-.35-.4a.37.37,0,0,0-.37.27.78.78,0,0,0,0,.16V6.53h-.39Z"/><path class="cls-3" d="M28.7,4.38v.45h.48V5H28.7V6c0,.22.12.28.26.28h.16l0,.21a1.12,1.12,0,0,1-.29,0,.64.64,0,0,1-.39-.1A.49.49,0,0,1,28.31,6V5H28v-.2h.3V4.46Z"/><path class="cls-3" d="M30.54,5.5h0c0-.34-.18-.49-.37-.49s-.39.26-.4.49Zm-.78.2c0,.52.3.63.59.63a1.15,1.15,0,0,0,.41-.06l.06.2a1.75,1.75,0,0,1-.54.08.81.81,0,0,1-.9-.86.81.81,0,0,1,.83-.89.68.68,0,0,1,.71.75.66.66,0,0,1,0,.15Z"/><path class="cls-3" d="M12.3,9.64a1.08,1.08,0,0,1-.41.07A.82.82,0,0,1,11,8.84.89.89,0,0,1,12,8a1.08,1.08,0,0,1,.35,0l-.08.22a1.21,1.21,0,0,0-.28,0,.58.58,0,0,0-.57.65.56.56,0,0,0,.58.64.88.88,0,0,0,.29-.05Z"/><path class="cls-3" d="M12.89,8.83h0c0,.29.07.67.43.67s.41-.4.41-.67-.07-.66-.42-.66-.42.4-.42.66m1.24,0a.8.8,0,0,1-.83.88.78.78,0,0,1-.8-.87A.8.8,0,0,1,13.33,8,.78.78,0,0,1,14.13,8.83Z"/><path class="cls-3" d="M14.57,8.42c0-.2,0-.3,0-.44h.35l0,.21h0A.71.71,0,0,1,15.49,8a.54.54,0,0,1,.6.58V9.68h-.4V8.59c0-.2-.06-.41-.34-.41a.39.39,0,0,0-.38.28.71.71,0,0,0,0,.15V9.68h-.39Z"/><path class="cls-3" d="M18.54,8.63h0V8.52a.39.39,0,0,0-.37-.33c-.33,0-.44.31-.44.65s.13.65.42.65a.39.39,0,0,0,.38-.29.45.45,0,0,0,0-.12Zm.39-1.38v2c0,.11,0,.31,0,.4h-.34l0-.21h0a.6.6,0,0,1-.52.24c-.41,0-.72-.31-.72-.87A.78.78,0,0,1,18.08,8a.53.53,0,0,1,.45.2h0V7.25Z"/><path class="cls-3" d="M20.54,8.66h0c0-.34-.18-.49-.37-.49s-.39.26-.41.49Zm-.78.2c0,.52.3.63.59.63a1.12,1.12,0,0,0,.41-.07l.06.2a1.49,1.49,0,0,1-.54.09.81.81,0,0,1-.91-.86A.81.81,0,0,1,20.21,8a.68.68,0,0,1,.71.75.66.66,0,0,1,0,.15Z"/><path class="cls-3" d="M21.27,9.4a1,1,0,0,0,.4.09c.23,0,.37-.09.37-.25S22,9,21.72,8.91s-.5-.29-.5-.48.3-.47.68-.47a1.21,1.21,0,0,1,.45.08l-.11.21a.8.8,0,0,0-.33-.08c-.21,0-.32.11-.32.22s.06.18.31.29.51.28.51.52-.34.51-.74.51a1.09,1.09,0,0,1-.49-.1Z"/><path class="cls-3" d="M24,9.64a1.08,1.08,0,0,1-.41.07.82.82,0,0,1-.91-.87.89.89,0,0,1,1-.88A1.13,1.13,0,0,1,24,8L24,8.23a1.21,1.21,0,0,0-.28,0,.59.59,0,0,0-.58.65.57.57,0,0,0,.59.64A.82.82,0,0,0,24,9.43Z"/><path class="cls-3" d="M25.3,8.81h0c-.21,0-.68,0-.68.39a.28.28,0,0,0,.3.3.37.37,0,0,0,.37-.26.28.28,0,0,0,0-.09Zm.06.87,0-.18h0a.61.61,0,0,1-.49.21c-.33,0-.59-.19-.59-.48s.5-.62,1.06-.62v0c0-.23-.08-.39-.4-.39a1,1,0,0,0-.4.09l-.09-.19A1.48,1.48,0,0,1,25,8c.49,0,.71.22.71.6V9.3a2.3,2.3,0,0,0,0,.38Z"/><path class="cls-3" d="M26.24,8.42c0-.14,0-.31,0-.44h.36l0,.27h0A.59.59,0,0,1,27.12,8h.08v.28h-.08a.48.48,0,0,0-.48.36.71.71,0,0,0,0,.15v.94h-.39Z"/><path class="cls-3" d="M28.54,8.57h0a.23.23,0,0,0,0-.12.35.35,0,0,0-.36-.26c-.28,0-.44.26-.44.64s.2.63.44.63a.36.36,0,0,0,.36-.24.47.47,0,0,0,0-.16ZM29,8c0,.12,0,.27,0,.53v1c0,.44-.08.61-.24.73a1.08,1.08,0,0,1-.66.19,1.66,1.66,0,0,1-.55-.09l.1-.21a1.26,1.26,0,0,0,.46.07c.31,0,.5-.13.5-.51V9.47h0a.52.52,0,0,1-.47.21.75.75,0,0,1-.73-.84A.79.79,0,0,1,28.11,8a.52.52,0,0,1,.46.22h0l0-.2Z"/><path class="cls-3" d="M30.4,8.81h0c-.2,0-.68,0-.68.39a.28.28,0,0,0,.3.3.36.36,0,0,0,.37-.26.28.28,0,0,0,0-.09Zm.06.87,0-.18h0a.65.65,0,0,1-.5.21.52.52,0,0,1-.58-.48c0-.43.49-.62,1.05-.62v0c0-.23-.08-.39-.39-.39a1,1,0,0,0-.41.09l-.09-.19A1.48,1.48,0,0,1,30.08,8c.49,0,.71.22.71.6V9.3a1.54,1.54,0,0,0,0,.38Z"/><path class="cls-3" d="M20.4,11.79h0v-.11a.39.39,0,0,0-.37-.33c-.33,0-.44.31-.44.65s.13.64.42.64a.38.38,0,0,0,.38-.29.37.37,0,0,0,0-.11Zm.39-1.38v2c0,.12,0,.31,0,.41h-.33l0-.21h0a.63.63,0,0,1-.52.24c-.42,0-.72-.31-.72-.87s.36-.89.74-.89a.5.5,0,0,1,.45.21h0v-.91Z"/><path class="cls-3" d="M22.4,11.82h0c0-.34-.18-.5-.37-.5s-.39.26-.4.5Zm-.78.2c0,.52.3.63.59.63a1.12,1.12,0,0,0,.41-.07l.06.2a1.75,1.75,0,0,1-.54.08.8.8,0,0,1-.9-.85.82.82,0,0,1,.83-.9.68.68,0,0,1,.71.76.71.71,0,0,1,0,.15Z"/><path class="cls-3" d="M24.39,12.22h0a.32.32,0,0,0,0,.14.37.37,0,0,0,.36.28c.33,0,.43-.3.43-.65s-.12-.64-.43-.64a.38.38,0,0,0-.36.3.32.32,0,0,0,0,.13ZM24,11.67c0-.26,0-.41,0-.53h.35l0,.22h0a.64.64,0,0,1,.53-.25c.43,0,.71.32.71.88a.77.77,0,0,1-.77.88.46.46,0,0,1-.42-.2h0v.84H24Z"/><path class="cls-3" d="M27.1,11.82h0c0-.34-.18-.5-.37-.5s-.39.26-.4.5Zm-.78.2c0,.52.31.63.59.63a1.12,1.12,0,0,0,.41-.07l.06.2a1.75,1.75,0,0,1-.54.08.8.8,0,0,1-.9-.85.82.82,0,0,1,.83-.9.68.68,0,0,1,.71.76.71.71,0,0,1,0,.15Z"/><path class="cls-3" d="M27.84,12.56a1,1,0,0,0,.4.09c.22,0,.36-.1.36-.25s-.07-.22-.32-.33-.49-.29-.49-.49.29-.47.68-.47a1.16,1.16,0,0,1,.44.09l-.11.21a.63.63,0,0,0-.32-.08c-.22,0-.33.11-.33.22s.07.17.31.29.51.28.51.52-.33.5-.74.5a1.15,1.15,0,0,1-.49-.1Z"/><path class="cls-3" d="M29.67,12h0c0,.28.07.66.43.66s.4-.4.4-.66-.06-.66-.41-.66-.42.4-.42.66m1.23,0a.79.79,0,0,1-.82.88.78.78,0,0,1-.81-.88.8.8,0,0,1,.83-.88A.78.78,0,0,1,30.9,12Z"/><path class="cls-3" d="M8.38,14.55s.55.89.33,1.32a2.28,2.28,0,0,1-.6.71L9,15.92v.52l.46-.56.22.78.32-.53.36.31s.18-1.38-.36-1.58a4.1,4.1,0,0,0-1.58-.31"/></svg>