<svg id="Capa_1" data-name="Capa 1" xmlns="http://www.w3.org/2000/svg" viewBox="0 0 29.08 25.47"><defs><style>.cls-1{fill:#f5a4c7;}.cls-2{fill:#fbc9b5;}.cls-3{fill:#231f20;}</style></defs><title>2-5meses</title><path class="cls-1" d="M15.84,16c-1.67-.06-3,1.46-2.9,2.19s.25,1.73.66,1.82,3.2.14,3.26.14,1.71-.85,1.79-1.27-.89-2.81-2.81-2.88"/><path class="cls-2" d="M13.52,10c.33,1.33,1.53,1.54,1.82,1.79s.76.55.74.84.63.67-.43,1.49a6.64,6.64,0,0,0-1.92,2.31,10.34,10.34,0,0,1-.4,1l3.21.26,2.18.32a27,27,0,0,0,4-.71c1-.39,1.84-.61,1.84-.61a23.29,23.29,0,0,1,3.19-.31,11.35,11.35,0,0,0,1.3.08V11l-1.95.91a13.34,13.34,0,0,1-3.62,1.6,14.36,14.36,0,0,1-2.84.23,2.6,2.6,0,0,0-.75.08c-.32.1-.61.17-.61.17s-.37.06-.47-.17-.68-.69.69-.6c0,0,1.26-.12,1.25-.32s-.11-.22,0-.27.26,0,.26-.15-.26-.19-.26-.19.43-.14.42-.22-.1-.17-.12-.27a.12.12,0,0,1,.06-.13s.6-.16.39-.41-.5-.27-.42-.52a6.87,6.87,0,0,0,.65-1.33,1.08,1.08,0,0,0-.42-1.06A3.59,3.59,0,0,0,19.7,8c-.79,0-6.42,1-6.18,2"/><path class="cls-2" d="M14.09,19.35c-.17.51.27.87,1,1.29s.89.74.79.9A2.32,2.32,0,0,0,15.52,23a1.5,1.5,0,0,1-.3,1.15c-.1.25.36.65,1.17.59a5.42,5.42,0,0,1,1.58,0,3.18,3.18,0,0,0,1.16,0c.33-.07.73-.14.78-.25a.77.77,0,0,0,0-.35s1,.05.84-.19,0-.33-.91-.32-1.17-.1-1.14-.39A3.84,3.84,0,0,1,19.22,22a2.72,2.72,0,0,0,0-2.08,6,6,0,0,0-.75-1l-.53.44s-.36-.68-.42-.74a1.36,1.36,0,0,0-1.25-.49c-.91.05-2,.46-2.22,1.17"/><path class="cls-3" d="M21.92,22.84h0c0-.07.06-.12.14-.15a1,1,0,0,0,.42-.21.31.31,0,0,1,.32,0c.11,0,.13.15.06.22a1.52,1.52,0,0,1-.61.32.28.28,0,0,1-.31-.08.14.14,0,0,1,0-.06m-.35-.49h0c0-.08.08-.15.21-.15l.25,0a2,2,0,0,1,.4,0c.13,0,.24.07.24.16s-.1.16-.23.16l-.3,0a1.87,1.87,0,0,1-.32,0c-.13,0-.24-.05-.25-.14Zm-.21-2.64h0c0-.06.06-.12.16-.15a.31.31,0,0,1,.3.1.87.87,0,0,1,.06.51.23.23,0,0,1-.26.14c-.13,0-.22-.09-.2-.17a.64.64,0,0,0,0-.37A.14.14,0,0,1,21.36,19.71ZM21,21h0a.13.13,0,0,1,0-.08,2.84,2.84,0,0,0,.25-.39.28.28,0,0,1,.3-.09c.12,0,.18.12.14.2a4.46,4.46,0,0,1-.28.43.29.29,0,0,1-.31.07A.18.18,0,0,1,21,21Zm-.35,2h0c0-.08.08-.14.2-.16l.66-.05,0,.32h0c-.19,0-.39,0-.59.05s-.25-.05-.27-.13S20.64,23,20.64,23Zm-.2-3.86h0a.11.11,0,0,1,0-.08.28.28,0,0,1,.31-.06,6.29,6.29,0,0,1,.58.26c.1.06.11.16,0,.22a.32.32,0,0,1-.33,0,4.67,4.67,0,0,0-.5-.23A.16.16,0,0,1,20.44,19.12Zm-.08,3h0a.14.14,0,0,1,.06-.11.32.32,0,0,1,.33,0,1.28,1.28,0,0,0,.47.18c.12,0,.2.12.16.2a.25.25,0,0,1-.29.11,2.2,2.2,0,0,1-.65-.25A.15.15,0,0,1,20.36,22.1Zm-.06-.35h0a.14.14,0,0,1,.05-.09l.35-.36a.28.28,0,0,1,.32-.05c.11.05.14.14.08.22s-.28.28-.38.38a.3.3,0,0,1-.32,0A.14.14,0,0,1,20.3,21.75Zm-.91,1.47h0c0-.06.06-.12.15-.14s.39-.1.64-.15a.25.25,0,0,1,.29.11c0,.08,0,.17-.16.19l-.6.14a.28.28,0,0,1-.3-.09A.14.14,0,0,1,19.39,23.22Zm-.16-4.43h0a.09.09,0,0,1,0-.05.27.27,0,0,1,.29-.11l.64.15c.12,0,.17.12.13.21a.29.29,0,0,1-.3.09c-.21-.06-.41-.1-.6-.14S19.23,18.86,19.23,18.79ZM18,18.62h0c0-.09.12-.15.25-.15l.67.07c.13,0,.21.1.19.18a.24.24,0,0,1-.27.13c-.37-.05-.62-.06-.62-.06S18,18.71,18,18.62Z"/><path class="cls-3" d="M23.54,21.84h0a.14.14,0,0,1,.1-.13c.15-.08.21-.15.21-.17s0-.16.08-.21a.35.35,0,0,1,.33.06.27.27,0,0,1,.06.16c0,.13-.15.29-.41.42a.3.3,0,0,1-.32,0,.16.16,0,0,1-.05-.1m-1-.37h0c0-.09.12-.15.25-.14h.12a2.06,2.06,0,0,0,.42,0,.29.29,0,0,1,.3.11c0,.09,0,.17-.15.19a3.16,3.16,0,0,1-.57.06h-.16C22.66,21.63,22.57,21.56,22.57,21.47Zm0-2.84h0a.14.14,0,0,1,.09-.12.3.3,0,0,1,.33,0,.79.79,0,0,1,.26.5c0,.1-.09.17-.22.17s-.23-.06-.24-.14a.53.53,0,0,0-.17-.33A.14.14,0,0,1,22.54,18.63Zm-.07,1.28h0a.08.08,0,0,1,0-.07,1.81,1.81,0,0,0,.2-.39.26.26,0,0,1,.29-.12c.12,0,.19.11.16.2a2.69,2.69,0,0,1-.23.44.27.27,0,0,1-.3.08A.16.16,0,0,1,22.47,19.91Zm-.17,2.15h0c0-.08.1-.15.22-.16h.31a1.39,1.39,0,0,0,.3,0,.26.26,0,0,1,.28.12c0,.1-.05.18-.18.2s-.24,0-.38,0h-.3a.22.22,0,0,1-.25-.15Zm-.48-1.38h0a.18.18,0,0,1,0-.09,4,4,0,0,0,.34-.36.28.28,0,0,1,.32-.06c.11,0,.15.14.08.21a4.74,4.74,0,0,1-.35.39.31.31,0,0,1-.32.05C21.86,20.78,21.82,20.73,21.82,20.68Zm-.34.36h0a.14.14,0,0,1,.1-.13.28.28,0,0,1,.32.05,1.43,1.43,0,0,0,.4.25c.11,0,.15.14.09.21a.29.29,0,0,1-.32.06,1.51,1.51,0,0,1-.56-.35A.12.12,0,0,1,21.48,21Zm-.07-2.82h0a0,0,0,0,1,0,0,.24.24,0,0,1,.27-.12,3.15,3.15,0,0,1,.67.15c.12,0,.17.14.11.21a.29.29,0,0,1-.31.07,3.91,3.91,0,0,0-.56-.12C21.49,18.36,21.41,18.3,21.41,18.22Zm-.4,4h0c0-.07.08-.14.19-.15l.66-.08a.23.23,0,0,1,.26.14c0,.1-.08.17-.2.18l-.63.07A.23.23,0,0,1,21,22.2,0,0,0,0,1,21,22.17Zm-.89-4h0c0-.08.08-.15.2-.16s.42,0,.64,0,.25.07.25.16-.08.16-.21.16a5.59,5.59,0,0,0-.62,0c-.13,0-.25-.06-.26-.14v0Zm-1.27.19c0-.06.06-.12.15-.15s.27-.06.66-.12c.12,0,.25,0,.27.12s-.05.17-.17.19c-.36,0-.6.11-.6.11a.28.28,0,0,1-.3-.09A.13.13,0,0,1,18.85,18.4Z"/><path class="cls-3" d="M20.28,11a.57.57,0,0,0,.31-.29s.15,0,.14.07.23-.28-.28-.16a1,1,0,0,0-.66.44l.32-.15s-.05.18.17.09"/><polygon class="cls-3" points="22.02 9.85 22 9.77 22 9.78 22.02 9.85"/><path class="cls-3" d="M19.19,20.6h0a2.7,2.7,0,0,1,.08.39c0,.06,0,.13,0,.18s0,.14,0,.2a3.16,3.16,0,0,1-.12.37l-.18.39a3.24,3.24,0,0,0-.34.82.6.6,0,0,0,.08.45,1,1,0,0,0,.5.33,2.86,2.86,0,0,0,.62.13l.58.06a.2.2,0,0,1,.13,0s0,0,0,0a.22.22,0,0,1-.14,0h-.17s0,0,0,0L20.05,24l0,0,0,0-.1,0-.14,0h0l-.27-.06a8.13,8.13,0,0,1-1-.34L18,23.53c-.14-.07-.27-.19-.21-.17.11-.25.22-.51.31-.77A4.89,4.89,0,0,0,18.37,21a3.36,3.36,0,0,0-.25-1.39l.1,0a3.35,3.35,0,0,0,.41-.44,14.15,14.15,0,0,1,.56,1.47m.65,3.87h0l0,0s-.05,0-.07,0h0a.13.13,0,0,0-.12,0,.05.05,0,0,0,0,.09h0s0,0,0,0a219778279197.43,219778279197.43,0,0,1,0,.06l0,0,0,0-.09-.07h0a.12.12,0,0,0-.14,0,0,0,0,0,0,0,.09h0l-.17,0a.14.14,0,0,0-.11,0c-.06,0-.08.07-.06.11h0l-.06,0-.21.12c0-.06,0-.06,0-.05h-.08l-.23,0a1.86,1.86,0,0,1-.45-.06,3.07,3.07,0,0,0-1.13-.12l-.49.06a1.84,1.84,0,0,1-.42,0,.7.7,0,0,1-.3-.15c-.1-.1-.09-.09-.06-.17a3.71,3.71,0,0,0,.2-.32c0-.07.06-.13.08-.19a.83.83,0,0,0,.06-.21,2.12,2.12,0,0,0-.09-.76c0-.12-.05-.24-.07-.34a.86.86,0,0,1,0-.32,2.7,2.7,0,0,1,.3-.65h0a.08.08,0,0,0,0-.08,1,1,0,0,0-.13-.22l-.18-.2a2.56,2.56,0,0,0-.46-.33l-.48-.28-.29-.2a.11.11,0,0,0,0-.16h0a1.09,1.09,0,0,1-.14-.23.84.84,0,0,1-.07-.26.82.82,0,0,1,.16-.52,1.21,1.21,0,0,1,.23-.22,2.11,2.11,0,0,1,.29-.2,2.68,2.68,0,0,1,.34-.16,3.22,3.22,0,0,1,.37-.12,1.8,1.8,0,0,1,.38-.07,1.67,1.67,0,0,1,.39,0,1.29,1.29,0,0,1,.35.1,1.49,1.49,0,0,1,.3.18,1.51,1.51,0,0,1,.23.21l.2.24a2.28,2.28,0,0,1,.27.51.22.22,0,0,0,.08.09.53.53,0,0,0,.12,0A5.09,5.09,0,0,1,18,21c0,.13,0,.26-.07.39s-.06.25-.1.38-.15.51-.23.77-.18.51-.25.77c0,0,0,.15,0,.18a.4.4,0,0,0,.12.11,1.65,1.65,0,0,0,.26.14,4.76,4.76,0,0,0,.53.19c.36.11.72.21,1.1.29.18.05.42.05.48.12S19.88,24.41,19.84,24.47Zm-.83.27Zm-5.16-4.88h0a.77.77,0,0,1-.33-.22,1.57,1.57,0,0,1-.27-.72c0-.26-.09-.54-.12-.8a1.8,1.8,0,0,1,0-.4.3.3,0,0,1,.06-.18.16.16,0,0,1,.17-.1h0c.63,0,1.26.09,1.88.16s1.24.14,1.84.25a7.23,7.23,0,0,1,.86.19,2.49,2.49,0,0,1,.36.13s.05,0,.09.06l0,0,0,0a.76.76,0,0,1-.15.53,1.86,1.86,0,0,1-.21.28C18,19,18,19,17.89,18.87a2,2,0,0,0-.25-.25,1.86,1.86,0,0,0-.32-.23,1.91,1.91,0,0,0-.38-.18,2,2,0,0,0-.44-.09,2.26,2.26,0,0,0-.45,0,2.72,2.72,0,0,0-.43.09,2.46,2.46,0,0,0-.38.14,3.92,3.92,0,0,0-.36.16,2.63,2.63,0,0,0-.33.2,1.61,1.61,0,0,0-.28.24,1,1,0,0,0-.3.59.89.89,0,0,0,0,.32s0,0,0,0Zm.88-3.3Zm-1.13.27h0a5.57,5.57,0,0,1,.37-.57,12.71,12.71,0,0,1,.87-1.1l.34-.38a1.77,1.77,0,0,0,.32.5,1.14,1.14,0,0,0,.15.16c-.3,0-.85,0-1,.17s1.15.55,2,.59l.31.16c-.49-.05-1-.08-1.49-.09a5.06,5.06,0,0,0-.54,0,1.55,1.55,0,0,0-.29,0l-.05,0h0a.31.31,0,0,0-.12.07.14.14,0,0,0,0,.15s.06.06.08.08a2.08,2.08,0,0,0,.53.18l.52.1.35,0-.12,0a1.53,1.53,0,0,0-.29.07l-.08.05a.08.08,0,0,0,0,.05h0v0h0s0,.05.06.07l.07,0,.25.07-.53,0c-.63,0-1.26,0-1.88,0A1.28,1.28,0,0,1,13.6,16.83Zm2.24-2.71h0a4.49,4.49,0,0,0,.54-.53.91.91,0,0,0,.19-.72,2.51,2.51,0,0,0-.73-1.1l-.07-.27A.45.45,0,0,1,16,11a.85.85,0,0,0,0,.22,1.49,1.49,0,0,0,.33.47,1.35,1.35,0,0,0,.51.28,1.11,1.11,0,0,0,.46,0l.16,0v0H17.3a1,1,0,0,1-.36-.1.94.94,0,0,1-.52-.69.3.3,0,0,1,0-.19l0,0,0,0s0,0,0,0c.39,0,.49.1.93.4L17.3,11h0v0l.36.25s-.39-.39-.35-.74a1,1,0,0,0,.24-.56s0-.18,0,.26l-.11.55.5-.58-.1.5.48-.5.72-.86L19,10l.56-.93-.17,1,.39-.58.78-.95-.21.85.43-.66,0,1.07a2.84,2.84,0,0,0-1.33.76s1-.82,1.78-.57c0,0-.09-.23-.45-.19l.69-1.08a2.35,2.35,0,0,1,.15.42.86.86,0,0,1-.08.59c-.09.19-.22.39-.33.58a1.82,1.82,0,0,0-.16.31.29.29,0,0,0,.1.34c.1.09.21.16.29.24s.1.15,0,.22a2,2,0,0,1-.36.17s-.1.05-.1.11a.29.29,0,0,0,0,.1.76.76,0,0,0,.11.14l0,.06s0,0,0,0l-.18.06-.41.13s-.06,0-.05.07.05.05.1.05h.27l.08,0s0,0,0,.05,0,.06-.13.09l-.08,0a.17.17,0,0,0-.09.07.14.14,0,0,0,0,.14c0,.07,0,.12,0,.15s-.1.07-.18.09a1.07,1.07,0,0,1-.27.06l-.28,0a3.64,3.64,0,0,1-.57,0h-.29a1.59,1.59,0,0,1-.29,0,.29.29,0,0,0-.19.06.16.16,0,0,0-.06.09.28.28,0,0,0,0,.13.73.73,0,0,0,.06.21,1.15,1.15,0,0,0,.1.23l-.14,0a1.16,1.16,0,0,1-.45-.19l-.17-.17a.48.48,0,0,0-.33-.14.38.38,0,0,0-.24.07.34.34,0,0,0-.11.14.42.42,0,0,0,0,.24,1,1,0,0,0,.15.42.92.92,0,0,0,.13.19,1.37,1.37,0,0,0,.18.16l.07,0,.45.74a1.15,1.15,0,0,0-.3.33l.05,0a1.4,1.4,0,0,1,.6-.36,1.45,1.45,0,0,1,.35-.07h.19a1,1,0,0,0,.25,0,1.5,1.5,0,0,0,.78-.37c.18-.16.34-.33.5-.46l.1-.08.07,0,0,0h0l.08.05a.56.56,0,0,0,.21.07h.15l.12,0,.06,0h.27l.08.08.09,0h.26l.4,0a.7.7,0,0,0-.26.12,1.18,1.18,0,0,0-.29.31l-.1.14a.14.14,0,0,1,0,0l0,0a1,1,0,0,1-.36,0h-.11l-.05.05c-.17.22-.33.45-.51.66a1.7,1.7,0,0,1-.3.3,2.14,2.14,0,0,1-.39.24,3.12,3.12,0,0,1-.46.17,2.74,2.74,0,0,1-.5.07H18.9l-.25,0a3.56,3.56,0,0,1-.47-.1c-.14,0-.31-.1-.47-.15l-.43-.18a6.51,6.51,0,0,1-.83-.44,6.41,6.41,0,0,1-.73-.52,4.25,4.25,0,0,1-.47-.48C15.44,14.5,15.63,14.31,15.84,14.12Zm2.74.93h0l-.32-.26a1.36,1.36,0,0,1,.34.16.19.19,0,0,1,.06.07Zm1.41-.7h0a2.73,2.73,0,0,1-.23.25,1.06,1.06,0,0,1-.52.33.76.76,0,0,1-.16,0,.9.9,0,0,0-.23,0h-.06v-.1c0-.15-.25-.29-.43-.43a3.11,3.11,0,0,1-.28-.23L18,14.11,17.84,14a1.29,1.29,0,0,1-.19-.32.89.89,0,0,1,0-.14.24.24,0,0,0,0-.07.25.25,0,0,1,.17,0,1,1,0,0,1,.19.14,3.23,3.23,0,0,0,.43.29,2.58,2.58,0,0,0,.44.22,2.74,2.74,0,0,0,.45.12A3.75,3.75,0,0,0,20,14.35Zm1.26-.41Zm.29.29Zm.14-.29Zm0,.25Zm-4,2.6h0c-.35,0-.69,0-1,0s-.68-.06-1-.11l-.49-.08-.29-.07.1,0,.5,0c.55,0,1.12,0,1.68,0l.35.14c.17,0,.32.11.52.15a2.09,2.09,0,0,0,.34,0Zm.24.8h0s0,0,0,0v0l-.35-.07.26,0Zm11.14-1.24h-.32l-.3,0-.61,0a10.24,10.24,0,0,0-1.24,0c-.82,0-1.63.13-2.43.24h-.06l-1.93.67-.48.17a4,4,0,0,1-.46.14,7.89,7.89,0,0,1-1,.16,8.91,8.91,0,0,1-1,.07c-.17,0-.34,0-.49,0l-.21,0h0l.49-.07h.52a4.49,4.49,0,0,0,.61-.06.15.15,0,0,0,.14-.13c0-.08-.09-.14-.2-.14h0c-.37,0-.73,0-1.11,0l-.56.06-.15,0h-.44c-.37,0-.75,0-1.12,0l-.56-.05a2.65,2.65,0,0,1-.52-.11l0,0s0,0,0,0l0,0,.24-.06.55-.05h.06l.17,0,.55,0h.52q1.05,0,2.1,0h0c.11,0,.19-.06.19-.13s-.09-.13-.2-.13h0l-.82,0,.23,0a3,3,0,0,0,.54-.13,4,4,0,0,0,.47-.21,4.1,4.1,0,0,0,.41-.26,2,2,0,0,0,.33-.31l.55-.56a1.13,1.13,0,0,0,.48,0,.41.41,0,0,0,.15-.07.47.47,0,0,0,.1-.09l.12-.14a1,1,0,0,1,.24-.23.25.25,0,0,1,.2,0l.17,0,.1-.09a.75.75,0,0,0,.14-.17h0a7.18,7.18,0,0,0,.84,0,8,8,0,0,0,2.26-.39c.39-.14.72-.29,1.05-.43l.88-.41c.5-.25.82-.44.82-.44s-.4.09-1,.26l-1,.32-1.05.39a8.25,8.25,0,0,1-1.08.3c-.35.09-.7.15-1,.2l-.78.13a.21.21,0,0,0-.07-.23.63.63,0,0,0-.35-.12h-.59l0-.05a.51.51,0,0,0-.25-.1h-.29a.38.38,0,0,0-.16-.05h-.11l-.07,0-.05,0h0a.51.51,0,0,0-.22-.09.78.78,0,0,0-.39,0,.53.53,0,0,0-.14.06l-.09.05a1.41,1.41,0,0,0-.17.14l-.1.11h0a4.74,4.74,0,0,0-.61-.23l-.14,0,.19,0a6.47,6.47,0,0,1,1.19-.14,5.91,5.91,0,0,1,.8.05,7.53,7.53,0,0,0,1,0,8.07,8.07,0,0,0,2-.35l.25-.08.23-.08.45-.2c.29-.13.55-.28.8-.41.5-.28.95-.56,1.32-.81.74-.49,1.19-.85,1.19-.85l-.39.19-1,.51-1.4.71-.81.38L24.7,13l-.22.08-.22.07a8.07,8.07,0,0,1-1.85.36c-.3,0-.6,0-.89,0a6,6,0,0,0-.85,0,5.47,5.47,0,0,0-1.2.28l-.23.09-.19-.06a3.13,3.13,0,0,1-.19-.36,1.27,1.27,0,0,1-.06-.18v-.06h.55a4.07,4.07,0,0,0,.61,0l.3-.05.3-.08a.54.54,0,0,0,.27-.16.21.21,0,0,0,0-.24c0-.09,0,0,.06-.08l.15-.07a.19.19,0,0,0,.09-.13c0-.05,0-.07-.05-.15l-.11,0,.06,0a1.28,1.28,0,0,0,.22-.09A.11.11,0,0,0,21.3,12a.28.28,0,0,0-.06-.08c-.07-.08-.17-.21-.1-.2a2.81,2.81,0,0,0,.39-.19.25.25,0,0,0,.12-.18.32.32,0,0,0-.1-.17,2.15,2.15,0,0,0-.29-.25c-.19-.15,0-.35.09-.54s.24-.38.35-.58a1.1,1.1,0,0,0,.11-.56l.19.54A2.09,2.09,0,0,0,20.64,7.5l0,0-.08-.05a2.53,2.53,0,0,0-.42-.18l-.24-.07a7.06,7.06,0,0,0-3.44-.34C15.31,7,13,8.06,13.11,9.9s1.92,1.63,2.4,2.26l0-.1a2.08,2.08,0,0,1,.57.86c.1.35-.23.67-.59,1a8.8,8.8,0,0,0-1,1.1,13.56,13.56,0,0,0-.77,1.15,5.48,5.48,0,0,0-.29.6,1.46,1.46,0,0,0-.13.61.31.31,0,0,0-.26.1.47.47,0,0,0-.12.2,1.27,1.27,0,0,0-.09.42,7.48,7.48,0,0,0,0,.82,1.4,1.4,0,0,0,.27.86,1.07,1.07,0,0,0,.22.2,1.38,1.38,0,0,0,.3.14,1.94,1.94,0,0,0,.33.07,1.84,1.84,0,0,0,.33,0,.25.25,0,0,0,.12,0,2.73,2.73,0,0,0,.25.23,3.39,3.39,0,0,0,.42.33,1.94,1.94,0,0,1,.36.33l.13.18.06.14a2.86,2.86,0,0,0-.37.66,1.1,1.1,0,0,0,0,.4c0,.13,0,.25.06.37a2,2,0,0,1,.05.67.66.66,0,0,1,0,.15,1.11,1.11,0,0,1-.07.16c-.05.11-.12.2-.19.34a.3.3,0,0,0,0,.28.46.46,0,0,0,.08.13l.09.09a1.3,1.3,0,0,0,.56.25,2.17,2.17,0,0,0,.62,0,3.51,3.51,0,0,0,.53-.08,2.22,2.22,0,0,1,.45,0l.48.08a2.25,2.25,0,0,0,.59,0,1.6,1.6,0,0,0,.29-.05.58.58,0,0,0,.16-.05l0,0a.5.5,0,0,0,.18,0l.07,0c.05,0,0,0,.05,0a.07.07,0,0,0,0-.06h.08a.27.27,0,0,0,.12,0l.05,0h0l.05,0a.26.26,0,0,0,.15,0,.3.3,0,0,0,.08-.07.16.16,0,0,0,0-.07h0A.21.21,0,0,0,20,24.5c0-.06.07-.14,0-.23l-.06-.06h0l.15,0h0l.1,0,.18,0a.72.72,0,0,0,.42-.08.22.22,0,0,0,.06-.36.62.62,0,0,0-.36-.18,3.9,3.9,0,0,0-.63-.07c-.2,0-.39,0-.57,0a.93.93,0,0,1-.44-.18.38.38,0,0,1-.11-.36,1.88,1.88,0,0,1,.49-.74,2.63,2.63,0,0,0,.29-.39,1.89,1.89,0,0,0,.2-.43,2.09,2.09,0,0,0,0-.21,1.92,1.92,0,0,0,0-.24,1.64,1.64,0,0,0-.09-.44,3.68,3.68,0,0,0-.44-.8,4,4,0,0,0-.59-.66l.06-.08a1,1,0,0,0,.23-.73l0-.1v0h.25a9.52,9.52,0,0,0,2.23-.23,3.24,3.24,0,0,0,.53-.16l.48-.17,1.87-.72q1.15-.19,2.34-.33a11.69,11.69,0,0,1,1.19-.08h.92a1,1,0,0,0,.32-.05h0Z"/><path class="cls-3" d="M2.27,3.33a1.46,1.46,0,0,1-.49.06A1.06,1.06,0,0,1,.63,2.22,1.14,1.14,0,0,1,1.84,1a1,1,0,0,1,.43.06l-.08.22a1.18,1.18,0,0,0-.35-.05c-.37,0-.8.25-.8,1s.39,1,.81,1a1.11,1.11,0,0,0,.36,0Z"/><path class="cls-3" d="M2.84,2.52h0c0,.28.07.67.43.67s.41-.4.41-.67-.07-.66-.42-.66-.42.4-.42.66m1.24,0a.8.8,0,0,1-.83.88.78.78,0,0,1-.8-.87.79.79,0,0,1,.83-.88A.78.78,0,0,1,4.08,2.52Z"/><path class="cls-3" d="M4.52,2.11c0-.2,0-.3,0-.44h.35l0,.21h0a.71.71,0,0,1,.56-.23.52.52,0,0,1,.51.25H6a.76.76,0,0,1,.25-.19.9.9,0,0,1,.34-.06.54.54,0,0,1,.6.6V3.37H6.75V2.31c0-.22,0-.44-.35-.44A.38.38,0,0,0,6,2.13a.61.61,0,0,0,0,.15V3.37H5.63V2.26c0-.19,0-.39-.34-.39a.38.38,0,0,0-.37.28.59.59,0,0,0,0,.14V3.37H4.52Z"/><path class="cls-3" d="M7.69,3.37h0V1.67h.39v1.7Zm.42-2.14c0,.11-.09.18-.24.18s-.22-.07-.22-.18.1-.17.23-.17S8.11,1.13,8.11,1.23Z"/><path class="cls-3" d="M9.68,2.35h0c0-.34-.18-.49-.37-.49s-.38.26-.4.49Zm-.77.2c0,.52.3.63.58.63a1.08,1.08,0,0,0,.41-.07l.07.2a1.77,1.77,0,0,1-.55.08.8.8,0,0,1-.9-.85.81.81,0,0,1,.84-.89.67.67,0,0,1,.7.75v.15Z"/><path class="cls-3" d="M10.49,2.11c0-.2,0-.3,0-.44h.34l0,.21h0a.71.71,0,0,1,.57-.23.54.54,0,0,1,.6.58V3.37h-.4V2.28c0-.2,0-.41-.34-.41a.38.38,0,0,0-.37.28.68.68,0,0,0,0,.15V3.37h-.39Z"/><path class="cls-3" d="M12.36,3.21l.79-1c.06-.09.14-.18.2-.26h-.89V1.67h1.32v.18l-.77,1-.2.25h1v.22H12.36Z"/><path class="cls-3" d="M15.08,2.49h0c-.2,0-.68,0-.68.4a.28.28,0,0,0,.3.3.35.35,0,0,0,.37-.26.28.28,0,0,0,0-.09Zm.06.88,0-.18h0a.62.62,0,0,1-.49.21c-.34,0-.59-.19-.59-.48s.49-.62,1.05-.62v0c0-.23-.08-.39-.39-.39a.88.88,0,0,0-.41.09l-.09-.19a1.31,1.31,0,0,1,.58-.11c.5,0,.71.22.71.6V3a1.54,1.54,0,0,0,0,.38Z"/><path class="cls-3" d="M17.75,2.49h0c-.21,0-.68,0-.68.4a.28.28,0,0,0,.3.3.37.37,0,0,0,.37-.26.28.28,0,0,0,0-.09Zm.05.88,0-.18h0a.61.61,0,0,1-.49.21c-.33,0-.59-.19-.59-.48s.5-.62,1.06-.62v0c0-.23-.08-.39-.4-.39a.91.91,0,0,0-.41.09l-.08-.19a1.31,1.31,0,0,1,.58-.11c.49,0,.71.22.71.6V3a2.3,2.3,0,0,0,0,.38Z"/><path class="cls-3" d="M1.13,5.9h0a.53.53,0,0,0,0,.14.37.37,0,0,0,.37.29c.32,0,.43-.31.43-.65S1.81,5,1.5,5a.39.39,0,0,0-.36.31.57.57,0,0,0,0,.13Zm-.4-.54c0-.26,0-.41,0-.53h.36l0,.22h0a.61.61,0,0,1,.52-.25c.43,0,.72.32.72.88a.77.77,0,0,1-.77.88.48.48,0,0,1-.43-.2h0V7.2H.73Z"/><path class="cls-3" d="M3.7,5.65h0c-.2,0-.68,0-.68.39a.28.28,0,0,0,.3.31.35.35,0,0,0,.37-.26A.31.31,0,0,0,3.7,6Zm.06.88,0-.18h0a.62.62,0,0,1-.49.21.53.53,0,0,1-.59-.49c0-.42.49-.61,1-.61V5.4c0-.23-.08-.38-.39-.38a1,1,0,0,0-.41.08L2.8,4.91a1.48,1.48,0,0,1,.58-.11c.5,0,.71.23.71.61v.73a1.63,1.63,0,0,0,0,.39Z"/><path class="cls-3" d="M4.64,5.27c0-.14,0-.31,0-.44H5L5,5.1H5a.6.6,0,0,1,.52-.3h.09v.27H5.52a.46.46,0,0,0-.47.35.78.78,0,0,0,0,.16v.94H4.64Z"/><path class="cls-3" d="M6.8,5.65h0c-.2,0-.68,0-.68.39a.28.28,0,0,0,.3.31.35.35,0,0,0,.37-.26A.31.31,0,0,0,6.8,6Zm.06.88,0-.18h0a.62.62,0,0,1-.49.21.53.53,0,0,1-.59-.49c0-.42.49-.61,1-.61V5.4c0-.23-.08-.38-.39-.38A1,1,0,0,0,6,5.1L5.9,4.91a1.48,1.48,0,0,1,.58-.11c.5,0,.71.23.71.61v.73a1.63,1.63,0,0,0,0,.39Z"/><path class="cls-3" d="M7.74,5.27c0-.14,0-.31,0-.44h.35l0,.27h0a.6.6,0,0,1,.52-.3h.09v.27H8.62a.46.46,0,0,0-.47.35.78.78,0,0,0,0,.16v.94H7.74Z"/><path class="cls-3" d="M9,6.25a1,1,0,0,0,.39.09c.23,0,.37-.1.37-.25s-.07-.22-.32-.33-.5-.29-.5-.49.3-.47.68-.47a1.18,1.18,0,0,1,.45.09l-.11.2A.79.79,0,0,0,9.59,5c-.22,0-.33.11-.33.21s.06.18.31.3.51.28.51.51-.34.51-.74.51a1.15,1.15,0,0,1-.49-.1Z"/><path class="cls-3" d="M11.55,5.5h0c0-.34-.18-.49-.37-.49s-.39.26-.41.49Zm-.78.2c0,.52.3.64.59.64a1.16,1.16,0,0,0,.41-.07l.06.2a1.77,1.77,0,0,1-.55.08.8.8,0,0,1-.9-.85.82.82,0,0,1,.84-.9.68.68,0,0,1,.7.75V5.7Z"/><path class="cls-3" d="M13.49,11s.65.48.51,1.1a2.56,2.56,0,0,1-.24.78l.57-.62.19.91.35-.87.14.78.39-.61.13.89v-1l.53.62a2.74,2.74,0,0,0-.39-1.14A5.23,5.23,0,0,0,13.49,11"/></svg>