<svg id="Capa_1" data-name="Capa 1" xmlns="http://www.w3.org/2000/svg" viewBox="0 0 19.92 21.36"><defs><style>.cls-1{fill:#f5a4c7;}.cls-2{fill:#fbc9b5;}.cls-3{fill:#231f20;}</style></defs><title>2-5meses</title><path class="cls-1" d="M5.16,11.59c-1.66-.06-3,1.46-2.9,2.18s.26,1.73.67,1.82,3.19.15,3.26.15,1.7-.85,1.79-1.27-.89-2.82-2.82-2.88"/><path class="cls-2" d="M2.85,5.59c.33,1.33,1.53,1.55,1.82,1.79s.75.55.73.84S6,8.89,5,9.72A6.56,6.56,0,0,0,3.05,12c-.13.39-.39,1-.39,1l3.21.26L8,13.57a26,26,0,0,0,4-.71c1-.38,1.83-.6,1.83-.6a23,23,0,0,1,3.2-.32A10,10,0,0,0,18.4,12V6.55s-.91.41-1.95.91a13.9,13.9,0,0,1-3.61,1.6A15.44,15.44,0,0,1,10,9.29a2.84,2.84,0,0,0-.75.07c-.32.1-.61.17-.61.17s-.36.06-.46-.17-.69-.69.69-.6c0,0,1.26-.12,1.25-.31s-.11-.23,0-.27.25,0,.25-.16-.25-.18-.25-.18.43-.15.42-.22-.1-.17-.12-.27a.11.11,0,0,1,.06-.13s.59-.17.39-.41-.51-.27-.43-.52A7.29,7.29,0,0,0,11.08,5a1.08,1.08,0,0,0-.41-1.06A3.77,3.77,0,0,0,9,3.64c-.8,0-6.42,1-6.18,1.95"/><path class="cls-2" d="M3.42,15c-.17.5.27.86,1,1.28s.88.74.79.9a2.39,2.39,0,0,0-.35,1.49,1.49,1.49,0,0,1-.29,1.15c-.1.26.36.66,1.17.59a5.8,5.8,0,0,1,1.58,0,3,3,0,0,0,1.16,0c.33-.07.72-.13.78-.25a.78.78,0,0,0,0-.35s1,.05.84-.19,0-.33-.92-.31S8,19.16,8,18.87a3.79,3.79,0,0,1,.52-1.26,2.67,2.67,0,0,0,.05-2.08,6.12,6.12,0,0,0-.75-1L7.31,15s-.37-.68-.43-.74a1.29,1.29,0,0,0-1.25-.49c-.9.05-2,.46-2.21,1.17"/><path class="cls-3" d="M11.25,18.43h0c0-.06.05-.12.14-.15a1.17,1.17,0,0,0,.42-.2.28.28,0,0,1,.32,0c.11.05.13.15.06.22a1.5,1.5,0,0,1-.62.32.29.29,0,0,1-.3-.09.07.07,0,0,1,0-.06M10.89,18h0c0-.08.09-.15.21-.16l.26,0a3.18,3.18,0,0,1,.4,0c.13,0,.24.07.24.16s-.11.16-.23.16l-.3,0-.32,0a.24.24,0,0,1-.26-.14Zm-.2-2.64h0c0-.07.06-.13.16-.15a.25.25,0,0,1,.29.1.8.8,0,0,1,.06.51c0,.09-.13.15-.26.14s-.21-.09-.2-.18a.58.58,0,0,0,0-.37A.09.09,0,0,1,10.69,15.31Zm-.37,1.28h0a.19.19,0,0,1,0-.07,3.12,3.12,0,0,0,.25-.39.29.29,0,0,1,.3-.1c.12,0,.18.13.14.21a2.94,2.94,0,0,1-.27.42.3.3,0,0,1-.32.07C10.36,16.7,10.32,16.65,10.32,16.59Zm-.35,2h0a.19.19,0,0,1,.19-.16c.23,0,.45,0,.67-.05l0,.32h0c-.19,0-.39,0-.6,0A.24.24,0,0,1,10,18.6Zm-.21-3.87h0a.11.11,0,0,1,0-.07.3.3,0,0,1,.32-.07,5.09,5.09,0,0,1,.57.26c.1.06.12.16,0,.23a.3.3,0,0,1-.33,0,4.08,4.08,0,0,0-.51-.23A.17.17,0,0,1,9.76,14.71Zm-.07,3h0a.14.14,0,0,1,.06-.1.29.29,0,0,1,.32,0,1.71,1.71,0,0,0,.48.18c.12,0,.19.11.15.2a.25.25,0,0,1-.29.1,1.76,1.76,0,0,1-.65-.25A.13.13,0,0,1,9.69,17.69Zm-.06-.34h0a.13.13,0,0,1,0-.1,4,4,0,0,0,.36-.36.33.33,0,0,1,.32-.05c.11.05.14.15.07.22a4.6,4.6,0,0,1-.37.38.32.32,0,0,1-.33,0A.15.15,0,0,1,9.63,17.35Zm-.91,1.47h0a.18.18,0,0,1,.15-.15l.63-.15a.27.27,0,0,1,.29.11c0,.09,0,.17-.16.2A4.71,4.71,0,0,0,9,19a.28.28,0,0,1-.3-.09A.07.07,0,0,1,8.72,18.82Zm-.16-4.44h0a.06.06,0,0,1,0,0,.23.23,0,0,1,.28-.11l.64.14c.12,0,.18.13.13.21a.28.28,0,0,1-.3.09l-.59-.14C8.62,14.51,8.56,14.45,8.56,14.38Zm-1.28-.16h0a.22.22,0,0,1,.25-.15s.27,0,.67.06c.12,0,.21.11.18.19s-.14.14-.27.13c-.36,0-.61-.06-.62-.06S7.28,14.3,7.28,14.22Z"/><path class="cls-3" d="M12.87,17.44h0a.15.15,0,0,1,.09-.13c.16-.08.22-.15.22-.17s0-.17.08-.21a.29.29,0,0,1,.32.06.18.18,0,0,1,.06.15c0,.14-.15.3-.4.42a.3.3,0,0,1-.33,0,.12.12,0,0,1,0-.09m-1-.37h0c0-.09.13-.16.26-.15h.11l.43,0c.12,0,.26,0,.29.11s0,.17-.15.19a2.93,2.93,0,0,1-.57.05h-.15C12,17.22,11.89,17.15,11.89,17.07Zm0-2.84h0A.15.15,0,0,1,12,14.1a.31.31,0,0,1,.32,0,.76.76,0,0,1,.27.5c0,.1-.09.16-.22.17s-.24-.06-.25-.15a.52.52,0,0,0-.16-.33A.1.1,0,0,1,11.87,14.23Zm-.08,1.27h0a.14.14,0,0,1,0-.06A2.6,2.6,0,0,0,12,15a.25.25,0,0,1,.28-.11c.12,0,.2.1.17.19a2.4,2.4,0,0,1-.23.45.3.3,0,0,1-.31.08C11.85,15.62,11.79,15.56,11.79,15.5Zm-.16,2.16h0c0-.09.09-.16.22-.16h.31l.3,0c.12,0,.25,0,.27.12s-.05.17-.17.19a2.34,2.34,0,0,1-.38,0h-.3c-.13,0-.24-.06-.25-.14Zm-.48-1.38h0a.12.12,0,0,1,0-.09l.34-.37a.28.28,0,0,1,.31-.06c.12,0,.16.14.09.22l-.35.39a.32.32,0,0,1-.33,0A.16.16,0,0,1,11.15,16.28Zm-.35.36h0a.16.16,0,0,1,.11-.13.31.31,0,0,1,.32,0,1,1,0,0,0,.4.25c.11,0,.15.14.08.22a.32.32,0,0,1-.32.06,1.75,1.75,0,0,1-.55-.35A.12.12,0,0,1,10.8,16.64Zm-.06-2.82h0v0a.25.25,0,0,1,.28-.13,4.14,4.14,0,0,1,.67.15c.12,0,.16.14.1.22a.28.28,0,0,1-.31.07,2.78,2.78,0,0,0-.55-.13C10.82,14,10.74,13.89,10.74,13.82Zm-.4,3.95h0c0-.08.08-.14.19-.16l.65-.07c.13,0,.25.05.26.14s-.07.16-.2.17l-.63.07a.25.25,0,0,1-.27-.12Zm-.9-4h0c0-.08.09-.15.21-.16l.64,0c.13,0,.25.07.25.16s-.09.16-.22.16L9.7,14a.23.23,0,0,1-.26-.14h0ZM8.17,14c0-.07.06-.13.16-.15s.27-.07.65-.13a.26.26,0,0,1,.28.12c0,.09,0,.18-.18.2-.35.05-.59.11-.6.11a.26.26,0,0,1-.29-.1S8.17,14,8.17,14Z"/><path class="cls-3" d="M9.61,6.58a.57.57,0,0,0,.31-.3s.15,0,.14.08.23-.28-.28-.16a1,1,0,0,0-.67.43l.32-.15s0,.19.18.1"/><polygon class="cls-3" points="11.35 5.44 11.32 5.37 11.32 5.38 11.35 5.44"/><path class="cls-3" d="M8.52,16.2h0c0,.13.06.25.08.38a1.15,1.15,0,0,1,0,.18.62.62,0,0,1,0,.2,1.51,1.51,0,0,1-.12.38l-.18.39a3.94,3.94,0,0,0-.34.82A.58.58,0,0,0,8,19a.9.9,0,0,0,.5.33,3.27,3.27,0,0,0,.62.14l.57.05.14,0s0,0,0,0a.28.28,0,0,1-.15.05H9.58s0,0,0,0l-.22-.05s0,0,0,0a.05.05,0,0,1,0,0l-.09.05-.14,0H9l-.26,0a8.31,8.31,0,0,1-1-.35,4.9,4.9,0,0,1-.46-.21c-.14-.07-.27-.19-.22-.18a7.35,7.35,0,0,0,.32-.77,5.42,5.42,0,0,0,.32-1.59,3.66,3.66,0,0,0-.25-1.38.16.16,0,0,0,.09-.05A2.89,2.89,0,0,0,8,14.72c.2.5.42,1,.56,1.48m.65,3.86h0s0,0,0,0l-.06,0h0a.09.09,0,0,0-.11,0,0,0,0,0,0,0,.08H9a0,0,0,0,1,0,0v0s0,0,0,0,0,0,0,0,0,0,0,0a.28.28,0,0,1-.09-.06h0a.15.15,0,0,0-.13,0,.05.05,0,0,0,0,.09h0a.83.83,0,0,1-.18,0,.14.14,0,0,0-.11,0c-.06,0-.08.06,0,.1h0l-.06,0-.21.12c0-.06,0-.05,0-.05l-.08,0-.23,0a1.9,1.9,0,0,1-.44-.07,3.6,3.6,0,0,0-1.13-.12c-.19,0-.35.06-.49.06a1.51,1.51,0,0,1-.43,0,.83.83,0,0,1-.3-.14c-.09-.11-.08-.1,0-.17s.13-.21.19-.33a1.63,1.63,0,0,0,.09-.19,1.46,1.46,0,0,0,0-.2,2.07,2.07,0,0,0-.08-.76c0-.12-.06-.24-.08-.35a.65.65,0,0,1,0-.31,2,2,0,0,1,.3-.65v0a.06.06,0,0,0,0-.07,1.18,1.18,0,0,0-.14-.22,1.12,1.12,0,0,0-.18-.2,2.48,2.48,0,0,0-.45-.33L4.12,16l-.3-.2a.11.11,0,0,0,0-.16h0a1.3,1.3,0,0,1-.15-.23.76.76,0,0,1-.06-.26.77.77,0,0,1,.16-.51A1.19,1.19,0,0,1,4,14.39a1.28,1.28,0,0,1,.3-.19A1.71,1.71,0,0,1,4.64,14,3.4,3.4,0,0,1,5,13.91c.13,0,.25,0,.38-.07a1.7,1.7,0,0,1,.39,0,2,2,0,0,1,.35.11,1.57,1.57,0,0,1,.53.39,2.11,2.11,0,0,1,.19.23,2.65,2.65,0,0,1,.28.52.15.15,0,0,0,.08.08.27.27,0,0,0,.12,0,4.76,4.76,0,0,1,0,1.36L7.27,17c0,.13-.07.26-.1.39s-.16.51-.24.76-.17.51-.25.77c0,0,0,.15,0,.18a.47.47,0,0,0,.13.12.91.91,0,0,0,.26.13,4.81,4.81,0,0,0,.53.2c.36.11.72.2,1.09.28.19.06.43.05.49.12S9.2,20,9.17,20.06Zm-.83.28ZM3.18,15.45h0a.78.78,0,0,1-.33-.21,1.46,1.46,0,0,1-.27-.72c0-.27-.1-.55-.13-.81a2.54,2.54,0,0,1,0-.39.6.6,0,0,1,.06-.19A.18.18,0,0,1,2.67,13h0c.63,0,1.25.09,1.87.16a18.51,18.51,0,0,1,1.84.25q.45.08.87.18l.35.13s0,0,.1.06l0,0,0,.06a.83.83,0,0,1-.15.53,2.55,2.55,0,0,1-.21.28l-.19-.26A3.13,3.13,0,0,0,7,14.21,1.73,1.73,0,0,0,6.65,14a2.64,2.64,0,0,0-.38-.18,2.16,2.16,0,0,0-.44-.1,3.53,3.53,0,0,0-.46,0c-.14,0-.3,0-.42.09s-.27.08-.39.14-.24.1-.36.17l-.33.2a2,2,0,0,0-.28.23,1,1,0,0,0-.29.59,1.15,1.15,0,0,0,0,.32l0,0Zm.88-3.3Zm-1.14.27h0a6.27,6.27,0,0,1,.38-.57c.26-.37.56-.74.87-1.1l.33-.37a2.48,2.48,0,0,0,.32.5L5,11c-.3,0-.85,0-1,.17s1.16.54,2,.58l.32.17a14.71,14.71,0,0,0-1.49-.09,4.87,4.87,0,0,0-.54,0,1.71,1.71,0,0,0-.3,0H3.88a.33.33,0,0,0-.11.08.14.14,0,0,0,0,.15l.08.07a2.19,2.19,0,0,0,.54.19l.52.1.35.05-.12,0a1.18,1.18,0,0,0-.3.07s0,0-.07.05l0,0v0h0l.06.06.08,0,.24.07L4.6,13a17,17,0,0,0-1.89,0A1.36,1.36,0,0,1,2.92,12.42Zm2.24-2.7h0a5.6,5.6,0,0,0,.55-.54.84.84,0,0,0,.18-.71,2.35,2.35,0,0,0-.73-1.1L5.09,7.1a.49.49,0,0,1,.21-.47.54.54,0,0,0,0,.22,1.09,1.09,0,0,0,.33.47,1.28,1.28,0,0,0,.51.28,1.11,1.11,0,0,0,.45.05l.17,0,0,0H6.63a.87.87,0,0,1-.36-.09,1,1,0,0,1-.53-.7.4.4,0,0,1,0-.19l0,0s0,0,0,0v0c.4,0,.5.1.94.4L6.63,6.6h0v0L7,6.83a1.16,1.16,0,0,1-.35-.75,1,1,0,0,0,.23-.55s0-.18,0,.26l-.1.54.5-.57-.1.49.48-.49.72-.86,0,.7.56-.92-.17,1,.39-.58.77-1L9.7,5l.42-.65,0,1.07a2.83,2.83,0,0,0-1.33.76s1-.82,1.78-.57c0,0-.08-.23-.44-.19l.68-1.09a1.38,1.38,0,0,1,.15.43.93.93,0,0,1-.07.59c-.1.19-.23.38-.34.58s-.11.2-.15.3a.31.31,0,0,0,.1.35c.1.09.2.16.28.24s.1.15,0,.21a2.41,2.41,0,0,1-.36.18s-.1,0-.1.1a.24.24,0,0,0,0,.1.83.83,0,0,0,.11.15l0,.06h0l-.17.07-.41.13s-.07,0-.06.06a.09.09,0,0,0,.11,0h.34s0,0,0,.06,0,.05-.14.08l-.07,0a.2.2,0,0,0-.09.06.16.16,0,0,0,0,.15c0,.06,0,.11,0,.15a.37.37,0,0,1-.18.09l-.27.06-.28,0a5.63,5.63,0,0,1-.58,0H8.38l-.29,0a.32.32,0,0,0-.18.05.27.27,0,0,0-.06.09.62.62,0,0,0,0,.13,1.41,1.41,0,0,0,.06.22c0,.08.07.15.1.22l-.14,0a1,1,0,0,1-.44-.19c-.06,0-.1-.11-.17-.17a.54.54,0,0,0-.33-.14.41.41,0,0,0-.25.08.29.29,0,0,0-.1.13.45.45,0,0,0,0,.25,1.62,1.62,0,0,0,.15.42,1,1,0,0,0,.14.18.85.85,0,0,0,.17.16l.07,0,.46.74a1,1,0,0,0-.3.33h0a1.59,1.59,0,0,1,.59-.36,1.51,1.51,0,0,1,.36-.06h.19a2.11,2.11,0,0,0,.25,0,1.54,1.54,0,0,0,.77-.37c.19-.16.34-.33.5-.47l.1-.08.07,0,.05,0h0l.07,0a.68.68,0,0,0,.22.08h.15l.11,0,.06,0h.28a.16.16,0,0,0,.08.09l.09,0h.65a.89.89,0,0,0-.26.11,1.07,1.07,0,0,0-.29.32l-.09.14,0,.05,0,0a.73.73,0,0,1-.37,0h-.11l0,.05c-.17.22-.33.44-.51.66a1.65,1.65,0,0,1-.3.29A2.4,2.4,0,0,1,9,12.1a2.89,2.89,0,0,1-.5.08H8c-.16,0-.33-.06-.47-.1S7.2,12,7,11.92l-.44-.19c-.29-.13-.56-.28-.83-.43a5.57,5.57,0,0,1-.72-.53,3.54,3.54,0,0,1-.47-.48A6.25,6.25,0,0,1,5.16,9.72Zm2.75.92h0l-.32-.26a1.44,1.44,0,0,1,.33.16l.07.08Zm1.41-.7h0c-.08.09-.15.18-.23.26a1.23,1.23,0,0,1-.52.32.9.9,0,0,1-.16,0l-.23,0H8.12a.38.38,0,0,0,0-.1c0-.15-.25-.3-.43-.44a2,2,0,0,1-.27-.22L7.28,9.7l-.11-.14A1.23,1.23,0,0,1,7,9.25a.48.48,0,0,1,0-.15s0-.06,0-.07a.35.35,0,0,1,.17,0,1.19,1.19,0,0,1,.18.15c.14.11.29.19.43.28a2.73,2.73,0,0,0,.45.23l.44.12A4.71,4.71,0,0,0,9.32,9.94Zm1.26-.4Zm.28.28ZM11,9.54Zm0,.24ZM7,12.39H7c-.36,0-.69,0-1,0s-.68-.06-1-.11c-.17,0-.33,0-.49-.09l-.3-.07h.1a4.21,4.21,0,0,1,.51,0c.55,0,1.11,0,1.68,0l.35.15a4.81,4.81,0,0,0,.52.14,1.88,1.88,0,0,0,.33.05Zm.23.8h0l0,0v0l-.34-.07.26,0ZM18.39,12h0a2.6,2.6,0,0,1-.28,0h-.3l-.6,0a8.55,8.55,0,0,0-1.24,0c-.82,0-1.63.13-2.44.25h-.05l-1.93.67L11,13a3.33,3.33,0,0,1-.45.13,8.51,8.51,0,0,1-1,.17,8.89,8.89,0,0,1-1,.06,4.07,4.07,0,0,1-.5,0,1.18,1.18,0,0,1-.21,0h0a3.5,3.5,0,0,1,.48-.06h.53a4.51,4.51,0,0,0,.6-.06c.09,0,.15-.07.15-.14s-.09-.14-.2-.14h0l-1.11,0c-.19,0-.37,0-.57.07L7.6,13H7.16c-.38,0-.75,0-1.13,0l-.55-.05a2.66,2.66,0,0,1-.52-.1l0,0s0,0,0,0,0,0,0,0a.77.77,0,0,1,.24-.06c.18,0,.37,0,.55-.06h.06l.18,0c.18,0,.36,0,.55,0H7c.7,0,1.4,0,2.09,0h0c.1,0,.18-.06.18-.13s-.09-.13-.19-.13H8.3l.23,0a3.18,3.18,0,0,0,.53-.14A2.9,2.9,0,0,0,9.53,12a2.85,2.85,0,0,0,.41-.26,2,2,0,0,0,.34-.3c.17-.19.36-.38.55-.56a1.27,1.27,0,0,0,.47,0,.48.48,0,0,0,.16-.08.38.38,0,0,0,.09-.08l.12-.15a1,1,0,0,1,.25-.22.21.21,0,0,1,.2,0l.17,0,.1-.09a.58.58,0,0,0,.14-.17h0c.18,0,.47,0,.84,0a8,8,0,0,0,2.26-.39c.38-.15.72-.29,1-.44s.62-.28.87-.41c.51-.25.82-.44.82-.44s-.4.09-1,.27c-.29.09-.62.19-1,.32s-.71.26-1.06.38a8.15,8.15,0,0,1-1.07.31l-1,.2-.77.13a.21.21,0,0,0-.07-.23.66.66,0,0,0-.36-.12h-.58a.1.1,0,0,0,0-.05.55.55,0,0,0-.25-.1,1.23,1.23,0,0,0-.26,0h0a.42.42,0,0,0-.16,0h-.12l-.06,0-.06,0h0a1,1,0,0,0-.22-.09,1,1,0,0,0-.4,0l-.13.06-.09.06a.63.63,0,0,0-.17.14l-.1.11,0,0-.62-.23-.14,0,.2,0A7.17,7.17,0,0,1,10,9.34c.25,0,.49,0,.8.05a6.05,6.05,0,0,0,1,0,7.64,7.64,0,0,0,2-.35L14,9l.22-.08a4.68,4.68,0,0,0,.45-.2,8.76,8.76,0,0,0,.81-.41c.5-.28.94-.56,1.32-.8C17.57,7,18,6.63,18,6.63l-.38.2-1,.5-1.4.72-.8.37L14,8.6l-.23.08-.22.06a8.46,8.46,0,0,1-1.84.37c-.31,0-.61,0-.89,0a6.15,6.15,0,0,0-.86,0,6.31,6.31,0,0,0-1.2.28l-.22.09-.19-.06a1.7,1.7,0,0,1-.19-.35.82.82,0,0,1-.06-.19.06.06,0,0,1,0-.06l.24,0h.31c.2,0,.41,0,.61-.06l.3-.05.29-.07a.61.61,0,0,0,.28-.16.25.25,0,0,0,0-.25c0-.08-.05,0,.06-.08l.14-.06a.17.17,0,0,0,.1-.14s0-.06-.06-.14a.24.24,0,0,0-.1-.05h.06a1,1,0,0,0,.22-.1.1.1,0,0,0,0-.13.24.24,0,0,0-.06-.08c-.06-.08-.17-.21-.09-.2a2.25,2.25,0,0,0,.38-.19c.06,0,.13-.1.12-.18a.3.3,0,0,0-.1-.17l-.28-.25c-.19-.14,0-.34.08-.54s.25-.38.36-.58a1.1,1.1,0,0,0,.11-.56l.18.55A2.09,2.09,0,0,0,10,3.09h0L9.86,3a2.6,2.6,0,0,0-.42-.19L9.2,2.77a7.35,7.35,0,0,0-3.45-.34C4.63,2.57,2.34,3.65,2.44,5.5S4.36,7.13,4.83,7.76l0-.11a2.08,2.08,0,0,1,.58.87c.1.35-.23.67-.6,1a9.71,9.71,0,0,0-1,1.1c-.27.38-.53.76-.76,1.16a4.15,4.15,0,0,0-.29.6,1.2,1.2,0,0,0-.13.61.3.3,0,0,0-.26.09.8.8,0,0,0-.13.21,1.43,1.43,0,0,0-.09.41c0,.29,0,.55,0,.83a1.51,1.51,0,0,0,.28.86.84.84,0,0,0,.22.19.92.92,0,0,0,.3.14,1.16,1.16,0,0,0,.32.08l.33,0a.3.3,0,0,0,.13,0c.08.08.15.16.24.24s.28.23.43.33a1.84,1.84,0,0,1,.35.33,1.18,1.18,0,0,1,.13.18A.61.61,0,0,1,5,17a2.28,2.28,0,0,0-.37.66.9.9,0,0,0-.05.4c0,.13,0,.25.05.37a2,2,0,0,1,.06.67.83.83,0,0,1,0,.15l-.07.15c0,.11-.13.2-.2.34a.41.41,0,0,0,0,.29l.08.12.1.1a1.25,1.25,0,0,0,.55.24,2.18,2.18,0,0,0,.62,0l.54-.08a1.6,1.6,0,0,1,.44,0,3.11,3.11,0,0,1,.49.08,2.77,2.77,0,0,0,.59,0l.28,0,.16-.06,0,0a.39.39,0,0,0,.17,0l.08,0,0,0a.21.21,0,0,0,0-.06h.08a.3.3,0,0,0,.12,0,.07.07,0,0,0,0,0h0l0,0a.3.3,0,0,0,.16,0,.18.18,0,0,0,.08-.06.21.21,0,0,0,0-.07v0h0a.17.17,0,0,0,.17-.1.21.21,0,0,0,0-.24.18.18,0,0,0-.07-.05h0l.14,0h0l.11,0,.18,0a.7.7,0,0,0,.41-.08.21.21,0,0,0,.06-.36.66.66,0,0,0-.35-.18,5.65,5.65,0,0,0-.64-.07,5.07,5.07,0,0,1-.56,0,.92.92,0,0,1-.44-.17.38.38,0,0,1-.11-.37,2,2,0,0,1,.49-.74,3.47,3.47,0,0,0,.29-.38A1.66,1.66,0,0,0,9.08,17a.91.91,0,0,0,.05-.21,1,1,0,0,0,0-.24,1.65,1.65,0,0,0-.1-.44,3,3,0,0,0-.44-.81A5.08,5.08,0,0,0,8,14.65l.06-.07a1,1,0,0,0,.22-.73l0-.11h0v0h.27a10.39,10.39,0,0,0,1.12,0,10.09,10.09,0,0,0,1.1-.18,4.81,4.81,0,0,0,.54-.16l.47-.18,1.87-.71c.77-.13,1.56-.25,2.34-.34.4,0,.8-.07,1.19-.07h.92A1.05,1.05,0,0,0,18.4,12h0S18.4,12,18.39,12Z"/><path class="cls-3" d="M2.82,6.58a1.25,1.25,0,0,1,.51,1.1,2.7,2.7,0,0,1-.25.79l.58-.63.19.92.35-.88.13.79.39-.61L4.86,9v-1l.53.62A2.75,2.75,0,0,0,5,7.38a5.19,5.19,0,0,0-2.17-.8"/></svg>