<svg id="Capa_1" data-name="Capa 1" xmlns="http://www.w3.org/2000/svg" viewBox="0 0 32.4 29.03"><defs><style>.cls-1{fill:#f5a4c7;}.cls-2{fill:#fbc9b5;}.cls-3{fill:#231f20;}.cls-4{fill:#6d6f71;}</style></defs><title>3-5meses</title><path class="cls-1" d="M21.54,23.27,21.86,27s1,.51,1.39.27l.8-.46,3.53-1.71a4.86,4.86,0,0,0-.9-1.93,5.85,5.85,0,0,0-3.86-.57c-1.55.23-1.28.67-1.28.67"/><path class="cls-2" d="M13.33,17.89c0,.07.14,1,.19,1.19s.22.41-.1.56-.81.23-.67.39.56.28.58.33-.17.44.08.55a1.83,1.83,0,0,0,.34.13s.06.34.29.41,0,.15.11.33a.58.58,0,0,0,.49.34c.23,0,1.2-.05,1.2-.05s.35.3.38.55a1.21,1.21,0,0,1-.14.58l-.19.25a11.34,11.34,0,0,0-1.19.11c-.32.07-.44.19-.75.13s-.7-.21-1-.07-.43.55-.67.52-.1-.17-.41-.13-.76.4-.37.5.28,0,.28,0-.25.17-.18.28a.44.44,0,0,0,.25.17s.1-.68.7-.14.4.45.81.42.6-.3.76-.3.57.07,1,.08A10.84,10.84,0,0,0,16.55,25a2.37,2.37,0,0,1-.4.42,5.72,5.72,0,0,1-1.56.13c-.57,0-1.35,0-1.45-.3s-.49-.87-.94-.69-.25.42-.56.59-.89.15-.87.27,0,.47.23.55.2.11.31.27.17.4.36.46a7.48,7.48,0,0,0,1.26,0,7.23,7.23,0,0,0,1.53.22,13.53,13.53,0,0,0,2.92-.11,7,7,0,0,0,.92-.71,8.56,8.56,0,0,0,3.09.93c1-.12,1.72-.42,1.85-1.08a3.25,3.25,0,0,0-1-2.39c-.49-.29-.49-.26-.86-.25s-.92,0-1,0-1.74-.54-1.92-1.35A2.5,2.5,0,0,1,19,20.22a8.24,8.24,0,0,0-.5-2S16.8,16.7,15.84,16.7s-2.66.12-2.51,1.19"/><path class="cls-2" d="M23.83,24.71c-.32.3-.73.79-.46,1.25a2.88,2.88,0,0,0,1.14,1.37,3.64,3.64,0,0,0,2.53.2A8.5,8.5,0,0,0,29,26.47a12.29,12.29,0,0,1,1.41.82c.2.17.7.25.62,0s-.26-.31,0-.36.37-.4.33-.58.05-.39-.28-.54a1.87,1.87,0,0,0-.53-.18,3,3,0,0,0-.55-.48l-1-.45.6-.87s1.81.31,1.84.08-.31-.23-.37-.41a4.45,4.45,0,0,0-.53-.7,6.51,6.51,0,0,0-1.1-1.12.58.58,0,0,0-.64.19c-.22.3-.28.95-.75,1a1.63,1.63,0,0,0-.8.48l-.11.51.47.93-.25.3L27,25.2a6.15,6.15,0,0,0-.29-.57,1.55,1.55,0,0,0-.86-.56,3.33,3.33,0,0,0-2,.64"/><path class="cls-2" d="M4.54,11.46c1.82-.41,6.87.31,7.88.53s.65,1.08.65,1.43-1.73.75-2.15,1.18-.22,1-.4,1.4-1,.16-1.12.13S9,16,8.9,16.21s-.86.1-.86.1,0,.05,0,.17-.18.36-.42.34-.17,0-.34.23-.46.21-1.24-.19a3.46,3.46,0,0,1-1.26-1.42l-.34.1a.92.92,0,0,1,.15,1c-.24.45-1.34,1-1.34,1l-.54.34a22.66,22.66,0,0,1-2-2.4,20,20,0,0,1-.14-2.81l1.76,0Z"/><path class="cls-3" d="M10.43,22.28h0a4.44,4.44,0,0,1-1.06.25,6.9,6.9,0,0,1-1.12,0,10.73,10.73,0,0,1-1.13-.08c-.36-.05-.77-.1-1.11-.18a4.37,4.37,0,0,1-.52-.12A3.66,3.66,0,0,1,5,22a2.38,2.38,0,0,1-.79-.45A.64.64,0,0,1,4,21a1.28,1.28,0,0,1,.44-.63,3.72,3.72,0,0,1,.78-.54l.19-.11-.17-.11-.1-.09L5,19.36a1.17,1.17,0,0,1-.15-.27,1.69,1.69,0,0,1-.17-.58,4.18,4.18,0,0,1,0-.61c0-.17,0-.34,0-.5a4.72,4.72,0,0,0,.52,1.12,3.55,3.55,0,0,0,.46.58,1.84,1.84,0,0,0,.34.27l.22.11.27.08h.07a8.39,8.39,0,0,1,1.12,0,9.92,9.92,0,0,1,1.11.12,7.13,7.13,0,0,1,1.06.25,4.17,4.17,0,0,1,.93.42,2.17,2.17,0,0,1,.36.29,1,1,0,0,1,.2.35.78.78,0,0,1-.15.74,2.17,2.17,0,0,1-.78.54m.92-.49a.94.94,0,0,0,.18-.81,1.13,1.13,0,0,0-.19-.4,1.87,1.87,0,0,0-.35-.34,4.13,4.13,0,0,0-1-.52,5.69,5.69,0,0,0-1.11-.32,6.78,6.78,0,0,0-1.19-.14,9,9,0,0,0-1.16,0l-.14,0-.16-.07A2,2,0,0,1,6,19a3.5,3.5,0,0,1-.5-.52,11.2,11.2,0,0,1-.78-1.16l0-.05,0,.05c-.06.21-.12.41-.16.62a3.35,3.35,0,0,0,0,.63,2.08,2.08,0,0,0,.1.64,1.37,1.37,0,0,0,.13.31l.11.16,0,0a3.84,3.84,0,0,0-.75.48,1.66,1.66,0,0,0-.59.78.88.88,0,0,0,.29.89,2.61,2.61,0,0,0,1,.56l.57.17a5,5,0,0,0,.58.12c.4.08.76.11,1.17.16s.79.05,1.19,0a7.88,7.88,0,0,0,1.19-.13,4.39,4.39,0,0,0,1.1-.33A2.1,2.1,0,0,0,11.35,21.79Z"/><path class="cls-3" d="M7.59,16.3h0a.17.17,0,0,1,0,.12l0,0H7.41a.21.21,0,0,1,0-.08s0-.09-.05-.14v0l.28.13M4.35,14.23h0a.8.8,0,0,1,.39-.57l.38-.23-.55,0a.38.38,0,0,1-.19-.05.28.28,0,0,1-.12-.14.55.55,0,0,1,0-.19,10.37,10.37,0,0,0,1.59-.27,10.58,10.58,0,0,1,2.48-.16,20.64,20.64,0,0,1-2.71.34,13.61,13.61,0,0,0,5.08-.24c.67-.14,1.17-.25,1.51-.34a4.45,4.45,0,0,1,.2,1.35,3,3,0,0,1-.44.21,4.87,4.87,0,0,0-.47.18,1.75,1.75,0,0,0-.42.26,1.28,1.28,0,0,0-.44.7c-.06.24-.07.49-.12.72a.34.34,0,0,1-.18.25.61.61,0,0,1-.35,0,3.42,3.42,0,0,1-.87-.24l-.24-.1-.13.19-.14.16-.09.07h0l-.14,0-.29-.07a3.66,3.66,0,0,1-.53-.18c-.15-.07-.27-.15-.27-.22v0H6.85v0h0v0a.37.37,0,0,0,0,.15,2.69,2.69,0,0,0,.16.45,1.3,1.3,0,0,0,.1.15.3.3,0,0,0,.08.08.26.26,0,0,0,.17.06l.14,0a.18.18,0,0,0,.11-.07.23.23,0,0,0,0-.14l.19.07H7.9a.13.13,0,0,1,0,.06c0,.11,0,.25-.13.27H7.54a.54.54,0,0,0-.17,0,.31.31,0,0,0-.14.07l0,.07,0,.08v0a0,0,0,0,1,0,0h0L7,17a1.7,1.7,0,0,1-.84-.23,1.47,1.47,0,0,1-.31-.23c-.1-.11-.21-.21-.31-.31a4,4,0,0,1-1-1.27A1.29,1.29,0,0,1,4.35,14.23Zm3.12,2.7ZM4.5,17a1.26,1.26,0,0,0,.29-.32.46.46,0,0,0,.09-.2.35.35,0,0,0,0-.2.87.87,0,0,0,0-.19l-.08-.17a.75.75,0,0,0-.1-.17l-.07-.08s0-.05-.1-.06l.15-.1c0,.06.07.11.1.16.15.23.3.46.47.68l.24.33a1.28,1.28,0,0,0,.4.32A2.13,2.13,0,0,0,7,17.26a.93.93,0,0,0,.35-.08l.09-.07,0-.05v0a.58.58,0,0,0,0-.1h.06l.14,0,.15,0A.24.24,0,0,0,8,16.65a.45.45,0,0,0,0-.2H8l.15,0,.18,0,.1,0a.5.5,0,0,0,.22,0A.71.71,0,0,0,9,16.28l.05-.06.27.07a2.8,2.8,0,0,0,.59.08,1.1,1.1,0,0,0,.63-.16.5.5,0,0,0,.19-.41,2.55,2.55,0,0,1,0-.73.86.86,0,0,1,.47-.58,1.94,1.94,0,0,1,.42-.17c.14,0,.3-.07.48-.13l.13,0a1.27,1.27,0,0,0,1.49-.51,3.44,3.44,0,0,0-.61-4.84,5.59,5.59,0,0,0-4.38-.92,2.27,2.27,0,0,0-2-.51,8.5,8.5,0,0,0-4.1,2.87,4.9,4.9,0,0,0-1.17,2c-.48,0-1.15.14-.92.39H.45l.18.08h0a1.23,1.23,0,0,0,.69.21A3.19,3.19,0,0,0,2,13H2a12.25,12.25,0,0,0,1.74,0,.84.84,0,0,0,.07.26.57.57,0,0,0,.3.29.34.34,0,0,0,.14.05.51.51,0,0,0-.11.16.87.87,0,0,0-.07.41,1.82,1.82,0,0,0,.26.74,4.33,4.33,0,0,0,.31.51C3,16,3,16.59,3,16.59l1.44-1h0a1.06,1.06,0,0,1,0,.14c0,.06,0,.12,0,.17v.17a.85.85,0,0,1,0,.16c0,.06,0,.12,0,.15l-.08.12a.74.74,0,0,1-.12.13.53.53,0,0,1-.13.13l-.28.27-.32.26a3.26,3.26,0,0,1-.72.37,8.53,8.53,0,0,1-.59-.62c-.22-.22-.4-.45-.59-.67s-.2-.23-.29-.34l-.27-.35c-.09-.11-.19-.23-.27-.35L.56,15H.5a2,2,0,0,0,.05.42,3.17,3.17,0,0,0,.14.4,3,3,0,0,0,.47.76,6.46,6.46,0,0,0,.7.68,7.9,7.9,0,0,0,.85.58l.07,0,.06,0c.28-.15.54-.29.83-.42A4.15,4.15,0,0,0,4.5,17Z"/><path class="cls-3" d="M10,14.22a10.9,10.9,0,0,0-1.05-.33l.62.35s-.49.27-.08.4A.33.33,0,0,0,10,14.4l.11.13.09-.07s.07-.14-.16-.24"/><path class="cls-3" d="M11,13.47a1.07,1.07,0,0,1,.62.46s.83-1.27-3.68-.61a17.64,17.64,0,0,1,3.06.15"/><path class="cls-3" d="M14.24,19.26c-.12,0-.1.2-.06.13s.19-.06.19-.06-.18.37,0,.43.3-.21.3-.21l.08.17c0-.71-.52-.46-.52-.46"/><path class="cls-3" d="M14.65,18.7c-.29-.07-.92,0-.73.33a.93.93,0,0,1,.89,0,2.92,2.92,0,0,1,.84.61s-.71-.87-1-.94"/><path class="cls-3" d="M31.13,26.84h0v0h0a.37.37,0,0,1-.28,0,1.17,1.17,0,0,1-.33-.14l0,0a.8.8,0,0,0,.27.24.76.76,0,0,0,.18.06.29.29,0,0,1,0,.16.16.16,0,0,1-.07.09l-.06,0h-.07a.16.16,0,0,1-.09,0,.44.44,0,0,1-.11-.09.94.94,0,0,1-.16-.23l0,0-.06,0a9.24,9.24,0,0,1-1-.59l-.16-.11-.17.12a13.52,13.52,0,0,1-1.22.8,6.47,6.47,0,0,1-.7.33,2.64,2.64,0,0,1-.8.15,3.85,3.85,0,0,1-.83-.11,2.63,2.63,0,0,1-.73-.27,1.87,1.87,0,0,1-.85-.94,2,2,0,0,1-.19-.55.84.84,0,0,1,.05-.52,1.66,1.66,0,0,1,1-.77,3.84,3.84,0,0,1,.36-.14l.19-.06.17,0a1.74,1.74,0,0,1,.72,0,1.07,1.07,0,0,1,.55.36,1.47,1.47,0,0,1,.27.47H26.8a.9.9,0,0,0-.22.06,3.47,3.47,0,0,0-.76.32,4.29,4.29,0,0,0-.66.4l0,0,.78-.25c.25-.08.51-.15.77-.21l.18,0,.19,0h.41l.84,0h.2l.05-.11.06-.08.09-.08A.87.87,0,0,1,29,25a1.32,1.32,0,0,1,.28,0l.18,0,.16,0a1.75,1.75,0,0,1,1,.72l0,.05h.07a.68.68,0,0,1,.37.05h0l-.15,0h0L31,26a.45.45,0,0,1,.2,0l.06,0H31v.31h0l.05,0,0,0H31l-.14.27a.65.65,0,0,1,.25.11s0,0,0,0l0,0m-7.7.23h0a1,1,0,0,1-.24,0H23A2.12,2.12,0,0,1,22.5,27L22.3,27a.2.2,0,0,0-.08,0,2.13,2.13,0,0,0,.59-.27,1.11,1.11,0,0,0,.4-.47,1,1,0,0,0,.12.23,2.09,2.09,0,0,0,.44.56h0A2.33,2.33,0,0,1,23.43,27.07Zm-4.91-1h0l.11.08-.13-.05Zm-4.46-5h0l.24,0-.12.09a.18.18,0,0,1-.09,0H14A.16.16,0,0,1,14.06,21.11Zm4,5h0a1.31,1.31,0,0,1-.28.24,1.4,1.4,0,0,1-.37.17,2.58,2.58,0,0,1-.42.12,8.34,8.34,0,0,1-1.89.14c-.32,0-.66,0-1,0a3.25,3.25,0,0,1-.45-.06l-.21,0-.08,0s-.05,0,0,0l-.22-.07-.9.08-.22,0h-.19a.12.12,0,0,1-.08,0,.23.23,0,0,1-.08-.09l0,0-.05,0-.06,0h0v0a.2.2,0,0,0,0-.07.12.12,0,0,0-.08-.12l0,0h0c-.07,0-.14-.13-.16-.22v-.1l-.11,0h-.08L11,25.81a.29.29,0,0,1-.07-.16.41.41,0,0,1,0-.19.2.2,0,0,1,.12-.12c.15-.06.36-.06.56-.14a.54.54,0,0,0,.25-.16.41.41,0,0,0,.07-.17H12l.09.05a1,1,0,0,0,.25,0l.17,0a1.12,1.12,0,0,1,.22.16c.1.1.18.22.31.34a.77.77,0,0,0,.13.09l0,0h.05l.1,0,.32.06a11.66,11.66,0,0,0,1.18,0c.39,0,.77,0,1.16-.05h.08l.05,0a3.64,3.64,0,0,0,.73-.81,3.06,3.06,0,0,0,.4-.89h0a5.64,5.64,0,0,1-.6.81l-.11.12v0c0-.08-.06-.2-.1-.33a2.46,2.46,0,0,1-.13-1,2.27,2.27,0,0,1,.12-.5.56.56,0,0,0,0-.29.52.52,0,0,0-.11-.25,1,1,0,0,0-.26-.25,5.09,5.09,0,0,0,.65-.2,2.36,2.36,0,0,0,.48-.26l-.59.07c-.34,0-.79.11-1.22.15L15,22h-.25l-.12,0-.1,0-.17-.11a.8.8,0,0,1-.2-.23h.09l.13,0,.11,0a.47.47,0,0,0,.18-.13h-.46l-.19,0-.07,0-.05,0a.17.17,0,0,1-.06-.1.64.64,0,0,0,0-.07H14a.17.17,0,0,0,0,.1.08.08,0,0,0,.07.07h.1l.15-.05a1.75,1.75,0,0,0,.39-.3l.23-.22-.37.13a1.54,1.54,0,0,1-.82.07.48.48,0,0,1-.18-.06l0,0,0-.32v0h0a.18.18,0,0,0,0-.08l-.05-.06-.11-.08-.13-.07-.13-.05a.22.22,0,0,1-.08,0,0,0,0,0,1,0,0v0a1.85,1.85,0,0,0,.59-.35.65.65,0,0,0,.19-.58,1.57,1.57,0,0,0-.17-.53.84.84,0,0,1-.08-.3l.94-.79-.12.8.59-.71v.7L15.3,18l.6,1.25.12-.48.48,1.16v-.55s.18.65.39.77,0,.59,0,.59l.56-.65a.72.72,0,0,1,.53-.23.34.34,0,0,1,0,.67c-.47.12-.3.4-.72.41l.21.63.19-.54.13.41L18,21l.15.72.08-.17a.81.81,0,0,0,0,.51,1.13,1.13,0,0,0,.19.32,3.31,3.31,0,0,0,.26.27,3,3,0,0,0,1.51.75,4.16,4.16,0,0,0,.93.06l.45,0a1.1,1.1,0,0,1,.37,0,1.08,1.08,0,0,1,.51.38,2.14,2.14,0,0,1,.32.54,4.24,4.24,0,0,1,.29,1,1.14,1.14,0,0,0,0,.45s0,0,0,.05a.75.75,0,0,1,0,.21,1,1,0,0,1-.37.5,2,2,0,0,1-.58.28l0,0h-.15l-.22,0h-.45l-.22,0a3.4,3.4,0,0,1-.46-.08l-.23-.05a1.8,1.8,0,0,1-.22-.06c-.45-.12-.88-.27-1.32-.43L18.55,26a1.22,1.22,0,0,0,.07-.17c.1-.22.2-.44.28-.67a3.31,3.31,0,0,0,.17-.69H19a5.07,5.07,0,0,1-.34.65c-.12.21-.25.42-.38.63l0,.05h0l0,0,0,0Zm-6.76.26Zm.22-1.92h0s0,0,0-.05,0,0,0,0l.1-.08.51-.23a1.54,1.54,0,0,0-.23.29l-.06.15-.06,0A.3.3,0,0,1,11.55,24.42Zm.75.16h0S12.28,24.57,12.3,24.58Zm3.57.76h0c-.7,0-1.41,0-2.08,0h0a1,1,0,0,0,.41-.19,2.9,2.9,0,0,0,.41.06,3.88,3.88,0,0,0,.59,0,3.15,3.15,0,0,0,1-.21Zm-3.46-.92h0a1.34,1.34,0,0,1,.14-.26l.1-.12.06-.07,0,0a.92.92,0,0,1,.32-.18,1.6,1.6,0,0,1,.44,0,.64.64,0,0,1,.2,0s.11.07.08.06l.25,0,.17,0,.23,0,.47-.06c.27,0,.54-.09.82-.16a1,1,0,0,0,.08.49,1.93,1.93,0,0,0,.27.47l.29.29.05,0-.14.15-.52,0-.54,0-.53-.05-.26,0-.25,0-.25,0,0,.13a.47.47,0,0,1-.23.24l-.3.14-.07,0c-.11-.08-.22-.19-.35-.3l-.2-.14a.45.45,0,0,0,.13-.1l0-.05.22,0a.54.54,0,0,0,.36-.18l0,0a.58.58,0,0,1-.31,0L13,24.46s0,0,0,0l0,0-.06-.23-.27.28-.1.08-.12.05h0v0A.93.93,0,0,1,12.41,24.42Zm6-3.32h0v.08l-.1.12Zm3.31,2h0a1,1,0,0,1,.3-.15c.09,0,.15,0,.23-.05l.27,0c.19,0,.41-.05.64-.09s.47-.08.72-.1a3.55,3.55,0,0,1,.8,0,3.43,3.43,0,0,1,.79.13,3.16,3.16,0,0,1,.64.27,2.71,2.71,0,0,1,.51.38,2.35,2.35,0,0,1,.59.79,2.49,2.49,0,0,1,.18.65.76.76,0,0,1,0,.19h-.15l-.23,0-.1,0a1.1,1.1,0,0,0-.74-1,2,2,0,0,0-1-.11L25,24l-.22.06-.41.13a2.94,2.94,0,0,0-.77.39,1.37,1.37,0,0,0-.37.39,5.16,5.16,0,0,0-.2-.67,2.56,2.56,0,0,0-.32-.58,1.28,1.28,0,0,0-.66-.48,1.33,1.33,0,0,0-.39,0A.2.2,0,0,1,21.72,23.08Zm5.67.17h0a1.44,1.44,0,0,1,.43-.21,2,2,0,0,0,.53-.26,1.52,1.52,0,0,0,.38-.38A2.82,2.82,0,0,1,29,22L29,22l0,0a.49.49,0,0,1,.14,0,.9.9,0,0,1,.69.35c.08.1.15.23.26.36a2,2,0,0,0,.41.34,1.32,1.32,0,0,1,.4.26.45.45,0,0,1,.07.18.34.34,0,0,0,.17.22c.06,0,.08,0,.07,0s0,0,0,.06l0,.09s-.05.07-.07.05a1.26,1.26,0,0,1-.43,0l-1.07-.23-.23-.06-.07.15c-.08.19-.18.38-.28.58l-.2.34a1.21,1.21,0,0,0-.44.15.76.76,0,0,0-.17.13.12.12,0,0,0-.05,0c-.23,0-.45,0-.68,0a1.13,1.13,0,0,0,.07-.18,1.07,1.07,0,0,0,.08-.31,1.43,1.43,0,0,0,0-.41,2.17,2.17,0,0,0-.07-.24,1.3,1.3,0,0,0,.32.14l.22.05a.22.22,0,0,0,0-.17.47.47,0,0,0-.23-.28,1,1,0,0,0-.42-.13h-.14a1.13,1.13,0,0,1-.1-.13A.47.47,0,0,1,27.39,23.25Zm3.87,2.85h0s0,0,0,0Zm.33.07a.19.19,0,0,0,0-.13s-.06-.07-.07-.07l-.07,0-.16-.07h0a.06.06,0,0,0,0-.07l-.06,0-.06,0a.85.85,0,0,0-.23,0h-.18a2.16,2.16,0,0,0-.34-.47,1.75,1.75,0,0,0-.6-.43l-.21-.07-.21,0-.26,0,.22-.22a3.28,3.28,0,0,0,.33-.43,4.36,4.36,0,0,0,1,.16,1.19,1.19,0,0,0,.69-.14c.08-.06,0-.05.09-.12s0-.07,0-.11a.17.17,0,0,0,0-.13.22.22,0,0,0-.15-.09c-.13,0-.09-.2-.18-.34a1.72,1.72,0,0,0-.38-.34,1,1,0,0,1-.27-.32c-.06-.11-.09-.25-.17-.39a1.22,1.22,0,0,0-.4-.38,1.31,1.31,0,0,0-.69-.2,1,1,0,0,0-.42.07.52.52,0,0,0-.19.11c-.07,0,0,0-.11.11a3.31,3.31,0,0,0-.22.39,1,1,0,0,1-.24.31,1.94,1.94,0,0,1-.38.26,1.61,1.61,0,0,0-.43.32.61.61,0,0,0-.07.1l-.1-.09a3.12,3.12,0,0,0-.64-.39,2.66,2.66,0,0,0-.85-.22c-.29,0-.57,0-.85-.05l-.82,0a5,5,0,0,0-.77,0,4.57,4.57,0,0,0-.69.1l-.3.07a1.86,1.86,0,0,0-.27.11.85.85,0,0,0-.31.27.28.28,0,0,0,0,.19h-.4a4.18,4.18,0,0,1-.81-.09,2.32,2.32,0,0,1-1.23-.68,2.19,2.19,0,0,1-.21-.23,1,1,0,0,1-.13-.24.56.56,0,0,1,.08-.48h0c.7-.41,2.08-1.35,2.19-2.37a2.59,2.59,0,0,0-1.73-2.63,8.33,8.33,0,0,0-4.33-.3c-1.45.3-2.51,1.51-2,2.59l.18-.15s0,0,0,.08a1.76,1.76,0,0,1,.15.46.42.42,0,0,1-.1.4,1.46,1.46,0,0,1-.48.29l0,0,0,0-.06.06,0,.07a.22.22,0,0,0,0,.16.47.47,0,0,0,.29.21l.1,0,.08,0s.06,0,.07,0l0,0h0v.32h0v0h0s.07.08.08.09a.75.75,0,0,0,.13.06l.26.07h.1a.12.12,0,0,0-.05.05.21.21,0,0,0,0,.22.46.46,0,0,0,.12.12l.17.07h.16a.43.43,0,0,0,0,.32.6.6,0,0,0,.17.2l.14.09.17.07a1.78,1.78,0,0,0,.43.05l.38,0,.47-.08a1,1,0,0,1,.11.28.61.61,0,0,1,0,.19.56.56,0,0,1-.09.2,1.74,1.74,0,0,0-.19.57,4.24,4.24,0,0,0-.87-.05,3.19,3.19,0,0,0-.52.06,1.21,1.21,0,0,0-.25.08.61.61,0,0,0-.17.07l-.14,0a1.13,1.13,0,0,0-.26,0l-.48,0a1.53,1.53,0,0,0-.5.14l-.11.05-.09.06a.18.18,0,0,0-.07.05,1.75,1.75,0,0,0-.4.05,1.18,1.18,0,0,0-.42.16.33.33,0,0,0-.13.19.15.15,0,0,0,0,.1.27.27,0,0,0,.1.08.43.43,0,0,0,.19,0,.49.49,0,0,0-.14.11.18.18,0,0,0,0,.1s0,.08,0,.1a.87.87,0,0,0,.14.12h0a.42.42,0,0,0,0-.16s0,0,0,0a.08.08,0,0,1,0,0l.13-.1a.26.26,0,0,0,0,.11l-.08,0-.06,0v.05a.25.25,0,0,1-.05.16.29.29,0,0,1-.17.13c-.15.06-.35.07-.56.13a.35.35,0,0,0-.21.2.55.55,0,0,0,0,.22.46.46,0,0,0,.1.23A.38.38,0,0,0,11,26a.17.17,0,0,0,.1,0,.31.31,0,0,0,0,.13.39.39,0,0,0,.18.18l0,.05a.17.17,0,0,0,.07.17l.08.05a.33.33,0,0,0,.1.14.64.64,0,0,0,.3.13h.49l.8,0,.05,0,.14.05a1.29,1.29,0,0,0,.26.08,5.24,5.24,0,0,0,.53.08c.35,0,.68.06,1,.07s.69,0,1,0a7.27,7.27,0,0,0,1-.17,3.53,3.53,0,0,0,.49-.17,2.19,2.19,0,0,0,.43-.24,1.41,1.41,0,0,0,.33-.31l0-.06a4.19,4.19,0,0,0,.58.39,5.35,5.35,0,0,0,.87.4,4.52,4.52,0,0,0,1,.24,1.23,1.23,0,0,0,.27,0h.28l.28,0,.16,0h0l.13.05a1.37,1.37,0,0,0,.29.07,1.67,1.67,0,0,0,.59,0,1.79,1.79,0,0,0,.53-.13,2.55,2.55,0,0,0,.33-.17,2.26,2.26,0,0,0,.62.39,4.65,4.65,0,0,0,.83.24,6.4,6.4,0,0,0,.88.1,4.46,4.46,0,0,0,1.7-.39,5.53,5.53,0,0,0,1.22-.69,5.47,5.47,0,0,0,.94.46,1.21,1.21,0,0,0,.23.22l.18.12a.59.59,0,0,0,.31,0l.12-.05a.33.33,0,0,0,.1-.06.27.27,0,0,0,.07-.17.24.24,0,0,0,0-.15.82.82,0,0,0,.22,0l.06,0h.06a.48.48,0,0,0,.11-.08.16.16,0,0,0,.05-.14.22.22,0,0,0-.05-.11.27.27,0,0,0,.08-.07.17.17,0,0,0,0-.2l0-.06,0-.06h0l0,0A.22.22,0,0,0,31.59,26.17Z"/><path class="cls-4" d="M5.49,20.46H5.9v1c0,.41-.29.47-.58.47a.62.62,0,0,1-.21,0l0-.23h.13c.12,0,.21,0,.21-.21Z"/><path class="cls-4" d="M6.59,20.46v.92c0,.21.09.27.19.27s.2,0,.2-.27v-.92h.4v.87c0,.37-.2.56-.59.56s-.61-.2-.61-.56v-.87Z"/><path class="cls-4" d="M8.34,21.34h0L8.27,21a2.61,2.61,0,0,1-.06-.32h0c0,.1-.06.24-.08.33l-.07.29ZM8,21.55l-.09.33H7.53L8,20.46h.48l.41,1.42H8.47l-.09-.33Z"/><path class="cls-4" d="M9.05,21.88V20.46h.37l.32.56c.06.1.16.29.22.41h0c0-.15,0-.4,0-.66v-.31h.35v1.42H9.91l-.31-.54a2.44,2.44,0,0,1-.21-.43h0c0,.15,0,.36,0,.65v.32Z"/><path class="cls-3" d="M16.32,3.15h.16c.38,0,.63-.19.63-.47s-.16-.45-.59-.45h-.2Zm-.4-1.09A3.36,3.36,0,0,1,16.49,2a1.41,1.41,0,0,1,.78.17.54.54,0,0,1,.24.47c0,.3-.21.49-.55.6h0c.25.05.39.22.46.53a2.26,2.26,0,0,0,.2.6h-.4A2.32,2.32,0,0,1,17,3.8a.48.48,0,0,0-.56-.44h-.15v1h-.4Z"/><path class="cls-3" d="M19,3.36h0c0-.34-.18-.49-.37-.49s-.39.26-.4.49Zm-.78.21c0,.51.3.63.59.63a1.12,1.12,0,0,0,.41-.07l.06.2a1.75,1.75,0,0,1-.54.08.79.79,0,0,1-.9-.85.81.81,0,0,1,.83-.9.68.68,0,0,1,.71.75.76.76,0,0,1,0,.16Z"/><path class="cls-3" d="M21.05,4.35a1.37,1.37,0,0,1-.41.06.82.82,0,0,1-.91-.86.89.89,0,0,1,1-.88,1.08,1.08,0,0,1,.35.05L21,2.94a.77.77,0,0,0-.28,0,.59.59,0,0,0-.57.66.56.56,0,0,0,.58.64A.88.88,0,0,0,21,4.14Z"/><path class="cls-3" d="M21.64,3.54h0c0,.28.07.66.43.66s.41-.4.41-.66-.07-.66-.42-.66-.42.4-.42.66m1.24,0a.8.8,0,0,1-.83.88.78.78,0,0,1-.8-.88.8.8,0,0,1,.83-.88A.78.78,0,0,1,22.88,3.54Z"/><path class="cls-3" d="M23.31,3.13c0-.2,0-.3,0-.44h.35l0,.2h0a.72.72,0,0,1,.57-.23.54.54,0,0,1,.59.59V4.39h-.39V3.29c0-.19-.06-.4-.34-.4a.39.39,0,0,0-.38.28.66.66,0,0,0,0,.15V4.39h-.4Z"/><path class="cls-3" d="M25.67,3.54h0c0,.28.07.66.43.66s.41-.4.41-.66-.07-.66-.42-.66-.42.4-.42.66m1.24,0a.8.8,0,0,1-.83.88.78.78,0,0,1-.8-.88.8.8,0,0,1,.83-.88A.78.78,0,0,1,26.91,3.54Z"/><path class="cls-3" d="M28.55,4.35a1.24,1.24,0,0,1-.4.06.81.81,0,0,1-.91-.86.89.89,0,0,1,1-.88,1,1,0,0,1,.34.05l-.07.22a.82.82,0,0,0-.28,0,.59.59,0,0,0-.58.66.57.57,0,0,0,.59.64.87.87,0,0,0,.28-.05Z"/><path class="cls-3" d="M29.92,3.36h0c0-.34-.18-.49-.37-.49s-.39.26-.41.49Zm-.78.21c0,.51.3.63.59.63a1.06,1.06,0,0,0,.4-.07l.07.2a1.77,1.77,0,0,1-.55.08.8.8,0,0,1-.9-.85.82.82,0,0,1,.84-.9.68.68,0,0,1,.7.75v.16Z"/><path class="cls-3" d="M14,7.27a1,1,0,0,0,.4.08c.23,0,.37-.09.37-.24s-.07-.22-.32-.34-.5-.28-.5-.48.3-.47.68-.47a1.18,1.18,0,0,1,.45.09l-.11.2A.81.81,0,0,0,14.67,6c-.21,0-.32.1-.32.21s.06.18.31.3.51.28.51.51-.34.51-.74.51a1.09,1.09,0,0,1-.49-.1Z"/><path class="cls-3" d="M17.06,7.08c0,.19,0,.34,0,.47h-.34l0-.18h0a.78.78,0,0,1-.54.21c-.43,0-.6-.24-.6-.66V5.85H16v1c0,.27.06.47.33.47a.35.35,0,0,0,.36-.23.68.68,0,0,0,0-.15V5.85h.39Z"/><path class="cls-3" d="M18.42,6.29c0-.2,0-.3,0-.44h.34l0,.2h0a.71.71,0,0,1,.57-.23.54.54,0,0,1,.6.59V7.55h-.4V6.45c0-.2-.05-.4-.34-.4a.37.37,0,0,0-.37.28.61.61,0,0,0,0,.15V7.55h-.39Z"/><path class="cls-3" d="M20.78,6.7h0c0,.28.07.66.43.66s.4-.4.4-.66S21.55,6,21.2,6s-.42.4-.42.66M22,6.7a.8.8,0,0,1-.82.88.78.78,0,0,1-.81-.88.8.8,0,0,1,.83-.88A.78.78,0,0,1,22,6.7Z"/><path class="cls-3" d="M22.45,6.29c0-.2,0-.3,0-.44h.34l0,.21h0a.69.69,0,0,1,.56-.24.54.54,0,0,1,.52.26h0a.72.72,0,0,1,.24-.19.78.78,0,0,1,.35-.07.54.54,0,0,1,.59.6V7.55h-.39V6.48c0-.22,0-.43-.35-.43A.38.38,0,0,0,24,6.3a.81.81,0,0,0,0,.16V7.55h-.39V6.43c0-.19-.05-.38-.35-.38a.37.37,0,0,0-.37.27.76.76,0,0,0,0,.15V7.55h-.39Z"/><path class="cls-3" d="M26,7h0a.16.16,0,0,0,0,.1.38.38,0,0,0,.37.3c.31,0,.43-.29.43-.66s-.12-.64-.44-.64a.41.41,0,0,0-.37.3.49.49,0,0,0,0,.12Zm-.41.6c0-.1,0-.29,0-.41v-2H26v.93h0a.61.61,0,0,1,.52-.23c.39,0,.68.31.68.86s-.37.9-.75.9A.53.53,0,0,1,26,7.33h0l0,.22Z"/><path class="cls-3" d="M27.66,6.29c0-.15,0-.32,0-.44H28l0,.27h0a.58.58,0,0,1,.52-.3h.09V6.1h-.09a.46.46,0,0,0-.47.35.78.78,0,0,0,0,.16v.94h-.39Z"/><path class="cls-3" d="M29.92,6.52h0c0-.34-.18-.49-.37-.49s-.39.26-.41.49Zm-.78.2c0,.52.3.63.59.63a1.15,1.15,0,0,0,.41-.06l.06.2a1.77,1.77,0,0,1-.55.08.8.8,0,0,1-.9-.85.82.82,0,0,1,.84-.9.68.68,0,0,1,.7.75v.15Z"/><path class="cls-3" d="M20.64,19.64a3.58,3.58,0,0,0-.54,1.5,1.2,1.2,0,0,0,.27.89l-.62-.63v.48l-.35-.57v.84l-.6-.69.08.42-.4-.29s-.53.15-.28-.52,2.44-1.43,2.44-1.43"/></svg>