<svg id="Capa_1" data-name="Capa 1" xmlns="http://www.w3.org/2000/svg" viewBox="0 0 31.71 26.01"><defs><style>.cls-1{fill:#fbc3b2;}.cls-2{fill:#f5a4c7;}.cls-3{fill:#fbc9b5;}.cls-4{fill:#231f20;}</style></defs><title>6-5meses</title><path class="cls-1" d="M17.63,19.14s1.2-1.09,1.74-1.11a3.31,3.31,0,0,1,1.86.56c.22.29-1.43.92-1.43.92Z"/><path class="cls-2" d="M18.3,22.48s-.5.34,0,1a1.26,1.26,0,0,0,1.44.61l.92-.08Z"/><path class="cls-2" d="M19,19.33a7,7,0,0,1,2.43-1,9.16,9.16,0,0,1,5.14,1.48,3.07,3.07,0,0,1,.75,1.14,2,2,0,0,1-.77,1.68,5,5,0,0,1-1.56.69Z"/><path class="cls-3" d="M20.81,18.42a4.53,4.53,0,0,1-.55-1.61c0-.61.32-2.16,2.75-1.95s4.42.89,4.69.6a2.05,2.05,0,0,0,.37-1.08,10.91,10.91,0,0,0-.17-1.15s.58-.32.78-.15l.46.4s.15-.2.23,0a.67.67,0,0,1,.06.27s.13-.17.24-.05.22.42.28.46.47-.11.49,0-.05.26-.05.26.15-.14.12,0-.16.5,0,.74-.08.5-.19.8-.2,1.34-.52,1.52a1.21,1.21,0,0,1-1.09.2,4.08,4.08,0,0,0-1.52-.25,3.4,3.4,0,0,1-1.54.38c-1.06,0-.46.12-.46.12s.81.69.95.85A12.63,12.63,0,0,1,26.82,20s-1.5-.83-2.11-1.08S22,18,20.81,18.42"/><path class="cls-3" d="M10.24,18a3.28,3.28,0,0,1-1.9-.21,6.45,6.45,0,0,0-2.86-.43c-.66.06-3.37,3.26-2.43,4.09A13.11,13.11,0,0,0,5.8,23.29c.32.12,1.47,1.19,2.64.94s2.41-.81,3.18-.7.85.52.85.52a4.26,4.26,0,0,0,2.34.53c1.28-.12,4.24-.46,4.24-.46a1.71,1.71,0,0,1-.82-.86c-.16-.54,0-.8.07-.78s1.25,1,1.58,1.17a2.64,2.64,0,0,0,1.58.51c.9,0,3.29-.4,3.9-1.17a1.25,1.25,0,0,0,.16-1.65,2.16,2.16,0,0,0-1.55-1c-.91-.18-3.79-.46-4.35-1s-.71-1.33-.95-1.62a1.84,1.84,0,0,0-1.21-.64c-.57-.08-1.91-.62-2-1.08s-.18-.78-.5-.8-1.12.25-1.67.28a11.79,11.79,0,0,0-2.4.34c-.22.14-.23.28.22.34a9,9,0,0,1,1.6.18c.3.14,1.88,1.37,2,1.89s.12.58.48.78l.11.45-.7,0a9.35,9.35,0,0,0-1.39-1.38,1.17,1.17,0,0,1-.63-.8,2.31,2.31,0,0,0-.29-.58s1,.32.69,0-.52-.75-.71-.75a6.14,6.14,0,0,1-2-.2c-.27-.22-.31,0-.33.19a.63.63,0,0,1-.1.26s-.49-.12-.48.1.29.4,0,.46-.36,0-.4.24.34.39.39.51.75.47.75.47"/><path class="cls-4" d="M11.16,19.33s0,.34.15.36.21-.31-.15-.36"/><path class="cls-4" d="M9.66,19.2c0,.22-.37.07-.37.07s.62.42.49-.26c0,0-.15,0-.12.19"/><path class="cls-4" d="M6.47,19.67a1.69,1.69,0,0,0,.13,1.54s0-1.69.75-2.12c0,0-.51-.21-.88.58"/><path class="cls-4" d="M10.29,19.54c-.37.44-.34.57-.34.57s1.47-.34.56-1.24c0,0,.14.23-.22.67"/><path class="cls-4" d="M8,18.52s1.07,0,.35-.51c0,0,.17.33-.35.51"/><path class="cls-4" d="M7.69,19.46a1.49,1.49,0,0,1-.54,1.14,1.66,1.66,0,0,0,.74-.48s.61-.44-.2-.66"/><path class="cls-4" d="M30.39,15.52h0a2.29,2.29,0,0,0-.17.23,4.24,4.24,0,0,0-.44,1,1.45,1.45,0,0,0-.08.54c0,.09-.13.18-.31.23a1.39,1.39,0,0,1-.61,0,1.73,1.73,0,0,1-.31-.07.94.94,0,0,1-.15-.06l-.07,0,0,0-.05,0h0L28,17.29l-.26,0a2.81,2.81,0,0,0-.43,0,7.59,7.59,0,0,0-.75.16,11.31,11.31,0,0,1-1.41.27,4.22,4.22,0,0,1-.71,0c-.13,0-.24,0-.36,0a2,2,0,0,1-.35-.07l-.34-.08L23,17.43c-.22-.07-.42-.18-.63-.27l0,0a6.33,6.33,0,0,0,.58.34l.32.14.35.12c.12,0,.24.06.37.09a2.47,2.47,0,0,0,.38.05,5.21,5.21,0,0,0,.79,0h0a1.49,1.49,0,0,1,.3.29,3.54,3.54,0,0,1,.26.35L26,19c.14.21.27.43.4.61a5.12,5.12,0,0,0-.57-.3c-.38-.18-.78-.33-1.17-.48s-.78-.28-1.18-.4a5.9,5.9,0,0,0-.6-.17,5.58,5.58,0,0,0-.59-.1,4.91,4.91,0,0,0-1.16,0l-.42.1A7.73,7.73,0,0,1,20.4,17a1.89,1.89,0,0,1,0-.67.77.77,0,0,1,.14-.29c.08-.1.15-.2.23-.29a1.85,1.85,0,0,1,.62-.47,3.14,3.14,0,0,1,.84-.22,7.49,7.49,0,0,1,.95,0c.32,0,.64.05,1,.1l1,.16,1,.2a6.43,6.43,0,0,0,1.05.16,1.54,1.54,0,0,0,.63-.1.89.89,0,0,0,.41-.34,1.59,1.59,0,0,0,.16-.36,2.37,2.37,0,0,0,.09-.36,1.55,1.55,0,0,0-.05-.74,2.21,2.21,0,0,0-.16-.35l-.05-.08h0l.07,0a.72.72,0,0,1,.35,0,.31.31,0,0,1,.22.16v.22h0c0,.05,0,.08.11.09a.15.15,0,0,0,.17-.07.81.81,0,0,1,.1-.21h0a1,1,0,0,1,.09.21.57.57,0,0,1,0,.22h0s0,.06.09.07a.12.12,0,0,0,.11-.06.38.38,0,0,1,.07-.18s0,0,0,0,0,0,0,0a.18.18,0,0,1,.08.07.59.59,0,0,1,.13.19.16.16,0,0,1,0,.09.11.11,0,0,1,0,0v0l.1.08a1.69,1.69,0,0,1,.36-.06h0s0,0,0,0a.24.24,0,0,1-.06.11,0,0,0,0,0,0,0,.1.1,0,0,0,.11,0,.48.48,0,0,1,.16,0s0,0,0,0a.11.11,0,0,1,0,.07l-.08.15-.08.16a0,0,0,0,0,0,0h0a.93.93,0,0,1,.13.47.42.42,0,0,1-.08.22M27,20.65h0a1,1,0,0,1,.07.2,1.42,1.42,0,0,1,0,.74,2,2,0,0,1-.37.64,4.34,4.34,0,0,1-1,.81l-.22.12a1.42,1.42,0,0,0,.55-.83,1.35,1.35,0,0,0-.29-1.11,2.78,2.78,0,0,0-1.16-.81,12.48,12.48,0,0,0-3.06-.68l-.76-.1-.74-.14a.47.47,0,0,1-.37-.29l0-.1a3.06,3.06,0,0,1,.33-.2,4,4,0,0,1,1.4-.42,4.8,4.8,0,0,1,1,0l.57.05c.2,0,.39,0,.59.08a6.16,6.16,0,0,1,2.27.86,6.78,6.78,0,0,1,.88.67,2.6,2.6,0,0,1,.32.35A1.62,1.62,0,0,1,27,20.65ZM19.21,18.3h0l.05,0a2.22,2.22,0,0,1,.63-.09,2.54,2.54,0,0,1,.66.08l.12,0a3.23,3.23,0,0,0-1,.49,2.24,2.24,0,0,0-.22.22l-.12-.32Zm8.92-5h0S28.12,13.3,28.13,13.3ZM15.19,15.43ZM13,15.79Zm-.41,0Zm-1,.7Zm.3-.05h.06l.22,0h.2a.62.62,0,0,1,.24.08,2,2,0,0,1,.11.2.61.61,0,0,1,0,.11v0h0l-.07,0a2.14,2.14,0,0,0-.3-.17l-.29.2a.05.05,0,0,1,0,0h0a1.83,1.83,0,0,1,.58.51.24.24,0,0,1,0,.12v.06a.45.45,0,0,1,0,.08.36.36,0,0,0,0,.11.37.37,0,0,0,0,.11.46.46,0,0,0,.06.16.34.34,0,0,0,.22.12,6.4,6.4,0,0,1,.67.43,3.78,3.78,0,0,1,.58.54,1.48,1.48,0,0,1,.22.29,2.29,2.29,0,0,1,.16.31,2.62,2.62,0,0,1,.09.33c0,.12.06.24.1.36a2.14,2.14,0,0,0,.16.35.75.75,0,0,0,.13.18l.12.14a3.33,3.33,0,0,1,.35.64A3.64,3.64,0,0,1,15.77,23a2.82,2.82,0,0,0,.09-.71,2.43,2.43,0,0,0-.09-.71,2.48,2.48,0,0,0-.29-.7,1,1,0,0,0-.12-.17,1,1,0,0,1-.08-.14,2.55,2.55,0,0,1-.11-.33c0-.11-.05-.22-.07-.33a2.74,2.74,0,0,0-.08-.37,2,2,0,0,0-.4-.69,3.67,3.67,0,0,0-.64-.6,5.19,5.19,0,0,0-.8-.5h0a.08.08,0,0,1,0-.07v-.07a.36.36,0,0,1,0-.1.53.53,0,0,0,0-.13.6.6,0,0,0-.09-.22,1.54,1.54,0,0,0-.17-.19l.08,0,0,0a12.63,12.63,0,0,1,1.08,1,2.26,2.26,0,0,1,.26.29.8.8,0,0,1,.09.14.3.3,0,0,1,0,.15.72.72,0,0,0,.19.39,1,1,0,0,0,.18.17l.17.1a4.32,4.32,0,0,0,.81,1.44,10.74,10.74,0,0,0,1.31,1.3c.32.27.66.53,1,.78a.58.58,0,0,0-.16.27.73.73,0,0,0,0,.3,1,1,0,0,0,.1.36,1.18,1.18,0,0,0,.28.31,1.16,1.16,0,0,0,.38.2l.15,0-2.51.28a9.9,9.9,0,0,1-2,.2,3.19,3.19,0,0,1-.91-.27c-.15-.07-.33-.12-.45-.17a2.39,2.39,0,0,1-.34-.21,1.8,1.8,0,0,1-.2-.19,1.24,1.24,0,0,1-.24-.37,1,1,0,0,1-.07-.39,1.25,1.25,0,0,1,0-.19.69.69,0,0,1,.07-.2l.09-.21a.9.9,0,0,0,.08-.23,2.48,2.48,0,0,0,0-.9,5.19,5.19,0,0,0-.19-.87,9.14,9.14,0,0,0-.7-1.69l0,0h0l-.63-.31a6,6,0,0,1-.62-.32,3.34,3.34,0,0,1-.53-.37,2.18,2.18,0,0,1-.38-.44h0A.32.32,0,0,1,9.19,17s0,0,.07-.05a1.68,1.68,0,0,1,.47-.06H9.8a.27.27,0,0,0,0,.14.31.31,0,0,0,.07.24.69.69,0,0,0,.27.2h.05a.62.62,0,0,0,.13-.24.3.3,0,0,0,0-.1s0-.07,0-.1l0-.11s0-.08-.06-.12,0-.09,0-.12.08-.05.14-.05h.14l.08,0a1.12,1.12,0,0,0-.05.13.33.33,0,0,0,.07.24.67.67,0,0,0,.25.19h0A.61.61,0,0,0,11,17a.3.3,0,0,0,0-.1.33.33,0,0,0,0-.1,1,1,0,0,1,0-.1s0-.07-.05-.11,0-.08,0-.11h.46l0,.09ZM20.26,24h0l-1.17.12-.19-.18a2.15,2.15,0,0,1-.19-.22.54.54,0,0,1-.09-.12s-.05-.09-.08-.14-.18-.38-.25-.54a2,2,0,0,0-.12-.25l.53.37Q19.45,23.5,20.26,24Zm-9.59-.42h-.51a5.44,5.44,0,0,0-.85.2s0,0,0,0a.45.45,0,0,0,0-.38,1.88,1.88,0,0,0-.18-.24L9.62,23a1.63,1.63,0,0,0,.53-.25,1.48,1.48,0,0,0,.59-.77l-.05,0c-.32.19-.58.39-.86.57s-.26.19-.39.29a1.64,1.64,0,0,1-.22.14A1.17,1.17,0,0,1,9,23l-.08,0,0,.05a.36.36,0,0,1,0,.52l-.11.08-.14.06-.07,0-.11,0-.19,0-.36,0H7.81l-.13,0a.28.28,0,0,1-.16-.16.76.76,0,0,1,0-.3h0a.53.53,0,0,1,.29-.28c.23-.07.62-.55.62-.55l-1.13.34.82-.6a4,4,0,0,1-.7.3A1.34,1.34,0,0,1,5.87,22a2.3,2.3,0,0,0-1.11-.81c.84.1,1,.23,1,.23-.24-.87-1.94-.69-1.94-.69l1.67-.33-1.1-.18,1.12-.31-1.32-.15L6,18.87H4.88l1.56-.22-1.25,0L7,18.27l-.78-.21L7.06,18l-1-.37,1.64.05-.33-.18.54.16a.44.44,0,0,0-.46.25c-.26.53-.2.63.1.8a2.36,2.36,0,0,0,1.42.08c.34-.12,1-.2,1,0,0,0-.21-.44-.51-.28s-2.28.3-2-.33a.69.69,0,0,1,.91-.36l-.06,0,.4.13.07,0,.08,0,.16,0c.11,0,.22,0,.33,0s.44,0,.65,0h0l.09.07.58.35.53.33c.18.55.36,1.1.5,1.65A6.18,6.18,0,0,1,12,22.11a1.29,1.29,0,0,1,0,.19l0,.1,0,.11a1.06,1.06,0,0,0-.08.47,1.33,1.33,0,0,0,.13.46l0,.06-.16-.06A2.28,2.28,0,0,0,10.67,23.53ZM10,16.69h0l-.1.09-.07-.07a.43.43,0,0,1-.09-.1,1,1,0,0,1,0-.12V16.4l0,0A2,2,0,0,1,10,16.69Zm.2-.79h0s.05-.08.05-.09l0,0h0l.16.16.08.13s0,0,0,0a.58.58,0,0,0,.05.14s0,.07.08.12l-.12,0a.76.76,0,0,0-.21,0l0,0a.05.05,0,0,1,0,0,.71.71,0,0,1-.08-.18.41.41,0,0,1,0-.19A.24.24,0,0,1,10.19,15.9ZM11,16h.13a2.08,2.08,0,0,1,.25,0l.24-.2v0s0,0,0,0h0v.23h0l-.21.05H11a.43.43,0,0,0,0-.05S11,16,11,16Zm1.13-.28Zm-.48.05ZM13,17.75h0a.28.28,0,0,1,.14,0ZM30.52,14.8l.06-.14a.8.8,0,0,0,.08-.16.12.12,0,0,0,0-.1s0-.09-.08-.12a.44.44,0,0,0-.15,0s0,0,0,0,0-.07,0-.1a.18.18,0,0,0-.14-.06,1,1,0,0,0-.31,0s0,0,0,0a.27.27,0,0,0,0-.12,1.53,1.53,0,0,0-.14-.21.32.32,0,0,0-.12-.11.26.26,0,0,0-.14,0l-.09,0a1.43,1.43,0,0,0-.08-.22.35.35,0,0,0-.05-.08l-.05,0a.28.28,0,0,0-.13,0,.5.5,0,0,0-.13,0,.58.58,0,0,0-.36-.24,1.21,1.21,0,0,0-.63,0l-.14.06a.28.28,0,0,0-.15.14c0,.14,0,.18.05.24a1.25,1.25,0,0,1,.13,1,1.92,1.92,0,0,1-.09.32,1.68,1.68,0,0,1-.14.3.58.58,0,0,1-.57.23,6.59,6.59,0,0,1-.92-.16c-.64-.14-1.29-.29-2-.38-.33,0-.69-.07-1-.08a5.51,5.51,0,0,0-1.07,0,3.39,3.39,0,0,0-1,.31,2,2,0,0,0-.7.57,2.1,2.1,0,0,0-.22.33,1.5,1.5,0,0,0-.09.18.72.72,0,0,0,0,.19,1.93,1.93,0,0,0,.09.72,6.29,6.29,0,0,0,.52,1.24l-.08,0a2.32,2.32,0,0,0-.67-.2,2.59,2.59,0,0,0-.78,0h-.07a1.57,1.57,0,0,0-.3-.38,3.39,3.39,0,0,0-1.38-.69l-.73-.2a2.26,2.26,0,0,1-.59-.23.25.25,0,0,1-.1-.14s0,0,0-.05v-.2a1.57,1.57,0,0,0-.13-.59,1,1,0,0,0-.22-.3.78.78,0,0,0-.26-.14.74.74,0,0,0-.44,0l-.11.06,0,0-.13.05-.34.08c-.23.05-.49.08-.73.11h-.27s-.07,0,0,0h-.06a.66.66,0,0,0-.24,0l-.14,0h-.36l-.15,0,0,0-.09,0a.52.52,0,0,0-.19,0,.49.49,0,0,0-.16,0h-.22a.61.61,0,0,0-.33.12l0,0h-.12l-.21,0a.48.48,0,0,0-.21.09l-.07.06a.63.63,0,0,0-.12-.18.36.36,0,0,0-.27-.09.39.39,0,0,0-.22.12.33.33,0,0,0-.1.11.83.83,0,0,0-.07.13l0,.11-.06,0a.41.41,0,0,0-.33.07.25.25,0,0,0-.1.13.62.62,0,0,0,0,.1.53.53,0,0,0,0,.22.45.45,0,0,0,.11.17,1.18,1.18,0,0,0-.3.1.3.3,0,0,0-.14.11.14.14,0,0,0,0,.16.43.43,0,0,0,.2.18,3.58,3.58,0,0,0,.44.43L10,18a5.72,5.72,0,0,1-.59,0l-.32,0-.14,0-.07,0,0,0,0,0a14.28,14.28,0,0,0-1.88-.61H6.85l-.24-.12-.38.06a4.06,4.06,0,0,0-1.41.25,7.3,7.3,0,0,0-1.69.88,4.15,4.15,0,0,0-1.2,1.2,2.45,2.45,0,0,0-.41,1.44A3,3,0,0,0,2,22.36a4.33,4.33,0,0,0,.5.65,5,5,0,0,0,.62.59,4.88,4.88,0,0,0,1.67.92,6,6,0,0,0,2.12.28A8.46,8.46,0,0,0,9,24.41q.48-.15.93-.33c.31-.12.6-.27.88-.37a1.85,1.85,0,0,1,.9-.09,1.51,1.51,0,0,1,.56.26,2.55,2.55,0,0,0,.41.3,3.73,3.73,0,0,0,.53.26l.58.19a6,6,0,0,0,.61.12l0,0-.08,0a9.78,9.78,0,0,0,2.06-.22c1.35-.18,2.72-.3,4.09-.42l.21,0-.17-.1a18.89,18.89,0,0,1-3.15-2.23,8.83,8.83,0,0,1-1.24-1.29A3.84,3.84,0,0,1,15.39,19l0,0-.07,0-.15-.09a.53.53,0,0,1-.13-.13.52.52,0,0,1-.13-.28.34.34,0,0,0-.05-.2,1.18,1.18,0,0,0-.11-.19,2.69,2.69,0,0,0-.27-.32,11.2,11.2,0,0,0-1.25-1.12.53.53,0,0,0-.08-.15,1.41,1.41,0,0,0-.17-.18,1.08,1.08,0,0,0-.57-.2H12l.08-.18h0l.07,0h.15l.1,0a.22.22,0,0,0,.1-.08h.85l.21,0a7.5,7.5,0,0,0,.81-.11l.41-.1.22-.08.09-.06h0a.7.7,0,0,1,.13.19,1.25,1.25,0,0,1,.11.48v.21a.28.28,0,0,0,0,.08.6.6,0,0,0,.25.34,2.31,2.31,0,0,0,.77.31l.73.2a2.93,2.93,0,0,1,1.16.57,1.18,1.18,0,0,1,.31.43l.21.52.24.53a1.18,1.18,0,0,0,.24.29,1.23,1.23,0,0,0,.43.18l.79.14.8.1a11.44,11.44,0,0,1,2.95.59,2.49,2.49,0,0,1,1.06.7,1.24,1.24,0,0,1,.29,1,1.35,1.35,0,0,1-.66.89,4.76,4.76,0,0,1-1.29.57,8.85,8.85,0,0,1-1.5.29,5.82,5.82,0,0,1-1.56,0v0a6,6,0,0,0,1.59.07,8.79,8.79,0,0,0,1.55-.25,4.78,4.78,0,0,0,1.39-.57h0l.12,0a2.66,2.66,0,0,0,.43-.13,3.82,3.82,0,0,0,.61-.27A3,3,0,0,0,27,22.4a1.57,1.57,0,0,0,.55-1.63.91.91,0,0,0-.09-.22,1.3,1.3,0,0,0-.15-.23,3.11,3.11,0,0,0-.41-.4l-.05,0a1.28,1.28,0,0,0,0-.17,2,2,0,0,0-.12-.41,2.91,2.91,0,0,0-.24-.46,2.86,2.86,0,0,0-.35-.43,2.08,2.08,0,0,0-.43-.32,1.19,1.19,0,0,0-.39-.16h0c.21,0,.42,0,.63-.07l.73-.15c.24-.05.47-.11.7-.14a1.66,1.66,0,0,1,.31,0h.11l.17.06h0l0,0,.08,0,.19.07a2.31,2.31,0,0,0,1.27.07,1.09,1.09,0,0,0,.39-.19.4.4,0,0,0,.14-.15.28.28,0,0,0,0-.11.16.16,0,0,0,0-.07,1.62,1.62,0,0,1,0-.49,3.58,3.58,0,0,1,.32-1,1.18,1.18,0,0,1,.14-.23.51.51,0,0,0,.08-.29A1.07,1.07,0,0,0,30.52,14.8Z"/><path class="cls-4" d="M2.21.8H2.6V2.5c0,.53-.31.69-.81.69l-.25,0,0-.23h.19c.28,0,.45-.07.45-.45Z"/><path class="cls-4" d="M4.6,2.7c0,.19,0,.34,0,.46H4.28l0-.18h0a.74.74,0,0,1-.54.21c-.43,0-.6-.23-.6-.65V1.47H3.5v1c0,.27.06.46.33.46a.34.34,0,0,0,.36-.22.78.78,0,0,0,0-.16V1.47H4.6Z"/><path class="cls-4" d="M6.16,2.14h0c0-.34-.18-.49-.37-.49s-.39.26-.4.49Zm-.78.2c0,.52.3.63.59.63a1.12,1.12,0,0,0,.41-.07l.06.2a1.5,1.5,0,0,1-.54.08A.79.79,0,0,1,5,2.33a.8.8,0,0,1,.83-.89.68.68,0,0,1,.71.75.66.66,0,0,1,0,.15Z"/><path class="cls-4" d="M8,2.05H8a.24.24,0,0,0,0-.12.35.35,0,0,0-.35-.26c-.29,0-.44.26-.44.64s.2.63.44.63A.36.36,0,0,0,8,2.7a.5.5,0,0,0,0-.16Zm.4-.58c0,.11,0,.27,0,.53V3c0,.44-.08.61-.24.73a1.08,1.08,0,0,1-.66.19A1.55,1.55,0,0,1,7,3.78l.09-.21a1.27,1.27,0,0,0,.46.08A.45.45,0,0,0,8,3.13V3H8a.55.55,0,0,1-.48.21.75.75,0,0,1-.73-.84.8.8,0,0,1,.78-.88A.51.51,0,0,1,8,1.66h0l0-.19Z"/><path class="cls-4" d="M9.82,2.29h0c-.2,0-.68,0-.68.39a.28.28,0,0,0,.3.3.35.35,0,0,0,.37-.25.38.38,0,0,0,0-.1Zm.06.87,0-.18h0a.62.62,0,0,1-.49.21c-.34,0-.59-.19-.59-.48s.49-.62,1.05-.62V2c0-.23-.08-.39-.39-.39A1,1,0,0,0,9,1.74l-.09-.19a1.48,1.48,0,0,1,.58-.11c.5,0,.71.22.71.6v.74a1.5,1.5,0,0,0,0,.38Z"/><path class="cls-4" d="M12.67,3.12a1.07,1.07,0,0,1-.41.06.8.8,0,0,1-.9-.85.88.88,0,0,1,1-.89,1.38,1.38,0,0,1,.35.05l-.08.22a1.21,1.21,0,0,0-.28,0,.59.59,0,0,0-.57.66.56.56,0,0,0,.58.63,1.27,1.27,0,0,0,.29,0Z"/><path class="cls-4" d="M13.21,2.31h0c0,.29.07.67.43.67s.41-.4.41-.67-.07-.66-.42-.66-.42.41-.42.66m1.24,0a.8.8,0,0,1-.83.88.77.77,0,0,1-.8-.87.8.8,0,0,1,.83-.88A.78.78,0,0,1,14.45,2.31Z"/><path class="cls-4" d="M14.83,1.9c0-.2,0-.3,0-.43h.35l0,.2h0a.68.68,0,0,1,.57-.23.53.53,0,0,1,.59.58V3.16H16V2.07c0-.2-.06-.41-.34-.41a.38.38,0,0,0-.38.28.71.71,0,0,0,0,.15V3.16h-.4Z"/><path class="cls-4" d="M17.54,2.88a1,1,0,0,0,.4.09c.23,0,.36-.09.36-.24s-.06-.22-.31-.34-.5-.29-.5-.48.3-.47.68-.47a1.3,1.3,0,0,1,.45.08l-.11.21a.8.8,0,0,0-.33-.08c-.21,0-.32.11-.32.22s.06.18.31.29.51.28.51.52-.34.5-.74.5a1.18,1.18,0,0,1-.5-.09Z"/><path class="cls-4" d="M20.52,2.7c0,.19,0,.34,0,.46H20.2l0-.18h0a.73.73,0,0,1-.53.21c-.44,0-.61-.23-.61-.65V1.47h.4v1c0,.27.06.46.33.46a.34.34,0,0,0,.35-.22.41.41,0,0,0,0-.16V1.47h.39Z"/><path class="cls-4" d="M21,2.88a1,1,0,0,0,.4.09c.23,0,.37-.09.37-.24s-.07-.22-.32-.34-.5-.29-.5-.48.3-.47.68-.47a1.21,1.21,0,0,1,.45.08l-.11.21a.8.8,0,0,0-.33-.08c-.21,0-.32.11-.32.22s.06.18.31.29.51.28.51.52-.34.5-.74.5a1.13,1.13,0,0,1-.49-.09Z"/><path class="cls-4" d="M1.8,5.06c0-.2,0-.3,0-.44h.34l0,.21h0a.72.72,0,0,1,.56-.24.55.55,0,0,1,.52.26h0a.63.63,0,0,1,.24-.19.94.94,0,0,1,.34-.07.54.54,0,0,1,.6.6V6.32H4V5.26C4,5,4,4.82,3.68,4.82a.38.38,0,0,0-.36.26.61.61,0,0,0,0,.15V6.32H2.91V5.21c0-.19-.05-.39-.34-.39a.38.38,0,0,0-.37.28.61.61,0,0,0,0,.14V6.32H1.8Z"/><path class="cls-4" d="M5.84,5.44h0c-.2,0-.68,0-.68.4a.28.28,0,0,0,.3.3.36.36,0,0,0,.37-.26.28.28,0,0,0,0-.09Zm.06.88,0-.18h0a.65.65,0,0,1-.5.21.52.52,0,0,1-.58-.48c0-.43.49-.62,1-.62V5.19c0-.22-.08-.38-.39-.38A.86.86,0,0,0,5,4.9l-.09-.19a1.29,1.29,0,0,1,.58-.12c.5,0,.71.23.71.61v.74a1.58,1.58,0,0,0,0,.38Z"/><path class="cls-4" d="M6.73,5.06c0-.2,0-.3,0-.44h.34l0,.21h0a.71.71,0,0,1,.57-.24.54.54,0,0,1,.6.59V6.32H7.86V5.23c0-.2-.06-.41-.35-.41a.38.38,0,0,0-.37.28.61.61,0,0,0,0,.15V6.32H6.73Z"/><path class="cls-4" d="M9,5.47H9c0,.28.07.67.43.67s.4-.4.4-.67-.06-.66-.41-.66S9,5.21,9,5.47m1.23,0a.79.79,0,0,1-.82.88.78.78,0,0,1-.81-.87.8.8,0,0,1,.83-.89A.78.78,0,0,1,10.27,5.47Z"/><path class="cls-4" d="M10.59,6a1,1,0,0,0,.4.09c.23,0,.37-.1.37-.25s-.07-.22-.32-.33-.5-.29-.5-.49.3-.47.68-.47a1.18,1.18,0,0,1,.45.09l-.11.21a.67.67,0,0,0-.33-.08c-.21,0-.32.11-.32.22s.06.17.31.29.51.28.51.52-.34.5-.74.5a1.09,1.09,0,0,1-.49-.1Z"/><path class="cls-4" d="M13,4.62l.33,1a3.21,3.21,0,0,1,.1.35h0l.11-.35.29-1h.39l-.4,1.09a2.62,2.62,0,0,1-.62,1.1,1.35,1.35,0,0,1-.44.26l-.14-.23A1.31,1.31,0,0,0,13,6.62a.81.81,0,0,0,.23-.28.16.16,0,0,0,0-.09.13.13,0,0,0,0-.06l-.62-1.57Z"/><path class="cls-4" d="M15.7,5.7h0a.32.32,0,0,0,0,.14.36.36,0,0,0,.36.28c.33,0,.43-.3.43-.65s-.12-.64-.44-.64a.39.39,0,0,0-.36.3.62.62,0,0,0,0,.13Zm-.39-.55a5,5,0,0,0,0-.53h.36l0,.22h0a.62.62,0,0,1,.52-.25c.43,0,.72.32.72.88a.77.77,0,0,1-.77.88.49.49,0,0,1-.43-.2h0V7h-.39Z"/><path class="cls-4" d="M17.3,6.32h0V4.62h.4v1.7Zm.43-2.14c0,.11-.1.18-.24.18s-.23-.07-.23-.18.1-.17.23-.17S17.73,4.08,17.73,4.18Z"/><path class="cls-4" d="M19.25,5.3h0c0-.34-.18-.5-.37-.5s-.39.26-.41.5Zm-.78.2c0,.52.3.63.59.63a1.16,1.16,0,0,0,.41-.07l.06.2a1.77,1.77,0,0,1-.55.08.8.8,0,0,1-.9-.85.82.82,0,0,1,.84-.9.68.68,0,0,1,.7.76V5.5Z"/><path class="cls-4" d="M19.93,6a1,1,0,0,0,.4.09c.22,0,.36-.1.36-.25s-.06-.22-.31-.33-.5-.29-.5-.49.3-.47.68-.47a1.27,1.27,0,0,1,.45.09l-.11.21a.67.67,0,0,0-.33-.08c-.21,0-.32.11-.32.22s.06.17.3.29.52.28.52.52-.34.5-.74.5a1.17,1.17,0,0,1-.5-.1Z"/><path class="cls-4" d="M10.49,23.59s1.14,0,1.08.7-.88.7-.88.7a.63.63,0,0,0,.47-.63s-.5.58-.86.63a.3.3,0,0,0-.12-.51c-.42-.17-1.47.33-3.5.32s3.81-1.21,3.81-1.21"/></svg>