<svg id="Capa_1" data-name="Capa 1" xmlns="http://www.w3.org/2000/svg" viewBox="0 0 27.09 26.1"><defs><style>.cls-1{fill:#0070a2;}.cls-2{fill:#ffd041;}.cls-3{fill:#6acbde;}.cls-4{fill:#fbc9b7;}.cls-5{fill:#231f20;}</style></defs><title>6-11meses</title><path class="cls-1" d="M17.62,16.11a2,2,0,0,1,.74-2.22c1.23-.93,3.27-.85,4-1.11a2.48,2.48,0,0,1,2.2-.17c.77.41,1.56.75.76,1.5S21,18,21,18s-3.47-1-3.38-1.92"/><path class="cls-2" d="M21.7,14.85c-.84-.23-1.26-.45-1,.27a2.06,2.06,0,0,0,1.62,1.09c.51.07.47-.49.45-.54a2,2,0,0,0-1.11-.82"/><path class="cls-2" d="M23.56,13.57s.79.81,1.27.82.38-.39.32-.41a4.78,4.78,0,0,0-1.32-.63c-.36,0-.27.22-.27.22"/><path class="cls-3" d="M17.94,15.82a8.18,8.18,0,0,1,.89-1c.31-.25.9-.59.79-.83s-.57-.38-.57-.38-1.38.73-1.45,1.58.06,1.06.06,1.06Z"/><path class="cls-3" d="M20.86,13.42s-.2.4-.09.55.68.11.82,0a.42.42,0,0,0,.06-.48c-.07,0-.55-.38-.79-.07"/><path class="cls-4" d="M3.43,25.38s-.5-2.28-.73-3.15-.21-3.29.37-3.93a5.67,5.67,0,0,1,2.86-1.89c1-.09,1.73-.35,1.85-.73a2.29,2.29,0,0,0-1.06-2.19c-1-.6-.69-2.88-.69-2.88a25.59,25.59,0,0,1,4.7-2A19,19,0,0,1,17.06,8a5.61,5.61,0,0,1,1.42,1.07,5.94,5.94,0,0,1,.16,1.51c-.06.35-1.45,1.94-1.44,2.62a2.48,2.48,0,0,1-.36,1.67A8.64,8.64,0,0,1,14.41,16l-1.18.14,2.71,1,.9.36a2.19,2.19,0,0,1,.62-1.09c.43-.29.78-.8.86-.53s.13,1.2.33,1.23.74,0,.85-.1.5-1.36.73-1.42.57-.29.71-.12a1.09,1.09,0,0,1,.1.6,1.21,1.21,0,0,1,.43.78,2,2,0,0,1-.45.92,8.74,8.74,0,0,1,1.06-.9c.23-.11.51-.93.53-1s.18-.91.49-1a3.9,3.9,0,0,1,.95-.08s.22,0-.34.92a3.18,3.18,0,0,1-1.41,1.24s.74.37.8,1.9a1.83,1.83,0,0,1-1.53,2,23,23,0,0,1-4.92.27l-.85.4s.42,1.16.62,1.76a8.73,8.73,0,0,1,.1,2.1Z"/><path class="cls-5" d="M12.43,11.33A5.55,5.55,0,0,0,9.66,12s2.9-.79,3.57-.33l.22.2s.27-.39-1-.53"/><path class="cls-5" d="M14.14,14c.42.19.53.1.94,0s.27-.25,0-.81.33-.89.86-1.19a2.2,2.2,0,0,1,1.47.07l0-.09a1.9,1.9,0,0,0-2.4.35c-.44.61-.06.92-.06,1.32s-.86.38-.86.38"/><path class="cls-5" d="M12.79,12.24s.12-.23-.44-.24a15.7,15.7,0,0,0-1.77.17l1,0s-.25.17.1.33.83.05.83-.1a.52.52,0,0,1,0-.22Z"/><path class="cls-5" d="M16.39,12.55a1.06,1.06,0,0,1,.41.18c.2-.3-.46-.34-.91-.29s-.47.16-.47.16c.54,0,0,.18.29.31a.52.52,0,0,0,.64-.13c.15-.16-.11-.23,0-.23"/><path class="cls-5" d="M12.67,14.47c-.85-.2-1.53-.43-1.53-.43a1.41,1.41,0,0,0,1,.73A3.09,3.09,0,0,0,14,15c.35-.18.35-.38.66-.44a7.23,7.23,0,0,1-2-.09"/><path class="cls-5" d="M11.44,15.21c.26.26,1.63.32.94,0s-1.19-.24-.94,0"/><path class="cls-5" d="M8.67,13.22l0,0Z"/><path class="cls-5" d="M7.46,12.19a.12.12,0,0,0,0-.1A.23.23,0,0,0,7.37,12l-.1-.08-.17-.15a1,1,0,0,0-.21-.15.5.5,0,0,0-.2,0,.22.22,0,0,0-.16.08.18.18,0,0,0-.06.13.29.29,0,0,0,0,.12h0a.39.39,0,0,1,.07-.09l.09-.08c.05,0,0,0,0,0l.12.13a.85.85,0,0,0,.2.17l.12.07s0,0,0,0a1.15,1.15,0,0,0,0,.21,3.73,3.73,0,0,0,0,.47c0,.05,0,.05,0,0H7a.07.07,0,0,1-.07,0,.33.33,0,0,1,0-.1l0-.1h0l-.11.08a.25.25,0,0,0-.09.13c0,.06,0,.16.15.21a.63.63,0,0,0,.36,0A.36.36,0,0,0,7.38,13a.11.11,0,0,0,0-.17.32.32,0,0,1,0-.41.91.91,0,0,0,.12-.22"/><path class="cls-5" d="M14.75,16.1h0Z"/><path class="cls-5" d="M25.38,13.91h0a.5.5,0,0,0-.15-.17,2.1,2.1,0,0,0-.68-.31,3.88,3.88,0,0,0-.76-.17h-.14c-.06,0-.14,0-.18.08a.17.17,0,0,0,0,.22,1,1,0,0,0,.21.24,3.34,3.34,0,0,0,.53.37l.29.17.1,0-.17.08a2.06,2.06,0,0,1-.56.11c-.2,0-.38,0-.74,0a.86.86,0,0,0-.49.22l-.11.15,0,.05a3.58,3.58,0,0,0-.68-.32,3.07,3.07,0,0,0-.58-.15l-.3,0a1.09,1.09,0,0,0-.49,0,.4.4,0,0,0-.23.21.35.35,0,0,0,0,.2.84.84,0,0,0,.13.25l0,0a.48.48,0,0,0-.17.05.53.53,0,0,0-.27.23,1.38,1.38,0,0,0-.17.41,2,2,0,0,1-.28.67.79.79,0,0,1-.57.31h-.13l-.09,0,.07-.13a1.68,1.68,0,0,0,.07-.43,1.33,1.33,0,0,0,0-.43.4.4,0,0,0-.07-.15.47.47,0,0,0-.37-.17.6.6,0,0,0-.2,0l-.11.05a1,1,0,0,0-.15.09,2.33,2.33,0,0,0-.23.19h0a2.68,2.68,0,0,1,.07-.67,1.79,1.79,0,0,1,.12-.4l.54-.26a6.39,6.39,0,0,0,.68-.43l.16-.13.08-.05s0,0,0,0,0,0,0,0a.21.21,0,0,1,.09.11.45.45,0,0,1,0,.34.66.66,0,0,1-.32.26c-.13.08-.28.14-.39.21s-.2.15-.29.22a2.5,2.5,0,0,0-.37.38,1.06,1.06,0,0,0-.12.17l0,0a3,3,0,0,0,.83-.33,2.35,2.35,0,0,0,.32-.23,1.89,1.89,0,0,0,.25-.31c.07-.12.16-.23.23-.37a2,2,0,0,0,.17-.39.35.35,0,0,0,0-.26.48.48,0,0,0-.34-.18l.19,0,.51-.08.57-.07.26,0-.05,0c-.07,0-.08,0-.15.08l-.12.09a.28.28,0,0,0-.09.24.46.46,0,0,0,.36.4h.05a2.65,2.65,0,0,0,.57,0,2.15,2.15,0,0,0,.47-.14l.32-.15-.19-.17a1.55,1.55,0,0,0-.49-.29l-.33-.08-.15,0a7,7,0,0,0,.77-.16c.4-.1.81-.24,1.19-.37a1.66,1.66,0,0,1,1.14-.06,2.4,2.4,0,0,1,1.06.52.68.68,0,0,1,.21.42.69.69,0,0,1-.07.3m-.61.38h0a2.32,2.32,0,0,1-.41-.22,2.82,2.82,0,0,1-.45-.38.62.62,0,0,1-.15-.19h0a2.79,2.79,0,0,1,1.11.45c.11.1.11.16,0,.26Zm-.93,1.11h0l-.06.15a.75.75,0,0,1-.07.12,1.79,1.79,0,0,1-.23.25,12.45,12.45,0,0,1-1.28.87l0,0,.46-.36c.17-.11.44-.31.45-.57a.66.66,0,0,0-.12-.39,1.09,1.09,0,0,1,0-.26.23.23,0,0,1,.05-.1s0,0,0-.07,0,0,.08,0,.4,0,.68,0h0A2.26,2.26,0,0,1,23.84,15.4Zm-.74,3.41h0a1.93,1.93,0,0,1,0,.48,1.67,1.67,0,0,1-.13.45l-.11.24c0,.06-.11.11-.15.17s-.12.1-.19.15a.77.77,0,0,1-.24.12,3.3,3.3,0,0,1-.58.2c-.22,0-.42.09-.65.12s-.44.06-.67.09-.46.05-.69.08c-.9.08-1.81.13-2.73.18a6,6,0,0,0,1.19-1.16,3.64,3.64,0,0,1,.47-.54,2.3,2.3,0,0,1,.64-.35c.25-.1.51-.17.78-.25a2.32,2.32,0,0,0,.75-.33,1.58,1.58,0,0,0,.58-.94,1.46,1.46,0,0,0,.1-.77,1.4,1.4,0,0,0-.19-.48l-.07-.11,0-.14V16a3.5,3.5,0,0,0,.51.27,1.41,1.41,0,0,0,.44.12h.17c-.13.12-.24.22-.34.33a4,4,0,0,0-.63.82l.05,0a5.51,5.51,0,0,1,.61-.59l.08.1A3.27,3.27,0,0,1,23.1,18.81Zm-.75-3.22h0a.58.58,0,0,1-.05.29s0,0-.21-.05a4.28,4.28,0,0,1-.87-.55A2.38,2.38,0,0,1,20.9,15a.24.24,0,0,1-.06-.09,2,2,0,0,1,.27,0,2.63,2.63,0,0,1,.47.1,2.7,2.7,0,0,1,.8.37Zm-3.78,1.18ZM21,13.5h0s0-.07,0-.08a0,0,0,0,1,0,0,.1.1,0,0,1,.09,0,.35.35,0,0,1,.13.14.35.35,0,0,0,.07.12,1,1,0,0,0-.17.1,1.13,1.13,0,0,0-.26.23l.09-.26a.25.25,0,0,0,0-.15Zm4.63.11a.8.8,0,0,0-.23-.5,2.52,2.52,0,0,0-1.1-.65,2.16,2.16,0,0,0-.74-.14,2.58,2.58,0,0,0-.72.12c-.43.11-.8.22-1.19.31s-.78.15-1.15.21L20,13l-.58.1a2.55,2.55,0,0,0-1.58,1,2.06,2.06,0,0,0-.34,1.08,2.83,2.83,0,0,0,.08.69s0,.06,0,.09l0,0-.15.13s-.11.07-.21.15a1.23,1.23,0,0,0-.29.39,2.33,2.33,0,0,0-.22.66,2.62,2.62,0,0,0-.23-.21,4.43,4.43,0,0,0-1.26-.66,5.6,5.6,0,0,0-.81-.19h-.14c.17-.05.35-.09.52-.15A9.89,9.89,0,0,0,16,15.65a3.6,3.6,0,0,0,.54-.31,1.41,1.41,0,0,0,.23-.18,1.94,1.94,0,0,0,.2-.21,1.67,1.67,0,0,0,.29-.93,2.07,2.07,0,0,1,.24-.88l.12-.2.16-.2.32-.4a7,7,0,0,0,.5-.87,7.69,7.69,0,0,0,.34-.91,1.42,1.42,0,0,0,0-.2l.15-.16c1-1,.32-2.44-.65-3.34s-2-1.49-5-1.82S7,6.28,5.86,8.18a3.65,3.65,0,0,0-.25,3.58c.12.58.51,2.1.51,2.1l.23-.58.34,1.13.22-.54.2.67.08-.6a3.94,3.94,0,0,1,.3.94A1,1,0,0,1,7.08,16a1.37,1.37,0,0,1-.33.18,1.3,1.3,0,0,1-.37.06,2.72,2.72,0,0,0-1,.2,4.48,4.48,0,0,0-.78.47c-.23.17-.44.35-.66.53a4.72,4.72,0,0,0-1.05,1.2A4.18,4.18,0,0,0,2.35,20a5.49,5.49,0,0,0-.08,1.4,5.62,5.62,0,0,0,.28,1.39v0h0c.16.3.28.63.42,1l.41,1h.06a7,7,0,0,0-.08-1,6.21,6.21,0,0,0-.25-1h0c-.08-.43-.13-.88-.17-1.33a8.56,8.56,0,0,1,0-1.34,5.49,5.49,0,0,1,.3-1.32,2.91,2.91,0,0,1,.81-1.21A6.65,6.65,0,0,1,4.7,17a3.57,3.57,0,0,1,.79-.37,2.35,2.35,0,0,1,.89-.06,1.56,1.56,0,0,0,.6-.06,2,2,0,0,0,.48-.23A1.1,1.1,0,0,0,8,15.57a1.43,1.43,0,0,0-.06-.74,2.82,2.82,0,0,0-.34-.67,4.06,4.06,0,0,0-.51-.6h0l-.31-.35c-.48-.56-.77-1.75-.19-1.88S7.72,12,7.72,12a1.06,1.06,0,0,0,.39.89l.12-.59.44,1a2.34,2.34,0,0,1,.14-1.9A4.46,4.46,0,0,1,11,9.47l-.86,1L13,9.3,11.3,10.91l2.19-1.13-.77,1.15L14,10.28,13.3,11l1.92-1.06-1,1.23,1.9-.37-.78.47,2.26-1-1.18,1.15,2.06-.86v0l-.81.87a2.07,2.07,0,0,0,.52-.35l-.16.3c-.16.29-.34.56-.51.84s-.17.27-.25.43a2.76,2.76,0,0,0-.19.46A4.4,4.4,0,0,0,17,14a1.63,1.63,0,0,1-.06.45,1.07,1.07,0,0,1-.25.4.89.89,0,0,1-.21.16,1.28,1.28,0,0,1-.23.14,4.53,4.53,0,0,1-.55.23l-.58.19-.61.16h0a5.5,5.5,0,0,1-.75.17c-.25,0-.51.07-.77.09s-.51,0-.76,0l-.37,0-.17,0-.2,0a1.89,1.89,0,0,1-.34-.09,2.42,2.42,0,0,1-.35-.12c-.22-.09-.44-.2-.65-.31a10,10,0,0,1-1.21-.77l0,0a4.62,4.62,0,0,0,1,.95,4.18,4.18,0,0,0,.65.4l.37.17a3.31,3.31,0,0,0,.41.14l.2.06.24,0,.34,0h0a2.09,2.09,0,0,0-.29.6,1,1,0,0,0,0,.62.76.76,0,0,0,.08.2l0,.06,0-.07a1,1,0,0,1,0-.19,1.27,1.27,0,0,1,.23-.55,3,3,0,0,1,.45-.48,1.35,1.35,0,0,1,.24-.18l.32,0,.27,0,.22,0c.38.09.87.22,1.34.38l.35.12c.11.05.24.08.34.12l.62.23.43.15h0a.4.4,0,0,1-.08.31.91.91,0,0,1-.34.22,5.1,5.1,0,0,1-1,.31c-.35.08-.72.15-1.07.26a5,5,0,0,0-1,.4,2.83,2.83,0,0,0-.67.51c-.87-.35-1.74-.71-2.65-1a4.07,4.07,0,0,0-.75-.67,4.58,4.58,0,0,0-.49-.31l-.28-.13-.29-.11a5.43,5.43,0,0,0-.61-.18A4.49,4.49,0,0,0,6.8,17a4.64,4.64,0,0,0-1.29,0v0a5.43,5.43,0,0,1,1.22.11,4.75,4.75,0,0,1,.57.14,4.15,4.15,0,0,1,.53.2,4.58,4.58,0,0,1,.89.54,4.4,4.4,0,0,1,.69.67l0,.05.07,0c1,.36,2,.65,3,1l.17.05.06-.12a1.72,1.72,0,0,1,.59-.58,3.66,3.66,0,0,1,.92-.4c.67-.18,1.43-.25,2.13-.5a1.67,1.67,0,0,0,.49-.27.63.63,0,0,0,.19-.43,3,3,0,0,1,.3-.69.91.91,0,0,1,.24-.27s.09-.05.19-.13a2,2,0,0,0,.2-.16l.2-.17a1.59,1.59,0,0,1-.08.5.69.69,0,0,1-.07.15l0,.05a.24.24,0,0,0,0,.07A.25.25,0,0,0,18,17a.38.38,0,0,0,.23.19l.14.07.15.06a1.55,1.55,0,0,0,.42,0A1.42,1.42,0,0,0,20,16.76a1.76,1.76,0,0,0,.27-.81,1.43,1.43,0,0,1,.1-.33s.05-.07.06-.07,0,0,.05,0a.35.35,0,0,1,.25.15.63.63,0,0,1,.07.32,2.76,2.76,0,0,1-.11.74c-.07.25-.16.5-.25.74l.06,0a5.27,5.27,0,0,0,.43-.72,2.79,2.79,0,0,0,.22-.61,1.24,1.24,0,0,1,.15.57,1.42,1.42,0,0,1-.2.73,1.78,1.78,0,0,1-.61.81,1.86,1.86,0,0,1-.64.24c-.27.07-.56.13-.85.23a2.84,2.84,0,0,0-.82.4,3.38,3.38,0,0,0-.56.59,6.6,6.6,0,0,1-2.75,1.89,7.65,7.65,0,0,1-1.86.44,11.61,11.61,0,0,1-2,0,24.32,24.32,0,0,1-3.46-.5c-1-.21-1.82-.41-2.39-.56l-.89-.25s.29.13.84.32,1.33.47,2.33.72c.49.13,1,.26,1.63.37a14.65,14.65,0,0,0,1.88.27,10.53,10.53,0,0,0,2.1,0A8.32,8.32,0,0,0,15.21,22a6.14,6.14,0,0,0,.64-.27,4,4,0,0,0,.1.42c.09.39.23.89.34,1.4A13.05,13.05,0,0,1,16.51,25c0,.2,0,.36,0,.48s0,.18,0,.18a1.8,1.8,0,0,0,.12-.17,2.21,2.21,0,0,0,.22-.46A2.43,2.43,0,0,0,17,24.3a3.66,3.66,0,0,0-.07-.8,4.86,4.86,0,0,0-.26-.76,4.71,4.71,0,0,0-.36-.64,3.48,3.48,0,0,0-.32-.41,8,8,0,0,0,.9-.55,15.06,15.06,0,0,0,2.86.19,12.18,12.18,0,0,0,1.47-.14c.25,0,.49-.11.72-.16a4.71,4.71,0,0,0,.69-.27,1.61,1.61,0,0,0,.31-.19c.08-.08.19-.14.24-.24a1.07,1.07,0,0,0,.16-.27l.06-.24a3.21,3.21,0,0,0,0-.53,4.37,4.37,0,0,0-.09-.5c-.07-.33-.18-.65-.28-1a4.87,4.87,0,0,0-.36-.82,4.83,4.83,0,0,0,.59-.35,3.59,3.59,0,0,0,.62-.54,1.4,1.4,0,0,0,.22-.32,1.06,1.06,0,0,0,.06-.19v-.16a1,1,0,0,0,0-.34.57.57,0,0,0,0-.14,2.27,2.27,0,0,0,.61-.16,1.81,1.81,0,0,0,.61-.39.59.59,0,0,0,.12-.22.18.18,0,0,0,0-.07A1.13,1.13,0,0,0,25.65,13.61Z"/><path class="cls-5" d="M11.44,5.07s1.25-.37,0-1.1A3.92,3.92,0,0,0,6.23,5.16,20.65,20.65,0,0,1,3.86,7.8a3.84,3.84,0,0,0,1.68-.59,1.76,1.76,0,0,1-.93.72s6.07-1.81,6.83-2.86"/></svg>