<svg id="Capa_1" data-name="Capa 1" xmlns="http://www.w3.org/2000/svg" viewBox="0 0 29.28 21.36"><defs><style>.cls-1{fill:#f5a4c7;}.cls-2{fill:#fbcabb;}.cls-3{fill:#231f20;}.cls-4{fill:#fccdb5;}.cls-5{fill:#6d6f71;}</style></defs><title>5-18meses</title><path class="cls-1" d="M6,13.94c-.54,1.19.71,3.84.83,3.87a4.22,4.22,0,0,0,2,0c1.19-.22,4.91-1.52,4.66-2.12s-1.68-1.56-1.68-1.56Z"/><path class="cls-2" d="M6.27,9.79a5.75,5.75,0,0,1-1.8-1,2.48,2.48,0,0,1-.6-1.32,19.35,19.35,0,0,1,3-2.5,14.05,14.05,0,0,1,2.7-.52s1.24-.32,1.41-.1.1,1.3.52,1.9S12.82,7.46,12.76,8s-1.24,1.6-1.28,1.64-.63.33-.63.33-.18.18.72.32l2.16,2.29c.26.27,2,.88,2.16,1.19a2,2,0,0,0,1.13.65c.29,0,.34.11.29.3l0,.19s.22.11.16.3a.26.26,0,0,1-.25.19s.09.18-.2.23l-.28,0s0,.55.28.51a1.54,1.54,0,0,0,.76-.53c.14-.17.44-.44.56-.41a5.77,5.77,0,0,1,.94.49c.27.18.41.2.37.33s-.21.21-.18.43-.3.43-.55.69-.77,1-.93,1.18a1.41,1.41,0,0,1-.79.39,1.12,1.12,0,0,1-.94-.48,1,1,0,0,0-.92-.75c-.53,0-1-.21-1.08-.42s-.07-.27-.07-.27a2.78,2.78,0,0,1-1.3.38c-.91.09-2.19.15-2.19.15a10.05,10.05,0,0,0,1.71-1.3c.05-.22.15-.87.15-.87l0-.34a6.34,6.34,0,0,1-2.77.91,8,8,0,0,1-2.8-.47,3.42,3.42,0,0,1,.83,1c.27.53.65.72.32,1.06a2.6,2.6,0,0,1-1,.5l-.9.11s-.06.24.27.45.73.67.54.89a7,7,0,0,1-2.41.61c-.89.1-1.76.14-1.89-.08a2.29,2.29,0,0,0-.34-.5c-.15-.12-.42-.45-.39-.58s.21-.27.1-.4-.38-.21-.1-.41a1.15,1.15,0,0,1,.78-.21,4.22,4.22,0,0,0,.43.09s-1.16-1.06-1-1.74S3.15,15,3.54,15a12.18,12.18,0,0,1,1.36,0s.15-.5.21-.72,1.15-3.68,1.25-3.92a.6.6,0,0,0-.09-.49"/><path class="cls-3" d="M2.47,18.67a0,0,0,0,1,0,0s0,0,0,0h0l0,0"/><path class="cls-3" d="M2.14,18.75h0s0,0,0,0h0s0,0,0,0h0Z"/><path class="cls-3" d="M8.74,17.72h0l-.51.08c-.17,0-.34,0-.52,0H7.39a1.7,1.7,0,0,0,.7-.32.7.7,0,0,0,.19-.81,2.43,2.43,0,0,0-.55-.78,3.65,3.65,0,0,0-.37-.29l1.38.29.14,0L9,16h.31a3.81,3.81,0,0,0,.6-.06A8.82,8.82,0,0,0,11,15.63a7.66,7.66,0,0,0,1-.38l.33-.19c0,.09-.05.17-.08.25a3.11,3.11,0,0,1-.36.67,2.31,2.31,0,0,1-.58.54l-.39.24L10.5,17a5.6,5.6,0,0,1-1.76.73m-2.19.15h0l-.39.05c0-.13,0-.29.06-.44a1.07,1.07,0,0,0-.09-.65,1.72,1.72,0,0,0-.91-.73A2.2,2.2,0,0,0,4.75,16s0,0,0,0a0,0,0,0,0,0,0,3,3,0,0,1,.34.24,1.73,1.73,0,0,1,.58.71,1.43,1.43,0,0,1,0,.53,2.09,2.09,0,0,0,0,.34.72.72,0,0,0,.17.37c.22.23.51.36.71.56s.24.45,0,.58a1.62,1.62,0,0,1-.85.2l-1,.12A10.09,10.09,0,0,1,3,19.75l-.15,0H2.84s0,0,0,0h0l-.08,0s0,0-.06,0,.18-.14.28-.16a.27.27,0,0,1,.25,0l0,.07,0,0,0,0a.19.19,0,0,0,0-.1c0-.07-.16-.18-.36-.18l-.29,0-.11-.14-.07-.06s0,0-.05,0,0,.05,0,.07-.07,0,0-.07a.11.11,0,0,1,.08-.08.2.2,0,0,1,.15,0l.09.08h.07a.66.66,0,0,1,.15,0,.23.23,0,0,1,.1,0h.06a.15.15,0,0,0,.09-.08c0-.06,0-.17-.13-.24a.36.36,0,0,0-.19-.06A.25.25,0,0,0,3,18.61v0a.21.21,0,0,0,0-.07.31.31,0,0,0-.12-.09.51.51,0,0,0-.27,0,.58.58,0,0,1-.22,0,.33.33,0,0,1-.14,0,0,0,0,0,0,0,0,.6.6,0,0,1-.1-.11c-.06-.07-.08-.16,0-.2l0,0c0-.05,0,0,.06,0l.12,0a.93.93,0,0,1,.26,0h.15a.33.33,0,0,1,.16,0,2.71,2.71,0,0,0,.43.1c.15,0,.31,0,.44,0s.23,0,.34,0a1.58,1.58,0,0,0,.31,0A4.15,4.15,0,0,0,4.88,18,.91.91,0,0,0,5.07,18h0a0,0,0,0,0,0,0,1.55,1.55,0,0,0-.67-.2,1.36,1.36,0,0,0-.35,0,1.27,1.27,0,0,0-.38.11.54.54,0,0,1-.33.06.43.43,0,0,1-.26-.16.76.76,0,0,0-.18-.13h0l-.13-.19a3.4,3.4,0,0,1-.48-1,.88.88,0,0,1,0-.64A1.08,1.08,0,0,1,3,15.33a5.62,5.62,0,0,1,1.14-.15,5.92,5.92,0,0,1,1.2.07,4.19,4.19,0,0,1,2,.89c.48.4.83.91.51,1.24a1.57,1.57,0,0,1-.62.35l-.34.08H6.59s0,0,0,0h0ZM2.15,19h0s-.06-.15,0-.22,0,0,0,0l0,0h0a.17.17,0,0,1,.17-.15.17.17,0,0,1,.13.07.17.17,0,0,1,0,.07l.12.1.07.05-.09,0a.53.53,0,0,1-.2.07C2.33,19,2.26,19,2.15,19Zm15.13-3.76h0a.05.05,0,0,1,0,0S17.25,15.21,17.28,15.21Zm2.16,1.18h0s0,0,0,0a.52.52,0,0,1-.11.35A.92.92,0,0,1,19,17l-.47.19a.88.88,0,0,0-.38.42c-.14.25-.22.5-.34.72a.61.61,0,0,1-.23.27,1,1,0,0,1-.46,0,.82.82,0,0,1-.74-.43c0-.11,0-.25-.12-.41a1.07,1.07,0,0,0-.48-.32,5.6,5.6,0,0,0-.54-.17,3.47,3.47,0,0,1-.47-.14.3.3,0,0,1-.16-.19.45.45,0,0,1,0-.28.19.19,0,0,0-.1-.21.43.43,0,0,0-.46,0h0l-.17.1-.22.1a2.87,2.87,0,0,1-.47.18,7.89,7.89,0,0,1-1,.28,8.91,8.91,0,0,1-1.17.16l.38-.22a3.39,3.39,0,0,0,.43-.27,2.48,2.48,0,0,0,.65-.69,2.29,2.29,0,0,0,.32-.76,2.24,2.24,0,0,0,0-.52c.37-.17.73-.34,1.1-.47l.33-.1.33-.06s.14,0,.13,0h.19l.13,0,.16.06a1.94,1.94,0,0,1,.89.9c.09.17.16.35.24.53l.25.53a.34.34,0,0,0,.36.13h0a3,3,0,0,0,.48-.13,2.49,2.49,0,0,0,.43-.22A.84.84,0,0,0,18,15.9l.07-.09.05-.07c.07-.1.13-.2.17-.27s0,0,0,0h.11a.06.06,0,0,1,.05.06c0,.13-.1.33-.32.46a0,0,0,0,0,0,0h0a.84.84,0,0,0,.65-.45l.05.07.05,0,.11,0s.08,0,.08.07,0,0-.07.05a.86.86,0,0,0-.41.15.54.54,0,0,0-.13.18s0,0,0,0a.69.69,0,0,0,.3,0,.61.61,0,0,0,.26-.08l.11-.09a.31.31,0,0,0,.06-.13.65.65,0,0,0,0-.14.24.24,0,0,1,0-.12.27.27,0,0,0,0-.13.47.47,0,0,0-.12-.07.45.45,0,0,0-.25,0,.25.25,0,0,0-.06-.14.37.37,0,0,0-.15-.11l-.16-.06a.84.84,0,0,0-.39,0,.59.59,0,0,0-.3.18l-.23.27-.05.07,0,0-.11.09-.29.15-.11,0-.14-.21a.72.72,0,0,0,.47-.23h.12l.07,0a.26.26,0,0,0,.16-.17.24.24,0,0,0-.1-.21.66.66,0,0,0-.2-.11,1.54,1.54,0,0,1,0,.16s0,0,0,.07h-.44a.57.57,0,0,1-.15,0l-.05,0s-.06.09.06.19a.75.75,0,0,0,.22.11.37.37,0,0,0,.14,0h.12l-.42.17a5.76,5.76,0,0,0-.47-.53c-.32-.32-.58-.64-.94-1l-.16-.12L15,13.94l-.2,0-.28,0a3.31,3.31,0,0,0-.47.07l-.4.14a3.48,3.48,0,0,0-.66.39,2,2,0,0,0-.16.14,1.86,1.86,0,0,0,.1-.25,2.14,2.14,0,0,0,.12-.64,2.78,2.78,0,0,0-.08-.75,2.68,2.68,0,0,0-.3-.72,3,3,0,0,0-.45-.58,2.53,2.53,0,0,0-.61-.47s.14.24.3.58c.08.17.17.37.25.59a1.83,1.83,0,0,1,.11.33,2.19,2.19,0,0,1,.1.34,6,6,0,0,1,.14.69c0,.11,0,.22,0,.32s0,.2,0,.29a.76.76,0,0,1,0,.15c-.07,0-.12,0-.13.09a.52.52,0,0,1-.18.29,2.12,2.12,0,0,1-.38.26,4.31,4.31,0,0,1-.93.38,4.71,4.71,0,0,1-1,.18,2.86,2.86,0,0,1-.51,0l-.24,0-.11,0-.13,0c-.7-.18-1.41-.32-2.13-.45l-.5-.08a5,5,0,0,0-.76-.21c-.15,0-.31,0-.46-.06,0,0,0,0,0-.06a.34.34,0,0,1,.09-.15l.09-.1.1-.15a.93.93,0,0,0,.08-.57.66.66,0,0,0-.12-.27,1.29,1.29,0,0,0-.22.22,2.36,2.36,0,0,0-.32.48l-.06.12a.38.38,0,0,0-.06.16.25.25,0,0,0,0,.19.26.26,0,0,0,.07.11H4.11A4.86,4.86,0,0,0,2.79,15a1.38,1.38,0,0,0-.9.69,1,1,0,0,0,.06.8,3.48,3.48,0,0,0,.73,1l.09.09-.08,0a1.47,1.47,0,0,0-.52,0,.81.81,0,0,0-.48.2.37.37,0,0,0-.11.16.26.26,0,0,0,0,.17.34.34,0,0,0,.17.27.88.88,0,0,0,.21.09.18.18,0,0,0-.1,0l-.08,0,0,0H1.66l0,.05a.23.23,0,0,0-.08.23.28.28,0,0,0,.15.18A.55.55,0,0,0,2,19a.23.23,0,0,0,0,.36.57.57,0,0,0,.37.17h0s0,0,0,0,0,.33.18.4l.07,0h.07l0,0a.9.9,0,0,0,.22.06,5.64,5.64,0,0,0,2-.05l1-.17a1.69,1.69,0,0,0,1-.44A.41.41,0,0,0,7,19a.91.91,0,0,0-.24-.36c-.22-.2-.48-.38-.56-.57a.35.35,0,0,1,0-.14h.41l.35,0a5,5,0,0,0,.77.13,5.53,5.53,0,0,0,1.15,0A5.46,5.46,0,0,0,10,17.78a5.35,5.35,0,0,0,.68-.3,8.45,8.45,0,0,0,1.59,0,8,8,0,0,0,1.18-.19,5.05,5.05,0,0,0,.55-.18h0a.83.83,0,0,0,.48.43,4.12,4.12,0,0,0,.59.14l.52.1a1.07,1.07,0,0,1,.4.16c.09.06.1.21.18.34a.93.93,0,0,0,.36.35,1.88,1.88,0,0,0,.55.19l.3,0a1.14,1.14,0,0,0,.36,0,1.13,1.13,0,0,0,.48-.33,2.45,2.45,0,0,0,.44-.75,1.5,1.5,0,0,1,.15-.26,2.76,2.76,0,0,0,.46-.26.66.66,0,0,0,.3-.39.48.48,0,0,0-.08-.42Z"/><path class="cls-3" d="M19.62,15.79a.53.53,0,0,0-.33,0s0,0,0,0a.69.69,0,0,0,.1.18s0,0,0,0,.06,0,.08,0,0,0,0,.06-.09,0-.13,0a1.09,1.09,0,0,0-.5.06.77.77,0,0,0-.23.13,0,0,0,0,0,0,0,.84.84,0,0,0,.29.1.76.76,0,0,0,.29,0l.15-.06.13-.1s.06-.08.1-.11a.34.34,0,0,0,.12-.12.16.16,0,0,0,0-.16.34.34,0,0,0-.12-.09"/><path class="cls-3" d="M8.07,6.93A2.21,2.21,0,0,0,6.86,8.06S8.07,6.82,8.73,6.9L9,7s-.07-.29-.9,0"/><path class="cls-3" d="M8.42,7.34a7,7,0,0,0-.93.57l.59-.25s0,.17.25.17.51-.2.42-.28a.85.85,0,0,1-.12-.14l.18,0s-.07-.17-.39,0"/><path class="cls-3" d="M11.4,6.55c-.05-.23-.46-.08-.69.07s-.17.23-.17.23c.28-.17.1.1.34.1s.3-.13.3-.25-.2-.11-.12-.15a.93.93,0,0,1,.34,0"/><path class="cls-3" d="M11.3,5.91h0c-.71-.07-1.25.4-1.15.86s.5.55.73.78S10.6,8,10.6,8c.35,0,.37-.08.53-.27s0-.22-.45-.47-.33-.61-.2-.92.71-.34.85-.36l.12.25a5.75,5.75,0,0,0,.76,1l.24.22c.05,0,0,.07.06.1l0,.12a1.25,1.25,0,0,1-.06.5,2,2,0,0,1-.24.49,2.69,2.69,0,0,1-.4.43,3.07,3.07,0,0,1-.53.36,3.51,3.51,0,0,1-.59.26h0a4.14,4.14,0,0,1-.71.2,4.64,4.64,0,0,1-.76.11A7.42,7.42,0,0,1,7.65,10a6.84,6.84,0,0,1-1.48-.4h0l-.39-.11a.16.16,0,0,0,.1,0,.36.36,0,0,0,.24-.08.16.16,0,0,0,.06-.12c0-.09-.12-.11-.12-.11a.28.28,0,0,1-.24-.22.71.71,0,0,0,0-.16s-.15-.1-.18-.1l-.1,0-.18,0a1.17,1.17,0,0,0-.22,0,.53.53,0,0,0-.16,0,.1.1,0,0,0-.06.1.16.16,0,0,0,.06.1A.22.22,0,0,0,5,8.89H5V8.81s0-.05,0-.06,0,0,0,0,0,0,0,0l.13,0a.72.72,0,0,0,.22,0h.12s0,0,0,0,.07.08.12.12a2.61,2.61,0,0,1,.3.27c.05,0,0,0,0,0h0l-.07,0h0l-.06-.05-.06-.07h0a.22.22,0,0,0,0,.08.16.16,0,0,0,0,.1.22.22,0,0,0,.07.06l-.44-.16c-.41-.26-.74-.58-.57-.74s1.05.05,1.05.05A1.42,1.42,0,0,0,6.47,9L6.2,8.61l.8.44A2.69,2.69,0,0,1,6,7.91a1.87,1.87,0,0,1,.21-1.68L6.26,7l1-1.45L7.18,7l.61-1.25L8,6.62l.33-.71,0,.57.5-1.13.16,1,.87-.74-.17.49.7-1.22,0,1,.66-1,0,.3a1.35,1.35,0,0,0,.11.55,1.51,1.51,0,0,0,.11.22M4.39,9c.41.31,1.5,1.07,1.5,1.07l-.2-.39.86.56L6.36,9.9l.5.33-.31-.39a8.34,8.34,0,0,0,1,.28,7.45,7.45,0,0,0,1.65.17,5,5,0,0,0,.85-.07,2.5,2.5,0,0,0,.41-.07l.09,0a.57.57,0,0,0,0,.13.59.59,0,0,0,.21.33.72.72,0,0,0,.17.1.55.55,0,0,1-.09-.13.37.37,0,0,1,0-.29.47.47,0,0,1,.06-.09,2,2,0,0,1,.36.08,1.55,1.55,0,0,1,.43.21l.1.08a.43.43,0,0,1,.09.1,2.09,2.09,0,0,1,.16.22c.23.32.46.72.76,1.13a4.37,4.37,0,0,0,.54.64,1.85,1.85,0,0,0,.44.31l.46.2a2.91,2.91,0,0,1,.77.39,5.86,5.86,0,0,1,.55.56,1.47,1.47,0,0,0,.39.29,1.5,1.5,0,0,0,.55.15,3.88,3.88,0,0,1,.41,0,.27.27,0,0,1,.18.1c.06.09,0,.21-.24.26a1.57,1.57,0,0,1-.51.05.19.19,0,0,1-.14,0s0-.06,0-.08l.09-.06-.11,0s-.09,0-.08.1.11.09.18.11a1.72,1.72,0,0,0,.61,0,1,1,0,0,0,.37-.13.31.31,0,0,0,.13-.35.53.53,0,0,0-.39-.3c-.16,0-.33-.05-.45-.07a.88.88,0,0,1-.57-.33,3.66,3.66,0,0,0-.55-.62,3.33,3.33,0,0,0-.91-.49l-.45-.18a1.61,1.61,0,0,1-.29-.21,7,7,0,0,1-.53-.57c-.33-.39-.63-.77-.93-1.08l-.24-.23L12,10.43a1.09,1.09,0,0,0-.15-.08,2.22,2.22,0,0,0-.54-.17,3,3,0,0,0-.38,0A1.59,1.59,0,0,1,11.1,10a.49.49,0,0,1,.12-.08h0a3.5,3.5,0,0,0,1.07-.62,2.64,2.64,0,0,0,.44-.52,1.44,1.44,0,0,0,.23-.58,1.22,1.22,0,0,0,0-.6s0-.1-.07-.15a.5.5,0,0,0-.13-.15c-.11-.1-.18-.13-.27-.21a5.08,5.08,0,0,1-.88-.92,2.45,2.45,0,0,1-.39-.75,2.48,2.48,0,0,0,.08-1C11.22,3.62,10,3,9,2.72A6.42,6.42,0,0,0,5,3C3.1,3.65,2,5.5,2.45,6.9A3.89,3.89,0,0,0,4.39,9Z"/><path class="cls-3" d="M7,9.05l0,0Z"/><path class="cls-3" d="M10.29,9.26s-.62.14-.3.22,1.15-.2.3-.22"/><path class="cls-3" d="M28.59,5.59h0a2,2,0,0,1-1.18,1.12,8.9,8.9,0,0,1-1.91.62,17.35,17.35,0,0,1-2.08.32c-.7.06-1.42.08-2.13.09s-1.44,0-2.13-.08H19l-.09.07a6.08,6.08,0,0,1-2.56,1.2,9.21,9.21,0,0,1-3.06.1,12.35,12.35,0,0,0,1.75-.57A5,5,0,0,0,15.88,8a1.67,1.67,0,0,0,.34-.31.94.94,0,0,0,.12-.18.39.39,0,0,0,.06-.25V7.19l-.11-.05a10,10,0,0,1-1.64-.92,3,3,0,0,1-1.07-1.15c-.17-.42,0-.83.52-1.14a5.87,5.87,0,0,1,1.77-.66,17.19,17.19,0,0,1,2.07-.35c.69-.08,1.42-.13,2.13-.17a22.62,22.62,0,0,1,4.28.14,12,12,0,0,1,2,.47A5.11,5.11,0,0,1,28,4.25a1.3,1.3,0,0,1,.55,1.34m-.4-1.42a5.47,5.47,0,0,0-1.72-.95,12.2,12.2,0,0,0-2.06-.54A20.6,20.6,0,0,0,20,2.39c-.74,0-1.45.06-2.19.14a17.93,17.93,0,0,0-2.18.33,6.37,6.37,0,0,0-2,.75,1.84,1.84,0,0,0-.68.71,1.07,1.07,0,0,0,0,.86,3.21,3.21,0,0,0,1.26,1.33,11.3,11.3,0,0,0,1.66.86s0,0,0,0a.56.56,0,0,1-.07.13,2,2,0,0,1-.25.26,3.94,3.94,0,0,1-.69.46A13.55,13.55,0,0,1,13.18,9l-.06,0,.06,0a7.9,7.9,0,0,0,1.63.21,8.43,8.43,0,0,0,1.66-.11A7.72,7.72,0,0,0,18,8.7,5.82,5.82,0,0,0,19.21,8c.69.07,1.38.1,2.08.11A20.31,20.31,0,0,0,23.5,8a11.27,11.27,0,0,0,4.11-1.11,2.18,2.18,0,0,0,1.21-1.28A1.5,1.5,0,0,0,28.19,4.17Z"/><path class="cls-3" d="M10.41,9c.87,0,0-.5.44-.61-.79.1-1.32.65-.44.61"/><path class="cls-4" d="M7.67,11.83c-.54.15-1,1.58-2.38,1.66S3.66,13.24,4,12.36,5.88,11,6.18,10.54s-.07-.68.47-.8.37,0,.37,0,.23-.06.23-.17c0-.27.9-.35.9,0s-.14.18-.21.34.56-.41.65-.16a.65.65,0,0,1-.11.53s.37-.29.37,0a.48.48,0,0,1-.14.4s.39.1.32.35-.82.64-1.36.79"/><path class="cls-3" d="M7.65,11.81h0a3,3,0,0,0,1-.48.93.93,0,0,0,.18-.16s.05-.06.05-.08a.05.05,0,0,0,0,0,.06.06,0,0,0,0,0,.14.14,0,0,0-.08-.13.56.56,0,0,0-.18-.07l-.07-.2s0,0,0,0l0,0a.19.19,0,0,0,0-.08.48.48,0,0,0,0-.17v0h0a.11.11,0,0,0,.05,0,.25.25,0,0,0,.12,0l0,0-.07.05a.35.35,0,0,1-.37,0,.13.13,0,0,1-.06-.2h0a.57.57,0,0,0,.08-.25.2.2,0,0,0,0-.11v0h0a.21.21,0,0,0,.17.06l-.08,0a.7.7,0,0,0-.17.09l-.12.06-.05,0-.09,0H8l-.11,0c-.09,0-.12-.06-.14-.1s0-.06,0-.07,0,0,0,0v0l0,0a.33.33,0,0,1,.18-.13c.07,0,0,0,0,0a.17.17,0,0,0,0-.09.44.44,0,0,0,0-.09s-.12-.08-.25-.08a.47.47,0,0,0-.32.09s0,0,0,.05a.15.15,0,0,1-.06.11.65.65,0,0,1-.23.13l-.12-.12s0,0,0,0,0,.08,0,.07H7l-.15,0a.81.81,0,0,0-.27.1c-.08,0,0,.24,0,.42a1.08,1.08,0,0,1-.1.27.88.88,0,0,1-.22.25,4.6,4.6,0,0,1-.53.37,6.66,6.66,0,0,0-1,.69,1.63,1.63,0,0,0-.3.37l0,.12,0,0s0,0,0,0l0,.05a2,2,0,0,0-.07.23.68.68,0,0,0,0,.38c0,.08.13.13.31.17a3.13,3.13,0,0,0,.63,0,1.65,1.65,0,0,0,.59-.08,2.7,2.7,0,0,0,1-.63,5.29,5.29,0,0,0,.41-.41,1.35,1.35,0,0,1,.49-.37m0,0a1.07,1.07,0,0,0-.44.37l-.33.44a2.51,2.51,0,0,1-.92.83,2.24,2.24,0,0,1-.78.2,3.68,3.68,0,0,1-.81,0,1,1,0,0,1-.77-.43.8.8,0,0,1,0-.6,2,2,0,0,1,.08-.26l0-.07,0,0v0l.06-.12a2.18,2.18,0,0,1,.43-.48,6.58,6.58,0,0,1,1.09-.71,4.2,4.2,0,0,0,.52-.31L6,10.48a.71.71,0,0,0,.11-.21A.78.78,0,0,0,6.15,10a.36.36,0,0,1,.19-.29,1,1,0,0,1,.39-.11l.19,0h.14c.05,0,.13.08.09.12s0,0-.05.06L7,9.67a.34.34,0,0,0,.16-.06l0,0a.15.15,0,0,1,0-.11.74.74,0,0,1,.48-.22,1,1,0,0,1,.3,0,.59.59,0,0,1,.3.14.45.45,0,0,1,.09.23.42.42,0,0,1,0,.22.49.49,0,0,1-.16.13h0s0,0,0,0h0v0s0,0,0-.06A.2.2,0,0,0,8,9.76H7.9l-.06,0h0l.08,0L8.1,9.6a.88.88,0,0,1,.35-.11.45.45,0,0,1,.36.13.28.28,0,0,1,0,.09v0a.56.56,0,0,1,0,.22.84.84,0,0,1-.16.38l-.43-.2.14-.09A.66.66,0,0,1,8.67,10a.43.43,0,0,1,.26,0,.29.29,0,0,1,.14.12.37.37,0,0,1,0,.09v.07a.68.68,0,0,1-.07.23.34.34,0,0,1-.06.12l-.05.06a.3.3,0,0,1-.08.07l-.07-.2a.75.75,0,0,1,.32.17.28.28,0,0,1,.08.28l0,.06,0,.06-.1.1a1.88,1.88,0,0,1-.23.16A5.43,5.43,0,0,1,7.68,11.85Z"/><path class="cls-5" d="M16.47,5.39a4.1,4.1,0,0,1,0-.5h0c0,.16-.1.34-.14.46l-.19.54h-.3l-.18-.53a3.9,3.9,0,0,1-.13-.47h0c0,.16,0,.35,0,.5l0,.52h-.37l.16-1.5h.45l.17.54a4.45,4.45,0,0,1,.16.53h0A4.19,4.19,0,0,1,16.14,5l.17-.54h.45l.13,1.5h-.38Z"/><path class="cls-5" d="M17.87,5.34h0L17.8,5l-.07-.34h0a3.38,3.38,0,0,1-.08.34l-.08.31Zm-.35.23-.1.34H17l.47-1.5H18l.43,1.5H18l-.1-.34Z"/><path class="cls-5" d="M20,5.39a4.1,4.1,0,0,1,0-.5h0c0,.16-.1.34-.14.46l-.19.54h-.3l-.18-.53A3.81,3.81,0,0,1,19,4.89h0c0,.16,0,.35,0,.5l0,.52h-.37l.16-1.5h.45l.17.54c.06.19.12.36.16.53h0c0-.17.08-.34.14-.53l.18-.54h.44l.14,1.5H20Z"/><path class="cls-5" d="M21.37,5.34h0L21.3,5l-.07-.34h0c0,.1-.06.25-.08.34l-.08.31ZM21,5.57l-.1.34h-.41L21,4.41h.51l.43,1.5H21.5l-.09-.34Z"/><path class="cls-5" d="M23.31,5.34h0L23.24,5l-.07-.34h0c0,.1-.06.25-.08.34L23,5.34ZM23,5.57l-.1.34h-.41l.47-1.5h.51l.43,1.5h-.41l-.1-.34Z"/><rect class="cls-5" x="24.07" y="4.41" width="0.43" height="1.5"/><polygon class="cls-5" points="25.08 4.68 24.69 4.68 24.69 4.41 25.89 4.41 25.89 4.68 25.5 4.68 25.5 5.91 25.08 5.91 25.08 4.68"/><path class="cls-5" d="M26.68,5.34h0L26.61,5l-.07-.34h0c0,.1-.06.25-.08.34l-.08.31Zm-.35.23-.1.34h-.41l.47-1.5h.51l.43,1.5h-.42l-.09-.34Z"/><path class="cls-3" d="M3.28,8.24A22.37,22.37,0,0,1,5,9.84a4.26,4.26,0,0,0,.84.79l.46-.16s0-.67-.09-.71S3.72,8.54,3.28,8.24"/><path class="cls-3" d="M8.25,11.63a1,1,0,0,1,.17.63s.63.06.55.35-.24.52-.24.58a1.91,1.91,0,0,0,.08.31s-1.09-.44-1.14-.65.24-.49.24-.49l-.23-.51Z"/></svg>