<svg id="Capa_1" data-name="Capa 1" xmlns="http://www.w3.org/2000/svg" viewBox="0 0 31.68 26.76"><defs><style>.cls-1{fill:#f5a4c7;}.cls-2{fill:#fbc9b7;}.cls-3{fill:#231f20;}</style></defs><title>1-6meses</title><path class="cls-1" d="M5.12,12.11s-1-.86-.89-1.44A5.47,5.47,0,0,1,8.05,7.73C10.23,7.37,15,7.1,15,7.1l2.35,4.12-6.42,2.33-2.06.1Z"/><path class="cls-2" d="M4.52,11.53a4.07,4.07,0,0,0,.23,1.9,3.05,3.05,0,0,1-.13,2.21c-.11.49-.25,1.85-.25,1.85s-.41-.14-.25,1,.45,2.55.79,2.72a5.46,5.46,0,0,0,1.71.33c.59,0,.5-.16.5-.16s1.08-.15.5-1.22-.68-2-.25-2.39.43-1.89.93-2.45,1.27-2.12.62-3-3-2.21-4.4-.81"/><path class="cls-2" d="M10.92,11.36c-.85.9-.37,2.54.71,3.23a15.88,15.88,0,0,1,2.71,1.55c.67.68,1,1.56,2.4,1.74,0,0-.23.19.5.93s.3,1.18.62,1.47l.33.29s-.3.55,0,.67a2.92,2.92,0,0,0,1.14,0,1.79,1.79,0,0,0,.88-.62c.2-.22.28-.19.42-.46a1,1,0,0,0,0-.67S19.47,18,19.05,17.24a19.17,19.17,0,0,0-1.38-2.68,3.36,3.36,0,0,1-1.13-1.12c-.24-.51.84.31,1.12.44a8.33,8.33,0,0,0,1.69.19c.34,0,2.41-.25,2.69-.23s1.4.39,1.78.43a.65.65,0,0,0,.63-.21c.08-.12-.07-1.1-.47-1.26s0-.37-1-.26a13.56,13.56,0,0,1-3.22-.45,3.61,3.61,0,0,1-.72-.33A3.36,3.36,0,0,0,19,11l.83-.58s1.92,1,2.43,1.21,1.09.52,1.15.52a7.71,7.71,0,0,1,.6.73s-.51.43-.52.65.48.42.9.35.4-.16.66-.15a.79.79,0,0,0,.59-.27,2.68,2.68,0,0,0,.19-.24s.49,0,.53-.34a1,1,0,0,0-.42-1c-.38-.3-1.27-1.08-1.62-1.39L23.72,10A2,2,0,0,1,25,9.48c.84-.07,2.64-.46,2.75-1.23S28,5.5,27.14,5.19s-1.47-1.75-3.56-1.36-2.83.53-3.07.76a3.54,3.54,0,0,0-.53.75,2.35,2.35,0,0,1-.44.13,9.92,9.92,0,0,0-3.64-.23c-1.28.35-2.37,1.23-3.47,1.48s-2.61.7-2.61.7a5.48,5.48,0,0,1,3.64.79c2.11,1.16,1.95,1.85,1.95,1.85l.3,1.2,0,.28a3.32,3.32,0,0,0-1.84-1,4.35,4.35,0,0,0-2.92.86"/><path class="cls-3" d="M23.44,7.29l.54.18s-.52.16-.29.39.59,0,.59,0c.06.17,0,.22,0,.22L24.43,8c.17-.1,0-.46-.26-.64a1.13,1.13,0,0,0-.73-.08"/><path class="cls-3" d="M23.1,9.23a.51.51,0,0,0,.6.07c.12,0,.13-.48.13-.48a3.35,3.35,0,0,0-.22.36c-.06.13-.51.05-.51.05"/><path class="cls-3" d="M23,8.69c-.17,0-.21.26.09.33,0,0,.08-.27-.09-.33"/><path class="cls-3" d="M26.59,8.87h0a6.88,6.88,0,0,1-1.12.4l-.32.09A.23.23,0,0,0,25,9.08a1.71,1.71,0,0,0-.86,0c.6,0,.6.12.6.12a.33.33,0,0,0-.2.29h0l-.06,0a2.5,2.5,0,0,0-.7.34l-.12-.1a2.09,2.09,0,0,0-.31-.2c-.12-.08-.23-.11-.29-.15A1.31,1.31,0,0,1,22.73,9c-.2-.3-.37-.64-.56-1s-.36-.65-.58-1a3.93,3.93,0,0,0-.85-1,4.43,4.43,0,0,0-.42-.29l.05,0a2.51,2.51,0,0,1,.53-.39c.06,0,.11,0,.15,0h.07s0,0,.05,0l.11,0,.16,0a1.24,1.24,0,0,0,0,.88c0,.15.05.07.09-.06a.51.51,0,0,0,.21.22c-.19-.43.07-.54.07-.54s.15.62.11.44.36-.59.36-.59v.38c0,.39.8-.6.8-.6s0,.23.34.43.16-.12.09-.33A1.21,1.21,0,0,0,24,6c.58.32.69-1,.69-1s.53,1,.7.93.15-.76.17-.56a1.76,1.76,0,0,0,.21.67,3.19,3.19,0,0,1,.18.62s.1-.8.1-.76.22.81.31,1,.49-.55.49-.55c.1.21-.34,1-.34,1L26.31,8c-.19.55.92-.06.92-.06a1,1,0,0,0-.27.59c0,.12.05.13.12.11a2.84,2.84,0,0,1-.49.27m-.36,3.53h0a.45.45,0,0,1,0,.45.76.76,0,0,1-.26.24l.12-.4s0-.07-.07-.08a.11.11,0,0,0-.12.05,2.91,2.91,0,0,1-.33.66.61.61,0,0,1-.12.15l-.17.1-.18.06.3-.32h0s0-.09-.05-.11a.16.16,0,0,0-.15,0h0a1.36,1.36,0,0,1-.5.37l-.15.06-.18,0h0l.41-.35a.1.1,0,0,0,0-.17.27.27,0,0,0-.26,0h0a6,6,0,0,1-.57.28,1.57,1.57,0,0,1-.28.1h0l0,0a1.13,1.13,0,0,1,.13-.2l.08-.07.1-.06a.91.91,0,0,1,.25-.11.39.39,0,0,0,.11-.06c.08-.08,0-.19-.07-.25h0l-.09-.06-.1-.07a.67.67,0,0,1-.16-.18.65.65,0,0,1-.12-.4h0a.21.21,0,0,0-.16-.16c-.63-.2-1.27-.43-1.87-.68-.3-.13-.6-.26-.88-.4a5.35,5.35,0,0,1-.75-.47,2.56,2.56,0,0,1-.27-.29l-.25-.33c-.17-.21-.34-.43-.52-.64a4.71,4.71,0,0,0-.64-.62,1.89,1.89,0,0,0-.92-.4v0a1.24,1.24,0,0,1,.44.18,1.87,1.87,0,0,1,.35.26,3.48,3.48,0,0,1,.53.63c.16.21.31.44.46.66l.23.34.21.27-.31.19a8.59,8.59,0,0,1-1.38.55,13.09,13.09,0,0,1-1.49.38l-.58.1a2.65,2.65,0,0,0-.21-.26,1,1,0,0,0,.11-.37,1.87,1.87,0,0,0,0-.65,4,4,0,0,0-.11-.39,4.49,4.49,0,0,0-.18-.43,2.91,2.91,0,0,0-.74-.88A5,5,0,0,0,13.51,8a9.38,9.38,0,0,0-1.58-.46,11.8,11.8,0,0,0-1.7-.16C11,7.2,11.7,7,12.41,6.83c.48-.14,1-.28,1.42-.46s.85-.42,1.27-.61a4.82,4.82,0,0,1,1.31-.38,5.13,5.13,0,0,1,1.41,0,4.82,4.82,0,0,1,.68.15,6.37,6.37,0,0,1,.66.22,4.19,4.19,0,0,1,1.1.62,4.07,4.07,0,0,1,.77.84c.2.3.38.64.59,1s.38.65.61,1a1.7,1.7,0,0,0,.51.48,2.73,2.73,0,0,1,.58.32c.69.49,1.29,1.07,2,1.6A3.28,3.28,0,0,1,26.23,12.4Zm-6.93-.51Zm.49-1.38h0a3.78,3.78,0,0,0,.8.55c.28.15.59.29.89.43.58.25,1.16.47,1.77.68a.85.85,0,0,0,.09.31H22.9l-.52-.05-.23-.05-.11,0-.13-.05-.54-.13a18.29,18.29,0,0,0-2.1-.29h0a.36.36,0,0,1,0-.11,1,1,0,0,1-.06-.26A1.28,1.28,0,0,0,19,11l.51-.31.27-.22Zm4.52,3.55h0l-.1,0h-.12a3.33,3.33,0,0,1-.65-.12,5.55,5.55,0,0,0-.73-.16l-.78-.1h-.1a2.55,2.55,0,0,1-.71.18,6.78,6.78,0,0,1-.78,0l-.77,0h-.39l-.37,0-.35-.05c-.12,0-.23,0-.34-.05l-.33-.08a3,3,0,0,1-.32-.11,3.39,3.39,0,0,1-.8-.42c-.08-.17-.15-.36-.22-.54a6.34,6.34,0,0,0-.27-.61l.53-.15a11.87,11.87,0,0,0,1.46-.52c.27-.11.52-.23.75-.35a2.42,2.42,0,0,1-.07.47,1.34,1.34,0,0,0-.05.3,1.22,1.22,0,0,0,0,.17.31.31,0,0,0,.05.1s0,.06.19.13h0l1.06.19c.35.06.71.1,1.06.15l.51.08.13,0,.15,0a1.77,1.77,0,0,0,.32,0,3.45,3.45,0,0,0,.57-.05l.28-.06.16-.05.06.11a1.12,1.12,0,0,0,.24.25l0,0,0,0-.16.1-.13.13a2.2,2.2,0,0,0-.17.25.75.75,0,0,0-.05.16.26.26,0,0,0,.07.23.38.38,0,0,0,.22.1h.16a1,1,0,0,0,.24-.06l.1,0a.24.24,0,0,0,.14.12.56.56,0,0,0,.17,0l.16,0A.42.42,0,0,1,24.31,14.06ZM14.18,10.41h0a4.08,4.08,0,0,0-2.11.06,2.88,2.88,0,0,0-1.5,1,1.42,1.42,0,0,0-.21.33c0,.06-.06.1-.09.17l0,.16a1.52,1.52,0,0,0-.08.73,1.55,1.55,0,0,0,.26.64l-1,0a1.6,1.6,0,0,0,0-1.12,2.34,2.34,0,0,0-1.09-1.11,4.55,4.55,0,0,0-1.78-.56,2.79,2.79,0,0,0-1.89.47l-.12.11a.86.86,0,0,1,0-.35A2.25,2.25,0,0,1,5.16,9.7,5.94,5.94,0,0,1,6,9a4.5,4.5,0,0,1,.53-.36c.18-.1.38-.21.6-.31a9.11,9.11,0,0,1,3.08-.72,6.8,6.8,0,0,1,1.69.06,4.78,4.78,0,0,1,1.45.52,5.12,5.12,0,0,1,1.05.74,3.65,3.65,0,0,1,.68.78,3.72,3.72,0,0,1,.21.39c.05.13.12.24.16.36a3.23,3.23,0,0,1,.18.6.93.93,0,0,1,0,.23A2.87,2.87,0,0,0,14.18,10.41ZM8.83,13.65h0a8,8,0,0,1-.61,1.14A3.09,3.09,0,0,0,7.77,16a1.91,1.91,0,0,1,0,.59,2.56,2.56,0,0,1-.22.58c-.09.19-.2.38-.31.57l-.17.29a.76.76,0,0,0-.11.33,5.23,5.23,0,0,0,.24,1.24,2.31,2.31,0,0,0,.28.6,1.1,1.1,0,0,1,.21.56.46.46,0,0,1-.28.47h-.1s0,0,0,0A1.1,1.1,0,0,0,7,20.88H7a.18.18,0,0,0-.15,0c-.07,0-.11.06-.09.11a1,1,0,0,0,.2.31H7a.13.13,0,0,1,0,.12,0,0,0,0,1,0,0l0,0H6.76a.11.11,0,0,1-.09-.05s0,0,0,0a.57.57,0,0,0,0-.26h0A.2.2,0,0,0,6.44,21c-.11,0-.21.05-.22.13a.61.61,0,0,0,0,.19.13.13,0,0,1,0,.06c0,.06,0,0,0,0H6.05c0-.05,0-.1,0-.15h0c0-.07,0-.14-.11-.18a.33.33,0,0,0-.34.05A.19.19,0,0,0,5.52,21a.33.33,0,0,0-.35.09l0,.09a.16.16,0,0,1,0-.1.43.43,0,0,1,0-.12h0a.1.1,0,0,0,0-.09,4.23,4.23,0,0,1-.25-.64c0-.11-.06-.22-.08-.32s0-.21,0-.34a2.9,2.9,0,0,0-.26-.7,2.61,2.61,0,0,1-.26-.64.62.62,0,0,1,0-.3.48.48,0,0,1,.14-.26l.14-.09.21-.07a2,2,0,0,1,.43-.06,1.32,1.32,0,0,1,.78.28,1.86,1.86,0,0,1,.48.58h.06A1.55,1.55,0,0,0,6,17.63a1.44,1.44,0,0,0-.89-.39,1.66,1.66,0,0,0-.55.05l-.14,0c0-.4,0-.8,0-1.19a1.26,1.26,0,0,1,.22-.56A6.63,6.63,0,0,0,5,15a1.9,1.9,0,0,0,0-1.29,6.74,6.74,0,0,1-.31-1.19,1.3,1.3,0,0,1,0-.53l.08-.14a.59.59,0,0,1,.08-.11.88.88,0,0,1,.22-.21,2,2,0,0,1,1.36-.32,3.76,3.76,0,0,1,1.44.47,2,2,0,0,1,.92.88A1.47,1.47,0,0,1,8.83,13.65Zm19.5-8.9a5.55,5.55,0,0,0-3.37-2A5.64,5.64,0,0,0,22.88,3a4.37,4.37,0,0,0-3,.78,3.77,3.77,0,0,0-1.24,1.4c-.22,0-.43-.1-.66-.13A5.37,5.37,0,0,0,16.3,5a5.14,5.14,0,0,0-1.48.47c-.43.21-.82.46-1.21.65s-.87.34-1.33.49c-.78.26-1.57.51-2.36.74a9.67,9.67,0,0,0-1.53.12A8.23,8.23,0,0,0,6.77,8a6.33,6.33,0,0,0-.69.34,3.28,3.28,0,0,1-.31.2l-.25.2a4,4,0,0,0-.82.84A1.84,1.84,0,0,0,4.25,11a1.13,1.13,0,0,0,.2.44l-.09.1c0,.06-.07.09-.11.17l-.06.15a1.37,1.37,0,0,0,0,.69,7,7,0,0,0,.39,1.22,1.88,1.88,0,0,1,.15,1.15c-.07.2-.15.39-.24.59a1.09,1.09,0,0,0-.17.63c0,.41.08.81.12,1.21l-.05,0a1.49,1.49,0,0,0-.25.13.79.79,0,0,0-.25.37,1,1,0,0,0,0,.38,2.8,2.8,0,0,0,.23.69,2.64,2.64,0,0,1,.22.63,2.36,2.36,0,0,0,0,.35,2,2,0,0,0,.07.35,4.21,4.21,0,0,0,.23.65.35.35,0,0,0,0,.14.44.44,0,0,0,0,.22.42.42,0,0,0,.23.23.82.82,0,0,0,.3.07h0l.12.09.07,0h.09a.76.76,0,0,0,.22,0,.43.43,0,0,0,.17-.06l.09,0,.12,0h.13a.62.62,0,0,0,.34-.09.83.83,0,0,0,.21.06H7l.06,0a.37.37,0,0,0,.18-.08.23.23,0,0,0,.1-.13v0a.36.36,0,0,0,.18,0l.12-.06.08-.06a.42.42,0,0,0,.12-.16.56.56,0,0,0,.06-.33,1.15,1.15,0,0,0-.25-.62,1.94,1.94,0,0,1-.25-.57,4.24,4.24,0,0,1-.19-1.21,1.64,1.64,0,0,1,.3-.54q.2-.29.36-.57a2.57,2.57,0,0,0,.28-.61A2,2,0,0,0,8.21,16a3,3,0,0,1,.49-1.12,7.1,7.1,0,0,0,.67-1.17.75.75,0,0,0,.05-.16,3.21,3.21,0,0,0,1,0,3.3,3.3,0,0,0,.56.56c.45.35.94.63,1.41.94s1.08.52,1.46.83.64.73,1,1.1a3.11,3.11,0,0,0,1.53.83v0a2.7,2.7,0,0,1-1.34-.88,10.47,10.47,0,0,0-.94-1.17,14.08,14.08,0,0,0-1.42-.91c-.45-.32-.93-.62-1.31-.95a1.72,1.72,0,0,1-.7-1.08,1.17,1.17,0,0,1,.08-.58l.06-.16L11,12a2.11,2.11,0,0,1,.18-.27,2.31,2.31,0,0,1,1.19-.81A3.22,3.22,0,0,1,14,10.79a2.46,2.46,0,0,1,1.27.77A4.39,4.39,0,0,1,16,12.73,4.12,4.12,0,0,0,16.73,14a2.8,2.8,0,0,0,.31.28c.11.09.26.17.34.23a2.13,2.13,0,0,1,.44.55,12.1,12.1,0,0,1,.62,1.25,6.93,6.93,0,0,0,.69,1.24c.26.41.55.8.84,1.2.14.19.28.4.4.59a1.59,1.59,0,0,1,.14.3s0,.1,0,.11,0,0,0,0,0,0,0,0l-.18.2.07.06a.56.56,0,0,1,.05.08l0,.08v.08h0a.48.48,0,0,0-.18-.06h0a.24.24,0,0,0-.21.06.12.12,0,0,0,.06.2h0s0,0,0,.05h0a.29.29,0,0,0-.29-.1c-.13,0-.21.11-.18.2s0,0,0,0h0a.28.28,0,0,1,0,.25.33.33,0,0,1-.18.17h0a.45.45,0,0,1,0-.11.44.44,0,0,0,0-.1.36.36,0,0,0,0-.17.27.27,0,0,0-.24-.14c-.15,0-.27.07-.28.17a1.34,1.34,0,0,0,0,.2.28.28,0,0,1-.08.12l-.08.06-.08,0a.27.27,0,0,1-.12,0,.24.24,0,0,1-.12-.05.1.1,0,0,1-.06,0,.21.21,0,0,1,0-.07.16.16,0,0,1,0-.12.21.21,0,0,1,0-.06l0,0a.16.16,0,0,0,.09-.13.13.13,0,0,0,0-.08h0l0,0,0,0,0,0H18.4l0,0-.15-.1a.46.46,0,0,1-.17-.17,1.28,1.28,0,0,1-.07-.51,1.59,1.59,0,0,0-.06-.3,1.31,1.31,0,0,0-.2-.3l-.48-.46a2.12,2.12,0,0,1-.39-.47.72.72,0,0,1,.16-1,1.18,1.18,0,0,1,.7-.19v0a1.28,1.28,0,0,0-.8.16,1,1,0,0,0-.41.53.74.74,0,0,0,0,.3.75.75,0,0,0,.09.29,2.45,2.45,0,0,0,.38.53l.43.47a.89.89,0,0,1,.13.22.72.72,0,0,1,0,.25,1.35,1.35,0,0,0,.07.61.78.78,0,0,0,.28.29l.09.07a.47.47,0,0,0-.07.12.39.39,0,0,0,0,.3.7.7,0,0,0,.08.14.68.68,0,0,0,.12.12.9.9,0,0,0,.41.16,1.06,1.06,0,0,0,.48-.06l.17-.09a.29.29,0,0,0,.1.06,1,1,0,0,0,.18,0h.11l.21-.06a.72.72,0,0,0,.43-.43l.11,0a.92.92,0,0,0,.16-.12l.05-.06,0-.05a.6.6,0,0,0,.06-.11l.16,0a.32.32,0,0,0,.12-.11.41.41,0,0,0,0-.08v-.08a.69.69,0,0,0,0-.13.67.67,0,0,0-.06-.12l-.07-.09a.24.24,0,0,0,.08-.1.35.35,0,0,0,0-.21,1.57,1.57,0,0,0-.19-.33c-.14-.2-.3-.39-.45-.59-.3-.39-.61-.77-.88-1.17A17.09,17.09,0,0,1,18.08,15a2.22,2.22,0,0,0-.44-.62l-.32-.25a2.13,2.13,0,0,1-.26-.26h0l.1.07a3.42,3.42,0,0,0,1.61.38h.41l.4,0c.27,0,.53-.06.79-.1l.78-.13.72-.11.67.23c.24.07.47.12.74.18a2.82,2.82,0,0,0,.88,0,.78.78,0,0,0,.24-.09l.08-.07a.2.2,0,0,0,.05-.09.3.3,0,0,0,0-.23l.17-.05.09,0a.12.12,0,0,0,.11,0,1.75,1.75,0,0,0,.52-.16.74.74,0,0,0,.21-.13,1.77,1.77,0,0,0,.14-.17l0-.06h.08a1.09,1.09,0,0,0,.59-.41.56.56,0,0,0,0-.57,3.35,3.35,0,0,0-.9-.9c-.59-.49-1.1-1-1.72-1.54L24,9.84a3.42,3.42,0,0,1,.59-.17c.24-.05.6-.07,1-.14a7.05,7.05,0,0,0,1.28-.35A4.54,4.54,0,0,0,27.32,9a.75.75,0,0,0,0,.21c.08.42,1.38-.7,1.51-1.36A3.88,3.88,0,0,0,28.33,4.75Z"/><path class="cls-3" d="M20.16,5.93s-.13.25-.81.29a3.62,3.62,0,0,1-1.24-.15l1-.06a1.45,1.45,0,0,1-.79-.28,4.35,4.35,0,0,0-.7-.49L17,5a4.44,4.44,0,0,1,2.24-.19c1.08.25,1.16.74.9,1.17"/></svg>