<svg id="Capa_1" data-name="Capa 1" xmlns="http://www.w3.org/2000/svg" viewBox="0 0 33.6 22.71"><defs><style>.cls-1{fill:#f05050;}.cls-2{fill:#f8992f;}.cls-3{fill:#b3d335;}.cls-4{fill:#f5a4c7;}.cls-5{fill:#fbc9b7;}.cls-6{fill:#231f20;}</style></defs><title>2-6meses</title><path class="cls-1" d="M5.34,18s-.61,3.23-.37,3.3a22.55,22.55,0,0,0,2.4-.16L9,21a3.16,3.16,0,0,0,1.85-.59c1-.66,3.36-.08,3.36-.08a11.8,11.8,0,0,0,3.7-.19,22,22,0,0,1,4.13-1L26.3,19l3.22.21a.48.48,0,0,0,.19-.67c-.27-.41-.53-1.46-.88-1.5a1.55,1.55,0,0,1-.95-1.88c.34-1-.29-2.71-.45-3.28a9.6,9.6,0,0,1-.49-2.65c.12-.38.85-2.26.94-2.81S28,5.28,26.24,5.6s-4.1.41-5,.59-10.45.48-10.45.48-5.91.13-6.16.71.18.43.53.69,1.25.5.61,1.47S3.22,12.8,4.15,15.19A25.75,25.75,0,0,0,5.34,18"/><path class="cls-2" d="M7.44,10.54S7,10,7.44,9.62a2.86,2.86,0,0,1,2.24-.36c.38.26.69.7.39,1.09S8.45,11,8.45,11L6.19,13.42a2.08,2.08,0,0,1,.57-1.65c.74-.86.68-1.23.68-1.23"/><path class="cls-3" d="M26.82,10.42,23.34,8.67a5.64,5.64,0,0,1-1.31,0c-.14-.1-.69-.58,0-1.25a1,1,0,0,1,1.37,0l.09.31,4.17,2.14s.08.8-.84.59"/><path class="cls-4" d="M14.83,16.07l.63,2.79a3,3,0,0,0,2.46-.14c1.69-.62,4.25-1.85,4.12-2.39s-3.81-2.12-7.21-.26"/><path class="cls-5" d="M13,15.91l.31-2a4.45,4.45,0,0,1-2.2.45,21.65,21.65,0,0,1-3.6-1s-1.27-.67-1.41-.72-.43-.17-.25-.33.1-.47.1-.63.06-.25.26-.37.38-.29.63-.44.3-.22.5-.24.4.37.4.37.17.38.43.31.54-.2.5,0-.16.7-.16.7a15.43,15.43,0,0,0,2.38.85,1.71,1.71,0,0,0,.77-.12s1.1-.91,1.65-1.4a9.45,9.45,0,0,1,2.12-1.07S13,9.46,12.2,8.19,13,4.86,13.29,4.54s7-.68,7.29-.08a2.18,2.18,0,0,1,.21,1.19,2.77,2.77,0,0,0,0,2.24s.4.93,0,1.43a4.26,4.26,0,0,1-1.21.9l1.91,1,.09.38a6,6,0,0,0,1.31-1c.32-.42.64-1.14.46-1.27s.57-.6.57-.6a.89.89,0,0,1,.18-.77c.3-.36,1-.18,1.27,0a1.28,1.28,0,0,0,.67.17l.38.45s.43.26.43.43,0,.57,0,.57.23.27,0,.35-1.75.42-1.89.9a11.73,11.73,0,0,1-.94,2c-.26.38-.65,1-1.35,1.07a10,10,0,0,1-1.58-.08l.47,1.66s-.36.77-2.31,1.17-3.62-.53-4.9-.61L13,15.91"/><path class="cls-5" d="M11,16.17s-.76.07-.72.64a8.47,8.47,0,0,0,1,2.09s-1-.19-1.09.07.39.45.22.58a.64.64,0,0,0-.17.6c0,.15,0,.06.17.31a3.17,3.17,0,0,0,.87.68,13.13,13.13,0,0,0,3.59-.42c.54-.24,1-.36.65-.73a7.26,7.26,0,0,0-.93-.76A.84.84,0,0,1,14.5,19s1.68-.07,2.15-.57.1-1.08-.49-1.55-2.28-1.44-5.13-.72"/><path class="cls-5" d="M19.41,18.26s1.53-1.06,1.77-1.66a4,4,0,0,1,.57-1,3.71,3.71,0,0,1,2-.75,1.88,1.88,0,0,1,1.54.85,5.68,5.68,0,0,1,.92,1.39,2.65,2.65,0,0,0,1-.47c.26-.29.26-.68.62-.52s.63.4,1,.58.84.33.77.61-.51.27-.76.65-.87.48-1,.76-.41,1-.78,1.11-1.36,0-1.58-.6-.76-.65-1.23-.74-.44-.41-.85-.51a1.72,1.72,0,0,0-.78,0s-2.12.68-3.09.28"/><path class="cls-6" d="M10.41,19.86h0s0,0,0,0h0v0Z"/><path class="cls-6" d="M10.78,19.77a0,0,0,0,0,0,0s0,0,0,0h0v0"/><path class="cls-6" d="M17.46,18.76h0a4.37,4.37,0,0,1-.54.08,5.09,5.09,0,0,1-.56,0H16a1.83,1.83,0,0,0,.77-.34.74.74,0,0,0,.19-.86,2.73,2.73,0,0,0-.58-.83,4.54,4.54,0,0,0-.41-.33c.49.11,1,.23,1.5.32l.15,0,.16,0h.33a3.16,3.16,0,0,0,.64-.06,10.17,10.17,0,0,0,1.15-.29A9.57,9.57,0,0,0,21,16.11l.36-.2-.09.27a3.6,3.6,0,0,1-.39.72,2.3,2.3,0,0,1-.62.58,3.89,3.89,0,0,1-.42.25l-.44.26a6.07,6.07,0,0,1-1.89.77m-2.33.16h0L14.7,19c0-.15.05-.32.06-.48a1.11,1.11,0,0,0-.09-.69,2,2,0,0,0-1-.79,2.67,2.67,0,0,0-.51-.15h0a0,0,0,0,0,0,0s.15.09.37.25a1.84,1.84,0,0,1,.62.76,1.63,1.63,0,0,1,.05.57,2.38,2.38,0,0,0,0,.36.94.94,0,0,0,.18.4c.24.24.55.38.76.59s.26.48,0,.63a1.82,1.82,0,0,1-.91.22c-.39,0-.75.08-1.1.12a9.56,9.56,0,0,1-1.82.12l-.17,0h-.05s0,0,0,0h0l-.09,0s-.05,0-.06,0,.19-.16.31-.18a.29.29,0,0,1,.25.05.17.17,0,0,1,.06.08h0s0,0,0,0a.42.42,0,0,0,0-.1c0-.08-.17-.19-.38-.19a1.15,1.15,0,0,0-.31,0,.79.79,0,0,0-.12-.15s0-.06-.08-.07,0,0,0,0,0,.05,0,.07-.07,0,0-.07a.11.11,0,0,1,.08-.08.21.21,0,0,1,.16,0l.1.09h.08a.81.81,0,0,1,.16,0l.1,0h.07a.22.22,0,0,0,.09-.08.24.24,0,0,0-.14-.26.59.59,0,0,0-.2-.07.25.25,0,0,0,.16-.24v0l0-.07a.22.22,0,0,0-.13-.09.54.54,0,0,0-.28,0l-.23,0-.15,0a0,0,0,0,0,0,0,.71.71,0,0,1-.11-.12c-.06-.07-.09-.17,0-.21l.05-.05s0,0,.06,0a.53.53,0,0,1,.13-.06,1.17,1.17,0,0,1,.29,0H11a.43.43,0,0,1,.17,0,2.82,2.82,0,0,0,.46.11l.47,0c.14,0,.24,0,.36,0a1.82,1.82,0,0,0,.33,0,4.81,4.81,0,0,0,.51-.06l.2-.06h0a0,0,0,0,0,0,0,1.77,1.77,0,0,0-.71-.21h-.37a1.46,1.46,0,0,0-.41.11.54.54,0,0,1-.35.07.48.48,0,0,1-.29-.17.59.59,0,0,0-.18-.13c0-.06-.08-.13-.14-.21a3.62,3.62,0,0,1-.52-1.08,1,1,0,0,1,0-.69,1.2,1.2,0,0,1,.73-.49A5.72,5.72,0,0,1,12.56,16a5.53,5.53,0,0,1,1.29.08,4.34,4.34,0,0,1,2.09.94,2.2,2.2,0,0,1,.59.7.51.51,0,0,1,0,.63,1.46,1.46,0,0,1-.68.37l-.35.1-.26,0,0,0s0,0,0,0h.05Zm-4.7,1.17h0a.41.41,0,0,1,0-.23s0,0,0,0h0l0,0h0a.21.21,0,0,1,.05-.09.18.18,0,0,1,.28,0,.11.11,0,0,1,0,.08l.13.11L11,20l-.11,0a.58.58,0,0,1-.21.07c-.07,0-.15,0-.26,0Zm2-6h0l-.32.07a2.33,2.33,0,0,1-.37,0,4.83,4.83,0,0,1-.76,0l-.38-.05L10.22,14,9.84,14l-.38-.1c-.9-.27-1.79-.59-2.69-.9l0-.06h.1l.09,0c.27-.06.28-.22.27-.29a.49.49,0,0,0-.18-.29A.64.64,0,0,0,7,12.2v.11a.48.48,0,0,1-.06.25s-.08,0,0,0H6.85s0,0,0,0l-.12,0a2.27,2.27,0,0,1-.46-.16l-.11-.07s0,0,0,0v0h0l.07,0,.22,0,.56,0a1.31,1.31,0,0,0-.5-.22,1,1,0,0,0-.31-.05h0a.36.36,0,0,1,0-.1.34.34,0,0,1,0-.1s0-.05,0-.05h0l0,0s0,.05,0,.05,0,0,0,0l.36,0,.37,0h.28a.68.68,0,0,0-.1.21.24.24,0,0,0,0,.12.23.23,0,0,0,.11.13.65.65,0,0,0,.31.07h0l.08,0a3.07,3.07,0,0,0,.36-.2.63.63,0,0,0,.26-.28s0,0,0,0H8.16a1,1,0,0,1-.33.16L7.51,12h0a.67.67,0,0,1,.17-.16,2.55,2.55,0,0,1,.5-.33l.26-.11s0,0,0,0h0a.17.17,0,0,1,0,.1,1.09,1.09,0,0,1-.09.23v0a.09.09,0,0,0,0,.05.59.59,0,0,0,.13.17l.16.12a2,2,0,0,0,.36.19,5.78,5.78,0,0,0,.81.24c.53.14,1,.31,1.55.46a.36.36,0,0,0,.29,0l0,0,.85-.76.41-.39c.14-.13.25-.25.39-.37l.45-.33a4.88,4.88,0,0,1,.51-.29,6,6,0,0,1,1-.43h0a5.33,5.33,0,0,0,.83.24,4.87,4.87,0,0,0,.89.14,2.33,2.33,0,0,0,.45,0H18a5.34,5.34,0,0,0,1.7-.39l2.43,1.79a4.91,4.91,0,0,0-.34-.61,3.27,3.27,0,0,0-.76-.8h0l1.1-1.18-1.57.9h0a2.45,2.45,0,0,0-.66-.18,3.72,3.72,0,0,0,.58-.35A2.62,2.62,0,0,0,21,9.44a1.51,1.51,0,0,0,.28-.62c0-.06,0-.11,0-.17a.43.43,0,0,0-.05-.18c-.07-.12-.12-.18-.17-.28a3.94,3.94,0,0,1-.41-1.13,2,2,0,0,1,0-.74,3.7,3.7,0,0,0,.48.06,10.42,10.42,0,0,0,1.49,0c.31,0,.64,0,1-.1s.71-.1,1.07-.17l1.12-.23c.37-.08.76-.18,1.12-.25a1.7,1.7,0,0,1,.54,0,.39.39,0,0,1,.34.22,1.26,1.26,0,0,1-.08.76c-.07.26-.19.48-.27.71s-.15.44-.21.64-.13.48-.18.68v0l-.09-.08-.07-.06a1.07,1.07,0,0,0-.27-.09h-.21a.32.32,0,0,0-.05-.21.7.7,0,0,0-.25-.22l-.09,0a.47.47,0,0,0-.17,0,1.09,1.09,0,0,0-.26,0,.38.38,0,0,0-.16-.14,1.44,1.44,0,0,0-.47-.15h-.31a1.44,1.44,0,0,0-.36.07.87.87,0,0,0-.37.29l-.2-.18a.53.53,0,0,0,0-.48A.58.58,0,0,0,23.37,7a1.07,1.07,0,0,0-.49,0A1.46,1.46,0,0,0,22.5,7l-.16,0-.16.07a1.28,1.28,0,0,0-.28.16.86.86,0,0,0-.21.22A.63.63,0,0,0,21.6,8a1.38,1.38,0,0,0,.18.46.63.63,0,0,0,.25.23,1.34,1.34,0,0,0,.39.11,2.14,2.14,0,0,0,.63-.07l.51.13L23.4,9a.65.65,0,0,0-.18.15.23.23,0,0,0,0,.22,1.48,1.48,0,0,1,0,.35.46.46,0,0,1-.16.27l-.25.29a7.49,7.49,0,0,0-.9,1.25v0H22a3.91,3.91,0,0,0,1.35-1.09,1.69,1.69,0,0,0,.17-.36.58.58,0,0,0,0-.41c0-.11-.1-.24-.13-.34s.05-.16.19-.23l.87-.35.15,0h0l0,0,.12.09.25.13.38.16-.07,0a1,1,0,0,1-.28,0l-.36.09h0s0,0,0,0a.31.31,0,0,1,0,.1.2.2,0,0,1,0,.11c0,.07-.15.12-.3.15l0,0,0,0a.77.77,0,0,0,.51-.07A.44.44,0,0,0,25,9.46a1.5,1.5,0,0,0,.42,0l.17,0,0,0-.06,0,0,0a.44.44,0,0,0-.1.15.28.28,0,0,0,.17.29,1.51,1.51,0,0,0,.31.12l-.55.38a1.09,1.09,0,0,0-.31.33l-.18.33-.4.64c-.14.22-.26.43-.41.64s-.31.4-.48.59a3.19,3.19,0,0,1-.26.26,1.63,1.63,0,0,1-.32.22,1.79,1.79,0,0,1-.37.15,2,2,0,0,1-.44.1,3.89,3.89,0,0,1-.68,0,2.53,2.53,0,0,0-.14-.29,3.56,3.56,0,0,0-1-1.1,3,3,0,0,0-.64-.38l.34.52c.2.31.45.71.67,1.12a5.71,5.71,0,0,1,.31.6,5,5,0,0,1,.25.54q.12.24.18.39l.07.14a.13.13,0,0,0-.07.09.56.56,0,0,1-.2.3,1.68,1.68,0,0,1-.4.28,4.28,4.28,0,0,1-1,.41,5.25,5.25,0,0,1-1.12.19,3.21,3.21,0,0,1-.54,0l-.26,0-.12,0-.14,0c-.75-.19-1.51-.34-2.28-.48l-.54-.09a5.22,5.22,0,0,0-.8-.21,5.31,5.31,0,0,0-.79-.09l0,0v0a3.73,3.73,0,0,0,.22-.71,2.29,2.29,0,0,0,0-.73c0-.08,0-.15,0-.21.37-.24.74-.5,1.09-.77C13.76,13.42,13.08,13.74,12.41,14.07Zm-6.28-1.8h0l0,0h0S6.11,12.28,6.13,12.27Zm.26-1.08h0a.14.14,0,0,1,.13,0h.09c-.05,0,0,0,0,0h0l.08,0c.14,0,.36.15.54.21l.26.09-.21.19v0a.86.86,0,0,0-.2-.15,1.87,1.87,0,0,0-.78-.26A.55.55,0,0,1,6.39,11.19ZM7.48,12ZM7,10.79h.23l.06,0,0,0a3.4,3.4,0,0,1,.37.27l.17.12-.27.18a.67.67,0,0,0-.06-.19,1,1,0,0,0-.57-.45H7ZM7.5,10h0a.76.76,0,0,1,.2-.24l.06-.06.07-.05A.65.65,0,0,1,8,9.51a2,2,0,0,1,.72-.26,1.39,1.39,0,0,1,.86.12.67.67,0,0,1,.28.24,1.07,1.07,0,0,1,.07.15.66.66,0,0,1,0,.14.71.71,0,0,1-.05.29.81.81,0,0,1-.69.56,2.13,2.13,0,0,1-.37,0h-.1l0,0a.32.32,0,0,0-.06-.25.61.61,0,0,0-.13-.09l-.12-.05a1,1,0,0,0-.52,0,.7.7,0,0,0-.3.15l-.06,0A.55.55,0,0,1,7.5,10Zm.2.58h0a.65.65,0,0,1,.51.05l0,0s0,0,0,0,0,0,0,0l-.17.18a.1.1,0,0,0,0,.05c0,.09,0,.17.1.22L8,11.17a.2.2,0,0,0,0-.11A.58.58,0,0,0,7.7,10.53Zm.74.87h0s0,0,0,0h0Zm5-2.24h0a3.28,3.28,0,0,1-.37-.22.22.22,0,0,0,.12.05.47.47,0,0,0,.29,0,.22.22,0,0,0,.12-.1c0-.08-.06-.13-.07-.13a.24.24,0,0,1-.13-.29.61.61,0,0,0,0-.17c0-.05-.11-.13-.13-.14l-.1,0L13.05,8a.71.71,0,0,0-.21-.08.36.36,0,0,0-.18,0,.15.15,0,0,0-.11.09.19.19,0,0,0,0,.11.21.21,0,0,0,.06.08h0l0-.08a.15.15,0,0,1,.05-.06s0,0,0,0,0,0,0,0l.11.08a.93.93,0,0,0,.2.1l.11,0s0,0,0,0,0,.1.07.16.1.21.16.34,0,0,0,0h-.13s0,0,0,0a.21.21,0,0,1,0-.06l0-.08h0L13,8.71a.21.21,0,0,0,0,.12.15.15,0,0,0,.05.08,3.07,3.07,0,0,1-.36-.27c-.29-.36-.46-.76-.21-.88s1,.29,1,.29a1.05,1.05,0,0,0,.54.6L14,8.2l.59.63a1.91,1.91,0,0,1-.45-1.39A2.51,2.51,0,0,1,15.19,5.8l-.34.83,1.74-1.22-.79,1.4,1.26-1.12-.23.94.7-.64-.27.59,1.08-1-.34,1,1.26-.53-.42.44,1.32-1.06-.52,1,1.19-.86-.14.3a1.47,1.47,0,0,0-.14.4h0s0,0,0,0,0,.1,0,.15a2.11,2.11,0,0,0,0,.25,1.24,1.24,0,0,0-1.58.59c-.14.5.21.67.33,1s-.51.39-.51.39c.35.08.41,0,.67-.15s.12-.22-.22-.58,0-.7.28-1,.86-.18,1-.15a2.44,2.44,0,0,0,0,.27,4.28,4.28,0,0,0,.25,1.2c0,.09.1.21.13.28s0,.08,0,.11,0,.09,0,.13a1.48,1.48,0,0,1-.32.49,2.71,2.71,0,0,1-.5.44,3.67,3.67,0,0,1-.62.34,5.06,5.06,0,0,1-.72.24,6.34,6.34,0,0,1-.78.13l-.19,0h-.22c-.15,0-.29,0-.42,0a7.65,7.65,0,0,1-.81-.08,6.52,6.52,0,0,1-1.54-.45A6,6,0,0,1,13.46,9.16Zm10.3-.46h0l-.08.06a2.41,2.41,0,0,0-.48-.36.22.22,0,0,0-.14,0h0c0-.07,0-.15,0-.21a.46.46,0,0,1,0-.21.6.6,0,0,1,.1-.11.47.47,0,0,0-.22,0c-.12,0-.25.17-.23.3a.34.34,0,0,0,.11.23h-.61a.6.6,0,0,1-.2-.07A.44.44,0,0,1,21.8,8a.36.36,0,0,1,.08-.19A.73.73,0,0,1,22,7.66l.21-.1a1.23,1.23,0,0,1,.23-.08l.26-.07.22,0h.12a.11.11,0,0,1,.08,0,.67.67,0,0,1,.13.32V7.8s0,0,.07.06l.47.1V8a.59.59,0,0,0-.07.35.76.76,0,0,0,.11.29Zm.82,0h0S24.6,8.69,24.58,8.69Zm-.16-.37h0a1.06,1.06,0,0,0-.28.12l-.15.1.13-.16a1.51,1.51,0,0,1,.21-.23A.6.6,0,0,1,24.56,8l.12,0h.55a.9.9,0,0,0-.32.22.42.42,0,0,0-.11.14A.79.79,0,0,0,24.42,8.32Zm.64.13h0l0,0-.05,0,.14,0,.3,0,.27-.05.07,0s0,0,0,0h.06l.24.05.21,0a.59.59,0,0,0-.3.16.31.31,0,0,0-.11.23l.32,0h.19l.07,0,.05,0h0s.05,0,.06,0l.13.13,0,0a.76.76,0,0,0-.3,0,.7.7,0,0,0-.23.06A.36.36,0,0,0,26,8.87a1.06,1.06,0,0,0-.27-.15l-.45-.17-.18-.06-.06,0S25,8.43,25.06,8.45Zm2.33,1.37h0l0,0s0,0,0,0l0,.07a.88.88,0,0,1-.19.27.18.18,0,0,1-.09.07l-.11,0h-.17l-.2,0-.33-.06-.14,0a1.11,1.11,0,0,0,.29.3.75.75,0,0,0,.22.11.88.88,0,0,0,.32.08h.07c0,.13,0,.42.09.79.08.52.22,1.2.36,1.88a9.41,9.41,0,0,1,.16,1,1.48,1.48,0,0,0,0,.21c0,.07,0,.17,0,.22a1.7,1.7,0,0,0,0,.44,1.14,1.14,0,0,0,.22.65l.06.06h0a.88.88,0,0,0-.4,0,.65.65,0,0,0-.32.19c-.11.11-.17.21-.24.29l-.06.07,0,.05-.12.09a2.16,2.16,0,0,1-.31.17l-.12.05a5.17,5.17,0,0,0-.69-.87c-.34-.34-.63-.68-1-1l-.17-.12-.24-.11-.21-.06-.3,0a3.54,3.54,0,0,0-.5.07l-.43.15a3.5,3.5,0,0,0-.71.42c-.07.05-.13.12-.2.18v-.05h0a.18.18,0,0,0-.17-.12.2.2,0,0,0-.11,0s0-.06,0-.15a1.17,1.17,0,0,0,.06-.42.89.89,0,0,0,0-.28,1.92,1.92,0,0,0,0-.32c0-.06,0-.14-.07-.21a2.76,2.76,0,0,0,1.77-.07,2.55,2.55,0,0,0,.46-.25,2.67,2.67,0,0,0,.35-.31,3.63,3.63,0,0,0,.49-.66,5.5,5.5,0,0,0,.34-.69,4.48,4.48,0,0,0,.22-.71c0-.12.06-.24.08-.36a.62.62,0,0,1,.23-.27,3.44,3.44,0,0,1,.78-.44l.05,0c0-.05,0-.11-.06-.13l0,0a1,1,0,0,1-.34-.16s0,0,0,0,0,0,0,0l.05,0,0,0,.36-.24a.93.93,0,0,1,.29-.14h.14l.08,0c.06,0,.09.05.06.14a2,2,0,0,1-.54.53,0,0,0,0,0,0,0s0,0,0,0a2.38,2.38,0,0,0,.47-.17,1.38,1.38,0,0,0,.4-.28h0Zm.07.08h0s0,0,0,0S27.48,9.91,27.46,9.9ZM4.87,7.79ZM28.16,18.48a3.57,3.57,0,0,0,.49-.28.78.78,0,0,0,.33-.42v0h.08a.62.62,0,0,0,.27-.09l.11-.09a.27.27,0,0,0,.07-.14.38.38,0,0,0,0-.15.57.57,0,0,1,0-.13.21.21,0,0,0,0-.13.25.25,0,0,0-.12-.08l-.14,0a.2.2,0,0,0,0-.13.34.34,0,0,0-.12-.09.51.51,0,0,0-.35,0s0,0,0,0a.69.69,0,0,0,.11.19s0,0,.05,0A.47.47,0,0,1,29,17S29,17,29,17s-.1,0-.14,0a1.28,1.28,0,0,0-.54.06,1.15,1.15,0,0,0-.24.14s0,0,0,0a.73.73,0,0,0,.3.1.88.88,0,0,0,.32,0l.16-.07a.45.45,0,0,0,.13-.1c.06-.05.07-.09.11-.12h0l0,.06.06.05.11,0c.05,0,.09,0,.09.07s0,0-.08.06a.91.91,0,0,0-.35.12.35.35,0,0,0-.06-.14h0s0,0,0,0a.69.69,0,0,1-.08.32l0,.05h0a1,1,0,0,1-.35.27,4.32,4.32,0,0,1-.5.2.92.92,0,0,0-.4.45c-.15.27-.24.53-.36.77a.64.64,0,0,1-.26.28,1,1,0,0,1-.49.06.85.85,0,0,1-.79-.46c-.06-.12,0-.26-.13-.44a1.1,1.1,0,0,0-.51-.33,4.89,4.89,0,0,0-.58-.19,2.53,2.53,0,0,1-.5-.15.3.3,0,0,1-.18-.2.51.51,0,0,1,0-.3.21.21,0,0,0-.1-.23.46.46,0,0,0-.48,0h0l-.19.11-.22.11c-.16.07-.33.13-.51.19a11.19,11.19,0,0,1-1.11.3,12.78,12.78,0,0,1-1.28.16l.43-.24a4.25,4.25,0,0,0,.46-.29,2.79,2.79,0,0,0,.69-.73,2.64,2.64,0,0,0,.34-.82,3.31,3.31,0,0,0,.06-.54A11.85,11.85,0,0,1,23,15.2a2.47,2.47,0,0,1,.36-.11l.35-.07s.15,0,.14,0L24,15l.13,0,.17.07a2.1,2.1,0,0,1,1,1c.1.19.18.38.27.57l.26.56a.35.35,0,0,0,.38.14h0a3.8,3.8,0,0,0,.51-.14,2.38,2.38,0,0,0,.45-.23,1,1,0,0,0,.19-.16l.08-.09.06-.08c.07-.11.13-.22.18-.29s0-.05,0,0,0,0,.07,0h.06s.05,0,.06.06a.34.34,0,0,1-.08.25,1.1,1.1,0,0,1-.27.25s0,0,0,0,0,0,0,0a.88.88,0,0,0,.69-.49l.06.08,0,0,.12,0s.09,0,.08.07,0,0-.08.05a1,1,0,0,0-.43.17,1.33,1.33,0,0,0-.15.18s0,0,0,0a.79.79,0,0,0,.32,0,.54.54,0,0,0,.27-.09l.12-.1a.27.27,0,0,0,.07-.13v-.15a.29.29,0,0,1,0-.13.19.19,0,0,0,0-.13.32.32,0,0,0-.12-.08.56.56,0,0,0-.28,0,.24.24,0,0,0-.06-.15A.65.65,0,0,0,28,16h0a.5.5,0,0,1,0-.13,1.24,1.24,0,0,1,0-.6q.06-.18.15-.39c0-.1.05-.15.07-.24a2.51,2.51,0,0,0,0-.27,4.61,4.61,0,0,0,0-.52c0-.17-.05-.35-.08-.52a8.55,8.55,0,0,0-.62-1.89,5.76,5.76,0,0,0-.39-.73,1.47,1.47,0,0,0,.29-.05.82.82,0,0,0,.53-.64.4.4,0,0,0,0-.11.09.09,0,0,0,0-.05.17.17,0,0,0-.07-.13.53.53,0,0,0-.28-.12,2.43,2.43,0,0,0-.33,0,.29.29,0,0,0,0-.14.35.35,0,0,0-.17-.25l0,0A6,6,0,0,0,27.72,8,4.92,4.92,0,0,0,28,7.36,3.25,3.25,0,0,0,28,6.59a3.4,3.4,0,0,0-.08-.82.59.59,0,0,0-.46-.34,2.4,2.4,0,0,0-.65,0,11.27,11.27,0,0,0-1.21.12l-1.14.16c-.73.11-1.4.23-2,.33l-.79.12-.61.09-.41,0h-.06a.09.09,0,0,1,0,0,4,4,0,0,0,.57-1c.4-.87-.47-1.8-1.43-2.32a6.63,6.63,0,0,0-4.14-.64c-2.24.16-4.3,1.77-4.55,3.29a2.57,2.57,0,0,0,.36,1.95c.18.29.38.51.49.67.26.4,1,1.44,1,1.44V9.19l.57.76V9.54l.34.46-.12-.48a8.08,8.08,0,0,0,.91.54l.53.23a5.56,5.56,0,0,0-1.09.24,5.12,5.12,0,0,0-.79.35L11,9.7l1.77,1.46-.21.16,0,0-1.79-.25,1.45.58-.25.25-.65.72-1.46-.23a2.85,2.85,0,0,1-.75-.22A1,1,0,0,1,8.86,12l-.09-.11,0-.06a1,1,0,0,0,.17-.23.35.35,0,0,0,0-.37,2.49,2.49,0,0,0,.47,0A1.54,1.54,0,0,0,9.92,11a1,1,0,0,0,.34-.35.76.76,0,0,0,.05-.77.87.87,0,0,0-.11-.18.64.64,0,0,0-.14-.15,1.42,1.42,0,0,0-.38-.26,2.78,2.78,0,0,0-1-.26,2.11,2.11,0,0,0-.56,0,1.53,1.53,0,0,0-.52.18,1,1,0,0,0-.2.14l-.09.08-.08.08a1,1,0,0,0-.18.38.59.59,0,0,0,.25.53h-.2l-.21.06a.59.59,0,0,0-.17.1.21.21,0,0,0-.08.16h-.2l-.13,0c-.21.07-.3.22-.29.32a.34.34,0,0,0,.07.16.73.73,0,0,0-.26.05.37.37,0,0,0-.2.15l0,0a.19.19,0,0,0,0,.07.39.39,0,0,0,.2.36h0l-.11,0-.1.08-.06.08a.26.26,0,0,0,0,.26.76.76,0,0,0,.31.26l.06,0H5.86s-.58.3-.56.45a.67.67,0,0,0,.69.45c.27,0,.57-.37.74-.61a10.07,10.07,0,0,0,1,.59,12.8,12.8,0,0,0,1.46.62l.4.12.41.11a5.78,5.78,0,0,0,.88.14,4.61,4.61,0,0,0,.91,0,3.65,3.65,0,0,0,.46-.07,2.37,2.37,0,0,0,.45-.15h0a3.28,3.28,0,0,1,.31-.2,2.11,2.11,0,0,0-.26.65,1.66,1.66,0,0,0,0,.63l-.63-.19a20.85,20.85,0,0,0-2.09-.44c-.77-.12-1.56-.19-2.14-.22-.3,0-.54,0-.72,0H7l.26,0,.7.08A17.75,17.75,0,0,1,10,15a16.56,16.56,0,0,1,2,.57l.19.07-.29,0a.39.39,0,0,0-.25-.08l-2.67.06,2,.28a1.29,1.29,0,0,0-.73.65,1.07,1.07,0,0,0,.06.85A3.54,3.54,0,0,0,11,18.5l.1.11-.09,0a1.64,1.64,0,0,0-.55,0,.91.91,0,0,0-.51.21.44.44,0,0,0-.12.17.4.4,0,0,0,0,.18.37.37,0,0,0,.18.28.77.77,0,0,0,.24.1.27.27,0,0,0-.12,0l-.08,0,0,0H9.9l-.05,0a.26.26,0,0,0-.08.25.31.31,0,0,0,.16.19.57.57,0,0,0,.31.07.2.2,0,0,0-.08.08.25.25,0,0,0,0,.31.52.52,0,0,0,.2.13,8.52,8.52,0,0,1-1.17.26c-.44.07-1,.15-1.6.2s-1.36.1-2.08.08l-.22,0c-.05,0,0,0,0,0a.78.78,0,0,1,.06-.31,5.91,5.91,0,0,0,.26-.9,4.5,4.5,0,0,0-.1-2,12.91,12.91,0,0,0-.81-2,5.84,5.84,0,0,1-.55-2.06A4.46,4.46,0,0,1,4.5,11.8,9.6,9.6,0,0,1,5.65,9.89a4.48,4.48,0,0,0,.28-.47A.76.76,0,0,0,6,9.16.69.69,0,0,0,6.1,8.9V8.78a1.57,1.57,0,0,0,0-.16A1,1,0,0,0,6,8.36a1.47,1.47,0,0,0-.51-.44,3.51,3.51,0,0,0-.51-.18L5,7.67l.23-.14.22-.1L6,7.26a16.5,16.5,0,0,1,2-.35c.62-.08,1.17-.12,1.62-.16.9-.07,1.43-.09,1.43-.09s0,0,0,0a0,0,0,0,0,0,0s-.53,0-1.45,0c-.46,0-1,0-1.66,0a12.14,12.14,0,0,0-2.15.3,5,5,0,0,0-.59.19l-.29.13-.25.14c-.08.06-.18.12-.27.2s-.11.13-.06.27A.49.49,0,0,0,4.55,8a5.35,5.35,0,0,1,.58.2.79.79,0,0,1,.5.66.39.39,0,0,1,0,.22,1,1,0,0,1-.06.22,4.81,4.81,0,0,1-.22.46c-.33.63-.73,1.28-1,2a6.09,6.09,0,0,0-.51,2.13A6.58,6.58,0,0,0,3.85,15a7.73,7.73,0,0,0,.31,1.07c.12.35.28.69.41,1a7.72,7.72,0,0,1,.29,1A5,5,0,0,1,5,19.91c0,.29-.13.57-.2.86a.75.75,0,0,0,0,.54.61.61,0,0,0,.4.25l.37,0a18.43,18.43,0,0,0,2.18-.18c.63-.1,1.17-.2,1.61-.31a7.11,7.11,0,0,0,1.2-.4l.09,0h.05l0,0c-.12.13,0,.34.18.41l.08,0h0s0,0,0,0h0l.06,0,.23.07a6.42,6.42,0,0,0,2.09-.06l1.07-.19a1.74,1.74,0,0,0,1.1-.46.44.44,0,0,0,.09-.18l.3,0a7.58,7.58,0,0,0,1.16,0,7.44,7.44,0,0,0,.76-.12,7.83,7.83,0,0,0,.78-.25,7.81,7.81,0,0,1,.81-.29,8.24,8.24,0,0,1,.89-.18c.3,0,.61-.07.91-.12l.86-.12.8-.11.7-.08c.2,0,.41,0,.61,0h.49l.44,0,0,0s0,0,0,0L24.7,19l-.48-.1a4.39,4.39,0,0,0-.66-.09,6.83,6.83,0,0,0-1.65.13l-.87.19a8.75,8.75,0,0,0-.87.27,8.79,8.79,0,0,1-1.7.47l-.81.1-.71.13-1.34.23a.32.32,0,0,0,0-.17.89.89,0,0,0-.26-.39,2.85,2.85,0,0,1-.6-.61.4.4,0,0,1,0-.15c.11,0,.26,0,.45,0l.37,0a7.39,7.39,0,0,0,.82.14c.2,0,.41,0,.61,0a4.21,4.21,0,0,0,.62,0,5.5,5.5,0,0,0,1.18-.28,6,6,0,0,0,.72-.31,9.77,9.77,0,0,0,1.71,0,8.79,8.79,0,0,0,1.25-.2,6.17,6.17,0,0,0,.61-.19h0a.85.85,0,0,0,.5.46,3.76,3.76,0,0,0,.63.15l.56.11a1.07,1.07,0,0,1,.43.17c.1.07.1.22.19.37a1,1,0,0,0,.38.36,1.8,1.8,0,0,0,.59.21l.32,0a1,1,0,0,0,.38,0,1.2,1.2,0,0,0,.51-.34,2.65,2.65,0,0,0,.46-.8A1.07,1.07,0,0,1,28.16,18.48Z"/><path class="cls-6" d="M17.41,7.09l.22.11s.08-.31-.89-.25a3.39,3.39,0,0,0-1.81.86s1.86-1,2.48-.72"/><path class="cls-6" d="M16.54,7.92c.29.07.61-.07.56-.18a.45.45,0,0,1-.05-.16l.21,0s0-.18-.39-.11a11.45,11.45,0,0,0-1.23.36l.73-.11s-.13.16.17.22"/><path class="cls-6" d="M20,7.47c.06-.13-.15-.15,0-.17a.88.88,0,0,1,.34.08c.06-.25-.42-.19-.73-.09s-.3.18-.3.18c.38-.1,0,.13.3.18A.34.34,0,0,0,20,7.47"/><path class="cls-6" d="M17.49,9.48a2.32,2.32,0,0,0,1.43-.09c.19-.17.13-.31.34-.4a5.59,5.59,0,0,1-1.44.2c-.68,0-1.23-.1-1.23-.1a1.35,1.35,0,0,0,.9.39"/><path class="cls-6" d="M17.82,9.75c-.58-.13-.94,0-.68.14s1.27,0,.68-.14"/><path class="cls-6" d="M14.57,8.83l0,0Z"/><path class="cls-6" d="M29.55,19.06h0m.61-.11,0-.06-.06-.13c0-.08-.09-.16-.14-.24a4.85,4.85,0,0,0-.28-.41,2.89,2.89,0,0,0-.37-.39,2,2,0,0,0,0,.46,2.17,2.17,0,0,0,.1.45,2.41,2.41,0,0,0,.08.25l.05.11h0a1.69,1.69,0,0,1-.33,0l-.64,0-.66.05a3.23,3.23,0,0,0,.62.19,3.87,3.87,0,0,0,.68.11,2.94,2.94,0,0,0,.42,0,1.38,1.38,0,0,0,.26,0l.17-.08a.35.35,0,0,0,.15-.17A.31.31,0,0,0,30.16,19Z"/><path class="cls-6" d="M11.67,7.52a9.41,9.41,0,0,1,.89,2.18,9.71,9.71,0,0,1-.1,1.17l.7-.68v.64l.23-.55.14.46.38-.58v.48a6.46,6.46,0,0,0,.93-.23,2.08,2.08,0,0,1,.47-.14,11.39,11.39,0,0,1-3-1.86,9.31,9.31,0,0,1-.61-.89"/></svg>