<svg id="Capa_1" data-name="Capa 1" xmlns="http://www.w3.org/2000/svg" viewBox="0 0 24.6 20.4"><defs><style>.cls-1{fill:#ffd82c;}.cls-2{fill:#f5a4c7;}.cls-3{fill:#fbc9b5;}.cls-4{fill:#231f20;}.cls-5{fill:#fccdb5;}</style></defs><title>3-6meses</title><path class="cls-1" d="M3.67,4s-1.23,0-1,.55,1.79,1.1,2.57,1,.7-.26.55-.63-.3-.58,0-.84.32-.62.14-.75a1.31,1.31,0,0,0-1.37,0C4,3.75,4.07,4,3.67,4"/><path class="cls-2" d="M10.76,7.24A5,5,0,0,1,14,6.53c2,.15,4.58.82,6,.63s2.23-.3,2.23-.3l.38,1.75a14.82,14.82,0,0,1-3.68.45c-1.33-.13-3.6-.77-4.57-.77A7.45,7.45,0,0,0,11.24,9Z"/><path class="cls-2" d="M6.7,14.77s-1.35,1.83-.84,2,1,1,1.55,1.07a9.75,9.75,0,0,0,3.53-1.14c.5-.44.38-2.36.38-2.36Z"/><path class="cls-3" d="M5.67,14.45a1.31,1.31,0,0,0-.21.59c0,.25,0,.5,0,.5s-1.92,0-2.12.27a1.25,1.25,0,0,0,0,1.2c.21.27.56.65.56.65s-.66,0-.74.16.06.23,0,.43a.86.86,0,0,0,.21.6,2.38,2.38,0,0,0,.66.57,11.31,11.31,0,0,0,2.78-.5c.11-.16.05-.34-.23-.61a1,1,0,0,1-.31-.52,3.86,3.86,0,0,0,1-.19c.48-.18.82-.51.49-1a3.28,3.28,0,0,0-1-.83,6.9,6.9,0,0,0,2.38.39A6.7,6.7,0,0,0,11,15.62c.49-.32.24.1.2.34a2.9,2.9,0,0,1-1,1.07,1.34,1.34,0,0,0-.39.31,5.74,5.74,0,0,0,1.46,0c.46-.12,1.18-.36,1.18-.36a1.21,1.21,0,0,0,.77.55c.54.11.72.24.87.7,0,0,.8.41,1.23.06s.24-.94.66-1.11.31-.27.55-.36.5-.23.32-.31,0-.15-.22-.17-.2-.08-.35-.23a.78.78,0,0,0-.64-.31.47.47,0,0,0-.51.31c0,.06-.38.45-.62.29s-.21-.15-.17-.15.21-.17.35-.25.45-.16.33-.3-.09-.19-.13-.39-.72,0-1.06-.35-.73-.36-1.09-.73a13.1,13.1,0,0,1-1.53-1.54c-.33-.48-.24-.66-.53-.68a4,4,0,0,1-.66-.1,3.94,3.94,0,0,1,.62-.61c.4-.3.8-.7.8-1s-.48-.67-.71-1-.69-.77-.61-1.19.2-.73-.36-.8A9.09,9.09,0,0,0,7.92,7C7,7,6.82,7,6.41,7.39a8.17,8.17,0,0,0-1,1.1c-.27.4-.9,1.15-.56,1.61s.47,1.14,1,1.35.62.09.62.09Z"/><path class="cls-4" d="M3.59,18.35h0"/><path class="cls-4" d="M3.32,18.41h0a0,0,0,0,0,0,0h0Z"/><path class="cls-4" d="M8.37,17.63h0L8,17.69l-.4,0H7.32a1.36,1.36,0,0,0,.55-.25A.53.53,0,0,0,8,16.85a1.89,1.89,0,0,0-.42-.59A2.17,2.17,0,0,0,7.3,16l1.07.23h.1l.12,0h.24a3.24,3.24,0,0,0,.46-.05A6.86,6.86,0,0,0,10.1,16a5.56,5.56,0,0,0,.75-.29l.26-.15-.06.2a2.06,2.06,0,0,1-.28.5,1.64,1.64,0,0,1-.44.43l-.3.17-.32.18a4.42,4.42,0,0,1-1.34.56m-1.67.11h0l-.31,0c0-.1,0-.22.05-.34A.84.84,0,0,0,6.37,17a1.28,1.28,0,0,0-.69-.56,1.69,1.69,0,0,0-.36-.11h0s0,0,0,0,.11.07.26.19A1.3,1.3,0,0,1,6,17a1,1,0,0,1,0,.41,1.14,1.14,0,0,0,0,.26.62.62,0,0,0,.13.29c.17.17.39.27.54.42s.19.34,0,.45a1.36,1.36,0,0,1-.65.15l-.79.09a7.14,7.14,0,0,1-1.3.09l-.12,0h0s0,0,0,0h0l-.06,0s0,0,0,0S3.88,19,4,19a.19.19,0,0,1,.18,0,.17.17,0,0,1,0,.06h0l0,0a.42.42,0,0,0,0-.07c0-.06-.12-.14-.28-.14l-.22,0-.08-.11-.06-.05,0,0s0,0,0,.05,0,0,0-.05a.07.07,0,0,1,.06-.06.16.16,0,0,1,.12,0l.07.06h.17a.14.14,0,0,1,.07,0H4a.13.13,0,0,0,.06-.06c0-.05,0-.13-.09-.18l-.15-.05A.17.17,0,0,0,4,18.3v0a.11.11,0,0,0,0-.05.18.18,0,0,0-.09-.07.38.38,0,0,0-.21,0,.45.45,0,0,1-.16,0H3.38s0,0,0,0A.39.39,0,0,1,3.3,18c0-.05-.06-.12,0-.15l0,0,0,0,.1,0a.41.41,0,0,1,.2,0h.11l.13,0,.32.08a2.06,2.06,0,0,0,.34,0,2.6,2.6,0,0,0,.26,0h.23l.37,0,.14,0h0a0,0,0,0,0,0,0,1.17,1.17,0,0,0-.51-.15H4.79a1,1,0,0,0-.28.08.48.48,0,0,1-.26.05.32.32,0,0,1-.2-.12.53.53,0,0,0-.13-.1l-.1-.15a2.62,2.62,0,0,1-.38-.77.69.69,0,0,1,0-.49A.8.8,0,0,1,4,15.8a4.46,4.46,0,0,1,.87-.12,4.64,4.64,0,0,1,.92.06,3.19,3.19,0,0,1,1.5.67,1.72,1.72,0,0,1,.42.5.37.37,0,0,1,0,.46,1.31,1.31,0,0,1-.48.26l-.26.07h-.2s0,0,0,0h0Zm-3.36.84h0a.32.32,0,0,1,0-.17s0,0,0,0h0v0h0a.17.17,0,0,1,0-.07.15.15,0,0,1,.1,0,.12.12,0,0,1,.1,0,.06.06,0,0,1,0,.05l.1.08,0,0-.07,0-.15,0Zm11.54-2.87h0s0,0,0,0S14.87,15.71,14.88,15.71Zm2.09.78s0-.07,0-.1l-.08-.05-.11,0a.1.1,0,0,0,0-.09.18.18,0,0,0-.09-.06.37.37,0,0,0-.25,0s0,0,0,0a.42.42,0,0,0,.08.13l0,0,.06,0s0,0,0,.05a.17.17,0,0,1-.1,0,.94.94,0,0,0-.39,0l-.17.1a0,0,0,0,0,0,0,.61.61,0,0,0,.22.07.9.9,0,0,0,.22,0l.12-.05a.31.31,0,0,0,.09-.07l.08-.09h0l0,.05,0,0,.09,0s.06,0,.06,0,0,0-.06,0a.81.81,0,0,0-.25.09.42.42,0,0,0,0-.1h0a0,0,0,0,0,0,0,.43.43,0,0,1-.06.22l0,0h0a1,1,0,0,1-.25.19l-.36.14a.68.68,0,0,0-.29.32c-.1.19-.17.38-.25.55a.52.52,0,0,1-.19.2.61.61,0,0,1-.35,0,.6.6,0,0,1-.56-.33c0-.08,0-.18-.09-.31a1,1,0,0,0-.37-.24l-.42-.13a2.46,2.46,0,0,1-.35-.11.22.22,0,0,1-.13-.14.41.41,0,0,1,0-.22c0-.05,0-.11-.07-.16a.32.32,0,0,0-.34,0h0l-.13.07-.16.08-.37.14a6.07,6.07,0,0,1-.79.21,6.86,6.86,0,0,1-.91.12l.3-.17a3,3,0,0,0,.33-.21,1.85,1.85,0,0,0,.49-.52,1.79,1.79,0,0,0,.24-.58,1.31,1.31,0,0,0,0-.39,7.54,7.54,0,0,1,.83-.37l.26-.08.25,0s.11,0,.1,0H13l.1,0,.12,0a1.54,1.54,0,0,1,.68.68c.07.14.12.28.19.41l.19.4a.24.24,0,0,0,.27.1h0a2,2,0,0,0,.37-.11,1.37,1.37,0,0,0,.32-.16.53.53,0,0,0,.14-.12l.05-.06,0-.06a1,1,0,0,0,.13-.21s0,0,0,0h0s0,0,.05,0a.06.06,0,0,1,0,.05.22.22,0,0,1,0,.18.72.72,0,0,1-.2.18s0,0,0,0,0,0,0,0a.61.61,0,0,0,.49-.34l0,.05,0,0,.09,0s.06,0,.05.05,0,0-.05,0a.55.55,0,0,0-.31.12.56.56,0,0,0-.11.13s0,0,0,0a.7.7,0,0,0,.23,0,.37.37,0,0,0,.19-.07l.08-.06a.24.24,0,0,0,.05-.1.4.4,0,0,0,0-.11.27.27,0,0,1,0-.09.13.13,0,0,0,0-.09.16.16,0,0,0-.08-.06.38.38,0,0,0-.2,0,.24.24,0,0,0-.05-.1.2.2,0,0,0-.11-.08.31.31,0,0,0-.12-.05.69.69,0,0,0-.29,0,.48.48,0,0,0-.23.13L15.1,16l0,.05,0,0-.08.06a1.14,1.14,0,0,1-.22.12l-.09,0-.11-.17a.58.58,0,0,0,.37-.18H15a.21.21,0,0,0,.12-.13.21.21,0,0,0-.08-.16.56.56,0,0,0-.15-.09l0,.13a.07.07,0,0,1,0,0h-.45l0,0s0,.06,0,.14l.17.09.1,0h.1l-.33.14a4.59,4.59,0,0,0-.36-.41c-.24-.25-.44-.49-.71-.74l-.12-.08-.18-.08L13,14.7h-.22l-.35.05-.31.11a2.21,2.21,0,0,0-.5.3.69.69,0,0,0-.13.11,1.19,1.19,0,0,0,.08-.2,1.55,1.55,0,0,0,.06-.23,2.06,2.06,0,0,0,0-.26,2.26,2.26,0,0,0-.06-.57,2.66,2.66,0,0,0-.23-.55A2.23,2.23,0,0,0,11,13a2.16,2.16,0,0,0-.47-.36s.11.18.24.44.13.28.19.45l.09.25c0,.09,0,.18.07.26s.08.36.11.53l0,.24c0,.08,0,.15,0,.22a.45.45,0,0,0,0,.12c-.06,0-.1,0-.1.07a.41.41,0,0,1-.15.22,1.55,1.55,0,0,1-.28.2,3.1,3.1,0,0,1-.72.29,3.52,3.52,0,0,1-.8.13H8.85l-.18,0-.09,0-.1,0c-.53-.13-1.07-.24-1.62-.34l-.39-.07a4.74,4.74,0,0,0-.57-.15l-.35,0a0,0,0,0,1,0-.05.17.17,0,0,1,.06-.11l.07-.08A.75.75,0,0,0,5.75,15a.63.63,0,0,0,.07-.43.44.44,0,0,0-.09-.2l-.17.17a2.48,2.48,0,0,0-.23.36l0,.09a.43.43,0,0,0,0,.12.26.26,0,0,0,0,.15.24.24,0,0,0,.06.09,3.38,3.38,0,0,0-.45,0,3.82,3.82,0,0,0-1,.17,1,1,0,0,0-.67.53.73.73,0,0,0,0,.6,2.57,2.57,0,0,0,.55.76l.07.08-.07,0a1.17,1.17,0,0,0-.38,0,.62.62,0,0,0-.37.15.51.51,0,0,0-.09.12.69.69,0,0,0,0,.13.29.29,0,0,0,.13.2.47.47,0,0,0,.17.07l-.09,0,0,0,0,0H3l0,0a.16.16,0,0,0-.06.18c0,.06.07.1.11.13a.4.4,0,0,0,.22.05.34.34,0,0,0-.06.06.19.19,0,0,0,0,.22.4.4,0,0,0,.28.12s0,0,0,0,0,0,0,0,0,.24.13.3l.06,0h.09l.17.05a4.42,4.42,0,0,0,1.49,0l.77-.14A1.23,1.23,0,0,0,7,18.94.3.3,0,0,0,7,18.62a.7.7,0,0,0-.19-.28,2.17,2.17,0,0,1-.43-.43.43.43,0,0,1,0-.11h.32l.27,0a5.18,5.18,0,0,0,.59.1l.43,0a3.15,3.15,0,0,0,.44,0,3.4,3.4,0,0,0,.85-.2,3.92,3.92,0,0,0,.51-.22,7.12,7.12,0,0,0,1.22,0c.3,0,.6-.08.9-.15l.43-.14h0a.59.59,0,0,0,.36.33,3.63,3.63,0,0,0,.45.11l.4.07a.7.7,0,0,1,.3.13c.07,0,.08.16.14.26a.75.75,0,0,0,.27.26,1.4,1.4,0,0,0,.42.15l.24,0a.6.6,0,0,0,.26,0,.79.79,0,0,0,.37-.24,2,2,0,0,0,.33-.57,1.07,1.07,0,0,1,.12-.21,1.74,1.74,0,0,0,.35-.19.6.6,0,0,0,.23-.3h.06a.35.35,0,0,0,.19-.06l.09-.07a.18.18,0,0,0,0-.1.17.17,0,0,0,0-.1Z"/><path class="cls-4" d="M7.85,9.39a1.7,1.7,0,0,0-.92.87s.93-1,1.42-.89l.19,0s0-.23-.69,0"/><path class="cls-4" d="M8.12,9.7a5.74,5.74,0,0,0-.71.44L7.86,10s0,.13.19.12.39-.15.32-.21l-.09-.1.14,0s-.05-.12-.3,0"/><path class="cls-4" d="M10.4,9.1c0-.18-.35-.06-.53.06s-.13.17-.13.17c.22-.13.07.08.26.07s.23-.09.22-.19-.15-.08-.08-.11a.73.73,0,0,1,.26,0"/><path class="cls-4" d="M7,11l0,0Z"/><path class="cls-4" d="M10.24,8.45h0a1.19,1.19,0,0,0,.08.16c-.54,0-1,.31-.88.66s.38.42.56.59-.21.35-.21.35c.27,0,.28-.07.4-.21s0-.17-.35-.36-.25-.46-.14-.7.54-.26.65-.27a1.51,1.51,0,0,0,.09.18,4.09,4.09,0,0,0,.58.77l.18.17s0,.05,0,.07l0,.09a.88.88,0,0,1,0,.39,1.15,1.15,0,0,1-.18.37,1.9,1.9,0,0,1-.31.33,2.55,2.55,0,0,1-.4.28,4.68,4.68,0,0,1-.45.2h0l-.12,0-.15,0a1.4,1.4,0,0,1-.28.06,3.56,3.56,0,0,1-.57.08,5.36,5.36,0,0,1-1.2,0A5.23,5.23,0,0,1,6.4,11.4h0l-.33-.1a.2.2,0,0,0,.11,0,.27.27,0,0,0,.18-.07.16.16,0,0,0,0-.08c0-.07-.09-.08-.1-.08a.23.23,0,0,1-.18-.17.46.46,0,0,0,0-.13s-.11-.07-.13-.07H5.86l-.14,0-.17,0a.17.17,0,0,0-.11,0,.08.08,0,0,0-.05.08.13.13,0,0,0,.05.07l.06.05h0v-.06s0,0,0-.05a0,0,0,0,1,0,0s0,0,0,0l.1,0a.47.47,0,0,0,.17,0H5.9s0,0,0,0L6,11l.22.21s0,0,0,0h0l-.05,0h0l-.05,0,0-.05H6a.14.14,0,0,0,0,.06.13.13,0,0,0,0,.08.13.13,0,0,0,.07.05,3.4,3.4,0,0,1-.34-.12c-.32-.2-.57-.44-.44-.57s.8,0,.8,0a1,1,0,0,0,.56.31l-.21-.29L7,11a1.93,1.93,0,0,1-.79-.86,1.41,1.41,0,0,1,.16-1.28l.06.61.75-1.1,0,1.07.47-1,.17.67.25-.54,0,.44.38-.87.12.75.67-.56-.14.37.54-.93,0,.75.51-.77V8a1,1,0,0,0,0,.3h0a.65.65,0,0,0,0,.13M5,11c.32.24,1.15.82,1.15.82L6,11.51l.65.43-.14-.28.38.25-.24-.3a6.69,6.69,0,0,0,.8.21,6,6,0,0,0,.61.1,3.43,3.43,0,0,0,.64,0,3.56,3.56,0,0,0,.65,0,1.52,1.52,0,0,0,.32-.06h.07a.33.33,0,0,0,0,.1.41.41,0,0,0,.16.25.44.44,0,0,0,.13.08.42.42,0,0,1-.07-.1.25.25,0,0,1,0-.22.43.43,0,0,1,0-.07,1.42,1.42,0,0,1,.28.06.92.92,0,0,1,.33.16l.08.06.07.07.13.17c.17.25.35.55.58.87a2.91,2.91,0,0,0,.41.48,1.13,1.13,0,0,0,.33.24l.35.15a2.16,2.16,0,0,1,.59.3,5.75,5.75,0,0,1,.42.43,1.37,1.37,0,0,0,.3.22,1,1,0,0,0,.41.11,2.33,2.33,0,0,1,.32,0,.23.23,0,0,1,.13.07c.05.08,0,.17-.18.2a1.39,1.39,0,0,1-.39,0,.23.23,0,0,1-.11,0s0,0,0-.06l.06,0-.08,0s-.06,0-.06.08.08.07.14.09a1.41,1.41,0,0,0,.46,0,.58.58,0,0,0,.28-.09.23.23,0,0,0,.1-.27.41.41,0,0,0-.29-.22L14.39,15a.62.62,0,0,1-.43-.25,3,3,0,0,0-.43-.47,2.71,2.71,0,0,0-.69-.38l-.34-.14a1,1,0,0,1-.22-.15,4.2,4.2,0,0,1-.41-.44c-.25-.3-.48-.59-.71-.83L11,12.13l-.1-.07L10.77,12a1.48,1.48,0,0,0-.41-.13,1.05,1.05,0,0,0-.3,0l.1-.11.09-.06h0a2.58,2.58,0,0,0,.81-.47,1.54,1.54,0,0,0,.34-.39,1.28,1.28,0,0,0,.18-.44.9.9,0,0,0,0-.46L11.5,9.8a.55.55,0,0,0-.1-.11c-.09-.08-.14-.1-.21-.16a4.89,4.89,0,0,1-.67-.7,1.86,1.86,0,0,1-.29-.58,2.12,2.12,0,0,0,.06-.74c0-.65-.94-1.14-1.77-1.34a5,5,0,0,0-3,.24,2.6,2.6,0,0,0-1.94,3A3,3,0,0,0,5,11Z"/><path class="cls-4" d="M10.29,10.42a2.09,2.09,0,0,1-1.25.4s1.32.14,1.25-.4"/><path class="cls-4" d="M9.67,11s-.48.11-.23.17.87-.15.23-.17"/><path class="cls-4" d="M17.93,8.77h0c-.35,0-.69-.11-1-.19L16,8.37s0-.07-.11-.07h-.32L15,8.24c0-.11-.14-.36-.22-.65l.41.07c.35.06.68.15,1.07.23l.38.06c0,.12.23.19.23.19a.26.26,0,0,1,0-.15c.31,0,.63.08.94.11l.24.69-.18,0M14.24,8.2h0l-.51,0-.38,0-.14-.75h0l.48,0,.51,0,.23,0a5,5,0,0,0,.21.66ZM14.32,7h0l0,.23h-.69a4,4,0,0,0-.51,0l-.09-.45Zm2,0h0c.32.07.68.13,1,.18a1.13,1.13,0,0,1-.42.48l0,0-.46-.08c-.34-.06-.71-.16-1.08-.22-.2,0-.4-.06-.6-.08a2.92,2.92,0,0,1-.08-.61l.6.08C15.59,6.82,15.94,6.91,16.3,7Zm1.46.8h0l-.61-.08a2,2,0,0,1,.48-.27Zm4.34.93a12.15,12.15,0,0,1-1.3.15q-.4,0-.87,0l-1,0-.6,0-.28-.7.46,0a17.67,17.67,0,0,0,2,0c.29,0,.55,0,.77-.08s.43-.06.59-.1l.5-.1-.51,0-.6,0-.76,0A21.15,21.15,0,0,1,18,7.82l-.24-.6.77.06.52,0h.5l.91-.06A11.14,11.14,0,0,0,21.73,7c.31-.08.47-.14.47-.14s-.18,0-.5.08-.77.08-1.32.11c-.27,0-.57,0-.88,0l-1,0c-.3,0-.61-.06-.92-.11l-.12-.28s0,.11,0,.26c-.33,0-.65-.11-1-.19s-.71-.16-1.08-.22a8.17,8.17,0,0,0-.85-.09A5.77,5.77,0,0,0,12.45,6l.1.46-.22,0a5,5,0,0,0-1.2.45,2,2,0,0,0-.37.24,3.55,3.55,0,0,1,.42-.19,4.38,4.38,0,0,1,.52-.18,5.86,5.86,0,0,1,.71-.15l.18,0,.15.69a3.37,3.37,0,0,0-.48.12,3.85,3.85,0,0,0-.69.26A3.11,3.11,0,0,0,11.1,8a2,2,0,0,0-.34.27,2.62,2.62,0,0,1,.39-.23c.14-.06.3-.14.5-.21a6.75,6.75,0,0,1,.7-.2l.43-.08.16.72v0l-.1,0a5.48,5.48,0,0,0-1.21.42,1.81,1.81,0,0,0-.39.22s.15-.07.44-.17a4.76,4.76,0,0,1,.52-.16c.21,0,.45-.1.71-.14H13a.49.49,0,0,0,.4.25c.89.11,1.16-.19.77-.31h.08l.48,0h.06a.66.66,0,0,0,.42.35.82.82,0,0,0,.63-.18l.92.22c.36.07.73.14,1.1.18l.37,0,.16.44c.52.62,1.81.31,1.42-.14s-1.25-.1-1.25-.1l-.08-.18.46,0c.35,0,.69,0,1,0s.62-.05.9-.09a8,8,0,0,0,1.29-.27,3.68,3.68,0,0,0,.45-.16S22.41,8.66,22.1,8.72Z"/><path class="cls-4" d="M3.17,4.18h0A2,2,0,0,1,3.5,4.1l.23,0A.57.57,0,0,0,4,4c.26-.18.27-.35.37-.47a.73.73,0,0,1,.34-.26A1.16,1.16,0,0,1,5,3.2h.24a1.3,1.3,0,0,1,.33.07.42.42,0,0,1,.29.26c0,.12,0,.24-.2.37a2.71,2.71,0,0,0-.24.24.49.49,0,0,0-.12.37.91.91,0,0,0,.11.34l.15.3c.07.17,0,.28-.28.32a3.12,3.12,0,0,1-.94-.09,3.68,3.68,0,0,1-.9-.31,1.16,1.16,0,0,1-.59-.5c-.07-.19.1-.32.31-.39m.2,1a8.2,8.2,0,0,0,.89.39,2.77,2.77,0,0,0,1.08.2.92.92,0,0,0,.59-.22A.42.42,0,0,0,6,5.08a2.63,2.63,0,0,0-.15-.33,1.3,1.3,0,0,1-.1-.27c0-.13.1-.27.22-.45a.47.47,0,0,0,.06-.55.82.82,0,0,0-.45-.27l-.35,0H5a1.85,1.85,0,0,0-.35,0,1.24,1.24,0,0,0-.47.24,1.85,1.85,0,0,1-.42.34l-.12,0-.18,0A1.66,1.66,0,0,0,3,3.94a.72.72,0,0,0-.36.3.35.35,0,0,0,0,.39A2.1,2.1,0,0,0,3.37,5.15Z"/><path class="cls-4" d="M5,5H5L4.92,5,4.71,5H4.65l0,0h0l0,0,0,0s0-.06,0-.11l.07-.11.18.1A1.88,1.88,0,0,0,5,5M4.65,5ZM3.5,4.4l.22,0,.23,0,.23.07a1.57,1.57,0,0,1,.23.09l.14.07-.15,0A.33.33,0,0,0,4.18,5a.17.17,0,0,0,0,.17s0,0,.06.07l.07.06a.6.6,0,0,0,.29.08.66.66,0,0,0,.23,0,.47.47,0,0,0,.23-.16l0-.06,0,0c.11.06.19.13.26.17l.1.07a.35.35,0,0,0,0-.1A1.06,1.06,0,0,0,5.4,5a1.34,1.34,0,0,0-.28-.32,1.9,1.9,0,0,0-.47-.3,2,2,0,0,0-.6-.16,2.13,2.13,0,0,0-.57,0A1.23,1.23,0,0,0,3,4.39,4.58,4.58,0,0,1,3.5,4.4Z"/><path class="cls-5" d="M7.55,13.13c-.41.11-.8,1.2-1.82,1.27s-1.24-.2-1-.87,1.44-1,1.66-1.39,0-.51.36-.6.29,0,.29,0,.3-.55.26-.75.51-.17.51.09a2.66,2.66,0,0,1-.08.77c0,.12.43-.31.5-.11a.5.5,0,0,1-.08.4s.28-.22.28,0a.38.38,0,0,1-.11.31s.3.07.25.27-.63.48-1,.6"/><path class="cls-4" d="M7.54,13.11h0a2.32,2.32,0,0,0,.76-.36l.14-.12a.43.43,0,0,1,0-.07,0,0,0,0,0,0,0s0,0,0,0a.12.12,0,0,0-.06-.1.39.39,0,0,0-.14-.05l-.06-.15v0a.14.14,0,0,0,0-.06.66.66,0,0,0,0-.14v0h0l0,0a.17.17,0,0,0,.08,0s0,0,0,0l0,0A.28.28,0,0,1,8,12a.11.11,0,0,1,0-.15H8a.39.39,0,0,0,.06-.15.2.2,0,0,0,0-.13s0,0,0,0,.1,0,.08,0a.79.79,0,0,0-.19.09l-.06,0,0,0-.13,0a.32.32,0,0,1-.12,0,.14.14,0,0,1-.07-.06c0-.05,0-.05,0-.07s0,0,0,0l0,0v0a.85.85,0,0,0,0-.17A2.25,2.25,0,0,0,7.7,11a1.41,1.41,0,0,0,0-.18s0-.08-.09-.11a.28.28,0,0,0-.18,0s-.06,0-.06.11a1.07,1.07,0,0,1-.1.38,2.83,2.83,0,0,1-.16.36L7,11.5H7s0,.06,0,.05H7l-.12,0a.57.57,0,0,0-.2.07c-.07,0,0,.19,0,.32a1.31,1.31,0,0,1-.08.21.52.52,0,0,1-.17.19,2.92,2.92,0,0,1-.4.29,4.71,4.71,0,0,0-.73.52,1.22,1.22,0,0,0-.23.29l0,.09v0s0,0,0,0l0,0c0,.06,0,.12,0,.17a.58.58,0,0,0,0,.3c0,.07.1.1.24.13a2.37,2.37,0,0,0,.48,0,1.33,1.33,0,0,0,.45-.07,2.09,2.09,0,0,0,.76-.48l.31-.31a1.07,1.07,0,0,1,.37-.28Zm0,0a1,1,0,0,0-.34.29L7,13.76a1.85,1.85,0,0,1-.71.63,1.43,1.43,0,0,1-.59.15,2.16,2.16,0,0,1-.62,0,.76.76,0,0,1-.58-.32.6.6,0,0,1,0-.45l.06-.2,0-.05v0l0,0,0-.09A1.89,1.89,0,0,1,4.9,13a5.71,5.71,0,0,1,.84-.54,2.87,2.87,0,0,0,.39-.23.94.94,0,0,0,.14-.12.65.65,0,0,0,.09-.16.85.85,0,0,0,0-.17.26.26,0,0,1,.13-.23.9.9,0,0,1,.3-.08l.15,0h.11s.09.07.06.09,0,0,0,.05a.11.11,0,0,1-.11,0s0,0,0-.06H7l.18-.35a1,1,0,0,0,.09-.35v-.05s0,0,0-.06a.22.22,0,0,1,.14-.1.53.53,0,0,1,.33,0,.29.29,0,0,1,.2.19A.71.71,0,0,1,8,11c0,.12,0,.25,0,.38a1.5,1.5,0,0,1,0,.2v.08s0,0,0,0,0,0,0-.06a.22.22,0,0,0-.07-.06.22.22,0,0,0-.11,0h0l0,0A1.72,1.72,0,0,1,8,11.38a.43.43,0,0,1,.32,0c.17.09.13.16.15.18a.48.48,0,0,1,0,.24.61.61,0,0,1-.11.21L8,11.85l.11-.07.18-.06a.3.3,0,0,1,.2,0,.22.22,0,0,1,.1.09s0,.05,0,.07,0,0,0,.05a.58.58,0,0,1,0,.18.41.41,0,0,1-.05.09l0,0s0,0-.06.06l0-.16a.69.69,0,0,1,.24.14.21.21,0,0,1,.06.21l0,.05,0,0-.07.08-.18.11a3.81,3.81,0,0,1-.83.34Z"/><path class="cls-4" d="M10.76,3.72a6.35,6.35,0,0,1,2.53.47c.77.49-1.14,1.29-3,1.31a10.4,10.4,0,0,1-2.57-.17l-.8.41-.69-1,2.59,0L8.42,5a10.83,10.83,0,0,0,2.91,0c1.9-.2,1.78-.93-.57-1.25"/><path class="cls-4" d="M4.16,10.26A2.78,2.78,0,0,1,5.05,12l.17-.59s.5.5.34.72.24-.44.24-.44v.53l.36-.52-.09.52s.4.12.48-.42-.73-.44-1.19-.76-1.2-.82-1.2-.82"/></svg>