<svg id="Capa_1" data-name="Capa 1" xmlns="http://www.w3.org/2000/svg" viewBox="0 0 23.1 18.72"><defs><style>.cls-1{fill:#fbc9b5;}.cls-2{fill:#231f20;}</style></defs><title>4-6meses</title><path class="cls-1" d="M9.43,17.71a13.65,13.65,0,0,1,.19-2.25c.17-.6.39-1.2.39-1.2s.32-.17-.92-.11-2.41-.08-2.9-.64a8,8,0,0,1-1-2.5,1.91,1.91,0,0,0-.47-.85,2.6,2.6,0,0,1-.9-.5c-.27-.31-1-1.19-1.11-1.38s-.24-.51-.1-.52a6.2,6.2,0,0,1,1,.33S2.85,7.34,3,7.24a1.66,1.66,0,0,1,.45-.15.31.31,0,0,1,.37-.3c.38,0,.3-.4.43-.39a2.6,2.6,0,0,1,.8.4,2.55,2.55,0,0,1,.29.43,2.53,2.53,0,0,1,1,.08c.34.17.48.39.48.48a16.25,16.25,0,0,0,.82,2.39,9.4,9.4,0,0,0,.78,1.32,1.31,1.31,0,0,0,.41.28h2.51l1.9-.27L12.63,11s-2.21-.83-2.39-1.63a2.44,2.44,0,0,1,.25-1.47c0-.28-.59-2-.3-2.58S18.51,3.84,19.36,5a4.48,4.48,0,0,1,.58,3,8.24,8.24,0,0,1-1.29,1.77c-.19.17-.67.12-.93.43s-.62,1.06-.24,1.46S19.29,12,19.86,13a5.75,5.75,0,0,1,.72,2.87,6.24,6.24,0,0,1-.66,1.82Z"/><path class="cls-2" d="M14.76,7.2c-1-.07-1,.27-1,.27L14,7.35c.67-.26,2.69.78,2.69.78a3.71,3.71,0,0,0-2-.93"/><path class="cls-2" d="M11.85,8.89a.79.79,0,0,0,.74.16s-.69-.12-.57-.43.52-.49.37-1A1.37,1.37,0,0,0,10.62,7V7s.85-.14,1.17.16.67.66.3,1.06-.52.48-.24.64"/><path class="cls-2" d="M14.61,7.74c-.44-.07-.42.13-.42.13h.23a.46.46,0,0,1-.06.18c0,.12.29.27.62.2s.18-.24.18-.24l.79.11a13.28,13.28,0,0,0-1.34-.39"/><path class="cls-2" d="M11.23,7.77a.36.36,0,0,0,.46.2c.27-.06-.08-.31.32-.2,0,0,0-.1-.32-.2s-.86-.17-.8.09a1.09,1.09,0,0,1,.38-.08c.12,0-.11,0,0,.19"/><path class="cls-2" d="M14.92,9.52s-.6.08-1.33.11A5.9,5.9,0,0,1,12,9.42c.23.09.17.25.38.44a2.54,2.54,0,0,0,1.55.09,1.45,1.45,0,0,0,1-.43"/><path class="cls-2" d="M13.59,10.25c-.65.15.45.31.73.15s-.11-.3-.73-.15"/><path class="cls-2" d="M17.12,9.25l0,0,0,0"/><path class="cls-2" d="M18.2,9.25a.22.22,0,0,0,.12.09.52.52,0,0,0,.28,0c.11,0,.18-.09.18-.14a.16.16,0,0,0,0-.12L18.69,9h0l0,.08a.26.26,0,0,1,0,.08.08.08,0,0,1-.07,0l-.12,0-.06,0s0,0,0,0l.17-.36a.83.83,0,0,0,.05-.18h0l.12,0A1,1,0,0,0,19,8.49l.13-.08c.05,0,0,0,0,0l.05.07,0,.09h0a.24.24,0,0,0,.05-.09.14.14,0,0,0,0-.11.13.13,0,0,0-.11-.08.29.29,0,0,0-.16,0,.79.79,0,0,0-.22.08l-.18.09-.1.05-.08,0a.14.14,0,0,0-.05.09,1.08,1.08,0,0,0,0,.19.3.3,0,0,1-.15.31s-.1.05-.06.13"/><path class="cls-2" d="M11.46,10.62Z"/><path class="cls-2" d="M5.71,7.27ZM3.44,7h0l0,0Zm17.09,6.79a3,3,0,0,0-.23-.38A3.57,3.57,0,0,0,20,13a4.3,4.3,0,0,0-.74-.66,4.07,4.07,0,0,0-1-.49,1.87,1.87,0,0,1-.74-.43.6.6,0,0,1-.19-.52,1.13,1.13,0,0,1,.25-.47,4,4,0,0,1,.32-.36.52.52,0,0,0,.11-.1l-.13.55.36-.5v.46l.63-.84v.49S19.69,9,20,8.55A3.28,3.28,0,0,0,20.9,5.7C20.62,4.05,18.38,2.31,16,2.13s-3.46.13-4.5.69-2,1.58-1.56,2.53l.07.14,0,.17a4.81,4.81,0,0,0,0,.76,3.9,3.9,0,0,0,.12.75,3,3,0,0,0,.12.36l.07.19,0,.17a1.71,1.71,0,0,1-.09.73,1.19,1.19,0,0,0-.06.77.77.77,0,0,0,.08.19l.13.18a2.51,2.51,0,0,0,.33.32,6,6,0,0,0,.81.54,4.92,4.92,0,0,0,.56.29,5.32,5.32,0,0,0,.64.23l.25.06.12.18a1.14,1.14,0,0,1,.09.16l-2.11,0-1.11,0c-.34,0-.69,0-1,.07a5.56,5.56,0,0,1-1.22-1.57,4.22,4.22,0,0,1-.18-.45,3.81,3.81,0,0,1-.13-.45,2.32,2.32,0,0,1-.06-.44c0-.16,0-.31,0-.48a1.51,1.51,0,0,0-.45-1A1.33,1.33,0,0,0,6.06,7a2.87,2.87,0,0,0-.41,0,1,1,0,0,0-.3.08h0a1,1,0,0,0-.2-.31,1.14,1.14,0,0,0-.49-.34,1.11,1.11,0,0,0-.44-.09.89.89,0,0,0-.22,0,.59.59,0,0,0-.17,0,.29.29,0,0,0-.16.13.22.22,0,0,0,0,.24.88.88,0,0,0-.2,0H3.36a.27.27,0,0,0-.22.11.19.19,0,0,0,0,.18l.08.09,0,0a.6.6,0,0,0-.19,0C3,7.15,3,7.21,3,7.27s0,.05,0,.06l0,.06a1.34,1.34,0,0,0,.25.37,1.73,1.73,0,0,0-.38-.16l-.16,0H2.55a.39.39,0,0,0-.24.12.29.29,0,0,0,0,.09v.06a.84.84,0,0,0,.18.29c.13.16.27.3.41.45.28.3.55.6.82.91a3.65,3.65,0,0,0,.44.44,1.64,1.64,0,0,0,.59.3,6.66,6.66,0,0,0,.41,1.95,4.17,4.17,0,0,0,.48,1,1.88,1.88,0,0,0,.16.23,2.2,2.2,0,0,0,.2.23l.23.21.28.2,0,0h.06l.44.07.44,0c.3,0,.59.05.88.05a12.29,12.29,0,0,0,1.49-.07,2.59,2.59,0,0,0-.19.33,6,6,0,0,0-.24.83,4.3,4.3,0,0,0-.06,1.58,2,2,0,0,0,.17.51,1,1,0,0,0,.11.18,2.73,2.73,0,0,1,0-.7,15,15,0,0,1,.27-1.52c.05-.27.11-.56.17-.8a2.93,2.93,0,0,1,.28-.67,3.15,3.15,0,0,1,.44-.63,2.42,2.42,0,0,0-.71.54,3.42,3.42,0,0,0-.22.28c-.5,0-1,0-1.5-.09l-.83-.11-.41-.07-.33-.07-.18-.15c-.07-.06-.13-.13-.19-.19a1.66,1.66,0,0,1-.16-.21A1.66,1.66,0,0,1,6.11,13c-.1-.14-.18-.29-.27-.44s-.16-.31-.22-.46c-.14-.32-.26-.63-.37-.95S5,10.5,5,10.18l0-.07H4.87a1.18,1.18,0,0,1-.6-.24,2.51,2.51,0,0,1-.44-.42,8.7,8.7,0,0,1-.69-.94L2.82,8a.47.47,0,0,1,0-.1L3,8l.26.17c.18.12.35.25.51.38L4.31,9l-.22-.58A1.34,1.34,0,0,0,3.86,8l-.09-.1-.09-.08-.19-.17a3.42,3.42,0,0,1-.33-.33l0,0,0,0s0,0,0,0a.65.65,0,0,1,.21,0l0,0a1.36,1.36,0,0,1,.12.12c.18.16.37.33.54.46a2.69,2.69,0,0,0,.31.2.81.81,0,0,0-.05-.3,1.57,1.57,0,0,0-.38-.57L3.75,7a.89.89,0,0,0-.16-.09l.19,0h0s0,0,.06,0a1,1,0,0,0,.35.18l0,0h0l.1.07.18.14c.23.19.41.31.41.31a1.27,1.27,0,0,0-.15-.41,1.86,1.86,0,0,0-.14-.2A.41.41,0,0,0,4.59,7l-.1-.07-.09,0a.63.63,0,0,1-.18-.12h0l.24,0a1.89,1.89,0,0,1,.46.2,3.57,3.57,0,0,1,.37.22c0,.05-.08.1-.07.15a.27.27,0,0,0,0,.12c.17.18.33.26.47.39l.06.06a0,0,0,0,1,0,0,.42.42,0,0,1-.09.18,1.18,1.18,0,0,0-.28.45A.55.55,0,0,0,5.55,9l0,0a.47.47,0,0,1,0-.43A1.5,1.5,0,0,1,6,8.2.69.69,0,0,0,6.18,8a.25.25,0,0,0,0-.19l-.1-.14-.27-.25H6a.82.82,0,0,1,.4.18,1.44,1.44,0,0,1,.38.78,3.17,3.17,0,0,1,.07.46A2.85,2.85,0,0,0,7,9.28a4.92,4.92,0,0,0,.5.89l.6.85c.2.28.38.57.6.85l0,.05H8.8a10.46,10.46,0,0,0,1.12,0c.38,0,.75,0,1.13-.06s.74-.06,1.11-.11.66-.1,1-.17l.09.23a.8.8,0,0,1,0,.46.57.57,0,0,1-.06.15l0,.06,0-.05a.92.92,0,0,0,.13-.14,1,1,0,0,0,.17-.49,1.63,1.63,0,0,0,0-.51v0l.28,0h.36l.38,0,.34-.08a4.26,4.26,0,0,0,.63-.22,5.14,5.14,0,0,0,1.06-.6l0,0a9.88,9.88,0,0,1-1.19.42,6,6,0,0,1-.61.15l-.31,0-.29,0h-.31l-.3,0q-.3,0-.6-.12a5.44,5.44,0,0,1-.57-.19,3.25,3.25,0,0,1-.53-.24h0l-.42-.22-.41-.23a3.18,3.18,0,0,1-.35-.26.66.66,0,0,1-.14-.15.53.53,0,0,1-.11-.15A.54.54,0,0,1,10.24,9a1.19,1.19,0,0,1,.09-.36,3.81,3.81,0,0,0,.22-.75,1.26,1.26,0,0,0,0-.39c0-.14,0-.25-.06-.38s-.09-.48-.13-.73l0-.26a1.12,1.12,0,0,0,.3.35l-.37-.8v0l1.35,1L11,5.55l1.45,1.16L12,6.22l1.38.57L13,5.69l1.17,1.1-.29-.63.75.69-.24-1,1.36,1.22-.85-1.53,1.89,1.34L16.44,6A2.75,2.75,0,0,1,17.6,7.73a2.17,2.17,0,0,1-.48,1.52l.63-.69L17.67,9a1.12,1.12,0,0,0,.58-.64s.71-.51,1.12-.32-.19,1.08-.74,1.44l-.35.24,0,0a2.46,2.46,0,0,0-.46.22,2.87,2.87,0,0,0-.46.33,1.29,1.29,0,0,0-.38.55.72.72,0,0,0,.24.74,2.07,2.07,0,0,0,1,.43,2.59,2.59,0,0,1,1,.39,2.14,2.14,0,0,1,.6.68,2.69,2.69,0,0,1,.19.38,2.14,2.14,0,0,1,.16.39,3.24,3.24,0,0,1,.16.75,7,7,0,0,1,0,1.36c0,.21-.05.39-.07.56s-.05.3-.07.42-.07.38-.07.38h.05a3.89,3.89,0,0,0,.6-1.33,4.36,4.36,0,0,0,.12-.68,3.3,3.3,0,0,0-.31-1.57Z"/><path class="cls-2" d="M16.52,15.06a2.25,2.25,0,0,0-.28.46,2.78,2.78,0,0,0-.22.54,2.92,2.92,0,0,0-.11,1.06,1.84,1.84,0,0,0,.11.48,3.58,3.58,0,0,0,.18-.46c.1-.28.21-.64.32-1s.2-.73.28-1,.07-.26.09-.34a.72.72,0,0,0,0-.14l-.12.11a3,3,0,0,0-.27.3"/><path class="cls-2" d="M20.2,8a6.33,6.33,0,0,0-.91,3c.13,1.21.45,1.36.45,1.36s-.88-.67-.92-1.1a1.06,1.06,0,0,0,.19.63,1.36,1.36,0,0,1-.82-.67c-.26-.53.12.65.12.65l-.57-.77c-.06-.08.19,1,0,.81s-.86-1.31,0-1.74A6.4,6.4,0,0,0,20.2,8"/></svg>