<svg id="Capa_1" data-name="Capa 1" xmlns="http://www.w3.org/2000/svg" viewBox="0 0 25.59 17.64"><defs><style>.cls-1{fill:#f5a4c7;}.cls-2{fill:#fbc9b5;}.cls-3{fill:#231f20;}</style></defs><title>5-6meses</title><rect class="cls-1" x="1.39" y="1.42" width="11.31" height="11.12"/><path class="cls-1" d="M20.06,11.18c-.83.31-1.63,1.24-1.61,1.62s3.18,1.64,3.2,1.68-.43,1.35-.43,1.35,3.09,0,3.22-1.18.21-2.5.21-2.5Z"/><path class="cls-2" d="M11.85,13.83l-1-.62c-.41-.23-.81-.61-1-.61s-.33.32-.44.38-.17-.17-.18.11-.18.1-.15.27-.2.19-.08.36.1,0,.18.29a4.81,4.81,0,0,0,1.23,1.19,2,2,0,0,0,1.56.48,4,4,0,0,1,.66-.27,10.65,10.65,0,0,0,2.52-.11.78.78,0,0,1,.37-.3,10.84,10.84,0,0,0,3.05,1,10.3,10.3,0,0,0,3.54-.42c.19-.1,1.12-.57.84-1.18A3,3,0,0,0,21.74,13c-.29-.09-.13-.15-.72-.24s-1.48-.2-1.48-.2l-1-.19L22.06,12h2.13s-.73-1.7-1-2.17A17.2,17.2,0,0,0,21.25,7.5c-.44-.36-.88-.49-.95-.78A13.31,13.31,0,0,0,20.22,5a1.67,1.67,0,0,0-.94-1.45c-.41-.22-2.4-1.92-3.48-1.44S14.35,3,14.46,3.74s.77.89.57,1.28-.52.28-.42.48a1.08,1.08,0,0,0,.42.34s-.17.27.08.36.32,0,.32,0l.17,0a.37.37,0,0,1-.26.25c-.2,0-.35.13-.26.19a1.94,1.94,0,0,0,.26.13s-.28.25.37.38a8.13,8.13,0,0,0,1.65.07,5.53,5.53,0,0,0-.1.55c0,.06,0,.68,0,.71a.73.73,0,0,1-.28.38,2.87,2.87,0,0,1-1.17-.18,9.08,9.08,0,0,1-2.21-1.3A1,1,0,0,0,12.84,7c-.3,0-.43,0-.54.08s-.57,0-.58.24.15.16.32.31.2.15.13.31-.5.3-.5.3-.2,0,.19.15-.3.09-.1.19a3.05,3.05,0,0,0,.9.1.32.32,0,0,0,.17.45c.32.15-.26,0,.61.17a2.19,2.19,0,0,1,1.29.63.39.39,0,0,1,.23.33c0,.24-.16.44-.09.71s.41.29.5.32.39.22.73.39,1.87.68,1.87.68-1.65-.22-2.08-.22a2.74,2.74,0,0,0-1.58.17c-.73.34-.22.15-.31.1s-.19-.27-.32-.31-.13-.1-.34,0-.68.54-.62.74a3.36,3.36,0,0,1,.09.39Z"/><path class="cls-3" d="M24.4,13.83h0A2.36,2.36,0,0,1,24.09,15a1.29,1.29,0,0,1-.52.42,2.24,2.24,0,0,1-.75.2c-.16,0-.34,0-.52.06a2.14,2.14,0,0,0,.76-.52.83.83,0,0,0,.2-.41.67.67,0,0,0-.06-.42,2.72,2.72,0,0,0-.4-.72,2.42,2.42,0,0,0-.32-.32,2,2,0,0,0-.42-.28,2.75,2.75,0,0,0-.5-.2,3.45,3.45,0,0,0-.54-.11,6.71,6.71,0,0,0-1.09,0h-.15l-1-.19a2.7,2.7,0,0,1,.41-.06l.87-.07c.58,0,1.16-.06,1.74-.11s1.15-.1,1.72-.12a2.23,2.23,0,0,1,.76.06c.09,0,.1.06.11.18l0,.3a9.61,9.61,0,0,1,0,1.2m-3.53,2h0l-.41,0a2.82,2.82,0,0,1-.41,0,7.48,7.48,0,0,1-.82,0l-.4,0-.4,0L18,15.73l-.39-.08c-.25-.06-.51-.13-.75-.21a7.07,7.07,0,0,1-.69-.27c-.22-.11-.44-.22-.62-.33a.34.34,0,0,0-.34,0l0,0-.08.06L15,15a1.71,1.71,0,0,1-.29.08c-.21,0-.44.06-.67.08a11.37,11.37,0,0,1-1.43,0h0a.3.3,0,0,0-.25.1.49.49,0,0,1-.14.15.66.66,0,0,1-.17.12.49.49,0,0,1-.19,0h-.1l-.1,0a2.13,2.13,0,0,1-.27-.09l-.27-.12c-.17-.07-.35-.15-.52-.24a3.72,3.72,0,0,1-.48-.27,1.1,1.1,0,0,1-.21-.14l-.09-.08-.09-.08a2.55,2.55,0,0,1-.29-.38l-.13-.2.06,0h0a.18.18,0,0,0,.07-.05c0-.05,0-.11-.06-.13l-.16-.07a.23.23,0,0,1-.07-.06h0l.11.06a.17.17,0,0,0,.14,0,.07.07,0,0,0,0-.12h0l-.1-.08-.1,0,0,0-.06-.06v0s0,0,0,0h0a.26.26,0,0,1,.12,0,1.17,1.17,0,0,1,.25.07h0a.11.11,0,0,0,.11,0s0-.06,0-.08l-.17-.06-.08,0-.08-.07a0,0,0,0,1,0,0s0,0,0,0v0h0l.11,0,.1.06.08,0,.05,0h0a.12.12,0,0,0,.1,0,0,0,0,0,0,0-.07.78.78,0,0,0-.18-.11s-.06-.06,0-.09.05-.06.1-.09l.19-.07c.07,0,.06,0,.1,0a1.06,1.06,0,0,0,.15.14.6.6,0,0,0,.22.09l.19.07a3.92,3.92,0,0,1,.64.42c.19.16.38.32.56.49a.2.2,0,0,0,.19,0h0a7.59,7.59,0,0,0,1.74-1,5.07,5.07,0,0,1,.82-.46,1.94,1.94,0,0,1,.45-.14l.25,0h.27c.72,0,1.46.08,2.19.14l1.09.12a.71.71,0,0,0,.18.08c.19,0,.36,0,.54,0l.53,0a6.58,6.58,0,0,1,1,.13,2.7,2.7,0,0,1,.85.34,2.15,2.15,0,0,1,.58.54,2.75,2.75,0,0,1,.34.66.51.51,0,0,1,0,.29.5.5,0,0,1-.14.28,3.28,3.28,0,0,1-1.56.78h0s0,0-.05,0ZM9.32,13.92Zm-.14-.35Zm3.72-.67h0a.65.65,0,0,1,.16-.21,1.54,1.54,0,0,0,.14-.13l.15-.13a.49.49,0,0,1,.13-.12l.09-.08s-.05,0,0,0h0l0,0,.06,0,.15.11a5.34,5.34,0,0,0-.53.33l-.48.34Zm6.56-.26h-.07a4.41,4.41,0,0,1-.52,0l-.1,0ZM15.82,11.5h0a5.15,5.15,0,0,1-.62-.32A.69.69,0,0,1,15,11s0,0,0,0l0,0a.17.17,0,0,0,0-.19.33.33,0,0,1,0-.1l.06-.06a.52.52,0,0,0,.15-.32v-.17h.2c.11,0,.2-.07.2-.15h0a.52.52,0,0,1,0-.18h0l.15.12.19.11a.22.22,0,0,1,.12.06.39.39,0,0,1,.08.1,1.07,1.07,0,0,0,.19.29l.1.07.14,0a1.07,1.07,0,0,0,.25,0,4,4,0,0,0,.71-.12v0a.7.7,0,0,0,.1.34h.05a1.79,1.79,0,0,0,.22-.31,1.4,1.4,0,0,0,.15-.3,2.41,2.41,0,0,1,.07-.37c.06-.25.15-.5.21-.69a2.33,2.33,0,0,1,.12-.31v0h0l-.23.29a4.74,4.74,0,0,0-.42.66,3.14,3.14,0,0,0-.18.37.73.73,0,0,0,0,.25h-.11V10.3c0-.09,0-.22,0-.36a3.36,3.36,0,0,0-.05-.51c0-.09,0-.18-.05-.28a1.63,1.63,0,0,0-.07-.3.78.78,0,0,1,0-.3.6.6,0,0,1,.08-.29A2.33,2.33,0,0,0,17.4,8a2.29,2.29,0,0,0,0-.25,1.63,1.63,0,0,0,0-.36s0,0,0-.07h.28l.3,0h0s0,0,0,0a.33.33,0,0,1,0,.17h0c0,.06.05.11.13.11a.14.14,0,0,0,.16-.08.43.43,0,0,0,0-.25.28.28,0,0,0-.1-.14l-.13-.05h-.12l-.3,0h-.3a7.86,7.86,0,0,1-1.19,0l-.28,0L15.59,7a.3.3,0,0,1-.16-.11s0-.11,0-.2a.16.16,0,0,0,0-.08l-.06,0,0,0-.09,0s0,0,.06,0a.45.45,0,0,0,.31-.13.48.48,0,0,0,.13-.21,0,0,0,0,0,0,0,.08.08,0,0,0-.1,0h0a2.09,2.09,0,0,1-.42,0h-.1l-.09,0A.07.07,0,0,1,15,6,.38.38,0,0,1,15,5.9a.17.17,0,0,0,.06-.09c0-.08-.07-.08-.1-.1a1.19,1.19,0,0,1-.31-.19c0-.06.06-.16.15-.23A1.19,1.19,0,0,0,15.11,5a.37.37,0,0,0-.06-.34,2.75,2.75,0,0,0-.17-.29,2.92,2.92,0,0,1-.3-.58,1,1,0,0,1,0-.6l.1-.22.66,1,0-1,.4.63-.2-.81.75.91.37.56-.16-1,.53.89,0-.68.68.83.46.47L18,4.37l.48.54-.1-.52c0-.42,0-.24,0-.24a.91.91,0,0,0,.23.52c0,.34-.34.72-.34.72l.35-.25v0h0l-.12.33c.43-.29.52-.39.91-.39h0l0,0a.36.36,0,0,1,0,.18A.93.93,0,0,1,19,6a1.13,1.13,0,0,1-.35.09h-.15v0l.15,0a1.14,1.14,0,0,0,.43,0,1.36,1.36,0,0,0,.49-.27,1.14,1.14,0,0,0,.31-.45.52.52,0,0,0,0-.21.43.43,0,0,1,.2.45L20,6a.62.62,0,0,0-.11.44.68.68,0,0,0,.16.37c0,.05.11.1.16.15l.16.12a7.09,7.09,0,0,1,.59.46A9.92,9.92,0,0,1,22.85,9.7c.25.37.49.76.71,1.14a8.86,8.86,0,0,1,.5,1l-.53,0a14.53,14.53,0,0,0-1.77.1c-.58.06-1.16.15-1.73.24l-.85.15c-.14,0-.29,0-.43.09l-.05,0-.15,0,.21,0a2.3,2.3,0,0,0,1.63-1.29l.22-.52A7.43,7.43,0,0,0,21,9.5a1.21,1.21,0,0,0-.12-1.09h0l0,0a1.34,1.34,0,0,1-.14,1c-.15.34-.34.67-.52,1a5.78,5.78,0,0,1-.55,1,1.87,1.87,0,0,1-1,.65l-.16,0h-.15a1.53,1.53,0,0,1-.33,0l-.73-.17A12.52,12.52,0,0,1,15.82,11.5Zm-1.42-2h0a2.29,2.29,0,0,0-.31-.09,1.59,1.59,0,0,1-.33-.09,3.42,3.42,0,0,0-.36-.14,1.73,1.73,0,0,1-.31-.08A.56.56,0,0,1,12.9,9s0,0,0-.07a1,1,0,0,1,0-.17,1.43,1.43,0,0,1,.06-.26l0,0a.44.44,0,0,0,.26.22h0a0,0,0,0,0,0,0,.25.25,0,0,1-.11-.23.28.28,0,0,1,0-.12l.08-.1,0,0c0-.05,0-.11-.1-.12h0A1.17,1.17,0,0,1,12.81,8a1.69,1.69,0,0,1-.27-.13h0a3.92,3.92,0,0,1,.48,0h0a.19.19,0,0,0,.16-.07s0-.12-.08-.15a2.55,2.55,0,0,1-.71-.31.53.53,0,0,1-.1-.12,0,0,0,0,1,0-.08.67.67,0,0,1,.36,0,1.5,1.5,0,0,1,.39.08l.15.07.11.1a4.76,4.76,0,0,0,.5.51,3.34,3.34,0,0,0,.68.45,2.32,2.32,0,0,0,.39.18l.4.14a5.69,5.69,0,0,0,.86.22l.45.06a1.82,1.82,0,0,0,.33,0,1.34,1.34,0,0,0-.07.27c0,.1,0,.2,0,.3a1.18,1.18,0,0,0,0,.28A.92.92,0,0,0,17,10a1.4,1.4,0,0,0,.23.36l.08.07a4.21,4.21,0,0,1-.5,0,.74.74,0,0,1-.17,0l0,0s0,0,0,0-.06-.14-.11-.25a.48.48,0,0,0-.11-.17.8.8,0,0,0-.19-.13L16,9.7l-.12-.1-.09-.07a.5.5,0,0,0-.22-.07.46.46,0,0,0-.24.06.23.23,0,0,0-.11.09.44.44,0,0,0-.1.19h0a.51.51,0,0,0-.29.08,1.24,1.24,0,0,0-.23-.21A1.57,1.57,0,0,0,14.4,9.54Zm10.25,2.61a.4.4,0,0,0-.19-.17,1.35,1.35,0,0,0-.33-.09,8.86,8.86,0,0,0-.39-1.09c-.18-.4-.4-.79-.62-1.18A8.91,8.91,0,0,0,21.34,7.4a5.81,5.81,0,0,0-.6-.49l-.14-.12-.1-.1a.46.46,0,0,1-.1-.23.52.52,0,0,1,.06-.26c.55-.51,2.13-.4,2.22-2.08s-2.1-2.8-3.17-2.93a6.83,6.83,0,0,0-3.45.37L16,1.6a2,2,0,0,0-.42.2h0A2,2,0,0,0,14.19,4l.17-.51a1,1,0,0,0,.05.35,2.66,2.66,0,0,0,.32.6c.06.1.12.19.17.29s.1.19.06.27-.15.15-.24.24a.86.86,0,0,0-.14.13.17.17,0,0,0,0,.19,1,1,0,0,0,.35.24l0,0,0,0a.46.46,0,0,0-.09.17.18.18,0,0,0,.13.18l.13,0h.13a1.84,1.84,0,0,0,.33,0,.27.27,0,0,1-.07.08.22.22,0,0,1-.18.08.29.29,0,0,0-.19.07.12.12,0,0,0,0,.17.44.44,0,0,0,.15.08h0v0s0,.13,0,.22a.39.39,0,0,0,.24.19,1.67,1.67,0,0,0,.3.08l.31,0a10.31,10.31,0,0,0,1.11,0,1.19,1.19,0,0,0-.2.41A.93.93,0,0,0,17,8c0,.09,0,.18.06.28a.7.7,0,0,1,0,.29.88.88,0,0,1-.06.27,3.25,3.25,0,0,1-.7-.17l-.75-.3-.36-.16L14.86,8a5.54,5.54,0,0,1-.63-.38c-.2-.14-.35-.3-.57-.46l-.2-.12L13.22,7a2.59,2.59,0,0,0-.48,0,1.1,1.1,0,0,0-.47.1.15.15,0,0,0-.06.2.53.53,0,0,0,.12.14l.21.17h0l-.17,0-.11,0a.35.35,0,0,0-.13.08.15.15,0,0,0,0,.12c0,.05,0,.06,0,.09A.62.62,0,0,0,12.2,8l0,0h0a2.83,2.83,0,0,0,.4.17l.3.06v.14l-.13.05a.62.62,0,0,0-.32.27.58.58,0,0,0-.09.23.34.34,0,0,0,0,.16.41.41,0,0,0,.16.16,1.05,1.05,0,0,0,.41.14,1.34,1.34,0,0,0,.41,0,.7.7,0,0,1,.31,0,.72.72,0,0,1,.25.16l.21.17.23.12.39.13a.06.06,0,0,0,0,0v.2a.27.27,0,0,1,0,.2l0,0,0,0a.23.23,0,0,0,0,.11.34.34,0,0,0,.07.16s0,0,0,.07a.22.22,0,0,0,0,.1.19.19,0,0,0,0,.09,1.06,1.06,0,0,0,.31.21c.22.1.42.22.66.31.46.18.92.36,1.39.52l.46.16A17.79,17.79,0,0,0,15.39,12h-.3l-.29,0a4,4,0,0,0-.58.16l-.25.12a.43.43,0,0,0,0-.14l0-.07v0l-.05,0a.29.29,0,0,0-.16-.09.49.49,0,0,0-.24,0,.9.9,0,0,0-.29.12l-.18.15-.14.15-.12.15a.43.43,0,0,0-.07.35.52.52,0,0,0,.13.24l-.22.16a4,4,0,0,1-.72.43c-.17-.14-.35-.27-.53-.4a4.54,4.54,0,0,0-.72-.42,1,1,0,0,0-.23-.07.48.48,0,0,1-.16-.07.63.63,0,0,1-.13-.11.26.26,0,0,0-.13-.08.39.39,0,0,0-.16,0l-.22.08c-.07,0-.15.09-.17.16v0H9.3a.2.2,0,0,0-.13,0,.12.12,0,0,0-.05.07.15.15,0,0,0,0,.07l0,.07c-.07,0-.19.05-.2.11s0,0,0,.07a.14.14,0,0,0,0,.07.18.18,0,0,0,.06.09H9s0,0,0,0h0a.32.32,0,0,0,0,.09c0,.1.1.15.15.19h0a.23.23,0,0,0-.07.1A.16.16,0,0,0,9,14c0,.05.06.13.1.2a2.86,2.86,0,0,0,.29.42l.09.1.11.1.23.17a4.27,4.27,0,0,0,.51.3,5.28,5.28,0,0,0,.53.27l.28.12a3.11,3.11,0,0,0,.3.12l.2,0h.23a1.23,1.23,0,0,0,.41-.1,1.09,1.09,0,0,0,.3-.18l.12-.12a10.29,10.29,0,0,0,1.36,0,4.91,4.91,0,0,0,.77-.09l.39-.11.18-.09a5,5,0,0,0,.52.25c.25.1.5.19.77.27s.53.14.81.2a7.38,7.38,0,0,0,.84.12l.42,0h.43a7.87,7.87,0,0,0,.84,0c.28,0,.55-.08.83-.12h0v0c0,.08.11.14.23.14.33,0,.61-.05.9-.09l.87-.12a2.78,2.78,0,0,0,.84-.29,1.52,1.52,0,0,0,.55-.51,2,2,0,0,0,.2-.6c0-.21,0-.41.06-.61l.09-1.2,0-.3A.59.59,0,0,0,24.65,12.15Z"/><polygon class="cls-3" points="14.19 4 14.19 3.99 14.16 4.06 14.19 4"/><path class="cls-3" d="M15,4.38a.67.67,0,0,1,.77-.13,7.48,7.48,0,0,0,1,.31,5.16,5.16,0,0,0-1.37-.49C15,4,15,4.38,15,4.38"/><path class="cls-3" d="M15.41,4.66c0-.06.12,0,.12,0a.3.3,0,0,0,.3.23c.24,0,.08-.22.08-.22l.44.07a2.9,2.9,0,0,0-.73-.19c-.28,0-.21.14-.21.14"/><path class="cls-3" d="M15.48,5.71c-.08,0-.1-.06-.18,0s-.14.09.08.09.28-.13.17-.2,0,.13-.07.14"/><path class="cls-3" d="M12.3,7.28a2.14,2.14,0,0,0-.31.06s-.06,0,0,0,0,0,0,0,0,0,0,0v0l.17.11.24.12.06,0s.05,0,0,.08L12.35,8V8s0,0,0,0a1.3,1.3,0,0,0-.35.11.29.29,0,0,0-.13.08l0,0s0,0,0,0,0,0,0,0h.6c.13,0,.25.06.25.15s-.06.14-.17.16h0l-.35.08H12l0,0c.05-.05,0-.13,0-.11h0l0,0,.13,0,.18,0,.41.08,0,0h0a1.5,1.5,0,0,1-.67.1.93.93,0,0,1-.27,0l-.06,0,0,0,0,0c-.06,0-.16-.15-.08-.24a.25.25,0,0,1,.09-.09l.07,0,.13-.05a2.67,2.67,0,0,1,.47-.07l0,.32-.41,0-.21,0-.12,0a.25.25,0,0,1-.12-.11.13.13,0,0,1,.05-.14l.1-.05.19-.06.35-.13-.06,0c0-.1,0-.19,0-.29l.09.12a1.1,1.1,0,0,1-.32-.11.61.61,0,0,1-.27-.24.19.19,0,0,1,0-.07v0a.27.27,0,0,1,.09-.12A.46.46,0,0,1,12,7.16a.9.9,0,0,1,.35.09v0h0"/><path class="cls-3" d="M1.39,8A7.62,7.62,0,0,1,2,7.4a4.91,4.91,0,0,1,.6-.49l.14-.12a.43.43,0,0,0,.09-.1A.41.41,0,0,0,3,6.46.69.69,0,0,0,2.73,6L2.49,5.7l-.11-.12-.14-.12a3.2,3.2,0,0,1-.85-1.1v-1A1.66,1.66,0,0,1,1.65,3,4.32,4.32,0,0,1,3,2a6.17,6.17,0,0,1,1.51-.59H6.79q.32.08.63.18A2.39,2.39,0,0,1,8.16,2,2.36,2.36,0,0,1,9,3.19a1.07,1.07,0,0,1,0,.64,3.13,3.13,0,0,1-.32.6l-.18.29c-.05.09-.1.19-.06.27s.16.15.25.24a.86.86,0,0,1,.14.13.17.17,0,0,1,0,.19,1,1,0,0,1-.35.24s-.05,0,0,0l0,0A.34.34,0,0,1,8.55,6a.16.16,0,0,1-.13.18l-.12,0H8.17a2.44,2.44,0,0,1-.48,0l.1-.07a.62.62,0,0,0,.11.17.26.26,0,0,0,.19.08.32.32,0,0,1,.19.07.12.12,0,0,1,0,.17.44.44,0,0,1-.15.08h0a0,0,0,0,0,0,0s.05.13,0,.22a.46.46,0,0,1-.24.19,1.92,1.92,0,0,1-.3.08l-.31,0A8.44,8.44,0,0,1,6,7.31H5.72l-.3,0h0l0,0a.49.49,0,0,0,0,.17h0c0,.06,0,.11-.11.12a.16.16,0,0,1-.18-.08h0a.53.53,0,0,1,0-.25.23.23,0,0,1,.1-.14l.13-.05h.12l.3,0H6a7.88,7.88,0,0,0,1.19,0l.28,0L7.78,7c.08,0,.14-.07.15-.11s0-.11,0-.2a.2.2,0,0,1,0-.08l0,0,0,0,.09,0s0,0-.07,0a.47.47,0,0,1-.31-.13.8.8,0,0,1-.13-.21s0-.06.06-.07h0a1.93,1.93,0,0,0,.42,0h.1l.08,0c.05,0,.06,0,.06-.08a.28.28,0,0,0-.07-.13.31.31,0,0,1-.05-.09c0-.08.07-.08.1-.1a1.19,1.19,0,0,0,.31-.19c0-.06-.06-.16-.15-.23A1.19,1.19,0,0,1,8.26,5a.37.37,0,0,1,.06-.34,2.75,2.75,0,0,1,.17-.29,3.57,3.57,0,0,0,.3-.58,1,1,0,0,0,0-.6,2.18,2.18,0,0,0-.81-1,2.26,2.26,0,0,0-.67-.36,6.74,6.74,0,0,0-.83-.18,4.42,4.42,0,0,0-1.7,0,5.51,5.51,0,0,0-1.5.58,3.88,3.88,0,0,0-1.17.87,1.08,1.08,0,0,0-.21,1.09,3,3,0,0,0,.78,1l.14.13.13.14.24.27a.89.89,0,0,1,.29.68.7.7,0,0,1-.17.37c0,.05-.1.1-.15.15L3,7.12c-.2.15-.4.3-.59.46a9.78,9.78,0,0,0-1,1Z"/><path class="cls-3" d="M4.67,5.18l-.14-.06A2.53,2.53,0,0,0,4.2,5H4.06L4,5H4l0,0-.05,0,0,0h0l0,0a.28.28,0,0,0,0,.18.88.88,0,0,0,.5.67,1.13,1.13,0,0,0,.35.09h.15v0l-.16,0a1.16,1.16,0,0,1-.43,0A1.36,1.36,0,0,1,4,6a.94.94,0,0,1-.23-.16,1.17,1.17,0,0,1-.32-.45.66.66,0,0,1,0-.28l0-.07a.36.36,0,0,1,0-.09.59.59,0,0,1,.09-.11l0,0h0l0,0,0,0,.1,0A.86.86,0,0,1,4,4.7a.79.79,0,0,1,.38.09.61.61,0,0,1,.27.26.49.49,0,0,1,0,.11Z"/><path class="cls-3" d="M9.18,4a2,2,0,0,0-1.3-2.19,8.19,8.19,0,0,0-1-.39H3a4.65,4.65,0,0,0-1.57,1v3C2,5.84,2.7,5.91,3,6.27l-.12-.54.55.62-.19-.7a.45.45,0,0,1,.48-.53c.57,0,.61,0,1.11.38l-.14-.38.39.27S4.68,5,4.72,4.67a.87.87,0,0,0,.22-.52s0-.18,0,.24l-.09.52.47-.54-.09.47.46-.47.68-.83,0,.68.54-.89-.16,1,.37-.56.74-.91-.19.81L8,3,8,4,8.78,2.8,9.2,4.06Z"/><path class="cls-3" d="M8.33,4.38a.68.68,0,0,0-.77-.13,7.48,7.48,0,0,1-1,.31,5,5,0,0,1,1.36-.49c.48,0,.39.31.39.31"/><path class="cls-3" d="M8,4.66S8,4.5,7.75,4.52A2.9,2.9,0,0,0,7,4.71l.44-.07s-.17.19.08.22a.3.3,0,0,0,.3-.23s.09,0,.12,0"/><path class="cls-3" d="M8.07,5.68c.14.05.14.09-.08.09s-.29-.13-.17-.2,0,.13.07.14.1-.06.18,0"/><path class="cls-3" d="M6.71,8.9a2.54,2.54,0,0,0,.72-.18l.67-.29.32-.15.3-.16a4.43,4.43,0,0,0,.56-.35c.18-.13.31-.27.51-.42A.78.78,0,0,1,10,7.23a1.05,1.05,0,0,1,.21-.06,2.28,2.28,0,0,1,.45,0,.84.84,0,0,1,.43.11.14.14,0,0,1,0,.18.69.69,0,0,1-.11.13,2,2,0,0,1-.59.43l-.12-.21a2.19,2.19,0,0,1,.53-.07H11a.25.25,0,0,1,.11,0,.21.21,0,0,1,.11.08.17.17,0,0,1,0,.11.15.15,0,0,1,0,.08,1.06,1.06,0,0,1-.09.11l0,0h0a1.65,1.65,0,0,1-.36.16,1.43,1.43,0,0,1-.43.08l.11-.15a.32.32,0,0,1,.06.15.29.29,0,0,1,0,.16.47.47,0,0,1-.26.24h0v0a.24.24,0,0,0,.09-.22.49.49,0,0,0,0-.11l-.07-.09c-.05,0,0-.1,0-.13l0,0h0a1.66,1.66,0,0,0,.29-.1L10.83,8l0,0s0,0,0,0h0s0,0,0,0l0,0h-.54a.15.15,0,0,1-.17-.1.13.13,0,0,1,.09-.11,2.09,2.09,0,0,0,.64-.29c.07-.07.14-.15.08-.19a.61.61,0,0,0-.32,0,1.21,1.21,0,0,0-.34.08l-.14.07a.75.75,0,0,0-.09.09A4.57,4.57,0,0,1,9.63,8,3.28,3.28,0,0,1,9,8.39a2.26,2.26,0,0,1-.35.17l-.37.14a5.92,5.92,0,0,1-.78.21L7.12,9a1.56,1.56,0,0,1-.43,0v0h0Z"/><path class="cls-3" d="M8.62,10a.8.8,0,0,1,.3-.35,1,1,0,0,1,.2-.12,2,2,0,0,1,.29-.09,1.58,1.58,0,0,0,.31-.09,2,2,0,0,1,.33-.12l.27-.09a.5.5,0,0,0,.15-.08s0,0,0,0V9a.75.75,0,0,0,0-.15.72.72,0,0,0-.08-.35l0,0h0l.16.05a.74.74,0,0,1,.29.25A.49.49,0,0,1,11,9v.06a.28.28,0,0,1,0,.08.39.39,0,0,1-.14.17,1,1,0,0,1-.38.14,1.23,1.23,0,0,1-.39,0,.54.54,0,0,0-.27,0,.59.59,0,0,0-.23.14,1.45,1.45,0,0,1-.18.17l-.2.11L8.82,10l-.17,0s0,0,0,0h0"/><path class="cls-3" d="M11,7.42a.67.67,0,0,1,.33-.09.37.37,0,0,1,.24.06s.07.06.08.12a.24.24,0,0,1,0,.1.63.63,0,0,1-.24.22.92.92,0,0,1-.29.11l.09-.12a2.61,2.61,0,0,0-.06.27L11.09,8a3,3,0,0,0,.32.12l.17.06.09,0s.07.05.05.13-.08.09-.11.11l-.11,0a.79.79,0,0,1-.2,0c-.12,0-.24,0-.37,0L11,8.3a2.17,2.17,0,0,1,.42.07l.12.05.07,0a.22.22,0,0,1,.09.08c.06.08,0,.21-.07.23l0,0,0,0h0l0,0a.92.92,0,0,1-.26,0,1.61,1.61,0,0,1-.22,0,1.59,1.59,0,0,1-.39-.1s0,0,0,0h0L11,8.66l.16,0,.1,0,0,0h0a.08.08,0,0,0,0,.11s0,0,0,0h0l-.31-.07h-.05c-.12,0-.19-.11-.15-.2a.24.24,0,0,1,.24-.11h.52s0,0,0,0a0,0,0,0,1,0,0s0,0,0,0l0,0-.11-.08A1,1,0,0,0,11,8.16l0,0v0l-.13-.26a.08.08,0,0,1,0-.08l.07,0a1.48,1.48,0,0,1,.21-.13.57.57,0,0,0,.15-.09s0,0,0,0h0s0,0,0,0A1,1,0,0,0,11,7.45s0,0,0,0h0"/><path class="cls-3" d="M12.74,6.93c-.06-.92-.09-1.84-.12-2.75s0-1.84,0-2.76l.19.14H9.92l-2.84,0c-1.9,0-3.79-.07-5.69-.07l.08-.06c0,.47,0,.94,0,1.41v1.4L1.55,7c.06,1.87.07,3.74.09,5.6l-.25-.16H7.08c1.89,0,3.79,0,5.68.06l-.15.1c0-1.09.08-2.19.13-3.28,0,0,0,0,0,0h0c.05,1.09.1,2.19.12,3.28,0,.06-.06.11-.14.11h0c-1.89,0-3.79,0-5.68.06H1.39c-.13,0-.24-.07-.24-.16h0c0-1.86,0-3.73.08-5.6l.07-2.8,0-1.4c0-.47,0-.94,0-1.41,0,0,0,0,.08,0h0c1.9,0,3.79-.05,5.69-.07.94,0,1.89,0,2.84,0h2.84c.11,0,.19.06.19.13h0c0,.92,0,1.84,0,2.76S12.84,6,12.79,6.93h0"/><path class="cls-3" d="M22.68,4a5.89,5.89,0,0,0,0,2.3,5.24,5.24,0,0,0,.53.92L22,6.08l.37,1-.5-.84.09,1-.62-.73v.82l-.42-.57.07.64s-.69-.51-.71-.72-1,.56-1,.56a6.61,6.61,0,0,0,1-1.29A12.57,12.57,0,0,1,22.68,4"/></svg>