<svg id="Capa_1" data-name="Capa 1" xmlns="http://www.w3.org/2000/svg" viewBox="0 0 31.32 20.76"><defs><style>.cls-1{fill:#71bad0;}.cls-2{fill:#99d9ec;}.cls-3{fill:#fbc9b5;}.cls-4{fill:#231f20;}</style></defs><title>6-6meses</title><path class="cls-1" d="M11.62,9.23h3.57a5.64,5.64,0,0,1-1.23.7,3.8,3.8,0,0,1-.93.24Z"/><path class="cls-2" d="M4.43,13.59,1.77,15.51s-.69-.1-.69.25S.66,19.1,2.19,19.45a12.63,12.63,0,0,0,3.14.27l3.34-1.1s1.13-2.26.26-3a30.57,30.57,0,0,0-4.5-2.08"/><path class="cls-3" d="M13.2,10.08s-.08-.36.2-.48.33.28.33.28a5.91,5.91,0,0,0,1.9-.69,5.57,5.57,0,0,1,2.13-1c.8-.16,3.85-.49,4.66-1S29.2,3.93,29.2,3.93l1.45-.64V7.76L24.31,9.64a9.79,9.79,0,0,1-1.46,2.07,8.49,8.49,0,0,1-2.3.65,3.08,3.08,0,0,1-.57,0s-.7,1.23-1.08,1.32-.58.21-.72,0A3.92,3.92,0,0,1,18,12.49s-.75,1.31-1.06,1.2a.91.91,0,0,1-.45-1,8.77,8.77,0,0,0,.13-1.2A8,8,0,0,1,15.09,13c-.41.13-.67-.16-.54-.47s.82-1.62.82-1.62L14,11.25a5.34,5.34,0,0,1-.9.9,10.3,10.3,0,0,1-2,.11c-.47,0-1.78-.08-1.78-.08L9,13.85s1,.07,1.06-.19.72-.88,1-.69.27.29.5.35.09,0,.27.39-.15.56-.14.63.35.19-.42.52a12.8,12.8,0,0,1-1.57.54,10.1,10.1,0,0,1,2.64.12c.19.25.45.61.64.61s1.28-.07,1.71-.14.68-.28.68,0-.09.29-.1.57-.44.46-.44.46,1.25-.13,1.33.05,0,.13,0,.3.31.46.06.71-.16.46-.68.45a11.15,11.15,0,0,1-1.64-.31A19,19,0,0,1,12,19.3a33.38,33.38,0,0,1-3.82.53,9.85,9.85,0,0,1-3.81-.12c-1-.37-1.87-1.06-1.38-1.84a2.75,2.75,0,0,1,2.72-1.35c1.57,0,2.67.17,2.67.17s.26-.44,0-.54a17.41,17.41,0,0,0-2.16-.27c-.43,0-4.67-.49-4.67-.49s-.25,0,1-1.87A41.79,41.79,0,0,1,5.72,9.71c.19-.36-.1-.67-.17-1s-.66-1,1.18-2A14.91,14.91,0,0,1,10.6,4.94c.49,0,1.58.17,1.65.41A2.1,2.1,0,0,1,12,7.08c-.51.71-.51.74-.08.93s.17.42,0,.53-.26.3-.21.45-.41,0-.47.1.05.26.23.39-.25.06-.24.27,0,.46-1.19.43,2.15.5,2.15.5a.54.54,0,0,1,.53-.36c.46,0,.47-.24.47-.24"/><path class="cls-4" d="M10.74,7.91a.6.6,0,0,0,.33-.32s.16,0,.15.08.24-.29-.3-.17a1.06,1.06,0,0,0-.71.47l.34-.17s-.05.2.19.11"/><path class="cls-4" d="M16.26,17.68l-.53.32L16,18a.32.32,0,0,0,.26-.28"/><path class="cls-4" d="M16.08,18.22c.25,0,.25-.35.25-.35l-.67.41.42-.06"/><polygon class="cls-4" points="12.59 6.7 12.56 6.62 12.56 6.63 12.59 6.7"/><path class="cls-4" d="M13,11.89h0a2.05,2.05,0,0,1-.38.16l-.17,0H10.29l-.81.05s0-.09-.05-.13a2.09,2.09,0,0,1-.08-.34.75.75,0,0,1,0-.33A1.55,1.55,0,0,0,9.45,11a1.1,1.1,0,0,0,0-.27,1.51,1.51,0,0,0-.22-.46H9.8a6,6,0,0,0,.94.27c.2,0,.4.08.6.11l.61.08.25-.08v0l0,0,.07-.06.18-.12a4.67,4.67,0,0,1,.45-.23,2.43,2.43,0,0,0-.6,0,1,1,0,0,0-.28.1l-.13.07-.47-.1-.61-.08-.27,0a3.25,3.25,0,0,0,.52-.12.6.6,0,0,0,.16-.08.14.14,0,0,0,.06-.17.62.62,0,0,0-.08-.12h0c.09,0,.25-.07.3-.19a.33.33,0,0,0,0-.14v0a10.58,10.58,0,0,0,1.5.78,1.57,1.57,0,0,0-.3.2.51.51,0,0,0-.16.58.86.86,0,0,0,.21.26l.13.09a.61.61,0,0,0,.23.1,1.9,1.9,0,0,0,.67,0l-.14.09a7.44,7.44,0,0,1-.65.39M9.15,12h0a2.37,2.37,0,0,0-.08.34c0,.11,0,.21-.05.32a2.84,2.84,0,0,0,0,.56,2.64,2.64,0,0,0,0,.4v.12H8.84a1,1,0,0,0,0-.28,2.65,2.65,0,0,0-.21-.41,5.81,5.81,0,0,0-.46-.73L7.88,12h0s0,0,0,0,.06.14.13.35.17.48.24.76.05.29.08.41a2.3,2.3,0,0,0,.15.35,1.88,1.88,0,0,0,.25.33h0s0,0,0,0l0-.1a.9.9,0,0,0,.06-.27v0a4.77,4.77,0,0,0,.8.13,1.26,1.26,0,0,0,.27,0l.16,0a.38.38,0,0,0,.11-.08,1.32,1.32,0,0,0,.21-.32.31.31,0,0,1,.08-.11l.14-.07a1.43,1.43,0,0,0,.21-.12.84.84,0,0,0,.17-.13h0a.36.36,0,0,1,0,.21h0s0,0,0,.05a.25.25,0,0,0,.29.1h.15v.2a.53.53,0,0,0,.17.34.21.21,0,0,1,.06.08.29.29,0,0,1,0,.11.23.23,0,0,0,0,.21.08.08,0,0,1,0,0s0,0,0,0a.84.84,0,0,1-.26.21,5,5,0,0,1-.69.35,13.36,13.36,0,0,1-1.59.49c-.27.07-.55.13-.82.18A2.06,2.06,0,0,1,8,15.7H7.81l-.18,0a2.11,2.11,0,0,1-1.11-.73,5,5,0,0,1-.61-1.09c-.21-.37-.41-.75-.59-1.12a1.55,1.55,0,0,1-.15-1.15s0,0,0,0,0,0,0,0A1.37,1.37,0,0,0,5,12.75a9.78,9.78,0,0,0,.43,1.18l.25.58a2.83,2.83,0,0,0,.37.58,2.72,2.72,0,0,0,1.34.82l-.26,0c-.68-.12-1.37-.22-2.06-.31s-1.39-.16-2.1-.2c-.36,0-.71,0-1.08,0l-.3,0a11.21,11.21,0,0,1,.56-1.16c.25-.43.51-.86.8-1.29A11.05,11.05,0,0,1,5,10.57a8,8,0,0,1,.68-.52,1,1,0,0,0,.47-.74.79.79,0,0,0-.13-.4l-.11-.45A.49.49,0,0,1,6.17,8a1,1,0,0,0,0,.24,1.2,1.2,0,0,0,.35.49,1.5,1.5,0,0,0,.25.19A1.69,1.69,0,0,0,7.09,9a1.25,1.25,0,0,0,.49,0l.17,0V9H7.57a1.12,1.12,0,0,1-.39-.1,1.06,1.06,0,0,1-.57-.74.47.47,0,0,1,0-.21l0,0,0,0h0c.44,0,.54.1,1,.42l-.13-.36h0v0l.4.27s-.42-.41-.38-.79a1,1,0,0,0,.25-.59s0-.19,0,.27l-.11.59L8.27,7l-.1.52L8.68,7l.76-.92,0,.75.59-1L9.81,7l.42-.62.82-1-.21.9.45-.7,0,1.14a3.09,3.09,0,0,0-1.42.81s1.08-.87,1.89-.6c0,0-.09-.25-.47-.21L12,5.5a1.72,1.72,0,0,1,.16.43,1.07,1.07,0,0,1-.07.66c-.11.22-.26.43-.38.65a1.11,1.11,0,0,0-.16.35c0,.14.07.28.19.36a1.54,1.54,0,0,1,.29.27c.07.09,0,.16-.17.23l-.21.09-.12.06a.1.1,0,0,0,0,.13.67.67,0,0,0,.11.18h0L11.52,9l0,.06-.24,0h-.5s-.08,0-.09,0,0,.07.06.08a3,3,0,0,1,.58.18l0,0s0,0,0,0a.14.14,0,0,1,0,.09s-.09.07-.19.1a.17.17,0,0,0-.11.08.08.08,0,0,0,0,.1s.06.07.06.1,0,.06-.12.09l-.3.07-.32,0c-.44,0-.88,0-1.32,0l-.33,0-.34,0H8.27a.45.45,0,0,0-.14.06.37.37,0,0,0-.12.15.66.66,0,0,0,0,.28H8a.17.17,0,0,0,.19.09c.09,0,.15-.07.13-.13h0a.39.39,0,0,1,0-.18l0-.06h0l.33,0H9s0,0,0,.08a2.09,2.09,0,0,0,0,.41,2.6,2.6,0,0,0,0,.26,1.82,1.82,0,0,0,.11.3,1,1,0,0,1,.09.33A1,1,0,0,1,9.15,12Zm1.14,3.56h.48l.47,0a3.61,3.61,0,0,1,.93,0l.21.07s.11.07.15.11a.6.6,0,0,1,.09.13l0,.15a.08.08,0,0,0,.07.07h0a3.91,3.91,0,0,0,.77.17,3.32,3.32,0,0,0,.83,0l.21-.05.17,0a1.47,1.47,0,0,1,.26-.05h0a.16.16,0,0,1-.05.1l0,0c-.05,0,0,.11,0,.15l.15.1.05,0s0,0,0,0h0l-.05,0a.25.25,0,0,0-.09.09s0,0,0,0c-.22,0-.44-.08-.68-.1a4.07,4.07,0,0,0-.52,0l-.29,0a1.58,1.58,0,0,0-.31.09l-.05,0h0l0,0h0l-.09.05-.17.09a1.3,1.3,0,0,1-.35.11,3.55,3.55,0,0,1-.87,0,8,8,0,0,0-1,0,8.39,8.39,0,0,0-.86.1,3.44,3.44,0,0,0-.68-.24q-.33-.09-.66-.15h0a.59.59,0,0,0,.06-.37.29.29,0,0,0-.12-.19.73.73,0,0,0-.26-.09L7.8,16H8a2,2,0,0,0,.49-.09,7,7,0,0,0,.81-.26l.17-.06ZM15,16.1h0S15,16.09,15,16.1Zm-9.1.25h0a4,4,0,0,0-.69,0,5.1,5.1,0,0,0-.68.13,4,4,0,0,0-.61.23,4.22,4.22,0,0,0-.52.32,2.62,2.62,0,0,0-.42.39,2.38,2.38,0,0,0-.3.43,1.5,1.5,0,0,0-.11.22l0,.06s0,0,0,.06l0,.14a1.13,1.13,0,0,0,0,.26,1.19,1.19,0,0,0,.11.26,1.52,1.52,0,0,0,.41.43,3.16,3.16,0,0,0,.54.31h0c-.26,0-.52-.05-.75-.09A2.36,2.36,0,0,1,2,19.23a1.41,1.41,0,0,1-.52-.57A2.15,2.15,0,0,1,1.24,18q0-.36-.06-.72a8.52,8.52,0,0,1,0-1.43c0-.16.37-.19.69-.2s.68,0,1,.05c.69.05,1.38.12,2.07.19l2.07.21,1,.12c.36,0,.36.28.33.5-.19,0-.41,0-.61-.07l-.63-.1-.64-.1A4.76,4.76,0,0,0,5.88,16.35Zm7-8.41h0a5.46,5.46,0,0,1,.89-.49l.76-.35c.34.25.69.49,1.06.72s.67.39,1,.57l-.12,0a4.82,4.82,0,0,0-1.18.5L15,9.14c-.46,0-.92,0-1.38,0-.29,0-.57,0-.85.06l-.51,0a3.85,3.85,0,0,0,1.52-.68,2.34,2.34,0,0,0,.32-.31,1.78,1.78,0,0,0,.23-.33,1.38,1.38,0,0,0,.15-.36,2.41,2.41,0,0,0,.07-.37h0l-.09.17a.91.91,0,0,1-.09.17c-.07.11-.13.22-.21.33l-.26.3-.31.28a4,4,0,0,1-.75.48,4.73,4.73,0,0,1-.87.32h0l0-.09L12,8.94a2.6,2.6,0,0,1,.21-.36A2.29,2.29,0,0,1,12.87,7.94Zm-1.18.86h0s0-.07-.06-.1v0l.1,0,.21-.1.05,0A4,4,0,0,0,11.69,8.8Zm-.27.49h0a.83.83,0,0,0-.22-.08h.07l.17,0v0A.11.11,0,0,0,11.42,9.29Zm2.93.27h0a4.38,4.38,0,0,1-1,.48.66.66,0,0,0-.19.09A7.93,7.93,0,0,0,12,9.28c.24,0,.48,0,.72,0l.86,0c.42,0,.84,0,1.27-.08ZM29.83,8l0,0L24.34,9.62l0,0a8.52,8.52,0,0,0-.77,1l-.34.5a1.7,1.7,0,0,1-.17.23,2.28,2.28,0,0,1-.22.22,3.24,3.24,0,0,1-1.3.53,7.78,7.78,0,0,1-1.53.15.15.15,0,0,0-.12,0,4.64,4.64,0,0,1-.62.92,1.81,1.81,0,0,1-.44.39.73.73,0,0,1-.26.09h-.12l-.11-.05-.12-.1a.47.47,0,0,0-.06-.09.79.79,0,0,1-.06-.22,2.18,2.18,0,0,1,0-.25,2.1,2.1,0,0,1,.06-.24,3.47,3.47,0,0,1,.5-1h0s0-.11-.07-.13a.18.18,0,0,0-.2,0h0l-.4.54c-.13.18-.27.36-.39.55s-.22.38-.34.56a.78.78,0,0,1-.18.21h0a.38.38,0,0,1-.1-.09l-.05,0,0-.06a.43.43,0,0,1-.05-.13.82.82,0,0,1-.05-.28,2.28,2.28,0,0,1,.05-.58,5.62,5.62,0,0,1,.33-1.18c0-.06,0-.12-.1-.15a.26.26,0,0,0-.26.06h0a4.5,4.5,0,0,1-.66.74c-.27.23-.52.5-.78.72a1.54,1.54,0,0,1-.4.28l0-.05v-.09a1.79,1.79,0,0,1,.23-.82,7.61,7.61,0,0,1,.48-.82l.14-.2.07-.1,0,0h0s0,.05,0-.06a.14.14,0,0,0,0-.13.24.24,0,0,0-.16-.06.28.28,0,0,0-.23.06v0l0,0a1.85,1.85,0,0,0-.19.07l-.27.11a7.65,7.65,0,0,1-1.16.32,1.52,1.52,0,0,1-.5,0s0,0-.05,0L13.17,11a.42.42,0,0,1-.11-.14c-.1-.17.16-.38.51-.51.17-.08.37-.13.58-.23a3.57,3.57,0,0,0,.55-.3c.34-.21.62-.44.93-.62a4.49,4.49,0,0,1,1-.45c.79-.22,1.63-.39,2.47-.56s1.69-.32,2.53-.46h0l.07,0,3.73-1.87C26.74,5.2,28,4.56,29.2,3.93l0,0L25.33,5.67,21.55,7.45c-.85.13-1.69.27-2.53.42s-1.51.28-2.25.47a10,10,0,0,0-.85-.74,11.44,11.44,0,0,0-1.18-.85l0,0a.35.35,0,0,0-.3,0,8.69,8.69,0,0,0-.91.52c-.27.2-.52.41-.77.62l-.59.5a.15.15,0,0,0,0-.18,1.47,1.47,0,0,0-.31-.3c-.11-.09-.18-.17-.15-.27a1.07,1.07,0,0,1,.16-.32c.13-.22.27-.43.39-.66a1.08,1.08,0,0,0,.13-.58l.19.57A2.23,2.23,0,0,0,11.12,4.2l-.07,0a1,1,0,0,0-.23-.12l-.33-.13A7.57,7.57,0,0,0,6.64,3.5C5.45,3.64,3,4.79,3.11,6.76S5,8.51,5.59,9.09a.47.47,0,0,1,.07.22.64.64,0,0,1-.33.51c-.22.17-.46.36-.67.55a10,10,0,0,0-2,2.48A12.21,12.21,0,0,0,2,14.19a7.73,7.73,0,0,0-.44,1.22l-.19,0a1.08,1.08,0,0,0-.29.13.33.33,0,0,0-.12.24c0,.49.08,1,.11,1.44a5.19,5.19,0,0,0,.21,1.45,1.44,1.44,0,0,0,.53.67,2.55,2.55,0,0,0,1,.4c.37.07.7.11,1,.16s.68.08,1.08.1a.3.3,0,0,0,.22-.09,8.07,8.07,0,0,0,2.14.16A8.57,8.57,0,0,0,8.44,20c.4-.07.8-.15,1.21-.2s.82-.09,1.22-.11c.2,0,.41,0,.64-.05a4.15,4.15,0,0,0,.63-.16,7.21,7.21,0,0,0,1.91-1c.33,0,.67.07,1,.09l.29,0h.32a.86.86,0,0,0,.52-.23v0h0a1,1,0,0,1-.5.1,1.9,1.9,0,0,1-.25,0l-.27-.05L14,18.08a.3.3,0,0,0-.21,0l0,0-.91.54a8.59,8.59,0,0,1-1,.48,3.05,3.05,0,0,1-.51.17c-.17.05-.37.08-.57.12-.41.07-.8.16-1.21.21s-.82.08-1.23.09l-.61,0-.61,0c-.41,0-.81,0-1.21,0-.2,0-.41,0-.61,0a2.43,2.43,0,0,1-.27,0,.2.2,0,0,0-.14-.11h0a6.31,6.31,0,0,1-1.08-.4A2.72,2.72,0,0,1,3.39,19a1.27,1.27,0,0,1-.3-.32A.87.87,0,0,1,3,18.55a.54.54,0,0,1,0-.18l0-.09a.06.06,0,0,1,0,0l0,0a1.36,1.36,0,0,1,.1-.21,1.61,1.61,0,0,1,.25-.37,2.63,2.63,0,0,1,.33-.34A3.23,3.23,0,0,1,4.18,17a3.92,3.92,0,0,1,.51-.22,2.63,2.63,0,0,1,.57-.13,3.94,3.94,0,0,1,.6-.05,4.5,4.5,0,0,1,.63,0l.65.06h.08l1,.29.68.2c.21.07.43.14.61.22s.57.34.86.51h0a.18.18,0,0,0,.19,0,.08.08,0,0,0,0-.13h0c-.22-.18-.43-.36-.66-.53a4.18,4.18,0,0,1,.71,0c.31,0,.61.06.92.1a3.59,3.59,0,0,0,1,0,2.63,2.63,0,0,0,.52-.14l.22-.1.1-.06h0l0,0a.28.28,0,0,1,.13,0h.18a3.27,3.27,0,0,1,.44,0l1,.09h.5a.66.66,0,0,1,.32.07c.08.05.1.11,0,.17s-.32.08-.36.14,0,0,0,0h0l0,0s0,0,0,0h.23l.2,0-.45.3c.76-.06.6-.28.54-.34a.22.22,0,0,0,.15-.16.24.24,0,0,0-.09-.21.84.84,0,0,0-.53-.2l-.23,0-.22,0-.09,0,.05,0h0a.21.21,0,0,0,.1-.06.14.14,0,0,0,0-.15.3.3,0,0,0,0-.1l0-.06a.39.39,0,0,0,.14-.26.28.28,0,0,0-.18-.24.66.66,0,0,0-.32-.07,1.68,1.68,0,0,0-.47.06l-.17.05-.15,0a2.7,2.7,0,0,1-.65.07l-.65,0,0-.11-.15-.16-.21-.12-.22-.09L12,15.41l-.24-.06-.25,0a2.3,2.3,0,0,0-.26,0,4.85,4.85,0,0,0-1,0l-.16,0,.75-.29c.26-.1.48-.23.73-.34a1.92,1.92,0,0,0,.35-.23.31.31,0,0,0,.05-.1.19.19,0,0,0,0-.12s0,0,0-.07A.38.38,0,0,0,12,14a.27.27,0,0,0,0-.12l0-.05,0,0a.31.31,0,0,1,0-.23v-.22a.21.21,0,0,0-.05-.15.58.58,0,0,0-.38-.14h0a.43.43,0,0,0-.11-.21,1.06,1.06,0,0,0-.12-.1.54.54,0,0,0-.27-.06.51.51,0,0,0-.24.08.35.35,0,0,0-.09.07l-.14.12a.54.54,0,0,1-.15.09.85.85,0,0,0-.21.14.56.56,0,0,0-.12.18,1.41,1.41,0,0,1-.12.29l0,0-.05,0a.6.6,0,0,1-.2,0H9.08l.08-.09a1.39,1.39,0,0,0,.26-.39A2.29,2.29,0,0,0,9.51,13a1.1,1.1,0,0,0,0-.31,2,2,0,0,0,0-.34,1.13,1.13,0,0,0,0-.18c.13,0,.41.08.78.13a15.46,15.46,0,0,0,2,.12h.27a1.5,1.5,0,0,0,.33-.06,2,2,0,0,0,.48-.23,1.81,1.81,0,0,0,.33-.26,2.09,2.09,0,0,0,.26-.25l.23-.28a9.7,9.7,0,0,0,1-.28,5.6,5.6,0,0,0-.39.72,1.89,1.89,0,0,0-.24,1v0l0,.07a.32.32,0,0,0,.08.15.31.31,0,0,0,.1.08.29.29,0,0,0,.17.05.57.57,0,0,0,.29,0,2.33,2.33,0,0,0,.52-.36c.27-.26.5-.5.77-.74l.1-.1c0,.14-.07.29-.1.43a2.61,2.61,0,0,0,0,.63,1,1,0,0,0,.06.32.6.6,0,0,0,.08.16.25.25,0,0,0,.05.08l.07.07a.63.63,0,0,0,.19.15.64.64,0,0,0,.19,0,.81.81,0,0,0,.21,0,.83.83,0,0,0,.28-.3c.1-.16.18-.31.27-.45a1,1,0,0,0,0,.24,1,1,0,0,0,.08.28,1.71,1.71,0,0,0,.11.14l.13.1a.81.81,0,0,0,.21.1l.24,0a1,1,0,0,0,.41-.14,1.68,1.68,0,0,0,.48-.43,4.34,4.34,0,0,0,.6-.91,7.61,7.61,0,0,0,1.52-.16A3.46,3.46,0,0,0,23,11.63a1.81,1.81,0,0,0,.24-.24,1.56,1.56,0,0,0,.17-.25l.33-.49a7.28,7.28,0,0,1,.73-1Z"/><path class="cls-4" d="M3.11,6.76a3.45,3.45,0,0,0,.23,2.17,2,2,0,0,1,.45,1.3l.37-1,.33.77.31-.9.11.66.24-.53V10a.87.87,0,0,0,.71-.73C6,8.59,3.11,6.76,3.11,6.76"/></svg>