<svg id="Capa_1" data-name="Capa 1" xmlns="http://www.w3.org/2000/svg" viewBox="0 0 23.76 17.52"><defs><style>.cls-1{fill:#ffd826;}.cls-2{fill:#f05050;}.cls-3{fill:#99d9ec;}.cls-4{fill:#fbc9b5;}.cls-5{fill:#231f20;}</style></defs><title>7-6meses</title><path class="cls-1" d="M11.7,12a.39.39,0,0,0,.17.53,26.66,26.66,0,0,0,5.82.48,25.73,25.73,0,0,0,4.19-.39s.11-.58-.13-.65a10.26,10.26,0,0,0-1.24-.11s-.62-.24-.48-.54,0-.32,0-.32l-1.33.22-.39-.34L17.6,11l-.32-.59s-.8.27-.8.36-.5-.15-.55-.24S15.7,10,15.7,10s-.23,1.37-.5,1.27l-.83-.3s0,.47-.23.48-1.41-.15-1.41-.15l.68.54A2.61,2.61,0,0,0,11.7,12"/><path class="cls-2" d="M12.23,12.66a53.62,53.62,0,0,0,6.38.25c2-.16,2.73-.25,2.73-.25l-.09,1.89s.41.12-.27.44a17.23,17.23,0,0,1-3.4.48s-1.68,0-1.83,0-4.22-1.11-3.52-2.81"/><path class="cls-3" d="M3.88,16.08S3,15.55,3,15.15a3.19,3.19,0,0,1,1.15-1.78c.42-.15,2.29-.35,2.54-.39a4.22,4.22,0,0,0,.67-.24,6.47,6.47,0,0,0-2.57-1.29,7.88,7.88,0,0,0-2.93.34s-.51.78-.51.78-.07,2.79.62,3.27a7.85,7.85,0,0,0,2.88.51Z"/><path class="cls-4" d="M7.43,12.86s0-.17-1.24-.25-2.7-.19-2.83-.17-1.61-.15-1.61-.15l-.47.14s.34-1,.53-1.39A9.68,9.68,0,0,1,4.07,7.69C5.21,6.85,6.49,6.17,6.68,6s.25-1,.37-1.32A9.46,9.46,0,0,1,9.37,3.64c.29-.09,4-.73,4.21-.31s.5.68.5,1-.89,1-1.13,1.16-.69.53-.52.74.33.23.12.38a1.38,1.38,0,0,1-.54.19s.09.1-.07.24a.82.82,0,0,1-.53.11s.24.14.12.25a.74.74,0,0,1-.41.1s.07.42-.27.43a10.1,10.1,0,0,1-1.48-.27l-.51-.19H8.69l-.45-.14-.16.35s.26.35.39.48S9.58,9.32,9.82,9.47s.48.21.53.13a8.29,8.29,0,0,1,2-.45c.43,0,.7.07.54-.15s-.46-.29-.18-.48.42-.47.61-.31.25.39.41.31a3.33,3.33,0,0,1,1-.4c.22,0,.36.2.35.25s-.4.26-.14.54.49.41.44.52-.34.31-.41.47-.41.2-.62.27a11.58,11.58,0,0,1-2.35,1c-.63.07-1.68.27-2.1.27a6.33,6.33,0,0,1-.68,0s-.32,1.1-.36,1.19.29,0,.58,0a11.08,11.08,0,0,1,2.07-.05c.25.11,2.14,1.12,2.34,1.28s.65.42.65.42a6.91,6.91,0,0,1,1.4-.91c.35-.07.47-.41.6-.39a.83.83,0,0,1,.43.31c.06.12.17-.06.25.1s-.06.17.08.22,0,.27.12.4-.2.18-.21.27.19.08,0,.31S15.7,15.89,15.11,16s-.66.2-1.07,0a1.47,1.47,0,0,0-.82-.19,9.32,9.32,0,0,1-1.8-.13,3.41,3.41,0,0,0-.82-.15,9.84,9.84,0,0,1-2.85.84,15.17,15.17,0,0,1-3.1-.12C3.78,16.05,3,15.49,3,15.09a3.09,3.09,0,0,1,1.42-1.75,11.31,11.31,0,0,1,2.52-.41,1.52,1.52,0,0,0,.49-.07"/><polygon class="cls-5" points="13.8 5.33 13.82 5.25 13.82 5.26 13.8 5.33"/><path class="cls-5" d="M12.55,5.59s.27-.3-.2-.4a6.21,6.21,0,0,0-1.58.1,7.86,7.86,0,0,0,1.11,0c.59,0,.67.33.67.33"/><path class="cls-5" d="M12,5.76s.15-.13-.12-.19a3.62,3.62,0,0,0-.81,0l.46,0s-.27.15-.05.24a.44.44,0,0,0,.42-.14s.11,0,.1.06"/><path class="cls-5" d="M11.68,6.64c.21.06.24,0,.13-.06s-.12,0-.2,0,0-.16,0-.16c-.15,0-.15.19,0,.24"/><polyline class="cls-5" points="17.28 13.6 17.28 13.6 17.28 13.6"/><path class="cls-5" d="M21.57,12h0a3.57,3.57,0,0,1-.63.07c-.55,0-1.35,0-2.3,0s-2.07,0-3.26,0l-1.83,0-.93,0-.46,0L12,12l.17,0,.46-.07.93-.07c.63,0,1.24,0,1.84,0l1.72.05h1.54c.95,0,1.75,0,2.3,0a3.57,3.57,0,0,1,.63.07.39.39,0,0,1,.17.06l0,0-.15,0m.08.44h0S21.64,12.48,21.65,12.47Zm-.58,1.36h0a5.4,5.4,0,0,0,.14,1.06L21,15l-.3.07-.48.06.32-.52a5.89,5.89,0,0,0,.24-.58,5.92,5.92,0,0,0,.34-1.18h-.05a7.34,7.34,0,0,0-.7,1.11c-.09.18-.19.37-.27.56s-.07.22-.11.33a2.48,2.48,0,0,1-.19-.26,4.23,4.23,0,0,1-.33-.53c-.18-.35-.33-.7-.53-1H19a17.64,17.64,0,0,0,1.83-.17l.4-.07A3.73,3.73,0,0,0,21.07,13.83Zm-2.36,1.39h0c-.32,0-.64,0-.95.07.23-.36.44-.72.63-1.09s.24-.52.35-.78l.53.67c.13.17.25.35.36.52s.18.36.26.53Zm-1.32.1h0l-.66.07-.19,0h0a1.88,1.88,0,0,0,.24-.18l.12-.1L17,15a2.27,2.27,0,0,0,.22-.32,6.26,6.26,0,0,0,.21.61h0Zm-.29-1Zm-1.35,1.17h0c-.17.09-.35.17-.54.25l-.28.12-.27.1-.1,0h-.1a.49.49,0,0,1-.19-.05.63.63,0,0,1-.18-.12.66.66,0,0,1-.14-.15.32.32,0,0,0-.26-.11h0a12,12,0,0,1-1.47,0c-.24,0-.48,0-.7-.08l-.3-.08-.11-.05L11,15.27l0,0a.38.38,0,0,0-.37,0,4.67,4.67,0,0,1-.63.34,5.66,5.66,0,0,1-.72.28,6.23,6.23,0,0,1-.77.22c-.26.06-.53.11-.8.15l-.42,0c-.13,0-.27,0-.41,0a7.85,7.85,0,0,1-.84,0,3,3,0,0,1-.43,0l-.42,0h-.1l-.07,0H5a3.36,3.36,0,0,1-1.6-.81.59.59,0,0,1-.15-.28.55.55,0,0,1,0-.3,2.92,2.92,0,0,1,.35-.68,2.39,2.39,0,0,1,1.47-.91,7,7,0,0,1,1.06-.14l.55,0c.18,0,.36,0,.55,0a.75.75,0,0,0,.18-.08l1.13-.12c.76-.07,1.53-.14,2.27-.15h.27l.27,0a3.88,3.88,0,0,1,.45.14,5.46,5.46,0,0,1,.85.48l.68.46v0a2.66,2.66,0,0,0,.33.21l.16.08a3.53,3.53,0,0,0,.62.28h0a.2.2,0,0,0,.2,0c.18-.17.38-.34.58-.5a4.21,4.21,0,0,1,.66-.44l.19-.07a.94.94,0,0,0,.23-.1.69.69,0,0,0,.15-.14s0,0,.11,0l.19.07c.06,0,.1.06.11.09s0,.06,0,.1a1.18,1.18,0,0,0-.19.11,0,0,0,0,0,0,.07.1.1,0,0,0,.11,0h0l0,0,.07,0,.11-.05.11,0h0v0s0,0,0,0a0,0,0,0,1,0,0l-.08.07-.08,0-.18.06s-.06.06,0,.09a.12.12,0,0,0,.12,0h0a1.34,1.34,0,0,1,.27-.07.26.26,0,0,1,.12,0h0v0s0,0,0,0a.13.13,0,0,1-.06.07l0,0-.1,0-.11.08h0a.07.07,0,0,0,0,.1.17.17,0,0,0,.18,0l.12-.06-.07.05-.16.08a.13.13,0,0,0-.07,0c0,.05,0,.12.08.14h0l0,0L17,14.5a3.57,3.57,0,0,1-.3.38l-.09.09-.09.08-.22.15A4.82,4.82,0,0,1,15.75,15.47Zm-13.37.36h0a1.4,1.4,0,0,1-.54-.44,2.35,2.35,0,0,1-.32-1.18A10.3,10.3,0,0,1,1.5,13l0-.31c0-.12,0-.15.1-.18a2.42,2.42,0,0,1,.79-.06c.58,0,1.17.08,1.77.12s1.2.08,1.81.11l.89.07c.15,0,.29,0,.42.06l-1,.2H6.14A6.15,6.15,0,0,0,5,13a5.05,5.05,0,0,0-.56.12,3,3,0,0,0-.52.2,2.31,2.31,0,0,0-.43.29,2.1,2.1,0,0,0-.33.34,2.79,2.79,0,0,0-.43.74.82.82,0,0,0-.06.44.93.93,0,0,0,.22.43,2.35,2.35,0,0,0,.74.52L3.15,16A2.36,2.36,0,0,1,2.38,15.83Zm5-2.92h0l-.1,0c-.16,0-.36,0-.54,0h0Zm6,.05h0a2,2,0,0,0,0,.26v0l-.27-.2c-.12-.08-.24-.16-.37-.23l.35.07Zm1.53,0h.61a2,2,0,0,0-.46.37.7.7,0,0,0-.19.27c0,.09-.07.19-.12.29v0h0a.13.13,0,0,1,0,.06l-.13.1-.19-.1,0,0L14,13.74l-.21-.18a2,2,0,0,0-.14-.38,1.86,1.86,0,0,0-.1-.2l.27,0C14.16,13,14.49,13,14.83,13Zm1,0h.48a.47.47,0,0,1-.13.12.61.61,0,0,1-.18.07l-.23.07a4.16,4.16,0,0,0-.42.23,1.32,1.32,0,0,0,.22-.5Zm1.38,1Zm-.32-1h0c.51,0,1,0,1.5,0-.19.36-.39.71-.56,1.07s-.24.58-.34.87l-.26-.33,0,0,.11-.21a.14.14,0,0,0,0-.12.18.18,0,0,0-.07-.1h0c.06-.05.15-.09.16-.2s0-.08,0-.09l0,0,0,0h0l.07-.08s0-.05,0-.08,0,0,0-.07-.13-.12-.21-.12,0,0,0-.07a.15.15,0,0,0,0-.07.18.18,0,0,0,0-.08.23.23,0,0,0-.14,0H17s0,0,0,0a.3.3,0,0,0-.17-.16h.05ZM13.76,8.35h0l-.07-.09,0,0,.62-.06-.19.09A1.35,1.35,0,0,1,13.76,8.35Zm4.94,2.72Zm3.22,1.23a1,1,0,0,0-.13-.34h0s0,0,0,0l-.16-.06L21,11.77l-.29,0,.11,0,0,0s0,0,0-.05h0c-.13,0-.27-.07-.39-.12l-.09,0s-.06,0-.07,0-.07-.05-.07-.08.06-.1.17-.15a1.83,1.83,0,0,1,.35-.14.14.14,0,0,0,.11-.14.21.21,0,0,0-.22-.11h0a14.6,14.6,0,0,0-1.48.19l-.16,0,0,0a1.49,1.49,0,0,1,.15-.2.15.15,0,0,0-.05-.24.35.35,0,0,0-.38,0l-.1.06-.12.07-.27.1a1.4,1.4,0,0,1-.28.06h-.26s0,0-.05,0a.33.33,0,0,1,0-.19,1.55,1.55,0,0,1,.23-.44h0c0-.06,0-.14-.08-.17a.27.27,0,0,0-.26,0,1.31,1.31,0,0,1-.2.21,2.43,2.43,0,0,1-.25.2l-.29.17-.16.07-.15.05h-.14a.42.42,0,0,1-.12-.08.79.79,0,0,1-.16-.23,1.58,1.58,0,0,1-.12-.52s0-.05-.07-.06-.1,0-.11,0h0c-.07.17-.16.34-.23.52l-.12.26-.12.25a.17.17,0,0,1-.06.06h0a.73.73,0,0,1-.26-.05,3.15,3.15,0,0,1-.59-.27h0a.29.29,0,0,0-.3,0,.12.12,0,0,0,0,.22.44.44,0,0,1,.14.13.22.22,0,0,1,.07.12v0h0l0,0a.69.69,0,0,1-.18,0,6.25,6.25,0,0,1-1.14,0h0a.12.12,0,0,0-.08,0,.05.05,0,0,0,0,.09l.48.32h0s0,0,0,0l-.21-.21.34.05a3.31,3.31,0,0,0,.64,0,.87.87,0,0,0,.37-.09l.08,0,.08-.07a.34.34,0,0,0,.06-.12l.09,0a1.3,1.3,0,0,0,.51.06.59.59,0,0,0,.29-.12.32.32,0,0,0,.12-.18,2.68,2.68,0,0,0,.07-.27l.07-.27c0-.06,0-.12.05-.18s0,.12.07.19a.83.83,0,0,0,.17.26.56.56,0,0,0,.17.11l.12,0h.13l.22,0,.19-.07.24-.11a1.12,1.12,0,0,0,0,.2.35.35,0,0,0,.11.19.46.46,0,0,0,.26.13.78.78,0,0,0,.25,0H18a2.14,2.14,0,0,0,.35-.06.31.31,0,0,0,.05.19l.12.09a.57.57,0,0,0,.24,0l.15,0,.2-.05.16,0c.22-.06.46-.11.69-.15a.2.2,0,0,0,0,.2.39.39,0,0,0,.19.17l.11,0,.11,0a2.14,2.14,0,0,0,.35.06l-.07,0c-.51-.06-1.15-.13-1.91-.18-.48,0-1,0-1.55,0s-1.13,0-1.73.07l-1.84.1-.95.05-.48,0-.25,0-.13,0-.08,0a.13.13,0,0,0-.06.05s0,0,0,.06.12.12.15.14l.14,0,.24,0,.48.07.95.09,1.85.09c1.2,0,2.32,0,3.28,0s1.75-.16,2.31-.23l.63-.1.15-.05v0a1.2,1.2,0,0,1,0,.24.3.3,0,0,1-.06.14h-.15l-.71,0-1.8.11-1,.08-1.06.09c-.35,0-.7.06-1.05.06s-.7,0-1,0l-.94-.11-.84-.08a5,5,0,0,1-1.16-.24.62.62,0,0,1-.24-.15.11.11,0,0,1,0-.07l0,0h0a.14.14,0,0,0,0,.1.37.37,0,0,0,.14.19l-.27-.06-.3,0h-.31a15.24,15.24,0,0,0-1.67.14A.84.84,0,0,0,9.47,12a.71.71,0,0,0-.12-.48h.76a6.81,6.81,0,0,0,.78-.05l.76-.13q.38-.09.72-.21a7.81,7.81,0,0,0,1.32-.56l.29-.18a1.28,1.28,0,0,1,.27-.16,6.08,6.08,0,0,1,.68-.19S15,10,15,10a.42.42,0,0,1,.08-.26c.06-.09.15-.11.28-.22s0-.24,0-.33a2.78,2.78,0,0,0-.21-.27C15,8.85,15,8.78,15,8.7a1.37,1.37,0,0,1,.1-.28A.38.38,0,0,0,15,8.06.33.33,0,0,0,14.85,8l-.17,0a.69.69,0,0,0-.23.07l-.15.07c0-.13.62-2.51.4-2.6a1,1,0,0,0-.57,0l-.55,2.54s0,0,0,0A.44.44,0,0,0,13.33,8a.41.41,0,0,0-.2,0,.73.73,0,0,0-.25.09l-.09.05-.1.06a.48.48,0,0,0-.24.37.51.51,0,0,0,.13.3h-.23c-.27,0-.55,0-.82.09l-.2,0-.2,0a2.67,2.67,0,0,0-.4.13,1.76,1.76,0,0,0-.37.17l-.16.11h0l-.13-.05a1.67,1.67,0,0,1-.28-.18,3.58,3.58,0,0,1-.51-.44,6.42,6.42,0,0,1-.43-.48l-.21-.26a2.2,2.2,0,0,0-.26-.27,1.89,1.89,0,0,0-.27-.2h.12v0l0-.05,0-.07.05,0h0l.28.1.3.09a8,8,0,0,0,1.22.28l.33,0a2.08,2.08,0,0,0,.35,0,.46.46,0,0,0,.32-.15c.07-.08.07-.17.1-.19a.7.7,0,0,0,.28-.07c.09-.07.16-.16.13-.26a.16.16,0,0,0-.09-.09h0a1,1,0,0,0,.29,0A.29.29,0,0,0,12.1,7a.27.27,0,0,0,0-.16h0l.12,0c.07,0,.16,0,.24-.06s.19-.09.19-.17c0-.26-.26-.47-.11-.63a4.41,4.41,0,0,1,.65-.49,2.37,2.37,0,0,0,.63-.54A1.62,1.62,0,0,0,14,4.7l-.13.55a1.8,1.8,0,0,0,0-2.41h0a1.79,1.79,0,0,0-.53-.49,5.87,5.87,0,0,0-3-1.18c-1.1-.16-3.78.25-4.68,2s.66,1.94.94,2.54A.55.55,0,0,1,6.47,6a.67.67,0,0,1-.24.19l-.16.08-.22.07a4.7,4.7,0,0,0-1.53.95A9.92,9.92,0,0,0,3.21,8.41a9.58,9.58,0,0,0-.83,1.24,11.56,11.56,0,0,0-1,2.62s0,0,0,0,0,0,0,0A11.94,11.94,0,0,1,2.62,9.72a8.9,8.9,0,0,1,.87-1.2A13.1,13.1,0,0,1,4.64,7.45a4.55,4.55,0,0,1,1.42-.82l.23-.07.25-.11a1,1,0,0,0,.39-.32.73.73,0,0,0,.14-.5l.11-.36a.69.69,0,0,1,.44-.38.6.6,0,0,0-.08.21.87.87,0,0,0,0,.51A.86.86,0,0,0,7.9,6a1,1,0,0,0,.4.16h.17v0l-.15,0A.7.7,0,0,1,8,5.93a.73.73,0,0,1-.1-.77A.43.43,0,0,1,8.07,5l0,0h.05c.36.1.39.21.64.6l.07-.34h0v0l.2.33a.94.94,0,0,1,.07-.77,1.45,1.45,0,0,0,.51-.45s.12-.16-.13.24L9.15,5l.76-.4L9.56,5l.7-.33,1.12-.61L11,4.72,12,4l-.69.87L12,4.45l1.23-.68-.64.73.74-.5-.62,1,1.22-.83v0a1.36,1.36,0,0,1-.22.63,2.07,2.07,0,0,1-.57.52,3.7,3.7,0,0,0-.67.51.3.3,0,0,0,0,.37.7.7,0,0,1,.1.31c0,.08-.17.11-.32.13l-.13,0L12,6.7s-.08,0-.08.07,0,.12,0,.17-.16.1-.3.1a.59.59,0,0,1-.35-.15h0a.12.12,0,0,0-.1,0s-.07,0-.06.08a.46.46,0,0,0,.16.21l.15.09h.07s0,0,0,0,0,.1-.07.13l-.09,0a.43.43,0,0,0-.21,0c-.1.11-.07.17-.12.22a.28.28,0,0,1-.19.07,2.41,2.41,0,0,1-.59,0,9,9,0,0,1-1.16-.3l-.28-.09L8.5,7.24h0l-.08,0H8.23A.48.48,0,0,0,8,7.33.47.47,0,0,0,8,7.45l0,0a3,3,0,0,0-1.08-.35,4.38,4.38,0,0,0-1.74.12,0,0,0,0,0,0,0h0a4.8,4.8,0,0,1,1.65,0A2.4,2.4,0,0,1,8,8a.91.91,0,0,1,.2.24l.19.26A5.13,5.13,0,0,0,8.85,9a4.37,4.37,0,0,0,.54.5,2.22,2.22,0,0,0,.34.22l.21.1a1.22,1.22,0,0,0,.32.08.3.3,0,0,0,.23-.08l0,0a.4.4,0,0,1,.09-.07l.12-.08A1.82,1.82,0,0,1,11,9.52l.31-.1.17,0,.18,0c.25,0,.48-.07.74-.09l.37,0h.37a.28.28,0,0,0,.22-.07c.07-.08,0-.18-.07-.23A1.2,1.2,0,0,1,13,8.77a.28.28,0,0,1-.11-.18s0-.1.1-.16a1.28,1.28,0,0,1,.25-.14h0a.28.28,0,0,1,.06.08.69.69,0,0,0,.15.16.42.42,0,0,0,.18.07h.2a1.35,1.35,0,0,0,.43-.18l.33-.18a1.22,1.22,0,0,1,.2-.07.23.23,0,0,1,0,.22,1.67,1.67,0,0,0-.07.3A.44.44,0,0,0,15,9a2.62,2.62,0,0,1,.22.25c.06.08.09.17,0,.22s-.22.13-.28.23a.48.48,0,0,0-.09.27c-.23,0-.45.1-.68.17l-.18.08-.14.09-.3.14a9.24,9.24,0,0,1-1.31.47l-.7.15c-.24,0-.47.09-.71.12l-.36,0-.36,0h-.7l-2-.64c-.67-.21-1.35-.42-2-.61h0a0,0,0,0,0,0,0c.64.26,1.29.52,1.94.76s1.18.45,1.77.66c0,0,0,.06,0,.09S9,11.83,9,12s-.05.3-.07.43a.74.74,0,0,0,0,.12l-.36.05c-.37.05-.73.11-1.1.18l0,0-.44-.09L6,12.49c-.59-.09-1.18-.19-1.78-.25a15.54,15.54,0,0,0-1.83-.1,2.61,2.61,0,0,0-1,.15.42.42,0,0,0-.19.18.41.41,0,0,0,0,.18l0,.32.11,1.24a4.2,4.2,0,0,0,.06.62,1.85,1.85,0,0,0,.2.63A1.47,1.47,0,0,0,2.2,16a2.66,2.66,0,0,0,.86.3l.91.13c.3,0,.58.07.93.08a.23.23,0,0,0,.23-.1.14.14,0,0,0,0-.06,7.37,7.37,0,0,0,.84.13,8.51,8.51,0,0,0,.88,0,3.27,3.27,0,0,0,.44,0l.44,0a8.7,8.7,0,0,0,.87-.13,7.72,7.72,0,0,0,.83-.2c.28-.08.54-.18.8-.28a5,5,0,0,0,.52-.26l.18.09a2.08,2.08,0,0,0,.41.11,4.49,4.49,0,0,0,.8.1,13.08,13.08,0,0,0,1.4,0l.12.11a1.35,1.35,0,0,0,.31.19,1.14,1.14,0,0,0,.44.1h.23l.21-.05c.14,0,.21-.08.32-.12l.28-.13.56-.27.29-.18c.36,0,.73.07,1.1.08h.68l.67-.05a9.71,9.71,0,0,0,1.33-.22c.22,0,.43-.11.64-.18l.31-.1a1.37,1.37,0,0,0,.31-.13l0,0h0a5.73,5.73,0,0,0,.15-1.08,3.33,3.33,0,0,0-.21-1.07h0a2.3,2.3,0,0,0,.28-.06l.16,0a.19.19,0,0,0,.12-.07l0-.06A.49.49,0,0,0,21.92,12.3Z"/><path class="cls-5" d="M5.36,3.93a5.87,5.87,0,0,1,0,1.86c-.19.5-1,.61-1,.61a2,2,0,0,0,1.1-.22C6,5.89,5,6.59,5,6.59l.9-.27s.74-.11.93-.34S6.36,4.46,5.36,3.93"/></svg>