<svg id="Capa_1" data-name="Capa 1" xmlns="http://www.w3.org/2000/svg" viewBox="0 0 31.38 17.64"><defs><style>.cls-1{fill:#ffd826;}.cls-2{fill:#f89d47;}.cls-3{fill:#0070a2;}.cls-4{fill:#f05050;}.cls-5{fill:#b3d335;}.cls-6{fill:#99d9ec;}.cls-7{fill:#fbc9b5;}.cls-8{fill:#231f20;}</style></defs><title>8-6meses</title><path class="cls-1" d="M1.79,4.61,20.56,5.7s5.09,0,5.82.58,2.56,5.65,3.26,7.14a15,15,0,0,1,1,2.59s0,.56-.81.9S17.3,17,17.3,17l-2.08-.07-3.8.07-1.28.1H2l-.32-.72V4.61Z"/><path class="cls-2" d="M6.22,8.1S-1.84,9.21,5.79,10s9.32,1,10.34,1.4,1.31,2,1.31,2-.44,1,.89.79,1.92-1,1.54-1.62.68-1.42.68-1.68a3.47,3.47,0,0,1,2.6-1.58c1.28,0,3.33-.44,2.44-1S9.38,5.79,6.22,8.1"/><polygon class="cls-3" points="22.32 15.71 21.97 14.45 19.6 13.65 20.29 14.9 22.32 15.71"/><polygon class="cls-4" points="21.97 14.45 23.57 13.09 23.95 13.41 23.95 14.54 22.5 15.87 21.97 14.45"/><polygon class="cls-5" points="22.16 14.54 19.6 13.75 21.46 12.57 23.57 13.16 22.16 14.54"/><path class="cls-6" d="M11.5,7.9c.57-.53,1.58-2.19,1.21-2.61a6.37,6.37,0,0,0-2.62-.92,4.74,4.74,0,0,0-2.83.17A6.81,6.81,0,0,0,5.79,6.23S8.24,9,8.28,8.93s.82.8,1.43.8a3.27,3.27,0,0,0,1.39-.5Z"/><path class="cls-7" d="M4.44,5.58s.09-1-.09-1.08a1.31,1.31,0,0,0-.62-.12c-.3,0-1.17-.13-1.24-.27s0-.3.25-.37.18-.2.44-.34,1.26-.55,1.5-.73,1-.61,1.26-.29.15.68.49,1a3.35,3.35,0,0,1,.56.8,1.27,1.27,0,0,1,0,.53s-.91.68-1,1a1.16,1.16,0,0,1-.24.5,5.44,5.44,0,0,1-1-.45.77.77,0,0,0-.3-.2"/><path class="cls-7" d="M24.11,5.61A10.4,10.4,0,0,0,21,5.13c-.52.07-3.79.72-4.37.78a26.61,26.61,0,0,1-3-.19,3.78,3.78,0,0,0-1.48-.07c-.44.15-1.93,1.13-1.9,1.79s-.46-1-.78-1.16a3.54,3.54,0,0,0-1.89-.66,3.63,3.63,0,0,0-1.49.94s-1.21-.38-1.24-.43a1.2,1.2,0,0,0-1.12-.69A3.81,3.81,0,0,0,2.18,6a.42.42,0,0,0-.42,0c-.26.11-.58.1-.58.3a1.44,1.44,0,0,1,0,.55c-.07.27-.41.24-.17.38s.25,0,.25,0-.29.22-.13.42.34.14.58,0a8.14,8.14,0,0,1,.84-.3l.78-.16a4.48,4.48,0,0,1,.91.8A2.23,2.23,0,0,0,6.36,9.29,3.73,3.73,0,0,0,9.44,8.15c.3-.41.57-.51.71-.42s.06.4.06.4a4.34,4.34,0,0,0,.24,1.31.7.7,0,0,0,.54.23,6.41,6.41,0,0,0,2.16.1c1-.16,1.54-.29,1.54-.29a3.18,3.18,0,0,0,1.63,1.35,17.2,17.2,0,0,0,3.31.59,1.16,1.16,0,0,1,.61.13s1.06.43,1.21.25.26-.48.6-.61.64-.08.65-.37-.18-.31-.43-.45S22,10.18,22,10s.14-.26,0-.32a1.3,1.3,0,0,0-.88.09,1.94,1.94,0,0,1-1,.25,10.66,10.66,0,0,1-1.94-.43c-.26-.1-.76-.08-.84-.52s.12-.15.12-.15A.63.63,0,0,0,18,8.82a2.34,2.34,0,0,1,.39-.34s-.07.48.89.62A4.43,4.43,0,0,0,21.6,9a1.09,1.09,0,0,1,.81-.26c.27,0,.53-.13.53-.19s.14-.14.28-.07a2.06,2.06,0,0,0,.84.16c.15,0,.64,0,.77,0a2,2,0,0,0,.5-.4c.24-.21.3-.5.07-.65s-1.12-.51-1.12-.51.68-.34.61-.73Z"/><path class="cls-8" d="M21.59,7.12a6.51,6.51,0,0,0-1.35.38l.59-.1a3.32,3.32,0,0,1,1.78.1c.29-.29-.67-.38-1-.38"/><path class="cls-8" d="M20.72,7.73l.53-.06s-.1.14.14.19a.48.48,0,0,0,.42-.13l.06.07.18-.07-.16-.1a2,2,0,0,0-1.17.1"/><path class="cls-8" d="M21.25,8.83a5.42,5.42,0,0,1-1,0c.31.31,1.3-.07,1,0"/><path class="cls-8" d="M23,15h0l-.47.44c-.13-.28-.27-.56-.42-.83v0l-.05,0,.09-.06c.29-.19.58-.38.84-.59s.54-.4.79-.61l0,0c0,.18,0,.36,0,.54s0,.38,0,.57c-.25.2-.51.41-.75.62m-1.52.19h0a8.58,8.58,0,0,0-.92-.42,8.43,8.43,0,0,0-.88-1h0c.39.12.8.2,1.18.33a9.38,9.38,0,0,1,1.08.44l0,0H22c-.07,0-.11.06-.09.11h0a9,9,0,0,0,.25.89Zm-.72-2h0a8.18,8.18,0,0,0,.68-.63,15.17,15.17,0,0,0,1.7.71c-.18.15-.36.3-.53.46a7.28,7.28,0,0,0-.63.61A8.13,8.13,0,0,1,21,14c-.28-.11-.54-.25-.81-.37C20.38,13.5,20.58,13.35,20.78,13.2Zm3.11,0,.12-.1-.32-.09a17.27,17.27,0,0,0-2.23-.52h0a6.78,6.78,0,0,0-.93.48,7.88,7.88,0,0,0-.83.54l-.21.16.14,0A7.88,7.88,0,0,0,20.22,15a.13.13,0,0,0,.07,0h0c.32.15.63.3,1,.43l.93.34,0,.08a.22.22,0,0,0,.08.09.34.34,0,0,0,.34,0h0c.27-.23.54-.45.79-.68l.73-.7,0,0a.12.12,0,0,0,0-.09l-.15-.63C24,13.63,24,13.44,23.89,13.24Z"/><path class="cls-8" d="M24.66,7.38h0l.16.09a1.11,1.11,0,0,0,.16.11,2.46,2.46,0,0,1,.33.27.32.32,0,0,1,.1.19.18.18,0,0,1-.08.18,1.2,1.2,0,0,1-.17.11l-.11.08,0-.08a.56.56,0,0,0,0-.36.47.47,0,0,0-.35-.26l0,0c.17.17.07.34,0,.51a1,1,0,0,1-.16.2,2.27,2.27,0,0,0-.06-.25A.38.38,0,0,0,24.32,8,.44.44,0,0,0,24,7.9a1.37,1.37,0,0,0-.49.1h0s0,.05,0,.07h0a.85.85,0,0,1,.24.35.2.2,0,0,1,0,.07h0a2,2,0,0,1-.45-.12L23,8.27v0a.6.6,0,0,1,.12-.3.85.85,0,0,1,.25-.25h0a4.28,4.28,0,0,0,.94-.54l.1.06.28.17m-.11,1.28Zm-.71-.49h0l-.13-.1a.54.54,0,0,1,.28,0c.08,0,.07.08.06.16a.49.49,0,0,0,0,.12Zm-.08.37h0a0,0,0,0,1,0,0S23.76,8.55,23.76,8.54Zm-1,0Zm-.23,0h0a3.61,3.61,0,0,0-.56,0l-.1,0-.08,0-.1,0-.18.09a4,4,0,0,1-.89.21l-.48.05c-.15,0-.33,0-.47,0h-.22a1.2,1.2,0,0,1-.2,0,1.11,1.11,0,0,1-.35-.16,1.77,1.77,0,0,1-.69-1.17l0-.13H18l-.08,0a.24.24,0,0,1-.08-.09.55.55,0,0,1,0-.29c0-.25,0-.48,0-.7s0-.23.09-.24a.66.66,0,0,1,.19,0,1,1,0,0,1,.21.07.53.53,0,0,1,.31.22.28.28,0,0,1-.05.31l0,0a.38.38,0,0,0,.09-.13.28.28,0,0,1,0,.09,1.38,1.38,0,0,0,.16.57l.28-.54.16.44s.51-.83.92-1,.87-.38.87-.38L20,6.63l1.45-.39L21,6.65l.92-.21,1.36-.29-1,.46,1.09-.19s-1,.67-.87.7a10,10,0,0,0,1.38-.61l-.74.67,1.42-.67L24.26,7l-.11.1a3.71,3.71,0,0,1-.93.48h0a1.31,1.31,0,0,0-.35.3.94.94,0,0,0-.18.36.92.92,0,0,0,0,.37ZM18,8.49h0a2.13,2.13,0,0,0-.36.15,1.29,1.29,0,0,0-.32.22c-.05-.12-.1-.25-.14-.38a5.45,5.45,0,0,1-.18-1H17a2.92,2.92,0,0,0,0,1,2.79,2.79,0,0,0,.33,1l0,0,.07,0,1.16.34a11.63,11.63,0,0,0,1.23.26c.11,0,.22,0,.35,0h.22l.18-.06c.2-.09.34-.19.5-.27a1.27,1.27,0,0,1,.49-.15l.25,0a.61.61,0,0,1,.2.09.31.31,0,0,0,0,.19.36.36,0,0,0,.16.23c.16.12.37.19.5.28a.14.14,0,0,1,.06.16.62.62,0,0,1-.1.2.61.61,0,0,1-.17.15l-.1,0a.13.13,0,0,1-.09,0l-.1,0L22,11.1a.42.42,0,0,1-.28.2h-.09a.19.19,0,0,0-.14.1.12.12,0,0,0,0,.08v0h-.14l-.06,0a.29.29,0,0,1-.12.07.17.17,0,0,1-.12,0H21l-.11,0-.22-.08-.88-.3-.24,0h-.38l-.5-.05c-.34,0-.7-.13-1-.2a8.06,8.06,0,0,1-1.89-.61,3.37,3.37,0,0,1-.37-.24.64.64,0,0,1-.15-.13.57.57,0,0,1-.13-.14,1.1,1.1,0,0,1-.17-.32,3.17,3.17,0,0,1-.06-.35c0-.25,0-.5,0-.75a4.69,4.69,0,0,1,0-.75h-.05a3.73,3.73,0,0,0-.18.75q0,.38-.06.75a1.31,1.31,0,0,0,0,.28,19.22,19.22,0,0,1-2,.18H12l-.51,0-.24,0a.85.85,0,0,1-.24,0,1.55,1.55,0,0,1-.23-.06l-.21-.08-.13-.05a3.18,3.18,0,0,1-.13-1.18,3.14,3.14,0,0,1,.12-.61A2.24,2.24,0,0,1,10.72,7a2.34,2.34,0,0,1,.2-.27,2.84,2.84,0,0,1,.24-.26,2.64,2.64,0,0,1,.6-.41l.37-.13.39-.08h.29l0,0,0,0h.07l.39,0h0a14.25,14.25,0,0,0,2.46.26,3.61,3.61,0,0,0,1.32-.19h0l.43-.08L17,6.38l.52-.14-.3.5.3-.13a3.31,3.31,0,0,1-.06.55.65.65,0,0,0,0,.39.36.36,0,0,0,.17.21.64.64,0,0,0,.19.08,2.3,2.3,0,0,0,.2.61s0,0,0,0Zm3.73,3ZM10.14,9.44h0l-.24,0a2.92,2.92,0,0,1-.51,0l-.24-.07-.24-.1a2.68,2.68,0,0,1-.33-.18h0a4.29,4.29,0,0,0,.75-.46,4.27,4.27,0,0,0,.57-.55,2.1,2.1,0,0,0,.22-.33,1.71,1.71,0,0,0,0,.45,3,3,0,0,0,.29,1.2l-.06,0-.09,0ZM7.62,9.18h0a3.77,3.77,0,0,1-.9.09,4.45,4.45,0,0,1-.91-.1,2.25,2.25,0,0,1-.75-.35,4.49,4.49,0,0,1-.55-.51,8.69,8.69,0,0,1-.84-1.13L3.57,7l-.21.07A11.94,11.94,0,0,1,2,7.45H1.92l0,0a1.31,1.31,0,0,1-.3.2l-.16.07H1.31s-.07,0-.07,0l-.05-.05a.16.16,0,0,1,0-.12.51.51,0,0,1,.08-.17.47.47,0,0,0,.21,0,1,1,0,0,0,.41-.17l0,0a3.2,3.2,0,0,1-.41.07.47.47,0,0,1-.3-.08l0,0h0v0s0,0,0,0,0,0,0,0a1,1,0,0,1,.33,0,.21.21,0,0,0,.2-.12c0-.08-.06-.15-.17-.17h0l-.09,0h0a.11.11,0,0,1,.07,0l.07,0h0l.15-.29-.24-.07h0l.1,0a.6.6,0,0,1,.23,0h0a.15.15,0,0,0,.14,0s0-.08-.06-.1h0a.59.59,0,0,1-.16-.07h0a.91.91,0,0,1,.41,0,.11.11,0,0,0,.1,0,2.68,2.68,0,0,1,1.42-.51h.19l.19,0a1.24,1.24,0,0,1,.29.1.64.64,0,0,1,.2.16.54.54,0,0,1,0,.11.44.44,0,0,1,0,.1c0,.07.06.13.15.16h0l.84.24.22.06.2,0,.18.07.18.08a6.82,6.82,0,0,1,.68.41c.22.15.44.3.65.46l0,0A4.18,4.18,0,0,0,7.3,7a3.51,3.51,0,0,0-.62-.51l-.2-.12-.05,0A2.49,2.49,0,0,1,7,6a1.55,1.55,0,0,1,.76-.24,1.66,1.66,0,0,1,.77.16A.8.8,0,0,1,8.65,6l.16.11.31.23a1.3,1.3,0,0,1,.6,1,1.09,1.09,0,0,1-.22.55A3.46,3.46,0,0,1,9,8.42,3.17,3.17,0,0,1,7.62,9.18Zm-6.51-2Zm.26-.83h0l0,0ZM3.11,4.18h0a1.21,1.21,0,0,1-.46-.1s0-.08,0-.07V3.9a.24.24,0,0,1,0-.07s0,0,.1,0A.49.49,0,0,0,3,3.63a.85.85,0,0,1,.16-.17,2.3,2.3,0,0,1,.56-.18A2.36,2.36,0,0,0,4.33,3c.19-.11.32-.22.46-.31a1.21,1.21,0,0,1,.92-.19.31.31,0,0,1,.14.07s0,0,0,0,0,.08,0,.07,0,.27,0,.43a.92.92,0,0,0,.18.48,1.85,1.85,0,0,0,.4.39,1.15,1.15,0,0,1,.33.33A.44.44,0,0,1,7,4.51l-.16.1a.62.62,0,0,0-.16,0,1.24,1.24,0,0,0-.5,0,.82.82,0,0,0-.39.22A.23.23,0,0,0,5.67,5h.24a2.17,2.17,0,0,0,.42-.07l.07,0a2,2,0,0,0-.25.28,1.85,1.85,0,0,0-.24.42,1.93,1.93,0,0,0-.09.34.9.9,0,0,0,0,.21l-.71-.21,0-.06A1,1,0,0,0,5,5.71a.88.88,0,0,0-.36-.26,3,3,0,0,1,0-.42c0-.22,0-.45,0-.67V4.21H4.34C3.93,4.21,3.5,4.2,3.11,4.18Zm4.46.48h0a4,4,0,0,1,.72-.25,3.06,3.06,0,0,1,.82-.12,4.29,4.29,0,0,1,.88.06,3.74,3.74,0,0,1,.8.23c.25.09.47.2.69.29s.44.16.62.24l.26.12a.78.78,0,0,1,.2.11.73.73,0,0,1,.18.16c-.1,0-.2,0-.3,0a2.66,2.66,0,0,0-.49.1,3.38,3.38,0,0,0-.44.18,2.72,2.72,0,0,0-.68.5,2.15,2.15,0,0,0-.23.28,3.21,3.21,0,0,0-.19.31,2.07,2.07,0,0,0-.15.34,1.11,1.11,0,0,0-.18-.6,2.46,2.46,0,0,0-.58-.58,3.22,3.22,0,0,0-.36-.24L9,5.71a.94.94,0,0,0-.23-.1,2.15,2.15,0,0,0-1.05-.14,1.78,1.78,0,0,0-.87.37,1.87,1.87,0,0,0-.44.51l-.09,0L6,6.23l-.15-.05h0L6,6a3.38,3.38,0,0,1,.52-.63A3.68,3.68,0,0,1,7.57,4.66Zm7.21.84h0c.61,0,1.22,0,1.68,0h.21c0,.06,0,.13-.07.2a5,5,0,0,1-.81.07,16.69,16.69,0,0,1-2.33-.22h0a4.35,4.35,0,0,0-.48,0,.48.48,0,0,0-.08-.18l.19,0C13.57,5.41,14.17,5.47,14.78,5.5ZM31,15.68a.51.51,0,0,0-.07-.15l-.11-.11a1.91,1.91,0,0,1-.23-.39l-.24-.47-.48-1c-.16-.36-.34-.74-.51-1.11s-.35-.77-.54-1.15-.34-.78-.48-1.16A7.34,7.34,0,0,1,28,9c-.09-.37-.13-.73-.25-1.09a2.9,2.9,0,0,0-.56-.94,2.6,2.6,0,0,0-.83-.65A3.1,3.1,0,0,0,25.52,6l-.27,0A2.49,2.49,0,0,0,23.88,3.6a7.47,7.47,0,0,0-3.8-1,3.84,3.84,0,0,0-3.36,2.74l-.24,0c-.45-.07-1.06-.13-1.66-.16a15.82,15.82,0,0,0-1.69,0l-.33,0A.74.74,0,0,0,12.61,5a1.73,1.73,0,0,0-.27-.15,4,4,0,0,0-.65-.27,5.53,5.53,0,0,0-.8-.19L10,4.25c-.29,0-.59-.12-.9-.15a2.93,2.93,0,0,0-1,0,4.52,4.52,0,0,0-.86.24l-.17.08s0-.09,0-.13a1.1,1.1,0,0,0-.28-.44,1.89,1.89,0,0,1-.26-.36,1,1,0,0,1-.09-.38,2.46,2.46,0,0,0,0-.46.34.34,0,0,0,0-.14.64.64,0,0,0-.13-.15.93.93,0,0,0-.39-.18,1.65,1.65,0,0,0-.8,0,1.68,1.68,0,0,0-.6.29c-.17.12-.27.26-.39.35a1.6,1.6,0,0,1-.46.27,2.75,2.75,0,0,0-.56.25c-.17.12-.21.29-.37.31a.29.29,0,0,0-.2,0,.26.26,0,0,0-.09.13.49.49,0,0,0,0,.11c0,.08,0,.07,0,.15a1,1,0,0,0,.64.3,3.83,3.83,0,0,0,.67.08h.45a3.41,3.41,0,0,0,.1.54c0,.1.08.2.12.3l-.3-.05H3.84l-.25,0a2.66,2.66,0,0,0-.85.28,4.17,4.17,0,0,0-.6.4L2,6H1.62L1.53,6a.09.09,0,0,0,0,.08h0a.64.64,0,0,0-.2,0l-.1,0a.28.28,0,0,0-.1.06A.17.17,0,0,0,1,6.31a.13.13,0,0,0,.05.11l0,0,0,0a.18.18,0,0,0-.07,0l-.06,0a.23.23,0,0,0-.09.2.15.15,0,0,0,.06.09h0A.6.6,0,0,0,.77,7a.2.2,0,0,0,0,.15.21.21,0,0,0,.07.1l0,0h0l.05,0a.57.57,0,0,0,.22.07A.61.61,0,0,0,1,7.54a.25.25,0,0,0,0,.19l.06.09c.06,0,0,0,.11.07a.46.46,0,0,0,.32,0,.82.82,0,0,0,.25-.07,1.92,1.92,0,0,0,.35-.18,7.23,7.23,0,0,0,1.23-.24,4.24,4.24,0,0,0,.89,1,3.63,3.63,0,0,0,1.53.82,6.3,6.3,0,0,0,1,.12,4.7,4.7,0,0,0,1-.05,3.31,3.31,0,0,0,.83-.24,2.13,2.13,0,0,0,.26.26,2,2,0,0,0,.48.26,2.44,2.44,0,0,0,.62.13h.32l.17,0h0l.15.07a1.52,1.52,0,0,0,.28.09l.29.07a2.54,2.54,0,0,0,.29,0A5.63,5.63,0,0,0,12,10a5.49,5.49,0,0,0,.58,0,6.48,6.48,0,0,0,1.1-.18,5.37,5.37,0,0,0,.83-.27.22.22,0,0,0,0,.08,1.08,1.08,0,0,0,.17.4,1.1,1.1,0,0,0,.14.18,1.37,1.37,0,0,0,.17.17,4.33,4.33,0,0,0,.41.3,5.89,5.89,0,0,0,1,.42c.34.11.7.2,1.06.28s.71.13,1.09.18a5.46,5.46,0,0,0,.58,0,1.61,1.61,0,0,0,.31,0l.17,0,.07,0,.81.24.23.06.11,0h.06l.1,0a.72.72,0,0,0,.36-.05.62.62,0,0,0,.19-.12l.11,0c.06,0,.14-.09.15-.15v-.07a.56.56,0,0,0,.29-.13.63.63,0,0,0,.11-.13h.11a.54.54,0,0,0,.19-.07.62.62,0,0,0,.22-.2.94.94,0,0,0,.1-.23.22.22,0,0,0-.11-.25,1.82,1.82,0,0,0-.27-.15,1.26,1.26,0,0,1-.23-.13.25.25,0,0,1-.11-.17.22.22,0,0,1,0-.19l0,0-.06,0a1.34,1.34,0,0,0-.61-.22,1.54,1.54,0,0,0-.67.14c-.2.07-.36.16-.52.22l-.11,0h-.05s0,0,0,0h-.05l-.27,0c-.74-.14-1.5-.35-2.24-.55L17.43,9h.06A1.33,1.33,0,0,0,18,8.91a.9.9,0,0,0,.2-.14l0,0a1.77,1.77,0,0,0,.39.38,1.58,1.58,0,0,0,.49.22,1.36,1.36,0,0,0,.29.06h.28a4.63,4.63,0,0,0,.54,0l.52-.06a4.33,4.33,0,0,0,1-.26L22,8.93l.1-.06h0a2.76,2.76,0,0,1,.44,0,1.52,1.52,0,0,0,.29,0c.05,0,.16,0,.24-.14s0-.11,0-.13,0,0,0,0a1.28,1.28,0,0,0,.61.23H24l.07,0s0,0,0,.06l0,0,.07.06A.43.43,0,0,0,24.4,9a.59.59,0,0,0,.18,0l.09,0,0,0,0,0h0l.09-.1a1,1,0,0,0,.42-.06.57.57,0,0,0,.23-.15.31.31,0,0,0,.07-.24c0-.08,0-.16,0-.23a1.85,1.85,0,0,1,0-.23.43.43,0,0,0,0-.25,1.09,1.09,0,0,0-.17-.22,1,1,0,0,0-.52-.24,1.59,1.59,0,0,0-.42,0h-.09l0,0a1.72,1.72,0,0,0,.81-.81,1.06,1.06,0,0,0,0-.19l.2.06a2.8,2.8,0,0,1,1.4,1,3.5,3.5,0,0,1,.49.87q.2.51.42,1c.15.37.3.75.43,1.13l.2.59.17.6a23.26,23.26,0,0,0,.81,2.31,10.15,10.15,0,0,0,.49,1,5.46,5.46,0,0,0,.27.48,2.07,2.07,0,0,0,.36.46.44.44,0,0,1,0,.63,1.37,1.37,0,0,1-.53.46,3,3,0,0,1-.5.19l-.2,0v0l.21,0a2.2,2.2,0,0,0,.59-.14,1.66,1.66,0,0,0,.72-.47.77.77,0,0,0,.21-.41A.6.6,0,0,0,31,15.68Z"/><path class="cls-8" d="M27.33,13.1c0-.43,0-.71,0-.71s0,.28-.06.71,0,1,0,1.55c.07,1.13.24,2.26.24,2.26l.5-.05s-.29-1.1-.48-2.22c-.1-.56-.17-1.12-.2-1.54"/><path class="cls-8" d="M17.19,4.66a5.28,5.28,0,0,1-.91,1.56A3,3,0,0,1,15,6.48a3.66,3.66,0,0,0,1.35,0,2.31,2.31,0,0,1-.58.15,2.14,2.14,0,0,0,1-.07,1.35,1.35,0,0,0,.23.75,4.33,4.33,0,0,1,.41.56,6.7,6.7,0,0,0,.33-1.13c0-.36.32-1,.15-1.24s-.69-.84-.69-.84"/></svg>