<svg id="Capa_1" data-name="Capa 1" xmlns="http://www.w3.org/2000/svg" viewBox="0 0 33.78 14.76"><defs><style>.cls-1{fill:#f8992f;}.cls-2{fill:#f5a4c7;}.cls-3{fill:#fbc9b5;}.cls-4{fill:#231f20;}</style></defs><title>1-4meses</title><path class="cls-1" d="M15.65,3.5s-.59-.59-.16-1.15a3.94,3.94,0,0,1,3.11-.88,1.74,1.74,0,0,1,1.18,1.2l-1.1,1.89s-2.08-.29-2.3-.4-.2-.19-.2-.19L14.12,5.54s-.77-.14-.39-.46,2-1.37,2-1.37Z"/><path class="cls-2" d="M16.5,7.29a14,14,0,0,0-2.45-.72,5.46,5.46,0,0,0-1.94.15,20.16,20.16,0,0,0-2.5,1.37s.26,1.15.26,1.27-.21,1.53.3,2a6.23,6.23,0,0,0,4.37.54c1.72-.44,2.05-1.17,2.05-1.17Z"/><path class="cls-3" d="M18.9,6.1a1.18,1.18,0,0,0-.27-.73c-.29-.37-.8-.85-.82-.91s.34-.15.35-.18a5.13,5.13,0,0,0-.2-.7.15.15,0,0,1,.2-.18,3.29,3.29,0,0,1,.47.3s-.25-1-.13-1,.9.83.9.83-.47-1.31.2-.92S20.91,5,20.91,5s-.15-.37,1-.63a3.28,3.28,0,0,0,1.38-.2,6.45,6.45,0,0,1,1.47-.84,4,4,0,0,1,2.94.43A3.68,3.68,0,0,1,29.36,6.1a4,4,0,0,1-1.31,2.46A8.92,8.92,0,0,1,25,9.85a1.92,1.92,0,0,1-1.17,0c-.38-.11-1.8-.44-1.8-.44s.21,1-1.59,1.57a8.49,8.49,0,0,1-3.45.31,4.43,4.43,0,0,1-1.36,0c-.3-.09-.4-2.48-.65-3s-.55-1.14-.65-1.41a.39.39,0,0,1,.21-.54c.14,0,.5-.12.5-.12s.49-1,.54-1L16.33,4a1.59,1.59,0,0,0,.93.27l.57.35s.15.11.09.2a3.14,3.14,0,0,0-.19,1V6l-.16.32-.11.3,1.18.23Z"/><path class="cls-3" d="M12.51,6.64a5.71,5.71,0,0,0-1.09-.3A29.4,29.4,0,0,0,8.3,6a18.37,18.37,0,0,1-2.21.51c-.39.06-.54.14-.75-.13s-.23-.59-.64-.63A1.58,1.58,0,0,0,4,5.79a6.24,6.24,0,0,0-.74.13c-.14.06-.45.29-.2.47s.19.27.44.53.69.77.66,1a.8.8,0,0,0,.7.64c.35,0,1-.19,1.31-.17a3.2,3.2,0,0,1,.53.1A15.4,15.4,0,0,0,5.49,9.84a2.07,2.07,0,0,1-1.11.45c-.28,0-1.16-.34-1.33-.37s-.54-.16-.64-.05-.29.26-.1.46.11.35.4.7a2.28,2.28,0,0,0,1.35.79c.41,0,2.9.45,3,.14s0-.64.54-.87a2.31,2.31,0,0,0,1-.86A1.35,1.35,0,0,1,9,9.85a4.46,4.46,0,0,0,2.22,1.43c1.15.18,2.21,0,2.59-.72s.78-1.8-.11-2.16A9.67,9.67,0,0,0,12,7.88s-.26-.13-.09-.46a5.35,5.35,0,0,1,.58-.78"/><path class="cls-4" d="M24.12,9.8h0l-.2-.08a12.15,12.15,0,0,0-1.73-.43h0a.22.22,0,0,0-.24.12v0a.83.83,0,0,1-.07.18.87.87,0,0,1-.11.18,2.42,2.42,0,0,1-.3.35,4.1,4.1,0,0,1-.4.29,2.53,2.53,0,0,1-.23.12l-.25.11a6,6,0,0,1-1.11.31,9.61,9.61,0,0,1-1.2.16c-.41,0-.81,0-1.22,0a6.12,6.12,0,0,0-.63.06,2.58,2.58,0,0,1-.55,0A.42.42,0,0,1,15.5,11a2.36,2.36,0,0,1-.08-.4L15.3,9.8c-.09-.55-.15-1.11-.27-1.67a4,4,0,0,0-.12-.43,3.11,3.11,0,0,0-.2-.41l-.22-.38-.09-.19,0,0,.15,0,.26-.06a4.41,4.41,0,0,1,.54-.07,7.18,7.18,0,0,1,1.13,0l.56.1.28.06.28.07.57.12.24.06a1.26,1.26,0,0,0,0,.28,1.13,1.13,0,0,0,.06.31.71.71,0,0,0,.07.16l.07.08h0v.14l0,.28a2,2,0,0,1-.07.54,2.33,2.33,0,0,1-.53,1l0,0a2.77,2.77,0,0,0,.73-1,2.87,2.87,0,0,0,.14-.56l0-.28,0-.09a.08.08,0,0,0,.06-.1.09.09,0,0,0,0,0s0,0,0,0l0,0,0,0v0a.37.37,0,0,1-.05-.11.69.69,0,0,1,0-.25,1.59,1.59,0,0,1,.15-.52,4.55,4.55,0,0,0,.29-1.14.14.14,0,0,0-.08-.14h0L19,5.32l-.13-.11A1.86,1.86,0,0,1,18.62,5l-.1-.14-.15-.17a2.69,2.69,0,0,0-.27-.2l.31.11h0a.39.39,0,0,0,.26,0c.12,0,.16-.16.09-.24l-.5-.57-.12-.15-.07-.09.15.12.58.52h0a.2.2,0,0,0,.2,0c.09,0,.13-.09.09-.15-.13-.21-.26-.43-.37-.65s-.11-.22-.16-.33a1.09,1.09,0,0,1-.09-.33h0l.16.11a3.9,3.9,0,0,1,.29.28,5.8,5.8,0,0,1,.52.61.12.12,0,0,0,.09,0s.07,0,.06-.07a3.43,3.43,0,0,1-.24-1,.37.37,0,0,1,0-.11v0h0l.1.09a3.47,3.47,0,0,1,.34.42,4.32,4.32,0,0,1,.49.92c.11.31.19.64.28,1l.12.49c.05.18.11.33.16.5l.3,1a2,2,0,0,1,.09.48,3,3,0,0,0,.07.51,9.1,9.1,0,0,0,.27,1h.05l0-.3.08.06a2.81,2.81,0,0,0,.31.08,2.84,2.84,0,0,0,.6.08h.27v0l-.22-.09a2.57,2.57,0,0,1-.45-.21,1.74,1.74,0,0,1-.2-.13l-.23-.07-.19,0,0-.37a4,4,0,0,1,0-.49,1.8,1.8,0,0,0,0-.52,1.55,1.55,0,0,0-.05-.23,1,1,0,0,0,.47.13,3.9,3.9,0,0,0,.6-.08c-.95-.25-1.06-.86-1.06-.86a1.28,1.28,0,0,0-.15.23,1.8,1.8,0,0,0-.05-.19l-.13-.49-.1-.49c0-.06,0-.12,0-.18l.11-.06a2.23,2.23,0,0,1,.57-.25,6.8,6.8,0,0,1,1.09,0l.29,0h0s.35-.09.45,0-.09.34-.09.34l-.09-.06a.61.61,0,0,0,.08-.19c0-.09-.11,0-.25,0s-.15.15-.15.15l-.11,0a1.07,1.07,0,0,0,.57.21s.29-.3.11-.46a.38.38,0,0,0-.28-.06l.2-.08c.23-.12.38-.26.57-.37l.1-.06a.45.45,0,0,1,.12.23c.18.59-.65,1.08-.65,1.08s.93-.41.9-1a.49.49,0,0,0-.22-.42,2.86,2.86,0,0,1,1.1-.37,4.09,4.09,0,0,1,.61,0l.58.25-1,0a7.22,7.22,0,0,0,2,.72H25.74a14.3,14.3,0,0,0,2,.53l-1.2.06,1.22.41h-.81l1.16.35H26.75l1.4.56-.73.08.53.23-.71.12a5.39,5.39,0,0,0,.71.16s-1,.06-1.28.45-.49.78-.49.78L27,7.4s-.65.83-1.13.9a5.94,5.94,0,0,1-.75.07l1.13.07a8.74,8.74,0,0,1-1.09.12,3,3,0,0,1,.83.09l.07,0H26v0l.12.1c.07.05.18.14.17.19a.2.2,0,0,1,0,.08v0s0,0,0,0l0,.06,0,0-.05,0a1.29,1.29,0,0,1-.41.16h-.25l-.36,0-.33,0-.27,0-.09,0-.09,0a.19.19,0,0,1-.09-.05.12.12,0,0,1,0-.1A.37.37,0,0,1,24.28,9l0,0a.44.44,0,0,0-.19.06.3.3,0,0,0-.15.16.25.25,0,0,0,.08.28.64.64,0,0,0,.13.1l.05,0-.38.06.69.12-.36.05Zm-8.46,1.65h0a4.37,4.37,0,0,1-.71.22,9.11,9.11,0,0,1-1.08.17c-.2,0-.41,0-.62,0s-.42,0-.63,0l-.63,0-.3-.05-.3-.06-.53-.14a3.65,3.65,0,0,1-.44-.18A.86.86,0,0,1,10,11s0,0,0-.05l.11.07a2.17,2.17,0,0,0,.35.15,4,4,0,0,0,.76.19,3.82,3.82,0,0,0,1.58,0,3,3,0,0,0,.36-.13,1.54,1.54,0,0,0,.31-.17,1.73,1.73,0,0,0,.25-.21c.08-.07.13-.16.2-.23a2.29,2.29,0,0,0,.36-.78,1.63,1.63,0,0,0,0-.82,1.23,1.23,0,0,0-.55-.75l-.26-.13L13.2,8l-.54-.19-.82-.22A2.25,2.25,0,0,1,12,7.37a3.69,3.69,0,0,1,.28-.29,2.17,2.17,0,0,1,.39-.25,3.24,3.24,0,0,1,.47-.16l.25,0,.24,0a1.47,1.47,0,0,1,.28,0h0a.27.27,0,0,0,0,.09s0,.08,0,.12l.11.21c.08.13.17.26.26.39a2.12,2.12,0,0,1,.24.37c.06.12.12.26.17.39a6,6,0,0,1,.4,1.64c0,.28.06.56.06.84a2.22,2.22,0,0,0,0,.43.66.66,0,0,0,.5.33ZM9.22,9.78h0a.23.23,0,0,0-.11-.07.29.29,0,0,0-.3.08h0l-.26.41-.07.1a.2.2,0,0,1-.06.07.85.85,0,0,1-.17.14,4.68,4.68,0,0,1-1,.45h0a.21.21,0,0,0-.1.06,1.63,1.63,0,0,0-.17.22l-.12.21c0,.07-.07.16-.09.22a.42.42,0,0,1-.07.12.7.7,0,0,1-.36.06c-.18,0-.36,0-.57-.07-.43-.07-.85-.1-1.27-.13l-.52,0H4a.23.23,0,0,0,0-.1H4a.16.16,0,0,0-.09-.16.38.38,0,0,0-.1,0,.11.11,0,0,0,0-.13.25.25,0,0,0-.28-.1h0a1.4,1.4,0,0,0-.35.1H3.17l-.06,0,0,0,0,0,.09,0,.1,0c.09,0,.14-.09.12-.15s-.12-.12-.23-.11h0l-.14,0a.72.72,0,0,1-.2,0l-.09-.06,0,0a.25.25,0,0,0,0-.07.08.08,0,0,1,0,0H2.7l.18,0,.24.05a.17.17,0,0,0,.17-.06s0-.11-.08-.13h0a2.5,2.5,0,0,0-.49-.1h-.1c-.18,0-.3-.08-.3-.18a.4.4,0,0,1,.18-.3.57.57,0,0,1,.22,0L3,10l.54.16a3.92,3.92,0,0,0,.57.15,1.87,1.87,0,0,0,1.19-.17,1.62,1.62,0,0,0,.35-.34L6,9.42c.22-.23.44-.46.66-.67s.47-.44.72-.64a3.9,3.9,0,0,1,.81-.53,1.93,1.93,0,0,1,1-.1q.57,0,1.14.12A20.32,20.32,0,0,1,12.53,8l.54.15.26.09.23.1a1.19,1.19,0,0,1,.57.65,1.42,1.42,0,0,1,0,.79,2.27,2.27,0,0,1-.33.77,2.29,2.29,0,0,1-.21.23,2.73,2.73,0,0,1-.25.2,2.11,2.11,0,0,1-.3.16l-.35.11a3.4,3.4,0,0,1-1.49,0,3.39,3.39,0,0,1-.68-.22,1.68,1.68,0,0,1-.3-.15L10,10.66A4.66,4.66,0,0,1,9.22,9.78ZM14.29,6.7h0a.3.3,0,0,1-.16,0Zm1.1-.78h0a2.3,2.3,0,0,0,.2-.35c.05-.13.09-.27.15-.41A2.1,2.1,0,0,1,16,4.77c.08-.13.14-.25.2-.36l.16-.27a2.73,2.73,0,0,0,.52.16,1.85,1.85,0,0,0,.34,0l0,0,.07.06c.15.11.27.16.38.23l.21.14a1.33,1.33,0,0,0-.14.2,3.71,3.71,0,0,0-.29.63A2.79,2.79,0,0,0,17.3,6a.8.8,0,0,0,0,.31,1,1,0,0,0,.11.25h0l-.28-.08c-.18-.06-.38-.1-.58-.15a5.67,5.67,0,0,0-1.24-.1h-.17A3.15,3.15,0,0,0,15.39,5.92Zm0-1.47h0c-.23.14-.5.31-.78.5l-.43.29-.09.06h0a.25.25,0,0,1-.13,0h0A.34.34,0,0,1,14,5.18l.39-.31.67-.57c.32-.29.52-.51.58-.57l.18.15.26.17C16,4.12,15.73,4.25,15.4,4.45Zm-1.31.86h0s0,0,0,0Zm4.52.78h0a4.9,4.9,0,0,1-.13.55,1.42,1.42,0,0,0-.07.22l-.2-.07-.54-.18-.15,0a1.39,1.39,0,0,0,.2-.26,1,1,0,0,0,.11-.3c0-.1,0-.22,0-.34s0-.46.05-.64a.8.8,0,0,1,0-.18v0A.36.36,0,0,1,18,5s.07.1.11.15a3.84,3.84,0,0,0,.28.3l.17.14.09.06C18.66,5.78,18.64,5.94,18.61,6.09ZM16.15,2h0A2.19,2.19,0,0,0,17.5,3.24a.58.58,0,0,0,0,.19,1.62,1.62,0,0,0,.1.18c0,.05.08.11.12.15l.12.15.07.1-.21,0h-.18a.5.5,0,0,0-.16,0L17.3,4c-.09,0-.09.07-.13.11a.17.17,0,0,0,0,.15s0,0,0,.05l-.3-.08a2.1,2.1,0,0,1-.77-.49,1.91,1.91,0,0,1-.33-.42.82.82,0,0,1-.14-.49A1.09,1.09,0,0,1,16.15,2ZM17,1.64h0a3.53,3.53,0,0,1,.79-.08l.4,0a2,2,0,0,1,.35.06,1.86,1.86,0,0,1,.59.22,1.22,1.22,0,0,1,.52.61.08.08,0,0,1,0,0l-.07-.06a.27.27,0,0,0-.13,0l-.07,0h-.1s-.08,0-.09.06l0,0a.15.15,0,0,0,0,.08v.14a4.24,4.24,0,0,0,.17.61l-.23-.27q-.13-.15-.3-.3a1,1,0,0,0-.19-.14l-.11,0H18.4c-.11.05-.1.1-.11.13a1.16,1.16,0,0,0,.06.38l.11.29-.23-.2a1.33,1.33,0,0,0-.2-.14l-.17,0h-.07s.08,0-.09,0h0a.25.25,0,0,0-.15.13L16.19,2l.1-.07A2.41,2.41,0,0,1,17,1.64ZM30.31,5.27A4.13,4.13,0,0,0,29,4.09a8.17,8.17,0,0,0-1.72-.79A4.59,4.59,0,0,0,25.37,3a3.18,3.18,0,0,0-1.58.61c-.2.13-.36.28-.51.36a1.32,1.32,0,0,1-.53.17,5.44,5.44,0,0,0-1.12.14,1.79,1.79,0,0,0-.56.33l-.06,0a5.43,5.43,0,0,0-.24-.75,2,2,0,0,0-.28-.49c-.1-.15-.22-.3-.34-.45a5,5,0,0,0-.39-.42.66.66,0,0,0,0-.13,1.1,1.1,0,0,0-.41-.73,1.94,1.94,0,0,0-.66-.33,2.59,2.59,0,0,0-.42-.09c-.16,0-.27,0-.44-.05a4.47,4.47,0,0,0-1,.06,3.25,3.25,0,0,0-.89.32,1.34,1.34,0,0,0-.8,1.21,1.07,1.07,0,0,0,.24.6,1.76,1.76,0,0,0,.26.28c-.08,0-.39.2-.79.44-.23.14-.5.31-.78.5L13.67,5a.64.64,0,0,0-.21.27c-.05.13.08.31.23.36a1.08,1.08,0,0,0,.47.07,1,1,0,0,0,.17,0l.12-.06.1-.08.4-.31.67-.57c.26-.24.45-.43.54-.53l.08.05L16,4.36c-.09.09-.2.19-.3.31a3.28,3.28,0,0,0-.34.39,4.81,4.81,0,0,0-.27.41,1.1,1.1,0,0,0-.09.38.82.82,0,0,0,0,.37l-.36,0-.31.07-.27.1a.22.22,0,0,0-.12.06,1.07,1.07,0,0,0-.31-.08,2.2,2.2,0,0,0-.6,0,2.33,2.33,0,0,0-.35.06,1.54,1.54,0,0,0-.3.11c-.24-.09-.48-.16-.72-.23l-.84-.19c-.29,0-.57-.1-.87-.13s-.59-.06-.89-.07H8.63L8.39,6,8.17,6c-.29.06-.56.13-.85.18-.53.11-1.1.12-1.63.25l0,0-.12-.07a1,1,0,0,1-.18-.22L5.24,6l-.13-.13a.92.92,0,0,0-.39-.16l0,0a.1.1,0,0,0,0,0,.3.3,0,0,0-.21,0,.26.26,0,0,0-.15,0,.16.16,0,0,0-.07.09h.22l0,0c.07,0,.22.17.23.17a.44.44,0,0,0,0-.09.22.22,0,0,0,0-.16.57.57,0,0,1,.2.21A.34.34,0,0,1,5,6.05l0,.13a.77.77,0,0,0,.17.3.73.73,0,0,0,.16.14l.1.06.15.05h.14a5.36,5.36,0,0,0,.81-.22,5.51,5.51,0,0,1,.82-.23,5.8,5.8,0,0,1,.85-.11h.21l.2,0,.41,0c.28,0,.56.08.84.12l.86.11c.28,0,.57.07.86.09l.7,0-.19.13a1.26,1.26,0,0,0-.2.2,1,1,0,0,0-.18.39.67.67,0,0,0,0,.24c-.44-.1-.89-.19-1.35-.25a11.69,11.69,0,0,0-1.19-.12,2.51,2.51,0,0,0-1.28.16A4.05,4.05,0,0,0,7.05,8l-.44.44a1.77,1.77,0,0,0-.52-.17,2.22,2.22,0,0,0-.37,0l-.35,0c-.22,0-.43,0-.62.06a.48.48,0,0,1-.46-.13,1.42,1.42,0,0,1-.1-.44A1.57,1.57,0,0,0,4,7.23,1.24,1.24,0,0,0,3.82,7l-.11-.1-.06,0s0,0,0,0,0,0,0-.1a.6.6,0,0,1,.08-.16.08.08,0,0,0,0,0c0-.1-.07-.2-.22-.22H3.36l-.07,0a.12.12,0,0,1,0-.08s0,0,0-.07a.11.11,0,0,1,0,0,.21.21,0,0,1,0-.07.2.2,0,0,1,.12,0,.91.91,0,0,1,.37.18l0,0a.57.57,0,0,0-.22-.28h.29l.08,0,.1,0L4.22,6a.13.13,0,0,0,0-.11.24.24,0,0,0-.06-.11A.4.4,0,0,0,4,5.68a.5.5,0,0,0-.34.08l-.05,0h0a.57.57,0,0,0-.38,0,.49.49,0,0,0-.29.18A.44.44,0,0,0,2.82,6a.62.62,0,0,0,0,.1.31.31,0,0,0,0,.26.52.52,0,0,0,.27.21h0a.19.19,0,0,1,0,.07A.42.42,0,0,0,3.23,7l.08.06.06,0,.11.07a1.56,1.56,0,0,1,.2.16A1.13,1.13,0,0,1,4,7.74.81.81,0,0,1,4.07,8a.77.77,0,0,0,.06.24.44.44,0,0,0,.22.23,1,1,0,0,0,.37.11,2.44,2.44,0,0,0,.72,0c.23,0,.4,0,.61-.06l.49,0-.16.16c-.21.23-.41.47-.6.7l-.3.35a2,2,0,0,1-.31.33,1.63,1.63,0,0,1-1,.14c-.35-.06-.7-.22-1.08-.31l-.29-.07a.74.74,0,0,0-.36,0,.52.52,0,0,0-.22.18.41.41,0,0,0-.09.23.27.27,0,0,0,.15.24l.1.05a.18.18,0,0,0-.06.1.45.45,0,0,0,0,.12.46.46,0,0,1,0,.09l.06.09a.67.67,0,0,0,.25.16.13.13,0,0,0,0,.06.22.22,0,0,0,0,.12l.08.08.09.06.09.05H3a.28.28,0,0,0,0,.09.38.38,0,0,0,.19.17l.08.05.13,0h0a.38.38,0,0,0,.18.13l.09,0h.13l.63.06a11.27,11.27,0,0,1,1.2.14,6.16,6.16,0,0,0,.67.08,2.68,2.68,0,0,0,.39,0A.88.88,0,0,0,7.09,12a.52.52,0,0,0,.19-.27c0-.07,0-.13.08-.19l.1-.19.09-.13a5.08,5.08,0,0,0,1-.5,1.59,1.59,0,0,0,.24-.2,1.13,1.13,0,0,0,.1-.13L9,10.32l.07-.12a4.69,4.69,0,0,0,.7.62l.13.08s0,.06,0,.1a.72.72,0,0,0,.36.54,2,2,0,0,0,.44.26,5.36,5.36,0,0,0,.57.2,4.82,4.82,0,0,0,.65.15l.69.07A6.83,6.83,0,0,0,14,12.14a5.08,5.08,0,0,0,1.12-.28,3.57,3.57,0,0,0,.39-.19,1.85,1.85,0,0,0,.27-.17l.08-.08a3.56,3.56,0,0,0,.65,0l.58,0c.39,0,.8,0,1.19.05h0a11.17,11.17,0,0,0,1.31-.14A5.84,5.84,0,0,0,20.84,11l.29-.14c.1,0,.18-.1.26-.14a4.8,4.8,0,0,0,.47-.36,2.18,2.18,0,0,0,.33-.42,2.4,2.4,0,0,0,.11-.23.19.19,0,0,0,0-.07c.44.06.88.14,1.3.24h0l.57.18h-.43v0l.15,0-.58.1s.41,0,1,0l.38,0a7.62,7.62,0,0,0,1.14,0,7.41,7.41,0,0,0,1.43-.29,6.17,6.17,0,0,0,1.48-.68,4.76,4.76,0,0,0,.66-.5l.28-.26.07-.07.07-.09.13-.15a3.07,3.07,0,0,0,.69-1.37A1.94,1.94,0,0,0,30.31,5.27Z"/><path class="cls-4" d="M22.24,5.24a.55.55,0,0,0-.09.38c.22-.58.84-.28.84-.28a.51.51,0,0,0-.75-.1"/><path class="cls-4" d="M22.83,6c-.13,0-.18,0-.2-.22s-.15-.09-.15-.09c-.22.16.12.36.26.4S23,6,23,6s0,0-.16,0"/><path class="cls-4" d="M24.78,6.18,24.67,6s.42-.1.31-.32a.33.33,0,0,0-.37-.14s.33-.1.46.07a3.48,3.48,0,0,1,.27.83s.34-1.1-.63-1l-.35.08s-.26.4.42.69"/><path class="cls-4" d="M25.92,5.21a2.34,2.34,0,0,1,.14,1.13s.24-.74,0-1.1-.61-.38-.74-.19a.46.46,0,0,1,.58.16"/><path class="cls-4" d="M25.15,8.56h0"/></svg>