<svg id="Capa_1" data-name="Capa 1" xmlns="http://www.w3.org/2000/svg" viewBox="0 0 31.44 15.84"><defs><style>.cls-1{fill:#f8992f;}.cls-2{fill:#f5a4c7;}.cls-3{fill:#fbc9b5;}.cls-4{fill:#231f20;}</style></defs><title>3-4meses</title><path class="cls-1" d="M15.4,6.93s.13-1.65.69-1.84,1.69-.51,1.69-.51,1.78.12,2.21.55a5.55,5.55,0,0,1,.91,2.45,5.2,5.2,0,0,1-1.51,1.23c-.28,0-4-.63-4-1.88"/><path class="cls-2" d="M11.73,12.6s-.92.86-.64,1.21,2.07.54,3.41.32a5.61,5.61,0,0,0,2.73-.92.86.86,0,0,0,.17-1.14c-.13-.25-4.29-4.51-4.29-4.51a2.66,2.66,0,0,0-1.29.12,3.22,3.22,0,0,0-1.45,1.06Z"/><path class="cls-3" d="M10.54,8.63c.05-.05.44-.71.44-.71a4,4,0,0,0-.8-.85c-.31-.18-1.4-.66-1.77-.82a10.57,10.57,0,0,1-1.26-.86,3.76,3.76,0,0,0,.46-.94,2.3,2.3,0,0,0,.06-.73c0-.19-.34-.45-.34-.45s0-.12-.23-.26a1,1,0,0,1-.37-.4.52.52,0,0,0-.58-.08.87.87,0,0,0-.37.5c-.06.17-.37.3-.52.33s-.29.16-.43.43A11,11,0,0,1,3.46,5.16c-.38.33.09.82.47,1a8.86,8.86,0,0,0,1,.25,7.27,7.27,0,0,0,1,1.47,5.32,5.32,0,0,0,1.39.56S7,8.38,7,9a2.5,2.5,0,0,0,0,.73,9,9,0,0,0-1,1.11c-.14.27-.49,1.14-.89,1.19A3.88,3.88,0,0,1,4,11.77a3.26,3.26,0,0,0-1-.57c-.31,0-.14-.21-.39-.06s-.43.43-.26.52a.72.72,0,0,0,.36.09.34.34,0,0,0-.1.43l.19.28s-.17.25,0,.35.27-.06.19.16-.45.29-.07.38.47.13,1.12.29.41.4,1,.5A4.1,4.1,0,0,0,7,14.1c.38-.21.5-.59.78-.85a7.42,7.42,0,0,1,1-.68,5.35,5.35,0,0,0,1.33.46c.92.22,1.28.29,1.28.29s1.86.23,2-.51a4.73,4.73,0,0,0-.59-2.87,5.92,5.92,0,0,0-2-1Z"/><path class="cls-3" d="M16.09,7.13a2,2,0,0,0,.1.41c0,.14.51.19.51.19s1.51.13,1.72.16.43,0,.57.05,1.27-1,1.29-1.44a2.16,2.16,0,0,0-.11-1A1,1,0,0,0,20,5.22a1.28,1.28,0,0,1,.86-.49A2.62,2.62,0,0,0,22,4.31c.1-.13,1.11-1.5,2-1.49a6,6,0,0,1,2.28.71c.16.11,2,2.07,1.94,4s-.62,2.09-.72,2.19-1.57.55-1.6.59-.91.38-.91.38h-.88l-.1.16a.22.22,0,0,0-.06.18,2.12,2.12,0,0,1-.26.66,3.65,3.65,0,0,1-1.16.92,2,2,0,0,1-1.91-.24c-.8-.57-.93-.53-.93-.53s-.43,0-1.15.1a8.5,8.5,0,0,0-1.46.41,1.93,1.93,0,0,1-1-.27,10.82,10.82,0,0,1-2.45-2.49c-.58-.95-.83-1.47-.73-1.81A1.94,1.94,0,0,1,14.2,6.33c.93-.23,1.12-.21,1.39,0a4.5,4.5,0,0,1,1.11.77c.19.29.07.44-.17.29a2.06,2.06,0,0,0-.44-.22"/><path class="cls-4" d="M17,4.88h0l.21-.06a4.24,4.24,0,0,1,1-.12,2.76,2.76,0,0,1,1.11.23,1.38,1.38,0,0,1,.71.65,1.23,1.23,0,0,1,.08.8,1.55,1.55,0,0,1-.36.71,2.37,2.37,0,0,1-.71.49l0-.06a.84.84,0,0,0,.07-.24.83.83,0,0,0,0-.28,1,1,0,0,0,0-.33,1.13,1.13,0,0,0-.13-.33A1.46,1.46,0,0,0,18.86,6a2.94,2.94,0,0,0-.31-.3c-.11-.09-.24-.16-.36-.24a3.85,3.85,0,0,0-.74-.32,3.15,3.15,0,0,0-.7-.15l.07,0L17,4.88M14.09,6.4a3.61,3.61,0,0,1,.81-.14,1.67,1.67,0,0,1,.39,0l.16,0,.17.1c.23.12.48.22.68.34a1.45,1.45,0,0,1,.44.45.13.13,0,0,1,0,.08l-.15-.06-.16-.07a1.81,1.81,0,0,1-.52-.42.2.2,0,0,0-.17,0c-.07,0-.11.07-.08.12a2.92,2.92,0,0,1,.23.47,2.1,2.1,0,0,1,.06.24v0a.3.3,0,0,1-.1,0l-.11-.08a1.56,1.56,0,0,1-.16-.2,1.6,1.6,0,0,1-.1-.23c0-.08,0-.16-.07-.25a.16.16,0,0,0-.17-.08c-.08,0-.14.06-.13.11v0h0v0a2.17,2.17,0,0,0,.07.24c0,.1,0,.21.07.31a.87.87,0,0,1,0,.28.17.17,0,0,1,0,.1h0l-.09,0,0,0a.52.52,0,0,1-.1-.11,1,1,0,0,1-.13-.27l-.06-.22a2.2,2.2,0,0,0-.05-.37s-.06-.08-.13-.08-.13,0-.13.09a2.63,2.63,0,0,0,.07.49s0,0,0,.07a2.44,2.44,0,0,1,0,.27s0,.09,0,.13a.23.23,0,0,1,0,.1s0,0,0,0h0s0,0,0,0h0a.42.42,0,0,1-.12-.07.87.87,0,0,1-.16-.23A1.68,1.68,0,0,1,14.13,7h0a.09.09,0,0,0-.08-.06C14,6.93,14,7,14,7h0a1.23,1.23,0,0,0,0,.27c0,.06,0,.12,0,.18a1.79,1.79,0,0,1,0,.23.42.42,0,0,1,0,.1.09.09,0,0,1-.08.06.22.22,0,0,1-.13,0l-.12-.08a.53.53,0,0,1-.16-.2.48.48,0,0,1,0-.45.51.51,0,0,0-.06.46.54.54,0,0,0,.16.22l.11.09a.32.32,0,0,0,.18.06A.21.21,0,0,0,14,7.81a.67.67,0,0,0,.06-.12.13.13,0,0,0,0-.06,1.21,1.21,0,0,0,.14.2.49.49,0,0,0,.18.11h.16a.3.3,0,0,0,.16-.06.38.38,0,0,0,.09-.16h0a.43.43,0,0,0,.09.1l.11.08.1,0a.46.46,0,0,0,.2,0,.34.34,0,0,0,.18-.09.34.34,0,0,0,.08-.18.38.38,0,0,0,0-.1l.1.08.18.08a.57.57,0,0,0,.16,0,.27.27,0,0,0,.2-.09.25.25,0,0,0,0-.18,1.34,1.34,0,0,0-.07-.27l0,0a1.48,1.48,0,0,0,.13.08l.19.09a1,1,0,0,0,.22.07.4.4,0,0,0,.19,0c.09,0,.14-.1.13-.13A.32.32,0,0,0,17,7.16a1.6,1.6,0,0,0-.53-.5c-.23-.14-.49-.22-.71-.33l-.08,0v0A1.25,1.25,0,0,1,15.73,6a1.65,1.65,0,0,1,.73-.81A1.46,1.46,0,0,1,16.71,5c.1.05.32.15.58.3a5.66,5.66,0,0,1,.59.37,2.86,2.86,0,0,1,.54.5,1.71,1.71,0,0,1,.2.27,2.07,2.07,0,0,1,.25.56.85.85,0,0,1,.05.26c0,.08,0,.16,0,.22v.14a3.22,3.22,0,0,1-.68.17,4.38,4.38,0,0,1-.8,0,6,6,0,0,1-.62-.11,2.84,2.84,0,0,1-.39-.11l-.14,0,0,0,.12.07a3.9,3.9,0,0,0,.36.18,3.63,3.63,0,0,0,.63.2,3.74,3.74,0,0,0,.92.07A3.21,3.21,0,0,0,18.94,8l0,0,.21.14a4.44,4.44,0,0,0,.72.34A7.25,7.25,0,0,0,21,8.86a5.87,5.87,0,0,1-1-.46,5.06,5.06,0,0,1-.54-.4l-.11-.11h0a2.19,2.19,0,0,0,.88-.62l.11-.15.05,0a1.57,1.57,0,0,0,1.45.16C21.51,7.18,20.66,6,20.66,6a.3.3,0,0,1,0,.21,1.39,1.39,0,0,0-.27-.7,2.4,2.4,0,0,0-.88-.66,4.55,4.55,0,0,0-1.16-.33,3.83,3.83,0,0,0-1.22,0l-.29.08-.23.08a2.33,2.33,0,0,0-.42.24,1.3,1.3,0,0,0-.65,1,.78.78,0,0,0,0,.29.79.79,0,0,0-.22-.06,1.7,1.7,0,0,0-.45,0,3.24,3.24,0,0,0-.83.19,1.28,1.28,0,0,0-.62.41,2,2,0,0,0-.32.54,2,2,0,0,1,.37-.52A1.21,1.21,0,0,1,14.09,6.4Z"/><path class="cls-4" d="M24,11h0a.65.65,0,0,0,.24-.19.56.56,0,0,0,.05-.08l.51.09,0,0-.13,0-.25,0v0h.17l-.49.18A.81.81,0,0,0,24,11m.46-.81h0l.06,0,.15.05-.27.09s0,0,0-.06,0-.11,0-.16Zm-.07.29h0a.2.2,0,0,1,0-.07l.61,0-.67.22A1.21,1.21,0,0,0,24.36,10.44ZM8.94,12.64h0a3.34,3.34,0,0,0,.45-.38,1.34,1.34,0,0,0,.22-.36.81.81,0,0,0,0-.38,1.09,1.09,0,0,0-.12-.36,2.39,2.39,0,0,0-.21-.34H9.27a2.63,2.63,0,0,1,.15.35.8.8,0,0,1,.05.34.69.69,0,0,1-.09.34,1.17,1.17,0,0,1-.22.29,4,4,0,0,1-.72.5l-.39.25a2.15,2.15,0,0,0-.35.32c-.2.22-.29.48-.45.63a.94.94,0,0,1-.31.18l-.23.06a1.06,1.06,0,0,1-.2,0,2.56,2.56,0,0,1-.9-.09,2.49,2.49,0,0,1-.44-.14,3.89,3.89,0,0,1-.41-.17.4.4,0,0,0-.13,0,5.16,5.16,0,0,1-.52-.09l-.13,0,.16,0a.2.2,0,0,0,.15-.14c0-.09-.08-.18-.21-.19h0a4.7,4.7,0,0,0-.66,0l-.18,0-.07,0,0,0h0A.44.44,0,0,1,3.23,13a2.37,2.37,0,0,1,.42-.22h0c.1,0,.13-.12.08-.19a.27.27,0,0,0-.29-.06h0l-.18.06-.18,0H2.93l0,0,0,0a.68.68,0,0,1,.17-.09h0l.14,0a1.22,1.22,0,0,0,.28-.14c.05,0,.07-.07,0-.11a.17.17,0,0,0-.19-.06h0l-.46.16,0,0a.34.34,0,0,1-.12-.06s0,0,0-.08l0-.09a.18.18,0,0,1,0-.16s.08,0,.17,0h0l.54.1a.09.09,0,0,0,.1,0s0-.06,0-.08a2.43,2.43,0,0,0-.63-.12h0l-.3-.06h0s-.08-.06-.06-.14a.86.86,0,0,1,.11-.24.3.3,0,0,1,.17-.15.54.54,0,0,1,.27.09A5.74,5.74,0,0,0,4.14,12l.22,0,.2,0,.35,0a1.07,1.07,0,0,0,.51,0,.72.72,0,0,0,.33-.26,7.69,7.69,0,0,0,.55-1,4.12,4.12,0,0,1,.25-.47A3.17,3.17,0,0,1,7,10a1.64,1.64,0,0,1,.26-.16,1.32,1.32,0,0,1,.29-.15,6.08,6.08,0,0,1,.64-.25c.22-.06.45-.13.69-.18l.73-.13L10.27,9l.52,0a.05.05,0,0,1,0,0l.13,0,.2.07.22.11a4.44,4.44,0,0,1,.74.55,3.83,3.83,0,0,1,1,1.38,2.59,2.59,0,0,1,.11.37,1.76,1.76,0,0,1,.06.38,2.51,2.51,0,0,1,0,.39,1.62,1.62,0,0,1-.09.38.9.9,0,0,1-.23.32.88.88,0,0,1-.41.2,2.06,2.06,0,0,1-1.07-.08h0a.13.13,0,0,0-.12,0l0,0ZM7.07,9h0a1.13,1.13,0,0,1,.13-.32l.11-.15a.63.63,0,0,1,.13-.11.07.07,0,0,0,0-.06c0-.05,0-.1-.11-.1h0a1.86,1.86,0,0,1-.47-.09A1.25,1.25,0,0,1,6.5,8a1.59,1.59,0,0,1-.57-.52,2.25,2.25,0,0,1-.27-.64.84.84,0,0,0-.26-.4,1.13,1.13,0,0,0-.21-.15,1.26,1.26,0,0,0-.26-.13l0,0h0a4,4,0,0,1-.52-.11,1.26,1.26,0,0,1-.42-.2.43.43,0,0,1-.2-.58A.69.69,0,0,1,4,5l.1,0,.15-.08a1.56,1.56,0,0,0,.25-.17A1.49,1.49,0,0,0,5,3.86c0-.13.08-.29.11-.35a1,1,0,0,1,.4-.06.67.67,0,0,0,.41-.13A.22.22,0,0,0,6,3.14.59.59,0,0,0,6,3c0-.12-.06-.24,0-.3a.65.65,0,0,1,.42-.08h.15s.06,0,.08,0,.07,0,.09.11a.87.87,0,0,1,0,.39,2.48,2.48,0,0,1-.13.35l0,0s0,.07.06.08a.12.12,0,0,0,.12,0,3.75,3.75,0,0,0,.19-.41L7,3A.39.39,0,0,1,7.1,3a.25.25,0,0,1,.08.17.62.62,0,0,1-.15.4.05.05,0,0,0,0,.08.1.1,0,0,0,.12,0h0l.24-.28a.2.2,0,0,1,.08.08.31.31,0,0,1,0,.17s0,0,0,.05,0,0,0,0L7.32,4h0s0,.11.09.13a.2.2,0,0,0,.17,0,.13.13,0,0,1,0,.06,1,1,0,0,1-.14.38,3.15,3.15,0,0,1-.6.73h0a.12.12,0,0,0,0,.2c.35.23.71.44,1.08.64a10,10,0,0,0,1.19.55l.31.11.28.12a2.8,2.8,0,0,1,.5.31,2,2,0,0,1,.6.65L10.62,8a1.38,1.38,0,0,0-.24.3,1.61,1.61,0,0,0-.15.33,1.82,1.82,0,0,0-.07.25A10.29,10.29,0,0,0,8,9.18a5.38,5.38,0,0,0-.71.24,1.92,1.92,0,0,0-.25.12A1.74,1.74,0,0,1,7.07,9Zm14.31.61h0v0a0,0,0,0,1,0,0S21.39,9.63,21.38,9.64Zm0,0ZM30,6.51V6.35a2.71,2.71,0,0,0-.61-1.46,4.91,4.91,0,0,0-1.42-1.15A7.92,7.92,0,0,0,26.1,3a6.07,6.07,0,0,0-2-.24,2.81,2.81,0,0,0-1.61.66,3.61,3.61,0,0,0-.42.48,3.13,3.13,0,0,1-.3.41,1.84,1.84,0,0,1-.89.35,1.93,1.93,0,0,0-.67.26c-.11.1-.14.16-.15.15l.05,0A2,2,0,0,1,20.29,5a1.62,1.62,0,0,1,.64-.17A2.11,2.11,0,0,0,22,4.44l.08-.08c1.12-.07,1,.74,1,.74a.85.85,0,0,0-.15-.71.59.59,0,0,0-.72-.12L22.42,4a3.39,3.39,0,0,1,.42-.43,2.41,2.41,0,0,1,1.33-.53h0l.68.2-1,.11a8.14,8.14,0,0,0,2.17.5l-1.79.27a14.35,14.35,0,0,0,2.14.29l-1.16.24,1.34.27-.79.12L27,5.27l-1.31.2,1.57.41-.68.19.59.18s-.6.21-.65.24a5.47,5.47,0,0,0,.75.07s-1,.22-1.09.69-.2.93-.2.93l.63-.76s-.34,1-.79,1.16a5,5,0,0,1-.7.19l1.13-.09a6.15,6.15,0,0,1-1,.29,3,3,0,0,1,.85,0l.09,0H26.1v0l.16.08a.49.49,0,0,1,.23.18.38.38,0,0,1,0,.12s0,0,0,0l0,.06h0l0,.07a1.21,1.21,0,0,1-.39.26l-.18,0-.38,0h-.35l-.27,0h-.09l-.07,0h0a.21.21,0,0,1-.16-.18.68.68,0,0,1,0-.12l0,0a.46.46,0,0,0-.16.1.22.22,0,0,0-.07.09.78.78,0,0,0-.28-.3.54.54,0,0,0-.18-.06.38.38,0,0,0-.15,0,.26.26,0,0,0-.13.07.17.17,0,0,0-.06.12l0,0a.65.65,0,0,0-.16-.18l-.1-.07-.15,0a.22.22,0,0,0-.18,0l0,0a1,1,0,0,0-.17-.1.82.82,0,0,0-.46,0l-.07,0L22,9.12a.5.5,0,0,0-.32,0,.31.31,0,0,0-.19.11.41.41,0,0,0-.08.14h-.17a.44.44,0,0,0-.24.09.17.17,0,0,0-.07.1.08.08,0,0,0,0,.05V9.7a.62.62,0,0,0,.24.27,1.32,1.32,0,0,1,.24.23.3.3,0,0,1,.06.24v0h-.17a2.49,2.49,0,0,0-.74.2.89.89,0,0,0-.28.21.47.47,0,0,0-.12.23.7.7,0,0,0,0,.23,1,1,0,0,1,.08-.21A.48.48,0,0,1,20.4,11a.8.8,0,0,1,.28-.13,2.38,2.38,0,0,1,.63-.05h.07v.1a.78.78,0,0,0,.07.34.52.52,0,0,0,.07.13h.05a.73.73,0,0,0,.09-.12,1,1,0,0,0,.15-.33,1.46,1.46,0,0,0,0-.22.59.59,0,0,0,0-.13,1.09,1.09,0,0,0-.08-.15c-.07-.09-.14-.17-.19-.25a1.05,1.05,0,0,1-.13-.26.49.49,0,0,1,0-.15l.09,0,.2.12a2.28,2.28,0,0,1,.3.23l.12.11h0a.59.59,0,0,0,0-.14.63.63,0,0,0-.12-.36.85.85,0,0,0-.21-.22,1,1,0,0,0-.31-.15l.1-.07.11,0a.19.19,0,0,1,.08,0l.05,0h0a.69.69,0,0,1,.17.17c.13.17.24.36.33.5s.09.14.11.18l.05.07a.9.9,0,0,0,0-.28,1.08,1.08,0,0,0-.22-.59l-.09-.09a.36.36,0,0,1,.17.07l.12.09.11.11A2.4,2.4,0,0,1,23,10l.13.24a.62.62,0,0,0,.07-.26A.8.8,0,0,0,23,9.43l-.11-.09a.15.15,0,0,1,.11,0l.08,0a.46.46,0,0,0,.07.07,1.14,1.14,0,0,1,.09.16,2.13,2.13,0,0,1,.13.71v.23l.25-.14a.39.39,0,0,0,.19-.21.57.57,0,0,0,0-.18,1.08,1.08,0,0,0,0-.18c0-.07,0-.11,0-.16h0a.73.73,0,0,1,.17.18,1.55,1.55,0,0,1,.14.29l0,.15a.88.88,0,0,1,0,.16.57.57,0,0,1-.3.56l.06,0a.46.46,0,0,1-.06.19,3.8,3.8,0,0,1-.33.49,3.71,3.71,0,0,1-.27.29,4,4,0,0,1-.37.28,2.9,2.9,0,0,1-1,.45,1.44,1.44,0,0,1-.62,0,1.52,1.52,0,0,1-.48-.28c-.14-.11-.26-.23-.38-.33L20,11.79c-.24-.16-.46-.29-.61-.38l-.26-.14,0,0a2.1,2.1,0,0,0,.42.53l-.26,0a8.5,8.5,0,0,0-1.33.18,3.45,3.45,0,0,0-.42.14l-.11.06h-.07c-.08.05-.09,0-.12,0a2.37,2.37,0,0,1-.77-.27A7,7,0,0,1,15,11a6.87,6.87,0,0,1-.6-.61,6.73,6.73,0,0,1-.49-.63c-.29-.43-.55-.82-.74-1.17s-.27-.65-.16-.85a.71.71,0,0,1,.27-.28l-.11.05a.73.73,0,0,0-.26.2,1,1,0,0,0,0,.94,7.41,7.41,0,0,0,.61,1.24,6.82,6.82,0,0,0,.47.67,7.51,7.51,0,0,0,.62.65,6.55,6.55,0,0,0,1.58,1.07,2.44,2.44,0,0,0,1,.28.82.82,0,0,0,.32-.06.41.41,0,0,1,0,.22.93.93,0,0,1-.27.3,2.92,2.92,0,0,1-.77.5,6.65,6.65,0,0,1-2,.47l-.54,0-.55,0c-.18,0-.36,0-.55,0h-.55a4.73,4.73,0,0,1-.53,0,1.19,1.19,0,0,1-.45-.14.22.22,0,0,1-.11-.28.7.7,0,0,1,.2-.27,2.11,2.11,0,0,0,.51.12,2.36,2.36,0,0,0,.65,0,1.59,1.59,0,0,0,.6-.22,1.5,1.5,0,0,0,.37-.39,1.56,1.56,0,0,0,.19-.42A2.55,2.55,0,0,0,13.8,12a2.26,2.26,0,0,0,0-.45,2.23,2.23,0,0,0-.1-.43,3.55,3.55,0,0,0-1-1.58,3.77,3.77,0,0,0-.91-.64l-.28-.12-.34-.11a1.12,1.12,0,0,0-.27,0l.06-.2a1.35,1.35,0,0,1,.15-.26A1,1,0,0,1,11.27,8a.6.6,0,0,1,.13-.09,1.29,1.29,0,0,1,.16-.09,2.32,2.32,0,0,1,.37-.13,2.71,2.71,0,0,1,.41-.09l.22,0,.23,0v0a3.42,3.42,0,0,0-.46,0,3.87,3.87,0,0,0-.48,0,2,2,0,0,0-.47.1l-.21.08a1.39,1.39,0,0,0-.21.11l-.08.06a1.93,1.93,0,0,0-.5-.7,2.4,2.4,0,0,0-.5-.37l-.3-.15-.29-.13a13.62,13.62,0,0,1-2-1.11,3.33,3.33,0,0,0,.25-.28,1.92,1.92,0,0,0,.28-.42A1,1,0,0,0,8,4.18a.3.3,0,0,0,0-.13.53.53,0,0,0,0-.12.63.63,0,0,0-.16-.24.14.14,0,0,0,0-.06.37.37,0,0,0-.06-.26.5.5,0,0,0-.3-.18H7.34v0a.34.34,0,0,0-.13-.24A.59.59,0,0,0,7,2.84a.48.48,0,0,0,0-.12.31.31,0,0,0-.18-.24.56.56,0,0,0-.21-.06H6.4a1.09,1.09,0,0,0-.71.14.45.45,0,0,0-.11.51s0,.08,0,.08H5.44l-.33,0a.68.68,0,0,0-.41.16,1.28,1.28,0,0,0-.19.46,1.29,1.29,0,0,1-.43.69l-.18.12-.25.12a1.12,1.12,0,0,0-.44.42.65.65,0,0,0,0,.51.94.94,0,0,0,.37.45,2,2,0,0,0,.59.28,3.84,3.84,0,0,0,.59.11l.15.07L5,6.68a.61.61,0,0,1,.19.24,1.58,1.58,0,0,0,.14.36,1.86,1.86,0,0,0,.22.35,1.94,1.94,0,0,0,.72.59,2.21,2.21,0,0,0,.51.18,1.92,1.92,0,0,0,.32,0l0,0a1,1,0,0,0-.1.17A1.17,1.17,0,0,0,6.9,9,1.39,1.39,0,0,0,7,9.58H7a1.61,1.61,0,0,0-.31.19,2.36,2.36,0,0,0-.5.44,5.81,5.81,0,0,0-.31.51,8.67,8.67,0,0,1-.5,1,.33.33,0,0,1-.13.15s-.11,0-.24,0a2.73,2.73,0,0,0-.41,0H4.41l-.15,0a2.43,2.43,0,0,1-.6-.26c-.19-.11-.37-.23-.59-.34a.73.73,0,0,0-.42-.1.42.42,0,0,0-.3.23,1.19,1.19,0,0,0-.11.26.45.45,0,0,0,0,.16.28.28,0,0,0,.23.11h0l.1,0-.06,0a.3.3,0,0,0-.05.25s0,.08,0,.11a.37.37,0,0,0,.07.12.35.35,0,0,0,.11.09l-.08.06a.21.21,0,0,0-.07.15.15.15,0,0,0,0,.09.18.18,0,0,0,.09.08l.13.06h0L2.69,13a.27.27,0,0,0,0,.18.28.28,0,0,0,.13.19l.09,0,.05,0,0,0H3v0l0,0a.51.51,0,0,0,.18.13l.12.06a2.94,2.94,0,0,0,.61.21,2.84,2.84,0,0,0,.31.06l.25,0,.42.18a2.86,2.86,0,0,0,.52.16,3.23,3.23,0,0,0,1.17.09l.3-.06.26-.08a1.23,1.23,0,0,0,.48-.3c.22-.25.27-.48.43-.67a1.38,1.38,0,0,1,.27-.27c.12-.1.22-.17.35-.26l.2-.15a4.7,4.7,0,0,0,2.33.58.83.83,0,0,0-.25.32.36.36,0,0,0,.14.44.82.82,0,0,0,.26.14l.28.1a5.4,5.4,0,0,0,.58.11c.2,0,.41.05.59.05l.58,0a11.64,11.64,0,0,0,1.18,0,5.81,5.81,0,0,0,.58-.09l.57-.12a4.45,4.45,0,0,0,1.05-.43,2.22,2.22,0,0,0,.76-.65.88.88,0,0,0,.19-.4.37.37,0,0,0-.12-.3h0l.07-.05a2.52,2.52,0,0,1,.33-.14,9.65,9.65,0,0,1,1.24-.31l.27,0,.14.12a2.81,2.81,0,0,0,.9.53c.2.08.38.16.6.23a2.7,2.7,0,0,0,.71.12,2.55,2.55,0,0,0,.74-.1,3.41,3.41,0,0,0,.61-.27,2,2,0,0,0,.45-.34,1.63,1.63,0,0,0,.25-.38,1.22,1.22,0,0,0,.11-.6.36.36,0,0,0,0-.11,7,7,0,0,0,1-.2l.35,0a7.18,7.18,0,0,0,1.13-.22,6.32,6.32,0,0,0,1.31-.55,4.92,4.92,0,0,0,1.17-1,4.37,4.37,0,0,0,.44-.62,3.24,3.24,0,0,0,.17-.32l.05-.08,0-.05,0,0,.06-.17A3.37,3.37,0,0,0,29.93,7,2.64,2.64,0,0,0,30,6.51Z"/><path class="cls-4" d="M25.21,9h0c-.12,0-.17,0,0,0"/><path class="cls-4" d="M25.21,6a4,4,0,0,1,.22,1s.5-1.92-1.32-1.38c0,0,.91-.12,1.1.41"/><path class="cls-4" d="M23.75,6.14c.21-.06.26,0,.26,0-.19,0-.24.29.11.44s.48-.07.48-.07a1,1,0,0,1,.14.41A.69.69,0,0,0,24.33,6a.45.45,0,0,0-.58.12"/><path class="cls-4" d="M22.55,4.6a.31.31,0,0,0-.46,0c.21,0,.23.08.23.08-.18,0-.2.18-.11.27s.3-.12.3-.12a.3.3,0,0,1-.09.3s.4-.35.13-.57"/><path class="cls-4" d="M21.51,5.68c-.23.09-.17.44-.17.44.14-.47,1.08-.44,1.08-.44a2.68,2.68,0,0,0-.91,0"/></svg>