<svg id="Capa_1" data-name="Capa 1" xmlns="http://www.w3.org/2000/svg" viewBox="0 0 30.26 27"><defs><style>.cls-1{fill:#f5a4c7;}.cls-2{fill:#fbc9b7;}.cls-3{fill:#231f20;}</style></defs><title>1-7meses</title><path class="cls-1" d="M10.71,18.45,8.12,20.22s-.48,0-.58.61-.2,4.09,1.58,4.49,2.75.63,3.71.28,4.38-3.37,4.38-3.37,1.26-1.44-.48-2.17a50.51,50.51,0,0,0-6-1.61"/><path class="cls-2" d="M9.45,20.15l-1.33.07a15.6,15.6,0,0,1,1.12-2.4c.6-1,2-3.43,2.92-4s2-1.39,1.62-2.1a4.22,4.22,0,0,1-.49-2.54c.22-.4,2.53-2.9,4.68-2.73a22.09,22.09,0,0,1,3.87.66s.38,1,.18,1.35S21,10,21.1,10.15s.71.54.75.65-.07.35-.32.38a1.78,1.78,0,0,0-.49.17l.29.41s-.38.18-.46.24a.52.52,0,0,0-.12.1s.43.05.43.12-1.12,1.06-1.12,1.06l-2.08,0,0,.46.1.59A11.46,11.46,0,0,0,19.38,14c.45-.2,1.66-1.67,2-1.77a2.13,2.13,0,0,1,1.3.36c.18.18.1.21.29.23a.22.22,0,0,1,.2.2s.43.36.42.46-.25.31-.25.31a3.7,3.7,0,0,1-.14.38c-.08.19-.81.27-.81.27l-1.29.2s-.51.66-.75.89a14.54,14.54,0,0,1-1.49.88l-.51.18L17.77,18s1.31.1,1.49-.18.92-1.26,1.16-1.14,0,.49.33.52.39,0,.48.15a3.17,3.17,0,0,1,.31,1,1.73,1.73,0,0,1-.18.49l-.47.28-2.18.93a26.29,26.29,0,0,1,2.86.06c.34.12.84,0,1,.38a.73.73,0,0,0,.52.39,18.7,18.7,0,0,0,2-.09c.44-.09.68-.07.72.09s-.27.34-.1.44.24.07.2.15a3,3,0,0,1-.39.4,8.16,8.16,0,0,1,1.47.21c.2.12.12.2.13.45s.15.61.07.82,0,.48-.77.59a6.77,6.77,0,0,1-2-.23l-.56.16a7.53,7.53,0,0,1-2.76,1.4c-1.14.14-3.42.39-3.86.41a25.46,25.46,0,0,1-3,.17,7.05,7.05,0,0,1-2.78-.43c-1.07-.46-2.23-1.13-1.3-2.31a4.46,4.46,0,0,1,4-1.73c1.59.13,3,.32,3,.32s.16.08.17-.23-.15-.54-.73-.6l-7-.75"/><path class="cls-3" d="M20.06,10.35a.77.77,0,0,0,.42-.41s.21,0,.2.1.31-.38-.39-.22a1.31,1.31,0,0,0-.91.6l.44-.21s-.07.26.24.14"/><path class="cls-3" d="M21.68,13h0"/><path class="cls-3" d="M26.85,23.33a.41.41,0,0,0,.33-.37l-.68.42a1.94,1.94,0,0,1,.35-.05"/><path class="cls-3" d="M27,23.66c.33-.06.33-.45.33-.45l-.87.53s.21,0,.54-.08"/><path class="cls-3" d="M8.7,25h0A1.75,1.75,0,0,1,8,24.23a2.56,2.56,0,0,1-.24-.89q-.06-.46-.09-.93a12.67,12.67,0,0,1,0-1.85c0-.22.5-.26.91-.26s.88,0,1.32.05l2.68.24,2.67.28,1.33.16c.47,0,.47.38.43.66-.25,0-.53-.06-.79-.09l-.82-.13-.82-.12a8.08,8.08,0,0,0-.86-.1,3.38,3.38,0,0,0-.45,0l-.44,0a6.21,6.21,0,0,0-.86.16,6.16,6.16,0,0,0-.79.3,4.47,4.47,0,0,0-.67.42,3.11,3.11,0,0,0-.53.49,3,3,0,0,0-.39.56,2.43,2.43,0,0,0-.14.28l0,.07a.32.32,0,0,0,0,.09l0,.16a1.38,1.38,0,0,0,0,.35,1.3,1.3,0,0,0,.14.32,1.8,1.8,0,0,0,.52.55,5.18,5.18,0,0,0,.69.4l.13.05c-.37,0-.75-.07-1.08-.12A3,3,0,0,1,8.7,25m.24-6.45h0c.32-.56.65-1.11,1-1.65a14.56,14.56,0,0,1,2.65-3.06c.28-.23.55-.44.87-.66L13.7,13a2.19,2.19,0,0,0,.21-.23,1,1,0,0,0,.23-.51,1,1,0,0,0-.09-.46l-.19-.72a.64.64,0,0,1,.32-.66,1,1,0,0,0,.05.31,1.5,1.5,0,0,0,.44.64,1.55,1.55,0,0,0,.33.24,1.14,1.14,0,0,0,.36.15,1.42,1.42,0,0,0,.61.07l.23,0,0,0H16a1.34,1.34,0,0,1-.51-.12,1.37,1.37,0,0,1-.75-1,.48.48,0,0,1,0-.27l0-.06,0,0h0c.59,0,.71.12,1.34.54L16,10.38h0a.1.1,0,0,1,0,0l.51.36s-.54-.54-.48-1a1.31,1.31,0,0,0,.32-.76s0-.24,0,.36l-.14.75.68-.79-.13.68.66-.68,1-1.18-.05,1,.76-1.27-.23,1.37.54-.79L20.47,7l-.29,1.17.59-.9-.06,1.47a3.83,3.83,0,0,0-1.82,1S20.28,8.65,21.33,9c0,0-.12-.32-.61-.26l1-1.52a3.2,3.2,0,0,1,.16.39,1.57,1.57,0,0,1,0,.86,5.25,5.25,0,0,1-.46.83c-.08.14-.17.28-.24.43a.45.45,0,0,0,0,.49,3.59,3.59,0,0,0,.42.37c.13.11.24.24.13.33a1.87,1.87,0,0,1-.49.25l-.16.08a.13.13,0,0,0,0,.17,1.07,1.07,0,0,0,.15.22c.05.07.11.14.08.14a1.2,1.2,0,0,1-.23.09l-.59.19s-.07,0-.06.08.06.06.12.06a2.57,2.57,0,0,1,.39,0c.1,0,.11,0,.11.05a1.8,1.8,0,0,0-.2.18h0l-.05,0a.1.1,0,0,0-.06,0,.18.18,0,0,0-.1.11.27.27,0,0,0,0,.09,2.31,2.31,0,0,1-.23.18l-.41.31h0l-.4,0a15.14,15.14,0,0,1-1.65,0l-.41,0-.42,0a.54.54,0,0,0-.34.09.37.37,0,0,0-.12.19.78.78,0,0,0,0,.34h0a.21.21,0,0,0,.23.11c.1,0,.17-.09.15-.16h0a.4.4,0,0,1,0-.24c0-.09.05-.09.07-.09l.42,0h.46s0,.06,0,.1a3.59,3.59,0,0,0,0,.53,2.21,2.21,0,0,0,0,.35,2.54,2.54,0,0,0,.13.39,1,1,0,0,1,.1.42,1.06,1.06,0,0,1-.05.43,3.67,3.67,0,0,0-.09.43c0,.14-.05.28-.07.41a7.13,7.13,0,0,0-.07.73c0,.21,0,.39,0,.52v.16l-.2,0a1.2,1.2,0,0,0,0-.36,5.16,5.16,0,0,0-.26-.53,7.89,7.89,0,0,0-.59-.95c-.18-.25-.32-.41-.32-.41h0l0,0s.08.17.18.44.23.63.32,1c.05.18.07.36.11.53a2.34,2.34,0,0,0,.19.45,2.23,2.23,0,0,0,.3.43s0,0,0,0,0,0,0,0a.77.77,0,0,0,.06-.14,1,1,0,0,0,.06-.34s0,0,0-.06a6.9,6.9,0,0,0,1.06.17,2,2,0,0,0,.34,0,.8.8,0,0,0,.2-.07.55.55,0,0,0,.14-.09,1.6,1.6,0,0,0,.26-.42l.12-.14a.88.88,0,0,1,.18-.1,1.43,1.43,0,0,0,.27-.15l.22-.16,0,0h0a.56.56,0,0,1,.07.3h0a.08.08,0,0,0,0,.07.3.3,0,0,0,.34.12l.2,0h0v.07a1.41,1.41,0,0,0,0,.2.67.67,0,0,0,.21.44l.08.1s0,.08-.05.15a.26.26,0,0,0,0,.27l0,.05a.06.06,0,0,1,0,.05A1.26,1.26,0,0,1,21,19a6.74,6.74,0,0,1-.89.45,19.54,19.54,0,0,1-2,.64c-.35.09-.71.17-1.06.24a3.7,3.7,0,0,1-.48.07h-.12l-.1,0L16,20.34a2.73,2.73,0,0,1-1.45-.95,7.58,7.58,0,0,1-.79-1.4c-.26-.49-.52-1-.74-1.46a1.89,1.89,0,0,1-.18-1.48s0,0,0,0h0a1.75,1.75,0,0,0-.16,1.57,13.91,13.91,0,0,0,.57,1.52l.32.74a3.07,3.07,0,0,0,.48.75,3.31,3.31,0,0,0,1.83,1.09c.1,0,.21,0,.31.06h.34a3.9,3.9,0,0,0,.62-.11c.37-.1.71-.22,1.05-.33l.21-.08h1.71l.61,0a4.87,4.87,0,0,1,1.21.05c.09,0,.18,0,.27.09l.2.14a1.77,1.77,0,0,1,.12.17l0,.19a.14.14,0,0,0,.1.1h0a4.37,4.37,0,0,0,1,.21,4.29,4.29,0,0,0,1.07,0l.26-.06.22-.07a2.73,2.73,0,0,1,.34-.06h.07a.31.31,0,0,1-.09.17l0,0a.12.12,0,0,0,0,.19l.19.13c.06,0,.08.1.1.09h0l-.07,0a.45.45,0,0,0-.12.12s0,0,0,0c-.28-.05-.57-.1-.87-.13a4.8,4.8,0,0,0-.67-.05l-.37,0a1.68,1.68,0,0,0-.4.11l-.06,0h0l0,0h0l-.11.07-.22.12a1.83,1.83,0,0,1-.47.14,5.2,5.2,0,0,1-1.13,0,10.75,10.75,0,0,0-1.27,0,8.35,8.35,0,0,0-1.12.13,4.51,4.51,0,0,0-.87-.31c-.3-.08-.61-.15-.92-.21h.1s0,0,0,0h0a.87.87,0,0,0,.07-.48.34.34,0,0,0-.15-.24.82.82,0,0,0-.34-.12c-.45-.11-.88-.17-1.33-.25-.88-.15-1.77-.27-2.66-.38S10.92,20,10,20a12.87,12.87,0,0,0-1.39,0l-.4.05A12.2,12.2,0,0,1,8.94,18.52Zm12.54-6.18h0a.69.69,0,0,1,.49,0,1.83,1.83,0,0,1,.49.22c.14.08.28.19.28.25s-.16.09-.28.09a1.55,1.55,0,0,1-.65-.1h0a0,0,0,0,0,0,0,1.61,1.61,0,0,0,.3.1l.08,0h-.47l-.14.25a.8.8,0,0,1,.4.44,1.15,1.15,0,0,1,.08.28l.05.22-.12,0a4.8,4.8,0,0,0-.5.09,1.92,1.92,0,0,0-.48.18.67.67,0,0,0-.27.33c-.06.11-.09.22-.15.32a.76.76,0,0,1-.26.24c-.23.15-.51.25-.75.39a11.79,11.79,0,0,0-1.06.67,1.51,1.51,0,0,0,0-.3,2.16,2.16,0,0,0-.1-.44,2.51,2.51,0,0,1-.1-.44,1.18,1.18,0,0,1,0-.42,3.06,3.06,0,0,0,.07-.4s0-.06,0-.09l.18,0a3.81,3.81,0,0,0,.85-.22,2.66,2.66,0,0,0,.51-.25,5,5,0,0,0,.44-.33c.14-.12.29-.24.43-.38a2.12,2.12,0,0,0,.38-.46A.68.68,0,0,1,21.48,12.34Zm1.57.49h0a.14.14,0,0,1,0,.07s0,0,0,.08a.09.09,0,0,1-.05.07.15.15,0,0,1-.09.06,1.49,1.49,0,0,1-.25.07l-.23.09-.08,0-.24-.18.25-.13.1,0a1.1,1.1,0,0,0,.25,0c.08,0,.24-.06.25-.17a.14.14,0,0,0,0-.06A.17.17,0,0,1,23.05,12.83Zm-.95,1.32ZM18.32,14h0a2,2,0,0,0-.28-.6c.49,0,1,0,1.48,0l.13,0-.18.16a3,3,0,0,1-.36.26c-.25.16-.49.27-.66.36l-.1,0Zm7.24,6.88h0S25.55,20.91,25.56,20.92ZM27,23.73a1.27,1.27,0,0,1-.64.13,1.76,1.76,0,0,1-.33,0l-.35-.07-1.43-.27a.37.37,0,0,0-.24,0l0,0c-.38.24-.78.48-1.18.7a11.1,11.1,0,0,1-1.24.63c-.22.08-.44.16-.67.22s-.48.1-.75.14c-.52.1-1,.2-1.56.27s-1.05.11-1.58.13l-.79,0-.79,0c-.52,0-1,.05-1.57.06H13.1c-.13,0-.25,0-.38,0a.23.23,0,0,0-.16-.14h0a7.85,7.85,0,0,1-1.41-.51,3.48,3.48,0,0,1-.57-.36,1.65,1.65,0,0,1-.39-.41,1.46,1.46,0,0,1-.1-.23c0-.08,0-.16,0-.23l0-.12s0,0,0,0l0-.07q.06-.15.12-.27a2.93,2.93,0,0,1,.33-.48,3.11,3.11,0,0,1,.44-.45,3.81,3.81,0,0,1,.55-.38,6.54,6.54,0,0,1,.66-.28,5.86,5.86,0,0,1,.75-.17,5,5,0,0,1,.78-.06,7.44,7.44,0,0,1,.81,0l.84.08h.09l1.36.37.87.24c.28.09.56.19.79.29s.74.44,1.11.66h0a.22.22,0,0,0,.22,0,.09.09,0,0,0,0-.16h0c-.3-.24-.59-.48-.9-.71a6.3,6.3,0,0,1,1,0c.4,0,.78.08,1.2.13a5.25,5.25,0,0,0,1.32,0,2.36,2.36,0,0,0,.67-.18,1.82,1.82,0,0,0,.28-.13l.13-.07h0l.06,0c.05,0,.07,0,.09,0l.09,0h.24a5.62,5.62,0,0,1,.57,0l1.22.11.33,0h.32a.81.81,0,0,1,.42.09c.11.07.14.16,0,.24s-.41.1-.47.17,0,0,0,0h0s0,0,0,0,0,0,0,0h.13l.16,0a1.66,1.66,0,0,0,.28,0l-.6.41c1-.08.77-.37.7-.45a.28.28,0,0,0,.18-.2.3.3,0,0,0-.12-.27,1.1,1.1,0,0,0-.67-.26h-.3l-.28,0-.16,0,.1,0,.07,0a.25.25,0,0,0,.12-.07.2.2,0,0,0,0-.19.52.52,0,0,0-.06-.13L26,21.22a.47.47,0,0,0,.18-.32.37.37,0,0,0-.22-.3,1.08,1.08,0,0,0-.4-.09,2.72,2.72,0,0,0-.6.08l-.22.07-.19.05a3.32,3.32,0,0,1-.85.08,8.06,8.06,0,0,1-.85,0l-.06-.15c-.06-.07-.14-.13-.2-.2l-.26-.15L22,20.13,21.68,20,21.37,20l-.32-.06a1.86,1.86,0,0,0-.33,0,6.24,6.24,0,0,0-1.3.05l-.27,0q.51-.18,1-.39c.34-.14.63-.3.94-.45a1.76,1.76,0,0,0,.44-.29.33.33,0,0,0,.07-.13.21.21,0,0,0,0-.14s0-.05,0-.11a.64.64,0,0,0,.11-.22.28.28,0,0,0,0-.15.19.19,0,0,0,0-.06l0-.05a.41.41,0,0,1-.07-.29l0-.19v-.1a.28.28,0,0,0-.06-.19.65.65,0,0,0-.48-.16h0v0a.56.56,0,0,0-.13-.27.61.61,0,0,0-.16-.12.59.59,0,0,0-.32-.08.54.54,0,0,0-.3.1l-.12.09a2,2,0,0,1-.18.15.88.88,0,0,1-.19.12,1.16,1.16,0,0,0-.27.18.67.67,0,0,0-.16.24,1.66,1.66,0,0,1-.15.37.16.16,0,0,1-.06.05l-.08,0a1.45,1.45,0,0,1-.25,0,6,6,0,0,1-.73,0A.56.56,0,0,0,18,17.8a2.26,2.26,0,0,0,.32-.51,1.89,1.89,0,0,0,.11-.36,1.75,1.75,0,0,0,0-.33A5.26,5.26,0,0,0,19.9,16a2.59,2.59,0,0,0,.59-.55,1.19,1.19,0,0,0,.23-.31,1.81,1.81,0,0,1,.19-.29.64.64,0,0,1,.27-.2,3,3,0,0,1,.41-.05l.44,0a2.08,2.08,0,0,0,.3,0,.58.58,0,0,0,.31-.18c1,0,.61-.51.61-.51l-.54.34a.66.66,0,0,0,0-.15l0-.12.31,0a1.56,1.56,0,0,0,.33-.14l.15-.09a.32.32,0,0,0,.1-.13.25.25,0,0,0-.07-.24.77.77,0,0,0-.2-.16h0s0,0,0,0a.47.47,0,0,1,.13.17.2.2,0,0,1,0,.17.19.19,0,0,1-.08.07l-.14.06-.3.06-.25.08a1.22,1.22,0,0,0-.1-.24l-.07-.08h.06a1.51,1.51,0,0,0,.28,0,.89.89,0,0,0,.29-.15.57.57,0,0,0,.11-.11.33.33,0,0,0,0-.13.43.43,0,0,0,0-.11.23.23,0,0,0-.08-.09.33.33,0,0,0-.2-.06.82.82,0,0,0-.26-.3,1.79,1.79,0,0,0-.55-.3,1.33,1.33,0,0,0-.83-.05l-.13.06h0a.37.37,0,0,0-.2-.08l.15-.05a1,1,0,0,0,.31-.15.12.12,0,0,0,0-.17.44.44,0,0,0-.08-.11.8.8,0,0,1-.13-.19s0,0,0,0l.11-.05a2.19,2.19,0,0,0,.54-.3.2.2,0,0,0,0-.27.72.72,0,0,0-.18-.21,3.35,3.35,0,0,1-.38-.35c-.09-.11,0-.25,0-.39s.16-.27.24-.41a6.47,6.47,0,0,0,.49-.85,1.4,1.4,0,0,0,.07-.61l.26.78a2.87,2.87,0,0,0-1.86-3.12l-.26-.12-.35-.16-.05,0a9.87,9.87,0,0,0-5.13-.61c-1.53.19-4.68,1.68-4.55,4.21s2.57,2.25,3.26,3.07a.59.59,0,0,1,.06.28.64.64,0,0,1-.15.35,1,1,0,0,1-.14.15l-.21.17a9.58,9.58,0,0,0-.85.7,12.84,12.84,0,0,0-2.57,3.18,18.7,18.7,0,0,0-.9,1.71A10.64,10.64,0,0,0,8.13,20l-.23.05a1,1,0,0,0-.36.16.38.38,0,0,0-.16.3c0,.31,0,.62.06.93l.07.94a7.11,7.11,0,0,0,.28,1.86,1.87,1.87,0,0,0,.68.85,3.34,3.34,0,0,0,1.23.52c.47.09.9.14,1.35.2s.88.11,1.39.13a.32.32,0,0,0,.26-.11,10.84,10.84,0,0,0,2.79.2,11.9,11.9,0,0,0,1.59-.19c.53-.09,1-.18,1.57-.25s1.06-.11,1.58-.15c.26,0,.53,0,.82-.07a4.93,4.93,0,0,0,.8-.2,9.26,9.26,0,0,0,1.39-.61,8,8,0,0,0,1.08-.7c.44.05.87.1,1.31.12l.38,0a1.79,1.79,0,0,0,.4,0,1.21,1.21,0,0,0,.67-.28,0,0,0,0,0,0,0A0,0,0,0,0,27,23.73Z"/><path class="cls-3" d="M22.45,8.79l0-.11h0Z"/><path class="cls-3" d="M1.32,2.58a1.44,1.44,0,0,0,.5.09c.36,0,.57-.16.57-.4s-.18-.35-.45-.49-.66-.35-.66-.66S1.65.5,2.2.5a1.23,1.23,0,0,1,.48.09L2.59.82A1.06,1.06,0,0,0,2.18.74c-.34,0-.5.18-.5.34s.18.32.51.49.59.41.59.68-.41.66-1,.66a1.61,1.61,0,0,1-.59-.1Z"/><path class="cls-3" d="M4.3,1.86h0c0-.34-.18-.49-.37-.49s-.38.26-.4.49Zm-.77.2c0,.52.3.64.58.64a1.08,1.08,0,0,0,.41-.07l.07.2A1.77,1.77,0,0,1,4,2.91a.8.8,0,0,1-.9-.85A.82.82,0,0,1,4,1.16a.68.68,0,0,1,.7.75v.15Z"/><path class="cls-3" d="M5.11,1.63c0-.2,0-.3,0-.44h.34l0,.2h0A.74.74,0,0,1,6,1.16a.54.54,0,0,1,.6.59V2.89h-.4V1.79c0-.2-.05-.4-.34-.4a.38.38,0,0,0-.37.28.61.61,0,0,0,0,.15V2.89H5.11Z"/><path class="cls-3" d="M7.63.74v.45h.48V1.4H7.63v1c0,.22.12.28.26.28h.16v.2a1.07,1.07,0,0,1-.29,0,.69.69,0,0,1-.39-.1.51.51,0,0,1-.15-.43v-1h-.3V1.19h.3V.82Z"/><path class="cls-3" d="M9.38,2h0c-.21,0-.69,0-.69.4a.29.29,0,0,0,.31.3.37.37,0,0,0,.37-.26.31.31,0,0,0,0-.09Zm0,.88,0-.18h0a.62.62,0,0,1-.49.21.53.53,0,0,1-.59-.49c0-.42.5-.61,1.06-.61V1.76c0-.23-.09-.38-.4-.38a1.07,1.07,0,0,0-.41.08l-.09-.18a1.36,1.36,0,0,1,.58-.12c.5,0,.71.23.71.61V2.5a1.63,1.63,0,0,0,0,.39Z"/><path class="cls-3" d="M11.42,1.84h0a.49.49,0,0,0,0-.12A.39.39,0,0,0,11,1.39c-.32,0-.44.32-.44.66s.14.64.42.64a.37.37,0,0,0,.38-.29.36.36,0,0,0,0-.11ZM11.81.46v2c0,.12,0,.31,0,.41h-.34l0-.21h0a.62.62,0,0,1-.52.24c-.42,0-.72-.32-.72-.87s.36-.89.75-.89a.52.52,0,0,1,.45.21h0V.46Z"/><path class="cls-3" d="M12.64,2h0c0,.28.08.66.43.66s.41-.4.41-.66-.07-.66-.42-.66-.42.4-.42.66m1.24,0a.8.8,0,0,1-.83.88.78.78,0,0,1-.8-.88.8.8,0,0,1,.83-.88A.78.78,0,0,1,13.88,2Z"/><path class="cls-3" d="M15.05,2.61a1,1,0,0,0,.4.09c.23,0,.37-.1.37-.25s-.07-.22-.32-.33-.5-.29-.5-.49.3-.47.68-.47a1.18,1.18,0,0,1,.45.09l-.11.2a.81.81,0,0,0-.33-.07c-.21,0-.32.11-.32.21s.06.18.31.3.51.28.51.52-.34.5-.74.5a1.09,1.09,0,0,1-.49-.1Z"/><path class="cls-3" d="M16.6,2.89h0V1.19H17v1.7ZM17,.75c0,.11-.09.18-.24.18a.2.2,0,0,1-.22-.18c0-.1.1-.17.23-.17S17,.65,17,.75Z"/><path class="cls-3" d="M17.54,1.63c0-.2,0-.3,0-.44h.34l0,.2h0a.74.74,0,0,1,.57-.23.54.54,0,0,1,.6.59V2.89h-.39V1.79c0-.2-.06-.4-.35-.4a.38.38,0,0,0-.37.28.61.61,0,0,0,0,.15V2.89h-.39Z"/><path class="cls-3" d="M21.34,2h0c-.21,0-.68,0-.68.4a.28.28,0,0,0,.3.3.37.37,0,0,0,.37-.26.31.31,0,0,0,0-.09Zm.05.88,0-.18h0a.62.62,0,0,1-.49.21.53.53,0,0,1-.59-.49c0-.42.5-.61,1.06-.61V1.76c0-.23-.09-.38-.4-.38a1.07,1.07,0,0,0-.41.08l-.08-.18A1.29,1.29,0,0,1,21,1.16c.49,0,.71.23.71.61V2.5a2.42,2.42,0,0,0,0,.39Z"/><path class="cls-3" d="M22.67,2.26h0a.66.66,0,0,0,0,.15.37.37,0,0,0,.37.28c.32,0,.43-.31.43-.65s-.13-.65-.44-.65a.39.39,0,0,0-.36.31.57.57,0,0,0,0,.13Zm-.4-.54c0-.26,0-.41,0-.53h.36l0,.22h0a.61.61,0,0,1,.52-.25c.43,0,.72.32.72.88a.77.77,0,0,1-.77.88.48.48,0,0,1-.43-.2h0v.84h-.4Z"/><path class="cls-3" d="M24.61,2h0c0,.28.07.66.43.66s.4-.4.4-.66-.07-.66-.41-.66-.42.4-.42.66m1.23,0a.8.8,0,0,1-.82.88A.78.78,0,0,1,24.21,2,.8.8,0,0,1,25,1.16.78.78,0,0,1,25.84,2Z"/><path class="cls-3" d="M26.45,1.19l.33,1c0,.13.07.24.1.35h0A3.42,3.42,0,0,1,27,2.17l.29-1h.39l-.41,1.09a2.61,2.61,0,0,1-.61,1.1,1.48,1.48,0,0,1-.45.26l-.14-.23a1.54,1.54,0,0,0,.35-.22,1,1,0,0,0,.22-.28c0-.05,0-.06,0-.09a.13.13,0,0,0,0-.06L26,1.19Z"/><path class="cls-3" d="M28.23,2h0c0,.28.08.66.43.66s.41-.4.41-.66-.07-.66-.42-.66-.42.4-.42.66m1.24,0a.8.8,0,0,1-.83.88.78.78,0,0,1-.8-.88.8.8,0,0,1,.83-.88A.78.78,0,0,1,29.47,2Z"/><path class="cls-3" d="M13.29,5.26s.37-1.14-1.36-.8S10.21,5.7,10.21,5.7s2.44.87,3.08-.44"/></svg>