<svg id="Capa_1" data-name="Capa 1" xmlns="http://www.w3.org/2000/svg" viewBox="0 0 32.11 29.39"><defs><style>.cls-1{fill:#f05050;}.cls-2{fill:#f5a4c7;}.cls-3{fill:#fbc9b7;}.cls-4{fill:#231f20;}.cls-5{fill:#6d6f71;}</style></defs><title>2-7meses</title><path class="cls-1" d="M9.13,24.2A16.87,16.87,0,0,0,6,24.43a.67.67,0,0,0-.32.62c0,.08-1.28,2.1-1.69,2.12s-.66.51-.09.58,6.52.61,8.46.27,3.3-.65,3.31-1S9.13,24.2,9.13,24.2"/><path class="cls-2" d="M20.11,26.32s-.06,1.7-.42,1.81a.82.82,0,0,1-.62,0l-.71-.35s-.12.5.57.65a35.39,35.39,0,0,0,4.38-.18s.7-.44.66-.6,0-1.38,0-1.5A18.62,18.62,0,0,0,21,25a2,2,0,0,0-.66.05Z"/><path class="cls-3" d="M21,25.65a2,2,0,0,1,.66-1.48A2.91,2.91,0,0,1,24,23.59a2.74,2.74,0,0,1,1.64,1.23c.26.51.38.44.38.44A11.88,11.88,0,0,1,27.55,25c.11.05.14.24.16.5s.06.75-.12.82-.73-.13-1,0a2.86,2.86,0,0,1-1.18.1,4,4,0,0,1-.82-.36l-.44-.39a7,7,0,0,1-.55.95,2,2,0,0,1-1.22.67c-.56,0-1.2-.32-1.23-.62s-.14-1-.14-1"/><path class="cls-3" d="M20.68,24.91a6.73,6.73,0,0,1,1-1.69A3.85,3.85,0,0,1,24,23a13.1,13.1,0,0,0,2.32.54c.31-.11.59-.65.82-.68s.63.2.62.33-.5.86-.48,1,.14.36-.29.39a8.57,8.57,0,0,0-1.64-.15c-.6.1-4.33.61-4.33.61Z"/><path class="cls-3" d="M19.29,12s-1.33,1.24-.82,2.47,2.35,1.3,2.55,1.89.54,1.78.54,1.78.13.14.5,0a9.65,9.65,0,0,0,.87-.43s0,.17.37.24-.08.08.6.25.74.5.74.5l.49.16a2.63,2.63,0,0,0,1.06-.44,12.69,12.69,0,0,0,1.25-1.34l.33.21s-.35,0-.31.51.93,1.35,2.05,1.78c0,0,2.34-2.22,2.27-2.53a.62.62,0,0,1,0-.44V14.19s-2,.87-2.82,0a3.15,3.15,0,0,1-.81-2.13,21.24,21.24,0,0,0-3.09-1.29c-.43,0-4.15-.41-5.78,1.23"/><path class="cls-3" d="M15.07,24.49s.46-.49.23-.5a1.23,1.23,0,0,1-.54-.34l-.44.05s.12-.42-.16-.44-.31-.19-.31-.19.1-.36-.19-.29-.32.33-.7.16-.83-.93-2-1a3,3,0,0,0-2,.38A10.9,10.9,0,0,0,9,24l2.24,2a13.69,13.69,0,0,1,2.66.42,5.29,5.29,0,0,0,2.35,1,9.22,9.22,0,0,1,2.11.47c.28.15.78.44,1.17.27s.37-.71.5-1.2.49-1.69.32-1.84a8.93,8.93,0,0,0-1.44-.5s.47-1.47.53-1.74,1-.72,1.11-.85a.26.26,0,0,0,0-.26l-.52,0s.39-.36.37-.41a.22.22,0,0,0-.22-.1c-.11,0-.33.21-.33.21s.41-.66.25-.71-.51.17-.51.17l-.15.15s.32-.48.1-.48a.78.78,0,0,0-.56.31.94.94,0,0,1-.26.29s-.36,0-.39-.06-.18-.25-.21-.23a.51.51,0,0,0-.21.51,8.3,8.3,0,0,0,.12,1l-.35.23s-.17-.22-.14-.23a4,4,0,0,0,.28-.45,5.09,5.09,0,0,0,.42-1.25c-.08-.12-.44-.06-.46-.08a3.07,3.07,0,0,1-.2-.28l-.55.52s-.17-.54-.21-.52a2,2,0,0,0-.23.38l-.05.62s-.78-.47-.7-.09.42.46.48.57a.87.87,0,0,1-.14.78,8,8,0,0,0-.58.88s-.07,1-.07,1Z"/><path class="cls-4" d="M5.19,17.83h0a3.3,3.3,0,0,1,1.07-.57A7.69,7.69,0,0,1,7.56,17a14.85,14.85,0,0,1,2.75-.08c.46,0,.93.06,1.37.11a11,11,0,0,1,1.32.23,3.85,3.85,0,0,1,1.13.42.57.57,0,0,1,.31.7,1.8,1.8,0,0,1-.67.72,6.53,6.53,0,0,1-1,.59h0a1,1,0,0,0-.19.15l-.16.15a1.56,1.56,0,0,0-.24.35,1.18,1.18,0,0,0-.08.76,2.12,2.12,0,0,0,1,1.13,5.65,5.65,0,0,1-1.53-.79,1.38,1.38,0,0,1-.45-.6.9.9,0,0,1,.06-.66l.1-.2-.32,0a16.59,16.59,0,0,1-2.73,0c-.46,0-.9-.11-1.34-.19A6.45,6.45,0,0,1,5.6,19.4a1.3,1.3,0,0,1-.77-.71.84.84,0,0,1,.36-.86m.24,1.71a7.72,7.72,0,0,0,2.66.74,13.79,13.79,0,0,0,1.43.06c.39,0,.76,0,1.15-.05a1,1,0,0,0,0,.6,1.76,1.76,0,0,0,.59.66,3.67,3.67,0,0,0,.88.46,6,6,0,0,0,1,.3l.08,0-.06,0a3.49,3.49,0,0,1-.58-.57,1.53,1.53,0,0,1-.3-.65.93.93,0,0,1,.15-.64,1.48,1.48,0,0,1,.22-.29l.15-.13.15-.11a8.12,8.12,0,0,0,1.14-.58,2.16,2.16,0,0,0,.83-.87.73.73,0,0,0,0-.58,1.19,1.19,0,0,0-.45-.47,4.09,4.09,0,0,0-1.33-.49,10.9,10.9,0,0,0-1.41-.22c-.47,0-.94-.07-1.41-.08a13.44,13.44,0,0,0-2.84.2,8,8,0,0,0-1.32.35,3.31,3.31,0,0,0-1.11.62,1,1,0,0,0-.41.94A1.38,1.38,0,0,0,5.43,19.54Z"/><path class="cls-4" d="M25.06,24.06h0l-.34-.26a2.6,2.6,0,0,0-.4-.23,2.08,2.08,0,0,0-.48-.18l-.27-.05-.25,0h-.15l-.14,0a1.33,1.33,0,0,0-.28,0l-.26.06-.25.1a2.33,2.33,0,0,0-.41.24,2.74,2.74,0,0,0-.57.62,1.71,1.71,0,0,0-.17.33A2.34,2.34,0,0,0,21,25a.49.49,0,0,0-.2-.05h0c.21-.35.41-.71.64-1a2.87,2.87,0,0,1,.41-.51,1.19,1.19,0,0,1,.25-.18s.25-.05.38-.08a3.26,3.26,0,0,1,.83-.11,4.28,4.28,0,0,1,.87.09,9.64,9.64,0,0,1,1.63.5h0a2,2,0,0,0,.49,0,1,1,0,0,0,.51-.15c.13-.09.19-.12.33-.23a.35.35,0,0,0,.08-.13v0h0l0,0,0,0,0,.07a.65.65,0,0,1,0,.24.72.72,0,0,1-.1.24A1.07,1.07,0,0,0,27,24a.81.81,0,0,0,0,.33s0,0,0,0l-.1,0a1,1,0,0,1-.35,0l-.45,0a3.38,3.38,0,0,0-.78,0c-.11-.11-.21-.23-.33-.34m-3.77,3h0l.17.12a1.15,1.15,0,0,0,.43.15,1.68,1.68,0,0,0,.89-.14l.27-.14,0,0a2.09,2.09,0,0,0,.36-.07,1.35,1.35,0,0,0,.32-.15c.07,0,.11-.09.17-.13s0,.23,0,.34a1.45,1.45,0,0,1-.19.68.68.68,0,0,1-.26.22l-.2.07-.23,0a8.53,8.53,0,0,1-1,.12c-.7.06-1.41.11-2.11.12a6.37,6.37,0,0,1-1-.05.9.9,0,0,1-.21-.08.59.59,0,0,1-.17-.1.25.25,0,0,1-.08-.25.78.78,0,0,1,.22.12c.07,0,.13.1.21.15a.62.62,0,0,0,.34.13.86.86,0,0,0,.66-.25,1.14,1.14,0,0,0,.28-.43,1.44,1.44,0,0,0,.07-.44c0-.12.05-.26.08-.38a10.2,10.2,0,0,0,.33-1.45.66.66,0,0,0,0-.2.2.2,0,0,0,0-.08h0l.18,0c.11,0,.12.07.11.16s-.05.37-.06.57a1.5,1.5,0,0,0,0,.3,1.53,1.53,0,0,0,0,.3,1.21,1.21,0,0,0,.31.59Zm-4.2.28h0c-.37-.09-.72-.19-1.06-.26a6.3,6.3,0,0,1-.92-.21A2.87,2.87,0,0,1,14,26.3a1.11,1.11,0,0,1-.22-.24L13.72,26h-.05a.7.7,0,0,0,.06.23,2.53,2.53,0,0,0-.41-.21,2.73,2.73,0,0,0-.73-.16l-.26-.11h.56a1.75,1.75,0,0,1-.79-.54c-.13.29-.57.19-1,0s-.36-.69.43-.44,1,0,1,0-.34.19-.44-.08-.81-.27-.81-.27a3,3,0,0,1,.69.07.8.8,0,0,0-.4-.22,1.94,1.94,0,0,0-.62,0l.62-.3-.82,0,.76-.39-1,.06.57-.21-.41-.11.56-.19h-1l.89-.45-.65.1.65-.27-1.3.07.91-.5a4.76,4.76,0,0,1,1.19.25,3.1,3.1,0,0,1,.58.27,6.21,6.21,0,0,0,.51.37.53.53,0,0,0,.43,0c.12-.05.19-.11.28-.11s.16,0,.16.09-.05.23.24.28h0c.06,0,.16,0,.13,0h0s0,0,0,0,0,.05,0,.08l0,.09v.05l0,0-.08.19a.1.1,0,0,0,0,.1.26.26,0,0,0,.26,0h0a1,1,0,0,1,.24-.09l.06,0s0,0,0,0v.13s0,0,0,0v0a.23.23,0,0,1,.15-.09h.11l-.15,0,.3.18a.13.13,0,0,0,0-.08v0c0,.08,0,.16-.14.19h0s0,0,0,.06a.41.41,0,0,1,0,.11,2.35,2.35,0,0,1-.13.43v0c0,.06,0,.12.09.15a.23.23,0,0,0,.25-.06l.06-.05.08-.05.18-.11a2.84,2.84,0,0,1,.44-.15l.49-.1.52-.06v0a4.88,4.88,0,0,0-1.08,0l-.14,0,0,0a1.36,1.36,0,0,0,.25-.54c0-.13,0-.22,0-.34a1.77,1.77,0,0,1,.06-.37,1,1,0,0,1,.2-.4c.1-.13.22-.26.32-.4a.61.61,0,0,0,.12-.51,1.21,1.21,0,0,0-.34-.42h.06a1.06,1.06,0,0,0,.26,0c.12,0,.17,0,.21,0a.22.22,0,0,1,.09.11l0,.05H17l0-.05a.27.27,0,0,0,0-.18c0-.09-.23-.16-.37-.17h-.08a3.26,3.26,0,0,0,.18-.39l.07-.19a1.37,1.37,0,0,1,.15.38h0s0,0,.05,0a.1.1,0,0,0,.1,0,1.31,1.31,0,0,1,.26-.37l.05,0,0,.09-.17.38h0c0,.09,0,.19.16.22a.31.31,0,0,0,.29-.06,1.14,1.14,0,0,1,.07.19s0,.1,0,.19a.64.64,0,0,0,0,.32s0,.08,0,.12l-.08.05a.73.73,0,0,0-.22,1,2.3,2.3,0,0,0-.18.43,4,4,0,0,0-.08.65.77.77,0,0,1-.06.28.8.8,0,0,1-.19.23,3.83,3.83,0,0,1-.67.4c-.24.12-.5.24-.75.38a2.38,2.38,0,0,0-.69.46.53.53,0,0,0-.18.64h0a.57.57,0,0,1,.28-.56,3.32,3.32,0,0,1,.7-.38l.8-.33a3.87,3.87,0,0,0,.78-.41,1.21,1.21,0,0,0,.29-.31.92.92,0,0,0,.11-.36,5.12,5.12,0,0,1,.11-.61,3.27,3.27,0,0,1,.75-1.1.13.13,0,0,0,0-.21.77.77,0,0,1-.17-.19.58.58,0,0,1-.1-.19.56.56,0,0,1,0-.21l0-.14a.41.41,0,0,0,0-.19,1,1,0,0,1-.09-.23.09.09,0,0,1,0-.05.94.94,0,0,1,.1.14.76.76,0,0,1,.11.24.22.22,0,0,0,.08.1l.13,0h.14l.16-.1.1-.13.36-.46.15-.16a1.47,1.47,0,0,1-.13.44h0a.08.08,0,0,0,.07.09.15.15,0,0,0,.16,0,1.73,1.73,0,0,1,.25-.3.29.29,0,0,1,.14-.08h0a.07.07,0,0,1,0,.05.74.74,0,0,1-.12.33,3,3,0,0,1-.21.33s0,0,0,.06a.08.08,0,0,0,.1,0,2.28,2.28,0,0,1,.3-.21l.16-.07h0v0s0,0,0,0a.52.52,0,0,1-.07.12.69.69,0,0,1-.13.11,2.44,2.44,0,0,1-.31.22.07.07,0,0,0,0,.08.15.15,0,0,0,.15.05h0a3.23,3.23,0,0,1,.54-.11l0,0-.11.08c-.32.2-.67.38-1,.57a.11.11,0,0,0-.08.1h0a8.68,8.68,0,0,1-.17,1,4.1,4.1,0,0,1-.14.5,1,1,0,0,1-.11.24.62.62,0,0,1-.15.2l-.22.23a2.79,2.79,0,0,0-.17.25,3.91,3.91,0,0,0-.24.51,6.78,6.78,0,0,0-.3,1h.05c.15-.34.31-.67.49-1a2.92,2.92,0,0,1,.29-.48,1.73,1.73,0,0,1,.17-.21,2.54,2.54,0,0,1,.23-.2l.09-.09.36.1c.16.06.36.12.55.21a.91.91,0,0,1,.24.16s0,0,0,0,0,0,0,.06,0,.08,0,.12c-.05.2-.14.42-.21.66a5.4,5.4,0,0,0-.2.77c0,.13,0,.27-.05.42a1.62,1.62,0,0,1,0,.39.83.83,0,0,1-.16.36.5.5,0,0,1-.33.2c-.14,0-.26-.1-.44-.2a3.83,3.83,0,0,0-.56-.22C17.85,27.53,17.46,27.44,17.09,27.35Zm-2.59.15h0c-.32.1-.68.13-1,.2s-.69.09-1,.11-.7,0-1,.06c-.71,0-1.42,0-2.13,0l-2.14-.05-1.07,0L5,27.76a5.58,5.58,0,0,1-1-.13c-.15-.05-.24-.13-.22-.2A.53.53,0,0,1,4,27.17l.19-.11a1,1,0,0,0,.21-.16,3.11,3.11,0,0,0,.31-.32,8.16,8.16,0,0,0,.5-.66A15.47,15.47,0,0,0,6,24.59l.72-.21v.1c0,.05,0,.09,0,.13a1,1,0,0,0,.26.76l0,0h-.1a3.32,3.32,0,0,0-.49.08l-.18.05.19,0,.48,0c.4,0,.92.09,1.43.16l1.41.2.47.07-.44.14a5.9,5.9,0,0,0-1,.47,3.11,3.11,0,0,0-.4.28,5.39,5.39,0,0,0,.55-.11c.31-.08.71-.2,1.09-.34l.54-.22.25-.1.21-.06a.79.79,0,0,1,.3,0,3.66,3.66,0,0,0-1,.65,2.32,2.32,0,0,0-.39.45l.6-.31c.17-.09.37-.2.59-.3a4.91,4.91,0,0,1,.7-.3l.17-.05a1.42,1.42,0,0,1,.2,0,1.87,1.87,0,0,1,.35,0,5,5,0,0,1,.69.05l.57.12s0,.05,0,.07a2.14,2.14,0,0,0,1.11.77l.38.11A5.83,5.83,0,0,1,14.5,27.5Zm1.42-6.27Zm.79-.88Zm.95,0h0S17.7,20.36,17.66,20.37Zm.4.22Zm-.16,1.65h0l.07.08-.1.12Zm1.58-1.67ZM28,25.47l0,0v-.09s0,0,0,0a.14.14,0,0,0,0-.06l0,0h0a.23.23,0,0,0,0-.2.37.37,0,0,0-.19-.18.76.76,0,0,0-.28-.05l-.22,0-.16.05-.13,0a7.71,7.71,0,0,1-1,.27,5.55,5.55,0,0,0-.59-.71,5.06,5.06,0,0,1,.69.06l.4.1a1.61,1.61,0,0,0,.51.05.71.71,0,0,0,.29-.08.29.29,0,0,0,.16-.24.74.74,0,0,1,0-.27s.1-.11.18-.23a1,1,0,0,0,.14-.33.69.69,0,0,0,0-.35.47.47,0,0,0-.11-.21c0-.06-.07-.06-.08-.09a.53.53,0,0,1-.06-.13.49.49,0,0,0-.07-.11.35.35,0,0,0-.25-.12.51.51,0,0,0-.22,0,.43.43,0,0,0-.22.1.3.3,0,0,0-.08.25.91.91,0,0,1,0,.2l-.25.2a1,1,0,0,1-.64.12l-.83-.21L24.19,23c-.29-.06-.58-.12-.89-.16a4.3,4.3,0,0,0-.95,0l-.22,0-.12,0-.15,0a1.1,1.1,0,0,0-.39.26,2.47,2.47,0,0,0-.42.59,3.77,3.77,0,0,0-.37,1.15l-.15,0s0,0,0,0a1.27,1.27,0,0,0-.39-.19,4.47,4.47,0,0,0-.65-.15l-.37,0a.36.36,0,0,0,.07-.1,1.65,1.65,0,0,0,.14-.26,3.31,3.31,0,0,0,.18-.53,4.86,4.86,0,0,0,.16-1,8.42,8.42,0,0,0,.91-.6l.12-.09.11-.12a.5.5,0,0,0,.05-.07.13.13,0,0,0-.09-.16.53.53,0,0,0-.27,0l-.23.05h0a.8.8,0,0,0,.13-.13.3.3,0,0,0,.08-.18s0,0,0-.06l0,0,0,0a.26.26,0,0,0-.17,0,.84.84,0,0,0-.21.08s0,0,0,0a.81.81,0,0,0,.15-.37s0,0,0-.06l0-.06,0,0h0s0,0,0,0h0a.23.23,0,0,0-.12,0,.36.36,0,0,0-.2.06.45.45,0,0,0,0-.11.34.34,0,0,0,0-.09l0-.06s-.11-.06-.13-.07h-.1l-.11,0-.11.05a2.15,2.15,0,0,0-.27.23l-.33.38a.08.08,0,0,1,0,0,1.93,1.93,0,0,0-.19-.27l-.1-.08a.39.39,0,0,0-.13-.22l-.1-.06a.38.38,0,0,0-.21,0v-.05a.31.31,0,0,0,0-.09l0-.06,0,0a.37.37,0,0,0-.3-.05.4.4,0,0,0-.13.06.9.9,0,0,0-.1.11c0,.08-.08.14-.11.21a.41.41,0,0,1-.05.09s0-.07,0-.11a.61.61,0,0,0-.06-.25s0-.05-.05-.08a.49.49,0,0,0-.14-.06l-.08,0a.32.32,0,0,0-.26.09.26.26,0,0,0-.06.08,1.12,1.12,0,0,0-.05.13.43.43,0,0,0,0,.11,1.7,1.7,0,0,0,0,.22,1.37,1.37,0,0,0,.09.4s0,0,0,0l-.05,0-.1-.05a1.28,1.28,0,0,0-.26-.1.65.65,0,0,0-.22,0h-.1a.32.32,0,0,0-.13.05h0l0,0h0l0,0a.24.24,0,0,0,0,.08v0a.37.37,0,0,0,.09.16l.1.09.19.16a1.91,1.91,0,0,1,.32.3.59.59,0,0,1,0,.36,1,1,0,0,1-.19.41c-.1.13-.21.26-.32.38a1.37,1.37,0,0,0-.24.39.87.87,0,0,0,0,.38c0,.2,0,.38,0,.51a.45.45,0,0,0,0,.11l-.18.05a1,1,0,0,1,0-.1c0-.05,0-.09,0-.13a.35.35,0,0,0,0-.17.32.32,0,0,0-.25-.18v-.07s0-.08,0-.11a.25.25,0,0,0-.05-.11.45.45,0,0,0-.18-.1h-.28l-.09,0v0a.34.34,0,0,0,0-.1.37.37,0,0,0,0-.11.21.21,0,0,1,0-.06.28.28,0,0,0-.07-.09.42.42,0,0,0-.23-.05l-.14,0,0,0a1,1,0,0,1,0-.12c0-.11-.21-.2-.36-.18a1,1,0,0,0-.35.13.26.26,0,0,1-.25,0,3.8,3.8,0,0,1-.47-.37,3.27,3.27,0,0,0-.58-.34,4.72,4.72,0,0,0-1.41-.4l-.39,0h-.4l-.39,0L9,21.89a3.83,3.83,0,0,0-.69.28,2.45,2.45,0,0,0-.29.18l-.13.08,0,0-.05,0-.06.05-.24.21-.2.22a2.36,2.36,0,0,0-.32.48,2.11,2.11,0,0,0-.19.51,1.47,1.47,0,0,0,0,.36l-.86.12s-.05,0-.06,0h0l-1,1.3-.49.65c-.08.11-.17.21-.25.31a.79.79,0,0,1-.12.13,1,1,0,0,0-.2.15.57.57,0,0,0-.25.39.23.23,0,0,0,.13.22.9.9,0,0,0,.27.11A10.32,10.32,0,0,0,5,27.86L6,28l1.07.12q1.06.11,2.16.15l1.08,0c.37,0,.73,0,1.09,0s.73,0,1.09-.1.71-.11,1.07-.17a7.9,7.9,0,0,0,1-.3,4,4,0,0,0,.81-.37,4.59,4.59,0,0,0,.51.1c.35.06.73.09,1.11.14a6.32,6.32,0,0,1,1.15.22l.21.07a.27.27,0,0,0,0,.35.59.59,0,0,0,.18.17,1.08,1.08,0,0,0,.24.13,4.88,4.88,0,0,0,1.12.16,14.5,14.5,0,0,0,2.19-.06,9.89,9.89,0,0,0,1.09-.17l.28-.07a1,1,0,0,0,.28-.11.83.83,0,0,0,.36-.36,1.27,1.27,0,0,0,.11-.78,3.12,3.12,0,0,0-.11-.53l.1-.13a1.53,1.53,0,0,0,.08-.26.86.86,0,0,0,0-.16.15.15,0,0,0,0,.06,1,1,0,0,0,.22.2,2.32,2.32,0,0,0,.61.22,2.21,2.21,0,0,0,.68,0v0c-.18-.1-.36-.17-.54-.25l-.25-.11L24.81,26a2.54,2.54,0,0,1-.5-.23l-.06-.06a1.06,1.06,0,0,0-.12-.34v0h0a.14.14,0,0,0-.15,0c-.06,0-.09.06-.06.1h0a2.08,2.08,0,0,1,0,.23l-.05.22a1.9,1.9,0,0,1-.15.42,1.24,1.24,0,0,1-.1.2.53.53,0,0,1-.06.1.1.1,0,0,0,0,.05,2.9,2.9,0,0,1-.79.45,1.24,1.24,0,0,1-.73.08.7.7,0,0,1-.29-.13l-.11-.1a.47.47,0,0,1-.09-.12,1.55,1.55,0,0,1-.18-.51,5.35,5.35,0,0,1-.07-.56l0-.29a1.65,1.65,0,0,0,0-.3s0-.05,0-.08a3.78,3.78,0,0,1,.69-.87,1.76,1.76,0,0,1,.3-.24,2.43,2.43,0,0,1,.35-.2l.2-.07.2-.05a2,2,0,0,1,.42-.06h.25l.21,0a2.07,2.07,0,0,1,.43.1,2.1,2.1,0,0,1,.4.18,3.07,3.07,0,0,1,.35.24,2.5,2.5,0,0,1,.29.27,3.44,3.44,0,0,1,.57.93.16.16,0,0,0,.17.07h0a7.82,7.82,0,0,0,1.19-.23l.15,0h0a.17.17,0,0,0-.1.17l0,.06a.13.13,0,0,0-.06.07c0,.1,0,.2.18.23h0a.23.23,0,0,0-.22.13.15.15,0,0,0,.09.17l0,0c-.05.08,0,.16.1.19h0l.07,0h-.08a2.42,2.42,0,0,1-.27,0,2.55,2.55,0,0,0-.6,0l-.25.11a2.17,2.17,0,0,1-.24.07v0l.29,0,.26-.06a2.4,2.4,0,0,1,.52,0l.29,0h.26l.11,0h.09l.09-.08a.14.14,0,0,0,0-.14l0,0,.05,0L28,26h0v0l0,0a.31.31,0,0,0,0-.1l.06-.07v0c0-.05,0-.05,0-.07a.24.24,0,0,0-.08-.2S28,25.48,28,25.47Z"/><path class="cls-4" d="M12,22.5h0"/><path class="cls-4" d="M12,22.5c-.81.12.22,1.35.22,1.35s-.11-.29-.28-.81,0-.52.06-.54"/><path class="cls-4" d="M12.34,23s.14-.09.14-.09h-.29c-.39.27.29.71.29.71a.63.63,0,0,0-.09-.23c-.09-.16,0-.24,0-.24s.44.16.38,0-.42-.15-.42-.15"/><path class="cls-4" d="M26.87,17.57h0v0a1.33,1.33,0,0,0-.06-.12l-.16-.11a.38.38,0,0,1-.13-.12.3.3,0,0,1,0-.16.5.5,0,0,0,0-.17c0-.05,0-.1,0-.15a.68.68,0,0,0-.12-.24c-.11-.13-.22-.22-.22-.23h0a.27.27,0,0,0-.08.07.44.44,0,0,0-.09.22.71.71,0,0,0,0,.14.48.48,0,0,0,0,.14,1.34,1.34,0,0,0,.11.14.69.69,0,0,0,.15.14c.05,0,.11.08.13.13a.22.22,0,0,1,0,.16.75.75,0,0,0,0,.15.36.36,0,0,0,.08.12.79.79,0,0,0,.18.14l-.31.3a1.82,1.82,0,0,1-.29.27,2,2,0,0,1-.83.31,1,1,0,0,1-.37,0s0,0,0,0l0,0h0a.33.33,0,0,0-.06-.1.53.53,0,0,0-.2-.19A1.23,1.23,0,0,0,24,18.2c-.16,0-.31,0-.31-.13L23.9,18a1.88,1.88,0,0,0,.44-.33.46.46,0,0,0,.12-.42h-.05a.57.57,0,0,1-.25.33,1.81,1.81,0,0,1-.44.22l-.24.06h-.06s0,0,0,0a.81.81,0,0,1-.23-.28L23,17.3l-.29.21A2.78,2.78,0,0,1,22,18l-.14,0s0,0,0,0l-.05,0,0,0a.64.64,0,0,1-.13-.31,4.08,4.08,0,0,0-.22-.79,1.47,1.47,0,0,0-.21-.39,1.69,1.69,0,0,0-.3-.36.78.78,0,0,0-.2-.16,1.21,1.21,0,0,0-.22-.15,3.43,3.43,0,0,0-.51-.24,3.1,3.1,0,0,1-.45-.21,2.4,2.4,0,0,1-.37-.25,1.42,1.42,0,0,1-.3-.3,3.26,3.26,0,0,1-.22-.34,2.42,2.42,0,0,1-.12-.35c.86-.35,3-1.14,3.86-.79,1.05.45.21.77,1.32.89s1.66-.78,1.91-.42a3.12,3.12,0,0,1,.36.84l.72-.29a2.57,2.57,0,0,1-.27-.59,2.26,2.26,0,0,1,0-.26,2,2,0,0,1,0-.26.56.56,0,0,1,.1-.22l.06-.05,0,0,.09,0a.64.64,0,0,1,.24.06,1.28,1.28,0,0,1,.46.34,2.32,2.32,0,0,1,.31.46c0,.08.07.16.11.25l.08.25a.84.84,0,0,1,0,.47.32.32,0,0,1-.13.15.51.51,0,0,1-.21.06H27l.37.23a.83.83,0,0,1,.41.58,1.27,1.27,0,0,1-.11.71,2.4,2.4,0,0,1-.27.46l-.06-.13a.48.48,0,0,1,0-.29,1.51,1.51,0,0,0,.05-.28,2,2,0,0,0,0-.25,1.85,1.85,0,0,0-.11-.37.23.23,0,0,0-.06-.09s0,0,0,0l0,0,0,0-.06.12A1.09,1.09,0,0,0,27,16a.71.71,0,0,0,0,.25.82.82,0,0,0,.11.28,1.88,1.88,0,0,1,.12.3l0,.16,0,.09s0,0,0,0l0,.06c-.12.14-.26.27-.4.41M31.53,17c-.08.13-.19.25-.28.37s-.18.25-.28.37l-.3.35c-.21.24-.4.48-.63.71a7.71,7.71,0,0,1-.63.65,3.21,3.21,0,0,1-.76-.39c-.12-.08-.24-.18-.35-.27l-.3-.28-.14-.14a.81.81,0,0,1-.12-.14l-.08-.13s0-.1,0-.16a.85.85,0,0,1,0-.16v-.18a.86.86,0,0,0,0-.16l.28.22a4.18,4.18,0,0,0,.58.36,5.15,5.15,0,0,0,.69.27l0,0a2.21,2.21,0,0,0-.4-.45,2.6,2.6,0,0,0-.53-.39l-.34-.19a3.35,3.35,0,0,0-.38-.18h0q.16-.25.3-.51a1.74,1.74,0,0,0,.24-.76.88.88,0,0,0-.08-.41.91.91,0,0,0-.11-.16l.16-.06a.62.62,0,0,0,.3-.3,1,1,0,0,0,.05-.62c0-.09-.05-.2-.08-.28s-.08-.18-.12-.28a2.41,2.41,0,0,0-.39-.53,2.26,2.26,0,0,0-.29-.23,1.93,1.93,0,0,0-.38-.19,1.38,1.38,0,0,0-.51-.06,1.11,1.11,0,0,1,.94.13,5.16,5.16,0,0,1,1.11,1.46l.1-.12c.08.07.16.15.24.21a2,2,0,0,0,.32.17,1.89,1.89,0,0,0,.69.14,3.16,3.16,0,0,0,1.08-.16,3.62,3.62,0,0,0,.79-.33l0,0-.21.07a5.86,5.86,0,0,1-.62.16,3.32,3.32,0,0,1-1,.07,1.33,1.33,0,0,1-.92-.45,1,1,0,0,1-.1-.17l.14-.18s-.08-2.7-.88-3.47-3.1-1.55-6.25-1.61-4,2.27-4.87,4.07.92,1.66.92,1.66l.13-.06a1.05,1.05,0,0,0,0,.31,1.4,1.4,0,0,0,.5.78,1.66,1.66,0,0,0,.48.29,4.3,4.3,0,0,0,.58.18,3.8,3.8,0,0,1,.51.15,1.51,1.51,0,0,1,.41.26,1.2,1.2,0,0,1,.37.72c0,.26,0,.52,0,.8a.82.82,0,0,0,.17.46h0l0,0h0l0,0,.06,0a.89.89,0,0,0,.26.09,1.43,1.43,0,0,0,.43,0,2.35,2.35,0,0,0,.76-.39,1.05,1.05,0,0,0,.22.17.77.77,0,0,0,.26.06.88.88,0,0,0,.22,0h0a.13.13,0,0,0,.07.13,1,1,0,0,0,.28.09,1.15,1.15,0,0,1,.4.17.31.31,0,0,1,.1.13l0,.07h0v0h0v0l.08.08a.76.76,0,0,0,.36.1h.32a2.15,2.15,0,0,0,1.09-.37,2.09,2.09,0,0,0,.33-.34l.24-.34.47-.67.1.1,0,.05a.81.81,0,0,0-.1.18,1.42,1.42,0,0,0-.08.18.83.83,0,0,0-.05.2.35.35,0,0,0,0,.2.56.56,0,0,0,.09.21,1.43,1.43,0,0,0,.31.34,4.73,4.73,0,0,0,.86.47c.3.14.58.28.87.44l.06,0,.06-.05A5.81,5.81,0,0,0,30.4,19a6.07,6.07,0,0,0,.73-.7,4.73,4.73,0,0,0,.28-.39,4.1,4.1,0,0,0,.22-.41,3.52,3.52,0,0,0,.15-.42,3.11,3.11,0,0,0,.06-.44h-.05Z"/><path class="cls-4" d="M21.92,15.94c.43-.14-.08-.42-.08-.42l1.07-.11a10.63,10.63,0,0,0-1.81.06c-.24.11.12.28.12.28l.09.07.12-.13a.35.35,0,0,0,.49.25"/><path class="cls-4" d="M20.16,15.47a1.19,1.19,0,0,1,.66-.49A18.52,18.52,0,0,1,24,14.82c-4.74-.69-3.87.65-3.87.65"/><path class="cls-4" d="M25,16.44a1.31,1.31,0,0,0-.2-.23.38.38,0,0,1-.09-.13.42.42,0,0,1,0-.16,2.29,2.29,0,0,1,.08-.28c0-.09.06-.17.08-.24s.12-.25.12-.25h0a.71.71,0,0,0-.29.2.49.49,0,0,0-.1.59c0,.06,0,.11.07.16a.83.83,0,0,1,0,.15.66.66,0,0,0,0,.15l.09.12a.73.73,0,0,0,.2.14l.09.05h0l0-.08s-.06-.1-.09-.17"/><path class="cls-4" d="M22.69,16.07a3.46,3.46,0,0,1-.45,0L22,16a.61.61,0,0,0-.19,0,1.39,1.39,0,0,0-.25,0l0,0a.28.28,0,0,0,.15.17.52.52,0,0,0,.24.09l.3,0a1.8,1.8,0,0,0,.49-.14l.19-.09,0,0h-.21"/><path class="cls-4" d="M20.92,14.27l.37,0a1.75,1.75,0,0,0,.41,0v0l-.1,0a2.35,2.35,0,0,0-.29-.06,1.58,1.58,0,0,0-.44,0l-.23.06-.21.11a.8.8,0,0,1-.41.14,2.62,2.62,0,0,0-.38.07,2.24,2.24,0,0,0-.35.14v0a1.61,1.61,0,0,0,.41,0,1.51,1.51,0,0,0,.38-.12,1.59,1.59,0,0,1,.42-.15,2.3,2.3,0,0,1,.42-.07"/><path class="cls-4" d="M27.4,14.52h0l0,0a0,0,0,0,1,0,0Zm-.34-.29a.59.59,0,0,0,0,.28h0s0,.05,0,.06,0,0,0,0v0l.07.06s0,0,.1,0a.21.21,0,0,0,.15,0,.14.14,0,0,0,.07-.06s0,0,0-.05v-.05a.61.61,0,0,1,.08-.18l0,0h0l0,0h0a.18.18,0,0,0,.09-.07.26.26,0,0,0,0-.34.71.71,0,0,0-.42-.23.43.43,0,0,0-.21,0v0a.22.22,0,0,1,.1.08.33.33,0,0,1,.11.21s0,.08,0,0,0,0,0,0h0l0,0,0,0a.53.53,0,0,1-.06-.14s0,0,0-.06,0,0,0,0a.36.36,0,0,0,0-.11.85.85,0,0,0-.11-.16l-.06-.09a0,0,0,0,1,0-.06.25.25,0,0,1,.11-.07v0a.34.34,0,0,0-.2,0,.27.27,0,0,0-.25.37.62.62,0,0,0,.12.19.38.38,0,0,0,.09.09s0,0,0,0l.07,0a.44.44,0,0,1,.18.18Z"/><path class="cls-4" d="M27.58,14.31h0s0,0,0,0h0Z"/><path class="cls-5" d="M7.23,18.72a4.1,4.1,0,0,1,0-.5h0c0,.16-.1.34-.14.46l-.19.54h-.3l-.18-.53a3.81,3.81,0,0,1-.14-.47h0c0,.16,0,.35,0,.5l0,.52H5.81L6,17.74h.45l.17.54c.06.19.12.36.16.53h0c0-.17.09-.34.14-.53l.18-.54h.44l.14,1.5H7.27Z"/><path class="cls-5" d="M8.63,18.67h0l-.07-.31L8.49,18h0c0,.1-.06.25-.08.34l-.08.31Zm-.35.23-.1.34H7.77l.47-1.5h.51l.43,1.5H8.76l-.09-.34Z"/><rect class="cls-5" x="9.3" y="18.52" width="0.65" height="0.21"/><path class="cls-5" d="M11.53,18.72c0-.15,0-.34,0-.5h0c0,.16-.1.34-.14.46l-.19.54h-.31l-.18-.53a3.9,3.9,0,0,1-.13-.47h0c0,.16,0,.35,0,.5l0,.52h-.36l.15-1.5h.45l.18.54c.06.19.11.36.15.53h0a4.19,4.19,0,0,1,.14-.53l.17-.54h.45l.13,1.5h-.38Z"/><path class="cls-5" d="M12.94,18.67h0l-.07-.31A1.86,1.86,0,0,1,12.8,18h0c0,.1-.06.25-.08.34l-.08.31Zm-.36.23-.09.34h-.42l.48-1.5h.51l.42,1.5h-.41L13,18.9Z"/><path class="cls-4" d="M2.59,4.46h.15c.44,0,.86-.22.86-1,0-.6-.27-.92-.82-.92H2.59ZM2.2,2.35a2.73,2.73,0,0,1,.53-.05,1.57,1.57,0,0,1,.81.18,1,1,0,0,1,.47,1,1.15,1.15,0,0,1-.42,1,1.55,1.55,0,0,1-.95.26,2.85,2.85,0,0,1-.44,0Z"/><path class="cls-4" d="M4.43,4.68h0V3h.39v1.7Zm.42-2.14c0,.11-.09.18-.24.18s-.23-.07-.23-.18.11-.17.23-.17S4.85,2.44,4.85,2.54Z"/><path class="cls-4" d="M6.52,4.64a1.27,1.27,0,0,1-.41.06.81.81,0,0,1-.9-.86.89.89,0,0,1,1-.88,1,1,0,0,1,.34,0l-.07.22a.9.9,0,0,0-.29,0,.58.58,0,0,0-.57.65.57.57,0,0,0,.59.64.87.87,0,0,0,.28-.05Z"/><path class="cls-4" d="M7.83,3.66h0c0-.34-.18-.5-.37-.5s-.38.27-.4.5Zm-.78.2c0,.52.31.63.59.63a1.08,1.08,0,0,0,.41-.07l.06.2a1.66,1.66,0,0,1-.54.08.8.8,0,0,1-.9-.85A.82.82,0,0,1,7.51,3a.68.68,0,0,1,.7.76v.15Z"/><path class="cls-4" d="M8.84,3.12h0a3.76,3.76,0,0,1,.47-.81l.23,0a3.4,3.4,0,0,0-.3.79Zm.69,0A3.39,3.39,0,0,1,10,2.31l.23,0a3.4,3.4,0,0,0-.3.79Z"/><path class="cls-4" d="M10.8,4.06h0a.32.32,0,0,0,0,.14.37.37,0,0,0,.36.28c.33,0,.43-.3.43-.65s-.12-.64-.43-.64a.38.38,0,0,0-.36.3.32.32,0,0,0,0,.13Zm-.39-.55c0-.26,0-.41,0-.53h.35l0,.22h0A.64.64,0,0,1,11.3,3c.43,0,.71.32.71.88a.77.77,0,0,1-.77.88.47.47,0,0,1-.42-.2h0v.85h-.39Z"/><path class="cls-4" d="M13.33,3.8h0c-.21,0-.68,0-.68.4a.28.28,0,0,0,.3.3.37.37,0,0,0,.37-.26.28.28,0,0,0,0-.09Zm.05.88,0-.18h0a.62.62,0,0,1-.49.21c-.33,0-.59-.19-.59-.48s.5-.62,1.06-.62V3.55c0-.22-.09-.38-.4-.38a.91.91,0,0,0-.41.09l-.08-.19A1.28,1.28,0,0,1,13,3c.5,0,.72.23.72.61V4.3a2.36,2.36,0,0,0,0,.38Z"/><rect class="cls-4" x="14.09" y="3.66" width="1.12" height="0.21"/><path class="cls-4" d="M16,4.06h0a.32.32,0,0,0,0,.14.36.36,0,0,0,.36.28c.33,0,.43-.3.43-.65s-.12-.64-.43-.64a.4.4,0,0,0-.37.3.62.62,0,0,0,0,.13Zm-.39-.55c0-.26,0-.41,0-.53h.35l0,.22h0A.64.64,0,0,1,16.48,3c.43,0,.71.32.71.88a.77.77,0,0,1-.77.88.49.49,0,0,1-.43-.2h0v.85h-.39Z"/><path class="cls-4" d="M18.51,3.8h0c-.21,0-.69,0-.69.4a.29.29,0,0,0,.31.3.37.37,0,0,0,.37-.26.28.28,0,0,0,0-.09Zm0,.88,0-.18h0a.62.62,0,0,1-.49.21c-.33,0-.59-.19-.59-.48s.5-.62,1.06-.62V3.55c0-.22-.09-.38-.4-.38a.91.91,0,0,0-.41.09l-.09-.19A1.36,1.36,0,0,1,18.18,3c.5,0,.71.23.71.61V4.3a1.58,1.58,0,0,0,0,.38Z"/><path class="cls-4" d="M19.81,2.29h0a3.84,3.84,0,0,1-.47.8l-.23,0a4,4,0,0,0,.29-.8Zm.67,0a3.45,3.45,0,0,1-.46.8l-.23,0a4,4,0,0,0,.29-.8Z"/><path class="cls-4" d="M19.9,5.12a3.54,3.54,0,0,0,.29-.81l.45,0a3.56,3.56,0,0,1-.47.83Z"/><path class="cls-4" d="M2,6.28H2a3.33,3.33,0,0,1,.47-.81l.23,0a3.66,3.66,0,0,0-.3.8Zm.68,0a3.33,3.33,0,0,1,.47-.81l.23,0a4.25,4.25,0,0,0-.3.8Z"/><path class="cls-4" d="M3.57,6.58c0-.2,0-.3,0-.44h.34l0,.21h0a.69.69,0,0,1,.56-.24A.53.53,0,0,1,5,6.37H5a.76.76,0,0,1,.25-.19.77.77,0,0,1,.34-.07.54.54,0,0,1,.6.6V7.84H5.8V6.78c0-.23,0-.44-.35-.44a.37.37,0,0,0-.36.25.78.78,0,0,0,0,.16V7.84H4.68V6.73c0-.19,0-.39-.34-.39A.37.37,0,0,0,4,6.61a.77.77,0,0,0,0,.15V7.84H3.57Z"/><path class="cls-4" d="M7.61,7h0c-.21,0-.68,0-.68.39a.28.28,0,0,0,.3.31A.37.37,0,0,0,7.6,7.4a.31.31,0,0,0,0-.09Zm0,.88,0-.18h0a.61.61,0,0,1-.49.21.53.53,0,0,1-.59-.49c0-.42.5-.61,1.06-.62v0c0-.23-.08-.38-.4-.38a1.07,1.07,0,0,0-.41.08l-.08-.19a1.48,1.48,0,0,1,.58-.11c.49,0,.71.23.71.61v.73a2.42,2.42,0,0,0,0,.39Z"/><rect class="cls-4" x="8.38" y="6.82" width="1.12" height="0.21"/><path class="cls-4" d="M9.88,6.58c0-.2,0-.3,0-.44h.35l0,.21h0a.69.69,0,0,1,.56-.24.53.53,0,0,1,.51.26h0a.76.76,0,0,1,.25-.19.74.74,0,0,1,.34-.07.54.54,0,0,1,.6.6V7.84h-.39V6.78c0-.23,0-.44-.35-.44a.37.37,0,0,0-.36.25.78.78,0,0,0,0,.16V7.84H11V6.73c0-.19-.05-.39-.34-.39a.37.37,0,0,0-.37.27.77.77,0,0,0,0,.15V7.84H9.88Z"/><path class="cls-4" d="M13.92,7h0c-.21,0-.68,0-.68.39a.28.28,0,0,0,.3.31.37.37,0,0,0,.37-.26.31.31,0,0,0,0-.09Zm.05.88,0-.18h0a.62.62,0,0,1-.49.21.53.53,0,0,1-.59-.49c0-.42.5-.61,1.06-.62v0c0-.23-.09-.38-.4-.38a1.07,1.07,0,0,0-.41.08L13,6.22a1.48,1.48,0,0,1,.58-.11c.49,0,.71.23.71.61v.73a2.42,2.42,0,0,0,0,.39Z"/><path class="cls-4" d="M15.22,5.44h0a3.94,3.94,0,0,1-.47.81l-.23,0a4.32,4.32,0,0,0,.29-.81Zm.67,0a3.54,3.54,0,0,1-.46.81l-.23,0a4.32,4.32,0,0,0,.29-.81Z"/><path class="cls-4" d="M17.53,7h0c-.21,0-.69,0-.69.39a.29.29,0,0,0,.31.31.37.37,0,0,0,.37-.26.31.31,0,0,0,0-.09Zm0,.88,0-.18h0a.62.62,0,0,1-.49.21.53.53,0,0,1-.59-.49c0-.42.5-.61,1.06-.62v0c0-.23-.09-.38-.4-.38a1.07,1.07,0,0,0-.41.08l-.09-.19a1.56,1.56,0,0,1,.58-.11c.5,0,.71.23.71.61v.73a1.63,1.63,0,0,0,0,.39Z"/><path class="cls-4" d="M3.38,11A1.08,1.08,0,0,1,3,11a.81.81,0,0,1-.91-.86.89.89,0,0,1,1-.89,1.54,1.54,0,0,1,.35.05l-.08.23A.77.77,0,0,0,3,9.5a.59.59,0,0,0-.58.66.56.56,0,0,0,.59.63,1.18,1.18,0,0,0,.28,0Z"/><path class="cls-4" d="M5.17,10.53c0,.19,0,.34,0,.47H4.85l0-.18h0a.77.77,0,0,1-.53.2c-.44,0-.61-.23-.61-.65V9.3h.4v1c0,.27.06.47.33.47a.34.34,0,0,0,.35-.23.36.36,0,0,0,0-.15V9.3h.4Z"/><path class="cls-4" d="M6.59,10.12h0c-.21,0-.68,0-.68.39a.28.28,0,0,0,.3.3.36.36,0,0,0,.37-.25.34.34,0,0,0,0-.1Zm.06.88,0-.18h0a.64.64,0,0,1-.5.2c-.33,0-.59-.19-.59-.48s.5-.61,1.06-.62V9.87c0-.23-.08-.39-.4-.39a1,1,0,0,0-.4.09l-.09-.19a1.48,1.48,0,0,1,.58-.11c.49,0,.71.22.71.61v.73A2.42,2.42,0,0,0,7,11Z"/><rect class="cls-4" x="7.48" y="8.57" width="0.39" height="2.43"/><path class="cls-4" d="M9.51,9.93h0a.41.41,0,0,0,0-.11.38.38,0,0,0-.36-.32c-.32,0-.45.3-.45.65s.14.65.44.65a.37.37,0,0,0,.36-.29.32.32,0,0,0,0-.14Zm0,.89h0A.55.55,0,0,1,9,11c-.4,0-.72-.29-.72-.85a.8.8,0,0,1,.78-.9.54.54,0,0,1,.46.22h0l0-.2h.35c0,.12,0,.27,0,.53v1.84H9.51Z"/><path class="cls-4" d="M11.88,10.53c0,.19,0,.34,0,.47h-.34l0-.18h0A.73.73,0,0,1,11,11c-.44,0-.6-.23-.6-.65V9.3h.39v1c0,.27.06.47.33.47a.36.36,0,0,0,.36-.23.68.68,0,0,0,0-.15V9.3h.39Z"/><path class="cls-4" d="M12.38,11h0V9.3h.4V11Zm.43-2.14c0,.1-.1.17-.24.17s-.23-.07-.23-.17.1-.18.23-.18S12.81,8.75,12.81,8.86Z"/><path class="cls-4" d="M14.33,10h0c0-.34-.18-.49-.37-.49s-.39.26-.41.49Zm-.78.2c0,.52.3.63.59.63a1.43,1.43,0,0,0,.41-.06l.06.2a1.75,1.75,0,0,1-.54.08.81.81,0,0,1-.91-.86A.81.81,0,0,1,14,9.27a.68.68,0,0,1,.71.75.66.66,0,0,1,0,.15Z"/><path class="cls-4" d="M15.07,9.74c0-.15,0-.32,0-.44h.36l0,.26h0A.59.59,0,0,1,16,9.27H16v.28H16a.46.46,0,0,0-.48.35.76.76,0,0,0,0,.15V11h-.4Z"/><path class="cls-4" d="M2.56,13.53h0a.61.61,0,0,0,0,.14.38.38,0,0,0,.37.29c.32,0,.43-.31.43-.66s-.13-.64-.44-.64a.38.38,0,0,0-.36.31.53.53,0,0,0,0,.13ZM2.16,13c0-.26,0-.41,0-.53H2.5l0,.22h0a.6.6,0,0,1,.52-.24c.43,0,.71.31.71.87s-.37.88-.76.88a.48.48,0,0,1-.43-.2h0v.85h-.4Z"/><path class="cls-4" d="M5.21,13.13h0c0-.34-.18-.49-.37-.49s-.38.26-.4.49Zm-.78.2c0,.52.31.63.59.63a1.08,1.08,0,0,0,.41-.07l.06.2a1.43,1.43,0,0,1-.54.08.8.8,0,0,1-.9-.85.81.81,0,0,1,.84-.89.67.67,0,0,1,.7.75v.15Z"/><path class="cls-4" d="M6,12.89c0-.14,0-.31,0-.44h.35l0,.27h0a.59.59,0,0,1,.52-.29h.09v.28H6.84a.46.46,0,0,0-.47.36.68.68,0,0,0,0,.15v.94H6Z"/><path class="cls-4" d="M7.12,13.87a1,1,0,0,0,.39.09c.23,0,.37-.1.37-.25s-.07-.21-.32-.33-.5-.29-.5-.48.3-.47.69-.47a1.19,1.19,0,0,1,.44.08l-.11.21a.66.66,0,0,0-.32-.08c-.22,0-.33.11-.33.22s.06.18.31.29.51.28.51.52-.34.5-.74.5A1.16,1.16,0,0,1,7,14.08Z"/><path class="cls-4" d="M8.9,13.3h0c0,.28.07.67.43.67s.4-.4.4-.67-.07-.66-.41-.66-.42.4-.42.66m1.23,0a.8.8,0,0,1-.82.88.78.78,0,0,1-.81-.87.8.8,0,0,1,.83-.88A.78.78,0,0,1,10.13,13.3Z"/><path class="cls-4" d="M10.52,12.89c0-.2,0-.3,0-.44h.34l0,.21h0a.71.71,0,0,1,.57-.23A.54.54,0,0,1,12,13v1.14h-.4V13.06c0-.2-.05-.41-.34-.41a.38.38,0,0,0-.37.28.68.68,0,0,0,0,.15v1.07h-.39Z"/><path class="cls-4" d="M13.46,13.28h0c-.2,0-.68,0-.68.39a.28.28,0,0,0,.3.3.36.36,0,0,0,.37-.26.28.28,0,0,0,0-.09Zm.06.87,0-.18h0a.65.65,0,0,1-.5.21.52.52,0,0,1-.58-.48c0-.43.49-.62,1-.62V13c0-.23-.08-.39-.39-.39a.86.86,0,0,0-.41.09l-.09-.19a1.48,1.48,0,0,1,.58-.11c.49,0,.71.22.71.6v.74a1.54,1.54,0,0,0,0,.38Z"/></svg>