<svg id="Capa_1" data-name="Capa 1" xmlns="http://www.w3.org/2000/svg" viewBox="0 0 28.62 28.8"><defs><style>.cls-1{fill:#231f20;}.cls-2{fill:#ffcc64;}.cls-3{fill:#fbc8ba;}.cls-4{fill:#acd03d;}.cls-5{fill:#0070a2;}.cls-6{fill:#f05050;}</style></defs><title>1-24meses</title><polygon class="cls-1" points="1.23 0.98 1.23 2 2.2 2 2.2 0.98 2.59 0.98 2.59 3.35 2.2 3.35 2.2 2.24 1.23 2.24 1.23 3.35 0.84 3.35 0.84 0.98 1.23 0.98"/><path class="cls-1" d="M4.1,2.47h0c-.21,0-.68,0-.68.39a.28.28,0,0,0,.3.31.37.37,0,0,0,.37-.26.31.31,0,0,0,0-.09Zm.05.88,0-.18h0a.61.61,0,0,1-.49.21A.53.53,0,0,1,3,2.89c0-.42.5-.61,1.06-.62v0c0-.23-.08-.38-.4-.38a1.07,1.07,0,0,0-.41.08L3.2,1.73a1.46,1.46,0,0,1,.57-.11c.5,0,.72.23.72.61V3a2.42,2.42,0,0,0,0,.39Z"/><path class="cls-1" d="M6.25,3.31a1.37,1.37,0,0,1-.41.06.81.81,0,0,1-.91-.86.89.89,0,0,1,1-.88,1.13,1.13,0,0,1,.35.05l-.08.22a.77.77,0,0,0-.28,0,.59.59,0,0,0-.57.66.56.56,0,0,0,.58.63.92.92,0,0,0,.29,0Z"/><path class="cls-1" d="M7.61,2.32h0c0-.34-.18-.49-.37-.49s-.39.26-.41.49Zm-.78.2c0,.52.3.64.59.64a1.12,1.12,0,0,0,.41-.07l.06.2a1.75,1.75,0,0,1-.54.08.79.79,0,0,1-.9-.85.81.81,0,0,1,.83-.9A.68.68,0,0,1,8,2.37a.62.62,0,0,1,0,.15Z"/><path class="cls-1" d="M9.69,1.2v.45h.48v.21H9.69v1c0,.23.12.28.27.28h.15l0,.21a1.07,1.07,0,0,1-.29,0,.67.67,0,0,1-.39-.1.49.49,0,0,1-.15-.43v-1H9V1.65h.3V1.28Z"/><path class="cls-1" d="M10.76,2.5h0c0,.28.08.66.43.66s.41-.4.41-.66-.07-.66-.42-.66-.42.4-.42.66M12,2.5a.8.8,0,0,1-.83.88.78.78,0,0,1-.8-.88.8.8,0,0,1,.83-.88A.78.78,0,0,1,12,2.5Z"/><path class="cls-1" d="M12.43,2.09c0-.15,0-.31,0-.44h.35l0,.27h0a.58.58,0,0,1,.52-.3h.08V1.9h-.08a.47.47,0,0,0-.48.35.81.81,0,0,0,0,.16v.94h-.4Z"/><path class="cls-1" d="M13.7,2.09c0-.15,0-.31,0-.44H14l0,.27h0a.61.61,0,0,1,.53-.3h.08V1.9h-.08a.47.47,0,0,0-.48.35.81.81,0,0,0,0,.16v.94h-.4Z"/><path class="cls-1" d="M16,2.32h0c0-.34-.18-.49-.37-.49s-.39.26-.41.49Zm-.78.2c0,.52.3.64.59.64a1.12,1.12,0,0,0,.41-.07l.06.2a1.75,1.75,0,0,1-.54.08.79.79,0,0,1-.9-.85.81.81,0,0,1,.83-.9.68.68,0,0,1,.71.75.62.62,0,0,1,0,.15Z"/><path class="cls-1" d="M16.69,3.07a1,1,0,0,0,.4.09c.23,0,.37-.1.37-.25s-.07-.22-.32-.33-.5-.29-.5-.49.3-.47.68-.47a1.18,1.18,0,0,1,.45.09l-.11.2a.81.81,0,0,0-.33-.07c-.21,0-.32.1-.32.21s.06.18.31.3.51.28.51.51-.34.51-.74.51a1.09,1.09,0,0,1-.49-.1Z"/><path class="cls-1" d="M20.14,2.3h0V2.18a.39.39,0,0,0-.37-.33c-.33,0-.44.32-.44.66s.13.64.42.64a.38.38,0,0,0,.38-.29.37.37,0,0,0,0-.11ZM20.53.92v2c0,.12,0,.31,0,.41h-.33l0-.22h0a.58.58,0,0,1-.51.25c-.42,0-.72-.32-.72-.87s.36-.89.74-.89a.52.52,0,0,1,.45.2h0V.92Z"/><path class="cls-1" d="M22.14,2.32h0c0-.34-.18-.49-.37-.49s-.39.26-.4.49Zm-.78.2c0,.52.3.64.59.64a1.12,1.12,0,0,0,.41-.07l.06.2a1.75,1.75,0,0,1-.54.08.79.79,0,0,1-.9-.85.81.81,0,0,1,.83-.9.68.68,0,0,1,.71.75.62.62,0,0,1,0,.15Z"/><polygon class="cls-1" points="25.26 1.07 25.26 1.23 24.18 3.35 23.8 3.35 24.86 1.31 24.86 1.31 23.66 1.31 23.66 1.07 25.26 1.07"/><path class="cls-1" d="M2,6.46a1.08,1.08,0,0,1-.41.07A.81.81,0,0,1,.7,5.67a.89.89,0,0,1,1-.89A1.1,1.1,0,0,1,2,4.84L2,5.06a.82.82,0,0,0-.28,0,.59.59,0,0,0-.58.66.56.56,0,0,0,.59.63,1.26,1.26,0,0,0,.28,0Z"/><path class="cls-1" d="M3.86,6c0,.19,0,.34,0,.47H3.53l0-.18h0a.77.77,0,0,1-.53.2c-.44,0-.61-.23-.61-.65V4.81h.4v1c0,.27.06.47.33.47a.34.34,0,0,0,.35-.23.39.39,0,0,0,0-.15V4.81h.4Z"/><path class="cls-1" d="M4.8,5.91h0a.34.34,0,0,0,0,.1.4.4,0,0,0,.37.3c.32,0,.43-.3.43-.66S5.49,5,5.18,5a.4.4,0,0,0-.37.3.49.49,0,0,0,0,.12Zm-.42.6c0-.1,0-.3,0-.41v-2h.4V5h0a.61.61,0,0,1,.52-.23c.38,0,.68.3.68.86a.78.78,0,0,1-.76.89.52.52,0,0,1-.49-.25h0l0,.23Z"/><path class="cls-1" d="M6.74,5.66h0c0,.28.07.66.43.66s.4-.4.4-.66S7.51,5,7.16,5s-.42.4-.42.66M8,5.66a.79.79,0,0,1-.82.87.77.77,0,0,1-.81-.87.8.8,0,0,1,.83-.88A.78.78,0,0,1,8,5.66Z"/><path class="cls-1" d="M8.34,6.22a1,1,0,0,0,.4.09c.23,0,.37-.09.37-.24S9,5.85,8.79,5.73s-.5-.28-.5-.48.3-.47.68-.47a1,1,0,0,1,.45.09l-.11.2A.81.81,0,0,0,9,5c-.21,0-.32.1-.32.21s.06.18.31.3.51.28.51.51-.34.51-.74.51a1.09,1.09,0,0,1-.49-.1Z"/><path class="cls-2" d="M2.89,24.58a26.67,26.67,0,0,0,13.37,3.29c8.21,0,11-3.29,11-3.29Z"/><path class="cls-3" d="M11.93,24.42H4.67a3.54,3.54,0,0,1,.82-2.28c.86-.95,2.35-3.3,3.08-3.59s2.6-.7,2.58-1-.79-.43-.79-.43-1.56-.85-1.65-1.45S8,15.24,8,15.17s-1.4-1.72-.61-1.83,1.09.07,1.19-.47,1.54-3.93,3-4.19a23.57,23.57,0,0,1,7.22.92c.37.35.58,1.65.63,1.72s.15,1.29.58,1.41.61.18.61.52-.52.84-.52.84a5.27,5.27,0,0,0-.76.75,3.29,3.29,0,0,1-2.1,2.25c-1.74.65-1,.51-1,.51s-.07.42,1.37.65a6.88,6.88,0,0,1,4,3c1.07,1.48,1.46,2.41,1.17,3.13A2.19,2.19,0,0,1,21.07,26c-1,.14-3.08-1.23-3.08-1.23l-.22-.4Z"/><polygon class="cls-4" points="11.88 27.09 12.11 25.65 13.56 26.03 13.79 27.69 11.88 27.09"/><polygon class="cls-4" points="13.63 24.76 13.79 26.12 16.05 25.96 16.11 24.39 13.63 24.76"/><polygon class="cls-4" points="14.01 23.34 14.01 22.01 16.18 21.92 16.11 23.07 14.01 23.34"/><polygon class="cls-4" points="13.92 20.89 12.36 20.76 12.36 21.92 14.01 22.01 13.92 20.89"/><polygon class="cls-4" points="14.22 19.8 14.22 20.76 16.11 20.76 16.18 19.8 14.22 19.8"/><polygon class="cls-5" points="12.49 19.8 12.49 20.7 14.01 20.87 14.32 19.87 12.49 19.8"/><polygon class="cls-5" points="14.01 23.42 13.92 24.7 16.11 24.46 16.18 23.12 14.01 23.42"/><polygon class="cls-5" points="13.63 26.12 13.63 27.64 16.18 27.18 16.05 25.96 13.63 26.12"/><polygon class="cls-6" points="14.11 20.87 14.22 22 16.18 21.92 16.18 20.87 14.11 20.87"/><polygon class="cls-6" points="12.06 18.19 12.19 19.71 14.22 19.8 14.32 18.51 12.06 18.19"/><polygon class="cls-6" points="12.36 24.39 12.36 25.65 13.79 26.12 13.92 24.88 12.36 24.39"/><polygon class="cls-6" points="12.49 22 12.36 24.39 14.01 24.79 14.01 22.01 12.49 22"/><path class="cls-4" d="M11.88,18.11l-.85.56s0,.14-.08.5-.31.43-.11.63a1.34,1.34,0,0,1,.24.32,1.11,1.11,0,0,1,.09.16,2.22,2.22,0,0,1,.89-.38c.3,0,.14-1.84-.18-1.79"/><polygon class="cls-5" points="12.36 19.95 12.48 20.62 11.88 20.87 11.38 20.58 11.24 19.97 12.36 19.95"/><path class="cls-1" d="M9.84,13c1.95-2,3.36.05,3.36.05C11.84,11.83,9.84,13,9.84,13"/><path class="cls-1" d="M15,13.1s1.15-1.87,3.06.08A2.88,2.88,0,0,0,15,13.1"/><path class="cls-1" d="M11.74,13.35a2,2,0,0,1,1.31.75l-.82-.34c.14.33-.42.63-.88.42s-.37-.49-.37-.49l-.24.2c-.17.15.41.41.41.41l-1-.3a2.11,2.11,0,0,1,1.59-.65"/><path class="cls-1" d="M16.89,13.32c1.07.33,1.1.7,1.1.7l-1,.28s.56-.28.44-.41a.79.79,0,0,0-.27-.21.44.44,0,0,1-.37.53c-.46.08-1.1,0-.92-.38,0,0-.27-.24-.71.08a1.7,1.7,0,0,1,1.76-.59"/><path class="cls-1" d="M13.51,15s.7-.11.42.09-.67,0-.42-.09"/><path class="cls-1" d="M14.22,15.12c-.17-.16.39,0,.39,0,0,.28-.22.16-.39,0"/><path class="cls-1" d="M9.54,12.07l.09-.18c-.09.24-.14.38-.09.18"/><path class="cls-1" d="M18.83,13.6h0"/><path class="cls-1" d="M14.19,17.17c-.25.19-1,.19-.92-.22,0,0,1.16,0,.92.22"/><path class="cls-1" d="M12.37,27h0v0a0,0,0,0,1,0,0l0,0h0s0-.05,0,0m.2-.08h0l-.15-.08h0v-.08l0-.16a2.91,2.91,0,0,0,0-.31l0-.32,1,.34c0,.13,0,.25.05.38s.06.38.1.56c0-.18.06-.37.09-.56s0-.24.05-.37c.76,0,1.53-.1,2.3-.17,0,.17-.06.33-.09.5l-.06.47c-.8.08-1.59.18-2.39.29l-.63-.3Zm3.54-2.29h0c-.05.23-.08.46-.11.69s-.05.37-.07.56c-.74,0-1.47,0-2.21,0l-1.15-.39,0-.91,1.07.27c0,.11,0,.22.05.33a5.62,5.62,0,0,0,.09.57c0-.19.07-.38.1-.57l0-.27H14L15,24.69c.36-.1.72-.19,1.07-.3-.39,0-.76.09-1.14.15s-.7.1-1.05.16h0v0c0-.05,0-.1-.1-.11h0l-1.25-.3c0-.34,0-.68,0-1l1.31.25a2.09,2.09,0,0,0,0,.25c0,.44.08.73.08.73s.08-.29.16-.72c0-.07,0-.14,0-.21h0a.2.2,0,0,0,.11,0L16,23.25c0,.38.09.76.16,1.14ZM17.51,20Zm.56.52h0a.78.78,0,0,0,.05.18c.05.08.1.16.16.24h0l-.13.05a1.62,1.62,0,0,0-.19-.31l-.1-.17c-.07-.12-.15-.24-.2-.35a.37.37,0,0,1-.05-.15v0h0l.22,0,.49.1a.44.44,0,0,0-.23.18A.41.41,0,0,0,18.07,20.47Zm-.09,3h0l0-.11-.13-.07a1.39,1.39,0,0,1-.19-.15.38.38,0,0,1-.1-.17.25.25,0,0,1,0-.17v0l.05-.06.08-.09a1.49,1.49,0,0,1,.48-.32.81.81,0,0,0,.32-.27.3.3,0,0,0,0-.1v-.07a.46.46,0,0,0,0-.17c0-.18-.15-.35-.18-.5a.06.06,0,0,1,0,0,1,1,0,0,1,.25.07.55.55,0,0,1,.32.38,1,1,0,0,1,0,.5l.06,0a1,1,0,0,0,.16-.53.61.61,0,0,0-.33-.53,1.24,1.24,0,0,0-.4-.14h0a2.11,2.11,0,0,1,0-.26c0-.05,0-.1,0-.14s0-.09.06-.09,0,0,0,0,0,0,.08,0l.07,0h0l.05,0,.09,0,.05,0,.11.09a.43.43,0,0,1,.09.1,1.1,1.1,0,0,1,.17.25,2.6,2.6,0,0,1,.17.56v0a1.48,1.48,0,0,1,.2.59.61.61,0,0,1,0,.3.56.56,0,0,1-.15.26l-.11.1.26.08.49.15.48.16a3.57,3.57,0,0,1,.45.19,2.35,2.35,0,0,1,.4.27l.06,0a.7.7,0,0,0-.19-.41,1.54,1.54,0,0,0-.45-.33,2.55,2.55,0,0,0-1-.26c0-.06,0-.12,0-.18s0-.21,0-.31,0-.42,0-.64v0a1.19,1.19,0,0,0,0-.7,1.41,1.41,0,0,0-.17-.35l-.15-.16a1.91,1.91,0,0,0-.21-.15l-.12-.07-.11,0,0,0,0,0h0l-.14,0a1.05,1.05,0,0,0-.37,0l-.09,0a1,1,0,0,0-.33-.3,1.07,1.07,0,0,0-.24-.12.78.78,0,0,0-.45-.05.43.43,0,0,0-.27.16A.41.41,0,0,0,17,20a.64.64,0,0,0,.06.28,1.63,1.63,0,0,0,.31.42l.21.16.09.06-.15.07c-.1,0-.21.11-.21.09h.05s0,0,0,0H17a.23.23,0,0,0,0,.18.26.26,0,0,0,.18.15.42.42,0,0,0,.23,0,.53.53,0,0,0,.24-.06.31.31,0,0,0,.16-.2.22.22,0,0,0,0-.16s0,0,0,0l.22.11a.38.38,0,0,0,0,.1c0,.2.09.37.1.52a.44.44,0,0,1,0,.09s0,.05,0,.06,0,0,0,0a.61.61,0,0,1-.19.12,2.15,2.15,0,0,0-.61.38,1.54,1.54,0,0,0-.12.13l0,0a.21.21,0,0,0-.12-.05.24.24,0,0,0-.16.09.61.61,0,0,0-.07.12.61.61,0,0,0,.07.12.26.26,0,0,0,.16.09.27.27,0,0,0,0,.09.75.75,0,0,0,.18.31l.2.17a1.29,1.29,0,0,0,.13.77H16.13c.06-.39.11-.77.15-1.15,0-.06-.06-.12-.15-.12h0a6.9,6.9,0,0,0,.22-1.08c0-.08-.08-.15-.19-.16a6.52,6.52,0,0,0,.19-1,.17.17,0,0,0-.17-.15,6.54,6.54,0,0,0,.17-.86c0-.08-.08-.15-.2-.16h-.06c-.56,0-1.13,0-1.69.08a2.08,2.08,0,0,0,.15-.44,1.79,1.79,0,0,0,0-.65l0-.18-.19,0-.56-.08c-.19,0-.39,0-.58,0a3,3,0,0,1-.54-.1l-.5-.2-.05,0L12,18a2.09,2.09,0,0,0-.63.26,2.12,2.12,0,0,0-.48.35l-.09,0a1.54,1.54,0,0,0-.53,0l-.23.11a.19.19,0,0,0,0-.12.26.26,0,0,0-.14-.15l.14,0a2.63,2.63,0,0,0,1.16-.67l.06-.11.34.06.34.16a3.06,3.06,0,0,0,.43.13,4.55,4.55,0,0,0,.91.15A6.26,6.26,0,0,0,15,18a8.71,8.71,0,0,0,1.19-.38.75.75,0,0,0,.17.3.5.5,0,0,0,.17.15.39.39,0,0,0,.11.06.66.66,0,0,0,.15.05h0c.4.09.81.19,1.2.3a5.9,5.9,0,0,1,1.1.37,2.91,2.91,0,0,1,.37.29l.37.36.69.72a18.73,18.73,0,0,1,1.21,1.52,5.16,5.16,0,0,1,.8,1.61,1.64,1.64,0,0,1,0,.82.24.24,0,0,1,0,.08h0v.07a3.27,3.27,0,0,1-.31.66,2.39,2.39,0,0,1-.62.73,1.36,1.36,0,0,1-1.06.25,4,4,0,0,1-1.1-.38,4,4,0,0,1-.86-.62A1.54,1.54,0,0,1,18,23.44Zm0-6.73h0a9.18,9.18,0,0,1-3,1.15,6,6,0,0,1-1.69.05,3.79,3.79,0,0,1-1.14-.31l-.3-.16-.05,0h-.08A3.28,3.28,0,0,1,10,16.56a4,4,0,0,1-.6-.64l-.24-.35c-.07-.11-.14-.24-.2-.35l-.32-.15-.15,0L8.29,15A1.5,1.5,0,0,1,8,14.74a1.89,1.89,0,0,1-.25-.31,1.31,1.31,0,0,1-.09-.17,1,1,0,0,1-.09-.17.47.47,0,0,1,0-.3c0-.08.06-.11.16-.14a2.34,2.34,0,0,1,.95,0l.34.07,0-.24,0-.31A.37.37,0,0,0,9.09,13c.13-.46.88-2.09.88-2.09s-.2.59-.34,1a13.88,13.88,0,0,1,1.64-1.78l-.16.81.72-.68-.25.67,1.5-1.36-.6,1.15.72-.29L13,11,14.4,9.72l-.3.93.77-.74.18.68.48-1.12.3,1.1.36-.9.3,1.1.26-1L17.63,11l.29-.44.42.72-.06-.6.54,1.71.17-.9a1,1,0,0,1,.14.66,6.59,6.59,0,0,1-.3,1.5A13,13,0,0,1,20,12.85a.75.75,0,0,1,.32.13.53.53,0,0,1,.19.23.38.38,0,0,1,0,.13v.09s0,.05,0,.07a1.41,1.41,0,0,1-.4.59,4.28,4.28,0,0,1-.66.51l0,0v0a4.08,4.08,0,0,1-.5,1.11A3,3,0,0,1,18,16.71Zm-8.37,2Zm-.87,5.53H5.26a4,4,0,0,1,.22-.34c.1-.14.19-.28.31-.42a5.46,5.46,0,0,1,.76-.76,6.29,6.29,0,0,1,.91-.67c.16-.1.33-.2.51-.29s.36-.18.53-.25l.19-.07,0-.15a.52.52,0,0,1,0-.24,1.9,1.9,0,0,1,.1-.28,3.37,3.37,0,0,1,.3-.56l0-.07,0-.08L9,19.86a.62.62,0,0,1,0-.13H9a.21.21,0,0,0,.07.05s0,0,.12,0a.34.34,0,0,0,.24,0,.14.14,0,0,0,.07-.08s0,0,0,0V19.6a1.49,1.49,0,0,0-.11-.28l-.07-.12A.41.41,0,0,1,9.41,19a.8.8,0,0,1,.15-.17l.08-.06v0a1.64,1.64,0,0,1,0,.23s0,.08,0,.12l0,0a.39.39,0,0,0-.06.18.22.22,0,0,0,.13.23l.16.1,0-.16a3.1,3.1,0,0,0,.11-.51V19l0,0a.79.79,0,0,1,.71-.24c.13,0,.27.08.25.12h0l0,0-.08.07a.65.65,0,0,0-.13.16,1.45,1.45,0,0,0-.16.69v.05l.1.05a.64.64,0,0,1,.24.2.82.82,0,0,1,.14.28,1.48,1.48,0,0,1,0,.63,1.54,1.54,0,0,1-.05.31l-.08.33a2.57,2.57,0,0,1-.28.61,5.4,5.4,0,0,1-.93,1.15C9.43,23.7,9.1,24,8.74,24.25ZM12,23h0c0,.43,0,.85,0,1.28H9l.34-.19c.25-.15.48-.32.71-.49a5.41,5.41,0,0,0,.62-.55,3.61,3.61,0,0,0,.5-.61,3,3,0,0,0,.33-.67c0-.13.06-.23.09-.35a2.21,2.21,0,0,0,0-.35v0l.63.13a4.29,4.29,0,0,0,.13.6c-.11,0-.19.06-.19.13v0a8.85,8.85,0,0,0,.16.87.33.33,0,0,0-.36.14A.13.13,0,0,0,12,23Zm1.9.12h0l-1.4-.3a5.57,5.57,0,0,0,.14-.71c.42.06.85.1,1.27.14C13.87,22.52,13.86,22.81,13.87,23.09Zm2-3.14h0a5.28,5.28,0,0,0,.13.67c-.58,0-1.15,0-1.73.08v-.16c0-.17,0-.31,0-.42C14.81,20.07,15.36,20,15.91,20Zm-3.46,1.79h0a7.2,7.2,0,0,0,.16-.78c.45.06.91.1,1.37.14,0,.23-.05.46-.07.71C13.42,21.78,12.94,21.75,12.45,21.74Zm1.7-1.63h0q0,.18-.09.42a.88.88,0,0,0,0,.16c-.52,0-1-.06-1.56-.07,0-.22.1-.44.13-.67C13.12,20,13.63,20.07,14.15,20.11Zm1.92,1.63h0c-.59,0-1.17.05-1.75.08,0-.24,0-.48,0-.7L15.91,21A7.2,7.2,0,0,0,16.07,21.74Zm-4.71-1.62h0a8.44,8.44,0,0,0,.87,0c0,.18.07.37.11.55a.19.19,0,0,0-.14.07l-.64-.12a.8.8,0,0,0-.09-.26A1.28,1.28,0,0,0,11.36,20.12Zm-.18-1.24h0c0-.1-.07-.17-.15-.21h0a4.61,4.61,0,0,0,.56-.12A2.86,2.86,0,0,0,12,18.4a2.28,2.28,0,0,0-.09.63,3.2,3.2,0,0,0,0,.44l.06.32a5.54,5.54,0,0,0-.68.25L11.24,20a.93.93,0,0,0-.35-.23,1,1,0,0,1,.06-.57L11,19l.08-.06,0,0S11.17,18.9,11.18,18.88Zm3,.81h0c-.53,0-1.06-.06-1.6-.07v-.18a3.21,3.21,0,0,0-.07-.43,2.7,2.7,0,0,0-.26-.7,2.88,2.88,0,0,1,.41,0,2.4,2.4,0,0,1,.53.12l.51.2.29.08a1.83,1.83,0,0,0,0,.52A1.91,1.91,0,0,0,14.13,19.69Zm.09,3.48h0c0-.3.06-.61.08-.93.54,0,1.07-.09,1.61-.16a5.77,5.77,0,0,0,.19.9h0l-1.82.19ZM9.1,18.74h0L9,18.88a.64.64,0,0,0-.2,0,.59.59,0,0,0-.19.08.32.32,0,0,0-.1.13.82.82,0,0,0-.05.14l0,.14a1.27,1.27,0,0,0,0,.28,2.45,2.45,0,0,0,0,.27,1.42,1.42,0,0,0,0,.2,4.14,4.14,0,0,0-.29.55,1.59,1.59,0,0,0-.1.33.93.93,0,0,0,0,.24,4.32,4.32,0,0,0-.43.22c-.18.11-.36.22-.52.34a6.12,6.12,0,0,0-.9.76,4.74,4.74,0,0,0-.65.86,4.66,4.66,0,0,0-.22.45,3,3,0,0,0-.14.39H4.73c0-.06,0-.15.1-.27A3.38,3.38,0,0,1,5,23.58c.09-.15.19-.32.31-.5.24-.37.56-.77.88-1.23a6.46,6.46,0,0,0,.91-1.5l.11-.4a1.47,1.47,0,0,1,.21-.36,1.9,1.9,0,0,1,.78-.53C8.51,18.93,8.81,18.84,9.1,18.74Zm-6,5.93h9c0,.34,0,.68,0,1,0,0,0,.05,0,.08l-.08.52-.05.3,0,.15v.08s0,.06,0,0,0,0,0,0h0s0,0,0,0a.05.05,0,0,0,0,0,.15.15,0,0,0,0,.1c0,.06.09.14.08.12l0,0,.12.07.18.1.38.18.75.34h0a.42.42,0,0,0,.22,0c.87-.15,1.73-.31,2.58-.49h0a.12.12,0,0,0,.11-.1c0-.19-.05-.38-.08-.57s-.05-.33-.08-.5h0c.09,0,.16-.07.15-.13,0-.23-.05-.46-.08-.69s-.06-.46-.11-.68h1.75a4.83,4.83,0,0,0,.46.44,5.48,5.48,0,0,0,1,.59,5.36,5.36,0,0,0,1.19.39,1.67,1.67,0,0,0,1.26-.27,3,3,0,0,0,.76-.74c.1-.14.2-.27.29-.41h5.25v-.42H23v0a2,2,0,0,0,0-.93,5.14,5.14,0,0,0-.75-1.74A10.92,10.92,0,0,0,21,20a8.7,8.7,0,0,0-.76-.72l-.41-.35a2.37,2.37,0,0,0-.51-.34,6.46,6.46,0,0,0-1.25-.34c-.42-.08-.84-.15-1.26-.2h-.1l-.1,0-.17-.11a.9.9,0,0,1-.21-.27A12.93,12.93,0,0,0,18,16.74a3.37,3.37,0,0,0,1-1,6.38,6.38,0,0,0,.61-1.07,5,5,0,0,0,.74-.49,1.66,1.66,0,0,0,.54-.67.29.29,0,0,0,0-.1l0-.09a.56.56,0,0,0,0-.22.82.82,0,0,0-.27-.39,1.17,1.17,0,0,0-.39-.18,3.13,3.13,0,0,0,0-2.45C19.63,9,16,7.56,14.56,7.54A10,10,0,0,0,8.85,9.11,3.1,3.1,0,0,0,7.74,12.9a1,1,0,0,0,0,.31,1.64,1.64,0,0,0-.37,0,1,1,0,0,0-.35.18.54.54,0,0,0-.19.27.81.81,0,0,0,0,.49c0,.07.07.14.09.2l.11.2a1.9,1.9,0,0,0,.31.39,1.72,1.72,0,0,0,.48.34,1.52,1.52,0,0,0,.32.12l.16,0a2.26,2.26,0,0,0,.16.26,3.28,3.28,0,0,0,.27.38,5.58,5.58,0,0,0,.68.7,4.06,4.06,0,0,0,1.49.78s0,0-.06.05a3.94,3.94,0,0,1-1.16.46c-.27.08-.58.17-.88.29a5,5,0,0,0-.88.47,4.14,4.14,0,0,0-.73.65,4.4,4.4,0,0,0-.48.76c-.16.22-.38.45-.57.68l-.58.68a5.61,5.61,0,0,0-.49.66,5,5,0,0,0-.34.64,3,3,0,0,0-.18.56,1.91,1.91,0,0,0,0,.44,2,2,0,0,0,0,.3H3.05Z"/><path class="cls-1" d="M13.77,16.69a2.45,2.45,0,0,1-.89-.19,1,1,0,0,1-.23-.15l-.08-.07H13.8c.29,0,.58,0,.82.06l.41.07a1.62,1.62,0,0,1-.36.17,2.93,2.93,0,0,1-.9.12"/><path class="cls-1" d="M20,14.48A9.82,9.82,0,0,1,18.24,18c-1.4,1.8-1,3.07-1,3.07a1.12,1.12,0,0,1-.72-.2,1,1,0,0,1-.45-.59s.43-1,.07-1.28,0-1.38,0-1.38a6.64,6.64,0,0,0,2.63-1.68c.83-1.06.79-1.23.79-1.23s0-.21.39-.23"/><path class="cls-1" d="M8,15.17a30.43,30.43,0,0,1,1.1,3.57c-.12.14.44-.16.53-.14a10.67,10.67,0,0,0,.21-1.79S8.8,15.17,8,15.17"/></svg>