<svg id="Capa_1" data-name="Capa 1" xmlns="http://www.w3.org/2000/svg" viewBox="0 0 29.98 27.61"><defs><style>.cls-1{fill:#0070a2;}.cls-2{fill:#f5a4c7;}.cls-3{fill:#fbcabb;}.cls-4,.cls-5{fill:#231f20;}.cls-5{fill-rule:evenodd;}</style></defs><title>2-24meses</title><path class="cls-1" d="M17.48,24.16a6.81,6.81,0,0,1-2.63-.62c-.82-.54-.81-1.19-1.66-1s-2.61.82-2.3,1.66,2.59,1.65,3.5,2,1.23.59,2,.35,1.11-2.31,1.11-2.31"/><path class="cls-2" d="M22.39,22.16a19,19,0,0,1,4-.88c1.1,0,3.21.64,3.15,1.52s.17,3.12-1.5,3.59-5-.76-5-.76Z"/><path class="cls-3" d="M24.25,23.06,23,23s.2-.29,1-.29,4.12-.42,4.12-.42l1.19.13a7.06,7.06,0,0,0-1-2.49c-.82-1.27-2.08-2.91-3.07-3.32s-1.59-.62-1.62-1,.08-1.43-.65-1.88a27.14,27.14,0,0,0-5.34-1.32c-.24.05-1.72,1.25-1.61,1.59a2.83,2.83,0,0,0,1.14,1.19c.39.16.76.53.67.74s-.25.51,0,.61a2.9,2.9,0,0,0,.39.13s.06.26.28.28a1.45,1.45,0,0,0,.4,0s-.27.21-.17.31a1.26,1.26,0,0,0,.48.16.2.2,0,0,0,.11.3,1.13,1.13,0,0,0,.83.1c.35-.11,1.62-.44,1.62-.44l.48-.15.09.31a2.75,2.75,0,0,0-.77.36A15.58,15.58,0,0,0,20,19.13a5.93,5.93,0,0,1-1.54,1.37c-.25.06-.65-.05-1.18,0a8.64,8.64,0,0,0-2.2.74,5.14,5.14,0,0,1-1.77.53,2.54,2.54,0,0,0-.71.24.82.82,0,0,0-.55,0,.55.55,0,0,0-.27.39s0,.48,0,.48a3.72,3.72,0,0,1,1.23-.36c.36,0,.94.17,1.1.4s.24.24.24.24l1,.53s.57-.23,1.15-.51,1.8-.59,2.3-.79,1.89-.94,2.26-1,.24,0,.24,0l.37,1.44s-2.3-.49-2.6-.24a18.39,18.39,0,0,1-3,1.6c-.28,0,.08.32-.32.62s-.85.58-.85.58.66.87,1,.91A23.16,23.16,0,0,0,19.53,26a4.51,4.51,0,0,0,1-.5s1.76.84,2.36,1a11.89,11.89,0,0,0,3.21,0,6.77,6.77,0,0,0,1.7-1.17s-.31-1.36-1.13-1.73a5,5,0,0,0-2.42-.53"/><polygon class="cls-4" points="16.46 15.09 16.44 15.01 16.45 15.02 16.46 15.09"/><path class="cls-4" d="M17.77,15.36s-.29-.31.2-.41a6.54,6.54,0,0,1,1.64.11,9.77,9.77,0,0,1-1.16,0c-.61,0-.68.34-.68.34"/><path class="cls-4" d="M18.3,15.54s-.17-.14.12-.2a3.67,3.67,0,0,1,.84,0l-.48,0s.28.15,0,.24-.43-.15-.43-.15-.11,0-.1.07"/><path class="cls-4" d="M18.66,16.46c-.21.06-.24,0-.13-.07s.13,0,.21,0,0-.16,0-.16c.15,0,.16.19-.06.25"/><path class="cls-4" d="M11.12,24h0a.64.64,0,0,1,0-.43.92.92,0,0,1,.34-.37,3.27,3.27,0,0,1,1.12-.41,1.83,1.83,0,0,1,.56,0,.84.84,0,0,1,.43.14.94.94,0,0,1,.29.27,1,1,0,0,0,.18.17,1.28,1.28,0,0,0,.21.14,4.5,4.5,0,0,0,.86.34l.69.16.43.07-.1,0-.23.08-.08,0a.47.47,0,0,0-.17,0,1.43,1.43,0,0,0-.71,0,.79.79,0,0,0-.47.39.36.36,0,0,0,0,.07.66.66,0,0,0-.12-.17.75.75,0,0,0-.33-.23h0a2.65,2.65,0,0,0,.5,0s0,0,0,0h0a1.5,1.5,0,0,0-.51-.35,3.18,3.18,0,0,0-.64-.19h-.06a.2.2,0,0,0-.24.08.1.1,0,0,0,.06.14l.07,0h0l.34.15h0a.67.67,0,0,1,.25.28.65.65,0,0,0,.28.26,1.14,1.14,0,0,0,.37.14,1.94,1.94,0,0,0,0,.24l0,.2a1.29,1.29,0,0,0,.05.21,1.16,1.16,0,0,0,.2.42,1.3,1.3,0,0,0,.4.37,2.65,2.65,0,0,0,.42.18h0a6,6,0,0,1-.83-.22c-.58-.21-1.22-.52-1.94-.84a5.68,5.68,0,0,1-1-.55,1.68,1.68,0,0,1-.62-.75m4.57.37h0s0,0,0,0a.11.11,0,0,1,0,.11,1.09,1.09,0,0,1-.05.17l0,.09s0,.06-.05.09a1,1,0,0,1-.13.16.57.57,0,0,1-.16.15.72.72,0,0,1-.34.16l0-.16,0-.2a.73.73,0,0,1,0-.33.41.41,0,0,1,.22-.23.91.91,0,0,1,.41,0h.11Zm1.17,1.83h-.54a1.75,1.75,0,0,1-.91-.26.93.93,0,0,1-.28-.28,1.08,1.08,0,0,1-.13-.29,1.38,1.38,0,0,0,.42-.13l.22-.15a1.49,1.49,0,0,0,.18-.17.71.71,0,0,0,.07-.09l.07-.09a.71.71,0,0,0,.11-.21.3.3,0,0,0,0-.27l0,0,.22,0a4.87,4.87,0,0,0,1.09-.41l.66-.32c.23-.11.46-.24.71-.35a2.69,2.69,0,0,1,.77-.26c.28,0,.63,0,1,0s.67,0,1,0a7,7,0,0,1,.95.12c.31,0,.6.1.89.13s.55.06.8.08c.55,0,1,0,1.29,0l.18,0a3.06,3.06,0,0,1,.92.37,2.34,2.34,0,0,1,.62.59,3.13,3.13,0,0,1,.37.7.54.54,0,0,1,0,.32.61.61,0,0,1-.15.3,3.64,3.64,0,0,1-1.69.85h0c-.08,0-.13.06-.14.12H25c-.23,0-.46,0-.69,0s-.46,0-.69-.07l-.34,0L23,26.32c-.22,0-.43-.1-.64-.15l-.3-.1-.3-.11c-.09,0-.2-.07-.29-.12l-.27-.14a2.28,2.28,0,0,1-.45-.33h0a.12.12,0,0,0-.15,0l0,0a.89.89,0,0,1-.31.3,2.53,2.53,0,0,1-.48.19,4.88,4.88,0,0,1-.55.12l-.56.08c-.38,0-.77.06-1.16.09Zm10.68,0h0l-.62.06a2.4,2.4,0,0,0,.85-.57.8.8,0,0,0,.22-.44.77.77,0,0,0-.06-.45,3,3,0,0,0-.44-.77,2.23,2.23,0,0,0-.34-.35,2.4,2.4,0,0,0-.44-.29,2.52,2.52,0,0,0-.54-.21,3.63,3.63,0,0,0-.57-.13c-.21,0-.41,0-.62,0s-.53-.09-.87-.14l-.8-.08h0l.38-.06.93-.07c.63,0,1.26-.07,1.88-.12s1.24-.11,1.84-.13a2.65,2.65,0,0,1,.83.06c.1,0,.11.08.12.21l0,.31a11.11,11.11,0,0,1,0,1.29,2.36,2.36,0,0,1-.34,1.24,1.4,1.4,0,0,1-.55.46A2.92,2.92,0,0,1,27.54,26.24ZM12.66,22.45h0l-.23.17a.69.69,0,0,1,.06-.13,1,1,0,0,1,.17-.2,1.82,1.82,0,0,1,.29-.22.67.67,0,0,1,.33-.12,3,3,0,0,0,.65,0,2.36,2.36,0,0,0,.68-.22,2.55,2.55,0,0,0,.51-.36,2.5,2.5,0,0,1,1.15-.44l.23,0-.26.1a2.34,2.34,0,0,0-.67.43,2.51,2.51,0,0,1-1.07.72l-.26,0H13.9a2.66,2.66,0,0,0-.69.08,1.66,1.66,0,0,0-.31.12A2.49,2.49,0,0,0,12.66,22.45Zm4.82-1.78h0l-.16,0,.08,0,.29-.08ZM10.86,24a1.51,1.51,0,0,0,.56.91,4.59,4.59,0,0,0,1,.65,11.53,11.53,0,0,0,2.05.82,4.89,4.89,0,0,0,.95.17,3.48,3.48,0,0,0,.76,0l.18-.05a4.87,4.87,0,0,0,.54,0l.58-.08,1.14-.18A10.11,10.11,0,0,0,19.75,26a2.26,2.26,0,0,0,.84-.4,2.56,2.56,0,0,0,.34.31,3.15,3.15,0,0,0,.57.33,4.18,4.18,0,0,0,.65.25l.35.08.35.07a5.87,5.87,0,0,0,.72.08c.24,0,.49,0,.73,0l.72,0,.48-.06h0a.27.27,0,0,0,.22.1c.35,0,.65-.06,1-.09s.62-.08.94-.14a2.66,2.66,0,0,0,.9-.3,1.54,1.54,0,0,0,.58-.55,2,2,0,0,0,.22-.64c0-.22.05-.44.06-.65l.1-1.29,0-.33a.45.45,0,0,0,0-.19.37.37,0,0,0-.19-.18,2.74,2.74,0,0,0-1-.15,14.81,14.81,0,0,0-1.9.11c-.62.06-1.24.15-1.85.25l-.92.16a3.73,3.73,0,0,0-.46.09l-.06,0-.69,0c-.32,0-.64,0-1,0l-1-.12a6.63,6.63,0,0,0-1-.07,3.19,3.19,0,0,0-1,.25,5.24,5.24,0,0,0-.75.37c-.23.13-.43.25-.61.37l-.5.3-.22.12-.45-.15-.29-.1,1.13-.42.61-.21.33-.08.2,0,.21-.06a6,6,0,0,0,1.44-.69c.22-.14.43-.28.66-.4a3.36,3.36,0,0,1,.71-.3l.26-.06,0,0A.68.68,0,0,0,21,22a.65.65,0,0,0,.11.29.7.7,0,0,0,.2.22.85.85,0,0,0,.21.11l.09,0a.24.24,0,0,1,0-.07l0-.17a4.47,4.47,0,0,1-.09-.45c0-.08,0-.16,0-.24s0-.16,0-.22,0-.08,0-.12l.25,0,.67-.12,1-.19L23.7,21s0,0,0,0l0,0a8.46,8.46,0,0,0-1.49.05,6.86,6.86,0,0,0-.7.12,4.35,4.35,0,0,0-.74.26c-.24.12-.43.26-.66.37a6,6,0,0,1-.73.33l-.76.29c-.25.09-.49.18-.73.24l-.17,0-.18,0a2.6,2.6,0,0,0-.4.1,6.61,6.61,0,0,0-.63.27,7,7,0,0,0-.81.49l-.19.14-.23-.09a3.75,3.75,0,0,1-.73-.35.91.91,0,0,1-.16-.11.42.42,0,0,1-.12-.14,1.4,1.4,0,0,0-.4-.34,1.27,1.27,0,0,0-.68-.16,1.63,1.63,0,0,0-.45.06l0,0,.25-.12a1.38,1.38,0,0,1,.27-.08,2.25,2.25,0,0,1,.58,0,1.53,1.53,0,0,1,.3,0l.28.05a.17.17,0,0,0,.1,0h0a2,2,0,0,0,.83-.33c.21-.16.38-.32.55-.46a2.53,2.53,0,0,1,.55-.37,3.24,3.24,0,0,1,.33-.13l.16,0,.21,0a4.15,4.15,0,0,0,.43-.09,3,3,0,0,0,.4-.16,3.53,3.53,0,0,0,.66-.41,13.3,13.3,0,0,0,1-.95,11.68,11.68,0,0,1,1.06-.9c.19-.14.38-.28.58-.41l.31-.19.08-.05.07,0,.16-.08a3,3,0,0,1,.7-.22,3.26,3.26,0,0,1,.77-.05,5.73,5.73,0,0,1,1.59.3h0s0,0,0,0a3.74,3.74,0,0,0-.73-.32,4.3,4.3,0,0,0-.84-.18,4,4,0,0,0-.91,0l-.06,0a.76.76,0,0,0-.08-.11.48.48,0,0,0-.19-.11h-.16l-.08,0h0l-.29.11-.29.1a9.47,9.47,0,0,1-1.22.31,2.54,2.54,0,0,1-.61,0,.27.27,0,0,1-.2-.08c-.06-.05,0-.12-.13-.22A.33.33,0,0,0,19,17.3l-.1,0a.14.14,0,0,1-.08-.14s0,0,0,0h0l0,0a.52.52,0,0,0,.32-.31s0-.06-.06-.07a.1.1,0,0,0-.09,0h0a.57.57,0,0,1-.37.15c-.14,0-.31,0-.33-.1a1.16,1.16,0,0,1,0-.17s-.06-.07-.08-.08h-.07l-.13,0c-.16,0-.33-.05-.34-.14s0-.21.1-.32a.31.31,0,0,0,0-.38,5.13,5.13,0,0,0-.69-.54,2,2,0,0,1-.61-.53,1.48,1.48,0,0,1-.22-.66s0,0,0-.05l1.28.87-.64-1,.77.52-.67-.76,1.27.71.7.45-.72-.91,1.05.74L19,13.79l1.16.64.73.34-.37-.44.8.41-.4-.49c-.27-.41-.15-.25-.15-.25a1.51,1.51,0,0,0,.54.47,1,1,0,0,1,.07.8l.22-.34v0h0l.08.35c.26-.41.29-.53.69-.63h0l0,0a.55.55,0,0,1,.13.18.77.77,0,0,1-.12.81.75.75,0,0,1-.3.18l-.16,0v0l.17,0a.93.93,0,0,0,.4-.16.66.66,0,0,0,.19-.18.61.61,0,0,0,.13-.22.87.87,0,0,0,.05-.53.55.55,0,0,0-.09-.23.67.67,0,0,1,.48.4l.15.47a.7.7,0,0,0,.14.42,1.16,1.16,0,0,0,.4.32l.25.11.24.08a4.64,4.64,0,0,1,1.48.86,9.82,9.82,0,0,1,1.19,1.12,8.21,8.21,0,0,1,.91,1.24,12.66,12.66,0,0,1,1.25,2.67h0a0,0,0,0,0,0,0,12.23,12.23,0,0,0-1.08-2.72,8.51,8.51,0,0,0-.86-1.29,10.72,10.72,0,0,0-1.16-1.18,4.84,4.84,0,0,0-1.59-1l-.22-.07L24.32,16a.84.84,0,0,1-.26-.22.5.5,0,0,1-.09-.23c.18-.69,1.92-1,1-2.73s-3.73-2.22-4.87-2.06a6,6,0,0,0-3.27,1.38l-.08,0a2.28,2.28,0,0,0-.22.22l-.08.09a1.87,1.87,0,0,0,0,2.52l-.14-.61a1.55,1.55,0,0,0,.12.22,2.29,2.29,0,0,0,.66.57,4.49,4.49,0,0,1,.67.5c.08.09.05.19,0,.3a.73.73,0,0,0-.11.36c0,.08.11.15.19.17l.26.06.12,0h.05a.3.3,0,0,0,0,.17c0,.08.11.14.21.17a1.29,1.29,0,0,0,.29,0l.11,0h-.09a.17.17,0,0,0-.08.09c0,.11,0,.19.13.26s.33.07.29.08,0,.12.11.2a.47.47,0,0,0,.33.15,2.08,2.08,0,0,0,.35,0l.34,0a10.22,10.22,0,0,0,1.27-.29l.31-.1.29-.1h0l.05,0s0,0,0,.06a2.45,2.45,0,0,0-.5.17l-.18.1-.1.05-.07,0a3.15,3.15,0,0,0-.29.22c-.19.16-.36.32-.52.48-.32.32-.63.65-1,.95a7.63,7.63,0,0,1-1.13.86l-.17.1a7.18,7.18,0,0,0-1,.09l-.54.12c-.19.05-.38.13-.57.2s-.39.16-.59.24-.43.14-.63.24a3.57,3.57,0,0,1-1.11.38h-.6a1,1,0,0,0-.61.27.85.85,0,0,0-.32.59.4.4,0,0,0,0,.17l0,0a5.19,5.19,0,0,0-.59.24l.07-.12a1.08,1.08,0,0,0,.08-.19.93.93,0,0,0,0-.1l0-.09a.88.88,0,0,1,.24-.28l.22-.14a.7.7,0,0,0-.33,0,.71.71,0,0,0-.33.09.6.6,0,0,0-.25.25.45.45,0,0,0,0,.27.52.52,0,0,0,.07.21.58.58,0,0,0,.11.15h0l-.31.16A1,1,0,0,0,10.86,24Z"/><path class="cls-4" d="M14.39,23.11h.92a1.79,1.79,0,0,1-.92,0"/><path class="cls-4" d="M2.43,3.5a1.41,1.41,0,0,1-.49.07A1.07,1.07,0,0,1,.78,2.39,1.15,1.15,0,0,1,2,1.16a1.22,1.22,0,0,1,.43.06l-.08.23A1,1,0,0,0,2,1.4c-.37,0-.8.24-.8,1s.39,1,.81,1a1.07,1.07,0,0,0,.36-.06Z"/><path class="cls-4" d="M3,2.7H3c0,.28.07.66.43.66s.4-.4.4-.66S3.72,2,3.37,2,3,2.44,3,2.7m1.23,0a.79.79,0,0,1-.82.87.77.77,0,0,1-.81-.87.8.8,0,0,1,.83-.88A.78.78,0,0,1,4.18,2.7Z"/><path class="cls-4" d="M4.57,2.29c0-.2,0-.31,0-.44h.34l0,.21h0a.69.69,0,0,1,.56-.24A.54.54,0,0,1,6,2.08H6a.58.58,0,0,1,.25-.19.71.71,0,0,1,.34-.07.54.54,0,0,1,.59.6V3.54H6.8V2.48c0-.22,0-.43-.35-.43a.38.38,0,0,0-.36.25.71.71,0,0,0,0,.15V3.54H5.69V2.43c0-.19-.05-.38-.35-.38A.37.37,0,0,0,5,2.32a.76.76,0,0,0,0,.15V3.54H4.57Z"/><path class="cls-4" d="M8.08,2.92h0a.32.32,0,0,0,0,.14.37.37,0,0,0,.36.29c.33,0,.43-.31.43-.65s-.12-.65-.44-.65a.39.39,0,0,0-.36.31.53.53,0,0,0,0,.13Zm-.39-.54c0-.26,0-.41,0-.53H8l0,.21h0a.61.61,0,0,1,.52-.24c.43,0,.72.31.72.87a.77.77,0,0,1-.77.88.51.51,0,0,1-.43-.19h0v.84H7.69Z"/><path class="cls-4" d="M9.68,2.29c0-.15,0-.32,0-.44H10l0,.26h0a.59.59,0,0,1,.52-.29h.08V2.1h-.08a.45.45,0,0,0-.47.35.77.77,0,0,0,0,.15v.94H9.68Z"/><path class="cls-4" d="M11.88,2.52h0c0-.34-.18-.49-.37-.49s-.38.26-.4.49Zm-.78.2c0,.52.31.63.59.63a1.08,1.08,0,0,0,.41-.07l.06.21a1.66,1.66,0,0,1-.54.08.81.81,0,0,1-.9-.86.81.81,0,0,1,.84-.89.67.67,0,0,1,.7.75v.15Z"/><path class="cls-4" d="M12.63,2.29c0-.2,0-.31,0-.44H13l0,.2h0a.71.71,0,0,1,.57-.23.54.54,0,0,1,.6.58V3.54h-.4V2.45c0-.2,0-.4-.34-.4a.36.36,0,0,0-.37.27.39.39,0,0,0,0,.15V3.54h-.4Z"/><path class="cls-4" d="M15.76,2.49h0a.45.45,0,0,0,0-.11.38.38,0,0,0-.37-.33c-.32,0-.44.31-.44.65s.14.65.42.65a.39.39,0,0,0,.38-.29.36.36,0,0,0,0-.11Zm.39-1.37v2c0,.11,0,.31,0,.4h-.34l0-.21h0a.62.62,0,0,1-.52.24c-.42,0-.72-.31-.72-.87s.36-.88.75-.88a.53.53,0,0,1,.45.2h0v-.9Z"/><path class="cls-4" d="M17.7,2.52h0c0-.34-.18-.49-.37-.49s-.39.26-.4.49Zm-.78.2c0,.52.31.63.59.63a1.12,1.12,0,0,0,.41-.07l.06.21a1.75,1.75,0,0,1-.54.08.81.81,0,0,1-.9-.86.81.81,0,0,1,.83-.89.68.68,0,0,1,.71.75v.15Z"/><path class="cls-4" d="M19.69,1.4v.45h.47v.2h-.47v1c0,.22.11.28.26.28h.16v.21a1.07,1.07,0,0,1-.29,0,.62.62,0,0,1-.39-.11c-.1-.07-.15-.19-.15-.42v-1H19v-.2h.3V1.47Z"/><path class="cls-4" d="M20.45,2.29c0-.15,0-.32,0-.44h.36l0,.26h0a.59.59,0,0,1,.52-.29h.08V2.1h-.08a.46.46,0,0,0-.48.35.76.76,0,0,0,0,.15v.94h-.4Z"/><path class="cls-4" d="M22.66,2.52h0c0-.34-.18-.49-.37-.49s-.39.26-.4.49Zm-.78.2c0,.52.3.63.59.63a1.12,1.12,0,0,0,.41-.07l.06.21a1.75,1.75,0,0,1-.54.08.8.8,0,0,1-.9-.86.81.81,0,0,1,.83-.89.68.68,0,0,1,.71.75.66.66,0,0,1,0,.15Z"/><path class="cls-4" d="M23.35,3.26a1,1,0,0,0,.39.09c.23,0,.37-.09.37-.24s-.07-.22-.32-.34-.5-.29-.5-.48.3-.47.68-.47a1,1,0,0,1,.45.09l-.11.2A.81.81,0,0,0,24,2c-.21,0-.32.1-.32.21s.06.18.31.29.51.29.51.52-.34.51-.74.51a1.12,1.12,0,0,1-.49-.1Z"/><path class="cls-4" d="M1,6.7V5.21H.67V5H1V4.9a.6.6,0,0,1,.22-.51.83.83,0,0,1,.5-.14.8.8,0,0,1,.3,0l-.06.21a.61.61,0,0,0-.22,0c-.28,0-.35.21-.35.43V5h.45v.21H1.37V6.7Z"/><path class="cls-4" d="M2,5.44C2,5.3,2,5.13,2,5h.35l0,.27h0A.59.59,0,0,1,2.89,5H3v.28H2.89a.46.46,0,0,0-.47.36.68.68,0,0,0,0,.15V6.7H2Z"/><path class="cls-4" d="M4.12,5.82h0c-.2,0-.68,0-.68.4a.28.28,0,0,0,.3.3.36.36,0,0,0,.37-.26.28.28,0,0,0,0-.09Zm.06.88,0-.18h0a.64.64,0,0,1-.49.21c-.34,0-.59-.19-.59-.48s.49-.62,1.05-.62v0c0-.23-.08-.39-.39-.39a1,1,0,0,0-.41.09l-.09-.19A1.31,1.31,0,0,1,3.8,5c.5,0,.71.22.71.6v.74a1.54,1.54,0,0,0,0,.38Z"/><path class="cls-4" d="M4.94,6.42a1,1,0,0,0,.4.09c.23,0,.37-.1.37-.25s-.07-.21-.32-.33-.5-.29-.5-.48S5.19,5,5.57,5A1.21,1.21,0,0,1,6,5.06l-.11.21a.8.8,0,0,0-.33-.08c-.21,0-.32.11-.32.22s.06.18.31.29.51.28.51.52-.34.5-.74.5a1.09,1.09,0,0,1-.49-.1Z"/><path class="cls-4" d="M7.49,5.68h0c0-.34-.18-.49-.37-.49s-.38.26-.4.49Zm-.78.2c0,.52.31.63.59.63a1.08,1.08,0,0,0,.41-.07l.06.2a1.66,1.66,0,0,1-.54.08.8.8,0,0,1-.9-.85A.81.81,0,0,1,7.16,5a.68.68,0,0,1,.71.75v.15Z"/><path class="cls-4" d="M8.18,6.42a1,1,0,0,0,.4.09c.22,0,.36-.1.36-.25s-.07-.21-.32-.33-.49-.29-.49-.48S8.42,5,8.81,5a1.19,1.19,0,0,1,.44.08l-.1.21a.84.84,0,0,0-.33-.08c-.22,0-.32.11-.32.22s.06.18.3.29.51.28.51.52-.33.5-.74.5a1.15,1.15,0,0,1-.49-.1Z"/><path class="cls-4" d="M9.65,6.53h0c0-.11.11-.2.26-.2s.25.08.25.2-.09.2-.25.2-.26-.08-.26-.2m0-1.28c0-.12.11-.2.26-.2s.25.08.25.2-.09.19-.25.19S9.65,5.36,9.65,5.25Z"/><path class="cls-4" d="M10.44,5.14h0a3.39,3.39,0,0,1,.47-.81l.23,0a3.31,3.31,0,0,0-.3.8Zm.68,0a3.77,3.77,0,0,1,.46-.81l.24,0a3.31,3.31,0,0,0-.3.8Z"/><path class="cls-4" d="M11.89,6.42a1,1,0,0,0,.4.09c.22,0,.36-.1.36-.25s-.07-.21-.32-.33-.49-.29-.49-.48.29-.47.68-.47a1.19,1.19,0,0,1,.44.08l-.1.21a.84.84,0,0,0-.33-.08c-.22,0-.33.11-.33.22s.07.18.31.29S13,6,13,6.22s-.33.5-.74.5a1.15,1.15,0,0,1-.49-.1Z"/><path class="cls-4" d="M13.38,6.7h0V5h.4V6.7Zm.43-2.14c0,.11-.1.18-.24.18s-.23-.07-.23-.18.1-.17.23-.17S13.81,4.46,13.81,4.56Z"/><path class="cls-4" d="M15.33,5.68h0c0-.34-.18-.49-.37-.49s-.39.26-.41.49Zm-.78.2c0,.52.3.63.59.63a1.12,1.12,0,0,0,.41-.07l.06.2a1.75,1.75,0,0,1-.54.08.8.8,0,0,1-.91-.85A.81.81,0,0,1,15,5a.68.68,0,0,1,.71.75.66.66,0,0,1,0,.15Z"/><path class="cls-4" d="M16.08,5.44c0-.2,0-.3,0-.44h.34l0,.21h0A.71.71,0,0,1,17,5a.54.54,0,0,1,.6.58V6.7h-.4V5.61c0-.2-.05-.41-.34-.41a.38.38,0,0,0-.37.28.68.68,0,0,0,0,.15V6.7h-.39Z"/><path class="cls-4" d="M18.55,4.55V5H19v.21h-.48v1c0,.22.12.28.26.28H19v.2a1.07,1.07,0,0,1-.29,0,.69.69,0,0,1-.39-.1.51.51,0,0,1-.14-.43v-1h-.31V5h.31V4.63Z"/><path class="cls-4" d="M20.24,5.82h0c-.2,0-.68,0-.68.4a.29.29,0,0,0,.3.3.35.35,0,0,0,.37-.26.28.28,0,0,0,0-.09Zm.06.88,0-.18h0a.62.62,0,0,1-.49.21c-.34,0-.59-.19-.59-.48s.49-.62,1.05-.62v0c0-.23-.08-.39-.39-.39a1.07,1.07,0,0,0-.41.09l-.09-.19A1.31,1.31,0,0,1,19.92,5c.5,0,.71.22.71.6v.74a1.54,1.54,0,0,0,0,.38Z"/><path class="cls-4" d="M21.57,4.55V5h.48v.21h-.48v1c0,.22.12.28.26.28H22v.2a1.07,1.07,0,0,1-.29,0,.69.69,0,0,1-.39-.1.51.51,0,0,1-.15-.43v-1h-.3V5h.3V4.63Z"/><path class="cls-4" d="M23.35,5.68h0c0-.34-.17-.49-.36-.49s-.39.26-.41.49Zm-.77.2c0,.52.3.63.59.63a1.06,1.06,0,0,0,.4-.07l.07.2a1.77,1.77,0,0,1-.55.08.8.8,0,0,1-.9-.85A.81.81,0,0,1,23,5a.67.67,0,0,1,.7.75v.15Z"/><path class="cls-4" d="M23.87,7.14a4.08,4.08,0,0,0,.29-.81l.45,0a3.71,3.71,0,0,1-.47.83Z"/><path class="cls-4" d="M2,8.8H2a.45.45,0,0,0,0-.12.38.38,0,0,0-.36-.32c-.32,0-.45.3-.45.66s.14.64.44.64A.37.37,0,0,0,2,9.38a.36.36,0,0,0,0-.15Zm0,.88H2a.56.56,0,0,1-.47.21c-.4,0-.72-.3-.72-.86a.8.8,0,0,1,.78-.9A.52.52,0,0,1,2,8.36H2l0-.2h.35c0,.12,0,.27,0,.53v1.84H2Z"/><path class="cls-4" d="M4.37,9.4c0,.19,0,.33,0,.46H4.05l0-.18H4a.73.73,0,0,1-.53.21c-.43,0-.6-.23-.6-.66V8.16h.39v1c0,.26.06.46.33.46A.36.36,0,0,0,4,9.43a.61.61,0,0,0,0-.15V8.16h.39Z"/><path class="cls-4" d="M4.87,9.86h0V8.16h.4v1.7ZM5.3,7.72c0,.11-.09.18-.24.18s-.23-.07-.23-.18.1-.17.23-.17S5.3,7.62,5.3,7.72Z"/><path class="cls-4" d="M6.24,7.71v.45h.48v.21H6.24v1c0,.23.12.29.27.29h.15l0,.2a1.07,1.07,0,0,1-.29,0A.67.67,0,0,1,6,9.78c-.1-.08-.15-.19-.15-.43v-1h-.3V8.16h.3V7.79Z"/><path class="cls-4" d="M7.94,9h0c-.21,0-.68,0-.68.39a.28.28,0,0,0,.3.31.37.37,0,0,0,.37-.26.31.31,0,0,0,0-.09Zm0,.88,0-.18H8a.61.61,0,0,1-.49.21.53.53,0,0,1-.59-.49c0-.42.5-.61,1.06-.61V8.73c0-.23-.08-.38-.4-.38a1.07,1.07,0,0,0-.41.08L7,8.24a1.48,1.48,0,0,1,.58-.11c.49,0,.71.23.71.61v.73a2.42,2.42,0,0,0,0,.39Z"/><path class="cls-4" d="M9.26,7.71v.45h.48v.21H9.26v1c0,.23.12.29.26.29h.16l0,.2a1.12,1.12,0,0,1-.29,0A.64.64,0,0,1,9,9.78c-.1-.08-.15-.19-.15-.43v-1h-.3V8.16h.3V7.79Z"/><path class="cls-4" d="M11.05,8.83h0c0-.34-.18-.49-.37-.49s-.39.26-.4.49Zm-.78.2c0,.52.3.64.59.64a1.12,1.12,0,0,0,.41-.07l.06.2a1.75,1.75,0,0,1-.54.08A.79.79,0,0,1,9.89,9a.81.81,0,0,1,.83-.9.68.68,0,0,1,.71.75.62.62,0,0,1,0,.15Z"/><rect class="cls-4" x="12.55" y="7.43" width="0.39" height="2.43"/><path class="cls-4" d="M13.77,9h0c0,.28.07.66.43.66s.4-.4.4-.66-.07-.66-.42-.66-.41.4-.41.66M15,9a.8.8,0,0,1-.83.88.78.78,0,0,1-.8-.88.8.8,0,0,1,.83-.88A.78.78,0,0,1,15,9Z"/><path class="cls-4" d="M15.32,9.58a1,1,0,0,0,.4.09c.23,0,.36-.1.36-.25s-.06-.22-.31-.33-.5-.29-.5-.49.3-.47.68-.47a1.22,1.22,0,0,1,.45.09l-.11.2A.81.81,0,0,0,16,8.35c-.21,0-.32.11-.32.21s.06.18.31.3.51.28.51.51-.34.51-.75.51a1.15,1.15,0,0,1-.49-.1Z"/><path class="cls-4" d="M.7,12.85l.79-1c.06-.09.14-.17.2-.25H.8v-.22H2.12v.18l-.77,1c-.07.09-.15.18-.2.26h1V13H.7Z"/><path class="cls-4" d="M3.37,12.14h0c-.21,0-.68,0-.68.39a.28.28,0,0,0,.3.3.36.36,0,0,0,.37-.25.34.34,0,0,0,0-.1Zm.06.88,0-.18h0a.6.6,0,0,1-.49.2c-.33,0-.59-.19-.59-.48s.5-.61,1.06-.62v0c0-.23-.08-.39-.4-.39a1.07,1.07,0,0,0-.41.09l-.08-.19a1.48,1.48,0,0,1,.58-.11c.49,0,.71.22.71.61v.73a2.42,2.42,0,0,0,0,.39Z"/><path class="cls-4" d="M4.65,12.39h0a.61.61,0,0,0,0,.14.38.38,0,0,0,.37.29c.32,0,.43-.31.43-.65s-.13-.65-.44-.65a.39.39,0,0,0-.36.31.53.53,0,0,0,0,.13Zm-.4-.54c0-.26,0-.41,0-.53h.36l0,.22h0a.6.6,0,0,1,.52-.25c.43,0,.72.32.72.87a.77.77,0,0,1-.77.88.51.51,0,0,1-.43-.19h0v.84h-.4Z"/><path class="cls-4" d="M7.17,12.14h0c-.2,0-.68,0-.68.39a.28.28,0,0,0,.3.3.35.35,0,0,0,.37-.25.34.34,0,0,0,0-.1Zm.06.88,0-.18h0a.64.64,0,0,1-.5.2.52.52,0,0,1-.58-.48c0-.42.49-.61,1-.62v0c0-.23-.08-.39-.39-.39a1,1,0,0,0-.41.09l-.09-.19a1.48,1.48,0,0,1,.58-.11c.49,0,.71.22.71.61v.73a1.63,1.63,0,0,0,0,.39Z"/><path class="cls-4" d="M8.5,10.87v.45H9v.2H8.5v1c0,.22.11.28.26.28h.16V13a1.07,1.07,0,0,1-.29,0,.69.69,0,0,1-.39-.1.49.49,0,0,1-.15-.43v-1H7.8v-.2h.3V11Z"/><path class="cls-4" d="M9.51,12.17h0c0,.28.08.66.43.66s.41-.4.41-.66-.07-.66-.42-.66-.42.4-.42.66m1.24,0a.79.79,0,0,1-.83.87.77.77,0,0,1-.8-.87.8.8,0,0,1,.83-.88A.78.78,0,0,1,10.75,12.17Z"/><path class="cls-4" d="M11.07,12.74a1.28,1.28,0,0,0,.4.08c.22,0,.36-.09.36-.24s-.06-.22-.32-.34S11,12,11,11.76s.3-.47.68-.47a1.27,1.27,0,0,1,.45.09l-.11.2a.81.81,0,0,0-.33-.07c-.22,0-.32.1-.32.21s.06.18.3.3.52.28.52.51-.34.51-.75.51a1.15,1.15,0,0,1-.49-.1Z"/><path class="cls-4" d="M12.31,13.46a4.18,4.18,0,0,0,.29-.82l.45,0a3.28,3.28,0,0,1-.47.82Z"/><path class="cls-4" d="M2,15.12H2A.41.41,0,0,0,2,15a.38.38,0,0,0-.37-.33c-.32,0-.44.31-.44.65s.14.65.42.65A.39.39,0,0,0,2,15.69a.5.5,0,0,0,0-.12Zm.39-1.38v2c0,.11,0,.31,0,.4H2.07L2,16H2a.62.62,0,0,1-.52.24c-.42,0-.72-.31-.72-.87s.36-.88.75-.88a.53.53,0,0,1,.45.2H2v-.91Z"/><path class="cls-4" d="M3.81,15.3h0c-.21,0-.68,0-.68.39a.28.28,0,0,0,.3.3.37.37,0,0,0,.37-.26.28.28,0,0,0,0-.09Zm.06.87h0l0-.18h0a.61.61,0,0,1-.49.21c-.33,0-.59-.19-.59-.48s.5-.62,1.06-.62v0c0-.23-.08-.39-.4-.39a1.07,1.07,0,0,0-.41.09l-.08-.19a1.48,1.48,0,0,1,.58-.11c.49,0,.71.22.71.6v.74a2.3,2.3,0,0,0,0,.38Zm.26-2.39-.54.47H3.33l.4-.47Z"/><path class="cls-4" d="M4.7,14.91c0-.2,0-.3,0-.43H5l0,.21h0a.69.69,0,0,1,.56-.24.53.53,0,0,1,.52.26h0a.66.66,0,0,1,.24-.2,1,1,0,0,1,.35-.06.54.54,0,0,1,.59.6v1.12H6.93V15.11c0-.22,0-.44-.35-.44a.38.38,0,0,0-.36.26.68.68,0,0,0,0,.15v1.09H5.82V15.06c0-.19-.06-.39-.35-.39A.38.38,0,0,0,5.1,15a.66.66,0,0,0,0,.15v1.07H4.7Z"/><path class="cls-4" d="M8.88,15.15h0c0-.34-.18-.49-.37-.49s-.39.26-.41.49Zm-.78.2c0,.52.3.63.59.63a1.06,1.06,0,0,0,.4-.07l.07.2a1.52,1.52,0,0,1-.55.08.8.8,0,0,1-.9-.85.81.81,0,0,1,.84-.89.67.67,0,0,1,.7.75v.15Z"/><rect class="cls-4" x="9.63" y="13.74" width="0.39" height="2.43"/><path class="cls-4" d="M10.84,15.32h0c0,.29.07.67.43.67s.4-.4.4-.67-.06-.66-.41-.66-.42.41-.42.66m1.23,0a.79.79,0,0,1-.82.88.77.77,0,0,1-.8-.87.79.79,0,0,1,.82-.88A.78.78,0,0,1,12.07,15.32Z"/><path class="cls-4" d="M12.4,15.89a1,1,0,0,0,.39.09c.23,0,.37-.09.37-.25s-.07-.21-.32-.33-.5-.29-.5-.48.3-.47.68-.47a1.21,1.21,0,0,1,.45.08l-.11.21a.8.8,0,0,0-.33-.08c-.21,0-.32.11-.32.22s.06.18.31.29.51.28.51.52-.34.5-.74.5a1.1,1.1,0,0,1-.49-.09Z"/><path class="cls-4" d="M14.37,13.78h0a4.23,4.23,0,0,1-.47.81l-.23,0a4,4,0,0,0,.29-.8Zm.67,0a3.77,3.77,0,0,1-.46.81l-.24,0a3.48,3.48,0,0,0,.3-.8Z"/><path class="cls-5" d="M22.51,14.11s.68,1.55.08,2.1a24.94,24.94,0,0,0-1.7,1.91s1.84-.7,2.14-.79,2.56-2.37,2.21-3.65-2.52-.48-2.73.43"/></svg>