<svg id="Capa_1" data-name="Capa 1" xmlns="http://www.w3.org/2000/svg" viewBox="0 0 32.58 27.05"><defs><style>.cls-1{fill:#fcb560;}.cls-2{fill:#f5a4c7;}.cls-3{fill:#fbc8ba;}.cls-4,.cls-5{fill:#231f20;}.cls-5{fill-rule:evenodd;}</style></defs><title>3-24meses</title><polygon class="cls-1" points="0.43 24.56 8.25 24.56 8.25 10.42 16.21 10.42 16.21 24.84 19.82 24.84 19.82 8.12 3.06 8.12 0.35 8.12 0.43 24.56"/><path class="cls-2" d="M13.18,19.68a1,1,0,0,0-.16.75.91.91,0,0,0,.56.48s.94,1.15,1.54,1.32.46.11.46.11.57-1.45,1.32-1.41,1.16,0,1.24-.18-.39-.71-.39-.71a3.54,3.54,0,0,1-1.38.52c-.81.12-2.55.35-3.19-.88"/><path class="cls-3" d="M.43,19.3l1.86-.67s1.27.73,1.61.54a2.29,2.29,0,0,0,.59-.54s.64,0,.66-.26a1,1,0,0,0,0-.31s.72.28.89,0a1.77,1.77,0,0,1,.34-.42s.84-.08.71-.32a1.47,1.47,0,0,1-.34-1.07c.07-.55,1.66-1.68,1.49-2.24s-.88-1.8-1.86-1.72S.59,15.23.43,15.75a24.46,24.46,0,0,0,0,3.55"/><path class="cls-3" d="M13.06,19.07S13,20.28,14.58,20.6a6.53,6.53,0,0,0,3-.39c.12.11.19-.48.32-.61s1.54-.59,1.44-1.09a6.08,6.08,0,0,0-1.12-1.78,4.39,4.39,0,0,0-1.3-.58s1.91-.47,2.13-1.57-2-2-2.13-2a11.86,11.86,0,0,0-1.65.16c-.25.1-1,.11-1.22.37s.31,1.15,0,1.76-.09.8,0,.85a2.23,2.23,0,0,1,.26.2,5.52,5.52,0,0,1-1.06.3,11.2,11.2,0,0,1-2.39-.61c-.53-.21-.54-.29-.6-.05s.32.42.19.55-.43.42-.19.5.75.15.88.28a1.84,1.84,0,0,0,1.28.4,2.65,2.65,0,0,1,1,.11l.34.19a3.75,3.75,0,0,0-.64,1.45"/><path class="cls-3" d="M13,20.56a5.13,5.13,0,0,0-.61,1.59c-.05.6-.12,1,.19,1.36s.77,1,.42,1.48-.7.74-.5,1a1.24,1.24,0,0,0,1.17.34c.38-.15,1.42-.85,1.43-1s-.43-.42-.54-.7.18-.77.08-1-.29-.45-.27-.49.86-.73.74-.83S13.68,20.57,13,20.56"/><path class="cls-3" d="M16.89,20.83a3,3,0,0,0-1.43,1.86c-.19,1.16.58,3,.55,3.31s-.3.94,0,1,.61-.31.54-.18.16.16.29.07,0-.05.28-.05a2.12,2.12,0,0,0,.64-.13,2.51,2.51,0,0,1-.24-1.32c.13-.54-.27-1.11-.27-1.47a2.42,2.42,0,0,1,.35-.95,6.33,6.33,0,0,0,.58-1.65c0-.38-.26-.62-1.25-.48"/><path class="cls-4" d="M16.29,14.34c-.54,0-.5.14-.5.14l.12-.06c.35-.14,1.39.4,1.39.4a1.93,1.93,0,0,0-1-.48"/><path class="cls-4" d="M16,14.69h.12a.3.3,0,0,1,0,.1c0,.06.15.14.32.1s.09-.13.09-.13l.41.06a6.33,6.33,0,0,0-.69-.2c-.23,0-.22.07-.22.07"/><path class="cls-4" d="M14.87,14.63s0-.05-.16-.1-.45-.08-.41.05a.54.54,0,0,1,.19,0c.06,0-.05,0,0,.09a.18.18,0,0,0,.24.11c.14,0-.05-.16.16-.11"/><path class="cls-4" d="M14.87,15.48c.12,0,.09.13.2.23a1.25,1.25,0,0,0,.8,0,.8.8,0,0,0,.5-.22s-.31,0-.69.05a2.86,2.86,0,0,1-.81-.11"/><path class="cls-4" d="M15.68,15.91c-.33.08.24.16.38.08s-.06-.15-.38-.08"/><path class="cls-4" d="M17.5,15.4h0"/><path class="cls-4" d="M18,20.47h0a.45.45,0,0,1,0,.23h0a1.28,1.28,0,0,0-.27-.05,1.62,1.62,0,0,0-.58,0,1.44,1.44,0,0,0-.82.47,1.58,1.58,0,0,0-.12.15l-.12.15-.22.3c-.07.11-.14.21-.2.32a.8.8,0,0,0-.08.16l0,.07-.07,0-.16-.08A3.15,3.15,0,0,1,15,22a3.4,3.4,0,0,1-.49-.52c-.07-.09-.15-.2-.23-.29L14,20.86a2.29,2.29,0,0,0-.38-.26,1,1,0,0,0-.27-.1l-.16,0s0-.05,0-.08a1.64,1.64,0,0,1,0-.22,1.72,1.72,0,0,1,0-.39l.16.21a2.21,2.21,0,0,0,.59.48,2.41,2.41,0,0,0,.83.3,3.47,3.47,0,0,0,.45.06h.45a3.37,3.37,0,0,0,.44,0l.37-.05a5.4,5.4,0,0,0,.72-.18,1.65,1.65,0,0,0,.53-.27.56.56,0,0,0,.15-.16.77.77,0,0,1,.14.31m0,1h0a1.83,1.83,0,0,1-.09.39c-.05.14-.12.25-.17.38s-.29.51-.44.76-.16.26-.23.4a1.43,1.43,0,0,0-.08.22.68.68,0,0,0,0,.15.33.33,0,0,0,0,.1L17,24l0,0a2.28,2.28,0,0,1,.17.35,1.64,1.64,0,0,1,.1.38,1.15,1.15,0,0,1,0,.37,1.16,1.16,0,0,1,0,.18l0,.08,0,.11a1,1,0,0,0,.16.91l.13.19a.21.21,0,0,1,0,.06h0a.23.23,0,0,1-.13-.07v0a.18.18,0,0,0-.19-.05c-.08,0-.12.08-.09.13v0l0,0a.14.14,0,0,0-.11,0c-.06,0-.11,0-.1.09a.16.16,0,0,0,0,.06l0,0,.07.07h0a.2.2,0,0,1-.08,0,.19.19,0,0,1-.09-.11h0a.12.12,0,0,0-.1,0c-.05,0-.08,0-.07.07h0a.42.42,0,0,1,0,.15.06.06,0,0,1,0,.06,0,0,0,0,1,0,0h0s0,0,0,0l0,0a.15.15,0,0,1,0-.06.47.47,0,0,1-.06-.15.08.08,0,0,0-.08-.05c-.05,0-.09,0-.09.05h0a.47.47,0,0,1-.06.2s0,0,0,0h0s0,0,0,0a.57.57,0,0,1-.12-.37,2.22,2.22,0,0,0,.14-.76h0c-.06-.28-.14-.56-.22-.83a2,2,0,0,1-.1-.41c0-.13-.06-.27-.08-.41s-.08-.56-.11-.84a4.7,4.7,0,0,1,0-.75.1.1,0,0,0,.11-.09.4.4,0,0,1,0-.15.83.83,0,0,1,0-.15,1.3,1.3,0,0,1,.16-.31,3.25,3.25,0,0,1,.23-.29l.14-.13.16-.13a1.46,1.46,0,0,1,.71-.29,1.79,1.79,0,0,1,.4,0l.2,0L18,21h0A1.13,1.13,0,0,1,18,21.5Zm-3.37,1.16h0a2.3,2.3,0,0,1-.52.36.15.15,0,0,0-.08.08c0,.08,0,.17.14.2h0a.58.58,0,0,1,.19.1.4.4,0,0,1,.15.19.52.52,0,0,1,0,.25,1.28,1.28,0,0,1,0,.27,1.35,1.35,0,0,0,0,.28.57.57,0,0,0,.05.31,1.67,1.67,0,0,0,.17.26,2.76,2.76,0,0,1,.17.22s0,0,0,0l-.08,0-.29.15a2.35,2.35,0,0,0-.6.43l-.1.15a.3.3,0,0,0,0,.08l0,.06a.28.28,0,0,1-.15.12.38.38,0,0,1-.18.05c-.06,0,0-.14,0-.23h0a.34.34,0,0,0-.15.22.14.14,0,0,1,0-.07s0-.05,0-.09a.24.24,0,0,0-.05-.12L13,25.9a.34.34,0,0,0-.12.05.12.12,0,0,0-.05.05h0a.49.49,0,0,0-.06-.13.31.31,0,0,0-.06-.09.35.35,0,0,0-.13,0l0,0a.38.38,0,0,1,0-.1.29.29,0,0,1,.16-.17,1.81,1.81,0,0,0,.41-.29,1,1,0,0,0,.29-.45.6.6,0,0,0-.18-.54,4.25,4.25,0,0,1-.37-.47,2.08,2.08,0,0,1-.24-.5,2.13,2.13,0,0,1,0-1c.06-.33.13-.63.2-.89s.14-.47.2-.63l0-.09.08,0c-.07,0,0,0,0,0l.13.07.26.23a2.85,2.85,0,0,1,.23.26c.09.09.16.18.25.28a3.65,3.65,0,0,0,.61.55,1.74,1.74,0,0,0,.33.18Zm1.91-6.44h0a2.18,2.18,0,0,1-.44,0,3.31,3.31,0,0,1-.45,0,2.61,2.61,0,0,1-.81-.21,1.6,1.6,0,0,1-.61-.41.72.72,0,0,1-.18-.26l0-.06s0,0,0-.06.05-.11.06-.16a2.25,2.25,0,0,0,.12-.67.86.86,0,0,0,0-.16c.1,0,.43,0,.57.09s.34.34.15.54-.26.25-.12.33.18.13.38.08c0,0-.36-.06-.29-.22s.27-.25.19-.53a.7.7,0,0,0-.88-.33c0-.05,0-.09,0-.14a.79.79,0,0,0-.1-.33L14,13.58l.65.47-.29-.56.74.6-.24-.25.71.29-.19-.57.6.57-.15-.32.39.35-.12-.52.7.62-.44-.78,1,.69-.19-.47a1.39,1.39,0,0,1,.6.92,1.12,1.12,0,0,1-.25.78l.33-.36,0,.25a.6.6,0,0,0,.3-.33s.36-.27.57-.17.07.25-.06.42a2.47,2.47,0,0,1-.48.35h0A3.22,3.22,0,0,1,16.52,16.22ZM10.36,16Zm8.49,1.15a4.19,4.19,0,0,0-.28-.34,1.93,1.93,0,0,0-.2-.17l-.11-.07h-.08l-.06,0c-.3-.1-.6-.2-.91-.28l.29-.13a5.55,5.55,0,0,0,.48-.29l-.06.24.19-.26V16l.32-.43v.25s.32-.46.49-.72a1.44,1.44,0,0,0,.22-.27,1.57,1.57,0,0,0,.14-.25,1.45,1.45,0,0,0,.17-1,2.82,2.82,0,0,0-2.55-1.84,3.73,3.73,0,0,0-2.32.36c-.53.29-1,.81-.8,1.3a2,2,0,0,0,.32.53,1.29,1.29,0,0,1,0,.48,2.44,2.44,0,0,1-.25.63c0,.06-.06.08-.1.15a.28.28,0,0,0,0,.11s0,.07,0,.11a.83.83,0,0,0,.15.35,1.26,1.26,0,0,0,.22.24,3.34,3.34,0,0,1-.77.12,3.7,3.7,0,0,1-.47,0c-.16,0-.31-.06-.46-.09-.33-.09-.66-.15-1-.23a4.07,4.07,0,0,1-.93-.33h-.05a.58.58,0,0,0-.19,0,.24.24,0,0,0-.17.12c0,.13.07.2.14.26l.12.12a.47.47,0,0,0-.13.11.87.87,0,0,0-.14.24.46.46,0,0,0,0,.29.33.33,0,0,0,.16.18.75.75,0,0,0,.27.08c.15,0,.3,0,.34,0h0l0,0,.22.19a1.83,1.83,0,0,0,.26.16l.29.14a1.86,1.86,0,0,0,.73.14,1.44,1.44,0,0,0,.64-.15,4.26,4.26,0,0,0,.54.15h0s0,0,0,0-.33-.21-.51-.3a.14.14,0,0,0-.11,0h0a1.27,1.27,0,0,1-1-.1L11.66,17l-.21-.14-.18-.16a.43.43,0,0,0-.17-.12.7.7,0,0,0-.3-.06c-.17,0-.23,0-.29,0h0a.36.36,0,0,1,0-.15c0-.07,0-.13,0-.18l.05-.07,0,0,0,0a.24.24,0,0,0,0-.08.25.25,0,0,0,0-.07l-.25-.16a.36.36,0,0,1-.14-.13s.07,0,.15-.05l.87.4a5.75,5.75,0,0,0,1,.35,2.52,2.52,0,0,0,.56.09,2.32,2.32,0,0,0,.59,0,1.88,1.88,0,0,0,.8-.3,2.23,2.23,0,0,0,.4.24,3.1,3.1,0,0,0,1,.23,3,3,0,0,0,.52,0,2.72,2.72,0,0,0,.51-.08,3,3,0,0,0,.53-.17c.25.16.52.31.79.45l.05,0h0s.07,0,.08.07l.12.13.22.32.44.67a1.68,1.68,0,0,1,.31.7c0,.11-.06.21-.18.29a2.46,2.46,0,0,1-.43.21,9.63,9.63,0,0,1-.95.32,5,5,0,0,1-1,.19h-.23l-.25,0a.91.91,0,0,1-.23,0l-.09,0s-.08,0,0,0l-.41.22a.47.47,0,0,1,.09.12,0,0,0,0,0,0,0h0s0,0,0,0H15.4a.24.24,0,0,1-.14-.05l-.06-.06a.33.33,0,0,1,0-.06s0-.06,0-.08a.16.16,0,0,1,0-.09,1.24,1.24,0,0,1,.32-.33s0,0,0,0,0,0,0,0a1.69,1.69,0,0,0-.49.28.44.44,0,0,0-.08.11s0-.07,0-.1a1.55,1.55,0,0,1,.05-.23c0-.07,0-.12,0-.12a.37.37,0,0,0-.16.07.41.41,0,0,0-.12.11l-.05.09v0a.49.49,0,0,1,0-.21,1.78,1.78,0,0,1,.12-.31.67.67,0,0,0-.17,0,.39.39,0,0,0-.21.24.3.3,0,0,0,.14.28l.12,0a.37.37,0,0,0,.08.26.66.66,0,0,0,.12.11h0v0a.42.42,0,0,0,.07.13.62.62,0,0,0,.34.19.69.69,0,0,0,.25,0l.13,0h.1a.4.4,0,0,0,.19-.17s0,0,0-.06l.12,0h.3a1.59,1.59,0,0,0,.31,0,5.1,5.1,0,0,0,1-.26.28.28,0,0,1,0,.2.58.58,0,0,1-.25.19,2.38,2.38,0,0,1-.49.15,5.3,5.3,0,0,1-.64.11l-.38.05a2.38,2.38,0,0,0-.36,0H15.2c-.13,0-.26,0-.39,0a3.4,3.4,0,0,1-.77-.16,1.41,1.41,0,0,1-.61-.38.75.75,0,0,1-.22-.52,2,2,0,0,1,.14-.5c0-.17.07-.33.11-.47a2.75,2.75,0,0,1,.26-.67,1.18,1.18,0,0,1,.11-.18l.05-.07s0,0,0,0,0,0,0,0h0a1.34,1.34,0,0,0-.3.2,1.72,1.72,0,0,0-.49.67,2.63,2.63,0,0,0-.14.5,2.17,2.17,0,0,0,0,.26v.15a.47.47,0,0,0,0,.16,1.82,1.82,0,0,0,.15.27,1.22,1.22,0,0,0-.25.44,1.14,1.14,0,0,0-.06.25s0,.09,0,.13a.93.93,0,0,0,0,.14l.11,0-.07.06a2,2,0,0,0-.23.26,2.36,2.36,0,0,0-.23.35,2.43,2.43,0,0,0-.19.43,2.34,2.34,0,0,0-.06,1.06,1.37,1.37,0,0,0,.27.54c.12.17.25.33.36.49a1.94,1.94,0,0,1,.26.49.48.48,0,0,1,0,.41,1.13,1.13,0,0,1-.21.35,2.46,2.46,0,0,1-.28.28.34.34,0,0,0-.15.35.39.39,0,0,0,.14.18v0s0,0,0,.06a.25.25,0,0,0,.22.17.24.24,0,0,0,.12,0,.23.23,0,0,0,.17.1.18.18,0,0,0,.15,0s0,0,0,.06.17.13.26.13a.72.72,0,0,0,.26,0,.64.64,0,0,0,.43-.23l0,0,0,0,0,0,.09-.09a3.6,3.6,0,0,1,.52-.34l.31-.2a.44.44,0,0,0,.16-.17.22.22,0,0,0,0-.26,1.79,1.79,0,0,0-.27-.24c-.08-.07-.17-.13-.24-.2a.49.49,0,0,1-.11-.48c0-.18.14-.35.16-.56a.49.49,0,0,0-.1-.32.68.68,0,0,0-.12-.12,1.56,1.56,0,0,0,.34-.34,1.2,1.2,0,0,0,.18-.38l.19.06.23,0a2,2,0,0,0-.09.33,3,3,0,0,0-.06.42,6.18,6.18,0,0,0,0,.86c0,.14,0,.28,0,.43a3.25,3.25,0,0,0,.08.43c.07.27.16.54.25.81a2.8,2.8,0,0,1,0,.71v0h0a1,1,0,0,0,.08.24A.55.55,0,0,0,16,27a.45.45,0,0,0,.1.05.38.38,0,0,0,.15,0,.26.26,0,0,0,.18-.12v0a.08.08,0,0,0,0,0l.06,0,.11,0,.09,0a.13.13,0,0,0,.07-.05s0,0,0-.05l0,0,.14,0h.11a.1.1,0,0,0,.07,0h.05a.18.18,0,0,0,.17-.07h0a.5.5,0,0,0,.45-.06.19.19,0,0,0,.07-.12s0,0,0,0v-.05a1.34,1.34,0,0,0-.06-.12l-.11-.19a.78.78,0,0,1-.09-.7l.05-.09.06-.11a2,2,0,0,0,.07-.23,2.26,2.26,0,0,0,0-.45,2.09,2.09,0,0,0-.11-.43,1.55,1.55,0,0,0-.23-.44s0-.14.05-.26l.18-.38a7.22,7.22,0,0,0,.36-.8,2.08,2.08,0,0,0,.15-.85,1.29,1.29,0,0,0-.1-.42v0a.28.28,0,0,0,.14-.09.59.59,0,0,0,0-.56.92.92,0,0,0-.4-.35.21.21,0,0,0,0-.07.35.35,0,0,0-.06-.23l0,0a5.88,5.88,0,0,0,.91-.43l.4-.28a.85.85,0,0,0,.16-.17.32.32,0,0,0,0-.21,3.28,3.28,0,0,0-.14-.76A2.42,2.42,0,0,0,18.85,17.15Z"/><path class="cls-4" d="M16.18,18.72,16,18.66l-.35-.08-.36-.07a1.75,1.75,0,0,0-.4,0H14.6l-.09,0a.91.91,0,0,0-.36.17.29.29,0,0,0-.11.16.19.19,0,0,0,0,.18.47.47,0,0,0,.3.18h0s0,0,0,0a.4.4,0,0,1-.06-.21.13.13,0,0,1,0-.06l.07,0,.23-.07.29-.08a1.27,1.27,0,0,1,.62-.07,1,1,0,0,1,.3.1.87.87,0,0,1,.2.16.15.15,0,0,0,.16,0l.07,0a4.71,4.71,0,0,0,.6-.26,4,4,0,0,0,.54-.31l0,0a.13.13,0,0,0,.05-.17,3,3,0,0,0-.55-.68h0a0,0,0,0,0,0,0,1.76,1.76,0,0,0,.06.65,4.41,4.41,0,0,0-.43.25c-.14.1-.28.19-.41.3"/><path class="cls-4" d="M6.38,15.36l-1.08.13-.73.24a6.72,6.72,0,0,0,1.06-.06s-.22.5,0,.46.39-.38.39-.38l.26,0c-.17-.36.08-.42.08-.42"/><path class="cls-4" d="M.43,17.22v0"/><path class="cls-4" d="M7,17.43H7m-2.19,1ZM5,11a6.18,6.18,0,0,0-4.59-.37v1.66a1.18,1.18,0,0,0-.17.22s0,0,0,0h0l.13-.11V17.1a1.9,1.9,0,0,1,1.21-1.61,5.18,5.18,0,0,1,.85-.3,2,2,0,0,0-.68.69c-.64,1.19.88,1.82.88,1.82-1.44-1.2-.33-2.18.77-2.77,1.43-.37,3-.78,3.09-1.63,0,0,1.34.56,1.08,1.5-.19.2-.41.39-.59.61a2.68,2.68,0,0,0-.44.72,1.13,1.13,0,0,0,0,.81.9.9,0,0,0,.3.39l.06.05h0a1.44,1.44,0,0,1-.38.06.74.74,0,0,1-.21,0c-.06,0-.1,0-.06,0l-.47.12a.92.92,0,0,1,0,.33s0,0,0,0h0c-.32-.06-.68-.15-1-.24a.39.39,0,0,0-.3,0,.16.16,0,0,0,0,.27h0l.13.09.1.1c.07.07.11.14.1.18s0,0,0,0,0,0,0,0h0a.55.55,0,0,1-.13,0l-.15,0h0a.26.26,0,0,0-.29.14.87.87,0,0,1-.18.36.42.42,0,0,1-.13.11.27.27,0,0,1-.13,0c-.21-.05-.39-.09-.58-.15a4.3,4.3,0,0,1-.54-.2,3.31,3.31,0,0,1-.88-.59,3.34,3.34,0,0,1-.59-.78s0,0,0,0a0,0,0,0,0,0,0,2.3,2.3,0,0,0,.18.43,2.47,2.47,0,0,0,.27.42,3.11,3.11,0,0,0,.87.7,4.88,4.88,0,0,0,1.18.44.94.94,0,0,0,.5,0,.92.92,0,0,0,.3-.21,1.26,1.26,0,0,0,.2-.29h0a1.1,1.1,0,0,0,.31,0,.58.58,0,0,0,.18,0,.78.78,0,0,0,.15-.1.34.34,0,0,0,.08-.1.3.3,0,0,0,0-.14.41.41,0,0,0,0-.16l.34.07.18,0a.54.54,0,0,0,.33-.07.37.37,0,0,0,.14-.16.79.79,0,0,0,0-.13.65.65,0,0,0,0-.14,2.08,2.08,0,0,0,.25,0,2,2,0,0,0,.63-.14.59.59,0,0,0,.17-.12.19.19,0,0,0,0-.24c-.08-.1-.1-.08-.13-.11l-.1-.06A.68.68,0,0,1,7,16.86a1.47,1.47,0,0,1,.31-1.36A5.7,5.7,0,0,1,7.73,15C8.12,14.78,9,14.29,9,13.43,9,12.32,8.07,11,5,11Z"/><path class="cls-4" d="M7.09,15.05a4.79,4.79,0,0,0-3.19.07s2.37-.28,2.64,0,.55-.07.55-.07"/><path class="cls-4" d="M10.54,3h.15c.44,0,.86-.22.86-1,0-.6-.27-.92-.82-.92h-.19ZM10.15.92a2.73,2.73,0,0,1,.53-.05,1.57,1.57,0,0,1,.81.18A1,1,0,0,1,12,2a1.15,1.15,0,0,1-.42,1,1.56,1.56,0,0,1-.95.25,3,3,0,0,1-.44,0Z"/><path class="cls-4" d="M12.38,3.25h0V1.55h.39v1.7Zm.42-2.14c0,.11-.09.18-.24.18s-.22-.07-.22-.18.1-.17.23-.17S12.8,1,12.8,1.11Z"/><path class="cls-4" d="M14.48,3.21a1.37,1.37,0,0,1-.41.06.81.81,0,0,1-.91-.86.89.89,0,0,1,1-.88,1.13,1.13,0,0,1,.35.05l-.08.22a.77.77,0,0,0-.28-.05.59.59,0,0,0-.58.66.57.57,0,0,0,.59.64.87.87,0,0,0,.28,0Z"/><path class="cls-4" d="M15.78,2.23h0c0-.35-.17-.5-.36-.5S15,2,15,2.23Zm-.77.2c0,.51.3.63.59.63A1.06,1.06,0,0,0,16,3l.07.2a1.77,1.77,0,0,1-.55.08.8.8,0,0,1-.9-.85.82.82,0,0,1,.84-.9.68.68,0,0,1,.7.75v.16Z"/><path class="cls-4" d="M17.58,2.4h0c0,.28.07.66.43.66s.4-.4.4-.66-.07-.66-.42-.66-.41.4-.41.66m1.23,0a.8.8,0,0,1-.83.88.78.78,0,0,1-.8-.88A.8.8,0,0,1,18,1.52.78.78,0,0,1,18.81,2.4Z"/><path class="cls-4" d="M19.19,2c0-.14,0-.31,0-.44h.35l0,.27h0a.6.6,0,0,1,.52-.3h.08V1.8h-.08a.47.47,0,0,0-.48.36.66.66,0,0,0,0,.15v.94h-.4Z"/><path class="cls-4" d="M21.31,2.37h0c-.21,0-.69,0-.69.4a.29.29,0,0,0,.31.3.37.37,0,0,0,.37-.26.28.28,0,0,0,0-.09Zm.05.88,0-.18h0a.62.62,0,0,1-.49.21.53.53,0,0,1-.59-.49c0-.42.5-.61,1.06-.61V2.12c0-.22-.09-.38-.4-.38a.91.91,0,0,0-.41.09l-.09-.19A1.36,1.36,0,0,1,21,1.52c.5,0,.71.23.71.61v.73a1.63,1.63,0,0,0,0,.39Z"/><path class="cls-4" d="M23.4,3.21a1.27,1.27,0,0,1-.41.06.81.81,0,0,1-.9-.86.89.89,0,0,1,1-.88,1,1,0,0,1,.34.05l-.07.22a.82.82,0,0,0-.28-.05.59.59,0,0,0-.58.66.57.57,0,0,0,.59.64.87.87,0,0,0,.28,0Z"/><path class="cls-4" d="M23.69,3.25h0V1.55h.39v1.7Zm.42-2.14c0,.11-.09.18-.24.18a.2.2,0,0,1-.22-.18c0-.1.1-.17.23-.17S24.11,1,24.11,1.11Z"/><path class="cls-4" d="M24.87,2.4h0c0,.28.07.66.43.66s.4-.4.4-.66-.07-.66-.41-.66-.42.4-.42.66m1.23,0a.79.79,0,0,1-.82.88.78.78,0,0,1-.81-.88.8.8,0,0,1,.83-.88A.78.78,0,0,1,26.1,2.4Z"/><path class="cls-4" d="M26.49,2c0-.2,0-.3,0-.44h.34l0,.2h0a.74.74,0,0,1,.57-.23.54.54,0,0,1,.6.59V3.25h-.4V2.16c0-.2-.05-.41-.34-.41A.38.38,0,0,0,26.9,2a.61.61,0,0,0,0,.15V3.25h-.39Z"/><path class="cls-4" d="M29.56,2.23h0c0-.35-.18-.5-.36-.5s-.39.26-.41.5Zm-.77.2c0,.51.3.63.58.63A1.08,1.08,0,0,0,29.78,3l.07.2a1.77,1.77,0,0,1-.55.08.8.8,0,0,1-.9-.85.82.82,0,0,1,.84-.9.68.68,0,0,1,.7.75v.16Z"/><path class="cls-4" d="M30.25,3a1,1,0,0,0,.4.09c.22,0,.36-.1.36-.25s-.06-.22-.32-.33S30.2,2.19,30.2,2s.29-.47.68-.47a1.16,1.16,0,0,1,.44.09l-.1.2a.84.84,0,0,0-.33-.07c-.22,0-.32.11-.32.22s.06.17.3.29.52.28.52.52-.34.5-.75.5a1.15,1.15,0,0,1-.49-.1Z"/><path class="cls-4" d="M7.45,6.13a1,1,0,0,0,.4.08c.23,0,.37-.09.37-.24s-.07-.22-.32-.33-.5-.29-.5-.49.3-.47.68-.47a1.18,1.18,0,0,1,.45.09L8.42,5a.81.81,0,0,0-.33-.07c-.21,0-.32.1-.32.21s.06.18.31.3.51.28.51.51-.34.51-.74.51a1.09,1.09,0,0,1-.49-.1Z"/><path class="cls-4" d="M9,6.41H9V4.71h.39v1.7Zm.42-2.14c0,.11-.09.18-.24.18s-.22-.07-.22-.18.1-.18.23-.18S9.37,4.16,9.37,4.27Z"/><path class="cls-4" d="M9.84,5.15c0-.2,0-.3,0-.44h.34l0,.21h0a.69.69,0,0,1,.56-.24.55.55,0,0,1,.52.26h0a.63.63,0,0,1,.24-.19.78.78,0,0,1,.35-.07.54.54,0,0,1,.59.6V6.41h-.39V5.34c0-.22-.05-.43-.35-.43a.37.37,0,0,0-.36.25.78.78,0,0,0,0,.16V6.41H11V5.29c0-.18,0-.38-.34-.38a.37.37,0,0,0-.37.27.76.76,0,0,0,0,.15V6.41H9.84Z"/><path class="cls-4" d="M13.35,5.78h0a.57.57,0,0,0,0,.14.37.37,0,0,0,.37.29c.32,0,.43-.31.43-.65s-.13-.65-.44-.65a.39.39,0,0,0-.36.31.57.57,0,0,0,0,.13ZM13,5.24c0-.26,0-.41,0-.53h.36l0,.22h0a.6.6,0,0,1,.52-.25c.43,0,.72.32.72.87s-.38.89-.77.89a.52.52,0,0,1-.43-.2h0v.84H13Z"/><rect class="cls-4" x="14.95" y="3.98" width="0.39" height="2.43"/><path class="cls-4" d="M16.93,5.38h0c0-.34-.18-.49-.37-.49s-.39.26-.4.49Zm-.78.2c0,.52.3.63.59.63a1.15,1.15,0,0,0,.41-.06l.06.2a1.75,1.75,0,0,1-.54.08.79.79,0,0,1-.9-.85.82.82,0,0,1,.83-.9.68.68,0,0,1,.71.75.66.66,0,0,1,0,.15Z"/><path class="cls-4" d="M17.62,6.13a1,1,0,0,0,.4.08c.22,0,.36-.09.36-.24s-.07-.22-.32-.33-.5-.29-.5-.49.3-.47.69-.47a1.16,1.16,0,0,1,.44.09l-.11.2a.79.79,0,0,0-.32-.07c-.22,0-.33.1-.33.21s.06.18.31.3.51.28.51.51-.34.51-.74.51a1.15,1.15,0,0,1-.49-.1Z"/><path class="cls-4" d="M19.09,6.24h0c0-.12.11-.2.26-.2s.25.08.25.2-.09.2-.25.2-.26-.09-.26-.2m0-1.29c0-.11.11-.2.26-.2s.25.08.25.2-.09.2-.25.2S19.09,5.07,19.09,5Z"/><path class="cls-4" d="M20.31,4.85h0A3.28,3.28,0,0,1,20.78,4L21,4a3.66,3.66,0,0,0-.3.8Zm.68,0A4.06,4.06,0,0,1,21.45,4l.24,0a3.66,3.66,0,0,0-.3.8Z"/><path class="cls-4" d="M24.11,5.39a6,6,0,0,1,0-.93h0c-.08.27-.17.55-.28.82l-.42,1.11H23.1l-.41-1.06a8.72,8.72,0,0,1-.28-.87h0c0,.28,0,.61,0,1l-.06,1h-.36L22.14,4h.42L23,5.12a7.78,7.78,0,0,1,.27.82h0a7.56,7.56,0,0,1,.26-.82L23.91,4h.44l.2,2.37h-.37Z"/><path class="cls-4" d="M25.92,5.53h0c-.2,0-.68,0-.68.39a.29.29,0,0,0,.3.31A.36.36,0,0,0,25.91,6a.34.34,0,0,0,0-.1Zm.06.88,0-.18h0a.65.65,0,0,1-.5.21A.52.52,0,0,1,24.86,6c0-.42.49-.61,1.05-.62v0c0-.23-.08-.39-.39-.39a1,1,0,0,0-.41.09L25,4.79a1.48,1.48,0,0,1,.58-.11c.49,0,.71.23.71.61V6a1.63,1.63,0,0,0,0,.39Z"/><path class="cls-4" d="M26.81,5.15c0-.2,0-.3,0-.44h.34l0,.21h0a.69.69,0,0,1,.56-.24.54.54,0,0,1,.52.26h0a.72.72,0,0,1,.24-.19.78.78,0,0,1,.35-.07.54.54,0,0,1,.59.6V6.41H29V5.34c0-.22,0-.43-.35-.43a.38.38,0,0,0-.36.25.81.81,0,0,0,0,.16V6.41h-.39V5.29c0-.18-.05-.38-.35-.38a.37.37,0,0,0-.37.27.76.76,0,0,0,0,.15V6.41h-.39Z"/><path class="cls-4" d="M30.85,5.53h0c-.2,0-.68,0-.68.39a.3.3,0,0,0,.3.31A.35.35,0,0,0,30.84,6a.34.34,0,0,0,0-.1Zm.06.88,0-.18h0a.62.62,0,0,1-.49.21A.53.53,0,0,1,29.79,6c0-.42.5-.61,1.05-.62v0c0-.23-.08-.39-.39-.39A1.07,1.07,0,0,0,30,5L30,4.79a1.52,1.52,0,0,1,.58-.11c.5,0,.71.23.71.61V6a1.63,1.63,0,0,0,0,.39Z"/><path class="cls-4" d="M23.42,7.87l.32,1c0,.12.07.27.1.41h0c0-.14.07-.28.1-.41l.31-1h.39L24,9.56h-.35L23,7.87Z"/><path class="cls-4" d="M25.82,8.69h0c-.2,0-.68,0-.68.39a.29.29,0,0,0,.3.3.35.35,0,0,0,.37-.25.38.38,0,0,0,0-.1Zm.06.87,0-.17h0a.62.62,0,0,1-.49.2c-.34,0-.59-.19-.59-.48s.5-.62,1-.62V8.44c0-.23-.08-.39-.39-.39a1.07,1.07,0,0,0-.41.09L24.92,8a1.52,1.52,0,0,1,.58-.11c.5,0,.71.22.71.61v.73a1.5,1.5,0,0,0,0,.38Z"/><path class="cls-4" d="M26.71,8.3c0-.2,0-.3,0-.43H27l0,.21h0a.65.65,0,0,1,.55-.24.53.53,0,0,1,.52.26h0a.79.79,0,0,1,.25-.2.86.86,0,0,1,.34-.06.54.54,0,0,1,.59.6V9.56H29V8.5c0-.22-.05-.43-.35-.43a.38.38,0,0,0-.37.25.71.71,0,0,0,0,.15V9.56h-.39V8.45c0-.19,0-.38-.34-.38a.36.36,0,0,0-.37.27.68.68,0,0,0,0,.15V9.56h-.39Z"/><path class="cls-4" d="M30.12,8.72h0c0,.28.07.66.43.66S31,9,31,8.72s-.07-.66-.42-.66-.42.4-.42.66m1.24,0a.79.79,0,0,1-.83.87.77.77,0,0,1-.8-.87.8.8,0,0,1,.83-.88A.78.78,0,0,1,31.36,8.72Z"/><path class="cls-4" d="M24.34,12.68a1.07,1.07,0,0,1-.41.06.82.82,0,0,1-.91-.86A.89.89,0,0,1,24,11a1,1,0,0,1,.35.05l-.08.22a.83.83,0,0,0-.28,0,.58.58,0,0,0-.57.65.56.56,0,0,0,.58.64.88.88,0,0,0,.29,0Z"/><path class="cls-4" d="M25.56,11.84h0c-.2,0-.68,0-.68.4a.29.29,0,0,0,.3.3.35.35,0,0,0,.37-.26.28.28,0,0,0,0-.09Zm.06.88,0-.18h0a.62.62,0,0,1-.49.21c-.34,0-.59-.19-.59-.48s.5-.62,1.05-.62V11.6c0-.23-.08-.39-.39-.39a.88.88,0,0,0-.41.09l-.09-.19a1.35,1.35,0,0,1,.58-.11c.5,0,.71.22.71.6v.74a1.54,1.54,0,0,0,0,.38Z"/><rect class="cls-4" x="26.45" y="10.29" width="0.39" height="2.43"/><rect class="cls-4" x="27.38" y="10.29" width="0.39" height="2.43"/><path class="cls-4" d="M29.36,11.7h0c0-.34-.18-.49-.37-.49s-.39.26-.4.49Zm-.78.2c0,.52.3.63.59.63a1.12,1.12,0,0,0,.41-.07l.06.2a1.5,1.5,0,0,1-.54.08.79.79,0,0,1-.9-.85A.81.81,0,0,1,29,11a.68.68,0,0,1,.71.75.66.66,0,0,1,0,.15Z"/><path class="cls-4" d="M30.52,10.33h0a3.39,3.39,0,0,1-.47.81l-.23,0a3.48,3.48,0,0,0,.3-.8Zm.68,0a3.77,3.77,0,0,1-.46.81l-.24,0a3.48,3.48,0,0,0,.3-.8Z"/><path class="cls-4" d="M30.61,13.16a3.56,3.56,0,0,0,.3-.81l.44,0a3.36,3.36,0,0,1-.47.83Z"/><path class="cls-4" d="M20.31,14.32h0a3,3,0,0,1,.47-.81l.23,0a3.66,3.66,0,0,0-.3.8Zm.68,0a3.7,3.7,0,0,1,.46-.81l.24,0a3.66,3.66,0,0,0-.3.8Z"/><path class="cls-4" d="M24.11,14.86a6,6,0,0,1,0-.93h0c-.08.27-.17.55-.28.83l-.42,1.1H23.1l-.41-1.06a8.72,8.72,0,0,1-.28-.87h0c0,.28,0,.61,0,1l-.06,1h-.36l.21-2.37h.42L23,14.59a7.78,7.78,0,0,1,.27.82h0a7.56,7.56,0,0,1,.26-.82l.39-1.08h.44l.2,2.37h-.37Z"/><path class="cls-4" d="M25.92,15h0c-.2,0-.68,0-.68.39a.28.28,0,0,0,.3.31.35.35,0,0,0,.37-.26.31.31,0,0,0,0-.09Zm.06.88,0-.18h0a.65.65,0,0,1-.5.21.52.52,0,0,1-.58-.49c0-.42.49-.61,1.05-.62v-.05c0-.23-.08-.38-.39-.38a1,1,0,0,0-.41.08L25,14.26a1.48,1.48,0,0,1,.58-.11c.49,0,.71.23.71.61v.73a1.63,1.63,0,0,0,0,.39Z"/><path class="cls-4" d="M26.81,14.62c0-.2,0-.3,0-.44h.34l0,.21h0a.69.69,0,0,1,.56-.24.54.54,0,0,1,.52.26h0a.72.72,0,0,1,.24-.19.78.78,0,0,1,.35-.07.54.54,0,0,1,.59.6v1.13H29V14.81c0-.22,0-.43-.34-.43a.38.38,0,0,0-.37.25.81.81,0,0,0,0,.16v1.09h-.39V14.77c0-.19-.05-.39-.35-.39a.38.38,0,0,0-.37.27s0,.1,0,.15v1.08h-.39Z"/><path class="cls-4" d="M30.85,15h0c-.2,0-.68,0-.68.39a.29.29,0,0,0,.3.31.35.35,0,0,0,.37-.26.31.31,0,0,0,0-.09Zm.06.88,0-.18h0a.62.62,0,0,1-.49.21.53.53,0,0,1-.59-.49c0-.42.5-.61,1.05-.62v-.05c0-.23-.08-.38-.39-.38a1.07,1.07,0,0,0-.41.08L30,14.26a1.56,1.56,0,0,1,.58-.11c.5,0,.71.23.71.61v.73a1.63,1.63,0,0,0,0,.39Z"/><path class="cls-4" d="M23.12,18h0a.41.41,0,0,0,0-.11.38.38,0,0,0-.36-.32c-.32,0-.45.3-.45.65s.14.65.44.65a.37.37,0,0,0,.36-.29.32.32,0,0,0,0-.14Zm0,.89h0a.55.55,0,0,1-.47.2c-.4,0-.72-.29-.72-.85a.8.8,0,0,1,.78-.9.54.54,0,0,1,.46.22h0l0-.2h.35c0,.12,0,.27,0,.53v1.84h-.39Z"/><path class="cls-4" d="M25.49,18.57c0,.19,0,.34,0,.47h-.34l0-.18h0a.73.73,0,0,1-.53.2c-.43,0-.6-.23-.6-.65V17.34h.39v1c0,.27.06.47.33.47a.36.36,0,0,0,.36-.23.68.68,0,0,0,0-.15V17.34h.39Z"/><path class="cls-4" d="M26,19h0v-1.7h.4V19Zm.43-2.14c0,.1-.1.17-.24.17S26,17,26,16.9s.1-.18.23-.18S26.42,16.79,26.42,16.9Z"/><path class="cls-4" d="M27.94,18h0c0-.34-.18-.49-.37-.49s-.39.26-.41.49Zm-.78.2c0,.52.3.63.59.63a1.43,1.43,0,0,0,.41-.06l.06.2a1.75,1.75,0,0,1-.54.08.88.88,0,0,1-.07-1.75.68.68,0,0,1,.71.75.66.66,0,0,1,0,.15Z"/><path class="cls-4" d="M28.68,17.78c0-.15,0-.32,0-.44H29l0,.26h0a.59.59,0,0,1,.52-.29h.08v.28h-.08a.46.46,0,0,0-.48.35.76.76,0,0,0,0,.15V19h-.4Z"/><path class="cls-4" d="M30.12,18.19h0c0,.28.07.66.43.66s.41-.4.41-.66-.07-.66-.42-.66-.42.4-.42.66m1.24,0a.79.79,0,0,1-.83.87.77.77,0,0,1-.8-.87.8.8,0,0,1,.83-.88A.78.78,0,0,1,31.36,18.19Z"/><path class="cls-4" d="M25.27,21.57h0a.61.61,0,0,0,0,.14.38.38,0,0,0,.36.29c.33,0,.43-.31.43-.66s-.12-.64-.43-.64a.38.38,0,0,0-.36.31.53.53,0,0,0,0,.13Zm-.4-.55c0-.26,0-.41,0-.53h.35l0,.22h0a.63.63,0,0,1,.53-.24c.43,0,.71.31.71.87s-.38.88-.76.88a.48.48,0,0,1-.43-.2h0v.85h-.4Z"/><path class="cls-4" d="M27.79,21.32h0c-.21,0-.68,0-.68.39a.28.28,0,0,0,.3.3.37.37,0,0,0,.37-.26.28.28,0,0,0,0-.09Zm.05.87,0-.18h0a.61.61,0,0,1-.49.21c-.33,0-.59-.19-.59-.48s.5-.62,1.06-.62v-.05c0-.23-.08-.39-.4-.39a1.07,1.07,0,0,0-.41.09l-.08-.19a1.48,1.48,0,0,1,.58-.11c.49,0,.71.22.71.6v.74a2.3,2.3,0,0,0,0,.38Z"/><path class="cls-4" d="M28.68,20.93c0-.2,0-.3,0-.44H29l0,.21h0a.71.71,0,0,1,.57-.23.54.54,0,0,1,.6.58v1.14h-.4V21.1c0-.2-.05-.41-.34-.41a.38.38,0,0,0-.37.28.68.68,0,0,0,0,.15v1.07h-.39Z"/><path class="cls-4" d="M31.11,19.8h0a3.39,3.39,0,0,1-.47.81l-.23,0a3.46,3.46,0,0,0,.29-.8Zm.67,0a3.08,3.08,0,0,1-.46.81l-.23,0a4,4,0,0,0,.3-.8Z"/><path class="cls-5" d="M19.44,14.2a4.82,4.82,0,0,1-1,2.14c-.68.59-1.56,1-1.74,1.45s-.08.33-.08.33.17,0,.08.15a2.67,2.67,0,0,1-.46.41s-.26-.16-.24-.35a.24.24,0,0,1,.22-.21,1.75,1.75,0,0,1,.24-.69,7.83,7.83,0,0,1,1.4-1.64,4,4,0,0,0,1.59-1.59"/><path class="cls-5" d="M14.87,16.27a5.52,5.52,0,0,1,0,1.16,3.52,3.52,0,0,1-.22.48s.15,0,0,.16a1.93,1.93,0,0,1-.62.23s.1-.63.36-.51c0,0,.3-.09.19-.61a10.58,10.58,0,0,0-.29-1.1Z"/></svg>