<svg id="Capa_1" data-name="Capa 1" xmlns="http://www.w3.org/2000/svg" viewBox="0 0 30.96 28.08"><defs><style>.cls-1{fill:#ffcc64;}.cls-2{fill:#b3d335;}.cls-3{fill:#fbc8ba;}.cls-4{fill:#f05050;}.cls-5,.cls-6{fill:#231f20;}.cls-6{fill-rule:evenodd;}</style></defs><title>4-24meses</title><path class="cls-1" d="M.62,21.84A23.16,23.16,0,0,0,15.8,27.58c9.32,0,12.51-5.74,12.51-5.74Z"/><path class="cls-2" d="M19,15.8s.28,2.57,1.66,2.88,1.89-.39,1.89-1.25,0-2.64-1.15-2.89-2.65-.3-2.4,1.26"/><path class="cls-3" d="M7.84,12.11s.54,2.94.87,3.05a5.55,5.55,0,0,1,1,.57l-.3.63s-3.65.77-4.09,1-2,.68-1.4,1.77S6,21.34,6,21.59s-.49.91-.08,1.05a1,1,0,0,0,.84-.25s0,.5.4.47.93-.72.93-.72-.11.51.13.39.4-.72.4-.72h.84l5.95-2.42a5.07,5.07,0,0,0,2.06.37,8.2,8.2,0,0,0,1.84-.63l.87-.69a3.78,3.78,0,0,1-1-1.49c-.1-.65-.13-1.21-.13-1.21s1.12.33,1.1,0-.45-.68-.84-.8-1-.05-1.13.19.49,1.69.21,2a2.87,2.87,0,0,1-1.05.48,12.63,12.63,0,0,0-1.83-1.15,5.46,5.46,0,0,0-1.56-.06l-.09-.27A7.51,7.51,0,0,0,15.12,15c.22-.39.43-.43.43-.43s1.36-.41,1.17-1-1-1.65-1-2-7-1.71-7-1.71l-1.1,2.53s.25.82.08.84-.82.06-.56.53.93,1.06,1.13,1,.83-2.26-.42-2.64"/><path class="cls-4" d="M10.46,19.28l0,.79s-.34-.14-.62.35a12.64,12.64,0,0,0-.52,3.89c.14.42-.22,1.7,2,2s5.2,0,5.38-.65a52.16,52.16,0,0,0,0-5.33,3.15,3.15,0,0,0-.81-.37c-.29-.05-.2-.19-.2-.19A.94.94,0,0,0,15,19a12.54,12.54,0,0,0-3-.13c-1.06.1-1.38.2-1.49.42"/><path class="cls-5" d="M13.61,13.7a2.53,2.53,0,0,1,1.51.12,2.21,2.21,0,0,0-2.39,0c-.24.18.35.11.88-.14"/><path class="cls-5" d="M11.48,14c.21,0,0-.23-.5-.3a2.73,2.73,0,0,0-1.7.54,6.74,6.74,0,0,1,1.11-.36c.39-.07.88.15,1.09.12"/><path class="cls-5" d="M13.63,14.18c-.39,0-.52-.08-.52-.08A.84.84,0,0,0,14.47,14a1.64,1.64,0,0,1-.84.23"/><path class="cls-5" d="M9.8,14.23a.83.83,0,0,0,1.3,0,1.53,1.53,0,0,1-1.3,0"/><path class="cls-5" d="M12.28,15.34c.31.07.28-.08.49-.17S13,15,13,15s-.16,0-.4.16-.48,0-.72-.06-.23-.14-.23-.14,0,.11.14.23.21.06.53.14"/><path class="cls-5" d="M21,17.71v.09a.25.25,0,0,1,0,.12.25.25,0,0,1-.17.16.89.89,0,0,1-.28,0,1.75,1.75,0,0,1-.27-.05.76.76,0,0,0,.23.13.94.94,0,0,0,.37,0,.62.62,0,0,0,.44-.21.71.71,0,0,0,.12-.18l0-.09v0h0v0h0v-.05a1.34,1.34,0,0,0,.06-.4,2.91,2.91,0,0,0-.13-.87,5,5,0,0,0-.37-.82c-.07-.12-.16-.24-.24-.36a1.6,1.6,0,0,0-.28-.32.81.81,0,0,0-.46-.17.63.63,0,0,0-.36.09.55.55,0,0,0-.19.16,1.12,1.12,0,0,1,.25-.09.57.57,0,0,1,.26,0,.41.41,0,0,1,.21.16,1.4,1.4,0,0,1,.15.3c.05.11.1.24.15.36s.2.52.28.79a5,5,0,0,1,.19.79c0,.13,0,.25,0,.36v0h0Z"/><path class="cls-5" d="M10.45,19.28h0m6,6.11h0c0,.28-.31.47-.73.6a7.32,7.32,0,0,1-1.39.24c-.48,0-1,.06-1.47.06a10.23,10.23,0,0,1-1.48-.09,3.08,3.08,0,0,1-1.28-.43,1,1,0,0,1-.41-.89l.08-1c0-.69,0-1.38,0-2.07,0-.33-.05-.68,0-1a.59.59,0,0,0,.19-.05.21.21,0,0,0,.14-.18.17.17,0,0,0,0-.13.22.22,0,0,0-.05-.08l0,0h0a.68.68,0,0,1,.48-.15h0c.05,0,.09-.05.08-.08-.06-.2-.12-.4-.19-.59h-.06c0,.18,0,.35,0,.52a1,1,0,0,0-.59.14l-.09,0L9.43,20a3.36,3.36,0,0,0-.81-.14H8c-.07-.36-.16-.71-.25-1.06l.81-.11v0l-.92,0s-.08,0-.08.07h0c0,.42.07.83.12,1.24a.16.16,0,0,0,.17.11h0a5,5,0,0,1,1.39.19l.13.05.09.06h0l-.23-.07a.45.45,0,0,0-.2,0c-.13,0-.2.13-.16.22h0a2.23,2.23,0,0,1,.2.6,1.36,1.36,0,0,1,0,.28.5.5,0,0,1,0,.13.24.24,0,0,1,0,.09l-.05,0h0l-.06-.13A3.09,3.09,0,0,1,8.75,21h0v0c0-.08-.1-.14-.22-.14s-.22.07-.22.15h0a2.31,2.31,0,0,0,0,.64v.06a1.24,1.24,0,0,1,0,.33.75.75,0,0,1-.05.16.8.8,0,0,1-.09.14l0,0a.56.56,0,0,1-.05-.08A1.58,1.58,0,0,1,8,22a3.56,3.56,0,0,0-.09-.73s0,0-.09,0-.09,0-.09.06h0a5.52,5.52,0,0,0,0,.71s0,.07,0,.11a1,1,0,0,1-.09.37.48.48,0,0,1-.12.16.16.16,0,0,1-.08.06.19.19,0,0,1-.1,0l-.07,0H7.21a.31.31,0,0,1-.14-.09A.85.85,0,0,1,7,22.24a.09.09,0,0,1,0,0v0A1,1,0,0,0,7,21.79a1.57,1.57,0,0,0,0-.37H7c0-.06-.09-.11-.19-.11a.18.18,0,0,0-.21.13v.38a1.18,1.18,0,0,1-.06.27.79.79,0,0,1-.19.25l-.12.08-.1,0,0,0s0,0,0,0H6a.72.72,0,0,1,0-.29,3.15,3.15,0,0,1,.22-.63,0,0,0,0,0,0,0c0-.11-.08-.22-.25-.23H6a.74.74,0,0,1-.35-.21,2.69,2.69,0,0,1-.33-.41l-.62-.9c-.1-.15-.23-.3-.32-.44a1.45,1.45,0,0,1-.21-.41c-.09-.28,0-.52.31-.76.13-.12.3-.23.47-.36l.12-.1.1-.06.27-.12a13.14,13.14,0,0,1,1.29-.39c.89-.24,1.82-.44,2.74-.64h0a.07.07,0,0,0,.06,0l.12-.38c.21.1.43.2.66.29a4.42,4.42,0,0,0,2.53.16l.54-.16.32-.13c0,.1.06.21.1.31h0a.11.11,0,0,0,.11,0h0a3.38,3.38,0,0,1,1-.11,1.49,1.49,0,0,1,.44.09l.19.09a1.06,1.06,0,0,0,.2.12c.5.34,1,.7,1.46,1.06h0a.37.37,0,0,0,.34,0,2.91,2.91,0,0,0,.8-.52,1.31,1.31,0,0,0,.27-.36.82.82,0,0,0,.06-.4,2,2,0,0,0-.1-.37l-.12-.33a1.41,1.41,0,0,1-.13-.64.26.26,0,0,1,.19-.2A1.22,1.22,0,0,1,19,15a1.55,1.55,0,0,1,.79.31.54.54,0,0,1,.19.28s0,0,0,.07a.19.19,0,0,1,0,.08.15.15,0,0,1-.1.09.65.65,0,0,1-.39,0,.93.93,0,0,1-.36-.17.17.17,0,0,0-.1,0c-.07,0-.13,0-.13.09h0A6.75,6.75,0,0,0,19,17a2.69,2.69,0,0,0,.58,1.27,1.48,1.48,0,0,0,.35.28l.05,0a6.32,6.32,0,0,1-.81.46l-.56.27-.29.12-.14.06-.07,0h.11a.45.45,0,0,1,.18.07.17.17,0,0,1,.07.13L18,19.53l-.16,0-.18,0a2.34,2.34,0,0,1-.38,0,4.27,4.27,0,0,1-.8-.1,5.61,5.61,0,0,1-.79-.26l-.18-.08h0l-.57-.26L15,19a2.86,2.86,0,0,0-.61-.12c-.51-.06-.92-.06-1.21-.07h0a5.21,5.21,0,0,1,1.17.14,2.44,2.44,0,0,1,.67.25c.1,0,.16.15.14.15s0,.07,0,0,0,0,0,0l-.18,0H14l-1,0c-.65,0-1.32,0-1.93,0l-.44,0-.16,0h0a.84.84,0,0,1,.24-.14l.35-.11a6.06,6.06,0,0,1,.64-.13l.52-.06.46,0h-.46a12,12,0,0,0-1.2.12,2.66,2.66,0,0,0-.39.07,1,1,0,0,0-.41.18.14.14,0,0,0,0,.14l.06.08.06,0a1.09,1.09,0,0,0,.25.09l.47.08c.63.09,1.29.14,2,.17a11.13,11.13,0,0,0,2-.1,1.54,1.54,0,0,0,.27-.07.37.37,0,0,0,.16-.1l0,0c0,.13,0,.27,0,.4s0,.06.08.06h0a2,2,0,0,1,.56.14,1,1,0,0,1,.23.12.58.58,0,0,1,.15.11c0,.68,0,1.35-.06,2s0,1.37,0,2.05A8.33,8.33,0,0,1,16.41,25.39ZM8.93,14.81h0a3.76,3.76,0,0,1-.15-.44l-.07-.24L8.65,14l-.08-.12-.05-.07.29-1,.26,1,.3-1.6.9.73-.15-.67,1.53,1.67L11,12.43l1.54,1.25-.39-1.46.86.71s-.39-.92-.35-.88l1.64,1.34-.54-1,.74.6,0-.65,1.18,1.26-.15.21a.68.68,0,0,0-.13.23c-.07.16-.11.39-.23.67a1.9,1.9,0,0,1-.79.87,4.51,4.51,0,0,1-.76.35l-.46.14-.47.1A4,4,0,0,1,10.62,16a7,7,0,0,1-1-.49A1.85,1.85,0,0,1,8.93,14.81Zm-.79-.28h0l-.1-.1-.1-.14-.25-.35-.26-.33-.08-.14a.36.36,0,0,1,0-.09s0,0,0-.06l.13,0h.07c.15.26.33.52.47.75l.06.09s0,.1.05.1l0,.23,0,.13Zm8.28-1.43h0s0,0,0,.05a.49.49,0,0,1,0,.15l-.08.17a.78.78,0,0,1-.11.2,2.72,2.72,0,0,1-.52.67c-.13.11-.25.19-.32.24.06-.23.1-.41.15-.54a.74.74,0,0,1,.12-.22l.13-.18.14.15.49-.7Zm9.48,8.74H17c0-.53-.07-1.06-.14-1.58v0a.05.05,0,0,0,0,0,1.16,1.16,0,0,0-.27-.18l-.31-.13a2,2,0,0,0-.61-.09,2.5,2.5,0,0,0-.07-.26l.25.15c.14.06.27.13.42.18a3.48,3.48,0,0,0,1,.19,4.58,4.58,0,0,0,.53,0A2,2,0,0,0,18,20a.76.76,0,0,0,.2-.06h0l0,0,.06,0,.09,0,.16-.07.29-.16a5,5,0,0,0,.54-.35,2.36,2.36,0,0,0,.63-.63l.08,0,.22.07a3.06,3.06,0,0,0,1.06.11,1.68,1.68,0,0,0,1-.4,1.38,1.38,0,0,0,.38-.68,1.28,1.28,0,0,0,.06-.34c0-.1,0-.21,0-.32a3.5,3.5,0,0,0-.57-1.92,2,2,0,0,0-.57-.56,2,2,0,0,0-.21-.12l-.21-.08a2,2,0,0,0-.49-.11,2.42,2.42,0,0,0-1,.07,1.16,1.16,0,0,0-.71.43l.06,0a1.26,1.26,0,0,1,.71-.32,2.42,2.42,0,0,1,.85,0l.36.11.18.09a1.13,1.13,0,0,1,.13.1,1.73,1.73,0,0,1,.41.49,3,3,0,0,1,.36,1.18,3.06,3.06,0,0,1,0,.6c0,.1,0,.21,0,.31a2.74,2.74,0,0,1-.05.28,1,1,0,0,1-.27.5.9.9,0,0,1-.54.24,2.16,2.16,0,0,1-.75-.06l-.2-.06-.13-.05a1.18,1.18,0,0,1-.25-.19,2.89,2.89,0,0,1-.61-1.11,5.52,5.52,0,0,1-.25-1l.22.06A1,1,0,0,0,20,16a.32.32,0,0,0,.18-.18.2.2,0,0,0,0-.1s0-.07,0-.1a.65.65,0,0,0-.24-.34,1.82,1.82,0,0,0-.89-.38,1.51,1.51,0,0,0-.56,0,.54.54,0,0,0-.4.32,1.49,1.49,0,0,0,0,.73l.08.34a1.23,1.23,0,0,1,0,.32.65.65,0,0,1-.26.53,2.62,2.62,0,0,1-.49.33A12.2,12.2,0,0,0,16,16.53l-.22-.11-.27-.11a2,2,0,0,0-.6-.08,3,3,0,0,0-1,.19,2.07,2.07,0,0,0-.15-.25l.06,0a4.37,4.37,0,0,0,.75-.45,2,2,0,0,0,.7-1l0-.1a1.61,1.61,0,0,0,.54-.1,1.68,1.68,0,0,0,.51-.27,1.62,1.62,0,0,0,.37-.42l.11-.24a1.19,1.19,0,0,0,.05-.26.6.6,0,0,0-.07-.27.43.43,0,0,0-.31-.19l0,0s.49-2.35-.37-3.12A5.91,5.91,0,0,0,12,8.35a6.76,6.76,0,0,0-4.65,2,1.49,1.49,0,0,0-.12,1.3,2.19,2.19,0,0,0,.25,1.46.39.39,0,0,0,.06.11h0a.84.84,0,0,0-.19,0,.43.43,0,0,0-.29.09.33.33,0,0,0-.12.24.53.53,0,0,0,0,.22,1.2,1.2,0,0,0,.23.41,1.88,1.88,0,0,0,.34.35,1,1,0,0,0,.22.16.86.86,0,0,0,.28.11.81.81,0,0,0,.27,0,1.46,1.46,0,0,0,.07.19,2,2,0,0,0,.87.85l.37.21-.19.36c-.94.12-1.87.28-2.8.46a11.4,11.4,0,0,0-1.39.37,1.7,1.7,0,0,0-.35.14l-.18.1-.12.09a5.41,5.41,0,0,0-.52.36,1.37,1.37,0,0,0-.43.5.86.86,0,0,0,0,.59,1.72,1.72,0,0,0,.25.53c.11.17.22.3.33.45l.63.9a5.24,5.24,0,0,0,.4.46,1.36,1.36,0,0,0,.47.29,2.25,2.25,0,0,0-.08.24H1.34v.41H5.46a.63.63,0,0,0,0,.27.38.38,0,0,0,.24.26.7.7,0,0,0,.47,0l.1,0,.06,0,.11-.05a.91.91,0,0,0,.24-.16l0,0a.82.82,0,0,0,.11.17.51.51,0,0,0,.29.17.46.46,0,0,0,.2,0h.12l.06,0a.57.57,0,0,0,.27-.16.66.66,0,0,0,.14-.2.07.07,0,0,1,0,0,.26.26,0,0,0,.11.09.3.3,0,0,0,.27,0,.25.25,0,0,0,.11-.09.58.58,0,0,0,.14-.17l.08-.17h0a.58.58,0,0,0,.28.07.7.7,0,0,0,.25-.06l0,0c0,.6,0,1.19,0,1.79l.08,1a1.25,1.25,0,0,0,.61,1,3.69,3.69,0,0,0,1.38.46c.5.09,1,.11,1.51.15s1,0,1.53,0a6.92,6.92,0,0,0,1.55-.19,2.15,2.15,0,0,0,.73-.31.83.83,0,0,0,.39-.57,9.64,9.64,0,0,0,.08-1.05c0-.69,0-1.38,0-2.07a.2.2,0,0,0,0-.07H25.9Z"/><path class="cls-5" d="M11.5,15.8a1.21,1.21,0,0,0,.32.1,2.46,2.46,0,0,0,.4,0,1.72,1.72,0,0,0,.7-.16.82.82,0,0,0,.25-.17,2.15,2.15,0,0,0-.33-.06,3,3,0,0,0-.31,0H12.2a5.7,5.7,0,0,0-.62,0l-.33,0a.7.7,0,0,0,.25.19"/><path class="cls-5" d="M8.83,3.46H9c.44,0,.86-.22.86-1,0-.6-.27-.93-.82-.93l-.18,0Zm-.4-2.11A2.73,2.73,0,0,1,9,1.3a1.57,1.57,0,0,1,.81.18,1,1,0,0,1,.47,1,1.15,1.15,0,0,1-.42,1,1.56,1.56,0,0,1-1,.25,3,3,0,0,1-.44,0Z"/><path class="cls-5" d="M11.72,2.65h0c0-.34-.18-.49-.37-.49s-.39.26-.4.49Zm-.78.2c0,.52.31.64.59.64a1.12,1.12,0,0,0,.41-.07l.06.2a1.75,1.75,0,0,1-.54.08.8.8,0,0,1-.9-.85.82.82,0,0,1,.83-.9.68.68,0,0,1,.71.75v.15Z"/><path class="cls-5" d="M12.41,3.4a1,1,0,0,0,.4.09c.22,0,.36-.1.36-.25s-.07-.22-.32-.33-.49-.29-.49-.49S12.65,2,13,2a1.16,1.16,0,0,1,.44.09l-.11.2a.79.79,0,0,0-.32-.07c-.22,0-.33.11-.33.21s.07.18.31.3.51.28.51.52-.33.5-.74.5a1.15,1.15,0,0,1-.49-.1Z"/><path class="cls-5" d="M15,2.65h0c0-.34-.18-.49-.37-.49s-.39.26-.41.49Zm-.78.2c0,.52.3.64.59.64a1.16,1.16,0,0,0,.41-.07l.06.2a1.77,1.77,0,0,1-.55.08.8.8,0,0,1-.9-.85.82.82,0,0,1,.84-.9.68.68,0,0,1,.7.75v.15Z"/><path class="cls-5" d="M15.71,2.42c0-.2,0-.3,0-.44H16l0,.2h0A.74.74,0,0,1,16.63,2a.54.54,0,0,1,.6.59V3.68h-.4V2.58c0-.2,0-.4-.34-.4a.38.38,0,0,0-.37.28.61.61,0,0,0,0,.15V3.68h-.39Z"/><path class="cls-5" d="M17.72,2.42c0-.14,0-.31,0-.44h.36l0,.27h0a.6.6,0,0,1,.52-.3h.08v.27h-.08a.47.47,0,0,0-.48.35.81.81,0,0,0,0,.16v.94h-.4Z"/><path class="cls-5" d="M19.16,2.83h0c0,.28.07.66.43.66s.41-.4.41-.66-.07-.66-.42-.66-.42.4-.42.66m1.24,0a.8.8,0,0,1-.83.88.78.78,0,0,1-.8-.88A.8.8,0,0,1,19.6,2,.78.78,0,0,1,20.4,2.83Z"/><path class="cls-5" d="M20.72,3.4a1,1,0,0,0,.4.09c.22,0,.36-.1.36-.25s-.07-.22-.32-.33-.5-.29-.5-.49S21,2,21.35,2a1.16,1.16,0,0,1,.44.09l-.11.2a.79.79,0,0,0-.32-.07c-.22,0-.33.11-.33.21s.06.18.31.3.51.28.51.52-.34.5-.74.5a1.15,1.15,0,0,1-.49-.1Z"/><path class="cls-5" d="M23.42,3.64A1.37,1.37,0,0,1,23,3.7a.82.82,0,0,1-.91-.86.89.89,0,0,1,1-.88,1.08,1.08,0,0,1,.35,0l-.08.22a.77.77,0,0,0-.28,0,.59.59,0,0,0-.57.66.56.56,0,0,0,.58.64.93.93,0,0,0,.29,0Z"/><path class="cls-5" d="M24.64,2.8h0c-.2,0-.68,0-.68.4a.28.28,0,0,0,.3.3.36.36,0,0,0,.37-.26.31.31,0,0,0,0-.09Zm.06.88,0-.18h0a.65.65,0,0,1-.5.21.52.52,0,0,1-.58-.49c0-.42.49-.61,1.05-.61V2.55c0-.23-.08-.38-.39-.38a1,1,0,0,0-.41.08l-.09-.19A1.48,1.48,0,0,1,24.32,2c.49,0,.71.23.71.61v.73a1.63,1.63,0,0,0,0,.39Z"/><path class="cls-5" d="M27.77,3.22c0,.19,0,.33,0,.46h-.34l0-.18h0a.73.73,0,0,1-.53.21c-.44,0-.61-.23-.61-.66V2h.4V3c0,.26.06.46.33.46a.35.35,0,0,0,.37-.38V2h.4Z"/><path class="cls-5" d="M28.27,2.42c0-.2,0-.3,0-.44h.34l0,.2h0A.74.74,0,0,1,29.19,2a.54.54,0,0,1,.6.59V3.68h-.4V2.58c0-.2-.05-.4-.34-.4a.38.38,0,0,0-.37.28.61.61,0,0,0,0,.15V3.68h-.39Z"/><path class="cls-5" d="M14.23,4.69v.45h.48v.21h-.48v1c0,.22.12.28.26.28h.16l0,.21a1.12,1.12,0,0,1-.29,0,.64.64,0,0,1-.39-.1.49.49,0,0,1-.15-.43v-1h-.3V5.14h.3V4.77Z"/><path class="cls-5" d="M15.93,6h0c-.21,0-.68,0-.68.39a.28.28,0,0,0,.3.3.36.36,0,0,0,.37-.25.34.34,0,0,0,0-.1Zm.05.88,0-.18h0a.6.6,0,0,1-.49.2c-.33,0-.59-.19-.59-.48s.5-.61,1.06-.62v0c0-.23-.08-.39-.4-.39a1.07,1.07,0,0,0-.41.09L15,5.22a1.46,1.46,0,0,1,.57-.11c.5,0,.72.22.72.61v.73a2.42,2.42,0,0,0,0,.39Z"/><path class="cls-5" d="M17.21,6.21h0a.61.61,0,0,0,0,.14.38.38,0,0,0,.37.29c.32,0,.43-.31.43-.65s-.13-.65-.44-.65a.39.39,0,0,0-.36.31.53.53,0,0,0,0,.13Zm-.4-.54c0-.26,0-.41,0-.53h.36l0,.22h0a.59.59,0,0,1,.52-.25c.43,0,.71.32.71.87s-.37.88-.76.88a.5.5,0,0,1-.43-.19h0v.84h-.4Z"/><path class="cls-5" d="M19.09,6h0c0,.28.08.66.43.66s.41-.4.41-.66-.07-.66-.42-.66-.42.4-.42.66m1.24,0h0a.79.79,0,0,1-.83.87A.77.77,0,0,1,18.7,6a.8.8,0,0,1,.83-.88A.78.78,0,0,1,20.33,6Zm-.21-1.55-.54.48h-.26l.39-.48Z"/><path class="cls-5" d="M20.72,5.58c0-.2,0-.3,0-.44H21l0,.2h0a.71.71,0,0,1,.57-.23.54.54,0,0,1,.6.59V6.84h-.4V5.74c0-.2-.05-.4-.34-.4a.37.37,0,0,0-.37.28.61.61,0,0,0,0,.15V6.84h-.39Z"/><path class="cls-5" d="M23.88,6.21h0a.61.61,0,0,0,0,.14.38.38,0,0,0,.37.29c.32,0,.43-.31.43-.65s-.13-.65-.44-.65a.39.39,0,0,0-.36.31.53.53,0,0,0,0,.13Zm-.4-.54c0-.26,0-.41,0-.53h.36l0,.22h0a.6.6,0,0,1,.52-.25c.43,0,.72.32.72.87a.77.77,0,0,1-.77.88.51.51,0,0,1-.43-.19h0v.84h-.4Z"/><path class="cls-5" d="M26.4,6h0c-.2,0-.68,0-.68.39a.28.28,0,0,0,.3.3.34.34,0,0,0,.37-.25.34.34,0,0,0,0-.1Zm.06.88,0-.18h0a.62.62,0,0,1-.49.2c-.34,0-.59-.19-.59-.48s.49-.61,1.05-.62v0c0-.23-.08-.39-.39-.39a1,1,0,0,0-.41.09l-.09-.19a1.48,1.48,0,0,1,.58-.11c.5,0,.71.22.71.61v.73a1.63,1.63,0,0,0,0,.39Z"/><path class="cls-5" d="M27.29,5.58c0-.15,0-.32,0-.44h.35l0,.27h0a.58.58,0,0,1,.52-.3h.08v.28h-.08a.46.46,0,0,0-.47.35.78.78,0,0,0,0,.16v.94h-.39Z"/><path class="cls-5" d="M29.4,6h0c-.2,0-.68,0-.68.39a.28.28,0,0,0,.3.3.35.35,0,0,0,.37-.25.34.34,0,0,0,0-.1Zm.06.88,0-.18h0a.64.64,0,0,1-.5.2c-.33,0-.59-.19-.59-.48s.5-.61,1.06-.62v0c0-.23-.08-.39-.39-.39a1,1,0,0,0-.41.09l-.09-.19a1.48,1.48,0,0,1,.58-.11c.49,0,.71.22.71.61v.73a2.42,2.42,0,0,0,0,.39Z"/><path class="cls-5" d="M22.06,8.73c0-.2,0-.3,0-.43h.34l0,.21h0A.65.65,0,0,1,23,8.27a.53.53,0,0,1,.52.26h0a.69.69,0,0,1,.25-.2.86.86,0,0,1,.34-.06.54.54,0,0,1,.59.6V10h-.39V8.93c0-.22,0-.44-.34-.44a.39.39,0,0,0-.37.26.71.71,0,0,0,0,.15V10h-.39V8.88c0-.19-.05-.39-.34-.39a.37.37,0,0,0-.37.28.61.61,0,0,0,0,.15V10h-.39Z"/><path class="cls-5" d="M25.18,10h0V8.3h.4V10Zm.43-2.13c0,.1-.09.17-.24.17s-.23-.07-.23-.17a.21.21,0,0,1,.23-.18C25.52,7.68,25.61,7.75,25.61,7.86Z"/><path class="cls-5" d="M26.07,8.73c0-.14,0-.31,0-.43h.35l0,.26h0A.59.59,0,0,1,27,8.27H27v.28H27a.46.46,0,0,0-.47.36.68.68,0,0,0,0,.15V10h-.39Z"/><path class="cls-5" d="M28.18,9.12h0c-.2,0-.68,0-.68.39a.28.28,0,0,0,.3.3.35.35,0,0,0,.37-.25.38.38,0,0,0,0-.1Zm.06.87,0-.18h0a.62.62,0,0,1-.49.21c-.34,0-.59-.19-.59-.48s.49-.62,1.05-.62V8.87c0-.23-.08-.39-.39-.39a1,1,0,0,0-.41.09l-.09-.19a1.48,1.48,0,0,1,.58-.11c.5,0,.71.22.71.6v.74a1.54,1.54,0,0,0,0,.38Z"/><path class="cls-5" d="M29.07,8.73c0-.14,0-.31,0-.43h.35l0,.26h0A.59.59,0,0,1,30,8.27H30v.28H30a.46.46,0,0,0-.47.36.68.68,0,0,0,0,.15V10h-.39Z"/><path class="cls-5" d="M21.3,12.1h0a.37.37,0,0,0,0-.11.39.39,0,0,0-.37-.33c-.33,0-.44.31-.44.65s.13.64.42.64a.38.38,0,0,0,.38-.29.36.36,0,0,0,0-.11Zm.38-1.38v2c0,.12,0,.31,0,.41h-.33l0-.21h0a.63.63,0,0,1-.52.24c-.42,0-.72-.31-.72-.87s.36-.89.74-.89a.5.5,0,0,1,.45.21h0v-.91Z"/><path class="cls-5" d="M23.24,12.13h0c0-.34-.18-.5-.37-.5s-.39.26-.4.5Zm-.78.2c0,.52.3.63.59.63a1.12,1.12,0,0,0,.41-.07l.06.2a1.75,1.75,0,0,1-.54.08.79.79,0,0,1-.9-.85.82.82,0,0,1,.83-.9.68.68,0,0,1,.71.76.71.71,0,0,1,0,.15Z"/><path class="cls-5" d="M24,11.89c0-.2,0-.3,0-.44h.34l0,.21h0a.67.67,0,0,1,.56-.24.54.54,0,0,1,.6.59v1.14h-.39V12.06c0-.2-.06-.41-.35-.41a.38.38,0,0,0-.37.28.66.66,0,0,0,0,.15v1.07H24Z"/><path class="cls-5" d="M26.46,11v.45h.48v.21h-.48v1c0,.22.12.28.26.28h.16l0,.2a1.12,1.12,0,0,1-.29,0,.64.64,0,0,1-.39-.1c-.1-.08-.15-.19-.15-.43v-1h-.3v-.21h.3v-.37Z"/><path class="cls-5" d="M27.23,11.89c0-.14,0-.31,0-.44h.35l0,.27h0a.63.63,0,0,1,.53-.3h.08v.28h-.08a.46.46,0,0,0-.48.36.61.61,0,0,0,0,.15v.94h-.39Z"/><path class="cls-5" d="M28.67,12.3h0c0,.28.07.67.43.67s.4-.41.4-.67-.06-.66-.41-.66-.42.4-.42.66m1.23,0a.79.79,0,0,1-.82.88.78.78,0,0,1-.81-.87.8.8,0,0,1,.83-.89A.78.78,0,0,1,29.9,12.3Z"/><path class="cls-6" d="M13.79,18.85s.05-2.23,0-2.41a3.29,3.29,0,0,1-.1-.36,4.33,4.33,0,0,0,1.17-.79,6.08,6.08,0,0,1,.47-.67s.29-.12.27,0A21.21,21.21,0,0,1,14.31,19Z"/><path class="cls-6" d="M9.8,16a17.43,17.43,0,0,0,.28,1.89c.17.55.37,1.23.37,1.23l-.19.23,0,.34,0,.32-.57.21a6.16,6.16,0,0,0-.56-1.56,32.68,32.68,0,0,1-1.13-4,.36.36,0,0,1,.5.1A14.67,14.67,0,0,0,9.8,16"/></svg>