<svg id="Capa_1" data-name="Capa 1" xmlns="http://www.w3.org/2000/svg" viewBox="0 0 21.6 23.52"><defs><style>.cls-1{fill:#f5a4c7;}.cls-2{fill:#fbcabb;}.cls-3{fill:#231f20;}</style></defs><title>1-18meses</title><path class="cls-1" d="M15.34,14.23s.14-.46-.68-.53-6.8-.21-6.8-.21l-.21,1.22,2.75,3.52,1.94.11Z"/><path class="cls-2" d="M11.15,3.77c.07,0,1.11.86,1.43,1S14,5.65,14,5.84s-.18,1.72-.2,1.78-.68,1-.27,1.57a6.68,6.68,0,0,1,1,1.83c.11.52.18,2.68.18,2.68s-2.95.53-3.26.53-2-.11-2.35-.15l-1-.13s-.49.23-.27.38,1.21,0,1.76.41,1.18.7,1.17,1.27.36,1.5.21,1.81l-.18.41a2,2,0,0,1-.59.32c-.3.07-.25.12-.25.12l.81.67a1.28,1.28,0,0,1,.46-.88,5.28,5.28,0,0,0,.89-1.05s-.62-.28-.62-.66a5.12,5.12,0,0,1,2-2.21,4.91,4.91,0,0,1,3.19-.49c.86.22,1.88,1.39,1.49,2.21A3.18,3.18,0,0,1,16.37,18c-.76.22-1.4.46-1.4.46s.6.89-.2,1.14-1.33-.05-1.49.09a.79.79,0,0,1-.76.32,8.26,8.26,0,0,1-1.61-.24c-.07,0-.72.83-.94,1a7,7,0,0,0-.74,1,.53.53,0,0,1-.45.35A1.77,1.77,0,0,1,8,21.9a2.85,2.85,0,0,1-1-.42c-.2-.24-.25-.45,0-.63a4.89,4.89,0,0,0,.65-.68l.13-.47a7.66,7.66,0,0,1-1.61-1.85c-.22-.64-1-2.55-.47-3s.87-.53.9-.6a1.82,1.82,0,0,0,0-.44S5,14,4.82,13.77s-.18-.42-.26-.65-.27-.46-.19-.55A2.79,2.79,0,0,1,5,12.38S4.91,12,5.13,12a3.52,3.52,0,0,1,.72.06l.28.17L7.2,12a.82.82,0,0,1,.13-.72A2.75,2.75,0,0,1,8.81,9.94c.78-.24,1.41-.36,1.41-.36V9.19a2,2,0,0,1-.91.11C9,9.21,9,9,8.86,8.89s-.14-.38-.3-.54S8.11,8.12,8,8a.67.67,0,0,1,.05-.63c.11-.11-.07-.62-.63-1.21s-.88-1.45-.6-1.72A7.24,7.24,0,0,1,9.34,3.32a2.64,2.64,0,0,1,1.81.45"/><path class="cls-3" d="M14.1,13.59h0c-.4.05-.82.14-1.26.24l-.68.15-.72.13a4.53,4.53,0,0,1-.74.05,3.92,3.92,0,0,1-.71-.1c-.23-.05-.44-.12-.65-.16s-.42-.06-.62-.08H8.43l-.28,0a.65.65,0,0,0-.43.2.22.22,0,0,0,0,.22h0l-.26,0H7l.08-.39a13.15,13.15,0,0,0,1.55-.11,6.91,6.91,0,0,0,1.71-.42,3.34,3.34,0,0,0,.38-.17l.36-.18a7.33,7.33,0,0,0,.67-.39A10,10,0,0,0,13,11.71l0,0c-.46.24-.92.48-1.39.71-.23.12-.47.22-.71.33l-.36.15a3.44,3.44,0,0,1-.37.14,7.9,7.9,0,0,1-1.58.32,15.81,15.81,0,0,1-1.68.12h0a.31.31,0,0,0-.13,0,4.14,4.14,0,0,1-.49.19l-.11,0-.14,0-.3,0-.28,0H5.22a.28.28,0,0,0-.08-.11,1.43,1.43,0,0,0-.27-.16c-.1,0-.11-.06-.12-.09s0-.06,0-.12a.35.35,0,0,1,.06-.09.18.18,0,0,0,0-.19,1.29,1.29,0,0,0-.17-.21.57.57,0,0,1-.13-.16v0s0,0,0,0l0,0a1.24,1.24,0,0,1,.51-.11h0c.05,0,.08,0,.06-.08a.34.34,0,0,1,0-.24c0-.07.13-.1.24-.1h.2l.19,0a.52.52,0,0,1,.15.06l0,0s0,0,0,0l.1.07a5.14,5.14,0,0,0,.7-.09A5.77,5.77,0,0,0,7.43,12a4.77,4.77,0,0,1,.62-.17l.31-.05.15,0h.13a.23.23,0,0,0,.16,0h0c.61-.4,1.22-.81,1.86-1.19a4.61,4.61,0,0,1,1-.52,2.14,2.14,0,0,1,.57-.12,1.65,1.65,0,0,1,.59.07l0,0a1.89,1.89,0,0,0-1.31-.1,5.57,5.57,0,0,0-1.13.48,16.32,16.32,0,0,0-1.87,1.14h-.1l-.19,0-.34.09a5.16,5.16,0,0,0-.63.23l-.11,0c.09-.09.23-.22.38-.39A4.14,4.14,0,0,0,8,10.91l.41-.64a.87.87,0,0,1,.3-.27,1,1,0,0,1,.47-.09h.47a1.65,1.65,0,0,0,.48-.1.49.49,0,0,0,.31-.28.35.35,0,0,0,0-.23l-.06-.12.25-.13q.39-.21.75-.45l0,0c-.26.14-.53.27-.81.4l-.43.16a1.38,1.38,0,0,1-.42.09,1.31,1.31,0,0,1-.42-.05.23.23,0,0,1-.11-.07s0,0,0-.14a.32.32,0,0,0-.15-.2c-.06,0,0,0,0-.06s0,0,.06,0H9l.16,0h0c.1,0,.16-.08.14-.15a.19.19,0,0,0-.23-.11H9a.9.9,0,0,1-.3,0h0l0-.06V8.23h0L8.55,8a1.27,1.27,0,0,1-.36-.08l-.07,0s0,0,0-.05.11-.11.23-.24a.51.51,0,0,0,.11-.43V7A.23.23,0,0,0,8.4,7a.72.72,0,0,0-.14-.19L8,6.49a1.7,1.7,0,0,1-.38-.55,2.83,2.83,0,0,1-.21-.55,3,3,0,0,0,.75-.49c-.18.17-.9.91-.3.86s1-.64,1.27-1c-.17.24-.42.63-.18.58A2.3,2.3,0,0,0,9.66,5s-.25.61,0,.53.52-.48.52-.48-.13.88.25,1,.29-.52.29-.52l.1.66L11,5.59s-.08.68.15.82.4-.46.4-.46l-.18,1s.64-.7.66-1,.75.35.77.66-.25.47-.36.78-.43.7-.25,1.16a1.08,1.08,0,0,1,.4-.57s-.2.59,0,.79a2.63,2.63,0,0,1,.5-.7L13,8.55l.28-.13-.09.14a.54.54,0,0,0-.06.42.93.93,0,0,0,.23.35,2.12,2.12,0,0,1,.44.55,6.61,6.61,0,0,1,.49,1.25,8.67,8.67,0,0,1,.29,1.3,3.65,3.65,0,0,1,.06,1.14,2.37,2.37,0,0,0-.53,0m-8.85.25Zm5.85,4.6h0a1.64,1.64,0,0,0-.26.33,1.43,1.43,0,0,0-.17.43.48.48,0,0,0-.09-.11,2.25,2.25,0,0,0-.39-.3.48.48,0,0,1-.14-.15l.18,0a1.38,1.38,0,0,0,.54-.26h0l0,0S10.89,18.41,11.1,18.44ZM5.32,17h0l-.25,0-.26,0-.29,0-.25-.05s0,0,0,0a.23.23,0,0,1,.09-.06.83.83,0,0,1,.32,0c.11,0,.2,0,.29,0a1.08,1.08,0,0,0,.31,0,1.39,1.39,0,0,0,.29-.1c0,.11.06.22.1.33Zm12.8-2.35A2.59,2.59,0,0,0,16.78,14a5.69,5.69,0,0,0-.8-.11h-.41l-.28,0a.69.69,0,0,0-.18-.19,1,1,0,0,0-.39-.14,3.79,3.79,0,0,0,.12-1.16,9.89,9.89,0,0,0-.18-1.33,6,6,0,0,0-.44-1.32c-.2-.47-.83-.79-.59-1.1l.25-.42-.08.39A5.13,5.13,0,0,1,14.19,8V8.5L14.57,8a4.62,4.62,0,0,0,1-2.31c.14-1.34,0-2.27-.63-2.69a3.28,3.28,0,0,0-1.65-.38s-.07-.83-2.81-.59-4.68,1.75-4.68,2,.38,0,.59-.2a8.36,8.36,0,0,0-1,.87c-.09.17.75-.23.75-.23S5,6.05,5.25,5.88A11.08,11.08,0,0,1,6.4,5.37s-1.34.84-.74.65c0,0,.58-.16,1.2-.4A2.82,2.82,0,0,0,7,6.07a2.29,2.29,0,0,0,.47.64l.3.26a.35.35,0,0,1,.08.1.24.24,0,0,1,0,.07v0h0v0a.22.22,0,0,1,0,.21c0,.07-.19.15-.26.34a.31.31,0,0,0,0,.27A.64.64,0,0,0,8,8.19a2,2,0,0,0,.33.08v.07a.66.66,0,0,0,0,.11.37.37,0,0,0,.14.14l.08,0v.05a.3.3,0,0,0,.15.25c.06,0,.08.05.09.08a.38.38,0,0,0,.07.2.58.58,0,0,0,.25.15,1.85,1.85,0,0,0,.56.05,1.35,1.35,0,0,0,.51-.14h0l0,.05-.1.15a.38.38,0,0,1-.17.08l-.36.06a2.39,2.39,0,0,0-.47.13l-.48.18-.45.25a1.56,1.56,0,0,0-.38.28,2.91,2.91,0,0,0-.3.31,1.82,1.82,0,0,0-.21.3,2.53,2.53,0,0,0-.14.29,1.74,1.74,0,0,0-.12.6L6.69,12a3.48,3.48,0,0,1-.56.12v0A.27.27,0,0,0,6,12,.9.9,0,0,0,5.83,12l-.22,0H5.39a.5.5,0,0,0-.24,0,.3.3,0,0,0-.18.14.33.33,0,0,0,0,.24,1.35,1.35,0,0,0-.55.11.33.33,0,0,0-.14.12s0,0,0,.08,0,0,0,.07a1.26,1.26,0,0,0,.13.23.48.48,0,0,1,.11.17s0,0,0,0a.44.44,0,0,0-.08.1.34.34,0,0,0-.08.28.49.49,0,0,0,.24.25.9.9,0,0,1,.19.12,0,0,0,0,1,0,0h0l0,0h0a.22.22,0,0,0,0,.05.3.3,0,0,0,.2.09,1.38,1.38,0,0,0,.39,0l.32,0,.31,0,.16,0,.19,0,.11,0-.07.32a1.48,1.48,0,0,0-.73.44,1.55,1.55,0,0,0-.3.64,3,3,0,0,0,0,1.13H5.16a2.23,2.23,0,0,0-.26,0,1.46,1.46,0,0,0-.34.1l-.33.12a.6.6,0,0,0-.18.09A.14.14,0,0,0,4,17a.65.65,0,0,0,.31.23,1.7,1.7,0,0,0,.36.11,1.75,1.75,0,0,0,.69,0,2.86,2.86,0,0,0,.31-.1,3.16,3.16,0,0,0,.22.5,4.79,4.79,0,0,0,.6.95,4.52,4.52,0,0,0,.74.72,4.6,4.6,0,0,0,.55.38,3.27,3.27,0,0,0-.46.55l0,.07,0,.07-.14.13a.64.64,0,0,1-.15.13.46.46,0,0,1-.07.07l-.08.06,0,0h0a.31.31,0,0,0,0,.38.54.54,0,0,0,.29.18.23.23,0,0,0,0,.11.22.22,0,0,0,.15.11c.13,0,.18,0,.18,0s-.05-.05,0-.09,0,0,.07-.08a.47.47,0,0,0,0-.17.37.37,0,0,0,0-.1.56.56,0,0,0-.16,0,.33.33,0,0,0-.17.16A.35.35,0,0,1,7,21.25.28.28,0,0,1,7.05,21l.08,0,.1-.07.18-.15a1.17,1.17,0,0,0,.15-.16.35.35,0,0,0,.06-.09.18.18,0,0,0,0-.09,2.1,2.1,0,0,0,.19-.6l.11.07a4.31,4.31,0,0,0,.71.32l0,0a4.92,4.92,0,0,1-.59-.4,6,6,0,0,1-.58-.51,6.31,6.31,0,0,1-.59-.72,7.4,7.4,0,0,1-.49-.93,8.46,8.46,0,0,1-.4-1.07,3,3,0,0,1-.14-1.15,1,1,0,0,1,.7-.94A2.74,2.74,0,0,1,7,14.39h.45c.3,0,.6,0,.89.06A3.37,3.37,0,0,1,9.83,15a2,2,0,0,1,.7.94,5.36,5.36,0,0,1,.27,1,2.92,2.92,0,0,1,0,.82,1,1,0,0,1-.26.58,1.06,1.06,0,0,1-.39.29L10,18.6a.44.44,0,0,1,0-.1,2,2,0,0,1,.09-.37c0-.12.05-.26.07-.39a1.87,1.87,0,0,0,0-.41,1,1,0,0,0-.15-.42,1.3,1.3,0,0,0-.92-.53l0,0a1.1,1.1,0,0,1,.58.59,1,1,0,0,1,.06.34c0,.12,0,.25,0,.38s0,.25,0,.38a1.23,1.23,0,0,0,0,.42.64.64,0,0,0,.36.38,1.16,1.16,0,0,1,.4.26.78.78,0,0,1,.29.68.26.26,0,0,1-.07.15s0,0-.05.05l-.1.06c-.12.08-.25.12-.44.22a.73.73,0,0,0-.36.42,3,3,0,0,1-.16.36,1.11,1.11,0,0,1-.59.48H9l-.05,0c-.08,0-.12.1-.09.17a.68.68,0,0,1,0,.14.23.23,0,0,1,0,.11s0,0-.1.05H8.57l-.07,0-.09,0L8.34,22a.26.26,0,0,1-.07-.15.72.72,0,0,1,.11-.36l-.05,0a.83.83,0,0,0-.23.38.32.32,0,0,0,0,.23.5.5,0,0,0,.1.11l.16.07.06,0h.1l.18,0a.78.78,0,0,0,.21,0,.56.56,0,0,0,.19-.09A.46.46,0,0,0,9.32,22a.56.56,0,0,0,0-.12,1.94,1.94,0,0,0,.4-.22,1.44,1.44,0,0,0,.32-.4,2.88,2.88,0,0,0,.15-.4.37.37,0,0,1,.17-.26,2.58,2.58,0,0,0,.43-.28.84.84,0,0,0,.17-.2.38.38,0,0,0,0-.17l.05,0a2.25,2.25,0,0,0,.86.23,3.1,3.1,0,0,0,.91,0,.84.84,0,0,0,.26-.07l.19-.09a2.72,2.72,0,0,1,.28-.15.64.64,0,0,1,.24,0H14l.23,0a1,1,0,0,0,.87-.34l0,0a.72.72,0,0,0,.19-.25.26.26,0,0,0,0-.27h0a.17.17,0,0,0,.08-.09c0-.14-.17-.18-.17-.18s-.08.12-.09.14,0,0,0,0h0a.57.57,0,0,0-.15,0,.32.32,0,0,0-.21.1.49.49,0,0,0-.14.24h.05a.84.84,0,0,1,.2-.18s.09,0,.1,0h0l0,0s0,0,0,0,0,.09,0,.15a.74.74,0,0,1-.19.16l0,0a.63.63,0,0,1-.47.14l-.16,0-.25,0a1.18,1.18,0,0,0-.53.07c-.3.1-.5.25-.63.26a3.69,3.69,0,0,1-.68,0,1.83,1.83,0,0,1-.63-.14.54.54,0,0,1-.3-.35,1.18,1.18,0,0,1,.32-1c.12-.15.3-.29.45-.45a3.06,3.06,0,0,0,.4-.49c.11-.18.19-.36.28-.53l.3-.49a2.39,2.39,0,0,1,.92-.77,13.07,13.07,0,0,1,1.3-.62l0,0a6.33,6.33,0,0,0-.78.16c-.26.08-.5.16-.74.26a4.07,4.07,0,0,0-.65.37,1.66,1.66,0,0,0-.48.51,2.16,2.16,0,0,0-.21.55,4.61,4.61,0,0,1-.15.53,1.31,1.31,0,0,1-.31.49l-.34.31v0L11,18a1.57,1.57,0,0,0,.15-.32,2,2,0,0,0,.06-.89,3.35,3.35,0,0,0-.27-1,2.29,2.29,0,0,0-1-1,4.86,4.86,0,0,0-1.66-.48,5,5,0,0,0-.56-.06v0a.17.17,0,0,1,.09-.12.63.63,0,0,1,.28,0l.2,0,.26,0,.59.08a5.31,5.31,0,0,0,.7,0c.49,0,1,0,1.52.06a4.15,4.15,0,0,0,.79,0c.27,0,.5-.06.75-.1a10.75,10.75,0,0,0,1.23-.29,2,2,0,0,1,.44-.09.84.84,0,0,1,.32,0l.18.08h0a6.51,6.51,0,0,0-1.46.38,5.34,5.34,0,0,0-1.17.6,3.75,3.75,0,0,0-.79.73,2.13,2.13,0,0,0-.24.38,1.18,1.18,0,0,0-.11.37.92.92,0,0,0,.12.61,1.35,1.35,0,0,0,.3.32.57.57,0,0,0,.15.09l0,0-.1-.11a.84.84,0,0,1-.17-.33.85.85,0,0,1,0-.52.91.91,0,0,1,.14-.3,1.59,1.59,0,0,1,.25-.33,6.11,6.11,0,0,1,.73-.67,7.09,7.09,0,0,1,1-.66A3.85,3.85,0,0,1,15.2,14l.37,0c.13,0,.26,0,.38,0a4,4,0,0,1,.72.16,2.57,2.57,0,0,1,.6.29,1.63,1.63,0,0,1,.44.37,1.13,1.13,0,0,1,.28.9,4.77,4.77,0,0,1-.13.47,3.2,3.2,0,0,1-.17.43,2.19,2.19,0,0,1-.61.68,5.3,5.3,0,0,1-.77.47c-.24.14-.47.24-.66.33s-.34.16-.45.21l-.15.07,0,0,.68-.19c.22-.06.47-.15.76-.26a5.38,5.38,0,0,0,.91-.44,2.56,2.56,0,0,0,.8-.77,2.33,2.33,0,0,0,.21-.49,3.62,3.62,0,0,0,.12-.52A1.46,1.46,0,0,0,18.12,14.68Z"/><path class="cls-3" d="M14.85,18.63l-.07,0-.13.07-.1.09h.16l.15,0h.08l0,0h.07a.24.24,0,0,0,.16-.14c0-.07-.05-.13-.09-.15a.27.27,0,0,0-.13,0,.21.21,0,0,0,0-.06.17.17,0,0,0,0-.14.18.18,0,0,0-.09-.07h0l.06-.06a.34.34,0,0,0,0-.24.26.26,0,0,0-.09-.09,1.11,1.11,0,0,0-.43-.12,2.14,2.14,0,0,0-.44,0,1,1,0,0,0-.24.05.55.55,0,0,0-.13.05l0,0,0,0h0a1.48,1.48,0,0,1-.29.11l-.64.18-.65.16s.28,0,.69-.06c.2,0,.44-.06.69-.12a1.2,1.2,0,0,0,.4-.16l0,0h0l0,0,.05,0,.17,0a1.15,1.15,0,0,1,.37,0,1.05,1.05,0,0,1,.3.06h0l0,.05a.14.14,0,0,1,0,.09.33.33,0,0,1-.18.13l-.46.12-.17.06.19,0c.11,0,.28,0,.5-.07a.68.68,0,0,0,.24-.1.1.1,0,0,1,0,.09.22.22,0,0,1-.07.06l0,0,0,0-.2.1-.14.06a.7.7,0,0,0,.16,0,.57.57,0,0,0,.37-.08.12.12,0,0,0,.05-.05l0,.08a0,0,0,0,1,0,0l-.07,0h0Z"/><path class="cls-3" d="M7.81,21.79h0s0,0,0,0a1,1,0,0,1,0-.19.84.84,0,0,0,0-.13.78.78,0,0,0-.17.07.46.46,0,0,0-.12.12.21.21,0,0,0,0,.19.23.23,0,0,0,.09.11.37.37,0,0,0,.14.07.64.64,0,0,0,.24,0,.48.48,0,0,0,.18-.08l-.17-.07-.1-.06"/><path class="cls-3" d="M9,6.57c-.54,0-.27.26-.27.26s.1-.16.23-.17a.28.28,0,0,0,.29.3c.25,0,.15-.17.09-.27a3.5,3.5,0,0,1,.5.14A1.35,1.35,0,0,0,9,6.57"/><path class="cls-3" d="M10.22,6.44l.18.07-.18-.07"/><path class="cls-3" d="M8.15,6.45s-.12-.33.73-.28a5,5,0,0,1,1.34.27A7,7,0,0,0,8.62,6c-.47,0-.71.26-.47.45"/><path class="cls-3" d="M13.61,2.61a2.42,2.42,0,0,1,2.32,1.32c.64,1.46.72,3.33-.93,4.36a25.22,25.22,0,0,1-3,1.63l-1.3.41a19.7,19.7,0,0,0,1.56-2.27c.24-.58,1.87-1.3,1.75-2.71a25.22,25.22,0,0,0-.4-2.74"/><path class="cls-3" d="M11.84,12.27s.59.23.42.46a1.17,1.17,0,0,0-.19.56,2.1,2.1,0,0,1-.8-.41c-.21-.24.57-.61.57-.61"/></svg>