<svg id="Capa_1" data-name="Capa 1" xmlns="http://www.w3.org/2000/svg" viewBox="0 0 21.36 26.1"><defs><style>.cls-1{fill:#f5a4c7;}.cls-2{fill:#fbcabb;}.cls-3{fill:#231f20;}</style></defs><title>2-18meses</title><path class="cls-1" d="M8,12.9s-1.56.12-2,.93.21,2.05,1.44,2.54,4.73-.14,4.73-.14,1.9-1.14,1-2S8,12.9,8,12.9"/><path class="cls-2" d="M7.55,8.38S4.85,9,4.26,9.94s-1.86,2.84-1.79,3.2.27.57.67.48a5.62,5.62,0,0,1,1.1-.07l.57,0c.05,0,.47-.26.67-.21s.53.15.56-.14.12-.4-.18-.65a1.61,1.61,0,0,1-.4-.42,5.23,5.23,0,0,0,1.06-1.09c.15-.35.28-.7.38-.7s.65-.1.65-.1-.15.84-.17,1.24a10.5,10.5,0,0,1-.62,1.76A5.88,5.88,0,0,0,9,14.52a7,7,0,0,0,3.89.11,2.07,2.07,0,0,0,1.13-1c.05-.11.16-1.91.16-1.91a6.52,6.52,0,0,0,1,.7,3.5,3.5,0,0,0,1.05.26,2.27,2.27,0,0,0-.2.87,3.56,3.56,0,0,0,1.69.7c.38,0,1.48-.7,1.45-1.18a2.54,2.54,0,0,0-.61-1.14,8.26,8.26,0,0,1-2-1c-.21-.32-.75-1.17-.86-1.36a10.62,10.62,0,0,0-.93-1s1.39-1.1,1.29-1.41-.91-1.52-.15-2.33A.64.64,0,0,0,15.55,4a9.66,9.66,0,0,0-2.42-.45,11.71,11.71,0,0,0-3,.09c-.19.09-1.5,1.12-1.5,1.12S8,6.5,8.59,7s.95.8.95.8a8.19,8.19,0,0,1-2,.55"/><path class="cls-2" d="M6.64,15.38a4.45,4.45,0,0,0,.55,1.33,7.2,7.2,0,0,0,1,.75,9.74,9.74,0,0,0-1.4.93c-.22.26-.47,1.45-.87,1.58s-1.25.49-.44,1.27a7.63,7.63,0,0,0,2.6,1.58c.44.09,1.07-.29,1.33-.35s.7-.49.38-.72a10.55,10.55,0,0,0-1.24-.61,2.68,2.68,0,0,1-.45-.67S10,19,10,19a2.8,2.8,0,0,1,.33-.18,3.28,3.28,0,0,0,0,1.78c.29.62.5.93.21,1.23s-.45.41-.35.75a4.64,4.64,0,0,0,1.33,1.76,8.28,8.28,0,0,0,1.71.17,3.13,3.13,0,0,0,1.5-.34c.11-.11-.17-.46-.45-.63s-1.17-1-1.2-1.2A3.59,3.59,0,0,1,13.65,20a1.71,1.71,0,0,0,.07-2.22,13.24,13.24,0,0,0-1.81-1.76c-.67-.52-5.44-2.49-5.27-.67"/><path class="cls-3" d="M12.94,5.91l.18.09s.07-.26-.75-.2a2.8,2.8,0,0,0-1.52.72s1.57-.82,2.09-.61"/><path class="cls-3" d="M12.68,6.46a.39.39,0,0,1,0-.14h.18s0-.15-.33-.1a9.36,9.36,0,0,0-1,.31l.61-.09s-.11.13.15.18.51-.06.47-.15"/><path class="cls-3" d="M14.75,6.08c-.26.08-.25.15-.25.15.32-.08.05.11.25.16a.29.29,0,0,0,.36-.16c.05-.11-.12-.13,0-.14a.75.75,0,0,1,.29.06c.05-.2-.36-.15-.62-.07"/><path class="cls-3" d="M12.25,7.6a1.18,1.18,0,0,0,.76.33,1.92,1.92,0,0,0,1.2-.08c.17-.14.12-.27.29-.34a4.56,4.56,0,0,1-1.22.17c-.56,0-1-.08-1-.08"/><path class="cls-3" d="M13.28,8.16c-.48-.12-.78,0-.56.11s1.06,0,.56-.11"/><path class="cls-3" d="M10.54,7.38l0,0Z"/><path class="cls-3" d="M18.69,13h0a1.46,1.46,0,0,1-.2.63A.6.6,0,0,1,18,14a1.61,1.61,0,0,1-.44,0,1.32,1.32,0,0,1-.4-.11.83.83,0,0,1-.21-.16l.16,0,.23.05a1.07,1.07,0,0,0,.44,0,.77.77,0,0,0,.31-.12.32.32,0,0,0,.08-.09l-.05,0-.1,0-.24-.07a1.57,1.57,0,0,0-.34-.07h-.38a.32.32,0,0,1-.21-.1.43.43,0,0,1-.06-.22.08.08,0,0,0,0,0,1.67,1.67,0,0,0,.42.07,4.6,4.6,0,0,0,.93-.08v0a6.39,6.39,0,0,1-.84-.14.52.52,0,0,1-.26-.12s0,0,0,0h0l0-.08h0s0,0,.05-.06a1.72,1.72,0,0,1,.28-.18v0a.86.86,0,0,0-.46-.08.74.74,0,0,0-.28.08.38.38,0,0,0-.13.09l0,.06v0l0,.08a.26.26,0,0,0,0,.15.39.39,0,0,0,.19.23l-.07.08a.54.54,0,0,0-.08.27.2.2,0,0,1-.11-.09.46.46,0,0,1,0-.09s0-.06,0-.11,0-.08,0-.13a.45.45,0,0,1,0-.11,2.16,2.16,0,0,1,.2-.51l.12-.28a1.33,1.33,0,0,0-.41.13,1,1,0,0,0-.46.42l-.1-.06L15.1,12c-.22-.16-.46-.32-.66-.44l-.19-.09a8.19,8.19,0,0,0-.3-1c-.13-.34-.23-.54-.23-.54h-.06s0,.2,0,.55.06.86.07,1.45a8.08,8.08,0,0,1,0,.95,2.7,2.7,0,0,1-.21,1,1.57,1.57,0,0,1-1,.68,4.86,4.86,0,0,1-1.59.23A6.74,6.74,0,0,1,7.81,14a2.75,2.75,0,0,1-.53-.37c-.16-.12-.2-.28-.16-.27a2.09,2.09,0,0,0,.42-1,7.07,7.07,0,0,0,.11-1.47q0-.24,0-.39a9.15,9.15,0,0,0,1-.33l0-.05a15.78,15.78,0,0,0-2.08.16l-.2,0,0,.19a.7.7,0,0,1-.06.17,2.12,2.12,0,0,1-.11.21c-.08.14-.18.28-.28.43s-.42.58-.67.86l-.08.08.1,0a1.18,1.18,0,0,1,.64.49.34.34,0,0,1,0,.28l0,.05-.06.08-.07.09-.05-.11a.52.52,0,0,0-.26-.19,1,1,0,0,0-.32-.06,1.38,1.38,0,0,0-.55.09v0a2.73,2.73,0,0,1,.46.08.69.69,0,0,1,0,.21c0,.09,0,.18-.09.19H4.6l-.18-.05a1.1,1.1,0,0,1-.14-.09,1.1,1.1,0,0,1-.19-.25A1.46,1.46,0,0,1,4,12.89l0-.09a.63.63,0,0,0-.1.33v0A1.6,1.6,0,0,0,3.68,13a1.33,1.33,0,0,0-.17-.16.5.5,0,0,0-.08.19.58.58,0,0,0,.07.33l-.27-.21L3,13a.33.33,0,0,0,0,.18.53.53,0,0,0,.19.36l0,0H3.16a.46.46,0,0,1-.37-.19.71.71,0,0,1,0-.48,6.32,6.32,0,0,1,.58-1.33,7.45,7.45,0,0,1,.46-.74c.18-.24.36-.5.55-.74a3.76,3.76,0,0,1,.69-.69A2.42,2.42,0,0,1,6,8.91c.34-.1.69-.17,1-.24L8,8.46a7,7,0,0,0,1.43-.38l0,0,.2.28V8l.29.39L9.82,8a6.15,6.15,0,0,0,.75.44,6,6,0,0,0,1.33.49,4.64,4.64,0,0,0,.76.12l.38,0h.19a.66.66,0,0,0,.2,0,4.14,4.14,0,0,0,1.32-.27c.24.35.52.69.77,1l.2.28s0,.07.07.13.05.11.09.17a3,3,0,0,0,.49.6l0,0h0a4.77,4.77,0,0,1,1.77.78,2.07,2.07,0,0,1,.31.27.8.8,0,0,1,.09.14.46.46,0,0,1,0,.15,1.86,1.86,0,0,1,.05.34,1.93,1.93,0,0,1,0,.34m-2.46.43h0l-.1-.09h0a.5.5,0,0,0,.36,0,.36.36,0,0,0,.12.16.57.57,0,0,0,0,.13l0,.09-.1-.06A1.66,1.66,0,0,1,16.23,13.47Zm-3.36,1.84h0a4.22,4.22,0,0,1-.43.41l-.28.22a7.22,7.22,0,0,0-1.32-.72A7,7,0,0,0,9,14.68l-1-.09-.49,0a1.36,1.36,0,0,0-.53.07.71.71,0,0,0-.34.29,1,1,0,0,0-.11.35,1,1,0,0,0,0,.17,2.28,2.28,0,0,0-.22-.22L6.15,15a1.22,1.22,0,0,1-.1-.24,1.1,1.1,0,0,1,0-.51,1.84,1.84,0,0,1,.21-.51,2.21,2.21,0,0,1,.34-.43.13.13,0,0,0,0,.06.41.41,0,0,0,.08.19,1,1,0,0,0,.28.26,3.72,3.72,0,0,0,.69.35,14.07,14.07,0,0,0,1.55.51,12.93,12.93,0,0,0,1.71.35,5.71,5.71,0,0,0,.93,0,6.76,6.76,0,0,0,.9-.15,3.19,3.19,0,0,0,.59-.21A2.82,2.82,0,0,1,12.87,15.31ZM6.77,11h0a1.23,1.23,0,0,0,.14-.25.89.89,0,0,0,0-.14l.54-.13a3.19,3.19,0,0,0-.09.34c-.1.35-.21.84-.38,1.42a2.94,2.94,0,0,1-.35.86l-.06.09h0a1.6,1.6,0,0,0-.38.23.91.91,0,0,0,.08-.17l0-.09a.49.49,0,0,0,0-.12.68.68,0,0,0-.21-.4,3.49,3.49,0,0,0-.65-.47,5,5,0,0,0,.91-.71A3.39,3.39,0,0,0,6.77,11Zm-.93,2.41Zm-.25,0ZM9.15,7.68h0l.16.22-.06,0-.1,0Zm6.6-.78h0a1.94,1.94,0,0,0,.1.24c0,.05,0,.06,0,.09l0,.1a1.45,1.45,0,0,1-.27.41,2.94,2.94,0,0,1-.42.36,3.66,3.66,0,0,1-.52.28,4.41,4.41,0,0,1-1.25.31,5.08,5.08,0,0,1-.68,0A5.2,5.2,0,0,1,12,8.66a5.34,5.34,0,0,1-2.39-1h0a2.12,2.12,0,0,1-.2-.12.38.38,0,0,0,.24,0,.14.14,0,0,0,.1-.09c0-.08-.05-.12-.06-.12A.18.18,0,0,1,9.57,7a.27.27,0,0,0,0-.15s-.09-.12-.12-.12l-.07,0-.14-.07a.63.63,0,0,0-.18-.06.29.29,0,0,0-.16,0,.17.17,0,0,0-.11.08.15.15,0,0,0,0,.1.23.23,0,0,0,.06.07h0l0-.07s0,0,0,0,0,0,0,0H9a.25.25,0,0,0,.09.07.54.54,0,0,0,.17.08l.09,0s0,0,0,0,0,.08.06.13a1.11,1.11,0,0,1,.14.29s0,0,0,0,0,0,0,0H9.44s0,0,0,0l0,0,0-.07h0a.22.22,0,0,0-.07.06.13.13,0,0,0,0,.1s0,0,0,0l-.3-.24c-.22-.29-.34-.6-.13-.7s.87.25.87.25c.06.32.45.5.45.5l-.07-.37.49.53a1.66,1.66,0,0,1-.37-1.18,2.14,2.14,0,0,1,.9-1.38l-.29.71,1.47-1-.66,1.18,1.05-.94-.18.79L13,5l-.22.5.91-.86-.29.86L14.5,5l-.36.38,1.12-.9-.44.84,1-.72-.12.26a1.1,1.1,0,0,0-.14.49,1.48,1.48,0,0,0,0,.21,1.06,1.06,0,0,0-1.34.5c-.12.42.18.56.28.8s-.43.34-.43.34a.6.6,0,0,0,.57-.13c.22-.12.1-.18-.19-.49s0-.59.24-.82.73-.15.87-.13a1.76,1.76,0,0,0,0,.23A3.29,3.29,0,0,0,15.75,6.9ZM10.28,21.52h0a1.09,1.09,0,0,1-.19.37L10,22s0,0,0-.05a.42.42,0,0,0-.19-.34.76.76,0,0,0-.19-.12l-.19-.08-.16-.07-.14-.06a2.87,2.87,0,0,1-.63-.32,1.09,1.09,0,0,1-.3-.42,5.92,5.92,0,0,0,.61-.33c.21-.14.42-.27.61-.42a4.83,4.83,0,0,0,.75-.75c-.06.4-.12.81-.14,1.22a2,2,0,0,0,0,.48,1.44,1.44,0,0,0,.08.25,1.76,1.76,0,0,1,.09.2A.67.67,0,0,1,10.28,21.52Zm-.46.68Zm9.45-9.54a1.9,1.9,0,0,0-.11-.39,1.16,1.16,0,0,0-.12-.2,1.54,1.54,0,0,0-.19-.17,2.82,2.82,0,0,0-.44-.26c-.3-.15-.6-.28-.91-.41l-.83-.39c-.11-.2-.19-.4-.28-.6l-.06-.15a.81.81,0,0,0-.1-.18A2.42,2.42,0,0,0,16,9.6a5.22,5.22,0,0,0-.6-.54c-.16-.12-.33-.23-.5-.34h0A2.57,2.57,0,0,0,16,7.9a1.21,1.21,0,0,0,.24-.53.66.66,0,0,0,0-.14.34.34,0,0,0,0-.16c-.06-.11-.1-.15-.15-.23a3.86,3.86,0,0,1-.36-1,1.75,1.75,0,0,1,0-.72,3.27,3.27,0,0,0,.48-.81c.33-.73-.4-1.52-1.21-2a5.62,5.62,0,0,0-3.49-.53C9.57,2,7.83,3.35,7.61,4.63a2.23,2.23,0,0,0,.46,1.86l0,.06a3.15,3.15,0,0,0,.24.3c.18.28.58.87.74,1.1-.31,0-.75.08-1.27.16a8.26,8.26,0,0,0-1,.21,5.68,5.68,0,0,0-1,.39,5.73,5.73,0,0,0-.89.59c-.28.21-.56.42-.83.64a5.59,5.59,0,0,0-.75.7,8.88,8.88,0,0,0-.58.74,3.59,3.59,0,0,0-.38.76,2.34,2.34,0,0,0-.16.71.88.88,0,0,0,.21.66.91.91,0,0,0,.72.22,1.05,1.05,0,0,0,.29-.06.66.66,0,0,0,.27,0,.46.46,0,0,0,.2,0l.15,0a.39.39,0,0,0,.16,0,1.14,1.14,0,0,0,.26.09,1.9,1.9,0,0,0,.33,0,.69.69,0,0,0,.37-.1.29.29,0,0,0,.13-.17.37.37,0,0,0,.06.1.22.22,0,0,0,.1.08.4.4,0,0,0,.27.06l.12,0a1.49,1.49,0,0,0-.28.44,1.09,1.09,0,0,0-.08.31,1.08,1.08,0,0,0,0,.31,1.12,1.12,0,0,0,.1.31,1.69,1.69,0,0,0,.17.29h0l0,0a8.7,8.7,0,0,0,.74.59l.27.21a1.11,1.11,0,0,0,.08.3,1.38,1.38,0,0,0,.28.43,3.13,3.13,0,0,0,.81.59,2.41,2.41,0,0,0-.37.13,3,3,0,0,0-1,.66,1.85,1.85,0,0,0-.37.61,6.27,6.27,0,0,1-.27.63,1.88,1.88,0,0,1-.53.61c-.1.1-.27.14-.37.31a.49.49,0,0,0,0,.44,1.47,1.47,0,0,0,.63.71,5.2,5.2,0,0,1,.75.47,3.07,3.07,0,0,1,.26.25,1.67,1.67,0,0,0,.3.31A1.81,1.81,0,0,0,8,23a1.4,1.4,0,0,0,.5-.05.65.65,0,0,0,.37-.24H9a1,1,0,0,0,.22,0,.34.34,0,0,0,.21-.18.24.24,0,0,0-.08-.22.75.75,0,0,0-.17-.1,1.13,1.13,0,0,0-.21,0,1.08,1.08,0,0,0,.08.13.43.43,0,0,1,.07.2.41.41,0,0,1-.18.14l0,0a.58.58,0,0,0,0-.18c0-.1-.11-.21-.21-.23a1.09,1.09,0,0,0-.43,0H8.17v.05l.13,0a.78.78,0,0,1,.3.09s0,0,0,.07a.51.51,0,0,1-.13.14A.64.64,0,0,1,8,22.6a1.22,1.22,0,0,1-.56-.22c-.06-.05-.13-.16-.23-.26a2.09,2.09,0,0,0-.34-.31A6.37,6.37,0,0,0,6,21.34a2,2,0,0,1-.66-.49.37.37,0,0,1-.08-.31c0-.08.18-.17.3-.27s.47-.39.68-.59a2.76,2.76,0,0,0,.49-.63,2.64,2.64,0,0,1,.31-.53,3.68,3.68,0,0,1,.73-.71l.28-.23.06,0c.39.17.74.31,1.12.45l.56.2.48.19c0,.1,0,.19,0,.29A6.29,6.29,0,0,0,9,19.44c-.19.14-.37.3-.55.46a4.43,4.43,0,0,0-.48.49l-.07.08,0,0a4.3,4.3,0,0,1,.47.49,2.18,2.18,0,0,0,.46.52.68.68,0,0,0,.19.11.89.89,0,0,0,.19.07l.17.06.14,0a.41.41,0,0,1,.2.14.38.38,0,0,1,.06.16.61.61,0,0,0-.29-.22l-.15,0H9.28a1,1,0,0,0,.09.14,1.25,1.25,0,0,1,.08.12.34.34,0,0,1,.06.12.26.26,0,0,1,0,.22l-.08.13a.63.63,0,0,0,.22-.05l.05,0a.3.3,0,0,0,0,.2.63.63,0,0,0,.09.14l.11.12a9,9,0,0,1,.82.68A1.75,1.75,0,0,1,11,24a1.09,1.09,0,0,0,.47.42,1.18,1.18,0,0,0,.79.08c.11,0,.16-.14.13-.19a.58.58,0,0,0-.1-.12A1.07,1.07,0,0,0,12,24l0,0a1.3,1.3,0,0,1,.15.2s0,.06,0,.09,0,0,0,0a.79.79,0,0,1-.46-.12.84.84,0,0,1-.25-.34,1.76,1.76,0,0,0-.21-.45,5.18,5.18,0,0,0-.77-.78l-.08-.08s0,0,0,0a.11.11,0,0,1,0-.06c.08-.11.2-.26.29-.4a1,1,0,0,0,.14-1c0-.08-.08-.13-.13-.22a1.18,1.18,0,0,1-.11-.19,2.1,2.1,0,0,1-.15-.42,2.89,2.89,0,0,1,.2-1.78l0-.06-.07,0c-.18-.12-.34-.21-.51-.31s-.34-.18-.53-.26a9.41,9.41,0,0,0-1.1-.45,4.88,4.88,0,0,1-.93-.52,2.94,2.94,0,0,1-.36-.34l0,0-.26-.59a1.69,1.69,0,0,1-.17-.62.51.51,0,0,1,.32-.53.87.87,0,0,1,.4,0l.47.07.91.2a9.09,9.09,0,0,1,1.64.6c.25.12.49.26.74.39l.7.43.24.16,0,0a5.42,5.42,0,0,1,.73.87c.13.19.25.4.39.63s.13.22.21.34.1.22.15.33a2.39,2.39,0,0,1-.33,1.56,3.45,3.45,0,0,0-.3.85,6.27,6.27,0,0,0-.14.85,1.85,1.85,0,0,0,0,.41,1,1,0,0,0,.1.41,1.51,1.51,0,0,0,.67.63l.66.36c.18.11.32.22.31.26s-.16.11-.24.12l-.14,0v0l.16,0h.2a.44.44,0,0,0,.27-.14.24.24,0,0,0,0-.29.92.92,0,0,0-.22-.22,6.24,6.24,0,0,0-.6-.44,1.42,1.42,0,0,1-.51-.49,3.3,3.3,0,0,1-.3-.71,1.48,1.48,0,0,1,0-.81,1.69,1.69,0,0,1,.43-.78,3.76,3.76,0,0,0,.53-.81,1.38,1.38,0,0,0,0-1.34c-.07-.12-.15-.24-.23-.36s-.33-.44-.5-.63a4.93,4.93,0,0,0-1-.81h0l.27-.23.24-.23a2.86,2.86,0,0,0,.37-.51,1.53,1.53,0,0,0,.25-.86h0a1.65,1.65,0,0,0,.57-.54,2.12,2.12,0,0,0,.26-1.14,4.2,4.2,0,0,0,0-.87,2.16,2.16,0,0,0,.31.29,1.71,1.71,0,0,0,.42.24,1.59,1.59,0,0,0,.46.13,1.23,1.23,0,0,0,.19,0h0a.81.81,0,0,0,0,.22.67.67,0,0,0,.09.19.56.56,0,0,0,.15.16s0,0,.06,0a.41.41,0,0,0-.14.2.38.38,0,0,0,0,.27.63.63,0,0,0,.25.27,1.47,1.47,0,0,0,.4.14,1.14,1.14,0,0,0,.37,0l.12,0a1.12,1.12,0,0,0,.37.16,1.94,1.94,0,0,0,.62.07,1.37,1.37,0,0,0,.68-.17,1.11,1.11,0,0,0,.4-.37,1.38,1.38,0,0,0,.2-.81A1.72,1.72,0,0,0,19.27,12.66Z"/><path class="cls-3" d="M17.15,12.57v0h0v0"/><path class="cls-3" d="M17.1,12.68h0"/><path class="cls-3" d="M12.94,24.29a.45.45,0,0,0-.22-.26.78.78,0,0,0-.17-.07.53.53,0,0,0,0,.13c0,.07,0,.17.06.23s0,0,0,0,0,0-.08,0l-.18,0a.38.38,0,0,0,.17.08.47.47,0,0,0,.26,0,.26.26,0,0,0,.12-.11.2.2,0,0,0,0-.11"/><path class="cls-3" d="M13.49,24.07a.54.54,0,0,0-.15-.11.49.49,0,0,0,0,.14,1.81,1.81,0,0,1,0,.25s0,0,0,0a.49.49,0,0,1-.14,0h-.21a.46.46,0,0,0,.17.11.84.84,0,0,0,.26,0,.49.49,0,0,0,.17-.06.24.24,0,0,0,.09-.12.33.33,0,0,0,0-.2.73.73,0,0,0-.1-.13"/><path class="cls-3" d="M13.85,23.81a.38.38,0,0,0,0,.14c0,.09.06.19.08.28a.17.17,0,0,1,0,.08s0,0-.06,0a1,1,0,0,1-.19,0,.4.4,0,0,0,.19.08H14a.33.33,0,0,0,.16-.07.21.21,0,0,0,.05-.23.72.72,0,0,0-.4-.37"/><path class="cls-3" d="M7.65,5.67A10.16,10.16,0,0,0,9.13,8.74c.79.77,1.64,1.57,1.64,1.57s-.36.16-.21.44a1.58,1.58,0,0,0,.58.51,1.44,1.44,0,0,0,.46-.67c.06-.34-.44-.32-.44-.32s-1-1.27-1-1.65a.74.74,0,0,0-.31-.79A8.53,8.53,0,0,1,7.65,5.67"/><path class="cls-3" d="M14.27,8.76a2,2,0,0,0,0,1,3.67,3.67,0,0,1,.23,1.06s.47.2.44.27a3.4,3.4,0,0,1-.37.42s-.68-.07-.59-.4l.09-.32a3,3,0,0,0-.4-.76,1.71,1.71,0,0,1-.24-1Z"/></svg>