<svg id="Capa_1" data-name="Capa 1" xmlns="http://www.w3.org/2000/svg" viewBox="0 0 26.4 24"><defs><style>.cls-1{fill:#ffcc64;}.cls-2{fill:#0070a2;}.cls-3{fill:#f05050;}.cls-4{fill:#acd03d;}.cls-5{fill:#fbcabb;}.cls-6{fill:#231f20;}</style></defs><title>3-18meses</title><path class="cls-1" d="M1.38,19A26.5,26.5,0,0,0,14.65,22.3C22.79,22.3,25.59,19,25.59,19Z"/><polygon class="cls-2" points="11.04 15.81 13.36 15.81 14.5 17.54 11.93 17.65 11.04 15.81"/><polygon class="cls-2" points="14.65 17.68 14.68 19.83 16.3 19.18 16.3 17.54 14.65 17.68"/><polygon class="cls-3" points="13.51 15.9 15.38 14.87 16.3 16.39 14.5 17.54 13.51 15.9"/><polygon class="cls-3" points="14.6 17.87 16.72 17.34 15.29 17.08 14.6 17.87"/><polygon class="cls-3" points="11.93 19.58 14.68 19.83 14.79 21.9 11.93 21.32 11.93 19.58"/><path class="cls-4" d="M11.93,17.54v2l2.86.26v1.91h.54a8.31,8.31,0,0,1,1.1-.77,8.64,8.64,0,0,0,.16-1.81l-1.8.55-.14-2Z"/><polygon class="cls-4" points="11.32 15.77 13.57 15.99 15.21 14.78 12.29 14.62 11.32 15.77"/><path class="cls-5" d="M11.82,19.06l.11-1.41L11,15.81l1.27-1,3.08-.13.83,1.43-.92,1,1.31.16L16.41,19l7.74.07a19.44,19.44,0,0,0-1.43-2.78c-.59-.78-1.1-2.24-1.72-2.5a26.34,26.34,0,0,1-3.06-1.22c-.4-.31-.27-.36-.34-.45s1.21-1.14,1.26-1.62A4.74,4.74,0,0,1,19,9.81s.7-.34.73-.72.31-1,.14-1.19a1.25,1.25,0,0,0-1-.1c-.44.1-.65-.06-1.23-.75A3.4,3.4,0,0,0,15,5.75a19.13,19.13,0,0,0-4.08-.15A32.88,32.88,0,0,0,8.27,9.5a.62.62,0,0,0-.32.82,2.18,2.18,0,0,0,1.57,1,4.66,4.66,0,0,0,.83.18,2.85,2.85,0,0,0,.94.76,4.62,4.62,0,0,0,.93.35l-2.07.46c-.8.16-2.28,1.79-2.88,2.38s-1.78,2.34-1.12,3.44.76,1.56,1.65,1.66a4.94,4.94,0,0,0,2.4-1c.05,0,.45-.47.45-.47Z"/><path class="cls-6" d="M13.14,9.9a2.81,2.81,0,0,0-3,.59A2.94,2.94,0,0,1,12,10c.8.18,1.58.11,1.17,0"/><path class="cls-6" d="M15.28,9.31c-.59.21-.75.52-.47.5s.78-.42,1.3-.44a10.69,10.69,0,0,1,1.59.17,4.1,4.1,0,0,0-2.42-.23"/><path class="cls-6" d="M11,10.49c1.34.91,1.77-.17,1.77-.17a6.12,6.12,0,0,1-.6.23A2.33,2.33,0,0,1,11,10.49"/><path class="cls-6" d="M15.38,9.92c1.26.77,1.64-.3,1.64-.3a2,2,0,0,1-1.64.3"/><path class="cls-6" d="M14.54,11.65c.35-.18.42-.12.58-.31a.26.26,0,0,0,.05-.33s.07.15-.21.25-.5.36-.87.26-.44,0-.58-.1,0,.09.32.15.36.25.71.08"/><path class="cls-6" d="M14.88,11.9a.86.86,0,0,1-.57.09,2.29,2.29,0,0,0-.74.12A3.64,3.64,0,0,0,16,11.75s-.3,0-.47.07a6.28,6.28,0,0,0-.66.08"/><path class="cls-6" d="M16.43,21h0a.05.05,0,0,1,0-.05h0l0,0h0c0,.06,0,0,0,0m-.62.3h0c-.27.18-.56.34-.85.5-.49-.1-1-.24-1.45-.36s-.89-.19-1.34-.26A7.5,7.5,0,0,0,12,19.85c.45,0,.91,0,1.36,0h1.19a10.82,10.82,0,0,0,.23,1.48h.06a11.66,11.66,0,0,0,.23-1.42l1.09-.4.06.46a6,6,0,0,0,.16.8.23.23,0,0,0,0,.09l-.17.12C16.09,21.11,16,21.2,15.81,21.29ZM11.7,18.9h0v-.06h-.42a1.33,1.33,0,0,0,.09-.76,1.37,1.37,0,0,0,.18-.16.76.76,0,0,0,.16-.26v0a.21.21,0,0,0,.18.1A7.19,7.19,0,0,0,11.7,18.9Zm-.86-2.3h0c-.1-.05-.16-.08-.18-.12a.08.08,0,0,1,0-.07v-.1c0-.15.08-.31.1-.51a.38.38,0,0,0,0-.1l.11,0a.19.19,0,0,0-.08.1c0,.11.1.21.26.22h0c.11.33.23.65.37,1A2.54,2.54,0,0,0,10.84,16.6Zm-.33-1.09h0a1.58,1.58,0,0,0,.15-.24.55.55,0,0,0,.06-.18.34.34,0,0,0,0-.21.37.37,0,0,0-.22-.17l.48-.1.22,0h0a.33.33,0,0,1-.05.15,3,3,0,0,1-.19.35c0,.06-.07.12-.11.17a1.4,1.4,0,0,0-.1.16l-.09.15A.33.33,0,0,0,10.51,15.51Zm-.1.22Zm.83-1.15Zm1.31.31h0c.83,0,1.67-.06,2.5-.07h0c-.51.28-1,.58-1.51.87l-1.87-.1C12,15.37,12.25,15.13,12.55,14.89Zm3.67,2.33h0c-.39.08-.78.18-1.16.28l.22-.19ZM11.11,16h0c.79.06,1.58.12,2.37.16.27.38.56.75.85,1.12l.06,0q-.27-.57-.57-1.14h0l1.56-1h0l0,0A12.31,12.31,0,0,1,16,16.29c-.53.39-1.07.77-1.58,1.17-.79,0-1.58,0-2.37,0C11.77,17,11.46,16.47,11.11,16Zm2.26,3.63h0c-.39-.05-.78-.09-1.18-.11A7.73,7.73,0,0,0,12,17.79c.81,0,1.63,0,2.45,0a9.08,9.08,0,0,0,.24,1.55h.06A10,10,0,0,0,14.93,18l1.17-.24,0,.58c0,.25,0,.49.06.73-.52.2-1,.42-1.53.64h0a.19.19,0,0,0-.08.07C14.15,19.71,13.76,19.66,13.37,19.61Zm1.09-6.77h0c-.23,0-.45,0-.66,0l-.66-.06A6.16,6.16,0,0,1,12,12.51a3.32,3.32,0,0,1-1.46-.89c-.3-.32-.48-.6-.65-.78a1.49,1.49,0,0,0-.29-.25l-.3-.21.77-1.9.43.8.59-.95L11,9.74s1.27-2,1.31-2.1a11.12,11.12,0,0,1,.05,1.19L13,7.72l.32,1.92,1.22-2,0,2.05,1-2.49.18.87L16.43,7l1.26,1.93-.23-1.32,1,1.28a2.11,2.11,0,0,0,0,.33l.05.34a2.55,2.55,0,0,1,.07.59,1.69,1.69,0,0,1-.53,1A5.52,5.52,0,0,1,17,12,4.55,4.55,0,0,1,14.46,12.84ZM9.75,11.31h0a3.91,3.91,0,0,1-1.08-.68,1.84,1.84,0,0,1-.25-.23,1.94,1.94,0,0,1-.2-.21A.65.65,0,0,1,8.11,10c0-.06,0-.07,0-.1h0l1,.77.1-.23.27.19a1.08,1.08,0,0,1,.28.25c.14.14.29.37.5.64A4,4,0,0,1,9.75,11.31ZM19,8.88h0c.06-.32.15-.68.19-1l.17,0a1.28,1.28,0,0,1,.19,0,.17.17,0,0,1,.12.06.23.23,0,0,1,0,.13.76.76,0,0,1,0,.21c0,.15-.07.32-.12.49s-.1.34-.14.5,0,.15-.07.22a.54.54,0,0,1-.09.15.37.37,0,0,1-.19.11c0-.08,0-.15-.05-.23l0-.29A1.42,1.42,0,0,1,19,8.88Zm6.56,10H24.28A5.94,5.94,0,0,0,22.76,16a5,5,0,0,1-.84-1.27c-.35-1.07-1.67-1.55-3-2-.88-.27-1.09-.54-1.13-.65a5.62,5.62,0,0,0,.75-.71,1.88,1.88,0,0,0,.6-1.25,2.64,2.64,0,0,0,0-.28.73.73,0,0,0,.4-.07.79.79,0,0,0,.27-.2A1.23,1.23,0,0,0,20,9.32a3,3,0,0,0,.22-.52,1.81,1.81,0,0,0,.06-.56A.89.89,0,0,0,20.18,8a.5.5,0,0,0-.25-.25.49.49,0,0,0-.2,0h-.17a.93.93,0,0,0-.21.08l-.13.08c0-.08,0-.16,0-.24a2.91,2.91,0,0,0-.39-1.72A2.44,2.44,0,0,0,18,4.12a10.63,10.63,0,0,0-6.9-1.27A6,6,0,0,0,6.54,5.64c-.64,1.19,1.27,4,1.27,4l.1.08a.33.33,0,0,0-.25.29.54.54,0,0,0,.07.33,1.37,1.37,0,0,0,.2.29,2.13,2.13,0,0,0,.26.26,2.68,2.68,0,0,0,.69.43,2.48,2.48,0,0,0,.74.22,2.16,2.16,0,0,0,.73,0l.09.12a3.66,3.66,0,0,0,1.42,1,7,7,0,0,0,1.19.35l.67.11a6.3,6.3,0,0,0,.75,0A6.2,6.2,0,0,0,16.05,13a4.73,4.73,0,0,0,1.31-.59,2.88,2.88,0,0,0,1.32.7c1.48.45,2.39.87,2.65,1.67a5.45,5.45,0,0,0,.89,1.37,5.83,5.83,0,0,1,1.46,2.69H21.9a1.4,1.4,0,0,1-.24-.52,2,2,0,0,1-.05-.36,3.19,3.19,0,0,1,0-.42,2.09,2.09,0,0,0,0-.5,1.09,1.09,0,0,0-.23-.54,1.45,1.45,0,0,0-.66-.38,4.74,4.74,0,0,0-.68-.16,4.4,4.4,0,0,0-1.29-.07.94.94,0,0,0-.5.19.31.31,0,0,0-.12.2.71.71,0,0,0-.37.15.35.35,0,0,0-.16.3.42.42,0,0,0,.07.23.71.71,0,0,0,.18.2.37.37,0,0,0-.14.17.23.23,0,0,0,0,.14h0a1,1,0,0,0-.24.15.52.52,0,0,0-.14.16.46.46,0,0,0-.05.41.71.71,0,0,0,.34.32,1.4,1.4,0,0,0,.86.1l.21-.05h0a.74.74,0,0,0,.18.17,1,1,0,0,0,.24.09.74.74,0,0,0,.28,0l0-.17a1.19,1.19,0,0,0-.11-.26,1.25,1.25,0,0,0-.23-.23L18.83,18a.44.44,0,0,0-.15.16.41.41,0,0,0,0,.19h-.19a1.18,1.18,0,0,1-.49-.15.22.22,0,0,1-.1-.14.15.15,0,0,1,0-.14s.07-.1.06-.09l.07,0a.75.75,0,0,1,.25-.07c.22,0,.45,0,.66,0l.7,0A2.46,2.46,0,0,0,19,17.5a3.42,3.42,0,0,0-.73-.11h.56a1.2,1.2,0,0,0,.19,0h.41a2.26,2.26,0,0,0,.4-.07,1.46,1.46,0,0,0-.34-.16,1.69,1.69,0,0,0-.36-.12l-.25,0h-.25a1.59,1.59,0,0,0-.53.08l-.06,0v-.16a.66.66,0,0,1,0-.15.22.22,0,0,1,.09-.08l.16,0a1.22,1.22,0,0,1,.27,0l.63.06.57,0a2.16,2.16,0,0,1,.38.06c.09,0,.12.05.12.06s0-.05,0-.13a1,1,0,0,0-.34-.21,3.49,3.49,0,0,0-.57-.18,4.47,4.47,0,0,0-.7-.11h-.29a.22.22,0,0,1,.09-.07.82.82,0,0,1,.38-.06,5.47,5.47,0,0,1,1.09.18l.58.17a.8.8,0,0,1,.4.24.75.75,0,0,1,.17.37c0,.15,0,.29.05.44a2.49,2.49,0,0,0,.05.46,1.76,1.76,0,0,0,.16.4,1.62,1.62,0,0,0,.4.45H16.64c0-.18,0-.36.05-.55s0-.59,0-.88a.15.15,0,0,0,0-.07.36.36,0,0,0-.34-.15L15.63,17l.67-.61h0a.08.08,0,0,0,0-.1,13.19,13.19,0,0,1-.85-1.56.09.09,0,0,0-.09-.05h0c-1,0-2-.05-2.94-.09a.37.37,0,0,0-.15,0h0l-.86.6a1.34,1.34,0,0,0,.28-.38.64.64,0,0,0,.05-.28.25.25,0,0,0-.06-.17.49.49,0,0,0-.27-.17.8.8,0,0,0-.45,0,1.2,1.2,0,0,0-.23.12,1.39,1.39,0,0,0-.34.3l-.08,0a1.43,1.43,0,0,0-.37,0l-.14,0h0l0,0H9.68l-.1.05-.13.06a1.15,1.15,0,0,0-.2.15l-.15.16a1.26,1.26,0,0,0-.17.35,1.16,1.16,0,0,0,0,.69v0c0,.22,0,.42,0,.63s0,.21,0,.32,0,.11,0,.17a2.55,2.55,0,0,0-1,.26,1.61,1.61,0,0,0-.43.32.69.69,0,0,0-.2.42h.06a3,3,0,0,1,.4-.26,3.62,3.62,0,0,1,.45-.2l.47-.15.49-.15.26-.08-.12-.1a.56.56,0,0,1-.14-.25.61.61,0,0,1,0-.3,1.63,1.63,0,0,1,.19-.59v0a1.82,1.82,0,0,1,.17-.56.91.91,0,0,1,.16-.24.94.94,0,0,1,.1-.1l.1-.09.05,0,.09,0,.05,0h0l.07,0,.08,0s0,0,0,0a.23.23,0,0,1,.06.09s0,.09,0,.14,0,.17,0,.25h0a1,1,0,0,0-.22.05l-.17.08a.6.6,0,0,0-.33.53.88.88,0,0,0,.15.52h.06a1,1,0,0,1,0-.5.55.55,0,0,1,.31-.37l.15-.05.11,0s0,0,0,0-.13.31-.18.5v.15a.43.43,0,0,0,.06.18.86.86,0,0,0,.31.27,1.66,1.66,0,0,1,.47.31.71.71,0,0,1,.13.19.29.29,0,0,1,0,.16.48.48,0,0,1-.11.15.79.79,0,0,1-.18.14l-.15.08,0,.13a1.54,1.54,0,0,1-.66,1.44,4.34,4.34,0,0,1-1.88.95,1.26,1.26,0,0,1-.95-.18,2.83,2.83,0,0,1-.7-.68,2.59,2.59,0,0,1-.44-.79A2,2,0,0,1,6,18.36a2.1,2.1,0,0,1,0-.43,3.46,3.46,0,0,1,.34-.83A7.67,7.67,0,0,1,7,16.32c.18-.26.41-.5.61-.75s.43-.5.66-.74.45-.48.69-.72a5.56,5.56,0,0,1,.74-.65,7,7,0,0,1,1.09-.37c.39-.12.79-.22,1.18-.32v0c-.42,0-.84.11-1.26.18a6.47,6.47,0,0,0-1.24.32l-.26.16-.23.17-.41.35c-.27.23-.51.48-.75.72a9.45,9.45,0,0,0-.65.77,7,7,0,0,0-.53.81,6.52,6.52,0,0,0-.41.84,5.39,5.39,0,0,0-.28.86c0,.15,0,.3-.05.45a1.64,1.64,0,0,0,0,.44s0,0,0,0H1.15v.41H6.06a4.1,4.1,0,0,0,.22.41,2.69,2.69,0,0,0,.67.79,1.63,1.63,0,0,0,.59.29,2,2,0,0,0,.76,0,4.36,4.36,0,0,0,1.25-.4,4.81,4.81,0,0,0,1-.62,2.63,2.63,0,0,0,.49-.51h.64c0,.14,0,.28,0,.42s.09.16.22.18a7.24,7.24,0,0,0-.21,1.46.19.19,0,0,0,.17.16h0a15.25,15.25,0,0,0,1.53.25c.52.07,1,.11,1.56.19h0a.11.11,0,0,0,.08,0c.3-.17.62-.33.94-.48l.48-.24.25-.13.07,0a.12.12,0,0,0,0-.11.08.08,0,0,0,0,0h0s0,0,0,0h0v0s0,0,0-.06l0-.8c0-.24,0-.48,0-.72h8.86Z"/><path class="cls-6" d="M7.91,10.2s1.18,3.15,1.27,3.66l.2,1.29.67-.28.39-3.21s.28-.23-.92-.3Z"/><path class="cls-6" d="M18.84,10.59s.21,2.23-.34,2.93A6.89,6.89,0,0,0,17.7,16s.62.78,0,1a.89.89,0,0,0-.68.69s-.88-.73-.72-1.15a.65.65,0,0,1,.57-.41,18.15,18.15,0,0,0,.49-3.68c-.2-.48,1.48-1.82,1.48-1.82"/></svg>