<svg id="Capa_1" data-name="Capa 1" xmlns="http://www.w3.org/2000/svg" viewBox="0 0 30.48 24.96"><defs><style>.cls-1{fill:#fbcabb;}.cls-2{fill:#231f20;}.cls-3{fill:#6d6f71;}</style></defs><title>4-18meses</title><path class="cls-1" d="M1.58,14.66s2.07-.38,2.07-.38S5.4,15.4,6,15a7.83,7.83,0,0,0,1-.83s.67.09.69-.23a1.23,1.23,0,0,0-.29-.69s1.75.55,1.76.21.08-.62.13-.62,1,.17,1.17-.16,0-.46-.2-.56a2.23,2.23,0,0,1,0-1.75c.32-.54,1.64-1.95,1.68-2.43a3.4,3.4,0,0,0-1.76-2.06,8.89,8.89,0,0,0-2.43-.14c-.37.1-6.22,2-6.14,3.52s0,5.41,0,5.41"/><path class="cls-1" d="M1,17.35a14.42,14.42,0,0,1,3.33-1c1.41-.14,5.26-.14,6.07-.18a5.55,5.55,0,0,1,.88,0c.13,0,2.14-.35,1.7.06s-3.84.86-3.84.86.88,1.14.67,1.28-.19.2-.19.2a.52.52,0,0,1,.59.37c.17.46-.12.7-.84.91s-1.56.41-1.56.41A.23.23,0,0,1,7.57,20a1,1,0,0,1,.24-.53l-.64,0s0,.19-1,.35-1.3-.05-1.41-.24S4.42,19,4.42,19a8.3,8.3,0,0,1-2.08.34,5.3,5.3,0,0,0-.82-.16L1,20.34Z"/><path class="cls-1" d="M26.94,16s-1.41,1.45-1.25,2,1.54,1.31,1.82,2.17a9.24,9.24,0,0,1-.21,3.14H19.63a1.51,1.51,0,0,1,0-1.08,6.67,6.67,0,0,0,.42-1.15s-1.76,0-2.39,0-1.92,0-2.3-.81a19.12,19.12,0,0,1-.85-3.1,4.87,4.87,0,0,0-.4-1.12c-.06-.1-.3-.59.27-.59s.53-.07.53-.07-.19-.26.07-.37a2.84,2.84,0,0,1,1,.06s.31-.31.58-.14a5.5,5.5,0,0,1,.61.45s.43.12,0,.52-.08,0,.19,0,.56.06.57.18.15.11-.33.32a5,5,0,0,0-1,.64c-.2.14-.27.58.18,1.07a5.74,5.74,0,0,1,.69.93,16.89,16.89,0,0,0,3.36-.34,3.73,3.73,0,0,1,1.36-.46c.5-.05.58-.17.58-.17a8.1,8.1,0,0,1-2.63-.43c-.49-.36-.32-.33-.32-.47a.37.37,0,0,0-.09-.27s.12-.14.32-.14.68-.09.5-.13-1.11-.21-.95-.4l.27-.28s-.6-.28-.32-.47.85-.49.84-.64a4,4,0,0,1-.32-1.25c0-.48.46-1.51,1.23-1.67s5.2.49,5.52.87,1.3,2,.06,3.27"/><path class="cls-2" d="M14.59,12.55h0a1,1,0,0,0-.07-.73,1.46,1.46,0,0,0-.23-.34,1.06,1.06,0,0,0-.15-.15L14,11.19h0a6.34,6.34,0,0,1-1-.56,1.87,1.87,0,0,1-.64-.69.56.56,0,0,1,.3-.66,3.85,3.85,0,0,1,1.07-.4,10,10,0,0,1,1.26-.21c.43-.05.88-.09,1.31-.11a14.41,14.41,0,0,1,2.63.07,4.65,4.65,0,0,1,2.28.82.79.79,0,0,1,.33.81,1.21,1.21,0,0,1-.73.68,6.15,6.15,0,0,1-1.17.37,10.66,10.66,0,0,1-1.28.18,15.17,15.17,0,0,1-2.61,0l-.33,0,.1.21a.85.85,0,0,1,.06.62,1.27,1.27,0,0,1-.43.57,4.83,4.83,0,0,1-1.41.75,2,2,0,0,0,.92-1.06m.71.45a1.72,1.72,0,0,0,.57-.64.93.93,0,0,0,0-.57c.36,0,.72.05,1.08.05a12.67,12.67,0,0,0,1.37-.06,7.3,7.3,0,0,0,2.55-.71,1.37,1.37,0,0,0,.74-.8,1,1,0,0,0-.39-.91,3.39,3.39,0,0,0-1.06-.59,7.77,7.77,0,0,0-1.28-.34,12.87,12.87,0,0,0-2.71-.19,12.4,12.4,0,0,0-1.36.08,10.37,10.37,0,0,0-1.36.2A4,4,0,0,0,12.22,9a1.21,1.21,0,0,0-.44.46.68.68,0,0,0,0,.56,2.08,2.08,0,0,0,.8.84,6.68,6.68,0,0,0,1.1.56l.14.1.14.12a1.86,1.86,0,0,1,.21.28.89.89,0,0,1,.14.61,1.38,1.38,0,0,1-.28.62,3.18,3.18,0,0,1-.55.55l-.06,0h.09a6.14,6.14,0,0,0,1-.29A3.91,3.91,0,0,0,15.3,13Z"/><path class="cls-2" d="M17.79,16.11h0m-.93-.19h0l-.34,0a1,1,0,0,0,.05-.22.72.72,0,0,0-.07-.36.7.7,0,0,0-.15-.2l-.16-.11h0l.28.1a.91.91,0,0,1,.14.07l.09,0h0l0,0a.4.4,0,0,1,.24.35c0,.09,0,.17,0,.22ZM16,16h0a1.1,1.1,0,0,0-.4.17.24.24,0,0,0-.09.08.51.51,0,0,0-.17-.21,1.2,1.2,0,0,0-.42-.22,1.36,1.36,0,0,0-.55-.07h-.17l-.14.06a.34.34,0,0,1,0-.1c0-.06.07-.07.21-.1l.24,0H15a.66.66,0,0,1,.21,0,.89.89,0,0,1,.34.16,1.78,1.78,0,0,1,.29.26.65.65,0,0,0,0-.1.44.44,0,0,0-.06-.27.86.86,0,0,0-.13-.17.82.82,0,0,0-.25-.15,1.43,1.43,0,0,0-.33-.1h-.19v0a.18.18,0,0,1,.16-.11h.14l.2,0,.11,0,.1,0,.1,0,.07,0,.16.1.13.12a2.14,2.14,0,0,1,.19.26c0,.08.08.15.11.2Zm11.09-4.57a8.25,8.25,0,0,0-4.33-.21,2.59,2.59,0,0,0-.4.09l-.23.06a3,3,0,0,0-2.43,2.28l.46-.62-.07.15a1.29,1.29,0,0,0,0,.73c.06.23.12.46.17.69a.61.61,0,0,1,0,.33c-.05.09-.19.15-.32.22a1.53,1.53,0,0,0-.4.26.18.18,0,0,0,0,.22.81.81,0,0,0,.16.16,1,1,0,0,1,.15.13h0l-.09.07a.42.42,0,0,0-.14.18.17.17,0,0,0,.1.21,3.29,3.29,0,0,0,.76.23,1.08,1.08,0,0,1-.43.05c-.14,0-.39,0-.37.19a.24.24,0,0,0,.14.14h0s0,0,0,0l0,0h0c0,.05-.09.14-.1.24s.09.21.19.28a2.35,2.35,0,0,0,.65.27,13.43,13.43,0,0,0,1.43.3l.15,0a2.54,2.54,0,0,0-.77.13,1.55,1.55,0,0,0-.32.14,1.15,1.15,0,0,1-.23.1,3.75,3.75,0,0,1-.6.11l-1.3.16c-.43.05-.85.1-1.28.12A6,6,0,0,1,17.1,18l-.41-.86a2.3,2.3,0,0,0,.58-.35,1.17,1.17,0,0,0,.15-.16h0l0,0a2.44,2.44,0,0,1,.32-.15l.19-.09a.59.59,0,0,0,.24-.16.18.18,0,0,0,0-.22.38.38,0,0,0-.17-.14.92.92,0,0,0-.3-.08,2.12,2.12,0,0,0-.53.05l-.09,0a.45.45,0,0,0,.13-.11.42.42,0,0,0,.1-.32.4.4,0,0,0-.09-.2.7.7,0,0,0-.19-.15l-.05,0,0,0h0l-.1,0a1.35,1.35,0,0,0-.24-.08,1.5,1.5,0,0,0-.47,0,1,1,0,0,0-.24.08l-.17,0a.43.43,0,0,0-.15,0h-.15a1,1,0,0,0-.58.1.23.23,0,0,0-.12.17.21.21,0,0,0,0,.12h-.07l-.17,0h-.16a2.49,2.49,0,0,0-.32.08.61.61,0,0,0-.27.18.19.19,0,0,0,0,.24A.39.39,0,0,0,14,16a.3.3,0,0,0-.05.14.73.73,0,0,0,.11.36,1.32,1.32,0,0,0,.21.29l.15.35v0c.06.34.15.68.21,1s.1.68.17,1a4,4,0,0,0,.32,1c0,.08.08.17.13.25s.1.17.16.24l.2.24a2.73,2.73,0,0,0,.25.23.34.34,0,0,0,.15.06h0a19.31,19.31,0,0,0,2.15.07,9.73,9.73,0,0,0,1.07-.06,5.52,5.52,0,0,0,.71-.1l0,.06a3.56,3.56,0,0,0-.3.75,1.55,1.55,0,0,0-.08.36,1.71,1.71,0,0,0,0,.31,2,2,0,0,0,.05.48,1.32,1.32,0,0,0,0,.18l.06-.18a1.36,1.36,0,0,1,.06-.2c0-.07.06-.16.09-.25A5.56,5.56,0,0,1,20,22c.05-.12.11-.23.17-.35a3.84,3.84,0,0,1,.18-.35c.12-.24.27-.47.4-.69l.38-.6.39-.59a3.73,3.73,0,0,0-.64.49,4.84,4.84,0,0,0-.54.56A5.28,5.28,0,0,0,20,21c-.62,0-1.22,0-1.83,0l-2-.14L16,20.69l-.19-.2-.17-.22-.14-.22a4.31,4.31,0,0,1-.26-.47c-.07-.16-.16-.32-.22-.48a4.55,4.55,0,0,1-.29-1,3.87,3.87,0,0,1,0-1h0v0l-.08-.4h0l0,0a1.11,1.11,0,0,1-.23-.5s0-.05,0-.05,0,0,0,0h0a1,1,0,0,1,.33,0,1.08,1.08,0,0,1,.33.13c.09.05.17.13.17.18h0a.08.08,0,0,1,0,0h0a0,0,0,0,1,0,0s0,0-.09,0a.79.79,0,0,1-.34-.15h0s0,0,0,0a.64.64,0,0,0,.33.25.42.42,0,0,0,.31-.05l.05,0,0,0,0,0s0,0,0,0l0-.06h0a.47.47,0,0,1,.17-.14,2,2,0,0,1,.37-.08,3.66,3.66,0,0,1,.81,0H17a2,2,0,0,1,.62-.09l-.11,0a2.05,2.05,0,0,0-.4.19l-.11.08-.05.05,0,0a.32.32,0,0,1-.08.09,2.23,2.23,0,0,1-.57.36h0a.14.14,0,0,0-.08.19,6,6,0,0,0,.67.94,9.7,9.7,0,0,1,.69.93.08.08,0,0,0,.07,0h0A15.46,15.46,0,0,0,20.33,19,4.3,4.3,0,0,0,21,18.8a2.39,2.39,0,0,0,.32-.16,1.64,1.64,0,0,1,.22-.14,3.42,3.42,0,0,1,1.21-.25h0a.35.35,0,0,1,0,.06.45.45,0,0,1-.09.2h0c0,.06,0,.12.09.15A.2.2,0,0,0,23,18.6a.66.66,0,0,0,.09-.28.23.23,0,0,0-.06-.18.32.32,0,0,0-.13-.08l-.08,0h0l-.36,0-.36,0a12.63,12.63,0,0,1-1.39-.26,2.35,2.35,0,0,1-.6-.23c-.08-.05-.13-.11-.13-.17s.07-.12.1-.24a.11.11,0,0,0,0-.1s0,0,0,0l0,0s-.07-.05-.07-.06.06-.06.14-.05a.92.92,0,0,0,.41,0,2.12,2.12,0,0,0,.36-.1.08.08,0,0,0,0,0s0-.07-.06-.08h0a4.55,4.55,0,0,1-.92-.25c-.11,0-.05-.14.05-.23L20,16A.17.17,0,0,0,20,16s0-.07,0-.09a1,1,0,0,0-.17-.14c-.11-.09-.2-.18-.14-.26a1.11,1.11,0,0,1,.35-.22A.94.94,0,0,0,20.4,15a.63.63,0,0,0,0-.38l-.15-.7a1.06,1.06,0,0,1,0-.68,2,2,0,0,1,.43-.64L21.09,14l.38-1.21.21.81.11-1,.49,1.21.21.71.21-1.14L23,14.49l.24-.8.45,1.1.34.64.09-.57.32.73L24.5,15c.15-.49.1-.28.1-.28a1,1,0,0,0,0,.66c-.09.4-.69.76-.69.76l.52-.22,0,0h0l-.27.36c.63-.26.77-.35,1.24-.26h0s0,0,0,0v.05a.44.44,0,0,1-.05.22,1.49,1.49,0,0,1-.89.68,1.21,1.21,0,0,1-.45,0l-.17,0,0,0,.17.07a1.58,1.58,0,0,0,.52,0A1.32,1.32,0,0,0,24.9,17a1.47,1.47,0,0,0,.34-.15,1.72,1.72,0,0,0,.54-.46.7.7,0,0,0,.13-.24c.27.22.07.58.07.58l-.51.79.07,0a.77.77,0,0,0-.09.53,1,1,0,0,0,.18.4,1.54,1.54,0,0,0,.31.32c.24.19.49.34.7.52a2.08,2.08,0,0,1,.76,1.2,6.52,6.52,0,0,1,0,1.4,10.15,10.15,0,0,1-.11,1.38s0,0,0,0,0,0,0,0,0,0,.06-.05l0,0,0-.09.06-.18.08-.35c.05-.23.1-.47.13-.7a4.93,4.93,0,0,0,.1-1.44A2.2,2.2,0,0,0,27,19.08c-.22-.19-.48-.37-.68-.53a1.55,1.55,0,0,1-.24-.27A.79.79,0,0,1,26,18a.58.58,0,0,1,.19-.53c.86-.47,2.63-.05,3.43-2S28.3,11.8,27.11,11.44Z"/><polygon class="cls-2" points="19.72 13.67 19.72 13.66 19.66 13.74 19.72 13.67"/><path class="cls-2" d="M21.13,14c-.54-.13-.58.29-.58.29a.85.85,0,0,1,.95,0,7.76,7.76,0,0,0,1,.54A4.77,4.77,0,0,0,21.13,14"/><path class="cls-2" d="M21,15a.2.2,0,0,0,.27-.2l.39.25a2.37,2.37,0,0,0-.6-.5c-.28-.12-.34.07-.34.07s.15,0,.15,0-.15.28.13.36"/><path class="cls-2" d="M23.9,21.88a3,3,0,0,1,0-.85,1,1,0,0,1,.12-.37,1.11,1.11,0,0,0-.2.36,3.85,3.85,0,0,0-.17.86,8.17,8.17,0,0,0,0,1.25,0,0,0,0,1,0,0,.26.26,0,0,0,.3.14c.14,0,.23-.11.2-.21a7.33,7.33,0,0,1-.24-1.21"/><path class="cls-2" d="M6.93,10.14a7.84,7.84,0,0,0,1.5-.09s-.31.71,0,.67.55-.54.55-.54l.38,0c-.25-.51.11-.59.11-.59C9,9.67,8,9.81,8,9.81Z"/><path class="cls-2" d="M10.49,9.71h0a3.41,3.41,0,0,0-.61,1,1.6,1.6,0,0,0,0,1.12,1.28,1.28,0,0,0,.41.54l.08,0,.05,0h0l.06,0-.06,0a1.91,1.91,0,0,1-.63.12H9.44a.57.57,0,0,1-.17-.05l-.46.12a1.35,1.35,0,0,1,0,.49.25.25,0,0,1,0,.1v0l-.15,0c-.47-.08-1-.21-1.44-.34a.35.35,0,0,0-.3,0,.15.15,0,0,0,0,.26l.19.14.16.15a.45.45,0,0,1,.15.3s0,.05,0,0l0,.06,0,0-.07,0H7.05l-.24,0h0c-.13,0-.27,0-.29.13a1.55,1.55,0,0,1-.28.54.66.66,0,0,1-.23.18.35.35,0,0,1-.25,0c-.3-.06-.57-.13-.84-.21a5.87,5.87,0,0,1-.77-.3,4.23,4.23,0,0,1-1.25-.87,2,2,0,0,1-.24-.26.1.1,0,0,1,0,0,4.65,4.65,0,0,0-.33-1.86,1.53,1.53,0,0,1,.62-1.53A8.32,8.32,0,0,1,4,9.37a3,3,0,0,0-1,1c-.91,1.69,1.25,2.58,1.25,2.58-2-1.7-.46-3.1,1.1-3.94,2-.52,4.29-1.11,4.39-2.32,0,0,2,.84,1.51,2.22-.25.26-.53.52-.76.81m0,2.82h0S10.49,12.54,10.47,12.53ZM3.12,14.17h0a3.29,3.29,0,0,0-.54,0,2,2,0,0,0-.49.12,2.65,2.65,0,0,0,.44-.94l.13.18a3.25,3.25,0,0,0,.26.27,3.47,3.47,0,0,0,.29.25l.19.14ZM1,10.09v5.23a5.06,5.06,0,0,0,.71-.61l.11,0c.23,0,.52-.11.81-.15l.45,0,.41,0,.21,0,.16.09a5.85,5.85,0,0,0,.8.35,8.65,8.65,0,0,0,.87.25,1,1,0,0,0,.62,0,1,1,0,0,0,.4-.27,1.77,1.77,0,0,0,.29-.46H7a1.35,1.35,0,0,0,.4,0,.6.6,0,0,0,.22-.06.35.35,0,0,0,.19-.12.4.4,0,0,0,.1-.12.32.32,0,0,0,.05-.17.54.54,0,0,0-.11-.35l.69.15.24,0a.82.82,0,0,0,.38-.08.49.49,0,0,0,.16-.2.64.64,0,0,0,0-.17,1.22,1.22,0,0,0,0-.27h0a2.37,2.37,0,0,0,.46,0,2.28,2.28,0,0,0,.84-.19.55.55,0,0,0,.21-.14.21.21,0,0,0,0-.28c-.08-.11-.12-.1-.17-.14l-.08-.05-.06,0a.92.92,0,0,1-.33-.4,1.46,1.46,0,0,1,0-1,3.33,3.33,0,0,1,.49-1c.18-.24.4-.48.61-.72.51-.21,1.89-.91,1.91-2.2,0-1.57-1.34-3.4-5.67-3.39A8.81,8.81,0,0,0,1,3V5.32l-.23.3s0,0,0,0,0,0,0,0L1,5.46Z"/><path class="cls-2" d="M9.86,18.65h0a1.48,1.48,0,0,1,.2.38.36.36,0,0,1,0,.23.44.44,0,0,1-.18.18.85.85,0,0,1-.17.08l-.19.08-.44.12a5.55,5.55,0,0,0-1,.3L8,20.08l-.07.05h0A.27.27,0,0,1,7.75,20a.34.34,0,0,1,0-.36.18.18,0,0,1,0-.07l.25,0a3.17,3.17,0,0,0,.45,0,2,2,0,0,0,.55-.1l.14-.08a.53.53,0,0,0,.13-.13.23.23,0,0,0,0-.09v0h0v0h0V19.1a.76.76,0,0,0,0-.16,1.15,1.15,0,0,0,.29-.08.61.61,0,0,0,.26-.21m-4.34.2h0S5.49,18.86,5.52,18.85Zm7.42-3.1-.09,0-.12,0a12.36,12.36,0,0,1-1.43.19L9.8,16c-1,.09-2,.16-3,.16-.51,0-1,0-1.53,0a6.74,6.74,0,0,0-.77,0c-.26,0-.51.07-.76.12a9.43,9.43,0,0,0-1.43.41A8.62,8.62,0,0,0,1,17.35l0,0a24.38,24.38,0,0,1,2.79-.74c.48-.08.94-.14,1.45-.19l1.5-.14c1-.06,2,0,3,0,.51,0,1,0,1.52,0a11.41,11.41,0,0,0,1.41-.14l0,0s0,0,0,0a.65.65,0,0,1-.32.16c-.16.05-.34.11-.52.15l-.54.14-2.1.48-.26-.19a2.1,2.1,0,0,0-.59-.25,3.7,3.7,0,0,1,.36.38,3.43,3.43,0,0,1,.56.87l0,.12,0,0v.07a1.12,1.12,0,0,1,.06.23.58.58,0,0,1,0,.19.54.54,0,0,1-.1.16l-.15.09,0-.1a4.75,4.75,0,0,0-1-1.18,5.27,5.27,0,0,0-.6-.46s.13.23.35.56l.38.56c.13.21.28.42.39.64a.82.82,0,0,1,.12.3v0h0a.41.41,0,0,0,0,.07h0l-.05,0a2.38,2.38,0,0,1-.75.14l-.71,0a1.11,1.11,0,0,0,.07-.26,1.32,1.32,0,0,0,0-.56,2.68,2.68,0,0,0-.44-1.07h0a5,5,0,0,0,0,1.1,3.1,3.1,0,0,0,.1.53,1.22,1.22,0,0,1,0,.26.23.23,0,0,1,0,.12s0,0,0,0,0,0,0,0a2.43,2.43,0,0,1-.73.15,3.76,3.76,0,0,1-.76,0,1.24,1.24,0,0,1-.27-.07.32.32,0,0,1-.1-.07L5,19.53a1.51,1.51,0,0,1-.15-.28l.24,0,.26-.05.13,0h.16a.27.27,0,0,0,.13-.07L5.85,19l.07-.11a.62.62,0,0,0,0-.23.57.57,0,0,0-.2-.37h0a.59.59,0,0,1,0,.35.42.42,0,0,1-.09.14.18.18,0,0,1-.07.05H5.29l-.28,0-.54.05-.28,0h0l-.43,0A5.78,5.78,0,0,0,3,19l-.71.08a2.92,2.92,0,0,1-.72.06H1.54l0,0a1,1,0,0,1-.22.3,1,1,0,0,0-.2.31,1.17,1.17,0,0,0-.08.67h0a1.63,1.63,0,0,0,.48-.59.78.78,0,0,0,.07-.33,1.35,1.35,0,0,1,0-.29l.68.08a6.27,6.27,0,0,0,.75,0,4.54,4.54,0,0,0,.74-.1l.41-.11h0a1.33,1.33,0,0,0,.33.57l.16.13a.77.77,0,0,0,.19.11,1.4,1.4,0,0,0,.5.09,4.29,4.29,0,0,0,.83-.1,5.35,5.35,0,0,0,.79-.19.41.41,0,0,0,.17-.12l.07-.13a2.28,2.28,0,0,0,.41.08l-.07.05a.42.42,0,0,0-.16.46.45.45,0,0,0,.32.3.47.47,0,0,0,.21,0,.64.64,0,0,0,.2-.05l.05,0,.06,0,.07,0c.22-.08.56-.14.89-.22a3.22,3.22,0,0,0,.5-.16l.23-.1.2-.13a.55.55,0,0,0,.25-.37.52.52,0,0,0-.1-.33,1.57,1.57,0,0,0-.4-.36l0,0a.58.58,0,0,0,.08-.22.69.69,0,0,0,0-.29V18l0-.08s0-.09-.05-.14a2.2,2.2,0,0,0-.35-.51l-.16-.14c.34,0,.68-.05,1-.1s.77-.09,1.15-.16l.58-.1.58-.13a1.25,1.25,0,0,0,.58-.32.27.27,0,0,0,0-.37A.83.83,0,0,0,12.94,15.75Z"/><path class="cls-2" d="M7.93,20.14h0"/><path class="cls-2" d="M6,9.27s3.37-.39,3.75,0,.79-.09.79-.09S9,8.42,6,9.27"/><polygon class="cls-3" points="15.54 9.68 15.13 9.68 15.13 9.4 16.41 9.4 16.41 9.68 15.99 9.68 15.99 10.98 15.54 10.98 15.54 9.68"/><path class="cls-3" d="M17,9.4h0v1c0,.23.11.3.22.3s.23-.06.23-.3v-1h.44v1a.57.57,0,0,1-.66.63c-.49,0-.68-.23-.68-.63v-1Zm.73-.35-.42.26H17l.28-.26Z"/><path class="cls-2" d="M28.75,16.6a8.33,8.33,0,0,1-2.69,2.26c-1.3.5-2.27.91-2.58,1.64a.28.28,0,0,1,.13.4,1.57,1.57,0,0,1-.67.45s-.64-.77.19-1A2.24,2.24,0,0,1,24.27,19,6,6,0,0,0,26,17.11Z"/></svg>