<svg id="Capa_1" data-name="Capa 1" xmlns="http://www.w3.org/2000/svg" viewBox="0 0 19.02 25.92"><defs><style>.cls-1{fill:#f5a4c7;}.cls-2{fill:#fbcabb;}.cls-3{fill:#cd4c2a;}.cls-4{fill:#ffcb56;}.cls-5{fill:#231f20;}</style></defs><title>6-18meses</title><path class="cls-1" d="M8.29,14.35s-1.24,1-1.35,1.59,1.19,1.68,1.35,1.69a3.9,3.9,0,0,0,4.35.26c2.32-1.42,2.48-2,2.3-2.35a6.86,6.86,0,0,0-.35-.65Z"/><path class="cls-2" d="M7.76,10.17a6.43,6.43,0,0,0-.94.86c-.38.43-1.39,2.2-.64,2.69a3.84,3.84,0,0,0,1.58.55s-.34.65-.06.92a6,6,0,0,0,1.87.41l.72.06.32-1.31.75.09-.15,1.22a9.75,9.75,0,0,0,2.65-.22,1.91,1.91,0,0,0,.74-.67c0-.07,0-.58,0-1.34A8.14,8.14,0,0,0,14,11.1s2.23-.19,2.37-.59a2,2,0,0,0-.07-1.4,2.82,2.82,0,0,0-.93-.83c-.3-.11-2-1-2.08-1.1A5.87,5.87,0,0,0,12.52,7s-.19-.73-.46-.75A1.35,1.35,0,0,1,11.25,6a8.34,8.34,0,0,0-3.77-.17A11.91,11.91,0,0,0,5,6.48a11.55,11.55,0,0,0-.08,1.6l-.21.75s1.09.86,1.56.81.51,0,.51,0a3.27,3.27,0,0,0,.75.45,1.52,1.52,0,0,1,.28.08"/><path class="cls-2" d="M11,19.72s.25-.36,0-.56-.33-.19-.33-.26.22-1.13.22-1.13a6.65,6.65,0,0,1,.66.85c0,.12-.22-.15.27-.3a15.17,15.17,0,0,0,2-.94,3.59,3.59,0,0,1,.39-.39s.24.11.32.56A9.86,9.86,0,0,1,14.15,21c-.41,1.21-.22,1.76.39,2s1.14.52,1.14.69-.27.22-.27.22l-.22-.07a.21.21,0,0,1-.06.27c-.14.12-.44.07-.46.21s-.66.13-.74.13a1.88,1.88,0,0,1-.35-.13s-.29.17-.47.1a6,6,0,0,1-.65-.38s-.1-1.51-.08-2.05a2.45,2.45,0,0,0-.73-1.87c-.52-.33-.67-.4-.67-.4"/><polygon class="cls-3" points="9.65 18.85 10.61 14.35 11.49 14.46 10.57 19.02 9.65 18.85"/><polygon class="cls-3" points="11.12 12.57 11.74 8.97 12.56 8.97 12.01 12.57 11.12 12.57"/><path class="cls-3" d="M12.33,6.92l.74.18s.48-1.4.16-1.63a1.44,1.44,0,0,0-1-.14,4,4,0,0,0-.37.78s.4.23.49.81"/><path class="cls-4" d="M7.42,21l-.75,3.08a7.86,7.86,0,0,0,1.59.22c.76,0,4,0,4,0s0-3,0-3.32-1.3-1.31-1.35-1.31.39-.3.19-.46a1.91,1.91,0,0,0-1.25-.33c-.6,0-.82.19-.82.4a.64.64,0,0,0,0,.28A1.83,1.83,0,0,0,7.42,21"/><path class="cls-2" d="M8.06,20a2.75,2.75,0,0,0-.23-1.19c-.25-.5-.65-.91-.74-1.1s-.29-1,0-1.05a16.45,16.45,0,0,1,2.05,0l.81.58-.22,1.64s-.62,0-.69.24a.89.89,0,0,0,0,.43s-1,.49-1,.49"/><path class="cls-5" d="M8.18,8.29A1.73,1.73,0,0,0,6.32,9a1.65,1.65,0,0,1,1.09-.53c.57,0,1.07-.08.77-.15"/><path class="cls-5" d="M9.26,8.07c.18,0,.43-.36.77-.42a7.9,7.9,0,0,1,1.09,0,2.86,2.86,0,0,0-1.65.08c-.35.2-.39.42-.21.38"/><path class="cls-5" d="M7.69,8.81a1.54,1.54,0,0,1-.78.07C8,9.36,8.05,8.6,8.05,8.6a3.39,3.39,0,0,1-.36.21"/><path class="cls-5" d="M9.66,8.09c1,.38,1-.36,1-.36a1.22,1.22,0,0,1-1,.36"/><path class="cls-5" d="M9,9.33c.22,0,.29.13.49,0s.25-.12.32-.26a.17.17,0,0,0,0-.22s.08.09-.08.18-.26.29-.52.26-.3,0-.41,0,0,.06.24.07"/><path class="cls-5" d="M9.74,9.45a.62.62,0,0,1-.36.11,1.26,1.26,0,0,0-.47.15,2.2,2.2,0,0,0,1.54-.47l-.3.09a2.45,2.45,0,0,0-.41.12"/><path class="cls-5" d="M9.57,9.86c.34.13.56,0,.46-.07s-.62,0-.46.07"/><path class="cls-5" d="M16.41,10.28h0l0,.1a.48.48,0,0,1-.14.15,2.56,2.56,0,0,1-1,.35,9.09,9.09,0,0,1-1.17.11h0c-.07,0-.13,0-.12.1h0c.08.54.17,1.09.29,1.64q.07.4.18.81a3.79,3.79,0,0,1,.15.79.82.82,0,0,1-.21.67.74.74,0,0,1-.17.12l0,0,0,0-.12.05a4.39,4.39,0,0,1-.5.14,13.93,13.93,0,0,1-2.08.24l.2-1.12a1.12,1.12,0,0,0,.31-.1.4.4,0,0,0,.21-.24l0-.12V14h0s.09,0,.11-.09,0,0,0,0l0,0a.38.38,0,0,0,.07-.44l.07,0a.33.33,0,0,0,.1-.17v0h0s0,0,0,0a.24.24,0,0,0-.09-.11h0a.05.05,0,0,0,0,0,.3.3,0,0,0-.05-.4.47.47,0,0,0-.16-.1l.57-3.38.1.07a1.12,1.12,0,0,0,.25.11,1.54,1.54,0,0,0,.3,0,1.48,1.48,0,0,0,0,.21.7.7,0,0,0,.14.35.84.84,0,0,0,.35.28,1.21,1.21,0,0,0,.5.1l0,0A1.37,1.37,0,0,1,14,9.77c0-.08-.07-.16-.11-.25s-.06-.19-.09-.27l0-.09,0,0a.18.18,0,0,0-.2,0,.54.54,0,0,1-.39.1.24.24,0,0,1-.15-.1s0,0,0-.07A.17.17,0,0,1,13,9h0s0,0,0-.05l-.13,0a1.75,1.75,0,0,0-.56,0l-.25,0,.07-.11.06-.14.68-.15-.58-.14a.25.25,0,0,1,0-.08l.57-.17-.58-.18V8s0-.07,0-.11a1.22,1.22,0,0,0-.07-.17l.12,0v0l.63-.18-.37-.1a.7.7,0,0,0,.06-.17,1.87,1.87,0,0,0,0-.25l.23.09v0h.17a1.06,1.06,0,0,1,.39.26,1.57,1.57,0,0,0,.42.34,4.39,4.39,0,0,0,.47.27l1,.5.23.11.22.13a1.81,1.81,0,0,1,.33.28,1.35,1.35,0,0,1,.3.74c0,.13,0,.27,0,.41s0,.08,0,.09m-1.69,4.93h0a.1.1,0,0,0,0-.05.83.83,0,0,1,.11.45,1.12,1.12,0,0,1-.24.49c-.12.16-.25.33-.36.5a2.31,2.31,0,0,1-.18.23,2.2,2.2,0,0,1-.23.2,7,7,0,0,1-1.17.72c-.4.2-.82.4-1.24.58a2.5,2.5,0,0,0-.23-.23,3.07,3.07,0,0,0-.26-.25l.4-2.16c.32,0,.64,0,1,0a7.21,7.21,0,0,0,1.22-.08,3.77,3.77,0,0,0,.63-.14l.13-.05.08,0,.07,0A1.67,1.67,0,0,0,14.72,15.21Zm-.24,2.72h0a4.58,4.58,0,0,1,0,1,8.64,8.64,0,0,1-.25,1l-.28,1c-.08.33-.17.66-.24,1a1.84,1.84,0,0,0,0,.53c0,.22.24.4.43.51.43.23.89.33,1.25.54.18.1.32.24.21.35s-.09.08-.16,0a.62.62,0,0,1-.16-.2s-.05,0-.09,0-.07,0-.06.07a1.43,1.43,0,0,1,.07.28.57.57,0,0,1,0,.13.08.08,0,0,1,0,.05h0l0,0A.44.44,0,0,1,15,24l0-.06a.6.6,0,0,0-.06-.19v0a.19.19,0,0,0-.2-.08c-.09,0-.14.08-.12.14h0a1.51,1.51,0,0,1,0,.3.36.36,0,0,1,0,.11h0l-.08-.09a.73.73,0,0,1-.09-.26h0a.23.23,0,0,0-.26-.14c-.13,0-.21.09-.2.18a1,1,0,0,1,0,.29.5.5,0,0,1,0,.12.08.08,0,0,0,0,0,1.31,1.31,0,0,1-.09-.28h0a.17.17,0,0,0-.18-.11c-.09,0-.17.06-.17.12a.66.66,0,0,1-.05.28.2.2,0,0,1-.21.12.81.81,0,0,1-.19,0l-.2-.07a1,1,0,0,1-.25-.15c0-.72-.11-1.45-.17-2.18l0-.25s0,0,0,0h0a.56.56,0,0,0,0-.08.22.22,0,0,1,0-.08,1.49,1.49,0,0,0-.18-.7,2.67,2.67,0,0,0-.5-.63l-.2-.16a.72.72,0,0,0,.16-.2,1.07,1.07,0,0,0,.16-.58,1,1,0,0,0-.21-.58.46.46,0,0,0-.07-.07A10.71,10.71,0,0,0,13,18a5.44,5.44,0,0,0,1.28-.77l.07-.06A3.78,3.78,0,0,1,14.48,17.93Zm.1,6.26h0S14.57,24.19,14.58,24.19Zm0,0Zm-2.53-2.11h0l-.29-.1c-.19-.08-.37-.17-.59-.24a5,5,0,0,0-.67-.15c-.23,0-.46-.06-.69-.07a5.2,5.2,0,0,0-.69,0c-.23,0-.46,0-.68.06a9.81,9.81,0,0,0-1.08.21c.06-.15.11-.31.16-.46.42,0,.83,0,1.23,0h1.83l.58.05a3,3,0,0,1,.54.12l.22.09a1.13,1.13,0,0,1,.15.09l.05.39ZM7.83,20.68h0a1.4,1.4,0,0,1,.46-.54A3.6,3.6,0,0,1,9,19.73a2.56,2.56,0,0,1,.89-.15,3.19,3.19,0,0,1,.82.12h0l.29.14,0,0a2.22,2.22,0,0,1,.52.37,1.73,1.73,0,0,1,.46.6,1.1,1.1,0,0,1,.13.56,1.15,1.15,0,0,0-.25-.12,4.54,4.54,0,0,0-.63-.18,4.81,4.81,0,0,0-.65-.08A4.7,4.7,0,0,0,10,21c-.21,0-.43,0-.64,0l-.63.07a11,11,0,0,0-1.17.23A4.22,4.22,0,0,1,7.83,20.68ZM8,18.94H8a1.27,1.27,0,0,0-.13-.32,2.2,2.2,0,0,0-.21-.32c-.08-.11-.14-.18-.2-.28a1.56,1.56,0,0,1-.16-.28,3.54,3.54,0,0,1-.21-.52c0-.16-.08-.3-.11-.39a.39.39,0,0,0,.24,0l0,0,.14,0,.16,0a1.86,1.86,0,0,1,.34-.05h.35a2.25,2.25,0,0,1,.36.06,4.33,4.33,0,0,1,.7.21l.52.23L9.58,18.8a2.32,2.32,0,0,0-.38.06.52.52,0,0,0-.41.68,3.27,3.27,0,0,0-.68.31,1.55,1.55,0,0,0,0-.33A1.86,1.86,0,0,0,8,18.94ZM7.2,15.87h0a1.85,1.85,0,0,1,.25-.75.35.35,0,0,0,0,.08.75.75,0,0,0,.32.24l.36.12a5.49,5.49,0,0,0,1.37.15,4.49,4.49,0,0,0,.59,0l-.26,1.44A.6.6,0,0,1,9.8,17l-.28-.22-.33-.19c-.12-.05-.25-.11-.38-.15a3,3,0,0,0-.43-.1,3.55,3.55,0,0,0-.46,0,3.56,3.56,0,0,0-.47.05l-.16,0a.64.64,0,0,1-.06-.18A1,1,0,0,1,7.2,15.87ZM8,14.52H8a4.32,4.32,0,0,0,1.31,0,3.89,3.89,0,0,0,.49-.12l.06,0,.19,0,.31,0-.2,1.14c-.07,0-.27-.08-.55-.14s-.81-.17-1.22-.28a1.71,1.71,0,0,1-.29-.08,1,1,0,0,1-.19-.1h0l0-.06,0-.08a.61.61,0,0,1,0-.18.92.92,0,0,1,0-.24Zm1.15,4.92h0a.28.28,0,0,1,.2-.35,3,3,0,0,1,1.05,0v.05l.33,0,.16.08c.14.1.07.25,0,.37a3.27,3.27,0,0,0-.9-.19A2.52,2.52,0,0,0,9.13,19.44Zm2.25.3h0a.53.53,0,0,0,0,.15l-.28-.17c.15-.2.26-.49,0-.69a1.34,1.34,0,0,0-.34-.14l.18-1,.13.25c.07.12.13.24.21.36l.05,0v.11c0,.15,0,.34,0,.54A2.38,2.38,0,0,0,11.38,19.74Zm-1-.93h0a3.59,3.59,0,0,0-.47,0l.75-4.24a3.05,3.05,0,0,0,.43,0h.07Zm1.7-5.55ZM7,13.94H7a4.1,4.1,0,0,1-.53-.16.91.91,0,0,1-.38-.26A.55.55,0,0,1,6,13.13a2,2,0,0,1,.32-.78c.07-.13.17-.25.24-.38l.21-.38c.14-.26.28-.52.44-.76a3.09,3.09,0,0,1,.26-.37.85.85,0,0,1,.29-.24l.16,0a5.4,5.4,0,0,0,.86.12h.47a4.53,4.53,0,0,0,.52,0,3.18,3.18,0,0,0,1.7-.72L11,12.4l-.22,0a2.12,2.12,0,0,0-.54.13,1.2,1.2,0,0,0-.32.16L9.4,12.6l-.32-.06s0-.06,0-.1a2.33,2.33,0,0,0,0-.58,2.09,2.09,0,0,0-.19-.55l-.11-.17,0-.06,0,.07.05.18a1.59,1.59,0,0,1,0,.54,1.87,1.87,0,0,1-.15.52.93.93,0,0,1-.05.1,3.17,3.17,0,0,0-1.31.15l0,0,.33,0H8c.21,0,.42.06.63.09l.61.16a5.08,5.08,0,0,1,.59.18.4.4,0,0,0,.34,0,1.46,1.46,0,0,1,.7-.3,3.4,3.4,0,0,1,.46-.06l.23,0h.24a.83.83,0,0,1,.38.07.2.2,0,0,1,.08.25h0a1.09,1.09,0,0,0-.3,0,3.31,3.31,0,0,0-.55,0h0s-.08,0-.08.06,0,.07.08.07l.33,0,.2,0,.17,0h0l-.19,0a3.29,3.29,0,0,1-.45,0h-.05a.19.19,0,0,0-.2.13c0,.08.08.15.2.15h0a3.62,3.62,0,0,0,.57,0l.18,0,.07.09a.26.26,0,0,1,0,.15L10.88,14a4.16,4.16,0,0,0,1.17,0h0l0,0-.07.11a.46.46,0,0,1-.2.13,1.48,1.48,0,0,1-.6,0,4.62,4.62,0,0,1-.65-.09l-.31-.07-.13,0a.18.18,0,0,1-.07,0l-.32,0-.51.11-.54.06a3.33,3.33,0,0,1-.55,0,2.69,2.69,0,0,1-.54-.1ZM6.81,9.67h0c-.27-.18-.44-.35-.59-.45A1.53,1.53,0,0,0,6,9.08L5.73,9l.13-1.32.44.49.2-.69.21.94.43-1.51a6.41,6.41,0,0,1,.28.78l.23-.8.6,1.24.41-1.42L9.06,8,9.21,6.3l.3.55L9.75,6,11,7.18l-.42-.84.86.7v0a.85.85,0,0,0,0,.23l.1.22a2,2,0,0,1,.16.38,1,1,0,0,1-.14.71,3.09,3.09,0,0,1-.45.68,2.62,2.62,0,0,1-1.5.77l-.43.06-.45,0a4.14,4.14,0,0,1-.8-.05A2.68,2.68,0,0,1,6.81,9.67Zm-.59-.14h0a3.6,3.6,0,0,1-.82-.36,1.43,1.43,0,0,1-.21-.12A1.25,1.25,0,0,1,5,8.93a.69.69,0,0,1-.12-.1s0,0,0,0l0,0,.82.4,0-.15L6,9.11a1.48,1.48,0,0,1,.23.14,4.8,4.8,0,0,1,.44.37ZM11.8,6.24h.07l0,0s0,0,0,0Zm0,6.18h0l-.27,0h-.24l.57-3.27,0-.06a1.86,1.86,0,0,0,.34.07l.15,0-.56,3.28Zm.33-4.94h0a.09.09,0,0,1,0,.06l-.06-.12L12,7.24c0-.07,0-.14-.05-.19a6.73,6.73,0,0,0-.09-.72H12l.07,0a.34.34,0,0,1,0,.08s0,.09,0,.14a1.76,1.76,0,0,1,0,.33c0,.11,0,.23,0,.34s0,.1,0,.14A.31.31,0,0,1,12.16,7.48Zm.25-2.06h0a.29.29,0,0,1,.14,0,.71.71,0,0,1,.41.09c.11.09.13.28.06.6a6.58,6.58,0,0,0-.12.9l-.24,0V6.88a.84.84,0,0,0-.08-.38.58.58,0,0,0-.11-.18.49.49,0,0,0-.23-.15H12.1A1.14,1.14,0,0,1,12.41,5.42Zm4.06,3.49a1.46,1.46,0,0,0-.4-.38,1.49,1.49,0,0,0-.24-.14l-.26-.13-1-.46-.49-.23a1.32,1.32,0,0,1-.4-.26,1.12,1.12,0,0,0-.43-.23,5.89,5.89,0,0,1,.12-1c.09-.41.05-.64-.13-.79a1.18,1.18,0,0,0-.67-.19.69.69,0,0,0-.4.11,1.16,1.16,0,0,0-.42.82A2.33,2.33,0,0,0,11.1,5a2.05,2.05,0,0,0-.92-1,7.56,7.56,0,0,0-4.83-.17A3.25,3.25,0,0,0,2.94,6.11C2.76,7,4.59,8.62,4.59,8.62l.06,0a.22.22,0,0,0-.12.24.48.48,0,0,0,.12.22.66.66,0,0,0,.19.18,1.82,1.82,0,0,0,.23.15,1.86,1.86,0,0,0,.55.22,2.32,2.32,0,0,0,.56.07,2,2,0,0,0,.48-.08l.08.07a3.3,3.3,0,0,0,.87.46,1.37,1.37,0,0,0-.36.19,2.49,2.49,0,0,0-.38.34,4.3,4.3,0,0,0-.55.76,3.37,3.37,0,0,0-.35.81,4.9,4.9,0,0,0-.16.85.75.75,0,0,0,.09.43,1,1,0,0,0,.39.36,3.59,3.59,0,0,0,.53.24l.53.21.28.08a.69.69,0,0,0-.17.25.45.45,0,0,0,0,.23s0,.09,0,.13v0a1.56,1.56,0,0,0-.6.74.87.87,0,0,0-.06.45,1,1,0,0,0,0,.24,2.14,2.14,0,0,0,.1.22l0,0a1.32,1.32,0,0,0-.1.46,1.79,1.79,0,0,0,.06.59,2.33,2.33,0,0,0,.14.33c.06.1.15.22.21.31a2.43,2.43,0,0,1,.2.28c0,.1.11.19.16.28s.17.37.24.53.1.27.13.37H8a.85.85,0,0,0-.19.14.62.62,0,0,0-.16.17,1.46,1.46,0,0,0-.23.34,5.07,5.07,0,0,0-.29.69,8.47,8.47,0,0,0-.32,1.39,9.45,9.45,0,0,0-.12,1.4h0l.37-1.38c.08-.27.17-.54.25-.8l1.16,0,1.32-.05.65,0a3.32,3.32,0,0,1,.64,0,2.46,2.46,0,0,1,.29.09l.28.13.29.13.16.06h0q0,.91,0,1.83c-1.51,0-3,0-4.53,0L7.92,24,8.44,24l.52,0c.36,0,.72,0,1.08,0h.67v0h.42v0h-.06l-.18-1.47-.16,1.43-.67-.07c-.36,0-.73-.05-1.09-.06-.1,0-.2,0-.3,0l-.15-.62-.15.62a4.73,4.73,0,0,0-.52,0H7.78l.08-1.19-.41,1.25-.18.05A1.13,1.13,0,0,0,7,24c-.09.07-.19.12-.19.29s.08.14.19.14H7c1.78,0,3.57,0,5.35,0h0c.14,0,.24-.08.24-.17V24.2l.16.12.2.1a1.12,1.12,0,0,0,.24.08.5.5,0,0,0,.32,0l.1-.06a.58.58,0,0,0,.08.1l.08.05.13,0H14a.4.4,0,0,0,.15,0,.24.24,0,0,0,.16-.12l0,0,.11,0h.21a.41.41,0,0,0,.22-.09.22.22,0,0,0,.09-.12,0,0,0,0,0,0,0s0,0,0,0a.24.24,0,0,0,.18,0c.1,0,.1-.08.11-.11a.14.14,0,0,0,0-.09.59.59,0,0,0,0-.13.34.34,0,0,0,.18,0,.37.37,0,0,0,.18-.11.22.22,0,0,0,0-.29.84.84,0,0,0-.24-.22c-.36-.25-.83-.41-1.14-.62-.16-.12-.27-.22-.26-.34a2.77,2.77,0,0,1,.09-.47c.08-.32.19-.65.3-1s.2-.66.28-1a5,5,0,0,0,.16-1,3,3,0,0,0-.13-1,2.76,2.76,0,0,0-.37-.8l.1-.11a1.47,1.47,0,0,0,.18-.28c.1-.17.2-.34.29-.53a.93.93,0,0,0,.12-.59,1,1,0,0,0-.3-.46,1.13,1.13,0,0,0,.3-.81,3.88,3.88,0,0,0-.17-.85c-.09-.27-.17-.53-.24-.8-.13-.51-.29-1-.45-1.52.35,0,.7-.1,1-.16a3.41,3.41,0,0,0,1.11-.39.73.73,0,0,0,.19-.2l0-.1a.89.89,0,0,0,0-.11c0-.14,0-.28.05-.42A1.38,1.38,0,0,0,16.47,8.91Z"/><polygon class="cls-5" points="11.58 22.8 11.64 23.95 12 23.91 11.58 22.8"/><path class="cls-5" d="M5.84,9.48s.6.09.78.14a8.49,8.49,0,0,1,1,.56l-.59.5L5.93,12.74l0,.57s-.69-.47-.6-.74a.4.4,0,0,1,.33-.29,3.28,3.28,0,0,0,.29-1.45,8.18,8.18,0,0,0-.25-1.25Z"/></svg>