<svg id="Capa_1" data-name="Capa 1" xmlns="http://www.w3.org/2000/svg" viewBox="0 0 31.2 20.88"><defs><style>.cls-1{fill:#b3d335;}.cls-2{fill:#f5a4c7;}.cls-3{fill:#fbcabb;}.cls-4{fill:#231f20;}.cls-5{fill:#6d6f71;}</style></defs><title>7-18meses</title><path class="cls-1" d="M21,13.83s-1.07-.21-.88-.43S21.42,13,21.47,13a27.34,27.34,0,0,1,5.42-.07c1.95.26,2,.45,2,.45l-.27.27.22,0a1.42,1.42,0,0,1,.82.13c.38.24.62.39.56.65a3,3,0,0,1-1.38,1.17c-.51.15-.62-.07-.43-.16s1-.68,1-1,.09-.53-.13-.68S28,14,28,14.36a8,8,0,0,0,.11,1.28s-.44,1-.44,1a8.28,8.28,0,0,1-3.53.52C21.8,17.11,21,16.48,21,16s0-2.13,0-2.13"/><path class="cls-2" d="M4.71,14.31c-.08,0-3,1.67-3,1.67s-.23,3,.48,3.54a3.79,3.79,0,0,0,2.72.78A24.47,24.47,0,0,0,8.6,19.19c.08-.09.91-2.3.65-2.6s-4.54-2.28-4.54-2.28"/><path class="cls-3" d="M2.09,15.89A7.84,7.84,0,0,1,3,13.8c.5-.65,2.14-2.66,2.73-3.3s.74-.58.81-.93S6.09,8.43,6.07,8.2A9.65,9.65,0,0,1,7.67,6c.26-.17,3.79-1.67,4.64-1.44a1.22,1.22,0,0,1,1,1.18,11.72,11.72,0,0,1-.71,1.73.61.61,0,0,0,.17.51c.12.11.35.3.28.38a5.19,5.19,0,0,1-.61.34s.34.4.18.45a8.61,8.61,0,0,1-.87.06s.72.14.72.28-.44.32-.44.32.16.2.1.26-1.15.24-1.15.24H10a.7.7,0,0,0,.14.46A6.94,6.94,0,0,0,12.67,12a26.07,26.07,0,0,0,2.84.34,14.61,14.61,0,0,1,1.56,0c.19.08.4.08.23.16s-1.54.15-1.67.33-.38.4-.13.6.23.29,0,.42a.72.72,0,0,1-.79,0c-.34-.18-1.1-.72-1.1-.72l-1.79.05h-.05l-1.07-.49-.47.08-.36,1.28s1,.29,1.13-.08.81-1,1.1-.74.43.21.48.43a5.2,5.2,0,0,1,.17.84.48.48,0,0,1-.21.39l-2.06.87s2-.07,2.2,0,.95.21,1,.4.19.33.3.31a12.52,12.52,0,0,0,1.61-.13.87.87,0,0,1,.69,0c.06.07-.1.22-.06.33s.22.2.07.31l-.22.17a5.09,5.09,0,0,1,1.14.3c.23.15,0,.57.09.81s-.05.35-.2.49a1.49,1.49,0,0,1-1.08.18c-.34-.1-1-.23-1-.23a15.26,15.26,0,0,1-2.47,1.18c-.51.07-2.66.41-3.3.47a14.9,14.9,0,0,1-3.89-.09C4,20,3.06,19.12,3.52,18.33a2.92,2.92,0,0,1,2.94-1.59l2.73.45.46.07-.49-.15a.26.26,0,0,0,.14-.27c0-.2.09-.34-.34-.38S5.25,16,4.33,15.92Z"/><path class="cls-4" d="M11.65,8A.6.6,0,0,0,12,7.64s.17,0,.16.08.25-.31-.31-.18A1.06,1.06,0,0,0,11.1,8l.35-.16s-.06.2.2.1"/><path class="cls-4" d="M16.71,18.79h0a2.06,2.06,0,0,1-.26,0l-.28-.06c-.38-.08-.76-.15-1.15-.21a.27.27,0,0,0-.2,0l0,0c-.3.19-.63.38-.94.56a8.48,8.48,0,0,1-1,.5,4.72,4.72,0,0,1-.53.18l-.6.11c-.42.08-.83.16-1.25.22a10.53,10.53,0,0,1-1.27.1l-.63,0-.63,0c-.42,0-.84,0-1.25.05H5.78a.21.21,0,0,0-.14-.12h0a6.8,6.8,0,0,1-1.12-.42A2.09,2.09,0,0,1,4,19.48a1.37,1.37,0,0,1-.31-.33A.67.67,0,0,1,3.65,19c0-.06,0-.12,0-.18l0-.1a.06.06,0,0,1,0,0l0,0a1.47,1.47,0,0,1,.1-.22A1.72,1.72,0,0,1,4.06,18a2.38,2.38,0,0,1,.35-.36,2.83,2.83,0,0,1,.44-.3,4.23,4.23,0,0,1,.53-.23A2.81,2.81,0,0,1,6,17a4.34,4.34,0,0,1,.63-.05,4.79,4.79,0,0,1,.65,0l.67.06H8l1.08.3.7.2a4.17,4.17,0,0,1,.63.23c.29.18.6.35.9.52h0a.18.18,0,0,0,.19,0c.05,0,.05-.09,0-.13h0c-.23-.19-.46-.38-.7-.56a4.66,4.66,0,0,1,.75,0,8.07,8.07,0,0,1,1,.11,4.13,4.13,0,0,0,1.06,0,1.86,1.86,0,0,0,.54-.14l.23-.11.1-.05h0l0,0,.07,0h.26a3.42,3.42,0,0,1,.45,0c.32,0,.64.07,1,.09h.53a.54.54,0,0,1,.33.07c.08.05.11.12,0,.18s-.33.09-.38.14,0,0,0,0h0l0,0s0,0,0,0H17a.91.91,0,0,0,.26-.05h0a.11.11,0,0,1,0,.08c0,.05-.07,0-.13.07l-.25.11-.13.08a.62.62,0,0,0,.17.06h.18a.4.4,0,0,0,.15,0l-.15.09H17l-.11.06a.35.35,0,0,0-.1.08l.16.05.15,0h.1l-.07,0h0l-.09,0-.15.06-.14.09.18,0h.14a1.86,1.86,0,0,1-.34,0m-14.16.88h0A1.42,1.42,0,0,1,2,19.09a2.08,2.08,0,0,1-.19-.72,6.37,6.37,0,0,1-.07-.74,9.25,9.25,0,0,1,0-1.49c0-.16.39-.2.72-.2s.7,0,1,.05c.71,0,1.43.12,2.15.19l2.14.22,1.06.13c.37,0,.38.29.35.52-.2,0-.43-.05-.64-.08L8,16.87l-.66-.1a5.2,5.2,0,0,0-.69-.07H6.25l-.35,0a3.83,3.83,0,0,0-.69.14,3.25,3.25,0,0,0-.64.24,4.86,4.86,0,0,0-.54.33,2.28,2.28,0,0,0-.42.4,2.24,2.24,0,0,0-.32.44,1.58,1.58,0,0,0-.11.23l0,.05s0,.05,0,.08l0,.13a.88.88,0,0,0,0,.28.85.85,0,0,0,.11.26,1.46,1.46,0,0,0,.42.44,3.39,3.39,0,0,0,.56.32l0,0c-.28,0-.56-.05-.81-.09A2.3,2.3,0,0,1,2.55,19.67Zm.2-5.17h0c.25-.45.52-.89.82-1.33a11.57,11.57,0,0,1,2.16-2.46c.22-.19.44-.35.7-.54a1,1,0,0,0,.49-.76.85.85,0,0,0-.11-.35l-.13-.52A.51.51,0,0,1,6.92,8a1,1,0,0,0,0,.25,1.29,1.29,0,0,0,.36.51A1.57,1.57,0,0,0,7.58,9a1.85,1.85,0,0,0,.29.13,1.61,1.61,0,0,0,.5.05l.18,0v0H8.36A1.17,1.17,0,0,1,8,9a1.05,1.05,0,0,1-.59-.77A.3.3,0,0,1,7.4,8l0,0s0,0,0,0h0c.46,0,.56.1,1.06.44L8.36,8h0V8l.41.28s-.43-.42-.38-.81a1.09,1.09,0,0,0,.25-.61s0-.2,0,.28l-.11.6.55-.63L9,7.6l.53-.54.79-.95,0,.78.61-1L10.68,7l.43-.64.86-1-.23.94.47-.73,0,1.18a3.17,3.17,0,0,0-1.47.84s1.12-.9,2-.62c0,0-.09-.26-.49-.22l.76-1.2a1.82,1.82,0,0,1,.17.44A1.1,1.1,0,0,1,13,6.6c-.12.22-.26.45-.4.67a1.65,1.65,0,0,0-.16.36c0,.15.08.29.2.38a1.63,1.63,0,0,1,.3.28c.07.09,0,.16-.18.23l-.22.1-.12.06a.11.11,0,0,0,0,.14,1.74,1.74,0,0,0,.11.18c.05.05.09.11.08.11a1,1,0,0,1-.42.07h-.52a.08.08,0,0,0-.09,0,.07.07,0,0,0,.06.08,3.37,3.37,0,0,1,.61.18l0,0v0a.17.17,0,0,1,0,.1s-.1.07-.21.11a.16.16,0,0,0-.11.08.1.1,0,0,0,0,.1.37.37,0,0,1,.07.1s0,.06-.13.1l-.31.07-.33,0a10.42,10.42,0,0,1-1.37,0l-.34,0a2.26,2.26,0,0,1-.35,0H9.09a.38.38,0,0,0-.14,0,.28.28,0,0,0-.12.16.67.67,0,0,0,0,.28h0c0,.06.1.1.19.08s.14-.07.12-.13h0a.34.34,0,0,1,0-.2s0-.05,0-.05h0l.35,0h.33a.45.45,0,0,0,0,.08,2.21,2.21,0,0,0,0,.42c0,.09,0,.18,0,.28a3,3,0,0,0,.11.31,1,1,0,0,1,.09.33,1.39,1.39,0,0,1,0,.35c0,.12-.07.23-.09.35l-.05.32a3.17,3.17,0,0,0,0,.58c0,.17,0,.32,0,.42V14H9.67a1,1,0,0,0,0-.29c-.05-.14-.14-.28-.21-.43a6.29,6.29,0,0,0-.48-.76l-.26-.33h0s0,0,0,0a2.75,2.75,0,0,1,.14.36c.07.21.18.5.25.79s.05.29.09.42a2,2,0,0,0,.16.36,1.78,1.78,0,0,0,.24.35h0s0,0,0,0a.39.39,0,0,0,0-.1,1,1,0,0,0,.06-.28v0a4.36,4.36,0,0,0,.83.14,1.37,1.37,0,0,0,.28,0,.3.3,0,0,0,.16,0l.12-.08a1.18,1.18,0,0,0,.21-.33l.09-.11.14-.08a.94.94,0,0,0,.22-.12,1.4,1.4,0,0,0,.18-.13h0a.45.45,0,0,1,.05.22h0s0,0,0,.05a.25.25,0,0,0,.28.1l.16,0h0v0a1,1,0,0,0,0,.17.51.51,0,0,0,.17.35c.05.06.06.06.06.08s0,.06,0,.12a.22.22,0,0,0,0,.22l0,0,0,0a.78.78,0,0,1-.27.22,6,6,0,0,1-.72.36,16.5,16.5,0,0,1-1.64.51L9.16,16a2,2,0,0,1-.38,0H8.61L8.42,16a2.18,2.18,0,0,1-1.16-.76,6.37,6.37,0,0,1-.63-1.12c-.21-.39-.42-.77-.6-1.16a1.61,1.61,0,0,1-.15-1.19s0,0,0,0,0,0,0,0A1.39,1.39,0,0,0,5.7,13a10.48,10.48,0,0,0,.45,1.22l.26.6a2.42,2.42,0,0,0,.38.6,2.83,2.83,0,0,0,1.44.87L7.9,16.2c-.71-.12-1.42-.22-2.14-.31s-1.43-.17-2.17-.21a8.22,8.22,0,0,0-1.11,0,3,3,0,0,0-.31,0A10.28,10.28,0,0,1,2.75,14.5Zm8-3.15h0a4.3,4.3,0,0,0,1,.44,14.26,14.26,0,0,0,2.3.53l.61,0a1.82,1.82,0,0,0,.33,0l.3,0a11.75,11.75,0,0,1,1.19,0,5.22,5.22,0,0,1,.57.07l.16,0h0l-.12,0a8.61,8.61,0,0,1-1.16.11h-.05a1.83,1.83,0,0,0-.54.23.47.47,0,0,0-.21.21.29.29,0,0,0,.05.31l.17.18a.62.62,0,0,1,.12.12l0,.06,0,0a.58.58,0,0,1-.29-.09L15,13.58l-.14-.06-.25-.1a1.3,1.3,0,0,1-.68-.42h0a.32.32,0,0,0-.29-.11,9.5,9.5,0,0,1-1.51.09.5.5,0,0,0-.2,0l-.12,0a2.32,2.32,0,0,1-.38-.07.48.48,0,0,1-.18-.06l-.09-.05-.1,0a1.19,1.19,0,0,0-.51-.1l-.15,0v-.1a3.58,3.58,0,0,0-.09-.35,1.64,1.64,0,0,1-.09-.35,1,1,0,0,1,0-.34,2,2,0,0,0,.06-.32,1.1,1.1,0,0,0,0-.18A2.83,2.83,0,0,0,10.71,11.35Zm-.44,2.18h0a2.46,2.46,0,0,0,.09-.29,1.15,1.15,0,0,0,0-.33c0-.05,0-.1,0-.15a.26.26,0,0,1,.15,0,.7.7,0,0,1,.35.12l.08.05.09.06a.91.91,0,0,0,.22.11l.21.07-.07.06-.15.1a.59.59,0,0,0-.22.14.72.72,0,0,0-.13.19,2,2,0,0,1-.11.3l-.05,0-.06,0a.6.6,0,0,1-.2,0,3.77,3.77,0,0,1-.58,0l.09-.09A1.73,1.73,0,0,0,10.27,13.53Zm.9,2.37h1a3.84,3.84,0,0,1,1,0l.22.08.16.11a1.1,1.1,0,0,1,.09.14l0,.15s0,.06.08.08h0a2.93,2.93,0,0,0,.79.17,3,3,0,0,0,.85,0l.22-.05.18,0a1.47,1.47,0,0,1,.26-.05h0a.19.19,0,0,1-.06.12l0,0a.11.11,0,0,0,0,.16l.16.1c.05,0,.07.08.08.07h0l-.05,0a.3.3,0,0,0-.1.09,0,0,0,0,0,0,0c-.23,0-.46-.08-.7-.1a4.56,4.56,0,0,0-.54,0l-.29,0a1.59,1.59,0,0,0-.33.09l-.05,0h0l0,0h0l-.09,0-.18.1a1.79,1.79,0,0,1-.37.12,5.2,5.2,0,0,1-.9,0,8.66,8.66,0,0,0-1,0,8.46,8.46,0,0,0-.88.1,3.71,3.71,0,0,0-.71-.24,5.47,5.47,0,0,0-.7-.16H9.3a.71.71,0,0,0,.06-.38.27.27,0,0,0-.13-.2A.72.72,0,0,0,9,16.4l-.42-.09h.25a2.82,2.82,0,0,0,.5-.09q.44-.12.84-.27l.18-.06Zm4.87.53h0v0Zm1.39,1.84a.17.17,0,0,0,0-.1.23.23,0,0,0-.07-.09.17.17,0,0,0,.1-.1.13.13,0,0,0,0-.17.31.31,0,0,0-.12-.07.22.22,0,0,0,.12-.15.26.26,0,0,0-.09-.23.94.94,0,0,0-.55-.2h-.23l-.23,0-.11,0,.06,0h.06l.1-.06a.16.16,0,0,0,0-.16.31.31,0,0,0,0-.1.18.18,0,0,0-.05-.07.39.39,0,0,0,.15-.26.31.31,0,0,0-.18-.25A.89.89,0,0,0,16,16.1a1.7,1.7,0,0,0-.48.06l-.18.06-.15,0a3,3,0,0,1-.68.07c-.22,0-.45,0-.67,0l-.06-.11L13.63,16l-.2-.13-.24-.09L13,15.73l-.26-.07-.26,0-.26,0a4.51,4.51,0,0,0-1,.05l-.16,0,.77-.3c.27-.11.5-.24.75-.36a1.12,1.12,0,0,0,.35-.23.2.2,0,0,0,.06-.11.14.14,0,0,0,0-.11s0,0,0-.08a.38.38,0,0,0,.09-.18.19.19,0,0,0,0-.13l0-.05,0,0a.34.34,0,0,1-.06-.24l0-.15v-.08a.29.29,0,0,0,0-.15.52.52,0,0,0-.39-.14h0l0-.05h.35c.26,0,.52,0,.78,0a1,1,0,0,0,.29.26,3.91,3.91,0,0,0,.51.24l.24.09.1,0,.11,0a1.25,1.25,0,0,0,.31.12,1,1,0,0,0,.44,0,.57.57,0,0,0,.36-.23v-.06a.19.19,0,0,0,0-.07.23.23,0,0,0,0-.18.93.93,0,0,0-.19-.2,1,1,0,0,1-.15-.14s0,0,0-.06a.14.14,0,0,1,.08-.1,1.78,1.78,0,0,1,.39-.2,8.92,8.92,0,0,0,1.15-.2l.15-.06a.25.25,0,0,0,.08-.05l0,0s0-.05,0-.08-.21-.1-.3-.13-.41,0-.61,0l-1.21,0H15l-.27,0a5,5,0,0,1-.56-.1l-2.24-.52a6.35,6.35,0,0,1-1-.35,4.21,4.21,0,0,1-.66-.38,1.29,1.29,0,0,0-.19-.36,10.87,10.87,0,0,0,1.28-.06,3.34,3.34,0,0,0,.7-.14.53.53,0,0,0,.17-.08.15.15,0,0,0,.06-.18.62.62,0,0,0-.08-.12h0c.09,0,.25-.07.3-.19a.34.34,0,0,0,0-.14.16.16,0,0,0-.05-.09l-.08,0a1.13,1.13,0,0,0-.24-.08h.08l.28,0a.46.46,0,0,0,.28-.12.12.12,0,0,0,0-.14l-.07-.08a.65.65,0,0,1-.1-.15s0,0,0,0l.09,0,.23-.1a.9.9,0,0,0,.2-.14.17.17,0,0,0,0-.23,1.81,1.81,0,0,0-.32-.3c-.12-.1-.19-.18-.16-.29a1.3,1.3,0,0,1,.17-.33c.13-.22.28-.44.41-.68A1.2,1.2,0,0,0,13.33,6l.2.6A2.32,2.32,0,0,0,12,4.12L11.84,4,11.73,4l-.31-.11a7.86,7.86,0,0,0-4-.46c-1.23.15-3.76,1.34-3.65,3.37s2,1.81,2.59,2.44a.42.42,0,0,1,.06.21c0,.19-.12.35-.35.53s-.48.37-.69.56a10.31,10.31,0,0,0-2.08,2.57,13,13,0,0,0-.73,1.38,10,10,0,0,0-.46,1.26l-.19,0a1,1,0,0,0-.29.13.32.32,0,0,0-.13.24c0,.26,0,.51.05.76l.06.74a5.56,5.56,0,0,0,.22,1.5,1.44,1.44,0,0,0,.54.68,2.77,2.77,0,0,0,1,.42c.38.07.72.11,1.08.16s.71.09,1.12.1a.24.24,0,0,0,.22-.09A8.65,8.65,0,0,0,8,20.57a10.66,10.66,0,0,0,1.28-.16c.42-.07.83-.15,1.25-.2s.85-.09,1.27-.12a5.28,5.28,0,0,0,.66-.05,3.16,3.16,0,0,0,.64-.16,7.43,7.43,0,0,0,2-1.05l1,.1.31,0a1.77,1.77,0,0,0,.32,0,.9.9,0,0,0,.51-.2.38.38,0,0,0,.1,0c.19-.1.19-.23.17-.3A.27.27,0,0,0,17.43,18.27Z"/><polygon class="cls-4" points="13.56 6.71 13.53 6.63 13.53 6.64 13.56 6.71"/><path class="cls-4" d="M27.24,13.14a3.92,3.92,0,0,0-.92-.13l-.81,0c-1,0-1.68,0-1.68,0l1.67.07.8.06a5.32,5.32,0,0,1,.83.14l.06,0h0a.3.3,0,0,1-.12.06,2.87,2.87,0,0,1-.44.08c-.32,0-.65.06-1,.08-.66,0-1.33.05-1.95.05s-1.21,0-1.7,0a2.27,2.27,0,0,1-.62-.09s.06-.08.12-.11l.21-.08.42-.12a4.15,4.15,0,0,0-.44.09l-.22.07a.38.38,0,0,0-.13.06.08.08,0,0,0,0,.12,1.66,1.66,0,0,0,.68.16,31.31,31.31,0,0,0,3.69,0c.34,0,.67,0,1-.09a2.22,2.22,0,0,0,.5-.1.38.38,0,0,0,.23-.14.09.09,0,0,0,0-.08s0,0-.05-.07a.25.25,0,0,0-.12-.07"/><path class="cls-4" d="M29.88,14.73h0a1.78,1.78,0,0,1-.53.39,5.63,5.63,0,0,1-.61.27l.21-.12a2.49,2.49,0,0,0,.31-.23,2.23,2.23,0,0,0,.27-.26l.1-.15c0-.06.06-.11.07-.16a1.11,1.11,0,0,0,0-.17l0-.17L29.61,14a1.66,1.66,0,0,0-.13-.14.41.41,0,0,0-.11-.07l.24.13a1,1,0,0,1,.42.36.46.46,0,0,1-.15.48m-3.58-1h0c-.55.07-1.12.12-1.69.17s-1.15.06-1.71,0a9.33,9.33,0,0,1-1.63-.19,4.89,4.89,0,0,1-.73-.17,1.07,1.07,0,0,1-.26-.12l0,0h0a1.87,1.87,0,0,1,.53-.19l.62-.14c.41-.08.79-.14,1.13-.19s.65-.08.9-.09h1l.59,0c.5,0,1.22.11,2.06.23.42.06.89.11,1.31.21l.1,0a3,3,0,0,1-.61.16A15,15,0,0,1,26.3,13.71Zm-6.05-.28ZM28.59,15h0l-.3.17c0-.35-.07-.64-.11-.86a4.1,4.1,0,0,1,.39-.35,1.11,1.11,0,0,1,.53-.25h0a.94.94,0,0,1,.16.2s.05.09.06.13l0,.12,0,.12-.06.12s0,.07-.08.11-.07.07-.1.11a2.73,2.73,0,0,1-.25.2Zm-.44-.89h0l-.06-.28.29-.06-.06.07A1.11,1.11,0,0,0,28.15,14.1Zm1.76-.44a2.21,2.21,0,0,0-.35-.19,1,1,0,0,0-.44-.07.15.15,0,0,0,0-.13.29.29,0,0,0-.1-.16,1.27,1.27,0,0,0-.45-.17,8.57,8.57,0,0,0-1.43-.16c-.88,0-1.61,0-2.12,0H22.53c-.36,0-.76,0-1.2.07-.22,0-.45.06-.68.11a1.92,1.92,0,0,0-.73.29.26.26,0,0,0-.1.24.35.35,0,0,0,.17.19,1.42,1.42,0,0,0,.41.14,7.19,7.19,0,0,0,.81.13c.54.06,1.11.09,1.68.11s1.15,0,1.73,0a20.94,20.94,0,0,0,3.4-.24c0,.06,0,.2-.05.4s-.08.67-.11,1.15h0a.12.12,0,0,0,0,.09v.19c0,.15,0,.3,0,.46v.1s0,0,0,.05a.45.45,0,0,1-.12.12,1.73,1.73,0,0,1-.43.23,6.17,6.17,0,0,1-1.18.29c-.43.06-.88.11-1.34.14a7.72,7.72,0,0,1-1.36,0,4.26,4.26,0,0,1-1.24-.28,1.77,1.77,0,0,1-.79-.54c0-.06-.05-.07-.06-.12v-.57A9.19,9.19,0,0,0,21,14H21a9.19,9.19,0,0,0-.19,1.58v.57a.43.43,0,0,0,.11.26A2.17,2.17,0,0,0,22,17a9.71,9.71,0,0,0,1.33.22c.46,0,.93.08,1.4.08a7.92,7.92,0,0,0,2.76-.3,2.18,2.18,0,0,0,.59-.3.8.8,0,0,0,.22-.23.38.38,0,0,0,.05-.15v-.11a1.31,1.31,0,0,0,0-.28,5.87,5.87,0,0,0,.56-.25,4.28,4.28,0,0,0,.61-.4,3.67,3.67,0,0,0,.51-.44.83.83,0,0,0,.3-.56A.84.84,0,0,0,29.91,13.66Z"/><path class="cls-4" d="M15.39,4.52h0a2,2,0,0,0,.75.77,7.38,7.38,0,0,0,1.15.62h0a1.25,1.25,0,0,1,.22.16l.17.16a1.47,1.47,0,0,1,.26.37,1.1,1.1,0,0,1,.09.79A2.27,2.27,0,0,1,17,8.61a5.93,5.93,0,0,0,1.69-.84,1.46,1.46,0,0,0,.5-.63.88.88,0,0,0-.06-.69L19,6.24l.34,0a20.43,20.43,0,0,0,3,0,14.62,14.62,0,0,0,1.48-.2,7.88,7.88,0,0,0,1.35-.42A1.43,1.43,0,0,0,26,4.88a.87.87,0,0,0-.39-.9,3.8,3.8,0,0,0-1.19-.6A8.57,8.57,0,0,0,23,3.07,17.14,17.14,0,0,0,20,3c-.51,0-1,.07-1.52.12A13.47,13.47,0,0,0,17,3.34a4.73,4.73,0,0,0-1.24.44c-.33.21-.47.47-.36.74m0-1A4.87,4.87,0,0,1,16.81,3a14,14,0,0,1,1.56-.23c.53,0,1-.08,1.57-.09a15.55,15.55,0,0,1,3.13.21,8.56,8.56,0,0,1,1.47.38,4,4,0,0,1,1.23.64,1,1,0,0,1,.45,1,1.55,1.55,0,0,1-.86.89,8.91,8.91,0,0,1-2.94.77c-.53,0-1.05.07-1.58.06s-.85,0-1.27,0a1,1,0,0,1,0,.63,1.8,1.8,0,0,1-.65.7,4.41,4.41,0,0,1-1,.49,6.51,6.51,0,0,1-1.09.31l-.09,0,.06-.05a3.79,3.79,0,0,0,.65-.6,1.59,1.59,0,0,0,.33-.68,1,1,0,0,0-.16-.68,1.79,1.79,0,0,0-.25-.31l-.16-.14L17,6.15a8.67,8.67,0,0,1-1.26-.62,2.24,2.24,0,0,1-.92-.91.72.72,0,0,1,0-.61A1.41,1.41,0,0,1,15.35,3.51Z"/><path class="cls-5" d="M18.26,4.68h.07c.21,0,.31-.1.31-.24s-.08-.23-.28-.23h-.1ZM17.83,4a3,3,0,0,1,.45,0,1.11,1.11,0,0,1,.59.11.39.39,0,0,1,.19.33.45.45,0,0,1-.18.37,1.09,1.09,0,0,1-.54.14h-.08v.56h-.43Z"/><rect class="cls-5" x="19.24" y="3.98" width="0.42" height="1.5"/><path class="cls-5" d="M21,5.45a1.16,1.16,0,0,1-.33,0,.72.72,0,0,1-.82-.74A.79.79,0,0,1,20.74,4,.83.83,0,0,1,21,4L21,4.25a.53.53,0,0,0-.2,0,.45.45,0,0,0-.46.51c0,.36.2.5.46.5l.2,0Z"/><polygon class="cls-5" points="21.59 3.98 21.59 4.58 22.04 4.58 22.04 3.98 22.46 3.98 22.46 5.48 22.04 5.48 22.04 4.85 21.59 4.85 21.59 5.48 21.17 5.48 21.17 3.98 21.59 3.98"/><rect class="cls-5" x="22.76" y="3.98" width="0.42" height="1.5"/><path class="cls-4" d="M7.16,8a3.17,3.17,0,0,0,.64,2.11c.72.71,1.92,1.6,1.8,2.19a.26.26,0,0,1,.32.25.61.61,0,0,1-.19.52,4.6,4.6,0,0,1-.43-.27c-.3-.21,0-.44,0-.44a3.16,3.16,0,0,0-1-1.26c-.71-.5-2.06-1.57-2.8-2.13s-1.3-.77-1.21-1.22,2.12-1,2.89.25"/></svg>