<svg id="Capa_1" data-name="Capa 1" xmlns="http://www.w3.org/2000/svg" viewBox="0 0 22.59 23.28"><defs><style>.cls-1{fill:#ffcb51;}.cls-2{fill:#f8992f;}.cls-3{fill:#fbcabb;}.cls-4{fill:#231f20;}</style></defs><title>8-18meses</title><polygon class="cls-1" points="0.94 12.26 20.9 17.6 20.9 22.43 0.94 22.43 0.94 12.26"/><path class="cls-2" d="M8.71,13.23s-.45-1.74.62-2.28a7.62,7.62,0,0,1,4.75,0c.77.47.9,1.7.95,1.78s-5.75,1-6.32.5"/><path class="cls-3" d="M19.12,17s-.3-2.84-.44-3.72A28,28,0,0,0,17.55,10,14.09,14.09,0,0,0,19.6,8.33c.23-.39.77-1.32.5-1.68a7.3,7.3,0,0,0-4.35-2.1c-2.28-.2-4.35-.27-4.35-.27S10,5.35,10.33,5.93s1.1,1,1.05,2.18.29,1.61.54,1.8,1.19.75,1.19.75,1.34.59,1,1.32a2.29,2.29,0,0,1-1,1l-1,0s-1.5-.17-1.5-.19a9,9,0,0,0-.69-.93c-.23-.24-.38-.63-.64-.38s-.18.56-.42.56-1-.1-1-.1a1.61,1.61,0,0,1-.13.45c-.1.16-.23.37-.19.52s.12.48.13.56a2.11,2.11,0,0,0,.14.32s1.89.44,2.42.65a6.68,6.68,0,0,1,.85.39s.53.26.57.26L19.12,17"/><path class="cls-3" d="M8.88,11.47s-.44-.22-.26-.53a3.23,3.23,0,0,0,.2-.4s.06-.4.29-.37a2.21,2.21,0,0,0,.48,0A.47.47,0,0,1,10,10a1.57,1.57,0,0,1,.54.14s.16-.22.36-.18.26.5.26.5-1.85.22-2.24,1.05"/><path class="cls-4" d="M14.49,7.09c.52-.35,2.72.31,2.72.31a4.2,4.2,0,0,0-2.1-.56c-1,.09-.8.39-.8.39Z"/><path class="cls-4" d="M19,7.76a.21.21,0,0,1,0,.3s-.09.07,0,.14a.37.37,0,0,0,.15.08.54.54,0,0,0,.28,0c.1,0,.15-.12.13-.17a.24.24,0,0,0-.06-.1l-.1-.06h0V8s0,.05,0,.07,0,0,0,0h-.16s0,0,0,0,0-.23.05-.36,0-.13,0-.16,0,0,0,0l.1-.06a.67.67,0,0,0,.16-.12l.09-.1s0,0,0,0,.05,0,.07,0l.06.07h0a.17.17,0,0,0,0-.09.18.18,0,0,0,0-.11.22.22,0,0,0-.14-.07.57.57,0,0,0-.16,0,.7.7,0,0,0-.18.11L19,7.38,19,7.44s-.11.1-.08.15a.68.68,0,0,0,.09.17"/><path class="cls-4" d="M18.8,16.88h0l-2-.51c-1.35-.34-2.68-.75-4-1.14l-.66-.18h0a6.24,6.24,0,0,0,1.17.09,3,3,0,0,0,.59-.06,4.9,4.9,0,0,0,.55-.13,9.81,9.81,0,0,0,1-.36,13.77,13.77,0,0,0,1.8-.91l0,0-1,.37-1,.35c-.33.11-.67.21-1,.29a4.91,4.91,0,0,1-.5.1,2.78,2.78,0,0,1-.51,0l-.5,0-.52-.07c-.36,0-.71-.11-1.06-.17a20.28,20.28,0,0,1-2.08-.48h0a3.49,3.49,0,0,1-.94-.2.57.57,0,0,1-.3-.23.52.52,0,0,1-.06-.16.17.17,0,0,1,0-.07h0a0,0,0,0,1,0,0l.11-.11a.47.47,0,0,1-.14-.18A.17.17,0,0,1,7.75,13a.07.07,0,0,0,0-.09h0a.23.23,0,0,1,0-.2c0-.06.07-.08.17-.11h0c.08,0,.11-.09.08-.14H8c0-.08-.08-.2,0-.24s0,0,.07,0h.18a1.44,1.44,0,0,1,.4.06l.2.05L9,12.3a.37.37,0,0,0,.15,0c.14,0,.23-.09.22-.18v0a.73.73,0,0,1,0-.3.23.23,0,0,1,.07-.09l0,0h0c.09,0,0,0,0,0l0,0,.08.1a.87.87,0,0,1,.1.31.25.25,0,0,0,0,.07h0l.57.67h0a.24.24,0,0,0,.17.09,11.67,11.67,0,0,0,1.79.21h.48a2.14,2.14,0,0,0,.53-.1,1.07,1.07,0,0,0,.25-.16l.12-.14.21-.26a3.67,3.67,0,0,1,1.05-.89,2.83,2.83,0,0,1,.35-.14,2.36,2.36,0,0,1,.38-.1,3,3,0,0,1,.42-.05c.14,0,.28,0,.43,0v0c-.14,0-.28-.05-.44-.06h-.45a3,3,0,0,0-.45.07,2.59,2.59,0,0,0-.42.14,2.46,2.46,0,0,0-.58.31,1,1,0,0,0,0-.21,1,1,0,0,0-.3-.58,1.15,1.15,0,0,0-.27-.21,6.12,6.12,0,0,0,1.6.06l.24,0,.22,0,.44-.09a5.52,5.52,0,0,0,1.41-.57l1.56,6.83Zm-10-5.14h0a1.76,1.76,0,0,1,.43-.48A2.73,2.73,0,0,1,9.64,11a3.82,3.82,0,0,1,.51-.18,3.12,3.12,0,0,1,.44-.09l.19.17a3.28,3.28,0,0,1,.57.77c.07.14.13.29.19.44a.86.86,0,0,0,.07.21,1.05,1.05,0,0,0,.05.19c0,.08,0,.14.06.2-.33,0-.65-.08-1-.13l-.51-.56a1.11,1.11,0,0,0-.15-.36.65.65,0,0,0-.2-.21.67.67,0,0,0-.19-.1,1,1,0,0,0-.27,0H9.32l-.11,0a.77.77,0,0,0-.18.1.56.56,0,0,0-.17.24.47.47,0,0,0,0,.16l-.08,0S8.8,11.8,8.83,11.74Zm.05-.89h0A.12.12,0,0,1,9,10.79l.12-.06a.56.56,0,0,1,.21,0,.32.32,0,0,1,.17.06l-.09,0a2.14,2.14,0,0,0-.38.33,1.31,1.31,0,0,0-.18.28,1.16,1.16,0,0,0,0-.17C8.79,11.11,8.79,10.93,8.88,10.85Zm1-.66h0a.45.45,0,0,0-.17-.08h0a.86.86,0,0,1,.21,0,.51.51,0,0,1,.17,0l.1,0h0s0,0,0,0l.05,0,.13.08a.63.63,0,0,1,.11.12l0,0a3.66,3.66,0,0,0-.5.12.2.2,0,0,0,0-.11A.29.29,0,0,0,9.88,10.19Zm.8-.13h0a.82.82,0,0,1,.21.08s.11.11.16.18h0l-.33,0,0,0a.3.3,0,0,0-.1-.28Zm.72.64h.16l.14.14a2.42,2.42,0,0,1,.51.76,2.71,2.71,0,0,1,.13.44c0,.08,0,.15,0,.22l0,.19c0,.12,0,.23,0,.3a.11.11,0,0,1,0,.05h-.14l-.41,0a.63.63,0,0,0,.09-.22,1.08,1.08,0,0,0,0-.45,1.57,1.57,0,0,0-.15-.53,1.87,1.87,0,0,0-.38-.47,2.06,2.06,0,0,0-.49-.32l-.13,0h.52Zm.66,0h0l.31,0,.3,0a3.53,3.53,0,0,1,.54.14,3.13,3.13,0,0,1,.41.21,1.31,1.31,0,0,1,.27.24,1,1,0,0,1,.17.22,1.91,1.91,0,0,1,.09.2,4,4,0,0,0-.69.57l-.24.25-.12.12s0,0-.08,0a1.12,1.12,0,0,1-.32.05h-.17s0,0,0,0a1.33,1.33,0,0,0,.17-.3,1.19,1.19,0,0,0,.12-.44,1.44,1.44,0,0,0-.09-.53,1.52,1.52,0,0,0-.35-.49A1.85,1.85,0,0,0,12,10.7Zm0-.91h0a2.15,2.15,0,0,1-.49-.45.52.52,0,0,1-.07-.12s0-.06,0-.12v0s0,0,0,0V9a.81.81,0,0,0,0-.16,4.32,4.32,0,0,0-.15-1.23l-.09-.27a1.59,1.59,0,0,1,1.09,0c.39.23.82.5.62.93s-.32.51,0,.62.4.17.73,0c0,0-.67,0-.65-.3s.31-.54,0-1a1.46,1.46,0,0,0-1.8-.33,2.44,2.44,0,0,0-.1-.24.91.91,0,0,0-.09-.17h0l0,0a1.59,1.59,0,0,0-.27-.37l-.26-.29,1.5.66-.87-.9,1.69.84-.58-.38,1.45.32-.7-1,1.43.84L14,6l.92.52-.55-.89,1.64.9L14.72,5.27l2.16.94-.63-.77a3.36,3.36,0,0,1,1.64,1.45,1.84,1.84,0,0,1,0,1.47l.36-.73.08.46a.84.84,0,0,0,.33-.68s.48-.58.92-.47.27.55.08,1a2.9,2.9,0,0,1-.53.58h0a4.34,4.34,0,0,1-1,1,4.14,4.14,0,0,1-.65.39,5.36,5.36,0,0,1-.73.32,5.32,5.32,0,0,1-.78.22c-.13,0-.27.05-.42.06l-.22,0h-.2a4.71,4.71,0,0,1-.84,0,4.29,4.29,0,0,1-.8-.12,3.47,3.47,0,0,1-.75-.24A3.36,3.36,0,0,1,12.1,9.8Zm8.8,7.8a.18.18,0,0,0,.09-.08c0-.07,0-.14-.13-.17L19.14,17c.24-.51,0-1.93-.16-3.8a5.36,5.36,0,0,0-1.41-3.07l.1-.06a6,6,0,0,0,.64-.44,5.32,5.32,0,0,0,.72-.7l0,.51.18-.51.14.42.31-.86.15.44s.35-1.15.47-1.6a2.84,2.84,0,0,0-.07-2.75C19.47,3.06,16.85,1.8,14.56,2s-3.13.65-3.9,1.32S9.34,5.07,10,5.87a4.92,4.92,0,0,0,.93.88,2.34,2.34,0,0,1,.29.84,3.72,3.72,0,0,1,0,1.2c0,.11,0,.18-.07.3a.44.44,0,0,0,0,.19.46.46,0,0,0,.07.16,1.85,1.85,0,0,0,.49.56,3.67,3.67,0,0,0,.57.36l-.22,0a6,6,0,0,0-.74,0h-.16l0,0a.19.19,0,0,0,0-.15.24.24,0,0,0-.12-.19.53.53,0,0,0-.29-.08.49.49,0,0,0-.22,0l-.13.08-.1-.07-.08,0h-.26a.68.68,0,0,0-.31.07c-.11.07-.13.14-.13.16l-.15,0H9.32a1.08,1.08,0,0,0-.19,0,.45.45,0,0,0-.25.18.18.18,0,0,0,0,.16.14.14,0,0,0,0,.05.4.4,0,0,1,.17-.12l.18,0h.32l.09,0a.65.65,0,0,1,.16.09l.1.08a2.32,2.32,0,0,0-.39.18.21.21,0,0,0-.12-.16A.67.67,0,0,0,9,10.51a.66.66,0,0,0-.22.06.69.69,0,0,0-.2.13.38.38,0,0,0-.09.34.68.68,0,0,0,.13.24,1.18,1.18,0,0,0,.21.18,1.13,1.13,0,0,0-.07.26v.15h0a2.18,2.18,0,0,0-.58,0H8l-.17,0a.4.4,0,0,0-.26.21.26.26,0,0,0,0,.23.41.41,0,0,0,0,.09l-.08,0a.32.32,0,0,0-.12.17.38.38,0,0,0,.09.29.24.24,0,0,0-.06.24.55.55,0,0,0,.13.18.09.09,0,0,0,0,.06.21.21,0,0,0,0,.11c0,.06,0,.12.07.17A.82.82,0,0,0,8,14a3.91,3.91,0,0,0,1,.24l.68.22-1-.24c-.68-.18-1.37-.33-2-.49s-1.38-.3-2.08-.44l0,0c.66.21,1.32.42,2,.61s1.33.39,2,.57c1.35.37,2.69.74,4.07,1s2.75.62,4.1,1l2,.55,1.6.47-2.94,1.07c-1.1.41-2.19.82-3.27,1.25s-2.16.87-3.23,1.31S8.75,22,7.7,22.5l0,0c1.13-.36,2.24-.76,3.36-1.15s2.21-.79,3.31-1.2,2.18-.84,3.26-1.27,2.16-.86,3.23-1.31Z"/><path class="cls-4" d="M21.18,18.35A6.19,6.19,0,0,0,21,17.6a5.09,5.09,0,0,0-.17.75,11.61,11.61,0,0,0,0,3.33,5.09,5.09,0,0,0,.17.75,6.19,6.19,0,0,0,.16-.75,11.61,11.61,0,0,0,0-3.33"/><path class="cls-4" d="M12.85,7.8a.64.64,0,0,0-.66-.28c-.51,0-.44.31-.44.31a.86.86,0,0,1,.5-.17s-.09.25.22.3a.31.31,0,0,0,.38-.16"/><path class="cls-4" d="M15.1,7.4c-.52,0-.37.31-.37.31.17-.16.72-.15.72-.15s-.19.36.3.36.42-.21.42-.21h.2A1.66,1.66,0,0,0,15.1,7.4"/><path class="cls-4" d="M15,9.58c.25,0,.36,0-.28-.19s-.86,0-.86,0c-.27.21.88.15,1.14.14"/><path class="cls-4" d="M14.29,9.86c-.3.08.44.34.68.31s-.3-.42-.68-.31"/><path class="cls-4" d="M20.38,7.11s-.3,2.45-.71,2.8A4,4,0,0,1,17,11.06a6.54,6.54,0,0,0-2.59.69l-.32.23s.05-.64.21-.73a7.38,7.38,0,0,1,2.6-.73,2.06,2.06,0,0,0,1.7-1.29A11.67,11.67,0,0,0,19.8,8c.16-.28.58-.86.58-.86"/></svg>