<svg id="Capa_1" data-name="Capa 1" xmlns="http://www.w3.org/2000/svg" viewBox="0 0 32.67 17.34"><defs><style>.cls-1{fill:#ffcb56;}.cls-2{fill:#98ca3c;}.cls-3{fill:#f8992f;}.cls-4{fill:#fbcabb;}.cls-5{fill:#231f20;}</style></defs><title>9-18meses</title><polygon class="cls-1" points="32.29 16.59 32.29 10.46 16.11 9.67 0.48 13.91 0.48 16.59 32.29 16.59"/><path class="cls-2" d="M18.16,12.12a8.47,8.47,0,0,0,3.31,1.59c2,.44,4.46.92,4.46.92l5.57-3L24,11l-3.81-.31L16.51,12Z"/><path class="cls-3" d="M23.91,8.9c-.55.77,0,2.34,1.31,3s4.1.51,5.15-.55a2.09,2.09,0,0,0,.39-2.82C30.27,7.87,26,6,23.91,8.9"/><path class="cls-4" d="M6.55,12.25A9.51,9.51,0,0,1,7.2,10a1.87,1.87,0,0,1,1.6-.82c.46,0,1.41.1,1.41.1l.32-.87S9.42,7.33,9.36,6.73A3.68,3.68,0,0,1,10.18,5s7-1,7.64-.53.81.65.78.73-.15.67-.15.67a3,3,0,0,0-1.22,1.89c-.11,1.13-.38,1.52-.72,1.69s-.85.38-.85.38L13.78,10l-.17.16.09.14-1.12.14a13.6,13.6,0,0,0,2.84,1.16l.35,0a2.25,2.25,0,0,1,1.08-.6,2.81,2.81,0,0,1,1.17.37l.27.27-.53.13s1.48,1.05,1.63,1.19.19.27-.26.32a7.42,7.42,0,0,0-1.27.13,1.83,1.83,0,0,1-.92.1,6.93,6.93,0,0,0-.77,0c-.15,0-.74-.22-.74-.22a19.46,19.46,0,0,1-3.34-.44,23.19,23.19,0,0,1-3-1.3Z"/><path class="cls-5" d="M14.51,6.52l.15.15s.21-.27-.7-.41a4.09,4.09,0,0,0-2,.38s2.13-.47,2.57-.12"/><path class="cls-5" d="M13.34,7.09c.23.13.59.07.59,0a.63.63,0,0,1,0-.16l.2,0s.1-.16-.3-.19-1.28.06-1.28.06l.71.06s-.19.12.05.24"/><path class="cls-5" d="M16.19,7.5a.39.39,0,0,0,.47-.07c.12-.11-.06-.17.05-.17a.77.77,0,0,1,.27.15c.17-.21-.3-.26-.62-.24s-.35.1-.35.1c.38,0,0,.13.18.23"/><path class="cls-5" d="M12.85,8.15s.08.34.63.56a2.16,2.16,0,0,0,1.33.22c.26-.11.27-.25.5-.29a5.2,5.2,0,0,1-1.4-.13c-.59-.17-1.06-.36-1.06-.36"/><path class="cls-5" d="M13.65,9c-.45-.25-.84-.21-.67,0s1.14.28.67,0"/><path class="cls-5" d="M11.14,7.48v0Z"/><path class="cls-5" d="M10.25,6.51a1.14,1.14,0,0,1-.11-.11A1,1,0,0,0,10,6.29a.3.3,0,0,0-.15,0,.2.2,0,0,0-.13,0,.16.16,0,0,0,0,.1.17.17,0,0,0,0,.08h0l.06-.06.07,0s0,0,0,0l.07.1a.8.8,0,0,0,.13.13l.09,0s0,0,0,0,0,.1,0,.16,0,.22,0,.34,0,0,0,0,0,0,0,0a.33.33,0,0,1-.1,0l-.05,0a.2.2,0,0,1,0-.07V7h0l-.09,0a.22.22,0,0,0-.07.09.13.13,0,0,0,.09.16.46.46,0,0,0,.26,0,.28.28,0,0,0,.14-.06c.08-.06,0-.12,0-.13a.22.22,0,0,1,0-.29c0-.05.07-.08.11-.15s0-.13-.06-.14Z"/><path class="cls-5" d="M29.88,12.19h0c-.48.24-.95.48-1.4.74s-.91.52-1.35.79-.85.53-1.28.79c-.51-.11-1-.22-1.5-.37s-1-.3-1.53-.43-1.05-.23-1.58-.34-.93-.16-1.41-.23a.2.2,0,0,0,0-.11c-.05-.18-.18-.21-.25-.26l-.25-.13-.14-.06L21.05,12l-2.29.37a2.26,2.26,0,0,1-.26-.16,3.17,3.17,0,0,1-.34-.28l-.05-.05,3.8-.45-3.5.11a.36.36,0,0,0,0-.09l-.05,0c.62-.1,1.22-.24,1.81-.39.65,0,1.3.05,1.95,0s1.16,0,1.74-.09a4.37,4.37,0,0,0,3.66,1.63,4.83,4.83,0,0,0,3.18-1.08l.44.09-1.22.59M17.34,11h0a1.63,1.63,0,0,0-1.61.56,2.35,2.35,0,0,1-.72-.14,6.93,6.93,0,0,1-.73-.27A11,11,0,0,1,13,10.42h0a18.14,18.14,0,0,0,1.84-.22c.3-.06.6-.11.89-.19l.85-.23a13.19,13.19,0,0,1,1.78.11c.59.08,1.19.12,1.79.16s1.2.07,1.8.07,1.05,0,1.58,0a2.19,2.19,0,0,0,.29.81q-.84-.11-1.68-.15c-.66,0-1.32-.05-2-.05H20l0,0a14.73,14.73,0,0,0-1.71.66l-.1-.07A2.8,2.8,0,0,0,17.34,11Zm-7-1.79h0a.66.66,0,0,0,.23-.24.43.43,0,0,0,0-.33,6,6,0,0,0,.53.45,4.81,4.81,0,0,0,.63.39,5,5,0,0,0,.74.31l.4.12.19.05.22,0h.05a.14.14,0,0,0-.05.1s0,.1.11.14l0,0-.54.16,0,0A11,11,0,0,0,10.37,9.17Zm3.77.86h0l-.31.08,0,0s0,0,0,0Zm3.47-3.4h0l-.12.22A1.42,1.42,0,0,0,15.77,7c-.35.42-.11.66-.13.94s-.65.24-.65.24c.29.15.38.09.68,0s.21-.17.07-.57.3-.63.7-.82a1.47,1.47,0,0,1,1,.08c0,.09-.08.17-.11.25A3.87,3.87,0,0,0,17,8.31a.61.61,0,0,0,0,.14v.14a.28.28,0,0,1,0,.11l-.09.11a2.29,2.29,0,0,1-.51.39,3.57,3.57,0,0,1-.66.29,4.1,4.1,0,0,1-.73.17,3.9,3.9,0,0,1-.76.06,5,5,0,0,1-.78-.05l-.19,0-.2,0-.38-.09a5.89,5.89,0,0,1-.7-.26,3.46,3.46,0,0,1-.63-.34,3.84,3.84,0,0,1-.56-.41,3.87,3.87,0,0,1-.81-1h0A2.39,2.39,0,0,1,9.56,7c-.12-.4-.1-.85.2-.91s.79.49.79.49a.74.74,0,0,0,.22.66l.13-.42.24.69a1.73,1.73,0,0,1,.24-1.35A3.43,3.43,0,0,1,13.1,4.88l-.69.68,2.13-.73L13.19,5.92l1.64-.73L14.2,6l.92-.42L14.61,6l1.45-.69-.78.85L16.67,6l-.6.31,1.69-.67-.93.79,1.48-.53L18,6.14a2.33,2.33,0,0,0-.31.32v0h0Zm9.87.81h0a6,6,0,0,1,.74,0,1.39,1.39,0,0,1,.56.33,1.1,1.1,0,0,1,.28.44,0,0,0,0,1,0,0l-.32-.1-.55-.11L27.63,8h-.56l-.53.05c-.18,0-.34.06-.5.09l-.45.13c-.13.06-.27.1-.39.16a3.9,3.9,0,0,0-1,.65l-.11.1A3.58,3.58,0,0,1,27.48,7.44Zm2.72.89h0l-.15,0-.45.11-.05,0h0a1.22,1.22,0,0,0-.1-.24A1.27,1.27,0,0,0,29,7.7l0,0A3.7,3.7,0,0,1,30.2,8.33ZM26,11.86h0a5.73,5.73,0,0,0,.67,0,4.5,4.5,0,0,0,.76-.2,2.66,2.66,0,0,0,.39-.16,1.58,1.58,0,0,0,.36-.2A2.08,2.08,0,0,0,28.5,11a1.93,1.93,0,0,0,.3-.27,2.26,2.26,0,0,0,.25-.29,2.82,2.82,0,0,0,.21-.31,2.63,2.63,0,0,0,.27-.66,2.16,2.16,0,0,0,.07-.61A1.9,1.9,0,0,1,30,9a3.17,3.17,0,0,1,.36.23,1.12,1.12,0,0,1,.27.26.93.93,0,0,1,.23.58,1.21,1.21,0,0,1-.16.56,1.58,1.58,0,0,1-.15.24,1.16,1.16,0,0,1-.16.21,3.4,3.4,0,0,1-.32.33l-.17.15a4.45,4.45,0,0,1-2.37.64,4.78,4.78,0,0,1-1.91-.39Zm-1-1.22h0c.62-.23,1.43-.56,2.23-.91s1.36-.61,1.9-.86a2.05,2.05,0,0,1-.1.54,2.83,2.83,0,0,1-.25.6,1.73,1.73,0,0,1-.19.28,1.13,1.13,0,0,1-.22.27,2,2,0,0,1-.25.25,2.09,2.09,0,0,1-.28.22,2.32,2.32,0,0,1-.31.19,1.59,1.59,0,0,1-.32.16,3.37,3.37,0,0,1-.65.23,5.44,5.44,0,0,1-.61.12,3,3,0,0,1-.49,0h0a3.12,3.12,0,0,1-1.1-.9Zm5.85-1.4h0a1.07,1.07,0,0,0-.19-.18,1.84,1.84,0,0,0-.42-.29,4.66,4.66,0,0,0-.45-.22l.29-.13.14-.06A2.21,2.21,0,0,1,30.86,9.24Zm-6.78,0h0l.21-.15a5.21,5.21,0,0,1,1.06-.52,7.11,7.11,0,0,1,.8-.21l.45-.06.48,0,.5,0,.5.07.49.11.44.13c-.61.2-1.34.48-2.05.79s-1.56.72-2.12,1c-.23.12-.42.24-.57.33a1.77,1.77,0,0,1-.29-1A1.56,1.56,0,0,1,24.08,9.27Zm7.37,2.21-.7-.05a2.24,2.24,0,0,0,.74-1.59c0-1.52-1.8-2.75-4-2.75s-4,1.23-4,2.75a1,1,0,0,0,0,.16c-.52-.09-1-.15-1.54-.2s-1.2-.09-1.8-.1-1.21,0-1.81,0a13.63,13.63,0,0,1-1.81-.06h0l-.37,0a4.25,4.25,0,0,0,.52-.27,2.12,2.12,0,0,0,.54-.49.71.71,0,0,0,.08-.15.27.27,0,0,0,0-.16c0-.12,0-.19,0-.29a3.94,3.94,0,0,1,.16-1.12,2.74,2.74,0,0,1,.39-.76,4.91,4.91,0,0,0,1-.75,1.67,1.67,0,0,0-.23-2.41c-.63-.68-1.34-1.14-3.44-1.47a6.45,6.45,0,0,0-5.64,2,2.66,2.66,0,0,0-.43,2.55c0,.43.21,1.52.21,1.52l.21-.4.16.82.19-.38.1.49.12-.48a4,4,0,0,0,.41.51,1.1,1.1,0,0,0-.12.11,1.14,1.14,0,0,0-.23.3,1.56,1.56,0,0,0-.06.15l0,.11A6,6,0,0,0,9.27,9a4.49,4.49,0,0,0-.9.06,2.08,2.08,0,0,0-.8.34,1.81,1.81,0,0,0-.48.52A3.52,3.52,0,0,0,6.64,11a5.16,5.16,0,0,0-.09,1c-.61.15-1.28.32-1.95.51-1,.29-2.09.61-2.86.87l-.92.33-.34.13.38-.07,1-.2c.82-.18,1.89-.45,2.94-.74s2.09-.61,2.86-.87l.91-.33.35-.13-.38.07-1,.2-.91.21a5.74,5.74,0,0,1,.25-1A3.51,3.51,0,0,1,7.41,10a2,2,0,0,1,.45-.43,1.44,1.44,0,0,1,.61-.25,2.8,2.8,0,0,1,.76,0,4.83,4.83,0,0,1,.76.13,8.25,8.25,0,0,1,1.42.51c.46.21.91.44,1.35.67a15.25,15.25,0,0,0,1.42.63l.76.26a2.48,2.48,0,0,0,.85.14h0l0,0a1.52,1.52,0,0,1,.6-.43,1.44,1.44,0,0,1,.82-.06,2.81,2.81,0,0,1,.72.34.35.35,0,0,1,.11.09,1.39,1.39,0,0,1-.36,0l-.29,0,.11.19a2,2,0,0,0,.28.37,2.27,2.27,0,0,0,.36.32,4.48,4.48,0,0,0,.9.52l.2.1,0,0-.22.05a3.16,3.16,0,0,1-.5.07h-.22l-.08,0s0,0,0,0h-.44l-.08.07-.09.06a.38.38,0,0,1-.17.06h-.06l-.07,0-.08-.05,0,0,0,0-.48.18s0,0,0-.05,0,0,0,0h0l-.14,0H16.3l-.11,0-.06,0h0l-.28-.19A15.72,15.72,0,0,1,13.9,13a9.23,9.23,0,0,1-.94-.14l-.45-.12-.45-.14c-1.18-.39-2.33-.86-3.48-1.32l0,0c.53.28,1.07.54,1.63.8s1.11.5,1.7.73l.46.16.48.14a8.37,8.37,0,0,0,1,.18,8.78,8.78,0,0,0,1,.09c.27,0,.55,0,.83,0a.21.21,0,0,0,0,.06.85.85,0,0,0,.25.13l.26,0h.45l.24,0,.17-.06h0a.84.84,0,0,0,.24.07h.15s0,0,.05,0h.07a1.14,1.14,0,0,0,.43-.15l.12-.09.13,0h.34a4.86,4.86,0,0,0,.6-.08,2,2,0,0,0,.31-.08.85.85,0,0,0,.17-.08l.06-.05c.44.16.89.29,1.34.42s1,.27,1.55.38,1.07.2,1.6.29a15.6,15.6,0,0,1,1.57.35h.05l0,0c.48-.24,1-.46,1.46-.69s.95-.48,1.42-.72.93-.5,1.38-.76.89-.53,1.31-.81l.23-.15Z"/><path class="cls-5" d="M10.21,8A5.62,5.62,0,0,0,11,9.18a4,4,0,0,1,.6.71l-1.32-.61s-.77-1-1-1.43A5.37,5.37,0,0,1,9,5.35C9.21,5.3,9.41,7,9.41,7a9.66,9.66,0,0,0,.8,1"/></svg>