<svg id="Capa_1" data-name="Capa 1" xmlns="http://www.w3.org/2000/svg" viewBox="0 0 31.47 27.24"><defs><style>.cls-1{fill:#ffd826;}.cls-2{fill:#f89730;}.cls-3{fill:#fbc9b7;}.cls-4{fill:#231f20;}</style></defs><title>1-8meses</title><path class="cls-1" d="M12.78,13.08l.48-1.76s3.58-.77,4.62,0,.59,1.15.59,1.15l.41,10.94-.6.16s.08.78-1.11,1.11-3.34.22-3.62-.18a9.56,9.56,0,0,1-.21-2.67Z"/><path class="cls-2" d="M15.41,11c-1.13.05-2.5.38-1.63.69s4.68,0,4.43-.28S16.55,11,15.41,11"/><path class="cls-3" d="M30.75,16.94l-4.86-.45s-4.7-2.95-5.47-3.2-2-.65-2-.65l-.13,2.89s-2.7.68-4,.28-.46-.61-.46-.61L13.25,14a3.36,3.36,0,0,0,.22-1,4.89,4.89,0,0,0-.09-.88,2.89,2.89,0,0,0-1.86.46,4.9,4.9,0,0,0-1.88,1.64,25,25,0,0,0-1,2.81c-.16.43-.38.66-.07,1s.45.2.45.2-.26.43-.16.62a7.16,7.16,0,0,0-2.21,1.36,3.68,3.68,0,0,0-.42,1.12v.22s-1.1.34-1.16.52a1.24,1.24,0,0,0,.75,1.22,7.37,7.37,0,0,0,3.21.14c1.83-.12,4.41-.08,4.41-.08l-.13-4.1a11.82,11.82,0,0,1,1.89.29c.16.13,2.57,2.35,2.57,2.35s.34,0,.24.57-.12,1-.12,1a13.35,13.35,0,0,0,3.6.06,5.88,5.88,0,0,1,3-.23c1,.26,6.49,1.66,6.49,1.66l.33.11V17.07Z"/><path class="cls-4" d="M15.5,16.32a1.39,1.39,0,0,0-.06.25,3.64,3.64,0,0,0,0,.48c0,.17,0,.33,0,.47l0,.18,0,.07.09,0a1,1,0,0,0,.19-.14.81.81,0,0,0,.17-.24A1.07,1.07,0,0,0,16,17a.84.84,0,0,0-.24-.53,1,1,0,0,0-.27-.19"/><path class="cls-4" d="M17.78,23.4h0l0,.37a3.07,3.07,0,0,1,0,.34.18.18,0,0,1-.13.16,1.77,1.77,0,0,1-.38.11c-.3,0-.65.07-1,.09l-.53,0h-.51a6.84,6.84,0,0,1-1,0,1.56,1.56,0,0,1-.45-.11c-.13,0-.23-.13-.23-.19v0a7.1,7.1,0,0,1,0-1.22c.05-.4.12-.81.14-1.22s0-.81,0-1.21a7.44,7.44,0,0,0-.18-1.15l.33.06a9.84,9.84,0,0,0,1.09.14l1.51,1.39.77.71a4.69,4.69,0,0,0,.49.34l.36.16a5.3,5.3,0,0,0-.1.55c0,.25-.07.49-.09.73m-4.84-.09h0c-.14,0-.33-.06-.54-.1s-.44-.05-.7-.07l-.84,0c-.3,0-.61,0-.93,0l-1,.1c-.33,0-.67.1-1,.16a4.71,4.71,0,0,1-1,.09,2.07,2.07,0,0,1-.87-.2,1.58,1.58,0,0,1-.53-.43,2,2,0,0,1-.18-.23.34.34,0,0,1-.08-.19c0-.25.27-.45.49-.57l.33-.15.11.15a2.75,2.75,0,0,0,.34.3,1.82,1.82,0,0,0,.46.25,1.8,1.8,0,0,0,1.19,0A1.86,1.86,0,0,0,9,22a2.3,2.3,0,0,0,.41-.53,2.25,2.25,0,0,0,.24-.86,2.22,2.22,0,0,0,0-.33s0,.12-.1.32a2.77,2.77,0,0,1-.44.77A2.12,2.12,0,0,1,8,22.16a1.09,1.09,0,0,1-.71-.06A1.65,1.65,0,0,1,7,21.92l-.14-.12-.14-.14a2.61,2.61,0,0,1-.19-.27c0-.09-.09-.18-.07-.28a1,1,0,0,1,.19-.57,2.7,2.7,0,0,1,.46-.5,6.42,6.42,0,0,1,.54-.41,9.52,9.52,0,0,1,.92-.56l.31-.17a1.74,1.74,0,0,0,.1.19,1.12,1.12,0,0,0,.27.26,1.76,1.76,0,0,0,.44.18l.48.16a4.17,4.17,0,0,1,.44.19,2.39,2.39,0,0,0,1.09.23l.33-.05a.6.6,0,0,1,0,.12,1.34,1.34,0,0,1-.07.18,1.24,1.24,0,0,1-.1.2.74.74,0,0,1-.16.2.88.88,0,0,1-.2.18,1.64,1.64,0,0,1-.26.16,2.75,2.75,0,0,1-.3.14l-.32.12-.63.18-.66.16a3,3,0,0,0,.72.06h.35l.4-.06a2,2,0,0,0,.4-.1c.14,0,.27-.11.4-.16a3.21,3.21,0,0,0,.3-.21.25.25,0,0,0,.09.14,1.06,1.06,0,0,0,.47.19A1.23,1.23,0,0,0,13,21.5l.15-.06c0,.08,0,.16,0,.24,0,.41.1.82.14,1.22a4.19,4.19,0,0,1,0,.5Zm-2.17-3.92h0s.07,0,.06,0Zm-1.7-.88h0a2.66,2.66,0,0,0,1,.07,2,2,0,0,0,.67-.21,1.2,1.2,0,0,0,.28-.2l.24.24a4.43,4.43,0,0,0,.42.29,5.36,5.36,0,0,0,1,.42l.1,0-.1.08a3.65,3.65,0,0,1-.41.27,1.81,1.81,0,0,1-.28.12,2.61,2.61,0,0,1-.32.06,1.91,1.91,0,0,1-.42,0H11l.09,0c.11,0,.28-.15.26-.27a.4.4,0,0,0-.09-.23,1.52,1.52,0,0,0-.66-.37,1.43,1.43,0,0,0-.37-.06,1.37,1.37,0,0,0,.15.24l.18.2c.06.07.14.14.18.2s0,0,0,0h0l-.14.07a1.72,1.72,0,0,0-.21.12l-.1,0a.92.92,0,0,1-.36-.22c-.1-.09-.17-.18-.25-.25a2.19,2.19,0,0,1-.22-.2,3.45,3.45,0,0,1-.33-.32L9,18.49Zm4.09,2h0a8.44,8.44,0,0,0,0,.87L13,21.27a1.43,1.43,0,0,0-.43-.12,1.55,1.55,0,0,0-.43,0H12a.91.91,0,0,0,.2-.24.55.55,0,0,0,.11-.28.44.44,0,0,0,0-.25.94.94,0,0,0-.12-.36h0a1,1,0,0,0,.47-.28.76.76,0,0,0,.24-.45v-.11a3.59,3.59,0,0,0,.47.12A7.89,7.89,0,0,0,13.16,20.47ZM13.41,14h0a8.92,8.92,0,0,0,.22-1.57c0-.24,0-.49,0-.76a0,0,0,0,1,0,0l.09.08a2,2,0,0,0,.47.24,4.44,4.44,0,0,0,.77.17,3.42,3.42,0,0,0,.45,0,3.57,3.57,0,0,0,.46,0,5.41,5.41,0,0,0,.91-.07,4.21,4.21,0,0,0,.76-.19,2.91,2.91,0,0,0,.48-.21l0,0a.11.11,0,0,0,0,0v.22c0,.15,0,.3,0,.45a11.83,11.83,0,0,0,0,1.61c0,.47.1.86.14,1.13s.05.26.07.33l-.43.13a7.69,7.69,0,0,1-1.07.17,10.29,10.29,0,0,1-1.11,0,7.75,7.75,0,0,1-1.08-.11,3.35,3.35,0,0,1-.55-.11,1.28,1.28,0,0,0,0-.26,2.46,2.46,0,0,0-.31-.91A2,2,0,0,0,13.41,14Zm.93-2.66h0A7.4,7.4,0,0,1,17,11.22a2.21,2.21,0,0,1,1,.34h0c-.12,0-.32,0-.57.07l-.74,0c-.27,0-.54,0-.84,0a15,15,0,0,1-1.56,0c-.21,0-.39,0-.51-.08l-.15,0C13.68,11.46,14,11.35,14.34,11.29Zm-1.13,5.34h0a1.23,1.23,0,0,1-.16.35,1.26,1.26,0,0,1-.11.17.14.14,0,0,1-.06.08l0,0s0,0,0,0h0l0,0a.48.48,0,0,1-.45,0c-.14-.07-.19-.22-.09-.28s0,0,.05,0l.1,0a1.06,1.06,0,0,0,.26-.17.75.75,0,0,0,.18-.39,1,1,0,0,0-.16-.69l.16.07a1.27,1.27,0,0,1,.22.13.44.44,0,0,1,.15.19.55.55,0,0,1,0,.26A2.06,2.06,0,0,1,13.21,16.63Zm17.73,8.31c-.35-.12-.84-.29-1.44-.47s-1.32-.38-2.09-.56l-1.21-.27c-.41-.09-.84-.16-1.26-.24a5.83,5.83,0,0,0-1.33-.14c-.44,0-.86.06-1.28.11s-.79.12-1.14.16-.69.06-1,.07a15.3,15.3,0,0,1-1.55,0l-.35,0V23.4c0-.24-.05-.48-.08-.73s-.06-.34-.09-.5l.12,0,.33.09.34.05c.22,0,.45,0,.68,0s.45,0,.67,0l.65-.08A9.89,9.89,0,0,0,22.14,22a10.55,10.55,0,0,0,1.16-.4l0,0a15.56,15.56,0,0,1-2.45.46l-.62,0c-.21,0-.41,0-.62,0A5.9,5.9,0,0,1,19,22L18.7,22l-.26-.08a2.39,2.39,0,0,1-.49-.2,3,3,0,0,1-.41-.29l-.84-.67c-.57-.44-1.15-.87-1.71-1.32l0,0h0A7,7,0,0,1,12.74,19a4,4,0,0,1-.91-.44,3.3,3.3,0,0,1-.35-.28,2.55,2.55,0,0,1-.27-.32,1.64,1.64,0,0,1-.25-.72,2.78,2.78,0,0,1,0-.76,2.67,2.67,0,0,1,.17-.73,1,1,0,0,1,.47-.53,1.06,1.06,0,0,1,.76.09,2.19,2.19,0,0,1,.4.21l.11.06-.25,0h0l-.08.22c0,.12-.08.29-.16.48a1.16,1.16,0,0,1-.14.27.47.47,0,0,1-.09.12c-.06.05-.05.06-.09.1a.34.34,0,0,0-.08.14c-.05.19.12.35.28.45a1.06,1.06,0,0,0,.71.12l.1,0h0l0,0h0l.15-.08a1.44,1.44,0,0,0,.22-.19,1.48,1.48,0,0,0,.3-.42.76.76,0,0,0-.09-.84,4.6,4.6,0,0,0,.74.14,8.05,8.05,0,0,0,1.2.07A9.36,9.36,0,0,0,16.84,16,6.89,6.89,0,0,0,18,15.77a4,4,0,0,0,.52-.2,3,3,0,0,0,.47-.25,3.13,3.13,0,0,0,.39-.31,3.17,3.17,0,0,0,.29-.35h-.05c-.13.1-.23.21-.36.3a3.33,3.33,0,0,1-.42.25c-.14.06-.27.13-.42.18,0-.07,0-.16.05-.29s.11-.66.15-1.13.05-.79.05-1.24c.24.09.49.18.72.28s.66.29,1,.43l1,.47,1,.48c.32.16.63.33.94.5l.93.51a8.36,8.36,0,0,1,1.69,1.15l0,0h.05l1.24.21c.41.06.83.11,1.25.14a23.57,23.57,0,0,0,2.53.1v0a22.72,22.72,0,0,0-2.47-.41c-.41-.05-.83-.09-1.25-.11L26,16.41l-.79-.57-.8-.62a12.72,12.72,0,0,0-1.73-1.16,9.72,9.72,0,0,0-1-.51c-.34-.16-.69-.3-1.05-.43l-.55-.19a5.29,5.29,0,0,0-.57-.15c-.2,0-.38-.11-.58-.13l-.29,0c0-.09,0-.17,0-.26s0-.3,0-.45v-.23a.56.56,0,0,0-.17-.32,1.48,1.48,0,0,0-.7-.29A4.59,4.59,0,0,0,17,11c-.47,0-.93,0-1.38,0s-.9,0-1.35.06a3.76,3.76,0,0,0-.66.1,1.15,1.15,0,0,0-.35.15.52.52,0,0,0-.12.16v0h0v0h0v0c0,.27,0,.52,0,.76a8.57,8.57,0,0,0,.2,1.47L13,13.56l-.29-.22-.12-.08.1.09a2,2,0,0,1,.23.25,2.52,2.52,0,0,1,.47.82,2.06,2.06,0,0,1,.09.86s0,.05,0,.08a2.67,2.67,0,0,1-.3-.17,2.94,2.94,0,0,0-.5-.27,2.37,2.37,0,0,0-.65-.17,1.65,1.65,0,0,0-.76.1,1.33,1.33,0,0,0-.7.79,2.63,2.63,0,0,0-.15.82,3.18,3.18,0,0,0,.05.81,1.73,1.73,0,0,0,.39.79l0,0a1.51,1.51,0,0,1-.34.13,1.66,1.66,0,0,1-.58.08,2.08,2.08,0,0,1-.71-.14A2.93,2.93,0,0,1,8.89,18c-.08-.06-.2-.12-.21-.18s0-.34.19-.59a4.76,4.76,0,0,0,.38-.82,3.84,3.84,0,0,0,.11-.87,2.73,2.73,0,0,1,.17-.85A2.34,2.34,0,0,1,10,14a2.43,2.43,0,0,1,.34-.3,3.36,3.36,0,0,1,.39-.23c.28-.17.5-.34.72-.49a6.41,6.41,0,0,1,1.15-.62,3.17,3.17,0,0,1,.37-.14l.14,0,0,0h-.15l-.44.06a4.27,4.27,0,0,0-1.38.52,8.75,8.75,0,0,0-.75.49,1.79,1.79,0,0,0-.38.31,1.56,1.56,0,0,0-.27.38,8.5,8.5,0,0,0-.36.82c-.1.28-.22.56-.32.84a7.1,7.1,0,0,1-.29.82,5.66,5.66,0,0,1-.44.75,1.56,1.56,0,0,0-.22.4.54.54,0,0,0,0,.51,1.13,1.13,0,0,0,.48.36l.33.11a.49.49,0,0,0-.05.16.44.44,0,0,0,0,.27L8.52,19a8.49,8.49,0,0,0-1.08.45,5.59,5.59,0,0,0-.65.39c-.11.07-.21.16-.32.24s-.19.19-.28.3a1.48,1.48,0,0,0-.21.34l-.07.19v.2a1,1,0,0,0,.08.41l.11.16a3.54,3.54,0,0,0-.4.06,1.9,1.9,0,0,0-.52.2.65.65,0,0,0-.37.53.7.7,0,0,0,.1.33,1.89,1.89,0,0,0,.23.28,2,2,0,0,0,.81.42,5,5,0,0,0,1,.13c.34,0,.69,0,1,0s.68,0,1,0l1,0,1.71-.08c.5,0,.92,0,1.21,0h.39c0,.21,0,.43,0,.64v0c0,.19.13.32.28.4a1.91,1.91,0,0,0,.52.19,6.51,6.51,0,0,0,1.09.16,5,5,0,0,0,.55,0h.54a7.2,7.2,0,0,0,1.12-.08,2.4,2.4,0,0,0,.6-.18.63.63,0,0,0,.35-.47c0-.16,0-.26,0-.38v-.09l.3.08a7.34,7.34,0,0,0,1.6.19,7.14,7.14,0,0,0,1.1-.07,8.14,8.14,0,0,0,1.13-.3,4.63,4.63,0,0,1,1.2-.19,3.33,3.33,0,0,1,1.21.22c.4.13.79.26,1.19.37l1.18.33c.76.21,1.49.37,2.12.5s1.16.22,1.54.28l.59.09,0,0Z"/><path class="cls-4" d="M1.53,3.1h.15c.39,0,.65-.18.65-.51s-.14-.46-.58-.46l-.22,0ZM1.14,2a3,3,0,0,1,.57,0,1.38,1.38,0,0,1,.76.17.58.58,0,0,1,.26.49.59.59,0,0,1-.21.48,1.23,1.23,0,0,1-.82.27H1.53v1H1.14Z"/><path class="cls-4" d="M3.12,4.29h0V2.59h.39v1.7Zm.42-2.13c0,.1-.09.17-.24.17s-.23-.07-.23-.17S3.18,2,3.31,2,3.54,2.05,3.54,2.16Z"/><path class="cls-4" d="M4.06,3c0-.2,0-.3,0-.44h.34l0,.21h0A.71.71,0,0,1,5,2.57a.54.54,0,0,1,.6.58V4.29h-.4V3.2c0-.2,0-.41-.34-.41a.38.38,0,0,0-.37.28.68.68,0,0,0,0,.15V4.29H4.06Z"/><path class="cls-4" d="M5.93,4.13l.79-1,.2-.25H6V2.59H7.35v.18l-.77,1-.2.25h1v.22H5.93Z"/><path class="cls-4" d="M8.65,3.42h0c-.2,0-.68,0-.68.39a.28.28,0,0,0,.3.3.35.35,0,0,0,.37-.26.28.28,0,0,0,0-.09Zm.06.87,0-.18h0a.62.62,0,0,1-.49.21c-.34,0-.59-.19-.59-.48s.49-.62,1.05-.62V3.17c0-.23-.08-.39-.39-.39a1,1,0,0,0-.41.09l-.09-.19a1.48,1.48,0,0,1,.58-.11c.5,0,.71.22.71.6v.74a1.54,1.54,0,0,0,0,.38Z"/><path class="cls-4" d="M10.4,4.29h0V2.59h.39v1.7Zm.8-2.39-.54.47H10.4l.39-.47Z"/><path class="cls-4" d="M11.34,3c0-.2,0-.3,0-.44h.34l0,.21h0a.71.71,0,0,1,.57-.23.54.54,0,0,1,.6.58V4.29h-.4V3.2c0-.2-.05-.41-.34-.41a.38.38,0,0,0-.37.28.68.68,0,0,0,0,.15V4.29h-.39Z"/><path class="cls-4" d="M14.51,3.24h0V3.13a.39.39,0,0,0-.37-.33c-.33,0-.44.31-.44.65s.13.65.42.65a.38.38,0,0,0,.37-.29.25.25,0,0,0,0-.12Zm.39-1.38v2c0,.11,0,.31,0,.4h-.34l0-.21h0a.62.62,0,0,1-.52.24c-.42,0-.72-.31-.72-.87a.78.78,0,0,1,.75-.88.53.53,0,0,1,.45.2h0V1.86Z"/><path class="cls-4" d="M15.45,4.29h0V2.59h.4v1.7Zm.43-2.13c0,.1-.1.17-.24.17s-.23-.07-.23-.17.1-.18.23-.18S15.88,2.05,15.88,2.16Z"/><path class="cls-4" d="M17.6,4.25a1.11,1.11,0,0,1-.41.06.81.81,0,0,1-.91-.86.89.89,0,0,1,1-.88,1,1,0,0,1,.35.05l-.08.22a1.21,1.21,0,0,0-.28,0,.58.58,0,0,0-.57.65.56.56,0,0,0,.58.64.88.88,0,0,0,.29,0Z"/><path class="cls-4" d="M19,3.27h0c0-.34-.18-.49-.37-.49s-.39.26-.4.49Zm-.78.2c0,.52.3.63.59.63A1.12,1.12,0,0,0,19.18,4l.06.2a1.5,1.5,0,0,1-.54.08.8.8,0,0,1-.9-.85.81.81,0,0,1,.83-.89.68.68,0,0,1,.71.75.66.66,0,0,1,0,.15Z"/><path class="cls-4" d="M1.49,6.83h0a.32.32,0,0,0,0,.14.37.37,0,0,0,.36.28c.33,0,.43-.3.43-.65S2.18,6,1.87,6a.41.41,0,0,0-.37.31.62.62,0,0,0,0,.13ZM1.1,6.28c0-.26,0-.41,0-.53h.35l0,.22h0A.64.64,0,0,1,2,5.72c.43,0,.71.32.71.88a.77.77,0,0,1-.77.88.49.49,0,0,1-.43-.2h0v.84H1.1Z"/><path class="cls-4" d="M4.63,7c0,.19,0,.33,0,.46H4.31l0-.18h0a.69.69,0,0,1-.53.21c-.43,0-.6-.23-.6-.65V5.75h.39v1c0,.26.06.46.33.46A.36.36,0,0,0,4.22,7a.78.78,0,0,0,0-.16V5.75h.39Z"/><rect class="cls-4" x="5.18" y="5.02" width="0.39" height="2.43"/><path class="cls-4" d="M7.27,6.34h0a.43.43,0,0,0,0-.12A.37.37,0,0,0,6.89,6c-.29,0-.44.27-.44.64s.2.64.44.64A.35.35,0,0,0,7.24,7a.4.4,0,0,0,0-.15Zm.41-.59c0,.12,0,.27,0,.53v1c0,.45-.09.62-.25.74a1.06,1.06,0,0,1-.66.18,1.58,1.58,0,0,1-.54-.08l.09-.21a1.59,1.59,0,0,0,.46.07c.31,0,.51-.13.51-.52V7.24h0a.58.58,0,0,1-.48.21.75.75,0,0,1-.73-.84.8.8,0,0,1,.78-.89.51.51,0,0,1,.46.22h0l0-.19Z"/><path class="cls-4" d="M9.12,6.57h0c-.2,0-.68,0-.68.4a.29.29,0,0,0,.3.3A.35.35,0,0,0,9.11,7a.28.28,0,0,0,0-.09Zm.06.88,0-.18h0a.62.62,0,0,1-.49.21A.53.53,0,0,1,8.06,7c0-.42.5-.61,1-.61V6.32c0-.22-.08-.38-.39-.38A.91.91,0,0,0,8.31,6l-.09-.19a1.36,1.36,0,0,1,.58-.12c.5,0,.71.23.71.61v.73a1.63,1.63,0,0,0,0,.39Z"/><path class="cls-4" d="M10.06,6.19c0-.14,0-.31,0-.44h.35l0,.27h0a.63.63,0,0,1,.53-.3H11V6H11a.46.46,0,0,0-.48.36.61.61,0,0,0,0,.15v.94h-.39Z"/><path class="cls-4" d="M12.62,5.3v.45h.47V6h-.47V7c0,.22.12.28.26.28H13v.2a1.07,1.07,0,0,1-.29,0,.69.69,0,0,1-.39-.1.51.51,0,0,1-.15-.43V6h-.3V5.75h.3V5.38Z"/><path class="cls-4" d="M13.69,6.6h0c0,.28.07.66.43.66s.4-.4.4-.66-.06-.66-.41-.66-.42.4-.42.66m1.23,0a.79.79,0,0,1-.82.88.78.78,0,0,1-.81-.88.8.8,0,0,1,.83-.88A.78.78,0,0,1,14.92,6.6Z"/><path class="cls-4" d="M15.36,6.19c0-.14,0-.31,0-.44h.36l0,.27h0a.6.6,0,0,1,.52-.3h.08V6h-.08a.46.46,0,0,0-.47.36.61.61,0,0,0,0,.15v.94h-.39Z"/><path class="cls-4" d="M17,6.83h0A.61.61,0,0,0,17,7a.37.37,0,0,0,.37.28c.33,0,.43-.3.43-.65S17.71,6,17.39,6a.4.4,0,0,0-.36.31.62.62,0,0,0,0,.13Zm-.4-.55c0-.26,0-.41,0-.53H17L17,6h0a.62.62,0,0,1,.52-.25c.43,0,.72.32.72.88a.77.77,0,0,1-.77.88.49.49,0,0,1-.43-.2h0v.84h-.4Z"/><path class="cls-4" d="M19.73,6.43h0c0-.34-.18-.5-.37-.5s-.39.26-.41.5Zm-.78.2c0,.52.3.63.59.63A1.12,1.12,0,0,0,20,7.19l.06.2a1.75,1.75,0,0,1-.54.08.8.8,0,0,1-.91-.85.82.82,0,0,1,.84-.9.68.68,0,0,1,.71.75.76.76,0,0,1,0,.16Z"/></svg>