<svg id="Capa_1" data-name="Capa 1" xmlns="http://www.w3.org/2000/svg" viewBox="0 0 28.79 18.78"><defs><style>.cls-1{fill:#ffd826;}.cls-2{fill:#f89730;}.cls-3{fill:#fbc9b7;}.cls-4{fill:#231f20;}</style></defs><title>1-8meses</title><path class="cls-1" d="M8.73,4.18l.48-1.77s3.57-.77,4.61,0,.6,1.16.6,1.16l.41,10.93-.6.17s.07.78-1.12,1.11S9.77,16,9.49,15.6a9.63,9.63,0,0,1-.21-2.68Z"/><path class="cls-2" d="M11.36,2.11c-1.14.06-2.51.38-1.64.7s4.68,0,4.44-.29-1.66-.46-2.8-.41"/><path class="cls-3" d="M26.69,8l-4.86-.46s-4.7-2.94-5.46-3.2l-2-.65-.13,2.89s-2.69.68-4,.29-.46-.62-.46-.62L9.19,5.12a3.36,3.36,0,0,0,.22-1,5,5,0,0,0-.09-.88,2.9,2.9,0,0,0-1.86.46A5.07,5.07,0,0,0,5.58,5.34a23.42,23.42,0,0,0-1,2.8c-.17.44-.39.66-.08,1s.45.2.45.2-.25.42-.15.62c0,0-1.88.78-2.21,1.35a3.66,3.66,0,0,0-.43,1.13v.21s-1.1.35-1.15.52a1.23,1.23,0,0,0,.74,1.23A7.59,7.59,0,0,0,5,14.58c1.82-.13,4.4-.09,4.4-.09L9.28,10.4a11.82,11.82,0,0,1,1.89.29c.17.13,2.58,2.35,2.58,2.35s.33,0,.24.57-.13,1.05-.13,1.05a13.86,13.86,0,0,0,3.61.06,5.66,5.66,0,0,1,3-.23L27,16.15l.33.11V8.17Z"/><path class="cls-4" d="M11.44,7.42a1.39,1.39,0,0,0-.06.25,3.62,3.62,0,0,0,0,.48,3.43,3.43,0,0,0,0,.47l0,.17a.73.73,0,0,0,0,.08l.09,0a.46.46,0,0,0,.19-.14.7.7,0,0,0,.17-.24.62.62,0,0,0,.06-.3.8.8,0,0,0-.24-.53.83.83,0,0,0-.27-.19"/><path class="cls-4" d="M13.73,14.5h0l0,.36c0,.12,0,.26,0,.35a.21.21,0,0,1-.14.16,1.92,1.92,0,0,1-.37.1c-.31,0-.65.08-1,.1h-1a8.43,8.43,0,0,1-1-.06,2,2,0,0,1-.45-.1c-.14,0-.24-.13-.24-.2h0a6.21,6.21,0,0,1,0-1.22c0-.41.12-.81.13-1.22a10,10,0,0,0,0-1.22,9.39,9.39,0,0,0-.17-1.15l.32.07c.36.06.72.1,1.1.13.51.46,1,.93,1.5,1.4.25.24.51.47.78.7a5,5,0,0,0,.48.35l.36.15a5.48,5.48,0,0,0-.1.56c0,.24-.07.48-.08.73m-4.85-.1h0l-.53-.09-.71-.07c-.26,0-.54,0-.84,0s-.61,0-.93,0l-1,.1c-.33,0-.67.09-1,.15a4,4,0,0,1-1,.09A2,2,0,0,1,2,14.4,1.67,1.67,0,0,1,1.51,14l-.17-.23a.5.5,0,0,1-.09-.2c0-.24.28-.44.5-.56l.32-.15a1.71,1.71,0,0,1,.11.14,2.07,2.07,0,0,0,.34.3,2.28,2.28,0,0,0,.46.26,1.9,1.9,0,0,0,1.2.05A2,2,0,0,0,5,13.13a2.1,2.1,0,0,0,.65-1.4,1.25,1.25,0,0,0,0-.33,1.73,1.73,0,0,1-.1.32,2.59,2.59,0,0,1-.43.78A2.15,2.15,0,0,1,4,13.26a1.23,1.23,0,0,1-.71-.06A2.07,2.07,0,0,1,3,13l-.14-.11-.14-.15-.19-.26c0-.1-.08-.19-.06-.29a.91.91,0,0,1,.18-.57,3.59,3.59,0,0,1,.46-.5c.18-.15.36-.28.54-.41.36-.24.68-.43.92-.56L4.84,10a.7.7,0,0,0,.1.19,1,1,0,0,0,.27.26,1.76,1.76,0,0,0,.44.18,3.68,3.68,0,0,1,.47.15c.16.06.28.13.45.2a2.2,2.2,0,0,0,1.08.22,1.27,1.27,0,0,0,.34,0l0,.13a1.34,1.34,0,0,1-.07.18.75.75,0,0,1-.1.2,1.25,1.25,0,0,1-.15.19,1.33,1.33,0,0,1-.21.19,2.72,2.72,0,0,1-.25.16,2.88,2.88,0,0,1-.31.13,3,3,0,0,1-.32.12l-.62.18-.66.16a3.26,3.26,0,0,0,.72.07l.35,0a2.78,2.78,0,0,0,.39-.05,3.11,3.11,0,0,0,.41-.11,3.33,3.33,0,0,0,.4-.16c.1-.07.21-.13.29-.2a.27.27,0,0,0,.1.13.81.81,0,0,0,.47.19,1.21,1.21,0,0,0,.51,0l.15-.07v.25c0,.41.09.81.14,1.22a4.1,4.1,0,0,1,0,.5ZM6.72,10.48h0s.06,0,0,0ZM5,9.6H5a2.66,2.66,0,0,0,1,.07,1.66,1.66,0,0,0,.67-.2,1.73,1.73,0,0,0,.28-.2c.08.08.17.15.24.23s.28.2.43.29a5.29,5.29,0,0,0,1,.43l.1,0-.1.08a2.61,2.61,0,0,1-.41.28,1.28,1.28,0,0,1-.27.11,2.72,2.72,0,0,1-.33.07,2.62,2.62,0,0,1-.41,0H6.93l.1,0c.1,0,.27-.14.26-.26a.41.41,0,0,0-.1-.23,1.35,1.35,0,0,0-.65-.37,1.54,1.54,0,0,0-.38-.06,1.14,1.14,0,0,0,.15.23c.05.07.12.14.18.21a1.69,1.69,0,0,1,.19.19v0l0,0-.15.06-.21.13-.09,0a1.09,1.09,0,0,1-.37-.21l-.24-.25c-.08-.08-.17-.14-.23-.2a3.17,3.17,0,0,1-.32-.32L5,9.59Zm4.09,2h0c0,.29,0,.58,0,.87l-.13-.07a1.72,1.72,0,0,0-.42-.12,2.05,2.05,0,0,0-.43,0l-.18,0A1.13,1.13,0,0,0,8.11,12a.71.71,0,0,0,.11-.28.46.46,0,0,0,0-.26.65.65,0,0,0,0-.21l-.08-.15h0a1.29,1.29,0,0,0,.47-.27.82.82,0,0,0,.23-.46.33.33,0,0,0,0-.1l.47.12A7.56,7.56,0,0,0,9.1,11.56ZM9.35,5h0a7.11,7.11,0,0,0,.22-1.57,6.3,6.3,0,0,0,0-.76.05.05,0,0,1,0,0,.75.75,0,0,0,.09.09,1.86,1.86,0,0,0,.47.23,3.9,3.9,0,0,0,.78.18l.44,0h.47a6.69,6.69,0,0,0,.91-.08A4.35,4.35,0,0,0,13.47,3,1.82,1.82,0,0,0,14,2.74l0,0a.09.09,0,0,1,0,0V3c0,.16,0,.3,0,.45a11.83,11.83,0,0,0,0,1.61c0,.47.1.87.15,1.14s0,.25.06.33a2.7,2.7,0,0,1-.43.12,6.28,6.28,0,0,1-1.07.17,6.71,6.71,0,0,1-1.1,0,7.6,7.6,0,0,1-1.08-.1A5,5,0,0,1,10,6.63a2.54,2.54,0,0,0,0-.26,2.41,2.41,0,0,0-.32-.92A2.78,2.78,0,0,0,9.35,5Zm.93-2.66h0a7.69,7.69,0,0,1,2.63-.07,2.24,2.24,0,0,1,1,.34h0l-.58.08-.73,0-.84,0a15.13,15.13,0,0,1-1.57,0,3.67,3.67,0,0,1-.51-.08l-.15,0A1.59,1.59,0,0,1,10.28,2.38ZM9.15,7.73h0A1.2,1.2,0,0,1,9,8.08l-.1.17a.44.44,0,0,1-.07.08l0,0h0l0,0a.53.53,0,0,1-.46,0c-.14-.08-.19-.22-.09-.29l.06,0L8.37,8a.79.79,0,0,0,.25-.17.66.66,0,0,0,.18-.38,1,1,0,0,0-.16-.7l.17.07c.06,0,.15.08.21.14a.42.42,0,0,1,.16.19.68.68,0,0,1,0,.26A2.71,2.71,0,0,1,9.15,7.73ZM26.88,16l-1.44-.47c-.6-.18-1.31-.37-2.09-.55l-1.2-.27-1.26-.25a5.89,5.89,0,0,0-1.33-.13c-.45,0-.87.06-1.29.11s-.78.12-1.14.15-.69.07-1,.08c-.64,0-1.17,0-1.55,0l-.35,0,0-.17c0-.25-.05-.49-.08-.73s-.06-.34-.09-.51l.12,0,.33.09.34,0a3.89,3.89,0,0,0,.68.05c.22,0,.45,0,.67,0s.44-.05.65-.09a12,12,0,0,0,1.25-.27,10.58,10.58,0,0,0,1.16-.41l0,0a16.78,16.78,0,0,1-2.45.45,4.21,4.21,0,0,1-.62,0c-.2,0-.41,0-.61,0a5.8,5.8,0,0,1-.6-.06l-.28,0L14.38,13a3.14,3.14,0,0,1-.49-.21c-.13-.1-.28-.17-.41-.28s-.55-.45-.84-.67L10.93,10.5l0,0h-.05a7.43,7.43,0,0,1-2.17-.38,3.77,3.77,0,0,1-.9-.44,3.51,3.51,0,0,1-.36-.29A1.92,1.92,0,0,1,7.16,9a1.66,1.66,0,0,1-.26-.71,3.23,3.23,0,0,1,0-.76,2.6,2.6,0,0,1,.18-.73.9.9,0,0,1,.46-.53,1,1,0,0,1,.76.08,2.52,2.52,0,0,1,.4.21l.11.07H8.54l-.07.22c0,.12-.09.3-.16.48a1.71,1.71,0,0,1-.14.27l-.09.12a.93.93,0,0,0-.1.1A.37.37,0,0,0,7.91,8c0,.2.11.35.28.45a1,1,0,0,0,.71.13l.1,0h.05l0,0a.41.41,0,0,0,.14-.08,1.11,1.11,0,0,0,.23-.19,1.81,1.81,0,0,0,.29-.41A.72.72,0,0,0,9.66,7a6.42,6.42,0,0,0,.74.14c.4.05.8.06,1.2.07a11.91,11.91,0,0,0,1.19-.09,8.41,8.41,0,0,0,1.13-.25,4.65,4.65,0,0,0,.52-.2,2.9,2.9,0,0,0,.46-.26,2.37,2.37,0,0,0,.39-.3,3,3,0,0,0,.29-.35l-.05,0c-.12.1-.22.21-.35.3a2.58,2.58,0,0,1-.42.25l-.43.19a2.52,2.52,0,0,1,.06-.29c0-.27.1-.67.14-1.14a11.79,11.79,0,0,0,.05-1.23c.25.09.49.17.72.27l1,.44c.32.16.64.3,1,.47l.95.47.93.51.94.5a8.75,8.75,0,0,1,1.68,1.16l0,0h.06l1.23.2c.41.07.83.11,1.25.15.84.06,1.68.11,2.54.1v0c-.82-.18-1.64-.3-2.47-.41-.42,0-.84-.09-1.26-.11l-1.23,0c-.28-.19-.54-.38-.8-.58l-.79-.62a15.34,15.34,0,0,0-1.73-1.16c-.32-.18-.63-.35-1-.51a11,11,0,0,0-1.05-.43c-.17-.07-.36-.12-.55-.18l-.57-.16a5,5,0,0,0-.58-.12l-.29,0V3.44l0-.45V2.76a.43.43,0,0,0-.17-.31,1.35,1.35,0,0,0-.7-.29A5.85,5.85,0,0,0,13,2.09c-.47,0-.93,0-1.39,0s-.9,0-1.34.06a3.2,3.2,0,0,0-.67.1,1.22,1.22,0,0,0-.34.14.46.46,0,0,0-.13.17v0h0v0h0v0c0,.27,0,.53,0,.76A8.74,8.74,0,0,0,9.27,5,2.69,2.69,0,0,0,9,4.66a2.78,2.78,0,0,0-.29-.22l-.11-.08.09.09a2,2,0,0,1,.23.25,2.47,2.47,0,0,1,.47.81,2.07,2.07,0,0,1,.09.86.19.19,0,0,1,0,.08l-.29-.16A3.05,3.05,0,0,0,8.64,6,2.28,2.28,0,0,0,8,5.85a1.59,1.59,0,0,0-.75.1,1.31,1.31,0,0,0-.71.78,3,3,0,0,0-.15.83,3.26,3.26,0,0,0,.06.81,1.92,1.92,0,0,0,.38.79l0,0a1.67,1.67,0,0,1-.34.14,2,2,0,0,1-.58.08,2.41,2.41,0,0,1-.72-.14,3.8,3.8,0,0,1-.38-.17.6.6,0,0,1-.22-.17c-.06-.11,0-.34.19-.59a4.39,4.39,0,0,0,.38-.82,3,3,0,0,0,.11-.88,2.67,2.67,0,0,1,.17-.84A2.15,2.15,0,0,1,5.94,5a1.81,1.81,0,0,1,.33-.29c.11-.08.24-.15.39-.24s.5-.34.73-.48A6.18,6.18,0,0,1,8.53,3.4a2.87,2.87,0,0,1,.38-.13l.13,0v0H8.87a3.14,3.14,0,0,0-.43.05,4.62,4.62,0,0,0-1.39.53c-.25.14-.5.31-.75.48a2.47,2.47,0,0,0-.38.31A2.48,2.48,0,0,0,5.65,5a6.39,6.39,0,0,0-.35.81c-.11.28-.23.56-.32.85s-.18.57-.3.82a4.45,4.45,0,0,1-.44.75,2.18,2.18,0,0,0-.22.4.52.52,0,0,0,0,.51,1,1,0,0,0,.48.35l.33.12a.27.27,0,0,0-.06.16.63.63,0,0,0,0,.26l-.37.12a7.23,7.23,0,0,0-1.08.45,6.41,6.41,0,0,0-.65.38l-.31.25a2.54,2.54,0,0,0-.28.29,1.55,1.55,0,0,0-.21.35L1.86,12l0,.2a1.16,1.16,0,0,0,.09.4l.1.17a2.25,2.25,0,0,0-.4.06,2,2,0,0,0-.52.19.67.67,0,0,0-.36.53.64.64,0,0,0,.1.33,1.18,1.18,0,0,0,.23.28,1.74,1.74,0,0,0,.81.42,4.91,4.91,0,0,0,1,.14h1l1,0,1,0,1.72-.08c.5,0,.91,0,1.21,0h.38c0,.22,0,.43,0,.65v0c0,.19.13.31.28.4a2.31,2.31,0,0,0,.52.19A6.83,6.83,0,0,0,11.1,16l.55,0h.54a6.09,6.09,0,0,0,1.12-.08,1.72,1.72,0,0,0,.6-.18.59.59,0,0,0,.35-.46,2.36,2.36,0,0,0,0-.39v-.08l.29.07a7.9,7.9,0,0,0,1.6.2,8.55,8.55,0,0,0,1.1-.07,10.59,10.59,0,0,0,1.14-.3,4.49,4.49,0,0,1,1.19-.2,3.51,3.51,0,0,1,1.21.22c.41.13.8.27,1.2.38l1.17.33c.76.2,1.49.37,2.12.5s1.17.22,1.54.28l.6.08,0,0Z"/></svg>