<svg id="Capa_1" data-name="Capa 1" xmlns="http://www.w3.org/2000/svg" viewBox="0 0 30.78 29.79"><defs><style>.cls-1{fill:#fbc9b7;}.cls-2{fill:#231f20;}.cls-3{fill:#6d6f71;}</style></defs><title>2-8meses</title><path class="cls-1" d="M12.92,28.75H25.67a7,7,0,0,0-1.7-1c-.87-.32-2-.95-1.51-1.82s2.56-1.37,2.83-1.78S27,19,24.91,18s-7.09-.63-8.08-.61-3.37,1.38-3.55,2.26.36,2.49.28,3.09-.45,1-.21,1.55a4.44,4.44,0,0,0,2.52,1.78s.34.16.28.28a7.84,7.84,0,0,1-1.68.33c-.55.08-1.3.25-1.55.8a1.88,1.88,0,0,0,0,1.26"/><path class="cls-2" d="M11.67,19.11h0a2,2,0,0,1-.71.77,7.29,7.29,0,0,1-1.1.62h0a1.16,1.16,0,0,0-.21.16l-.16.16a1.42,1.42,0,0,0-.25.37,1.2,1.2,0,0,0-.09.79,2.28,2.28,0,0,0,1.05,1.2,5.57,5.57,0,0,1-1.61-.84,1.54,1.54,0,0,1-.48-.63A.92.92,0,0,1,8.15,21l.1-.21-.33,0a18.59,18.59,0,0,1-2.89,0,10.89,10.89,0,0,1-1.41-.21,6.7,6.7,0,0,1-1.29-.41,1.35,1.35,0,0,1-.8-.75.87.87,0,0,1,.37-.9A3.48,3.48,0,0,1,3,18a7.7,7.7,0,0,1,1.38-.31,15.58,15.58,0,0,1,2.9-.09c.48,0,1,.07,1.44.12a12.38,12.38,0,0,1,1.4.24,4.09,4.09,0,0,1,1.18.44c.31.21.45.47.34.74m0-1a4.52,4.52,0,0,0-1.4-.51,12.62,12.62,0,0,0-1.48-.23c-.51-.05-1-.08-1.5-.09a14.1,14.1,0,0,0-3,.21,9.11,9.11,0,0,0-1.41.37,3.89,3.89,0,0,0-1.17.65,1.06,1.06,0,0,0-.43,1,1.49,1.49,0,0,0,.82.88A7.86,7.86,0,0,0,5,21.14a12.55,12.55,0,0,0,1.5.07c.41,0,.81,0,1.21-.05a1,1,0,0,0,0,.63,1.79,1.79,0,0,0,.62.7,4,4,0,0,0,.92.49,6.06,6.06,0,0,0,1.05.31l.08,0-.05,0a3.55,3.55,0,0,1-.62-.6A1.56,1.56,0,0,1,9.4,22a1,1,0,0,1,.16-.68A1.66,1.66,0,0,1,9.79,21l.16-.14.15-.11a7.64,7.64,0,0,0,1.21-.62,2.11,2.11,0,0,0,.87-.91.72.72,0,0,0,0-.61A1.25,1.25,0,0,0,11.71,18.1Z"/><path class="cls-2" d="M19.28,21.48c-1.38-.1-1.26.35-1.26.35l.3-.16c.88-.34,3.52,1,3.52,1a4.85,4.85,0,0,0-2.56-1.21"/><path class="cls-2" d="M15.49,23.68a1,1,0,0,0,1,.21s-.9-.16-.73-.56.68-.65.48-1.35a1.8,1.8,0,0,0-2.32-.83v.1s1.11-.18,1.53.22.87.85.4,1.38-.68.61-.31.83"/><path class="cls-2" d="M19.08,22.18c-.57-.09-.54.17-.54.17l.29,0a.68.68,0,0,1-.07.23c-.07.15.38.35.8.26s.24-.32.24-.32l1,.15a15.76,15.76,0,0,0-1.75-.51"/><path class="cls-2" d="M14.67,22.21a.49.49,0,0,0,.61.26c.35-.08-.12-.4.42-.26,0,0,0-.12-.42-.26s-1.13-.21-1,.13a1.26,1.26,0,0,1,.49-.11c.15,0-.14.06-.06.24"/><path class="cls-2" d="M22.36,24.14l0,.05,0-.05"/><path class="cls-2" d="M26.08,23.23a4.24,4.24,0,0,0,1.21-3.71c-.36-2.16-3.29-4.43-6.46-4.66s-4.51.17-5.87.9-2.59,2.06-2,3.3l.12.26s0,.09,0,.14a5.46,5.46,0,0,0,0,1,5.72,5.72,0,0,0,.16,1c0,.16.1.33.15.47l.07.24,0,.23a2.24,2.24,0,0,1-.14.95,4.37,4.37,0,0,0-.12.49,1.11,1.11,0,0,0,.05.51,1,1,0,0,0,.11.24,1.24,1.24,0,0,0,.17.23,4.29,4.29,0,0,0,.43.42c.16.13.34.24.51.36l.55.32a6.38,6.38,0,0,0,.74.37l.19.08-.47.05c-.28,0-.61.08-1,.15l-.52.12-.13,0h-.09l-.07,0a2,2,0,0,0-.26.12.82.82,0,0,0-.24.15,1,1,0,0,0-.18.17,2.34,2.34,0,0,0-.29.35,1,1,0,0,0-.17.37.9.9,0,0,0,0,.33,1.23,1.23,0,0,0,.34.65H13a1.09,1.09,0,0,0,0-.19c0-.11,0-.28,0-.47v-.3c0-.1,0-.22,0-.33a.43.43,0,0,1,.15-.34.74.74,0,0,1,.41-.21,1.59,1.59,0,0,1,.26,0h.27l.55-.06c.18,0,.36-.06.51-.1l.45-.11a5.87,5.87,0,0,0,.62-.24l.34.11a6.09,6.09,0,0,0,.89.18,3.87,3.87,0,0,0,.48,0h.25l.22,0a4,4,0,0,0,.47-.06l.44-.1a6.06,6.06,0,0,0,.82-.28,7.25,7.25,0,0,0,1.41-.75l0,0a14.13,14.13,0,0,1-1.53.58,7.37,7.37,0,0,1-.81.2l-.4.07a2.6,2.6,0,0,1-.4,0H18l-.41,0a7.43,7.43,0,0,1-.79-.17A6.75,6.75,0,0,1,16,26a6.44,6.44,0,0,1-.7-.32h0l-.56-.29L14.22,25a4.22,4.22,0,0,1-.46-.34.84.84,0,0,1-.18-.2.7.7,0,0,1-.14-.21.81.81,0,0,1-.08-.46,1.6,1.6,0,0,1,.11-.47,4.19,4.19,0,0,0,.27-1,2.17,2.17,0,0,0,0-.26l0-.24c0-.18-.06-.33-.09-.49-.06-.32-.12-.64-.17-1L13.4,20a2,2,0,0,0,.47.59l-.49-1.1,1.78,1.29-.74-1.4,1.88,1.5-.6-.64,1.79.75L17,19.5l1.54,1.44-.38-.82,1,.9-.32-1.33,1.78,1.58-1.11-2L22,21l-.48-1.18A3.57,3.57,0,0,1,23,22.17a2.76,2.76,0,0,1-.63,2l.83-.89-.12.63a1.47,1.47,0,0,0,.76-.84s.93-.67,1.46-.42-.24,1.41-1,1.89l-.46.3,0,0a3.12,3.12,0,0,0-.78.37,2.09,2.09,0,0,0-.58.52.65.65,0,0,0-.09.16,1.15,1.15,0,0,0-.06.17,1.24,1.24,0,0,0,0,.33c0,.06,0,.11,0,.17a.47.47,0,0,0,0,.16,1.48,1.48,0,0,0,.14.32h0a.91.91,0,0,0,.13.19l.17.16a2.42,2.42,0,0,0,.41.27l.48.22.25.09.23.08.42.17a3.93,3.93,0,0,1,.41.21,4.75,4.75,0,0,1,.76.5h0a1.22,1.22,0,0,0-.2-.37,2.33,2.33,0,0,0-.31-.32,2.74,2.74,0,0,0-.89-.51l-.25-.08-.24-.07-.45-.16L23,27.16l-.2-.11-.16-.12h0a1.13,1.13,0,0,1-.1-.13.37.37,0,0,1-.07-.14.26.26,0,0,1,0-.15.59.59,0,0,1,0-.14l.06-.15.1-.13s.07-.08.1-.13l.12-.12.22-.25.25-.25.22-.21-.17.67.48-.64v.59l.81-1.09v.63s1-1.47,1.38-2.05"/><path class="cls-2" d="M23.8,24.14a.22.22,0,0,0,.14.11.67.67,0,0,0,.35,0c.12,0,.21-.1.21-.16a.23.23,0,0,0,0-.15.51.51,0,0,0-.07-.1h0V24a.3.3,0,0,1,0,.11.12.12,0,0,1-.1,0,.43.43,0,0,1-.19,0l-.08,0s0,0,0,0a2.15,2.15,0,0,0,.22-.46,1.58,1.58,0,0,0,.06-.23l0,0,.15-.05a1.13,1.13,0,0,0,.27-.13l.19-.11c.06,0,0,0,.08,0a.27.27,0,0,1,.06.1l0,.11h0a.25.25,0,0,0,.05-.11.18.18,0,0,0,0-.14.16.16,0,0,0-.12-.1.57.57,0,0,0-.19,0,.84.84,0,0,0-.27.11l-.24.12-.14.06a.45.45,0,0,0-.1.05.16.16,0,0,0-.05.09,1.69,1.69,0,0,0,0,.25.44.44,0,0,1-.19.42s-.12.06-.07.15"/><polygon class="cls-2" points="15.02 25.89 15.01 25.89 15 25.89 15.02 25.89"/><path class="cls-2" d="M18.47,24.52a2.17,2.17,0,0,0-2.16-.19c.74.24-.3.74.52,1.14s2.47-.16,1.64-.95"/><path class="cls-2" d="M17.15,25.79c-.07.22.86.31.94.29s-.06-.18-.27-.29a1.43,1.43,0,0,0-.67,0"/><path class="cls-3" d="M3.06,20h0l0-.81h.29l0,.81Zm.38-1.08c0,.09-.08.15-.19.15s-.2-.06-.2-.15.09-.14.19-.14S3.44,18.84,3.44,18.92Z"/><path class="cls-3" d="M4.24,19.2h0L4.18,19c0-.07,0-.19-.06-.27h0L4.05,19,4,19.2ZM4,19.38l-.07.28H3.54l.39-1.21h.4l.35,1.21H4.35l-.08-.28Z"/><path class="cls-3" d="M5.41,19.2h0L5.35,19c0-.07,0-.19-.06-.27h0c0,.08,0,.2-.06.27l-.06.25Zm-.29.18L5,19.66H4.71l.38-1.21H5.5l.34,1.21H5.51l-.07-.28Z"/><path class="cls-3" d="M6.57,19.2h0L6.51,19c0-.07,0-.19,0-.27h0c0,.08,0,.2-.06.27l-.07.25Zm-.28.18-.08.28H5.88l.38-1.21h.41L7,19.66H6.68l-.08-.28Z"/><path class="cls-3" d="M7.74,19.2h0L7.68,19c0-.07,0-.19-.06-.27h0L7.55,19l-.06.25Zm-.29.18-.07.28H7l.39-1.21h.41l.34,1.21H7.85l-.08-.28Z"/><polygon class="cls-3" points="8.68 18.45 8.68 18.94 9.04 18.94 9.04 18.45 9.38 18.45 9.38 19.66 9.04 19.66 9.04 19.16 8.68 19.16 8.68 19.66 8.34 19.66 8.34 18.45 8.68 18.45"/><path class="cls-3" d="M9.62,19.53h0c0-.09.09-.14.19-.14s.2.05.2.14-.08.14-.19.14-.2-.06-.2-.14m.05-.26,0-.82H10l0,.82Z"/><polygon class="cls-2" points="0.96 1.04 1.35 1.04 1.35 3.18 2.32 3.18 2.32 3.41 0.96 3.41 0.96 1.04"/><rect class="cls-2" x="2.63" y="0.98" width="0.39" height="2.43"/><path class="cls-2" d="M4.48,2.53h0c-.2,0-.68,0-.68.4a.28.28,0,0,0,.3.3A.35.35,0,0,0,4.47,3a.31.31,0,0,0,0-.09Zm.06.88,0-.18h0A.62.62,0,0,1,4,3.44.53.53,0,0,1,3.42,3c0-.42.49-.61,1-.61V2.28c0-.23-.08-.38-.39-.38A1,1,0,0,0,3.67,2l-.09-.19a1.48,1.48,0,0,1,.58-.11c.5,0,.71.23.71.61V3a1.63,1.63,0,0,0,0,.39Z"/><path class="cls-2" d="M5.37,2.15c0-.2,0-.3,0-.44h.34l0,.21h0a.65.65,0,0,1,.55-.24.54.54,0,0,1,.52.26h0a.67.67,0,0,1,.25-.19.71.71,0,0,1,.34-.07.54.54,0,0,1,.59.6V3.41H7.6V2.35c0-.22,0-.44-.34-.44a.39.39,0,0,0-.37.25.81.81,0,0,0,0,.16V3.41H6.49V2.3c0-.19,0-.39-.35-.39a.37.37,0,0,0-.36.27.77.77,0,0,0,0,.15V3.41H5.37Z"/><path class="cls-2" d="M9.41,2.53h0c-.2,0-.68,0-.68.4a.29.29,0,0,0,.31.3A.37.37,0,0,0,9.41,3V2.53Zm.06.88,0-.18h0a.62.62,0,0,1-.49.21A.53.53,0,0,1,8.35,3c0-.42.5-.61,1.06-.61V2.28c0-.23-.09-.38-.4-.38A1.07,1.07,0,0,0,8.6,2l-.09-.19a1.56,1.56,0,0,1,.58-.11c.5,0,.71.23.71.61V3a1.63,1.63,0,0,0,0,.39Z"/><path class="cls-2" d="M11.34,2.56h0c0,.28.07.66.43.66s.41-.4.41-.66-.07-.66-.42-.66-.42.4-.42.66m1.24,0a.8.8,0,0,1-.83.88.78.78,0,0,1-.8-.88.8.8,0,0,1,.83-.88A.78.78,0,0,1,12.58,2.56Z"/><path class="cls-2" d="M14.82,2.3h0a.27.27,0,0,0,0-.13.36.36,0,0,0-.36-.26c-.28,0-.44.27-.44.64s.2.63.44.63a.35.35,0,0,0,.36-.24.39.39,0,0,0,0-.15Zm.41-.59c0,.12,0,.27,0,.53v.95c0,.45-.08.62-.24.74a1.15,1.15,0,0,1-.66.18A1.68,1.68,0,0,1,13.76,4l.1-.21a1.53,1.53,0,0,0,.46.07c.31,0,.5-.13.5-.52V3.2h0a.54.54,0,0,1-.47.21.75.75,0,0,1-.73-.84.79.79,0,0,1,.78-.89.52.52,0,0,1,.46.22h0l0-.19Z"/><path class="cls-2" d="M15.7,2.15c0-.14,0-.31,0-.44H16l0,.27h0a.6.6,0,0,1,.52-.3h.08V2h-.08a.47.47,0,0,0-.48.35.81.81,0,0,0,0,.16v.94h-.4Z"/><path class="cls-2" d="M16.92,3.41h0V1.71h.4v1.7Zm.43-2.14c0,.11-.09.18-.24.18s-.23-.07-.23-.18.11-.17.23-.17S17.35,1.17,17.35,1.27Z"/><path class="cls-2" d="M18.3,1.26v.45h.47v.21H18.3v1c0,.22.11.28.26.28h.16v.2a1.07,1.07,0,0,1-.29,0,.69.69,0,0,1-.39-.1c-.1-.08-.15-.19-.15-.43v-1h-.3V1.71h.3V1.34Z"/><path class="cls-2" d="M20,2.53h0c-.2,0-.68,0-.68.4a.28.28,0,0,0,.3.3A.36.36,0,0,0,20,3a.31.31,0,0,0,0-.09Zm.06.88,0-.18h0a.63.63,0,0,1-.5.21A.52.52,0,0,1,18.93,3c0-.42.49-.61,1.05-.61V2.28c0-.23-.08-.38-.39-.38a1,1,0,0,0-.41.08l-.09-.19a1.48,1.48,0,0,1,.58-.11c.5,0,.71.23.71.61V3a1.63,1.63,0,0,0,0,.39Z"/><path class="cls-2" d="M22,2.78h0a.34.34,0,0,0,0,.15.36.36,0,0,0,.36.28c.33,0,.43-.31.43-.65s-.12-.65-.43-.65a.41.41,0,0,0-.37.31.62.62,0,0,0,0,.13Zm-.39-.54c0-.26,0-.41,0-.53H22l0,.22h0a.62.62,0,0,1,.52-.25c.43,0,.72.32.72.88a.77.77,0,0,1-.77.88.49.49,0,0,1-.43-.2h0v.84h-.39Z"/><path class="cls-2" d="M24.54,2.53h0c-.2,0-.68,0-.68.4a.29.29,0,0,0,.31.3A.35.35,0,0,0,24.53,3a.31.31,0,0,0,0-.09Zm.06.88,0-.18h0a.62.62,0,0,1-.49.21A.53.53,0,0,1,23.48,3c0-.42.5-.61,1.05-.61V2.28c0-.23-.08-.38-.39-.38a1.07,1.07,0,0,0-.41.08l-.09-.19a1.56,1.56,0,0,1,.58-.11c.5,0,.71.23.71.61V3a1.63,1.63,0,0,0,0,.39Z"/><path class="cls-2" d="M25.43,2.15c0-.14,0-.31,0-.44h.35l0,.27h0a.6.6,0,0,1,.52-.3h.09V2h-.09a.46.46,0,0,0-.47.35.78.78,0,0,0,0,.16v.94h-.39Z"/><path class="cls-2" d="M27.54,2.53h0c-.2,0-.68,0-.68.4a.29.29,0,0,0,.3.3A.35.35,0,0,0,27.53,3a.31.31,0,0,0,0-.09Zm.06.88,0-.18h0a.62.62,0,0,1-.49.21A.53.53,0,0,1,26.48,3c0-.42.49-.61,1.05-.61V2.28c0-.23-.08-.38-.39-.38a1,1,0,0,0-.41.08l-.09-.19a1.48,1.48,0,0,1,.58-.11c.5,0,.71.23.71.61V3a1.63,1.63,0,0,0,0,.39Z"/><path class="cls-2" d="M2,5.54H2c0-.34-.18-.49-.37-.49s-.39.26-.4.49Zm-.78.2c0,.52.3.63.59.63a1.15,1.15,0,0,0,.41-.06l.06.2a1.75,1.75,0,0,1-.54.08.81.81,0,0,1-.9-.86.81.81,0,0,1,.83-.89.68.68,0,0,1,.71.75.66.66,0,0,1,0,.15Z"/><path class="cls-2" d="M2.66,6.29a1.34,1.34,0,0,0,.4.08c.23,0,.37-.09.37-.24s-.07-.22-.32-.34-.5-.28-.5-.48.3-.47.68-.47a1.18,1.18,0,0,1,.45.09l-.11.2a.81.81,0,0,0-.33-.07c-.21,0-.32.1-.32.21s.06.18.31.3.51.28.51.51-.34.51-.74.51a1.15,1.15,0,0,1-.49-.1Z"/><path class="cls-2" d="M4.64,4.42v.45h.48v.21H4.64v1c0,.22.12.28.26.28h.16v.21a1.07,1.07,0,0,1-.29,0,.69.69,0,0,1-.39-.1.52.52,0,0,1-.15-.43v-1h-.3V4.87h.3V4.5Z"/><path class="cls-2" d="M6.33,5.69h0c-.2,0-.68,0-.68.39a.29.29,0,0,0,.31.3A.33.33,0,0,0,6.33,6Zm.06.88,0-.18h0a.62.62,0,0,1-.49.2c-.33,0-.59-.19-.59-.48s.5-.61,1.05-.62v0c0-.23-.08-.39-.39-.39a1.07,1.07,0,0,0-.41.09L5.43,5A1.56,1.56,0,0,1,6,4.84c.5,0,.71.22.71.61v.73a1.63,1.63,0,0,0,0,.39Z"/><path class="cls-2" d="M7.61,6h0a.18.18,0,0,0,0,.1.39.39,0,0,0,.37.3c.31,0,.43-.29.43-.66S8.31,5.07,8,5.07a.41.41,0,0,0-.37.3.49.49,0,0,0,0,.12Zm-.41.6c0-.1,0-.29,0-.41v-2h.39v.93h0a.63.63,0,0,1,.53-.23c.38,0,.67.31.67.86s-.37.89-.75.89a.53.53,0,0,1-.49-.24h0l0,.22Z"/><rect class="cls-2" x="9.21" y="4.14" width="0.39" height="2.43"/><path class="cls-2" d="M11.2,5.54h0c0-.34-.18-.49-.37-.49s-.39.26-.41.49Zm-.78.2c0,.52.3.63.59.63a1.15,1.15,0,0,0,.41-.06l.06.2a1.77,1.77,0,0,1-.55.08.81.81,0,0,1-.9-.86.81.81,0,0,1,.84-.89.67.67,0,0,1,.7.75v.15Z"/><path class="cls-2" d="M13.15,6.52a1,1,0,0,1-.4.07.81.81,0,0,1-.91-.86.89.89,0,0,1,1-.89,1,1,0,0,1,.34.06l-.07.22a.82.82,0,0,0-.28,0,.59.59,0,0,0-.58.66.56.56,0,0,0,.59.63.86.86,0,0,0,.28,0Z"/><path class="cls-2" d="M14.46,5.54h0c0-.34-.18-.49-.36-.49s-.39.26-.41.49Zm-.77.2c0,.52.3.63.58.63a1.11,1.11,0,0,0,.41-.06l.07.2a1.77,1.77,0,0,1-.55.08.81.81,0,0,1-.9-.86.81.81,0,0,1,.84-.89.67.67,0,0,1,.7.75v.15Z"/><path class="cls-2" d="M15.21,5.31c0-.15,0-.32,0-.44h.35l0,.27h0a.61.61,0,0,1,.53-.3h.08v.28H16.1a.47.47,0,0,0-.48.35.78.78,0,0,0,0,.16v.94h-.39Z"/><path class="cls-2" d="M18.39,6.52a1,1,0,0,1-.41.07.81.81,0,0,1-.9-.86.89.89,0,0,1,1-.89,1,1,0,0,1,.34.06l-.07.22a.82.82,0,0,0-.28,0,.59.59,0,0,0-.58.66.56.56,0,0,0,.59.63.86.86,0,0,0,.28,0Z"/><path class="cls-2" d="M18.93,5.72h0c0,.28.08.66.43.66s.41-.4.41-.66-.07-.66-.42-.66-.42.4-.42.66m1.24,0a.79.79,0,0,1-.83.87.77.77,0,0,1-.8-.87.8.8,0,0,1,.83-.88A.78.78,0,0,1,20.17,5.72Z"/><path class="cls-2" d="M20.56,5.31c0-.2,0-.3,0-.44h.34l0,.2h0a.71.71,0,0,1,.57-.23.54.54,0,0,1,.6.59V6.57h-.4V5.47c0-.2-.05-.4-.34-.4a.37.37,0,0,0-.37.28.61.61,0,0,0,0,.15V6.57h-.39Z"/><path class="cls-2" d="M23,4.42v.45h.47v.21H23v1c0,.22.12.28.26.28h.16v.21a1.07,1.07,0,0,1-.29,0,.69.69,0,0,1-.39-.1.52.52,0,0,1-.15-.43v-1h-.3V4.87h.3V4.5Z"/><path class="cls-2" d="M24.72,5.69h0c-.2,0-.68,0-.68.39a.29.29,0,0,0,.3.3.34.34,0,0,0,.37-.25.34.34,0,0,0,0-.1Zm.06.88,0-.18h0a.62.62,0,0,1-.49.2c-.34,0-.59-.19-.59-.48s.49-.61,1.05-.62v0c0-.23-.08-.39-.39-.39a1,1,0,0,0-.41.09L23.82,5a1.48,1.48,0,0,1,.58-.11c.5,0,.71.22.71.61v.73a1.63,1.63,0,0,0,0,.39Z"/><path class="cls-2" d="M26.82,6.52a1,1,0,0,1-.41.07.81.81,0,0,1-.9-.86.88.88,0,0,1,1-.89,1,1,0,0,1,.35.06l-.08.22a.77.77,0,0,0-.28,0,.59.59,0,0,0-.57.66.56.56,0,0,0,.58.63.88.88,0,0,0,.29,0Z"/><path class="cls-2" d="M27.66,4.42v.45h.48v.21h-.48v1c0,.22.12.28.27.28h.15l0,.21a1.07,1.07,0,0,1-.29,0,.67.67,0,0,1-.39-.1.49.49,0,0,1-.15-.43v-1H27V4.87h.3V4.5Z"/><path class="cls-2" d="M28.68,5.72h0c0,.28.07.66.43.66s.41-.4.41-.66-.07-.66-.42-.66-.42.4-.42.66m1.24,0a.79.79,0,0,1-.83.87.77.77,0,0,1-.8-.87.8.8,0,0,1,.83-.88A.78.78,0,0,1,29.92,5.72Z"/><path class="cls-2" d="M2.13,9.68a1,1,0,0,1-.41.07.81.81,0,0,1-.9-.86A.89.89,0,0,1,1.8,8a1.37,1.37,0,0,1,.34.05l-.07.22a1.31,1.31,0,0,0-.28,0,.59.59,0,0,0-.58.66.56.56,0,0,0,.59.63.87.87,0,0,0,.28,0Z"/><path class="cls-2" d="M2.67,8.87h0c0,.29.08.67.43.67s.41-.4.41-.67-.07-.66-.42-.66-.42.41-.42.66m1.24,0a.8.8,0,0,1-.82.88.78.78,0,0,1-.81-.87A.8.8,0,0,1,3.11,8,.78.78,0,0,1,3.91,8.87Z"/><path class="cls-2" d="M4.3,8.46c0-.2,0-.3,0-.43h.34l0,.2h0A.71.71,0,0,1,5.22,8a.54.54,0,0,1,.6.58V9.72h-.4V8.63c0-.2,0-.41-.34-.41a.38.38,0,0,0-.37.28.68.68,0,0,0,0,.15V9.72H4.3Z"/><path class="cls-2" d="M7.36,8.87h0c0,.29.07.67.43.67s.4-.4.4-.67-.06-.66-.41-.66-.42.41-.42.66m1.23,0a.79.79,0,0,1-.82.88A.78.78,0,0,1,7,8.88.8.8,0,0,1,7.79,8,.78.78,0,0,1,8.59,8.87Z"/><path class="cls-2" d="M9.46,7.58V8h.48v.2H9.46v1c0,.22.12.28.26.28h.16v.21a1.72,1.72,0,0,1-.29,0,.62.62,0,0,1-.39-.11.5.5,0,0,1-.15-.43v-1h-.3V8h.3V7.65Z"/><path class="cls-2" d="M10.23,8.46c0-.14,0-.31,0-.43h.35l0,.26h0A.59.59,0,0,1,11.11,8h.09v.28h-.09a.46.46,0,0,0-.47.36.68.68,0,0,0,0,.15v.94h-.39Z"/><path class="cls-2" d="M11.66,8.87h0c0,.29.08.67.43.67s.41-.4.41-.67-.07-.66-.42-.66-.42.41-.42.66m1.24,0a.8.8,0,0,1-.83.88.78.78,0,0,1-.8-.87A.8.8,0,0,1,12.1,8,.78.78,0,0,1,12.9,8.87Z"/><path class="cls-2" d="M13.22,9.44a1,1,0,0,0,.4.09c.22,0,.36-.09.36-.24s-.06-.22-.31-.34-.5-.29-.5-.48.3-.47.68-.47a1.08,1.08,0,0,1,.45.09l-.11.2a.8.8,0,0,0-.33-.08c-.22,0-.32.11-.32.22s.06.18.3.29.52.28.52.52-.34.51-.75.51a1.15,1.15,0,0,1-.49-.1Z"/><path class="cls-2" d="M23.31,15.75s-.87-.72.23-1.34,2.92.52,3.26.9a4.7,4.7,0,0,1,.56,1.59s-1.9-.37-3-.55-1.19.11-1-.6"/></svg>