<svg id="Capa_1" data-name="Capa 1" xmlns="http://www.w3.org/2000/svg" viewBox="0 0 31.37 28.11"><defs><style>.cls-1{fill:#0070a2;}.cls-2{fill:#f05050;}.cls-3{fill:#b3d335;}.cls-4{fill:#f5a4c7;}.cls-5{fill:#fbc9b7;}.cls-6{fill:#231f20;}</style></defs><title>3-8meses</title><path class="cls-1" d="M18.08,18.25l1.46.59.22.82-1.4-.38s-.48-.92-.28-1"/><path class="cls-2" d="M19.62,18.89l-1.4-.47a.76.76,0,0,1,.11-.23l.85-.58,1.41.41Z"/><path class="cls-3" d="M19.54,18.84l.14.82.37-.07c.05,0,.83-.82.83-.82l-.19-.65Z"/><path class="cls-4" d="M4.11,22.08s-2.73,1.07-3,1.26a3.35,3.35,0,0,0-.26,2c.18.23,0,1.76,1.58,2.06a8.12,8.12,0,0,0,3.67-.54S9.29,24.1,9.3,24.05s-5.19-2-5.19-2"/><path class="cls-5" d="M8.19,24.55s.26-.41.16-.54a3.41,3.41,0,0,0-1-.24l-4.89-.55H1.31a14.16,14.16,0,0,1,1.92-3.39c1.05-1.2,2.43-2.37,2.46-2.6a3.43,3.43,0,0,0-.09-1.3c-.15-.27-.34-1.16.23-1.5s4.66-2.1,5.07-1.89,1.07.65,1.07.65a1,1,0,0,1,0,1.11c-.4.58-.77.87-.38,1.24s.45.62.08.77l-.37.15s.3.11.26.26-.8.21-.8.21.48.11.5.28-.38.23-.38.23.38.25.22.33A10.83,10.83,0,0,1,9.91,18a11.37,11.37,0,0,0,1.95.3,13.89,13.89,0,0,0,4.72-.82c1.86-.75-.53.88-.53.88s-.22.24.16.4.56.32.37.45a8.21,8.21,0,0,1-1.82,0,5.33,5.33,0,0,1-1.84.51c-1.22.16-2.46.25-2.46.25l-1.25-.19s.15.88-.07,1.11a1.72,1.72,0,0,0-.32.68s.62.18.93-.13.83-.78,1.07-.79,0,.15.28.24.38,0,.4.22.37.67.29.85-.38.31-.55.49a9.66,9.66,0,0,1-1.7.67.51.51,0,0,0,.51.14A7.73,7.73,0,0,1,12,23.18a2.22,2.22,0,0,1,.62.55,3.18,3.18,0,0,0,1.39.12c.44-.17.82-.22.87-.12s0,.06.06.31.18.3.18.3l-.23.21s1,.1,1.11.26a1.56,1.56,0,0,1,.21.8.69.69,0,0,1-.68.64A14,14,0,0,1,13.78,26a9.93,9.93,0,0,1-2.91,1.28c-1,.1-2.29.26-3.64.34A7.7,7.7,0,0,1,4,27.39c-1.15-.37-1.61-1.15-1.1-1.94A3.57,3.57,0,0,1,6,24.2c1.15.14,2.18.35,2.18.35"/><path class="cls-6" d="M10.58,15.64a.61.61,0,0,0,.32-.32s.16,0,.15.08.24-.29-.3-.17a1,1,0,0,0-.7.47l.33-.17s-.05.2.2.11"/><polygon class="cls-6" points="12.42 14.43 12.4 14.35 12.39 14.36 12.42 14.43"/><path class="cls-6" d="M17.18,17.53h0m-1.06.37h0l-.05,0h0a1.08,1.08,0,0,0-.34.37.36.36,0,0,0-.05.28c0,.11.16.23.27.27l.26.1.18.06s0,0,0,.05,0,0,0,0a.52.52,0,0,1-.33,0l-.29,0H15.5a2,2,0,0,1-1-.14h0s0,0,0,0a.57.57,0,0,0,.18.12l-.14,0a6.16,6.16,0,0,0-.64.11,3.59,3.59,0,0,0-.41.11c-.14,0-.29.1-.44.16a1.79,1.79,0,0,1-.48.14,2.5,2.5,0,0,1-.55,0H10c-.36,0-.65,0-.8,0a1.1,1.1,0,0,1-.06-.26.93.93,0,0,1,0-.33,1.7,1.7,0,0,0,.06-.31,1.1,1.1,0,0,0,0-.27A1.31,1.31,0,0,0,9,18l.89,0a2.81,2.81,0,0,0,1,.35,5.31,5.31,0,0,0,1.19.09,11.31,11.31,0,0,0,1.17-.07l1.14-.19.57-.12a3.66,3.66,0,0,0,.53-.17,10,10,0,0,1,1.07-.29,2.25,2.25,0,0,1,.36-.06C16.66,17.67,16.39,17.79,16.12,17.9ZM9,19.75H9c0,.12-.07.23-.09.34l-.05.32a2.84,2.84,0,0,0,0,.56v.52H8.67a1,1,0,0,0,0-.28,3.86,3.86,0,0,0-.2-.41A5.79,5.79,0,0,0,8,20.06a3.43,3.43,0,0,0-.25-.32h0s0,0,0,0,.06.14.13.35.17.48.24.76.05.29.08.41a2,2,0,0,0,.4.68h0s0,0,0,0a.39.39,0,0,0,0-.1.9.9,0,0,0,.06-.27v0a5,5,0,0,0,.8.13,1.24,1.24,0,0,0,.27,0l.16-.05.12-.08a1.58,1.58,0,0,0,.2-.32.24.24,0,0,1,.09-.11.37.37,0,0,1,.13-.07,1.43,1.43,0,0,0,.21-.12,1.4,1.4,0,0,0,.18-.13h0a.46.46,0,0,1,.05.21h0a.09.09,0,0,0,0,.05.25.25,0,0,0,.29.1h.14v.2a.53.53,0,0,0,.17.34s.06.06.06.08,0,.05,0,.11a.23.23,0,0,0,0,.21l0,0s0,0,0,0a1.18,1.18,0,0,1-.26.21,5.08,5.08,0,0,1-.7.35A12.82,12.82,0,0,1,9,23.19c-.27.07-.55.13-.82.18a1.29,1.29,0,0,1-.36.05H7.64l-.18,0a2.11,2.11,0,0,1-1.11-.73,5.48,5.48,0,0,1-.61-1.09c-.21-.38-.41-.75-.59-1.12A1.55,1.55,0,0,1,5,19.28s0,0,0,0a0,0,0,0,0,0,0,1.34,1.34,0,0,0-.14,1.21,9.83,9.83,0,0,0,.44,1.18l.24.58a2.51,2.51,0,0,0,.38.58,2.64,2.64,0,0,0,1.33.82L7,23.6c-.68-.12-1.37-.22-2.06-.31s-1.39-.16-2.1-.2c-.35,0-.71,0-1.08,0l-.29,0A8.22,8.22,0,0,1,2,22c.24-.43.51-.86.79-1.29A11.05,11.05,0,0,1,4.86,18.3c.22-.18.43-.34.68-.52A1,1,0,0,0,6,17a.78.78,0,0,0-.12-.4l-.12-.45a.49.49,0,0,1,.23-.5,1,1,0,0,0,0,.24,1.3,1.3,0,0,0,.35.49,1.5,1.5,0,0,0,.25.19,1.15,1.15,0,0,0,.29.11,1.26,1.26,0,0,0,.48.06l.17,0v0H7.4a1.12,1.12,0,0,1-.39-.1,1.05,1.05,0,0,1-.56-.74.36.36,0,0,1,0-.21l0,0,0,0h0c.44,0,.53.1,1,.42l-.13-.36h0v0l.4.27s-.42-.41-.38-.79a1,1,0,0,0,.25-.59s0-.19,0,.27l-.1.59.53-.61L8,15.29l.51-.52.76-.92,0,.75.6-1-.18,1.06.41-.62.83-1-.22.9.45-.7,0,1.14a3.09,3.09,0,0,0-1.42.81s1.08-.87,1.9-.6a.42.42,0,0,0-.47-.21l.72-1.16a1.72,1.72,0,0,1,.16.43,1,1,0,0,1-.07.66c-.11.22-.26.43-.38.65a1.39,1.39,0,0,0-.16.35c0,.14.08.28.19.36a1.54,1.54,0,0,1,.29.27c.07.09,0,.16-.17.23l-.21.09-.12.06a.1.1,0,0,0,0,.13,1.08,1.08,0,0,0,.11.18c.05.05.09.11.07.1a.89.89,0,0,1-.4.08h-.5s-.08,0-.09,0,0,.07.06.08a3,3,0,0,1,.58.18l0,0s0,0,0,0v.09s-.1.07-.2.1a.17.17,0,0,0-.11.08.1.1,0,0,0,0,.1s.06.07.06.1,0,.06-.12.09l-.3.07-.32,0c-.43,0-.88,0-1.32,0l-.33,0-.34,0H8.1a.59.59,0,0,0-.14.06.27.27,0,0,0-.11.15.53.53,0,0,0,0,.28h0a.18.18,0,0,0,.19.09c.09,0,.15-.07.13-.13h0a.28.28,0,0,1,0-.18s0-.05,0-.06h0l.33,0h.32a.31.31,0,0,1,0,.08,2.22,2.22,0,0,0,0,.41,1.18,1.18,0,0,0,0,.26,1.82,1.82,0,0,0,.11.3,1,1,0,0,1,.09.33A1.24,1.24,0,0,1,9,19.75Zm1.13,3.56h.48l.47,0a3.59,3.59,0,0,1,.93,0l.21.07.16.11a.57.57,0,0,1,.08.13l0,.15a.08.08,0,0,0,.07.07h0a3.66,3.66,0,0,0,.76.17,3.32,3.32,0,0,0,.83,0l.21-.05.17,0a1.66,1.66,0,0,1,.26-.05h0a.27.27,0,0,1-.06.1l0,0a.1.1,0,0,0,0,.15l.15.1.06.05s0,0,0,0h0l-.05,0-.09.09s0,0,0,0c-.22,0-.44-.08-.67-.1a4.38,4.38,0,0,0-.52,0l-.29,0a1.5,1.5,0,0,0-.32.09l-.05,0h0l0,0h0l-.08.05-.17.09a1.37,1.37,0,0,1-.36.11,3.55,3.55,0,0,1-.87,0,8,8,0,0,0-1,0,7.89,7.89,0,0,0-.85.1,3.53,3.53,0,0,0-.69-.24c-.21-.06-.44-.11-.66-.15h0a.76.76,0,0,0,.06-.37.34.34,0,0,0-.12-.19A.85.85,0,0,0,8,23.79l-.35-.07h.19a2,2,0,0,0,.48-.09,7,7,0,0,0,.81-.26l.17-.06Q9.72,23.33,10.12,23.31Zm4.7.52h0S14.81,23.82,14.82,23.83Zm.49,1h.25a.62.62,0,0,1,.31.07c.08,0,.11.11,0,.17s-.32.08-.36.14,0,0,0,0h0s0,0,0,0,0,0,0,0h.23a.91.91,0,0,0,.26-.05,0,0,0,0,0,0,0,.16.16,0,0,1,0,.08s-.07,0-.13.06l-.23.11-.13.08.16.06a1,1,0,0,0,.3,0l-.13.07h-.06l-.11.06a.39.39,0,0,0-.09.08.71.71,0,0,0,.15.05l.14,0h0s0,0,0,0h.07l0,0h0l-.09,0-.15.06-.13.09a.92.92,0,0,0,.18,0h.11a1.06,1.06,0,0,1-.31,0,2.13,2.13,0,0,1-.25,0L15,26l-1.11-.21a.27.27,0,0,0-.2,0h0c-.29.19-.6.37-.9.55s-.63.34-1,.48a3.5,3.5,0,0,1-.52.17c-.16.05-.37.08-.57.12-.41.07-.8.16-1.21.21s-.81.08-1.22.09l-.62,0-.61,0c-.4,0-.81,0-1.21,0-.2,0-.41,0-.61,0a2.43,2.43,0,0,1-.27,0,.2.2,0,0,0-.14-.11h0A5.75,5.75,0,0,1,3.67,27a2.44,2.44,0,0,1-.45-.27,1.27,1.27,0,0,1-.3-.32.87.87,0,0,1-.07-.17c0-.06,0-.12,0-.18l0-.09s0,0,0,0l0,0a1.36,1.36,0,0,1,.1-.21,2,2,0,0,1,.25-.37A2.18,2.18,0,0,1,3.59,25,2.6,2.6,0,0,1,4,24.71a2.91,2.91,0,0,1,.51-.22,2.63,2.63,0,0,1,.57-.13,4.07,4.07,0,0,1,.61-.05,4.29,4.29,0,0,1,.62,0L7,24.4h.08l1,.29.67.2a5.31,5.31,0,0,1,.61.22c.28.18.58.34.86.51h0a.18.18,0,0,0,.19,0,.07.07,0,0,0,0-.13h0c-.23-.18-.44-.36-.67-.53a4.18,4.18,0,0,1,.71,0c.32,0,.61.06.93.1a3.88,3.88,0,0,0,1,0,2.63,2.63,0,0,0,.52-.14l.22-.1.11-.06h0l0,0a.31.31,0,0,1,.13,0h.19a3.16,3.16,0,0,1,.43,0l1,.09ZM1.79,27h0a1.44,1.44,0,0,1-.53-.57,2.14,2.14,0,0,1-.18-.69A5.85,5.85,0,0,1,1,25a8.52,8.52,0,0,1,0-1.43c0-.16.37-.19.69-.2s.68,0,1,0c.69.05,1.38.12,2.07.19l2.07.21,1,.12c.36,0,.36.28.34.5-.2,0-.41-.05-.62-.07L7,24.25l-.64-.1a4.76,4.76,0,0,0-.66-.07,4,4,0,0,0-.69,0,4.67,4.67,0,0,0-.67.13,4.16,4.16,0,0,0-.62.23,5.13,5.13,0,0,0-.52.32,2.19,2.19,0,0,0-.41.39,2.45,2.45,0,0,0-.31.43,1.5,1.5,0,0,0-.11.22l0,.06a.07.07,0,0,0,0,.06l0,.14a.76.76,0,0,0,0,.26,1.19,1.19,0,0,0,.11.26,1.52,1.52,0,0,0,.41.43,3.16,3.16,0,0,0,.54.31h0c-.26,0-.51-.05-.74-.09A2.24,2.24,0,0,1,1.79,27ZM17,17.26a3.88,3.88,0,0,0-.57.16c-.36.11-.69.25-1,.38a2.54,2.54,0,0,1-.51.17l-.56.07c-.38,0-.77,0-1.15.05L12,18.15a6.86,6.86,0,0,1-1.11,0A4.8,4.8,0,0,1,10.1,18h.15a3,3,0,0,0,.68-.14.65.65,0,0,0,.17-.08.15.15,0,0,0,.05-.17.62.62,0,0,0-.08-.12h0c.09,0,.25-.07.3-.19a.22.22,0,0,0,0-.14s0-.07,0-.08a.14.14,0,0,0-.08-.05.9.9,0,0,0-.21-.08h.06l.27,0a.52.52,0,0,0,.28-.11.12.12,0,0,0,0-.14l-.06-.08a.65.65,0,0,1-.1-.15s0,0,0,0l.09,0,.22-.1a.9.9,0,0,0,.2-.14.17.17,0,0,0,0-.22,1.47,1.47,0,0,0-.31-.3c-.11-.09-.18-.17-.15-.27a1.37,1.37,0,0,1,.16-.32c.13-.22.27-.43.39-.66a1.08,1.08,0,0,0,.13-.58l.2.57A2.23,2.23,0,0,0,11,11.93l-.07,0a1,1,0,0,0-.23-.12l-.33-.13a7.56,7.56,0,0,0-3.85-.42c-1.19.14-3.63,1.29-3.52,3.26s1.88,1.75,2.47,2.33A.65.65,0,0,1,5.5,17c0,.19-.12.34-.34.51s-.46.36-.67.55a10.24,10.24,0,0,0-2,2.48,14.23,14.23,0,0,0-.7,1.34,7.73,7.73,0,0,0-.44,1.22l-.19,0a.9.9,0,0,0-.28.13.31.31,0,0,0-.13.24c0,.49.08,1,.11,1.44a5.59,5.59,0,0,0,.21,1.45,1.51,1.51,0,0,0,.53.67,2.62,2.62,0,0,0,1,.4c.37.07.7.11,1,.15s.69.09,1.08.11a.3.3,0,0,0,.22-.09A8.52,8.52,0,0,0,7,27.83a8.4,8.4,0,0,0,1.24-.15c.4-.07.8-.15,1.21-.2s.82-.09,1.23-.11c.2,0,.41,0,.64-.05a4,4,0,0,0,.62-.16,7.06,7.06,0,0,0,1.91-1l1,.09.3,0h.31a.88.88,0,0,0,.48-.2.27.27,0,0,0,.12,0,.24.24,0,0,0,.16-.29.28.28,0,0,0-.08-.12.17.17,0,0,0,0-.1.45.45,0,0,0-.06-.09.2.2,0,0,0,.09-.09.13.13,0,0,0,0-.17.42.42,0,0,0-.13-.07.2.2,0,0,0,.13-.15.22.22,0,0,0-.09-.21.91.91,0,0,0-.53-.21h-.23l-.22,0-.09,0,.05,0h0a.21.21,0,0,0,.1-.06.15.15,0,0,0,0-.15.31.31,0,0,0-.05-.1l0-.06a.39.39,0,0,0,.14-.26.28.28,0,0,0-.17-.24.71.71,0,0,0-.32-.07,1.75,1.75,0,0,0-.48.06l-.17.05-.14,0a2.78,2.78,0,0,1-.66.07l-.65,0,0-.11a1.14,1.14,0,0,0-.15-.16l-.2-.12-.23-.09-.24-.07a2.1,2.1,0,0,0-.24-.06l-.25,0a2.3,2.3,0,0,0-.26,0,4.85,4.85,0,0,0-1,0l-.16,0,.75-.29c.27-.1.49-.23.73-.34a1.92,1.92,0,0,0,.35-.23.28.28,0,0,0,0-.11.18.18,0,0,0,0-.11s0,0,0-.07a.51.51,0,0,0,.08-.18.18.18,0,0,0,0-.12.11.11,0,0,0,0-.05l0,0a.31.31,0,0,1,0-.23l0-.14V21.1A.21.21,0,0,0,11.7,21a.52.52,0,0,0-.38-.14h0a.5.5,0,0,0-.1-.21l-.13-.1a.52.52,0,0,0-.26-.06.43.43,0,0,0-.24.08.29.29,0,0,0-.1.07l-.14.12a.48.48,0,0,1-.14.09.74.74,0,0,0-.22.14.8.8,0,0,0-.12.18c0,.12-.06.23-.12.29s0,0,0,0l-.05,0a.54.54,0,0,1-.19,0,5.23,5.23,0,0,1-.56,0A.75.75,0,0,1,9,21.41,1.65,1.65,0,0,0,9.25,21a2.29,2.29,0,0,0,.09-.28,1.1,1.1,0,0,0,0-.31c0-.11,0-.23,0-.34a1.67,1.67,0,0,0-.08-.3l.05,0A2.42,2.42,0,0,0,10,20a3.16,3.16,0,0,0,.47.06,4.42,4.42,0,0,0,.52,0c.18,0,.36,0,.54-.06a3.37,3.37,0,0,0,.55-.12l.52-.13a5,5,0,0,1,.54-.06,3.8,3.8,0,0,0,.5-.06,3.16,3.16,0,0,0,.42-.11,3.08,3.08,0,0,0,.73-.36l.17.07a3.5,3.5,0,0,0,.55.09l.27,0,.24,0a1.69,1.69,0,0,0,.33,0,1,1,0,0,0,.38-.09.35.35,0,0,0,.19-.3V19a.25.25,0,0,0,0-.07.36.36,0,0,0-.13-.15,1.91,1.91,0,0,0-.29-.13l-.2-.09c-.05,0,0,0,0,0s0,0,0-.08a1,1,0,0,1,.21-.25,6.62,6.62,0,0,0,.9-.5.53.53,0,0,0,.12-.1.15.15,0,0,0,.05-.09.12.12,0,0,0,0-.07.21.21,0,0,0-.1-.13A.8.8,0,0,0,17,17.26Z"/><path class="cls-6" d="M20.11,19.21h0l-.21.2c-.08-.15-.16-.29-.25-.43v0l0,0a4.61,4.61,0,0,0,.57-.36l.43-.33c0,.07,0,.15,0,.22l0,.34-.49.4m-.87.12h0a5.18,5.18,0,0,0-.58-.28,3.85,3.85,0,0,0-.53-.54c.22,0,.45.09.67.15a3.26,3.26,0,0,1,.63.28s-.05,0,0,.08h0c0,.15.06.3.1.45Zm-.46-1.25h0a2.32,2.32,0,0,0,.4-.43,5.34,5.34,0,0,0,1,.47l-.27.24a3.44,3.44,0,0,0-.37.4,3.75,3.75,0,0,1-.62-.2,4.34,4.34,0,0,1-.43-.23Zm2.14.38a2.85,2.85,0,0,0-.12-.31L21,18l-.33-.09a7.61,7.61,0,0,0-1.48-.28h0a4.88,4.88,0,0,0-.65.28,4.18,4.18,0,0,0-.54.35l-.2.16.22.07a3.08,3.08,0,0,0,.32.75s0,0,.06.06h0a5.2,5.2,0,0,0,.63.28l.56.18s0,0,0,.06a.22.22,0,0,0,.08.09.32.32,0,0,0,.34,0h0c.18-.14.36-.28.52-.43s.32-.31.46-.47l0,0a.1.1,0,0,0,0-.09A3.1,3.1,0,0,0,20.92,18.46Z"/><polygon class="cls-6" points="7.08 1.38 7.47 1.38 7.47 3.52 8.45 3.52 8.45 3.75 7.08 3.75 7.08 1.38"/><path class="cls-6" d="M9.67,2.87h0c-.21,0-.68,0-.68.4a.28.28,0,0,0,.3.3.37.37,0,0,0,.37-.26.31.31,0,0,0,0-.09Zm.05.88,0-.18h0a.62.62,0,0,1-.49.21.53.53,0,0,1-.59-.49c0-.42.5-.61,1.06-.61V2.62c0-.23-.09-.38-.4-.38a1.07,1.07,0,0,0-.41.08l-.09-.19A1.56,1.56,0,0,1,9.34,2c.5,0,.71.23.71.61v.73a1.63,1.63,0,0,0,0,.39Z"/><path class="cls-6" d="M10.56,2.49c0-.2,0-.3,0-.44h.35l0,.2h0A.74.74,0,0,1,11.48,2a.54.54,0,0,1,.6.59V3.75h-.4V2.65c0-.2-.06-.4-.34-.4a.39.39,0,0,0-.38.28.66.66,0,0,0,0,.15V3.75h-.39Z"/><path class="cls-6" d="M12.38,3.58l.78-1c.07-.09.15-.18.2-.26h-.88V2.05H13.8v.18l-.77,1a2.19,2.19,0,0,0-.2.25h1v.22H12.38Z"/><path class="cls-6" d="M15.05,2.87h0c-.21,0-.68,0-.68.4a.28.28,0,0,0,.3.3A.37.37,0,0,0,15,3.31a.31.31,0,0,0,0-.09Zm.06.88,0-.18h0a.61.61,0,0,1-.49.21A.53.53,0,0,1,14,3.29c0-.42.5-.61,1.06-.61V2.62c0-.23-.08-.38-.4-.38a1.07,1.07,0,0,0-.41.08l-.08-.19A1.48,1.48,0,0,1,14.73,2c.49,0,.71.23.71.61v.73a2.42,2.42,0,0,0,0,.39Z"/><path class="cls-6" d="M17,2.9h0c0,.28.07.66.43.66s.4-.4.4-.66-.06-.66-.41-.66-.42.4-.42.66m1.23,0a.79.79,0,0,1-.82.88.78.78,0,0,1-.81-.88A.8.8,0,0,1,17.41,2,.78.78,0,0,1,18.21,2.9Z"/><path class="cls-6" d="M19,3.15h0a.28.28,0,0,0,0,.1c.1.26.26.3.37.3.32,0,.43-.29.43-.65s-.12-.65-.43-.65a.4.4,0,0,0-.37.31.45.45,0,0,0,0,.12Zm-.42.6c0-.1,0-.29,0-.41v-2H19v.93h0A.61.61,0,0,1,19.52,2c.38,0,.68.31.68.86s-.37.9-.76.9A.54.54,0,0,1,19,3.53h0l0,.22Z"/><path class="cls-6" d="M20.17,4.24h0a.58.58,0,0,0,.33-.14c.09-.09.12-.21.12-.54V2.05H21V3.64c0,.36-.07.52-.25.65a1,1,0,0,1-.54.16Zm.88-2.63c0,.11-.09.18-.24.18s-.23-.07-.23-.18.1-.17.24-.17S21.05,1.51,21.05,1.61Z"/><path class="cls-6" d="M22.56,2.72h0c0-.34-.18-.49-.37-.49s-.39.26-.41.49Zm-.78.2c0,.52.3.64.59.64a1.16,1.16,0,0,0,.41-.07l.06.2a1.77,1.77,0,0,1-.55.08.8.8,0,0,1-.9-.85.82.82,0,0,1,.84-.9.68.68,0,0,1,.7.75v.15Z"/><path class="cls-6" d="M23.79,1.6v.45h.47v.21h-.47v1c0,.22.12.28.26.28h.16v.2a1.07,1.07,0,0,1-.29,0,.69.69,0,0,1-.39-.1c-.1-.08-.15-.19-.15-.43v-1h-.3V2.05h.3V1.68Z"/><path class="cls-6" d="M24.81,2.9h0c0,.28.07.66.43.66s.4-.4.4-.66-.07-.66-.41-.66-.42.4-.42.66M26,2.9a.8.8,0,0,1-.82.88.78.78,0,0,1-.81-.88A.8.8,0,0,1,25.24,2,.78.78,0,0,1,26,2.9Z"/><path class="cls-6" d="M26.36,3.47a1,1,0,0,0,.4.09c.23,0,.36-.1.36-.25s-.06-.22-.31-.33-.5-.29-.5-.49S26.61,2,27,2a1.22,1.22,0,0,1,.45.09l-.11.2A.81.81,0,0,0,27,2.24c-.21,0-.32.11-.32.21s.06.18.31.3.51.28.51.52-.34.5-.74.5a1.17,1.17,0,0,1-.5-.1Z"/><path class="cls-6" d="M29.53,2.87h0c-.21,0-.68,0-.68.4a.28.28,0,0,0,.3.3.37.37,0,0,0,.37-.26.31.31,0,0,0,0-.09Zm.06.88,0-.18h0a.61.61,0,0,1-.49.21.53.53,0,0,1-.59-.49c0-.42.5-.61,1.06-.61V2.62c0-.23-.08-.38-.4-.38a1,1,0,0,0-.4.08l-.09-.19A1.48,1.48,0,0,1,29.21,2c.49,0,.71.23.71.61v.73a2.42,2.42,0,0,0,0,.39Z"/><path class="cls-6" d="M6.22,6.86a1.08,1.08,0,0,1-.41.07.82.82,0,0,1-.91-.86.89.89,0,0,1,1-.89,1.05,1.05,0,0,1,.35.06l-.08.22a.77.77,0,0,0-.28,0,.59.59,0,0,0-.57.66.56.56,0,0,0,.58.63.92.92,0,0,0,.29,0Z"/><path class="cls-6" d="M6.5,6.91h0V5.21h.4v1.7Zm.43-2.14c0,.1-.09.17-.24.17s-.23-.07-.23-.17.1-.18.23-.18S6.93,4.66,6.93,4.77Z"/><path class="cls-6" d="M8.45,5.88h0c0-.34-.18-.49-.37-.49s-.39.26-.41.49Zm-.78.2c0,.52.3.63.59.63a1.15,1.15,0,0,0,.41-.06l.06.2a1.75,1.75,0,0,1-.54.08.8.8,0,0,1-.9-.86.8.8,0,0,1,.83-.89.68.68,0,0,1,.71.75.66.66,0,0,1,0,.15Z"/><path class="cls-6" d="M9.19,5.65c0-.15,0-.32,0-.44h.36l0,.26h0a.59.59,0,0,1,.52-.29h.08v.28h-.08a.47.47,0,0,0-.48.35.81.81,0,0,0,0,.16v.94h-.4Z"/><path class="cls-6" d="M11,4.76v.45h.48v.21H11v1c0,.22.12.28.26.28h.16l0,.21a1.21,1.21,0,0,1-.3,0,.69.69,0,0,1-.39-.1.52.52,0,0,1-.14-.43v-1h-.31V5.21h.31V4.84Z"/><path class="cls-6" d="M12.71,6h0c-.2,0-.68,0-.68.39a.29.29,0,0,0,.31.3.33.33,0,0,0,.37-.35Zm.06.88,0-.18h0a.62.62,0,0,1-.49.2c-.33,0-.59-.19-.59-.48s.5-.61,1-.62v0c0-.23-.08-.39-.39-.39a1.07,1.07,0,0,0-.41.09l-.09-.19a1.56,1.56,0,0,1,.58-.11c.5,0,.71.23.71.61v.73a1.63,1.63,0,0,0,0,.39Z"/><path class="cls-6" d="M15.46,5.85h0a.45.45,0,0,0,0-.11.39.39,0,0,0-.37-.33c-.32,0-.44.31-.44.65s.14.65.42.65a.38.38,0,0,0,.38-.29.36.36,0,0,0,0-.11Zm.39-1.37v2c0,.12,0,.31,0,.41h-.34l0-.22h0a.59.59,0,0,1-.52.24c-.42,0-.72-.31-.72-.87s.36-.88.75-.88a.53.53,0,0,1,.45.2h0v-.9Z"/><path class="cls-6" d="M16.35,6.91h0V5.21h.39v1.7Zm.42-2.14c0,.1-.09.17-.24.17s-.22-.07-.22-.17.1-.18.23-.18S16.77,4.66,16.77,4.77Z"/><path class="cls-6" d="M17.17,6.63a1.28,1.28,0,0,0,.4.08c.22,0,.36-.09.36-.24s-.06-.22-.31-.34-.5-.28-.5-.48.3-.47.68-.47a1.27,1.27,0,0,1,.45.09l-.11.2a.81.81,0,0,0-.33-.07c-.21,0-.32.1-.32.21s.06.18.3.3.52.28.52.51-.34.51-.74.51a1.17,1.17,0,0,1-.5-.1Z"/><path class="cls-6" d="M19.15,4.76v.45h.47v.21h-.47v1c0,.22.11.28.26.28h.16V6.9a1.07,1.07,0,0,1-.29,0,.69.69,0,0,1-.39-.1.49.49,0,0,1-.15-.43v-1h-.3V5.21h.3V4.84Z"/><path class="cls-6" d="M20.84,6h0c-.21,0-.68,0-.68.39a.28.28,0,0,0,.3.3.36.36,0,0,0,.37-.25.34.34,0,0,0,0-.1Zm.06.88,0-.18h0a.64.64,0,0,1-.5.2.52.52,0,0,1-.58-.48c0-.42.49-.61,1-.62v0c0-.23-.08-.39-.39-.39a1,1,0,0,0-.41.09l-.09-.19a1.48,1.48,0,0,1,.58-.11c.49,0,.71.23.71.61v.73a1.63,1.63,0,0,0,0,.39Z"/><path class="cls-6" d="M21.73,5.65c0-.2,0-.3,0-.44h.34l0,.2h0a.71.71,0,0,1,.57-.23.54.54,0,0,1,.6.59V6.91h-.39V5.81c0-.2-.06-.4-.35-.4a.37.37,0,0,0-.37.28.61.61,0,0,0,0,.15V6.91h-.39Z"/><path class="cls-6" d="M25,6.86a1.08,1.08,0,0,1-.41.07.82.82,0,0,1-.91-.86.89.89,0,0,1,1-.89,1.05,1.05,0,0,1,.35.06l-.08.22a.77.77,0,0,0-.28,0,.59.59,0,0,0-.57.66.56.56,0,0,0,.58.63.88.88,0,0,0,.29,0Z"/><path class="cls-6" d="M25.24,6.91h0V5.21h.4v1.7Zm.43-2.14c0,.1-.09.17-.24.17s-.23-.07-.23-.17a.21.21,0,0,1,.23-.18C25.58,4.59,25.67,4.66,25.67,4.77Z"/><path class="cls-6" d="M27.06,6h0c-.21,0-.69,0-.69.39a.29.29,0,0,0,.31.3.36.36,0,0,0,.37-.25.34.34,0,0,0,0-.1Zm.05.88,0-.18h0a.62.62,0,0,1-.49.2c-.33,0-.59-.19-.59-.48s.5-.61,1.06-.62v0c0-.23-.09-.39-.4-.39a1.07,1.07,0,0,0-.41.09l-.09-.19a1.56,1.56,0,0,1,.58-.11c.5,0,.72.23.72.61v.73a2.42,2.42,0,0,0,0,.39Z"/><path class="cls-6" d="M28.9,5.21l.33,1c.05.14.07.25.1.35h0l.11-.34.29-1h.39l-.4,1.09a2.63,2.63,0,0,1-.62,1.09,1.06,1.06,0,0,1-.44.26l-.15-.23a1,1,0,0,0,.35-.21,1,1,0,0,0,.23-.29.15.15,0,0,0,0-.08.13.13,0,0,0,0-.06l-.62-1.57Z"/><path class="cls-6" d="M19.84,9h0V8.9a.39.39,0,0,0-.37-.33c-.33,0-.44.31-.44.65s.13.65.42.65a.39.39,0,0,0,.38-.29.45.45,0,0,0,0-.12Zm.39-1.37v2c0,.11,0,.31,0,.4h-.33l0-.21h0a.6.6,0,0,1-.51.24c-.42,0-.72-.31-.72-.87s.36-.88.74-.88a.52.52,0,0,1,.45.2h0v-.9Z"/><path class="cls-6" d="M20.73,10.06h0V8.37h.4v1.69Zm.43-2.13c0,.1-.09.17-.24.17s-.23-.07-.23-.17.1-.18.23-.18S21.16,7.82,21.16,7.93Z"/><path class="cls-6" d="M21.56,9.78a1,1,0,0,0,.4.09c.22,0,.36-.09.36-.24s-.07-.22-.32-.34-.49-.29-.49-.48.29-.47.68-.47a1,1,0,0,1,.44.09l-.11.2a.79.79,0,0,0-.32-.07c-.22,0-.33.1-.33.21s.07.18.31.29.51.28.51.52-.33.51-.74.51a1.15,1.15,0,0,1-.49-.1Z"/><path class="cls-6" d="M23.13,10.06V8.57h-.31v-.2h.31V8.26a.6.6,0,0,1,.22-.51,1,1,0,0,1,.81-.1l-.07.21a.86.86,0,0,0-.21,0c-.29,0-.35.21-.35.43v.11H24v.2h-.45v1.49Z"/><path class="cls-6" d="M24.16,8.8c0-.14,0-.31,0-.43h.35l0,.26h0a.62.62,0,0,1,.53-.29h.08v.28h-.08a.47.47,0,0,0-.48.36.71.71,0,0,0,0,.15v.94h-.4Z"/><path class="cls-6" d="M26.85,9.6c0,.19,0,.34,0,.46h-.34l0-.18h0a.69.69,0,0,1-.53.21c-.43,0-.6-.23-.6-.65V8.37h.39v1c0,.27.06.46.33.46a.34.34,0,0,0,.36-.22.78.78,0,0,0,0-.16V8.37h.39Z"/><path class="cls-6" d="M27.84,7.92v.45h.47v.2h-.47v1c0,.22.11.28.26.28h.15l0,.21a1.72,1.72,0,0,1-.29,0,.62.62,0,0,1-.39-.11c-.1-.07-.15-.19-.15-.43v-1h-.3v-.2h.3V8Z"/><path class="cls-6" d="M29.53,9.19h0c-.21,0-.68,0-.68.39a.28.28,0,0,0,.3.3.37.37,0,0,0,.37-.25.38.38,0,0,0,0-.1Zm.06.87,0-.18h0a.61.61,0,0,1-.49.21c-.33,0-.59-.19-.59-.48S29,9,29.52,9V8.94c0-.23-.08-.39-.4-.39a1,1,0,0,0-.4.09l-.09-.19a1.48,1.48,0,0,1,.58-.11c.49,0,.71.22.71.6v.74a2.24,2.24,0,0,0,0,.38Z"/><path class="cls-6" d="M22.75,13.18a1.37,1.37,0,0,1-.41.06.82.82,0,0,1-.91-.86.89.89,0,0,1,1-.88,1,1,0,0,1,.35.05l-.08.22a.83.83,0,0,0-.28,0,.58.58,0,0,0-.57.65.56.56,0,0,0,.58.64.88.88,0,0,0,.29,0Z"/><path class="cls-6" d="M23.29,12.37h0c0,.28.07.67.43.67s.41-.41.41-.67-.07-.66-.42-.66-.42.4-.42.66m1.24,0a.8.8,0,0,1-.83.88.78.78,0,0,1-.8-.87.8.8,0,0,1,.83-.89A.78.78,0,0,1,24.53,12.37Z"/><path class="cls-6" d="M24.91,12c0-.2,0-.3,0-.44h.35l0,.21h0a.68.68,0,0,1,.57-.24.54.54,0,0,1,.59.59v1.14H26V12.13c0-.2-.06-.41-.34-.41a.38.38,0,0,0-.38.28.66.66,0,0,0,0,.15v1.07h-.4Z"/><path class="cls-6" d="M28.74,12.2h0c0-.34-.18-.5-.37-.5s-.39.26-.4.5Zm-.78.2c0,.52.31.63.59.63A1.12,1.12,0,0,0,29,13l.06.2a1.71,1.71,0,0,1-.54.08.8.8,0,0,1-.9-.85.82.82,0,0,1,.83-.9.68.68,0,0,1,.71.76v.15Z"/><rect class="cls-6" x="29.49" y="10.79" width="0.39" height="2.43"/><path class="cls-6" d="M20.21,16.1a1,1,0,0,0,.4.08c.22,0,.36-.09.36-.24s-.07-.22-.32-.33-.49-.29-.49-.49.29-.47.68-.47a1.16,1.16,0,0,1,.44.09l-.11.2a.79.79,0,0,0-.32-.07c-.22,0-.33.1-.33.21s.07.18.31.3.51.28.51.51-.33.51-.74.51a1.15,1.15,0,0,1-.49-.1Z"/><path class="cls-6" d="M22,15.53h0c0,.28.07.66.43.66s.4-.4.4-.66-.06-.66-.41-.66-.42.4-.42.66m1.23,0a.8.8,0,0,1-.82.88.78.78,0,0,1-.81-.88.8.8,0,0,1,.83-.88A.78.78,0,0,1,23.22,15.53Z"/><path class="cls-6" d="M23.61,15.12c0-.2,0-.3,0-.44h.34l0,.2h0a.74.74,0,0,1,.57-.23.54.54,0,0,1,.6.59v1.14h-.39v-1.1c0-.2-.06-.4-.35-.4a.37.37,0,0,0-.37.28.61.61,0,0,0,0,.15v1.07h-.39Z"/><path class="cls-6" d="M25.63,16.38h0v-1.7H26v1.7Zm.43-2.14c0,.11-.1.18-.24.18s-.23-.07-.23-.18a.21.21,0,0,1,.23-.18C26,14.06,26.06,14.14,26.06,14.24Z"/><path class="cls-6" d="M27.62,15.33h0v-.12a.39.39,0,0,0-.37-.33c-.33,0-.44.31-.44.66s.13.64.42.64a.38.38,0,0,0,.38-.29.37.37,0,0,0,0-.11ZM28,14v2c0,.12,0,.31,0,.41h-.34l0-.22h0a.58.58,0,0,1-.52.25c-.41,0-.72-.32-.72-.87s.37-.89.75-.89a.53.53,0,0,1,.45.2h0V14Z"/><path class="cls-6" d="M28.8,15.53h0c0,.28.07.66.43.66s.4-.4.4-.66-.06-.66-.41-.66-.42.4-.42.66m1.23,0a.8.8,0,0,1-.82.88.78.78,0,0,1-.81-.88.8.8,0,0,1,.83-.88A.78.78,0,0,1,30,15.53Z"/><path class="cls-6" d="M4.68,12.53c.63-.88-.62-1.77-1.63-1.38s-1.43,2-1.74,2.46c0,0,2.63-.08,3.37-1.08"/></svg>