<svg id="Capa_1" data-name="Capa 1" xmlns="http://www.w3.org/2000/svg" viewBox="0 0 32.4 22.68"><defs><style>.cls-1{fill:#f5a4c7;}.cls-2{fill:#fccdb5;}.cls-3{fill:#231f20;}</style></defs><title>1-2mes</title><path class="cls-1" d="M18.21,10.39s-1.1,1.09-.6,1.68a1.36,1.36,0,0,0,.93.57l4.94,1s2.28.21,2.7-.72a4.67,4.67,0,0,0-.38-3.48,4.76,4.76,0,0,0-2.43-1.35c-.85-.09-5.16,2.28-5.16,2.28"/><path class="cls-2" d="M18.87,12.35c-.69.86-1.74,1.51-1,2.66a13.13,13.13,0,0,0,1.62,2s.59.17,0,.32a2.61,2.61,0,0,0-1.35.93c0,.16.53.1.53.1s-.46.12-.25.33.35.19.35.19a.36.36,0,0,0,.16.33c.18.13.55.51.82.49a24.41,24.41,0,0,0,2.34-.87c.43-.16,1.21-.55,1.25-.79s-.3-.5-.56-.65-.83-.15-.81-.74,0-1.52-.25-1.82a5.73,5.73,0,0,0-.58-.49,10.9,10.9,0,0,0,2.45-.81c.2-.27.74-1.37.5-1.87a1.37,1.37,0,0,0-1.54-.9,6.91,6.91,0,0,0-3.68,1.59"/><path class="cls-2" d="M27.82,2.47V6.4l-2.91.19c-1.24.08-1.72.16-1.72.16l-.11.67a1.37,1.37,0,0,1,.63.62c.25.48-1.11,2.16-2.88,2.6a7.31,7.31,0,0,1-2.55.33.77.77,0,0,1-.76,0,4.26,4.26,0,0,0-.62-.32,1,1,0,0,1-.74,0,1.22,1.22,0,0,1-.33-.22l-1-.4-.34.36a.72.72,0,0,1-.26.87c-.49.42-1,1-.89,1s.07.29-.3.54a6.42,6.42,0,0,1-.59.34l-.15-.12s-.28.31-.56.26-.94-.72-.69-1.12.48-.94.69-1.23a13.45,13.45,0,0,0,.63-2.28l-.89-.79s-.67.6-1.83-.17-1.11-1.12-1-1.21,1.43-1.8,1.54-1.94a6.33,6.33,0,0,1,2.36-1c.41.09,2.16.39,2.16.39a9.6,9.6,0,0,1,3,.16c.94.34.45.21.45.21s-.16-.27,1.32-1a11.14,11.14,0,0,1,4.4-.49,24.39,24.39,0,0,0,3.95-.4"/><path class="cls-3" d="M26.13,12.21h0a1.36,1.36,0,0,1-.14.43,1.14,1.14,0,0,1-.28.38.8.8,0,0,1-.21.15.7.7,0,0,1-.24.13,2,2,0,0,1-.57.17,3.84,3.84,0,0,1-1,.06,3.33,3.33,0,0,0,.42-.61,2,2,0,0,0,.16-.45,1.71,1.71,0,0,0,0-.45,1.24,1.24,0,0,0-.14-.45.8.8,0,0,0-.13-.21,1.06,1.06,0,0,0-.17-.2,1.57,1.57,0,0,0-.47-.33,2.1,2.1,0,0,0-.67-.13,4.34,4.34,0,0,0-1.32.21,7.73,7.73,0,0,0-1.14.45,12.72,12.72,0,0,0-1.8,1.11c-.13-.07-.26-.14-.38-.22a1.81,1.81,0,0,1-.21-.18.66.66,0,0,1-.15-.19.54.54,0,0,1-.05-.11.35.35,0,0,1,0-.11.55.55,0,0,1,0-.22.81.81,0,0,1,.1-.18h.12l.15,0h.1l.08,0a1.09,1.09,0,0,0,.23-.14,3.65,3.65,0,0,0,.74.09,5.27,5.27,0,0,0,1.53-.18,5.66,5.66,0,0,0,.79-.27c.25-.11.5-.23.73-.36l.17-.11,0,0,.05,0,.08-.06.3-.21a3.52,3.52,0,0,0,.52-.49,1.79,1.79,0,0,0,.33-.53,1.09,1.09,0,0,0,.08-.52.25.25,0,0,0,0-.07,4.87,4.87,0,0,1,1,.48,2.85,2.85,0,0,1,.79.75,2.73,2.73,0,0,1,.26.43,2.82,2.82,0,0,1,.18.45c.05.16.08.31.12.47a3.4,3.4,0,0,1,.06.46,4.12,4.12,0,0,1,0,.48,1.68,1.68,0,0,1-.05.45m-4.4,3.95h0l0,.49a.83.83,0,0,0,.27.59,2.07,2.07,0,0,0,.6.37c.2.1.41.19.53.27s.11.08.11.1,0,0,0,0,0,.07,0,.1a1.14,1.14,0,0,1-.36.3,6,6,0,0,1-1.2.42l-.34.11a1,1,0,0,0-.19.08.51.51,0,0,0-.16.09,2.81,2.81,0,0,1-.51.29,1.74,1.74,0,0,1-.57.13c-.22,0-.36-.07-.33-.17l0-.08-.09,0-.26-.09-.26-.08-.09,0s0,0,0,0,.07-.06.14-.08l.49-.13H18.6a.28.28,0,0,1-.18-.12q0-.09.09-.18a.89.89,0,0,1,.26-.12,1.75,1.75,0,0,1,.33-.06,1.61,1.61,0,0,0,.37-.07,1,1,0,0,0,.33-.15,1.37,1.37,0,0,0,.26-.2,1.43,1.43,0,0,0,.19-.24l0,0,0-.06c-.36-.39-.69-.81-1-1.22a14.87,14.87,0,0,1-.94-1.23,3.49,3.49,0,0,1-.18-.31c0-.05,0-.11-.08-.17a.83.83,0,0,1,0-.15,1.23,1.23,0,0,1,0-.33,1.91,1.91,0,0,1,.06-.33,3.16,3.16,0,0,1,.29-.66,3.21,3.21,0,0,1,.19-.31h0l.14-.1a18.92,18.92,0,0,1,1.92-1.12,8.81,8.81,0,0,1,1-.48,3.68,3.68,0,0,1,1.13-.28,1.49,1.49,0,0,1,.56.07,1.18,1.18,0,0,1,.44.28,1.29,1.29,0,0,1,.16.18.76.76,0,0,1,.12.19,1.17,1.17,0,0,1,.1.41,1,1,0,0,1-.06.42,2.22,2.22,0,0,1-.2.41,3.1,3.1,0,0,1-.65.71l-.2.16-1.86.5-.23.07.17.13a1.64,1.64,0,0,1,.59.8A2.69,2.69,0,0,1,21.73,16.16Zm-3.32,2h0s0,0,.06-.07.18-.18.27-.31a.49.49,0,0,1,.18-.14h0l0,0h0a.15.15,0,0,0,.11.05.29.29,0,0,0,.18,0,.11.11,0,0,0,.05-.09.07.07,0,0,0,0-.05h0l0,0,0,0h0a.18.18,0,0,1,.1.06h0a0,0,0,0,0,0,0v0s0,0,0,0a0,0,0,0,1,0,0s0,0,0,0l.24-.14.26.25a.9.9,0,0,1-.28.34.77.77,0,0,1-.25.14,1.38,1.38,0,0,1-.32.07,1.55,1.55,0,0,0-.36.08l-.09,0-.06,0c-.07,0-.18-.11-.18-.14S18.41,18.14,18.41,18.14Zm.61-.48h0s0,0,0,0,0,0,0,0S19,17.64,19,17.66Zm-.36-7.6h0a.54.54,0,0,1,.19-.28c.1-.09.28-.2.4-.3a3.16,3.16,0,0,0,.38-.34,2.37,2.37,0,0,0,.29-.34c.38-.08.73-.18,1.08-.28s.75-.22,1.12-.34a2.73,2.73,0,0,0,1-.54l.09-.11a.44.44,0,0,1,.08.11.86.86,0,0,1,.13.29.94.94,0,0,1,0,.38,1.14,1.14,0,0,1-.16.43,2.13,2.13,0,0,1-.34.43c-.14.15-.33.28-.49.42l-.31.2-.08.05,0,0,0,0-.16.09a6.82,6.82,0,0,1-.66.34,6.4,6.4,0,0,1-.68.27,6,6,0,0,1-1.35.28c-.22,0-.43,0-.61,0a.56.56,0,0,0,.13-.45A1.22,1.22,0,0,1,18.66,10.06Zm-4.17.32h0v.14a.22.22,0,0,1,0,.11.86.86,0,0,1-.11.24,5.83,5.83,0,0,1-.75.94,2.69,2.69,0,0,0-.39.5c-.09.19-.06.38-.18.52s-.36.3-.5.24A.41.41,0,0,1,12.4,13h0a.54.54,0,0,0-.14-.35L12,12.26l.08.38a1.36,1.36,0,0,0,.11.28v0a.29.29,0,0,1-.15.26c-.16.14-.41,0-.56-.22a.7.7,0,0,1-.26-.55,1.15,1.15,0,0,1,.3-.56c.15-.19.33-.38.48-.59a3.33,3.33,0,0,0,.29-.65,12.7,12.7,0,0,0,.35-1.31c.09-.43.16-.87.23-1.31l.17-1.3a2.8,2.8,0,0,1,.2-.62,3.22,3.22,0,0,1,.33-.6,3.8,3.8,0,0,1,1.1-1l0,0a4.19,4.19,0,0,0-1.28,1,3,3,0,0,0-.42.61,3.31,3.31,0,0,0-.27.65c-.12.45-.16.87-.25,1.31,0,.17-.07.33-.1.5-.18-.2-.36-.41-.55-.61l-.07-.08-.13.06a2.18,2.18,0,0,1-1,.11,2.13,2.13,0,0,1-.75-.24l-.21-1.3.75.82L10.05,6l1.18.61c-1.16.78-.16,1.14-.16,1.14-.45-.49.41-1.3.41-1.3l-.23.15-.74-.67,1.43.64-.57-.74s-1.22-1.2-.14-1.22a1.34,1.34,0,0,1,1.36.81h.78l-1.11-.64,1.4.22-.47-.29-.28-.59,1.32.41-.68-.66.6.16a.76.76,0,0,0,.14.11,1.1,1.1,0,0,0,.8.13h0l.5-.06.52,0a9,9,0,0,1,1,0,8.83,8.83,0,0,1,1,.16l.49.13.17.06A9.9,9.9,0,0,1,17.66,5a12.74,12.74,0,0,1-1.33.41l-.21.06v.15a3,3,0,0,1,0,.52A5.24,5.24,0,0,1,16,6.7a8.48,8.48,0,0,1-.35,1c-.28.7-.63,1.38-1,2.07A2.94,2.94,0,0,0,14.49,10.38ZM9.08,7.14h0V6.88l.39.61A3.25,3.25,0,0,1,9.08,7.14Zm17.57,3.62a4.91,4.91,0,0,0-.17-.5,3,3,0,0,0-.24-.47,3.54,3.54,0,0,0-.33-.46,3.45,3.45,0,0,0-1-.75,3.21,3.21,0,0,0-.63-.26,4.61,4.61,0,0,0-.53-.15,1.33,1.33,0,0,0-.36-.57l-.14-.11a1.4,1.4,0,0,0,.16-.26A2,2,0,0,0,23.49,7V6.93q1-.06,2.07-.18c.76-.08,1.51-.18,2.26-.31v0c-.78,0-1.55,0-2.31,0s-1.54.09-2.3.17l-.27,0,.06.17A.76.76,0,0,1,23,7a1.23,1.23,0,0,1,0,.19,1,1,0,0,1-.17.35,1.66,1.66,0,0,1-.34.3,2.31,2.31,0,0,1-.47.24,9.39,9.39,0,0,1-1.1.34,7.5,7.5,0,0,1-1.15.21h-.07l0,.05a2.09,2.09,0,0,1-.34.31,4,4,0,0,1-.4.28c-.15.1-.28.17-.45.29a.86.86,0,0,0-.34.44,1.5,1.5,0,0,0,0,.46.25.25,0,0,1-.09.25.49.49,0,0,1-.15.09l0,0-.07,0,0,0h0l-.13,0s0,0-.09-.07a.81.81,0,0,1-.12-.33c0-.13,0-.26,0-.39a1.82,1.82,0,0,1,0-.4,1.23,1.23,0,0,1,0-.19,1.89,1.89,0,0,1,.06-.18,9.83,9.83,0,0,1,.87-1.52l0,0a7.49,7.49,0,0,0-.69.69,4.66,4.66,0,0,0-.56.76,1,1,0,0,0-.09.21c0,.08,0,.14-.06.21a3,3,0,0,0-.08.43,2.06,2.06,0,0,0,0,.43,1.13,1.13,0,0,0,0,.18c-.14.05-.38.09-.49,0a.64.64,0,0,1-.14-.57,2,2,0,0,1,.08-.36,2.84,2.84,0,0,1,.13-.38,15.1,15.1,0,0,1,.64-1.42c.19-.39.3-.66.3-.66a4.92,4.92,0,0,0-1.5,2,2.9,2.9,0,0,0-.12.42,1.87,1.87,0,0,0,0,.42.77.77,0,0,0,0,.15h-.2l-.1,0,0,0,0,0a1.65,1.65,0,0,1-.24-.3l0,0a20.54,20.54,0,0,0,1-2,8.22,8.22,0,0,0,.4-1.08,5,5,0,0,0,.11-.56c0-.14,0-.28,0-.42.42-.11.82-.23,1.22-.37a11.21,11.21,0,0,0,1.32-.58l.3-.17.14-.08.15-.08a3.38,3.38,0,0,1,.58-.25A6.53,6.53,0,0,1,21.81,4c.49,0,1,0,1.5-.08.26,0,.53-.06.77-.09l.74-.07c1-.09,2-.17,3-.24v0c-1,0-2,0-3,0l-.77,0c-.26,0-.49,0-.74,0-.49,0-1,0-1.52,0a7.56,7.56,0,0,0-1.55.24,3.75,3.75,0,0,0-.71.28l-.15.08-.15.09-.29.15a4.54,4.54,0,0,0-.67-.3h-.06l.25-.14c.22-.12.55-.28,1-.46.2-.08.42-.17.66-.24a3.26,3.26,0,0,1,.79-.14c.27,0,.6,0,.91-.05l1,0c1.3,0,2.6-.13,3.57-.26a8,8,0,0,0,1.15-.24,1.2,1.2,0,0,0,.3-.11l.09,0-.11,0-.31.06a10,10,0,0,1-1.16.08l-3.56.1-1,0c-.33,0-.63,0-1,.09a3.07,3.07,0,0,0-.88.22,4.53,4.53,0,0,0-.66.32,6.18,6.18,0,0,0-.85.59,1.28,1.28,0,0,0-.2.18,7.48,7.48,0,0,0-1-.24,8,8,0,0,0-1.11-.1c-.18,0-.37,0-.56,0l-.57,0h0a.71.71,0,0,1-.51-.35c-.14-.18-.17-.48-.41-.75l-.2-.2a.19.19,0,0,1,0-.08c-.33-1-2.26-1-2.94-1a3.73,3.73,0,0,0-3.75,2.4C6.25,6.27,8.76,8,9.08,8.42V7.7l.29.2a2.36,2.36,0,0,0,.51.21l0,0v0a2.5,2.5,0,0,0,1.72-.06l.67.54c0,.22-.09.45-.14.67-.11.43-.19.86-.32,1.29a5.33,5.33,0,0,1-.23.6c-.12.19-.27.38-.41.58a1.2,1.2,0,0,0-.28.68.89.89,0,0,0,.36.66,1.16,1.16,0,0,0,.37.26.83.83,0,0,0,.29.06.51.51,0,0,0,.28-.1.73.73,0,0,0,.15-.16v0l.09.05a.54.54,0,0,0,.46-.06,1.06,1.06,0,0,0,.29-.22c.16-.18.13-.38.21-.54a2.24,2.24,0,0,1,.39-.45,6.81,6.81,0,0,0,.85-.94,1.51,1.51,0,0,0,.15-.28.29.29,0,0,0,0-.16v-.13l0-.09.07.09a1.07,1.07,0,0,0,.24.12.84.84,0,0,0,.27,0,.73.73,0,0,0,.36-.11h0s0,0,0,.06a.75.75,0,0,0,.33.33.74.74,0,0,0,.52.06.9.9,0,0,0,.22-.11A.52.52,0,0,0,17,11a.27.27,0,0,0,.11.13.39.39,0,0,0,.19.12.71.71,0,0,0,.26.07.69.69,0,0,0-.11.13.61.61,0,0,0-.08.26.33.33,0,0,0,0,.14.37.37,0,0,0,0,.14.73.73,0,0,0,.15.25,2.34,2.34,0,0,0,.22.23,3.77,3.77,0,0,0,.55.37h0l-.27.31a3,3,0,0,0-.42.67,1.58,1.58,0,0,0-.11.37,1,1,0,0,0,0,.38.58.58,0,0,0,0,.19,1.27,1.27,0,0,0,.06.18c.05.13.12.24.18.36a8.91,8.91,0,0,0,1,1.28q.33.34.69.69a1,1,0,0,0-.28,0,.4.4,0,0,0-.29.21v0l0,0a2.63,2.63,0,0,1-.3.08,1.49,1.49,0,0,0-.3.09,1.35,1.35,0,0,0-.26.15.45.45,0,0,0-.17.25c0,.12.09.26.21.31a.75.75,0,0,0,.34.05.25.25,0,0,0-.12.28.5.5,0,0,0,.27.22h.12l0,0a.16.16,0,0,0,.07.16l.14.07.26.1.17.07a.27.27,0,0,0,.15.25,1,1,0,0,0,.41.11,2,2,0,0,0,.79-.12,2.91,2.91,0,0,0,.64-.3.67.67,0,0,1,.12-.06l.12,0,.32-.08a5.71,5.71,0,0,0,1.36-.45,1.44,1.44,0,0,0,.56-.45l.07-.13a.41.41,0,0,0,0-.22.59.59,0,0,0-.25-.31,4.56,4.56,0,0,0-.61-.32,1.92,1.92,0,0,1-.46-.28.44.44,0,0,1-.16-.34v-.49a2.87,2.87,0,0,0-.19-1,1.86,1.86,0,0,0-.62-.77l1.63-.62.17,0a4.9,4.9,0,0,0,.75.08,5,5,0,0,0,.77,0,2.9,2.9,0,0,0,.73-.19,1.68,1.68,0,0,0,.33-.16,1.55,1.55,0,0,0,.28-.2,1.93,1.93,0,0,0,.4-.47,1.72,1.72,0,0,0,.19-.52,2.21,2.21,0,0,0,.05-.51,3.9,3.9,0,0,0,0-.5C26.73,11.1,26.68,10.92,26.65,10.76Z"/><path class="cls-3" d="M11.48,7.72a1.59,1.59,0,0,1,.53,0l-.32-.59Z"/></svg>