<svg id="Capa_1" data-name="Capa 1" xmlns="http://www.w3.org/2000/svg" viewBox="0 0 27 23.85"><defs><style>.cls-1{fill:#f5a4c7;}.cls-2{fill:#fbc1b1;}.cls-3{fill:#fbc0ac;}.cls-4{fill:#231f20;}</style></defs><title>4-2meses</title><path class="cls-1" d="M15,17s-1.77-.58-2.17-.33-.92,1.68-.92,1.68-.73,2.36-.28,2.62a6.59,6.59,0,0,0,3.67,0c.88-.41,1-.86.83-1.23S15,17,15,17"/><path class="cls-2" d="M12.81,16.85s-1.76-.29-2.45-.36-1.64.85-1.66.87a6.74,6.74,0,0,1-1.4,1.33,4.71,4.71,0,0,1-.92.17s-.94-.29-1.09-.31-.46.47,0,.53a1.6,1.6,0,0,1,.74.3c.15.05.69.21.9.25a7.46,7.46,0,0,1,1,.46,1.12,1.12,0,0,1-.85.35c-.57,0-1.32-.24-1.46-.2s-.32.26-.13.4.28.2.22.34.88.62,1.18.74a1.73,1.73,0,0,0,.73.11c.12,0,1.6.11,1.65-.11s0-.5.2-.65a3.07,3.07,0,0,0,.76-.57c.2-.27.42-.59.42-.59a6.46,6.46,0,0,0,1.32.73c.37.07,1.71.26,2.14-.25a1.73,1.73,0,0,0,.23-1.75,1.47,1.47,0,0,0-1.09-.74,7,7,0,0,1-1.05-.18,1,1,0,0,1,.62-.87"/><path class="cls-2" d="M13.88,16.52s.54.94.64,1.06.54,1.22.7,1.59.26,1,.6,1.17a1.31,1.31,0,0,0,.83-.07L18,20.16s1,1.05,1.66,1a3.23,3.23,0,0,0,1.56-.91c.07-.08.7-1.18,1.09-1.15a7.42,7.42,0,0,0,1.69,0c.08-.1,1.14-1.31,1.14-1.69s0-1.85-.49-2.16a4.79,4.79,0,0,0-2.11-.44,4.54,4.54,0,0,0-1.12.57c-.27.15-1.9.16-2.06.31a1,1,0,0,0-.24.37,1.57,1.57,0,0,1-.18-.75c.06-.31,1.26-.52,1.3-.87s-.22-.62-.29-.81-.3-.47-.45-.45l-.48,0a3,3,0,0,0-.44.17c-.17.09-.57,0-.61.11s-.14.49-.17.51S17.11,15.77,17,16l-.3.43a7.15,7.15,0,0,0-1.64-.26,3.11,3.11,0,0,0-1.17.39"/><path class="cls-3" d="M14.25,4.47c.48.73,2,2.51,2,2.64a4.21,4.21,0,0,1-1.48,1.35c-.7.4-1.42.36-1.8,1.15s-.24,1.39-.4,1.51a.68.68,0,0,1-.7.15A7.72,7.72,0,0,1,11,10.9l-.42.22h-.2s0,.21-.52.3-.55.24-.64.41-.63.1-.86.1A3.48,3.48,0,0,1,7.16,11l-.76-.79s-.32,0-.24.06a2.13,2.13,0,0,1,.18.54,1.05,1.05,0,0,1-.4.89,9.19,9.19,0,0,1-1,.71l-.58.29S3.52,12,3.52,12,2,9.92,2,9.92l-.13-.23V7.13s2,.59,2.3.38S5.5,6.77,5.75,6.27s1-2.24,4-2.61a6.33,6.33,0,0,1,4.48.81"/><path class="cls-4" d="M6,8.81H6a.9.9,0,0,1,.42-.6L6.83,8H6.27a.4.4,0,0,1-.22-.06.29.29,0,0,1-.14-.15.83.83,0,0,1,0-.49C6,7.17,6,7.1,6,7l.12-.25a2.07,2.07,0,0,1,.31-.48,1.38,1.38,0,0,1,.48-.35.56.56,0,0,1,.23-.06A.72.72,0,0,1,7.36,6a.67.67,0,0,1,.09.21.84.84,0,0,1,0,.27,2.63,2.63,0,0,1,0,.56h0a2.6,2.6,0,0,1-.2.43L8,7.92a2.74,2.74,0,0,1,.43-.68c.32-.4.77-.19,2.16-.28s.89-.51.89-.51a6.47,6.47,0,0,1,3,.62H11.82L15,7.57l-1.28.1c.47.19.88.33,1.26.45h0a2.21,2.21,0,0,1-.39.26,2.26,2.26,0,0,1-.47.22,3.11,3.11,0,0,0-.52.25A1.3,1.3,0,0,0,13.4,9a1.12,1.12,0,0,0-.2.17,1.85,1.85,0,0,0-.32.37,1.71,1.71,0,0,0-.21.4,3.91,3.91,0,0,0-.23.82.6.6,0,0,1-.14.32l0,0,0,0s0,0,0,0a.35.35,0,0,1-.15,0,2.91,2.91,0,0,1-.82-.46l-.3-.22-.14.26a1.06,1.06,0,0,1-.24.3s0,0,0,0H10.5a1.17,1.17,0,0,1-.25-.07,1.63,1.63,0,0,1-.46-.22.58.58,0,0,1-.25-.35h0a.46.46,0,0,0,.12.44,1.77,1.77,0,0,0,.45.34l.2.08c0,.1-.16.13-.32.14a1.18,1.18,0,0,0-.58.16.55.55,0,0,0-.21.19.53.53,0,0,0-.06.1h0l0,0s0,0,0,0a1.14,1.14,0,0,1-.38,0,2.06,2.06,0,0,1-.85-.31,1.58,1.58,0,0,1-.3-.28l-.32-.32c-.21-.22-.44-.43-.63-.65a2.64,2.64,0,0,1-.44-.7A1.34,1.34,0,0,1,6,8.81m.15,3a1.32,1.32,0,0,0,.32-.35.64.64,0,0,0,.1-.22.35.35,0,0,0,0-.2.89.89,0,0,0-.06-.21c0-.06,0-.12-.07-.19a1.74,1.74,0,0,0-.11-.18l-.07-.09h0l.16,0c.15.23.31.45.47.67l.25.35a1.39,1.39,0,0,0,.34.35,2.38,2.38,0,0,0,1.12.39H9A1,1,0,0,0,9.33,12l.08-.08v0h0v0h0a.24.24,0,0,1,0-.08.57.57,0,0,1,.1-.13,1.09,1.09,0,0,1,.42-.17.94.94,0,0,0,.28-.1.13.13,0,0,0,.08-.13h0a.55.55,0,0,0,.23,0,.68.68,0,0,0,.26-.07,1.24,1.24,0,0,0,.24-.17,2.28,2.28,0,0,0,.78.4,1.08,1.08,0,0,0,.45,0,.67.67,0,0,0,.26-.09l.06,0,0,0h0l0,0h0a.8.8,0,0,0,.17-.48c0-.29,0-.55,0-.82a1.18,1.18,0,0,1,.38-.75A1.38,1.38,0,0,1,13.74,9a4.1,4.1,0,0,1,.53-.16,3.18,3.18,0,0,0,.6-.18,2,2,0,0,0,.49-.3l.09-.08c1.86.48,2.35,0,2.51-.67.19-.83-1-3.64-2-4.63a3.87,3.87,0,0,0-3.19-1c-1.11,0-1.26.31-1.26.31l.08-.47-.47.39-.61-.6.36.63a1.62,1.62,0,0,0-.81-.29,8.69,8.69,0,0,0-4.2,1c-.79.56-.88,2.27-1.11,3a1.46,1.46,0,0,1-.63.89l.1.43,0,.05a1.55,1.55,0,0,1-.6.18,3.53,3.53,0,0,1-1-.07A6,6,0,0,1,2,7.17L1.81,7.1l0,0a4.13,4.13,0,0,0,.82.34,3.32,3.32,0,0,0,1.11.17,2.09,2.09,0,0,0,.72-.14h0l.14.21.57-.06L4.78,8l.69-.07a.71.71,0,0,0,.29.28l.17.05a.88.88,0,0,0-.12.17.94.94,0,0,0-.08.43A1.82,1.82,0,0,0,6,9.59c.08.15.17.3.26.45l-.3.12a4.63,4.63,0,0,0-.74.41,1.53,1.53,0,0,0-.52.54.47.47,0,0,0-.08.29.62.62,0,0,1,.15-.27,2.08,2.08,0,0,1,.61-.43,5.62,5.62,0,0,1,.78-.27l0,0a.36.36,0,0,1,0,.1c0,.06,0,.13,0,.19v.18a1,1,0,0,1,0,.17.31.31,0,0,1,0,.17.51.51,0,0,1-.08.13A1.74,1.74,0,0,1,6,11.5l-.14.14-.31.29a3.44,3.44,0,0,1-.36.28,3.68,3.68,0,0,1-.79.41c-.23-.22-.44-.46-.65-.68s-.44-.49-.65-.73-.21-.24-.3-.37-.2-.25-.3-.38a3.37,3.37,0,0,1-.28-.38l-.27-.4h0a1.74,1.74,0,0,0,.06.45,2.45,2.45,0,0,0,.15.43A2.55,2.55,0,0,0,2.3,11c.09.13.18.27.29.4a6.51,6.51,0,0,0,.75.73,7.07,7.07,0,0,0,.92.63l.07,0,.06,0c.29-.16.59-.31.89-.45A4.5,4.5,0,0,0,6.17,11.83Z"/><path class="cls-4" d="M12.15,8.82C11.91,8.71,11,8.46,11,8.46l.67.39s-.53.29-.09.43A.36.36,0,0,0,12.11,9l.12.14.1-.08s.07-.14-.18-.26"/><path class="cls-4" d="M13.25,8a1.18,1.18,0,0,1,.68.5s.9-1.38-4-.66A18.79,18.79,0,0,1,13.25,8"/><path class="cls-4" d="M20.17,19.42h0s0,0,0,0Zm1.23.14h0l0,0h0a3.17,3.17,0,0,0-.33.26,1.23,1.23,0,0,0-.24.31c-.06.11-.09.2-.14.29a2.33,2.33,0,0,1-.17.26.92.92,0,0,1-.52.39.73.73,0,0,1-.39,0h-.11l-.08,0A.75.75,0,0,1,19.2,21a1.41,1.41,0,0,1-.31-.21l-.27-.24c-.17-.17-.34-.33-.53-.49a14.49,14.49,0,0,0-1.2-.91l0,0a4.09,4.09,0,0,0,.79,1,5.89,5.89,0,0,0-.84,0l-.49.08a1,1,0,0,1-.38,0,.17.17,0,0,1-.15-.13l-.11-.34a5.51,5.51,0,0,0-.31-.65c-.11-.22-.22-.44-.32-.66l-.28-.66c0-.11-.1-.22-.16-.33a2.3,2.3,0,0,0-.21-.33l-.22-.29-.09-.15v0l.14-.06.24-.07a4.51,4.51,0,0,1,.53-.08h.56l.57.06c.4,0,.79.12,1.19.19s.79.14,1.18.22l0,0a6.45,6.45,0,0,0-1.09-.41l-.58-.16.4-.48c.13-.17.33-.35.49-.59a1.4,1.4,0,0,0,.3-.8.76.76,0,0,1,.05-.34c.05-.11.1-.23.16-.34l0,0,0,0s0,0,0,0a.13.13,0,0,1,.09,0,.15.15,0,0,1,.16.09.45.45,0,0,1,0,.23c0,.07-.05.15,0,.14a.28.28,0,0,1-.1-.09l0,0v0s0,.08.09.14a.13.13,0,0,0,.12,0s0,0,.06-.05a.41.41,0,0,0,.07-.11.56.56,0,0,0,.07-.3c0-.08-.08-.2-.23-.26l.24,0h0v0l0,0a.22.22,0,0,1,0,.08.59.59,0,0,1,.08.16s0,.05,0,0v0h0v0s-.09.05-.14.06h-.09a.16.16,0,0,0,.06.05l.13.06a.17.17,0,0,0,0,.14.31.31,0,0,0,.25.16h.25a.85.85,0,0,1-.21-.06c-.06,0-.1-.07-.09-.11a.23.23,0,0,1,.15-.1.7.7,0,0,1,.29,0,.48.48,0,0,1,.26.12.19.19,0,0,1,.06.18.6.6,0,0,1-.19.23,1.45,1.45,0,0,1-.32.2l-.18.09,0,0h-.05l-.09,0,0,0A.34.34,0,0,0,19,15a1.22,1.22,0,0,0-.06.35,2.8,2.8,0,0,0,0,.29c0,.17,0,.32,0,.42a1.26,1.26,0,0,0-.13.26,1.2,1.2,0,0,0-.05.23,1.92,1.92,0,0,0,0,.24,1.45,1.45,0,0,0,.1.41,2,2,0,0,0,.4.6,2.72,2.72,0,0,0,.5.41.31.31,0,0,0-.08.13.47.47,0,0,0,.05.25h0l-.19,0a.32.32,0,0,0-.2.06.42.42,0,0,1,.06.12.58.58,0,0,0,.05.14.56.56,0,0,0,.19.11h0a.36.36,0,0,0-.06.2.33.33,0,0,0,0,.17h0l-.11.08a1.18,1.18,0,0,0-.21.18.47.47,0,0,0-.17.43h.05a.7.7,0,0,1,.32-.32,1.26,1.26,0,0,1,.26-.14v0l.05,0s0,0,.17,0a.24.24,0,0,0,.15-.08.1.1,0,0,0,0-.06v-.09l0-.06a.37.37,0,0,1,0-.11.09.09,0,0,1,0-.07.2.2,0,0,1,.08-.13l.08-.06.06,0,0,0h0a.2.2,0,0,0,.11-.11.2.2,0,0,0,.11,0,.17.17,0,0,0,.2-.12l.05-.45v-.11a.3.3,0,0,1,0-.1c0-.05.08-.09.15-.06l.1,0a.2.2,0,0,1,0,.08.54.54,0,0,1,0,.22h0a3,3,0,0,0-.17.41h0c0,.06,0,.12.08.14a.19.19,0,0,0,.22-.05l0,0c.11-.16.22-.31.31-.47l.08-.12,0,0a1,1,0,0,1,0,.11.53.53,0,0,1,0,.22,2.33,2.33,0,0,1-.1.5l0,0a1.34,1.34,0,0,0,.34-.46.65.65,0,0,1,0,.13,1.1,1.1,0,0,1,0,.18.08.08,0,0,1,0,.07.21.21,0,0,1,0,.06,1.12,1.12,0,0,1-.33.23A3.29,3.29,0,0,1,21.4,19.56Zm-6,1.2h0a6.16,6.16,0,0,1-1.74.34h-.48l-.23,0-.24,0L12.27,21a2.63,2.63,0,0,1-.36-.1.93.93,0,0,1-.38-.27,1.57,1.57,0,0,0,.28.1,3.57,3.57,0,0,0,.64.11,2.81,2.81,0,0,0,1.24-.17,2.8,2.8,0,0,0,.25-.14l.2-.17a1.43,1.43,0,0,0,.14-.2c0-.06.07-.13.11-.2a1.93,1.93,0,0,0,0-1.3,1.12,1.12,0,0,0-.49-.58,3.44,3.44,0,0,0-.88-.32l-.76-.14a1,1,0,0,0,.09-.15c.06-.08.1-.17.17-.25s.08-.08.11-.13a1.31,1.31,0,0,1,.12-.11,1.66,1.66,0,0,1,.65-.27l.16,0a.25.25,0,0,1,0,.07l.06.09c0,.06.09.11.13.16a4.11,4.11,0,0,0,.29.3,2.2,2.2,0,0,1,.26.27l.22.3a3.74,3.74,0,0,1,.52,1.31c.05.23.09.46.15.68s.07.23.11.34a.4.4,0,0,0,.15.21.71.71,0,0,0,.32.14h0A2.72,2.72,0,0,1,15.38,20.76Zm-4.64-1.09h0a.19.19,0,0,0-.13-.07.25.25,0,0,0-.27.11h0l-.12.35,0,.09s0,0,0,.06l-.1.12a2.89,2.89,0,0,1-.68.46h0a.15.15,0,0,0-.08.08c0,.07-.06.13-.09.19a1.21,1.21,0,0,0-.05.18l0,.18a.23.23,0,0,1,0,.11s0,.05-.18.06H8.5a8.87,8.87,0,0,0-1,0H7.14s0,0,0-.06h0A.18.18,0,0,0,7,21.39H7a.09.09,0,0,0,0-.11.27.27,0,0,0-.3-.07h0a1,1,0,0,0-.24.11h0l0,0h0l0,0,0,0c.08,0,.12-.1.08-.17A.22.22,0,0,0,6.26,21h0l-.11,0s-.08,0-.1,0A.07.07,0,0,1,6,21l-.07-.08s0,0,0,0h.18l.16,0a.15.15,0,0,0,.16-.07c0-.06,0-.11-.1-.13h0a2.72,2.72,0,0,0-.42,0H5.81c-.13,0-.21,0-.23-.12a.27.27,0,0,1,.07-.24s.08,0,.15,0l.22,0,.45.09a2.31,2.31,0,0,0,.48.07,1.17,1.17,0,0,0,.89-.28c.14-.21.23-.41.35-.61s.24-.4.37-.59A6,6,0,0,1,9,18.46a2.16,2.16,0,0,1,.5-.5c.1-.12.44-.14.73-.16s.6,0,.91,0c.61,0,1.23.08,1.83.17a2.81,2.81,0,0,1,.82.22,1.1,1.1,0,0,1,.51.49,1.62,1.62,0,0,1,.06,1.26,1.35,1.35,0,0,1-.26.38,1,1,0,0,1-.19.16,1.45,1.45,0,0,1-.25.12,2.38,2.38,0,0,1-1.16.09,3.16,3.16,0,0,1-.55-.13l-.24-.11a1.64,1.64,0,0,1-.22-.14A5.67,5.67,0,0,1,10.74,19.67Zm-3.3.12h0a2.41,2.41,0,0,0-.55-.25,5.1,5.1,0,0,1-.69-.22l-.09-.06A.6.6,0,0,0,6,19.08.49.49,0,0,0,5.72,19a.63.63,0,0,0-.14,0,.16.16,0,0,1-.09,0,.26.26,0,0,1-.13-.2s0,0,0-.05,0,0,0,0l0,0h0s0,0,.07,0,.35.13.53.18a1.34,1.34,0,0,0,.63,0l.27-.06a2.45,2.45,0,0,1,.3,0,1.65,1.65,0,0,0,.55-.24,5.34,5.34,0,0,0,.8-.64,7.81,7.81,0,0,0,.63-.68,2,2,0,0,1,.59-.5,1.74,1.74,0,0,1,.77-.13c.26,0,.55,0,.78.05l.62.07.4.05a.85.85,0,0,0-.22.31.66.66,0,0,0,0,.33.75.75,0,0,0,.05.16,8.11,8.11,0,0,0-1-.09,8,8,0,0,0-1,0,1.67,1.67,0,0,0-1,.27,2.79,2.79,0,0,0-.52.59q-.2.3-.36.6c-.11.21-.2.42-.3.62L7.79,20ZM14,16.72h0a.38.38,0,0,1-.17.05Zm4.92-3.33H19S19,13.41,18.91,13.39Zm.53-.14h0s0,0,0,0,0,0,.06.07.12.09.12.11,0,0,0,0,0,.06,0,.07h0s0,0-.05,0h-.1a.43.43,0,0,0-.06-.22,1.13,1.13,0,0,0-.1-.13l0,0S19.43,13.23,19.44,13.25Zm.56.49Zm-.57,1.31Zm.77,3.31Zm0,0Zm0,0Zm-1-1.82h0a1.17,1.17,0,0,1,.06-.2c.09-.27.36-.42.84-.47a4.16,4.16,0,0,0,.79-.17,5.92,5.92,0,0,0,.62-.23c.57.09.38.53.38.53a.54.54,0,0,0,0-.47.25.25,0,0,0-.23-.15,3.17,3.17,0,0,1,.54-.36l.7,0-.83.21.8-.09-.48.17,1.22,0-.75.31h.51l-.65.2,1.79.08a2.41,2.41,0,0,0-.74.29s.9.05,1,0-.69.25-.69.25l.74-.06-.75.2a1.41,1.41,0,0,0,1,.35,5.46,5.46,0,0,0-.92.12l.66,0s-.65,0-.89.36-.13.63-.13.63l.3-.45s0,.51-.18.58-.88.21-.88.21-.12,0,.26.07.61-.1.74.1-.27.56-.72.45-.76,0-.77-.29-.1-.13-.17-.08,0,0-.07-.08l-.07,0a.47.47,0,0,0,0-.17.57.57,0,0,0,0-.14.46.46,0,0,0-.3-.32.41.41,0,0,0-.43.11l-.06.09a.59.59,0,0,0-.08-.11.5.5,0,0,0-.15-.08.3.3,0,0,0-.23,0,.28.28,0,0,0-.15.1.42.42,0,0,0-.08.12l0,.09-.11-.1a.68.68,0,0,0-.19-.08.77.77,0,0,0-.26,0H20l-.13.06h0L19.76,18a2.55,2.55,0,0,1-.27-.35,1.82,1.82,0,0,1-.26-.58,1.5,1.5,0,0,1,0-.37A1.11,1.11,0,0,1,19.21,16.54Zm6.63-.44a3.08,3.08,0,0,0-.83-.77l-.13-.07-.21-.12A3.35,3.35,0,0,0,23,14.73a2.63,2.63,0,0,0-.86.18,5.18,5.18,0,0,0-.67.36,5.52,5.52,0,0,1-.71.2,7.07,7.07,0,0,1-.72.09,1.94,1.94,0,0,0-.78.22l-.1.08c0-.08.05-.16.08-.25l.09-.28a1.57,1.57,0,0,1,.09-.23l.11,0,.25-.1a2.05,2.05,0,0,0,.43-.26.81.81,0,0,0,.29-.39.41.41,0,0,0-.12-.36.39.39,0,0,0,.14-.3.69.69,0,0,0,0-.13.14.14,0,0,0,0-.06l0-.07a.45.45,0,0,0-.27-.19.44.44,0,0,0-.22,0,.55.55,0,0,0-.15-.08.54.54,0,0,0-.18-.06.42.42,0,0,0-.27,0,.21.21,0,0,0-.13.11l0,0a.46.46,0,0,0-.35,0,.42.42,0,0,0-.14.09.35.35,0,0,0-.12.19.47.47,0,0,0-.17,0,.65.65,0,0,0-.37.08l-.14.11,0,0,0,.05a1.51,1.51,0,0,0-.22.37.92.92,0,0,0-.09.43,1.49,1.49,0,0,1-.21.68c-.1.22-.25.43-.34.63a3.26,3.26,0,0,0-.19.54l-.54-.12a4.33,4.33,0,0,0-1.31-.1,3.65,3.65,0,0,0-.66.12l-.31.11a2.09,2.09,0,0,0-.29.16h0l-.05,0-.21,0a1,1,0,0,0-.24,0,.77.77,0,0,0-.26,0,1.29,1.29,0,0,0-.28.08,1.64,1.64,0,0,0-.22.14L12,16.6l-.61-.15a6.58,6.58,0,0,0-.82-.14,2.24,2.24,0,0,0-1.09.14,1.82,1.82,0,0,0-.77.63c-.16.23-.34.45-.53.68s-.4.46-.63.68a1.47,1.47,0,0,1-.39.24,2.13,2.13,0,0,0-.3,0l-.28.07a1.27,1.27,0,0,1-1-.25.63.63,0,0,0-.18-.06.43.43,0,0,0-.24,0l-.06,0,0,0L5,18.62a.38.38,0,0,0-.06.13.44.44,0,0,0,.21.46.8.8,0,0,0,.38.1h.08l.07.1a.73.73,0,0,0,.23.16,4.23,4.23,0,0,0,.82.19,3.74,3.74,0,0,1,.56.16l.43.12a.83.83,0,0,1-.07.13A.91.91,0,0,1,7,20.4a8.13,8.13,0,0,1-.89-.17,2,2,0,0,0-.24,0,.51.51,0,0,0-.31,0,.4.4,0,0,0-.16.36.3.3,0,0,0,.14.2l.09,0a.2.2,0,0,0,0,.1.19.19,0,0,0,0,.09.56.56,0,0,0,.1.15.68.68,0,0,0,.21.11.26.26,0,0,0,.07.14.24.24,0,0,0,.08.06l0,0h0l.08,0h0a.09.09,0,0,0,0,.07.2.2,0,0,0,.09.09l.09.05.08,0,.09,0a.31.31,0,0,0,.14.09.16.16,0,0,0,.09,0h.64c.33,0,.65,0,.95,0A2.58,2.58,0,0,0,9,22a1.09,1.09,0,0,0,.34-.07.55.55,0,0,0,.27-.22.46.46,0,0,0,.07-.22.88.88,0,0,1,0-.16.83.83,0,0,1,0-.15.42.42,0,0,1,0-.1l.34-.21a2.76,2.76,0,0,0,.37-.31,1,1,0,0,0,.14-.2l0-.11,0-.09v0a4.07,4.07,0,0,0,.55.38l.16.08v.05a.59.59,0,0,0,.32.42,2.36,2.36,0,0,0,.85.33l.26,0a2.19,2.19,0,0,0,.28,0,5.23,5.23,0,0,0,.56,0,5.68,5.68,0,0,0,1.07-.18,3.35,3.35,0,0,0,.8-.35,1.46,1.46,0,0,0,.26-.19,1.2,1.2,0,0,0,.16-.17s0,0,0,0a1.45,1.45,0,0,0,.43-.05l.46-.12c.27-.06.55-.1.84-.15l0,0a5,5,0,0,0,1.37.83,1.31,1.31,0,0,0,.21.08l.11,0,.11,0a1.15,1.15,0,0,0,.49,0,1.44,1.44,0,0,0,.82-.39,2.09,2.09,0,0,0,.24-.28c.07-.1.13-.21.18-.29a2.48,2.48,0,0,1,.47-.43,2.55,2.55,0,0,0,.43-.25l.11-.09.52.09a4,4,0,0,0,2.13-.38,2.66,2.66,0,0,0,1-.8,1.77,1.77,0,0,0,.36-1.13A2.14,2.14,0,0,0,25.84,16.1Z"/><path class="cls-4" d="M23.18,16.71a2.34,2.34,0,0,1,0,.65s.61-1.22-.66-1c0,0,.61,0,.66.34"/><path class="cls-4" d="M22.37,16.74c-.14,0-.2.17,0,.29s.32,0,.32,0a.63.63,0,0,1,0,.28.42.42,0,0,0-.14-.61.31.31,0,0,0-.39,0c.14,0,.17,0,.17,0"/><path class="cls-4" d="M21.46,15.7c-.12,0-.15.11-.11.17s.21,0,.21,0a.19.19,0,0,1-.09.18s.31-.2.16-.36a.19.19,0,0,0-.3,0c.14,0,.13.06.13.06"/><path class="cls-4" d="M21.39,16.34a2,2,0,0,0-.6-.07c-.16.05-.17.28-.17.28.16-.3.77-.21.77-.21"/><path class="cls-4" d="M20.81,17.38c-.24-.12-.62-1-.62-1,0,.31-.71.38-.31.75a1,1,0,0,0,.93.21"/><path class="cls-4" d="M19.66,17.18c.16-.07-.06-.25-.06-.25-.07.24-.1.33.06.25"/></svg>