<svg id="Capa_1" data-name="Capa 1" xmlns="http://www.w3.org/2000/svg" viewBox="0 0 31.86 18"><defs><style>.cls-1{fill:#f8992f;}.cls-2{fill:#fbc3b3;}.cls-3{fill:#231f20;}</style></defs><title>5-2meses</title><path class="cls-1" d="M17,5.69a1.89,1.89,0,0,0-1.83.2c-.68.45-.85,1.42,0,1.78a2.27,2.27,0,0,0,1.68,0l2.86.22a9.09,9.09,0,0,0,2.77-.07c.8-.29.48-.92.48-.92l-5.23-.58S17.89,6,17,5.69"/><path class="cls-2" d="M4.84,8.48c-.24,1.88,1.41,3.81,1.41,3.81a30.33,30.33,0,0,1,3.17,1c.56.3.25,1.13.93,1.74s3.47,2.34,4.65,2.37a12.17,12.17,0,0,0,3.14-.6,20.52,20.52,0,0,0,4.7,0c1.48-.34,2.56-.91,2.66-1.83A4.41,4.41,0,0,0,24,11a11.26,11.26,0,0,0-1.74-.6c-.37,0-.76,0-.76,0a11.13,11.13,0,0,1-.15-1.32c0-.44-.07-1.54-.07-1.54l.59-.67L22,6.61A4.22,4.22,0,0,0,23.16,7a7.53,7.53,0,0,0,.89-.07l.66-.41s-.57,1.06-1.06,1.21-1.65.49-1.74.78.46.44.46.44h.7s-.43.3-.13.4a10.87,10.87,0,0,0,1.71,0,.73.73,0,0,1,.23.23c.08.15,3,.3,4.09-1.49a12.79,12.79,0,0,1,1.49-2.22l.92-.73V1.44l-4.7,3.48s-.93-.33-1.4-.07A19.77,19.77,0,0,1,23.58,6a3.81,3.81,0,0,1-1.49.33,1.52,1.52,0,0,1-.66-.2s-.49-.07-.66.1a.39.39,0,0,0-.3-.39.75.75,0,0,0-.59.24s-.14-.29-.38-.23a.66.66,0,0,0-.38.28s-.29-.23-.51-.18-.44.53-.42.8,0,.33,0,.33-.83.23-.8.51.24.76,1.12.91c0,0,.19.93-.13,1.27s0,.94,0,.94l-1.61.15a9.9,9.9,0,0,1-2.09.64c-.37,0-.49,0-.41-.17s1.08-.94,1-1.14-.6-.23-.64-.44a.63.63,0,0,0-.45-.55c-.31-.09.15-.25-.1-.36s-.61-.16-.63-.37,0-.49-.21-.61a4.38,4.38,0,0,0-.77-.2A3.38,3.38,0,0,1,11,6.24,2.75,2.75,0,0,0,8.9,5.12c-.54,0-3.76,1.07-4.06,3.36"/><path class="cls-3" d="M17.78,6c0-.06.07-.12.16-.13s.2,0,.21.11l0,.1c0,.07-.05.14-.16.15a.19.19,0,0,1-.21-.11l0-.1V6Z"/><path class="cls-3" d="M18.5,5.63h0c0-.06.07-.12.16-.13s.2,0,.21.11v.06c0,.07-.05.13-.15.14s-.2,0-.22-.1V5.63M18.29,5h0a.14.14,0,0,1,.11-.12.21.21,0,0,1,.24.07,1.37,1.37,0,0,1,.15.32c0,.07,0,.14-.14.15a.21.21,0,0,1-.23-.09.81.81,0,0,0-.12-.28A.11.11,0,0,1,18.29,5Zm-.52.14h0v0A.52.52,0,0,1,18,4.77a.26.26,0,0,1,.26,0,.11.11,0,0,1,0,.18s-.08,0-.11.2-.12.11-.22.1S17.77,5.22,17.77,5.16Zm0,.32c0-.07.09-.13.19-.13s.18.05.18.12a2.66,2.66,0,0,0,0,.3c0,.08-.07.14-.17.14s-.19,0-.2-.11S17.73,5.59,17.73,5.48Z"/><path class="cls-3" d="M18.53,5.79c0-.06.07-.12.16-.13h.1c.1,0,.17.08.15.15l0,.1c0,.06-.1.11-.19.11s-.17-.06-.18-.12V5.8h0"/><path class="cls-3" d="M19.73,5.54h0a2.8,2.8,0,0,0,0-.29c0-.07.08-.13.18-.14a.19.19,0,0,1,.2.13c0,.1,0,.22,0,.31a.18.18,0,0,1-.2.12c-.1,0-.17-.06-.17-.13m-.27-.86h0a.11.11,0,0,1,0-.07.24.24,0,0,1,.26,0,.53.53,0,0,1,.29.33c0,.07,0,.14-.13.15A.21.21,0,0,1,19.68,5a.3.3,0,0,0-.14-.18A.14.14,0,0,1,19.46,4.68ZM18.87,5h0a.08.08,0,0,1,0,0,.94.94,0,0,1,.23-.3.23.23,0,0,1,.26,0,.1.1,0,0,1,0,.17,1,1,0,0,0-.18.24.2.2,0,0,1-.24.07C18.92,5.11,18.87,5.06,18.87,5Zm-.24.59v0l.11-.3A.21.21,0,0,1,19,5.18c.1,0,.15.09.13.15L19,5.62a.19.19,0,0,1-.22.1A.15.15,0,0,1,18.63,5.6Z"/><path class="cls-3" d="M19.67,5.89v0l0-.1c0-.07.11-.12.21-.11H20c.1,0,.15.09.12.16l0,.09a.19.19,0,0,1-.22.09c-.08,0-.14-.06-.14-.12"/><path class="cls-3" d="M20.82,5.73h0v0a.43.43,0,0,0,0,0c0-.07.09-.12.19-.12s.21.06.18.14,0,.05,0,.07-.11.12-.21.11-.16-.07-.16-.13m0-.69h0c0-.06.05-.11.14-.13s.2,0,.22.1a1,1,0,0,1,.06.34c0,.06-.08.13-.18.13s-.19-.05-.19-.12a1,1,0,0,0-.05-.29Zm-.61,0h0a.09.09,0,0,1,0-.06.72.72,0,0,1,.48-.27c.11,0,.19.05.2.12s-.08.13-.18.14-.07,0-.19.14a.23.23,0,0,1-.25,0A.11.11,0,0,1,20.18,5Zm-.38.58s0,0,0,0a3.4,3.4,0,0,1,.18-.3.21.21,0,0,1,.24-.07c.1,0,.14.1.1.17a2.88,2.88,0,0,0-.16.29.24.24,0,0,1-.24.08C19.85,5.7,19.8,5.65,19.8,5.59Z"/><path class="cls-3" d="M20.79,5.93h0l0-.1c0-.07.1-.12.2-.11h.12c.09,0,.12.11.08.17L21.15,6a.23.23,0,0,1-.22.08c-.08,0-.14-.07-.14-.13"/><path class="cls-3" d="M21.81,5.29h0a0,0,0,0,0,0,0,.17.17,0,0,1,.2-.1h.05a.36.36,0,0,1,.34.36l-.18,0-.19,0c0-.11-.05-.11-.07-.12s-.16-.07-.16-.13m0,.88h0a.09.09,0,0,1,0,0A1.73,1.73,0,0,0,22,5.85a.22.22,0,0,1,.23-.08c.1,0,.16.1.13.16a1.58,1.58,0,0,1-.17.29.21.21,0,0,1-.24.07A.14.14,0,0,1,21.79,6.17ZM21,5.65a.11.11,0,0,1,0-.07,1.57,1.57,0,0,1,.37-.28.23.23,0,0,1,.26,0,.1.1,0,0,1,0,.17,1.54,1.54,0,0,0-.29.23.24.24,0,0,1-.26,0A.14.14,0,0,1,21,5.65Z"/><path class="cls-3" d="M21.65,6.37a.09.09,0,0,1,0-.06l.06-.09A.22.22,0,0,1,22,6.16c.1,0,.14.1.09.17L22,6.42a.24.24,0,0,1-.26.06.14.14,0,0,1-.1-.11"/><path class="cls-3" d="M11.74,8s-.22-.44-.54,0a.84.84,0,0,0,0,.94l.08-.4s.25.23.33,0A.61.61,0,0,0,11.48,8a.17.17,0,0,1,.26,0"/><path class="cls-3" d="M10.14,8.76s-.3-1.57.86-1.89c0,0-1.39-.52-.86,1.89"/><path class="cls-3" d="M22.14,8.62h0m-.8-.72h0l0-.11a.75.75,0,0,0,.18-.07.94.94,0,0,0,.25-.18,1.11,1.11,0,0,0,.3-.48s0-.11,0-.17a1.66,1.66,0,0,0,.27.13l.14.05.15,0,.09,0h0l0,0c.05.11,0,.19-.07.34s-.1.16-.14.24l0,.06h0l0,0-.27,0h-.86Zm-1.62,2.39h0c-.52.05-1,.12-1.47.19A3.22,3.22,0,0,0,19,9.14a1.36,1.36,0,0,0,0-.21v0h0v0h0v0a.17.17,0,0,0,0-.11.79.79,0,0,0-.48-.36c-.18-.06-.35-.09-.51-.14A.68.68,0,0,1,17.62,8l0-.07,0-.09a.44.44,0,0,1,.05-.15h0l.09-.09a1.1,1.1,0,0,1,.21-.14,2,2,0,0,1,.87-.2,1.24,1.24,0,0,1,.4.07h0a2,2,0,0,1-.25.12c-.13.06-.29.11-.43.16h-.05c-.11,0-.18.12-.16.21s.16.18.32.17h.21l.22,0a2.47,2.47,0,0,1,.41.09.77.77,0,0,1,.31.21.71.71,0,0,1,.1.14c0,.06,0,.11.07.17h0a0,0,0,0,0,0,0,.05.05,0,0,0,0,0,.55.55,0,0,0,0-.38.71.71,0,0,0-.3-.35,1.22,1.22,0,0,0-.28-.14,1.05,1.05,0,0,0,.37-.25.28.28,0,0,0,.06-.2l0,0a1.09,1.09,0,0,0,.39.21.69.69,0,0,0,.21,0l.11,0h.09l0,0a.64.64,0,0,1,0,.09.66.66,0,0,0,.08.13l.12.08.18,0h.06c0,.22-.08.73-.1,1.24a4.38,4.38,0,0,0,0,.5,1.43,1.43,0,0,0,.1.43,1.82,1.82,0,0,0,.14.28A13.84,13.84,0,0,0,19.72,10.29Zm4.12.84h0A3.53,3.53,0,0,1,25,12.5a3.51,3.51,0,0,1,.25,1.55,3.84,3.84,0,0,1-.4,1.48,3.15,3.15,0,0,1-.4.64,2.06,2.06,0,0,1-.7.28,11.53,11.53,0,0,1-1.8.27c-1.16.1-2.15.13-2.84.15h-.63l.08-.05A5.26,5.26,0,0,0,20.17,15a12.68,12.68,0,0,0,1.08-2v0a2.31,2.31,0,0,0,.28-1.1.58.58,0,0,0-.07-.28.55.55,0,0,0-.24-.24,1,1,0,0,0-.33-.16.44.44,0,0,0-.23,0l0,0a.52.52,0,0,0-.22-.07.5.5,0,0,0-.21,0,.42.42,0,0,0-.14,0l0,0a.63.63,0,0,0-.22-.07h-.11l0-.05a.63.63,0,0,0-.29-.26l-.06,0-.06,0h0l.59-.07a13.89,13.89,0,0,1,2.07-.12A3.43,3.43,0,0,1,23.84,11.13Zm-8.28,6.08h0a5.76,5.76,0,0,1-1.37-.29,6.05,6.05,0,0,1-.64-.24l-.62-.3A14.5,14.5,0,0,1,10.66,15a1.22,1.22,0,0,1-.53-.84,1.38,1.38,0,0,0-.66-1.09,2.66,2.66,0,0,0-.55-.23,2.8,2.8,0,0,0-.63-.55l1.38.45-.47-.57h.23a2.63,2.63,0,0,0,.44-.09,1.63,1.63,0,0,0,.32-.13,1.29,1.29,0,0,0,.2-.15,1.22,1.22,0,0,1,.12-.15l-.06,0-.14.13-.2.1A1.26,1.26,0,0,1,9.8,12a3,3,0,0,1-1.66-.28,1.06,1.06,0,0,1-.3-.22l0-.05a.05.05,0,0,0,0,0h0v-.1h0v0a.07.07,0,0,1,0-.05.14.14,0,0,1,0-.07A.35.35,0,0,1,8,11a2.34,2.34,0,0,1,.54-.13l.23,0v0l-.11,0a9.74,9.74,0,0,0,1.7-.09L9,10.39H10a2.41,2.41,0,0,1-1.38-.58,4.37,4.37,0,0,0-1-.85s.84.13,1.11.51A1.76,1.76,0,0,0,7.66,8.09l1.11.46L7.22,7.47l1.42.43-.45-.5.58.27L7.66,6.37l1.78.77-.8-.9a7.62,7.62,0,0,1,1.23.52L9.54,6l.94.36L9.34,5.5a4.51,4.51,0,0,1,.91.43,2.29,2.29,0,0,1,.79.82,5.9,5.9,0,0,0,.73,1A1,1,0,0,0,12.2,8a2.77,2.77,0,0,0,.46,0,2.46,2.46,0,0,1,.63,0s0,0,.05.09v.11l0,.12,0,.12a.33.33,0,0,0,0,.19.25.25,0,0,0,.14.16l.14.05.1,0,.11,0L14,9h0a.24.24,0,0,1,0,.08,5.27,5.27,0,0,1-.22.49c0,.07,0,.14.09.18a.3.3,0,0,0,.32,0,1.06,1.06,0,0,1,.23-.19s0,0,.05,0h0s0,0,0,0,0,.05,0,.09a.44.44,0,0,0-.06.18c0,.13.17.2.23.22a.76.76,0,0,1,.28.12.16.16,0,0,1,0,.18,1.2,1.2,0,0,1-.13.25,2.35,2.35,0,0,1-.19.25,5.41,5.41,0,0,1-1,.92,2.23,2.23,0,0,1-.65.34,7.1,7.1,0,0,1-.8.17s0,0,0,0l0,0a5.75,5.75,0,0,0,.83-.14,2.31,2.31,0,0,0,.73-.32c.17-.1.33-.22.49-.33l.15.07a1.34,1.34,0,0,0,.85,0c.34-.11.68-.23,1.13-.34s1-.22,1.52-.31l.76-.11a.51.51,0,0,0-.22.27c0,.09-.06.18-.09.25a.26.26,0,0,1-.09.14,1.1,1.1,0,0,1-.46.21l-.18,0-.08,0-.14.06a.34.34,0,0,0-.17.31,1,1,0,0,0,.23.51,1.37,1.37,0,0,0,.46.35,1.34,1.34,0,0,1-.29.48,1.21,1.21,0,0,1-.24.21l-.14.1-.15.08a2.35,2.35,0,0,0-.32.23,2.23,2.23,0,0,0-.27.26l-.19.26h0l-.41-.2a6.25,6.25,0,0,0-.89-.32,7.42,7.42,0,0,0-1-.2,6.5,6.5,0,0,0-1-.06l0,0s0,0,0,0l.46.11.44.13c.28.08.56.19.83.29l.77.35.36.2a2.63,2.63,0,0,1,.33.2h0a.48.48,0,0,0,.18.06.33.33,0,0,0,.37-.18.85.85,0,0,1,.08-.24,1.28,1.28,0,0,1,.15-.25,1.3,1.3,0,0,1,.19-.22l.11-.1.14-.11.14-.12a.86.86,0,0,0,.14-.13,1.62,1.62,0,0,0,.2-.28,1.42,1.42,0,0,0,.2-.61h0s0-.05-.05-.07c-.39-.13-.65-.47-.57-.75a.17.17,0,0,1,.11-.14h.27a1.41,1.41,0,0,0,.77-.27.57.57,0,0,0,.21-.3,1.09,1.09,0,0,1,.06-.23c0-.07.06-.11.05-.11h.11c.12,0,.22.15.28.3a1.53,1.53,0,0,1,.11.48h0s0,0,0,0a1.14,1.14,0,0,0,.13-.51.78.78,0,0,0,0-.14h0a.55.55,0,0,1,.18.19l.14.24a.8.8,0,0,0,.08.13.34.34,0,0,0,.09-.13.37.37,0,0,0,0-.32l-.05,0h0l.28.12.41.23a.27.27,0,0,0,0-.14.47.47,0,0,0-.19-.22.37.37,0,0,1,.18,0,1.05,1.05,0,0,1,.29.17.44.44,0,0,1,.18.21.57.57,0,0,1,0,.26,2.3,2.3,0,0,1-.37,1v0a12.6,12.6,0,0,1-1.19,1.93,7.88,7.88,0,0,1-.69.92,4.51,4.51,0,0,1-.93.79A4.21,4.21,0,0,1,15.56,17.21ZM14,8.94Zm.39.5Zm2.06-1.72h-.12a1.45,1.45,0,0,0,0-1.89h.13A2.6,2.6,0,0,1,17.1,6a1.25,1.25,0,0,1,.77.51.74.74,0,0,1,.09.3.73.73,0,0,1-.09.29.41.41,0,0,1-.13.17l-.06,0-.08.08a1.86,1.86,0,0,1-.49.23A3.64,3.64,0,0,1,16.48,7.72Zm-.38,0h0a1.94,1.94,0,0,1-.4,0,1.29,1.29,0,0,1-.7-.34.68.68,0,0,1-.19-.6,1,1,0,0,1,.34-.53,1.41,1.41,0,0,1,.62-.32,1.76,1.76,0,0,1,.4-.07l.14,1.89H16.1ZM18.17,7h0l-.2.09h0a1.77,1.77,0,0,0,0-.31l0,.06A1.56,1.56,0,0,0,18.17,7Zm.29-.65h0a.2.2,0,0,1,.06-.09l0,0,.05,0a.34.34,0,0,1,.2-.07.67.67,0,0,1,.2,0l0,.07a1.05,1.05,0,0,0-.05.45c0,.1,0,.17,0,.24h-.2a2.4,2.4,0,0,0-.48.09l.05-.16A2.44,2.44,0,0,1,18.46,6.34Zm.81,1h0c.05,0,0,0,0,0S19.27,7.35,19.27,7.34Zm-.09-.69h0a2.69,2.69,0,0,1,.19-.38.49.49,0,0,1,.13-.15c.06,0,0,0,.12,0a.39.39,0,0,1,.09.07.77.77,0,0,1,.1.18,1.36,1.36,0,0,1,.08.38.88.88,0,0,1,0,.29.7.7,0,0,1,0,.11A.49.49,0,0,0,20,7.06a.88.88,0,0,0,.21-.3.84.84,0,0,0,.06-.46A.67.67,0,0,0,20.12,6l0,0h.07a.37.37,0,0,1,.31,0,.47.47,0,0,1,.11.13c0,.06.05.13.08.19a1.41,1.41,0,0,1,.08.44.68.68,0,0,1-.09.4,1,1,0,0,1-.14.15c-.05,0-.06,0-.13,0A1.36,1.36,0,0,1,20,7.3l-.11,0a.44.44,0,0,0-.12-.18L19.57,7l-.15-.05-.33-.06A1.65,1.65,0,0,0,19.18,6.65ZM21,7.31h0a.73.73,0,0,0,.2-.54,1,1,0,0,0-.16-.52l0-.06h.12a.42.42,0,0,1,.29.12.39.39,0,0,1,.1.14.61.61,0,0,1,.07.17.68.68,0,0,1,0,.19,1.77,1.77,0,0,1,0,.2,1.56,1.56,0,0,1-.19.39l-.13.15-.14.09H21s-.1,0-.12-.08l-.09-.07A.7.7,0,0,0,21,7.31Zm1.4-.71ZM24.23,7h0l.19-.12-.06.06c-.14.13-.33.33-.57.53a1.67,1.67,0,0,1-.48.21l-.06,0a.77.77,0,0,0,.09-.28.37.37,0,0,0,0-.18A2.54,2.54,0,0,0,24.23,7Zm7.15-1.83s0,0,0,0h-.05a20.73,20.73,0,0,0-1.77,1.15l0,0v0c-.2.3-.38.6-.55.91l-.25.47c-.08.15-.15.32-.23.44a5.34,5.34,0,0,1-.8.76c-.16.12-.33.23-.51.34a3.33,3.33,0,0,1-.57.27l-.16,0h-.17a2,2,0,0,1-.35,0,2.36,2.36,0,0,1-.67-.06A.51.51,0,0,1,25,9.4s0,0,0,0,0-.08,0-.06.13-.13.33-.17A5.56,5.56,0,0,1,26,9a3.35,3.35,0,0,0,.77-.13,1.37,1.37,0,0,0,.56-.4,2.13,2.13,0,0,0,.3-.46,0,0,0,0,0,0,0h0c-.16.12-.31.25-.48.36a1.64,1.64,0,0,1-.51.26,4.48,4.48,0,0,1-.57,0l.13-.13a1.5,1.5,0,0,0,.21-.24,1,1,0,0,0,.24-.55,3.71,3.71,0,0,1-.52.41l-.27.18-.31.19A5.73,5.73,0,0,1,24,9.07l-.39,0-.19,0h-.16c-.1,0-.14,0-.16,0s0-.07,0-.11l.54-.11a2.53,2.53,0,0,0,.69-.3c.16-.11.31-.24.44-.35a5.07,5.07,0,0,0,.74-.78l-1,.62L24,8.37a2.38,2.38,0,0,1-.57.19,4.84,4.84,0,0,1-.69.08h-.35l-.16,0h0a1,1,0,0,1,.17-.19,1.63,1.63,0,0,1,.22-.17,1.07,1.07,0,0,1,.26-.12,6.42,6.42,0,0,0,.66-.24,1.62,1.62,0,0,0,.53-.34,3.06,3.06,0,0,0,.4-.63l.08-.18a2.1,2.1,0,0,0,.33-.26h0l.27.12a2.2,2.2,0,0,0,.62.12,2.17,2.17,0,0,0,1.1-.29s0,0,0,0,0,0,0,0a4.36,4.36,0,0,1-.52.11,2.89,2.89,0,0,1-.51,0,1.49,1.49,0,0,1-.45-.14l-.17-.11a.94.94,0,0,1-.14-.12l-.06,0a.31.31,0,0,0-.32,0l0,0a2.77,2.77,0,0,1-.75.45,2.25,2.25,0,0,1-.42.13,1.9,1.9,0,0,1-.41,0,1.43,1.43,0,0,1-.21,0l-.1,0-.11,0a.67.67,0,0,1-.17-.08l.14,0a4.93,4.93,0,0,1,.49-.13,3.86,3.86,0,0,0,.55-.17,1.7,1.7,0,0,0,.48-.29c.26-.21.44-.42.66-.63a1.54,1.54,0,0,1,.83-.4,2.65,2.65,0,0,1,1.05,0h.09a14.52,14.52,0,0,0,2.4-1.48,16.67,16.67,0,0,0,2-1.76,0,0,0,0,0,0,0h-.05c-.82.49-1.56,1-2.3,1.54A12.43,12.43,0,0,0,27.72,4a11.91,11.91,0,0,1-1,.78,4,4,0,0,0-1.09,0,2.15,2.15,0,0,0-1,.4c-.25.18-.51.38-.76.55a2.08,2.08,0,0,1-.87.3l-.55.13-.3.1a.58.58,0,0,0-.19.14l-.06-.06a.66.66,0,0,0-.23-.17.71.71,0,0,0-.49,0,.27.27,0,0,0-.11.06A1,1,0,0,0,20.88,6a.69.69,0,0,0-.26-.17.63.63,0,0,0-.33,0,.9.9,0,0,0-.19.08l-.05,0a.64.64,0,0,0-.36-.17h-.13l-.16,0a.6.6,0,0,0-.24.12.4.4,0,0,0-.11.12.56.56,0,0,0-.19-.11.87.87,0,0,0-.5,0l-.11,0-.11.07a.52.52,0,0,0-.13.17.44.44,0,0,0-.05.15,1.23,1.23,0,0,0-.57-.72,2.13,2.13,0,0,0-.86-.26,2.58,2.58,0,0,0-1,.12,1.89,1.89,0,0,0-.81.5.92.92,0,0,0-.22.74,1.7,1.7,0,0,0,1.09,1.15,3,3,0,0,0,.48.13l.23,0h.25a2,2,0,0,0,.83-.23l0,.09a1.09,1.09,0,0,0,.06.11,2.71,2.71,0,0,0,.84.51c.13.07.19.16.18.21a.17.17,0,0,1,0,.08v0h0v0a1.22,1.22,0,0,1,0,.17c-.08.45-.24.92-.3,1.41l-.32.05a12.8,12.8,0,0,0-1.55.4,7.84,7.84,0,0,0-1.09.44,1.11,1.11,0,0,1-.69.08l-.14-.05a4.13,4.13,0,0,0,.58-.52,2.75,2.75,0,0,0,.22-.26,1.19,1.19,0,0,0,.18-.29.34.34,0,0,0-.05-.38,1,1,0,0,0-.4-.21h0l.05-.09a.36.36,0,0,0,0-.19.3.3,0,0,0-.17-.22l-.09-.05-.09,0h-.14v0s0-.1,0-.15a.23.23,0,0,0,0-.14.31.31,0,0,0-.16-.14,4.25,4.25,0,0,0-.44-.09h-.07l-.06,0s0,0,0,0l0-.13,0-.15s0-.09,0-.15a.52.52,0,0,0-.06-.19.6.6,0,0,0-.23-.18,2.73,2.73,0,0,0-.88-.11c-.28,0-.38,0-.49-.13a7.55,7.55,0,0,1-.68-.9,3,3,0,0,0-.37-.49,2.66,2.66,0,0,0-.55-.44,5.47,5.47,0,0,0-.73-.35A5.93,5.93,0,0,1,11,5.61,7.24,7.24,0,0,0,7.53,4.45,6.32,6.32,0,0,0,2.28,6.82a4.14,4.14,0,0,0,0,4.6c1,1.25,3,1.57,6.29,1.76a1.81,1.81,0,0,1,.51.2,1,1,0,0,1,.45.84,1.57,1.57,0,0,0,.64,1.08,13.58,13.58,0,0,0,2.39,1.42,7.58,7.58,0,0,0,2.94.9A4.76,4.76,0,0,0,18.3,17l.77.06c.34,0,.76,0,1.25.06s1,0,1.64,0a10.14,10.14,0,0,0,2-.22,2.34,2.34,0,0,0,1-.46,2.77,2.77,0,0,0,.45-.74,4,4,0,0,0,.33-1.61,3.19,3.19,0,0,0-.47-1.63,4.36,4.36,0,0,0-.57-.73A3.85,3.85,0,0,0,24,11a4.35,4.35,0,0,0-2.06-.73l-.37,0a2.33,2.33,0,0,0,.11-.32,1.46,1.46,0,0,0,0-.43,4.91,4.91,0,0,0-.1-.5c-.08-.41-.18-.82-.24-1.08a2.52,2.52,0,0,0,.5.17l.13,0,0,0a1.11,1.11,0,0,0-.26.27.44.44,0,0,0-.08.2c0,.08,0,.24.19.3l.12.05H22l.14,0,.24,0a3.38,3.38,0,0,0,.45,0h.09a.14.14,0,0,0-.05.11c0,.13.19.22.32.24l.22,0h.21a2.58,2.58,0,0,0,.48,0l.49-.06,0,.07a.4.4,0,0,0,.17.17,1.16,1.16,0,0,0,.43.12,4.73,4.73,0,0,0,.76,0,6.23,6.23,0,0,0,.74-.09c.24-.08.44-.17.65-.25s.41-.19.61-.3a3.22,3.22,0,0,0,1-.76,3.58,3.58,0,0,0,.32-.47c.09-.15.19-.31.27-.46.17-.3.32-.61.47-.92A15.42,15.42,0,0,0,31.38,5.12Z"/></svg>