<svg id="Capa_1" data-name="Capa 1" xmlns="http://www.w3.org/2000/svg" viewBox="0 0 31.13 27.12"><defs><style>.cls-1{fill:#fccdb5;}.cls-2{fill:#231f20;}.cls-3{fill:#f5a4c7;}</style></defs><title>1-3meses</title><path class="cls-1" d="M0,12.66l5.48.44a12.72,12.72,0,0,1,3,.37c.37.27,2.72,1.13,3,1.3s.65.61.59.89a.69.69,0,0,0,0,.43s.66.33.37.8l1.1,1.28c.33.37.73.76.73.76a1.45,1.45,0,0,1,.32-.42l.27-.24.14,0s-.26-.22-.18-.38.18-.14.13-.28-.19-.31,0-.35.75-.06.89-.35a3.31,3.31,0,0,1,.5-1,3.82,3.82,0,0,1,2.44-.6,7.81,7.81,0,0,1,3.48.76,2.2,2.2,0,0,1,1.13,2.63c-.29,1.36-1.24,1.42-1.86,1.56a15.55,15.55,0,0,0-2.4.43,3,3,0,0,0-1,1.22,2.72,2.72,0,0,1-1.27,1.74,12.54,12.54,0,0,1-5.55,2.59c-2.25.28-4.2.36-5.08-.43a1.09,1.09,0,0,1-.19-1.58s-.53-.48-.34-.94.65-1.68.65-1.68S4.17,21.26,4,20.92a1.46,1.46,0,0,0-.33-.43s-.61.12-.8-.13A3.3,3.3,0,0,1,2.5,19.1c0-.28-.26-.58-.16-.67s.28-.26.28-.26-.34-.36-.15-.45A.63.63,0,0,1,3,17.59c.32,0,.63-.11.79-.08s.28.07.31.14l.27.48A3.12,3.12,0,0,1,5.22,18c.39,0,.51,0,.52.13s.16,1,.16,1a13.69,13.69,0,0,1,1.82.52,1.39,1.39,0,0,1,.31.25s1.89-.08,2.33,0a2.68,2.68,0,0,1,1.2.52.45.45,0,0,1,.15.35s.78-.48.8-.48S12.3,20,12.3,20a3.74,3.74,0,0,1-1.6-1.37,2.29,2.29,0,0,1-1.21.31A31.13,31.13,0,0,1,6,17.36,7.82,7.82,0,0,0,3,17c-1.11,0-2.85-.09-2.85-.09Z"/><path class="cls-2" d="M19.48,19.75h0a2.67,2.67,0,0,1-1.27.09c-.17,0-.28-.1-.28-.17a.19.19,0,0,1,0-.11h0a.22.22,0,0,0-.05.12.14.14,0,0,0,.07.13.45.45,0,0,0,.22.1,2.9,2.9,0,0,0,.91.06,2.89,2.89,0,0,0-.82.54l.83-.41a1.54,1.54,0,0,0-.6.46c-.12.23-.08.28-.08.28l.75-.55s-.39.36-.4.39h.05a2.75,2.75,0,0,0-.68.87c-.14.32-.21.63-.33.94a3,3,0,0,1-.69.8,13.15,13.15,0,0,1-1.91,1.38,11.65,11.65,0,0,1-2.28,1.07,12.78,12.78,0,0,1-2.66.51,9.88,9.88,0,0,1-2.72-.09,3.61,3.61,0,0,1-1.16-.4A.79.79,0,0,1,6,25,2.81,2.81,0,0,1,7,23.35,10.22,10.22,0,0,1,9,22a.15.15,0,0,0,.09-.17.26.26,0,0,0-.29-.13h0a3.39,3.39,0,0,1-.47,0l-.51,0a6.48,6.48,0,0,1-1-.23l-.47-.17-.45-.19a1.84,1.84,0,0,0-.59-.2,2.46,2.46,0,0,0-.62,0,1,1,0,0,1-.37-.06.33.33,0,0,1-.2-.2A1.39,1.39,0,0,1,4,20v-.76c0-.1,0-.2,0-.3H4a.34.34,0,0,0,.2,0c.14,0,.21-.14.15-.23h0a.49.49,0,0,1,0-.11h.19c.14,0,.22-.12.18-.22h0a.11.11,0,0,1,0-.06s0,0,0-.05v0h0l.5,0a.3.3,0,0,1,.06-.11.23.23,0,0,1,.08.09,1.51,1.51,0,0,1,.2.63,5.51,5.51,0,0,1,0,.71.33.33,0,0,0,.18.28A2,2,0,0,0,6,19.9a5.52,5.52,0,0,0,.55.07c.35,0,.7.07,1.06.08H8.71l1,0a6.5,6.5,0,0,1,1,.05,1.21,1.21,0,0,1,.39.11l.06,0,.07.07.11.15a3.67,3.67,0,0,1,.34.65A3.54,3.54,0,0,1,12,22.48a2.83,2.83,0,0,1-.38,1.37,3.69,3.69,0,0,1-1.08,1.2l0,0a4.17,4.17,0,0,0,1.18-1.19,3,3,0,0,0,.47-1.4A3.59,3.59,0,0,0,12,21a3.29,3.29,0,0,0-.17-.39l.65-.3.24.24a7.38,7.38,0,0,0,1.07.79c.2.1.38.21.57.29l.53.24c.35.14.64.25.85.31l.33.1,0,0a2.67,2.67,0,0,0-.26-.17l-.7-.43-1-.59a8.85,8.85,0,0,1-1.1-.69,2,2,0,0,1-.42-.4,3.59,3.59,0,0,1-.27-.47c-.15-.31-.3-.61-.41-.86l-.23-.51a.91.91,0,0,0,.34-.29.41.41,0,0,0,0-.09.23.23,0,0,0,0-.11.3.3,0,0,0-.09-.27,1.61,1.61,0,0,0-.37-.25c-.24-.13-.46-.22-.63-.33l-.27-.17.17,0a3.73,3.73,0,0,1,.87.24,2.43,2.43,0,0,1,.9.59,1.81,1.81,0,0,1,.18.21l.2.24a6.2,6.2,0,0,0,.43.48,6.69,6.69,0,0,0,2.1,1.5c.34.16.64.27.85.35l.33.12,0,0-.32-.14L16,20H16l.21,0c.3,0,.59-.06.59-.06h0l-.59-.07-.21,0-.19,0-.11,0a9.58,9.58,0,0,1-1-.65l-.36-.33a.33.33,0,0,1,.13-.25l.28-.22.06-.05h0l.19.06a.11.11,0,0,0,.08,0,0,0,0,0,0,0-.07h0c-.14-.11-.29-.26-.27-.37s0-.05,0-.07A.19.19,0,0,0,15,17.8a.14.14,0,0,0,.05-.08.44.44,0,0,0-.05-.26c-.07-.19,0-.17.25-.2A1.1,1.1,0,0,0,16,17a.85.85,0,0,0,.22-.5,1.33,1.33,0,0,1,.1-.34,9.08,9.08,0,0,0,1.54-.29c-.26.11-1,.41-1.1.42l1.11-.1-.82.35.74-.09-.6.22A6.63,6.63,0,0,0,19,16.5L17.7,17l.86-.09-.65.44.55-.19-.44.43.68-.22-.79.41h.87l-.87.25,1.24-.08s-.81.12-.94.38a2,2,0,0,1-.5.55l.56-.09-.78.28A2.19,2.19,0,0,0,18.61,19a1.62,1.62,0,0,1,.58-.07h0a.62.62,0,0,1,.16,0,.8.8,0,0,1,.32.16,1.14,1.14,0,0,1,.14.16c0,.06.07.12.06.17s-.16.23-.37.3M6,23.86H6c0-.12,0-.26,0-.41a4,4,0,0,1,0-.49A8.46,8.46,0,0,1,6.23,22l.08-.3.28.09a6.51,6.51,0,0,0,1.1.24l.44,0a9.33,9.33,0,0,0-1.45,1.06,5.68,5.68,0,0,0-.67.73ZM3.83,18.43h0a.27.27,0,0,0,0,.12l-.12,0a.28.28,0,0,0-.18.14s0,.07,0,.08v.09a2.11,2.11,0,0,1,0,.36l0,.75c0,.13,0,.27,0,.42H3.23a.46.46,0,0,1-.3-.17s0-.05,0-.07v0h0l0-.05a1,1,0,0,1,0-.16,1.77,1.77,0,0,1,0-.33c0-.12,0-.24,0-.38a.55.55,0,0,0,0-.24c-.06-.11-.11-.13-.13-.18s-.21-.44.05-.57l.1,0-.07-.05c-.12-.09-.23-.24-.18-.34a.18.18,0,0,1,.07-.05l.06,0h.12v0s0,0,0,0l.26,0,.18,0s0,0,0,0l0,0a.38.38,0,0,0,.15,0,.31.31,0,0,0,.18-.06l.08-.05h.15s.05,0,.09.09l.1.17.14.25v0a0,0,0,0,0,0,0h0l-.13,0A.34.34,0,0,0,3.83,18.43Zm-.42-1Zm1.27.75ZM6,19.5H6c0-.1,0-.22,0-.34l.13,0a7.35,7.35,0,0,1,.82.25,2.86,2.86,0,0,1,.63.3c-.32,0-.64,0-1-.08S5.93,19.55,6,19.5Zm5.44-.09h0a2.63,2.63,0,0,1-.35-.41,1.69,1.69,0,0,1-.22-.39.91.91,0,0,0,.28-.11.61.61,0,0,0,.2-.2.09.09,0,0,0,0-.05.8.8,0,0,0,.24,0c0,.14.08.31.14.5s.18.57.31.89a3.45,3.45,0,0,0,.14.34A3,3,0,0,1,11.47,19.41ZM22.61,16A6.21,6.21,0,0,0,20,15.21a8.87,8.87,0,0,0-2.86.1,2.9,2.9,0,0,0-.66.25A1.23,1.23,0,0,0,16,16c-.2.32-.09.68-.3.91a.82.82,0,0,1-.5.19,1,1,0,0,0-.4.09c-.13.13,0,.23,0,.31a.42.42,0,0,1,0,.2s0,0,0,.07a.2.2,0,0,0-.1.14.39.39,0,0,0,.17.31h-.05l-.05,0-.06.06-.26.23a.46.46,0,0,0-.13.22c-.16-.15-.3-.32-.44-.48s-.24-.33-.35-.49l-.17-.25a2,2,0,0,0-.74-.66l-.15-.06a.4.4,0,0,0,.07-.26.87.87,0,0,0-.3-.44L12.12,16h0a1.84,1.84,0,0,0,0-.34,1.33,1.33,0,0,0-.06-.49.62.62,0,0,0-.19-.31,3.27,3.27,0,0,0-.36-.25,11.16,11.16,0,0,0-1.86-.9c-.36-.13-.74-.28-1.14-.39a4.31,4.31,0,0,0-1.33-.23A16.21,16.21,0,0,1,4.67,13c-.41,0-.8-.11-1.17-.14l-1-.07c-1.31-.07-2.19,0-2.19,0v0s.85.16,2.15.29l1.06.08c.37,0,.77,0,1.18,0s.83,0,1.26,0,.86.08,1.3.11a2.85,2.85,0,0,1,.58.12l.56.19L9.41,14l1,.43c.31.14.61.27.87.4a3.27,3.27,0,0,1,.33.18.76.76,0,0,1,.19.21,2,2,0,0,1,.17.43A2.32,2.32,0,0,1,12,16l-.06,0a3.29,3.29,0,0,0-.44-.16c-.31-.09-.66-.16-1-.23s-.6-.1-.89-.17l0-.06A2.12,2.12,0,0,1,9.38,15a.36.36,0,0,1-.07-.27s0-.06,0-.08l0,0H9.35a.25.25,0,0,0-.12.07.56.56,0,0,0-.11.32v.17c-.27-.09-.57-.19-.88-.27l-.69-.13-.36-.2-.28-.2a.6.6,0,0,1-.11-.1.93.93,0,0,0,0,.13,2.38,2.38,0,0,0,.14.27l0,0H6.93c-.45,0-.89,0-1.29-.07s-.83-.08-1.22-.12c-.79-.11-1.54-.2-2.17-.3L.13,13.93l.55.15c.36.09.87.23,1.49.36s1.36.28,2.16.41c.4.06.81.12,1.25.16s.88,0,1.29.08a11.74,11.74,0,0,1,1.21.18c.39.09.74.22,1.15.33a11.56,11.56,0,0,0,1.18.17c.36.05.7.1,1,.16a2.75,2.75,0,0,1,.4.12l.16.07.13.1c.18.14.32.25.35.37a.43.43,0,0,1,0,.23,2.32,2.32,0,0,0-.44-.16,2.49,2.49,0,0,0-.57-.09,2.34,2.34,0,0,0-.45,0l-.29,0-.18-.13a1.39,1.39,0,0,0,.33.51,3.6,3.6,0,0,0,.55.42,1.54,1.54,0,0,1,.25.2l0,0,0,0,0,.06a.53.53,0,0,1-.19.18s-.09,0-.06,0h-.07l-.07,0c-.24-.07-.48-.17-.68-.25l-.7-.26a3.4,3.4,0,0,0,.52.42,3.41,3.41,0,0,0,.65.37.84.84,0,0,0,.14,0l.09,0h.07a1.25,1.25,0,0,1-.27.08,1.35,1.35,0,0,1-.35,0s-.09,0-.08,0l-.11,0a.47.47,0,0,1-.16-.05c-.26-.09-.54-.22-.76-.3a4,4,0,0,0-.4-.14,1,1,0,0,0,.19.28,1.75,1.75,0,0,0,.74.47,1.42,1.42,0,0,0,.28.07,1.76,1.76,0,0,1-.3.1l-.15,0H9.78l-.29,0a9.32,9.32,0,0,1-1.22-.43c-.8-.34-1.5-.77-2.35-1.13A3.16,3.16,0,0,0,5.19,17c-.28,0-.5,0-.75,0L3,16.89c-1,0-1.91,0-2.87,0L1.56,17l1.42.1,1.43.09c.23,0,.5,0,.69.06a3.09,3.09,0,0,1,.56.19c.39.16.77.36,1.15.56s.79.39,1.2.56A8.67,8.67,0,0,0,9.37,19a1.8,1.8,0,0,0,.42,0H10l.2,0a1.67,1.67,0,0,0,.47-.2,3.15,3.15,0,0,0,.22.29,2.35,2.35,0,0,0,.43.4,3.45,3.45,0,0,0,.93.5.75.75,0,0,0,.07.12,1.18,1.18,0,0,0,.17.22,2.6,2.6,0,0,0-.65.29l-.16-.28a1.36,1.36,0,0,0-.12-.17l-.07-.08L11.37,20a1.62,1.62,0,0,0-.55-.18,7.94,7.94,0,0,0-1.08-.07H8.22A1.25,1.25,0,0,0,8,19.56a3.07,3.07,0,0,0-.87-.28c-.32-.07-.65-.11-.9-.14H6c0-.12,0-.24,0-.35A1.62,1.62,0,0,0,5.8,18a.66.66,0,0,0-.18-.19.91.91,0,0,0-.17-.09.5.5,0,0,0-.29,0,.53.53,0,0,0-.34.17.53.53,0,0,0-.25,0l-.1,0a.22.22,0,0,0-.11.05.05.05,0,0,0,0,0V17.9a1.55,1.55,0,0,0,0-.21.38.38,0,0,0,0-.12.33.33,0,0,0-.15-.13.67.67,0,0,0-.19-.06l-.18,0a.5.5,0,0,0-.3,0l-.08.06a.54.54,0,0,0-.18,0,1.12,1.12,0,0,0-.24.08l-.07,0a.58.58,0,0,0-.24,0l-.09,0-.06,0a.24.24,0,0,0-.1.13.26.26,0,0,0,0,.24.76.76,0,0,0,.11.14.54.54,0,0,0-.18.11.41.41,0,0,0-.14.21.56.56,0,0,0,0,.44c0,.07.09.15.09.16a.61.61,0,0,1,0,.14c0,.12,0,.24,0,.38a1.06,1.06,0,0,0,.07.42.75.75,0,0,0,.1.2l0,0h0v0l0,0,.1.09a.86.86,0,0,0,.63.19.84.84,0,0,0,.29,0,1.72,1.72,0,0,0,.08.28.85.85,0,0,0,.43.4,1.53,1.53,0,0,0,.69.1,2.8,2.8,0,0,1,.49,0,1.33,1.33,0,0,1,.39.14l.49.2.16.06-.17.3a5.38,5.38,0,0,0-.4.92,3.23,3.23,0,0,0-.14.51,1.3,1.3,0,0,0,.08.46.88.88,0,0,0,.21.3,1.89,1.89,0,0,0-.26.79,1,1,0,0,0,.6.95,3.88,3.88,0,0,0,1.32.44,10.4,10.4,0,0,0,2.84,0,13.34,13.34,0,0,0,2.7-.56,11.72,11.72,0,0,0,2.31-1.1,14,14,0,0,0,1.95-1.39,3.78,3.78,0,0,0,.41-.39,1.38,1.38,0,0,0,.33-.44,8.4,8.4,0,0,1,.37-.92,2.51,2.51,0,0,1,.67-.8,2.73,2.73,0,0,1,1.2-.26,11.67,11.67,0,0,0,1.41-.2,3,3,0,0,0,1.24-.56,2.34,2.34,0,0,0,.63-.92,3.09,3.09,0,0,0,.18-1A2.21,2.21,0,0,0,22.61,16Z"/><path class="cls-2" d="M16.69,17.2s-.4.12-.35.25-.39-.1-.35.12.7.36.7.36a1.2,1.2,0,0,0-.17-.41c-.12-.19.17-.32.17-.32"/><polygon class="cls-2" points="15.69 0.64 16.08 0.64 16.08 2.78 17.05 2.78 17.05 3.01 15.69 3.01 15.69 0.64"/><path class="cls-2" d="M18.32,2.13h0c-.2,0-.68,0-.68.4a.29.29,0,0,0,.3.3.35.35,0,0,0,.37-.26.31.31,0,0,0,0-.09Zm.06.88,0-.18h0a.62.62,0,0,1-.49.21.53.53,0,0,1-.59-.49c0-.42.49-.61,1-.61V1.88c0-.23-.08-.38-.39-.38a1,1,0,0,0-.41.08l-.09-.18A1.29,1.29,0,0,1,18,1.28c.5,0,.71.23.71.61v.73a1.63,1.63,0,0,0,0,.39Z"/><path class="cls-2" d="M21.28,3a1.37,1.37,0,0,1-.41.06A.81.81,0,0,1,20,2.17a.89.89,0,0,1,1-.88,1.13,1.13,0,0,1,.35.05l-.08.22a.82.82,0,0,0-.28-.05.59.59,0,0,0-.58.66.57.57,0,0,0,.59.64.87.87,0,0,0,.28-.05Z"/><path class="cls-2" d="M22.55,2.13h0c-.21,0-.68,0-.68.4a.28.28,0,0,0,.3.3.37.37,0,0,0,.37-.26.31.31,0,0,0,0-.09ZM22.6,3l0-.18h0a.61.61,0,0,1-.49.21.53.53,0,0,1-.59-.49c0-.42.5-.61,1.06-.61V1.88c0-.23-.08-.38-.4-.38a1.07,1.07,0,0,0-.41.08l-.08-.18a1.29,1.29,0,0,1,.58-.12c.49,0,.71.23.71.61v.73A2.42,2.42,0,0,0,23,3Z"/><path class="cls-2" d="M23.88,2.41h0a.28.28,0,0,0,0,.1.39.39,0,0,0,.37.3c.32,0,.43-.29.43-.65s-.12-.65-.43-.65a.4.4,0,0,0-.37.31.45.45,0,0,0,0,.12Zm-.42.6c0-.1,0-.29,0-.41v-2h.4v.93h0a.61.61,0,0,1,.52-.23c.39,0,.68.31.68.86s-.37.9-.76.9a.54.54,0,0,1-.49-.25h0l0,.22Z"/><path class="cls-2" d="M26.59,2h0c0-.34-.18-.49-.37-.49s-.39.26-.41.49Zm-.78.2c0,.52.3.64.59.64a1.16,1.16,0,0,0,.41-.07l.06.2a1.77,1.77,0,0,1-.55.08.8.8,0,0,1-.9-.85.82.82,0,0,1,.84-.9A.68.68,0,0,1,27,2v.15Z"/><path class="cls-2" d="M27.16,2.84l.78-1,.2-.26h-.89V1.31h1.33v.18l-.78,1-.2.25h1V3H27.16Z"/><path class="cls-2" d="M29.88,2.13h0c-.21,0-.69,0-.69.4a.29.29,0,0,0,.31.3.37.37,0,0,0,.37-.26.31.31,0,0,0,0-.09Zm.05.88,0-.18h0A.62.62,0,0,1,29.4,3a.53.53,0,0,1-.59-.49c0-.42.5-.61,1.06-.61V1.88c0-.23-.09-.38-.4-.38a1.07,1.07,0,0,0-.41.08L29,1.4a1.36,1.36,0,0,1,.58-.12c.5,0,.71.23.71.61v.73a1.63,1.63,0,0,0,0,.39Z"/><path class="cls-2" d="M11.75,5.29h0c-.21,0-.68,0-.68.39a.28.28,0,0,0,.3.3.36.36,0,0,0,.37-.25.34.34,0,0,0,0-.1Zm.05.88,0-.18h0a.62.62,0,0,1-.49.2c-.33,0-.59-.19-.59-.48s.5-.61,1.06-.62V5c0-.23-.09-.39-.4-.39a1.07,1.07,0,0,0-.41.09l-.08-.19a1.48,1.48,0,0,1,.58-.11c.49,0,.71.22.71.61v.73a2.42,2.42,0,0,0,0,.39Z"/><path class="cls-2" d="M13.9,6.12a1.08,1.08,0,0,1-.41.07.81.81,0,0,1-.91-.86.89.89,0,0,1,1-.89,1.1,1.1,0,0,1,.35.06l-.08.22a.77.77,0,0,0-.28,0,.59.59,0,0,0-.58.66.57.57,0,0,0,.59.63.92.92,0,0,0,.29,0Z"/><path class="cls-2" d="M14.49,5.32h0c0,.28.07.66.43.66s.4-.4.4-.66-.06-.66-.41-.66-.42.4-.42.66m1.23,0a.79.79,0,0,1-.82.87.77.77,0,0,1-.81-.87.8.8,0,0,1,.83-.88A.78.78,0,0,1,15.72,5.32Z"/><path class="cls-2" d="M16.16,4.91c0-.2,0-.31,0-.44h.34l0,.21h0a.65.65,0,0,1,.55-.24.54.54,0,0,1,.52.26h0a.67.67,0,0,1,.25-.19.71.71,0,0,1,.34-.07.54.54,0,0,1,.59.6V6.17h-.39V5.1c0-.22,0-.43-.34-.43a.38.38,0,0,0-.37.25.76.76,0,0,0,0,.15v1.1h-.39V5.05c0-.19-.05-.38-.35-.38a.36.36,0,0,0-.36.27.77.77,0,0,0,0,.15V6.17h-.39Z"/><path class="cls-2" d="M19.72,5.54h0a.32.32,0,0,0,0,.14A.37.37,0,0,0,20.1,6c.33,0,.43-.31.43-.65s-.12-.65-.43-.65a.41.41,0,0,0-.37.31.53.53,0,0,0,0,.13ZM19.33,5c0-.26,0-.41,0-.53h.35l0,.22h0a.61.61,0,0,1,.52-.25c.44,0,.72.32.72.87a.77.77,0,0,1-.77.88A.51.51,0,0,1,19.73,6h0v.84h-.39Z"/><path class="cls-2" d="M22.3,5.29h0c-.21,0-.68,0-.68.39a.28.28,0,0,0,.3.3.36.36,0,0,0,.37-.25.34.34,0,0,0,0-.1Zm.05.88,0-.18h0a.62.62,0,0,1-.49.2c-.33,0-.59-.19-.59-.48s.5-.61,1.06-.62V5c0-.23-.09-.39-.4-.39a1.07,1.07,0,0,0-.41.09l-.08-.19A1.48,1.48,0,0,1,22,4.44c.49,0,.71.22.71.61v.73a2.42,2.42,0,0,0,0,.39Z"/><path class="cls-2" d="M23.24,4.91h0c0-.2,0-.31,0-.44h.34l0,.2h0a.71.71,0,0,1,.57-.23.54.54,0,0,1,.6.59V6.17h-.4V5.07c0-.2-.05-.4-.34-.4a.37.37,0,0,0-.37.27.78.78,0,0,0,0,.16V6.17h-.39Zm.21-.71a.3.3,0,0,1,.32-.33.66.66,0,0,1,.25.06.51.51,0,0,0,.2.06c.08,0,.12,0,.13-.13h.21a.29.29,0,0,1-.32.32A.83.83,0,0,1,24,4.12a.58.58,0,0,0-.19-.06c-.08,0-.12.05-.13.14Z"/><path class="cls-2" d="M26.23,5.29h0c-.2,0-.68,0-.68.39a.28.28,0,0,0,.3.3.34.34,0,0,0,.37-.25.34.34,0,0,0,0-.1Zm.06.88,0-.18h0a.62.62,0,0,1-.49.2c-.34,0-.59-.19-.59-.48s.49-.61,1-.62V5c0-.23-.08-.39-.39-.39a1,1,0,0,0-.41.09l-.09-.19a1.48,1.48,0,0,1,.58-.11c.5,0,.71.22.71.61v.73a1.63,1.63,0,0,0,0,.39Z"/><path class="cls-2" d="M28.9,5.29h0c-.21,0-.68,0-.68.39a.28.28,0,0,0,.3.3.36.36,0,0,0,.37-.25.34.34,0,0,0,0-.1Zm.05.88,0-.18h0a.6.6,0,0,1-.49.2c-.33,0-.59-.19-.59-.48s.5-.61,1.06-.62V5c0-.23-.08-.39-.4-.39a1.07,1.07,0,0,0-.41.09L28,4.55a1.48,1.48,0,0,1,.58-.11c.49,0,.71.22.71.61v.73a2.42,2.42,0,0,0,0,.39Z"/><rect class="cls-2" x="29.84" y="3.74" width="0.39" height="2.43"/><path class="cls-2" d="M6.09,8.06c0-.2,0-.3,0-.44h.34l0,.22h0A.69.69,0,0,1,7,7.6a.54.54,0,0,1,.52.26h0a.66.66,0,0,1,.24-.2.93.93,0,0,1,.34-.06.54.54,0,0,1,.6.6V9.32H8.32V8.26c0-.22-.05-.44-.35-.44a.38.38,0,0,0-.36.26.68.68,0,0,0,0,.15V9.32H7.2V8.21c0-.19,0-.39-.34-.39a.38.38,0,0,0-.37.28.66.66,0,0,0,0,.15V9.32H6.09Z"/><path class="cls-2" d="M9.55,8.47h0c0,.29.07.67.43.67s.4-.4.4-.67-.06-.66-.41-.66-.42.4-.42.66m1.23,0a.8.8,0,0,1-.82.88.78.78,0,0,1-.81-.87A.8.8,0,0,1,10,7.6.78.78,0,0,1,10.78,8.47Z"/><path class="cls-2" d="M11.38,7.62l.32,1c0,.12.07.27.1.41h0c0-.14.07-.28.1-.41l.31-1h.39L12,9.32h-.35L11,7.62Z"/><path class="cls-2" d="M13,9.32h0V7.62h.39v1.7Zm.42-2.13c0,.1-.09.17-.24.17s-.22-.07-.22-.17S13,7,13.15,7,13.38,7.08,13.38,7.19Z"/><path class="cls-2" d="M13.9,8.06c0-.2,0-.3,0-.44h.34l0,.22h0a.69.69,0,0,1,.56-.24.53.53,0,0,1,.52.26h0a.76.76,0,0,1,.24-.2,1,1,0,0,1,.35-.06.53.53,0,0,1,.59.6V9.32h-.39V8.26c0-.22,0-.44-.35-.44a.38.38,0,0,0-.36.26.71.71,0,0,0,0,.15V9.32H15V8.21c0-.19,0-.39-.35-.39a.36.36,0,0,0-.36.28.61.61,0,0,0,0,.15V9.32H13.9Z"/><path class="cls-2" d="M17.07,9.32h0V7.62h.4v1.7Zm.43-2.13c0,.1-.09.17-.24.17S17,7.29,17,7.19s.1-.18.23-.18S17.5,7.08,17.5,7.19Z"/><path class="cls-2" d="M19.07,8.3h0c0-.34-.18-.49-.37-.49s-.39.26-.4.49Zm-.78.2c0,.52.3.63.59.63a1.12,1.12,0,0,0,.41-.07l.06.2a1.49,1.49,0,0,1-.54.09.8.8,0,0,1-.9-.86.8.8,0,0,1,.83-.89.68.68,0,0,1,.71.75.66.66,0,0,1,0,.15Z"/><path class="cls-2" d="M19.87,8.06c0-.2,0-.3,0-.44h.34l0,.21h0a.67.67,0,0,1,.56-.23.53.53,0,0,1,.6.58V9.32H21V8.23c0-.2-.06-.41-.34-.41a.38.38,0,0,0-.38.28.71.71,0,0,0,0,.15V9.32h-.4Z"/><path class="cls-2" d="M22.39,7.18v.44h.48v.21h-.48v1c0,.22.12.28.26.28h.16l0,.21a1.72,1.72,0,0,1-.29,0,.6.6,0,0,1-.39-.11c-.1-.07-.15-.19-.15-.43v-1h-.3V7.62H22V7.25Z"/><path class="cls-2" d="M23.46,8.47h0c0,.29.08.67.43.67s.41-.4.41-.67-.07-.66-.42-.66-.42.4-.42.66m1.24,0a.8.8,0,0,1-.83.88.78.78,0,0,1-.8-.87.8.8,0,0,1,.83-.88A.78.78,0,0,1,24.7,8.47Z"/><path class="cls-2" d="M27,8.27h0V8.16a.39.39,0,0,0-.37-.33c-.33,0-.44.31-.44.65s.13.65.42.65A.38.38,0,0,0,27,8.84a.23.23,0,0,0,0-.12Zm.39-1.38v2c0,.11,0,.31,0,.4h-.34l0-.21h0a.6.6,0,0,1-.52.24c-.42,0-.72-.31-.72-.87a.78.78,0,0,1,.75-.88.53.53,0,0,1,.45.2h0V6.89Z"/><path class="cls-2" d="M29,8.3h0c0-.34-.18-.49-.37-.49s-.39.26-.41.49Zm-.78.2c0,.52.3.63.59.63a1.12,1.12,0,0,0,.41-.07l.06.2a1.49,1.49,0,0,1-.54.09.81.81,0,0,1-.91-.86.81.81,0,0,1,.84-.89.67.67,0,0,1,.7.75V8.5Z"/><rect class="cls-2" x="29.84" y="6.89" width="0.39" height="2.43"/><path class="cls-2" d="M15.64,10.33v.45h.47V11h-.47v1c0,.22.11.28.26.28h.16v.2a1.07,1.07,0,0,1-.29,0,.69.69,0,0,1-.39-.1c-.1-.08-.15-.19-.15-.43V11h-.3v-.21h.3v-.37Z"/><path class="cls-2" d="M16.46,11.22c0-.14,0-.31,0-.44h.36l0,.27h0a.6.6,0,0,1,.52-.3h.08V11h-.08a.48.48,0,0,0-.48.36.66.66,0,0,0,0,.15v.94h-.39Z"/><path class="cls-2" d="M17.94,11.63h0c0,.28.08.66.43.66s.41-.4.41-.66-.07-.66-.42-.66-.42.4-.42.66m1.24,0a.8.8,0,0,1-.83.88.78.78,0,0,1-.8-.88.8.8,0,0,1,.83-.88A.78.78,0,0,1,19.18,11.63Z"/><path class="cls-2" d="M19.62,11.22c0-.2,0-.3,0-.44h.34L20,11h0a.71.71,0,0,1,.57-.24.54.54,0,0,1,.6.59v1.14h-.4V11.39c0-.2,0-.41-.34-.41a.38.38,0,0,0-.37.28.61.61,0,0,0,0,.15v1.07h-.39Z"/><path class="cls-2" d="M22.9,12.44a1.37,1.37,0,0,1-.41.06.82.82,0,0,1-.91-.86.89.89,0,0,1,1-.88,1.08,1.08,0,0,1,.35.05l-.08.22a.83.83,0,0,0-.28,0,.58.58,0,0,0-.57.65.56.56,0,0,0,.58.64.93.93,0,0,0,.29,0Z"/><path class="cls-2" d="M23.49,11.63h0c0,.28.07.66.43.66s.4-.4.4-.66-.06-.66-.41-.66-.42.4-.42.66m1.23,0a.79.79,0,0,1-.82.88.77.77,0,0,1-.8-.88.8.8,0,0,1,.83-.88A.78.78,0,0,1,24.72,11.63Z"/><path class="cls-2" d="M24.8,12.92a3.56,3.56,0,0,0,.3-.81l.44,0a3.56,3.56,0,0,1-.47.83Z"/><path class="cls-2" d="M26.79,11.22c0-.2,0-.3,0-.44h.34l0,.21h0a.71.71,0,0,1,.57-.24.54.54,0,0,1,.6.59v1.14h-.4V11.39c0-.2-.05-.41-.34-.41a.38.38,0,0,0-.37.28.61.61,0,0,0,0,.15v1.07h-.39Z"/><path class="cls-2" d="M29.14,11.63h0c0,.28.08.66.43.66s.41-.4.41-.66-.07-.66-.42-.66-.42.4-.42.66m1.24,0a.8.8,0,0,1-.83.88.78.78,0,0,1-.8-.88.8.8,0,0,1,.83-.88A.78.78,0,0,1,30.38,11.63Z"/><path class="cls-2" d="M26.75,15.6a1.37,1.37,0,0,1-.41.06.81.81,0,0,1-.91-.86.89.89,0,0,1,1-.89,1.1,1.1,0,0,1,.35.06l-.08.22a.82.82,0,0,0-.28,0,.59.59,0,0,0-.58.66.56.56,0,0,0,.59.63.82.82,0,0,0,.28,0Z"/><path class="cls-2" d="M28,14.76h0c-.21,0-.68,0-.68.39a.29.29,0,0,0,.3.31A.37.37,0,0,0,28,15.2a.34.34,0,0,0,0-.1Zm.06.88,0-.18h0a.61.61,0,0,1-.49.21.53.53,0,0,1-.59-.49c0-.42.5-.61,1.06-.62v-.05c0-.23-.08-.38-.4-.38a1.07,1.07,0,0,0-.41.08L27.12,14a1.48,1.48,0,0,1,.58-.11c.49,0,.71.23.71.61v.73a2.42,2.42,0,0,0,0,.39Z"/><path class="cls-2" d="M30,14.61h0c0-.34-.18-.49-.37-.49s-.39.26-.41.49Zm-.78.2c0,.52.3.64.59.64a1.06,1.06,0,0,0,.4-.07l.07.2a1.77,1.77,0,0,1-.55.08.8.8,0,0,1-.9-.85.82.82,0,0,1,.84-.9.68.68,0,0,1,.7.75v.15Z"/><path class="cls-3" d="M10.51,25.05A8,8,0,0,1,6.8,26s-.47.47,1.86.61,2.43-.76,1.85-1.59"/><path class="cls-2" d="M10.53,25.05h0a1.06,1.06,0,0,1,.37,1.08,1.08,1.08,0,0,1-.21.28,1.77,1.77,0,0,1-.36.2,2.84,2.84,0,0,1-.82.16,7.79,7.79,0,0,1-1.61-.1,4.69,4.69,0,0,1-.76-.19,1.38,1.38,0,0,1-.34-.18.2.2,0,0,1,0-.3h0a6.1,6.1,0,0,0,1-.13l.94-.23A12.1,12.1,0,0,0,10.5,25h0Zm0,0a5,5,0,0,1-1.67.77,9.21,9.21,0,0,1-2,.22l0,0c-.06.06,0,.14.05.2a.91.91,0,0,0,.3.13,4.52,4.52,0,0,0,.75.1,9.67,9.67,0,0,0,1.52,0c.48,0,1-.15,1.12-.44A1.11,1.11,0,0,0,10.5,25.08Z"/></svg>