<svg id="Capa_1" data-name="Capa 1" xmlns="http://www.w3.org/2000/svg" viewBox="0 0 28.67 25.59"><defs><style>.cls-1{fill:#f5a4c7;}.cls-2{fill:#fccdb5;}.cls-3{fill:#231f20;}</style></defs><title>2-3meses</title><path class="cls-1" d="M8.64,20.69a1.89,1.89,0,0,1,.47-2.21,3,3,0,0,1,3.34-.58,10.21,10.21,0,0,0,1.79.88v4.41a5.26,5.26,0,0,1-2.45,0c-1.13-.33-3.15-2.5-3.15-2.5"/><path class="cls-2" d="M8.92,19.26s-.27.08-.29,0a2.07,2.07,0,0,1,0-.28l-1.35-.8s.08-.71-.27-.88-.57,0-.89,0-1.47.16-2.43.16-.93-.17-1.3,0-.72.18-.7.41.62.38.87.4,1,0,1,0a17.22,17.22,0,0,1,1.54,1.05c.24.26.29.31.29.35a1.84,1.84,0,0,1,.14.38c0,.14-.14.08-.18,0s-.67-.32-.75-.24-1.2,1.58-1.27,1.65-1,1.13-.7,1.34a3,3,0,0,0,.73.37c.25.1.47.39.74.46s.26.22.39,0a1.44,1.44,0,0,1,.41-.55,3.26,3.26,0,0,1,.3-.19,1.49,1.49,0,0,1,.63.24,4.34,4.34,0,0,0,2.72,1.4,2.58,2.58,0,0,0,2.55-1.18,3.64,3.64,0,0,0,.7-1.77c0-.26.06-1.52-.31-1.85a2.54,2.54,0,0,0-1.1-.64,5.2,5.2,0,0,0-1.22.1l-.24.1"/><path class="cls-2" d="M13.48,18.81s-.52,0-.64,1-.5,3.37,1,3.57A8.6,8.6,0,0,0,17,23.09l1-.52,3.59.15,1.21.13s.92.54,1.08.42.09-.21.09-.21a1.27,1.27,0,0,1,.38-.17c.3-.09.16-.24.16-.24a.51.51,0,0,0,.37-.19c.12-.18.06-.2-.1-.3s-.51-.27-.51-.27.92-.18.35-.35-1.16-.37-1.16-.37a7.61,7.61,0,0,1-2-.11c-.85-.2-1.54-.38-1.8-.42s-.22-.1-.22-.1.39-.19.42-.19l.34-.1s2-.21,2.44-.18a11.51,11.51,0,0,0,2.42.3,5.85,5.85,0,0,0,.85-.21h.35s.34-.14.36-.43a.49.49,0,0,0-.33-.54c-.18,0-.3-.22-.53-.28a3.11,3.11,0,0,0-.75-.07L23.73,19l.12-.22s.29,0,.37-.1-.07-.29.46-.32.72.22.77,0-.35-.69-.06-.9,1.84-1.33,2-2,.26-1.21-.11-1.55,0-.38-.89-.38-7.32,1.11-6.88,2.14-.5,1.15-.5,1.15.09.77-.31,1-.58.55-3,.78l-2.21.2"/><path class="cls-3" d="M27.26,15.08h0a2.74,2.74,0,0,1-.37.72,6.82,6.82,0,0,1-.55.68c-.11.12-.21.22-.33.33a2.52,2.52,0,0,1-.35.3c-.13.1-.26.18-.41.3a.33.33,0,0,0-.12.27.64.64,0,0,0,.1.22.56.56,0,0,1,.15.33c0,.05,0,.07-.09.08a.59.59,0,0,1-.23,0,2.16,2.16,0,0,0-.31,0,1.13,1.13,0,0,0-.32,0,.54.54,0,0,0-.25.16.15.15,0,0,0,0,.12s0,0,0,.06,0,0,0,0a.52.52,0,0,1-.21,0l-.28,0h-.59s0,0,0,0,0,0,0,0a5.65,5.65,0,0,0,.59,0h.14a.4.4,0,0,1-.07.16.21.21,0,0,1-.18.09c-.1,0-.21,0-.42-.05H23a.31.31,0,0,0-.09,0h0l0,0,0,.09a.19.19,0,0,1-.09.09,1,1,0,0,1-.43.07,1.79,1.79,0,0,1-1-.36l-.26-.15-.08,0s-.14,0-.13,0a.36.36,0,0,0-.13.1,1.48,1.48,0,0,0-.27.4,2.21,2.21,0,0,0-.13.39.56.56,0,0,1-.2.27,1.8,1.8,0,0,1-.37.28,1,1,0,0,0,.11-.28,2.64,2.64,0,0,0,.05-.84h0a2.54,2.54,0,0,1-.16.82,1,1,0,0,1-.22.37.76.76,0,0,1-.19.12l-.1,0a.14.14,0,0,1-.09,0h0c-.06,0-.13,0-.14.07s0,.09.1.1h0l1,.17c.34.07.68.14,1,.24a4.94,4.94,0,0,0,1.08.16,9.55,9.55,0,0,0,1.07,0,8.2,8.2,0,0,1,1.12.21l.26.1c.07,0,.15.08.13.14a.43.43,0,0,1-.2.12.73.73,0,0,1-.21.06L24,21.75l-.38-.07h0a0,0,0,0,0,0,0l.35.12a6.79,6.79,0,0,1,.72.31.73.73,0,0,1,.26.2s0,0,0,.06a.19.19,0,0,1-.08.07,1,1,0,0,1-.23.12,1,1,0,0,0-.33-.18,4.59,4.59,0,0,0-.81-.25l-.37-.08s0,0,0,0h0l.35.12a5.06,5.06,0,0,1,.72.3.65.65,0,0,1,.26.2.06.06,0,0,1,0,.07s0,.05-.08.07-.26.13-.29.15a1.21,1.21,0,0,0-.16-.16,2.57,2.57,0,0,0-1-.41h0s0,0,0,0a2.24,2.24,0,0,1,.89.43.7.7,0,0,1,.14.16c0,.05,0,.11,0,.14s-.09,0-.16,0a1,1,0,0,1-.23-.06,3.7,3.7,0,0,1-.42-.24,1.32,1.32,0,0,0-.59-.16,2.15,2.15,0,0,1-.52,0,1.83,1.83,0,0,1-.45-.14.17.17,0,0,0-.1,0h0a26,26,0,0,1-4.07-.21,4,4,0,0,1-.48-.08.43.43,0,0,1-.23-.14.38.38,0,0,1-.09-.13.39.39,0,0,1-.06-.15,1.21,1.21,0,0,1-.07-.33,4,4,0,0,1,0-.69c0-.24,0-.47.07-.71a0,0,0,0,0,0,0s0,0,0,0a4.06,4.06,0,0,0-.29.69,3,3,0,0,0-.13.73,1.56,1.56,0,0,0,0,.37.76.76,0,0,0,.06.2.75.75,0,0,0,.1.2.89.89,0,0,0,.53.31,3.69,3.69,0,0,0,.52.1l.36,0a5.54,5.54,0,0,1-.57.21A9.62,9.62,0,0,1,16,23.2a7.27,7.27,0,0,1-1.13.14,2.81,2.81,0,0,1-1.06-.12,1.18,1.18,0,0,1-.68-.51,1.71,1.71,0,0,1-.2-.75,7,7,0,0,1,0-1.58,3.44,3.44,0,0,1,.13-.78,1,1,0,0,1,.41-.61.39.39,0,0,1,.17,0l.3,0,.58,0c.4,0,.79-.06,1.18-.11A10.85,10.85,0,0,0,18,18.32a2.63,2.63,0,0,0,.93-.53.68.68,0,0,0,.22-.37.57.57,0,0,1,0,.34l.27-.85a4.23,4.23,0,0,1,.16.95l.26-.84.29.71.05-.51.28.32L20.6,17s-.73-.2-.24-.94a.69.69,0,0,1,1.26.25c0,.32.34.24.34.24s.09-.51.89-1a8.33,8.33,0,0,0,1-.6l-.89.73a5,5,0,0,0,1.11-.45,1.65,1.65,0,0,1,.63-.28l-.46.39a2.58,2.58,0,0,0,.9-.22c.3-.17.68-.33.68-.33l-.31.35a1.16,1.16,0,0,0,1-.35,2.3,2.3,0,0,0,.38-.76v.83a3.75,3.75,0,0,0,.37-.72.7.7,0,0,1,0,.14s0,0,0,.06h0a.61.61,0,0,1,.06.3,1.68,1.68,0,0,1-.06.37m-4.13,4.15ZM13,23.22h0a.53.53,0,0,1-.25,0,.68.68,0,0,1-.23-.07,2.87,2.87,0,0,0-.4-.19,2.06,2.06,0,0,0-.37-.1l-.15,0a6,6,0,0,0,.37-.87,4.14,4.14,0,0,0,.18-.93A2.11,2.11,0,0,0,12,20.1a1.91,1.91,0,0,0-.66-.87,2.17,2.17,0,0,0-1.34-.4,3.71,3.71,0,0,0-.71.09l-.35.13-.12.07-.07-.07a1.63,1.63,0,0,1,.11-.17,2.88,2.88,0,0,1,.3-.31,2.2,2.2,0,0,1,.41-.31,2.51,2.51,0,0,1,.52-.25c.1,0,.2-.06.3-.09a1.94,1.94,0,0,1,.32-.07,2.49,2.49,0,0,1,.61,0l.3,0,.29.07.55.15.48.18.87.38h-.17a1,1,0,0,0-.38.08,1,1,0,0,0-.43.39,1.65,1.65,0,0,0-.18.41,3.4,3.4,0,0,0-.16.82A8.06,8.06,0,0,0,12.52,22a2.15,2.15,0,0,0,.25.82,1.43,1.43,0,0,0,.36.38Zm-1.65-.4h-.05s0,0,0,0l0,.07a3,3,0,0,1-.5.72,3,3,0,0,1-.92.62,2.61,2.61,0,0,1-1.22.18,3.23,3.23,0,0,1-1.18-.33,5.92,5.92,0,0,1-1-.59,13.9,13.9,0,0,1-1.6-1.43.25.25,0,0,0-.28,0c-.1,0-.15.12-.09.19h0l.42.55-.13.09a1.27,1.27,0,0,0-.25.21.74.74,0,0,0-.16.27l0,.13a.24.24,0,0,1,0,.07c0,.05-.07.08-.09.08s0,0,0,0l0-.06-.07-.1,0-.08.08,0,.2-.1a1.18,1.18,0,0,0,.18-.13.15.15,0,0,0,0-.24.37.37,0,0,0-.39,0h0l-.35.2a.74.74,0,0,1-.18,0H3.39l0,0,0,0a.16.16,0,0,0,0-.09c0-.1-.12-.19-.27-.19H2.94s0,0,0-.05l.24-.58a1.81,1.81,0,0,1,.12-.28l.15-.29L3.79,21,4,20.7a2.69,2.69,0,0,1,.2-.27A1.48,1.48,0,0,1,4.62,20a.44.44,0,0,1,.28,0,1.42,1.42,0,0,1,.32.14,2.46,2.46,0,0,1,.32.19,1.49,1.49,0,0,1,.26.22h0a.1.1,0,0,0,.07,0,4.19,4.19,0,0,1,.93.29,3.44,3.44,0,0,1,.77.47h0s0,0,0,0a3.05,3.05,0,0,0-.72-.53A3.44,3.44,0,0,0,6,20.4a1.42,1.42,0,0,0-.24-.25l-.14-.09,0-.08a1.45,1.45,0,0,0-.09-.32,1.33,1.33,0,0,0-.32-.48,3.5,3.5,0,0,0-.71-.47c-.26-.15-.54-.32-.8-.5A2.31,2.31,0,0,0,3.39,18,1.68,1.68,0,0,0,3,18c-.24,0-.45,0-.62,0A.49.49,0,0,1,2,17.84l0,0a.34.34,0,0,1,.12,0h.12l.07,0a.39.39,0,0,0,.09-.08l.08-.08a.53.53,0,0,1,.2-.09,1.67,1.67,0,0,1,.6,0,9.32,9.32,0,0,0,1.4,0L6,17.35a2.34,2.34,0,0,1,1,0c.06,0,.08.15.09.26V18a.8.8,0,0,0,.05.21.33.33,0,0,0,.1.12l.08.06,0,0,0,0h.06l.09,0,.17.07.56.3.29.16a2.08,2.08,0,0,0-.12.35,2.36,2.36,0,0,0-.46.67,3.56,3.56,0,0,0-.29.91,4.8,4.8,0,0,0-.1.92,0,0,0,0,0,0,0l0,0a6.35,6.35,0,0,1,.61-1.76,2.27,2.27,0,0,1,.65-.74,2.39,2.39,0,0,1,.22-.12l.25-.09a2.6,2.6,0,0,1,.6-.06,1.58,1.58,0,0,1,1,.32,1.89,1.89,0,0,1,.56.74,2,2,0,0,1,.14.87,3.92,3.92,0,0,1-.1.89A5,5,0,0,1,11.3,22.82ZM2.07,17.46Zm6.61,1.65h0l.06,0-.11.08,0,0Zm19.06-4.82a2.47,2.47,0,0,0-.27-.82,3.58,3.58,0,0,0-.61-.75A6,6,0,0,0,25,11.59a8.13,8.13,0,0,0-1.12-.36,5.88,5.88,0,0,0-1.25-.12,9.56,9.56,0,0,0-2.4.28,5.06,5.06,0,0,0-2,1,2,2,0,0,0-.58.76c0,.07,0,.13-.07.2a1.55,1.55,0,0,0,0,.21,1.4,1.4,0,0,0-.05.41,2.91,2.91,0,0,0,.06.83,4.71,4.71,0,0,0,.27.8,5.52,5.52,0,0,0,1,1.49h0c.24.17.16.47-.08.66a2.27,2.27,0,0,1-.87.47,10.81,10.81,0,0,1-2.24.38l-1.16.07-.58,0h0a3.31,3.31,0,0,0-.75-.61,5.36,5.36,0,0,0-.48-.24,4.34,4.34,0,0,0-.61-.21l-.35-.06-.38,0c-.13,0-.25,0-.39,0a2.06,2.06,0,0,0-.38,0,3.21,3.21,0,0,0-.35.1,2.38,2.38,0,0,0-.32.12,3.28,3.28,0,0,0-.56.31,2.88,2.88,0,0,0-.4.36,3.16,3.16,0,0,0-.26.36l-.06.11-.18-.16a5.31,5.31,0,0,0-.5-.38l-.18-.1-.1-.05-.06,0h0l0,0s0,0,0,0,0,0,0,0a.57.57,0,0,1,0-.14c0-.11,0-.24,0-.36a.63.63,0,0,0,0-.23.45.45,0,0,0-.19-.25.88.88,0,0,0-.38-.12l-.37,0a6.37,6.37,0,0,0-.63.1,9,9,0,0,1-1.3.18,5,5,0,0,1-.67,0c-.22,0-.42-.07-.66-.1a2.4,2.4,0,0,0-.76,0,1,1,0,0,0-.39.14.63.63,0,0,0-.12.1.76.76,0,0,0-.45.17.22.22,0,0,0-.08.22.34.34,0,0,0,.09.18c.05,0,.07.07.14.12a1,1,0,0,0,.18.09,1.26,1.26,0,0,0,.41.09c.25,0,.47,0,.64,0l.19,0s.08.06.17.11a8.8,8.8,0,0,0,.9.48,4.34,4.34,0,0,1,.72.36,1.79,1.79,0,0,1,.39.39,2.57,2.57,0,0,1,.18.26l-.07,0a1.5,1.5,0,0,0-.42-.2,1,1,0,0,0-.58.05,1.82,1.82,0,0,0-.62.51l-.22.28-.2.28L3,21.41l-.17.29L2.7,22l-.25.59a1.62,1.62,0,0,0-.06.17v0h0v0a.43.43,0,0,1,0,0,.27.27,0,0,0,.07.08.43.43,0,0,0,.21.09l.16,0a.31.31,0,0,0,.13.23.44.44,0,0,0,.15.08l.09,0h.28l.1.15.08.11a.69.69,0,0,0,.15.14.76.76,0,0,0,.27.1.73.73,0,0,0,.33,0,.54.54,0,0,0,.35-.27.47.47,0,0,0,.06-.15l0-.11a.47.47,0,0,1,.09-.17.9.9,0,0,1,.18-.15A.92.92,0,0,1,5.32,23a11,11,0,0,0,.92.68,6.82,6.82,0,0,0,1.07.58,4.08,4.08,0,0,0,1.28.32,2.81,2.81,0,0,0,1.33-.21,3.31,3.31,0,0,0,1-.64,4,4,0,0,0,.49-.61l0,.05.18.1.23.07.26,0a1.31,1.31,0,0,0,.28,0,1.22,1.22,0,0,1,.27,0,.67.67,0,0,1,.24.07l.23.08a1.47,1.47,0,0,0,.21,0,1.13,1.13,0,0,0,.3-.06h0a3.46,3.46,0,0,0,1.24.1,7,7,0,0,0,1.16-.19,9.36,9.36,0,0,0,1.1-.32,3.29,3.29,0,0,0,.63-.29c.54.05,1.08.06,1.61.06.69,0,1.37,0,2.05,0a2.29,2.29,0,0,0,.51.15,3,3,0,0,0,.59,0A.88.88,0,0,1,23,23a3.45,3.45,0,0,0,.47.22.88.88,0,0,0,.3.07.35.35,0,0,0,.32-.11.18.18,0,0,0,0-.21h.09a1.53,1.53,0,0,0,.3-.05.52.52,0,0,0,.18-.12.15.15,0,0,0,0-.21h0a1,1,0,0,0,.3-.05.51.51,0,0,0,.18-.11.18.18,0,0,0,0-.22.88.88,0,0,0-.38-.24,2.53,2.53,0,0,0-.36-.12l.19-.05a.41.41,0,0,0,.23-.14c0-.09-.07-.15-.14-.19l-.27-.11a8.08,8.08,0,0,0-1.13-.25h0a9.38,9.38,0,0,1-1.06,0,3.94,3.94,0,0,1-1-.17,8.62,8.62,0,0,0-1-.26c-.22-.05-.44-.08-.66-.12a.31.31,0,0,0,.09-.07l.1,0a2.12,2.12,0,0,0,.38-.15h.76l1,0,.55,0a1.57,1.57,0,0,1,.48,0c.35.06.72.15,1.08.19a4.21,4.21,0,0,0,1,0,2.49,2.49,0,0,0,.66-.15l.18-.08.06,0a1.34,1.34,0,0,0,.44,0,.27.27,0,0,0,.13-.05.12.12,0,0,0,.05-.1.14.14,0,0,0,0-.1.63.63,0,0,0-.07-.12l-.16-.21a.65.65,0,0,0-.24-.19,1,1,0,0,0-.29-.1,1.38,1.38,0,0,0-.44,0l-.16,0,.15,0a1.8,1.8,0,0,1,.38.1l.19.1a.88.88,0,0,1,.12.15L26,20l0,0-.12,0-.3-.07a1.77,1.77,0,0,0-.63-.06,3.2,3.2,0,0,0-.43.05l-.16,0L25,20a2.69,2.69,0,0,1,.52.11l.23.08-.18.05a3,3,0,0,1-.66,0,2.23,2.23,0,0,1-.44,0L24,20.23,22.93,20a2.22,2.22,0,0,0-.63,0l-.53.05-.95.12-.62.09.18-.11a.68.68,0,0,0,.27-.37c0-.16,0-.26,0-.4a.6.6,0,0,1,.17-.39l.09-.07s0,0,0,0,0,0,0,0l0,0,.2.17a2.81,2.81,0,0,0,.45.35,1.43,1.43,0,0,0,.68.18A1.18,1.18,0,0,0,23,19.5a.43.43,0,0,0,.18-.22v-.05a1.2,1.2,0,0,0,.42,0,.3.3,0,0,0,.26-.2h.34l.87,0,.44,0h.18l.17,0,.1,0a2.77,2.77,0,0,0-1,.11l.4.05.38,0,.41.07a.62.62,0,0,1,.16,0l.05,0s.05,0,.05.05a.43.43,0,0,1,.07.1l0,.1a.6.6,0,0,1,0,.19l0,.08a.6.6,0,0,0,.22-.25.33.33,0,0,0,0-.15.35.35,0,0,0-.05-.18l-.06-.08a.85.85,0,0,0-.37-.17h-.12A.42.42,0,0,0,26,18.9l-.17-.09-.25-.06a4.34,4.34,0,0,0-.51,0,4.71,4.71,0,0,0-.88.15l-.29.1a.41.41,0,0,0,0-.17H24a.47.47,0,0,0,.31-.09s0,0,0,0,0,0,0,0,0,0,0,0a.11.11,0,0,1,0-.07.45.45,0,0,1,.18-.1.71.71,0,0,1,.25,0,1.51,1.51,0,0,1,.26,0,1,1,0,0,0,.35,0,.34.34,0,0,0,.28-.21.65.65,0,0,0-.14-.44.46.46,0,0,1-.06-.16s0-.06.06-.11l.42-.27a3,3,0,0,0,.4-.31c.13-.1.24-.22.36-.33a6.86,6.86,0,0,0,.63-.7,2.94,2.94,0,0,0,.44-.79,1.57,1.57,0,0,0,.09-.43A.9.9,0,0,0,27.74,14.29Z"/><path class="cls-3" d="M23.29,17.27h.5s0,.22.26.13a.65.65,0,0,0,.36-.25s.21,0,.18.07.22-.06,0-.2a5.16,5.16,0,0,0-1.3.25"/><path class="cls-3" d="M22.94,16.66a8.36,8.36,0,0,1,2.54-.06s.29-.64-2.54.06"/><path class="cls-3" d="M2,3.73H2l-.18-.6c-.05-.16-.09-.36-.13-.54h0c0,.18-.1.39-.14.54l-.18.6ZM1.24,4,1,4.66H.63L1.42,2.3h.44l.76,2.36H2.24L2,4Z"/><path class="cls-3" d="M3.4,4h0a.61.61,0,0,0,0,.14.37.37,0,0,0,.37.28c.32,0,.43-.3.43-.65s-.13-.64-.44-.64a.38.38,0,0,0-.36.3.62.62,0,0,0,0,.13ZM3,3.49C3,3.23,3,3.08,3,3h.36l0,.22h0a.61.61,0,0,1,.52-.25c.43,0,.71.32.71.88s-.37.88-.76.88a.48.48,0,0,1-.43-.2h0v.84H3Z"/><path class="cls-3" d="M5.33,3.81h0c0,.28.08.66.44.66s.4-.4.4-.66-.07-.66-.41-.66-.43.4-.43.66m1.24,0a.8.8,0,0,1-.82.88.78.78,0,0,1-.81-.87.8.8,0,0,1,.83-.89A.78.78,0,0,1,6.57,3.81Z"/><path class="cls-3" d="M7.18,3l.33,1,.1.35h0a2,2,0,0,1,.11-.35L8,3h.39L8,4.05a2.61,2.61,0,0,1-.61,1.1,1.48,1.48,0,0,1-.45.26L6.8,5.18A1.54,1.54,0,0,0,7.15,5a1,1,0,0,0,.22-.28.19.19,0,0,0,0-.09.13.13,0,0,0,0-.06L6.76,3Z"/><path class="cls-3" d="M9,3.81H9c0,.28.08.66.43.66s.41-.4.41-.66-.07-.66-.42-.66S9,3.55,9,3.81m1.24,0a.8.8,0,0,1-.83.88.78.78,0,0,1-.8-.87.8.8,0,0,1,.83-.89A.78.78,0,0,1,10.2,3.81Z"/><path class="cls-3" d="M11.44,4.66h0V3h.39v1.7Zm.43-2.14c0,.11-.1.18-.24.18s-.23-.07-.23-.18.1-.17.23-.17S11.87,2.42,11.87,2.52Z"/><path class="cls-3" d="M12.38,3.4c0-.2,0-.3,0-.44h.34l0,.21h0a.71.71,0,0,1,.57-.24.54.54,0,0,1,.6.59V4.66h-.39V3.57c0-.2-.06-.41-.35-.41a.38.38,0,0,0-.37.28.66.66,0,0,0,0,.15V4.66h-.4Z"/><path class="cls-3" d="M15.51,3.64h0c0-.34-.18-.5-.37-.5s-.39.26-.4.5Zm-.78.2c0,.52.3.63.59.63a1.12,1.12,0,0,0,.41-.07l.06.2a1.75,1.75,0,0,1-.54.08.79.79,0,0,1-.9-.85.81.81,0,0,1,.83-.9.68.68,0,0,1,.71.76.71.71,0,0,1,0,.15Z"/><path class="cls-3" d="M16.24,4.38a1,1,0,0,0,.4.09c.23,0,.37-.1.37-.25s-.07-.22-.32-.33-.5-.29-.5-.49.3-.47.68-.47a1.18,1.18,0,0,1,.45.09l-.11.21a.67.67,0,0,0-.33-.08c-.21,0-.32.11-.32.22s.06.18.31.29.51.28.51.52-.34.5-.74.5a1.09,1.09,0,0,1-.49-.1Z"/><path class="cls-3" d="M18.27,2.51V3h.48v.21h-.48v1c0,.22.12.28.26.28h.16v.2a1.07,1.07,0,0,1-.29,0,.69.69,0,0,1-.39-.1.51.51,0,0,1-.14-.43v-1h-.31V3h.31V2.59Z"/><path class="cls-3" d="M20,3.78h0c-.21,0-.69,0-.69.4a.29.29,0,0,0,.31.3A.37.37,0,0,0,20,4.22a.28.28,0,0,0,0-.09Zm.05.88,0-.18h0a.62.62,0,0,1-.49.21A.53.53,0,0,1,19,4.2c0-.42.5-.61,1.06-.61V3.53c0-.22-.09-.38-.4-.38a.91.91,0,0,0-.41.09l-.09-.19a1.36,1.36,0,0,1,.58-.12c.5,0,.72.23.72.61v.74a2.36,2.36,0,0,0,0,.38Z"/><path class="cls-3" d="M21.35,4.06h0a.38.38,0,0,0,.38.4c.32,0,.43-.29.43-.65s-.12-.64-.44-.64a.39.39,0,0,0-.36.3.49.49,0,0,0,0,.12Zm-.42.6c0-.1,0-.29,0-.41v-2h.4v.93h0a.6.6,0,0,1,.52-.23c.38,0,.67.31.67.86s-.37.9-.75.9a.54.54,0,0,1-.49-.25h0l0,.22Z"/><rect class="cls-3" x="23" y="2.23" width="0.39" height="2.43"/><path class="cls-3" d="M25,3.64h0c0-.34-.18-.5-.37-.5s-.39.26-.4.5Zm-.78.2c0,.52.3.63.59.63a1.12,1.12,0,0,0,.41-.07l.06.2a1.75,1.75,0,0,1-.54.08.8.8,0,0,1-.9-.85.82.82,0,0,1,.83-.9.68.68,0,0,1,.71.76.71.71,0,0,1,0,.15Z"/><path class="cls-3" d="M.73,7.54a1,1,0,0,0,.4.09c.22,0,.36-.1.36-.25s-.06-.22-.31-.33-.5-.29-.5-.49.3-.47.68-.47a1.27,1.27,0,0,1,.45.09l-.11.2a.81.81,0,0,0-.33-.07c-.21,0-.32.1-.32.21s.06.18.3.3.52.28.52.51-.34.51-.74.51a1.17,1.17,0,0,1-.5-.1Z"/><path class="cls-3" d="M2.56,7h0c0,.28.07.66.43.66s.41-.4.41-.66S3.33,6.31,3,6.31s-.42.4-.42.66M3.8,7A.8.8,0,0,1,3,7.85.78.78,0,0,1,2.17,7,.8.8,0,0,1,3,6.09.78.78,0,0,1,3.8,7Z"/><path class="cls-3" d="M4.62,7.22h0a.15.15,0,0,0,0,.1.38.38,0,0,0,.37.3c.32,0,.43-.29.43-.65S5.32,6.32,5,6.32a.4.4,0,0,0-.36.3.27.27,0,0,0,0,.12Zm-.41.6c0-.1,0-.29,0-.41v-2h.39v.93h0a.6.6,0,0,1,.52-.23c.38,0,.67.31.67.86s-.37.9-.75.9a.54.54,0,0,1-.49-.25h0l0,.22Z"/><path class="cls-3" d="M6.27,6.56c0-.15,0-.31,0-.44H6.6l0,.27h0a.61.61,0,0,1,.53-.3h.08v.28H7.16a.47.47,0,0,0-.48.35.81.81,0,0,0,0,.16v.94h-.4Z"/><path class="cls-3" d="M8.53,6.79h0c0-.34-.18-.49-.37-.49s-.39.26-.4.49ZM7.75,7c0,.52.3.64.59.64a1.12,1.12,0,0,0,.41-.07l.06.2a1.75,1.75,0,0,1-.54.08A.79.79,0,0,1,7.37,7a.81.81,0,0,1,.83-.9.68.68,0,0,1,.71.75A.62.62,0,0,1,8.9,7Z"/><path class="cls-3" d="M11.06,6.94h0c-.21,0-.68,0-.68.39a.29.29,0,0,0,.3.31.37.37,0,0,0,.37-.26.34.34,0,0,0,0-.1Zm0,.88,0-.18h0a.62.62,0,0,1-.49.21A.53.53,0,0,1,10,7.36c0-.42.5-.61,1.06-.62v0c0-.23-.09-.38-.4-.38a1.07,1.07,0,0,0-.41.08l-.09-.19a1.56,1.56,0,0,1,.58-.11c.5,0,.72.23.72.61v.73a2.42,2.42,0,0,0,0,.39Z"/><path class="cls-3" d="M12,6.56c0-.2,0-.3,0-.44h.34l0,.2h0a.74.74,0,0,1,.57-.23.54.54,0,0,1,.6.59V7.82h-.4V6.72c0-.2,0-.4-.34-.4a.37.37,0,0,0-.37.28.61.61,0,0,0,0,.15V7.82H12Z"/><path class="cls-3" d="M14.52,5.67v.45H15v.21h-.47v1c0,.22.12.28.26.28h.16v.21a1.07,1.07,0,0,1-.29,0,.69.69,0,0,1-.39-.1.52.52,0,0,1-.15-.43v-1h-.3V6.12h.3V5.75Z"/><path class="cls-3" d="M16.36,6.79h0c0-.34-.18-.49-.37-.49s-.39.26-.41.49Zm-.78.2c0,.52.3.64.59.64a1.12,1.12,0,0,0,.41-.07l.06.2a1.75,1.75,0,0,1-.54.08A.79.79,0,0,1,15.2,7a.81.81,0,0,1,.83-.9.68.68,0,0,1,.71.75.62.62,0,0,1,0,.15Z"/><path class="cls-3" d="M17.55,7.22h0a.28.28,0,0,0,0,.1.39.39,0,0,0,.37.3c.32,0,.43-.29.43-.65s-.12-.65-.43-.65a.4.4,0,0,0-.37.3.53.53,0,0,0,0,.12Zm-.42.6c0-.1,0-.29,0-.41v-2h.4v.93h0a.61.61,0,0,1,.52-.23c.39,0,.68.31.68.86s-.37.9-.76.9a.54.54,0,0,1-.49-.25h0l0,.22Z"/><path class="cls-3" d="M19.2,6.56c0-.15,0-.31,0-.44h.36l0,.27h0a.58.58,0,0,1,.52-.3h.08v.28h-.08a.46.46,0,0,0-.47.35.78.78,0,0,0,0,.16v.94H19.2Z"/><path class="cls-3" d="M21.36,6.94h0c-.2,0-.68,0-.68.39a.29.29,0,0,0,.3.31.36.36,0,0,0,.37-.26.34.34,0,0,0,0-.1Zm.06.88,0-.18h0a.65.65,0,0,1-.5.21.52.52,0,0,1-.58-.49c0-.42.49-.61,1.05-.62v0c0-.23-.08-.38-.39-.38a1,1,0,0,0-.41.08l-.09-.19A1.48,1.48,0,0,1,21,6.09c.5,0,.71.23.71.61v.73a1.63,1.63,0,0,0,0,.39Z"/><path class="cls-3" d="M22.11,7.65l.78-1.05.2-.25H22.2V6.12h1.33V6.3l-.78,1c-.06.09-.14.18-.2.26h1v.23H22.11Z"/><path class="cls-3" d="M24.13,7h0c0,.28.07.66.43.66s.4-.4.4-.66-.06-.66-.41-.66-.42.4-.42.66m1.23,0a.79.79,0,0,1-.82.88A.78.78,0,0,1,23.73,7a.8.8,0,0,1,.83-.88A.78.78,0,0,1,25.36,7Z"/><path class="cls-3" d="M25.73,7.54a1.07,1.07,0,0,0,.4.09c.23,0,.37-.1.37-.25s-.07-.22-.32-.33-.5-.29-.5-.49.3-.47.68-.47a1.18,1.18,0,0,1,.45.09l-.11.2a.81.81,0,0,0-.33-.07c-.21,0-.32.1-.32.21s.06.18.31.3.51.28.51.51-.34.51-.74.51a1.15,1.15,0,0,1-.49-.1Z"/></svg>