<svg id="Capa_1" data-name="Capa 1" xmlns="http://www.w3.org/2000/svg" viewBox="0 0 31.56 27.43"><defs><style>.cls-1{fill:#f8992f;}.cls-2{fill:#ef3b3d;}.cls-3{fill:#f5a4c7;}.cls-4{fill:#fccdb5;}.cls-5{fill:#231f20;}</style></defs><title>3-3meses</title><path class="cls-1" d="M19.84,13.58s-1.59.15-2-.15a1.21,1.21,0,0,1-.51-1.55A1.89,1.89,0,0,1,19.22,11a5.5,5.5,0,0,1,1.62.55s.42.67.19,1.13-.4.49-.4.49l.85,1.07s.86.64.86.8-.36.69-.64.61a11,11,0,0,1-1.06-.42Z"/><path class="cls-2" d="M6.64,21.4a14.06,14.06,0,0,0-3.18.19S1.8,24.06,1.3,24.69-.93,26,1.82,26.15a57.17,57.17,0,0,0,10.41.3c4.58-.39,5.45-1.51,5.45-1.51Z"/><path class="cls-3" d="M21.74,24.92s-1.08,1.5-.45,1.89a10.25,10.25,0,0,0,4.46.27c1.17-.23,1.89-.5,2-.95a13.11,13.11,0,0,0-.15-2.35,21.43,21.43,0,0,0-3.19-1.6,3.87,3.87,0,0,0-1.14.37Z"/><path class="cls-4" d="M31.54,24.41V20.14a14.75,14.75,0,0,0-4-.82,2.52,2.52,0,0,0-2.49,1.3,4.56,4.56,0,0,0-.76,1.62l.46.07s-.31,2.36.51,2.67a2.84,2.84,0,0,0,1.93.31,2.2,2.2,0,0,0,1.47-.91s.5-1,.5-1a3.37,3.37,0,0,0,1.18.74,11.52,11.52,0,0,0,1.19.32"/><path class="cls-4" d="M22.43,26.8c-.56.06-.72-.68-3.15-1a9.55,9.55,0,0,1-3.73-1,2,2,0,0,1-.78-.83s-1.22-.32-1.91-.41a17.31,17.31,0,0,1-2.27-.65c-.16,0-3.29-2.2-3.29-2.76s2-2.27,2.8-2.2a6.15,6.15,0,0,1,2.38.72c.19.21,1.07.91,1.51.7s.59-.16.71,0a.92.92,0,0,1,.17.37s.34,0,.44.07a1.36,1.36,0,0,1,.14.5l-.06.19s.55-.31.68-.19a1.2,1.2,0,0,1,.26.5c0,.05.32.18.32.18l-.07.48-.11.35.64-.35s.14-.56.18-.7a8.54,8.54,0,0,1,.52-1.69c.26-.38.62-.63.49-1.1s-.49-.6-.62-.83-.05-.48.15-.4.65.23.65.23,0-.35.09-.58.25-.79.35-.76.28.61.28.61l.05.2s.41-.89.63-.89a.53.53,0,0,1,.41.28s0,.31,0,.31a.46.46,0,0,1,.45-.15.52.52,0,0,1,.3.43,3,3,0,0,1-.43.79,11.29,11.29,0,0,0-.55,2.22,3.23,3.23,0,0,0,.41-.46s.37-.44.25-.7,0-.63-.06-1-.34-.77-.12-.85.57.37.62.5a.93.93,0,0,0,.26.27,8.26,8.26,0,0,1,.58-.79c.19-.2.49-.55.7-.43a.32.32,0,0,1,.07.47.74.74,0,0,0-.07.24s.46-.54.65-.42,0,.39-.1.62a3.24,3.24,0,0,1-.18.35s.67-.42.74-.31,0,.34-.3.6,0,.19,0,.19,1-.26,1-.1-.56.58-.57.61-1.25.57-1.25.57a7.08,7.08,0,0,1-.29,1.71c-.23.48-.38.74-.38.74l-.2.31s.7.2,1.19.31,1.22.33,1.11.78a15.19,15.19,0,0,0-.83,2.69c.08.51-.4,1.4-.81,1.44"/><path class="cls-4" d="M22.3,14.12c-.18-.22-1.18.09-1.49.2s-.38.08-.41,0-.4-.49-.48-.63.59-.46.59-.46a8.56,8.56,0,0,1,1.37-.6c.37-.07,1,.28,1,.6s-.4.44-.78.69a3.06,3.06,0,0,0-.29.21c-.44.38.22.61.22.61l1.3-.23s.28-.31,1.45.06a2.26,2.26,0,0,0,2.1-.54l4.67-1.27V10.07l-5.71,2.26L25,12.14,24,11.88a7.89,7.89,0,0,1-1.6-.5c-.36-.23-1.53.55-1.53.55s.25.26,0,.9-2.11.8-2.11.8a4.16,4.16,0,0,0,.45.58c.22.22.19.68.38.76s.28-.15.28-.15l.78.11s2.2-.06,1.6-.81"/><path class="cls-5" d="M25,25h0a1.77,1.77,0,0,0,.4.24,2.42,2.42,0,0,0,.48.13,3.66,3.66,0,0,0,1,0,5.77,5.77,0,0,0,.83-.15,1.13,1.13,0,0,1-.65,1.3,1.12,1.12,0,0,1-.22.09c-.07,0-.16,0-.26.07a4.69,4.69,0,0,1-.54.11c-.37.06-.76.1-1.14.14s-.78.06-1.16.07-.78,0-1.16,0A4.86,4.86,0,0,1,22,27a1.84,1.84,0,0,1-.51-.14.76.76,0,0,1-.34-.26.31.31,0,0,1,0-.31l.33.17c.1.06.18.15.29.22a.84.84,0,0,0,.46.17,1.12,1.12,0,0,0,.86-.34,1.57,1.57,0,0,0,.37-.59,2.73,2.73,0,0,0,.09-.61,3.57,3.57,0,0,1,.11-.55c.17-.73.4-1.4.48-2a1.12,1.12,0,0,0,0-.26.51.51,0,0,0-.05-.12s0,0,0,0h.24a.36.36,0,0,1,.29.12c0,.08,0,.17,0,.28l-.05.32a3.7,3.7,0,0,0-.07.66c0,.12,0,.23,0,.34a1.3,1.3,0,0,0,.08.34,1.17,1.17,0,0,0,.16.34A1.32,1.32,0,0,0,25,25m-8.69.64h0a5.31,5.31,0,0,1-.68.2,5.26,5.26,0,0,1-.71.17l-.71.13c-.49.05-1,.14-1.47.16s-1,.07-1.49.09-1,0-1.49.05-1,0-1.5,0-1,0-1.5,0l-1.5,0-1.51-.07c-.5,0-1-.06-1.5-.1A7.48,7.48,0,0,1,.81,26c-.22-.06-.37-.18-.34-.3s.17-.27.34-.38a2.26,2.26,0,0,1,.26-.16l.16-.11.12-.11a5.76,5.76,0,0,0,.42-.45c.26-.3.49-.61.71-.92.43-.61.82-1.24,1.19-1.87l1.09-.3c-.07.84.14,1.25.38,1.44l0,.05H5a5.67,5.67,0,0,0-.68.1l-.26.05.27,0,.68,0c.28,0,.6,0,.94.07L7,23.3c.37,0,.72.11,1.06.16l.93.15.78.14c-.24.07-.48.15-.71.24a11.07,11.07,0,0,0-1.43.64,6.21,6.21,0,0,0-.58.36s.31-.06.73-.18,1-.31,1.52-.51l.77-.3.36-.13.31-.08a1.21,1.21,0,0,1,.5,0l.06,0a6,6,0,0,0-1.53.94,4,4,0,0,0-.59.6l.8-.46c.23-.14.51-.29.82-.44l.47-.23.51-.2.25-.07.29-.07a4.22,4.22,0,0,1,.52,0,5.86,5.86,0,0,1,1,.09c.36.08.65.16.81.21a.56.56,0,0,1,.05.08,2.41,2.41,0,0,0,.56.53,3.58,3.58,0,0,0,1,.51,5.26,5.26,0,0,0,.6.18Zm-4.95-1.85h0l0,0,.09,0ZM22.7,16.09Zm-2.18.12h0l-.06,0a.1.1,0,0,1,0,0l.06-.07.05,0s0,0,0,0h.06l0,0a.74.74,0,0,1,.22.14l-.08,0A.5.5,0,0,0,20.52,16.21Zm-.28,2.67h0c0-.11,0-.23.06-.34l.09-.29,0,.05.2.24a5.58,5.58,0,0,0-.39.46A.49.49,0,0,1,20.24,18.88ZM20,15.76ZM30.7,21a3.77,3.77,0,0,0-.68-.51,3.86,3.86,0,0,0-.92-.39l-.27-.06-.29,0A3.24,3.24,0,0,0,28,20a4.86,4.86,0,0,0-1.06.2,4.69,4.69,0,0,0-.88.39,2,2,0,0,0-.37.24,1.89,1.89,0,0,0-.3.25,3.08,3.08,0,0,0-.41.54,3,3,0,0,0-.25.59.87.87,0,0,0-.32-.06l.12-.18c.11-.17.26-.42.42-.72s.18-.31.26-.49.16-.36.27-.54a1.45,1.45,0,0,1,.44-.53l.17-.09a1.39,1.39,0,0,1,.19-.06l.46-.05a6.4,6.4,0,0,1,1.76.06l.79.14.72.15,1.1.23.43.08,0,0L31.19,20c-.23-.1-.58-.24-1-.39a8.06,8.06,0,0,0-1.58-.36,6,6,0,0,0-1,0,4.19,4.19,0,0,0-1,.16,3.69,3.69,0,0,0-.45.11,1.17,1.17,0,0,0-.42.2,4.91,4.91,0,0,0-.58.51,3.94,3.94,0,0,0-.43.52,4.11,4.11,0,0,0-.26.51,3.14,3.14,0,0,0-.24,1l-.27,0s0,0,0,0a1.68,1.68,0,0,0-.51-.27,5.67,5.67,0,0,0-.9-.21L22,21.63l.11-.16a3.24,3.24,0,0,0,.19-.37,6.23,6.23,0,0,0,.24-.73A6.89,6.89,0,0,0,22.78,19a13.25,13.25,0,0,0,1.31-.83l.16-.13a1.1,1.1,0,0,0,.16-.15.64.64,0,0,0,.06-.1.16.16,0,0,0-.1-.18.72.72,0,0,0-.34,0c-.16,0-.31.06-.45.09l.09-.07a1.7,1.7,0,0,0,.19-.19.41.41,0,0,0,.11-.24A.15.15,0,0,0,24,17l0,0a.14.14,0,0,0,0,0,.32.32,0,0,0-.23,0,1.11,1.11,0,0,0-.31.13l-.07.05s.06-.08.09-.13a1.17,1.17,0,0,0,.19-.51.22.22,0,0,0,0-.08.16.16,0,0,0,0-.08l0,0h0l0,0h0a.22.22,0,0,0-.14,0,.56.56,0,0,0-.33.13,1.55,1.55,0,0,0,0-.21s0-.08,0-.12L22.93,16a.39.39,0,0,0-.14-.08h-.12l-.13,0L22.4,16a1.94,1.94,0,0,0-.36.32c-.21.21-.38.43-.56.63a1.19,1.19,0,0,0-.08-.16,1.85,1.85,0,0,0-.25-.37l-.07-.06a.49.49,0,0,0-.22-.37l-.13-.07a.5.5,0,0,0-.27,0l-.08,0a.86.86,0,0,0,0-.15.51.51,0,0,0,0-.11l0-.07,0,0a.38.38,0,0,0-.33-.07.59.59,0,0,0-.16.08.58.58,0,0,0-.13.15,2.09,2.09,0,0,0-.17.28l-.15.28c0-.11,0-.21,0-.32a1.06,1.06,0,0,0-.08-.33l-.08-.1a.29.29,0,0,0-.14-.07c-.09,0-.08,0-.1,0a.41.41,0,0,0-.3.1.46.46,0,0,0-.07.1c0,.06-.05.12-.07.17l0,.16c0,.1,0,.2,0,.3a2.13,2.13,0,0,0,.08.61h.05a3.71,3.71,0,0,0,.21-.58l.1-.29,0-.13A.75.75,0,0,1,19,16a1.82,1.82,0,0,1,.19.57h0a.07.07,0,0,0,.06,0,.09.09,0,0,0,.1,0,2.21,2.21,0,0,1,.36-.52,1.75,1.75,0,0,1,.24-.23h0a.2.2,0,0,1,0,.07,1,1,0,0,1-.08.26l-.23.54h0c0,.09,0,.19.17.22a.3.3,0,0,0,.34-.1l.09-.16v.11a1.85,1.85,0,0,0,.13.38.55.55,0,0,1,0,.3.82.82,0,0,0,0,.42.75.75,0,0,0,.05.16.57.57,0,0,0-.16.11,1.08,1.08,0,0,0-.26.3.64.64,0,0,0-.08.19,1.39,1.39,0,0,0-.06.19,1.31,1.31,0,0,0,.12.71,2.38,2.38,0,0,0-.24.57,4.18,4.18,0,0,0-.11.91,1,1,0,0,1-.1.4,1.12,1.12,0,0,1-.29.34,5.67,5.67,0,0,1-.95.56l-1.07.52a3.66,3.66,0,0,0-1,.64c-.25.25-.44.58-.28.88h.05a.5.5,0,0,1,0-.43,1.42,1.42,0,0,1,.33-.37,4.17,4.17,0,0,1,1-.55l1.11-.47A5,5,0,0,0,19.43,22a1.59,1.59,0,0,0,.4-.42,1.36,1.36,0,0,0,.14-.48,7.15,7.15,0,0,1,.15-.87,4.33,4.33,0,0,1,1.06-1.56.14.14,0,0,0,0-.22h0a1.57,1.57,0,0,1-.25-.27.84.84,0,0,1-.15-.3.7.7,0,0,1,0-.31,1.18,1.18,0,0,0,0-.2.6.6,0,0,0,0-.23,3.48,3.48,0,0,1-.13-.34.3.3,0,0,1,0-.23l0,0a2.43,2.43,0,0,1,.22.29,2.67,2.67,0,0,1,.15.34.18.18,0,0,0,.09.11.34.34,0,0,0,.14.05h.15s.2-.11.18-.12l.15-.17.51-.65a2.47,2.47,0,0,1,.28-.28l0,0a.09.09,0,0,1,0,0,1.91,1.91,0,0,1-.2.69h0s0,.08.07.1a.15.15,0,0,0,.16,0,1.83,1.83,0,0,1,.37-.42.4.4,0,0,1,.22-.12h0l0,0a.13.13,0,0,1,0,.09,1.17,1.17,0,0,1-.17.47,4.53,4.53,0,0,1-.3.46s0,.05,0,.07a.14.14,0,0,0,.11,0,2.17,2.17,0,0,1,.42-.31.62.62,0,0,1,.24-.1h.07l0,0s0,0,0,0a.31.31,0,0,1-.1.17,1.37,1.37,0,0,1-.17.17,4.73,4.73,0,0,1-.43.31.06.06,0,0,0,0,.09.13.13,0,0,0,.15,0h0a6.87,6.87,0,0,1,.86-.17h.05l-.13.1-.15.11c-.44.28-.93.55-1.41.81a.21.21,0,0,0-.08.11h0a14.11,14.11,0,0,1-.23,1.45,5.79,5.79,0,0,1-.21.71,2,2,0,0,1-.16.33,1.11,1.11,0,0,1-.22.3,3,3,0,0,0-.31.31,2.43,2.43,0,0,0-.24.35,5.19,5.19,0,0,0-.35.71,7.59,7.59,0,0,0-.45,1.45h.05c.19-.47.4-.94.64-1.4a5.64,5.64,0,0,1,.4-.67,2.6,2.6,0,0,1,.25-.31,2.36,2.36,0,0,1,.32-.28l.12-.13.57.15a5.86,5.86,0,0,1,.79.28,1.06,1.06,0,0,1,.36.23s0,0,0,0,0,.06,0,.09a.82.82,0,0,1,0,.18c-.06.29-.18.6-.28.94a7.94,7.94,0,0,0-.28,1.07,5.3,5.3,0,0,0-.07.59,2.55,2.55,0,0,1,0,.56,1.22,1.22,0,0,1-.25.51.71.71,0,0,1-.52.29c-.23,0-.4-.16-.65-.29a2.82,2.82,0,0,0-.76-.31c-.54-.16-1.08-.27-1.6-.4s-1-.24-1.51-.33A10.67,10.67,0,0,1,16.46,25a4.32,4.32,0,0,1-1-.41,2.39,2.39,0,0,1-.6-.44,1.74,1.74,0,0,1-.29-.34l-.07-.13h0a.91.91,0,0,0,.12.38,3.74,3.74,0,0,0-.65-.3,4.84,4.84,0,0,0-.49-.14l-.35-.06-.53-.22h.79a2.45,2.45,0,0,1-1.11-.76c-.19.41-.81.27-1.44,0s-.5-1,.61-.61,1.34,0,1.34,0-.47.26-.61-.12S11,21.42,11,21.42a3.87,3.87,0,0,1,1,.11,1.27,1.27,0,0,0-.57-.31,2.55,2.55,0,0,0-.87,0l.87-.42-1.15.05,1.07-.55-1.47.09.8-.3-.57-.16.79-.26H9.46L10.72,19l-.92.14.92-.37-1.84.09,1.37-.75c.23,0,.47.06.69.11a6.54,6.54,0,0,1,.92.26,4.67,4.67,0,0,1,.81.39,7.28,7.28,0,0,0,.71.52.71.71,0,0,0,.27.08.56.56,0,0,0,.29,0,1.43,1.43,0,0,1,.42-.15c.14,0,.25.05.26.14a.81.81,0,0,0,0,.19.28.28,0,0,0,.27.17h0c.09,0,.24,0,.24,0v0a.09.09,0,0,0,0,0,.57.57,0,0,1,0,.13.69.69,0,0,1,0,.13v.06l0,.06-.1.27a.08.08,0,0,0,0,.1.26.26,0,0,0,.27,0h0l.34-.13.17,0h0c0,.05,0,.08,0,.12v.27a.1.1,0,0,0,0,.09.27.27,0,0,0,.3.07h.09a.34.34,0,0,1,0,.11.78.78,0,0,1,0,.16,2.27,2.27,0,0,1-.19.61h0c0,.06,0,.12.09.16a.26.26,0,0,0,.26-.05l.1-.08.11-.08.27-.14a3.11,3.11,0,0,1,.63-.21,5.4,5.4,0,0,1,.7-.13l.73-.07v0c-.25,0-.5,0-.75,0a4.65,4.65,0,0,0-.75.08,1.36,1.36,0,0,0-.29.06l.07-.09a1.75,1.75,0,0,0,.31-.75,3.87,3.87,0,0,1,.05-.49,3.13,3.13,0,0,1,.13-.53A1.76,1.76,0,0,1,18,19c.13-.18.3-.37.42-.57a.81.81,0,0,0,.14-.68,1.91,1.91,0,0,0-.47-.57l-.2-.19L18,17l.14,0,.07,0,.12,0a2,2,0,0,0,.35,0c.17,0,.26,0,.32.06a.37.37,0,0,1,.11.17l0,.07h.05l0-.07a.37.37,0,0,0,0-.24c0-.12-.29-.2-.48-.22a1,1,0,0,1-.24,0h0l-.06,0-.15-.06a2,2,0,0,0-.35-.13,1,1,0,0,0-.28,0h-.11l-.14.06h0l0,0h0l0,0a.16.16,0,0,0,0,.09v0a.4.4,0,0,0,.12.2,1.59,1.59,0,0,0,.13.13l.26.22a2.46,2.46,0,0,1,.46.44.89.89,0,0,1,0,.54,1.62,1.62,0,0,1-.29.57l-.42.53a1.92,1.92,0,0,0-.31.55,1.68,1.68,0,0,0-.05.52,4.26,4.26,0,0,1-.08.73,1.46,1.46,0,0,1,0,.17l-.26.08-.1.05a2.25,2.25,0,0,0,.08-.24l0-.18a.61.61,0,0,0,0-.22.43.43,0,0,0-.31-.22h0a.53.53,0,0,0,0-.13.7.7,0,0,0,0-.16.3.3,0,0,0-.06-.13.42.42,0,0,0-.21-.11.46.46,0,0,0-.2,0l-.14,0a1.14,1.14,0,0,0-.22.07v-.11a.76.76,0,0,0,0-.15c0-.05,0-.1,0-.15l0-.08a.24.24,0,0,0-.08-.1.52.52,0,0,0-.29-.07l-.2,0s-.05,0-.06-.05,0-.09,0-.17-.26-.26-.47-.24a1.4,1.4,0,0,0-.47.18.42.42,0,0,1-.39,0,5.18,5.18,0,0,1-.66-.52,4.25,4.25,0,0,0-.81-.46,7,7,0,0,0-.94-.34,8.53,8.53,0,0,0-1-.2l-.54,0-.54,0-.54.07L7.9,18l-.49.17c-.16.06-.3.14-.45.21a3.52,3.52,0,0,0-.4.24l-.19.12,0,0-.06.05h0a3.34,3.34,0,0,0-1.43,2.09,3.41,3.41,0,0,0-.06.43l-1.23.2a.12.12,0,0,0-.08,0h0L2.08,23.43l-.7.91c-.11.15-.24.3-.36.44l-.09.11L.83,25a1.71,1.71,0,0,0-.27.2.82.82,0,0,0-.36.52A.35.35,0,0,0,.38,26a1.44,1.44,0,0,0,.36.15,11.4,11.4,0,0,0,1.51.16c.5.05,1,.09,1.5.15l1.5.15c1,.09,2,.16,3,.18.5,0,1,0,1.52,0s1,0,1.52-.05l.76-.05.76-.08c.51-.05,1-.16,1.49-.24l.73-.17c.24-.06.47-.14.7-.22a6.93,6.93,0,0,0,1.2-.54c.23.05.46.1.69.13.49.09,1,.15,1.55.22a9.65,9.65,0,0,1,1.6.32,2.09,2.09,0,0,1,.3.11.36.36,0,0,0-.08.36.77.77,0,0,0,.35.39,2.62,2.62,0,0,0,.56.22,4.55,4.55,0,0,0,.61.1,12.54,12.54,0,0,0,2.45,0q.6-.06,1.2-.18a5.63,5.63,0,0,0,.59-.14,2.49,2.49,0,0,0,.57-.22,1.55,1.55,0,0,0,.43-.36A1.12,1.12,0,0,0,28,26a1.47,1.47,0,0,0-.07-.83,1,1,0,0,0,.24-.08,1.91,1.91,0,0,0,.43-.21,1.24,1.24,0,0,0,.18-.14l.16-.15a2.19,2.19,0,0,0,.23-.33,1.24,1.24,0,0,0,.11-.36,1,1,0,0,0,0-.35l.19.21a2.09,2.09,0,0,0,.32.25,3,3,0,0,0,.83.31,3.59,3.59,0,0,0,.93.1v0l-.78-.3-.37-.15-.35-.16c-.12-.06-.25-.1-.36-.16a2.49,2.49,0,0,1-.32-.2.69.69,0,0,1-.11-.13,0,0,0,0,1,0,0,2.8,2.8,0,0,0-.13-.41l0,0h0a.15.15,0,0,0-.15,0c-.06,0-.09.06-.07.11h0a1.22,1.22,0,0,1,0,.33c0,.11,0,.21,0,.32a2.72,2.72,0,0,1-.2.61,2.09,2.09,0,0,1-.16.29.57.57,0,0,1-.1.13.76.76,0,0,1-.11.14l-.13.13-.14.12-.22.16a3.37,3.37,0,0,1-1.78.11,1.79,1.79,0,0,1-.37-.15.88.88,0,0,1-.28-.22,1.15,1.15,0,0,1-.19-.26,1.45,1.45,0,0,1-.11-.29A4.06,4.06,0,0,1,24.93,23V22.7a1,1,0,0,0,0-.17v0c.12-.19.27-.44.47-.72a5.21,5.21,0,0,1,.39-.49,3,3,0,0,1,.49-.53,1.94,1.94,0,0,1,.75-.42,3.39,3.39,0,0,1,.48-.1,4.09,4.09,0,0,1,.49,0,3.35,3.35,0,0,1,.5.07l.22.05.21.08a3.35,3.35,0,0,1,.76.37L30,21l.28.23a5.45,5.45,0,0,1,.49.45c.29.29.52.55.67.73l.24.29,0,0a3.24,3.24,0,0,0-.57-1.16A4,4,0,0,0,30.7,21Z"/><path class="cls-5" d="M21.79,11.48a.8.8,0,0,1,.37,0l.13.05.05,0,0,0s0,0,0,0l.06,0h0l1.69.38,1.66.38h.07c.48-.18,1-.32,1.49-.49l1.46-.53c.48-.19.94-.39,1.4-.61s.9-.43,1.33-.67l0,0c-.52.13-1,.29-1.52.45s-1,.34-1.46.53l-1.4.6c-.45.21-.88.43-1.33.63-.54-.11-1.08-.24-1.6-.39-.27-.07-.54-.15-.8-.24a7.49,7.49,0,0,1-.71-.28l-.07,0-.13-.06a.77.77,0,0,0-.3-.06,1.11,1.11,0,0,0-.54.11,1.85,1.85,0,0,0-.63.52l0,0a2.12,2.12,0,0,1,.71-.38"/><path class="cls-5" d="M17.34,12.35h0a1.14,1.14,0,0,1,.37-.65,1.83,1.83,0,0,1,.74-.4,3.21,3.21,0,0,1,.88-.09,2.94,2.94,0,0,1,.75.16,1.46,1.46,0,0,1,.86.63.57.57,0,0,1,.08.26v.18a.51.51,0,0,1-.08.25,1.09,1.09,0,0,1-.4.41l0,0h0a1.36,1.36,0,0,1-.4.2,3.35,3.35,0,0,1-.77.18l-.21,0h-.24a2.63,2.63,0,0,1-.47-.06,1.61,1.61,0,0,1-.82-.42.84.84,0,0,1-.24-.7m4.6.59h0a.67.67,0,0,1,.48.09.43.43,0,0,1,.14.3,4.31,4.31,0,0,1-.59.39,4.6,4.6,0,0,1-.63.31c-.17-.26-.35-.53-.54-.79A4.57,4.57,0,0,1,21.94,12.94ZM20.8,14.23h0l-.28.13a.36.36,0,0,0,0-.11.69.69,0,0,0-.17-.23,1.86,1.86,0,0,0-.41-.3,1.38,1.38,0,0,0,.39-.16,1.15,1.15,0,0,0,.28-.19c.22.24.44.47.68.69l0,0Zm-.87.24h0a1.59,1.59,0,0,1-.13.22l-.13.17s0,0,0,0-.05-.09-.06-.12a1.45,1.45,0,0,1,0-.29.64.64,0,0,0-.07-.27A.83.83,0,0,0,19.3,14a1.1,1.1,0,0,0-.18-.14h.25a1.76,1.76,0,0,0,.41-.06.64.64,0,0,1,0,.07,3.14,3.14,0,0,0,.11.33,1.46,1.46,0,0,1,.07.19S20,14.41,19.93,14.47Zm1.48.44h0l.6-.09a.5.5,0,0,1,0,.25.68.68,0,0,1-.1.21.27.27,0,0,1-.11.1l-.08,0-.07,0h-.05a.36.36,0,0,1-.25,0,.26.26,0,0,1-.17-.13c0-.06-.05-.12-.08-.17L21,15.06l-.12-.1Zm-3.12-1.27a2.32,2.32,0,0,0,.45.13v0c0,.08.09.19.17.32a1.15,1.15,0,0,0,.14.19,2,2,0,0,0,.21.2.57.57,0,0,1,.15.24.8.8,0,0,0,0,.15c0,.06.07.16.24.16a.73.73,0,0,0,.44-.15l0,0a.63.63,0,0,0,.26.05h.12a.53.53,0,0,0,.05.23.61.61,0,0,0,.13.16.79.79,0,0,0,.26.13l.31.1a1.54,1.54,0,0,0,.34.08h.18l.2,0a.94.94,0,0,0,.33-.17.38.38,0,0,0,.15-.24.36.36,0,0,0,0-.23.52.52,0,0,0-.26-.23l.14,0,.94-.13.47-.07.36-.06.25.13a3.54,3.54,0,0,0,.39.14,2.25,2.25,0,0,0,.91.08,1.48,1.48,0,0,0,.45-.13l.34-.16.33-.17.16-.1.11-.08q1.22-.35,2.4-.72c.41-.12.81-.26,1.22-.39l1.21-.41,0,0c-.43.08-.87.17-1.29.27s-.86.19-1.28.3c-.84.21-1.68.42-2.51.65l-.14.08-.08.06-.14.08-.29.17-.31.16a.84.84,0,0,1-.27.08,1.52,1.52,0,0,1-.63,0l-.32-.1a2.09,2.09,0,0,1-.3-.14h0a.27.27,0,0,0-.2,0c-.13,0-.29.07-.44.1l-.45.11-.92.19c-.3.07-.61.13-.92.18s-.42.06-.64.07l-.1-.06h-.05l0,0h-.11a.38.38,0,0,1-.19,0l0,0a1.62,1.62,0,0,0,.18-.19h0l.09,0a4.61,4.61,0,0,1,.86-.25,5.07,5.07,0,0,0,.87-.34c.13-.07.26-.14.38-.22a4,4,0,0,0,.35-.26h0a.09.09,0,0,0,0-.09.71.71,0,0,0-.28-.56,1,1,0,0,0-.43-.16,2.06,2.06,0,0,0-.43,0,4.06,4.06,0,0,0-.93.26l.08-.21a1.59,1.59,0,0,0,.06-.36A1.22,1.22,0,0,0,21,12a1.39,1.39,0,0,0-.2-.41,1.6,1.6,0,0,0-.52-.46,2.43,2.43,0,0,0-.95-.27,2.75,2.75,0,0,0-1.13.12,2.13,2.13,0,0,0-.91.56,1,1,0,0,0-.27.82A1.78,1.78,0,0,0,18.29,13.64Z"/><path class="cls-5" d="M12.08,18.79c-1.13.16.32,1.9.32,1.9s-.16-.42-.39-1.14,0-.74.07-.76"/><path class="cls-5" d="M12.08,18.79h0"/><path class="cls-5" d="M13.2,19.74c-.08-.23-.6-.21-.6-.21s.2-.13.2-.13h-.4c-.55.38.4,1,.4,1a.81.81,0,0,0-.13-.32c-.13-.23,0-.34,0-.34s.62.22.54,0"/><path class="cls-5" d="M4.1,2.92a7.63,7.63,0,0,1,0-.93H4c-.07.26-.17.54-.27.82L3.34,3.92H3.09l-.4-1.06A6.2,6.2,0,0,1,2.41,2h0c0,.28,0,.61,0,.94l-.07,1H1.93l.2-2.36h.43L3,2.65a7.15,7.15,0,0,1,.28.81h0c.07-.27.15-.49.26-.81L3.9,1.57h.44l.2,2.36H4.17Z"/><path class="cls-5" d="M6,3.06H6c-.21,0-.68,0-.68.39a.28.28,0,0,0,.3.3A.37.37,0,0,0,6,3.49.28.28,0,0,0,6,3.4Zm0,.87,0-.18H6A.62.62,0,0,1,5.49,4c-.33,0-.59-.19-.59-.48S5.4,2.86,6,2.86v0c0-.23-.09-.39-.4-.39a1.07,1.07,0,0,0-.41.09l-.08-.19a1.46,1.46,0,0,1,.57-.11c.5,0,.72.22.72.6v.74a2.3,2.3,0,0,0,0,.38Z"/><path class="cls-5" d="M6.91,2.67c0-.2,0-.3,0-.44h.34l0,.21h0a.71.71,0,0,1,.57-.23.54.54,0,0,1,.6.58V3.93H8V2.84c0-.2,0-.41-.34-.41a.38.38,0,0,0-.37.28.68.68,0,0,0,0,.15V3.93H6.91Z"/><path class="cls-5" d="M9.27,3.08h0c0,.28.07.67.43.67s.4-.4.4-.67-.06-.66-.41-.66-.42.4-.42.66m1.23,0A.8.8,0,0,1,9.68,4a.78.78,0,0,1-.81-.87.8.8,0,0,1,.83-.88A.78.78,0,0,1,10.5,3.08Z"/><path class="cls-5" d="M10.87,3.65a1,1,0,0,0,.4.09c.23,0,.37-.09.37-.25s-.07-.21-.32-.33-.5-.29-.5-.48.3-.47.68-.47a1.21,1.21,0,0,1,.45.08l-.11.21a.8.8,0,0,0-.33-.08c-.21,0-.32.11-.32.22s.06.18.31.29.51.28.51.52-.34.5-.74.5a1.1,1.1,0,0,1-.49-.09Z"/><path class="cls-5" d="M14.14,3.06h0c-.2,0-.68,0-.68.39a.29.29,0,0,0,.3.3.35.35,0,0,0,.37-.26.28.28,0,0,0,0-.09Zm.06.87,0-.18h0a.62.62,0,0,1-.49.21c-.34,0-.59-.19-.59-.48s.49-.62,1.05-.62v0c0-.23-.08-.39-.39-.39a1,1,0,0,0-.41.09l-.09-.19a1.48,1.48,0,0,1,.58-.11c.5,0,.71.22.71.6v.74a1.54,1.54,0,0,0,0,.38Z"/><path class="cls-5" d="M15.47,3.33h0a.2.2,0,0,0,0,.11.39.39,0,0,0,.37.3c.31,0,.43-.3.43-.66s-.12-.64-.44-.64a.41.41,0,0,0-.37.3.49.49,0,0,0,0,.12Zm-.41.6c0-.09,0-.29,0-.4v-2h.39v.93h0A.65.65,0,0,1,16,2.21c.38,0,.67.3.67.86s-.37.89-.75.89a.51.51,0,0,1-.49-.25h0l0,.22Z"/><path class="cls-5" d="M17.13,3.93h0V2.23h.39v1.7Zm.42-2.13c0,.1-.09.17-.24.17s-.23-.07-.23-.17a.21.21,0,0,1,.23-.18C17.46,1.62,17.55,1.69,17.55,1.8Z"/><path class="cls-5" d="M19.12,2.91h0c0-.34-.18-.49-.37-.49s-.39.26-.4.49Zm-.78.2c0,.52.31.63.59.63a1.12,1.12,0,0,0,.41-.07l.06.2a1.46,1.46,0,0,1-.54.08A.8.8,0,0,1,18,3.1a.81.81,0,0,1,.83-.89A.68.68,0,0,1,19.5,3a.66.66,0,0,1,0,.15Z"/><path class="cls-5" d="M19.92,2.67c0-.14,0-.31,0-.44h.35l0,.27h0a.59.59,0,0,1,.52-.29h.09v.28H20.8a.46.46,0,0,0-.47.36.68.68,0,0,0,0,.15v.94h-.39Z"/><path class="cls-5" d="M21.8,1.79v.44h.47v.21H21.8v1c0,.22.11.28.26.28h.16v.21l-.29,0a.62.62,0,0,1-.39-.1c-.1-.07-.15-.19-.15-.43v-1h-.3V2.23h.3V1.86Z"/><path class="cls-5" d="M23.54,3.06h0c-.2,0-.68,0-.68.39a.28.28,0,0,0,.3.3.35.35,0,0,0,.37-.26.28.28,0,0,0,0-.09Zm.06.87,0-.18h0a.62.62,0,0,1-.49.21c-.34,0-.59-.19-.59-.48s.49-.62,1.05-.62v0c0-.23-.08-.39-.39-.39a1,1,0,0,0-.41.09l-.09-.19a1.48,1.48,0,0,1,.58-.11c.5,0,.71.22.71.6v.74a1.54,1.54,0,0,0,0,.38Z"/><path class="cls-5" d="M24.42,3.65a1,1,0,0,0,.4.09c.22,0,.36-.09.36-.25s-.07-.21-.32-.33-.49-.29-.49-.48.29-.47.68-.47a1.19,1.19,0,0,1,.44.08l-.11.21a.79.79,0,0,0-.32-.08c-.22,0-.33.11-.33.22s.07.18.31.29.51.28.51.52-.34.5-.74.5a1.16,1.16,0,0,1-.49-.09Z"/><path class="cls-5" d="M2.9,6.21h0c-.2,0-.68,0-.68.4a.28.28,0,0,0,.3.3.35.35,0,0,0,.37-.26.28.28,0,0,0,0-.09ZM3,7.09l0-.18h0a.62.62,0,0,1-.49.21c-.34,0-.59-.19-.59-.49S2.33,6,2.89,6V6c0-.22-.08-.38-.39-.38a.88.88,0,0,0-.41.09L2,5.48a1.29,1.29,0,0,1,.58-.12c.5,0,.71.23.71.61V6.7a1.63,1.63,0,0,0,0,.39Z"/><path class="cls-5" d="M4.23,6.49h0a.2.2,0,0,0,0,.11.38.38,0,0,0,.37.29c.31,0,.43-.29.43-.65s-.12-.65-.44-.65a.41.41,0,0,0-.37.31.49.49,0,0,0,0,.12Zm-.41.6c0-.1,0-.29,0-.41v-2h.39v.93h0a.61.61,0,0,1,.52-.23c.39,0,.68.31.68.86s-.37.9-.75.9a.53.53,0,0,1-.49-.25h0l0,.22Z"/><path class="cls-5" d="M5.88,5.83c0-.14,0-.31,0-.44h.35l0,.27h0a.6.6,0,0,1,.52-.3h.09v.27H6.76A.46.46,0,0,0,6.29,6a.61.61,0,0,0,0,.15v.94H5.88Z"/><path class="cls-5" d="M8.14,6.07h0c0-.34-.18-.5-.37-.5s-.39.26-.41.5Zm-.78.2c0,.52.3.63.59.63a1.12,1.12,0,0,0,.41-.07l.06.2a1.77,1.77,0,0,1-.55.08A.8.8,0,0,1,7,6.26a.82.82,0,0,1,.84-.9.68.68,0,0,1,.7.75v.16Z"/><path class="cls-5" d="M10.13,6.49h0a.2.2,0,0,0,0,.11.38.38,0,0,0,.36.29c.32,0,.43-.29.43-.65s-.11-.65-.43-.65a.41.41,0,0,0-.37.31.49.49,0,0,0,0,.12Zm-.41.6c0-.1,0-.29,0-.41v-2h.39v.93h0a.61.61,0,0,1,.52-.23c.39,0,.68.31.68.86s-.37.9-.75.9a.53.53,0,0,1-.49-.25h0l0,.22Z"/><path class="cls-5" d="M11.78,5.83c0-.14,0-.31,0-.44h.35l0,.27h0a.6.6,0,0,1,.52-.3h.09v.27h-.09a.46.46,0,0,0-.47.36.61.61,0,0,0,0,.15v.94h-.39Z"/><path class="cls-5" d="M13.94,6.21h0c-.2,0-.68,0-.68.4a.29.29,0,0,0,.3.3.35.35,0,0,0,.37-.26.28.28,0,0,0,0-.09Zm.06.88,0-.18h0a.62.62,0,0,1-.49.21c-.34,0-.59-.19-.59-.49s.49-.61,1-.61V6c0-.22-.08-.38-.39-.38a.88.88,0,0,0-.41.09L13,5.48a1.29,1.29,0,0,1,.58-.12c.5,0,.71.23.71.61V6.7a1.63,1.63,0,0,0,0,.39Z"/><path class="cls-5" d="M14.69,6.93l.78-1c.07-.09.15-.18.2-.26h-.88V5.39h1.32v.18l-.78,1-.2.25h1v.22H14.69Z"/><path class="cls-5" d="M16.71,6.24h0c0,.28.07.66.43.66s.41-.4.41-.66-.07-.66-.42-.66-.42.4-.42.66m1.24,0a.8.8,0,0,1-.83.88.78.78,0,0,1-.8-.88.8.8,0,0,1,.83-.88A.78.78,0,0,1,18,6.24Z"/><path class="cls-5" d="M18.32,6.81a1,1,0,0,0,.4.09c.22,0,.36-.1.36-.25s-.07-.22-.32-.33-.49-.29-.49-.49.29-.47.68-.47a1.16,1.16,0,0,1,.44.09l-.1.2A.84.84,0,0,0,19,5.58c-.22,0-.32.11-.32.22s.06.17.3.29.51.28.51.52-.33.5-.74.5a1.15,1.15,0,0,1-.49-.1Z"/><path class="cls-5" d="M21.59,6.21h0c-.21,0-.68,0-.68.4a.28.28,0,0,0,.3.3.37.37,0,0,0,.37-.26.28.28,0,0,0,0-.09Zm.05.88,0-.18h0a.61.61,0,0,1-.49.21.53.53,0,0,1-.59-.49c0-.42.5-.61,1.06-.61V6c0-.22-.08-.38-.4-.38a.91.91,0,0,0-.41.09l-.08-.19a1.29,1.29,0,0,1,.58-.12c.49,0,.71.23.71.61V6.7a2.42,2.42,0,0,0,0,.39Z"/><path class="cls-5" d="M22.53,5.83c0-.2,0-.3,0-.44h.34l0,.2h0a.74.74,0,0,1,.57-.23.54.54,0,0,1,.6.59V7.09h-.39V6c0-.2-.06-.41-.35-.41a.38.38,0,0,0-.37.28.61.61,0,0,0,0,.15V7.09h-.39Z"/><path class="cls-5" d="M25.05,4.94v.45h.48V5.6h-.48v1c0,.22.12.28.26.28h.16l0,.2a1.21,1.21,0,0,1-.3,0,.63.63,0,0,1-.38-.1c-.1-.08-.15-.19-.15-.43v-1h-.3V5.39h.3V5Z"/><path class="cls-5" d="M26.89,6.07h0c0-.34-.18-.5-.37-.5s-.39.26-.4.5Zm-.78.2c0,.52.3.63.59.63a1.12,1.12,0,0,0,.41-.07l.06.2a1.75,1.75,0,0,1-.54.08.79.79,0,0,1-.9-.85.81.81,0,0,1,.83-.9.68.68,0,0,1,.71.75.76.76,0,0,1,0,.16Z"/><path class="cls-5" d="M2.27,9.4h0c0,.28.07.66.43.66s.4-.4.4-.66S3,8.74,2.69,8.74s-.42.4-.42.66m1.23,0a.8.8,0,0,1-.82.88.78.78,0,0,1-.81-.88.8.8,0,0,1,.83-.88A.78.78,0,0,1,3.5,9.4Z"/><path class="cls-5" d="M4.33,9.65h0a.31.31,0,0,0,0,.1.39.39,0,0,0,.37.3c.32,0,.43-.29.43-.66S5,8.75,4.71,8.75a.4.4,0,0,0-.37.3.53.53,0,0,0,0,.12Zm-.42.6c0-.1,0-.29,0-.41v-2h.4v.93h0a.61.61,0,0,1,.52-.23c.39,0,.68.31.68.86s-.37.9-.76.9A.54.54,0,0,1,4.29,10h0l0,.22Z"/><path class="cls-5" d="M5.56,10.74h0a.65.65,0,0,0,.33-.14c.09-.09.12-.22.12-.54V8.55h.4v1.59a.68.68,0,0,1-.26.65,1.06,1.06,0,0,1-.54.16Zm.88-2.63c0,.11-.09.18-.24.18S6,8.22,6,8.11s.09-.18.23-.18S6.44,8,6.44,8.11Z"/><path class="cls-5" d="M8,9.22H8c0-.34-.18-.49-.37-.49s-.39.26-.41.49Zm-.78.2c0,.52.3.63.59.63A1.15,1.15,0,0,0,8.22,10l.06.2a1.75,1.75,0,0,1-.54.08.79.79,0,0,1-.9-.85.81.81,0,0,1,.83-.9.68.68,0,0,1,.71.75.66.66,0,0,1,0,.15Z"/><path class="cls-5" d="M9.28,8.1v.45h.48v.21H9.28v1c0,.22.12.28.26.28H9.7l0,.21a1.21,1.21,0,0,1-.3,0,.63.63,0,0,1-.38-.1.49.49,0,0,1-.15-.43v-1h-.3V8.55h.3V8.18Z"/><path class="cls-5" d="M10.35,9.4h0c0,.28.07.66.43.66s.41-.4.41-.66-.07-.66-.42-.66-.42.4-.42.66m1.24,0a.8.8,0,0,1-.83.88A.78.78,0,0,1,10,9.4a.8.8,0,0,1,.83-.88A.78.78,0,0,1,11.59,9.4Z"/></svg>