<svg id="Capa_1" data-name="Capa 1" xmlns="http://www.w3.org/2000/svg" viewBox="0 0 31.02 26.29"><defs><style>.cls-1{fill:#f05050;}.cls-2{fill:#ffd82c;}.cls-3{fill:#b3d335;}.cls-4{fill:#f5a4c7;}.cls-5{fill:#fccdb5;}.cls-6{fill:#231f20;}</style></defs><title>4-3meses</title><path class="cls-1" d="M9.22,25.39a7.56,7.56,0,0,1,2.58-3.17A85.64,85.64,0,0,1,20,19.28a11.91,11.91,0,0,1,3,.59,30,30,0,0,1,2.51,2.38,1.42,1.42,0,0,0,.79.81c.62.26,1.2.55.95.76A34.14,34.14,0,0,1,23,25c-1,.22-5.93.33-7.08.43a18.73,18.73,0,0,1-6.65,0"/><path class="cls-2" d="M9.31,11.91a1.51,1.51,0,0,1,1.26-.09,2.74,2.74,0,0,1,1.17.9v.63l-.35.91Z"/><path class="cls-3" d="M6.62,13.35l2-.57.78-1.35a7.9,7.9,0,0,1,1.78,2.18,1.77,1.77,0,0,1,0,1.19l-1.62-.57-1.45.41L3.69,16.28s-.53.19-.8,0-1-.93-.64-1.22,4.37-1.71,4.37-1.71"/><path class="cls-4" d="M10.93,24.28s-.2.51-1.41.95S5.8,25.85,5,25.18s-.92-1.75,0-2.08,6,1.18,6,1.18"/><path class="cls-5" d="M3.72,19.61s.35-.54.21-.74a.48.48,0,0,0-.48-.21c-.17,0-.11,0-.24.08l-.45.19H2.22c-.08,0-.34.11-.34.34A14.43,14.43,0,0,1,2,21c0,.38.57,1.17,1.13,1.12s.69-.4.91-.41,1-.1,1-.1a1.79,1.79,0,0,0-.44,1.18A4,4,0,0,0,6.42,25.1,2.43,2.43,0,0,0,8.79,24c.37-.74.22-.17.22-.17a3.74,3.74,0,0,0,1.74.7A5.15,5.15,0,0,0,13,24.1s2.81-.87,3.26-1.58l.45-.71,1-.33a2,2,0,0,0,.84,0c.61-.09.7,0,.7,0s1.11.3,1.45-.09-.18-.64-.18-.64.82-.54.93-.65a1.86,1.86,0,0,0,.4-1.78c-.33-.84-.54-1.33-1.21-1.51a2.66,2.66,0,0,0-1.48-.22,4.65,4.65,0,0,0-1.66.57s.06-.25-.55-.23-1,.19-1,.44a2.41,2.41,0,0,1-.32.78l-.44.71a14.19,14.19,0,0,1-.09-1.58c0-.46.06-1.08-.39-1.25s-1.07-.26-1.08-.13-.13.31-.31.29-.4-.29-.59-.05a.75.75,0,0,0-.11.58s0,.06.26.33a1.11,1.11,0,0,1,.06,1.2,4.49,4.49,0,0,0-.48,1.49c.11,0,0,.4,0,.4l-1.68.09h-.17s0-1-.51-1.19a5.91,5.91,0,0,0-1.84-.43c-.19.05-.9.39-.9.39a2.94,2.94,0,0,0-1.19-.23,18.38,18.38,0,0,0-2.17,1.3s-.24.05-.22-.46"/><path class="cls-5" d="M.31,9.08l5.16,3.4a19.42,19.42,0,0,0,2.39,1.81c.58.25,1,.66.93,1s-1.15,1.06-1.15,1.06.27.48-.06.53a7.38,7.38,0,0,1-1.08,0L6,17.08l-.9,0s0,.32-.43.16a6.83,6.83,0,0,1-1.05-.6s-.26-.22,0-.33a6.42,6.42,0,0,1,.73-.2l0-.64a1.64,1.64,0,0,1-1.33-.53c-.74-.67-.73-1.19-1.09-1.45a15.31,15.31,0,0,0-2-.9V8.82Z"/><path class="cls-6" d="M20.68,19.87c.68-1.22-1.08-1-1.08-1,1.21,0,1.08,1,1.08,1"/><path class="cls-6" d="M18.65,18.26s.82-.92-1-.88c0,0,1.21.16,1,.88"/><path class="cls-6" d="M19.64,19.75a.51.51,0,0,0,.42,0l0,.13c0,.1-.39,0-.39,0l.51.2s.26-.45-.09-.67a1.54,1.54,0,0,0-.88-.15l.46.13c-.24.07-.25.32,0,.39"/><path class="cls-6" d="M17.51,17.9a.77.77,0,0,1,.21,0s-.31.12-.21.28.34.32.52.15a.17.17,0,0,1,.17.24s.36-.49-.18-.71a1.15,1.15,0,0,0-.78-.11l.15.4s0-.26.12-.26"/><path class="cls-6" d="M18.26,19.48c0,.15.21.22.2.11s-.16-.26-.2-.11"/><path class="cls-6" d="M18,19.28c-.19.1,0,.12.13.12s-.13-.12-.13-.12"/><path class="cls-6" d="M21.14,20.05a.41.41,0,0,0,.1-.09l-.1.09"/><path class="cls-6" d="M17.24,19.78c.21.34,0,.19,0,.19a.22.22,0,0,0,.36,0c.19-.23-.48-.56-.68-.54s.1.4.1.4,0-.39.22,0"/><path class="cls-6" d="M17,20.22s-.48-.42-.53-.25.25.45.53.25"/><path class="cls-6" d="M2.86,14.79h0A1.29,1.29,0,0,0,3,15a1.39,1.39,0,0,0,.27.21,3.47,3.47,0,0,0,.33.18l.37.14.22.06a.57.57,0,0,0,0,.18,1.26,1.26,0,0,0,0,.28v0l-.12,0-.45.07a1.15,1.15,0,0,1-.26,0,1.77,1.77,0,0,1-.23,0,1.51,1.51,0,0,1-.52-.23.78.78,0,0,1-.23-.21.33.33,0,0,1,0-.25.81.81,0,0,1,0-.11l0,0s0,0,0,0v0a1.1,1.1,0,0,1,.11-.14l.24-.26.07-.08m5.49-.32h0c-.24-.21-.56-.38-.83-.57a3.55,3.55,0,0,1-.62-.55c.66-.07,1.31-.18,1.94-.31L9,13l0-.09a5.89,5.89,0,0,0,.26-.7l.13-.59a2.66,2.66,0,0,1,.33.21,3.46,3.46,0,0,1,.39.37,3.14,3.14,0,0,1,.52.82l.09.21c0,.08.06.14.08.21a4.59,4.59,0,0,1,.15.44,2.17,2.17,0,0,1,.07.42.58.58,0,0,1,0,.19h0c-.47-.13-1-.26-1.43-.37l-.08,0-.05,0-1.05.34Zm2-2.49h0l.32.14c.11.05.2.12.31.18a2,2,0,0,1,.27.23,1.21,1.21,0,0,1,.2.26,1.17,1.17,0,0,1,.11.28c0,.1,0,.19,0,.29s0,.2,0,.29,0,.17-.07.25a.06.06,0,0,0,0,0,.76.76,0,0,1,0-.11,3.77,3.77,0,0,0-.46-.89,5.91,5.91,0,0,0-.72-.79l-.43-.38C9.94,11.82,10.13,11.88,10.35,12ZM2.19,14c.12.16.24.33.38.49l.22.24a1.32,1.32,0,0,0-.58.22.53.53,0,0,0-.2.24v.09a.25.25,0,0,0,0,.07.71.71,0,0,0,.08.15,1.44,1.44,0,0,1,.18.25c.05.08.08.18.13.27a.64.64,0,0,0,.2.27.85.85,0,0,0,.4.21,1.12,1.12,0,0,0,.48,0h0s0,0,0,.07a.87.87,0,0,0,.19.23,2.52,2.52,0,0,0,.64.35,2.67,2.67,0,0,0,.45.12h.3a.3.3,0,0,0,.21-.15l0,0,.52.06.31,0h.13l.14-.05A.34.34,0,0,0,6.53,17a.25.25,0,0,0,0-.07A2.71,2.71,0,0,0,7,17a1.4,1.4,0,0,0,.35,0l.2,0a.82.82,0,0,0,.21-.1.4.4,0,0,0,.11-.33,1.25,1.25,0,0,0,0-.19l.27-.16c.13-.1.29-.21.46-.35a1.24,1.24,0,0,0,.25-.26.48.48,0,0,0,.05-.37,1.37,1.37,0,0,0-.46-.6c.34,0,.68-.1,1-.15.51.18,1,.36,1.55.52l.11,0,.09,0a.35.35,0,0,0,.19-.1l.07-.08a.64.64,0,0,0,.06-.16.78.78,0,0,0,0-.26s0-.06,0-.09a1.07,1.07,0,0,0,.21-.25,2.33,2.33,0,0,0,.17-.26,1.73,1.73,0,0,0,.11-.32,1.08,1.08,0,0,0,0-.36,1.36,1.36,0,0,0-.13-.37,1.19,1.19,0,0,0-.27-.33,1.9,1.9,0,0,0-.37-.26,3.26,3.26,0,0,0-.81-.28,3.68,3.68,0,0,0-.74-.08l-.37-.28-.11-.08-.07.12-.35.69a5.36,5.36,0,0,0-.25.62c-.59.15-1.17.32-1.73.52l-.06-.06a4.1,4.1,0,0,0-.9-.66c-.33-.19-.68-.37-1-.56a8.63,8.63,0,0,1-.89-.6l-.81-.57-.77-.49c-.47-.3-.89-.54-1.18-.7L.79,9.4l0,0,.39.31c.25.19.62.47,1.08.78.23.15.47.33.75.49s.58.34.9.52.63.36.94.55.64.4.94.61a4.67,4.67,0,0,1,.77.68,4.45,4.45,0,0,0,.72.72c.29.21.58.38.82.56a1.53,1.53,0,0,1,.52.54c.09.18,0,.35-.17.49s-.28.28-.39.38l-.17.15v0a4.1,4.1,0,0,0-.38-1,4.39,4.39,0,0,0-.28-.43s0,.19.08.47.15.64.23,1a1.26,1.26,0,0,1,0,.27.36.36,0,0,1,0,.19l0,0,0,0-.14,0a1.45,1.45,0,0,1-.3,0l-.41,0a1.6,1.6,0,0,0,.1-.42,3.17,3.17,0,0,0-.06-1A3.41,3.41,0,0,0,6.51,15s0,.18-.07.45-.06.63-.1,1a1.42,1.42,0,0,1-.1.49l0,.08H6.13l-.31,0-.51,0a2.72,2.72,0,0,0,.11-.25c0-.1.09-.19.14-.29a1.66,1.66,0,0,0,.13-.27c0-.09,0-.18,0-.26a1.3,1.3,0,0,0-.07-.53h0a2.35,2.35,0,0,0-.2.51c0,.08,0,.16,0,.25a2.61,2.61,0,0,0,0,.28.66.66,0,0,1-.25.55A.15.15,0,0,1,5,17.1H4.93s0,0-.08,0a2,2,0,0,1-.34-.13l-.6-.29-.19-.11s0,0,0,0v-.07l.13-.05a1.19,1.19,0,0,0,.39-.25l0,0c0,.14.09.28.14.41h0a3.35,3.35,0,0,1,0-.54,2.51,2.51,0,0,1,0-.27.4.4,0,0,1,.12-.21h0l.12-.2-.26,0a1.39,1.39,0,0,1-.35,0,3.15,3.15,0,0,1-.36-.09,2.18,2.18,0,0,1-.6-.34,1.59,1.59,0,0,1-.36-.48l-.26-.52a3.33,3.33,0,0,0-.32-.52,1.17,1.17,0,0,0-.3-.24L1.5,13c-.49-.16-1-.31-1.48-.43l0,0c.42.23.88.43,1.32.63a1.36,1.36,0,0,1,.53.32A2.83,2.83,0,0,1,2.19,14Z"/><path class="cls-6" d="M16,23h0l.24-.21.2-.21a2.75,2.75,0,0,0,.19-.28l2.55,1.34L16.8,22h0a1.31,1.31,0,0,0,.32-.1L22,22.7l-4.47-1.11a.43.43,0,0,1,0-.07,3.4,3.4,0,0,0,.46.06,6,6,0,0,0,1.27-.09.27.27,0,0,0,.1.06l.17.07a1.55,1.55,0,0,0,.37,0,1.45,1.45,0,0,0,.36,0l.35-.05a1.06,1.06,0,0,0,.35-.15.24.24,0,0,0,.12-.14l1.84.08L21,21l-.12-.11-.07-.06.1-.05.15-.07a2.9,2.9,0,0,0,1.37-1A3.18,3.18,0,0,1,23,20a14,14,0,0,1,1.74,1.62c.15.18.31.37.44.56a.56.56,0,0,1,.1.15l.1.17a1.65,1.65,0,0,0,.31.34,8.32,8.32,0,0,0,.8.52,1.18,1.18,0,0,1,.28.26l0,0a.27.27,0,0,1-.11.09,4.17,4.17,0,0,1-.92.39c-.35.12-.72.21-1.09.31-.75.19-1.53.35-2.32.48a11.7,11.7,0,0,1-1.19.13l-1.22.06c-.8,0-1.6,0-2.37,0s-1.52,0-2.22.05-1.39.12-2,.17a22.87,22.87,0,0,1-2.93,0l-.77,0,.14-.06c.2-.12.33-.21.46-.3l.32-.24.11-.09a1.36,1.36,0,0,0,.4,0l.37-.08a16.87,16.87,0,0,0,2.73-.72,7.29,7.29,0,0,0,1.24-.55l.06-.05.6,1.15L16,23.16ZM8.23,25.4h0l-.81.11c-.27,0-.56.06-.84.07a1.8,1.8,0,0,1-.81-.12,1.49,1.49,0,0,1-.56-.4,3.18,3.18,0,0,1-.34-.46,3.94,3.94,0,0,1-.25-.43.82.82,0,0,1-.07-.65.72.72,0,0,1,.1-.18,2.3,2.3,0,0,0,.26.73,2.77,2.77,0,0,0,.89,1,2.58,2.58,0,0,0,.37.22,1.8,1.8,0,0,0,.52.15,2,2,0,0,0,1-.19A2.84,2.84,0,0,0,9,24.13a2,2,0,0,0,.13-.25,6,6,0,0,0,.92.59,2.44,2.44,0,0,0,.52.19l-.07,0-.4.17c-.16.06-.33.15-.5.21A9.2,9.2,0,0,1,8.23,25.4ZM4.75,21.58H4.46a2.73,2.73,0,0,0-.72.07,1,1,0,0,0-.36.19.49.49,0,0,0-.12.13v0h0l0,0,0,0a.38.38,0,0,1-.27,0,.83.83,0,0,1-.3-.14.59.59,0,0,1-.26-.48,4.33,4.33,0,0,1,.09-.54,2.24,2.24,0,0,0,0-.58,4,4,0,0,0-.17-.49,1.2,1.2,0,0,1,0-.2,1.64,1.64,0,0,0,0-.22l0-.16.1.05.07.08a.28.28,0,0,0,.11.05l.12,0h.06l0,0a.24.24,0,0,0,0-.13.15.15,0,0,0-.07-.11l-.06,0A.46.46,0,0,0,2.49,19H2.6a.19.19,0,0,1,.1.05,1,1,0,0,1,.08.11.38.38,0,0,0,.12.09,1.33,1.33,0,0,0,.18.09h0a.36.36,0,0,0,0-.16A.34.34,0,0,0,3.09,19a.68.68,0,0,0-.21-.12h0l.07,0a.47.47,0,0,1,.16,0s0,0,.07,0a.84.84,0,0,0,0,.12.31.31,0,0,0,.09.11.76.76,0,0,0,.17.11h0A.34.34,0,0,0,3.56,19a.31.31,0,0,0,0-.16l-.08-.09.18.06,0,0A.49.49,0,0,1,3.8,19a.18.18,0,0,1,0,.17.33.33,0,0,1-.1.17.92.92,0,0,0-.26.35.29.29,0,0,0,0,.24.43.43,0,0,0,.12.14l.18.17-.11.11,0,0,.14-.08,0,0H4a.35.35,0,0,0,.08-.1.08.08,0,0,1,0,0l.37-.23c.22-.13.47-.3.77-.47a2.39,2.39,0,0,1,1.08-.39,2.05,2.05,0,0,1,1.29.2,5.56,5.56,0,0,1,1,1,2.93,2.93,0,0,1,.6,1.21,3,3,0,0,1,0,1.33A3.63,3.63,0,0,1,8.55,24a2.61,2.61,0,0,1-1.12.92,1.46,1.46,0,0,1-.69.13,1.91,1.91,0,0,1-.27-.1,2.11,2.11,0,0,1-.3-.16A3,3,0,0,1,5.33,24a2.81,2.81,0,0,1-.47-1.54,2.39,2.39,0,0,1,0-.45c0-.06,0-.11,0-.13l.18-.06a.78.78,0,0,0,.31-.27.5.5,0,0,0,.09-.27h0a1.87,1.87,0,0,1-.22.2,1,1,0,0,1-.3.14A.37.37,0,0,1,4.75,21.58ZM2.18,19.09h0s0,0,.06,0h0l0,0h0l0,0h-.2Zm5.9-.24h0a4.44,4.44,0,0,1,.73,0l.19,0h.09l.1,0a.5.5,0,0,1,.16.05l.16.07a1.68,1.68,0,0,1,.51.4,2.91,2.91,0,0,1,.32.45l.11.23-.38.07a4.82,4.82,0,0,0-.58.15,3,3,0,0,0-.51.22,3.11,3.11,0,0,0-.2-.41,4.52,4.52,0,0,0-.39-.58l-.23-.27A3.74,3.74,0,0,0,7.88,19a1.71,1.71,0,0,0-.23-.13Zm2.76,1.57h0l.68-.08.59-.07.24,0,0,.06a1.78,1.78,0,0,0,.23.31,2.4,2.4,0,0,0,.27.28,7.6,7.6,0,0,0,.61.52,12.41,12.41,0,0,0,1.4.9l0,0a15.45,15.45,0,0,1-1.25-1,4.07,4.07,0,0,1-.93-1.09.79.79,0,0,1-.1-.28.78.78,0,0,1,0-.29q.09-.32.21-.63c.16-.41.34-.83.54-1.24a.13.13,0,0,0,0-.14l0,0,0,0,0,0a.37.37,0,0,1-.05-.11.69.69,0,0,1,0-.25c0-.08,0-.2,0-.3a.81.81,0,0,0,0-.16V16.6a.93.93,0,0,0,0-.1.3.3,0,0,0-.25-.14l-.12,0a.27.27,0,0,1,.11-.14s0,0,.12,0a1,1,0,0,0,.54,0,.37.37,0,0,0,.23-.17l0-.07H14l.3.07a1.35,1.35,0,0,0,.41.1h.06s0,0,0,0a.59.59,0,0,1,.07.2,4,4,0,0,1,.07.48l0,1a8.78,8.78,0,0,0,.12,1,2.19,2.19,0,0,0,.37,1c.27.3.65.51.89.78a1,1,0,0,1,.29.9,1.93,1.93,0,0,1-.51.86l-.21.2-.22.17a4.33,4.33,0,0,1-.51.31,9.52,9.52,0,0,1-1.16.54,23.45,23.45,0,0,1-2.62.77l-.33.08a.58.58,0,0,1-.29,0,2.31,2.31,0,0,1-.62-.18,6.82,6.82,0,0,1-1-.51,3.3,3.3,0,0,0,.26-1,4.13,4.13,0,0,0-.1-1.36,3.82,3.82,0,0,0-.3-.86l.59,0Zm3.9-4.2ZM17,21.64h0l-.1.07,0-.11a1.29,1.29,0,0,0,0-.28l.13.06a2.65,2.65,0,0,0,.3.11h.1l-.09,0h-.05Zm-1.25-3.26h0c.17-.18.36-.36.54-.52l0,0v0c0-.12.06-.25.09-.36a.89.89,0,0,1,.16-.34s0,0,0,0l.05,0,.1,0a.58.58,0,0,1,.23,0,.35.35,0,0,1,.29.13,5,5,0,0,1-.22.57,6,6,0,0,1,.9-.6,1.37,1.37,0,0,1,.49-.18l-.55.36,1.33-.41-.42.18.63-.1-.21.24L20.31,17l-.61.44.83-.28-.48.42.84-.28-.59.53.52-.17-.24.49.52-.41-.42.88.36-.27,0,.33.57-.58-.4.93.36-.3-.21.45.49-.32A6.14,6.14,0,0,1,21.24,20l.49-.39h0l-.85.76,0,0-.5.32-.2.13.22.11a.77.77,0,0,1,.33.26s0,.05,0,.09a.63.63,0,0,1-.2.09l-.29.08-.29,0a1.38,1.38,0,0,1-.29,0l-.13,0-.1,0-.06,0h0a5.46,5.46,0,0,1-1.28.14,2.73,2.73,0,0,1-.64-.07,1.67,1.67,0,0,1-.3-.08l-.18-.09c0-.06,0-.12-.05-.18a1.82,1.82,0,0,0-.34-.46c-.28-.28-.68-.49-.92-.76a2.1,2.1,0,0,1-.31-.92A4.88,4.88,0,0,1,15.71,18.38Zm11.56,5.15,0-.05a1.8,1.8,0,0,0-.38-.35c-.29-.2-.58-.34-.78-.5a1.18,1.18,0,0,1-.25-.25l-.1-.16-.11-.16a5.93,5.93,0,0,0-.53-.57,10.83,10.83,0,0,0-2-1.56,4.21,4.21,0,0,0-.65-.32,1.65,1.65,0,0,0,.2-.51,2.34,2.34,0,0,0-.92-2.29,4.05,4.05,0,0,0-2.83-.49,4.84,4.84,0,0,0-1.6.62l0,0a.67.67,0,0,0-.32-.1,1,1,0,0,0-.34,0l-.16.05-.13.07a1.06,1.06,0,0,0-.38.38.94.94,0,0,0-.1.39,3.64,3.64,0,0,0-.43.56c-.06.11-.12.21-.17.32s0,.09,0,.13a7,7,0,0,1,0-.8c0-.33.05-.65.06-1a2.18,2.18,0,0,0,0-.51,1.13,1.13,0,0,0-.09-.28A.43.43,0,0,0,15,16a.62.62,0,0,0-.18-.06h-.1c-.1,0-.39-.14-.63-.19a1.42,1.42,0,0,0-.26,0,.49.49,0,0,0-.33.12l-.11.14-.14,0a.83.83,0,0,0-.58,0,.68.68,0,0,0-.4.57,1,1,0,0,0,0,.29l0,.08.06.1,0,0h0l0,0v0l.07,0a.32.32,0,0,0,.13.05h0a.78.78,0,0,0,.14.49l.06.08h0a9.18,9.18,0,0,0-.45,1.2c-.07.21-.13.43-.18.65a1.45,1.45,0,0,0,0,.37l0,.13-.17,0a6.05,6.05,0,0,0-.63,0,5.7,5.7,0,0,0-.71,0l-.14,0a.71.71,0,0,0,0-.25,1.32,1.32,0,0,0-.2-.55,1.58,1.58,0,0,0-.61-.55l-.23-.09a1.54,1.54,0,0,0-.27-.07l-.11,0H8.83a2.78,2.78,0,0,0-.82.12,1.91,1.91,0,0,0-.48.2,2.86,2.86,0,0,0-1.35-.1,3,3,0,0,0-.71.2,1.41,1.41,0,0,0-.28.15L5,19.27c-.28.21-.52.38-.7.54L4.07,20s0,0,0-.06l0-.14a.24.24,0,0,1,0-.09,1.25,1.25,0,0,1,0-.15.47.47,0,0,0,0-.2.45.45,0,0,1,0-.2A.34.34,0,0,1,4.07,19a.23.23,0,0,0,0-.24.41.41,0,0,0-.28-.15.58.58,0,0,0-.42.06l-.09.05-.08,0a.57.57,0,0,0-.19,0,.37.37,0,0,0-.18.12l-.06.08a.45.45,0,0,0-.2,0,.27.27,0,0,0-.17.08.5.5,0,0,0-.16-.05A.46.46,0,0,0,1.9,19a.71.71,0,0,0-.15.44,1.64,1.64,0,0,1,0,.22.83.83,0,0,0,0,.27c0,.18.11.33.16.49a2.13,2.13,0,0,1,.11.5v.28a1.09,1.09,0,0,0,.07.3,1.23,1.23,0,0,0,.42.52,1.43,1.43,0,0,0,.35.18.76.76,0,0,0,.48,0,.27.27,0,0,0,.12-.06l0,0,0,0h0A.41.41,0,0,1,3.65,22a.92.92,0,0,1,.25-.08,5.16,5.16,0,0,1,.58-.06l.3,0h.07l0,.11a1.79,1.79,0,0,0-.15.45,2.4,2.4,0,0,0,0,.73.68.68,0,0,0,0,.14.84.84,0,0,0-.29.19.77.77,0,0,0-.15.79,1.57,1.57,0,0,0,.27.48,2.31,2.31,0,0,0,.52.45,5.16,5.16,0,0,0,.7.37,3,3,0,0,0,.87.23,7,7,0,0,0,1.78,0,4.91,4.91,0,0,0,1.2-.29l.87.13c.36,0,.79.08,1.3.11s1.07,0,1.7,0,1.27-.12,2-.17l2.2-.16c.76-.06,1.55-.1,2.36-.12s1.63,0,2.45-.11a20.71,20.71,0,0,0,2.42-.38c.39-.08.77-.18,1.14-.29A5.29,5.29,0,0,0,27,24a.63.63,0,0,0,.24-.22.25.25,0,0,0,.05-.19A.47.47,0,0,0,27.27,23.53Z"/><path class="cls-6" d="M1.16,2.65a1.27,1.27,0,0,0,.47.09c.34,0,.54-.15.54-.38S2,2,1.74,1.89s-.62-.33-.62-.62S1.47.68,2,.68a1.18,1.18,0,0,1,.46.08L2.36,1A.94.94,0,0,0,2,.91c-.32,0-.47.16-.47.32s.17.31.48.46.57.4.57.65S2.15,3,1.63,3a1.52,1.52,0,0,1-.56-.1Z"/><path class="cls-6" d="M3,3H3V1.33h.37V3Zm.4-2c0,.1-.08.16-.23.16S2.93,1,2.93.92,3,.75,3.15.75,3.37.82,3.37.92Z"/><path class="cls-6" d="M4.91,1.89h0a.49.49,0,0,0,0-.12.35.35,0,0,0-.35-.24c-.27,0-.41.25-.41.6s.19.6.41.6a.33.33,0,0,0,.34-.23.36.36,0,0,0,0-.14Zm.39-.56c0,.12,0,.26,0,.51v.9c0,.42-.07.58-.23.7a1,1,0,0,1-.63.18,1.41,1.41,0,0,1-.51-.09L4,3.34a1.55,1.55,0,0,0,.44.06c.3,0,.48-.12.48-.49V2.75h0a.53.53,0,0,1-.45.19.7.7,0,0,1-.69-.79.75.75,0,0,1,.74-.84.49.49,0,0,1,.44.21H5l0-.19Z"/><path class="cls-6" d="M7.21,2.51c0,.18,0,.32,0,.44H6.91l0-.17h0a.69.69,0,0,1-.5.19c-.42,0-.58-.22-.58-.62v-1h.38v1c0,.25.06.44.31.44a.33.33,0,0,0,.34-.22.59.59,0,0,0,0-.14V1.33h.37Z"/><path class="cls-6" d="M8.74,2h0c0-.32-.17-.46-.35-.46S8,1.75,8,2ZM8,2.16c0,.5.29.6.56.6A1,1,0,0,0,9,2.7L9,2.89A1.58,1.58,0,0,1,8.49,3a.76.76,0,0,1-.85-.81.77.77,0,0,1,.79-.85A.64.64,0,0,1,9.1,2v.14Z"/><path class="cls-6" d="M11.41,2.91A1.18,1.18,0,0,1,11,3a.78.78,0,0,1-.86-.82.85.85,0,0,1,.93-.84.91.91,0,0,1,.33.05l-.07.21a.76.76,0,0,0-.27,0,.55.55,0,0,0-.54.62.53.53,0,0,0,.55.6.82.82,0,0,0,.28,0Z"/><path class="cls-6" d="M12,2.14h0c0,.27.07.63.41.63s.38-.38.38-.63-.06-.63-.39-.63-.4.38-.4.63m1.17,0a.75.75,0,0,1-.78.83.74.74,0,0,1-.77-.83.75.75,0,0,1,.79-.83A.74.74,0,0,1,13.15,2.14Z"/><path class="cls-6" d="M13.57,1.75c0-.19,0-.29,0-.42h.32l0,.2h0a.67.67,0,0,1,.54-.22.51.51,0,0,1,.57.55V3h-.37v-1c0-.19-.06-.39-.33-.39a.35.35,0,0,0-.35.27.59.59,0,0,0,0,.14V3h-.37Z"/><rect class="cls-6" x="16.3" y="0.64" width="0.38" height="2.31"/><path class="cls-6" d="M18.1,2.11h0c-.19,0-.64,0-.64.38a.26.26,0,0,0,.28.28.33.33,0,0,0,.35-.24.28.28,0,0,0,0-.09Zm.06.84,0-.17h0a.6.6,0,0,1-.47.19c-.32,0-.56-.18-.56-.46s.47-.58,1-.58V1.88c0-.22-.07-.37-.37-.37a.93.93,0,0,0-.39.08l-.08-.18a1.34,1.34,0,0,1,.55-.1c.47,0,.67.21.67.57v.7a1.5,1.5,0,0,0,0,.37Z"/><path class="cls-6" d="M19.76,1.75c0-.19,0-.29,0-.42h.33v.2h0a.67.67,0,0,1,.53-.22.53.53,0,0,1,.5.24h0a.58.58,0,0,1,.23-.18.81.81,0,0,1,.33-.06.51.51,0,0,1,.56.57V3h-.37v-1c0-.21,0-.42-.33-.42a.37.37,0,0,0-.35.24.76.76,0,0,0,0,.15V3h-.37V1.89c0-.18-.05-.37-.33-.37a.36.36,0,0,0-.35.26.66.66,0,0,0,0,.14V3h-.37Z"/><path class="cls-6" d="M22.77,3h0V1.33h.38V3Zm.41-2c0,.1-.09.16-.23.16S22.74,1,22.74.92s.09-.17.21-.17S23.18.82,23.18.92Z"/><path class="cls-6" d="M23.66,1.75c0-.14,0-.3,0-.42H24l0,.26h0a.56.56,0,0,1,.49-.28h.08v.26H24.5a.45.45,0,0,0-.45.34.61.61,0,0,0,0,.14V3h-.38Z"/><path class="cls-6" d="M25.72,2.11h0c-.19,0-.65,0-.65.38a.27.27,0,0,0,.29.28.33.33,0,0,0,.35-.24.28.28,0,0,0,0-.09Zm.05.84,0-.17h0a.58.58,0,0,1-.46.19c-.32,0-.56-.18-.56-.46s.47-.58,1-.58V1.88c0-.22-.08-.37-.37-.37a.93.93,0,0,0-.39.08l-.09-.18a1.42,1.42,0,0,1,.55-.1c.47,0,.68.21.68.57v.7a2.23,2.23,0,0,0,0,.37Z"/><path class="cls-6" d="M27.66,2h0a.41.41,0,0,0,0-.11.36.36,0,0,0-.35-.31c-.31,0-.41.29-.41.62s.12.61.39.61a.36.36,0,0,0,.36-.28.3.3,0,0,0,0-.1ZM28,.64V2.56c0,.11,0,.29,0,.39h-.32l0-.21h0A.56.56,0,0,1,27.2,3c-.4,0-.69-.29-.69-.82s.35-.84.71-.84a.49.49,0,0,1,.43.19h0V.64Z"/><path class="cls-6" d="M29.43,2.11h0c-.2,0-.65,0-.65.38a.27.27,0,0,0,.29.28.35.35,0,0,0,.35-.24.28.28,0,0,0,0-.09Zm.05.84,0-.17h0A.58.58,0,0,1,29,3c-.32,0-.56-.18-.56-.46s.47-.58,1-.58V1.88c0-.22-.08-.37-.38-.37a.92.92,0,0,0-.38.08l-.09-.18a1.42,1.42,0,0,1,.55-.1c.47,0,.68.21.68.57v.7a2.23,2.23,0,0,0,0,.37Z"/><path class="cls-6" d="M1,5.3H1c0,.26.06.63.4.63s.39-.38.39-.63-.07-.63-.4-.63S1,5.05,1,5.3m1.17,0a.76.76,0,0,1-.79.83A.73.73,0,0,1,.65,5.3a.76.76,0,0,1,.79-.84A.75.75,0,0,1,2.2,5.3Z"/><path class="cls-6" d="M3,5.54H3a.18.18,0,0,0,0,.1.38.38,0,0,0,.35.28c.3,0,.41-.28.41-.63s-.11-.61-.42-.61A.39.39,0,0,0,3,5a.45.45,0,0,0,0,.11Zm-.39.57c0-.1,0-.28,0-.39V3.8H3v.88H3a.6.6,0,0,1,.5-.22c.36,0,.64.29.64.82s-.35.85-.71.85A.52.52,0,0,1,3,5.9h0l0,.21Z"/><path class="cls-6" d="M4.16,6.57h0a.61.61,0,0,0,.31-.13c.08-.08.11-.2.11-.51V4.49H5V6c0,.34-.07.5-.24.62a1,1,0,0,1-.52.15ZM5,4.07c0,.1-.09.17-.23.17s-.22-.07-.21-.17.09-.16.22-.16S5,4,5,4.07Z"/><path class="cls-6" d="M6.47,5.13h0c0-.32-.17-.47-.35-.47s-.37.25-.38.47Zm-.74.19c0,.49.29.6.56.6a1,1,0,0,0,.39-.06l.06.19a1.58,1.58,0,0,1-.52.08.76.76,0,0,1-.85-.82.77.77,0,0,1,.79-.85.65.65,0,0,1,.67.72v.14Z"/><path class="cls-6" d="M7.69,4.06v.43h.45v.2H7.69v1c0,.2.11.26.25.26h.15v.2a.91.91,0,0,1-.27,0A.6.6,0,0,1,7.46,6c-.1-.07-.14-.19-.14-.41V4.69H7v-.2h.29V4.14Z"/><path class="cls-6" d="M8.71,5.3h0c0,.26.06.63.41.63s.38-.38.38-.63-.06-.63-.4-.63-.39.38-.39.63m1.17,0a.75.75,0,0,1-.78.83.74.74,0,0,1-.77-.83.76.76,0,0,1,.79-.84A.75.75,0,0,1,9.88,5.3Z"/><path class="cls-6" d="M10.23,5.84a1.14,1.14,0,0,0,.38.08c.22,0,.35-.09.35-.23s-.07-.21-.3-.32-.48-.27-.48-.46.29-.45.65-.45a1,1,0,0,1,.42.09l-.1.19a.74.74,0,0,0-.31-.07c-.2,0-.31.1-.31.2s.06.17.3.29.48.26.48.49-.32.48-.7.48a1,1,0,0,1-.47-.1Z"/><path class="cls-6" d="M13.61,6.07a1.18,1.18,0,0,1-.39.06.78.78,0,0,1-.86-.82.84.84,0,0,1,.93-.84,1,1,0,0,1,.33,0l-.07.21a.76.76,0,0,0-.27-.05.56.56,0,0,0-.54.63.53.53,0,0,0,.55.6.77.77,0,0,0,.27,0Z"/><path class="cls-6" d="M14.9,5.13h0c0-.32-.17-.47-.35-.47s-.37.25-.38.47Zm-.74.19c0,.49.29.6.56.6a1,1,0,0,0,.39-.06l.06.19a1.56,1.56,0,0,1-.51.08.76.76,0,0,1-.86-.82.77.77,0,0,1,.79-.85.65.65,0,0,1,.67.72v.14Z"/><path class="cls-6" d="M15.66,4.91c0-.14,0-.3,0-.42H16l0,.25h0a.55.55,0,0,1,.49-.28h.08v.26H16.5a.45.45,0,0,0-.45.33.76.76,0,0,0,0,.15v.9h-.38Z"/><path class="cls-6" d="M18,6.07a1.18,1.18,0,0,1-.39.06.78.78,0,0,1-.86-.82.84.84,0,0,1,.93-.84,1,1,0,0,1,.33,0l-.07.21a.76.76,0,0,0-.27-.05.56.56,0,0,0-.54.63.53.53,0,0,0,.55.6.77.77,0,0,0,.27,0Z"/><path class="cls-6" d="M19.16,5.27h0c-.19,0-.65,0-.65.38a.27.27,0,0,0,.29.28.33.33,0,0,0,.35-.24.31.31,0,0,0,0-.09Zm.06.84,0-.17h0a.62.62,0,0,1-.47.19c-.32,0-.56-.18-.56-.46s.47-.58,1-.59V5c0-.21-.08-.36-.37-.36a.93.93,0,0,0-.39.08l-.08-.18a1.29,1.29,0,0,1,.54-.11c.48,0,.68.22.68.58v.7a1.5,1.5,0,0,0,0,.37Z"/><path class="cls-6" d="M20.05,4.91c0-.19,0-.29,0-.42h.32l0,.19h0a.67.67,0,0,1,.54-.22A.51.51,0,0,1,21.5,5V6.11h-.37V5.06c0-.19-.06-.38-.33-.38a.36.36,0,0,0-.36.26.66.66,0,0,0,0,.15v1h-.38Z"/><path class="cls-6" d="M22.3,5.3h0c0,.26.06.63.41.63s.38-.38.38-.63-.06-.63-.39-.63-.4.38-.4.63m1.17,0a.75.75,0,0,1-.78.83.74.74,0,0,1-.77-.83.76.76,0,0,1,.79-.84A.75.75,0,0,1,23.47,5.3Z"/><path class="cls-6" d="M23.82,5.84a1.2,1.2,0,0,0,.38.08c.22,0,.35-.09.35-.23s-.07-.21-.3-.32-.48-.27-.48-.46.29-.45.65-.45a1,1,0,0,1,.42.09l-.1.19a.74.74,0,0,0-.31-.07c-.2,0-.31.1-.31.2s.06.17.3.29.48.26.48.49-.32.48-.7.48a1,1,0,0,1-.47-.1Z"/><path class="cls-6" d="M26,5.84a1.14,1.14,0,0,0,.38.08c.21,0,.35-.09.35-.23s-.07-.21-.31-.32-.47-.27-.47-.46.28-.45.65-.45a1.05,1.05,0,0,1,.42.09l-.1.19a.74.74,0,0,0-.31-.07c-.2,0-.31.1-.31.2s.06.17.29.29.49.26.49.49-.32.48-.7.48A1,1,0,0,1,25.9,6Z"/><path class="cls-6" d="M27.46,6.11h0V4.49h.37V6.11Zm.4-2c0,.1-.08.17-.23.17s-.21-.07-.21-.17.1-.16.22-.16S27.86,4,27.86,4.07Z"/><path class="cls-6" d="M28.35,4.91c0-.19,0-.29,0-.42h.33l0,.19h0a.67.67,0,0,1,.54-.22A.52.52,0,0,1,29.8,5V6.11h-.38V5.06c0-.19-.05-.38-.32-.38a.36.36,0,0,0-.36.26.66.66,0,0,0,0,.15v1h-.38Z"/><path class="cls-6" d="M11.17,9a1.07,1.07,0,0,0,.37.08c.22,0,.35-.09.35-.23s-.06-.21-.3-.32-.47-.28-.47-.46.28-.45.64-.45a1.13,1.13,0,0,1,.43.08l-.11.2a.68.68,0,0,0-.31-.07c-.2,0-.3.1-.3.2s0,.17.29.28.49.27.49.49-.33.48-.71.48a1,1,0,0,1-.47-.09Z"/><path class="cls-6" d="M12.91,8.46h0c0,.26.06.63.4.63s.39-.38.39-.63-.07-.63-.4-.63-.39.38-.39.63m1.17,0a.75.75,0,0,1-.79.83.73.73,0,0,1-.76-.83.76.76,0,0,1,.79-.84A.74.74,0,0,1,14.08,8.46Z"/><path class="cls-6" d="M14.49,8.07c0-.2,0-.29,0-.42h.32l0,.19h0a.67.67,0,0,1,.54-.22.51.51,0,0,1,.57.56V9.26h-.38v-1c0-.19-.05-.38-.32-.38a.36.36,0,0,0-.36.26.61.61,0,0,0,0,.14v1h-.38Z"/><path class="cls-6" d="M16.46,9.26h0V7.65h.38V9.26Zm.41-2c0,.1-.09.17-.23.17s-.21-.07-.21-.17.09-.17.21-.17S16.87,7.13,16.87,7.23Z"/><path class="cls-6" d="M18.4,8.26h0V8.15a.36.36,0,0,0-.35-.31c-.31,0-.42.3-.42.62s.13.62.4.62a.37.37,0,0,0,.36-.28.37.37,0,0,0,0-.11ZM18.77,7V8.88c0,.11,0,.29,0,.38h-.32l0-.2h0a.56.56,0,0,1-.49.23c-.4,0-.68-.3-.68-.83s.34-.84.71-.84a.48.48,0,0,1,.42.2h0V7Z"/><path class="cls-6" d="M19.57,8.46h0c0,.26.07.63.41.63s.38-.38.38-.63-.06-.63-.39-.63-.4.38-.4.63m1.17,0a.75.75,0,0,1-.78.83.73.73,0,0,1-.76-.83A.76.76,0,0,1,20,7.62.74.74,0,0,1,20.74,8.46Z"/><path class="cls-6" d="M22.92,8.29h0c0-.32-.17-.47-.35-.47s-.37.25-.38.47Zm-.73.19c0,.49.28.6.55.6A1.22,1.22,0,0,0,23.13,9l.06.19a1.57,1.57,0,0,1-.51.07.76.76,0,0,1-.86-.81.77.77,0,0,1,.79-.85.65.65,0,0,1,.67.72v.14Z"/><path class="cls-6" d="M23.69,8.07c0-.2,0-.29,0-.42H24l0,.19h0a.67.67,0,0,1,.54-.22.51.51,0,0,1,.57.56V9.26h-.37v-1c0-.19-.06-.38-.33-.38a.35.35,0,0,0-.35.26.59.59,0,0,0,0,.14v1h-.37Z"/><path class="cls-6" d="M27.83,8.82c0,.18,0,.32,0,.44h-.33l0-.17h0a.7.7,0,0,1-.51.2c-.41,0-.57-.22-.57-.62v-1h.37v1c0,.26.06.44.32.44a.34.34,0,0,0,.34-.21.66.66,0,0,0,0-.15V7.65h.38Z"/><path class="cls-6" d="M28.35,8.07c0-.2,0-.29,0-.42h.33l0,.19h0a.67.67,0,0,1,.54-.22.51.51,0,0,1,.57.56V9.26h-.38v-1c0-.19-.05-.38-.32-.38a.36.36,0,0,0-.36.26.61.61,0,0,0,0,.14v1h-.38Z"/><path class="cls-6" d="M15.56,11.59h0c-.19,0-.64,0-.64.37a.27.27,0,0,0,.29.29.33.33,0,0,0,.34-.25.28.28,0,0,0,0-.09Zm.06.83h0l0-.17h0a.61.61,0,0,1-.47.2.51.51,0,0,1-.56-.46c0-.41.47-.59,1-.59v-.05c0-.22-.07-.37-.37-.37a.93.93,0,0,0-.39.09l-.08-.19a1.58,1.58,0,0,1,.55-.1c.47,0,.67.21.67.58v.69a1.42,1.42,0,0,0,0,.37Zm.25-2.27-.51.45h-.25l.38-.45Z"/><path class="cls-6" d="M16.46,11.22c0-.19,0-.28,0-.41h.32l0,.19h0a.7.7,0,0,1,.54-.22.51.51,0,0,1,.57.56v1.08h-.37v-1c0-.19-.05-.38-.33-.38a.36.36,0,0,0-.35.26.59.59,0,0,0,0,.14v1h-.37Z"/><path class="cls-6" d="M19.48,11.36h0a.36.36,0,0,0,0-.11.35.35,0,0,0-.34-.25c-.27,0-.42.25-.42.61s.19.6.42.6a.33.33,0,0,0,.33-.23.4.4,0,0,0,0-.15Zm.39-.55c0,.11,0,.25,0,.5v.9c0,.43-.08.59-.24.7a1,1,0,0,1-.62.18,1.78,1.78,0,0,1-.52-.08l.09-.2a1.43,1.43,0,0,0,.44.07c.29,0,.48-.13.48-.5v-.16h0a.52.52,0,0,1-.45.2.72.72,0,0,1-.7-.8.76.76,0,0,1,.74-.84.48.48,0,0,1,.44.21h0l0-.18Z"/><path class="cls-6" d="M21.78,12c0,.18,0,.32,0,.44h-.33l0-.17h0a.74.74,0,0,1-.51.2c-.41,0-.57-.22-.57-.62v-1h.37v1c0,.25.06.44.32.44a.32.32,0,0,0,.33-.21.39.39,0,0,0,0-.15V10.81h.38Z"/><rect class="cls-6" x="22.3" y="10.11" width="0.37" height="2.31"/><path class="cls-6" d="M23.5,11.61h0c0,.27.07.63.41.63s.39-.38.39-.63-.07-.62-.4-.62-.4.38-.4.62m1.18,0a.76.76,0,0,1-.79.84.74.74,0,0,1-.76-.83.76.76,0,0,1,.79-.84A.74.74,0,0,1,24.68,11.61Z"/><path class="cls-6" d="M26.9,11.42h0v-.11a.37.37,0,0,0-.35-.31c-.32,0-.42.3-.42.62s.12.61.4.61a.37.37,0,0,0,.36-.27.37.37,0,0,0,0-.11Zm.37-1.31V12c0,.11,0,.3,0,.39H27l0-.2h0a.59.59,0,0,1-.49.23c-.4,0-.69-.3-.69-.83a.74.74,0,0,1,.71-.84.51.51,0,0,1,.43.19h0v-.86Z"/><path class="cls-6" d="M28.8,11.45h0c0-.33-.17-.47-.35-.47s-.37.25-.39.47Zm-.74.19c0,.49.28.6.56.6a1,1,0,0,0,.39-.07l0,.19a1.56,1.56,0,0,1-.51.08.76.76,0,0,1-.86-.81.78.78,0,0,1,.8-.85.64.64,0,0,1,.67.71.66.66,0,0,1,0,.15Z"/><polygon class="cls-6" points="24 13.67 23.99 13.67 23.46 13.88 23.39 13.68 24.06 13.41 24.37 13.41 24.37 15.58 24 15.58 24 13.67"/><path class="cls-6" d="M26.32,15h0c0-.25-.21-.39-.45-.5a.59.59,0,0,0-.41.48.39.39,0,0,0,.43.41.38.38,0,0,0,.43-.39m-.77-1.11h0c0,.22.2.33.39.41a.48.48,0,0,0,.32-.4.33.33,0,0,0-.36-.35A.33.33,0,0,0,25.55,13.91Zm-.46,1.14c0-.31.26-.5.52-.62h0a.61.61,0,0,1-.41-.5c0-.33.34-.54.73-.54s.68.26.68.51-.13.38-.42.51h0c.29.14.5.33.5.59s-.32.6-.81.6S25.09,15.32,25.09,15.05Z"/><path class="cls-6" d="M27.33,14.49h0c0,.53.14.89.45.89s.41-.37.41-.89-.12-.89-.42-.89-.44.37-.44.89m1.24,0c0,.79-.37,1.11-.82,1.11S27,15.2,27,14.5s.32-1.12.83-1.12S28.57,13.8,28.57,14.49Z"/><path class="cls-6" d="M29.06,13.74h0c0,.16.17.28.37.28s.37-.12.37-.29a.33.33,0,0,0-.37-.29.34.34,0,0,0-.37.3m1,0c0,.25-.29.43-.6.43s-.59-.18-.59-.42.27-.44.59-.44S30,13.49,30,13.73Z"/></svg>