<svg id="Capa_1" data-name="Capa 1" xmlns="http://www.w3.org/2000/svg" viewBox="0 0 31.38 26.77"><defs><style>.cls-1{fill:#f05050;}.cls-2{fill:#ffd82c;}.cls-3{fill:#f5a4c7;}.cls-4{fill:#fbc9b5;}.cls-5{fill:#fccdb5;}.cls-6{fill:#231f20;}</style></defs><title>5-3meses</title><path class="cls-1" d="M13.3,19.54a33.44,33.44,0,0,0-3.24,1.09c-.9.42-3.71,2.5-2.56,2.73s1.65,0,1.92.26a3.44,3.44,0,0,0,1.23.42,37.64,37.64,0,0,0,8.73,1.11c3.92-.13,6.52-.58,6.81-.85s.21-1.24.21-1.24l-1.53-2.69Z"/><path class="cls-2" d="M7.77,15.54s.93-.65.74-1.13,0-1.21.43-1.23a2.55,2.55,0,0,1,1.41.4,1.73,1.73,0,0,0,1.27,1.09s.43.18.3.33A9.17,9.17,0,0,1,9,15.86c-1,0-1.23-.32-1.23-.32"/><path class="cls-3" d="M19.77,21.84s0,.54,1.43.89a3.65,3.65,0,0,0,3.07-.38c.27-.37,0-3,0-3s-.93-1.05-1-1.18S22,18,22,18Z"/><path class="cls-4" d="M0,14.23a11.72,11.72,0,0,0,1.61-.69c.28-.27,1.24-1.29,1.72-1.67s2.21-.42,3.19-.66a13.09,13.09,0,0,1,3.17-.41,2.56,2.56,0,0,1-1.26.9A13.55,13.55,0,0,0,6,12.29c-.62.31-.8.6-.52.87s.67.25,1.26.16A1.82,1.82,0,0,1,8,13.45c.21.19.4.27.26.39a4.2,4.2,0,0,1-1,.26,9,9,0,0,1-2.05.53,6.63,6.63,0,0,1-1.6-.12S1.25,16,0,16.71Z"/><path class="cls-5" d="M22.88,19.47s-.85,0-1,.17a2.25,2.25,0,0,0-.57,1.41,1.52,1.52,0,0,0,1.46,1.33,3.88,3.88,0,0,0,1.77-.4l.56-.41a1,1,0,0,1,.47.49c.13.33.52.59.52.72s.13.6.31.66.13.06,1,.08A4.78,4.78,0,0,0,29.79,23c.13-.22.52-.35.53-.57s-.07-.41-.17-.41-.82.19-1.25.2-.8-.08-.94-.39c0,0-.26,0,.37-.2a7.75,7.75,0,0,0,1.58-.46.8.8,0,0,1,.56-.25c.17,0,.43-.22.32-.37a.38.38,0,0,0-.32-.15s-.68.25-.71.25-.4-.09-.7-.13a1.62,1.62,0,0,1-.56-.17,10.75,10.75,0,0,1-1.39-1.49c-.25-.44-.53-.84-1.1-.87a18.88,18.88,0,0,0-2.5.3l.29.72,0,.23Z"/><path class="cls-5" d="M16.74,18.11a6.1,6.1,0,0,0-.52-1c-.19-.24-.43-.33-.49-.57s.07-.55-.32-.63a.83.83,0,0,0-.68.23L14.38,16a6.45,6.45,0,0,0-2.6-.2c-.74.27-1,.61-1,.69s-.24.58-.21.7-.56,1,.25,1.48,1.21.74,1.21.74-.4,0-.31.32a.43.43,0,0,0,.54.31c.22,0,.13.14.37.05a1.2,1.2,0,0,1,.47-.09,2,2,0,0,1,.37.25,15.18,15.18,0,0,1,1.31,1.42c.28.46.82,1.09,1.22.88s1.33-.58,1.38-.61l.61-.31a1.73,1.73,0,0,1,1,0,2.18,2.18,0,0,0,1,.18.69.69,0,0,0,.33-.43A11.36,11.36,0,0,1,21.44,19a6.41,6.41,0,0,0,1-1,2.49,2.49,0,0,0-1.06-.26l-1.3.06-.65,0a7.59,7.59,0,0,1-.63-1c-.22-.48-.29-1-.42-1.23a2.18,2.18,0,0,0-.38-.69c-.09,0-.22-.23-.47-.37a1.12,1.12,0,0,0-.59-.1,1.66,1.66,0,0,0-.39-.08c-.06,0-.55.33-.55.46s0,.35,0,.49-.07.35.1.45.81.59.89,1,.14,1,.14,1l0,.46s-.35,0-.37-.06"/><path class="cls-6" d="M3.58,14.51,0,16.52v.32a23,23,0,0,0,3.58-2.33"/><path class="cls-6" d="M8,13.29H8a1.64,1.64,0,0,0-.75-.12c-.25,0-.47,0-.69.07a2.57,2.57,0,0,1-.61,0,.71.71,0,0,1-.21,0,.26.26,0,0,1-.1-.07l0,0h0l0,0c-.15-.21.19-.5.55-.69a5.94,5.94,0,0,1,1.29-.46h0l.1.12c.11.08.23.15.35.22a1.7,1.7,0,0,1,.61.45,1.22,1.22,0,0,1,.17.29.59.59,0,0,1,.06.14v0a.84.84,0,0,0-.25.17.68.68,0,0,0-.14.22l-.09-.08A1,1,0,0,0,8,13.29m.14-2.21h0c.46-.1,1-.18,1.4-.32v0a.48.48,0,0,1-.05.11,1.2,1.2,0,0,1-.19.21,2.06,2.06,0,0,1-.53.36,2.55,2.55,0,0,1-.68.2l-.3.05-.12-.11a2.25,2.25,0,0,1-.21-.24.42.42,0,0,1-.07-.13Zm.56,1.59h0l0,0-.28-.25-.23-.28a1.94,1.94,0,0,0-.23-.26l0,0,.23,0a4,4,0,0,0,.69-.22,2.8,2.8,0,0,0-.14.8A1.51,1.51,0,0,0,8.66,12.67Zm.25.79h0a.28.28,0,0,0,.22-.09h.1l.22,0a1.36,1.36,0,0,1,.39.12,2.09,2.09,0,0,1,.61.49,2.54,2.54,0,0,0,.28.29,2.8,2.8,0,0,0,.35.25c.21.13.43.25.65.37a7.15,7.15,0,0,1-1.69.63l-.48.1a4.07,4.07,0,0,1-.49,0c-.17,0-.33,0-.49,0l-.24,0-.11,0-.13,0H8.07l.18-.07c.27-.09.57-.16.87-.23a.43.43,0,0,0,.43.16c.36,0,.57-.2.51-.36l1.21-.23v0c-.37,0-.73,0-1.09.05S9.46,15,9.11,15s-.5.08-.75.14l.09-.07a1.34,1.34,0,0,0,.27-.31.46.46,0,0,0,.06-.41,1.42,1.42,0,0,1-.08-.31,1,1,0,0,1,0-.3.71.71,0,0,1,.13-.26Zm-1.82.81a3.25,3.25,0,0,1,.46-.13,4.65,4.65,0,0,1,.53,0h.21a1.83,1.83,0,0,0,.12.31c.08.15,0,.37-.19.55a1.71,1.71,0,0,1-.22.25l-.23.07-.14.07-.08,0-.08.07a.21.21,0,0,0,0,.27.46.46,0,0,0,.19.12A1.41,1.41,0,0,0,8,16l.13,0,.15,0,.29,0a5.52,5.52,0,0,0,.58,0A5.22,5.22,0,0,0,9.71,16l.53-.13A6.08,6.08,0,0,0,12.05,15h0s0-.09-.05-.11a4.91,4.91,0,0,1-.8-.38,1.65,1.65,0,0,1-.33-.24,1.67,1.67,0,0,1-.25-.28,2.26,2.26,0,0,0-.57-.59,1.68,1.68,0,0,0-.47-.21l-.26-.06H9.19c0-.09,0-.19,0-.28a2.18,2.18,0,0,0,0-.44,2.88,2.88,0,0,0-.27-.83,2,2,0,0,0,.51-.33A1.6,1.6,0,0,0,9.62,11a.69.69,0,0,0,.07-.15.25.25,0,0,0,0-.09h0v0s0-.06-.12-.06h0A13.73,13.73,0,0,1,8,10.9c-1,.15-2,.32-3,.4-.26,0-.46,0-.77,0a1.8,1.8,0,0,0-.81.26,4.32,4.32,0,0,0-1,.84c-.27.29-.51.56-.78.82l-.21.15-.25.14-.53.27L0,14.09v.41c.32-.12.64-.25,1-.4a5.41,5.41,0,0,0,1.14-.64,10.47,10.47,0,0,0,.79-.85,4.16,4.16,0,0,1,.84-.78,1.16,1.16,0,0,1,.54-.18c.2,0,.52,0,.77,0,.72-.08,1.41-.2,2.1-.33a.32.32,0,0,0,0,.14.91.91,0,0,0,.14.34l0,0h0a8.36,8.36,0,0,0-1.39.44,2.46,2.46,0,0,0-.58.36.47.47,0,0,0-.16.57l.05.07v0l0,0h0l0,0a.52.52,0,0,0,.13.11,1,1,0,0,0,.21.09.78.78,0,0,0,.21,0,2.63,2.63,0,0,0,.75,0,2.6,2.6,0,0,1,1.13,0l.09,0,.08.06a.61.61,0,0,1,.16.16l0,0a4.46,4.46,0,0,0-.62,0,2.26,2.26,0,0,0-.55.16c-.32.11-.62.21-.91.29a5.44,5.44,0,0,1-1.55.22,3.23,3.23,0,0,1-1-.16l-.32-.12,0,0,.3.16a3.41,3.41,0,0,0,1,.25,5.72,5.72,0,0,0,1.68-.15C6.44,14.46,6.76,14.38,7.09,14.27Z"/><path class="cls-6" d="M7.16,15.4l0-.17-.06,0a1.1,1.1,0,0,0-.12.11.76.76,0,0,0-.13.17.38.38,0,0,0,0,.24.35.35,0,0,0,.18.22.78.78,0,0,0,.27.09.81.81,0,0,0,.28,0L7.38,16c-.13-.06-.24-.14-.26-.25a.54.54,0,0,1,0-.18c0-.05,0-.11,0-.17"/><path class="cls-6" d="M6.38,15.77s0-.12,0-.18a.48.48,0,0,1,0-.17.91.91,0,0,1,.07-.14.1.1,0,0,0,0,0l-.06,0a.72.72,0,0,0-.15.11.5.5,0,0,0-.15.2s0,.08,0,.13a.39.39,0,0,0,0,.14.67.67,0,0,0,.23.21,1,1,0,0,0,.28.1.87.87,0,0,0,.29,0l-.22-.12a.91.91,0,0,1-.34-.3"/><path class="cls-6" d="M28,21.75h0c-.05-.14-.11-.28-.17-.42a5,5,0,0,0-.25-.64,6,6,0,0,0-.3-.63,2.33,2.33,0,0,0-.47-.61,1.64,1.64,0,0,0-1-.32,8,8,0,0,0-1,0c-.33,0-.67,0-1,0a.52.52,0,0,0,.06-.15.66.66,0,0,0,0-.34.77.77,0,0,0-.19-.32l.41,0,.63,0c.24,0,.53,0,.8,0a1.81,1.81,0,0,1,.76.17,1.73,1.73,0,0,1,.55.53c.17.23.36.48.57.72a5.48,5.48,0,0,0,.75.67,1.3,1.3,0,0,0,.54.27c.15,0,.19,0,.29,0l.27.08a1.26,1.26,0,0,0,.64,0c.19,0,.39-.1.55-.15h.09l0,0s0,0,0,0v.06a.26.26,0,0,1-.16.19.13.13,0,0,1-.09,0h-.14a.51.51,0,0,0-.26.07c-.14.11-.12.15-.15.17l-.1.07c-.18.08-.49.12-.72.19a3,3,0,0,0-.58.22l-.38.18m.81.57h0a1.89,1.89,0,0,0,.49-.05l.46-.07.23,0c.06,0,.15,0,.14,0a.28.28,0,0,1,.06.25c0,.08-.11.11-.24.11h-.08a1.88,1.88,0,0,0-.42,0h0c-.07,0-.12.06-.11.11s.07.1.16.09h.34s0,0,0,0a.23.23,0,0,1-.07.07l-.06,0a.22.22,0,0,1-.1,0l-.11,0h0a.28.28,0,0,0-.25,0c-.06.06,0,.15.06.19l0,0,.06,0h0l-.05,0h0a1.55,1.55,0,0,0-.22-.12h0a.3.3,0,0,0-.23,0c-.08,0-.12.1-.1.17s-.18.07-.18.15h0a.16.16,0,0,0,0,.07l-.34,0c-.34,0-.68-.05-1,0a2.94,2.94,0,0,1-.43,0c-.13,0-.16,0-.18-.07a.31.31,0,0,1,0-.11,1.23,1.23,0,0,0,0-.19,1.48,1.48,0,0,0,0-.19,1.14,1.14,0,0,0-.07-.19.18.18,0,0,0-.07-.08h0a3,3,0,0,1-.64-.5.6.6,0,0,1-.09-.13s0,0,0-.06l0-.09-.09-.35h0a.15.15,0,0,0-.08-.1.31.31,0,0,0-.31,0,6.35,6.35,0,0,1-.8.63,1.67,1.67,0,0,1-.23.12,1.45,1.45,0,0,1-.25.1,3.38,3.38,0,0,1-.57.11,2.4,2.4,0,0,1-1.17-.14,1.26,1.26,0,0,1-.23-.13,1,1,0,0,1-.19-.17,2.14,2.14,0,0,1-.13-.19l-.09-.21a1.68,1.68,0,0,1,.18-1.27,1.22,1.22,0,0,1,.55-.47,3.19,3.19,0,0,1,.86-.19,16.43,16.43,0,0,1,1.86-.09c.31,0,.62,0,.92,0s.63.06.72.19a3,3,0,0,1,.47.53c.13.19.25.39.36.59s.22.41.32.62.18.41.3.62A1.08,1.08,0,0,0,28.83,22.32Zm-2.59,1.79h0c-.14.22-.61.31-1.11.4s-1.1.14-1.75.19c-1.31.09-2.84.15-4.48.18-.83,0-1.66,0-2.52,0s-1.72-.13-2.59-.23-1.72-.24-2.54-.42c-.41-.1-.81-.2-1.19-.33l-.27-.1a.8.8,0,0,1-.22-.12l0,0h0l-.07-.06a.77.77,0,0,0-.16-.07A1.3,1.3,0,0,0,9,23.41c-.43-.05-.84,0-1.2-.09a1.4,1.4,0,0,1-.24-.06l-.07,0s-.06,0-.09-.06,0,0,0-.07A.74.74,0,0,1,7.47,23a7.21,7.21,0,0,1,1.19-1.15,12.39,12.39,0,0,1,2.27-1.48,3.41,3.41,0,0,1,.78-.28h0l.17.05.31,0h.32a1.24,1.24,0,0,0,.33,0,.94.94,0,0,0,.15-.06h0l.1.05.1,0a.19.19,0,0,0,0,.08.59.59,0,0,0,0,.14l.06.09-2.67,1,2.93-.7h0A3,3,0,0,0,14,21l.2.18L12.86,22l1.53-.59h0c0,.09.1.2.16.3a1.91,1.91,0,0,0,.22.3,1.41,1.41,0,0,0,.78.43,1.4,1.4,0,0,0,.5,0l.11,0,.12,0a1,1,0,0,0,.21-.08,7.22,7.22,0,0,0,1-.47l-.11,1.62L18,21.57l.61.14,1,1.7-.41-1.55.09,0a2.58,2.58,0,0,0,.43.07v0a1,1,0,0,0,.14.17,1.38,1.38,0,0,0,.25.21,3,3,0,0,0,.78.38,4.75,4.75,0,0,0,1.05.23,5.43,5.43,0,0,0,.57,0l.29,0,.26,0a2.82,2.82,0,0,0,.89-.29.69.69,0,0,0,.36-.41.13.13,0,0,0,0-.06l.17-.07a5,5,0,0,0,.6-.36v0l0,.09a.26.26,0,0,0,0,.11.72.72,0,0,0,.12.21,2.08,2.08,0,0,0,.34.32l.32.23a.2.2,0,0,1,0,.11A.8.8,0,0,1,26,23c0,.06,0,.1,0,.16a.55.55,0,0,0,0,.23.6.6,0,0,0,.26.23h0A.47.47,0,0,1,26.24,24.11Zm-14.7-5.24h0L11,18.4l0,0,.35.28a5,5,0,0,1-.57-1l.43.29-.19-.4.32.26L11,17l.51.5,0-.29.33.24-.38-.77.46.36-.21-.44.46.15-.52-.46.74.24L12,16.18l.74.24L12.16,16l1,.11L13,15.94l.55.1-.37-.16,1.17.35-.48-.31a1.29,1.29,0,0,1,.43.15,7.53,7.53,0,0,1,.8.53,3.87,3.87,0,0,1-.19-.48c0-.07.13-.12.25-.12a.44.44,0,0,1,.2,0l.08,0s.06,0,.07.06a.86.86,0,0,1,.23.61v.06l.12.05A1.11,1.11,0,0,1,16,17a.81.81,0,0,1,.25.35l.09.21a2.31,2.31,0,0,1,.21.86,1.59,1.59,0,0,1-.06.43,1,1,0,0,1-.25.38l-.2.17s0,0,0,0a.42.42,0,0,0-.11-.07h-.37a.76.76,0,0,0-.2.08.4.4,0,0,0-.12.1l0-.1a.75.75,0,0,0-.07-.12.34.34,0,0,0-.14-.12.39.39,0,0,0-.24,0,.48.48,0,0,0-.16.09.35.35,0,0,0-.08.1l-.06-.1A.43.43,0,0,0,14,19a.45.45,0,0,0-.25.16l-.09.15,0,.14a.54.54,0,0,0,0,.18l-.08,0a.77.77,0,0,0-.18.18l-.08.13-.09,0a0,0,0,0,1,0,0s0,0,0,0h0L13,19.89l-.08,0-.11,0a1,1,0,0,1-.25,0l-.25,0a1.82,1.82,0,0,1-.25-.07.38.38,0,0,1-.17-.08s0,0,0-.06.16-.16.28-.22l.22-.11-.2-.13L11.71,19Zm4.05,1.78h0S15.57,20.67,15.59,20.65Zm.08-1.07Zm0,0Zm0,0Zm-.12.09ZM13.59,20h0a.36.36,0,0,1,0-.1.5.5,0,0,1,.05-.13,1.34,1.34,0,0,0,.12.24Zm3.23-1.17h0a1.33,1.33,0,0,0,.14-.48v-.2l.15,0h0l1.08-.09,1.41-.14.68-.07c.22,0,.44,0,.66,0a3,3,0,0,1,.61.09l.28.09.17.08,0,0a1.3,1.3,0,0,1-.1.15l-.25.29a1.91,1.91,0,0,0-.24.32,2.79,2.79,0,0,0-.19.33l-.35.65c-.12.22-.25.43-.39.65s-.26.43-.36.65l-.15.33a.2.2,0,0,1-.16.13,1.08,1.08,0,0,1-.39,0l-.28-.06v0h-.05l-.15,0a6,6,0,0,0-.85,0,4.35,4.35,0,0,0,.9-1l0,0c-.47.28-.88.58-1.29.87a7,7,0,0,0-.58.47,3.4,3.4,0,0,1-.3.23,1.38,1.38,0,0,1-.33.2l-.19.07-.09,0-.11,0a.83.83,0,0,1-.39,0,.93.93,0,0,1-.49-.42,1.74,1.74,0,0,1-.14-.27c0-.09-.07-.19-.12-.3a1.4,1.4,0,0,0-.22-.32,2,2,0,0,0-.3-.27h0l0,0c-.14-.06-.28-.15-.41-.22a1.45,1.45,0,0,1-.31-.26.21.21,0,0,1,0-.06.16.16,0,0,1,0-.07h0l.22,0v0a1.84,1.84,0,0,0,.17.22l0,0a1.78,1.78,0,0,1-.06-.51.54.54,0,0,1,.05-.22l.06-.11,0,0a.83.83,0,0,0,.07.13c.07.16.18.32.27.48v0a.19.19,0,0,0,.2.07c.09,0,.14-.08.11-.14h0a2.77,2.77,0,0,0-.12-.41v0a.75.75,0,0,1,0-.21.22.22,0,0,1,0-.08l.11-.05c.07,0,.11,0,.15.07a.3.3,0,0,1,0,.1v.57s0,.1.13.12a.2.2,0,0,0,.17,0,.21.21,0,0,0,.11.12h0l0,0,.05,0,.08.06a.19.19,0,0,1,.07.14.12.12,0,0,1,0,.08.45.45,0,0,1-.05.1l0,.06,0,0v.05a.07.07,0,0,0,0,.06.22.22,0,0,0,.15.09.34.34,0,0,0,.17,0l.05,0v0l.26.15a.65.65,0,0,1,.28.34h.05a.49.49,0,0,0-.13-.45,1.7,1.7,0,0,0-.19-.19l-.11-.08v0a.75.75,0,0,0,0-.16.31.31,0,0,0,0-.21h0a.53.53,0,0,0,.2-.11s0-.08.06-.14a.52.52,0,0,1,.07-.11.3.3,0,0,0-.18-.07.34.34,0,0,0-.2,0v0a.57.57,0,0,0,.07-.25h0a1.85,1.85,0,0,0,.33-.21A1.14,1.14,0,0,0,16.82,18.87ZM17,16h0l-.21-.1a1.78,1.78,0,0,1-.36-.27.71.71,0,0,1-.12-.15.21.21,0,0,1,0-.06v0c0-.08.09-.15.19-.2a.68.68,0,0,1,.35,0,.35.35,0,0,1,.23.1s0,.09-.05.13a1.77,1.77,0,0,1-.25.07,1.13,1.13,0,0,0,.3,0c.1,0,.26-.11.22-.24a.05.05,0,0,0,0,0l.14-.05.07,0-.09,0a.31.31,0,0,1-.14-.06v0h0v0s0,0,0,0a.79.79,0,0,1,.1-.16.24.24,0,0,1,.06-.08l0,0,0,0h0l.24.06c-.16.06-.26.17-.26.25a.6.6,0,0,0,0,.31.34.34,0,0,0,.06.12l.06.05a.12.12,0,0,0,.12,0c.1-.07.08-.11.1-.14v0l0,0s-.07.08-.11.08,0-.07,0-.14a.59.59,0,0,1,.05-.23.17.17,0,0,1,.18-.09.2.2,0,0,1,.09,0l0,0,0,0,0,.05a1.58,1.58,0,0,1,.13.34.69.69,0,0,1,0,.35,1.51,1.51,0,0,0,.23.82,6.07,6.07,0,0,0,.45.61l.34.5c-.37.06-.74.12-1.11.2s-.66.13-1,.21c0-.12.05-.33.07-.61s0-.47,0-.74a3.1,3.1,0,0,0,0-.42.53.53,0,0,0,0-.12v0l0,0,0,0A.25.25,0,0,0,17,16Zm-.69-1.12Zm.39-.15h0v-.07s0,0,0,0a.56.56,0,0,1,.13-.11s.08-.06.07-.07,0,0,0,0a.16.16,0,0,1,.11,0h0a.69.69,0,0,0-.11.13.53.53,0,0,0-.08.22l-.1,0s-.06,0-.05,0Zm.69-.16h.05C17.36,14.63,17.33,14.6,17.36,14.6Zm4.88,3.64h0a.27.27,0,0,1-.17-.06Zm.15.06h0a.22.22,0,0,0,.07-.09l0-.07.16.05a1.49,1.49,0,0,1,.63.31.63.63,0,0,1,.12.11c0,.05.07.08.09.13s.1.18.15.26l.07.16-.77.11a3.51,3.51,0,0,0-.92.28,1.3,1.3,0,0,0-.55.57,2,2,0,0,0-.1,1.31,1.89,1.89,0,0,0,.09.21.86.86,0,0,0,.13.2.77.77,0,0,0,.18.18,1,1,0,0,0,.24.15,2.53,2.53,0,0,0,1.24.23,3.72,3.72,0,0,0,.65-.08,1.71,1.71,0,0,0,.3-.09.86.86,0,0,1-.42.25,2.63,2.63,0,0,1-.36.1l-.44.05-.24,0H22.5a3.87,3.87,0,0,1-.48,0,5.85,5.85,0,0,1-1.73-.42,1.72,1.72,0,0,1-.46-.25h.05a.77.77,0,0,0,.34-.12.6.6,0,0,0,.17-.21c.05-.11.1-.23.14-.34s.14-.45.21-.67a3.78,3.78,0,0,1,.65-1.3,2.48,2.48,0,0,1,.25-.3,3.84,3.84,0,0,1,.29-.27,2.79,2.79,0,0,0,.32-.28Zm6.68,3.27a4.32,4.32,0,0,0,.86-.16.57.57,0,0,0,.23-.15.41.41,0,0,0,.09-.1h.09a.79.79,0,0,0,.38-.09.48.48,0,0,0,.26-.45.35.35,0,0,0-.05-.13.29.29,0,0,0-.07-.08h0a.15.15,0,0,0-.06,0,.43.43,0,0,0-.24-.05.56.56,0,0,0-.18.05,1.34,1.34,0,0,1-1,.21,1.58,1.58,0,0,0-.28-.08,2.16,2.16,0,0,0-.29,0,1.17,1.17,0,0,1-.37-.27,6.43,6.43,0,0,1-.58-.71c-.17-.24-.33-.47-.48-.71a1.65,1.65,0,0,0-.71-.67,2.15,2.15,0,0,0-1.09-.18,5.7,5.7,0,0,0-.84.1c-.24,0-.45.08-.62.13l-.42.11a1.64,1.64,0,0,0-.22-.14,1.39,1.39,0,0,0-.26-.1,1.36,1.36,0,0,0-.27,0,.65.65,0,0,0-.24,0l-.22,0,0,0h0a1.4,1.4,0,0,0-.33-.19,1.83,1.83,0,0,0-.35-.14,3.18,3.18,0,0,0-.76-.13,4,4,0,0,0-.77,0c-.25,0-.48.06-.71.1l-.21,0a3,3,0,0,0-.14-.56c-.07-.2-.2-.41-.29-.64a1.61,1.61,0,0,1-.15-.7,1.1,1.1,0,0,0,0-.44,1.69,1.69,0,0,0-.19-.38l0,0,0-.05a.63.63,0,0,0-.12-.11.76.76,0,0,0-.37-.1l-.17,0a.49.49,0,0,0-.11-.19.29.29,0,0,0-.13-.1.44.44,0,0,0-.35,0l-.05,0s0-.08-.12-.12a.49.49,0,0,0-.27,0l-.19.06-.15.07a.62.62,0,0,0-.23,0,.53.53,0,0,0-.29.19l0,.07s0,0,0,0a.35.35,0,0,0,0,.14.34.34,0,0,0,.11.3h0a.6.6,0,0,0-.14.21.33.33,0,0,0,0,.14.54.54,0,0,0,0,.15.87.87,0,0,0,.17.22,1.91,1.91,0,0,0,.48.35l.32.12s0,0,0,0,0,.27.08.4.09.51.12.72.1.5.13.62l-.14,0a2.71,2.71,0,0,0-.17-.68l-.09-.22a1.05,1.05,0,0,0-.15-.24,1.21,1.21,0,0,0-.23-.22.9.9,0,0,0-.24-.12,1.54,1.54,0,0,0-.11-.3.91.91,0,0,0-.29-.34l-.12-.07-.14,0a1.08,1.08,0,0,0-.31,0,.75.75,0,0,0-.29.09l0,0a4.06,4.06,0,0,0-1.41-.55,3.61,3.61,0,0,0-2.49.44,2,2,0,0,0-.81,2,2.11,2.11,0,0,0,1.38,1.38l.22.13-.05,0a.58.58,0,0,0-.17.23.28.28,0,0,0,.13.31l0,0a4,4,0,0,0-.8.21,7,7,0,0,0-1.16.55,12.35,12.35,0,0,0-1.31.87,5.5,5.5,0,0,0-1.29,1.22.88.88,0,0,0-.1.22.28.28,0,0,0,.11.32,1,1,0,0,0,.12.07.73.73,0,0,0,.19.07,1.88,1.88,0,0,0,.33.05c.43,0,.83,0,1.22,0a.77.77,0,0,1,.27,0,.35.35,0,0,1,.11,0l0,0h0l0,0h0a.92.92,0,0,0,.28.14l.3.1c.39.11.8.21,1.21.31.83.19,1.68.36,2.54.51a25,25,0,0,0,2.6.34c.87.08,1.74.1,2.56.1A40.85,40.85,0,0,0,23.44,25a17.8,17.8,0,0,0,1.78-.27,5.64,5.64,0,0,0,.72-.21,1.4,1.4,0,0,0,.3-.15l.12-.1.06-.1a.55.55,0,0,0,0-.49l.15,0a3.58,3.58,0,0,0,.56,0c.31,0,.64,0,1,0l.51,0h.13a.2.2,0,0,0,.1,0,.25.25,0,0,0,.14-.08l.1,0,.08,0,.1,0a.43.43,0,0,0,.1-.09.09.09,0,0,0,0-.07h0l.08,0h.05l0,0,.08-.06a.22.22,0,0,0,.08-.14A.5.5,0,0,0,30,23a.69.69,0,0,0,.12-.14l0-.09a.45.45,0,0,0,0-.11.16.16,0,0,0,.09,0,.27.27,0,0,0,.16-.19.38.38,0,0,0-.13-.37.59.59,0,0,0-.3-.06l-.25,0c-.32,0-.63.13-.92.13a.9.9,0,0,1-.72-.26l-.06-.14.45-.11A4,4,0,0,1,29.07,21.57Z"/><path class="cls-6" d="M12.46,17.63s-1.54-.21-1,.86c0,0-.1-.85,1-.86"/><path class="cls-6" d="M14.19,16.3c-1.61,0-.89.78-.89.78-.18-.64.89-.78.89-.78"/><path class="cls-6" d="M12,18.65l.45-.17s-.31.07-.35,0l0-.12a.46.46,0,0,0,.37,0c.24-.06.24-.29,0-.34l.41-.12a1.4,1.4,0,0,0-.78.13c-.31.2-.08.59-.08.59"/><path class="cls-6" d="M13.7,17.35a.15.15,0,0,1,.15-.21c.16.16.38,0,.46-.13s-.19-.24-.19-.24a1,1,0,0,1,.19,0c.11,0,.11.23.11.23l.12-.34a.92.92,0,0,0-.68.09c-.48.19-.16.62-.16.62"/><path class="cls-6" d="M13.78,18.32c0,.1.22,0,.18-.09s-.18.09-.18.09"/><path class="cls-6" d="M14.07,18.16c.14,0,.28,0,.12-.11,0,0-.27.11-.12.11"/><path class="cls-6" d="M11.34,18.65a.59.59,0,0,0,.08.08c.1.08,0,0-.08-.08"/><path class="cls-6" d="M14.54,18.65a.19.19,0,0,0,.32,0s-.18.14,0-.16.2.05.2.05.26-.33.08-.36-.76.28-.6.47"/><path class="cls-6" d="M15.53,18.65c0-.14-.47.23-.47.23a.3.3,0,0,0,.47-.23"/><path class="cls-6" d="M12.45,3,11.66.65h.42l.34,1.11c.08.27.19.61.25.91h0c.05-.3.15-.63.23-.92l.33-1.1h.42L12.86,3Z"/><path class="cls-6" d="M14.11,2.17h0c0,.28.07.66.43.66s.41-.4.41-.66-.07-.66-.42-.66-.42.4-.42.66m1.23,0a.8.8,0,0,1-.82.88.77.77,0,0,1-.8-.88.8.8,0,0,1,.83-.88A.77.77,0,0,1,15.34,2.17Z"/><rect class="cls-6" x="15.78" y="0.59" width="0.39" height="2.43"/><path class="cls-6" d="M17.24.87v.45h.48v.21h-.48v1c0,.22.12.28.26.28h.16l0,.21a1.12,1.12,0,0,1-.29,0,.64.64,0,0,1-.39-.1.49.49,0,0,1-.15-.43v-1h-.3V1.32h.3V1Z"/><path class="cls-6" d="M19.08,2h0c0-.34-.18-.49-.37-.49s-.39.26-.4.49Zm-.78.2c0,.52.3.63.59.63a1.15,1.15,0,0,0,.41-.06l.06.2a1.75,1.75,0,0,1-.54.08.8.8,0,0,1-.9-.85.81.81,0,0,1,.83-.9.68.68,0,0,1,.71.75.62.62,0,0,1,0,.15Z"/><path class="cls-6" d="M20.8,2.14h0c-.2,0-.68,0-.68.39a.3.3,0,0,0,.31.31.35.35,0,0,0,.36-.26.34.34,0,0,0,0-.1Zm.06.88,0-.18h0a.62.62,0,0,1-.49.21.53.53,0,0,1-.59-.49c0-.42.5-.61,1.05-.62V1.89c0-.23-.08-.38-.39-.38a1.07,1.07,0,0,0-.41.08L19.9,1.4a1.56,1.56,0,0,1,.58-.11c.5,0,.71.23.71.61v.73a1.63,1.63,0,0,0,0,.39Z"/><path class="cls-6" d="M23.47,2.14h0c-.21,0-.68,0-.68.39a.29.29,0,0,0,.3.31.37.37,0,0,0,.37-.26.34.34,0,0,0,0-.1Zm.06.88,0-.18h0a.65.65,0,0,1-.5.21.52.52,0,0,1-.58-.49c0-.42.49-.61,1.05-.62V1.89c0-.23-.08-.38-.4-.38a1,1,0,0,0-.4.08l-.09-.19a1.48,1.48,0,0,1,.58-.11c.49,0,.71.23.71.61v.73a2.42,2.42,0,0,0,0,.39Z"/><rect class="cls-6" x="24.41" y="0.59" width="0.39" height="2.43"/><path class="cls-6" d="M26.48,2.17h0c0,.28.07.66.43.66s.4-.4.4-.66-.06-.66-.41-.66-.42.4-.42.66m1.23,0a.8.8,0,0,1-.82.88.78.78,0,0,1-.81-.88.8.8,0,0,1,.83-.88A.78.78,0,0,1,27.71,2.17Z"/><path class="cls-6" d="M28.15,3h0V1.32h.4V3ZM28.58.88c0,.11-.1.18-.24.18S28.11,1,28.11.88s.1-.17.23-.17S28.58.77,28.58.88Z"/><path class="cls-6" d="M29.09,1.76c0-.15,0-.31,0-.44h.35l0,.27h0a.58.58,0,0,1,.52-.3h.08v.28H30a.46.46,0,0,0-.47.35.78.78,0,0,0,0,.16V3h-.39Z"/><path class="cls-6" d="M9,5.15H9c0-.34-.18-.49-.37-.49s-.39.26-.4.49Zm-.78.2c0,.52.3.63.59.63a1.43,1.43,0,0,0,.41-.06l.06.2a1.75,1.75,0,0,1-.54.08.8.8,0,0,1-.9-.86.8.8,0,0,1,.83-.89.68.68,0,0,1,.71.75.66.66,0,0,1,0,.15Z"/><rect class="cls-6" x="9.78" y="3.75" width="0.39" height="2.43"/><path class="cls-6" d="M11.5,5.89a1,1,0,0,0,.4.09c.22,0,.36-.09.36-.24s-.07-.22-.32-.34-.49-.28-.49-.48.29-.47.68-.47a1,1,0,0,1,.44.09l-.11.2a.79.79,0,0,0-.32-.07c-.22,0-.33.1-.33.21s.07.18.31.3.51.28.51.51-.34.51-.74.51a1.15,1.15,0,0,1-.49-.1Z"/><path class="cls-6" d="M13.33,5.33h0c0,.28.07.66.43.66s.4-.4.4-.66-.06-.66-.41-.66-.42.4-.42.66m1.23,0a.79.79,0,0,1-.82.87.77.77,0,0,1-.81-.87.8.8,0,0,1,.83-.88A.78.78,0,0,1,14.56,5.33Z"/><path class="cls-6" d="M15,4.92c0-.21,0-.31,0-.44h.34l0,.2h0a.71.71,0,0,1,.57-.23.53.53,0,0,1,.6.58V6.18h-.39V5.08c0-.2-.06-.4-.35-.4a.37.37,0,0,0-.37.27.76.76,0,0,0,0,.15V6.18H15Z"/><path class="cls-6" d="M17.07,6.18h0V4.48h.4v1.7ZM17.5,4c0,.1-.09.17-.24.17S17,4.14,17,4s.1-.18.23-.18S17.5,3.93,17.5,4Z"/><path class="cls-6" d="M19.11,5.12h0V5a.39.39,0,0,0-.37-.33c-.33,0-.44.31-.44.65s.13.65.42.65a.39.39,0,0,0,.38-.29.41.41,0,0,0,0-.12Zm.39-1.37v2c0,.11,0,.31,0,.41h-.34l0-.22h0a.63.63,0,0,1-.52.24c-.42,0-.72-.31-.72-.87s.36-.88.74-.88a.55.55,0,0,1,.46.2h0v-.9Z"/><path class="cls-6" d="M20.34,5.33h0c0,.28.07.66.43.66s.41-.4.41-.66-.07-.66-.42-.66-.42.4-.42.66m1.24,0a.79.79,0,0,1-.83.87.77.77,0,0,1-.8-.87.8.8,0,0,1,.83-.88A.78.78,0,0,1,21.58,5.33Z"/><path class="cls-6" d="M23.92,5.12h0a.45.45,0,0,0,0-.11.38.38,0,0,0-.36-.33c-.33,0-.45.31-.45.65s.14.65.43.65a.42.42,0,0,0,.39-.41Zm.39-1.37v2c0,.11,0,.31,0,.41H24L24,6h0a.62.62,0,0,1-.52.24c-.42,0-.72-.31-.72-.87a.78.78,0,0,1,.75-.88.53.53,0,0,1,.45.2h0v-.9Z"/><path class="cls-6" d="M25.92,5.15h0c0-.34-.18-.49-.37-.49s-.39.26-.41.49Zm-.78.2c0,.52.3.63.59.63a1.35,1.35,0,0,0,.4-.06l.07.2a1.77,1.77,0,0,1-.55.08.81.81,0,0,1-.9-.86.81.81,0,0,1,.84-.89.67.67,0,0,1,.7.75v.15Z"/><rect class="cls-6" x="27.52" y="3.75" width="0.39" height="2.43"/><path class="cls-6" d="M29.42,5.3h0c-.21,0-.68,0-.68.39A.28.28,0,0,0,29,6a.37.37,0,0,0,.37-.25.38.38,0,0,0,0-.1Zm.06.88,0-.18h0a.6.6,0,0,1-.49.2c-.33,0-.59-.19-.59-.48s.5-.62,1.06-.62v0c0-.23-.08-.39-.4-.39a1,1,0,0,0-.4.09l-.09-.19a1.48,1.48,0,0,1,.58-.11c.49,0,.71.22.71.61v.73a2.42,2.42,0,0,0,0,.39Z"/><path class="cls-6" d="M17.14,9.29a1.37,1.37,0,0,1-.41.06.81.81,0,0,1-.91-.86.89.89,0,0,1,1-.88,1.13,1.13,0,0,1,.35,0l-.08.22a.83.83,0,0,0-.28,0,.59.59,0,0,0-.58.65.57.57,0,0,0,.59.64.82.82,0,0,0,.28-.05Z"/><path class="cls-6" d="M18.41,8.45h0c-.21,0-.68,0-.68.4a.28.28,0,0,0,.3.3.37.37,0,0,0,.37-.26.28.28,0,0,0,0-.09Zm.06.88,0-.18h0a.65.65,0,0,1-.5.21c-.33,0-.59-.19-.59-.48s.5-.62,1.06-.62v0c0-.23-.08-.39-.4-.39a.84.84,0,0,0-.4.09l-.09-.19a1.31,1.31,0,0,1,.58-.11c.49,0,.71.22.71.6V9a2.3,2.3,0,0,0,0,.38Z"/><path class="cls-6" d="M19.35,8.07c0-.2,0-.3,0-.44h.34l0,.21h0a.71.71,0,0,1,.56-.23.54.54,0,0,1,.52.25h0A.72.72,0,0,1,21,7.67a1,1,0,0,1,.35-.06.53.53,0,0,1,.59.6V9.33h-.39V8.27c0-.22,0-.44-.35-.44a.38.38,0,0,0-.36.26.66.66,0,0,0,0,.15V9.33h-.39V8.22c0-.19,0-.39-.35-.39a.38.38,0,0,0-.37.28.61.61,0,0,0,0,.14V9.33h-.39Z"/><path class="cls-6" d="M22.91,8.71h0a.32.32,0,0,0,0,.14.37.37,0,0,0,.36.29c.33,0,.43-.31.43-.66s-.12-.64-.43-.64a.4.4,0,0,0-.37.31.53.53,0,0,0,0,.13Zm-.39-.55c0-.26,0-.41,0-.53h.35l0,.22h0a.61.61,0,0,1,.52-.24c.43,0,.72.31.72.87a.77.77,0,0,1-.77.88.49.49,0,0,1-.43-.2h0V10h-.39Z"/><path class="cls-6" d="M25.49,8.45h0c-.21,0-.68,0-.68.4a.28.28,0,0,0,.3.3.37.37,0,0,0,.37-.26.28.28,0,0,0,0-.09Zm.05.88,0-.18h0a.62.62,0,0,1-.49.21c-.33,0-.59-.19-.59-.48s.5-.62,1.06-.62v0c0-.23-.09-.39-.4-.39a.91.91,0,0,0-.41.09l-.09-.19a1.38,1.38,0,0,1,.58-.11c.5,0,.72.22.72.6V9a2.3,2.3,0,0,0,0,.38Z"/><path class="cls-6" d="M26.43,8.07c0-.2,0-.3,0-.44h.34l0,.21h0a.71.71,0,0,1,.57-.23.54.54,0,0,1,.6.58V9.33h-.4V8.24c0-.2-.05-.41-.34-.41a.38.38,0,0,0-.37.28.68.68,0,0,0,0,.15V9.33h-.39Z"/><path class="cls-6" d="M29.42,8.45h0c-.2,0-.68,0-.68.4a.28.28,0,0,0,.3.3.36.36,0,0,0,.37-.26.28.28,0,0,0,0-.09Zm.06.88,0-.18h0a.65.65,0,0,1-.5.21.52.52,0,0,1-.58-.48c0-.43.49-.62,1.05-.62v0c0-.23-.08-.39-.39-.39a.86.86,0,0,0-.41.09l-.09-.19a1.31,1.31,0,0,1,.58-.11c.5,0,.71.22.71.6V9a1.54,1.54,0,0,0,0,.38Z"/></svg>