<svg id="Capa_1" data-name="Capa 1" xmlns="http://www.w3.org/2000/svg" viewBox="0 0 31.56 28.82"><defs><style>.cls-1{fill:#f05050;}.cls-2{fill:#f5a4c7;}.cls-3{fill:#fabcab;}.cls-4{fill:#fbc0ac;}.cls-5{fill:#231f20;}</style></defs><title>6-3meses</title><path class="cls-1" d="M14.07,26.2a13.55,13.55,0,0,0,4.41,1.39A80.2,80.2,0,0,0,27,27.43c.59-.15,1.81-.25,1.37-.59a9.83,9.83,0,0,1-1.22-1.28c-.2-.24-1.18-1.82-1.18-1.82s-2.34-.34-3.11-.48-8.78,2.94-8.78,2.94"/><path class="cls-2" d="M10.41,24.37a3.9,3.9,0,0,0-1.15-.11C8.93,24.35,6,25.88,6,25.88a2.84,2.84,0,0,0-.08,1.36c.18.47.44.66,2.2.79S11.73,28.3,12,28a.87.87,0,0,0,0-.82Z"/><path class="cls-3" d="M0,22.33l3.92-1.5,1.68.32s.06.3.66.33A1.59,1.59,0,0,0,7.34,21a3,3,0,0,1,.5-.6,2.53,2.53,0,0,0,.51-.67c.15-.24-.36-.62-.51-.64a2.6,2.6,0,0,1-.5-.27A22.39,22.39,0,0,0,9.67,18c.13-.14-.21-.42-.21-.42s-4.86,1-5.89,1.32-3.43.89-3.43.89Z"/><path class="cls-4" d="M9.94,24.3a13.3,13.3,0,0,1,.36,1.33c0,.35.11.82.11.95s.24,1.24.67,1.19,1.16-.59,1.46-.63a18.29,18.29,0,0,0,3.82-.83l.81-.62a13.36,13.36,0,0,1,2-.43,4.79,4.79,0,0,0,2.2-.93c.07-.25,1.73-2.34,1.21-2.72a4.79,4.79,0,0,0-1.84-.54,4.4,4.4,0,0,0-1.39.19,4,4,0,0,0-1.06.73c-.14.19-.58.07-.71,0s-.4-.07-.45.07-.07.19-.15.23-.33,0-.37.07-.12.27-.12.27l0,.21s-.36-.19-.47-.13-.15.33-.15.35.2,0-.11.08-.08.69-.08.69l-.49-.1V23.4a9.28,9.28,0,0,0-.83-2c-.48-.77.08-.8.2-1s.31-.45,0-.37-.66.15-.66.15.3.06.17-.54-.3-.54-.42-.45-.16.59-.16.59S13,19,12.88,19.1a1.23,1.23,0,0,0-.2.36s-.14-.24-.25-.12a2,2,0,0,0-.21.39s-.23.07-.27.21a.78.78,0,0,1-.15.25,3.23,3.23,0,0,0-.61-.67c-.22-.12-.4-.24-.4-.1a3.29,3.29,0,0,0,.06.44s-.29-.29-.45-.28-.14.21-.06.41a1.14,1.14,0,0,1,.09.32s-.54-.22-.49-.09a1.92,1.92,0,0,0,.32.42l.06.11a3.49,3.49,0,0,0-.65-.06s.13.15.26.24,1.13.8,1.14,1,.24,1.49.24,1.49l.23.39s-1,.17-1.22.26-.38.09-.38.26"/><path class="cls-4" d="M9.61,24.24A14.69,14.69,0,0,0,9,22.79,2.35,2.35,0,0,0,7.8,22c-.17,0-.93,0-1.24,0a16.36,16.36,0,0,0-2.07.49,2.82,2.82,0,0,1-1.1.14c-.26,0-.66-.1-.7-.3s-.47-.61-.35-.72-.21.31-.24.6a8,8,0,0,0,.18,1.4c0,.25.55.21.76.16A6.89,6.89,0,0,1,4,23.65l.63,0s-.57.61-.67.77-.08.19-.55.08-.89-.37-1.1-.3-.45-.32-.41.13-.13.74-.06.86,0,.59.41.58a4.53,4.53,0,0,1,1.45,0,2,2,0,0,0,1.48-.19,7.16,7.16,0,0,0,.63-.73,2,2,0,0,0,.23.53,2.47,2.47,0,0,0,1,1.1c.49.22,1.35.55,1.7,0a4,4,0,0,0,.59-1.48c0-.2,0-.8,0-.8Z"/><path class="cls-4" d="M11.92,10.66c.46.68,1.88,2.38,1.9,2.5a4.09,4.09,0,0,1-1.41,1.28c-.67.38-1.34.34-1.71,1.09s-.22,1.32-.37,1.43a.65.65,0,0,1-.67.15,7,7,0,0,1-.81-.35L8.46,17h-.2s0,.21-.49.29-.52.23-.61.39-.6.1-.81.1a3.33,3.33,0,0,1-1.16-.88c-.31-.34-.72-.75-.72-.75s-.3,0-.23.06a1.61,1.61,0,0,1,.17.51,1,1,0,0,1-.37.85,9.65,9.65,0,0,1-1,.67l-.54.27s-.78-.68-.78-.7S.28,15.83.28,15.83l-.12-.22V13.18s1.87.56,2.19.36,1.27-.7,1.5-1.18A4.36,4.36,0,0,1,7.67,9.89a5.94,5.94,0,0,1,4.25.77"/><path class="cls-5" d="M28,27.2h0a6.59,6.59,0,0,1-1.13.14c-.4,0-.79.06-1.18.07s-.79,0-1.18.05l-1.18,0-1.17,0H21l-1.16,0c-.39,0-.78,0-1.16-.06s-.77-.09-1.15-.13a9.91,9.91,0,0,1-1.11-.22,4.26,4.26,0,0,1-.54-.15l-.39-.14.45-.13a2.35,2.35,0,0,0,1.21-.84.21.21,0,0,0,0-.06,5.72,5.72,0,0,1,.64-.15,4.42,4.42,0,0,1,.76-.06,2.46,2.46,0,0,1,.4,0,2.07,2.07,0,0,1,.22,0l.19.06.4.16.37.17c.24.12.46.23.65.34l.64.35A3.14,3.14,0,0,0,21,26.2a4.65,4.65,0,0,0-1.17-.73h0a1,1,0,0,1,.38,0,1.09,1.09,0,0,1,.24.07l.27.1c.18.07.4.15.6.24.42.15.86.29,1.2.38s.59.13.59.13a4.43,4.43,0,0,0-.45-.29,8.21,8.21,0,0,0-1.1-.52l-.52-.16.56-.09.72-.12.83-.11C23.73,25,24.3,25,24.73,25l.53,0,.21,0-.2-.05c-.12,0-.31-.06-.53-.08h-.12l0,0a1.11,1.11,0,0,0,.29-1h0a.56.56,0,0,0,0-.13l.83.23c.29.5.58,1,.92,1.47.17.24.35.49.55.72a3.73,3.73,0,0,0,.34.35l.1.09.13.09.2.12c.13.09.25.19.27.29s-.09.18-.26.23m-13.27-.58h0l-1.18.27c-.4.1-.83.2-1.25.32a2.89,2.89,0,0,0-.6.24c-.2.11-.34.24-.5.22a.5.5,0,0,1-.38-.22.92.92,0,0,1-.18-.39,1.58,1.58,0,0,1,0-.44,3.4,3.4,0,0,0-.06-.46,5.15,5.15,0,0,0-.22-.84c-.08-.27-.17-.51-.22-.73l0-.14s0-.07,0-.07l0,0a.8.8,0,0,1,.27-.18A3.8,3.8,0,0,1,11,24l.42-.12.09.1a1.94,1.94,0,0,1,.25.22,1.59,1.59,0,0,1,.2.24,4,4,0,0,1,.31.52A10,10,0,0,1,12.8,26h0a6.12,6.12,0,0,0-.33-1.14c-.08-.19-.17-.37-.27-.56L12.06,24a2,2,0,0,0-.25-.25.79.79,0,0,1-.16-.23,2.1,2.1,0,0,1-.13-.26c-.06-.18-.11-.36-.16-.55-.07-.37-.13-.75-.17-1.13h0a.24.24,0,0,0-.08-.1c-.38-.2-.76-.41-1.11-.63l-.12-.08-.07-.06a5,5,0,0,1,.65.13h0a.11.11,0,0,0,.12,0s0-.07,0-.1l-.33-.24-.14-.13c0-.05-.08-.1-.08-.13s0,0,0,0h0s0,0,.05,0l.18.07a2.8,2.8,0,0,1,.33.24.1.1,0,0,0,.09,0s.05-.05,0-.07-.16-.24-.23-.36a1,1,0,0,1-.14-.36l0-.07h0a.38.38,0,0,1,.16.09,2.13,2.13,0,0,1,.28.33.12.12,0,0,0,.14,0c.06,0,.1-.05.08-.1h0a1.4,1.4,0,0,1-.16-.53,1.39,1.39,0,0,1,.21.21l.4.51a1.1,1.1,0,0,0,.11.14.86.86,0,0,0,.16.1h.14l.13,0a.22.22,0,0,0,.08-.1,1.26,1.26,0,0,1,.12-.26,1.59,1.59,0,0,1,.15-.21.41.41,0,0,1,0,.11c0,.06-.07.15-.1.26a.35.35,0,0,0,0,.2.77.77,0,0,0,0,.15.56.56,0,0,1,0,.24.76.76,0,0,1-.11.22,1.9,1.9,0,0,1-.19.21.13.13,0,0,0,0,.21,3.51,3.51,0,0,1,.82,1.21,4.36,4.36,0,0,1,.12.68,1,1,0,0,0,.12.38,1.43,1.43,0,0,0,.31.34,5.31,5.31,0,0,0,.85.45l.88.36a3.76,3.76,0,0,1,.77.43.84.84,0,0,1,.25.29.37.37,0,0,1,.05.32l0,0c.14-.24,0-.5-.21-.7a2.66,2.66,0,0,0-.75-.5l-.83-.42a4,4,0,0,1-.74-.44.84.84,0,0,1-.22-.25.78.78,0,0,1-.07-.31,3.69,3.69,0,0,0-.08-.72,2.67,2.67,0,0,0-.2-.46.85.85,0,0,0,.1-.53c0-.06,0-.11,0-.16a1.09,1.09,0,0,0-.08-.15,1,1,0,0,0-.21-.24l-.1-.06s0-.09,0-.13a.73.73,0,0,0,0-.34.49.49,0,0,1,0-.23c0-.06.06-.15.08-.25a.31.31,0,0,0,.32.1c.13,0,.21-.12.17-.21v0l-.18-.41-.06-.17.12.1a1.61,1.61,0,0,1,.29.41.09.09,0,0,0,.06,0s.08,0,.08-.05h0a1.82,1.82,0,0,1,.17-.44l0,0v0l.08.22a2.82,2.82,0,0,0,.18.45H14c-.15,0-.36.08-.39.18a.25.25,0,0,0,0,.19l0,.06h0l0,0a.26.26,0,0,1,.09-.13s.11,0,.24,0a1.35,1.35,0,0,0,.29,0l.09,0,.06,0h0l-.06.06a1.44,1.44,0,0,0-.37.46.66.66,0,0,0,.12.55c.1.15.24.3.34.44a1.29,1.29,0,0,1,.23.43,2.37,2.37,0,0,1,.08.42c0,.13,0,.23,0,.37a1.52,1.52,0,0,0,.27.6l0,0-.18,0a3,3,0,0,0-.6,0,5.61,5.61,0,0,0-.58,0v0l.57.05.54.11a3.39,3.39,0,0,1,.48.17,1,1,0,0,1,.21.11l.09.06.06.06a.24.24,0,0,0,.22.06c.1,0,.15-.09.12-.16h0a2.06,2.06,0,0,1-.15-.48s0-.07,0-.12,0-.05,0-.06h0l.29-.18V23s0,0,0-.06l.11,0a1.39,1.39,0,0,1,.26.1h0a.24.24,0,0,0,.15,0c.09,0,.15-.09.12-.15l-.09-.21,0,0v0s0-.07,0-.1v-.1a.06.06,0,0,1,0,0,0,0,0,0,0,0,0s.1,0,.17,0h0c.3-.05.23-.25.25-.29A.15.15,0,0,1,17.4,22a.89.89,0,0,1,.33.12.58.58,0,0,0,.45,0,5.85,5.85,0,0,0,.56-.41,3.78,3.78,0,0,1,.64-.3,5.75,5.75,0,0,1,.71-.2,5.4,5.4,0,0,1,.58-.09l1,.58-1.44-.08.72.29-.72-.11,1,.5H20.11l.62.2-.45.13.62.23-1.14-.07.83.43-.9,0,.69.33a2.06,2.06,0,0,0-.69,0,1,1,0,0,0-.44.24,3.31,3.31,0,0,1,.76-.08s-.77,0-.88.3-.49.09-.49.09.18.3,1.05,0,1,.28.48.48-1,.32-1.13,0a1.94,1.94,0,0,1-.87.6h.62l-.34.14-.35.05a2.22,2.22,0,0,0-.39.12,2.72,2.72,0,0,0-.48.23.73.73,0,0,0,.08-.28h0a.46.46,0,0,1-.06.1,1,1,0,0,1-.23.26,3.17,3.17,0,0,1-1.23.66A8.82,8.82,0,0,1,14.74,26.62ZM12,27.7h0a.62.62,0,0,1-.19.12,1,1,0,0,1-.22.08,3.08,3.08,0,0,1-.54.06h-.58c-.77,0-1.55-.06-2.32-.13-.38,0-.77-.07-1.13-.13l-.26-.06a1,1,0,0,1-.22-.07.71.71,0,0,1-.29-.25A1.51,1.51,0,0,1,6,26.58a3,3,0,0,1,0-.42,1.73,1.73,0,0,0,.21.17,1.35,1.35,0,0,0,.34.17,2.74,2.74,0,0,0,.39.09l0,0,.3.15a1.9,1.9,0,0,0,1,.16,1.38,1.38,0,0,0,.47-.17l.18-.14.14-.13a1.26,1.26,0,0,0,.33-.65,1.24,1.24,0,0,0,0-.33,1.82,1.82,0,0,0,0-.33c0-.21,0-.43-.06-.62s0-.15.14-.18a.78.78,0,0,1,.22,0v0s0,.06,0,.09a1.46,1.46,0,0,0,0,.21,12.91,12.91,0,0,0,.38,1.59c0,.14.06.29.08.42a1.66,1.66,0,0,0,.08.48,1.23,1.23,0,0,0,.29.47.91.91,0,0,0,.71.27.74.74,0,0,0,.37-.13l.22-.18a2.1,2.1,0,0,1,.26-.13A.27.27,0,0,1,12,27.7ZM8.69,23.27h0A2.67,2.67,0,0,0,8.34,23a2.24,2.24,0,0,0-.45-.27l-.27-.1-.29-.07a1.45,1.45,0,0,0-.3,0H6.72l-.27,0-.31.06-.27.08a1.33,1.33,0,0,0-.24.11,2.65,2.65,0,0,0-.44.25,2.63,2.63,0,0,0-.37.29l-.33.3,0,.06a4.1,4.1,0,0,0-.86-.05l-.48.06a1,1,0,0,1-.39,0l-.13,0v0a.81.81,0,0,0,0-.36.89.89,0,0,0-.19-.33.73.73,0,0,1-.1-.28.62.62,0,0,1,0-.27l0-.09,0,0,0,0a.3.3,0,0,0,0-.08.38.38,0,0,0,0,.1.35.35,0,0,0,.08.13,2.47,2.47,0,0,0,.36.26,1.17,1.17,0,0,0,.54.16,1.94,1.94,0,0,0,.54,0H4a10.73,10.73,0,0,1,1.8-.55,5.21,5.21,0,0,1,1-.1,4,4,0,0,1,.92.12,3.19,3.19,0,0,1,.42.09,1,1,0,0,1,.28.2,3.12,3.12,0,0,1,.46.56c.25.37.47.77.69,1.16h0a.46.46,0,0,0-.23.06c0-.09-.06-.18-.1-.27S9,23.74,9,23.62A4.11,4.11,0,0,0,8.69,23.27Zm3.76-3.82h.08l0,0,0,0,0,0a.55.55,0,0,0-.18,0Zm.49-.25Zm-.26,2h0l0,.16c0,.07,0,.13,0,.2l-.2-.21Zm1.29-2Zm5.79,6.27Zm8.48,1.1L28,26.38,28,26.32l-.07-.08c-.09-.11-.19-.23-.27-.35l-.55-.71c-.35-.48-.73-1-1.09-1.43h0l-.07,0-1-.14a1.61,1.61,0,0,0,0-.39,2,2,0,0,0-.21-.56,2.85,2.85,0,0,0-.35-.53l-.23-.24-.26-.23-.06-.05-.05,0,0,0-.14-.1a2.81,2.81,0,0,0-.31-.19,4.14,4.14,0,0,0-.76-.3l-.41-.1-.43,0h-.43l-.43,0a7.25,7.25,0,0,0-.81.16,5.24,5.24,0,0,0-.73.27,4,4,0,0,0-.64.37,4.58,4.58,0,0,1-.51.41.34.34,0,0,1-.29,0,1,1,0,0,0-.38-.14c-.17,0-.36.07-.38.19s0,.1,0,.13,0,0,0,0l-.15,0a.4.4,0,0,0-.25.06.2.2,0,0,0-.07.09l0,.06a.49.49,0,0,0,0,.12.48.48,0,0,0,0,.12v0l-.13,0-.12,0h-.17a.35.35,0,0,0-.18.1.25.25,0,0,0,0,.11.59.59,0,0,0,0,.13v.08h0a.31.31,0,0,0-.29.37s0,.09,0,.14a.78.78,0,0,0,.05.14h0l-.21-.07a1.05,1.05,0,0,0,0-.13,2.86,2.86,0,0,1,0-.56,1.26,1.26,0,0,0,0-.41,1.3,1.3,0,0,0-.26-.43c-.11-.14-.23-.27-.33-.42a1.05,1.05,0,0,1-.22-.45.62.62,0,0,1,0-.41,2.29,2.29,0,0,1,.35-.33,1.24,1.24,0,0,0,.22-.18l.1-.09a.52.52,0,0,0,.09-.17s0,0,0,0a.26.26,0,0,0,0-.08s0,0,0,0h0l0,0h0a.32.32,0,0,0-.13-.06H14.9a1.19,1.19,0,0,0-.24,0l-.28.11L14.2,20h0a1.48,1.48,0,0,0,.08-.46,1,1,0,0,0,0-.24.69.69,0,0,0,0-.13,1.39,1.39,0,0,0-.06-.13.18.18,0,0,0-.06-.08.31.31,0,0,0-.26-.1l-.09,0a.3.3,0,0,0-.13.07.33.33,0,0,0-.06.08.54.54,0,0,0-.06.26v.19c0-.05-.06-.1-.08-.16l-.13-.22a.53.53,0,0,0-.1-.12.45.45,0,0,0-.14-.07.35.35,0,0,0-.3.06l0,0,0,.06c0,.05,0,.07,0,.09s0,.06,0,.08h0a.39.39,0,0,0-.24,0l-.1.06a.37.37,0,0,0-.15.26.39.39,0,0,0-.1.08,1.68,1.68,0,0,0-.2.29l0,.08c-.13-.15-.26-.31-.4-.45a1.45,1.45,0,0,0-.29-.25L11,19.27l-.11,0h-.1a.33.33,0,0,0-.13.07.25.25,0,0,0,0,.07.31.31,0,0,0,0,.09l0,.13a.57.57,0,0,0-.23-.07.22.22,0,0,0-.12,0h0l0,0h0l0,0a.49.49,0,0,0,0,.07.17.17,0,0,0,0,.07.87.87,0,0,0,.16.4l0,.06h0a.72.72,0,0,0-.25-.1.29.29,0,0,0-.18,0l0,0h0s0,.05,0,.07a.33.33,0,0,0,.08.19l.15.15,0,0-.3-.06a.61.61,0,0,0-.28,0,.13.13,0,0,0-.09.16.45.45,0,0,0,0,.08.71.71,0,0,0,.13.12l.12.1a11.69,11.69,0,0,0,1,.66A7,7,0,0,0,11,22.8c.06.19.12.38.2.57a1.14,1.14,0,0,0,.15.29l.08.12-.43,0a4.2,4.2,0,0,0-.71.17,1.11,1.11,0,0,0-.41.2l0,0-.19,0a4,4,0,0,0-.42-1.27,2.63,2.63,0,0,0-.46-.64A1.18,1.18,0,0,0,8.31,22l-.16,0L8,22l-.24,0a4.51,4.51,0,0,0-1,0,7.71,7.71,0,0,0-1,.17l-.94.23-.91.23a1.15,1.15,0,0,1-.73-.12c-.08-.07-.23-.18-.27-.23s0-.12,0-.23a.31.31,0,0,0-.08-.26.38.38,0,0,0-.23-.11H2.56A3.54,3.54,0,0,0,3,21.34,6.73,6.73,0,0,1,4,21l.26.1.31.1a2.19,2.19,0,0,0,.68.06l.28,0h0l.13.14a.83.83,0,0,0,.23.15.77.77,0,0,0,.37.12,1.34,1.34,0,0,0,.49,0,1.89,1.89,0,0,0,.74-.42l.06-.06A.44.44,0,0,0,7.58,21a.27.27,0,0,0,0-.23v0l.25-.12L8,20.48l.1-.07,0,0,0-.05,0-.05a.24.24,0,0,0,0-.18l0-.08a.85.85,0,0,0,.3-.26.29.29,0,0,0,0-.27,1.73,1.73,0,0,0-.17-.21l-.22-.19A2.49,2.49,0,0,0,7.83,19l-.11,0c.37-.09.74-.19,1.1-.3a7.25,7.25,0,0,0,.78-.28,1.76,1.76,0,0,0,.2-.09,1,1,0,0,0,.21-.14l0,0h0l0,0,0,0a.35.35,0,0,0,0-.11.24.24,0,0,0-.15-.27,1.08,1.08,0,0,0-.55-.09l-.45,0a4.53,4.53,0,0,0-.86.15c-.55.12-1.08.26-1.62.39l-1.63.37c-.28.06-.54.12-.82.2l-.4.13-.36.12c-.5.16-1,.29-1.56.43s-1.07.28-1.59.44v0q.86-.09,1.68-.24a15,15,0,0,0,1.64-.39,3.17,3.17,0,0,0,.4-.14l.35-.15L5,18.63a15.93,15.93,0,0,1,1.58-.43c.54-.12,1.1-.21,1.65-.28.28,0,.56-.08.81-.09h.41l.24,0a.06.06,0,0,1,0,0h0l0,0s0,0-.1.05l-.16.07-.74.25-1.55.47L6.41,19l.68.09.28.05.27.07.25.11a1.27,1.27,0,0,1,.22.13c.14.11.26.21.24.33a.47.47,0,0,1-.17.22h0a1,1,0,0,0-.24-.22,3.65,3.65,0,0,0-1.1-.39,3.47,3.47,0,0,0-.56-.06s.17.11.43.24.62.29.9.46a.83.83,0,0,1,.17.12.1.1,0,0,0,0,.05h0s0,0,0,0l0,.05h0s0,0,0,0h0v0l-.07.08-.12.16-.1.12a1.45,1.45,0,0,0-.18-.17,2.62,2.62,0,0,0-.62-.32,4,4,0,0,0-.68-.2l.51.35a4.82,4.82,0,0,1,.46.36.4.4,0,0,1,.13.19s0,0,0,.05l0,0L7.05,21a1.7,1.7,0,0,1-.52.35.86.86,0,0,1-.55,0,2.06,2.06,0,0,1-.38-.16,1.22,1.22,0,0,0,.26-.06,1.71,1.71,0,0,0,.54-.27l0,0a7.21,7.21,0,0,1-1.19.13l-.59,0a2.52,2.52,0,0,1-.6-.07H3.92a5.53,5.53,0,0,1-1,.33,10.32,10.32,0,0,0-1,.3,8.33,8.33,0,0,0-1,.39,6.9,6.9,0,0,0-.89.48l0,0a8.54,8.54,0,0,0,1.08-.25c.34-.1.67-.21,1-.34l0,0c0,.06,0,.11-.07.14s0,.05-.1.11a.48.48,0,0,0-.11.23.81.81,0,0,0,0,.38A1,1,0,0,0,2,23a2.55,2.55,0,0,1,.19.26.92.92,0,0,1,0,.3.3.3,0,0,0,.16.25.83.83,0,0,0,.31.08,1.36,1.36,0,0,0,.55-.05,4.5,4.5,0,0,1,.44-.1,3.84,3.84,0,0,1,.76-.06l-.19.21a4.11,4.11,0,0,0-.44.59c-.37-.09-.75-.18-1.09-.3l-.14-.05-.17,0a2,2,0,0,0-.24,0,.8.8,0,0,0-.29.05.34.34,0,0,0-.2.19.27.27,0,0,0,0,.2l0,0s0,0,0,0,0,0,0,.05,0,0,0,0v0a.14.14,0,0,0,0,.07.25.25,0,0,0,0,.07.1.1,0,0,0-.05,0,.24.24,0,0,0-.09.21s0,0,0,.07v0a.25.25,0,0,0,.07.08.2.2,0,0,0,0,.11l0,0h0v0h0l0,.06.06,0a.05.05,0,0,0,0,0,.12.12,0,0,0,0,.14.17.17,0,0,0,.09.08l0,0h0l0,0,.11,0H2.3l.32,0a2.89,2.89,0,0,1,.58,0l.28.07a1.55,1.55,0,0,0,.31,0v0l-.28-.08-.27-.11a2.49,2.49,0,0,0-.66,0H2.12l.09,0,.07,0h0c.1,0,.14-.11.1-.18a.22.22,0,0,0-.09-.07.17.17,0,0,0,.14-.13c0-.09-.09-.17-.22-.18H2.11l.09,0h0c.13,0,.21-.13.17-.22a.18.18,0,0,0-.07-.08h0c.08-.07.06-.18,0-.24l-.1,0-.06,0h.08l.14,0,.15,0a8.21,8.21,0,0,0,1.31.26h0A.15.15,0,0,0,4,24.66,3.61,3.61,0,0,1,4.35,24l.26-.33a3.06,3.06,0,0,1,.32-.3,2.55,2.55,0,0,1,.38-.26,2.19,2.19,0,0,1,.44-.2A1,1,0,0,1,6,22.81a1,1,0,0,1,.24,0l.23,0h.39l.12,0a1,1,0,0,1,.24,0l.23.06.21.08a2.16,2.16,0,0,1,.39.22,2.78,2.78,0,0,1,.34.26,4.4,4.4,0,0,1,.75,1l0,.08c0,.11,0,.22,0,.33v.31a6.17,6.17,0,0,1-.08.62,1.69,1.69,0,0,1-.2.57,1.32,1.32,0,0,1-.23.24.84.84,0,0,1-.33.15,1.43,1.43,0,0,1-.81-.09,3.56,3.56,0,0,1-.91-.53v0A.76.76,0,0,1,6.4,26a2.26,2.26,0,0,1-.11-.22,2,2,0,0,1-.16-.47l0-.25a2.11,2.11,0,0,1,0-.25h0s0-.09-.07-.1a.13.13,0,0,0-.14.05v0a1.58,1.58,0,0,0-.13.34l-.08.09a1,1,0,0,1-.25.15c-.09.05-.2.08-.28.12l-.28.12-.28.12c-.2.08-.4.16-.6.26v0a2.62,2.62,0,0,0,.74-.06,2.36,2.36,0,0,0,.66-.24,1,1,0,0,0,.24-.21.52.52,0,0,0,.1-.11,1.55,1.55,0,0,0,0,.22,1.52,1.52,0,0,0,.09.28,1.47,1.47,0,0,0,.1.13,3.15,3.15,0,0,0-.13.61,1.52,1.52,0,0,0,.13.85,1,1,0,0,0,.39.39,2.45,2.45,0,0,0,.31.12l.3.07c.4.08.79.14,1.19.18a16.14,16.14,0,0,0,2.41.07,4.78,4.78,0,0,0,1.22-.17A.92.92,0,0,0,12,28a.59.59,0,0,0,.2-.18.32.32,0,0,0,0-.38l.23-.09a9,9,0,0,1,1.26-.24c.42,0,.83-.09,1.22-.16a5.35,5.35,0,0,0,.55-.11,5.06,5.06,0,0,0,.91.42,9.69,9.69,0,0,0,1.12.32c.38.06.77.14,1.17.18a11.69,11.69,0,0,0,1.19.11c.4,0,.8,0,1.2,0s.79,0,1.19,0c.79,0,1.58-.08,2.37-.16l1.17-.12,1.17-.12a9.79,9.79,0,0,0,1.19-.12.93.93,0,0,0,.29-.12.28.28,0,0,0,.15-.24A.68.68,0,0,0,28.24,26.54Z"/><path class="cls-5" d="M19.25,22.15c-.18.56-.31.89-.31.89s1.14-1.36.25-1.48c0,0,.22.1.06.59"/><path class="cls-5" d="M19.19,21.56h0"/><path class="cls-5" d="M18.74,22.3s.09.09,0,.27a.64.64,0,0,0-.1.25s.75-.49.31-.78h-.31s.16.06.15.1-.4,0-.46.16.42,0,.42,0"/><path class="cls-5" d="M7.06,16.61h0l.11.08a2.91,2.91,0,0,0,.59.28.55.55,0,0,1-.3.11l-.1,0-.09,0,0,0,0,0-.06-.06a.46.46,0,0,1-.06-.28m5.66-2.48h0a2.87,2.87,0,0,1-.84.42,3.43,3.43,0,0,0-.52.23,1.82,1.82,0,0,0-.4.32,3.29,3.29,0,0,0-.62,1.53.57.57,0,0,1-.16.32c-.07.06-.13.06-.27,0a2.48,2.48,0,0,1-.76-.47l-.09-.05a.31.31,0,0,0-.33.08h0c0,.06-.1.12-.15.18l-.09.08h0l-.15,0L8,16.67a3.8,3.8,0,0,1-.54-.22c-.16-.08-.28-.19-.28-.27h0A.16.16,0,0,0,7.05,16a.22.22,0,0,0-.25.1.83.83,0,0,0-.06.21.75.75,0,0,0,0,.21A.71.71,0,0,0,6.9,17l.11.08.07.05.06,0,.16.05h.18a.55.55,0,0,0,.28-.11L7.84,17l.28.09h.06a.43.43,0,0,1-.28.07,1.45,1.45,0,0,0-.55.15.51.51,0,0,0-.2.18l-.05.1h0v0s0,0,0,0a1,1,0,0,1-.36,0,1.68,1.68,0,0,1-1.1-.56l-.3-.31c-.2-.2-.42-.4-.6-.61a2.67,2.67,0,0,1-.42-.67,1.24,1.24,0,0,1-.11-.7.85.85,0,0,1,.4-.57L5,14H4.41a.34.34,0,0,1-.2-.06.29.29,0,0,1-.13-.14.8.8,0,0,1,0-.46l.08-.25c0-.09.07-.17.11-.25a2.63,2.63,0,0,1,.3-.44A1.34,1.34,0,0,1,5,12a.5.5,0,0,1,.23,0,.66.66,0,0,1,.2.11.93.93,0,0,1,.08.2,2.17,2.17,0,0,1,0,.25,2.44,2.44,0,0,1,0,.54h0a2.91,2.91,0,0,1-.2.41l.64.44a2.77,2.77,0,0,1,.41-.65c.31-.38.73-.18,2.05-.26s.85-.49.85-.49a6,6,0,0,1,2.87.6l-2.53,0,3.06.48-1.22.11c.46.17.85.31,1.21.42ZM2,13.66a1.82,1.82,0,0,0,.68-.13h0l.13.2.55-.05L3,14l.66-.07a.59.59,0,0,0,.28.26.76.76,0,0,0,.16.06.61.61,0,0,0-.12.16.82.82,0,0,0-.08.4,1.79,1.79,0,0,0,.24.74c.07.15.16.29.24.43l-.28.12a4.14,4.14,0,0,0-.71.38A1.66,1.66,0,0,0,2.9,17a.51.51,0,0,0-.08.27A.6.6,0,0,1,3,17a1.9,1.9,0,0,1,.59-.41,3.66,3.66,0,0,1,.74-.26h0a.24.24,0,0,1,0,.09,1,1,0,0,1,0,.17v.18a.85.85,0,0,1,0,.16c0,.06,0,.13,0,.16l-.08.13-.12.13c0,.05-.1.09-.14.14l-.29.28c-.11.09-.22.18-.34.26a3.52,3.52,0,0,1-.75.38c-.23-.2-.42-.42-.62-.63s-.41-.47-.61-.7-.21-.23-.3-.35L.8,16.34C.71,16.22.61,16.1.53,16L.28,15.6H.23A1.52,1.52,0,0,0,.29,16a2.3,2.3,0,0,0,.14.42,4,4,0,0,0,.22.4,2.47,2.47,0,0,0,.28.38,5.83,5.83,0,0,0,.71.69,7,7,0,0,0,.87.6l.06,0,.06,0,.85-.43a4.08,4.08,0,0,0,.85-.46,1.87,1.87,0,0,0,.3-.33.5.5,0,0,0,.09-.21.35.35,0,0,0,0-.2.87.87,0,0,0-.05-.19,1.42,1.42,0,0,0-.08-.18.75.75,0,0,0-.1-.17l-.07-.09h0l.15,0,.44.63.24.33a1.49,1.49,0,0,0,.33.34,2.13,2.13,0,0,0,1.06.36,1.71,1.71,0,0,0,.32,0,.72.72,0,0,0,.35-.1.28.28,0,0,0,.08-.08v0h0v0h0a.32.32,0,0,1,.12-.2,1.15,1.15,0,0,1,.4-.17,1,1,0,0,0,.27-.09.46.46,0,0,0,.07-.07h0l.11,0a.5.5,0,0,0,.21,0A.74.74,0,0,0,8.87,17,.77.77,0,0,0,9,16.91H9L9.2,17a2,2,0,0,0,.55.23,1,1,0,0,0,.4,0,.74.74,0,0,0,.21-.07l.08-.05.05-.06a.61.61,0,0,0,.14-.43,5.16,5.16,0,0,1,.06-.79,1.25,1.25,0,0,1,.44-.69,1.81,1.81,0,0,1,.41-.23A2.54,2.54,0,0,1,12,14.8a2.33,2.33,0,0,0,1-.49l.09-.08c1.76.45,2.23,0,2.38-.64s-.93-3.45-1.86-4.39a3.77,3.77,0,0,0-3-1c-1,0-1.19.3-1.19.3l.08-.45-.45.38L8.47,7.9l.35.59A1.66,1.66,0,0,0,8,8.22a8,8,0,0,0-4,.94C3.31,9.69,3.23,11.31,3,12a1.39,1.39,0,0,1-.6.84l.1.4,0,0a1.4,1.4,0,0,1-.57.17,3.61,3.61,0,0,1-1-.06,5.27,5.27,0,0,1-.6-.16l-.21-.07,0,0a3.37,3.37,0,0,0,.77.33A3.36,3.36,0,0,0,2,13.66Z"/><path class="cls-5" d="M10,14.79c-.23-.11-1.08-.35-1.08-.35l.64.37s-.5.28-.08.41A.34.34,0,0,0,10,15l.11.14.1-.08s.07-.14-.17-.24"/><path class="cls-5" d="M8.47,13.62a3.41,3.41,0,0,1,1.17.61c.29.33.53.82,1.2.62,0,0-.43-1-2.37-1.23"/><path class="cls-5" d="M15.91,1.9h.17c.38,0,.63-.19.63-.47S16.54,1,16.12,1a.65.65,0,0,0-.21,0ZM15.52.81a3.36,3.36,0,0,1,.57-.05,1.41,1.41,0,0,1,.78.17.57.57,0,0,1,.24.47c0,.3-.21.49-.56.6h0c.26.05.39.22.47.53a3,3,0,0,0,.19.6h-.4a2.63,2.63,0,0,1-.18-.59.49.49,0,0,0-.56-.44h-.16v1h-.39Z"/><path class="cls-5" d="M18.59,2.11h0c0-.34-.18-.49-.37-.49s-.39.26-.41.49Zm-.78.2c0,.52.3.64.59.64a1.16,1.16,0,0,0,.41-.07l.06.2a1.77,1.77,0,0,1-.55.08.8.8,0,0,1-.9-.85.82.82,0,0,1,.84-.9.68.68,0,0,1,.7.75v.15Z"/><path class="cls-5" d="M19.27,2.86a1,1,0,0,0,.4.09c.22,0,.36-.1.36-.25s-.07-.22-.32-.33-.49-.29-.49-.49.29-.47.68-.47a1.16,1.16,0,0,1,.44.09l-.1.2a.84.84,0,0,0-.33-.07c-.22,0-.32.11-.32.21s.06.18.3.3.51.28.51.52-.33.5-.74.5a1.15,1.15,0,0,1-.49-.1Z"/><path class="cls-5" d="M21.15,2.51h0a.34.34,0,0,0,0,.15.36.36,0,0,0,.36.28c.33,0,.43-.31.43-.65s-.12-.65-.43-.65a.41.41,0,0,0-.37.31.62.62,0,0,0,0,.13ZM20.76,2c0-.26,0-.41,0-.53h.35l0,.22h0a.62.62,0,0,1,.52-.25c.43,0,.72.32.72.88a.77.77,0,0,1-.77.88.49.49,0,0,1-.43-.2h0v.84h-.39Z"/><path class="cls-5" d="M23,2.29h0c0,.28.07.66.43.66s.41-.4.41-.66-.07-.66-.42-.66S23,2,23,2.29m1.23,0a.79.79,0,0,1-.82.88.77.77,0,0,1-.8-.88.8.8,0,0,1,.83-.88A.78.78,0,0,1,24.27,2.29Z"/><path class="cls-5" d="M24.66,1.88c0-.2,0-.3,0-.44H25l0,.2h0a.7.7,0,0,1,.56-.23.54.54,0,0,1,.6.59V3.14h-.39V2c0-.2-.06-.4-.34-.4a.38.38,0,0,0-.38.28.66.66,0,0,0,0,.15V3.14h-.4Z"/><path class="cls-5" d="M27.78,2.09h0V2a.39.39,0,0,0-.37-.33c-.33,0-.44.32-.44.66s.13.64.42.64a.38.38,0,0,0,.38-.29.37.37,0,0,0,0-.11ZM28.17.71v2c0,.12,0,.31,0,.41h-.33l0-.21h0a.6.6,0,0,1-.51.24c-.42,0-.72-.31-.72-.87s.36-.89.74-.89a.5.5,0,0,1,.45.21h0V.71Z"/><path class="cls-5" d="M29.73,2.11h0c0-.34-.18-.49-.37-.49s-.39.26-.41.49Zm-.78.2c0,.52.3.64.59.64A1.12,1.12,0,0,0,30,2.88l.06.2a1.75,1.75,0,0,1-.54.08.8.8,0,0,1-.91-.85.82.82,0,0,1,.84-.9.68.68,0,0,1,.71.75.62.62,0,0,1,0,.15Z"/><path class="cls-5" d="M15.27,5.24h0a.45.45,0,0,0,0-.11.39.39,0,0,0-.37-.33c-.32,0-.44.31-.44.65s.14.65.42.65a.38.38,0,0,0,.38-.29.36.36,0,0,0,0-.11Zm.39-1.37v2c0,.12,0,.31,0,.41h-.34l0-.22h0a.59.59,0,0,1-.52.24c-.42,0-.72-.31-.72-.87s.36-.88.75-.88a.53.53,0,0,1,.45.2h0v-.9Z"/><path class="cls-5" d="M16.16,6.3h0V4.6h.39V6.3Zm.42-2.14c0,.1-.09.17-.24.17s-.22-.07-.22-.17.1-.18.23-.18S16.58,4.05,16.58,4.16Z"/><path class="cls-5" d="M17.13,6.3V4.81h-.31V4.6h.31V4.5A.61.61,0,0,1,17.35,4a.83.83,0,0,1,.5-.14,1.08,1.08,0,0,1,.3,0l-.06.21a1,1,0,0,0-.22,0c-.28,0-.35.21-.35.43V4.6H18v.21h-.45V6.3Z"/><path class="cls-5" d="M19.2,5.27h0c0-.34-.18-.49-.37-.49s-.39.26-.4.49Zm-.78.2c0,.52.31.63.59.63A1.15,1.15,0,0,0,19.42,6l.06.2a1.66,1.66,0,0,1-.54.08.81.81,0,0,1-.9-.86.81.81,0,0,1,.83-.89.68.68,0,0,1,.71.75v.15Z"/><path class="cls-5" d="M20,5c0-.15,0-.32,0-.44h.35l0,.27h0a.58.58,0,0,1,.52-.3h.09v.28h-.09a.46.46,0,0,0-.47.35.78.78,0,0,0,0,.16V6.3H20Z"/><path class="cls-5" d="M22.15,5.27h0c0-.34-.18-.49-.37-.49s-.38.26-.4.49Zm-.77.2c0,.52.3.63.58.63A1.11,1.11,0,0,0,22.37,6l.07.2a1.77,1.77,0,0,1-.55.08.81.81,0,0,1-.9-.86.81.81,0,0,1,.84-.89.67.67,0,0,1,.7.75v.15Z"/><path class="cls-5" d="M22.91,5c0-.2,0-.3,0-.44h.35l0,.2h0a.71.71,0,0,1,.57-.23.54.54,0,0,1,.6.59V6.3H24V5.2c0-.2-.06-.4-.34-.4a.38.38,0,0,0-.38.28s0,.09,0,.15V6.3h-.39Z"/><path class="cls-5" d="M25.38,4.15V4.6h.47v.21h-.47v1c0,.22.11.28.26.28h.16v.21a1.07,1.07,0,0,1-.29,0,.69.69,0,0,1-.39-.1A.49.49,0,0,1,25,5.79v-1h-.3V4.6H25V4.23Z"/><path class="cls-5" d="M27.16,5.27h0c0-.34-.18-.49-.37-.49s-.38.26-.4.49Zm-.78.2c0,.52.31.63.59.63A1.11,1.11,0,0,0,27.38,6l.07.2a1.77,1.77,0,0,1-.55.08.81.81,0,0,1-.9-.86.81.81,0,0,1,.84-.89.67.67,0,0,1,.7.75v.15Z"/><path class="cls-5" d="M29.59,5.42h0c-.21,0-.68,0-.68.39a.28.28,0,0,0,.3.3.36.36,0,0,0,.37-.25.34.34,0,0,0,0-.1Zm.05.88,0-.18h0a.6.6,0,0,1-.49.2c-.33,0-.59-.19-.59-.48s.5-.61,1.06-.62v0c0-.23-.08-.39-.4-.39a1.07,1.07,0,0,0-.41.09l-.08-.19a1.48,1.48,0,0,1,.58-.11c.49,0,.71.22.71.61v.73a2.42,2.42,0,0,0,0,.39Z"/><rect class="cls-5" x="21.17" y="7.03" width="0.39" height="2.43"/><path class="cls-5" d="M23,8.58h0c-.21,0-.69,0-.69.39a.29.29,0,0,0,.31.3A.37.37,0,0,0,23,9a.38.38,0,0,0,0-.1Zm.05.87,0-.18h0a.62.62,0,0,1-.49.21c-.33,0-.59-.19-.59-.48s.5-.62,1.06-.62V8.33c0-.23-.09-.39-.4-.39A1.07,1.07,0,0,0,22.2,8l-.09-.19a1.56,1.56,0,0,1,.58-.11c.5,0,.72.22.72.6v.74a2.3,2.3,0,0,0,0,.38Z"/><path class="cls-5" d="M24.86,7.76l.31,1c0,.12.08.27.11.41h0c0-.14.07-.28.1-.41l.31-1h.39l-.64,1.69h-.36l-.64-1.69Z"/><path class="cls-5" d="M26.6,8.6h0c0,.29.07.67.43.67s.41-.4.41-.67-.07-.66-.42-.66-.42.41-.42.66m1.24,0a.8.8,0,0,1-.83.88.78.78,0,0,1-.8-.87A.8.8,0,0,1,27,7.73.78.78,0,0,1,27.84,8.6Z"/><path class="cls-5" d="M28,9.29l.79-1A2.73,2.73,0,0,1,29,8h-.89V7.76H29.4v.17l-.77,1-.2.25h1v.22H28Z"/><path class="cls-5" d="M18.23,11.35c0-.2,0-.3,0-.44h.35l0,.21h0a.72.72,0,0,1,.56-.24.53.53,0,0,1,.51.26h0a.76.76,0,0,1,.25-.19.89.89,0,0,1,.34-.07.54.54,0,0,1,.6.6v1.13h-.39V11.55c0-.22-.05-.44-.35-.44a.38.38,0,0,0-.36.26.61.61,0,0,0,0,.15v1.09h-.39V11.5c0-.19-.05-.39-.34-.39a.38.38,0,0,0-.37.28.59.59,0,0,0,0,.14v1.08h-.38Z"/><path class="cls-5" d="M21.63,11.76h0c0,.28.07.67.43.67s.41-.41.41-.67-.07-.66-.42-.66-.42.4-.42.66m1.24,0a.8.8,0,0,1-.83.88.78.78,0,0,1-.8-.87.8.8,0,0,1,.83-.89A.78.78,0,0,1,22.87,11.76Z"/><rect class="cls-5" x="23.26" y="10.18" width="0.39" height="2.43"/><path class="cls-5" d="M25.24,11.59h0c0-.34-.18-.5-.37-.5s-.39.26-.41.5Zm-.78.2c0,.52.3.63.59.63a1.12,1.12,0,0,0,.41-.07l.06.2a1.77,1.77,0,0,1-.55.08.8.8,0,0,1-.9-.85.82.82,0,0,1,.84-.9.68.68,0,0,1,.71.76.71.71,0,0,1,0,.15Z"/><path class="cls-5" d="M25.92,12.33a1,1,0,0,0,.4.09c.23,0,.36-.1.36-.25s-.06-.22-.31-.33-.5-.29-.5-.49.3-.47.68-.47A1.27,1.27,0,0,1,27,11l-.11.21a.67.67,0,0,0-.33-.08c-.21,0-.32.11-.32.22s.06.17.31.29.51.28.51.52-.34.5-.74.5a1.17,1.17,0,0,1-.5-.1Z"/><path class="cls-5" d="M27.9,10.46v.45h.47v.21H27.9v1c0,.22.11.28.26.28h.16v.2a1.07,1.07,0,0,1-.29,0,.69.69,0,0,1-.39-.1c-.1-.08-.15-.19-.15-.43v-1h-.3v-.21h.3v-.37Z"/><path class="cls-5" d="M29.59,11.73h0c-.2,0-.68,0-.68.4a.28.28,0,0,0,.3.3.36.36,0,0,0,.37-.26.28.28,0,0,0,0-.09Zm.06.88,0-.18h0a.65.65,0,0,1-.5.21.52.52,0,0,1-.58-.49c0-.42.49-.61,1-.61v-.06c0-.22-.08-.38-.39-.38a.86.86,0,0,0-.41.09L28.69,11a1.29,1.29,0,0,1,.58-.12c.49,0,.71.23.71.61v.74a1.58,1.58,0,0,0,0,.38Z"/><path class="cls-5" d="M17.09,14.07l.33,1,.1.36h0l.11-.35.29-1h.39l-.41,1.09a2.61,2.61,0,0,1-.61,1.1,1.15,1.15,0,0,1-.45.25l-.14-.23a1.09,1.09,0,0,0,.35-.21.93.93,0,0,0,.22-.29s0,0,0-.08a.13.13,0,0,0,0-.06l-.63-1.57Z"/><path class="cls-5" d="M20.28,14.89h0c-.21,0-.68,0-.68.39a.29.29,0,0,0,.3.31.37.37,0,0,0,.37-.26.34.34,0,0,0,0-.1Zm0,.88,0-.18h0a.61.61,0,0,1-.49.21.53.53,0,0,1-.59-.49c0-.42.5-.61,1.06-.62v0c0-.23-.08-.39-.4-.39a1.07,1.07,0,0,0-.41.09l-.08-.19A1.48,1.48,0,0,1,20,14c.49,0,.71.23.71.61v.73a2.42,2.42,0,0,0,0,.39Z"/><rect class="cls-5" x="21.92" y="13.34" width="0.39" height="2.43"/><path class="cls-5" d="M23.77,14.89h0c-.21,0-.68,0-.68.39a.29.29,0,0,0,.3.31.37.37,0,0,0,.37-.26.34.34,0,0,0,0-.1Zm.05.88,0-.18h0a.61.61,0,0,1-.49.21.53.53,0,0,1-.59-.49c0-.42.5-.61,1.06-.62v0c0-.23-.08-.39-.4-.39a1.07,1.07,0,0,0-.41.09l-.08-.19a1.48,1.48,0,0,1,.58-.11c.49,0,.71.23.71.61v.73a2.42,2.42,0,0,0,0,.39Z"/><path class="cls-5" d="M25.61,14.07l.31.95a3.63,3.63,0,0,1,.11.42h0c0-.14.07-.29.11-.42l.3-.95h.39l-.64,1.7h-.36l-.64-1.7Z"/><path class="cls-5" d="M27.35,14.92h0c0,.28.08.66.43.66s.41-.4.41-.66-.07-.66-.42-.66-.42.4-.42.66m1.24,0a.8.8,0,0,1-.83.88.78.78,0,0,1-.8-.88.8.8,0,0,1,.83-.88A.78.78,0,0,1,28.59,14.92Z"/><path class="cls-5" d="M28.74,15.6l.78-1,.2-.25h-.89v-.22h1.32v.18l-.77,1-.2.26h1v.23H28.74Z"/><path class="cls-5" d="M21.92,18.05h0c-.21,0-.69,0-.69.39a.29.29,0,0,0,.31.3.37.37,0,0,0,.37-.25.38.38,0,0,0,0-.1Zm0,.87,0-.17h0a.62.62,0,0,1-.49.2c-.33,0-.59-.19-.59-.48s.5-.62,1.06-.62V17.8c0-.23-.09-.39-.4-.39a1.07,1.07,0,0,0-.41.09L21,17.31a1.56,1.56,0,0,1,.58-.11c.5,0,.72.22.72.61v.73a2.24,2.24,0,0,0,0,.38Z"/><rect class="cls-5" x="22.81" y="16.5" width="0.39" height="2.43"/><path class="cls-5" d="M24.79,17.9h0c0-.34-.18-.49-.37-.49s-.39.26-.41.49Zm-.78.2c0,.52.3.63.59.63a1.43,1.43,0,0,0,.41-.06l.06.2a1.75,1.75,0,0,1-.54.08.88.88,0,0,1-.07-1.75.67.67,0,0,1,.7.75v.15Z"/><path class="cls-5" d="M26.64,17.81h0a.23.23,0,0,0,0-.12.35.35,0,0,0-.36-.26c-.28,0-.44.26-.44.64s.2.63.44.63a.36.36,0,0,0,.36-.24.44.44,0,0,0,0-.16Zm.41-.58c0,.12,0,.27,0,.53v.95c0,.44-.08.61-.24.73a1.08,1.08,0,0,1-.66.19,1.66,1.66,0,0,1-.55-.09l.1-.21a1.23,1.23,0,0,0,.46.08c.31,0,.5-.14.5-.52v-.18h0a.52.52,0,0,1-.47.21.75.75,0,0,1-.73-.84.79.79,0,0,1,.78-.88.52.52,0,0,1,.46.22h0l0-.19Z"/><path class="cls-5" d="M27.52,17.66c0-.14,0-.31,0-.43h.36l0,.26h0a.59.59,0,0,1,.52-.29h.08v.28h-.08a.47.47,0,0,0-.48.36.76.76,0,0,0,0,.15v.94h-.4Z"/><path class="cls-5" d="M29.73,17.9h0c0-.34-.18-.49-.37-.49s-.39.26-.4.49Zm-.78.2c0,.52.3.63.59.63a1.43,1.43,0,0,0,.41-.06l.06.2a1.75,1.75,0,0,1-.54.08.88.88,0,0,1-.07-1.75.68.68,0,0,1,.71.75.66.66,0,0,1,0,.15Z"/></svg>