<svg id="Capa_1" data-name="Capa 1" xmlns="http://www.w3.org/2000/svg" viewBox="0 0 31.9 26.4"><defs><style>.cls-1{fill:#f5a4c7;}.cls-2{fill:#fbc5b8;}.cls-3{fill:#231f20;}</style></defs><title>7-3meses</title><path class="cls-1" d="M15.61,23.16a4.55,4.55,0,0,1-2.49,1.74c-1.58.37-3.94-.1-4.29-1.08A2.26,2.26,0,0,1,9,21.73a17,17,0,0,0,.84-3,3.41,3.41,0,0,1,2.26-1.3,6.63,6.63,0,0,1,2.68.83l.79,4.84Z"/><path class="cls-2" d="M13.33,17.7a6.35,6.35,0,0,1,1.22,1.06,12.58,12.58,0,0,1,.59,2.6c.06.47,0,2.27,0,2.27s2.19-.24,2.92-.43,3.38-.27,3.68-.83a6,6,0,0,1,.85-1.11l-.05-.56a1.88,1.88,0,0,1,1.29-.28,9.18,9.18,0,0,0,3.56.24,6.6,6.6,0,0,0,1.87-1.91c.34-.83.83-2.19.65-2.52s-4-2.63-4.92-2.51a6.88,6.88,0,0,0-1.38.31l-.36.25s-1,.92-1.36,1a3.1,3.1,0,0,0-.66.16s.12-.53.18-.77.22-.4-.13-.42-.3,0-.3-.09-.1-.53-.26-.53a.93.93,0,0,0-.4.18s-.06-.31-.31-.37-.37-.13-.39,0,.06.19,0,.17-.49-.32-.74-.28-.37.11-.37.22.18.18-.14.17-.59-.18-.69,0-.34,1-.5,1.31-.53.6-.59.77S16,17.14,16,17.14a3.16,3.16,0,0,0-1.14,0,3.26,3.26,0,0,0-1.56.53"/><path class="cls-2" d="M14,22.15c0-.6-1-3.26-2.05-3.67s-1.1-.62-1.1-.62.3-.29-.35-.45A12.7,12.7,0,0,0,7.64,17a2,2,0,0,0-1.33.6c-.43.36-.61.43-.67.57L5.3,19l-.43.46s-.24.1-.24,0-.19-1.08-.41-1.2-.88.16-1,.07-.24-.1-.35.1-.06.15-.37.24-.35,0-.41.19-.37,0-.53.25-.66.38-.54.59S2.3,21,2.54,21.39a2,2,0,0,0,.89.66c.21.08.75.32.94,0A.78.78,0,0,1,5,21.69s-.27.72-.56.8-.91.54-.78.68a.61.61,0,0,0,.64.19c.25-.09.43.05.7.14s.89.2.89.2a15.87,15.87,0,0,0,2.45-.28c.19-.15.11-.91.11-.91l.28.44a5.28,5.28,0,0,0,3.13,1.46A2.08,2.08,0,0,0,14,22.15"/><path class="cls-3" d="M27.16,17.34h0s0-.15.75-.47c0,0-.62.51-.56,1a1,1,0,0,1-1.07,1,5.5,5.5,0,0,1-.81-.09l1.09.33H25.33a3.16,3.16,0,0,0,.89.34.77.77,0,0,1,.42.18h0a.9.9,0,0,1,.18.27.2.2,0,0,1-.06.2l-.1.06-.15,0a3.37,3.37,0,0,1-.36.06l-.19,0h-.2l-.16,0-.15,0a.42.42,0,0,1-.26-.49v-.06H25.1a2.58,2.58,0,0,1-.29,0,2.3,2.3,0,0,1-.28-.06,5.43,5.43,0,0,0-.53-.17c-.36-.09-.71-.2-1.12-.29l0,0a2.1,2.1,0,0,0,1,.56,2.13,2.13,0,0,0,.63.09H25a2.28,2.28,0,0,0,0,.27.5.5,0,0,0,.18.36l0,0c-.41,0-.63-.32-.76-.29s-.53,0-.69.09a1.83,1.83,0,0,0-1,.21.61.61,0,0,0-.16.12.48.48,0,0,0,0-.12c0-.16-.05.09-.14-.05a1.45,1.45,0,0,0-.33-.41L22,19.85a1.22,1.22,0,0,1-.15-.17,3.5,3.5,0,0,1-.43-.78,8.22,8.22,0,0,1-.3-.83,15.62,15.62,0,0,1-.39-1.64L21,16l.18-.24.18-.24a1.62,1.62,0,0,0,.1-.18l.42-.11.29-.11.14-.08.06,0,0,0c.13-.09.26-.18.38-.28a.85.85,0,0,1,.91.18c.64.5-1.25.91-1.62.84s-.31.39-.31.39c-.07-.23.56-.32.94-.31A2,2,0,0,0,24,15.34c.17-.24.18-.34-.36-.76a.58.58,0,0,0-.49-.13l.26-.18-.14.16L24.73,14l-.74.62.82-.16-.6.41,1.87-.15L25,15l1.55-.22-1.06.32,2.22.28-1.13.48h1.21l-.91.46,1.73-.14s-1.67.29-1.4,1.15m-6.44-3.19h0l0,.08h0a1.08,1.08,0,0,1-.24-.11,1.47,1.47,0,0,1,.08-.28.83.83,0,0,1,.07-.13l0,0,0,0,.06.06a.27.27,0,0,1,.06.12.33.33,0,0,1,0,.14A.43.43,0,0,1,20.72,14.15ZM20.09,14h0a.66.66,0,0,0-.21,0l-.08,0a1.09,1.09,0,0,0-.07-.3.59.59,0,0,1,0-.14.44.44,0,0,1,0-.2s0-.05,0-.05l.1,0a.49.49,0,0,1,.11.07l.09.08a.5.5,0,0,1,.13.19.71.71,0,0,1,.05.29Zm-.41.18h0l-.08,0L19.42,14l-.18,0-.17-.14a1.43,1.43,0,0,0-.24-.16h0l0,0c-.07-.06-.1-.13-.09-.14l0,0,.13,0H19l.14,0a.68.68,0,0,1,.24.12.72.72,0,0,1,.22.44h.13S19.69,14.11,19.68,14.14Zm-.84,0h0l-.09,0a.85.85,0,0,0-.61.09,1.17,1.17,0,0,0-.38.31v0a.86.86,0,0,0,0,.28.32.32,0,0,0,0,.16.28.28,0,0,0,.17.18.38.38,0,0,0,.1,0,.78.78,0,0,0,0,.22.66.66,0,0,0,0,.23.41.41,0,0,0,.07.11,1,1,0,0,0,.07.09l.06.07s0,0,0,.06h0a3.08,3.08,0,0,0-.46.67,2.54,2.54,0,0,0-.24.72l0,.17-.09,0a4.12,4.12,0,0,0-.45-.18,4.89,4.89,0,0,0-.94-.21A5.63,5.63,0,0,1,16.6,16a5.3,5.3,0,0,1,.46-.6c.17-.2.34-.39.52-.57l0,0v-.05l0-.53a1,1,0,0,1,.21-.31.4.4,0,0,1,.29-.13h.11l.09,0,.22.09.17.1.14.11Zm-.44,1.77h0l-.11.05S18.33,16,18.4,15.94ZM6,23.47c-1.17-.07-.22-.78-.25-.8a1,1,0,0,1-.2-.15h0a.38.38,0,0,0-.37,0c-.13.06-.15.18-.07.26l0,0h0a2.18,2.18,0,0,1,.22.21l0,.05h0A2,2,0,0,1,5,22.84l0,0a.22.22,0,0,0-.22,0,.09.09,0,0,0,0,.16h0l0,.05,0,0a.31.31,0,0,1,0,.1.13.13,0,0,1,0,.09s0,0,0,0l0,0a.23.23,0,0,1-.23-.06.31.31,0,0,0,0-.1A.86.86,0,0,0,4.32,23h0a.16.16,0,0,0-.12,0s-.06.05,0,.08v0h0a.75.75,0,0,1,.07.12.11.11,0,0,1,0,.08h0l-.16,0a.34.34,0,0,1-.18-.12.22.22,0,0,1,0-.17.73.73,0,0,1,.16-.21l.13-.09a.41.41,0,0,1,.11-.06l.09,0,.11,0a.4.4,0,0,0,.23-.13.24.24,0,0,0,0-.33h0a.26.26,0,0,1-.1.23.28.28,0,0,1-.13,0H4.21L4,22.45l-.2.11a.86.86,0,0,0-.28.29.36.36,0,0,0,0,.41.47.47,0,0,0,.21.16.87.87,0,0,0,.26.08l.27,0,.17,0a.2.2,0,0,0,.11-.09l0,0a.32.32,0,0,0,.14,0c.09.35.42.36,1.16.25a4.18,4.18,0,0,1,1.53.08c1.06.06,1.2-.43,1.12-1a1,1,0,0,0,.12.17,1.08,1.08,0,0,0,0,.45,1.28,1.28,0,0,0,.16.54,1.87,1.87,0,0,0,.46.55,2.21,2.21,0,0,0,.32.23,2.35,2.35,0,0,0,.43.19,4.71,4.71,0,0,0,.93.25,6.58,6.58,0,0,0,1,.06l.48,0,.46-.07.44-.09.39-.13a3.17,3.17,0,0,0,.64-.33,2,2,0,0,0,.43-.35,2.4,2.4,0,0,0,.24-.31.93.93,0,0,1,.05-.1l.15,0,2-.38c.66-.12,1.32-.25,2-.36l1-.15a3.61,3.61,0,0,0,1-.24l0,0,0,0a3.84,3.84,0,0,0,.49-.27,3.79,3.79,0,0,0,.43-.34,2,2,0,0,0,.34-.38,1.21,1.21,0,0,0,.22-.42.37.37,0,0,0,0-.09c.08-.11,0-.45.17-.53s.33-.26.66-.25h.34c.07,0,.52.36.6.37l.47.05c.34,0,.69.06,1,.06A8.68,8.68,0,0,0,28,20.8,4.76,4.76,0,0,0,29.78,20a3.28,3.28,0,0,0,1-1.29,4.11,4.11,0,0,0,.35-1.44,2.74,2.74,0,0,0-.33-1.46,3.66,3.66,0,0,0-1.21-1.24,6.17,6.17,0,0,0-1.81-.79,9.84,9.84,0,0,0-2.07-.36,4.3,4.3,0,0,0-1.6.21l-.23,0-.11.13-.11.06A8.64,8.64,0,0,0,22.3,14.9v0l0,0,0,0-.11.07-.26.12-.34.11c0-.1.09-.19.13-.29a2.76,2.76,0,0,0,.08-.27,2.19,2.19,0,0,0,0-.27.32.32,0,0,0,0-.22.27.27,0,0,0-.13-.17.66.66,0,0,0-.22-.06,1.62,1.62,0,0,0-.39,0,.41.41,0,0,0,0-.19.58.58,0,0,0-.11-.18l-.08-.07a.3.3,0,0,0-.14-.08.29.29,0,0,0-.24,0,.31.31,0,0,0-.1.1l0,0a.62.62,0,0,0-.15-.22l-.12-.09L20,13.29a.39.39,0,0,0-.21,0,.18.18,0,0,0-.16.12.27.27,0,0,0,0,.12,1.08,1.08,0,0,0-.28-.16l-.22-.05h-.19a.93.93,0,0,0-.24,0,.4.4,0,0,0-.24.14.12.12,0,0,0,0,.08h0l-.18,0a.83.83,0,0,0-.43.09.68.68,0,0,0-.26.19,1.2,1.2,0,0,0-.27.42v0l0,.51a4.15,4.15,0,0,0-.48.57,4.85,4.85,0,0,0-.4.64,3.57,3.57,0,0,0-.29.67,3.21,3.21,0,0,0-.11.52l-.51,0a4.76,4.76,0,0,0-.86.07,4.27,4.27,0,0,0-.7.2,1.58,1.58,0,0,0-.54.34s.27-.08.65-.15a6.16,6.16,0,0,1,.67-.08c.25,0,.51,0,.77,0h.39l.39,0,.36,0,.32,0c.21,0,.38.05.51.05h.12a1.69,1.69,0,0,0,0,.55,3,3,0,0,0,.13.36c0,.11.09.22.13.33a2,2,0,0,1,.08.33.76.76,0,0,1,0,.15,1.15,1.15,0,0,0,0,.19,2.58,2.58,0,0,0,.12.72,3.87,3.87,0,0,0,.33.68,3.18,3.18,0,0,0,.49.62,4,4,0,0,1-.55-1.34,2.57,2.57,0,0,1,0-.68l0-.16a.68.68,0,0,0,0-.2,2.2,2.2,0,0,0-.06-.37c0-.12-.07-.23-.11-.35a3,3,0,0,1-.1-.33,1.84,1.84,0,0,1,0-.33,1.82,1.82,0,0,1,0-.32,2.66,2.66,0,0,1,.23-.65,3,3,0,0,1,.38-.58.27.27,0,0,0,.13-.17.34.34,0,0,0,0-.16l-.07-.11-.08-.09-.06-.07,0,0a.25.25,0,0,1,0-.13,1.12,1.12,0,0,1,.25-.62h0s0,0,0,0l-.37-.11a1.88,1.88,0,0,0-.18.24l-.05.05h0a0,0,0,0,1,0,0,.36.36,0,0,1,0-.11,1.93,1.93,0,0,1,0-.24.72.72,0,0,1,.67-.36l.14,0h0a1,1,0,0,1,.24.15,3.14,3.14,0,0,1,.32.31,1.61,1.61,0,0,0-.25-.35l-.12-.1h.12l.1,0s.06,0,.1-.06a.16.16,0,0,1,.15,0s.06.06.07.1,0,.09,0,.11l0,.11a.2.2,0,0,0,.05.09.3.3,0,0,0,.08.08.77.77,0,0,0,.26.17h.05a.54.54,0,0,0,.13-.25.4.4,0,0,0-.08-.24l-.12-.1h.09l.12,0a.19.19,0,0,1,.15,0c.05,0,.06.07.07.1s0,.1,0,.13l0,.11s0,.07.05.1l.08.09a.89.89,0,0,0,.26.18h.05a.61.61,0,0,0,.13-.25.35.35,0,0,0-.07-.25,1,1,0,0,0-.15-.14h.09a1.55,1.55,0,0,1,.47,0h0a.25.25,0,0,1-.05.11l0,0v0a1.29,1.29,0,0,1-.06.25,1.17,1.17,0,0,1-.09.24,2.48,2.48,0,0,1-.27.47l-.17.22-.19.23-.38.47,0,0v.06a10.3,10.3,0,0,0,.39,1.73,5,5,0,0,0,.87,1.68c.06.06.12.13.19.19l.21.17a1,1,0,0,1,.18.17,1.09,1.09,0,0,1,.13.17,1,1,0,0,1,.16.38,1.08,1.08,0,0,1,0,.4,1.67,1.67,0,0,1-.16.4.18.18,0,0,0-.05.07s0,0,0,0-.23.18-.33.27a2.28,2.28,0,0,1-.69.49,9.13,9.13,0,0,1-2,.31c-1.26.16-2.49.36-3.72.59,0-.18.06-.35.08-.53s0-.51.05-.76a7.14,7.14,0,0,0-.13-1.53,5.21,5.21,0,0,0-.53-1.49,3.89,3.89,0,0,0-.48-.69q-.13-.16-.3-.33c-.11-.1-.24-.19-.36-.29l0,0a3.85,3.85,0,0,1,1,1.34A5.21,5.21,0,0,1,15,20.69,9.24,9.24,0,0,1,15,22.18a9.09,9.09,0,0,1-.2,1.48l-.06.25.11,0-.05.05c-.07.08-.19.16-.3.26s-.14.09-.21.14a2,2,0,0,1-.25.14,5.57,5.57,0,0,1-.63.24l-.36.09-.4.07-.42,0-.43,0a8.5,8.5,0,0,1-.87-.07,5,5,0,0,1-.81-.2l-.34-.15a1.5,1.5,0,0,1-.32-.19,2.54,2.54,0,0,1-.43-.44,1.38,1.38,0,0,1-.22-.46,1.55,1.55,0,0,1,0-.21,3.44,3.44,0,0,0,.69.54,6,6,0,0,0,2.15.75,2.33,2.33,0,0,0,1.26-.15,2,2,0,0,0,.85-.66,2.56,2.56,0,0,0,.5-1.64,3.75,3.75,0,0,0-.46-1.64,5.13,5.13,0,0,0-.52-.76A5.46,5.46,0,0,0,12.6,19a6.47,6.47,0,0,0-.82-.61,8.39,8.39,0,0,0-.84-.48.54.54,0,0,1,.29-.24,1.92,1.92,0,0,1,.56-.13,6.33,6.33,0,0,1,1.23,0l0,0a5.89,5.89,0,0,0-1.27-.12,2.27,2.27,0,0,0-.64.12.9.9,0,0,0-.24.12,4.62,4.62,0,0,0-.73-.4,4.63,4.63,0,0,0-1.05-.34,4.57,4.57,0,0,0-.66-.09,5.45,5.45,0,0,0-.7,0l-.34.05-.36.1a3,3,0,0,0-.57.27,2.39,2.39,0,0,0-.68.66,1.71,1.71,0,0,0-.3.74A4.64,4.64,0,0,1,6.06,18a3,3,0,0,1,.72-.52,2.32,2.32,0,0,1,.48-.21l.25-.06.3,0a6.38,6.38,0,0,1,2.22.25l.81.26a.56.56,0,0,0-.17.21s0,.07,0,.09h0a6.24,6.24,0,0,1,.86.54,6.66,6.66,0,0,1,1.37,1.28,4.68,4.68,0,0,1,.47.72,3.55,3.55,0,0,1,.39,1.54,2.31,2.31,0,0,1-.42,1.51,1.71,1.71,0,0,1-.67.57,1.86,1.86,0,0,1-1,.16,6.1,6.1,0,0,1-2.08-.65,3.56,3.56,0,0,1-.77-.59l0-.07a1,1,0,0,1,0-.31A1.23,1.23,0,0,1,9,22.4a1.72,1.72,0,0,0-.2.26l-.09.17a2,2,0,0,1-.29-.49,2,2,0,0,1-.14-.66,1.38,1.38,0,0,1,.48-.7l-.47.29a3,3,0,0,1,.08-.52s0,0,0-.06a.12.12,0,0,0-.13,0h0A3.39,3.39,0,0,1,7,21.39a3.44,3.44,0,0,1-.72.17,3.74,3.74,0,0,1-.75,0,2.92,2.92,0,0,0-.87.05.65.65,0,0,0-.36.25.58.58,0,0,1-.16.2.59.59,0,0,1-.51.06,1.48,1.48,0,0,1-.54-.29,2.3,2.3,0,0,1-.4-.43,3.88,3.88,0,0,1-.25-.5,9.44,9.44,0,0,0-.74-1c-.11-.15-.23-.33-.22-.41s0-.05,0-.06h0l.06.05.1,0h.1A.37.37,0,0,0,2,19.5a.24.24,0,0,0,.06-.11h0A.21.21,0,0,0,2,19.24l-.07,0,0,0v0l.16,0a1.36,1.36,0,0,0,.12.12h0a.32.32,0,0,0,.2.07c.14,0,.26-.08.27-.18a.29.29,0,0,0-.15-.26l-.09-.05h0v0H2.5a.48.48,0,0,1,.12,0l.09,0s0,0,0,0h0l.48-.15a1.15,1.15,0,0,1-.1-.23s0,0,0-.06h0a.23.23,0,0,1,.07.07l0,.09h0a.24.24,0,0,0,.24.13.24.24,0,0,0,.27-.17.35.35,0,0,1,.06-.18s0,0,0,0h0l.08,0s0,0,0,0l0,0a.78.78,0,0,1,.12.22,3.83,3.83,0,0,0,.46,1.07.13.13,0,0,0,.07,0,.27.27,0,0,0,.29,0h0a4.29,4.29,0,0,1,.49-.45c.18-.15.37-.29.56-.42a5.79,5.79,0,0,1,1.34-.67,5.48,5.48,0,0,1,1.59-.32,5.8,5.8,0,0,1,1.66.14l0,0a6.32,6.32,0,0,0-1.69-.22,5.6,5.6,0,0,0-1.7.27,6.28,6.28,0,0,0-1.46.65,7.5,7.5,0,0,0-.62.43l-.31.25c-.1-.23-.14-.5-.24-.78a1.61,1.61,0,0,0-.15-.29l-.07-.07-.12-.09-.08,0A.54.54,0,0,0,4,18a.75.75,0,0,0-.39,0,.37.37,0,0,0-.16.1s0,0-.05,0a.48.48,0,0,0-.18,0l-.14,0a.76.76,0,0,0-.27.06.31.31,0,0,0-.14.14.28.28,0,0,0,0,.12v.09h-.3l-.18,0c-.12,0-.25.16-.25.26v0H1.8a.47.47,0,0,0-.16,0A.38.38,0,0,0,1.4,19a.28.28,0,0,0,0,.09h0a.55.55,0,0,0-.31.16.31.31,0,0,0-.09.2,1.06,1.06,0,0,0,.29.61A9.27,9.27,0,0,1,2,21a4.29,4.29,0,0,0,.3.53,2.36,2.36,0,0,0,.47.48,2,2,0,0,0,.72.36,1.18,1.18,0,0,0,.5,0,.94.94,0,0,0,.45-.17.82.82,0,0,0,.2-.28.3.3,0,0,1,.18-.13,2.15,2.15,0,0,1,.7-.06h.41a3,3,0,0,0,.42,0,3.24,3.24,0,0,0,.77-.21,4,4,0,0,0,1-.57c0,.13.4,2.07.2,2.27Z"/><path class="cls-3" d="M21,17.27c.1,0-.06-.37-.06-.37a.19.19,0,0,0,.06.37"/><path class="cls-3" d="M22.29,16.38c-.1-.21-.22-.13-.22-.13.27.66.6.1.6.1s-.28.25-.38,0"/><path class="cls-3" d="M24.36,15.66c1,.2,1.89,1.76,1.89,1.76A1.92,1.92,0,0,0,25.49,16c-.79-.63-1.13-.3-1.13-.3"/><path class="cls-3" d="M21.91,16.87c-.59-.31-.59-.56-.59-.56-.32,1.07,1.22,1,1.22,1s-.05-.12-.63-.43"/><path class="cls-3" d="M23.4,15.32c-.57,0-.6-.37-.6-.37-.39.66.6.37.6.37"/><path class="cls-3" d="M24.25,16.1c-.62.41.19.65.19.65a2.4,2.4,0,0,0,1,.26,2.29,2.29,0,0,1-1.15-.91"/><path class="cls-3" d="M10.58,1.28H11V3c0,.53-.32.69-.81.69l-.26,0,0-.23h.19c.28,0,.44-.07.44-.45Z"/><path class="cls-3" d="M13,3.18c0,.19,0,.34,0,.46h-.35l0-.18h0a.73.73,0,0,1-.53.21c-.44,0-.61-.23-.61-.65V2h.4V3c0,.27.06.46.33.46a.34.34,0,0,0,.35-.22.41.41,0,0,0,0-.16V2H13Z"/><path class="cls-3" d="M14.53,2.62h0c0-.34-.18-.49-.37-.49s-.39.26-.4.49Zm-.78.2c0,.52.31.63.59.63a1.12,1.12,0,0,0,.41-.07l.06.2a1.43,1.43,0,0,1-.54.08.8.8,0,0,1-.9-.85.81.81,0,0,1,.83-.89.68.68,0,0,1,.71.75v.15Z"/><path class="cls-3" d="M16.39,2.53h0a.43.43,0,0,0,0-.12A.36.36,0,0,0,16,2.15c-.29,0-.44.26-.44.64s.2.63.44.63a.35.35,0,0,0,.35-.24.5.5,0,0,0,0-.16ZM16.8,2c0,.11,0,.27,0,.53v1c0,.44-.08.61-.25.73a1.06,1.06,0,0,1-.66.19,1.6,1.6,0,0,1-.54-.09l.09-.21a1.27,1.27,0,0,0,.46.08c.32,0,.51-.14.51-.52V3.43h0a.55.55,0,0,1-.48.21.74.74,0,0,1-.72-.84A.79.79,0,0,1,16,1.92a.51.51,0,0,1,.46.22h0l0-.19Z"/><path class="cls-3" d="M18.2,2.77h0c-.21,0-.69,0-.69.39a.29.29,0,0,0,.31.3.37.37,0,0,0,.37-.25.38.38,0,0,0,0-.1Zm.05.87,0-.18h0a.62.62,0,0,1-.49.21c-.33,0-.59-.19-.59-.48s.5-.62,1.06-.62v0c0-.23-.09-.39-.4-.39a1.07,1.07,0,0,0-.41.09L17.29,2a1.56,1.56,0,0,1,.58-.11c.5,0,.72.22.72.6v.74a2.24,2.24,0,0,0,0,.38Z"/><path class="cls-3" d="M21.05,3.6a1.11,1.11,0,0,1-.41.06.81.81,0,0,1-.91-.85.89.89,0,0,1,1-.89,1.54,1.54,0,0,1,.35.05L21,2.19a1.21,1.21,0,0,0-.28,0,.59.59,0,0,0-.58.66.56.56,0,0,0,.59.63,1.18,1.18,0,0,0,.28,0Z"/><path class="cls-3" d="M21.59,2.79h0c0,.29.07.67.43.67s.4-.4.4-.67-.07-.66-.41-.66-.42.41-.42.66m1.23,0a.8.8,0,0,1-.82.88.77.77,0,0,1-.81-.87A.8.8,0,0,1,22,1.92.78.78,0,0,1,22.82,2.79Z"/><path class="cls-3" d="M23.21,2.38c0-.2,0-.3,0-.43h.34l0,.2h0a.71.71,0,0,1,.57-.23.54.54,0,0,1,.6.58V3.64h-.39V2.55c0-.2-.06-.41-.35-.41a.38.38,0,0,0-.37.28.68.68,0,0,0,0,.15V3.64h-.39Z"/><path class="cls-3" d="M9.69,6.52a1,1,0,0,0,.4.09c.23,0,.37-.1.37-.25s-.07-.22-.32-.33-.5-.29-.5-.49.3-.47.68-.47a1.18,1.18,0,0,1,.45.09l-.11.21a.67.67,0,0,0-.33-.08c-.21,0-.32.11-.32.22s.06.17.31.29.51.28.51.52-.34.5-.74.5a1.09,1.09,0,0,1-.49-.1Z"/><path class="cls-3" d="M12.67,6.34c0,.19,0,.33,0,.46h-.34l0-.18h0a.69.69,0,0,1-.53.21c-.43,0-.6-.23-.6-.65V5.1h.39v1c0,.26.06.46.33.46a.36.36,0,0,0,.36-.22.78.78,0,0,0,0-.16V5.1h.39Z"/><path class="cls-3" d="M13.11,6.52a1,1,0,0,0,.39.09c.23,0,.37-.1.37-.25s-.07-.22-.32-.33-.5-.29-.5-.49.3-.47.69-.47a1.16,1.16,0,0,1,.44.09l-.11.21a.66.66,0,0,0-.32-.08c-.22,0-.33.11-.33.22s.06.17.31.29.51.28.51.52-.34.5-.74.5a1.15,1.15,0,0,1-.49-.1Z"/><path class="cls-3" d="M15.35,5.54c0-.2,0-.3,0-.44h.34l0,.21h0a.68.68,0,0,1,.55-.24.54.54,0,0,1,.52.26h0A.67.67,0,0,1,17,5.14a.86.86,0,0,1,.34-.07.54.54,0,0,1,.59.6V6.8h-.39V5.74c0-.22,0-.44-.34-.44a.39.39,0,0,0-.37.26.66.66,0,0,0,0,.15V6.8h-.39V5.69c0-.19,0-.39-.34-.39a.37.37,0,0,0-.37.28.59.59,0,0,0,0,.14V6.8h-.39Z"/><path class="cls-3" d="M19.39,5.92h0c-.2,0-.68,0-.68.4a.29.29,0,0,0,.31.3.35.35,0,0,0,.36-.26.28.28,0,0,0,0-.09Zm.06.88,0-.18h0a.62.62,0,0,1-.49.21c-.33,0-.59-.19-.59-.48s.5-.62,1.05-.62V5.67c0-.22-.08-.38-.39-.38a.91.91,0,0,0-.41.09l-.09-.19a1.36,1.36,0,0,1,.58-.12c.5,0,.71.23.71.61v.74a1.58,1.58,0,0,0,0,.38Z"/><path class="cls-3" d="M20.29,5.54c0-.2,0-.3,0-.44h.35l0,.21h0a.71.71,0,0,1,.57-.24.54.54,0,0,1,.6.59V6.8h-.4V5.71c0-.2-.06-.41-.34-.41a.39.39,0,0,0-.38.28.66.66,0,0,0,0,.15V6.8h-.39Z"/><path class="cls-3" d="M22.59,6h0c0,.28.07.67.43.67s.41-.4.41-.67-.07-.66-.42-.66-.42.4-.42.66m1.24,0a.8.8,0,0,1-.83.88A.78.78,0,0,1,22.2,6,.8.8,0,0,1,23,5.07.78.78,0,0,1,23.83,6Z"/><path class="cls-3" d="M24.15,6.52a1,1,0,0,0,.4.09c.22,0,.36-.1.36-.25s-.07-.22-.32-.33-.49-.29-.49-.49.29-.47.68-.47a1.16,1.16,0,0,1,.44.09l-.11.21a.63.63,0,0,0-.32-.08c-.22,0-.33.11-.33.22s.07.17.31.29.51.28.51.52-.33.5-.74.5a1.15,1.15,0,0,1-.49-.1Z"/></svg>