<svg id="Capa_1" data-name="Capa 1" xmlns="http://www.w3.org/2000/svg" viewBox="0 0 31.56 26.76"><defs><style>.cls-1{fill:#b3d335;}.cls-2{fill:#f5a4c7;}.cls-3{fill:#fbc9b5;}.cls-4{fill:#231f20;}</style></defs><title>8-3meses</title><path class="cls-1" d="M21.82,24a45.42,45.42,0,0,1-4.23-4c-.57-.88-1.84-3.89.06-4.9a28.07,28.07,0,0,1,6-1.73l3.07-.26,3.14.88a5.5,5.5,0,0,1,.89,2.54,12.79,12.79,0,0,1-1.38,4.78l-.54.84Z"/><path class="cls-2" d="M19.66,23.41l3.11-.58h1.15a8,8,0,0,1-.28,1.83c-.21.54-.81,1.54-1.45,1.67A6.71,6.71,0,0,1,19,25.41a4,4,0,0,1-.73-1.66Z"/><path class="cls-3" d="M17.82,23.1a3.46,3.46,0,0,0,1.14.84,5.18,5.18,0,0,0,2-.14,13.16,13.16,0,0,0,1.67-1Z"/><path class="cls-3" d="M19.93,24.32s-.54.42.18,1a2.54,2.54,0,0,0,2.31.51,9.7,9.7,0,0,0,1.82-.68,2.44,2.44,0,0,0,1,.58,1.7,1.7,0,0,1,.93.43c.11.13.7.5,1.08.28a4.79,4.79,0,0,1,1.24-.72,6.93,6.93,0,0,0,1-.42c.27-.09.39-.15.36-.27s0-.11.08-.37a.43.43,0,0,0-.41-.53c-.24,0-.05.19-.47.34a3,3,0,0,1-1,.15c-.08,0-.19.34-.43-.12s-.31-1.23-.65-1.5a4.38,4.38,0,0,0-.78-.5L26,22.45l-2.56.31s.43.26.43.38-.21.2-.24.21,0,0-.48.07-2.6.23-3.21.9"/><path class="cls-3" d="M24.83,20.3a4.44,4.44,0,0,1-2.23-1.14c-.8-.9-1.64-1.94-1.92-2.15a3,3,0,0,0-1.63-.65c-.81-.05-.73,0-.8.05a2.14,2.14,0,0,1-.4.22s-.39-.76-2.05-.76a2.35,2.35,0,0,0-2.53,1.92,4.85,4.85,0,0,0-.11,1.56c0,.15.52.21.52.21A7.43,7.43,0,0,0,13,20.92c0,.22.26.35.32.4s.52.54.69.69.7.28.72.33.09.21.43.21.17.08.17.08a.65.65,0,0,0,.73.79,1.6,1.6,0,0,0,1.19-.4,12.71,12.71,0,0,1,1.8.09,4.26,4.26,0,0,0,1.41-.1,1.62,1.62,0,0,1-.49-1,5.4,5.4,0,0,1,0-.63s3.14-.63,3.52-.78a12.46,12.46,0,0,1,1.3-.35"/><path class="cls-3" d="M17.24,12.26a3.9,3.9,0,0,1-.93-1.17,2,2,0,0,1-.08-.87c0-.08-.43-1.12.1-1.24a15,15,0,0,1,2.73.14c.22,0,4.85.35,5.06.7a5.27,5.27,0,0,1,.73,1.37,13.28,13.28,0,0,0,1.48,2.06,6.78,6.78,0,0,1-1,1.45,5.53,5.53,0,0,1-3.61,1.22c-1.91-.1-.25-1-.32-1.12a2.49,2.49,0,0,0-.53-.47,8.49,8.49,0,0,1-1.55-.43,4.41,4.41,0,0,1-1.48-1.32Z"/><path class="cls-4" d="M17.65,12.13l.54.43c.55-.12.54-.55.54-.55a1.59,1.59,0,0,1-1.08.12"/><path class="cls-4" d="M20.21,11.8s1.26,0,1.26-.68a3.88,3.88,0,0,1-1.58.31s.35.18.32.37"/><path class="cls-4" d="M19.69,12.87c0-.35,0-1.11-1.18-1.41S17,11.41,17.13,12c0,0,.09-.4.66-.4s1.54.27,1.66.68-.51,1.2.91.89c0,0-.7,0-.67-.31"/><path class="cls-4" d="M21.71,13.12a7.8,7.8,0,0,1-1,.39c.91.45,1-.39,1-.39"/><path class="cls-4" d="M22.21,13.64a6.13,6.13,0,0,0-1,.18,1.42,1.42,0,0,0,1-.18"/><path class="cls-4" d="M30.57,17.54h0c0,.22-.06.45-.12.66a5.46,5.46,0,0,1-.19.66,5.64,5.64,0,0,1-.25.64,13.52,13.52,0,0,1-.65,1.25c-.23.4-.49.78-.75,1.16-.93.16-1.89.31-2.85.43s-2,.24-3,.34l-.76.08s-.13-.09-.28-.22a2.68,2.68,0,0,1-.26-.23,1.28,1.28,0,0,1-.24-.29.83.83,0,0,1-.09-.28c0-.09-.05-.17-.07-.24s0-.11,0-.16a7.54,7.54,0,0,0,1.56-.23.2.2,0,0,0,.11,0,.24.24,0,0,0,.13-.08,1.57,1.57,0,0,0,.23-.09l.38-.17a3.93,3.93,0,0,1,.8-.25,9.65,9.65,0,0,1,1.77-.17h.17v-.13c0-.4.08-.8.13-1.2l.17-1.19a9.61,9.61,0,0,1,.23-1.19,2.76,2.76,0,0,1,.52-1.13l0,0a2.65,2.65,0,0,0-.85,1.09,6.43,6.43,0,0,0-.38,1.2A6.27,6.27,0,0,0,25.86,19a10.42,10.42,0,0,0,0,1.12c-.34.05-.68.11-1,.18-.15-.05-.3-.09-.44-.15L24.11,20l-.26-.13a2,2,0,0,1-.25-.14,1.94,1.94,0,0,1-.24-.15,3.5,3.5,0,0,1-.43-.33,4.37,4.37,0,0,1-.7-.73,3.51,3.51,0,0,1-.27-.4,2.27,2.27,0,0,1-.21-.41h0a1,1,0,0,0-.15-.2l-.17-.18A4,4,0,0,0,21,17a4.47,4.47,0,0,0-1-.51l-.27-.1-.28-.08a3.09,3.09,0,0,0-.62-.11,1.55,1.55,0,0,0-.64.08.79.79,0,0,0-.31.2,2.14,2.14,0,0,0-.45-.32,4.12,4.12,0,0,0-.72-.27l.41-.3c.15-.11.33-.22.53-.34l.31-.16a3.36,3.36,0,0,1,.33-.16,6.81,6.81,0,0,1,.7-.28l.33-.12.32-.09.48-.14.08,0,.35.09.34.06h0a1.22,1.22,0,0,1,.18.16.21.21,0,0,1,0,.25c0,.08-.2.16-.33.35a.7.7,0,0,0-.13.29.42.42,0,0,0,.16.36,1.54,1.54,0,0,0,.95.17l.92-.11.93-.13a4.25,4.25,0,0,0,1.66-.66,3.09,3.09,0,0,0,.94-.94,2.28,2.28,0,0,0,.23-.43c.05-.12.09-.23.12-.32.56.11,1.12.22,1.68.31a5.26,5.26,0,0,1,.88.2,1.53,1.53,0,0,1,.59.43,3.12,3.12,0,0,1,.6,1.21c.07.21.12.44.17.64a5.06,5.06,0,0,1,.06.66,4.75,4.75,0,0,1,0,.65M26.5,22.85h0a2.06,2.06,0,0,1,.33.27,1.52,1.52,0,0,0,.18.17c0,.07.11.12.16.19a1.17,1.17,0,0,1,.26.44,2.66,2.66,0,0,1,.1.49.61.61,0,0,0,.07.28.28.28,0,0,0,.07.09.53.53,0,0,0,.15.07.57.57,0,0,0-.19.08.8.8,0,0,0-.27,0,.58.58,0,0,0-.19,0,3.11,3.11,0,0,0-.34-.65,4.64,4.64,0,0,0-.65-.69h0a3,3,0,0,0-.82-.23c-.27,0-.55-.05-.83-.06H24a.3.3,0,0,0,.06-.2.37.37,0,0,0-.09-.16c.64-.07,1.28-.14,1.91-.24l.2,0A1.62,1.62,0,0,1,26.5,22.85ZM28,24.58h0s0,0,0,0h0Zm1.56-.12h0c.08-.1.08-.11.11-.13h0a.12.12,0,0,1,.05.05.57.57,0,0,1,.08.13,1.53,1.53,0,0,1,.07.24.2.2,0,0,1,0,.07.13.13,0,0,0-.09,0,.6.6,0,0,0-.26,0,1.14,1.14,0,0,0-.33.05.41.41,0,0,0-.13-.08A1.11,1.11,0,0,0,29.52,24.46Zm.09-.14h0s0,0,0,0Zm.16.77h0a.22.22,0,0,1-.08.09.85.85,0,0,1-.34.09.21.21,0,0,0-.11,0h0a.39.39,0,0,1-.22.14,1.83,1.83,0,0,1-.37,0,.92.92,0,0,0-.25.05,1,1,0,0,0-.21.09,1.63,1.63,0,0,0-.32.22,4.07,4.07,0,0,1-.53.38,1.9,1.9,0,0,1-.29.09,1,1,0,0,1-.3,0,1,1,0,0,1-.28-.08s0,0,0,0h0l0,0-.1-.14a.84.84,0,0,0-.34-.25,1.92,1.92,0,0,0-.46-.11l-.2,0-.16,0a1.2,1.2,0,0,1-.33-.13,1.53,1.53,0,0,1-.5-.39h-.18l0,0-.07,0-.16.08-.33.14c-.23.09-.48.16-.72.24a4.33,4.33,0,0,1-.73.18,2.62,2.62,0,0,1-.74,0,1.89,1.89,0,0,1-1.14-.58.78.78,0,0,1-.15-.22,1.44,1.44,0,0,1-.09-.24.37.37,0,0,1,.17-.38,2.16,2.16,0,0,1,.57-.27,6.65,6.65,0,0,1,.71-.19c.24-.05.51-.11.73-.14l.77-.09.78-.07c.26,0,.52,0,.78,0a4.27,4.27,0,0,1,1.43.16,5,5,0,0,1,.69.6,2.82,2.82,0,0,1,.46.6l0,0a.29.29,0,0,0-.08.07.24.24,0,0,0,0,.26.49.49,0,0,0,.2.16v-.06a.56.56,0,0,1,0-.13c0-.05,0-.11.06-.12h0l0,0h.09a.54.54,0,0,1,.37.11.68.68,0,0,1,.12.11l.05,0a.28.28,0,0,0,0-.21.47.47,0,0,0-.09-.12H28l.1,0,.12.05.11.06.05,0,0,0a.28.28,0,0,0,0-.1.29.29,0,0,0-.08-.14h0c.08,0,.35.11.36.1a0,0,0,0,0,0,0s0-.06,0-.09v0h.21L29,25l.12.08a.18.18,0,0,0,.07-.12.08.08,0,0,0,0-.07v0a1.34,1.34,0,0,1,.28,0c.15,0,.27.05.29.13a.11.11,0,0,1,0,.06S29.78,25.07,29.77,25.09ZM22.26,26h0a2.61,2.61,0,0,1-.27.06,1.12,1.12,0,0,1-.27,0,3,3,0,0,1-.66-.05c-.23,0-.47-.08-.7-.14a3.12,3.12,0,0,1-.65-.24,2,2,0,0,1-.47-.37,2.44,2.44,0,0,1-.26-.4c-.07-.13-.13-.26-.19-.38s-.23-.45-.3-.59l0-.09.24.1a4,4,0,0,0,.52.1H20a2,2,0,0,0-.24.16.61.61,0,0,0-.25.64,1.12,1.12,0,0,0,.14.29,1.31,1.31,0,0,0,.21.27,2.35,2.35,0,0,0,1.43.61,2.93,2.93,0,0,0,.84,0,6.92,6.92,0,0,0,.76-.21l-.17.07A3.25,3.25,0,0,1,22.26,26Zm.5-2.95h.11l.69-.07a.41.41,0,0,0,0,.16.32.32,0,0,0,.09.17c-.25,0-.5,0-.75.05l-.64.06.07,0A3.79,3.79,0,0,0,22.76,23.05ZM18,23.17h.33l.75,0,.38,0h.39c.51,0,1,0,1.52-.07l.76,0-.06,0-.4.15-.42.18-.92.37-.26.08a2.06,2.06,0,0,1-.26,0h-.25a1.15,1.15,0,0,1-.24-.07c-.15-.06-.28-.14-.4-.19s-.25-.1-.36-.16A2.63,2.63,0,0,1,18,23.17Zm2.57-.28h0l-.13-.12a3.17,3.17,0,0,1-.21-.27,1.13,1.13,0,0,1-.13-.33,1.29,1.29,0,0,1,0-.34,2.71,2.71,0,0,0,0-.29,1.11,1.11,0,0,1,0-.17h.72a.6.6,0,0,0-.08.08.49.49,0,0,0-.06.17.41.41,0,0,0,0,.19,1,1,0,0,0,.27.36,1.93,1.93,0,0,0,.36.28,2.72,2.72,0,0,0,.37.2l.32.13Zm.79-5.06h0a3.87,3.87,0,0,0,.27.43,3,3,0,0,0,.32.4,4.71,4.71,0,0,0,.8.74,4.13,4.13,0,0,0,.49.32l.26.14.28.13.28.12.3.1a2.22,2.22,0,0,0,.39.11l-.48.1-.88.19-.42.12-.15,0-.06-.07-.19-.18-.44-.29c-.15-.09-.31-.18-.45-.28s-.29-.19-.46-.28a2.36,2.36,0,0,0,.28-.12,1.77,1.77,0,0,0,.43-.31.86.86,0,0,0,.13-.16l0,0-.22.09a3.21,3.21,0,0,1-.49.15,2.23,2.23,0,0,0-.27,0,1,1,0,0,0-.21.08l-.12.08-.06,0a2.76,2.76,0,0,0-.64,0,4.68,4.68,0,0,0-.54.07l.07-.05a1.23,1.23,0,0,0,.43-.78,1.25,1.25,0,0,0-.21-.81,1.44,1.44,0,0,0-.81-.61c-.18-.07-.42-.07-.51-.13a.66.66,0,0,1-.24-.3,1.43,1.43,0,0,0-.19-.24,1,1,0,0,1,.33-.13,1.25,1.25,0,0,1,.51,0,3,3,0,0,1,.49.14l.23.09.24.11.45.23.42.24a4.17,4.17,0,0,1,.38.27,1.29,1.29,0,0,1,.17.15.92.92,0,0,1,.14.14Zm-3,4.61h0l.09-.09,0,0a2.15,2.15,0,0,0,.44,0l.15,0a.36.36,0,0,0,.12-.08.24.24,0,0,0,.12-.21.13.13,0,0,0,0-.07.56.56,0,0,0,.13-.07.26.26,0,0,0,.12-.19.21.21,0,0,0-.07-.13.51.51,0,0,0-.15-.07,1.18,1.18,0,0,0-.55,0,1.45,1.45,0,0,0-.23.05l.23.05a3.43,3.43,0,0,1,.44.09l.07,0s0,0,0,0a.13.13,0,0,1,0,.12.41.41,0,0,1-.05.09h0a.44.44,0,0,0-.15-.05,1.32,1.32,0,0,0-.28,0,4.93,4.93,0,0,0-.54.05v0a4.69,4.69,0,0,1,.53,0l.24,0c.07,0,.12.05.11.08a.36.36,0,0,1-.17.16l-.1,0a1.48,1.48,0,0,1-.46-.05l-.11.17c-.09,0-.05-.05-.06-.06s0,0,0,0a0,0,0,0,0,0,0l0,0-.08.07-.2.13-.42.26a9.44,9.44,0,0,1-.9.45,2.69,2.69,0,0,1-.46.14h-.2s-.13,0-.14,0a.5.5,0,0,1-.2-.28,1.48,1.48,0,0,1-.1-.36c0-.13,0-.25,0-.38a.47.47,0,0,1,.1-.32,5.31,5.31,0,0,1,.73-.58.49.49,0,0,0,.16-.19s0-.13-.09-.15a.52.52,0,0,0-.17,0,2.27,2.27,0,0,0-.59.07l-.19.06.18-.07.28-.06a2.34,2.34,0,0,0,.35-.08.3.3,0,0,0,.18-.17.26.26,0,0,0,0-.09.21.21,0,0,0,0-.11.72.72,0,0,0-.41-.14,2.69,2.69,0,0,0-.5,0l.16-.12a.48.48,0,0,0,.18-.25.21.21,0,0,0-.06-.21.5.5,0,0,0-.3-.12h-.08s0-.09-.14,0a2.4,2.4,0,0,1-1.08-.09c-.44-.1-.59-.54-.29-.65s.48.15.77.23a1.52,1.52,0,0,0,.68-.06,1.63,1.63,0,0,1-.71-.21l.41,0c-.41,0-.61-.46-.52-.64s-.34-.9-.34-.9l.37.49-.22-.7.78.88L14.8,17l.46.46L15,16.68l.64.26-.47-.41,1.08.36-.66-.49,1.21.29-.35-.36.7.24-.46-.4.92.4-.46-.38.23.1a2,2,0,0,1,.48.34h0a1.12,1.12,0,0,1,.16.22l.06.1a.4.4,0,0,0-.36.06.65.65,0,0,0-.3.43s.11-.46.73-.37a.37.37,0,0,0,.14.14.61.61,0,0,0,.14.07l.14,0,.23.08a1,1,0,0,1,.57.55,1.29,1.29,0,0,1,.11.69,1.09,1.09,0,0,1-.32.64,2.52,2.52,0,0,1-.73.49c-.27.09-.56.17-.85.24a3.12,3.12,0,0,1-.44.09,2.32,2.32,0,0,1-.46,0v0a2,2,0,0,0,.49,0l.48,0c.32,0,.63-.11.94-.18h0a2.94,2.94,0,0,0,.51-.23l.32,0H20a4.73,4.73,0,0,1,.53,0,5.24,5.24,0,0,1,.53.08,1.72,1.72,0,0,1,.49.19,2.11,2.11,0,0,1,.41.28,1.84,1.84,0,0,1,.23.27l-.08,0c-.22-.08-.46-.14-.7-.21s-.48-.11-.73-.14a3.29,3.29,0,0,0-.77-.06v0c.45.15.87.32,1.31.48.22.08.44.16.67.22l.1,0c-.87.14-1.78.23-2.69.34a.13.13,0,0,0,0-.06.26.26,0,0,0-.1-.2.42.42,0,0,0-.15-.08.71.71,0,0,0-.2,0,1.22,1.22,0,0,0-.53.17,1,1,0,0,0-.18.13l.25,0a2.53,2.53,0,0,1,.48-.08H19l.08,0a.32.32,0,0,1,.12.11l0,.05-.14,0v0h.17a.18.18,0,0,1,0,.05.14.14,0,0,0,0-.05l.5,0-.09.12a.7.7,0,0,0-.12.35.54.54,0,0,0,.05.21,1.13,1.13,0,0,0,.09.2,1.53,1.53,0,0,0,.6.61l.1.06-.58,0-.37,0-.38,0-.75,0-.85,0,.28-.17.42-.29Zm-3-2.42h0S15.36,20,15.37,20Zm-.27,2.21h0a1.82,1.82,0,0,0,0,.33v0a.81.81,0,0,1-.39-.15s0,0,0-.11a.26.26,0,0,0,0-.11A.29.29,0,0,0,14.6,22a.59.59,0,0,0-.28-.17l-.14,0-.1,0-.05,0s0,0,0,0h0s0-.07,0-.1l0-.19-.17,0a.72.72,0,0,1-.25,0,.21.21,0,0,1-.16-.12.28.28,0,0,1,0-.2.55.55,0,0,1,.13-.18,2.73,2.73,0,0,1,.42-.32,5,5,0,0,1,.45-.29,3.94,3.94,0,0,1,.46-.23l.09,0,.15,0,.23,0a1.21,1.21,0,0,1,0,.14l-.12.2-.06.08a2.25,2.25,0,0,0-.54.17,1,1,0,0,0-.39.39,1.54,1.54,0,0,0-.17.43h0a2.14,2.14,0,0,1,.28-.39,1.1,1.1,0,0,1,.39-.31,2.75,2.75,0,0,1,.56-.12,2.36,2.36,0,0,1,.59,0,.38.38,0,0,1,.15,0s0,0,0,0h0a1.71,1.71,0,0,1-.26.06,2.09,2.09,0,0,0-.34.08,1.38,1.38,0,0,0-.3.14.67.67,0,0,0-.23.21.84.84,0,0,0-.17.47v.71l.23-.69a.71.71,0,0,1,.24-.32,1.06,1.06,0,0,1,.44-.21,2,2,0,0,1,.54-.05s.09,0,.11,0,0,0,0,0a1.06,1.06,0,0,1-.15.14,4.08,4.08,0,0,0-.86.56A.63.63,0,0,0,15.1,22.23Zm-1.82-1.09h0s0,.08,0,.11h0a.16.16,0,0,1-.07-.07l0,0v-.05s0-.08,0-.11l0-.14c.05-.09.09-.19.16-.3s.13-.21.18-.32a2.7,2.7,0,0,0,.15-.29l.09-.23a5.24,5.24,0,0,0,.79.15,2.79,2.79,0,0,0-.46.27,2.28,2.28,0,0,0-.71.79A1.15,1.15,0,0,0,13.28,21.14Zm1.37-1.33h0l-.32-.09.5,0Zm9.28-8.29h0s0,0,0,0,0,0,0,0Zm.11,0h0l0,0Zm-5.19,1.93h0a2.91,2.91,0,0,1-.64-.5,2,2,0,0,0-.6-.61A6.44,6.44,0,0,1,17,12a2.93,2.93,0,0,1-.26-.19,1.66,1.66,0,0,1-.19-.18.87.87,0,0,1-.21-.34.5.5,0,0,1,0-.24h0a1.19,1.19,0,0,0,0-1.36,18.67,18.67,0,0,0,5.12.83s.15.06.34.16c-.62,0-1.81,0-2.33,0-.72,0-.45.6-.45.6a2.82,2.82,0,0,1,1.65-.52l1.15-.07c.33.18.8.48.88.83l-.12-.55.42.89s.15-2.17.76-1.55.82,1.1.53,1.46a.08.08,0,0,1,0,0,.28.28,0,0,0-.1-.27l-.1-.07h-.05l-.05.08,0,.05a.34.34,0,0,0-.09-.18c0-.09-.18-.13-.2-.16s0-.08,0-.13a.46.46,0,0,0,.08-.13.49.49,0,0,0,0-.12c0-.07,0-.12,0-.16a.09.09,0,0,1,0-.07v0a.27.27,0,0,0-.18,0,.41.41,0,0,0-.23.22.25.25,0,0,0,0,.15.35.35,0,0,0,.1.16l.14.18c.08.06.09.09.06.12s-.07.07-.09.14a.28.28,0,0,0,0,.25.49.49,0,0,0,.67.08h0c-.42.37-.45.21-.45.21s0,.26.87.76,1.05.82,1.69.73c-.12.15-.28.34-.47.54a6.44,6.44,0,0,1-.92.84,4.14,4.14,0,0,1-.62.4,6.5,6.5,0,0,1-.75.33l-.43.12-.44.08a3.74,3.74,0,0,1-.88,0,1.15,1.15,0,0,1-.61-.18c-.08-.07-.07-.2,0-.33s.23-.24.27-.42a.38.38,0,0,0-.2-.39l-.06,0a2.47,2.47,0,0,0,.47,0,2,2,0,0,0,.54-.14,2.46,2.46,0,0,0,.43-.21,2.76,2.76,0,0,0,1.06-1.4,1.48,1.48,0,0,0,.06-.35h-.05a3,3,0,0,1-.22.31,5.74,5.74,0,0,1-.65.78,4.82,4.82,0,0,1-.52.45,2.06,2.06,0,0,1-.7.38,2.42,2.42,0,0,1-1,0,5,5,0,0,1-1-.35A9.57,9.57,0,0,1,18.85,13.48Zm-2.71-2.26h0v0a.74.74,0,0,0,.1.43.7.7,0,0,1,.06.09A.55.55,0,0,1,16.14,11.22Zm14.82,5a5.15,5.15,0,0,0-.15-.68,3.17,3.17,0,0,0-.69-1.3,1.87,1.87,0,0,0-.77-.5,2.33,2.33,0,0,0-.51-.11l-.37,0a2.74,2.74,0,0,0-.26-.2,2.12,2.12,0,0,0-.48-.26s0-.11,0-.18a.54.54,0,0,0-.58-.4,6.86,6.86,0,0,0-1.65-3.22,7.28,7.28,0,0,0-5.57-2.41c-2.67,0-4.51,1-4.6,2.12,0,0-.78,0-.74,1.37s.11,2.46,3.07,2.61l.14.15a3.34,3.34,0,0,0,.81.56,6.07,6.07,0,0,0,1,.39l.52.15a3.77,3.77,0,0,0-.46,0l-.36,0-.39.08a5.79,5.79,0,0,0-.8.27,3.3,3.3,0,0,0-.67.4,2,2,0,0,0-.26.22c-.07.08-.14.15-.19.22a1.25,1.25,0,0,0-.23.4,5.39,5.39,0,0,0-1.41-.19,4.51,4.51,0,0,0-1.16.16,4.18,4.18,0,0,0-1,.46,3.24,3.24,0,0,0-.72.65,3.9,3.9,0,0,0-.25.36,1.59,1.59,0,0,0-.18.4,1.12,1.12,0,0,0,0,.84,1.06,1.06,0,0,0,.12.2l0,0,0,0,.07.09a2.5,2.5,0,0,0,.4.31,4.31,4.31,0,0,0,1,.4l-.25.15a2.12,2.12,0,0,0-.56.59,1.54,1.54,0,0,0-.08.19,1.17,1.17,0,0,0,0,.2,1.23,1.23,0,0,0,0,.19.42.42,0,0,0,.11.18l.08.07.1,0,.16,0h.07a.25.25,0,0,0,0,.08.39.39,0,0,0,.19.22l.15.07a.34.34,0,0,0,0,.15.33.33,0,0,0,.1.15l.1.06.07,0,.14,0,.11,0,.13.05.05,0a.17.17,0,0,0,0,.06.34.34,0,0,0,.18.23.9.9,0,0,0,.6,0v.07a1.87,1.87,0,0,0,.09.41.81.81,0,0,0,.3.43,1.06,1.06,0,0,0,.38.12,2,2,0,0,0,.36,0,2.93,2.93,0,0,0,.59-.18l.49-.25.52,0a.27.27,0,0,0,0,.14.91.91,0,0,0,.4.43l0,0s0,.11,0,.19a1.71,1.71,0,0,0,.1.65c0,.06.05.13.07.2l0,.05,0,.06.06.1a1.88,1.88,0,0,0,.47.41l.58.33.62.33a3.52,3.52,0,0,0,.69.26,3.26,3.26,0,0,0,.78.13,2,2,0,0,0,.42,0,1.71,1.71,0,0,0,.36-.1,2.17,2.17,0,0,0,.55-.26,2,2,0,0,0,.37-.27,1.79,1.79,0,0,0,.24-.24l.09-.1.26-.11.17-.08.07,0a1.59,1.59,0,0,0,.45.4,1.82,1.82,0,0,0,.37.18l.22.06.2,0a.65.65,0,0,1,.49.26l.06.12.05.08.05.06.07,0a1.83,1.83,0,0,0,.45.15,1.46,1.46,0,0,0,.51,0,1.14,1.14,0,0,0,.45-.15,2.38,2.38,0,0,0,.59-.44l.25-.18.13-.07.14,0a2.08,2.08,0,0,0,.44-.07.59.59,0,0,0,.22-.12.94.94,0,0,0,.1-.1l.18,0a1,1,0,0,0,.23-.11.3.3,0,0,0,.13-.2.31.31,0,0,0,0-.1.23.23,0,0,0,0-.09h0s.05-.09.08-.16a.75.75,0,0,0,0-.28.68.68,0,0,0,0-.19.41.41,0,0,0-.18-.23A.55.55,0,0,0,29.6,24a.58.58,0,0,0-.28.07.71.71,0,0,0-.25.2,1.41,1.41,0,0,1-.41.17,3.65,3.65,0,0,1-.61.13h-.11a.64.64,0,0,1-.14-.2,4,4,0,0,1-.22-.47c-.06-.17-.1-.33-.15-.49a1.57,1.57,0,0,0-.09-.23.85.85,0,0,0-.13-.22,1.44,1.44,0,0,0-.43-.34l-.13-.05c.73-.12,1.45-.25,2.17-.41l.09,0,0-.05a21.39,21.39,0,0,0,1.23-2.56c.16-.43.34-.86.48-1.3.07-.22.13-.44.19-.66a5.35,5.35,0,0,0,.11-.68A3.88,3.88,0,0,0,31,16.21Z"/><path class="cls-4" d="M18.62,20.78l.16,0a.37.37,0,0,1,.12,0,.24.24,0,0,1,.15,0,.21.21,0,0,1,.1.11.29.29,0,0,1,.05.14h.05a.37.37,0,0,0,.11-.15.24.24,0,0,0,0-.23.53.53,0,0,0-.39-.2,1,1,0,0,0-.25,0,.85.85,0,0,0-.23,0,1.78,1.78,0,0,0-.45.13,2.14,2.14,0,0,0-.4.2,1.08,1.08,0,0,0-.31.29c-.1.1-.14.22-.22.3a.74.74,0,0,1-.36.14c-.14,0-.29,0-.42.08a1.91,1.91,0,0,0-.36.13.71.71,0,0,0-.38.37.44.44,0,0,0,0,.17h0l.16-.11a1.73,1.73,0,0,1,.42-.18l.32-.11a3.13,3.13,0,0,0,.36-.19,3.9,3.9,0,0,0,.36-.25.89.89,0,0,1,.3-.24L17.9,21a2.72,2.72,0,0,1,.37-.13l.35-.1"/><path class="cls-4" d="M26.47,26.23h0"/><path class="cls-4" d="M16.6,17.6c-1.07-.56-1.27.71-1.27.71a3.09,3.09,0,0,1,.42-.58c.28-.31.85-.13.85-.13"/><path class="cls-4" d="M16.51,18s0,0,.17,0,0-.2-.35-.15-.56.34-.53.51a1,1,0,0,1,.21-.24s0,.15.3.1.32-.21.2-.26"/><path class="cls-4" d="M17.88,17.38s.08.15.16.11.11-.13,0-.19,0-.07.17,0-.06-.19-.3-.08-.07.37-.07.37a.14.14,0,0,1,0-.19"/><path class="cls-4" d="M18.31,18.31s.13-.21,0-.3a2,2,0,0,0-.62-.11s.65.09.61.41"/><path class="cls-4" d="M18.62,19.07c.63-.22,0-.49.18-.76a5.89,5.89,0,0,1-1.2.69,1.1,1.1,0,0,0,1,.07"/><path class="cls-4" d="M18.82,19.15c.11.11.14,0,.23-.22,0,0-.34.11-.23.22"/><path class="cls-4" d="M.94,3a1.19,1.19,0,0,0,.49.1c.36,0,.58-.16.58-.4s-.19-.35-.46-.49S.9,1.87.9,1.56s.36-.62.91-.62A1.24,1.24,0,0,1,2.3,1l-.1.23a1,1,0,0,0-.41-.08c-.34,0-.49.17-.49.34s.17.32.5.48.6.42.6.69-.42.66-1,.66a1.59,1.59,0,0,1-.58-.1Z"/><path class="cls-4" d="M3.87,2.3h0c0-.34-.18-.49-.37-.49s-.39.26-.4.49Zm-.78.2c0,.52.3.63.59.63a1.15,1.15,0,0,0,.41-.06l.06.2a1.75,1.75,0,0,1-.54.08.8.8,0,0,1-.9-.85.81.81,0,0,1,.83-.9.68.68,0,0,1,.71.75.66.66,0,0,1,0,.15Z"/><path class="cls-4" d="M6.29,2.45h0c-.2,0-.68,0-.68.39a.29.29,0,0,0,.31.3.33.33,0,0,0,.37-.35Zm.06.88,0-.18h0a.62.62,0,0,1-.49.21.53.53,0,0,1-.59-.49c0-.42.5-.61,1-.62v0c0-.23-.08-.39-.39-.39a1.07,1.07,0,0,0-.41.09l-.09-.19A1.56,1.56,0,0,1,6,1.6c.5,0,.71.23.71.61v.73a1.63,1.63,0,0,0,0,.39Z"/><rect class="cls-4" x="7.18" y="0.9" width="0.39" height="2.43"/><path class="cls-4" d="M9.17,2.3h0c0-.34-.18-.49-.37-.49s-.39.26-.41.49Zm-.78.2c0,.52.3.63.59.63a1.09,1.09,0,0,0,.4-.06l.07.2a1.77,1.77,0,0,1-.55.08A.8.8,0,0,1,8,2.5a.82.82,0,0,1,.84-.9.68.68,0,0,1,.7.75V2.5Z"/><path class="cls-4" d="M11,2.21h0a.25.25,0,0,0,0-.12.36.36,0,0,0-.36-.26c-.28,0-.44.27-.44.64s.2.63.44.63A.37.37,0,0,0,11,2.86a.39.39,0,0,0,0-.15Zm.41-.58c0,.12,0,.27,0,.53v.95c0,.45-.08.61-.24.74A1.16,1.16,0,0,1,10.5,4,1.93,1.93,0,0,1,10,4l.09-.22a1.33,1.33,0,0,0,.47.08c.31,0,.5-.14.5-.52V3.12h0a.55.55,0,0,1-.47.2.75.75,0,0,1-.73-.84.79.79,0,0,1,.78-.88.52.52,0,0,1,.46.22h0l0-.19Z"/><path class="cls-4" d="M11.9,2.07c0-.15,0-.32,0-.44h.35l0,.27h0a.61.61,0,0,1,.53-.3h.08v.28h-.08a.47.47,0,0,0-.48.35.78.78,0,0,0,0,.16v.94H11.9Z"/><path class="cls-4" d="M14,2.45h0c-.21,0-.69,0-.69.39a.29.29,0,0,0,.31.3A.36.36,0,0,0,14,2.89a.34.34,0,0,0,0-.1Zm.05.88,0-.18h0a.62.62,0,0,1-.49.21A.53.53,0,0,1,13,2.87c0-.42.5-.61,1.06-.62v0c0-.23-.09-.39-.4-.39a1.07,1.07,0,0,0-.41.09l-.09-.19a1.56,1.56,0,0,1,.58-.11c.5,0,.71.23.71.61v.73a1.63,1.63,0,0,0,0,.39Z"/><path class="cls-4" d="M16.87,3.28a1.08,1.08,0,0,1-.41.07.81.81,0,0,1-.91-.86.89.89,0,0,1,1-.89,1.1,1.1,0,0,1,.35.06l-.08.22a.77.77,0,0,0-.28,0,.59.59,0,0,0-.58.66.56.56,0,0,0,.59.63.86.86,0,0,0,.28,0Z"/><path class="cls-4" d="M18.66,2.86c0,.19,0,.34,0,.47h-.35l0-.18h0a.78.78,0,0,1-.54.21c-.43,0-.6-.24-.6-.66V1.63h.4v1c0,.27.06.47.33.47a.34.34,0,0,0,.35-.23.36.36,0,0,0,0-.15V1.63h.4Z"/><path class="cls-4" d="M20.08,2.45h0c-.21,0-.68,0-.68.39a.28.28,0,0,0,.3.3.36.36,0,0,0,.37-.25.34.34,0,0,0,0-.1Zm.05.88,0-.18h0a.61.61,0,0,1-.49.21A.53.53,0,0,1,19,2.87c0-.42.5-.61,1.06-.62v0c0-.23-.08-.39-.4-.39a1.07,1.07,0,0,0-.41.09l-.08-.19a1.48,1.48,0,0,1,.58-.11c.49,0,.71.23.71.61v.73a2.42,2.42,0,0,0,0,.39Z"/><path class="cls-4" d="M21,2.07c0-.2,0-.3,0-.44h.34l0,.2h0a.74.74,0,0,1,.57-.23.54.54,0,0,1,.6.59V3.33h-.4V2.23c0-.2-.05-.4-.34-.4a.37.37,0,0,0-.37.28.61.61,0,0,0,0,.15V3.33H21Z"/><path class="cls-4" d="M24.09,2.27h0a.45.45,0,0,0,0-.11.38.38,0,0,0-.36-.33c-.33,0-.44.31-.44.65s.13.65.42.65a.36.36,0,0,0,.37-.29.36.36,0,0,0,0-.11ZM24.48.9v2c0,.12,0,.31,0,.41h-.34l0-.22h0a.6.6,0,0,1-.52.25c-.42,0-.72-.32-.72-.88a.78.78,0,0,1,.75-.88.53.53,0,0,1,.45.2h0V.9Z"/><path class="cls-4" d="M25.26,2.48h0c0,.28.08.66.44.66s.4-.4.4-.66-.07-.66-.41-.66-.43.4-.43.66m1.24,0a.8.8,0,0,1-.82.88.78.78,0,0,1-.81-.88.8.8,0,0,1,.83-.88A.78.78,0,0,1,26.5,2.48Z"/><rect class="cls-4" x="27.64" y="0.9" width="0.39" height="2.43"/><path class="cls-4" d="M29.62,2.3h0c0-.34-.18-.49-.37-.49s-.39.26-.4.49Zm-.78.2c0,.52.3.63.59.63a1.15,1.15,0,0,0,.41-.06l.06.2a1.75,1.75,0,0,1-.54.08.8.8,0,0,1-.9-.85.81.81,0,0,1,.83-.9.68.68,0,0,1,.71.75.66.66,0,0,1,0,.15Z"/><path class="cls-4" d="M1.18,4.79l.32,1c0,.12.07.27.1.41h0a2.73,2.73,0,0,1,.1-.41l.31-1h.39L1.77,6.48H1.42L.77,4.79Z"/><path class="cls-4" d="M3.58,5.61h0c-.2,0-.68,0-.68.39a.29.29,0,0,0,.3.3.35.35,0,0,0,.37-.25.38.38,0,0,0,0-.1Zm.06.87,0-.17h0a.62.62,0,0,1-.49.2c-.34,0-.59-.19-.59-.48s.49-.62,1-.62v0c0-.23-.08-.39-.39-.39a1,1,0,0,0-.41.09l-.09-.19a1.48,1.48,0,0,1,.58-.11c.5,0,.71.22.71.6V6.1a1.5,1.5,0,0,0,0,.38Z"/><path class="cls-4" d="M4.47,5.22c0-.2,0-.3,0-.43h.34l0,.2h0a.67.67,0,0,1,.56-.23.53.53,0,0,1,.6.58V6.48H5.6V5.39c0-.2-.06-.4-.34-.4a.38.38,0,0,0-.38.27.76.76,0,0,0,0,.15V6.48h-.4Z"/><path class="cls-4" d="M8.17,5.61h0c-.21,0-.68,0-.68.39a.28.28,0,0,0,.3.3.37.37,0,0,0,.37-.25.38.38,0,0,0,0-.1Zm.05.87,0-.17h0a.62.62,0,0,1-.49.2c-.33,0-.59-.19-.59-.48s.5-.62,1.06-.62v0c0-.23-.09-.39-.4-.39a1.07,1.07,0,0,0-.41.09l-.08-.19a1.48,1.48,0,0,1,.58-.11c.49,0,.71.22.71.6V6.1a2.24,2.24,0,0,0,0,.38Z"/><path class="cls-4" d="M10.91,5.43h0a.45.45,0,0,0,0-.11A.37.37,0,0,0,10.54,5c-.33,0-.44.31-.44.65s.13.65.42.65A.38.38,0,0,0,10.89,6a.43.43,0,0,0,0-.12Zm.39-1.37v2c0,.11,0,.31,0,.4H11l0-.21h0a.62.62,0,0,1-.52.24c-.42,0-.72-.31-.72-.87a.78.78,0,0,1,.75-.88.53.53,0,0,1,.45.2h0v-.9Z"/><path class="cls-4" d="M12.72,5.61h0c-.2,0-.68,0-.68.39a.28.28,0,0,0,.3.3.36.36,0,0,0,.37-.25.38.38,0,0,0,0-.1Zm.06.87,0-.17h0a.64.64,0,0,1-.5.2A.52.52,0,0,1,11.66,6c0-.43.49-.62,1.05-.62v0c0-.23-.08-.39-.39-.39a1,1,0,0,0-.41.09l-.09-.19a1.48,1.48,0,0,1,.58-.11c.49,0,.71.22.71.6V6.1a1.5,1.5,0,0,0,0,.38Z"/><path class="cls-4" d="M13.61,5.22c0-.14,0-.31,0-.43h.36l0,.26h0a.59.59,0,0,1,.52-.29h.08V5h-.08a.48.48,0,0,0-.48.36.71.71,0,0,0,0,.15v.94h-.39Z"/><path class="cls-4" d="M2,8.62H2c0-.34-.18-.49-.37-.49s-.39.26-.41.49Zm-.78.2c0,.52.3.63.59.63a1.12,1.12,0,0,0,.41-.07l.06.2a1.75,1.75,0,0,1-.54.08.79.79,0,0,1-.9-.85.81.81,0,0,1,.83-.9.68.68,0,0,1,.71.76.71.71,0,0,1,0,.15Z"/><rect class="cls-4" x="2.79" y="7.21" width="0.39" height="2.43"/><path class="cls-4" d="M4.86,9h0a.61.61,0,0,0,0,.14.37.37,0,0,0,.37.28c.32,0,.42-.3.42-.65s-.12-.64-.43-.64a.38.38,0,0,0-.36.3.66.66,0,0,0,0,.14Zm-.4-.55c0-.26,0-.41,0-.53H4.8l0,.22h0a.61.61,0,0,1,.52-.25c.43,0,.71.32.71.88s-.37.88-.76.88a.48.48,0,0,1-.43-.2h0v.85h-.4Z"/><path class="cls-4" d="M7.51,8.62h0c0-.34-.18-.49-.37-.49s-.38.26-.4.49Zm-.78.2c0,.52.31.63.59.63a1.08,1.08,0,0,0,.41-.07l.06.2a1.66,1.66,0,0,1-.54.08.8.8,0,0,1-.9-.85.82.82,0,0,1,.84-.9.68.68,0,0,1,.7.76v.15Z"/><path class="cls-4" d="M9.47,9.6a1.32,1.32,0,0,1-.41.06.81.81,0,0,1-.9-.86.88.88,0,0,1,1-.88,1,1,0,0,1,.35,0l-.08.22a.83.83,0,0,0-.28,0,.58.58,0,0,0-.57.65.56.56,0,0,0,.58.64.88.88,0,0,0,.29,0Z"/><path class="cls-4" d="M9.76,7.21h.39v.92h0A.54.54,0,0,1,10.37,8a.77.77,0,0,1,.33-.07.55.55,0,0,1,.58.6V9.64h-.4V8.55c0-.21-.06-.41-.33-.41a.38.38,0,0,0-.38.27.59.59,0,0,0,0,.13v1.1H9.76Z"/><path class="cls-4" d="M12.06,8.79h0c0,.28.08.67.43.67s.41-.4.41-.67-.07-.66-.42-.66-.42.4-.42.66m1.24,0a.8.8,0,0,1-.83.88.78.78,0,0,1-.8-.87.8.8,0,0,1,.83-.89A.78.78,0,0,1,13.3,8.79Z"/></svg>